<?xml version="1.0" standalone="no"?>
<!DOCTYPE svg PUBLIC "-//W3C//DTD SVG 1.1//EN" "http://www.w3.org/Graphics/SVG/1.1/DTD/svg11.dtd" >
<svg xmlns="http://www.w3.org/2000/svg">
<metadata>Generated by IcoMoon</metadata>
<defs>
<font id="searchassist-icons" horiz-adv-x="1024">
<font-face units-per-em="1024" ascent="960" descent="-64" />
<missing-glyph horiz-adv-x="1024" />
<glyph unicode="&#x20;" horiz-adv-x="512" d="" />
<glyph unicode="&#xe900;" glyph-name="externallink" d="M488.641 64c-18.57 0-33.623 15.053-33.623 33.626 0 17.536 13.428 31.936 30.563 33.485l3.060 0.134h280.3c31.853 0 57.894 24.902 59.712 56.301l0.102 3.514v513.884c0 31.853-24.902 57.89-56.301 59.709l-3.514 0.101h-513.884c-31.853 0-57.89-24.899-59.709-56.296l-0.101-3.514v-280.301c0-18.57-15.054-33.623-33.624-33.623-17.538 0-31.94 13.428-33.485 30.563l-0.138 3.060v280.301c0 68.577 54.329 124.465 122.294 126.97l4.764 0.088h513.884c68.576 0 124.467-54.329 126.97-122.294l0.090-4.764v-513.884c0-68.576-54.33-124.467-122.291-126.97l-4.768-0.090h-280.3zM640.186 601.345c17.536 0 31.942-13.428 33.485-30.563l0.141-3.060v-186.868c0-18.57-15.059-33.623-33.626-33.623-17.538 0-31.94 13.427-33.486 30.563l-0.137 3.060-0.013 105.296-326.205-326.202c-13.131-13.133-34.42-13.133-47.551 0-12.358 12.358-13.085 31.942-2.18 45.152l2.18 2.394 326.617 326.618-106.093-0.014c-17.538 0-31.94 13.428-33.485 30.563l-0.138 3.060c0 17.538 13.427 31.939 30.563 33.485l3.060 0.138h186.868z" />
<glyph unicode="&#xe901;" glyph-name="faq" d="M373.359 874.625c-164.693 0-298.667-133.953-298.667-298.625 0-46.186 10.829-91.991 31.458-133.293l-29.75-106.457c-4.501-16.108 0.077-33.493 11.917-45.332 8.811-8.814 20.673-13.584 32.833-13.584 4.16 0 8.363 0.555 12.459 1.705l106.542 29.751c29.227-14.592 60.743-24.021 93.041-28.416-1.515 13.013-2.5 26.207-2.5 39.625 0 62.208 16.983 120.383 46.167 170.665h-62.5l-18.042-44.123c-5.056-12.394-17.038-19.877-29.625-19.877-4.032 0-8.115 0.756-12.083 2.375-16.363 6.68-24.199 25.387-17.5 41.752l96 234.667c0.021 0.021 0.041 0.062 0.041 0.083 0.811 1.963 1.805 3.855 3 5.625 0.213 0.299 0.453 0.514 0.666 0.792 1.003 1.408 2.076 2.784 3.292 4 0.469 0.448 1.009 0.823 1.5 1.25 1.365 1.195 2.796 2.31 4.375 3.292 1.429 0.874 2.859 1.735 4.417 2.375 0.064 0.021 0.124 0.062 0.167 0.083 0.811 0.341 1.648 0.473 2.458 0.75 1.131 0.363 2.202 0.765 3.375 1 1.13 0.235 2.286 0.268 3.417 0.375 0.939 0.085 1.853 0.228 2.792 0.25 1.237 0 2.492-0.184 3.708-0.334 0.853-0.107 1.688-0.079 2.541-0.25 1.536-0.299 3.028-0.822 4.5-1.334 0.491-0.171 0.989-0.224 1.458-0.417 0.043-0.021 0.062-0.042 0.083-0.042 1.941-0.811 3.792-1.827 5.542-3 0.619-0.405 1.132-0.927 1.708-1.375 1.067-0.832 2.185-1.623 3.167-2.583 0.832-0.832 1.483-1.749 2.208-2.667 0.576-0.725 1.217-1.357 1.75-2.125 1.173-1.749 2.148-3.642 2.959-5.583 0.021-0.043 0.062-0.041 0.083-0.083l53.54-130.541c57.387 50.965 131.895 82.763 213.792 85.75-36.628 123.456-151.036 213.875-286.29 213.875zM672.028 618.625c-164.695 0-298.669-133.954-298.669-298.625s133.974-298.626 298.669-298.626c46.186 0 91.947 10.811 133.207 31.417l106.543-29.751c4.096-1.15 8.318-1.705 12.457-1.705 12.158 0 24.021 4.769 32.831 13.584 11.843 11.839 16.419 29.223 11.918 45.332l-29.751 106.457c20.63 41.303 31.46 87.107 31.46 133.293 0 164.671-133.975 298.625-298.665 298.625zM362.734 608.958l-22.208-54.293h44.458l-22.25 54.293zM661.358 469.335c58.817 0 106.669-47.852 106.669-106.669v-64c0-36.864-18.834-69.384-47.336-88.541 7.68-4.309 16.36-7.459 26.002-7.459 17.684 0 32-14.312 32-32 0-17.684-14.316-32-32-32-51.456 0-86.792 34.966-102.877 55.083-50.452 8.448-89.123 52.118-89.123 104.917v64c0 58.817 47.848 106.669 106.665 106.669zM661.358 405.335c-23.528 0-42.665-19.137-42.665-42.669v-64c0-23.528 19.137-42.665 42.665-42.665 23.532 0 42.669 19.137 42.669 42.665v64c0 23.532-19.137 42.669-42.669 42.669z" />
<glyph unicode="&#xe902;" glyph-name="home" d="M842.667 42.667h-192c-29.461 0-53.333 23.872-53.333 53.333v192c0 23.573-19.093 42.667-42.667 42.667h-85.333c-23.573 0-42.667-19.093-42.667-42.667v-192c0-29.461-23.872-53.333-53.333-53.333h-192c-29.461 0-53.333 23.872-53.333 53.333v407.189c0 49.045 22.485 95.381 60.992 125.717l303.189 238.912c11.627 9.131 28.011 9.131 39.616 0l303.232-238.912c38.507-30.336 60.971-76.651 60.971-125.675v-407.232c0-29.461-23.872-53.333-53.333-53.333z" />
<glyph unicode="&#xe903;" glyph-name="list" d="M351.351 853.621c-8.311-0.242-16.2-3.709-22-9.667l-126.708-126.709-62.709 62.709c-2.948 3.071-6.48 5.523-10.388 7.212s-8.114 2.582-12.371 2.625c-4.257 0.043-8.48-0.763-12.422-2.373s-7.523-3.989-10.533-6.999c-3.011-3.011-5.39-6.591-6.999-10.533s-2.416-8.165-2.373-12.422c0.043-4.257 0.935-8.463 2.625-12.371s4.141-7.44 7.212-10.388l85.333-85.333c6.001-5.999 14.139-9.369 22.625-9.369s16.623 3.37 22.625 9.369l149.333 149.333c4.616 4.496 7.768 10.281 9.042 16.598s0.612 12.871-1.9 18.805c-2.512 5.934-6.758 10.972-12.18 14.454s-11.77 5.245-18.212 5.059zM458.642 767.996c-4.238 0.060-8.448-0.723-12.383-2.305-3.938-1.581-7.519-3.929-10.539-6.906-3.017-2.977-5.415-6.526-7.054-10.438-1.634-3.912-2.477-8.111-2.477-12.351s0.843-8.439 2.477-12.352c1.638-3.912 4.037-7.46 7.054-10.437 3.021-2.977 6.601-5.325 10.539-6.906 3.935-1.581 8.145-2.365 12.383-2.304h448c4.242-0.060 8.452 0.723 12.386 2.304s7.515 3.929 10.535 6.906c3.021 2.977 5.419 6.525 7.054 10.437 1.638 3.912 2.481 8.111 2.481 12.352s-0.843 8.439-2.481 12.351c-1.634 3.912-4.033 7.46-7.054 10.438s-6.601 5.325-10.535 6.906c-3.935 1.581-8.145 2.365-12.386 2.305h-448zM351.351 565.622c-8.311-0.244-16.2-3.71-22-9.669l-126.708-126.708-62.709 62.708c-2.948 3.072-6.48 5.526-10.388 7.215-3.908 1.686-8.114 2.58-12.371 2.623s-8.48-0.764-12.422-2.371c-3.942-1.611-7.522-3.99-10.533-7.003-3.011-3.009-5.39-6.589-6.999-10.531s-2.416-8.164-2.373-12.422c0.043-4.257 0.935-8.464 2.625-12.371s4.141-7.44 7.212-10.39l85.333-85.335c6.001-5.998 14.139-9.366 22.625-9.366s16.623 3.367 22.625 9.366l149.333 149.335c4.616 4.498 7.768 10.283 9.042 16.597 1.274 6.317 0.612 12.875-1.9 18.806-2.512 5.935-6.758 10.973-12.18 14.454s-11.77 5.246-18.212 5.061zM458.642 479.996c-4.238 0.059-8.448-0.725-12.383-2.304-3.938-1.583-7.519-3.931-10.539-6.908-3.017-2.977-5.415-6.522-7.054-10.437-1.634-3.911-2.477-8.109-2.477-12.351s0.843-8.44 2.477-12.351c1.638-3.911 4.037-7.459 7.054-10.437 3.021-2.977 6.601-5.325 10.539-6.908 3.935-1.579 8.145-2.363 12.383-2.304h448c4.242-0.059 8.452 0.725 12.386 2.304 3.935 1.583 7.515 3.931 10.535 6.908s5.419 6.526 7.054 10.437c1.638 3.911 2.481 8.109 2.481 12.351s-0.843 8.44-2.481 12.351c-1.634 3.915-4.033 7.459-7.054 10.437s-6.601 5.325-10.535 6.908c-3.935 1.579-8.145 2.363-12.386 2.304h-448zM351.351 277.622c-8.311-0.244-16.2-3.71-22-9.669l-126.708-126.708-62.709 62.708c-2.948 3.072-6.48 5.526-10.388 7.215-3.908 1.686-8.114 2.58-12.371 2.623s-8.48-0.764-12.422-2.371c-3.942-1.611-7.522-3.99-10.533-7.003-3.011-3.009-5.39-6.589-6.999-10.531s-2.416-8.164-2.373-12.422c0.043-4.257 0.935-8.464 2.625-12.371s4.141-7.44 7.212-10.39l85.333-85.335c6.001-5.998 14.139-9.366 22.625-9.366s16.623 3.367 22.625 9.366l149.333 149.335c4.616 4.498 7.768 10.283 9.042 16.597 1.274 6.317 0.612 12.875-1.9 18.806-2.512 5.935-6.758 10.973-12.18 14.454s-11.77 5.246-18.212 5.061zM458.642 191.996c-4.238 0.059-8.448-0.725-12.383-2.304-3.938-1.583-7.519-3.931-10.539-6.908-3.017-2.977-5.415-6.522-7.054-10.437-1.634-3.911-2.477-8.109-2.477-12.351s0.843-8.44 2.477-12.351c1.638-3.911 4.037-7.459 7.054-10.437 3.021-2.977 6.601-5.325 10.539-6.908 3.935-1.579 8.145-2.363 12.383-2.304h448c4.242-0.059 8.452 0.725 12.386 2.304 3.935 1.583 7.515 3.931 10.535 6.908s5.419 6.526 7.054 10.437c1.638 3.911 2.481 8.109 2.481 12.351s-0.843 8.44-2.481 12.351c-1.634 3.915-4.033 7.459-7.054 10.437s-6.601 5.325-10.535 6.908c-3.935 1.579-8.145 2.363-12.386 2.304h-448z" />
<glyph unicode="&#xe904;" glyph-name="search" horiz-adv-x="967" d="M423.21 817.507c-171.692 0-310.876-147.083-310.876-328.52 0-181.44 139.184-328.52 310.876-328.52 75.083 0 143.948 28.126 197.676 74.957l144.134-150.443 2.145-2.042c11.833-10.189 29.281-9.392 40.226 2.321 11.628 12.442 11.514 32.489-0.262 44.777l-143.878 150.181c44.254 56.758 70.838 129.483 70.838 208.769 0 181.437-139.184 328.52-310.879 328.52zM423.21 754.178c138.595 0 250.947-118.73 250.947-265.191 0-146.459-112.352-265.192-250.947-265.192s-250.948 118.733-250.948 265.192c0 146.461 112.353 265.191 250.948 265.191z" />
<glyph unicode="&#xe905;" glyph-name="carrotup" horiz-adv-x="640" d="M590.35 482.98c18.134-18.182 19.2-46.998 3.2-66.431l-3.2-3.529-410.132-430.531c-19.267-19.319-50.502-19.319-69.768 0-18.133 18.181-19.199 46.996-3.2 66.429l3.2 3.529 375.241 395.552-375.241 395.552c-18.133 18.182-19.199 46.997-3.2 66.43l3.2 3.529c18.133 18.182 46.869 19.252 66.248 3.209l3.52-3.209 410.132-430.531z" />
<glyph unicode="&#xe906;" glyph-name="close" d="M584.4 447.991l424.604 424.605c19.994 19.995 19.994 52.413 0 72.408-19.995 19.995-52.412 19.995-72.407 0l-424.606-424.607-424.587 424.569c-19.995 19.994-52.413 19.994-72.408-0.001s-19.994-52.413 0.001-72.408l424.585-424.567-424.587-424.587c-19.995-19.996-19.995-52.413 0-72.408 19.995-19.992 52.413-19.992 72.408 0l424.588 424.588 424.606-424.588c19.996-19.992 52.413-19.992 72.408 0.002 19.992 19.995 19.992 52.412-0.002 72.407l-424.604 424.587z" />
<glyph unicode="&#xe907;" glyph-name="help" d="M364.497 545.64c0 127.521 126.515 185.599 219.67 139.502 58.841-29.119 94.719-98.896 82.918-156.020-8.774-42.443-27.13-67.27-64.164-97.55l-14.286-11.331c-36.159-28.368-46.314-43.071-46.314-77.132 0-16.508-13.381-29.887-29.889-29.887s-29.889 13.379-29.889 29.887c0 53.614 17.975 82.463 61.672 118.147l14.098 11.171c32.126 25.261 44.386 40.529 50.228 68.796 6.195 29.971-15.961 73.060-50.888 90.344-56.652 28.034-133.38-7.189-133.38-85.926 0-16.507-13.382-29.889-29.889-29.889s-29.889 13.382-29.889 29.889zM551.301 231.59c0-20.122-16.309-36.429-36.427-36.429s-36.427 16.307-36.427 36.429c0 20.115 16.309 36.422 36.427 36.422s36.427-16.307 36.427-36.422zM511.986 903.111c-251.351 0-455.111-203.76-455.111-455.111 0-251.354 203.76-455.11 455.111-455.11 251.348 0 455.112 203.757 455.112 455.11 0 251.351-203.763 455.111-455.112 455.111zM511.986 835.687c214.113 0 387.688-173.573 387.688-387.687 0-214.112-173.574-387.686-387.688-387.686s-387.687 173.574-387.687 387.686c0 214.114 173.574 387.687 387.687 387.687z" />
<glyph unicode="&#xe908;" glyph-name="check-round" d="M525.051 923.235c-262.001 7.429-480.857-200-488.286-462s200-481.145 462-488.569c262.001-7.146 481.145 199.995 488.569 462.283 0.878 33.577-1.887 66.405-7.834 98.156-5.208 27.805-38.751 36.604-59.333 17.194-9.904-9.337-14-23.184-11.696-36.596 4.301-24.992 6.385-50.672 5.72-77.039-6.283-221.711-191.712-396.859-413.426-390.854-221.714 6.283-397.142 191.712-391.142 413.426 6.286 221.714 191.714 397.142 413.428 391.142 62.383-1.965 120.965-18.074 173.025-45.244 15.018-7.837 33.532-6.075 45.828 5.579 17.415 16.508 14.987 44.987-6.166 56.324-62.923 33.728-134.306 54.089-210.686 56.197zM903.483 763.092c-14.285 14.28-37.435 14.28-51.719 0l-412.998-413-109.714 109.143-10.906 11.076c-14.143 14.363-37.279 14.453-51.533 0.2-14.246-14.246-14.165-37.368 0.181-51.513l11.058-10.904 135.055-135.488c14.275-14.321 37.463-14.34 51.761-0.042l438.816 438.813c14.277 14.28 14.277 37.434 0 51.714z" />
<glyph unicode="&#xe909;" glyph-name="check" horiz-adv-x="1365" d="M1237.547 897.482c17.903 19.283 47.906 20.254 67.004 2.169 17.98-17.021 19.883-44.855 5.12-64.147l-2.97-3.512-802.811-816.871c-17.152-18.466-45.315-20.096-64.389-4.48l-3.465 3.132-382.404 380.481c-18.649 18.556-18.869 48.863-0.492 67.692 17.296 17.722 44.902 18.962 63.638 3.576l3.405-3.080 347.791-346.043 769.573 781.082z" />
<glyph unicode="&#xe90a;" glyph-name="instructions" horiz-adv-x="939" d="M149.708 960c-70.333 0-128-57.667-128-128v-768c0-70.332 57.667-128 128-128h597.333c70.333 0 128.001 57.668 128.001 128v597.327c0 11.316-4.497 22.169-12.501 30.17l-256.003 256.006c-8.002 8.002-18.854 12.497-30.17 12.497h-426.661zM149.708 874.667h384v-170.667c0-47.128 38.205-85.333 85.333-85.333h170.667v-554.667c0-23.996-18.667-42.667-42.667-42.667h-597.333c-24 0-42.667 18.671-42.667 42.667v768c0 24 18.667 42.667 42.667 42.667zM619.041 814.333l110.333-110.333h-110.333v110.333zM320.375 448c-23.564 0-42.667-19.103-42.667-42.667s19.103-42.667 42.667-42.667h256c23.565 0 42.667 19.103 42.667 42.667s-19.102 42.667-42.667 42.667h-256zM320.375 277.333c-23.564 0-42.667-19.103-42.667-42.667s19.103-42.667 42.667-42.667h170.667c23.565 0 42.667 19.103 42.667 42.667s-19.102 42.667-42.667 42.667h-170.667z" />
<glyph unicode="&#xe90b;" glyph-name="delete" horiz-adv-x="896" d="M362.66 959.996c-5.652 0.077-11.263-0.97-16.506-3.080s-10.017-5.24-14.040-9.21c-4.024-3.97-7.219-8.699-9.4-13.914s-3.304-10.811-3.304-16.463h-255.417c-5.654 0.080-11.267-0.965-16.514-3.073s-10.022-5.238-14.048-9.208c-4.026-3.97-7.224-8.7-9.406-13.917s-3.306-10.814-3.306-16.468c0-5.654 1.124-11.252 3.306-16.469s5.38-9.947 9.406-13.917c4.026-3.97 8.802-7.1 14.048-9.208s10.86-3.153 16.514-3.073h768.001c5.651-0.080 11.264 0.964 16.512 3.073s10.022 5.238 14.048 9.208c4.026 3.97 7.226 8.701 9.408 13.917s3.309 10.815 3.309 16.469c0 5.654-1.126 11.252-3.309 16.468s-5.382 9.947-9.408 13.917c-4.026 3.97-8.8 7.1-14.048 9.208s-10.861 3.153-16.512 3.073h-255.417c0 5.652-1.123 11.248-3.304 16.463s-5.375 9.944-9.4 13.914c-4.024 3.97-8.796 7.1-14.040 9.21s-10.854 3.157-16.506 3.080h-170.667zM63.993 746.663v-682.669c0-47.142 38.187-85.331 85.334-85.331h597.336c47.142 0 85.331 38.189 85.331 85.331v682.669h-768.001z" />
<glyph unicode="&#xe90c;" glyph-name="eye" horiz-adv-x="1396" d="M698.182 913.455c-415.106 0-683.241-428.739-688.091-436.545-6.528-8.223-10.084-18.411-10.091-28.909 0.008-9.007 2.629-17.818 7.545-25.364 0.060-0.091 0.121-0.182 0.182-0.273 0.8-1.651 225.877-439.818 690.455-439.818 462.606 0 687.355 433.862 690.092 439.181 0.186 0.302 0.363 0.604 0.54 0.909 4.925 7.546 7.54 16.357 7.55 25.364 0 10.457-3.528 20.608-9.998 28.818-0.028 0.031-0.065 0.061-0.093 0.091-4.85 7.807-272.989 436.545-688.091 436.545zM698.182 773.818c179.945 0 325.818-145.873 325.818-325.818s-145.873-325.818-325.818-325.818c-179.945 0-325.818 145.873-325.818 325.818s145.873 325.818 325.818 325.818zM698.182 587.636c-37.033 0-72.551-14.712-98.738-40.899s-40.899-61.704-40.899-98.738c0-37.033 14.712-72.551 40.899-98.738s61.704-40.899 98.738-40.899c37.033 0 72.551 14.712 98.738 40.899s40.899 61.704 40.899 98.738c0 37.033-14.712 72.551-40.899 98.738s-61.704 40.899-98.738 40.899z" />
<glyph unicode="&#xe90d;" glyph-name="info" d="M56.891 448.014c0 251.351 203.76 455.111 455.111 455.111s455.108-203.76 455.108-455.111c0-251.348-203.757-455.112-455.108-455.112s-455.111 203.763-455.111 455.112zM899.686 448.014c0 214.113-173.568 387.687-387.684 387.687-214.114 0-387.688-173.574-387.688-387.687s173.574-387.688 387.688-387.688c214.116 0 387.684 173.574 387.684 387.688zM512.002 517.338c17.584 0 32.024-13.463 33.574-30.643l0.138-3.069v-251.242c0-18.618-15.094-33.709-33.712-33.709-17.585 0-32.024 13.466-33.574 30.643l-0.138 3.066v251.242c0 18.619 15.093 33.712 33.712 33.712zM512.002 592.822c22.85 0 41.373 18.524 41.373 41.374s-18.524 41.373-41.373 41.373c-22.851 0-41.374-18.524-41.374-41.373s18.524-41.374 41.374-41.374z" />
<glyph unicode="&#xe90e;" glyph-name="external-link" d="M933.904 913.136c-1.568-0.049-3.127-0.186-4.679-0.41h-246.561c-5.567 0.079-11.094-0.95-16.26-3.026s-9.867-5.158-13.832-9.067c-3.964-3.909-7.113-8.567-9.262-13.703s-3.255-10.648-3.255-16.215c0-5.567 1.106-11.080 3.255-16.215s5.297-9.794 9.262-13.703c3.964-3.909 8.666-6.991 13.832-9.066s10.693-3.104 16.26-3.026h150.644l-432.408-432.411c-4.032-3.871-7.251-8.507-9.468-13.638s-3.389-10.652-3.446-16.241c-0.057-5.589 1.002-11.133 3.115-16.308s5.237-9.876 9.189-13.829c3.952-3.952 8.654-7.076 13.828-9.188s10.719-3.172 16.308-3.115c5.589 0.058 11.11 1.229 16.241 3.446s9.767 5.437 13.639 9.469l432.41 432.41v-150.646c-0.079-5.567 0.953-11.094 3.025-16.26 2.080-5.166 5.159-9.868 9.066-13.833s8.57-7.112 13.706-9.261c5.136-2.149 10.65-3.256 16.211-3.256 5.569 0 11.083 1.107 16.219 3.256s9.791 5.296 13.706 9.261c3.907 3.964 6.987 8.666 9.066 13.833 2.072 5.166 3.104 10.693 3.025 16.26v246.728c0.835 6.049 0.339 12.207-1.441 18.046-1.788 5.839-4.829 11.219-8.901 15.764-4.080 4.546-9.098 8.148-14.706 10.556-5.616 2.408-11.681 3.564-17.786 3.388zM94.521 744.685c-45.92 0-84.021-38.101-84.021-84.021v-630.157c0-45.915 38.101-84.015 84.021-84.015h630.154c45.92 0 84.018 38.101 84.018 84.015v528.414l-84.018-84.021v-444.393h-630.154v630.157h444.389l84.021 84.021h-528.41z" />
<glyph unicode="&#xe90f;" glyph-name="lock" d="M512 960c-282.752 0-512-229.248-512-512s229.248-512 512-512c282.752 0 512 229.248 512 512s-229.248 512-512 512zM512 704c94.123 0 170.669-76.544 170.669-170.667v-42.666c23.552 0 42.662-19.115 42.662-42.667v-170.669c0-23.552-19.11-42.662-42.662-42.662h-341.336c-23.552 0-42.666 19.11-42.666 42.662v170.669c0 23.552 19.114 42.667 42.666 42.667v42.666c0 94.123 76.544 170.667 170.667 170.667zM512 618.667c-47.061 0-85.333-38.272-85.333-85.334v-42.666h170.666v42.666c0 47.062-38.272 85.334-85.333 85.334z" />
<glyph unicode="&#xe910;" glyph-name="user" d="M512 960c-282.752 0-512-229.248-512-512s229.248-512 512-512c282.752 0 512 229.248 512 512s-229.248 512-512 512zM213.333 143.315c49.792 149.338 199.126 91.053 224 171.949v53.931c-11.178 6.016-43.221 47.317-46.592 79.573-8.832 0.768-22.656 9.515-26.752 44.117-2.176 18.56 6.528 29.014 11.776 32.299 0 0-13.141 29.952-13.141 59.691 0.043 88.405 43.819 161.792 149.376 161.792 57.003 0 74.667-40.406 74.667-40.406 50.944 0 74.664-55.85 74.664-121.344 0-32.64-13.139-59.69-13.139-59.69 5.293-3.286 13.997-13.739 11.821-32.299-4.096-34.603-17.92-43.349-26.754-44.117-3.371-32.256-35.371-73.558-46.592-79.574v-53.928c24.874-80.941 174.21-22.656 224.002-171.994 0 0-111.706-121.984-298.669-121.984-188.032 0-298.667 121.984-298.667 121.984z" />
<glyph unicode="&#xe911;" glyph-name="add-plus" d="M558.114 918.604c-2.103 23.209-21.688 41.395-45.539 41.395-25.254 0-45.725-20.389-45.725-45.54v-403.512l-425.287 0.002c-23.303-2.094-41.564-21.6-41.564-45.355 0-25.151 20.472-45.54 45.726-45.54l421.125-0.188v-438.323l0.187-4.147c2.103-23.211 21.688-41.395 45.538-41.395 25.254 0 45.726 20.386 45.726 45.542v438.323l424.133-0.004c23.305 2.094 41.566 21.6 41.566 45.355 0 25.151-20.471 45.541-45.722 45.541l-419.977 0.189v403.512l-0.187 4.145z" />
<glyph unicode="&#xe913;" glyph-name="settings" d="M511.987 601.944c-85.075 0-154.111-69.034-154.111-154.126s69.037-154.128 154.111-154.128c85.074 0 154.113 69.036 154.113 154.128s-69.039 154.126-154.113 154.126zM511.987 534.479c47.846 0 86.687-38.838 86.687-86.661s-38.841-86.662-86.687-86.662c-47.847 0-86.688 38.839-86.688 86.662s38.841 86.661 86.688 86.661zM605.597 903.125h-187.281c-16.108 0-29.965-11.401-33.076-27.215l-5.178-26.306-16.175-78.499-2.557-1.142c-19.735-9.033-38.746-20.006-57.050-32.794l-3.288-2.347-80.097 26.785-26.715 8.294c-15.010 4.656-31.244-1.683-39.135-15.281l-13.485-23.236-66.42-111.109-13.706-23.612c-8.101-13.96-5.183-31.707 6.962-42.333l19.746-17.277 60.662-51.641-1.543-10.365c-1.316-9.818-1.951-18.173-1.951-27.034l0.034-3.858c0.157-8.651 0.875-16.337 2.426-26.827l1.034-6.696-60.315-51.361-20.093-17.576c-12.145-10.626-15.063-28.371-6.962-42.33l13.484-23.238 66.863-111.859 13.244-22.886c7.896-13.645 24.183-19.994 39.222-15.296l26.006 8.128 80.737 27.008 3.288-2.362c18.303-12.787 37.315-23.763 57.050-32.794l2.557-1.126 16.233-78.803 5.12-26.022c3.112-15.808 16.969-27.213 33.076-27.213h187.281c16.079 0 29.921 11.36 33.062 27.142l5.239 26.304 16.102 78.592 2.586 1.126c19.731 9.030 38.746 20.006 57.050 32.794l3.258 2.362 80.122-26.803 26.65-8.333c15.014-4.691 31.277 1.632 39.187 15.238l13.549 23.296 66.374 111.142 13.728 23.546c8.154 13.978 5.229 31.784-6.963 42.421l-19.808 17.276-60.608 51.606 0.653 4.141c2.054 13.337 2.829 22.169 2.829 33.26l-0.032 3.622c-0.16 9.487-0.973 17.782-2.797 29.637l-0.672 4.161 60.32 51.321 20.115 17.542c12.192 10.636 15.117 28.44 6.963 42.422l-13.542 23.236-66.765 111.793-13.363 22.928c-7.904 13.562-24.115 19.873-39.098 15.224l-26.010-8.067-80.832-27.013-3.258 2.347c-18.304 12.788-37.318 23.761-57.050 32.794l-2.586 1.142-16.141 78.764-5.201 26.114c-3.141 15.779-16.982 27.142-33.062 27.142zM446.016 835.681h131.919l19.621-95.632c2.317-11.292 10.235-20.618 20.997-24.73 27.143-10.372 52.973-25.36 77.556-44.64l2.758-1.948c8.512-5.395 19.059-6.728 28.73-3.493l96.499 32.289 66.093-110.684-73.344-62.45c-9.018-7.679-13.35-19.532-11.411-31.222l3.482-20.731c1.677-10.774 2.266-17.159 2.266-24.425l-0.096-4.772c-0.218-5.549-0.864-11.274-2.17-19.653l-3.482-20.732-0.378-3.189c-0.736-10.622 3.59-21.052 11.789-28.033l73.344-62.432-66.118-110.682-96.474 32.269c-10.746 3.59-22.573 1.549-31.488-5.44-24.582-19.283-50.413-34.272-77.556-44.64l-2.863-1.248c-9.293-4.576-16.028-13.216-18.134-23.482l-19.621-95.597h-131.919l-19.664 95.616c-2.322 11.283-10.237 20.602-20.993 24.71-27.145 10.368-52.973 25.357-77.558 44.64l-2.758 1.946c-8.512 5.395-19.059 6.726-28.727 3.494l-96.46-32.25-66.159 110.662 73.369 62.432c8.989 7.652 13.325 19.45 11.431 31.105l-3.11 18.554c-1.981 12.321-2.653 19.027-2.653 26.72 0 7.962 0.894 16.15 2.938 28.527l2.792 16.541 0.384 3.196c0.767 10.648-3.558 21.114-11.781 28.113l-73.369 62.45 66.138 110.684 96.481-32.289c10.742-3.594 22.57-1.549 31.485 5.441 24.586 19.28 50.413 34.268 77.558 44.64l2.861 1.247c9.287 4.573 16.021 13.206 18.132 23.463l19.664 95.652z" />
<glyph unicode="&#xe914;" glyph-name="pencil-edit" horiz-adv-x="951" d="M780.303 905.143c-38.978 0-78.252-14.579-107.708-44.333h-0.298l-572.753-582.572-79.276-238.054c-9.749-29.279 18.119-57.117 47.383-47.331l237.786 79.492 6.546 6.246 576.030 566.804c59.209 59.209 59.209 156.205 0 215.414-29.462 29.456-68.732 44.333-107.71 44.333zM780.303 829.272c19.339 0 38.678-7.141 53.855-22.315 30.047-30.051 30.047-77.657 0-107.707l-60.101-59.21c-8.331 20.53-21.723 42.548-42.847 63.672-21.423 21.423-43.44 34.514-63.97 42.845l59.507 60.698c14.879 14.579 34.218 22.315 53.557 22.017zM616.956 682.29c13.984-1.19 34.514-6.546 60.102-32.134 25.885-25.885 31.241-46.415 32.729-60.399 0.893-10.712-0.595-12.199-1.19-13.984l-393.638-387.093c-8.331 18.747-21.422 38.678-41.059 58.318-19.34 19.34-39.275 32.432-58.317 40.763l387.389 393.34c1.785 0.892 3.273 2.082 13.984 1.19zM163.216 224.68c11.901-0.892 30.944-5.654 57.127-31.832 25.885-25.885 30.645-44.932 31.538-56.532 0-1.492-0.298-0.6 0-1.785l-72.599-24.101c-5.95 7.439-12.199 14.877-19.637 22.316-7.14 7.139-14.579 13.385-22.017 19.039l24.398 72.894c0.892-0.293 0 0 1.19 0z" />
<glyph unicode="&#xe915;" glyph-name="delete1" d="M385.916 538.997c23.065 0 42.004-17.659 44.038-40.194l0.181-4.025v-280.669c0-24.421-19.798-44.218-44.219-44.218-23.065 0-42.004 17.658-44.038 40.194l-0.181 4.024v280.669c0 24.422 19.797 44.219 44.219 44.219zM617.066 498.803c-2.033 22.535-20.973 40.194-44.038 40.194-24.421 0-44.218-19.797-44.218-44.219v-280.669l0.18-4.024c2.033-22.536 20.974-40.194 44.038-40.194 24.422 0 44.219 19.797 44.219 44.218v280.669l-0.181 4.025zM573.028 960c74.089 0 134.519-58.48 137.648-131.798l0.127-5.977v-49.338h189.669c24.422 0 44.22-19.797 44.22-44.218 0-23.065-17.655-42.004-40.192-44.038l-4.028-0.181h-49.334v-610.679c0-74.086-58.481-134.511-131.799-137.643l-5.976-0.128h-467.782c-74.088 0-134.518 58.479-137.647 131.797l-0.128 5.973v610.679h-49.337c-24.421 0-44.219 19.797-44.219 44.219 0 23.065 17.659 42.004 40.194 44.038l4.025 0.18h189.672v49.338c0 74.089 58.48 134.518 131.798 137.648l5.977 0.127h187.112zM196.244 684.45v-610.679c0-25.882 19.936-47.113 45.291-49.169l4.047-0.162h467.782c25.886 0 47.116 19.934 49.174 45.286l0.163 4.045v610.679h-566.456zM622.366 772.887h-285.788v49.338l0.164 4.047c2.058 25.356 23.288 45.292 49.174 45.292l191.159-0.164c25.356-2.058 45.292-23.288 45.292-49.174v-49.338z" />
<glyph unicode="&#xe916;" glyph-name="external-horizantal" horiz-adv-x="1182" d="M236.308 960c-64.923 0-118.154-53.231-118.154-118.154v-157.538c0-21.751 17.633-39.385 39.385-39.385s39.385 17.633 39.385 39.385v157.538c0 22.154 17.231 39.385 39.385 39.385h787.692c22.15 0 39.385-17.231 39.385-39.385v-787.692c0-22.15-17.235-39.385-39.385-39.385h-787.692c-22.154 0-39.385 17.235-39.385 39.385v157.538c0 21.751-17.633 39.385-39.385 39.385s-39.385-17.633-39.385-39.385v-157.538c0-64.922 53.231-118.154 118.154-118.154h787.692c64.922 0 118.154 53.232 118.154 118.154v787.692c0 64.923-53.232 118.154-118.154 118.154h-787.692zM596.943 694.165c-15.308 15.291-40.11 15.284-55.409-0.015-15.295-15.296-15.306-40.092-0.024-55.401l151.105-151.365h-613.846c-21.751 0-39.385-17.633-39.385-39.385s17.633-39.385 39.385-39.385h613.846l-151.076-151.076c-15.319-15.319-15.388-40.135-0.154-55.539 15.354-15.524 40.406-15.593 55.846-0.154l229.097 229.098c9.421 9.418 9.413 24.688-0.008 34.101l-229.378 229.119z" />
<glyph unicode="&#xe917;" glyph-name="eyeshow" horiz-adv-x="1489" d="M744.723 960c-132.061 0-255.21-33.592-358.378-91.919-22.349-12.635-28.16-41.619-14.011-63.043 14.168-21.454 42.975-27.176 65.502-14.787 87.731 48.249 193.151 76.658 306.886 76.658 114.956 0 221.496-29.036 309.793-78.264 22.444-12.511 51.265-6.984 65.573 14.355s8.685 50.385-13.61 63.158c-103.871 59.514-228.333 93.843-361.756 93.843zM223.84 512.601c-10.901 23.29-37.078 36.57-61.453 28.378-24.327-8.176-37.605-34.636-26.636-57.836 16.47-34.836 37.585-67.436 60.608-98.779l-103.273-103.273c-18.175-18.175-18.175-47.643 0-65.818s47.643-18.175 65.818 0l101.273 101.273c46.122-45.046 98.999-82.471 159.454-112.728l-52.769-127.568c-9.819-23.74 1.455-50.948 25.189-60.778 23.761-9.849 51.003 1.443 60.825 25.216l51.483 124.584c60.867-20.826 125.814-32.292 193.818-36.546v-136.724c0-25.712 20.838-46.545 46.545-46.545s46.545 20.834 46.545 46.545v136.724c68.006 4.255 132.951 15.71 193.82 36.546l51.479-124.584c9.821-23.774 37.069-35.065 60.826-25.216 23.738 9.83 35.011 37.038 25.19 60.778l-52.773 127.568c60.453 30.268 113.338 67.672 159.455 112.728l101.274-101.273c18.181-18.175 47.644-18.175 65.815 0 18.181 18.175 18.181 47.643 0 65.818l-103.266 103.273c23.021 31.345 44.125 64.024 60.593 98.903 10.966 23.222-2.346 49.695-26.708 57.831-24.343 8.131-50.446-5.143-61.319-28.392-80.040-171.118-281.349-297.433-520.932-297.433-239.542 0-440.811 126.267-520.883 297.329z" />
<glyph unicode="&#xe918;" glyph-name="warning" horiz-adv-x="1195" d="M651.494 172.731c0 30.406-24.648 55.054-55.054 55.054s-55.054-24.648-55.054-55.054c0-30.405 24.649-55.054 55.054-55.054s55.054 24.649 55.054 55.054zM640.303 342.413c-2.025-22.446-20.89-40.035-43.863-40.035-24.324 0-44.043 19.719-44.043 44.043v245.651l0.18 4.009c2.026 22.446 20.89 40.034 43.863 40.034 24.324 0 44.043-19.718 44.043-44.043v-245.651l-0.18-4.008zM546.261 943.6c18.094 10.857 38.113 16.4 59.219 16.4s41.125-5.544 59.219-16.4c17.964-10.778 32.274-25.698 42.441-44.236l435.457-798.704c16.99-35.439 14.959-72.969-5.291-107.452-10.257-17.493-24.499-31.582-42.163-41.762-17.741-10.231-37.231-15.445-57.702-15.445l-872.531 0.307c-17.37 1.271-33.891 6.374-49.096 15.138-17.662 10.18-31.905 24.269-42.141 41.728-21.737 37.009-22.376 77.252-1.812 114.262l432.796 793.392 3.733 6.205c9.722 15.024 22.475 27.33 37.872 36.568zM619.379 868.066c-4.403 2.642-8.757 3.848-13.899 3.848s-9.496-1.206-13.899-3.848c-3.887-2.332-6.837-5.178-8.384-7.514l-2.046-3.369-432.125-792.227c-5.519-9.933-5.408-16.939 0.62-27.204 2.495-4.258 5.688-7.415 10.149-9.984 3.758-2.167 7.439-3.302 9.9-3.516l3.825-0.162h863.92c5.026 0 9.353 1.152 13.722 3.678 4.463 2.569 7.654 5.726 10.172 10.018 5.623 9.574 5.982 16.145 2.432 23.595l-1.997 3.874-431.911 791.841c-2.631 4.797-5.943 8.25-10.478 10.97z" />
<glyph unicode="&#xe919;" glyph-name="edit" horiz-adv-x="1109" d="M422.593 915.931c0 24.339-19.731 44.069-44.070 44.069l-273.101-0.136c-58.701-2.882-105.423-51.343-105.423-110.781v-802.167l0.136-5.538c2.886-58.718 51.409-105.378 110.824-105.378l808.225 0.137c58.701 2.884 105.429 51.345 105.429 110.78v334.236l-0.188 4.012c-2.022 22.459-20.898 40.058-43.887 40.058-24.337 0-44.066-19.731-44.066-44.070v-334.236l-0.179-2.859c-1.408-11.238-10.991-19.917-22.647-19.917l-805.553 0.179c-11.264 1.399-19.956 10.974-19.956 22.596v802.167l0.177 2.86c1.406 11.238 10.994 19.919 22.644 19.919l271.575 0.18c22.459 2.026 40.058 20.902 40.058 43.889zM815.608 947.103l-401.346-401.084c-8.271-8.265-12.918-19.479-12.918-31.171v-133.695c0-24.339 19.731-44.069 44.070-44.069h133.781c11.683 0 22.888 4.639 31.152 12.897l401.347 401.084c17.22 17.212 17.22 45.131 0 62.344l-133.786 133.694c-17.203 17.197-45.094 17.197-62.301 0zM846.736 853.655l71.45-71.392-357.24-357.017h-71.474v71.365l357.264 357.043z" />
<glyph unicode="&#xe91a;" glyph-name="dropdownsort" horiz-adv-x="683" d="M317.052 746.103c7.193 7.173 18.592 7.595 26.28 1.266l1.396-1.266 170.319-162.248c7.641-7.621 7.641-19.979 0-27.6-7.192-7.173-18.593-7.595-26.278-1.266l-1.398 1.266-156.482 148.445-156.482-148.445c-7.193-7.173-18.592-7.595-26.28-1.266l-1.396 1.266c-7.193 7.173-7.616 18.541-1.269 26.208l1.269 1.392 170.32 162.248zM344.71 149.899c-7.193-7.173-18.592-7.597-26.28-1.268l-1.396 1.268-170.32 162.245c-7.643 7.621-7.643 19.978 0 27.599 7.193 7.173 18.592 7.597 26.28 1.268l1.396-1.268 156.482-148.441 156.482 148.441c7.194 7.173 18.59 7.597 26.28 1.268l1.395-1.268c7.197-7.173 7.617-18.539 1.273-26.205l-1.273-1.395-170.319-162.245z" />
<glyph unicode="&#xe91b;" glyph-name="back-arrow" horiz-adv-x="1434" d="M498.579 893.612c-21.418 20.72-55.572 20.172-76.315-1.225l-416.131-429.252c-8.178-8.436-8.178-21.842 0-30.277l416.118-429.239c20.749-21.404 54.916-21.953 76.341-1.226 21.454 20.754 22.007 54.974 1.236 76.412l-304.574 314.339h1184.34c29.829 0 54.006 24.18 54.006 54.008s-24.177 54.009-54.006 54.009h-1186.449l306.644 316.039c20.789 21.425 20.248 55.655-1.209 76.412z" />
<glyph unicode="&#xe91c;" glyph-name="right-arrow-large" horiz-adv-x="1566" d="M1007.7-10.716c22.046-21.329 57.205-20.769 78.559 1.259l428.369 441.877c8.415 8.684 8.415 22.484 0 31.168l-428.357 441.864c-21.359 22.033-56.531 22.598-78.589 1.261-22.082-21.365-22.654-56.591-1.271-78.659l313.531-323.584h-1219.169c-30.705 0-55.597-24.892-55.597-55.597s24.892-55.597 55.597-55.597h1221.343l-315.663-325.336c-21.402-22.052-20.841-57.29 1.247-78.655z" />
<glyph unicode="&#xe91d;" d="M241.412 118.091c55.723-45.61 123.051-77.523 196.822-90.407l6.080 85.823c-52.779 10.577-101.248 33.298-142.25 65.259l-60.651-60.675z" />
<glyph unicode="&#xe91e;" d="M172.433 405.353h-86.080c8.534-85.672 42.838-163.713 94.571-226.9l60.587 60.585c-36.608 47.188-61.27 104.153-69.077 166.315z" />
<glyph unicode="&#xe91f;" d="M718.119 177.489l43.159-74.005c34.683 25.214 65.343 55.657 91.070 89.919l-73.836 44.243c-17.619-22.402-37.78-42.791-60.392-60.157z" />
<glyph unicode="&#xe920;" d="M529.374 107.514l-6.080-85.588c58.538 1.662 113.983 15.595 164.328 38.593l-43.068 73.836c-35.689-15.234-74.518-24.618-115.18-26.841z" />
<glyph unicode="&#xe921;" d="M849.251 490.647h86.082c-21.504 215.296-203.65 384-424.49 384-220.842 0-403.029-168.704-424.491-384h86.080c21.12 168.106 164.672 298.666 338.41 298.666 173.737 0 317.289-130.56 338.408-298.666z" />
<glyph unicode="&#xe922;" glyph-name="re-fresh" d="M494.331 951.355c-14.91 12.301-37.012 11.474-50.955-2.478l-2.461-2.708c-12.301-14.91-11.474-37.013 2.478-50.955l70.791-70.747c-243.847-1.861-441.042-200.077-441.042-444.227 0-245.307 199.066-444.24 444.505-444.24s444.502 198.934 444.502 444.24c0 20.956-16.984 37.945-37.947 37.945-20.955 0-37.939-16.989-37.939-37.945 0-203.381-165.079-368.347-368.617-368.347s-368.614 164.966-368.614 368.347c0 202.15 163.087 366.352 364.926 368.331l-70.566-70.539-2.462-2.706c-12.311-14.903-11.498-37.006 2.444-50.957 14.814-14.824 38.84-14.831 53.663-0.018l135.52 135.431 2.463 2.708c12.316 14.909 11.495 37.024-2.463 50.973l-135.52 135.431-2.708 2.46z" />
<glyph unicode="&#xe923;" glyph-name="link-file" d="M307.2 960c-17.673 0-32-14.327-32-32v-140.8c0-17.673 14.327-32 32-32s32 14.327 32 32v140.8c0 17.673-14.327 32-32 32zM204.8 652.8c0 17.673-14.327 32-32 32h-140.8c-17.673 0-32-14.327-32-32s14.327-32 32-32h140.8c17.673 0 32 14.327 32 32zM819.2 243.2c0-17.67 14.33-32 32-32h140.8c17.67 0 32 14.33 32 32s-14.33 32-32 32h-140.8c-17.67 0-32-14.33-32-32zM716.8 140.8c-17.67 0-32-14.33-32-32v-140.8c0-17.67 14.33-32 32-32s32 14.33 32 32v140.8c0 17.67-14.33 32-32 32zM541.12 773.109c82.317 79.505 213.165 78.368 294.086-2.556 79.456-79.452 81.997-207.028 6.432-289.94l-4.282-4.559-105.926-105.93c-43.034-43.049-102.644-65.286-163.359-60.934-60.714 4.346-116.547 34.849-153.006 83.592-10.994 14.698-7.992 35.525 6.707 46.52s35.525 7.991 46.519-6.707c24.908-33.299 63.051-54.138 104.529-57.109 39.503-2.829 78.323 10.815 107.327 37.53l4.275 4.105 105.53 105.522c54.317 56.236 53.542 145.627-1.747 200.911-53.997 53.998-140.531 55.995-196.612 5.759l-3.953-3.677-60.735-60.382c-13.016-12.941-34.059-12.879-47 0.137-12.18 12.251-12.842 31.612-2.026 44.636l2.163 2.365 61.078 60.718zM293.172 525.875c43.034 43.049 102.643 65.285 163.357 60.937s116.547-34.852 153.006-83.594c10.994-14.698 7.992-35.525-6.707-46.52s-35.525-7.991-46.519 6.707c-24.908 33.299-63.051 54.138-104.529 57.109-39.503 2.829-78.321-10.815-107.329-37.53l-4.276-4.105-105.528-105.522c-54.316-56.237-53.539-145.626 1.746-200.909 53.998-54.003 140.535-56 196.551-5.824l3.948 3.674 60.382 60.378c12.979 12.979 34.021 12.979 47 0 12.215-12.211 12.934-31.571 2.156-44.627l-2.156-2.368-60.794-60.787c-82.317-79.507-213.165-78.368-294.088 2.554-79.452 79.45-81.992 207.028-6.429 289.94l4.278 4.559 105.93 105.93z" />
<glyph unicode="&#xe924;" glyph-name="share" d="M534.299 767.561c0 106.281 86.158 192.439 192.439 192.439s192.439-86.158 192.439-192.439c0-106.282-86.158-192.439-192.439-192.439-50.26 0-96.020 19.268-130.297 50.82l-180.841-135.631c7.724-20.835 11.945-43.372 11.945-66.894 0-22.786-3.96-44.646-11.23-64.931l178.982-89.491c34.399 32.181 80.619 51.882 131.441 51.882 106.281 0 192.439-86.158 192.439-192.439 0-106.278-86.158-192.439-192.439-192.439s-192.439 86.161-192.439 192.439c0 22.786 3.959 44.647 11.229 64.932l-178.982 89.491c-34.399-32.181-80.62-51.882-131.441-51.882-106.281 0-192.439 86.158-192.439 192.439s86.158 192.439 192.439 192.439c50.26 0 96.021-19.268 130.297-50.82l180.841 135.631c-7.724 20.835-11.944 43.372-11.944 66.894zM829.279 767.561c0 56.631-45.909 102.54-102.541 102.54s-102.541-45.908-102.541-102.54c0-56.631 45.909-102.541 102.541-102.541s102.541 45.909 102.541 102.541zM337.646 423.418c0 56.632-45.909 102.541-102.541 102.541s-102.54-45.908-102.54-102.541c0-56.631 45.908-102.54 102.54-102.54s102.541 45.908 102.541 102.54zM726.738 230.979c56.631 0 102.541-45.909 102.541-102.541s-45.909-102.54-102.541-102.54c-56.631 0-102.541 45.909-102.541 102.54s45.909 102.541 102.541 102.541z" />
<glyph unicode="&#xe925;" glyph-name="maximize" d="M1023.821 919.966c-2.022 22.446-20.89 40.034-43.861 40.034l-647.452-0.18c-22.445-2.025-40.034-20.89-40.034-43.863v-248.43h-248.43c-24.324 0-44.043-19.719-44.043-44.043v-643.443c0-24.32 19.719-44.041 44.043-44.041h643.441c24.324 0 44.043 19.721 44.043 44.041v248.433l252.435 0.18c22.451 2.025 40.038 20.89 40.038 43.863v643.441l-0.179 4.009zM731.527 316.559v306.924c0 24.324-19.719 44.043-44.043 44.043h-306.924v204.387h555.351v-555.354h-204.384zM643.441 579.441v-555.351h-555.354v555.351h555.354z" />
<glyph unicode="&#xe926;" glyph-name="close-red" d="M84.494 886.318c29.992 29.993 78.62 29.993 108.612 0l329.694-329.694 329.693 329.694c29.997 29.993 78.618 29.993 108.614 0 29.99-29.992 29.99-78.619 0-108.611l-329.695-329.694 329.695-329.696c29.99-29.99 29.99-78.618 0-108.608-29.997-29.997-78.618-29.997-108.614 0l-329.693 329.692-329.694-329.692c-29.992-29.997-78.62-29.997-108.612 0-29.992 29.99-29.992 78.618 0 108.608l329.694 329.696-329.694 329.694c-29.992 29.992-29.992 78.619 0 108.611z" />
<glyph unicode="&#xe927;" glyph-name="graph-filter" d="M170.175 823.924c-9.041-0.141-17.657-3.864-23.956-10.35s-9.767-15.208-9.644-24.25v-648.531c0-37.31 30.957-68.272 68.266-68.272h648.531c4.528-0.059 9.019 0.775 13.217 2.465 4.191 1.682 8.016 4.184 11.235 7.365 3.218 3.174 5.778 6.956 7.526 11.132 1.748 4.169 2.64 8.653 2.64 13.173 0 4.528-0.892 9.004-2.64 13.173-1.748 4.176-4.308 7.958-7.526 11.14-3.218 3.174-7.044 5.676-11.235 7.365-4.198 1.682-8.689 2.523-13.217 2.458h-3.862c-3.643 31.517-10.686 87.942-25.871 170.665h-68.864c11.074-58.090 19.346-115.698 25.797-170.665h-468.865c6.449 54.967 14.754 112.575 25.8 170.665h-68.8c-15.179-82.693-22.221-139.133-25.866-170.665h-38.001v648.531c0.063 4.567-0.791 9.1-2.512 13.33s-4.273 8.073-7.506 11.299c-3.232 3.226-7.079 5.771-11.313 7.484s-8.768 2.559-13.335 2.487zM546.175 823.458c-95.198 0-170.705-100.864-230.2-307.2h71.333c42.018 136.397 96.676 238.934 158.866 238.934 62.123 0 116.748-102.537 158.8-238.934h71.4c-59.494 206.336-135.002 307.2-230.2 307.2zM273.108 447.991c-9.053 0-17.735-3.596-24.136-9.998s-9.998-15.083-9.998-24.136c0-9.053 3.596-17.734 9.998-24.136s15.083-9.997 24.136-9.997c9.053 0 17.734 3.596 24.136 9.997s9.998 15.083 9.998 24.136c0 9.053-3.596 17.735-9.998 24.136s-15.083 9.998-24.136 9.998zM409.642 447.991c-9.053 0-17.735-3.596-24.136-9.998s-9.997-15.083-9.997-24.136c0-9.053 3.596-17.734 9.997-24.136s15.084-9.997 24.136-9.997c9.052 0 17.734 3.596 24.136 9.997s9.997 15.083 9.997 24.136c0 9.053-3.596 17.735-9.997 24.136s-15.084 9.998-24.136 9.998zM546.175 447.991c-9.053 0-17.734-3.596-24.136-9.998s-9.997-15.083-9.997-24.136c0-9.053 3.596-17.734 9.997-24.136s15.083-9.997 24.136-9.997c9.053 0 17.735 3.596 24.136 9.997s9.997 15.083 9.997 24.136c0 9.053-3.596 17.735-9.997 24.136s-15.084 9.998-24.136 9.998zM682.708 447.991c-9.053 0-17.735-3.596-24.136-9.998s-9.998-15.083-9.998-24.136c0-9.053 3.596-17.734 9.998-24.136s15.083-9.997 24.136-9.997c9.053 0 17.735 3.596 24.136 9.997s9.998 15.083 9.998 24.136c0 9.053-3.596 17.735-9.998 24.136s-15.083 9.998-24.136 9.998zM819.244 447.991c-9.055 0-17.737-3.596-24.137-9.998s-9.999-15.083-9.999-24.136c0-9.053 3.599-17.734 9.999-24.136s15.082-9.997 24.137-9.997c9.048 0 17.73 3.596 24.137 9.997 6.4 6.401 9.991 15.083 9.991 24.136s-3.591 17.735-9.991 24.136c-6.407 6.401-15.089 9.998-24.137 9.998z" />
<glyph unicode="&#xe928;" d="M768.039 597.353v-533.332c0-23.576-19.095-42.668-42.668-42.668h-511.999c-23.573 0-42.667 19.092-42.667 42.668v682.665c0 23.573 19.093 42.666 42.667 42.666h362.666l192-191.999z" />
<glyph unicode="&#xe929;" d="M213.294 789.353h554.667v-725.332h-476.139c-43.371 0-78.528 35.156-78.528 78.526v646.806z" />
<glyph unicode="&#xe92a;" d="M234.706 789.353h425.407c59.606 0 107.927-48.32 107.927-107.925v-596.074h-472.768c-33.451 0-60.565 27.115-60.565 60.564v643.436z" />
<glyph unicode="&#xe92b;" d="M853.332 661.314v-511.999c0-23.573-19.092-42.668-42.665-42.668h-512.001c-23.573 0-42.667 19.095-42.667 42.668v682.666c0 23.573 19.093 42.667 42.667 42.667h341.333l213.332-213.334z" />
<glyph unicode="&#xe92c;" d="M640 874.647v-170.667c0-23.573 19.095-42.667 42.668-42.667h170.665l-213.332 213.334z" />
<glyph unicode="&#xe92d;" d="M515.587 368.083c-1.406 3.668-4.436 14.55-4.436 25.323 0 61.314 63.124 63.66 63.124 109.14 0 28.63-28.286 30.401-33.343 30.401-32.126 0-57.214-18.369-67.756-27.648v63.551c10.839 6.466 35.629 19.414 75.159 19.414 91.518 0 92.672-62.91 92.672-76.414 0-72.62-74.945-78.017-74.945-124.546 0-9.707 3.521-16.809 5.057-19.2l-55.531-0.021zM546.391 268.264c-17.429 0-35.84 10.882-35.84 31.979 0 21.1 19.137 31.596 35.84 31.596 16.706 0 35.265-9.367 35.265-31.596s-17.836-31.979-35.265-31.979z" />
<glyph unicode="&#xe92e;" d="M341.333 192h597.333v-42.667c0-47.13-38.212-85.333-85.333-85.333h-512v128z" />
<glyph unicode="&#xe92f;" d="M682.667 832h-512c-47.125 0-85.333-38.208-85.333-85.333v-42.667h512v42.667c0 47.125 38.208 85.333 85.333 85.333z" />
<glyph unicode="&#xe930;" d="M853.333 64h-554.667c-47.125 0-85.333 38.212-85.333 85.333v597.333c0 47.125 38.208 85.333 85.333 85.333h384c47.125 0 85.333-38.208 85.333-85.333v-597.333c0-47.121 38.208-85.333 85.333-85.333z" />
<glyph unicode="&#xe931;" d="M213.333 149.333v42.667h554.667v-42.667c0-47.13 38.208-85.333 85.333-85.333h-554.667c-47.125 0-85.333 38.204-85.333 85.333z" />
<glyph unicode="&#xe932;" d="M597.333 746.667v-42.667h-384v128h469.333c-47.125 0-85.333-38.208-85.333-85.333z" />
<glyph unicode="&#xe933;" d="M661.333 576h-341.333v-64h341.333v64z" />
<glyph unicode="&#xe934;" d="M661.333 448h-341.333v-64h341.333v64z" />
<glyph unicode="&#xe935;" d="M661.333 320h-341.333v-64h341.333v64z" />
<glyph unicode="&#xe936;" glyph-name="download-file" d="M484.576 183.675c15.176-15.18 39.783-15.172 54.952 0.014l248.234 248.486c15.29 15.306 15.284 40.107-0.014 55.405-15.295 15.295-40.092 15.305-55.398 0.020l-180.906-180.639v535.077c0 21.751-17.633 39.385-39.385 39.385s-39.385-17.633-39.385-39.385v-535.077l-180.615 180.615c-15.319 15.319-40.134 15.388-55.538 0.153-15.525-15.353-15.594-40.406-0.154-55.845l248.209-248.21zM157.538-24.623c0 21.748 17.633 39.385 39.385 39.385h630.154c21.751 0 39.385-17.636 39.385-39.385 0-21.756-17.633-39.385-39.385-39.385h-630.154c-21.751 0-39.385 17.629-39.385 39.385z" />
<glyph unicode="&#xe937;" glyph-name="publish" d="M878.036 923.143c-152.572 0-268.858-38-334.858-114.857l-0.286-0.286-148.285-177.428h-28.572c-104.286 0-180-19.142-230-38.857-50.286-19.714-77.429-42.571-77.429-42.571-15.967-13.952-16.9-38.465-2.039-53.59l493.97-502.757c13.823-14.065 36.382-14.424 50.641-0.797 0 0 26.571 26.002 49.428 75.717 22.857 50 44.571 126.284 44.571 233.713v29.143l177.716 148.286c76.859 65.714 114.856 182 114.856 334.571v73.143c0 20.198-16.377 36.571-36.571 36.571h-73.143zM878.036 850h36.571v-36.571c0-140-36.571-234-89.432-279.142l-383.997-320-162.858 162.857 320.572 384c45.428 52.571 139.426 88.857 279.143 88.857zM768.322 776.857c-40.286 0-73.144-32.857-73.144-73.143s32.857-73.143 73.144-73.143c40.287 0 73.143 32.857 73.143 73.143s-32.856 73.143-73.143 73.143zM332.322 556l-107.143-128-82.857 84.571c8.572 4.857 5.143 5.143 20.571 11.143 36.285 14.286 92.571 28.571 169.429 32.285zM620.607 268.572c-4-78.854-20.285-134.859-36.571-170.282-7.428-16.574-8-13.429-13.428-21.716l-81.428 82.571 131.428 109.428zM183.178 265.429l-116.846-233.692c-9.431-18.864 10.578-38.868 29.44-29.44l233.692 116.846-146.286 146.286z" />
<glyph unicode="&#xe938;" glyph-name="ellipsis-horizontal" d="M266.16 448.020c0-67.865-55.015-122.88-122.88-122.88s-122.88 55.015-122.88 122.88c0 67.865 55.015 122.88 122.88 122.88s122.88-55.015 122.88-122.88zM634.798 448.020c0-67.865-55.014-122.88-122.878-122.88-67.865 0-122.88 55.015-122.88 122.88s55.015 122.88 122.88 122.88c67.864 0 122.878-55.015 122.878-122.88zM880.558 325.14c67.866 0 122.88 55.015 122.88 122.88s-55.014 122.88-122.88 122.88c-67.86 0-122.88-55.015-122.88-122.88s55.020-122.88 122.88-122.88z" />
<glyph unicode="&#xe939;" glyph-name="green-check" d="M969.961 769.338c26.658-26.66 26.658-69.884 0-96.544l-546.134-546.132c-26.66-26.664-69.884-26.664-96.544 0l-273.066 273.065c-26.66 26.66-26.66 69.884 0 96.544s69.884 26.66 96.544 0l224.795-224.795 497.86 497.861c26.664 26.66 69.888 26.66 96.546 0z" />
<glyph unicode="&#xe93a;" glyph-name="grow-up-arrow" d="M540.398 682.155c0 20.152 16.336 36.488 36.488 36.488h424.199c12.72 0 23.033-10.313 23.033-23.035v-424.199c0-20.152-16.333-36.487-36.484-36.487s-36.491 16.336-36.491 36.487v322.657l-384.889-384.891c-13.375-13.375-34.742-14.344-49.273-2.235l-179.72 149.767c-1.442 1.202-3.548 1.169-4.952-0.079l-256.437-227.944c-15.061-13.388-38.124-12.031-51.512 3.030s-12.031 38.124 3.030 51.512l292.081 259.628c7.9 7.022 19.749 7.212 27.87 0.445l185.686-154.739c2.906-2.422 7.179-2.228 9.854 0.447l356.658 356.661h-322.654c-20.152 0-36.488 16.336-36.488 36.487z" />
<glyph unicode="&#xe93b;" d="M758.103 201.834h-492.308l-102.564 410.255 205.128-164.102 143.59 266.666 143.588-266.666 205.131 164.102-102.565-410.255z" />
<glyph unicode="&#xe93c;" d="M265.795 201.858h492.308v-102.561h-492.308v102.561zM511.949 796.731c-10.882 0-21.315-4.322-29.011-12.016-7.692-7.694-12.016-18.129-12.016-29.010s4.324-21.316 12.016-29.010c7.696-7.694 18.129-12.016 29.011-12.016s21.315 4.322 29.011 12.016c7.692 7.694 12.016 18.129 12.016 29.010s-4.324 21.315-12.016 29.010c-7.696 7.694-18.129 12.016-29.011 12.016zM881.18 694.167c-10.882 0-21.315-4.322-29.011-12.016-7.692-7.694-12.016-18.129-12.016-29.010s4.324-21.316 12.016-29.010c7.696-7.694 18.129-12.016 29.011-12.016s21.315 4.322 29.011 12.016c7.692 7.694 12.016 18.129 12.016 29.010s-4.324 21.316-12.016 29.010c-7.696 7.694-18.129 12.016-29.011 12.016zM142.718 694.167c-10.881 0-21.316-4.322-29.010-12.016s-12.016-18.129-12.016-29.010c0-10.881 4.322-21.316 12.016-29.010s18.129-12.016 29.010-12.016c10.88 0 21.316 4.322 29.010 12.016s12.016 18.129 12.016 29.010c0 10.881-4.322 21.316-12.016 29.010s-18.129 12.016-29.010 12.016z" />
<glyph unicode="&#xe93d;" glyph-name="minus-circle-o" d="M512 960c-282.154 0-512-229.846-512-512 0-282.156 229.846-512 512-512 282.156 0 512 229.844 512 512 0 282.154-229.844 512-512 512zM512 881.231c239.689 0 433.232-193.539 433.232-433.231 0-239.689-193.543-433.232-433.232-433.232-239.692 0-433.231 193.543-433.231 433.232 0 239.692 193.539 433.231 433.231 433.231zM236.308 487.385v-78.769h551.382v78.769h-551.382z" />
<glyph unicode="&#xe93e;" glyph-name="graph-lines" d="M864.077 896c-27.699 0.012-54.662-8.968-76.826-25.591s-38.33-39.99-46.074-66.589c-7.744-26.599-6.643-54.993 3.13-80.915 9.779-25.921 27.706-47.969 51.085-62.83l-83.526-292.334c-2.592 0.165-5.19 0.252-7.789 0.26-27.533 0.030-54.336-8.867-76.385-25.356l-154.308 128.59c7.306 21.675 8.669 44.911 3.95 67.292s-15.35 43.088-30.785 59.967c-15.436 16.88-35.112 29.315-56.982 36.012s-45.136 7.412-67.376 2.070c-22.241-5.342-42.643-16.547-59.085-32.447s-28.323-35.917-34.407-57.965c-6.084-22.049-6.149-45.325-0.188-67.407s17.731-42.164 34.084-58.156l-90.584-181.176c-3.967 0.378-7.949 0.57-11.934 0.576-30.665 0.038-60.327-10.918-83.603-30.88s-38.623-47.61-43.255-77.926c-4.632-30.31 1.758-61.28 18.010-87.283s41.289-45.318 70.566-54.438c29.277-9.12 60.854-7.443 88.998 4.73 28.145 12.179 50.991 34.035 64.394 61.619 13.402 27.578 16.472 59.053 8.651 88.704s-26.013 55.514-51.276 72.896l85.6 171.178c20.794-5.736 42.701-6.112 63.679-1.091s40.342 15.274 56.285 29.803l149.4-124.504c-10.145-22.355-13.647-47.162-10.087-71.45 3.56-24.294 14.031-47.053 30.164-65.555 16.133-18.509 37.245-31.981 60.829-38.822 23.578-6.842 48.627-6.752 72.16 0.25s44.55 20.627 60.557 39.238c16.006 18.618 26.317 41.446 29.709 65.766 3.392 24.314-0.282 49.094-10.579 71.379-10.304 22.286-26.79 41.14-47.514 54.314l83.52 292.333c2.579-0.156 5.171-0.26 7.789-0.26 33.952 0 66.509 13.485 90.509 37.491 24.006 24.004 37.491 56.562 37.491 90.509s-13.485 66.505-37.491 90.509c-24 24.005-56.557 37.491-90.509 37.491zM160.079 48c-12.658 0-25.032 3.757-35.556 10.784-10.525 7.034-18.728 17.030-23.572 28.723s-6.111 24.563-3.642 36.979c2.47 12.416 8.565 23.821 17.516 32.768 8.95 8.954 20.355 15.046 32.769 17.517s25.283 1.203 36.977-3.642c11.695-4.845 21.69-13.050 28.723-23.571 7.032-10.528 10.786-22.899 10.786-35.558-0.019-16.966-6.768-33.235-18.767-45.235-11.998-11.994-28.266-18.746-45.233-18.765zM352.079 448c-12.659 0-25.032 3.754-35.556 10.786s-18.728 17.028-23.572 28.723c-4.844 11.694-6.111 24.563-3.642 36.977s8.565 23.818 17.516 32.769c8.95 8.95 20.354 15.046 32.769 17.516s25.283 1.202 36.977-3.642c11.695-4.844 21.69-13.047 28.723-23.572s10.786-22.899 10.786-35.556c-0.019-16.968-6.768-33.236-18.767-45.234s-28.266-18.747-45.233-18.766zM704.077 176c-12.659 0-25.030 3.757-35.552 10.784-10.528 7.034-18.733 17.030-23.578 28.723-4.838 11.693-6.109 24.563-3.642 36.979 2.47 12.416 8.57 23.821 17.517 32.768 8.954 8.951 20.358 15.046 32.768 17.516 12.416 2.469 25.286 1.202 36.979-3.642s21.69-13.048 28.723-23.57c7.034-10.528 10.784-22.899 10.784-35.558-0.019-16.966-6.765-33.235-18.765-45.235-12-11.994-28.269-18.746-45.235-18.765zM864.077 704c-12.659 0-25.030 3.754-35.552 10.786-10.528 7.032-18.733 17.028-23.578 28.723-4.838 11.694-6.106 24.563-3.642 36.977 2.47 12.415 8.57 23.818 17.517 32.769 8.954 8.95 20.358 15.046 32.768 17.516 12.416 2.469 25.286 1.202 36.979-3.642s21.69-13.047 28.723-23.572c7.034-10.525 10.784-22.899 10.784-35.556-0.019-16.968-6.765-33.236-18.765-45.234s-28.269-18.747-45.235-18.766z" />
<glyph unicode="&#xe93f;" glyph-name="chev-down" d="M105.344 662.656c5.794 5.808 13.805 9.401 22.656 9.401s16.862-3.593 22.655-9.401l361.345-361.409 361.344 361.408c5.798 5.798 13.808 9.384 22.656 9.384 17.695 0 32.040-14.345 32.040-32.040 0-8.848-3.586-16.858-9.384-22.656v0l-384-384c-5.794-5.808-13.805-9.401-22.656-9.401s-16.862 3.593-22.655 9.401l-384.001 384.001c-5.808 5.794-9.401 13.805-9.401 22.656s3.593 16.862 9.401 22.655l0.001 0.001z" />
<glyph unicode="&#xe940;" glyph-name="chev-up" d="M489.344 662.656c5.794 5.808 13.805 9.401 22.656 9.401s16.862-3.593 22.655-9.401l384.001-384.001c5.798-5.798 9.384-13.808 9.384-22.656 0-17.695-14.345-32.040-32.040-32.040-8.848 0-16.858 3.586-22.656 9.384v0l-361.344 361.408-361.344-361.408c-5.798-5.798-13.808-9.384-22.656-9.384-17.695 0-32.040 14.345-32.040 32.040 0 8.848 3.586 16.858 9.384 22.656l384 384z" />
<glyph unicode="&#xe941;" glyph-name="check-document" d="M256 874.667c-47.061 0-85.333-38.272-85.333-85.333v-682.667c0-47.064 38.272-85.333 85.333-85.333h285.167c-12.629 26.539-21.441 55.171-25.75 85.333h-259.417v682.667h298.667v-213.333h213.333v-131.333c13.949 2.005 28.16 3.416 42.667 3.416s28.718-1.411 42.667-3.416v174l-256 256h-341.333zM810.667 362.667c-117.806 0-213.333-95.528-213.333-213.333s95.528-213.333 213.333-213.333c117.806 0 213.333 95.528 213.333 213.333s-95.528 213.333-213.333 213.333zM898.167 249.583l59.665-59.75-168.499-168.499-125.833 125.833 59.665 59.75 66.167-66.082 108.834 108.749z" />
<glyph unicode="&#xe942;" glyph-name="Internet" d="M512 864c-172.722 0-321.155-105.804-383.969-256h-0.031v-0.125c-20.578-49.247-32-103.25-32-159.875s11.422-110.626 32-159.875v-0.125h0.031c62.814-150.198 211.247-256 383.969-256 70.463 0 136.869 17.664 195.095 48.72l3.248 76.686c-20.656-14.143-42.923-26.084-66.406-35.624 46.945 74.968 76.060 191.044 76.060 326.218 0 33.315-1.917 65.32-5.279 96h135.873c8.676-30.539 13.409-62.719 13.409-96 0-36.384-5.558-71.492-15.844-104.533l52.031-44.749c17.886 46.37 27.813 96.674 27.813 149.282 0 56.624-11.423 110.628-32 159.875v0.125h-0.028c-62.817 150.196-211.251 256-383.972 256zM512 800c48.686 0 101.205-74.111 127.283-192h-254.565c26.077 117.889 78.595 192 127.281 192zM380.063 774.25c-27.035-43.166-48.087-99.978-61.125-166.25h-120.343c38.421 74.95 102.921 134.369 181.469 166.25zM643.937 774.25c78.546-31.881 143.047-91.3 181.47-166.25h-120.343c-13.039 66.272-34.094 123.084-61.127 166.25zM173.406 544h135.875c-3.362-30.68-5.281-62.685-5.281-96s1.919-65.32 5.281-96h-135.875c-8.672 30.538-13.406 62.719-13.406 96s4.735 65.461 13.406 96zM373.875 544h276.251c3.681-30.16 5.871-62.133 5.871-96s-2.19-65.838-5.871-96h-276.251c-3.681 30.162-5.875 62.133-5.875 96s2.194 65.84 5.875 96zM752.003 384l0.091-373.532 94.31 100.284 64.222-174.438 58.749 25.407-83.029 166.281h137.654l-271.997 256zM198.594 288h120.343c13.038-66.27 34.091-123.085 61.125-166.252-78.548 31.886-143.048 91.301-181.469 166.252zM384.719 288h254.565c-26.078-117.891-78.597-192-127.283-192s-101.204 74.109-127.281 192z" />
<glyph unicode="&#xe943;" glyph-name="tc-filter" d="M128 736c-17.673 0-32-14.327-32-32s14.327-32 32-32h768c17.67 0 32 14.327 32 32s-14.33 32-32 32h-768zM256 480c-17.673 0-32-14.327-32-32s14.327-32 32-32h512c17.67 0 32 14.327 32 32s-14.33 32-32 32h-512zM384 224c-17.673 0-32-14.33-32-32s14.327-32 32-32h256c17.67 0 32 14.33 32 32s-14.33 32-32 32h-256z" />
<glyph unicode="&#xe944;" glyph-name="grid-view" d="M438.914 901.5h-341.334c-21.544 0-39.009-17.465-39.009-39.010v-341.333c0-21.545 17.465-39.010 39.009-39.010h341.334c21.544 0 39.009 17.465 39.009 39.010v341.333c0 21.544-17.465 39.010-39.009 39.010zM399.905 823.481v-263.314h-263.314v263.314h263.314zM926.53 901.5h-341.33c-21.544 0-39.009-17.465-39.009-39.010v-341.333c0-21.545 17.465-39.010 39.009-39.010h341.33c21.548 0 39.014 17.465 39.014 39.010v341.333c0 21.544-17.467 39.010-39.014 39.010zM887.523 823.481v-263.314h-263.314v263.314h263.314zM97.581 413.881h341.334c21.544 0 39.009-17.465 39.009-39.009v-341.336c0-21.541-17.465-39.007-39.009-39.007h-341.334c-21.544 0-39.009 17.467-39.009 39.007v341.336c0 21.544 17.465 39.009 39.009 39.009zM399.905 72.55v263.311h-263.314v-263.311h263.314zM926.53 413.881h-341.33c-21.544 0-39.009-17.465-39.009-39.009v-341.336c0-21.541 17.465-39.007 39.009-39.007h341.33c21.548 0 39.014 17.467 39.014 39.007v341.336c0 21.544-17.467 39.009-39.014 39.009zM887.523 335.862v-263.311h-263.314v263.311h263.314z" />
<glyph unicode="&#xe945;" glyph-name="re-cycle-square" d="M451.294 929.882v-120.471h-210.118c-49.545 0-90.353-40.808-90.353-90.353v-90.353h60.235v90.353c0 16.954 13.163 30.118 30.118 30.118h210.118v-120.471l150.588 150.588-150.588 150.588zM692.706 809.412v-60.235h90.353c16.956 0 30.118-13.163 30.118-30.118v-210.824h-120.471l150.588-150.588 150.588 150.588h-120.471v210.824c0 49.545-40.809 90.353-90.353 90.353h-90.353zM180.706 538.117l-150.588-150.588h120.706v-210.588c0-49.544 40.807-90.353 90.353-90.353h90.117v60.235h-90.117c-16.954 0-30.118 13.161-30.118 30.118v210.588h120.235l-150.588 150.588zM572.235 267.294l-150.588-150.588 150.588-150.588v120.471h210.824c49.544 0 90.353 40.809 90.353 90.353v90.353h-60.235v-90.353c0-16.956-13.161-30.118-30.118-30.118h-210.824v120.471z" />
<glyph unicode="&#xe946;" d="M533.25 661.354h-42.667c-11.776 0-21.333 9.557-21.333 21.333v170.667c0 11.776 9.557 21.333 21.333 21.333h42.667c11.776 0 21.334-9.557 21.334-21.333v-170.667c0-11.776-9.558-21.333-21.334-21.333z" />
<glyph unicode="&#xe947;" d="M533.25 21.357h-42.667c-11.776 0-21.333 9.555-21.333 21.331v170.669c0 11.776 9.557 21.331 21.333 21.331h42.667c11.776 0 21.334-9.555 21.334-21.331v-170.669c0-11.776-9.558-21.331-21.334-21.331z" />
<glyph unicode="&#xe948;" d="M725.248 426.687v42.667c0 11.776 9.562 21.333 21.338 21.333h170.662c11.776 0 21.338-9.557 21.338-21.333v-42.667c0-11.776-9.562-21.333-21.338-21.333h-170.662c-11.776 0-21.338 9.557-21.338 21.333z" />
<glyph unicode="&#xe949;" d="M85.25 426.687v42.667c0 11.776 9.557 21.333 21.333 21.333h170.667c11.776 0 21.334-9.557 21.334-21.333v-42.667c0-11.776-9.558-21.333-21.334-21.333h-170.667c-11.776 0-21.333 9.557-21.333 21.333z" />
<glyph unicode="&#xe94a;" d="M677.92 583.793l-30.163 30.165c-8.342 8.341-8.342 21.846 0 30.166l120.685 120.682c8.339 8.341 21.843 8.341 30.163 0l30.163-30.165c8.346-8.341 8.346-21.846 0-30.166l-120.678-120.682c-8.32-8.341-21.824-8.341-30.17 0z" />
<glyph unicode="&#xe94b;" d="M225.421 131.232l-30.166 30.163c-8.341 8.339-8.341 21.843 0 30.163l120.683 120.685c8.341 8.342 21.845 8.342 30.165 0l30.166-30.163c8.341-8.346 8.341-21.85 0-30.17l-120.683-120.678c-8.32-8.346-21.845-8.346-30.165 0z" />
<glyph unicode="&#xe94c;" d="M647.757 282.080l30.163 30.163c8.346 8.342 21.85 8.342 30.17 0l120.678-120.685c8.346-8.339 8.346-21.843 0-30.163l-30.163-30.163c-8.339-8.346-21.843-8.346-30.163 0l-120.685 120.678c-8.342 8.32-8.342 21.824 0 30.17z" />
<glyph unicode="&#xe94d;" d="M195.256 734.641l30.166 30.165c8.341 8.341 21.845 8.341 30.165 0l120.683-120.682c8.341-8.342 8.341-21.846 0-30.166l-30.166-30.165c-8.341-8.341-21.845-8.341-30.165 0l-120.683 120.682c-8.341 8.32-8.341 21.846 0 30.166z" />
<glyph unicode="&#xe94e;" d="M938.732 447.985c0-235.628-191.037-426.67-426.665-426.67-235.626 0-426.666 191.043-426.666 426.67 0 235.625 191.040 426.665 426.666 426.665 235.628 0 426.665-191.040 426.665-426.665z" />
<glyph unicode="&#xe94f;" d="M737.935 648.85l-289.496-289.836-119.509 119.169-60.331-60.33 179.926-179.502 349.759 350.168-60.349 60.33z" />
<glyph unicode="&#xe950;" glyph-name="interuptions" horiz-adv-x="788" d="M287.164 737c0-23.545-19.087-42.632-42.632-42.632-22.237 0-40.498 17.025-42.458 38.752l-0.175 3.88v140.984c0 23.545 19.087 42.632 42.633 42.632 22.237 0 40.498-17.025 42.458-38.752l0.174-3.88v-140.984zM287.164 18.015c0-23.544-19.087-42.63-42.632-42.63-22.237 0-40.498 17.022-42.458 38.754l-0.175 3.875v186.984c0 23.545 19.087 42.632 42.633 42.632 22.237 0 40.498-17.025 42.458-38.752l0.174-3.88v-186.984zM581.024 648.369c23.546 0 42.632 19.087 42.632 42.632v186.982l-0.174 3.88c-1.96 21.727-20.221 38.752-42.458 38.752-23.545 0-42.632-19.087-42.632-42.632v-186.982l0.174-3.88c1.961-21.727 20.221-38.752 42.458-38.752zM623.656 18.015c0-23.544-19.087-42.63-42.632-42.63-22.237 0-40.498 17.022-42.458 38.754l-0.174 3.875v150.008c0 23.546 19.087 42.634 42.632 42.634 22.237 0 40.498-17.025 42.458-38.751l0.174-3.883v-150.008zM755.948 516.621c16.64 13.956 20.247 38.543 7.686 56.799l-2.488 3.272c-13.956 16.64-38.543 20.247-56.799 7.686l-249.273-171.485-109.855 138.369-2.811 3.205c-15.661 16.166-41.607 17.462-58.834 2.217l-272.139-241.082c-14.821-15.874-15.414-40.717-0.729-57.312l2.867-2.945c15.874-14.821 40.717-15.414 57.312-0.729l235.535 208.423 106.611-134.366 2.74-3.13c14.314-14.835 37.504-17.4 54.818-5.489l285.36 196.567z" />
<glyph unicode="&#xe951;" glyph-name="checkround-up" horiz-adv-x="1138" d="M223.538 799.982c-194.183-194.182-194.183-509.781 0-703.964s509.781-194.182 703.964 0c194.182 194.182 194.182 509.781 0 703.964s-509.781 194.183-703.964 0zM846.276 448l-54.151-54.151-177.895 177.895-0.423-391.749h-76.572l0.422 392.596-178.74-178.741-54.151 54.151 270.756 270.756 270.756-270.756z" />
<glyph unicode="&#xe952;" glyph-name="avg" d="M113.204 886.579c-10.548-0.165-20.599-4.508-27.949-12.076s-11.396-17.743-11.251-28.291v-756.62c0-43.529 36.116-79.65 79.644-79.65h756.62c5.282-0.068 10.522 0.905 15.42 2.876 4.89 1.963 9.353 4.881 13.107 8.593 3.755 3.703 6.741 8.115 8.781 12.988 2.039 4.864 3.081 10.095 3.081 15.369 0 5.282-1.041 10.505-3.081 15.369-2.039 4.873-5.026 9.284-8.781 12.996-3.755 3.703-8.218 6.622-13.107 8.593-4.898 1.963-10.138 2.944-15.42 2.867h-4.506c-4.25 36.772-12.467 102.599-30.182 199.109h-80.342c12.919-67.772 22.576-134.981 30.1-199.109h-547.011c7.524 64.128 17.213 131.337 30.1 199.109h-80.267c-17.709-96.475-25.924-162.325-30.177-199.109h-44.334v756.62c0.073 5.328-0.923 10.616-2.931 15.552s-4.985 9.418-8.757 13.182c-3.771 3.764-8.259 6.733-13.199 8.731s-10.23 2.985-15.557 2.902zM551.87 886.034c-111.064 0-199.156-117.675-268.566-358.4h83.222c49.021 159.13 112.788 278.756 185.344 278.756 72.477 0 136.206-119.626 185.267-278.756h83.3c-69.41 240.725-157.502 358.4-268.567 358.4zM233.293 447.99c-10.562 0-20.691-4.196-28.158-11.664s-11.664-17.597-11.664-28.158c0-10.562 4.196-20.69 11.664-28.158s17.597-11.663 28.158-11.663c10.562 0 20.69 4.195 28.158 11.663s11.664 17.597 11.664 28.158c0 10.562-4.196 20.691-11.664 28.158s-17.597 11.664-28.158 11.664zM392.582 447.99c-10.562 0-20.691-4.196-28.159-11.664s-11.663-17.597-11.663-28.158c0-10.562 4.196-20.69 11.663-28.158s17.597-11.663 28.159-11.663c10.561 0 20.69 4.195 28.158 11.663s11.663 17.597 11.663 28.158c0 10.562-4.195 20.691-11.663 28.158s-17.597 11.664-28.158 11.664zM551.87 447.99c-10.562 0-20.69-4.196-28.158-11.664s-11.663-17.597-11.663-28.158c0-10.562 4.195-20.69 11.663-28.158s17.597-11.663 28.158-11.663c10.562 0 20.691 4.195 28.159 11.663s11.663 17.597 11.663 28.158c0 10.562-4.196 20.691-11.663 28.158s-17.597 11.664-28.159 11.664zM711.159 447.99c-10.562 0-20.691-4.196-28.158-11.664s-11.664-17.597-11.664-28.158c0-10.562 4.196-20.69 11.664-28.158s17.597-11.663 28.158-11.663c10.562 0 20.691 4.195 28.158 11.663s11.664 17.597 11.664 28.158c0 10.562-4.196 20.691-11.664 28.158s-17.597 11.664-28.158 11.664zM870.451 447.99c-10.564 0-20.693-4.196-28.162-11.664s-11.663-17.597-11.663-28.158c0-10.562 4.196-20.69 11.663-28.158s17.597-11.663 28.162-11.663c10.556 0 20.685 4.195 28.16 11.663 7.467 7.468 11.657 17.597 11.657 28.158s-4.19 20.691-11.657 28.158c-7.475 7.468-17.604 11.664-28.16 11.664z" />
<glyph unicode="&#xe953;" glyph-name="layout" d="M228.271 960c-70.333 0-128-57.667-128-128v-768c0-70.332 57.667-128 128-128h597.333c70.333 0 127.996 57.668 127.996 128v597.327c0 11.316-4.489 22.169-12.493 30.17l-256.006 256.006c-8.002 8.002-18.854 12.497-30.17 12.497h-426.66zM228.271 874.667h384v-170.667c0-47.128 38.205-85.333 85.333-85.333h170.667v-554.667c0-23.996-18.667-42.667-42.667-42.667h-597.333c-24 0-42.667 18.671-42.667 42.667v768c0 24 18.667 42.667 42.667 42.667zM697.604 814.333l110.333-110.333h-110.333v110.333zM398.938 448c-23.564 0-42.667-19.103-42.667-42.667s19.103-42.667 42.667-42.667h256c23.564 0 42.667 19.103 42.667 42.667s-19.103 42.667-42.667 42.667h-256zM398.938 277.333c-23.564 0-42.667-19.103-42.667-42.667s19.103-42.667 42.667-42.667h170.667c23.564 0 42.667 19.103 42.667 42.667s-19.103 42.667-42.667 42.667h-170.667z" />
<glyph unicode="&#xe954;" glyph-name="list-view" d="M12.8 843.621c0 57.205 46.374 103.579 103.579 103.579s103.579-46.374 103.579-103.579c0-57.205-46.374-103.579-103.579-103.579s-103.579 46.374-103.579 103.579zM370.707 907.638h576.816c35.354 0 64.015-28.661 64.015-64.016 0-33.402-25.564-60.811-58.209-63.756l-0.845-0.076-4.961-0.203-576.816 0.019c-35.356 0-64.017 28.661-64.017 64.017 0 33.401 25.567 60.81 58.212 63.756l0.845 0.076 4.96 0.184zM12.8 448c0 57.205 46.374 103.579 103.579 103.579s103.579-46.374 103.579-103.579c0-57.206-46.374-103.578-103.579-103.578s-103.579 46.372-103.579 103.578zM370.707 512.017h576.816c35.354 0 64.015-28.661 64.015-64.017 0-33.403-25.564-60.81-58.209-63.754l-0.845-0.077-4.961-0.205-576.816 0.020c-35.356 0-64.017 28.662-64.017 64.015 0 33.401 25.567 60.81 58.212 63.756l0.845 0.076 4.96 0.185zM12.8 52.378c0 57.206 46.374 103.578 103.579 103.578s103.579-46.372 103.579-103.578c0-57.206-46.374-103.578-103.579-103.578s-103.579 46.372-103.579 103.578zM370.707 116.393h576.816c35.354 0 64.015-28.657 64.015-64.015 0-33.398-25.564-60.81-58.209-63.754l-0.845-0.077-4.961-0.205-576.816 0.020c-35.356 0-64.017 28.662-64.017 64.015 0 33.403 25.567 60.81 58.212 63.759l0.846 0.072 4.959 0.184z" />
<glyph unicode="&#xe955;" glyph-name="richtext" d="M1015.65 93.538c0-64.922-53.224-118.154-118.154-118.154h-708.92c-64.923 0-118.154 53.232-118.154 118.154v708.923c0 61.104 47.153 111.851 106.827 117.61l11.327 0.544h708.92c61.109 0 111.852-47.153 117.61-106.827l0.544-11.327v-708.923zM149.192 93.538c0-22.15 17.231-39.385 39.385-39.385h708.92c22.158 0 39.385 17.235 39.385 39.385v708.923c0 19.692-13.611 35.495-32.193 38.763l-7.192 0.621h-708.92c-19.692 0-35.494-13.614-38.763-32.199l-0.621-7.185v-708.923zM503.654 211.692c21.752 0 39.385-17.633 39.385-39.385s-17.632-39.385-39.385-39.385h-236.308c-21.751 0-39.385 17.633-39.385 39.385s17.633 39.385 39.385 39.385h236.308zM582.423 369.231c21.752 0 39.385-17.633 39.385-39.385s-17.632-39.385-39.385-39.385h-315.077c-21.751 0-39.385 17.633-39.385 39.385s17.633 39.385 39.385 39.385h315.077zM818.727 763.077c21.756 0 39.385-17.633 39.385-39.385v-157.538c0-21.751-17.629-39.385-39.385-39.385h-551.381c-21.751 0-39.385 17.633-39.385 39.385v157.538c0 21.751 17.633 39.385 39.385 39.385h551.381zM779.346 684.308h-472.615v-78.769h472.615v78.769z" />
<glyph unicode="&#xe956;" glyph-name="carousal" d="M359.549 817.778h294.428c55.12 0 99.806-44.685 99.806-99.806v-556.265c0-55.125-44.686-99.806-99.806-99.806h-294.428c-55.122 0-99.806 44.681-99.806 99.806v556.265c0 55.122 44.685 99.806 99.806 99.806zM653.978 729.061h-294.428c-6.125 0-11.090-4.965-11.090-11.090v-556.265c0-6.127 4.965-11.093 11.090-11.093h294.428c6.127 0 11.088 4.966 11.088 11.093v556.265c0 6.125-4.961 11.090-11.088 11.090zM146.999 696.809c24.499 0 44.359-19.86 44.359-44.358s-19.86-44.359-44.359-44.359c-19.191 0-36.549-4.841-48.16-12.496-6.617-4.363-9.404-7.963-9.997-10.030l-0.125-0.79v-304.537c0-1.844 2.559-5.835 10.122-10.819 10.321-6.81 25.182-11.389 41.837-12.322l6.324-0.176c24.499 0 44.359-19.86 44.359-44.356 0-24.502-19.86-44.362-44.359-44.362-76.076 0-143.172 42.849-146.841 106.524l-0.158 5.511v304.537c0 66.704 68.749 112.033 146.999 112.033zM832.643 652.451c0 24.498 19.86 44.358 44.356 44.358 78.251 0 147.001-45.328 147.001-112.033v-304.537l-0.159-5.511c-3.669-63.676-70.764-106.524-146.842-106.524-24.496 0-44.356 19.86-44.356 44.362 0 24.496 19.86 44.356 44.356 44.356l6.326 0.176c16.651 0.933 31.516 5.513 41.836 12.322 7.561 4.983 10.121 8.974 10.121 10.819v304.537l-0.125 0.79c-0.592 2.067-3.379 5.667-9.995 10.030-11.611 7.656-28.968 12.496-48.162 12.496-24.496 0-44.356 19.86-44.356 44.359z" />
<glyph unicode="&#xe957;" glyph-name="gridview" d="M85.333 917.333c-11.316-0.001-22.167-4.497-30.169-12.498s-12.497-18.853-12.498-30.169v-170.667c0.001-11.316 4.497-22.167 12.498-30.169s18.853-12.497 30.169-12.498h170.667c11.316 0.001 22.167 4.496 30.169 12.498s12.497 18.853 12.498 30.169v170.667c-0.001 11.316-4.496 22.167-12.498 30.169s-18.853 12.497-30.169 12.498h-170.667zM426.667 917.333c-11.316-0.001-22.167-4.497-30.169-12.498s-12.497-18.853-12.498-30.169v-170.667c0.001-11.316 4.496-22.167 12.498-30.169s18.853-12.497 30.169-12.498h170.667c11.315 0.001 22.17 4.496 30.168 12.498 8.004 8.001 12.498 18.853 12.498 30.169v170.667c0 11.316-4.494 22.167-12.498 30.169-7.999 8.001-18.853 12.497-30.168 12.498h-170.667zM768 917.333c-11.315-0.001-22.17-4.497-30.168-12.498-8.004-8.001-12.498-18.853-12.498-30.169v-170.667c0-11.316 4.494-22.167 12.498-30.169 7.999-8.001 18.853-12.497 30.168-12.498h170.667c11.315 0.001 22.17 4.496 30.168 12.498 8.004 8.001 12.498 18.853 12.498 30.169v170.667c0 11.316-4.494 22.167-12.498 30.169-7.999 8.001-18.853 12.497-30.168 12.498h-170.667zM128 832h85.333v-85.333h-85.333v85.333zM469.333 832h85.333v-85.333h-85.333v85.333zM810.667 832h85.333v-85.333h-85.333v85.333zM85.333 576c-11.316-0.001-22.167-4.496-30.169-12.498s-12.497-18.853-12.498-30.169v-170.667c0.001-11.315 4.497-22.17 12.498-30.168 8.001-8.004 18.853-12.498 30.169-12.498h170.667c11.316 0 22.167 4.494 30.169 12.498 8.001 7.999 12.497 18.853 12.498 30.168v170.667c-0.001 11.316-4.496 22.167-12.498 30.169s-18.853 12.497-30.169 12.498h-170.667zM426.667 576c-11.316-0.001-22.167-4.496-30.169-12.498s-12.497-18.853-12.498-30.169v-170.667c0.001-11.315 4.496-22.17 12.498-30.168 8.001-8.004 18.853-12.498 30.169-12.498h170.667c11.315 0 22.17 4.494 30.168 12.498 8.004 7.999 12.498 18.853 12.498 30.168v170.667c0 11.316-4.494 22.167-12.498 30.169-7.999 8.001-18.853 12.497-30.168 12.498h-170.667zM768 576c-11.315-0.001-22.17-4.496-30.168-12.498-8.004-8.001-12.498-18.853-12.498-30.169v-170.667c0-11.315 4.494-22.17 12.498-30.168 7.999-8.004 18.853-12.498 30.168-12.498h170.667c11.315 0 22.17 4.494 30.168 12.498 8.004 7.999 12.498 18.853 12.498 30.168v170.667c0 11.316-4.494 22.167-12.498 30.169-7.999 8.001-18.853 12.497-30.168 12.498h-170.667zM128 490.667h85.333v-85.333h-85.333v85.333zM469.333 490.667h85.333v-85.333h-85.333v85.333zM810.667 490.667h85.333v-85.333h-85.333v85.333zM85.333 234.667c-11.316 0-22.167-4.494-30.169-12.498-8.001-7.999-12.497-18.853-12.498-30.168v-170.667c0.001-11.315 4.497-22.17 12.498-30.168 8.001-8.004 18.853-12.498 30.169-12.498h170.667c11.316 0 22.167 4.494 30.169 12.498 8.001 7.999 12.497 18.853 12.498 30.168v170.667c-0.001 11.315-4.496 22.17-12.498 30.168-8.001 8.004-18.853 12.498-30.169 12.498h-170.667zM426.667 234.667c-11.316 0-22.167-4.494-30.169-12.498-8.001-7.999-12.497-18.853-12.498-30.168v-170.667c0.001-11.315 4.496-22.17 12.498-30.168 8.001-8.004 18.853-12.498 30.169-12.498h170.667c11.315 0 22.17 4.494 30.168 12.498 8.004 7.999 12.498 18.853 12.498 30.168v170.667c0 11.315-4.494 22.17-12.498 30.168-7.999 8.004-18.853 12.498-30.168 12.498h-170.667zM768 234.667c-11.315 0-22.17-4.494-30.168-12.498-8.004-7.999-12.498-18.853-12.498-30.168v-170.667c0-11.315 4.494-22.17 12.498-30.168 7.999-8.004 18.853-12.498 30.168-12.498h170.667c11.315 0 22.17 4.494 30.168 12.498 8.004 7.999 12.498 18.853 12.498 30.168v170.667c0 11.315-4.494 22.17-12.498 30.168-7.999 8.004-18.853 12.498-30.168 12.498h-170.667zM128 149.333h85.333v-85.333h-85.333v85.333zM469.333 149.333h85.333v-85.333h-85.333v85.333zM810.667 149.333h85.333v-85.333h-85.333v85.333z" />
<glyph unicode="&#xe958;" glyph-name="star-un-filled" d="M542.167 844.038c-11.213 26.613-48.931 26.617-60.146 0.005-40.434-95.936-103.494-245.677-103.494-245.677l-253.357-27.524c-27.703-3.009-39.15-37.093-18.879-56.207l190.665-179.785-53.844-263.576c-5.706-27.928 24.618-49.242 48.973-34.423l220.015 133.875 219.805-133.866c24.344-14.826 54.673 6.465 48.989 34.392l-53.65 263.598 190.477 179.796c20.255 19.119 8.804 53.185-18.889 56.196l-253.16 27.524-103.506 245.672zM512.1 747.455l88.454-209.742 221.263-23.956-165.692-156.479 45.883-225.798-189.908 115.703-190.163-115.703 46.139 225.798-165.437 156.479 221.009 23.956 88.453 209.742z" />
<glyph unicode="&#xe959;" glyph-name="play-large" d="M512 945.778c-274.889 0-497.778-222.889-497.778-497.778s222.889-497.778 497.778-497.778c274.89 0 497.778 222.888 497.778 497.778s-222.888 497.778-497.778 497.778zM672.111 440.334l-242.665-176.558c-1.331-0.956-2.898-1.525-4.534-1.65-1.633-0.122-3.268 0.208-4.727 0.956-1.459 0.745-2.682 1.88-3.538 3.277s-1.308 3.001-1.311 4.639v352.89c-0.006 1.641 0.444 3.251 1.297 4.654s2.079 2.54 3.541 3.288c1.462 0.748 3.1 1.075 4.736 0.95 1.638-0.128 3.209-0.705 4.537-1.67l242.665-176.444c1.146-0.811 2.082-1.886 2.728-3.132 0.646-1.249 0.981-2.631 0.981-4.036 0-1.402-0.336-2.788-0.981-4.033-0.646-1.249-1.582-2.321-2.728-3.132z" />
<glyph unicode="&#xe95a;" glyph-name="star-filled" d="M125.143 570.803l253.395 27.534 103.494 245.702c11.212 26.614 48.924 26.614 60.136 0l103.494-245.702 253.197-27.534c27.667-3.009 39.107-37.052 18.871-56.157l-190.504-179.864 53.658-263.699c5.679-27.908-24.622-49.185-48.943-34.368l-219.841 133.919-220.051-133.928c-24.332-14.808-54.628 6.49-48.928 34.399l53.852 263.677-190.691 179.853c-20.253 19.101-8.816 53.162 18.861 56.169z" />
<glyph unicode="&#xe95b;" glyph-name="cart" horiz-adv-x="1084" d="M1025.53 254.705h-700.589l35.177 71.65 584.468 1.054c19.769 0 36.707 14.119 40.237 33.65l80.944 453.059c2.114 11.882-1.060 24.118-8.824 33.411-3.837 4.574-8.626 8.259-14.029 10.798s-11.294 3.873-17.269 3.907l-743.527 2.471-6.353 29.882c-4 19.059-21.176 32.941-40.706 32.941h-181.764c-11.014 0-21.577-4.375-29.366-12.164s-12.164-18.351-12.164-29.366c0-11.014 4.375-21.577 12.164-29.365s18.351-12.164 29.366-12.164h148.118l27.765-132 68.353-330.942-88-143.648c-4.57-6.168-7.323-13.493-7.946-21.143s0.906-15.324 4.416-22.149c7.059-14.005 21.294-22.823 37.059-22.823h73.882c-15.751-20.92-24.259-46.405-24.235-72.59 0-66.59 54.117-120.706 120.706-120.706s120.706 54.115 120.706 120.706c0 26.232-8.706 51.766-24.236 72.59h189.528c-15.752-20.92-24.257-46.405-24.233-72.59 0-66.59 54.115-120.706 120.706-120.706s120.706 54.115 120.706 120.706c0 26.232-8.704 51.766-24.233 72.59h133.289c22.823 0 41.532 18.589 41.532 41.526-0.066 11.005-4.488 21.534-12.288 29.292s-18.354 12.113-29.359 12.119zM299.412 782.823l677.412-2.235-66.355-371.529-532.116-0.941-78.941 374.706zM413.412 62c-20.47 0-37.177 16.703-37.177 37.177 0 20.468 16.706 37.177 37.177 37.177s37.177-16.709 37.177-37.177c0-9.861-3.917-19.317-10.889-26.287-6.972-6.975-16.428-10.891-26.288-10.891zM795.883 62c-20.474 0-37.177 16.703-37.177 37.177 0 20.468 16.703 37.177 37.177 37.177 20.468 0 37.177-16.709 37.177-37.177 0-9.861-3.915-19.317-10.891-26.287-6.969-6.975-16.426-10.891-26.287-10.891z" />
<glyph unicode="&#xe95c;" glyph-name="pdf" horiz-adv-x="768" d="M76.8 908.812c-42.432 0-76.8-34.368-76.8-76.8v-806.4c0-42.432 34.368-76.8 76.8-76.8h614.4c42.432 0 76.8 34.368 76.8 76.8v595.2c0 10.176-4.032 19.93-11.251 27.149l-249.599 249.6c-7.219 7.219-16.974 11.25-27.15 11.25h-403.2zM460.8 835.688l234.074-234.075h-195.674c-21.197 0-38.4 17.203-38.4 38.4v195.675zM348.6 551.663c20.851 0 38.333-8.812 49.2-24.825 8.755-12.826 12.975-29.317 12.975-50.476 0-36.288-16.244-93.257-41.55-154.275 12.211-27.688 26.457-55.105 41.625-80.027 35.251-0.23 83.711-3.437 123.225-16.723 56.87-19.046 68.85-50.387 68.85-73.35-0.038-33.062-26.856-68.774-85.8-68.774-43.584 0-92.168 44.218-134.1 104.774-30.566-0.998-59.6-3.981-86.25-8.474-48.845-79.91-104.198-142.426-146.4-142.426-46.387 0-62.025 45.824-62.025 66.752 0 65.779 83.196 104.666 175.125 123.674 17.357 29.606 34.159 61.619 48.675 93.374-21.389 53.030-34.575 104.884-34.575 143.4 0 24.422 5.018 44.205 14.925 58.95 12.365 18.355 32.33 28.425 56.1 28.425zM348.525 497.962c-8.333 0-10.207-2.843-11.475-4.724-2.15-3.187-5.775-11.21-5.775-28.95 0-19.661 3.928-42.66 10.725-67.275 10.061 31.411 15.806 59.994 15 82.65-0.614 18.278-5.019 18.3-8.475 18.3zM449.475 186.714c24.691-30.259 48.836-49.728 67.575-49.728 22.118 0 32.025 7.552 32.025 15.078 0.038 7.066-12.555 15.859-32.1 22.426-17.741 5.952-40.927 10.074-67.5 12.224zM220.725 160.986c-48.576-16.397-78.675-37.722-78.675-57.075 0.038 0 2.183-13.050 8.25-13.050 14.592 1.037 41.164 28.883 70.425 70.125z" />
<glyph unicode="&#xe95d;" glyph-name="skelton-medium" horiz-adv-x="1173" d="M139.333 960c-67.036 0-122-57.667-122-128v-768c0-70.334 54.964-128 122-128h894.668c67.036 0 121.999 57.666 121.999 128v768c0 70.333-54.963 128-121.999 128h-894.668zM139.333 874.667h894.668c22.874 0 40.666-18.667 40.666-42.667v-620l-276.809 306.611c-4.326 4.791-11.887 4.672-16.060-0.258l-150.97-178.353-236.777 261.954c-4.329 4.787-11.885 4.666-16.055-0.262l-279.33-330.025v560.333c0 24 17.792 42.667 40.667 42.667zM830.667 789.333c-44.798 0-81.333-38.333-81.333-85.333s36.535-85.333 81.333-85.333c44.798 0 81.333 38.334 81.333 85.333s-36.535 85.333-81.333 85.333zM387.78 485.001l419.059-463.667h-667.506c-22.875 0-40.667 18.667-40.667 42.667v78.999l289.114 342.001zM791.27 401.333l283.396-313.333v-24c0-24-17.792-42.667-40.666-42.667h-115.33l-231.607 256.666 104.207 123.334z" />
<glyph unicode="&#xe95e;" glyph-name="config-form" horiz-adv-x="878" d="M402.286 960c-47.429 0-87.714-30.857-102.857-73.143h-189.714c-60.286 0-109.714-49.428-109.714-109.714v-658.286c0-60.284 49.429-109.714 109.714-109.714h256v-0.285c0-40.287 32.571-72.858 72.572-72.858h366.571c40.287 0 72.858 32.571 72.858 72.858v439.714c0 40-32.571 72.572-72.858 72.572h-0.285v256c0 60.286-49.43 109.714-109.714 109.714h-189.714c-15.143 42.286-55.428 73.143-102.857 73.143zM402.286 886.857c20.571 0 36.571-16 36.571-36.571v-36.571h73.143v-73.143h-219.429v73.143h73.143v36.571c0 20.571 16 36.571 36.571 36.571zM109.714 813.714h109.714v-146.286h365.714v146.286h109.714c20.571 0 36.571-16 36.571-36.571v-256h-293.143c-40 0-72.572-32.571-72.572-72.572v-366.286h-256c-20.571 0-36.571 16.004-36.571 36.571v658.286c0 20.571 16 36.571 36.571 36.571zM438.286 448h366.286l0.285-438.857-366-0.285-0.571 439.142z" />
<glyph unicode="&#xe95f;" glyph-name="play-button" horiz-adv-x="768" d="M69.708 951.665l605.496-434.463c23.452-16.828 24.644-51.29 2.41-69.699l-605.495-501.306c-28.707-23.765-72.119-3.345-72.119 33.92v935.769c0 35.861 40.572 56.685 69.708 35.779zM88.072 830.126v-756.372l489.434 405.185-489.434 351.188z" />
<glyph unicode="&#xe960;" glyph-name="time-estimate" d="M36.571 448c0 262.572 212.857 475.429 475.429 475.429 262.576 0 475.429-212.857 475.429-475.429 0-262.576-212.853-475.429-475.429-475.429-18.846 0-33.124 16.274-32.129 35.094l0.447 8.463c0.9 17.020 15.274 30.186 32.312 29.586 221.886 0.336 401.657 180.319 401.657 402.286 0 222.177-180.107 402.286-402.286 402.286-222.177 0-402.286-180.109-402.286-402.286 0-109.624 43.8-208.945 114.937-281.541l0.001 88.236c0.001 20.198 16.374 36.571 36.572 36.571s36.571-16.374 36.571-36.571v-219.431h-219.429c-20.198 0-36.572 16.377-36.572 36.571 0 20.202 16.374 36.571 36.572 36.571h100.237l-6.689 7.365c-83.7 85.672-135.344 202.955-135.344 332.229zM475.429 448v245.551c0 20.198 16.374 36.571 36.571 36.571s36.571-16.373 36.571-36.571v-230.402l151.51-151.51c14.282-14.282 14.282-37.438 0-51.72s-37.438-14.282-51.72 0l-162.221 162.222c-6.859 6.858-10.712 16.16-10.712 25.86z" />
<glyph unicode="&#xe961;" glyph-name="recall" d="M512 923.429c-262 0-475.429-213.148-475.429-475.285 0-19.62 15.862-35.525 35.429-35.525h2.285c19.567 0 35.429 15.905 35.429 35.525 0 222.316 179.714 401.944 402.286 401.944 119.428 0 225.997-52.427 299.432-134.936l-57.498-57.451c-9.238-9.234-2.721-25.059 10.328-25.059h208.538c8.082 0 14.629 6.567 14.629 14.669v208.448c0 13.052-15.726 19.603-24.949 10.396l-99.335-99.149c-86.857 95.688-211.716 156.423-351.144 156.423zM950.857 485.96c-20.195 0-36.571-16.418-36.571-36.67 0-223.176-179.712-403.378-402.286-403.378-120 0-226.572 52.999-300.286 136.368l58.456 58.617c9.216 9.24 2.689 25.040-10.344 25.040h-208.626c-8.079 0-14.629-6.567-14.629-14.669v-209.189c0-13.071 15.757-19.617 24.973-10.372l98.456 98.721c87.143-96.549 212.285-157.857 352-157.857 262.283 0 475.429 213.723 475.429 476.718 0 20.253-16.377 36.67-36.571 36.67z" />
<glyph unicode="&#xe962;" glyph-name="copy" d="M972.638 872.769c-1.823 20.201-18.802 36.031-39.477 36.031l-582.704-0.162c-20.201-1.823-36.031-18.801-36.031-39.477v-223.587h-223.587c-21.892 0-39.639-17.747-39.639-39.639v-579.097c0-21.892 17.747-39.639 39.639-39.639h579.097c21.892 0 39.639 17.747 39.639 39.639v223.586l227.195 0.163c20.2 1.823 36.030 18.801 36.030 39.476v579.097l-0.162 3.608zM709.575 329.703v276.232c0 21.892-17.747 39.639-39.639 39.639h-276.232v183.948h499.82v-499.82h-183.948zM630.297 566.297v-499.82h-499.82v499.82h499.82z" />
</font>
</defs>
</svg>
