<svg width="14" height="13" fill="none" xmlns="http://www.w3.org/2000/svg"><path d="M1.5 0C.676 0 0 .676 0 1.5v8c0 .824.676 1.5 1.5 1.5H3v.5c0 .824.676 1.5 1.5 1.5h8c.824 0 1.5-.676 1.5-1.5v-8c0-.824-.676-1.5-1.5-1.5H11v-.5C11 .676 10.324 0 9.5 0h-8Zm0 1h8c.281 0 .5.219.5.5v8c0 .281-.219.5-.5.5h-8a.494.494 0 0 1-.5-.5v-8c0-.281.219-.5.5-.5ZM11 3h1.5c.281 0 .5.219.5.5v8c0 .281-.219.5-.5.5h-8a.494.494 0 0 1-.5-.5V11h5.5c.824 0 1.5-.676 1.5-1.5V3Z" fill="#979797"/><path d="M2 4.077V3h7v1.077H2ZM2 6.23V5.155h7V6.23H2Zm0 2.155V7.308h5.385v1.077H2Z" fill="#979797"/></svg>