<svg width="16" height="16" fill="none" xmlns="http://www.w3.org/2000/svg"><path d="M2.5 1C1.676 1 1 1.676 1 2.5v8c0 .824.676 1.5 1.5 1.5H4v.5c0 .824.676 1.5 1.5 1.5h8c.824 0 1.5-.676 1.5-1.5v-8c0-.824-.676-1.5-1.5-1.5H12v-.5c0-.824-.676-1.5-1.5-1.5h-8Zm0 1h8c.281 0 .5.219.5.5v8c0 .281-.219.5-.5.5h-8a.494.494 0 0 1-.5-.5v-8c0-.281.219-.5.5-.5ZM12 4h1.5c.281 0 .5.219.5.5v8c0 .281-.219.5-.5.5h-8a.494.494 0 0 1-.5-.5V12h5.5c.824 0 1.5-.676 1.5-1.5V4Z" fill="#9AA0A6"/><path d="M7 4h4v1H7a.5.5 0 0 1 0-1ZM4.5 4H2v1h2.5a.5.5 0 0 0 0-1ZM7 8h4v1H7a.5.5 0 0 1 0-1ZM4.5 8H2v1h2.5a.5.5 0 0 0 0-1Z" fill="#9AA0A6"/></svg>