<svg width="15" height="13" fill="none" xmlns="http://www.w3.org/2000/svg"><path d="M1.645 0 .94.703l2.301 2.305C1.016 4.238.137 6.16.086 6.278L0 6.476l.086.199c.074.176 1.934 4.3 7.332 4.3.184 0 .348-.023.523-.03h.008c1.028-.06 1.922-.25 2.684-.548l2.555 2.559.71-.71-2.296-2.294-.684-.683-.063-.06L8.77 7.118 6.777 5.125 5.332 3.684l-.344-.344-.789-.785L1.645 0Zm5.773 1.977a9.45 9.45 0 0 0-1.54.132l.93.93c.2-.035.399-.062.61-.062 1.93 0 3.5 1.57 3.5 3.5 0 .21-.027.41-.063.609l.813.812c.148-.449.25-.921.25-1.421 0-.985-.328-1.891-.867-2.633 1.61.867 2.418 2.14 2.683 2.633a6.637 6.637 0 0 1-1.59 1.898l.711.71c1.305-1.112 1.856-2.315 1.895-2.41l.09-.198-.09-.2c-.074-.175-1.934-4.3-7.332-4.3ZM3.785 3.859a4.42 4.42 0 0 0-.867 2.618c0 .984.328 1.89.867 2.628-1.61-.863-2.418-2.136-2.683-2.628.265-.493 1.082-1.75 2.683-2.618Z" fill="#FF784B"/></svg>