<svg width="12" height="12" fill="none" xmlns="http://www.w3.org/2000/svg"><path d="M7.405 0a.51.51 0 0 0-.502.51v1.828l-1.74 1.74H2.316a.51.51 0 0 0-.36.87l2.187 2.188L.15 11.13a.51.51 0 1 0 .721.72l3.994-3.993 2.188 2.188a.509.509 0 0 0 .87-.36V6.957l1.75-1.86h1.818a.51.51 0 0 0 .36-.87L7.774.15A.51.51 0 0 0 7.405 0Zm.517 1.74 2.338 2.338h-.808a.51.51 0 0 0-.37.161l-2.04 2.166a.51.51 0 0 0-.139.349v1.7L3.546 5.097h1.828a.51.51 0 0 0 .36-.15l2.04-2.038a.51.51 0 0 0 .148-.36V1.74Z" fill="#0D6EFD"/></svg>