<svg width="16" height="16" fill="none" xmlns="http://www.w3.org/2000/svg"><path d="M8 2a7.82 7.82 0 0 0-3.85.987.473.473 0 0 0-.15.678c.152.23.461.292.703.158A6.846 6.846 0 0 1 8 3a6.84 6.84 0 0 1 3.328.84c.24.135.55.076.704-.153a.473.473 0 0 0-.146-.679A7.816 7.816 0 0 0 8 2ZM2.405 6.806c-.118-.25-.399-.393-.66-.305-.262.088-.405.372-.287.621.177.375.404.725.651 1.062L1 9.293a.5.5 0 1 0 .708.707l1.088-1.088a6.748 6.748 0 0 0 1.713 1.211l-.567 1.37a.5.5 0 1 0 .924.382l.553-1.338a7.946 7.946 0 0 0 2.082.393v1.468a.5.5 0 1 0 1 0V10.93a7.942 7.942 0 0 0 2.082-.393l.553 1.338a.5.5 0 1 0 .924-.382l-.567-1.37a6.748 6.748 0 0 0 1.713-1.21L14.293 10A.5.5 0 0 0 15 9.293l-1.11-1.11a6.34 6.34 0 0 0 .651-1.062c.118-.25-.025-.534-.286-.621-.262-.087-.542.055-.66.305C12.737 8.643 10.575 10 8 10c-2.573 0-4.735-1.356-5.595-3.194Z" fill="#0D6EFD"/></svg>