<?xml version="1.0" encoding="UTF-8" standalone="no"?>
<!DOCTYPE svg PUBLIC "-//W3C//DTD SVG 1.1//EN"
 "http://www.w3.org/Graphics/SVG/1.1/DTD/svg11.dtd">
<!-- Generated by graphviz version 5.0.0 (20220707.1540)
 -->
<!-- Title: dependencies Pages: 1 -->
<svg width="1193pt" height="174pt"
 viewBox="0.00 0.00 1193.00 173.80" xmlns="http://www.w3.org/2000/svg" xmlns:xlink="http://www.w3.org/1999/xlink">
<g id="graph0" class="graph" transform="scale(1 1) rotate(0) translate(4 169.8)">
<title>dependencies</title>
<polygon fill="white" stroke="transparent" points="-4,4 -4,-169.8 1189,-169.8 1189,4 -4,4"/>
<text text-anchor="middle" x="592.5" y="-8.2" font-family="sans-serif" font-size="14.00">dependencies</text>
<g id="clust1" class="cluster">
<title>cluster_WorkbenchModule</title>
<polygon fill="none" stroke="black" stroke-dasharray="1,5" points="8,-32.8 8,-157.8 1177,-157.8 1177,-32.8 8,-32.8"/>
</g>
<g id="clust4" class="cluster">
<title>cluster_WorkbenchModule_imports</title>
<polygon fill="none" stroke="black" points="186,-40.8 186,-92.8 1169,-92.8 1169,-40.8 186,-40.8"/>
</g>
<g id="clust2" class="cluster">
<title>cluster_WorkbenchModule_declarations</title>
<polygon fill="none" stroke="black" points="16,-40.8 16,-92.8 178,-92.8 178,-40.8 16,-40.8"/>
</g>
<!-- WorkbenchComponent -->
<g id="node1" class="node">
<title>WorkbenchComponent</title>
<polygon fill="#ffffb3" stroke="black" points="170.14,-84.8 23.86,-84.8 23.86,-48.8 170.14,-48.8 170.14,-84.8"/>
<text text-anchor="middle" x="97" y="-62.6" font-family="Times,serif" font-size="14.00">WorkbenchComponent</text>
</g>
<!-- WorkbenchModule -->
<g id="node2" class="node">
<title>WorkbenchModule</title>
<polygon fill="#8dd3c7" stroke="black" points="722.36,-149.8 719.36,-153.8 698.36,-153.8 695.36,-149.8 597.64,-149.8 597.64,-113.8 722.36,-113.8 722.36,-149.8"/>
<text text-anchor="middle" x="660" y="-127.6" font-family="Times,serif" font-size="14.00">WorkbenchModule</text>
</g>
<!-- WorkbenchComponent&#45;&gt;WorkbenchModule -->
<g id="edge1" class="edge">
<title>WorkbenchComponent&#45;&gt;WorkbenchModule</title>
<path fill="none" stroke="black" d="M97,-85.09C97,-107.01 97,-140.8 97,-140.8 97,-140.8 587.6,-140.8 587.6,-140.8"/>
<polygon fill="black" stroke="black" points="587.6,-144.3 597.6,-140.8 587.6,-137.3 587.6,-144.3"/>
</g>
<!-- EmptyScreenModule -->
<g id="node3" class="node">
<title>EmptyScreenModule</title>
<polygon fill="#8dd3c7" stroke="black" points="1161.47,-84.8 1158.47,-88.8 1137.47,-88.8 1134.47,-84.8 1026.53,-84.8 1026.53,-48.8 1161.47,-48.8 1161.47,-84.8"/>
<text text-anchor="middle" x="1094" y="-62.6" font-family="Times,serif" font-size="14.00">EmptyScreenModule</text>
</g>
<!-- EmptyScreenModule&#45;&gt;WorkbenchModule -->
<g id="edge2" class="edge">
<title>EmptyScreenModule&#45;&gt;WorkbenchModule</title>
<path fill="none" stroke="black" d="M1094,-85.09C1094,-107.01 1094,-140.8 1094,-140.8 1094,-140.8 732.64,-140.8 732.64,-140.8"/>
<polygon fill="black" stroke="black" points="732.64,-137.3 722.64,-140.8 732.64,-144.3 732.64,-137.3"/>
</g>
<!-- FindlySharedModule -->
<g id="node4" class="node">
<title>FindlySharedModule</title>
<polygon fill="#8dd3c7" stroke="black" points="1008.49,-84.8 1005.49,-88.8 984.49,-88.8 981.49,-84.8 873.51,-84.8 873.51,-48.8 1008.49,-48.8 1008.49,-84.8"/>
<text text-anchor="middle" x="941" y="-62.6" font-family="Times,serif" font-size="14.00">FindlySharedModule</text>
</g>
<!-- FindlySharedModule&#45;&gt;WorkbenchModule -->
<g id="edge3" class="edge">
<title>FindlySharedModule&#45;&gt;WorkbenchModule</title>
<path fill="none" stroke="black" d="M941,-84.91C941,-104.14 941,-131.8 941,-131.8 941,-131.8 732.36,-131.8 732.36,-131.8"/>
<polygon fill="black" stroke="black" points="732.36,-128.3 722.36,-131.8 732.36,-135.3 732.36,-128.3"/>
</g>
<!-- KrModalModule -->
<g id="node5" class="node">
<title>KrModalModule</title>
<polygon fill="#8dd3c7" stroke="black" points="855.38,-84.8 852.38,-88.8 831.38,-88.8 828.38,-84.8 744.62,-84.8 744.62,-48.8 855.38,-48.8 855.38,-84.8"/>
<text text-anchor="middle" x="800" y="-62.6" font-family="Times,serif" font-size="14.00">KrModalModule</text>
</g>
<!-- KrModalModule&#45;&gt;WorkbenchModule -->
<g id="edge4" class="edge">
<title>KrModalModule&#45;&gt;WorkbenchModule</title>
<path fill="none" stroke="black" d="M800,-84.83C800,-101.2 800,-122.8 800,-122.8 800,-122.8 732.63,-122.8 732.63,-122.8"/>
<polygon fill="black" stroke="black" points="732.63,-119.3 722.63,-122.8 732.63,-126.3 732.63,-119.3"/>
</g>
<!-- UpgradePlanModule -->
<g id="node6" class="node">
<title>UpgradePlanModule</title>
<polygon fill="#8dd3c7" stroke="black" points="726.14,-84.8 723.14,-88.8 702.14,-88.8 699.14,-84.8 593.86,-84.8 593.86,-48.8 726.14,-48.8 726.14,-84.8"/>
<text text-anchor="middle" x="660" y="-62.6" font-family="Times,serif" font-size="14.00">UpgradePlanModule</text>
</g>
<!-- UpgradePlanModule&#45;&gt;WorkbenchModule -->
<g id="edge5" class="edge">
<title>UpgradePlanModule&#45;&gt;WorkbenchModule</title>
<path fill="none" stroke="black" d="M660,-84.91C660,-84.91 660,-103.79 660,-103.79"/>
<polygon fill="black" stroke="black" points="656.5,-103.79 660,-113.79 663.5,-103.79 656.5,-103.79"/>
</g>
<!-- UseronboardingJourneyModule -->
<g id="node7" class="node">
<title>UseronboardingJourneyModule</title>
<polygon fill="#8dd3c7" stroke="black" points="576.08,-84.8 573.08,-88.8 552.08,-88.8 549.08,-84.8 381.92,-84.8 381.92,-48.8 576.08,-48.8 576.08,-84.8"/>
<text text-anchor="middle" x="479" y="-62.6" font-family="Times,serif" font-size="14.00">UseronboardingJourneyModule</text>
</g>
<!-- UseronboardingJourneyModule&#45;&gt;WorkbenchModule -->
<g id="edge6" class="edge">
<title>UseronboardingJourneyModule&#45;&gt;WorkbenchModule</title>
<path fill="none" stroke="black" d="M479,-84.83C479,-101.2 479,-122.8 479,-122.8 479,-122.8 587.46,-122.8 587.46,-122.8"/>
<polygon fill="black" stroke="black" points="587.46,-126.3 597.46,-122.8 587.46,-119.3 587.46,-126.3"/>
</g>
<!-- WorkbenchRoutingModule -->
<g id="node8" class="node">
<title>WorkbenchRoutingModule</title>
<polygon fill="#8dd3c7" stroke="black" points="363.97,-84.8 360.97,-88.8 339.97,-88.8 336.97,-84.8 194.03,-84.8 194.03,-48.8 363.97,-48.8 363.97,-84.8"/>
<text text-anchor="middle" x="279" y="-62.6" font-family="Times,serif" font-size="14.00">WorkbenchRoutingModule</text>
</g>
<!-- WorkbenchRoutingModule&#45;&gt;WorkbenchModule -->
<g id="edge7" class="edge">
<title>WorkbenchRoutingModule&#45;&gt;WorkbenchModule</title>
<path fill="none" stroke="black" d="M279,-84.91C279,-104.14 279,-131.8 279,-131.8 279,-131.8 587.51,-131.8 587.51,-131.8"/>
<polygon fill="black" stroke="black" points="587.51,-135.3 597.51,-131.8 587.51,-128.3 587.51,-135.3"/>
</g>
</g>
</svg>
