<?xml version="1.0" encoding="UTF-8" standalone="no"?>
<!DOCTYPE svg PUBLIC "-//W3C//DTD SVG 1.1//EN"
 "http://www.w3.org/Graphics/SVG/1.1/DTD/svg11.dtd">
<!-- Generated by graphviz version 5.0.0 (20220707.1540)
 -->
<!-- Title: dependencies Pages: 1 -->
<svg width="572pt" height="174pt"
 viewBox="0.00 0.00 572.00 173.80" xmlns="http://www.w3.org/2000/svg" xmlns:xlink="http://www.w3.org/1999/xlink">
<g id="graph0" class="graph" transform="scale(1 1) rotate(0) translate(4 169.8)">
<title>dependencies</title>
<polygon fill="white" stroke="transparent" points="-4,4 -4,-169.8 568,-169.8 568,4 -4,4"/>
<text text-anchor="middle" x="282" y="-8.2" font-family="sans-serif" font-size="14.00">dependencies</text>
<g id="clust1" class="cluster">
<title>cluster_InvoicesModule</title>
<polygon fill="none" stroke="black" stroke-dasharray="1,5" points="8,-32.8 8,-157.8 556,-157.8 556,-32.8 8,-32.8"/>
</g>
<g id="clust2" class="cluster">
<title>cluster_InvoicesModule_declarations</title>
<polygon fill="none" stroke="black" points="404,-40.8 404,-92.8 548,-92.8 548,-40.8 404,-40.8"/>
</g>
<g id="clust4" class="cluster">
<title>cluster_InvoicesModule_imports</title>
<polygon fill="none" stroke="black" points="16,-40.8 16,-92.8 396,-92.8 396,-40.8 16,-40.8"/>
</g>
<!-- InvoicesComponent -->
<g id="node1" class="node">
<title>InvoicesComponent</title>
<polygon fill="#ffffb3" stroke="black" points="540.26,-84.8 411.74,-84.8 411.74,-48.8 540.26,-48.8 540.26,-84.8"/>
<text text-anchor="middle" x="476" y="-62.6" font-family="Times,serif" font-size="14.00">InvoicesComponent</text>
</g>
<!-- InvoicesModule -->
<g id="node2" class="node">
<title>InvoicesModule</title>
<polygon fill="#8dd3c7" stroke="black" points="365.48,-149.8 362.48,-153.8 341.48,-153.8 338.48,-149.8 258.52,-149.8 258.52,-113.8 365.48,-113.8 365.48,-149.8"/>
<text text-anchor="middle" x="312" y="-127.6" font-family="Times,serif" font-size="14.00">InvoicesModule</text>
</g>
<!-- InvoicesComponent&#45;&gt;InvoicesModule -->
<g id="edge1" class="edge">
<title>InvoicesComponent&#45;&gt;InvoicesModule</title>
<path fill="none" stroke="black" d="M476,-84.91C476,-104.14 476,-131.8 476,-131.8 476,-131.8 375.7,-131.8 375.7,-131.8"/>
<polygon fill="black" stroke="black" points="375.7,-128.3 365.7,-131.8 375.7,-135.3 375.7,-128.3"/>
</g>
<!-- InvoicesRoutingModule -->
<g id="node3" class="node">
<title>InvoicesRoutingModule</title>
<polygon fill="#8dd3c7" stroke="black" points="388.1,-84.8 385.1,-88.8 364.1,-88.8 361.1,-84.8 235.9,-84.8 235.9,-48.8 388.1,-48.8 388.1,-84.8"/>
<text text-anchor="middle" x="312" y="-62.6" font-family="Times,serif" font-size="14.00">InvoicesRoutingModule</text>
</g>
<!-- InvoicesRoutingModule&#45;&gt;InvoicesModule -->
<g id="edge2" class="edge">
<title>InvoicesRoutingModule&#45;&gt;InvoicesModule</title>
<path fill="none" stroke="black" d="M312,-84.91C312,-84.91 312,-103.79 312,-103.79"/>
<polygon fill="black" stroke="black" points="308.5,-103.79 312,-113.79 315.5,-103.79 308.5,-103.79"/>
</g>
<!-- UseronboardingJourneyModule -->
<g id="node4" class="node">
<title>UseronboardingJourneyModule</title>
<polygon fill="#8dd3c7" stroke="black" points="218.08,-84.8 215.08,-88.8 194.08,-88.8 191.08,-84.8 23.92,-84.8 23.92,-48.8 218.08,-48.8 218.08,-84.8"/>
<text text-anchor="middle" x="121" y="-62.6" font-family="Times,serif" font-size="14.00">UseronboardingJourneyModule</text>
</g>
<!-- UseronboardingJourneyModule&#45;&gt;InvoicesModule -->
<g id="edge3" class="edge">
<title>UseronboardingJourneyModule&#45;&gt;InvoicesModule</title>
<path fill="none" stroke="black" d="M121,-84.91C121,-104.14 121,-131.8 121,-131.8 121,-131.8 248.29,-131.8 248.29,-131.8"/>
<polygon fill="black" stroke="black" points="248.29,-135.3 258.29,-131.8 248.29,-128.3 248.29,-135.3"/>
</g>
</g>
</svg>
