<?xml version="1.0" encoding="UTF-8" standalone="no"?>
<!DOCTYPE svg PUBLIC "-//W3C//DTD SVG 1.1//EN"
 "http://www.w3.org/Graphics/SVG/1.1/DTD/svg11.dtd">
<!-- Generated by graphviz version 5.0.0 (20220707.1540)
 -->
<!-- Title: dependencies Pages: 1 -->
<svg width="848pt" height="174pt"
 viewBox="0.00 0.00 848.00 173.80" xmlns="http://www.w3.org/2000/svg" xmlns:xlink="http://www.w3.org/1999/xlink">
<g id="graph0" class="graph" transform="scale(1 1) rotate(0) translate(4 169.8)">
<title>dependencies</title>
<polygon fill="white" stroke="transparent" points="-4,4 -4,-169.8 844,-169.8 844,4 -4,4"/>
<text text-anchor="middle" x="420" y="-8.2" font-family="sans-serif" font-size="14.00">dependencies</text>
<g id="clust1" class="cluster">
<title>cluster_InvoicesModule</title>
<polygon fill="none" stroke="black" stroke-dasharray="1,5" points="8,-32.8 8,-157.8 832,-157.8 832,-32.8 8,-32.8"/>
</g>
<g id="clust2" class="cluster">
<title>cluster_InvoicesModule_declarations</title>
<polygon fill="none" stroke="black" points="680,-40.8 680,-92.8 824,-92.8 824,-40.8 680,-40.8"/>
</g>
<g id="clust4" class="cluster">
<title>cluster_InvoicesModule_imports</title>
<polygon fill="none" stroke="black" points="16,-40.8 16,-92.8 672,-92.8 672,-40.8 16,-40.8"/>
</g>
<!-- InvoicesComponent -->
<g id="node1" class="node">
<title>InvoicesComponent</title>
<polygon fill="#ffffb3" stroke="black" points="816.26,-84.8 687.74,-84.8 687.74,-48.8 816.26,-48.8 816.26,-84.8"/>
<text text-anchor="middle" x="752" y="-62.6" font-family="Times,serif" font-size="14.00">InvoicesComponent</text>
</g>
<!-- InvoicesModule -->
<g id="node2" class="node">
<title>InvoicesModule</title>
<polygon fill="#8dd3c7" stroke="black" points="512.48,-149.8 509.48,-153.8 488.48,-153.8 485.48,-149.8 405.52,-149.8 405.52,-113.8 512.48,-113.8 512.48,-149.8"/>
<text text-anchor="middle" x="459" y="-127.6" font-family="Times,serif" font-size="14.00">InvoicesModule</text>
</g>
<!-- InvoicesComponent&#45;&gt;InvoicesModule -->
<g id="edge1" class="edge">
<title>InvoicesComponent&#45;&gt;InvoicesModule</title>
<path fill="none" stroke="black" d="M752,-85.08C752,-106.12 752,-137.8 752,-137.8 752,-137.8 522.74,-137.8 522.74,-137.8"/>
<polygon fill="black" stroke="black" points="522.74,-134.3 512.74,-137.8 522.74,-141.3 522.74,-134.3"/>
</g>
<!-- EmptyScreenModule -->
<g id="node3" class="node">
<title>EmptyScreenModule</title>
<polygon fill="#8dd3c7" stroke="black" points="664.47,-84.8 661.47,-88.8 640.47,-88.8 637.47,-84.8 529.53,-84.8 529.53,-48.8 664.47,-48.8 664.47,-84.8"/>
<text text-anchor="middle" x="597" y="-62.6" font-family="Times,serif" font-size="14.00">EmptyScreenModule</text>
</g>
<!-- EmptyScreenModule&#45;&gt;InvoicesModule -->
<g id="edge2" class="edge">
<title>EmptyScreenModule&#45;&gt;InvoicesModule</title>
<path fill="none" stroke="black" d="M597,-84.82C597,-102.17 597,-125.8 597,-125.8 597,-125.8 522.75,-125.8 522.75,-125.8"/>
<polygon fill="black" stroke="black" points="522.75,-122.3 512.75,-125.8 522.75,-129.3 522.75,-122.3"/>
</g>
<!-- FieldsFilterPipe -->
<g id="node4" class="node">
<title>FieldsFilterPipe</title>
<polygon fill="#8dd3c7" stroke="black" points="511.95,-84.8 508.95,-88.8 487.95,-88.8 484.95,-84.8 406.05,-84.8 406.05,-48.8 511.95,-48.8 511.95,-84.8"/>
<text text-anchor="middle" x="459" y="-62.6" font-family="Times,serif" font-size="14.00">FieldsFilterPipe</text>
</g>
<!-- FieldsFilterPipe&#45;&gt;InvoicesModule -->
<g id="edge3" class="edge">
<title>FieldsFilterPipe&#45;&gt;InvoicesModule</title>
<path fill="none" stroke="black" d="M459,-84.91C459,-84.91 459,-103.79 459,-103.79"/>
<polygon fill="black" stroke="black" points="455.5,-103.79 459,-113.79 462.5,-103.79 455.5,-103.79"/>
</g>
<!-- InvoicesRoutingModule -->
<g id="node5" class="node">
<title>InvoicesRoutingModule</title>
<polygon fill="#8dd3c7" stroke="black" points="388.1,-84.8 385.1,-88.8 364.1,-88.8 361.1,-84.8 235.9,-84.8 235.9,-48.8 388.1,-48.8 388.1,-84.8"/>
<text text-anchor="middle" x="312" y="-62.6" font-family="Times,serif" font-size="14.00">InvoicesRoutingModule</text>
</g>
<!-- InvoicesRoutingModule&#45;&gt;InvoicesModule -->
<g id="edge4" class="edge">
<title>InvoicesRoutingModule&#45;&gt;InvoicesModule</title>
<path fill="none" stroke="black" d="M312,-84.82C312,-102.17 312,-125.8 312,-125.8 312,-125.8 395.51,-125.8 395.51,-125.8"/>
<polygon fill="black" stroke="black" points="395.51,-129.3 405.51,-125.8 395.51,-122.3 395.51,-129.3"/>
</g>
<!-- UseronboardingJourneyModule -->
<g id="node6" class="node">
<title>UseronboardingJourneyModule</title>
<polygon fill="#8dd3c7" stroke="black" points="218.08,-84.8 215.08,-88.8 194.08,-88.8 191.08,-84.8 23.92,-84.8 23.92,-48.8 218.08,-48.8 218.08,-84.8"/>
<text text-anchor="middle" x="121" y="-62.6" font-family="Times,serif" font-size="14.00">UseronboardingJourneyModule</text>
</g>
<!-- UseronboardingJourneyModule&#45;&gt;InvoicesModule -->
<g id="edge5" class="edge">
<title>UseronboardingJourneyModule&#45;&gt;InvoicesModule</title>
<path fill="none" stroke="black" d="M121,-85.08C121,-106.12 121,-137.8 121,-137.8 121,-137.8 395.44,-137.8 395.44,-137.8"/>
<polygon fill="black" stroke="black" points="395.44,-141.3 405.44,-137.8 395.44,-134.3 395.44,-141.3"/>
</g>
</g>
</svg>
