<?xml version="1.0" encoding="UTF-8" standalone="no"?>
<!DOCTYPE svg PUBLIC "-//W3C//DTD SVG 1.1//EN"
 "http://www.w3.org/Graphics/SVG/1.1/DTD/svg11.dtd">
<!-- Generated by graphviz version 5.0.0 (20220707.1540)
 -->
<!-- Title: dependencies Pages: 1 -->
<svg width="612pt" height="174pt"
 viewBox="0.00 0.00 612.00 173.80" xmlns="http://www.w3.org/2000/svg" xmlns:xlink="http://www.w3.org/1999/xlink">
<g id="graph0" class="graph" transform="scale(1 1) rotate(0) translate(4 169.8)">
<title>dependencies</title>
<polygon fill="white" stroke="transparent" points="-4,4 -4,-169.8 608,-169.8 608,4 -4,4"/>
<text text-anchor="middle" x="302" y="-8.2" font-family="sans-serif" font-size="14.00">dependencies</text>
<g id="clust1" class="cluster">
<title>cluster_SearchRelevanceModule</title>
<polygon fill="none" stroke="black" stroke-dasharray="1,5" points="8,-32.8 8,-157.8 596,-157.8 596,-32.8 8,-32.8"/>
</g>
<g id="clust2" class="cluster">
<title>cluster_SearchRelevanceModule_declarations</title>
<polygon fill="none" stroke="black" points="394,-40.8 394,-92.8 588,-92.8 588,-40.8 394,-40.8"/>
</g>
<g id="clust4" class="cluster">
<title>cluster_SearchRelevanceModule_imports</title>
<polygon fill="none" stroke="black" points="16,-40.8 16,-92.8 386,-92.8 386,-40.8 16,-40.8"/>
</g>
<!-- SearchRelevanceComponent -->
<g id="node1" class="node">
<title>SearchRelevanceComponent</title>
<polygon fill="#ffffb3" stroke="black" points="579.72,-84.8 402.28,-84.8 402.28,-48.8 579.72,-48.8 579.72,-84.8"/>
<text text-anchor="middle" x="491" y="-62.6" font-family="Times,serif" font-size="14.00">SearchRelevanceComponent</text>
</g>
<!-- SearchRelevanceModule -->
<g id="node2" class="node">
<title>SearchRelevanceModule</title>
<polygon fill="#8dd3c7" stroke="black" points="388.94,-149.8 385.94,-153.8 364.94,-153.8 361.94,-149.8 233.06,-149.8 233.06,-113.8 388.94,-113.8 388.94,-149.8"/>
<text text-anchor="middle" x="311" y="-127.6" font-family="Times,serif" font-size="14.00">SearchRelevanceModule</text>
</g>
<!-- SearchRelevanceComponent&#45;&gt;SearchRelevanceModule -->
<g id="edge1" class="edge">
<title>SearchRelevanceComponent&#45;&gt;SearchRelevanceModule</title>
<path fill="none" stroke="black" d="M401.93,-66.8C391.08,-66.8 383.73,-66.8 383.73,-66.8 383.73,-66.8 383.73,-103.69 383.73,-103.69"/>
<polygon fill="black" stroke="black" points="380.23,-103.69 383.73,-113.69 387.23,-103.69 380.23,-103.69"/>
</g>
<!-- FindlySharedModule -->
<g id="node3" class="node">
<title>FindlySharedModule</title>
<polygon fill="#8dd3c7" stroke="black" points="378.49,-84.8 375.49,-88.8 354.49,-88.8 351.49,-84.8 243.51,-84.8 243.51,-48.8 378.49,-48.8 378.49,-84.8"/>
<text text-anchor="middle" x="311" y="-62.6" font-family="Times,serif" font-size="14.00">FindlySharedModule</text>
</g>
<!-- FindlySharedModule&#45;&gt;SearchRelevanceModule -->
<g id="edge2" class="edge">
<title>FindlySharedModule&#45;&gt;SearchRelevanceModule</title>
<path fill="none" stroke="black" d="M311,-84.91C311,-84.91 311,-103.79 311,-103.79"/>
<polygon fill="black" stroke="black" points="307.5,-103.79 311,-113.79 314.5,-103.79 307.5,-103.79"/>
</g>
<!-- SearchRelevanceRoutingModule -->
<g id="node4" class="node">
<title>SearchRelevanceRoutingModule</title>
<polygon fill="#8dd3c7" stroke="black" points="225.56,-84.8 222.56,-88.8 201.56,-88.8 198.56,-84.8 24.44,-84.8 24.44,-48.8 225.56,-48.8 225.56,-84.8"/>
<text text-anchor="middle" x="125" y="-62.6" font-family="Times,serif" font-size="14.00">SearchRelevanceRoutingModule</text>
</g>
<!-- SearchRelevanceRoutingModule&#45;&gt;SearchRelevanceModule -->
<g id="edge3" class="edge">
<title>SearchRelevanceRoutingModule&#45;&gt;SearchRelevanceModule</title>
<path fill="none" stroke="black" d="M225.71,-66.8C233.41,-66.8 238.27,-66.8 238.27,-66.8 238.27,-66.8 238.27,-103.69 238.27,-103.69"/>
<polygon fill="black" stroke="black" points="234.77,-103.69 238.27,-113.69 241.77,-103.69 234.77,-103.69"/>
</g>
</g>
</svg>
