<?xml version="1.0" encoding="UTF-8" standalone="no"?>
<!DOCTYPE svg PUBLIC "-//W3C//DTD SVG 1.1//EN"
 "http://www.w3.org/Graphics/SVG/1.1/DTD/svg11.dtd">
<!-- Generated by graphviz version 5.0.0 (20220707.1540)
 -->
<!-- Title: dependencies Pages: 1 -->
<svg width="705pt" height="174pt"
 viewBox="0.00 0.00 705.00 173.80" xmlns="http://www.w3.org/2000/svg" xmlns:xlink="http://www.w3.org/1999/xlink">
<g id="graph0" class="graph" transform="scale(1 1) rotate(0) translate(4 169.8)">
<title>dependencies</title>
<polygon fill="white" stroke="transparent" points="-4,4 -4,-169.8 701,-169.8 701,4 -4,4"/>
<text text-anchor="middle" x="348.5" y="-8.2" font-family="sans-serif" font-size="14.00">dependencies</text>
<g id="clust1" class="cluster">
<title>cluster_IndexConfigurationSettingsModule</title>
<polygon fill="none" stroke="black" stroke-dasharray="1,5" points="8,-32.8 8,-157.8 689,-157.8 689,-32.8 8,-32.8"/>
</g>
<g id="clust4" class="cluster">
<title>cluster_IndexConfigurationSettingsModule_imports</title>
<polygon fill="none" stroke="black" points="276,-40.8 276,-92.8 681,-92.8 681,-40.8 276,-40.8"/>
</g>
<g id="clust2" class="cluster">
<title>cluster_IndexConfigurationSettingsModule_declarations</title>
<polygon fill="none" stroke="black" points="16,-40.8 16,-92.8 268,-92.8 268,-40.8 16,-40.8"/>
</g>
<!-- IndexConfigurationSettingsComponent -->
<g id="node1" class="node">
<title>IndexConfigurationSettingsComponent</title>
<polygon fill="#ffffb3" stroke="black" points="260.37,-84.8 23.63,-84.8 23.63,-48.8 260.37,-48.8 260.37,-84.8"/>
<text text-anchor="middle" x="142" y="-62.6" font-family="Times,serif" font-size="14.00">IndexConfigurationSettingsComponent</text>
</g>
<!-- IndexConfigurationSettingsModule -->
<g id="node2" class="node">
<title>IndexConfigurationSettingsModule</title>
<polygon fill="#8dd3c7" stroke="black" points="446.59,-149.8 443.59,-153.8 422.59,-153.8 419.59,-149.8 231.41,-149.8 231.41,-113.8 446.59,-113.8 446.59,-149.8"/>
<text text-anchor="middle" x="339" y="-127.6" font-family="Times,serif" font-size="14.00">IndexConfigurationSettingsModule</text>
</g>
<!-- IndexConfigurationSettingsComponent&#45;&gt;IndexConfigurationSettingsModule -->
<g id="edge1" class="edge">
<title>IndexConfigurationSettingsComponent&#45;&gt;IndexConfigurationSettingsModule</title>
<path fill="none" stroke="black" d="M245.94,-84.91C245.94,-84.91 245.94,-103.79 245.94,-103.79"/>
<polygon fill="black" stroke="black" points="242.44,-103.79 245.94,-113.79 249.44,-103.79 242.44,-103.79"/>
</g>
<!-- IndexConfigurationSettingsRoutingModule -->
<g id="node3" class="node">
<title>IndexConfigurationSettingsRoutingModule</title>
<polygon fill="#8dd3c7" stroke="black" points="673.21,-84.8 670.21,-88.8 649.21,-88.8 646.21,-84.8 412.79,-84.8 412.79,-48.8 673.21,-48.8 673.21,-84.8"/>
<text text-anchor="middle" x="543" y="-62.6" font-family="Times,serif" font-size="14.00">IndexConfigurationSettingsRoutingModule</text>
</g>
<!-- IndexConfigurationSettingsRoutingModule&#45;&gt;IndexConfigurationSettingsModule -->
<g id="edge2" class="edge">
<title>IndexConfigurationSettingsRoutingModule&#45;&gt;IndexConfigurationSettingsModule</title>
<path fill="none" stroke="black" d="M429.72,-84.91C429.72,-84.91 429.72,-103.79 429.72,-103.79"/>
<polygon fill="black" stroke="black" points="426.22,-103.79 429.72,-113.79 433.22,-103.79 426.22,-103.79"/>
</g>
<!-- KrModalModule -->
<g id="node4" class="node">
<title>KrModalModule</title>
<polygon fill="#8dd3c7" stroke="black" points="394.38,-84.8 391.38,-88.8 370.38,-88.8 367.38,-84.8 283.62,-84.8 283.62,-48.8 394.38,-48.8 394.38,-84.8"/>
<text text-anchor="middle" x="339" y="-62.6" font-family="Times,serif" font-size="14.00">KrModalModule</text>
</g>
<!-- KrModalModule&#45;&gt;IndexConfigurationSettingsModule -->
<g id="edge3" class="edge">
<title>KrModalModule&#45;&gt;IndexConfigurationSettingsModule</title>
<path fill="none" stroke="black" d="M339,-84.91C339,-84.91 339,-103.79 339,-103.79"/>
<polygon fill="black" stroke="black" points="335.5,-103.79 339,-113.79 342.5,-103.79 335.5,-103.79"/>
</g>
</g>
</svg>
