<?xml version="1.0" encoding="UTF-8" standalone="no"?>
<!DOCTYPE svg PUBLIC "-//W3C//DTD SVG 1.1//EN"
 "http://www.w3.org/Graphics/SVG/1.1/DTD/svg11.dtd">
<!-- Generated by graphviz version 5.0.0 (20220707.1540)
 -->
<!-- Title: dependencies Pages: 1 -->
<svg width="705pt" height="174pt"
 viewBox="0.00 0.00 705.00 173.80" xmlns="http://www.w3.org/2000/svg" xmlns:xlink="http://www.w3.org/1999/xlink">
<g id="graph0" class="graph" transform="scale(1 1) rotate(0) translate(4 169.8)">
<title>dependencies</title>
<polygon fill="white" stroke="transparent" points="-4,4 -4,-169.8 701,-169.8 701,4 -4,4"/>
<text text-anchor="middle" x="348.5" y="-8.2" font-family="sans-serif" font-size="14.00">dependencies</text>
<g id="clust1" class="cluster">
<title>cluster_IndexConfigurationSettingsModule</title>
<polygon fill="none" stroke="black" stroke-dasharray="1,5" points="8,-32.8 8,-157.8 689,-157.8 689,-32.8 8,-32.8"/>
</g>
<g id="clust2" class="cluster">
<title>cluster_IndexConfigurationSettingsModule_declarations</title>
<polygon fill="none" stroke="black" points="429,-40.8 429,-92.8 681,-92.8 681,-40.8 429,-40.8"/>
</g>
<g id="clust4" class="cluster">
<title>cluster_IndexConfigurationSettingsModule_imports</title>
<polygon fill="none" stroke="black" points="16,-40.8 16,-92.8 421,-92.8 421,-40.8 16,-40.8"/>
</g>
<!-- IndexConfigurationSettingsComponent -->
<g id="node1" class="node">
<title>IndexConfigurationSettingsComponent</title>
<polygon fill="#ffffb3" stroke="black" points="673.37,-84.8 436.63,-84.8 436.63,-48.8 673.37,-48.8 673.37,-84.8"/>
<text text-anchor="middle" x="555" y="-62.6" font-family="Times,serif" font-size="14.00">IndexConfigurationSettingsComponent</text>
</g>
<!-- IndexConfigurationSettingsModule -->
<g id="node2" class="node">
<title>IndexConfigurationSettingsModule</title>
<polygon fill="#8dd3c7" stroke="black" points="390.59,-149.8 387.59,-153.8 366.59,-153.8 363.59,-149.8 175.41,-149.8 175.41,-113.8 390.59,-113.8 390.59,-149.8"/>
<text text-anchor="middle" x="283" y="-127.6" font-family="Times,serif" font-size="14.00">IndexConfigurationSettingsModule</text>
</g>
<!-- IndexConfigurationSettingsComponent&#45;&gt;IndexConfigurationSettingsModule -->
<g id="edge1" class="edge">
<title>IndexConfigurationSettingsComponent&#45;&gt;IndexConfigurationSettingsModule</title>
<path fill="none" stroke="black" d="M555,-84.91C555,-104.14 555,-131.8 555,-131.8 555,-131.8 400.89,-131.8 400.89,-131.8"/>
<polygon fill="black" stroke="black" points="400.89,-128.3 390.89,-131.8 400.89,-135.3 400.89,-128.3"/>
</g>
<!-- IndexConfigurationSettingsRoutingModule -->
<g id="node3" class="node">
<title>IndexConfigurationSettingsRoutingModule</title>
<polygon fill="#8dd3c7" stroke="black" points="413.21,-84.8 410.21,-88.8 389.21,-88.8 386.21,-84.8 152.79,-84.8 152.79,-48.8 413.21,-48.8 413.21,-84.8"/>
<text text-anchor="middle" x="283" y="-62.6" font-family="Times,serif" font-size="14.00">IndexConfigurationSettingsRoutingModule</text>
</g>
<!-- IndexConfigurationSettingsRoutingModule&#45;&gt;IndexConfigurationSettingsModule -->
<g id="edge2" class="edge">
<title>IndexConfigurationSettingsRoutingModule&#45;&gt;IndexConfigurationSettingsModule</title>
<path fill="none" stroke="black" d="M283,-84.91C283,-84.91 283,-103.79 283,-103.79"/>
<polygon fill="black" stroke="black" points="279.5,-103.79 283,-113.79 286.5,-103.79 279.5,-103.79"/>
</g>
<!-- KrModalModule -->
<g id="node4" class="node">
<title>KrModalModule</title>
<polygon fill="#8dd3c7" stroke="black" points="134.38,-84.8 131.38,-88.8 110.38,-88.8 107.38,-84.8 23.62,-84.8 23.62,-48.8 134.38,-48.8 134.38,-84.8"/>
<text text-anchor="middle" x="79" y="-62.6" font-family="Times,serif" font-size="14.00">KrModalModule</text>
</g>
<!-- KrModalModule&#45;&gt;IndexConfigurationSettingsModule -->
<g id="edge3" class="edge">
<title>KrModalModule&#45;&gt;IndexConfigurationSettingsModule</title>
<path fill="none" stroke="black" d="M79,-84.91C79,-104.14 79,-131.8 79,-131.8 79,-131.8 165.32,-131.8 165.32,-131.8"/>
<polygon fill="black" stroke="black" points="165.32,-135.3 175.32,-131.8 165.32,-128.3 165.32,-135.3"/>
</g>
</g>
</svg>
