<?xml version="1.0" encoding="UTF-8"?>
<svg width="15px" height="14px" viewBox="0 0 15 14" version="1.1" xmlns="http://www.w3.org/2000/svg" xmlns:xlink="http://www.w3.org/1999/xlink">
    <!-- Generator: Sketch 53.2 (72643) - https://sketchapp.com -->
    <title>actions</title>
    <desc>Created with Sketch.</desc>
    <g id="Page-1" stroke="none" stroke-width="1" fill="none" fill-rule="evenodd">
        <g id="actions" fill="#3C4043" fill-rule="nonzero">
            <path d="M12.1194,8.02069 L11.8927,8.25469 L11.9381,8.57736 L12.1754,10.4094 L10.3781,10.7247 L10.0567,10.7807 L9.90407,11.0687 L9.0194,12.6907 L7.3794,11.8894 L7.0874,11.746 L6.79473,11.8894 L5.1254,12.6814 L4.27007,11.0694 L4.1174,10.7814 L3.79673,10.7254 L1.98073,10.3847 L2.23607,8.57736 L2.2814,8.25469 L2.05473,8.02069 L0.7854,6.67803 L2.05473,5.36603 L2.2814,5.13203 L2.23607,4.80936 L1.99873,2.97736 L3.79673,2.66203 L4.1174,2.60603 L4.27007,2.31803 L5.15473,0.696026 L6.79473,1.49736 L7.0874,1.64003 L7.38007,1.49669 L9.02007,0.695359 C9.0234,0.694026 9.02607,0.693359 9.0294,0.693359 L9.0494,0.705359 L9.90473,2.31736 L10.0574,2.60536 L10.3787,2.66136 L12.1947,3.00203 L11.9394,4.80936 L11.8941,5.13203 L12.1207,5.36603 L13.3901,6.70869 L12.1194,8.02069 Z" id="Path" opacity="0.3"></path>
            <path d="M9.01881,13.3581 C8.92081,13.3581 8.82081,13.3361 8.72681,13.2901 L7.08748,12.4881 L7.08681,12.4881 L5.41081,13.2828 C5.08681,13.4355 4.70281,13.3081 4.53615,12.9928 L3.68148,11.3808 L1.85748,11.0401 C1.50748,10.9741 1.27015,10.6448 1.32015,10.2915 L1.57548,8.48413 L0.301478,7.13613 C0.0568116,6.87679 0.0588117,6.47079 0.306812,6.21479 L1.57548,4.90346 L1.33748,3.06346 C1.29215,2.71013 1.53281,2.38279 1.88348,2.32146 L3.68148,2.00546 L4.56948,0.376792 C4.74014,0.0641254 5.12681,-0.0598746 5.44815,0.096792 L7.08748,0.898792 L8.72681,0.096792 C8.92548,-0.00120796 9.18081,0.00745872 9.37148,0.120792 C9.47615,0.183459 9.58148,0.285459 9.63881,0.393459 L10.4935,2.00546 L12.3168,2.34679 C12.6668,2.41279 12.9041,2.74213 12.8541,3.09546 L12.5988,4.90346 L13.8728,6.25146 C14.1175,6.51079 14.1155,6.91679 13.8675,7.17279 L12.5988,8.48479 L12.8368,10.3241 C12.8821,10.6775 12.6415,11.0048 12.2908,11.0661 L10.4928,11.3821 L9.60481,13.0108 C9.48481,13.2315 9.25615,13.3581 9.01881,13.3581 Z M7.08748,11.0801 C7.18748,11.0801 7.28748,11.1028 7.37948,11.1475 L8.73948,11.8128 L9.46881,10.4688 C9.56548,10.2875 9.73948,10.1608 9.94215,10.1248 L11.4328,9.86279 L11.2328,8.34813 C11.2041,8.14479 11.2708,7.93946 11.4135,7.79213 L11.6401,7.55746 L12.4655,6.70413 L11.4135,5.59546 C11.2701,5.44813 11.2041,5.24279 11.2328,5.03946 L11.4441,3.54013 L9.94148,3.26213 C9.73881,3.22679 9.56481,3.10013 9.46815,2.91813 L8.75148,1.56746 L7.37881,2.23946 C7.19415,2.32946 6.97881,2.32946 6.79415,2.23946 L5.43415,1.57413 L4.70615,2.91813 C4.60948,3.10013 4.43481,3.22679 4.23281,3.26213 L2.74148,3.52413 L2.94215,5.03813 C2.97148,5.24213 2.90415,5.44812 2.76081,5.59679 L1.70881,6.68413 L2.76081,7.79146 C2.90481,7.94013 2.97148,8.14612 2.94215,8.35013 L2.73015,9.84679 L4.23281,10.1248 C4.43548,10.1601 4.60948,10.2868 4.70615,10.4688 L5.41548,11.8061 L6.79481,11.1475 C6.88748,11.1021 6.98748,11.0801 7.08748,11.0801 Z" id="Shape"></path>
            <polygon id="Path" points="6.42071 9.63625 4.28271 7.49825 5.22538 6.55558 6.42071 7.75092 9.28271 4.88892 10.2254 5.83158"></polygon>
        </g>
    </g>
</svg>