<?xml version="1.0" encoding="UTF-8"?>
<svg width="12px" height="16px" viewBox="0 0 12 16" version="1.1" xmlns="http://www.w3.org/2000/svg" xmlns:xlink="http://www.w3.org/1999/xlink">
    <!-- Generator: Sketch 53.2 (72643) - https://sketchapp.com -->
    <title>attributes-active</title>
    <desc>Created with Sketch.</desc>
    <g id="Page-1" stroke="none" stroke-width="1" fill="none" fill-rule="evenodd">
        <g id="attributes-active" fill-rule="nonzero">
            <path d="M10.0007,8.95811 L7.08474,8.40345 L7.08474,5.26611 C7.08474,4.71411 6.63674,4.26611 6.08474,4.26611 C5.53274,4.26611 5.08474,4.71411 5.08474,5.26611 L5.08474,11.0641 L3.03274,10.1068 C2.66274,9.93411 2.2234,10.0168 1.9414,10.3121 L1.35474,10.9268 L4.97007,14.5421 C5.22007,14.7921 5.5594,14.9328 5.9134,14.9328 L9.7514,14.9328 C10.4881,14.9328 11.0847,14.3361 11.0847,13.5994 L11.0847,10.2681 C11.0847,9.62745 10.6294,9.07745 10.0007,8.95811 Z" id="Path" fill="#0D6DFC" opacity="0.3"></path>
            <path d="M9.75152,15.5991 L5.91352,15.5991 C5.37952,15.5991 4.87685,15.3911 4.49885,15.0131 L0.422852,10.9371 L1.45952,9.85179 C1.93952,9.34912 2.68352,9.20845 3.31485,9.50312 L4.41818,10.0171 L4.41818,5.26579 C4.41818,4.34712 5.16618,3.59912 6.08485,3.59912 C7.00352,3.59912 7.75152,4.34712 7.75152,5.26579 L7.75152,7.85112 L10.1249,8.30245 C11.0675,8.48179 11.7515,9.30779 11.7515,10.2671 L11.7515,13.5991 C11.7515,14.7018 10.8542,15.5991 9.75152,15.5991 Z M2.28685,10.9158 L5.44152,14.0705 C5.56752,14.1965 5.73552,14.2658 5.91352,14.2658 L9.75152,14.2658 C10.1189,14.2658 10.4182,13.9665 10.4182,13.5991 L10.4182,10.2671 C10.4182,9.94779 10.1902,9.67179 9.87619,9.61245 L6.41819,8.95512 L6.41819,5.26579 C6.41819,5.08179 6.26885,4.93245 6.08485,4.93245 C5.90085,4.93245 5.75152,5.08179 5.75152,5.26579 L5.75152,12.1105 L2.75152,10.7111 C2.64085,10.6598 2.50952,10.6838 2.42418,10.7725 L2.28685,10.9158 Z" id="Shape" fill="#0D6DFC"></path>
            <path d="M7.30821,8.04395 L6.86155,6.78728 C7.79288,6.45662 8.41821,5.57728 8.41821,4.59928 C8.41821,3.31262 7.37155,2.26595 6.08488,2.26595 C4.79821,2.26595 3.75155,3.31262 3.75155,4.59928 C3.75155,5.57728 4.37688,6.45662 5.30821,6.78728 L4.86155,8.04395 C3.40021,7.52395 2.41821,6.13995 2.41821,4.59928 C2.41821,2.57728 4.06288,0.932617 6.08488,0.932617 C8.10688,0.932617 9.75155,2.57728 9.75155,4.59928 C9.75155,6.13995 8.76955,7.52395 7.30821,8.04395 Z" id="Path" fill="#0D6EFD"></path>
        </g>
    </g>
</svg>