<svg width="14" height="14" viewBox="0 0 14 14" fill="none" xmlns="http://www.w3.org/2000/svg">
<path d="M1.61538 0C0.727764 0 0 0.727764 0 1.61538V12.3846C0 13.2722 0.727764 14 1.61538 14H12.3846C13.2722 14 14 13.2722 14 12.3846V1.61538C14 0.727764 13.2722 0 12.3846 0H1.61538ZM1.61538 1.07692H4.30769V4.30769H1.07692V1.61538C1.07692 1.3125 1.3125 1.07692 1.61538 1.07692ZM5.38462 1.07692H8.61539V4.30769H5.38462V1.07692ZM9.69231 1.07692H12.3846C12.6875 1.07692 12.9231 1.3125 12.9231 1.61538V4.30769H9.69231V1.07692ZM1.07692 5.38462H4.30769V8.61539H1.07692V5.38462ZM5.38462 5.38462H8.61539V8.61539H5.38462V5.38462ZM9.69231 5.38462H12.9231V8.61539H9.69231V5.38462ZM1.07692 9.69231H4.30769V12.9231H1.61538C1.3125 12.9231 1.07692 12.6875 1.07692 12.3846V9.69231ZM5.38462 9.69231H8.61539V12.9231H5.38462V9.69231ZM9.69231 9.69231H12.9231V12.3846C12.9231 12.6875 12.6875 12.9231 12.3846 12.9231H9.69231V9.69231Z" fill="black"/>
</svg>
