<?xml version="1.0" encoding="UTF-8"?>
<svg width="12px" height="14px" viewBox="0 0 12 14" version="1.1" xmlns="http://www.w3.org/2000/svg" xmlns:xlink="http://www.w3.org/1999/xlink">
    <!-- Generator: Sketch 53.2 (72643) - https://sketchapp.com -->
    <title>demo</title>
    <desc>Created with Sketch.</desc>
    <g id="Page-1" stroke="none" stroke-width="1" fill="none" fill-rule="evenodd">
        <g id="demo" fill="#3C4043" fill-rule="nonzero">
            <path d="M10.7537,12.6668 C10.7537,13.0668 10.4871,13.3335 10.0871,13.3335 L2.08708,13.3335 C1.68708,13.3335 1.42041,13.0668 1.42041,12.6668 L1.42041,2.00016 C1.42041,1.60016 1.68708,1.3335 2.08708,1.3335 L7.15374,1.3335 L10.7537,4.9335 L10.7537,12.6668 Z" id="Path" opacity="0.3"></path>
            <path d="M3.42041,7.3335 L8.75374,7.3335 L8.75374,8.66683 L3.42041,8.66683 L3.42041,7.3335 Z M3.42041,10.0002 L8.75374,10.0002 L8.75374,11.3335 L3.42041,11.3335 L3.42041,10.0002 Z" id="Shape"></path>
            <path d="M10.087,14.0003 L2.087,14.0003 C1.35366,14.0003 0.753662,13.4003 0.753662,12.667 L0.753662,2.00033 C0.753662,1.26699 1.35366,0.666992 2.087,0.666992 L7.42033,0.666992 L11.4203,4.66699 L11.4203,12.667 C11.4203,13.4003 10.8203,14.0003 10.087,14.0003 Z M2.087,2.00033 L2.087,12.667 L10.087,12.667 L10.087,5.20033 L6.88699,2.00033 L2.087,2.00033 Z" id="Shape"></path>
            <polygon id="Path" points="10.4203 5.33366 6.75366 5.33366 6.75366 1.66699"></polygon>
        </g>
    </g>
</svg>