<svg width="16" height="16" viewBox="0 0 16 16" fill="none" xmlns="http://www.w3.org/2000/svg">
<path d="M7.99997 1C7.91608 0.999715 7.83347 1.02054 7.75974 1.06055L2.25974 4.06055C2.18065 4.10349 2.11461 4.16699 2.0686 4.24433C2.02258 4.32168 1.99829 4.41 1.99829 4.5C1.99829 4.59 2.02258 4.67833 2.0686 4.75568C2.11461 4.83302 2.18065 4.89651 2.25974 4.93946L4.2031 6L2.25974 7.06055C2.18065 7.10349 2.11461 7.16699 2.0686 7.24433C2.02258 7.32168 1.99829 7.41001 1.99829 7.5C1.99829 7.59 2.02258 7.67833 2.0686 7.75568C2.11461 7.83302 2.18065 7.89651 2.25974 7.93946L4.2031 9L2.25974 10.0605C2.18065 10.1035 2.11461 10.167 2.0686 10.2443C2.02258 10.3217 1.99829 10.41 1.99829 10.5C1.99829 10.59 2.02258 10.6783 2.0686 10.7557C2.11461 10.833 2.18065 10.8965 2.25974 10.9395L7.75974 13.9395C7.83338 13.9798 7.916 14.0009 7.99997 14.0009C8.08394 14.0009 8.16656 13.9798 8.24021 13.9395L13.7402 10.9395C13.8193 10.8965 13.8853 10.833 13.9314 10.7557C13.9774 10.6783 14.0017 10.59 14.0017 10.5C14.0017 10.41 13.9774 10.3217 13.9314 10.2443C13.8853 10.167 13.8193 10.1035 13.7402 10.0605L11.7968 9L13.7402 7.93946C13.8193 7.89651 13.8853 7.83302 13.9314 7.75568C13.9774 7.67833 14.0017 7.59 14.0017 7.5C14.0017 7.41001 13.9774 7.32168 13.9314 7.24433C13.8853 7.16699 13.8193 7.10349 13.7402 7.06055L11.7968 6L13.7402 4.93946C13.8193 4.89651 13.8853 4.83302 13.9314 4.75568C13.9774 4.67833 14.0017 4.59 14.0017 4.5C14.0017 4.41 13.9774 4.32168 13.9314 4.24433C13.8853 4.16699 13.8193 4.10349 13.7402 4.06055L8.24021 1.06055C8.16648 1.02054 8.08386 0.999715 7.99997 1ZM7.99997 2.07032L12.4551 4.5L10.5097 5.56055L7.99997 6.92969L3.5449 4.5L7.99997 2.07032ZM5.24997 6.57032L7.75974 7.93946C7.83338 7.9798 7.916 8.00094 7.99997 8.00094C8.08394 8.00094 8.16656 7.9798 8.24021 7.93946L10.75 6.57032L12.4551 7.5L10.5117 8.56055L7.99997 9.92969L5.48435 8.5586L3.5449 7.5L5.24997 6.57032ZM5.24997 9.57032L7.75974 10.9395C7.83338 10.9798 7.916 11.0009 7.99997 11.0009C8.08394 11.0009 8.16656 10.9798 8.24021 10.9395L10.75 9.57032L12.4551 10.5L7.99997 12.9297L3.5449 10.5L5.24997 9.57032Z" fill="black"/>
</svg>
