<?xml version="1.0" encoding="UTF-8"?>
<svg width="16px" height="14px" viewBox="0 0 16 14" version="1.1" xmlns="http://www.w3.org/2000/svg" xmlns:xlink="http://www.w3.org/1999/xlink">
    <!-- Generator: Sketch 53.2 (72643) - https://sketchapp.com -->
    <title>chat_settings-active</title>
    <desc>Created with Sketch.</desc>
    <g id="Page-1" stroke="none" stroke-width="1" fill="none" fill-rule="evenodd">
        <g id="chat_settings-active" fill="#0D6EFD" fill-rule="nonzero">
            <path d="M14.7581,11.1733 C14.7901,11.0086 14.8094,10.8399 14.8094,10.6666 C14.8094,10.4933 14.7901,10.3246 14.7581,10.1599 L15.2954,9.76059 C15.3641,9.70925 15.3841,9.61459 15.3407,9.54059 L14.7167,8.45992 C14.6741,8.38525 14.5821,8.35525 14.5034,8.38925 L13.8794,8.65925 C13.6267,8.44059 13.3347,8.26992 13.0121,8.15792 L12.9341,7.48325 C12.9247,7.39725 12.8527,7.33325 12.7667,7.33325 L11.5187,7.33325 C11.4327,7.33325 11.3607,7.39725 11.3507,7.48259 L11.2727,8.15725 C10.9501,8.26925 10.6587,8.43925 10.4054,8.65859 L9.78141,8.38859 C9.70274,8.35459 9.61074,8.38459 9.56807,8.45925 L8.94407,9.53992 C8.90141,9.61458 8.92074,9.70925 8.98941,9.75992 L9.52674,10.1593 C9.49541,10.3246 9.47607,10.4933 9.47607,10.6666 C9.47607,10.8399 9.49541,11.0086 9.52741,11.1733 L8.99007,11.5726 C8.92141,11.6239 8.90141,11.7186 8.94474,11.7926 L9.56874,12.8733 C9.61141,12.9479 9.70341,12.9779 9.78207,12.9439 L10.4061,12.6739 C10.6587,12.8926 10.9507,13.0633 11.2734,13.1753 L11.3514,13.8499 C11.3607,13.9359 11.4327,13.9999 11.5187,13.9999 L12.7667,13.9999 C12.8527,13.9999 12.9247,13.9359 12.9347,13.8506 L13.0127,13.1759 C13.3354,13.0639 13.6267,12.8939 13.8801,12.6746 L14.5041,12.9446 C14.5827,12.9786 14.6747,12.9479 14.7174,12.8739 L15.3414,11.7933 C15.3841,11.7186 15.3647,11.6239 15.2961,11.5733 L14.7581,11.1733 Z M12.1427,11.8333 C11.4987,11.8333 10.9761,11.3106 10.9761,10.6666 C10.9761,10.0219 11.4987,9.49992 12.1427,9.49992 C12.7867,9.49992 13.3094,10.0219 13.3094,10.6666 C13.3094,11.3106 12.7867,11.8333 12.1427,11.8333 Z M6.80941,9.99992 L3.47607,9.99992 L3.47607,13.3333 L6.80941,9.99992 Z" id="Shape"></path>
            <path d="M3.47606,9.33333 L2.14339,9.33333 L2.14273,1.33333 L12.8094,1.33333 L12.8094,6.05333 C13.2807,6.12067 13.7281,6.258 14.1427,6.45533 L14.1427,1.33333 C14.1427,0.6 13.5427,0 12.8094,0 L2.14273,0 C1.40939,0 0.816059,0.6 0.816059,1.33333 L0.810059,9.33267 C0.810059,10.0693 1.40673,10.6667 2.14339,10.6667 L3.47606,10.6667 L7.47606,10.6667 C7.47606,10.2033 7.54606,9.756 7.67206,9.33333 L3.47606,9.33333 Z" id="Path"></path>
            <path d="M12.1427,6.00008 C12.6061,6.00008 13.0534,6.07008 13.4761,6.19608 L13.4761,0.666748 L1.47607,0.666748 L1.47607,10.0001 L7.52941,10.0001 C7.85341,7.73941 9.79207,6.00008 12.1427,6.00008 Z" id="Path" opacity="0.3"></path>
        </g>
    </g>
</svg>