<svg width="16" height="16" viewBox="0 0 16 16" fill="none" xmlns="http://www.w3.org/2000/svg">
<path d="M2.5 1C1.67578 1 1 1.67578 1 2.5V10.5C1 11.3242 1.67578 12 2.5 12H4V12.5C4 13.3242 4.67578 14 5.5 14H13.5C14.3242 14 15 13.3242 15 12.5V4.5C15 3.67578 14.3242 3 13.5 3H12V2.5C12 1.67578 11.3242 1 10.5 1H2.5ZM2.5 2H10.5C10.7812 2 11 2.21875 11 2.5V10.5C11 10.7812 10.7812 11 10.5 11H2.5C2.21875 11 2 10.7812 2 10.5V2.5C2 2.21875 2.21875 2 2.5 2ZM6.55859 3.00391C5.34766 3.07031 4.35938 4.08594 4.35938 5.32031H5.35938C5.35938 4.50781 6.0625 3.875 6.91797 4.02344C7.53516 4.12891 8.01953 4.73047 8 5.35938C7.98438 5.91797 7.66016 6.26953 7.18359 6.47656H7.17969C6.88672 6.60938 6.60547 6.73438 6.36719 6.98438C6.12891 7.23438 6 7.60547 6 8H7C7 7.77734 7.02734 7.74219 7.08984 7.67578C7.15234 7.60938 7.3125 7.51562 7.58594 7.39453C8.33203 7.06641 8.96875 6.35547 9 5.39062C9.03125 4.25391 8.21875 3.23047 7.08984 3.03516C6.91016 3.00391 6.73047 2.99609 6.55859 3.00391ZM12 4H13.5C13.7812 4 14 4.21875 14 4.5V12.5C14 12.7812 13.7812 13 13.5 13H5.5C5.21875 13 5 12.7812 5 12.5V12H10.5C11.3242 12 12 11.3242 12 10.5V4ZM6 9V10H7V9H6Z" fill="black"/>
</svg>
