<svg width="16" height="16" viewBox="0 0 16 16" fill="none" xmlns="http://www.w3.org/2000/svg">
<path d="M3.5 1C2.67578 1 2 1.67578 2 2.5V12.5C2 13.3242 2.67578 14 3.5 14H13.5C14.3242 14 15 13.3242 15 12.5V2.5C15 1.67578 14.3242 1 13.5 1H3.5ZM3.5 2H6V5H3V2.5C3 2.21875 3.21875 2 3.5 2ZM7 2H10V5H7V2ZM11 2H13.5C13.7812 2 14 2.21875 14 2.5V5H11V2ZM3 6H6V9H3V6ZM7 6H10V9H7V6ZM11 6H14V9H11V6ZM3 10H6V13H3.5C3.21875 13 3 12.7812 3 12.5V10ZM7 10H10V13H7V10ZM11 10H14V12.5C14 12.7812 13.7812 13 13.5 13H11V10Z" fill="#202124"/>
</svg>
