<?xml version="1.0" encoding="UTF-8"?>
<svg width="16px" height="16px" viewBox="0 0 16 16" version="1.1" xmlns="http://www.w3.org/2000/svg" xmlns:xlink="http://www.w3.org/1999/xlink">
    <!-- Generator: Sketch 53.2 (72643) - https://sketchapp.com -->
    <title>general-settings</title>
    <desc>Created with Sketch.</desc>
    <g id="Page-1" stroke="none" stroke-width="1" fill="none" fill-rule="evenodd">
        <g id="general-settings" fill="#3C4043" fill-rule="nonzero">
            <path d="M14.0296,8.6665 L8.02962,8.6665 C7.29296,8.6665 6.69629,9.26317 6.69629,9.99984 L6.69629,15.3332 L15.363,15.3332 L15.363,9.99984 C15.363,9.26317 14.7663,8.6665 14.0296,8.6665 Z M10.9723,13.3332 L8.69629,13.3332 L8.69629,11.9998 L10.4203,11.9998 L12.4203,9.99984 L13.363,10.9425 L10.9723,13.3332 Z M7.36296,4.6665 C5.89229,4.6665 4.69629,5.8625 4.69629,7.33317 C4.69629,8.07384 5.00096,8.74384 5.48962,9.22784 C5.63029,8.76517 5.88762,8.3565 6.23562,8.0385 C6.10696,7.83317 6.02962,7.5925 6.02962,7.33317 C6.02962,6.59784 6.62762,5.99984 7.36296,5.99984 C8.09829,5.99984 8.69629,6.59784 8.69629,7.33317 L10.0296,7.33317 C10.0296,5.8625 8.83362,4.6665 7.36296,4.6665 Z" id="Shape"></path>
            <path d="M5.36286,12.2632 L5.36286,10.7945 C5.17352,10.6865 4.99486,10.5645 4.82952,10.4285 L4.25352,9.95384 L2.97219,10.3952 L2.51552,9.6045 L3.53952,8.71384 L3.42086,7.98117 C3.38152,7.73717 3.36286,7.52584 3.36286,7.33317 C3.36286,7.1405 3.38152,6.92917 3.42152,6.6845 L3.54019,5.95184 L2.51552,5.06184 L2.97219,4.27117 L4.25352,4.7125 L4.82886,4.23917 C5.15752,3.96917 5.53552,3.7525 5.95152,3.59517 L6.64686,3.33184 L6.90619,1.99984 L7.81886,1.99984 L8.07886,3.3325 L8.77419,3.59584 C9.19019,3.7525 9.56752,3.96984 9.89619,4.2385 L10.4722,4.71317 L11.7535,4.27184 L12.2102,5.0625 L11.1862,5.95317 L11.3049,6.68584 C11.3442,6.92917 11.3629,7.1405 11.3629,7.33317 L12.6962,7.33317 C12.6962,7.06917 12.6715,6.78717 12.6209,6.4725 L13.9142,5.34717 L12.3575,2.65317 L10.7429,3.2085 L10.7429,3.20784 C10.3009,2.84584 9.79752,2.55584 9.24552,2.34784 L8.91819,0.666504 L5.80752,0.666504 L5.48019,2.34784 C4.92819,2.5565 4.42486,2.8465 3.98286,3.2085 L2.36819,2.6525 L0.811523,5.34717 L2.10486,6.4725 L2.10486,6.47317 C2.05419,6.78717 2.02952,7.06917 2.02952,7.33317 C2.02952,7.59717 2.05419,7.87917 2.10486,8.19384 L0.811523,9.31917 L2.36819,12.0132 L3.98286,11.4572 L3.98286,11.4578 C4.39219,11.7932 4.85819,12.0592 5.36286,12.2632 Z" id="Path"></path>
            <g id="Group" opacity="0.3" transform="translate(1.000000, 1.000000)">
                <path d="M4.36291,8.99967 C4.36291,8.46701 4.52291,7.97301 4.79224,7.55634 C4.52757,7.21701 4.36291,6.79567 4.36291,6.33301 C4.36291,5.23034 5.26024,4.33301 6.36291,4.33301 C7.46557,4.33301 8.36291,5.23034 8.36291,6.33301 L11.0296,6.33301 C11.0296,6.10301 11.0076,5.85634 10.9622,5.57834 L10.9029,5.21234 L12.0616,4.20434 L11.0549,2.46167 L9.6069,2.96034 L9.3189,2.72434 C8.93424,2.40834 8.49357,2.15501 8.00891,1.97234 L7.66157,1.84101 L7.36891,0.33301 L5.35691,0.33301 L5.06357,1.84034 L4.71557,1.97167 C4.23157,2.15434 3.79091,2.40767 3.40557,2.72367 L3.11824,2.96034 L1.67024,2.46167 L0.66357,4.20434 L1.82224,5.21234 L1.76291,5.57834 C1.71824,5.85634 1.69624,6.10301 1.69624,6.33301 C1.69624,6.56301 1.71824,6.80967 1.76357,7.08767 L1.82291,7.45367 L0.66424,8.46167 L1.67091,10.2043 L3.11891,9.7057 L3.40691,9.9417 C3.69357,10.177 4.02024,10.365 4.36424,10.5277 L4.36424,8.99967 L4.36291,8.99967 Z" id="Path"></path>
            </g>
        </g>
    </g>
</svg>