<?xml version="1.0" encoding="UTF-8"?>
<svg width="14px" height="15px" viewBox="0 0 14 15" version="1.1" xmlns="http://www.w3.org/2000/svg" xmlns:xlink="http://www.w3.org/1999/xlink">
    <!-- Generator: Sketch 53.2 (72643) - https://sketchapp.com -->
    <title>index-active</title>
    <desc>Created with Sketch.</desc>
    <g id="Page-1" stroke="none" stroke-width="1" fill="none" fill-rule="evenodd">
        <g id="index-active" fill="#3C4043" fill-rule="nonzero">
            <path d="M13.0872,6.26644 C13.0872,3.33311 10.4205,0.933105 7.08716,0.933105 C3.75382,0.933105 1.08716,3.33311 1.08716,6.26644 C1.08716,9.19977 3.75382,11.5998 7.08716,11.5998 C7.55382,11.5998 8.02049,11.5331 8.42049,11.4664 L8.42049,13.1331 C9.75383,12.2664 12.7538,9.93311 13.0205,6.86644 C13.0872,6.66644 13.0872,6.46644 13.0872,6.26644 Z" id="Path" opacity="0.3"></path>
            <path d="M7.75374,14.333 L7.75374,12.2664 C3.82041,12.6664 0.42041,9.79969 0.42041,6.26636 C0.42041,2.93302 3.42041,0.266357 7.08708,0.266357 C10.7537,0.266357 13.7537,2.93302 13.7537,6.26636 C13.7537,6.46636 13.7537,6.66636 13.6871,6.93302 C13.2871,10.5997 9.48708,13.1997 8.75374,13.6664 L7.75374,14.333 Z M9.08708,10.6664 L9.08708,11.7997 C10.3537,10.7997 12.1537,8.99969 12.4204,6.73302 C12.4204,6.59969 12.4204,6.39969 12.4204,6.26636 C12.4204,3.66636 10.0204,1.59969 7.08708,1.59969 C4.15374,1.59969 1.75374,3.66636 1.75374,6.26636 C1.75374,9.19969 4.82041,11.533 8.28708,10.7997 L9.08708,10.6664 Z" id="Shape"></path>
            <path d="M5.087,6.93294 L3.75366,6.93294 L3.75366,5.59961 L5.087,5.59961 L5.087,6.93294 Z M7.75366,6.93294 L6.42033,6.93294 L6.42033,5.59961 L7.75366,5.59961 L7.75366,6.93294 Z M10.4203,6.93294 L9.087,6.93294 L9.087,5.59961 L10.4203,5.59961 L10.4203,6.93294 Z" id="Shape"></path>
        </g>
    </g>
</svg>