<svg width="16" height="16" viewBox="0 0 16 16" fill="none" xmlns="http://www.w3.org/2000/svg">
<path d="M3.5 1C2.67747 1 2 1.67747 2 2.5V12.5C2 13.3225 2.67747 14 3.5 14H8V13H3.5C3.21853 13 3 12.7815 3 12.5V10H5V9H3V6H5V5H3V2.5C3 2.21853 3.21853 2 3.5 2H12.5C12.7815 2 13 2.21853 13 2.5V5H6V6H13V8.125H14V2.5C14 1.67747 13.3225 1 12.5 1H3.5ZM6 9V10H8V9H6ZM12 9V10.0508H11.998C11.6807 10.1162 11.3867 10.2441 11.125 10.418L10.3535 9.64648L9.64648 10.3535L10.418 11.125C10.2441 11.3867 10.1162 11.6827 10.0508 12H9V13H10.0508V13.002C10.1162 13.3193 10.2441 13.6133 10.418 13.875L9.64648 14.6465L10.3535 15.3535L11.125 14.582C11.3867 14.7559 11.6827 14.8838 12 14.9492V16H13V14.9492H13.002C13.3087 14.886 13.5925 14.7627 13.8477 14.5977L14.6289 15.4609L15.3711 14.7891L14.5664 13.9023C14.7494 13.6343 14.8816 13.328 14.9492 13H16V12H14.9492V11.998C14.8842 11.6825 14.7583 11.3895 14.5859 11.1289L15.3496 10.377L14.6504 9.66406L13.8809 10.4199C13.6179 10.2443 13.3194 10.1166 13 10.0508V9H12ZM12.5 11C13.3343 11 14 11.6657 14 12.5C14 13.3343 13.3343 14 12.5 14C11.6657 14 11 13.3343 11 12.5C11 11.6657 11.6657 11 12.5 11Z" fill="black"/>
</svg>
