<?xml version="1.0" encoding="UTF-8"?>
<svg width="14px" height="12px" viewBox="0 0 14 12" version="1.1" xmlns="http://www.w3.org/2000/svg" xmlns:xlink="http://www.w3.org/1999/xlink">
    <!-- Generator: Sketch 53.2 (72643) - https://sketchapp.com -->
    <title>page-active</title>
    <desc>Created with Sketch.</desc>
    <g id="Page-1" stroke="none" stroke-width="1" fill="none" fill-rule="evenodd">
        <g id="page-active" fill="#0D6EFD" fill-rule="nonzero">
            <polygon id="Path" opacity="0.3" points="1.08643 5.33341 13.0864 0.666748 11.0864 11.3334 7.75309 9.33341 5.66976 10.3334 4.41976 7.33341"></polygon>
            <path d="M13.3865,0.251384 C13.0632,-0.0252823 12.5805,-0.0766158 12.0965,0.114718 C11.7965,0.232718 7.09588,2.21072 2.71388,4.05538 L1.26654,4.66472 C0.705875,4.89205 0.421875,5.26072 0.421875,5.75872 C0.421875,6.10738 0.569875,6.58138 1.27387,6.86005 L3.71854,7.83805 C3.92987,8.47205 4.42054,9.94405 4.54387,10.3354 C4.61721,10.5674 4.80254,11.1521 5.27054,11.2887 C5.36654,11.3214 5.46654,11.3381 5.56854,11.3381 C5.86387,11.3381 6.07654,11.2007 6.18054,11.1207 L7.73321,9.80738 L9.62054,11.5521 C9.69321,11.6261 10.0772,12.0001 10.5939,12.0001 C11.2385,12.0001 11.7279,11.4634 11.8299,10.9441 C11.8852,10.6594 13.7045,1.52472 13.7045,1.52605 C13.8679,0.793384 13.5752,0.413384 13.3865,0.251384 Z M10.5305,10.5774 L7.77254,8.02672 L5.75254,9.73672 C5.51321,8.99872 4.88521,7.12205 4.88521,7.12205 L4.78788,6.82938 L2.10721,5.75738 L3.23188,5.28472 C6.09788,4.07805 11.2025,1.92938 12.3599,1.44805 C12.1085,2.70805 10.7385,9.58605 10.5305,10.5774 Z" id="Shape"></path>
            <path d="M10.2865,3.33325 C10.2031,3.33325 10.0905,3.41259 10.0305,3.44992 C9.17179,3.98525 4.86646,6.43525 3.68579,7.10592 C4.01846,7.23925 4.25312,7.33325 4.25312,7.33325 C4.25312,7.33325 5.02046,9.62992 5.17979,10.1333 C5.33912,10.6373 5.46712,10.6493 5.46712,10.6493 C5.50246,10.6646 5.53712,10.6706 5.56912,10.6706 C5.59512,10.6706 5.61312,10.6613 5.63512,10.6553 L6.41979,7.58325 C6.41979,7.58325 9.99512,3.96458 10.2105,3.75392 C10.3838,3.58525 10.4198,3.52592 10.4198,3.46725 C10.4198,3.38925 10.3791,3.33325 10.2865,3.33325 Z" id="Path"></path>
        </g>
    </g>
</svg>