<?xml version="1.0" encoding="UTF-8"?>
<svg width="14px" height="15px" viewBox="0 0 14 15" version="1.1" xmlns="http://www.w3.org/2000/svg" xmlns:xlink="http://www.w3.org/1999/xlink">
    <!-- Generator: Sketch 53.2 (72643) - https://sketchapp.com -->
    <title>query</title>
    <desc>Created with Sketch.</desc>
    <g id="Page-1" stroke="none" stroke-width="1" fill="none" fill-rule="evenodd">
        <g id="query" fill="#3C4043" fill-rule="nonzero">
            <polygon id="Path" points="9.85387 14.3329 7.38721 11.8663 8.32054 10.9329 9.85387 12.4663 12.7205 9.59961 13.6539 10.5329"></polygon>
            <path d="M1.18726,1.39966 L1.18726,12.733 L6.38726,12.733 L5.78726,12.133 C5.65392,11.9997 5.65392,11.7997 5.78726,11.6663 L7.32059,10.133 L8.05392,8.79966 L9.92059,10.6663 L10.5873,9.99966 L10.5873,1.39966 L1.18726,1.39966 Z" id="Path" opacity="0.3"></path>
            <path d="M5.18717,0.0664062 L6.52051,0.0664062 L6.52051,2.73307 L5.18717,2.73307 L5.18717,0.0664062 Z M5.85384,4.73307 C5.50022,4.73307 5.16108,4.87355 4.91103,5.1236 C4.66098,5.37365 4.52051,5.71278 4.52051,6.06641 C4.52051,6.42003 4.66098,6.75917 4.91103,7.00922 C5.16108,7.25926 5.50022,7.39974 5.85384,7.39974 C6.20746,7.39974 6.5466,7.25926 6.79665,7.00922 C7.0467,6.75917 7.18717,6.42003 7.18717,6.06641 C7.18717,5.71278 7.0467,5.37365 6.79665,5.1236 C6.5466,4.87355 6.20746,4.73307 5.85384,4.73307 Z" id="Shape"></path>
            <path d="M5.72051,12.0665 L1.85384,12.0665 L1.85384,2.06649 L9.85384,2.06649 L9.85384,10.5998 L11.1872,9.26649 L11.1872,2.06649 C11.1872,1.33315 10.5872,0.733154 9.85384,0.733154 L1.85384,0.733154 C1.12051,0.733154 0.520508,1.33315 0.520508,2.06649 L0.520508,12.0665 C0.520508,12.7998 1.12051,13.3998 1.85384,13.3998 L7.05384,13.3998 L5.72051,12.0665 Z" id="Path"></path>
            <path d="M8.32059,8.99974 C7.92059,8.39974 6.98726,8.06641 5.85392,8.06641 C4.38726,8.06641 3.18726,8.66641 3.18726,9.53307 C3.18726,9.66641 3.18726,9.93307 3.18726,10.0664 L7.32059,10.0664 L8.32059,8.99974 Z" id="Path"></path>
        </g>
    </g>
</svg>