<svg width="16" height="16" viewBox="0 0 16 16" fill="none" xmlns="http://www.w3.org/2000/svg">
<path d="M2.61538 1C1.72776 1 1 1.70427 1 2.56325V10.9006C1 11.7595 1.72776 12.4638 2.61538 12.4638H4.23077V15L8.16406 12.4638H13.3846C14.2722 12.4638 15 11.7595 15 10.9006V2.56325C15 1.70427 14.2722 1 13.3846 1H2.61538ZM2.61538 2.04216H13.3846C13.6875 2.04216 13.9231 2.27014 13.9231 2.56325V10.9006C13.9231 11.1937 13.6875 11.4216 13.3846 11.4216H7.83594L5.30769 13.0541V11.4216H2.61538C2.3125 11.4216 2.07692 11.1937 2.07692 10.9006V2.56325C2.07692 2.27014 2.3125 2.04216 2.61538 2.04216ZM8 4.12649L7.17548 5.90957L5.16887 6.11718L6.67067 7.42396L6.25 9.33731L8 8.36028L9.75 9.33731L9.32933 7.42396L10.8311 6.11718L8.82452 5.90957L8 4.12649Z" fill="black"/>
</svg>
