<?xml version="1.0" encoding="UTF-8"?>
<svg width="13px" height="16px" viewBox="0 0 13 16" version="1.1" xmlns="http://www.w3.org/2000/svg" xmlns:xlink="http://www.w3.org/1999/xlink">
    <!-- Generator: Sketch 53.2 (72643) - https://sketchapp.com -->
    <title>results-active</title>
    <desc>Created with Sketch.</desc>
    <g id="Page-1" stroke="none" stroke-width="1" fill="none" fill-rule="evenodd">
        <g id="results-active" fill-rule="nonzero">
            <polygon id="Path" fill="#0D6EFD" opacity="0.3" points="3.42017 1.16675 11.4202 1.16675 11.4202 11.8334 3.42017 11.8334"></polygon>
            <path d="M8.08683,8.50008 L9.42017,8.50008 L9.42017,9.83342 L8.08683,9.83342 L8.08683,8.50008 Z M8.08683,5.83341 L9.42017,5.83341 L9.42017,7.16675 L8.08683,7.16675 L8.08683,5.83341 Z M5.42017,5.83341 L6.7535,5.83341 L6.7535,7.16675 L5.42017,7.16675 L5.42017,5.83341 Z M5.42017,3.16675 L9.42017,3.16675 L9.42017,4.50008 L5.42017,4.50008 L5.42017,3.16675 Z M5.42017,8.50008 L6.7535,8.50008 L6.7535,9.83342 L5.42017,9.83342 L5.42017,8.50008 Z" id="Shape" fill="#0D6DFC"></path>
            <path d="M10.7537,0.5 L4.087,0.5 C3.35366,0.5 2.75366,1.1 2.75366,1.83333 L2.75366,11.1667 C2.75366,11.9 3.35366,12.5 4.087,12.5 L10.7537,12.5 C11.487,12.5 12.087,11.9 12.087,11.1667 L12.087,1.83333 C12.087,1.1 11.487,0.5 10.7537,0.5 Z M10.7537,11.1667 L4.087,11.1667 L4.087,1.83333 L10.7537,1.83333 L10.7537,11.1667 Z" id="Shape" fill="#0D6EFD"></path>
            <path d="M2.75358,12.5 L1.42025,12.5 C0.686914,12.5 0.0869141,11.9 0.0869141,11.1667 L0.0869141,1.83333 C0.0869141,1.1 0.686914,0.5 1.42025,0.5 L2.75358,0.5 C3.48691,0.5 4.08691,1.1 4.08691,1.83333 L4.08691,11.1667 C4.08691,11.9 3.48691,12.5 2.75358,12.5 Z M1.42025,1.83333 L1.42025,11.1667 L2.75358,11.1667 L2.75358,1.83333 L1.42025,1.83333 Z" id="Shape" fill="#0D6EFD"></path>
            <path d="M3.7535,15.1666 C2.48683,15.1666 1.42017,14.0999 1.42017,12.8333 L1.42017,11.8333 L2.7535,11.8333 L2.7535,12.8333 C2.7535,13.3666 3.22017,13.8333 3.7535,13.8333 C4.28683,13.8333 4.7535,13.3666 4.7535,12.8333 L4.7535,11.8333 L6.08683,11.8333 L6.08683,12.8333 C6.08683,14.0999 5.02017,15.1666 3.7535,15.1666 Z" id="Path" fill="#0D6EFD"></path>
        </g>
    </g>
</svg>