<?xml version="1.0" encoding="UTF-8"?>
<svg width="14px" height="14px" viewBox="0 0 14 14" version="1.1" xmlns="http://www.w3.org/2000/svg" xmlns:xlink="http://www.w3.org/1999/xlink">
    <!-- Generator: Sketch 53.2 (72643) - https://sketchapp.com -->
    <title>rules copy</title>
    <desc>Created with Sketch.</desc>
    <g id="Page-1" stroke="none" stroke-width="1" fill="none" fill-rule="evenodd">
        <g id="rules-copy" fill="#0D6EFD" fill-rule="nonzero">
            <path d="M7.08716,1.16602 C6.29923,1.16602 5.51901,1.32121 4.79106,1.62274 C4.0631,1.92427 3.40167,2.36622 2.84452,2.92337 C2.28737,3.48053 1.84541,4.14196 1.54388,4.86992 C1.24235,5.59787 1.08716,6.37808 1.08716,7.16602 C1.08716,7.95395 1.24235,8.73416 1.54388,9.46212 C1.84541,10.1901 2.28737,10.8515 2.84452,11.4087 C3.40167,11.9658 4.0631,12.4078 4.79106,12.7093 C5.51901,13.0108 6.29923,13.166 7.08716,13.166 C7.87509,13.166 8.65531,13.0108 9.38326,12.7093 C10.1112,12.4078 10.7726,11.9658 11.3298,11.4087 C11.887,10.8515 12.3289,10.1901 12.6304,9.46212 C12.932,8.73416 13.0872,7.95395 13.0872,7.16602 C13.0872,6.37808 12.932,5.59787 12.6304,4.86992 C12.3289,4.14196 11.887,3.48053 11.3298,2.92337 C10.7726,2.36622 10.1112,1.92427 9.38326,1.62274 C8.65531,1.32121 7.87509,1.16602 7.08716,1.16602 Z" id="Path" opacity="0.3"></path>
            <path d="M7.08708,13.8328 C3.42041,13.8328 0.42041,10.8328 0.42041,7.16618 C0.42041,3.49951 3.42041,0.499512 7.08708,0.499512 C10.7537,0.499512 13.7537,3.49951 13.7537,7.16618 C13.7537,10.8328 10.7537,13.8328 7.08708,13.8328 Z M7.08708,1.83285 C4.15374,1.83285 1.75374,4.23285 1.75374,7.16618 C1.75374,10.0995 4.15374,12.4995 7.08708,12.4995 C10.0204,12.4995 12.4204,10.0995 12.4204,7.16618 C12.4204,4.23285 10.0204,1.83285 7.08708,1.83285 Z" id="Shape"></path>
            <path d="M5.08708,5.83301 C4.91027,5.83301 4.7407,5.90325 4.61567,6.02827 C4.49065,6.15329 4.42041,6.32286 4.42041,6.49967 C4.42041,6.67649 4.49065,6.84605 4.61567,6.97108 C4.7407,7.0961 4.91027,7.16634 5.08708,7.16634 C5.26389,7.16634 5.43346,7.0961 5.55848,6.97108 C5.68351,6.84605 5.75374,6.67649 5.75374,6.49967 C5.75374,6.32286 5.68351,6.15329 5.55848,6.02827 C5.43346,5.90325 5.26389,5.83301 5.08708,5.83301 Z M9.08708,5.83301 C8.91027,5.83301 8.7407,5.90325 8.61567,6.02827 C8.49065,6.15329 8.42041,6.32286 8.42041,6.49967 C8.42041,6.67649 8.49065,6.84605 8.61567,6.97108 C8.7407,7.0961 8.91027,7.16634 9.08708,7.16634 C9.26389,7.16634 9.43346,7.0961 9.55848,6.97108 C9.68351,6.84605 9.75374,6.67649 9.75374,6.49967 C9.75374,6.32286 9.68351,6.15329 9.55848,6.02827 C9.43346,5.90325 9.26389,5.83301 9.08708,5.83301 Z M4.42041,8.49967 L9.75374,8.49967 L9.75374,9.83301 L4.42041,9.83301 L4.42041,8.49967 Z" id="Shape"></path>
            <path d="M8.75366,11.166 C8.22033,11.166 7.75366,10.6993 7.75366,10.166 L7.75366,9.16602 L9.75366,9.16602 L9.75366,10.166 C9.75366,10.6993 9.287,11.166 8.75366,11.166 Z" id="Path"></path>
        </g>
    </g>
</svg>