<?xml version="1.0" encoding="UTF-8"?>
<svg width="17px" height="16px" viewBox="0 0 17 16" version="1.1" xmlns="http://www.w3.org/2000/svg" xmlns:xlink="http://www.w3.org/1999/xlink">
    <!-- Generator: Sketch 53.2 (72643) - https://sketchapp.com -->
    <title>signels</title>
    <desc>Created with Sketch.</desc>
    <g id="Page-1" stroke="none" stroke-width="1" fill="none" fill-rule="evenodd">
        <g id="signels" fill="#3C4043" fill-rule="nonzero">
            <path d="M12.0869,8.49902 C12.0869,6.29902 10.2869,4.49902 8.08691,4.49902 C5.88691,4.49902 4.08691,6.29902 4.08691,8.49902 C4.08691,10.2324 5.22025,11.699 6.75358,12.299 L6.75358,14.499 C6.75358,14.899 7.02025,15.1657 7.42025,15.1657 L8.75358,15.1657 C9.15358,15.1657 9.42025,14.899 9.42025,14.499 L9.42025,12.299 C10.9536,11.699 12.0869,10.2324 12.0869,8.49902 Z" id="Path" opacity="0.3"></path>
            <path d="M14.0869,7.83236 L16.0869,7.83236 L16.0869,9.16569 L14.0869,9.16569 L14.0869,7.83236 Z M0.0869141,7.83236 L2.08691,7.83236 L2.08691,9.16569 L0.0869141,9.16569 L0.0869141,7.83236 Z M7.42025,0.499023 L8.75358,0.499023 L8.75358,2.49902 L7.42025,2.49902 L7.42025,0.499023 Z" id="Shape"></path>
            <polygon id="Path" points="11.835 13.2124 12.7778 12.2696 14.192 13.6838 13.2492 14.6266"></polygon>
            <polygon id="Path" points="1.98193 3.31348 2.92473 2.37065 4.33896 3.78484 3.39617 4.72767"></polygon>
            <polygon id="Path" points="11.8582 3.80811 13.2721 2.39367 14.2151 3.33633 12.8011 4.75077"></polygon>
            <polygon id="Path" points="1.95923 13.6602 3.37364 12.2461 4.31632 13.1891 2.90191 14.6031"></polygon>
            <path d="M8.75358,15.8325 L7.42025,15.8325 C6.68691,15.8325 6.08691,15.2325 6.08691,14.4992 L6.08691,12.6992 C4.48691,11.9659 3.42025,10.2992 3.42025,8.49919 C3.42025,5.89919 5.48691,3.83252 8.08691,3.83252 C10.6869,3.83252 12.7536,5.89919 12.7536,8.49919 C12.7536,10.2992 11.6869,11.9659 10.0869,12.6992 L10.0869,14.4992 C10.0869,15.2325 9.48691,15.8325 8.75358,15.8325 Z M8.08691,5.16585 C6.22025,5.16585 4.75358,6.63252 4.75358,8.49919 C4.75358,9.89919 5.62025,11.1659 6.95358,11.6325 L7.42025,11.7659 L7.42025,14.4992 L8.75358,14.4992 L8.75358,11.7659 L9.22025,11.6325 C10.5536,11.1659 11.4202,9.89919 11.4202,8.49919 C11.4202,6.63252 9.95358,5.16585 8.08691,5.16585 Z M0.0869141,7.83252 L2.08691,7.83252 L2.08691,9.16585 L0.0869141,9.16585 L0.0869141,7.83252 Z" id="Shape"></path>
        </g>
    </g>
</svg>