<svg width="16" height="16" viewBox="0 0 16 16" fill="none" xmlns="http://www.w3.org/2000/svg">
<path d="M8 1.5C6.90234 1.5 6 2.40234 6 3.5C6 4.04688 6.22266 4.54687 6.58594 4.91016V4.91406C6.36328 5.05469 6.16797 5.23438 5.99219 5.4375C5.96094 4.36719 5.07812 3.5 4 3.5C2.90234 3.5 2 4.40234 2 5.5C2 6.03516 2.21875 6.52344 2.5625 6.88281C1.77588 7.31761 1.19796 8.088 1.04198 9.00229C0.995544 9.2745 1.22386 9.5 1.5 9.5C1.77614 9.5 1.99354 9.27271 2.06105 9.00495C2.27982 8.13717 3.06166 7.5 4 7.5C4.45312 7.5 4.86328 7.64844 5.19922 7.89844L6 8.5V7.5C6 6.39062 6.89062 5.5 8 5.5C9.10938 5.5 10 6.39062 10 7.5V8.5L10.8008 7.89844C11.1367 7.64844 11.5469 7.5 12 7.5C12.9383 7.5 13.7202 8.13717 13.939 9.00495C14.0065 9.27271 14.2239 9.5 14.5 9.5C14.7761 9.5 15.0045 9.2745 14.958 9.00229C14.802 8.088 14.2241 7.31761 13.4375 6.88281C13.7812 6.52344 14 6.03516 14 5.5C14 4.40234 13.0977 3.5 12 3.5C10.9219 3.5 10.0391 4.36719 10.0039 5.4375C9.83203 5.23438 9.63672 5.05078 9.41406 4.91016C9.77734 4.54687 10 4.04688 10 3.5C10 2.40234 9.09766 1.5 8 1.5ZM8 2.5C8.55859 2.5 9 2.94141 9 3.5C9 4.05859 8.55859 4.5 8 4.5C7.44141 4.5 7 4.05859 7 3.5C7 2.94141 7.44141 2.5 8 2.5ZM4 4.5C4.55859 4.5 5 4.94141 5 5.5C5 6.05859 4.55859 6.5 4 6.5C3.44141 6.5 3 6.05859 3 5.5C3 4.94141 3.44141 4.5 4 4.5ZM12 4.5C12.5586 4.5 13 4.94141 13 5.5C13 6.05859 12.5586 6.5 12 6.5C11.4414 6.5 11 6.05859 11 5.5C11 4.94141 11.4414 4.5 12 4.5ZM8 8.5C6.90234 8.5 6 9.40234 6 10.5C6 11.0352 6.21875 11.5234 6.5625 11.8828C5.77588 12.3176 5.19796 13.088 5.04198 14.0023C4.99554 14.2745 5.22386 14.5 5.5 14.5C5.77614 14.5 5.99354 14.2727 6.06105 14.0049C6.27982 13.1372 7.06166 12.5 8 12.5C8.93834 12.5 9.72018 13.1372 9.93895 14.0049C10.0065 14.2727 10.2239 14.5 10.5 14.5C10.7761 14.5 11.0045 14.2745 10.958 14.0023C10.802 13.088 10.2241 12.3176 9.4375 11.8828C9.78125 11.5234 10 11.0352 10 10.5C10 9.40234 9.09766 8.5 8 8.5ZM8 9.5C8.55859 9.5 9 9.94141 9 10.5C9 11.0586 8.55859 11.5 8 11.5C7.44141 11.5 7 11.0586 7 10.5C7 9.94141 7.44141 9.5 8 9.5Z" fill="black"/>
</svg>
