<?xml version="1.0" encoding="UTF-8"?>
<svg width="16px" height="14px" viewBox="0 0 16 14" version="1.1" xmlns="http://www.w3.org/2000/svg" xmlns:xlink="http://www.w3.org/1999/xlink">
    <!-- Generator: Sketch 53.2 (72643) - https://sketchapp.com -->
    <title>traits</title>
    <desc>Created with Sketch.</desc>
    <g id="Page-1" stroke="none" stroke-width="1" fill="none" fill-rule="evenodd">
        <g id="traits" transform="translate(1.000000, 1.000000)" fill="#202124" stroke="#202124" stroke-width="0.3">
            <path d="M1,1.5 C1,0.675781 1.67578,0 2.5,0 C3.32422,0 4,0.675781 4,1.5 C4,2.32422 3.32422,3 2.5,3 C1.67578,3 1,2.32422 1,1.5 Z M2.5,3 L3.5,3 C4.05981,3 4.49967,3.28103 4.88699,3.52849 L4.96484,3.57812 C5.24017,3.7502 5.51549,3.88281 5.65585,3.95041 C5.72259,3.98255 5.75881,4 5.75,4 L8,4 L8,5 L5.75,5 C5.28206,5 4.96511,4.78247 4.65415,4.56905 L4.65414,4.56905 L4.65413,4.56904 C4.58092,4.51879 4.50804,4.46877 4.43359,4.42188 C4.04297,4.17969 3.65234,4 3.5,4 L1.5,4 C1.21875,4 1,4.21875 1,4.5 L1,7.29297 L2,8.29297 L2,11 L3,11 L3,7 L4,7 L4,12 L1,12 L1,8.70703 L0,7.70703 L0,4.5 C0,3.67578 0.675781,3 1.5,3 L2.5,3 Z M2.5,1 C2.78125,1 3,1.21875 3,1.5 C3,1.78125 2.78125,2 2.5,2 C2.21875,2 2,1.78125 2,1.5 C2,1.21875 2.21875,1 2.5,1 Z M5,1.5 C5,1.22266 5.22266,1 5.5,1 L13.5,1 C13.7773,1 14,1.22266 14,1.5 L14,7.5 C14,7.77734 13.7773,8 13.5,8 L11.125,8 L13.168,11 L11.957,11 L9.91797,8 L9.08203,8 L7.03906,11 L5.83203,11 L7.875,8 L5.5,8 C5.22266,8 5,7.77734 5,7.5 L5,6 L6,6 L6,7 L13,7 L13,2 L6,2 L6,3 L5.9375,3 C5.87888,2.96651 5.80569,2.92179 5.73774,2.88029 C5.6789,2.84435 5.62401,2.81082 5.58594,2.78906 C5.40625,2.67188 5.20703,2.55469 5,2.44141 L5,1.5 Z" id="Shape"></path>
        </g>
    </g>
</svg>