<svg width="16" height="16" viewBox="0 0 16 16" fill="none" xmlns="http://www.w3.org/2000/svg">
<path d="M4.50003 2C3.12503 2 2.00003 3.125 2.00003 4.5C2.00003 5.875 3.12503 7 4.50003 7C5.87503 7 7.00003 5.875 7.00003 4.5C7.00003 3.125 5.87503 2 4.50003 2ZM9.50003 2C9.22269 2 9.00003 2.22266 9.00003 2.5V6.5C9.00003 6.77734 9.22269 7 9.50003 7H13.5C13.7774 7 14 6.77734 14 6.5V2.5C14 2.22266 13.7774 2 13.5 2H9.50003ZM4.50003 3C5.33597 3 6.00003 3.66406 6.00003 4.5C6.00003 5.33594 5.33597 6 4.50003 6C3.66409 6 3.00003 5.33594 3.00003 4.5C3.00003 3.66406 3.66409 3 4.50003 3ZM10 3H13V6H10V3ZM5.00784 9C4.83206 8.99609 4.668 9.08594 4.57816 9.23438L2.07816 13.2344C1.9805 13.3867 1.97269 13.582 2.06253 13.7422C2.15237 13.9023 2.31644 14 2.50003 14H7.50003C7.68362 14 7.84769 13.9023 7.93753 13.7422C8.02737 13.582 8.01956 13.3867 7.92191 13.2344L5.42191 9.23438C5.33206 9.08984 5.17581 9 5.00784 9ZM10.4532 9C10.2344 9 10.043 9.14063 9.97659 9.35156L9.02347 12.4414C8.96097 12.6406 9.03128 12.8594 9.19534 12.9883L11.6992 14.8945C11.875 15.0312 12.125 15.0312 12.3008 14.8945L14.8008 12.9883C14.9688 12.8594 15.0391 12.6406 14.9805 12.4414L14.0235 9.35156C13.9571 9.14063 13.7657 9 13.5469 9H10.4532ZM10.8242 10H13.1758L13.9219 12.4062L12 13.875L10.0782 12.4062L10.8242 10ZM5.00003 10.4414L6.59769 13H3.40237L5.00003 10.4414Z" fill="black"/>
</svg>
