<svg width="13" height="12" viewBox="0 0 13 12" fill="none" xmlns="http://www.w3.org/2000/svg">
<path fill-rule="evenodd" clip-rule="evenodd" d="M5.15611 0.540726C5.50234 0.194505 5.97191 0 6.46154 0C6.95117 0 7.42075 0.194505 7.76697 0.540726C8.11319 0.886947 8.3077 1.35652 8.3077 1.84615C8.3077 2.17303 8.22101 2.49097 8.06036 2.76923H10.6154C10.8317 2.76923 11.019 2.91948 11.0659 3.13065L12.9121 11.4383C12.9425 11.575 12.9092 11.7181 12.8216 11.8273C12.734 11.9365 12.6015 12 12.4615 12H0.461543C0.321549 12 0.189121 11.9365 0.101523 11.8273C0.0139253 11.7181 -0.0193742 11.575 0.0109947 11.4383L1.85715 3.13065C1.90408 2.91948 2.09137 2.76923 2.3077 2.76923H4.86272C4.70208 2.49097 4.61539 2.17303 4.61539 1.84615C4.61539 1.35652 4.80989 0.886947 5.15611 0.540726ZM6.46154 2.76923C6.70636 2.76923 6.94115 2.67198 7.11426 2.49887C7.28737 2.32576 7.38462 2.09097 7.38462 1.84615C7.38462 1.60134 7.28737 1.36655 7.11426 1.19344C6.94115 1.02033 6.70636 0.923077 6.46154 0.923077C6.21673 0.923077 5.98194 1.02033 5.80883 1.19344C5.63572 1.36655 5.53847 1.60134 5.53847 1.84615C5.53847 2.09097 5.63572 2.32576 5.80883 2.49887C5.98194 2.67198 6.21673 2.76923 6.46154 2.76923ZM2.67793 3.69231L1.0369 11.0769H11.8862L10.2452 3.69231H2.67793Z" fill="#202124"/>
</svg>
