<?xml version="1.0" encoding="UTF-8" standalone="no"?>
<!DOCTYPE svg PUBLIC "-//W3C//DTD SVG 1.1//EN"
 "http://www.w3.org/Graphics/SVG/1.1/DTD/svg11.dtd">
<!-- Generated by graphviz version 5.0.0 (20220707.1540)
 -->
<!-- Title: dependencies Pages: 1 -->
<svg width="606pt" height="247pt"
 viewBox="0.00 0.00 606.00 246.80" xmlns="http://www.w3.org/2000/svg" xmlns:xlink="http://www.w3.org/1999/xlink">
<g id="graph0" class="graph" transform="scale(1 1) rotate(0) translate(4 242.8)">
<title>dependencies</title>
<polygon fill="white" stroke="transparent" points="-4,4 -4,-242.8 602,-242.8 602,4 -4,4"/>
<text text-anchor="middle" x="299" y="-8.2" font-family="sans-serif" font-size="14.00">dependencies</text>
<g id="clust1" class="cluster">
<title>cluster_AppsModule</title>
<polygon fill="none" stroke="black" stroke-dasharray="1,5" points="8,-32.8 8,-230.8 590,-230.8 590,-32.8 8,-32.8"/>
</g>
<g id="clust2" class="cluster">
<title>cluster_AppsModule_declarations</title>
<polygon fill="none" stroke="black" points="456,-40.8 456,-92.8 582,-92.8 582,-40.8 456,-40.8"/>
</g>
<g id="clust5" class="cluster">
<title>cluster_AppsModule_exports</title>
<polygon fill="none" stroke="black" points="231,-170.8 231,-222.8 361,-222.8 361,-170.8 231,-170.8"/>
</g>
<g id="clust4" class="cluster">
<title>cluster_AppsModule_imports</title>
<polygon fill="none" stroke="black" points="16,-40.8 16,-92.8 448,-92.8 448,-40.8 16,-40.8"/>
</g>
<!-- AppsComponent -->
<g id="node1" class="node">
<title>AppsComponent</title>
<polygon fill="#ffffb3" stroke="black" points="574.39,-84.8 463.61,-84.8 463.61,-48.8 574.39,-48.8 574.39,-84.8"/>
<text text-anchor="middle" x="519" y="-62.6" font-family="Times,serif" font-size="14.00">AppsComponent</text>
</g>
<!-- AppsModule -->
<g id="node2" class="node">
<title>AppsModule</title>
<polygon fill="#8dd3c7" stroke="black" points="340.61,-149.8 337.61,-153.8 316.61,-153.8 313.61,-149.8 251.39,-149.8 251.39,-113.8 340.61,-113.8 340.61,-149.8"/>
<text text-anchor="middle" x="296" y="-127.6" font-family="Times,serif" font-size="14.00">AppsModule</text>
</g>
<!-- AppsComponent&#45;&gt;AppsModule -->
<g id="edge1" class="edge">
<title>AppsComponent&#45;&gt;AppsModule</title>
<path fill="none" stroke="black" d="M519,-84.91C519,-104.14 519,-131.8 519,-131.8 519,-131.8 350.59,-131.8 350.59,-131.8"/>
<polygon fill="black" stroke="black" points="350.59,-128.3 340.59,-131.8 350.59,-135.3 350.59,-128.3"/>
</g>
<!-- AppsComponent  -->
<g id="node6" class="node">
<title>AppsComponent </title>
<polygon fill="#fb8072" stroke="black" points="353.39,-214.8 238.61,-214.8 238.61,-178.8 353.39,-178.8 353.39,-214.8"/>
<text text-anchor="middle" x="296" y="-192.6" font-family="Times,serif" font-size="14.00">AppsComponent </text>
</g>
<!-- AppsModule&#45;&gt;AppsComponent  -->
<g id="edge5" class="edge">
<title>AppsModule&#45;&gt;AppsComponent </title>
<path fill="none" stroke="black" stroke-dasharray="5,2" d="M296,-149.91C296,-149.91 296,-168.79 296,-168.79"/>
<polygon fill="black" stroke="black" points="292.5,-168.79 296,-178.79 299.5,-168.79 292.5,-168.79"/>
</g>
<!-- AppsRoutingModule -->
<g id="node3" class="node">
<title>AppsRoutingModule</title>
<polygon fill="#8dd3c7" stroke="black" points="440.23,-84.8 437.23,-88.8 416.23,-88.8 413.23,-84.8 305.77,-84.8 305.77,-48.8 440.23,-48.8 440.23,-84.8"/>
<text text-anchor="middle" x="373" y="-62.6" font-family="Times,serif" font-size="14.00">AppsRoutingModule</text>
</g>
<!-- AppsRoutingModule&#45;&gt;AppsModule -->
<g id="edge2" class="edge">
<title>AppsRoutingModule&#45;&gt;AppsModule</title>
<path fill="none" stroke="black" d="M323.22,-84.91C323.22,-84.91 323.22,-103.79 323.22,-103.79"/>
<polygon fill="black" stroke="black" points="319.72,-103.79 323.22,-113.79 326.72,-103.79 319.72,-103.79"/>
</g>
<!-- EmptyScreenModule -->
<g id="node4" class="node">
<title>EmptyScreenModule</title>
<polygon fill="#8dd3c7" stroke="black" points="287.47,-84.8 284.47,-88.8 263.47,-88.8 260.47,-84.8 152.53,-84.8 152.53,-48.8 287.47,-48.8 287.47,-84.8"/>
<text text-anchor="middle" x="220" y="-62.6" font-family="Times,serif" font-size="14.00">EmptyScreenModule</text>
</g>
<!-- EmptyScreenModule&#45;&gt;AppsModule -->
<g id="edge3" class="edge">
<title>EmptyScreenModule&#45;&gt;AppsModule</title>
<path fill="none" stroke="black" d="M269.47,-84.91C269.47,-84.91 269.47,-103.79 269.47,-103.79"/>
<polygon fill="black" stroke="black" points="265.97,-103.79 269.47,-113.79 272.97,-103.79 265.97,-103.79"/>
</g>
<!-- KrModalModule -->
<g id="node5" class="node">
<title>KrModalModule</title>
<polygon fill="#8dd3c7" stroke="black" points="134.38,-84.8 131.38,-88.8 110.38,-88.8 107.38,-84.8 23.62,-84.8 23.62,-48.8 134.38,-48.8 134.38,-84.8"/>
<text text-anchor="middle" x="79" y="-62.6" font-family="Times,serif" font-size="14.00">KrModalModule</text>
</g>
<!-- KrModalModule&#45;&gt;AppsModule -->
<g id="edge4" class="edge">
<title>KrModalModule&#45;&gt;AppsModule</title>
<path fill="none" stroke="black" d="M79,-84.91C79,-104.14 79,-131.8 79,-131.8 79,-131.8 241.3,-131.8 241.3,-131.8"/>
<polygon fill="black" stroke="black" points="241.3,-135.3 251.3,-131.8 241.3,-128.3 241.3,-135.3"/>
</g>
</g>
</svg>
