<?xml version="1.0" encoding="UTF-8" standalone="no"?>
<!DOCTYPE svg PUBLIC "-//W3C//DTD SVG 1.1//EN"
 "http://www.w3.org/Graphics/SVG/1.1/DTD/svg11.dtd">
<!-- Generated by graphviz version 5.0.0 (20220707.1540)
 -->
<!-- Title: dependencies Pages: 1 -->
<svg width="328pt" height="247pt"
 viewBox="0.00 0.00 328.00 246.80" xmlns="http://www.w3.org/2000/svg" xmlns:xlink="http://www.w3.org/1999/xlink">
<g id="graph0" class="graph" transform="scale(1 1) rotate(0) translate(4 242.8)">
<title>dependencies</title>
<polygon fill="white" stroke="transparent" points="-4,4 -4,-242.8 324,-242.8 324,4 -4,4"/>
<text text-anchor="middle" x="160" y="-8.2" font-family="sans-serif" font-size="14.00">dependencies</text>
<g id="clust1" class="cluster">
<title>cluster_SchedulerModule</title>
<polygon fill="none" stroke="black" stroke-dasharray="1,5" points="8,-32.8 8,-230.8 312,-230.8 312,-32.8 8,-32.8"/>
</g>
<g id="clust5" class="cluster">
<title>cluster_SchedulerModule_exports</title>
<polygon fill="none" stroke="black" points="82,-170.8 82,-222.8 238,-222.8 238,-170.8 82,-170.8"/>
</g>
<g id="clust2" class="cluster">
<title>cluster_SchedulerModule_declarations</title>
<polygon fill="none" stroke="black" points="150,-40.8 150,-92.8 304,-92.8 304,-40.8 150,-40.8"/>
</g>
<g id="clust4" class="cluster">
<title>cluster_SchedulerModule_imports</title>
<polygon fill="none" stroke="black" points="16,-40.8 16,-92.8 142,-92.8 142,-40.8 16,-40.8"/>
</g>
<!-- SchedulerComponent -->
<g id="node1" class="node">
<title>SchedulerComponent</title>
<polygon fill="#ffffb3" stroke="black" points="295.81,-84.8 158.19,-84.8 158.19,-48.8 295.81,-48.8 295.81,-84.8"/>
<text text-anchor="middle" x="227" y="-62.6" font-family="Times,serif" font-size="14.00">SchedulerComponent</text>
</g>
<!-- SchedulerModule -->
<g id="node2" class="node">
<title>SchedulerModule</title>
<polygon fill="#8dd3c7" stroke="black" points="217.53,-149.8 214.53,-153.8 193.53,-153.8 190.53,-149.8 102.47,-149.8 102.47,-113.8 217.53,-113.8 217.53,-149.8"/>
<text text-anchor="middle" x="160" y="-127.6" font-family="Times,serif" font-size="14.00">SchedulerModule</text>
</g>
<!-- SchedulerComponent&#45;&gt;SchedulerModule -->
<g id="edge1" class="edge">
<title>SchedulerComponent&#45;&gt;SchedulerModule</title>
<path fill="none" stroke="black" d="M188.06,-84.91C188.06,-84.91 188.06,-103.79 188.06,-103.79"/>
<polygon fill="black" stroke="black" points="184.56,-103.79 188.06,-113.79 191.56,-103.79 184.56,-103.79"/>
</g>
<!-- SchedulerComponent  -->
<g id="node4" class="node">
<title>SchedulerComponent </title>
<polygon fill="#fb8072" stroke="black" points="230.31,-214.8 89.69,-214.8 89.69,-178.8 230.31,-178.8 230.31,-214.8"/>
<text text-anchor="middle" x="160" y="-192.6" font-family="Times,serif" font-size="14.00">SchedulerComponent </text>
</g>
<!-- SchedulerModule&#45;&gt;SchedulerComponent  -->
<g id="edge3" class="edge">
<title>SchedulerModule&#45;&gt;SchedulerComponent </title>
<path fill="none" stroke="black" stroke-dasharray="5,2" d="M160,-149.91C160,-149.91 160,-168.79 160,-168.79"/>
<polygon fill="black" stroke="black" points="156.5,-168.79 160,-178.79 163.5,-168.79 156.5,-168.79"/>
</g>
<!-- KrModalModule -->
<g id="node3" class="node">
<title>KrModalModule</title>
<polygon fill="#8dd3c7" stroke="black" points="134.38,-84.8 131.38,-88.8 110.38,-88.8 107.38,-84.8 23.62,-84.8 23.62,-48.8 134.38,-48.8 134.38,-84.8"/>
<text text-anchor="middle" x="79" y="-62.6" font-family="Times,serif" font-size="14.00">KrModalModule</text>
</g>
<!-- KrModalModule&#45;&gt;SchedulerModule -->
<g id="edge2" class="edge">
<title>KrModalModule&#45;&gt;SchedulerModule</title>
<path fill="none" stroke="black" d="M118.34,-84.91C118.34,-84.91 118.34,-103.79 118.34,-103.79"/>
<polygon fill="black" stroke="black" points="114.84,-103.79 118.34,-113.79 121.84,-103.79 114.84,-103.79"/>
</g>
</g>
</svg>
