<svg width="408" height="300" viewBox="0 0 408 300" fill="none" xmlns="http://www.w3.org/2000/svg">
<path d="M406.576 240.651C406.54 240.656 406.504 240.659 406.467 240.659L0.802218 238.459C0.614223 238.458 0.434291 238.382 0.302005 238.249C0.169719 238.115 0.0959144 237.934 0.0968285 237.746C0.0977425 237.558 0.1733 237.379 0.306879 237.246C0.440458 237.114 0.621116 237.04 0.809111 237.041L406.474 239.241C406.653 239.242 406.825 239.31 406.956 239.432C407.087 239.554 407.166 239.721 407.179 239.899C407.192 240.077 407.137 240.254 407.025 240.393C406.914 240.533 406.753 240.625 406.576 240.651Z" fill="#3C4043"/>
<path d="M208.729 162.76V0.766602H56.3594V35.9023V162.76H208.729Z" fill="white"/>
<path d="M208.73 163.526H56.3602C55.9358 163.526 55.5918 163.183 55.5918 162.76V0.766542C55.5918 0.343155 55.9358 0 56.3602 0H208.73C209.154 0 209.498 0.343155 209.498 0.766542V162.76C209.498 163.183 209.154 163.526 208.73 163.526ZM57.1287 161.993H207.961V1.53308H57.1287V161.993Z" fill="#3C4043"/>
<path d="M208.73 19.5829H56.3602C55.9358 19.5829 55.5918 19.2397 55.5918 18.8163C55.5918 18.393 55.9358 18.0498 56.3602 18.0498H208.73C209.154 18.0498 209.498 18.393 209.498 18.8163C209.498 19.2397 209.154 19.5829 208.73 19.5829Z" fill="#3C4043"/>
<path d="M64.434 12.8033C66.1019 12.8033 67.4539 11.4546 67.4539 9.79083C67.4539 8.12707 66.1019 6.77832 64.434 6.77832C62.7661 6.77832 61.4141 8.12707 61.4141 9.79083C61.4141 11.4546 62.7661 12.8033 64.434 12.8033Z" fill="#82B1FF"/>
<path d="M72.8871 12.8033C74.555 12.8033 75.907 11.4546 75.907 9.79083C75.907 8.12707 74.555 6.77832 72.8871 6.77832C71.2193 6.77832 69.8672 8.12707 69.8672 9.79083C69.8672 11.4546 71.2193 12.8033 72.8871 12.8033Z" fill="#82B1FF"/>
<path d="M81.3402 12.8033C83.0081 12.8033 84.3602 11.4546 84.3602 9.79083C84.3602 8.12707 83.0081 6.77832 81.3402 6.77832C79.6724 6.77832 78.3203 8.12707 78.3203 9.79083C78.3203 11.4546 79.6724 12.8033 81.3402 12.8033Z" fill="#82B1FF"/>
<path d="M245.313 34.374L240.234 38.7665L242.859 41.4314" fill="#FFF1ED"/>
<path d="M242.859 42.2061C242.657 42.2061 242.457 42.1286 242.305 41.9744L239.68 39.3095C239.53 39.1569 239.449 38.9493 239.458 38.7357C239.466 38.5222 239.563 38.3216 239.725 38.1813L244.804 33.7889C245.128 33.5087 245.618 33.5436 245.899 33.8669C246.18 34.1902 246.145 34.6795 245.821 34.9597L241.367 38.8119L243.412 40.8886C243.713 41.1938 243.709 41.6842 243.403 41.984C243.252 42.1322 243.055 42.2061 242.859 42.2061Z" fill="#3C4043"/>
<path d="M254.366 66.444C254.366 66.444 253.974 59.4324 253.945 59.4228C245.602 56.6293 241.108 47.6175 243.909 39.2946C244.29 38.1609 244.799 37.0865 245.412 36.0827C245.412 36.0789 245.413 36.075 245.413 36.0711C245.535 34.8902 245.788 33.7262 246.166 32.6005C246.386 31.9583 246.671 30.1606 248.317 28.4121L265.106 37.8957L270.283 47.4501L270.888 66.082L254.366 66.444Z" fill="#FFF1ED"/>
<path d="M254.365 67.2187C253.954 67.2187 253.613 66.8985 253.59 66.4872C253.468 64.3059 253.288 61.1651 253.211 59.9858C249.203 58.5082 245.963 55.6099 244.052 51.777C242.064 47.79 241.752 43.2692 243.172 39.0477C243.546 37.9371 244.045 36.8551 244.658 35.8289C244.793 34.639 245.052 33.4757 245.429 32.3537C245.461 32.2602 245.493 32.1448 245.531 32.0082C245.776 31.1294 246.232 29.4933 247.751 27.881C247.996 27.6207 248.388 27.5613 248.699 27.7374L265.488 37.221C265.615 37.2928 265.719 37.3987 265.788 37.5268L270.965 47.0812C271.023 47.1868 271.054 47.3043 271.058 47.4243L271.663 66.0562C271.67 66.263 271.593 66.4637 271.451 66.6139C271.308 66.7642 271.111 66.8513 270.904 66.8556L254.382 67.2182C254.377 67.2187 254.371 67.2187 254.365 67.2187ZM248.486 29.398C247.542 30.5758 247.226 31.7123 247.027 32.4239C246.979 32.5944 246.939 32.7382 246.901 32.8505C246.542 33.917 246.301 35.0284 246.185 36.1507C246.173 36.2653 246.135 36.3877 246.075 36.4861C245.481 37.4581 244.999 38.4861 244.644 39.5414C243.356 43.3707 243.639 47.4713 245.443 51.0878C247.246 54.7043 250.353 57.4038 254.192 58.689C254.688 58.8547 254.717 59.2713 254.746 59.6738C254.759 59.868 254.777 60.1448 254.798 60.4767C254.839 61.1362 254.89 62.0147 254.941 62.8929C255.001 63.9364 255.061 64.9794 255.099 65.6536L270.086 65.3249L269.512 47.658L264.528 38.4602L248.486 29.398Z" fill="#3C4043"/>
<path d="M218.183 208.184L221.248 221.748C220.759 223.343 220.039 223.861 220.039 223.861C212.532 225.801 207.95 230.686 208.548 238.459H242.05L252.075 216.347L257.744 228.225L272.465 221.039L257.417 190.433" fill="#E7F1FF"/>
<path d="M198.84 164.944L204.017 144.544L240.483 149.259L246.916 164.378L257.902 190.197L216.637 209.158L205.311 180.954L198.84 164.944Z" fill="white"/>
<path d="M216.636 209.934C216.539 209.934 216.441 209.915 216.349 209.879C216.151 209.8 215.995 209.644 215.915 209.447L204.589 181.242L198.119 165.234C198.057 165.082 198.046 164.913 198.086 164.754L203.263 144.354C203.36 143.974 203.726 143.725 204.116 143.776L240.582 148.492C240.855 148.527 241.089 148.704 241.197 148.957L258.616 189.895C258.78 190.28 258.607 190.726 258.226 190.901L216.962 209.862C216.859 209.91 216.747 209.934 216.636 209.934ZM199.654 164.889L206.031 180.664L217.054 208.114L256.892 189.808L239.941 149.971L204.6 145.401L199.654 164.889Z" fill="#3C4043"/>
<path d="M266.595 21.8624C262.616 20.524 258.312 20.7278 254.475 22.4377C249.761 24.5549 247.735 27.8744 247.651 28.0147L247.577 28.1381L247.552 28.2799C247.507 28.5409 246.463 34.7361 248.218 40.0406C248.218 40.0406 250.91 36.8809 252.198 36.6769C257.267 35.8738 261.222 38.6867 261.005 43.383C260.833 47.1175 256.236 49.3868 256.236 49.3868C260.992 52.8667 265.801 54.7473 268.243 55.5582C268.639 55.6904 269.043 55.7542 269.443 55.7542C270.615 55.7542 271.743 55.2052 272.465 54.2211C273.99 52.1524 276.692 47.6732 277.661 40.9165C279.03 31.3484 275.203 24.7597 266.595 21.8624Z" fill="#3C4043"/>
<path d="M279.656 75.377L305.133 120.357C308.213 126.913 305.381 134.719 298.808 137.791C298.507 137.931 298.2 138.061 297.889 138.178L281.414 143.768" fill="#FFED96"/>
<path d="M281.413 144.543C281.09 144.543 280.788 144.34 280.678 144.018C280.54 143.613 280.757 143.173 281.163 143.035L297.625 137.45C297.913 137.341 298.2 137.22 298.478 137.089C304.644 134.208 307.315 126.866 304.442 120.712L278.979 75.7585C278.769 75.3859 278.9 74.9133 279.274 74.7029C279.647 74.4924 280.121 74.6239 280.332 74.9962L305.809 119.976C305.818 119.994 305.827 120.011 305.836 120.029C309.092 126.962 306.087 135.244 299.137 138.493C298.819 138.641 298.492 138.779 298.164 138.903C298.156 138.907 298.147 138.91 298.138 138.912L281.663 144.502C281.58 144.53 281.496 144.543 281.413 144.543Z" fill="#3C4043"/>
<path d="M160.151 203.816C156.521 218.422 146.416 221.83 146.416 221.83C138.918 223.734 133.901 230.769 134.555 238.459H162.771L186.246 225.308L186.107 238.459H202.497L202.475 207.825" fill="#E7F1FF"/>
<path d="M274.812 70.7432C280.513 74.5125 283.482 81.0962 283.883 86.7594C284.032 88.8712 284.037 90.6731 284.018 92.2793L280.896 144.544L280.795 145.713C281.235 160.163 267.069 172.839 251.279 167.801L248.798 167.01L208.674 148.929L203.543 207.926L158.318 203.642L166.602 116.54C166.855 113.882 168.553 105.551 185.378 102.969L238.185 101.678L252.163 71.2072" fill="white"/>
<path d="M203.543 208.701C203.518 208.701 203.494 208.7 203.469 208.698L158.244 204.414C157.817 204.373 157.504 203.995 157.545 203.57L165.828 116.467C166.235 112.191 169.301 104.653 185.259 102.204C185.292 102.198 185.325 102.196 185.358 102.195L237.68 100.916L251.457 70.8851C251.635 70.4962 252.096 70.325 252.486 70.5032C252.876 70.6811 253.047 71.141 252.869 71.5299L238.89 102.001C238.767 102.27 238.5 102.446 238.203 102.453L185.447 103.743C170.571 106.039 167.738 112.791 167.374 116.614L159.164 202.945L202.837 207.082L207.899 148.862C207.921 148.612 208.063 148.388 208.28 148.261C208.497 148.134 208.763 148.12 208.993 148.223L249.077 166.285L251.515 167.063C258.361 169.247 265.519 168.071 271.154 163.835C276.917 159.502 280.232 152.736 280.019 145.737C280.018 145.707 280.019 145.677 280.021 145.647L280.122 144.477L283.242 92.2521C283.26 90.6671 283.256 88.9111 283.108 86.8143C282.761 81.9171 280.287 75.293 274.382 71.3892C274.025 71.1529 273.927 70.6721 274.164 70.3154C274.401 69.9588 274.883 69.8615 275.24 70.0978C281.615 74.3123 284.284 81.4401 284.657 86.7051C284.81 88.8716 284.813 90.7433 284.794 92.2885C284.794 92.3009 284.794 92.3133 284.793 92.3254L281.671 144.59L281.572 145.735C281.785 153.22 278.242 160.446 272.088 165.072C266.045 169.615 258.374 170.879 251.042 168.539L248.561 167.748C248.532 167.738 248.505 167.728 248.478 167.716L209.352 150.085L204.316 207.993C204.298 208.199 204.199 208.389 204.04 208.522C203.9 208.638 203.724 208.701 203.543 208.701ZM284.018 92.2792H284.02H284.018Z" fill="#3C4043"/>
<path d="M264.128 22.027C264.064 21.4752 264.031 20.9141 264.031 20.3452C264.031 12.3417 270.535 5.85352 278.558 5.85352C286.581 5.85352 293.085 12.3417 293.085 20.3452C293.085 28.3487 286.581 34.8369 278.558 34.8369C278.009 34.8369 277.467 34.8064 276.934 34.7473" fill="#3C4043"/>
<path d="M259.5 70.5C252.7 70.5 251.667 71.8333 252 72.5L245 133V136H276L282.5 109C282.5 106.5 282.806 99.4056 283 96.5C283.5 89 283.286 82.5 281 78.5C279.4 75.7 276 71.3333 275 70.5H259.5Z" fill="#FFED96"/>
<path d="M255.39 45.4711C255.267 45.4711 255.142 45.4419 255.026 45.3802L251.834 43.6862C251.576 43.5494 251.417 43.28 251.422 42.989C251.427 42.698 251.595 42.4341 251.858 42.3063L256.357 40.1139C256.742 39.9262 257.207 40.0855 257.395 40.47C257.583 40.8545 257.424 41.3183 257.038 41.506L253.907 43.0316L255.755 44.0121C256.134 44.213 256.277 44.6822 256.076 45.06C255.936 45.3218 255.667 45.4711 255.39 45.4711Z" fill="#3C4043"/>
<path d="M282.233 53.2291C281.499 53.2291 280.912 52.9941 280.484 52.7299C276.036 49.9834 276.092 36.2279 276.113 34.6685C276.117 34.3599 276.304 34.0833 276.59 33.9643C276.875 33.8453 277.204 33.9065 277.427 34.1203C277.837 34.513 287.461 43.8069 286.635 49.4589C286.426 50.8924 285.609 51.9841 284.207 52.7046C283.464 53.0865 282.804 53.2291 282.233 53.2291ZM277.681 36.5788C277.802 41.3648 278.575 49.7288 281.302 51.4124C281.697 51.6567 282.355 51.9134 283.496 51.327C284.44 50.8423 284.964 50.158 285.098 49.2353C285.605 45.7642 280.735 39.7945 277.681 36.5788Z" fill="#FFDA2D"/>
<path d="M270.827 52.8406C270.334 52.8406 269.821 52.7562 269.289 52.5873C267.47 52.0091 266.843 50.8525 266.637 49.9839C265.435 44.9081 275.226 35.213 276.346 34.1241C276.568 33.9087 276.896 33.8452 277.183 33.9622C277.469 34.0791 277.658 34.3547 277.665 34.6633C277.676 35.2301 277.896 48.5814 273.307 51.9998C272.555 52.5599 271.725 52.8406 270.827 52.8406ZM276.101 36.5819C272.794 40.0543 267.412 46.5172 268.149 49.628C268.256 50.0786 268.539 50.7229 269.761 51.111C270.772 51.4322 271.627 51.3171 272.377 50.7588C275.193 48.6612 275.981 41.0087 276.101 36.5819Z" fill="#FFDA2D"/>
<path d="M194.071 110.488C193.634 110.271 193.2 110.018 192.773 109.728C192.667 109.653 192.561 109.58 192.46 109.505C189.015 106.998 185.122 105.046 179.277 107.215C175.156 108.746 169.22 111.672 167.905 107.731C166.994 104.999 173.794 101.294 178.71 98.3837C170.53 99.2255 159.813 100.31 159.223 96.6484C158.633 92.9867 166.336 91.4838 176.944 90.4509C165.117 89.5239 158.752 90.6653 158.594 87.0785C158.335 81.1625 182.668 81.6325 191.034 84.0443C191.034 84.0443 193.037 84.5608 200.353 86.0869C202.217 86.4799 203.754 87.1645 205.014 88.0432" fill="#FFF1ED"/>
<path d="M194.071 111.263C193.955 111.263 193.837 111.237 193.726 111.182C193.253 110.947 192.785 110.673 192.336 110.368L192.234 110.296C192.154 110.24 192.074 110.184 191.998 110.127C188.282 107.423 184.74 106.015 179.548 107.941C179.061 108.122 178.549 108.323 178.021 108.529C174.861 109.766 171.279 111.168 168.979 110.095C168.112 109.69 167.503 108.977 167.169 107.976C166.249 105.217 170.543 102.327 175.292 99.4986C165.919 100.364 159.043 100.41 158.457 96.7715C158.317 95.8997 158.528 95.0925 159.085 94.372C160.292 92.8108 163.099 91.6808 168.26 90.7832C165.155 90.6755 162.698 90.5856 161 90.1931C160.239 90.0173 157.923 89.4822 157.819 87.1128C157.789 86.4181 158.002 85.394 159.193 84.46C164.3 80.4523 184.077 81.2324 191.25 83.3006C191.251 83.3006 193.322 83.8289 200.513 85.3292C202.382 85.7235 204.046 86.423 205.46 87.4089C205.812 87.654 205.898 88.1369 205.652 88.4876C205.406 88.8382 204.922 88.924 204.57 88.6789C203.328 87.8128 201.855 87.1959 200.193 86.8455C192.945 85.3333 190.923 84.8163 190.84 84.7949C183.265 82.6116 164.559 82.2199 160.153 85.6778C159.605 86.1077 159.349 86.555 159.371 87.0451C159.45 88.8522 162.214 89.0236 168.457 89.2398C170.929 89.3252 173.731 89.4223 177.006 89.679C177.407 89.7105 177.718 90.0426 177.722 90.4441C177.726 90.8457 177.421 91.1834 177.021 91.2224C170.204 91.8861 162.145 92.9515 160.315 95.3187C160.022 95.6975 159.919 96.081 159.991 96.5259C160.467 99.4829 172.283 98.2669 178.631 97.6135C178.994 97.5758 179.334 97.7956 179.448 98.1411C179.563 98.4866 179.421 98.8647 179.107 99.0503C178.711 99.2848 178.303 99.5247 177.887 99.7687C174.19 101.938 168.004 105.57 168.643 107.488C168.843 108.085 169.159 108.468 169.638 108.692C171.333 109.483 174.727 108.155 177.455 107.087C177.991 106.877 178.512 106.674 179.007 106.49C185.193 104.194 189.349 106.282 192.919 108.88C192.99 108.933 193.058 108.98 193.126 109.028L193.223 109.096C193.603 109.355 194.009 109.592 194.419 109.796C194.802 109.986 194.959 110.452 194.768 110.834C194.631 111.106 194.356 111.263 194.071 111.263Z" fill="#3C4043"/>
<path d="M271.304 92.9869L256.058 124.157C253.602 129.178 248.546 132.135 243.257 132.135C241.43 132.135 239.576 131.782 237.79 131.041L200.266 115.454C193.007 112.439 189.573 104.125 192.596 96.8838C195.618 89.6426 203.953 86.2162 211.212 89.2317L236.351 99.6739C236.351 99.6739 236.269 99.6372 244.916 80.5984C246.648 76.7842 249.341 73.2431 252.144 71.248" fill="#FFED96"/>
<path d="M243.256 132.909C241.274 132.909 239.334 132.521 237.491 131.755L199.967 116.169C192.325 112.994 188.696 104.209 191.878 96.5853C193.42 92.8921 196.311 90.0186 200.019 88.4945C203.727 86.9705 207.807 86.978 211.51 88.516L235.933 98.6604C236.106 98.2545 236.355 97.6926 236.708 96.8998C237.68 94.7098 239.771 90.0483 244.208 80.278C246.03 76.2672 248.828 72.6554 251.693 70.6167C252.042 70.3683 252.527 70.4491 252.776 70.7975C253.025 71.1458 252.944 71.6295 252.595 71.8779C249.943 73.765 247.337 77.1442 245.623 80.9174C237.93 97.856 237.166 99.7124 237.092 99.9046C237.084 99.9304 237.074 99.9559 237.063 99.9812C236.894 100.37 236.444 100.551 236.052 100.388L210.912 89.9463C207.593 88.5674 203.934 88.5607 200.61 89.9272C197.286 91.2937 194.694 93.8698 193.312 97.181C190.459 104.016 193.712 111.892 200.564 114.739L238.088 130.325C239.741 131.011 241.48 131.359 243.256 131.359C248.368 131.359 253.118 128.399 255.359 123.817L270.606 92.6468C270.794 92.2623 271.259 92.1028 271.644 92.2902C272.03 92.478 272.19 92.9417 272.002 93.3262L256.756 124.497C254.256 129.607 248.957 132.909 243.256 132.909Z" fill="#3C4043"/>
<path d="M208.673 149.704C208.564 149.704 208.454 149.681 208.348 149.633L204.985 148.088C204.596 147.909 204.425 147.449 204.605 147.06C204.784 146.672 205.245 146.502 205.635 146.681L208.998 148.225C209.388 148.404 209.558 148.864 209.379 149.253C209.248 149.537 208.967 149.704 208.673 149.704Z" fill="#3C4043"/>
<path d="M252.062 66.4947L274.266 66.0074C275.591 65.9783 276.689 67.0261 276.718 68.348C276.747 69.6696 275.697 70.7647 274.372 70.7939L252.167 71.2812C250.842 71.3104 249.745 70.2625 249.715 68.9406C249.686 67.6188 250.737 66.5239 252.062 66.4947Z" fill="#FFED96"/>
<path d="M252.113 72.0567C250.393 72.0567 248.976 70.6811 248.938 68.958C248.9 67.2113 250.293 65.759 252.044 65.7206L274.248 65.2333C275.999 65.1925 277.455 66.5846 277.494 68.3313C277.532 70.0779 276.139 71.5302 274.388 71.5686L252.184 72.0559C252.16 72.0564 252.136 72.0567 252.113 72.0567ZM252.078 67.2697C251.645 67.2792 251.241 67.4566 250.941 67.7688C250.641 68.0813 250.482 68.4914 250.491 68.9239C250.511 69.8163 251.256 70.5259 252.149 70.5071L274.354 70.0198C275.248 70.0002 275.96 69.258 275.941 68.3656C275.921 67.4732 275.177 66.7646 274.282 66.7824L252.078 67.2697ZM252.061 66.495H252.063H252.061Z" fill="#3C4043"/>
<path d="M256.523 49.6086C256.207 49.6086 255.91 49.4149 255.794 49.102C255.646 48.7007 255.852 48.2552 256.254 48.107C258.425 47.3078 259.884 45.2187 259.884 42.9086C259.884 39.8543 257.393 37.3697 254.332 37.3697C252.306 37.3697 250.441 38.4705 249.463 40.243C249.256 40.6179 248.784 40.7545 248.408 40.5482C248.032 40.3419 247.895 39.8709 248.102 39.4959C249.353 37.2287 251.74 35.8203 254.331 35.8203C258.249 35.8203 261.437 39.0001 261.437 42.9086C261.437 45.8646 259.57 48.5377 256.791 49.5606C256.703 49.5931 256.612 49.6086 256.523 49.6086Z" fill="#3C4043"/>
<path d="M239.299 170.203C235.337 170.202 232.126 166.99 232.127 163.028V146.87C232.127 146.869 232.127 146.868 232.127 146.868C232.128 141.071 236.829 136.373 242.627 136.375H276.059H276.06L283.809 105.934C284.948 101.455 288.983 98.3208 293.605 98.3223H319.592C323.093 98.322 325.932 101.16 325.932 104.661C325.932 105.188 325.866 105.714 325.736 106.226L310.508 166.045C309.884 168.491 307.681 170.203 305.155 170.203" fill="#B893F2"/>
<path d="M305.155 170.957C304.739 170.958 304.402 170.62 304.401 170.204C304.401 169.788 304.739 169.451 305.155 169.451C307.337 169.45 309.238 167.973 309.778 165.859L325.006 106.04C325.12 105.59 325.178 105.126 325.178 104.661C325.178 101.582 322.672 99.0762 319.591 99.0762H293.605C293.604 99.0762 293.603 99.0762 293.602 99.0762C289.321 99.0762 285.594 101.972 284.539 106.121L276.789 136.561C276.705 136.895 276.404 137.129 276.059 137.129H242.627C242.626 137.129 242.625 137.129 242.624 137.129C240.022 137.129 237.576 138.141 235.736 139.981C233.895 141.82 232.881 144.266 232.88 146.868V163.029C232.879 166.569 235.758 169.449 239.299 169.451C239.715 169.451 240.052 169.788 240.052 170.204C240.052 170.62 239.705 170.95 239.298 170.957C234.927 170.956 231.372 167.399 231.373 163.029V146.871C231.374 143.863 232.545 141.039 234.67 138.915C236.795 136.791 239.62 135.622 242.624 135.622C242.625 135.622 242.626 135.622 242.627 135.622H275.473L283.078 105.749C284.304 100.933 288.631 97.5693 293.602 97.5693C293.603 97.5693 293.604 97.5693 293.605 97.5693H319.591C323.503 97.5691 326.685 100.751 326.686 104.661C326.686 105.251 326.612 105.84 326.466 106.412L311.238 166.231C310.528 169.013 308.027 170.956 305.155 170.957Z" fill="#3C4043"/>
<path d="M312.59 240.02C312.174 240.02 311.836 239.683 311.836 239.267V177.138C311.836 173.6 310.546 170.957 309.392 170.957H235.325C234.171 170.957 232.881 173.599 232.88 177.135V239.267C232.88 239.683 232.543 240.02 232.127 240.02C231.71 240.02 231.373 239.683 231.373 239.267V177.135C231.374 172.754 233.073 169.45 235.325 169.45H309.392C311.645 169.45 313.344 172.755 313.344 177.138V239.267C313.344 239.683 313.006 240.02 312.59 240.02Z" fill="#3C4043"/>
<circle cx="179.5" cy="117.5" r="2.5" fill="#EAF6EC"/>
<circle cx="191.5" cy="122.5" r="2.5" fill="#EAF6EC"/>
<circle cx="170.5" cy="126.5" r="2.5" fill="#FCEAED"/>
<circle cx="184.5" cy="133.5" r="2.5" fill="#FFF1ED"/>
<circle cx="205.5" cy="124.5" r="2.5" fill="#FFF1ED"/>
<circle cx="172.5" cy="144.5" r="2.5" fill="#EAF6EC"/>
<circle cx="200.5" cy="158.5" r="2.5" fill="#EAF6EC"/>
<circle cx="223.5" cy="147.5" r="2.5" fill="#EAF6EC"/>
<circle cx="218.5" cy="130.5" r="2.5" fill="#EAF6EC"/>
<circle cx="186.5" cy="149.5" r="2.5" fill="#FCEAED"/>
<circle cx="204.5" cy="137.5" r="2.5" fill="#FCEAED"/>
<circle cx="170.5" cy="162.5" r="2.5" fill="#FFF1ED"/>
<circle cx="214.5" cy="141.5" r="2.5" fill="#FFF1ED"/>
<circle cx="228.5" cy="134.5" r="2.5" fill="#FFF1ED"/>
<circle cx="187.5" cy="168.5" r="2.5" fill="#FFF1ED"/>
<circle cx="199.5" cy="187.5" r="2.5" fill="#FCEAED"/>
<circle cx="186.5" cy="192.5" r="2.5" fill="#FFF1ED"/>
<circle cx="172.5" cy="192.5" r="2.5" fill="#EAF6EC"/>
<circle cx="179.5" cy="179.5" r="2.5" fill="#EAF6EC"/>
<circle cx="165.5" cy="179.5" r="2.5" fill="#FCEAED"/>
<circle cx="198.5" cy="202.5" r="2.5" fill="#FCEAED"/>
<circle cx="220.5" cy="199.5" r="2.5" fill="#EAF6EC"/>
<circle cx="213.5" cy="185.5" r="2.5" fill="#EAF6EC"/>
<circle cx="225.5" cy="180.5" r="2.5" fill="#FFF1ED"/>
<circle cx="211.5" cy="166.5" r="2.5" fill="#EAF6EC"/>
<circle cx="223.5" cy="166.5" r="2.5" fill="#FCEAED"/>
<circle cx="216.5" cy="157.5" r="2.5" fill="#FCEAED"/>
<circle cx="241.5" cy="177.5" r="2.5" fill="#EAF6EC"/>
<circle cx="242.5" cy="189.5" r="2.5" fill="#FCEAED"/>
<path d="M133.961 100.986H123.297C123.27 99.2789 123.256 98.2585 123.256 97.8776C123.256 94.0612 123.826 90.9229 124.967 88.4626C126.114 85.9864 128.409 83.2245 131.831 80.1293C135.259 77.0476 137.314 75.034 137.966 74.0748C138.993 72.6115 139.537 70.87 139.526 69.0884C139.526 66.5646 138.614 64.3991 136.791 62.5918C134.964 60.7891 132.511 59.8912 129.412 59.8912C126.43 59.8912 123.932 60.8322 121.916 62.7143C119.917 64.5918 118.536 67.4558 117.773 71.3061L107 69.8231C107.302 64.2993 109.425 59.6145 113.369 55.7687C117.32 51.9184 122.487 50 128.918 50C135.658 50 141.026 51.9501 145.022 55.8503C149.001 59.7415 150.993 64.2789 151 69.4626C151 72.3197 150.258 75.034 148.801 77.585C147.331 80.1361 144.2 83.6168 139.409 88.0272C136.922 90.3129 135.39 92.1429 134.785 93.5374C134.174 94.9252 133.899 97.4014 133.961 100.986Z" fill="#B893F2"/>
<path d="M133.954 104.299H123.414V113.999H133.954V104.299Z" fill="#B893F2"/>
</svg>
