<?xml version="1.0" encoding="UTF-8" standalone="no"?>
<!DOCTYPE svg PUBLIC "-//W3C//DTD SVG 1.1//EN"
 "http://www.w3.org/Graphics/SVG/1.1/DTD/svg11.dtd">
<!-- Generated by graphviz version 5.0.0 (20220707.1540)
 -->
<!-- Title: dependencies Pages: 1 -->
<svg width="599pt" height="174pt"
 viewBox="0.00 0.00 599.00 173.80" xmlns="http://www.w3.org/2000/svg" xmlns:xlink="http://www.w3.org/1999/xlink">
<g id="graph0" class="graph" transform="scale(1 1) rotate(0) translate(4 169.8)">
<title>dependencies</title>
<polygon fill="white" stroke="transparent" points="-4,4 -4,-169.8 595,-169.8 595,4 -4,4"/>
<text text-anchor="middle" x="295.5" y="-8.2" font-family="sans-serif" font-size="14.00">dependencies</text>
<g id="clust1" class="cluster">
<title>cluster_FieldManagementModule</title>
<polygon fill="none" stroke="black" stroke-dasharray="1,5" points="8,-32.8 8,-157.8 583,-157.8 583,-32.8 8,-32.8"/>
</g>
<g id="clust2" class="cluster">
<title>cluster_FieldManagementModule_declarations</title>
<polygon fill="none" stroke="black" points="375,-40.8 375,-92.8 575,-92.8 575,-40.8 375,-40.8"/>
</g>
<g id="clust4" class="cluster">
<title>cluster_FieldManagementModule_imports</title>
<polygon fill="none" stroke="black" points="16,-40.8 16,-92.8 367,-92.8 367,-40.8 16,-40.8"/>
</g>
<!-- FieldManagementComponent -->
<g id="node1" class="node">
<title>FieldManagementComponent</title>
<polygon fill="#ffffb3" stroke="black" points="566.69,-84.8 383.31,-84.8 383.31,-48.8 566.69,-48.8 566.69,-84.8"/>
<text text-anchor="middle" x="475" y="-62.6" font-family="Times,serif" font-size="14.00">FieldManagementComponent</text>
</g>
<!-- FieldManagementModule -->
<g id="node2" class="node">
<title>FieldManagementModule</title>
<polygon fill="#8dd3c7" stroke="black" points="336.91,-149.8 333.91,-153.8 312.91,-153.8 309.91,-149.8 175.09,-149.8 175.09,-113.8 336.91,-113.8 336.91,-149.8"/>
<text text-anchor="middle" x="256" y="-127.6" font-family="Times,serif" font-size="14.00">FieldManagementModule</text>
</g>
<!-- FieldManagementComponent&#45;&gt;FieldManagementModule -->
<g id="edge1" class="edge">
<title>FieldManagementComponent&#45;&gt;FieldManagementModule</title>
<path fill="none" stroke="black" d="M475,-84.91C475,-104.14 475,-131.8 475,-131.8 475,-131.8 346.93,-131.8 346.93,-131.8"/>
<polygon fill="black" stroke="black" points="346.93,-128.3 336.93,-131.8 346.93,-135.3 346.93,-128.3"/>
</g>
<!-- FieldManagementRoutingModule -->
<g id="node3" class="node">
<title>FieldManagementRoutingModule</title>
<polygon fill="#8dd3c7" stroke="black" points="359.03,-84.8 356.03,-88.8 335.03,-88.8 332.03,-84.8 152.97,-84.8 152.97,-48.8 359.03,-48.8 359.03,-84.8"/>
<text text-anchor="middle" x="256" y="-62.6" font-family="Times,serif" font-size="14.00">FieldManagementRoutingModule</text>
</g>
<!-- FieldManagementRoutingModule&#45;&gt;FieldManagementModule -->
<g id="edge2" class="edge">
<title>FieldManagementRoutingModule&#45;&gt;FieldManagementModule</title>
<path fill="none" stroke="black" d="M256,-84.91C256,-84.91 256,-103.79 256,-103.79"/>
<polygon fill="black" stroke="black" points="252.5,-103.79 256,-113.79 259.5,-103.79 252.5,-103.79"/>
</g>
<!-- KrModalModule -->
<g id="node4" class="node">
<title>KrModalModule</title>
<polygon fill="#8dd3c7" stroke="black" points="134.38,-84.8 131.38,-88.8 110.38,-88.8 107.38,-84.8 23.62,-84.8 23.62,-48.8 134.38,-48.8 134.38,-84.8"/>
<text text-anchor="middle" x="79" y="-62.6" font-family="Times,serif" font-size="14.00">KrModalModule</text>
</g>
<!-- KrModalModule&#45;&gt;FieldManagementModule -->
<g id="edge3" class="edge">
<title>KrModalModule&#45;&gt;FieldManagementModule</title>
<path fill="none" stroke="black" d="M79,-84.91C79,-104.14 79,-131.8 79,-131.8 79,-131.8 165.27,-131.8 165.27,-131.8"/>
<polygon fill="black" stroke="black" points="165.27,-135.3 175.27,-131.8 165.27,-128.3 165.27,-135.3"/>
</g>
</g>
</svg>
