<?xml version="1.0" encoding="UTF-8" standalone="no"?>
<!DOCTYPE svg PUBLIC "-//W3C//DTD SVG 1.1//EN"
 "http://www.w3.org/Graphics/SVG/1.1/DTD/svg11.dtd">
<!-- Generated by graphviz version 5.0.0 (20220707.1540)
 -->
<!-- Title: dependencies Pages: 1 -->
<svg width="752pt" height="174pt"
 viewBox="0.00 0.00 752.00 173.80" xmlns="http://www.w3.org/2000/svg" xmlns:xlink="http://www.w3.org/1999/xlink">
<g id="graph0" class="graph" transform="scale(1 1) rotate(0) translate(4 169.8)">
<title>dependencies</title>
<polygon fill="white" stroke="transparent" points="-4,4 -4,-169.8 748,-169.8 748,4 -4,4"/>
<text text-anchor="middle" x="372" y="-8.2" font-family="sans-serif" font-size="14.00">dependencies</text>
<g id="clust1" class="cluster">
<title>cluster_FieldManagementModule</title>
<polygon fill="none" stroke="black" stroke-dasharray="1,5" points="8,-32.8 8,-157.8 736,-157.8 736,-32.8 8,-32.8"/>
</g>
<g id="clust4" class="cluster">
<title>cluster_FieldManagementModule_imports</title>
<polygon fill="none" stroke="black" points="224,-40.8 224,-92.8 728,-92.8 728,-40.8 224,-40.8"/>
</g>
<g id="clust2" class="cluster">
<title>cluster_FieldManagementModule_declarations</title>
<polygon fill="none" stroke="black" points="16,-40.8 16,-92.8 216,-92.8 216,-40.8 16,-40.8"/>
</g>
<!-- FieldManagementComponent -->
<g id="node1" class="node">
<title>FieldManagementComponent</title>
<polygon fill="#ffffb3" stroke="black" points="207.69,-84.8 24.31,-84.8 24.31,-48.8 207.69,-48.8 207.69,-84.8"/>
<text text-anchor="middle" x="116" y="-62.6" font-family="Times,serif" font-size="14.00">FieldManagementComponent</text>
</g>
<!-- FieldManagementModule -->
<g id="node2" class="node">
<title>FieldManagementModule</title>
<polygon fill="#8dd3c7" stroke="black" points="455.91,-149.8 452.91,-153.8 431.91,-153.8 428.91,-149.8 294.09,-149.8 294.09,-113.8 455.91,-113.8 455.91,-149.8"/>
<text text-anchor="middle" x="375" y="-127.6" font-family="Times,serif" font-size="14.00">FieldManagementModule</text>
</g>
<!-- FieldManagementComponent&#45;&gt;FieldManagementModule -->
<g id="edge1" class="edge">
<title>FieldManagementComponent&#45;&gt;FieldManagementModule</title>
<path fill="none" stroke="black" d="M116,-84.91C116,-104.14 116,-131.8 116,-131.8 116,-131.8 284.12,-131.8 284.12,-131.8"/>
<polygon fill="black" stroke="black" points="284.12,-135.3 294.12,-131.8 284.12,-128.3 284.12,-135.3"/>
</g>
<!-- EmptyScreenModule -->
<g id="node3" class="node">
<title>EmptyScreenModule</title>
<polygon fill="#8dd3c7" stroke="black" points="720.47,-84.8 717.47,-88.8 696.47,-88.8 693.47,-84.8 585.53,-84.8 585.53,-48.8 720.47,-48.8 720.47,-84.8"/>
<text text-anchor="middle" x="653" y="-62.6" font-family="Times,serif" font-size="14.00">EmptyScreenModule</text>
</g>
<!-- EmptyScreenModule&#45;&gt;FieldManagementModule -->
<g id="edge2" class="edge">
<title>EmptyScreenModule&#45;&gt;FieldManagementModule</title>
<path fill="none" stroke="black" d="M653,-84.91C653,-104.14 653,-131.8 653,-131.8 653,-131.8 465.78,-131.8 465.78,-131.8"/>
<polygon fill="black" stroke="black" points="465.78,-128.3 455.78,-131.8 465.78,-135.3 465.78,-128.3"/>
</g>
<!-- FieldManagementRoutingModule -->
<g id="node4" class="node">
<title>FieldManagementRoutingModule</title>
<polygon fill="#8dd3c7" stroke="black" points="567.03,-84.8 564.03,-88.8 543.03,-88.8 540.03,-84.8 360.97,-84.8 360.97,-48.8 567.03,-48.8 567.03,-84.8"/>
<text text-anchor="middle" x="464" y="-62.6" font-family="Times,serif" font-size="14.00">FieldManagementRoutingModule</text>
</g>
<!-- FieldManagementRoutingModule&#45;&gt;FieldManagementModule -->
<g id="edge3" class="edge">
<title>FieldManagementRoutingModule&#45;&gt;FieldManagementModule</title>
<path fill="none" stroke="black" d="M408.22,-84.91C408.22,-84.91 408.22,-103.79 408.22,-103.79"/>
<polygon fill="black" stroke="black" points="404.72,-103.79 408.22,-113.79 411.72,-103.79 404.72,-103.79"/>
</g>
<!-- KrModalModule -->
<g id="node5" class="node">
<title>KrModalModule</title>
<polygon fill="#8dd3c7" stroke="black" points="342.38,-84.8 339.38,-88.8 318.38,-88.8 315.38,-84.8 231.62,-84.8 231.62,-48.8 342.38,-48.8 342.38,-84.8"/>
<text text-anchor="middle" x="287" y="-62.6" font-family="Times,serif" font-size="14.00">KrModalModule</text>
</g>
<!-- KrModalModule&#45;&gt;FieldManagementModule -->
<g id="edge4" class="edge">
<title>KrModalModule&#45;&gt;FieldManagementModule</title>
<path fill="none" stroke="black" d="M318.37,-84.91C318.37,-84.91 318.37,-103.79 318.37,-103.79"/>
<polygon fill="black" stroke="black" points="314.87,-103.79 318.37,-113.79 321.87,-103.79 314.87,-103.79"/>
</g>
</g>
</svg>
