<svg width="411" height="450" viewBox="0 0 411 450" fill="none" xmlns="http://www.w3.org/2000/svg">
<path opacity="0.1" d="M214 448L0 -0.5H413.5V448H214Z" fill="#F2B705"/>
<circle cx="317.5" cy="96.5" r="163.5" fill="#FAE29B"/>
<circle cx="317.5" cy="97.5" r="63.5" fill="#F5C537"/>
<circle cx="406.5" cy="443.5" r="131.5" fill="#FAE29B"/>
<circle cx="152" cy="328" r="65" fill="#F5C537"/>
<g clip-path="url(#clip0_391_60858)">
<g clip-path="url(#clip1_391_60858)">
<path d="M305.146 302.251H166.7C164.161 302.251 162.014 300.193 162.014 297.661L162.023 186.605C162.023 184.401 163.897 182.434 166.099 182.434H305.473C307.83 182.434 309.568 184.529 309.568 186.897L309.741 297.642C309.741 300.184 307.684 302.251 305.146 302.251Z" fill="white"/>
<path d="M305.355 302.249H166.145C163.715 302.249 161.75 300.281 161.75 297.849V190.766H309.75V297.849C309.75 300.272 307.776 302.249 305.355 302.249ZM162.114 191.13V297.849C162.114 300.081 163.915 301.885 166.145 301.885H305.355C307.585 301.885 309.386 300.081 309.386 297.849V191.13H162.114Z" fill="#66B0F0"/>
<path d="M309.75 191.131H161.75V186.659C161.75 184.227 163.724 182.25 166.154 182.25H305.355C307.785 182.25 309.75 184.227 309.759 186.659V191.131H309.75ZM162.114 190.767H309.386V186.659C309.386 184.427 307.575 182.623 305.346 182.614H166.154C163.925 182.614 162.114 184.427 162.114 186.659V190.767Z" fill="#66B0F0"/>
<path d="M286.712 189.047C287.968 189.047 288.987 188.027 288.987 186.769C288.987 185.512 287.968 184.492 286.712 184.492C285.456 184.492 284.438 185.512 284.438 186.769C284.438 188.027 285.456 189.047 286.712 189.047Z" fill="#21A0AA"/>
<path d="M294.692 189.129C295.948 189.129 296.966 188.109 296.966 186.851C296.966 185.594 295.948 184.574 294.692 184.574C293.435 184.574 292.417 185.594 292.417 186.851C292.417 188.109 293.435 189.129 294.692 189.129Z" fill="#FFCF2D"/>
<path d="M302.043 189.047C303.3 189.047 304.318 188.027 304.318 186.769C304.318 185.512 303.3 184.492 302.043 184.492C300.787 184.492 299.769 185.512 299.769 186.769C299.769 188.027 300.787 189.047 302.043 189.047Z" fill="#F94F46"/>
</g>
<g clip-path="url(#clip2_391_60858)">
<path d="M159.332 213.811C147.84 213.963 138.671 223.406 138.816 234.897C138.961 246.388 148.4 255.552 159.891 255.401C171.382 255.249 180.552 245.805 180.407 234.315C180.261 222.824 170.823 213.659 159.332 213.811ZM159.815 248.469C152.159 248.587 145.878 242.455 145.765 234.8C145.651 227.145 151.786 220.861 159.442 220.743C167.097 220.625 173.378 226.757 173.492 234.412C173.572 242.067 167.453 248.368 159.815 248.469Z" fill="#5B2448"/>
<path d="M210.545 240.06C211.176 241.467 211.535 243.004 211.556 244.636L211.685 255.151C211.684 255.184 211.684 255.218 211.7 255.235L212.282 299.314C212.368 305.708 207.261 310.933 200.884 311.04L121.253 312.15C114.859 312.239 109.637 307.135 109.533 300.758L108.936 256.628L108.936 256.595L108.79 246.096C108.769 244.464 109.083 242.906 109.697 241.487C111.42 237.379 115.46 234.439 120.204 234.388L199.836 233.278C204.58 233.193 208.701 235.99 210.545 240.06Z" fill="#F94F46"/>
<path d="M210.744 255.165C210.818 261.272 205.933 266.317 199.826 266.394L121.137 267.487C115.029 267.565 110.004 262.666 109.913 256.575L109.715 241.501C109.117 242.903 108.786 244.479 108.807 246.111L108.953 256.609L108.953 256.643C109.052 263.255 114.524 268.548 121.135 268.479L199.825 267.387C203.005 267.325 205.887 266.063 208.01 264.015C210.304 261.801 211.706 258.697 211.683 255.282C211.684 255.249 211.685 255.215 211.668 255.198L211.522 244.7C211.501 243.068 211.142 241.497 210.511 240.124L210.744 255.165Z" fill="#FCB6B1"/>
<path d="M134.86 273.18C133.295 273.203 131.989 271.953 131.967 270.354L131.898 265.828C131.876 264.264 133.127 262.957 134.726 262.934C136.29 262.911 137.597 264.162 137.618 265.761L137.688 270.286C137.693 271.868 136.458 273.158 134.86 273.18ZM186.949 272.446C185.385 272.469 184.078 271.218 184.057 269.62L183.987 265.094C183.965 263.529 185.217 262.222 186.815 262.2C188.38 262.177 189.686 263.428 189.708 265.026L189.777 269.552C189.782 271.133 188.531 272.44 186.949 272.446Z" fill="#FFCF2D"/>
</g>
<g clip-path="url(#clip3_391_60858)">
<path d="M244.369 281.502C243.674 281.502 243.261 280.726 243.65 280.151L279.258 227.511C280.407 225.812 282.678 225.294 284.452 226.326L323.083 248.797L342.792 226.178C344.206 224.555 346.669 224.384 348.294 225.797C349.919 227.209 350.089 229.669 348.676 231.291L326.849 256.341C325.621 257.751 323.562 258.09 321.945 257.149L283.678 234.89L252.748 280.615C252.564 280.888 252.315 281.112 252.023 281.266C251.732 281.421 251.407 281.502 251.077 281.502H244.369Z" fill="#00676C"/>
<path d="M351 223.321L350.763 238.669C350.758 239.003 350.363 239.179 350.111 238.959L334.966 225.796C334.713 225.577 334.833 225.162 335.164 225.111L350.351 222.757C350.696 222.703 351.006 222.973 351 223.321Z" fill="#00676C"/>
</g>
<g clip-path="url(#clip4_391_60858)">
<path d="M227.617 192.816H227.702C227.67 192.827 227.638 192.827 227.617 192.816Z" fill="white"/>
<path d="M227.702 193.037H227.607C227.49 193.037 227.405 192.942 227.405 192.825C227.405 192.709 227.501 192.613 227.607 192.613H227.692C227.745 192.613 227.809 192.634 227.851 192.677C227.894 192.719 227.915 192.772 227.915 192.825C227.915 192.931 227.819 193.037 227.702 193.037Z" fill="#66B0F0"/>
<path d="M227.479 192.816H227.564C227.533 192.827 227.511 192.827 227.479 192.816Z" fill="white"/>
<path d="M227.48 193.04C227.363 193.04 227.268 192.945 227.268 192.828C227.268 192.775 227.289 192.711 227.331 192.669C227.374 192.627 227.427 192.605 227.49 192.605H227.575C227.692 192.605 227.777 192.701 227.777 192.818C227.777 192.934 227.692 193.03 227.575 193.03C227.544 193.04 227.512 193.04 227.48 193.04Z" fill="#66B0F0"/>
<path d="M239.623 212.047H221.047C219.56 219.574 214.253 263.785 208.383 294.424H230.844L252.754 293.894C246.417 262.512 241.003 219.68 239.623 212.047Z" fill="#FFBD10"/>
<path d="M274.674 287.204C273.474 287.204 272.339 287.437 271.288 287.872C270.099 281.808 264.738 277.238 258.327 277.238C253.454 277.238 249.198 279.868 246.905 283.79C245.78 285.72 245.132 287.946 245.111 290.342C244.23 289.961 243.264 289.749 242.245 289.749C240.982 289.749 239.793 290.077 238.752 290.65C238.954 289.929 239.06 289.166 239.06 288.37C239.06 283.631 235.207 279.783 230.462 279.783C226.29 279.783 222.819 282.741 222.034 286.674C220.76 285.805 219.221 285.296 217.565 285.296C215.707 285.296 214.009 285.932 212.661 287.003C212.385 287.225 212.13 287.459 211.886 287.713C211.801 287.384 211.472 286.462 211.387 286.208C209.444 281.331 204.678 277.885 199.105 277.885C191.802 277.885 185.889 283.79 185.889 291.084C185.889 291.233 185.889 291.381 185.9 291.53C185.274 291.35 184.616 291.243 183.926 291.243C180.083 291.243 176.973 294.35 176.973 298.188C176.973 302.026 180.083 305.132 183.926 305.132C184.69 305.132 185.433 305.005 186.123 304.782C186.845 307.369 189.222 309.267 192.046 309.267C194.127 309.267 195.974 308.228 197.088 306.648C199.413 310.751 203.818 313.508 208.871 313.508C211.737 313.508 214.38 312.617 216.567 311.112C219.539 313.614 223.223 315.299 227.278 315.798H232.426C236.226 315.331 239.708 313.815 242.574 311.578C243.72 312.458 245.153 312.978 246.714 312.978C249.452 312.978 251.809 311.366 252.881 309.044C255.163 310.825 258.04 311.896 261.171 311.896C266.32 311.896 270.789 309.012 273.06 304.782C273.591 304.878 274.132 304.931 274.684 304.931C279.578 304.931 283.548 300.966 283.548 296.078C283.548 291.19 279.567 287.204 274.674 287.204Z" fill="white"/>
<path d="M232.416 316H227.257C223.318 315.513 219.614 313.912 216.557 311.367C214.285 312.904 211.631 313.71 208.871 313.71C204.031 313.71 199.541 311.155 197.067 307.02C195.868 308.558 194.01 309.469 192.046 309.469C189.276 309.469 186.813 307.656 185.975 305.038C185.306 305.239 184.627 305.335 183.926 305.335C179.977 305.335 176.761 302.122 176.761 298.178C176.761 294.234 179.977 291.022 183.926 291.022C184.52 291.022 185.104 291.096 185.677 291.234V291.075C185.677 283.675 191.696 277.663 199.105 277.663C201.844 277.663 204.487 278.48 206.727 280.038C208.924 281.554 210.602 283.654 211.589 286.124C211.589 286.124 211.589 286.134 211.599 286.134C211.631 286.23 211.684 286.41 211.759 286.612L211.992 287.311C212.162 287.142 212.353 286.983 212.534 286.834C213.977 285.689 215.729 285.085 217.576 285.085C219.115 285.085 220.612 285.52 221.896 286.325C222.83 282.392 226.386 279.572 230.473 279.572C235.335 279.572 239.284 283.516 239.284 288.371C239.284 289.008 239.22 289.633 239.082 290.248C240.069 289.782 241.152 289.538 242.256 289.538C243.179 289.538 244.071 289.707 244.92 290.025C244.984 287.788 245.61 285.604 246.735 283.685C249.134 279.572 253.582 277.027 258.338 277.027C264.654 277.027 270.131 281.448 271.458 287.587C272.488 287.195 273.57 286.993 274.685 286.993C279.685 286.993 283.761 291.064 283.761 296.058C283.761 301.051 279.685 305.123 274.685 305.123C274.175 305.123 273.666 305.08 273.167 304.995C270.757 309.374 266.172 312.088 261.161 312.088C258.168 312.088 255.334 311.144 252.945 309.353C251.756 311.685 249.336 313.18 246.703 313.18C245.196 313.18 243.774 312.714 242.564 311.834C239.623 314.102 236.12 315.544 232.447 316H232.416ZM227.289 315.576H232.405C236.057 315.12 239.528 313.678 242.436 311.399C242.511 311.335 242.617 311.335 242.702 311.399C243.859 312.29 245.249 312.756 246.714 312.756C249.272 312.756 251.618 311.261 252.69 308.939C252.722 308.876 252.775 308.833 252.828 308.823C252.892 308.812 252.956 308.823 253.009 308.865C255.355 310.699 258.178 311.664 261.172 311.664C266.076 311.664 270.556 308.982 272.87 304.656C272.912 304.571 273.008 304.529 273.093 304.55C273.613 304.645 274.143 304.698 274.685 304.698C279.451 304.698 283.336 300.818 283.336 296.058C283.336 291.298 279.451 287.417 274.685 287.417C273.538 287.417 272.434 287.64 271.384 288.064C271.32 288.085 271.256 288.085 271.203 288.053C271.15 288.022 271.108 287.969 271.097 287.905C269.897 281.841 264.537 277.441 258.338 277.441C253.731 277.441 249.421 279.911 247.096 283.887C245.96 285.838 245.345 288.064 245.334 290.333C245.334 290.407 245.302 290.471 245.239 290.513C245.175 290.555 245.101 290.555 245.037 290.534C244.156 290.153 243.222 289.962 242.256 289.962C241.067 289.962 239.899 290.259 238.87 290.831C238.795 290.874 238.7 290.863 238.636 290.81C238.572 290.757 238.541 290.672 238.562 290.587C238.763 289.866 238.859 289.124 238.859 288.371C238.859 283.749 235.101 279.996 230.473 279.996C226.492 279.996 223.032 282.827 222.246 286.718C222.236 286.792 222.183 286.845 222.119 286.877C222.055 286.908 221.981 286.898 221.917 286.855C220.633 285.975 219.136 285.509 217.576 285.509C215.824 285.509 214.168 286.081 212.799 287.173C212.534 287.385 212.279 287.619 212.045 287.863C211.992 287.916 211.918 287.937 211.844 287.916C211.769 287.894 211.716 287.841 211.695 287.767C211.642 287.566 211.493 287.12 211.366 286.76C211.292 286.559 211.239 286.378 211.207 286.283C210.251 283.897 208.627 281.862 206.504 280.399C204.328 278.893 201.77 278.098 199.116 278.098C191.951 278.098 186.113 283.929 186.113 291.086C186.113 291.245 186.113 291.382 186.123 291.52C186.123 291.584 186.091 291.658 186.038 291.7C185.985 291.743 185.911 291.753 185.847 291.732C185.232 291.552 184.584 291.457 183.937 291.457C180.221 291.457 177.196 294.478 177.196 298.189C177.196 301.9 180.221 304.921 183.937 304.921C184.658 304.921 185.38 304.805 186.06 304.582C186.113 304.561 186.176 304.571 186.229 304.592C186.282 304.624 186.314 304.667 186.336 304.72C187.047 307.275 189.403 309.056 192.057 309.056C193.989 309.056 195.815 308.112 196.929 306.522C196.972 306.458 197.046 306.427 197.11 306.437C197.184 306.437 197.248 306.48 197.28 306.543C199.647 310.71 204.084 313.297 208.871 313.297C211.599 313.297 214.221 312.48 216.451 310.932C216.525 310.879 216.631 310.879 216.705 310.943C219.72 313.477 223.382 315.088 227.289 315.576Z" fill="#66B0F0"/>
<path d="M210.188 290.343C211.334 287.396 214.2 285.297 217.565 285.297C220.569 285.297 223.18 286.972 224.518 289.432" fill="white"/>
<path d="M210.187 290.557C210.166 290.557 210.134 290.557 210.113 290.546C210.007 290.504 209.954 290.376 209.996 290.27C210.58 288.765 211.599 287.471 212.926 286.538C214.295 285.584 215.898 285.086 217.565 285.086C220.547 285.086 223.286 286.708 224.709 289.327C224.762 289.433 224.73 289.56 224.624 289.613C224.518 289.666 224.39 289.634 224.337 289.528C222.989 287.047 220.399 285.51 217.565 285.51C214.412 285.51 211.525 287.482 210.389 290.419C210.357 290.504 210.272 290.557 210.187 290.557Z" fill="#66B0F0"/>
<path d="M236.8 292.231C238.127 290.715 240.069 289.75 242.245 289.75C244.241 289.75 246.046 290.556 247.351 291.86" fill="white"/>
<path d="M236.8 292.444C236.747 292.444 236.704 292.423 236.662 292.391C236.577 292.317 236.566 292.179 236.641 292.094C238.052 290.472 240.101 289.539 242.245 289.539C244.23 289.539 246.099 290.313 247.5 291.712C247.585 291.797 247.585 291.925 247.5 292.009C247.415 292.094 247.287 292.094 247.203 292.009C245.876 290.684 244.124 289.963 242.245 289.963C240.218 289.963 238.286 290.843 236.959 292.37C236.917 292.412 236.853 292.444 236.8 292.444Z" fill="#66B0F0"/>
<path d="M271.33 287.895C272.392 287.45 273.453 287.195 274.674 287.195C279.568 287.195 283.538 291.16 283.538 296.048C283.538 300.935 279.568 304.901 274.674 304.901C272.976 304.901 271.394 304.424 270.046 303.597" fill="white"/>
<path d="M274.674 305.12C272.997 305.12 271.362 304.665 269.94 303.785C269.844 303.721 269.812 303.594 269.865 303.488C269.929 303.392 270.056 303.361 270.163 303.414C271.521 304.24 273.082 304.686 274.674 304.686C279.44 304.686 283.325 300.805 283.325 296.045C283.325 291.285 279.44 287.405 274.674 287.405C273.549 287.405 272.509 287.617 271.415 288.083C271.309 288.125 271.182 288.083 271.139 287.966C271.097 287.86 271.139 287.733 271.256 287.691C272.402 287.203 273.496 286.98 274.685 286.98C279.684 286.98 283.761 291.052 283.761 296.045C283.761 301.039 279.674 305.12 274.674 305.12Z" fill="#66B0F0"/>
<path d="M188.575 293.014C187.343 291.901 185.709 291.223 183.915 291.223C180.072 291.223 176.962 294.329 176.962 298.167C176.962 302.005 180.072 305.111 183.915 305.111C184.594 305.111 185.263 305.016 185.889 304.825" fill="white"/>
<path d="M183.915 305.336C179.966 305.336 176.75 302.124 176.75 298.18C176.75 294.236 179.966 291.023 183.915 291.023C185.688 291.023 187.397 291.681 188.713 292.868C188.798 292.942 188.809 293.08 188.724 293.165C188.65 293.25 188.512 293.26 188.427 293.176C187.185 292.062 185.582 291.448 183.915 291.448C180.2 291.448 177.175 294.469 177.175 298.18C177.175 301.89 180.2 304.912 183.915 304.912C184.563 304.912 185.21 304.817 185.826 304.636C185.943 304.605 186.059 304.668 186.091 304.785C186.123 304.901 186.059 305.018 185.943 305.05C185.285 305.23 184.605 305.336 183.915 305.336Z" fill="#66B0F0"/>
<path d="M230.335 233.465C236.291 233.465 241.12 228.642 241.12 222.693C241.12 216.744 236.291 211.922 230.335 211.922C224.378 211.922 219.55 216.744 219.55 222.693C219.55 228.642 224.378 233.465 230.335 233.465Z" fill="#FFCF2D"/>
<path d="M241.12 223.084C241.12 229.032 233.403 246.695 230.441 246.695C227.67 246.695 219.561 229.032 219.561 223.084C219.561 217.136 224.39 212.312 230.345 212.312C236.301 212.312 241.12 217.147 241.12 223.084Z" fill="#FFCF2D"/>
<path d="M239.899 212.897C239.899 218.124 233.116 233.656 230.505 233.656C228.074 233.656 220.94 218.124 220.94 212.897C220.94 207.67 225.186 203.43 230.42 203.43C235.653 203.43 239.899 207.67 239.899 212.897Z" fill="#F94F46"/>
<path d="M212.597 187.598L204.01 198.518C202.855 199.988 202.227 201.802 202.227 203.671V220.888C202.227 222.638 204.636 223.104 205.294 221.482C207.927 214.962 212.194 207.053 217.916 205.25L215.495 186.379L212.597 187.598Z" fill="#66B0F0"/>
<path d="M203.829 222.704C203.712 222.704 203.585 222.693 203.479 222.672C202.757 222.534 202.024 221.93 202.024 220.902V203.684C202.024 201.776 202.672 199.899 203.85 198.404L212.459 187.431L215.665 186.074L218.138 205.412L217.968 205.465C212.289 207.257 208.043 215.219 205.485 221.58C205.166 222.375 204.476 222.704 203.829 222.704ZM212.724 187.781L204.169 198.659C203.043 200.09 202.428 201.871 202.428 203.684V220.902C202.428 221.739 203.033 222.153 203.542 222.248C204.052 222.344 204.774 222.185 205.082 221.411C207.65 215.028 211.918 207.056 217.66 205.105L215.304 186.668L212.724 187.781ZM248.221 187.601L256.809 198.521C257.966 199.995 258.592 201.808 258.592 203.673V221.061C258.592 222.778 256.225 223.234 255.588 221.644C252.966 215.102 248.678 207.087 242.914 205.264L245.323 186.382L248.221 187.601Z" fill="#66B0F0"/>
<path d="M257.022 222.842C256.385 222.842 255.705 222.524 255.398 221.729C252.829 215.304 248.561 207.268 242.851 205.465L242.681 205.412L242.702 205.232L245.154 186.074L248.36 187.431L256.979 198.394C258.157 199.899 258.805 201.776 258.805 203.673V221.061C258.805 222.068 258.083 222.662 257.372 222.799C257.255 222.831 257.138 222.842 257.022 222.842ZM243.137 205.115C248.922 207.066 253.2 215.124 255.78 221.57C256.088 222.333 256.777 222.481 257.276 222.386C257.775 222.291 258.37 221.888 258.37 221.061V203.673C258.37 201.861 257.754 200.079 256.629 198.648L248.073 187.771L245.483 186.679L243.137 205.115Z" fill="#66B0F0"/>
<path d="M230.356 131.844H230.293C219.635 133.264 198.936 168.145 221.015 212.037H239.623C261.703 168.145 241.003 133.264 230.356 131.844Z" fill="white"/>
<path d="M239.623 212.25H221.015C220.93 212.25 220.866 212.208 220.824 212.134C214.189 198.934 210.888 185.607 211.015 172.503C211.121 162.113 213.52 151.978 217.756 143.952C219.624 140.432 221.8 137.411 224.051 135.227C226.216 133.128 228.36 131.887 230.25 131.633H230.377C232.256 131.887 234.4 133.128 236.576 135.227C238.827 137.411 241.003 140.422 242.871 143.952C247.117 151.967 249.506 162.103 249.612 172.503C249.739 185.607 246.448 198.945 239.803 212.134C239.782 212.197 239.708 212.25 239.623 212.25ZM221.142 211.826H239.485C246.056 198.733 249.314 185.501 249.187 172.503C249.081 162.177 246.703 152.105 242.489 144.154C238.869 137.315 234.103 132.576 230.335 132.067H230.292C226.524 132.576 221.747 137.326 218.138 144.154C213.924 152.116 211.546 162.177 211.44 172.503C211.312 185.501 214.582 198.722 221.142 211.826Z" fill="#66B0F0"/>
<path d="M230.388 176.616C234.545 176.616 237.914 173.25 237.914 169.099C237.914 164.947 234.545 161.582 230.388 161.582C226.232 161.582 222.862 164.947 222.862 169.099C222.862 173.25 226.232 176.616 230.388 176.616Z" fill="#66B0F0"/>
<path d="M230.388 176.829C226.121 176.829 222.649 173.362 222.649 169.1C222.649 164.838 226.121 161.371 230.388 161.371C234.655 161.371 238.126 164.838 238.126 169.1C238.126 173.362 234.655 176.829 230.388 176.829ZM230.388 161.795C226.354 161.795 223.074 165.071 223.074 169.1C223.074 173.129 226.354 176.405 230.388 176.405C234.422 176.405 237.702 173.129 237.702 169.1C237.702 165.071 234.422 161.795 230.388 161.795Z" fill="#66B0F0"/>
<path d="M235.653 171.378C235.632 171.378 235.6 171.378 235.579 171.367C235.473 171.325 235.409 171.208 235.451 171.091C235.504 170.954 235.558 170.805 235.6 170.657C235.696 170.317 235.77 169.957 235.802 169.607C235.812 169.49 235.918 169.406 236.035 169.416C236.152 169.427 236.237 169.533 236.226 169.649C236.194 170.031 236.12 170.413 236.014 170.784C235.972 170.943 235.918 171.091 235.855 171.25C235.823 171.325 235.738 171.378 235.653 171.378ZM235.844 167.847C235.749 167.847 235.664 167.784 235.642 167.688C235.144 165.78 233.657 164.242 231.757 163.691C231.641 163.659 231.577 163.543 231.609 163.426C231.641 163.309 231.757 163.246 231.874 163.278C233.912 163.871 235.515 165.515 236.046 167.571C236.078 167.688 236.003 167.805 235.897 167.826C235.887 167.847 235.865 167.847 235.844 167.847Z" fill="white"/>
<path d="M230.388 178.842C225.006 178.842 220.633 174.474 220.633 169.099C220.633 163.724 225.006 159.356 230.388 159.356C235.77 159.356 240.143 163.724 240.143 169.099C240.143 174.474 235.77 178.842 230.388 178.842ZM230.388 159.78C225.239 159.78 221.057 163.957 221.057 169.099C221.057 174.241 225.239 178.418 230.388 178.418C235.536 178.418 239.718 174.241 239.718 169.099C239.718 163.957 235.536 159.78 230.388 159.78ZM242.882 221.685H217.936C217.352 221.685 216.875 221.208 216.875 220.625C216.875 220.042 217.352 219.564 217.936 219.564H242.882C243.466 219.564 243.943 220.042 243.943 220.625C243.943 221.208 243.466 221.685 242.882 221.685ZM230.356 131.844H230.292C226.312 132.374 220.919 137.579 216.885 146.199H243.752C239.729 137.59 234.337 132.374 230.356 131.844ZM243.858 146.411H216.79C216.758 146.485 216.726 146.549 216.694 146.623H243.954C243.922 146.549 243.89 146.474 243.858 146.411Z" fill="#66B0F0"/>
<path d="M243.752 146.199H216.886C216.854 146.273 216.822 146.337 216.79 146.411H243.858C243.816 146.337 243.784 146.263 243.752 146.199Z" fill="#66B0F0"/>
<path d="M231.092 144.087C231.167 143.624 230.853 143.189 230.39 143.114C229.927 143.039 229.49 143.353 229.415 143.815C229.34 144.278 229.655 144.713 230.118 144.788C230.581 144.863 231.017 144.549 231.092 144.087Z" fill="white"/>
<path d="M238.212 144.798C238.681 144.798 239.061 144.418 239.061 143.95C239.061 143.481 238.681 143.102 238.212 143.102C237.743 143.102 237.362 143.481 237.362 143.95C237.362 144.418 237.743 144.798 238.212 144.798Z" fill="white"/>
<path d="M222.469 144.798C222.938 144.798 223.319 144.418 223.319 143.95C223.319 143.481 222.938 143.102 222.469 143.102C222 143.102 221.62 143.481 221.62 143.95C221.62 144.418 222 144.798 222.469 144.798Z" fill="white"/>
<path d="M220.951 212.047L217.278 220.91H243.551L239.761 212.047H220.951Z" fill="#66B0F0"/>
<path d="M242.797 219.152H218.011L217.83 219.576H242.988L242.797 219.152ZM239.846 212.25H220.866L220.696 212.674H240.026L239.846 212.25ZM241.82 216.851H218.966L218.785 217.275H242.001L241.82 216.851ZM240.833 214.551H219.911L219.741 214.975H241.013L240.833 214.551Z" fill="#B0DCF7"/>
</g>
<g clip-path="url(#clip5_391_60858)">
<path d="M327.144 289.016H289.587V280.207H327.144L327.144 289.016Z" fill="#FFCF2D"/>
<path d="M289.567 279.953H327.19V280.359H289.567V279.953ZM289.521 288.705H327.145V289.11H289.521V288.705Z" fill="#9B3C82"/>
<path d="M323.262 280.156H323.664V289.007H323.262V280.156ZM315.771 280.156H316.173V289.007H315.771V280.156ZM307.696 280.255H308.098V289.105H307.696V280.255ZM300.011 280.255H300.413V289.105H300.011V280.255ZM292.818 280.255H293.22V289.105H292.818V280.255Z" fill="#9B3C82"/>
<path d="M331.335 297.906H293.712V288.957H331.335V297.906Z" fill="#FFCF2D"/>
<path d="M293.758 288.707H331.381V289.112H293.758V288.707ZM293.712 297.459H331.335V297.864H293.712V297.459Z" fill="#9B3C82"/>
<path d="M327.453 288.91H327.855V297.761H327.453V288.91ZM319.963 288.91H320.365V297.761H319.963V288.91ZM311.887 289.009H312.289V297.859H311.887V289.009ZM304.202 289.009H304.604V297.859H304.202V289.009ZM297.01 289.009H297.412V297.859H297.01V289.009Z" fill="#9B3C82"/>
<path d="M324.123 306.509H286.544V297.711H324.123V306.509Z" fill="#FFCF2D"/>
<path d="M286.546 297.457H324.169V297.862H286.546V297.457ZM286.5 306.209H324.123V306.614H286.5V306.209Z" fill="#9B3C82"/>
<path d="M320.24 297.66H320.642V306.511H320.24V297.66ZM312.75 297.66H313.152V306.511H312.75V297.66ZM304.675 297.758H305.076V306.609H304.675V297.758ZM296.989 297.758H297.391V306.609H296.989V297.758ZM289.797 297.758H290.199V306.609H289.797V297.758Z" fill="#9B3C82"/>
<path d="M317.714 280.069C319.395 279.833 320.592 280.082 321.24 280.266C327.98 282.181 323.294 298.881 331.623 304.946C332.976 305.931 334.301 306.394 335.079 306.617L324.081 306.617C322.344 304.115 319.912 299.964 318.498 294.327C316.984 288.295 317.291 283.172 317.714 280.069Z" fill="#9B3C82"/>
<path d="M319.493 287.677L319.594 288.141C320.074 290.25 320.823 292.46 321.847 294.666C321.859 294.695 321.873 294.724 321.887 294.753C321.938 294.864 321.991 294.974 322.044 295.084C323.052 297.188 324.222 299.093 325.479 300.745C325.575 300.871 325.672 300.997 325.771 301.121C327.41 303.202 329.188 304.853 330.947 305.953C331.093 306.045 331.24 306.133 331.389 306.218C331.39 306.22 331.393 306.221 331.395 306.222L331.424 306.24C333.709 307.542 335.939 307.891 337.767 307.022L342.269 304.882L343.179 304.45L344.831 303.664C349.42 301.484 349.749 292.455 345.567 283.497C341.385 274.54 334.274 269.046 329.686 271.228L328.037 272.011L328.036 272.011L328.036 272.012L327.127 272.444L327.126 272.445L322.623 274.585C320.794 275.455 319.642 277.411 319.182 280.017C319.149 280.201 319.12 280.386 319.096 280.571C318.816 282.641 318.947 285.076 319.493 287.677Z" fill="#FFCF2D"/>
<path d="M325.448 278.395C325.355 280.327 325.551 282.418 326.017 284.575C326.049 284.729 326.084 284.884 326.12 285.038C326.619 287.187 327.382 289.392 328.387 291.557C328.4 291.586 328.413 291.614 328.427 291.644C328.479 291.754 328.531 291.865 328.584 291.975C329.574 294.041 330.732 295.952 332.006 297.643C332.101 297.769 332.197 297.895 332.294 298.019C333.646 299.753 335.119 301.239 336.655 302.397C336.887 302.572 337.123 302.741 337.364 302.903C337.513 303.005 337.664 303.104 337.817 303.201C339.363 304.175 340.868 304.74 342.269 304.881L343.179 304.449C343.022 304.455 342.866 304.455 342.71 304.448C338.135 304.263 332.413 299.093 328.842 291.445C325.149 283.534 324.947 275.519 328.036 272.012L327.127 272.444L327.126 272.445C326.341 273.624 325.814 275.156 325.574 276.979C325.55 277.159 325.53 277.34 325.512 277.521C325.484 277.812 325.462 278.103 325.448 278.395Z" fill="#9B3C82"/>
<path d="M321.751 294.71L328.57 291.468L328.766 291.887L321.947 295.129L321.751 294.71ZM330.947 305.955L337.364 302.905L337.704 302.743L337.9 303.163L337.817 303.203L331.424 306.241L330.947 305.955ZM325.479 300.746C325.575 300.873 325.672 300.998 325.77 301.122L332.294 298.021L332.359 297.989L332.163 297.57L332.006 297.645L325.479 300.746ZM319.182 280.018L325.574 276.981L325.657 276.941L325.852 277.361L325.512 277.523L319.096 280.573L319.182 280.018ZM319.493 287.678L326.016 284.577L326.082 284.546L326.278 284.966L326.12 285.04L319.594 288.142L319.493 287.678Z" fill="#9B3C82"/>
<path d="M327.703 279.385C327.722 282.749 328.733 286.744 330.55 290.638C332.368 294.53 334.779 297.862 337.337 300.017C339.142 301.538 340.879 302.351 342.395 302.413C343.066 302.44 343.695 302.319 344.267 302.047C346.131 301.161 347.147 298.787 347.128 295.363C347.111 292 346.099 288.004 344.281 284.11C342.464 280.218 340.054 276.886 337.496 274.732C334.891 272.537 332.429 271.815 330.565 272.701C328.701 273.587 327.685 275.961 327.703 279.385ZM330.761 273.121C331.266 272.88 331.824 272.774 332.424 272.798C333.835 272.855 335.475 273.633 337.201 275.087C339.71 277.2 342.076 280.475 343.866 284.309C345.656 288.142 346.651 292.068 346.669 295.365C346.686 298.599 345.764 300.823 344.072 301.627C342.378 302.432 340.091 301.734 337.631 299.66C335.123 297.548 332.756 294.273 330.967 290.44C329.177 286.606 328.181 282.68 328.163 279.384C328.145 276.149 329.069 273.925 330.761 273.121Z" fill="#9B3C82"/>
<path d="M338.502 297.695C338.466 297.738 338.416 297.767 338.361 297.775C338.306 297.784 338.25 297.772 338.203 297.742C338.156 297.712 338.121 297.666 338.105 297.613C338.09 297.559 338.093 297.501 338.116 297.45C340.002 293.297 341.71 289.101 340.131 287.4C339.073 286.26 337.975 286.822 336.812 287.418C335.754 287.959 334.661 288.519 333.738 287.525C332.568 286.265 332.083 283.337 336.414 276.544C336.482 276.436 336.625 276.405 336.731 276.475C336.838 276.544 336.869 276.687 336.8 276.795C333.546 281.899 332.578 285.597 334.073 287.208C334.727 287.913 335.461 287.59 336.604 287.004C337.748 286.418 339.173 285.689 340.467 287.083C342.24 288.994 340.484 293.347 338.534 297.643C338.526 297.662 338.515 297.68 338.502 297.695Z" fill="#9B3C82"/>
<path d="M334.459 280.65C334.434 280.68 334.403 280.703 334.367 280.717C334.332 280.731 334.293 280.736 334.255 280.732C334.217 280.727 334.181 280.713 334.15 280.691C334.119 280.668 334.094 280.639 334.077 280.604L332.492 277.374C332.478 277.346 332.47 277.317 332.468 277.286C332.466 277.256 332.47 277.226 332.48 277.197C332.489 277.168 332.505 277.141 332.525 277.118C332.545 277.095 332.569 277.077 332.596 277.063C332.623 277.05 332.652 277.042 332.682 277.04C332.712 277.038 332.743 277.042 332.771 277.051C332.8 277.061 332.826 277.076 332.849 277.096C332.872 277.116 332.89 277.141 332.904 277.168L334.488 280.398C334.508 280.439 334.516 280.484 334.511 280.529C334.506 280.573 334.488 280.615 334.459 280.65ZM342.026 297.521C342.002 297.55 341.97 297.573 341.934 297.587C341.899 297.602 341.86 297.607 341.822 297.602C341.784 297.597 341.748 297.583 341.716 297.561C341.685 297.538 341.66 297.508 341.643 297.473L339.967 294.002C339.942 293.947 339.939 293.884 339.959 293.827C339.979 293.77 340.021 293.723 340.075 293.697C340.129 293.67 340.191 293.666 340.248 293.685C340.305 293.704 340.352 293.745 340.38 293.799L342.056 297.27C342.076 297.31 342.083 297.355 342.078 297.4C342.072 297.444 342.055 297.486 342.026 297.521Z" fill="#9B3C82"/>
</g>
</g>
<g clip-path="url(#clip6_391_60858)">
<path d="M315.387 52.1377C303.232 53.0548 291.946 58.8317 284.043 68.1819L283.748 68.5369C267.441 88.1162 269.975 117.308 289.408 133.738C298.62 141.527 310.496 145.365 322.486 144.428C329.557 143.894 336.408 141.707 342.493 138.04C342.508 138.029 342.524 138.02 342.54 138.013C344.914 136.581 347.153 134.932 349.226 133.087C349.936 132.465 350.624 131.813 351.293 131.139C352.173 130.262 353.018 129.343 353.832 128.386L354.126 128.035C370.433 108.455 367.9 79.2617 348.467 62.8294C339.254 55.0395 327.377 51.2013 315.387 52.1382M347.08 122.077L346.847 122.358C333.652 137.888 310.462 139.7 295.048 126.406C287.645 120.021 283.063 110.935 282.311 101.145C281.539 91.4815 284.588 81.9035 290.793 74.495L291.029 74.2113C304.229 58.6856 327.421 56.8807 342.83 70.1799C358.125 83.3812 360.021 106.528 347.08 122.077" fill="white"/>
<path d="M345.55 134.817C347.55 133.523 349.459 132.094 351.267 130.54L362.505 145.17C362.599 145.297 362.685 145.43 362.761 145.569C363.731 147.291 363.131 149.479 361.422 150.455C360.032 151.249 358.289 151.013 357.157 149.878C357.039 149.761 356.93 149.635 356.829 149.502L345.55 134.817Z" fill="white"/>
<path d="M403.041 201.538C399.789 203.975 395.191 203.296 392.771 200.018C392.697 199.918 392.625 199.815 392.556 199.711L353.084 149.375C352.471 148.466 352.677 147.231 353.552 146.575L360.091 141.674C360.966 141.019 362.199 141.174 362.886 142.027L404.319 190.895C406.901 194.044 406.459 198.705 403.333 201.306C403.238 201.386 403.14 201.463 403.041 201.538Z" fill="#5B2448"/>
</g>
<defs>
<clipPath id="clip0_391_60858">
<rect width="300" height="200" fill="white" transform="translate(81 121)"/>
</clipPath>
<clipPath id="clip1_391_60858">
<rect width="148" height="120" fill="white" transform="translate(161.75 182.25)"/>
</clipPath>
<clipPath id="clip2_391_60858">
<rect width="148.5" height="149.25" fill="white" transform="translate(55.001 248.734) rotate(-43.9793)"/>
</clipPath>
<clipPath id="clip3_391_60858">
<rect width="107.5" height="58.75" fill="white" transform="translate(243.5 222.75)"/>
</clipPath>
<clipPath id="clip4_391_60858">
<rect width="107" height="192.5" fill="white" transform="translate(176.75 123.5)"/>
</clipPath>
<clipPath id="clip5_391_60858">
<rect width="62" height="36.75" fill="white" transform="translate(286.5 270.75)"/>
</clipPath>
<clipPath id="clip6_391_60858">
<rect width="151" height="133" fill="white" transform="translate(273 203) rotate(-90)"/>
</clipPath>
</defs>
</svg>
