<svg width="14" height="18" viewBox="0 0 14 18" fill="none" xmlns="http://www.w3.org/2000/svg">
<path d="M0 18V0H6.04525C8.34023 0 10.1003 0.451172 11.4002 1.27441C12.7001 2.10059 13.3127 3.375 13.3127 4.95117C13.3127 5.77441 13.0826 6.60059 12.7001 7.20117C12.3176 7.875 11.6303 8.39942 10.7876 8.70117C11.8574 8.92383 12.7001 9.375 13.235 10.125C13.7699 10.875 14 11.7012 14 12.6006C14 14.3262 13.3874 15.6738 12.1652 16.5762C10.94 17.4756 9.25763 18 6.96265 18H0ZM4.20747 7.5H5.89285C6.88495 7.5 7.64995 7.35059 8.18783 6.97559C8.72273 6.60059 8.95283 6.07617 8.95283 5.39941C8.95283 4.64941 8.72273 4.04883 8.18783 3.75C7.64995 3.45117 6.96265 3.22559 5.96756 3.22559H4.20747V7.5ZM4.20747 10.2744V14.7744H6.96265C7.88004 14.7744 8.57033 14.625 9.02753 14.25C9.48773 13.875 9.71782 13.3506 9.71782 12.6006C9.71782 11.8506 9.48773 11.25 9.10523 10.875C8.72273 10.5 8.03244 10.2744 7.11505 10.2744H4.20747Z" fill="black"/>
</svg>
