<?xml version="1.0" encoding="UTF-8" standalone="no"?>
<!DOCTYPE svg PUBLIC "-//W3C//DTD SVG 1.1//EN"
 "http://www.w3.org/Graphics/SVG/1.1/DTD/svg11.dtd">
<!-- Generated by graphviz version 5.0.0 (20220707.1540)
 -->
<!-- Title: dependencies Pages: 1 -->
<svg width="757pt" height="174pt"
 viewBox="0.00 0.00 757.00 173.80" xmlns="http://www.w3.org/2000/svg" xmlns:xlink="http://www.w3.org/1999/xlink">
<g id="graph0" class="graph" transform="scale(1 1) rotate(0) translate(4 169.8)">
<title>dependencies</title>
<polygon fill="white" stroke="transparent" points="-4,4 -4,-169.8 753,-169.8 753,4 -4,4"/>
<text text-anchor="middle" x="374.5" y="-8.2" font-family="sans-serif" font-size="14.00">dependencies</text>
<g id="clust1" class="cluster">
<title>cluster_TeamManagementModule</title>
<polygon fill="none" stroke="black" stroke-dasharray="1,5" points="8,-32.8 8,-157.8 741,-157.8 741,-32.8 8,-32.8"/>
</g>
<g id="clust2" class="cluster">
<title>cluster_TeamManagementModule_declarations</title>
<polygon fill="none" stroke="black" points="531,-40.8 531,-92.8 733,-92.8 733,-40.8 531,-40.8"/>
</g>
<g id="clust4" class="cluster">
<title>cluster_TeamManagementModule_imports</title>
<polygon fill="none" stroke="black" points="16,-40.8 16,-92.8 523,-92.8 523,-40.8 16,-40.8"/>
</g>
<!-- TeamManagementComponent -->
<g id="node1" class="node">
<title>TeamManagementComponent</title>
<polygon fill="#ffffb3" stroke="black" points="725.28,-84.8 538.72,-84.8 538.72,-48.8 725.28,-48.8 725.28,-84.8"/>
<text text-anchor="middle" x="632" y="-62.6" font-family="Times,serif" font-size="14.00">TeamManagementComponent</text>
</g>
<!-- TeamManagementModule -->
<g id="node2" class="node">
<title>TeamManagementModule</title>
<polygon fill="#8dd3c7" stroke="black" points="459,-149.8 456,-153.8 435,-153.8 432,-149.8 295,-149.8 295,-113.8 459,-113.8 459,-149.8"/>
<text text-anchor="middle" x="377" y="-127.6" font-family="Times,serif" font-size="14.00">TeamManagementModule</text>
</g>
<!-- TeamManagementComponent&#45;&gt;TeamManagementModule -->
<g id="edge1" class="edge">
<title>TeamManagementComponent&#45;&gt;TeamManagementModule</title>
<path fill="none" stroke="black" d="M632,-84.91C632,-104.14 632,-131.8 632,-131.8 632,-131.8 469.09,-131.8 469.09,-131.8"/>
<polygon fill="black" stroke="black" points="469.09,-128.3 459.09,-131.8 469.09,-135.3 469.09,-128.3"/>
</g>
<!-- EmptyScreenModule -->
<g id="node3" class="node">
<title>EmptyScreenModule</title>
<polygon fill="#8dd3c7" stroke="black" points="515.47,-84.8 512.47,-88.8 491.47,-88.8 488.47,-84.8 380.53,-84.8 380.53,-48.8 515.47,-48.8 515.47,-84.8"/>
<text text-anchor="middle" x="448" y="-62.6" font-family="Times,serif" font-size="14.00">EmptyScreenModule</text>
</g>
<!-- EmptyScreenModule&#45;&gt;TeamManagementModule -->
<g id="edge2" class="edge">
<title>EmptyScreenModule&#45;&gt;TeamManagementModule</title>
<path fill="none" stroke="black" d="M419.88,-84.91C419.88,-84.91 419.88,-103.79 419.88,-103.79"/>
<polygon fill="black" stroke="black" points="416.38,-103.79 419.88,-113.79 423.38,-103.79 416.38,-103.79"/>
</g>
<!-- KrModalModule -->
<g id="node4" class="node">
<title>KrModalModule</title>
<polygon fill="#8dd3c7" stroke="black" points="362.38,-84.8 359.38,-88.8 338.38,-88.8 335.38,-84.8 251.62,-84.8 251.62,-48.8 362.38,-48.8 362.38,-84.8"/>
<text text-anchor="middle" x="307" y="-62.6" font-family="Times,serif" font-size="14.00">KrModalModule</text>
</g>
<!-- KrModalModule&#45;&gt;TeamManagementModule -->
<g id="edge3" class="edge">
<title>KrModalModule&#45;&gt;TeamManagementModule</title>
<path fill="none" stroke="black" d="M328.59,-84.91C328.59,-84.91 328.59,-103.79 328.59,-103.79"/>
<polygon fill="black" stroke="black" points="325.09,-103.79 328.59,-113.79 332.09,-103.79 325.09,-103.79"/>
</g>
<!-- TeamManagementRoutingModule -->
<g id="node5" class="node">
<title>TeamManagementRoutingModule</title>
<polygon fill="#8dd3c7" stroke="black" points="233.62,-84.8 230.62,-88.8 209.62,-88.8 206.62,-84.8 24.38,-84.8 24.38,-48.8 233.62,-48.8 233.62,-84.8"/>
<text text-anchor="middle" x="129" y="-62.6" font-family="Times,serif" font-size="14.00">TeamManagementRoutingModule</text>
</g>
<!-- TeamManagementRoutingModule&#45;&gt;TeamManagementModule -->
<g id="edge4" class="edge">
<title>TeamManagementRoutingModule&#45;&gt;TeamManagementModule</title>
<path fill="none" stroke="black" d="M129,-84.91C129,-104.14 129,-131.8 129,-131.8 129,-131.8 284.76,-131.8 284.76,-131.8"/>
<polygon fill="black" stroke="black" points="284.76,-135.3 294.76,-131.8 284.76,-128.3 284.76,-135.3"/>
</g>
</g>
</svg>
