<?xml version="1.0" encoding="UTF-8" standalone="no"?>
<!DOCTYPE svg PUBLIC "-//W3C//DTD SVG 1.1//EN"
 "http://www.w3.org/Graphics/SVG/1.1/DTD/svg11.dtd">
<!-- Generated by graphviz version 5.0.0 (20220707.1540)
 -->
<!-- Title: dependencies Pages: 1 -->
<svg width="604pt" height="174pt"
 viewBox="0.00 0.00 604.00 173.80" xmlns="http://www.w3.org/2000/svg" xmlns:xlink="http://www.w3.org/1999/xlink">
<g id="graph0" class="graph" transform="scale(1 1) rotate(0) translate(4 169.8)">
<title>dependencies</title>
<polygon fill="white" stroke="transparent" points="-4,4 -4,-169.8 600,-169.8 600,4 -4,4"/>
<text text-anchor="middle" x="298" y="-8.2" font-family="sans-serif" font-size="14.00">dependencies</text>
<g id="clust1" class="cluster">
<title>cluster_TeamManagementModule</title>
<polygon fill="none" stroke="black" stroke-dasharray="1,5" points="8,-32.8 8,-157.8 588,-157.8 588,-32.8 8,-32.8"/>
</g>
<g id="clust2" class="cluster">
<title>cluster_TeamManagementModule_declarations</title>
<polygon fill="none" stroke="black" points="378,-40.8 378,-92.8 580,-92.8 580,-40.8 378,-40.8"/>
</g>
<g id="clust4" class="cluster">
<title>cluster_TeamManagementModule_imports</title>
<polygon fill="none" stroke="black" points="16,-40.8 16,-92.8 370,-92.8 370,-40.8 16,-40.8"/>
</g>
<!-- TeamManagementComponent -->
<g id="node1" class="node">
<title>TeamManagementComponent</title>
<polygon fill="#ffffb3" stroke="black" points="572.28,-84.8 385.72,-84.8 385.72,-48.8 572.28,-48.8 572.28,-84.8"/>
<text text-anchor="middle" x="479" y="-62.6" font-family="Times,serif" font-size="14.00">TeamManagementComponent</text>
</g>
<!-- TeamManagementModule -->
<g id="node2" class="node">
<title>TeamManagementModule</title>
<polygon fill="#8dd3c7" stroke="black" points="389,-149.8 386,-153.8 365,-153.8 362,-149.8 225,-149.8 225,-113.8 389,-113.8 389,-149.8"/>
<text text-anchor="middle" x="307" y="-127.6" font-family="Times,serif" font-size="14.00">TeamManagementModule</text>
</g>
<!-- TeamManagementComponent&#45;&gt;TeamManagementModule -->
<g id="edge1" class="edge">
<title>TeamManagementComponent&#45;&gt;TeamManagementModule</title>
<path fill="none" stroke="black" d="M385.77,-66.8C378.64,-66.8 374.15,-66.8 374.15,-66.8 374.15,-66.8 374.15,-103.69 374.15,-103.69"/>
<polygon fill="black" stroke="black" points="370.65,-103.69 374.15,-113.69 377.65,-103.69 370.65,-103.69"/>
</g>
<!-- KrModalModule -->
<g id="node3" class="node">
<title>KrModalModule</title>
<polygon fill="#8dd3c7" stroke="black" points="362.38,-84.8 359.38,-88.8 338.38,-88.8 335.38,-84.8 251.62,-84.8 251.62,-48.8 362.38,-48.8 362.38,-84.8"/>
<text text-anchor="middle" x="307" y="-62.6" font-family="Times,serif" font-size="14.00">KrModalModule</text>
</g>
<!-- KrModalModule&#45;&gt;TeamManagementModule -->
<g id="edge2" class="edge">
<title>KrModalModule&#45;&gt;TeamManagementModule</title>
<path fill="none" stroke="black" d="M307,-84.91C307,-84.91 307,-103.79 307,-103.79"/>
<polygon fill="black" stroke="black" points="303.5,-103.79 307,-113.79 310.5,-103.79 303.5,-103.79"/>
</g>
<!-- TeamManagementRoutingModule -->
<g id="node4" class="node">
<title>TeamManagementRoutingModule</title>
<polygon fill="#8dd3c7" stroke="black" points="233.62,-84.8 230.62,-88.8 209.62,-88.8 206.62,-84.8 24.38,-84.8 24.38,-48.8 233.62,-48.8 233.62,-84.8"/>
<text text-anchor="middle" x="129" y="-62.6" font-family="Times,serif" font-size="14.00">TeamManagementRoutingModule</text>
</g>
<!-- TeamManagementRoutingModule&#45;&gt;TeamManagementModule -->
<g id="edge3" class="edge">
<title>TeamManagementRoutingModule&#45;&gt;TeamManagementModule</title>
<path fill="none" stroke="black" d="M229.28,-84.91C229.28,-84.91 229.28,-103.79 229.28,-103.79"/>
<polygon fill="black" stroke="black" points="225.78,-103.79 229.28,-113.79 232.78,-103.79 225.78,-103.79"/>
</g>
</g>
</svg>
