<?xml version="1.0" encoding="UTF-8" standalone="no"?>
<!DOCTYPE svg PUBLIC "-//W3C//DTD SVG 1.1//EN"
 "http://www.w3.org/Graphics/SVG/1.1/DTD/svg11.dtd">
<!-- Generated by graphviz version 5.0.0 (20220707.1540)
 -->
<!-- Title: dependencies Pages: 1 -->
<svg width="832pt" height="174pt"
 viewBox="0.00 0.00 832.00 173.80" xmlns="http://www.w3.org/2000/svg" xmlns:xlink="http://www.w3.org/1999/xlink">
<g id="graph0" class="graph" transform="scale(1 1) rotate(0) translate(4 169.8)">
<title>dependencies</title>
<polygon fill="white" stroke="transparent" points="-4,4 -4,-169.8 828,-169.8 828,4 -4,4"/>
<text text-anchor="middle" x="412" y="-8.2" font-family="sans-serif" font-size="14.00">dependencies</text>
<g id="clust1" class="cluster">
<title>cluster_SearchSettingsModule</title>
<polygon fill="none" stroke="black" stroke-dasharray="1,5" points="8,-32.8 8,-157.8 816,-157.8 816,-32.8 8,-32.8"/>
</g>
<g id="clust7" class="cluster">
<title>cluster_SearchSettingsModule_providers</title>
<polygon fill="none" stroke="black" points="416,-40.8 416,-92.8 808,-92.8 808,-40.8 416,-40.8"/>
</g>
<g id="clust2" class="cluster">
<title>cluster_SearchSettingsModule_declarations</title>
<polygon fill="none" stroke="black" points="228,-40.8 228,-92.8 408,-92.8 408,-40.8 228,-40.8"/>
</g>
<g id="clust4" class="cluster">
<title>cluster_SearchSettingsModule_imports</title>
<polygon fill="none" stroke="black" points="16,-40.8 16,-92.8 220,-92.8 220,-40.8 16,-40.8"/>
</g>
<!-- SearchSettingsComponent -->
<g id="node1" class="node">
<title>SearchSettingsComponent</title>
<polygon fill="#ffffb3" stroke="black" points="400.04,-84.8 235.96,-84.8 235.96,-48.8 400.04,-48.8 400.04,-84.8"/>
<text text-anchor="middle" x="318" y="-62.6" font-family="Times,serif" font-size="14.00">SearchSettingsComponent</text>
</g>
<!-- SearchSettingsModule -->
<g id="node2" class="node">
<title>SearchSettingsModule</title>
<polygon fill="#8dd3c7" stroke="black" points="482.26,-149.8 479.26,-153.8 458.26,-153.8 455.26,-149.8 339.74,-149.8 339.74,-113.8 482.26,-113.8 482.26,-149.8"/>
<text text-anchor="middle" x="411" y="-127.6" font-family="Times,serif" font-size="14.00">SearchSettingsModule</text>
</g>
<!-- SearchSettingsComponent&#45;&gt;SearchSettingsModule -->
<g id="edge1" class="edge">
<title>SearchSettingsComponent&#45;&gt;SearchSettingsModule</title>
<path fill="none" stroke="black" d="M369.94,-84.91C369.94,-84.91 369.94,-103.79 369.94,-103.79"/>
<polygon fill="black" stroke="black" points="366.44,-103.79 369.94,-113.79 373.44,-103.79 366.44,-103.79"/>
</g>
<!-- SearchSettingsRoutingModule -->
<g id="node3" class="node">
<title>SearchSettingsRoutingModule</title>
<polygon fill="#8dd3c7" stroke="black" points="211.88,-84.8 208.88,-88.8 187.88,-88.8 184.88,-84.8 24.12,-84.8 24.12,-48.8 211.88,-48.8 211.88,-84.8"/>
<text text-anchor="middle" x="118" y="-62.6" font-family="Times,serif" font-size="14.00">SearchSettingsRoutingModule</text>
</g>
<!-- SearchSettingsRoutingModule&#45;&gt;SearchSettingsModule -->
<g id="edge2" class="edge">
<title>SearchSettingsRoutingModule&#45;&gt;SearchSettingsModule</title>
<path fill="none" stroke="black" d="M118,-84.91C118,-104.14 118,-131.8 118,-131.8 118,-131.8 329.7,-131.8 329.7,-131.8"/>
<polygon fill="black" stroke="black" points="329.7,-135.3 339.7,-131.8 329.7,-128.3 329.7,-135.3"/>
</g>
<!-- ServiceInvokerService -->
<g id="node4" class="node">
<title>ServiceInvokerService</title>
<ellipse fill="#fdb462" stroke="black" cx="701" cy="-66.8" rx="98.96" ry="18"/>
<text text-anchor="middle" x="701" y="-62.6" font-family="Times,serif" font-size="14.00">ServiceInvokerService</text>
</g>
<!-- ServiceInvokerService&#45;&gt;SearchSettingsModule -->
<g id="edge3" class="edge">
<title>ServiceInvokerService&#45;&gt;SearchSettingsModule</title>
<path fill="none" stroke="black" d="M701,-84.91C701,-104.14 701,-131.8 701,-131.8 701,-131.8 492.31,-131.8 492.31,-131.8"/>
<polygon fill="black" stroke="black" points="492.31,-128.3 482.31,-131.8 492.31,-135.3 492.31,-128.3"/>
</g>
<!-- WorkflowService -->
<g id="node5" class="node">
<title>WorkflowService</title>
<ellipse fill="#fdb462" stroke="black" cx="504" cy="-66.8" rx="79.86" ry="18"/>
<text text-anchor="middle" x="504" y="-62.6" font-family="Times,serif" font-size="14.00">WorkflowService</text>
</g>
<!-- WorkflowService&#45;&gt;SearchSettingsModule -->
<g id="edge4" class="edge">
<title>WorkflowService&#45;&gt;SearchSettingsModule</title>
<path fill="none" stroke="black" d="M453.35,-80.9C453.35,-80.9 453.35,-103.52 453.35,-103.52"/>
<polygon fill="black" stroke="black" points="449.85,-103.52 453.35,-113.52 456.85,-103.52 449.85,-103.52"/>
</g>
</g>
</svg>
