<?xml version="1.0" encoding="UTF-8" standalone="no"?>
<!DOCTYPE svg PUBLIC "-//W3C//DTD SVG 1.1//EN"
 "http://www.w3.org/Graphics/SVG/1.1/DTD/svg11.dtd">
<!-- Generated by graphviz version 5.0.0 (20220707.1540)
 -->
<!-- Title: dependencies Pages: 1 -->
<svg width="832pt" height="174pt"
 viewBox="0.00 0.00 832.00 173.80" xmlns="http://www.w3.org/2000/svg" xmlns:xlink="http://www.w3.org/1999/xlink">
<g id="graph0" class="graph" transform="scale(1 1) rotate(0) translate(4 169.8)">
<title>dependencies</title>
<polygon fill="white" stroke="transparent" points="-4,4 -4,-169.8 828,-169.8 828,4 -4,4"/>
<text text-anchor="middle" x="412" y="-8.2" font-family="sans-serif" font-size="14.00">dependencies</text>
<g id="clust1" class="cluster">
<title>cluster_SearchSettingsModule</title>
<polygon fill="none" stroke="black" stroke-dasharray="1,5" points="8,-32.8 8,-157.8 816,-157.8 816,-32.8 8,-32.8"/>
</g>
<g id="clust4" class="cluster">
<title>cluster_SearchSettingsModule_imports</title>
<polygon fill="none" stroke="black" points="604,-40.8 604,-92.8 808,-92.8 808,-40.8 604,-40.8"/>
</g>
<g id="clust2" class="cluster">
<title>cluster_SearchSettingsModule_declarations</title>
<polygon fill="none" stroke="black" points="416,-40.8 416,-92.8 596,-92.8 596,-40.8 416,-40.8"/>
</g>
<g id="clust7" class="cluster">
<title>cluster_SearchSettingsModule_providers</title>
<polygon fill="none" stroke="black" points="16,-40.8 16,-92.8 408,-92.8 408,-40.8 16,-40.8"/>
</g>
<!-- SearchSettingsComponent -->
<g id="node1" class="node">
<title>SearchSettingsComponent</title>
<polygon fill="#ffffb3" stroke="black" points="588.04,-84.8 423.96,-84.8 423.96,-48.8 588.04,-48.8 588.04,-84.8"/>
<text text-anchor="middle" x="506" y="-62.6" font-family="Times,serif" font-size="14.00">SearchSettingsComponent</text>
</g>
<!-- SearchSettingsModule -->
<g id="node2" class="node">
<title>SearchSettingsModule</title>
<polygon fill="#8dd3c7" stroke="black" points="474.26,-149.8 471.26,-153.8 450.26,-153.8 447.26,-149.8 331.74,-149.8 331.74,-113.8 474.26,-113.8 474.26,-149.8"/>
<text text-anchor="middle" x="403" y="-127.6" font-family="Times,serif" font-size="14.00">SearchSettingsModule</text>
</g>
<!-- SearchSettingsComponent&#45;&gt;SearchSettingsModule -->
<g id="edge1" class="edge">
<title>SearchSettingsComponent&#45;&gt;SearchSettingsModule</title>
<path fill="none" stroke="black" d="M449.06,-84.91C449.06,-84.91 449.06,-103.79 449.06,-103.79"/>
<polygon fill="black" stroke="black" points="445.56,-103.79 449.06,-113.79 452.56,-103.79 445.56,-103.79"/>
</g>
<!-- SearchSettingsRoutingModule -->
<g id="node3" class="node">
<title>SearchSettingsRoutingModule</title>
<polygon fill="#8dd3c7" stroke="black" points="799.88,-84.8 796.88,-88.8 775.88,-88.8 772.88,-84.8 612.12,-84.8 612.12,-48.8 799.88,-48.8 799.88,-84.8"/>
<text text-anchor="middle" x="706" y="-62.6" font-family="Times,serif" font-size="14.00">SearchSettingsRoutingModule</text>
</g>
<!-- SearchSettingsRoutingModule&#45;&gt;SearchSettingsModule -->
<g id="edge2" class="edge">
<title>SearchSettingsRoutingModule&#45;&gt;SearchSettingsModule</title>
<path fill="none" stroke="black" d="M706,-84.91C706,-104.14 706,-131.8 706,-131.8 706,-131.8 484.42,-131.8 484.42,-131.8"/>
<polygon fill="black" stroke="black" points="484.42,-128.3 474.42,-131.8 484.42,-135.3 484.42,-128.3"/>
</g>
<!-- ServiceInvokerService -->
<g id="node4" class="node">
<title>ServiceInvokerService</title>
<ellipse fill="#fdb462" stroke="black" cx="301" cy="-66.8" rx="98.96" ry="18"/>
<text text-anchor="middle" x="301" y="-62.6" font-family="Times,serif" font-size="14.00">ServiceInvokerService</text>
</g>
<!-- ServiceInvokerService&#45;&gt;SearchSettingsModule -->
<g id="edge3" class="edge">
<title>ServiceInvokerService&#45;&gt;SearchSettingsModule</title>
<path fill="none" stroke="black" d="M365.8,-80.58C365.8,-80.58 365.8,-103.35 365.8,-103.35"/>
<polygon fill="black" stroke="black" points="362.3,-103.35 365.8,-113.35 369.3,-103.35 362.3,-103.35"/>
</g>
<!-- WorkflowService -->
<g id="node5" class="node">
<title>WorkflowService</title>
<ellipse fill="#fdb462" stroke="black" cx="104" cy="-66.8" rx="79.86" ry="18"/>
<text text-anchor="middle" x="104" y="-62.6" font-family="Times,serif" font-size="14.00">WorkflowService</text>
</g>
<!-- WorkflowService&#45;&gt;SearchSettingsModule -->
<g id="edge4" class="edge">
<title>WorkflowService&#45;&gt;SearchSettingsModule</title>
<path fill="none" stroke="black" d="M104,-84.91C104,-104.14 104,-131.8 104,-131.8 104,-131.8 321.38,-131.8 321.38,-131.8"/>
<polygon fill="black" stroke="black" points="321.38,-135.3 331.38,-131.8 321.38,-128.3 321.38,-135.3"/>
</g>
</g>
</svg>
