<?xml version="1.0" encoding="UTF-8" standalone="no"?>
<!DOCTYPE svg PUBLIC "-//W3C//DTD SVG 1.1//EN"
 "http://www.w3.org/Graphics/SVG/1.1/DTD/svg11.dtd">
<!-- Generated by graphviz version 5.0.0 (20220707.1540)
 -->
<!-- Title: dependencies Pages: 1 -->
<svg width="352pt" height="247pt"
 viewBox="0.00 0.00 352.00 246.80" xmlns="http://www.w3.org/2000/svg" xmlns:xlink="http://www.w3.org/1999/xlink">
<g id="graph0" class="graph" transform="scale(1 1) rotate(0) translate(4 242.8)">
<title>dependencies</title>
<polygon fill="white" stroke="transparent" points="-4,4 -4,-242.8 348,-242.8 348,4 -4,4"/>
<text text-anchor="middle" x="172" y="-8.2" font-family="sans-serif" font-size="14.00">dependencies</text>
<g id="clust1" class="cluster">
<title>cluster_ActionsModule</title>
<polygon fill="none" stroke="black" stroke-dasharray="1,5" points="8,-32.8 8,-230.8 336,-230.8 336,-32.8 8,-32.8"/>
</g>
<g id="clust5" class="cluster">
<title>cluster_ActionsModule_exports</title>
<polygon fill="none" stroke="black" points="105,-170.8 105,-222.8 249,-222.8 249,-170.8 105,-170.8"/>
</g>
<g id="clust2" class="cluster">
<title>cluster_ActionsModule_declarations</title>
<polygon fill="none" stroke="black" points="188,-40.8 188,-92.8 328,-92.8 328,-40.8 188,-40.8"/>
</g>
<g id="clust4" class="cluster">
<title>cluster_ActionsModule_imports</title>
<polygon fill="none" stroke="black" points="16,-40.8 16,-92.8 180,-92.8 180,-40.8 16,-40.8"/>
</g>
<!-- ActionsComponent -->
<g id="node1" class="node">
<title>ActionsComponent</title>
<polygon fill="#ffffb3" stroke="black" points="320.38,-84.8 195.62,-84.8 195.62,-48.8 320.38,-48.8 320.38,-84.8"/>
<text text-anchor="middle" x="258" y="-62.6" font-family="Times,serif" font-size="14.00">ActionsComponent</text>
</g>
<!-- ActionsModule -->
<g id="node2" class="node">
<title>ActionsModule</title>
<polygon fill="#8dd3c7" stroke="black" points="228.6,-149.8 225.6,-153.8 204.6,-153.8 201.6,-149.8 125.4,-149.8 125.4,-113.8 228.6,-113.8 228.6,-149.8"/>
<text text-anchor="middle" x="177" y="-127.6" font-family="Times,serif" font-size="14.00">ActionsModule</text>
</g>
<!-- ActionsComponent&#45;&gt;ActionsModule -->
<g id="edge1" class="edge">
<title>ActionsComponent&#45;&gt;ActionsModule</title>
<path fill="none" stroke="black" d="M212.06,-84.91C212.06,-84.91 212.06,-103.79 212.06,-103.79"/>
<polygon fill="black" stroke="black" points="208.56,-103.79 212.06,-113.79 215.56,-103.79 208.56,-103.79"/>
</g>
<!-- ActionsComponent  -->
<g id="node4" class="node">
<title>ActionsComponent </title>
<polygon fill="#fb8072" stroke="black" points="241.38,-214.8 112.62,-214.8 112.62,-178.8 241.38,-178.8 241.38,-214.8"/>
<text text-anchor="middle" x="177" y="-192.6" font-family="Times,serif" font-size="14.00">ActionsComponent </text>
</g>
<!-- ActionsModule&#45;&gt;ActionsComponent  -->
<g id="edge3" class="edge">
<title>ActionsModule&#45;&gt;ActionsComponent </title>
<path fill="none" stroke="black" stroke-dasharray="5,2" d="M177,-149.91C177,-149.91 177,-168.79 177,-168.79"/>
<polygon fill="black" stroke="black" points="173.5,-168.79 177,-178.79 180.5,-168.79 173.5,-168.79"/>
</g>
<!-- ActionsRoutingModule -->
<g id="node3" class="node">
<title>ActionsRoutingModule</title>
<polygon fill="#8dd3c7" stroke="black" points="172.22,-84.8 169.22,-88.8 148.22,-88.8 145.22,-84.8 23.78,-84.8 23.78,-48.8 172.22,-48.8 172.22,-84.8"/>
<text text-anchor="middle" x="98" y="-62.6" font-family="Times,serif" font-size="14.00">ActionsRoutingModule</text>
</g>
<!-- ActionsRoutingModule&#45;&gt;ActionsModule -->
<g id="edge2" class="edge">
<title>ActionsRoutingModule&#45;&gt;ActionsModule</title>
<path fill="none" stroke="black" d="M148.78,-84.91C148.78,-84.91 148.78,-103.79 148.78,-103.79"/>
<polygon fill="black" stroke="black" points="145.28,-103.79 148.78,-113.79 152.28,-103.79 145.28,-103.79"/>
</g>
</g>
</svg>
