<svg xmlns="http://www.w3.org/2000/svg" width="16" height="16"><g fill="none" fill-rule="evenodd"><path d="M0 0h16v16H0z"/><path fill="#26344A" d="M6.436 2a.516.516 0 0 1 .046 1.031l-.046.002H3.3a.267.267 0 0 0-.265.233l-.002.034v9.4c0 .136.102.249.234.265l.033.002h9.407a.267.267 0 0 0 .265-.233l.002-.034V8.783a.516.516 0 0 1 1.031-.046l.002.046V12.7c0 .697-.547 1.265-1.235 1.298l-.065.002H3.3a1.299 1.299 0 0 1-1.298-1.235L2 12.7V3.3a1.3 1.3 0 0 1 1.235-1.298L3.3 2h3.136zm5.122.151a.517.517 0 0 1 .73 0l1.568 1.567a.515.515 0 0 1 0 .73l-4.703 4.7a.519.519 0 0 1-.366.152H7.22a.516.516 0 0 1-.517-.517V7.217c0-.137.055-.269.152-.366zm.365 1.095L7.736 7.43v.837h.838l4.186-4.184-.837-.837z"/></g></svg>