<svg width="12" height="13" fill="none" xmlns="http://www.w3.org/2000/svg"><path d="M4.85 2.688a.427.427 0 0 1-.039-.853l.039-.002h2.422a.427.427 0 0 1 .04.853l-.04.002H4.85ZM3.817 4.006c0 .237.191.428.427.428h3.634l.039-.002a.428.428 0 0 0-.04-.853H4.245l-.039.002a.428.428 0 0 0-.388.425Zm0 3.972c0 .236.191.428.427.428h3.634l.039-.002a.428.428 0 0 0-.04-.853H4.245l-.039.001a.428.428 0 0 0-.388.426Z" fill="#5F6368"/><path fill-rule="evenodd" clip-rule="evenodd" d="M3.033 11.166H9.09c.57 0 1.033-.462 1.033-1.033V6.5c0-.571-.462-1.033-1.033-1.033H3.033C2.463 5.467 2 5.929 2 6.5v3.633c0 .57.463 1.033 1.033 1.033Zm6.056-.855H3.033a.178.178 0 0 1-.178-.178V6.5c0-.099.08-.178.178-.178H9.09c.098 0 .178.08.178.178v3.633c0 .099-.08.178-.178.178Z" fill="#5F6368"/></svg>