<svg width="20" height="20" xmlns="http://www.w3.org/2000/svg"><path d="M4 13a.5.5 0 1 0 0 1h1v1a.5.5 0 1 0 1 0v-1h2v1a.5.5 0 1 0 1 0v-1h2v1a.5.5 0 1 0 1 0v-1h2v1a.5.5 0 1 0 1 0v-1h1a.5.5 0 1 0 0-1h-1v-2h1a.5.5 0 1 0 0-1h-1V9a.5.5 0 1 0-1 0v1h-2V9a.5.5 0 1 0-1 0v1H9V9a.5.5 0 0 0-1 0v1H6V9a.5.5 0 0 0-1 0v1H4a.5.5 0 1 0 0 1h1v2H4Zm10-2v2h-2v-2h2Zm-3 0v2H9v-2h2Zm-5 0h2v2H6v-2Zm11.5-9.5H16a1.5 1.5 0 0 0-3 0H7a1.5 1.5 0 0 0-3 0H2.5A2.5 2.5 0 0 0 0 4v12.75A3.25 3.25 0 0 0 3.25 20h13.5A3.25 3.25 0 0 0 20 16.75V4a2.5 2.5 0 0 0-2.5-2.5Zm-3.5 0a.5.5 0 1 1 1 0v1a.5.5 0 1 1-1 0v-1Zm-9 0a.5.5 0 0 1 1 0v1a.5.5 0 0 1-1 0v-1ZM1 4a1.497 1.497 0 0 1 1.5-1.5H4a1.5 1.5 0 0 0 3 0h6a1.5 1.5 0 0 0 3 0h1.5A1.502 1.502 0 0 1 19 4v2H1V4Zm15.75 15H3.25a2.248 2.248 0 0 1-2.07-1.38c.395.248.853.38 1.32.38h15c.467 0 .925-.132 1.32-.38A2.248 2.248 0 0 1 16.75 19ZM19 15.5a1.5 1.5 0 0 1-1.5 1.5h-15A1.5 1.5 0 0 1 1 15.5V7h18v8.5Z" fill="#26344A"/></svg>