<svg width="12" height="13" fill="none" xmlns="http://www.w3.org/2000/svg"><path d="M5.5 0c-.82 0-1.496.675-1.496 1.496V2H1.5C.677 2 0 2.677 0 3.5v1a.5.5 0 0 0 .5.5h.56l.844 6.674v-.01c.084.756.73 1.336 1.49 1.336h5.211c.76 0 1.407-.58 1.49-1.336v.01L10.94 5h.56a.5.5 0 0 0 .5-.5v-1c0-.823-.678-1.5-1.5-1.5H8v-.504C8 .676 7.325 0 6.504 0H5.5Zm0 1h1.004c.281 0 .496.215.496.496V2H5.004v-.504c0-.281.215-.496.496-.496Zm-4 2h9c.281 0 .5.219.5.5V4H1v-.5c0-.281.219-.5.5-.5Zm.568 2h7.864l-.83 6.55v.005a.493.493 0 0 1-.497.445h-5.21a.493.493 0 0 1-.497-.445v-.004L2.068 5Z" fill="#DD3646"/></svg>