<svg width="32" height="9" xmlns="http://www.w3.org/2000/svg"><path d="M27.405 7.06c1.21 0 2.209-1.031 2.209-2.325 0-1.295-1-2.326-2.21-2.326-1.209 0-2.208 1.031-2.208 2.326 0 1.294 1 2.325 2.209 2.325Zm0 1.5c-2.048 0-3.71-1.713-3.71-3.825 0-2.113 1.662-3.826 3.71-3.826s3.709 1.713 3.709 3.826c0 2.112-1.66 3.825-3.71 3.825Zm-11.519-1.5c1.21 0 2.209-1.031 2.209-2.325 0-1.295-1-2.326-2.21-2.326-1.209 0-2.208 1.031-2.208 2.326 0 1.294 1 2.325 2.209 2.325Zm0 1.5c-2.049 0-3.71-1.713-3.71-3.825 0-2.113 1.661-3.826 3.71-3.826 2.048 0 3.709 1.713 3.709 3.826 0 2.112-1.66 3.825-3.71 3.825ZM4.477 7.06c1.21 0 2.209-1.031 2.209-2.325 0-1.295-1-2.326-2.21-2.326-1.209 0-2.208 1.031-2.208 2.326 0 1.294 1 2.325 2.209 2.325Zm0 1.5c-2.049 0-3.71-1.713-3.71-3.825 0-2.113 1.661-3.826 3.71-3.826 2.048 0 3.709 1.713 3.709 3.826 0 2.112-1.66 3.825-3.71 3.825Z" fill="#8A959F"/></svg>