<svg width="16" height="16" xmlns="http://www.w3.org/2000/svg"><g stroke="#FFF" stroke-width="2" fill="none" fill-rule="evenodd" stroke-linecap="round" stroke-linejoin="round"><path d="m6.444 1-.086.437-.329 1.598a5.52 5.52 0 0 0-1.434.823L2.987 3.32l-.432-.133-.224.385-1.107 1.851L1 5.81l.328.287 1.244 1.058c-.045.277-.103.55-.103.841 0 .291.058.565.103.842L1.328 9.895 1 10.182l.224.386 1.107 1.85.224.387.432-.135 1.608-.537a5.52 5.52 0 0 0 1.434.823l.329 1.598.086.437h3.111l.087-.437.328-1.598a5.52 5.52 0 0 0 1.434-.823l1.608.537.432.135.225-.386 1.106-1.851.225-.386-.329-.287-1.244-1.058c.046-.277.103-.55.103-.842 0-.29-.057-.564-.103-.841l1.244-1.058.329-.287-.225-.386-1.106-1.85-.225-.386-.432.133-1.608.538a5.52 5.52 0 0 0-1.434-.823l-.328-1.598L9.555 1H6.444Z"/><path d="M10 7.999a2 2 0 0 1-4 0 2 2 0 0 1 4 0Z"/></g></svg>