<svg width="97" height="30" fill="none" xmlns="http://www.w3.org/2000/svg"><path d="M33.13 13V1.364h7.454V3.13h-5.346v3.16h4.835v1.767h-4.835V13H33.13Zm9.284 0V4.273h2.057V13h-2.057Zm1.034-9.966c-.33 0-.612-.108-.847-.324a1.052 1.052 0 0 1-.346-.79c0-.31.117-.573.352-.79a1.19 1.19 0 0 1 .84-.329c.327 0 .605.11.836.33.235.216.352.479.352.79 0 .306-.117.57-.352.79a1.18 1.18 0 0 1-.835.323Zm5.194 4.852V13h-2.056V4.273h1.965v1.483h.103c.2-.489.52-.877.96-1.165.443-.288.99-.432 1.642-.432.602 0 1.127.129 1.574.386.45.258.8.631 1.045 1.12.25.488.373 1.081.37 1.778V13h-2.057V7.761c0-.583-.152-1.04-.455-1.369-.299-.33-.714-.494-1.244-.494-.36 0-.68.08-.96.238a1.659 1.659 0 0 0-.654.676c-.155.296-.233.654-.233 1.074Zm10.932 5.267a3.3 3.3 0 0 1-1.84-.528c-.542-.352-.97-.864-1.285-1.534-.314-.67-.471-1.485-.471-2.443 0-.97.159-1.788.477-2.455.322-.67.756-1.176 1.301-1.517a3.344 3.344 0 0 1 1.824-.517c.511 0 .932.087 1.261.261.33.17.591.377.784.62.194.238.343.464.45.676h.084V1.364h2.063V13h-2.023v-1.375h-.125c-.106.212-.26.438-.46.676a2.53 2.53 0 0 1-.795.602c-.33.167-.745.25-1.245.25Zm.574-1.687c.436 0 .807-.117 1.114-.352.307-.239.54-.57.699-.995.159-.424.238-.918.238-1.483 0-.564-.08-1.055-.238-1.471-.156-.417-.387-.74-.694-.972-.303-.23-.676-.346-1.119-.346-.458 0-.84.119-1.148.358-.306.238-.538.568-.693.988a4.15 4.15 0 0 0-.233 1.443c0 .546.078 1.033.233 1.46.16.425.392.76.7 1.006.31.243.69.364 1.141.364Zm8.323-10.102V13h-2.057V1.364h2.057Zm3.393 14.892c-.28 0-.54-.023-.778-.069a2.604 2.604 0 0 1-.563-.153L71 14.438c.447.128.822.15 1.125.062.307-.083.56-.366.756-.847l.176-.471-3.165-8.91h2.182l2.012 6.592h.09l2.018-6.591 2.198.011-3.505 9.773a3.947 3.947 0 0 1-.648 1.176c-.269.33-.598.581-.989.756-.386.178-.848.267-1.386.267Zm8.676-3.131c-.345 0-.64-.121-.886-.364a1.178 1.178 0 0 1-.364-.886c-.004-.34.118-.633.364-.875s.541-.364.886-.364c.334 0 .623.122.87.364a1.195 1.195 0 0 1 .198 1.506c-.113.19-.265.34-.454.454-.186.11-.39.165-.614.165Zm5.885.051a3.64 3.64 0 0 1-1.494-.295 2.443 2.443 0 0 1-1.046-.887c-.253-.39-.38-.87-.38-1.443 0-.492.09-.9.272-1.221.182-.322.43-.58.745-.773a3.755 3.755 0 0 1 1.062-.438 8.639 8.639 0 0 1 1.233-.221c.512-.053.926-.1 1.245-.142.318-.046.549-.114.693-.205.147-.095.221-.24.221-.437V7.08c0-.428-.127-.76-.38-.995-.254-.235-.62-.352-1.097-.352-.504 0-.903.11-1.199.33-.292.22-.489.479-.59.778l-1.921-.273c.151-.53.401-.973.75-1.33.348-.36.774-.628 1.278-.806a4.89 4.89 0 0 1 1.67-.273c.421 0 .84.05 1.256.148.417.098.798.261 1.142.488.345.224.622.529.83.915.212.387.318.87.318 1.45V13h-1.977v-1.199h-.068a2.51 2.51 0 0 1-.529.682 2.542 2.542 0 0 1-.846.506c-.338.125-.733.187-1.188.187Zm.534-1.511c.413 0 .771-.082 1.074-.244a1.81 1.81 0 0 0 .699-.66c.167-.272.25-.57.25-.892V8.841a.967.967 0 0 1-.33.148 4.665 4.665 0 0 1-.511.119c-.19.034-.377.064-.563.09l-.482.069c-.307.042-.582.11-.824.205a1.369 1.369 0 0 0-.574.397c-.14.167-.21.383-.21.648 0 .379.138.665.414.858.277.193.63.29 1.057.29ZM93.101 13V4.273h2.057V13h-2.057Zm1.034-9.966c-.33 0-.611-.108-.846-.324a1.052 1.052 0 0 1-.347-.79c0-.31.118-.573.352-.79.235-.219.516-.329.841-.329.326 0 .605.11.836.33.234.216.352.479.352.79 0 .306-.118.57-.352.79a1.18 1.18 0 0 1-.836.323Z" fill="#202124"/><path d="M32.863 27v-7.273h.838v2.685h.07a7.52 7.52 0 0 1 .256-.362 1.5 1.5 0 0 1 .476-.398c.209-.118.49-.178.845-.178.46 0 .864.115 1.215.345.35.23.624.555.82.977.197.42.295.918.295 1.49 0 .579-.098 1.08-.295 1.503a2.326 2.326 0 0 1-.817.98c-.348.23-.749.345-1.203.345-.35 0-.631-.058-.842-.174a1.559 1.559 0 0 1-.486-.402 5.407 5.407 0 0 1-.263-.376h-.1V27h-.81Zm.824-2.727c0 .412.06.775.18 1.09.121.312.298.558.53.735.232.175.516.263.852.263.35 0 .643-.093.877-.277.237-.187.414-.438.533-.753.12-.317.18-.67.18-1.058 0-.384-.058-.73-.177-1.037a1.602 1.602 0 0 0-.529-.735c-.234-.183-.529-.274-.884-.274-.34 0-.627.087-.86.26a1.56 1.56 0 0 0-.525.717 2.95 2.95 0 0 0-.177 1.069Zm5.617 4.758a1.834 1.834 0 0 1-.61-.1l.213-.738c.305.078.56.076.763-.007.204-.08.38-.324.53-.732l.155-.426-2.016-5.482h.909l1.505 4.346h.057l1.506-4.346.916.014-2.322 6.236a2.331 2.331 0 0 1-.388.688 1.466 1.466 0 0 1-.536.412 1.65 1.65 0 0 1-.682.135ZM47.018 27v-7.273h1.538v3.207h.096l2.617-3.207h1.843l-2.699 3.257L53.144 27h-1.84l-1.992-2.99-.756.923V27h-1.538Zm8.93.107c-.551 0-1.028-.118-1.43-.352a2.407 2.407 0 0 1-.927-.987c-.218-.424-.327-.915-.327-1.474 0-.563.109-1.056.327-1.477.217-.424.526-.753.926-.988.403-.236.88-.355 1.432-.355.551 0 1.027.119 1.427.355.403.235.713.564.93.988.218.421.327.914.327 1.477 0 .559-.109 1.05-.327 1.474-.217.421-.527.75-.93.987-.4.234-.876.352-1.427.352Zm.008-1.172a.94.94 0 0 0 .628-.213c.168-.145.295-.341.38-.59a2.53 2.53 0 0 0 .132-.849c0-.317-.044-.6-.132-.848a1.321 1.321 0 0 0-.38-.59.93.93 0 0 0-.628-.216.963.963 0 0 0-.64.216c-.17.145-.299.341-.387.59a2.607 2.607 0 0 0-.128.848c0 .318.043.6.128.85.088.248.217.444.387.589a.974.974 0 0 0 .64.213ZM59.616 27v-5.454h1.468v.951h.056c.1-.338.267-.594.501-.767.234-.175.504-.263.81-.263a2.307 2.307 0 0 1 .475.054v1.342a2.644 2.644 0 0 0-.64-.082c-.221 0-.42.049-.595.146a1.072 1.072 0 0 0-.561.987V27h-1.513Zm6.325.107c-.562 0-1.044-.114-1.45-.341a2.335 2.335 0 0 1-.93-.973c-.218-.422-.326-.92-.326-1.495 0-.561.108-1.054.326-1.478.218-.424.525-.754.92-.99.398-.237.864-.356 1.4-.356.359 0 .694.058 1.004.174.313.114.585.286.817.515.234.23.417.519.547.867.13.345.195.75.195 1.214v.416h-4.606v-.938h3.182c0-.218-.047-.41-.142-.579a1.017 1.017 0 0 0-.394-.394 1.124 1.124 0 0 0-.579-.145c-.23 0-.433.053-.61.16a1.121 1.121 0 0 0-.413.422c-.1.175-.15.37-.152.586v.891c0 .27.05.503.149.7.102.196.245.348.43.454.184.107.403.16.656.16.168 0 .322-.023.462-.07a.926.926 0 0 0 .586-.561l1.4.091a1.92 1.92 0 0 1-.438.881c-.217.249-.5.443-.845.583-.343.137-.74.206-1.19.206Zm4.375-.015a.83.83 0 0 1-.604-.248.83.83 0 0 1-.249-.604c0-.232.083-.43.249-.596a.83.83 0 0 1 .604-.25c.227 0 .426.084.596.25.17.165.256.364.256.596 0 .156-.04.3-.12.43a.917.917 0 0 1-.31.309.813.813 0 0 1-.422.113Zm3.65.011c-.349 0-.659-.06-.931-.181a1.499 1.499 0 0 1-.647-.543c-.156-.242-.234-.543-.234-.902 0-.303.056-.558.167-.764.111-.206.263-.372.455-.497.191-.126.41-.22.653-.284.246-.064.504-.11.774-.135.317-.033.573-.064.767-.093.194-.03.335-.075.423-.134a.297.297 0 0 0 .131-.263v-.021c0-.225-.07-.4-.213-.523-.14-.123-.338-.184-.597-.184-.272 0-.488.06-.65.18a.834.834 0 0 0-.319.448l-1.4-.113a1.9 1.9 0 0 1 .42-.86 2.01 2.01 0 0 1 .806-.56 3.082 3.082 0 0 1 1.15-.2c.304 0 .594.036.87.107.28.071.527.181.743.33.218.15.39.341.515.575.125.232.188.51.188.835V27h-1.435v-.756h-.042c-.088.17-.205.32-.352.45a1.625 1.625 0 0 1-.529.302 2.185 2.185 0 0 1-.714.107Zm.433-1.044c.222 0 .418-.044.589-.131.17-.09.304-.211.401-.363a.933.933 0 0 0 .146-.515v-.578a.806.806 0 0 1-.195.085 3.349 3.349 0 0 1-.274.067 14.14 14.14 0 0 1-.305.054l-.277.039a1.876 1.876 0 0 0-.465.124.744.744 0 0 0-.31.23.562.562 0 0 0-.11.356c0 .206.075.363.224.472.152.107.344.16.576.16ZM78.21 27v-5.454h1.512V27H78.21Zm.763-6.158a.822.822 0 0 1-.579-.223.72.72 0 0 1-.241-.544c0-.208.08-.387.241-.536a.81.81 0 0 1 .576-.227c.227 0 .42.075.578.227a.72.72 0 0 1 0 1.08.81.81 0 0 1-.575.223Z" fill="#9AA0A6"/><path d="m4.405 18.634 1.943 1.943-4.325 4.325a.275.275 0 0 1-.389 0L.08 23.349a.275.275 0 0 1 0-.388l4.325-4.326Z" fill="#009DAB"/><circle r="8.793" transform="matrix(-1 0 0 1 13.189 11.793)" fill="#FFDC5C"/></svg>