<svg width="96" height="30" xmlns="http://www.w3.org/2000/svg"><g fill="none"><path d="M35.256 13V8.057h4.835V6.29h-4.835V3.13h5.346V1.365h-7.454V13h2.108Zm8.204-9.966c.326 0 .605-.109.838-.327.233-.217.35-.48.35-.787 0-.31-.117-.574-.35-.792A1.184 1.184 0 0 0 43.46.8a1.19 1.19 0 0 0-.84.327 1.041 1.041 0 0 0-.353.792c0 .307.117.57.35.787.232.218.514.327.843.327ZM44.483 13V4.273h-2.057V13h2.057Zm4.17 0V7.886c0-.42.079-.778.236-1.074a1.65 1.65 0 0 1 .654-.678c.278-.158.597-.236.957-.236.53 0 .946.165 1.247.494.301.33.452.786.452 1.37V13h2.057V7.443c.003-.697-.119-1.29-.367-1.778a2.625 2.625 0 0 0-1.045-1.12c-.45-.257-.975-.386-1.577-.386-.651 0-1.198.144-1.64.432a2.489 2.489 0 0 0-.962 1.165h-.102V4.273h-1.966V13h2.056Zm10.938.153c.5 0 .915-.083 1.244-.25a2.51 2.51 0 0 0 .796-.605c.2-.236.354-.46.46-.673h.125V13h2.023V1.364h-2.063v4.352h-.085a3.867 3.867 0 0 0-.449-.68 2.431 2.431 0 0 0-.784-.618c-.33-.173-.75-.259-1.261-.259-.67 0-1.279.171-1.824.514-.546.343-.978.849-1.299 1.517-.32.669-.48 1.488-.48 2.458 0 .958.158 1.772.472 2.443.314.67.742 1.182 1.284 1.534a3.302 3.302 0 0 0 1.84.528Zm.574-1.687c-.451 0-.83-.122-1.14-.367-.308-.244-.541-.58-.698-1.005a4.193 4.193 0 0 1-.236-1.458c0-.541.078-1.022.233-1.443.155-.42.386-.75.693-.988.307-.24.69-.358 1.148-.358.443 0 .817.115 1.122.346.305.231.536.555.693.972.157.416.236.907.236 1.471 0 .565-.08 1.06-.239 1.483-.159.425-.392.755-.699.992-.306.237-.678.355-1.113.355ZM68.495 13V1.364h-2.058V13h2.057Zm3.391 3.256c.538 0 1.001-.088 1.39-.265a2.69 2.69 0 0 0 .985-.758c.27-.33.485-.722.648-1.176l3.506-9.773-2.2-.011-2.016 6.59h-.091l-2.011-6.59h-2.182l3.165 8.909-.177.471c-.197.481-.448.765-.752.85-.305.085-.681.063-1.128-.066l-.478 1.597c.14.06.33.113.566.156.237.044.495.066.775.066Zm9.216-3.131c.224 0 .43-.056.617-.168.187-.111.339-.262.454-.451A1.2 1.2 0 0 0 81.974 11a1.208 1.208 0 0 0-.872-.364c-.344 0-.64.122-.886.364a1.164 1.164 0 0 0-.364.875c-.004.348.118.644.364.886.246.243.542.364.886.364Zm5.892.051a3.39 3.39 0 0 0 1.19-.19c.34-.127.622-.296.847-.506.226-.21.4-.436.526-.679h.068V13h1.977V7.16c0-.58-.105-1.063-.315-1.45a2.5 2.5 0 0 0-.832-.917 3.57 3.57 0 0 0-1.142-.486 5.442 5.442 0 0 0-1.256-.148c-.61 0-1.167.09-1.67.27-.504.18-.93.449-1.279.807a3.088 3.088 0 0 0-.75 1.332l1.92.273c.103-.3.3-.559.594-.779.294-.22.692-.329 1.196-.329.477 0 .843.117 1.097.352s.38.567.38.995v.034c0 .197-.072.341-.218.434-.146.093-.378.161-.696.205-.319.043-.733.092-1.245.145a8.822 8.822 0 0 0-1.23.218c-.396.1-.75.248-1.065.44a2.11 2.11 0 0 0-.744.774c-.182.322-.273.729-.273 1.221 0 .572.128 1.053.383 1.443.256.39.605.685 1.046.884.441.199.938.298 1.491.298Zm.534-1.511c-.428 0-.78-.097-1.056-.29-.277-.193-.415-.48-.415-.858 0-.265.07-.482.21-.65.14-.17.331-.3.574-.395.242-.095.517-.163.824-.205l.483-.068c.185-.027.373-.057.562-.091.19-.034.361-.074.514-.12a.966.966 0 0 0 .327-.147v1.028c0 .322-.082.62-.247.892a1.807 1.807 0 0 1-.702.657c-.303.164-.66.247-1.074.247Zm7.182-8.63c.326 0 .605-.11.838-.328.233-.217.35-.48.35-.787 0-.31-.117-.574-.35-.792A1.184 1.184 0 0 0 94.71.8a1.19 1.19 0 0 0-.84.327 1.041 1.041 0 0 0-.353.792c0 .307.117.57.35.787.232.218.514.327.843.327ZM95.733 13V4.273h-2.057V13h2.057Z" fill="#FFF"/><path d="M35.38 27.114a2.13 2.13 0 0 0 1.205-.347c.348-.23.62-.557.816-.98.197-.422.295-.922.295-1.5 0-.573-.098-1.07-.295-1.492a2.292 2.292 0 0 0-.82-.976 2.165 2.165 0 0 0-1.215-.345c-.355 0-.636.059-.843.176-.207.117-.366.25-.476.398a7.37 7.37 0 0 0-.257.364h-.071v-2.685h-.838V27h.81v-.838h.099c.061.1.149.224.263.375.113.15.275.284.486.4.21.118.491.177.842.177Zm-.113-.753c-.336 0-.62-.088-.852-.265a1.633 1.633 0 0 1-.53-.735 3.018 3.018 0 0 1-.18-1.088c0-.407.059-.764.177-1.07.118-.308.294-.547.526-.718.232-.172.518-.258.859-.258.355 0 .65.09.886.272.236.181.412.426.53.735.116.309.175.655.175 1.039 0 .388-.06.74-.18 1.056a1.692 1.692 0 0 1-.532.753c-.236.186-.529.279-.879.279Zm4.247 2.684c.254 0 .481-.045.684-.134.202-.09.38-.228.534-.414a2.39 2.39 0 0 0 .387-.702l2.323-6.235-.916-.015-1.506 4.347h-.057l-1.506-4.347h-.909l2.017 5.483-.156.427c-.102.277-.214.477-.335.601a.657.657 0 0 1-.418.208 1.613 1.613 0 0 1-.54-.057l-.213.739c.043.021.12.043.231.066.112.022.238.033.38.033ZM48.764 27v-2.067l.757-.923L51.513 27h1.84l-2.73-4.016 2.698-3.257h-1.843l-2.617 3.207h-.096v-3.207h-1.538V27h1.538Zm7.794.107c.552 0 1.028-.118 1.43-.354.4-.235.71-.564.928-.987.218-.423.327-.913.327-1.472 0-.563-.109-1.056-.327-1.479a2.388 2.388 0 0 0-.928-.987c-.402-.236-.878-.354-1.43-.354-.551 0-1.028.118-1.43.354-.4.235-.71.564-.928.987-.218.423-.326.916-.326 1.479 0 .559.108 1.05.326 1.472.218.423.528.752.929.987.401.236.878.354 1.43.354Zm.007-1.172a.961.961 0 0 1-.637-.215 1.3 1.3 0 0 1-.387-.588 2.577 2.577 0 0 1-.13-.849c0-.317.043-.6.13-.848.086-.249.215-.445.387-.59a.956.956 0 0 1 .637-.216c.251 0 .46.072.629.216.168.145.295.341.382.59.086.248.13.531.13.848 0 .318-.044.6-.13.85a1.321 1.321 0 0 1-.382.587.935.935 0 0 1-.629.215ZM61.743 27v-3.086a1.077 1.077 0 0 1 .563-.989 1.21 1.21 0 0 1 .595-.144 2.648 2.648 0 0 1 .639.082V21.52a2.288 2.288 0 0 0-.476-.053c-.305 0-.575.086-.81.26-.234.174-.401.43-.5.77h-.057v-.953H60.23V27h1.513Zm5.06.107c.45 0 .848-.07 1.192-.208.345-.139.627-.333.846-.583.219-.25.364-.542.435-.878l-1.4-.093a.926.926 0 0 1-.586.561 1.43 1.43 0 0 1-.461.071c-.254 0-.473-.053-.657-.16a1.08 1.08 0 0 1-.428-.454c-.1-.197-.151-.43-.151-.7v-.003h3.714v-.416c0-.464-.065-.87-.195-1.216a2.354 2.354 0 0 0-.545-.865 2.27 2.27 0 0 0-.817-.516 2.887 2.887 0 0 0-1.006-.173c-.535 0-1.001.119-1.398.356a2.411 2.411 0 0 0-.921.99c-.218.424-.327.917-.327 1.478 0 .575.109 1.073.327 1.493.217.42.528.744.932.973.403.228.886.343 1.447.343Zm-1.2-3.493c.02-.154.068-.297.143-.43a1.133 1.133 0 0 1 1.022-.58c.22 0 .414.048.581.144.167.095.298.227.392.395.095.169.142.361.142.58h-2.287l.008-.109Zm5.577 3.478a.804.804 0 0 0 .422-.115.913.913 0 0 0 .311-.309.801.801 0 0 0 .119-.428.803.803 0 0 0-.256-.597.83.83 0 0 0-.596-.248.824.824 0 0 0-.602.248.81.81 0 0 0-.25.597.82.82 0 0 0 .25.602.82.82 0 0 0 .602.25Zm3.648.011c.27 0 .508-.036.714-.108a1.517 1.517 0 0 0 .88-.751h.043V27H77.9v-3.679c0-.324-.063-.603-.188-.836a1.616 1.616 0 0 0-.514-.574 2.299 2.299 0 0 0-.742-.33 3.51 3.51 0 0 0-.872-.107c-.435 0-.818.066-1.148.198-.33.13-.6.318-.808.56a1.92 1.92 0 0 0-.42.862l1.4.113a.842.842 0 0 1 .32-.449c.16-.12.377-.18.65-.18.257 0 .457.062.598.185.14.124.211.298.211.523v.02a.297.297 0 0 1-.131.264c-.088.059-.229.103-.423.133-.194.03-.45.06-.767.094-.27.026-.527.07-.772.135a2.202 2.202 0 0 0-.656.284 1.351 1.351 0 0 0-.454.497c-.111.206-.167.46-.167.764 0 .36.079.66.236.9.158.24.372.421.645.543.272.122.582.183.93.183Zm.433-1.044a.96.96 0 0 1-.573-.162.543.543 0 0 1-.226-.47.57.57 0 0 1 .11-.357.75.75 0 0 1 .31-.23c.132-.056.287-.097.465-.123l.277-.041c.101-.016.203-.033.305-.053.102-.02.193-.043.275-.068a.773.773 0 0 0 .194-.083v.578a.934.934 0 0 1-.146.515 1.03 1.03 0 0 1-.401.36c-.17.09-.367.134-.59.134Zm4.576-5.217a.812.812 0 0 0 .577-.225c.16-.15.24-.331.24-.542a.714.714 0 0 0-.24-.538.817.817 0 0 0-.58-.225.814.814 0 0 0-.576.225.711.711 0 0 0-.241.538c0 .211.08.392.241.542a.82.82 0 0 0 .58.225Zm.75 6.158v-5.455h-1.513V27h1.513Z" fill="#9299A4"/><g transform="matrix(-1 0 0 1 22 3)"><path d="m17.577 15.634-1.943 1.943 4.325 4.326a.275.275 0 0 0 .388 0l1.554-1.555a.275.275 0 0 0 0-.388l-4.324-4.326Z" fill="#009DAB"/><circle fill="#FFDC5C" cx="8.793" cy="8.793" r="8.793"/></g></g></svg>