<svg xmlns="http://www.w3.org/2000/svg" width="16" height="17"><path fill="#009DAB" d="M6.754 1h2.584c.494-.005.922.326 1.05.8l.024.12.186 1.314.13.067.128.072.126.075.12.079 1.28-.512a1.085 1.085 0 0 1 1.133.277l.08.097.07.108 1.31 2.268c.218.415.145.918-.186 1.265l-.097.09-1.042.814.003.04.007.256-.005.236-.005.057 1.021.807c.37.277.512.753.38 1.17l-.042.111-.056.108-1.29 2.233a1.072 1.072 0 0 1-1.215.516l-.118-.038-1.236-.498-.121.08-.126.075-.127.07-.13.066-.182 1.286c-.047.47-.391.829-.826.925l-.121.02-.115.006H6.754c-.485 0-.89-.316-1.036-.797l-.03-.123-.187-1.315-.13-.066-.127-.072-.126-.075-.122-.08-1.277.513c-.404.135-.85.027-1.134-.277l-.08-.097-.07-.108-1.31-2.268a1.087 1.087 0 0 1 .186-1.265l.097-.09 1.04-.815-.002-.041-.006-.254.002-.12.01-.181-1.024-.8a1.065 1.065 0 0 1-.38-1.168l.043-.112.056-.108 1.287-2.228a1.07 1.07 0 0 1 1.217-.52l.118.038 1.236.496.122-.079.125-.074.128-.072.129-.066.185-1.305c.058-.457.4-.814.833-.907l.12-.019L6.754 1zm2.225 1.499H7.128l-.25 1.772-.395.164a4.07 4.07 0 0 0-.707.379l-.218.156-.34.26-1.66-.667-.925 1.604L4.057 7.28l-.07.437c-.03.193-.047.365-.047.513 0 .117.006.235.018.348l.021.165.07.437-1.424 1.111.926 1.605 1.66-.666.34.262c.212.163.44.305.678.422l.243.11.397.163.25 1.773H8.97l.251-1.771.395-.164c.248-.103.484-.23.707-.379l.218-.156.34-.26 1.657.666.928-1.606-1.392-1.1.05-.418c.023-.193.035-.37.035-.542 0-.12-.006-.236-.018-.348l-.021-.165-.07-.437 1.423-1.112-.926-1.605-1.66.667-.34-.262a4.013 4.013 0 0 0-.677-.422l-.244-.11-.397-.163-.251-1.774zm-.93 2.551c1.752 0 3.18 1.43 3.18 3.18 0 1.75-1.428 3.18-3.18 3.18-1.75 0-3.18-1.43-3.18-3.18 0-1.75 1.43-3.18 3.18-3.18zm0 1.5c-.921 0-1.68.758-1.68 1.68 0 .922.759 1.68 1.68 1.68.923 0 1.68-.758 1.68-1.68 0-.922-.757-1.68-1.68-1.68z"/></svg>