<svg xmlns="http://www.w3.org/2000/svg" width="206" height="219"><g fill="none"><path fill="#F3F3F4" d="M201.134 86.533C188.62 37.133 145.378 1.473 94.622.043c-26.833-.756-55.07 8.178-75.627 39.44-36.75 55.886 2.258 94.504 29.453 112.854a170.365 170.365 0 0 1 35.173 31.736c18.37 21.882 53.709 49.074 95.795 6.469 30.505-30.881 30.054-71.104 21.718-104.009z"/><path fill="#000" d="M133 159.394 151.636 141 133 122.606l5.682-5.606L163 141l-24.318 24-5.682-5.606zM82 143h7.37v-8H82v8zm37-8h-7.37v8H119v-8zm-22.185 8h7.37v-8h-7.37v8zM72 159.394 53.345 141l18.636-18.394L66.299 117 42 141l24.318 24z" opacity=".1"/><path fill="#26344A" d="M203 204.936C203 208.085 157.557 219 101.5 219S0 208.085 0 204.936c0-3.15 45.443 2.66 101.5 2.66s101.5-5.81 101.5-2.66z"/><path fill="#000" d="M203 204.936C203 208.085 157.557 219 101.5 219S0 208.085 0 204.936c0-3.15 45.443 2.66 101.5 2.66s101.5-5.81 101.5-2.66z" opacity=".1"/><ellipse cx="101.5" cy="205.5" fill="#26344A" rx="101.5" ry="5.5"/><path fill="#26344A" d="M117 179c0 11.607 7.604 21 17 21"/><path fill="#009DAB" d="M134 199c0-11.607 8.498-21 19-21m-29 1c0 11.607 4.473 21 10 21"/><path fill="#26344A" d="M134 200c0-15.477 9.393-28 21-28"/><path fill="#A8A8A8" d="M131 200.144s2.419-.065 3.148-.52c.729-.454 3.72-.996 3.901-.268.18.729 3.635 3.624.904 3.643-2.73.02-6.345-.372-7.072-.76-.728-.388-.881-2.095-.881-2.095z"/><path fill="#000" d="M139.003 201.733c-2.731.02-6.346-.39-7.073-.798-.555-.31-.775-1.422-.85-1.935l-.08.003s.153 1.792.88 2.199c.728.407 4.343.818 7.074.797.788-.006 1.06-.263 1.045-.645-.11.23-.41.375-.996.38z" opacity=".2"/><path fill="#FFB9B9" d="M161 135.347s-6.476-4.686-6.967-2.969c-.492 1.718 4.751 5.622 4.751 5.622l2.216-2.653z"/><path fill="#000" d="M161 135.347s-6.476-4.686-6.967-2.969c-.492 1.718 4.751 5.622 4.751 5.622l2.216-2.653z" opacity=".1"/><path fill="#D0CDE1" d="M179.893 122s-6.974 11.971-7.122 13.681c-.149 1.71-.149 1.853-.742 1.71-.593-.142-8.754-.997-9.496-.712-.742.285-2.225-1.71-2.225-1.71s-2.82 2.707-2.226 3.277c.594.57 2.374.855 2.67 1.568.298.713.743 1.425 2.078 1.283 1.335-.143 10.386 2.28 11.573 1.852 1.187-.427 1.484-1.14 2.077-1.14.594 0 1.78-.57 1.78-.712 0-.143 4.155-7.696 4.155-7.696s4.896-10.26-2.522-11.401z"/><path fill="#000" d="M179.893 122s-6.974 11.971-7.122 13.681c-.149 1.71-.149 1.853-.742 1.71-.593-.142-8.754-.997-9.496-.712-.742.285-2.225-1.71-2.225-1.71s-2.82 2.707-2.226 3.277c.594.57 2.374.855 2.67 1.568.298.713.743 1.425 2.078 1.283 1.335-.143 10.386 2.28 11.573 1.852 1.187-.427 1.484-1.14 2.077-1.14.594 0 1.78-.57 1.78-.712 0-.143 4.155-7.696 4.155-7.696s4.896-10.26-2.522-11.401z" opacity=".1"/><path fill="#26344A" d="M170.452 113.322c-.06.76-.048 1.523.037 2.28.215 1.643.967 3.355.257 4.888-.257.557-.694 1.042-.931 1.605-.503 1.192-.047 2.515-.116 3.784-.088 1.64-1.124 3.219-2.699 4.117 2.691.084 5.251-1.255 6.945-3.081 1.693-1.826 2.636-4.09 3.343-6.356.364-1.064.596-2.168.694-3.29a4.786 4.786 0 0 0-.22-1.905 7.337 7.337 0 0 0-.974-1.675c-.424-.6-.86-1.212-1.486-1.659-.77-.55-2.256-1.102-3.279-1.022-1.253.098-1.518 1.438-1.57 2.314z"/><path fill="#FFB9B9" d="M175 118.802s1.571 5.212.286 6.682c-1.286 1.47 7.714-.668 7.714-.668s-4.429-4.143-2.286-6.816l-5.714.802z"/><path fill="#000" d="M175 118.802s1.571 5.212.286 6.682c-1.286 1.47 7.714-.668 7.714-.668s-4.429-4.143-2.286-6.816l-5.714.802z" opacity=".1"/><path fill="#009DAB" d="M133 154.394 151.636 136 133 117.606l5.682-5.606L163 136l-24.318 24-5.682-5.606z"/><path fill="#FFB9B9" d="M170 194.146v4.229l1.607 2.625 1.393-.875-.429-6.125z"/><path fill="#26344A" d="M170.446 198.108s-.569-2.04-1.565-.583c-.996 1.458-1.992 4.665-2.561 4.81-.57.146-4.554 4.665-.57 4.665 3.985 0 5.266-1.895 5.266-1.895S175 203.502 175 203.21c0-.292-.57-5.685-.854-5.685-.284 0-.427 1.02-1.138 1.02-.712 0-2.562-.437-2.562-.437z"/><path fill="#FFB9B9" d="m178.125 195.308-.125 4.154 3 1.538v-6z"/><path fill="#26344A" d="M183.129 199.616s-1.888-1.98-2.904-1.556c-.503.197-.989.434-1.453.707 0 0-.58 1.84-.87 3.397-.291 1.556-.436 2.264-.727 2.83-.29.566-.58 2.689 2.323 2.972 2.905.283 3.776-1.274 3.776-1.274l.726-3.68s-.29-3.396-.871-3.396zm-11.889-46.459s-3.977 9.318-3.429 17.776c0 0-1.37 3.297-.548 8.457.823 5.16 1.92 15.482 1.92 15.482s3.703.43 3.977-.287c0 0 .274-7.167.549-7.454.274-.287-.138-6.88-.549-8.17-.411-1.291 3.84-14.05 3.84-14.05L175.903 149l-4.663 4.157z"/><path fill="#000" d="M171.24 153.157s-3.977 9.318-3.429 17.776c0 0-1.37 3.297-.548 8.457.823 5.16 1.92 15.482 1.92 15.482s3.703.43 3.977-.287c0 0 .274-7.167.549-7.454.274-.287-.138-6.88-.549-8.17-.411-1.291 3.84-14.05 3.84-14.05L175.903 149l-4.663 4.157z" opacity=".1"/><path fill="#26344A" d="m170 151.825 2.83 5.995s1.34 13.599 2.084 15.353c0 0 .298 4.972 1.638 6.58 1.34 1.609 2.382 15.792 2.382 15.792s3.723 1.024 4.02 0c.299-1.023 1.192-8.042 1.192-8.042s.298-5.995-1.34-9.943c-1.638-3.948 1.936-18.131 1.936-18.131s3.722-6.873-1.638-12.429L170 151.825z"/><circle cx="177" cy="114" r="6" fill="#FFB9B9"/><path fill="#D0CDE1" d="M183.016 124s-6.09 0-6.94.737a1.098 1.098 0 0 1-1.558 0s-2.124.147-2.69 1.916c-.567 1.77-2.267 4.128-2.267 4.128s-2.549 1.916-1.133 6.928c1.417 5.012.284 13.12.284 13.12s-1.133 1.768 0 2.505c1.133.737 1.557 1.032 1.416 1.622-.142.59 12.888-4.865 12.888-5.897s-.283-1.916 0-2.358c.283-.442.566-1.18.283-1.917-.283-.737.283-.884.142-1.621-.142-.737.708-6.191 1.274-8.55.567-2.358.425-10.466-1.7-10.613z"/><path fill="#FFB9B9" d="M161 136.347s-6.476-4.686-6.967-2.969c-.492 1.718 4.751 5.622 4.751 5.622l2.216-2.653z"/><path fill="#D0CDE1" d="M179.893 124s-6.974 11.971-7.122 13.681c-.149 1.71-.149 1.853-.742 1.71-.593-.142-8.754-.997-9.496-.712-.742.285-2.225-1.71-2.225-1.71s-2.82 2.707-2.226 3.277c.594.57 2.374.856 2.67 1.568.298.713.743 1.425 2.078 1.283 1.335-.143 10.386 2.28 11.573 1.852 1.187-.427 1.484-1.14 2.077-1.14.594 0 1.78-.57 1.78-.712 0-.143 4.155-7.696 4.155-7.696s4.896-10.26-2.522-11.401z"/><path fill="#26344A" d="M174.473 118.087c-.08-.594-.369-1.132-.518-1.712a3.71 3.71 0 0 1 .386-2.76c.82-1.389 2.428-2.004 3.55-3.137.024.577.405 1.07.827 1.441.421.371.905.672 1.262 1.112.342.464.592.995.735 1.563.22.658.318 1.354.29 2.05a2.623 2.623 0 0 1-.846 1.822c-.418.347-1.002.545-1.204 1.062-.08.259-.102.533-.067.802.095 1.61.185 3.248-.176 4.815-.361 1.567-1.246 3.082-2.632 3.776 1.14.085 2.302.168 3.408-.134 1.105-.302 2.162-1.062 2.543-2.192.188-.557.206-1.178.473-1.698.676-1.318 2.542-1.378 3.46-2.525.366-.458.544-1.05.675-1.632.775-3.43.23-7.072-.948-10.373-.406-1.138-.912-2.283-1.783-3.083-.742-.68-1.689-1.055-2.625-1.375-1.367-.467-2.775-.85-4.211-.9a5.13 5.13 0 0 0-1.849.227c-.59.224-1.14.553-1.626.973-2.25 1.838-3.782 4.776-3.579 7.761.123 1.807.852 3.516 1.789 5.037.327.532 1.101 1.666 1.82 1.332.653-.304.932-1.61.846-2.252z"/><path fill="#009DAB" d="M82 138h7.37v-8H82v8zm37-8h-7.37v8H119v-8zm-22.185 8h7.37v-8h-7.37v8z"/><ellipse cx="39" cy="104" fill="#26344A" rx="6" ry="5"/><path fill="#A0616A" d="M39.47 137.463s5.288.312 6.228-.312c.94-.624 4.935.832 5.287 1.665.353.832-5.64.936-6.58.936C43.465 139.752 39 141 39 141l.47-3.537z"/><path fill="#26344A" d="M28.64 195.516s-2.607 6.316-1.247 7.078c1.36.762 15.643.218 15.643.218s2.38-1.416-.34-2.396c0 0-2.267-.109-3.74-.98-1.474-.871-3.175-2.504-3.175-2.504s-.113-2.396-1.02-1.852a2.232 2.232 0 0 0-1.02 1.525l-5.101-1.089z"/><path fill="#000" d="M28.64 195.516s-2.607 6.316-1.247 7.078c1.36.762 15.643.218 15.643.218s2.38-1.416-.34-2.396c0 0-2.267-.109-3.74-.98-1.474-.871-3.175-2.504-3.175-2.504s-.113-2.396-1.02-1.852a2.232 2.232 0 0 0-1.02 1.525l-5.101-1.089z" opacity=".1"/><path fill="#009DAB" d="M72 154.394 53.345 136l18.636-18.394L66.299 112 42 136l24.318 24z"/><path fill="#26344A" d="M23.833 198.58s-2.914 7.106-1.394 7.963c1.52.858 17.484.245 17.484.245s2.66-1.592-.38-2.695c0 0-2.534-.122-4.181-1.102-1.647-.98-3.548-2.818-3.548-2.818s-.126-2.695-1.14-2.082a2.51 2.51 0 0 0-1.14 1.715l-5.701-1.225zM39 151.174l-1.707 16s-.61 7.619-2.44 9.27c0 0 0 2.412-.61 3.174l-.853 10.031s1.22 3.683 1.098 4.318c-.122.634.488 2.666.366 2.92s-5.854 0-5.854 0l1.22-20.444L34 148l5 3.174z"/><path fill="#000" d="m39 151.174-1.707 16s-.61 7.619-2.44 9.27c0 0 0 2.412-.61 3.174l-.853 10.031s1.22 3.683 1.098 4.318c-.122.634.488 2.666.366 2.92s-5.854 0-5.854 0l1.22-20.444L34 148l5 3.174z" opacity=".1"/><path fill="#26344A" d="M36 151.272s-1.312 12.961-1.909 15.73a37.579 37.579 0 0 0-.715 5.537s-.12 4.027-1.193 5.16a3.504 3.504 0 0 0-.955 2.516s-1.073 12.71-.477 14.22c.597 1.51 1.193 2.768.597 3.775-.597 1.007-7.158 1.007-7.158.252 0-.755 0-1.384-.357-1.762-.358-.377 0-2.768 0-2.768s-1.432-11.2-.12-14.472c1.312-3.272 1.909-12.206 1.909-12.206s-.954-10.194-2.147-11.83c-1.193-1.635.238-7.424.238-7.424L36 151.272z"/><path fill="#A0616A" d="M31 111.503c.163.323.553.502.907.672 2.057.985 3.778 2.413 5.474 3.825a4.911 4.911 0 0 1 .254-3.778c.203-.408.468-.846.324-1.272-.107-.313-.414-.54-.71-.74a23.023 23.023 0 0 0-2.166-1.284c-.525-.273-1.603-.999-2.205-.92-.031.707-.048 1.34-.404 2-.084.157-1.412 1.62-1.474 1.497z"/><circle cx="39" cy="107" r="5" fill="#A0616A"/><path fill="#575A89" d="M39.314 119.231s.88-4.425-1.632-5.942c-2.511-1.517-5.399-3.287-5.399-3.287s-.879-.127-1.255 1.77c0 0-7.157 1.39-7.91 8.218-.754 6.827.502 16.815.502 16.815s-1.13 8.724-2.511 13.402c0 0-1.13 1.012 3.892-.506C30.023 148.184 38.812 154 38.812 154s.879-.885.879-1.517c0-.632 1.004-4.299 1.004-4.299s.88-15.551 1.256-17.321c.377-1.77-1.507-11.379-2.637-11.632z"/><path fill="#26344A" d="M37.406 107.961a2.08 2.08 0 0 1 .97-.257c.34-.005.672-.103.96-.284.467-.356.5-1.045.843-1.522.494-.69 1.482-.774 2.334-.739.52.021 1.082.052 1.52-.228.451-.288.655-.83.807-1.34.18-.604.296-1.342-.15-1.79-.308-.31-.796-.372-1.14-.645-.355-.283-.502-.743-.696-1.154-.22-.5-.568-.933-1.01-1.257-.647-.448-1.475-.548-2.264-.54-.788.009-1.58.112-2.363.015-.641-.078-1.28-.29-1.92-.196-.815.12-1.489.73-1.89 1.445-.401.715-.574 1.53-.74 2.332l-.455 2.18c-.14.676-.282 1.37-.173 2.053.225 1.413 1.483 2.537 1.57 3.966a2.438 2.438 0 0 1 1.494-1.767.466.466 0 0 1 .305-.037c.125.04.198.164.277.268.207.273.856.687 1.224.494.329-.174.083-.718.497-.997z"/><path fill="#A0616A" d="M23.095 131.428s-.897 6.09 2.82 5.536c0 0 1.921-.276 2.178 0 .256.277 9.738-1.522 11.02-3.044 0 0 1.537-.554 2.306.276.77.83 8.458 1.661 6.151-.83-2.307-2.491-5.894-3.045-5.894-3.045l-4.87.277s-2.563.83-4.1 0c-1.538-.83-5.895-.554-5.895-.554l-3.716 1.384z"/><path fill="#575A89" d="M27.911 115S22 115.62 22 123.693V134s3.284-1.366 3.941-1.242c.657.124 3.284-1.614 3.284-1.614s3.022-6.706 2.759-8.569c-.263-1.863-.132-7.327-4.073-7.575z"/><ellipse cx="39" cy="104" fill="#26344A" rx="5" ry="3"/><ellipse cx="34.5" cy="105" fill="#26344A" rx="1.5" ry="4"/><path fill="#8A959F" d="M42.91 47V36.878h-1.89V47h1.89zm3.906 0v-5.194c.233-.233.48-.418.742-.553.261-.135.541-.203.84-.203.406 0 .71.12.913.36.203.24.305.58.305 1.019V47h1.729v-4.571c0-.401-.053-.769-.157-1.102-.105-.334-.26-.621-.463-.861s-.456-.428-.759-.56a2.574 2.574 0 0 0-1.043-.2c-.243 0-.467.023-.672.07a2.62 2.62 0 0 0-.578.203c-.18.089-.35.194-.51.315a3.97 3.97 0 0 0-.459.406l-.119-.567c-.07-.21-.217-.315-.441-.315h-1.057V47h1.729zm8.589.112c.35 0 .688-.054 1.015-.161.327-.107.616-.266.868-.476l-.518-.84a.551.551 0 0 0-.105-.115.197.197 0 0 0-.126-.039.245.245 0 0 0-.126.038 2.44 2.44 0 0 1-.143.081 1.394 1.394 0 0 1-.19.08.8.8 0 0 1-.269.039.57.57 0 0 1-.448-.189c-.112-.126-.168-.301-.168-.525v-3.892h1.89v-1.232h-1.89V37.62h-.896a.41.41 0 0 0-.255.077.347.347 0 0 0-.13.217l-.364 1.96-1.155.189v.686c0 .121.034.212.101.273.068.06.149.091.242.091h.728v4.011c0 .62.168 1.107.504 1.46.336.352.814.528 1.435.528zm6.111-.007c.252 0 .512-.019.78-.056a4.04 4.04 0 0 0 .791-.193c.26-.09.508-.212.746-.364.238-.151.453-.339.644-.563l-.504-.63a.406.406 0 0 0-.133-.119.374.374 0 0 0-.182-.042.678.678 0 0 0-.333.098c-.114.065-.247.138-.399.217-.151.08-.329.152-.532.217s-.444.098-.724.098c-.57 0-1.027-.173-1.372-.518-.345-.345-.544-.887-.595-1.624h4.438c.08 0 .145-.01.196-.032a.255.255 0 0 0 .123-.105.54.54 0 0 0 .063-.203c.011-.086.017-.194.017-.325 0-.518-.077-.979-.231-1.383a2.908 2.908 0 0 0-.644-1.022 2.746 2.746 0 0 0-.983-.633 3.48 3.48 0 0 0-1.25-.217 3.57 3.57 0 0 0-1.446.28c-.426.187-.788.44-1.084.76a3.32 3.32 0 0 0-.683 1.127 3.962 3.962 0 0 0-.238 1.382c0 .63.091 1.184.273 1.662.182.479.432.88.749 1.204.317.325.69.57 1.12.735.43.166.894.249 1.393.249zm1.47-4.522h-3.248c.08-.523.261-.926.546-1.211.285-.285.679-.427 1.183-.427.257 0 .48.043.672.13.191.086.35.204.476.353.126.15.22.323.28.522.06.198.091.409.091.633zm5.467 6.944c.55 0 1.04-.071 1.47-.214.43-.142.792-.33 1.088-.563.297-.233.523-.5.68-.798.156-.299.234-.607.234-.924 0-.34-.066-.62-.2-.837a1.466 1.466 0 0 0-.524-.514 2.483 2.483 0 0 0-.739-.276 6.494 6.494 0 0 0-.847-.123c-.29-.023-.572-.038-.847-.045a7.573 7.573 0 0 1-.739-.053 1.636 1.636 0 0 1-.525-.144.333.333 0 0 1-.199-.318c0-.168.112-.32.336-.455.257.051.52.077.791.077.401 0 .773-.055 1.117-.165.342-.11.639-.264.888-.465a2.125 2.125 0 0 0 .802-1.694 2.226 2.226 0 0 0-.147-.812l.644-.119c.135-.023.231-.065.287-.126a.357.357 0 0 0 .084-.252v-.644h-2.065a2.966 2.966 0 0 0-.742-.277 3.818 3.818 0 0 0-.868-.094c-.41 0-.79.054-1.138.161a2.72 2.72 0 0 0-.903.465 2.182 2.182 0 0 0-.595.736 2.135 2.135 0 0 0-.213.962c0 .439.104.821.311 1.148.208.327.494.588.858.784-.159.08-.296.17-.413.27-.117.1-.213.206-.29.318a1.281 1.281 0 0 0-.172.34 1.076 1.076 0 0 0-.056.332c0 .261.054.474.161.637.107.163.25.294.427.392-.364.135-.649.317-.854.546a1.223 1.223 0 0 0-.308.847c0 .247.065.485.196.714.13.229.328.43.591.605.264.175.597.316.998.42.401.105.875.158 1.421.158zm-.021-6.293c-.21 0-.395-.03-.556-.087a1.082 1.082 0 0 1-.4-.245 1.016 1.016 0 0 1-.237-.375 1.332 1.332 0 0 1-.081-.469c0-.355.106-.636.319-.843.212-.208.53-.312.955-.312.425 0 .743.104.956.312.212.207.318.488.318.843 0 .173-.027.331-.08.476a.99.99 0 0 1-.239.371 1.1 1.1 0 0 1-.395.242 1.63 1.63 0 0 1-.56.087zm.049 5.061c-.317 0-.586-.022-.805-.067a1.772 1.772 0 0 1-.535-.185.799.799 0 0 1-.302-.283.7.7 0 0 1-.094-.354c0-.191.06-.36.178-.508.12-.147.277-.274.473-.381.215.028.438.048.668.06.232.011.456.023.673.035.217.011.422.029.616.052.193.023.362.06.507.108.145.05.259.118.343.207.084.089.126.203.126.343s-.035.27-.105.389a.87.87 0 0 1-.333.308 2.007 2.007 0 0 1-.577.203 4.18 4.18 0 0 1-.833.073zM74.921 47v-4.473c.177-.383.394-.673.651-.871.257-.199.565-.298.924-.298.2 0 .362.016.483.049s.217.049.287.049c.08 0 .142-.018.189-.053.047-.035.077-.094.091-.178l.224-1.295c-.233-.163-.527-.245-.882-.245-.43 0-.817.128-1.162.385s-.646.607-.903 1.05l-.105-.868c-.023-.159-.07-.27-.14-.336-.07-.065-.194-.098-.371-.098h-1.015V47h1.729zm5.719.112c.257 0 .49-.021.7-.063.21-.042.408-.105.595-.189s.367-.188.543-.312a5.86 5.86 0 0 0 .535-.43l.154.511c.047.15.117.248.21.297.093.05.222.074.385.074h.777v-4.536c0-.406-.06-.78-.178-1.12a2.484 2.484 0 0 0-.522-.879 2.389 2.389 0 0 0-.837-.574 2.894 2.894 0 0 0-1.123-.206c-1.167 0-2.163.378-2.989 1.134l.315.553a.712.712 0 0 0 .203.224c.084.06.184.091.301.091.14 0 .268-.033.385-.098a19.1 19.1 0 0 0 .382-.22c.137-.082.3-.156.486-.221.187-.065.42-.098.7-.098.387 0 .682.116.885.347.204.23.305.586.305 1.067v.42c-.817.019-1.5.098-2.051.238-.55.14-.992.316-1.323.529-.331.212-.568.45-.71.713a1.666 1.666 0 0 0-.214.802c0 .322.051.604.154.847.103.243.246.446.43.609.185.163.405.286.662.367.257.082.537.123.84.123zm.539-1.19c-.29 0-.524-.065-.704-.196-.18-.13-.269-.348-.269-.651 0-.154.043-.296.13-.427.086-.13.232-.245.437-.343.205-.098.477-.178.816-.242a9.407 9.407 0 0 1 1.263-.129v1.211c-.126.13-.25.244-.374.34-.124.095-.252.176-.385.241s-.275.114-.424.147a2.28 2.28 0 0 1-.49.049zm7.42 1.19c.35 0 .688-.054 1.015-.161.327-.107.616-.266.868-.476l-.518-.84a.551.551 0 0 0-.105-.115.197.197 0 0 0-.126-.039.245.245 0 0 0-.126.038c-.042.026-.09.053-.144.081a1.361 1.361 0 0 1-.188.08.811.811 0 0 1-.27.039.57.57 0 0 1-.448-.189c-.112-.126-.168-.301-.168-.525v-3.892h1.89v-1.232h-1.89V37.62h-.896a.41.41 0 0 0-.255.077.347.347 0 0 0-.13.217l-.364 1.96-1.155.189v.686c0 .121.034.212.102.273a.35.35 0 0 0 .241.091h.728v4.011c0 .62.168 1.107.504 1.46.336.352.814.528 1.435.528zm6.111-.007c.252 0 .512-.019.78-.056a4.04 4.04 0 0 0 .791-.193c.26-.09.508-.212.746-.364.238-.151.453-.339.644-.563l-.504-.63a.406.406 0 0 0-.133-.119.374.374 0 0 0-.182-.042.678.678 0 0 0-.333.098c-.114.065-.247.138-.398.217-.152.08-.33.152-.532.217a2.395 2.395 0 0 1-.725.098c-.57 0-1.027-.173-1.372-.518-.345-.345-.544-.887-.595-1.624h4.438c.08 0 .145-.01.196-.032a.249.249 0 0 0 .122-.105.506.506 0 0 0 .063-.203c.012-.086.018-.194.018-.325 0-.518-.077-.979-.231-1.383a2.908 2.908 0 0 0-.644-1.022 2.746 2.746 0 0 0-.983-.633 3.48 3.48 0 0 0-1.25-.217 3.57 3.57 0 0 0-1.446.28 3.22 3.22 0 0 0-1.085.76c-.296.32-.523.695-.682 1.127a3.962 3.962 0 0 0-.238 1.382c0 .63.091 1.184.273 1.662.182.479.432.88.749 1.204.317.325.69.57 1.12.735.43.166.894.249 1.393.249zm1.47-4.522h-3.248c.08-.523.261-.926.546-1.211.285-.285.679-.427 1.183-.427.257 0 .48.043.672.13.191.086.35.204.476.353.126.15.22.323.28.522.06.198.091.409.091.633zm7.637 6.762c.168 0 .293-.032.375-.094a.674.674 0 0 0 .199-.277l3.913-9.156h-1.386a.49.49 0 0 0-.29.091.503.503 0 0 0-.186.231L105 43.857c-.051.13-.1.259-.144.385a6.004 6.004 0 0 0-.122.392 5.755 5.755 0 0 0-.098-.392 3.308 3.308 0 0 0-.133-.378l-1.533-3.724a.633.633 0 0 0-.168-.224.477.477 0 0 0-.322-.098h-1.512l2.905 6.65-1.344 2.877h1.288zm8.561-2.24c.537 0 1.023-.086 1.46-.259.436-.173.808-.42 1.116-.742.308-.322.546-.712.714-1.169.168-.457.252-.97.252-1.54 0-.565-.084-1.076-.252-1.533a3.254 3.254 0 0 0-.714-1.162 3.157 3.157 0 0 0-1.116-.735 3.933 3.933 0 0 0-1.46-.259c-.537 0-1.024.086-1.463.259a3.19 3.19 0 0 0-1.124.735c-.31.317-.55.705-.72 1.162a4.37 4.37 0 0 0-.256 1.533c0 .57.085 1.083.255 1.54.17.457.411.847.722 1.169.31.322.684.57 1.123.742.439.173.926.259 1.463.259zm0-1.33c-.607 0-1.055-.202-1.344-.605-.29-.404-.434-.991-.434-1.761 0-.77.145-1.36.434-1.767.29-.409.737-.613 1.344-.613.597 0 1.04.203 1.326.609.288.406.431.996.431 1.771 0 .775-.144 1.363-.43 1.764-.287.401-.73.602-1.327.602zm7.168 1.337a2.903 2.903 0 0 0 1.25-.276c.18-.087.348-.192.507-.316.159-.123.313-.26.462-.409l.119.574c.07.21.217.315.441.315h1.057v-7.182h-1.729v5.194c-.233.233-.48.416-.742.55a1.824 1.824 0 0 1-.84.199c-.406 0-.71-.12-.913-.36-.204-.24-.305-.58-.305-1.019v-4.564h-1.729v4.564c0 .401.053.769.157 1.102.105.334.26.622.466.865.205.243.459.43.76.564.3.133.647.199 1.039.199zm7.413-.112v-4.473c.177-.383.394-.673.651-.871.257-.199.565-.298.924-.298.2 0 .362.016.483.049s.217.049.287.049c.08 0 .142-.018.189-.053.047-.035.077-.094.091-.178l.224-1.295c-.233-.163-.527-.245-.882-.245-.43 0-.817.128-1.162.385s-.646.607-.903 1.05l-.105-.868c-.023-.159-.07-.27-.14-.336-.07-.065-.194-.098-.371-.098h-1.015V47h1.729zm8.911 0V36.878h-1.89V47h1.89zm7.07 0 4.088-10.122h-1.519a.603.603 0 0 0-.399.133.737.737 0 0 0-.224.294l-2.373 6.174c-.159.41-.292.884-.399 1.421-.065-.266-.134-.52-.207-.76a8.433 8.433 0 0 0-.227-.661l-2.38-6.174a.72.72 0 0 0-.231-.308.631.631 0 0 0-.399-.119h-1.519L141.239 47h1.701zm7.091 0v-3.955h.805c.187 0 .328.026.423.077a.742.742 0 0 1 .263.259l2.128 3.241c.08.121.176.215.29.28a.835.835 0 0 0 .417.098h1.694l-2.534-3.738a1.865 1.865 0 0 0-.616-.581c.355-.112.67-.261.948-.448.278-.187.512-.404.7-.651.19-.247.334-.523.434-.826.1-.303.151-.625.151-.966 0-.43-.073-.822-.22-1.18a2.312 2.312 0 0 0-.694-.92c-.315-.257-.718-.456-1.21-.598-.493-.143-1.084-.214-1.775-.214h-3.087V47h1.883zm1.176-5.306h-1.176v-3.36h1.204c.695 0 1.212.138 1.55.413.339.275.508.67.508 1.183 0 .257-.042.492-.126.707-.084.215-.211.4-.381.556-.17.157-.388.28-.651.368a2.908 2.908 0 0 1-.928.133zM31.546 67.112c.462 0 .871-.06 1.228-.178.357-.12.657-.285.9-.498.242-.212.426-.464.553-.756a2.38 2.38 0 0 0 .189-.955c0-.29-.05-.537-.151-.742a1.682 1.682 0 0 0-.399-.528 2.203 2.203 0 0 0-.563-.364 6.921 6.921 0 0 0-.645-.256 15.807 15.807 0 0 0-.644-.206 3.951 3.951 0 0 1-.563-.214 1.375 1.375 0 0 1-.399-.276.545.545 0 0 1-.15-.389c0-.233.098-.422.293-.567.197-.145.465-.217.806-.217.219 0 .409.023.57.07.161.047.305.1.43.157.127.059.237.111.333.158.096.047.185.07.27.07a.387.387 0 0 0 .196-.045c.05-.03.1-.083.147-.158l.392-.623a3.076 3.076 0 0 0-1.015-.644 3.602 3.602 0 0 0-1.351-.245c-.444 0-.835.06-1.173.178-.338.12-.62.278-.847.477a1.96 1.96 0 0 0-.514.696 2.063 2.063 0 0 0-.175.84c0 .317.05.588.15.812.1.224.233.413.399.567.166.154.355.281.567.381.212.1.43.188.651.263.222.075.439.144.651.206.212.063.401.135.567.214.166.08.299.173.399.28.1.107.15.245.15.413a.84.84 0 0 1-.066.326.712.712 0 0 1-.21.276c-.096.08-.217.143-.364.192a1.65 1.65 0 0 1-.529.074c-.26 0-.477-.03-.647-.091a2.87 2.87 0 0 1-.444-.196 6.224 6.224 0 0 1-.333-.196.565.565 0 0 0-.304-.091.512.512 0 0 0-.267.063.562.562 0 0 0-.181.182l-.4.658c.14.126.303.243.487.35.184.107.385.2.602.28.217.08.443.141.679.186.236.044.477.066.724.066zm6.23 2.233c.167 0 .292-.031.374-.094a.683.683 0 0 0 .2-.277l3.913-9.156h-1.386a.49.49 0 0 0-.291.091.507.507 0 0 0-.185.231l-1.443 3.717c-.05.13-.099.259-.143.385a6.004 6.004 0 0 0-.122.392 6.426 6.426 0 0 0-.099-.392 3.126 3.126 0 0 0-.133-.378L36.93 60.14a.648.648 0 0 0-.169-.224c-.074-.065-.181-.098-.322-.098h-1.512l2.905 6.65-1.344 2.877h1.288zm7.356-2.233c.462 0 .872-.06 1.229-.178.357-.12.657-.285.9-.498a2.1 2.1 0 0 0 .552-.756c.127-.291.19-.61.19-.955 0-.29-.05-.537-.151-.742a1.682 1.682 0 0 0-.399-.528 2.209 2.209 0 0 0-.564-.364 6.902 6.902 0 0 0-.644-.256 15.772 15.772 0 0 0-.643-.206 3.966 3.966 0 0 1-.564-.214 1.375 1.375 0 0 1-.399-.276.545.545 0 0 1-.15-.389c0-.233.098-.422.294-.567.195-.145.464-.217.804-.217.22 0 .41.023.571.07.161.047.304.1.43.157.127.059.237.111.333.158.096.047.185.07.27.07a.38.38 0 0 0 .195-.045c.052-.03.1-.083.147-.158l.392-.623a3.05 3.05 0 0 0-1.014-.644 3.604 3.604 0 0 0-1.352-.245c-.443 0-.834.06-1.172.178-.338.12-.62.278-.847.477a1.96 1.96 0 0 0-.514.696 2.064 2.064 0 0 0-.176.84c0 .317.05.588.151.812.1.224.233.413.399.567.166.154.355.281.567.381.212.1.43.188.651.263.222.075.439.144.651.206.212.063.401.135.567.214.166.08.299.173.399.28.1.107.15.245.15.413a.84.84 0 0 1-.066.326.712.712 0 0 1-.21.276c-.096.08-.217.143-.364.192-.147.05-.323.074-.528.074-.262 0-.478-.03-.648-.091-.17-.06-.319-.126-.445-.196s-.236-.135-.332-.196a.566.566 0 0 0-.305-.091.511.511 0 0 0-.266.063.562.562 0 0 0-.181.182l-.4.658c.14.126.303.243.487.35.184.107.385.2.602.28.217.08.443.141.679.186.236.044.477.066.724.066zm6.616 0c.35 0 .688-.054 1.015-.161.326-.107.616-.266.867-.476l-.518-.84a.587.587 0 0 0-.105-.116.198.198 0 0 0-.125-.038.251.251 0 0 0-.127.038 1.433 1.433 0 0 1-.332.161.803.803 0 0 1-.27.039.569.569 0 0 1-.447-.189c-.113-.126-.169-.301-.169-.525v-3.892h1.89v-1.232h-1.89V57.62h-.895a.414.414 0 0 0-.256.077.351.351 0 0 0-.13.217l-.364 1.96-1.155.189v.686c0 .121.034.212.102.273.068.06.148.091.242.091h.727v4.011c0 .62.169 1.107.505 1.46.335.352.814.528 1.434.528zm6.11-.007c.253 0 .513-.019.781-.056.268-.037.532-.102.791-.193.259-.09.508-.212.745-.363a2.89 2.89 0 0 0 .645-.564l-.505-.63a.367.367 0 0 0-.314-.161.672.672 0 0 0-.333.098c-.114.065-.247.138-.399.217-.152.08-.329.152-.532.217s-.445.098-.724.098c-.57 0-1.027-.173-1.372-.518-.346-.345-.544-.887-.596-1.624h4.438c.08 0 .145-.01.197-.032a.253.253 0 0 0 .122-.105.523.523 0 0 0 .063-.203 2.44 2.44 0 0 0 .017-.325c0-.518-.076-.979-.23-1.383a2.91 2.91 0 0 0-.645-1.022 2.746 2.746 0 0 0-.983-.633 3.48 3.48 0 0 0-1.25-.217c-.536 0-1.018.093-1.445.28-.427.187-.789.44-1.085.76-.296.32-.524.695-.682 1.127a3.94 3.94 0 0 0-.238 1.382c0 .63.09 1.184.273 1.663.181.478.431.88.748 1.203.318.325.691.57 1.12.736.43.165.894.248 1.393.248zm1.47-4.522H56.08c.08-.523.262-.926.547-1.211.284-.285.678-.427 1.182-.427.257 0 .481.043.672.13.192.086.35.204.477.353.126.15.219.323.28.522.06.198.09.409.09.633zM64.019 67v-5.257c.187-.215.389-.384.606-.508.217-.123.45-.185.697-.185.377 0 .663.11.857.329.194.22.29.57.29 1.05V67h1.736v-4.571c0-.224.033-.422.099-.595a1.166 1.166 0 0 1 .668-.693 1.33 1.33 0 0 1 .493-.091c.388 0 .682.116.883.347.2.23.3.575.3 1.032V67h1.73v-4.571a3.71 3.71 0 0 0-.165-1.155c-.11-.336-.27-.62-.48-.854a2.043 2.043 0 0 0-.776-.532 2.879 2.879 0 0 0-1.058-.182c-.228 0-.456.026-.682.077-.226.051-.44.13-.64.238a2.287 2.287 0 0 0-.553.416 2.19 2.19 0 0 0-.42.613 2.212 2.212 0 0 0-.655-.976c-.292-.245-.664-.368-1.116-.368a2.248 2.248 0 0 0-1.096.273 2.548 2.548 0 0 0-.441.301c-.138.117-.27.245-.395.385l-.112-.532c-.07-.21-.217-.315-.441-.315H62.29V67h1.73zm15.484 0c.187 0 .313-.103.379-.308l1.308-4.137c.043-.14.08-.279.113-.416.032-.138.063-.277.09-.417.024.135.053.272.088.41.035.137.073.274.115.409l1.296 4.151c.065.205.172.308.322.308h1.393l2.275-7.182h-1.31a.532.532 0 0 0-.308.091.395.395 0 0 0-.168.231l-1.064 3.836c-.06.215-.11.422-.15.623-.04.2-.076.401-.109.602a33.893 33.893 0 0 0-.143-.57c-.049-.19-.104-.384-.165-.585l-1.175-3.92a.447.447 0 0 0-.168-.231.532.532 0 0 0-.316-.091h-.763c-.112 0-.21.03-.293.091a.432.432 0 0 0-.168.231l-1.19 3.85a27.289 27.289 0 0 0-.351 1.218c-.032-.2-.066-.401-.101-.602a7.23 7.23 0 0 0-.136-.616l-1.03-3.836a.392.392 0 0 0-.167-.231.58.58 0 0 0-.33-.091h-1.371L78.18 67h1.322zm9.332-8.19a1.138 1.138 0 0 0 1.029-.665 1.058 1.058 0 0 0 0-.854 1.146 1.146 0 0 0-.595-.585 1.092 1.092 0 0 0-1.204.235 1.11 1.11 0 0 0-.322.784c0 .15.029.29.087.42a1.112 1.112 0 0 0 1.005.665zm.86 8.19v-7.182h-1.728V67h1.729zm4.313.112c.35 0 .688-.054 1.014-.161.327-.107.617-.266.868-.476l-.517-.84a.62.62 0 0 0-.106-.116.199.199 0 0 0-.126-.038.248.248 0 0 0-.126.038 1.433 1.433 0 0 1-.332.161.803.803 0 0 1-.27.039.57.57 0 0 1-.448-.189c-.111-.126-.168-.301-.168-.525v-3.892h1.89v-1.232h-1.89V57.62H92.9a.413.413 0 0 0-.255.077.351.351 0 0 0-.13.217l-.364 1.96-1.154.189v.686c0 .121.033.212.101.273.068.06.148.091.242.091h.727v4.011c0 .62.169 1.107.505 1.46.335.352.814.528 1.434.528zM98.794 67v-5.194c.234-.233.481-.418.743-.553.26-.135.54-.203.84-.203.406 0 .71.12.913.36.203.24.304.58.304 1.019V67h1.73v-4.571c0-.401-.053-.769-.158-1.102-.105-.334-.259-.621-.462-.861s-.456-.428-.76-.56a2.57 2.57 0 0 0-1.043-.2c-.452 0-.846.082-1.182.245a3.633 3.633 0 0 0-.924.644v-3.997h-1.73V67h1.73zm12.895 0c.765 0 1.463-.124 2.093-.371a4.662 4.662 0 0 0 1.617-1.043 4.702 4.702 0 0 0 1.043-1.603c.247-.62.37-1.302.37-2.044s-.123-1.423-.37-2.044a4.68 4.68 0 0 0-1.043-1.6 4.744 4.744 0 0 0-1.618-1.043c-.63-.25-1.327-.374-2.093-.374h-3.864V67h3.865zm0-1.498h-1.967v-7.126h1.967c.494 0 .939.082 1.333.245.394.163.73.398 1.004.703.276.306.488.68.638 1.12.149.441.224.94.224 1.495 0 .555-.075 1.053-.225 1.495-.149.44-.361.814-.636 1.12-.276.305-.61.54-1.005.703a3.462 3.462 0 0 1-1.334.245zm9.555 1.603c.252 0 .512-.019.78-.056.268-.037.532-.102.791-.193.259-.09.508-.212.746-.363.237-.152.452-.34.643-.564l-.503-.63a.416.416 0 0 0-.133-.119.378.378 0 0 0-.183-.042.671.671 0 0 0-.332.098c-.114.065-.247.138-.399.217-.152.08-.329.152-.532.217s-.445.098-.725.098c-.569 0-1.026-.173-1.372-.518-.345-.345-.543-.887-.595-1.624h4.438c.08 0 .145-.01.197-.032a.253.253 0 0 0 .122-.105.523.523 0 0 0 .063-.203 2.44 2.44 0 0 0 .017-.325c0-.518-.076-.979-.23-1.383a2.924 2.924 0 0 0-.645-1.022 2.746 2.746 0 0 0-.983-.633 3.48 3.48 0 0 0-1.25-.217c-.536 0-1.018.093-1.445.28-.427.187-.789.44-1.085.76-.296.32-.524.695-.683 1.127a3.985 3.985 0 0 0-.237 1.382c0 .63.09 1.184.272 1.663.183.478.432.88.75 1.203.317.325.69.57 1.12.736.429.165.893.248 1.392.248zm1.47-4.522h-3.248c.079-.523.26-.926.546-1.211.284-.285.678-.427 1.183-.427.256 0 .48.043.672.13.19.086.35.204.475.353.127.15.22.323.28.522.061.198.091.409.091.633zM127.712 67v-5.887h1.645v-1.232h-1.701v-.301c0-.537.137-.95.412-1.242.276-.292.675-.438 1.197-.438.164 0 .363.007.599.021.236.014.477.026.725.035V67h1.721V56.752h-.972c-.379 0-.758-.014-1.138-.042-.38-.028-.783-.042-1.207-.042-.518 0-.966.08-1.344.242-.379.16-.691.375-.939.644-.247.268-.43.577-.549.927-.119.35-.178.716-.178 1.099v.301h-1.072v.707c0 .126.041.224.123.294a.66.66 0 0 0 .325.14l.624.098V67h1.728zm9.652.105c.252 0 .513-.019.781-.056.268-.037.532-.102.791-.193.259-.09.507-.212.745-.363.238-.152.453-.34.644-.564l-.504-.63a.403.403 0 0 0-.132-.119.378.378 0 0 0-.183-.042.671.671 0 0 0-.332.098c-.114.065-.247.138-.399.217-.152.08-.329.152-.532.217s-.445.098-.725.098c-.569 0-1.026-.173-1.371-.518-.346-.345-.544-.887-.595-1.624h4.438c.079 0 .144-.01.195-.032a.247.247 0 0 0 .123-.105.523.523 0 0 0 .063-.203 2.44 2.44 0 0 0 .017-.325c0-.518-.077-.979-.23-1.383a2.922 2.922 0 0 0-.644-1.022 2.759 2.759 0 0 0-.984-.633 3.48 3.48 0 0 0-1.25-.217c-.536 0-1.018.093-1.445.28-.427.187-.789.44-1.085.76-.296.32-.524.695-.683 1.127a3.986 3.986 0 0 0-.238 1.382c0 .63.091 1.184.273 1.663.183.478.432.88.75 1.203.317.325.69.57 1.12.736.429.165.893.248 1.392.248zm1.47-4.522h-3.248c.08-.523.262-.926.546-1.211.285-.285.68-.427 1.183-.427.257 0 .481.043.673.13.19.086.35.204.476.353.125.15.219.323.28.522.06.198.09.409.09.633zm5.706 4.522c.252 0 .506-.019.763-.056.256-.037.505-.102.745-.193.24-.09.472-.212.696-.363.225-.152.432-.34.624-.564l-.498-.63a.35.35 0 0 0-.315-.161.456.456 0 0 0-.29.102 8.275 8.275 0 0 1-.304.224c-.117.081-.26.156-.431.224-.17.067-.393.101-.668.101-.276 0-.523-.052-.743-.157a1.545 1.545 0 0 1-.56-.463 2.185 2.185 0 0 1-.353-.752 3.874 3.874 0 0 1-.123-1.022c0-.369.038-.699.113-.99.074-.292.187-.54.339-.746.152-.205.342-.363.57-.472.23-.11.495-.165.799-.165.238 0 .437.027.598.08.161.054.3.115.416.183.117.067.218.128.302.182.084.053.17.08.258.08a.35.35 0 0 0 .214-.056.818.818 0 0 0 .15-.154l.456-.63a3.434 3.434 0 0 0-1.089-.742c-.404-.173-.874-.259-1.41-.259-.565 0-1.065.093-1.499.28a3.07 3.07 0 0 0-1.092.774 3.336 3.336 0 0 0-.668 1.169c-.152.45-.227.939-.227 1.466 0 .588.085 1.112.255 1.571.17.46.401.849.693 1.166a2.92 2.92 0 0 0 1.025.724c.393.166.81.249 1.254.249zm6.293.007c.35 0 .688-.054 1.014-.161.327-.107.617-.266.868-.476l-.518-.84a.587.587 0 0 0-.105-.116.199.199 0 0 0-.126-.038.245.245 0 0 0-.126.038 1.433 1.433 0 0 1-.332.161.803.803 0 0 1-.27.039.569.569 0 0 1-.447-.189c-.112-.126-.168-.301-.168-.525v-3.892h1.89v-1.232h-1.89V57.62h-.897a.413.413 0 0 0-.255.077.351.351 0 0 0-.13.217l-.364 1.96-1.155.189v.686c0 .121.034.212.102.273.068.06.148.091.242.091h.727v4.011c0 .62.168 1.107.505 1.46.335.352.814.528 1.435.528zm3.71-.014c.144 0 .282-.027.412-.08.131-.054.243-.128.337-.221a1.053 1.053 0 0 0 .224-1.162 1.069 1.069 0 0 0-.224-.336 1.073 1.073 0 0 0-1.17-.224 1.1 1.1 0 0 0-.339.224.98.98 0 0 0-.224.336c-.054.13-.08.268-.08.413 0 .15.026.288.08.416.054.129.128.24.224.333a1.084 1.084 0 0 0 .76.301zm4.227.014c.257 0 .49-.021.7-.063.21-.042.409-.105.595-.189.187-.084.368-.188.543-.311.175-.124.353-.268.535-.431l.155.511c.046.15.116.248.21.297a.82.82 0 0 0 .385.074h.776v-4.536c0-.406-.059-.78-.178-1.12a2.47 2.47 0 0 0-.522-.879 2.385 2.385 0 0 0-.836-.574 2.903 2.903 0 0 0-1.124-.206c-1.166 0-2.162.378-2.988 1.134l.315.553c.05.089.118.163.202.224.084.06.185.091.301.091.14 0 .269-.033.386-.098.116-.065.243-.139.381-.22.138-.082.3-.156.487-.221a2.15 2.15 0 0 1 .7-.098c.387 0 .682.116.885.347.203.23.304.586.304 1.067v.42c-.816.019-1.5.098-2.05.238-.551.14-.992.316-1.323.529-.332.212-.569.45-.711.714a1.67 1.67 0 0 0-.213.801c0 .322.05.604.154.847.102.243.246.446.43.609.184.163.405.286.661.368.257.081.537.122.84.122zm.54-1.19c-.29 0-.524-.065-.704-.196-.18-.13-.27-.348-.27-.651 0-.154.044-.296.13-.427.086-.13.232-.245.438-.343.205-.098.477-.179.815-.242.338-.063.76-.106 1.263-.129v1.211c-.125.13-.25.244-.374.34-.124.095-.252.176-.385.241s-.274.114-.424.147a2.266 2.266 0 0 1-.49.049zm6.04-7.112a1.145 1.145 0 0 0 1.03-.665 1.058 1.058 0 0 0 0-.854 1.146 1.146 0 0 0-.595-.585 1.092 1.092 0 0 0-1.204.235 1.094 1.094 0 0 0-.235.35 1.09 1.09 0 0 0 0 .854c.058.13.136.245.234.343.099.098.214.176.347.234.133.059.274.088.424.088zm.862 8.19v-7.182h-1.73V67h1.73zM52.71 87.112c.35 0 .688-.054 1.015-.161.327-.107.616-.266.868-.476l-.518-.84a.587.587 0 0 0-.105-.116.203.203 0 0 0-.126-.038.245.245 0 0 0-.126.038c-.042.026-.09.053-.144.081a1.361 1.361 0 0 1-.188.08.811.811 0 0 1-.27.039.57.57 0 0 1-.448-.189c-.112-.126-.168-.301-.168-.525v-3.892h1.89v-1.232H52.5V77.62h-.896a.41.41 0 0 0-.255.077.347.347 0 0 0-.13.217l-.364 1.96-1.155.189v.686c0 .121.034.212.101.273.068.06.149.091.242.091h.728v4.011c0 .62.168 1.107.504 1.46.336.352.814.528 1.435.528zm6.125-.007c.537 0 1.023-.086 1.46-.259.436-.173.808-.42 1.116-.742.308-.322.546-.712.714-1.169.168-.457.252-.97.252-1.54 0-.565-.084-1.076-.252-1.533a3.254 3.254 0 0 0-.714-1.162 3.152 3.152 0 0 0-1.117-.735c-.436-.173-.922-.259-1.459-.259s-1.024.086-1.463.259a3.177 3.177 0 0 0-1.123.735c-.31.317-.551.705-.721 1.162a4.37 4.37 0 0 0-.256 1.533c0 .57.085 1.083.256 1.54.17.457.41.847.72 1.169.31.322.685.57 1.124.742.439.173.926.259 1.463.259zm0-1.33c-.607 0-1.055-.202-1.344-.606-.29-.403-.434-.99-.434-1.76s.145-1.36.434-1.768c.29-.408.737-.612 1.344-.612.597 0 1.04.203 1.326.609.288.406.431.996.431 1.771 0 .775-.143 1.363-.43 1.764-.288.401-.73.602-1.327.602zm9.954 1.337c.35 0 .688-.054 1.015-.161.327-.107.616-.266.868-.476l-.518-.84a.587.587 0 0 0-.105-.116.203.203 0 0 0-.126-.038.245.245 0 0 0-.126.038c-.042.026-.09.053-.144.081a1.326 1.326 0 0 1-.189.08.8.8 0 0 1-.269.039.57.57 0 0 1-.448-.189c-.112-.126-.168-.301-.168-.525v-3.892h1.89v-1.232h-1.89V77.62h-.896a.414.414 0 0 0-.256.077.35.35 0 0 0-.129.217l-.364 1.96-1.155.189v.686c0 .121.034.212.102.273a.35.35 0 0 0 .241.091h.728v4.011c0 .62.168 1.107.504 1.46.336.352.814.528 1.435.528zM73.577 87v-4.473c.177-.383.394-.673.651-.871.257-.199.565-.298.924-.298.2 0 .362.016.483.049s.217.049.287.049a.3.3 0 0 0 .189-.053c.047-.035.077-.094.091-.178l.224-1.295c-.233-.163-.527-.245-.882-.245-.43 0-.817.128-1.162.385s-.646.607-.903 1.05l-.105-.868c-.023-.159-.07-.27-.14-.336-.07-.065-.194-.098-.371-.098h-1.015V87h1.729zm5.719.112c.257 0 .49-.021.7-.063.21-.042.408-.105.595-.189s.368-.188.543-.311c.174-.124.353-.268.535-.431l.154.511c.047.15.117.248.21.297.093.05.222.074.385.074h.777v-4.536c0-.406-.06-.78-.178-1.12a2.47 2.47 0 0 0-.522-.878 2.4 2.4 0 0 0-.837-.575 2.898 2.898 0 0 0-1.123-.206c-1.167 0-2.163.378-2.989 1.134l.315.553a.712.712 0 0 0 .203.224c.084.06.184.091.301.091.14 0 .268-.033.385-.098a19.1 19.1 0 0 0 .382-.22c.137-.082.3-.156.486-.221.187-.065.42-.098.7-.098.387 0 .683.115.886.347.203.23.304.586.304 1.067v.42c-.817.019-1.5.098-2.051.238-.55.14-.992.316-1.323.528-.331.213-.568.45-.71.715a1.66 1.66 0 0 0-.214.801c0 .322.051.604.154.847.103.243.246.446.43.609.185.163.405.286.662.368.257.081.537.122.84.122zm.539-1.19c-.29 0-.524-.065-.703-.196-.18-.13-.27-.348-.27-.651 0-.154.043-.296.13-.427.086-.13.232-.245.437-.343.205-.098.477-.179.816-.242a9.407 9.407 0 0 1 1.263-.129v1.211c-.126.13-.25.244-.374.34-.124.095-.252.176-.385.241s-.275.114-.424.147a2.28 2.28 0 0 1-.49.049zM86.625 87v-5.194c.233-.233.48-.418.742-.553.261-.135.541-.203.84-.203.406 0 .71.12.914.36.203.24.304.58.304 1.019V87h1.729v-4.571c0-.401-.052-.769-.157-1.103-.106-.333-.26-.62-.463-.86s-.456-.427-.759-.56a2.557 2.557 0 0 0-1.043-.2c-.243 0-.467.023-.672.07a2.62 2.62 0 0 0-.578.203c-.18.089-.35.194-.51.315a3.97 3.97 0 0 0-.459.406l-.119-.567c-.07-.21-.217-.315-.441-.315h-1.057V87h1.729zm8.092.112c.462 0 .871-.06 1.228-.178.358-.12.657-.285.9-.498a2.09 2.09 0 0 0 .553-.756 2.38 2.38 0 0 0 .189-.955c0-.29-.05-.537-.15-.742a1.69 1.69 0 0 0-.4-.529 2.237 2.237 0 0 0-.563-.363 7.014 7.014 0 0 0-.644-.256c-.22-.075-.434-.143-.644-.206a4.09 4.09 0 0 1-.564-.214 1.365 1.365 0 0 1-.398-.277.541.541 0 0 1-.151-.388c0-.233.098-.422.294-.567.196-.145.464-.217.805-.217.22 0 .41.023.57.07.161.047.305.1.431.157.126.059.237.111.332.158.096.047.186.07.27.07.08 0 .145-.015.196-.046a.46.46 0 0 0 .147-.157l.392-.623a3.055 3.055 0 0 0-1.015-.644 3.595 3.595 0 0 0-1.351-.245c-.443 0-.834.06-1.172.178-.339.12-.621.278-.847.477-.227.198-.398.43-.515.696a2.063 2.063 0 0 0-.175.84c0 .317.05.588.15.812.1.224.234.413.4.567.165.154.354.281.567.382.212.1.429.187.65.262.222.075.44.144.651.206.213.063.402.135.568.214.165.08.298.173.398.28.1.107.151.245.151.413 0 .112-.022.22-.067.326a.712.712 0 0 1-.21.276c-.095.08-.216.143-.364.192-.146.05-.323.074-.528.074-.261 0-.477-.03-.648-.091-.17-.06-.318-.126-.444-.196s-.237-.135-.333-.196a.562.562 0 0 0-.304-.091.511.511 0 0 0-.266.063.574.574 0 0 0-.182.182l-.399.658c.14.126.302.243.487.35.184.107.385.2.602.28.217.08.443.141.679.186.235.044.477.066.724.066zM101.01 87v-5.887h1.813v-1.232h-1.869v-.476c0-.266.03-.489.088-.668.058-.18.143-.325.255-.434a.92.92 0 0 1 .41-.231c.16-.045.344-.067.549-.067.154 0 .29-.016.406-.049.117-.033.18-.117.189-.252l.035-.868a3.085 3.085 0 0 0-.924-.133c-.415 0-.789.06-1.12.182a2.3 2.3 0 0 0-.843.525 2.291 2.291 0 0 0-.532.833 3.098 3.098 0 0 0-.186 1.106v.532H98.21v.707c0 .126.04.224.123.294.081.07.19.117.325.14l.623.098V87h1.729zm5.922.105c.252 0 .512-.019.78-.056a4.04 4.04 0 0 0 .791-.193c.26-.09.508-.212.746-.363.238-.152.453-.34.644-.564l-.504-.63a.406.406 0 0 0-.133-.119.374.374 0 0 0-.182-.042.671.671 0 0 0-.332.098 12.88 12.88 0 0 1-.4.217c-.151.08-.329.152-.531.217a2.395 2.395 0 0 1-.725.098c-.57 0-1.027-.173-1.372-.518-.345-.345-.544-.887-.595-1.624h4.438c.08 0 .145-.01.196-.032a.253.253 0 0 0 .123-.104c.03-.05.05-.117.063-.203.011-.087.017-.195.017-.326 0-.518-.077-.979-.231-1.382a2.89 2.89 0 0 0-.644-1.022 2.717 2.717 0 0 0-.984-.634 3.475 3.475 0 0 0-1.249-.217c-.537 0-1.019.093-1.445.28-.428.187-.79.44-1.086.76-.296.32-.523.695-.682 1.127a3.962 3.962 0 0 0-.238 1.382c0 .63.091 1.184.273 1.663.182.478.432.88.749 1.203.317.325.69.57 1.12.736.43.165.894.248 1.393.248zm1.47-4.522h-3.248c.08-.523.261-.926.546-1.211.285-.285.679-.427 1.183-.427.257 0 .48.043.672.13.191.086.35.204.476.353.126.15.22.323.28.522.06.198.091.409.091.633zm4.69 4.417v-4.473c.177-.383.394-.673.651-.871.257-.199.565-.298.924-.298.2 0 .362.016.483.049s.217.049.287.049a.3.3 0 0 0 .189-.053c.047-.035.077-.094.091-.178l.224-1.295c-.233-.163-.527-.245-.882-.245-.43 0-.817.128-1.162.385s-.646.607-.903 1.05l-.105-.868c-.023-.159-.07-.27-.14-.336-.07-.065-.194-.098-.371-.098h-1.015V87h1.729zm9.436.105c.252 0 .506-.019.763-.056.257-.037.505-.102.746-.193.24-.09.472-.212.696-.363a3.13 3.13 0 0 0 .623-.564l-.497-.63a.352.352 0 0 0-.315-.161.456.456 0 0 0-.29.102 8.386 8.386 0 0 1-.305.224c-.117.081-.26.156-.43.224-.17.067-.394.101-.669.101s-.523-.052-.742-.157a1.528 1.528 0 0 1-.56-.463 2.167 2.167 0 0 1-.353-.752 3.874 3.874 0 0 1-.123-1.022c0-.369.037-.699.112-.99.075-.292.188-.54.34-.746a1.51 1.51 0 0 1 .57-.473c.229-.11.495-.164.798-.164.238 0 .438.027.599.08.16.054.3.115.416.182.117.068.217.129.301.182.084.054.17.081.259.081a.347.347 0 0 0 .213-.056.82.82 0 0 0 .151-.154l.455-.63a3.44 3.44 0 0 0-1.088-.742c-.404-.173-.874-.259-1.411-.259-.565 0-1.064.093-1.498.28a3.068 3.068 0 0 0-1.092.773c-.294.33-.517.72-.669 1.17-.151.45-.227.939-.227 1.466 0 .588.085 1.112.255 1.572.17.46.402.848.694 1.165.291.317.633.559 1.025.724.392.166.81.249 1.253.249zm5.663.007c.257 0 .49-.021.7-.063.21-.042.408-.105.595-.189s.368-.188.543-.311c.174-.124.353-.268.535-.431l.154.511c.047.15.117.248.21.297.093.05.222.074.385.074h.777v-4.536c0-.406-.06-.78-.179-1.12a2.454 2.454 0 0 0-.521-.878 2.396 2.396 0 0 0-.836-.575 2.906 2.906 0 0 0-1.124-.206c-1.167 0-2.163.378-2.989 1.134l.315.553a.712.712 0 0 0 .203.224c.084.06.184.091.301.091.14 0 .268-.033.385-.098a19.1 19.1 0 0 0 .382-.22c.137-.082.3-.156.486-.221.187-.065.42-.098.7-.098.387 0 .683.115.886.347.203.23.304.586.304 1.067v.42c-.817.019-1.5.098-2.051.238-.55.14-.992.316-1.323.528-.331.213-.568.45-.71.715a1.66 1.66 0 0 0-.214.801c0 .322.051.604.154.847.103.243.246.446.43.609.185.163.405.286.662.368.257.081.537.122.84.122zm.539-1.19c-.29 0-.524-.065-.703-.196-.18-.13-.27-.348-.27-.651 0-.154.043-.296.13-.427.086-.13.232-.245.437-.343.205-.098.477-.179.815-.242.339-.063.76-.106 1.264-.129v1.211c-.126.13-.25.244-.374.34a2.25 2.25 0 0 1-.386.241 1.873 1.873 0 0 1-.423.147 2.28 2.28 0 0 1-.49.049zM135.632 87V76.598h-1.729V87h1.729zm3.794 0V76.598h-1.729V87h1.729zm3.815.112c.462 0 .871-.06 1.228-.178.358-.12.657-.285.9-.498a2.09 2.09 0 0 0 .553-.756 2.38 2.38 0 0 0 .189-.955c0-.29-.05-.537-.15-.742a1.69 1.69 0 0 0-.4-.529 2.237 2.237 0 0 0-.563-.363 7.014 7.014 0 0 0-.644-.256c-.22-.075-.434-.143-.644-.206a4.09 4.09 0 0 1-.564-.214 1.365 1.365 0 0 1-.398-.277.541.541 0 0 1-.151-.388c0-.233.098-.422.294-.567.196-.145.464-.217.805-.217.22 0 .41.023.57.07.162.047.305.1.431.157.126.059.237.111.333.158.095.047.185.07.269.07.08 0 .145-.015.196-.046a.46.46 0 0 0 .147-.157l.392-.623a3.055 3.055 0 0 0-1.015-.644 3.595 3.595 0 0 0-1.351-.245c-.443 0-.834.06-1.173.178-.338.12-.62.278-.846.477-.227.198-.398.43-.515.696a2.063 2.063 0 0 0-.175.84c0 .317.05.588.15.812.1.224.234.413.4.567.165.154.354.281.567.382.212.1.429.187.65.262.222.075.44.144.651.206.213.063.402.135.567.214.166.08.3.173.4.28.1.107.15.245.15.413a.84.84 0 0 1-.066.326.732.732 0 0 1-.21.276c-.096.08-.218.143-.364.192a1.66 1.66 0 0 1-.529.074c-.261 0-.477-.03-.647-.091-.17-.06-.319-.126-.445-.196s-.237-.135-.333-.196a.562.562 0 0 0-.304-.091.511.511 0 0 0-.266.063.574.574 0 0 0-.182.182l-.399.658c.14.126.302.243.487.35.184.107.385.2.602.28.216.08.443.141.679.186.235.044.477.066.724.066z"/></g></svg>