<svg width="206" height="219" xmlns="http://www.w3.org/2000/svg"><g fill="none"><path d="M201.134 86.533C188.62 37.133 145.378 1.473 94.622.043c-26.833-.756-55.07 8.178-75.627 39.44-36.75 55.886 2.258 94.504 29.453 112.854a170.365 170.365 0 0 1 35.173 31.736c18.37 21.882 53.709 49.074 95.795 6.469 30.505-30.881 30.054-71.104 21.718-104.009Z" fill="#F3F3F4"/><path d="M40.934 53.104c.78 0 1.448-.126 2.005-.377a3.784 3.784 0 0 0 1.407-1.085l-.689-.748a.344.344 0 0 0-.403-.075.616.616 0 0 0-.136.095c-.144.13-.288.239-.433.328a2.366 2.366 0 0 1-.461.218c-.163.056-.34.097-.533.123a4.87 4.87 0 0 1-.647.039c-.399 0-.771-.075-1.118-.224a2.595 2.595 0 0 1-.904-.647 3.101 3.101 0 0 1-.607-1.04 4.117 4.117 0 0 1-.224-1.41c0-.512.074-.972.224-1.382.15-.41.357-.757.624-1.043a2.71 2.71 0 0 1 .955-.66c.37-.154.777-.23 1.219-.23.377 0 .688.039.933.117a3.232 3.232 0 0 1 1.004.506.511.511 0 0 0 .306.117c.095 0 .17-.019.224-.058a.53.53 0 0 0 .133-.136l.585-.813a4.276 4.276 0 0 0-1.342-.887c-.522-.223-1.132-.335-1.83-.335a5.24 5.24 0 0 0-1.96.354c-.591.236-1.1.567-1.524.992-.425.424-.754.93-.988 1.517a5.196 5.196 0 0 0-.351 1.94c0 .698.105 1.342.315 1.931.21.59.513 1.096.907 1.521.394.425.87.756 1.427.994.557.239 1.184.358 1.882.358Zm7.488-.007c.498 0 .95-.08 1.355-.24.405-.16.75-.39 1.036-.689.286-.299.508-.66.663-1.085.157-.425.235-.902.235-1.43 0-.525-.078-1-.234-1.424a3.021 3.021 0 0 0-.663-1.079 2.922 2.922 0 0 0-1.037-.682 3.655 3.655 0 0 0-1.355-.241c-.499 0-.952.08-1.359.24-.407.16-.755.388-1.043.683a3.034 3.034 0 0 0-.67 1.079c-.158.425-.237.9-.237 1.424 0 .528.08 1.005.237 1.43.158.424.382.786.67 1.085.288.299.636.529 1.043.689.407.16.86.24 1.358.24Zm0-1.235c-.564 0-.98-.187-1.248-.562-.27-.375-.404-.92-.404-1.634 0-.715.135-1.263.403-1.642.27-.379.685-.569 1.248-.569.555 0 .966.189 1.232.566.267.377.4.925.4 1.645 0 .719-.133 1.265-.4 1.638-.266.372-.677.558-1.231.558ZM54.57 53v-4.823a2.78 2.78 0 0 1 .689-.514c.242-.125.502-.188.78-.188.377 0 .66.112.848.335.188.223.282.538.282.945V53h1.606v-4.245c0-.372-.049-.713-.146-1.023a2.286 2.286 0 0 0-.43-.8 1.914 1.914 0 0 0-.705-.52 2.39 2.39 0 0 0-.968-.185 2.84 2.84 0 0 0-.624.065c-.19.043-.37.106-.536.188a3.02 3.02 0 0 0-.475.293c-.15.113-.291.238-.425.377l-.111-.526c-.065-.196-.202-.293-.41-.293h-.981V53h1.605Zm7.39 0v-4.823c.217-.217.446-.388.689-.514.243-.125.503-.188.78-.188.377 0 .66.112.848.335.189.223.283.538.283.945V53h1.605v-4.245c0-.372-.048-.713-.146-1.023a2.286 2.286 0 0 0-.429-.8 1.914 1.914 0 0 0-.705-.52 2.39 2.39 0 0 0-.968-.185c-.226 0-.434.022-.624.065a2.42 2.42 0 0 0-.537.188c-.167.083-.325.18-.474.293-.15.113-.292.238-.426.377l-.11-.526c-.066-.196-.202-.293-.41-.293h-.982V53h1.606Zm8.619.097c.234 0 .476-.017.725-.052.249-.034.494-.094.734-.178.24-.085.471-.197.692-.338.222-.141.42-.316.599-.524l-.468-.585a.373.373 0 0 0-.124-.11.348.348 0 0 0-.169-.039c-.1 0-.203.03-.309.091-.106.06-.23.128-.37.201a3.18 3.18 0 0 1-.494.202c-.189.06-.413.091-.673.091-.529 0-.953-.16-1.274-.481-.32-.32-.505-.823-.552-1.508h4.12a.48.48 0 0 0 .183-.03.237.237 0 0 0 .113-.097.484.484 0 0 0 .059-.188c.01-.08.016-.181.016-.303 0-.48-.072-.908-.215-1.283a2.687 2.687 0 0 0-.597-.95 2.54 2.54 0 0 0-.914-.587 3.238 3.238 0 0 0-1.16-.202c-.498 0-.946.087-1.342.26a2.984 2.984 0 0 0-1.008.705 3.087 3.087 0 0 0-.633 1.047c-.148.4-.222.829-.222 1.284 0 .584.085 1.1.254 1.543.169.444.4.817.695 1.118a2.91 2.91 0 0 0 1.04.683c.4.154.83.23 1.294.23Zm1.365-4.199h-3.016c.074-.485.243-.86.507-1.124.264-.264.63-.397 1.098-.397.239 0 .447.04.624.12.178.08.326.19.442.329.118.139.204.3.26.484a2 2 0 0 1 .085.588Zm5.298 4.2c.234 0 .47-.018.708-.053a3.127 3.127 0 0 0 1.339-.517c.208-.14.4-.314.578-.523l-.461-.585a.326.326 0 0 0-.292-.149c-.1 0-.19.031-.27.094-.08.063-.175.132-.283.208a1.959 1.959 0 0 1-.4.208 1.708 1.708 0 0 1-.62.095c-.256 0-.486-.05-.69-.147a1.412 1.412 0 0 1-.52-.429 2.03 2.03 0 0 1-.328-.698 3.606 3.606 0 0 1-.114-.95c0-.342.035-.648.105-.92.069-.27.174-.5.315-.691.14-.191.317-.337.53-.44.212-.101.459-.152.74-.152a1.777 1.777 0 0 1 .943.244c.108.063.202.119.28.169a.44.44 0 0 0 .24.075.323.323 0 0 0 .198-.052.8.8 0 0 0 .14-.143l.422-.585a3.2 3.2 0 0 0-1.01-.69c-.375-.16-.812-.24-1.31-.24-.524 0-.988.087-1.391.26a2.846 2.846 0 0 0-1.014.718c-.273.306-.48.668-.62 1.086a4.209 4.209 0 0 0-.212 1.362c0 .546.08 1.032.237 1.459.158.427.373.787.644 1.082.27.295.588.519.952.673.364.154.752.23 1.164.23Zm5.843.006a3 3 0 0 0 .942-.15c.304-.1.572-.246.806-.441l-.48-.78a.542.542 0 0 0-.098-.108.184.184 0 0 0-.117-.035.223.223 0 0 0-.117.035 1.377 1.377 0 0 1-.309.15.755.755 0 0 1-.25.035.53.53 0 0 1-.416-.175c-.104-.117-.156-.28-.156-.487v-3.615h1.755V46.39H82.89v-2.1h-.832a.381.381 0 0 0-.237.072.322.322 0 0 0-.12.201l-.338 1.82-1.073.175v.638c0 .112.031.197.094.253a.325.325 0 0 0 .224.084h.677v3.725c0 .576.156 1.028.468 1.355.311.327.756.491 1.332.491ZM90.964 53c.173 0 .29-.095.351-.286l1.216-3.841a6.85 6.85 0 0 0 .103-.387c.03-.128.059-.257.085-.387a5.376 5.376 0 0 0 .189.76l1.202 3.855c.06.19.16.286.299.286h1.293l2.113-6.669H96.6a.494.494 0 0 0-.286.084.363.363 0 0 0-.156.215l-.989 3.562c-.056.2-.102.392-.14.578-.036.187-.07.373-.1.56a37.822 37.822 0 0 0-.133-.53 14.139 14.139 0 0 0-.153-.543l-1.092-3.64a.403.403 0 0 0-.156-.214.487.487 0 0 0-.292-.085h-.709a.454.454 0 0 0-.273.085.403.403 0 0 0-.156.214l-1.105 3.575c-.06.195-.118.386-.172.572-.054.186-.105.373-.153.559-.03-.186-.062-.373-.094-.559a6.668 6.668 0 0 0-.127-.572l-.955-3.562a.363.363 0 0 0-.156-.215.528.528 0 0 0-.306-.084h-1.274L89.735 53h1.229Zm8.665-7.605c.142 0 .277-.027.402-.081a1.072 1.072 0 0 0 .553-.536.974.974 0 0 0 0-.793 1.048 1.048 0 0 0-.956-.624.968.968 0 0 0-.393.08 1.031 1.031 0 0 0-.62.946c0 .14.027.27.08.39a1.053 1.053 0 0 0 .54.537.968.968 0 0 0 .394.081Zm.799 7.605v-6.669h-1.605V53h1.605Zm4.004.104a3 3 0 0 0 .942-.15c.304-.1.573-.246.806-.441l-.48-.78a.542.542 0 0 0-.098-.108.184.184 0 0 0-.117-.035.223.223 0 0 0-.117.035 1.377 1.377 0 0 1-.309.15.755.755 0 0 1-.25.035.53.53 0 0 1-.416-.175c-.104-.117-.156-.28-.156-.487v-3.615h1.755V46.39h-1.755v-2.1h-.832a.381.381 0 0 0-.237.072.322.322 0 0 0-.12.201l-.338 1.82-1.073.175v.638c0 .112.031.197.094.253a.325.325 0 0 0 .225.084h.675v3.725c0 .576.156 1.028.469 1.355.312.327.756.491 1.332.491Zm4.446-.104v-4.823c.217-.217.446-.388.689-.514.243-.125.503-.188.78-.188.377 0 .66.112.848.335.189.223.283.538.283.945V53h1.606v-4.245c0-.372-.05-.713-.147-1.023a2.286 2.286 0 0 0-.429-.8 1.914 1.914 0 0 0-.705-.52 2.39 2.39 0 0 0-.968-.185c-.42 0-.787.076-1.099.228a3.398 3.398 0 0 0-.858.598V43.34h-1.606V53h1.606Zm10.127 2.178c.156 0 .272-.03.348-.088a.62.62 0 0 0 .185-.257l3.633-8.502h-1.287a.473.473 0 0 0-.442.299l-1.338 3.451a10.6 10.6 0 0 0-.134.358 6.5 6.5 0 0 0-.114.364 5.582 5.582 0 0 0-.09-.364 3.051 3.051 0 0 0-.124-.351l-1.423-3.458a.598.598 0 0 0-.156-.208.448.448 0 0 0-.3-.091h-1.404l2.698 6.175-1.248 2.672h1.196Zm7.95-2.08c.498 0 .95-.08 1.355-.241.405-.16.75-.39 1.036-.689.286-.299.507-.66.663-1.085.157-.425.235-.902.235-1.43 0-.525-.078-1-.234-1.424a3.021 3.021 0 0 0-.663-1.079 2.922 2.922 0 0 0-1.037-.682 3.655 3.655 0 0 0-1.356-.241c-.498 0-.95.08-1.358.24-.407.16-.755.388-1.043.683a3.034 3.034 0 0 0-.67 1.079c-.158.425-.237.9-.237 1.424 0 .528.08 1.005.237 1.43.158.424.382.786.67 1.085.288.299.636.529 1.043.689.407.16.86.24 1.358.24Zm0-1.236c-.564 0-.98-.187-1.248-.562-.27-.375-.403-.92-.403-1.634 0-.715.134-1.263.403-1.642.268-.379.684-.569 1.248-.569.554 0 .965.189 1.231.566.267.377.4.925.4 1.645 0 .719-.133 1.265-.4 1.638-.266.372-.677.558-1.232.558Zm6.656 1.242a2.643 2.643 0 0 0 1.16-.257c.167-.08.324-.177.471-.292.147-.115.29-.242.429-.38l.11.533c.065.195.202.292.41.292h.982v-6.669h-1.606v4.823a2.727 2.727 0 0 1-.689.51 1.696 1.696 0 0 1-.78.185c-.377 0-.66-.111-.848-.334-.189-.223-.283-.539-.283-.946v-4.238h-1.606v4.238c0 .373.05.714.147 1.024.097.31.241.577.432.802.19.226.426.4.705.524.28.123.601.185.965.185Zm6.883-.104v-4.154c.165-.355.366-.625.605-.809.238-.184.524-.276.858-.276.186 0 .335.015.448.045.113.03.202.046.267.046a.286.286 0 0 0 .175-.049c.043-.032.071-.087.084-.165l.208-1.203c-.216-.152-.49-.227-.819-.227-.398 0-.758.119-1.078.357-.321.238-.6.563-.839.975l-.097-.806c-.022-.147-.066-.251-.13-.312-.065-.06-.18-.091-.345-.091h-.942V53h1.605Zm8.274 0v-9.399h-1.755V53h1.755Zm6.565 0 3.797-9.399h-1.411a.562.562 0 0 0-.37.123.678.678 0 0 0-.208.274l-2.204 5.733c-.147.38-.27.82-.37 1.319a14.21 14.21 0 0 0-.192-.705 7.752 7.752 0 0 0-.212-.614l-2.21-5.733a.676.676 0 0 0-.214-.286.589.589 0 0 0-.37-.111h-1.411L153.754 53h1.58Zm6.585 0v-3.672h.748c.173 0 .304.023.393.071.089.048.17.128.244.24l1.976 3.01a.79.79 0 0 0 .27.26c.105.06.234.091.386.091h1.573l-2.353-3.471a1.732 1.732 0 0 0-.572-.54c.33-.103.623-.242.88-.415a2.596 2.596 0 0 0 1.053-1.372c.094-.282.14-.58.14-.897a2.85 2.85 0 0 0-.204-1.095 2.145 2.145 0 0 0-.644-.855c-.292-.238-.667-.424-1.124-.556-.457-.132-1.007-.198-1.648-.198h-2.867V53h1.749Zm1.092-4.927h-1.092v-3.12h1.118c.646 0 1.126.128 1.44.383.314.256.471.622.471 1.099 0 .238-.039.457-.117.657a1.37 1.37 0 0 1-.354.516c-.158.145-.36.26-.605.342a2.706 2.706 0 0 1-.861.123ZM38.464 71.104c.238 0 .455-.02.65-.058a2.57 2.57 0 0 0 .552-.176 3.02 3.02 0 0 0 .504-.29 5.36 5.36 0 0 0 .497-.399l.143.475c.043.138.108.23.195.276a.777.777 0 0 0 .357.068h.722v-4.212a3.12 3.12 0 0 0-.166-1.04 2.281 2.281 0 0 0-.484-.816 2.218 2.218 0 0 0-.777-.533 2.682 2.682 0 0 0-1.043-.192c-1.083 0-2.008.352-2.775 1.053l.292.514c.048.082.11.152.188.208a.465.465 0 0 0 .28.085c.13 0 .25-.03.358-.091.108-.061.226-.13.354-.205.128-.076.278-.144.452-.205.173-.06.39-.091.65-.091.36 0 .633.107.822.322.188.214.282.545.282.991v.39c-.758.017-1.393.091-1.904.221-.511.13-.92.294-1.228.49-.308.198-.528.419-.66.664a1.551 1.551 0 0 0-.199.744c0 .299.048.561.143.787.096.225.23.413.4.565.171.152.376.265.614.341.239.076.499.114.78.114Zm.5-1.105c-.269 0-.486-.06-.653-.182-.167-.121-.25-.323-.25-.604 0-.143.04-.276.12-.397.08-.121.215-.228.406-.319.19-.09.443-.165.757-.224a8.791 8.791 0 0 1 1.173-.12v1.124a3.246 3.246 0 0 1-.347.316 2.09 2.09 0 0 1-.358.224c-.123.06-.254.106-.393.137a2.13 2.13 0 0 1-.455.045Zm6.305 3.178v-2.73c.208.204.443.363.705.478.262.115.582.172.959.172a2.62 2.62 0 0 0 1.186-.263c.353-.175.655-.419.904-.731s.44-.68.575-1.105a4.58 4.58 0 0 0 .202-1.385c0-.546-.06-1.03-.18-1.452a3.165 3.165 0 0 0-.506-1.066 2.24 2.24 0 0 0-.78-.66 2.186 2.186 0 0 0-.998-.228c-.468 0-.876.096-1.225.287-.35.19-.658.44-.926.747l-.13-.617a.334.334 0 0 0-.144-.221.48.48 0 0 0-.266-.072h-.982v8.846h1.606Zm1.287-3.302c-.247 0-.478-.044-.692-.133a1.528 1.528 0 0 1-.595-.471v-2.99c.204-.256.424-.454.66-.595.236-.14.52-.211.854-.211.213 0 .402.039.57.117.166.078.308.201.425.37.117.17.207.39.27.66.063.271.094.602.094.992 0 .385-.037.72-.11 1.004a2.058 2.058 0 0 1-.316.705 1.28 1.28 0 0 1-.5.416 1.556 1.556 0 0 1-.66.136Zm6.065 3.302v-2.73c.207.204.443.363.705.478.262.115.581.172.959.172.437 0 .833-.087 1.186-.263a2.65 2.65 0 0 0 .903-.731c.25-.312.441-.68.575-1.105a4.55 4.55 0 0 0 .202-1.385c0-.546-.06-1.03-.179-1.452a3.165 3.165 0 0 0-.507-1.066 2.24 2.24 0 0 0-.78-.66 2.186 2.186 0 0 0-.998-.228c-.468 0-.876.096-1.225.287-.349.19-.657.44-.926.747l-.13-.617a.334.334 0 0 0-.143-.221.48.48 0 0 0-.267-.072h-.981v8.846h1.605Zm1.286-3.302c-.246 0-.477-.044-.692-.133a1.528 1.528 0 0 1-.595-.471v-2.99c.204-.256.424-.454.66-.595.236-.14.521-.211.855-.211.212 0 .402.039.569.117.167.078.309.201.425.37.117.17.207.39.27.66.063.271.094.602.094.992 0 .385-.036.72-.11 1.004a2.058 2.058 0 0 1-.315.705 1.28 1.28 0 0 1-.5.416 1.556 1.556 0 0 1-.66.136ZM60.076 71v-9.659h-1.605V71h1.605Zm2.724-7.605c.143 0 .277-.027.403-.081a1.072 1.072 0 0 0 .552-.536.974.974 0 0 0 0-.793 1.048 1.048 0 0 0-.955-.624.968.968 0 0 0-.394.08 1.031 1.031 0 0 0-.62.946c0 .14.027.27.08.39a1.053 1.053 0 0 0 .54.537.968.968 0 0 0 .394.081ZM63.599 71v-6.669h-1.605V71h1.605Zm4.361.097c.235 0 .47-.017.709-.051.238-.035.47-.095.692-.18a2.977 2.977 0 0 0 1.226-.86l-.462-.585a.326.326 0 0 0-.293-.15c-.1 0-.19.031-.27.094a6.62 6.62 0 0 1-.282.208 1.959 1.959 0 0 1-.4.208 1.708 1.708 0 0 1-.62.094c-.256 0-.486-.048-.69-.146a1.412 1.412 0 0 1-.52-.429 2.03 2.03 0 0 1-.328-.698 3.606 3.606 0 0 1-.113-.95c0-.342.034-.648.104-.92.069-.27.174-.5.315-.692a1.4 1.4 0 0 1 .53-.438 1.69 1.69 0 0 1 .74-.153 1.777 1.777 0 0 1 .943.244 9.2 9.2 0 0 1 .28.169.44.44 0 0 0 .24.075.323.323 0 0 0 .198-.052.8.8 0 0 0 .14-.144l.422-.585a3.2 3.2 0 0 0-1.01-.689c-.375-.16-.812-.24-1.31-.24-.524 0-.988.087-1.391.26a2.846 2.846 0 0 0-1.014.718c-.273.306-.48.668-.62 1.086a4.209 4.209 0 0 0-.212 1.362c0 .545.08 1.032.237 1.459.158.427.373.787.644 1.082.27.295.588.519.952.673.364.154.752.23 1.163.23Zm5.259.007c.238 0 .455-.02.65-.058a2.57 2.57 0 0 0 .552-.176 3.02 3.02 0 0 0 .504-.29c.163-.114.329-.247.498-.399l.142.475c.044.138.109.23.195.276a.777.777 0 0 0 .358.068h.722v-4.212c0-.377-.056-.724-.166-1.04a2.281 2.281 0 0 0-.485-.816 2.218 2.218 0 0 0-.776-.533 2.682 2.682 0 0 0-1.043-.192c-1.084 0-2.009.352-2.776 1.053l.293.514c.047.082.11.152.188.208a.465.465 0 0 0 .28.085c.13 0 .249-.03.357-.091.108-.061.226-.13.354-.205.128-.076.279-.144.452-.205.173-.06.39-.091.65-.091.36 0 .634.107.822.322.189.214.283.545.283.991v.39c-.758.017-1.393.091-1.904.221-.512.13-.921.294-1.229.49-.308.198-.528.419-.66.664a1.551 1.551 0 0 0-.198.744c0 .299.048.561.143.787.095.225.229.413.4.565.17.152.376.265.614.341.238.076.498.114.78.114Zm.5-1.105c-.268 0-.486-.06-.653-.182-.167-.121-.25-.323-.25-.604 0-.143.04-.276.12-.397.08-.121.216-.228.406-.319.191-.09.444-.165.758-.224a8.791 8.791 0 0 1 1.173-.12v1.124a3.246 3.246 0 0 1-.348.316 2.09 2.09 0 0 1-.357.224 1.8 1.8 0 0 1-.394.137 2.13 2.13 0 0 1-.455.045Zm6.89 1.105a3 3 0 0 0 .943-.15c.303-.1.572-.246.806-.441l-.481-.78a.542.542 0 0 0-.097-.108.184.184 0 0 0-.118-.035.223.223 0 0 0-.117.035 1.377 1.377 0 0 1-.309.15.755.755 0 0 1-.25.035.53.53 0 0 1-.416-.175c-.103-.117-.155-.28-.155-.488v-3.614h1.754V64.39h-1.754v-2.1h-.833a.381.381 0 0 0-.237.072.322.322 0 0 0-.12.201l-.338 1.82-1.073.175v.637c0 .113.032.198.095.254a.325.325 0 0 0 .224.085h.676v3.724c0 .576.156 1.028.468 1.355.312.327.756.491 1.332.491Zm3.751-7.709c.143 0 .277-.027.403-.081a1.072 1.072 0 0 0 .552-.536.974.974 0 0 0 0-.793 1.048 1.048 0 0 0-.955-.624.968.968 0 0 0-.393.08 1.031 1.031 0 0 0-.62.946c-.001.14.026.27.08.39a1.053 1.053 0 0 0 .54.537.968.968 0 0 0 .393.081Zm.8 7.605v-6.669h-1.606V71h1.605Zm4.66.097c.498 0 .95-.08 1.355-.24.405-.16.751-.39 1.037-.689.286-.299.507-.66.663-1.086.156-.424.234-.9.234-1.43 0-.524-.078-.998-.234-1.423a3.021 3.021 0 0 0-.663-1.079 2.922 2.922 0 0 0-1.037-.683 3.655 3.655 0 0 0-1.355-.24c-.498 0-.951.08-1.358.24-.408.16-.756.388-1.044.683a3.034 3.034 0 0 0-.67 1.079c-.157.425-.237.9-.237 1.424 0 .528.08 1.005.238 1.43.158.424.381.786.67 1.085.287.299.635.529 1.043.689.407.16.86.24 1.358.24Zm0-1.234c-.563 0-.98-.188-1.248-.563-.269-.375-.403-.92-.403-1.635s.134-1.262.403-1.64c.269-.38.685-.57 1.248-.57.555 0 .965.189 1.232.566.266.377.4.925.4 1.644 0 .72-.134 1.266-.4 1.638-.267.373-.677.56-1.232.56ZM95.969 71v-4.823c.217-.217.446-.388.689-.514.243-.125.503-.188.78-.188.377 0 .66.112.848.335.189.223.283.538.283.945V71h1.605v-4.245c0-.372-.048-.713-.146-1.023a2.286 2.286 0 0 0-.429-.8 1.914 1.914 0 0 0-.705-.52 2.39 2.39 0 0 0-.969-.185c-.225 0-.433.022-.623.065-.191.043-.37.106-.537.189a2.96 2.96 0 0 0-.474.292c-.15.113-.292.238-.426.377l-.11-.526c-.066-.195-.202-.293-.41-.293h-.981V71h1.605Zm9.9.104c.238 0 .454-.02.65-.058a2.57 2.57 0 0 0 .552-.176 3.02 3.02 0 0 0 .504-.29 5.36 5.36 0 0 0 .497-.399l.143.475c.043.138.108.23.195.276a.777.777 0 0 0 .358.068h.721v-4.212a3.12 3.12 0 0 0-.166-1.04 2.281 2.281 0 0 0-.484-.816 2.218 2.218 0 0 0-.777-.533 2.682 2.682 0 0 0-1.043-.192c-1.083 0-2.009.352-2.776 1.053l.293.514c.048.082.11.152.189.208a.465.465 0 0 0 .279.085c.13 0 .25-.03.358-.091.108-.061.226-.13.354-.205.128-.076.278-.144.452-.205.173-.06.39-.091.65-.091.36 0 .633.107.822.322.188.214.282.545.282.991v.39c-.758.017-1.393.091-1.904.221-.511.13-.92.294-1.228.49-.308.198-.528.419-.66.664a1.551 1.551 0 0 0-.198.744c0 .299.047.561.142.787.096.225.23.413.4.565.171.152.376.265.614.341.239.076.499.114.78.114Zm.5-1.105c-.269 0-.486-.06-.653-.182-.167-.121-.25-.323-.25-.604 0-.143.04-.276.12-.397.08-.121.215-.228.406-.319.19-.09.443-.165.757-.224a8.791 8.791 0 0 1 1.174-.12v1.124a3.246 3.246 0 0 1-.348.316 2.09 2.09 0 0 1-.358.224c-.123.06-.254.106-.393.137a2.13 2.13 0 0 1-.455.045ZM112.674 71v-4.823c.217-.217.446-.388.689-.514.243-.125.503-.188.78-.188.377 0 .66.112.848.335.189.223.283.538.283.945V71h1.605v-4.245c0-.372-.048-.713-.146-1.023a2.286 2.286 0 0 0-.429-.8 1.914 1.914 0 0 0-.705-.52 2.39 2.39 0 0 0-.969-.185c-.225 0-.433.022-.623.065-.191.043-.37.106-.537.189a2.96 2.96 0 0 0-.474.292c-.15.113-.292.238-.426.377l-.11-.526c-.066-.195-.202-.293-.41-.293h-.981V71h1.605Zm7.793.097a2.557 2.557 0 0 0 1.219-.286c.176-.09.34-.199.491-.324a3.93 3.93 0 0 0 .435-.423l.13.644c.066.195.202.292.41.292h.981v-9.659h-1.605v3.523a2.503 2.503 0 0 0-.709-.478c-.264-.119-.582-.178-.955-.178-.438 0-.832.087-1.183.263a2.7 2.7 0 0 0-.903.731c-.252.312-.445.68-.579 1.105a4.546 4.546 0 0 0-.201 1.378 5.4 5.4 0 0 0 .178 1.456c.12.425.288.781.507 1.07.22.287.48.507.783.659.304.152.638.227 1.002.227Zm.546-1.273c-.208 0-.396-.038-.565-.114a1.028 1.028 0 0 1-.429-.37 1.952 1.952 0 0 1-.27-.664 4.458 4.458 0 0 1-.094-.991c0-.386.037-.72.11-1.004.074-.284.18-.518.316-.702a1.29 1.29 0 0 1 .5-.413c.197-.091.417-.136.66-.136.247 0 .478.045.692.136.215.091.413.247.595.468v2.99a2.529 2.529 0 0 1-.663.591c-.234.14-.518.209-.852.209ZM130.088 71v-9.659h-1.606V71h1.606Zm2.723-7.605c.143 0 .277-.027.403-.081a1.072 1.072 0 0 0 .553-.536.974.974 0 0 0 0-.793 1.048 1.048 0 0 0-.956-.624.968.968 0 0 0-.393.08 1.031 1.031 0 0 0-.62.946c-.001.14.026.27.08.39a1.053 1.053 0 0 0 .54.537.968.968 0 0 0 .393.081Zm.8 7.605v-6.669h-1.606V71h1.606Zm5.154 0 2.646-6.669h-1.268a.465.465 0 0 0-.28.084.44.44 0 0 0-.162.215l-1.32 3.562a5.632 5.632 0 0 0-.191.611c-.05.2-.095.399-.133.598-.04-.2-.084-.399-.134-.598a6.58 6.58 0 0 0-.185-.611l-1.287-3.562a.433.433 0 0 0-.166-.215.502.502 0 0 0-.296-.084h-1.332L137.309 71h1.456Zm6.429.097c.234 0 .475-.017.724-.051.25-.035.494-.095.735-.18.24-.084.471-.196.692-.337.221-.141.42-.316.598-.523l-.468-.585a.373.373 0 0 0-.124-.111.348.348 0 0 0-.168-.039c-.1 0-.203.03-.31.091-.105.06-.229.128-.37.202a3.2 3.2 0 0 1-.494.201 2.22 2.22 0 0 1-.672.091c-.53 0-.954-.16-1.274-.481-.321-.32-.505-.823-.553-1.508h4.121c.074 0 .134-.01.182-.03a.237.237 0 0 0 .114-.097.484.484 0 0 0 .058-.188c.011-.08.016-.181.016-.303 0-.48-.071-.908-.214-1.283a2.687 2.687 0 0 0-.598-.95 2.54 2.54 0 0 0-.913-.588 3.238 3.238 0 0 0-1.16-.201c-.499 0-.946.087-1.343.26a2.984 2.984 0 0 0-1.007.705 3.087 3.087 0 0 0-.634 1.047c-.147.4-.221.828-.221 1.283 0 .585.084 1.1.254 1.544.168.444.4.817.695 1.118.295.301.641.529 1.04.683.399.154.83.23 1.293.23Zm1.365-4.198h-3.017c.074-.486.243-.86.507-1.125.265-.264.631-.397 1.099-.397.238 0 .446.04.624.12.178.08.325.19.442.329.117.139.204.3.26.484a2 2 0 0 1 .085.588ZM38.464 89.103c.238 0 .455-.02.65-.058a2.57 2.57 0 0 0 .552-.176 3.02 3.02 0 0 0 .504-.29 5.36 5.36 0 0 0 .497-.399l.143.475c.043.138.108.23.195.276a.777.777 0 0 0 .357.068h.722v-4.212a3.12 3.12 0 0 0-.166-1.04 2.281 2.281 0 0 0-.484-.816 2.218 2.218 0 0 0-.777-.533 2.682 2.682 0 0 0-1.043-.192c-1.083 0-2.008.352-2.775 1.053l.292.514c.048.082.11.152.188.208a.465.465 0 0 0 .28.085c.13 0 .25-.03.358-.091.108-.061.226-.13.354-.205.128-.076.278-.144.452-.205.173-.06.39-.091.65-.091.36 0 .633.107.822.322.188.214.282.545.282.991v.39c-.758.017-1.393.091-1.904.221-.511.13-.92.294-1.228.49-.308.198-.528.419-.66.664a1.551 1.551 0 0 0-.199.744c0 .299.048.561.143.787.096.225.23.413.4.565.171.152.376.265.614.341.239.076.499.114.78.114Zm.5-1.105c-.269 0-.486-.06-.653-.182-.167-.121-.25-.323-.25-.604 0-.143.04-.276.12-.397.08-.121.215-.228.406-.319.19-.09.443-.165.757-.224a8.791 8.791 0 0 1 1.173-.12v1.124a3.246 3.246 0 0 1-.347.316 2.09 2.09 0 0 1-.358.224c-.123.06-.254.106-.393.137a2.13 2.13 0 0 1-.455.045Zm7.026 3.348a4.33 4.33 0 0 0 1.365-.199 3.293 3.293 0 0 0 1.011-.523c.275-.217.486-.464.63-.741.146-.277.218-.563.218-.858 0-.316-.061-.575-.185-.777a1.373 1.373 0 0 0-.487-.477 2.309 2.309 0 0 0-.686-.257 6.193 6.193 0 0 0-.787-.114c-.268-.022-.53-.036-.786-.042a6.746 6.746 0 0 1-.686-.049 1.514 1.514 0 0 1-.487-.133.311.311 0 0 1-.185-.296c0-.156.104-.297.312-.422.238.047.483.071.734.071.373 0 .718-.05 1.037-.153.318-.102.593-.246.825-.432a1.983 1.983 0 0 0 .745-1.573 2.125 2.125 0 0 0-.137-.754l.598-.11c.126-.022.215-.061.267-.117a.332.332 0 0 0 .078-.235v-.598h-1.918a2.746 2.746 0 0 0-.689-.256 3.549 3.549 0 0 0-.806-.088c-.381 0-.733.05-1.056.15a2.52 2.52 0 0 0-.839.432 2 2 0 0 0-.552.682 1.984 1.984 0 0 0-.199.894c0 .407.097.763.29 1.066.193.303.458.546.796.728a1.862 1.862 0 0 0-.383.25 1.552 1.552 0 0 0-.27.296 1.25 1.25 0 0 0-.16.315.992.992 0 0 0-.051.309c0 .243.05.44.149.591.1.152.232.273.397.364-.339.126-.603.295-.794.508-.19.212-.285.474-.285.786 0 .23.06.45.181.663.122.212.305.4.55.562.245.163.553.293.926.39.373.098.813.147 1.32.147Zm-.019-5.844a1.52 1.52 0 0 1-.517-.081.993.993 0 0 1-.37-.228.955.955 0 0 1-.221-.347 1.242 1.242 0 0 1-.075-.436c0-.33.099-.59.296-.783.197-.193.493-.29.887-.29s.69.097.887.29c.197.193.296.454.296.783 0 .16-.025.308-.075.442a.924.924 0 0 1-.22.345 1.02 1.02 0 0 1-.368.224c-.147.054-.32.081-.52.081Zm.046 4.7c-.295 0-.544-.021-.748-.062a1.66 1.66 0 0 1-.497-.172.732.732 0 0 1-.28-.264.648.648 0 0 1-.087-.328c0-.178.055-.335.165-.471.11-.137.257-.255.439-.355.2.026.406.045.62.056.215.01.423.021.625.032.201.011.392.027.572.049.18.022.337.055.471.1a.78.78 0 0 1 .319.193.444.444 0 0 1 .117.318c0 .13-.033.25-.098.36a.811.811 0 0 1-.309.287c-.14.08-.32.143-.536.188a3.812 3.812 0 0 1-.773.069Zm7.208-1.106c.234 0 .476-.017.725-.051.249-.035.494-.095.734-.18.24-.084.472-.196.693-.337.22-.141.42-.316.597-.523l-.467-.585a.373.373 0 0 0-.124-.111.348.348 0 0 0-.169-.039c-.1 0-.203.03-.309.091-.106.06-.23.128-.37.202-.141.073-.306.14-.494.201-.189.06-.413.091-.673.091-.529 0-.953-.16-1.274-.481-.32-.32-.505-.823-.553-1.508h4.122c.073 0 .134-.01.181-.03a.237.237 0 0 0 .114-.097.484.484 0 0 0 .059-.188c.01-.08.016-.181.016-.303 0-.48-.072-.908-.215-1.283a2.687 2.687 0 0 0-.597-.95 2.54 2.54 0 0 0-.914-.588 3.238 3.238 0 0 0-1.16-.201c-.498 0-.946.087-1.342.26a2.984 2.984 0 0 0-1.008.705 3.087 3.087 0 0 0-.633 1.047c-.148.4-.221.828-.221 1.283 0 .585.084 1.1.253 1.544.169.444.4.817.696 1.118.294.301.64.529 1.04.683.398.154.83.23 1.293.23ZM54.59 84.9h-3.016c.074-.486.243-.86.507-1.125.264-.264.63-.397 1.098-.397.239 0 .447.04.624.12.178.08.326.19.443.329.116.139.203.3.26.484a2 2 0 0 1 .084.588Zm4.355 4.1v-4.823c.217-.217.446-.388.689-.514.243-.125.503-.188.78-.188.377 0 .66.112.848.335.189.223.283.538.283.945V89h1.605v-4.245c0-.372-.048-.713-.146-1.023a2.286 2.286 0 0 0-.429-.8 1.914 1.914 0 0 0-.705-.52 2.39 2.39 0 0 0-.968-.185c-.226 0-.434.022-.624.065-.191.043-.37.106-.537.189a2.96 2.96 0 0 0-.474.292c-.15.113-.292.238-.426.377l-.11-.526c-.066-.195-.202-.293-.41-.293h-.981V89h1.605Zm7.976.104a3 3 0 0 0 .942-.15c.303-.1.572-.246.806-.441l-.481-.78a.542.542 0 0 0-.097-.108.184.184 0 0 0-.117-.035.223.223 0 0 0-.118.035 1.377 1.377 0 0 1-.309.15.755.755 0 0 1-.25.035.53.53 0 0 1-.415-.175c-.105-.117-.157-.28-.157-.488v-3.614h1.756V82.39h-1.755v-2.1h-.832a.381.381 0 0 0-.238.072.322.322 0 0 0-.12.201l-.338 1.82-1.072.175v.637c0 .113.03.198.094.254a.325.325 0 0 0 .224.085h.676v3.724c0 .576.156 1.028.468 1.355.312.327.756.491 1.333.491Zm6.954 0c.239 0 .456-.02.65-.058a2.57 2.57 0 0 0 .553-.176 3.02 3.02 0 0 0 .504-.29 5.36 5.36 0 0 0 .497-.399l.143.475c.043.138.108.23.195.276a.777.777 0 0 0 .358.068h.721v-4.212a3.12 3.12 0 0 0-.166-1.04 2.281 2.281 0 0 0-.484-.816 2.218 2.218 0 0 0-.777-.533 2.682 2.682 0 0 0-1.043-.192c-1.083 0-2.008.352-2.775 1.053l.292.514c.048.082.11.152.188.208a.465.465 0 0 0 .28.085c.13 0 .25-.03.358-.091.108-.061.226-.13.354-.205.128-.076.278-.144.451-.205.174-.06.39-.091.65-.091.36 0 .634.107.823.322.188.214.282.545.282.991v.39c-.758.017-1.393.091-1.904.221-.511.13-.92.294-1.229.49-.307.198-.527.419-.66.664a1.551 1.551 0 0 0-.197.744c0 .299.047.561.143.787.095.225.228.413.4.565.17.152.375.265.614.341.238.076.498.114.78.114Zm.501-1.105c-.269 0-.486-.06-.653-.182-.167-.121-.25-.323-.25-.604 0-.143.04-.276.12-.397.08-.121.215-.228.406-.319.19-.09.443-.165.757-.224a8.791 8.791 0 0 1 1.174-.12v1.124a3.246 3.246 0 0 1-.348.316 2.09 2.09 0 0 1-.358.224c-.123.06-.254.106-.393.137a2.13 2.13 0 0 1-.455.045Zm6.305 3.178v-2.73c.208.204.443.363.705.478.262.115.582.172.959.172a2.62 2.62 0 0 0 1.186-.263c.353-.175.655-.419.904-.731s.44-.68.575-1.105c.134-.425.201-.886.201-1.385 0-.546-.06-1.03-.178-1.452a3.165 3.165 0 0 0-.507-1.066 2.24 2.24 0 0 0-.78-.66 2.186 2.186 0 0 0-.998-.228c-.468 0-.876.096-1.225.287-.35.19-.658.44-.926.747l-.13-.617a.334.334 0 0 0-.144-.221.48.48 0 0 0-.266-.072h-.981v8.846h1.605Zm1.287-3.302c-.247 0-.478-.044-.692-.133a1.528 1.528 0 0 1-.595-.471v-2.99c.204-.256.424-.454.66-.595.236-.14.52-.211.855-.211.212 0 .401.039.568.117.167.078.309.201.426.37.117.17.207.39.27.66.063.271.094.602.094.992 0 .385-.037.72-.11 1.004a2.058 2.058 0 0 1-.316.705 1.28 1.28 0 0 1-.5.416 1.556 1.556 0 0 1-.66.136Zm6.064 3.302v-2.73c.209.204.444.363.706.478.262.115.582.172.959.172.437 0 .833-.087 1.186-.263a2.65 2.65 0 0 0 .903-.731c.25-.312.441-.68.576-1.105.134-.425.201-.886.201-1.385 0-.546-.06-1.03-.179-1.452a3.165 3.165 0 0 0-.507-1.066 2.24 2.24 0 0 0-.78-.66 2.186 2.186 0 0 0-.997-.228c-.468 0-.877.096-1.226.287-.349.19-.657.44-.926.747l-.13-.617a.334.334 0 0 0-.143-.221.48.48 0 0 0-.266-.072h-.982v8.846h1.605Zm1.288-3.302c-.247 0-.478-.044-.693-.133a1.528 1.528 0 0 1-.594-.471v-2.99c.203-.256.423-.454.66-.595.235-.14.52-.211.854-.211.212 0 .402.039.569.117.167.078.308.201.425.37.118.17.207.39.27.66.063.271.094.602.094.992 0 .385-.036.72-.11 1.004a2.058 2.058 0 0 1-.315.705 1.28 1.28 0 0 1-.5.416 1.556 1.556 0 0 1-.66.136ZM95.488 89v-9.659h-1.606V89h1.606Zm2.724-7.605c.142 0 .277-.027.403-.081a1.072 1.072 0 0 0 .552-.536.974.974 0 0 0 0-.793 1.048 1.048 0 0 0-.956-.624.968.968 0 0 0-.393.08 1.031 1.031 0 0 0-.62.946c0 .14.027.27.08.39a1.053 1.053 0 0 0 .54.537.968.968 0 0 0 .394.081ZM99.01 89v-6.669h-1.605V89h1.605Zm4.362.097c.233 0 .47-.017.708-.051.238-.035.47-.095.692-.18a2.977 2.977 0 0 0 1.226-.86l-.462-.585a.326.326 0 0 0-.293-.15c-.1 0-.19.031-.27.094a6.62 6.62 0 0 1-.282.208 1.959 1.959 0 0 1-.4.208 1.708 1.708 0 0 1-.62.094c-.256 0-.486-.048-.69-.146a1.412 1.412 0 0 1-.52-.429 2.03 2.03 0 0 1-.328-.698 3.606 3.606 0 0 1-.114-.95c0-.342.035-.648.105-.92.069-.27.174-.5.315-.692a1.4 1.4 0 0 1 .53-.438 1.69 1.69 0 0 1 .74-.153 1.777 1.777 0 0 1 .943.244 9.2 9.2 0 0 1 .28.169c.077.05.158.075.24.075a.323.323 0 0 0 .198-.052.8.8 0 0 0 .14-.144l.422-.585a3.2 3.2 0 0 0-1.01-.689c-.375-.16-.812-.24-1.31-.24-.524 0-.988.087-1.391.26a2.846 2.846 0 0 0-1.014.718c-.273.306-.48.668-.62 1.086a4.209 4.209 0 0 0-.212 1.362c0 .545.08 1.032.237 1.459.158.427.373.787.644 1.082.27.295.588.519.952.673.364.154.752.23 1.163.23Zm5.258.007c.238 0 .455-.02.65-.058a2.57 2.57 0 0 0 .552-.176 3.02 3.02 0 0 0 .504-.29c.163-.114.328-.247.498-.399l.143.475c.043.138.108.23.195.276a.777.777 0 0 0 .357.068h.721v-4.212c0-.377-.055-.724-.165-1.04a2.281 2.281 0 0 0-.484-.816 2.218 2.218 0 0 0-.777-.533 2.682 2.682 0 0 0-1.044-.192c-1.083 0-2.008.352-2.775 1.053l.293.514c.047.082.11.152.188.208a.465.465 0 0 0 .28.085c.13 0 .249-.03.357-.091.108-.061.226-.13.354-.205.128-.076.279-.144.452-.205.173-.06.39-.091.65-.091.36 0 .634.107.822.322.189.214.283.545.283.991v.39c-.758.017-1.393.091-1.904.221-.512.13-.921.294-1.229.49-.308.198-.528.419-.66.664a1.551 1.551 0 0 0-.198.744c0 .299.048.561.143.787.095.225.229.413.4.565.17.152.376.265.614.341.238.076.498.114.78.114Zm.5-1.105c-.268 0-.486-.06-.653-.182-.167-.121-.25-.323-.25-.604 0-.143.04-.276.12-.397.08-.121.216-.228.406-.319.191-.09.444-.165.758-.224a8.791 8.791 0 0 1 1.173-.12v1.124a3.246 3.246 0 0 1-.348.316 2.09 2.09 0 0 1-.357.224 1.8 1.8 0 0 1-.394.137 2.13 2.13 0 0 1-.454.045Zm6.89 1.105a3 3 0 0 0 .943-.15c.303-.1.572-.246.806-.441l-.481-.78a.542.542 0 0 0-.097-.108.184.184 0 0 0-.117-.035.223.223 0 0 0-.118.035 1.377 1.377 0 0 1-.309.15.755.755 0 0 1-.25.035.53.53 0 0 1-.415-.175c-.105-.117-.157-.28-.157-.488v-3.614h1.756V82.39h-1.755v-2.1h-.832a.381.381 0 0 0-.238.072.322.322 0 0 0-.12.201l-.338 1.82-1.073.175v.637c0 .113.032.198.095.254a.325.325 0 0 0 .224.085h.676v3.724c0 .576.156 1.028.468 1.355.312.327.756.491 1.333.491Zm3.751-7.709c.143 0 .277-.027.403-.081a1.072 1.072 0 0 0 .553-.536.974.974 0 0 0 0-.793 1.048 1.048 0 0 0-.956-.624.968.968 0 0 0-.393.08 1.031 1.031 0 0 0-.62.946c-.001.14.026.27.08.39a1.053 1.053 0 0 0 .54.537.968.968 0 0 0 .393.081Zm.8 7.605v-6.669h-1.606V89h1.606Zm4.66.097c.498 0 .95-.08 1.355-.24.405-.16.751-.39 1.037-.689.286-.299.507-.66.663-1.086.156-.424.234-.9.234-1.43 0-.524-.078-.998-.234-1.423a3.021 3.021 0 0 0-.663-1.079 2.922 2.922 0 0 0-1.037-.683 3.655 3.655 0 0 0-1.355-.24c-.498 0-.951.08-1.358.24-.408.16-.756.388-1.044.683a3.034 3.034 0 0 0-.67 1.079c-.157.425-.236.9-.236 1.424 0 .528.079 1.005.237 1.43.158.424.381.786.67 1.085.287.299.635.529 1.043.689.407.16.86.24 1.358.24Zm0-1.234c-.563 0-.98-.188-1.248-.563-.269-.375-.403-.92-.403-1.635s.134-1.262.403-1.64c.269-.38.685-.57 1.248-.57.555 0 .965.189 1.232.566.266.377.4.925.4 1.644 0 .72-.134 1.266-.4 1.638-.267.373-.677.56-1.232.56Zm6.15 1.137v-4.823c.217-.217.446-.388.689-.514.243-.125.503-.188.78-.188.377 0 .66.112.848.335.189.223.283.538.283.945V89h1.606v-4.245c0-.372-.05-.713-.147-1.023a2.286 2.286 0 0 0-.429-.8 1.914 1.914 0 0 0-.705-.52 2.39 2.39 0 0 0-.969-.185c-.225 0-.433.022-.623.065-.191.043-.37.106-.537.189a2.96 2.96 0 0 0-.474.292c-.15.113-.292.238-.426.377l-.11-.526c-.066-.195-.202-.293-.41-.293h-.982V89h1.606Zm7.514.104c.429 0 .81-.055 1.14-.166.332-.11.61-.264.836-.461a1.95 1.95 0 0 0 .513-.702 2.2 2.2 0 0 0 .176-.888c0-.268-.047-.498-.14-.689a1.57 1.57 0 0 0-.37-.49 2.085 2.085 0 0 0-.524-.338 6.475 6.475 0 0 0-.597-.238 17.008 17.008 0 0 0-.599-.191 3.626 3.626 0 0 1-.523-.198 1.257 1.257 0 0 1-.37-.257.502.502 0 0 1-.14-.361c0-.217.091-.392.273-.526.182-.135.431-.202.748-.202.203 0 .38.022.53.065.149.043.282.092.399.146.117.054.22.103.309.146a.573.573 0 0 0 .25.066.354.354 0 0 0 .182-.043.428.428 0 0 0 .137-.146l.363-.579a2.833 2.833 0 0 0-.942-.598 3.333 3.333 0 0 0-1.254-.227c-.412 0-.775.055-1.09.166-.313.11-.576.258-.786.442-.21.184-.37.4-.477.647a1.921 1.921 0 0 0-.163.78c0 .294.047.546.14.754.093.207.216.383.37.526.154.143.33.261.527.354.197.093.398.175.604.244.206.07.408.133.605.192.197.058.372.124.526.198.154.074.278.16.37.26.094.1.14.227.14.383a.77.77 0 0 1-.061.303.671.671 0 0 1-.195.257 1.038 1.038 0 0 1-.338.178 1.56 1.56 0 0 1-.491.069 1.82 1.82 0 0 1-.601-.085 2.76 2.76 0 0 1-.413-.182 6.24 6.24 0 0 1-.309-.182.52.52 0 0 0-.282-.085c-.1 0-.183.02-.248.059a.524.524 0 0 0-.168.169l-.371.611c.13.117.28.225.452.325.17.1.357.186.559.26.201.074.411.131.63.172.22.041.443.062.673.062Z" fill="#8A959F"/><path d="M133 159.394 151.636 141 133 122.606l5.682-5.606L163 141l-24.318 24-5.682-5.606ZM82 143h7.37v-8H82v8Zm37-8h-7.37v8H119v-8Zm-22.185 8h7.37v-8h-7.37v8ZM72 159.394 53.345 141l18.636-18.394L66.299 117 42 141l24.318 24L72 159.394Z" fill="#000" opacity=".1"/><path d="M203 204.936C203 208.085 157.557 219 101.5 219S0 208.085 0 204.936c0-3.15 45.443 2.66 101.5 2.66s101.5-5.81 101.5-2.66Z" fill="#26344A"/><path d="M203 204.936C203 208.085 157.557 219 101.5 219S0 208.085 0 204.936c0-3.15 45.443 2.66 101.5 2.66s101.5-5.81 101.5-2.66Z" fill="#000" opacity=".1"/><ellipse fill="#26344A" cx="101.5" cy="205.5" rx="101.5" ry="5.5"/><path d="M117 179c0 11.607 7.604 21 17 21" fill="#26344A"/><path d="M134 199c0-11.607 8.498-21 19-21m-29 1c0 11.607 4.473 21 10 21" fill="#009DAB"/><path d="M134 200c0-15.477 9.393-28 21-28" fill="#26344A"/><path d="M131 200.144s2.419-.065 3.148-.52c.729-.454 3.72-.996 3.901-.268.18.729 3.635 3.624.904 3.643-2.73.02-6.345-.372-7.072-.76-.728-.388-.881-2.095-.881-2.095Z" fill="#A8A8A8"/><path d="M139.003 201.733c-2.731.02-6.346-.39-7.073-.798-.555-.31-.775-1.422-.85-1.935l-.08.003s.153 1.792.88 2.199c.728.407 4.343.818 7.074.797.788-.006 1.06-.263 1.045-.645-.11.23-.41.375-.996.38v-.001Z" fill="#000" opacity=".2"/><path d="M161 135.347s-6.476-4.686-6.967-2.969c-.492 1.718 4.751 5.622 4.751 5.622l2.216-2.653Z" fill="#FFB9B9"/><path d="M161 135.347s-6.476-4.686-6.967-2.969c-.492 1.718 4.751 5.622 4.751 5.622l2.216-2.653Z" fill="#000" opacity=".1"/><path d="M179.893 122s-6.974 11.971-7.122 13.681c-.149 1.71-.149 1.853-.742 1.71-.593-.142-8.754-.997-9.496-.712-.742.285-2.225-1.71-2.225-1.71s-2.82 2.707-2.226 3.277c.594.57 2.374.855 2.67 1.568.298.713.743 1.425 2.078 1.283 1.335-.143 10.386 2.28 11.573 1.852 1.187-.427 1.484-1.14 2.077-1.14.594 0 1.78-.57 1.78-.712 0-.143 4.155-7.696 4.155-7.696s4.896-10.26-2.522-11.401Z" fill="#D0CDE1"/><path d="M179.893 122s-6.974 11.971-7.122 13.681c-.149 1.71-.149 1.853-.742 1.71-.593-.142-8.754-.997-9.496-.712-.742.285-2.225-1.71-2.225-1.71s-2.82 2.707-2.226 3.277c.594.57 2.374.855 2.67 1.568.298.713.743 1.425 2.078 1.283 1.335-.143 10.386 2.28 11.573 1.852 1.187-.427 1.484-1.14 2.077-1.14.594 0 1.78-.57 1.78-.712 0-.143 4.155-7.696 4.155-7.696s4.896-10.26-2.522-11.401Z" fill="#000" opacity=".1"/><path d="M170.452 113.322c-.06.76-.048 1.523.037 2.28.215 1.643.967 3.355.257 4.888-.257.557-.694 1.042-.931 1.605-.503 1.192-.047 2.515-.116 3.784-.088 1.64-1.124 3.219-2.699 4.117 2.691.084 5.251-1.255 6.945-3.081 1.693-1.826 2.636-4.09 3.343-6.356.364-1.064.596-2.168.694-3.29a4.786 4.786 0 0 0-.22-1.905 7.337 7.337 0 0 0-.974-1.675c-.424-.6-.86-1.212-1.486-1.659-.77-.55-2.256-1.102-3.279-1.022-1.253.098-1.518 1.438-1.57 2.314h-.001Z" fill="#26344A"/><path d="M175 118.802s1.571 5.212.286 6.682c-1.286 1.47 7.714-.668 7.714-.668s-4.429-4.143-2.286-6.816l-5.714.802Z" fill="#FFB9B9"/><path d="M175 118.802s1.571 5.212.286 6.682c-1.286 1.47 7.714-.668 7.714-.668s-4.429-4.143-2.286-6.816l-5.714.802Z" fill="#000" opacity=".1"/><path fill="#009DAB" d="M133 154.394 151.636 136 133 117.606l5.682-5.606L163 136l-24.318 24z"/><path fill="#FFB9B9" d="M170 194.146v4.229l1.607 2.625 1.393-.875-.429-6.125z"/><path d="M170.446 198.108s-.569-2.04-1.565-.583c-.996 1.458-1.992 4.665-2.561 4.81-.57.146-4.554 4.665-.57 4.665 3.985 0 5.266-1.895 5.266-1.895S175 203.502 175 203.21c0-.292-.57-5.685-.854-5.685-.284 0-.427 1.02-1.138 1.02-.712 0-2.562-.437-2.562-.437Z" fill="#26344A"/><path fill="#FFB9B9" d="m178.125 195.308-.125 4.154 3 1.538v-6z"/><path d="M183.129 199.616s-1.888-1.98-2.904-1.556c-.503.197-.989.434-1.453.707 0 0-.58 1.84-.87 3.397-.291 1.556-.436 2.264-.727 2.83-.29.566-.58 2.689 2.323 2.972 2.905.283 3.776-1.274 3.776-1.274l.726-3.68s-.29-3.396-.871-3.396Zm-11.889-46.459s-3.977 9.318-3.429 17.776c0 0-1.37 3.297-.548 8.457.823 5.16 1.92 15.482 1.92 15.482s3.703.43 3.977-.287c0 0 .274-7.167.549-7.454.274-.287-.138-6.88-.549-8.17-.411-1.291 3.84-14.05 3.84-14.05L175.903 149l-4.663 4.157Z" fill="#26344A"/><path d="M171.24 153.157s-3.977 9.318-3.429 17.776c0 0-1.37 3.297-.548 8.457.823 5.16 1.92 15.482 1.92 15.482s3.703.43 3.977-.287c0 0 .274-7.167.549-7.454.274-.287-.138-6.88-.549-8.17-.411-1.291 3.84-14.05 3.84-14.05L175.903 149l-4.663 4.157Z" fill="#000" opacity=".1"/><path d="m170 151.825 2.83 5.995s1.34 13.599 2.084 15.353c0 0 .298 4.972 1.638 6.58 1.34 1.609 2.382 15.792 2.382 15.792s3.723 1.024 4.02 0c.299-1.023 1.192-8.042 1.192-8.042s.298-5.995-1.34-9.943c-1.638-3.948 1.936-18.131 1.936-18.131s3.722-6.873-1.638-12.429L170 151.825Z" fill="#26344A"/><circle fill="#FFB9B9" cx="177" cy="114" r="6"/><path d="M183.016 124s-6.09 0-6.94.737a1.098 1.098 0 0 1-1.558 0s-2.124.147-2.69 1.916c-.567 1.77-2.267 4.128-2.267 4.128s-2.549 1.916-1.133 6.928c1.417 5.012.284 13.12.284 13.12s-1.133 1.768 0 2.505c1.133.737 1.557 1.032 1.416 1.622-.142.59 12.888-4.865 12.888-5.897s-.283-1.916 0-2.358c.283-.442.566-1.18.283-1.917-.283-.737.283-.884.142-1.621-.142-.737.708-6.191 1.274-8.55.567-2.358.425-10.466-1.7-10.613h.001Z" fill="#D0CDE1"/><path d="M161 136.347s-6.476-4.686-6.967-2.969c-.492 1.718 4.751 5.622 4.751 5.622l2.216-2.653Z" fill="#FFB9B9"/><path d="M179.893 124s-6.974 11.971-7.122 13.681c-.149 1.71-.149 1.853-.742 1.71-.593-.142-8.754-.997-9.496-.712-.742.285-2.225-1.71-2.225-1.71s-2.82 2.707-2.226 3.277c.594.57 2.374.856 2.67 1.568.298.713.743 1.425 2.078 1.283 1.335-.143 10.386 2.28 11.573 1.852 1.187-.427 1.484-1.14 2.077-1.14.594 0 1.78-.57 1.78-.712 0-.143 4.155-7.696 4.155-7.696s4.896-10.26-2.522-11.401Z" fill="#D0CDE1"/><path d="M174.473 118.087c-.08-.594-.369-1.132-.518-1.712a3.71 3.71 0 0 1 .386-2.76c.82-1.389 2.428-2.004 3.55-3.137.024.577.405 1.07.827 1.441.421.371.905.672 1.262 1.112.342.464.592.995.735 1.563.22.658.318 1.354.29 2.05a2.623 2.623 0 0 1-.846 1.822c-.418.347-1.002.545-1.204 1.062-.08.259-.102.533-.067.802.095 1.61.185 3.248-.176 4.815-.361 1.567-1.246 3.082-2.632 3.776 1.14.085 2.302.168 3.408-.134 1.105-.302 2.162-1.062 2.543-2.192.188-.557.206-1.178.473-1.698.676-1.318 2.542-1.378 3.46-2.525.366-.458.544-1.05.675-1.632.775-3.43.23-7.072-.948-10.373-.406-1.138-.912-2.283-1.783-3.083-.742-.68-1.689-1.055-2.625-1.375-1.367-.467-2.775-.85-4.211-.9a5.13 5.13 0 0 0-1.849.227c-.59.224-1.14.553-1.626.973-2.25 1.838-3.782 4.776-3.579 7.761.123 1.807.852 3.516 1.789 5.037.327.532 1.101 1.666 1.82 1.332.653-.304.932-1.61.846-2.252Z" fill="#26344A"/><path d="M82 138h7.37v-8H82v8Zm37-8h-7.37v8H119v-8Zm-22.185 8h7.37v-8h-7.37v8Z" fill="#009DAB"/><ellipse fill="#26344A" cx="39" cy="104" rx="6" ry="5"/><path d="M39.47 137.463s5.288.312 6.228-.312c.94-.624 4.935.832 5.287 1.665.353.832-5.64.936-6.58.936C43.465 139.752 39 141 39 141l.47-3.537Z" fill="#A0616A"/><path d="M28.64 195.516s-2.607 6.316-1.247 7.078c1.36.762 15.643.218 15.643.218s2.38-1.416-.34-2.396c0 0-2.267-.109-3.74-.98-1.474-.871-3.175-2.504-3.175-2.504s-.113-2.396-1.02-1.852a2.232 2.232 0 0 0-1.02 1.525l-5.101-1.089Z" fill="#26344A"/><path d="M28.64 195.516s-2.607 6.316-1.247 7.078c1.36.762 15.643.218 15.643.218s2.38-1.416-.34-2.396c0 0-2.267-.109-3.74-.98-1.474-.871-3.175-2.504-3.175-2.504s-.113-2.396-1.02-1.852a2.232 2.232 0 0 0-1.02 1.525l-5.101-1.089Z" fill="#000" opacity=".1"/><path fill="#009DAB" d="M72 154.394 53.345 136l18.636-18.394L66.299 112 42 136l24.318 24z"/><path d="M23.833 198.58s-2.914 7.106-1.394 7.963c1.52.858 17.484.245 17.484.245s2.66-1.592-.38-2.695c0 0-2.534-.122-4.181-1.102-1.647-.98-3.548-2.818-3.548-2.818s-.126-2.695-1.14-2.082a2.51 2.51 0 0 0-1.14 1.715l-5.701-1.225v-.001ZM39 151.174l-1.707 16s-.61 7.619-2.44 9.27c0 0 0 2.412-.61 3.174l-.853 10.031s1.22 3.683 1.098 4.318c-.122.634.488 2.666.366 2.92s-5.854 0-5.854 0l1.22-20.444L34 148l5 3.174Z" fill="#26344A"/><path d="m39 151.174-1.707 16s-.61 7.619-2.44 9.27c0 0 0 2.412-.61 3.174l-.853 10.031s1.22 3.683 1.098 4.318c-.122.634.488 2.666.366 2.92s-5.854 0-5.854 0l1.22-20.444L34 148l5 3.174Z" fill="#000" opacity=".1"/><path d="M36 151.272s-1.312 12.961-1.909 15.73a37.579 37.579 0 0 0-.715 5.537s-.12 4.027-1.193 5.16a3.504 3.504 0 0 0-.955 2.516s-1.073 12.71-.477 14.22c.597 1.51 1.193 2.768.597 3.775-.597 1.007-7.158 1.007-7.158.252 0-.755 0-1.384-.357-1.762-.358-.377 0-2.768 0-2.768s-1.432-11.2-.12-14.472c1.312-3.272 1.909-12.206 1.909-12.206s-.954-10.194-2.147-11.83c-1.193-1.635.238-7.424.238-7.424L36 151.272Z" fill="#26344A"/><path d="M31 111.503c.163.323.553.502.907.672 2.057.985 3.778 2.413 5.474 3.825a4.911 4.911 0 0 1 .254-3.778c.203-.408.468-.846.324-1.272-.107-.313-.414-.54-.71-.74a23.023 23.023 0 0 0-2.166-1.284c-.525-.273-1.603-.999-2.205-.92-.031.707-.048 1.34-.404 2-.084.157-1.412 1.62-1.474 1.497Z" fill="#A0616A"/><circle fill="#A0616A" cx="39" cy="107" r="5"/><path d="M39.314 119.231s.88-4.425-1.632-5.942c-2.511-1.517-5.399-3.287-5.399-3.287s-.879-.127-1.255 1.77c0 0-7.157 1.39-7.91 8.218-.754 6.827.502 16.815.502 16.815s-1.13 8.724-2.511 13.402c0 0-1.13 1.012 3.892-.506C30.023 148.184 38.812 154 38.812 154s.879-.885.879-1.517c0-.632 1.004-4.299 1.004-4.299s.88-15.551 1.256-17.321c.377-1.77-1.507-11.379-2.637-11.632Z" fill="#575A89"/><path d="M37.406 107.961a2.08 2.08 0 0 1 .97-.257c.34-.005.672-.103.96-.284.467-.356.5-1.045.843-1.522.494-.69 1.482-.774 2.334-.739.52.021 1.082.052 1.52-.228.451-.288.655-.83.807-1.34.18-.604.296-1.342-.15-1.79-.308-.31-.796-.372-1.14-.645-.355-.283-.502-.743-.696-1.154-.22-.5-.568-.933-1.01-1.257-.647-.448-1.475-.548-2.264-.54-.788.009-1.58.112-2.363.015-.641-.078-1.28-.29-1.92-.196-.815.12-1.489.73-1.89 1.445-.401.715-.574 1.53-.74 2.332l-.455 2.18c-.14.676-.282 1.37-.173 2.053.225 1.413 1.483 2.537 1.57 3.966a2.438 2.438 0 0 1 1.494-1.767.466.466 0 0 1 .305-.037c.125.04.198.164.277.268.207.273.856.687 1.224.494.329-.174.083-.718.497-.997Z" fill="#26344A"/><path d="M23.095 131.428s-.897 6.09 2.82 5.536c0 0 1.921-.276 2.178 0 .256.277 9.738-1.522 11.02-3.044 0 0 1.537-.554 2.306.276.77.83 8.458 1.661 6.151-.83-2.307-2.491-5.894-3.045-5.894-3.045l-4.87.277s-2.563.83-4.1 0c-1.538-.83-5.895-.554-5.895-.554l-3.716 1.384Z" fill="#A0616A"/><path d="M27.911 115S22 115.62 22 123.693V134s3.284-1.366 3.941-1.242c.657.124 3.284-1.614 3.284-1.614s3.022-6.706 2.759-8.569c-.263-1.863-.132-7.327-4.073-7.575Z" fill="#575A89"/><ellipse fill="#26344A" cx="39" cy="104" rx="5" ry="3"/><ellipse fill="#26344A" cx="34.5" cy="105" rx="1.5" ry="4"/></g></svg>