<svg xmlns="http://www.w3.org/2000/svg" xmlns:xlink="http://www.w3.org/1999/xlink" viewBox="0 0 225.7 56.2" style="enable-background:new 0 0 225.7 56.2" xml:space="preserve"><style>.st2{clip-path:url(#SVGID_4_)}</style><switch><g><g id="logo"><g id="Layer_4"><defs><path id="SVGID_1_" d="M169.3 49.5c0 4.9-4 8.9-8.9 8.9-.8 0-1.5-.1-2.2-.3-.9-.2-.3 3.6-1.1 3.1C154.6 59.6 264 74.9 264 71.7c0-2.7 1.4-91.4 3.3-93 .1-.1-104.2-7.3-108.1-1.4-8.3 12.8-3.2 64.3-2.6 64.1 1.1-.5 2.4-.8 3.8-.8 4.9 0 8.9 4 8.9 8.9z"/></defs><clipPath id="SVGID_2_"><use xlink:href="#SVGID_1_" style="overflow:visible"/></clipPath><path d="M213.7 56.2H170c-6.6 0-12-5.4-12-12V12.4c0-6.6 5.4-12 12-12h43.8c6.6 0 12 5.4 12 12v31.8c-.1 6.6-5.4 12-12.1 12z" style="clip-path:url(#SVGID_2_);fill:#2e2a25"/></g><path d="M200.4 12.6v31.3h-9.1v-1.8c-2.4 1.6-5.4 2.5-8.9 2.5-8.6 0-15.6-7.2-15.6-16.3 0-9.2 7-16.3 15.6-16.3 3.5 0 6.5.9 8.9 2.5v-1.8h9.1zm-9.1 20.7v-10c-2-2.7-4.7-3.7-7.4-3.7-4.8 0-8.1 4.1-8.1 8.7s3.3 8.6 8.1 8.6c2.7 0 5.4-.9 7.4-3.6zm24.3-20.7v31.3h-9.1V12.6h9.1z" style="fill:#fff"/><defs><path id="SVGID_3_" d="M38.1 11.6h41.1v47H38.1z"/></defs><clipPath id="SVGID_4_"><use xlink:href="#SVGID_3_" style="overflow:visible"/></clipPath><g class="st2"><defs><path id="SVGID_5_" d="M-21-8.1h196.1v85.7H-21z"/></defs><clipPath id="SVGID_6_"><use xlink:href="#SVGID_5_" style="overflow:visible"/></clipPath><g style="clip-path:url(#SVGID_6_)"><defs><path id="SVGID_7_" d="M-21-7.5h196v85.1H-21z"/></defs><clipPath id="SVGID_8_"><use xlink:href="#SVGID_7_" style="overflow:visible"/></clipPath><path d="M78.4 28.6c-3.5-10.8-15.1-16.8-25.9-13.3-10.8 3.5-16.8 15.1-13.3 25.9 3.4 10.9 15 16.8 25.9 13.4 10.8-3.5 16.7-15.1 13.3-26m-29.5 9.5c-1.8-5.4 1.2-11.3 6.7-13 5.4-1.8 11.3 1.2 13 6.7 1.8 5.4-1.2 11.3-6.7 13-5.4 1.7-11.3-1.3-13-6.7" style="clip-path:url(#SVGID_8_);fill:#4a9da6"/></g></g><g class="st2"><defs><path id="SVGID_9_" d="M68 39.7c-5.2 10.2-22 12.9-28.8 1.6 3.4 10.8 15 16.7 25.9 13.3 10.8-3.5 16.8-15.1 13.3-25.9L68 39.7z"/></defs><clipPath id="SVGID_10_"><use xlink:href="#SVGID_9_" style="overflow:visible"/></clipPath><g style="clip-path:url(#SVGID_10_)"><defs><path id="SVGID_11_" d="M-21-7.5h196v85.1H-21z"/></defs><clipPath id="SVGID_12_"><use xlink:href="#SVGID_11_" style="overflow:visible"/></clipPath><linearGradient id="SVGID_13_" gradientUnits="userSpaceOnUse" x1="30.529" y1="52.232" x2="111.704" y2="-28.942" gradientTransform="rotate(90 35.176 0)"><stop offset=".36" style="stop-color:#63d0df;stop-opacity:0"/><stop offset=".547" style="stop-color:#63d0df"/></linearGradient><path style="clip-path:url(#SVGID_12_);fill:url(#SVGID_13_)" d="m5.7 76 82.7.4-1.3-81.3H5.7z"/></g></g><g class="st2"><defs><path id="SVGID_14_" d="M52.4 15.3c-10.8 3.5-16.8 15.1-13.3 25.9l10.4-11c5.2-10.2 22-12.9 28.8-1.6-2.8-8.7-10.9-14.3-19.6-14.3-2 0-4.2.3-6.3 1"/></defs><clipPath id="SVGID_15_"><use xlink:href="#SVGID_14_" style="overflow:visible"/></clipPath><g style="clip-path:url(#SVGID_15_)"><defs><path id="SVGID_16_" d="M-21-7.5h196v85.1H-21z"/></defs><clipPath id="SVGID_17_"><use xlink:href="#SVGID_16_" style="overflow:visible"/></clipPath><linearGradient id="SVGID_18_" gradientUnits="userSpaceOnUse" x1="29.638" y1="76.98" x2="112.623" y2="-6.005"><stop offset=".36" style="stop-color:#63d0df;stop-opacity:0"/><stop offset=".547" style="stop-color:#63d0df"/></linearGradient><path style="clip-path:url(#SVGID_17_);fill:url(#SVGID_18_)" d="m111.1-7.5.5 86.4-81.4-1.3V-7.5z"/></g></g><path d="M94.3 20.9c3.3-3.1 7.5-4.8 13-4.8v10.2c-5.8.2-9.9 1.9-13 5.3v22.1H83.5v-37h10.7v4.2zM146.9 38h-27.3c.9 4.3 3.7 7.7 9.6 7.7 3 0 5.1-.9 6.3-2.8h11.2c-2 7.1-9 12-17.7 12-11.9 0-19.9-8.6-19.9-19.6 0-11.4 8-19.7 19.6-19.7 10.6 0 18.5 7.5 18.5 18.9-.1 1.5-.2 2.4-.3 3.5zm-27.3-6.4h16.8c-.6-4.6-3.4-7.2-7.7-7.2-5.2 0-8 3.1-9.1 7.2zm34.3 17.7c0-3.7 2.9-6.5 6.5-6.5s6.5 2.8 6.5 6.5c0 3.8-2.9 6.5-6.5 6.5-3.5.1-6.5-2.7-6.5-6.5zM11.4 46.2v8.1H0V2.1h11.4v29.3L26.6 15h14.2L25.5 31.3l17 23H28.2L17.8 39.6l-6.4 6.6z" style="fill:#2e2a25"/></g></g></switch></svg>