<svg xmlns="http://www.w3.org/2000/svg" width="16" height="16"><g fill="none" fill-rule="evenodd"><path d="M0 0h16v16H0z"/><path fill="#26344A" d="M11.806 2a1.3 1.3 0 0 1 1.3 1.3v9.4a1.3 1.3 0 0 1-1.3 1.3H3.967a1.3 1.3 0 0 1-1.3-1.3V3.3a1.3 1.3 0 0 1 1.3-1.3zm0 1.033H3.967A.267.267 0 0 0 3.7 3.3v9.4c0 .148.12.267.267.267h7.839c.148 0 .267-.12.267-.267V3.3a.267.267 0 0 0-.267-.267zm-1.568 6.806a.516.516 0 0 1 .047 1.031l-.047.002H5.535a.518.518 0 0 1-.047-1.031l.047-.002h4.703zm0-2.352a.516.516 0 0 1 .047 1.031l-.047.002H5.535a.517.517 0 0 1-.047-1.031l.047-.002h4.703zM8.67 5.136a.516.516 0 0 1 .047 1.03l-.047.002H5.535a.516.516 0 0 1-.047-1.03l.047-.002H8.67z"/></g></svg>