<svg width="16" height="13" xmlns="http://www.w3.org/2000/svg"><path d="M15.429 11.071v1.286a.618.618 0 0 1-.191.452.618.618 0 0 1-.452.191H.643a.618.618 0 0 1-.452-.19.618.618 0 0 1-.191-.453v-1.286c0-.174.064-.324.19-.452a.618.618 0 0 1 .453-.19h14.143a.62.62 0 0 1 .452.19.62.62 0 0 1 .19.452Zm0-5.142v1.285a.618.618 0 0 1-.191.452.618.618 0 0 1-.452.191H.643a.618.618 0 0 1-.452-.19A.618.618 0 0 1 0 7.213V5.93a.62.62 0 0 1 .19-.452.618.618 0 0 1 .453-.191h14.143a.62.62 0 0 1 .452.19.62.62 0 0 1 .19.453Zm0-5.143V2.07a.618.618 0 0 1-.191.452.618.618 0 0 1-.452.191H.643a.618.618 0 0 1-.452-.19A.618.618 0 0 1 0 2.07V.786A.62.62 0 0 1 .19.334.618.618 0 0 1 .644.143h14.143a.62.62 0 0 1 .452.19c.127.128.19.279.19.453Z" fill="#8A959F" fill-rule="evenodd"/></svg>