<svg xmlns="http://www.w3.org/2000/svg" xmlns:xlink="http://www.w3.org/1999/xlink" width="400" height="189"><defs><path id="a" d="M6.088 11.87s11.8 3.533 28.324-1.768c16.524-5.3 50.748 7.655 50.748 7.655s27.143 0 67.27-17.078c0 0-18.292 17.668-5.31 28.27C160.1 39.55 148.3 54.86 132.957 60.75c-15.343 5.89-16.521 17.668-15.343 28.859 1.179 11.19 0 .589 0 .589s-46.026-8.245-57.83 20.03L1.368 18.348s-3.54-7.066 4.72-6.48z"/><path id="c" d="M17.124 11.2c2.808 0 3.826.292 4.853.841a5.734 5.734 0 0 1 2.382 2.382c.549 1.027.841 2.045.841 4.853v14.648c0 2.808-.292 3.826-.841 4.853a5.734 5.734 0 0 1-2.382 2.382c-1.027.549-2.045.841-4.853.841H8.076c-2.808 0-3.826-.292-4.853-.841a5.734 5.734 0 0 1-2.382-2.382C.292 37.75 0 36.732 0 33.924V19.276c0-2.808.292-3.826.841-4.853a5.734 5.734 0 0 1 2.382-2.382c1.027-.549 2.045-.841 4.853-.841h9.048zm51.196 0c2.808 0 3.827.292 4.853.841a5.728 5.728 0 0 1 2.382 2.382c.549 1.027.841 2.045.841 4.853v14.648c0 2.808-.292 3.826-.841 4.853a5.734 5.734 0 0 1-2.382 2.382c-1.026.549-2.045.841-4.853.841h-9.047c-2.809 0-3.827-.292-4.854-.841a5.731 5.731 0 0 1-2.381-2.382c-.55-1.027-.842-2.045-.842-4.853V19.276c0-2.808.293-3.826.842-4.853a5.731 5.731 0 0 1 2.381-2.382c1.027-.549 2.045-.841 4.854-.841h9.047z"/><path id="d" d="M0 44.98c0-.011.007.092 0 .505.092.24.202.756.503 1.516.415 1.544 1.397 3.313 3.015 5.053 4.873 5.256 14.16 8.592 29.152 8.592 14.991 0 24.278-3.336 29.15-8.592 1.619-1.74 2.6-3.509 3.016-5.053.301-.76.41-1.276.503-1.516-.007-.413 0-.516 0-.506V25.27c0 .053-.014-.253 0-.505-.131-1.07-.266-2.03-.503-3.033-.596-3.027-1.705-6.02-3.518-8.591C56.434 4.883 47.373 0 32.67 0 17.966 0 8.904 4.883 4.02 13.14 2.21 15.712 1.1 18.704.504 21.731.266 22.735.13 23.694 0 24.764c.014.229 0 .668 0 .505v19.71z"/><path id="f" d="M0 1.123c0 5.843 3.254 8.985 10.052 8.985 6.795 0 10.052-3.204 10.052-8.985C20.104.756 19.69 0 18.596 0H1.508C.477 0 0 .7 0 1.123z"/></defs><g fill="none" fill-rule="evenodd"><rect width="37.477" height="15.135" x="214.775" y="148.468" fill="#EDEFF2" fill-rule="nonzero" opacity=".1" rx="3.536" transform="rotate(-180 233.514 156.036)"/><g fill-rule="nonzero" opacity=".7" transform="translate(0 28.108)"><path fill="#009688" d="M130.198 40.465zm1.721 2.825a3.264 3.264 0 0 1 0-.001zm-.711-.501zm-.973-1.849a3.293 3.293 0 0 0 .001 0zM94.44 59.739a.701.701 0 0 1-.137-.161.808.808 0 0 1-.09-.265c-.01.218-.01.438 0 .656.097.305.147.622.148.942.002-.312.05-.621.142-.919a1.338 1.338 0 0 1-.067-.221s.003-.02.003-.032z"/><path fill="#8A959F" d="M138.219 0h-30.88a3.193 3.193 0 0 0-3.198 3.187A3.192 3.192 0 0 0 100.944 0h-30.88a3.193 3.193 0 0 0-3.198 3.187v8.414a3.19 3.19 0 0 0 2.225 3.034H45.15a3.202 3.202 0 0 0-2.26.937c-.6.599-.936 1.41-.934 2.256v8.414c0 1.044.514 2.022 1.375 2.617H21.568a3.193 3.193 0 0 0-3.198 3.187v8.413a3.194 3.194 0 0 0 3.198 3.188h22.61a3.19 3.19 0 0 0-2.221 3.043v8.413c0 1.045.514 2.023 1.375 2.618H23.018a3.193 3.193 0 0 0-3.198 3.187v8.413a3.193 3.193 0 0 0 3.198 3.187h21.16a3.192 3.192 0 0 0-2.221 3.044v8.413a3.192 3.192 0 0 0 3.197 3.187H63.54a3.183 3.183 0 0 0-1.375 2.618v8.413a3.193 3.193 0 0 0 3.189 3.19H40.389a3.193 3.193 0 0 0-3.198 3.187v8.414a3.193 3.193 0 0 0 3.198 3.187h30.877a3.193 3.193 0 0 0 3.197-3.187 3.193 3.193 0 0 0 3.197 3.187h30.883a3.193 3.193 0 0 0 3.198-3.187v-8.41a3.188 3.188 0 0 0-1.733-2.828h-6.65c-.513 0-1.02-.123-1.475-.36h-5.644c.848 0 1.662-.336 2.262-.935.6-.598.936-1.41.935-2.255 0 1.387.725-8.062.725-8.062a3.194 3.194 0 0 1 3.198-3.188l11.77-.36a3.23 3.23 0 0 0 .846-.863 3.157 3.157 0 0 1-.254-1.236v-8.416c0-.623.183-1.233.528-1.753a3.2 3.2 0 0 0-1.213-1.44H98.281a3.185 3.185 0 0 1-1.733-.512h-4.405a3.192 3.192 0 0 0 2.227-3.038l-.113-8.35c0-.377-.02-.708-.034-1.005a3.196 3.196 0 0 0-1.228-1.675h2.75l-.06.046c1.559-.09 19.372-1.132 20.822-2.304a2.45 2.45 0 0 1-.02-.668 3.128 3.128 0 0 1-.041-.483v-8.4c0-.103 0-.206.014-.307a3.198 3.198 0 0 0-2.183-2.52h3.893a3.2 3.2 0 0 1 1.476-.36h8.83a3.18 3.18 0 0 0 1.733-2.827V32.05a3.182 3.182 0 0 0-1.375-2.617l-9.18-.576c-1.553 0-2.584-.576-1.764 0h-2.75a3.18 3.18 0 0 0 1.375-2.591 3.28 3.28 0 0 1-.058-.576v-8.45a3.196 3.196 0 0 0-2.169-2.448h3.345a3.184 3.184 0 0 1 2.022-.723h20.597a3.164 3.164 0 0 0 1.176-2.467V3.19a3.198 3.198 0 0 0-3.21-3.191zM57.023 29.432a3.182 3.182 0 0 0-1.375 2.617 3.182 3.182 0 0 0-1.375-2.617h2.75zm-1.375 11.033c0 1.388.9 2.616 2.227 3.038H53.42a3.191 3.191 0 0 0 2.224-3.038h.003zm2.822 17.829a3.18 3.18 0 0 0-1.375 2.617 3.18 3.18 0 0 0-1.375-2.617h2.75zm-3.602 14.068a3.192 3.192 0 0 0 2.227-3.038 3.19 3.19 0 0 0 2.227 3.038h-4.454zm39.43-42.93a3.182 3.182 0 0 0-1.375 2.617 3.182 3.182 0 0 0-1.375-2.617h2.75zm-19.832 75.131a3.193 3.193 0 0 0-3.198-3.187h6.398c-.848 0-1.662.335-2.263.932-.6.598-.937 1.41-.937 2.255zm3.388-17.98a3.185 3.185 0 0 0 1.375-2.618c0 1.044.514 2.022 1.375 2.617h-2.75zm1.363-11.031a3.191 3.191 0 0 0-2.215-3.044h4.454a3.193 3.193 0 0 0-2.239 3.044zm-1.375-17.829a3.177 3.177 0 0 0 1.375-2.617 3.18 3.18 0 0 0 1.375 2.617h-2.75zm1.375-11.033c0-1.387-.9-2.615-2.227-3.038h4.454a3.193 3.193 0 0 0-2.227 3.038zm-1.375-17.828a3.18 3.18 0 0 0 1.375-2.618c0 1.045.514 2.023 1.375 2.618h-2.75zm1.375-11.034c0-1.387-.9-2.615-2.227-3.037h4.454a3.192 3.192 0 0 0-2.227 3.037zM90.684 43.5a3.19 3.19 0 0 0 2.227-3.038 3.19 3.19 0 0 0 2.227 3.038h-4.454zm11.23-28.865a3.19 3.19 0 0 0 2.227-3.037 3.19 3.19 0 0 0 2.227 3.037h-4.454z" opacity=".3"/><path fill="#009688" d="m131.249 29.69.046-.04-.046.04zm-.211.205-.046.052.046-.052zm-.268.34.023-.032-.024.032zm-.428 11.149zm.335.756zm-.191-.359a3.218 3.218 0 0 0 .001 0zm-.199-10.461c0-.04.02-.077.029-.115-.012.038-.02.075-.029.116zm.107-.36c0-.031.023-.063.035-.094l-.035.095zm-.174.72c0-.037 0-.074.018-.109l-.017.11z"/><rect width="37.275" height="14.791" x="67.228" y=".003" fill="#E5E8EC" opacity=".1" rx="3.536" transform="rotate(-180 85.865 7.398)"/><rect width="37.275" height="14.791" x="79.168" y="14.434" fill="#E5E8EC" opacity=".1" rx="3.536" transform="rotate(-180 97.806 21.83)"/><rect width="37.275" height="14.791" x="56.006" y="28.862" fill="#E5E8EC" opacity=".1" rx="3.536" transform="rotate(-180 74.643 36.257)"/><rect width="37.275" height="14.791" x="41.893" y="43.652" fill="#E5E8EC" opacity=".1" rx="3.536" transform="rotate(-180 60.53 51.048)"/><rect width="37.275" height="14.791" x="57.092" y="58.083" fill="#E5E8EC" opacity=".1" rx="3.536" transform="rotate(-180 75.73 65.479)"/><rect width="37.275" height="14.791" x="41.893" y="72.514" fill="#E5E8EC" opacity=".1" rx="3.536" transform="rotate(-180 60.53 79.91)"/><rect width="37.275" height="14.791" x="25.031" y="86.959" fill="#E5E8EC" opacity=".1" rx="3.536" transform="rotate(-180 43.668 94.355)"/><rect width="37.275" height="14.791" y="101.408" fill="#E5E8EC" opacity=".1" rx="3.536" transform="rotate(-180 18.637 108.803)"/><rect width="37.275" height="14.791" x="5.003" y="72.249" fill="#E5E8EC" opacity=".1" rx="3.536" transform="rotate(-180 23.64 79.645)"/><rect width="37.275" height="14.791" x="5.003" y="43.621" fill="#E5E8EC" opacity=".1" rx="3.536" transform="rotate(-180 23.64 51.016)"/><rect width="37.275" height="14.791" x="6.323" y="14.465" fill="#E5E8EC" opacity=".2" rx="3.536" transform="rotate(-180 24.96 21.86)"/><rect width="37.275" height="14.791" x="30.036" y=".02" fill="#E5E8EC" opacity=".1" rx="3.536" transform="rotate(-180 48.674 7.416)"/><rect width="37.275" height="14.791" x="62.522" y="86.942" fill="#E5E8EC" opacity=".1" rx="3.536" transform="rotate(-180 81.16 94.338)"/><rect width="37.275" height="14.791" x="37.191" y="101.376" fill="#E5E8EC" opacity=".1" rx="3.536" transform="rotate(-180 55.828 108.771)"/></g><g fill-rule="nonzero" opacity=".7" transform="matrix(1 0 0 -1 270.27 145.586)"><path fill="#8A959F" d="M115.03 87.008H96.662a3.203 3.203 0 0 0 1.374-2.63v-8.455c0-1.77-1.43-3.203-3.195-3.203H73.71a3.205 3.205 0 0 0 2.225-3.053V61.21c0-1.05-.513-2.032-1.373-2.63h20.29a3.198 3.198 0 0 0 3.194-3.203v-8.458a3.198 3.198 0 0 0-3.194-3.203H72.267a3.204 3.204 0 0 0 2.224-3.052v-8.458a3.2 3.2 0 0 0-1.373-2.63h21.736a3.199 3.199 0 0 0 3.194-3.204v-8.457a3.206 3.206 0 0 0-.938-2.274 3.193 3.193 0 0 0-2.27-.935H83.462a3.205 3.205 0 0 0 2.225-3.053v-8.45A3.198 3.198 0 0 0 82.493 0H51.644a3.198 3.198 0 0 0-3.194 3.203c0-.85-.337-1.664-.936-2.265A3.191 3.191 0 0 0 45.256 0H14.404a3.194 3.194 0 0 0-2.885 1.855c.04.206.06.415.06.625v8.463c.003.464-.095.924-.288 1.346.143.73.536 1.387 1.11 1.857h7.924c.737 0 1.451.257 2.02.727h3.463a3.205 3.205 0 0 0-2.225 3.052 3.279 3.279 0 0 0-.08-.616v8.49c-.002.27-.037.537-.105.798.052.054.098.113.139.177.017-.134.025-.268.026-.403.002.186.02.37.055.553.042.102.067.21.072.321a3.208 3.208 0 0 0 1.25 1.757h-2.748l.07-.055c-.255 0-.514-.02-.768-.023a.72.72 0 0 1-.266-.055c-.297.09-.606.135-.917.136l-18.932.578a3.202 3.202 0 0 0-1.373 2.63v8.455c0 1.395.9 2.629 2.224 3.053l18.08.15c.319 0 .635.048.939.142.201.018.401.052.597.104h.046a3.234 3.234 0 0 0-.551-.237h4.45a3.204 3.204 0 0 0-2.225 3.053 3.15 3.15 0 0 0-.05-.556.627.627 0 0 1-.069.087c.04.204.06.411.06.62v8.454c0 .394.059.29.059-.15 0 1.05.513 2.032 1.373 2.63l11.28.362c.386 0 .77.072 1.13.21h2.716c-.486.341-.869.81-1.105 1.355a3.2 3.2 0 0 1 .453 1.638v8.446c0 .441-.092.878-.269 1.282.4.67 1.028 1.17 1.77 1.409h-2.967a3.17 3.17 0 0 1-1.731.515H25.023a3.198 3.198 0 0 0-1.463 2.69c0-1.128-.419 10-.419 10 0 .999 17.411 1.448 17.411 1.448.443 0 .88.092 1.284.272.182-.039.369-.055.554-.047h-.017 2.747a3.202 3.202 0 0 0-1.373 2.63 3.336 3.336 0 0 0-.035-.457.877.877 0 0 1-.05.102c.056.235.084.476.085.717v8.102a3.198 3.198 0 0 0 3.194 3.203h-4.905a3.175 3.175 0 0 1-1.475.362H20.524a3.202 3.202 0 0 0-1.73 2.841v8.455c0 .85.336 1.664.935 2.265.599.6 1.411.938 2.258.938h30.857c.848 0 1.66-.337 2.26-.938a3.21 3.21 0 0 0 .935-2.265 3.195 3.195 0 0 0 3.194 3.203H90.08c.848 0 1.66-.337 2.26-.938a3.21 3.21 0 0 0 .935-2.265v-8.475c0-1.77-1.43-3.203-3.195-3.203h24.945c.847 0 1.66-.338 2.259-.938a3.21 3.21 0 0 0 .936-2.265v-8.446a3.212 3.212 0 0 0-.93-2.274 3.194 3.194 0 0 0-2.262-.944zM38.612 29.575a3.2 3.2 0 0 0-1.373 2.63 3.2 3.2 0 0 0-1.374-2.63h2.747zm-3.598 14.14a3.205 3.205 0 0 0 2.225-3.052c0 1.394.9 2.628 2.225 3.052h-4.45zm11.207-29.01a3.205 3.205 0 0 0 2.225-3.053c0 1.395.9 2.629 2.225 3.053h-4.45zm9.81 90.367c0-.85-.336-1.664-.935-2.265a3.191 3.191 0 0 0-2.258-.938h6.391c-.848 0-1.66.34-2.259.941a3.209 3.209 0 0 0-.932 2.268l-.006-.006zm3.386-18.07a3.202 3.202 0 0 0 1.373-2.63 3.2 3.2 0 0 0 1.374 2.63h-2.747zm1.373-11.088c0-1.39-.896-2.623-2.216-3.05h4.458a3.207 3.207 0 0 0-2.236 3.059l-.006-.009zm-1.373-17.916a3.203 3.203 0 0 0 1.373-2.63c0 1.049.513 2.032 1.374 2.63h-2.747zM60.79 46.91c0-1.395-.9-2.629-2.225-3.053h4.467a3.204 3.204 0 0 0-2.236 3.061l-.006-.008zm-1.373-17.917a3.202 3.202 0 0 0 1.373-2.63 3.2 3.2 0 0 0 1.374 2.63h-2.747zm1.373-11.088c0-1.394-.9-2.628-2.225-3.053h4.467a3.205 3.205 0 0 0-2.236 3.062l-.006-.009zm21.575 69.676a3.203 3.203 0 0 0-1.374 2.63c0-1.05-.513-2.032-1.373-2.63h2.747zm-4.57 14.29a3.192 3.192 0 0 0 3.193-3.202c0 .85.337 1.664.936 2.265.599.6 1.411.938 2.259.938h-6.389z" opacity=".3"/><rect width="37.237" height="14.864" x="11.21" fill="#E5E8EC" opacity=".1" rx="3.536" transform="rotate(-180 29.829 7.432)"/><rect width="37.237" height="14.864" x="60.742" y="14.502" fill="#E5E8EC" opacity=".1" rx="3.536" transform="rotate(-180 79.36 21.934)"/><rect width="37.237" height="14.864" y="29.002" fill="#E5E8EC" opacity=".1" rx="3.536" transform="rotate(-180 18.618 36.434)"/><rect width="37.237" height="14.864" x="60.742" y="43.866" fill="#E5E8EC" opacity=".1" rx="3.536" transform="rotate(-180 79.36 51.298)"/><rect width="37.237" height="14.864" x="60.742" y="72.87" fill="#E5E8EC" opacity=".1" rx="3.536" transform="rotate(-180 79.36 80.302)"/><path fill="#E5E8EC" d="M78.66 87.373H46.076a2.327 2.327 0 0 0-2.233 1.678c.009.132 0 .264-.026.393-.017.076-.04.15-.067.223v10.238a2.33 2.33 0 0 0 2.326 2.332h32.586a2.33 2.33 0 0 0 2.325-2.333v-10.2a2.328 2.328 0 0 0-2.325-2.331z" opacity=".1"/><rect width="37.237" height="14.864" x="18.802" y="101.875" fill="#E5E8EC" opacity=".1" rx="3.536" transform="rotate(-180 37.42 109.307)"/><rect width="37.237" height="14.864" x="75.126" y="58.353" fill="#E5E8EC" opacity=".1" rx="3.536" transform="rotate(-180 93.745 65.785)"/><rect width="37.237" height="14.864" x="73.548" y="29.054" fill="#E5E8EC" opacity=".1" rx="3.536" transform="rotate(-180 92.166 36.486)"/><rect width="37.237" height="14.864" x="92.237" y="101.643" fill="#E5E8EC" opacity=".1" rx="3.536" transform="rotate(-180 110.855 109.075)"/></g><rect width="26.667" height="15.135" x="154.955" y="142.703" fill="#EDEFF2" fill-rule="nonzero" opacity=".1" rx="3.536" transform="rotate(-180 168.288 150.27)"/><g transform="translate(129.73)"><g transform="translate(62.089 57.7)"><mask id="b" fill="#fff"><use xlink:href="#a"/></mask><use fill="#009DAB" fill-rule="nonzero" xlink:href="#a"/><path fill="#000" fill-rule="nonzero" d="M-23.674-5.482 120.437 96.86l8.681-25.156z" mask="url(#b)" opacity=".1"/></g><path fill="#000" fill-rule="nonzero" d="M71.908 77.796s11.795 3.494 28.311-1.747c16.516-5.242 50.718 7.572 50.718 7.572s21.948 0 55.544-12.289c2.656-6.936 8.744-12.753 8.744-12.753-40.117 16.887-67.239 16.887-67.239 16.887s-34.209-12.811-50.722-7.57c-16.513 5.242-28.31 1.748-28.31 1.748-8.257-.582-4.72 6.407-4.72 6.407l2.429 3.779c.506-1.274 1.917-2.268 5.245-2.034zm137.1 31.727c-3.222 3.324-7.876 6.3-13.961 8.928-10.45-6.656-25.978-14.71-46.585-24.163l60.547 15.235z" opacity=".1"/><path fill="#009688" fill-rule="nonzero" d="M.824 6.444a.3.3 0 0 0 .022.137l-.022-.137zm-.097-.458c0 .046.025.097.036.144a1.893 1.893 0 0 0-.036-.144zm.047 12.472c0 .08-.04.159-.062.235a2.25 2.25 0 0 0 .062-.235zm.065-.378c0 .082-.022.169-.04.252.018-.083.032-.17.04-.253zm23.368 78.689zm-1.987-2.403zm.894.635zm-.44-.35zm1.328 1.584zm.313 1.028zm.058.647zM.875 17.589c0 .126 0 .252-.018.36.01-.111.018-.234.018-.36z"/><path fill="#8A959F" fill-rule="nonzero" d="M66.39 60.654h14.554v8.493H66.39z"/><use fill="#A6B1BC" xlink:href="#c" transform="translate(34.595 4.227)"/><g transform="translate(40.124 .615)"><mask id="e" fill="#fff"><use xlink:href="#d"/></mask><use fill="#8A959F" transform="matrix(1 0 0 -1 0 60.646)" xlink:href="#d"/><g mask="url(#e)"><g transform="translate(19.611 10.52)"><circle cx="13.333" cy="13.333" r="12.973" fill="#FFF" opacity=".5"/><circle cx="13.333" cy="13.333" r="7.928" fill="#26344A"/></g></g></g><use fill="#26344A" xlink:href="#f" transform="translate(62.741 43.648)"/><path fill="#8A959F" fill-rule="nonzero" d="M43.349 66.719h60.638v48.527H43.349z"/><ellipse cx="73.596" cy="178.397" fill="#E5E8EC" fill-rule="nonzero" opacity=".1" rx="59.099" ry="10.09"/><rect width="63.066" height="6.065" x="42.138" y="114.862" fill="#465366" fill-rule="nonzero" rx="3.032"/><rect width="23.044" height="8.493" x="43.243" y="172.037" fill="#A6B1BC" fill-rule="nonzero" rx="4.247"/><path fill="#8A959F" fill-rule="nonzero" d="M53.333 147.231v25.382h10.915v-51.892H53.333v17.55zm28.829-8.96v34.342H93.08v-51.892H82.162z"/><rect width="23.044" height="8.493" x="80.721" y="172.037" fill="#A6B1BC" fill-rule="nonzero" rx="4.247"/><path fill="#A6B1BC" fill-rule="nonzero" d="M43.738 77.637v11.22c-6.667-.668-12.271 1.865-14.547 3.88a19.058 19.058 0 0 0-4.808 7.05c-1.403 3.398-2.085 7.176-2.363 10.747a61.502 61.502 0 0 0 .671 14.432c-2.862 1.429-5.008 2.143-6.44 2.143-1.262 0-3.157-.714-5.682-2.143-.516-6.707-.361-12.458.317-17.401.75-5.57 2.135-10.102 3.892-13.79 3.513-7.37 8.512-11.372 12.901-13.544 5.216-2.594 16.06-2.594 16.06-2.594z"/><path fill="#465366" fill-rule="nonzero" d="M53.333 74.234h41.233v31.541H53.333z" opacity=".3"/><g stroke="#FFF" stroke-width="3" opacity=".2" transform="translate(59.82 84.324)"><ellipse cx="3.243" cy="5.405" rx="3.243" ry="4.685"/><ellipse cx="19.099" cy="5.405" rx="3.243" ry="4.685"/><path d="M11.171.389v9.9m15.856-9.9v9.9"/></g><path fill="#A6B1BC" fill-rule="nonzero" d="M103.602 90.09V78.87c3-.52 14.444-1.862 16.725-3.88a19.074 19.074 0 0 0 4.8-7.038c1.403-3.4 2.085-7.177 2.363-10.748.344-4.82.119-9.665-.671-14.432 1.073-1.411 3.11-2.166 6.108-2.264 3-.099 5.005.656 6.018 2.264.516 6.707.36 12.458-.317 17.4-.75 5.572-2.136 10.103-3.892 13.79-3.513 7.372-8.512 11.373-12.902 13.545-5.226 2.583-18.232 2.583-18.232 2.583z"/><path fill="#000" fill-rule="nonzero" d="M66.39 60.654h14.554v1.007H66.39z" opacity=".1"/></g></g></svg>