<svg xmlns="http://www.w3.org/2000/svg" width="16" height="16"><g fill="none" fill-rule="evenodd"><path d="M0 0h16v16H0z"/><path fill="#26344A" d="m7.758 1.118.037.034 1.853 1.851a.52.52 0 0 1 .034.697l-.034.037L7.795 5.59a.52.52 0 0 1-.767-.697l.034-.037.964-.964-.167.004a5.038 5.038 0 0 0-4.821 5.031 5.038 5.038 0 0 0 5.04 5.036 5.038 5.038 0 0 0 5.039-5.036.518.518 0 0 1 1.037 0A6.078 6.078 0 0 1 2 8.926a6.076 6.076 0 0 1 6.03-6.073l-.968-.967a.52.52 0 0 1-.034-.697l.034-.037a.519.519 0 0 1 .696-.034z"/></g></svg>