<svg width="16" height="16" fill="none" xmlns="http://www.w3.org/2000/svg"><path fill="#D8D8D8" fill-opacity=".01" d="M0 0h16v16H0z"/><path fill-rule="evenodd" clip-rule="evenodd" d="M7.298 1.8C4.26 1.8 1.8 4.268 1.8 7.312c0 3.044 2.461 5.512 5.498 5.512a5.467 5.467 0 0 0 3.495-1.257l2.55 2.524.037.034a.53.53 0 0 0 .712-.039.532.532 0 0 0-.005-.751l-2.544-2.52a5.499 5.499 0 0 0 1.252-3.503c0-3.044-2.461-5.512-5.497-5.512Zm0 1.062a4.444 4.444 0 0 1 4.438 4.45 4.444 4.444 0 0 1-4.438 4.45 4.444 4.444 0 0 1-4.438-4.45 4.444 4.444 0 0 1 4.438-4.45Z" fill="#BDC1C6"/></svg>