<svg xmlns="http://www.w3.org/2000/svg" width="16" height="16"><g fill="none" fill-rule="evenodd"><path d="M0 0h16v16H0z"/><path fill="#26344A" d="M9.463.889c.25 0 .467.177.516.424l.081.408.253 1.23.04.019a5.6 5.6 0 0 1 .891.512l.051.037 1.263-.422.407-.126a.524.524 0 0 1 .61.237l.21.359 1.043 1.746.211.363a.526.526 0 0 1-.109.663l-.314.274-.942.802.01.065c.029.186.041.315.044.463V8c0 .173-.012.311-.044.52l-.01.064.947.807.31.27c.19.166.236.444.108.663l-.214.367-1.037 1.737-.212.364a.527.527 0 0 1-.612.238l-.417-.13-1.252-.419-.05.037c-.287.2-.584.371-.892.512l-.04.018-.252 1.228-.082.411a.526.526 0 0 1-.516.424H6.536a.526.526 0 0 1-.516-.425l-.08-.407-.254-1.231-.04-.018a5.6 5.6 0 0 1-.891-.512l-.052-.037-1.261.422-.407.127a.524.524 0 0 1-.612-.239l-.207-.357-1.045-1.748-.21-.363a.527.527 0 0 1 .108-.662l.314-.274.942-.803-.016-.105a3.204 3.204 0 0 1-.038-.419V8c0-.138.01-.269.03-.422l.024-.162-.948-.807-.308-.27a.529.529 0 0 1-.109-.662l.214-.369 1.038-1.736.21-.363a.528.528 0 0 1 .612-.238l.418.13 1.251.418.052-.037c.286-.2.583-.371.891-.512l.04-.018.253-1.227.08-.41a.528.528 0 0 1 .517-.426zM9.03 1.943H6.97l-.308 1.494a.53.53 0 0 1-.283.367l-.045.02a4.636 4.636 0 0 0-1.212.697.525.525 0 0 1-.492.085L3.123 4.1 2.089 5.83l1.147.976a.527.527 0 0 1 .184.439l-.006.05-.044.258a2.683 2.683 0 0 0-.046.446c0 .12.01.225.042.417l.048.29a.526.526 0 0 1-.178.486l-1.147.976 1.034 1.729 1.507-.504a.526.526 0 0 1 .449.055l.043.03c.384.301.788.536 1.212.698.168.064.292.21.328.386l.307 1.494H9.03l.307-1.494a.53.53 0 0 1 .283-.367l.045-.02a4.636 4.636 0 0 0 1.212-.697.525.525 0 0 1 .492-.085l1.507.504 1.033-1.73-1.146-.975a.529.529 0 0 1-.184-.438l.006-.05.054-.323c.02-.131.031-.22.034-.307L12.675 8c0-.114-.01-.213-.036-.382l-.054-.324a.527.527 0 0 1 .178-.487l1.146-.976-1.032-1.73-1.508.505a.526.526 0 0 1-.449-.055l-.043-.03a4.668 4.668 0 0 0-1.212-.698.527.527 0 0 1-.328-.386L9.03 1.943zM8 5.595a2.409 2.409 0 1 1-.001 4.817A2.409 2.409 0 0 1 8 5.595zm0 1.054a1.354 1.354 0 1 0 0 2.709 1.354 1.354 0 0 0 0-2.709z"/></g></svg>