<svg xmlns="http://www.w3.org/2000/svg" width="16" height="16"><g fill="none" fill-rule="evenodd"><path d="M0 0h16v16H0z"/><path fill="#26344A" d="M8.095 2c.248 0 .482.065.694.192.169.101.31.233.42.393l.078.126L14.354 12l.036.07c.199.415.175.855-.062 1.259a1.34 1.34 0 0 1-.494.489 1.35 1.35 0 0 1-.534.174l-.143.007H3.015l-.082-.004a1.323 1.323 0 0 1-.576-.177 1.347 1.347 0 0 1-.494-.489 1.296 1.296 0 0 1-.092-1.193l.071-.146 5.072-9.298.044-.072c.114-.176.263-.32.443-.429a1.34 1.34 0 0 1 .694-.192zm0 1.032a.3.3 0 0 0-.162.045.402.402 0 0 0-.075.06l-.024.028-.024.04-5.064 9.284c-.064.116-.063.198.008.319.029.05.066.087.119.117a.366.366 0 0 0 .082.035l.034.006.044.002h10.124a.31.31 0 0 0 .161-.043.316.316 0 0 0 .12-.118c.052-.09.065-.157.047-.225l-.019-.051-.023-.046-5.062-9.28a.33.33 0 0 0-.286-.173zm-.105 7.549a.645.645 0 1 1 0 1.29.645.645 0 0 1 0-1.29zm0-4.785c.253 0 .464.182.507.423l.009.093V9.19l-.002.047a.517.517 0 0 1-1.022.046l-.009-.093V6.312l.002-.047a.518.518 0 0 1 .515-.47z"/></g></svg>