<svg width="50" height="50" xmlns="http://www.w3.org/2000/svg"><g fill="#009DAB" fill-rule="evenodd"><path d="M40.756 9.244c-5.659-5.659-14.866-5.658-20.525 0-5.414 5.414-5.647 14.076-.702 19.771L17.8 30.744l-1.761-1.762a1.03 1.03 0 0 0-1.456 0L6.33 37.235a4.555 4.555 0 0 0 0 6.435A4.536 4.536 0 0 0 9.548 45c1.165 0 2.33-.444 3.217-1.33l8.253-8.253a1.03 1.03 0 0 0 0-1.456L19.256 32.2l1.729-1.73a14.473 14.473 0 0 0 9.509 3.543c3.716 0 7.433-1.415 10.262-4.244 5.659-5.659 5.659-14.866 0-20.525Zm-29.447 32.97a2.494 2.494 0 0 1-3.523 0 2.494 2.494 0 0 1 0-3.523l4.605-4.605 3.523 3.523-4.605 4.605Zm6.061-6.061-3.523-3.523 1.464-1.464 3.523 3.523-1.464 1.464Zm21.93-7.84c-4.856 4.856-12.757 4.856-17.613 0s-4.856-12.757 0-17.613a12.414 12.414 0 0 1 8.807-3.642c3.189 0 6.379 1.214 8.806 3.642 4.856 4.856 4.856 12.757 0 17.613Z" fill-rule="nonzero"/><path d="M37.602 12.398a9.987 9.987 0 0 0-7.109-2.944 9.987 9.987 0 0 0-7.108 2.944 9.986 9.986 0 0 0-2.944 7.108 9.987 9.987 0 0 0 2.944 7.109 9.986 9.986 0 0 0 7.108 2.944 9.987 9.987 0 0 0 7.109-2.944 9.987 9.987 0 0 0 2.944-7.109 9.988 9.988 0 0 0-2.944-7.108Zm-1.456 12.76a7.941 7.941 0 0 1-5.653 2.342 7.94 7.94 0 0 1-5.652-2.341 7.941 7.941 0 0 1-2.341-5.652 7.94 7.94 0 0 1 2.341-5.653 7.94 7.94 0 0 1 5.652-2.341 7.94 7.94 0 0 1 5.653 2.341 7.941 7.941 0 0 1 2.341 5.653 7.94 7.94 0 0 1-2.341 5.652Z" fill-rule="nonzero"/><path d="M27.344 18.516h6.25a1.016 1.016 0 0 1 0 2.031h-6.25a1.016 1.016 0 1 1 0-2.031Z"/></g></svg>