<svg width="14" height="13" fill="none" xmlns="http://www.w3.org/2000/svg"><path d="M1.5 0C.676 0 0 .676 0 1.5v8c0 .824.676 1.5 1.5 1.5H3v.5c0 .824.676 1.5 1.5 1.5h8c.824 0 1.5-.676 1.5-1.5v-8c0-.824-.676-1.5-1.5-1.5H11v-.5C11 .676 10.324 0 9.5 0h-8Zm0 1h8c.281 0 .5.219.5.5v8c0 .281-.219.5-.5.5h-8a.494.494 0 0 1-.5-.5v-8c0-.281.219-.5.5-.5ZM11 3h1.5c.281 0 .5.219.5.5v8c0 .281-.219.5-.5.5h-8a.494.494 0 0 1-.5-.5V11h5.5c.824 0 1.5-.676 1.5-1.5V3Z" fill="#000"/><path d="M3.5 7.508v-4l4 1.992-4 2.008Z" fill="#000"/></svg>