<svg width="16" height="16" fill="none" xmlns="http://www.w3.org/2000/svg"><path d="M2.5 1C1.676 1 1 1.676 1 2.5v5C1 8.324 1.676 9 2.5 9h.492v2l2.672-2H6v2.5c0 .824.676 1.5 1.5 1.5h2.84l2.664 2v-2h.496c.824 0 1.5-.676 1.5-1.5v-5c0-.824-.676-1.5-1.5-1.5H10V2.5C10 1.676 9.324 1 8.5 1h-6Zm0 1h6c.281 0 .5.219.5.5v5c0 .281-.219.5-.5.5H5.328L3.992 9V8H2.5a.494.494 0 0 1-.5-.5v-5c0-.281.219-.5.5-.5Zm3 1C4.676 3 4 3.676 4 4.5S4.676 6 5.5 6c.176 0 .344-.04.5-.094V7h1V4.5C7 3.676 6.324 3 5.5 3Zm0 1c.281 0 .5.219.5.5s-.219.5-.5.5a.494.494 0 0 1-.5-.5c0-.281.219-.5.5-.5ZM10 6h3.5c.281 0 .5.219.5.5v5c0 .281-.219.5-.5.5h-1.496v1l-1.332-1H7.5a.494.494 0 0 1-.5-.5V9h1.5c.176 0 .344-.04.5-.094V11h1v-1h1v1h1V8.5c0-.824-.676-1.5-1.5-1.5-.176 0-.344.04-.5.094V6Zm.5 2c.281 0 .5.219.5.5V9h-1v-.5c0-.281.219-.5.5-.5Z" fill="#202124"/></svg>