<svg width="16" height="16" viewBox="0 0 16 16" fill="none" xmlns="http://www.w3.org/2000/svg">
<path d="M2.5 1C1.67578 1 1 1.67578 1 2.5V7.5C1 8.32422 1.67578 9 2.5 9H2.99219V11L5.66406 9H6V11.5C6 12.3242 6.67578 13 7.5 13H10.3398L13.0039 15V13H13.5C14.3242 13 15 12.3242 15 11.5V6.5C15 5.67578 14.3242 5 13.5 5H10V2.5C10 1.67578 9.32422 1 8.5 1H2.5ZM2.5 2H8.5C8.78125 2 9 2.21875 9 2.5V7.5C9 7.78125 8.78125 8 8.5 8H5.32812L3.99219 9V8H2.5C2.21875 8 2 7.78125 2 7.5V2.5C2 2.21875 2.21875 2 2.5 2ZM5.5 3C4.67578 3 4 3.67578 4 4.5C4 5.32422 4.67578 6 5.5 6C5.67578 6 5.84375 5.96094 6 5.90625V7H7V4.5C7 3.67578 6.32422 3 5.5 3ZM5.5 4C5.78125 4 6 4.21875 6 4.5C6 4.78125 5.78125 5 5.5 5C5.21875 5 5 4.78125 5 4.5C5 4.21875 5.21875 4 5.5 4ZM10 6H13.5C13.7812 6 14 6.21875 14 6.5V11.5C14 11.7812 13.7812 12 13.5 12H12.0039V13L10.6719 12H7.5C7.21875 12 7 11.7812 7 11.5V9H8.5C8.67578 9 8.84375 8.96094 9 8.90625V11H10V10H11V11H12V8.5C12 7.67578 11.3242 7 10.5 7C10.3242 7 10.1562 7.03906 10 7.09375V6ZM10.5 8C10.7812 8 11 8.21875 11 8.5V9H10V8.5C10 8.21875 10.2188 8 10.5 8Z" fill="#0D6EFD"/>
</svg>
