<svg width="14" height="14" fill="none" xmlns="http://www.w3.org/2000/svg"><path fill-rule="evenodd" clip-rule="evenodd" d="M11.874.778H2.125C1.381.778.778 1.38.778 2.126v7.311l.001.068c.035.713.624 1.28 1.346 1.28h2.963l1.467 2.199.029.04a.535.535 0 0 0 .861-.04l1.466-2.2 2.963.001c.745 0 1.348-.603 1.348-1.348V2.126c0-.745-.603-1.348-1.348-1.348ZM2.125 1.849h9.75c.153 0 .277.123.277.277v7.311a.276.276 0 0 1-.277.277h-3.25l-.053.003a.535.535 0 0 0-.392.235L7 11.722l-1.18-1.77a.535.535 0 0 0-.445-.238h-3.25a.276.276 0 0 1-.277-.277V2.126c0-.154.124-.277.277-.277Zm1.864 3.48a.668.668 0 1 0 1.337.002.668.668 0 0 0-1.337-.001ZM7.096 6a.668.668 0 1 1-.002-1.337A.668.668 0 0 1 7.096 6Zm1.768-.67a.668.668 0 1 0 1.337.002.668.668 0 0 0-1.337-.001Z" fill="#202124"/></svg>