<svg width="12" height="12" fill="none" xmlns="http://www.w3.org/2000/svg"><path d="M6 0C4.928 0 4.059.86 4.016 1.922A4.965 4.965 0 0 0 1 6.5c0 .086-.004.18 0 .281-.592.348-1 .987-1 1.719a2.006 2.006 0 0 0 2.813 1.828A4.98 4.98 0 0 0 6 11.5a4.98 4.98 0 0 0 3.188-1.172c.248.112.525.172.812.172 1.1 0 2-.9 2-2 0-.74-.412-1.389-1.016-1.734.008-.08.016-.162.016-.266a4.965 4.965 0 0 0-3.016-4.578A1.997 1.997 0 0 0 6 0Zm0 1c.559 0 1 .441 1 1 0 .559-.441 1-1 1-.559 0-1-.441-1-1 0-.559.441-1 1-1ZM4.234 2.922C4.57 3.559 5.234 4 6 4s1.43-.441 1.766-1.078A3.968 3.968 0 0 1 10 6.5c-1.1 0-2 .9-2 2 0 .447.154.854.406 1.188A4.034 4.034 0 0 1 6 10.5a4.034 4.034 0 0 1-2.406-.813A1.96 1.96 0 0 0 4 8.5c0-1.1-.9-2-2-2a3.97 3.97 0 0 1 2.234-3.578ZM2 7.5c.559 0 1 .441 1 1 0 .559-.441 1-1 1-.559 0-1-.441-1-1 0-.559.441-1 1-1Zm8 0c.559 0 1 .441 1 1 0 .559-.441 1-1 1-.559 0-1-.441-1-1 0-.559.441-1 1-1Z" fill="#0D6EFD"/></svg>