<svg width="14" height="13" fill="none" xmlns="http://www.w3.org/2000/svg"><path d="M7 0a.5.5 0 0 0-.24.06l-5.5 3a.5.5 0 0 0 0 .88L3.203 5 1.26 6.06a.5.5 0 0 0 0 .88L3.203 8 1.26 9.06a.5.5 0 0 0 0 .88l5.5 3a.5.5 0 0 0 .48 0l5.5-3a.5.5 0 0 0 0-.88L10.797 8l1.943-1.06a.5.5 0 0 0 0-.88L10.797 5l1.943-1.06a.5.5 0 0 0 0-.88l-5.5-3A.5.5 0 0 0 7 0Zm0 1.07 4.455 2.43L9.51 4.56 7 5.93 2.545 3.5 7 1.07Zm-2.75 4.5 2.51 1.37a.5.5 0 0 0 .48 0l2.51-1.37 1.705.93-1.943 1.06L7 8.93 4.484 7.559 2.544 6.5l1.706-.93Zm0 3 2.51 1.37a.5.5 0 0 0 .48 0l2.51-1.37 1.705.93L7 11.93 2.545 9.5l1.705-.93Z" fill="#000"/></svg>