<svg width="14" height="13" fill="none" xmlns="http://www.w3.org/2000/svg"><path d="M1.585 0A1.51 1.51 0 0 0 .078 1.5v10c0 .824.68 1.5 1.507 1.5h10.05a1.51 1.51 0 0 0 1.507-1.5v-10c0-.824-.68-1.5-1.508-1.5H1.585Zm0 1h2.513v3H1.083V1.5c0-.281.22-.5.502-.5Zm3.517 0h3.015v3H5.102V1Zm4.02 0h2.512c.283 0 .503.219.503.5V4H9.122V1Zm-8.04 4h3.016v3H1.083V5Zm4.02 0h3.015v3H5.102V5Zm4.02 0h3.015v3H9.122V5Zm-8.04 4h3.016v3H1.585a.495.495 0 0 1-.502-.5V9Zm4.02 0h3.015v3H5.102V9Zm4.02 0h3.015v2.5c0 .281-.22.5-.503.5H9.122V9Z" fill="#202124"/></svg>