<svg width="15" height="15" fill="none" xmlns="http://www.w3.org/2000/svg"><path d="M1.585 0C.76 0 .078.677.078 1.5v10c0 .822.68 1.5 1.507 1.5h4.522v-1H1.585a.495.495 0 0 1-.502-.5V9h2.01V8h-2.01V5h2.01V4h-2.01V1.5c0-.281.22-.5.502-.5h9.044c.283 0 .503.219.503.5V4H4.098v1h7.034v2.125h1.005V1.5c0-.823-.681-1.5-1.508-1.5H1.585Zm2.513 8v1h2.01V8h-2.01Zm6.029 0v1.05h-.002a2.5 2.5 0 0 0-.877.368l-.776-.772-.71.708.775.771a2.485 2.485 0 0 0-.369.875H7.112v1h1.056v.002c.066.317.194.611.369.873l-.775.771.71.707.776-.771c.262.174.56.302.879.367V15h1.005v-1.05h.002c.308-.064.593-.187.85-.352l.784.863.746-.672-.808-.887c.184-.268.317-.574.384-.902h1.056v-1H13.09v-.002a2.476 2.476 0 0 0-.365-.87l.768-.751-.703-.713-.773.756a2.511 2.511 0 0 0-.885-.37V8h-1.005Zm.502 2c.839 0 1.508.666 1.508 1.5s-.67 1.5-1.508 1.5a1.496 1.496 0 0 1-1.507-1.5c0-.834.669-1.5 1.507-1.5Z" fill="#0D6EFD"/></svg>