<svg width="15" height="15" fill="none" xmlns="http://www.w3.org/2000/svg"><path d="M1.517 0C.691 0 .01.677.01 1.5v10c0 .822.68 1.5 1.507 1.5H6.04v-1H1.517a.495.495 0 0 1-.502-.5V9h2.01V8h-2.01V5h2.01V4h-2.01V1.5c0-.281.22-.5.502-.5h9.044c.283 0 .502.219.502.5V4H4.03v1h7.034v2.125h1.005V1.5c0-.823-.68-1.5-1.507-1.5H1.517ZM4.03 8v1h2.01V8H4.03Zm6.03 0v1.05h-.002a2.5 2.5 0 0 0-.878.368l-.775-.772-.71.708.775.771A2.485 2.485 0 0 0 8.1 11H7.045v1H8.1v.002c.066.317.194.611.369.873l-.775.771.71.707.775-.771c.263.174.56.302.88.367V15h1.004v-1.05h.002c.309-.064.594-.187.85-.352l.785.863.746-.672-.809-.887c.184-.268.317-.574.385-.902h1.056v-1h-1.056v-.002a2.478 2.478 0 0 0-.365-.87l.768-.751-.703-.713-.773.756a2.511 2.511 0 0 0-.886-.37V8h-1.005Zm.502 2c.838 0 1.507.666 1.507 1.5S11.4 13 10.561 13a1.496 1.496 0 0 1-1.507-1.5c0-.834.669-1.5 1.507-1.5Z" fill="#202124"/></svg>