<svg width="13" height="13" xmlns="http://www.w3.org/2000/svg"><g fill="#3C4043"><path d="M10.754.5H1.42C.684.5.087 1.097.087 1.833v9.334c0 .736.597 1.333 1.333 1.333h9.334c.736 0 1.333-.597 1.333-1.333V1.833c0-.736-.597-1.333-1.333-1.333Zm0 10.667H1.42V1.833h9.334v9.334Z"/><path d="M9.892 9.362 8.288 7.758a2.971 2.971 0 0 0 .466-1.591 3 3 0 1 0-3 3c.586 0 1.129-.175 1.591-.466l1.604 1.604.943-.943ZM5.754 7.833a1.666 1.666 0 1 1 0-3.332 1.666 1.666 0 0 1 0 3.332Z"/><path d="M.754 1.167v10.666H11.42V1.167H.754Zm5 7.333a2.333 2.333 0 1 1 0-4.667 2.333 2.333 0 0 1 0 4.667Z" opacity=".3"/></g></svg>