<svg width="14" height="14" fill="none" xmlns="http://www.w3.org/2000/svg"><path d="M1.615 0C.728 0 0 .704 0 1.563v8.338c0 .858.728 1.563 1.615 1.563h1.616V14l3.933-2.536h5.22c.888 0 1.616-.705 1.616-1.563V1.563C14 .704 13.272 0 12.385 0H1.615Zm0 1.042h10.77c.303 0 .538.228.538.521v8.338a.523.523 0 0 1-.538.52h-5.55l-2.527 1.633v-1.632H1.615a.523.523 0 0 1-.538-.521V1.563c0-.293.236-.52.538-.52ZM7 3.126 6.175 4.91l-2.006.207L5.67 6.424l-.42 1.913L7 7.36l1.75.977-.42-1.913 1.5-1.307-2.005-.207L7 3.126Z" fill="#000"/></svg>