<svg width="14" height="14" fill="none" xmlns="http://www.w3.org/2000/svg"><path fill-rule="evenodd" clip-rule="evenodd" d="M.5 2A1.5 1.5 0 0 1 2 .5h10A1.5 1.5 0 0 1 13.5 2v10a1.5 1.5 0 0 1-1.5 1.5H2A1.5 1.5 0 0 1 .5 12V2ZM2 1.5a.5.5 0 0 0-.5.5v10a.5.5 0 0 0 .5.5h10a.5.5 0 0 0 .5-.5V2a.5.5 0 0 0-.5-.5H2ZM3 4a.5.5 0 1 1 1 0 .5.5 0 0 1-1 0Zm0 3a.5.5 0 1 1 1 0 .5.5 0 0 1-1 0Zm2 0a.5.5 0 0 1 .5-.5h5a.5.5 0 0 1 0 1h-5A.5.5 0 0 1 5 7Z" fill="#0D6EFD"/><path d="M5 4a.5.5 0 0 1 .5-.5h5a.5.5 0 0 1 0 1h-5A.5.5 0 0 1 5 4Zm-2 6a.5.5 0 1 1 1 0 .5.5 0 0 1-1 0Zm2 0a.5.5 0 0 1 .5-.5h5a.5.5 0 0 1 0 1h-5A.5.5 0 0 1 5 10Z" fill="#0D6EFD"/></svg>