<svg width="16" height="16" fill="none" xmlns="http://www.w3.org/2000/svg"><path d="M2.5 2C1.677 2 1 2.677 1 3.5v8c0 .822.677 1.5 1.5 1.5H9v-1H2.5a.493.493 0 0 1-.5-.5V5h12v4h1V3.5c0-.823-.678-1.5-1.5-1.5h-11Zm0 1h11c.281 0 .5.219.5.5V4H2v-.5c0-.281.219-.5.5-.5ZM4 7v1h1V7H4Zm2 0v1h6V7H6ZM4 9v1h1V9H4Zm2 0v1h3V9H6Z" fill="#0D6EFD"/><path d="M11 11.5c0-.824.676-1.5 1.5-1.5s1.5.676 1.5 1.5c0 .305-.094.586-.25.824A2.502 2.502 0 0 1 15 14h-1.063c-.21-.582-.773-1-1.437-1s-1.227.418-1.438 1H10a2.502 2.502 0 0 1 1.25-1.676A1.497 1.497 0 0 1 11 11.5Z" fill="#0D6EFD"/><circle cx="12.5" cy="11.5" r=".5" fill="#0D6EFD"/></svg>