<svg width="14" height="12" fill="none" xmlns="http://www.w3.org/2000/svg"><path d="M1.5 0C.677 0 0 .677 0 1.5v9c0 .822.677 1.5 1.5 1.5h11c.822 0 1.5-.678 1.5-1.5v-9c0-.823-.678-1.5-1.5-1.5h-11Zm0 1h11c.281 0 .5.219.5.5V2H1v-.5c0-.281.219-.5.5-.5ZM1 3h12v7.5c0 .281-.219.5-.5.5h-11a.493.493 0 0 1-.5-.5V3Zm1.5 2a.5.5 0 0 0-.5.5v4a.5.5 0 0 0 .5.5h3a.5.5 0 0 0 .5-.5v-4a.5.5 0 0 0-.5-.5h-3Zm5 0a.5.5 0 0 0 0 1h4a.5.5 0 0 0 0-1h-4ZM3 6h2v3H3V6Zm4.5 1a.5.5 0 0 0 0 1h4a.5.5 0 0 0 0-1h-4Zm0 2a.5.5 0 0 0 0 1h4a.5.5 0 0 0 0-1h-4Z" fill="#202124"/></svg>