<svg width="16" height="16" fill="none" xmlns="http://www.w3.org/2000/svg"><path fill-rule="evenodd" clip-rule="evenodd" d="M8 5.595a2.409 2.409 0 1 0 0 4.817 2.409 2.409 0 0 0 0-4.817Zm0 1.054a1.355 1.355 0 1 1-.001 2.71 1.355 1.355 0 0 1 0-2.71Z" fill="#202124"/><path fill-rule="evenodd" clip-rule="evenodd" d="M9.462.889H6.536a.527.527 0 0 0-.517.425l-.08.41-.253 1.227-.04.018a5.693 5.693 0 0 0-.892.513l-.051.036L3.451 3.1l-.417-.13a.527.527 0 0 0-.611.239l-.211.363-1.038 1.736-.214.37a.527.527 0 0 0 .109.66l.308.27.948.807-.024.162c-.02.154-.03.284-.03.423v.06c.002.135.014.255.038.42l.016.104-.942.802-.314.275a.527.527 0 0 0-.11.661l.212.364 1.044 1.747.207.358a.527.527 0 0 0 .613.239l.406-.127 1.262-.422.051.037c.286.2.583.371.892.512l.04.018.253 1.231.08.407a.527.527 0 0 0 .517.425h2.926a.527.527 0 0 0 .517-.424l.082-.411.252-1.228.04-.018a5.6 5.6 0 0 0 .891-.512l.051-.037 1.252.419.416.13a.527.527 0 0 0 .613-.238l.211-.364 1.038-1.737.214-.368a.527.527 0 0 0-.109-.663l-.31-.27-.946-.806.01-.065c.032-.208.044-.346.044-.52v-.056a3.21 3.21 0 0 0-.044-.463l-.01-.065.942-.802.314-.274a.527.527 0 0 0 .11-.663l-.212-.363-1.044-1.747-.209-.358a.527.527 0 0 0-.61-.238l-.407.126-1.263.422-.05-.036a5.696 5.696 0 0 0-.892-.513l-.04-.018-.253-1.23-.081-.408a.527.527 0 0 0-.517-.424ZM6.97 1.942h2.06l.307 1.495c.036.176.16.322.328.386a4.66 4.66 0 0 1 1.212.698l.043.03a.527.527 0 0 0 .449.055l1.508-.505 1.032 1.73-1.146.975a.527.527 0 0 0-.178.488l.054.324c.027.168.036.268.036.382l-.002.074a2.611 2.611 0 0 1-.034.307l-.054.324-.006.05a.528.528 0 0 0 .184.438l1.146.976-1.033 1.73-1.507-.505a.527.527 0 0 0-.492.085 4.657 4.657 0 0 1-1.212.697l-.045.02a.527.527 0 0 0-.283.367l-.307 1.493H6.97l-.307-1.493a.527.527 0 0 0-.328-.387 4.657 4.657 0 0 1-1.212-.697l-.043-.03a.527.527 0 0 0-.45-.055l-1.506.504-1.034-1.73 1.146-.975a.527.527 0 0 0 .179-.486l-.049-.29A2.44 2.44 0 0 1 3.324 8c0-.125.014-.253.046-.446l.043-.258.006-.05a.527.527 0 0 0-.184-.44L2.09 5.831 3.122 4.1l1.508.505a.527.527 0 0 0 .492-.085 4.66 4.66 0 0 1 1.212-.698l.044-.02a.527.527 0 0 0 .284-.366l.307-1.495Z" fill="#202124"/></svg>