<svg width="16" height="16" fill="none" xmlns="http://www.w3.org/2000/svg"><path fill-rule="evenodd" clip-rule="evenodd" d="M8 5.595a2.409 2.409 0 1 0 .002 4.817A2.409 2.409 0 0 0 8 5.595Zm0 1.054a1.355 1.355 0 1 1 0 2.71 1.355 1.355 0 0 1 0-2.71Z" fill="#0D6EFD"/><path fill-rule="evenodd" clip-rule="evenodd" d="M9.463.889H6.536a.527.527 0 0 0-.516.425l-.081.41-.253 1.227-.04.018a5.693 5.693 0 0 0-.891.513l-.052.036L3.452 3.1l-.418-.13a.527.527 0 0 0-.611.239l-.21.363-1.039 1.736-.214.37a.527.527 0 0 0 .109.66l.308.27.948.807-.024.162a3.08 3.08 0 0 0-.03.423v.06c.003.135.014.255.038.42l.016.104-.942.802-.314.275a.527.527 0 0 0-.109.661l.21.364 1.046 1.747.207.358a.527.527 0 0 0 .612.239l.407-.127 1.261-.422.052.037c.286.2.583.371.891.512l.04.018.254 1.231.08.407a.527.527 0 0 0 .516.425h2.927a.527.527 0 0 0 .516-.424l.082-.411.252-1.228.04-.018a5.69 5.69 0 0 0 .892-.512l.05-.037 1.252.419.417.13a.527.527 0 0 0 .612-.238l.212-.364 1.037-1.737.214-.368a.527.527 0 0 0-.108-.663l-.31-.27-.947-.806.01-.065c.032-.208.044-.346.044-.52v-.056a3.208 3.208 0 0 0-.044-.463l-.01-.065.942-.802.315-.274a.527.527 0 0 0 .108-.663l-.211-.363-1.043-1.747-.21-.358a.527.527 0 0 0-.61-.238l-.406.126-1.263.422-.051-.036a5.692 5.692 0 0 0-.892-.513l-.04-.018-.253-1.23-.08-.408a.527.527 0 0 0-.517-.424ZM6.969 1.942H9.03l.307 1.495c.036.176.16.322.328.386a4.64 4.64 0 0 1 1.212.698l.043.03a.526.526 0 0 0 .449.055l1.508-.505 1.032 1.73-1.146.975a.527.527 0 0 0-.178.488l.054.324c.027.168.036.268.036.382l-.002.074a2.636 2.636 0 0 1-.034.307l-.054.324-.006.05a.527.527 0 0 0 .184.438l1.146.976-1.033 1.73-1.507-.505a.527.527 0 0 0-.492.085 4.658 4.658 0 0 1-1.212.697l-.045.02a.527.527 0 0 0-.283.367l-.307 1.493H6.97l-.308-1.493a.527.527 0 0 0-.328-.387 4.657 4.657 0 0 1-1.212-.697l-.043-.03a.527.527 0 0 0-.449-.055l-1.507.504-1.034-1.73 1.147-.975a.527.527 0 0 0 .178-.486l-.048-.29A2.44 2.44 0 0 1 3.324 8c0-.125.014-.253.046-.446l.044-.258.006-.05a.527.527 0 0 0-.184-.44l-1.147-.975L3.123 4.1l1.507.505a.527.527 0 0 0 .492-.085 4.66 4.66 0 0 1 1.212-.698l.045-.02a.527.527 0 0 0 .283-.366l.307-1.495Z" fill="#0D6EFD"/></svg>