<svg width="14" height="9" fill="none" xmlns="http://www.w3.org/2000/svg"><path d="M3.938 0A2.19 2.19 0 0 0 1.75 2.188a2.17 2.17 0 0 0 1.142 1.907C1.23 4.56 0 6.067 0 7.875v.195a.438.438 0 0 0 .875 0v-.195a3.066 3.066 0 0 1 3.063-3.063 3.06 3.06 0 0 1 2.68 1.61L7 7.126l.383-.704a3.06 3.06 0 0 1 2.68-1.61 3.066 3.066 0 0 1 3.062 3.063v.207a.438.438 0 0 0 .875 0v-.207c0-1.808-1.23-3.315-2.892-3.78a2.171 2.171 0 0 0 1.142-1.907A2.19 2.19 0 0 0 10.062 0a2.19 2.19 0 0 0-2.187 2.188c0 .82.461 1.53 1.131 1.903A3.937 3.937 0 0 0 7 5.421a3.937 3.937 0 0 0-2.006-1.33 2.182 2.182 0 0 0 1.131-1.904A2.19 2.19 0 0 0 3.937 0Zm0 .875a1.313 1.313 0 1 1-.001 2.626 1.313 1.313 0 0 1 0-2.626Zm6.124 0a1.313 1.313 0 1 1 0 2.626 1.313 1.313 0 0 1 0-2.626Z" fill="#202124"/></svg>