<svg width="16" height="16" fill="none" xmlns="http://www.w3.org/2000/svg"><path d="M2.492 0c-.822 0-1.5.677-1.5 1.5v8c0 .822.678 1.5 1.5 1.5h4.551c-.019.166-.05.329-.05.5 0 2.48 2.02 4.5 4.5 4.5 2.479 0 4.5-2.02 4.5-4.5a4.5 4.5 0 0 0-2-3.738V1.5c0-.823-.678-1.5-1.5-1.5h-10Zm0 1h10c.282 0 .5.219.5.5v5.775a4.443 4.443 0 0 0-1.5-.275C9.541 7 7.89 8.258 7.268 10H2.492a.493.493 0 0 1-.5-.5v-8c0-.281.219-.5.5-.5Zm9 7c1.94 0 3.5 1.561 3.5 3.5s-1.56 3.5-3.5 3.5a3.492 3.492 0 0 1-3.5-3.5c0-1.939 1.561-3.5 3.5-3.5Zm-2.5 3v1h5v-1h-5Z" fill="#0D6EFD"/><path d="M3.5 4V3h6v1h-6Zm0 2V5h5v1h-5Zm7-2V3h1v1h-1Z" fill="#0D6EFD"/></svg>