<svg width="14" height="14" fill="none" xmlns="http://www.w3.org/2000/svg"><path d="M7 .5c-1.098 0-2 .902-2 2 0 .547.223 1.047.586 1.41v.004a2.68 2.68 0 0 0-.594.523A2 2 0 0 0 3 2.5c-1.098 0-2 .902-2 2 0 .535.219 1.023.563 1.383a3.012 3.012 0 0 0-1.521 2.12c-.046.271.182.497.458.497s.494-.227.561-.495C1.28 7.137 2.061 6.5 3 6.5c.453 0 .863.148 1.2.398L5 7.5v-1c0-1.11.89-2 2-2 1.11 0 2 .89 2 2v1l.8-.602c.337-.25.747-.398 1.2-.398.938 0 1.72.637 1.939 1.505.068.268.285.495.561.495.276 0 .505-.226.458-.498a3.012 3.012 0 0 0-1.52-2.12C12.78 5.524 13 5.036 13 4.5c0-1.098-.902-2-2-2-1.078 0-1.96.867-1.996 1.938a2.61 2.61 0 0 0-.59-.528A1.99 1.99 0 0 0 9 2.5c0-1.098-.902-2-2-2Zm0 1c.559 0 1 .441 1 1 0 .559-.441 1-1 1-.559 0-1-.441-1-1 0-.559.441-1 1-1Zm-4 2c.559 0 1 .441 1 1 0 .559-.441 1-1 1-.559 0-1-.441-1-1 0-.559.441-1 1-1Zm8 0c.559 0 1 .441 1 1 0 .559-.441 1-1 1-.559 0-1-.441-1-1 0-.559.441-1 1-1Zm-4 4c-1.098 0-2 .902-2 2 0 .535.219 1.023.563 1.383a3.012 3.012 0 0 0-1.521 2.12c-.046.271.182.497.458.497s.494-.227.561-.495c.219-.868 1-1.505 1.939-1.505.938 0 1.72.637 1.939 1.505.067.268.285.495.561.495.276 0 .505-.226.458-.498a3.012 3.012 0 0 0-1.52-2.12C8.78 10.524 9 10.036 9 9.5c0-1.098-.902-2-2-2Zm0 1c.559 0 1 .441 1 1 0 .559-.441 1-1 1-.559 0-1-.441-1-1 0-.559.441-1 1-1Z" fill="#0D6EFD"/></svg>