<svg width="14" height="13" fill="none" xmlns="http://www.w3.org/2000/svg"><path d="M2.59 0A2.513 2.513 0 0 0 .078 2.5C.078 3.875 1.208 5 2.59 5a2.513 2.513 0 0 0 2.512-2.5c0-1.375-1.13-2.5-2.512-2.5Zm5.025 0a.5.5 0 0 0-.503.5v4a.5.5 0 0 0 .503.5h4.02a.5.5 0 0 0 .502-.5v-4a.5.5 0 0 0-.503-.5h-4.02ZM2.59 1c.84 0 1.508.664 1.508 1.5S3.43 4 2.59 4s-1.507-.664-1.507-1.5S1.75 1 2.59 1Zm5.527 0h3.015v3H8.117V1ZM3.101 7a.492.492 0 0 0-.432.234l-2.512 4a.492.492 0 0 0-.016.508.5.5 0 0 0 .44.258h5.024a.5.5 0 0 0 .44-.258.492.492 0 0 0-.016-.508l-2.512-4A.493.493 0 0 0 3.1 7Zm5.471 0a.5.5 0 0 0-.478.352l-.958 3.09a.504.504 0 0 0 .172.546l2.517 1.907a.497.497 0 0 0 .604 0l2.512-1.907a.509.509 0 0 0 .18-.547l-.96-3.09A.5.5 0 0 0 11.68 7H8.572Zm.373 1h2.363l.75 2.406-1.931 1.469-1.931-1.469L8.946 8Zm-5.852.441L4.698 11h-3.21l1.605-2.559Z" fill="#000"/></svg>