<svg width="14" height="14" fill="none" xmlns="http://www.w3.org/2000/svg"><path d="M7.178.503C3.596.4.604 3.237.503 6.819.4 10.401 3.237 13.397 6.819 13.5a6.512 6.512 0 0 0 6.68-6.32 6.377 6.377 0 0 0-.107-1.343c-.072-.38-.53-.5-.812-.235a.556.556 0 0 0-.16.5c.06.342.088.694.079 1.054A5.51 5.51 0 0 1 6.846 12.5 5.513 5.513 0 0 1 1.5 6.846 5.513 5.513 0 0 1 7.15 1.5a5.467 5.467 0 0 1 2.366.618.544.544 0 0 0 .626-.076c.238-.226.205-.615-.084-.77a6.455 6.455 0 0 0-2.88-.768Zm5.174 2.19a.5.5 0 0 0-.707 0L6 8.338 4.5 6.845l-.15-.151a.496.496 0 1 0-.701.702l.15.149 1.847 1.852a.5.5 0 0 0 .708 0l6-5.999a.5.5 0 0 0 0-.707Z" fill="#28A745"/></svg>