<svg width="13" height="13" fill="none" xmlns="http://www.w3.org/2000/svg"><path d="M6.5 0A6.505 6.505 0 0 0 0 6.5C0 10.086 2.914 13 6.5 13S13 10.086 13 6.5a.5.5 0 0 0-1 0C12 9.543 9.543 12 6.5 12A5.493 5.493 0 0 1 1 6.5C1 3.457 3.457 1 6.5 1c1.64 0 3.098.723 4.105 1.86l-.628.628a.3.3 0 0 0 .212.512H12.7a.3.3 0 0 0 .3-.3V1.19a.3.3 0 0 0-.512-.213l-1.175 1.175A6.475 6.475 0 0 0 6.5 0Zm0 2a.5.5 0 0 0-.5.5V6H4.5a.5.5 0 0 0 0 1h2.227C6.877 7 7 6.878 7 6.727V2.5a.5.5 0 0 0-.5-.5Z" fill="#5F6368"/></svg>