<svg width="568" height="383" viewBox="0 0 568 383" fill="none" xmlns="http://www.w3.org/2000/svg">
<path d="M551.275 199.355L506.647 196.849C499.054 196.422 493.246 189.94 493.674 182.37C494.102 174.799 500.604 169.008 508.196 169.435L552.82 171.942C560.412 172.367 566.221 178.848 565.795 186.419C565.368 193.989 558.867 199.781 551.275 199.355ZM507.577 180.398C506.057 180.34 504.778 181.522 504.72 183.038C504.664 184.516 505.791 185.773 507.27 185.882L551.894 188.388C553.414 188.445 554.693 187.263 554.751 185.748C554.807 184.27 553.68 183.013 552.201 182.904L507.577 180.398Z" fill="white"/>
<path d="M552.057 200.79C551.771 200.79 551.485 200.782 551.196 200.766H551.195L506.567 198.26C502.517 198.032 498.799 196.246 496.096 193.23C493.394 190.213 492.031 186.328 492.26 182.29C492.487 178.252 494.279 174.543 497.305 171.849C500.33 169.155 504.225 167.795 508.277 168.024L552.9 170.53C556.95 170.757 560.668 172.543 563.371 175.559C566.075 178.575 567.438 182.459 567.21 186.498C566.756 194.546 560.044 200.79 552.057 200.79ZM551.354 197.944C558.162 198.328 563.997 193.119 564.379 186.339C564.564 183.055 563.455 179.895 561.257 177.442C559.059 174.989 556.034 173.537 552.741 173.352L508.117 170.846C504.824 170.659 501.654 171.765 499.193 173.957C496.733 176.149 495.275 179.164 495.089 182.449C494.904 185.733 496.012 188.893 498.21 191.346C500.408 193.8 503.433 195.252 506.727 195.438L551.354 197.944ZM552.002 189.803C551.948 189.803 551.894 189.802 551.839 189.799L507.19 187.292C504.915 187.124 503.218 185.233 503.303 182.983C503.346 181.873 503.819 180.845 504.636 180.09C505.453 179.335 506.51 178.94 507.631 178.985C507.64 178.985 507.648 178.985 507.657 178.986L552.28 181.492C554.556 181.659 556.252 183.551 556.167 185.8C556.125 186.911 555.651 187.938 554.834 188.693C554.057 189.413 553.057 189.803 552.002 189.803ZM507.472 181.809C507.134 181.809 506.813 181.934 506.564 182.164C506.302 182.406 506.15 182.736 506.137 183.091C506.109 183.813 506.653 184.418 507.375 184.472L551.974 186.976C552.306 186.99 552.646 186.863 552.907 186.621C553.17 186.379 553.321 186.049 553.334 185.694C553.362 184.973 552.818 184.367 552.097 184.313L507.513 181.809C507.499 181.809 507.486 181.809 507.472 181.809Z" fill="#222433"/>
<path d="M546.403 235.979C541.328 235.697 527.399 225.719 527.399 225.719C527.399 225.719 542.363 217.366 547.443 217.653C552.518 217.939 556.4 222.274 556.113 227.335C555.826 232.395 551.479 236.265 546.403 235.979Z" fill="#7027E5"/>
<path d="M507.36 233.789C512.435 234.071 527.399 225.719 527.399 225.719C527.399 225.719 513.474 215.745 508.395 215.458C503.324 215.068 498.896 218.85 498.504 223.906C498.113 228.962 501.906 233.377 506.977 233.767C507.105 233.777 507.232 233.784 507.36 233.789Z" fill="#7027E5"/>
<path d="M522.496 314C522.469 314 522.442 313.999 522.414 313.997C521.633 313.953 521.035 313.286 521.079 312.507L527.544 198.022C527.588 197.243 528.256 196.649 529.039 196.691C529.82 196.734 530.418 197.402 530.374 198.181L523.909 312.665C523.867 313.418 523.242 314 522.496 314Z" fill="#222433"/>
<path d="M442.235 222.282C419.389 222.282 400.87 203.832 400.87 181.073C400.87 158.313 419.389 139.863 442.235 139.863C465.08 139.863 483.6 158.313 483.6 181.073C483.6 203.832 465.08 222.282 442.235 222.282Z" fill="white"/>
<path d="M442.234 223.911C465.945 223.911 485.234 204.694 485.234 181.072C485.234 157.451 465.945 138.234 442.234 138.234C418.524 138.234 399.234 157.451 399.234 181.072C399.234 204.694 418.524 223.911 442.234 223.911ZM442.234 141.492C464.141 141.492 481.964 159.248 481.964 181.072C481.964 202.897 464.141 220.653 442.234 220.653C420.327 220.653 402.504 202.897 402.504 181.072C402.504 159.248 420.327 141.492 442.234 141.492Z" fill="#222433"/>
<path d="M442.234 314.235C443.137 314.235 443.869 313.505 443.869 312.606V181.073C443.869 180.173 443.137 179.444 442.234 179.444C441.331 179.444 440.599 180.173 440.599 181.073V312.606C440.599 313.505 441.331 314.235 442.234 314.235Z" fill="#222433"/>
<path d="M377.683 313C377.891 313 378.097 312.952 378.283 312.858C378.47 312.765 378.632 312.63 378.758 312.463C378.883 312.296 378.969 312.102 379.007 311.896C379.045 311.69 379.035 311.478 378.977 311.277L368.571 274.7C368.524 274.528 368.443 274.368 368.333 274.227C368.224 274.087 368.088 273.969 367.933 273.882C367.778 273.795 367.607 273.739 367.431 273.718C367.254 273.697 367.075 273.712 366.904 273.761C366.734 273.81 366.574 273.892 366.435 274.004C366.296 274.115 366.181 274.253 366.095 274.409C366.009 274.566 365.955 274.737 365.936 274.915C365.917 275.092 365.933 275.272 365.983 275.443L376.39 312.019C376.47 312.302 376.64 312.55 376.873 312.727C377.106 312.904 377.391 313 377.683 313Z" fill="#222433"/>
<path d="M367.277 282.144C363.387 282.144 360.234 278.978 360.234 275.072C360.234 271.166 363.387 268 367.277 268C371.166 268 374.319 271.166 374.319 275.072C374.319 278.978 371.166 282.144 367.277 282.144Z" fill="#82B1FF"/>
<path d="M377.683 313C377.953 313 378.217 312.919 378.441 312.766C378.664 312.613 378.836 312.397 378.935 312.144L389.925 284.036C390.056 283.703 390.049 283.331 389.907 283.002C389.765 282.673 389.498 282.414 389.166 282.283C388.834 282.152 388.463 282.158 388.136 282.301C387.808 282.444 387.551 282.712 387.42 283.045L376.431 311.153C376.35 311.358 376.321 311.58 376.345 311.799C376.37 312.018 376.447 312.227 376.57 312.409C376.694 312.592 376.86 312.741 377.054 312.843C377.248 312.946 377.464 313 377.683 313Z" fill="#222433"/>
<path d="M388.672 289.126C385.601 289.126 383.11 286.625 383.11 283.541C383.11 280.456 385.601 277.955 388.672 277.955C391.744 277.955 394.234 280.456 394.234 283.541C394.234 286.625 391.744 289.126 388.672 289.126Z" fill="#82B1FF"/>
<path d="M411.74 104.075L406.03 103.1C403.422 102.654 400.946 104.407 400.5 107.015C400.374 107.749 400.422 108.503 400.638 109.215L405.299 124.593L414.8 111.635C416.366 109.502 415.907 106.504 413.774 104.937C413.172 104.495 412.476 104.2 411.74 104.075Z" fill="#82B1FF"/>
<path d="M384.783 118.147L383.808 123.858C383.359 126.465 385.109 128.943 387.717 129.392C388.452 129.518 389.208 129.471 389.922 129.254L405.299 124.593L392.342 115.086C390.205 113.522 387.204 113.987 385.64 116.124C385.202 116.723 384.908 117.416 384.783 118.147Z" fill="#82B1FF"/>
<path d="M67.5417 108.141C63.7388 103.47 63.2941 96.9033 66.4326 91.7607C69.3664 86.8958 70.9647 81.3406 71.0655 75.6581C71.3736 59.96 60.3157 46.551 45.5252 43.3428L53.9055 34.9498C55.8917 32.9606 55.8917 29.7359 53.9055 27.7467C51.9193 25.7575 48.6994 25.7575 46.7132 27.7467L42.8613 31.6045V26.1481C42.8613 23.3349 40.5845 21.0547 37.7756 21.0547C34.9667 21.0547 32.6899 23.3349 32.6899 26.1481V31.6066L28.8366 27.7478C26.8504 25.7586 23.6305 25.7586 21.6443 27.7478C19.6582 29.737 19.6582 32.9617 21.6443 34.9509L30.3795 43.6989C16.7124 47.3381 6.55583 59.7207 6.34805 74.5786C6.26381 80.6006 7.8562 86.5274 10.9469 91.6939C14.0495 96.8646 13.7547 103.424 9.91854 108.088C4.30044 114.924 1.30556 123.546 1.47402 132.399C1.825 152.435 18.163 168.752 38.1722 169.033C58.7363 169.329 75.6468 152.873 75.9426 132.278C76.0686 123.492 73.0934 114.944 67.5417 108.141Z" fill="white"/>
<path d="M38.7161 170.091C38.5297 170.091 38.3441 170.09 38.157 170.087C28.2057 169.947 18.8125 165.964 11.7077 158.871C4.60392 151.778 0.595754 142.383 0.420967 132.417C0.247936 123.322 3.33197 114.443 9.1052 107.418C12.5802 103.193 12.9572 97.0922 10.0441 92.2372C6.84982 86.8974 5.20795 80.7864 5.29499 74.564C5.4954 60.2305 14.8991 47.5787 28.3823 43.1904L20.9001 35.6966C18.5068 33.2997 18.5068 29.3993 20.9001 27.0021C23.2935 24.6051 27.1879 24.6051 29.5816 27.0021L31.6372 29.0608V26.1479C31.6372 22.7579 34.391 20 37.7758 20C41.1607 20 43.9144 22.7579 43.9144 26.1479V29.0587L45.9691 27.001C48.3624 24.6041 52.2568 24.6041 54.6505 27.001C57.0438 29.3979 57.0438 33.2983 54.6505 35.6956L47.5902 42.7665C62.2067 46.8159 72.4194 60.3627 72.119 75.6787C72.0151 81.5376 70.3606 87.2879 67.3348 92.3057C64.4315 97.063 64.8436 103.156 68.3579 107.474C74.0578 114.459 77.1257 123.273 76.9962 132.293C76.6943 153.25 59.5754 170.091 38.7161 170.091ZM25.2407 27.3124C24.2081 27.3124 23.1752 27.7061 22.389 28.4935C20.8166 30.0683 20.8166 32.6304 22.389 34.2052L31.1238 42.9532C31.3902 43.22 31.4937 43.6087 31.3961 43.9729C31.2982 44.3371 31.0139 44.6211 30.6499 44.7181C17.157 48.3109 7.5967 60.5961 7.40085 74.5935C7.31943 80.424 8.85776 86.1501 11.8498 91.1521C15.2206 96.7699 14.7714 103.846 10.7309 108.759C5.27674 115.396 2.36293 123.784 2.52648 132.378C2.86553 151.737 18.8627 167.707 38.1868 167.979C38.3623 167.981 38.5403 167.982 38.7151 167.982C58.4291 167.984 74.6049 152.069 74.8896 132.263C75.0121 123.739 72.113 115.409 66.7266 108.809C66.7262 108.808 66.7262 108.808 66.7259 108.808C62.6472 103.798 62.1684 96.7263 65.5346 91.2111C68.3663 86.5157 69.9159 81.1295 70.0131 75.6396C70.3065 60.6917 59.9144 47.5432 45.3026 44.374C44.926 44.2924 44.6241 44.0112 44.5153 43.6411C44.4065 43.2709 44.5086 42.8706 44.781 42.5978L53.1613 34.2048C53.9229 33.4421 54.3423 32.4276 54.3423 31.3488C54.3423 30.27 53.9229 29.2559 53.1613 28.4928C52.3997 27.73 51.3867 27.31 50.3096 27.31C49.2324 27.31 48.2199 27.73 47.4579 28.4928L43.6059 32.3506C43.3048 32.6522 42.8517 32.7425 42.4586 32.5791C42.0651 32.416 41.8086 32.0314 41.8086 31.6047V26.1479C41.8086 23.9207 39.9996 22.1091 37.7758 22.1091C35.552 22.1091 33.7431 23.9207 33.7431 26.1479V31.6065C33.7431 32.0329 33.4865 32.4174 33.0931 32.5809C32.6997 32.744 32.2469 32.654 31.9458 32.3524L28.0924 28.4935C27.3062 27.7061 26.2736 27.3124 25.2407 27.3124Z" fill="#222433"/>
<path d="M38.7097 309C38.1281 309 37.6567 308.528 37.6567 307.946V81.8797C37.6567 81.2973 38.1281 80.8252 38.7097 80.8252C39.2912 80.8252 39.7626 81.2973 39.7626 81.8797V307.946C39.7626 308.528 39.2912 309 38.7097 309Z" fill="#222433"/>
<path d="M38.9441 141.773C38.6767 141.773 38.4089 141.671 38.2035 141.468C37.7901 141.059 37.7866 140.391 38.1955 139.977L48.6055 129.438C49.0143 129.024 49.6812 129.021 50.0947 129.43C50.5081 129.84 50.5116 130.508 50.1027 130.922L39.6927 141.46C39.4871 141.668 39.2158 141.773 38.9441 141.773Z" fill="#222433"/>
<path d="M38.4737 141.773C38.2041 141.773 37.9346 141.67 37.7292 141.464L27.2069 130.926C26.7956 130.514 26.7956 129.846 27.2069 129.434C27.6183 129.022 28.2848 129.022 28.6961 129.434L39.2184 139.973C39.6298 140.385 39.6298 141.052 39.2184 141.464C39.0128 141.67 38.7432 141.773 38.4737 141.773Z" fill="#222433"/>
<path d="M38.9441 127.21C38.6763 127.21 38.4088 127.108 38.2035 126.905C37.79 126.495 37.7865 125.828 38.1958 125.413L48.6058 114.879C49.0147 114.465 49.6815 114.461 50.095 114.871C50.5084 115.281 50.5119 115.948 50.1027 116.362L39.6927 126.897C39.4867 127.106 39.2154 127.21 38.9441 127.21Z" fill="#222433"/>
<path d="M38.4737 127.21C38.2042 127.21 37.935 127.107 37.7293 126.902L27.207 116.367C26.7956 115.955 26.7956 115.287 27.2066 114.875C27.618 114.463 28.2845 114.463 28.6958 114.875L39.2181 125.41C39.6295 125.821 39.6295 126.489 39.2185 126.901C39.0128 127.107 38.7433 127.21 38.4737 127.21Z" fill="#222433"/>
<path d="M38.9441 112.651C38.6767 112.651 38.4089 112.549 38.2035 112.346C37.7901 111.937 37.7866 111.269 38.1955 110.855L48.6055 100.316C49.0143 99.9022 49.6812 99.8987 50.0947 100.308C50.5081 100.718 50.5116 101.386 50.1027 101.8L39.6927 112.338C39.4871 112.546 39.2158 112.651 38.9441 112.651Z" fill="#222433"/>
<path d="M38.4737 112.651C38.2041 112.651 37.9346 112.548 37.7292 112.342L27.2069 101.803C26.7956 101.391 26.7956 100.724 27.2069 100.312C27.6183 99.8999 28.2848 99.8999 28.6961 100.312L39.2184 110.85C39.6298 111.262 39.6298 111.93 39.2184 112.342C39.0128 112.548 38.7432 112.651 38.4737 112.651Z" fill="#222433"/>
<path d="M38.9441 98.0878C38.6767 98.0878 38.4089 97.9862 38.2035 97.783C37.7901 97.3735 37.7866 96.7056 38.1955 96.2916L48.6055 85.7533C49.0143 85.3393 49.6812 85.3357 50.0947 85.7452C50.5081 86.1548 50.5116 86.8226 50.1027 87.2367L39.6927 97.7749C39.4871 97.9834 39.2158 98.0878 38.9441 98.0878Z" fill="#222433"/>
<path d="M38.4737 98.0876C38.2041 98.0876 37.9346 97.9846 37.7292 97.7786L27.2069 87.2404C26.7956 86.8284 26.7956 86.1609 27.2069 85.7489C27.6183 85.3369 28.2848 85.3369 28.6961 85.7489L39.2184 96.2872C39.6298 96.6991 39.6298 97.3666 39.2184 97.7786C39.0128 97.9846 38.7432 98.0876 38.4737 98.0876Z" fill="#222433"/>
<path d="M81.2417 307C80.8333 307 80.4416 306.838 80.1527 306.549C79.8639 306.26 79.7017 305.869 79.7017 305.461V230.092C79.7017 229.684 79.8639 229.293 80.1527 229.004C80.4416 228.715 80.8333 228.553 81.2417 228.553C81.6502 228.553 82.0419 228.715 82.3307 229.004C82.6196 229.293 82.7818 229.684 82.7818 230.092V305.461C82.7818 305.869 82.6196 306.26 82.3307 306.549C82.0419 306.838 81.6502 307 81.2417 307Z" fill="#222433"/>
<path d="M101.622 229.682H60.8614C57.5697 229.616 54.4352 228.262 52.1308 225.912C49.8264 223.562 48.5356 220.403 48.5356 217.112C48.5356 213.822 49.8264 210.662 52.1308 208.312C54.4352 205.962 57.5697 204.609 60.8614 204.542H101.622C104.958 204.474 108.184 205.733 110.591 208.042C112.998 210.352 114.388 213.522 114.456 216.856C114.524 220.189 113.264 223.414 110.954 225.819C108.643 228.224 105.471 229.614 102.135 229.682H101.622ZM60.8614 214.598C60.1942 214.598 59.5544 214.863 59.0827 215.334C58.6109 215.806 58.3459 216.445 58.3459 217.112C58.3459 217.779 58.6109 218.418 59.0827 218.89C59.5544 219.361 60.1942 219.626 60.8614 219.626H101.622C102.289 219.626 102.929 219.361 103.401 218.89C103.872 218.418 104.138 217.779 104.138 217.112C104.138 216.445 103.872 215.806 103.401 215.334C102.929 214.863 102.289 214.598 101.622 214.598H60.8614Z" fill="white"/>
<path d="M101.622 231.221H60.8614C57.1172 231.226 53.5246 229.744 50.8738 227.101C48.223 224.458 46.7312 220.872 46.7266 217.13C46.7219 213.388 48.2049 209.797 50.8491 207.148C53.4934 204.499 57.0823 203.008 60.8265 203.003H101.622C105.359 202.939 108.97 204.356 111.664 206.946C114.358 209.536 115.915 213.087 115.996 216.821C116.068 220.562 114.653 224.178 112.061 226.877C109.469 229.576 105.912 231.138 102.17 231.221L101.622 231.221ZM101.905 206.078C101.823 206.078 101.741 206.078 101.657 206.078H60.8614C57.9793 206.151 55.2398 207.347 53.2286 209.411C51.2173 211.476 50.0938 214.244 50.0983 217.126C50.1027 220.007 51.2347 222.772 53.2523 224.83C55.2699 226.889 58.013 228.076 60.8953 228.14H102.135C105.022 228.049 107.757 226.831 109.755 224.748C111.754 222.665 112.856 219.882 112.826 216.996C112.796 214.111 111.636 211.352 109.594 209.311C107.553 207.27 104.792 206.109 101.905 206.078ZM101.622 221.165H60.8614C59.7858 221.165 58.7543 220.738 57.9937 219.978C57.2331 219.218 56.8059 218.187 56.8059 217.112C56.8059 216.037 57.2331 215.006 57.9937 214.246C58.7543 213.486 59.7858 213.059 60.8614 213.059H101.622C102.698 213.059 103.729 213.486 104.49 214.246C105.25 215.006 105.678 216.037 105.678 217.112C105.678 218.187 105.25 219.218 104.49 219.978C103.729 220.738 102.698 221.165 101.622 221.165ZM60.8614 216.137C60.6027 216.137 60.3546 216.24 60.1717 216.423C59.9888 216.606 59.886 216.854 59.886 217.112C59.886 217.371 59.9888 217.619 60.1717 217.801C60.3546 217.984 60.6027 218.087 60.8614 218.087H101.622C101.881 218.087 102.129 217.984 102.312 217.801C102.495 217.619 102.597 217.371 102.597 217.112C102.597 216.854 102.495 216.606 102.312 216.423C102.129 216.24 101.881 216.137 101.622 216.137H60.8614Z" fill="#222433"/>
<path d="M99.0551 264.878C94.13 264.878 81.8063 257.156 80.4166 256.276C80.1977 256.137 80.0174 255.946 79.8924 255.719C79.7673 255.492 79.7015 255.237 79.7012 254.978C79.7008 254.719 79.7659 254.464 79.8903 254.237C80.0147 254.01 80.1945 253.818 80.413 253.678C81.8063 252.792 94.1269 245.022 99.0551 245.022C101.66 245.063 104.144 246.125 105.973 247.979C107.802 249.832 108.829 252.329 108.834 254.933C108.838 257.536 107.82 260.037 105.998 261.897C104.175 263.757 101.695 264.828 99.0906 264.878H99.0551ZM84.1677 254.972C89.2361 258.015 96.378 261.784 99.0367 261.799C100.825 261.753 102.525 261.011 103.773 259.729C105.021 258.448 105.718 256.73 105.716 254.942C105.713 253.154 105.012 251.437 103.761 250.159C102.509 248.881 100.808 248.142 99.0192 248.101C96.4057 248.101 89.25 251.903 84.1708 254.973L84.1677 254.972Z" fill="#222433"/>
<path d="M62.9661 264.929C62.9491 264.929 62.9322 264.929 62.9147 264.929C60.2734 264.864 57.7664 263.752 55.9451 261.839C54.1238 259.926 53.1376 257.368 53.2033 254.728C53.269 252.089 54.3812 249.583 56.2954 247.763C58.2096 245.943 60.7688 244.957 63.4101 245.023C68.3035 245.023 80.6287 252.792 82.0178 253.678C82.2363 253.817 82.4161 254.009 82.5406 254.237C82.665 254.464 82.7301 254.719 82.7297 254.978C82.7293 255.237 82.6636 255.491 82.5385 255.718C82.4135 255.945 82.2331 256.137 82.0142 256.276C80.6256 257.156 68.305 264.878 63.3768 264.878H63.3614C63.2324 264.912 63.0995 264.93 62.9661 264.929ZM63.2228 248.101C61.4122 248.069 59.662 248.752 58.352 250.002C57.042 251.251 56.2779 252.966 56.2254 254.776C56.1729 256.585 56.8363 258.341 58.0716 259.665C59.3069 260.988 61.0145 261.771 62.8239 261.844C63.0068 261.813 63.1922 261.798 63.3778 261.801C66.0231 261.801 73.1829 258.024 78.2652 254.973C73.1865 251.905 66.0241 248.103 63.3778 248.103C63.3254 248.098 63.2741 248.098 63.2228 248.098V248.101Z" fill="#222433"/>
<path d="M147.423 5.20291L153.507 4.04944C156.286 3.52207 158.966 5.34717 159.494 8.12605C159.642 8.90866 159.606 9.71512 159.389 10.4808L154.706 27.0067L144.3 13.3416C142.584 11.0928 143.017 7.87896 145.265 6.16347C145.9 5.67955 146.639 5.35055 147.423 5.20291Z" fill="#7027E5"/>
<path d="M176.508 19.7193L177.661 25.8035C178.192 28.5818 176.369 31.2643 173.591 31.7942C172.807 31.9439 171.999 31.9082 171.231 31.6901L154.706 27.0069L168.369 16.5948C170.623 14.8815 173.84 15.32 175.553 17.574C176.033 18.2053 176.36 18.9398 176.508 19.7193Z" fill="#7027E5"/>
<path d="M225.383 159.457C241.955 159.457 255.389 145.723 255.389 128.78C255.389 111.837 241.955 98.1025 225.383 98.1025C208.81 98.1025 195.376 111.837 195.376 128.78C195.376 145.723 208.81 159.457 225.383 159.457Z" fill="#3C4043"/>
<path d="M225.383 160.515C208.253 160.515 194.317 146.278 194.317 128.78C194.317 111.281 208.253 97.0444 225.383 97.0444C242.512 97.0444 256.448 111.281 256.448 128.78C256.448 146.278 242.512 160.515 225.383 160.515ZM225.383 99.1601C209.421 99.1601 196.435 112.447 196.435 128.78C196.435 145.112 209.421 158.399 225.383 158.399C241.344 158.399 254.33 145.112 254.33 128.78C254.33 112.447 241.344 99.1601 225.383 99.1601Z" fill="#3C4043"/>
<path d="M300.851 155.046L323.01 147.63C326.139 146.566 328.877 144.59 330.872 141.957C332.866 139.324 334.026 136.155 334.2 132.858C334.375 129.561 333.557 126.287 331.852 123.458C330.147 120.63 327.633 118.376 324.634 116.988L274.114 91.9878C274.052 90.6415 273.058 70.009 269.916 69.7026C267.399 69.4438 265.966 72.8384 265.15 76.9516C260.583 68.1554 254.567 59.3711 250.959 61.3457C247.605 63.2145 250.147 70.0552 256.501 80.951C249.194 72.2767 243.192 66.4233 240.333 69.1737C237.473 71.9241 244.922 80.6336 250.606 87.298C245.063 84.7592 237.685 81.0215 235.849 83.4898C233.166 87.0159 239.344 90.4716 243.192 93.1514C251.7 99.1106 253.43 99.4985 253.889 106.057C254.187 110.162 258.002 114.143 262.528 114.935L286.69 128.126L287.135 128.592C294.071 135.857 298.807 144.934 300.797 154.775L300.851 155.046Z" fill="#FFF1ED"/>
<path d="M300.851 156.104C300.606 156.104 300.37 156.02 300.18 155.865C299.991 155.71 299.861 155.495 299.813 155.256L299.758 154.983C297.812 145.337 293.169 136.439 286.368 129.32L286.037 128.974L262.17 115.943C257.251 114.999 253.168 110.724 252.832 106.132C252.461 100.826 251.359 100.067 245.242 95.8583C244.439 95.3051 243.555 94.6968 242.583 94.0159C242.143 93.7099 241.67 93.3918 241.184 93.0639C238.119 91.0029 234.646 88.6668 234.185 85.89C234.099 85.3538 234.128 84.8055 234.269 84.2812C234.41 83.7568 234.661 83.2683 235.005 82.8476C236.85 80.3673 241.631 82.0669 246.741 84.3561C240.444 76.7619 236.718 71.1789 239.597 68.4099C239.948 68.0698 240.367 67.8073 240.826 67.6393C241.285 67.4713 241.774 67.4015 242.262 67.4345C244.461 67.5495 247.25 69.3972 251.3 73.5495C248.816 68.3919 247.998 65.0234 248.607 62.8019C248.732 62.3 248.96 61.8293 249.276 61.4194C249.592 61.0096 249.989 60.6693 250.443 60.42C250.869 60.1902 251.339 60.0512 251.822 60.0117C252.305 59.9722 252.791 60.033 253.25 60.1904C257.165 61.3809 261.767 68.5562 264.786 74.0245C265.96 70.2163 267.719 68.4116 270.024 68.6486C271.485 68.7914 273.009 70.3059 274.221 80.3271C274.775 84.9072 275.051 89.5987 275.139 91.3146L325.102 116.039C328.288 117.52 330.958 119.919 332.768 122.929C334.577 125.938 335.443 129.42 335.255 132.925C335.067 136.431 333.832 139.8 331.711 142.598C329.589 145.397 326.678 147.498 323.351 148.629L301.186 156.049C301.078 156.086 300.965 156.104 300.851 156.104ZM237.882 83.7073C237.326 83.7073 236.913 83.8314 236.699 84.1191C236.53 84.3121 236.404 84.5394 236.331 84.7854C236.258 85.0314 236.239 85.2904 236.276 85.5444C236.587 87.4217 239.792 89.5772 242.367 91.3093C242.864 91.6436 243.347 91.968 243.797 92.2821C244.766 92.9609 245.645 93.566 246.445 94.1157C252.795 98.4881 254.502 99.6616 254.945 105.982C255.21 109.639 258.694 113.188 262.711 113.891C262.825 113.911 262.935 113.949 263.036 114.005L287.198 127.196C287.294 127.248 287.381 127.315 287.457 127.394L287.901 127.86C294.762 135.042 299.516 143.968 301.644 153.665L322.673 146.625C325.601 145.628 328.164 143.778 330.03 141.313C331.896 138.849 332.98 135.882 333.143 132.796C333.306 129.711 332.54 126.647 330.943 124C329.347 121.353 326.994 119.244 324.187 117.945L273.643 92.9345C273.474 92.8506 273.33 92.723 273.226 92.5648C273.123 92.4066 273.064 92.2236 273.055 92.035C273.029 91.4669 272.784 86.3388 272.19 81.1914C271.163 72.2939 269.983 70.9367 269.747 70.7487C267.763 70.6408 266.676 74.7029 266.19 77.1554C266.148 77.3705 266.039 77.5671 265.88 77.718C265.72 77.8689 265.518 77.9665 265.301 77.9975C265.083 78.0285 264.862 77.9912 264.667 77.8909C264.471 77.7906 264.312 77.6321 264.211 77.4375C259.692 68.7353 255.363 63.0448 252.632 62.2148C252.445 62.1403 252.244 62.1069 252.043 62.1167C251.842 62.1266 251.646 62.1795 251.467 62.2719C251.262 62.3857 251.083 62.5416 250.942 62.7292C250.802 62.9169 250.702 63.1321 250.651 63.3608C249.633 67.0727 255.491 77.1162 257.415 80.4167C257.549 80.6455 257.591 80.9159 257.535 81.1745C257.478 81.4331 257.327 81.6611 257.11 81.8135C256.893 81.9659 256.627 82.0317 256.364 81.9978C256.102 81.9639 255.861 81.8328 255.69 81.6304C252.948 78.3761 245.664 69.7318 242.152 69.5477C241.954 69.5284 241.754 69.5531 241.566 69.6202C241.378 69.6872 241.208 69.795 241.067 69.9356C240.692 70.2956 240.143 71.6218 243.123 76.1465C245.285 79.4287 248.503 83.2023 251.343 86.5321L251.411 86.6118C251.568 86.7951 251.657 87.0263 251.664 87.2671C251.671 87.508 251.596 87.744 251.45 87.9361C251.305 88.1283 251.098 88.2651 250.864 88.3239C250.63 88.3827 250.383 88.36 250.164 88.2595C249.678 88.037 249.178 87.8054 248.669 87.5695C245.588 86.1396 240.341 83.7073 237.882 83.7073Z" fill="#3C4043"/>
<path d="M231.035 230.264L225.964 258.668L161.009 283.986L187.415 351.758L271.433 319.036C277.251 316.776 282.388 313.059 286.351 308.242C290.314 303.425 292.97 297.67 294.062 291.532L299.296 262.236L323.574 274.606L296.851 323.479L364.348 352.076L405.439 276.51C407.763 272.244 409.208 267.556 409.687 262.723C410.166 257.89 409.67 253.01 408.228 248.372C406.787 243.733 404.429 239.431 401.294 235.718C398.159 232.006 394.311 228.958 389.977 226.757L292.438 178.131" fill="white"/>
<path d="M241.814 244.493C241.814 242.735 241.115 241.049 239.87 239.805C238.625 238.562 236.937 237.864 235.177 237.864C233.417 237.864 231.729 238.562 230.484 239.805C229.239 241.049 228.54 242.735 228.54 244.493C228.542 247.705 227.839 250.878 226.481 253.789L225.61 258.668L222.156 260.014C220.098 262.111 217.642 263.777 214.931 264.915C212.221 266.052 209.31 266.637 206.371 266.637C205.991 266.637 205.613 266.627 205.238 266.608L186.613 273.866C192.448 277.802 199.329 279.902 206.371 279.895C225.893 279.895 241.778 264.028 241.814 244.493Z" fill="#E7F1FF"/>
<path d="M327.88 302.956C329.118 301.716 329.813 300.036 329.813 298.284C329.813 296.533 329.118 294.853 327.88 293.612L318.145 283.888L311.535 295.975L318.525 302.956C319.767 304.193 321.449 304.887 323.202 304.887C324.956 304.887 326.638 304.193 327.88 302.956Z" fill="#E7F1FF"/>
<path d="M288.024 279.895H287.988C286.219 279.922 284.532 280.644 283.293 281.905L276.445 288.922L269.384 281.87C268.138 280.628 266.449 279.93 264.689 279.93C262.929 279.93 261.24 280.628 259.994 281.87L248.168 293.682C247.242 294.608 246.612 295.787 246.358 297.07C246.104 298.354 246.236 299.684 246.739 300.892C247.242 302.1 248.092 303.132 249.182 303.857C250.272 304.582 251.553 304.968 252.863 304.966C254.634 304.965 256.333 304.268 257.593 303.026L264.724 295.904L271.855 303.026C273.106 304.262 274.792 304.958 276.55 304.966H276.586C278.355 304.939 280.042 304.217 281.281 302.956L288.13 295.939L291.431 299.236C292.472 296.76 293.236 294.176 293.707 291.531L295.028 284.14L292.719 281.834C291.468 280.599 289.783 279.902 288.024 279.895Z" fill="#E7F1FF"/>
<path d="M199.028 328.344C199.643 327.722 200.128 326.984 200.455 326.173C200.783 325.362 200.945 324.494 200.934 323.619L200.723 307.293H217.35C219.11 307.293 220.798 306.595 222.043 305.352C223.287 304.109 223.987 302.422 223.987 300.664C223.987 298.906 223.287 297.22 222.043 295.977C220.798 294.734 219.11 294.035 217.35 294.035H194.015C193.14 294.034 192.274 294.208 191.467 294.547C190.661 294.886 189.931 295.384 189.32 296.01C188.705 296.632 188.22 297.37 187.893 298.181C187.565 298.992 187.403 299.86 187.414 300.735L187.626 317.061H173.54L178.706 330.319H194.333C195.208 330.32 196.074 330.146 196.881 329.807C197.687 329.468 198.417 328.971 199.028 328.344Z" fill="#E7F1FF"/>
<path d="M240.861 321.398H240.826C239.057 321.425 237.37 322.147 236.131 323.408L221.546 338.328L249.618 327.393L245.558 323.338C244.308 322.102 242.621 321.405 240.861 321.398Z" fill="#E7F1FF"/>
<path d="M273.657 259.759C278.239 259.759 281.953 256.049 281.953 251.473C281.953 246.896 278.239 243.187 273.657 243.187C269.075 243.187 265.361 246.896 265.361 251.473C265.361 256.049 269.075 259.759 273.657 259.759Z" fill="#E7F1FF"/>
<path d="M268.008 202.955C267.314 202.955 266.627 202.92 265.949 202.855C264.214 205.34 262.331 207.718 260.312 209.979C259.12 211.334 258.094 212.838 256.832 214.132C256.764 214.203 256.691 214.266 256.624 214.334C260.289 215.58 264.136 216.216 268.008 216.214C269.768 216.214 271.456 215.515 272.701 214.272C273.946 213.029 274.645 211.343 274.645 209.584C274.645 207.826 273.946 206.14 272.701 204.897C271.456 203.654 269.768 202.955 268.008 202.955Z" fill="#E7F1FF"/>
<path d="M338.788 221.467L322.69 205C322.08 204.37 321.351 203.868 320.544 203.523C319.737 203.178 318.87 202.997 317.992 202.99C317.115 202.984 316.245 203.152 315.433 203.485C314.622 203.818 313.884 204.309 313.265 204.93L296.779 221.397C295.538 222.636 294.841 224.317 294.841 226.069C294.841 227.821 295.538 229.502 296.779 230.741C298.019 231.98 299.702 232.676 301.456 232.676C303.211 232.676 304.893 231.98 306.134 230.741L317.889 218.999L329.327 230.671C329.932 231.294 330.653 231.793 331.451 232.138C332.249 232.483 333.106 232.667 333.975 232.68C334.844 232.693 335.707 232.535 336.515 232.214C337.323 231.894 338.059 231.417 338.682 230.812C339.934 229.585 340.648 227.913 340.668 226.161C340.688 224.41 340.012 222.722 338.788 221.467Z" fill="#E7F1FF"/>
<path d="M294.237 186.876C295.698 186.876 297.133 186.491 298.397 185.759C299.661 185.027 300.709 183.974 301.435 182.707L293.143 178.484L286.158 180.47C286.583 182.292 287.613 183.917 289.08 185.08C290.547 186.243 292.364 186.876 294.237 186.876Z" fill="#E7F1FF"/>
<path d="M385.034 290.262C385.033 291.133 385.204 291.995 385.537 292.8C385.87 293.605 386.359 294.336 386.976 294.952C387.592 295.567 388.324 296.056 389.13 296.389C389.936 296.721 390.799 296.892 391.671 296.891H394.003L401.212 283.633H391.671C390.799 283.632 389.936 283.803 389.13 284.135C388.324 284.468 387.592 284.956 386.976 285.572C386.359 286.188 385.87 286.919 385.537 287.724C385.204 288.529 385.033 289.391 385.034 290.262Z" fill="#E7F1FF"/>
<path d="M364.559 334.022L370.509 340.094L377.111 327.953L369.36 320.023C368.751 319.392 368.022 318.889 367.215 318.544C366.409 318.199 365.542 318.018 364.665 318.013H364.629C362.869 318.014 361.181 318.711 359.934 319.953L343.448 336.42C342.65 337.22 342.07 338.211 341.765 339.298C341.459 340.386 341.438 341.534 341.703 342.632L351.482 346.775C351.964 346.495 352.407 346.156 352.803 345.764L364.559 334.022Z" fill="#E7F1FF"/>
<path d="M368.547 272.561C372.515 268.591 375.05 263.416 375.753 257.851C376.456 252.285 375.287 246.644 372.431 241.813C372.039 241.156 371.501 240.598 370.859 240.18C370.218 239.763 369.489 239.498 368.728 239.406C367.968 239.314 367.197 239.398 366.474 239.65C365.751 239.902 365.096 240.317 364.558 240.861L336.811 268.577C336.269 269.115 335.857 269.77 335.607 270.492C335.356 271.214 335.274 271.983 335.366 272.741C335.457 273.499 335.721 274.226 336.137 274.867C336.553 275.508 337.109 276.046 337.764 276.44C342.598 279.301 348.247 280.472 353.821 279.77C359.395 279.068 364.577 276.531 368.547 272.561Z" fill="#E7F1FF"/>
<mask id="path-50-inside-1" fill="white">
<path d="M187.062 351.758L173.294 357.435C171.815 358.037 170.564 359.091 169.72 360.447C168.877 361.802 168.485 363.389 168.599 364.981C168.734 366.902 169.592 368.7 171 370.015C172.408 371.33 174.262 372.063 176.189 372.069H184.626C186.018 372.067 187.396 372.339 188.681 372.87C189.967 373.401 191.135 374.18 192.119 375.163C193.103 376.146 193.883 377.312 194.415 378.597C194.946 379.881 195.219 381.257 195.217 382.647V383H148.195L119 299.36L160.656 283.986L187.062 351.758Z"/>
</mask>
<path d="M187.062 351.758L173.294 357.435C171.815 358.037 170.564 359.091 169.72 360.447C168.877 361.802 168.485 363.389 168.599 364.981C168.734 366.902 169.592 368.7 171 370.015C172.408 371.33 174.262 372.063 176.189 372.069H184.626C186.018 372.067 187.396 372.339 188.681 372.87C189.967 373.401 191.135 374.18 192.119 375.163C193.103 376.146 193.883 377.312 194.415 378.597C194.946 379.881 195.219 381.257 195.217 382.647V383H148.195L119 299.36L160.656 283.986L187.062 351.758Z" fill="#E7F1FF"/>
<path d="M173.294 357.435L174.048 359.288L174.057 359.284L173.294 357.435ZM176.189 372.069L176.184 374.069H176.189V372.069ZM184.626 372.069V374.069L184.629 374.069L184.626 372.069ZM195.217 382.647L193.217 382.644V382.647H195.217ZM195.217 383V385H197.217V383H195.217ZM148.195 383L146.306 383.659L146.774 385H148.195V383ZM119 299.36L118.308 297.483L116.464 298.164L117.112 300.019L119 299.36ZM160.656 283.986L162.52 283.26L161.807 281.429L159.964 282.11L160.656 283.986ZM186.3 349.909L172.532 355.586L174.057 359.284L187.825 353.607L186.3 349.909ZM172.541 355.583C170.67 356.344 169.089 357.676 168.022 359.39L171.419 361.503C172.039 360.507 172.959 359.731 174.048 359.288L172.541 355.583ZM168.022 359.39C166.956 361.104 166.459 363.112 166.604 365.125L170.594 364.837C170.51 363.667 170.798 362.5 171.419 361.503L168.022 359.39ZM166.604 365.121C166.774 367.546 167.857 369.817 169.635 371.477L172.365 368.553C171.326 367.583 170.694 366.257 170.594 364.841L166.604 365.121ZM169.635 371.477C171.412 373.136 173.752 374.062 176.184 374.069L176.195 370.069C174.772 370.065 173.403 369.523 172.365 368.553L169.635 371.477ZM176.189 374.069H184.626V370.069H176.189V374.069ZM184.629 374.069C185.757 374.067 186.875 374.288 187.918 374.719L189.445 371.022C187.916 370.39 186.278 370.066 184.624 370.069L184.629 374.069ZM187.918 374.719C188.961 375.149 189.908 375.781 190.706 376.578L193.533 373.748C192.363 372.579 190.973 371.653 189.445 371.022L187.918 374.719ZM190.706 376.578C191.503 377.375 192.136 378.321 192.567 379.362L196.262 377.832C195.63 376.304 194.702 374.916 193.533 373.748L190.706 376.578ZM192.567 379.362C192.997 380.403 193.218 381.518 193.217 382.644L197.217 382.65C197.219 380.997 196.895 379.359 196.262 377.832L192.567 379.362ZM193.217 382.647V383H197.217V382.647H193.217ZM195.217 381H148.195V385H195.217V381ZM150.083 382.341L120.888 298.701L117.112 300.019L146.306 383.659L150.083 382.341ZM119.692 301.236L161.349 285.862L159.964 282.11L118.308 297.483L119.692 301.236ZM158.793 284.712L185.199 352.484L188.926 351.032L162.52 283.26L158.793 284.712Z" fill="#3C4043" mask="url(#path-50-inside-1)"/>
<path d="M394.784 378.456L394.784 378.459L395.446 382H323.668L276.616 362.507L296.947 324.755L362.629 352.583C359.066 360.628 364.952 369.931 373.986 369.931H384.54C386.976 369.933 389.335 370.786 391.206 372.344C393.077 373.901 394.343 376.064 394.784 378.456Z" fill="#E7F1FF" stroke="#3C4043" stroke-width="2"/>
<path d="M363.996 353.134C363.854 353.134 363.714 353.105 363.583 353.05L296.086 324.453C295.95 324.395 295.827 324.31 295.726 324.202C295.625 324.094 295.548 323.966 295.499 323.827C295.451 323.687 295.432 323.539 295.444 323.392C295.456 323.245 295.499 323.102 295.57 322.972L321.771 275.055L299.736 263.826L294.752 291.717C293.61 298.027 290.87 303.941 286.794 308.895C282.718 313.849 277.441 317.679 271.465 320.022L187.446 352.744C187.316 352.795 187.178 352.819 187.039 352.816C186.899 352.813 186.762 352.783 186.635 352.726C186.507 352.67 186.392 352.59 186.296 352.489C186.2 352.389 186.124 352.27 186.074 352.14L159.668 284.368C159.566 284.107 159.573 283.816 159.686 283.559C159.798 283.302 160.009 283.101 160.27 282.999L224.673 257.897L229.64 230.079C229.69 229.803 229.847 229.557 230.077 229.397C230.308 229.236 230.592 229.174 230.869 229.223C231.146 229.272 231.391 229.429 231.552 229.66C231.712 229.89 231.775 230.174 231.726 230.45L226.655 258.853C226.623 259.031 226.546 259.198 226.431 259.338C226.316 259.478 226.167 259.587 225.997 259.652L162.028 284.586L187.665 350.387L270.696 318.049C276.335 315.839 281.314 312.225 285.159 307.551C289.005 302.877 291.589 297.298 292.667 291.345L297.902 262.049C297.931 261.886 297.997 261.732 298.097 261.6C298.196 261.468 298.325 261.361 298.473 261.287C298.621 261.214 298.784 261.176 298.95 261.177C299.115 261.177 299.278 261.217 299.426 261.292L323.703 273.662C323.83 273.727 323.942 273.816 324.033 273.924C324.124 274.032 324.192 274.158 324.234 274.293C324.276 274.428 324.29 274.57 324.276 274.711C324.262 274.851 324.22 274.988 324.152 275.112L297.988 322.96L363.524 350.726L404.157 276.005C406.413 271.863 407.816 267.311 408.281 262.619C408.746 257.926 408.265 253.188 406.865 248.685C405.466 244.181 403.176 240.004 400.133 236.399C397.089 232.795 393.353 229.836 389.145 227.699L291.613 179.077C291.487 179.015 291.375 178.93 291.283 178.825C291.191 178.72 291.12 178.598 291.075 178.466C291.031 178.333 291.012 178.194 291.022 178.054C291.032 177.915 291.069 177.779 291.131 177.654C291.193 177.529 291.28 177.418 291.386 177.327C291.491 177.235 291.614 177.166 291.747 177.122C291.88 177.078 292.02 177.061 292.159 177.072C292.299 177.083 292.434 177.121 292.559 177.184L390.098 225.809C394.56 228.074 398.521 231.21 401.748 235.031C404.975 238.852 407.403 243.28 408.887 248.054C410.371 252.828 410.882 257.851 410.389 262.825C409.896 267.8 408.409 272.625 406.017 277.016L364.926 352.581C364.835 352.748 364.7 352.888 364.537 352.985C364.373 353.082 364.186 353.134 363.996 353.134Z" fill="#3C4043"/>
<path d="M323.258 275.664C323.209 275.664 323.161 275.66 323.113 275.654C322.883 275.622 322.67 275.516 322.506 275.352C322.342 275.187 322.237 274.974 322.207 274.744L320.583 262.402C320.547 262.124 320.622 261.843 320.793 261.62C320.964 261.398 321.217 261.252 321.495 261.216C321.774 261.179 322.056 261.254 322.279 261.425C322.501 261.596 322.647 261.848 322.684 262.127L323.803 270.639L326.661 263.964C326.714 263.834 326.793 263.716 326.892 263.617C326.992 263.518 327.11 263.439 327.24 263.386C327.37 263.333 327.509 263.306 327.649 263.307C327.79 263.308 327.929 263.337 328.058 263.392C328.187 263.447 328.304 263.528 328.402 263.628C328.499 263.729 328.576 263.848 328.627 263.979C328.679 264.11 328.703 264.249 328.7 264.389C328.697 264.53 328.666 264.668 328.608 264.796L324.231 275.022C324.15 275.212 324.014 275.375 323.841 275.489C323.668 275.603 323.465 275.664 323.258 275.664Z" fill="#3C4043"/>
<path d="M244.824 138.413L274.505 128.342C276.987 127.494 279.612 127.146 282.23 127.317C284.847 127.489 287.405 128.176 289.755 129.34C292.105 130.504 294.201 132.121 295.921 134.098C297.642 136.075 298.954 138.373 299.781 140.86L301.158 144.985C302.381 148.628 302.11 152.607 300.403 156.05C298.696 159.493 295.692 162.12 292.05 163.356L291.35 163.594L292.085 178.131L291.26 178.408C260.843 195.197 262.201 231.023 220.952 231.023L215.314 188.049L215.279 187.987L191.404 196.114L185.138 168.627L192.905 154.875L244.824 138.413Z" fill="#FFED96"/>
<path d="M220.952 232.081C220.695 232.081 220.447 231.987 220.253 231.818C220.06 231.648 219.935 231.414 219.902 231.16L214.423 189.396L191.746 197.115C191.605 197.163 191.457 197.181 191.309 197.167C191.161 197.154 191.018 197.11 190.888 197.037C190.758 196.965 190.646 196.867 190.557 196.748C190.468 196.629 190.405 196.493 190.372 196.349L184.106 168.861C184.047 168.605 184.086 168.336 184.216 168.107L191.982 154.355C192.114 154.122 192.329 153.947 192.584 153.866L244.493 137.409L274.164 127.34C276.778 126.448 279.544 126.081 282.3 126.262C285.057 126.442 287.75 127.166 290.226 128.392C292.701 129.618 294.908 131.321 296.721 133.403C298.533 135.486 299.915 137.906 300.786 140.525L302.163 144.65C303.462 148.549 303.171 152.802 301.353 156.487C299.534 160.172 296.335 162.993 292.448 164.338L293.143 178.077C293.155 178.308 293.091 178.536 292.961 178.727C292.831 178.918 292.642 179.061 292.422 179.135L291.689 179.382C279.803 185.969 272.862 195.516 266.149 204.749C255.928 218.802 246.274 232.081 220.952 232.081ZM215.278 186.928C215.465 186.928 215.649 186.978 215.81 187.071C215.972 187.165 216.106 187.3 216.198 187.462L216.233 187.524C216.302 187.644 216.346 187.776 216.364 187.912L221.88 229.958C245.424 229.648 254.243 217.519 264.434 203.503C271.3 194.061 278.399 184.298 290.748 177.48C290.804 177.449 290.863 177.423 290.924 177.403L290.988 177.382L290.293 163.646C290.281 163.416 290.345 163.189 290.475 162.998C290.604 162.808 290.792 162.665 291.01 162.591L291.711 162.353C295.083 161.2 297.863 158.763 299.444 155.573C301.026 152.382 301.281 148.697 300.155 145.319L298.778 141.194C297.995 138.84 296.753 136.664 295.124 134.792C293.495 132.92 291.511 131.389 289.286 130.287C287.061 129.185 284.64 128.534 282.162 128.372C279.684 128.21 277.198 128.54 274.848 129.342L245.165 139.414L245.144 139.42L193.622 155.755L186.262 168.789L192.176 194.732L214.937 186.985C215.047 186.948 215.162 186.929 215.278 186.928Z" fill="#3C4043"/>
<path d="M223.387 193.681C223.202 193.682 223.019 193.633 222.858 193.54L214.774 188.886C214.53 188.746 214.353 188.514 214.28 188.243C214.207 187.972 214.245 187.683 214.385 187.44C214.526 187.197 214.757 187.02 215.029 186.947C215.3 186.874 215.589 186.912 215.833 187.052L223.917 191.707C224.119 191.823 224.277 192.003 224.367 192.218C224.456 192.433 224.472 192.672 224.412 192.897C224.351 193.122 224.218 193.321 224.033 193.463C223.848 193.605 223.621 193.682 223.387 193.681Z" fill="#3C4043"/>
<path d="M291.343 164.626C291.072 164.626 290.812 164.522 290.615 164.335C290.419 164.149 290.301 163.895 290.287 163.624L289.898 156.396C289.883 156.116 289.98 155.841 290.168 155.632C290.356 155.423 290.619 155.298 290.899 155.283C291.18 155.268 291.455 155.365 291.664 155.552C291.873 155.74 291.999 156.002 292.014 156.283L292.402 163.511C292.417 163.791 292.32 164.066 292.132 164.275C291.945 164.483 291.682 164.609 291.401 164.624C291.381 164.624 291.361 164.626 291.343 164.626Z" fill="#3C4043"/>
<path d="M259.572 195.339C259.32 195.339 259.075 195.249 258.883 195.086C258.691 194.922 258.564 194.695 258.525 194.446C258.485 194.196 258.537 193.941 258.669 193.727C258.801 193.512 259.006 193.351 259.247 193.274C263.21 191.995 266.236 188.37 269.739 184.172C273.772 179.339 278.344 173.861 285.5 170.878C285.628 170.823 285.767 170.793 285.907 170.792C286.047 170.79 286.186 170.816 286.316 170.869C286.446 170.921 286.564 170.999 286.664 171.097C286.764 171.196 286.843 171.313 286.897 171.442C286.951 171.571 286.979 171.71 286.979 171.85C286.978 171.99 286.951 172.129 286.896 172.258C286.842 172.387 286.763 172.504 286.663 172.602C286.563 172.701 286.445 172.778 286.315 172.831C279.638 175.614 275.244 180.88 271.366 185.525C267.807 189.791 264.445 193.819 259.898 195.286C259.793 195.32 259.683 195.338 259.572 195.339Z" fill="#3C4043"/>
<path d="M256.078 191.883C255.826 191.884 255.581 191.794 255.389 191.631C255.197 191.468 255.07 191.241 255.03 190.992C254.991 190.744 255.041 190.489 255.172 190.274C255.304 190.059 255.508 189.898 255.748 189.82C257.63 189.203 259.464 187.861 261.355 185.718C261.542 185.514 261.802 185.391 262.079 185.376C262.356 185.361 262.628 185.456 262.836 185.639C263.044 185.822 263.172 186.08 263.192 186.356C263.212 186.632 263.123 186.905 262.944 187.117C260.796 189.55 258.658 191.092 256.408 191.83C256.301 191.865 256.19 191.883 256.078 191.883Z" fill="#3C4043"/>
<path d="M264.162 87.8274C264.126 87.8274 264.09 87.8255 264.054 87.8218C263.774 87.7936 263.518 87.6558 263.34 87.4386C263.162 87.2213 263.078 86.9425 263.106 86.6634L264.095 76.8608C264.109 76.7225 264.15 76.5884 264.216 76.466C264.281 76.3436 264.371 76.2354 264.478 76.1475C264.586 76.0596 264.71 75.9937 264.843 75.9536C264.976 75.9136 265.116 75.9001 265.255 75.914C265.393 75.9279 265.527 75.9689 265.65 76.0346C265.772 76.1003 265.881 76.1895 265.969 76.2971C266.057 76.4046 266.123 76.5285 266.163 76.6615C266.203 76.7945 266.216 76.9341 266.202 77.0723L265.214 86.875C265.188 87.1357 265.066 87.3775 264.871 87.5535C264.677 87.7294 264.424 87.827 264.162 87.8274Z" fill="#3C4043"/>
<path d="M253.642 104.893H253.606C253.467 104.889 253.33 104.857 253.204 104.799C253.077 104.742 252.963 104.66 252.868 104.559C252.773 104.457 252.698 104.338 252.65 104.208C252.601 104.078 252.578 103.939 252.583 103.8L252.794 97.3121C252.799 97.1732 252.831 97.0365 252.888 96.9099C252.946 96.7833 253.027 96.6692 253.129 96.5742C253.231 96.4791 253.35 96.405 253.48 96.356C253.61 96.307 253.749 96.2841 253.888 96.2886C254.027 96.2932 254.164 96.325 254.291 96.3823C254.417 96.4397 254.532 96.5214 254.627 96.6228C254.722 96.7242 254.796 96.8434 254.845 96.9734C254.894 97.1035 254.917 97.2419 254.913 97.3809L254.701 103.869C254.692 104.144 254.577 104.404 254.379 104.595C254.181 104.787 253.917 104.893 253.642 104.893Z" fill="#3C4043"/>
<path d="M179.19 179.506C179.003 179.506 178.82 179.457 178.659 179.363C178.497 179.269 178.364 179.135 178.271 178.973C178.179 178.811 178.131 178.627 178.132 178.441C178.133 178.254 178.184 178.072 178.279 177.911L184.209 167.861C184.352 167.62 184.585 167.445 184.857 167.374C185.129 167.304 185.418 167.345 185.66 167.487C185.902 167.63 186.077 167.863 186.147 168.134C186.217 168.406 186.177 168.694 186.034 168.936L180.103 178.985C180.01 179.144 179.876 179.276 179.716 179.367C179.556 179.458 179.375 179.506 179.19 179.506Z" fill="#3C4043"/>
<path d="M246.648 106.038C246.371 106.038 246.105 105.929 245.907 105.736C245.709 105.543 245.595 105.279 245.589 105.003C245.554 103.275 245.199 101.568 244.543 99.9692C243.272 96.8729 241.672 94.5841 239.51 92.7664C239.401 92.6777 239.311 92.5683 239.245 92.4445C239.179 92.3208 239.138 92.1852 239.125 92.0456C239.112 91.906 239.127 91.7652 239.169 91.6313C239.211 91.4975 239.279 91.3733 239.369 91.266C239.46 91.1587 239.57 91.0704 239.695 91.0063C239.82 90.9422 239.956 90.9035 240.096 90.8924C240.236 90.8814 240.377 90.8983 240.51 90.9421C240.644 90.9859 240.767 91.0557 240.873 91.1475C243.309 93.1927 245.097 95.7417 246.503 99.1667C247.258 101.006 247.666 102.969 247.707 104.957C247.713 105.238 247.607 105.509 247.413 105.712C247.218 105.914 246.952 106.032 246.671 106.038H246.648Z" fill="#3C4043"/>
<path d="M221.826 122.883L221.829 122.89C221.865 122.958 221.892 123.032 221.907 123.108L226.059 144.082C226.084 144.212 226.142 144.334 226.226 144.436C226.31 144.539 226.418 144.619 226.54 144.67L238.391 149.617C239.342 150.014 240.384 150.142 241.403 149.986C242.421 149.83 243.377 149.397 244.165 148.734C244.953 148.07 245.543 147.203 245.87 146.226C246.196 145.25 246.247 144.203 246.016 143.199L244.851 138.157L243.115 129.377C243.085 129.218 243.103 129.053 243.168 128.904C243.233 128.755 243.341 128.629 243.478 128.543C245.2 127.434 246.679 125.988 247.826 124.293C248.973 122.598 249.765 120.688 250.154 118.679C250.542 116.67 250.519 114.604 250.087 112.604C249.654 110.604 248.82 108.712 247.636 107.042C247.602 106.994 247.573 106.942 247.551 106.888L246.736 104.878C246.701 104.792 245.503 104.191 245.503 104.098C245.503 102.335 245.115 101.148 244.444 99.5145C243.281 96.6816 240.561 93.52 238.443 91.4044L236.982 89.1751C236.887 89.1005 236.777 89.0481 236.659 89.0218C236.541 88.9955 236.419 88.996 236.301 89.0232L223.268 92.0271C223.156 92.0532 223.051 92.103 222.96 92.1731C222.868 92.2432 222.793 92.3321 222.739 92.4336L217.323 102.577C217.284 102.65 217.256 102.73 217.241 102.812L216.615 106.25C216.578 106.454 216.464 106.635 216.297 106.757L213.027 110.445C212.84 110.582 211.636 111.274 211.615 111.503L211.039 112.813C210.585 117.657 213 122.383 218.583 122.781C218.644 122.785 218.705 122.783 218.765 122.774L220.998 122.46C221.163 122.437 221.331 122.465 221.479 122.541C221.627 122.617 221.748 122.736 221.826 122.883Z" fill="#FFF1ED"/>
<path d="M244.11 102.071C244.792 102.071 245.345 101.518 245.345 100.837C245.345 100.155 244.792 99.6025 244.11 99.6025C243.427 99.6025 242.874 100.155 242.874 100.837C242.874 101.518 243.427 102.071 244.11 102.071Z" fill="#3C4043"/>
<path d="M240.897 100.944L247.075 105.281C247.24 105.395 247.38 105.54 247.488 105.709C247.595 105.878 247.668 106.067 247.7 106.264C247.733 106.462 247.726 106.663 247.68 106.858C247.633 107.053 247.547 107.236 247.428 107.397L245.557 109.935" fill="#FFF1ED"/>
<path d="M245.558 110.994C245.362 110.993 245.17 110.939 245.003 110.837C244.837 110.734 244.702 110.587 244.613 110.413C244.525 110.238 244.487 110.042 244.504 109.847C244.52 109.653 244.59 109.466 244.706 109.309L246.577 106.77C246.613 106.722 246.638 106.669 246.652 106.611C246.666 106.554 246.668 106.494 246.658 106.436C246.648 106.378 246.626 106.322 246.594 106.273C246.562 106.223 246.52 106.181 246.471 106.148L240.293 101.811C240.064 101.649 239.907 101.403 239.859 101.127C239.811 100.851 239.874 100.566 240.036 100.337C240.197 100.107 240.444 99.9512 240.72 99.903C240.997 99.8547 241.281 99.9183 241.511 100.08L247.689 104.417C247.969 104.611 248.208 104.86 248.39 105.148C248.573 105.437 248.695 105.759 248.751 106.095C248.806 106.432 248.794 106.776 248.714 107.107C248.634 107.439 248.489 107.751 248.286 108.025L246.415 110.564C246.316 110.698 246.187 110.807 246.038 110.881C245.889 110.956 245.725 110.994 245.558 110.994Z" fill="#3C4043"/>
<path d="M234.19 104.01C234.872 104.01 235.425 103.457 235.425 102.776C235.425 102.094 234.872 101.542 234.19 101.542C233.507 101.542 232.954 102.094 232.954 102.776C232.954 103.457 233.507 104.01 234.19 104.01Z" fill="#3C4043"/>
<path d="M242.91 115.859L243.758 114.202C243.95 113.827 244.228 113.503 244.569 113.256C244.911 113.009 245.306 112.846 245.723 112.78C246.139 112.715 246.565 112.749 246.966 112.88C247.367 113.01 247.731 113.234 248.029 113.532L248.841 114.343C248.984 114.482 249.089 114.656 249.145 114.848C249.201 115.039 249.205 115.242 249.159 115.436C249.114 115.616 249.027 115.783 248.905 115.923C248.783 116.063 248.629 116.171 248.457 116.24C248.285 116.309 248.098 116.336 247.913 116.319C247.729 116.302 247.55 116.241 247.394 116.141L247.147 115.965C246.888 115.797 246.573 115.736 246.27 115.795C245.967 115.855 245.699 116.029 245.523 116.282L244.958 117.093C244.867 117.226 244.75 117.338 244.613 117.423C244.477 117.508 244.324 117.564 244.165 117.588C244.006 117.611 243.843 117.601 243.688 117.558C243.533 117.516 243.388 117.441 243.263 117.34L243.193 117.305C242.996 117.126 242.863 116.889 242.812 116.629C242.761 116.368 242.796 116.099 242.91 115.859Z" fill="#3C4043"/>
<path d="M235.162 132.293C234.628 132.293 234.093 132.267 233.557 132.214C233.419 132.201 233.284 132.16 233.162 132.095C233.039 132.029 232.93 131.94 232.842 131.833C232.754 131.725 232.688 131.602 232.647 131.469C232.607 131.336 232.593 131.196 232.607 131.058C232.62 130.92 232.661 130.785 232.727 130.663C232.792 130.54 232.881 130.432 232.989 130.344C233.096 130.256 233.22 130.189 233.353 130.149C233.486 130.109 233.626 130.095 233.764 130.108C236.788 130.411 239.829 129.733 242.436 128.174C242.676 128.029 242.965 127.986 243.237 128.055C243.51 128.123 243.744 128.296 243.889 128.537C244.033 128.777 244.076 129.065 244.008 129.337C243.94 129.61 243.766 129.844 243.525 129.988C240.999 131.5 238.108 132.297 235.162 132.293Z" fill="#3C4043"/>
<path d="M240.526 151.347C239.64 151.347 238.762 151.169 237.945 150.825L225.697 145.712C225.537 145.645 225.396 145.54 225.286 145.406C225.176 145.271 225.101 145.112 225.067 144.942L220.839 123.584C220.749 123.415 220.663 123.243 220.58 123.07C220.47 122.819 220.461 122.536 220.556 122.279C220.652 122.022 220.843 121.812 221.089 121.693C221.336 121.574 221.62 121.555 221.88 121.641C222.141 121.726 222.358 121.909 222.486 122.151C222.579 122.344 222.676 122.534 222.778 122.722C222.828 122.815 222.864 122.916 222.884 123.02L227.033 143.978L238.761 148.873C239.532 149.195 240.377 149.299 241.204 149.173C242.03 149.046 242.805 148.695 243.444 148.157C244.083 147.619 244.562 146.916 244.827 146.124C245.092 145.332 245.133 144.483 244.946 143.669L243.781 138.627L241.93 129.27C241.888 129.056 241.913 128.834 242.002 128.635C242.091 128.435 242.24 128.268 242.427 128.156C244.526 126.902 246.265 125.126 247.476 123.003C248.686 120.879 249.326 118.479 249.335 116.036C249.341 113.087 248.414 110.211 246.687 107.82C246.526 107.592 246.463 107.31 246.509 107.035C246.556 106.76 246.709 106.515 246.936 106.352C247.162 106.19 247.444 106.123 247.719 106.167C247.995 106.211 248.242 106.361 248.407 106.586C250.393 109.337 251.458 112.644 251.451 116.036C251.442 118.718 250.772 121.357 249.498 123.719C248.225 126.081 246.388 128.093 244.15 129.576L245.853 138.186L247.011 143.196C247.235 144.171 247.236 145.183 247.014 146.159C246.792 147.134 246.354 148.047 245.731 148.83C245.108 149.614 244.316 150.246 243.415 150.682C242.514 151.118 241.526 151.346 240.525 151.349L240.526 151.347Z" fill="#3C4043"/>
<path d="M222.558 109.034C224.898 107.984 238.61 92.2497 238.61 92.2497L244.445 97.2678C243.018 93.1517 241.042 89.5709 237.309 87.3336C233.007 84.7643 227.86 84.0068 223 85.2279C218.139 86.449 213.963 89.5487 211.391 93.845C209.396 97.1779 207.799 100.932 208.084 104.804" fill="#3C4043"/>
<path d="M222.558 110.092C222.316 110.093 222.08 110.01 221.892 109.858C221.703 109.705 221.572 109.493 221.521 109.256C221.47 109.019 221.502 108.772 221.612 108.556C221.722 108.34 221.902 108.168 222.124 108.069C223.592 107.411 232.181 98.0165 237.811 91.5563C237.995 91.3456 238.255 91.2161 238.534 91.1963C238.814 91.1765 239.089 91.2679 239.301 91.4505L241.628 93.452C240.508 91.3073 238.827 89.5063 236.763 88.2407C232.702 85.821 227.845 85.1094 223.259 86.2618C218.672 87.4143 214.731 90.3368 212.299 94.3882C209.917 98.3667 208.913 101.652 209.139 104.726C209.15 104.865 209.132 105.004 209.089 105.136C209.045 105.268 208.976 105.39 208.885 105.495C208.794 105.6 208.683 105.687 208.559 105.749C208.435 105.811 208.299 105.849 208.161 105.859C208.022 105.869 207.883 105.852 207.751 105.808C207.619 105.765 207.496 105.696 207.391 105.605C207.286 105.514 207.2 105.404 207.137 105.279C207.075 105.155 207.037 105.02 207.027 104.882C206.767 101.352 207.865 97.6724 210.482 93.3021C213.202 88.7696 217.612 85.5002 222.743 84.2112C227.874 82.9221 233.307 83.7187 237.851 86.4261C242.276 89.0785 244.233 93.4301 245.445 96.9248C245.521 97.1447 245.523 97.3835 245.449 97.6043C245.376 97.8252 245.232 98.0157 245.039 98.1464C244.847 98.2771 244.616 98.3407 244.384 98.3274C244.151 98.314 243.929 98.2245 243.753 98.0726L238.715 93.74C235.351 97.58 225.234 108.994 222.991 110.001C222.855 110.061 222.707 110.093 222.558 110.092Z" fill="#3C4043"/>
<path d="M185.121 168.435L204.537 135.571L204.479 135.443C208.969 133.522 211.7 128.151 210.609 123.935C208.985 117.552 203.443 111.1 209.621 102.778C212.445 99.0402 217.175 93.8215 213.539 91.318C211.033 89.5902 205.208 95.4436 200.76 99.6044C204.043 91.4943 208.35 80.8454 204.749 79.1528C201.183 77.4603 197.336 84.9004 193.17 95.4436C195.712 83.1021 195.994 75.803 192.217 75.0978C186.004 73.9341 182.438 98.6876 182.438 107.961C182.438 111.875 182.503 114.912 182.579 117.125L134.004 179.648C132.021 182.069 130.768 185.002 130.389 188.107C130.01 191.212 130.522 194.36 131.864 197.186C133.207 200.012 135.325 202.399 137.972 204.069C140.619 205.74 143.687 206.625 146.818 206.623C148.627 206.605 150.424 206.32 152.149 205.776L190.613 192.624L185.121 168.435Z" fill="#FFF1ED"/>
<path d="M146.818 207.68C143.486 207.683 140.222 206.74 137.406 204.963C134.589 203.185 132.336 200.645 130.907 197.638C129.479 194.632 128.935 191.282 129.338 187.978C129.741 184.675 131.075 181.554 133.185 178.978L181.507 116.777C181.422 114.137 181.379 111.172 181.379 107.961C181.379 100.695 183.834 79.5406 189.364 74.9566C189.77 74.5846 190.255 74.3102 190.784 74.1544C191.312 73.9985 191.869 73.9652 192.412 74.0571C192.918 74.1487 193.4 74.3437 193.828 74.6299C194.256 74.9162 194.62 75.2875 194.897 75.7207C196.172 77.6156 196.46 81.0755 195.738 86.7899C198.258 81.567 200.319 78.9288 202.375 78.1185C202.825 77.9325 203.31 77.8433 203.797 77.8568C204.284 77.8702 204.763 77.9859 205.202 78.1964C208.809 79.8918 206.97 86.6073 203.491 95.5958C207.617 91.8101 211.61 88.7022 214.14 90.4476C214.598 90.7405 214.989 91.127 215.287 91.5816C215.585 92.0363 215.784 92.5488 215.869 93.0855C216.304 95.893 213.711 99.2291 211.421 102.173C211.089 102.601 210.765 103.017 210.464 103.415C206.113 109.276 207.99 113.977 209.978 118.953C210.63 120.49 211.184 122.067 211.634 123.674C212.834 128.313 210.003 133.91 205.405 136.181L186.247 168.609L191.646 192.388C191.703 192.643 191.665 192.909 191.538 193.137C191.41 193.365 191.203 193.538 190.956 193.622L152.491 206.775C150.656 207.356 148.744 207.662 146.818 207.68ZM191.793 76.1139C191.389 76.1365 191.008 76.3033 190.718 76.5839C186.474 80.1012 183.497 99.0401 183.497 107.961C183.497 111.306 183.544 114.379 183.638 117.089C183.646 117.336 183.568 117.578 183.416 117.773L134.84 180.295C132.979 182.559 131.8 185.306 131.441 188.214C131.082 191.122 131.558 194.072 132.814 196.72C134.069 199.368 136.052 201.606 138.531 203.172C141.011 204.738 143.885 205.568 146.818 205.565C148.522 205.548 150.214 205.278 151.839 204.765L189.37 191.929L184.088 168.667C184.028 168.404 184.071 168.128 184.209 167.896L203.422 135.376C203.434 135.181 203.5 134.992 203.613 134.833C203.726 134.673 203.881 134.547 204.062 134.47C207.984 132.791 210.564 127.991 209.583 124.198C209.156 122.678 208.631 121.188 208.011 119.735C205.995 114.686 203.709 108.963 208.769 102.147C209.082 101.733 209.411 101.31 209.75 100.874C211.675 98.3969 214.071 95.314 213.776 93.4078C213.733 93.1561 213.635 92.9167 213.491 92.7062C213.346 92.4956 213.157 92.3187 212.938 92.1877C211.341 91.0851 205.653 96.4473 202.598 99.3278C202.219 99.6847 201.846 100.036 201.483 100.375C201.307 100.54 201.08 100.64 200.84 100.658C200.599 100.676 200.359 100.612 200.161 100.475C199.962 100.339 199.815 100.139 199.746 99.9082C199.676 99.6775 199.687 99.4299 199.778 99.2065C201.424 95.1395 203.29 90.5298 204.312 86.6983C205.72 81.4189 204.771 80.3315 204.297 80.1086C204.12 80.0203 203.925 79.9725 203.727 79.9687C203.529 79.9649 203.333 80.0051 203.152 80.0864C200.204 81.2476 196.605 89.6281 194.155 95.8306C194.057 96.0769 193.871 96.2778 193.633 96.3936C193.395 96.5094 193.121 96.5317 192.867 96.4562C192.613 96.3806 192.397 96.2126 192.261 95.9855C192.125 95.7583 192.079 95.4884 192.132 95.229C192.905 91.4751 195.258 80.0511 193.139 76.9002C193.017 76.7013 192.855 76.5305 192.662 76.3988C192.47 76.2672 192.251 76.1778 192.022 76.1364C191.946 76.1219 191.87 76.1143 191.793 76.1139Z" fill="#3C4043"/>
<path d="M219.01 124.111C217.686 124.11 216.38 123.8 215.197 123.204C214.015 122.609 212.989 121.745 212.201 120.681C211.413 119.618 210.886 118.384 210.662 117.081C210.438 115.777 210.523 114.439 210.91 113.174C211.297 111.909 211.976 110.752 212.891 109.796C213.807 108.841 214.479 107.185 215.727 106.744C216.976 106.302 218.766 107.086 220.08 107.253C221.394 107.419 222.65 107.891 223.748 108.631C223.865 108.708 223.966 108.807 224.045 108.923C224.123 109.039 224.178 109.17 224.205 109.307C224.233 109.445 224.233 109.586 224.205 109.723C224.178 109.861 224.123 109.991 224.044 110.107C223.966 110.223 223.865 110.323 223.748 110.4C223.63 110.476 223.499 110.529 223.361 110.555C223.223 110.581 223.082 110.579 222.945 110.549C222.807 110.52 222.678 110.464 222.562 110.384C221.661 109.778 220.619 109.412 219.537 109.323C218.454 109.234 217.366 109.423 216.378 109.873C215.389 110.323 214.533 111.019 213.89 111.894C213.247 112.769 212.84 113.794 212.707 114.87C212.574 115.947 212.719 117.041 213.129 118.045C213.54 119.05 214.201 119.933 215.05 120.61C215.899 121.287 216.908 121.735 217.98 121.911C219.052 122.088 220.151 121.986 221.173 121.618C221.437 121.522 221.729 121.535 221.983 121.654C222.237 121.773 222.434 121.989 222.53 122.252C222.625 122.516 222.612 122.807 222.493 123.061C222.374 123.315 222.158 123.512 221.894 123.607C220.969 123.941 219.994 124.112 219.01 124.111Z" fill="#3C4043"/>
<path d="M182.472 125.275H182.456C182.176 125.271 181.908 125.155 181.712 124.954C181.517 124.753 181.409 124.482 181.413 124.201L181.519 117.11C181.523 116.829 181.639 116.562 181.84 116.366C182.042 116.171 182.313 116.063 182.594 116.067C182.875 116.072 183.142 116.187 183.338 116.388C183.534 116.59 183.641 116.86 183.637 117.141L183.531 124.233C183.527 124.511 183.414 124.776 183.216 124.971C183.017 125.166 182.75 125.275 182.472 125.275Z" fill="#3C4043"/>
</svg>
