<svg width="418" height="236" viewBox="0 0 418 236" fill="none" xmlns="http://www.w3.org/2000/svg">
<g clip-path="url(#clip0)">
<path d="M295.381 211.868L334.937 144.181C340.922 133.938 337.485 120.749 327.259 114.723L140.546 4.69549C130.319 -1.33062 117.177 2.08791 111.191 12.3309L71.6359 80.0182C65.6501 90.2612 69.0876 103.45 79.3138 109.476L266.027 219.503C276.253 225.53 289.396 222.111 295.381 211.868Z" fill="white"/>
<path d="M295.937 212.196L335.492 144.508C341.648 133.975 338.1 120.365 327.585 114.168L140.871 4.14124C130.356 -2.05536 116.793 1.47243 110.638 12.0052L71.0828 79.6927C64.9276 90.2255 68.475 103.836 78.9905 110.033L265.704 220.06C276.219 226.256 289.782 222.729 295.937 212.196ZM111.746 12.6584C117.544 2.73775 130.318 -0.584957 140.222 5.25152L326.936 115.279C336.84 121.115 340.181 133.934 334.384 143.855L294.829 211.542C289.031 221.463 276.257 224.786 266.353 218.949L79.6393 108.922C69.7349 103.086 66.3938 90.2665 72.1911 80.346L111.746 12.6584Z" fill="#3C4043"/>
<path d="M76.8203 71.6023L77.0065 71.713C82.0277 74.7189 88.5188 73.089 91.5196 68.0685L110.685 36.0018C113.686 30.982 112.065 24.4648 107.06 21.4318L106.379 21.0303L76.8203 71.6023Z" fill="white"/>
<path d="M111.294 36.2368C114.391 30.9378 112.655 24.07 107.392 20.88L106.703 20.4743C106.397 20.2938 106.003 20.3962 105.824 20.7031L76.2662 71.2746C76.0874 71.5806 76.1893 71.9746 76.494 72.1559L76.6804 72.2666C81.9914 75.4462 88.8966 73.7123 92.0715 68.4001L111.237 36.3336C111.256 36.3015 111.275 36.269 111.294 36.2368ZM106.608 21.9125L106.735 21.9872C111.418 24.8254 112.949 30.9636 110.133 35.6692L90.9683 67.7356C88.2289 72.3187 82.3544 73.8944 77.703 71.3685L106.608 21.9125Z" fill="#3C4043"/>
<path d="M103.65 38.15C103.827 37.8468 103.729 37.4557 103.427 37.2724C103.124 37.0874 102.728 37.184 102.545 37.4884L88.7386 60.3343C88.5511 60.6368 88.652 61.0351 88.9559 61.2201C89.2598 61.4051 89.655 61.3085 89.8389 61.0041L103.645 38.1582C103.646 38.1556 103.648 38.1528 103.65 38.15Z" fill="#3C4043"/>
<path d="M188.857 175.002C189.013 175.002 189.164 174.947 189.282 174.846C189.401 174.746 189.481 174.607 189.508 174.453L196.377 134.965C196.393 134.878 196.393 134.789 196.374 134.703C196.356 134.617 196.321 134.536 196.271 134.464C196.221 134.391 196.158 134.33 196.084 134.282C196.01 134.235 195.927 134.203 195.841 134.188C195.755 134.172 195.666 134.175 195.58 134.194C195.495 134.214 195.414 134.25 195.343 134.301C195.271 134.352 195.211 134.417 195.165 134.492C195.119 134.567 195.088 134.65 195.074 134.737L188.205 174.226C188.175 174.399 188.215 174.577 188.316 174.721C188.417 174.864 188.57 174.962 188.743 174.992C188.781 174.999 188.819 175.002 188.857 175.002Z" fill="#3C4043"/>
<path d="M186.834 134.39L174.265 90.3263C174.034 89.4607 174.003 88.5532 174.177 87.6741C174.351 86.795 174.724 85.9677 175.268 85.256C175.812 84.5443 176.511 83.9674 177.313 83.5697C178.115 83.1719 178.997 82.9641 179.891 82.9622L206.544 82.9326C208.489 82.9305 210.382 83.5612 211.938 84.73C213.494 85.8988 214.63 87.5423 215.173 89.4134L228.059 134.39H186.834Z" fill="white"/>
<path d="M186.834 135.055H228.059C228.162 135.055 228.263 135.031 228.354 134.985C228.446 134.939 228.526 134.873 228.588 134.791C228.649 134.709 228.691 134.614 228.71 134.513C228.728 134.412 228.723 134.308 228.695 134.209L215.81 89.233C215.22 87.2293 214.001 85.4698 212.333 84.2158C210.666 82.9618 208.639 82.2803 206.554 82.2725H206.544L179.891 82.3021C178.895 82.3041 177.913 82.5354 177.02 82.9781C176.128 83.4208 175.349 84.0631 174.743 84.8554C174.138 85.6477 173.723 86.5688 173.529 87.5475C173.335 88.5262 173.369 89.5365 173.627 90.5002L186.198 134.574C186.238 134.713 186.321 134.834 186.436 134.921C186.551 135.008 186.69 135.055 186.834 135.055ZM227.181 133.729H187.333L174.902 90.1465C174.698 89.3794 174.673 88.5757 174.828 87.7972C174.983 87.0188 175.315 86.2865 175.797 85.6567C176.279 85.0269 176.899 84.5164 177.61 84.1645C178.32 83.8127 179.101 83.6289 179.893 83.6273L206.545 83.5977H206.554C208.353 83.6043 210.101 84.1919 211.54 85.2735C212.978 86.355 214.03 87.8727 214.539 89.601L227.181 133.729Z" fill="#3C4043"/>
<path d="M186.834 135.054H252.309C252.485 135.054 252.653 134.984 252.777 134.86C252.901 134.735 252.971 134.567 252.971 134.391C252.971 134.215 252.901 134.047 252.777 133.923C252.653 133.798 252.485 133.729 252.309 133.729H186.834C186.659 133.729 186.491 133.798 186.367 133.923C186.243 134.047 186.173 134.215 186.173 134.391C186.173 134.567 186.243 134.735 186.367 134.86C186.491 134.984 186.659 135.054 186.834 135.054Z" fill="#3C4043"/>
<path d="M252.751 175.034C252.791 175.034 252.832 175.03 252.871 175.023C253.044 174.991 253.196 174.892 253.296 174.747C253.395 174.602 253.433 174.424 253.401 174.251L246.126 134.714C246.111 134.628 246.08 134.545 246.033 134.471C245.986 134.397 245.925 134.333 245.853 134.282C245.781 134.232 245.7 134.197 245.614 134.178C245.529 134.16 245.44 134.158 245.354 134.174C245.268 134.19 245.186 134.223 245.113 134.271C245.039 134.319 244.976 134.381 244.927 134.454C244.878 134.526 244.843 134.608 244.826 134.694C244.809 134.78 244.808 134.868 244.825 134.954L252.1 174.492C252.128 174.644 252.209 174.782 252.328 174.881C252.446 174.98 252.596 175.034 252.751 175.034Z" fill="#3C4043"/>
<path d="M189.063 173.657L189.217 173.747L210.633 223.218H177.85L156.91 154.866L189.063 173.657Z" fill="#FFDA2D"/>
<path d="M140.935 92.874C137.101 93.7949 130.209 93.4553 122.587 91.7487C111.4 89.2437 102.881 84.7417 103.559 81.6933C104.237 78.6449 113.855 78.2045 125.042 80.7088C126.89 81.1225 128.664 81.5909 130.336 82.0981C129.126 80.9517 127.91 79.7086 126.711 78.3789C118.775 69.5741 114.608 60.3783 117.404 57.8398C120.201 55.3014 128.903 60.3811 136.839 69.186C137.095 69.4699 137.347 69.7543 137.595 70.0392C137.177 66.1495 136.971 62.2398 136.978 58.3275C136.978 41.682 140.507 28.1875 144.86 28.1875C149.213 28.1875 152.741 41.682 152.741 58.3281C152.741 65.0227 152.17 71.2046 151.205 76.2065C154.045 73.2377 157.103 70.4857 160.351 67.9733C171.156 59.5483 181.735 55.0688 183.98 57.9683C186.226 60.8677 179.287 70.0479 168.482 78.473C161.417 83.9822 154.448 87.8042 149.843 88.979" fill="white"/>
<path d="M135.739 94.0284C137.827 94.0284 139.651 93.8595 141.089 93.5145C141.257 93.4738 141.403 93.3676 141.494 93.2192C141.584 93.0707 141.613 92.8922 141.572 92.7229C141.532 92.5536 141.426 92.4074 141.278 92.3164C141.13 92.2254 140.952 92.1971 140.783 92.2377C136.909 93.1684 129.991 92.7363 122.73 91.1101C117.374 89.911 112.473 88.219 108.929 86.3461C105.146 84.3471 104.005 82.7067 104.198 81.8393C104.391 80.9719 106.119 79.9731 110.39 79.7776C114.391 79.5942 119.544 80.1539 124.9 81.3527C126.692 81.754 128.457 82.2173 130.147 82.7297C130.288 82.7725 130.44 82.7661 130.577 82.7118C130.714 82.6575 130.829 82.5583 130.902 82.4304C130.976 82.3024 131.005 82.1532 130.984 82.0069C130.962 81.8606 130.893 81.7258 130.786 81.6242C129.561 80.4647 128.354 79.2258 127.196 77.9416C118.986 68.8333 115.677 60.2954 117.843 58.3297C120.009 56.364 128.144 60.521 136.353 69.6292C136.607 69.9106 136.856 70.1923 137.102 70.4744C137.194 70.5796 137.316 70.6527 137.452 70.683C137.588 70.7133 137.73 70.6993 137.858 70.6431C137.985 70.5868 138.092 70.4911 138.161 70.37C138.231 70.249 138.26 70.1088 138.244 69.9699C137.828 66.1045 137.623 62.219 137.631 58.331C137.633 40.9546 141.442 28.8459 144.86 28.8459C148.279 28.8459 152.088 40.9546 152.088 58.3302C152.088 64.7773 151.561 70.9163 150.564 76.0835C150.537 76.223 150.556 76.3674 150.617 76.4951C150.679 76.6229 150.781 76.727 150.907 76.792C151.032 76.857 151.176 76.8792 151.315 76.8554C151.455 76.8316 151.583 76.7631 151.68 76.66C154.499 73.7166 157.532 70.9869 160.753 68.4936C165.935 64.453 171.218 61.199 175.63 59.3308C179.675 57.6185 182.603 57.2606 183.465 58.373C184.327 59.4855 183.257 62.2454 180.605 65.7539C177.711 69.5824 173.263 73.9161 168.082 77.9569C161.387 83.1771 154.337 87.1575 149.683 88.345C149.598 88.3651 149.519 88.4018 149.449 88.4531C149.378 88.5044 149.319 88.5691 149.274 88.6437C149.229 88.7182 149.199 88.8009 149.187 88.8871C149.174 88.9732 149.178 89.0611 149.2 89.1455C149.221 89.2299 149.259 89.3092 149.311 89.3788C149.363 89.4483 149.429 89.5068 149.504 89.5506C149.579 89.5945 149.662 89.623 149.748 89.6344C149.834 89.6458 149.922 89.6398 150.005 89.617C154.895 88.37 161.953 84.3979 168.884 78.9933C174.154 74.8844 178.686 70.4643 181.647 66.5471C183.856 63.6243 186.144 59.6936 184.497 57.5675C182.851 55.4415 178.49 56.6953 175.122 58.1215C170.608 60.0327 165.22 63.3482 159.951 67.457C157.243 69.5607 154.662 71.8229 152.22 74.2321C153.029 68.9708 153.423 63.6536 153.397 58.3302C153.397 50.2248 152.569 42.5965 151.067 36.8511C149.954 32.6003 147.976 27.5332 144.86 27.5332C141.745 27.5332 139.766 32.6003 138.655 36.8511C137.152 42.5965 136.325 50.2248 136.325 58.3302C136.325 61.6932 136.466 64.9752 136.747 68.1144C133.029 64.0912 129.067 60.7636 125.524 58.6944C121.53 56.3625 118.569 55.8998 116.966 57.3557C115.364 58.8117 115.525 61.8126 117.438 66.0339C119.223 69.9732 122.344 74.5145 126.227 78.8217C126.825 79.4851 127.434 80.1351 128.055 80.7719C127.111 80.5218 126.152 80.2875 125.185 80.0718C119.72 78.848 114.445 78.2779 110.331 78.466C105.887 78.6695 103.325 79.7371 102.922 81.5531C102.032 85.5543 112.316 90.1239 122.445 92.3919C127.251 93.4676 131.933 94.0284 135.739 94.0284Z" fill="#3C4043"/>
<path d="M189.002 174.141L153.72 92.8683C153.398 92.0256 152.914 91.255 152.294 90.6006C151.675 89.9463 150.933 89.4211 150.111 89.0553C149.289 88.6894 148.403 88.4901 147.504 88.4687C146.605 88.4474 145.71 88.6044 144.872 88.9308C144.033 89.2571 143.267 89.7465 142.618 90.3707C141.968 90.9949 141.448 91.7416 141.087 92.5681C140.726 93.3946 140.531 94.2844 140.514 95.1867C140.496 96.0889 140.656 96.9858 140.985 97.8257L158.065 156.055L189.002 174.141Z" fill="white"/>
<path d="M189.002 174.796C189.11 174.796 189.217 174.769 189.313 174.717C189.409 174.665 189.49 174.59 189.549 174.499C189.609 174.408 189.645 174.303 189.654 174.195C189.663 174.086 189.645 173.977 189.602 173.877L154.324 92.6155C153.608 90.7579 152.185 89.2619 150.37 88.4566C148.554 87.6513 146.495 87.6027 144.643 88.3214C142.792 89.0401 141.301 90.4674 140.499 92.2891C139.696 94.1108 139.648 96.1779 140.364 98.0355L157.437 156.239C157.484 156.4 157.591 156.537 157.735 156.621L188.673 174.707C188.773 174.765 188.886 174.796 189.002 174.796ZM147.357 89.1628C148.6 89.1652 149.813 89.5426 150.839 90.2458C151.865 90.949 152.656 91.9455 153.11 93.106C153.113 93.1137 153.117 93.1213 153.12 93.1279L187.604 172.562L158.619 155.617L141.613 97.6388C141.608 97.6211 141.602 97.6036 141.595 97.5863C141.236 96.6476 141.11 95.6354 141.227 94.6369C141.345 93.6385 141.703 92.6836 142.27 91.8547C142.837 91.0258 143.596 90.3477 144.483 89.8789C145.369 89.4101 146.356 89.1645 147.358 89.1635L147.357 89.1628Z" fill="#3C4043"/>
<path d="M150.36 94.3077C149.546 95.9849 149.36 97.8999 149.836 99.7031C151.077 99.3671 152.374 99.2983 153.643 99.5011C154.912 99.704 156.124 100.174 157.199 100.88L158.518 103.917C157.478 102.486 155.985 101.45 154.283 100.98C152.581 100.509 150.77 100.632 149.146 101.328C147.523 102.024 146.182 103.252 145.344 104.811C144.506 106.37 144.219 108.168 144.531 109.912L143.421 106.128C143.569 105.584 143.766 105.056 144.01 104.548C144.95 102.585 146.563 101.027 148.554 100.158C147.884 98.6271 146.743 97.3508 145.299 96.5156C143.854 95.6805 142.182 95.3302 140.525 95.5158C140.524 95.4593 140.521 95.4029 140.521 95.3464C140.524 94.9572 140.559 94.569 140.627 94.1858C142.055 94.066 143.492 94.2845 144.821 94.8238C146.149 95.363 147.333 96.2079 148.277 97.2905C148.344 95.9266 148.714 94.5949 149.358 93.3921C150.002 92.1893 150.905 91.1456 152.002 90.3369C152.325 90.6369 152.618 90.9677 152.877 91.3247C151.799 92.0881 150.932 93.1147 150.36 94.3077Z" fill="#3C4043"/>
<path d="M158.065 156.052L157.642 154.61C158.475 155.104 159.225 155.728 159.863 156.459C159.943 154.755 160.497 153.108 161.46 151.703C162.424 150.297 163.76 149.191 165.317 148.507C164.545 146.676 163.108 145.208 161.297 144.401C159.487 143.594 157.438 143.508 155.566 144.162C155.265 144.268 154.971 144.392 154.686 144.534L154.314 143.265C154.389 143.23 154.462 143.191 154.539 143.158C154.375 142.779 154.182 142.413 153.962 142.064L153.11 139.161C153.524 139.495 153.908 139.865 154.257 140.267C154.339 138.566 154.891 136.921 155.852 135.518C156.813 134.114 158.145 133.007 159.698 132.321C158.907 130.52 157.47 129.085 155.671 128.3C153.873 127.515 151.846 127.438 149.994 128.085C149.954 128.099 149.914 128.115 149.874 128.13L148.692 124.1C148.789 122.415 149.347 120.79 150.306 119.403C151.265 118.016 152.587 116.922 154.127 116.242C153.382 114.551 152.067 113.179 150.413 112.366C148.759 111.554 146.872 111.354 145.084 111.801L144.715 110.541C146.352 110.121 148.073 110.164 149.687 110.667C151.301 111.171 152.744 112.113 153.856 113.39C153.938 111.708 154.48 110.081 155.423 108.689C156.366 107.296 157.673 106.191 159.201 105.495L159.722 106.695C158.053 107.46 156.706 108.791 155.917 110.453C155.129 112.116 154.95 114.005 155.411 115.787C157.062 115.342 158.803 115.37 160.438 115.869C162.073 116.368 163.536 117.317 164.66 118.609C164.667 118.454 164.679 118.3 164.694 118.146L166.516 122.343C166.336 122.392 166.156 122.445 165.976 122.508C164.127 123.156 162.587 124.477 161.663 126.21C160.738 127.943 160.496 129.961 160.984 131.865C162.634 131.42 164.375 131.449 166.01 131.948C167.645 132.447 169.107 133.396 170.231 134.687C170.274 133.799 170.447 132.922 170.744 132.084L171.603 134.064C171.464 135.092 171.532 136.138 171.801 137.139C172.146 137.049 172.495 136.979 172.848 136.929L173.393 138.183C172.258 138.289 171.159 138.643 170.175 139.221C169.19 139.799 168.344 140.586 167.695 141.527C167.046 142.468 166.611 143.54 166.419 144.668C166.228 145.796 166.285 146.952 166.586 148.056C168.238 147.609 169.981 147.636 171.617 148.135C173.254 148.633 174.718 149.583 175.843 150.875C175.902 149.641 176.21 148.432 176.748 147.322C176.853 147.105 176.966 146.894 177.086 146.689L177.764 148.252C177.082 149.856 176.958 151.645 177.412 153.329C178.204 153.12 179.021 153.02 179.839 153.031L180.421 154.373C179.166 154.259 177.901 154.452 176.736 154.936C175.571 155.42 174.54 156.18 173.732 157.151C172.924 158.122 172.362 159.275 172.095 160.511C171.828 161.748 171.863 163.031 172.198 164.251C173.858 163.787 175.614 163.803 177.265 164.299C178.916 164.794 180.393 165.748 181.527 167.05C181.624 165.083 182.348 163.199 183.591 161.675L184.191 163.057C183.973 163.379 183.778 163.717 183.609 164.068C183.16 164.993 182.898 165.999 182.838 167.026C182.779 168.053 182.923 169.082 183.263 170.053C183.301 170.164 183.31 170.283 183.287 170.398C183.264 170.513 183.21 170.619 183.132 170.706L181.81 169.934C181.146 168.407 180.014 167.132 178.58 166.293C177.145 165.454 175.482 165.095 173.83 165.269L169.94 162.993C168.686 161.356 166.842 160.278 164.804 159.993L162.566 158.684C164.054 158.492 165.567 158.671 166.97 159.204C168.374 159.738 169.625 160.61 170.613 161.743C170.696 160.029 171.258 158.373 172.233 156.963C173.209 155.554 174.559 154.447 176.13 153.77C175.382 152.037 174.035 150.633 172.336 149.818C170.638 149.003 168.704 148.832 166.889 149.335C165.075 149.838 163.503 150.982 162.463 152.557C161.423 154.132 160.985 156.03 161.23 157.903L158.065 156.052ZM164.948 121.501C164.165 119.687 162.727 118.237 160.922 117.442C159.118 116.648 157.081 116.567 155.22 117.218C153.359 117.868 151.812 119.201 150.89 120.948C149.968 122.695 149.739 124.728 150.248 126.638C151.891 126.207 153.621 126.243 155.244 126.744C156.867 127.245 158.319 128.19 159.436 129.474C159.519 127.76 160.08 126.105 161.054 124.696C162.029 123.286 163.378 122.179 164.948 121.501ZM170.519 137.579C169.738 135.775 168.31 134.332 166.517 133.535C164.725 132.739 162.7 132.647 160.844 133.279C160.818 133.293 160.791 133.304 160.764 133.314C160.745 133.321 160.726 133.323 160.708 133.328C158.871 133.996 157.35 135.331 156.446 137.068C155.541 138.806 155.318 140.82 155.82 142.715C157.463 142.284 159.193 142.321 160.816 142.822C162.439 143.323 163.89 144.268 165.008 145.551C165.091 143.838 165.652 142.182 166.626 140.773C167.601 139.364 168.949 138.257 170.519 137.579Z" fill="#3C4043"/>
<path d="M140.521 90.0641C140.67 90.0643 140.815 90.0133 140.931 89.9197C141.047 89.826 141.128 89.6952 141.16 89.549C141.193 89.4028 141.174 89.25 141.108 89.1159C141.041 88.9819 140.931 88.8746 140.796 88.8118C135.797 86.4911 130.864 81.6734 130.815 81.6251C130.691 81.5032 130.524 81.4358 130.35 81.4375C130.177 81.4393 130.011 81.5101 129.89 81.6345C129.768 81.7588 129.701 81.9265 129.703 82.1006C129.704 82.2746 129.775 82.4409 129.899 82.5627C130.106 82.7666 135.039 87.5856 140.246 90.0033C140.332 90.0433 140.426 90.064 140.521 90.0641Z" fill="#3C4043"/>
<path d="M147.637 81.0492C147.731 81.0494 147.825 81.029 147.911 80.9894C147.996 80.9498 148.073 80.892 148.134 80.8199L151.775 76.556C151.834 76.491 151.879 76.4148 151.908 76.3319C151.937 76.249 151.949 76.1612 151.944 76.0735C151.939 75.9858 151.916 75.9001 151.877 75.8214C151.838 75.7428 151.783 75.6729 151.717 75.6157C151.65 75.5586 151.573 75.5154 151.489 75.4888C151.406 75.4622 151.318 75.4527 151.231 75.4608C151.144 75.4689 151.059 75.4945 150.982 75.5361C150.905 75.5777 150.837 75.6343 150.782 75.7028L147.141 79.9667C147.059 80.062 147.007 80.1787 146.99 80.303C146.972 80.4273 146.991 80.5539 147.043 80.6679C147.095 80.782 147.179 80.8786 147.284 80.9463C147.39 81.014 147.512 81.05 147.637 81.0501L147.637 81.0492Z" fill="#3C4043"/>
<path d="M148.411 44.0328C148.496 44.0327 148.581 44.0159 148.66 43.9834L151.749 42.7101C151.908 42.6428 152.034 42.5154 152.099 42.3555C152.165 42.1956 152.165 42.0162 152.099 41.8562C152.034 41.6963 151.908 41.5687 151.75 41.5012C151.591 41.4338 151.412 41.4319 151.252 41.4959L148.163 42.7692C148.022 42.8269 147.906 42.9316 147.835 43.0656C147.763 43.1995 147.74 43.3544 147.769 43.5036C147.798 43.6528 147.878 43.7872 147.996 43.8837C148.113 43.9802 148.26 44.033 148.411 44.0328Z" fill="#3C4043"/>
<path d="M138.818 51.8769C138.968 51.8771 139.114 51.8254 139.23 51.7304C139.347 51.6355 139.428 51.5032 139.459 51.3557C139.49 51.2082 139.469 51.0545 139.4 50.9205C139.332 50.7864 139.219 50.6802 139.081 50.6196L137.509 49.9261C137.431 49.8901 137.345 49.8702 137.259 49.8675C137.172 49.8648 137.086 49.8794 137.005 49.9104C136.924 49.9414 136.85 49.9882 136.788 50.0481C136.725 50.108 136.675 50.1798 136.64 50.2593C136.605 50.3389 136.586 50.4245 136.585 50.5114C136.583 50.5983 136.599 50.6846 136.631 50.7654C136.663 50.8462 136.71 50.9198 136.771 50.9819C136.831 51.0441 136.903 51.0936 136.983 51.1276L138.555 51.8211C138.638 51.8579 138.727 51.8769 138.818 51.8769Z" fill="#3C4043"/>
<path d="M182.094 65.4639C182.248 65.4639 182.397 65.4094 182.515 65.3098C182.633 65.2103 182.712 65.0722 182.738 64.9198C182.765 64.7674 182.737 64.6106 182.659 64.477C182.581 64.3434 182.459 64.2416 182.314 64.1895L180.572 63.5638C180.409 63.5051 180.229 63.5139 180.072 63.5883C179.915 63.6627 179.794 63.7966 179.736 63.9605C179.677 64.1243 179.686 64.3048 179.76 64.4622C179.834 64.6196 179.968 64.741 180.131 64.7997L181.873 65.4254C181.944 65.4508 182.019 65.4638 182.094 65.4639Z" fill="#3C4043"/>
<path d="M113.418 81.6347C113.523 81.6347 113.625 81.6097 113.718 81.5616C113.811 81.5135 113.891 81.4439 113.951 81.3585C114.012 81.2731 114.051 81.1744 114.066 81.0707C114.08 80.9669 114.07 80.8612 114.036 80.7622L113.38 78.872C113.322 78.7077 113.203 78.5728 113.046 78.497C112.89 78.4213 112.711 78.4109 112.547 78.4682C112.383 78.5254 112.248 78.6457 112.173 78.8024C112.098 78.9591 112.087 79.1395 112.144 79.3039L112.8 81.1941C112.845 81.3228 112.928 81.4344 113.039 81.5134C113.15 81.5923 113.282 81.6347 113.418 81.6347Z" fill="#3C4043"/>
<path d="M214.897 69.1428L230.519 68.8564L236.783 72.1953L257.959 93.9183L252.34 108.917L217.488 106.408L213.425 69.9709L214.897 69.1428Z" fill="white"/>
<path d="M277.837 110.228L290.726 95.2072C291.594 94.189 292.292 93.0369 292.795 91.7953L302.531 76.4499L296.759 70.3252L290.809 71.9574L282.334 83.0677" fill="white"/>
<path d="M277.836 110.858C277.926 110.858 278.015 110.839 278.097 110.801C278.179 110.763 278.252 110.708 278.311 110.639L291.2 95.6181C292.099 94.5628 292.826 93.3704 293.352 92.0858L303.058 76.7878C303.133 76.6695 303.167 76.5293 303.153 76.3896C303.14 76.2499 303.081 76.1187 302.985 76.0168L297.212 69.8919C297.134 69.8092 297.035 69.7493 296.926 69.7186C296.817 69.6879 296.702 69.6875 296.592 69.7175L290.642 71.3497C290.51 71.386 290.393 71.4648 290.31 71.574L281.835 82.6843C281.734 82.8168 281.689 82.9842 281.711 83.1497C281.733 83.3152 281.819 83.4652 281.951 83.5668C282.083 83.6683 282.25 83.7131 282.414 83.6912C282.579 83.6693 282.728 83.5825 282.829 83.45L291.176 72.508L296.56 71.0327L301.739 76.5272L292.266 91.4587C292.245 91.4909 292.228 91.5249 292.213 91.5602C291.736 92.7393 291.073 93.8332 290.249 94.8001L277.362 109.819C277.284 109.91 277.233 110.022 277.216 110.141C277.199 110.26 277.217 110.382 277.267 110.492C277.317 110.601 277.397 110.694 277.498 110.759C277.599 110.824 277.716 110.859 277.836 110.859L277.836 110.858Z" fill="#3C4043"/>
<path d="M242.579 71.3838C236.649 71.3838 231.843 66.5547 231.843 60.5977C231.843 54.6406 236.649 49.8115 242.579 49.8115C248.508 49.8115 253.314 54.6406 253.314 60.5977C253.314 66.5547 248.508 71.3838 242.579 71.3838Z" fill="white"/>
<path d="M242.579 72.0151C244.826 72.0151 247.023 71.3456 248.891 70.0913C250.76 68.8369 252.216 67.0541 253.076 64.9681C253.936 62.8822 254.161 60.5868 253.723 58.3724C253.285 56.1579 252.203 54.1238 250.613 52.5273C249.024 50.9307 247 49.8435 244.796 49.403C242.592 48.9625 240.307 49.1885 238.231 50.0526C236.154 50.9166 234.38 52.3798 233.131 54.2571C231.883 56.1344 231.216 58.3415 231.216 60.5993C231.22 63.6259 232.418 66.5275 234.548 68.6676C236.678 70.8077 239.566 72.0116 242.579 72.0151ZM242.579 50.4426C244.578 50.4425 246.533 51.0382 248.195 52.1542C249.858 53.2703 251.154 54.8566 251.919 56.7125C252.684 58.5685 252.884 60.6107 252.494 62.581C252.104 64.5513 251.141 66.3611 249.727 67.7816C248.314 69.2021 246.512 70.1695 244.551 70.5614C242.59 70.9533 240.557 70.7521 238.71 69.9833C236.863 69.2146 235.284 67.9127 234.173 66.2423C233.062 64.572 232.469 62.6082 232.469 60.5993C232.472 57.9065 233.538 55.3249 235.434 53.4208C237.329 51.5167 239.898 50.4456 242.579 50.4426Z" fill="#3C4043"/>
<path d="M350.262 191.259L355.832 208.086C356.211 209.23 356.882 210.254 357.778 211.055C358.675 211.856 359.765 212.406 360.94 212.651L377.303 216.06C377.559 216.115 377.812 216.185 378.061 216.27C379.394 216.712 380.559 217.555 381.4 218.685C382.24 219.815 382.714 221.177 382.758 222.586L340.981 222.364L328.584 210.051V222.372H315.546L315.537 194.142" fill="white"/>
<path d="M382.758 223.217C382.842 223.217 382.925 223.2 383.002 223.168C383.08 223.135 383.15 223.087 383.208 223.026C383.266 222.966 383.312 222.894 383.342 222.815C383.373 222.737 383.387 222.653 383.384 222.568C383.334 221.03 382.815 219.545 381.898 218.312C380.982 217.079 379.711 216.158 378.258 215.673C377.988 215.581 377.712 215.505 377.433 215.445L361.068 212.036C360.001 211.812 359.011 211.312 358.197 210.584C357.382 209.856 356.772 208.927 356.426 207.889L350.856 191.062C350.83 190.983 350.789 190.911 350.735 190.848C350.681 190.786 350.615 190.735 350.542 190.697C350.468 190.66 350.388 190.638 350.306 190.632C350.224 190.627 350.141 190.637 350.063 190.663C349.985 190.689 349.913 190.73 349.851 190.785C349.789 190.839 349.738 190.905 349.701 190.978C349.664 191.052 349.642 191.133 349.636 191.215C349.63 191.298 349.641 191.381 349.667 191.459L355.237 208.286C355.652 209.533 356.386 210.65 357.364 211.524C358.342 212.398 359.531 213 360.813 213.269L377.176 216.678C377.407 216.727 377.635 216.79 377.858 216.867C378.964 217.235 379.945 217.907 380.69 218.806C381.436 219.705 381.916 220.796 382.076 221.955L341.239 221.738L329.023 209.605C328.935 209.518 328.824 209.459 328.702 209.435C328.581 209.411 328.456 209.424 328.341 209.472C328.227 209.52 328.13 209.601 328.062 209.704C327.993 209.807 327.956 209.929 327.956 210.053V221.744H316.171L316.163 194.144C316.163 193.977 316.097 193.817 315.979 193.699C315.862 193.581 315.702 193.514 315.536 193.514C315.37 193.514 315.211 193.581 315.093 193.699C314.976 193.817 314.91 193.977 314.91 194.144L314.918 222.374C314.918 222.541 314.984 222.701 315.102 222.819C315.219 222.937 315.378 223.003 315.545 223.003H328.583C328.749 223.003 328.908 222.937 329.026 222.819C329.143 222.701 329.209 222.541 329.209 222.374V211.56L340.54 222.814C340.656 222.93 340.813 222.995 340.977 222.996L382.755 223.217H382.758Z" fill="#3C4043"/>
<path d="M253.315 76.4466C247.948 76.4466 243.597 72.0752 243.597 66.6828C243.597 61.2904 247.948 56.9189 253.315 56.9189C258.682 56.9189 263.033 61.2904 263.033 66.6828C263.033 72.0752 258.682 76.4466 253.315 76.4466Z" fill="white"/>
<path d="M253.315 77.0774C255.361 77.0774 257.361 76.4679 259.063 75.3259C260.764 74.1838 262.09 72.5606 262.873 70.6615C263.656 68.7624 263.861 66.6726 263.461 64.6565C263.062 62.6404 262.077 60.7886 260.63 59.335C259.183 57.8815 257.34 56.8917 255.333 56.4907C253.327 56.0897 251.247 56.2955 249.357 57.0822C247.466 57.8689 245.851 59.201 244.714 60.9102C243.577 62.6194 242.971 64.6288 242.971 66.6844C242.974 69.4398 244.065 72.0814 246.004 74.0297C247.944 75.9781 250.573 77.0741 253.315 77.0774ZM253.315 57.5498C255.114 57.5498 256.871 58.0855 258.367 59.0892C259.862 60.0929 261.027 61.5195 261.715 63.1886C262.403 64.8577 262.583 66.6943 262.233 68.4662C261.882 70.2381 261.016 71.8657 259.744 73.1432C258.473 74.4207 256.853 75.2907 255.089 75.6431C253.326 75.9956 251.498 75.8147 249.836 75.1234C248.175 74.4321 246.755 73.2613 245.756 71.7592C244.757 70.2571 244.224 68.4911 244.224 66.6844C244.226 64.2626 245.185 61.9408 246.89 60.2283C248.594 58.5159 250.905 57.5526 253.315 57.5498Z" fill="#3C4043"/>
<path d="M263.72 202.292C263.023 208.554 267.927 215.844 274.211 216.29C275.809 216.385 277.389 216.682 278.914 217.173C282.102 218.237 284.115 220.131 284.689 222.502H244.042L237.734 208.005L230.912 222.46L221.16 217.676L233.689 191.346" fill="white"/>
<path d="M244.043 223.133H284.69C284.785 223.133 284.878 223.111 284.964 223.069C285.049 223.028 285.124 222.967 285.183 222.892C285.241 222.817 285.282 222.73 285.302 222.637C285.322 222.543 285.321 222.447 285.299 222.354C284.668 219.749 282.47 217.697 279.111 216.577C277.535 216.069 275.901 215.762 274.249 215.663C271.749 215.485 269.313 214.115 267.398 211.805C265.165 209.111 263.994 205.494 264.343 202.364C264.361 202.198 264.313 202.032 264.209 201.901C264.106 201.771 263.955 201.687 263.789 201.669C263.624 201.65 263.459 201.698 263.329 201.802C263.199 201.907 263.116 202.058 263.097 202.224C262.707 205.736 263.953 209.618 266.435 212.611C268.571 215.187 271.317 216.717 274.167 216.919C275.715 217.012 277.246 217.299 278.723 217.774C281.291 218.631 283.073 220.07 283.826 221.874H244.452L238.308 207.755C238.259 207.644 238.181 207.55 238.081 207.483C237.981 207.416 237.863 207.38 237.743 207.378C237.623 207.376 237.505 207.409 237.403 207.473C237.301 207.536 237.219 207.628 237.167 207.737L230.617 221.617L221.993 217.387L234.254 191.619C234.29 191.544 234.311 191.463 234.316 191.38C234.321 191.297 234.309 191.214 234.282 191.136C234.255 191.057 234.212 190.985 234.157 190.923C234.102 190.861 234.035 190.811 233.961 190.775C233.886 190.74 233.805 190.719 233.723 190.715C233.64 190.71 233.558 190.723 233.48 190.75C233.402 190.778 233.33 190.821 233.269 190.877C233.208 190.933 233.159 191.001 233.123 191.076L220.594 217.406C220.523 217.556 220.514 217.728 220.568 217.885C220.623 218.042 220.736 218.171 220.885 218.243L230.637 223.027C230.711 223.063 230.792 223.084 230.875 223.089C230.957 223.094 231.04 223.083 231.119 223.055C231.197 223.028 231.269 222.985 231.33 222.929C231.392 222.873 231.442 222.806 231.477 222.731L237.71 209.524L243.468 222.755C243.517 222.867 243.597 222.963 243.699 223.03C243.801 223.097 243.921 223.133 244.043 223.133Z" fill="#3C4043"/>
<path d="M255.917 217.809H278.915C279.081 217.809 279.24 217.743 279.358 217.625C279.475 217.507 279.541 217.346 279.541 217.18C279.541 217.013 279.475 216.853 279.358 216.734C279.24 216.616 279.081 216.55 278.915 216.55H255.918C254.494 216.556 253.106 216.099 251.961 215.248C250.816 214.397 249.975 213.198 249.563 211.828L244.395 194.846C244.372 194.766 244.333 194.691 244.281 194.627C244.229 194.562 244.164 194.508 244.091 194.468C244.018 194.429 243.938 194.404 243.856 194.396C243.773 194.387 243.69 194.396 243.61 194.42C243.531 194.444 243.457 194.484 243.393 194.538C243.329 194.591 243.277 194.657 243.238 194.73C243.2 194.804 243.176 194.885 243.169 194.968C243.162 195.051 243.172 195.135 243.197 195.214L248.365 212.197C248.854 213.824 249.854 215.25 251.214 216.261C252.575 217.273 254.224 217.815 255.917 217.809Z" fill="#3C4043"/>
<path d="M355.803 216.911H378.061C378.227 216.911 378.387 216.844 378.504 216.726C378.621 216.608 378.688 216.448 378.688 216.281C378.688 216.114 378.621 215.954 378.504 215.836C378.387 215.718 378.227 215.652 378.061 215.652H355.354C351.139 215.524 347.184 213.256 344.795 209.586L338.077 199.271C336.337 196.596 334.138 194.254 331.583 192.352C331.449 192.254 331.283 192.213 331.119 192.238C330.955 192.263 330.808 192.351 330.71 192.485C330.611 192.619 330.569 192.786 330.593 192.951C330.617 193.115 330.704 193.263 330.837 193.363C333.273 195.176 335.37 197.41 337.029 199.96L343.746 210.275C345.004 212.236 346.715 213.863 348.732 215.018C350.75 216.173 353.015 216.822 355.335 216.91L355.803 216.911Z" fill="#3C4043"/>
<path d="M286.085 150.804L314.948 194.209L351.99 191.131L316.337 129.268L313.756 124.791C312.499 122.612 310.814 120.712 308.804 119.208C306.794 117.703 304.5 116.624 302.062 116.037L288.387 112.755L273.991 109.302L247.463 102.941" fill="white"/>
<path d="M314.947 194.84C314.965 194.84 314.982 194.84 314.999 194.838L352.04 191.76C352.146 191.751 352.247 191.716 352.335 191.657C352.423 191.599 352.495 191.519 352.544 191.424C352.593 191.33 352.617 191.225 352.615 191.119C352.613 191.013 352.584 190.909 352.531 190.818L316.878 128.956L314.297 124.479C312.994 122.229 311.251 120.267 309.173 118.712C307.095 117.156 304.726 116.039 302.207 115.427L274.135 108.693L247.607 102.332C247.446 102.294 247.276 102.322 247.135 102.409C246.994 102.497 246.894 102.637 246.855 102.799C246.817 102.961 246.844 103.131 246.93 103.273C247.017 103.415 247.156 103.517 247.317 103.556L288.24 113.371L301.915 116.652C304.269 117.223 306.483 118.267 308.424 119.721C310.366 121.175 311.994 123.008 313.212 125.11L315.793 129.587L350.951 190.588L315.264 193.553L286.605 150.457C286.513 150.319 286.369 150.223 286.207 150.191C286.044 150.159 285.876 150.193 285.738 150.286C285.601 150.378 285.505 150.522 285.472 150.685C285.439 150.848 285.472 151.017 285.564 151.156L314.427 194.56C314.484 194.646 314.561 194.717 314.652 194.766C314.743 194.814 314.844 194.84 314.947 194.84Z" fill="#3C4043"/>
<path d="M200.928 137.63L247.758 147.331L240.12 168.31L234.703 183.191L231.966 190.716L266.713 203.382L271.956 188.933L277.245 174.361L284.255 155.06L289.561 140.441C289.59 140.362 289.618 140.282 289.645 140.202C290.73 137.064 290.957 133.691 290.302 130.435C289.648 127.179 288.136 124.159 285.924 121.69C283.417 118.889 280.121 116.921 276.475 116.046L276.074 115.95L253.184 110.457" fill="white"/>
<path d="M266.711 204.01C266.84 204.01 266.965 203.97 267.07 203.896C267.176 203.822 267.256 203.718 267.3 203.596L277.832 174.575L284.842 155.274L290.148 140.656C290.178 140.574 290.207 140.489 290.235 140.404C291.11 137.87 291.447 135.179 291.224 132.506C291.001 129.833 290.223 127.236 288.94 124.883C287.657 122.531 285.898 120.474 283.776 118.846C281.653 117.219 279.215 116.056 276.618 115.432L276.218 115.336L253.328 109.843C253.248 109.822 253.164 109.818 253.082 109.83C252.999 109.842 252.92 109.871 252.849 109.914C252.778 109.957 252.716 110.014 252.667 110.081C252.618 110.149 252.583 110.225 252.563 110.306C252.544 110.388 252.541 110.472 252.555 110.554C252.568 110.637 252.598 110.716 252.642 110.786C252.686 110.857 252.743 110.919 252.811 110.967C252.879 111.015 252.956 111.049 253.037 111.067L276.328 116.657C278.755 117.24 281.033 118.327 283.017 119.848C285 121.369 286.644 123.291 287.843 125.49C289.042 127.689 289.769 130.115 289.977 132.614C290.185 135.112 289.87 137.626 289.052 139.995C289.025 140.072 289 140.148 288.972 140.223L283.665 154.843L276.656 174.144L266.337 202.575L232.768 190.339L240.707 168.526L248.345 147.546C248.376 147.461 248.389 147.371 248.382 147.28C248.375 147.19 248.348 147.103 248.304 147.024C248.261 146.945 248.2 146.876 248.128 146.822C248.055 146.769 247.972 146.732 247.884 146.713L201.054 137.012C200.892 136.98 200.724 137.014 200.587 137.106C200.45 137.198 200.354 137.34 200.32 137.503C200.287 137.665 200.319 137.834 200.409 137.973C200.499 138.112 200.64 138.21 200.801 138.245L246.919 147.799L234.114 182.974L231.376 190.499C231.348 190.577 231.335 190.66 231.339 190.742C231.342 190.825 231.362 190.906 231.397 190.981C231.431 191.056 231.481 191.124 231.541 191.18C231.602 191.236 231.673 191.279 231.751 191.307L266.498 203.972C266.566 203.997 266.638 204.01 266.711 204.01Z" fill="#3C4043"/>
<path d="M230.519 68.8555C233.549 69.9733 236.288 71.4504 238.746 73.9199L245.429 80.8683L256.412 92.3105L258.434 94.4084L273.258 77.8789C274.574 76.355 276.239 75.1757 278.11 74.4429L277.688 77.9156C277.064 83.0627 284.664 98.3058 284.733 98.2187C285.43 97.3376 285.383 98.6003 286.922 97.7416C288.197 97.03 291.191 94.3985 291.354 94.4084L278.032 110.269L247.882 103.045" fill="white"/>
<path d="M278.031 110.896C278.122 110.896 278.212 110.876 278.295 110.838C278.378 110.799 278.451 110.743 278.51 110.673L291.831 94.8125C291.906 94.7233 291.955 94.615 291.972 94.4996C291.989 94.3841 291.974 94.2662 291.928 94.159C291.882 94.0517 291.808 93.9593 291.713 93.8921C291.618 93.8249 291.506 93.7855 291.39 93.7784C291.084 93.7593 291.005 93.8229 289.698 94.8792C288.701 95.685 287.335 96.7883 286.616 97.1895C286.056 97.5025 285.875 97.4349 285.685 97.3634C285.451 97.259 285.19 97.2346 284.941 97.2939C283.525 94.5012 277.783 82.3264 278.309 77.9899L278.73 74.5172C278.743 74.4092 278.728 74.2996 278.686 74.1991C278.645 74.0987 278.578 74.0108 278.492 73.944C278.407 73.8773 278.305 73.834 278.198 73.8183C278.091 73.8026 277.982 73.8152 277.881 73.8547C275.917 74.6272 274.169 75.8652 272.784 77.4631L258.416 93.4841L256.861 91.8703L245.877 80.429L239.195 73.4802C236.912 71.1865 234.305 69.5797 230.734 68.2622C230.657 68.2337 230.574 68.2208 230.492 68.2242C230.41 68.2275 230.329 68.2471 230.255 68.2819C230.18 68.3166 230.113 68.3658 230.057 68.4265C230.001 68.4873 229.958 68.5586 229.93 68.6362C229.901 68.7137 229.889 68.7962 229.892 68.8788C229.895 68.9614 229.915 69.0425 229.949 69.1175C229.984 69.1925 230.033 69.26 230.093 69.316C230.154 69.372 230.225 69.4155 230.302 69.444C233.694 70.6952 236.161 72.2122 238.301 74.3626L244.976 81.3032L255.96 92.745L257.982 94.8429C258.042 94.9049 258.113 94.9539 258.193 94.9868C258.272 95.0198 258.357 95.036 258.443 95.0345C258.529 95.0329 258.614 95.0137 258.692 94.9779C258.77 94.9422 258.84 94.8906 258.897 94.8266L273.722 78.2969C274.737 77.1243 275.97 76.1622 277.353 75.4646L277.065 77.8353C276.792 80.0866 277.895 84.2475 280.344 90.2023C281.327 92.5939 282.285 94.6797 282.917 96.009C284.179 98.6656 284.244 98.6931 284.487 98.7954C284.614 98.8483 284.753 98.8585 284.886 98.8245C285.018 98.7904 285.136 98.7139 285.221 98.6066C285.239 98.5838 285.255 98.5647 285.269 98.5491C285.707 98.7105 286.258 98.8273 287.224 98.288C287.253 98.2719 287.283 98.2549 287.313 98.237L277.801 109.563L248.025 102.43C247.863 102.391 247.693 102.418 247.551 102.506C247.41 102.593 247.309 102.733 247.27 102.896C247.232 103.058 247.259 103.229 247.346 103.372C247.433 103.514 247.573 103.615 247.734 103.654L277.885 110.877C277.933 110.889 277.982 110.896 278.031 110.896Z" fill="#3C4043"/>
<path d="M227.904 130.437L199.386 138.042C198.254 138.375 197.08 138.544 195.901 138.544C195.558 138.544 195.218 138.529 194.879 138.5C191.602 138.228 188.566 136.66 186.439 134.14C184.848 132.256 184.167 129.948 184.155 127.555C184.142 125.18 184.785 122.719 185.823 120.51L198.807 93.3228C198.807 93.3228 208.231 76.0198 208.937 74.7075C210.179 72.3968 212.204 70.4697 214.896 69.1406" fill="white"/>
<path d="M195.901 139.173C197.14 139.173 198.373 138.996 199.562 138.647L228.065 131.045C228.145 131.024 228.22 130.987 228.285 130.937C228.35 130.887 228.405 130.824 228.447 130.753C228.488 130.681 228.515 130.602 228.526 130.521C228.537 130.439 228.531 130.355 228.51 130.275C228.489 130.195 228.453 130.121 228.403 130.055C228.353 129.989 228.29 129.934 228.219 129.892C228.148 129.851 228.07 129.824 227.988 129.813C227.906 129.802 227.824 129.807 227.744 129.828L199.225 137.434C198.146 137.752 197.026 137.914 195.901 137.915C195.578 137.915 195.254 137.9 194.934 137.873C193.392 137.749 191.889 137.32 190.513 136.609C189.137 135.899 187.915 134.921 186.917 133.733C185.513 132.07 184.794 129.99 184.782 127.551C184.77 125.385 185.327 123.043 186.39 120.778L199.365 93.61C199.686 93.0207 208.798 76.289 209.488 75.0065C210.683 72.7846 212.648 70.9514 215.172 69.7052C215.251 69.6721 215.322 69.6231 215.382 69.5612C215.441 69.4994 215.487 69.426 215.517 69.3456C215.547 69.2652 215.561 69.1794 215.556 69.0936C215.552 69.0078 215.531 68.9238 215.493 68.8467C215.455 68.7697 215.402 68.7012 215.337 68.6454C215.272 68.5897 215.196 68.548 215.115 68.5228C215.033 68.4976 214.947 68.4895 214.862 68.4989C214.777 68.5084 214.695 68.5352 214.62 68.5778C211.862 69.94 209.706 71.9567 208.386 74.41C207.689 75.7059 198.353 92.8493 198.259 93.0221C198.253 93.032 198.248 93.0431 198.243 93.0521L185.259 120.239C184.114 122.676 183.517 125.206 183.529 127.56C183.543 130.264 184.385 132.681 185.962 134.549C187.066 135.863 188.417 136.945 189.939 137.731C191.461 138.517 193.123 138.992 194.829 139.129C195.181 139.158 195.543 139.173 195.901 139.173Z" fill="#3C4043"/>
<path d="M230.451 107.436C228.621 106.398 226.554 105.854 224.453 105.856C217.635 105.856 212.103 111.471 212.103 118.406C212.095 120.9 212.825 123.339 214.201 125.414C215.577 127.489 217.536 129.106 219.83 130.058C221.295 130.66 222.863 130.968 224.446 130.967C226.671 130.959 228.852 130.348 230.76 129.2C232.669 128.052 234.234 126.408 235.291 124.442" fill="white"/>
<path d="M224.435 131.598H224.448C226.785 131.591 229.078 130.95 231.083 129.743C233.089 128.537 234.733 126.809 235.843 124.742C235.922 124.595 235.939 124.422 235.892 124.262C235.844 124.103 235.735 123.968 235.589 123.889C235.443 123.81 235.271 123.792 235.112 123.84C234.953 123.887 234.819 123.997 234.74 124.144C233.738 126.011 232.252 127.572 230.44 128.663C228.629 129.753 226.558 130.332 224.446 130.339C222.944 130.34 221.457 130.048 220.068 129.477C217.886 128.577 216.023 127.043 214.715 125.071C213.408 123.099 212.717 120.779 212.731 118.41C212.731 111.835 217.99 106.487 224.454 106.487C226.448 106.487 228.408 107.004 230.145 107.986C230.217 108.027 230.296 108.054 230.378 108.065C230.46 108.076 230.544 108.07 230.624 108.048C230.704 108.026 230.778 107.989 230.844 107.937C230.909 107.886 230.964 107.823 231.004 107.75C231.045 107.678 231.071 107.598 231.081 107.515C231.09 107.432 231.084 107.349 231.061 107.269C231.038 107.189 231 107.114 230.949 107.049C230.897 106.984 230.833 106.93 230.76 106.889C228.835 105.801 226.663 105.229 224.454 105.229C217.299 105.229 211.478 111.141 211.478 118.408C211.463 121.027 212.227 123.591 213.672 125.771C215.118 127.95 217.178 129.647 219.59 130.641C221.127 131.274 222.773 131.599 224.435 131.598Z" fill="#3C4043"/>
<path d="M239.305 144.932C239.765 143.848 239.98 142.674 239.933 141.496C239.886 140.318 239.58 139.165 239.035 138.121C238.49 137.077 237.72 136.167 236.783 135.459C235.845 134.75 234.762 134.26 233.612 134.024C232.462 133.787 231.275 133.811 230.135 134.093C228.996 134.375 227.933 134.908 227.024 135.653C226.115 136.398 225.382 137.338 224.878 138.403C224.375 139.468 224.114 140.632 224.114 141.811" fill="#85B7FE"/>
<path d="M280.583 73.6621C280.362 73.7059 280.143 73.7588 279.923 73.8209C275.448 75.0927 272.048 82.403 273.542 88.6871C274.721 93.6458 278.529 96.1978 278.994 96.4997C282.998 99.0931 287.092 98.4948 288.044 98.3301L291.258 93.9192L291.527 93.8143" fill="white"/>
<path d="M285.908 99.1369C286.659 99.1387 287.409 99.0768 288.15 98.9519C288.31 98.9241 288.453 98.835 288.549 98.7033L291.654 94.4426L291.751 94.4052C291.902 94.3426 292.023 94.2231 292.088 94.0723C292.152 93.9215 292.156 93.7512 292.097 93.5979C292.039 93.4445 291.923 93.3203 291.774 93.2516C291.626 93.1829 291.456 93.1753 291.302 93.2304L291.033 93.3353C290.921 93.3786 290.823 93.4536 290.752 93.5511L287.69 97.7531C284.782 98.1842 281.816 97.5522 279.333 95.972C278.658 95.5352 275.24 93.1246 274.15 88.5423C272.66 82.2737 276.173 75.542 280.093 74.428C280.294 74.3709 280.499 74.3214 280.703 74.2811C280.866 74.2488 281.01 74.1528 281.102 74.0141C281.195 73.8755 281.229 73.7056 281.196 73.5418C281.164 73.378 281.069 73.2338 280.931 73.1408C280.793 73.0479 280.624 73.0138 280.461 73.0461C280.224 73.0931 279.985 73.151 279.752 73.2169C274.773 74.6317 271.394 82.3677 272.932 88.8346C274.132 93.8849 277.909 96.5474 278.653 97.03C280.819 98.4207 283.338 99.1525 285.908 99.1369Z" fill="#3C4043"/>
<path d="M236.487 40.9492C237.938 42.7108 238.952 44.7937 239.444 47.0261C239.936 49.2585 239.892 51.5764 239.317 53.7887C238.742 56.001 237.652 58.0443 236.137 59.75C234.621 61.4557 232.724 62.775 230.601 63.599C230.383 63.6829 230.164 63.7608 229.945 63.834L230.518 68.8564C230.634 69.8751 230.549 70.9067 230.268 71.8924C229.987 72.878 229.515 73.7983 228.88 74.6009C228.245 75.4034 227.459 76.0724 226.566 76.5696C225.674 77.0669 224.693 77.3826 223.679 77.4989C222.665 77.6152 221.638 77.5297 220.657 77.2472C219.676 76.9648 218.76 76.491 217.961 75.8529C217.162 75.2148 216.496 74.4249 216.001 73.5282C215.506 72.6316 215.192 71.6458 215.076 70.6271L213.661 58.9326L212.559 58.6655L208.06 44.8757C207.597 42.3454 207.816 39.7367 208.694 37.32C209.572 34.9032 211.077 32.7664 213.054 31.1309C215.031 29.4954 217.407 28.4207 219.936 28.0184C222.465 27.616 225.055 27.9005 227.438 28.8424C230.589 30.0828 233.201 32.4049 234.81 35.3964" fill="white"/>
<path d="M222.81 78.1776C223.992 78.176 225.161 77.9236 226.239 77.4368C227.317 76.9501 228.281 76.2401 229.068 75.3532C229.854 74.4664 230.445 73.4226 230.802 72.2904C231.16 71.1581 231.275 69.9629 231.14 68.7828L230.624 64.2603C230.693 64.2347 230.761 64.2092 230.826 64.1837C233.042 63.3239 235.022 61.9472 236.604 60.167C238.186 58.3868 239.324 56.2543 239.924 53.9453C240.524 51.6363 240.569 49.217 240.056 46.8871C239.542 44.5572 238.484 42.3834 236.97 40.545C236.918 40.4801 236.853 40.4262 236.78 40.3864C236.707 40.3467 236.627 40.3219 236.545 40.3135C236.462 40.3051 236.379 40.3133 236.299 40.3376C236.22 40.3618 236.146 40.4017 236.082 40.4548C236.018 40.508 235.966 40.5734 235.927 40.6472C235.888 40.721 235.865 40.8017 235.858 40.8848C235.85 40.9678 235.86 41.0515 235.885 41.1309C235.91 41.2103 235.951 41.2839 236.004 41.3474C237.392 43.0321 238.361 45.0242 238.832 47.1593C239.303 49.2943 239.262 51.5113 238.712 53.6272C238.162 55.7431 237.119 57.6973 235.669 59.3286C234.22 60.9599 232.405 62.2216 230.375 63.0095C230.185 63.0834 229.979 63.1564 229.747 63.2344C229.61 63.28 229.494 63.3714 229.416 63.4932C229.339 63.615 229.306 63.7599 229.322 63.9035L229.896 68.9259C230.002 69.8625 229.924 70.8109 229.665 71.7171C229.407 72.6233 228.974 73.4695 228.39 74.2074C227.806 74.9453 227.083 75.5604 226.263 76.0177C225.442 76.4749 224.54 76.7653 223.608 76.8723C222.676 76.9793 221.732 76.9007 220.83 76.6412C219.928 76.3816 219.085 75.9461 218.351 75.3595C217.617 74.7729 217.004 74.0467 216.549 73.2224C216.094 72.398 215.805 71.4917 215.699 70.5552L214.282 58.8543C214.267 58.7271 214.213 58.6076 214.128 58.5118C214.043 58.416 213.931 58.3486 213.807 58.3185L213.045 58.1337L208.668 44.7184C208.088 41.4898 208.672 38.1592 210.315 35.324C211.958 32.4887 214.553 30.3346 217.634 29.2479C220.715 28.1612 224.081 28.2131 227.128 29.3943C230.174 30.5755 232.702 32.8087 234.258 35.6933C234.296 35.7669 234.349 35.8321 234.413 35.8851C234.477 35.9381 234.551 35.9779 234.63 36.0021C234.709 36.0264 234.792 36.0346 234.875 36.0263C234.957 36.018 235.037 35.9934 235.11 35.9538C235.183 35.9143 235.247 35.8606 235.299 35.7959C235.351 35.7312 235.39 35.6568 235.413 35.577C235.437 35.4971 235.444 35.4134 235.435 35.3307C235.426 35.248 235.4 35.168 235.36 35.0952C233.661 31.943 230.899 29.5032 227.57 28.2146C224.24 26.9259 220.563 26.873 217.198 28.0653C213.833 29.2576 211.002 31.6168 209.214 34.7188C207.426 37.8208 206.798 41.4619 207.444 44.9874C207.449 45.0152 207.456 45.0427 207.465 45.0696L211.964 58.8592C211.997 58.9611 212.056 59.0528 212.134 59.1256C212.212 59.1983 212.308 59.2498 212.412 59.275L213.091 59.4397L214.454 70.701C214.57 71.7439 214.881 72.7554 215.37 73.6824C216.086 75.0408 217.157 76.1773 218.468 76.9694C219.779 77.7615 221.28 78.1793 222.81 78.1776Z" fill="#3C4043"/>
<path d="M231.957 48.8249C232.034 48.825 232.11 48.8107 232.182 48.7829L235.068 47.6626C235.161 47.6266 235.244 47.5689 235.31 47.4943C235.376 47.4198 235.424 47.3304 235.449 47.2337C235.474 47.137 235.475 47.0357 235.454 46.9382C235.432 46.8407 235.387 46.7498 235.324 46.673L231.943 42.5902C231.837 42.4619 231.684 42.3812 231.519 42.3659C231.353 42.3507 231.189 42.402 231.061 42.5088C230.933 42.6155 230.853 42.7689 230.838 42.9351C230.822 43.1014 230.874 43.2668 230.98 43.3952L233.803 46.8043L231.731 47.6087C231.594 47.6615 231.48 47.7607 231.409 47.8891C231.337 48.0175 231.313 48.1669 231.34 48.3115C231.367 48.4561 231.443 48.5867 231.556 48.6806C231.668 48.7745 231.81 48.8257 231.957 48.8255V48.8249Z" fill="#3C4043"/>
<path d="M226.724 38.7715C227.404 37.6449 227.789 36.6799 228.977 34.4844C230.652 35.6873 232.069 36.5664 233.119 37.0262" fill="white"/>
<path d="M226.723 39.4004C226.831 39.4005 226.937 39.3727 227.031 39.3196C227.125 39.2665 227.204 39.19 227.26 39.0974C227.636 38.4746 227.923 37.9016 228.288 37.1751C228.529 36.6943 228.816 36.1213 229.194 35.4074C230.689 36.4511 231.923 37.1885 232.869 37.6025C232.944 37.6355 233.026 37.6533 233.108 37.6549C233.19 37.6564 233.272 37.6417 233.348 37.6115C233.503 37.5505 233.627 37.4303 233.694 37.2773C233.76 37.1243 233.763 36.951 233.703 36.7956C233.642 36.6402 233.522 36.5154 233.37 36.4486C232.385 36.017 231.03 35.1837 229.342 33.9718C229.27 33.92 229.187 33.8841 229.1 33.8667C229.013 33.8492 228.924 33.8505 228.837 33.8705C228.751 33.8905 228.669 33.9287 228.599 33.9825C228.528 34.0364 228.47 34.1047 228.427 34.183C227.869 35.2146 227.481 35.9873 227.169 36.6087C226.818 37.31 226.54 37.8639 226.189 38.4444C226.131 38.5398 226.1 38.6488 226.098 38.7604C226.096 38.872 226.124 38.9821 226.178 39.0794C226.233 39.1766 226.312 39.2576 226.408 39.3141C226.504 39.3705 226.613 39.4003 226.724 39.4004H226.723Z" fill="#3C4043"/>
<path d="M225.38 65.1756C226.351 65.1756 227.319 65.0848 228.272 64.9043C228.284 64.9021 228.295 64.8996 228.307 64.8968L229.944 64.4898C230.024 64.4699 230.099 64.4344 230.165 64.3854C230.231 64.3364 230.287 64.2747 230.33 64.2039C230.372 64.1331 230.401 64.0546 230.413 63.9729C230.425 63.8912 230.421 63.8078 230.402 63.7276C230.382 63.6473 230.347 63.5718 230.298 63.5053C230.249 63.4387 230.188 63.3825 230.117 63.3398C230.047 63.2971 229.969 63.2687 229.887 63.2564C229.806 63.244 229.723 63.2479 229.643 63.2677L228.023 63.6705C225.484 64.1479 222.863 63.9287 220.437 63.0361C220.359 63.0061 220.277 62.992 220.194 62.9944C220.11 62.9969 220.029 63.0159 219.953 63.0504C219.877 63.085 219.809 63.1343 219.753 63.1955C219.696 63.2567 219.652 63.3286 219.624 63.407C219.595 63.4854 219.582 63.5687 219.586 63.6521C219.59 63.7355 219.61 63.8174 219.646 63.8928C219.681 63.9683 219.732 64.0359 219.793 64.0917C219.855 64.1475 219.927 64.1904 220.006 64.2179C221.728 64.8515 223.547 65.1757 225.38 65.1756Z" fill="#3C4043"/>
<path d="M233.089 54.7711C233.639 54.7706 234.181 54.6472 234.677 54.4098C235.173 54.1725 235.611 53.8271 235.957 53.3989C236.304 52.9706 236.551 52.4702 236.682 51.9339C236.812 51.3976 236.822 50.8389 236.71 50.2983C236.693 50.2148 236.659 50.1358 236.61 50.0659C236.562 49.996 236.5 49.9367 236.427 49.8917C236.355 49.8467 236.275 49.8169 236.191 49.804C236.107 49.7912 236.022 49.7956 235.939 49.8171L229.997 51.3674C229.914 51.3889 229.837 51.4268 229.77 51.4791C229.703 51.5313 229.647 51.5966 229.606 51.6712C229.565 51.7457 229.539 51.8279 229.531 51.9128C229.522 51.9976 229.531 52.0833 229.556 52.1646C229.793 52.9201 230.263 53.58 230.898 54.0487C231.534 54.5174 232.301 54.7705 233.089 54.7711ZM235.53 51.2244C235.494 51.7384 235.298 52.2281 234.97 52.6244C234.643 53.0207 234.199 53.3036 233.703 53.4331C233.206 53.5626 232.682 53.5322 232.204 53.3462C231.725 53.1602 231.317 52.828 231.037 52.3965L235.53 51.2244Z" fill="#3C4043"/>
<path d="M210.5 44.8851C210.56 44.885 210.619 44.8765 210.676 44.8597L217.079 42.9822C217.159 42.9601 217.234 42.9221 217.299 42.8706C217.365 42.8191 217.419 42.755 217.46 42.6821C217.5 42.6093 217.526 42.529 217.535 42.4461C217.544 42.3632 217.537 42.2792 217.514 42.1991C217.491 42.119 217.452 42.0444 217.4 41.9795C217.347 41.9146 217.283 41.8609 217.21 41.8213C217.136 41.7817 217.056 41.7572 216.974 41.7491C216.891 41.741 216.807 41.7494 216.728 41.774L210.325 43.6511C210.181 43.6935 210.056 43.7869 209.974 43.9142C209.892 44.0416 209.859 44.1942 209.881 44.3442C209.902 44.4941 209.976 44.6314 210.09 44.7306C210.204 44.8299 210.35 44.8846 210.5 44.8847V44.8851Z" fill="#3C4043"/>
<path d="M216.904 42.3778C218.032 38.8113 224.14 38.1462 227.583 39.3819C227.75 39.4407 227.909 39.5057 228.059 39.5728C228.599 39.8248 229.212 39.8689 229.782 39.6966L231.214 39.2435C231.779 39.0536 232.255 38.6616 232.551 38.142C232.637 37.9974 232.73 37.8574 232.83 37.7225C234.937 34.7203 240.316 31.737 243.271 33.9944C246.226 36.2518 247.372 40.3868 243.34 44.1673C240.329 46.9912 235.714 45.3737 235.109 44.9687C233.91 44.1673 232.935 43.2759 232.375 42.2857C232.296 42.1276 232.165 42.0019 232.004 41.9296C231.843 41.8574 231.662 41.8431 231.492 41.8892L231.06 42.0276C230.893 42.0879 230.752 42.2046 230.662 42.3578C230.572 42.511 230.537 42.691 230.565 42.8668C230.673 43.9997 230.387 45.292 229.867 46.6431C229.604 47.3229 226.758 51.3152 222.678 50.7509C217.224 49.9786 215.779 45.938 216.904 42.3778Z" fill="white"/>
<path d="M223.452 51.4348C227.299 51.4348 230.061 47.8788 230.451 46.8724C231.058 45.2947 231.299 43.9655 231.188 42.8076C231.187 42.7952 231.185 42.7827 231.183 42.7705C231.179 42.7404 231.184 42.7095 231.199 42.6829C231.214 42.6563 231.237 42.6354 231.265 42.6236L231.662 42.4963C231.692 42.4902 231.723 42.4942 231.751 42.5076C231.778 42.521 231.801 42.5431 231.815 42.5706C231.819 42.5798 231.824 42.5888 231.829 42.5978C232.402 43.6109 233.36 44.5584 234.76 45.4942C235.721 46.1364 240.598 47.5999 243.766 44.6291C246.209 42.3379 246.636 40.1227 246.563 38.6678C246.465 36.7204 245.403 34.835 243.649 33.4949C242.617 32.7064 241.251 32.4167 239.7 32.6576C236.699 33.1225 233.72 35.3694 232.325 37.3513C232.214 37.5005 232.111 37.6552 232.016 37.8149C231.796 38.2073 231.44 38.504 231.015 38.6478L229.593 39.0976C229.172 39.2233 228.72 39.1898 228.323 39.0034C228.131 38.9176 227.96 38.849 227.789 38.7892C225.516 37.9735 221.786 37.8558 219.061 39.2122C217.652 39.9135 216.7 40.9428 216.306 42.1885C215.64 44.2946 215.851 46.449 216.884 48.0995C217.658 49.3349 219.276 50.9063 222.589 51.3752C222.875 51.4148 223.163 51.4347 223.452 51.4348ZM229.942 42.9436C230.029 43.886 229.807 45.0545 229.283 46.4173C229.11 46.8625 226.538 50.6504 222.763 50.1286C220.519 49.811 218.853 48.8774 217.946 47.429C217.109 46.093 216.947 44.3219 217.501 42.5697C217.793 41.6441 218.506 40.8941 219.618 40.3402C221.712 39.2978 225.045 39.141 227.372 39.976C227.513 40.0257 227.653 40.0809 227.804 40.1493C228.481 40.4634 229.248 40.5172 229.962 40.3006L231.403 39.8451C232.117 39.6072 232.72 39.1124 233.094 38.4559C233.155 38.3568 233.238 38.2234 233.327 38.1063C233.332 38.0998 233.337 38.0931 233.342 38.0854C234.765 36.0583 237.581 34.2591 239.892 33.9004C241.116 33.7103 242.126 33.9107 242.892 34.4956C244.351 35.6106 245.233 37.1539 245.312 38.7299C245.398 40.434 244.568 42.1552 242.912 43.7074C240.172 46.2772 235.833 44.6985 235.455 44.4451C234.244 43.6359 233.394 42.8087 232.926 41.9859C232.778 41.7041 232.54 41.481 232.25 41.353C231.96 41.225 231.635 41.1998 231.329 41.2814C231.319 41.2839 231.31 41.2866 231.301 41.2895L230.869 41.428L230.848 41.4356C230.548 41.5443 230.294 41.7535 230.129 42.0281C229.964 42.3027 229.898 42.6259 229.942 42.9436Z" fill="#3C4043"/>
<path d="M278.988 75.7694C282.406 70.7344 288.788 65.8588 290.264 63.7923C291.74 61.7258 295.86 64.2937 292.962 68.8274C290.064 73.361 282.062 83.408 282.062 83.408" fill="white"/>
<path d="M282.062 84.0386C282.156 84.0387 282.249 84.0174 282.333 83.9765C282.418 83.9357 282.493 83.8761 282.551 83.8024C282.879 83.391 290.607 73.6779 293.49 69.1686C295.33 66.289 294.611 63.9139 293.163 62.9258C291.975 62.1151 290.542 62.3255 289.756 63.4263C289.232 64.1591 287.953 65.3598 286.472 66.7501C283.871 69.1923 280.633 72.2318 278.471 75.4159C278.377 75.5538 278.342 75.7234 278.373 75.8874C278.404 76.0514 278.498 76.1964 278.635 76.2905C278.773 76.3846 278.942 76.42 279.105 76.389C279.268 76.358 279.412 76.2631 279.506 76.1252C281.59 73.0563 284.771 70.0697 287.327 67.6705C288.92 66.1755 290.178 64.9948 290.773 64.161C291.216 63.5405 291.957 63.6256 292.458 63.9676C293.452 64.6459 293.83 66.3068 292.435 68.4889C289.587 72.9434 281.652 82.9162 281.572 83.0165C281.499 83.109 281.452 83.2206 281.439 83.3384C281.426 83.4562 281.446 83.5754 281.497 83.6823C281.548 83.7892 281.628 83.8794 281.728 83.9425C281.828 84.0057 281.943 84.0392 282.061 84.0392L282.062 84.0386Z" fill="#3C4043"/>
<path d="M290.648 86.8573C288.622 88.165 289.627 91.6085 293.342 91.6085C296.108 91.6085 298.405 91.5015 299.815 91.4197C300.763 91.3579 301.662 90.973 302.363 90.3288L303.935 88.8917C304.522 88.3556 304.943 87.662 305.151 86.8929C305.358 86.1239 305.342 85.3113 305.104 84.5511C304.933 84.0037 304.651 83.4976 304.276 83.0645" fill="white"/>
<path d="M293.344 92.2385C295.492 92.2385 297.682 92.1755 299.853 92.0497C300.944 91.9777 301.979 91.5352 302.787 90.7947L304.358 89.3588C305.283 88.5144 305.842 87.3397 305.916 86.0863C305.989 84.8329 305.571 83.6004 304.751 82.6529C304.697 82.5906 304.631 82.5395 304.557 82.5026C304.484 82.4657 304.404 82.4438 304.322 82.4381C304.24 82.4323 304.157 82.4428 304.079 82.4691C304.001 82.4953 303.929 82.5367 303.867 82.591C303.805 82.6452 303.754 82.7112 303.717 82.7852C303.681 82.8591 303.659 82.9396 303.653 83.0221C303.647 83.1045 303.658 83.1873 303.684 83.2657C303.71 83.3441 303.751 83.4165 303.805 83.4789C304.41 84.1781 304.719 85.0877 304.665 86.0127C304.611 86.9377 304.198 87.8045 303.515 88.4275L301.943 89.8646C301.346 90.412 300.582 90.7392 299.775 90.7926C297.633 90.9168 295.467 90.9799 293.343 90.9799C291.492 90.9799 290.557 90.0268 290.319 89.2105C290.21 88.8754 290.217 88.5134 290.339 88.1828C290.46 87.8521 290.688 87.5721 290.987 87.3876C291.056 87.3431 291.117 87.2852 291.164 87.2173C291.211 87.1494 291.245 87.0728 291.262 86.9918C291.28 86.9109 291.282 86.8272 291.267 86.7456C291.253 86.6641 291.222 86.5862 291.178 86.5164C291.133 86.4467 291.075 86.3865 291.007 86.3393C290.94 86.2921 290.863 86.2588 290.783 86.2414C290.702 86.2239 290.619 86.2226 290.537 86.2376C290.456 86.2525 290.379 86.2835 290.31 86.3285C289.783 86.6596 289.38 87.1568 289.164 87.7424C288.948 88.328 288.932 88.969 289.117 89.565C289.477 90.7982 290.8 92.2385 293.344 92.2385Z" fill="#3C4043"/>
<path d="M298.795 80.9565C295.974 81.0949 292.961 81.2271 291.111 81.1662C286.199 81.0278 286.657 86.9715 291.789 86.9652C294.853 86.9652 297.394 86.8477 298.945 86.7554C299.996 86.6931 300.994 86.2719 301.773 85.5614L303.514 83.9714C304.164 83.3784 304.631 82.6107 304.86 81.7593C305.089 80.9078 305.071 80.0083 304.807 79.1671C304.547 78.3354 304.059 77.5946 303.398 77.0302C302.737 76.4659 301.93 76.1012 301.071 75.9783L298.334 75.5859" fill="white"/>
<path d="M291.781 87.596C294.803 87.604 297.363 87.4813 298.982 87.385C300.175 87.3131 301.308 86.8348 302.193 86.0291L303.935 84.4386C304.669 83.7683 305.197 82.9021 305.459 81.9413C305.721 80.9806 305.705 79.9648 305.414 79.0126C305.123 78.0603 304.568 77.211 303.815 76.5636C303.061 75.9163 302.14 75.4977 301.158 75.3566L298.421 74.9643C298.256 74.9407 298.089 74.9838 297.956 75.084C297.823 75.1842 297.735 75.3333 297.712 75.4986C297.688 75.6638 297.731 75.8317 297.831 75.9652C297.931 76.0987 298.079 76.1869 298.244 76.2105L300.981 76.6028C301.727 76.7103 302.427 77.0287 303 77.5209C303.573 78.0131 303.994 78.6587 304.216 79.3825C304.437 80.1063 304.449 80.8784 304.25 81.6086C304.051 82.3389 303.649 82.9973 303.092 83.5069L301.35 85.0972C300.676 85.71 299.814 86.0738 298.907 86.1285C297.305 86.2238 294.761 86.3339 291.78 86.3383C290.292 86.3383 289.126 85.7813 288.579 84.8095C288.4 84.5167 288.302 84.1809 288.296 83.8371C288.29 83.4934 288.376 83.1543 288.545 82.8553C288.974 82.1393 289.878 81.7644 291.092 81.7979C292.997 81.8609 296.083 81.7222 298.825 81.5881C298.991 81.58 299.146 81.5059 299.258 81.3823C299.313 81.3211 299.356 81.2495 299.384 81.1717C299.412 81.0939 299.424 81.0113 299.42 80.9288C299.416 80.8462 299.396 80.7653 299.36 80.6905C299.325 80.6158 299.276 80.5488 299.215 80.4932C299.092 80.3811 298.929 80.3227 298.763 80.3309C296.046 80.4643 292.99 80.6015 291.13 80.5406C289.467 80.4934 288.135 81.1012 287.472 82.207C287.187 82.6965 287.038 83.254 287.041 83.8211C287.044 84.3883 287.199 84.9441 287.489 85.4305C288.266 86.8064 289.83 87.5958 291.781 87.596Z" fill="#3C4043"/>
<path d="M299.035 73.5418C299.035 73.5418 297.928 72.1134 296.759 70.3253C295.03 67.6835 293.159 64.2568 294.504 63.491C298.807 61.0385 301.05 65.012 303.775 68.5848C305.784 71.2177 305.059 75.3763 301.839 76.1609L300.352 75.8771L298.609 75.6274" fill="white"/>
<path d="M301.84 76.7912C301.889 76.7912 301.939 76.7852 301.987 76.7733C302.73 76.5931 303.416 76.2261 303.979 75.7068C304.542 75.1875 304.965 74.5329 305.207 73.8045C305.515 72.8647 305.591 71.8637 305.428 70.8879C305.265 69.912 304.869 68.9906 304.273 68.203C303.995 67.8392 303.722 67.4711 303.452 67.106C301.037 63.8433 298.538 60.4694 294.195 62.9447C294.013 63.0488 293.855 63.1901 293.731 63.3594C293.608 63.5287 293.521 63.7223 293.476 63.9276C293.366 64.3852 293.032 65.7782 296.235 70.6721C297.406 72.4606 298.494 73.8702 298.54 73.9294C298.642 74.0612 298.792 74.1468 298.957 74.1676C299.122 74.1883 299.288 74.1424 299.419 74.0399C299.55 73.9375 299.636 73.7868 299.656 73.6212C299.677 73.4556 299.631 73.2885 299.529 73.1567C299.518 73.1424 298.424 71.7253 297.282 69.9804C294.587 65.8626 294.62 64.5325 294.694 64.2228C294.698 64.1851 294.711 64.1489 294.732 64.1172C294.752 64.0854 294.78 64.0589 294.813 64.0399C298.031 62.2061 299.81 64.2958 302.447 67.8581C302.721 68.228 302.997 68.601 303.278 68.97C303.75 69.5902 304.064 70.3163 304.195 71.0857C304.325 71.8552 304.267 72.6449 304.026 73.3868C303.861 73.8975 303.574 74.3593 303.188 74.7313C302.803 75.1032 302.332 75.3736 301.818 75.5186L300.469 75.2611C300.459 75.2593 300.45 75.2578 300.44 75.2563L298.698 75.0067C298.533 74.9831 298.366 75.0261 298.233 75.1263C298.1 75.2265 298.013 75.3757 297.989 75.5409C297.966 75.7062 298.009 75.874 298.108 76.0075C298.208 76.141 298.356 76.2293 298.521 76.2528L300.249 76.5004L301.723 76.7815C301.761 76.7884 301.8 76.7916 301.84 76.7912Z" fill="#3C4043"/>
<path d="M247.464 103.573C247.579 103.573 247.691 103.541 247.789 103.481C247.887 103.421 247.967 103.335 248.02 103.233C248.073 103.13 248.096 103.015 248.088 102.9C248.08 102.785 248.041 102.675 247.975 102.58C247.961 102.561 246.57 100.582 243.75 96.4432C241.645 93.3546 241.866 91.221 242.123 88.7505C242.198 88.0309 242.275 87.2867 242.301 86.4847C242.306 86.3178 242.246 86.1555 242.132 86.0335C242.019 85.9115 241.862 85.8399 241.695 85.8343C241.529 85.8288 241.368 85.8897 241.246 86.0038C241.125 86.1179 241.054 86.2758 241.048 86.4427C241.023 87.1999 240.948 87.9214 240.876 88.6191C240.606 91.2235 240.35 93.6834 242.715 97.1534C245.542 101.301 246.937 103.286 246.951 103.306C247.009 103.389 247.086 103.456 247.175 103.502C247.264 103.549 247.363 103.573 247.464 103.573Z" fill="#3C4043"/>
<path d="M256.521 97.4714C256.616 97.4715 256.71 97.4498 256.796 97.4081C256.881 97.3664 256.956 97.3058 257.014 97.2308L259.311 94.2936C259.414 94.1624 259.461 93.9955 259.441 93.8298C259.421 93.6641 259.337 93.513 259.206 93.4099C259.075 93.3067 258.909 93.26 258.744 93.2799C258.579 93.2998 258.429 93.3847 258.326 93.5159L256.029 96.4531C255.957 96.5459 255.911 96.6574 255.899 96.7748C255.886 96.8922 255.907 97.0107 255.958 97.1169C256.01 97.2231 256.09 97.3127 256.189 97.3754C256.289 97.4381 256.404 97.4713 256.521 97.4714Z" fill="#3C4043"/>
<path d="M310.58 162.957C306.21 162.957 302.668 159.398 302.668 155.008C302.668 150.618 306.21 147.059 310.58 147.059C314.95 147.059 318.492 150.618 318.492 155.008C318.492 159.398 314.95 162.957 310.58 162.957Z" fill="#85B7FE"/>
<path d="M202.836 119.398C198.466 119.398 194.924 115.839 194.924 111.449C194.924 107.059 198.466 103.5 202.836 103.5C207.206 103.5 210.748 107.059 210.748 111.449C210.748 115.839 207.206 119.398 202.836 119.398Z" fill="#85B7FE"/>
<path d="M215.873 115.406C215.073 117.905 215.119 120.757 216.035 123.072C217.539 126.87 221.937 129.087 225.837 127.688C227.576 127.065 229.025 125.814 230.722 125.083C232.455 124.343 234.376 124.169 236.212 124.588C238.866 125.2 241.251 127.03 243.973 126.976C244.652 126.962 245.389 126.791 245.805 126.252C246.234 125.693 246.19 124.875 245.871 124.246C245.551 123.617 245.005 123.139 244.457 122.697C242.573 121.176 240.52 119.883 238.472 118.593C242.123 119.016 245.803 119.44 249.467 119.139C250.281 119.072 251.13 118.956 251.802 118.487C252.473 118.018 252.898 117.093 252.551 116.349C252.319 115.851 251.814 115.549 251.325 115.301C247.811 113.522 243.798 113.085 239.884 112.677L250.549 112.141C251.51 112.093 252.664 111.917 253.043 111.029C253.411 110.171 252.774 109.199 252.024 108.647C250.907 107.825 249.518 107.479 248.154 107.232C240.955 105.928 233.547 106.882 226.35 108.198C223.343 108.749 220.15 109.466 218.027 111.676C217.036 112.739 216.299 114.014 215.873 115.406Z" fill="white"/>
<path d="M223.37 128.744C224.282 128.745 225.187 128.588 226.046 128.281C227.021 127.895 227.955 127.41 228.832 126.833C229.515 126.393 230.229 126.001 230.967 125.662C232.577 124.972 234.363 124.811 236.07 125.2C237.087 125.471 238.078 125.83 239.032 126.275C240.593 126.946 242.206 127.638 243.984 127.604C245.026 127.583 245.827 127.248 246.298 126.636C246.843 125.928 246.893 124.878 246.427 123.959C246.047 123.21 245.412 122.661 244.848 122.205C243.642 121.247 242.389 120.35 241.093 119.519C243.869 119.806 246.696 119.996 249.516 119.765C250.366 119.695 251.341 119.573 252.158 119.003C253.006 118.41 253.631 117.185 253.116 116.081C252.806 115.415 252.178 115.028 251.605 114.738C249.965 113.934 248.231 113.341 246.442 112.976L250.579 112.77C251.25 112.736 253.032 112.647 253.617 111.278C254.12 110.103 253.364 108.855 252.392 108.139C251.16 107.232 249.68 106.869 248.264 106.613C240.869 105.273 233.306 106.286 226.236 107.579C223.077 108.157 219.806 108.916 217.575 111.239C216.518 112.372 215.732 113.73 215.275 115.212C214.428 117.859 214.494 120.884 215.451 123.304C216.085 124.898 217.176 126.267 218.586 127.236C219.996 128.205 221.662 128.73 223.37 128.744ZM234.234 123.735C232.941 123.734 231.662 123.996 230.473 124.505C229.681 124.867 228.915 125.286 228.181 125.758C227.377 126.289 226.52 126.738 225.625 127.095C222.148 128.342 218.022 126.393 216.616 122.839C215.762 120.682 215.707 117.975 216.468 115.598C216.866 114.298 217.553 113.107 218.477 112.113C220.449 110.059 223.502 109.359 226.461 108.818C233.414 107.545 240.843 106.547 248.042 107.853C249.31 108.083 250.625 108.399 251.652 109.156C252.223 109.575 252.686 110.269 252.467 110.782C252.279 111.223 251.658 111.456 250.517 111.513L239.851 112.05C239.694 112.058 239.545 112.125 239.435 112.239C239.324 112.352 239.261 112.503 239.257 112.661C239.252 112.82 239.308 112.974 239.412 113.093C239.516 113.212 239.661 113.288 239.818 113.304C243.637 113.703 247.586 114.114 251.042 115.864C251.443 116.067 251.834 116.298 251.982 116.616C252.187 117.057 251.869 117.673 251.443 117.97C250.881 118.363 250.101 118.456 249.414 118.512C245.798 118.809 242.109 118.382 238.542 117.969C238.401 117.952 238.258 117.985 238.138 118.06C238.017 118.136 237.926 118.251 237.879 118.386C237.832 118.52 237.832 118.667 237.879 118.802C237.926 118.937 238.017 119.051 238.137 119.127C240.137 120.386 242.205 121.688 244.063 123.188C244.548 123.579 245.043 124.006 245.311 124.533C245.507 124.919 245.589 125.501 245.307 125.867C244.999 126.267 244.33 126.34 243.959 126.347C242.452 126.378 241.03 125.766 239.525 125.119C238.503 124.643 237.441 124.26 236.351 123.975C235.657 123.815 234.947 123.735 234.235 123.735H234.234Z" fill="#3C4043"/>
<path d="M315.537 194.789C315.554 194.789 315.571 194.789 315.589 194.787L350.315 191.902C350.479 191.886 350.63 191.806 350.735 191.679C350.841 191.552 350.892 191.389 350.879 191.224C350.865 191.059 350.788 190.906 350.663 190.799C350.538 190.691 350.376 190.637 350.212 190.648L315.486 193.533C315.325 193.546 315.175 193.621 315.068 193.743C314.961 193.865 314.904 194.023 314.911 194.185C314.918 194.348 314.986 194.501 315.103 194.614C315.22 194.726 315.375 194.789 315.537 194.789Z" fill="#3C4043"/>
<path d="M235.357 183.199C237.271 183.728 239.314 183.515 241.08 182.601C242.845 181.687 244.204 180.139 244.886 178.265C245.568 176.391 245.524 174.328 244.762 172.485C244 170.643 242.576 169.155 240.773 168.318L235.357 183.199Z" fill="#85B7FE"/>
<path d="M264.326 181.047C264.326 182.981 265.029 184.849 266.301 186.301C267.574 187.752 269.33 188.688 271.24 188.933L276.529 174.36C275.334 173.585 273.953 173.148 272.531 173.095C271.109 173.042 269.699 173.376 268.45 174.06C267.201 174.745 266.159 175.755 265.433 176.984C264.707 178.214 264.325 179.617 264.326 181.047Z" fill="#85B7FE"/>
<path d="M303.384 176.752L311.864 189.505C312.999 188.188 313.672 186.533 313.78 184.795C313.887 183.056 313.424 181.33 312.461 179.882C311.498 178.434 310.088 177.343 308.448 176.777C306.809 176.212 305.029 176.203 303.384 176.752Z" fill="#85B7FE"/>
<path d="M333.241 179.92C333.24 181.621 333.783 183.277 334.788 184.645C335.794 186.013 337.21 187.02 338.827 187.52C340.445 188.02 342.18 187.985 343.777 187.421C345.374 186.857 346.749 185.794 347.699 184.387L340.549 171.994C338.561 172.147 336.704 173.048 335.349 174.518C333.994 175.987 333.241 177.917 333.241 179.92Z" fill="#85B7FE"/>
<path d="M302.668 123.83C302.667 125.424 303.143 126.981 304.033 128.3C304.924 129.618 306.188 130.638 307.663 131.226C309.137 131.814 310.753 131.943 312.301 131.597C313.85 131.251 315.259 130.445 316.346 129.285L313.765 124.808C311.927 121.62 309.186 119.054 305.892 117.436C304.893 118.173 304.081 119.135 303.521 120.246C302.961 121.357 302.669 122.585 302.668 123.83Z" fill="#85B7FE"/>
<path d="M273.991 109.311C274.197 110.91 274.882 112.409 275.956 113.609C277.03 114.808 278.442 115.651 280.003 116.026C281.565 116.4 283.203 116.289 284.701 115.706C286.198 115.124 287.484 114.098 288.387 112.764L273.991 109.311Z" fill="#85B7FE"/>
<path d="M198.826 93.3203C200.636 94.369 202.785 94.656 204.805 94.1187C206.824 93.5813 208.551 92.2633 209.606 90.4521C210.662 88.641 210.962 86.4837 210.441 84.4511C209.92 82.4185 208.62 80.6755 206.824 79.6025" fill="#85B7FE"/>
<path d="M184.815 127.331C184.828 129.725 185.508 132.033 187.1 133.917C189.226 136.437 192.485 137.88 195.724 137.945C197.942 134.161 196.504 129.618 192.738 127.389C191.537 126.679 190.172 126.3 188.779 126.289C187.386 126.279 186.015 126.638 184.805 127.331L184.815 127.331Z" fill="#85B7FE"/>
<path d="M243.073 86.7543C243.072 88.3003 243.521 89.8127 244.363 91.1064C245.206 92.4002 246.405 93.4191 247.815 94.0385C249.225 94.6579 250.784 94.8508 252.301 94.5937C253.818 94.3366 255.228 93.6405 256.357 92.5908L245.374 81.1484C243.898 82.6369 243.07 84.6532 243.073 86.7543Z" fill="#85B7FE"/>
<path d="M233.669 42.4219C232.821 39.7229 234.479 36.7908 237.372 35.8727C240.266 34.9547 243.299 36.3984 244.148 39.0974C244.996 41.7964 243.338 44.7286 240.444 45.6466C237.551 46.5647 234.518 45.1209 233.669 42.4219Z" fill="#3C4043"/>
<path d="M219.228 46.5505C218.374 43.8421 220.035 40.8973 222.939 39.9731C225.842 39.0488 228.888 40.4952 229.743 43.2035C230.597 45.9119 228.935 48.8567 226.032 49.7809C223.128 50.7052 220.082 49.2588 219.228 46.5505Z" fill="#3C4043"/>
<path d="M219.609 98.3376C220.163 99.8218 221.147 101.106 222.433 102.024C223.719 102.942 225.25 103.453 226.827 103.49C228.405 103.527 229.957 103.09 231.285 102.234C232.613 101.378 233.656 100.142 234.28 98.6861C234.903 97.2299 235.079 95.6195 234.785 94.0621C234.49 92.5046 233.739 91.0712 232.627 89.9463C231.515 88.8213 230.094 88.0561 228.546 87.7491C226.998 87.4421 225.394 87.6072 223.94 88.2234" fill="#85B7FE"/>
<path d="M216.133 107.036C216.148 107.036 216.162 107.036 216.177 107.035L223.534 106.525C223.616 106.519 223.697 106.497 223.77 106.46C223.844 106.424 223.91 106.373 223.964 106.31C224.018 106.248 224.059 106.175 224.085 106.097C224.111 106.019 224.122 105.936 224.116 105.854C224.111 105.771 224.089 105.691 224.052 105.617C224.016 105.543 223.965 105.476 223.903 105.422C223.841 105.368 223.769 105.326 223.691 105.3C223.613 105.274 223.53 105.263 223.448 105.269L217.115 105.708L224.507 88.4791C224.54 88.4032 224.557 88.3216 224.559 88.239C224.56 88.1563 224.545 88.0742 224.514 87.9974C224.484 87.9206 224.439 87.8506 224.381 87.7913C224.324 87.7321 224.256 87.6847 224.18 87.652C224.105 87.6193 224.023 87.6018 223.941 87.6007C223.859 87.5995 223.777 87.6146 223.701 87.6451C223.624 87.6757 223.555 87.721 223.496 87.7786C223.437 87.8362 223.389 87.9049 223.357 87.9808L215.559 106.158C215.518 106.254 215.501 106.358 215.51 106.462C215.519 106.566 215.554 106.666 215.611 106.753C215.668 106.84 215.745 106.911 215.837 106.961C215.928 107.01 216.03 107.036 216.134 107.036H216.133Z" fill="#3C4043"/>
<path d="M216.684 45.9897C215.714 45.1426 214.544 44.5613 213.285 44.3021C212.027 44.0429 210.723 44.1146 209.5 44.5104C208.277 44.9061 207.177 45.6124 206.305 46.5609C205.434 47.5093 204.821 48.6678 204.526 49.9241C204.231 51.1803 204.264 52.4918 204.622 53.7315C204.98 54.9712 205.65 56.0971 206.568 57.0001C207.486 57.9031 208.621 58.5526 209.862 58.8857C211.103 59.2188 212.409 59.2243 213.653 58.9015" fill="white"/>
<path d="M211.779 59.7685C212.464 59.7689 213.146 59.6821 213.81 59.5103C213.89 59.4905 213.966 59.4548 214.033 59.4053C214.099 59.3558 214.156 59.2935 214.198 59.222C214.241 59.1505 214.269 59.0712 214.281 58.9887C214.292 58.9063 214.288 58.8223 214.267 58.7416C214.246 58.661 214.21 58.5852 214.16 58.5188C214.11 58.4525 214.047 58.3967 213.975 58.3548C213.904 58.313 213.824 58.2858 213.742 58.275C213.66 58.2641 213.576 58.2698 213.496 58.2916C212.356 58.5888 211.159 58.585 210.02 58.2805C208.882 57.976 207.841 57.3811 206.998 56.5535C206.156 55.726 205.541 54.6938 205.213 53.557C204.884 52.4203 204.854 51.2176 205.124 50.0655C205.394 48.9135 205.956 47.8511 206.756 46.9815C207.555 46.1119 208.564 45.4646 209.686 45.1022C210.807 44.7398 212.003 44.6747 213.157 44.9133C214.311 45.1518 215.384 45.6858 216.272 46.4636C216.334 46.5179 216.406 46.5595 216.484 46.5859C216.562 46.6122 216.645 46.6229 216.727 46.6173C216.809 46.6117 216.889 46.5899 216.963 46.5532C217.036 46.5164 217.102 46.4654 217.156 46.4032C217.21 46.3409 217.252 46.2685 217.278 46.1902C217.304 46.1119 217.315 46.0291 217.309 45.9466C217.304 45.8642 217.282 45.7836 217.245 45.7096C217.209 45.6355 217.158 45.5695 217.096 45.5151C216.111 44.6522 214.932 44.0419 213.661 43.7365C212.39 43.4312 211.064 43.4397 209.797 43.7615C208.53 44.0833 207.359 44.7088 206.386 45.5844C205.412 46.46 204.663 47.5596 204.205 48.7892C203.746 50.0188 203.591 51.3417 203.752 52.6447C203.914 53.9477 204.387 55.1921 205.131 56.2712C205.876 57.3504 206.87 58.2322 208.027 58.8413C209.185 59.4504 210.473 59.7685 211.78 59.7685H211.779Z" fill="#3C4043"/>
<path d="M211.267 54.1493C211.305 54.1493 211.342 54.1459 211.38 54.1391L214.733 53.5286C214.855 53.5065 214.967 53.4489 215.056 53.363C215.145 53.2771 215.206 53.1668 215.233 53.0458C215.26 52.9248 215.251 52.7985 215.206 52.6829C215.162 52.5672 215.084 52.4673 214.984 52.3957L209.379 48.4096C209.312 48.3618 209.236 48.3278 209.156 48.3095C209.076 48.2913 208.992 48.289 208.911 48.303C208.83 48.3169 208.753 48.3468 208.683 48.3909C208.613 48.435 208.553 48.4924 208.506 48.5599C208.458 48.6274 208.424 48.7037 208.406 48.7843C208.388 48.8649 208.386 48.9484 208.399 49.0299C208.413 49.1114 208.443 49.1893 208.487 49.2593C208.531 49.3292 208.588 49.3898 208.655 49.4376L213.042 52.5578L211.157 52.9013C211.003 52.9293 210.865 53.0141 210.77 53.139C210.675 53.264 210.63 53.42 210.644 53.5765C210.658 53.733 210.73 53.8786 210.845 53.9847C210.96 54.0908 211.111 54.1498 211.267 54.15L211.267 54.1493Z" fill="#3C4043"/>
<path d="M195.901 139.173C197.14 139.173 198.373 138.996 199.562 138.647L228.065 131.045C228.145 131.024 228.22 130.987 228.285 130.937C228.35 130.887 228.405 130.824 228.447 130.753C228.488 130.681 228.515 130.602 228.526 130.521C228.537 130.439 228.531 130.355 228.51 130.275C228.489 130.195 228.453 130.121 228.403 130.055C228.353 129.989 228.29 129.934 228.219 129.892C228.148 129.851 228.07 129.824 227.988 129.813C227.906 129.802 227.824 129.807 227.744 129.828L199.225 137.434C198.146 137.752 197.026 137.914 195.901 137.915C195.578 137.915 195.254 137.9 194.934 137.873C193.392 137.749 191.889 137.32 190.513 136.609C189.137 135.899 187.915 134.921 186.917 133.733C185.513 132.07 184.794 129.99 184.782 127.551C184.77 125.385 185.327 123.043 186.39 120.778L199.365 93.61C199.686 93.0207 208.798 76.289 209.488 75.0065C210.683 72.7846 212.648 70.9514 215.172 69.7052C215.251 69.6721 215.322 69.6231 215.382 69.5612C215.441 69.4994 215.487 69.426 215.517 69.3456C215.547 69.2652 215.561 69.1794 215.556 69.0936C215.552 69.0078 215.531 68.9238 215.493 68.8467C215.455 68.7697 215.402 68.7012 215.337 68.6454C215.272 68.5897 215.196 68.548 215.115 68.5228C215.033 68.4976 214.947 68.4895 214.862 68.4989C214.777 68.5084 214.695 68.5352 214.62 68.5778C211.862 69.94 209.706 71.9567 208.386 74.41C207.689 75.7059 198.353 92.8493 198.259 93.0221C198.253 93.032 198.248 93.0431 198.243 93.0521L185.259 120.239C184.114 122.676 183.517 125.206 183.529 127.56C183.543 130.264 184.385 132.681 185.962 134.549C187.066 135.863 188.417 136.945 189.939 137.731C191.461 138.517 193.123 138.992 194.829 139.129C195.181 139.158 195.543 139.173 195.901 139.173Z" fill="#3C4043"/>
<path d="M278.031 110.896C278.122 110.896 278.213 110.876 278.296 110.837C278.379 110.798 278.452 110.741 278.511 110.67L291.737 94.81C291.843 94.682 291.895 94.5167 291.88 94.3504C291.866 94.1841 291.786 94.0305 291.659 93.9233C291.531 93.8161 291.367 93.7641 291.201 93.7788C291.036 93.7935 290.883 93.8737 290.776 94.0016L277.799 109.563L247.929 102.43C247.849 102.41 247.765 102.406 247.683 102.418C247.601 102.431 247.522 102.46 247.451 102.503C247.38 102.546 247.319 102.603 247.27 102.67C247.221 102.738 247.186 102.814 247.167 102.895C247.148 102.976 247.145 103.06 247.158 103.143C247.172 103.225 247.201 103.304 247.245 103.374C247.289 103.445 247.347 103.506 247.414 103.554C247.482 103.602 247.558 103.637 247.639 103.655L277.886 110.879C277.933 110.89 277.982 110.896 278.031 110.896Z" fill="#3C4043"/>
<path d="M258.336 95.035H258.347C258.433 95.0334 258.517 95.0142 258.596 94.9784C258.674 94.9426 258.744 94.8911 258.801 94.8271L273.626 78.2974C274.879 76.8491 276.462 75.7269 278.24 75.0265C278.317 74.997 278.388 74.9525 278.448 74.8954C278.508 74.8383 278.557 74.7697 278.59 74.6937C278.624 74.6177 278.642 74.5357 278.644 74.4526C278.646 74.3694 278.632 74.2866 278.602 74.2091C278.572 74.1316 278.527 74.0609 278.469 74.0009C278.412 73.941 278.343 73.8932 278.267 73.8601C278.191 73.8271 278.109 73.8095 278.026 73.8084C277.944 73.8073 277.861 73.8227 277.785 73.8537C275.821 74.6262 274.072 75.8642 272.688 77.4622L258.319 93.4831L256.765 91.8694L245.781 80.428L239.099 73.4792C236.816 71.1855 234.209 69.5787 230.638 68.2612C230.482 68.2037 230.309 68.2108 230.158 68.2809C230.008 68.351 229.891 68.4785 229.833 68.6352C229.776 68.7919 229.783 68.965 229.853 69.1165C229.923 69.268 230.05 69.3855 230.206 69.443C233.598 70.6942 236.065 72.2112 238.205 74.3616L244.88 81.3022L255.863 92.744L257.886 94.8419C257.944 94.9028 258.014 94.9513 258.091 94.9845C258.169 95.0176 258.252 95.0348 258.336 95.035Z" fill="#3C4043"/>
<path d="M285.697 96.9263C286.316 96.9297 286.932 96.8208 287.513 96.6047C288.128 96.3739 288.52 96.0863 289.231 95.565C290.46 94.6619 291.526 93.5542 292.383 92.2899C292.477 92.1521 292.512 91.9825 292.481 91.8184C292.451 91.6544 292.356 91.5093 292.219 91.415C292.082 91.3208 291.913 91.2852 291.75 91.316C291.587 91.3468 291.442 91.4415 291.349 91.5793C290.572 92.7254 289.606 93.7295 288.493 94.5481C287.831 95.0336 287.528 95.2551 287.074 95.4259C285.129 96.157 282.672 95.0892 281.099 93.7056C280.206 92.8988 279.498 91.9067 279.024 90.7978C277.498 87.3702 277.658 82.1367 279.475 76.0617C279.499 75.9824 279.507 75.8991 279.499 75.8166C279.491 75.734 279.467 75.6539 279.428 75.5808C279.389 75.5076 279.336 75.4429 279.272 75.3904C279.209 75.3379 279.135 75.2986 279.056 75.2747C278.977 75.2508 278.894 75.2429 278.812 75.2513C278.73 75.2598 278.65 75.2844 278.578 75.3239C278.505 75.3634 278.441 75.4168 278.389 75.4813C278.337 75.5457 278.298 75.6198 278.275 75.6994C276.344 82.1562 276.208 87.5548 277.881 91.312C278.428 92.5873 279.245 93.7278 280.275 94.6543C281.599 95.8176 283.641 96.9261 285.697 96.9263Z" fill="#3C4043"/>
<path d="M277.708 147.008C277.708 148.784 278.3 150.509 279.389 151.907C280.477 153.306 282.001 154.299 283.716 154.727L289.022 140.108C289.051 140.029 289.078 139.949 289.105 139.869C287.899 139.275 286.562 138.999 285.221 139.067C283.879 139.135 282.577 139.545 281.436 140.259C280.296 140.972 279.355 141.966 278.703 143.145C278.05 144.325 277.707 145.652 277.706 147.002L277.708 147.008Z" fill="#85B7FE"/>
<path d="M257.479 133.356C253.109 133.356 249.567 129.797 249.567 125.407C249.567 121.017 253.109 117.458 257.479 117.458C261.848 117.458 265.391 121.017 265.391 125.407C265.391 129.797 261.848 133.356 257.479 133.356Z" fill="#85B7FE"/>
<path d="M260.424 162.957C256.054 162.957 252.512 159.398 252.512 155.008C252.512 150.618 256.054 147.059 260.424 147.059C264.794 147.059 268.336 150.618 268.336 155.008C268.336 159.398 264.794 162.957 260.424 162.957Z" fill="#85B7FE"/>
<path d="M314.947 194.84C314.965 194.84 314.982 194.84 314.999 194.838L352.04 191.76C352.146 191.751 352.247 191.716 352.335 191.657C352.423 191.599 352.495 191.519 352.544 191.424C352.593 191.33 352.617 191.225 352.615 191.119C352.613 191.013 352.584 190.909 352.531 190.818L316.878 128.956L314.297 124.479C312.994 122.229 311.251 120.267 309.173 118.712C307.095 117.156 304.726 116.039 302.207 115.427L274.135 108.693L247.607 102.332C247.446 102.294 247.276 102.322 247.135 102.409C246.994 102.497 246.894 102.637 246.855 102.799C246.817 102.961 246.844 103.131 246.93 103.273C247.017 103.415 247.156 103.517 247.317 103.556L288.24 113.371L301.915 116.652C304.269 117.223 306.483 118.267 308.424 119.721C310.366 121.175 311.994 123.008 313.212 125.11L315.793 129.587L350.951 190.588L315.264 193.553L286.605 150.457C286.513 150.319 286.369 150.223 286.207 150.191C286.044 150.159 285.876 150.193 285.738 150.286C285.601 150.378 285.505 150.522 285.472 150.685C285.439 150.848 285.472 151.017 285.564 151.156L314.427 194.56C314.484 194.646 314.561 194.717 314.652 194.766C314.743 194.814 314.844 194.84 314.947 194.84Z" fill="#3C4043"/>
<path d="M112.01 125.077C116.412 133.955 127.163 137.576 136.024 133.167C144.885 128.757 148.5 117.986 144.098 109.109C144.051 109.013 144.002 108.917 143.953 108.822L136.188 112.772C138.49 117.313 136.682 122.864 132.149 125.171C127.617 127.478 122.076 125.666 119.773 121.125L112.01 125.077Z" fill="#FFDA2D"/>
<path d="M95.1394 111.119C95.2029 111.119 95.2674 111.11 95.3314 111.091C95.6842 110.984 95.8843 110.609 95.7782 110.253L94.2215 105.023C94.1157 104.667 93.7436 104.466 93.391 104.573C93.0382 104.679 92.8382 105.054 92.9442 105.41L94.5009 110.64C94.5876 110.931 94.8526 111.119 95.1394 111.119Z" fill="#3C4043"/>
<path d="M97.6785 110.433C97.7421 110.433 97.8066 110.424 97.8704 110.405C98.2232 110.298 98.4232 109.923 98.3174 109.567L96.935 104.921C96.8289 104.565 96.4573 104.363 96.1045 104.47C95.7517 104.577 95.5517 104.952 95.6575 105.308L97.0399 109.954C97.1268 110.245 97.3918 110.433 97.6785 110.433Z" fill="#3C4043"/>
<path d="M103.344 89.4883L108.092 90.161L103.47 92.5939L103.344 89.4883Z" fill="#3C4043"/>
<path d="M103.084 94.1112C102.53 94.9765 102.229 95.9824 102.217 97.0128V99.9547C102.217 102.803 99.9283 105.112 97.1046 105.112H83.6249L92.681 93.2793C93.4001 92.3211 93.9354 91.236 94.2593 90.0794C95.0299 87.4682 97.7532 85.9816 100.342 86.7592C102.93 87.5366 104.404 90.2837 103.633 92.8949C103.508 93.3201 103.326 93.7259 103.093 94.1022L103.084 94.1112Z" fill="white"/>
<path d="M83.6249 105.785H97.1045C100.291 105.785 102.884 103.17 102.884 99.9549V97.013C102.894 96.1311 103.148 95.2658 103.62 94.5148C103.634 94.4969 103.647 94.4783 103.658 94.4592C103.923 94.032 104.13 93.5703 104.272 93.0873C105.147 90.1245 103.469 86.9967 100.532 86.1145C97.5953 85.2324 94.4946 86.9252 93.6201 89.8875C93.3149 90.9768 92.8212 91.9783 92.1495 92.8732L83.0972 104.701C82.9418 104.904 82.9145 105.179 83.0265 105.409C83.1385 105.639 83.3706 105.785 83.6249 105.785ZM102.55 93.7094C102.54 93.7217 102.531 93.734 102.524 93.7459C101.9 94.7191 101.564 95.8461 101.55 97.0051V99.9547C101.55 102.428 99.5559 104.439 97.1045 104.439H84.9822L93.2089 93.6905C93.9853 92.6561 94.5533 91.5045 94.901 90.2624C95.5629 88.0201 97.9194 86.7339 100.152 87.4041C102.384 88.0746 103.659 90.4517 102.994 92.7032C102.89 93.0566 102.74 93.395 102.55 93.7094Z" fill="#3C4043"/>
<path d="M100.612 92.3081C99.9206 92.3081 99.3602 91.7429 99.3602 91.0456C99.3602 90.3484 99.9206 89.7832 100.612 89.7832C101.303 89.7832 101.863 90.3484 101.863 91.0456C101.863 91.7429 101.303 92.3081 100.612 92.3081Z" fill="#3C4043"/>
<path d="M83.086 104.712L92.1383 92.8839C92.81 91.989 93.3039 90.9875 93.6085 89.8993C94.4776 86.9354 97.5755 85.2368 100.514 86.1136C101.394 86.3762 102.203 86.8596 102.854 87.5117C103.046 87.7036 103.103 87.9934 103 88.2454C102.898 88.4974 102.654 88.6618 102.384 88.6618H99.5458C98.4926 88.6627 97.6348 89.5278 97.6335 90.5902V90.8976C97.6333 91.4134 97.8324 91.8982 98.1939 92.2625C99.46 93.5398 99.46 95.6182 98.1932 96.8966L97.4496 97.6444C97.088 98.0099 96.8888 98.4958 96.8888 99.0124V100.414C96.8888 103.381 94.4954 105.796 91.5539 105.796H83.6135C83.3592 105.796 83.1271 105.65 83.0151 105.419C82.903 105.189 82.9306 104.915 83.086 104.712Z" fill="#85B7FE"/>
<path d="M63.0354 118.67C63.0549 118.57 63.1018 118.479 63.1706 118.404C63.2394 118.33 63.3275 118.277 63.4249 118.251L85.0154 112.394L108.301 126.381L103.303 149.044C103.283 149.133 103.241 149.216 103.182 149.285C103.122 149.353 103.045 149.406 102.96 149.437C102.875 149.468 102.783 149.477 102.693 149.464C102.603 149.45 102.518 149.413 102.446 149.358L63.2373 119.206C63.1571 119.145 63.0958 119.062 63.0601 118.967C63.0244 118.872 63.0159 118.769 63.0354 118.67Z" fill="#FFDA2D"/>
<path d="M107.774 126.261L112.342 105.542L85.083 112.936L107.774 126.261Z" fill="white"/>
<path d="M107.774 126.913C107.921 126.913 108.065 126.863 108.18 126.77C108.295 126.677 108.375 126.547 108.407 126.403L112.975 105.683C112.999 105.574 112.995 105.46 112.962 105.353C112.93 105.245 112.871 105.148 112.79 105.07C112.709 104.993 112.61 104.938 112.501 104.91C112.393 104.882 112.28 104.883 112.172 104.912L84.913 112.308C84.7895 112.341 84.6786 112.411 84.5942 112.507C84.5099 112.604 84.4558 112.723 84.4389 112.851C84.422 112.978 84.4429 113.108 84.4991 113.223C84.5553 113.339 84.6442 113.435 84.7547 113.5L107.446 126.824C107.545 126.882 107.658 126.913 107.774 126.913ZM111.476 106.452L107.332 125.248L86.7484 113.161L111.476 106.452Z" fill="#3C4043"/>
<path d="M53.8367 221.445C58.9321 223.595 64.7943 221.179 66.9301 216.048C66.9332 216.04 66.9362 216.033 66.9393 216.026L93.8782 151.106C96.0734 145.992 93.7364 140.054 88.6585 137.843C83.5806 135.633 77.6844 137.986 75.4891 143.1C75.4567 143.176 48.4581 208.24 48.4581 208.24C46.3217 213.379 48.7264 219.29 53.8295 221.441C53.8317 221.443 53.8343 221.443 53.8367 221.445Z" fill="white"/>
<path d="M57.6892 222.887C61.8571 222.887 65.8224 220.41 67.5318 216.303C67.5318 216.303 67.5412 216.28 67.5412 216.28L94.4803 151.361C95.6081 148.733 95.6528 145.813 94.6025 143.145C93.5523 140.476 91.5332 138.379 88.917 137.241C83.5168 134.889 77.2236 137.401 74.8888 142.84C74.8559 142.917 50.6181 201.328 47.8547 207.988C45.5827 213.453 48.1496 219.761 53.5766 222.049L53.8361 221.445L53.5835 222.052C54.9249 222.618 56.3184 222.887 57.6892 222.887ZM66.327 215.794C64.3336 220.583 58.8435 222.846 54.0885 220.839C54.0874 220.838 54.0863 220.838 54.0855 220.837C49.3185 218.827 47.066 213.292 49.0598 208.495C49.3294 207.846 75.9724 143.639 76.0902 143.358C78.1369 138.589 83.6599 136.385 88.3986 138.448C90.6944 139.448 92.4663 141.288 93.3878 143.629C94.3094 145.971 94.2704 148.534 93.2779 150.846L66.3359 215.773L66.9295 216.049L66.327 215.794Z" fill="#3C4043"/>
<path d="M124.584 142.568C146.505 142.568 164.275 160.405 164.275 182.408C164.275 204.41 146.505 222.247 124.584 222.247C102.663 222.247 84.8921 204.411 84.8921 182.408C84.8921 160.405 102.663 142.568 124.584 142.568ZM124.584 208.36C138.864 208.36 150.44 196.741 150.44 182.408C150.44 168.075 138.864 156.456 124.584 156.456C110.304 156.456 98.7278 168.075 98.7278 182.408C98.7278 196.741 110.304 208.36 124.584 208.36Z" fill="white"/>
<path d="M124.584 222.889C146.822 222.889 164.914 204.729 164.914 182.408C164.914 160.087 146.822 141.928 124.584 141.928C102.345 141.928 84.2531 160.087 84.2531 182.408C84.2531 204.729 102.345 222.889 124.584 222.889ZM124.584 143.21C146.117 143.21 163.636 160.794 163.636 182.408C163.636 204.022 146.117 221.607 124.584 221.607C103.05 221.607 85.5307 204.022 85.5307 182.408C85.5307 160.795 103.05 143.21 124.584 143.21ZM124.584 209.002C139.193 209.002 151.078 197.072 151.078 182.408C151.078 167.745 139.193 155.815 124.584 155.815C109.974 155.815 98.0889 167.745 98.0889 182.408C98.0889 197.072 109.974 209.002 124.584 209.002ZM124.584 157.097C138.489 157.097 149.801 168.452 149.801 182.408C149.801 196.365 138.489 207.719 124.584 207.719C110.679 207.719 99.3664 196.365 99.3664 182.408C99.3664 168.452 110.679 157.097 124.584 157.097Z" fill="#3C4043"/>
<path d="M57.8473 134.067L56.7132 137.832C56.5152 138.486 56.0044 138.998 55.3519 139.196L51.5993 140.336C51.3546 140.41 51.2164 140.669 51.2902 140.915C51.335 141.064 51.4509 141.18 51.5993 141.225L55.3519 142.365C56.0044 142.563 56.5152 143.075 56.7132 143.729L57.8473 147.494C57.9195 147.74 58.1765 147.881 58.4219 147.809C58.573 147.764 58.691 147.646 58.7355 147.494L59.8716 143.729C60.0682 143.074 60.5786 142.562 61.2309 142.365L64.9835 141.225C65.2282 141.151 65.3664 140.892 65.2926 140.646C65.2478 140.498 65.1319 140.381 64.9835 140.336L61.2309 139.196C60.5786 138.999 60.0682 138.487 59.8716 137.832L58.7355 134.067C58.6633 133.821 58.4063 133.68 58.1609 133.752C58.01 133.797 57.8917 133.915 57.8473 134.067Z" fill="#85B7FE"/>
<path d="M334.405 80.9984L333.165 85.1139C332.949 85.829 332.39 86.3885 331.677 86.6046L327.576 87.8506C327.308 87.9318 327.157 88.2151 327.238 88.4833C327.287 88.6458 327.413 88.7732 327.576 88.8224L331.677 90.0684C332.39 90.2845 332.949 90.844 333.165 91.5591L334.405 95.6746C334.484 95.9435 334.765 96.0976 335.033 96.0185C335.198 95.9698 335.327 95.8401 335.376 95.6746L336.617 91.5591C336.832 90.8437 337.39 90.284 338.103 90.0684L342.205 88.8224C342.472 88.7412 342.623 88.4579 342.543 88.1897C342.494 88.0272 342.367 87.8998 342.205 87.8506L338.103 86.6046C337.39 86.389 336.832 85.8293 336.617 85.1139L335.376 80.9984C335.297 80.7295 335.016 80.5754 334.748 80.6545C334.583 80.703 334.453 80.8326 334.405 80.9984Z" fill="#FFDA2D"/>
<path d="M298.619 50.7783C299.343 51.4018 300.307 51.749 301.339 51.6721C303.403 51.5184 304.957 49.727 304.81 47.6705C304.664 45.6141 302.872 44.0718 300.808 44.2254C299.002 44.3598 297.586 45.7482 297.359 47.471L301.416 47.1689L298.619 50.7783Z" fill="#FFDA2D"/>
<path d="M301.683 47.0398L293.117 57.917L281.38 49.7203L301.683 47.0398Z" fill="white"/>
<path d="M293.205 58.5786C293.373 58.5557 293.532 58.4701 293.645 58.3275L302.21 47.4503C302.379 47.236 302.401 46.942 302.266 46.7061C302.132 46.4701 301.867 46.3393 301.597 46.375L281.293 49.0539C281.292 49.054 281.291 49.0542 281.29 49.0543C281.016 49.0916 280.793 49.2915 280.727 49.5588C280.66 49.8269 280.765 50.1078 280.992 50.2658L292.73 58.464C292.873 58.564 293.043 58.6007 293.205 58.5786ZM300.138 47.9167L292.983 57.0034L283.177 50.1545L300.138 47.9167Z" fill="#3C4043"/>
<path d="M295.485 74.0411C295.487 74.0408 295.489 74.0406 295.491 74.0403C295.859 73.987 296.116 73.6469 296.064 73.2804L293.857 57.8163C293.805 57.4498 293.473 57.1946 293.095 57.2491C292.727 57.3023 292.47 57.6424 292.523 58.0089L294.729 73.4731C294.781 73.8376 295.119 74.0908 295.485 74.0411Z" fill="#3C4043"/>
<path d="M292.577 57.3599C292.69 57.3599 292.805 57.3313 292.91 57.2716C293.236 57.0865 293.35 56.6721 293.166 56.3455L283.372 39.0081C283.254 38.8004 283.037 38.6695 282.799 38.6636L270.109 38.3488C269.729 38.3411 269.424 38.6362 269.415 39.0112C269.406 39.3863 269.702 39.6979 270.076 39.7072L282.382 40.0128L291.987 57.0152C292.111 57.236 292.34 57.3599 292.577 57.3599Z" fill="#3C4043"/>
<path d="M81.0538 222.564C81.182 222.564 81.3076 222.528 81.416 222.461C81.5244 222.393 81.611 222.297 81.6658 222.183L83.2084 218.979C83.2852 218.82 83.2943 218.637 83.2339 218.471C83.1735 218.305 83.0484 218.17 82.8862 218.094C82.724 218.019 82.5379 218.01 82.3689 218.069C82.2 218.128 82.0619 218.251 81.9852 218.411L80.4426 221.615C80.3937 221.716 80.3718 221.828 80.3787 221.939C80.3857 222.051 80.4213 222.16 80.4823 222.254C80.5433 222.349 80.6276 222.427 80.7275 222.481C80.8275 222.535 80.9397 222.564 81.0538 222.564Z" fill="#3C4043"/>
<path d="M77.3296 222.564C77.4436 222.564 77.5559 222.535 77.6558 222.481C77.7557 222.427 77.8401 222.349 77.9011 222.254C77.962 222.16 77.9977 222.051 78.0046 221.939C78.0115 221.828 77.9896 221.716 77.9408 221.615L76.3981 218.411C76.3601 218.332 76.3067 218.261 76.2408 218.202C76.175 218.144 76.098 218.099 76.0144 218.069C75.9307 218.04 75.842 218.027 75.7532 218.031C75.6645 218.035 75.5775 218.057 75.4971 218.094C75.4168 218.131 75.3448 218.184 75.2851 218.249C75.2254 218.313 75.1793 218.389 75.1494 218.471C75.1195 218.553 75.1063 218.64 75.1107 218.728C75.1151 218.815 75.1369 218.9 75.1749 218.979L76.7175 222.183C76.7723 222.297 76.8589 222.393 76.9673 222.461C77.0757 222.528 77.2013 222.564 77.3296 222.564Z" fill="#3C4043"/>
<path d="M79.1906 222.561C79.37 222.561 79.5421 222.491 79.669 222.366C79.7959 222.241 79.8672 222.072 79.8672 221.896V217.981C79.8672 217.805 79.7959 217.636 79.669 217.511C79.5421 217.386 79.37 217.316 79.1906 217.316C79.0111 217.316 78.839 217.386 78.7121 217.511C78.5852 217.636 78.5139 217.805 78.5139 217.981V221.896C78.5139 222.072 78.5852 222.241 78.7121 222.366C78.839 222.491 79.0111 222.561 79.1906 222.561Z" fill="#3C4043"/>
<path d="M42.1233 223.276H393.51C393.878 223.276 394.16 222.977 394.16 222.586C394.16 222.195 393.878 221.896 393.51 221.896H42.1233C41.7546 221.896 41.4727 222.195 41.4727 222.586C41.4727 222.977 41.7546 223.276 42.1233 223.276Z" fill="#E7F1FF"/>
</g>
<defs>
<clipPath id="clip0">
<rect width="418" height="236" fill="white" transform="matrix(-1 0 0 1 418 0)"/>
</clipPath>
</defs>
</svg>
