<svg width="210" height="108" viewBox="0 0 210 108" fill="none" xmlns="http://www.w3.org/2000/svg">
<path d="M85.0629 37.2956C82.0744 36.5813 79.9713 33.9114 77.0966 31.956C73.1155 29.2312 70.8138 27.1379 70.9066 26.0006C71.1434 23.3919 83.8058 29.6964 83.8058 29.6964C87.1109 30.7295 88.8545 31.646 89.4347 31.8605C89.4612 31.8605 94.0697 31.9422 99.5357 32.0341L109.817 32.1895L114.51 32.2812L120.129 30.3771L123.85 38.9372L120.673 41.4758L64.8177 42.8889C64.2564 41.1903 68.4699 38.9135 71.5025 37.1188C66.4557 37.6354 59.8442 38.2793 59.4817 36.0186C59.1231 33.7409 63.8864 32.8216 70.4354 32.2164C63.1376 31.6337 59.1935 32.3283 59.1068 30.1122C59.0061 27.6961 65.5199 27.0129 71.4424 27.2619" fill="#FFF1ED"/>
<path d="M64.8181 43.337H64.8296L120.685 41.9239C120.783 41.9214 120.877 41.8871 120.954 41.826L124.13 39.2874C124.207 39.2259 124.262 39.1408 124.286 39.0453C124.309 38.9497 124.301 38.849 124.262 38.7587L120.541 30.1986C120.496 30.0954 120.414 30.0129 120.312 29.9674C120.209 29.9218 120.093 29.9166 119.986 29.9527L114.441 31.8314L109.827 31.7418L99.5433 31.5863C96.0211 31.5265 92.8542 31.4718 91.0411 31.4401C90.0419 31.4227 89.6673 31.4162 89.5228 31.414C89.3956 31.3628 89.2138 31.2818 88.9933 31.1835C87.3612 30.4456 85.685 29.8098 83.9741 29.2795C83.6604 29.1246 81.1351 27.8843 78.4252 26.7793C73.0489 24.5871 71.6139 24.7876 71.0018 25.1291C70.8493 25.2113 70.7198 25.3305 70.6254 25.4758C70.5309 25.621 70.4745 25.7877 70.4612 25.9604C70.4436 26.2458 70.5015 26.5308 70.6293 26.7866C67.6755 26.7095 61.2045 26.7831 59.2414 28.745C59.0506 28.9208 58.8999 29.1356 58.7995 29.3748C58.6992 29.614 58.6515 29.872 58.6598 30.1313C58.7105 31.4237 59.7902 31.8232 60.598 32.0113C61.6617 32.2588 63.2117 32.3151 65.1739 32.3864L65.2917 32.3907C61.9858 32.9339 60.1963 33.634 59.4298 34.6188C59.2641 34.822 59.1436 35.0583 59.0764 35.3118C59.0091 35.5652 58.9967 35.8301 59.0398 36.0888C59.4002 38.3353 63.8512 38.2848 69.5235 37.7632C66.5586 39.5188 63.8266 41.3153 64.3932 43.0298C64.4228 43.1191 64.4798 43.1969 64.556 43.252C64.6323 43.3071 64.724 43.3369 64.8181 43.337ZM120.511 41.0314L65.225 42.4302C65.4411 41.1902 68.7019 39.2805 70.9221 37.9799C71.1979 37.8183 71.4689 37.6595 71.7312 37.5044C71.8191 37.4524 71.8866 37.3719 71.9225 37.2762C71.9584 37.1806 71.9606 37.0755 71.9286 36.9785C71.8966 36.8815 71.8324 36.7983 71.7467 36.7427C71.661 36.6871 71.5588 36.6625 71.4571 36.6729C69.2008 36.9039 66.1121 37.2189 63.7469 37.162C61.3986 37.1045 60.0412 36.6732 59.9248 35.9476C59.9013 35.8102 59.9081 35.6692 59.9447 35.5347C59.9813 35.4002 60.0469 35.2752 60.1369 35.1687C61.2906 33.6867 66.2689 33.0509 70.4769 32.6625C70.5887 32.6522 70.6926 32.6004 70.768 32.5173C70.8434 32.4341 70.8849 32.3257 70.8842 32.2135C70.8836 32.1012 70.8408 31.9933 70.7644 31.9111C70.688 31.8289 70.5835 31.7783 70.4715 31.7694C68.4564 31.6084 66.7294 31.5453 65.2059 31.4902C61.3198 31.3489 59.5998 31.2383 59.5552 30.0946C59.5534 29.9592 59.581 29.8251 59.6362 29.7015C59.6913 29.5778 59.7727 29.4676 59.8746 29.3785C61.1169 28.1371 65.5606 27.4825 71.2239 27.7016C72.0378 28.7025 73.6656 30.1504 76.8438 32.3257C77.7649 32.9744 78.6527 33.6692 79.5036 34.4075C81.2348 35.8601 82.87 37.2321 84.9585 37.7313C85.0742 37.759 85.1961 37.7396 85.2974 37.6773C85.3987 37.6151 85.4711 37.5152 85.4988 37.3996C85.5264 37.284 85.507 37.1621 85.4448 37.0609C85.3825 36.9596 85.2826 36.8871 85.167 36.8595C83.2843 36.4095 81.7277 35.1035 80.08 33.7209C79.2064 32.963 78.2947 32.25 77.3486 31.5846C74.0023 29.2943 72.497 27.8913 71.8383 27.0506C71.8155 27.0081 71.7861 26.9695 71.7512 26.9363C71.4021 26.4629 71.341 26.1862 71.3533 26.0362C71.3533 26.0092 71.3613 25.9829 71.3764 25.9605C71.3915 25.9382 71.4129 25.9208 71.4379 25.9107C72.661 25.2278 79.2891 27.9477 83.6058 30.0968C83.6271 30.1074 83.6493 30.1163 83.672 30.1234C85.3612 30.6455 87.0161 31.2726 88.6272 32.001C88.9167 32.13 89.1261 32.2233 89.2791 32.2799C89.3317 32.3009 89.3881 32.3104 89.4447 32.3077L91.0244 32.3352C92.8378 32.3668 96.0046 32.422 99.5279 32.4814L109.81 32.6368L114.501 32.7282C114.553 32.7298 114.605 32.7218 114.654 32.7046L119.882 30.9331L123.302 38.8004L120.511 41.0314Z" fill="#3C4043"/>
<rect x="44.2458" y="49.6216" width="13.9" height="28.3" transform="rotate(-93.111 44.2458 49.6216)" fill="#85B7FE" stroke="#0D6EFD" stroke-width="0.5"/>
<path d="M85 87.5746L88.1615 56.4038L90.3964 40.4843C90.8271 39.4489 91.3708 38.465 92.0175 37.5506C96.8204 30.7723 106.553 28.6758 112.89 34.0259C114.594 35.4641 119.238 40.297 119.238 40.297L132.961 57.6737L162.015 51.8804C164.179 55.1129 165.135 59.013 164.713 62.8879C164.291 66.7628 162.519 70.3618 159.711 73.0457L159.723 73.054L159.578 73.1701C158.946 73.7611 158.269 74.3012 157.554 74.7853L153.738 77.8289L181 77.1963V107.955L117.259 108C117.126 108 116.994 107.998 116.862 107.994C108.908 107.763 102.656 101.076 102.628 93.0663C102.622 92.0715 102.686 91.0776 102.819 90.0918L102.492 90.4048L85 87.5746Z" fill="white"/>
<path d="M131.042 35.4398L138.609 51.7408C138.634 51.7946 138.669 51.843 138.713 51.8831C138.757 51.9232 138.808 51.9543 138.864 51.9745C138.913 51.9912 138.965 51.9998 139.017 52C139.083 51.9999 139.149 51.985 139.21 51.9565L149.714 46.9224C151.948 45.8269 153.66 43.8941 154.477 41.5438C155.293 39.1936 155.15 36.6159 154.077 34.371C153.004 32.1261 151.088 30.3954 148.746 29.555C146.403 28.7146 143.824 28.8324 141.568 29.8828L131.255 34.845C131.148 34.8962 131.066 34.9874 131.026 35.0987C130.986 35.2101 130.992 35.3326 131.042 35.4398Z" fill="#FFED96"/>
<path d="M155.69 39.3933C155.721 41.1642 154.539 42.8148 153.225 44.0948C151.89 45.3942 150.309 46.4179 149.317 46.9383L149.307 46.9438L149.296 46.9488C144.395 49.2315 139.646 51.5053 136.11 53.2131C134.342 54.067 132.877 54.7793 131.849 55.2805C131.366 55.5156 130.981 55.7039 130.703 55.8391L132.35 58.4857L162.488 52.4225C162.351 51.8309 161.819 50.3031 161.031 48.2448C160.222 46.1337 159.16 43.5098 158.027 40.8744C156.894 38.2381 155.693 35.5961 154.605 33.4467C154.061 32.3717 153.548 31.4254 153.088 30.6669C152.622 29.8989 152.23 29.3559 151.932 29.0616L151.932 29.0615C149.607 26.7666 146.354 25.6246 143.025 25.5097C143.031 25.5418 143.037 25.575 143.043 25.6093C143.122 26.0609 143.207 26.7082 143.151 27.4414C143.077 28.3909 142.764 29.4645 141.936 30.4434C144.241 29.5345 146.075 29.2668 147.963 29.4436M155.69 39.3933L155.191 39.4018M155.69 39.3933C155.69 39.3933 155.69 39.3933 155.69 39.3933L155.191 39.4018M155.69 39.3933C155.623 35.4016 154.116 32.9343 152.387 31.4538C150.679 29.9908 148.79 29.5211 147.963 29.4436M155.191 39.4018C155.243 42.5078 151.001 45.4905 149.085 46.4956L155.191 39.4018ZM147.963 29.4436L147.916 29.9415L147.963 29.4436C147.963 29.4436 147.963 29.4436 147.963 29.4436ZM120.522 30.8324L124.039 38.8033C124.208 38.7318 124.422 38.6391 124.676 38.5272C125.475 38.1743 126.647 37.6425 128.01 37.02C128.848 36.6373 129.757 36.2204 130.695 35.7904C132.798 34.8268 135.044 33.7971 136.952 32.9367C137.285 32.7449 137.608 32.5618 137.923 32.3874C137.031 32.4417 136.25 32.321 135.568 32.0707C134.437 31.6557 133.628 30.9028 133.051 30.1089C132.476 29.318 132.122 28.4734 131.898 27.8469C131.823 27.6367 131.76 27.4435 131.71 27.2896L120.522 30.8324ZM131.593 26.9451C131.591 26.9401 131.591 26.9408 131.593 26.9458L131.593 26.9451ZM120.463 30.8513C120.463 30.8513 120.463 30.8512 120.463 30.8512L120.463 30.8513Z" fill="#FFED96" stroke="#3C4043"/>
<path d="M102.557 90.805L88.6284 88.4325C88.2096 90.7309 87.361 93.0465 85.8228 94.9362C84.1949 96.936 81.8127 98.4358 78.4159 98.942C76.5203 99.2249 74.951 100.441 73.8815 102.125C72.8732 103.712 72.3259 105.692 72.3785 107.621L94.9519 107.369L103.866 102.211L104.452 101.872L104.429 102.548L104.26 107.443H113.448C106.985 104.74 104.201 100.756 103.081 97.2935C102.471 95.4087 102.359 93.6945 102.399 92.451C102.419 91.8289 102.477 91.3232 102.531 90.9709C102.54 90.9112 102.549 90.8558 102.557 90.805Z" fill="#E7F1FF" stroke="#3C4043" stroke-width="0.75"/>
<mask id="path-8-inside-1" fill="white">
<path d="M181.009 100.69C186.018 98.0869 194.243 96.0691 199.244 103.756C201.503 107.222 206.32 107.873 210 105.889L200.426 84.7127L191.471 79.5879L196.776 76.6124L194.233 71L181 76.8452"/>
</mask>
<path d="M181.009 100.69C186.018 98.0869 194.243 96.0691 199.244 103.756C201.503 107.222 206.32 107.873 210 105.889L200.426 84.7127L191.471 79.5879L196.776 76.6124L194.233 71L181 76.8452" fill="#E7F1FF"/>
<path d="M199.244 103.756L198.406 104.303L198.406 104.302L199.244 103.756ZM210 105.889L210.911 105.477L211.295 106.327L210.475 106.769L210 105.889ZM200.426 84.7127L200.923 83.8448L201.204 84.0057L201.337 84.3007L200.426 84.7127ZM191.471 79.5879L190.975 80.4558L189.443 79.5792L190.982 78.7158L191.471 79.5879ZM196.776 76.6124L197.687 76.1997L198.065 77.0356L197.265 77.4846L196.776 76.6124ZM194.233 71L193.829 70.0853L194.735 69.685L195.144 70.5873L194.233 71ZM180.547 99.8029C183.135 98.4583 186.622 97.2246 190.169 97.3651C193.778 97.5081 197.393 99.0766 200.082 103.211L198.406 104.302C196.095 100.749 193.097 99.4827 190.09 99.3636C187.022 99.242 183.892 100.319 181.47 101.578L180.547 99.8029ZM200.082 103.21C201.988 106.134 206.183 106.811 209.525 105.009L210.475 106.769C206.457 108.936 201.018 108.309 198.406 104.303L200.082 103.21ZM209.089 106.301L199.515 85.1247L201.337 84.3007L210.911 105.477L209.089 106.301ZM199.929 85.5806L190.975 80.4558L191.968 78.72L200.923 83.8448L199.929 85.5806ZM190.982 78.7158L196.287 75.7403L197.265 77.4846L191.961 80.4601L190.982 78.7158ZM195.865 77.0252L193.322 71.4127L195.144 70.5873L197.687 76.1997L195.865 77.0252ZM194.637 71.9147L181.404 77.76L180.596 75.9305L193.829 70.0853L194.637 71.9147Z" fill="black" mask="url(#path-8-inside-1)"/>
<path d="M140.459 78H153.541C153.663 78 153.78 77.9473 153.866 77.8536C153.952 77.7598 154 77.6326 154 77.5C154 77.3674 153.952 77.2402 153.866 77.1464C153.78 77.0527 153.663 77 153.541 77H140.459C140.337 77 140.22 77.0527 140.134 77.1464C140.048 77.2402 140 77.3674 140 77.5C140 77.6326 140.048 77.7598 140.134 77.8536C140.22 77.9473 140.337 78 140.459 78Z" fill="#3C4043"/>
<path d="M114.489 76C114.603 75.9999 114.714 75.9638 114.802 75.898C114.889 75.8322 114.949 75.741 114.969 75.6402L115.992 70.5126C116.004 70.4562 116.002 70.3984 115.989 70.3425C115.975 70.2866 115.949 70.2336 115.912 70.1866C115.876 70.1397 115.829 70.0996 115.775 70.0687C115.721 70.0379 115.661 70.0168 115.597 70.0068C115.534 69.9967 115.47 69.9979 115.407 70.0102C115.344 70.0225 115.285 70.0456 115.233 70.0784C115.18 70.1112 115.135 70.1528 115.101 70.2011C115.066 70.2493 115.042 70.3032 115.031 70.3595L114.007 75.4872C113.995 75.55 113.998 75.6144 114.017 75.676C114.035 75.7376 114.068 75.7948 114.114 75.8436C114.16 75.8925 114.217 75.9318 114.282 75.9588C114.347 75.9858 114.417 75.9999 114.489 76Z" fill="#3C4043"/>
<path d="M119.211 40.4053C119.211 40.4053 114.574 35.6119 112.872 34.1855C106.543 28.8796 96.8243 30.9587 92.0278 37.6813C91.382 38.5882 90.8391 39.564 90.4089 40.5909L88.177 56.3798L85.0199 87.2944L102.488 90.1008" fill="white"/>
<path d="M102.49 90.5491C102.602 90.5487 102.71 90.506 102.793 90.4296C102.875 90.3531 102.926 90.2484 102.935 90.1363C102.944 90.0241 102.91 89.9128 102.841 89.8243C102.771 89.7358 102.671 89.6766 102.56 89.6585L85.5098 86.9193L88.6231 56.434L90.8457 40.7114C91.2594 39.7345 91.7785 38.8057 92.3938 37.9414C93.5968 36.2545 95.1347 34.8338 96.9115 33.7678C98.6883 32.7019 100.666 32.0136 102.721 31.7461C106.384 31.2796 109.887 32.269 112.585 34.5299C114.249 35.9251 118.843 40.6699 118.89 40.7178C118.972 40.8033 119.086 40.8524 119.204 40.8544C119.323 40.8564 119.438 40.811 119.524 40.7284C119.609 40.6457 119.658 40.5325 119.66 40.4137C119.662 40.2948 119.617 40.18 119.534 40.0946C119.344 39.8983 114.861 35.2682 113.161 33.843C110.27 31.4189 106.521 30.3592 102.607 30.8569C100.43 31.1403 98.3345 31.8694 96.4516 32.9989C94.5687 34.1283 92.9389 35.6337 91.664 37.4211C90.9991 38.3553 90.4399 39.3605 89.9966 40.418C89.982 40.4533 89.972 40.4904 89.9667 40.5283L87.7342 56.3172C87.7342 56.3229 87.7329 56.3287 87.7323 56.3344L84.575 87.2491C84.5634 87.3629 84.5958 87.4769 84.6655 87.5676C84.7352 87.6583 84.8369 87.7189 84.9499 87.7371L102.418 90.5434C102.442 90.5473 102.466 90.5492 102.49 90.5491Z" fill="#3C4043"/>
<path d="M117.028 108L180.553 107.955C180.671 107.955 180.785 107.907 180.869 107.823C180.953 107.738 181 107.623 181 107.503V76.7599C181 76.6998 180.988 76.6402 180.965 76.5847C180.942 76.5292 180.908 76.479 180.866 76.4368C180.824 76.394 180.773 76.3604 180.718 76.3383C180.662 76.3162 180.602 76.306 180.543 76.3084L154.707 76.9096L157.45 74.7149C158.173 74.2237 158.856 73.6767 159.495 73.079L159.627 72.9736C159.668 72.9408 159.703 72.9008 159.731 72.8554C162.572 70.0932 164.358 66.4078 164.773 62.4476C165.189 58.4874 164.208 54.506 162.004 51.2038C161.971 51.1538 161.929 51.1108 161.88 51.0773C161.831 51.0438 161.776 51.0206 161.718 51.0088C161.66 50.9971 161.6 50.9971 161.542 51.0088C161.484 51.0206 161.429 51.0439 161.379 51.0774C161.33 51.1109 161.288 51.1539 161.256 51.2039C161.223 51.2539 161.201 51.31 161.19 51.3688C161.179 51.4276 161.18 51.488 161.193 51.5465C161.205 51.6049 161.229 51.6603 161.263 51.7095C163.36 54.852 164.286 58.6433 163.877 62.4101C163.468 66.1769 161.749 69.6753 159.027 72.2839C159.009 72.3013 158.993 72.3199 158.978 72.3398L158.925 72.3821C158.916 72.3895 158.907 72.3972 158.898 72.4051C158.286 72.9794 157.63 73.5044 156.936 73.9753C156.926 73.982 156.917 73.989 156.907 73.9962L153.105 77.0385C153.031 77.0973 152.978 77.1779 152.952 77.269C152.927 77.36 152.93 77.4569 152.962 77.546C152.993 77.6356 153.052 77.7128 153.129 77.7664C153.207 77.82 153.299 77.8472 153.393 77.8439L180.105 77.2221V107.052L117.029 107.097C116.902 107.097 116.773 107.095 116.646 107.091C108.963 106.867 102.922 100.511 102.895 92.6203C102.881 88.8894 103.762 83.8429 108.031 80.9911C108.044 80.9823 108.057 80.9728 108.069 80.9627L126.73 65.3968C126.822 65.3205 126.879 65.2106 126.89 65.0914C126.902 64.9721 126.865 64.8532 126.79 64.7609C126.714 64.6685 126.605 64.6103 126.487 64.599C126.369 64.5877 126.251 64.6242 126.16 64.7005L107.517 80.2508C102.933 83.3279 101.986 88.6757 102 92.6231C102.006 96.6048 103.529 100.431 106.255 103.309C108.958 106.196 112.687 107.881 116.62 107.994C116.755 107.997 116.891 108 117.028 108Z" fill="#3C4043"/>
<path d="M139.028 52C139.096 51.9999 139.162 51.9847 139.223 51.9555L149.748 46.9771C149.855 46.9255 149.936 46.8344 149.975 46.7237C150.014 46.613 150.007 46.4916 149.956 46.3859C149.904 46.2803 149.813 46.1989 149.701 46.1595C149.589 46.1201 149.466 46.1259 149.359 46.1756L139.245 50.9593L131.854 35.248C131.802 35.1438 131.711 35.0639 131.6 35.0253C131.489 34.9867 131.368 34.9924 131.261 35.0413C131.154 35.0902 131.071 35.1783 131.029 35.2868C130.988 35.3953 130.991 35.5157 131.038 35.6221L138.62 51.7426C138.656 51.8195 138.713 51.8846 138.786 51.9302C138.858 51.9758 138.942 52 139.028 52Z" fill="#3C4043"/>
<path d="M139.966 17.3974L142.51 24.0367C142.827 24.8636 142.931 25.7572 142.81 26.6347C142.69 27.5122 142.35 28.3452 141.822 29.0563L141.553 29.4148C140.995 30.1596 140.25 30.7428 139.392 31.1046C138.535 31.4664 137.596 31.5937 136.673 31.4736C135.751 31.3535 134.876 30.9903 134.14 30.4212C133.404 29.852 132.832 29.0974 132.483 28.2346L130.75 23.9634C128.867 23.7069 127.14 22.7769 125.891 21.3456C124.641 19.9144 123.952 18.0788 123.951 16.1787C123.953 15.529 124.034 14.882 124.19 14.2515C124.595 12.6661 125.483 11.2456 126.73 10.1867C126.581 9.57588 126.506 8.94939 126.506 8.32065C126.507 7.58838 126.608 6.85962 126.805 6.15447L135.765 5.91992L137.558 9.05716L140.028 9.35355C143.269 9.74197 144.432 13.8464 141.878 15.8774L139.966 17.3974Z" fill="#FFF1ED"/>
<path d="M137.335 31.9655C137.602 31.9655 137.869 31.9469 138.134 31.9101C138.88 31.8086 139.598 31.5594 140.246 31.1772C140.895 30.795 141.461 30.2875 141.911 29.6841L142.18 29.3256C142.754 28.5543 143.124 27.6503 143.254 26.6977C143.385 25.7451 143.272 24.7749 142.927 23.8775L140.5 17.5442L142.155 16.2285C142.792 15.7224 143.265 15.0392 143.514 14.2649C143.764 13.4907 143.778 12.6599 143.557 11.8773C143.335 11.0947 142.886 10.3952 142.268 9.86692C141.649 9.3386 140.888 9.00507 140.08 8.90831L137.835 8.63941L136.154 5.69803C136.113 5.62782 136.055 5.56979 135.984 5.53006C135.914 5.49033 135.834 5.47038 135.753 5.47229L126.793 5.70669C126.697 5.70918 126.604 5.74246 126.528 5.80164C126.452 5.86081 126.398 5.94275 126.372 6.03535C126.163 6.7793 126.057 7.54835 126.057 8.32105C126.057 8.89397 126.117 9.46533 126.234 10.0261C125.019 11.1229 124.157 12.5549 123.755 14.1414C123.59 14.8081 123.505 15.4922 123.502 16.1791C123.507 18.1411 124.205 20.0383 125.472 21.5365C126.74 23.0346 128.495 24.0375 130.43 24.3684L132.067 28.4035C132.452 29.3529 133.085 30.1816 133.9 30.8029C134.886 31.5574 136.093 31.966 137.335 31.9655ZM135.508 6.37537L137.168 9.27985C137.203 9.3406 137.251 9.39239 137.309 9.43106C137.368 9.46974 137.434 9.49424 137.504 9.50259L139.974 9.79884C140.606 9.87498 141.201 10.1362 141.685 10.5497C142.169 10.9631 142.519 11.5104 142.693 12.1226C142.866 12.7348 142.855 13.3846 142.66 13.9904C142.465 14.5962 142.096 15.1308 141.598 15.5271L139.685 17.0472C139.611 17.1065 139.557 17.1879 139.532 17.2798C139.507 17.3717 139.512 17.4692 139.546 17.5581L142.089 24.1974C142.381 24.9537 142.476 25.7714 142.366 26.5743C142.256 27.3772 141.944 28.1393 141.461 28.7896L141.193 29.1463C140.813 29.6529 140.336 30.0794 139.791 30.4012C139.245 30.723 138.641 30.9338 138.014 31.0214C137.386 31.1091 136.748 31.0718 136.135 30.9119C135.522 30.7519 134.946 30.4724 134.442 30.0894C133.755 29.5655 133.221 28.8667 132.897 28.0661L131.164 23.7951C131.134 23.7219 131.085 23.6579 131.023 23.6095C130.96 23.5612 130.886 23.5301 130.808 23.5196C129.034 23.2736 127.409 22.3954 126.231 21.0467C125.053 19.698 124.402 17.9695 124.398 16.1791C124.399 15.5652 124.475 14.9537 124.624 14.3581C125.004 12.8631 125.841 11.5242 127.02 10.5286C127.083 10.4748 127.13 10.4043 127.156 10.3252C127.182 10.246 127.185 10.1613 127.165 10.0804C126.886 8.93526 126.882 7.74028 127.154 6.59333L135.508 6.37537Z" fill="#3C4043"/>
<path d="M126.017 6.19564C126.515 4.46578 127.556 2.93529 128.992 1.82346C130.428 0.711636 132.185 0.0755391 134.011 0.0063164C135.837 -0.0629063 137.639 0.438298 139.158 1.43811C140.676 2.43793 141.834 3.88504 142.466 5.5721C142.547 5.77032 142.615 5.97319 142.672 6.17958C142.889 6.93713 143 7.72062 143 8.50789C143 8.76144 142.987 9.01285 142.964 9.26411C142.951 9.26411 142.939 9.26089 142.926 9.26089C142.048 9.26273 141.156 9.06671 140.29 9.2915C139.556 9.48124 138.922 9.96355 138.371 10.4586C137.407 11.3234 136.393 12.6591 136.69 14C136.59 13.9748 136.502 13.9175 136.439 13.8374C136.377 13.7572 136.343 13.6587 136.343 13.5575V9.25768C136.342 8.60047 136.077 7.97041 135.604 7.50569C135.132 7.04098 134.492 6.77956 133.824 6.77879H126.467C126.395 6.77881 126.324 6.76241 126.259 6.73088C126.195 6.69935 126.138 6.65355 126.095 6.59706C126.051 6.54057 126.022 6.47493 126.008 6.40529C125.995 6.33564 125.998 6.26389 126.017 6.19564H126.017Z" fill="#3C4043"/>
<path d="M131.724 23.9999C133.547 24.006 135.325 23.5467 136.804 22.6878C136.906 22.6289 136.974 22.5399 136.994 22.4405C137.014 22.3411 136.984 22.2393 136.911 22.1576C136.838 22.0759 136.728 22.021 136.604 22.0049C136.481 21.9888 136.355 22.0128 136.253 22.0717C134.935 22.8372 133.349 23.2463 131.724 23.2405C131.328 23.2409 130.932 23.2169 130.54 23.169C130.417 23.1544 130.291 23.1796 130.191 23.2392C130.091 23.2987 130.024 23.3878 130.005 23.4869C129.987 23.586 130.017 23.6871 130.09 23.7682C130.163 23.8492 130.274 23.9037 130.396 23.9196C130.836 23.9734 131.28 24.0003 131.724 23.9999Z" fill="#3C4043"/>
<path d="M139.966 17.3981C140.834 17.6265 141.753 17.5774 142.592 17.2576C143.431 16.9379 144.15 16.3635 144.646 15.6151C145.143 14.8666 145.392 13.9816 145.361 13.0841C145.329 12.1866 145.017 11.3216 144.468 10.6103C143.92 9.89903 143.163 9.37716 142.303 9.11784C141.443 8.85852 140.523 8.87476 139.673 9.16427C138.822 9.45379 138.084 10.0021 137.561 10.7323C137.038 11.4625 136.757 12.338 136.757 13.236" fill="#FFF1ED"/>
<path d="M141.059 17.9867C141.999 17.9867 142.917 17.7081 143.699 17.1861C144.48 16.664 145.089 15.9221 145.449 15.054C145.808 14.186 145.903 13.2308 145.719 12.3092C145.536 11.3877 145.083 10.5412 144.419 9.87679C143.754 9.2124 142.908 8.75994 141.986 8.57664C141.064 8.39333 140.109 8.48741 139.241 8.84698C138.372 9.20654 137.63 9.81545 137.108 10.5967C136.586 11.3779 136.307 12.2964 136.307 13.236C136.307 13.3549 136.354 13.4689 136.439 13.5529C136.523 13.637 136.637 13.6842 136.756 13.6842C136.874 13.6842 136.988 13.637 137.072 13.5529C137.157 13.4689 137.204 13.3549 137.204 13.236C137.205 12.4329 137.457 11.6503 137.925 10.9977C138.394 10.3451 139.054 9.85534 139.815 9.5969C140.575 9.33846 141.398 9.32434 142.167 9.5565C142.936 9.78867 143.613 10.2555 144.103 10.8916C144.593 11.5277 144.872 12.3012 144.901 13.1038C144.93 13.9064 144.707 14.6978 144.263 15.3673C143.819 16.0368 143.177 16.5507 142.427 16.8372C141.676 17.1236 140.855 17.1682 140.078 16.9647C139.965 16.9391 139.846 16.9586 139.747 17.0189C139.647 17.0792 139.575 17.1758 139.546 17.2881C139.516 17.4005 139.532 17.5199 139.589 17.6212C139.645 17.7225 139.739 17.7978 139.851 17.8312C140.245 17.9345 140.651 17.9868 141.059 17.9867Z" fill="#3C4043"/>
<path d="M141.264 15C141.353 15 141.441 14.9755 141.514 14.9297C141.587 14.884 141.643 14.8192 141.675 14.7441C141.706 14.669 141.711 14.5871 141.688 14.5094C141.666 14.4318 141.618 14.362 141.551 14.3096L140.338 13.3702L142.684 12.7705C142.795 12.7415 142.889 12.6742 142.945 12.5832C143.001 12.4923 143.015 12.3852 142.983 12.2853C142.951 12.1854 142.877 12.1009 142.776 12.0501C142.675 11.9994 142.555 11.9865 142.444 12.0145L139.318 12.8138C139.242 12.8332 139.173 12.8707 139.119 12.9223C139.065 12.9739 139.027 13.0377 139.01 13.1069C138.993 13.1761 138.997 13.2482 139.022 13.3155C139.047 13.3827 139.092 13.4427 139.152 13.4891L140.977 14.9042C141.057 14.9661 141.159 15.0001 141.264 15Z" fill="#3C4043"/>
<path d="M129.578 11C129.684 10.9998 129.787 10.965 129.865 10.9026C129.943 10.8403 129.991 10.7549 129.999 10.6636C130.007 10.5724 129.974 10.482 129.907 10.4105C129.841 10.339 129.745 10.2918 129.639 10.2783L127.485 10.0039C127.374 9.9898 127.261 10.0141 127.171 10.0714C127.081 10.1287 127.021 10.2144 127.005 10.3096C126.988 10.4048 127.016 10.5017 127.083 10.579C127.15 10.6563 127.25 10.7077 127.361 10.7218L129.515 10.9961C129.536 10.9987 129.557 11 129.578 11Z" fill="#3C4043"/>
<path d="M132.546 15.2211C132.592 15.2211 132.638 15.2201 132.685 15.2181C133.127 15.2003 133.561 15.0957 133.962 14.9101C134.363 14.7246 134.724 14.4619 135.024 14.137C135.324 13.812 135.557 13.4312 135.709 13.0163C135.862 12.6014 135.931 12.1605 135.913 11.7188C135.895 11.2771 135.791 10.8432 135.605 10.4419C135.42 10.0407 135.157 9.67989 134.832 9.38016C134.507 9.08044 134.126 8.84765 133.711 8.69509C133.296 8.54253 132.855 8.47319 132.413 8.49102C131.533 8.52714 130.703 8.90639 130.099 9.54751C129.496 10.1886 129.168 11.0406 129.185 11.9208C129.202 12.801 129.564 13.6394 130.192 14.2563C130.82 14.8732 131.665 15.2195 132.546 15.221V15.2211ZM132.55 9.38483C133.196 9.38561 133.816 9.63946 134.277 10.0919C134.739 10.5444 135.004 11.1595 135.017 11.8054C135.03 12.4513 134.789 13.0765 134.346 13.547C133.904 14.0176 133.294 14.296 132.649 14.3225C132.325 14.3356 132.001 14.2847 131.696 14.1728C131.392 14.0608 131.113 13.89 130.874 13.6701C130.636 13.4502 130.443 13.1854 130.307 12.891C130.171 12.5966 130.094 12.2783 130.081 11.9542C130.068 11.6301 130.118 11.3066 130.23 11.0021C130.342 10.6977 130.513 10.4183 130.733 10.1799C130.953 9.94146 131.218 9.7487 131.512 9.61259C131.807 9.47649 132.125 9.3997 132.45 9.38663C132.483 9.38528 132.517 9.38483 132.55 9.38483Z" fill="#3C4043"/>
<path d="M130.45 12.1247C130.434 11.7243 130.746 11.3867 131.146 11.3706C131.547 11.3544 131.884 11.6658 131.9 12.0662C131.917 12.4665 131.605 12.8041 131.205 12.8203C130.804 12.8364 130.467 12.525 130.45 12.1247Z" fill="#3C4043"/>
<path d="M127.045 11.6403C127.32 11.059 127.397 10.4037 127.265 9.77435C127.133 9.14502 126.798 8.57633 126.312 8.15513C125.826 7.73393 125.215 7.48337 124.573 7.44173C123.931 7.40009 123.293 7.56965 122.757 7.92451C122.221 8.27938 121.815 8.80004 121.602 9.40698C121.39 10.0139 121.382 10.6738 121.579 11.2857C121.777 11.8977 122.17 12.4282 122.697 12.7961C123.225 13.1641 123.858 13.3493 124.501 13.3234C124.669 13.3166 124.836 13.2955 125.001 13.2605L127.045 11.6403Z" fill="white"/>
<path d="M124.38 13.7743C124.426 13.7743 124.472 13.7734 124.518 13.7716C124.712 13.7637 124.905 13.7394 125.094 13.699C125.162 13.6847 125.225 13.6548 125.279 13.6119L127.323 11.9919C127.377 11.9492 127.42 11.8947 127.45 11.8326C127.759 11.1791 127.851 10.4439 127.713 9.73425C127.575 9.02459 127.214 8.37752 126.683 7.88732C126.277 7.51296 125.785 7.2433 125.252 7.10172C124.718 6.96015 124.158 6.95095 123.62 7.07491C123.081 7.19888 122.582 7.45227 122.164 7.81309C121.746 8.17392 121.422 8.63128 121.221 9.14548C121.02 9.65968 120.947 10.2152 121.009 10.7638C121.072 11.3124 121.267 11.8375 121.578 12.2936C121.889 12.7497 122.307 13.1229 122.796 13.3809C123.284 13.639 123.828 13.774 124.38 13.7743ZM124.808 12.8415C124.307 12.9281 123.792 12.8602 123.332 12.6467C122.871 12.4332 122.486 12.0844 122.229 11.6467C121.971 11.2089 121.854 10.7032 121.891 10.1968C121.929 9.69048 122.12 9.20761 122.439 8.81263C122.758 8.41765 123.19 8.12934 123.677 7.98615C124.165 7.84296 124.684 7.8517 125.166 8.01121C125.648 8.17071 126.07 8.47339 126.376 8.87889C126.681 9.28438 126.856 9.7734 126.877 10.2807C126.893 10.6494 126.826 11.017 126.681 11.3564L124.808 12.8415Z" fill="#3C4043"/>
<path d="M124.138 11.0947C124.122 10.6908 124.436 10.3501 124.84 10.3338C125.244 10.3175 125.585 10.6317 125.601 11.0357C125.618 11.4396 125.303 11.7803 124.899 11.7966C124.495 11.8129 124.154 11.4987 124.138 11.0947Z" fill="#3C4043"/>
<path d="M127.498 19C127.532 19 127.567 19 127.601 18.9987C128.263 18.9809 128.887 18.7938 129.337 18.4785C129.786 18.1632 130.024 17.7454 129.998 17.3168C129.991 17.2296 129.932 17.1478 129.832 17.0886C129.733 17.0294 129.602 16.9977 129.468 17.0001C129.401 17.0019 129.335 17.0121 129.274 17.0303C129.213 17.0485 129.158 17.0743 129.113 17.1062C129.068 17.1381 129.032 17.1754 129.009 17.2161C128.986 17.2568 128.975 17.3001 128.978 17.3434C128.99 17.5956 128.847 17.8405 128.581 18.025C128.316 18.2096 127.948 18.3188 127.559 18.3289C127.169 18.3391 126.789 18.2494 126.501 18.0792C126.213 17.9091 126.041 17.6724 126.021 17.4205C126.018 17.3771 126.002 17.3345 125.974 17.2951C125.946 17.2557 125.906 17.2203 125.857 17.1909C125.808 17.1615 125.75 17.1386 125.687 17.1236C125.624 17.1087 125.557 17.1018 125.49 17.1036C125.423 17.1053 125.357 17.1156 125.296 17.1338C125.236 17.152 125.181 17.1778 125.135 17.2097C125.09 17.2416 125.055 17.279 125.031 17.3197C125.008 17.3605 124.998 17.4037 125 17.4471C125.027 17.8642 125.302 18.2586 125.767 18.5479C126.232 18.8372 126.852 18.9991 127.497 18.9999L127.498 19Z" fill="#3C4043"/>
<path d="M126.943 15.7542C127.031 15.7542 127.116 15.7285 127.19 15.6802C127.263 15.632 127.32 15.5633 127.355 15.4827C127.389 15.4021 127.4 15.3131 127.384 15.2268C127.369 15.1405 127.328 15.0606 127.268 14.9971L125.499 13.1389L128.762 10.8072C128.811 10.7732 128.852 10.73 128.884 10.68C128.915 10.6299 128.937 10.5741 128.947 10.5158C128.957 10.4575 128.955 10.3977 128.942 10.3401C128.929 10.2824 128.904 10.2279 128.87 10.1797C128.835 10.1316 128.791 10.0907 128.741 10.0595C128.691 10.0283 128.635 10.0074 128.576 9.99794C128.518 9.98849 128.458 9.9907 128.401 10.0044C128.343 10.0182 128.289 10.0432 128.241 10.078L124.558 12.7096C124.505 12.7469 124.462 12.7949 124.43 12.8505C124.398 12.9061 124.378 12.9679 124.372 13.0317C124.366 13.0956 124.374 13.16 124.394 13.2206C124.415 13.2813 124.449 13.3367 124.493 13.3832L126.617 15.6151C126.659 15.6592 126.71 15.6942 126.766 15.7181C126.822 15.742 126.882 15.7543 126.943 15.7542Z" fill="#3C4043"/>
<path d="M138.818 51.6863L126.088 57.7815L125.744 57.9458C124.643 58.4656 123.434 58.7116 122.217 58.6629L94.4547 57.4528L94.3077 57.4441C92.5843 57.7625 90.9071 57.6564 89.5238 57.1839C85.5641 55.8244 83.248 53.5985 77.6447 57.0793C75.1194 58.648 71.5781 61.3818 70.1735 58.9467C69.2023 57.2586 73.2068 53.8823 76.0757 51.2829C70.7563 52.9412 63.8081 55.1074 62.9116 52.747C62.0151 50.3866 66.9311 48.3399 73.8344 46.2484C65.8702 47.2195 61.7909 48.8329 61.2082 46.4725C60.2369 42.5734 76.4493 39.6154 82.3216 40.0935C85.4986 40.3594 90.4572 40.8882 93.4424 41.2176C93.7741 41.1719 120.2 40.7209 120.2 40.7209L131.273 35.4175" fill="#FFF1ED"/>
<path d="M71.8214 60.3634C73.3687 60.3634 75.2594 59.1438 76.9512 58.0523C77.2717 57.8455 77.5833 57.6446 77.8805 57.4598C82.2826 54.7259 84.5187 55.6498 87.3497 56.8201C87.9907 57.0853 88.6537 57.3593 89.3775 57.6077C90.836 58.1061 92.5946 58.2074 94.3343 57.8947L94.4278 57.9002L122.197 59.1103C123.486 59.1629 124.769 58.9022 125.935 58.3506L126.28 58.1863L139.011 52.0911C139.064 52.0657 139.112 52.0301 139.151 51.9862C139.19 51.9424 139.221 51.8913 139.24 51.8358C139.26 51.7803 139.268 51.7215 139.265 51.6627C139.262 51.6039 139.247 51.5463 139.222 51.4932C139.196 51.4402 139.161 51.3926 139.117 51.3533C139.073 51.314 139.022 51.2837 138.966 51.2641C138.911 51.2445 138.852 51.2361 138.793 51.2393C138.734 51.2425 138.677 51.2572 138.624 51.2826L125.549 57.5421C124.514 58.0313 123.376 58.2624 122.232 58.2157L94.4724 57.0057L94.3321 56.9974C94.296 56.9956 94.2599 56.9978 94.2243 57.0042C92.6155 57.3012 90.9968 57.2147 89.6669 56.7605C88.9699 56.5215 88.3199 56.2526 87.6913 55.9925C84.7444 54.7742 82.1991 53.7217 77.4063 56.6994C77.105 56.8866 76.7891 57.0902 76.4642 57.2998C74.7855 58.3828 72.6964 59.7313 71.4312 59.4246C71.2446 59.3762 71.0704 59.2886 70.9202 59.1677C70.77 59.0468 70.6473 58.8953 70.5601 58.7234C69.8481 57.486 73.3465 54.3404 75.6615 52.2587C75.9045 52.0402 76.1434 51.8255 76.375 51.6156C76.4507 51.547 76.5007 51.4547 76.5167 51.3539C76.5327 51.2531 76.5138 51.1498 76.4632 51.0612C76.4125 50.9725 76.3331 50.9038 76.2381 50.8665C76.1431 50.8291 76.0381 50.8253 75.9407 50.8556C71.5018 52.2395 64.0753 54.5544 63.3294 52.5886C63.2709 52.4416 63.2454 52.2835 63.2547 52.1255C63.2641 51.9676 63.308 51.8136 63.3833 51.6745C64.3 49.8093 69.5189 48.0245 73.9625 46.6782C74.0698 46.6457 74.1611 46.5741 74.2182 46.4775C74.2753 46.381 74.2942 46.2666 74.2711 46.1568C74.2479 46.0471 74.1845 45.95 74.0932 45.8848C74.002 45.8195 73.8896 45.7908 73.7782 45.8044C71.575 46.0733 69.7044 46.3845 68.054 46.6592C63.8314 47.3626 61.9511 47.6207 61.6413 46.366C61.5544 46.0162 61.6688 45.6622 61.9913 45.2824C64.4595 42.3763 76.9626 40.107 82.2829 40.541C85.7645 40.8325 91.2109 41.4235 93.3908 41.6638C93.4227 41.6673 93.4549 41.6673 93.4868 41.6638C94.0676 41.6238 111.207 41.3231 120.206 41.1696C120.27 41.1682 120.333 41.1529 120.392 41.1248L131.464 35.8214C131.57 35.7694 131.651 35.6776 131.69 35.566C131.729 35.4543 131.722 35.3319 131.671 35.2253C131.62 35.1187 131.529 35.0365 131.417 34.9968C131.306 34.9571 131.184 34.9629 131.076 35.013L120.092 40.2742C113.962 40.3788 94.8848 40.7074 93.459 40.7687C91.2559 40.5256 85.8341 39.9376 82.3569 39.6466C77.3282 39.2379 64.1404 41.366 61.3078 44.7013C60.7923 45.3083 60.6117 45.9412 60.7711 46.5805C61.1037 47.9276 62.3293 48.1159 63.2216 48.1406C64.4115 48.1726 66.0841 47.8948 68.2007 47.543L68.7974 47.4438C65.087 48.8211 63.2022 50.0068 62.5772 51.2784C62.4474 51.5279 62.3724 51.8023 62.3573 52.0832C62.3423 52.364 62.3874 52.6448 62.4898 52.9068C63.4234 55.3635 68.8786 53.9599 74.2601 52.3143C71.4169 54.8897 68.8002 57.4641 69.7824 59.1714C69.9295 59.4493 70.1335 59.6931 70.3812 59.8869C70.6288 60.0807 70.9145 60.2202 71.2196 60.2963C71.4169 60.3424 71.6189 60.365 71.8214 60.3634Z" fill="#3C4043"/>
<rect x="56.25" y="94.25" width="13.5" height="13.5" fill="#85B7FE" stroke="#0D6EFD" stroke-width="0.5"/>
<rect x="14.25" y="16.25" width="13.5" height="13.5" fill="#85B7FE" stroke="#0D6EFD" stroke-width="0.5"/>
<rect x="28.25" y="94.25" width="13.5" height="13.5" fill="#F1E9FB" stroke="#B893F2" stroke-width="0.5"/>
<rect x="42.25" y="80.25" width="13.5" height="13.5" fill="#F1E9FB" stroke="#B893F2" stroke-width="0.5"/>
<rect x="42.25" y="52.25" width="13.5" height="13.5" fill="#F1E9FB" stroke="#B893F2" stroke-width="0.5"/>
<rect x="28.25" y="66.25" width="27.5" height="13.5" fill="#F1E9FB" stroke="#B893F2" stroke-width="0.5"/>
<rect x="14.25" y="94.25" width="13.5" height="13.5" fill="#FFFBEA" stroke="#FFED96" stroke-width="0.5"/>
<rect x="28.25" y="52.25" width="13.5" height="13.5" fill="#FFFBEA" stroke="#FFED96" stroke-width="0.5"/>
<rect x="14.25" y="30.25" width="13.5" height="12.5" fill="#FFFBEA" stroke="#FFED96" stroke-width="0.5"/>
<rect x="14.25" y="65.25" width="13.5" height="28.5" fill="#FFFBEA" stroke="#FFED96" stroke-width="0.5"/>
<rect x="42.25" y="94.25" width="13.5" height="13.5" fill="#EAF6EC" stroke="#93D3A2" stroke-width="0.5"/>
<rect x="28.25" y="30.25" width="13.5" height="21.5" fill="#EAF6EC" stroke="#93D3A2" stroke-width="0.5"/>
<rect x="14.25" y="43.25" width="13.5" height="21.5" fill="#EAF6EC" stroke="#93D3A2" stroke-width="0.5"/>
<rect x="28.25" y="80.25" width="13.5" height="13.5" fill="#EAF6EC" stroke="#93D3A2" stroke-width="0.5"/>
<rect x="0.25" y="94.25" width="13.5" height="13.5" fill="#EAF6EC" stroke="#93D3A2" stroke-width="0.5"/>
</svg>
