<svg width="16" height="16" viewBox="0 0 16 16" fill="none" xmlns="http://www.w3.org/2000/svg">
<path fill-rule="evenodd" clip-rule="evenodd" d="M0.888672 8C0.888672 4.07264 4.07242 0.888885 7.99978 0.888885C11.9271 0.888885 15.1109 4.07264 15.1109 8C15.1109 11.9274 11.9271 15.1111 7.99978 15.1111C4.07242 15.1111 0.888672 11.9274 0.888672 8ZM14.0574 8C14.0574 4.65447 11.3453 1.94238 7.99978 1.94238C4.65426 1.94238 1.94217 4.65447 1.94217 8C1.94217 11.3455 4.65426 14.0576 7.99978 14.0576C11.3453 14.0576 14.0574 11.3455 14.0574 8ZM7.99978 6.91681C8.27454 6.91681 8.50016 7.12717 8.52438 7.39562L8.52653 7.44356V11.3692C8.52653 11.6601 8.2907 11.8959 7.99978 11.8959C7.72503 11.8959 7.49941 11.6856 7.47519 11.4171L7.47303 11.3692V7.44356C7.47303 7.15265 7.70887 6.91681 7.99978 6.91681ZM7.99978 5.73737C8.35682 5.73737 8.64625 5.44794 8.64625 5.09091C8.64625 4.73387 8.35682 4.44444 7.99978 4.44444C7.64275 4.44444 7.35332 4.73387 7.35332 5.09091C7.35332 5.44794 7.64275 5.73737 7.99978 5.73737Z" fill="#9AA0A6"/>
</svg>
