<svg width="135" height="30" viewBox="0 0 135 30" fill="none" xmlns="http://www.w3.org/2000/svg">
<path d="M39.454 4.5625H41.4824C41.4426 2.59659 39.7665 1.20455 37.2892 1.20455C34.8461 1.20455 33.0108 2.57955 33.0165 4.63636C33.0165 6.30682 34.204 7.26705 36.1188 7.76136L37.4426 8.10227C38.6983 8.42045 39.5279 8.8125 39.5336 9.71591C39.5279 10.7102 38.5847 11.375 37.2097 11.375C35.8915 11.375 34.8688 10.7841 34.7836 9.5625H32.7097C32.7949 11.875 34.5165 13.1761 37.2267 13.1761C40.0165 13.1761 41.6358 11.7841 41.6415 9.73295C41.6358 7.71591 39.9711 6.79545 38.2211 6.38068L37.1301 6.10795C36.1756 5.88068 35.1415 5.47727 35.1529 4.50568C35.1586 3.63068 35.9426 2.98864 37.2608 2.98864C38.5165 2.98864 39.3461 3.57386 39.454 4.5625ZM47.2935 13.1705C49.3276 13.1705 50.7253 12.1761 51.089 10.6591L49.1685 10.4432C48.8901 11.1818 48.2083 11.5682 47.3219 11.5682C45.9924 11.5682 45.1117 10.6932 45.0946 9.19886H51.1742V8.56818C51.1742 5.50568 49.3333 4.15909 47.1855 4.15909C44.6855 4.15909 43.0549 5.99432 43.0549 8.6875C43.0549 11.4261 44.6628 13.1705 47.2935 13.1705ZM45.1003 7.8125C45.1628 6.69886 45.9867 5.76136 47.214 5.76136C48.3958 5.76136 49.1912 6.625 49.2026 7.8125H45.1003ZM55.4256 13.1761C56.7949 13.1761 57.6131 12.5341 57.9881 11.8011H58.0563V13H60.0336V7.15909C60.0336 4.85227 58.1529 4.15909 56.4881 4.15909C54.6529 4.15909 53.2438 4.97727 52.7892 6.56818L54.7097 6.84091C54.9142 6.24432 55.4938 5.73295 56.4995 5.73295C57.454 5.73295 57.9767 6.22159 57.9767 7.07955V7.11364C57.9767 7.70455 57.3574 7.73295 55.8176 7.89773C54.1245 8.07955 52.5051 8.58523 52.5051 10.5511C52.5051 12.267 53.7608 13.1761 55.4256 13.1761ZM55.9597 11.6648C55.1017 11.6648 54.4881 11.2727 54.4881 10.517C54.4881 9.72727 55.1756 9.39773 56.0961 9.26705C56.6358 9.19318 57.7154 9.05682 57.9824 8.84091V9.86932C57.9824 10.8409 57.1983 11.6648 55.9597 11.6648ZM62.1017 13H64.1586V7.86932C64.1586 6.76136 64.9938 5.97727 66.1245 5.97727C66.4711 5.97727 66.9029 6.03977 67.079 6.09659V4.20455C66.8915 4.17045 66.5676 4.14773 66.3404 4.14773C65.3404 4.14773 64.5051 4.71591 64.187 5.72727H64.0961V4.27273H62.1017V13ZM71.8929 13.1705C74.0861 13.1705 75.4838 11.8693 75.6316 10.017H73.6657C73.4895 10.9545 72.8134 11.4943 71.91 11.4943C70.6259 11.4943 69.7963 10.4205 69.7963 8.63636C69.7963 6.875 70.6429 5.81818 71.91 5.81818C72.8986 5.81818 73.5066 6.45455 73.6657 7.29545H75.6316C75.4895 5.40341 74.0123 4.15909 71.8816 4.15909C69.3248 4.15909 67.7111 6.00568 67.7111 8.67045C67.7111 11.3125 69.285 13.1705 71.8929 13.1705ZM79.3773 7.88636C79.3773 6.625 80.1614 5.89773 81.2637 5.89773C82.3432 5.89773 82.9796 6.58523 82.9796 7.76136V13H85.0364V7.44318C85.0364 5.33523 83.8432 4.15909 82.0307 4.15909C80.6898 4.15909 79.8375 4.76705 79.4341 5.75568H79.3319V1.36364H77.3205V13H79.3773V7.88636ZM88.7182 13L89.6784 10.1307H94.0534L95.0194 13H97.2694L93.1671 1.36364H90.5648L86.4682 13H88.7182ZM90.2466 8.4375L91.8205 3.75H91.9114L93.4853 8.4375H90.2466ZM105.468 6.57955C105.184 5.10227 104.002 4.15909 101.957 4.15909C99.8546 4.15909 98.4228 5.19318 98.4284 6.80682C98.4228 8.07955 99.2069 8.92045 100.883 9.26705L102.372 9.57955C103.173 9.75568 103.548 10.0795 103.548 10.5739C103.548 11.1705 102.9 11.6193 101.923 11.6193C100.98 11.6193 100.366 11.2102 100.19 10.4261L98.1841 10.6193C98.4398 12.2216 99.7864 13.1705 101.928 13.1705C104.11 13.1705 105.65 12.0398 105.656 10.3864C105.65 9.14205 104.849 8.38068 103.201 8.02273L101.713 7.70455C100.826 7.50568 100.474 7.19886 100.48 6.69318C100.474 6.10227 101.127 5.69318 101.985 5.69318C102.934 5.69318 103.434 6.21023 103.593 6.78409L105.468 6.57955ZM114.249 6.57955C113.965 5.10227 112.784 4.15909 110.738 4.15909C108.636 4.15909 107.204 5.19318 107.21 6.80682C107.204 8.07955 107.988 8.92045 109.664 9.26705L111.153 9.57955C111.954 9.75568 112.329 10.0795 112.329 10.5739C112.329 11.1705 111.681 11.6193 110.704 11.6193C109.761 11.6193 109.147 11.2102 108.971 10.4261L106.965 10.6193C107.221 12.2216 108.568 13.1705 110.71 13.1705C112.892 13.1705 114.431 12.0398 114.437 10.3864C114.431 9.14205 113.63 8.38068 111.982 8.02273L110.494 7.70455C109.607 7.50568 109.255 7.19886 109.261 6.69318C109.255 6.10227 109.909 5.69318 110.767 5.69318C111.715 5.69318 112.215 6.21023 112.374 6.78409L114.249 6.57955ZM116.133 13H118.19V4.27273H116.133V13ZM117.167 3.03409C117.82 3.03409 118.355 2.53409 118.355 1.92045C118.355 1.30114 117.82 0.801136 117.167 0.801136C116.508 0.801136 115.974 1.30114 115.974 1.92045C115.974 2.53409 116.508 3.03409 117.167 3.03409ZM127.203 6.57955C126.919 5.10227 125.737 4.15909 123.691 4.15909C121.589 4.15909 120.157 5.19318 120.163 6.80682C120.157 8.07955 120.941 8.92045 122.617 9.26705L124.106 9.57955C124.907 9.75568 125.282 10.0795 125.282 10.5739C125.282 11.1705 124.634 11.6193 123.657 11.6193C122.714 11.6193 122.1 11.2102 121.924 10.4261L119.919 10.6193C120.174 12.2216 121.521 13.1705 123.663 13.1705C125.845 13.1705 127.384 12.0398 127.39 10.3864C127.384 9.14205 126.583 8.38068 124.936 8.02273L123.447 7.70455C122.561 7.50568 122.208 7.19886 122.214 6.69318C122.208 6.10227 122.862 5.69318 123.72 5.69318C124.669 5.69318 125.169 6.21023 125.328 6.78409L127.203 6.57955ZM133.444 4.27273H131.722V2.18182H129.666V4.27273H128.427V5.86364H129.666V10.7159C129.654 12.358 130.847 13.1648 132.393 13.1193C132.978 13.1023 133.382 12.9886 133.603 12.9148L133.257 11.3068C133.143 11.3352 132.91 11.3864 132.654 11.3864C132.137 11.3864 131.722 11.2045 131.722 10.375V5.86364H133.444V4.27273Z" fill="#EFF0F1"/>
<path d="M32.8631 27H33.6728V26.1619H33.7722C33.9569 26.4602 34.312 27.1136 35.3631 27.1136C36.7267 27.1136 37.6784 26.0199 37.6784 24.2869C37.6784 22.5682 36.7267 21.4744 35.3489 21.4744C34.2836 21.4744 33.9569 22.1278 33.7722 22.4119H33.7012V19.7273H32.8631V27ZM33.687 24.2727C33.687 23.0511 34.2267 22.2273 35.2495 22.2273C36.3148 22.2273 36.8404 23.1222 36.8404 24.2727C36.8404 25.4375 36.3006 26.3608 35.2495 26.3608C34.2409 26.3608 33.687 25.5085 33.687 24.2727ZM39.3049 29.0455C40.0613 29.0455 40.5939 28.6442 40.91 27.7955L43.2324 21.5597L42.3162 21.5455L40.8105 25.892H40.7537L39.248 21.5455H38.339L40.356 27.0284L40.1998 27.4545C39.8944 28.2855 39.5179 28.3636 38.9071 28.2074L38.6941 28.946C38.7793 28.9886 39.0208 29.0455 39.3049 29.0455ZM47.0188 27H48.5565V24.9332L49.3129 24.0099L51.305 27H53.1445L50.4137 22.9837L53.1126 19.7273H51.2695L48.6523 22.9339H48.5565V19.7273H47.0188V27ZM55.949 27.1065C57.6039 27.1065 58.6337 25.9737 58.6337 24.294C58.6337 22.6037 57.6039 21.4744 55.949 21.4744C54.2942 21.4744 53.2644 22.6037 53.2644 24.294C53.2644 25.9737 54.2942 27.1065 55.949 27.1065ZM55.9561 25.9347C55.1926 25.9347 54.802 25.2351 54.802 24.2834C54.802 23.3317 55.1926 22.6286 55.9561 22.6286C56.7054 22.6286 57.0961 23.3317 57.0961 24.2834C57.0961 25.2351 56.7054 25.9347 55.9561 25.9347ZM59.6174 27H61.1301V23.9141C61.1301 23.2429 61.6202 22.7812 62.2878 22.7812C62.4973 22.7812 62.785 22.8168 62.927 22.8629V21.5206C62.7921 21.4886 62.6039 21.4673 62.4512 21.4673C61.8404 21.4673 61.3397 21.8224 61.1408 22.4972H61.084V21.5455H59.6174V27ZM65.9411 27.1065C67.2905 27.1065 68.1996 26.4496 68.4126 25.4375L67.0135 25.3452C66.8608 25.7607 66.4702 25.9773 65.9659 25.9773C65.2095 25.9773 64.7301 25.4766 64.7301 24.6634V24.6598H68.4446V24.2443C68.4446 22.3906 67.3224 21.4744 65.8807 21.4744C64.2756 21.4744 63.2351 22.6143 63.2351 24.2976C63.2351 26.027 64.2614 27.1065 65.9411 27.1065ZM64.7301 23.7223C64.7621 23.1009 65.2344 22.6037 65.9055 22.6037C66.5625 22.6037 67.017 23.0724 67.0206 23.7223H64.7301ZM70.3161 27.0923C70.7706 27.0923 71.1648 26.7124 71.1683 26.2401C71.1648 25.7749 70.7706 25.3949 70.3161 25.3949C69.8473 25.3949 69.4602 25.7749 69.4638 26.2401C69.4602 26.7124 69.8473 27.0923 70.3161 27.0923ZM73.9657 27.103C74.7718 27.103 75.2939 26.7514 75.5602 26.2436H75.6028V27H77.0375V23.321C77.0375 22.0213 75.9366 21.4744 74.7221 21.4744C73.4153 21.4744 72.5559 22.0994 72.3464 23.0938L73.7456 23.2074C73.8485 22.8452 74.1717 22.5788 74.715 22.5788C75.2299 22.5788 75.5247 22.8381 75.5247 23.2855V23.3068C75.5247 23.6584 75.1518 23.7045 74.2037 23.7969C73.1241 23.8963 72.1547 24.2585 72.1547 25.4766C72.1547 26.5561 72.9252 27.103 73.9657 27.103ZM74.399 26.0589C73.9338 26.0589 73.6 25.8423 73.6 25.4268C73.6 25.0007 73.9515 24.7912 74.4842 24.7166C74.8145 24.6705 75.3542 24.5923 75.5353 24.4716V25.0504C75.5353 25.6222 75.063 26.0589 74.399 26.0589ZM78.2111 27H79.7239V21.5455H78.2111V27ZM78.9711 20.8423C79.4221 20.8423 79.7914 20.4979 79.7914 20.0753C79.7914 19.6562 79.4221 19.3118 78.9711 19.3118C78.5236 19.3118 78.1543 19.6562 78.1543 20.0753C78.1543 20.4979 78.5236 20.8423 78.9711 20.8423Z" fill="#E4E5E7"/>
<path d="M4.40438 18.6348L6.34766 20.578L2.02255 24.9031C1.91538 25.0103 1.74117 25.0103 1.634 24.9031L0.0798221 23.349C-0.0273438 23.2418 -0.0273438 23.0676 0.0798221 22.9604L4.40438 18.6348Z" fill="#202124"/>
<circle r="8.7931" transform="matrix(-1 0 0 1 13.1893 11.7931)" fill="#FFDA2D"/>
</svg>
