<svg width="14" height="3" viewBox="0 0 14 3" fill="none" xmlns="http://www.w3.org/2000/svg">
<path d="M10.7338 1.46661C10.7338 2.1539 11.2909 2.71106 11.9782 2.71106C12.6655 2.71106 13.2227 2.1539 13.2227 1.46661C13.2227 0.779325 12.6655 0.222168 11.9782 0.222168C11.2909 0.222168 10.7338 0.779325 10.7338 1.46661Z" fill="#202124"/>
<path d="M7.00043 2.71106C6.31315 2.71106 5.75599 2.1539 5.75599 1.46661C5.75599 0.779324 6.31315 0.222168 7.00043 0.222168C7.68772 0.222168 8.24488 0.779325 8.24488 1.46661C8.24488 2.1539 7.68772 2.71106 7.00043 2.71106Z" fill="#202124"/>
<path d="M2.02266 2.71106C1.33537 2.71106 0.778212 2.1539 0.778212 1.46661C0.778212 0.779324 1.33537 0.222167 2.02266 0.222167C2.70994 0.222168 3.2671 0.779324 3.2671 1.46661C3.2671 2.1539 2.70994 2.71106 2.02266 2.71106Z" fill="#202124"/>
</svg>
