<svg xmlns="http://www.w3.org/2000/svg" xmlns:xlink="http://www.w3.org/1999/xlink" width="663" height="373" fill="none" xmlns:v="https://vecta.io/nano"><style><![CDATA[.B{fill:#3c4043}.C{fill:#fff}.D{fill:#eaf6ec}.E{fill:#fff1ed}]]></style><path d="M508.455 220.777a4.67 4.67 0 0 1 3.298-1.363c1.236 0 2.422.49 3.299 1.363a4.68 4.68 0 0 1-1.361-3.301c0-1.238.489-2.424 1.361-3.302.876-.872 2.062-1.362 3.298-1.362s2.423.49 3.299 1.362a4.68 4.68 0 0 1 0-6.602c.876-.872 2.062-1.362 3.299-1.362s2.422.49 3.298 1.362a4.68 4.68 0 0 1 0-6.602 4.68 4.68 0 0 1 3.299-1.362c1.236 0 2.422.49 3.298 1.362-.871-.877-1.361-2.064-1.361-3.301s.49-2.424 1.361-3.301c.877-.873 2.063-1.362 3.299-1.362s2.422.489 3.299 1.362l2.199 2.201 7.539 7.545 4.049 4.052a23.33 23.33 0 0 1 6.807 16.471c0 6.175-2.448 12.099-6.807 16.47a23.29 23.29 0 0 1-32.916 0l-4.049-4.052-7.54-7.545-2.199-2.201a4.54 4.54 0 0 1-1.042-1.481 4.53 4.53 0 0 1-.38-1.77 4.54 4.54 0 0 1 .342-1.779c.233-.563.576-1.075 1.011-1.502z" class="C"/><g class="B"><path d="M538.771 248.967c4.808-.002 9.508-1.431 13.505-4.105a24.34 24.34 0 0 0 8.954-10.919c1.84-4.446 2.323-9.338 1.386-14.057s-3.249-9.056-6.647-12.461l-13.788-13.798c-.798-.8-1.816-1.345-2.924-1.566a5.7 5.7 0 0 0-3.3.325c-1.043.433-1.935 1.166-2.562 2.106a5.72 5.72 0 0 0-.96 3.177c0 .325.027.65.081.972a5.74 5.74 0 0 0-.971-.081 5.69 5.69 0 0 0-2.186.431c-.693.287-1.323.707-1.853 1.238a5.7 5.7 0 0 0-1.668 4.042 5.86 5.86 0 0 0 .081.972 5.86 5.86 0 0 0-.972-.082 5.71 5.71 0 0 0-2.185.432c-.693.287-1.323.707-1.853 1.238s-.951 1.161-1.237 1.855-.433 1.437-.432 2.187c0 .325.027.65.081.971a5.71 5.71 0 0 0-2.698.183c-.872.277-1.664.759-2.311 1.406s-1.128 1.44-1.405 2.313a5.72 5.72 0 0 0-.183 2.7 5.7 5.7 0 0 0-5.009 1.589c-.537.539-.961 1.18-1.245 1.886s-.426 1.461-.413 2.222c.01.738.17 1.465.469 2.139s.732 1.28 1.272 1.781l13.775 13.785a24.15 24.15 0 0 0 17.198 7.119zm-.629-54.917c.475-.001.946.092 1.385.274s.838.448 1.173.785l13.788 13.798c4.145 4.177 6.467 9.827 6.457 15.714a22.25 22.25 0 0 1-6.511 15.691 22.22 22.22 0 0 1-31.381.054l-13.788-13.798c-.01-.01-.019-.019-.029-.028a3.38 3.38 0 0 1-.794-1.107 3.39 3.39 0 0 1-.292-1.33c-.008-.479.081-.955.261-1.399s.447-.847.786-1.186a3.62 3.62 0 0 1 5.116 0 1.05 1.05 0 0 0 1.481 0 1.05 1.05 0 0 0 0-1.482c-.336-.337-.602-.736-.784-1.175a3.62 3.62 0 0 1-.275-1.386c0-.475.093-.946.275-1.385s.448-.838.784-1.175.735-.603 1.174-.784.909-.276 1.384-.276.946.094 1.385.276.838.448 1.174.785c.096.1.212.179.339.234s.266.084.405.085a1.02 1.02 0 0 0 .405-.078c.129-.052.246-.13.344-.228a1.05 1.05 0 0 0 .229-.345 1.04 1.04 0 0 0-.007-.81 1.04 1.04 0 0 0-.235-.34 3.62 3.62 0 0 1-1.042-2.556c.003-.956.384-1.872 1.059-2.548s1.591-1.057 2.547-1.06a3.62 3.62 0 0 1 2.553 1.043 1.04 1.04 0 0 0 .34.235c.127.055.265.084.404.085a1.05 1.05 0 0 0 .406-.078c.128-.052.245-.13.343-.229a1.02 1.02 0 0 0 .229-.344 1.05 1.05 0 0 0 .078-.406 1.04 1.04 0 0 0-.085-.404c-.055-.128-.134-.244-.234-.341a3.62 3.62 0 0 1-1.043-2.555c.003-.956.384-1.872 1.059-2.548s1.591-1.057 2.547-1.06 1.873.372 2.553 1.043a1.05 1.05 0 0 0 .34.235 1.04 1.04 0 0 0 .404.085 1.05 1.05 0 0 0 .406-.078c.128-.053.245-.131.344-.229s.176-.215.228-.344a1.03 1.03 0 0 0 .078-.406c-.001-.139-.03-.277-.085-.405s-.134-.243-.234-.34c-.507-.506-.851-1.151-.991-1.853a3.62 3.62 0 0 1 .206-2.092c.274-.662.737-1.227 1.333-1.625a3.62 3.62 0 0 1 2.01-.609h-.002z"/><path d="M527.723 234.54c.207 0 .409-.061.581-.176s.307-.279.386-.471.1-.402.059-.605a1.05 1.05 0 0 0-.286-.536l-12.95-12.96a1.05 1.05 0 0 0-.34-.235 1.04 1.04 0 0 0-.404-.085 1.05 1.05 0 0 0-.406.078 1.02 1.02 0 0 0-.344.229 1.05 1.05 0 0 0-.229.344c-.052.129-.079.267-.078.406a1.08 1.08 0 0 0 .085.404 1.04 1.04 0 0 0 .235.34l12.95 12.96c.097.098.213.175.34.228a1.02 1.02 0 0 0 .401.079zm6.562-6.603c.207 0 .409-.062.581-.177s.307-.278.386-.47.1-.402.06-.605-.14-.39-.286-.536l-12.915-12.96a1.04 1.04 0 0 0-.34-.236c-.127-.055-.265-.084-.404-.085a1.04 1.04 0 0 0-.405.077 1.05 1.05 0 0 0-.345.229 1.06 1.06 0 0 0-.229.343 1.05 1.05 0 0 0-.078.406c.001.139.029.277.084.405a1.04 1.04 0 0 0 .234.34l12.915 12.96c.097.098.213.176.34.229s.264.08.402.08zm6.598-6.601a1.05 1.05 0 0 0 .582-.177c.172-.115.306-.279.385-.471s.1-.402.059-.606a1.04 1.04 0 0 0-.287-.536l-12.95-12.925c-.198-.191-.463-.296-.737-.293a1.04 1.04 0 0 0-.731.308c-.194.194-.304.457-.306.732a1.05 1.05 0 0 0 .295.737l12.95 12.925c.097.097.213.174.34.226a1.03 1.03 0 0 0 .4.08zm6.595-6.568c.208 0 .41-.062.582-.177s.306-.279.386-.47a1.05 1.05 0 0 0 .059-.606c-.04-.203-.14-.39-.286-.536l-12.95-12.96c-.198-.191-.462-.297-.737-.294a1.04 1.04 0 0 0-.731.307c-.194.194-.305.457-.307.731a1.05 1.05 0 0 0 .294.738l12.95 12.96c.097.097.213.174.34.227a1.04 1.04 0 0 0 .4.08z"/></g><path d="M613.487 218.191c.331.325.595.714.774 1.143a3.5 3.5 0 0 1 .273 1.354c0 .465-.093.926-.273 1.355s-.443.817-.774 1.143c.325-.332.714-.596 1.142-.776s.889-.272 1.353-.272.925.093 1.354.272.817.444 1.142.776c.332.326.595.714.775 1.143a3.5 3.5 0 0 1 0 2.709c-.18.429-.443.817-.775 1.143.326-.332.714-.595 1.143-.775a3.49 3.49 0 0 1 2.706 0c.429.18.817.443 1.143.775a3.5 3.5 0 0 1 .774 1.144c.18.428.273.889.273 1.354a3.5 3.5 0 0 1-1.047 2.498c.325-.332.714-.596 1.142-.776a3.5 3.5 0 0 1 2.707 0c.428.18.817.444 1.142.776.332.325.595.714.775 1.143a3.5 3.5 0 0 1 .272 1.354c0 .465-.092.926-.272 1.354a3.5 3.5 0 0 1-.775 1.144 3.5 3.5 0 0 1 1.143-.776 3.49 3.49 0 0 1 2.706 0 3.5 3.5 0 0 1 1.143.776 3.51 3.51 0 0 1 .775 1.143c.179.429.272.889.272 1.354s-.093.926-.272 1.355a3.51 3.51 0 0 1-.775 1.143l-1.676 1.677-5.724 5.729-3.072 3.074a17.69 17.69 0 0 1-12.514 5.187c-4.693 0-9.195-1.866-12.514-5.187a17.72 17.72 0 0 1 0-25.047l3.072-3.074 5.725-5.729 1.675-1.676c.689-.646 1.601-1 2.545-.987s1.846.392 2.517 1.057z" class="C"/><g class="B"><path d="M610.467 259.873a18.65 18.65 0 0 0 7.174-1.419 18.69 18.69 0 0 0 6.08-4.065l10.472-10.48a4.47 4.47 0 0 0 .999-1.462 4.48 4.48 0 0 0 .355-1.736 4.59 4.59 0 0 0-.346-1.777 4.57 4.57 0 0 0-1.008-1.503c-.416-.428-.912-.768-1.461-1a4.45 4.45 0 0 0-1.733-.355l-.462.02.018-.381c.004-.609-.113-1.213-.346-1.777s-.575-1.074-1.008-1.503a4.48 4.48 0 0 0-1.46-1 4.49 4.49 0 0 0-1.734-.355 4.43 4.43 0 0 0-.461.02l.018-.38c.004-.609-.113-1.213-.346-1.777s-.575-1.074-1.008-1.503c-.416-.427-.912-.767-1.461-1a4.47 4.47 0 0 0-1.734-.355 4.18 4.18 0 0 0-.461.02l.018-.38a4.57 4.57 0 0 0-.345-1.777 4.56 4.56 0 0 0-1.009-1.503c-.415-.428-.912-.768-1.461-1a4.45 4.45 0 0 0-1.733-.355l-.462.02.019-.38a4.59 4.59 0 0 0-.346-1.777c-.233-.564-.575-1.075-1.008-1.504-.861-.859-2.022-1.35-3.238-1.368a4.68 4.68 0 0 0-3.276 1.271l-.029.027-10.472 10.48a18.76 18.76 0 0 0-4.066 20.441c1.419 3.428 3.822 6.357 6.905 8.417s6.709 3.158 10.416 3.156zm20.502-21.701h.016c.321.001.638.066.933.192s.561.309.784.539a2.5 2.5 0 0 1 .557.821 2.49 2.49 0 0 1 .193.974 2.42 2.42 0 0 1-.192.934c-.126.295-.31.562-.541.785l-10.48 10.489c-3.123 3.125-7.358 4.88-11.774 4.88a16.64 16.64 0 0 1-11.773-4.88 16.67 16.67 0 0 1-4.877-11.783c0-4.419 1.754-8.657 4.877-11.782l10.458-10.464a2.59 2.59 0 0 1 1.808-.698c.671.01 1.311.28 1.787.752a2.51 2.51 0 0 1 .551.818c.127.307.192.636.19.968-.002.634-.255 1.242-.704 1.691l-.037.037c-.192.196-.3.46-.299.735a1.05 1.05 0 0 0 1.032 1.046c.275.004.54-.1.738-.29l.038-.035a2.55 2.55 0 0 1 1.756-.714 2.41 2.41 0 0 1 .933.193 2.4 2.4 0 0 1 .785.539 2.5 2.5 0 0 1 .557.821c.128.309.194.64.192.974-.002.634-.255 1.242-.703 1.691l-.037.037c-.192.196-.3.46-.299.735a1.05 1.05 0 0 0 1.032 1.046c.274.004.54-.1.738-.29l.038-.035c.464-.457 1.089-.713 1.74-.714h.016c.32.002.638.067.933.192a2.41 2.41 0 0 1 .785.54 2.51 2.51 0 0 1 .556.821c.129.309.194.64.193.974-.002.634-.255 1.242-.704 1.691l-.035.035a1.05 1.05 0 0 0-.307.738c-.002.277.107.543.301.74a1.04 1.04 0 0 0 .736.312 1.05 1.05 0 0 0 .742-.298l.037-.035a2.48 2.48 0 0 1 1.74-.714h.016c.321.001.638.066.933.192s.562.309.784.54a2.49 2.49 0 0 1 .557.821 2.48 2.48 0 0 1 .193.973c-.002.635-.255 1.243-.703 1.692l-.037.035a1.05 1.05 0 0 0-.308.738c-.001.277.108.543.303.74a1.05 1.05 0 0 0 1.477.013l.037-.036c.463-.458 1.087-.715 1.738-.716z"/><path d="M603.851 233.874c.138 0 .275-.027.402-.08s.243-.13.34-.228l9.809-9.851a1.04 1.04 0 0 0 .229-.341 1.03 1.03 0 0 0 .082-.403c0-.138-.027-.275-.08-.403s-.13-.244-.228-.341a1.05 1.05 0 0 0-.745-.306c-.139.001-.275.029-.402.083a1.07 1.07 0 0 0-.34.231l-9.808 9.851c-.147.147-.246.334-.286.537s-.019.414.06.605a1.05 1.05 0 0 0 .386.47c.172.115.374.176.581.176zm4.994 4.996c.137 0 .273-.027.4-.079a1.03 1.03 0 0 0 .339-.227l9.843-9.816a1.05 1.05 0 0 0 .235-.339c.055-.128.085-.266.086-.405s-.025-.277-.077-.406a1.05 1.05 0 0 0-.228-.344 1.04 1.04 0 0 0-.749-.309c-.139.001-.277.03-.405.085a1.05 1.05 0 0 0-.34.234l-9.843 9.816a1.05 1.05 0 0 0-.288.536c-.041.204-.02.414.059.606a1.04 1.04 0 0 0 .386.471c.172.115.374.177.582.177zm4.99 4.996a1.02 1.02 0 0 0 .4-.079c.126-.052.242-.129.339-.226l9.843-9.816a1.07 1.07 0 0 0 .236-.34 1.04 1.04 0 0 0 .085-.404c.002-.139-.025-.278-.077-.406a1.05 1.05 0 0 0-.228-.345 1.04 1.04 0 0 0-.344-.23 1.06 1.06 0 0 0-.405-.078 1.04 1.04 0 0 0-.404.084c-.128.055-.244.134-.341.234l-9.843 9.816a1.05 1.05 0 0 0-.288.537c-.04.203-.02.414.059.606s.213.355.386.47a1.04 1.04 0 0 0 .582.177zm5.026 5.03a1.03 1.03 0 0 0 .402-.08c.127-.053.243-.13.34-.228l9.808-9.851c.099-.097.177-.213.23-.341a1.07 1.07 0 0 0 .082-.402 1.03 1.03 0 0 0-.08-.403 1.05 1.05 0 0 0-.228-.342c-.098-.098-.215-.175-.342-.227a1.07 1.07 0 0 0-.404-.079 1.05 1.05 0 0 0-.741.315l-9.809 9.85a1.05 1.05 0 0 0-.285.537c-.041.203-.02.414.06.605a1.05 1.05 0 0 0 .386.47c.173.115.374.176.581.176z"/></g><path d="M569.436 180.813c1.092.002 2.138.437 2.91 1.21a4.13 4.13 0 0 1 1.209 2.912 4.13 4.13 0 0 1 1.208-2.912c.772-.773 1.819-1.208 2.911-1.21s2.138.437 2.91 1.21a4.13 4.13 0 0 1 1.208 2.912c.003-1.093.437-2.14 1.209-2.912s1.819-1.208 2.91-1.21 2.139.437 2.911 1.21a4.13 4.13 0 0 1 1.208 2.912 4.13 4.13 0 0 1 1.209-2.912c.772-.773 1.818-1.208 2.91-1.21s2.138.437 2.91 1.21a4.13 4.13 0 0 1 1.209 2.912 4.13 4.13 0 0 1 1.209-2.912c.772-.773 1.818-1.208 2.91-1.21s2.138.437 2.91 1.21a4.13 4.13 0 0 1 1.209 2.912v17.292c0 2.711-.533 5.396-1.569 7.901s-2.556 4.781-4.472 6.698-4.19 3.438-6.693 4.475a20.61 20.61 0 0 1-15.791 0c-2.503-1.037-4.777-2.558-6.693-4.475s-3.435-4.193-4.472-6.698-1.57-5.19-1.569-7.901v-17.292c.024-1.098.475-2.143 1.257-2.913a4.21 4.21 0 0 1 2.932-1.209z" class="C"/><g class="B"><path d="M585.876 223.92c5.747-.007 11.257-2.294 15.321-6.361a21.73 21.73 0 0 0 6.356-15.332v-17.292c-.001-1.083-.341-2.138-.973-3.017a5.16 5.16 0 0 0-2.55-1.881c-1.026-.345-2.134-.358-3.168-.038s-1.941.955-2.594 1.819a5.16 5.16 0 0 0-1.818-1.511c-.715-.356-1.503-.542-2.301-.542a5.16 5.16 0 0 0-2.301.542 5.15 5.15 0 0 0-1.818 1.511 5.16 5.16 0 0 0-1.818-1.511c-.715-.356-1.503-.542-2.301-.542s-1.586.186-2.301.542a5.16 5.16 0 0 0-1.818 1.511 5.15 5.15 0 0 0-1.818-1.511 5.16 5.16 0 0 0-2.301-.542c-.798 0-1.586.186-2.3.542s-1.337.873-1.819 1.511a5.15 5.15 0 0 0-1.818-1.511 5.16 5.16 0 0 0-2.301-.542 5.24 5.24 0 0 0-3.664 1.501c-.979.96-1.543 2.266-1.571 3.637v17.324c.006 5.751 2.292 11.265 6.356 15.332a21.69 21.69 0 0 0 15.32 6.361zm16.511-42.059c.814.001 1.595.325 2.171.902s.899 1.357.9 2.172v17.292c0 5.197-2.063 10.182-5.735 13.857s-8.653 5.74-13.847 5.74a19.58 19.58 0 0 1-13.847-5.74c-3.672-3.675-5.735-8.66-5.735-13.857v-17.292c.021-.821.36-1.601.947-2.175a3.15 3.15 0 0 1 2.194-.899c.815.001 1.596.325 2.172.901s.899 1.358.9 2.173a1.05 1.05 0 0 0 .307.741c.196.197.463.307.74.307s.544-.11.741-.307a1.05 1.05 0 0 0 .307-.741c0-.815.323-1.597.899-2.174s1.358-.9 2.172-.9a3.07 3.07 0 0 1 2.172.9 3.08 3.08 0 0 1 .9 2.174c0 .278.11.545.307.741s.462.307.74.307.544-.11.741-.307a1.05 1.05 0 0 0 .306-.741 3.08 3.08 0 0 1 .9-2.174 3.07 3.07 0 0 1 4.344 0 3.08 3.08 0 0 1 .9 2.174c0 .278.11.545.307.741s.462.307.74.307.544-.11.74-.307.307-.463.307-.741a3.08 3.08 0 0 1 .9-2.174 3.07 3.07 0 0 1 4.344 0 3.08 3.08 0 0 1 .9 2.174 1.05 1.05 0 0 0 .306.741c.197.197.463.307.741.307s.544-.11.74-.307.307-.463.307-.741a3.08 3.08 0 0 1 .901-2.173c.575-.576 1.356-.9 2.171-.901z"/><path d="M573.554 201.877a1.05 1.05 0 0 0 1.048-1.048V184.62a1.05 1.05 0 0 0-.307-.741c-.197-.197-.463-.307-.741-.307s-.544.11-.74.307a1.05 1.05 0 0 0-.307.741v16.209a1.05 1.05 0 0 0 1.047 1.048zm8.239 0a1.05 1.05 0 0 0 .74-.307c.197-.197.307-.463.307-.741V184.62c0-.278-.11-.545-.307-.741a1.05 1.05 0 0 0-1.481 0 1.05 1.05 0 0 0-.307.741v16.209a1.05 1.05 0 0 0 1.048 1.048zm8.238 0c.278 0 .544-.111.74-.307a1.05 1.05 0 0 0 .307-.741V184.62c0-.278-.11-.545-.307-.741a1.05 1.05 0 0 0-.74-.307c-.278 0-.544.11-.741.307a1.05 1.05 0 0 0-.306.741v16.209a1.05 1.05 0 0 0 1.047 1.048zm8.271 0a1.05 1.05 0 0 0 1.048-1.048V184.62a1.05 1.05 0 0 0-.307-.741c-.196-.197-.463-.307-.741-.307s-.544.11-.74.307a1.05 1.05 0 0 0-.307.741v16.209a1.05 1.05 0 0 0 1.047 1.048zm-30.892 89.847c.277 0 .544-.11.74-.307a1.05 1.05 0 0 0 .307-.741v-23.894a30.38 30.38 0 0 1 2.308-11.704c1.535-3.71 3.79-7.079 6.635-9.911 3.04-3.027 5.45-6.627 7.09-10.591a32.48 32.48 0 0 0 2.467-12.507v-6.288c0-.278-.11-.544-.307-.741a1.05 1.05 0 0 0-1.787.741v6.288c.011 4.016-.774 7.994-2.309 11.704a30.38 30.38 0 0 1-6.635 9.912c-3.04 3.026-5.45 6.626-7.09 10.591a32.46 32.46 0 0 0-2.467 12.506v23.894a1.05 1.05 0 0 0 .307.741c.197.197.463.307.741.307z"/><path d="M567.41 288.579c.278 0 .544-.11.74-.307s.307-.463.307-.741v-11.108a55.18 55.18 0 0 0-4.34-21.371 55.16 55.16 0 0 0-12.279-18.017l-1.853-1.784c-.099-.096-.216-.171-.344-.221s-.265-.074-.403-.072-.273.033-.399.088a1.04 1.04 0 0 0-.335.233c-.095.1-.17.217-.221.345s-.074.265-.072.402a1.06 1.06 0 0 0 .088.4 1.04 1.04 0 0 0 .233.335l1.85 1.782a53.04 53.04 0 0 1 11.808 17.327c2.744 6.505 4.163 13.492 4.173 20.553v11.108a1.05 1.05 0 0 0 .306.741c.197.197.463.307.741.307z"/><path d="M566.537 285.82a1.06 1.06 0 0 0 .401-.079 1.04 1.04 0 0 0 .339-.228l34.034-34.059a1.05 1.05 0 0 0-.006-1.476 1.05 1.05 0 0 0-.737-.307c-.276-.001-.541.107-.738.301l-34.034 34.059a1.05 1.05 0 0 0-.226 1.143c.079.191.213.355.385.47a1.05 1.05 0 0 0 .582.176z"/></g><g fill="#85b7fe"><path d="M566.608 300.246h2.06a23.64 23.64 0 0 1 9.057 1.803 23.66 23.66 0 0 1 7.678 5.134c2.198 2.199 3.941 4.81 5.13 7.684a23.7 23.7 0 0 1 1.801 9.063c0 3.111-.612 6.191-1.801 9.064s-2.932 5.485-5.13 7.684a23.66 23.66 0 0 1-7.678 5.134 23.64 23.64 0 0 1-9.057 1.803h-2.06a23.64 23.64 0 0 1-9.057-1.803 23.66 23.66 0 0 1-7.678-5.134c-2.198-2.199-3.941-4.81-5.13-7.684s-1.801-5.953-1.801-9.064a23.7 23.7 0 0 1 1.801-9.063c1.189-2.874 2.932-5.485 5.13-7.684a23.66 23.66 0 0 1 7.678-5.134 23.64 23.64 0 0 1 9.057-1.803z"/><path d="M567.655 300.247l14.835-19.178h-29.67l14.835 19.178z"/></g><path d="M257.842 242.51l-179.101-.047 27.685 72.039h179.687l-28.271-71.992z" class="C"/><g class="B"><path d="M106.426 315.55h179.688a1.04 1.04 0 0 0 .488-.121c.151-.08.279-.196.375-.337s.156-.304.175-.474-.004-.342-.067-.501l-28.273-71.992a1.05 1.05 0 0 0-.384-.482c-.173-.118-.378-.182-.587-.182l-179.099-.047c-.17 0-.337.041-.487.12s-.279.195-.375.335-.157.302-.176.471.002.341.063.5l27.685 72.039a1.05 1.05 0 0 0 .384.488c.174.119.38.183.591.183zm178.153-2.097H107.143l-26.879-69.942 176.867.047 27.448 69.895z"/><path d="M286.114 315.55h42.693c.277 0 .543-.111.739-.307s.306-.464.306-.742a1.05 1.05 0 0 0-.306-.741c-.196-.197-.462-.308-.739-.308h-42.693c-.277 0-.543.111-.739.308a1.05 1.05 0 0 0 0 1.483c.196.196.462.307.739.307z"/><path d="M278.73 348.651c.238-.001.468-.082.653-.231a1.05 1.05 0 0 0 .366-.589l7.382-33.101c.03-.135.033-.274.01-.409s-.074-.266-.147-.382-.169-.217-.282-.296-.239-.135-.372-.166a1.04 1.04 0 0 0-.408-.009c-.135.023-.264.074-.38.147s-.216.17-.295.283-.135.24-.165.374l-7.383 33.101c-.06.271-.011.556.137.791a1.04 1.04 0 0 0 .654.461c.076.017.153.026.23.026zm57.424 0c.076 0 .153-.009.228-.026.27-.06.505-.226.654-.461a1.05 1.05 0 0 0 .138-.79l-7.347-33.101a1.05 1.05 0 0 0-.158-.385 1.04 1.04 0 0 0-.68-.448c-.137-.025-.278-.023-.415.008s-.265.087-.379.169a1.04 1.04 0 0 0-.283.304c-.073.12-.123.252-.144.39a1.06 1.06 0 0 0 .02.416l7.347 33.101a1.05 1.05 0 0 0 .366.591 1.04 1.04 0 0 0 .653.232zm-236.763 0c.237 0 .468-.082.653-.231s.314-.357.365-.59l7.348-33.101a1.05 1.05 0 0 0 .017-.414c-.022-.138-.071-.27-.144-.389a1.07 1.07 0 0 0-.283-.302c-.114-.08-.242-.138-.378-.168s-.276-.033-.413-.008-.268.077-.384.153a1.06 1.06 0 0 0-.295.291 1.05 1.05 0 0 0-.159.383l-7.348 33.101a1.05 1.05 0 0 0 .138.79 1.04 1.04 0 0 0 .654.461.98.98 0 0 0 .229.024zm57.422.001c.157 0 .312-.035.453-.103s.266-.167.364-.29a1.04 1.04 0 0 0 .202-.419c.036-.153.036-.312.002-.466l-7.382-33.101c-.03-.134-.086-.261-.165-.374a1.03 1.03 0 0 0-.295-.282c-.116-.074-.245-.124-.381-.148s-.273-.02-.407.01a1.04 1.04 0 0 0-.373.165c-.112.079-.208.18-.281.296s-.124.246-.147.382a1.06 1.06 0 0 0 .009.409l7.383 33.101c.052.233.181.44.366.59a1.04 1.04 0 0 0 .652.23z"/></g><path d="M135.693 144.991l-2.125-4.127 19.438-8.621 7.617 14.792-8.763 1.659-16.167-3.703z" class="C"/><path d="M151.861 149.739c.065 0 .13-.006.194-.018l8.763-1.66a1.04 1.04 0 0 0 .743-.569c.071-.146.107-.307.105-.47a1.05 1.05 0 0 0-.116-.467l-7.618-14.792a1.05 1.05 0 0 0-.579-.506c-.25-.088-.524-.077-.767.03l-19.438 8.621c-.13.058-.246.141-.343.246a1.06 1.06 0 0 0-.218.362 1.05 1.05 0 0 0-.056.419c.01.143.048.281.113.408l2.125 4.127c.07.135.168.253.288.346a1.05 1.05 0 0 0 .407.193l16.166 3.704a1.06 1.06 0 0 0 .231.026zm7.197-3.471l-7.176 1.358-15.484-3.548-1.396-2.709 17.53-7.775 6.526 12.674z" class="B"/><path d="M153.061 101.94c1.293-.935 2.848-1.435 4.442-1.428a7.62 7.62 0 0 1 5.399 2.244c1.432 1.437 2.237 3.386 2.237 5.418s-.805 3.98-2.237 5.417a7.62 7.62 0 0 1-5.399 2.244 6.69 6.69 0 0 1-4.203-1.262c.069.313-.1.496-.065.809a17.78 17.78 0 0 1 2.005 8.76 17.77 17.77 0 0 1-2.535 8.621c-1.569 2.608-3.781 4.765-6.423 6.265a17.61 17.61 0 0 1-8.66 2.298 17.62 17.62 0 0 1-8.67-2.259c-2.648-1.488-4.87-3.636-6.45-6.237a17.76 17.76 0 0 1-2.573-8.609c-.106-3.044.571-6.064 1.966-8.769.035-.348-.208-.766-.138-1.114-1.25.905-2.464 1.497-4.13 1.497-1.003-.002-1.995-.203-2.921-.59a7.63 7.63 0 0 1-2.473-1.666c-.708-.713-1.268-1.559-1.65-2.49a7.7 7.7 0 0 1-.574-2.933 7.67 7.67 0 0 1 .588-2.93c.385-.929.95-1.772 1.66-2.482a7.64 7.64 0 0 1 2.481-1.655c.927-.383 1.921-.579 2.923-.577 1.594-.007 3.15.493 4.443 1.428l2.339-5.132 13.535-7.313 12.841 6.268 2.242 6.176z" class="E"/><path d="M137.583 142.37c4.96-.006 9.715-1.985 13.221-5.504a18.83 18.83 0 0 0 5.486-13.266c.004-2.423-.463-4.824-1.376-7.067a8.9 8.9 0 0 0 2.59.345c1.309-.002 2.6-.301 3.777-.875s2.209-1.407 3.02-2.437a8.72 8.72 0 0 0 1.66-3.514 8.73 8.73 0 0 0-.029-3.889c-.302-1.277-.888-2.47-1.714-3.488a8.68 8.68 0 0 0-3.057-2.391c-1.185-.555-2.481-.835-3.789-.817a8.65 8.65 0 0 0-3.766.92l-1.809-4.982a1.05 1.05 0 0 0-.523-.582l-12.841-6.268c-.148-.073-.312-.109-.477-.105a1.05 1.05 0 0 0-.472.124l-13.535 7.313c-.2.108-.359.28-.453.487l-1.85 4.058a8.59 8.59 0 0 0-3.984-.965 8.66 8.66 0 0 0-6.14 2.538 8.72 8.72 0 0 0-2.554 6.151c-.004 2.309.905 4.525 2.529 6.161a8.66 8.66 0 0 0 6.13 2.562 7.07 7.07 0 0 0 2.703-.522c-1.191 2.852-1.662 5.956-1.369 9.035a18.81 18.81 0 0 0 3.047 8.612 18.7 18.7 0 0 0 6.741 6.145 18.65 18.65 0 0 0 8.834 2.221v-.001zm14.688-27.644l-.009.035a2.05 2.05 0 0 0-.061.736c.014.129.052.253.111.368 1.169 2.241 1.815 4.72 1.888 7.248s-.427 5.04-1.463 7.346a16.68 16.68 0 0 1-4.52 5.962c-1.937 1.618-4.216 2.773-6.664 3.377a16.58 16.58 0 0 1-7.465.109 16.61 16.61 0 0 1-6.76-3.179c-1.984-1.561-3.588-3.553-4.692-5.827a16.75 16.75 0 0 1-1.677-7.3 16.91 16.91 0 0 1 1.863-7.671 1.05 1.05 0 0 0 .111-.374 2.51 2.51 0 0 0-.1-.879c-.015-.06-.037-.146-.044-.193a1.04 1.04 0 0 0-.493-1.042 1.05 1.05 0 0 0-.581-.149c-.204.009-.401.077-.567.197-1.076.78-2.087 1.3-3.52 1.3-1.749-.005-3.425-.706-4.658-1.95a6.63 6.63 0 0 1-1.919-4.684c.004-1.755.704-3.436 1.943-4.673a6.58 6.58 0 0 1 4.668-1.926c1.375-.007 2.716.423 3.832 1.229a1.03 1.03 0 0 0 .419.18 1.02 1.02 0 0 0 .861-.228 1.04 1.04 0 0 0 .276-.364l2.193-4.813 12.758-6.893 11.983 5.851 2.099 5.78c.055.152.144.289.261.4a1.04 1.04 0 0 0 .412.24c.154.048.316.058.475.032a1.05 1.05 0 0 0 .439-.184c1.116-.807 2.458-1.237 3.833-1.23 1.749 0 3.426.697 4.663 1.938s1.931 2.924 1.931 4.678a6.63 6.63 0 0 1-1.931 4.679c-1.237 1.241-2.914 1.938-4.663 1.938a5.69 5.69 0 0 1-3.595-1.064 1.04 1.04 0 0 0-.568-.197c-.205-.008-.407.045-.582.152a1.04 1.04 0 0 0-.402.449c-.087.186-.117.393-.087.597l.002-.001zm-30.826-3.106c.216 0 .427-.067.603-.193a1.04 1.04 0 0 0 .38-.508c.072-.205.077-.427.017-.635a1.04 1.04 0 0 0-.354-.528l-4.997-3.97a1.03 1.03 0 0 0-.362-.185c-.131-.038-.269-.049-.405-.033a1.03 1.03 0 0 0-.386.125 1.05 1.05 0 0 0-.31.264 1.04 1.04 0 0 0-.185.363 1.07 1.07 0 0 0-.033.406 1.06 1.06 0 0 0 .125.388 1.05 1.05 0 0 0 .263.311l4.998 3.97a1.04 1.04 0 0 0 .646.225zm32.276 0a1.04 1.04 0 0 0 .646-.225l4.998-3.97a1.05 1.05 0 0 0 .17-1.468 1.04 1.04 0 0 0-1.463-.171l-4.997 3.97c-.17.135-.293.319-.354.528a1.05 1.05 0 0 0 .017.635 1.04 1.04 0 0 0 .38.508c.176.126.387.193.604.193h-.001zm-11.939 20.686c.032 0 .064 0 .097-.005a1.03 1.03 0 0 0 .705-.373c.087-.105.153-.227.194-.358a1.07 1.07 0 0 0 .042-.406 4.15 4.15 0 0 1 .242-1.827c.216-.583.56-1.109 1.007-1.541.443-.444.976-.788 1.562-1.008a4.35 4.35 0 0 1 1.839-.266c.137.01.274-.008.403-.051a1.04 1.04 0 0 0 .353-.203c.103-.09.188-.199.249-.322s.097-.256.106-.393a1.03 1.03 0 0 0-.051-.405c-.043-.13-.112-.25-.201-.354a1.04 1.04 0 0 0-.714-.356c-.919-.066-1.842.066-2.706.389a6.45 6.45 0 0 0-2.302 1.481c-.668.648-1.182 1.438-1.504 2.312a6.24 6.24 0 0 0-.358 2.738c.024.259.143.5.335.675a1.04 1.04 0 0 0 .702.273z" class="B"/><path d="M153.063 101.939c.239-1.157.355-2.336.347-3.517-.068-4.186-1.782-8.176-4.769-11.1a15.78 15.78 0 0 0-22.274.196 15.89 15.89 0 0 0-4.574 11.182 14.77 14.77 0 0 0 .347 3.274l2.776-2.717a6 6 0 0 1 4.242-1.732c1.586.006 3.105.642 4.227 1.767 1.132 1.121 2.66 1.75 4.251 1.75s3.119-.629 4.251-1.75c1.126-1.118 2.644-1.748 4.227-1.754s3.107.611 4.242 1.719l2.707 2.682z" class="C"/><g class="B"><path d="M122.139 103.019a1.04 1.04 0 0 0 .729-.297l2.777-2.716a4.95 4.95 0 0 1 1.612-1.073 4.94 4.94 0 0 1 3.795.017 4.96 4.96 0 0 1 1.603 1.086c1.332 1.306 3.12 2.037 4.982 2.037a7.12 7.12 0 0 0 4.983-2.037c.933-.922 2.189-1.442 3.499-1.447a5.01 5.01 0 0 1 3.511 1.418l2.701 2.676c.133.131.299.225.48.27a1.04 1.04 0 0 0 .551-.013c.179-.054.34-.155.467-.293a1.05 1.05 0 0 0 .252-.491c.254-1.228.378-2.48.37-3.734a16.94 16.94 0 0 0-5.077-11.833 16.82 16.82 0 0 0-11.911-4.809c-4.447.037-8.699 1.836-11.83 5.006s-4.885 7.453-4.881 11.915a15.81 15.81 0 0 0 .372 3.503c.052.231.181.438.366.586a1.04 1.04 0 0 0 .65.228l-.001.001zm23.986-6.517a6.99 6.99 0 0 0-2.691.528 7.01 7.01 0 0 0-2.283 1.524c-.941.921-2.204 1.436-3.519 1.435a5.03 5.03 0 0 1-3.517-1.44 7.03 7.03 0 0 0-2.272-1.536c-.851-.357-1.764-.543-2.686-.546a7.01 7.01 0 0 0-2.689.527 7.03 7.03 0 0 0-2.283 1.52l-1.313 1.285c-.026-.357-.038-.722-.038-1.098a14.84 14.84 0 0 1 4.274-10.441c2.742-2.778 6.467-4.356 10.363-4.391a14.74 14.74 0 0 1 10.439 4.206c2.79 2.729 4.393 6.454 4.458 10.363 0 .445-.015.877-.046 1.299l-1.235-1.223c-1.33-1.294-3.11-2.016-4.962-2.012zm-8.543 25.426c.131-.001.26-.025.382-.073l3.609-1.428a1.03 1.03 0 0 0 .344-.22c.099-.095.179-.209.234-.335a1.04 1.04 0 0 0 .087-.4c.003-.137-.022-.274-.072-.402a1.05 1.05 0 0 0-.221-.344c-.095-.099-.21-.178-.336-.233a1.05 1.05 0 0 0-.399-.085c-.137-.002-.273.024-.4.075l-2.187.865v-8.599a1.05 1.05 0 0 0-.305-.739 1.04 1.04 0 0 0-1.472 0 1.05 1.05 0 0 0-.305.739v10.134a1.05 1.05 0 0 0 .305.739 1.04 1.04 0 0 0 .736.306z"/><path d="M146.467 121.197c1.586 0 3.136-.472 4.454-1.356a8.04 8.04 0 0 0 2.953-3.61c.607-1.47.766-3.087.456-4.648a8.05 8.05 0 0 0-2.194-4.118c-1.121-1.125-2.549-1.892-4.105-2.202s-3.167-.151-4.632.458-2.717 1.64-3.598 2.963a8.07 8.07 0 0 0 1 10.154 8.01 8.01 0 0 0 5.666 2.359zm0-13.999a5.92 5.92 0 0 1 3.297 1.003c.976.655 1.737 1.585 2.186 2.673s.567 2.285.338 3.441a5.96 5.96 0 0 1-1.624 3.049c-.83.832-1.888 1.399-3.039 1.629s-2.344.112-3.429-.339-2.011-1.214-2.663-2.193a5.97 5.97 0 0 1 .74-7.517c1.113-1.116 2.621-1.744 4.194-1.746zm-17.734 13.999c1.586 0 3.136-.472 4.454-1.356a8.04 8.04 0 0 0 2.953-3.61 8.07 8.07 0 0 0 .456-4.648 8.05 8.05 0 0 0-2.194-4.118c-1.121-1.125-2.55-1.892-4.105-2.202s-3.167-.151-4.632.458-2.717 1.64-3.598 2.963a8.06 8.06 0 0 0-1.351 4.469c.002 2.133.848 4.177 2.351 5.685a8.01 8.01 0 0 0 5.666 2.359zm0-13.999a5.92 5.92 0 0 1 3.297 1.003c.976.655 1.737 1.585 2.186 2.673s.567 2.285.338 3.441a5.96 5.96 0 0 1-1.625 3.049c-.83.833-1.887 1.399-3.038 1.629a5.91 5.91 0 0 1-3.429-.339c-1.084-.45-2.011-1.214-2.663-2.193a5.96 5.96 0 0 1-1.001-3.308 5.97 5.97 0 0 1 1.741-4.209 5.93 5.93 0 0 1 4.194-1.746z"/><path d="M135.292 111.794h4.616a1.04 1.04 0 0 0 .736-.306c.196-.196.305-.462.305-.739s-.109-.543-.305-.739a1.04 1.04 0 0 0-.736-.306h-4.616a1.04 1.04 0 0 0-.736.306 1.05 1.05 0 0 0 0 1.478 1.04 1.04 0 0 0 .736.306zm-13.546-.696h.002c.137 0 .272-.028.399-.08a1.02 1.02 0 0 0 .337-.228c.096-.097.173-.212.225-.339s.078-.263.078-.4l-.023-8.358c-.001-.277-.111-.542-.306-.737a1.04 1.04 0 0 0-.735-.305h-.003c-.137 0-.272.028-.398.081s-.241.13-.337.227a1.05 1.05 0 0 0-.225.34c-.052.127-.079.262-.078.4l.023 8.357c.001.277.111.542.306.737a1.04 1.04 0 0 0 .735.305zm31.974.521h.029a1.04 1.04 0 0 0 .728-.326 1.05 1.05 0 0 0 .216-.345 1.04 1.04 0 0 0 .068-.402l-.243-8.88c-.003-.137-.034-.272-.09-.398s-.135-.238-.235-.332-.216-.169-.344-.218a1.03 1.03 0 0 0-.4-.068c-.137.004-.272.034-.396.09a1.04 1.04 0 0 0-.332.236c-.094.1-.168.217-.217.345a1.06 1.06 0 0 0-.068.402l.243 8.88a1.05 1.05 0 0 0 .315.72 1.04 1.04 0 0 0 .726.296z"/><use xlink:href="#B"/><use xlink:href="#B" x="17.735"/></g><g class="C"><path d="M348.59 153.858l-64.882-35.751c-8.41-4.176-18.035-5.179-27.12-2.826s-17.025 7.904-22.371 15.642l-97.904 136.928 2.985 10.064c6.316 21.417 25.824 36.566 48.07 36.566 8.85 0 17.28-4.423 22.937-11.109.625-.732 1.215-1.533 1.77-2.333l66.878-97.02 69.637-50.161z"/><path d="M278.928 203.985l74.434-53.56a39.07 39.07 0 0 1 19.684-7.23c7.094-.57 14.209.811 20.58 3.995s11.756 8.049 15.577 14.074a39.39 39.39 0 0 1 6.108 20.12l2.464 101.094H338.89V257.51l-63.651 45.724c-9.752 6.999-21.997 11.352-33.97 11.317l-54.008-.093 7.982-1.393c11.642-2.857 17.89-12.818 24.294-22.984l59.391-86.096z"/></g><path d="M245.427 66.186l-70.973-18.039c-.104.139-.208.313-.312.488 3.019 4.597.208 11.77-4.859 13.512a6.34 6.34 0 0 1-2.88.557c-2.603 0-4.304-.905-5.276-2.298 2.222 4.98 7.809 10.865 6.213 14.487-2.603 5.92-14.958-3.865-19.123-10.447-.636-1-.985-2.157-1.007-3.343-.694 2.786-1.561 6.094-2.672 9.228-2.013 5.816-4.755 11.039-8.295 11.039-4.025-.07-3.435-7.557-1.7-15.148a112.78 112.78 0 0 1 4.546-14.974c1.874-4.632 3.783-8.706 5.171-10.9l3.263-5.05c6.316-9.611 12.806-11.457 26.584-11.457h68.752c18.221 0 39.53 10.726 45.256 25.909s3.158 24.725-4.824 39.003l-2.16 4.411" class="E"/><path d="M281.13 94.207a1.04 1.04 0 0 0 .551-.158c.165-.103.298-.251.384-.426l2.148-4.384c7.883-14.106 10.8-24.15 4.875-39.859-6.192-16.422-28.818-26.585-46.229-26.585h-68.752c-13.565 0-20.748 1.722-27.454 11.927l-1.981 3.061-1.284 1.993c-1.38 2.18-3.297 6.214-5.264 11.077a114.27 114.27 0 0 0-4.597 15.137c-1.777 7.771-1.799 12.839-.065 15.062.325.425.743.769 1.223 1.005a3.46 3.46 0 0 0 1.54.357c3.526 0 6.561-3.84 9.296-11.741.674-1.901 1.258-3.862 1.77-5.74.016.026.035.052.05.078 3.417 5.401 12.294 13.127 17.517 12.739.745-.032 1.465-.28 2.074-.712a3.89 3.89 0 0 0 1.359-1.726c1.299-2.947-.981-6.569-3.396-10.404l-.899-1.439c.787.192 1.595.285 2.405.279 1.128.04 2.251-.178 3.283-.636 2.776-.98 5.07-3.436 6.143-6.584.818-2.251.805-4.722-.035-6.965l69.379 17.635a1.04 1.04 0 0 0 .789-.115c.237-.142.408-.372.476-.641a1.05 1.05 0 0 0-.115-.791 1.04 1.04 0 0 0-.639-.478l-70.973-18.039a1.04 1.04 0 0 0-1.088.386c-.134.186-.258.378-.372.576a1.05 1.05 0 0 0-.148.559c.004.197.064.388.172.553 1.19 1.813 1.403 4.235.583 6.644-.86 2.526-2.742 4.559-4.91 5.305a.95.95 0 0 0-.128.054c-.761.333-1.587.486-2.416.447-2.077 0-3.565-.623-4.422-1.853-.148-.215-.371-.367-.624-.425s-.52-.02-.746.109a1.04 1.04 0 0 0-.477.586c-.081.248-.066.518.042.755.867 1.797 1.856 3.532 2.959 5.194 2.016 3.204 4.102 6.515 3.252 8.444-.127.347-.356.647-.657.861s-.659.331-1.028.336c-3.937.304-12.261-6.495-15.607-11.782-.534-.843-.827-1.817-.844-2.816-.008-.252-.106-.493-.277-.678a1.04 1.04 0 0 0-1.36-.146c-.206.144-.353.359-.414.603-.694 2.786-1.55 6.048-2.643 9.132-2.96 8.551-5.611 10.343-7.314 10.343a1.37 1.37 0 0 1-1.141-.56c-1.271-1.63-1.106-6.482.455-13.31a111.82 111.82 0 0 1 4.496-14.812c1.924-4.755 3.777-8.667 5.086-10.735l1.284-1.992 1.969-3.042c6.218-9.46 12.673-10.986 25.716-10.986h68.752c16.719 0 38.403 9.646 44.282 25.234 5.671 15.036 2.985 24.272-4.758 38.122-.01.017-.018.035-.027.05l-2.16 4.411c-.078.159-.115.336-.106.513s.063.349.156.5a1.05 1.05 0 0 0 .378.361 1.04 1.04 0 0 0 .506.132z" class="B"/><g fill="#ffed96"><path d="M220.956 110.288h0c-4.578 7.868-10.707 14.717-18.013 20.127s-15.636 9.268-24.479 11.337l-26.323 6.163 4.485 1.265 6.366 1.664c1.8.434 3.301.747 4.244.862 2.535-1.258 6.912-2.847 12.213-4.564 5.516-1.788 12.102-3.737 18.802-5.625 13.174-3.714 26.825-7.204 33.721-8.796 5.139-6.528 9.049-11.416 16.877-15.144h0a52.73 52.73 0 0 1 13.097-4.244h.002c2.68-.488 5.235-.327 7.71.025 1.16.165 2.315.374 3.455.58l.221.04 2.97.502 11.888-21.229-42.413-25.648-24.823 42.686zM91.959 222.163l-.335.942-.678-.241.013-.719 1 .018zm0 0l-1-.018h0v-.002-.007-.026l.002-.105.007-.398.024-1.442.069-4.561.062-6.795-.884.413h0l-.004.001c-2.581 1.062-5.3.54-7.609.097l-.824-.156.178-.984-.178.984c-1.048-.19-1.731-.282-2.232-.171a1 1 0 0 0-.503.256c-.14.134-.302.365-.447.783-.6 1.727-.783 3.651-.863 5.699l-.051 1.753-.239 4.434-1.235 9.985-1.689 14.08c-.1.95-.067 1.997-.03 3.14l.016.498.022 1.275 26.447-24.914-.678-.16-3.824-1.094-3.398-1.112-1.072-.369-.297-.104-.078-.028-.02-.007-.005-.002h-.001v-.001l.335-.942z" stroke="#3c4043" stroke-width="2"/><path d="M145.852 237.631c3.287 1.077 6.581 2.054 9.908 2.887l-1.217 2.166c-10.495.018-24.719-.031-27.892.201l-4.615-11.96c8.17 1.346 15.972 4.136 23.816 6.706z"/></g><path d="M154.242 243.057h-29.847l7.476 13.442h12.808l9.563-13.442z" class="C"/><path d="M131.871 257.543h12.809c.166 0 .329-.039.476-.115a1.04 1.04 0 0 0 .371-.322l9.562-13.442a1.03 1.03 0 0 0 .191-.532 1.05 1.05 0 0 0-.496-.967 1.04 1.04 0 0 0-.542-.153h-29.847a1.04 1.04 0 0 0-.517.138c-.158.091-.289.221-.381.378s-.141.335-.143.517a1.04 1.04 0 0 0 .132.521l7.475 13.442c.091.163.223.298.383.392a1.03 1.03 0 0 0 .527.143zm12.273-2.089h-11.661l-6.314-11.353h26.051l-8.076 11.353z" class="B"/><path d="M232.541 133.618l-67.526 18.862v75.579l67.526-94.441z" class="C"/><path d="M165.015 229.103c.165 0 .328-.039.475-.115a1.05 1.05 0 0 0 .371-.32l67.524-94.441c.126-.176.194-.387.195-.603s-.064-.428-.188-.605a1.04 1.04 0 0 0-1.132-.408l-67.526 18.863a1.04 1.04 0 0 0-.551.374c-.138.182-.213.404-.213.632v75.579c0 .277.11.543.305.738a1.04 1.04 0 0 0 .736.306h.004zm64.956-93.683l-63.915 89.39v-71.536l63.915-17.854z" class="B"/><g stroke="#3c4043" stroke-width="2"><path d="M92.958 221.402l63.02 17.573 8.036-11.239v-74.499l-71.056-19.848v34.904 39.122 13.987z" class="C"/><path d="M165.046 228.085v-.001c.005-.007.009-.017.009-.027v-75.578c0-.01-.004-.02-.01-.028s-.013-.013-.021-.015l-.002-.001-73.054-20.406c-.023 0-.029.003-.034.007-.016.022-.017.029-.017.036v90.089c0 .011.003.021.009.028s.014.013.022.015l.001.001 64.426 17.965.001.001c.014.001.02-.001.025-.003l8.645-12.083zm-.074-.363v.32l-.186.261-8.011 11.204-.407.57-.675-.189-62.962-17.557-.731-.204v-.76-87.92-1.318l1.269.355 70.973 19.825.731.204v.759 74.45z" class="B"/></g><path d="M418.577 210.438c12.632 7.974 28.559 5.701 38.554-5.338l23.878-24.829a22.37 22.37 0 0 1 13.628-7.199c5.248-.708 10.576.473 15.039 3.333l-34.879 66.166-31.756 20.581 16.45 8.462-10.828 20.581-30.888-16.351-1.457-61.678 2.259-3.728z" fill="#e7f1ff"/><path d="M448.663 293.239c.19.001.376-.051.539-.149a1.05 1.05 0 0 0 .383-.408l10.828-20.581c.065-.122.104-.256.117-.394s-.003-.276-.045-.408a1.04 1.04 0 0 0-.197-.36c-.089-.105-.198-.192-.321-.255l-14.847-7.637 30.242-19.599a1.04 1.04 0 0 0 .355-.39l34.879-66.166a1.05 1.05 0 0 0 .086-.758c-.068-.254-.229-.474-.451-.614-4.669-2.99-10.244-4.225-15.734-3.484s-10.541 3.409-14.257 7.53l-23.857 24.808c-9.742 10.761-25.051 12.879-37.251 5.179-.116-.074-.247-.124-.383-.147a1.05 1.05 0 0 0-.41.014c-.134.032-.261.09-.373.171s-.206.185-.278.303l-2.26 3.726a1.06 1.06 0 0 0-.152.569l1.458 61.678a1.04 1.04 0 0 0 .555.899l30.888 16.352c.15.079.317.121.486.121zm9.416-21.179l-9.85 18.723-29.427-15.578-1.436-60.759 1.561-2.575c12.914 7.592 28.803 5.167 38.975-6.069l23.856-24.807c3.289-3.622 7.709-6.012 12.532-6.776s9.763.143 14.004 2.573l-34.289 65.049-31.528 20.432a1.06 1.06 0 0 0-.362.401c-.083.164-.122.346-.113.529s.066.361.165.515a1.06 1.06 0 0 0 .4.363l15.512 7.979z" class="B"/><path d="M402.089 282.965c-1.11 14.94 8.33 28.208 22.698 31.899l33.039 9.577c10.655 2.751 17.631 12.571 16.833 23.645l-72.766 1.075-34.856-19.566-.105 18.909h-22.836l-.069-65.295" fill="#e7f1ff"/><path d="M401.893 350.205h.015l72.765-1.074c.261-.004.51-.106.7-.285a1.05 1.05 0 0 0 .323-.684c.417-5.554-1.108-11.079-4.312-15.627a23.54 23.54 0 0 0-13.299-9.104l-33.01-9.569c-14.017-3.601-23.03-16.271-21.949-30.817a1.04 1.04 0 0 0-.24-.773 1.04 1.04 0 0 0-.322-.257c-.123-.063-.258-.101-.396-.112a1.03 1.03 0 0 0-.409.052 1.05 1.05 0 0 0-.357.206 1.04 1.04 0 0 0-.249.328c-.06.125-.095.261-.103.4-.572 7.409 1.457 14.786 5.735 20.852a31.35 31.35 0 0 0 17.743 12.137l33.009 9.568c9.941 2.568 16.45 11.372 16.131 21.612l-71.51 1.054-34.613-19.429a1.03 1.03 0 0 0-.517-.133c-.181.001-.359.05-.515.142a1.03 1.03 0 0 0-.377.379c-.091.157-.139.336-.14.517l-.099 17.871h-20.761l-.069-64.251c0-.277-.11-.542-.305-.738a1.04 1.04 0 0 0-1.472 0 1.04 1.04 0 0 0-.305.738l.069 65.296c0 .277.11.543.305.738a1.04 1.04 0 0 0 .736.306h22.837a1.04 1.04 0 0 0 .734-.304 1.05 1.05 0 0 0 .307-.735l.094-17.139 33.318 18.7a1.03 1.03 0 0 0 .508.135z" class="B"/><path d="M264.028 273.98c.828-.82 1.944-1.279 3.106-1.279s2.279.459 3.107 1.279a4.41 4.41 0 0 1-1.287-3.116c0-1.169.463-2.29 1.287-3.117a4.38 4.38 0 0 1 3.106-1.291c1.165 0 2.282.464 3.106 1.291-.824-.827-1.287-1.948-1.287-3.117s.463-2.29 1.287-3.117a4.39 4.39 0 0 1 6.212 0c-.408-.409-.731-.895-.952-1.43a4.41 4.41 0 0 1-.334-1.686c0-.579.113-1.152.334-1.687s.544-1.021.952-1.43.892-.734 1.425-.956a4.39 4.39 0 0 1 3.362 0c.533.222 1.018.547 1.425.956a4.42 4.42 0 0 1-.952-1.43c-.221-.535-.334-1.108-.334-1.687s.113-1.152.334-1.687.545-1.02.952-1.43a4.39 4.39 0 0 1 1.426-.955 4.37 4.37 0 0 1 1.681-.336c.576 0 1.148.114 1.681.336s1.017.546 1.425.955l13.014 13.059a21.97 21.97 0 0 1 6.355 13.832c-2.11.836-3.714 2.504-5.534 3.98-2.988 2.423-6.2 4.546-9.407 6.665-5.376 3.552-10.53 7.382-15.581 11.368a21.87 21.87 0 0 1-6.894-4.677l-13.015-13.059c-.817-.83-1.275-1.95-1.275-3.117s.458-2.286 1.275-3.117z" class="D"/><path d="M282.215 287.039c.206 0 .407-.062.578-.177a1.04 1.04 0 0 0 .384-.468c.078-.191.099-.401.059-.604a1.04 1.04 0 0 0-.285-.535l-12.216-12.258c-.097-.098-.212-.176-.338-.23a1.06 1.06 0 0 0-.4-.082 1.02 1.02 0 0 0-.401.079c-.127.052-.243.129-.34.227a1.03 1.03 0 0 0-.226.341c-.053.127-.079.264-.079.402a1.04 1.04 0 0 0 .082.401 1.03 1.03 0 0 0 .229.339l12.216 12.259a1.04 1.04 0 0 0 .338.226c.127.053.262.08.399.08zm6.211-6.233c.206 0 .407-.062.578-.176a1.04 1.04 0 0 0 .383-.469c.079-.191.1-.4.06-.603a1.05 1.05 0 0 0-.284-.535l-12.182-12.258c-.096-.1-.21-.179-.337-.234a1.05 1.05 0 0 0-.402-.086c-.138-.001-.275.025-.403.078s-.245.129-.343.227-.175.215-.228.343a1.06 1.06 0 0 0-.078.405 1.06 1.06 0 0 0 .084.403c.055.128.134.243.233.339l12.182 12.259c.096.097.211.174.338.227a1.03 1.03 0 0 0 .399.08zm6.213-6.234c.206 0 .407-.061.578-.176a1.04 1.04 0 0 0 .383-.468c.079-.191.1-.401.06-.603a1.05 1.05 0 0 0-.284-.535l-12.182-12.258c-.195-.194-.459-.302-.734-.301s-.538.11-.732.305a1.05 1.05 0 0 0-.008 1.471l12.182 12.259c.096.097.211.174.338.227a1.01 1.01 0 0 0 .399.079zm6.246-6.268c.206 0 .407-.062.578-.177a1.05 1.05 0 0 0 .443-1.073c-.041-.202-.14-.389-.286-.535l-12.216-12.223a1.04 1.04 0 0 0-1.46.015c-.193.194-.302.456-.304.73a1.05 1.05 0 0 0 .293.735l12.217 12.223a1.04 1.04 0 0 0 .337.226c.126.052.261.079.398.079z" class="B"/><path d="M385.291 234.909a4.44 4.44 0 0 1-1.293 3.125c-.826.829-1.947 1.296-3.115 1.297a4.41 4.41 0 0 1 3.115 1.298 4.44 4.44 0 0 1 0 6.25c-.826.83-1.947 1.296-3.115 1.298 1.168.001 2.289.468 3.115 1.297a4.44 4.44 0 0 1 0 6.251 4.41 4.41 0 0 1-3.115 1.297 4.41 4.41 0 0 1 3.115 1.297 4.44 4.44 0 0 1 0 6.251c-.826.829-1.947 1.296-3.115 1.297 1.168.002 2.289.468 3.115 1.298a4.44 4.44 0 0 1 0 6.25c-.826.83-1.947 1.296-3.115 1.298h-18.359a21.89 21.89 0 0 1-8.41-1.673c-2.667-1.107-5.089-2.731-7.13-4.778s-3.658-4.479-4.762-7.154-1.669-5.544-1.667-8.439.564-5.763 1.667-8.439 2.722-5.106 4.762-7.154 4.463-3.671 7.13-4.778a21.91 21.91 0 0 1 8.41-1.673h18.359a4.21 4.21 0 0 1 1.685.269c.538.204 1.028.517 1.441.918s.739.883.96 1.415.33 1.105.322 1.682z" class="D"/><g class="B"><use xlink:href="#C"/><use xlink:href="#C" y="8.81"/><path d="M363.982 257.996h17.283a1.04 1.04 0 0 0 .737-.306c.195-.195.305-.461.305-.738a1.05 1.05 0 0 0-.305-.739 1.04 1.04 0 0 0-.737-.306h-17.283a1.04 1.04 0 0 0-.736.306 1.05 1.05 0 0 0-.305.739c0 .277.11.543.305.738a1.04 1.04 0 0 0 .736.306zm0 8.846h17.283a1.04 1.04 0 0 0 .737-.306 1.05 1.05 0 0 0 0-1.478 1.04 1.04 0 0 0-.737-.306h-17.283a1.04 1.04 0 0 0-.736.306 1.05 1.05 0 0 0 0 1.478 1.04 1.04 0 0 0 .736.306z"/></g><path d="M371.062 144.574a4.41 4.41 0 0 1 3.115 1.297 4.44 4.44 0 0 1 1.293 3.126 4.43 4.43 0 0 1 1.291-3.128 4.4 4.4 0 0 1 3.116-1.295c1.169 0 2.29.466 3.117 1.295s1.291 1.955 1.291 3.128c.002-.994.337-1.958.951-2.737s1.471-1.33 2.434-1.561c1.61.497 3.178 1.117 4.693 1.855a4.4 4.4 0 0 1 .737 2.443 4.41 4.41 0 0 1 .413-1.857c7.028 3.761 12.522 9.88 16.67 16.811a1.77 1.77 0 0 0 .547.581v2.887a22.08 22.08 0 0 1-6.434 15.587 21.93 21.93 0 0 1-31.068 0c-4.12-4.134-6.435-9.741-6.435-15.587v-18.422a4.24 4.24 0 0 1 .262-1.695c.202-.54.513-1.033.914-1.448s.882-.743 1.414-.963 1.103-.328 1.679-.317z" class="D"/><path d="M375.469 167.001a1.04 1.04 0 0 0 .736-.306c.195-.195.305-.461.305-.738v-17.343c0-.277-.11-.542-.305-.738a1.04 1.04 0 0 0-1.473 0c-.195.196-.305.461-.305.738v17.343c0 .277.11.543.305.738a1.04 1.04 0 0 0 .737.306zm8.781 0a1.04 1.04 0 0 0 .736-.306c.195-.195.305-.461.305-.738v-17.343c0-.277-.11-.542-.305-.738a1.04 1.04 0 0 0-1.777.738v17.343a1.04 1.04 0 0 0 1.041 1.044zm8.781 0a1.04 1.04 0 0 0 1.041-1.044v-17.343a1.04 1.04 0 0 0-1.777-.738c-.195.196-.305.461-.305.738v17.343c0 .277.11.543.305.738a1.04 1.04 0 0 0 .736.306zm8.779 0a1.04 1.04 0 0 0 .737-.306c.195-.196.305-.461.305-.739v-12.933c0-.277-.11-.542-.305-.738a1.04 1.04 0 0 0-1.473 0c-.195.196-.305.461-.305.738v12.933c0 .278.11.543.305.739a1.04 1.04 0 0 0 .736.306z" class="B"/><path d="M280.826 204.541a4.41 4.41 0 0 1 6.212 0c-.824-.827-1.286-1.948-1.286-3.117s.462-2.29 1.286-3.117a4.39 4.39 0 0 1 3.106-1.291c1.165 0 2.283.465 3.106 1.291-.809-.816-1.266-1.918-1.273-3.069l20.465-15.075 1.527 1.532 7.114 7.139 3.818 3.83a22.08 22.08 0 0 1 6.433 15.584c0 5.845-2.314 11.451-6.433 15.584s-9.706 6.455-15.531 6.455-11.412-2.322-15.531-6.455l-13.014-13.059a4.37 4.37 0 0 1-.962-1.427c-.224-.535-.339-1.109-.338-1.689a4.39 4.39 0 0 1 .338-1.689c.224-.535.551-1.02.963-1.427z" class="D"/><path d="M299.012 217.601c.206 0 .407-.062.578-.177a1.04 1.04 0 0 0 .383-.468 1.05 1.05 0 0 0-.225-1.139l-12.216-12.258c-.197-.19-.46-.295-.733-.293s-.534.112-.727.306-.303.456-.305.73a1.05 1.05 0 0 0 .292.734l12.217 12.258c.096.098.211.175.337.227a1.05 1.05 0 0 0 .399.08zm6.213-6.235c.206 0 .407-.061.578-.176a1.04 1.04 0 0 0 .383-.469c.078-.191.1-.4.06-.603a1.05 1.05 0 0 0-.285-.535l-12.217-12.258c-.196-.19-.459-.296-.732-.293a1.04 1.04 0 0 0-1.032 1.035 1.05 1.05 0 0 0 .292.735l12.217 12.258a1.03 1.03 0 0 0 .337.227c.127.053.262.08.399.079zm6.211-6.233c.205 0 .407-.062.578-.176a1.04 1.04 0 0 0 .383-.469 1.05 1.05 0 0 0 .06-.604c-.041-.202-.14-.388-.285-.535l-12.217-12.258c-.096-.099-.211-.179-.338-.234s-.263-.083-.402-.084a1.03 1.03 0 0 0-.403.077 1.05 1.05 0 0 0-.342.228 1.04 1.04 0 0 0-.22 1.152c.054.127.134.242.233.339l12.217 12.258c.096.097.211.174.337.227a1.05 1.05 0 0 0 .399.079zm6.213-6.233c.205 0 .407-.061.578-.176s.304-.278.383-.469a1.04 1.04 0 0 0 .059-.604c-.04-.202-.139-.388-.284-.534l-12.217-12.259a1.04 1.04 0 0 0-1.459.013c-.193.194-.303.456-.305.73a1.04 1.04 0 0 0 .292.735l12.216 12.258a1.06 1.06 0 0 0 .338.227 1.05 1.05 0 0 0 .399.079z" class="B"/><path d="M158.662 237.59a4.42 4.42 0 0 1 2.804-1.875c1.144-.228 2.333.008 3.305.657-.97-.653-1.642-1.664-1.869-2.813s.007-2.341.654-3.316a4.41 4.41 0 0 1 2.803-1.876 4.4 4.4 0 0 1 3.305.657 4.43 4.43 0 0 1-1.869-2.813 4.44 4.44 0 0 1 .654-3.316c.651-.973 1.659-1.647 2.804-1.876s2.333.008 3.305.657c-.97-.653-1.642-1.664-1.869-2.813s.007-2.341.654-3.316a4.41 4.41 0 0 1 2.803-1.876 4.4 4.4 0 0 1 3.305.657 4.43 4.43 0 0 1-1.869-2.813 4.44 4.44 0 0 1 .654-3.316 4.41 4.41 0 0 1 2.804-1.875 4.4 4.4 0 0 1 3.305.656l2.429 1.637 8.364 5.641 4.477 2.995a22.05 22.05 0 0 1 9.329 14.033c1.133 5.734-.051 11.684-3.29 16.543a21.97 21.97 0 0 1-13.986 9.361 21.91 21.91 0 0 1-16.486-3.302l-4.477-2.995-8.364-5.641-2.429-1.637c-.486-.305-.905-.706-1.232-1.177s-.556-1.005-.673-1.568-.118-1.143-.006-1.707.338-1.098.661-1.573z" class="D"/><path d="M178.827 246.889a1.04 1.04 0 0 0 .62-.205c.18-.134.312-.321.377-.535a1.05 1.05 0 0 0-.015-.655c-.075-.211-.215-.393-.401-.518l-14.333-9.646c-.114-.079-.242-.134-.377-.163a1.05 1.05 0 0 0-.789.151 1.03 1.03 0 0 0-.291.29 1.05 1.05 0 0 0-.157.38c-.027.136-.026.275.002.411a1.05 1.05 0 0 0 .159.379c.078.114.178.212.293.287l14.334 9.647c.171.115.372.177.578.177zm4.893-7.349c.223 0 .441-.071.62-.205a1.04 1.04 0 0 0 .377-.535 1.05 1.05 0 0 0-.417-1.173l-14.368-9.646a1.05 1.05 0 0 0-.378-.166 1.04 1.04 0 0 0-.412-.005c-.136.025-.266.078-.382.154a1.03 1.03 0 0 0-.448.674c-.027.136-.026.277.003.413a1.06 1.06 0 0 0 .162.38c.079.114.18.212.297.286l14.368 9.647c.171.115.372.176.578.176zm4.893-7.312c.223 0 .44-.072.62-.205a1.04 1.04 0 0 0 .376-.535 1.05 1.05 0 0 0-.015-.656c-.075-.211-.216-.392-.402-.517l-14.368-9.646a1.04 1.04 0 0 0-.775-.145c-.267.056-.502.215-.654.442a1.05 1.05 0 0 0-.158.776 1.04 1.04 0 0 0 .429.663l14.369 9.647c.17.115.372.177.578.176zm4.894-7.349a1.04 1.04 0 0 0 .622-.204c.18-.134.312-.322.377-.537s.059-.446-.017-.657a1.04 1.04 0 0 0-.404-.517l-14.368-9.611c-.114-.078-.242-.133-.377-.161s-.273-.029-.409-.002a1.03 1.03 0 0 0-.378.156c-.115.076-.213.175-.289.29a1.05 1.05 0 0 0-.156.379c-.026.135-.026.276.002.411s.082.264.16.378a1.05 1.05 0 0 0 .292.287l14.368 9.611c.171.115.371.177.577.177z" class="B"/><path d="M239.387 170.275a4.43 4.43 0 0 1 1.641 2.949 4.44 4.44 0 0 1-.912 3.25c.724-.917 1.781-1.509 2.939-1.646s2.322.192 3.239.915 1.503 1.786 1.64 2.948a4.43 4.43 0 0 1-.911 3.25 4.4 4.4 0 0 1 2.938-1.645c1.158-.137 2.323.191 3.239.914s1.504 1.787 1.64 2.948-.191 2.331-.911 3.251c.724-.917 1.781-1.509 2.938-1.646a4.4 4.4 0 0 1 3.24.914c.913.727 1.503 1.787 1.64 2.949s-.191 2.33-.911 3.25c.723-.917 1.78-1.508 2.938-1.646s2.322.192 3.239.915a4.42 4.42 0 0 1 1.64 2.948c.137 1.162-.191 2.331-.911 3.251l-1.805 2.298-6.247 7.94-3.332 4.248a21.95 21.95 0 0 1-6.515 5.594 21.9 21.9 0 0 1-8.155 2.66c-2.866.339-5.771.108-8.548-.681a21.91 21.91 0 0 1-7.635-3.916c-2.268-1.79-4.163-4.012-5.574-6.538s-2.312-5.307-2.651-8.183-.108-5.79.678-8.577 2.112-5.39 3.903-7.661l3.332-4.248 6.247-7.94 1.805-2.299a4.3 4.3 0 0 1 1.283-1.141c.5-.29 1.053-.477 1.626-.548s1.155-.027 1.71.132a4.29 4.29 0 0 1 1.523.791z" class="D"/><path d="M229.636 190.822a1.04 1.04 0 0 0 .455-.105c.142-.069.266-.17.363-.294l10.69-13.616a1.05 1.05 0 0 0 .212-.768c-.034-.274-.173-.524-.39-.694a1.04 1.04 0 0 0-1.458.169l-10.689 13.616c-.121.154-.197.339-.218.534s.013.392.099.569a1.04 1.04 0 0 0 .384.429c.165.104.357.16.552.16zm6.906 5.467a1.04 1.04 0 0 0 .819-.399l10.689-13.616c.086-.107.149-.231.187-.363a1.04 1.04 0 0 0-.092-.798c-.067-.12-.157-.226-.264-.311s-.232-.148-.364-.185-.27-.048-.407-.031a1.03 1.03 0 0 0-.387.128 1.05 1.05 0 0 0-.308.267l-10.69 13.616c-.121.154-.196.339-.217.534s.013.392.098.569a1.04 1.04 0 0 0 .384.429c.165.104.357.16.552.16zm6.907 5.467c.157 0 .313-.036.455-.105s.266-.169.363-.293l10.689-13.616c.086-.108.15-.232.187-.364a1.06 1.06 0 0 0 .034-.408c-.016-.136-.059-.269-.126-.389a1.04 1.04 0 0 0-.264-.311c-.108-.085-.232-.148-.364-.186a1.05 1.05 0 0 0-.406-.031c-.137.017-.268.06-.388.128a1.04 1.04 0 0 0-.308.268l-10.69 13.616c-.12.154-.196.339-.217.534a1.04 1.04 0 0 0 .482.997 1.03 1.03 0 0 0 .553.16zm6.906 5.467a1.04 1.04 0 0 0 .455-.104c.142-.069.266-.17.363-.294l10.69-13.616a1.06 1.06 0 0 0 .22-.772 1.05 1.05 0 0 0-.125-.389 1.04 1.04 0 0 0-.265-.311 1.06 1.06 0 0 0-.363-.186c-.133-.037-.271-.047-.407-.031a1.04 1.04 0 0 0-.387.128 1.03 1.03 0 0 0-.309.268l-10.689 13.616c-.121.154-.196.339-.217.534a1.05 1.05 0 0 0 .098.568c.085.177.218.325.384.43a1.03 1.03 0 0 0 .552.159z" class="B"/><path d="M261.184 125.769l1.18-5.259 1.412-6.365c1.801.127 14.31 1.238 19.932 4.311l21.499 11.902-1.127 5.022c-1.27 5.708-4.748 10.676-9.668 13.811a21.92 21.92 0 0 1-16.569 2.905c-5.689-1.275-10.64-4.764-13.764-9.702s-4.165-10.917-2.895-16.625z" class="D"/><path d="M270.102 127.371a1.04 1.04 0 0 0 .65-.229 1.05 1.05 0 0 0 .365-.587l2.561-11.434c.06-.271.011-.554-.136-.788a1.04 1.04 0 0 0-.652-.461c-.27-.061-.551-.012-.785.137s-.398.383-.459.653l-2.561 11.435c-.033.153-.033.311.003.464a1.05 1.05 0 0 0 .201.417c.098.123.222.221.362.289a1.04 1.04 0 0 0 .451.104zm8.572 1.951a1.03 1.03 0 0 0 .65-.23c.185-.148.314-.355.365-.587l2.456-10.985c.03-.134.033-.273.01-.408s-.074-.264-.147-.38-.168-.217-.28-.295a1.06 1.06 0 0 0-.371-.166c-.133-.03-.272-.033-.407-.009s-.263.073-.379.146a1.05 1.05 0 0 0-.294.282c-.078.112-.134.238-.164.372l-2.456 10.987a1.05 1.05 0 0 0-.01.407 1.04 1.04 0 0 0 .146.381c.074.116.169.216.281.295a1.04 1.04 0 0 0 .371.165c.075.017.152.025.229.025zm8.608 1.916c.237-.001.466-.082.651-.231a1.04 1.04 0 0 0 .364-.588l1.874-8.462a1.05 1.05 0 0 0-.144-.78c-.149-.231-.382-.394-.649-.454a1.04 1.04 0 0 0-1.239.781l-1.874 8.462c-.034.153-.033.312.002.464a1.04 1.04 0 0 0 .202.417c.098.122.221.22.362.288a1.04 1.04 0 0 0 .451.103zm8.572 1.914a1.05 1.05 0 0 0 1.015-.818l1.384-6.245c.059-.27.01-.554-.139-.787a1.04 1.04 0 0 0-1.894.335l-1.383 6.244a1.05 1.05 0 0 0 .002.463 1.06 1.06 0 0 0 .202.417c.098.122.222.221.362.288a1.04 1.04 0 0 0 .451.103z" class="B"/><path d="M180.839 278.925c1.169.002 2.289.468 3.115 1.297a4.44 4.44 0 0 1 1.293 3.126 4.43 4.43 0 0 1 1.291-3.128 4.4 4.4 0 0 1 6.233 0 4.43 4.43 0 0 1 1.291 3.128c0-1.173.465-2.298 1.291-3.128s1.948-1.295 3.117-1.295a4.4 4.4 0 0 1 3.116 1.295 4.43 4.43 0 0 1 1.291 3.128 4.43 4.43 0 0 1 1.291-3.128c.41-.41.896-.736 1.43-.958s1.108-.337 1.687-.337 1.152.114 1.687.337 1.02.548 1.43.958a4.43 4.43 0 0 1 1.291 3.128 4.43 4.43 0 0 1 1.291-3.128 4.4 4.4 0 0 1 3.116-1.295c1.169 0 2.29.466 3.117 1.295s1.291 1.955 1.291 3.128v5.762c-.447.165-9.861 14.329-13.007 17.505-4.735 4.78-11.849 6.944-17.651 7.801-1.47-.209-3.689.522-5.165.34-1.816-.224-2.88-1.207-4.705-1.189-2.233-3.527-3.415-7.619-3.409-11.797v-18.422a4.22 4.22 0 0 1 .268-1.691c.203-.54.514-1.032.914-1.446s.88-.742 1.411-.963 1.101-.331 1.675-.323z" class="D"/><g class="B"><use xlink:href="#D"/><path d="M194.027 301.387a1.04 1.04 0 0 0 .736-.306c.196-.196.305-.461.305-.739V283c0-.277-.109-.543-.305-.739a1.04 1.04 0 0 0-1.472 0 1.05 1.05 0 0 0-.305.739v17.342c0 .278.11.543.305.739a1.04 1.04 0 0 0 .736.306zm8.781 0a1.04 1.04 0 0 0 .737-.306c.195-.196.305-.461.305-.739V283a1.05 1.05 0 0 0-.305-.739 1.04 1.04 0 0 0-1.473 0 1.05 1.05 0 0 0-.305.739v17.342c0 .278.11.543.305.739a1.04 1.04 0 0 0 .736.306z"/><use xlink:href="#D" x="26.375"/></g><path d="M301.345 188.787a4.42 4.42 0 0 1-.096-5.853 4.38 4.38 0 0 1 2.741-1.494c1.066-.145 2.147.107 3.039.709a4.41 4.41 0 0 1-1.226-1.217 4.44 4.44 0 0 1-.666-1.596c-.114-.571-.116-1.16-.003-1.731s.336-1.115.659-1.599a4.4 4.4 0 0 1 1.22-1.223c.483-.323 1.025-.547 1.595-.659s1.156-.109 1.725.007a4.4 4.4 0 0 1 1.59.67c-.964-.654-1.63-1.664-1.853-2.81s.013-2.333.66-3.304a4.4 4.4 0 0 1 2.789-1.876 4.39 4.39 0 0 1 3.297.643 4.43 4.43 0 0 1-1.226-1.218 4.44 4.44 0 0 1-.666-1.596c-.114-.571-.116-1.159-.003-1.731a4.41 4.41 0 0 1 1.879-2.822c.483-.323 1.025-.547 1.595-.659a4.41 4.41 0 0 1 1.725.007c.569.116 1.109.344 1.59.671a4.4 4.4 0 0 1-1.226-1.218 4.42 4.42 0 0 1-.666-1.596c-.115-.571-.116-1.159-.004-1.731s.337-1.115.659-1.599.737-.9 1.221-1.223a4.39 4.39 0 0 1 3.319-.652c.569.116 1.109.344 1.59.671l2.43 1.637 8.259 5.571 1.923 1.286c-3.228 1.861-37.589 27.333-37.87 27.535z" class="D"/><path d="M308.447 184.134a1.04 1.04 0 0 0 .621-.206 1.05 1.05 0 0 0 .359-1.193c-.076-.211-.218-.392-.404-.516l-1.73-1.149c-.114-.079-.242-.134-.378-.162a1.01 1.01 0 0 0-.41-.003 1.03 1.03 0 0 0-.38.156c-.115.077-.214.176-.29.292s-.129.245-.155.382a1.04 1.04 0 0 0 .004.412 1.05 1.05 0 0 0 .163.378c.078.114.179.211.295.286l1.73 1.149a1.04 1.04 0 0 0 .575.174zm7.64-5.497a1.04 1.04 0 0 0 .621-.206c.18-.133.312-.322.376-.537a1.05 1.05 0 0 0-.017-.656 1.04 1.04 0 0 0-.404-.516l-4.511-3c-.114-.079-.243-.134-.378-.162s-.275-.03-.411-.003-.265.079-.38.156a1.03 1.03 0 0 0-.289.292 1.02 1.02 0 0 0-.155.382 1.04 1.04 0 0 0 .004.412 1.05 1.05 0 0 0 .162.378 1.06 1.06 0 0 0 .296.286l4.512 3a1.03 1.03 0 0 0 .574.174zm7.641-5.498a1.04 1.04 0 0 0 .621-.206c.18-.134.311-.322.376-.537s.059-.445-.017-.656-.218-.392-.404-.516l-7.294-4.85c-.114-.079-.242-.134-.378-.162a1.01 1.01 0 0 0-.41-.003 1.03 1.03 0 0 0-.38.156c-.115.077-.214.177-.29.292a1.05 1.05 0 0 0-.155.382 1.04 1.04 0 0 0 .004.412 1.05 1.05 0 0 0 .163.378c.078.114.179.211.295.286l7.295 4.85a1.03 1.03 0 0 0 .574.174zm7.645-5.502c.224.001.442-.071.622-.205a1.04 1.04 0 0 0 .376-.537c.065-.215.059-.445-.017-.657s-.217-.392-.404-.516l-10.046-6.696c-.23-.154-.512-.209-.782-.154a1.04 1.04 0 0 0-.662.446c-.153.231-.208.513-.153.785s.214.51.445.664l10.046 6.696c.171.114.371.174.575.174z" class="B"/><path d="M136.314 268.201l-4.443-11.701 12.356.15-7.913 11.551z" class="C"/><path d="M136.313 269.245c.169 0 .336-.041.485-.12a1.03 1.03 0 0 0 .373-.333l7.913-11.55a1.05 1.05 0 0 0 .182-.527c.011-.189-.028-.378-.115-.546s-.218-.31-.379-.409a1.04 1.04 0 0 0-.534-.155l-12.355-.15h-.012a1.03 1.03 0 0 0-.484.12c-.149.079-.277.193-.373.332a1.04 1.04 0 0 0-.176.468c-.02.168.001.338.061.497l4.442 11.7c.068.179.183.335.332.452a1.05 1.05 0 0 0 .518.214c.04.005.081.007.122.007zm5.949-11.574l-5.682 8.296-3.191-8.404 8.873.108zm196.627 1.231c.276 0 .54-.111.736-.306a1.05 1.05 0 0 0 .305-.739v-28.974a1.05 1.05 0 0 0-.305-.739 1.04 1.04 0 0 0-1.473 0 1.05 1.05 0 0 0-.305.739v23.225l-5.55-14.817a1.05 1.05 0 0 0-.214-.346 1.06 1.06 0 0 0-.33-.238c-.125-.057-.259-.088-.396-.093s-.273.018-.401.067a1.05 1.05 0 0 0-.345.215 1.04 1.04 0 0 0-.237.331c-.056.125-.088.26-.092.397a1.04 1.04 0 0 0 .066.402l7.566 20.198c.074.199.207.371.382.492a1.04 1.04 0 0 0 .593.186zm-59.937-53.49h.035c.137-.005.271-.036.396-.093s.237-.137.33-.238.167-.218.215-.346.07-.266.066-.403l-.556-17.064c-.009-.271-.122-.527-.317-.716s-.454-.294-.724-.293h-.035c-.136.004-.271.036-.395.092a1.05 1.05 0 0 0-.331.238 1.03 1.03 0 0 0-.214.347 1.04 1.04 0 0 0-.066.402l.555 17.064c.009.271.123.528.317.716a1.04 1.04 0 0 0 .724.294z" class="B"/><path d="M31.119 246.575c.416-8.114 6.004-18.735 11.835-28.939 5.846-10.196 13.207-19.438 21.83-27.406l14.403-13.303c1.492-1.115 5.483-3.97 12.39-8.393 9.023-5.781 37.551-14.87 39.321-7.766 1.076 4.319-6.837 5.189-20.476 10.413 12.876-2.507 22.489-3.413 23.079 1.114s-12.424 7.035-22.385 8.88c6.802 1.742 16.138 3.761 15.999 7.313-.173 5.12-8.19 3.727-13.604 3.378-11.974-.835-14.785 8.637-19.956 14.209-3.436 3.691-10.412 4.387-15.097 1.184l-4.824 43.983c-.587 5.252-3.079 10.104-7.003 13.63s-9.004 5.48-14.271 5.488c-12.702.035-21.934-10.064-21.24-23.785z" class="E"/><path d="M52.295 271.404h.067c5.525-.001 10.856-2.047 14.972-5.746s6.727-8.791 7.334-14.301l4.651-42.389c4.942 2.454 11.476 1.602 14.998-2.181a44.72 44.72 0 0 0 3.525-4.544c3.624-5.107 7.05-9.935 15.599-9.335l2.097.162c4.153.345 8.862.737 11.206-1.355.446-.403.802-.895 1.046-1.445a4.29 4.29 0 0 0 .368-1.747c.139-3.584-5.752-5.519-12.228-7.204 10.921-2.173 19.2-4.603 18.605-9.159a3.79 3.79 0 0 0-1.613-2.672c-1.897-1.371-5.361-1.765-11.222-1.155 3.214-1.076 5.772-1.97 7.492-2.945.852-.483 3.446-1.954 2.718-4.873-.212-.853-.835-2.017-2.597-2.721-7.434-2.968-30.536 4.89-38.294 9.86-7.523 4.817-11.432 7.674-12.451 8.435a1.4 1.4 0 0 0-.084.069L64.08 189.461a116.51 116.51 0 0 0-22.028 27.656c-5.562 9.732-11.532 20.833-11.971 29.405-.361 7.128 1.862 13.602 6.258 18.23 4.075 4.291 9.739 6.652 15.956 6.652zm26.163-65.191a1.04 1.04 0 0 0-.695.267c-.191.171-.312.408-.34.664l-4.824 43.982a20.46 20.46 0 0 1-6.655 12.976 20.32 20.32 0 0 1-13.584 5.212h-.061c-5.645 0-10.774-2.13-14.453-6.004-3.997-4.208-6.017-10.134-5.685-16.68.416-8.112 6.257-18.951 11.698-28.474a114.36 114.36 0 0 1 21.633-27.161l14.361-13.265c1.069-.796 4.924-3.604 12.286-8.317 8.144-5.218 30.028-12.227 36.403-9.681 1.141.455 1.297 1.079 1.348 1.286.524 2.104-2.663 3.265-9.921 5.688-2.883.962-6.15 2.052-9.917 3.495-.243.093-.443.275-.56.509a1.05 1.05 0 0 0 .387 1.358 1.04 1.04 0 0 0 .743.135c7.61-1.483 18.073-3.2 21.081-1.024a1.72 1.72 0 0 1 .767 1.247c.104.795-.606 2.413-6.521 4.316-4.19 1.348-9.496 2.378-15.02 3.402-.234.043-.446.164-.601.345a1.05 1.05 0 0 0-.045 1.309c.143.191.346.327.576.386l1.762.445c5.067 1.275 13.548 3.408 13.454 5.816a2.22 2.22 0 0 1-.173.931 2.23 2.23 0 0 1-.543.775c-1.678 1.498-6.098 1.129-9.651.833l-2.13-.164c-9.709-.673-13.813 5.106-17.433 10.208a42.68 42.68 0 0 1-3.351 4.331c-3.161 3.397-9.586 3.88-13.749 1.032-.173-.117-.377-.179-.586-.178zm108.909 109.661c8.781 0 17.65-4.291 23.732-11.478a29.99 29.99 0 0 0 1.83-2.413l66.777-96.873 69.49-50.054c.143-.103.258-.241.334-.4a1.04 1.04 0 0 0 .099-.512c-.011-.176-.066-.347-.16-.496s-.224-.272-.378-.357l-64.883-35.75c-.012-.007-.026-.014-.039-.021-8.633-4.287-18.515-5.318-27.843-2.902s-17.478 8.115-22.966 16.059l-97.894 136.914c-.093.129-.154.278-.181.435a1.05 1.05 0 0 0 .029.47l2.984 10.065c3.172 10.673 9.621 20.069 18.429 26.847 8.78 6.79 19.555 10.47 30.64 10.466zM346.64 154.325l-68.295 49.193c-.097.07-.181.156-.249.254l-66.877 97.02c-.53.778-1.099 1.528-1.704 2.248-5.693 6.729-13.972 10.744-22.147 10.744-21.496 0-40.852-14.728-47.072-35.817l-2.84-9.576 97.607-136.511c10.675-15.462 31.372-20.825 48.163-12.498l63.414 34.943z" class="B"/><path d="M416.221 214.363l10.32-17.203-11.002-6.063.682 23.266z" class="C"/><g class="B"><path d="M416.221 215.407a1.03 1.03 0 0 0 .892-.506l10.32-17.203a1.07 1.07 0 0 0 .139-.394c.019-.14.011-.281-.026-.417a1.05 1.05 0 0 0-.186-.374 1.06 1.06 0 0 0-.318-.27l-11.002-6.062c-.16-.089-.342-.133-.525-.129s-.363.057-.519.153-.285.232-.373.394-.13.344-.125.528l.683 23.265c.008.272.121.53.315.719s.455.295.726.295l-.001.001zm8.869-17.855l-7.932 13.223-.525-17.883 8.457 4.66z"/><path d="M241.408 315.944c11.693 0 24.236-4.193 34.437-11.514l62.003-44.54v22.936a1.05 1.05 0 0 0 .305.739 1.04 1.04 0 0 0 .736.306h78.886a1.04 1.04 0 0 0 .404-.082c.128-.054.244-.133.341-.233a1.05 1.05 0 0 0 .224-.348c.051-.129.075-.268.072-.407l-2.464-101.095c-.18-7.329-2.348-14.47-6.271-20.655a40.24 40.24 0 0 0-15.99-14.449 40.08 40.08 0 0 0-21.127-4.101 40.11 40.11 0 0 0-20.208 7.422l-74.436 53.56c-.097.069-.181.156-.249.254l-59.392 86.098-.024.034-.05.08c-6.374 10.12-12.396 19.679-23.577 22.439l-7.948 1.387a1.04 1.04 0 0 0-.646.391 1.05 1.05 0 0 0-.213.727c.022.261.14.504.332.681a1.04 1.04 0 0 0 .704.275l54.009.094.142.001zm97.481-59.131c-.217-.001-.429.068-.606.195l-63.65 45.724c-9.895 7.101-22.052 11.151-33.362 11.123l-43.562-.076c10.628-3.615 16.736-13.313 22.656-22.712l.039-.062 59.277-85.93 74.287-53.453a38.02 38.02 0 0 1 19.16-7.037c6.906-.555 13.831.789 20.032 3.888s11.443 7.835 15.163 13.699a38.33 38.33 0 0 1 5.947 19.585l2.438 100.024H339.93v-23.924a1.04 1.04 0 0 0-1.041-1.044zM245.427 67.266a1.03 1.03 0 0 0 .13-.008l17.839-2.229a1.04 1.04 0 0 0 .391-.124c.121-.067.228-.157.314-.266a1.06 1.06 0 0 0 .187-.367c.037-.134.047-.273.03-.411s-.061-.27-.13-.391-.161-.226-.271-.31a1.04 1.04 0 0 0-.779-.204l-17.839 2.229a1.04 1.04 0 0 0-.672.37 1.05 1.05 0 0 0-.238.731c.016.265.132.514.325.697a1.04 1.04 0 0 0 .713.284h0zm-98.599-3.762a1.04 1.04 0 0 0 .615-.202 1.05 1.05 0 0 0 .377-.528l2.464-7.801a1.05 1.05 0 0 0 .051-.409 1.06 1.06 0 0 0-.11-.397 1.04 1.04 0 0 0-.255-.323 1.03 1.03 0 0 0-.359-.199 1.04 1.04 0 0 0-.801.072 1.05 1.05 0 0 0-.511.624l-2.464 7.801a1.06 1.06 0 0 0-.035.485 1.05 1.05 0 0 0 .557.763 1.04 1.04 0 0 0 .471.113h0zm20.962-6.059a1.04 1.04 0 0 0 .447-.101c.14-.067.263-.164.361-.284l6.698-8.253c.088-.106.153-.229.194-.361a1.04 1.04 0 0 0-.339-1.116c-.106-.087-.229-.152-.36-.191a1.04 1.04 0 0 0-.797.085 1.05 1.05 0 0 0-.313.263l-6.698 8.253c-.124.153-.203.339-.226.535a1.04 1.04 0 0 0 .477 1.008c.167.106.359.162.556.162zM78.493 208.337c.217.001.428-.067.605-.193a1.05 1.05 0 0 0 .38-.511 1.04 1.04 0 0 0 .014-.636 1.05 1.05 0 0 0-.357-.527l-4.963-3.901a1.04 1.04 0 0 0-1.462.179 1.05 1.05 0 0 0-.214.77c.033.275.174.526.392.697l4.963 3.9a1.03 1.03 0 0 0 .642.222z"/></g><path d="M389.962 331.061a13.49 13.49 0 0 0 9.313-3.749 13.57 13.57 0 0 0 4.167-9.159l1.076-22.879c.009-.187-.032-.373-.119-.538a1.05 1.05 0 0 0-.377-.402c-.159-.098-.341-.151-.527-.154a1.03 1.03 0 0 0-.532.137l-19.783 11.318a13.56 13.56 0 0 0-6.329 8.199 13.61 13.61 0 0 0 1.29 10.29.56.56 0 0 0 .038.061l.049.075c1.186 2.07 2.896 3.789 4.956 4.984a13.46 13.46 0 0 0 6.778 1.817zm12.386-33.989l-.987 20.982c-.118 2.48-1.035 4.854-2.613 6.767s-3.731 3.259-6.137 3.838a11.39 11.39 0 0 1-7.206-.626c-2.271-.986-4.161-2.684-5.388-4.84a.79.79 0 0 0-.038-.062l-.049-.074c-1.487-2.641-1.871-5.765-1.07-8.69a11.47 11.47 0 0 1 5.349-6.918l18.139-10.377zm32.081-42.105c3.388.002 6.64-1.339 9.046-3.732s3.772-5.644 3.8-9.043c.035-6.754-11.252-26.307-11.732-27.136-.091-.157-.222-.287-.378-.378a1.04 1.04 0 0 0-.515-.142 1.03 1.03 0 0 0-.518.132c-.158.089-.29.219-.382.375-.492.822-12.05 20.205-12.122 26.958v.006a12.9 12.9 0 0 0 3.695 9.121c2.387 2.43 5.636 3.81 9.036 3.839h.07zm.199-37.309c3.617 6.43 10.59 19.81 10.565 24.523-.03 2.853-1.185 5.577-3.214 7.577a10.72 10.72 0 0 1-15.168-.114c-1.999-2.03-3.114-4.771-3.101-7.625.054-4.716 7.212-17.985 10.918-24.36v-.001z" fill="#ffed96"/><path d="M77.67 349.26h546.506c.573 0 1.012-.472 1.012-1.09s-.439-1.091-1.012-1.091H77.67c-.573 0-1.012.473-1.012 1.091s.438 1.09 1.012 1.09z" class="B"/><defs ><path id="B" d="M128.733 117.191c-.786 0-1.423-.639-1.423-1.428s.637-1.428 1.423-1.428 1.423.64 1.423 1.428-.637 1.428-1.423 1.428z"/><path id="C" d="M363.982 240.376h17.283a1.04 1.04 0 0 0 .737-.306c.195-.196.305-.461.305-.738a1.05 1.05 0 0 0-.305-.739 1.04 1.04 0 0 0-.737-.306h-17.283a1.04 1.04 0 0 0-.736.306 1.05 1.05 0 0 0-.305.739c0 .277.11.542.305.738a1.04 1.04 0 0 0 .736.306z"/><path id="D" d="M185.213 301.387a1.04 1.04 0 0 0 .736-.306c.195-.196.305-.461.305-.739V283a1.05 1.05 0 0 0-.305-.739 1.04 1.04 0 0 0-1.472 0c-.196.196-.305.462-.305.739v17.342c0 .278.109.543.305.739a1.04 1.04 0 0 0 .736.306z"/></defs></svg>