<svg xmlns="http://www.w3.org/2000/svg" xmlns:xlink="http://www.w3.org/1999/xlink" width="599" height="474" fill="none" xmlns:v="https://vecta.io/nano"><style><![CDATA[.B{fill:#3c4043}.C{fill:#fff}.D{fill:#fff1ed}.E{fill:#e7f1ff}.F{fill:#ffed96}.G{fill:#85b7fe}]]></style><path d="M517 77.358v-1.416h-.058L516.933 22H52v395.944h465l-.009-57.111H517v-1.418h-.01l-.01-55.293h.019v-1.418h-.019l-.01-55.223h.029v-1.417h-.029l-.009-55.29h.038v-1.418h-.039l-.009-55.291h.048v-1.417h-.048l-.01-55.29H517zm-1.481-53.805v52.389h-55.23V23.553h55.23zm-56.644 0v52.389h-57.047V23.553h57.047zM284.231 190.774h57.721v55.29h-57.721v-55.29zm-1.415 55.29h-57.721v-55.29h57.721v55.29zm1.415-56.707v-55.291h57.721v55.291h-57.721zm-1.415 0h-57.721v-55.291h57.721v55.291zm-59.135 0H165.89v-55.291h57.788l.003 55.291zm0 1.417v55.29H165.89v-55.29h57.791zm0 56.708v55.223H165.89v-55.223h57.791zm1.414 0h57.721v55.223h-57.721v-55.223zm59.136 0h57.721v55.223h-57.721v-55.223zm59.135 0h57.048v55.223h-57.048v-55.223zm0-1.418v-55.29h57.048v55.29h-57.048zm0-56.707v-55.291h57.048v55.291h-57.048zm0-56.709v-55.29h57.048v55.29h-57.048zm-1.414 0h-57.721v-55.29h57.721v55.29zm-59.136 0h-57.721v-55.29h57.721v55.29zm-59.135 0H165.89v-55.29h57.788l.003 55.29zm-59.202 0h-57.721v-55.29h57.721v55.29zm0 1.418v55.291h-57.721v-55.291h57.721zm0 56.708v55.29h-57.721v-55.29h57.721zm0 56.708v55.223h-57.721v-55.223h57.721zm0 56.641v55.29h-57.721v-55.291l57.721.001zm1.414 0h57.788v55.29H165.89l.003-55.29zm59.202 0h57.721v55.29h-57.721v-55.29zm59.136 0h57.721v55.29h-57.721v-55.29zm59.135 0h57.048v55.29h-57.048v-55.29zm58.462 0h57.047v55.29h-57.047v-55.29zm0-1.418v-55.223h57.047v55.223h-57.047zm0-56.641v-55.29h57.047v55.29h-57.047zm0-56.707v-55.291h57.047v55.291h-57.047zm0-56.709v-55.29h57.047v55.29h-57.047zm-1.414-109.095v52.389h-57.048V23.553h57.048zm-58.462 0v52.389h-57.721V23.553h57.721zm-59.136 0v52.389h-57.721V23.553h57.721zm-59.135 0v52.389H165.89V23.553h57.791zm-59.202 0v52.389h-57.721V23.553h57.721zm-110.997 0h51.861v52.389H53.482V23.553zm0 53.805h51.861v55.29H53.482v-55.29zm0 56.708h51.861v55.291H53.482v-55.291zm0 56.708h51.861v55.29H53.482v-55.29zm0 56.708h51.861v55.223H53.482v-55.223zm0 56.641h51.861v55.29H53.482v-55.29zm0 112.336v-55.628h51.861v55.628H53.482zm53.276 0v-55.628h57.721v55.628h-57.721zm59.135 0v-55.628h57.788v55.628h-57.788zm59.202 0v-55.628h57.721v55.628h-57.721zm59.136 0v-55.628h57.721v55.628h-57.721zm59.135 0v-55.628h57.048v55.628h-57.048zm58.462 0v-55.628h57.047v55.628h-57.047zm113.693 0h-55.232v-55.628h55.23l.002 55.628zm0-57.045h-55.232v-55.292h55.23l.002 55.292zm0-56.709h-55.232v-55.222h55.23l.002 55.222zm0-56.64h-55.232v-55.291h55.23l.002 55.291zm0-56.708h-55.232v-55.291h55.23l.002 55.291zm0-56.708h-55.232V77.358h55.23l.002 55.291z" class="E"/><path d="M514.251 306.596L400.839 218.519L294.291 355.808L407.657 443.85L514.251 306.596Z" fill="#f1e9fb"/><path d="M61.648 392.377c-13.007 7.732-14.788 17.685-14.12 30.703.267 5.11.579 14.841-.49 19.862-1.381 6.665-10.379 9.508-14.343 10.53l-21.069-61.805 17.06-21.728-22.094 7.02-5.256-15.373 44.544-15.107 15.768 45.898z" class="E"/><g class="B"><path d="M32.695 454.805c.113 0 .226-.015.335-.044 6.229-1.606 13.942-4.913 15.317-11.553 1.098-5.154.794-14.87.516-20.201-.678-13.201 1.31-22.26 13.47-29.488a1.33 1.33 0 0 0 .579-1.577l-15.768-45.899c-.115-.334-.357-.608-.674-.764s-.683-.179-1.018-.066L.907 360.32c-.166.056-.32.145-.452.261a1.33 1.33 0 0 0-.452.916c-.011.174.012.35.069.516l5.256 15.373c.113.33.351.603.663.76a1.34 1.34 0 0 0 1.007.08l17.963-5.708-14.388 18.323c-.137.175-.228.38-.265.599a1.33 1.33 0 0 0 .052.652l21.069 61.806a1.33 1.33 0 0 0 .486.656c.227.163.499.251.778.251zM60.037 391.8c-12.435 7.801-14.538 17.817-13.843 31.35.219 4.187.612 14.469-.462 19.516-1.059 5.113-7.624 7.872-12.176 9.19l-20.431-59.934 16.615-21.16a1.33 1.33 0 0 0 .045-1.582 1.34 1.34 0 0 0-.667-.502c-.27-.091-.563-.094-.835-.008l-20.846 6.624-4.402-12.874 42.015-14.253L60.037 391.8z"/><path d="M68.588 427.53c.406 0 .812-.021 1.216-.062 2.302-.236 4.482-1.148 6.265-2.62s3.087-3.438 3.749-5.65a11.64 11.64 0 0 0-.031-6.776 11.67 11.67 0 0 0-3.8-5.616c-4.616-3.767-20.701-4.57-22.52-4.65a1.34 1.34 0 0 0-.605.116 1.32 1.32 0 0 0-.489.373 1.34 1.34 0 0 0-.269.553c-.045.203-.042.413.008.615.445 1.763 4.474 17.333 9.14 21.105 2.068 1.693 4.661 2.616 7.337 2.612zM55.17 404.919c5.597.371 16.161 1.531 19.129 3.953 1.387 1.122 2.408 2.63 2.935 4.332a8.98 8.98 0 0 1 .026 5.229 9 9 0 0 1-2.892 4.361 9.03 9.03 0 0 1-4.835 2.021 8.9 8.9 0 0 1-3.495-.321 8.89 8.89 0 0 1-3.098-1.646l-.005-.004c-2.999-2.423-6.273-12.525-7.765-17.925z"/></g><path d="M139.11 405.618c-9.933 11.375-6.86 20.884-3.786 33.547.534 2.222 6.369 13.952 5.39 19.017a21.98 21.98 0 0 1-1.916 5.687c-1.867 3.574-4.629 6.604-8.018 8.798l-39.376-52.164 9.398-25.948-18.797 13.507-12.116-14.929 37.372-27.86 31.849 40.345z" class="E"/><g class="B"><path d="M130.78 474a1.33 1.33 0 0 0 .727-.215c3.583-2.319 6.503-5.523 8.476-9.302.953-1.909 1.639-3.939 2.038-6.034.743-3.838-1.664-10.223-4.193-16.436-.561-1.38-1.092-2.682-1.206-3.159l-.502-2.051c-2.868-11.655-4.94-20.076 3.996-30.309a1.33 1.33 0 0 0 .329-.843c.008-.31-.094-.614-.286-.858l-31.849-40.345a1.34 1.34 0 0 0-1.85-.243l-37.372 27.859c-.144.108-.265.243-.355.398a1.33 1.33 0 0 0-.13 1.036c.049.173.133.334.246.473L80.965 408.9c.215.265.523.438.862.483a1.34 1.34 0 0 0 .958-.24l15.291-10.988-7.929 21.894c-.075.209-.098.433-.065.652a1.33 1.33 0 0 0 .254.603l39.377 52.164a1.34 1.34 0 0 0 .47.392c.186.092.39.14.597.14zm6.604-68.413c-9.012 10.907-6.73 20.184-3.859 31.851l.499 2.041c.377 1.203.821 2.384 1.329 3.537 1.642 4.035 4.699 11.546 4.048 14.913a20.34 20.34 0 0 1-1.793 5.332c-1.564 2.995-3.799 5.591-6.531 7.584l-38.171-50.564 9.153-25.273c.097-.268.105-.56.024-.833s-.248-.513-.476-.684-.505-.266-.79-.269-.565.085-.796.251l-17.773 12.771L71.8 393.371l35.216-26.252 30.368 38.468z"/><path d="M153.116 437.413c2.369-.005 4.681-.724 6.633-2.062a11.73 11.73 0 0 0 4.305-5.439 11.63 11.63 0 0 0-.246-8.917c-1.263-2.822-3.598-5.029-6.492-6.135-5.596-2.14-21.134 2.092-22.887 2.582a1.33 1.33 0 0 0-.539.298c-.155.14-.274.314-.349.507s-.103.403-.082.61.089.406.2.581c.973 1.535 9.666 15.054 15.262 17.196 1.339.513 2.761.777 4.195.779zm-.073-20.502a9.8 9.8 0 0 1 3.316.438 9.01 9.01 0 0 1 5.004 4.746c.971 2.181 1.034 4.657.174 6.885s-2.571 4.022-4.757 4.991-4.67 1.031-6.903.173c-3.598-1.377-9.86-9.943-12.964-14.603 4.218-1.077 11.429-2.63 16.13-2.63z"/></g><path d="M161.246 323.995l-21.514-40.611a20.93 20.93 0 0 1-10.869-10.042c-5.167-10.353 51.582-32.836 51.582-32.836l37.461 77.091c.489.836.935 1.696 1.336 2.577 9.087 20.217-11.091 34.391-11.091 34.391l-69.934 55.763-33.229-41.367 56.258-44.966z" class="C"/><path d="M138.218 411.661c.303 0 .598-.103.834-.292l69.902-55.738c3.65-2.754 6.789-6.125 9.275-9.96 5.37-8.34 6.142-17.345 2.233-26.042-.413-.909-.872-1.795-1.375-2.657l-37.439-77.046a1.34 1.34 0 0 0-1.697-.658c-.118.047-12.027 4.778-24.298 10.812-16.726 8.223-26.167 14.899-28.063 19.842-.276.636-.412 1.323-.399 2.016a4.83 4.83 0 0 0 .476 1.999 22.31 22.31 0 0 0 11.106 10.489l20.776 39.218-55.396 44.277c-.277.222-.454.543-.493.895a1.33 1.33 0 0 0 .285.979l33.23 41.367c.125.156.284.282.465.368a1.33 1.33 0 0 0 .578.131zm41.568-169.455l36.918 75.973.045.086c.467.797.892 1.616 1.274 2.456 3.56 7.92 2.888 15.807-1.999 23.439a37.01 37.01 0 0 1-8.644 9.316 1.32 1.32 0 0 0-.06.044l-68.895 54.936-31.56-39.288 55.218-44.133c.242-.194.41-.466.473-.769s.018-.62-.127-.894l-21.515-40.611c-.146-.276-.384-.491-.673-.61-4.424-1.797-8.043-5.139-10.18-9.401a2.17 2.17 0 0 1 .026-1.876c3.238-8.441 35.913-23.114 49.699-28.668z" class="B"/><path d="M167.305 286.094l1.604 63.494.044 2.889c0 22.127-25.924 25.993-25.924 25.993-.223 0-86.994 18.084-86.994 18.084L43.34 338.125l71.359-12.752-.49-41.234c-.668-29.281 6.503-43.677 18.085-43.677 6.948 0 8.641.044 12.427 5.287l21.515-2.044" class="C"/><path d="M56.036 397.887c.092 0 .184-.01.274-.028l86.923-18.072a42.3 42.3 0 0 0 13.427-4.861c8.917-5.136 13.63-12.898 13.63-22.449 0-.954 0-1.941-.045-2.949l-1.603-63.467c-.004-.175-.043-.347-.115-.507a1.33 1.33 0 0 0-.3-.426c-.127-.12-.277-.215-.441-.278s-.338-.093-.514-.089a1.36 1.36 0 0 0-.509.115 1.35 1.35 0 0 0-.426.299 1.34 1.34 0 0 0-.368.953l1.604 63.494c.044.975.044 1.931.044 2.855 0 8.641-4.113 15.404-12.226 20.101-3.902 2.213-8.148 3.759-12.562 4.574v.013c-1.175.211-10.082 2.04-85.772 17.813L44.94 339.191l69.995-12.506a1.34 1.34 0 0 0 .794-.463 1.33 1.33 0 0 0 .307-.865l-.49-41.233c-.439-19.243 2.494-32.638 8.486-38.751 1.055-1.133 2.334-2.036 3.756-2.651s2.956-.932 4.506-.927c6.715 0 7.925 0 11.344 4.733.136.189.32.339.532.435a1.34 1.34 0 0 0 .678.113l21.515-2.044c.177-.013.349-.062.507-.143a1.34 1.34 0 0 0 .665-.789 1.34 1.34 0 0 0 .054-.523 1.33 1.33 0 0 0-.153-.503c-.083-.156-.198-.294-.335-.405a1.34 1.34 0 0 0-.467-.245 1.35 1.35 0 0 0-.525-.045l-20.76 1.972c-3.939-5.222-6.358-5.222-13.055-5.222a13.84 13.84 0 0 0-5.546 1.128 13.81 13.81 0 0 0-4.628 3.253c-6.503 6.638-9.702 20.698-9.246 40.66l.476 40.092-70.246 12.553c-.177.032-.345.099-.495.197a1.33 1.33 0 0 0-.581.866 1.33 1.33 0 0 0 .007.532l12.695 58.429a1.33 1.33 0 0 0 .468.753c.237.191.533.295.838.295z" class="B"/><path d="M163.832 189.853l41.069-22.216 21.425-23.994a19.02 19.02 0 0 1 13.064-6.292 19.03 19.03 0 0 1 13.707 4.737c3.748 3.341 6.016 8.026 6.308 13.031a18.92 18.92 0 0 1-4.749 13.673l-23.341 26.171a18.36 18.36 0 0 1-5.924 4.443c-.709.511-1.453.971-2.227 1.378l-48.018 25.326c-9.221 4.888-3.742-7.42-8.642-16.617-4.9-9.154-11.848-14.752-2.672-19.64zm-63.475-73.891c10.022-1.555 19.421 5.643 20.891 15.907l4.41 30.347 19.109 26.838c5.969 8.397 4.187 20.305-3.964 26.437s-6.058 23.594-12.027 15.196l-33.764-47.543a12.95 12.95 0 0 1-1.292-2.133c-1.984-2.597-3.272-5.655-3.742-8.886l-5.033-34.658c-1.514-10.308 5.434-19.95 15.412-21.505z" class="F"/><path d="M115.146 91.435l-5.301 20.617 4.633-1.822c.044.133 1.381 5.865 1.381 5.998 2.761 12.664-8.642 18.929-17.773 17.151-12.65-2.488-10.156-17.24-9.532-19.861 1.025-4.221 3.341-5.021 3.964-8.576.401-2.31.044-4.71-2.049-8.886-1.96-3.955-5.479-9.553-1.648-11.286 2.628-1.155 7.038 5.243 10.423 9.82-1.648-8.042-3.831-18.662-.223-19.595s5.925 6.576 7.974 17.018c-.268-11.864-2.049-18.129 1.514-18.662 3.786-.533 5.924 8.887 6.637 18.084z" class="D"/><path d="M101.222 135.011c4.665 0 9.27-1.789 12.364-4.943 3.513-3.581 4.784-8.596 3.579-14.123l-.009.002c-.234-1.273-1.398-6.102-1.411-6.141-.058-.171-.15-.329-.27-.464s-.268-.244-.433-.321a1.33 1.33 0 0 0-.524-.123 1.32 1.32 0 0 0-.53.092l-2.197.864 4.65-18.088a1.35 1.35 0 0 0 .038-.434c-.438-5.654-1.713-15.571-5.326-18.466a3.64 3.64 0 0 0-1.326-.717c-.488-.144-1-.184-1.504-.118-2.9.434-3.435 2.933-3.324 7.117-1.038-2.607-2.138-4.181-3.397-4.972-.426-.277-.906-.462-1.408-.543a3.65 3.65 0 0 0-1.508.073c-3.708.959-3.43 6.817-1.877 15.394-2.968-3.783-5.915-6.696-8.527-5.548-.523.214-.994.537-1.384.945s-.688.895-.876 1.427c-.919 2.637.909 6.176 2.522 9.297l.728 1.428c2.053 4.097 2.256 6.188 1.93 8.068-.261 1.486-.857 2.376-1.611 3.502-1.096 1.495-1.889 3.189-2.335 4.987-.232.978-2.138 9.662 1.859 15.863 1.915 2.968 4.846 4.859 8.714 5.619 1.118.217 2.255.325 3.394.323zm13.313-18.605c.005.035.011.07.019.105 1.291 5.923-.853 9.627-2.878 11.692-3.235 3.296-8.468 4.813-13.334 3.866-3.125-.615-5.474-2.111-6.98-4.447-3.459-5.364-1.589-13.457-1.507-13.799.374-1.491 1.04-2.894 1.96-4.127.818-1.221 1.664-2.483 2.022-4.526.499-2.878-.109-5.599-2.17-9.713l-.746-1.462c-1.231-2.381-2.916-5.643-2.373-7.198a1.35 1.35 0 0 1 .322-.5c.143-.141.316-.248.505-.314.017-.008.761-.298 2.984 2.015 1.796 1.996 3.469 4.099 5.011 6.296l.799 1.085c.181.244.44.42.734.497a1.34 1.34 0 0 0 .884-.071 1.33 1.33 0 0 0 .645-.608c.14-.27.182-.579.121-.877l-.008-.044c-.826-4.028-1.761-8.593-2.052-12.278-.414-5.231.732-5.682.864-5.716a.97.97 0 0 1 .427-.019c.142.025.276.082.394.166 2.735 1.718 4.821 12.345 5.506 15.837a1.33 1.33 0 0 0 .519.816 1.34 1.34 0 0 0 1.796-.194 1.33 1.33 0 0 0 .332-.908c-.074-3.294-.26-6.102-.424-8.579-.372-5.606-.505-8.54.802-8.735.14-.014.282.004.416.051a.96.96 0 0 1 .354.224c1.96 1.569 3.648 7.984 4.318 16.374l-5.245 20.402c-.062.238-.056.489.016.723a1.34 1.34 0 0 0 1.046.922c.243.043.493.018.722-.072l3.199-1.259 1 4.373z" class="B"/><path d="M102.808 119.65c.134-5.154 4.054-9.775 6.459-15.329 3.296-7.643 6.192-12.353 8.241-12.664 4.588-.755-.58 11.108-1.871 21.861a22.23 22.23 0 0 1-.312 1.689" class="D"/><path d="M102.808 120.983a1.34 1.34 0 0 0 .932-.378 1.33 1.33 0 0 0 .404-.921c.081-3.115 1.782-6.185 3.586-9.435.953-1.718 1.938-3.494 2.762-5.4 4.835-11.211 6.985-11.839 7.216-11.874.067-.012.135-.018.203-.019.556.982-.567 5.721-1.392 9.2a102.71 102.71 0 0 0-2.207 11.181c-.089.59-.172 1.06-.29 1.57a1.34 1.34 0 0 0-.022.524c.027.175.089.342.182.492a1.33 1.33 0 0 0 .359.384c.143.103.306.177.479.217a1.37 1.37 0 0 0 .526.015c.174-.03.341-.094.491-.189s.278-.218.379-.363a1.32 1.32 0 0 0 .21-.481c.138-.594.232-1.143.331-1.785 0-.015.004-.03.006-.045.517-3.672 1.237-7.314 2.157-10.907 1.546-6.524 2.281-10.007.713-11.681-.324-.333-.728-.577-1.174-.708s-.918-.144-1.371-.039c-1.709.26-4.32 2.025-9.25 13.452-.773 1.785-1.726 3.503-2.648 5.165-1.965 3.543-3.822 6.89-3.92 10.657a1.33 1.33 0 0 0 .367.952c.244.256.58.405.934.415l.037.001z" class="B"/><path d="M119.422 247.882l3.964-16.84 3.876-30.48c3.207-10.042 13.496-16.529 24.454-16.218 10.958-.311 21.247 6.176 24.454 16.218l3.475 26.704 4.365 20.439c1.693 3.465-14.877 1.155-29.844 1.599-10.646.311-36.259 2.355-34.744-1.422z" class="F"/><path d="M244.5 117.472l-11.002 23.105c-7.84 10.842.312 21.461 9.666 23.505 12.962 2.844 16.748-12.086 17.238-14.841.802-4.398-1.069-6.087-.178-9.73.579-2.355 1.915-4.444 5.657-7.554 3.474-2.932 9.132-6.754 6.236-9.997-2.004-2.222-8.819 2.044-13.942 4.976 4.9-6.931 11.359-16.04 8.33-18.395-3.029-2.399-8.285 3.777-14.611 12.797 5.167-11.108 9.444-16.263 6.281-18.262-3.252-1.955-9.221 5.998-13.675 14.396z" class="D"/><path d="M246.326 165.775a12.56 12.56 0 0 0 7.105-2.13c6.469-4.316 8.217-13.77 8.288-14.17.331-1.873.288-3.793-.129-5.649-.247-1.377-.442-2.464-.067-3.999.466-1.893 1.531-3.783 5.215-6.845l1.338-1.101c2.781-2.262 5.935-4.826 6.162-7.666.044-.573-.034-1.149-.227-1.69a4.11 4.11 0 0 0-.896-1.451c-2.001-2.219-6.067-.603-10.489 1.794 5.071-7.509 7.81-12.96 4.7-15.378a3.7 3.7 0 0 0-1.369-.685 3.72 3.72 0 0 0-1.529-.073c-1.568.228-3.304 1.308-5.479 3.514 1.92-4.024 2.525-6.662-.059-8.296a3.63 3.63 0 0 0-1.429-.483 3.64 3.64 0 0 0-1.503.136c-4.817 1.333-10.443 11.109-12.639 15.246l-.027.053-10.934 22.972c-3.38 4.718-4.228 9.957-2.387 14.761 2.015 5.256 7.083 9.476 12.907 10.749a16.13 16.13 0 0 0 3.448.391zm24.114-43.099c.498 0 .656.144.685.177.155.147.276.327.354.525s.11.413.095.626c-.137 1.705-3.056 4.079-5.187 5.811l-1.369 1.127c-3.672 3.052-5.382 5.368-6.092 8.254-.509 2.083-.234 3.618.032 5.102a11.79 11.79 0 0 1 .129 4.707c-.064.36-1.61 8.735-7.143 12.425-2.407 1.605-5.264 2.061-8.493 1.352-4.971-1.086-9.282-4.656-10.983-9.096-1.075-2.805-1.58-7.219 2.113-12.327l-.01-.008c.36-.597 1.792-3.599 11.124-23.28 4.042-7.614 8.452-13.196 10.978-13.897a.95.95 0 0 1 .411-.069c.141.008.277.047.401.114 1.175.743-.168 3.469-2.848 8.625-1.181 2.274-2.52 4.847-3.955 7.933-.14.302-.162.646-.061.964a1.33 1.33 0 0 0 .607.752 1.34 1.34 0 0 0 .956.146c.326-.072.614-.264.805-.537 2.353-3.354 8.6-12.263 11.824-12.732.151-.03.306-.027.455.01s.287.108.405.205c.518.403.424 2.148-1.514 5.766-1.794 3.346-4.567 7.269-7.013 10.729l-.062.089a1.33 1.33 0 0 0 .104 1.666c.205.225.48.373.781.42s.608-.01.872-.161l1.381-.795c2.37-1.371 5.056-2.926 7.274-3.837 1.519-.626 2.419-.787 2.944-.787v.001z" class="B"/><path d="M244.411 149.242c2.004-4.932.222-10.886.222-17.151.045-8.62-.712-14.219-2.494-15.374-4.009-2.621-4.009 10.708-7.305 21.461-.176.567-.31 1.146-.401 1.733" class="D"/><path d="M244.411 150.575c.266 0 .527-.079.747-.228a1.33 1.33 0 0 0 .492-.605c1.467-3.61 1.092-7.547.695-11.715-.184-1.935-.374-3.937-.374-5.937.066-12.79-1.623-15.532-3.103-16.491-.375-.283-.819-.465-1.286-.526a2.72 2.72 0 0 0-1.379.178c-2.138.914-2.878 4.46-4.107 11.176-.657 3.584-1.401 7.648-2.539 11.361a13.43 13.43 0 0 0-.445 1.92 1.34 1.34 0 0 0 .236 1c.103.143.235.264.385.356s.319.153.494.18.353.018.525-.024a1.33 1.33 0 0 0 .475-.224c.142-.105.261-.237.352-.389s.149-.32.174-.494a10.85 10.85 0 0 1 .356-1.543 104.38 104.38 0 0 0 2.613-11.664c.66-3.609 1.561-8.528 2.49-9.178.067.028.132.062.192.103.331.215 1.955 1.896 1.891 14.253 0 2.132.197 4.198.387 6.195.365 3.834.71 7.456-.512 10.462a1.33 1.33 0 0 0-.09.639c.022.218.098.426.221.607s.288.33.482.432a1.35 1.35 0 0 0 .628.156zm-124.9 100.417h64.454a1.34 1.34 0 0 0 .941-.385c.25-.247.392-.583.396-.934.05-5.015-.131-11.316-1.982-15.563-1.737-4.184-2.862-7.275-2.608-11.746.012-.176-.011-.352-.068-.519s-.147-.321-.264-.454a1.34 1.34 0 0 0-.926-.448 1.35 1.35 0 0 0-.52.073c-.167.059-.32.15-.452.268s-.237.262-.312.421a1.34 1.34 0 0 0-.127.509c-.285 5.025.988 8.531 2.817 12.937 1.515 3.477 1.772 8.926 1.775 13.175h-61.772c.124-3.811.973-7.564 2.499-11.06 1.968-4.546 2.845-9.487 2.561-14.43-.025-.349-.186-.675-.45-.907s-.607-.35-.958-.33a1.34 1.34 0 0 0-.915.435 1.33 1.33 0 0 0-.345.952c.26 4.528-.542 9.054-2.345 13.219a32.84 32.84 0 0 0-2.736 13.468c.004.351.146.687.396.934a1.34 1.34 0 0 0 .941.385z" class="B"/><path d="M169.176 150.086c3.017.274 6.034-.527 8.515-2.262a12.78 12.78 0 0 0 5.034-7.213c.77-2.923.476-6.023-.829-8.75a12.79 12.79 0 0 0-6.299-6.146 12.84 12.84 0 0 0-8.788-.631c-2.912.833-5.434 2.668-7.118 5.181a12.75 12.75 0 0 0-2.077 8.541c.342 3.003 1.74 5.787 3.945 7.859" class="C"/><path d="M170.373 151.477a14.28 14.28 0 0 0 7.418-2.111 14.23 14.23 0 0 0 5.229-5.655c1.18-2.34 1.685-4.962 1.458-7.572a14.11 14.11 0 0 0-2.743-7.208c-1.567-2.102-3.688-3.729-6.128-4.698a14.2 14.2 0 0 0-7.689-.79 14.18 14.18 0 0 0-6.959 3.354c-1.964 1.74-3.403 3.99-4.159 6.499s-.797 5.178-.119 7.709a14.12 14.12 0 0 0 3.955 6.623c.256.245.599.377.954.369a1.34 1.34 0 0 0 .936-.411 1.33 1.33 0 0 0-.043-1.885 11.47 11.47 0 0 1-3.546-7.19 11.46 11.46 0 0 1 2.032-7.752 11.5 11.5 0 0 1 6.62-4.538c2.681-.671 5.515-.356 7.983.886a11.47 11.47 0 0 1 3.533 2.756c.984 1.141 1.733 2.465 2.203 3.896a11.41 11.41 0 0 1 .537 4.441c-.115 1.501-.526 2.965-1.21 4.307a11.52 11.52 0 0 1-4.703 4.861c-2.02 1.115-4.328 1.599-6.627 1.391a1.34 1.34 0 0 0-.978.298 1.33 1.33 0 0 0-.481.901c-.034.352.074.703.299.976a1.34 1.34 0 0 0 .903.479l1.325.064z" class="B"/><path d="M144.589 145.376c1.809-2.455 2.686-5.47 2.475-8.51s-1.496-5.905-3.627-8.088a12.91 12.91 0 0 0-8.009-3.832c-3.04-.291-6.085.503-8.594 2.242a12.86 12.86 0 0 0-5.103 7.252c-.787 2.943-.502 6.07.806 8.823s3.552 4.955 6.334 6.213a12.93 12.93 0 0 0 8.858.654" class="C"/><path d="M134.237 151.947a14.17 14.17 0 0 0 3.857-.534c.336-.1.62-.328.789-.635a1.34 1.34 0 0 0 .114-1.005c-.096-.337-.321-.623-.626-.796a1.34 1.34 0 0 0-1.006-.128 11.64 11.64 0 0 1-7.248-.313c-2.32-.873-4.3-2.465-5.648-4.542-.819-1.265-1.377-2.68-1.641-4.163s-.229-3.004.103-4.473a11.49 11.49 0 0 1 2.167-4.569c1.053-1.343 2.392-2.436 3.921-3.199a11.55 11.55 0 0 1 4.919-1.212 11.56 11.56 0 0 1 4.964 1.011c1.559.701 2.942 1.738 4.049 3.038a11.47 11.47 0 0 1 2.35 4.477c.441 1.648.509 3.373.198 5.05a11.48 11.48 0 0 1-1.994 4.646 1.33 1.33 0 0 0-.226.988c.058.347.251.656.537.862s.641.289.989.235a1.34 1.34 0 0 0 .869-.527c1.899-2.576 2.872-5.716 2.762-8.912s-1.298-6.261-3.371-8.7-4.91-4.11-8.053-4.742-6.407-.189-9.265 1.259a14.22 14.22 0 0 0-6.488 6.718 14.18 14.18 0 0 0-.915 9.283c.75 3.109 2.53 5.874 5.051 7.849a14.27 14.27 0 0 0 8.842 3.036v-.002z" class="B"/><path d="M168.642 152.574a6.86 6.86 0 0 1 5.883.206c.903.468 1.691 1.131 2.305 1.941a6.82 6.82 0 0 1 1.192 5.75c-.242.987-.701 1.907-1.345 2.694s-1.454 1.422-2.374 1.857-1.926.661-2.944.66a6.76 6.76 0 0 1-2.138-.356 16 16 0 0 1 .534 4.177c-.002 2.671-.632 5.304-1.839 7.688a17.12 17.12 0 0 1-5.109 6.041v12.397a10.01 10.01 0 0 1-.764 3.845c-.505 1.219-1.247 2.326-2.182 3.259a10.05 10.05 0 0 1-3.267 2.176 10.09 10.09 0 0 1-3.854.762c-3.475 0-10.334-2.444-10.245-9.642l.178-12.752c-2.166-1.579-3.928-3.645-5.143-6.031s-1.849-5.023-1.85-7.699c-.007-1.409.173-2.814.534-4.176a7.01 7.01 0 0 1-2.183.355 6.87 6.87 0 0 1-4.85-2.004 6.83 6.83 0 0 1 0-9.677 6.87 6.87 0 0 1 4.85-2.004c.95.007 1.889.203 2.762.577v-.133l15.947-12.352 15.902 12.441z" class="D"/><path d="M152.74 207.004a11.43 11.43 0 0 0 8.06-3.335c2.138-2.133 3.34-5.024 3.344-8.04v-11.743c2.158-1.73 3.903-3.919 5.105-6.407a18.51 18.51 0 0 0 1.843-7.976c.002-.836-.055-1.672-.169-2.501l.437.013a8.21 8.21 0 0 0 5.795-2.395c1.537-1.533 2.401-3.613 2.401-5.781s-.864-4.248-2.401-5.781-3.622-2.394-5.795-2.394c-.844.001-1.681.136-2.482.399l-15.313-11.98a1.34 1.34 0 0 0-1.644-.004l-15.484 11.994c-1.146-.352-2.356-.448-3.544-.282a8.21 8.21 0 0 0-3.33 1.242c-1.006.652-1.856 1.516-2.49 2.532s-1.037 2.157-1.18 3.345a8.15 8.15 0 0 0 .352 3.529 8.18 8.18 0 0 0 1.817 3.049c.822.871 1.826 1.551 2.941 1.993a8.22 8.22 0 0 0 3.51.564c-.434 3.162-.033 6.383 1.162 9.344s3.144 5.559 5.653 7.54l-.169 12.082c-.045 1.361.186 2.716.68 3.985s1.242 2.425 2.196 3.398c2.349 2.244 5.454 3.532 8.705 3.61zm16.482-43.011a1.34 1.34 0 0 0-.591.137c-.184.091-.345.222-.47.384a1.34 1.34 0 0 0-.25.551c-.041.2-.034.407.019.605.332 1.25.497 2.539.49 3.833a15.63 15.63 0 0 1-1.687 7.095 15.68 15.68 0 0 1-4.724 5.566c-.167.124-.303.285-.396.471a1.33 1.33 0 0 0-.142.598v12.396c-.003 2.309-.923 4.523-2.56 6.155s-3.856 2.551-6.171 2.554c-2.537-.074-4.959-1.078-6.803-2.818a7.38 7.38 0 0 1-1.623-2.519c-.362-.942-.526-1.948-.482-2.955l.178-12.75a1.34 1.34 0 0 0-.544-1.092 15.62 15.62 0 0 1-4.753-5.553 15.58 15.58 0 0 1-1.697-7.104c-.006-1.293.158-2.582.49-3.833.063-.232.061-.477-.006-.709a1.33 1.33 0 0 0-.998-.936 1.34 1.34 0 0 0-.71.037c-.567.189-1.161.285-1.76.287a5.53 5.53 0 0 1-3.905-1.614 5.5 5.5 0 0 1 0-7.791 5.53 5.53 0 0 1 3.905-1.614c.772.006 1.535.167 2.244.473.302.127.642.139.952.032a1.34 1.34 0 0 0 .732-.609l14.776-11.449 15.082 11.802c.187.147.41.241.647.272s.476 0 .696-.092c.693-.305 1.441-.466 2.199-.473a5.53 5.53 0 0 1 3.905 1.613c1.036 1.034 1.618 2.435 1.618 3.896s-.582 2.863-1.618 3.896a5.53 5.53 0 0 1-3.905 1.614c-.584-.002-1.163-.099-1.716-.287a1.32 1.32 0 0 0-.422-.069z" class="B"/><path d="M162.763 183.277c-2.831 2.067-6.23 3.213-9.737 3.285s-6.95-.936-9.863-2.885" class="D"/><path d="M152.695 187.898c3.902-.013 7.701-1.253 10.855-3.544.142-.103.262-.233.353-.383s.153-.315.18-.488a1.34 1.34 0 0 0-.241-.992c-.104-.141-.234-.261-.384-.352a1.34 1.34 0 0 0-.49-.179c-.173-.027-.35-.019-.521.022s-.331.116-.473.219a15.88 15.88 0 0 1-9.279 3.031c-3.129.007-6.189-.92-8.786-2.661a1.34 1.34 0 0 0-1.855.362 1.33 1.33 0 0 0-.202 1.001c.068.347.271.652.565.85 3.039 2.037 6.618 3.121 10.278 3.114z" class="B"/><path d="M135.591 153.774c0-9.242 7.483-16.795 16.882-17.151h.668c9.265.356 16.704 7.909 16.704 17.107-8.553-.311-15.769-3.688-17.105-11.953-1.425 8.309-8.508 11.686-17.149 11.997z" class="C"/><path d="M135.591 155.107h.049c8.508-.306 14.415-3.421 17.086-8.894 2.628 5.438 8.532 8.539 17.071 8.85a1.35 1.35 0 0 0 .526-.088c.168-.064.321-.161.45-.285a1.33 1.33 0 0 0 .302-.439c.07-.165.107-.342.107-.521-.013-4.802-1.897-9.41-5.254-12.851a18.57 18.57 0 0 0-12.735-5.589h-.052-.668-.05c-10.188.386-18.168 8.504-18.168 18.484 0 .354.141.693.391.943a1.34 1.34 0 0 0 .945.39zm17.15-14.663c-.316 0-.621.111-.862.314s-.402.484-.456.794c-1.363 7.947-8.305 10.316-14.432 10.806.708-7.872 7.261-14.079 15.509-14.402h.616a15.92 15.92 0 0 1 10.384 4.288c2.822 2.643 4.581 6.223 4.946 10.067-5.355-.448-13.06-2.544-14.387-10.746-.051-.312-.21-.595-.45-.8a1.34 1.34 0 0 0-.862-.321h-.006zm6.521 19.644c-.126-.775.402-1.505 1.179-1.631s1.509.401 1.635 1.176a1.42 1.42 0 0 1-1.178 1.631c-.777.126-1.51-.401-1.636-1.176zm-14.584 1.151c-.787 0-1.425-.637-1.425-1.422s.638-1.422 1.425-1.422 1.426.637 1.426 1.422-.639 1.422-1.426 1.422zm8.285 6.753c.315.001.619-.11.86-.311a1.33 1.33 0 0 0 .457-.79c.055-.309-.001-.627-.159-.899s-.405-.479-.701-.586l-2.528-.917 2.205-4.535a1.31 1.31 0 0 0 .131-.503c.011-.175-.014-.35-.071-.515a1.33 1.33 0 0 0-.264-.449c-.117-.131-.258-.238-.416-.314a1.34 1.34 0 0 0-.504-.131c-.176-.01-.351.014-.517.071a1.35 1.35 0 0 0-.45.263 1.34 1.34 0 0 0-.314.415l-2.851 5.865a1.32 1.32 0 0 0-.133.538 1.34 1.34 0 0 0 .097.545c.07.173.176.329.311.458s.295.23.47.294l3.92 1.421a1.3 1.3 0 0 0 .457.08zm-1.558 8.709c2.367 0 5.79-2.278 5.79-6.398a1.33 1.33 0 0 0-.391-.943 1.34 1.34 0 0 0-.945-.39h-8.82a1.33 1.33 0 0 0-1.336 1.278 6.25 6.25 0 0 0 1.706 4.646 5.7 5.7 0 0 0 1.817 1.301c.686.311 1.426.482 2.179.506zm2.901-5.065c-.582 1.67-2.183 2.399-2.901 2.399a3.09 3.09 0 0 1-2.067-.987 3.4 3.4 0 0 1-.816-1.412h5.784zm19.058-9.598c.338.001.663-.127.91-.356a1.33 1.33 0 0 0 .424-.879c.024-.336-.079-.668-.29-.931s-.514-.436-.848-.485l-.962-.143 1.272-1.077a1.33 1.33 0 0 0 .468-.907c.029-.353-.084-.702-.313-.972a1.34 1.34 0 0 0-.909-.466c-.354-.029-.704.083-.974.312l-3.519 2.977a1.33 1.33 0 0 0-.421 1.382 1.34 1.34 0 0 0 1.089.953l3.875.577a1.32 1.32 0 0 0 .198.015zm-41.604-.355c.071 0 .141-.006.211-.017l3.92-.622c.253-.04.488-.151.679-.321a1.33 1.33 0 0 0 .389-1.386c-.075-.244-.219-.461-.414-.626l-3.518-2.977a1.35 1.35 0 0 0-.457-.26c-.168-.055-.345-.077-.522-.063a1.34 1.34 0 0 0-.506.141c-.157.08-.297.191-.412.326a1.32 1.32 0 0 0-.254.458 1.34 1.34 0 0 0-.058.522c.016.175.066.346.149.502a1.32 1.32 0 0 0 .331.407l1.3 1.1-1.047.166a1.34 1.34 0 0 0-.84.491c-.208.264-.309.596-.283.93a1.33 1.33 0 0 0 .425.874 1.34 1.34 0 0 0 .907.355z" class="B"/><path d="M497.883 23.81c-.319.037-6.306-1.47-7.254-1.76l10.266-20.184c.094-.185.238-.341.415-.45s.381-.166.589-.166h.015c.211.003.417.064.594.178s.319.275.409.466l5.218 11.003.03.067c.829 2.091.707 4.422.095 6.705-.14.071-6.936 3.745-10.377 4.141z" class="C"/><path d="M497.962 25.054c-1.028 0-7.635-1.791-7.698-1.809-.174-.053-.335-.144-.471-.266a1.24 1.24 0 0 1-.314-.44 1.23 1.23 0 0 1-.099-.532 1.24 1.24 0 0 1 .135-.524l10.267-20.185c.201-.396.509-.727.889-.957s.817-.348 1.261-.342a2.37 2.37 0 0 1 2.113 1.357l5.219 11.004.057.128c.856 2.16.903 4.68.145 7.502-.045.169-.125.327-.236.464a1.25 1.25 0 0 1-.404.328l-.038.02c-1.698.902-7.494 3.873-10.762 4.248a.55.55 0 0 1-.064.003zm-5.523-3.808c1.865.483 4.764 1.191 5.431 1.306 2.183-.303 6.142-2.073 9.313-3.729.479-2.074.42-3.888-.18-5.398l-5.107-10.77-9.457 18.592z" class="B"/><path d="M510.004 31.379l17.325-6.247c.451-.158.937-.187 1.403-.084s.894.334 1.236.668.584.756.699 1.219a2.57 2.57 0 0 1-.048 1.404 2.66 2.66 0 0 1-.61.989c-.273.281-.605.498-.973.635l-4.163 1.458 3.539.583a2.55 2.55 0 0 1 2.123 2.915 2.55 2.55 0 0 1-2.914 2.124l-11.378-1.801" class="C"/><path d="M528.027 38.324a3.85 3.85 0 0 1-.601-.047l-11.38-1.802c-.324-.055-.614-.236-.805-.503a1.25 1.25 0 0 1 1.195-1.965l11.378 1.801a1.33 1.33 0 0 0 1.12-.348 1.25 1.25 0 0 0 .333-1.304 1.3 1.3 0 0 0-.394-.614 1.29 1.29 0 0 0-.662-.305l-3.544-.583a1.25 1.25 0 0 1-.844-1.911 1.25 1.25 0 0 1 .636-.501l4.14-1.45c.192-.072.366-.186.51-.332s.254-.322.323-.516a1.27 1.27 0 0 0-.33-1.327 1.29 1.29 0 0 0-.633-.353c-.241-.055-.492-.039-.724.046l-17.32 6.243c-.154.058-.319.084-.484.078a1.25 1.25 0 0 1-.477-.115c-.15-.069-.284-.168-.396-.29a1.26 1.26 0 0 1-.254-.42 1.25 1.25 0 0 1 .048-.961 1.25 1.25 0 0 1 .294-.393c.123-.11.266-.195.422-.249l17.326-6.247a3.81 3.81 0 0 1 4.977 2.683c.17.692.143 1.418-.078 2.095-.177.523-.464 1.002-.84 1.405s-.835.722-1.344.935c.486.225.919.55 1.27.954a3.8 3.8 0 0 1 .77 1.39c.212.674.229 1.395.049 2.078a3.77 3.77 0 0 1-1.062 1.787 3.83 3.83 0 0 1-2.619 1.04zm-51.201-11.776l-9.826.958 9.618 3.873.208-4.831z" class="B"/><path d="M481.198 35.627a9.78 9.78 0 0 1 4.288 3.831c1.123 1.814 2.612 3.375 4.372 4.581 6.287 4.414 14.905 3.29 20.193-2.29l6.204-6.58-18.611-11.994a19.38 19.38 0 0 1-5.996-3.665c-1.697-1.488-3.859-2.339-6.115-2.407s-4.465.653-6.248 2.037a9.72 9.72 0 0 0-3.523 5.549c-.494 2.203-.206 4.509.814 6.523a9.86 9.86 0 0 0 4.622 4.414z" class="C"/><path d="M498.487 47.98c-3.341.014-6.606-1.005-9.347-2.918a16.49 16.49 0 0 1-4.714-4.944c-.881-1.465-2.182-2.632-3.733-3.349l-.014-.006a11.09 11.09 0 0 1-5.204-4.965c-1.163-2.272-1.496-4.879-.943-7.371s1.958-4.712 3.972-6.279a10.96 10.96 0 0 1 13.973.425 18.17 18.17 0 0 0 5.607 3.431 1.24 1.24 0 0 1 .236.119l18.611 11.994a1.26 1.26 0 0 1 .382.387 1.25 1.25 0 0 1 .181.512c.022.182.004.367-.053.541a1.24 1.24 0 0 1-.278.467l-6.204 6.58c-1.605 1.695-3.539 3.046-5.683 3.97a17.21 17.21 0 0 1-6.789 1.406zm-16.778-13.493c2.007.919 3.692 2.42 4.836 4.309a14.04 14.04 0 0 0 4.017 4.211c5.679 3.988 13.663 3.073 18.582-2.118l5.171-5.484-17.239-11.11a20.68 20.68 0 0 1-6.255-3.848c-1.478-1.295-3.361-2.035-5.325-2.094a8.46 8.46 0 0 0-5.441 1.773 8.47 8.47 0 0 0-2.37 10.509 8.6 8.6 0 0 0 4.025 3.851h-.001zm.238-4.191a2.5 2.5 0 0 0 2.498-2.499 2.5 2.5 0 0 0-2.498-2.499 2.5 2.5 0 0 0-2.498 2.499 2.5 2.5 0 0 0 2.498 2.499z" class="B"/><path d="M489.215 33.115a5.56 5.56 0 0 1-.982-.944l-.064-.095a6.45 6.45 0 0 1-.823-4.711 4.14 4.14 0 0 0-.446-2.957l-.184-.279-.106-.162c-.02-.026-.039-.054-.057-.083a3.86 3.86 0 0 0-5.318-1.232l-4.788 2.998c-.208.131-.451.197-.698.19a1.25 1.25 0 0 1-.686-.229c-.201-.142-.355-.341-.444-.571a1.25 1.25 0 0 1-.053-.722 10.72 10.72 0 0 1 4.183-6.354c2.013-1.49 4.477-2.241 6.979-2.128s4.887 1.084 6.758 2.749a17.34 17.34 0 0 0 4.954 3.168l22.671-17.556a1.25 1.25 0 0 1 1.315-.134c.209.103.386.263.51.461s.189.427.189.661v13.493l-.003.083c-.566 8.621-13.823 14.689-15.225 15.307a15.19 15.19 0 0 1-8.228 2.435 14.86 14.86 0 0 1-9.454-3.388z" fill="#7027e5"/><path d="M496.925 24.225c-.168-.108-.308-.255-.408-.429a1.25 1.25 0 0 1-.049-1.149 1.26 1.26 0 0 1 .37-.462l23.274-17.991a1.25 1.25 0 0 1 .638-.255c.233-.024.467.019.676.122s.387.263.51.461.189.427.189.661v5.122c-.009 2.283-.612 4.523-1.75 6.502s-2.773 3.626-4.741 4.781l-5.076 2.955a12.9 12.9 0 0 1-6.544 1.787c-2.516-.005-4.977-.735-7.089-2.104z" class="G"/><g stroke="#3c4043"><path d="M88 125.5c-1.5 1.333-4.3 5.6-3.5 12 1 8 5 36 6 39s29 38 34 46.5" stroke-width="2.5"/><path d="M117 123.5c1-1 3.4.2 5 13 2 16 2 24.5 5.5 29 2.8 3.6 10.5 12.833 14 17M259 156c.833 2.333.7 9-6.5 17l-23 25c-.8.8-34 17.5-50.5 25m55-83.5c-2 .167-7.9 2.9-15.5 12.5-9.5 12-16 17-19.5 19l-32.5 18-3-2" stroke-width="2"/></g><path d="M69.486 348.95l.028.288a14.57 14.57 0 0 1-13.069 15.893c-1.788.174-3.573.019-5.304-.461-.424-.118-.673-.557-.555-.981a.8.8 0 0 1 .981-.555 12.91 12.91 0 0 0 4.723.411c7.111-.694 12.331-7.042 11.637-14.152l-.028-.287c-.48-4.838-3.584-8.964-8.102-10.766-.409-.163-.608-.627-.445-1.035a.8.8 0 0 1 1.035-.445c5.072 2.024 8.558 6.656 9.097 12.09zm137.357-2.865h-.304c-8.017 0-14.539-6.524-14.539-14.542S198.522 317 206.539 317h.29c5.677 0 10.867 3.332 13.229 8.489a.8.8 0 0 1-.393 1.057c-.4.183-.872.007-1.056-.393-2.103-4.593-6.725-7.559-11.774-7.559h-.296c-7.138 0-12.946 5.809-12.946 12.949s5.808 12.949 12.946 12.949h.29a12.96 12.96 0 0 0 7.977-2.752c.346-.272.846-.212 1.118.135s.211.847-.135 1.118c-2.54 1.995-5.717 3.092-8.946 3.092zm-105.887-15.411c.044-.173.145-.332.299-.446a.8.8 0 0 1 1.115.168c1.772 2.4 4.341 4.122 7.235 4.848 6.927 1.75 13.981-2.458 15.729-9.379l.071-.281c1.705-6.752-2.19-13.595-8.868-15.579-.422-.126-.661-.567-.537-.991s.569-.662.991-.537c7.499 2.228 11.874 9.914 9.959 17.497l-.071.281c-1.963 7.773-9.886 12.498-17.66 10.535-3.253-.817-6.14-2.752-8.132-5.449-.147-.198-.187-.444-.131-.667zm35.257 46.679l-.014.102a.8.8 0 0 1-.898.682c-.436-.06-.741-.462-.681-.898l.014-.102a12.97 12.97 0 0 0-11.076-14.584c-7.087-.97-13.63 3.996-14.598 11.068l-.04.287c-.429 3.135.303 6.301 2.061 8.923.245.365.147.86-.219 1.105s-.86.147-1.105-.219a14.45 14.45 0 0 1-2.317-10.017l.041-.295a14.56 14.56 0 0 1 16.38-12.432c7.958 1.089 13.538 8.437 12.452 16.38zm14.561 21.051l-.008.064c-.038.271-.287.461-.558.424s-.461-.287-.424-.558l.009-.064a8.06 8.06 0 0 0-6.882-9.062 8.06 8.06 0 0 0-9.072 6.878l-.024.178c-.267 1.948.188 3.915 1.28 5.545.152.227.092.534-.136.686s-.534.092-.687-.135a8.98 8.98 0 0 1-1.439-6.225l.025-.184a9.05 9.05 0 0 1 10.179-7.725c4.945.677 8.412 5.243 7.737 10.178zm-31.399-119.63h-.287c-.81 0-1.625-.068-2.423-.202-.434-.073-.727-.484-.654-.918s.482-.726.918-.654a13.24 13.24 0 0 0 2.16.181h.287a12.97 12.97 0 0 0 12.948-12.952c.004-4.337-2.147-8.363-5.753-10.769-.366-.244-.465-.739-.221-1.105s.739-.465 1.105-.221c4.051 2.703 6.467 7.225 6.462 12.096 0 8.019-6.523 14.544-14.542 14.544zm55.163-.6c-3.879 0-7.527-1.51-10.273-4.252A14.45 14.45 0 0 1 160 263.641a14.44 14.44 0 0 1 4.258-10.292 14.59 14.59 0 0 1 1.33-1.179c.347-.272.848-.211 1.119.135s.211.848-.136 1.119a13.16 13.16 0 0 0-1.187 1.052c-2.447 2.448-3.793 5.702-3.791 9.164a12.87 12.87 0 0 0 3.798 9.154 12.86 12.86 0 0 0 9.148 3.786h.299a12.97 12.97 0 0 0 12.946-12.949c-.004-.446-.032-.903-.083-1.352-.05-.437.264-.832.701-.882s.832.264.882.702c.058.504.089 1.017.093 1.526-.002 8.024-6.524 14.548-14.539 14.549h-.29z" class="E"/><path d="M385.156 48.742l1.697 5.615a3.05 3.05 0 0 0 2.038 2.034l5.616 1.7a.69.69 0 0 1 .463.863.69.69 0 0 1-.463.463l-5.616 1.7a3.05 3.05 0 0 0-2.038 2.034l-1.697 5.615c-.108.367-.493.577-.86.469a.69.69 0 0 1-.469-.469l-1.701-5.615a3.04 3.04 0 0 0-2.035-2.034l-5.616-1.7c-.366-.111-.573-.497-.463-.863.067-.222.241-.395.463-.462l5.616-1.7a3.04 3.04 0 0 0 2.035-2.034l1.701-5.615a.69.69 0 0 1 .859-.469c.226.066.403.243.47.469z" fill="#82b1ff"/><path d="M563.817 295.778c6.443 0 12.465-1.8 17.592-4.924 9.754-5.944 16.267-16.682 16.267-28.942 0-18.704-15.159-33.867-33.859-33.867-18.191 0-31.737 11.219-32.531 29.219" class="C"/><path d="M563.817 296.575c6.369 0 12.596-1.743 18.007-5.041 4.988-3.039 9.16-7.322 12.067-12.386 2.997-5.221 4.582-11.181 4.582-17.236 0-19.114-15.547-34.663-34.656-34.663-19.143 0-32.536 12.047-33.326 29.979-.02.44.321.812.761.832a.8.8 0 0 0 .831-.761c.75-17.021 13.503-28.457 31.734-28.457s33.062 14.835 33.062 33.07c0 11.635-5.938 22.2-15.884 28.261-5.161 3.146-11.101 4.808-17.178 4.808-.44 0-.796.357-.796.797s.356.797.796.797z" class="B"/><path d="M526.255 244.566a13.1 13.1 0 0 1 2.127-3.354 13.04 13.04 0 0 1-.818-3.042 13.05 13.05 0 0 1 .875-7.024l3.379-4.959 8.232 4.249 12.216 6.11-.797 15.406-23.9-5.578" class="D"/><path d="M551.469 252.748c.171 0 .34-.055.479-.16a.8.8 0 0 0 .317-.595l.796-15.406c.017-.317-.156-.613-.439-.754l-12.215-6.109-8.224-4.245c-.358-.185-.797-.074-1.023.259l-3.379 4.959c-.03.044-.055.09-.076.139-.987 2.346-1.308 4.922-.928 7.451a13.83 13.83 0 0 0 .694 2.771c-.793.976-1.446 2.047-1.946 3.189-.176.403.008.873.411 1.049s.873-.007 1.049-.411c.498-1.14 1.171-2.2 1.999-3.15a.8.8 0 0 0 .138-.822 12.28 12.28 0 0 1-.769-2.855 12.3 12.3 0 0 1 .791-6.531l2.935-4.309 7.606 3.926 11.758 5.881-.72 13.934-22.973-5.361c-.428-.101-.857.166-.957.595a.8.8 0 0 0 .595.957l23.9 5.578c.06.014.121.02.181.02z" class="B"/><path d="M553.861 258.881a31.25 31.25 0 0 1 9.694-1.531c17.28 0 31.288 14.012 31.288 31.296 0 4.884-1.351 9.724-3.345 13.843" class="C"/><path d="M591.497 303.286c.296 0 .58-.165.717-.449 1.563-3.227 3.426-8.308 3.426-14.191 0-17.696-14.394-32.092-32.085-32.092-3.396 0-6.741.528-9.94 1.57-.419.136-.647.586-.511 1.004s.585.647 1.004.511c3.04-.99 6.218-1.492 9.446-1.492 16.814 0 30.492 13.682 30.492 30.499 0 5.581-1.776 10.42-3.266 13.496a.8.8 0 0 0 .37 1.065c.112.054.23.079.347.079z" class="B"/><path d="M558.335 431.159c-2.517 6.418-3.536 12.443-.314 16.67 4.393 5.761 6.158 7.695 5.643 14.967h-2.32-42.518l-4.189-17.483 8.919-27.944" class="E"/><path d="M518.827 463.593h44.837c.418 0 .765-.323.795-.74.513-7.246-1.167-9.443-5.227-14.752l-.577-.756c-2.618-3.434-2.484-8.485.422-15.894.16-.41-.041-.873-.451-1.033s-.872.041-1.033.45c-3.129 7.98-3.194 13.523-.205 17.444l.579.757c3.761 4.919 5.258 6.876 4.948 12.93h-43.46l-3.991-16.655 8.85-27.733c.134-.419-.097-.867-.516-1.001s-.868.097-1.001.517l-8.919 27.944c-.044.138-.049.286-.016.428l4.19 17.483c.086.359.406.611.775.611z" class="B"/><path d="M525.469 354.675l3.787 8.84 4.172 9.746 1.445 3.37-.571 1.488-3.793 9.878-10.691 27.89 44.441 17.621 3.452-8.98 9.276-24.055 5.938-15.406a23.87 23.87 0 0 0 1.161-13.775 23.76 23.76 0 0 0-1.403-4.422l-2.706-6.295-1.954-4.566-4.153-9.714-10.352-24.179-4.613-15.713h-12.747l-26.29-.265-2.563 1.682" class="C"/><path d="M564.259 434.305a.79.79 0 0 0 .32-.067c.195-.085.348-.245.424-.443l3.452-8.981 15.213-39.46c1.798-4.528 2.213-9.451 1.197-14.228-.331-1.557-.818-3.095-1.449-4.57l-4.661-10.861-4.153-9.714-10.333-24.136-4.6-15.666c-.1-.34-.411-.573-.765-.573h-12.746l-26.282-.265a.78.78 0 0 0-.446.13l-2.562 1.683c-.368.241-.471.735-.229 1.103s.735.471 1.103.229l2.36-1.549 26.048.263h12.158l4.446 15.14c.009.03.02.06.032.089l10.352 24.179 6.107 14.28 2.707 6.296c.59 1.378 1.046 2.816 1.355 4.273.95 4.469.563 9.073-1.122 13.316l-15.217 39.468-3.163 8.23-42.961-17.034 10.41-27.155 4.363-11.365a.8.8 0 0 0-.012-.6l-9.403-21.956c-.173-.404-.641-.592-1.046-.419a.8.8 0 0 0-.419 1.047l9.276 21.659-4.247 11.063-10.691 27.89c-.157.408.044.866.45 1.027l44.441 17.621a.78.78 0 0 0 .293.056z" class="B"/><path d="M459.903 431.533c-2.226 3.763-5.771 6.678-10.203 8.794-8.264 3.947-11.398 5.42-15.402 6.678-6.887 2.163-11.772 8.593-11.199 15.791l40.543-.149 21.797-12.101-.199 12.189 15.291.061.184-37.473" class="E"/><path d="M500.531 463.594c.438 0 .795-.354.797-.793l.184-37.473c.002-.44-.353-.799-.793-.801-.443.008-.798.353-.801.793l-.18 36.677-13.688-.055.186-11.383c.005-.284-.143-.55-.387-.696s-.548-.152-.797-.014l-21.617 12.003-39.58.145c-.146-6.301 4.242-12.209 10.682-14.231 4-1.256 7.108-2.708 15.507-6.719 4.769-2.278 8.317-5.342 10.545-9.108.224-.379.099-.867-.28-1.091s-.867-.099-1.091.28c-2.064 3.488-5.382 6.342-9.861 8.481-8.323 3.975-11.4 5.412-15.298 6.636-3.541 1.113-6.667 3.35-8.803 6.301-2.191 3.027-3.24 6.69-2.951 10.314.032.414.378.734.794.734l40.546-.149a.81.81 0 0 0 .384-.1l20.591-11.433-.176 10.811c-.004.213.078.418.227.57a.8.8 0 0 0 .566.239l15.291.061z" class="B"/><path d="M518.979 307.118l-22.966 9.624-24.383 10.215-10.091 4.226-6.225 2.609-6.496 2.722c-8.96 5.323-13.434 15.842-11.057 25.991l.002.003 8.171 33.502 4.037 16.546 4.82 19.754 47.452-7.22-13.95-56.423.412-.154 11.663-4.393 1.981-.744 23.12-8.701" class="C"/><g class="B"><use xlink:href="#B"/><path d="M525.762 356.136c.096 0 .194-.017.289-.054.41-.16.613-.622.453-1.032l-3.548-9.119c-.16-.41-.622-.613-1.031-.453a.8.8 0 0 0-.454 1.031l3.548 9.119a.8.8 0 0 0 .743.508zm-127.195-85.701c.043 0 .087-.003.132-.01l5.042-.841c.434-.072.728-.483.655-.917s-.482-.727-.916-.655l-5.043.841c-.434.072-.727.482-.655.917.065.389.402.665.785.665z"/><path d="M527.069 243.803c.277 0 .546-.144.693-.401l1.196-2.095c.219-.383.086-.869-.296-1.088s-.869-.085-1.087.297l-1.197 2.095c-.218.382-.085.869.297 1.087a.79.79 0 0 0 .394.105zm37.19 190.768a.79.79 0 0 0 .32-.067.8.8 0 0 0 .424-.444l3.452-8.98 15.213-39.46c1.798-4.529 2.213-9.451 1.197-14.228a24.59 24.59 0 0 0-1.449-4.57l-4.661-10.862-4.153-9.713-10.352-24.18-5.942-13.853c-.114-.268-.367-.452-.658-.479l-11.419-1.063c-.014-.001-.027-.002-.041-.002l-26.178-1.058-.689-.23c-.418-.139-.869.086-1.008.504s.086.868.504 1.008l.796.265a.82.82 0 0 0 .22.041l26.27 1.061 10.926 1.017 5.755 13.418 10.351 24.178 6.108 14.28 2.706 6.296c.59 1.378 1.046 2.816 1.355 4.273.951 4.469.563 9.073-1.122 13.316l-15.216 39.468-3.164 8.23-42.96-17.034 10.409-27.155 4.363-11.365c.074-.194.07-.409-.011-.6l-9.404-21.956c-.173-.404-.641-.592-1.046-.418s-.592.641-.418 1.046l9.276 21.659-4.248 11.063-10.691 27.891a.8.8 0 0 0 .45 1.026l44.441 17.621a.81.81 0 0 0 .294.056z"/></g><path d="M547.931 238.499c-2.669-.435-6.74-2.651-8.6-4.801l-6.753-6.564-4.139 4.085c.844-3.186 2.179-5.992 4.875-7.871 2.831-1.962 6.399-2.915 10.102-2.424 7.189.98 13.688 6.412 12.077 16.358" class="C"/><path d="M547.932 239.296a.8.8 0 0 0 .786-.669c.071-.434-.224-.844-.659-.915-2.56-.417-6.433-2.579-8.125-4.536l-.047-.05-6.753-6.564a.8.8 0 0 0-1.115.004l-1.689 1.668c.861-1.855 1.975-3.211 3.44-4.233a13.59 13.59 0 0 1 9.542-2.288c3.949.539 7.261 2.371 9.325 5.158 2.034 2.748 2.731 6.208 2.071 10.284-.071.434.224.844.659.914a.8.8 0 0 0 .914-.659c.721-4.453-.097-8.425-2.364-11.488-2.321-3.135-6.012-5.191-10.392-5.788-3.774-.5-7.56.409-10.664 2.558-3.284 2.289-4.535 5.846-5.191 8.323-.092.347.06.713.37.893s.704.131.96-.122l3.583-3.537 6.17 5.997c1.934 2.216 6.152 4.567 9.05 5.039a.8.8 0 0 0 .129.011z" class="B"/><path d="M433.099 282.81l-.052.054-.066.036c-4.705 2.603-9.453 1.433-12.745.044-1.233-.52-2.291-1.085-3.061-1.496l-.338-.179c2.335 3.853 6.326 6.654 11.136 7.304h.001l56.707 7.792a15.33 15.33 0 0 0 1.682.092h31.416.45l.048.448 1.035 9.809 36.569 2.049.213.012.138.162 1.85 2.158.33.385-.39.325-13.894 11.566v.008l-.18.15c-4.3 3.576-6.164 8.995-5.399 14.152.077-.513.185-1.069.34-1.65.82-3.086 2.932-6.887 8.349-8.76 3.887-1.343 11.536-.518 15.485 6.222 1.048 1.789.789 4.219.153 6.563-.533 1.968-1.368 3.996-2.079 5.723l-.416 1.019c-.41 1.012-.605 1.929-.698 2.59l-.038.31c1.427-.582 2.79-1.39 4.039-2.429l26.512-22.083.179-.151h.001c6.47-5.55 7.217-15.296 1.668-21.768l-24.874-29.005-.001-.001c-1.119-1.308-2.238-2.439-3.81-3.381s-3.631-1.714-6.64-2.255l-.441-.082c-.368-.07-.718-.137-1.078-.18h-.001l-3.139-.38a10.29 10.29 0 0 1-.059.809c-.09.828-.304 1.945-.803 3.085s-1.288 2.317-2.528 3.24-2.912 1.576-5.136 1.714c-2.568.159-4.463-.473-5.841-1.555-1.369-1.076-2.18-2.559-2.657-4.023s-.631-2.938-.667-4.038c-.019-.552-.007-1.014.009-1.34 0-.01.001-.02.001-.03l-1.686-.204h0c-.585-.072-1.698-.088-2.754-.084l-1.419.014-.325.005-.498.007h-40.463-.034l-.034-.005-55.057-7.601a15.36 15.36 0 0 0-10.048 2.083c.01.001.02.001.03.002l1.104.041c.872.028 1.942.063 3.078.145 1.695.123 3.591.353 5.344.835 1.747.48 3.401 1.223 4.565 2.405.926.94 2.833 3.033 3.138 6.303.306 3.285-1.013 7.618-6.221 13.019z" stroke="#3c4043" class="F"/><path d="M526.31 244.454c-.99 2.261-1.319 4.757-.948 7.198 1.014 6.843 7.203 11.954 13.935 11.177l-4.308-.076v5.519a8.29 8.29 0 0 0 8.508 8.06 8.29 8.29 0 0 0 8.065-8.299l-.07-18.283" class="D"/><path d="M543.268 277.131l.25-.003c4.967-.137 8.848-4.132 8.841-9.096l-.071-18.285c-.001-.439-.358-.793-.796-.793a.8.8 0 0 0-.797.8l.071 18.283a7.45 7.45 0 0 1-7.285 7.498c-4.13.111-7.583-3.155-7.696-7.284l.001-4.687.336.006a12.55 12.55 0 0 0 3.266.05c.417-.048.725-.411.704-.83s-.362-.751-.782-.758l-3.064-.053c-5.032-.782-9.287-4.979-10.096-10.443-.349-2.299-.041-4.636.89-6.762a.8.8 0 0 0-.41-1.05.8.8 0 0 0-1.05.41 13.84 13.84 0 0 0-1.006 7.638c.814 5.494 4.734 9.853 9.618 11.361v5.14c.135 4.944 4.182 8.858 9.076 8.858zm-7.977-30.02c.38 0 .717-.273.784-.66a.8.8 0 0 0-.648-.922l-2.001-.347 1.074-2.707c.162-.409-.038-.872-.447-1.034s-.872.037-1.034.447l-1.435 3.617c-.089.223-.072.474.045.683a.8.8 0 0 0 .559.396l2.966.516c.046.007.092.011.137.011zm4.006-4.818a1.382 1.382 0 1 1 0-2.763 1.38 1.38 0 0 1 1.381 1.381c0 .763-.619 1.382-1.381 1.382zm-9.959.222a1.381 1.381 0 1 1 0-2.762 1.381 1.381 0 1 1 0 2.762z" class="B"/><path d="M551.259 249.377c.351.062.711.095 1.079.095 3.366 0 6.094-2.729 6.094-6.095s-2.728-6.094-6.094-6.094-6.093 2.728-6.093 6.094" class="D"/><path d="M552.339 250.268a6.9 6.9 0 0 0 6.89-6.891 6.9 6.9 0 0 0-6.89-6.892 6.9 6.9 0 0 0-6.89 6.892c0 .44.356.797.796.797s.797-.357.797-.797c0-2.921 2.376-5.298 5.297-5.298s5.296 2.377 5.296 5.298-2.376 5.298-5.296 5.298a5.34 5.34 0 0 1-.939-.083c-.435-.078-.847.211-.925.644s.211.847.644.924a6.9 6.9 0 0 0 1.22.108zm.248-5.028c.326 0 .632-.202.749-.527.15-.414-.065-.87-.479-1.02l-1.216-.439 2.392-.943c.409-.162.61-.624.448-1.034s-.623-.61-1.033-.449l-4.355 1.718a.8.8 0 0 0-.505.753.8.8 0 0 0 .526.738l3.202 1.156c.09.032.181.047.271.047zm-18.71 10.035c2.045 0 4.182-1.707 4.319-4.975a.8.8 0 0 0-.819-.83l-6.681.191a.8.8 0 0 0-.558.252c-.145.154-.223.361-.215.573.116 3.299 2.064 4.783 3.942 4.789zm2.624-4.185c-.354 1.705-1.512 2.591-2.624 2.591-1.173-.004-2.019-.942-2.281-2.451l4.905-.14zm19.357 58.557a.79.79 0 0 0 .452-.142c.362-.25.453-.746.203-1.108l-7.38-10.689a.8.8 0 0 0-1.108-.203.8.8 0 0 0-.203 1.109l7.38 10.688c.155.224.403.345.656.345zm-38.133-12.417l.084-.004c.438-.046.755-.439.709-.876l-.842-7.964a.8.8 0 0 0-.876-.708c-.438.046-.755.438-.708.876l.841 7.963a.8.8 0 0 0 .792.713z" class="B"/><path d="M550.444 327.094c8.373-.986 16.117 8.106 11.449 15.87-.064.107-.128.21-.192.309-2.177 3.373-3.805 7.137-1.447 12.513 1.665 3.79 4.743 9.209 1.105 10.659-2.523 1.004-6.374-5.187-9.385-9.647 1.232 7.639 2.834 17.645-.584 18.405s-5.256-6.404-6.783-16.32c-.233 11.156 1.185 17.087-2.185 17.43-5.558.56-6.429-22.333-4.61-30.323 0 0 .388-1.913 1.423-8.864 1.06-7.108 6.814-9.514 11.209-10.032z" class="D"/><path d="M542.229 377.119l.273-.013c2.277-.232 2.662-2.477 2.789-3.215.257-1.496.237-3.579.18-6.187 1.079 4.394 2.26 6.794 3.742 7.808.726.496 1.516.653 2.35.468 3.406-.757 3.041-7.112 1.752-15.761 2.558 3.757 5.14 7.133 7.469 7.134a2.32 2.32 0 0 0 .869-.168c.942-.375 1.592-.998 1.933-1.852.896-2.244-.624-5.547-1.965-8.462l-.638-1.405c-2.083-4.75-.952-8.137 1.388-11.761a11.38 11.38 0 0 0 .204-.33c2.141-3.559 2.034-7.669-.292-11.273-2.585-4.005-7.38-6.335-11.932-5.799-3.155.372-10.63 2.159-11.904 10.706l-1.416 8.823c-1.558 6.844-1.219 25.505 2.843 30.103.839.95 1.705 1.184 2.355 1.184zm2.379-19.033c-.017 0-.035 0-.053.002-.412.027-.735.365-.744.778-.065 3.089-.005 5.727.048 8.054.133 5.843.123 8.433-1.517 8.6-.161.017-.651.066-1.274-.64-3.484-3.944-4.119-21.51-2.479-28.713.02-.098.408-2.031 1.435-8.923 1.112-7.46 7.723-9.03 10.514-9.359 3.962-.466 8.144 1.576 10.407 5.081 1.984 3.074 2.081 6.569.265 9.588l-.176.285c-2.267 3.511-4.018 7.547-1.509 13.267l.649 1.432c1.147 2.492 2.575 5.595 1.932 7.204-.177.444-.508.75-1.042.963-1.711.683-5.431-4.876-7.652-8.196l-.777-1.157c-.21-.31-.606-.433-.954-.295s-.553.498-.493.868c.586 3.634 1.316 8.156 1.442 11.683.17 4.75-.812 5.683-1.413 5.817-.396.088-.748.015-1.104-.229-2.345-1.603-3.816-9.576-4.718-15.434-.06-.391-.397-.676-.787-.676z" class="B"/><path d="M416.672 272.263c-4.205-2.042-2.112-2.152-5.733-6.035l-7.661-8.807c-4.92-5.62 2.355-4.806 4.856-3.03l8.495 5.452c6.228.592 9.217.456 15.623 1.948 7.828 1.823 7.103 14.057 3.088 18.53-3.072 3.404-7.881 4.644-12.216 3.15-1.832-.656-3.393-1.447-4.987-2.032l-.045-.016a11.69 11.69 0 0 0-3.904-.812c-.704-.012-1.409.051-2.1.188-1.575.308-3.346 1.012-5.471 2.29-3.542 2.138-8.519 5.886-10.425 2.465-.651-1.166.387-2.882 2.087-4.742l6.592-5.394-10.634 2.325c-4.061.803-7.347.876-8.009-.952-1.192-3.294 6.261-5.192 12.34-7.153-6.528.926-13.819 1.7-14.592-1.599-.755-3.23.703-4.474 8.755-5.935l12.885-1.995" class="D"/><g class="B"><path d="M398.509 287.731c2.192.001 4.839-1.661 7.21-3.148l1.31-.812c1.94-1.167 3.645-1.884 5.211-2.19.638-.126 1.287-.185 1.935-.174 1.236.042 2.46.297 3.624.757.009.004.018.007.027.01l.045.016 2.192.9 2.792 1.131a12.22 12.22 0 0 0 13.076-3.366c2.821-3.143 3.953-9.388 2.524-13.922-1.004-3.188-3.087-5.234-6.023-5.918-4.79-1.116-7.708-1.334-11.402-1.61l-4.134-.338-8.318-5.337c-1.698-1.194-5.823-2.254-7.287-.633-.963 1.066-.496 2.698 1.387 4.849l1.388 1.596-11.458 1.774c-5.683 1.031-8.051 1.944-9.067 3.493-.744 1.135-.573 2.419-.342 3.411.597 2.544 3.836 3.155 8.035 2.987-2.735 1.028-4.889 2.17-5.64 3.688a2.67 2.67 0 0 0-.116 2.167c.977 2.698 5.555 2.127 8.913 1.463l7.402-1.619-4.019 3.289c-.03.025-.058.051-.084.08-1.428 1.562-3.209 3.849-2.195 5.667.493.884 1.195 1.449 2.086 1.677.298.077.609.112.928.112zm15.522-7.919c-.711 0-1.412.069-2.098.205-1.75.343-3.624 1.124-5.727 2.389l-1.333.827c-2.325 1.458-5.218 3.273-6.896 2.843-.464-.119-.81-.408-1.09-.91-.212-.381-.24-1.376 1.941-3.774l6.548-5.357c.285-.234.373-.632.212-.964s-.527-.51-.887-.432l-10.634 2.326c-5.624 1.112-6.857.198-7.09-.445a1.09 1.09 0 0 1 .045-.918c.879-1.775 5.613-3.261 9.791-4.572l2-.633c.393-.127.624-.534.531-.938s-.479-.668-.888-.61c-4.232.6-13.039 1.848-13.704-.992-.24-1.027-.204-1.677.122-2.174.711-1.084 3.028-1.894 7.999-2.795l12.43-1.924 5.034 5.787c.006.007.013.014.019.021 1.419 1.521 1.899 2.401 2.285 3.108.659 1.205 1.09 1.841 3.683 3.1.396.192.872.028 1.065-.369s.027-.872-.369-1.064c-2.249-1.093-2.463-1.485-2.98-2.431-.406-.742-.961-1.759-2.509-3.421l-5.307-6.101c-.005-.005-.009-.01-.014-.015l-2.331-2.681c-1.508-1.723-1.578-2.541-1.405-2.734.575-.636 3.623-.242 5.198.876.01.007.021.014.031.021l8.496 5.452a.81.81 0 0 0 .354.123l4.359.358c3.625.271 6.489.485 11.159 1.573 2.978.693 4.289 3.017 4.865 4.844 1.256 3.988.254 9.656-2.189 12.377a10.62 10.62 0 0 1-11.363 2.929c-.945-.338-1.832-.72-2.69-1.091-.781-.336-1.518-.655-2.283-.935l-.04-.014a12.42 12.42 0 0 0-4.156-.863l-.184-.002z"/><use xlink:href="#B"/></g><path d="M45.27 102.168l2.32 7.673a4.17 4.17 0 0 0 2.785 2.779l7.676 2.324c.501.151.783.679.633 1.179-.092.303-.329.541-.633.632l-7.676 2.324a4.17 4.17 0 0 0-2.785 2.779l-2.32 7.673c-.148.502-.673.789-1.175.641-.309-.09-.55-.332-.641-.641l-2.324-7.673c-.402-1.334-1.446-2.377-2.78-2.779l-7.676-2.324c-.501-.151-.783-.679-.632-1.179.092-.303.329-.541.632-.632l7.676-2.324c1.334-.402 2.378-1.445 2.78-2.779l2.324-7.673c.148-.502.673-.789 1.175-.642a.95.95 0 0 1 .641.642zm144.648-75.637l1.811 5.989c.316 1.041 1.132 1.855 2.173 2.169l5.991 1.813a.74.74 0 0 1 0 1.414l-5.991 1.813c-1.041.314-1.857 1.128-2.173 2.169l-1.811 5.989a.74.74 0 0 1-1.418 0l-1.814-5.989a3.24 3.24 0 0 0-2.17-2.169l-5.991-1.813a.74.74 0 0 1-.493-.921c.071-.236.256-.422.493-.493l5.991-1.813a3.24 3.24 0 0 0 2.17-2.169l1.814-5.989a.74.74 0 0 1 .918-.5c.241.07.429.259.5.5z" class="G"/><path d="M440.374 362.7a5.79 5.79 0 0 0 2.782-.659 6.52 6.52 0 0 1 3.002-.734c1.043 0 2.072.252 3.002.734 1.349.702 2.912.849 4.365.41a5.93 5.93 0 0 0 3.441-2.766c.756-1.337.978-2.92.621-4.419s-1.266-2.803-2.54-3.639c-.937-.642-1.701-1.513-2.222-2.534s-.78-2.159-.756-3.309v-.025c.002-1.153-.322-2.283-.932-3.255a5.95 5.95 0 0 0-2.51-2.227c.349-1.063.581-2.162.692-3.277 1.759.662 3.276 1.857 4.346 3.424a9.45 9.45 0 0 1 1.642 5.34v.037.036a3.63 3.63 0 0 0 .384 1.72 3.55 3.55 0 0 0 1.147 1.323c1.965 1.3 3.365 3.319 3.911 5.64a9.46 9.46 0 0 1-.979 6.833c-1.174 2.066-3.082 3.593-5.33 4.268a9 9 0 0 1-6.751-.644 3.31 3.31 0 0 0-3.057 0c-1.734.906-3.709 1.221-5.632.898l1.374-3.175zm73.257-35.348a3.43 3.43 0 0 0-1.671-.276c-.565.051-1.103.245-1.562.564l-.663.424c-1.529.88-3.302 1.278-5.096 1.144a9.48 9.48 0 0 1-4.992-1.894c-1.461-1.102-2.581-2.598-3.22-4.3s-.769-3.536-.373-5.27c1.355-.637 2.846-.958 4.26-1.461-.853 1.053-1.297 2.387-1.253 3.769a6.12 6.12 0 0 0 1.491 3.793 6.2 6.2 0 0 0 3.54 2.05c1.368.256 2.763.026 3.941-.648l.43-.276.013-.009a6.34 6.34 0 0 1 3.063-1.11c1.109-.099 2.237.086 3.277.54 1.408.612 2.976.668 4.38.157a5.57 5.57 0 0 0 3.16-2.903c.626-1.353.697-2.915.2-4.364s-1.525-2.674-2.871-3.421a7.02 7.02 0 0 1-2.329-2.124c-.606-.875-1.002-1.872-1.156-2.911-.004-.03-.012-.059-.017-.089a19.16 19.16 0 0 1 2.966-1.387 9.15 9.15 0 0 1 .249 1.13c.079.53.28 1.04.589 1.487a3.59 3.59 0 0 0 1.187 1.086 9.67 9.67 0 0 1 4.44 5.296c.768 2.243.656 4.661-.313 6.754s-2.72 3.7-4.892 4.491-4.599.704-6.778-.243v.001zm-62.771 81.282c1.281-.165 2.458-.796 3.305-1.773a5.27 5.27 0 0 0 1.289-3.522 5.9 5.9 0 0 1 .595-2.691 5.91 5.91 0 0 1 1.751-2.127 5.27 5.27 0 0 0 2.024-3.336 5.26 5.26 0 0 0-.826-3.81c-.754-1.117-1.907-1.901-3.222-2.192a5.26 5.26 0 0 0-3.848.632 6 6 0 0 1-2.864.804 5.99 5.99 0 0 1-2.896-.672l-.054-.03-.272-.114c-.241-1.032-.412-2.08-.511-3.136.731.132 1.442.364 2.11.691l.096.052c.458.23.966.342 1.479.328s1.014-.155 1.459-.41a8.14 8.14 0 0 1 5.947-.946c2.029.456 3.806 1.672 4.965 3.399a8.14 8.14 0 0 1 1.268 5.887c-.345 2.052-1.462 3.896-3.123 5.152-.381.287-.688.661-.896 1.09a3 3 0 0 0-.303 1.378 8.16 8.16 0 0 1-1.978 5.441 8.15 8.15 0 0 1-5.089 2.759l-.406-2.854zm127.532-38.61l.55.157a7.23 7.23 0 0 1 3.813 2.752l.381 3.131-.219 4.223c-.004.202.04.403.129.585-.828 1.35-2.078 2.386-3.559 2.949s-3.109.621-4.633.166l-.002-.002c-.014-.003-.027-.007-.04-.011a2.75 2.75 0 0 0-1.363-.051c-.451.097-.869.307-1.216.609-1.365 1.239-3.156 1.902-5.005 1.854a7.26 7.26 0 0 1-4.928-2.114c-1.315-1.309-2.081-3.069-2.139-4.918a7.17 7.17 0 0 1 1.829-5.014 2.64 2.64 0 0 0 .587-1.089 2.65 2.65 0 0 0 .027-1.24 7.18 7.18 0 0 1 .883-5.24 7.14 7.14 0 0 1 4.242-3.182 7.22 7.22 0 0 1 5.29.609 7.28 7.28 0 0 1 3.456 4.069 2.67 2.67 0 0 0 .725 1.12c.332.307.737.524 1.175.632l.017.005zm-.182 2.597l-.446-.128c-.855-.211-1.643-.636-2.292-1.235a5.23 5.23 0 0 1-1.414-2.186 4.71 4.71 0 0 0-2.233-2.626c-1.05-.561-2.272-.701-3.416-.392s-2.123 1.043-2.739 2.053a4.65 4.65 0 0 0-.573 3.383 5.21 5.21 0 0 1-.054 2.43 5.17 5.17 0 0 1-1.151 2.134 4.63 4.63 0 0 0-1.179 3.244 4.69 4.69 0 0 0 1.389 3.178c.853.844 1.995 1.33 3.191 1.358s2.353-.406 3.232-1.21a5.25 5.25 0 0 1 2.336-1.188 5.29 5.29 0 0 1 2.627.083l.011.003.054.015c.587.179 1.202.24 1.811.181a4.64 4.64 0 0 0 1.737-.525c.539-.288 1.014-.68 1.4-1.152a4.6 4.6 0 0 0 .848-1.603c.174-.586.232-1.2.168-1.809a4.71 4.71 0 0 0-.537-1.741 4.7 4.7 0 0 0-1.162-1.408 4.68 4.68 0 0 0-1.608-.859zm-97.219 39.564c.452-.17.853-.452 1.165-.82a2.84 2.84 0 0 0 .62-1.282l.154-.644.013-.042c.45-1.432 1.309-2.702 2.471-3.653a7.71 7.71 0 0 1 4.068-1.701c1.493-.159 2.999.122 4.334.807s2.442 1.746 3.184 3.051l-2.001 2.176a4.98 4.98 0 0 0-1.843-2.444c-.855-.6-1.878-.917-2.923-.904a4.98 4.98 0 0 0-2.9.978 4.97 4.97 0 0 0-1.78 2.489l-.102.425v.002a5.55 5.55 0 0 1-1.214 2.512c-.612.72-1.397 1.272-2.282 1.604a4.99 4.99 0 0 0-2.732 2.497 4.98 4.98 0 0 0 5.78 6.977l.046-.011-2.681 2.798a7.7 7.7 0 0 1-4.329-2.371c-1.145-1.243-1.849-2.828-2.006-4.511a7.72 7.72 0 0 1 1.14-4.804 7.71 7.71 0 0 1 3.818-3.128v-.001zm.96-52.185c1.38-.002 2.73-.411 3.888-1.177s2.072-1.856 2.636-3.14a2.67 2.67 0 0 1 .747-.997c.322-.268.703-.454 1.11-.542 1.792-.385 3.37-1.457 4.409-2.994s1.458-3.422 1.171-5.266-1.257-3.504-2.711-4.639-3.279-1.657-5.1-1.459c-.451.041-.904-.034-1.32-.216s-.78-.467-1.061-.828l-.06-.08c-1.17-1.453-2.845-2.389-4.676-2.611a7.04 7.04 0 0 0-5.147 1.419c-1.471 1.133-2.456 2.802-2.747 4.657s.133 3.755 1.184 5.299l.379.504.008.01a2.69 2.69 0 0 1 .574 1.211 2.72 2.72 0 0 1-.077 1.343c-.343 1.092-.428 2.25-.248 3.381a7.36 7.36 0 0 0 1.279 3.13 7.18 7.18 0 0 0 2.531 2.2 7.04 7.04 0 0 0 3.234.795h-.003zm6.9-17.677a4.56 4.56 0 0 1 3.09 1.204c.849.778 1.384 1.848 1.504 3.004a4.77 4.77 0 0 1-.857 3.257 4.6 4.6 0 0 1-2.776 1.834 5.13 5.13 0 0 0-2.179 1.06c-.634.524-1.136 1.194-1.467 1.954a4.66 4.66 0 0 1-2.447 2.425 4.54 4.54 0 0 1-3.413.046 4.65 4.65 0 0 1-2.509-2.358 4.78 4.78 0 0 1-.233-3.47 5.33 5.33 0 0 0 .153-2.627 5.28 5.28 0 0 0-1.122-2.37l-.254-.34a4.77 4.77 0 0 1-.759-3.41c.186-1.194.817-2.269 1.761-3.001a4.55 4.55 0 0 1 3.307-.932c1.179.134 2.261.727 3.023 1.654l.028.038c.542.715 1.253 1.278 2.066 1.638s1.702.505 2.584.42a4.64 4.64 0 0 1 .5-.026h0z" fill="#eaf6ec"/><path d="M392.57 127.469c-.188-.131-.345-.3-.462-.498a1.61 1.61 0 0 1-.215-.646l-1.388-12.441c-.048-.43.076-.864.345-1.206s.662-.564 1.09-.618a1.61 1.61 0 0 1 1.798 1.42l1.388 12.441a1.65 1.65 0 0 1-.161.914 1.67 1.67 0 0 1-.629.685 1.64 1.64 0 0 1-.894.236 1.61 1.61 0 0 1-.872-.287zm8.644 4.966l-.052-.037a1.61 1.61 0 0 1-.419-.474c-.107-.185-.176-.389-.204-.602s-.013-.428.042-.636a1.66 1.66 0 0 1 .281-.576l6.834-9.038c.13-.172.292-.317.477-.426s.39-.183.601-.213a1.61 1.61 0 0 1 1.204.308c.169.129.312.29.419.474s.176.389.204.602a1.65 1.65 0 0 1-.041.637 1.68 1.68 0 0 1-.281.576l-6.834 9.038a1.65 1.65 0 0 1-1.047.634 1.61 1.61 0 0 1-1.184-.267zm5.894 6.645a1.59 1.59 0 0 1-.556-.685c-.118-.276-.157-.581-.113-.88a1.66 1.66 0 0 1 1.097-1.324l10.671-3.691c.204-.075.42-.108.636-.098a1.61 1.61 0 0 1 .621.156c.194.093.367.225.509.386s.25.351.318.556.094.423.078.639a1.66 1.66 0 0 1-.175.623 1.65 1.65 0 0 1-.4.509c-.165.142-.356.249-.562.317l-10.672 3.691a1.63 1.63 0 0 1-.752.076 1.6 1.6 0 0 1-.7-.275z" class="G"/><path d="M302.807 134.904h76.18c11.522 0 20.902 9.33 20.902 20.897v210.397a20.9 20.9 0 0 1-20.902 20.897h-76.18c-11.522-.048-20.902-9.377-20.902-20.897V155.801c0-11.52 9.38-20.897 20.902-20.897z" class="C"/><path d="M378.939 388h-76.133C290.761 388 281 378.194 281 366.199V155.801c0-12.043 9.761-21.801 21.806-21.801h76.18c11.998 0 21.807 9.758 21.807 21.801v210.398c0 11.995-9.809 21.801-21.854 21.801zm-76.133-252.144c-10.998 0-19.949 8.949-19.949 19.945v210.398c0 10.996 8.951 19.945 19.949 19.945h76.18c10.999 0 19.95-8.949 19.95-19.945V155.801c0-10.996-8.951-19.945-19.95-19.945h-76.18z" class="B"/><path d="M369.322 135.095v.238c.047 5.665-4.524 10.282-10.19 10.377l-36.28.333c-5.666 0-10.332-4.522-10.427-10.234v-.714h56.897z" class="C"/><path d="M322.755 146.948a11.25 11.25 0 0 1-11.236-11.043v-.81a.87.87 0 0 1 .904-.904h56.849c.524 0 .905.381.905.904v.238c.048 6.141-4.952 11.234-11.094 11.282l-36.28.333c.047 0 0 0-.048 0zM313.375 136c.143 5.045 4.286 9.044 9.38 9.044h.095l36.281-.333c4.904-.048 8.903-3.904 9.237-8.711h-54.993zm14.76 5.474c-.476 0-.905-.381-.905-.905s.381-.904.905-.904l25.901-.381c.524-.048.905.381.905.904s-.381.905-.905.905l-25.901.381z" class="B"/><circle cx="340.217" cy="260.255" r="37.616" fill="#eaf6ec"/><path d="M319.733 262.402l12.241 12.378 28.727-29.05" stroke="#28a745" stroke-width="8"/><path d="M299.657 318.084c2.613 0 4.731-2.148 4.731-4.797s-2.118-4.796-4.731-4.796-4.731 2.147-4.731 4.796 2.118 4.797 4.731 4.797z" class="C"/><path d="M299.657 318.575c-1.032 0-2.04-.31-2.898-.891a5.28 5.28 0 0 1-1.921-2.373c-.394-.966-.498-2.029-.296-3.055s.698-1.968 1.427-2.707a5.19 5.19 0 0 1 2.67-1.447c1.012-.204 2.061-.1 3.014.301s1.767 1.077 2.34 1.947a5.34 5.34 0 0 1 .879 2.938c-.001 1.402-.551 2.746-1.529 3.737s-2.303 1.549-3.686 1.55zm0-9.593c-.84 0-1.661.253-2.359.726s-1.243 1.145-1.565 1.932-.405 1.652-.241 2.488.568 1.602 1.162 2.204a4.23 4.23 0 0 0 2.174 1.178c.824.167 1.678.081 2.454-.245s1.439-.877 1.906-1.585.716-1.541.716-2.392c-.002-1.142-.45-2.236-1.246-3.043s-1.875-1.261-3.001-1.263z" class="B"/><path d="M304.661 328.315c2.613 0 4.731-2.147 4.731-4.796s-2.118-4.797-4.731-4.797-4.731 2.148-4.731 4.797 2.118 4.796 4.731 4.796z" class="C"/><path d="M304.661 328.806c-1.032 0-2.04-.31-2.898-.891a5.28 5.28 0 0 1-1.921-2.373c-.394-.966-.498-2.029-.296-3.055a5.3 5.3 0 0 1 1.427-2.707 5.19 5.19 0 0 1 2.67-1.447c1.012-.204 2.061-.1 3.014.3s1.767 1.078 2.34 1.948a5.34 5.34 0 0 1 .879 2.938c-.001 1.402-.551 2.746-1.529 3.737s-2.303 1.549-3.686 1.55zm0-9.593a4.21 4.21 0 0 0-2.36.726c-.698.473-1.242 1.145-1.564 1.932s-.405 1.652-.241 2.488.568 1.602 1.162 2.204a4.23 4.23 0 0 0 2.174 1.178c.824.166 1.678.081 2.454-.245a4.26 4.26 0 0 0 1.906-1.585c.466-.708.715-1.541.715-2.392a4.34 4.34 0 0 0-1.245-3.043 4.22 4.22 0 0 0-3.001-1.263z" class="B"/><path d="M295.214 328.578c2.613 0 4.731-2.148 4.731-4.797s-2.118-4.797-4.731-4.797-4.731 2.148-4.731 4.797 2.119 4.797 4.731 4.797z" class="C"/><path d="M295.215 329.069c-1.031 0-2.039-.31-2.897-.891s-1.526-1.407-1.921-2.373-.498-2.03-.297-3.055a5.31 5.31 0 0 1 1.428-2.708c.729-.739 1.658-1.243 2.67-1.447a5.15 5.15 0 0 1 3.013.301 5.23 5.23 0 0 1 2.341 1.948 5.34 5.34 0 0 1-.65 6.675 5.19 5.19 0 0 1-3.687 1.55zm0-9.593a4.21 4.21 0 0 0-2.359.725 4.3 4.3 0 0 0-1.564 1.933 4.37 4.37 0 0 0-.242 2.487c.164.835.569 1.603 1.163 2.205s1.35 1.012 2.174 1.178 1.678.081 2.454-.245 1.439-.878 1.905-1.586.716-1.54.716-2.392c-.001-1.141-.449-2.235-1.245-3.043s-1.876-1.261-3.002-1.262z" class="B"/><use xlink:href="#C" class="C"/><path d="M304.952 339.464c-1.032 0-2.04-.31-2.898-.891a5.28 5.28 0 0 1-1.921-2.373c-.394-.966-.498-2.03-.296-3.055s.698-1.968 1.427-2.708 1.659-1.243 2.67-1.447 2.061-.099 3.014.301 1.767 1.078 2.34 1.948a5.34 5.34 0 0 1 .879 2.937 5.33 5.33 0 0 1-1.529 3.738c-.978.991-2.303 1.548-3.686 1.55zm0-9.593a4.2 4.2 0 0 0-2.36.726c-.698.473-1.242 1.145-1.564 1.932a4.36 4.36 0 0 0-.241 2.487c.164.835.568 1.603 1.162 2.205a4.23 4.23 0 0 0 2.174 1.178c.824.166 1.678.081 2.454-.245s1.439-.878 1.906-1.586a4.35 4.35 0 0 0 .715-2.392c-.001-1.141-.449-2.235-1.245-3.043a4.22 4.22 0 0 0-3.001-1.262z" class="B"/><use xlink:href="#C" x="-9.462" y="0.246" class="C"/><g class="B"><path d="M295.49 339.71c-1.032 0-2.04-.31-2.898-.891a5.28 5.28 0 0 1-1.921-2.373c-.394-.966-.498-2.029-.296-3.055s.698-1.968 1.427-2.708 1.659-1.243 2.67-1.447 2.061-.099 3.014.301 1.767 1.078 2.34 1.948a5.34 5.34 0 0 1 .879 2.937 5.33 5.33 0 0 1-1.529 3.738c-.978.991-2.303 1.549-3.686 1.55zm0-9.593c-.84 0-1.661.253-2.359.726s-1.243 1.145-1.565 1.932a4.36 4.36 0 0 0-.241 2.487 4.32 4.32 0 0 0 1.162 2.205 4.23 4.23 0 0 0 2.174 1.178c.824.166 1.678.081 2.454-.245s1.439-.878 1.906-1.586a4.35 4.35 0 0 0 .716-2.392c-.002-1.141-.45-2.235-1.246-3.043a4.22 4.22 0 0 0-3.001-1.262z"/><path d="M301.61 386.628c-.126 0-.247-.05-.338-.139s-.143-.211-.146-.339l-1.889-70.593c-.001-.064.01-.128.032-.189s.057-.115.101-.162a.48.48 0 0 1 .685-.019c.093.09.148.213.151.344l1.889 70.592c.001.065-.01.129-.032.189s-.057.116-.101.162a.48.48 0 0 1-.154.111.49.49 0 0 1-.185.043h-.013z"/><path d="M301.759 387.66a.42.42 0 0 0 .307-.069c.09-.062.153-.157.175-.265l9.133-44.76c.023-.11.001-.225-.06-.319a.42.42 0 0 0-.582-.119.43.43 0 0 0-.181.27l-9.133 44.759a.44.44 0 0 0-.002.166c.011.054.032.106.062.153s.069.086.115.117.097.053.151.064l.015.003z"/><path d="M309.621 349.14a.41.41 0 0 0 .205-.017c.066-.023.125-.062.173-.113l3.328-3.62a.43.43 0 0 0 .113-.305c-.004-.112-.052-.218-.134-.295a.41.41 0 0 0-.301-.112.42.42 0 0 0-.292.135l-2.858 3.109-1.413-3.99c-.019-.053-.047-.102-.084-.144s-.081-.076-.132-.1a.42.42 0 0 0-.16-.041.43.43 0 0 0-.163.025.42.42 0 0 0-.141.087c-.042.038-.075.083-.098.134a.42.42 0 0 0-.039.163c-.002.056.007.112.026.164l1.645 4.646a.43.43 0 0 0 .12.177c.054.047.12.08.191.094l.014.003zm-.851 4.189a.42.42 0 0 0 .378-.132l4.819-5.287a.42.42 0 0 0 .113-.305c-.003-.056-.015-.111-.039-.162s-.055-.096-.096-.134a.43.43 0 0 0-.14-.086c-.052-.019-.107-.027-.162-.025a.42.42 0 0 0-.16.04.43.43 0 0 0-.133.099l-4.347 4.768-2.137-6.104a.42.42 0 0 0-.082-.147c-.036-.043-.081-.078-.132-.103a.41.41 0 0 0-.161-.043.41.41 0 0 0-.166.024.43.43 0 0 0-.143.087c-.042.039-.075.085-.098.137a.41.41 0 0 0-.038.165c-.002.057.008.113.028.166l2.37 6.767c.024.069.066.13.12.178a.42.42 0 0 0 .191.095l.015.002zm-.982 4.783a.41.41 0 0 0 .205-.017c.066-.023.125-.062.172-.113l6.239-6.784c.074-.083.113-.192.108-.303s-.052-.216-.133-.292a.41.41 0 0 0-.297-.112.42.42 0 0 0-.291.13l-5.77 6.273-2.849-8.043a.42.42 0 0 0-.083-.143c-.037-.042-.082-.076-.132-.1a.42.42 0 0 0-.16-.041c-.056-.003-.111.005-.163.025a.44.44 0 0 0-.142.086c-.041.038-.074.084-.098.135a.43.43 0 0 0-.038.162c-.003.056.006.112.026.165l3.081 8.698a.42.42 0 0 0 .12.177c.054.047.12.08.19.094l.015.003zm-.938 4.611c.068.011.138.006.204-.017s.125-.062.172-.113l7.371-8.009c.039-.041.069-.089.089-.141a.44.44 0 0 0 .029-.165.43.43 0 0 0-.037-.163c-.023-.052-.056-.098-.097-.136a.41.41 0 0 0-.304-.112.41.41 0 0 0-.161.04.43.43 0 0 0-.133.1l-6.901 7.498-3.415-9.617c-.038-.105-.116-.192-.216-.239a.42.42 0 0 0-.559.204c-.048.102-.054.219-.016.325l3.648 10.271c.025.069.066.129.12.177a.42.42 0 0 0 .191.094zm61.845 23.953a.42.42 0 0 1-.301-.128.44.44 0 0 1-.124-.308v-27.126a.44.44 0 0 1 .124-.309.42.42 0 0 1 .301-.128c.113 0 .222.046.302.128a.44.44 0 0 1 .124.309v27.126a.44.44 0 0 1-.124.308c-.08.082-.189.128-.302.128z"/></g><path d="M372.899 359.23h-8.406c-.685 0-1.342-.279-1.827-.776a2.68 2.68 0 0 1 0-3.745c.485-.497 1.142-.776 1.827-.776h8.406c.339 0 .675.069.988.202s.599.328.839.574a2.66 2.66 0 0 1 .56.859c.13.321.197.666.197 1.014s-.067.692-.197 1.013-.32.614-.56.859-.525.441-.839.575-.649.201-.988.201zm-8.406-3.172c-.135 0-.265.055-.361.153a.53.53 0 0 0 0 .741c.096.098.226.154.361.154h8.406c.135 0 .265-.056.361-.154a.53.53 0 0 0 0-.741c-.096-.098-.226-.153-.361-.153h-8.406z" fill="#7027e5"/><g class="B"><path d="M373.622 369.271c-1.363 0-4.771-2.203-5.156-2.455a.43.43 0 0 1-.144-.158.45.45 0 0 1-.052-.21c0-.073.018-.145.052-.21a.43.43 0 0 1 .144-.158c.385-.251 3.793-2.455 5.156-2.455.731 0 1.432.297 1.948.827s.807 1.247.807 1.996-.29 1.467-.807 1.996-1.217.827-1.948.827zm-4.119-2.823c1.405.871 3.388 1.95 4.119 1.95a1.88 1.88 0 0 0 1.346-.571 1.98 1.98 0 0 0 0-2.758c-.357-.365-.841-.571-1.346-.571-.731 0-2.714 1.08-4.119 1.95z"/><path d="M363.754 369.271c-.73 0-1.431-.297-1.947-.827s-.807-1.247-.807-1.996.29-1.467.807-1.996 1.217-.827 1.947-.827c1.363 0 4.772 2.204 5.156 2.455a.43.43 0 0 1 .145.158c.034.065.052.137.052.21a.45.45 0 0 1-.052.21.43.43 0 0 1-.145.158c-.384.252-3.793 2.455-5.156 2.455zm0-4.773c-.249 0-.497.051-.728.149a1.91 1.91 0 0 0-.617.422c-.177.181-.317.396-.412.633s-.145.49-.145.746a1.98 1.98 0 0 0 .145.746c.095.237.235.452.412.633s.387.325.617.423.479.148.728.148c.732 0 2.715-1.079 4.119-1.95-1.404-.87-3.387-1.95-4.119-1.95z"/></g><path d="M384.264 351.02l-3.692 2.605-2.59-3.701a5.35 5.35 0 0 1-.843-1.911c-.153-.687-.17-1.397-.049-2.09a5.36 5.36 0 0 1 .754-1.951 5.35 5.35 0 0 1 1.441-1.512l3.691-2.605 2.59 3.701a5.34 5.34 0 0 1 .843 1.911c.153.687.17 1.397.049 2.09a5.36 5.36 0 0 1-.754 1.951c-.376.594-.866 1.108-1.44 1.512z" class="C"/><path d="M380.5 354.038c-.109-.019-.206-.081-.269-.172l-2.591-3.701a5.8 5.8 0 0 1-.955-4.314c.263-1.508 1.112-2.851 2.36-3.734l3.691-2.606c.092-.061.203-.084.311-.065a.43.43 0 0 1 .271.167l2.59 3.702a5.74 5.74 0 0 1 .909 2.06 5.8 5.8 0 0 1 .053 2.254 5.79 5.79 0 0 1-.813 2.103c-.406.641-.934 1.195-1.553 1.631l-3.692 2.605c-.09.064-.203.089-.312.07zm2.374-13.6l-3.349 2.364a4.94 4.94 0 0 0-1.328 1.394c-.347.548-.584 1.159-.695 1.798a4.94 4.94 0 0 0 .045 1.927 4.93 4.93 0 0 0 .777 1.761l2.35 3.359 3.35-2.364.001-.001a4.94 4.94 0 0 0 1.327-1.394c.347-.548.583-1.158.695-1.798s.096-1.293-.045-1.926a4.93 4.93 0 0 0-.778-1.761l-2.35-3.359z" class="B"/><path d="M379.671 358.789a2.61 2.61 0 1 0 .899-5.15 2.61 2.61 0 1 0-.899 5.15z" class="C"/><g class="B"><path d="M379.599 359.203c-.588-.103-1.133-.379-1.565-.793s-.733-.947-.863-1.532-.084-1.197.132-1.756.593-1.043 1.082-1.388 1.069-.537 1.667-.552a3.01 3.01 0 0 1 1.689.47c.505.321.903.785 1.144 1.334s.315 1.157.212 1.748a3.04 3.04 0 0 1-1.241 1.959c-.656.463-1.468.646-2.257.51zm.899-5.151a2.18 2.18 0 0 0-1.26.156c-.395.176-.73.465-.962.832a2.2 2.2 0 0 0 .055 2.437 2.18 2.18 0 0 0 2.265.879c.422-.095.807-.314 1.105-.628a2.2 2.2 0 0 0 .573-1.138c.099-.573-.032-1.162-.365-1.638s-.84-.799-1.411-.9z"/><path d="M374.776 386.84a.42.42 0 0 1-.34-.485l6.836-39.164c.019-.11.08-.207.171-.271s.203-.089.312-.07.206.08.27.171a.42.42 0 0 1 .07.314l-6.836 39.164c-.019.109-.081.207-.171.271s-.203.089-.312.07zm8.128-46.573c-.109-.019-.206-.08-.27-.171a.42.42 0 0 1-.069-.314l.62-3.552c.019-.11.081-.208.171-.272s.203-.089.312-.07a.42.42 0 0 1 .34.485l-.62 3.553a.42.42 0 0 1-.172.271c-.091.064-.203.089-.312.07z"/><path d="M382.904 340.267a.41.41 0 0 1-.212-.105.42.42 0 0 1-.121-.205l-.875-3.488a.42.42 0 0 1 .304-.505.42.42 0 0 1 .506.3l.875 3.487c.017.068.017.139 0 .207s-.051.13-.099.181a.41.41 0 0 1-.378.128z"/><path d="M382.903 340.267c-.068-.012-.133-.041-.188-.084a.43.43 0 0 1-.124-.165c-.027-.065-.038-.135-.031-.205s.031-.136.07-.194l2.019-2.983c.062-.092.158-.155.267-.176s.222.002.313.064a.42.42 0 0 1 .111.583l-2.019 2.982a.41.41 0 0 1-.418.178z"/></g><defs ><path id="B" d="M454.79 433.107a.83.83 0 0 0 .121-.009l47.452-7.22a.8.8 0 0 0 .543-.345c.124-.187.164-.417.111-.634l-13.78-55.734 36.512-13.744c.412-.155.62-.615.465-1.027s-.614-.62-1.026-.465l-37.174 13.992a.8.8 0 0 0-.494.938l13.74 55.575-45.868 6.979-16.855-69.094-.012-.045c-2.278-9.824 1.998-19.877 10.653-25.046l70.108-29.375c.406-.17.597-.637.427-1.043s-.636-.597-1.042-.427l-70.16 29.396a.92.92 0 0 0-.099.05c-9.303 5.527-13.895 16.32-11.427 26.858.005.02.01.041.016.06l17.016 69.752c.088.361.412.608.773.608z"/><path id="C" d="M304.953 338.973c2.613 0 4.731-2.148 4.731-4.797s-2.118-4.797-4.731-4.797-4.731 2.148-4.731 4.797 2.118 4.797 4.731 4.797z"/></defs></svg>