<svg width="135" height="163" viewBox="0 0 135 163" fill="none" xmlns="http://www.w3.org/2000/svg">
<path d="M0.761752 76.7277L107.18 5.03662L116.337 21.0619L104.891 116.298L0.761752 76.7277Z" fill="#FFED96"/>
<path d="M48.9425 91.6476C48.9425 91.6476 35.8561 106.325 33.4736 107.194C30.8098 108.167 28.7445 108.454 27.7076 112.808C27.2443 114.772 26.851 117.776 24.9993 117.27C23.7257 116.914 24.0474 113.376 24.1916 110.764C22.4217 114.089 20.1042 118.457 18.559 117.743C17.0137 117.03 18.3993 113.706 20.7191 109.409C17.3519 113.677 16.1541 116.396 14.7431 115.538C13.2815 114.649 15.2622 110.704 17.693 107.258L20.5891 103.639C20.9882 103.201 21.4131 102.787 21.8616 102.4C23.8091 100.761 25.6397 99.0225 27.7708 97.4937C27.8336 97.416 27.8987 97.3393 27.9662 97.2635L38.9609 83.5661C39.1538 83.3508 39.3607 83.1485 39.5802 82.9604L48.9425 91.6476Z" fill="#FFF1ED"/>
<path d="M18.9058 118.21C18.7299 118.209 18.5562 118.171 18.3969 118.096C18.2135 118.013 18.0498 117.893 17.9167 117.742C17.7836 117.591 17.6841 117.414 17.6248 117.221C17.3479 116.39 17.5926 115.112 18.4599 113.096C17.7189 114.12 17.1158 114.933 16.5775 115.437C16.3101 115.688 15.4972 116.45 14.5424 115.87C14.3743 115.766 14.2303 115.627 14.12 115.463C14.0097 115.299 13.9357 115.113 13.9028 114.918C13.4745 112.855 16.1894 108.717 17.3766 107.034C17.3811 107.028 17.3859 107.021 17.3907 107.015L20.2861 103.397C20.292 103.39 20.2981 103.383 20.3046 103.376C20.7143 102.926 21.1507 102.501 21.6115 102.103C22.1905 101.616 22.7704 101.11 23.3311 100.621C24.6479 99.4716 26.0086 98.2838 27.5021 97.2086C27.5564 97.1424 27.6125 97.077 27.6702 97.0124L38.6582 83.3231C38.6626 83.3175 38.6672 83.3121 38.6719 83.3068C38.8763 83.0789 39.0954 82.8647 39.3277 82.6656C39.4001 82.6036 39.4926 82.5705 39.5878 82.5723C39.683 82.5742 39.7742 82.611 39.844 82.6758L49.2073 91.3629C49.282 91.432 49.3265 91.5277 49.3314 91.6293C49.3362 91.731 49.301 91.8304 49.2332 91.9063C47.8871 93.416 36.0124 106.681 33.6078 107.559C33.3466 107.655 33.0914 107.743 32.8422 107.83C30.596 108.611 28.9731 109.175 28.0862 112.899C28.0324 113.127 27.9791 113.371 27.9247 113.621C27.5916 115.148 27.2143 116.878 26.2043 117.49C26.0098 117.606 25.7929 117.68 25.5679 117.706C25.3429 117.733 25.1148 117.712 24.8985 117.644C23.6135 117.285 23.5811 114.982 23.7065 112.495C22.1118 115.428 20.4104 118.209 18.9058 118.21ZM20.7205 109.021C20.7877 109.021 20.8538 109.038 20.9122 109.071C20.9706 109.104 21.0194 109.152 21.0538 109.21C21.0882 109.268 21.107 109.333 21.1084 109.401C21.1098 109.468 21.0937 109.534 21.0618 109.593C19.6918 112.13 17.9213 115.655 18.3612 116.976C18.3875 117.067 18.4334 117.152 18.4957 117.223C18.5581 117.295 18.6353 117.352 18.7221 117.391C18.9915 117.516 19.6405 117.443 20.9639 115.56C21.9404 114.169 22.9452 112.282 23.8319 110.616L23.8496 110.582C23.8912 110.504 23.9581 110.442 24.0394 110.408C24.1207 110.373 24.2114 110.367 24.2966 110.391C24.3818 110.414 24.4563 110.467 24.5078 110.538C24.5592 110.61 24.5846 110.698 24.5797 110.786C24.5682 110.996 24.5555 111.211 24.5424 111.431C24.4271 113.385 24.2342 116.653 25.1043 116.896C25.2187 116.935 25.3401 116.949 25.4604 116.937C25.5806 116.925 25.6969 116.887 25.8011 116.826C26.5264 116.386 26.8808 114.761 27.1656 113.456C27.2213 113.201 27.2753 112.953 27.3304 112.72C28.316 108.581 30.2951 107.893 32.5867 107.097C32.8325 107.011 33.0839 106.924 33.3411 106.83C35.1778 106.16 44.5945 95.9273 48.3999 91.6733L39.5766 83.4871C39.4661 83.5932 39.3589 83.7037 39.2563 83.8177L28.2687 97.5067C28.2642 97.5122 28.2597 97.5176 28.2549 97.5228C28.192 97.5932 28.1314 97.6647 28.0729 97.7374C28.051 97.7647 28.0254 97.7888 27.997 97.8092C26.5173 98.8701 25.157 100.058 23.8414 101.206C23.2782 101.698 22.6957 102.206 22.1113 102.698C21.6782 103.071 21.2679 103.47 20.8825 103.892L18.0034 107.491C15.7269 110.721 14.4157 113.573 14.6621 114.76C14.6741 114.85 14.7056 114.937 14.7545 115.014C14.8034 115.091 14.8684 115.157 14.9451 115.207C15.6353 115.626 16.4053 114.616 18.0812 112.294C18.7409 111.379 19.4893 110.342 20.415 109.168C20.4514 109.122 20.4978 109.085 20.5508 109.059C20.6037 109.034 20.6617 109.02 20.7205 109.021Z" fill="#3C4043"/>
<path d="M54.5006 59.8463C54.1439 59.6528 53.8333 59.3843 53.5903 59.0592C53.3474 58.7342 53.1777 58.3603 53.093 57.9634C53.0084 57.5665 53.0107 57.1559 53.1 56.76C53.1892 56.364 53.3631 55.9921 53.6099 55.6699L55.2818 57.3627L54.5006 59.8463Z" fill="#FFF1ED"/>
<path d="M54.5004 60.2339C54.4357 60.234 54.372 60.2178 54.3151 60.1868C53.909 59.9667 53.5555 59.6611 53.2789 59.2911C53.0023 58.9211 52.8091 58.4955 52.7128 58.0437C52.6165 57.5918 52.6193 57.1245 52.721 56.6738C52.8226 56.2231 53.0208 55.7999 53.3018 55.4332C53.3356 55.3893 53.3784 55.3531 53.4274 55.3271C53.4763 55.3011 53.5303 55.2859 53.5856 55.2825C53.6409 55.2791 53.6963 55.2876 53.7481 55.3074C53.7999 55.3272 53.8468 55.3579 53.8857 55.3974L55.5577 57.09C55.6073 57.1402 55.6422 57.203 55.6588 57.2716C55.6754 57.3402 55.673 57.412 55.6518 57.4793L54.8704 59.9634C54.8457 60.0422 54.7964 60.111 54.7299 60.1598C54.6633 60.2087 54.5829 60.2351 54.5004 60.2351V60.2339ZM53.6761 56.289C53.4315 56.7768 53.3587 57.3329 53.4694 57.8673C53.5801 58.4016 53.8679 58.8829 54.2862 59.2333L54.8418 57.4687L53.6761 56.289Z" fill="#3C4043"/>
<path d="M80.1423 86.8237C80.0628 86.8238 79.9852 86.7994 79.92 86.7539C79.8547 86.7084 79.805 86.644 79.7777 86.5693C79.7503 86.4946 79.7465 86.4133 79.7668 86.3364C79.7871 86.2595 79.8306 86.1907 79.8913 86.1393L86.4622 80.576C86.5011 80.5427 86.5461 80.5174 86.5948 80.5015C86.6434 80.4857 86.6948 80.4796 86.7458 80.4836C86.7968 80.4877 86.8465 80.5018 86.892 80.5252C86.9376 80.5485 86.9781 80.5807 87.0111 80.6197C87.0442 80.6588 87.0692 80.704 87.0847 80.7528C87.1003 80.8016 87.106 80.853 87.1016 80.904C87.0972 80.955 87.0827 81.0046 87.0591 81.05C87.0354 81.0954 87.003 81.1356 86.9637 81.1685L80.3928 86.7317C80.3228 86.7912 80.2341 86.8238 80.1423 86.8237Z" fill="#3C4043"/>
<path d="M51.2356 89.71C51.1395 89.7101 51.0467 89.6744 50.9755 89.6098L44.5906 83.8337C44.5528 83.7995 44.5221 83.7582 44.5003 83.7121C44.4785 83.666 44.4659 83.6161 44.4634 83.5652C44.4608 83.5143 44.4683 83.4634 44.4855 83.4154C44.5026 83.3674 44.529 83.3232 44.5632 83.2854C44.5974 83.2476 44.6387 83.2169 44.6848 83.1951C44.7308 83.1733 44.7807 83.1607 44.8316 83.1582C44.8825 83.1557 44.9334 83.1632 44.9814 83.1803C45.0294 83.1974 45.0735 83.2239 45.1113 83.2581L51.4962 89.034C51.5543 89.0867 51.5952 89.1557 51.6134 89.232C51.6315 89.3083 51.6262 89.3883 51.5979 89.4615C51.5697 89.5347 51.52 89.5976 51.4553 89.642C51.3907 89.6864 51.3141 89.7101 51.2356 89.71Z" fill="#3C4043"/>
<path d="M4.59061 148.585L4.59056 148.585C4.58948 148.588 4.58962 148.591 4.59096 148.594C4.59229 148.597 4.5947 148.6 4.59768 148.601L4.59061 148.585ZM4.59061 148.585C5.04531 147.263 6.02544 146.31 7.24091 145.66C8.45918 145.009 9.89588 144.675 11.2119 144.591L11.212 144.591C12.131 144.532 13.5524 144.584 14.9576 144.635L14.9577 144.635C16.065 144.676 17.131 144.715 17.8736 144.695L17.8738 144.695C18.7125 144.671 19.9049 144.586 21.1026 144.322C22.2091 144.078 23.3559 143.674 24.2289 142.996C24.3302 143.056 24.4663 143.141 24.6348 143.25C25.0328 143.505 25.595 143.88 26.2677 144.337C27.6124 145.249 29.3905 146.481 31.1618 147.724C32.933 148.968 34.6957 150.221 36.0095 151.175C36.6668 151.653 37.2097 152.054 37.5847 152.341C37.7349 152.455 37.8555 152.55 37.9448 152.623M4.59061 148.585L4.59772 148.601L34.115 161.423C34.1168 161.423 34.1187 161.424 34.1205 161.424L34.1204 161.799M34.1204 161.799L34.1203 161.424C34.1215 161.424 34.1228 161.423 34.1239 161.423C34.1252 161.423 34.1263 161.422 34.1274 161.422L34.3335 161.735L34.1274 161.422C34.1295 161.42 34.1312 161.418 34.1322 161.416L34.1325 161.415L37.9448 152.623M34.1204 161.799C34.0672 161.799 34.0146 161.788 33.9659 161.767L34.1204 161.799ZM37.9448 152.623C37.9675 152.642 37.9881 152.659 38.0067 152.674C38.0539 152.714 38.0808 152.739 38.0928 152.751C38.1005 152.759 38.0925 152.752 38.0804 152.735C38.0751 152.727 38.0573 152.702 38.0423 152.663C38.0325 152.638 37.9891 152.522 38.0478 152.386M37.9448 152.623L38.0478 152.386M38.0478 152.386L38.0483 152.385L38.0483 152.385C38.0481 152.385 38.048 152.385 38.0478 152.386ZM38.3923 152.534L34.4765 161.564L38.3923 152.534Z" fill="#E7F1FF" stroke="#3C4043" stroke-width="0.75"/>
<path d="M70.7189 149.682H70.7189L70.7189 149.682C70.7189 149.678 70.7203 149.675 70.7227 149.672C70.7251 149.67 70.7284 149.669 70.7318 149.669L87.9957 149.476H87.9978H88.0001C88.0028 149.476 88.0055 149.476 88.0077 149.478C88.0099 149.48 88.0116 149.482 88.0125 149.485C88.4843 150.949 89.1002 152.229 89.7929 153.216C90.4801 154.194 91.2688 154.92 92.1005 155.214C95.0041 156.243 96.6706 158.531 96.5886 161.22C96.3998 161.23 96.13 161.238 95.788 161.247C95.0621 161.264 94.0239 161.278 92.7763 161.287C90.2817 161.307 86.9562 161.312 83.6306 161.304C80.3049 161.296 76.9805 161.275 74.488 161.243C73.2414 161.226 72.2047 161.207 71.4805 161.186C71.1505 161.176 70.8883 161.166 70.7017 161.155L70.7189 149.682Z" fill="#E7F1FF" stroke="#3C4043" stroke-width="0.75"/>
<path d="M51.2361 89.3215C51.3103 89.3857 51.3708 89.4643 51.414 89.5525C51.4572 89.6407 51.4822 89.7366 51.4874 89.8347C51.4926 89.9327 51.4781 90.0308 51.4445 90.1231C51.411 90.2154 51.3592 90.3 51.2922 90.3718L49.9493 91.8552C49.8851 91.9295 49.8065 91.99 49.7183 92.0332C49.6302 92.0764 49.5342 92.1013 49.4362 92.1066C49.3381 92.1118 49.24 92.0972 49.1478 92.0637C49.0555 92.0301 48.9709 91.9783 48.8991 91.9114L38.9322 82.885C38.7878 82.7518 38.701 82.5675 38.6905 82.3712C38.68 82.175 38.7466 81.9824 38.8761 81.8346L40.219 80.3513C40.2832 80.277 40.3618 80.2165 40.4499 80.1733C40.5381 80.1301 40.6341 80.1051 40.7321 80.0998C40.8301 80.0946 40.9282 80.1092 41.0205 80.1427C41.1127 80.1763 41.1973 80.2281 41.2691 80.2951L41.5707 80.521L53.9365 70.4836C54.598 69.9403 55.3348 69.4961 56.124 69.1647C56.3913 69.0529 56.6393 68.9595 56.821 68.9046L57.9464 68.5553L60.1042 67.8825L67.2469 65.6563L69.2776 65.0231L71.1403 64.4409C71.5972 64.3129 72.0648 64.2263 72.5373 64.1822C74.3271 64.0043 76.1664 65.0102 77.3232 66.0711L90.4004 77.7411C90.4744 77.6765 90.5606 77.6275 90.6539 77.597C90.7472 77.5665 90.8457 77.5551 90.9435 77.5636C91.0413 77.572 91.1364 77.6001 91.2231 77.6462C91.3098 77.6922 91.3864 77.7553 91.4482 77.8316L92.7417 79.3583C92.8662 79.5103 92.9264 79.7049 92.9095 79.9007C92.8926 80.0965 92.7999 80.2779 92.6511 80.4063L82.3937 89.1005C82.3197 89.1651 82.2335 89.2141 82.1402 89.2446C82.0469 89.2751 81.9484 89.2864 81.8506 89.278C81.7528 89.2695 81.6577 89.2414 81.571 89.1954C81.4843 89.1493 81.4077 89.0862 81.346 89.0099L80.0525 87.4833L80.3241 91.0671L53.8592 92.0356L53.3418 88.9305L53.4711 87.2486L51.2361 89.3215Z" fill="#FFFBEA"/>
<path d="M49.3923 92.4956C49.1103 92.4958 48.8389 92.3881 48.6338 92.1946L38.6719 83.1725C38.4534 82.9695 38.3223 82.6895 38.3063 82.3916C38.2904 82.0938 38.3908 81.8014 38.5864 81.5762L39.9316 80.0904C40.0319 79.9772 40.1539 79.8853 40.2903 79.8202C40.4268 79.7551 40.575 79.7181 40.726 79.7113C40.8701 79.7045 41.0141 79.7261 41.1499 79.7749C41.2856 79.8237 41.4103 79.8989 41.517 79.996L41.5611 80.029L53.6921 70.1822C54.3823 69.6156 55.1511 69.1522 55.9746 68.8067C56.1776 68.7218 56.4698 68.6053 56.7089 68.5332L59.9888 67.5122L71.0244 64.0708C71.5067 63.9352 72.0002 63.8433 72.499 63.7962C74.4392 63.6032 76.3987 64.6972 77.5855 65.7853L90.4445 77.2612C90.6077 77.1917 90.7852 77.1627 90.9619 77.1766C91.113 77.1883 91.2601 77.2304 91.3946 77.3002C91.5291 77.37 91.6482 77.4662 91.7448 77.5829L93.0372 79.1083C93.2259 79.3388 93.3177 79.6336 93.2933 79.9304C93.2689 80.2273 93.1301 80.5031 92.9063 80.6997L82.6444 89.3964C82.5337 89.4932 82.4047 89.5669 82.2652 89.6132C82.1256 89.6594 81.9781 89.6773 81.8315 89.6657C81.6804 89.654 81.5331 89.612 81.3985 89.5422C81.264 89.4724 81.1448 89.3762 81.0482 89.2593L80.5296 88.6474L80.7107 91.038C80.7147 91.0901 80.7081 91.1425 80.6913 91.192C80.6745 91.2415 80.648 91.287 80.6132 91.326C80.5784 91.365 80.5361 91.3965 80.4888 91.4187C80.4415 91.4409 80.3903 91.4534 80.3381 91.4553L53.8731 92.4238C53.7789 92.4277 53.6865 92.397 53.6134 92.3374C53.5403 92.2778 53.4915 92.1935 53.4763 92.1004L52.9589 88.9953C52.9537 88.9644 52.9523 88.933 52.9546 88.9017L53.0079 88.2081L51.7549 89.3702C51.8275 89.513 51.8686 89.6696 51.8755 89.8297C51.8821 89.9776 51.859 90.1254 51.8075 90.2642C51.7559 90.403 51.677 90.53 51.5754 90.6377L50.2371 92.1154C50.1368 92.2286 50.0147 92.3205 49.8782 92.3857C49.7416 92.4508 49.5934 92.4878 49.4423 92.4946C49.4253 92.4954 49.4093 92.4956 49.3923 92.4956ZM40.7748 80.4864C40.7699 80.4864 40.7651 80.4864 40.7602 80.4864C40.712 80.4891 40.6649 80.5013 40.6215 80.5225C40.5782 80.5437 40.5396 80.5734 40.508 80.6099L39.1638 82.0945C39.103 82.1669 39.0726 82.26 39.0789 82.3544C39.0852 82.4487 39.1276 82.537 39.1974 82.6008L49.1594 91.6231C49.1922 91.655 49.2311 91.6799 49.2738 91.6964C49.3165 91.7128 49.3621 91.7205 49.4079 91.7188C49.4561 91.7162 49.5032 91.7039 49.5466 91.6827C49.59 91.6615 49.6287 91.6318 49.6604 91.5954L51.0043 90.1108C51.0363 90.078 51.0612 90.039 51.0777 89.9963C51.0941 89.9535 51.1017 89.9079 51.1 89.8621C51.0974 89.8139 51.0851 89.7667 51.0639 89.7234C51.0427 89.68 51.013 89.6414 50.9766 89.6097C50.9365 89.5737 50.9043 89.5296 50.8821 89.4804C50.8599 89.4313 50.8482 89.378 50.8478 89.324C50.8474 89.2701 50.8582 89.2166 50.8796 89.1671C50.9009 89.1175 50.9324 89.073 50.972 89.0363L53.207 86.9635C53.2642 86.9104 53.3361 86.8758 53.4133 86.8642C53.4905 86.8526 53.5694 86.8645 53.6397 86.8985C53.71 86.9324 53.7685 86.9868 53.8074 87.0545C53.8463 87.1222 53.8639 87.2001 53.8579 87.2779L53.7322 88.9129L54.1856 91.6347L79.9064 90.6935L79.6715 87.5935L79.6235 87.5036C79.5751 87.4127 79.5648 87.3064 79.5948 87.2079C79.6248 87.1094 79.6926 87.0269 79.7835 86.9785C79.8743 86.9301 79.9806 86.9197 80.0791 86.9497C80.1775 86.9797 80.26 87.0476 80.3084 87.1384L80.3752 87.2636L81.6419 88.7585C81.6723 88.7963 81.7101 88.8275 81.7529 88.8504C81.7956 88.8732 81.8426 88.8872 81.8909 88.8914C81.9356 88.8947 81.9804 88.889 82.0229 88.8747C82.0653 88.8604 82.1044 88.8377 82.138 88.8079L92.4 80.1097C92.4706 80.0475 92.5145 79.9604 92.5225 79.8666C92.5306 79.7729 92.5022 79.6796 92.4432 79.6063L91.1518 78.0821C91.1214 78.0443 91.0836 78.0131 91.0408 77.9902C90.998 77.9674 90.951 77.9534 90.9027 77.9492C90.858 77.9457 90.8131 77.9513 90.7707 77.9657C90.7283 77.98 90.6892 78.0028 90.6558 78.0326C90.5845 78.095 90.493 78.1292 90.3983 78.1287C90.3037 78.1283 90.2125 78.0932 90.1418 78.0302L77.0646 66.3602C75.9977 65.3821 74.2599 64.4004 72.5754 64.568C72.1284 64.6105 71.686 64.6921 71.2532 64.8117L56.9361 69.2753C56.7713 69.3251 56.5372 69.4127 56.2736 69.5228C55.5191 69.8396 54.8146 70.2644 54.1823 70.7838L41.8152 80.8223C41.748 80.8768 41.6646 80.9073 41.5782 80.909C41.4917 80.9107 41.4072 80.8835 41.338 80.8316L41.0365 80.6057C41.0252 80.5973 41.0145 80.5883 41.0042 80.5787C40.9423 80.5198 40.8602 80.4868 40.7748 80.4864Z" fill="#3C4043"/>
<path d="M63.7158 73.4068C62.3113 73.4067 60.9467 72.9396 59.8368 72.0788C58.7268 71.218 57.9345 70.0125 57.5846 68.652C57.5589 68.5524 57.5738 68.4465 57.6261 68.3578C57.6784 68.2691 57.7637 68.2048 57.8634 68.1791C57.9631 68.1534 58.0689 68.1683 58.1576 68.2206C58.2462 68.2729 58.3105 68.3583 58.3362 68.458C58.6728 69.7669 59.4751 70.9081 60.5928 71.6678C61.7104 72.4274 63.0667 72.7532 64.4073 72.5842C65.7479 72.4152 66.9809 71.7629 67.8752 70.7497C68.7694 69.7364 69.2635 68.4318 69.2648 67.0802C69.264 66.4235 69.1493 65.772 68.9257 65.1546C68.8914 65.0578 68.8968 64.9515 68.9407 64.8588C68.9846 64.766 69.0634 64.6944 69.16 64.6597C69.2565 64.6249 69.3628 64.6298 69.4558 64.6732C69.5487 64.7167 69.6206 64.7952 69.6559 64.8915C69.9099 65.5933 70.0402 66.3339 70.0409 67.0802C70.0391 68.7576 69.3721 70.3657 68.1863 71.5517C67.0005 72.7378 65.3927 73.405 63.7158 73.4068Z" fill="#3C4043"/>
<path d="M67.299 65.839L65.5011 59.4329L66.7946 58.3979L63.1728 50.7646L55.0237 50.1177L54.9213 57.2094C54.5923 57.9811 54.4441 58.8178 54.488 59.6556C54.5319 60.4933 54.7668 61.31 55.1747 62.043C55.5826 62.776 56.1526 63.4061 56.8413 63.8849C57.53 64.3638 58.319 64.6787 59.1481 64.8058L60.133 67.9737C60.4161 68.9242 61.065 69.7233 61.9371 70.1952C62.3689 70.4289 62.8425 70.5752 63.3308 70.6258C63.8191 70.6764 64.3126 70.6303 64.7832 70.4901C65.2537 70.35 65.692 70.1185 66.0731 69.8089C66.4542 69.4993 66.7705 69.1176 67.0042 68.6857C67.2378 68.2538 67.3841 67.7801 67.4347 67.2917C67.4852 66.8032 67.4392 66.3096 67.299 65.839Z" fill="#FFF1ED"/>
<path d="M63.7101 70.986C62.829 70.9873 61.9706 70.7067 61.2602 70.1853C60.5498 69.6639 60.0248 68.929 59.7617 68.0879L58.8473 65.1475C57.511 64.8788 56.3083 64.1572 55.442 63.1047C54.5757 62.0521 54.0988 60.7329 54.0918 59.3696C54.0904 58.6008 54.2405 57.8392 54.5337 57.1285L54.6352 50.1116C54.636 50.0585 54.6476 50.0062 54.6694 49.9578C54.6912 49.9093 54.7227 49.8659 54.7619 49.8302C54.8012 49.7944 54.8473 49.7671 54.8976 49.7499C54.9478 49.7327 55.001 49.726 55.0539 49.7302L63.2029 50.3771C63.2709 50.3825 63.3363 50.4058 63.3924 50.4445C63.4485 50.4832 63.4935 50.5361 63.5227 50.5977L67.1445 58.231C67.182 58.31 67.1917 58.3994 67.1721 58.4846C67.1525 58.5698 67.1047 58.6459 67.0365 58.7006L65.9435 59.575L67.6718 65.7325C67.9716 66.7682 67.8521 67.8802 67.3393 68.8286C66.8266 69.777 65.9615 70.4857 64.9309 70.8017C64.5354 70.9236 64.124 70.9857 63.7101 70.986ZM55.4059 50.537L55.3094 57.215C55.3086 57.2657 55.2979 57.3156 55.2779 57.3621C55.0063 57.9965 54.8668 58.6795 54.8679 59.3696C54.8738 60.5896 55.3134 61.7678 56.1081 62.6934C56.9028 63.619 58.0008 64.2317 59.2056 64.4219C59.2777 64.4329 59.3451 64.4638 59.4004 64.5113C59.4556 64.5588 59.4964 64.6208 59.518 64.6904L60.503 67.8578C60.7567 68.7097 61.3382 69.4258 62.1198 69.8488C62.9013 70.2717 63.8188 70.3668 64.6705 70.1131C65.5221 69.8594 66.2381 69.2777 66.661 68.496C67.0838 67.7143 67.1789 66.7966 66.9252 65.9447V65.9433L65.1269 59.5378C65.1063 59.4644 65.1077 59.3865 65.1311 59.314C65.1544 59.2414 65.1986 59.1773 65.2582 59.1297L66.3117 58.2867L62.9178 51.1333L55.4059 50.537Z" fill="#3C4043"/>
<path d="M57.1439 57.4418C57.0831 57.4418 57.0231 57.4275 56.9689 57.4001C56.9146 57.3726 56.8675 57.3328 56.8315 57.2838C56.7954 57.2349 56.7713 57.1781 56.7612 57.1181C56.7511 57.0581 56.7553 56.9966 56.7733 56.9385L57.6529 54.1051C57.668 54.0564 57.6926 54.0112 57.7251 53.972C57.7577 53.9328 57.7977 53.9004 57.8428 53.8767C57.8879 53.853 57.9373 53.8383 57.988 53.8337C58.0388 53.829 58.0899 53.8344 58.1386 53.8495C58.1873 53.8646 58.2325 53.8891 58.2717 53.9217C58.3109 53.9543 58.3433 53.9943 58.367 54.0394C58.3907 54.0846 58.4054 54.1339 58.41 54.1847C58.4147 54.2354 58.4093 54.2866 58.3942 54.3353L57.6764 56.6476L58.6833 56.6139H58.6962C58.7992 56.6122 58.8985 56.6514 58.9725 56.723C59.0465 56.7946 59.089 56.8926 59.0908 56.9956C59.0925 57.0985 59.0532 57.1979 58.9817 57.2719C58.9101 57.3459 58.8121 57.3885 58.7092 57.3902L57.157 57.4419L57.1439 57.4418Z" fill="#3C4043"/>
<path d="M58.0974 61.2375C57.2915 61.2375 56.4418 60.6487 56.2179 59.2634C56.2097 59.2129 56.2116 59.1613 56.2235 59.1115C56.2353 59.0618 56.2569 59.0148 56.2869 58.9734C56.317 58.932 56.3549 58.897 56.3986 58.8703C56.4422 58.8436 56.4907 58.8258 56.5412 58.818L59.5551 58.3522C59.6078 58.3441 59.6616 58.3469 59.7131 58.3605C59.7647 58.374 59.8129 58.3981 59.8547 58.4311C59.8966 58.4642 59.9312 58.5055 59.9564 58.5525C59.9815 58.5995 59.9968 58.6512 60.0011 58.7044C60.1216 60.1931 59.2127 61.1144 58.2963 61.2254C58.2303 61.2335 58.1639 61.2375 58.0974 61.2375ZM57.0739 59.5211C57.2775 60.1582 57.6971 60.5159 58.2034 60.4549C58.6909 60.3957 59.152 59.9493 59.2261 59.1885L57.0739 59.5211Z" fill="#3C4043"/>
<path d="M69.5389 109.899L39.2813 153.249L21.25 140.659L52.4362 96.0469L53.0829 95.1412L63.8076 94.5291L81.0483 93.6421L91.4739 118.444C91.6671 119.254 91.7711 120.083 91.7843 120.915L92.1077 149.443L70.1053 149.689L69.7949 122.416L66.5375 114.198" fill="white"/>
<path d="M39.2822 153.637C39.2029 153.637 39.1255 153.612 39.0606 153.567L21.0293 140.977C20.9875 140.948 20.9518 140.911 20.9243 140.868C20.8969 140.825 20.8782 140.777 20.8693 140.727C20.8603 140.676 20.8614 140.625 20.8724 140.575C20.8834 140.525 20.9041 140.478 20.9333 140.436L52.1195 95.8239L52.7684 94.915C52.8022 94.8678 52.8461 94.8287 52.8969 94.8007C52.9478 94.7727 53.0042 94.7564 53.0622 94.7531L63.7869 94.141L81.0292 93.2539C81.1089 93.2499 81.1879 93.2706 81.2554 93.313C81.323 93.3555 81.3759 93.4177 81.4069 93.4912L91.8325 118.293C91.8407 118.313 91.8473 118.333 91.8522 118.354C92.0516 119.191 92.1592 120.048 92.1732 120.908L92.4966 149.438C92.4972 149.489 92.4877 149.54 92.4687 149.587C92.4497 149.634 92.4216 149.678 92.386 149.714C92.3503 149.75 92.3079 149.779 92.261 149.799C92.2141 149.819 92.1638 149.83 92.1128 149.831L70.1105 150.076H70.1062C70.004 150.076 69.906 150.036 69.8333 149.964C69.7607 149.892 69.7193 149.795 69.7181 149.693L69.4087 122.492L66.4436 115.012L39.6004 153.471C39.5646 153.522 39.517 153.564 39.4616 153.593C39.4062 153.621 39.3447 153.637 39.2822 153.637ZM21.7915 140.563L39.1861 152.708L66.2099 113.991C66.2165 113.98 66.2236 113.97 66.2311 113.96L69.2214 109.676C69.2506 109.634 69.2877 109.598 69.3307 109.571C69.3736 109.544 69.4215 109.525 69.4717 109.516C69.5219 109.507 69.5733 109.508 69.6231 109.519C69.6729 109.53 69.72 109.551 69.7618 109.58C69.8036 109.609 69.8392 109.646 69.8666 109.689C69.8941 109.732 69.9128 109.78 69.9217 109.83C69.9306 109.88 69.9296 109.932 69.9186 109.982C69.9077 110.031 69.887 110.079 69.8578 110.12L66.9759 114.249L70.1566 122.273C70.1741 122.317 70.1834 122.364 70.1839 122.412L70.4898 149.296L91.7161 149.059L91.3971 120.919C91.3842 120.126 91.286 119.336 91.1044 118.564L80.7972 94.0432L63.8286 94.9162L53.2915 95.5175L52.7529 96.2719L21.7915 140.563Z" fill="#3C4043"/>
<path d="M53.9894 92.0364L80.325 90.9385L81.0364 93.6425L53.084 95.1415L53.9894 92.0364Z" fill="white"/>
<path d="M53.0834 95.5292C53.0231 95.5292 52.9637 95.5152 52.9098 95.4882C52.8559 95.4613 52.8091 95.4221 52.7729 95.3739C52.7368 95.3257 52.7123 95.2698 52.7016 95.2105C52.6908 95.1512 52.694 95.0902 52.7108 95.0324L53.6163 91.9273C53.639 91.8493 53.6856 91.7805 53.7496 91.7304C53.8135 91.6803 53.8915 91.6516 53.9726 91.6482L80.3082 90.5502C80.3967 90.5463 80.4838 90.5729 80.5551 90.6255C80.6263 90.6781 80.6774 90.7535 80.6998 90.8392L81.4112 93.5432C81.4258 93.599 81.4279 93.6573 81.4172 93.7139C81.4065 93.7706 81.3834 93.8241 81.3494 93.8707C81.3154 93.9173 81.2715 93.9557 81.2209 93.9832C81.1702 94.0106 81.1141 94.0265 81.0565 94.0296L53.1041 95.5287C53.0972 95.5289 53.0902 95.5292 53.0834 95.5292ZM54.2833 92.4122L53.609 94.7242L80.5396 93.2799L80.029 91.3393L54.2833 92.4122Z" fill="#3C4043"/>
<path d="M53.8602 92.2946C53.7706 92.2945 53.6837 92.2633 53.6144 92.2065C53.5451 92.1496 53.4977 92.0704 53.4801 91.9825L52.9627 89.3949C52.9555 89.359 52.9534 89.3222 52.9565 89.2856L53.9913 77.2534C54.0001 77.1508 54.0493 77.0559 54.128 76.9896C54.2068 76.9233 54.3087 76.891 54.4112 76.8999C54.5138 76.9087 54.6086 76.9579 54.6749 77.0367C54.7412 77.1154 54.7735 77.2173 54.7647 77.3199L53.7345 89.297L54.241 91.8304C54.251 91.8803 54.2511 91.9318 54.2412 91.9818C54.2313 92.0318 54.2117 92.0794 54.1834 92.1218C54.1551 92.1642 54.1188 92.2006 54.0764 92.229C54.0341 92.2573 53.9865 92.2771 53.9366 92.2871C53.9114 92.292 53.8859 92.2945 53.8602 92.2946Z" fill="#3C4043"/>
<path d="M105.019 110.739C106.157 114.801 106.705 119.18 105.031 119.53C103.414 119.866 103.194 116.904 101.448 111.754C102.198 116.58 102.392 120.177 100.697 120.332C99.003 120.487 98.2787 115.597 97.7225 111.871C96.9852 114.381 96.1056 117.822 94.7862 117.732C92.8718 117.589 93.5057 114.627 93.7256 112.621C94.2041 108.171 92.3538 107.209 90.1684 105.402C88.2138 103.785 82.3945 89.1001 82.3945 89.1001L92.5355 80.5205L93.829 84.2725L97.9682 100.445L105.019 110.739Z" fill="#FFF1ED"/>
<path d="M100.615 120.725C98.919 120.725 98.1704 117.258 97.6023 113.665C96.9038 116.003 96.1213 118.122 94.8402 118.122C94.8135 118.122 94.7865 118.121 94.7594 118.119C94.5326 118.111 94.3102 118.055 94.1067 117.954C93.9031 117.854 93.7231 117.712 93.5783 117.537C92.8308 116.622 93.0535 114.866 93.2501 113.315C93.2824 113.061 93.3137 112.814 93.3394 112.58C93.7486 108.774 92.408 107.7 90.552 106.213C90.3461 106.048 90.135 105.879 89.9209 105.702C87.9124 104.041 82.2725 89.8475 82.0333 89.244C82.0033 89.1684 81.9977 89.0853 82.0175 89.0063C82.0373 88.9274 82.0814 88.8567 82.1435 88.8042L92.2845 80.2245C92.3327 80.1838 92.39 80.1555 92.4516 80.1419C92.5132 80.1283 92.5772 80.13 92.638 80.1467C92.6988 80.1634 92.7546 80.1947 92.8006 80.2379C92.8466 80.2811 92.8813 80.3348 92.9019 80.3944L94.1954 84.1464C94.1989 84.1564 94.2019 84.1665 94.2046 84.1767L98.3267 100.282L105.339 110.521C105.363 110.556 105.381 110.594 105.392 110.635C105.949 112.618 107.124 117.426 106.031 119.227C105.934 119.399 105.803 119.55 105.644 119.668C105.485 119.786 105.303 119.868 105.11 119.91C104.013 120.138 103.504 119.147 103.336 118.822C102.998 118.166 102.701 117.199 102.345 115.985C102.488 118.175 102.292 119.462 101.753 120.153C101.632 120.314 101.479 120.448 101.303 120.546C101.128 120.643 100.933 120.702 100.732 120.719C100.693 120.723 100.654 120.725 100.615 120.725ZM97.722 111.483C97.731 111.483 97.74 111.483 97.7489 111.484C97.8371 111.49 97.9206 111.526 97.9855 111.586C98.0505 111.646 98.093 111.726 98.106 111.814L98.1117 111.852C98.3903 113.718 98.7067 115.833 99.1615 117.47C99.7784 119.687 100.366 119.973 100.662 119.946C100.757 119.939 100.849 119.91 100.931 119.864C101.014 119.817 101.085 119.753 101.141 119.675C101.996 118.578 101.507 114.663 101.064 111.814C101.049 111.718 101.07 111.62 101.124 111.539C101.178 111.458 101.26 111.401 101.355 111.378C101.449 111.354 101.549 111.367 101.634 111.414C101.719 111.461 101.784 111.538 101.815 111.63C102.295 113.046 102.653 114.273 102.969 115.356C103.772 118.106 104.161 119.315 104.951 119.151C105.04 119.13 105.123 119.089 105.195 119.033C105.267 118.977 105.326 118.905 105.367 118.824C105.993 117.793 105.716 114.689 104.662 110.906L97.6476 100.664C97.6219 100.627 97.603 100.585 97.5917 100.541L93.4567 84.3846L92.3529 81.1835L82.8578 89.217C84.5477 93.4578 88.9065 103.856 90.4153 105.103C90.6264 105.278 90.8342 105.445 91.0371 105.607C92.9306 107.124 94.5658 108.434 94.1109 112.663C94.0851 112.902 94.0529 113.154 94.0204 113.413C93.8522 114.739 93.6429 116.389 94.1795 117.046C94.2577 117.139 94.3549 117.213 94.4646 117.265C94.5743 117.317 94.6939 117.344 94.8151 117.345C94.8236 117.345 94.8324 117.346 94.841 117.346C95.7316 117.346 96.6303 114.243 97.1693 112.382C97.2303 112.171 97.2905 111.964 97.3504 111.762C97.3739 111.682 97.4228 111.611 97.4898 111.561C97.5568 111.51 97.6382 111.483 97.722 111.483Z" fill="#3C4043"/>
<path d="M95.3029 101.288C96.066 103.436 98.2132 104.768 99.9077 106.735C102.236 109.452 103.982 110.978 104.81 110.81C106.663 110.432 103.034 106.239 101.04 101.896C100.937 101.668 100.82 101.447 100.689 101.234L98.786 98.1681C98.7529 98.0732 98.7172 97.9791 98.6789 97.8858L92.7935 81.2973C92.683 81.0289 92.6591 80.7708 92.5156 80.521" fill="#FFF1ED"/>
<path d="M104.676 111.212C104 111.212 102.706 110.595 99.6141 106.987C99.0628 106.348 98.454 105.769 97.8653 105.209C96.6377 104.041 95.4783 102.938 94.9383 101.418C94.9038 101.321 94.9093 101.214 94.9535 101.121C94.9977 101.028 95.077 100.956 95.174 100.922C95.271 100.888 95.3777 100.893 95.4706 100.937C95.5636 100.981 95.6352 101.061 95.6696 101.158C96.1474 102.503 97.2416 103.544 98.4001 104.646C99.0312 105.227 99.6328 105.84 100.203 106.481C103.5 110.329 104.503 110.476 104.734 110.43C104.882 110.4 104.904 110.349 104.912 110.33C105.129 109.838 104.051 108.036 103.099 106.446C102.301 105.111 101.396 103.598 100.689 102.057C100.592 101.844 100.482 101.638 100.36 101.438L98.4574 98.372C98.4425 98.348 98.4302 98.3224 98.4209 98.2957C98.3899 98.2077 98.3566 98.12 98.321 98.0326C98.3187 98.0268 98.3164 98.0209 98.3142 98.0149L92.4323 81.4362C92.387 81.3203 92.3481 81.2019 92.3158 81.0817C92.2859 80.9545 92.2404 80.8314 92.1805 80.7152C92.1539 80.671 92.1364 80.6219 92.129 80.5708C92.1216 80.5197 92.1245 80.4677 92.1374 80.4177C92.1504 80.3678 92.1731 80.3209 92.2044 80.2798C92.2357 80.2388 92.2748 80.2044 92.3196 80.1786C92.3643 80.1529 92.4137 80.1364 92.4649 80.13C92.5161 80.1235 92.5681 80.1274 92.6178 80.1414C92.6675 80.1553 92.7139 80.179 92.7543 80.2111C92.7947 80.2432 92.8283 80.283 92.8532 80.3282C92.9454 80.4989 93.0156 80.6806 93.0621 80.869C93.0873 80.9643 93.1177 81.0581 93.1534 81.15C93.1558 81.156 93.158 81.1619 93.1602 81.168L99.042 97.7472C99.0765 97.8308 99.1086 97.9147 99.1384 97.999L101.019 101.03C101.159 101.256 101.284 101.492 101.394 101.734C102.084 103.236 102.977 104.73 103.766 106.048C105.234 108.504 105.984 109.824 105.623 110.644C105.556 110.789 105.454 110.915 105.326 111.011C105.197 111.107 105.047 111.169 104.889 111.191C104.819 111.205 104.748 111.212 104.676 111.212Z" fill="#3C4043"/>
<path d="M29.7151 103.371C28.0271 104.902 25.505 105.061 23.0822 105.992C19.746 107.284 17.4856 107.803 16.8358 107.263C15.344 106.021 20.4079 103.453 24.2395 100.445L27.7319 97.4695L39.1147 83.4966" fill="#FFF1ED"/>
<path d="M17.6692 107.861C17.0753 107.861 16.775 107.719 16.5868 107.562C16.4548 107.462 16.3489 107.331 16.2781 107.181C16.2074 107.031 16.1739 106.867 16.1805 106.701C16.2286 105.645 17.8053 104.51 20.5877 102.594C21.7249 101.811 22.9007 101.002 23.9928 100.145L27.4524 97.1969L38.8128 83.2514C38.8778 83.1716 38.9719 83.1209 39.0743 83.1104C39.1767 83.0999 39.279 83.1306 39.3588 83.1956C39.4387 83.2606 39.4894 83.3547 39.4998 83.4571C39.5103 83.5596 39.4797 83.662 39.4147 83.7418L28.0319 97.7147C28.017 97.7329 28.0005 97.7497 27.9826 97.765L24.4902 100.741L24.4781 100.751C23.3657 101.624 22.1769 102.442 21.0277 103.234C19.1346 104.537 16.9887 106.014 16.9561 106.736C16.9544 106.775 16.9506 106.855 17.0834 106.966C17.2625 107.115 18.2175 107.461 22.9416 105.63C23.7473 105.335 24.5673 105.079 25.3985 104.866C26.9403 104.443 28.3968 104.043 29.4538 103.084C29.4915 103.05 29.5357 103.023 29.5838 103.005C29.6319 102.988 29.683 102.98 29.7341 102.982C29.7853 102.984 29.8354 102.997 29.8818 103.019C29.9281 103.04 29.9697 103.071 30.004 103.109C30.0384 103.147 30.065 103.191 30.0822 103.24C30.0994 103.288 30.1068 103.339 30.1041 103.39C30.1015 103.441 30.0887 103.491 30.0666 103.538C30.0445 103.584 30.0134 103.625 29.9752 103.659C28.7808 104.743 27.2376 105.166 25.6032 105.614C24.8198 105.829 24.0094 106.051 23.2203 106.355C20.2157 107.519 18.5898 107.861 17.6692 107.861Z" fill="#3C4043"/>
<path d="M80.0532 87.8716C79.9785 87.8716 79.9055 87.8501 79.8428 87.8097C79.7801 87.7693 79.7303 87.7116 79.6995 87.6436L74.435 76.0254C74.3925 75.9317 74.389 75.8249 74.4252 75.7285C74.4615 75.6322 74.5345 75.5542 74.6282 75.5117C74.722 75.4692 74.8288 75.4657 74.9251 75.5019C75.0214 75.5382 75.0994 75.6112 75.1419 75.705L80.4064 87.3232C80.4332 87.3823 80.4448 87.4472 80.44 87.5119C80.4353 87.5766 80.4144 87.6391 80.3792 87.6937C80.3441 87.7482 80.2958 87.7931 80.2389 87.8242C80.1819 87.8553 80.1181 87.8716 80.0532 87.8716Z" fill="#3C4043"/>
<path d="M63.8282 54.5695C63.7532 54.6562 62.839 55.7385 62.839 55.7385L62.5906 51.3913L58.0369 51.5304C57.4496 51.9947 56.7375 52.2739 55.9913 52.3326C55.245 52.3914 54.4981 52.227 53.8454 51.8603C53.1927 51.4936 52.6637 50.9412 52.3254 50.2733C51.9872 49.6053 51.8551 48.8518 51.9458 48.1086C52.0365 47.3654 52.346 46.6658 52.835 46.0989C53.3239 45.5319 53.9703 45.123 54.692 44.9242C55.4137 44.7254 56.1782 44.7455 56.8885 44.9821C57.5987 45.2187 58.2226 45.6611 58.681 46.2531C59.1646 45.8366 59.7564 45.5657 60.3876 45.4718C61.0189 45.378 61.6638 45.465 62.2476 45.7229C62.8314 45.9807 63.3302 46.3988 63.6861 46.9286C64.042 47.4585 64.2405 48.0784 64.2586 48.7164C64.9868 49.1806 65.6033 49.8004 66.0635 50.5312C66.5238 51.262 66.8165 52.0858 66.9206 52.9432V52.9445C66.9456 53.1502 66.9597 53.357 66.9628 53.5641C66.1342 53.4957 64.7801 53.467 63.8282 54.5695Z" fill="#3C4043"/>
<path d="M66.588 94.7803L64.6607 94.8321C64.3232 94.8391 63.9967 94.7125 63.752 94.4799C63.5074 94.2473 63.3644 93.9275 63.3543 93.59L63.3284 92.3739C63.3214 92.0363 63.448 91.7097 63.6805 91.465C63.913 91.2203 64.2328 91.0773 64.5702 91.0672L66.4975 91.0154C66.8349 91.0084 67.1615 91.135 67.4061 91.3676C67.6508 91.6002 67.7937 91.92 67.8039 92.2574L67.8298 93.4736C67.8344 93.8105 67.7071 94.1358 67.475 94.38C67.243 94.6242 66.9246 94.7679 66.588 94.7803Z" fill="white"/>
<path d="M64.6382 95.2204C64.2036 95.2231 63.7851 95.0555 63.4725 94.7535C63.1599 94.4514 62.978 94.0389 62.9658 93.6043L62.94 92.3825C62.929 91.9424 63.0929 91.5161 63.3958 91.1968C63.6987 90.8775 64.1158 90.6913 64.5557 90.6792L66.4869 90.6274C66.9268 90.6169 67.3531 90.781 67.6725 91.0838C67.9919 91.3866 68.1785 91.8035 68.1916 92.2435L68.2174 93.4656C68.2228 93.904 68.0571 94.3271 67.7555 94.6451C67.4538 94.9632 67.04 95.151 66.6021 95.1686H66.5981L64.6708 95.2204H64.6382ZM66.5217 91.4037H66.5043L64.5801 91.4555C64.3449 91.4624 64.122 91.5622 63.9601 91.7329C63.7982 91.9037 63.7105 92.1316 63.7161 92.3669L63.7419 93.582C63.7494 93.8169 63.8493 94.0394 64.02 94.2009C64.1907 94.3624 64.4183 94.4498 64.6532 94.4442L66.5752 94.3925C66.8098 94.383 67.0315 94.2825 67.1932 94.1124C67.355 93.9422 67.4442 93.7157 67.4418 93.4809L67.416 92.2659C67.4086 92.0339 67.311 91.814 67.144 91.653C66.977 91.492 66.7537 91.4025 66.5217 91.4037Z" fill="#3C4043"/>
<path d="M59.668 55.7337C59.9895 55.7337 60.2501 55.4731 60.2501 55.1515C60.2501 54.83 59.9895 54.5693 59.668 54.5693C59.3465 54.5693 59.0859 54.83 59.0859 55.1515C59.0859 55.4731 59.3465 55.7337 59.668 55.7337Z" fill="#3C4043"/>
<path d="M55.5918 56.265C55.9133 56.265 56.1739 56.0043 56.1739 55.6828C56.1739 55.3612 55.9133 55.1006 55.5918 55.1006C55.2704 55.1006 55.0098 55.3612 55.0098 55.6828C55.0098 56.0043 55.2704 56.265 55.5918 56.265Z" fill="#3C4043"/>
<path d="M59.9708 65.2595C59.6792 65.2589 59.3881 65.2392 59.0991 65.2005C58.997 65.187 58.9045 65.1336 58.8419 65.0519C58.7792 64.9702 58.7516 64.867 58.765 64.7649C58.7785 64.6628 58.8319 64.5703 58.9136 64.5076C58.9953 64.445 59.0985 64.4173 59.2005 64.4308C59.6694 64.4961 60.1449 64.5005 60.6149 64.4437C61.6753 64.3077 62.6671 63.8451 63.453 63.1202C63.4904 63.0854 63.5344 63.0584 63.5823 63.0407C63.6302 63.023 63.6811 63.0149 63.7322 63.0169C63.7832 63.0189 63.8334 63.031 63.8797 63.0524C63.9261 63.0739 63.9678 63.1043 64.0024 63.1418C64.037 63.1794 64.0638 63.2235 64.0814 63.2715C64.0989 63.3195 64.1068 63.3704 64.1046 63.4215C64.1024 63.4725 64.0901 63.5226 64.0685 63.5689C64.0469 63.6152 64.0164 63.6568 63.9787 63.6913C62.8885 64.7013 61.4568 65.2616 59.9708 65.2597V65.2595Z" fill="#3C4043"/>
<path d="M63.2285 55.7069C63.386 55.1387 63.7066 54.6291 64.1508 54.2414C64.595 53.8537 65.1432 53.6049 65.7274 53.5258C66.3116 53.4467 66.9062 53.5408 67.4374 53.7964C67.9687 54.052 68.4133 54.4579 68.7161 54.9638C69.0189 55.4698 69.1667 56.0534 69.1411 56.6425C69.1155 57.2317 68.9176 57.8003 68.572 58.278C68.2264 58.7557 67.7483 59.1215 67.1968 59.33C66.6454 59.5386 66.0449 59.5807 65.4698 59.4511" fill="#FFF1ED"/>
<path d="M66.1347 59.9127C65.8824 59.9128 65.6308 59.885 65.3845 59.8297C65.3341 59.8192 65.2862 59.7988 65.2437 59.7697C65.2012 59.7406 65.165 59.7033 65.137 59.66C65.1091 59.6166 65.0901 59.5682 65.0811 59.5175C65.0721 59.4667 65.0733 59.4147 65.0846 59.3644C65.0959 59.3142 65.1171 59.2667 65.1469 59.2247C65.1768 59.1827 65.2147 59.147 65.2584 59.1199C65.3022 59.0927 65.351 59.0745 65.4018 59.0663C65.4527 59.0582 65.5047 59.0603 65.5547 59.0724C66.0561 59.1857 66.5796 59.1493 67.0605 58.9677C67.5414 58.7862 67.9584 58.4675 68.2599 58.0511C68.5613 57.6347 68.734 57.139 68.7565 56.6254C68.779 56.1118 68.6503 55.6029 68.3863 55.1618C68.1224 54.7207 67.7348 54.3667 67.2717 54.1439C66.8085 53.921 66.2901 53.8389 65.7808 53.9079C65.2715 53.9769 64.7936 54.1939 64.4064 54.532C64.0192 54.8701 63.7397 55.3144 63.6026 55.8099C63.5893 55.8593 63.5664 55.9056 63.5351 55.9461C63.5039 55.9866 63.4649 56.0205 63.4205 56.0459C63.3761 56.0713 63.3271 56.0877 63.2763 56.0941C63.2256 56.1005 63.1741 56.0967 63.1247 56.0831C63.0754 56.0695 63.0293 56.0463 62.989 56.0148C62.9487 55.9833 62.915 55.9441 62.8899 55.8996C62.8647 55.855 62.8487 55.8059 62.8426 55.7551C62.8365 55.7043 62.8405 55.6528 62.8544 55.6035C63.0233 54.9925 63.3594 54.4409 63.8249 54.0107C64.2904 53.5806 64.8668 53.2891 65.4891 53.169C66.1114 53.049 66.7548 53.1052 67.3469 53.3313C67.9389 53.5574 68.4561 53.9444 68.84 54.4488C69.2239 54.9531 69.4594 55.5547 69.5198 56.1857C69.5802 56.8167 69.4632 57.4521 69.1819 58.0201C68.9007 58.5882 68.4664 59.0664 67.928 59.4008C67.3896 59.7352 66.7685 59.9125 66.1347 59.9127Z" fill="#3C4043"/>
<path d="M66.562 57.5716C66.5144 57.5717 66.4671 57.5629 66.4227 57.5457L64.5083 56.8083C64.4346 56.7799 64.3714 56.7297 64.3269 56.6644C64.2825 56.5991 64.2591 56.5218 64.2598 56.4428C64.2605 56.3638 64.2852 56.2869 64.3307 56.2224C64.3762 56.1578 64.4404 56.1087 64.5145 56.0816L67.1662 55.1112C67.2626 55.077 67.3686 55.0822 67.4612 55.1258C67.5537 55.1693 67.6253 55.2476 67.6605 55.3437C67.6956 55.4398 67.6914 55.5459 67.6487 55.6389C67.606 55.7319 67.5284 55.8042 67.4327 55.8403L65.7511 56.4555L66.7016 56.8212C66.7862 56.8538 66.8567 56.9149 66.901 56.9941C66.9452 57.0732 66.9603 57.1653 66.9438 57.2545C66.9272 57.3436 66.8799 57.4241 66.8102 57.4821C66.7405 57.54 66.6527 57.5717 66.562 57.5716Z" fill="#3C4043"/>
<path d="M81.9175 89.5409C81.8888 89.5409 81.86 89.5399 81.831 89.5377C81.6798 89.526 81.5325 89.4839 81.3979 89.414C81.2634 89.3441 81.1442 89.2478 81.0477 89.1308L79.7551 87.6054C79.6582 87.4948 79.5845 87.3658 79.5383 87.2262C79.492 87.0865 79.4742 86.939 79.4859 86.7924C79.4977 86.6413 79.5398 86.4941 79.6096 86.3596C79.6794 86.2251 79.7755 86.106 79.8922 86.0093C79.971 85.9431 80.0729 85.9109 80.1754 85.9198C80.278 85.9288 80.3727 85.9781 80.4389 86.0569C80.5051 86.1357 80.5373 86.2376 80.5284 86.3402C80.5194 86.4428 80.4702 86.5376 80.3913 86.6038C80.3539 86.6342 80.323 86.6719 80.3004 86.7145C80.2778 86.7571 80.264 86.8039 80.2598 86.8519C80.2565 86.8966 80.2621 86.9415 80.2765 86.9839C80.2908 87.0263 80.3135 87.0654 80.3432 87.0989L81.6409 88.6302C81.6713 88.668 81.709 88.6993 81.7518 88.7221C81.7946 88.7449 81.8415 88.7589 81.8898 88.7631C81.9345 88.7664 81.9794 88.7607 82.0218 88.7464C82.0643 88.7321 82.1034 88.7094 82.1369 88.6797L92.399 79.9814C92.4696 79.9192 92.5134 79.8321 92.5215 79.7384C92.5295 79.6446 92.5011 79.5514 92.4422 79.478L91.1508 77.9538C91.1203 77.916 91.0826 77.8848 91.0397 77.8619C90.9969 77.8391 90.95 77.8252 90.9016 77.8209C90.857 77.8175 90.8121 77.8232 90.7697 77.8375C90.7273 77.8519 90.6882 77.8746 90.6547 77.9044C90.6165 77.9386 90.5718 77.9649 90.5233 77.9817C90.4749 77.9986 90.4235 78.0057 90.3723 78.0025C90.3211 77.9994 90.271 77.9861 90.2249 77.9635C90.1788 77.9409 90.1377 77.9093 90.1039 77.8707C90.0701 77.8321 90.0443 77.7871 90.028 77.7385C90.0117 77.6898 90.0052 77.6384 90.0089 77.5872C90.0126 77.536 90.0264 77.486 90.0495 77.4402C90.0727 77.3944 90.1047 77.3536 90.1436 77.3202C90.2546 77.2221 90.3842 77.1474 90.5246 77.1004C90.6651 77.0535 90.8135 77.0352 90.9611 77.0468C91.1122 77.0586 91.2593 77.1007 91.3938 77.1705C91.5283 77.2403 91.6474 77.3365 91.744 77.4532L93.0364 78.9786C93.2251 79.2091 93.3169 79.5038 93.2925 79.8007C93.2681 80.0976 93.1293 80.3734 92.9055 80.57L82.6438 89.2678C82.443 89.4442 82.1848 89.5413 81.9175 89.5409Z" fill="#3C4043"/>
<path d="M80.1423 86.6943C80.0628 86.6944 79.9852 86.67 79.92 86.6245C79.8547 86.579 79.805 86.5146 79.7777 86.4399C79.7503 86.3652 79.7465 86.2839 79.7668 86.207C79.7871 86.1301 79.8306 86.0613 79.8913 86.0099L86.4622 80.4466C86.5011 80.4133 86.5461 80.388 86.5948 80.3721C86.6434 80.3563 86.6948 80.3502 86.7458 80.3543C86.7968 80.3583 86.8465 80.3724 86.892 80.3958C86.9376 80.4191 86.9781 80.4513 87.0111 80.4904C87.0442 80.5294 87.0692 80.5747 87.0847 80.6234C87.1003 80.6722 87.106 80.7236 87.1016 80.7746C87.0972 80.8256 87.0827 80.8752 87.0591 80.9206C87.0354 80.966 87.003 81.0062 86.9637 81.0391L80.3928 86.6023C80.3228 86.6618 80.2341 86.6944 80.1423 86.6943Z" fill="#3C4043"/>
<path d="M49.5025 92.4735C49.2285 92.4741 48.9633 92.3765 48.755 92.1983L38.6822 83.2814C38.5704 83.1858 38.4789 83.0687 38.4131 82.9372C38.3474 82.8056 38.3087 82.6621 38.2993 82.5153C38.2894 82.3641 38.3099 82.2124 38.3598 82.0693C38.4096 81.9262 38.4877 81.7946 38.5895 81.6823L39.9144 80.185C40.01 80.0732 40.127 79.9818 40.2586 79.916C40.3901 79.8503 40.5335 79.8116 40.6803 79.8023C40.8315 79.7923 40.9832 79.8128 41.1263 79.8627C41.2694 79.9126 41.401 79.9908 41.5133 80.0926C41.5513 80.1266 41.5822 80.1677 41.6044 80.2136C41.6265 80.2596 41.6393 80.3094 41.6422 80.3604C41.6451 80.4113 41.6379 80.4623 41.621 80.5104C41.6042 80.5585 41.578 80.6029 41.5441 80.6409C41.5101 80.6789 41.469 80.7099 41.423 80.732C41.3771 80.7541 41.3272 80.767 41.2763 80.7698C41.2254 80.7727 41.1745 80.7655 41.1263 80.7487C41.0782 80.7318 41.0339 80.7057 40.9959 80.6717C40.9604 80.6389 40.9188 80.6136 40.8733 80.5973C40.8279 80.581 40.7797 80.574 40.7315 80.5768C40.6867 80.5798 40.6431 80.5918 40.6031 80.6121C40.5631 80.6323 40.5276 80.6604 40.4986 80.6947L39.1698 82.1978C39.1369 82.2334 39.1114 82.2753 39.095 82.321C39.0785 82.3666 39.0714 82.4151 39.074 82.4636C39.077 82.5083 39.089 82.552 39.1093 82.592C39.1296 82.632 39.1577 82.6675 39.192 82.6965L49.2647 91.6132C49.3363 91.6742 49.4288 91.7053 49.5227 91.6999C49.6167 91.6945 49.7049 91.6531 49.7691 91.5842L51.0929 90.0881C51.1259 90.0525 51.1514 90.0107 51.1678 89.9651C51.1843 89.9194 51.1914 89.8709 51.1887 89.8225C51.1857 89.7778 51.1737 89.7341 51.1535 89.6941C51.1333 89.6541 51.1052 89.6185 51.0709 89.5896C50.9968 89.5216 50.9519 89.4274 50.9459 89.3269C50.9398 89.2265 50.973 89.1276 51.0384 89.0511C51.1039 88.9747 51.1965 88.9267 51.2966 88.9172C51.3968 88.9077 51.4967 88.9375 51.5754 89.0003C51.6883 89.0961 51.7807 89.2137 51.8473 89.346C51.9138 89.4783 51.953 89.6227 51.9626 89.7705C51.9726 89.9217 51.952 90.0734 51.9021 90.2165C51.8522 90.3597 51.774 90.4913 51.6723 90.6036L50.3475 92.1009C50.2407 92.2188 50.1102 92.3129 49.9647 92.3771C49.8191 92.4413 49.6616 92.4741 49.5025 92.4735Z" fill="#3C4043"/>
<path d="M47.6986 86.4809C47.6038 86.481 47.5122 86.4463 47.4413 86.3833L40.9979 80.6728C40.9209 80.6045 40.8741 80.5085 40.8679 80.4057C40.8617 80.303 40.8965 80.2019 40.9648 80.1249C41.033 80.0478 41.1291 80.0011 41.2318 79.9948C41.3346 79.9886 41.4356 80.0235 41.5126 80.0918L47.956 85.8019C48.0149 85.8541 48.0566 85.9231 48.0754 85.9995C48.0942 86.076 48.0893 86.1564 48.0614 86.23C48.0335 86.3037 47.9838 86.3671 47.919 86.4118C47.8542 86.4565 47.7773 86.4805 47.6986 86.4805V86.4809Z" fill="#3C4043"/>
<path d="M133.804 163L123.334 137.904L106.093 161.933L105.348 161.396L123.548 136.032L134.651 162.645L133.804 163Z" fill="#07377F"/>
<path d="M124.645 10.8979H122.352V142.303H124.645V10.8979Z" fill="#07377F"/>
<path d="M112.921 17.1788C115.41 17.1788 117.428 15.1576 117.428 12.6644C117.428 10.1711 115.41 8.1499 112.921 8.1499C110.432 8.1499 108.414 10.1711 108.414 12.6644C108.414 15.1576 110.432 17.1788 112.921 17.1788Z" fill="#FFDA2D"/>
<path d="M112.924 17.4091C111.206 17.4091 109.619 16.4765 108.783 14.9741C108.167 13.8678 108.018 12.5869 108.364 11.3675C108.71 10.1481 109.509 9.13738 110.613 8.52035C111.318 8.12707 112.114 7.91895 112.916 7.91895C114.634 7.91895 116.221 8.85161 117.057 10.354C117.673 11.4603 117.822 12.7412 117.476 13.9606C117.13 15.1799 116.331 16.1907 115.227 16.8077C114.522 17.2015 113.726 17.4091 112.924 17.4091ZM112.916 8.37884C112.192 8.37884 111.473 8.5663 110.837 8.9219C109.839 9.4792 109.118 10.3926 108.805 11.4938C108.493 12.5951 108.627 13.7515 109.184 14.7513C109.939 16.1075 111.372 16.9502 112.924 16.9502C113.648 16.9502 114.367 16.7627 115.003 16.4071C116.001 15.8498 116.722 14.9364 117.035 13.8352C117.347 12.7339 117.213 11.5775 116.656 10.5777C115.901 9.22146 114.468 8.37884 112.916 8.37884Z" fill="#1D2445"/>
<path d="M119.414 13.3441L115.756 6.77231L126.617 0.70678C128.429 -0.304907 130.716 0.34612 131.726 2.16045C132.736 3.97524 132.086 6.26646 130.275 7.27815L119.414 13.3441Z" fill="#07377F"/>
<path d="M119.415 13.5742C119.334 13.5742 119.256 13.5314 119.214 13.4561L115.556 6.88425C115.527 6.83141 115.519 6.76847 115.536 6.70966C115.553 6.65085 115.592 6.60169 115.645 6.57183L126.506 0.505843C127.099 0.174587 127.769 0 128.443 0C129.889 0 131.224 0.785183 131.927 2.0491C132.445 2.97993 132.571 4.05777 132.28 5.08324C131.989 6.10871 131.317 6.9596 130.388 7.47876L119.526 13.5448C119.491 13.5645 119.452 13.5742 119.415 13.5742ZM116.069 6.86128L119.503 13.0316L130.164 7.07767C130.987 6.61823 131.582 5.86521 131.839 4.95782C132.097 4.05042 131.986 3.09663 131.527 2.27239C130.904 1.15411 129.723 0.45944 128.443 0.45944C127.846 0.45944 127.254 0.614271 126.729 0.907394L116.069 6.86128Z" fill="#07377F"/>
<path d="M119.919 8.75627C117.427 4.27995 111.785 2.6742 107.316 5.16988L107.098 5.29209L116.12 21.5025L116.339 21.3803C120.807 18.8846 122.41 13.2326 119.919 8.75627Z" fill="#07377F"/>
<path d="M116.119 21.7319C116.098 21.7319 116.077 21.7291 116.057 21.7232C115.998 21.7066 115.948 21.6671 115.919 21.6138L106.896 5.40338C106.867 5.35055 106.859 5.28761 106.876 5.2288C106.893 5.16999 106.932 5.12083 106.985 5.09097L107.204 4.96875C108.616 4.1799 110.212 3.76318 111.818 3.76318C115.262 3.76318 118.443 5.6331 120.118 8.64381C121.353 10.862 121.651 13.4298 120.959 15.8731C120.266 18.3159 118.665 20.343 116.45 21.5798L116.231 21.7025C116.197 21.7222 116.158 21.7319 116.119 21.7319ZM107.409 5.38087L116.208 21.1897L116.226 21.1796C118.334 20.0021 119.858 18.0734 120.518 15.7486C121.177 13.4229 120.893 10.9796 119.718 8.86802C118.123 6.00295 115.096 4.22308 111.818 4.22308C110.289 4.22308 108.771 4.61958 107.427 5.3703L107.409 5.38087Z" fill="#07377F"/>
</svg>
