<svg width="191" height="122" viewBox="0 0 191 122" fill="none" xmlns="http://www.w3.org/2000/svg">
<path d="M146.619 81.7016L148.44 75.1376L152.713 59.3598L156.119 46.7869C156.856 43.9881 154.762 41.245 151.883 41.245L130.065 41.1904C127.903 41.185 126.003 42.619 125.423 44.6944L115.064 81.7481" fill="#F8F9FA"/>
<path d="M115.065 82.1559C115.244 82.1559 115.409 82.0376 115.459 81.857L125.818 44.8032C126.346 42.9147 128.087 41.598 130.053 41.598C130.057 41.598 130.061 41.598 130.065 41.598L151.882 41.6526C153.116 41.6526 154.258 42.214 155.015 43.1927C155.787 44.1889 156.044 45.4609 155.722 46.6824L148.044 75.0302L146.224 81.5919C146.163 81.8093 146.291 82.0342 146.509 82.0944C146.727 82.1546 146.953 82.0269 147.014 81.8096L148.835 75.2455L156.514 46.8926C156.902 45.4217 156.592 43.8922 155.665 42.6939C154.75 41.5131 153.372 40.8358 151.883 40.8358L130.066 40.7812C130.062 40.7812 130.058 40.7812 130.053 40.7812C127.72 40.7812 125.655 42.3433 125.028 44.5842L114.67 81.6378C114.609 81.8551 114.737 82.0803 114.955 82.1408C114.991 82.151 115.028 82.1559 115.065 82.1559Z" fill="#3C4043"/>
<path d="M97.438 121.497C97.599 121.497 97.7516 121.402 97.8169 121.245L114.236 81.6891C114.323 81.4807 114.223 81.2418 114.014 81.1556C113.805 81.0694 113.565 81.1684 113.479 81.377L97.0594 120.933C96.9729 121.141 97.0724 121.38 97.2816 121.466C97.3328 121.487 97.3858 121.497 97.438 121.497Z" fill="#3C4043"/>
<path d="M102.333 83.6175H144.695C145.758 83.6175 146.619 82.7593 146.619 81.7008V81.1562H101.384L102.333 83.6175Z" fill="#3C4043"/>
<path d="M162.178 121.782C162.238 121.782 162.298 121.769 162.356 121.742C162.56 121.644 162.645 121.4 162.547 121.197L143.814 82.4145C143.716 82.2112 143.471 82.1258 143.267 82.2236C143.063 82.3215 142.978 82.5655 143.076 82.7687L161.809 121.551C161.879 121.697 162.026 121.782 162.178 121.782Z" fill="#3C4043"/>
<path d="M145.143 121.782C145.203 121.782 145.263 121.769 145.32 121.742C145.524 121.644 145.61 121.4 145.512 121.197L126.781 82.4145C126.683 82.2112 126.438 82.1258 126.234 82.2236C126.03 82.3214 125.944 82.5655 126.042 82.7687L144.773 121.551C144.844 121.697 144.99 121.782 145.143 121.782Z" fill="#3C4043"/>
<path d="M25.7701 95.8589C25.1373 101.757 18.5732 110.76 8.69095 112.239C4.31261 112.895 0.874706 117.204 0.406525 121.573L27.0195 121.584L39.0848 112.721L37.423 121.592H43.8538L45.5059 112.529" fill="#E7F1FF"/>
<path d="M37.4249 122H43.8556C44.0528 122 44.222 121.859 44.2572 121.665L45.9093 112.602C45.9498 112.38 45.8026 112.168 45.5808 112.127C45.3589 112.087 45.1464 112.234 45.1059 112.456L43.5149 121.184H37.9167L39.488 112.796C39.5189 112.631 39.4458 112.464 39.304 112.375C39.1621 112.286 38.9799 112.293 38.8449 112.392L26.8876 121.176L0.873329 121.165C1.52783 116.915 4.91237 113.218 8.75338 112.643C13.2825 111.965 17.6317 109.6 20.9998 105.984C23.8988 102.872 25.8346 99.1028 26.178 95.9024C26.2021 95.6784 26.0397 95.4772 25.8155 95.4531C25.5915 95.4289 25.3901 95.5912 25.366 95.8154C24.7635 101.43 18.458 110.365 8.63239 111.835C4.30618 112.483 0.515396 116.742 0.00243378 121.53C-0.00994873 121.645 0.0272026 121.76 0.104641 121.846C0.182083 121.932 0.292454 121.982 0.408276 121.982L27.0213 121.992H27.0214C27.1084 121.992 27.1931 121.965 27.2632 121.913L38.495 113.662L37.0236 121.517C37.0013 121.637 37.0332 121.76 37.1107 121.853C37.1883 121.946 37.3035 122 37.4249 122Z" fill="#3C4043"/>
<path d="M81.9361 56.3807C84.904 60.1103 82.8926 66.4917 77.8132 66.536C77.7441 66.536 77.6768 66.5362 77.6099 66.5345C75.3593 66.483 73.0876 66.8039 71.2371 69.5212C69.9363 71.4313 68.2782 74.5019 66.5 73.1871C65.2722 72.2725 67.0615 68.6041 68.2835 65.8503C65.0234 68.6889 60.7491 72.3977 59.3694 70.9823C57.9897 69.567 60.8433 66.5804 65.0933 62.9283C59.7223 66.1001 57.3328 68.5204 56.1653 67.0057C54.2419 64.5048 64.8532 57.3569 69.1888 55.8795C69.1888 55.8795 70.2129 55.5025 73.823 53.955C77.5202 52.374 80.3795 54.4257 81.9361 56.3807Z" fill="#FFF1ED"/>
<path d="M67.382 73.9124C67.4851 73.9124 67.5889 73.9031 67.6936 73.8843C69.0121 73.6488 70.1216 71.9573 71.1006 70.4649C71.2635 70.2166 71.4217 69.9753 71.575 69.7501C73.2146 67.3423 75.1702 66.8855 77.6008 66.9418C77.6604 66.9433 77.7211 66.9433 77.7831 66.9433H77.8131C80.1141 66.9233 82.0155 65.6876 83.0339 63.553C84.1847 61.1414 83.872 58.1566 82.256 56.1258C81.1449 54.7304 78.0834 51.6887 73.6629 53.5787C70.1136 55.1002 69.0584 55.4918 69.048 55.4957C65.3548 56.7541 56.6218 62.3796 55.6277 65.6688C55.3935 66.4437 55.615 66.9584 55.8421 67.2536C56.6115 68.2518 57.7719 67.7846 58.1532 67.6312C59.0081 67.287 60.0984 66.5792 61.4754 65.682C59.525 67.6333 58.6591 68.9756 58.6128 70.0247C58.5913 70.5103 58.7477 70.9282 59.0775 71.2664C60.4476 72.6719 63.395 70.5678 67.1656 67.3536C65.9873 70.0257 65.0178 72.5908 66.2566 73.5136C66.6154 73.779 66.9926 73.9124 67.382 73.9124ZM77.2132 66.1209C75.0051 66.1209 72.7425 66.5851 70.9001 69.2908C70.7442 69.5196 70.5834 69.7649 70.4177 70.0173C69.5732 71.3049 68.5221 72.9072 67.55 73.0808C67.2759 73.1297 67.012 73.057 66.7433 72.8583C65.8787 72.2142 67.366 68.8969 68.3502 66.7018C68.455 66.4681 68.5579 66.2386 68.6571 66.015C68.7347 65.8401 68.6804 65.6348 68.5264 65.5212C68.3723 65.4076 68.1601 65.4162 68.0157 65.5417C65.4867 67.7438 60.7793 71.8427 59.6622 70.6966C59.4914 70.5214 59.417 70.3193 59.4285 70.0606C59.4987 68.4699 62.6351 65.5782 65.3597 63.2368C65.5202 63.099 65.5486 62.8614 65.4255 62.6896C65.3023 62.5178 65.068 62.4685 64.8859 62.576C63.4008 63.4531 62.1671 64.2569 61.0785 64.9661C58.3232 66.7613 57.0802 67.5226 56.489 66.7557C56.3263 66.5441 56.3001 66.2658 56.4092 65.9048C57.2673 63.0659 65.423 57.5931 69.3209 56.2649C69.3725 56.246 70.4054 55.8633 73.9842 54.329C77.8879 52.6601 80.6224 55.385 81.6169 56.6341C83.0428 58.4261 83.3161 61.0655 82.2968 63.2016C81.4179 65.0435 79.7825 66.1097 77.8099 66.127H77.7832C77.7281 66.127 77.674 66.127 77.6203 66.1256C77.485 66.1226 77.3492 66.1209 77.2132 66.1209Z" fill="#3C4043"/>
<path d="M140.322 75.1622C137.638 78.3466 133.569 81.1964 129.142 81.8395L99.7446 81.7034L90.6259 59.5276L93.6201 57.895L140.322 75.1622Z" fill="white"/>
<path d="M129.144 82.2471C129.164 82.2471 129.183 82.2457 129.203 82.2429C133.261 81.6534 137.535 79.1045 140.636 75.4247C140.722 75.3231 140.753 75.1861 140.719 75.0575C140.685 74.9289 140.59 74.825 140.466 74.7789L93.7635 57.5116C93.6529 57.4708 93.53 57.4797 93.4264 57.5361L90.4322 59.1687C90.2494 59.2684 90.1709 59.4896 90.2501 59.6821L99.3688 81.858C99.4316 82.0104 99.5798 82.1102 99.7446 82.1109L129.142 82.247C129.143 82.2471 129.143 82.2471 129.144 82.2471ZM139.629 75.3399C136.699 78.6241 132.809 80.885 129.115 81.4307L100.02 81.296L91.1444 59.7102L93.6544 58.3417L139.629 75.3399Z" fill="#3C4043"/>
<path d="M114.715 34.2012C110.607 37.3169 94.9808 50.548 94.9808 50.548L72.2521 53.8132L73.0888 57.6764L73.8853 61.704H103.147L114.715 59.7993L123.834 38.8479L114.715 34.2012Z" fill="#FFFBEA"/>
<path d="M73.8871 62.1121H103.149C103.171 62.1121 103.193 62.1104 103.215 62.1067L114.783 60.202C114.92 60.1794 115.036 60.0891 115.091 59.9622L124.21 39.0108C124.296 38.8129 124.213 38.5823 124.021 38.4842L114.902 33.8375C114.763 33.7664 114.595 33.7813 114.47 33.876C110.562 36.8401 96.0905 49.0759 94.8082 50.1609L72.1957 53.4093C72.0836 53.4253 71.9832 53.4874 71.9185 53.5803C71.8539 53.6732 71.8307 53.7888 71.8547 53.8996L72.6914 57.7628L73.4864 61.7833C73.5242 61.9743 73.692 62.1121 73.8871 62.1121ZM103.115 61.2959H74.2224L73.491 57.5972L72.7455 54.155L95.0405 50.9521C95.1165 50.9412 95.1878 50.9091 95.2463 50.8596C95.4 50.7294 110.418 38.0166 114.76 34.6816L123.308 39.0373L114.431 59.4328L103.115 61.2959Z" fill="#3C4043"/>
<path d="M102.059 10.2777L105.19 5.78809L114.703 13.166L123.291 21.8418L122.611 22.9301L101.515 11.3661L102.059 10.2777Z" fill="#FFF1ED"/>
<path d="M69.3854 61.6401L61.8702 62.8906C59.1259 63.3501 56.5993 64.6716 54.6569 66.6632L45.9316 75.4805L37.9384 83.5536L25.7684 95.8591L28.1242 97.8495L37.6662 105.91L46.1983 113.114L54.9427 104.178L63.8723 95.0442L70.3601 88.3969L75.1914 86.966" fill="white"/>
<path d="M46.2 113.521C46.3062 113.521 46.4123 113.479 46.4919 113.398L55.2363 104.462L64.166 95.328L70.5798 88.7566L75.3091 87.356C75.5254 87.2919 75.6487 87.0648 75.5846 86.8487C75.5205 86.6325 75.2935 86.5091 75.0771 86.5733L70.2458 88.0041C70.179 88.024 70.1183 88.0606 70.0696 88.1104L63.5817 94.7577L54.6524 103.892L46.1735 112.556L37.9313 105.597L26.3707 95.8308L38.2305 83.8391L46.2235 75.7662L54.9489 66.9488C56.8458 65.0038 59.2623 63.7399 61.9394 63.2917L69.4541 62.0414C69.6765 62.0044 69.8269 61.7942 69.7899 61.5717C69.7529 61.3494 69.5426 61.199 69.3201 61.2361L61.8049 62.4865C58.9551 62.9638 56.3831 64.309 54.3662 66.3768L45.6429 75.1919L37.6499 83.265L25.4797 95.5707C25.3997 95.6517 25.357 95.7623 25.3621 95.8759C25.3671 95.9895 25.4195 96.0959 25.5064 96.1693L45.9366 113.424C46.0131 113.489 46.1067 113.521 46.2 113.521Z" fill="#3C4043"/>
<path d="M84.3491 104.789C82.8024 108.491 79.6811 111.408 74.4478 112.239C70.3253 112.895 68.5723 117.204 69.8204 121.574L97.5848 121.584L105.034 112.721L106.835 121.593H113.268L107.913 95.9448" fill="#E7F1FF"/>
<path d="M106.837 121.999H113.269C113.392 121.999 113.509 121.944 113.586 121.849C113.664 121.753 113.694 121.628 113.669 121.508L108.315 95.8601C108.269 95.6394 108.053 95.4976 107.832 95.5439C107.611 95.5899 107.47 95.8062 107.516 96.0269L112.767 121.183H107.171L105.436 112.638C105.404 112.485 105.288 112.363 105.136 112.324C104.984 112.285 104.824 112.337 104.723 112.457L97.3965 121.175L70.135 121.164C69.5545 118.881 69.8149 116.652 70.8627 115.009C71.6924 113.708 72.9549 112.889 74.5139 112.641C79.4178 111.861 82.9498 109.2 84.7278 104.945C84.8147 104.737 84.7165 104.498 84.5084 104.411C84.3004 104.324 84.0612 104.422 83.9743 104.63C82.3112 108.611 78.9955 111.102 74.3857 111.835C72.5893 112.12 71.133 113.066 70.1742 114.57C68.9557 116.481 68.6843 119.074 69.4297 121.684C69.4798 121.859 69.6399 121.98 69.8223 121.98L97.5866 121.991H97.5868C97.7074 121.991 97.8218 121.938 97.8994 121.846L104.804 113.63L106.437 121.672C106.476 121.863 106.643 121.999 106.837 121.999ZM69.8223 121.572H69.8209H69.8223Z" fill="#3C4043"/>
<path d="M101.43 81.7765L105.442 90.4836L107.959 95.9446L84.396 104.788L82.6539 101.386L77.3991 91.1162L68.5539 73.8163C66.8179 69.7205 67.2274 65.0305 69.6468 61.2972C71.5656 58.3284 74.578 56.2923 77.9691 55.5815H92.2577" fill="white"/>
<path d="M84.3979 105.196C84.4457 105.196 84.4943 105.188 84.5414 105.17L108.104 96.3268C108.211 96.287 108.295 96.2048 108.338 96.0999C108.382 95.995 108.379 95.8769 108.332 95.7739L101.803 81.6059C101.709 81.4011 101.466 81.3116 101.261 81.4059C101.056 81.5002 100.967 81.7426 101.061 81.9473L107.406 95.7168L84.5952 104.278L77.7643 90.9305L68.926 73.6439C67.247 69.6709 67.645 65.1395 69.9912 61.5192C71.8118 58.7022 74.7339 56.6888 78.0135 55.9896H92.2595C92.485 55.9896 92.6678 55.8069 92.6678 55.5815C92.6678 55.3561 92.485 55.1733 92.2595 55.1733H77.9709C77.9427 55.1733 77.9147 55.1762 77.8871 55.182C74.3788 55.9174 71.2511 58.0656 69.3057 61.0758C66.8096 64.9272 66.3887 69.7498 68.1799 73.9756C68.1837 73.9846 68.1878 73.9934 68.1923 74.0021L77.0374 91.302L82.2922 101.572L84.0344 104.974C84.106 105.114 84.2485 105.196 84.3979 105.196Z" fill="#3C4043"/>
<path d="M126.001 31.4194C129.801 32.057 133.192 34.176 135.463 37.2536L135.463 37.2537L153.625 60.9418C156.642 64.7832 155.973 70.3421 152.13 73.3582C150.572 74.581 148.648 75.2457 146.667 75.2458C146.553 75.2458 146.436 75.2459 146.32 75.2391L113.425 73.9507C109.626 73.8027 106.48 71.2809 105.361 67.8696" fill="#FFFBEA"/>
<path d="M146.668 75.6542C148.731 75.654 150.761 74.9527 152.383 73.6794C154.327 72.1534 155.561 69.9619 155.856 67.5084C156.152 65.055 155.474 62.6334 153.947 60.6898L135.798 37.0188C135.796 37.0163 135.794 37.0137 135.792 37.0113C133.423 33.8 129.97 31.6713 126.069 31.0169C125.847 30.9797 125.636 31.1295 125.599 31.3518C125.562 31.5741 125.712 31.7846 125.934 31.8219C129.619 32.4399 132.883 34.4502 135.126 37.4826C135.13 37.4891 135.135 37.4956 135.139 37.5019L153.302 61.1902C154.697 62.966 155.315 65.174 155.046 67.4109C154.776 69.6478 153.651 71.646 151.879 73.0373C150.399 74.1982 148.549 74.8376 146.668 74.8377C146.561 74.8377 146.449 74.8377 146.345 74.8316L113.442 73.5428C109.934 73.4062 106.843 71.0752 105.75 67.7424C105.68 67.5283 105.449 67.4115 105.235 67.4817C105.02 67.5519 104.904 67.7825 104.974 67.9967C106.173 71.652 109.563 74.2086 113.41 74.3584L146.305 75.6468C146.425 75.6542 146.549 75.6542 146.668 75.6542Z" fill="#3C4043"/>
<path d="M117.684 63.7854C117.88 68.547 112.491 72.5142 108.363 69.5552C108.307 69.5144 108.253 69.4749 108.199 69.4341C106.412 68.0654 104.389 66.9852 101.291 68.0886C99.1134 68.864 95.9627 70.366 95.3026 68.2559C94.8508 66.7934 98.4601 64.886 101.072 63.3827C96.7643 63.7527 91.1244 64.2275 90.8453 62.2711C90.5663 60.3148 94.633 59.5855 100.22 59.142C94.011 58.5366 90.6534 59.0822 90.6044 57.1707C90.5269 54.0171 103.313 54.5014 107.686 55.8646C107.686 55.8646 108.736 56.1639 112.564 57.0428C116.482 57.9462 117.581 61.2889 117.684 63.7854Z" fill="#FFF1ED"/>
<path d="M111.45 70.986C112.415 70.986 113.395 70.733 114.338 70.2242C116.69 68.9551 118.199 66.3605 118.092 63.7679C118.092 63.7679 118.092 63.7679 118.092 63.7677C118.019 61.9858 117.341 57.7245 112.656 56.6444C108.892 55.7803 107.809 55.4744 107.798 55.4714C104.073 54.3101 93.7021 53.7038 90.9583 55.7738C90.312 56.2615 90.1872 56.8076 90.1963 57.1799C90.2286 58.4395 91.4414 58.7466 91.8399 58.8474C92.7334 59.0735 94.0313 59.1448 95.6727 59.2321C92.9464 59.658 91.4551 60.2314 90.7987 61.0513C90.4948 61.4308 90.3745 61.8603 90.4412 62.3279C90.7183 64.2707 94.3399 64.3093 99.2813 63.9371C96.7531 65.4002 94.4567 66.9 94.9126 68.3755C95.0811 68.9142 95.3978 69.2995 95.8544 69.5222C97.0581 70.1095 98.9522 69.3975 100.623 68.7697C100.901 68.6652 101.172 68.5636 101.428 68.4721C104.173 67.4945 106.021 68.2788 107.951 69.7573C107.999 69.794 108.048 69.8299 108.099 69.8668L108.122 69.8838C109.144 70.6171 110.286 70.986 111.45 70.986ZM117.276 63.8015C117.371 66.0894 116.034 68.3818 113.95 69.506C112.154 70.4752 110.204 70.3721 108.601 69.2229L108.58 69.208C108.536 69.1752 108.491 69.143 108.448 69.1099C106.595 67.6901 104.428 66.5374 101.154 67.7035C100.893 67.7964 100.619 67.8995 100.336 68.0058C98.8942 68.5475 97.1001 69.2219 96.2126 68.7887C95.9623 68.6667 95.7922 68.4523 95.6925 68.1334C95.3743 67.1034 98.5326 65.3017 100.623 64.1093C100.845 63.9824 101.064 63.8577 101.276 63.7356C101.442 63.6401 101.519 63.4423 101.461 63.2597C101.404 63.0771 101.227 62.9593 101.037 62.9752C97.6954 63.2623 91.4754 63.7967 91.2496 62.2128C91.215 61.9705 91.2744 61.7636 91.4362 61.5614C92.4315 60.3184 96.6705 59.8325 100.252 59.5482C100.463 59.5315 100.626 59.3565 100.628 59.1451C100.63 58.9337 100.47 58.7557 100.259 58.7352C98.5425 58.5678 97.072 58.4895 95.7745 58.4204C92.4903 58.2455 91.0373 58.1274 91.0124 57.1596C91.0058 56.8929 91.149 56.6527 91.4499 56.4255C93.8179 54.6389 103.633 55.028 107.565 56.2536C107.617 56.2689 108.677 56.5687 112.473 57.44C116.61 58.3937 117.21 62.2066 117.276 63.8015Z" fill="#3C4043"/>
<path d="M66.1326 88.8095H70.3612C70.5867 88.8095 70.7695 88.6268 70.7695 88.4013C70.7695 88.1759 70.5867 87.9932 70.3612 87.9932H66.1326C65.9071 87.9932 65.7243 88.1759 65.7243 88.4013C65.7243 88.6268 65.9071 88.8095 66.1326 88.8095Z" fill="#3C4043"/>
<path d="M15.0962 105.849C16.9321 105.849 22.9843 102.899 23.6684 102.563C23.808 102.494 23.8965 102.352 23.8965 102.196C23.8965 102.041 23.808 101.899 23.6684 101.83C22.9843 101.494 16.9321 98.5435 15.0976 98.5435C15.0971 98.5435 15.0965 98.5435 15.0961 98.5435C13.082 98.5435 11.4428 100.181 11.442 102.195V102.196C11.442 104.211 13.0813 105.849 15.0962 105.849ZM22.5494 102.196C20.3713 103.232 16.3265 105.033 15.0976 105.033C13.5315 105.033 12.2586 103.761 12.2586 102.196V102.195C12.2592 100.632 13.5322 99.3597 15.0962 99.3597C15.0968 99.3597 15.0969 99.3597 15.0975 99.3597C16.3267 99.3597 20.3715 101.161 22.5494 102.196Z" fill="#FFDA2D"/>
<path d="M18.246 112.405C18.3832 112.405 18.5211 112.398 18.6593 112.382C19.6293 112.274 20.4991 111.794 21.1083 111.032C22.2533 109.597 23.7231 103.028 23.8869 102.284C23.9204 102.132 23.8645 101.974 23.7429 101.877C23.6214 101.78 23.4551 101.761 23.3144 101.827C22.6245 102.152 16.5413 105.038 15.3963 106.472C14.7874 107.234 14.5117 108.187 14.6199 109.157C14.7282 110.126 15.2077 110.995 15.97 111.604L15.9723 111.606C16.6263 112.128 17.4212 112.405 18.246 112.405ZM22.9024 102.93C22.3528 105.277 21.2372 109.562 20.4701 110.522C19.9972 111.114 19.3217 111.487 18.5686 111.571C17.8153 111.655 17.0743 111.441 16.482 110.968C16.4815 110.968 16.4808 110.967 16.4802 110.967C15.8878 110.494 15.5156 109.819 15.4315 109.066C15.3473 108.314 15.5614 107.573 16.0344 106.982C16.8016 106.021 20.7339 103.985 22.9024 102.93Z" fill="#FFDA2D"/>
<path d="M75.3449 110.915C75.5013 110.915 75.6585 110.905 75.8161 110.885C77.6389 110.653 83.2604 106.957 83.8954 106.536C84.0251 106.451 84.0946 106.298 84.0748 106.144C84.0549 105.99 83.9493 105.86 83.802 105.81C83.0808 105.563 76.7035 103.405 74.8831 103.638C72.8866 103.896 71.4713 105.73 71.7277 107.726C71.8515 108.693 72.345 109.555 73.1173 110.152C73.7637 110.651 74.5409 110.915 75.3449 110.915ZM82.7394 106.315C80.713 107.619 76.9339 109.92 75.7135 110.075C74.9606 110.172 74.2164 109.969 73.6167 109.506C73.0171 109.042 72.6338 108.373 72.5377 107.622V107.621C72.3386 106.072 73.4376 104.648 74.9875 104.447C76.2066 104.292 80.4477 105.565 82.7394 106.315Z" fill="#FFDA2D"/>
<path d="M91.9798 111.112C92.7529 111.112 93.5032 110.867 94.1377 110.4C94.9239 109.822 95.4379 108.972 95.5847 108.008L95.585 108.006C95.8882 106.016 94.5156 104.15 92.5249 103.845C92.5237 103.845 92.5225 103.845 92.5214 103.845C90.7099 103.566 84.2782 105.577 83.5507 105.807C83.4024 105.854 83.2936 105.981 83.2704 106.135C83.247 106.289 83.3131 106.443 83.4408 106.531C84.0666 106.967 89.6072 110.794 91.4221 111.069C91.6084 111.098 91.7949 111.112 91.9798 111.112ZM94.7776 107.883C94.7775 107.884 94.7772 107.886 94.7771 107.887C94.6633 108.634 94.2643 109.294 93.6537 109.743C93.0432 110.192 92.2942 110.376 91.545 110.262C90.3288 110.077 86.5998 107.688 84.602 106.337C86.912 105.64 91.1843 104.465 92.3972 104.651C93.9463 104.887 95.0132 106.337 94.7776 107.883Z" fill="#FFDA2D"/>
<path d="M101.369 9.94804C101.838 7.26599 103.245 4.82419 105.329 3.07271C107.541 1.20654 110.352 0.258552 113.243 0.40426C117.041 0.593639 120.543 2.61355 122.624 5.81177C122.708 5.92986 124.708 8.88523 126.806 8.88523C128.109 8.88523 129.464 8.19152 130.839 6.62003C133.796 3.22086 138.075 1.17443 142.577 1.00532C145.482 0.894577 148.367 1.56176 150.921 2.93544C153.398 4.26789 155.513 6.23134 157.041 8.61844C158.329 10.6963 159.98 11.8522 161.816 11.9609C163.688 12.0696 165.573 11.0635 167.126 9.12141C167.31 8.84578 167.511 8.57205 167.72 8.30934C170.016 5.40539 173.455 3.65894 177.155 3.51799C180.55 3.39079 183.789 4.60488 186.278 6.93852C188.765 9.27079 190.204 12.4417 190.331 15.8671C190.592 22.9413 185.108 28.9112 178.105 29.175C174.041 29.3269 170.132 27.4984 167.642 24.2843C165.982 22.5208 164.066 21.6721 162.246 21.8947C160.489 22.1094 158.963 23.287 157.834 25.3005C155.102 30.6212 149.728 34.0649 143.807 34.2879C143.599 34.2958 143.391 34.2996 143.183 34.2996C136.782 34.2996 130.964 30.5747 128.244 24.6784C127.206 22.4679 125.932 21.044 124.995 21.044C124.991 21.044 124.987 21.044 124.984 21.044C124.42 21.0511 123.902 21.5836 123.443 22.627C123.38 22.7692 123.242 22.8632 123.087 22.8702C122.931 22.8768 122.786 22.7952 122.711 22.6593C122.697 22.6337 121.277 20.1044 119.11 20.0555C118.985 20.0526 123.796 20.2591 125.132 15.3134C125.905 11.4039 120.759 5.80972 115.423 11.2951C114.931 11.801 114.586 13.9904 114.519 13.9696C113.253 13.5759 111.855 13.1442 110.359 11.8554C109.145 10.8094 105.9 7.88664 104.876 6.9626L102.083 10.2812C101.964 10.4224 101.766 10.4664 101.599 10.3883C101.431 10.3102 101.337 10.1298 101.369 9.94804Z" fill="#3C4043"/>
<path d="M127.891 57.23C128.043 57.23 128.184 57.1445 128.254 57.0076C128.327 56.8658 128.31 56.6951 128.212 56.5699L123.258 50.2614C122.199 48.9185 121.583 47.3075 121.475 45.6021C121.461 45.3771 121.267 45.2054 121.042 45.2207C120.817 45.2348 120.646 45.4288 120.66 45.6537C120.779 47.5252 121.455 49.293 122.616 50.766L127.024 56.3793L114.135 55.8701C114.134 55.8701 114.133 55.87 114.132 55.87C113.118 55.8305 112.114 55.9545 111.15 56.2389C110.933 56.3027 110.81 56.5297 110.873 56.7458C110.937 56.962 111.164 57.0856 111.381 57.0219C112.259 56.7627 113.173 56.6499 114.098 56.6856C114.099 56.6856 114.1 56.6857 114.101 56.6857L127.874 57.2299C127.88 57.2299 127.885 57.23 127.891 57.23Z" fill="#3C4043"/>
<path d="M126.846 31.5884C127.888 32.1958 128.494 33.525 128.494 35.0523C128.494 38.5433 125.092 41.3744 120.881 41.3744C116.832 41.3744 113.531 38.7573 113.282 35.4527L114.586 34.3005" fill="#FFFBEA"/>
<path d="M120.883 41.781C125.306 41.781 128.904 38.7618 128.904 35.0507C128.904 33.3365 128.212 31.9098 127.053 31.2343C126.858 31.1208 126.608 31.1866 126.495 31.3814C126.381 31.5761 126.447 31.826 126.642 31.9396C127.534 32.4594 128.088 33.6515 128.088 35.0509C128.088 38.3118 124.855 40.9649 120.883 40.9649C117.165 40.9649 114.061 38.6326 113.71 35.6194L114.858 34.6049C115.027 34.4555 115.043 34.1977 114.893 34.0287C114.744 33.8598 114.486 33.8441 114.317 33.9934L113.014 35.1455C112.918 35.2302 112.867 35.3545 112.877 35.4819C113.142 39.0139 116.659 41.781 120.883 41.781Z" fill="#3C4043"/>
<path d="M123.069 22.477L125.946 31.2412C126.171 31.9227 126.269 32.6399 126.233 33.3568C126.124 35.7239 124.578 37.7836 122.335 38.5497C119.349 39.549 116.118 37.9395 115.119 34.9549C115.113 34.9374 114.59 33.4289 114.59 33.4289L113.775 30.9721C113.11 31.0633 112.432 31.0955 111.745 31.063C105.633 30.7582 100.923 25.5027 101.223 19.3261C101.287 17.9647 101.597 16.642 102.125 15.4161C101.972 14.9361 101.85 14.4432 101.762 13.9386C101.54 12.6412 101.543 11.3153 101.772 10.019" fill="#FFF1ED"/>
<path d="M120.519 39.2554C121.172 39.2554 121.827 39.1496 122.465 38.9364C124.885 38.1096 126.524 35.927 126.641 33.3751C126.679 32.6066 126.576 31.8449 126.333 31.1127L123.457 22.3494C123.386 22.1353 123.156 22.0185 122.941 22.0889C122.727 22.1592 122.61 22.3898 122.681 22.6039L125.558 31.3682C125.768 32.0051 125.858 32.667 125.825 33.3361C125.723 35.5523 124.301 37.4464 122.203 38.1632C120.864 38.6111 119.429 38.5111 118.164 37.8808C116.898 37.2505 115.954 36.1652 115.505 34.8251C115.5 34.8075 114.975 33.295 114.975 33.295L114.162 30.8434C114.1 30.6568 113.914 30.5407 113.719 30.5675C113.071 30.6564 112.413 30.6857 111.764 30.6551C105.888 30.3621 101.341 25.2887 101.631 19.3457C101.691 18.0429 101.984 16.7754 102.5 15.5773C102.538 15.4871 102.543 15.386 102.514 15.2924C102.364 14.8205 102.246 14.3415 102.164 13.8687C101.949 12.6149 101.952 11.3432 102.174 10.09C102.213 9.86792 102.065 9.65623 101.842 9.61705C101.621 9.57814 101.409 9.72603 101.369 9.94806C101.132 11.2944 101.128 12.6602 101.359 14.0076C101.439 14.4688 101.551 14.9345 101.69 15.3946C101.172 16.6419 100.878 17.9573 100.815 19.3072C100.504 25.6984 105.398 31.1552 111.725 31.4707C112.312 31.4985 112.905 31.4807 113.492 31.4178L114.202 33.5574C114.204 33.5628 114.718 35.0458 114.732 35.0864C115.249 36.6315 116.339 37.8841 117.8 38.6116C118.659 39.0392 119.586 39.2554 120.519 39.2554Z" fill="#3C4043"/>
<path d="M113.768 31.3919C113.787 31.3919 113.805 31.3907 113.824 31.3881C115.853 31.111 117.772 30.2907 119.373 29.0161C119.55 28.8757 119.579 28.619 119.438 28.4425C119.298 28.2662 119.041 28.2371 118.865 28.3773C117.378 29.5605 115.597 30.3219 113.714 30.5793C113.49 30.6098 113.334 30.8156 113.364 31.039C113.392 31.2436 113.568 31.3919 113.768 31.3919Z" fill="#3C4043"/>
<path d="M104.888 22.0359C105.03 22.0359 105.169 21.9615 105.244 21.829C105.355 21.6329 105.286 21.3838 105.09 21.2727L103.001 20.0884L105.111 16.0198C105.215 15.8197 105.137 15.5733 104.936 15.4697C104.736 15.366 104.49 15.4441 104.386 15.6442L102.095 20.0617C101.994 20.2565 102.066 20.4962 102.256 20.6045L104.687 21.9827C104.751 22.0188 104.82 22.0359 104.888 22.0359Z" fill="#3C4043"/>
<path d="M108.407 17.6228C107.957 17.6228 107.592 17.2542 107.592 16.7997C107.592 16.3451 107.957 15.9766 108.407 15.9766C108.858 15.9766 109.223 16.3451 109.223 16.7997C109.223 17.2542 108.858 17.6228 108.407 17.6228Z" fill="#3C4043"/>
<path d="M102.339 17.8512C101.889 17.8512 101.524 17.4827 101.524 17.0282C101.524 16.5736 101.889 16.2051 102.339 16.2051C102.789 16.2051 103.154 16.5736 103.154 17.0282C103.154 17.4827 102.789 17.8512 102.339 17.8512Z" fill="#3C4043"/>
<path d="M106.57 25.2752C106.681 25.2752 106.793 25.2685 106.905 25.2552C107.64 25.1673 108.297 24.7985 108.755 24.2166C108.823 24.1296 108.887 24.0375 108.944 23.9431L109.001 23.8531C109.12 23.6618 109.061 23.4099 108.87 23.2908C108.679 23.1716 108.427 23.2301 108.308 23.4214L108.249 23.5153C108.206 23.5856 108.161 23.6505 108.113 23.712C107.79 24.1224 107.326 24.3827 106.808 24.4446C106.289 24.5066 105.777 24.363 105.367 24.0401L105.015 23.7668C104.837 23.6283 104.581 23.6603 104.442 23.8382C104.304 24.0162 104.336 24.2725 104.514 24.411L104.863 24.6831C105.356 25.07 105.952 25.2752 106.57 25.2752Z" fill="#3C4043"/>
<path d="M119.118 19.6498C119.366 19.6852 119.618 19.7035 119.875 19.7035C122.831 19.7035 125.227 17.2823 125.227 14.2956C125.227 11.3089 122.831 8.8877 119.875 8.8877C117.165 8.8877 114.926 10.9231 114.572 13.5635" fill="#FFF1ED"/>
<path d="M119.877 20.1106C123.053 20.1106 125.637 17.5016 125.637 14.2946C125.637 11.0875 123.053 8.47852 119.877 8.47852C117.007 8.47852 114.553 10.6409 114.169 13.5084C114.14 13.7317 114.296 13.9372 114.52 13.967C114.744 13.9968 114.949 13.84 114.979 13.6166C115.309 11.1528 117.415 9.2948 119.877 9.2948C122.603 9.2948 124.82 11.5377 124.82 14.2946C124.82 17.0515 122.603 19.2943 119.877 19.2943C119.643 19.2943 119.408 19.2776 119.178 19.2448C118.955 19.2127 118.748 19.3678 118.716 19.5911C118.684 19.8142 118.839 20.021 119.062 20.0529C119.33 20.0912 119.604 20.1106 119.877 20.1106Z" fill="#3C4043"/>
<path d="M121.557 16.3847C121.754 16.3847 121.928 16.2413 121.96 16.0402C121.995 15.8177 121.843 15.6086 121.62 15.5733L118.635 15.1015L121.45 12.7207C121.622 12.5751 121.644 12.3176 121.498 12.1455C121.352 11.9734 121.095 11.952 120.923 12.0976L117.428 15.0539C117.306 15.157 117.255 15.3216 117.298 15.4754C117.341 15.6291 117.47 15.7437 117.628 15.7686L121.493 16.3794C121.514 16.3831 121.536 16.3847 121.557 16.3847Z" fill="#3C4043"/>
<path d="M85.9978 75.8535C82.465 75.8535 79.6011 72.9907 79.6011 69.4592C79.6011 65.9278 82.465 63.0649 85.9978 63.0649C89.5306 63.0649 92.3945 65.9278 92.3945 69.4592C92.3945 72.9907 89.5306 75.8535 85.9978 75.8535Z" fill="white"/>
<path d="M93.956 55.9202H86.0248L82.6907 34.026C82.4228 32.2669 80.9072 30.9672 79.1247 30.9683H48.1975C46.2065 30.9678 44.5922 32.5787 44.5918 34.566C44.5918 34.7478 44.6056 34.9293 44.6329 35.109L48.19 58.4549H86.4109H91.0933" fill="#FFED96"/>
<path d="M91.0931 58.902H48.1897C47.9678 58.902 47.7793 58.7402 47.7459 58.5212L44.1888 35.1752C44.1581 34.974 44.1426 34.7686 44.1426 34.5649C44.143 32.334 45.9618 30.519 48.1965 30.519C48.1968 30.519 48.1969 30.519 48.1972 30.519H79.1243C79.125 30.519 79.1259 30.519 79.1267 30.519C81.1455 30.519 82.8307 31.9647 83.1342 33.9575L86.4104 55.4708H93.9556C94.2036 55.4708 94.4046 55.6714 94.4046 55.9189C94.4046 56.1664 94.2036 56.3671 93.9556 56.3671H86.0244C85.8025 56.3671 85.6139 56.2053 85.5806 55.9863L82.2465 34.0921C82.0105 32.5408 80.6982 31.4153 79.1265 31.4153C79.1259 31.4153 79.1255 31.4153 79.1247 31.4153H48.1972C48.1971 31.4153 48.1968 31.4153 48.1966 31.4153C46.4565 31.4153 45.0407 32.8281 45.0405 34.565C45.0405 34.7237 45.0526 34.8837 45.0765 35.0405L48.5755 58.0057H91.0931C91.341 58.0057 91.542 58.2063 91.542 58.4538C91.542 58.7014 91.341 58.902 91.0931 58.902Z" fill="#3C4043"/>
<path d="M65.265 48.7794C66.2171 47.8575 66.0839 46.1788 64.9675 45.0299C63.8511 43.8811 62.1742 43.6972 61.2221 44.6192C60.2699 45.5412 60.4031 47.2199 61.5195 48.3687C62.6359 49.5175 64.3128 49.7014 65.265 48.7794Z" fill="white"/>
</svg>
