<svg width="586" height="391" viewBox="0 0 586 391" fill="none" xmlns="http://www.w3.org/2000/svg">
<g clip-path="url(#clip0)">
<path d="M274.932 260.504H170.429V455.515H274.932V260.504Z" fill="#E7F1FF"/>
<path d="M223.371 146.976C220.525 149.096 217.144 151.591 214.698 153.304C208.53 157.658 188.746 164.939 187.271 160.004C186.376 157.005 191.914 156.134 201.347 152.022C192.374 154.199 185.626 155.142 185.07 151.973C184.513 148.805 193.608 146.652 200.525 145.031C195.663 144.039 189.06 142.927 189.012 140.435C188.964 136.831 194.672 137.557 198.469 137.629C206.91 137.823 208.023 133.856 211.481 129.768C212.529 128.567 213.817 127.599 215.262 126.925" fill="#FFF1ED"/>
<path d="M190.93 162.37C190.105 162.393 189.282 162.28 188.493 162.037C187.228 161.6 186.751 160.804 186.575 160.212C185.972 158.19 187.747 157.075 188.331 156.709C189.523 155.959 191.324 155.24 193.589 154.364C189.439 154.996 186.966 154.835 185.575 153.925C185.254 153.724 184.979 153.458 184.768 153.143C184.558 152.828 184.417 152.472 184.355 152.099C183.799 148.934 189.343 147.021 197.163 145.09C192.544 144.123 188.335 142.96 188.287 140.449C188.266 140.027 188.334 139.605 188.487 139.211C188.64 138.817 188.875 138.46 189.175 138.162C190.757 136.619 194.082 136.745 197.014 136.856C197.522 136.876 198.017 136.895 198.483 136.903C205.056 137.054 206.894 134.593 209.225 131.477C209.753 130.772 210.299 130.042 210.927 129.299C212.042 128.021 213.411 126.99 214.947 126.271C215.119 126.195 215.314 126.189 215.491 126.253C215.668 126.318 215.812 126.449 215.894 126.619C215.976 126.789 215.989 126.983 215.93 127.162C215.871 127.341 215.744 127.49 215.577 127.577C214.225 128.208 213.019 129.113 212.036 130.235C211.435 130.945 210.902 131.657 210.387 132.346C207.908 135.66 205.76 138.522 198.453 138.353C197.981 138.344 197.477 138.325 196.959 138.305C194.448 138.209 191.323 138.091 190.189 139.2C190.03 139.36 189.907 139.552 189.83 139.763C189.752 139.974 189.72 140.2 189.738 140.424C189.771 142.134 195.862 143.354 199.501 144.083C199.899 144.163 200.29 144.241 200.67 144.319C200.832 144.352 200.978 144.44 201.083 144.567C201.189 144.694 201.248 144.854 201.25 145.02C201.253 145.185 201.198 145.346 201.097 145.477C200.995 145.607 200.852 145.699 200.69 145.737C197.404 146.506 193.314 147.465 190.247 148.601C186.135 150.125 185.687 151.288 185.784 151.847C185.813 152.024 185.881 152.194 185.982 152.343C186.083 152.492 186.215 152.617 186.37 152.709C188.568 154.147 195.872 152.602 201.176 151.315C201.353 151.273 201.538 151.298 201.697 151.386C201.856 151.473 201.976 151.617 202.034 151.789C202.092 151.961 202.083 152.149 202.01 152.315C201.936 152.481 201.803 152.613 201.637 152.686C199.036 153.819 196.776 154.691 194.779 155.46C189.737 157.403 187.527 158.324 187.966 159.795C188.009 159.939 188.14 160.379 188.967 160.664C193.549 162.248 208.725 156.631 214.28 152.71C216.257 151.325 219.089 149.259 222.938 146.393C223.015 146.336 223.102 146.295 223.194 146.271C223.286 146.248 223.382 146.243 223.477 146.257C223.571 146.27 223.662 146.303 223.743 146.352C223.825 146.4 223.897 146.465 223.954 146.541C224.011 146.618 224.052 146.705 224.075 146.797C224.098 146.889 224.103 146.985 224.09 147.08C224.076 147.174 224.044 147.265 223.995 147.347C223.946 147.428 223.882 147.5 223.805 147.557C219.944 150.432 217.102 152.506 215.115 153.897C210.482 157.168 197.634 162.37 190.93 162.37Z" fill="#3C4043"/>
<path d="M214.205 136.829C212.226 138.851 210.532 141.425 208.313 143.676C203.572 148.514 200.96 152.021 201.42 153.569C202.435 157.101 210.872 148.834 218.974 144.456" fill="#FFF1ED"/>
<path d="M202.522 155.15C202.291 155.153 202.061 155.115 201.843 155.04C201.565 154.939 201.317 154.77 201.121 154.548C200.926 154.326 200.788 154.059 200.722 153.77C200.364 152.564 200.843 150.263 207.794 143.169C208.886 142.025 209.92 140.827 210.891 139.578C211.826 138.417 212.709 137.32 213.685 136.322C213.82 136.184 214.004 136.106 214.196 136.104C214.389 136.101 214.574 136.176 214.712 136.31C214.849 136.445 214.928 136.629 214.93 136.821C214.932 137.014 214.858 137.199 214.723 137.337C213.796 138.285 212.933 139.355 212.022 140.488C211.021 141.774 209.955 143.009 208.829 144.186C202.292 150.858 201.956 152.827 202.115 153.363C202.19 153.624 202.283 153.656 202.327 153.672C203.38 154.043 206.957 151.532 210.115 149.318C212.734 147.481 215.702 145.399 218.628 143.818C218.712 143.773 218.804 143.745 218.899 143.735C218.994 143.725 219.089 143.734 219.181 143.762C219.272 143.789 219.357 143.834 219.431 143.894C219.505 143.954 219.566 144.028 219.612 144.112C219.657 144.196 219.685 144.288 219.695 144.383C219.705 144.477 219.696 144.573 219.669 144.664C219.641 144.756 219.596 144.841 219.536 144.915C219.476 144.989 219.402 145.05 219.318 145.095C216.466 146.636 213.534 148.692 210.947 150.506C206.84 153.386 204.23 155.15 202.522 155.15Z" fill="#3C4043"/>
<path d="M250.732 104.609L221.361 120.572C217.979 122.41 215.466 125.516 214.374 129.207C213.283 132.898 213.702 136.872 215.54 140.254C217.377 143.636 220.483 146.149 224.174 147.241C227.865 148.333 231.838 147.914 235.22 146.076L244.711 140.918L254.143 114.104L250.732 104.609Z" fill="#FFED96"/>
<path d="M228.303 148.566C224.914 148.568 221.621 147.44 218.944 145.361C216.268 143.282 214.361 140.369 213.525 137.085C212.689 133.8 212.971 130.33 214.328 127.224C215.684 124.118 218.037 121.553 221.015 119.934L250.386 103.972C250.478 103.922 250.579 103.892 250.684 103.885C250.788 103.878 250.893 103.894 250.99 103.931C251.088 103.969 251.177 104.027 251.25 104.101C251.323 104.176 251.38 104.266 251.415 104.364L254.825 113.859C254.882 114.016 254.882 114.188 254.827 114.345L245.394 141.159C245.334 141.328 245.214 141.47 245.056 141.555L235.565 146.714C233.336 147.925 230.84 148.562 228.303 148.566ZM250.335 105.651L221.708 121.209C220.117 122.074 218.712 123.243 217.573 124.651C216.434 126.058 215.584 127.676 215.07 129.413C214.557 131.149 214.39 132.969 214.58 134.77C214.77 136.571 215.313 138.316 216.177 139.907C217.041 141.498 218.211 142.903 219.618 144.042C221.025 145.181 222.643 146.032 224.379 146.545C226.116 147.059 227.936 147.225 229.736 147.035C231.537 146.846 233.282 146.303 234.873 145.438L244.118 140.414L253.373 114.107L250.335 105.651Z" fill="#3C4043"/>
<path d="M302.994 74.6612C304.697 73.7325 306.57 73.1559 308.501 72.9658L324.222 84.9129C324.493 86.4671 324.509 88.0551 324.268 89.6143L299.373 100.558L302.994 74.6612Z" fill="#FFED96"/>
<path d="M299.372 101.284C299.268 101.284 299.166 101.262 299.071 101.218C298.977 101.175 298.893 101.113 298.825 101.034C298.757 100.956 298.706 100.864 298.677 100.765C298.647 100.665 298.639 100.561 298.653 100.458L302.275 74.5607C302.291 74.4483 302.332 74.3411 302.397 74.2478C302.462 74.1545 302.547 74.0777 302.647 74.0234C304.435 73.0472 306.402 72.442 308.43 72.2441C308.612 72.2264 308.794 72.2783 308.939 72.3892L324.66 84.3364C324.806 84.4471 324.904 84.6087 324.936 84.7889C325.222 86.4209 325.238 88.0886 324.984 89.7259C324.966 89.8464 324.917 89.9604 324.843 90.0572C324.769 90.1539 324.671 90.2304 324.559 90.2795L299.664 101.222C299.572 101.263 299.473 101.284 299.372 101.284ZM303.661 75.1296L300.271 99.3704L323.604 89.1127C323.763 87.8505 323.746 86.5723 323.552 85.315L308.29 73.7175C306.675 73.9091 305.108 74.3873 303.661 75.1296Z" fill="#3C4043"/>
<path d="M360.517 104.297C359.175 100.049 356.317 96.4438 352.488 94.1681C348.659 91.8925 344.126 91.1058 339.754 91.9582L323.8 94.2694L301.548 117.249L291.837 130.603L261.757 106.86C260.494 107.256 259.264 107.749 258.077 108.334C246.635 113.974 241.376 126.966 245.714 138.054L235.909 166.027C231.314 169.801 223.671 176.114 215.713 182.887C210.997 186.878 206.184 191.062 201.855 194.981C196.413 199.891 191.721 204.366 188.867 207.583L216.052 231.603C222.534 224.298 248.123 202.818 262.756 190.966C265.368 188.842 267.343 186.038 268.464 182.862L280.449 148.651C280.615 148.55 304.772 140.813 304.772 140.813L304.143 140.315L304.452 140.47L316.067 123.674L306.121 138.223L336.621 156.11L351.665 131.002L358.8 119.101C359.139 118.53 359.446 117.94 359.719 117.335C361.608 113.242 361.893 108.59 360.517 104.297Z" fill="white"/>
<path d="M183.721 229.611L171.178 244.395L164.297 238.514L189.406 209.111L215.754 231.556L207.31 242.644C207.31 242.645 207.31 242.645 207.31 242.645C206.96 243.103 206.704 243.626 206.557 244.183C206.411 244.741 206.375 245.322 206.454 245.894C206.533 246.465 206.724 247.015 207.016 247.512C207.308 248.008 207.695 248.442 208.155 248.789C208.55 249.091 208.994 249.322 209.467 249.472L209.488 249.478L209.509 249.483C212.729 250.205 214.735 251.42 215.903 253.195C217.026 254.899 217.435 257.204 217.274 260.303L189.993 260.492L182.781 254.319L184.6 229.972L184.715 228.439L183.721 229.611Z" fill="#E7F1FF" stroke="#3C4043"/>
<path d="M245.85 172.703C250.605 172.703 254.46 168.848 254.46 164.092C254.46 159.336 250.605 155.481 245.85 155.481C241.094 155.481 237.239 159.336 237.239 164.092C237.239 168.848 241.094 172.703 245.85 172.703Z" fill="#E7F1FF"/>
<path d="M217.188 187.894C217.194 189.67 216.69 191.411 215.736 192.91C214.782 194.408 213.418 195.602 211.806 196.348C210.194 197.094 208.402 197.362 206.642 197.12C204.882 196.878 203.229 196.135 201.878 194.981C206.208 191.063 211.021 186.878 215.737 182.887C216.682 184.386 217.185 186.122 217.188 187.894Z" fill="#E7F1FF"/>
<path d="M278.163 155.19L272.673 170.889C271.35 170.797 270.066 170.401 268.921 169.732C267.776 169.063 266.801 168.138 266.072 167.031C265.342 165.923 264.878 164.662 264.716 163.346C264.553 162.03 264.696 160.694 265.134 159.442C265.572 158.19 266.292 157.057 267.24 156.129C268.187 155.201 269.336 154.504 270.597 154.093C271.857 153.681 273.196 153.566 274.508 153.757C275.82 153.947 277.071 154.438 278.163 155.19Z" fill="#E7F1FF"/>
<path d="M300.519 130.81C300.424 131.006 287.89 139.049 286.902 139.924C287.216 141.033 287.749 142.067 288.47 142.965C289.192 143.863 290.087 144.607 291.102 145.152L302.88 141.427C303.773 139.657 304.025 137.632 303.595 135.697C303.164 133.762 302.078 132.035 300.519 130.81Z" fill="#E7F1FF"/>
<path d="M316.134 123.713C315.567 124.659 308.182 135.555 308.024 135.613C308.618 137.048 309.588 138.297 310.833 139.225C312.078 140.154 313.551 140.729 315.095 140.889C316.64 141.049 318.199 140.788 319.608 140.134C321.017 139.479 322.222 138.456 323.097 137.173C323.971 135.889 324.483 134.393 324.576 132.843C324.67 131.293 324.343 129.746 323.629 128.366C322.915 126.987 321.842 125.826 320.522 125.007C319.203 124.188 317.686 123.741 316.134 123.713Z" fill="#E7F1FF"/>
<path d="M342.498 91.4287C340.975 91.5255 330.269 95.1141 330.158 95.3676C332.238 95.416 340.406 94.9537 341.576 97.3315C342.881 99.9819 329.186 102.72 329.104 102.771C329.332 103.247 336.079 105.719 336.978 107.348C338.936 107.593 340.918 107.158 342.594 106.116C344.27 105.074 345.537 103.488 346.183 101.624C346.83 99.7594 346.816 97.7296 346.146 95.8738C345.475 94.018 344.187 92.4488 342.498 91.4287Z" fill="#E7F1FF"/>
<path d="M235.957 206.664C240.712 206.664 244.567 202.809 244.567 198.053C244.567 193.297 240.712 189.442 235.957 189.442C231.202 189.442 227.347 193.297 227.347 198.053C227.347 202.809 231.202 206.664 235.957 206.664Z" fill="#FFF1ED"/>
<path d="M359.96 117.093C359.688 117.699 359.381 118.288 359.041 118.859L351.906 130.76C350.496 130.573 349.155 130.039 348.001 129.207C346.847 128.375 345.918 127.271 345.295 125.992C344.672 124.713 344.376 123.3 344.433 121.879C344.489 120.457 344.897 119.072 345.619 117.847C346.341 116.621 347.355 115.594 348.571 114.856C349.787 114.118 351.167 113.693 352.587 113.618C354.007 113.544 355.424 113.822 356.711 114.428C357.997 115.035 359.114 115.95 359.96 117.093Z" fill="#FFF1ED"/>
<path d="M306.313 138.256L335.961 156.164L330.882 165.744L330.882 165.745C329.929 167.55 329.732 169.659 330.334 171.609C330.935 173.558 332.285 175.189 334.088 176.144C334.355 176.287 334.629 176.416 334.911 176.529L334.962 176.55L335.016 176.559C341.198 177.57 345.11 183.727 344.765 190.121L320.569 189.838L309.388 183.801L306.037 159.621L305.825 158.096L305.1 159.454L295.976 176.549L288.007 172.281L304.814 141.042L304.814 141.042L306.313 138.256Z" fill="#E7F1FF" stroke="#3C4043"/>
<path d="M262.793 85.2742C260.278 83.3633 256.105 78.6085 254.194 81.1241L244.641 93.5088C244.186 94.1057 243.853 94.7865 243.662 95.5122C243.47 96.2378 243.424 96.9941 243.525 97.7378C243.626 98.4814 243.872 99.1979 244.251 99.846C244.629 100.494 245.131 101.061 245.729 101.515L250.495 105.146L262.793 85.2742Z" fill="#7027E5"/>
<path d="M270.984 89.1065C271.565 87.6496 272.031 86.2573 273.063 85.0427C273.107 84.9924 273.156 84.9471 273.209 84.9075C273.012 84.7036 272.8 84.5145 272.575 84.3417L263.916 77.7382C263.324 77.2848 262.648 76.9527 261.928 76.7608C261.207 76.5689 260.456 76.521 259.717 76.6199C258.978 76.7187 258.265 76.9624 257.621 77.3369C256.976 77.7114 256.411 78.2095 255.959 78.8025L254.193 81.1246L269.165 92.5538C269.773 91.4029 270.502 90.3164 270.984 89.1065Z" fill="#B893F2"/>
<path d="M318.022 90.9707C319.122 90.4313 320.378 89.9216 321.624 89.7888C321.192 87.9273 320.544 86.1226 319.693 84.4111C318.762 85.4575 317.772 86.4505 316.759 87.4171C316.922 88.3583 317.447 89.2259 317.756 90.1207C317.853 90.4015 317.939 90.6857 318.022 90.9707Z" fill="#7027E5"/>
<path d="M336.862 156.594C336.733 156.594 336.607 156.559 336.496 156.494L305.994 138.607C305.908 138.557 305.834 138.489 305.775 138.409C305.717 138.328 305.675 138.237 305.653 138.14C305.632 138.043 305.63 137.942 305.649 137.844C305.668 137.747 305.706 137.654 305.762 137.572L315.708 123.023C315.817 122.864 315.984 122.755 316.173 122.719C316.362 122.684 316.558 122.725 316.717 122.833C316.875 122.942 316.985 123.109 317.02 123.298C317.056 123.488 317.015 123.683 316.906 123.842L307.399 137.748L336.609 154.878L351.284 130.387L358.419 118.486C358.743 117.942 359.036 117.379 359.296 116.801C360.631 113.888 361.137 110.664 360.759 107.483C360.381 104.301 359.133 101.285 357.153 98.7664C355.173 96.2477 352.537 94.3236 349.535 93.2055C346.533 92.0873 343.28 91.8185 340.135 92.4284C340.042 92.4467 339.946 92.4465 339.852 92.4277C339.759 92.4089 339.67 92.3718 339.591 92.3187C339.512 92.2655 339.444 92.1973 339.391 92.118C339.338 92.0386 339.302 91.9496 339.283 91.8561C339.265 91.7626 339.265 91.6664 339.284 91.5729C339.303 91.4795 339.34 91.3907 339.393 91.3116C339.446 91.2325 339.514 91.1646 339.594 91.1119C339.673 91.0591 339.762 91.0225 339.856 91.0042C343.262 90.3429 346.785 90.6333 350.037 91.8436C353.289 93.0538 356.144 95.137 358.29 97.8644C360.436 100.592 361.788 103.858 362.199 107.304C362.61 110.749 362.063 114.242 360.619 117.397C360.337 118.024 360.019 118.634 359.668 119.225L352.528 131.133L337.484 156.241C337.42 156.349 337.329 156.438 337.22 156.499C337.111 156.561 336.987 156.594 336.862 156.594Z" fill="#3C4043"/>
<path d="M350.916 167.291C347.646 167.291 334.545 163.842 333.024 163.439C332.877 163.4 332.747 163.316 332.65 163.199C332.553 163.082 332.496 162.937 332.486 162.785C332.476 162.634 332.514 162.483 332.594 162.354C332.674 162.225 332.793 162.125 332.933 162.067C334.425 161.451 347.586 156.041 350.38 155.845C351.134 155.808 351.888 155.921 352.599 156.177C353.309 156.433 353.962 156.826 354.52 157.336C355.341 158.086 355.926 159.059 356.204 160.136C356.482 161.213 356.441 162.348 356.085 163.402C355.73 164.456 355.076 165.384 354.203 166.073C353.329 166.762 352.275 167.182 351.167 167.282H351.159C351.085 167.288 351.004 167.291 350.916 167.291ZM335.505 162.585C340.537 163.875 349.184 165.963 351.053 165.836C351.878 165.758 352.663 165.442 353.313 164.927C353.962 164.411 354.448 163.718 354.712 162.932C354.975 162.146 355.005 161.3 354.798 160.498C354.59 159.695 354.154 158.97 353.543 158.41C353.128 158.03 352.642 157.737 352.114 157.545C351.585 157.354 351.024 157.269 350.463 157.295C348.614 157.424 340.322 160.641 335.505 162.585Z" fill="#FFDA2D"/>
<path d="M333.235 163.487C333.109 163.487 332.986 163.455 332.877 163.393C332.768 163.331 332.676 163.242 332.612 163.134C332.547 163.026 332.512 162.904 332.509 162.778C332.506 162.653 332.536 162.529 332.595 162.418C333.358 160.996 340.113 148.469 342.173 146.555C343.287 145.58 344.736 145.075 346.214 145.146C347.693 145.218 349.087 145.86 350.101 146.938C351.116 148.017 351.673 149.447 351.655 150.927C351.636 152.408 351.044 153.823 350.003 154.876L349.984 154.895C347.949 156.809 335.005 162.749 333.535 163.42C333.441 163.464 333.339 163.487 333.235 163.487ZM345.938 146.584C344.91 146.583 343.917 146.956 343.144 147.634C341.787 148.895 337.41 156.629 334.916 161.185C339.615 158.992 347.597 155.132 348.981 153.848C349.554 153.268 349.949 152.535 350.119 151.737C350.288 150.939 350.225 150.11 349.938 149.346C349.65 148.583 349.15 147.918 348.496 147.431C347.842 146.943 347.062 146.653 346.248 146.596C346.145 146.588 346.041 146.584 345.938 146.584H345.938Z" fill="#FFDA2D"/>
<path d="M210.731 239.924C210.587 239.924 210.446 239.881 210.327 239.8C210.208 239.72 210.115 239.606 210.06 239.473C210.006 239.34 209.992 239.193 210.021 239.052C210.05 238.911 210.12 238.782 210.223 238.681C211.373 237.549 221.531 227.58 224.057 226.354C225.076 225.86 226.218 225.679 227.339 225.834C228.461 225.989 229.511 226.473 230.357 227.225C231.204 227.976 231.808 228.962 232.095 230.057C232.381 231.153 232.336 232.308 231.966 233.378C231.724 234.09 231.343 234.747 230.845 235.31C230.347 235.873 229.742 236.331 229.066 236.658C226.54 237.884 212.423 239.713 210.822 239.918C210.792 239.922 210.761 239.924 210.731 239.924ZM226.547 227.232C225.903 227.232 225.268 227.378 224.689 227.66C223.005 228.477 216.531 234.578 212.8 238.193C217.949 237.491 226.749 236.17 228.433 235.353C229.452 234.852 230.231 233.968 230.599 232.894C230.967 231.821 230.894 230.644 230.396 229.624C230.042 228.906 229.494 228.301 228.813 227.878C228.133 227.455 227.348 227.231 226.547 227.232H226.547Z" fill="#FFDA2D"/>
<path d="M232.738 175.912C232.623 175.912 232.509 175.885 232.406 175.832C232.303 175.778 232.214 175.702 232.147 175.607C232.08 175.513 232.037 175.404 232.02 175.29C232.004 175.175 232.015 175.058 232.053 174.949L235.223 165.79C235.254 165.699 235.302 165.616 235.365 165.544C235.428 165.472 235.505 165.413 235.591 165.371C235.677 165.329 235.77 165.304 235.866 165.298C235.961 165.292 236.057 165.305 236.148 165.337C236.238 165.368 236.321 165.417 236.393 165.481C236.464 165.544 236.522 165.621 236.564 165.708C236.606 165.794 236.63 165.887 236.635 165.983C236.64 166.079 236.626 166.174 236.594 166.264L233.424 175.424C233.375 175.566 233.282 175.69 233.159 175.778C233.036 175.865 232.889 175.912 232.738 175.912Z" fill="#3C4043"/>
<path d="M216.052 232.329C215.875 232.329 215.704 232.264 215.571 232.147L188.386 208.128C188.314 208.064 188.256 207.988 188.214 207.902C188.172 207.816 188.148 207.723 188.142 207.628C188.136 207.533 188.149 207.437 188.18 207.347C188.211 207.257 188.26 207.174 188.323 207.102C190.946 204.146 195.335 199.886 201.368 194.443C205.443 190.754 210.242 186.566 215.244 182.333C221.306 177.173 228.051 171.542 235.291 165.596L244.942 138.065C242.868 132.573 242.995 126.479 245.308 120.874C247.715 115.109 252.141 110.419 257.757 107.683C258.977 107.082 260.242 106.575 261.539 106.168C261.723 106.11 261.922 106.128 262.093 106.217C262.263 106.306 262.392 106.459 262.449 106.642C262.507 106.826 262.49 107.025 262.401 107.196C262.312 107.366 262.158 107.495 261.975 107.553C260.748 107.938 259.553 108.416 258.399 108.984C247.457 114.379 242.182 127.031 246.391 137.789C246.454 137.951 246.457 138.13 246.4 138.294L236.593 166.267C236.549 166.392 236.472 166.503 236.369 166.588C229.076 172.576 222.284 178.247 216.183 183.439C211.192 187.663 206.406 191.84 202.341 195.519C196.708 200.602 192.526 204.636 189.895 207.524L215.995 230.585C223.187 222.814 247.991 201.991 262.299 190.402C264.808 188.364 266.704 185.671 267.779 182.622L279.763 148.411C279.819 148.252 279.928 148.118 280.072 148.031C280.167 147.973 280.311 147.885 304.55 140.121C304.733 140.063 304.931 140.081 305.101 140.169C305.271 140.257 305.4 140.409 305.458 140.592C305.517 140.774 305.5 140.973 305.413 141.143C305.326 141.314 305.175 141.443 304.993 141.503C298.849 143.471 283.396 148.428 281.017 149.221L269.148 183.102C267.985 186.404 265.932 189.321 263.215 191.529C248.597 203.368 223.017 224.847 216.594 232.084C216.526 232.161 216.443 232.223 216.349 232.265C216.256 232.307 216.154 232.329 216.052 232.329Z" fill="#3C4043"/>
<path d="M302.508 82.8134C302.529 81.4177 303.929 78.3868 304.864 77.1089C303.969 75.6417 303.141 74.4051 301.452 72.9485C291.312 64.196 275.573 66.9013 267.471 77.5443L252.04 98.4193C249.541 101.697 248.443 105.831 248.985 109.917C249.528 114.003 251.667 117.707 254.935 120.218L273.072 84.98C274.784 81.6578 277.71 79.1239 281.243 77.906C284.776 76.688 288.642 76.88 292.037 78.4418C295.432 80.0036 298.094 82.8149 299.468 86.2903C300.842 89.7657 300.822 93.6372 299.414 97.0986C301.458 96.4835 303.614 96.3265 305.726 96.639C306.158 93.8419 306.101 90.9911 305.559 88.2133C305.127 85.9979 302.473 85.13 302.508 82.8134Z" fill="#7027E5"/>
<path d="M317.975 113.034C317.705 115.061 317.003 117.006 315.915 118.736C314.827 120.467 313.38 121.944 311.671 123.065L269.586 151.197C266.913 152.984 263.721 153.832 260.512 153.608C257.304 153.385 254.261 152.101 251.861 149.96C249.462 147.818 247.841 144.941 247.254 141.778C246.668 138.616 247.148 135.348 248.62 132.488L273.072 84.9812C274.782 81.6556 277.709 79.1182 281.243 77.898C284.777 76.6778 288.646 76.8689 292.043 78.4316C295.44 79.9943 298.102 82.8078 299.476 86.2858C300.849 89.7637 300.827 93.6376 299.415 97.0998C302.137 96.2803 305.041 96.278 307.765 97.0933L317.975 113.034Z" fill="#FFED96"/>
<path d="M261.525 154.368C258.912 154.369 256.344 153.697 254.065 152.418C251.787 151.139 249.875 149.296 248.515 147.066C247.154 144.835 246.39 142.292 246.295 139.681C246.201 137.069 246.779 134.478 247.975 132.155L272.427 84.6477C274.169 81.2652 277.113 78.6567 280.68 77.3347C284.247 76.0128 288.18 76.0731 291.705 77.5038C295.23 78.9345 298.093 81.6321 299.73 85.0664C301.367 88.5007 301.661 92.4233 300.553 96.0631C303.016 95.5598 305.565 95.6745 307.972 96.3969C308.139 96.4467 308.282 96.5546 308.375 96.701L318.586 112.643C318.678 112.788 318.717 112.961 318.694 113.131C318.413 115.26 317.677 117.304 316.534 119.122C315.392 120.94 313.87 122.491 312.074 123.667L269.99 151.799C267.486 153.476 264.539 154.371 261.525 154.368ZM285.99 77.8274C283.454 77.8298 280.969 78.5293 278.804 79.8493C276.64 81.1693 274.88 83.059 273.717 85.3119L249.265 132.819C247.867 135.536 247.41 138.64 247.968 141.644C248.525 144.649 250.065 147.383 252.344 149.417C254.624 151.451 257.515 152.67 260.563 152.883C263.611 153.096 266.643 152.29 269.183 150.592L311.267 122.46C312.854 121.422 314.204 120.06 315.23 118.464C316.255 116.868 316.932 115.074 317.217 113.198L307.301 97.7135C304.786 97.0105 302.123 97.0382 299.624 97.7933C299.493 97.833 299.353 97.8347 299.221 97.7982C299.089 97.7617 298.97 97.6884 298.877 97.587C298.785 97.4856 298.723 97.3601 298.7 97.2251C298.676 97.09 298.691 96.951 298.743 96.8241C300.023 93.631 300.071 90.0759 298.878 86.8493C297.684 83.6226 295.335 80.9547 292.285 79.3634C290.339 78.3561 288.18 77.8294 285.99 77.8274Z" fill="#3C4043"/>
<path d="M271.97 114.335C271.818 114.335 271.67 114.288 271.547 114.199C271.424 114.111 271.331 113.986 271.282 113.842C271.234 113.698 271.231 113.543 271.276 113.398C271.32 113.252 271.409 113.125 271.53 113.033C272.251 112.482 289.305 99.5191 299.195 96.4052C299.286 96.3751 299.382 96.3634 299.478 96.3708C299.574 96.3782 299.667 96.4047 299.753 96.4485C299.839 96.4924 299.915 96.5528 299.977 96.6263C300.039 96.6998 300.085 96.7849 300.114 96.8766C300.143 96.9683 300.153 97.0649 300.145 97.1606C300.136 97.2564 300.108 97.3495 300.063 97.4344C300.018 97.5194 299.956 97.5945 299.882 97.6555C299.808 97.7164 299.722 97.762 299.63 97.7896C289.982 100.827 272.584 114.053 272.409 114.186C272.283 114.283 272.129 114.335 271.97 114.335Z" fill="#3C4043"/>
<path d="M315.869 115.255C319.328 111.917 320.658 108.458 328.18 109.353C331.566 109.764 336.597 110.901 336.887 107.66C337.081 105.434 331.252 103.862 326.995 102.556C333.332 101.709 341.628 100.572 341.41 97.6697C341.192 94.767 335.073 95.0573 326.874 96.2183C335.654 93.3641 340.66 93.0496 340.128 90.3163C339.233 85.7929 320.9 89.4938 315.023 92.8319C311.492 94.8396 307.307 97.3552 305.203 98.6614C304.42 99.1459 303.705 99.7315 303.075 100.403C299.664 104.007 298.939 109.74 302.083 113.61C306.606 119.101 313.572 117.48 315.869 115.255Z" fill="#FFF1ED"/>
<path d="M309.832 118.052C309.623 118.052 309.411 118.046 309.198 118.034C307.711 117.956 306.258 117.562 304.934 116.879C303.611 116.195 302.448 115.239 301.523 114.071C298.261 110.056 298.703 103.968 302.548 99.9043C303.22 99.1878 303.983 98.563 304.818 98.0461C306.724 96.8633 310.916 94.3321 314.664 92.2011C319.84 89.2617 334.419 86.0673 339.104 88.2138C340.329 88.7748 340.725 89.5902 340.84 90.1755C341.31 92.5927 338.848 93.5008 334.629 94.6964C338.046 94.5612 340.075 94.9313 341.175 95.8169C341.454 96.0313 341.683 96.3026 341.848 96.6127C342.014 96.9228 342.111 97.2646 342.133 97.6153C342.351 100.531 337.362 101.782 330.34 102.821C334.299 104.073 337.805 105.479 337.61 107.723C337.589 108.115 337.485 108.499 337.306 108.848C337.127 109.198 336.876 109.506 336.57 109.753C334.975 111.021 331.98 110.606 329.338 110.239C328.908 110.179 328.49 110.121 328.094 110.073C322.3 109.384 320.546 111.301 318.118 113.953C317.576 114.546 317.015 115.159 316.375 115.777C315.168 116.946 312.721 118.052 309.832 118.052ZM334.537 88.9288C328.609 88.9288 319.227 91.2795 315.381 93.4638C311.651 95.5844 307.48 98.1032 305.586 99.2788C304.858 99.7291 304.192 100.273 303.606 100.897C300.256 104.439 299.845 109.705 302.646 113.153C303.445 114.163 304.45 114.992 305.594 115.583C306.737 116.175 307.994 116.517 309.28 116.586C311.993 116.738 314.333 115.733 315.364 114.734C315.972 114.148 316.517 113.552 317.045 112.975C319.559 110.229 321.729 107.857 328.265 108.634C328.67 108.682 329.096 108.742 329.535 108.803C331.772 109.114 334.557 109.5 335.665 108.619C335.816 108.494 335.939 108.338 336.025 108.162C336.111 107.986 336.158 107.793 336.163 107.597C336.185 107.344 335.995 106.642 333.758 105.623C332.077 104.857 329.808 104.17 327.807 103.564C327.458 103.458 327.115 103.354 326.781 103.251C326.623 103.203 326.486 103.102 326.393 102.965C326.3 102.828 326.257 102.663 326.27 102.498C326.284 102.333 326.354 102.177 326.468 102.057C326.582 101.937 326.733 101.86 326.898 101.838C329.895 101.438 333.625 100.94 336.473 100.184C339.213 99.4585 340.748 98.5616 340.685 97.7256C340.676 97.5733 340.634 97.4249 340.561 97.2908C340.488 97.1567 340.387 97.0401 340.264 96.9494C338.492 95.5222 332.231 96.1942 326.975 96.9385C326.795 96.9639 326.612 96.921 326.463 96.8183C326.313 96.7157 326.207 96.5606 326.166 96.3838C326.125 96.2069 326.152 96.0211 326.241 95.8631C326.331 95.705 326.476 95.5862 326.648 95.53C329.059 94.7463 331.147 94.1643 332.987 93.6507C337.503 92.3917 339.663 91.7299 339.415 90.4566C339.388 90.3216 339.305 89.9044 338.499 89.535C337.58 89.1117 336.192 88.9281 334.537 88.9281V88.9288Z" fill="#3C4043"/>
<path d="M313.946 67.327L306.412 75.3189L304.864 77.1089C304.211 77.8279 303.702 78.6654 303.364 79.5762C302.719 81.2654 302.684 83.127 303.265 84.8393C303.847 86.5516 305.008 88.0069 306.549 88.9537C308.089 89.9004 309.912 90.2792 311.702 90.0244C313.492 89.7697 315.137 88.8975 316.352 87.5585L318.07 85.7201L320.275 83.2947C322.447 84.5691 324.903 85.2777 327.42 85.3556C329.936 85.4334 332.432 84.8779 334.677 83.7402C336.923 82.6025 338.847 80.9188 340.273 78.8439C341.699 76.7689 342.581 74.3689 342.839 71.8643L342.609 67.3207C342.479 66.6905 342.309 66.0694 342.1 65.461C343.046 63.1703 343.409 60.6804 343.156 58.2148L339.279 50.9712L317.777 54.8656C313.827 55.5811 311.363 60.1516 312.059 64.0815C312.242 65.0866 312.714 66.0168 313.416 66.759L313.946 67.327Z" fill="#FFF1ED"/>
<path d="M310.581 90.8192C309.555 90.8204 308.538 90.6337 307.58 90.2681C305.481 89.4628 303.787 87.8576 302.869 85.8046C301.952 83.7516 301.887 81.4186 302.687 79.3174C303.057 78.323 303.612 77.4083 304.325 76.6225L305.864 74.8432C305.87 74.8354 305.877 74.8277 305.884 74.8202L312.95 67.3241L312.885 67.2544C312.086 66.4097 311.55 65.3507 311.343 64.2066C310.989 62.0265 311.417 59.7915 312.551 57.8962C313.76 55.8564 315.571 54.5258 317.647 54.1499L339.15 50.2567C339.301 50.2294 339.457 50.2507 339.595 50.3174C339.733 50.3842 339.846 50.493 339.919 50.6282L343.795 57.8716C343.84 57.9551 343.868 58.0467 343.878 58.141C344.134 60.6337 343.789 63.1514 342.873 65.4835C343.053 66.0382 343.202 66.6025 343.32 67.1736C343.327 67.2098 343.332 67.2465 343.334 67.2834L343.564 71.8271C343.565 71.8634 343.565 71.8999 343.561 71.9362C342.759 79.9463 335.908 86.0866 327.874 86.0866C327.736 86.0866 327.598 86.0849 327.459 86.0813C325 86.0161 322.59 85.375 320.424 84.2096L318.607 86.2071L316.883 88.0524C316.082 88.9261 315.108 89.6233 314.023 90.0997C312.938 90.576 311.766 90.8211 310.581 90.8192ZM306.951 75.8054L305.413 77.5835C304.818 78.2372 304.354 78.9988 304.046 79.827C303.458 81.3582 303.425 83.0465 303.951 84.5998C304.476 86.1531 305.529 87.4738 306.925 88.3332C308.322 89.1927 309.975 89.5369 311.598 89.3063C313.222 89.0758 314.713 88.2849 315.816 87.0706L317.54 85.2248L319.739 82.8059C319.851 82.6825 320.002 82.6015 320.167 82.5766C320.332 82.5517 320.501 82.5843 320.644 82.669C322.726 83.8925 325.084 84.5676 327.498 84.6312C327.623 84.6346 327.749 84.636 327.874 84.636C331.405 84.6287 334.809 83.3201 337.435 80.9604C340.062 78.6007 341.727 75.3555 342.111 71.8454L341.887 67.4136C341.765 66.8322 341.607 66.2591 341.413 65.6974C341.356 65.5304 341.361 65.3483 341.429 65.1851C342.311 63.049 342.661 60.7302 342.447 58.4289L338.889 51.7806L317.905 55.5799C314.237 56.2444 312.168 60.55 312.773 63.9555C312.932 64.8224 313.339 65.6244 313.945 66.2636L314.478 66.8309C314.604 66.9657 314.674 67.1435 314.673 67.3281C314.673 67.5127 314.602 67.6902 314.476 67.8245L306.951 75.8054Z" fill="#3C4043"/>
<path d="M341.797 65.7158L344.409 71.1341L340.975 72.7306" fill="white"/>
<path d="M340.974 73.4567C340.809 73.457 340.648 73.4008 340.519 73.2973C340.39 73.1939 340.3 73.0494 340.264 72.8879C340.228 72.7264 340.249 72.5575 340.322 72.4092C340.396 72.2609 340.518 72.1422 340.668 72.0726L343.435 70.7865L341.143 66.0312C341.098 65.945 341.07 65.8504 341.062 65.7532C341.054 65.656 341.065 65.5582 341.095 65.4655C341.126 65.3728 341.175 65.2873 341.239 65.2139C341.303 65.1405 341.382 65.0808 341.469 65.0384C341.557 64.996 341.653 64.9718 341.75 64.9671C341.848 64.9625 341.945 64.9775 342.036 65.0113C342.128 65.0452 342.212 65.0971 342.283 65.164C342.354 65.231 342.41 65.3115 342.449 65.4008L345.062 70.8191C345.103 70.9058 345.127 70.9998 345.133 71.0958C345.138 71.1919 345.124 71.288 345.091 71.3785C345.059 71.4691 345.009 71.5523 344.944 71.6234C344.879 71.6945 344.801 71.752 344.714 71.7925L341.28 73.389C341.184 73.4335 341.08 73.4567 340.974 73.4567Z" fill="#3C4043"/>
<path d="M337.821 67.62C338.342 67.2949 338.501 66.6086 338.176 66.0871C337.851 65.5657 337.165 65.4065 336.643 65.7316C336.122 66.0567 335.963 66.743 336.288 67.2645C336.613 67.786 337.299 67.9451 337.821 67.62Z" fill="#3C4043"/>
<path d="M339.715 78.0116C339.097 78.0137 338.487 77.8721 337.933 77.5979C337.379 77.3237 336.897 76.9244 336.524 76.4316L336.441 76.328C336.38 76.2539 336.333 76.1681 336.305 76.0758C336.277 75.9835 336.267 75.8865 336.277 75.7904C336.287 75.6944 336.316 75.6013 336.362 75.5165C336.408 75.4318 336.471 75.3571 336.546 75.2969C336.622 75.2366 336.708 75.192 336.801 75.1657C336.894 75.1394 336.991 75.1318 337.087 75.1435C337.183 75.1552 337.275 75.1859 337.359 75.2338C337.443 75.2817 337.516 75.3458 337.575 75.4224L337.672 75.5434C338.054 76.0519 338.612 76.3991 339.237 76.5169C339.862 76.6346 340.508 76.5142 341.049 76.1795C341.212 76.0773 341.409 76.044 341.596 76.087C341.784 76.13 341.947 76.2458 342.049 76.4088C342.151 76.5719 342.185 76.7689 342.142 76.9565C342.099 77.1442 341.983 77.307 341.82 77.4093C341.189 77.8042 340.459 78.0129 339.715 78.0116Z" fill="#3C4043"/>
<path d="M319.714 66.2725H315.385C315.192 66.2725 315.008 66.196 314.872 66.06C314.736 65.9239 314.659 65.7393 314.659 65.5468C314.659 65.3544 314.736 65.1698 314.872 65.0337C315.008 64.8976 315.192 64.8212 315.385 64.8212H318.333L315.9 61.2896C315.797 61.131 315.76 60.9385 315.797 60.7531C315.834 60.5677 315.942 60.404 316.097 60.2968C316.253 60.1896 316.444 60.1475 316.631 60.1793C316.817 60.2111 316.984 60.3144 317.095 60.4672L320.312 65.1356C320.387 65.2446 320.43 65.3719 320.438 65.5039C320.446 65.6359 320.418 65.7675 320.356 65.8845C320.295 66.0015 320.202 66.0995 320.089 66.1679C319.976 66.2363 319.846 66.2725 319.714 66.2725Z" fill="#3C4043"/>
<path d="M320.126 83.93C319.992 83.9302 319.862 83.8933 319.748 83.8236C317.355 82.3609 315.394 80.2866 314.069 77.8144C314.022 77.7302 313.991 77.6374 313.98 77.5415C313.969 77.4456 313.977 77.3484 314.004 77.2556C314.031 77.1629 314.077 77.0764 314.137 77.0014C314.198 76.9263 314.273 76.8641 314.358 76.8185C314.443 76.7729 314.537 76.7447 314.633 76.7356C314.729 76.7266 314.826 76.7368 314.918 76.7657C315.01 76.7946 315.096 76.8416 315.17 76.904C315.243 76.9663 315.304 77.0428 315.348 77.1288C316.551 79.3736 318.331 81.257 320.504 82.5851C320.639 82.6676 320.744 82.792 320.801 82.9393C320.859 83.0866 320.867 83.2488 320.824 83.4011C320.782 83.5534 320.69 83.6875 320.564 83.783C320.438 83.8785 320.284 83.9301 320.126 83.93Z" fill="#3C4043"/>
<path d="M313.946 67.3269C313.355 66.7053 312.904 65.9642 312.623 65.1537C312.343 64.3431 312.24 63.4818 312.32 62.6279C312.401 61.774 312.664 60.9474 313.091 60.2036C313.518 59.4598 314.099 58.8162 314.796 58.3163C315.924 57.5077 317.296 57.1148 318.681 57.2046C320.065 57.2943 321.375 57.8611 322.389 58.8084C323.403 59.7557 324.056 61.025 324.24 62.4003C324.423 63.7756 324.123 65.1718 323.393 66.3513L324.041 66.4519C327.749 66.5335 330.891 64.9888 333.138 62.1359L339.354 53.0409L343.127 58.2173C342.838 55.3671 341.741 52.6585 339.966 50.41C338.191 48.1615 335.811 46.4664 333.106 45.5239C330.401 44.5815 327.483 44.4308 324.695 45.0897C321.907 45.7485 319.365 47.1895 317.368 49.2433C316.215 50.4362 315.264 51.8102 314.556 53.3106C314.207 50.8402 313.112 48.5352 311.418 46.7034C310.288 45.492 308.927 44.5191 307.415 43.8419C305.903 43.1648 304.271 42.7971 302.615 42.7607C300.885 42.7233 299.167 43.0532 297.575 43.7287C295.982 44.4042 294.551 45.4098 293.375 46.6793C292.977 47.1078 292.425 47.3612 291.84 47.3838C291.256 47.4065 290.686 47.1967 290.255 46.8002C290.207 46.776 290.183 46.7276 290.159 46.7034C289.069 45.5216 287.758 44.5659 286.299 43.891C284.84 43.2162 283.263 42.8353 281.657 42.7701C280.051 42.705 278.448 42.9569 276.94 43.5114C275.431 44.0659 274.047 44.9122 272.865 46.002C272.62 46.2235 272.386 46.4577 272.164 46.7034C271.762 47.1287 271.209 47.3777 270.624 47.3958C270.039 47.4139 269.471 47.1998 269.044 46.8002C268.996 46.776 268.971 46.7276 268.947 46.7034C266.744 44.3361 263.697 42.9322 260.467 42.7959C257.236 42.6596 254.082 43.8018 251.687 45.9751C246.854 50.3562 246.354 57.876 250.517 62.8964C251.583 64.1786 252.899 65.2301 254.385 65.9866C255.87 66.7432 257.494 67.1889 259.158 67.2966C260.822 67.4042 262.49 67.1716 264.061 66.6128C265.632 66.0541 267.072 65.181 268.294 64.0468C268.532 63.8333 268.758 63.6073 268.971 63.3696C269.169 63.1563 269.406 62.9845 269.671 62.864C269.935 62.7435 270.221 62.6768 270.511 62.6678C270.801 62.6588 271.091 62.7077 271.362 62.8115C271.633 62.9154 271.881 63.0722 272.091 63.2728L272.188 63.3696C273.277 64.5514 274.589 65.5071 276.048 66.182C277.506 66.8569 279.084 67.2377 280.689 67.3029C282.295 67.368 283.898 67.1161 285.407 66.5616C286.915 66.0071 288.3 65.1608 289.481 64.071C289.727 63.8495 289.961 63.6153 290.183 63.3696C290.38 63.1563 290.618 62.9845 290.882 62.864C291.146 62.7435 291.432 62.6768 291.723 62.6678C292.013 62.6588 292.302 62.7077 292.573 62.8115C292.845 62.9154 293.093 63.0722 293.303 63.2728L293.4 63.3696C294.633 64.7002 296.146 65.7411 297.829 66.4176C299.513 67.094 301.325 67.3892 303.137 67.2818C304.948 67.1745 306.713 66.6674 308.304 65.7968C309.896 64.9263 311.276 63.714 312.343 62.247" fill="#3C4043"/>
<path d="M313.945 68.0526C313.847 68.0527 313.749 68.0327 313.659 67.9938C313.568 67.955 313.487 67.898 313.419 67.8265C312.956 67.338 312.569 66.7837 312.269 66.1816C311.955 65.5536 311.744 64.8794 311.643 64.1846C311.509 64.3199 311.372 64.452 311.232 64.5808C308.703 66.92 305.349 68.1594 301.907 68.0267C298.465 67.894 295.216 66.4 292.875 63.8731L292.788 63.7862C292.647 63.6543 292.481 63.5517 292.3 63.4844C292.119 63.4171 291.926 63.3863 291.733 63.3939C291.541 63.3998 291.352 63.4442 291.177 63.5245C291.002 63.6047 290.845 63.7191 290.716 63.861C290.479 64.1236 290.228 64.3738 289.966 64.6108C287.438 66.9337 284.093 68.1602 280.662 68.0219C277.232 67.8836 273.996 66.3917 271.664 63.8728L271.577 63.7862C271.436 63.654 271.27 63.5512 271.089 63.4839C270.908 63.4165 270.715 63.3859 270.522 63.3939C270.33 63.3999 270.141 63.4443 269.966 63.5245C269.791 63.6047 269.634 63.7191 269.504 63.861C269.276 64.1157 269.033 64.3579 268.779 64.5866C267.474 65.7855 265.94 66.7076 264.27 67.2973C262.599 67.8869 260.826 68.132 259.058 68.0176C257.303 67.9064 255.59 67.4355 254.024 66.6343C252.459 65.833 251.075 64.7184 249.958 63.3598C247.803 60.7552 246.748 57.4134 247.016 54.0433C247.283 50.6732 248.854 47.5401 251.393 45.3087C253.933 43.0774 257.242 41.9234 260.618 42.0916C263.994 42.2599 267.172 43.7371 269.477 46.2099C269.486 46.2203 269.496 46.2312 269.506 46.243C269.515 46.2508 269.525 46.2587 269.534 46.2672C269.676 46.4013 269.843 46.5061 270.025 46.5756C270.208 46.6452 270.402 46.678 270.597 46.6724C270.792 46.6667 270.985 46.6226 271.163 46.5427C271.341 46.4627 271.501 46.3484 271.635 46.2062C271.87 45.9463 272.118 45.6985 272.378 45.4639C274.908 43.14 278.255 41.9137 281.687 42.0535C285.119 42.1934 288.355 43.6881 290.687 46.2101C290.697 46.2203 290.707 46.2314 290.717 46.2433C290.727 46.251 290.736 46.259 290.745 46.2674C290.888 46.4002 291.057 46.5032 291.24 46.5706C291.424 46.6381 291.619 46.6685 291.814 46.6603C292.007 46.654 292.198 46.6092 292.374 46.5284C292.55 46.4476 292.708 46.3325 292.839 46.1898C294.398 44.5098 296.373 43.271 298.563 42.5986C300.754 41.9261 303.084 41.8438 305.316 42.3599C307.549 42.8761 309.606 43.9724 311.28 45.5382C312.953 47.104 314.184 49.0837 314.847 51.2774C316.605 48.5103 319.182 46.3598 322.218 45.125C325.255 43.8903 328.601 43.6327 331.791 44.3881C334.981 45.1435 337.856 46.8743 340.017 49.3398C342.177 51.8053 343.516 54.8829 343.847 58.1447C343.863 58.3033 343.826 58.4629 343.743 58.5987C343.659 58.7346 343.533 58.8391 343.385 58.8962C343.236 58.9533 343.072 58.9598 342.919 58.9146C342.766 58.8694 342.633 58.7752 342.539 58.6463L339.37 54.3006L333.736 62.5446C333.727 62.5582 333.718 62.5712 333.707 62.584C331.274 65.6742 327.927 67.2619 324.025 67.1765C323.993 67.176 323.961 67.1732 323.93 67.1683L323.281 67.0677C323.163 67.0493 323.051 67.002 322.955 66.9298C322.86 66.8576 322.784 66.7629 322.733 66.6541C322.683 66.5453 322.661 66.4257 322.668 66.3062C322.676 66.1866 322.712 66.0707 322.775 65.9688C323.259 65.1881 323.53 64.2948 323.562 63.3772C323.594 62.4595 323.386 61.5494 322.958 60.7369C322.531 59.9244 321.898 59.2376 321.124 58.7446C320.349 58.2515 319.46 57.9692 318.543 57.9257C317.626 57.8821 316.713 58.0788 315.895 58.4963C315.078 58.9137 314.383 59.5375 313.88 60.3058C313.378 61.0741 313.084 61.9604 313.029 62.8769C312.974 63.7935 313.16 64.7085 313.567 65.5314C313.803 66.0053 314.108 66.4417 314.471 66.8263C314.569 66.9292 314.634 67.0585 314.659 67.1982C314.684 67.3379 314.668 67.4819 314.612 67.6123C314.556 67.7427 314.463 67.8538 314.344 67.9319C314.226 68.01 314.087 68.0517 313.945 68.0517V68.0526ZM259.94 43.5322C257.071 43.5246 254.302 44.5873 252.174 46.5127C247.672 50.5934 247.179 57.7349 251.076 62.4333C252.067 63.6399 253.296 64.6297 254.686 65.3412C256.076 66.0528 257.597 66.4709 259.155 66.5696C260.729 66.6802 262.309 66.4661 263.796 65.9404C265.283 65.4148 266.647 64.5889 267.802 63.5141C268.023 63.316 268.232 63.1061 268.43 62.8852C268.69 62.5997 269.005 62.3693 269.355 62.2077C269.706 62.046 270.085 61.9563 270.471 61.944C270.86 61.9299 271.247 61.9936 271.611 62.1315C271.975 62.2693 272.307 62.4784 272.589 62.7466L272.699 62.8562C272.706 62.8634 272.713 62.8709 272.72 62.8784C274.792 65.1199 277.668 66.4482 280.718 66.5719C283.768 66.6956 286.742 65.6047 288.988 63.5383C289.217 63.3321 289.435 63.1141 289.641 62.8852C289.901 62.5997 290.216 62.3693 290.566 62.2077C290.917 62.046 291.296 61.9563 291.682 61.944C292.071 61.9299 292.458 61.9936 292.822 62.1314C293.186 62.2693 293.518 62.4784 293.8 62.7466L293.91 62.8562C293.917 62.8634 293.924 62.8709 293.931 62.8784C294.961 63.9917 296.2 64.8912 297.577 65.5257C298.954 66.1601 300.442 66.5171 301.958 66.5761C303.473 66.6352 304.985 66.3952 306.407 65.8698C307.829 65.3445 309.134 64.5441 310.247 63.5143C310.783 63.0201 311.271 62.4763 311.704 61.8903C311.886 60.9721 312.259 60.1022 312.797 59.3363C313.335 58.5704 314.028 57.9253 314.829 57.4426C315.631 56.9598 316.525 56.6499 317.454 56.5327C318.383 56.4155 319.326 56.4937 320.223 56.7621C321.119 57.0306 321.95 57.4834 322.662 58.0916C323.373 58.6999 323.95 59.4501 324.355 60.2941C324.76 61.1382 324.984 62.0575 325.012 62.9932C325.041 63.929 324.875 64.8604 324.523 65.7279C327.743 65.6717 330.511 64.2879 332.553 61.706L338.755 52.6315C338.82 52.5357 338.908 52.4569 339.01 52.402C339.112 52.347 339.226 52.3174 339.343 52.3156C339.459 52.3139 339.574 52.34 339.677 52.3919C339.781 52.4437 339.871 52.5198 339.94 52.6136L341.665 54.9808C340.856 52.6807 339.473 50.6253 337.648 49.0093C335.822 47.3933 333.614 46.2701 331.233 45.7462C328.852 45.2222 326.376 45.3148 324.041 46.0153C321.706 46.7157 319.588 48.0008 317.888 49.7487C316.79 50.884 315.885 52.1919 315.211 53.6204C315.144 53.7614 315.034 53.8772 314.896 53.9506C314.759 54.0239 314.601 54.0509 314.447 54.0276C314.292 54.0042 314.15 53.9318 314.04 53.8209C313.93 53.7101 313.859 53.5668 313.837 53.4123C313.51 51.0878 312.48 48.9187 310.886 47.1956C309.823 46.0544 308.542 45.1381 307.118 44.5009C305.695 43.8638 304.158 43.5187 302.598 43.4862C300.972 43.4525 299.356 43.7635 297.858 44.3988C296.36 45.034 295.014 45.9792 293.907 47.1721C293.647 47.4561 293.332 47.6852 292.982 47.8461C292.632 48.0069 292.254 48.0963 291.869 48.1089C291.114 48.14 290.376 47.8776 289.81 47.3767C289.736 47.3221 289.669 47.2569 289.612 47.1832C287.539 44.9471 284.665 43.6234 281.618 43.502C278.571 43.3807 275.6 44.4715 273.356 46.5357C273.127 46.742 272.909 46.96 272.703 47.1888C272.18 47.7522 271.457 48.0876 270.69 48.1226C269.922 48.1577 269.171 47.8896 268.6 47.3763C268.525 47.3216 268.459 47.2564 268.403 47.1828C267.318 46.026 266.007 45.105 264.551 44.4769C263.095 43.8489 261.526 43.5273 259.94 43.5322ZM289.623 47.1932C289.63 47.2014 289.638 47.2094 289.645 47.2173C289.639 47.2106 289.631 47.2036 289.625 47.1963L289.623 47.1932ZM268.432 47.2147L268.434 47.2166L268.432 47.2147ZM268.412 47.1941C268.418 47.2009 268.425 47.2079 268.431 47.2144C268.426 47.2091 268.421 47.2038 268.416 47.1982L268.412 47.1941ZM269.368 46.1513H269.37H269.368ZM290.58 46.1513H290.582H290.58Z" fill="#3C4043"/>
<path d="M563.703 347.609H17.4571C16.8304 347.609 16.3916 347.28 16.3916 346.819C16.3916 346.358 16.8304 346.028 17.4571 346.028H563.703C564.33 346.028 564.768 346.358 564.768 346.819C564.768 347.28 564.204 347.609 563.703 347.609Z" fill="#3C4043"/>
<path d="M138.198 304.491H34.1831V498.525H138.198V304.491Z" fill="#E7F1FF"/>
<path d="M307.662 409.072V216.039H410.677V409.072H307.662Z" fill="white" stroke="#85B7FE"/>
<path d="M444.5 390.067V198.5H546.538V390.067H444.5Z" fill="white" stroke="#85B7FE"/>
<path d="M298.717 271.89L291.063 277.626L285.322 269.994C284.429 268.812 283.779 267.465 283.408 266.031C283.038 264.597 282.954 263.104 283.161 261.637C283.369 260.17 283.864 258.758 284.619 257.482C285.373 256.205 286.372 255.089 287.558 254.197L287.587 254.176L295.241 248.44L300.982 256.072C301.875 257.254 302.525 258.601 302.895 260.035C303.266 261.469 303.35 262.962 303.142 264.429C302.935 265.896 302.44 267.308 301.685 268.584C300.931 269.861 299.932 270.977 298.746 271.869L298.717 271.89Z" fill="white"/>
<path d="M291.138 278.316C291.019 278.329 290.898 278.31 290.788 278.262C290.677 278.214 290.581 278.139 290.509 278.043L284.768 270.411C282.854 267.875 282.029 264.684 282.474 261.539C282.919 258.394 284.597 255.554 287.14 253.642L287.169 253.621L294.824 247.885C294.972 247.775 295.157 247.727 295.34 247.753C295.523 247.779 295.688 247.876 295.799 248.024L301.54 255.656C303.454 258.191 304.279 261.383 303.834 264.527C303.389 267.672 301.711 270.512 299.168 272.424L299.139 272.446L291.484 278.181C291.383 278.256 291.264 278.303 291.138 278.316ZM295.103 249.414L287.981 254.748C286.867 255.585 285.929 256.632 285.221 257.83C284.513 259.028 284.048 260.353 283.853 261.73C283.658 263.107 283.736 264.508 284.085 265.854C284.433 267.2 285.043 268.464 285.881 269.575L291.205 276.652L298.33 271.314C300.578 269.624 302.062 267.113 302.455 264.333C302.848 261.553 302.119 258.733 300.427 256.491L295.103 249.414Z" fill="#3C4043"/>
<path d="M281.194 347.844C281.137 347.85 281.079 347.849 281.023 347.841C280.932 347.828 280.845 347.798 280.766 347.752C280.687 347.705 280.619 347.644 280.564 347.571C280.509 347.498 280.469 347.415 280.446 347.326C280.424 347.238 280.419 347.146 280.431 347.056L292.316 264.045C292.342 263.862 292.439 263.697 292.587 263.587C292.735 263.476 292.921 263.428 293.104 263.454C293.287 263.48 293.452 263.577 293.563 263.725C293.674 263.872 293.721 264.057 293.695 264.24L281.811 347.251C281.789 347.404 281.717 347.546 281.605 347.653C281.493 347.761 281.348 347.828 281.194 347.844Z" fill="#3C4043"/>
<path d="M295.309 249.13C295.252 249.136 295.195 249.135 295.138 249.127C295.048 249.114 294.961 249.083 294.882 249.037C294.803 248.991 294.734 248.929 294.679 248.856C294.625 248.783 294.585 248.7 294.562 248.612C294.539 248.523 294.534 248.431 294.547 248.341L295.625 240.811C295.651 240.628 295.749 240.463 295.897 240.353C296.044 240.242 296.23 240.194 296.413 240.22C296.596 240.246 296.761 240.343 296.872 240.491C296.983 240.638 297.03 240.823 297.004 241.006L295.926 248.536C295.904 248.69 295.832 248.831 295.72 248.939C295.608 249.046 295.464 249.114 295.309 249.13Z" fill="#3C4043"/>
<path d="M295.309 249.13C295.146 249.147 294.983 249.106 294.847 249.014C294.712 248.923 294.613 248.787 294.568 248.63L292.478 241.336C292.452 241.248 292.443 241.155 292.452 241.063C292.461 240.972 292.489 240.883 292.533 240.802C292.577 240.721 292.637 240.649 292.709 240.592C292.782 240.534 292.865 240.491 292.953 240.466C293.042 240.44 293.135 240.433 293.227 240.443C293.319 240.454 293.408 240.483 293.488 240.528C293.568 240.574 293.639 240.635 293.696 240.708C293.752 240.78 293.794 240.864 293.818 240.953L295.907 248.247C295.935 248.345 295.941 248.447 295.925 248.548C295.909 248.648 295.871 248.743 295.814 248.828C295.757 248.912 295.683 248.982 295.595 249.035C295.508 249.087 295.41 249.119 295.309 249.13Z" fill="#3C4043"/>
<path d="M295.308 249.13C295.178 249.143 295.047 249.12 294.93 249.063C294.812 249.005 294.713 248.916 294.644 248.805C294.576 248.694 294.539 248.566 294.54 248.435C294.541 248.305 294.579 248.177 294.649 248.067L298.731 241.647C298.833 241.498 298.989 241.395 299.165 241.359C299.342 241.322 299.526 241.356 299.679 241.452C299.831 241.549 299.94 241.701 299.982 241.876C300.024 242.051 299.997 242.236 299.905 242.391L295.825 248.811C295.768 248.899 295.693 248.974 295.603 249.029C295.514 249.085 295.413 249.119 295.308 249.13Z" fill="#3C4043"/>
<path d="M290.865 288.605C293.899 288.287 296.103 285.574 295.787 282.546C295.471 279.519 292.754 277.323 289.719 277.641C286.685 277.96 284.481 280.673 284.797 283.7C285.113 286.728 287.83 288.924 290.865 288.605Z" fill="white"/>
<path d="M290.937 289.296C289.713 289.424 288.479 289.188 287.391 288.617C286.303 288.045 285.409 287.164 284.823 286.086C284.236 285.007 283.984 283.779 284.098 282.556C284.212 281.334 284.686 280.172 285.461 279.218C286.236 278.264 287.277 277.56 288.453 277.196C289.628 276.832 290.885 276.823 292.064 277.172C293.243 277.521 294.292 278.21 295.078 279.154C295.864 280.098 296.352 281.253 296.479 282.474C296.648 284.111 296.16 285.748 295.121 287.027C294.082 288.306 292.577 289.122 290.937 289.296ZM289.792 278.333C288.842 278.432 287.943 278.811 287.208 279.42C286.473 280.029 285.936 280.842 285.664 281.756C285.392 282.669 285.398 283.642 285.68 284.552C285.962 285.462 286.509 286.268 287.25 286.867C287.992 287.467 288.895 287.833 289.846 287.92C290.797 288.007 291.753 287.811 292.592 287.357C293.432 286.902 294.118 286.209 294.563 285.366C295.008 284.523 295.193 283.567 295.094 282.619C294.96 281.349 294.327 280.185 293.332 279.381C292.338 278.577 291.065 278.2 289.792 278.332L289.792 278.333Z" fill="#3C4043"/>
<path d="M147.314 347.486C147.149 347.433 147.008 347.321 146.92 347.172C146.832 347.022 146.802 346.846 146.836 346.676L153.015 315.603C153.053 315.421 153.162 315.261 153.317 315.159C153.472 315.057 153.661 315.02 153.843 315.056C154.026 315.093 154.187 315.2 154.291 315.354C154.395 315.508 154.434 315.697 154.399 315.879L148.22 346.952C148.183 347.136 148.075 347.297 147.92 347.401C147.764 347.504 147.574 347.542 147.39 347.505C147.364 347.5 147.339 347.494 147.314 347.486Z" fill="#3C4043"/>
<path d="M146.466 314.579C145.579 314.295 144.79 313.766 144.189 313.053C143.589 312.34 143.201 311.473 143.072 310.55C142.942 309.628 143.076 308.688 143.457 307.839C143.838 306.989 144.451 306.265 145.225 305.749C145.766 305.387 146.373 305.136 147.011 305.01C147.649 304.885 148.307 304.887 148.944 305.017L162.449 307.721C163.736 307.98 164.868 308.74 165.596 309.833C166.324 310.926 166.589 312.262 166.332 313.549C166.072 314.834 165.313 315.964 164.221 316.69C163.13 317.416 161.794 317.679 160.507 317.423L147.003 314.718C146.822 314.682 146.642 314.635 146.466 314.579ZM162.556 309.202C162.431 309.162 162.303 309.129 162.173 309.104L148.669 306.399C147.75 306.218 146.798 306.408 146.02 306.927C145.243 307.447 144.703 308.253 144.519 309.17C144.335 310.087 144.522 311.041 145.039 311.821C145.556 312.602 146.361 313.146 147.277 313.335L160.782 316.04C161.469 316.178 162.181 316.11 162.828 315.844C163.475 315.578 164.029 315.125 164.419 314.544C164.808 313.963 165.016 313.279 165.017 312.579C165.017 311.879 164.81 311.194 164.421 310.611C163.979 309.942 163.32 309.445 162.556 309.202ZM146.513 311.265C146.153 311.151 145.844 310.917 145.637 310.601C145.455 310.328 145.359 310.006 145.359 309.678C145.36 309.35 145.458 309.03 145.642 308.758C145.825 308.486 146.084 308.274 146.388 308.15C146.692 308.025 147.026 307.994 147.347 308.059L162.676 311.128C162.889 311.171 163.093 311.256 163.274 311.377C163.455 311.499 163.611 311.655 163.731 311.837C163.852 312.018 163.936 312.222 163.978 312.436C164.02 312.65 164.019 312.87 163.976 313.083C163.889 313.514 163.634 313.893 163.268 314.136C162.902 314.379 162.454 314.467 162.023 314.38L146.695 311.311C146.633 311.299 146.573 311.284 146.513 311.265ZM147.072 309.441C147.006 309.427 146.937 309.441 146.88 309.478C146.853 309.495 146.83 309.518 146.812 309.545C146.794 309.571 146.782 309.602 146.776 309.633C146.769 309.666 146.769 309.7 146.775 309.733C146.781 309.766 146.794 309.797 146.813 309.825C146.83 309.852 146.853 309.875 146.88 309.893C146.907 309.911 146.937 309.924 146.969 309.929L162.297 312.998C162.329 313.005 162.362 313.006 162.395 313C162.427 312.995 162.458 312.982 162.485 312.965C162.513 312.947 162.537 312.923 162.555 312.896C162.574 312.869 162.586 312.839 162.593 312.806C162.607 312.74 162.594 312.671 162.556 312.615C162.539 312.588 162.516 312.564 162.489 312.546C162.462 312.528 162.432 312.516 162.4 312.51L147.072 309.441Z" fill="#3C4043"/>
<path d="M157.753 331.756C156.845 331.467 155.524 330.599 153.73 329.114C152.318 327.946 151.158 326.842 151.11 326.797C151.024 326.715 150.96 326.612 150.924 326.499C150.888 326.386 150.881 326.266 150.904 326.149C150.927 326.033 150.979 325.924 151.055 325.833C151.131 325.742 151.229 325.672 151.34 325.629C151.978 325.382 157.635 323.225 159.657 323.63C160.747 323.848 161.706 324.49 162.324 325.415C162.943 326.339 163.169 327.47 162.955 328.56C162.732 329.644 162.09 330.596 161.169 331.208C160.247 331.821 159.12 332.044 158.034 331.829C157.939 331.81 157.845 331.785 157.753 331.756ZM152.915 326.548C154.726 328.185 157.256 330.235 158.309 330.446C158.668 330.518 159.037 330.518 159.396 330.445C159.754 330.373 160.095 330.231 160.398 330.026C160.699 329.828 160.958 329.572 161.159 329.273C161.361 328.974 161.501 328.638 161.572 328.285C161.714 327.561 161.564 326.81 161.153 326.196C160.743 325.583 160.106 325.157 159.382 325.012C158.335 324.803 155.211 325.728 152.915 326.548Z" fill="#3C4043"/>
<path d="M143.079 328.804C142.168 328.516 141.382 327.924 140.853 327.128C140.55 326.675 140.339 326.167 140.234 325.632C140.128 325.098 140.13 324.548 140.239 324.014C140.457 322.925 141.098 321.968 142.022 321.351C142.945 320.735 144.076 320.509 145.167 320.724C146.073 320.905 147.482 321.794 149.471 323.439C150.883 324.608 152.042 325.711 152.091 325.757C152.177 325.839 152.241 325.942 152.277 326.055C152.313 326.168 152.32 326.288 152.297 326.405C152.274 326.521 152.222 326.63 152.145 326.721C152.069 326.812 151.971 326.882 151.86 326.925C151.222 327.172 145.565 329.328 143.543 328.924C143.387 328.892 143.232 328.853 143.079 328.804ZM145.047 322.147C144.996 322.131 144.944 322.117 144.892 322.106C144.167 321.964 143.417 322.114 142.804 322.524C142.191 322.934 141.766 323.57 141.621 324.293C141.549 324.645 141.548 325.008 141.618 325.36C141.687 325.713 141.826 326.048 142.026 326.347C142.231 326.655 142.495 326.918 142.803 327.124C143.11 327.329 143.455 327.471 143.818 327.541C144.865 327.751 147.989 326.826 150.285 326.005C148.559 324.444 146.173 322.506 145.047 322.147Z" fill="#3C4043"/>
<path d="M288.523 352.895C288.703 352.936 288.892 352.903 289.049 352.804C289.205 352.705 289.315 352.548 289.356 352.367L296.541 320.394C296.582 320.213 296.549 320.024 296.45 319.867C296.352 319.711 296.195 319.6 296.015 319.56C295.834 319.519 295.645 319.552 295.489 319.651C295.333 319.75 295.223 319.907 295.182 320.088L287.996 352.061C287.956 352.242 287.989 352.431 288.087 352.587C288.186 352.744 288.343 352.854 288.523 352.895Z" fill="#3C4043"/>
<path d="M294.735 325.254C295.725 325.477 296.759 325.401 297.705 325.036C298.652 324.67 299.469 324.031 300.054 323.2C300.638 322.37 300.964 321.384 300.989 320.368C301.015 319.352 300.739 318.351 300.197 317.492C299.654 316.633 298.87 315.955 297.943 315.543C297.016 315.131 295.988 315.003 294.988 315.177C293.989 315.35 293.063 315.817 292.328 316.518C291.593 317.219 291.081 318.122 290.858 319.114C290.561 320.443 290.803 321.836 291.529 322.988C292.256 324.139 293.409 324.954 294.735 325.254ZM296.683 316.588C297.404 316.75 298.06 317.123 298.57 317.66C299.079 318.196 299.418 318.872 299.544 319.601C299.67 320.331 299.577 321.081 299.277 321.758C298.977 322.435 298.484 323.008 297.859 323.404C297.235 323.8 296.507 324.002 295.768 323.983C295.029 323.965 294.313 323.727 293.709 323.301C293.105 322.874 292.641 322.278 292.375 321.587C292.11 320.896 292.055 320.142 292.217 319.419C292.436 318.451 293.029 317.609 293.866 317.079C294.703 316.548 295.716 316.371 296.683 316.588Z" fill="#3C4043"/>
<path d="M580.664 291.555C579.336 290.753 577.607 291.176 576.803 292.499C576.802 292.501 576.801 292.502 576.801 292.503C577.605 291.176 577.179 289.45 575.847 288.648C574.516 287.846 572.785 288.271 571.98 289.598L564.569 301.735L566.504 287.658C566.694 286.121 565.598 284.722 564.056 284.532C562.549 284.347 561.166 285.388 560.932 286.883C561.166 285.352 560.111 283.921 558.575 283.688C557.039 283.454 555.604 284.506 555.37 286.037C555.366 286.06 555.363 286.083 555.36 286.106L555.099 287.955L553.346 300.438C552.726 304.851 554.769 309.216 558.561 311.576L558.542 311.605C559.907 312.416 561.419 312.952 562.992 313.182V313.147C567.426 313.701 571.773 311.603 574.086 307.791L580.631 297.009L581.602 295.41C582.411 294.089 581.993 292.364 580.669 291.558C580.667 291.557 580.665 291.556 580.664 291.555Z" fill="white"/>
<path d="M564.398 313.889C563.977 313.889 563.554 313.867 563.13 313.822C563.054 313.838 562.975 313.841 562.897 313.83C561.23 313.587 559.651 313.027 558.205 312.167C558.137 312.127 558.078 312.075 558.029 312.015C554.139 309.495 552.049 304.939 552.695 300.346L554.72 285.938C555.008 284.052 556.782 282.753 558.674 283.04C559.817 283.214 560.745 283.928 561.238 284.881C561.967 284.143 563.02 283.745 564.136 283.882C566.036 284.115 567.391 285.845 567.157 287.738L565.649 298.706L571.418 289.257C572.408 287.625 574.548 287.099 576.187 288.087C577.177 288.684 577.762 289.698 577.851 290.768C578.021 290.697 578.198 290.638 578.38 290.594C579.28 290.373 580.212 290.516 581.004 290.994C581.006 290.996 581.008 290.997 581.01 290.998C581.011 290.998 581.013 291 581.013 291L581.013 291C582.647 292.009 583.156 294.131 582.162 295.751L574.648 308.13C572.463 311.73 568.551 313.889 564.398 313.889ZM562.992 312.491C563.019 312.491 563.046 312.493 563.073 312.496C567.245 313.018 571.347 311.038 573.523 307.452L581.039 295.07C581.66 294.058 581.339 292.734 580.326 292.117L580.664 291.555L580.323 292.115C579.831 291.818 579.252 291.729 578.694 291.866C578.136 292.003 577.665 292.347 577.367 292.836C577.365 292.838 577.364 292.84 577.363 292.842C577.176 293.151 576.772 293.251 576.462 293.064C576.176 292.892 576.068 292.538 576.198 292.241C576.21 292.214 576.223 292.189 576.238 292.163C576.854 291.148 576.526 289.822 575.508 289.208C574.488 288.594 573.159 288.921 572.543 289.937L565.131 302.075C564.969 302.34 564.643 302.456 564.349 302.352C564.056 302.248 563.876 301.953 563.918 301.646L565.853 287.569C565.922 287.008 565.766 286.445 565.411 285.993C565.057 285.541 564.547 285.253 563.976 285.183C562.814 285.039 561.762 285.831 561.582 286.984C561.526 287.341 561.19 287.586 560.832 287.531C560.474 287.476 560.228 287.141 560.282 286.784C560.462 285.613 559.651 284.514 558.476 284.336C557.301 284.156 556.199 284.964 556.019 286.136L555.75 288.047L553.997 300.529C553.413 304.681 555.341 308.8 558.909 311.021C558.965 311.056 559.015 311.098 559.057 311.147C560.245 311.825 561.529 312.28 562.88 312.502C562.916 312.494 562.954 312.491 562.992 312.491Z" fill="#3C4043"/>
<path d="M571.19 302.399C571.074 302.399 570.957 302.368 570.85 302.304C570.54 302.116 570.44 301.714 570.628 301.404L576.354 291.971C576.542 291.661 576.946 291.562 577.257 291.749C577.567 291.937 577.667 292.34 577.479 292.649L571.753 302.082C571.63 302.286 571.412 302.399 571.19 302.399Z" fill="#3C4043"/>
<path d="M548.658 347.026C548.585 347.026 548.51 347.014 548.437 346.988C548.095 346.867 547.917 346.492 548.038 346.151L561.741 307.722C561.863 307.381 562.239 307.203 562.581 307.324C562.923 307.445 563.102 307.82 562.98 308.161L549.277 346.59C549.181 346.858 548.928 347.026 548.658 347.026Z" fill="#3C4043"/>
<path d="M559.439 298.234C559.408 298.234 559.378 298.232 559.347 298.227C558.987 298.177 558.736 297.846 558.787 297.488L560.318 286.569C560.368 286.211 560.7 285.962 561.06 286.011C561.42 286.061 561.671 286.392 561.62 286.751L560.089 297.669C560.043 297.997 559.761 298.234 559.439 298.234Z" fill="#3C4043"/>
<path d="M560.698 313.262C560.625 313.262 560.55 313.25 560.477 313.224C560.135 313.103 559.957 312.728 560.078 312.387L563.956 301.515C564.078 301.174 564.454 300.996 564.796 301.117C565.138 301.238 565.317 301.613 565.195 301.954L561.317 312.826C561.221 313.095 560.968 313.262 560.698 313.262Z" fill="#3C4043"/>
<path d="M426.036 244.978C429.983 245.544 433.634 242.831 434.191 238.92C434.748 235.009 432 231.38 428.053 230.814C424.106 230.249 420.455 232.961 419.898 236.873C419.341 240.784 422.089 244.413 426.036 244.978Z" fill="white"/>
<path d="M425.934 245.702C424.375 245.479 422.917 244.803 421.744 243.759C420.57 242.716 419.734 241.352 419.341 239.84C418.948 238.328 419.015 236.736 419.535 235.266C420.055 233.795 421.003 232.511 422.26 231.577C423.518 230.643 425.027 230.101 426.599 230.019C428.17 229.936 429.732 230.318 431.088 231.115C432.443 231.912 433.531 233.089 434.214 234.496C434.897 235.904 435.144 237.48 434.924 239.024C434.627 241.093 433.514 242.958 431.828 244.21C430.143 245.462 428.023 245.999 425.934 245.702ZM427.951 231.539C426.682 231.357 425.388 231.552 424.234 232.1C423.079 232.647 422.116 233.522 421.465 234.614C420.814 235.706 420.505 236.966 420.577 238.234C420.649 239.503 421.098 240.723 421.869 241.74C422.64 242.758 423.696 243.527 424.906 243.95C426.115 244.374 427.423 244.433 428.664 244.119C429.905 243.806 431.023 243.135 431.877 242.191C432.73 241.246 433.282 240.071 433.461 238.814C433.699 237.129 433.252 235.416 432.219 234.052C431.186 232.688 429.651 231.784 427.951 231.539Z" fill="#3C4043"/>
<path d="M431.44 261.17C435.387 261.736 439.038 259.023 439.595 255.112C440.152 251.201 437.404 247.572 433.457 247.006C429.51 246.441 425.859 249.153 425.302 253.064C424.745 256.976 427.493 260.605 431.44 261.17Z" fill="white"/>
<path d="M431.338 261.894C429.78 261.671 428.322 260.995 427.148 259.951C425.975 258.908 425.138 257.544 424.745 256.032C424.352 254.52 424.419 252.928 424.939 251.458C425.459 249.987 426.407 248.703 427.665 247.769C428.922 246.835 430.432 246.293 432.003 246.211C433.574 246.128 435.136 246.51 436.492 247.307C437.847 248.104 438.935 249.281 439.618 250.688C440.301 252.096 440.548 253.672 440.328 255.216C440.031 257.285 438.918 259.15 437.232 260.402C435.547 261.654 433.427 262.191 431.338 261.894ZM433.355 247.731C432.086 247.549 430.793 247.744 429.638 248.292C428.484 248.839 427.52 249.714 426.869 250.806C426.218 251.898 425.909 253.158 425.981 254.426C426.053 255.695 426.503 256.915 427.273 257.932C428.044 258.95 429.101 259.719 430.31 260.142C431.52 260.566 432.828 260.625 434.068 260.311C435.309 259.998 436.427 259.327 437.281 258.383C438.135 257.438 438.686 256.263 438.865 255.006C439.103 253.32 438.657 251.608 437.624 250.244C436.591 248.88 435.055 247.976 433.355 247.731Z" fill="#3C4043"/>
<path d="M417.12 259.517C421.067 260.082 424.718 257.37 425.275 253.459C425.832 249.547 423.083 245.918 419.137 245.353C415.19 244.787 411.539 247.5 410.982 251.411C410.425 255.322 413.173 258.951 417.12 259.517Z" fill="white"/>
<path d="M417.018 260.24C415.459 260.017 414.001 259.341 412.828 258.298C411.654 257.255 410.818 255.891 410.425 254.379C410.032 252.867 410.099 251.275 410.619 249.804C411.139 248.333 412.087 247.05 413.344 246.116C414.602 245.182 416.111 244.64 417.683 244.557C419.254 244.475 420.816 244.856 422.172 245.653C423.527 246.45 424.615 247.627 425.298 249.035C425.981 250.443 426.228 252.018 426.008 253.562C425.711 255.632 424.598 257.497 422.912 258.749C421.227 260.001 419.107 260.537 417.018 260.24ZM419.035 246.078C417.766 245.896 416.472 246.091 415.318 246.638C414.163 247.186 413.2 248.061 412.549 249.153C411.898 250.245 411.589 251.504 411.661 252.773C411.733 254.041 412.182 255.261 412.953 256.279C413.724 257.296 414.78 258.065 415.99 258.489C417.199 258.912 418.507 258.971 419.748 258.658C420.989 258.345 422.107 257.674 422.96 256.729C423.814 255.785 424.366 254.61 424.545 253.353C424.783 251.667 424.336 249.955 423.303 248.591C422.27 247.227 420.735 246.323 419.035 246.078Z" fill="#3C4043"/>
<path d="M429.632 276.971C433.579 277.536 437.23 274.824 437.787 270.912C438.344 267.001 435.596 263.372 431.649 262.807C427.703 262.241 424.051 264.954 423.494 268.865C422.937 272.776 425.685 276.405 429.632 276.971Z" fill="white"/>
<path d="M429.529 277.695C427.971 277.472 426.513 276.796 425.34 275.753C424.166 274.71 423.33 273.346 422.937 271.834C422.544 270.322 422.612 268.73 423.131 267.259C423.651 265.788 424.599 264.504 425.857 263.57C427.114 262.636 428.624 262.094 430.195 262.011C431.766 261.929 433.328 262.31 434.683 263.107C436.039 263.904 437.127 265.081 437.809 266.489C438.492 267.897 438.739 269.472 438.519 271.016C438.222 273.086 437.109 274.951 435.423 276.204C433.738 277.456 431.618 277.992 429.529 277.695ZM431.547 263.531C430.278 263.35 428.985 263.545 427.83 264.092C426.676 264.64 425.712 265.515 425.061 266.607C424.41 267.699 424.101 268.959 424.173 270.228C424.245 271.496 424.695 272.716 425.465 273.734C426.236 274.751 427.292 275.52 428.502 275.944C429.711 276.367 431.019 276.426 432.259 276.113C433.5 275.799 434.618 275.128 435.472 274.184C436.326 273.239 436.877 272.064 437.056 270.807C437.294 269.121 436.848 267.409 435.815 266.045C434.782 264.681 433.247 263.777 431.547 263.531Z" fill="#3C4043"/>
<path d="M415.292 275.291C419.239 275.856 422.89 273.143 423.447 269.232C424.004 265.321 421.256 261.692 417.31 261.127C413.363 260.561 409.712 263.274 409.155 267.185C408.598 271.096 411.346 274.725 415.292 275.291Z" fill="white"/>
<path d="M415.188 276.016C413.63 275.793 412.172 275.117 410.999 274.073C409.825 273.03 408.989 271.666 408.596 270.154C408.203 268.642 408.271 267.05 408.79 265.579C409.31 264.108 410.259 262.825 411.516 261.89C412.773 260.956 414.283 260.414 415.854 260.331C417.425 260.249 418.987 260.631 420.343 261.428C421.698 262.225 422.786 263.401 423.469 264.809C424.151 266.217 424.399 267.793 424.179 269.337C423.881 271.406 422.768 273.272 421.083 274.524C419.397 275.776 417.277 276.312 415.188 276.016ZM417.206 261.852C415.937 261.67 414.644 261.865 413.489 262.413C412.335 262.96 411.371 263.835 410.72 264.927C410.069 266.019 409.76 267.279 409.832 268.548C409.904 269.816 410.354 271.037 411.124 272.054C411.895 273.072 412.951 273.841 414.161 274.264C415.37 274.688 416.678 274.746 417.919 274.433C419.159 274.12 420.277 273.448 421.131 272.504C421.985 271.56 422.536 270.384 422.715 269.127C422.953 267.442 422.507 265.729 421.474 264.365C420.441 263.001 418.906 262.097 417.206 261.852Z" fill="#3C4043"/>
<path d="M414.556 346.631C414.365 346.604 414.192 346.504 414.073 346.353C413.955 346.201 413.901 346.01 413.923 345.821L425.928 241.158C425.939 241.062 425.969 240.969 426.016 240.885C426.063 240.801 426.127 240.727 426.203 240.668C426.356 240.547 426.552 240.492 426.747 240.514C426.942 240.537 427.121 240.635 427.243 240.788C427.365 240.94 427.422 241.134 427.4 241.328L415.395 345.991C415.384 346.087 415.354 346.179 415.307 346.263C415.26 346.347 415.196 346.421 415.12 346.481C415.044 346.541 414.957 346.585 414.863 346.611C414.77 346.637 414.672 346.645 414.576 346.634L414.556 346.631Z" fill="#3C4043"/>
<path d="M100.825 220.644C100.673 220.624 100.53 220.558 100.416 220.456C100.301 220.354 100.22 220.219 100.182 220.07C100.144 219.921 100.152 219.765 100.205 219.62C100.257 219.476 100.351 219.35 100.476 219.26C108.642 213.335 114.371 208.316 117.504 204.343C117.674 204.127 117.835 203.917 117.984 203.715C115.244 203.646 113.488 202.91 112.689 201.508C111.75 199.861 112.303 198.132 114.133 196.997C116.345 195.626 119.782 195.532 121.074 197.455C121.841 198.597 121.744 200.137 120.819 202.032C130.355 200.934 148.031 194.432 164.17 186.869C164.354 186.782 164.566 186.773 164.757 186.842C164.949 186.912 165.105 187.054 165.192 187.239C165.278 187.424 165.288 187.635 165.218 187.827C165.149 188.018 165.007 188.175 164.822 188.261C157.116 191.872 145.268 196.894 135.13 200.16C128.649 202.247 123.579 203.416 119.873 203.668C117.051 207.949 110.785 213.679 101.378 220.505C101.219 220.621 101.021 220.671 100.825 220.644ZM118.334 197.554C117.152 197.433 115.963 197.697 114.943 198.305C114.164 198.788 113.372 199.603 114.024 200.747C114.655 201.854 116.412 202.289 119.009 202.18C120.41 199.801 120.067 198.713 119.798 198.312C119.509 197.883 118.973 197.64 118.334 197.554Z" fill="#3C4043"/>
<path d="M140.808 209.356C140.628 209.332 140.463 209.245 140.341 209.111C140.219 208.977 140.148 208.805 140.141 208.624C140.134 208.443 140.191 208.265 140.302 208.122C140.413 207.979 140.572 207.88 140.749 207.842C151.941 205.448 171.617 194.372 171.812 194.26C171.99 194.159 172.2 194.134 172.396 194.189C172.592 194.243 172.759 194.374 172.859 194.551C172.96 194.729 172.985 194.939 172.931 195.135C172.876 195.332 172.746 195.498 172.569 195.598C171.754 196.058 152.491 206.903 141.069 209.345C140.983 209.364 140.895 209.367 140.808 209.356Z" fill="#3C4043"/>
<rect x="445" y="389" width="101" height="7" fill="white"/>
</g>
<defs>
<clipPath id="clip0">
<rect width="586" height="391" fill="white"/>
</clipPath>
</defs>
</svg>
