<?xml version="1.0" encoding="UTF-8" standalone="no"?>
<!DOCTYPE svg PUBLIC "-//W3C//DTD SVG 1.1//EN"
 "http://www.w3.org/Graphics/SVG/1.1/DTD/svg11.dtd">
<!-- Generated by graphviz version 5.0.0 (20220707.1540)
 -->
<!-- Title: dependencies Pages: 1 -->
<svg width="565pt" height="174pt"
 viewBox="0.00 0.00 565.00 173.80" xmlns="http://www.w3.org/2000/svg" xmlns:xlink="http://www.w3.org/1999/xlink">
<g id="graph0" class="graph" transform="scale(1 1) rotate(0) translate(4 169.8)">
<title>dependencies</title>
<polygon fill="white" stroke="transparent" points="-4,4 -4,-169.8 561,-169.8 561,4 -4,4"/>
<text text-anchor="middle" x="278.5" y="-8.2" font-family="sans-serif" font-size="14.00">dependencies</text>
<g id="clust1" class="cluster">
<title>cluster_CredentialsListModule</title>
<polygon fill="none" stroke="black" stroke-dasharray="1,5" points="8,-32.8 8,-157.8 549,-157.8 549,-32.8 8,-32.8"/>
</g>
<g id="clust2" class="cluster">
<title>cluster_CredentialsListModule_declarations</title>
<polygon fill="none" stroke="black" points="359,-40.8 359,-92.8 541,-92.8 541,-40.8 359,-40.8"/>
</g>
<g id="clust4" class="cluster">
<title>cluster_CredentialsListModule_imports</title>
<polygon fill="none" stroke="black" points="16,-40.8 16,-92.8 351,-92.8 351,-40.8 16,-40.8"/>
</g>
<!-- CredentialsListComponent -->
<g id="node1" class="node">
<title>CredentialsListComponent</title>
<polygon fill="#ffffb3" stroke="black" points="533.37,-84.8 366.63,-84.8 366.63,-48.8 533.37,-48.8 533.37,-84.8"/>
<text text-anchor="middle" x="450" y="-62.6" font-family="Times,serif" font-size="14.00">CredentialsListComponent</text>
</g>
<!-- CredentialsListModule -->
<g id="node2" class="node">
<title>CredentialsListModule</title>
<polygon fill="#8dd3c7" stroke="black" points="320.59,-149.8 317.59,-153.8 296.59,-153.8 293.59,-149.8 175.41,-149.8 175.41,-113.8 320.59,-113.8 320.59,-149.8"/>
<text text-anchor="middle" x="248" y="-127.6" font-family="Times,serif" font-size="14.00">CredentialsListModule</text>
</g>
<!-- CredentialsListComponent&#45;&gt;CredentialsListModule -->
<g id="edge1" class="edge">
<title>CredentialsListComponent&#45;&gt;CredentialsListModule</title>
<path fill="none" stroke="black" d="M450,-84.91C450,-104.14 450,-131.8 450,-131.8 450,-131.8 330.64,-131.8 330.64,-131.8"/>
<polygon fill="black" stroke="black" points="330.64,-128.3 320.64,-131.8 330.64,-135.3 330.64,-128.3"/>
</g>
<!-- CredentialsListRoutingModule -->
<g id="node3" class="node">
<title>CredentialsListRoutingModule</title>
<polygon fill="#8dd3c7" stroke="black" points="343.21,-84.8 340.21,-88.8 319.21,-88.8 316.21,-84.8 152.79,-84.8 152.79,-48.8 343.21,-48.8 343.21,-84.8"/>
<text text-anchor="middle" x="248" y="-62.6" font-family="Times,serif" font-size="14.00">CredentialsListRoutingModule</text>
</g>
<!-- CredentialsListRoutingModule&#45;&gt;CredentialsListModule -->
<g id="edge2" class="edge">
<title>CredentialsListRoutingModule&#45;&gt;CredentialsListModule</title>
<path fill="none" stroke="black" d="M248,-84.91C248,-84.91 248,-103.79 248,-103.79"/>
<polygon fill="black" stroke="black" points="244.5,-103.79 248,-113.79 251.5,-103.79 244.5,-103.79"/>
</g>
<!-- KrModalModule -->
<g id="node4" class="node">
<title>KrModalModule</title>
<polygon fill="#8dd3c7" stroke="black" points="134.38,-84.8 131.38,-88.8 110.38,-88.8 107.38,-84.8 23.62,-84.8 23.62,-48.8 134.38,-48.8 134.38,-84.8"/>
<text text-anchor="middle" x="79" y="-62.6" font-family="Times,serif" font-size="14.00">KrModalModule</text>
</g>
<!-- KrModalModule&#45;&gt;CredentialsListModule -->
<g id="edge3" class="edge">
<title>KrModalModule&#45;&gt;CredentialsListModule</title>
<path fill="none" stroke="black" d="M79,-84.91C79,-104.14 79,-131.8 79,-131.8 79,-131.8 165.35,-131.8 165.35,-131.8"/>
<polygon fill="black" stroke="black" points="165.35,-135.3 175.35,-131.8 165.35,-128.3 165.35,-135.3"/>
</g>
</g>
</svg>
