<?xml version="1.0" encoding="UTF-8" standalone="no"?>
<!DOCTYPE svg PUBLIC "-//W3C//DTD SVG 1.1//EN"
 "http://www.w3.org/Graphics/SVG/1.1/DTD/svg11.dtd">
<!-- Generated by graphviz version 5.0.0 (20220707.1540)
 -->
<!-- Title: dependencies Pages: 1 -->
<svg width="718pt" height="174pt"
 viewBox="0.00 0.00 718.00 173.80" xmlns="http://www.w3.org/2000/svg" xmlns:xlink="http://www.w3.org/1999/xlink">
<g id="graph0" class="graph" transform="scale(1 1) rotate(0) translate(4 169.8)">
<title>dependencies</title>
<polygon fill="white" stroke="transparent" points="-4,4 -4,-169.8 714,-169.8 714,4 -4,4"/>
<text text-anchor="middle" x="355" y="-8.2" font-family="sans-serif" font-size="14.00">dependencies</text>
<g id="clust1" class="cluster">
<title>cluster_CredentialsListModule</title>
<polygon fill="none" stroke="black" stroke-dasharray="1,5" points="8,-32.8 8,-157.8 702,-157.8 702,-32.8 8,-32.8"/>
</g>
<g id="clust2" class="cluster">
<title>cluster_CredentialsListModule_declarations</title>
<polygon fill="none" stroke="black" points="512,-40.8 512,-92.8 694,-92.8 694,-40.8 512,-40.8"/>
</g>
<g id="clust4" class="cluster">
<title>cluster_CredentialsListModule_imports</title>
<polygon fill="none" stroke="black" points="16,-40.8 16,-92.8 504,-92.8 504,-40.8 16,-40.8"/>
</g>
<!-- CredentialsListComponent -->
<g id="node1" class="node">
<title>CredentialsListComponent</title>
<polygon fill="#ffffb3" stroke="black" points="686.37,-84.8 519.63,-84.8 519.63,-48.8 686.37,-48.8 686.37,-84.8"/>
<text text-anchor="middle" x="603" y="-62.6" font-family="Times,serif" font-size="14.00">CredentialsListComponent</text>
</g>
<!-- CredentialsListModule -->
<g id="node2" class="node">
<title>CredentialsListModule</title>
<polygon fill="#8dd3c7" stroke="black" points="382.59,-149.8 379.59,-153.8 358.59,-153.8 355.59,-149.8 237.41,-149.8 237.41,-113.8 382.59,-113.8 382.59,-149.8"/>
<text text-anchor="middle" x="310" y="-127.6" font-family="Times,serif" font-size="14.00">CredentialsListModule</text>
</g>
<!-- CredentialsListComponent&#45;&gt;CredentialsListModule -->
<g id="edge1" class="edge">
<title>CredentialsListComponent&#45;&gt;CredentialsListModule</title>
<path fill="none" stroke="black" d="M603,-84.91C603,-104.14 603,-131.8 603,-131.8 603,-131.8 392.8,-131.8 392.8,-131.8"/>
<polygon fill="black" stroke="black" points="392.8,-128.3 382.8,-131.8 392.8,-135.3 392.8,-128.3"/>
</g>
<!-- CredentialsListRoutingModule -->
<g id="node3" class="node">
<title>CredentialsListRoutingModule</title>
<polygon fill="#8dd3c7" stroke="black" points="496.21,-84.8 493.21,-88.8 472.21,-88.8 469.21,-84.8 305.79,-84.8 305.79,-48.8 496.21,-48.8 496.21,-84.8"/>
<text text-anchor="middle" x="401" y="-62.6" font-family="Times,serif" font-size="14.00">CredentialsListRoutingModule</text>
</g>
<!-- CredentialsListRoutingModule&#45;&gt;CredentialsListModule -->
<g id="edge2" class="edge">
<title>CredentialsListRoutingModule&#45;&gt;CredentialsListModule</title>
<path fill="none" stroke="black" d="M344.22,-84.91C344.22,-84.91 344.22,-103.79 344.22,-103.79"/>
<polygon fill="black" stroke="black" points="340.72,-103.79 344.22,-113.79 347.72,-103.79 340.72,-103.79"/>
</g>
<!-- EmptyScreenModule -->
<g id="node4" class="node">
<title>EmptyScreenModule</title>
<polygon fill="#8dd3c7" stroke="black" points="287.47,-84.8 284.47,-88.8 263.47,-88.8 260.47,-84.8 152.53,-84.8 152.53,-48.8 287.47,-48.8 287.47,-84.8"/>
<text text-anchor="middle" x="220" y="-62.6" font-family="Times,serif" font-size="14.00">EmptyScreenModule</text>
</g>
<!-- EmptyScreenModule&#45;&gt;CredentialsListModule -->
<g id="edge3" class="edge">
<title>EmptyScreenModule&#45;&gt;CredentialsListModule</title>
<path fill="none" stroke="black" d="M262.47,-84.91C262.47,-84.91 262.47,-103.79 262.47,-103.79"/>
<polygon fill="black" stroke="black" points="258.97,-103.79 262.47,-113.79 265.97,-103.79 258.97,-103.79"/>
</g>
<!-- KrModalModule -->
<g id="node5" class="node">
<title>KrModalModule</title>
<polygon fill="#8dd3c7" stroke="black" points="134.38,-84.8 131.38,-88.8 110.38,-88.8 107.38,-84.8 23.62,-84.8 23.62,-48.8 134.38,-48.8 134.38,-84.8"/>
<text text-anchor="middle" x="79" y="-62.6" font-family="Times,serif" font-size="14.00">KrModalModule</text>
</g>
<!-- KrModalModule&#45;&gt;CredentialsListModule -->
<g id="edge4" class="edge">
<title>KrModalModule&#45;&gt;CredentialsListModule</title>
<path fill="none" stroke="black" d="M79,-84.91C79,-104.14 79,-131.8 79,-131.8 79,-131.8 227.23,-131.8 227.23,-131.8"/>
<polygon fill="black" stroke="black" points="227.23,-135.3 237.23,-131.8 227.23,-128.3 227.23,-135.3"/>
</g>
</g>
</svg>
