<?xml version="1.0" encoding="UTF-8" standalone="no"?>
<!DOCTYPE svg PUBLIC "-//W3C//DTD SVG 1.1//EN"
 "http://www.w3.org/Graphics/SVG/1.1/DTD/svg11.dtd">
<!-- Generated by graphviz version 5.0.0 (20220707.1540)
 -->
<!-- Title: dependencies Pages: 1 -->
<svg width="588pt" height="174pt"
 viewBox="0.00 0.00 588.00 173.80" xmlns="http://www.w3.org/2000/svg" xmlns:xlink="http://www.w3.org/1999/xlink">
<g id="graph0" class="graph" transform="scale(1 1) rotate(0) translate(4 169.8)">
<title>dependencies</title>
<polygon fill="white" stroke="transparent" points="-4,4 -4,-169.8 584,-169.8 584,4 -4,4"/>
<text text-anchor="middle" x="290" y="-8.2" font-family="sans-serif" font-size="14.00">dependencies</text>
<g id="clust1" class="cluster">
<title>cluster_SummaryModule</title>
<polygon fill="none" stroke="black" stroke-dasharray="1,5" points="8,-32.8 8,-157.8 572,-157.8 572,-32.8 8,-32.8"/>
</g>
<g id="clust2" class="cluster">
<title>cluster_SummaryModule_declarations</title>
<polygon fill="none" stroke="black" points="412,-40.8 412,-92.8 564,-92.8 564,-40.8 412,-40.8"/>
</g>
<g id="clust4" class="cluster">
<title>cluster_SummaryModule_imports</title>
<polygon fill="none" stroke="black" points="16,-40.8 16,-92.8 404,-92.8 404,-40.8 16,-40.8"/>
</g>
<!-- SummaryComponent -->
<g id="node1" class="node">
<title>SummaryComponent</title>
<polygon fill="#ffffb3" stroke="black" points="555.77,-84.8 420.23,-84.8 420.23,-48.8 555.77,-48.8 555.77,-84.8"/>
<text text-anchor="middle" x="488" y="-62.6" font-family="Times,serif" font-size="14.00">SummaryComponent</text>
</g>
<!-- SummaryModule -->
<g id="node2" class="node">
<title>SummaryModule</title>
<polygon fill="#8dd3c7" stroke="black" points="372.99,-149.8 369.99,-153.8 348.99,-153.8 345.99,-149.8 259.01,-149.8 259.01,-113.8 372.99,-113.8 372.99,-149.8"/>
<text text-anchor="middle" x="316" y="-127.6" font-family="Times,serif" font-size="14.00">SummaryModule</text>
</g>
<!-- SummaryComponent&#45;&gt;SummaryModule -->
<g id="edge1" class="edge">
<title>SummaryComponent&#45;&gt;SummaryModule</title>
<path fill="none" stroke="black" d="M488,-84.91C488,-104.14 488,-131.8 488,-131.8 488,-131.8 383.27,-131.8 383.27,-131.8"/>
<polygon fill="black" stroke="black" points="383.27,-128.3 373.27,-131.8 383.27,-135.3 383.27,-128.3"/>
</g>
<!-- SummaryRoutingModule -->
<g id="node3" class="node">
<title>SummaryRoutingModule</title>
<polygon fill="#8dd3c7" stroke="black" points="395.61,-84.8 392.61,-88.8 371.61,-88.8 368.61,-84.8 236.39,-84.8 236.39,-48.8 395.61,-48.8 395.61,-84.8"/>
<text text-anchor="middle" x="316" y="-62.6" font-family="Times,serif" font-size="14.00">SummaryRoutingModule</text>
</g>
<!-- SummaryRoutingModule&#45;&gt;SummaryModule -->
<g id="edge2" class="edge">
<title>SummaryRoutingModule&#45;&gt;SummaryModule</title>
<path fill="none" stroke="black" d="M316,-84.91C316,-84.91 316,-103.79 316,-103.79"/>
<polygon fill="black" stroke="black" points="312.5,-103.79 316,-113.79 319.5,-103.79 312.5,-103.79"/>
</g>
<!-- UseronboardingJourneyModule -->
<g id="node4" class="node">
<title>UseronboardingJourneyModule</title>
<polygon fill="#8dd3c7" stroke="black" points="218.08,-84.8 215.08,-88.8 194.08,-88.8 191.08,-84.8 23.92,-84.8 23.92,-48.8 218.08,-48.8 218.08,-84.8"/>
<text text-anchor="middle" x="121" y="-62.6" font-family="Times,serif" font-size="14.00">UseronboardingJourneyModule</text>
</g>
<!-- UseronboardingJourneyModule&#45;&gt;SummaryModule -->
<g id="edge3" class="edge">
<title>UseronboardingJourneyModule&#45;&gt;SummaryModule</title>
<path fill="none" stroke="black" d="M121,-84.91C121,-104.14 121,-131.8 121,-131.8 121,-131.8 248.81,-131.8 248.81,-131.8"/>
<polygon fill="black" stroke="black" points="248.81,-135.3 258.81,-131.8 248.81,-128.3 248.81,-135.3"/>
</g>
</g>
</svg>
