<?xml version="1.0" encoding="UTF-8" standalone="no"?>
<!DOCTYPE svg PUBLIC "-//W3C//DTD SVG 1.1//EN"
 "http://www.w3.org/Graphics/SVG/1.1/DTD/svg11.dtd">
<!-- Generated by graphviz version 5.0.0 (20220707.1540)
 -->
<!-- Title: dependencies Pages: 1 -->
<svg width="596pt" height="174pt"
 viewBox="0.00 0.00 596.00 173.80" xmlns="http://www.w3.org/2000/svg" xmlns:xlink="http://www.w3.org/1999/xlink">
<g id="graph0" class="graph" transform="scale(1 1) rotate(0) translate(4 169.8)">
<title>dependencies</title>
<polygon fill="white" stroke="transparent" points="-4,4 -4,-169.8 592,-169.8 592,4 -4,4"/>
<text text-anchor="middle" x="294" y="-8.2" font-family="sans-serif" font-size="14.00">dependencies</text>
<g id="clust1" class="cluster">
<title>cluster_SpellCorrectionModule</title>
<polygon fill="none" stroke="black" stroke-dasharray="1,5" points="8,-32.8 8,-157.8 580,-157.8 580,-32.8 8,-32.8"/>
</g>
<g id="clust2" class="cluster">
<title>cluster_SpellCorrectionModule_declarations</title>
<polygon fill="none" stroke="black" points="386,-40.8 386,-92.8 572,-92.8 572,-40.8 386,-40.8"/>
</g>
<g id="clust4" class="cluster">
<title>cluster_SpellCorrectionModule_imports</title>
<polygon fill="none" stroke="black" points="16,-40.8 16,-92.8 378,-92.8 378,-40.8 16,-40.8"/>
</g>
<!-- SpellCorrectionComponent -->
<g id="node1" class="node">
<title>SpellCorrectionComponent</title>
<polygon fill="#ffffb3" stroke="black" points="563.98,-84.8 394.02,-84.8 394.02,-48.8 563.98,-48.8 563.98,-84.8"/>
<text text-anchor="middle" x="479" y="-62.6" font-family="Times,serif" font-size="14.00">SpellCorrectionComponent</text>
</g>
<!-- SpellCorrectionModule -->
<g id="node2" class="node">
<title>SpellCorrectionModule</title>
<polygon fill="#8dd3c7" stroke="black" points="377.2,-149.8 374.2,-153.8 353.2,-153.8 350.2,-149.8 228.8,-149.8 228.8,-113.8 377.2,-113.8 377.2,-149.8"/>
<text text-anchor="middle" x="303" y="-127.6" font-family="Times,serif" font-size="14.00">SpellCorrectionModule</text>
</g>
<!-- SpellCorrectionComponent&#45;&gt;SpellCorrectionModule -->
<g id="edge1" class="edge">
<title>SpellCorrectionComponent&#45;&gt;SpellCorrectionModule</title>
<path fill="none" stroke="black" d="M479,-84.91C479,-104.14 479,-131.8 479,-131.8 479,-131.8 387.13,-131.8 387.13,-131.8"/>
<polygon fill="black" stroke="black" points="387.13,-128.3 377.13,-131.8 387.13,-135.3 387.13,-128.3"/>
</g>
<!-- FindlySharedModule -->
<g id="node3" class="node">
<title>FindlySharedModule</title>
<polygon fill="#8dd3c7" stroke="black" points="370.49,-84.8 367.49,-88.8 346.49,-88.8 343.49,-84.8 235.51,-84.8 235.51,-48.8 370.49,-48.8 370.49,-84.8"/>
<text text-anchor="middle" x="303" y="-62.6" font-family="Times,serif" font-size="14.00">FindlySharedModule</text>
</g>
<!-- FindlySharedModule&#45;&gt;SpellCorrectionModule -->
<g id="edge2" class="edge">
<title>FindlySharedModule&#45;&gt;SpellCorrectionModule</title>
<path fill="none" stroke="black" d="M303,-84.91C303,-84.91 303,-103.79 303,-103.79"/>
<polygon fill="black" stroke="black" points="299.5,-103.79 303,-113.79 306.5,-103.79 299.5,-103.79"/>
</g>
<!-- SpellCorrectionRoutingModule -->
<g id="node4" class="node">
<title>SpellCorrectionRoutingModule</title>
<polygon fill="#8dd3c7" stroke="black" points="217.82,-84.8 214.82,-88.8 193.82,-88.8 190.82,-84.8 24.18,-84.8 24.18,-48.8 217.82,-48.8 217.82,-84.8"/>
<text text-anchor="middle" x="121" y="-62.6" font-family="Times,serif" font-size="14.00">SpellCorrectionRoutingModule</text>
</g>
<!-- SpellCorrectionRoutingModule&#45;&gt;SpellCorrectionModule -->
<g id="edge3" class="edge">
<title>SpellCorrectionRoutingModule&#45;&gt;SpellCorrectionModule</title>
<path fill="none" stroke="black" d="M121,-84.91C121,-104.14 121,-131.8 121,-131.8 121,-131.8 218.71,-131.8 218.71,-131.8"/>
<polygon fill="black" stroke="black" points="218.71,-135.3 228.71,-131.8 218.71,-128.3 218.71,-135.3"/>
</g>
</g>
</svg>
