<?xml version="1.0" encoding="UTF-8" standalone="no"?>
<!DOCTYPE svg PUBLIC "-//W3C//DTD SVG 1.1//EN"
 "http://www.w3.org/Graphics/SVG/1.1/DTD/svg11.dtd">
<!-- Generated by graphviz version 5.0.0 (20220707.1540)
 -->
<!-- Title: dependencies Pages: 1 -->
<svg width="596pt" height="174pt"
 viewBox="0.00 0.00 596.00 173.80" xmlns="http://www.w3.org/2000/svg" xmlns:xlink="http://www.w3.org/1999/xlink">
<g id="graph0" class="graph" transform="scale(1 1) rotate(0) translate(4 169.8)">
<title>dependencies</title>
<polygon fill="white" stroke="transparent" points="-4,4 -4,-169.8 592,-169.8 592,4 -4,4"/>
<text text-anchor="middle" x="294" y="-8.2" font-family="sans-serif" font-size="14.00">dependencies</text>
<g id="clust1" class="cluster">
<title>cluster_SpellCorrectionModule</title>
<polygon fill="none" stroke="black" stroke-dasharray="1,5" points="8,-32.8 8,-157.8 580,-157.8 580,-32.8 8,-32.8"/>
</g>
<g id="clust4" class="cluster">
<title>cluster_SpellCorrectionModule_imports</title>
<polygon fill="none" stroke="black" points="210,-40.8 210,-92.8 572,-92.8 572,-40.8 210,-40.8"/>
</g>
<g id="clust2" class="cluster">
<title>cluster_SpellCorrectionModule_declarations</title>
<polygon fill="none" stroke="black" points="16,-40.8 16,-92.8 202,-92.8 202,-40.8 16,-40.8"/>
</g>
<!-- SpellCorrectionComponent -->
<g id="node1" class="node">
<title>SpellCorrectionComponent</title>
<polygon fill="#ffffb3" stroke="black" points="193.98,-84.8 24.02,-84.8 24.02,-48.8 193.98,-48.8 193.98,-84.8"/>
<text text-anchor="middle" x="109" y="-62.6" font-family="Times,serif" font-size="14.00">SpellCorrectionComponent</text>
</g>
<!-- SpellCorrectionModule -->
<g id="node2" class="node">
<title>SpellCorrectionModule</title>
<polygon fill="#8dd3c7" stroke="black" points="389.2,-149.8 386.2,-153.8 365.2,-153.8 362.2,-149.8 240.8,-149.8 240.8,-113.8 389.2,-113.8 389.2,-149.8"/>
<text text-anchor="middle" x="315" y="-127.6" font-family="Times,serif" font-size="14.00">SpellCorrectionModule</text>
</g>
<!-- SpellCorrectionComponent&#45;&gt;SpellCorrectionModule -->
<g id="edge1" class="edge">
<title>SpellCorrectionComponent&#45;&gt;SpellCorrectionModule</title>
<path fill="none" stroke="black" d="M109,-84.91C109,-104.14 109,-131.8 109,-131.8 109,-131.8 230.63,-131.8 230.63,-131.8"/>
<polygon fill="black" stroke="black" points="230.63,-135.3 240.63,-131.8 230.63,-128.3 230.63,-135.3"/>
</g>
<!-- FindlySharedModule -->
<g id="node3" class="node">
<title>FindlySharedModule</title>
<polygon fill="#8dd3c7" stroke="black" points="564.49,-84.8 561.49,-88.8 540.49,-88.8 537.49,-84.8 429.51,-84.8 429.51,-48.8 564.49,-48.8 564.49,-84.8"/>
<text text-anchor="middle" x="497" y="-62.6" font-family="Times,serif" font-size="14.00">FindlySharedModule</text>
</g>
<!-- FindlySharedModule&#45;&gt;SpellCorrectionModule -->
<g id="edge2" class="edge">
<title>FindlySharedModule&#45;&gt;SpellCorrectionModule</title>
<path fill="none" stroke="black" d="M497,-84.91C497,-104.14 497,-131.8 497,-131.8 497,-131.8 399.29,-131.8 399.29,-131.8"/>
<polygon fill="black" stroke="black" points="399.29,-128.3 389.29,-131.8 399.29,-135.3 399.29,-128.3"/>
</g>
<!-- SpellCorrectionRoutingModule -->
<g id="node4" class="node">
<title>SpellCorrectionRoutingModule</title>
<polygon fill="#8dd3c7" stroke="black" points="411.82,-84.8 408.82,-88.8 387.82,-88.8 384.82,-84.8 218.18,-84.8 218.18,-48.8 411.82,-48.8 411.82,-84.8"/>
<text text-anchor="middle" x="315" y="-62.6" font-family="Times,serif" font-size="14.00">SpellCorrectionRoutingModule</text>
</g>
<!-- SpellCorrectionRoutingModule&#45;&gt;SpellCorrectionModule -->
<g id="edge3" class="edge">
<title>SpellCorrectionRoutingModule&#45;&gt;SpellCorrectionModule</title>
<path fill="none" stroke="black" d="M315,-84.91C315,-84.91 315,-103.79 315,-103.79"/>
<polygon fill="black" stroke="black" points="311.5,-103.79 315,-113.79 318.5,-103.79 311.5,-103.79"/>
</g>
</g>
</svg>
