<?xml version="1.0" encoding="UTF-8" standalone="no"?>
<!DOCTYPE svg PUBLIC "-//W3C//DTD SVG 1.1//EN"
 "http://www.w3.org/Graphics/SVG/1.1/DTD/svg11.dtd">
<!-- Generated by graphviz version 5.0.0 (20220707.1540)
 -->
<!-- Title: dependencies Pages: 1 -->
<svg width="808pt" height="174pt"
 viewBox="0.00 0.00 808.00 173.80" xmlns="http://www.w3.org/2000/svg" xmlns:xlink="http://www.w3.org/1999/xlink">
<g id="graph0" class="graph" transform="scale(1 1) rotate(0) translate(4 169.8)">
<title>dependencies</title>
<polygon fill="white" stroke="transparent" points="-4,4 -4,-169.8 804,-169.8 804,4 -4,4"/>
<text text-anchor="middle" x="400" y="-8.2" font-family="sans-serif" font-size="14.00">dependencies</text>
<g id="clust1" class="cluster">
<title>cluster_SearchExperienceModule</title>
<polygon fill="none" stroke="black" stroke-dasharray="1,5" points="8,-32.8 8,-157.8 792,-157.8 792,-32.8 8,-32.8"/>
</g>
<g id="clust2" class="cluster">
<title>cluster_SearchExperienceModule_declarations</title>
<polygon fill="none" stroke="black" points="586,-40.8 586,-92.8 784,-92.8 784,-40.8 586,-40.8"/>
</g>
<g id="clust4" class="cluster">
<title>cluster_SearchExperienceModule_imports</title>
<polygon fill="none" stroke="black" points="16,-40.8 16,-92.8 578,-92.8 578,-40.8 16,-40.8"/>
</g>
<!-- SearchExperienceComponent -->
<g id="node1" class="node">
<title>SearchExperienceComponent</title>
<polygon fill="#ffffb3" stroke="black" points="776.38,-84.8 593.62,-84.8 593.62,-48.8 776.38,-48.8 776.38,-84.8"/>
<text text-anchor="middle" x="685" y="-62.6" font-family="Times,serif" font-size="14.00">SearchExperienceComponent</text>
</g>
<!-- SearchExperienceModule -->
<g id="node2" class="node">
<title>SearchExperienceModule</title>
<polygon fill="#8dd3c7" stroke="black" points="507.1,-149.8 504.1,-153.8 483.1,-153.8 480.1,-149.8 346.9,-149.8 346.9,-113.8 507.1,-113.8 507.1,-149.8"/>
<text text-anchor="middle" x="427" y="-127.6" font-family="Times,serif" font-size="14.00">SearchExperienceModule</text>
</g>
<!-- SearchExperienceComponent&#45;&gt;SearchExperienceModule -->
<g id="edge1" class="edge">
<title>SearchExperienceComponent&#45;&gt;SearchExperienceModule</title>
<path fill="none" stroke="black" d="M685,-84.91C685,-104.14 685,-131.8 685,-131.8 685,-131.8 517.22,-131.8 517.22,-131.8"/>
<polygon fill="black" stroke="black" points="517.22,-128.3 507.22,-131.8 517.22,-135.3 517.22,-128.3"/>
</g>
<!-- KrModalModule -->
<g id="node3" class="node">
<title>KrModalModule</title>
<polygon fill="#8dd3c7" stroke="black" points="570.38,-84.8 567.38,-88.8 546.38,-88.8 543.38,-84.8 459.62,-84.8 459.62,-48.8 570.38,-48.8 570.38,-84.8"/>
<text text-anchor="middle" x="515" y="-62.6" font-family="Times,serif" font-size="14.00">KrModalModule</text>
</g>
<!-- KrModalModule&#45;&gt;SearchExperienceModule -->
<g id="edge2" class="edge">
<title>KrModalModule&#45;&gt;SearchExperienceModule</title>
<path fill="none" stroke="black" d="M483.43,-84.91C483.43,-84.91 483.43,-103.79 483.43,-103.79"/>
<polygon fill="black" stroke="black" points="479.93,-103.79 483.43,-113.79 486.93,-103.79 479.93,-103.79"/>
</g>
<!-- SearchExperienceRoutingModule -->
<g id="node4" class="node">
<title>SearchExperienceRoutingModule</title>
<polygon fill="#8dd3c7" stroke="black" points="441.72,-84.8 438.72,-88.8 417.72,-88.8 414.72,-84.8 236.28,-84.8 236.28,-48.8 441.72,-48.8 441.72,-84.8"/>
<text text-anchor="middle" x="339" y="-62.6" font-family="Times,serif" font-size="14.00">SearchExperienceRoutingModule</text>
</g>
<!-- SearchExperienceRoutingModule&#45;&gt;SearchExperienceModule -->
<g id="edge3" class="edge">
<title>SearchExperienceRoutingModule&#45;&gt;SearchExperienceModule</title>
<path fill="none" stroke="black" d="M394.28,-84.91C394.28,-84.91 394.28,-103.79 394.28,-103.79"/>
<polygon fill="black" stroke="black" points="390.78,-103.79 394.28,-113.79 397.78,-103.79 390.78,-103.79"/>
</g>
<!-- UseronboardingJourneyModule -->
<g id="node5" class="node">
<title>UseronboardingJourneyModule</title>
<polygon fill="#8dd3c7" stroke="black" points="218.08,-84.8 215.08,-88.8 194.08,-88.8 191.08,-84.8 23.92,-84.8 23.92,-48.8 218.08,-48.8 218.08,-84.8"/>
<text text-anchor="middle" x="121" y="-62.6" font-family="Times,serif" font-size="14.00">UseronboardingJourneyModule</text>
</g>
<!-- UseronboardingJourneyModule&#45;&gt;SearchExperienceModule -->
<g id="edge4" class="edge">
<title>UseronboardingJourneyModule&#45;&gt;SearchExperienceModule</title>
<path fill="none" stroke="black" d="M121,-84.91C121,-104.14 121,-131.8 121,-131.8 121,-131.8 336.6,-131.8 336.6,-131.8"/>
<polygon fill="black" stroke="black" points="336.6,-135.3 346.6,-131.8 336.6,-128.3 336.6,-135.3"/>
</g>
</g>
</svg>
