<?xml version="1.0" encoding="UTF-8" standalone="no"?>
<!DOCTYPE svg PUBLIC "-//W3C//DTD SVG 1.1//EN"
 "http://www.w3.org/Graphics/SVG/1.1/DTD/svg11.dtd">
<!-- Generated by graphviz version 5.0.0 (20220707.1540)
 -->
<!-- Title: dependencies Pages: 1 -->
<svg width="808pt" height="174pt"
 viewBox="0.00 0.00 808.00 173.80" xmlns="http://www.w3.org/2000/svg" xmlns:xlink="http://www.w3.org/1999/xlink">
<g id="graph0" class="graph" transform="scale(1 1) rotate(0) translate(4 169.8)">
<title>dependencies</title>
<polygon fill="white" stroke="transparent" points="-4,4 -4,-169.8 804,-169.8 804,4 -4,4"/>
<text text-anchor="middle" x="400" y="-8.2" font-family="sans-serif" font-size="14.00">dependencies</text>
<g id="clust1" class="cluster">
<title>cluster_SearchExperienceModule</title>
<polygon fill="none" stroke="black" stroke-dasharray="1,5" points="8,-32.8 8,-157.8 792,-157.8 792,-32.8 8,-32.8"/>
</g>
<g id="clust4" class="cluster">
<title>cluster_SearchExperienceModule_imports</title>
<polygon fill="none" stroke="black" points="222,-40.8 222,-92.8 784,-92.8 784,-40.8 222,-40.8"/>
</g>
<g id="clust2" class="cluster">
<title>cluster_SearchExperienceModule_declarations</title>
<polygon fill="none" stroke="black" points="16,-40.8 16,-92.8 214,-92.8 214,-40.8 16,-40.8"/>
</g>
<!-- SearchExperienceComponent -->
<g id="node1" class="node">
<title>SearchExperienceComponent</title>
<polygon fill="#ffffb3" stroke="black" points="206.38,-84.8 23.62,-84.8 23.62,-48.8 206.38,-48.8 206.38,-84.8"/>
<text text-anchor="middle" x="115" y="-62.6" font-family="Times,serif" font-size="14.00">SearchExperienceComponent</text>
</g>
<!-- SearchExperienceModule -->
<g id="node2" class="node">
<title>SearchExperienceModule</title>
<polygon fill="#8dd3c7" stroke="black" points="516.1,-149.8 513.1,-153.8 492.1,-153.8 489.1,-149.8 355.9,-149.8 355.9,-113.8 516.1,-113.8 516.1,-149.8"/>
<text text-anchor="middle" x="436" y="-127.6" font-family="Times,serif" font-size="14.00">SearchExperienceModule</text>
</g>
<!-- SearchExperienceComponent&#45;&gt;SearchExperienceModule -->
<g id="edge1" class="edge">
<title>SearchExperienceComponent&#45;&gt;SearchExperienceModule</title>
<path fill="none" stroke="black" d="M115,-84.91C115,-104.14 115,-131.8 115,-131.8 115,-131.8 345.83,-131.8 345.83,-131.8"/>
<polygon fill="black" stroke="black" points="345.83,-135.3 355.83,-131.8 345.83,-128.3 345.83,-135.3"/>
</g>
<!-- KrModalModule -->
<g id="node3" class="node">
<title>KrModalModule</title>
<polygon fill="#8dd3c7" stroke="black" points="776.38,-84.8 773.38,-88.8 752.38,-88.8 749.38,-84.8 665.62,-84.8 665.62,-48.8 776.38,-48.8 776.38,-84.8"/>
<text text-anchor="middle" x="721" y="-62.6" font-family="Times,serif" font-size="14.00">KrModalModule</text>
</g>
<!-- KrModalModule&#45;&gt;SearchExperienceModule -->
<g id="edge2" class="edge">
<title>KrModalModule&#45;&gt;SearchExperienceModule</title>
<path fill="none" stroke="black" d="M721,-84.91C721,-104.14 721,-131.8 721,-131.8 721,-131.8 526.15,-131.8 526.15,-131.8"/>
<polygon fill="black" stroke="black" points="526.15,-128.3 516.15,-131.8 526.15,-135.3 526.15,-128.3"/>
</g>
<!-- SearchExperienceRoutingModule -->
<g id="node4" class="node">
<title>SearchExperienceRoutingModule</title>
<polygon fill="#8dd3c7" stroke="black" points="647.72,-84.8 644.72,-88.8 623.72,-88.8 620.72,-84.8 442.28,-84.8 442.28,-48.8 647.72,-48.8 647.72,-84.8"/>
<text text-anchor="middle" x="545" y="-62.6" font-family="Times,serif" font-size="14.00">SearchExperienceRoutingModule</text>
</g>
<!-- SearchExperienceRoutingModule&#45;&gt;SearchExperienceModule -->
<g id="edge3" class="edge">
<title>SearchExperienceRoutingModule&#45;&gt;SearchExperienceModule</title>
<path fill="none" stroke="black" d="M479.22,-84.91C479.22,-84.91 479.22,-103.79 479.22,-103.79"/>
<polygon fill="black" stroke="black" points="475.72,-103.79 479.22,-113.79 482.72,-103.79 475.72,-103.79"/>
</g>
<!-- UseronboardingJourneyModule -->
<g id="node5" class="node">
<title>UseronboardingJourneyModule</title>
<polygon fill="#8dd3c7" stroke="black" points="424.08,-84.8 421.08,-88.8 400.08,-88.8 397.08,-84.8 229.92,-84.8 229.92,-48.8 424.08,-48.8 424.08,-84.8"/>
<text text-anchor="middle" x="327" y="-62.6" font-family="Times,serif" font-size="14.00">UseronboardingJourneyModule</text>
</g>
<!-- UseronboardingJourneyModule&#45;&gt;SearchExperienceModule -->
<g id="edge4" class="edge">
<title>UseronboardingJourneyModule&#45;&gt;SearchExperienceModule</title>
<path fill="none" stroke="black" d="M389.87,-84.91C389.87,-84.91 389.87,-103.79 389.87,-103.79"/>
<polygon fill="black" stroke="black" points="386.37,-103.79 389.87,-113.79 393.37,-103.79 386.37,-103.79"/>
</g>
</g>
</svg>
