<svg width="70" height="59" viewBox="0 0 70 59" fill="none" xmlns="http://www.w3.org/2000/svg">
<g clip-path="url(#clip0_289_60572)">
<path d="M64.7533 54.5754L35.2534 54.5754C34.9975 54.5754 34.79 54.3679 34.79 54.1119L34.7901 15.0767C34.7901 14.8208 34.9975 14.6133 35.2534 14.6133L64.7533 14.6133C65.0092 14.6133 65.2167 14.8208 65.2167 15.0768L65.2167 54.1119C65.2167 54.3679 65.0092 54.5754 64.7533 54.5754Z" fill="#21A0AA"/>
<path d="M62.8338 52.4886H37.1738C36.9575 52.4886 36.7822 52.3132 36.7822 52.0969V17.2276C36.7822 17.0113 36.9575 16.8359 37.1738 16.8359H62.8338C63.0501 16.8359 63.2254 17.0113 63.2254 17.2276V52.0969C63.2254 52.3132 63.0501 52.4886 62.8338 52.4886Z" fill="white"/>
<path d="M55.1103 17.8656H44.8448C44.8114 17.8656 44.7793 17.8523 44.7557 17.8287C44.732 17.8051 44.7188 17.773 44.7188 17.7395V11.4894C44.7188 11.4559 44.732 11.4239 44.7557 11.4002C44.7793 11.3766 44.8114 11.3633 44.8448 11.3633H55.1103C55.1438 11.3633 55.1758 11.3766 55.1995 11.4002C55.2231 11.4239 55.2364 11.4559 55.2364 11.4894V17.7395C55.2364 17.773 55.2231 17.8051 55.1995 17.8287C55.1758 17.8523 55.1438 17.8656 55.1103 17.8656Z" fill="#FFCF2D"/>
<path d="M60.9961 38.0261H51.2737C51.247 38.0261 51.2213 38.0155 51.2024 37.9966C51.1835 37.9777 51.1729 37.952 51.1729 37.9252C51.1729 37.8985 51.1835 37.8728 51.2024 37.8539C51.2213 37.835 51.247 37.8244 51.2737 37.8244H60.9961C61.0228 37.8244 61.0485 37.835 61.0674 37.8539C61.0863 37.8728 61.0969 37.8985 61.0969 37.9252C61.0969 37.952 61.0863 37.9777 61.0674 37.9966C61.0485 38.0155 61.0228 38.0261 60.9961 38.0261ZM49.8951 38.0261H39.2366C39.2098 38.0261 39.1842 38.0155 39.1653 37.9966C39.1464 37.9777 39.1357 37.952 39.1357 37.9252C39.1357 37.8985 39.1464 37.8728 39.1653 37.8539C39.1842 37.835 39.2098 37.8244 39.2366 37.8244H49.8951C49.9218 37.8244 49.9475 37.835 49.9664 37.8539C49.9853 37.8728 49.9959 37.8985 49.9959 37.9252C49.9959 37.952 49.9853 37.9777 49.9664 37.9966C49.9475 38.0155 49.9218 38.0261 49.8951 38.0261ZM60.9961 34.696H54.6749C54.6481 34.696 54.6225 34.6854 54.6036 34.6664C54.5846 34.6475 54.574 34.6219 54.574 34.5951C54.574 34.5684 54.5846 34.5427 54.6036 34.5238C54.6225 34.5049 54.6481 34.4942 54.6749 34.4942H60.9961C61.0228 34.4942 61.0485 34.5049 61.0674 34.5238C61.0863 34.5427 61.0969 34.5684 61.0969 34.5951C61.0969 34.6219 61.0863 34.6475 61.0674 34.6664C61.0485 34.6854 61.0228 34.696 60.9961 34.696ZM53.3295 34.696H46.3517C46.3249 34.696 46.2993 34.6854 46.2804 34.6664C46.2615 34.6475 46.2508 34.6219 46.2508 34.5951C46.2508 34.5684 46.2615 34.5427 46.2804 34.5238C46.2993 34.5049 46.3249 34.4942 46.3517 34.4942H53.3295C53.3563 34.4942 53.3819 34.5049 53.4009 34.5238C53.4198 34.5427 53.4304 34.5684 53.4304 34.5951C53.4304 34.6219 53.4198 34.6475 53.4009 34.6664C53.3819 34.6854 53.3563 34.696 53.3295 34.696ZM44.9598 34.696H39.2366C39.2099 34.696 39.1842 34.6854 39.1653 34.6664C39.1464 34.6475 39.1358 34.6219 39.1358 34.5951C39.1358 34.5684 39.1464 34.5427 39.1653 34.5238C39.1842 34.5049 39.2099 34.4942 39.2366 34.4942H44.9598C44.9866 34.4942 45.0122 34.5049 45.0311 34.5238C45.05 34.5427 45.0607 34.5684 45.0607 34.5951C45.0607 34.6219 45.05 34.6475 45.0311 34.6664C45.0122 34.6854 44.9866 34.696 44.9598 34.696ZM60.9961 31.3658H49.748C49.7213 31.3658 49.6956 31.3552 49.6767 31.3363C49.6578 31.3173 49.6472 31.2917 49.6472 31.2649C49.6472 31.2382 49.6578 31.2125 49.6767 31.1936C49.6956 31.1747 49.7213 31.1641 49.748 31.1641H60.9961C61.0093 31.1641 61.0224 31.1667 61.0347 31.1717C61.0469 31.1768 61.058 31.1842 61.0674 31.1936C61.0768 31.203 61.0842 31.2141 61.0893 31.2263C61.0943 31.2386 61.0969 31.2517 61.0969 31.2649C61.0969 31.2782 61.0943 31.2913 61.0893 31.3035C61.0842 31.3158 61.0768 31.3269 61.0674 31.3362C61.058 31.3456 61.0469 31.353 61.0347 31.3581C61.0225 31.3632 61.0093 31.3658 60.9961 31.3658ZM48.3676 31.3658H39.2366C39.2099 31.3658 39.1842 31.3552 39.1653 31.3363C39.1464 31.3173 39.1358 31.2917 39.1358 31.2649C39.1358 31.2382 39.1464 31.2125 39.1653 31.1936C39.1842 31.1747 39.2099 31.1641 39.2366 31.1641H48.3676C48.3944 31.1641 48.42 31.1747 48.4389 31.1936C48.4578 31.2125 48.4685 31.2382 48.4685 31.2649C48.4685 31.2917 48.4578 31.3173 48.4389 31.3363C48.42 31.3552 48.3944 31.3658 48.3676 31.3658Z" fill="#5B2448"/>
<path d="M43.7773 43.965H40.6245C40.6044 43.965 40.5852 43.9571 40.571 43.9429C40.5568 43.9287 40.5488 43.9094 40.5488 43.8894V40.7358C40.5488 40.7157 40.5568 40.6965 40.571 40.6823C40.5852 40.6681 40.6044 40.6602 40.6245 40.6602H43.7773C43.7974 40.6602 43.8166 40.6681 43.8308 40.6823C43.845 40.6965 43.853 40.7157 43.853 40.7358V43.8894C43.853 43.9094 43.845 43.9287 43.8308 43.9429C43.8166 43.9571 43.7974 43.965 43.7773 43.965ZM40.7001 43.8137H43.7017V40.8115H40.7001V43.8137Z" fill="#FFCF2D"/>
<path d="M42.1733 43.0774C42.162 43.0774 42.1507 43.0748 42.1405 43.0698C42.1302 43.0649 42.1212 43.0577 42.1142 43.0488L41.1239 41.8045C41.1177 41.7968 41.1131 41.7879 41.1104 41.7783C41.1076 41.7688 41.1068 41.7588 41.1079 41.7489C41.109 41.739 41.1121 41.7295 41.1169 41.7208C41.1217 41.7121 41.1282 41.7044 41.136 41.6983C41.1437 41.6921 41.1526 41.6875 41.1622 41.6847C41.1717 41.682 41.1817 41.6812 41.1916 41.6823C41.2015 41.6834 41.211 41.6865 41.2197 41.6913C41.2284 41.6961 41.236 41.7026 41.2422 41.7103L42.1716 42.878L44.0726 40.3428C44.0785 40.3348 44.086 40.3281 44.0945 40.3231C44.1031 40.318 44.1126 40.3147 44.1224 40.3133C44.1322 40.3119 44.1422 40.3124 44.1519 40.3149C44.1615 40.3173 44.1705 40.3217 44.1785 40.3276C44.1864 40.3336 44.1931 40.341 44.1982 40.3496C44.2032 40.3581 44.2066 40.3676 44.208 40.3774C44.2094 40.3873 44.2088 40.3973 44.2064 40.4069C44.2039 40.4165 44.1996 40.4256 44.1936 40.4335L42.2339 43.0471C42.2269 43.0563 42.218 43.0639 42.2077 43.0691C42.1974 43.0744 42.186 43.0772 42.1744 43.0774H42.1733Z" fill="#6CE0DC"/>
<path d="M43.7773 49.5783H40.6245C40.6044 49.5783 40.5852 49.5703 40.571 49.5561C40.5568 49.542 40.5488 49.5227 40.5488 49.5027V46.3491C40.5488 46.329 40.5568 46.3098 40.571 46.2956C40.5852 46.2814 40.6044 46.2734 40.6245 46.2734H43.7773C43.7974 46.2734 43.8166 46.2814 43.8308 46.2956C43.845 46.3098 43.853 46.329 43.853 46.3491V49.5027C43.853 49.5227 43.845 49.542 43.8308 49.5561C43.8166 49.5703 43.7974 49.5783 43.7773 49.5783ZM40.7001 49.427H43.7017V46.4247H40.7001V49.427Z" fill="#FFCF2D"/>
<path d="M42.1733 48.6907C42.162 48.6907 42.1507 48.6881 42.1405 48.6831C42.1302 48.6782 42.1212 48.671 42.1142 48.6621L41.1239 47.4178C41.1177 47.41 41.1131 47.4011 41.1104 47.3916C41.1076 47.382 41.1068 47.372 41.1079 47.3622C41.109 47.3523 41.1121 47.3428 41.1169 47.3341C41.1217 47.3254 41.1282 47.3177 41.136 47.3115C41.1437 47.3053 41.1526 47.3008 41.1622 47.298C41.1717 47.2953 41.1817 47.2944 41.1916 47.2956C41.2015 47.2967 41.211 47.2997 41.2197 47.3045C41.2284 47.3094 41.236 47.3158 41.2422 47.3236L42.1716 48.4913L44.0726 45.9561C44.0785 45.9481 44.086 45.9414 44.0945 45.9363C44.1031 45.9313 44.1126 45.928 44.1224 45.9265C44.1322 45.9251 44.1422 45.9257 44.1519 45.9281C44.1615 45.9306 44.1705 45.9349 44.1785 45.9409C44.1864 45.9469 44.1931 45.9543 44.1982 45.9629C44.2032 45.9714 44.2066 45.9809 44.208 45.9907C44.2094 46.0006 44.2088 46.0106 44.2064 46.0202C44.2039 46.0298 44.1996 46.0389 44.1936 46.0468L42.2339 48.6604C42.2269 48.6696 42.218 48.6772 42.2077 48.6824C42.1974 48.6877 42.186 48.6905 42.1744 48.6907H42.1733Z" fill="#6CE0DC"/>
<path d="M54.4803 42.3857H48.2076C48.1876 42.3857 48.1684 42.3777 48.1542 42.3635C48.14 42.3493 48.132 42.3301 48.132 42.31C48.132 42.29 48.14 42.2707 48.1542 42.2565C48.1684 42.2423 48.1876 42.2344 48.2076 42.2344H54.4803C54.5004 42.2344 54.5196 42.2423 54.5338 42.2565C54.548 42.2707 54.556 42.29 54.556 42.31C54.556 42.3301 54.548 42.3493 54.5338 42.3635C54.5196 42.3777 54.5004 42.3857 54.4803 42.3857ZM61.0371 42.3857H55.7891C55.769 42.3857 55.7498 42.3777 55.7356 42.3635C55.7214 42.3493 55.7135 42.3301 55.7135 42.31C55.7135 42.29 55.7214 42.2707 55.7356 42.2565C55.7498 42.2423 55.769 42.2344 55.7891 42.2344H61.0371C61.0572 42.2344 61.0764 42.2423 61.0906 42.2565C61.1048 42.2707 61.1128 42.29 61.1128 42.31C61.1128 42.3301 61.1048 42.3493 61.0906 42.3635C61.0764 42.3777 61.0572 42.3857 61.0371 42.3857ZM46.8998 42.3857H45.1274C45.1073 42.3857 45.0881 42.3777 45.0739 42.3635C45.0597 42.3493 45.0518 42.3301 45.0518 42.31C45.0518 42.29 45.0597 42.2707 45.0739 42.2565C45.0881 42.2423 45.1073 42.2344 45.1274 42.2344H46.8998C46.9097 42.2344 46.9196 42.2363 46.9287 42.2401C46.9379 42.2439 46.9463 42.2495 46.9533 42.2565C46.9603 42.2636 46.9659 42.2719 46.9697 42.2811C46.9735 42.2903 46.9754 42.3001 46.9754 42.31C46.9754 42.32 46.9735 42.3298 46.9697 42.339C46.9659 42.3482 46.9603 42.3565 46.9533 42.3635C46.9462 42.3706 46.9379 42.3761 46.9287 42.3799C46.9195 42.3837 46.9097 42.3857 46.8998 42.3857ZM57.2908 47.9341H48.9398C48.9197 47.9341 48.9005 47.9262 48.8863 47.912C48.8721 47.8978 48.8642 47.8786 48.8642 47.8585C48.8642 47.8384 48.8721 47.8192 48.8863 47.805C48.9005 47.7908 48.9197 47.7828 48.9398 47.7828H57.2908C57.3109 47.7828 57.3301 47.7908 57.3443 47.805C57.3585 47.8192 57.3665 47.8384 57.3665 47.8585C57.3665 47.8786 57.3585 47.8978 57.3443 47.912C57.3301 47.9262 57.3109 47.9341 57.2908 47.9341ZM47.6628 47.9139L45.1312 47.9133C45.1112 47.9133 45.0919 47.9053 45.0777 47.8911C45.0636 47.877 45.0556 47.8577 45.0556 47.8376C45.0556 47.8176 45.0636 47.7983 45.0778 47.7842C45.092 47.77 45.1112 47.762 45.1313 47.762H45.1313L47.6628 47.7626C47.6829 47.7626 47.7021 47.7706 47.7163 47.7848C47.7305 47.799 47.7384 47.8182 47.7384 47.8383C47.7384 47.8584 47.7304 47.8776 47.7163 47.8918C47.7021 47.906 47.6828 47.9139 47.6628 47.9139Z" fill="#66B0F0"/>
<path d="M49.9782 28.2539C50.6527 27.9189 55.6275 25.332 55.156 21.7911C54.726 18.5581 50.6764 18.3915 50.0043 21.198C50.0028 21.2033 49.9997 21.208 49.9953 21.2114C49.9909 21.2147 49.9855 21.2165 49.98 21.2165C49.9745 21.2165 49.9692 21.2147 49.9648 21.2114C49.9604 21.208 49.9573 21.2033 49.9558 21.198C49.2947 18.3888 45.2449 18.5392 44.8018 21.7703C44.3163 25.3094 49.3051 27.9161 49.9782 28.2539Z" fill="#9B3C82"/>
<path d="M49.9751 26.4694C49.8019 26.4694 49.6473 26.3677 49.5806 26.2101L47.5798 21.6589C47.5389 21.5659 47.4534 21.5359 47.3866 21.5382C47.3201 21.5409 47.2371 21.5779 47.2036 21.6739L46.4591 23.8141C46.4007 23.9865 46.2375 24.1027 46.0531 24.1027H46.0527L41.9388 24.0902C41.9187 24.0902 41.8995 24.0822 41.8854 24.068C41.8712 24.0538 41.8633 24.0345 41.8633 24.0145C41.8633 23.9944 41.8713 23.9752 41.8855 23.961C41.8997 23.9469 41.919 23.9389 41.939 23.9389H41.9393L46.0523 23.9513H46.0525C46.1726 23.9513 46.2783 23.8765 46.316 23.765L47.0608 21.6241C47.1096 21.4838 47.2322 21.3929 47.3807 21.387C47.5289 21.381 47.6585 21.462 47.7183 21.598L49.7194 26.1501C49.7629 26.2526 49.8628 26.3181 49.9747 26.3181H49.9754L49.9801 26.3181C50.0939 26.3168 50.1939 26.2483 50.2346 26.1437L51.3288 23.4501C51.3717 23.3443 51.4693 23.2785 51.5834 23.2783H51.5839C51.6978 23.2783 51.7954 23.3437 51.8387 23.4491L52.5063 25.0756C52.5221 25.1162 52.5473 25.1525 52.5798 25.1815C52.6123 25.2105 52.6511 25.2315 52.6932 25.2427C52.8412 25.2821 52.994 25.196 53.0339 25.0504L53.3829 23.7811C53.3992 23.7222 53.4534 23.681 53.5147 23.6808L57.3371 23.6927C57.3572 23.6928 57.3764 23.7008 57.3906 23.715C57.4047 23.7292 57.4127 23.7484 57.4126 23.7685C57.4126 23.7886 57.4046 23.8078 57.3904 23.822C57.3762 23.8361 57.3569 23.8441 57.3369 23.844H57.3366L53.5258 23.8321L53.1798 25.0904C53.118 25.3159 52.8823 25.4498 52.6542 25.3889C52.5226 25.3538 52.4148 25.2576 52.3658 25.1318L51.6987 23.5066C51.6789 23.4584 51.636 23.4296 51.5839 23.4296H51.5836C51.5315 23.4297 51.4886 23.4586 51.4689 23.5069L50.3751 26.1996C50.3123 26.3611 50.1576 26.4673 49.9817 26.4693L49.9763 26.4694L49.9751 26.4694Z" fill="white"/>
</g>
<g clip-path="url(#clip1_289_60572)">
<path d="M20.5431 54.3275H7.12877C5.11715 54.3275 3.62835 52.4156 4.17286 50.4821C4.17647 50.4691 4.18002 50.456 4.18349 50.4429L4.96181 47.763C4.98499 47.7703 5.83614 44.7523 5.83614 44.7523C5.86447 44.763 5.89454 44.7684 5.92482 44.7682H13.6315C13.6986 44.7696 13.764 44.7464 13.8152 44.7029C13.8663 44.6594 13.8997 44.5986 13.909 44.5322C13.9128 44.4955 13.9088 44.4584 13.8974 44.4234C13.8859 44.3883 13.8672 44.3561 13.8425 44.3287C13.8178 44.3013 13.7876 44.2794 13.7538 44.2644C13.7201 44.2494 13.6836 44.2416 13.6467 44.2416H5.98415L6.71186 41.7354C6.74776 41.7538 6.78755 41.7632 6.82786 41.7628H13.6315C13.6986 41.7643 13.764 41.7411 13.8152 41.6975C13.8663 41.654 13.8997 41.5933 13.909 41.5268C13.9128 41.4902 13.9088 41.4531 13.8974 41.4181C13.8859 41.383 13.8672 41.3507 13.8425 41.3234C13.8178 41.296 13.7876 41.2741 13.7538 41.2591C13.7201 41.2441 13.6836 41.2363 13.6467 41.2363H6.85774L7.58332 38.7376C7.61447 38.7502 7.64782 38.7566 7.68146 38.7564H13.6315C13.6986 38.7579 13.764 38.7347 13.8152 38.6912C13.8664 38.6477 13.8997 38.5869 13.909 38.5205C13.9128 38.4838 13.9088 38.4467 13.8974 38.4117C13.8859 38.3766 13.8672 38.3444 13.8425 38.317C13.8178 38.2896 13.7876 38.2677 13.7538 38.2527C13.7201 38.2377 13.6836 38.2299 13.6467 38.2299H7.72995L8.45978 35.7182C8.49793 35.739 8.5407 35.75 8.58419 35.7501H13.6315C13.6986 35.7515 13.764 35.7283 13.8152 35.6848C13.8664 35.6413 13.8997 35.5805 13.909 35.5141C13.9128 35.4774 13.9088 35.4403 13.8974 35.4053C13.8859 35.3702 13.8672 35.338 13.8425 35.3106C13.8178 35.2832 13.7876 35.2613 13.7538 35.2464C13.7201 35.2314 13.6836 35.2236 13.6467 35.2236H8.60322L9.33199 32.7138C9.36957 32.7341 9.41166 32.7446 9.45437 32.7443H13.6315C13.6986 32.7458 13.764 32.7225 13.8152 32.679C13.8664 32.6355 13.8997 32.5748 13.909 32.5083C13.9128 32.4716 13.9088 32.4346 13.8974 32.3995C13.8859 32.3645 13.8672 32.3322 13.8425 32.3049C13.8178 32.2775 13.7876 32.2556 13.7538 32.2406C13.7201 32.2256 13.6836 32.2179 13.6467 32.2179H9.47649L9.89117 30.7889H9.91339V26.2539H17.7604V30.7893H17.7816L23.4878 50.4428C23.4916 50.4559 23.4954 50.4689 23.4985 50.4821C24.0435 52.4157 22.5548 54.3275 20.5431 54.3275Z" fill="#66B0F0"/>
<path d="M18.8045 24.2422H8.86697C8.46043 24.2422 8.13086 24.5712 8.13086 24.9771V24.9773C8.13086 25.3832 8.46043 25.7122 8.86697 25.7122H18.8045C19.211 25.7122 19.5406 25.3832 19.5406 24.9773V24.9771C19.5406 24.5712 19.211 24.2422 18.8045 24.2422Z" fill="#66B0F0"/>
<path d="M31.3212 32.8125H26.3477C25.9917 32.8125 25.7031 33.1006 25.7031 33.4561C25.7031 33.8115 25.9917 34.0996 26.3477 34.0996H31.3212C31.6771 34.0996 31.9657 33.8115 31.9657 33.4561C31.9657 33.1006 31.6771 32.8125 31.3212 32.8125Z" fill="#9B3C82"/>
<path d="M38.2541 53.6716L32.9209 47.8789H24.477L19.144 53.6716C19.0941 53.726 19.0611 53.7937 19.049 53.8664C19.037 53.9392 19.0464 54.0138 19.0761 54.0813C19.1058 54.1488 19.1545 54.2063 19.2163 54.2466C19.2782 54.287 19.3504 54.3085 19.4242 54.3086H37.9736C38.0475 54.3086 38.1198 54.2871 38.1817 54.2468C38.2436 54.2065 38.2923 54.149 38.3221 54.0815C38.3518 54.014 38.3612 53.9392 38.3492 53.8665C38.3371 53.7937 38.3041 53.726 38.2541 53.6716Z" fill="#9B3C82"/>
<path d="M38.109 54.574H19.5595C19.434 54.5739 19.3112 54.5374 19.2061 54.4689C19.101 54.4003 19.0181 54.3027 18.9677 54.188C18.9172 54.0732 18.9013 53.9462 18.9218 53.8226C18.9424 53.6989 18.9986 53.584 19.0835 53.4917L26.691 45.2288C26.7105 45.2076 26.7213 45.1799 26.7213 45.1512V33.6055H30.9482V45.152C30.9482 45.1807 30.959 45.2084 30.9784 45.2295L38.585 53.4917C38.6699 53.584 38.7261 53.6989 38.7467 53.8226C38.7673 53.9462 38.7513 54.0732 38.7009 54.188C38.6504 54.3027 38.5675 54.4003 38.4624 54.4689C38.3573 54.5374 38.2345 54.5739 38.109 54.574ZM27.2529 34.1363V45.1511C27.2532 45.3128 27.1925 45.4688 27.0828 45.5878L19.4754 53.8509C19.4603 53.8673 19.4503 53.8878 19.4467 53.9098C19.443 53.9318 19.4459 53.9544 19.4549 53.9748C19.464 53.9952 19.4788 54.0126 19.4975 54.0247C19.5163 54.0369 19.5382 54.0433 19.5605 54.0432H38.109C38.1313 54.0433 38.1532 54.0369 38.172 54.0247C38.1907 54.0126 38.2055 53.9952 38.2145 53.9748C38.2236 53.9544 38.2264 53.9318 38.2228 53.9098C38.2191 53.8878 38.2092 53.8673 38.194 53.8509L30.5875 45.5888C30.4779 45.4697 30.4172 45.3138 30.4174 45.152V34.1363H27.2529Z" fill="#9B3C82"/>
</g>
<g clip-path="url(#clip2_289_60572)">
<path d="M24.6833 24.7812C23.9226 24.7812 23.222 23.8515 22.7106 22.1632C22.214 20.5234 21.9404 18.3458 21.9404 16.0312C21.9404 13.7167 22.214 11.539 22.7106 9.89927C23.222 8.21102 23.9226 7.28125 24.6833 7.28125C25.444 7.28125 26.1446 8.21102 26.6559 9.8993C27.1526 11.539 27.4261 13.7167 27.4261 16.0312C27.4261 18.3458 27.1526 20.5234 26.6559 22.1632C26.1446 23.8515 25.4441 24.7812 24.6833 24.7812ZM24.6833 7.54551C24.0587 7.54551 23.4322 8.43125 22.9644 9.97567C22.475 11.5913 22.2055 13.7419 22.2055 16.0312C22.2055 18.3206 22.475 20.4712 22.9644 22.0868C23.4322 23.6312 24.0587 24.517 24.6833 24.517C25.3079 24.517 25.9344 23.6312 26.4022 22.0868C26.8916 20.4711 27.161 18.3206 27.161 16.0312C27.161 13.7419 26.8915 11.5913 26.4022 9.97567C25.9344 8.43125 25.3079 7.54551 24.6833 7.54551Z" fill="#FFCF2D"/>
<path d="M30.5669 21.3439C30.0572 21.3439 29.4354 21.2449 28.7175 21.0455C27.0623 20.5858 25.0707 19.6502 23.1097 18.4111C21.1487 17.1719 19.4501 15.7757 18.3267 14.4796C17.17 13.1452 16.7573 12.0576 17.1646 11.4171C17.5718 10.7766 18.7348 10.6845 20.4389 11.1578C22.0941 11.6175 24.0857 12.5531 26.0467 13.7922C28.0077 15.0314 29.7063 16.4276 30.8297 17.7237C31.9864 19.0581 32.399 20.1457 31.9918 20.7862C31.7561 21.1569 31.2673 21.3439 30.5669 21.3439ZM18.5823 11.122C17.9865 11.122 17.5731 11.2683 17.3885 11.5586C17.0541 12.0844 17.4692 13.0862 18.5273 14.3068C19.6342 15.5839 21.312 16.9622 23.2517 18.1879C25.1913 19.4135 27.1577 20.338 28.7886 20.7909C30.3477 21.2239 31.4335 21.1707 31.7679 20.6448C32.1023 20.1189 31.6872 19.1172 30.6292 17.8965C29.5223 16.6194 27.8444 15.2411 25.9048 14.0155C23.9651 12.7898 21.9987 11.8654 20.3678 11.4124C19.6694 11.2184 19.0658 11.122 18.5823 11.122Z" fill="#FFCF2D"/>
<path d="M18.5895 21.3439C17.889 21.3439 17.4003 21.157 17.1646 20.7862C16.7574 20.1457 17.17 19.0581 18.3267 17.7237C19.4501 16.4276 21.1488 15.0314 23.1098 13.7922C25.0708 12.5531 27.0623 11.6175 28.7175 11.1578C30.4217 10.6845 31.5845 10.7766 31.9918 11.4171C32.3991 12.0576 31.9864 13.1452 30.8298 14.4796C29.7064 15.7757 28.0077 17.1719 26.0467 18.411C24.0857 19.6502 22.0942 20.5858 20.4389 21.0455C19.7212 21.2449 19.0992 21.3439 18.5895 21.3439ZM23.1807 13.9038L23.2517 14.0154C21.3121 15.2411 19.6342 16.6194 18.5273 17.8964C17.4692 19.1172 17.0542 20.1189 17.3886 20.6447C17.7229 21.1706 18.8089 21.2238 20.3678 20.7909C21.9987 20.3379 23.9652 19.4135 25.9048 18.1878C27.8445 16.9622 29.5223 15.5838 30.6292 14.3068C31.6873 13.0861 32.1024 12.0844 31.768 11.5585C31.4336 11.0327 30.3478 10.9794 28.7887 11.4124C27.1578 11.8653 25.1914 12.7898 23.2517 14.0154L23.1807 13.9038Z" fill="#FFCF2D"/>
<path d="M25.6792 15.9636C25.6792 16.5755 25.1815 17.0716 24.5676 17.0716C23.9537 17.0716 23.4561 16.5755 23.4561 15.9636C23.4561 15.3516 23.9537 14.8555 24.5676 14.8555C25.1815 14.8555 25.6792 15.3516 25.6792 15.9636Z" fill="#F94F46"/>
<path d="M19.0474 14.0274C19.0474 14.5426 18.6284 14.9602 18.1116 14.9602C17.5947 14.9602 17.1758 14.5426 17.1758 14.0274C17.1758 13.5121 17.5947 13.0945 18.1116 13.0945C18.6284 13.0945 19.0474 13.5121 19.0474 14.0274ZM32.386 13.6282C32.386 14.1434 31.967 14.5611 31.4502 14.5611C30.9333 14.5611 30.5144 14.1434 30.5144 13.6282C30.5144 13.113 30.9333 12.6953 31.4502 12.6953C31.967 12.6953 32.386 13.113 32.386 13.6282ZM27.2931 22.974C27.2931 23.4892 26.8741 23.9069 26.3572 23.9069C25.8404 23.9069 25.4215 23.4892 25.4215 22.974C25.4215 22.4588 25.8404 22.0411 26.3572 22.0411C26.8741 22.0411 27.2931 22.4588 27.2931 22.974Z" fill="#9B3C82"/>
</g>
<defs>
<clipPath id="clip0_289_60572">
<rect width="30.4267" height="43.2133" fill="white" transform="translate(34.79 11.3633)"/>
</clipPath>
<clipPath id="clip1_289_60572">
<rect width="34.6967" height="30.3333" fill="white" transform="translate(4.05957 24.2422)"/>
</clipPath>
<clipPath id="clip2_289_60572">
<rect width="15.3767" height="17.5" fill="white" transform="translate(17.0098 7.28125)"/>
</clipPath>
</defs>
</svg>
