<svg width="16" height="16" fill="none" xmlns="http://www.w3.org/2000/svg"><path fill-rule="evenodd" clip-rule="evenodd" d="M7.5 8.364a.516.516 0 0 1-.032-.692l.033-.036 4.272-4.485a.513.513 0 0 1 .727 0c.189.19.2.49.033.692l-.033.037L8.59 8l3.909 4.12c.189.19.2.49.033.692l-.033.037a.513.513 0 0 1-.69.034l-.037-.034L7.5 8.364Z" fill="#202124"/><path fill-rule="evenodd" clip-rule="evenodd" d="M3.15 8.364a.516.516 0 0 1-.033-.692l.033-.036L7.423 3.15a.513.513 0 0 1 .726 0c.19.19.2.49.034.692l-.034.037L4.241 8l3.908 4.12c.19.19.2.49.034.692l-.034.037a.513.513 0 0 1-.69.034l-.036-.034L3.15 8.364Z" fill="#202124"/></svg>