<svg width="16" height="16" fill="none" xmlns="http://www.w3.org/2000/svg"><path fill-rule="evenodd" clip-rule="evenodd" d="M8.15 7.636c.188.189.2.49.033.692l-.034.036-4.272 4.485a.513.513 0 0 1-.726 0 .516.516 0 0 1-.034-.692l.034-.037L7.059 8 3.151 3.88a.516.516 0 0 1-.034-.692l.034-.037c.188-.19.488-.2.69-.033l.036.033L8.15 7.636Z" fill="#202124"/><path fill-rule="evenodd" clip-rule="evenodd" d="M12.5 7.636c.188.189.2.49.033.692l-.033.036-4.273 4.485a.513.513 0 0 1-.726 0 .516.516 0 0 1-.034-.692l.034-.037L11.409 8 7.501 3.88a.516.516 0 0 1-.034-.692l.034-.037c.188-.19.488-.2.69-.033l.036.033L12.5 7.636Z" fill="#202124"/></svg>