<svg width="16" height="16" xmlns="http://www.w3.org/2000/svg"><g stroke="#75818D" stroke-width="1.5" fill="none" fill-rule="evenodd" stroke-linecap="round" stroke-linejoin="round"><path d="m6.517 1-.087.437-.333 1.598a5.59 5.59 0 0 0-1.454.823l-1.63-.538-.437-.133-.227.385-1.122 1.851L1 5.81l.332.287 1.261 1.058c-.045.277-.104.55-.104.841 0 .291.059.565.104.842l-1.26 1.058-.333.287.227.386 1.122 1.85.227.387.438-.135 1.63-.537c.436.338.92.622 1.453.823l.333 1.598.087.437H9.67l.088-.437.333-1.598a5.614 5.614 0 0 0 1.453-.823l1.63.537.437.135.228-.386 1.121-1.851.228-.386-.333-.287-1.26-1.058c.046-.277.104-.55.104-.842 0-.29-.058-.564-.105-.841l1.26-1.058.334-.287-.228-.386-1.12-1.85-.229-.386-.437.133-1.63.538a5.614 5.614 0 0 0-1.453-.823l-.333-1.598L9.67 1H6.517Z"/><path d="M10.121 7.999c0 1.103-.908 1.998-2.027 1.998-1.119 0-2.027-.895-2.027-1.998C6.067 6.895 6.975 6 8.094 6c1.119 0 2.027.895 2.027 1.999Z"/></g></svg>