<svg width="16" height="16" xmlns="http://www.w3.org/2000/svg"><defs><filter id="a"><feColorMatrix in="SourceGraphic" values="0 0 0 0 0.952941 0 0 0 0 0.952941 0 0 0 0 0.956863 0 0 0 1.000000 0"/></filter></defs><g filter="url(#a)" transform="translate(-52 -352)" fill="none" fill-rule="evenodd" stroke-linecap="round" stroke-linejoin="round"><g stroke="#75818D" stroke-width="1.5"><path d="m58.517 353-.087.437-.333 1.598a5.59 5.59 0 0 0-1.454.823l-1.63-.538-.437-.133-.227.385-1.122 1.851-.227.386.332.287 1.261 1.058c-.045.277-.104.55-.104.841 0 .291.059.565.104.842l-1.26 1.058-.333.287.227.386 1.122 1.85.227.387.438-.135 1.63-.537c.436.338.92.622 1.453.823l.333 1.598.087.437h3.153l.088-.437.333-1.598a5.614 5.614 0 0 0 1.453-.823l1.63.537.437.135.228-.386 1.121-1.851.228-.386-.333-.287-1.26-1.058c.046-.277.104-.55.104-.842 0-.29-.058-.564-.105-.841l1.26-1.058.334-.287-.228-.386-1.12-1.85-.229-.386-.437.133-1.63.538a5.614 5.614 0 0 0-1.453-.823l-.333-1.598-.088-.437h-3.153Z"/><path d="M62.121 359.999c0 1.103-.908 1.998-2.027 1.998-1.119 0-2.027-.895-2.027-1.998 0-1.104.908-1.999 2.027-1.999 1.119 0 2.027.895 2.027 1.999Z"/></g></g></svg>