<svg width="16" height="16" xmlns="http://www.w3.org/2000/svg"><g fill="none" fill-rule="evenodd"><path d="m6 11.993 2 2.998 2-2.998h4a1 1 0 0 0 1-1V2a1 1 0 0 0-1-1H2a1 1 0 0 0-1 1v8.993a1 1 0 0 0 1 1h4Z" stroke="#FFF" stroke-width="1.5" stroke-linecap="round" stroke-linejoin="round"/><path d="m6 11.993 2 2.998 2-2.998h4a1 1 0 0 0 1-1V2a1 1 0 0 0-1-1H2a1 1 0 0 0-1 1v8.993a1 1 0 0 0 1 1h4Z" stroke="#FFF" stroke-width="1.5" stroke-linecap="round" stroke-linejoin="round"/><path d="M6 6a.999.999 0 1 1-2-.001A.999.999 0 1 1 6 6m3 0a.999.999 0 1 1-2-.001A.999.999 0 1 1 9 6m3 0a.999.999 0 1 1-2-.001A.999.999 0 1 1 12 6" fill="#FFF" fill-rule="nonzero"/></g></svg>