<svg width="17" height="18" xmlns="http://www.w3.org/2000/svg"><g stroke="#75818D" stroke-width="1.5" fill="none" fill-rule="evenodd"><path d="M1.963 3.437c-1.536 5.73 1.68 11.57 7.182 13.045h0" stroke-linecap="round" stroke-linejoin="round"/><path d="m1.963 3.437 3.736 1-.87 3.243-3.185-.158c-.145-1.327-.05-2.71.319-4.085Zm7.182 13.045 1.043-3.891-3.114-.834-1.463 2.97a9.96 9.96 0 0 0 3.534 1.755h0Z" stroke-linecap="round" stroke-linejoin="round"/><path d="M9.122 4.524a4.052 4.052 0 0 1 2.865 4.963l-.043.162m-1.403-8.26a6.754 6.754 0 0 1 4.776 8.27l-.073.27"/></g></svg>