<svg width="19" height="19" xmlns="http://www.w3.org/2000/svg"><g fill="none" fill-rule="evenodd"><path d="M0 0h19v19H0z"/><path d="M14.02 2.375c.852 0 1.543.69 1.543 1.544V15.08c0 .853-.691 1.544-1.544 1.544H4.711c-.853 0-1.544-.69-1.544-1.544V3.92c0-.853.691-1.544 1.544-1.544Zm0 1.227H4.71a.317.317 0 0 0-.317.317V15.08c0 .176.142.317.318.317h9.308a.317.317 0 0 0 .318-.317V3.92a.317.317 0 0 0-.318-.317Zm-1.862 8.082a.613.613 0 0 1 .055 1.224l-.055.002H6.572a.613.613 0 0 1-.055-1.224l.055-.002h5.586Zm0-2.793a.613.613 0 0 1 .055 1.224l-.055.003H6.572a.613.613 0 0 1-.055-1.225l.055-.002h5.586Zm-1.862-2.793a.613.613 0 0 1 .056 1.224l-.056.003H6.572a.613.613 0 0 1-.055-1.224l.055-.003h3.724Z" fill="#8A959F"/></g></svg>