<?xml version="1.0" encoding="UTF-8" standalone="no"?>
<!DOCTYPE svg PUBLIC "-//W3C//DTD SVG 1.1//EN"
 "http://www.w3.org/Graphics/SVG/1.1/DTD/svg11.dtd">
<!-- Generated by graphviz version 5.0.0 (20220707.1540)
 -->
<!-- Title: dependencies Pages: 1 -->
<svg width="1527pt" height="247pt"
 viewBox="0.00 0.00 1527.00 246.80" xmlns="http://www.w3.org/2000/svg" xmlns:xlink="http://www.w3.org/1999/xlink">
<g id="graph0" class="graph" transform="scale(1 1) rotate(0) translate(4 242.8)">
<title>dependencies</title>
<polygon fill="white" stroke="transparent" points="-4,4 -4,-242.8 1523,-242.8 1523,4 -4,4"/>
<text text-anchor="middle" x="759.5" y="-8.2" font-family="sans-serif" font-size="14.00">dependencies</text>
<g id="clust1" class="cluster">
<title>cluster_StructuredDataModule</title>
<polygon fill="none" stroke="black" stroke-dasharray="1,5" points="8,-32.8 8,-230.8 1511,-230.8 1511,-32.8 8,-32.8"/>
</g>
<g id="clust5" class="cluster">
<title>cluster_StructuredDataModule_exports</title>
<polygon fill="none" stroke="black" points="757,-170.8 757,-222.8 943,-222.8 943,-170.8 757,-170.8"/>
</g>
<g id="clust4" class="cluster">
<title>cluster_StructuredDataModule_imports</title>
<polygon fill="none" stroke="black" points="206,-40.8 206,-92.8 1503,-92.8 1503,-40.8 206,-40.8"/>
</g>
<g id="clust2" class="cluster">
<title>cluster_StructuredDataModule_declarations</title>
<polygon fill="none" stroke="black" points="16,-40.8 16,-92.8 198,-92.8 198,-40.8 16,-40.8"/>
</g>
<!-- StructuredDataComponent -->
<g id="node1" class="node">
<title>StructuredDataComponent</title>
<polygon fill="#ffffb3" stroke="black" points="190.08,-84.8 23.92,-84.8 23.92,-48.8 190.08,-48.8 190.08,-84.8"/>
<text text-anchor="middle" x="107" y="-62.6" font-family="Times,serif" font-size="14.00">StructuredDataComponent</text>
</g>
<!-- StructuredDataModule -->
<g id="node2" class="node">
<title>StructuredDataModule</title>
<polygon fill="#8dd3c7" stroke="black" points="922.3,-149.8 919.3,-153.8 898.3,-153.8 895.3,-149.8 777.7,-149.8 777.7,-113.8 922.3,-113.8 922.3,-149.8"/>
<text text-anchor="middle" x="850" y="-127.6" font-family="Times,serif" font-size="14.00">StructuredDataModule</text>
</g>
<!-- StructuredDataComponent&#45;&gt;StructuredDataModule -->
<g id="edge1" class="edge">
<title>StructuredDataComponent&#45;&gt;StructuredDataModule</title>
<path fill="none" stroke="black" d="M107,-85.09C107,-107.01 107,-140.8 107,-140.8 107,-140.8 767.74,-140.8 767.74,-140.8"/>
<polygon fill="black" stroke="black" points="767.74,-144.3 777.74,-140.8 767.74,-137.3 767.74,-144.3"/>
</g>
<!-- StructuredDataComponent  -->
<g id="node10" class="node">
<title>StructuredDataComponent </title>
<polygon fill="#fb8072" stroke="black" points="934.58,-214.8 765.42,-214.8 765.42,-178.8 934.58,-178.8 934.58,-214.8"/>
<text text-anchor="middle" x="850" y="-192.6" font-family="Times,serif" font-size="14.00">StructuredDataComponent </text>
</g>
<!-- StructuredDataModule&#45;&gt;StructuredDataComponent  -->
<g id="edge9" class="edge">
<title>StructuredDataModule&#45;&gt;StructuredDataComponent </title>
<path fill="none" stroke="black" stroke-dasharray="5,2" d="M850,-149.91C850,-149.91 850,-168.79 850,-168.79"/>
<polygon fill="black" stroke="black" points="846.5,-168.79 850,-178.79 853.5,-168.79 846.5,-168.79"/>
</g>
<!-- AddStructuredDataModule -->
<g id="node3" class="node">
<title>AddStructuredDataModule</title>
<polygon fill="#8dd3c7" stroke="black" points="1495.41,-84.8 1492.41,-88.8 1471.41,-88.8 1468.41,-84.8 1326.59,-84.8 1326.59,-48.8 1495.41,-48.8 1495.41,-84.8"/>
<text text-anchor="middle" x="1411" y="-62.6" font-family="Times,serif" font-size="14.00">AddStructuredDataModule</text>
</g>
<!-- AddStructuredDataModule&#45;&gt;StructuredDataModule -->
<g id="edge2" class="edge">
<title>AddStructuredDataModule&#45;&gt;StructuredDataModule</title>
<path fill="none" stroke="black" d="M1411,-85.09C1411,-107.01 1411,-140.8 1411,-140.8 1411,-140.8 932.19,-140.8 932.19,-140.8"/>
<polygon fill="black" stroke="black" points="932.19,-137.3 922.19,-140.8 932.19,-144.3 932.19,-137.3"/>
</g>
<!-- EmptyScreenModule -->
<g id="node4" class="node">
<title>EmptyScreenModule</title>
<polygon fill="#8dd3c7" stroke="black" points="1308.47,-84.8 1305.47,-88.8 1284.47,-88.8 1281.47,-84.8 1173.53,-84.8 1173.53,-48.8 1308.47,-48.8 1308.47,-84.8"/>
<text text-anchor="middle" x="1241" y="-62.6" font-family="Times,serif" font-size="14.00">EmptyScreenModule</text>
</g>
<!-- EmptyScreenModule&#45;&gt;StructuredDataModule -->
<g id="edge3" class="edge">
<title>EmptyScreenModule&#45;&gt;StructuredDataModule</title>
<path fill="none" stroke="black" d="M1241,-84.91C1241,-104.14 1241,-131.8 1241,-131.8 1241,-131.8 932.17,-131.8 932.17,-131.8"/>
<polygon fill="black" stroke="black" points="932.17,-128.3 922.17,-131.8 932.17,-135.3 932.17,-128.3"/>
</g>
<!-- KrModalModule -->
<g id="node5" class="node">
<title>KrModalModule</title>
<polygon fill="#8dd3c7" stroke="black" points="1155.38,-84.8 1152.38,-88.8 1131.38,-88.8 1128.38,-84.8 1044.62,-84.8 1044.62,-48.8 1155.38,-48.8 1155.38,-84.8"/>
<text text-anchor="middle" x="1100" y="-62.6" font-family="Times,serif" font-size="14.00">KrModalModule</text>
</g>
<!-- KrModalModule&#45;&gt;StructuredDataModule -->
<g id="edge4" class="edge">
<title>KrModalModule&#45;&gt;StructuredDataModule</title>
<path fill="none" stroke="black" d="M1100,-84.83C1100,-101.2 1100,-122.8 1100,-122.8 1100,-122.8 932.31,-122.8 932.31,-122.8"/>
<polygon fill="black" stroke="black" points="932.31,-119.3 922.31,-122.8 932.31,-126.3 932.31,-119.3"/>
</g>
<!-- RecordPaginationModule -->
<g id="node6" class="node">
<title>RecordPaginationModule</title>
<polygon fill="#8dd3c7" stroke="black" points="1026.86,-84.8 1023.86,-88.8 1002.86,-88.8 999.86,-84.8 867.14,-84.8 867.14,-48.8 1026.86,-48.8 1026.86,-84.8"/>
<text text-anchor="middle" x="947" y="-62.6" font-family="Times,serif" font-size="14.00">RecordPaginationModule</text>
</g>
<!-- RecordPaginationModule&#45;&gt;StructuredDataModule -->
<g id="edge5" class="edge">
<title>RecordPaginationModule&#45;&gt;StructuredDataModule</title>
<path fill="none" stroke="black" d="M894.61,-84.91C894.61,-84.91 894.61,-103.79 894.61,-103.79"/>
<polygon fill="black" stroke="black" points="891.11,-103.79 894.61,-113.79 898.11,-103.79 891.11,-103.79"/>
</g>
<!-- StructuredDataRoutingModule -->
<g id="node7" class="node">
<title>StructuredDataRoutingModule</title>
<polygon fill="#8dd3c7" stroke="black" points="848.91,-84.8 845.91,-88.8 824.91,-88.8 821.91,-84.8 659.09,-84.8 659.09,-48.8 848.91,-48.8 848.91,-84.8"/>
<text text-anchor="middle" x="754" y="-62.6" font-family="Times,serif" font-size="14.00">StructuredDataRoutingModule</text>
</g>
<!-- StructuredDataRoutingModule&#45;&gt;StructuredDataModule -->
<g id="edge6" class="edge">
<title>StructuredDataRoutingModule&#45;&gt;StructuredDataModule</title>
<path fill="none" stroke="black" d="M813.28,-84.91C813.28,-84.91 813.28,-103.79 813.28,-103.79"/>
<polygon fill="black" stroke="black" points="809.78,-103.79 813.28,-113.79 816.78,-103.79 809.78,-103.79"/>
</g>
<!-- StructuredDataStatusModalModule -->
<g id="node8" class="node">
<title>StructuredDataStatusModalModule</title>
<polygon fill="#8dd3c7" stroke="black" points="641.58,-84.8 638.58,-88.8 617.58,-88.8 614.58,-84.8 426.42,-84.8 426.42,-48.8 641.58,-48.8 641.58,-84.8"/>
<text text-anchor="middle" x="534" y="-62.6" font-family="Times,serif" font-size="14.00">StructuredDataStatusModalModule</text>
</g>
<!-- StructuredDataStatusModalModule&#45;&gt;StructuredDataModule -->
<g id="edge7" class="edge">
<title>StructuredDataStatusModalModule&#45;&gt;StructuredDataModule</title>
<path fill="none" stroke="black" d="M534,-84.83C534,-101.2 534,-122.8 534,-122.8 534,-122.8 767.5,-122.8 767.5,-122.8"/>
<polygon fill="black" stroke="black" points="767.5,-126.3 777.5,-122.8 767.5,-119.3 767.5,-126.3"/>
</g>
<!-- UseronboardingJourneyModule -->
<g id="node9" class="node">
<title>UseronboardingJourneyModule</title>
<polygon fill="#8dd3c7" stroke="black" points="408.08,-84.8 405.08,-88.8 384.08,-88.8 381.08,-84.8 213.92,-84.8 213.92,-48.8 408.08,-48.8 408.08,-84.8"/>
<text text-anchor="middle" x="311" y="-62.6" font-family="Times,serif" font-size="14.00">UseronboardingJourneyModule</text>
</g>
<!-- UseronboardingJourneyModule&#45;&gt;StructuredDataModule -->
<g id="edge8" class="edge">
<title>UseronboardingJourneyModule&#45;&gt;StructuredDataModule</title>
<path fill="none" stroke="black" d="M311,-84.91C311,-104.14 311,-131.8 311,-131.8 311,-131.8 767.59,-131.8 767.59,-131.8"/>
<polygon fill="black" stroke="black" points="767.59,-135.3 777.59,-131.8 767.59,-128.3 767.59,-135.3"/>
</g>
</g>
</svg>
