<?xml version="1.0" encoding="UTF-8" standalone="no"?>
<!DOCTYPE svg PUBLIC "-//W3C//DTD SVG 1.1//EN"
 "http://www.w3.org/Graphics/SVG/1.1/DTD/svg11.dtd">
<!-- Generated by graphviz version 5.0.0 (20220707.1540)
 -->
<!-- Title: dependencies Pages: 1 -->
<svg width="606pt" height="247pt"
 viewBox="0.00 0.00 606.00 246.80" xmlns="http://www.w3.org/2000/svg" xmlns:xlink="http://www.w3.org/1999/xlink">
<g id="graph0" class="graph" transform="scale(1 1) rotate(0) translate(4 242.8)">
<title>dependencies</title>
<polygon fill="white" stroke="transparent" points="-4,4 -4,-242.8 602,-242.8 602,4 -4,4"/>
<text text-anchor="middle" x="299" y="-8.2" font-family="sans-serif" font-size="14.00">dependencies</text>
<g id="clust1" class="cluster">
<title>cluster_StructuredDataModule</title>
<polygon fill="none" stroke="black" stroke-dasharray="1,5" points="8,-32.8 8,-230.8 590,-230.8 590,-32.8 8,-32.8"/>
</g>
<g id="clust5" class="cluster">
<title>cluster_StructuredDataModule_exports</title>
<polygon fill="none" stroke="black" points="228,-170.8 228,-222.8 414,-222.8 414,-170.8 228,-170.8"/>
</g>
<g id="clust2" class="cluster">
<title>cluster_StructuredDataModule_declarations</title>
<polygon fill="none" stroke="black" points="400,-40.8 400,-92.8 582,-92.8 582,-40.8 400,-40.8"/>
</g>
<g id="clust4" class="cluster">
<title>cluster_StructuredDataModule_imports</title>
<polygon fill="none" stroke="black" points="16,-40.8 16,-92.8 392,-92.8 392,-40.8 16,-40.8"/>
</g>
<!-- StructuredDataComponent -->
<g id="node1" class="node">
<title>StructuredDataComponent</title>
<polygon fill="#ffffb3" stroke="black" points="574.08,-84.8 407.92,-84.8 407.92,-48.8 574.08,-48.8 574.08,-84.8"/>
<text text-anchor="middle" x="491" y="-62.6" font-family="Times,serif" font-size="14.00">StructuredDataComponent</text>
</g>
<!-- StructuredDataModule -->
<g id="node2" class="node">
<title>StructuredDataModule</title>
<polygon fill="#8dd3c7" stroke="black" points="393.3,-149.8 390.3,-153.8 369.3,-153.8 366.3,-149.8 248.7,-149.8 248.7,-113.8 393.3,-113.8 393.3,-149.8"/>
<text text-anchor="middle" x="321" y="-127.6" font-family="Times,serif" font-size="14.00">StructuredDataModule</text>
</g>
<!-- StructuredDataComponent&#45;&gt;StructuredDataModule -->
<g id="edge1" class="edge">
<title>StructuredDataComponent&#45;&gt;StructuredDataModule</title>
<path fill="none" stroke="black" d="M407.93,-66.8C396.55,-66.8 388.68,-66.8 388.68,-66.8 388.68,-66.8 388.68,-103.69 388.68,-103.69"/>
<polygon fill="black" stroke="black" points="385.18,-103.69 388.68,-113.69 392.18,-103.69 385.18,-103.69"/>
</g>
<!-- StructuredDataComponent  -->
<g id="node5" class="node">
<title>StructuredDataComponent </title>
<polygon fill="#fb8072" stroke="black" points="405.58,-214.8 236.42,-214.8 236.42,-178.8 405.58,-178.8 405.58,-214.8"/>
<text text-anchor="middle" x="321" y="-192.6" font-family="Times,serif" font-size="14.00">StructuredDataComponent </text>
</g>
<!-- StructuredDataModule&#45;&gt;StructuredDataComponent  -->
<g id="edge4" class="edge">
<title>StructuredDataModule&#45;&gt;StructuredDataComponent </title>
<path fill="none" stroke="black" stroke-dasharray="5,2" d="M321,-149.91C321,-149.91 321,-168.79 321,-168.79"/>
<polygon fill="black" stroke="black" points="317.5,-168.79 321,-178.79 324.5,-168.79 317.5,-168.79"/>
</g>
<!-- OnboardingModule -->
<g id="node3" class="node">
<title>OnboardingModule</title>
<polygon fill="#8dd3c7" stroke="black" points="384.43,-84.8 381.43,-88.8 360.43,-88.8 357.43,-84.8 257.57,-84.8 257.57,-48.8 384.43,-48.8 384.43,-84.8"/>
<text text-anchor="middle" x="321" y="-62.6" font-family="Times,serif" font-size="14.00">OnboardingModule</text>
</g>
<!-- OnboardingModule&#45;&gt;StructuredDataModule -->
<g id="edge2" class="edge">
<title>OnboardingModule&#45;&gt;StructuredDataModule</title>
<path fill="none" stroke="black" d="M321,-84.91C321,-84.91 321,-103.79 321,-103.79"/>
<polygon fill="black" stroke="black" points="317.5,-103.79 321,-113.79 324.5,-103.79 317.5,-103.79"/>
</g>
<!-- StructuredDataStatusModalModule -->
<g id="node4" class="node">
<title>StructuredDataStatusModalModule</title>
<polygon fill="#8dd3c7" stroke="black" points="239.58,-84.8 236.58,-88.8 215.58,-88.8 212.58,-84.8 24.42,-84.8 24.42,-48.8 239.58,-48.8 239.58,-84.8"/>
<text text-anchor="middle" x="132" y="-62.6" font-family="Times,serif" font-size="14.00">StructuredDataStatusModalModule</text>
</g>
<!-- StructuredDataStatusModalModule&#45;&gt;StructuredDataModule -->
<g id="edge3" class="edge">
<title>StructuredDataStatusModalModule&#45;&gt;StructuredDataModule</title>
<path fill="none" stroke="black" d="M239.87,-66.8C248.12,-66.8 253.32,-66.8 253.32,-66.8 253.32,-66.8 253.32,-103.69 253.32,-103.69"/>
<polygon fill="black" stroke="black" points="249.82,-103.69 253.32,-113.69 256.82,-103.69 249.82,-103.69"/>
</g>
</g>
</svg>
