<svg width="127" height="85" fill="none" xmlns="http://www.w3.org/2000/svg"><g filter="url(#a)"><rect x="6" y="6.371" width="115" height="71.674" rx="4" fill="#fff"/></g><path fill="#EFF0F1" d="M13 14.371h33v36H13zm48.175 11.762 1.523-.166.622-1.476a.196.196 0 0 1 .361 0l.622 1.476 1.522.166a.196.196 0 0 1 .113.337l-1.145 1.08.323 1.585a.196.196 0 0 1-.294.207l-1.321-.805-1.323.805a.196.196 0 0 1-.294-.207l.324-1.584-1.146-1.08a.196.196 0 0 1 .113-.338Zm6 0 1.523-.166.622-1.476a.196.196 0 0 1 .361 0l.622 1.476 1.522.166a.196.196 0 0 1 .113.337l-1.145 1.08.323 1.585a.196.196 0 0 1-.294.207l-1.321-.805-1.323.805a.196.196 0 0 1-.294-.207l.324-1.584-1.146-1.08a.196.196 0 0 1 .113-.338Zm6 0 1.523-.166.622-1.476a.196.196 0 0 1 .361 0l.622 1.476 1.522.166a.196.196 0 0 1 .113.337l-1.145 1.08.323 1.585a.196.196 0 0 1-.294.207l-1.321-.805-1.323.805a.196.196 0 0 1-.294-.207l.324-1.584-1.146-1.08a.196.196 0 0 1 .113-.338Zm6 0 1.523-.166.622-1.476a.196.196 0 0 1 .361 0l.622 1.476 1.522.166a.196.196 0 0 1 .113.337l-1.145 1.08.323 1.585a.196.196 0 0 1-.294.207l-1.321-.805-1.323.805a.196.196 0 0 1-.294-.207l.324-1.584-1.146-1.08a.196.196 0 0 1 .113-.338Zm6 0 1.523-.166.622-1.476a.196.196 0 0 1 .361 0l.622 1.476 1.522.166a.196.196 0 0 1 .113.337l-1.145 1.08.323 1.585a.196.196 0 0 1-.294.207l-1.321-.805-1.323.805a.196.196 0 0 1-.294-.207l.324-1.584-1.146-1.08a.196.196 0 0 1 .113-.338ZM14 61.371h25v4H14zm28 0h16v4H42zm19 0h23v4H61zm-11-29h64v4H50zm-36 24h100v1H14zm36-32h8v5h-8zm0-10h64v8H50zm0 25h64v4H50zm0 7h42v4H50zm-36 22h20v4H14zm23 0h29v4H37zm32 0h29v4H69z"/><path fill-rule="evenodd" clip-rule="evenodd" d="M22.281 24.121c-1.081 0-1.968.93-1.968 2.063v12.375c0 1.133.887 2.062 1.968 2.062H36.72c1.081 0 1.968-.93 1.968-2.062V26.184c0-1.134-.886-2.063-1.968-2.063H22.28Zm0 1.375H36.72c.369 0 .656.3.656.688v9.99l-4.216-4.663a.5.5 0 0 0-.752.012l-2.194 2.588-3.57-3.943a.5.5 0 0 0-.752.012l-4.266 5.032v-9.028c0-.387.287-.688.656-.688Zm11.157 1.375c-.723 0-1.313.618-1.313 1.375s.59 1.375 1.313 1.375c.722 0 1.312-.618 1.312-1.375s-.59-1.375-1.313-1.375Zm-7.148 4.904 6.763 7.471H22.281c-.369 0-.656-.3-.656-.687v-1.273l4.666-5.511Zm6.512 1.348 4.573 5.049v.387c0 .386-.287.687-.656.687h-1.861L31.12 35.11l1.682-1.987Z" fill="#BDC1C6"/><defs><filter id="a" x="0" y=".371" width="127" height="83.674" filterUnits="userSpaceOnUse" color-interpolation-filters="sRGB"><feFlood flood-opacity="0" result="BackgroundImageFix"/><feColorMatrix in="SourceAlpha" values="0 0 0 0 0 0 0 0 0 0 0 0 0 0 0 0 0 0 127 0" result="hardAlpha"/><feOffset/><feGaussianBlur stdDeviation="3"/><feColorMatrix values="0 0 0 0 0 0 0 0 0 0 0 0 0 0 0 0 0 0 0.1 0"/><feBlend in2="BackgroundImageFix" result="effect1_dropShadow_2939_67446"/><feBlend in="SourceGraphic" in2="effect1_dropShadow_2939_67446" result="shape"/></filter></defs></svg>