<svg width="20" height="18" fill="none" xmlns="http://www.w3.org/2000/svg"><path fill-rule="evenodd" clip-rule="evenodd" d="M2.781.75C1.7.75.812 1.68.812 2.813v12.374c0 1.134.887 2.063 1.97 2.063h14.437c1.081 0 1.968-.93 1.968-2.063V2.813C19.188 1.679 18.3.75 17.22.75H2.78Zm0 1.375H17.22c.369 0 .656.3.656.688v9.99L13.659 8.14a.5.5 0 0 0-.752.012l-2.194 2.588-3.57-3.943a.5.5 0 0 0-.752.012L2.125 11.84V2.813c0-.387.287-.688.656-.688ZM13.937 3.5c-.722 0-1.312.618-1.312 1.375s.59 1.375 1.313 1.375c.722 0 1.312-.618 1.312-1.375S14.66 3.5 13.937 3.5ZM6.792 8.404l6.762 7.471H2.781c-.369 0-.656-.3-.656-.688v-1.272l4.666-5.511Zm6.51 1.348 4.574 5.049v.386c0 .387-.287.688-.656.688h-1.861l-3.738-4.136 1.682-1.987Z" fill="#BDC1C6"/></svg>