<svg width="62" height="13" fill="none" xmlns="http://www.w3.org/2000/svg"><path d="m.35 3.524 3.046-.33L4.64.24a.392.392 0 0 1 .723 0l1.244 2.953 3.043.331c.332.036.47.445.227.675l-2.29 2.162.645 3.17a.392.392 0 0 1-.588.412L5 8.333l-2.645 1.61a.392.392 0 0 1-.588-.413l.648-3.17L.124 4.2a.392.392 0 0 1 .226-.676Zm13 0 3.046-.33L17.64.24a.392.392 0 0 1 .723 0l1.244 2.953 3.043.331c.332.036.47.445.227.675l-2.29 2.162.645 3.17a.392.392 0 0 1-.588.412L18 8.333l-2.645 1.61a.392.392 0 0 1-.588-.413l.647-3.17-2.291-2.16a.392.392 0 0 1 .226-.676Zm13 0 3.046-.33L30.64.24a.392.392 0 0 1 .723 0l1.243 2.953 3.044.331c.332.036.47.445.227.675l-2.29 2.162.645 3.17a.392.392 0 0 1-.588.412L31 8.333l-2.645 1.61a.392.392 0 0 1-.588-.413l.648-3.17-2.292-2.16a.392.392 0 0 1 .226-.676Zm13 0 3.046-.33L43.64.24a.392.392 0 0 1 .723 0l1.243 2.953 3.044.331c.332.036.47.445.227.675l-2.29 2.162.645 3.17a.392.392 0 0 1-.588.412L44 8.333l-2.645 1.61a.392.392 0 0 1-.588-.413l.648-3.17-2.292-2.16a.392.392 0 0 1 .226-.676ZM57.363.24a.392.392 0 0 0-.723 0l-1.244 2.953-3.045.33a.392.392 0 0 0-.227.676l2.291 2.161-.647 3.168a.392.392 0 0 0 .589.414L57 8.332l2.642 1.61a.392.392 0 0 0 .589-.414l-.645-3.168 2.29-2.161a.392.392 0 0 0-.228-.675l-3.042-.331L57.363.24ZM57 1.4l1.063 2.522 2.66.288-1.992 1.88.552 2.714L57 7.414l-2.285 1.39.554-2.714-1.988-1.88 2.656-.288L57.001 1.4Z" fill="#F5B24D"/></svg>