<svg width="127" height="85" fill="none" xmlns="http://www.w3.org/2000/svg"><g filter="url(#a)"><rect x="6" y="6.697" width="115" height="71.674" rx="4" fill="#fff"/></g><path fill="#EFF0F1" d="M14 61.697h25v4H14zm0-11h16v4H14zm50 0h16v4H64zm-32 0h16v4H32zm50 0h16v4H82zm-40 11h16v4H42zm19 0h23v4H61zm-47-35h100v4H14zm11-12h89v7H25zm-11 19h100v4H14zm0 7h66v4H14zm0 28h20v4H14zm23 0h29v4H37zm32 0h29v4H69z"/><path fill-rule="evenodd" clip-rule="evenodd" d="M14.406 14.822a.847.847 0 0 0-.844.844v5.063c0 .463.38.843.844.843h6.188c.463 0 .843-.38.843-.843v-5.063a.847.847 0 0 0-.843-.844h-6.188Zm0 .563h6.188c.158 0 .281.123.281.281v4.087l-1.596-1.685a.5.5 0 0 0-.737.012l-.737.83-1.319-1.392a.5.5 0 0 0-.736.012l-1.625 1.83v-3.694c0-.158.123-.281.281-.281Zm4.781.562a.564.564 0 0 0 0 1.125.564.564 0 0 0 0-1.125Zm-3.063 2.006 2.899 3.057h-4.617a.278.278 0 0 1-.281-.282v-.52l2-2.255Zm2.791.552 1.96 2.065v.159a.278.278 0 0 1-.281.28h-.798l-1.602-1.691.721-.813Z" fill="#BDC1C6"/><defs><filter id="a" x="0" y=".697" width="127" height="83.674" filterUnits="userSpaceOnUse" color-interpolation-filters="sRGB"><feFlood flood-opacity="0" result="BackgroundImageFix"/><feColorMatrix in="SourceAlpha" values="0 0 0 0 0 0 0 0 0 0 0 0 0 0 0 0 0 0 127 0" result="hardAlpha"/><feOffset/><feGaussianBlur stdDeviation="3"/><feColorMatrix values="0 0 0 0 0 0 0 0 0 0 0 0 0 0 0 0 0 0 0.1 0"/><feBlend in2="BackgroundImageFix" result="effect1_dropShadow_2939_69013"/><feBlend in="SourceGraphic" in2="effect1_dropShadow_2939_69013" result="shape"/></filter></defs></svg>