<svg width="44" height="39" fill="none" xmlns="http://www.w3.org/2000/svg"><path fill-rule="evenodd" clip-rule="evenodd" d="M4.813.375C2.236.375.125 2.529.125 5.156v28.688c0 2.627 2.112 4.781 4.688 4.781h34.374c2.576 0 4.688-2.154 4.688-4.781V5.156c0-2.627-2.112-4.781-4.688-4.781H4.813Zm0 3.188h34.374c.88 0 1.563.697 1.563 1.593v23.16L30.179 16.931a.5.5 0 0 0-.744.012l-5.738 6.59-9.033-9.716a.5.5 0 0 0-.744.013L3.25 26.087V5.157c0-.897.684-1.595 1.563-1.595ZM31.375 6.75c-1.721 0-3.125 1.432-3.125 3.188 0 1.755 1.404 3.187 3.125 3.187S34.5 11.693 34.5 9.937c0-1.755-1.404-3.187-3.125-3.187ZM14.358 18.118l16.101 17.32H4.813c-.88 0-1.563-.698-1.563-1.594v-2.951l11.108-12.775Zm15.503 3.125L40.75 32.947v.897c0 .896-.684 1.593-1.563 1.593h-4.43l-8.9-9.587 4.004-4.607Z" fill="#BDC1C6"/></svg>