<svg width="86" height="76" fill="none" xmlns="http://www.w3.org/2000/svg"><path fill-rule="evenodd" clip-rule="evenodd" d="M9.264.5C4.232.5.105 4.724.105 9.875v56.25c0 5.151 4.127 9.375 9.16 9.375h67.163c5.032 0 9.158-4.224 9.158-9.375V9.875C85.586 4.724 81.46.5 76.428.5H9.264Zm0 6.25h67.164c1.717 0 3.053 1.367 3.053 3.125v45.41l-21.016-22.71a.5.5 0 0 0-.744.011L46.16 45.91 28.15 26.47a.5.5 0 0 0-.744.013L6.21 50.915V9.875c0-1.758 1.336-3.125 3.053-3.125Zm51.9 6.25c-3.364 0-6.107 2.808-6.107 6.25s2.743 6.25 6.106 6.25 6.106-2.808 6.106-6.25S64.526 13 61.163 13Zm-33.25 22.29 31.46 33.96H9.264c-1.718 0-3.054-1.367-3.054-3.125v-5.786L27.915 35.29Zm30.29 6.128 21.276 22.95v1.757c0 1.758-1.336 3.125-3.053 3.125H67.77L50.383 50.451l7.823-9.033Z" fill="#BDC1C6"/></svg>