<svg width="30" height="27" fill="none" xmlns="http://www.w3.org/2000/svg"><path fill-rule="evenodd" clip-rule="evenodd" d="M3.22.375C1.499.375.088 1.853.088 3.656v19.688c0 1.803 1.411 3.281 3.132 3.281h22.969c1.72 0 3.132-1.478 3.132-3.281V3.656c0-1.803-1.411-3.281-3.132-3.281H3.22Zm0 2.188h22.969c.587 0 1.044.478 1.044 1.093V19.55l-6.934-7.669a.5.5 0 0 0-.752.012l-3.709 4.376-5.906-6.524a.5.5 0 0 0-.752.012L2.176 18.02V3.656c0-.615.457-1.094 1.044-1.094ZM20.969 4.75c-1.15 0-2.088.983-2.088 2.188 0 1.204.938 2.187 2.088 2.187 1.15 0 2.088-.983 2.088-2.188 0-1.204-.938-2.187-2.088-2.187Zm-11.37 7.802 10.758 11.886H3.22c-.587 0-1.044-.479-1.044-1.094v-2.025l7.422-8.767Zm10.358 2.144 7.276 8.033v.615c0 .615-.457 1.093-1.044 1.093h-2.961l-5.946-6.58 2.675-3.16Z" fill="#BDC1C6"/></svg>