<svg width="55" height="48" fill="none" xmlns="http://www.w3.org/2000/svg"><path fill-rule="evenodd" clip-rule="evenodd" d="M6.531 0C3.39 0 .813 2.703.813 6v36c0 3.297 2.576 6 5.718 6H48.47c3.142 0 5.718-2.703 5.718-6V6c0-3.297-2.576-6-5.718-6H6.53Zm0 4H48.47c1.072 0 1.906.875 1.906 2v29.063L37.4 20.69a.5.5 0 0 0-.753.012l-7.077 8.36-11.099-12.279a.5.5 0 0 0-.752.013L4.625 32.266V6c0-1.125.834-2 1.906-2Zm32.407 4c-2.1 0-3.813 1.797-3.813 4 0 2.203 1.713 4 3.813 4s3.812-1.797 3.812-4c0-2.203-1.713-4-3.813-4Zm-20.76 14.266L37.82 44H6.53c-1.072 0-1.906-.875-1.906-2v-3.703l13.552-16.031Zm18.913 3.922 13.284 14.687V42c0 1.125-.834 2-1.906 2h-5.406L32.206 31.969l4.885-5.782Z" fill="#BDC1C6"/></svg>