<svg width="127" height="130" fill="none" xmlns="http://www.w3.org/2000/svg"><g filter="url(#a)"><rect x="6" y="6.697" width="115" height="117" rx="4" fill="#fff"/><rect x="6.25" y="6.947" width="114.5" height="116.5" rx="3.75" stroke="#E7F1FF" stroke-width=".5"/></g><path fill="#EFF0F1" d="M15 102.697h97v4H15zm0 6h97v4H15zm0-92h97v14H15zm23 67h73v4H38zm0 6h73v4H38z"/><path fill-rule="evenodd" clip-rule="evenodd" d="M16.125 81.197c-1.03 0-1.875.845-1.875 1.875v11.25c0 1.03.845 1.875 1.875 1.875h13.75c1.03 0 1.875-.844 1.875-1.875v-11.25c0-1.03-.845-1.875-1.875-1.875h-13.75Zm0 1.25h13.75c.352 0 .625.274.625.625v9.082l-4.005-4.228a.5.5 0 0 0-.737.012l-2.08 2.341-3.389-3.574a.5.5 0 0 0-.737.012L15.5 91.28v-8.208c0-.351.273-.625.625-.625Zm10.625 1.25c-.689 0-1.25.562-1.25 1.25 0 .689.561 1.25 1.25 1.25s1.25-.561 1.25-1.25c0-.688-.561-1.25-1.25-1.25Zm-6.807 4.458 6.44 6.792H16.126a.617.617 0 0 1-.625-.625v-1.157l4.443-5.01Zm6.201 1.226 4.356 4.59v.351a.617.617 0 0 1-.625.625h-1.773l-3.559-3.76 1.602-1.806Z" fill="#BDC1C6"/><path fill="#EFF0F1" d="M38 39.697h73v4H38zm0 6h73v4H38z"/><path fill-rule="evenodd" clip-rule="evenodd" d="M16.125 37.197c-1.03 0-1.875.845-1.875 1.875v11.25c0 1.03.845 1.875 1.875 1.875h13.75c1.03 0 1.875-.845 1.875-1.875v-11.25c0-1.03-.845-1.875-1.875-1.875h-13.75Zm0 1.25h13.75c.352 0 .625.274.625.625v9.082l-4.005-4.228a.5.5 0 0 0-.737.012l-2.08 2.341-3.389-3.574a.5.5 0 0 0-.737.012L15.5 47.28v-8.208c0-.351.273-.625.625-.625Zm10.625 1.25c-.689 0-1.25.562-1.25 1.25 0 .689.561 1.25 1.25 1.25s1.25-.561 1.25-1.25c0-.688-.561-1.25-1.25-1.25Zm-6.807 4.458 6.44 6.792H16.126a.617.617 0 0 1-.625-.625v-1.157l4.443-5.01Zm6.201 1.226 4.356 4.59v.351a.617.617 0 0 1-.625.625h-1.773l-3.559-3.76 1.602-1.806Z" fill="#BDC1C6"/><path fill="#EFF0F1" d="M38 61.697h73v4H38zm0 6h73v4H38z"/><path fill-rule="evenodd" clip-rule="evenodd" d="M16.125 59.197c-1.03 0-1.875.845-1.875 1.875v11.25c0 1.03.845 1.875 1.875 1.875h13.75c1.03 0 1.875-.844 1.875-1.875v-11.25c0-1.03-.845-1.875-1.875-1.875h-13.75Zm0 1.25h13.75c.352 0 .625.274.625.625v9.082l-4.005-4.228a.5.5 0 0 0-.737.012l-2.08 2.341-3.389-3.574a.5.5 0 0 0-.737.012L15.5 69.28v-8.208c0-.351.273-.625.625-.625Zm10.625 1.25c-.689 0-1.25.562-1.25 1.25 0 .689.561 1.25 1.25 1.25s1.25-.561 1.25-1.25c0-.688-.561-1.25-1.25-1.25Zm-6.807 4.458 6.44 6.792H16.126a.617.617 0 0 1-.625-.625v-1.157l4.443-5.01Zm6.201 1.226 4.356 4.59v.351a.617.617 0 0 1-.625.625h-1.773l-3.559-3.76 1.602-1.806Z" fill="#BDC1C6"/><defs><filter id="a" x="0" y=".697" width="127" height="129" filterUnits="userSpaceOnUse" color-interpolation-filters="sRGB"><feFlood flood-opacity="0" result="BackgroundImageFix"/><feColorMatrix in="SourceAlpha" values="0 0 0 0 0 0 0 0 0 0 0 0 0 0 0 0 0 0 127 0" result="hardAlpha"/><feOffset/><feGaussianBlur stdDeviation="3"/><feColorMatrix values="0 0 0 0 0 0 0 0 0 0 0 0 0 0 0 0 0 0 0.1 0"/><feBlend in2="BackgroundImageFix" result="effect1_dropShadow_169_11907"/><feBlend in="SourceGraphic" in2="effect1_dropShadow_169_11907" result="shape"/></filter></defs></svg>