<svg width="127" height="141" fill="none" xmlns="http://www.w3.org/2000/svg"><g filter="url(#a)"><rect x="6" y="6.698" width="115" height="134" rx="4" fill="#fff"/><rect x="6.25" y="6.948" width="114.5" height="133.5" rx="3.75" stroke="#E7F1FF" stroke-width=".5"/></g><rect x="15" y="16.698" width="97" height="60" rx="2" fill="#EFF0F1"/><path fill-rule="evenodd" clip-rule="evenodd" d="M54.219 37.073a2.54 2.54 0 0 0-2.532 2.531v15.188a2.54 2.54 0 0 0 2.532 2.53H72.78a2.54 2.54 0 0 0 2.531-2.53V39.603a2.54 2.54 0 0 0-2.53-2.531H54.218Zm0 1.687H72.78c.475 0 .844.37.844.844v12.26l-5.538-5.846a.5.5 0 0 0-.737.012l-2.934 3.303-4.707-4.963a.5.5 0 0 0-.737.012l-5.597 6.303V39.604c0-.475.37-.844.844-.844Zm14.343 1.688a1.69 1.69 0 0 0-1.687 1.687c0 .93.758 1.688 1.688 1.688a1.69 1.69 0 0 0 1.687-1.688 1.69 1.69 0 0 0-1.688-1.687Zm-9.188 6.018 8.694 9.17h-13.85a.833.833 0 0 1-.843-.845V53.23l5.998-6.763Zm8.371 1.655 5.88 6.196v.474c0 .475-.37.844-.844.844h-2.393l-4.805-5.075 2.162-2.44Z" fill="#BDC1C6"/><path fill="#EFF0F1" d="M15 81.698h97v16H15zm0 21h97v4H15zm0 6h97v4H15zm0 6h97v4H15zm0 6h97v4H15zm0 6h97v4H15z"/><defs><filter id="a" x="0" y=".698" width="127" height="146" filterUnits="userSpaceOnUse" color-interpolation-filters="sRGB"><feFlood flood-opacity="0" result="BackgroundImageFix"/><feColorMatrix in="SourceAlpha" values="0 0 0 0 0 0 0 0 0 0 0 0 0 0 0 0 0 0 127 0" result="hardAlpha"/><feOffset/><feGaussianBlur stdDeviation="3"/><feColorMatrix values="0 0 0 0 0 0 0 0 0 0 0 0 0 0 0 0 0 0 0.1 0"/><feBlend in2="BackgroundImageFix" result="effect1_dropShadow"/><feBlend in="SourceGraphic" in2="effect1_dropShadow" result="shape"/></filter></defs></svg>