<svg width="127" height="84" fill="none" xmlns="http://www.w3.org/2000/svg"><g filter="url(#a)"><rect x="6" y="6" width="115" height="71.674" rx="4" fill="#fff"/><rect x="6.25" y="6.25" width="114.5" height="71.174" rx="3.75" stroke="#E7F1FF" stroke-width=".5"/></g><path fill="#EFF0F1" d="M16 40h97v4H16zm0 6h97v4H16zm0 6h97v4H16zm0 6h97v4H16zm0 6h97v4H16zm0-48h97v4H16zm0 6h97v4H16zm0 6h97v4H16zm0 6h97v4H16z"/><defs><filter id="a" x="0" y="0" width="127" height="83.674" filterUnits="userSpaceOnUse" color-interpolation-filters="sRGB"><feFlood flood-opacity="0" result="BackgroundImageFix"/><feColorMatrix in="SourceAlpha" values="0 0 0 0 0 0 0 0 0 0 0 0 0 0 0 0 0 0 127 0" result="hardAlpha"/><feOffset/><feGaussianBlur stdDeviation="3"/><feColorMatrix values="0 0 0 0 0 0 0 0 0 0 0 0 0 0 0 0 0 0 0.1 0"/><feBlend in2="BackgroundImageFix" result="effect1_dropShadow"/><feBlend in="SourceGraphic" in2="effect1_dropShadow" result="shape"/></filter></defs></svg>