<svg width="127" height="85" fill="none" xmlns="http://www.w3.org/2000/svg"><g filter="url(#a)"><rect x="6" y="6.349" width="115" height="71.674" rx="4" fill="#fff"/><rect x="6.25" y="6.599" width="114.5" height="71.174" rx="3.75" stroke="#E7F1FF" stroke-width=".5"/></g><path fill="#EFF0F1" d="M42 17.349h71v16H42zm-26 23h97v4H16zm0 6h97v4H16zm0 6h97v4H16zm0 6h97v4H16zm0 6h97v4H16z"/><path fill-rule="evenodd" clip-rule="evenodd" d="M19.281 17.099c-1.081 0-1.968.929-1.968 2.062v12.375c0 1.133.887 2.063 1.968 2.063H33.72c1.081 0 1.968-.93 1.968-2.063V19.161c0-1.133-.886-2.062-1.968-2.062H19.28Zm0 1.375H33.72c.369 0 .656.3.656.687v9.99l-4.216-4.663a.5.5 0 0 0-.752.013l-2.194 2.588-3.57-3.944a.5.5 0 0 0-.752.013l-4.266 5.032v-9.03c0-.387.287-.687.656-.687Zm11.157 1.375c-.723 0-1.313.617-1.313 1.375 0 .757.59 1.375 1.313 1.375.722 0 1.312-.618 1.312-1.375 0-.758-.59-1.375-1.313-1.375Zm-7.147 4.903 6.762 7.472H19.281c-.369 0-.656-.301-.656-.688v-1.273l4.666-5.51Zm6.51 1.349 4.574 5.048v.387c0 .387-.287.688-.656.688h-1.861l-3.738-4.136 1.682-1.987Z" fill="#BDC1C6"/><defs><filter id="a" x="0" y=".349" width="127" height="83.674" filterUnits="userSpaceOnUse" color-interpolation-filters="sRGB"><feFlood flood-opacity="0" result="BackgroundImageFix"/><feColorMatrix in="SourceAlpha" values="0 0 0 0 0 0 0 0 0 0 0 0 0 0 0 0 0 0 127 0" result="hardAlpha"/><feOffset/><feGaussianBlur stdDeviation="3"/><feColorMatrix values="0 0 0 0 0 0 0 0 0 0 0 0 0 0 0 0 0 0 0.1 0"/><feBlend in2="BackgroundImageFix" result="effect1_dropShadow"/><feBlend in="SourceGraphic" in2="effect1_dropShadow" result="shape"/></filter></defs></svg>