<svg width="127" height="139" fill="none" xmlns="http://www.w3.org/2000/svg"><g filter="url(#a)"><rect x="6" y="6.698" width="115" height="126" rx="4" fill="#fff"/><rect x="6.25" y="6.948" width="114.5" height="125.5" rx="3.75" stroke="#E7F1FF" stroke-width=".5"/></g><rect x="15" y="16.698" width="97" height="60" rx="2" fill="#EFF0F1"/><path d="M52.844 38.698a.841.841 0 0 0-.844.843V54.73c0 .468.376.844.844.844h20.25a.841.841 0 0 0 .844-.844V39.541a.841.841 0 0 0-.844-.843h-20.25Zm.843 1.687H72.25v13.5H53.687v-13.5Zm7.21 2.818a.3.3 0 0 0-.46.255v7.355a.3.3 0 0 0 .46.254l5.884-3.677a.3.3 0 0 0 0-.51l-5.885-3.677Z" fill="#BDC1C6"/><path fill="#EFF0F1" d="M15 87.698h97v4H15zm0-6h97v4H15zm0 12h97v4H15zm0 6h97v4H15zm0 6h97v4H15zm0 6h97v4H15zm0 6h97v4H15z"/><defs><filter id="a" x="0" y=".698" width="127" height="138" filterUnits="userSpaceOnUse" color-interpolation-filters="sRGB"><feFlood flood-opacity="0" result="BackgroundImageFix"/><feColorMatrix in="SourceAlpha" values="0 0 0 0 0 0 0 0 0 0 0 0 0 0 0 0 0 0 127 0" result="hardAlpha"/><feOffset/><feGaussianBlur stdDeviation="3"/><feColorMatrix values="0 0 0 0 0 0 0 0 0 0 0 0 0 0 0 0 0 0 0.1 0"/><feBlend in2="BackgroundImageFix" result="effect1_dropShadow"/><feBlend in="SourceGraphic" in2="effect1_dropShadow" result="shape"/></filter></defs></svg>