<svg width="127" height="84" fill="none" xmlns="http://www.w3.org/2000/svg"><g filter="url(#a)"><rect x="6" y="6.023" width="115" height="71.674" rx="4" fill="#fff"/><rect x="6.25" y="6.273" width="114.5" height="71.174" rx="3.75" stroke="#E7F1FF" stroke-width=".5"/></g><path fill-rule="evenodd" clip-rule="evenodd" d="M42.531 17.675c-3.142 0-5.718 2.703-5.718 6v36c0 3.296 2.576 6 5.718 6H84.47c3.142 0 5.719-2.704 5.719-6v-36c0-3.297-2.577-6-5.72-6H42.532Zm0 4H84.47c1.072 0 1.906.875 1.906 2v29.062L73.4 38.365a.5.5 0 0 0-.753.012l-7.077 8.36-11.099-12.279a.5.5 0 0 0-.752.012L40.625 49.94V23.675c0-1.125.834-2 1.906-2Zm32.407 4c-2.1 0-3.813 1.796-3.813 4 0 2.203 1.713 4 3.813 4s3.812-1.797 3.812-4c0-2.204-1.713-4-3.813-4ZM54.177 39.94 73.82 61.675H42.53c-1.072 0-1.906-.875-1.906-2V55.97l13.552-16.03Zm18.913 3.922L86.375 58.55v1.125c0 1.125-.834 2-1.906 2h-5.406L68.206 49.643l4.885-5.78Z" fill="#BDC1C6"/><defs><filter id="a" x="0" y=".023" width="127" height="83.674" filterUnits="userSpaceOnUse" color-interpolation-filters="sRGB"><feFlood flood-opacity="0" result="BackgroundImageFix"/><feColorMatrix in="SourceAlpha" values="0 0 0 0 0 0 0 0 0 0 0 0 0 0 0 0 0 0 127 0" result="hardAlpha"/><feOffset/><feGaussianBlur stdDeviation="3"/><feColorMatrix values="0 0 0 0 0 0 0 0 0 0 0 0 0 0 0 0 0 0 0.1 0"/><feBlend in2="BackgroundImageFix" result="effect1_dropShadow"/><feBlend in="SourceGraphic" in2="effect1_dropShadow" result="shape"/></filter></defs></svg>