<svg width="16" height="23" xmlns="http://www.w3.org/2000/svg"><path d="M.516 19.061c-.122.123-.147.39-.075.802.072.412.164.74.275.985.067.156.17.304.31.443.189.19.512.412.968.668l.067.033c.846.446 1.698.59 2.556.435.367-.067 1.046-.284 2.038-.652a10.404 10.404 0 0 0 2.371-1.236 16.864 16.864 0 0 0 2.197-1.879 16.864 16.864 0 0 0 1.879-2.196 10.406 10.406 0 0 0 1.32-2.606c.2-.546.336-.935.409-1.17a6.82 6.82 0 0 0 .2-.968 2.89 2.89 0 0 0-.042-1.144 5.064 5.064 0 0 0-.467-1.144c-.256-.457-.48-.78-.668-.97a1.42 1.42 0 0 0-.443-.308c-.245-.112-.573-.203-.985-.276-.413-.072-.68-.047-.802.075-.061.062-.187.26-.376.593-.19.334-.4.719-.635 1.153-.234.434-.37.682-.409.743a7.835 7.835 0 0 1-.18.263c-.103.148-.18.272-.23.372a.574.574 0 0 0-.066.292c.005.162.108.343.309.543.128.128.338.308.63.539.293.23.506.413.64.547.189.19.289.35.3.484a.534.534 0 0 1-.038.221c-.03.087-.065.163-.104.23a25.652 25.652 0 0 0-.259.451 10.802 10.802 0 0 1-1.82 2.439 10.802 10.802 0 0 1-2.44 1.82 25.653 25.653 0 0 0-.451.259 1.355 1.355 0 0 1-.229.105.534.534 0 0 1-.221.037c-.134-.01-.295-.111-.485-.3a7.867 7.867 0 0 1-.547-.64 7.843 7.843 0 0 0-.538-.63c-.2-.2-.382-.303-.543-.309a.574.574 0 0 0-.292.067c-.1.05-.225.127-.372.23a7.835 7.835 0 0 1-.263.18c-.061.038-.31.175-.743.409-.435.233-.819.445-1.153.634-.334.19-.532.315-.593.376Zm6.297-8.953a.726.726 0 0 0 .535.217.733.733 0 0 0 .538-.221.733.733 0 0 0 .222-.539c0-.412.147-.765.442-1.06.29-.29.646-.44 1.07-.451.21 0 .39-.073.534-.218a.726.726 0 0 0 .217-.534.726.726 0 0 0-.217-.535.726.726 0 0 0-.535-.217c-.835 0-1.547.295-2.138.886a2.913 2.913 0 0 0-.885 2.138.78.78 0 0 0 .217.534Zm-3.023 0a.7.7 0 0 0 .534.217c.212 0 .39-.072.535-.217a.726.726 0 0 0 .217-.534c.011-1.259.457-2.328 1.336-3.207.88-.88 1.949-1.326 3.207-1.337.212 0 .39-.072.535-.217a.726.726 0 0 0 .217-.534.726.726 0 0 0-.217-.535.726.726 0 0 0-.535-.217c-1.67 0-3.095.59-4.276 1.77-1.18 1.18-1.77 2.606-1.77 4.277a.702.702 0 0 0 .217.534Zm-3.023 0a.7.7 0 0 0 .534.217c.212 0 .39-.072.535-.217a.726.726 0 0 0 .217-.534 7.605 7.605 0 0 1 .58-2.894 7.483 7.483 0 0 1 1.641-2.451 7.483 7.483 0 0 1 2.452-1.642 7.605 7.605 0 0 1 2.893-.58c.212 0 .39-.072.535-.217a.726.726 0 0 0 .217-.535.726.726 0 0 0-.217-.534.726.726 0 0 0-.535-.217 8.991 8.991 0 0 0-6.414 2.655A8.984 8.984 0 0 0 .55 9.574a.702.702 0 0 0 .218.534Z" fill="#8A959F"/></svg>