<svg width="12" height="12" fill="none" xmlns="http://www.w3.org/2000/svg"><path d="M.492 0a.505.505 0 0 0-.457.312.49.49 0 0 0-.035.19v10.015a.49.49 0 0 0 .256.432s.517.28 1.47.54C2.68 11.746 4.102 12 6 12s3.32-.253 4.274-.512c.953-.258 1.47-.539 1.47-.539a.497.497 0 0 0 .256-.433V.502a.49.49 0 0 0-.312-.466.505.505 0 0 0-.653.276.488.488 0 0 0-.035.19v2.189A6.05 6.05 0 0 0 6.178.044.505.505 0 0 0 6 .008a6.025 6.025 0 0 0-5 2.67V.501A.49.49 0 0 0 .688.036.505.505 0 0 0 .492 0ZM6 .997c2.752 0 5 2.223 5 4.945v4.234c-.127.064-.3.17-.992.358-.87.236-2.199.477-4.008.477-1.809 0-3.138-.241-4.008-.477-.691-.188-.865-.294-.992-.358V5.942C1 3.22 3.248.997 6 .997ZM3.5 4.953c-.825 0-1.5.668-1.5 1.484S2.675 7.92 3.5 7.92h5c.825 0 1.5-.667 1.5-1.483 0-.816-.675-1.484-1.5-1.484h-5Zm-.023.99c.276 0 .5.22.5.494a.497.497 0 0 1-.5.494.497.497 0 0 1-.5-.494c0-.273.224-.495.5-.495Zm5.023 0c.276 0 .5.22.5.494a.497.497 0 0 1-.5.494.497.497 0 0 1-.5-.494c0-.273.224-.495.5-.495Z" fill="#202124"/></svg>