<svg width="12" height="12" fill="none" xmlns="http://www.w3.org/2000/svg"><path d="M5.022 4.934c.27 0 .492.207.516.47l.002.048V8.74a.518.518 0 0 1-1.034.047l-.002-.047V5.45c0-.285.232-.517.518-.517Zm2.708.471a.518.518 0 0 0-1.033.047V8.74l.002.047a.518.518 0 0 0 1.034-.047V5.45l-.002-.046Z" fill="#DD3646"/><path fill-rule="evenodd" clip-rule="evenodd" d="M7.215 0c.868 0 1.576.685 1.613 1.545l.001.07v.578h2.223a.518.518 0 0 1 .047 1.034l-.047.002h-.578v7.157c0 .868-.685 1.576-1.545 1.613L8.86 12H3.378a1.615 1.615 0 0 1-1.614-1.544l-.001-.07V3.229h-.578a.518.518 0 0 1-.047-1.034l.047-.002h2.223v-.578C3.408.746 4.093.038 4.952 0h2.263ZM2.799 3.23v7.155c0 .304.234.553.531.577l.048.002h5.481a.578.578 0 0 0 .577-.531l.002-.047V3.229H2.799Zm4.994-1.037h-3.35v-.578l.003-.048a.578.578 0 0 1 .576-.53h2.193l.047.001a.579.579 0 0 1 .531.577v.578Z" fill="#DD3646"/></svg>