<svg width="12" height="12" fill="none" xmlns="http://www.w3.org/2000/svg"><path d="M5.635 12a.525.525 0 0 1-.048-1.049l.048-.002h4.38a.936.936 0 0 0 .933-.88l.001-.054v-8.03a.935.935 0 0 0-.88-.933l-.054-.001h-8.03a.935.935 0 0 0-.933.88l-.001.054v4.38a.525.525 0 0 1-1.049.048L0 6.365v-4.38C0 .914.849.041 1.91.001L1.986 0h8.03C11.087 0 11.96.849 12 1.91l.001.075v8.03a1.985 1.985 0 0 1-1.91 1.984l-.075.001h-4.38Z" fill="#0D6EFD"/><path d="M8.003 3.604c.274 0 .499.21.523.478l.002.047v2.92a.525.525 0 0 1-1.048.048l-.002-.048V5.404L2.38 10.5a.525.525 0 0 1-.777-.706l.034-.037 5.104-5.104H5.083a.525.525 0 0 1-.523-.477l-.002-.048c0-.274.21-.499.477-.523l.048-.002h2.92Z" fill="#0D6EFD"/></svg>