<svg width="16" height="16" fill="none" xmlns="http://www.w3.org/2000/svg"><path d="M8 1c-.547 0-1 .453-1 1v1.14C5.281 3.59 4 5.146 4 7v3.984s-.016.278-.148.536c-.082.16-.174.306-.363.393-.251.116-.489.31-.489.587a.5.5 0 0 0 .5.5h9a.5.5 0 0 0 .5-.5c0-.276-.235-.473-.491-.577-.21-.086-.3-.232-.38-.392a1.388 1.388 0 0 1-.129-.527V7c0-1.855-1.281-3.41-3-3.86V2c0-.547-.453-1-1-1Zm0 12c-.55 0-1 .45-1 1s.45 1 1 1 1-.45 1-1-.45-1-1-1Zm0-9c1.664 0 3 1.336 3 3v3.996s-.012.477.234.973c.004.011.012.02.016.031H4.727a.085.085 0 0 1 .015-.02c.25-.492.258-.964.258-.964V7c0-1.664 1.336-3 3-3Z" fill="#000"/></svg>