<svg width="16" height="16" fill="none" xmlns="http://www.w3.org/2000/svg"><path fill-rule="evenodd" clip-rule="evenodd" d="M7.297 1.8C4.261 1.8 1.8 4.268 1.8 7.312c0 3.044 2.461 5.512 5.497 5.512a5.466 5.466 0 0 0 3.496-1.257l2.549 2.524.038.034c.21.171.518.158.711-.039a.532.532 0 0 0-.004-.751l-2.545-2.52a5.498 5.498 0 0 0 1.253-3.503c0-3.044-2.461-5.512-5.498-5.512Zm0 1.062a4.444 4.444 0 0 1 4.438 4.45 4.444 4.444 0 0 1-4.438 4.45 4.444 4.444 0 0 1-4.437-4.45 4.444 4.444 0 0 1 4.437-4.45Z" fill="#202124"/></svg>