<svg width="16" height="16" fill="none" xmlns="http://www.w3.org/2000/svg"><path fill-rule="evenodd" clip-rule="evenodd" d="M8 5.595a2.409 2.409 0 1 0 .002 4.817A2.409 2.409 0 0 0 8 5.595Zm0 1.054a1.355 1.355 0 1 1 0 2.71 1.355 1.355 0 0 1 0-2.71Z" fill="#202124"/><path fill-rule="evenodd" clip-rule="evenodd" d="M9.463.889H6.536a.527.527 0 0 0-.516.425l-.081.411-.253 1.227-.04.018a5.693 5.693 0 0 0-.891.512l-.052.037L3.452 3.1l-.418-.13a.527.527 0 0 0-.611.24l-.21.362-1.039 1.736-.214.37a.527.527 0 0 0 .109.66l.308.27.948.808-.024.162a3.08 3.08 0 0 0-.03.422v.06c.003.135.014.256.038.42l.016.104-.942.803-.314.274a.527.527 0 0 0-.109.662l.21.363 1.046 1.748.207.357a.527.527 0 0 0 .612.24l.407-.128 1.261-.422.052.037c.286.2.583.371.891.512l.04.018.254 1.231.08.407a.527.527 0 0 0 .516.425h2.927a.527.527 0 0 0 .516-.424l.082-.411.252-1.228.04-.018c.309-.14.606-.312.892-.512l.05-.037 1.252.419.417.13a.527.527 0 0 0 .612-.238l.212-.364 1.037-1.737.214-.367a.527.527 0 0 0-.108-.663l-.31-.27-.947-.807.01-.064c.032-.209.044-.347.044-.52v-.057a3.208 3.208 0 0 0-.044-.463l-.01-.065.942-.802.315-.274a.527.527 0 0 0 .108-.663l-.211-.363-1.043-1.746-.21-.359a.527.527 0 0 0-.61-.237l-.406.126-1.263.422-.051-.037a5.692 5.692 0 0 0-.892-.512l-.04-.018-.253-1.231-.08-.408a.527.527 0 0 0-.517-.424ZM6.969 1.943H9.03l.307 1.494c.036.176.16.322.328.386.424.162.828.397 1.212.698l.043.03a.526.526 0 0 0 .449.055l1.508-.505 1.032 1.73-1.146.976a.527.527 0 0 0-.178.487l.054.324c.027.169.036.268.036.382l-.002.075a2.636 2.636 0 0 1-.034.307l-.054.324-.006.05a.527.527 0 0 0 .184.437l1.146.976-1.033 1.73-1.507-.505a.526.526 0 0 0-.492.085 4.663 4.663 0 0 1-1.212.698l-.045.02a.527.527 0 0 0-.283.366l-.307 1.494H6.97l-.308-1.494a.527.527 0 0 0-.328-.386 4.663 4.663 0 0 1-1.212-.698l-.043-.03a.526.526 0 0 0-.449-.055l-1.507.504-1.034-1.73 1.147-.975a.527.527 0 0 0 .178-.486l-.048-.29A2.44 2.44 0 0 1 3.324 8c0-.124.014-.252.046-.446l.044-.258.006-.05a.527.527 0 0 0-.184-.44l-1.147-.975L3.123 4.1l1.507.505a.526.526 0 0 0 .492-.085 4.661 4.661 0 0 1 1.212-.698l.045-.02a.527.527 0 0 0 .283-.366l.307-1.494Z" fill="#202124"/></svg>