<svg width="14" height="14" fill="none" xmlns="http://www.w3.org/2000/svg"><path fill-rule="evenodd" clip-rule="evenodd" d="M1.313.778c.28 0 .509.214.533.486l.002.05v10.56c0 .142.106.259.243.276l.034.002h10.562a.535.535 0 0 1 .049 1.068l-.049.002H2.126a1.347 1.347 0 0 1-1.347-1.28l-.001-.067V1.313c0-.296.24-.535.535-.535Zm6.5 5.69c.279 0 .508.214.533.487l.002.049v3.25a.535.535 0 0 1-1.069.05l-.002-.05v-3.25c0-.296.24-.535.535-.535Zm3.25-1.625c.278 0 .508.213.532.486l.002.049v4.874a.535.535 0 0 1-1.068.05l-.002-.05V5.378c0-.296.24-.535.535-.535Zm-6.5-2.44c.279 0 .508.214.533.487l.002.049v7.312a.535.535 0 0 1-1.068.049l-.002-.05V2.94c0-.296.24-.535.535-.535Z" fill="#202124"/></svg>