<svg width="10" height="12" fill="none" xmlns="http://www.w3.org/2000/svg"><path fill-rule="evenodd" clip-rule="evenodd" d="M4 8V6.994h2V8h1V6a.5.5 0 0 0-.035-.183l-1.375-3.5A.5.5 0 0 0 5.125 2h-.25a.5.5 0 0 0-.465.317l-1.375 3.5A.5.5 0 0 0 3 6v2h1Zm1-4.45.96 2.444H4.04L5 3.549Z" fill="#202124"/><path fill-rule="evenodd" clip-rule="evenodd" d="M0 1.5A1.5 1.5 0 0 1 1.5 0H10v10H1.5a.5.5 0 0 0 0 1H10v1H1.5A1.5 1.5 0 0 1 0 10.5v-9Zm1 7.585C1.156 9.03 1.325 9 1.5 9H9V1H1.5a.5.5 0 0 0-.5.5v7.585Z" fill="#202124"/></svg>