<svg width="14" height="14" fill="none" xmlns="http://www.w3.org/2000/svg"><path fill-rule="evenodd" clip-rule="evenodd" d="M6.067 0A6.06 6.06 0 0 1 11 2.535L12.133 1.4v3.267H8.867l1.462-1.461a5.133 5.133 0 1 0-4.47 7.99l.208.004h.466V7.933A1.4 1.4 0 0 1 7.8 6.54l.134-.007H12.6A1.4 1.4 0 0 1 13.994 7.8l.006.134V12.6a1.4 1.4 0 0 1-1.265 1.394L12.6 14H7.933a1.4 1.4 0 0 1-1.393-1.265l-.007-.135v-.467h-.466A6.066 6.066 0 1 1 6.067 0ZM12.6 7.467H7.933a.467.467 0 0 0-.459.383l-.007.083V12.6c0 .229.165.42.383.46l.083.007H12.6c.229 0 .42-.166.46-.383l.007-.084V7.933a.467.467 0 0 0-.383-.459l-.084-.007Zm-.304 2.013-.66-.66-1.72 1.72-1.07-1.07-.66.66 1.73 1.73 2.38-2.38Z" fill="#202124"/></svg>