<svg width="14" height="14" fill="none" xmlns="http://www.w3.org/2000/svg"><path fill-rule="evenodd" clip-rule="evenodd" d="M9 0v3h1v1H9v2.126c.258-.066.525-.108.8-.121L10 6h1V4l2.5 2.5L11 9V7h-1a3 3 0 1 0 2.995 3.176L13 10h1a4 4 0 0 1-7.464 2.001L2 12a2 2 0 0 1-1.995-1.85L0 10V0h9ZM8 1H1v9a1 1 0 0 0 .883.993L2 11h4.126A4.007 4.007 0 0 1 6 10H5V9h1.126c.091-.355.23-.69.41-1H5V7h2.125v.22c.257-.267.551-.498.874-.685L8 1Zm-4 9V9H2v1h2Zm0-3v1H2V7h2Zm3-1V5H5v1h2ZM4 5v1H2V5h2Zm3-1V3H2v1h5Z" fill="#202124"/></svg>