<svg width="14" height="12" fill="none" xmlns="http://www.w3.org/2000/svg"><path fill-rule="evenodd" clip-rule="evenodd" d="M1 1.5C1 .676 1.676 0 2.5 0S4 .676 4 1.5 3.324 3 2.5 3 1 2.324 1 1.5ZM2.5 3h1c.56 0 1 .281 1.387.528l.078.05c.275.172.55.305.69.372.068.033.104.05.095.05H8v1H5.75c-.468 0-.785-.218-1.096-.431-.073-.05-.146-.1-.22-.147C4.043 4.18 3.652 4 3.5 4h-2c-.281 0-.5.219-.5.5v2.793l1 1V11h1V7h1v5H1V8.707l-1-1V4.5C0 3.676.676 3 1.5 3h1Zm0-2c.281 0 .5.219.5.5s-.219.5-.5.5a.494.494 0 0 1-.5-.5c0-.281.219-.5.5-.5Zm2.5.5c0-.277.223-.5.5-.5h8c.277 0 .5.223.5.5v6c0 .277-.223.5-.5.5h-2.375l2.043 3h-1.211L9.918 8h-.836l-2.043 3H5.832l2.043-3H5.5a.498.498 0 0 1-.5-.5V6h1v1h7V2H6v1h-.063c-.058-.033-.131-.078-.2-.12a2.906 2.906 0 0 0-.151-.09A8.94 8.94 0 0 0 5 2.44V1.5Z" fill="#202124"/></svg>