<svg width="193" height="193" fill="none" xmlns="http://www.w3.org/2000/svg"><g filter="url(#a)"><circle cx="96.5" cy="91.5" r="69.5" fill="#FEF8E6" stroke="url(#b)" stroke-width="2"/><path opacity=".4" d="M116.148 64.918v67.803h32.36V64.918l-16.18-16.18-16.18 16.18Z" fill="url(#c)"/><g clip-path="url(#d)"><path d="M76.452 124.387h-6.96a.17.17 0 0 1 0-.34h6.96a.169.169 0 0 1 .12.29.17.17 0 0 1-.12.05Zm19.97-3.288h-6.61a.17.17 0 0 1-.12-.291.17.17 0 0 1 .12-.05h6.61a.17.17 0 0 1 .12.291.17.17 0 0 1-.12.05Z" fill="#9B3C82"/><path d="M96.388 112.551h13.849v11.526h-13.85v-11.526Z" fill="#FFCF2D"/><path d="M110.237 124.247h-13.85a.17.17 0 0 1-.17-.17v-11.526a.17.17 0 0 1 .17-.171h13.85c.045 0 .089.018.121.05a.173.173 0 0 1 .049.121v11.526a.173.173 0 0 1-.049.12.172.172 0 0 1-.121.05Zm-13.68-.34h13.51v-11.186h-13.51v11.186Z" fill="#E6F8EF"/><path d="m103.283 119.68-1.683-2.313a.056.056 0 0 1-.01-.028.05.05 0 0 1 .006-.03.047.047 0 0 1 .02-.022.051.051 0 0 1 .029-.008l.995-.003a.19.19 0 0 1 .154.079l.542.745a.087.087 0 0 0 .027.023c.01.005.022.008.034.009a.083.083 0 0 0 .034-.007.083.083 0 0 0 .028-.021l1.175-1.405a.222.222 0 0 1 .17-.079l1.018.003c.013 0 .025.004.036.011a.075.075 0 0 1 .025.028.067.067 0 0 1 .005.037.059.059 0 0 1-.015.034l-2.467 2.951a.094.094 0 0 1-.028.021.07.07 0 0 1-.035.006.066.066 0 0 1-.033-.009.073.073 0 0 1-.027-.022Z" fill="#04AF5F"/><path d="M76.174 116.771h13.85v11.526h-13.85v-11.526Z" fill="#E6F8EF"/><path d="M90.024 128.468h-13.85a.17.17 0 0 1-.17-.171v-11.526a.17.17 0 0 1 .17-.17h13.85a.17.17 0 0 1 .17.17v11.526a.17.17 0 0 1-.17.171Zm-13.68-.341h13.51v-11.186h-13.51v11.186Z" fill="#FFCF2D"/><path d="m82.866 124.036-1.683-2.312a.061.061 0 0 1-.01-.029c-.001-.01 0-.02.005-.029a.056.056 0 0 1 .02-.023.06.06 0 0 1 .03-.008l.994-.002c.03 0 .06.007.087.02a.2.2 0 0 1 .068.058l.542.745c.007.01.016.018.026.023a.08.08 0 0 0 .068.003.072.072 0 0 0 .029-.022l1.175-1.404a.224.224 0 0 1 .17-.08l1.018.004a.065.065 0 0 1 .06.039.068.068 0 0 1-.01.071l-2.467 2.95a.08.08 0 0 1-.062.028.079.079 0 0 1-.06-.032Z" fill="#04AF5F"/><path d="M55.757 120.447h13.85v11.526h-13.85v-11.526Z" fill="#E6F8EF"/><path d="M69.607 132.144h-13.85a.17.17 0 0 1-.17-.171v-11.526a.17.17 0 0 1 .17-.17h13.85a.17.17 0 0 1 .17.17v11.526a.17.17 0 0 1-.17.171Zm-13.68-.341h13.51v-11.186h-13.51v11.186Z" fill="#FFCF2D"/><path d="m62.449 127.712-1.683-2.312a.061.061 0 0 1-.01-.029c-.002-.01 0-.02.005-.029a.056.056 0 0 1 .02-.023.06.06 0 0 1 .03-.008l.994-.002a.2.2 0 0 1 .087.02.2.2 0 0 1 .067.058l.543.745c.007.01.016.018.026.023.01.006.022.009.034.009a.073.073 0 0 0 .062-.028l1.175-1.404a.225.225 0 0 1 .17-.08l1.019.004c.012 0 .025.004.035.01.011.007.02.017.025.029a.066.066 0 0 1-.01.071l-2.467 2.95a.081.081 0 0 1-.062.028.078.078 0 0 1-.06-.032Z" fill="#04AF5F"/></g><g clip-path="url(#e)"><path d="M89.414 53.279c-.031.058-.07.117-.111.18-.145.21-.35.421-.6.618a4.344 4.344 0 0 1-.873.53c-.02.01-.04.017-.061.027l-.097.042a4.432 4.432 0 0 1-.942.28 2.956 2.956 0 0 1-.862.034 1.854 1.854 0 0 1-.208-.038c-.326-.076-.565-.238-.672-.477l-.242-.54-.177-.397-.024-.052c-.288-.647.488-1.619 1.738-2.175 1.25-.557 2.494-.488 2.781.155l.024.052.177.398.242.543c.108.238.066.525-.093.82Z" fill="#FFCF2D"/><path d="m87.831 54.603-.388-.868c.264-.121.51-.263.731-.418l.388.864.142-.107-.388-.865a3.36 3.36 0 0 0 .592-.577c.007-.007.01-.014.017-.024l.378.847c.041-.059.08-.118.11-.18l-.373-.83c.114-.18.19-.36.221-.53l-.176-.397c.08.287-.028.64-.315 1.01-.33.422-.849.806-1.462 1.08-.613.272-1.246.404-1.78.366-.46-.031-.796-.187-.959-.436l.177.398c.149.086.332.148.543.186l.374.834c.066.014.135.028.208.038l-.38-.85a3.468 3.468 0 0 0 .218.01c.2 0 .415-.021.633-.063l.388.865.173-.035-.388-.864a4.75 4.75 0 0 0 .766-.25l.387.869.163-.073Z" fill="#9B3C82"/><path d="M87.838 51.494c-.031-.035-.087-.042-.121-.007l-.25.218a.809.809 0 0 0-.107-.097.084.084 0 0 0-.107.003L85.85 52.76l-.017.017a.086.086 0 0 0 .024.121.975.975 0 0 0 .139.083l-.236.204a.098.098 0 0 0-.03.066c0 .048.037.086.086.086.02 0 .041-.007.055-.02l.288-.25c.155.07.35.135.533.135a.556.556 0 0 0 .364-.12.352.352 0 0 0 .138-.291.61.61 0 0 0-.166-.36c.097.017.2.014.298-.01a.468.468 0 0 0 .284-.229c.041-.072.062-.19-.038-.349l.256-.221c.038-.038.041-.094.01-.128Zm-.893 1.452c-.225.184-.655.004-.894-.131l.61-.502c.124.097.353.308.36.481a.175.175 0 0 1-.076.152Zm.512-.843c-.138.248-.474.152-.64.082l.488-.4c.09.086.204.228.152.318Z" fill="#9B3C82"/><path d="M88.887 51.518c-.128-.28-.467-.443-.962-.45-.471-.003-1.036.128-1.586.37-1.17.526-1.891 1.38-1.638 1.951.135.298.505.45 1 .45.447 0 .99-.121 1.545-.37 1.174-.526 1.894-1.384 1.641-1.95Zm-1.71 1.792c-1.05.467-2.11.473-2.317.006-.208-.463.502-1.252 1.551-1.718.513-.229 1.036-.357 1.479-.357h.035c.207.004.388.035.523.097a.525.525 0 0 1 .284.25c.204.466-.506 1.251-1.555 1.722Z" fill="#9B3C82"/><path d="M96.887 56.903c-.031.059-.07.118-.111.177a2.88 2.88 0 0 1-.603.619c-.045.034-.093.072-.142.107a4.35 4.35 0 0 1-.73.422l-.063.027-.097.042c-.26.11-.519.19-.768.25-.06.013-.118.023-.173.034a2.953 2.953 0 0 1-.863.034 1.298 1.298 0 0 1-.208-.038c-.325-.076-.567-.238-.675-.48l-.242-.54-.18-.398-.025-.052c-.287-.643.489-1.618 1.739-2.175 1.247-.557 2.493-.488 2.78.159l.025.052.18.398.242.543c.115.242.073.525-.086.82Z" fill="#FFCF2D"/><path d="M96.887 56.903c-.031.059-.07.118-.111.177l-.377-.848c-.007.007-.01.014-.018.025-.16.204-.36.397-.592.577l.388.865-.142.107-.388-.865a4.683 4.683 0 0 1-.73.419l.387.868-.16.07-.387-.869a4.81 4.81 0 0 1-.765.249l.388.865-.173.034-.388-.864a3.416 3.416 0 0 1-.825.055c-.01 0-.017 0-.027-.004l.377.848a1.298 1.298 0 0 1-.208-.038l-.374-.827a1.527 1.527 0 0 1-.543-.187l-.18-.397c.159.252.498.408.962.439.534.038 1.167-.093 1.78-.367.613-.273 1.133-.657 1.462-1.079.287-.367.395-.723.315-1.01l.18.398c-.035.17-.107.35-.222.53l.37.83Z" fill="#9B3C82"/><path d="m95.491 56.045-.38.014c-.129-.26-.357-.577-.68-.577h-.003a.353.353 0 0 0-.29.138.651.651 0 0 0-.101.384.681.681 0 0 0-.24-.18.444.444 0 0 0-.363 0c-.076.031-.17.107-.19.294l-.34.01a.088.088 0 0 0-.086.087c0 .048.041.086.086.086h.004l.332-.01c.004.048.01.097.021.145.01.038.045.066.083.066l1.815-.01c.007 0 .017 0 .024-.004a.087.087 0 0 0 .059-.107c-.004-.01-.02-.07-.056-.152l.312-.01a.084.084 0 0 0 .083-.09.09.09 0 0 0-.09-.084Zm-2.078.284c-.017-.114-.02-.304.08-.342a.276.276 0 0 1 .118-.025c.104 0 .204.06.301.173.049.06.094.125.128.19l-.627.004Zm.832-.004c-.035-.152-.08-.463.024-.598a.18.18 0 0 1 .156-.069h.003c.288 0 .51.412.606.664l-.79.003Z" fill="#9B3C82"/><path d="M96.36 55.146c-.252-.567-1.37-.602-2.545-.08-1.174.526-1.894 1.38-1.638 1.948.135.297.506.45 1.001.45.447 0 .99-.125 1.544-.37 1.015-.454 1.69-1.156 1.69-1.702 0-.09-.017-.17-.052-.246Zm-1.71 1.788c-1.05.467-2.11.47-2.317.007-.208-.463.502-1.252 1.551-1.719.527-.235 1.06-.352 1.483-.352.419 0 .73.114.834.345.208.464-.502 1.252-1.551 1.72Z" fill="#9B3C82"/><path d="m104.876 54.088-.028.048-.221.374-.305.508c-.135.225-.392.357-.724.398-.066.007-.138.01-.208.014a3.06 3.06 0 0 1-.852-.135l-.169-.055a4.325 4.325 0 0 1-.766-.353c-.02-.01-.038-.024-.059-.035a4.583 4.583 0 0 1-.862-.66 2.945 2.945 0 0 1-.526-.685c-.035-.062-.062-.128-.09-.19-.125-.312-.132-.599.003-.827l.305-.508.222-.374.031-.048c.36-.606 1.607-.533 2.781.166 1.17.698 1.828 1.757 1.468 2.362Z" fill="#FFCF2D"/><path d="m104.848 54.136-.221.374a1.6 1.6 0 0 1-.561.12l-.468.786c-.066.007-.138.01-.208.014l.475-.796h-.028a3.39 3.39 0 0 1-.814-.152l-.485.813a5.301 5.301 0 0 1-.169-.055l.484-.813a4.627 4.627 0 0 1-.765-.356l-.488.816-.007.014-.149-.087.007-.014.488-.816a4.453 4.453 0 0 1-.644-.48l-.485.816-.128-.121.485-.813a3.224 3.224 0 0 1-.519-.644l-.014-.024-.475.796c-.034-.063-.062-.128-.09-.19l.468-.785a1.548 1.548 0 0 1-.16-.55l.222-.374c-.253.616.402 1.612 1.52 2.28.579.342 1.192.546 1.725.57.46.017.814-.097 1.004-.329Z" fill="#9B3C82"/><path d="m103.494 53.783-.228-.304c.138-.256.27-.626.076-.892a.345.345 0 0 0-.281-.16c-.128-.003-.259.06-.374.14a.71.71 0 0 0 .011-.298.454.454 0 0 0-.208-.298c-.069-.045-.187-.076-.353.014l-.205-.27a.087.087 0 0 0-.121-.017.087.087 0 0 0-.017.121l.201.266a.944.944 0 0 0-.104.1.088.088 0 0 0-.007.108l1.053 1.477a.09.09 0 0 0 .069.034h.003c.028 0 .052-.01.07-.034.007-.007.045-.056.093-.132l.187.25a.09.09 0 0 0 .069.034.092.092 0 0 0 .052-.017.09.09 0 0 0 .014-.122Zm-1.063-1.02-.367-.512c.093-.086.242-.186.329-.131.239.152.118.48.038.643Zm.575.806-.457-.643c.104-.114.325-.325.498-.325h.007a.182.182 0 0 1 .146.086c.169.235-.042.654-.194.882Z" fill="#9B3C82"/><path d="M103.331 51.85c-1.104-.657-2.219-.754-2.538-.218-.319.536.298 1.47 1.403 2.127.623.374 1.253.564 1.738.564.374 0 .661-.114.8-.346.318-.536-.298-1.47-1.403-2.127Zm1.254 2.037c-.26.436-1.312.308-2.303-.28-.987-.588-1.6-1.453-1.34-1.888.104-.177.336-.26.641-.26.453 0 1.07.187 1.658.54.991.588 1.604 1.452 1.344 1.888Z" fill="#9B3C82"/></g><g clip-path="url(#f)"><path d="M74.682 65.242a3.94 3.94 0 0 1-.566.746l1.698 12.845s9.65-.107 15.11-2.023c0 0-5.818-14.659-11.068-11.606l-5.174.038Z" fill="#66B0F0"/><path d="M78.934 54.296a1.428 1.428 0 0 0-1.235.386c-.843-1.243-2.585-.449-2.513.67-1.55-.576-2.661 1.302-1.795 2.293.318.363.901 1.15.929 1.923.697.094 2.302 1.244 2.302 1.244s1.867-3.464 2.82-4.1c1.187-.793.452-2.23-.508-2.416Z" fill="#5B2448"/><path d="M77.16 55.532c0 .048.038.086.087.086a.085.085 0 0 0 .086-.086c.007-.411.224-.715.418-.901-.018.017-.035.03-.052.048-.035-.048-.07-.097-.104-.138-.21.214-.428.542-.435.99Z" fill="#9B3C82"/><path d="M81.772 60.539c.155.366.082.825-.239 1.177-.838.919-2.295 1.054-2.295 1.054s.228 1.263.621 2.437a9.118 9.118 0 0 1-.214 1.81c-1.35 0-3.796-.639-4.966-1.775 0 0 .638-1.136.79-3.125-.76.142-2.136-.245-2.281-1.291-.083-.594.362-1.25.997-1.275.618-.024.946.242 1.567.587.577.322.614.021.711-.628a4.147 4.147 0 0 1 .532-1.468c.462-.752 1.636-1.153 2.443-1.33.197.595.428 1.171.7 1.734.477.985 1.274 1.236 1.633 2.093Z" fill="#F4ADA2"/><path d="m77.07 58.622-.017-.062c-.003-.02-.01-.038-.013-.055a1.266 1.266 0 0 1-.014-.114 1.013 1.013 0 0 1 .214-.66.869.869 0 0 1 .18-.176.942.942 0 0 1 .224-.12.746.746 0 0 1 .244-.042c.083 0 .163.014.239.048a.188.188 0 0 1 .096.252.145.145 0 0 1-.03.049l-.025.028c-.048.051-.09.09-.124.127-.038.035-.07.07-.097.1-.059.063-.107.118-.166.176-.055.063-.11.132-.172.211l-.097.128c-.017.02-.034.045-.052.069a.396.396 0 0 1-.155.128.213.213 0 0 1-.103.017.147.147 0 0 1-.114-.076.062.062 0 0 1-.017-.028Zm.47.411c.159-.093.542-.304.86-.621a.11.11 0 0 1 .158 0c.114.114.266.335.02.521-.3.231-.88.304-1.045.197a.054.054 0 0 1-.014-.08.09.09 0 0 1 .02-.017Zm2.212-1.101c-.165.08-.296.107-.624.172a.11.11 0 0 0-.09.132c.03.159.155.29.41.234a.49.49 0 0 0 .387-.486.06.06 0 0 0-.058-.06.065.065 0 0 0-.025.008Z" fill="#5B2448"/><path d="M76.038 62.058a.085.085 0 0 0 .025-.12.085.085 0 0 0-.121-.025 1.483 1.483 0 0 1-.473.207c-.003.063-.01.121-.014.18.207-.045.404-.124.584-.242-.004 0-.004 0 0 0Z" fill="#9B3C82"/><path d="M78.852 56.975a.59.59 0 0 0-.1.197.172.172 0 0 0 .124.21c.017.004.034.008.051.004l.031-.003c.063-.004.114-.014.16-.018.044-.006.086-.01.127-.013.076-.007.141-.014.217-.018.06-.003.125-.003.197-.003a13.32 13.32 0 0 1-.22-.618 7.087 7.087 0 0 0-.39.097c-.011.006-.022.01-.032.017a.751.751 0 0 0-.165.148Zm-1.184 5.498c-.145.165.224 1.398 1.78 1.353h.021a18.61 18.61 0 0 1-.227-1.056c-.004-.004-.967.017-1.574-.297Z" fill="#5B2448"/><path opacity=".52" d="M77.609 61.191a.76.76 0 1 0 0-1.519.76.76 0 0 0 0 1.52Z" fill="#E57281"/><path d="M80.129 60.117a.542.542 0 0 1-.287.294.75.75 0 0 1-.407.076.85.85 0 0 1-.204-.055.594.594 0 0 1-.176-.114.593.593 0 0 1-.197-.36.08.08 0 0 1 .07-.086.076.076 0 0 1 .079.045l.003.004a.564.564 0 0 0 .46.328.621.621 0 0 0 .286-.038.577.577 0 0 0 .241-.163l.004-.003a.077.077 0 0 1 .11-.01c.017.013.028.051.017.082Zm-4.625 1.016a.085.085 0 0 1-.07-.035c-.607-.853-1.377-.545-1.408-.532a.089.089 0 0 1-.114-.048.085.085 0 0 1 .045-.11c.01-.004.925-.377 1.616.59a.088.088 0 0 1-.021.12c-.01.011-.028.015-.048.015Z" fill="#9B3C82"/><path d="M79.656 59.344a.07.07 0 0 1-.07-.069c0-.014.004-.031.014-.041.104-.138.149-.235.135-.3-.014-.073-.11-.128-.262-.208-.425-.228-.428-.494-.428-.508a.07.07 0 0 1 .069-.069.07.07 0 0 1 .069.07c0 .006.014.2.355.383.163.086.304.162.332.3.024.107-.025.235-.16.415-.01.017-.03.027-.054.027ZM67.8 112.974c-1.881-1.136-3.138-3.066-3.514-4.935-.355-1.774-.79-5.421-2.837-4.647-1.881.711-1.1 6.319 6.35 9.582Z" fill="#5B2448"/><path d="M67.8 112.977c-.511.273-.987.518-1.419.732-1.25.618-2.091.974-2.091.974s-5.357-.356-4.436-2.238c.694-.718 1.706-1.602 2.7-2.427.117-.1.238-.197.355-.294l.383-.31c.397-.322.777-.622 1.115-.888.535-.421.966-.749 1.205-.932l.203-.156.514 1.437 1.47 4.102Z" fill="#F4ADA2"/><path d="M104.016 102.362c-1.453.284-4.28.014-6.14-1.205-1.843-1.208-3.624-2.137-4.245-1.022-.68 1.236 2.333 5.031 10.385 2.227Z" fill="#5B2448"/><path d="M104.016 102.362a34.9 34.9 0 0 1-.393 1.551l-.011.038c-.469 1.678-.997 3.19-1.014 3.239-.018.048-.004 0-.007 0h-.021c-.404.01-4.794.096-4.46-1.416 0-.007-.103-.235-.103-.242.121-.532.228-1.125.321-1.719.024-.149.045-.301.07-.449.02-.135.037-.266.055-.397.006-.038.01-.076.013-.114.062-.456.11-.895.149-1.285.048-.476.076-.884.083-1.16v-.024a2.486 2.486 0 0 0-.004-.277c-.117-1.426 5.253 2.21 5.322 2.255Z" fill="#F4ADA2"/><path d="M104.016 102.363c-2.26.787-4.124 1.053-5.622 1.004.02-.134.038-.266.055-.397a33.557 33.557 0 0 0 .162-1.398c1.812.866 4.135 1.039 5.405.791ZM67.8 112.977c-2.157-.946-3.755-2.089-4.894-3.253l.383-.31c.397-.321.776-.622 1.115-.888.476 1.71 1.677 3.412 3.396 4.451Z" fill="#9B3C82"/><path d="M103.612 103.951a59.41 59.41 0 0 1-1.014 3.239c-.018.048-.004 0-.007 0h-.021c-.404.01-4.794.097-4.46-1.416 0-.007-.103-.235-.103-.242a26.07 26.07 0 0 0 .321-1.719l5.284.138Zm-37.23 9.755c-1.25.618-2.092.974-2.092.974s-5.357-.356-4.436-2.238c.694-.718 1.706-1.602 2.7-2.428l3.793 3.633.034.059Z" fill="#66B0F0"/><path d="m65.622 114.075-3.838-3.411c-.09.076-.176.151-.262.227l3.762 3.346c.103-.051.217-.107.338-.162Zm37.776-9.378-5.2-.107c-.022.117-.042.231-.066.345l5.163.107.103-.345Zm-5.39.835s-.974 4.289-1.412 6.703c0 0 7.482.304 10.144.083 1.442-.121 2.136-.663 2.467-1.054l-.003-.003c0-.004-.004-.007-.004-.01-.075-.183-.887-1.993-3.506-3.312a10.628 10.628 0 0 0-3.234-.96c-1.036-.124-1.916-.076-2.579-.297-.842-.28-1.4-1.167-1.874-1.15Z" fill="#fff"/><path d="M98.042 105.463c.735.176 1.014.874 1.912 1.202.583.214 2.24.09 3.444.418.045.01.087.024.132.034l.034.011c.256.072.501.148.732.228.048.017.093.031.138.048l.197.073c.051.02.1.038.148.058.041.017.083.031.121.049l.076.031c.058.024.117.048.176.076h.003c.021.01.042.017.062.027.066.031.135.059.201.09l.041.021.231.114.218.114a.474.474 0 0 1 .079.045l.238.134.055.031a.587.587 0 0 0 .056.031c.034.021.069.042.1.063l.107.065.052.031c.117.076.231.152.338.228.045.035.09.066.134.1.031.021.059.045.087.066l.045.034c.044.035.089.069.134.107a4.897 4.897 0 0 1 .228.19c.014.011.024.021.038.031l.072.063c.014.01.028.024.038.034a.88.88 0 0 1 .069.066c.011.01.025.02.035.031l.034.031.035.031c.034.031.066.066.097.097l.031.031.031.031.062.062.031.031.059.062c.02.021.038.042.055.062.017.021.038.042.055.062.01.011.021.021.028.035.034.038.065.076.096.114l.049.059c.017.02.031.038.044.058.014.021.032.038.045.056.135.172.245.331.332.469l.02.031c-2.298 1.623-4.607.753-5.933.197-1.142-.48-1.456.152-2.388-.152-.78-.252-.918-.905-1.909-1.025-.928-.114-1.746.48-1.746.48s.376-2.176 1.1-4.766Z" fill="#5B2448"/><path d="M97.382 108.996c-.04 0-.079-.004-.12-.007a.105.105 0 0 1-.083-.121.106.106 0 0 1 .12-.083c.011 0 .536.083 1.236-.511.063-.052.118-.1.173-.148.51-.442.821-.712 1.836-.746.059-.004.104.041.107.1.004.059-.041.104-.1.107-.942.031-1.198.252-1.709.694l-.172.149c-.59.5-1.073.566-1.288.566Z" fill="#fff"/><path d="M106.101 111.727c-1.263 0-2.364-.466-3.099-.773-.604-.256-.977-.19-1.34-.128-.31.052-.631.107-1.073-.035-.345-.11-.576-.293-.797-.469-.294-.235-.57-.453-1.115-.518-.88-.107-1.633.438-1.643.445a.085.085 0 0 1-.12-.02.088.088 0 0 1 .016-.121c.031-.024.815-.594 1.764-.477.594.073.9.318 1.201.556.218.173.425.338.742.442.401.131.687.08.991.028.386-.066.787-.135 1.436.138.604.255 1.518.639 2.547.739 1.191.114 2.25-.173 3.244-.877.042-.028.093-.014.121.024.028.041.014.093-.024.121-.973.69-1.954.925-2.851.925Z" fill="#5B2448"/><path d="M98.553 111.927c-.639 0-1.14-.307-1.14-.704 0-.397.501-.704 1.14-.704.638 0 1.139.307 1.139.704 0 .397-.5.704-1.14.704Zm0-1.232c-.525 0-.967.241-.967.531 0 .29.442.532.967.532.524 0 .966-.242.966-.532 0-.29-.445-.531-.966-.531Z" fill="#6D2A53"/><path d="M102.784 112.507c-2.975 0-6.223-.089-6.271-.089a.084.084 0 0 1-.083-.09v-.014c.435-2.393 1.501-6.74 1.512-6.782.01-.045.058-.076.103-.062.045.01.076.059.062.104-.01.041-1.046 4.268-1.49 6.674.907.025 7.651.194 10.112-.01.742-.062 1.754-.283 2.375-.984-.142-.314-.98-1.989-3.452-3.232a.514.514 0 0 1-.079-.042c-.435-.221-1.457-.742-3.158-.873a.09.09 0 0 1-.083-.09.09.09 0 0 1 .09-.083h.003c1.733.135 2.775.667 3.224.895l.079.038c2.616 1.319 3.452 3.125 3.545 3.349 0 0 0 .003.003.003.004.004.004.011.004.014l.003.007a.086.086 0 0 1-.014.087c-.655.776-1.736 1.018-2.526 1.084-.908.072-2.395.096-3.959.096Z" fill="#5B2448"/><path d="M102.163 109.389a.26.26 0 0 1-.231-.376c.031-.059.752-1.45 2.457-1.851a.26.26 0 0 1 .311.193.26.26 0 0 1-.194.311c-1.466.342-2.108 1.568-2.115 1.582a.246.246 0 0 1-.228.141Zm1.173.453a.262.262 0 0 1-.259-.259c0-.042.011-.08.028-.118.031-.058.742-1.426 2.43-1.819a.26.26 0 1 1 .124.504h-.003c-1.446.335-2.078 1.54-2.085 1.55a.269.269 0 0 1-.235.142Zm1.357.359a.261.261 0 0 1-.259-.259c0-.042.01-.083.031-.121.028-.052.68-1.236 2.219-1.575a.26.26 0 0 1 .307.197.26.26 0 0 1-.196.308c-1.298.286-1.868 1.305-1.874 1.315a.267.267 0 0 1-.228.135Z" fill="#FFCF2D"/><path d="M60.386 111.91s-3.017 2.662-4.263 5.418c0 0 7.093 2.403 9.71 2.942 1.418.294 2.236-.031 2.664-.314v-.014c-.02-.197-.29-2.162-2.43-4.164-.335-.311-1.432-1.233-2.83-1.831-.96-.41-1.508-.39-2.03-.859-.428-.384-.29-.681-.821-1.178Z" fill="#fff"/><path d="M60.42 111.876c.425.317.356.78.853 1.243.456.421 1.767.532 2.83 1.184.038.024.076.049.114.069l.031.021c.225.142.439.283.639.425.041.027.08.058.12.086.056.042.114.083.166.124l.128.097c.034.028.069.055.103.079l.063.052.148.121s.004 0 .004.004l.051.041c.055.048.11.097.166.142.01.01.024.02.034.031.066.058.128.117.19.172.059.056.121.114.176.17.021.02.045.041.066.065l.19.194.041.044.041.045c.028.028.056.059.08.087l.083.093a6.317 6.317 0 0 1 .297.359l.103.135c.024.027.045.058.066.086.01.014.02.028.03.045.035.048.07.093.1.138l.025.035c.048.072.097.141.141.214l.028.041c.017.028.035.055.052.079.01.014.017.032.028.045.017.028.034.056.048.083l.024.042c.007.013.017.027.024.041l.024.042c.024.041.045.079.066.12l.02.038a.325.325 0 0 0 .021.038c.014.028.028.052.042.076l.02.038c.014.024.025.052.038.076l.038.076a.606.606 0 0 1 .035.073c.007.014.014.027.017.041.02.049.042.093.062.138.01.025.021.045.031.069l.028.069c.01.025.017.045.028.066.079.204.141.387.186.542l.01.038c-2.664.908-4.635-.576-5.75-1.485-.96-.783-1.44-.266-2.25-.818-.677-.459-.625-1.126-1.543-1.523-.86-.369-1.67 0-1.67 0s1.525-2.227 3.264-3.646Z" fill="#5B2448"/><path d="M58.194 114.496c-.324 0-.504-.089-.517-.096-.052-.028-.073-.09-.045-.138.027-.052.09-.073.138-.045.007.003.49.231 1.332-.142.073-.031.142-.062.207-.093.614-.28.987-.449 1.971-.197a.105.105 0 0 1-.052.204c-.911-.235-1.218-.093-1.833.186a5.392 5.392 0 0 1-.21.094c-.407.172-.742.227-.99.227Z" fill="#fff"/><path d="M66.747 119.721c-1.891 0-3.282-1.136-4.114-1.816-.507-.415-.884-.459-1.25-.501-.314-.038-.635-.076-1.021-.335-.3-.204-.47-.445-.632-.677-.214-.307-.417-.594-.921-.811-.811-.349-1.591.007-1.598.01a.086.086 0 0 1-.114-.041.086.086 0 0 1 .041-.114c.035-.017.856-.394 1.74-.014.548.238.776.559.994.874.159.228.31.445.587.632.348.238.638.272.942.307.39.045.794.093 1.339.539.507.414 1.277 1.042 2.236 1.426 1.108.442 2.21.469 3.362.076a.085.085 0 1 1 .052.162 5.025 5.025 0 0 1-1.643.283Z" fill="#5B2448"/><path d="M58.58 117.656c-.168 0-.334-.027-.493-.072-.614-.18-1.004-.618-.894-.995.056-.19.228-.328.48-.39.238-.059.525-.045.811.038.615.18 1.005.618.894.994-.055.19-.228.328-.48.391a1.4 1.4 0 0 1-.317.034Zm-.593-1.326c-.093 0-.183.011-.272.031-.194.049-.321.145-.356.273-.08.276.276.635.777.78.255.076.51.087.721.035.193-.048.321-.145.355-.273.08-.276-.276-.635-.776-.78a1.783 1.783 0 0 0-.449-.066Z" fill="#6D2A53"/><path d="M66.878 120.467a5.558 5.558 0 0 1-1.063-.114c-2.588-.532-9.747-2.856-9.82-2.876a.086.086 0 0 1-.054-.108c0-.003.003-.006.003-.01 1.429-2.963 4.338-5.47 4.37-5.494a.084.084 0 0 1 .12.014.085.085 0 0 1-.01.117c-.028.025-2.854 2.459-4.283 5.349.86.277 7.29 2.345 9.705 2.842.732.152 1.76.221 2.554-.273-.044-.341-.38-2.185-2.398-4.074a1.384 1.384 0 0 1-.066-.062c-.356-.335-1.187-1.126-2.782-1.73a.09.09 0 0 1-.052-.111.09.09 0 0 1 .11-.052c1.626.618 2.475 1.423 2.841 1.765a.972.972 0 0 1 .063.059c2.14 2.002 2.43 3.971 2.457 4.212v.021a.082.082 0 0 1-.038.079c-.5.339-1.094.446-1.657.446Z" fill="#5B2448"/><path d="M62.343 116.178a.26.26 0 0 1-.259-.259c0-.065.024-.128.07-.176.044-.048 1.128-1.181 2.878-1.081a.261.261 0 0 1 .245.273.26.26 0 0 1-.273.245c-1.501-.086-2.464.912-2.475.919a.271.271 0 0 1-.186.079Zm.997.763a.26.26 0 0 1-.258-.259c0-.065.024-.131.069-.176.044-.048 1.114-1.16 2.844-1.06.141.01.252.131.241.276a.26.26 0 0 1-.272.242c-1.491-.086-2.427.891-2.437.898a.244.244 0 0 1-.187.079Zm1.198.729a.258.258 0 0 1-.183-.442c.042-.042 1.001-.995 2.572-.884.141.01.248.135.241.276a.261.261 0 0 1-.276.242c-1.34-.093-2.16.725-2.167.732a.275.275 0 0 1-.187.076Z" fill="#FFCF2D"/><path d="M89.527 81.62c3.458.728 9.412 1.95 13.036 6.405 4.021 4.942 1.453 14.337 1.453 14.337s-3.027.729-5.467-.794c-2.478-1.547-4.252-2.683-4.963-1.336 0 0 .431-.856 1.988-3.267 1.808-2.804-2.023-5.856-10.002-6.671-.819 7.776-8.584 18.246-17.772 22.68-1.988-1.136-3.193-3.229-3.583-4.897-.39-1.668-.673-5.286-2.768-4.686 2.627-1.453 6.227-1.177 9.505-3.121 4.008-2.38 2.31-9.834 3.248-13.685l15.325-4.965Z" fill="#21A0AA"/><path d="M74.696 97.359a.088.088 0 0 0-.014-.124.087.087 0 0 0-.12.017c-.49.625-1.45 1.46-2.503 2.182l-.22.149a4.28 4.28 0 0 1-.878.683 11.93 11.93 0 0 1-.852.456c1.49-.597 3.71-2.244 4.587-3.363Zm11.103-9.72a.084.084 0 0 0-.083.09c.004.859-.051 1.712-.144 2.565.058.007.113.01.172.017.093-.86.148-1.72.145-2.586a.088.088 0 0 0-.09-.087Zm10.627 5.31c-.065-.929-.282-1.505-.293-1.53a.087.087 0 0 0-.11-.048.086.086 0 0 0-.052.11c.007.021.642 1.72.038 3.948.02.307-.02.618-.131.928a7.626 7.626 0 0 0 .549-3.408Z" fill="#6CE0DC"/><path d="M75.814 78.833s-2.42 2.338-3.44 4.33c-1.023 1.993-1.74 4.047-1.278 4.258 1.173.542 3.797-4.258 4.718-8.588Z" fill="#5B2448"/><path d="M74.185 65.988c-1.132-.584-4.47.6-6.565 6.885-2.095 6.285-.566 10.221.711 11.534a1.36 1.36 0 0 0 .073.994c.255.546 1.242 1.633 2.696 2.024-.532-.567 1.028-5.183 4.718-8.588 1.56-4.544.707-11.644-1.633-12.85Z" fill="#66B0F0"/><path d="M81.022 66.064a5.54 5.54 0 0 0-.282-.318 5.302 5.302 0 0 0-.705-.635 3.957 3.957 0 0 0-.169.09c.228.151.477.369.739.645a.052.052 0 0 0 .014.02c.517.519 1.204 1.6 1.346 1.976.114.304.055.352.055.356-.007.003-.07.045-.349-.097a6.82 6.82 0 0 1-.7-.432s-.004 0-.004-.003a.088.088 0 0 0-.12.024c-.028.038-.014.093.024.12.58.394.907.567 1.104.567a.22.22 0 0 0 .145-.045c.114-.09.09-.272.041-.438 1.716 2.624 3.549 6.52 4.342 9.592.06-.007.118-.01.173-.017-.576-2.234-1.753-5.08-3.165-7.648-.873-1.585-1.736-2.88-2.489-3.757Zm-4.504 4.471c-.217-1.219-.555-2.31-.98-3.156-.062-.12-.124-.238-.186-.349a44.43 44.43 0 0 0 2.167 1.986c.746.646 1.288.96 1.667.96.09 0 .18-.02.26-.062.52-.276.386-1.399.251-2.48-.017-.144-.034-.283-.048-.417-.055 0-.114 0-.173-.004l.052.442c.114.93.255 2.082-.162 2.307-.37.197-1.146-.37-1.733-.877-1.443-1.247-2.13-1.944-2.54-2.359-.349-.352-.518-.525-.79-.676l-.038-.021a3.446 3.446 0 0 1-.121.131l.079.041c.9.543 1.722 2.286 2.13 4.565.473 2.656.314 5.574-.439 8.056-1.09-.024-4.083.49-5.65 1.395a.077.077 0 0 0-.041.077c0 .048.038.086.086.086a.082.082 0 0 0 .041-.01c1.305-.757 3.614-1.233 4.943-1.347-1.253.428-2.661 1.153-3.88 2.006-1.563 1.095-2.695 2.307-3.206 3.432.042.049.086.097.128.139.483-1.12 1.608-2.331 3.179-3.43 1.356-.956 2.954-1.743 4.3-2.133.076-.025.152-.045.228-.066.787-2.531.96-5.518.476-8.236Z" fill="#B0DCF7"/><path d="M79.645 67.017c.96.214 1.453.608 1.702.922.283.356.231.798.231.798s4.453 5.873 6.865 13.256l-1.802 2.348a.518.518 0 0 1-.486.197l-3-.453s-.814-6.706-1.383-9.157c-.57-2.452-1.595-5.573-1.595-5.573-.39-.249-.318-.498-.39-1.136-.066-.601-.142-1.202-.142-1.202Z" fill="#F94F46"/><path d="M80.146 69.541c-.045 0-.093-.003-.138-.007a.086.086 0 0 1-.076-.097c.007-.048.048-.082.096-.075h.004c.538.069 1.329-.353 1.622-.746a.087.087 0 0 1 .12-.018.087.087 0 0 1 .018.121c-.307.404-1.056.822-1.646.822Z" fill="#66B0F0"/><path d="M96.071 78.692c-.1.072-.204.141-.31.214-1.433.942-3.528 1.81-6.234 2.714-.276.093-.56.186-.85.28-.016.007-.034.01-.054.017l-.356.114c-.138.045-.28.09-.424.141a29.75 29.75 0 0 0-1.243.47c-.4.159-.814.335-1.239.515a.666.666 0 0 0-.048.02c-3.752 1.6-8.453 3.813-12.657 3.357-.034-.004-.072-.007-.107-.014-.066-.007-.128-.017-.193-.024a8.99 8.99 0 0 1-1.24-.263c.418-1.72 1.978-4.886 4.698-7.4.07-.02.138-.041.207-.058.007-.004.017-.004.024-.007 2.413-.68 5.474-.901 8.067-1.088a79.081 79.081 0 0 0 2.547-.207c.19-.02.37-.042.545-.062 1.457-.18 3.548-.805 4.611-1.454 1.16-.708 1.422-.425.815.356-1.35 1.74.77.645 2.73.034 1.595-.497.921.318.746.463.531-.249 1.384-.425.531.604.57-.318.687.38-.566 1.278Z" fill="#F4ADA2"/><path d="M76.049 78.768c-.694.704-3.069 3.97-3.503 7.752-.066-.007-.128-.017-.194-.024a8.985 8.985 0 0 1-1.239-.263c.421-1.72 1.981-4.886 4.701-7.4.07-.02.138-.041.207-.058.01-.004.017-.007.028-.007Z" fill="#9B3C82"/><path d="M89.527 81.62c1.474.304 9.029 2.324 13.285-2.714.994-.712 2.412-1.009 1.525-1.205-.317-.073-.814-.035-.814-.035s.39-.994.531-1.74c.142-.746-.176-.746-.711.107.142-.78 0-1.454-.78 0 .073-.853-.034-1.312-1.242.604.072-.604 0-.922-.96.356-.96 1.277-2.378 1.916-2.378 1.916h-2.237l-6.219 2.71Z" fill="#F4ADA2"/><path d="M95.753 78.91c-1.487.821-3.002 1.536-6.216 2.713.087.018.19.042.314.07 3.245-1.195 4.75-1.917 6.293-2.784h-.391Zm-2.13-.66c0 .048.039.086.087.086.01 0 .02-.004.028-.004.749-.269 1.846-.783 2.826-1.685a2.236 2.236 0 0 0-.455.16 8.407 8.407 0 0 1-2.43 1.363.083.083 0 0 0-.055.08Zm.498.815c0 .048.038.086.086.086.01 0 .02-.004.031-.007.846-.338 2.206-1.198 2.696-1.8v-.002c-.073-.021-.173 0-.3.072l.003-.003c-.531.528-1.643 1.246-2.464 1.574a.093.093 0 0 0-.052.08Zm2.872.649a.07.07 0 0 0-.01.038.085.085 0 0 0 .161.038c.004-.004.256-.487.84-.88h-.287c-.48.386-.694.787-.704.804Zm3.372-1.04c0 .049.038.087.086.087a.08.08 0 0 0 .069-.038c.034-.049.849-1.205 1.073-2.504-.082.125-.176.26-.272.415-.301 1.077-.936 1.982-.943 1.992a.126.126 0 0 0-.013.048Zm1.17.035a.085.085 0 0 0 .162.038c.38-.746.997-2.196 1.139-3.177-.079.12-.176.28-.273.463-.228.911-.704 2.013-1.018 2.635a.09.09 0 0 0-.01.04Zm.852 0c0 .048.038.086.086.086a.084.084 0 0 0 .076-.045c.47-.87.853-2.172 1.053-3.087a3.601 3.601 0 0 0-.259.366c0 .004-.003.021 0 0-.21.864-.538 1.89-.945 2.639a.092.092 0 0 0-.011.04Zm1.136-1.043a8.316 8.316 0 0 1-.718 1.247c.003-.004.003-.007.007-.007.114-.083.234-.16.359-.232.207-.328.386-.666.545-1.018-.104 0-.179.01-.193.01Z" fill="#9B3C82"/><path d="m87.88 82.507-1.283.131-.5.052-.636.066a16.99 16.99 0 0 0-.273-1.716c-.255-1.195-.631-2.376-1.08-3.36a79.1 79.1 0 0 0 2.547-.207c.349.898.629 1.816.843 2.755l.082.377a17.045 17.045 0 0 1 .242 1.415c.007.049.014.097.017.145.017.118.031.228.042.342Z" fill="#5B2448"/><path d="M87.234 83.139c1.082-.416 1.724-1.365 1.434-2.12-.29-.755-1.402-1.03-2.484-.614-1.082.416-1.724 1.365-1.434 2.12.29.755 1.402 1.03 2.484.614Z" fill="#5B2448"/><path d="M86.117 80.242c-.38.145-.708.352-.97.594l.041.197c.26-.256.594-.477.991-.629.442-.169.9-.231 1.319-.183l-.042-.176a2.962 2.962 0 0 0-1.34.197Zm1.125 2.918c1.05-.404 1.7-1.257 1.45-1.904-.248-.648-1.301-.847-2.351-.443-1.05.403-1.7 1.256-1.45 1.904.248.648 1.301.846 2.351.443Z" fill="#fff"/><path d="M86.831 82.207a.09.09 0 0 1-.082-.059l-.252-.739a.09.09 0 0 1 .055-.11.086.086 0 0 1 .107.051l.224.657 1.06-.387a.086.086 0 0 1 .11.051.086.086 0 0 1-.052.111l-1.142.418a.064.064 0 0 1-.028.007Z" fill="#5B2448"/></g><g clip-path="url(#g)"><path d="M102.812 67.208v8.389a5.057 5.057 0 0 0-.249.425c.072-.854-.035-1.314-1.244.605.069-.605 0-.923-.96.356-.96 1.28-2.38 1.92-2.38 1.92H95.75c.107-.07.21-.142.31-.215 1.255-.899 1.137-1.597.567-1.28.853-1.03 0-.853-.532-.605a.942.942 0 0 0 .132-.13c.217-.264.431-.737-.874-.33-.004 0-.007.004-.014.004a3.389 3.389 0 0 0-.173.055c-1.907.62-3.855 1.591-2.55-.093.605-.781.343-1.065-.815-.356a7.469 7.469 0 0 1-1.029.505c-.922.377-2.072.698-3.053.871V67.21l.02-.018h15.054l.018.017Z" fill="#FFCF2D"/><path d="M102.812 67.215v8.378a6.059 6.059 0 0 0-.249.426c.072-.855-.035-1.314-1.244.605.069-.605 0-.923-.96.356-.96 1.28-2.38 1.919-2.38 1.919H95.75c.107-.07.21-.142.31-.214 1.255-.9 1.137-1.598.567-1.28.853-1.03 0-.854-.532-.605a1.18 1.18 0 0 0 .132-.131c2.666-1.684 4.48-4.06 5.516-6.172.622-1.266.967-2.435 1.05-3.306l.018.024Z" fill="#FFBD11"/><path d="M95.354 67.19v.27l-.01 8.887a3.386 3.386 0 0 0-.173.055l.01-8.931v-.28h.173Z" fill="#9B3C82"/><path d="m95.392 67.208-3.123 3.873h-4.546v-3.447l7.669-.426Z" fill="#9B3C82"/><path d="M102.812 67.633v3.448h-4.546l-3.089-3.838 7.635.39Z" fill="#9B3C82"/><path d="m95.267 67.19-.027.029-.028.027-.017.017-.014.014-3.25 3.22h-7.528l3.32-3.289.017-.017h7.527Zm10.864 3.306h-7.527l-3.25-3.219-.01-.01-.015-.014-.038-.038-.024-.024h7.527l.018.017 3.319 3.288Z" fill="#FFCF2D"/></g><g clip-path="url(#h)"><path d="M91.117 65.15a.087.087 0 0 1-.083-.06c-.014-.044-1.433-4.412-2.73-7.001a.086.086 0 0 1 .104-.12c.022.007.04.022.05.042 1.303 2.601 2.727 6.981 2.74 7.025a.087.087 0 0 1-.011.078.086.086 0 0 1-.07.035Zm.64-2.166a.086.086 0 0 1-.083-.063c-.006-.022-.647-2.234-1.234-3.633a.086.086 0 0 1 .048-.11.087.087 0 0 1 .112.043c.59 1.41 1.234 3.63 1.24 3.653a.086.086 0 0 1-.083.11ZM95.2 64.63a.087.087 0 0 1-.087-.084c-.04-1.662-.34-3.407-.586-4.579a.085.085 0 0 1 .035-.089.085.085 0 0 1 .065-.013.086.086 0 0 1 .069.067c.247 1.179.55 2.935.59 4.61a.086.086 0 0 1-.084.088H95.2Zm3.637.164h-.003a.087.087 0 0 1-.084-.09c.072-1.903.515-5.173 1.318-7.853a.082.082 0 0 1 .042-.051.085.085 0 0 1 .065-.007.085.085 0 0 1 .052.042c.011.02.013.044.007.065-.798 2.666-1.239 5.918-1.31 7.811a.086.086 0 0 1-.087.083Zm1.487-1.511h-.006a.084.084 0 0 1-.033-.01.082.082 0 0 1-.043-.05.095.095 0 0 1-.005-.032c.105-1.491.486-3.64.869-4.89a.086.086 0 0 1 .043-.05.086.086 0 0 1 .123.101c-.38 1.24-.759 3.37-.862 4.85a.088.088 0 0 1-.027.058.087.087 0 0 1-.059.023Z" fill="#90C6F5"/></g><g clip-path="url(#i)"><path d="M96.071 78.692c-.1.072-.204.141-.31.214-1.433.942-3.528 1.81-6.234 2.714-.276.093-.56.186-.85.28-.016.007-.034.01-.054.017l-.356.114c-.138.045-.28.09-.424.141a29.75 29.75 0 0 0-1.243.47c-.4.159-.814.335-1.239.515a.666.666 0 0 0-.048.02c-3.752 1.6-8.453 3.813-12.657 3.357-.035-.004-.072-.007-.107-.014-.066-.007-.128-.017-.193-.024a8.99 8.99 0 0 1-1.24-.263c.418-1.72 1.978-4.886 4.698-7.4.07-.02.138-.041.207-.058.007-.004.017-.004.024-.007 2.413-.68 5.474-.901 8.067-1.088a79.058 79.058 0 0 0 2.547-.207c.19-.02.37-.042.545-.062 1.457-.18 3.548-.805 4.611-1.454 1.16-.708 1.422-.425.815.356-1.35 1.74.77.645 2.73.034 1.594-.497.921.318.746.463.531-.249 1.384-.425.531.604.57-.318.687.38-.566 1.278Z" fill="#F4ADA2"/><path d="M89.527 81.62c1.474.304 9.029 2.324 13.285-2.714.994-.712 2.412-1.009 1.525-1.205-.317-.073-.814-.035-.814-.035s.39-.994.531-1.74c.142-.746-.176-.746-.711.107.142-.78 0-1.454-.78 0 .073-.853-.034-1.312-1.242.604.072-.604 0-.922-.96.356-.96 1.277-2.378 1.916-2.378 1.916h-2.237l-6.22 2.71Z" fill="#F4ADA2"/><path d="M95.753 78.91c-1.487.821-3.002 1.536-6.216 2.714.087.017.19.041.314.069 3.245-1.195 4.75-1.917 6.292-2.784h-.39Zm-2.13-.66c0 .048.039.086.087.086.01 0 .02-.003.028-.003.749-.27 1.846-.784 2.826-1.685a2.23 2.23 0 0 0-.455.159 8.406 8.406 0 0 1-2.43 1.364.083.083 0 0 0-.055.079Zm.498.815c0 .048.038.086.086.086.01 0 .02-.003.031-.007.846-.338 2.206-1.198 2.696-1.799v-.003c-.073-.021-.173 0-.3.072l.003-.003c-.531.528-1.643 1.246-2.464 1.574a.093.093 0 0 0-.052.08Zm2.872.649a.07.07 0 0 0-.01.038.085.085 0 0 0 .161.038c.004-.004.256-.487.84-.88h-.287c-.48.386-.694.787-.704.804Zm3.372-1.04c0 .049.038.087.086.087a.08.08 0 0 0 .069-.038c.034-.048.849-1.205 1.073-2.504-.083.125-.176.26-.272.415-.301 1.077-.936 1.982-.943 1.992a.126.126 0 0 0-.013.049Zm1.17.035a.085.085 0 0 0 .162.038c.38-.746.997-2.196 1.139-3.177-.08.121-.176.28-.273.463-.228.912-.704 2.013-1.018 2.635a.09.09 0 0 0-.01.041Zm.852 0c0 .048.038.087.086.087a.084.084 0 0 0 .076-.045c.47-.87.853-2.172 1.053-3.088a3.604 3.604 0 0 0-.259.367c0 .003-.003.02 0 0-.21.863-.538 1.888-.945 2.638a.092.092 0 0 0-.011.041Zm1.136-1.043a8.322 8.322 0 0 1-.718 1.247c.003-.004.003-.007.007-.007.114-.083.234-.159.359-.231.207-.328.386-.667.545-1.019-.104 0-.179.01-.193.01Z" fill="#9B3C82"/></g></g><defs><clipPath id="d"><path fill="#fff" transform="translate(55.587 112.38)" d="M0 0h54.821v19.763H0z"/></clipPath><clipPath id="e"><path fill="#fff" transform="translate(84.365 50.934)" d="M0 0h20.688v7.782H0z"/></clipPath><clipPath id="f"><path fill="#fff" transform="translate(55.934 54.054)" d="M0 0h53.357v66.416H0z"/></clipPath><clipPath id="g"><path fill="#fff" transform="translate(84.403 67.19)" d="M0 0h21.728v11.711H0z"/></clipPath><clipPath id="h"><path fill="#fff" transform="translate(88.294 56.79)" d="M0 0h12.983v8.36H0z"/></clipPath><clipPath id="i"><path fill="#fff" transform="translate(93.53 75.972)" d="M0 0h2.08v1.117H0z"/></clipPath><linearGradient id="b" x1="96.5" y1="21" x2="96.5" y2="162" gradientUnits="userSpaceOnUse"><stop stop-color="#FFCF2D"/><stop offset=".286"/><stop offset=".51" stop-color="#FFCF2D"/><stop offset=".661"/><stop offset="1" stop-color="#FFCF2D"/></linearGradient><linearGradient id="c" x1="132.328" y1="48.738" x2="132.328" y2="109.607" gradientUnits="userSpaceOnUse"><stop stop-color="#F2B705"/><stop offset="1" stop-color="#F2B705" stop-opacity="0"/></linearGradient><filter id="a" x="0" y="0" width="193" height="193" filterUnits="userSpaceOnUse" color-interpolation-filters="sRGB"><feFlood flood-opacity="0" result="BackgroundImageFix"/><feColorMatrix in="SourceAlpha" values="0 0 0 0 0 0 0 0 0 0 0 0 0 0 0 0 0 0 127 0" result="hardAlpha"/><feOffset dy="5"/><feGaussianBlur stdDeviation="13"/><feColorMatrix values="0 0 0 0 0.12549 0 0 0 0 0.129412 0 0 0 0 0.141176 0 0 0 0.25 0"/><feBlend in2="BackgroundImageFix" result="effect1_dropShadow_220_11165"/><feBlend in="SourceGraphic" in2="effect1_dropShadow_220_11165" result="shape"/></filter></defs></svg>