<?xml version="1.0" encoding="UTF-8" standalone="no"?>
<!DOCTYPE svg PUBLIC "-//W3C//DTD SVG 1.1//EN"
 "http://www.w3.org/Graphics/SVG/1.1/DTD/svg11.dtd">
<!-- Generated by graphviz version 5.0.0 (20220707.1540)
 -->
<!-- Title: dependencies Pages: 1 -->
<svg width="467pt" height="174pt"
 viewBox="0.00 0.00 467.00 173.80" xmlns="http://www.w3.org/2000/svg" xmlns:xlink="http://www.w3.org/1999/xlink">
<g id="graph0" class="graph" transform="scale(1 1) rotate(0) translate(4 169.8)">
<title>dependencies</title>
<polygon fill="white" stroke="transparent" points="-4,4 -4,-169.8 463,-169.8 463,4 -4,4"/>
<text text-anchor="middle" x="229.5" y="-8.2" font-family="sans-serif" font-size="14.00">dependencies</text>
<g id="clust1" class="cluster">
<title>cluster_FacetsModule</title>
<polygon fill="none" stroke="black" stroke-dasharray="1,5" points="8,-32.8 8,-157.8 451,-157.8 451,-32.8 8,-32.8"/>
</g>
<g id="clust2" class="cluster">
<title>cluster_FacetsModule_declarations</title>
<polygon fill="none" stroke="black" points="309,-40.8 309,-92.8 443,-92.8 443,-40.8 309,-40.8"/>
</g>
<g id="clust4" class="cluster">
<title>cluster_FacetsModule_imports</title>
<polygon fill="none" stroke="black" points="16,-40.8 16,-92.8 301,-92.8 301,-40.8 16,-40.8"/>
</g>
<!-- FacetsComponent -->
<g id="node1" class="node">
<title>FacetsComponent</title>
<polygon fill="#ffffb3" stroke="black" points="434.6,-84.8 317.4,-84.8 317.4,-48.8 434.6,-48.8 434.6,-84.8"/>
<text text-anchor="middle" x="376" y="-62.6" font-family="Times,serif" font-size="14.00">FacetsComponent</text>
</g>
<!-- FacetsModule -->
<g id="node2" class="node">
<title>FacetsModule</title>
<polygon fill="#8dd3c7" stroke="black" points="270.82,-149.8 267.82,-153.8 246.82,-153.8 243.82,-149.8 175.18,-149.8 175.18,-113.8 270.82,-113.8 270.82,-149.8"/>
<text text-anchor="middle" x="223" y="-127.6" font-family="Times,serif" font-size="14.00">FacetsModule</text>
</g>
<!-- FacetsComponent&#45;&gt;FacetsModule -->
<g id="edge1" class="edge">
<title>FacetsComponent&#45;&gt;FacetsModule</title>
<path fill="none" stroke="black" d="M376,-84.91C376,-104.14 376,-131.8 376,-131.8 376,-131.8 280.99,-131.8 280.99,-131.8"/>
<polygon fill="black" stroke="black" points="280.99,-128.3 270.99,-131.8 280.99,-135.3 280.99,-128.3"/>
</g>
<!-- FacetsRoutingModule -->
<g id="node3" class="node">
<title>FacetsRoutingModule</title>
<polygon fill="#8dd3c7" stroke="black" points="293.44,-84.8 290.44,-88.8 269.44,-88.8 266.44,-84.8 152.56,-84.8 152.56,-48.8 293.44,-48.8 293.44,-84.8"/>
<text text-anchor="middle" x="223" y="-62.6" font-family="Times,serif" font-size="14.00">FacetsRoutingModule</text>
</g>
<!-- FacetsRoutingModule&#45;&gt;FacetsModule -->
<g id="edge2" class="edge">
<title>FacetsRoutingModule&#45;&gt;FacetsModule</title>
<path fill="none" stroke="black" d="M223,-84.91C223,-84.91 223,-103.79 223,-103.79"/>
<polygon fill="black" stroke="black" points="219.5,-103.79 223,-113.79 226.5,-103.79 219.5,-103.79"/>
</g>
<!-- KrModalModule -->
<g id="node4" class="node">
<title>KrModalModule</title>
<polygon fill="#8dd3c7" stroke="black" points="134.38,-84.8 131.38,-88.8 110.38,-88.8 107.38,-84.8 23.62,-84.8 23.62,-48.8 134.38,-48.8 134.38,-84.8"/>
<text text-anchor="middle" x="79" y="-62.6" font-family="Times,serif" font-size="14.00">KrModalModule</text>
</g>
<!-- KrModalModule&#45;&gt;FacetsModule -->
<g id="edge3" class="edge">
<title>KrModalModule&#45;&gt;FacetsModule</title>
<path fill="none" stroke="black" d="M79,-84.91C79,-104.14 79,-131.8 79,-131.8 79,-131.8 165.05,-131.8 165.05,-131.8"/>
<polygon fill="black" stroke="black" points="165.05,-135.3 175.05,-131.8 165.05,-128.3 165.05,-135.3"/>
</g>
</g>
</svg>
