<svg xmlns="http://www.w3.org/2000/svg" xmlns:xlink="http://www.w3.org/1999/xlink" width="130" height="32"><defs><path id="a" d="M65.668 30.56v-1.95h.837c.315 0 .594-.04.835-.122.241-.081.444-.195.607-.34.164-.146.288-.32.373-.52a1.7 1.7 0 0 0 .128-.666c0-.245-.04-.467-.119-.666a1.307 1.307 0 0 0-.358-.51 1.655 1.655 0 0 0-.606-.325 2.893 2.893 0 0 0-.86-.115h-1.539v5.214h.702zm.837-2.51h-.837v-2.147h.837c.417 0 .728.093.933.28.205.187.308.446.308.779 0 .16-.027.306-.08.44a.928.928 0 0 1-.239.344c-.105.095-.235.17-.39.223-.153.054-.33.08-.532.08zm4.038 2.56c.27 0 .512-.044.728-.132.216-.089.4-.215.553-.38.153-.165.27-.364.35-.597.082-.233.123-.495.123-.786 0-.288-.04-.55-.122-.784a1.67 1.67 0 0 0-.351-.598 1.55 1.55 0 0 0-.553-.382 1.878 1.878 0 0 0-.728-.135 1.9 1.9 0 0 0-.733.135 1.561 1.561 0 0 0-.905.98 2.362 2.362 0 0 0-.123.784c0 .291.041.553.122.786.081.233.199.432.351.597.153.165.338.291.555.38.217.088.462.133.733.133zm0-.505c-.368 0-.643-.122-.824-.366-.18-.243-.27-.584-.27-1.02 0-.218.022-.414.066-.588.045-.173.113-.32.204-.438a.894.894 0 0 1 .342-.273c.137-.063.298-.095.482-.095.364 0 .636.123.815.368.18.245.27.587.27 1.026 0 .436-.09.777-.27 1.02-.18.244-.451.366-.815.366zm3.806.455c.075 0 .123-.042.145-.124l.83-2.496a1.65 1.65 0 0 0 .047-.173l.036-.169.037.17c.012.056.028.113.047.169l.815 2.499c.024.082.068.124.13.124h.514l1.193-3.686h-.487a.19.19 0 0 0-.12.039.191.191 0 0 0-.07.096l-.72 2.372a8.985 8.985 0 0 0-.06.253 3.534 3.534 0 0 0-.045.242c-.02-.08-.04-.162-.062-.244a5.747 5.747 0 0 0-.073-.251l-.76-2.387a.19.19 0 0 0-.186-.127h-.284a.171.171 0 0 0-.11.036.193.193 0 0 0-.064.091l-.779 2.387a7.638 7.638 0 0 0-.074.251l-.068.244a6.63 6.63 0 0 0-.098-.495l-.706-2.372a.205.205 0 0 0-.07-.095.216.216 0 0 0-.13-.04h-.51l1.194 3.686h.488zm5.922.05a2.312 2.312 0 0 0 .799-.138c.127-.046.247-.105.358-.176.112-.072.208-.156.288-.253l-.182-.236a.142.142 0 0 0-.124-.062.286.286 0 0 0-.147.056 1.998 1.998 0 0 1-.517.244 1.378 1.378 0 0 1-.42.056 1.25 1.25 0 0 1-.473-.085.97.97 0 0 1-.364-.258 1.23 1.23 0 0 1-.238-.432 2.137 2.137 0 0 1-.097-.607h2.463c.061 0 .102-.017.124-.051.022-.034.033-.102.033-.204 0-.262-.039-.495-.117-.7a1.377 1.377 0 0 0-.809-.837 1.657 1.657 0 0 0-.613-.11c-.267 0-.507.046-.72.14a1.55 1.55 0 0 0-.542.385 1.686 1.686 0 0 0-.34.58c-.08.223-.119.463-.119.72 0 .318.044.6.131.844.087.245.21.451.366.617.156.166.342.292.556.378.215.087.45.13.704.13zm.92-2.295h-2.015c.044-.32.156-.57.337-.751.18-.18.426-.271.737-.271.147 0 .28.025.396.074.117.05.215.12.297.211.08.091.143.2.185.324.043.125.064.263.064.413zm2.027 2.245v-2.33c.046-.126.098-.238.155-.336.057-.098.121-.18.193-.248a.712.712 0 0 1 .243-.15 1.06 1.06 0 0 1 .533-.03.732.732 0 0 0 .15.022c.058 0 .094-.03.109-.09l.047-.485a.617.617 0 0 0-.191-.08.967.967 0 0 0-.224-.025.932.932 0 0 0-.622.213c-.17.142-.313.339-.43.59l-.043-.56c-.01-.065-.028-.111-.054-.138-.027-.026-.076-.04-.146-.04h-.371v3.686h.651zm3.394.05a2.303 2.303 0 0 0 .799-.138c.127-.046.247-.105.358-.176.112-.072.208-.156.288-.253l-.182-.236a.142.142 0 0 0-.124-.062.286.286 0 0 0-.147.056 1.998 1.998 0 0 1-.517.244 1.37 1.37 0 0 1-.42.056 1.25 1.25 0 0 1-.473-.085.97.97 0 0 1-.364-.258 1.23 1.23 0 0 1-.238-.432 2.104 2.104 0 0 1-.096-.607h2.463c.06 0 .101-.017.123-.051.022-.034.033-.102.033-.204a1.98 1.98 0 0 0-.116-.7 1.38 1.38 0 0 0-.81-.837 1.657 1.657 0 0 0-.613-.11c-.267 0-.507.046-.72.14a1.55 1.55 0 0 0-.542.385 1.686 1.686 0 0 0-.34.58c-.08.223-.119.463-.119.72 0 .318.044.6.131.844.088.245.21.451.366.617.156.166.342.292.557.378.214.087.449.13.703.13zm.92-2.295h-2.015c.044-.32.156-.57.337-.751.18-.18.426-.271.737-.271.148 0 .28.025.396.074.117.05.215.12.297.211.081.091.143.2.185.324.043.125.064.263.064.413zm2.57 2.296c.264 0 .497-.059.698-.175.201-.116.38-.27.538-.458l.059.447c.024.09.082.135.174.135h.386V25.2h-.648v2.042a1.425 1.425 0 0 0-.43-.319 1.36 1.36 0 0 0-.581-.114c-.248 0-.47.049-.668.147a1.46 1.46 0 0 0-.5.406c-.136.172-.24.375-.313.61a2.525 2.525 0 0 0-.109.758c0 .305.033.576.098.811.066.235.16.432.28.59.122.157.268.277.44.358.173.081.364.122.575.122zm.21-.524a.975.975 0 0 1-.396-.077.7.7 0 0 1-.295-.242 1.19 1.19 0 0 1-.182-.422 2.665 2.665 0 0 1-.062-.616c0-.454.093-.803.277-1.048.184-.245.447-.367.79-.367.174 0 .332.032.472.096.141.064.272.178.393.34v1.78c-.133.176-.28.313-.438.41a1.051 1.051 0 0 1-.559.146zm6.2.524a1.427 1.427 0 0 0 1.162-.548c.137-.173.242-.382.315-.627.072-.245.109-.517.109-.815 0-.28-.032-.53-.097-.753a1.676 1.676 0 0 0-.278-.57 1.204 1.204 0 0 0-.442-.358 1.334 1.334 0 0 0-.584-.124c-.254 0-.48.053-.675.16-.195.107-.37.25-.525.43V25.2h-.652v5.359h.419c.092 0 .148-.046.167-.139l.033-.334c.124.167.269.296.435.387.166.091.37.137.613.137zm-.157-.502c-.17 0-.325-.033-.467-.099a1.03 1.03 0 0 1-.391-.338v-1.783c.133-.177.278-.314.434-.41.157-.098.34-.146.552-.146.303 0 .536.106.7.318.164.212.245.544.245.995 0 .485-.092.85-.276 1.095-.184.245-.45.368-.797.368zm3.362 1.699c.068 0 .118-.015.15-.044a.347.347 0 0 0 .083-.117l2.055-4.773h-.513a.194.194 0 0 0-.118.039.207.207 0 0 0-.075.096l-.956 2.317c-.04.102-.076.21-.11.324a2.48 2.48 0 0 0-.098-.32l-.986-2.321a.217.217 0 0 0-.067-.093.198.198 0 0 0-.133-.042h-.56l1.52 3.471-.672 1.463h.48z"/><path id="b" d="M106.953 30.56v-2.314h.31c.113 0 .2.013.261.04.06.027.114.073.16.138l1.488 1.943c.039.063.087.11.144.144a.547.547 0 0 0 .26.049h.862l-1.826-2.463a.963.963 0 0 0-.184-.206.74.74 0 0 0-.216-.122.968.968 0 0 0 .323-.283l1.772-2.187h-.844a.602.602 0 0 0-.253.046.525.525 0 0 0-.19.161l-1.452 1.838a.402.402 0 0 1-.157.122.602.602 0 0 1-.229.038h-.23v-2.205h-.978v5.26h.979zm5.25.054c.276 0 .528-.045.755-.134.226-.09.42-.219.582-.386.16-.167.285-.37.372-.608.088-.237.131-.504.131-.8a2.31 2.31 0 0 0-.13-.797 1.699 1.699 0 0 0-.373-.604 1.684 1.684 0 0 0-.582-.382 2.033 2.033 0 0 0-.755-.134c-.28 0-.533.045-.76.134-.229.09-.423.218-.585.382-.16.165-.286.367-.374.604a2.263 2.263 0 0 0-.133.797c0 .296.044.563.133.8.088.238.213.44.374.608.162.167.356.296.584.386.228.09.482.134.76.134zm0-.691c-.316 0-.55-.105-.7-.315-.152-.21-.228-.514-.228-.915 0-.4.076-.706.227-.918.152-.212.385-.319.7-.319.311 0 .54.106.69.317.15.211.224.518.224.92 0 .403-.075.709-.224.917-.15.209-.379.313-.69.313zm3.427.637v-2.3c.04-.099.085-.188.132-.265a.849.849 0 0 1 .164-.198.66.66 0 0 1 .21-.126.747.747 0 0 1 .265-.044c.068 0 .138.006.21.019.07.012.125.018.161.018.039 0 .07-.01.093-.027a.187.187 0 0 0 .053-.093l.058-.673a.698.698 0 0 0-.415-.113.895.895 0 0 0-.568.19c-.16.128-.298.303-.414.527l-.055-.422c-.012-.085-.036-.144-.073-.177-.036-.033-.1-.049-.192-.049h-.528v3.733h.899zm3.343.054c.131 0 .266-.01.406-.029.14-.02.276-.053.41-.1.135-.047.265-.11.388-.19a1.49 1.49 0 0 0 .335-.292l-.258-.327c-.037-.056-.093-.084-.168-.084a.361.361 0 0 0-.173.05 5.271 5.271 0 0 1-.207.114c-.079.04-.17.079-.276.112a1.237 1.237 0 0 1-.377.051c-.145 0-.278-.022-.398-.067a.826.826 0 0 1-.311-.204.992.992 0 0 1-.211-.345 1.731 1.731 0 0 1-.102-.497h2.31c.082 0 .138-.023.167-.07.03-.048.044-.14.044-.275 0-.27-.04-.51-.122-.719a1.516 1.516 0 0 0-.336-.531 1.451 1.451 0 0 0-.513-.33 1.837 1.837 0 0 0-.652-.112c-.279 0-.529.048-.75.145-.223.097-.41.229-.565.395a1.713 1.713 0 0 0-.354.586 2.052 2.052 0 0 0-.124.718c0 .328.047.616.142.864.094.249.224.458.389.626.165.169.359.296.582.382.223.086.465.13.724.13zm.771-2.35h-1.695c.041-.272.136-.481.286-.63.149-.147.353-.221.613-.221.133 0 .25.022.35.067a.687.687 0 0 1 .25.184.794.794 0 0 1 .147.27c.033.104.05.214.05.33zm1.9 2.347a.55.55 0 0 0 .509-.33.53.53 0 0 0 .043-.216.543.543 0 0 0-.336-.506.539.539 0 0 0-.217-.043.55.55 0 0 0-.393.16.56.56 0 0 0-.114.605.527.527 0 0 0 .289.288c.068.028.14.042.218.042zm2.131.007c.134 0 .256-.012.366-.035a1.488 1.488 0 0 0 .591-.262c.09-.064.182-.138.277-.223l.08.269c.026.077.063.129.109.155a.415.415 0 0 0 .196.038h.408v-2.358c0-.21-.031-.405-.093-.582a1.232 1.232 0 0 0-.708-.755 1.521 1.521 0 0 0-.585-.107c-.604 0-1.12.196-1.55.59l.16.287a.42.42 0 0 0 .105.114c.044.033.097.05.16.05.073 0 .14-.018.199-.052.06-.033.125-.072.198-.114a1.097 1.097 0 0 1 .615-.165c.201 0 .355.06.462.18.107.12.16.304.16.554v.219a5.791 5.791 0 0 0-.757.063c-.22.035-.414.08-.58.137-.166.055-.306.12-.42.196a1.294 1.294 0 0 0-.279.24.82.82 0 0 0-.201.55c0 .167.026.314.08.44a.852.852 0 0 0 .225.316.948.948 0 0 0 .346.191c.133.043.279.064.436.064zm.277-.619a.617.617 0 0 1-.366-.101c-.093-.068-.14-.181-.14-.339 0-.08.023-.154.07-.222a.552.552 0 0 1 .228-.178c.107-.05.249-.093.426-.125.177-.033.395-.056.655-.068v.63c-.129.135-.26.237-.395.303a1.06 1.06 0 0 1-.478.1zm3.067-3.696a.597.597 0 0 0 .534-.345.535.535 0 0 0 0-.444.584.584 0 0 0-.534-.35.545.545 0 0 0-.22.046.554.554 0 0 0-.302.304.566.566 0 0 0 .521.789zm.458 4.257v-3.733h-.902v3.733h.902z"/></defs><g fill="none"><path fill="#F9F9F9" d="M42.978 21.634c1.034 0 1.975-.165 2.823-.494a6.237 6.237 0 0 0 2.173-1.397 6.112 6.112 0 0 0 1.387-2.174c.324-.847.485-1.794.485-2.842 0-.944-.145-1.834-.436-2.668a6.161 6.161 0 0 0-1.3-2.183c-.576-.62-1.29-1.112-2.144-1.475-.854-.362-1.85-.543-2.988-.543h-5.142v13.776h5.142zm0-2.794h-1.96v-8.188h1.96c.569 0 1.08.097 1.532.291.453.194.835.472 1.145.835.31.362.547.792.708 1.29.162.498.243 1.05.243 1.659 0 .595-.08 1.141-.243 1.64-.161.497-.394.93-.698 1.3a3.144 3.144 0 0 1-1.135.863c-.453.207-.97.31-1.552.31zm13.853 2.988c1.177 0 2.186-.252 3.027-.756.841-.505 1.462-1.158 1.863-1.96l-2.639-.737c-.142.375-.424.672-.844.892-.42.22-.857.33-1.31.33a2.376 2.376 0 0 1-1.523-.534c-.446-.355-.695-.876-.747-1.562h7.529a3.94 3.94 0 0 0 .058-.455c.013-.175.02-.353.02-.534 0-.699-.12-1.365-.36-1.999a4.92 4.92 0 0 0-1.057-1.678 5.065 5.065 0 0 0-1.708-1.154c-.672-.285-1.442-.427-2.309-.427-.866 0-1.64.142-2.318.427a4.951 4.951 0 0 0-1.717 1.164 5.055 5.055 0 0 0-1.068 1.717 5.888 5.888 0 0 0-.368 2.086c0 .685.123 1.342.368 1.97.246.627.605 1.18 1.077 1.658a5.105 5.105 0 0 0 1.727 1.135c.68.278 1.446.417 2.3.417zm2.154-6.247H54.6c.065-.634.294-1.142.689-1.524.394-.381.896-.572 1.504-.572.595 0 1.093.188 1.494.563.4.375.633.886.698 1.533zm14.669 6.209c.31 0 .624-.026.94-.078a9.83 9.83 0 0 0 .855-.175c.252-.064.459-.126.62-.184.162-.058.25-.094.262-.107l-.388-2.503a.666.666 0 0 0-.136.049c-.077.032-.17.064-.28.097-.11.032-.227.064-.35.097a1.427 1.427 0 0 1-.36.048c-.322 0-.552-.126-.688-.378a1.564 1.564 0 0 1-.204-.747v-6.52c0-.62-.09-1.183-.271-1.688a3.32 3.32 0 0 0-.844-1.3c-.382-.362-.867-.64-1.456-.834-.588-.194-1.283-.29-2.085-.29-.686 0-1.31.08-1.873.242a3.962 3.962 0 0 0-1.436.727 3.222 3.222 0 0 0-.911 1.213c-.214.485-.32 1.051-.32 1.698v1.125h-1.3v2.348h1.3v7.004h3.104V14.63h1.533v-2.348h-1.533v-.446c.013-.57.132-1.035.359-1.397.226-.362.624-.543 1.193-.543.595 0 .983.19 1.164.572.181.382.272.89.272 1.523V19.5a2.075 2.075 0 0 0 .757 1.61c.245.207.543.372.892.495.35.123.744.185 1.184.185zm9.06.038c1.178 0 2.187-.252 3.028-.756.84-.505 1.461-1.158 1.862-1.96l-2.638-.737c-.143.375-.424.672-.844.892-.42.22-.857.33-1.31.33-.57 0-1.077-.178-1.523-.534-.446-.355-.695-.876-.747-1.562h7.528c.026-.129.045-.28.058-.455.013-.175.02-.353.02-.534 0-.699-.12-1.365-.36-1.999a4.874 4.874 0 0 0-1.057-1.678 5.051 5.051 0 0 0-1.707-1.154c-.673-.285-1.442-.427-2.31-.427-.866 0-1.639.142-2.318.427a4.97 4.97 0 0 0-1.717 1.164c-.466.491-.821 1.064-1.067 1.717s-.369 1.348-.369 2.086c0 .685.123 1.342.369 1.97.246.627.605 1.18 1.077 1.658.472.479 1.048.857 1.727 1.135s1.445.417 2.299.417zm2.155-6.247h-4.385c.064-.634.294-1.142.688-1.524.395-.381.896-.572 1.504-.572.595 0 1.093.188 1.494.563.401.375.634.886.699 1.533zm10.05 6.247c1.178 0 2.177-.252 2.998-.756.822-.505 1.42-1.152 1.795-1.94l-3.027-.932a1.8 1.8 0 0 1-.718.728 2.093 2.093 0 0 1-1.067.281c-.31 0-.605-.065-.883-.194-.278-.13-.52-.31-.727-.543a2.516 2.516 0 0 1-.486-.844 3.291 3.291 0 0 1-.174-1.097c0-.802.217-1.442.65-1.92a2.09 2.09 0 0 1 1.62-.718c.776 0 1.365.323 1.766.97l3.027-.912c-.401-.802-1.003-1.452-1.805-1.95s-1.791-.747-2.969-.747c-.866 0-1.64.142-2.318.427a5.026 5.026 0 0 0-1.717 1.154 4.998 4.998 0 0 0-1.068 1.688 5.572 5.572 0 0 0-.368 2.008c0 .699.123 1.368.368 2.009a4.93 4.93 0 0 0 1.077 1.688 5.277 5.277 0 0 0 1.727 1.164c.68.29 1.446.436 2.3.436zm10.148 0c.556 0 1.11-.077 1.66-.232a12.584 12.584 0 0 0 1.464-.505l-.601-2.464c-.182.09-.395.174-.64.252a2.379 2.379 0 0 1-.719.117.93.93 0 0 1-.64-.224c-.168-.148-.252-.39-.252-.727v-4.25h2.076v-2.347h-2.076v-3.24h-3.105v3.24h-1.3v2.348h1.3v5.316c0 .491.075.912.223 1.261.15.35.353.63.612.844.258.214.56.369.902.466.343.097.708.145 1.096.145zm7.334-.194v-3.162h-2.541v3.162h2.541zm5.492.194c.698 0 1.361-.155 1.988-.465a4.628 4.628 0 0 0 1.62-1.34l.059.467c.077.413.265.734.562.96.298.226.738.34 1.32.34.18 0 .381-.01.601-.03.22-.019.466-.061.738-.126v-2.62c-.246-.025-.418-.1-.515-.222-.097-.123-.145-.34-.145-.65v-2.62c0-1.397-.42-2.457-1.261-3.182-.841-.724-2.031-1.086-3.57-1.086-.815 0-1.585.11-2.31.33-.724.22-1.422.55-2.095.99l.912 1.94a7.64 7.64 0 0 1 1.591-.845 4.543 4.543 0 0 1 1.591-.28c1.358 0 2.037.588 2.037 1.765v.465a4.071 4.071 0 0 0-1.047-.32 7.21 7.21 0 0 0-1.242-.106c-.647 0-1.235.084-1.766.252-.53.168-.99.4-1.377.698-.388.298-.69.654-.903 1.067a2.97 2.97 0 0 0-.32 1.378c0 .466.09.896.272 1.29.18.395.427.738.737 1.029.31.29.682.517 1.116.679.433.162.902.242 1.407.242zm.911-2.231c-.44 0-.802-.12-1.086-.359a1.15 1.15 0 0 1-.427-.922c0-.414.184-.75.553-1.009.369-.258.838-.388 1.407-.388.271 0 .566.03.883.088.316.058.61.139.882.242v.97c0 .26-.148.505-.446.738a2.276 2.276 0 0 1-.786.465 2.805 2.805 0 0 1-.98.175zm11.157-9.313V7.47h-3.104v2.814h3.104zm0 11.35V11.448h-3.104v10.186h3.104z"/><use fill="#000" xlink:href="#a"/><use fill="#F9F9F9" xlink:href="#a"/><use fill="#000" xlink:href="#b"/><use fill="#F9F9F9" xlink:href="#b"/><circle cx="14.552" cy="14.552" r="14.552" fill="#009DAB"/><path fill="#F9F9F9" d="M14.65 6.712 6.76 14.6l7.89 7.889 7.888-7.89-7.889-7.888zm0 4.116 3.772 3.773-3.773 3.773-3.773-3.773 3.773-3.773z"/></g></svg>