<svg width="152" height="30" fill="none" xmlns="http://www.w3.org/2000/svg"><path d="M39.454 4.563h2.028c-.04-1.966-1.715-3.358-4.193-3.358-2.443 0-4.278 1.375-4.273 3.431 0 1.67 1.188 2.631 3.103 3.125l1.324.341c1.255.318 2.085.71 2.09 1.614-.005.994-.948 1.659-2.323 1.659-1.319 0-2.341-.59-2.426-1.813H32.71c.085 2.313 1.806 3.614 4.517 3.614 2.79 0 4.409-1.392 4.415-3.443-.006-2.017-1.67-2.938-3.42-3.352l-1.092-.273c-.954-.227-1.989-.63-1.977-1.602.006-.875.79-1.517 2.108-1.517 1.255 0 2.085.585 2.193 1.574Zm7.84 8.608c2.034 0 3.431-.995 3.795-2.512l-1.92-.216c-.279.739-.96 1.125-1.847 1.125-1.33 0-2.21-.875-2.227-2.37h6.08v-.63c0-3.062-1.842-4.409-3.99-4.409-2.5 0-4.13 1.835-4.13 4.529 0 2.738 1.608 4.482 4.239 4.482ZM45.1 7.813c.063-1.114.887-2.052 2.114-2.052 1.182 0 1.977.864 1.989 2.051H45.1Zm10.326 5.363c1.369 0 2.187-.642 2.562-1.375h.068V13h1.978V7.16c0-2.308-1.881-3-3.546-3-1.835 0-3.244.817-3.699 2.408l1.92.273c.205-.597.785-1.108 1.79-1.108.955 0 1.478.489 1.478 1.347v.034c0 .59-.62.619-2.16.784-1.693.182-3.312.687-3.312 2.653 0 1.716 1.256 2.625 2.92 2.625Zm.534-1.511c-.858 0-1.472-.392-1.472-1.148 0-.79.688-1.12 1.608-1.25.54-.074 1.62-.21 1.886-.426v1.028c0 .972-.784 1.796-2.022 1.796ZM62.102 13h2.057V7.87c0-1.109.835-1.893 1.965-1.893.347 0 .779.063.955.12V4.205a4.938 4.938 0 0 0-.739-.057c-1 0-1.835.568-2.153 1.58h-.09V4.272h-1.995V13Zm9.79.17c2.194 0 3.592-1.3 3.74-3.153h-1.966c-.176.938-.853 1.477-1.756 1.477-1.284 0-2.114-1.073-2.114-2.858 0-1.761.847-2.818 2.114-2.818.989 0 1.597.637 1.756 1.477h1.966c-.142-1.892-1.62-3.136-3.75-3.136-2.557 0-4.17 1.847-4.17 4.511 0 2.643 1.573 4.5 4.18 4.5Zm7.485-5.284c0-1.261.784-1.988 1.887-1.988 1.08 0 1.716.687 1.716 1.863V13h2.056V7.443c0-2.108-1.193-3.284-3.005-3.284-1.341 0-2.194.608-2.597 1.597h-.102V1.364H77.32V13h2.056V7.886ZM88.718 13l.96-2.87h4.375L95.02 13h2.25L93.167 1.364h-2.602L86.468 13h2.25Zm1.529-4.563L91.82 3.75h.091l1.574 4.688h-3.238Zm15.221-1.857c-.284-1.478-1.466-2.42-3.511-2.42-2.102 0-3.534 1.033-3.529 2.647-.005 1.273.779 2.113 2.455 2.46l1.489.313c.801.176 1.176.5 1.176.994 0 .597-.648 1.045-1.625 1.045-.943 0-1.557-.409-1.733-1.193l-2.006.193c.256 1.603 1.602 2.552 3.744 2.552 2.182 0 3.722-1.131 3.728-2.785-.006-1.244-.807-2.005-2.455-2.363l-1.488-.318c-.887-.2-1.239-.506-1.233-1.012-.006-.59.647-1 1.505-1 .949 0 1.449.517 1.608 1.091l1.875-.204Zm8.781 0c-.284-1.478-1.465-2.42-3.511-2.42-2.102 0-3.534 1.033-3.528 2.647-.006 1.273.778 2.113 2.454 2.46l1.489.313c.801.176 1.176.5 1.176.994 0 .597-.648 1.045-1.625 1.045-.943 0-1.557-.409-1.733-1.193l-2.006.193c.256 1.603 1.603 2.552 3.745 2.552 2.182 0 3.721-1.131 3.727-2.785-.006-1.244-.807-2.005-2.455-2.363l-1.488-.318c-.887-.2-1.239-.506-1.233-1.012-.006-.59.648-1 1.506-1 .948 0 1.448.517 1.607 1.091l1.875-.204Zm1.884 6.42h2.057V4.273h-2.057V13Zm1.034-9.966c.653 0 1.188-.5 1.188-1.114 0-.619-.535-1.119-1.188-1.119-.659 0-1.193.5-1.193 1.12 0 .613.534 1.113 1.193 1.113Zm10.036 3.546c-.284-1.478-1.466-2.42-3.512-2.42-2.102 0-3.534 1.033-3.528 2.647-.006 1.273.778 2.113 2.454 2.46l1.489.313c.801.176 1.176.5 1.176.994 0 .597-.648 1.045-1.625 1.045-.943 0-1.557-.409-1.733-1.193l-2.005.193c.255 1.603 1.602 2.552 3.744 2.552 2.182 0 3.721-1.131 3.727-2.785-.006-1.244-.807-2.005-2.454-2.363l-1.489-.318c-.886-.2-1.239-.506-1.233-1.012-.006-.59.648-1 1.506-1 .949 0 1.449.517 1.608 1.091l1.875-.204Zm6.241-2.307h-1.722V2.182h-2.056v2.09h-1.239v1.592h1.239v4.852c-.012 1.642 1.181 2.449 2.727 2.403a4.13 4.13 0 0 0 1.21-.204l-.346-1.608a2.59 2.59 0 0 1-.603.08c-.517 0-.932-.183-.932-1.012V5.864h1.722V4.273Zm2.868 8.818c.562 0 1.023-.46 1.023-1.023 0-.562-.461-1.022-1.023-1.022-.563 0-1.023.46-1.023 1.022 0 .563.46 1.023 1.023 1.023Zm5.997.114c1.523 0 2.318-.819 2.591-1.387h.068V13h1.341V7.25c0-2.773-2.114-3.09-3.227-3.09-1.318 0-2.818.454-3.5 2.045l1.273.454c.295-.636.994-1.318 2.272-1.318 1.233 0 1.841.653 1.841 1.773v.045c0 .648-.659.591-2.25.796-1.619.21-3.386.568-3.386 2.568 0 1.704 1.318 2.681 2.977 2.681Zm.205-1.205c-1.069 0-1.841-.477-1.841-1.41 0-1.022.932-1.34 1.977-1.476.568-.069 2.091-.228 2.318-.5V9.84c0 1.09-.863 2.159-2.454 2.159Zm6.243 1h1.34V4.273h-1.34V13Zm.681-10.182c.523 0 .955-.409.955-.909S149.961 1 149.438 1c-.522 0-.954.41-.954.91s.432.908.954.908Z" fill="#202124"/><path d="M32.863 27v-7.273h.838v2.685h.071a7.74 7.74 0 0 1 .256-.362c.111-.15.27-.282.476-.398.208-.118.49-.178.845-.178.46 0 .864.115 1.214.345.35.23.624.555.82.977.197.42.295.918.295 1.49 0 .579-.098 1.08-.294 1.503a2.325 2.325 0 0 1-.817.98c-.348.23-.75.345-1.204.345-.35 0-.63-.058-.841-.174a1.559 1.559 0 0 1-.487-.402 5.339 5.339 0 0 1-.263-.376h-.1V27h-.809Zm.824-2.727c0 .412.06.775.181 1.09.12.312.297.558.53.735.231.175.515.263.851.263.35 0 .643-.093.878-.277.236-.187.414-.438.532-.753.121-.317.181-.67.181-1.058 0-.384-.059-.73-.177-1.037a1.603 1.603 0 0 0-.53-.735c-.234-.183-.528-.274-.884-.274-.34 0-.627.087-.859.26-.232.17-.407.41-.526.717a2.95 2.95 0 0 0-.177 1.069Zm5.618 4.758a1.834 1.834 0 0 1-.61-.1l.212-.738c.306.078.56.076.764-.007.203-.08.38-.324.529-.732l.156-.426-2.017-5.482h.909l1.506 4.346h.056l1.506-4.346.916.014-2.322 6.236a2.331 2.331 0 0 1-.387.688 1.466 1.466 0 0 1-.536.412c-.202.09-.429.135-.682.135ZM47.019 27v-7.273h1.538v3.207h.095l2.617-3.207h1.844l-2.7 3.257L53.146 27h-1.84l-1.992-2.99-.757.923V27H47.02Zm8.93.107c-.552 0-1.029-.118-1.431-.352a2.406 2.406 0 0 1-.927-.987c-.218-.424-.327-.915-.327-1.474 0-.563.11-1.056.327-1.477.218-.424.527-.753.927-.988.402-.236.88-.355 1.431-.355.552 0 1.028.119 1.428.355.402.235.712.564.93.988.218.421.327.914.327 1.477 0 .559-.11 1.05-.327 1.474-.218.421-.528.75-.93.987-.4.234-.876.352-1.428.352Zm.007-1.172a.94.94 0 0 0 .629-.213c.168-.145.294-.341.38-.59.087-.248.131-.531.131-.849 0-.317-.044-.6-.131-.848a1.322 1.322 0 0 0-.38-.59.93.93 0 0 0-.629-.216.963.963 0 0 0-.64.216c-.17.145-.299.341-.386.59a2.607 2.607 0 0 0-.128.848c0 .318.043.6.128.85.087.248.217.444.387.589a.974.974 0 0 0 .64.213ZM59.617 27v-5.454h1.467v.951h.057c.1-.338.266-.594.5-.767a1.32 1.32 0 0 1 .81-.263 2.307 2.307 0 0 1 .476.054v1.342a2.644 2.644 0 0 0-.64-.082c-.222 0-.42.049-.596.146a1.072 1.072 0 0 0-.56.987V27h-1.514Zm6.324.107c-.561 0-1.044-.114-1.449-.341a2.335 2.335 0 0 1-.93-.973c-.218-.422-.327-.92-.327-1.495 0-.561.109-1.054.327-1.478.218-.424.524-.754.92-.99.397-.237.864-.356 1.399-.356.36 0 .695.058 1.005.174a2.244 2.244 0 0 1 1.363 1.382c.13.345.196.75.196 1.214v.416h-4.606v-.938h3.182c0-.218-.048-.41-.142-.579a1.017 1.017 0 0 0-.395-.394 1.124 1.124 0 0 0-.578-.145c-.23 0-.434.053-.611.16a1.12 1.12 0 0 0-.412.422c-.1.175-.15.37-.153.586v.891c0 .27.05.503.15.7.101.196.244.348.429.454.185.107.404.16.657.16.168 0 .322-.023.462-.07a.926.926 0 0 0 .586-.561l1.399.091a1.91 1.91 0 0 1-.437.881c-.218.249-.5.443-.845.583-.344.137-.74.206-1.19.206Zm4.375-.015a.83.83 0 0 1-.604-.248.83.83 0 0 1-.248-.604c0-.232.083-.43.248-.596a.83.83 0 0 1 .604-.25c.227 0 .426.084.597.25.17.165.255.364.255.596 0 .156-.04.3-.12.43a.917.917 0 0 1-.31.309.813.813 0 0 1-.422.113Zm3.65.011c-.348 0-.658-.06-.93-.181a1.498 1.498 0 0 1-.647-.543c-.156-.242-.234-.543-.234-.902 0-.303.055-.558.167-.764a1.35 1.35 0 0 1 .454-.497c.192-.126.41-.22.654-.284.246-.064.504-.11.774-.135.317-.033.573-.064.767-.093.194-.03.335-.075.422-.134a.297.297 0 0 0 .132-.263v-.021c0-.225-.071-.4-.213-.523-.14-.123-.339-.184-.597-.184-.272 0-.489.06-.65.18a.833.833 0 0 0-.32.448l-1.399-.113c.071-.332.211-.618.42-.86.208-.244.477-.43.806-.56a3.082 3.082 0 0 1 1.15-.2c.303 0 .593.036.87.107.28.071.527.181.742.33.218.15.39.341.515.575.126.232.188.51.188.835V27h-1.434v-.756h-.043a1.54 1.54 0 0 1-.351.45 1.626 1.626 0 0 1-.53.302 2.185 2.185 0 0 1-.713.107Zm.433-1.044c.222 0 .419-.044.59-.131.17-.09.304-.211.4-.363a.933.933 0 0 0 .146-.515v-.578a.806.806 0 0 1-.195.085c-.08.024-.172.046-.273.067a14.14 14.14 0 0 1-.306.054l-.277.039a1.875 1.875 0 0 0-.465.124.744.744 0 0 0-.309.23.563.563 0 0 0-.11.356c0 .206.075.363.224.472.151.107.343.16.575.16Zm3.812.941v-5.454h1.513V27H78.21Zm.764-6.158a.822.822 0 0 1-.58-.223.72.72 0 0 1-.24-.544c0-.208.08-.387.24-.536a.81.81 0 0 1 .576-.227c.227 0 .42.075.579.227a.71.71 0 0 1 .241.536.72.72 0 0 1-.241.544.81.81 0 0 1-.575.223Z" fill="#9AA0A6"/><path d="m4.405 18.635 1.943 1.943-4.325 4.325a.275.275 0 0 1-.389 0L.08 23.35a.275.275 0 0 1 0-.389l4.325-4.325Z" fill="#202124"/><circle r="8.793" transform="matrix(-1 0 0 1 13.189 11.793)" fill="#FFDA2D"/></svg>