<svg width="141" height="30" fill="none" xmlns="http://www.w3.org/2000/svg"><path d="M39.472 4.563H41.5c-.04-1.966-1.716-3.358-4.193-3.358-2.443 0-4.279 1.375-4.273 3.431 0 1.67 1.188 2.631 3.102 3.125l1.324.341c1.256.318 2.085.71 2.091 1.614-.006.994-.949 1.659-2.324 1.659-1.318 0-2.34-.59-2.426-1.813h-2.074c.086 2.313 1.807 3.614 4.517 3.614 2.79 0 4.41-1.392 4.415-3.443-.006-2.017-1.67-2.938-3.42-3.352l-1.091-.273c-.955-.227-1.989-.63-1.978-1.602.006-.875.79-1.517 2.108-1.517 1.256 0 2.086.585 2.194 1.574Zm7.84 8.608c2.033 0 3.43-.995 3.794-2.512l-1.92-.216c-.278.739-.96 1.125-1.846 1.125-1.33 0-2.21-.875-2.228-2.37h6.08v-.63c0-3.062-1.841-4.409-3.989-4.409-2.5 0-4.13 1.835-4.13 4.529 0 2.738 1.607 4.482 4.238 4.482Zm-2.194-5.358c.062-1.114.886-2.052 2.113-2.052 1.182 0 1.978.864 1.99 2.051h-4.103Zm10.325 5.363c1.37 0 2.188-.642 2.563-1.375h.068V13h1.977V7.16c0-2.308-1.88-3-3.545-3-1.836 0-3.245.817-3.7 2.408l1.921.273c.205-.597.784-1.108 1.79-1.108.955 0 1.477.489 1.477 1.347v.034c0 .59-.619.619-2.159.784-1.693.182-3.312.687-3.312 2.653 0 1.716 1.255 2.625 2.92 2.625Zm.534-1.511c-.858 0-1.471-.392-1.471-1.148 0-.79.687-1.12 1.608-1.25.54-.074 1.619-.21 1.886-.426v1.028c0 .972-.784 1.796-2.023 1.796ZM62.12 13h2.057V7.87c0-1.109.835-1.893 1.966-1.893.347 0 .779.063.955.12V4.205a4.938 4.938 0 0 0-.739-.057c-1 0-1.835.568-2.154 1.58h-.09V4.272H62.12V13Zm9.791.17c2.194 0 3.591-1.3 3.74-3.153h-1.967c-.176.938-.852 1.477-1.755 1.477-1.284 0-2.114-1.073-2.114-2.858 0-1.761.847-2.818 2.114-2.818.988 0 1.596.637 1.755 1.477h1.966c-.142-1.892-1.62-3.136-3.75-3.136-2.557 0-4.17 1.847-4.17 4.511 0 2.643 1.574 4.5 4.181 4.5Zm7.485-5.284c0-1.261.784-1.988 1.886-1.988 1.08 0 1.716.687 1.716 1.863V13h2.057V7.443c0-2.108-1.193-3.284-3.006-3.284-1.34 0-2.193.608-2.596 1.597h-.103V1.364h-2.01V13h2.056V7.886ZM88.735 13l.961-2.87h4.375l.966 2.87h2.25L93.185 1.364h-2.603L86.486 13h2.25Zm1.53-4.563 1.573-4.687h.091l1.574 4.688h-3.239Zm15.221-1.857c-.284-1.478-1.466-2.42-3.512-2.42-2.102 0-3.534 1.033-3.528 2.647-.006 1.273.778 2.113 2.455 2.46l1.488.313c.801.176 1.176.5 1.176.994 0 .597-.647 1.045-1.625 1.045-.943 0-1.556-.409-1.733-1.193l-2.005.193c.255 1.603 1.602 2.552 3.744 2.552 2.182 0 3.722-1.131 3.727-2.785-.005-1.244-.807-2.005-2.454-2.363l-1.489-.318c-.886-.2-1.239-.506-1.233-1.012-.006-.59.648-1 1.506-1 .949 0 1.449.517 1.608 1.091l1.875-.204Zm8.781 0c-.284-1.478-1.466-2.42-3.511-2.42-2.103 0-3.534 1.033-3.529 2.647-.005 1.273.779 2.113 2.455 2.46l1.488.313c.802.176 1.177.5 1.177.994 0 .597-.648 1.045-1.625 1.045-.944 0-1.557-.409-1.733-1.193l-2.006.193c.256 1.603 1.602 2.552 3.744 2.552 2.182 0 3.722-1.131 3.728-2.785-.006-1.244-.807-2.005-2.455-2.363l-1.489-.318c-.886-.2-1.238-.506-1.233-1.012-.005-.59.648-1 1.506-1 .949 0 1.449.517 1.608 1.091l1.875-.204Zm1.884 6.42h2.056V4.273h-2.056V13Zm1.034-9.966c.653 0 1.187-.5 1.187-1.114 0-.619-.534-1.119-1.187-1.119-.659 0-1.194.5-1.194 1.12 0 .613.535 1.113 1.194 1.113ZM127.22 6.58c-.284-1.478-1.466-2.42-3.511-2.42-2.102 0-3.534 1.033-3.529 2.647-.005 1.273.779 2.113 2.455 2.46l1.489.313c.801.176 1.176.5 1.176.994 0 .597-.648 1.045-1.625 1.045-.943 0-1.557-.409-1.733-1.193l-2.006.193c.256 1.603 1.602 2.552 3.744 2.552 2.182 0 3.722-1.131 3.728-2.785-.006-1.244-.807-2.005-2.455-2.363l-1.489-.318c-.886-.2-1.238-.506-1.232-1.012-.006-.59.647-1 1.505-1 .949 0 1.449.517 1.608 1.091l1.875-.204Zm6.242-2.307h-1.722V2.182h-2.057v2.09h-1.238v1.592h1.238v4.852c-.011 1.642 1.182 2.449 2.728 2.403.585-.017.988-.13 1.21-.204l-.347-1.608c-.113.028-.346.08-.602.08-.517 0-.932-.183-.932-1.012V5.864h1.722V4.273Z" fill="#202124"/><path d="M32.863 27h.81v-.838h.1c.184.298.539.952 1.59.952 1.364 0 2.315-1.094 2.315-2.827 0-1.719-.951-2.813-2.33-2.813-1.064 0-1.391.654-1.576.938h-.07v-2.685h-.839V27Zm.824-2.727c0-1.222.54-2.046 1.563-2.046 1.065 0 1.59.895 1.59 2.046 0 1.165-.54 2.088-1.59 2.088-1.01 0-1.563-.852-1.563-2.088Zm5.618 4.773c.756 0 1.289-.402 1.605-1.25l2.322-6.236-.916-.014-1.506 4.346h-.056l-1.506-4.346h-.909l2.017 5.482-.156.427c-.306.83-.682.909-1.293.752l-.213.739c.085.043.327.1.61.1ZM47.019 27h1.538v-2.067l.756-.923L51.305 27h1.84l-2.731-4.016 2.699-3.257H51.27l-2.618 3.207h-.096v-3.207H47.02V27Zm8.93.107c1.655 0 2.685-1.133 2.685-2.813 0-1.69-1.03-2.82-2.685-2.82s-2.685 1.13-2.685 2.82c0 1.68 1.03 2.813 2.685 2.813Zm.007-1.172c-.763 0-1.154-.7-1.154-1.652 0-.951.39-1.654 1.154-1.654.75 0 1.14.703 1.14 1.654 0 .952-.39 1.652-1.14 1.652ZM59.617 27h1.513v-3.086c0-.671.49-1.133 1.158-1.133.21 0 .497.036.639.082V21.52a2.267 2.267 0 0 0-.476-.054c-.61 0-1.111.355-1.31 1.03h-.057v-.951h-1.467V27Zm6.324.107c1.35 0 2.259-.657 2.472-1.67l-1.4-.092c-.152.416-.543.632-1.047.632-.756 0-1.236-.5-1.236-1.314v-.003h3.715v-.416c0-1.853-1.123-2.77-2.564-2.77-1.605 0-2.646 1.14-2.646 2.824 0 1.729 1.026 2.809 2.706 2.809Zm-1.21-3.385c.031-.621.503-1.118 1.175-1.118.656 0 1.111.468 1.115 1.118h-2.29Zm5.585 3.37c.455 0 .849-.38.852-.852a.863.863 0 0 0-.852-.845.849.849 0 1 0 0 1.697Zm3.65.011c.806 0 1.328-.352 1.594-.86h.043V27h1.434v-3.679c0-1.3-1.1-1.847-2.315-1.847-1.307 0-2.166.625-2.376 1.62l1.4.113c.103-.362.426-.628.969-.628.515 0 .81.26.81.706v.022c0 .351-.373.398-1.321.49-1.08.1-2.05.462-2.05 1.68 0 1.08.771 1.626 1.812 1.626Zm.433-1.044c-.465 0-.799-.217-.799-.632 0-.426.352-.636.884-.71.33-.046.87-.125 1.051-.245v.578c0 .572-.472 1.009-1.136 1.009Zm3.812.941h1.513v-5.454H78.21V27Zm.76-6.158c.451 0 .82-.344.82-.767 0-.419-.369-.763-.82-.763-.447 0-.817.344-.817.763 0 .423.37.767.817.767Z" fill="#9AA0A6"/><path d="m4.405 18.634 1.944 1.944-4.325 4.325a.275.275 0 0 1-.389 0L.081 23.349a.275.275 0 0 1 0-.39l4.324-4.325Z" fill="#009DAB"/><circle r="8.793" transform="matrix(-1 0 0 1 13.19 11.793)" fill="#FFDC5C"/></svg>