<svg width="25" height="25" fill="none" xmlns="http://www.w3.org/2000/svg"><path d="M0 9.63c0-3.37 0-5.06.66-6.34A5.87 5.87 0 0 1 3.29.66C4.57 0 6.26 0 9.63 0h4.82c3.37 0 5.05 0 6.34.66a5.92 5.92 0 0 1 2.63 2.63c.66 1.28.66 3 .66 6.34v12.52c.065.424.037.857-.08 1.27a1.23 1.23 0 0 1-.53.53 3 3 0 0 1-1.27.13H9.63c-3.37 0-5.06 0-6.34-.66a5.92 5.92 0 0 1-2.63-2.63C0 19.5 0 17.82 0 14.45V9.63Z" fill="#DC913C"/><path d="M17.54 14.82a5.86 5.86 0 0 0-8.28-8.29 5.74 5.74 0 0 0-.88 7.07.26.26 0 0 1 0 .3l-3 3a1.349 1.349 0 0 0-.21 1.95l.09.09a1.35 1.35 0 0 0 2-.21l3-3a.25.25 0 0 1 .3 0 5.73 5.73 0 0 0 6.98-.91Zm-7.2-1.08a4.33 4.33 0 1 1 6.12-6.127 4.33 4.33 0 0 1-6.12 6.127Z" fill="#fff"/><path d="M10.72 10.33a.689.689 0 0 1-.24-.05.6.6 0 0 1-.32-.79 3.81 3.81 0 0 1 5-2 .603.603 0 0 1-.47 1.11 2.6 2.6 0 0 0-3.42 1.4.61.61 0 0 1-.55.33Z" fill="#fff"/></svg>