<svg xmlns="http://www.w3.org/2000/svg" viewBox="0 0 195.45 24.08"><defs><clipPath id="a"><path style="fill:none" d="M0 0h24.08v24.08H0z"/></clipPath></defs><g data-name="Layer 2"><g data-name="Layer 1"><g style="clip-path:url(#a)"><path d="M0 9.63c0-3.37 0-5.06.66-6.34A5.87 5.87 0 0 1 3.29.66C4.57 0 6.26 0 9.63 0h4.82c3.37 0 5.05 0 6.34.66a5.92 5.92 0 0 1 2.63 2.63c.66 1.28.66 3 .66 6.34v12.52a3 3 0 0 1-.08 1.27 1.23 1.23 0 0 1-.53.53 3 3 0 0 1-1.27.13H9.63c-3.37 0-5.06 0-6.34-.66a5.92 5.92 0 0 1-2.63-2.63C0 19.5 0 17.82 0 14.45Z" style="fill:#dc913c"/><path d="M17.54 14.82a5.86 5.86 0 0 0-8.28-8.29 5.74 5.74 0 0 0-.88 7.07.26.26 0 0 1 0 .3l-3 3a1.35 1.35 0 0 0-.21 1.95l.09.09a1.35 1.35 0 0 0 2-.21l3-3a.25.25 0 0 1 .3 0 5.73 5.73 0 0 0 6.98-.91Zm-7.2-1.08a4.33 4.33 0 1 1 6.12 0 4.33 4.33 0 0 1-6.12 0Z" style="fill:#fff"/><path d="M10.72 10.33a.69.69 0 0 1-.24-.05.6.6 0 0 1-.32-.79 3.81 3.81 0 0 1 5-2 .6.6 0 1 1-.47 1.11 2.6 2.6 0 0 0-3.42 1.4.61.61 0 0 1-.55.33Z" style="fill:#fff"/></g><path d="M41 2.85c-4.24 0-7.07 2.37-7.07 5.93 0 2.88 1.61 4.68 5.28 5.41l3 .6c1.87.33 2.31 1.14 2.31 1.9 0 1.25-1.12 2-3.05 2-2.47 0-4.1-1.22-4.4-3.07h-3.95c.33 4.11 3.65 6.5 8.1 6.5s7.35-2.34 7.35-5.87c0-3.1-2.1-4.49-5.63-5.22l-2.29-.46C39 10.22 38 9.68 38 8.43c0-1.44 1.27-2.29 3.2-2.29 2.26 0 3.29 1.15 3.54 2.78h3.89c-.42-4.79-4.58-6.07-7.63-6.07ZM63.44 15a6.3 6.3 0 0 0-6.5-6.66A6.63 6.63 0 0 0 50 15.25a6.72 6.72 0 0 0 7 6.91 6.18 6.18 0 0 0 6.23-4.22h-4a2.36 2.36 0 0 1-2.2 1 3.14 3.14 0 0 1-3.37-2.72h9.6a8.19 8.19 0 0 0 .18-1.22ZM57 11.45A2.59 2.59 0 0 1 59.69 14h-5.9A3 3 0 0 1 57 11.45Zm17.76-2.72v.76a6.63 6.63 0 0 0-10.19 5.76A6.64 6.64 0 0 0 74.76 21v.76h3.78v-13Zm-3.07 10.08a3.43 3.43 0 0 1-3.37-3.56 3.45 3.45 0 0 1 3.37-3.61 3.63 3.63 0 0 1 3.07 1.52v4.16a3.68 3.68 0 0 1-3.07 1.49ZM84.83 8.73h-3.78v13h3.78V14a6.07 6.07 0 0 1 4.56-1.87V8.51a6.39 6.39 0 0 0-4.56 1.68Zm12.09 9.95a3.22 3.22 0 0 1-3.26-3.43 3.23 3.23 0 0 1 3.26-3.45 2.67 2.67 0 0 1 2.78 2.06h3.77a6.28 6.28 0 0 0-6.55-5.41 6.8 6.8 0 1 0 0 13.6 6.27 6.27 0 0 0 6.55-5.41H99.7a2.65 2.65 0 0 1-2.78 2.04Zm15.81-10.36A5.8 5.8 0 0 0 109 9.65v-7.2h-3.78v19.3H109v-8.37a3.9 3.9 0 0 1 2.86-1.64c1.76 0 2.8 1.12 2.8 3.19v6.82h3.77V14.6c0-3.81-2.28-6.28-5.7-6.28Zm20.81 9.87 1.46 3.56h4.16l-7.96-18.6h-3.7l-8 18.6h4.18l1.45-3.56Zm-1.44-3.56h-5.49l2.72-6.77Zm7.02 2.61c.27 3.69 3.13 4.92 6.14 4.92 3.35 0 5.88-1.5 5.88-4.41 0-2.47-1.83-3.45-3.95-3.83l-2.36-.38c-1.2-.22-1.55-.74-1.55-1.22s.62-1.12 1.93-1.12 2.31.46 2.39 1.63h3.45c-.27-3.67-3.61-4.43-5.84-4.43-3.35 0-5.63 1.61-5.63 4.33 0 2.39 1.85 3.48 3.83 3.83l2.8.49c.87.13 1.28.57 1.28 1.06 0 .68-.89 1.11-2.2 1.11-1.49 0-2.5-.54-2.72-1.93Zm12.99 0c.27 3.69 3.13 4.92 6.14 4.92 3.35 0 5.88-1.5 5.88-4.41 0-2.47-1.83-3.45-3.95-3.83l-2.36-.38c-1.2-.22-1.55-.74-1.55-1.22s.62-1.12 1.93-1.12 2.31.46 2.39 1.63h3.45c-.27-3.67-3.61-4.43-5.84-4.43-3.35 0-5.63 1.61-5.63 4.33 0 2.39 1.85 3.48 3.83 3.83l2.8.49c.87.13 1.28.57 1.28 1.06 0 .68-.9 1.11-2.2 1.11-1.5 0-2.5-.54-2.72-1.93ZM168 6.31a2.18 2.18 0 0 0 2.25-2.18A2.27 2.27 0 1 0 168 6.31Zm-1.88 2.42v13h3.78v-13Zm5.46 8.51c.28 3.69 3.13 4.92 6.15 4.92 3.34 0 5.87-1.5 5.87-4.41 0-2.47-1.82-3.45-3.94-3.83l-2.37-.38c-1.19-.22-1.55-.74-1.55-1.22s.63-1.12 1.93-1.12 2.31.46 2.4 1.63h3.45c-.27-3.67-3.62-4.43-5.85-4.43-3.34 0-5.62 1.61-5.62 4.33 0 2.39 1.84 3.48 3.83 3.83l2.8.49c.87.13 1.28.57 1.28 1.06 0 .68-.9 1.11-2.2 1.11-1.5 0-2.51-.54-2.72-1.93ZM195 18.32a9.18 9.18 0 0 1-2.2.36 2 2 0 0 1-2.29-2.15v-4.62h4.71V8.73h-4.71V4.08h-3.75v4.65H184v3.18h2.74v4.65c0 3.37 2.07 5.6 5.22 5.6a10 10 0 0 0 3.51-.6Z" style="fill:#333"/></g></g></svg>