<svg width="32" height="32" fill="none" xmlns="http://www.w3.org/2000/svg"><path d="M32 8.533v21.334A2.134 2.134 0 0 1 29.867 32H8.533A8.533 8.533 0 0 1 0 23.467V8.533A8.533 8.533 0 0 1 8.533 0h14.934A8.533 8.533 0 0 1 32 8.533Z" fill="#FAB900"/><path d="m24.533 22.4-3.36-3.36a7.381 7.381 0 0 0 1.227-4.107 7.467 7.467 0 1 0-7.467 7.467 7.38 7.38 0 0 0 4.107-1.227l3.36 3.36a1.509 1.509 0 0 0 2.133-2.133Zm-4.917-4.917a5.398 5.398 0 0 1-2.133 2.133 5.333 5.333 0 1 1 2.133-2.133Z" fill="#fff"/><path d="M15.69 15.69a1.067 1.067 0 0 1-1.823-.757 1.067 1.067 0 0 0-2.134 0 3.2 3.2 0 0 0 5.462 2.262 1.066 1.066 0 0 0-1.504-1.504Z" fill="#fff"/></svg>