<svg width="1784" height="411" fill="none" xmlns="http://www.w3.org/2000/svg"><path d="M303 160v130a13 13 0 0 1-13 13H160a52.005 52.005 0 0 1-36.77-15.23A52.005 52.005 0 0 1 108 251v-91a52.005 52.005 0 0 1 15.23-36.77A52.005 52.005 0 0 1 160 108h91a52.005 52.005 0 0 1 36.77 15.23A52.005 52.005 0 0 1 303 160Z" fill="#F7BF0A"/><path d="m257.527 244.495-20.475-20.475a44.97 44.97 0 0 0 7.475-25.025 45.494 45.494 0 0 0-28.088-42.036 45.497 45.497 0 0 0-59.448 59.448 45.494 45.494 0 0 0 42.036 28.088 44.97 44.97 0 0 0 25.025-7.475l20.475 20.475a9.193 9.193 0 1 0 13-13Zm-29.965-29.965a32.883 32.883 0 0 1-13 13 32.039 32.039 0 0 1-15.535 3.965 32.502 32.502 0 0 1-31.875-38.84 32.5 32.5 0 0 1 64.375 6.34 32.039 32.039 0 0 1-3.965 15.535Z" fill="#fff"/><path d="M203.646 203.61a6.496 6.496 0 0 1-7.107 1.426 6.503 6.503 0 0 1-4.008-6.041 6.5 6.5 0 0 0-13 0 19.5 19.5 0 0 0 33.28 13.78 6.495 6.495 0 0 0 1.558-4.479 6.495 6.495 0 0 0-1.899-4.345 6.501 6.501 0 0 0-8.824-.341Z" fill="#fff"/><path d="M420.629 286.492c-36.158 0-61.326-19.506-64.447-50.261h29.329c3.057 15.475 17.104 24.968 36.874 24.968 16.323 0 26.013-6.502 26.013-17.62 0-8.843-6.503-14.5-19.51-16.776l-24.517-4.876c-28.55-5.657-41.881-19.506-41.881-42.654 0-28.088 22.566-46.944 56.188-46.944 13.006 0 56.318 3.446 61.131 46.749h-29.33c-1.886-10.598-8.714-22.562-29.85-22.562-16.909 0-27.379 7.608-27.379 19.831 0 12.224 10.796 16.321 22.501 18.726l18.535 3.772c31.345 6.502 44.742 18.855 44.742 41.157 0 28.219-22.891 46.49-58.399 46.49Zm129.236.198a53.528 53.528 0 0 1-51.848-33.407 53.504 53.504 0 0 1-3.885-21.406 52.602 52.602 0 0 1 54.887-55.072c30.305 0 51.506 21.717 51.506 52.862a62.94 62.94 0 0 1-.455 8.647h-78.82v1.496a26.854 26.854 0 0 0 28.745 23.212 21.065 21.065 0 0 0 18.599-7.997h29.59c-5.983 19.051-25.363 31.665-48.319 31.665Zm-.651-87.063a26.013 26.013 0 0 0-27.118 21.522l-.39 1.626h51.115v-1.496a22.43 22.43 0 0 0-15.066-20.462 22.461 22.461 0 0 0-8.866-1.19h.325Zm114.462 85.957a52.75 52.75 0 0 1-36.885-16.2 52.726 52.726 0 0 1-14.686-37.507 52.012 52.012 0 0 1 31.341-49.697 52.043 52.043 0 0 1 20.23-4.27 52.82 52.82 0 0 1 29.264 8.192l2.016 1.301v-7.282h28.16v103.252h-28.094v-7.282l-2.016 1.3a52.818 52.818 0 0 1-29.33 8.193Zm5.072-84.527a29.457 29.457 0 0 0-28.744 30.755 29.197 29.197 0 0 0 17.465 27.785 29.22 29.22 0 0 0 11.279 2.449 31.091 31.091 0 0 0 26.013-12.679v-35.306a30.697 30.697 0 0 0-26.013-12.939v-.065Zm77.564 82.317V180.122h28.16v13.719l2.146-2.015a50.41 50.41 0 0 1 34.987-13.33v26.594a50.269 50.269 0 0 0-36.808 15.605v62.809l-28.485-.13Zm127.865 2.471a53.99 53.99 0 0 1-38.167-15.807 53.953 53.953 0 0 1-15.81-38.16 53.948 53.948 0 0 1 15.81-38.16 53.99 53.99 0 0 1 38.167-15.807c27.054 0 48.124 16.905 52.026 41.353h-28.224a23.08 23.08 0 0 0-23.542-16.775 27.7 27.7 0 0 0-27.899 29.389 27.24 27.24 0 0 0 16.814 27.089 27.248 27.248 0 0 0 11.085 2.04 22.7 22.7 0 0 0 23.542-16.58h28.224c-3.902 24.447-25.167 41.418-52.026 41.418Zm145.663-2.481v-54.162c0-17.295-8.78-27.178-24.058-27.178a33.168 33.168 0 0 0-24.257 13.719l-.326.39v67.231h-28.094V128.811h28.094v60.013l2.147-1.69a45.854 45.854 0 0 1 29.464-10.533c27.44 0 45.13 19.506 45.13 49.74v56.828l-28.1.195Zm165.18.005-11.7-28.934h-69.85l-11.77 28.934h-31.15l63.67-148.571h28.28l63.48 148.571h-30.96Zm-70.88-55.332h48.51l-24.52-59.754-23.99 59.754Zm153.79 58.644c-16.84 0-45.52-4.876-48.58-37.386h25.63c2.08 10.403 9.88 15.735 23.15 15.735 11.7 0 19.51-4.097 19.51-10.404 0-5.071-4.29-8.777-11.51-9.883l-22.76-3.966c-11.25-2.016-30.11-8.583-30.11-29.909 0-21.327 17.04-33.811 44.48-33.811 13.01 0 42.99 3.251 46.11 33.421h-25.5c-1.23-8.323-8.78-13.004-20.61-13.004-11.84 0-16.97 5.591-16.97 10.338 0 3.316 1.75 9.103 13.65 11.248l19.51 3.121c20.81 3.706 30.96 13.524 30.96 29.845-.52 21.456-18.28 34.655-46.96 34.655Zm105.94 0c-16.9 0-45.52-4.876-48.58-37.386h25.56c2.08 10.403 9.89 15.735 23.22 15.735 11.64 0 19.18-4.097 19.18-10.404 0-5.071-4.29-8.777-11.44-9.883l-22.76-3.966c-11.25-2.016-30.11-8.583-30.11-29.909 0-21.327 17.04-33.811 44.48-33.811 13.01 0 42.99 3.251 46.11 33.421h-25.5c-1.23-8.323-8.84-13.004-20.61-13.004s-17.04 5.591-17.04 10.338c0 3.316 1.82 9.103 13.72 11.248l19.51 3.121c20.81 3.706 30.96 13.524 30.96 29.845-.26 21.456-18.08 34.655-46.7 34.655Zm65.63-3.312V180.116h28.16v103.253h-28.16Zm14.31-125.554a16.45 16.45 0 0 1-6.54-.996 16.386 16.386 0 0 1-5.62-3.491 16.37 16.37 0 0 1-3.79-5.422 16.23 16.23 0 0 1-1.35-6.477c0-4.552 1.81-8.918 5.03-12.137a17.16 17.16 0 0 1 12.14-5.028c4.55 0 8.92 1.809 12.14 5.028a17.163 17.163 0 0 1 5.03 12.137c0 2.208-.45 4.393-1.31 6.425a16.356 16.356 0 0 1-3.72 5.398 16.418 16.418 0 0 1-5.54 3.507 16.433 16.433 0 0 1-6.47 1.056Zm79 128.866c-16.84 0-45.52-4.876-48.51-37.386h25.56c2.08 10.403 9.88 15.735 23.15 15.735 11.71 0 19.51-4.097 19.51-10.404 0-5.071-4.29-8.777-11.51-9.883l-22.76-3.966c-11.19-2.016-30.05-8.583-30.05-29.909 0-21.327 17.04-33.811 44.42-33.811 13.01 0 42.99 3.251 46.11 33.421h-25.5c-1.17-8.323-8.78-13.004-20.61-13.004-11.84 0-16.97 5.591-16.97 10.338 0 3.316 1.75 9.103 13.65 11.248l19.51 3.121c20.88 3.706 30.96 13.524 30.96 29.845-.52 21.456-18.28 34.655-46.96 34.655Zm116.09.006c-25.04 0-41.17-17.361-41.17-44.214v-39.012h-22.3v-23.343h22.3v-37.842h27.9v37.842h38.24v23.213h-38.24v39.012c0 11.964 7.22 18.791 19.9 18.791a72.266 72.266 0 0 0 16.85-2.536l3.57 23.732a78.064 78.064 0 0 1-27.05 4.357Z" fill="#111827"/></svg>