<svg width="30" height="30" xmlns="http://www.w3.org/2000/svg"><g transform="translate(2 2)" fill="none"><ellipse fill="#009DAB" cx="12.846" cy="13.08" rx="12.846" ry="13.08"/><path d="M3.964 11.678c.312 0 .61.123.831.342a1.17 1.17 0 0 1-.829 1.994 1.17 1.17 0 0 1-1.163-1.167 1.17 1.17 0 0 1 1.16-1.169Zm17.756 0a1.167 1.167 0 0 1 1.17 1.17c0 .644-.523 1.166-1.167 1.166a1.167 1.167 0 0 1-1.169-1.167 1.167 1.167 0 0 1 1.167-1.169ZM8.64 9.81c.646 0 1.17.488 1.17 1.09v4.36c0 .601-.524 1.09-1.17 1.09a1.21 1.21 0 0 1-.825-.32 1.053 1.053 0 0 1-.34-.77V10.9a1.047 1.047 0 0 1 .34-.77 1.21 1.21 0 0 1 .826-.32Z" fill="#FFF"/><rect fill="#FFF" x="16.35" y="9.81" width="2.336" height="6.54" rx="1.168"/><path d="M12.847 6.073c.31 0 .607.119.826.33.219.213.342.5.341.8V18.49c0 .3-.122.587-.34.799a1.188 1.188 0 0 1-.827.33c-.645 0-1.169-.505-1.169-1.129V7.202c0-.623.524-1.13 1.17-1.13Z" fill="#FFF"/></g></svg>