<svg width="202" height="30" xmlns="http://www.w3.org/2000/svg"><g transform="translate(2 2)" fill="none"><ellipse fill="#009DAB" cx="12.846" cy="13.08" rx="12.846" ry="13.08"/><path d="M3.964 11.678c.312 0 .61.123.831.342a1.17 1.17 0 0 1-.829 1.994 1.17 1.17 0 0 1-1.163-1.167 1.17 1.17 0 0 1 1.16-1.169Zm17.756 0a1.167 1.167 0 0 1 1.17 1.17c0 .644-.523 1.166-1.167 1.166a1.167 1.167 0 0 1-1.169-1.167 1.167 1.167 0 0 1 1.167-1.169ZM8.64 9.81c.646 0 1.17.488 1.17 1.09v4.36c0 .601-.524 1.09-1.17 1.09a1.21 1.21 0 0 1-.825-.32 1.053 1.053 0 0 1-.34-.77V10.9a1.047 1.047 0 0 1 .34-.77 1.21 1.21 0 0 1 .826-.32Z" fill="#FFF"/><rect fill="#FFF" x="16.35" y="9.81" width="2.336" height="6.54" rx="1.168"/><path d="M12.847 6.073c.31 0 .607.119.826.33.219.213.342.5.341.8V18.49c0 .3-.122.587-.34.799a1.188 1.188 0 0 1-.827.33c-.645 0-1.169-.505-1.169-1.129V7.202c0-.623.524-1.13 1.17-1.13ZM71.925 19.62c-2.19 0-3.256-1.157-3.256-3.54V7.044l2.138-.504v3.488h2.624v2.048h-2.624v4.004c0 1.234.608 1.502 1.118 1.502.464-.03.92-.14 1.347-.324l.536 1.832a3.494 3.494 0 0 1-1.883.53Zm47.179 0c-2.19 0-3.254-1.157-3.254-3.54V7.044l2.127-.504v3.488h2.624v2.048h-2.616v4.004c0 1.234.608 1.502 1.119 1.502.464-.031.92-.14 1.348-.324l.536 1.832a3.502 3.502 0 0 1-1.884.53Zm16.366 0v-9.59h2.335v9.59h-2.336Zm2.335-13.08h-2.336v2.144h2.336V6.54ZM102.77 19.62v-9.59h2.336v9.59h-2.336Zm2.336-13.08h-2.336v2.144h2.336V6.54Zm25.22 13.08c-2.511 0-3.732-1.016-3.732-3.104 0-2.194 1.668-3.278 5.103-3.278h.202v-.206c0-.515-.273-1.127-1.573-1.127a8.59 8.59 0 0 0-2.49.438l-.617-1.886a8.857 8.857 0 0 1 3.115-.647c2.513 0 3.734 1.184 3.734 3.62v5.633c-.742.37-1.997.557-3.742.557Zm1.371-4.287c-1.982 0-2.945.389-2.945 1.183 0 .46.273 1.011 1.574 1.011.286 0 .548 0 .776-.029.227-.028.442-.043.627-.074l.17-.029v-2.062h-.202Zm-8.84 1.951h2.336v2.336h-2.336zm-88.535 2.334c-1.354.024-2.7-.215-3.958-.703l.614-2.255a12.32 12.32 0 0 0 3.346.605c1.406 0 2.117-.504 2.117-1.501 0-.743-.576-1.247-1.715-1.502-2.742-.322-4.069-1.585-4.069-3.861 0-2.596 1.488-3.861 4.552-3.861a7.69 7.69 0 0 1 3.186.68l-.545 2.177A7.85 7.85 0 0 0 35.2 8.9c-1.467 0-2.207.505-2.207 1.502 0 .738.607 1.242 1.806 1.501 2.68.33 3.973 1.592 3.973 3.862.011 2.593-1.448 3.854-4.45 3.854Zm15.277-.005v-6.157c0-1.17-.553-1.414-1.016-1.414a3.02 3.02 0 0 0-1.38.286l-.063.035v7.257h-2.254v-6.158c0-1.17-.552-1.414-1.016-1.414-.276 0-.527 0-.746.027-.219.026-.425.042-.6.072l-.097.016v7.45h-2.253v-9.28c.737-.347 1.98-.523 3.696-.523.9 0 1.556.165 1.952.488l.063.053.068-.044c.517-.33 1.401-.497 2.63-.497 2.2 0 3.27 1.19 3.27 3.64v6.157l-2.254.006Zm7.391.007c-2.514 0-3.736-1.026-3.736-3.135 0-2.226 1.66-3.302 5.08-3.302h.116v-.122c0-.466-.252-1.023-1.46-1.023a8.367 8.367 0 0 0-2.49.44l-.662-2.008a8.787 8.787 0 0 1 3.153-.66c2.514 0 3.737 1.19 3.737 3.643v5.586c-.722.387-1.98.58-3.737.58Zm1.346-4.214c-1.887 0-2.794.352-2.794 1.079 0 .603.49.909 1.46.909.279 0 .532 0 .754-.026.221-.027.43-.044.608-.073l.097-.018v-1.87h-.125Zm4.26 4.214v-9.286c.743-.348 1.997-.524 3.725-.524.475.01.948.064 1.414.16l-.506 2.201a3.92 3.92 0 0 0-.908-.14c-.278 0-.531 0-.752.026-.22.026-.428.041-.604.072l-.098.016v7.475h-2.27Zm27.125 0a14.503 14.503 0 0 1-3.768-.502l.572-2.128c1.043.285 2.119.422 3.198.407.96 0 1.448-.249 1.448-.742 0-.416-.482-.687-1.476-.828-2.364-.18-3.51-1.177-3.51-3.05 0-1.996 1.156-2.967 3.538-2.967 1.071.03 2.135.2 3.165.504l-.568 2.126a9.241 9.241 0 0 0-2.599-.405c-.853 0-1.28.249-1.28.74 0 .409.427.68 1.301.83 2.483.186 3.685 1.184 3.685 3.048.002 1.996-1.211 2.967-3.706 2.967Zm7.941 0a14.503 14.503 0 0 1-3.768-.502l.574-2.128a11.45 11.45 0 0 0 3.199.407c.961 0 1.448-.249 1.448-.742 0-.416-.482-.687-1.476-.828-2.365-.18-3.51-1.177-3.51-3.05 0-1.996 1.158-2.967 3.538-2.967 1.07.03 2.133.2 3.162.504l-.567 2.126a9.241 9.241 0 0 0-2.6-.405c-.853 0-1.28.249-1.28.74 0 .409.427.68 1.302.83 2.482.186 3.685 1.184 3.685 3.048.002 1.996-1.212 2.967-3.707 2.967Zm12.613 0a14.499 14.499 0 0 1-3.768-.502l.572-2.128c1.043.285 2.119.422 3.198.407.96 0 1.448-.249 1.448-.742 0-.416-.482-.687-1.476-.828-2.364-.18-3.51-1.177-3.51-3.05 0-1.996 1.156-2.967 3.538-2.967 1.07.03 2.133.2 3.163.504l-.566 2.126a9.241 9.241 0 0 0-2.599-.405c-.853 0-1.28.249-1.28.74 0 .409.427.68 1.301.83 2.483.186 3.685 1.184 3.685 3.048.002 1.996-1.211 2.967-3.706 2.967Zm-27.309 0-.788-2.7h-4.13l-.789 2.7h-2.517l4.09-13.08h2.553l4.1 13.08h-2.519Zm-4.263-4.97h2.821l-1.406-4.774-1.415 4.773Zm83.854.415c.005.85-.504 1.625-1.308 1.997a2.426 2.426 0 0 1-2.461-.256v.383h-.896v-6.445h.896v2.583c.701-.53 1.66-.63 2.466-.258.806.372 1.315 1.15 1.31 2l-.007-.004Zm-.878 0a1.433 1.433 0 0 0-.437-1.05 1.593 1.593 0 0 0-1.093-.448 1.61 1.61 0 0 0-1.361.69v1.62c.302.437.818.697 1.368.69.853-.024 1.53-.691 1.523-1.502Zm3.071 4.088h-.906l.925-2.05-2.206-4.49h.926l1.718 3.508 1.589-3.508h.906zm7.105-3.489v1.616h-.883v-6.525h.883v3.65l3.344-3.66h1.07l-2.634 2.94 2.942 3.599h-1.127l-2.43-2.918z" fill="#FFF"/><path d="M181.249 14.924a2.335 2.335 0 1 1-2.332-2.31 2.29 2.29 0 0 1 2.332 2.31Zm-.88 0a1.468 1.468 0 1 0-1.458 1.541 1.464 1.464 0 0 0 1.464-1.54h-.007Zm2.614-1.531c.382-.504.946-.79 1.536-.78v.849c-.612.001-1.185.337-1.536.9v2.922h-.8v-4.563h.8v.672Zm6.657 1.784h-3.388c.046.78.673 1.379 1.41 1.345.489 0 .832-.207 1.01-.546h.88c-.24.781-.985 1.307-1.916 1.307a2.07 2.07 0 0 1-1.565-.667 2.332 2.332 0 0 1-.617-1.664c0-1.333.887-2.34 2.163-2.34 1.19 0 2.032.94 2.04 2.292 0 .091-.005.182-.016.273Zm-3.37-.544h2.562c-.07-.781-.523-1.287-1.215-1.287-.77 0-1.244.563-1.346 1.287Zm4.322 2.184a.467.467 0 1 1 .934 0 .467.467 0 0 1-.934 0Zm6.072-4.091v4.444h-.877v-.39a2.325 2.325 0 0 1-1.486.504 2.334 2.334 0 0 1-1.28-4.27 2.34 2.34 0 0 1 2.766.107v-.395h.877Zm-.877 3.082v-1.722a1.562 1.562 0 0 0-1.36-.714 1.576 1.576 0 0 0 0 3.15 1.562 1.562 0 0 0 1.36-.714Zm2.279-4.956a.566.566 0 0 1 .298-.527.462.462 0 0 1 .55.11.603.603 0 0 1 .115.61.503.503 0 0 1-.463.348.456.456 0 0 1-.353-.152.57.57 0 0 1-.147-.389Zm.885 1.62v4.345h-.76v-4.345h.76Zm-51.336-9.669h1V22.89h-1z" fill="#FFF"/></g></svg>