<?xml version="1.0" encoding="UTF-8" standalone="no"?>
<!DOCTYPE svg PUBLIC "-//W3C//DTD SVG 1.1//EN"
 "http://www.w3.org/Graphics/SVG/1.1/DTD/svg11.dtd">
<!-- Generated by graphviz version 5.0.0 (20220707.1540)
 -->
<!-- Title: dependencies Pages: 1 -->
<svg width="761pt" height="247pt"
 viewBox="0.00 0.00 761.00 246.80" xmlns="http://www.w3.org/2000/svg" xmlns:xlink="http://www.w3.org/1999/xlink">
<g id="graph0" class="graph" transform="scale(1 1) rotate(0) translate(4 242.8)">
<title>dependencies</title>
<polygon fill="white" stroke="transparent" points="-4,4 -4,-242.8 757,-242.8 757,4 -4,4"/>
<text text-anchor="middle" x="376.5" y="-8.2" font-family="sans-serif" font-size="14.00">dependencies</text>
<g id="clust1" class="cluster">
<title>cluster_IndexModule</title>
<polygon fill="none" stroke="black" stroke-dasharray="1,5" points="8,-32.8 8,-230.8 745,-230.8 745,-32.8 8,-32.8"/>
</g>
<g id="clust2" class="cluster">
<title>cluster_IndexModule_declarations</title>
<polygon fill="none" stroke="black" points="607,-40.8 607,-92.8 737,-92.8 737,-40.8 607,-40.8"/>
</g>
<g id="clust5" class="cluster">
<title>cluster_IndexModule_exports</title>
<polygon fill="none" stroke="black" points="305,-170.8 305,-222.8 437,-222.8 437,-170.8 305,-170.8"/>
</g>
<g id="clust4" class="cluster">
<title>cluster_IndexModule_imports</title>
<polygon fill="none" stroke="black" points="16,-40.8 16,-92.8 599,-92.8 599,-40.8 16,-40.8"/>
</g>
<!-- IndexComponent -->
<g id="node1" class="node">
<title>IndexComponent</title>
<polygon fill="#ffffb3" stroke="black" points="728.71,-84.8 615.29,-84.8 615.29,-48.8 728.71,-48.8 728.71,-84.8"/>
<text text-anchor="middle" x="672" y="-62.6" font-family="Times,serif" font-size="14.00">IndexComponent</text>
</g>
<!-- IndexModule -->
<g id="node2" class="node">
<title>IndexModule</title>
<polygon fill="#8dd3c7" stroke="black" points="416.93,-149.8 413.93,-153.8 392.93,-153.8 389.93,-149.8 325.07,-149.8 325.07,-113.8 416.93,-113.8 416.93,-149.8"/>
<text text-anchor="middle" x="371" y="-127.6" font-family="Times,serif" font-size="14.00">IndexModule</text>
</g>
<!-- IndexComponent&#45;&gt;IndexModule -->
<g id="edge1" class="edge">
<title>IndexComponent&#45;&gt;IndexModule</title>
<path fill="none" stroke="black" d="M672,-85.08C672,-106.12 672,-137.8 672,-137.8 672,-137.8 426.72,-137.8 426.72,-137.8"/>
<polygon fill="black" stroke="black" points="426.72,-134.3 416.72,-137.8 426.72,-141.3 426.72,-134.3"/>
</g>
<!-- IndexComponent  -->
<g id="node7" class="node">
<title>IndexComponent </title>
<polygon fill="#fb8072" stroke="black" points="429.21,-214.8 312.79,-214.8 312.79,-178.8 429.21,-178.8 429.21,-214.8"/>
<text text-anchor="middle" x="371" y="-192.6" font-family="Times,serif" font-size="14.00">IndexComponent </text>
</g>
<!-- IndexModule&#45;&gt;IndexComponent  -->
<g id="edge6" class="edge">
<title>IndexModule&#45;&gt;IndexComponent </title>
<path fill="none" stroke="black" stroke-dasharray="5,2" d="M371,-149.91C371,-149.91 371,-168.79 371,-168.79"/>
<polygon fill="black" stroke="black" points="367.5,-168.79 371,-178.79 374.5,-168.79 367.5,-168.79"/>
</g>
<!-- EmptyScreenModule -->
<g id="node3" class="node">
<title>EmptyScreenModule</title>
<polygon fill="#8dd3c7" stroke="black" points="591.47,-84.8 588.47,-88.8 567.47,-88.8 564.47,-84.8 456.53,-84.8 456.53,-48.8 591.47,-48.8 591.47,-84.8"/>
<text text-anchor="middle" x="524" y="-62.6" font-family="Times,serif" font-size="14.00">EmptyScreenModule</text>
</g>
<!-- EmptyScreenModule&#45;&gt;IndexModule -->
<g id="edge2" class="edge">
<title>EmptyScreenModule&#45;&gt;IndexModule</title>
<path fill="none" stroke="black" d="M524,-84.82C524,-102.17 524,-125.8 524,-125.8 524,-125.8 426.91,-125.8 426.91,-125.8"/>
<polygon fill="black" stroke="black" points="426.91,-122.3 416.91,-125.8 426.91,-129.3 426.91,-122.3"/>
</g>
<!-- FindlySharedModule -->
<g id="node4" class="node">
<title>FindlySharedModule</title>
<polygon fill="#8dd3c7" stroke="black" points="438.49,-84.8 435.49,-88.8 414.49,-88.8 411.49,-84.8 303.51,-84.8 303.51,-48.8 438.49,-48.8 438.49,-84.8"/>
<text text-anchor="middle" x="371" y="-62.6" font-family="Times,serif" font-size="14.00">FindlySharedModule</text>
</g>
<!-- FindlySharedModule&#45;&gt;IndexModule -->
<g id="edge3" class="edge">
<title>FindlySharedModule&#45;&gt;IndexModule</title>
<path fill="none" stroke="black" d="M371,-84.91C371,-84.91 371,-103.79 371,-103.79"/>
<polygon fill="black" stroke="black" points="367.5,-103.79 371,-113.79 374.5,-103.79 367.5,-103.79"/>
</g>
<!-- KrModalModule -->
<g id="node5" class="node">
<title>KrModalModule</title>
<polygon fill="#8dd3c7" stroke="black" points="285.38,-84.8 282.38,-88.8 261.38,-88.8 258.38,-84.8 174.62,-84.8 174.62,-48.8 285.38,-48.8 285.38,-84.8"/>
<text text-anchor="middle" x="230" y="-62.6" font-family="Times,serif" font-size="14.00">KrModalModule</text>
</g>
<!-- KrModalModule&#45;&gt;IndexModule -->
<g id="edge4" class="edge">
<title>KrModalModule&#45;&gt;IndexModule</title>
<path fill="none" stroke="black" d="M230,-84.82C230,-102.17 230,-125.8 230,-125.8 230,-125.8 315.22,-125.8 315.22,-125.8"/>
<polygon fill="black" stroke="black" points="315.22,-129.3 325.22,-125.8 315.22,-122.3 315.22,-129.3"/>
</g>
<!-- UpgradePlanModule -->
<g id="node6" class="node">
<title>UpgradePlanModule</title>
<polygon fill="#8dd3c7" stroke="black" points="156.14,-84.8 153.14,-88.8 132.14,-88.8 129.14,-84.8 23.86,-84.8 23.86,-48.8 156.14,-48.8 156.14,-84.8"/>
<text text-anchor="middle" x="90" y="-62.6" font-family="Times,serif" font-size="14.00">UpgradePlanModule</text>
</g>
<!-- UpgradePlanModule&#45;&gt;IndexModule -->
<g id="edge5" class="edge">
<title>UpgradePlanModule&#45;&gt;IndexModule</title>
<path fill="none" stroke="black" d="M90,-85.08C90,-106.12 90,-137.8 90,-137.8 90,-137.8 315.23,-137.8 315.23,-137.8"/>
<polygon fill="black" stroke="black" points="315.23,-141.3 325.23,-137.8 315.23,-134.3 315.23,-141.3"/>
</g>
</g>
</svg>
