<svg width="13" height="13" viewBox="0 0 13 13" fill="none" xmlns="http://www.w3.org/2000/svg">
<path d="M10.3784 0C9.68312 0 9.02687 0.273438 8.53859 0.765625L6.73 2.57031C6.08156 3.21875 5.85109 4.12891 6.03859 4.97266L7.03859 3.97656C7.1089 3.71875 7.23781 3.47656 7.43703 3.27734L9.24562 1.46875C9.55031 1.16797 9.95265 1 10.3784 1C10.8081 1 11.2105 1.16797 11.5308 1.48828C11.8355 1.79297 12.0034 2.19531 12.0034 2.625C12.0034 3.05078 11.8355 3.45703 11.5308 3.75781L9.72609 5.56641C9.53469 5.75781 9.2925 5.88672 9.03859 5.95703L8.02687 6.96875C8.21047 7.01172 8.39797 7.03516 8.59328 7.03516C9.28859 7.03516 9.94093 6.76562 10.4331 6.27344L12.2378 4.46875C13.2534 3.44922 13.2573 1.79688 12.2222 0.765625C11.73 0.273438 11.0777 0 10.3784 0ZM8.49172 3.99609C8.36281 4 8.24172 4.05469 8.14797 4.14844L4.14797 8.14844C3.95265 8.33984 3.95265 8.66016 4.14797 8.85547C4.34328 9.05078 4.65969 9.05078 4.8589 8.85547L8.8589 4.85547C9.00734 4.71094 9.05031 4.49219 8.96828 4.30078C8.89015 4.10938 8.69875 3.98828 8.49172 3.99609ZM4.41359 5.96484C3.71828 5.96484 3.06594 6.23438 2.57375 6.72656L0.765154 8.53516C-0.250471 9.55078 -0.250471 11.2031 0.784685 12.2383C1.2925 12.7461 1.96047 13 2.62453 13C3.2925 13 3.96047 12.7461 4.46828 12.2383L6.27297 10.4336C6.92531 9.78125 7.15578 8.87109 6.96828 8.03125L5.96828 9.02734C5.89797 9.28125 5.76906 9.52344 5.56984 9.72266L3.76125 11.5312C3.13625 12.1562 2.11281 12.1562 1.47219 11.5117C1.1675 11.207 1.00344 10.8047 1.00344 10.375C1.00344 9.94922 1.1675 9.54688 1.47219 9.24219L3.28078 7.43359C3.47609 7.23828 3.71828 7.10547 3.97609 7.03125L4.98 6.03125C4.7964 5.99219 4.6089 5.96484 4.41359 5.96484Z" fill="#0D6EFD"/>
</svg>
