<?xml version="1.0" encoding="UTF-8" standalone="no"?>
<!DOCTYPE svg PUBLIC "-//W3C//DTD SVG 1.1//EN"
 "http://www.w3.org/Graphics/SVG/1.1/DTD/svg11.dtd">
<!-- Generated by graphviz version 5.0.0 (20220707.1540)
 -->
<!-- Title: dependencies Pages: 1 -->
<svg width="561pt" height="174pt"
 viewBox="0.00 0.00 561.00 173.80" xmlns="http://www.w3.org/2000/svg" xmlns:xlink="http://www.w3.org/1999/xlink">
<g id="graph0" class="graph" transform="scale(1 1) rotate(0) translate(4 169.8)">
<title>dependencies</title>
<polygon fill="white" stroke="transparent" points="-4,4 -4,-169.8 557,-169.8 557,4 -4,4"/>
<text text-anchor="middle" x="276.5" y="-8.2" font-family="sans-serif" font-size="14.00">dependencies</text>
<g id="clust1" class="cluster">
<title>cluster_HighlightingModule</title>
<polygon fill="none" stroke="black" stroke-dasharray="1,5" points="8,-32.8 8,-157.8 545,-157.8 545,-32.8 8,-32.8"/>
</g>
<g id="clust2" class="cluster">
<title>cluster_HighlightingModule_declarations</title>
<polygon fill="none" stroke="black" points="369,-40.8 369,-92.8 537,-92.8 537,-40.8 369,-40.8"/>
</g>
<g id="clust4" class="cluster">
<title>cluster_HighlightingModule_imports</title>
<polygon fill="none" stroke="black" points="16,-40.8 16,-92.8 361,-92.8 361,-40.8 16,-40.8"/>
</g>
<!-- HighlightingComponent -->
<g id="node1" class="node">
<title>HighlightingComponent</title>
<polygon fill="#ffffb3" stroke="black" points="529.39,-84.8 376.61,-84.8 376.61,-48.8 529.39,-48.8 529.39,-84.8"/>
<text text-anchor="middle" x="453" y="-62.6" font-family="Times,serif" font-size="14.00">HighlightingComponent</text>
</g>
<!-- HighlightingModule -->
<g id="node2" class="node">
<title>HighlightingModule</title>
<polygon fill="#8dd3c7" stroke="black" points="351.61,-149.8 348.61,-153.8 327.61,-153.8 324.61,-149.8 220.39,-149.8 220.39,-113.8 351.61,-113.8 351.61,-149.8"/>
<text text-anchor="middle" x="286" y="-127.6" font-family="Times,serif" font-size="14.00">HighlightingModule</text>
</g>
<!-- HighlightingComponent&#45;&gt;HighlightingModule -->
<g id="edge1" class="edge">
<title>HighlightingComponent&#45;&gt;HighlightingModule</title>
<path fill="none" stroke="black" d="M453,-84.91C453,-104.14 453,-131.8 453,-131.8 453,-131.8 362,-131.8 362,-131.8"/>
<polygon fill="black" stroke="black" points="362,-128.3 352,-131.8 362,-135.3 362,-128.3"/>
</g>
<!-- FindlySharedModule -->
<g id="node3" class="node">
<title>FindlySharedModule</title>
<polygon fill="#8dd3c7" stroke="black" points="353.49,-84.8 350.49,-88.8 329.49,-88.8 326.49,-84.8 218.51,-84.8 218.51,-48.8 353.49,-48.8 353.49,-84.8"/>
<text text-anchor="middle" x="286" y="-62.6" font-family="Times,serif" font-size="14.00">FindlySharedModule</text>
</g>
<!-- FindlySharedModule&#45;&gt;HighlightingModule -->
<g id="edge2" class="edge">
<title>FindlySharedModule&#45;&gt;HighlightingModule</title>
<path fill="none" stroke="black" d="M286,-84.91C286,-84.91 286,-103.79 286,-103.79"/>
<polygon fill="black" stroke="black" points="282.5,-103.79 286,-113.79 289.5,-103.79 282.5,-103.79"/>
</g>
<!-- HighlightingRoutingModule -->
<g id="node4" class="node">
<title>HighlightingRoutingModule</title>
<polygon fill="#8dd3c7" stroke="black" points="200.23,-84.8 197.23,-88.8 176.23,-88.8 173.23,-84.8 23.77,-84.8 23.77,-48.8 200.23,-48.8 200.23,-84.8"/>
<text text-anchor="middle" x="112" y="-62.6" font-family="Times,serif" font-size="14.00">HighlightingRoutingModule</text>
</g>
<!-- HighlightingRoutingModule&#45;&gt;HighlightingModule -->
<g id="edge3" class="edge">
<title>HighlightingRoutingModule&#45;&gt;HighlightingModule</title>
<path fill="none" stroke="black" d="M112,-84.91C112,-104.14 112,-131.8 112,-131.8 112,-131.8 210.22,-131.8 210.22,-131.8"/>
<polygon fill="black" stroke="black" points="210.22,-135.3 220.22,-131.8 210.22,-128.3 210.22,-135.3"/>
</g>
</g>
</svg>
