<?xml version="1.0" encoding="UTF-8" standalone="no"?>
<!DOCTYPE svg PUBLIC "-//W3C//DTD SVG 1.1//EN"
 "http://www.w3.org/Graphics/SVG/1.1/DTD/svg11.dtd">
<!-- Generated by graphviz version 5.0.0 (20220707.1540)
 -->
<!-- Title: dependencies Pages: 1 -->
<svg width="1584pt" height="174pt"
 viewBox="0.00 0.00 1584.00 173.80" xmlns="http://www.w3.org/2000/svg" xmlns:xlink="http://www.w3.org/1999/xlink">
<g id="graph0" class="graph" transform="scale(1 1) rotate(0) translate(4 169.8)">
<title>dependencies</title>
<polygon fill="white" stroke="transparent" points="-4,4 -4,-169.8 1580,-169.8 1580,4 -4,4"/>
<text text-anchor="middle" x="788" y="-8.2" font-family="sans-serif" font-size="14.00">dependencies</text>
<g id="clust1" class="cluster">
<title>cluster_FaqsModule</title>
<polygon fill="none" stroke="black" stroke-dasharray="1,5" points="8,-32.8 8,-157.8 1568,-157.8 1568,-32.8 8,-32.8"/>
</g>
<g id="clust2" class="cluster">
<title>cluster_FaqsModule_declarations</title>
<polygon fill="none" stroke="black" points="1436,-40.8 1436,-92.8 1560,-92.8 1560,-40.8 1436,-40.8"/>
</g>
<g id="clust4" class="cluster">
<title>cluster_FaqsModule_imports</title>
<polygon fill="none" stroke="black" points="16,-40.8 16,-92.8 1428,-92.8 1428,-40.8 16,-40.8"/>
</g>
<!-- FaqsComponent -->
<g id="node1" class="node">
<title>FaqsComponent</title>
<polygon fill="#ffffb3" stroke="black" points="1551.78,-84.8 1444.22,-84.8 1444.22,-48.8 1551.78,-48.8 1551.78,-84.8"/>
<text text-anchor="middle" x="1498" y="-62.6" font-family="Times,serif" font-size="14.00">FaqsComponent</text>
</g>
<!-- FaqsModule -->
<g id="node2" class="node">
<title>FaqsModule</title>
<polygon fill="#8dd3c7" stroke="black" points="848,-149.8 845,-153.8 824,-153.8 821,-149.8 762,-149.8 762,-113.8 848,-113.8 848,-149.8"/>
<text text-anchor="middle" x="805" y="-127.6" font-family="Times,serif" font-size="14.00">FaqsModule</text>
</g>
<!-- FaqsComponent&#45;&gt;FaqsModule -->
<g id="edge1" class="edge">
<title>FaqsComponent&#45;&gt;FaqsModule</title>
<path fill="none" stroke="black" d="M1498,-84.81C1498,-107.29 1498,-142.8 1498,-142.8 1498,-142.8 858.09,-142.8 858.09,-142.8"/>
<polygon fill="black" stroke="black" points="858.09,-139.3 848.09,-142.8 858.09,-146.3 858.09,-139.3"/>
</g>
<!-- AddAlternateQuestionModule -->
<g id="node3" class="node">
<title>AddAlternateQuestionModule</title>
<polygon fill="#8dd3c7" stroke="black" points="1420.3,-84.8 1417.3,-88.8 1396.3,-88.8 1393.3,-84.8 1233.7,-84.8 1233.7,-48.8 1420.3,-48.8 1420.3,-84.8"/>
<text text-anchor="middle" x="1327" y="-62.6" font-family="Times,serif" font-size="14.00">AddAlternateQuestionModule</text>
</g>
<!-- AddAlternateQuestionModule&#45;&gt;FaqsModule -->
<g id="edge2" class="edge">
<title>AddAlternateQuestionModule&#45;&gt;FaqsModule</title>
<path fill="none" stroke="black" d="M1327,-84.93C1327,-105.37 1327,-135.8 1327,-135.8 1327,-135.8 858.16,-135.8 858.16,-135.8"/>
<polygon fill="black" stroke="black" points="858.16,-132.3 848.16,-135.8 858.16,-139.3 858.16,-132.3"/>
</g>
<!-- AddFaqModule -->
<g id="node4" class="node">
<title>AddFaqModule</title>
<polygon fill="#8dd3c7" stroke="black" points="1216.16,-84.8 1213.16,-88.8 1192.16,-88.8 1189.16,-84.8 1111.84,-84.8 1111.84,-48.8 1216.16,-48.8 1216.16,-84.8"/>
<text text-anchor="middle" x="1164" y="-62.6" font-family="Times,serif" font-size="14.00">AddFaqModule</text>
</g>
<!-- AddFaqModule&#45;&gt;FaqsModule -->
<g id="edge3" class="edge">
<title>AddFaqModule&#45;&gt;FaqsModule</title>
<path fill="none" stroke="black" d="M1164,-85.07C1164,-103.36 1164,-128.8 1164,-128.8 1164,-128.8 858.3,-128.8 858.3,-128.8"/>
<polygon fill="black" stroke="black" points="858.3,-125.3 848.3,-128.8 858.3,-132.3 858.3,-125.3"/>
</g>
<!-- EmptyScreenModule -->
<g id="node5" class="node">
<title>EmptyScreenModule</title>
<polygon fill="#8dd3c7" stroke="black" points="1093.47,-84.8 1090.47,-88.8 1069.47,-88.8 1066.47,-84.8 958.53,-84.8 958.53,-48.8 1093.47,-48.8 1093.47,-84.8"/>
<text text-anchor="middle" x="1026" y="-62.6" font-family="Times,serif" font-size="14.00">EmptyScreenModule</text>
</g>
<!-- EmptyScreenModule&#45;&gt;FaqsModule -->
<g id="edge4" class="edge">
<title>EmptyScreenModule&#45;&gt;FaqsModule</title>
<path fill="none" stroke="black" d="M1026,-84.81C1026,-100.85 1026,-121.8 1026,-121.8 1026,-121.8 858.14,-121.8 858.14,-121.8"/>
<polygon fill="black" stroke="black" points="858.14,-118.3 848.14,-121.8 858.14,-125.3 858.14,-118.3"/>
</g>
<!-- FaqsRoutingModule -->
<g id="node6" class="node">
<title>FaqsRoutingModule</title>
<polygon fill="#8dd3c7" stroke="black" points="940.62,-84.8 937.62,-88.8 916.62,-88.8 913.62,-84.8 809.38,-84.8 809.38,-48.8 940.62,-48.8 940.62,-84.8"/>
<text text-anchor="middle" x="875" y="-62.6" font-family="Times,serif" font-size="14.00">FaqsRoutingModule</text>
</g>
<!-- FaqsRoutingModule&#45;&gt;FaqsModule -->
<g id="edge5" class="edge">
<title>FaqsRoutingModule&#45;&gt;FaqsModule</title>
<path fill="none" stroke="black" d="M828.72,-84.91C828.72,-84.91 828.72,-103.79 828.72,-103.79"/>
<polygon fill="black" stroke="black" points="825.22,-103.79 828.72,-113.79 832.22,-103.79 825.22,-103.79"/>
</g>
<!-- KrModalModule -->
<g id="node7" class="node">
<title>KrModalModule</title>
<polygon fill="#8dd3c7" stroke="black" points="791.38,-84.8 788.38,-88.8 767.38,-88.8 764.38,-84.8 680.62,-84.8 680.62,-48.8 791.38,-48.8 791.38,-84.8"/>
<text text-anchor="middle" x="736" y="-62.6" font-family="Times,serif" font-size="14.00">KrModalModule</text>
</g>
<!-- KrModalModule&#45;&gt;FaqsModule -->
<g id="edge6" class="edge">
<title>KrModalModule&#45;&gt;FaqsModule</title>
<path fill="none" stroke="black" d="M776.72,-84.91C776.72,-84.91 776.72,-103.79 776.72,-103.79"/>
<polygon fill="black" stroke="black" points="773.22,-103.79 776.72,-113.79 780.22,-103.79 773.22,-103.79"/>
</g>
<!-- OnboardingModule -->
<g id="node8" class="node">
<title>OnboardingModule</title>
<polygon fill="#8dd3c7" stroke="black" points="662.43,-84.8 659.43,-88.8 638.43,-88.8 635.43,-84.8 535.57,-84.8 535.57,-48.8 662.43,-48.8 662.43,-84.8"/>
<text text-anchor="middle" x="599" y="-62.6" font-family="Times,serif" font-size="14.00">OnboardingModule</text>
</g>
<!-- OnboardingModule&#45;&gt;FaqsModule -->
<g id="edge7" class="edge">
<title>OnboardingModule&#45;&gt;FaqsModule</title>
<path fill="none" stroke="black" d="M599,-84.81C599,-100.85 599,-121.8 599,-121.8 599,-121.8 751.82,-121.8 751.82,-121.8"/>
<polygon fill="black" stroke="black" points="751.82,-125.3 761.82,-121.8 751.82,-118.3 751.82,-125.3"/>
</g>
<!-- RecordPaginationModule -->
<g id="node9" class="node">
<title>RecordPaginationModule</title>
<polygon fill="#8dd3c7" stroke="black" points="517.86,-84.8 514.86,-88.8 493.86,-88.8 490.86,-84.8 358.14,-84.8 358.14,-48.8 517.86,-48.8 517.86,-84.8"/>
<text text-anchor="middle" x="438" y="-62.6" font-family="Times,serif" font-size="14.00">RecordPaginationModule</text>
</g>
<!-- RecordPaginationModule&#45;&gt;FaqsModule -->
<g id="edge8" class="edge">
<title>RecordPaginationModule&#45;&gt;FaqsModule</title>
<path fill="none" stroke="black" d="M438,-85.07C438,-103.36 438,-128.8 438,-128.8 438,-128.8 751.82,-128.8 751.82,-128.8"/>
<polygon fill="black" stroke="black" points="751.82,-132.3 761.82,-128.8 751.82,-125.3 751.82,-132.3"/>
</g>
<!-- SourcesModule -->
<g id="node10" class="node">
<title>SourcesModule</title>
<polygon fill="#8dd3c7" stroke="black" points="339.88,-84.8 336.88,-88.8 315.88,-88.8 312.88,-84.8 236.12,-84.8 236.12,-48.8 339.88,-48.8 339.88,-84.8"/>
<text text-anchor="middle" x="288" y="-62.6" font-family="Times,serif" font-size="14.00">SourcesModule</text>
</g>
<!-- SourcesModule&#45;&gt;FaqsModule -->
<g id="edge9" class="edge">
<title>SourcesModule&#45;&gt;FaqsModule</title>
<path fill="none" stroke="black" d="M288,-84.93C288,-105.37 288,-135.8 288,-135.8 288,-135.8 751.81,-135.8 751.81,-135.8"/>
<polygon fill="black" stroke="black" points="751.81,-139.3 761.81,-135.8 751.81,-132.3 751.81,-139.3"/>
</g>
<!-- UseronboardingJourneyModule -->
<g id="node11" class="node">
<title>UseronboardingJourneyModule</title>
<polygon fill="#8dd3c7" stroke="black" points="218.08,-84.8 215.08,-88.8 194.08,-88.8 191.08,-84.8 23.92,-84.8 23.92,-48.8 218.08,-48.8 218.08,-84.8"/>
<text text-anchor="middle" x="121" y="-62.6" font-family="Times,serif" font-size="14.00">UseronboardingJourneyModule</text>
</g>
<!-- UseronboardingJourneyModule&#45;&gt;FaqsModule -->
<g id="edge10" class="edge">
<title>UseronboardingJourneyModule&#45;&gt;FaqsModule</title>
<path fill="none" stroke="black" d="M121,-84.81C121,-107.29 121,-142.8 121,-142.8 121,-142.8 751.95,-142.8 751.95,-142.8"/>
<polygon fill="black" stroke="black" points="751.95,-146.3 761.95,-142.8 751.95,-139.3 751.95,-146.3"/>
</g>
</g>
</svg>
