<?xml version="1.0" encoding="UTF-8" standalone="no"?>
<!DOCTYPE svg PUBLIC "-//W3C//DTD SVG 1.1//EN"
 "http://www.w3.org/Graphics/SVG/1.1/DTD/svg11.dtd">
<!-- Generated by graphviz version 5.0.0 (20220707.1540)
 -->
<!-- Title: dependencies Pages: 1 -->
<svg width="1584pt" height="239pt"
 viewBox="0.00 0.00 1584.00 238.80" xmlns="http://www.w3.org/2000/svg" xmlns:xlink="http://www.w3.org/1999/xlink">
<g id="graph0" class="graph" transform="scale(1 1) rotate(0) translate(4 234.8)">
<title>dependencies</title>
<polygon fill="white" stroke="transparent" points="-4,4 -4,-234.8 1580,-234.8 1580,4 -4,4"/>
<text text-anchor="middle" x="788" y="-8.2" font-family="sans-serif" font-size="14.00">dependencies</text>
<g id="clust1" class="cluster">
<title>cluster_FaqsModule</title>
<polygon fill="none" stroke="black" stroke-dasharray="1,5" points="8,-32.8 8,-222.8 1568,-222.8 1568,-32.8 8,-32.8"/>
</g>
<g id="clust2" class="cluster">
<title>cluster_FaqsModule_declarations</title>
<polygon fill="none" stroke="black" points="1436,-105.8 1436,-157.8 1560,-157.8 1560,-105.8 1436,-105.8"/>
</g>
<g id="clust3" class="cluster">
<title>cluster_FaqsModule_FaqsComponent_providers</title>
<polygon fill="none" stroke="black" points="1242,-40.8 1242,-92.8 1560,-92.8 1560,-40.8 1242,-40.8"/>
</g>
<g id="clust4" class="cluster">
<title>cluster_FaqsModule_imports</title>
<polygon fill="none" stroke="black" points="16,-105.8 16,-157.8 1428,-157.8 1428,-105.8 16,-105.8"/>
</g>
<!-- FaqsComponent -->
<g id="node1" class="node">
<title>FaqsComponent</title>
<polygon fill="#ffffb3" stroke="black" points="1551.78,-149.8 1444.22,-149.8 1444.22,-113.8 1551.78,-113.8 1551.78,-149.8"/>
<text text-anchor="middle" x="1498" y="-127.6" font-family="Times,serif" font-size="14.00">FaqsComponent</text>
</g>
<!-- FaqsModule -->
<g id="node2" class="node">
<title>FaqsModule</title>
<polygon fill="#8dd3c7" stroke="black" points="848,-214.8 845,-218.8 824,-218.8 821,-214.8 762,-214.8 762,-178.8 848,-178.8 848,-214.8"/>
<text text-anchor="middle" x="805" y="-192.6" font-family="Times,serif" font-size="14.00">FaqsModule</text>
</g>
<!-- FaqsComponent&#45;&gt;FaqsModule -->
<g id="edge1" class="edge">
<title>FaqsComponent&#45;&gt;FaqsModule</title>
<path fill="none" stroke="black" d="M1498,-149.81C1498,-172.29 1498,-207.8 1498,-207.8 1498,-207.8 858.09,-207.8 858.09,-207.8"/>
<polygon fill="black" stroke="black" points="858.09,-204.3 848.09,-207.8 858.09,-211.3 858.09,-204.3"/>
</g>
<!-- { provide: , useClass: FaqsService } -->
<g id="node3" class="node">
<title>{ provide: , useClass: FaqsService }</title>
<ellipse fill="#fdb462" stroke="black" cx="1401" cy="-66.8" rx="150.81" ry="18"/>
<text text-anchor="middle" x="1401" y="-62.6" font-family="Times,serif" font-size="14.00">{ provide: , useClass: FaqsService }</text>
</g>
<!-- { provide: , useClass: FaqsService }&#45;&gt;FaqsComponent -->
<g id="edge2" class="edge">
<title>{ provide: , useClass: FaqsService }&#45;&gt;FaqsComponent</title>
<path fill="none" stroke="black" d="M1479.96,-82.2C1479.96,-82.2 1479.96,-103.74 1479.96,-103.74"/>
<polygon fill="black" stroke="black" points="1476.46,-103.74 1479.96,-113.74 1483.46,-103.74 1476.46,-103.74"/>
</g>
<!-- { provide: , useClass: FaqsService }&#45;&gt;FaqsComponent -->
<g id="edge3" class="edge">
<title>{ provide: , useClass: FaqsService }&#45;&gt;FaqsComponent</title>
<path fill="none" stroke="black" d="M1515.81,-78.72C1515.81,-78.72 1515.81,-103.57 1515.81,-103.57"/>
<polygon fill="black" stroke="black" points="1512.31,-103.57 1515.81,-113.57 1519.31,-103.57 1512.31,-103.57"/>
</g>
<!-- AddAlternateQuestionModule -->
<g id="node4" class="node">
<title>AddAlternateQuestionModule</title>
<polygon fill="#8dd3c7" stroke="black" points="1420.3,-149.8 1417.3,-153.8 1396.3,-153.8 1393.3,-149.8 1233.7,-149.8 1233.7,-113.8 1420.3,-113.8 1420.3,-149.8"/>
<text text-anchor="middle" x="1327" y="-127.6" font-family="Times,serif" font-size="14.00">AddAlternateQuestionModule</text>
</g>
<!-- AddAlternateQuestionModule&#45;&gt;FaqsModule -->
<g id="edge4" class="edge">
<title>AddAlternateQuestionModule&#45;&gt;FaqsModule</title>
<path fill="none" stroke="black" d="M1327,-149.93C1327,-170.37 1327,-200.8 1327,-200.8 1327,-200.8 858.16,-200.8 858.16,-200.8"/>
<polygon fill="black" stroke="black" points="858.16,-197.3 848.16,-200.8 858.16,-204.3 858.16,-197.3"/>
</g>
<!-- AddFaqModule -->
<g id="node5" class="node">
<title>AddFaqModule</title>
<polygon fill="#8dd3c7" stroke="black" points="1216.16,-149.8 1213.16,-153.8 1192.16,-153.8 1189.16,-149.8 1111.84,-149.8 1111.84,-113.8 1216.16,-113.8 1216.16,-149.8"/>
<text text-anchor="middle" x="1164" y="-127.6" font-family="Times,serif" font-size="14.00">AddFaqModule</text>
</g>
<!-- AddFaqModule&#45;&gt;FaqsModule -->
<g id="edge5" class="edge">
<title>AddFaqModule&#45;&gt;FaqsModule</title>
<path fill="none" stroke="black" d="M1164,-150.07C1164,-168.36 1164,-193.8 1164,-193.8 1164,-193.8 858.3,-193.8 858.3,-193.8"/>
<polygon fill="black" stroke="black" points="858.3,-190.3 848.3,-193.8 858.3,-197.3 858.3,-190.3"/>
</g>
<!-- EmptyScreenModule -->
<g id="node6" class="node">
<title>EmptyScreenModule</title>
<polygon fill="#8dd3c7" stroke="black" points="1093.47,-149.8 1090.47,-153.8 1069.47,-153.8 1066.47,-149.8 958.53,-149.8 958.53,-113.8 1093.47,-113.8 1093.47,-149.8"/>
<text text-anchor="middle" x="1026" y="-127.6" font-family="Times,serif" font-size="14.00">EmptyScreenModule</text>
</g>
<!-- EmptyScreenModule&#45;&gt;FaqsModule -->
<g id="edge6" class="edge">
<title>EmptyScreenModule&#45;&gt;FaqsModule</title>
<path fill="none" stroke="black" d="M1026,-149.81C1026,-165.85 1026,-186.8 1026,-186.8 1026,-186.8 858.14,-186.8 858.14,-186.8"/>
<polygon fill="black" stroke="black" points="858.14,-183.3 848.14,-186.8 858.14,-190.3 858.14,-183.3"/>
</g>
<!-- FaqsRoutingModule -->
<g id="node7" class="node">
<title>FaqsRoutingModule</title>
<polygon fill="#8dd3c7" stroke="black" points="940.62,-149.8 937.62,-153.8 916.62,-153.8 913.62,-149.8 809.38,-149.8 809.38,-113.8 940.62,-113.8 940.62,-149.8"/>
<text text-anchor="middle" x="875" y="-127.6" font-family="Times,serif" font-size="14.00">FaqsRoutingModule</text>
</g>
<!-- FaqsRoutingModule&#45;&gt;FaqsModule -->
<g id="edge7" class="edge">
<title>FaqsRoutingModule&#45;&gt;FaqsModule</title>
<path fill="none" stroke="black" d="M828.72,-149.91C828.72,-149.91 828.72,-168.79 828.72,-168.79"/>
<polygon fill="black" stroke="black" points="825.22,-168.79 828.72,-178.79 832.22,-168.79 825.22,-168.79"/>
</g>
<!-- KrModalModule -->
<g id="node8" class="node">
<title>KrModalModule</title>
<polygon fill="#8dd3c7" stroke="black" points="791.38,-149.8 788.38,-153.8 767.38,-153.8 764.38,-149.8 680.62,-149.8 680.62,-113.8 791.38,-113.8 791.38,-149.8"/>
<text text-anchor="middle" x="736" y="-127.6" font-family="Times,serif" font-size="14.00">KrModalModule</text>
</g>
<!-- KrModalModule&#45;&gt;FaqsModule -->
<g id="edge8" class="edge">
<title>KrModalModule&#45;&gt;FaqsModule</title>
<path fill="none" stroke="black" d="M776.72,-149.91C776.72,-149.91 776.72,-168.79 776.72,-168.79"/>
<polygon fill="black" stroke="black" points="773.22,-168.79 776.72,-178.79 780.22,-168.79 773.22,-168.79"/>
</g>
<!-- OnboardingModule -->
<g id="node9" class="node">
<title>OnboardingModule</title>
<polygon fill="#8dd3c7" stroke="black" points="662.43,-149.8 659.43,-153.8 638.43,-153.8 635.43,-149.8 535.57,-149.8 535.57,-113.8 662.43,-113.8 662.43,-149.8"/>
<text text-anchor="middle" x="599" y="-127.6" font-family="Times,serif" font-size="14.00">OnboardingModule</text>
</g>
<!-- OnboardingModule&#45;&gt;FaqsModule -->
<g id="edge9" class="edge">
<title>OnboardingModule&#45;&gt;FaqsModule</title>
<path fill="none" stroke="black" d="M599,-149.81C599,-165.85 599,-186.8 599,-186.8 599,-186.8 751.82,-186.8 751.82,-186.8"/>
<polygon fill="black" stroke="black" points="751.82,-190.3 761.82,-186.8 751.82,-183.3 751.82,-190.3"/>
</g>
<!-- RecordPaginationModule -->
<g id="node10" class="node">
<title>RecordPaginationModule</title>
<polygon fill="#8dd3c7" stroke="black" points="517.86,-149.8 514.86,-153.8 493.86,-153.8 490.86,-149.8 358.14,-149.8 358.14,-113.8 517.86,-113.8 517.86,-149.8"/>
<text text-anchor="middle" x="438" y="-127.6" font-family="Times,serif" font-size="14.00">RecordPaginationModule</text>
</g>
<!-- RecordPaginationModule&#45;&gt;FaqsModule -->
<g id="edge10" class="edge">
<title>RecordPaginationModule&#45;&gt;FaqsModule</title>
<path fill="none" stroke="black" d="M438,-150.07C438,-168.36 438,-193.8 438,-193.8 438,-193.8 751.82,-193.8 751.82,-193.8"/>
<polygon fill="black" stroke="black" points="751.82,-197.3 761.82,-193.8 751.82,-190.3 751.82,-197.3"/>
</g>
<!-- SourcesModule -->
<g id="node11" class="node">
<title>SourcesModule</title>
<polygon fill="#8dd3c7" stroke="black" points="339.88,-149.8 336.88,-153.8 315.88,-153.8 312.88,-149.8 236.12,-149.8 236.12,-113.8 339.88,-113.8 339.88,-149.8"/>
<text text-anchor="middle" x="288" y="-127.6" font-family="Times,serif" font-size="14.00">SourcesModule</text>
</g>
<!-- SourcesModule&#45;&gt;FaqsModule -->
<g id="edge11" class="edge">
<title>SourcesModule&#45;&gt;FaqsModule</title>
<path fill="none" stroke="black" d="M288,-149.93C288,-170.37 288,-200.8 288,-200.8 288,-200.8 751.81,-200.8 751.81,-200.8"/>
<polygon fill="black" stroke="black" points="751.81,-204.3 761.81,-200.8 751.81,-197.3 751.81,-204.3"/>
</g>
<!-- UseronboardingJourneyModule -->
<g id="node12" class="node">
<title>UseronboardingJourneyModule</title>
<polygon fill="#8dd3c7" stroke="black" points="218.08,-149.8 215.08,-153.8 194.08,-153.8 191.08,-149.8 23.92,-149.8 23.92,-113.8 218.08,-113.8 218.08,-149.8"/>
<text text-anchor="middle" x="121" y="-127.6" font-family="Times,serif" font-size="14.00">UseronboardingJourneyModule</text>
</g>
<!-- UseronboardingJourneyModule&#45;&gt;FaqsModule -->
<g id="edge12" class="edge">
<title>UseronboardingJourneyModule&#45;&gt;FaqsModule</title>
<path fill="none" stroke="black" d="M121,-149.81C121,-172.29 121,-207.8 121,-207.8 121,-207.8 751.95,-207.8 751.95,-207.8"/>
<polygon fill="black" stroke="black" points="751.95,-211.3 761.95,-207.8 751.95,-204.3 751.95,-211.3"/>
</g>
</g>
</svg>
