<?xml version="1.0" encoding="UTF-8" standalone="no"?>
<!DOCTYPE svg PUBLIC "-//W3C//DTD SVG 1.1//EN"
 "http://www.w3.org/Graphics/SVG/1.1/DTD/svg11.dtd">
<!-- Generated by graphviz version 5.0.0 (20220707.1540)
 -->
<!-- Title: dependencies Pages: 1 -->
<svg width="406pt" height="247pt"
 viewBox="0.00 0.00 406.00 246.80" xmlns="http://www.w3.org/2000/svg" xmlns:xlink="http://www.w3.org/1999/xlink">
<g id="graph0" class="graph" transform="scale(1 1) rotate(0) translate(4 242.8)">
<title>dependencies</title>
<polygon fill="white" stroke="transparent" points="-4,4 -4,-242.8 402,-242.8 402,4 -4,4"/>
<text text-anchor="middle" x="199" y="-8.2" font-family="sans-serif" font-size="14.00">dependencies</text>
<g id="clust1" class="cluster">
<title>cluster_UseronboardingJourneyModule</title>
<polygon fill="none" stroke="black" stroke-dasharray="1,5" points="8,-32.8 8,-230.8 390,-230.8 390,-32.8 8,-32.8"/>
</g>
<g id="clust2" class="cluster">
<title>cluster_UseronboardingJourneyModule_declarations</title>
<polygon fill="none" stroke="black" points="150,-40.8 150,-92.8 382,-92.8 382,-40.8 150,-40.8"/>
</g>
<g id="clust5" class="cluster">
<title>cluster_UseronboardingJourneyModule_exports</title>
<polygon fill="none" stroke="black" points="81,-170.8 81,-222.8 317,-222.8 317,-170.8 81,-170.8"/>
</g>
<g id="clust4" class="cluster">
<title>cluster_UseronboardingJourneyModule_imports</title>
<polygon fill="none" stroke="black" points="16,-40.8 16,-92.8 142,-92.8 142,-40.8 16,-40.8"/>
</g>
<!-- UseronboardingJourneyComponent -->
<g id="node1" class="node">
<title>UseronboardingJourneyComponent</title>
<polygon fill="#ffffb3" stroke="black" points="373.86,-84.8 158.14,-84.8 158.14,-48.8 373.86,-48.8 373.86,-84.8"/>
<text text-anchor="middle" x="266" y="-62.6" font-family="Times,serif" font-size="14.00">UseronboardingJourneyComponent</text>
</g>
<!-- UseronboardingJourneyModule -->
<g id="node2" class="node">
<title>UseronboardingJourneyModule</title>
<polygon fill="#8dd3c7" stroke="black" points="296.08,-149.8 293.08,-153.8 272.08,-153.8 269.08,-149.8 101.92,-149.8 101.92,-113.8 296.08,-113.8 296.08,-149.8"/>
<text text-anchor="middle" x="199" y="-127.6" font-family="Times,serif" font-size="14.00">UseronboardingJourneyModule</text>
</g>
<!-- UseronboardingJourneyComponent&#45;&gt;UseronboardingJourneyModule -->
<g id="edge1" class="edge">
<title>UseronboardingJourneyComponent&#45;&gt;UseronboardingJourneyModule</title>
<path fill="none" stroke="black" d="M227.06,-84.91C227.06,-84.91 227.06,-103.79 227.06,-103.79"/>
<polygon fill="black" stroke="black" points="223.56,-103.79 227.06,-113.79 230.56,-103.79 223.56,-103.79"/>
</g>
<!-- UseronboardingJourneyComponent  -->
<g id="node4" class="node">
<title>UseronboardingJourneyComponent </title>
<polygon fill="#fb8072" stroke="black" points="308.86,-214.8 89.14,-214.8 89.14,-178.8 308.86,-178.8 308.86,-214.8"/>
<text text-anchor="middle" x="199" y="-192.6" font-family="Times,serif" font-size="14.00">UseronboardingJourneyComponent </text>
</g>
<!-- UseronboardingJourneyModule&#45;&gt;UseronboardingJourneyComponent  -->
<g id="edge3" class="edge">
<title>UseronboardingJourneyModule&#45;&gt;UseronboardingJourneyComponent </title>
<path fill="none" stroke="black" stroke-dasharray="5,2" d="M199,-149.91C199,-149.91 199,-168.79 199,-168.79"/>
<polygon fill="black" stroke="black" points="195.5,-168.79 199,-178.79 202.5,-168.79 195.5,-168.79"/>
</g>
<!-- KrModalModule -->
<g id="node3" class="node">
<title>KrModalModule</title>
<polygon fill="#8dd3c7" stroke="black" points="134.38,-84.8 131.38,-88.8 110.38,-88.8 107.38,-84.8 23.62,-84.8 23.62,-48.8 134.38,-48.8 134.38,-84.8"/>
<text text-anchor="middle" x="79" y="-62.6" font-family="Times,serif" font-size="14.00">KrModalModule</text>
</g>
<!-- KrModalModule&#45;&gt;UseronboardingJourneyModule -->
<g id="edge2" class="edge">
<title>KrModalModule&#45;&gt;UseronboardingJourneyModule</title>
<path fill="none" stroke="black" d="M118.2,-84.91C118.2,-84.91 118.2,-103.79 118.2,-103.79"/>
<polygon fill="black" stroke="black" points="114.7,-103.79 118.2,-113.79 121.7,-103.79 114.7,-103.79"/>
</g>
</g>
</svg>
