<svg width="40" height="40" fill="none" xmlns="http://www.w3.org/2000/svg"><path d="M19.5 13.5v-9 9Z" fill="#93D3A2"/><path d="M19.5 13.5v-9" stroke="#28A745" stroke-miterlimit="10"/><path d="M19.5 1.5a3 3 0 1 0 0 6 3 3 0 0 0 0-6Z" fill="#93D3A2"/><path d="M19.5 2C20.879 2 22 3.122 22 4.5S20.879 7 19.5 7A2.503 2.503 0 0 1 17 4.5C17 3.122 18.121 2 19.5 2Zm0-1a3.5 3.5 0 1 0 0 7 3.5 3.5 0 0 0 0-7Z" fill="#28A745"/><path d="M19 38.5c-4.304 0-14.5-1.358-14.5-3.5v-8.139C4.5 19.077 11.141 12.5 19 12.5h1c7.859 0 14.5 6.577 14.5 14.361V35c0 2.142-10.196 3.5-14.5 3.5h-1Z" fill="#93D3A2"/><path d="M20 13c7.589 0 14 6.348 14 13.861V35c0 .011-.239 1.136-5.571 2.129C25.202 37.73 21.558 38 20 38h-1c-1.558 0-5.202-.27-8.429-.871C5.239 36.136 5 35.011 5 35v-8.139C5 19.348 11.411 13 19 13h1Zm0-1h-1c-8.154 0-15 6.707-15 14.861V35c0 2.965 12.035 4 15 4h1c2.965 0 15-1.035 15-4v-8.139C35 18.707 28.154 12 20 12Z" fill="#28A745"/><path d="M12.5 30.5c-2.206 0-4-1.794-4-4s1.794-4 4-4h14c2.206 0 4 1.794 4 4s-1.794 4-4 4h-14Z" fill="#fff"/><path d="M26.5 23c1.93 0 3.5 1.57 3.5 3.5S28.43 30 26.5 30h-14C10.57 30 9 28.43 9 26.5s1.57-3.5 3.5-3.5h14Zm0-1h-14A4.513 4.513 0 0 0 8 26.5c0 2.475 2.025 4.5 4.5 4.5h14c2.475 0 4.5-2.025 4.5-4.5S28.975 22 26.5 22Z" fill="#28A745"/><path d="M12.5 25.5a1 1 0 1 0 0 2 1 1 0 0 0 0-2Z" fill="#93D3A2"/><path d="M12.5 26a.5.5 0 1 1 0 1 .5.5 0 0 1 0-1Zm0-1a1.5 1.5 0 1 0 .001 3.001A1.5 1.5 0 0 0 12.5 25Z" fill="#28A745"/><path d="M26.5 25.5a1 1 0 1 0 0 2 1 1 0 0 0 0-2Z" fill="#93D3A2"/><path d="M26.5 26a.5.5 0 1 1 0 1 .5.5 0 0 1 0-1Zm0-1a1.5 1.5 0 1 0 .001 3.001A1.5 1.5 0 0 0 26.5 25Z" fill="#28A745"/><path d="M35.5 32.5c-.552 0-1-.449-1-1v-13a1.001 1.001 0 0 1 2 0v13c0 .551-.448 1-1 1Z" fill="#EAF6EC"/><path d="M35.5 18c.271 0 .5.229.5.5v13c0 .271-.229.5-.5.5a.507.507 0 0 1-.5-.5v-13c0-.271.229-.5.5-.5Zm0-1c-.825 0-1.5.675-1.5 1.5v13c0 .825.675 1.5 1.5 1.5s1.5-.675 1.5-1.5v-13c0-.825-.675-1.5-1.5-1.5Z" fill="#28A745"/><path d="M3.5 32.5c-.552 0-1-.449-1-1v-13a1.001 1.001 0 0 1 2 0v13c0 .551-.448 1-1 1Z" fill="#EAF6EC"/><path d="M3.5 18c.271 0 .5.229.5.5v13c0 .271-.229.5-.5.5a.507.507 0 0 1-.5-.5v-13c0-.271.229-.5.5-.5Zm0-1c-.825 0-1.5.675-1.5 1.5v13c0 .825.675 1.5 1.5 1.5S5 32.325 5 31.5v-13c0-.825-.675-1.5-1.5-1.5Z" fill="#28A745"/></svg>