<svg width="327" height="326" fill="none" xmlns="http://www.w3.org/2000/svg"><path d="M.375 4A3.625 3.625 0 0 1 4 .375h226A3.625 3.625 0 0 1 233.625 4v318a3.625 3.625 0 0 1-3.625 3.625H4A3.625 3.625 0 0 1 .375 322V4Z" fill="#fff" stroke="#E4E5E7" stroke-width=".75"/><rect x="3.375" y="304.375" width="227.25" height="18.25" rx="3.625" fill="#fff"/><path fill-rule="evenodd" clip-rule="evenodd" d="M18.473 309.35a4.129 4.129 0 0 0-4.123 4.134 4.129 4.129 0 0 0 4.123 4.135c.996 0 1.91-.354 2.622-.944l1.912 1.893.028.026a.397.397 0 0 0 .53-.593l-1.908-1.889c.587-.715.94-1.63.94-2.628a4.129 4.129 0 0 0-4.124-4.134Zm0 .797a3.333 3.333 0 0 1 3.329 3.337 3.334 3.334 0 0 1-3.329 3.338 3.334 3.334 0 0 1-3.328-3.338 3.333 3.333 0 0 1 3.328-3.337Z" fill="#BDC1C6"/><path d="M34.858 311.545h.852c-.039-1.097-1.05-1.917-2.457-1.917-1.392 0-2.486.81-2.486 2.031 0 .98.71 1.563 1.847 1.889l.895.256c.767.213 1.448.483 1.448 1.207 0 .796-.767 1.321-1.775 1.321-.867 0-1.634-.383-1.705-1.207h-.909c.085 1.193 1.051 2.003 2.614 2.003 1.676 0 2.628-.923 2.628-2.102 0-1.364-1.293-1.804-2.046-2.003l-.738-.199c-.54-.142-1.407-.426-1.407-1.208 0-.696.64-1.207 1.605-1.207.881 0 1.549.419 1.634 1.136Zm4.573 5.569c1.108 0 1.918-.554 2.173-1.378l-.81-.227c-.212.568-.706.852-1.363.852-.984 0-1.662-.636-1.701-1.804h3.96v-.355c0-2.032-1.208-2.728-2.344-2.728-1.478 0-2.458 1.165-2.458 2.841 0 1.676.966 2.799 2.543 2.799Zm-1.701-3.282c.057-.848.657-1.605 1.616-1.605.909 0 1.491.682 1.491 1.605H37.73Zm6.84 3.296c.951 0 1.448-.512 1.619-.867h.042V317h.838v-3.594c0-1.733-1.32-1.932-2.017-1.932-.824 0-1.761.285-2.187 1.279l.795.284c.185-.398.622-.824 1.42-.824.771 0 1.151.408 1.151 1.108v.028c0 .405-.412.37-1.406.498-1.012.131-2.116.355-2.116 1.605 0 1.065.823 1.676 1.86 1.676Zm.127-.753c-.667 0-1.15-.298-1.15-.881 0-.639.582-.838 1.236-.923.355-.043 1.306-.142 1.448-.312v.767c0 .681-.54 1.349-1.534 1.349ZM48.6 317h.838v-3.452c0-.738.583-1.278 1.378-1.278.224 0 .455.042.511.057v-.853a8.168 8.168 0 0 0-.44-.014c-.653 0-1.222.37-1.42.909h-.057v-.824h-.81V317Zm5.77.114c1.208 0 2.004-.739 2.146-1.705h-.839c-.156.597-.653.952-1.306.952-.995 0-1.634-.824-1.634-2.088 0-1.236.654-2.046 1.634-2.046.738 0 1.179.455 1.306.952h.839c-.142-1.023-1.009-1.705-2.16-1.705-1.477 0-2.457 1.165-2.457 2.827 0 1.634.938 2.813 2.472 2.813Zm4.209-3.395c0-.952.607-1.492 1.434-1.492.789 0 1.265.497 1.265 1.364V317h.838v-3.466c0-1.403-.746-2.06-1.861-2.06-.86 0-1.35.359-1.605.924h-.071v-2.671h-.838V317h.838v-3.281Z" fill="#BDC1C6"/><rect x="3.375" y="304.375" width="227.25" height="18.25" rx="3.625" stroke="#E4E5E7" stroke-width=".75"/><rect opacity=".6" x="89" y="34" width="137" height="27" rx="1" fill="#EFF0F1"/><rect opacity=".6" x="8" y="72" width="95" height="27" rx="1" fill="#EFF0F1"/><rect opacity=".6" x="8" y="174" width="218" height="21" rx="1" fill="#EFF0F1"/><rect opacity=".6" x="8" y="198" width="218" height="21" rx="1" fill="#EFF0F1"/><rect opacity=".6" x="8" y="222" width="218" height="21" rx="1" fill="#EFF0F1"/><path d="M8.64 165h.877v-2.045h1.193c1.35 0 2.017-.816 2.017-1.89 0-1.071-.662-1.883-2.014-1.883H8.64V165Zm.877-2.79v-2.275h1.102c.87 0 1.225.471 1.225 1.13 0 .659-.355 1.145-1.213 1.145H9.517Zm4.114 2.79.534-1.54h2.273l.53 1.54h.933l-2.094-5.818h-1.014L12.699 165h.932Zm.79-2.278.857-2.483h.046l.858 2.483H14.42Zm7.984-1.702h.9c-.196-1.134-1.164-1.918-2.42-1.918-1.506 0-2.605 1.134-2.605 2.992 0 1.841 1.068 2.986 2.645 2.986 1.412 0 2.42-.927 2.42-2.395v-.662h-2.287v.724h1.438c-.02.938-.64 1.531-1.571 1.531-1.026 0-1.773-.775-1.773-2.19 0-1.409.753-2.185 1.739-2.185.772 0 1.295.427 1.514 1.117Zm2.054 3.98h3.682v-.756h-2.804v-1.781h2.58v-.753h-2.58v-1.772h2.77v-.756H24.46V165Zm7.994-4.29h.847c-.026-.932-.85-1.608-2.031-1.608-1.168 0-2.063.668-2.063 1.671 0 .809.58 1.284 1.514 1.537l.688.187c.622.165 1.102.369 1.102.887 0 .568-.543.943-1.29.943-.676 0-1.238-.301-1.29-.935h-.88c.056 1.054.872 1.705 2.176 1.705 1.366 0 2.153-.719 2.153-1.705 0-1.048-.934-1.454-1.673-1.636l-.568-.148c-.455-.117-1.06-.33-1.057-.886 0-.495.452-.861 1.168-.861.667 0 1.142.312 1.204.849Z" fill="#5F6368"/><path d="M0 27h234" stroke="#EFF0F1"/><rect opacity=".6" x="8" y="126" width="90" height="21" rx="1" fill="#EFF0F1"/><rect opacity=".6" x="103" y="126" width="90" height="21" rx="1" fill="#EFF0F1"/><path d="m9.13 117 .535-1.54h2.273l.53 1.54h.933l-2.094-5.818h-1.014L8.199 117h.932Zm.79-2.278.858-2.483h.046l.858 2.483H9.92Zm8.88-1.648c-.2-1.244-1.174-1.972-2.404-1.972-1.505 0-2.616 1.128-2.616 2.989s1.105 2.989 2.616 2.989c1.279 0 2.213-.802 2.404-1.952l-.887-.003c-.15.744-.775 1.153-1.511 1.153-.997 0-1.75-.764-1.75-2.187 0-1.412.75-2.188 1.753-2.188.741 0 1.363.418 1.508 1.171h.887Zm.763-1.136h1.813V117h.875v-5.062h1.815v-.756h-4.503v.756Zm6.376-.756h-.878V117h.878v-5.818Zm6.332 2.909c0-1.861-1.113-2.989-2.619-2.989-1.511 0-2.622 1.128-2.622 2.989 0 1.858 1.11 2.989 2.622 2.989 1.506 0 2.62-1.128 2.62-2.989Zm-.869 0c0 1.418-.75 2.187-1.75 2.187-1.003 0-1.75-.769-1.75-2.187 0-1.418.747-2.188 1.75-2.188 1 0 1.75.77 1.75 2.188Zm6.66-2.909h-.87v4.273h-.053l-2.96-4.273h-.813V117h.878v-4.267h.054L37.255 117h.807v-5.818Zm4.454 1.528h.846c-.025-.932-.85-1.608-2.031-1.608-1.168 0-2.063.668-2.063 1.671 0 .809.58 1.284 1.515 1.537l.687.187c.622.165 1.102.369 1.102.887 0 .568-.542.943-1.29.943-.675 0-1.238-.301-1.29-.935h-.88c.057 1.054.872 1.705 2.176 1.705 1.367 0 2.154-.719 2.154-1.705 0-1.048-.935-1.454-1.673-1.636l-.569-.148c-.454-.117-1.06-.33-1.056-.886 0-.495.451-.861 1.167-.861.668 0 1.142.312 1.205.849Z" fill="#5F6368"/><g filter="url(#a)"><rect x="207" y="119" width="116" height="34" rx="4" fill="#202124"/><path d="m223.651 140 .6-1.793h2.735l.603 1.793h1.407l-2.564-7.273h-1.627l-2.56 7.273h1.406Zm.956-2.852.983-2.929h.057l.984 2.929h-2.024Zm7.503 2.959c1.371 0 2.244-.814 2.337-1.971h-1.229c-.11.586-.533.923-1.097.923-.803 0-1.321-.671-1.321-1.786 0-1.101.529-1.762 1.321-1.762.618 0 .998.398 1.097.924h1.229c-.089-1.183-1.012-1.961-2.344-1.961-1.598 0-2.607 1.155-2.607 2.82 0 1.651.984 2.813 2.614 2.813Zm6.116-5.562h-1.076v-1.306h-1.285v1.306h-.775v.995h.775v3.032c-.008 1.027.738 1.531 1.704 1.503.366-.011.618-.082.756-.128l-.216-1.005a1.602 1.602 0 0 1-.377.049c-.323 0-.582-.113-.582-.632v-2.819h1.076v-.995Zm1.075 5.455h1.286v-5.455h-1.286V140Zm.646-6.229c.409 0 .743-.312.743-.696 0-.387-.334-.699-.743-.699-.411 0-.745.312-.745.699 0 .384.334.696.745.696Zm4.341 6.336c1.598 0 2.613-1.126 2.613-2.813 0-1.69-1.015-2.82-2.613-2.82s-2.614 1.13-2.614 2.82c0 1.687 1.016 2.813 2.614 2.813Zm.007-1.03c-.884 0-1.318-.789-1.318-1.787 0-.997.434-1.796 1.318-1.796.87 0 1.303.799 1.303 1.796 0 .998-.433 1.787-1.303 1.787Zm4.983-2.273c0-.788.476-1.243 1.154-1.243.664 0 1.062.437 1.062 1.165V140h1.285v-3.473c.004-1.307-.742-2.053-1.867-2.053-.817 0-1.378.391-1.627.998h-.064v-.927h-1.228V140h1.285v-3.196Zm9.119-.817c-.177-.923-.916-1.513-2.194-1.513-1.314 0-2.209.647-2.205 1.655-.004.796.486 1.321 1.534 1.538l.93.195c.501.11.735.313.735.622 0 .373-.405.653-1.016.653-.589 0-.973-.256-1.083-.746l-1.253.121c.16 1.001 1.001 1.595 2.34 1.595 1.364 0 2.326-.707 2.33-1.741-.004-.777-.505-1.253-1.535-1.477l-.93-.199c-.554-.124-.774-.316-.771-.632-.003-.369.405-.625.942-.625.593 0 .905.323 1.004.682l1.172-.128Zm5.228 4.123c.855 0 1.367-.401 1.601-.859h.043V140h1.236v-3.651c0-1.441-1.176-1.875-2.216-1.875-1.147 0-2.028.512-2.312 1.506l1.2.171c.128-.373.49-.693 1.119-.693.596 0 .923.305.923.842v.021c0 .369-.387.387-1.349.49-1.059.114-2.071.43-2.071 1.658 0 1.073.785 1.641 1.826 1.641Zm.333-.945c-.536 0-.919-.245-.919-.717 0-.493.429-.699 1.005-.781.337-.046 1.012-.131 1.179-.266v.642c0 .608-.49 1.122-1.265 1.122Zm6.563-4.62h-1.076v-1.306h-1.286v1.306h-.774v.995h.774v3.032c-.007 1.027.739 1.531 1.705 1.503.366-.011.618-.082.756-.128l-.216-1.005a1.602 1.602 0 0 1-.377.049c-.323 0-.582-.113-.582-.632v-2.819h1.076v-.995Zm6.279 0h-1.076v-1.306h-1.285v1.306h-.774v.995h.774v3.032c-.007 1.027.738 1.531 1.704 1.503.366-.011.618-.082.757-.128l-.217-1.005a1.6 1.6 0 0 1-.376.049c-.324 0-.583-.113-.583-.632v-2.819h1.076v-.995Zm2.478 2.259c0-.788.49-1.243 1.179-1.243.675 0 1.072.43 1.072 1.165V140h1.286v-3.473c0-1.317-.746-2.053-1.879-2.053-.838 0-1.37.38-1.622.998h-.064v-2.745h-1.257V140h1.285v-3.196Zm7.262 3.303c1.271 0 2.145-.622 2.372-1.57l-1.2-.135c-.174.462-.6.703-1.154.703-.831 0-1.382-.547-1.392-1.481h3.8v-.394c0-1.914-1.151-2.756-2.493-2.756-1.563 0-2.582 1.147-2.582 2.831 0 1.711 1.005 2.802 2.649 2.802Zm-1.371-3.349c.039-.696.554-1.282 1.321-1.282.739 0 1.236.54 1.243 1.282h-2.564Zm10.088-2.213h-1.076v-1.306h-1.285v1.306h-.774v.995h.774v3.032c-.007 1.027.738 1.531 1.704 1.503.366-.011.618-.082.757-.128l-.217-1.005a1.6 1.6 0 0 1-.376.049c-.323 0-.583-.113-.583-.632v-2.819h1.076v-.995Zm3.396 5.562c1.598 0 2.614-1.126 2.614-2.813 0-1.69-1.016-2.82-2.614-2.82-1.598 0-2.614 1.13-2.614 2.82 0 1.687 1.016 2.813 2.614 2.813Zm.007-1.03c-.884 0-1.317-.789-1.317-1.787 0-.997.433-1.796 1.317-1.796.87 0 1.303.799 1.303 1.796 0 .998-.433 1.787-1.303 1.787Zm3.698 2.968h1.285v-2.904h.054c.202.397.625.955 1.562.955 1.286 0 2.248-1.019 2.248-2.816 0-1.818-.991-2.806-2.251-2.806-.963 0-1.364.579-1.559.973h-.075v-.902h-1.264v7.5Zm1.26-4.772c0-1.059.455-1.744 1.282-1.744.856 0 1.297.728 1.297 1.744 0 1.022-.448 1.768-1.297 1.768-.82 0-1.282-.71-1.282-1.768Z" fill="#fff"/></g><path fill="#202124" d="m207 129 7 7-7 7-7-7z"/><defs><filter id="a" x="203" y="119" width="124" height="42" filterUnits="userSpaceOnUse" color-interpolation-filters="sRGB"><feFlood flood-opacity="0" result="BackgroundImageFix"/><feColorMatrix in="SourceAlpha" values="0 0 0 0 0 0 0 0 0 0 0 0 0 0 0 0 0 0 127 0"/><feOffset dy="4"/><feGaussianBlur stdDeviation="2"/><feColorMatrix values="0 0 0 0 0.12549 0 0 0 0 0.129412 0 0 0 0 0.141176 0 0 0 0.2 0"/><feBlend in2="BackgroundImageFix" result="effect1_dropShadow"/><feBlend in="SourceGraphic" in2="effect1_dropShadow" result="shape"/></filter></defs></svg>