<svg width="120" height="120" fill="none" xmlns="http://www.w3.org/2000/svg"><path d="M108.943 88.144c-1.517-.04-30.193-.004-30.193-.004V46.875h30.937a6.563 6.563 0 1 0 0-13.125h-2.612c-1.867 0-3.6-1.277-3.9-3.12a3.755 3.755 0 0 1 3.7-4.38 5.625 5.625 0 1 0 0-11.25H83.437a2.814 2.814 0 0 1 0-5.625h7.232c2.453 0 4.688-1.764 4.931-4.204A4.688 4.688 0 0 0 90.937 0H29.33c-2.452 0-4.687 1.764-4.931 4.204a4.688 4.688 0 0 0 4.663 5.171h2.612c1.867 0 3.6 1.277 3.9 3.12a3.754 3.754 0 0 1-3.7 4.38H7.5a5.625 5.625 0 1 0 0 11.25h1.875a5.625 5.625 0 1 1 0 11.25H7.854c-3.911 0-7.421 2.839-7.815 6.731-.452 4.466 3.083 8.269 7.46 8.269h33.75V88.14H9.73c-3.911 0-7.421 2.839-7.815 6.731-.452 4.467 3.083 8.254 7.46 8.254H27.34a2.828 2.828 0 0 1 2.66 2.813 2.82 2.82 0 0 1-2.812 2.812H22.5c-3.094 0-5.625 2.531-5.625 5.625S19.405 120 22.5 120h75a4.7 4.7 0 0 0 4.687-4.688 4.7 4.7 0 0 0-4.687-4.687H84.375a3.76 3.76 0 0 1-3.75-3.75c0-2.01 1.606-3.653 3.598-3.735h24.172c3.561 0 7.232-2.826 7.767-6.347.691-4.562-2.805-8.537-7.219-8.65Z" fill="url(#a)"/><path d="M84.74 20.625H35.26a11.25 11.25 0 0 0-10.177 6.454L8.148 63 41.25 78.75H75L111.85 63 94.918 27.079a11.253 11.253 0 0 0-10.178-6.454Z" fill="url(#b)"/><path d="M84.74 30c.723 0 1.388.422 1.698 1.076L102.05 63.93 73.08 80.625H43.367l-27.733-11.68 17.928-37.869A1.885 1.885 0 0 1 35.26 30h49.482Z" fill="url(#c)"/><path d="M73.125 34.688a4.687 4.687 0 0 0 4.688 4.687 4.687 4.687 0 1 1 0 9.375h-9.376a4.687 4.687 0 1 0 0 9.375 4.687 4.687 0 1 1 0 9.375h-7.5a4.687 4.687 0 1 0 0 9.375h18.651l22.463-12.945-15.614-32.854A1.885 1.885 0 0 0 84.742 30h-6.928a4.687 4.687 0 0 0-4.688 4.688Z" fill="url(#d)"/><path d="M106.875 60H85.26c-1.78 0-3.433.857-4.504 2.276-4.96 6.581-12.82 10.849-21.694 10.849-8.874 0-16.734-4.267-21.693-10.849C36.3 60.856 34.644 60 32.865 60h-19.74A5.625 5.625 0 0 0 7.5 65.625v22.5c0 6.214 5.036 11.25 11.25 11.25h82.5c6.214 0 11.25-5.036 11.25-11.25v-22.5A5.625 5.625 0 0 0 106.875 60Z" fill="url(#e)"/><defs><linearGradient id="b" x1="60" y1="94.657" x2="60" y2="22.039" gradientUnits="userSpaceOnUse"><stop stop-color="#FF8B67"/><stop offset=".847" stop-color="#FFA76A"/><stop offset="1" stop-color="#FFAD6B"/></linearGradient><linearGradient id="c" x1="58.841" y1="56.119" x2="58.841" y2="-24.521" gradientUnits="userSpaceOnUse"><stop stop-color="#FF8B67"/><stop offset=".847" stop-color="#FFA76A"/><stop offset="1" stop-color="#FFAD6B"/></linearGradient><linearGradient id="d" x1="79.149" y1="76.875" x2="79.149" y2="30" gradientUnits="userSpaceOnUse"><stop offset=".104" stop-color="#FF8663"/><stop offset=".989" stop-color="#FE8D6B"/></linearGradient><linearGradient id="e" x1="60" y1="109.693" x2="60" y2="57.587" gradientUnits="userSpaceOnUse"><stop stop-color="#FFC050"/><stop offset="1" stop-color="#FFBD85"/></linearGradient><radialGradient id="a" cx="0" cy="0" r="1" gradientUnits="userSpaceOnUse" gradientTransform="translate(58.125 60) scale(59.07)"><stop stop-color="#AFEEFF"/><stop offset=".193" stop-color="#BBF1FF"/><stop offset=".703" stop-color="#D7F8FF"/><stop offset="1" stop-color="#E1FAFF"/></radialGradient></defs></svg>