<svg width="16" height="17" fill="none" xmlns="http://www.w3.org/2000/svg"><path d="M7.635 14.258a.525.525 0 0 1-.048-1.048l.048-.002h4.38c.497 0 .904-.39.933-.88l.001-.055v-8.03a.935.935 0 0 0-.88-.932l-.054-.002h-8.03a.935.935 0 0 0-.933.88l-.001.055v4.38a.525.525 0 0 1-1.049.047L2 8.623v-4.38c0-1.07.849-1.944 1.91-1.983l.075-.002h8.03c1.071 0 1.944.85 1.984 1.911l.001.075v8.03a1.985 1.985 0 0 1-1.91 1.983l-.075.002h-4.38Z" fill="#fff"/><path d="M10.003 5.862c.274 0 .499.21.523.478l.002.048v2.92a.525.525 0 0 1-1.048.047l-.002-.047V7.662L4.38 12.76a.525.525 0 0 1-.777-.705l.034-.038 5.104-5.103H7.083a.525.525 0 0 1-.523-.477l-.002-.048c0-.274.21-.5.477-.523l.048-.003h2.92Z" fill="#fff"/></svg>