<svg width="12" height="12" fill="none" xmlns="http://www.w3.org/2000/svg"><path d="M11.041.96A3.274 3.274 0 0 0 6.45.92l-.954.949-.033.037a.52.52 0 0 0 .765.7l.948-.944.062-.058a2.235 2.235 0 0 1 3.07.09 2.24 2.24 0 0 1 .027 3.14L8.687 6.482l-.066.065a2.237 2.237 0 0 1-3.308-.306.519.519 0 1 0-.831.622 3.275 3.275 0 0 0 4.94.354l1.653-1.655.067-.072a3.281 3.281 0 0 0-.1-4.53Z" fill="#BDC1C6"/><path d="M5.13 3.831a3.274 3.274 0 0 0-2.551.952L.925 6.438l-.067.072a3.281 3.281 0 0 0 .1 4.53 3.274 3.274 0 0 0 4.592.04l.95-.95.033-.037a.52.52 0 0 0-.768-.697l-.942.943-.062.057a2.235 2.235 0 0 1-3.069-.09 2.24 2.24 0 0 1-.027-3.14l1.648-1.648.066-.065a2.237 2.237 0 0 1 3.308.306.519.519 0 1 0 .831-.622A3.275 3.275 0 0 0 5.13 3.831Z" fill="#BDC1C6"/></svg>