<svg width="13" height="13" fill="none" xmlns="http://www.w3.org/2000/svg"><path d="M0 8c0 .547.453 1 1 1h3c.547 0 1-.453 1-1V7h1v2.5c0 .824.676 1.5 1.5 1.5H8v1c0 .547.453 1 1 1h3c.547 0 1-.453 1-1V9c0-.547-.453-1-1-1H9c-.547 0-1 .453-1 1v1h-.5a.494.494 0 0 1-.5-.5v-6c0-.281.219-.5.5-.5H8v1c0 .547.453 1 1 1h3c.547 0 1-.453 1-1V1c0-.547-.453-1-1-1H9c-.547 0-1 .453-1 1v1h-.5C6.676 2 6 2.676 6 3.5V6H5V5c0-.547-.453-1-1-1H1c-.547 0-1 .453-1 1v3Zm1 0V5h3v3H1Zm8 4V9h3v3H9Zm0-8V1h3v3H9Z" fill="#5F6368"/></svg>