<svg width="460" height="233" fill="none" xmlns="http://www.w3.org/2000/svg"><rect x=".375" y=".375" width="459.25" height="25.25" rx="3.625" fill="#fff"/><path fill-rule="evenodd" clip-rule="evenodd" d="M15.473 8.35a4.129 4.129 0 0 0-4.123 4.134 4.129 4.129 0 0 0 4.123 4.135 4.1 4.1 0 0 0 2.622-.944l1.912 1.893.028.026a.397.397 0 0 0 .534-.029.4.4 0 0 0-.004-.564l-1.908-1.89c.587-.714.94-1.629.94-2.627a4.129 4.129 0 0 0-4.124-4.134Zm0 .797a3.333 3.333 0 0 1 3.329 3.337 3.333 3.333 0 0 1-3.329 3.338 3.333 3.333 0 0 1-3.328-3.338 3.333 3.333 0 0 1 3.328-3.337Z" fill="#BDC1C6"/><path d="M34.858 11.546h.852c-.039-1.098-1.05-1.918-2.457-1.918-1.392 0-2.486.81-2.486 2.031 0 .98.71 1.563 1.847 1.89l.895.255c.767.213 1.448.483 1.448 1.207 0 .796-.767 1.321-1.775 1.321-.867 0-1.634-.383-1.705-1.207h-.909c.085 1.193 1.051 2.003 2.614 2.003 1.676 0 2.628-.924 2.628-2.102 0-1.364-1.293-1.804-2.046-2.003l-.738-.2c-.54-.141-1.407-.425-1.407-1.207 0-.695.64-1.207 1.605-1.207.881 0 1.549.42 1.634 1.136Zm4.573 5.568c1.108 0 1.918-.554 2.173-1.378l-.81-.228c-.212.569-.706.853-1.363.853-.984 0-1.662-.636-1.701-1.804h3.96v-.355c0-2.031-1.208-2.728-2.344-2.728-1.478 0-2.458 1.165-2.458 2.841 0 1.677.966 2.799 2.543 2.799Zm-1.701-3.282c.057-.848.657-1.605 1.616-1.605.909 0 1.491.682 1.491 1.605H37.73Zm6.84 3.296c.951 0 1.448-.512 1.619-.867h.042V17h.838v-3.594c0-1.733-1.32-1.932-2.017-1.932-.824 0-1.761.284-2.187 1.279l.795.284c.185-.398.622-.824 1.42-.824.771 0 1.151.408 1.151 1.108v.028c0 .405-.412.37-1.406.498-1.012.131-2.116.355-2.116 1.605 0 1.065.823 1.676 1.86 1.676Zm.127-.753c-.667 0-1.15-.298-1.15-.88 0-.64.582-.839 1.236-.924.355-.043 1.306-.142 1.448-.313v.768c0 .681-.54 1.349-1.534 1.349ZM48.6 17h.838v-3.452c0-.738.583-1.278 1.378-1.278.224 0 .455.043.511.057v-.853a8.054 8.054 0 0 0-.44-.014c-.653 0-1.222.37-1.42.91h-.057v-.824h-.81V17Zm5.77.114c1.208 0 2.004-.739 2.146-1.705h-.839c-.156.597-.653.952-1.306.952-.995 0-1.634-.824-1.634-2.088 0-1.236.654-2.046 1.634-2.046.738 0 1.179.455 1.306.952h.839c-.142-1.023-1.009-1.705-2.16-1.705-1.477 0-2.457 1.165-2.457 2.827 0 1.634.938 2.813 2.472 2.813Zm4.209-3.395c0-.952.607-1.492 1.434-1.492.789 0 1.265.497 1.265 1.364V17h.838v-3.466c0-1.403-.746-2.06-1.861-2.06-.86 0-1.35.36-1.605.924h-.071v-2.67h-.838V17h.838v-3.281Z" fill="#BDC1C6"/><rect x=".375" y=".375" width="459.25" height="25.25" rx="3.625" stroke="#E4E5E7" stroke-width=".75"/><path d="M.375 27.375h459.25V218c0 .897-.728 1.625-1.625 1.625H2A1.625 1.625 0 0 1 .375 218V27.375Z" fill="#fff" stroke="#E4E5E7" stroke-width=".75"/><rect opacity=".6" x="30" y="37" width="413" height="13" rx="1" fill="#EFF0F1"/><rect opacity=".6" x="30" y="53" width="413" height="13" rx="1" fill="#EFF0F1"/><rect opacity=".6" x="30" y="200" width="77" height="13" rx="1" fill="#EFF0F1"/><path d="M31.64 82h.877v-2.046h1.193c1.35 0 2.017-.815 2.017-1.889 0-1.07-.662-1.883-2.014-1.883H31.64V82Zm.877-2.79v-2.275h1.102c.87 0 1.225.471 1.225 1.13 0 .66-.355 1.145-1.213 1.145h-1.114Zm4.24 2.79h.877v-2.202h1.25L40.066 82h1l-1.29-2.355c.713-.264 1.068-.858 1.068-1.64 0-1.07-.664-1.823-2.014-1.823h-2.074V82Zm.877-2.957v-2.108h1.102c.867 0 1.225.412 1.225 1.07 0 .657-.358 1.038-1.213 1.038h-1.114Zm9.333.048c0-1.86-1.114-2.989-2.62-2.989-1.511 0-2.622 1.128-2.622 2.989 0 1.858 1.11 2.989 2.622 2.989 1.506 0 2.62-1.128 2.62-2.99Zm-.87 0c0 1.418-.75 2.187-1.75 2.187-1.003 0-1.75-.77-1.75-2.187 0-1.418.747-2.188 1.75-2.188 1 0 1.75.77 1.75 2.188ZM49.945 82c1.772 0 2.798-1.1 2.798-2.918 0-1.81-1.026-2.9-2.739-2.9h-1.943V82h1.884Zm-1.006-.767v-4.284h1.011c1.273 0 1.93.761 1.93 2.133 0 1.378-.657 2.151-1.984 2.151h-.957Zm8.637-5.051v3.755c0 .79-.545 1.359-1.432 1.359-.883 0-1.432-.569-1.432-1.359v-3.755h-.878v3.826c0 1.222.915 2.089 2.31 2.089s2.313-.867 2.313-2.088v-3.827h-.881Zm6.99 1.892c-.2-1.245-1.174-1.972-2.404-1.972-1.506 0-2.617 1.128-2.617 2.989 0 1.86 1.106 2.989 2.617 2.989 1.278 0 2.213-.802 2.403-1.952l-.886-.003c-.15.744-.776 1.153-1.511 1.153-.998 0-1.75-.764-1.75-2.187 0-1.412.75-2.188 1.752-2.188.742 0 1.364.418 1.509 1.17h.886Zm.763-1.136h1.812V82h.875v-5.063h1.816v-.755h-4.503v.755ZM74 77.71h.847c-.026-.932-.85-1.608-2.032-1.608-1.167 0-2.062.668-2.062 1.67 0 .81.58 1.285 1.514 1.538l.688.187c.622.165 1.102.37 1.102.886 0 .569-.543.944-1.29.944-.676 0-1.239-.301-1.29-.935h-.88c.056 1.054.872 1.705 2.176 1.705 1.366 0 2.153-.72 2.153-1.705 0-1.048-.934-1.454-1.673-1.636l-.568-.148c-.455-.117-1.06-.33-1.057-.886 0-.495.451-.861 1.168-.861.667 0 1.141.312 1.204.85ZM31.352 187.938h1.813V193h.875v-5.062h1.815v-.756h-4.503v.756ZM36.646 193l.534-1.54h2.273l.531 1.54h.932l-2.094-5.818h-1.014L35.715 193h.931Zm.79-2.278.858-2.483h.046l.857 2.483h-1.76Zm4.32 2.278h3.515v-.756h-2.637v-5.062h-.878V193Zm4.516 0h.878v-1.81l.687-.789L49.718 193h1.057l-2.355-3.199 2.346-2.619h-1.105l-2.44 2.778h-.071v-2.778h-.878V193Zm7.143-5.062h1.812V193h.875v-5.062h1.816v-.756h-4.503v.756Zm10.31 2.153c0-1.861-1.114-2.989-2.62-2.989-1.511 0-2.622 1.128-2.622 2.989 0 1.858 1.11 2.989 2.622 2.989 1.506 0 2.62-1.128 2.62-2.989Zm-.87 0c0 1.418-.75 2.187-1.75 2.187-1.003 0-1.75-.769-1.75-2.187 0-1.418.747-2.188 1.75-2.188 1 0 1.75.77 1.75 2.188Zm3.794-2.153h1.813V193h.875v-5.062h1.815v-.756h-4.503v.756ZM72.147 193h.878v-2.537h2.9V193h.881v-5.818h-.88v2.528h-2.901v-2.528h-.878V193Zm5.938 0h3.681v-.756h-2.804v-1.781h2.58v-.753h-2.58v-1.772h2.77v-.756h-3.647V193Zm7.428 0 .535-1.54h2.272l.532 1.54h.931l-2.093-5.818h-1.015L84.582 193h.931Zm.79-2.278.858-2.483h.046l.858 2.483h-1.762Zm7.985-1.702h.9c-.196-1.134-1.165-1.918-2.42-1.918-1.506 0-2.605 1.134-2.605 2.992 0 1.841 1.068 2.986 2.645 2.986 1.411 0 2.42-.927 2.42-2.395v-.662h-2.287v.724h1.438c-.02.938-.64 1.531-1.572 1.531-1.025 0-1.772-.775-1.772-2.19 0-1.409.753-2.185 1.738-2.185.773 0 1.296.427 1.515 1.117Zm2.054 3.98h3.682v-.756H97.22v-1.781h2.58v-.753h-2.58v-1.772h2.77v-.756h-3.648V193Zm9.517-5.818h-.87v4.273h-.054l-2.96-4.273h-.812V193h.877v-4.267h.054l2.958 4.267h.807v-5.818Zm.993.756h1.813V193h.875v-5.062h1.815v-.756h-4.503v.756Z" fill="#5F6368"/><rect opacity=".6" x="30" y="89" width="77" height="86" rx="2" fill="#EFF0F1"/><rect opacity=".6" x="114" y="89" width="77" height="86" rx="2" fill="#EFF0F1"/><rect opacity=".6" x="198" y="89" width="77" height="86" rx="2" fill="#EFF0F1"/><rect opacity=".6" x="282" y="89" width="77" height="86" rx="2" fill="#EFF0F1"/><rect opacity=".6" x="366" y="89" width="77" height="86" rx="2" fill="#EFF0F1"/><g filter="url(#a)"><rect x="121" y="191" width="135" height="34" rx="4" fill="#202124"/><path d="m137.651 212 .6-1.793h2.735l.603 1.793h1.407l-2.564-7.273h-1.627l-2.56 7.273h1.406Zm.956-2.852.983-2.929h.057l.984 2.929h-2.024Zm7.503 2.959c1.371 0 2.244-.814 2.337-1.971h-1.229c-.11.586-.533.923-1.097.923-.803 0-1.321-.671-1.321-1.786 0-1.101.529-1.762 1.321-1.762.618 0 .998.398 1.097.924h1.229c-.089-1.183-1.012-1.961-2.344-1.961-1.598 0-2.607 1.155-2.607 2.82 0 1.651.984 2.813 2.614 2.813Zm6.116-5.562h-1.076v-1.306h-1.285v1.306h-.775v.995h.775v3.032c-.008 1.027.738 1.531 1.704 1.503.366-.011.618-.082.756-.128l-.216-1.005a1.602 1.602 0 0 1-.377.049c-.323 0-.582-.113-.582-.632v-2.819h1.076v-.995Zm1.075 5.455h1.286v-5.455h-1.286V212Zm.646-6.229c.409 0 .743-.312.743-.696 0-.387-.334-.699-.743-.699-.411 0-.745.312-.745.699 0 .384.334.696.745.696Zm4.341 6.336c1.598 0 2.613-1.126 2.613-2.813 0-1.69-1.015-2.82-2.613-2.82s-2.614 1.13-2.614 2.82c0 1.687 1.016 2.813 2.614 2.813Zm.007-1.03c-.884 0-1.318-.789-1.318-1.787 0-.997.434-1.796 1.318-1.796.87 0 1.303.799 1.303 1.796 0 .998-.433 1.787-1.303 1.787Zm4.983-2.273c0-.788.476-1.243 1.154-1.243.664 0 1.062.437 1.062 1.165V212h1.285v-3.473c.004-1.307-.742-2.053-1.867-2.053-.817 0-1.378.391-1.627.998h-.064v-.927h-1.228V212h1.285v-3.196Zm9.119-.817c-.177-.923-.916-1.513-2.194-1.513-1.314 0-2.209.647-2.205 1.655-.004.796.486 1.321 1.534 1.538l.93.195c.501.11.735.313.735.622 0 .373-.405.653-1.016.653-.589 0-.973-.256-1.083-.746l-1.253.121c.16 1.001 1.001 1.595 2.34 1.595 1.364 0 2.326-.707 2.33-1.741-.004-.777-.505-1.253-1.535-1.477l-.93-.199c-.554-.124-.774-.316-.771-.632-.003-.369.405-.625.942-.625.593 0 .905.323 1.004.682l1.172-.128Zm5.228 4.123c.855 0 1.367-.401 1.601-.859h.043V212h1.236v-3.651c0-1.441-1.176-1.875-2.216-1.875-1.147 0-2.028.512-2.312 1.506l1.2.171c.128-.373.49-.693 1.119-.693.596 0 .923.305.923.842v.021c0 .369-.387.387-1.349.49-1.059.114-2.071.43-2.071 1.658 0 1.073.785 1.641 1.826 1.641Zm.333-.945c-.536 0-.919-.245-.919-.717 0-.493.429-.699 1.005-.781.337-.046 1.012-.131 1.179-.266v.642c0 .608-.49 1.122-1.265 1.122Zm6.563-4.62h-1.076v-1.306h-1.286v1.306h-.774v.995h.774v3.032c-.007 1.027.739 1.531 1.705 1.503.366-.011.618-.082.756-.128l-.216-1.005a1.602 1.602 0 0 1-.377.049c-.323 0-.582-.113-.582-.632v-2.819h1.076v-.995Zm6.279 0h-1.076v-1.306h-1.285v1.306h-.774v.995h.774v3.032c-.007 1.027.738 1.531 1.704 1.503.366-.011.618-.082.757-.128l-.217-1.005a1.6 1.6 0 0 1-.376.049c-.324 0-.583-.113-.583-.632v-2.819h1.076v-.995Zm2.478 2.259c0-.788.49-1.243 1.179-1.243.675 0 1.072.43 1.072 1.165V212h1.286v-3.473c0-1.317-.746-2.053-1.879-2.053-.838 0-1.37.38-1.622.998h-.064v-2.745h-1.257V212h1.285v-3.196Zm7.262 3.303c1.271 0 2.145-.622 2.372-1.57l-1.2-.135c-.174.462-.6.703-1.154.703-.831 0-1.382-.547-1.392-1.481h3.8v-.394c0-1.914-1.151-2.756-2.493-2.756-1.563 0-2.582 1.147-2.582 2.831 0 1.711 1.005 2.802 2.649 2.802Zm-1.371-3.349c.039-.696.554-1.282 1.321-1.282.739 0 1.236.54 1.243 1.282h-2.564ZM206.59 212h1.265v-.859h.074c.203.397.625.955 1.563.955 1.285 0 2.248-1.019 2.248-2.816 0-1.818-.991-2.806-2.252-2.806-.962 0-1.364.579-1.559.973h-.053v-2.72h-1.286V212Zm1.261-2.727c0-1.059.455-1.744 1.282-1.744.856 0 1.296.728 1.296 1.744 0 1.022-.447 1.768-1.296 1.768-.82 0-1.282-.71-1.282-1.768Zm7.361 2.834c1.598 0 2.613-1.126 2.613-2.813 0-1.69-1.015-2.82-2.613-2.82s-2.614 1.13-2.614 2.82c0 1.687 1.016 2.813 2.614 2.813Zm.007-1.03c-.884 0-1.318-.789-1.318-1.787 0-.997.434-1.796 1.318-1.796.87 0 1.303.799 1.303 1.796 0 .998-.433 1.787-1.303 1.787Zm6.421-4.532h-1.076v-1.306h-1.285v1.306h-.775v.995h.775v3.032c-.008 1.027.738 1.531 1.704 1.503.366-.011.618-.082.757-.128l-.217-1.005a1.602 1.602 0 0 1-.377.049c-.323 0-.582-.113-.582-.632v-2.819h1.076v-.995Zm3.799 0h-1.076v-1.306h-1.286v1.306h-.774v.995h.774v3.032c-.007 1.027.739 1.531 1.705 1.503.366-.011.618-.082.756-.128l-.216-1.005a1.602 1.602 0 0 1-.377.049c-.323 0-.582-.113-.582-.632v-2.819h1.076v-.995Zm3.396 5.562c1.598 0 2.613-1.126 2.613-2.813 0-1.69-1.015-2.82-2.613-2.82s-2.614 1.13-2.614 2.82c0 1.687 1.016 2.813 2.614 2.813Zm.007-1.03c-.884 0-1.318-.789-1.318-1.787 0-.997.434-1.796 1.318-1.796.87 0 1.303.799 1.303 1.796 0 .998-.433 1.787-1.303 1.787Zm3.697.923h1.286v-3.317c0-.671.447-1.125 1.001-1.125.544 0 .917.365.917.926V212h1.26v-3.402c0-.614.366-1.04.987-1.04.519 0 .931.305.931.98V212h1.289v-3.661c0-1.218-.703-1.865-1.705-1.865-.792 0-1.395.391-1.637.998h-.057c-.209-.618-.738-.998-1.473-.998-.732 0-1.279.377-1.506.998h-.064v-.927h-1.229V212Z" fill="#fff"/></g><path fill="#202124" d="m121 200 7 7-7 7-7-7z"/><defs><filter id="a" x="117" y="191" width="143" height="42" filterUnits="userSpaceOnUse" color-interpolation-filters="sRGB"><feFlood flood-opacity="0" result="BackgroundImageFix"/><feColorMatrix in="SourceAlpha" values="0 0 0 0 0 0 0 0 0 0 0 0 0 0 0 0 0 0 127 0"/><feOffset dy="4"/><feGaussianBlur stdDeviation="2"/><feColorMatrix values="0 0 0 0 0.12549 0 0 0 0 0.129412 0 0 0 0 0.141176 0 0 0 0.2 0"/><feBlend in2="BackgroundImageFix" result="effect1_dropShadow"/><feBlend in="SourceGraphic" in2="effect1_dropShadow" result="shape"/></filter></defs></svg>