<svg width="408" height="255" viewBox="0 0 408 255" fill="none" xmlns="http://www.w3.org/2000/svg">
<path d="M11.9176 229L12.9979 225.772H17.9197L19.0064 229H21.5376L16.9226 215.909H13.995L9.38636 229H11.9176ZM13.6371 223.867L15.4077 218.594H15.5099L17.2805 223.867H13.6371ZM28.0096 219.182H25.9705V218.408C25.9705 217.641 26.2901 217.213 27.1531 217.213C27.5174 217.213 27.8242 217.296 28.016 217.354L28.4826 215.564C28.1822 215.462 27.5238 215.295 26.7248 215.295C25.0181 215.295 23.6566 216.273 23.6566 218.255V219.182H22.2056V220.972H23.6566V229H25.9705V220.972H28.0096V219.182ZM34.7244 219.182H32.7876V216.83H30.4737V219.182H29.0803V220.972H30.4737V226.43C30.4609 228.278 31.8033 229.185 33.5419 229.134C34.2003 229.115 34.6541 228.987 34.9034 228.904L34.5135 227.095C34.3857 227.127 34.1236 227.185 33.8359 227.185C33.2543 227.185 32.7876 226.98 32.7876 226.047V220.972H34.7244V219.182ZM40.9007 229.192C43.1891 229.192 44.7615 228.073 45.1706 226.366L43.0101 226.124C42.6969 226.955 41.9299 227.389 40.9327 227.389C39.437 227.389 38.4462 226.405 38.427 224.724H45.2665V224.014C45.2665 220.569 43.1955 219.054 40.7793 219.054C37.9668 219.054 36.1323 221.119 36.1323 224.148C36.1323 227.229 37.9412 229.192 40.9007 229.192ZM38.4334 223.164C38.5037 221.911 39.4306 220.857 40.8113 220.857C42.1408 220.857 43.0357 221.828 43.0485 223.164H38.4334ZM47.2241 229H49.538V223.228C49.538 221.982 50.4776 221.099 51.7496 221.099C52.1396 221.099 52.6254 221.17 52.8235 221.234V219.105C52.6126 219.067 52.2482 219.041 51.9925 219.041C50.8675 219.041 49.9279 219.68 49.57 220.818H49.4677V219.182H47.2241V229ZM66.5856 221.777C66.266 220.115 64.9364 219.054 62.6353 219.054C60.2702 219.054 58.6594 220.217 58.6658 222.033C58.6594 223.464 59.5415 224.411 61.4272 224.8L63.1019 225.152C64.0032 225.35 64.4251 225.714 64.4251 226.271C64.4251 226.942 63.6964 227.447 62.5969 227.447C61.5359 227.447 60.8455 226.987 60.6474 226.104L58.391 226.322C58.6786 228.124 60.1935 229.192 62.6033 229.192C65.0579 229.192 66.7901 227.92 66.7965 226.06C66.7901 224.66 65.8888 223.803 64.0352 223.401L62.3604 223.043C61.3633 222.819 60.967 222.474 60.9734 221.905C60.967 221.24 61.7021 220.78 62.6673 220.78C63.7347 220.78 64.2972 221.362 64.4762 222.007L66.5856 221.777ZM74.9624 224.871C74.9624 226.366 73.8949 227.108 72.8722 227.108C71.7599 227.108 71.0185 226.322 71.0185 225.075V219.182H68.7045V225.433C68.7045 227.792 70.0469 229.128 71.9773 229.128C73.4474 229.128 74.483 228.354 74.9304 227.255H75.0327V229H77.2763V219.182H74.9624V224.871ZM79.758 229H82.0336V227.453H82.1678C82.5321 228.169 83.2928 229.173 84.9803 229.173C87.2942 229.173 89.0265 227.338 89.0265 224.104C89.0265 220.831 87.2431 219.054 84.9739 219.054C83.2417 219.054 82.5194 220.096 82.1678 220.805H82.0719V215.909H79.758V229ZM82.0272 224.091C82.0272 222.186 82.8453 220.952 84.3347 220.952C85.8752 220.952 86.6678 222.263 86.6678 224.091C86.6678 225.932 85.8624 227.274 84.3347 227.274C82.8581 227.274 82.0272 225.996 82.0272 224.091ZM98.7536 221.777C98.4339 220.115 97.1044 219.054 94.8033 219.054C92.4382 219.054 90.8274 220.217 90.8338 222.033C90.8274 223.464 91.7095 224.411 93.5952 224.8L95.2699 225.152C96.1712 225.35 96.593 225.714 96.593 226.271C96.593 226.942 95.8643 227.447 94.7649 227.447C93.7038 227.447 93.0135 226.987 92.8153 226.104L90.5589 226.322C90.8466 228.124 92.3615 229.192 94.7713 229.192C97.2259 229.192 98.9581 227.92 98.9645 226.06C98.9581 224.66 98.0568 223.803 96.2031 223.401L94.5284 223.043C93.5312 222.819 93.1349 222.474 93.1413 221.905C93.1349 221.24 93.87 220.78 94.8352 220.78C95.9027 220.78 96.4652 221.362 96.6442 222.007L98.7536 221.777ZM105.155 229.192C107.623 229.192 109.195 227.728 109.361 225.644H107.15C106.951 226.699 106.191 227.306 105.174 227.306C103.73 227.306 102.797 226.098 102.797 224.091C102.797 222.109 103.749 220.92 105.174 220.92C106.287 220.92 106.971 221.636 107.15 222.582H109.361C109.201 220.454 107.539 219.054 105.142 219.054C102.266 219.054 100.451 221.131 100.451 224.129C100.451 227.102 102.221 229.192 105.155 229.192ZM111.261 229H113.575V223.228C113.575 221.982 114.515 221.099 115.787 221.099C116.177 221.099 116.662 221.17 116.861 221.234V219.105C116.65 219.067 116.285 219.041 116.03 219.041C114.905 219.041 113.965 219.68 113.607 220.818H113.505V219.182H111.261V229ZM118.398 229H120.712V219.182H118.398V229ZM119.561 217.788C120.296 217.788 120.897 217.226 120.897 216.536C120.897 215.839 120.296 215.276 119.561 215.276C118.82 215.276 118.219 215.839 118.219 216.536C118.219 217.226 118.82 217.788 119.561 217.788ZM123.194 229H125.469V227.453H125.603C125.968 228.169 126.728 229.173 128.416 229.173C130.73 229.173 132.462 227.338 132.462 224.104C132.462 220.831 130.679 219.054 128.409 219.054C126.677 219.054 125.955 220.096 125.603 220.805H125.507V215.909H123.194V229ZM125.463 224.091C125.463 222.186 126.281 220.952 127.77 220.952C129.311 220.952 130.103 222.263 130.103 224.091C130.103 225.932 129.298 227.274 127.77 227.274C126.294 227.274 125.463 225.996 125.463 224.091ZM134.429 229H136.743V219.182H134.429V229ZM135.593 217.788C136.328 217.788 136.928 217.226 136.928 216.536C136.928 215.839 136.328 215.276 135.593 215.276C134.851 215.276 134.25 215.839 134.25 216.536C134.25 217.226 134.851 217.788 135.593 217.788ZM141.436 223.247C141.436 221.828 142.293 221.01 143.514 221.01C144.709 221.01 145.425 221.796 145.425 223.107V229H147.739V222.749C147.745 220.396 146.403 219.054 144.377 219.054C142.907 219.054 141.897 219.757 141.449 220.85H141.334V219.182H139.123V229H141.436V223.247ZM154.361 232.886C157.014 232.886 158.97 231.672 158.97 229.16V219.182H156.688V220.805H156.56C156.208 220.096 155.473 219.054 153.741 219.054C151.472 219.054 149.689 220.831 149.689 224.059C149.689 227.261 151.472 228.859 153.735 228.859C155.416 228.859 156.202 227.958 156.56 227.236H156.675V229.096C156.675 230.54 155.716 231.135 154.4 231.135C153.006 231.135 152.392 230.477 152.111 229.901L150.027 230.406C150.449 231.781 151.862 232.886 154.361 232.886ZM154.38 227.044C152.853 227.044 152.047 225.855 152.047 224.046C152.047 222.263 152.84 220.952 154.38 220.952C155.87 220.952 156.688 222.186 156.688 224.046C156.688 225.919 155.857 227.044 154.38 227.044ZM170.709 219.182H168.772V216.83H166.458V219.182H165.065V220.972H166.458V226.43C166.445 228.278 167.788 229.185 169.526 229.134C170.185 229.115 170.638 228.987 170.888 228.904L170.498 227.095C170.37 227.127 170.108 227.185 169.82 227.185C169.239 227.185 168.772 226.98 168.772 226.047V220.972H170.709V219.182ZM176.821 229.192C179.698 229.192 181.526 227.165 181.526 224.129C181.526 221.087 179.698 219.054 176.821 219.054C173.945 219.054 172.117 221.087 172.117 224.129C172.117 227.165 173.945 229.192 176.821 229.192ZM176.834 227.338C175.242 227.338 174.463 225.919 174.463 224.123C174.463 222.327 175.242 220.888 176.834 220.888C178.4 220.888 179.18 222.327 179.18 224.123C179.18 225.919 178.4 227.338 176.834 227.338ZM190.78 229.198C192.32 229.198 193.241 228.476 193.663 227.651H193.739V229H195.964V222.429C195.964 219.834 193.848 219.054 191.975 219.054C189.911 219.054 188.325 219.974 187.814 221.764L189.974 222.071C190.205 221.4 190.857 220.825 191.988 220.825C193.062 220.825 193.65 221.374 193.65 222.339V222.378C193.65 223.043 192.953 223.075 191.221 223.26C189.316 223.464 187.494 224.033 187.494 226.245C187.494 228.175 188.907 229.198 190.78 229.198ZM191.381 227.498C190.415 227.498 189.725 227.057 189.725 226.207C189.725 225.318 190.499 224.947 191.534 224.8C192.141 224.717 193.356 224.564 193.656 224.321V225.478C193.656 226.571 192.774 227.498 191.381 227.498ZM200.604 223.247C200.604 221.828 201.461 221.01 202.682 221.01C203.877 221.01 204.593 221.796 204.593 223.107V229H206.907V222.749C206.913 220.396 205.571 219.054 203.545 219.054C202.075 219.054 201.065 219.757 200.617 220.85H200.502V219.182H198.29V229H200.604V223.247ZM210.346 232.682C212.148 232.682 213.19 231.755 213.746 230.189L217.69 219.195L215.217 219.182L212.947 226.597H212.845L210.582 219.182H208.128L211.688 229.205L211.49 229.735C211.062 230.854 210.384 230.93 209.374 230.636L208.837 232.439C209.151 232.567 209.713 232.682 210.346 232.682ZM228.044 229.192C230.92 229.192 232.748 227.165 232.748 224.129C232.748 221.087 230.92 219.054 228.044 219.054C225.167 219.054 223.339 221.087 223.339 224.129C223.339 227.165 225.167 229.192 228.044 229.192ZM228.057 227.338C226.465 227.338 225.685 225.919 225.685 224.123C225.685 222.327 226.465 220.888 228.057 220.888C229.623 220.888 230.403 222.327 230.403 224.123C230.403 225.919 229.623 227.338 228.057 227.338ZM239.685 219.182H237.646V218.408C237.646 217.641 237.966 217.213 238.829 217.213C239.193 217.213 239.5 217.296 239.692 217.354L240.158 215.564C239.858 215.462 239.2 215.295 238.401 215.295C236.694 215.295 235.332 216.273 235.332 218.255V219.182H233.881V220.972H235.332V229H237.646V220.972H239.685V219.182ZM250.865 219.182H248.928V216.83H246.614V219.182H245.221V220.972H246.614V226.43C246.602 228.278 247.944 229.185 249.683 229.134C250.341 229.115 250.795 228.987 251.044 228.904L250.654 227.095C250.526 227.127 250.264 227.185 249.977 227.185C249.395 227.185 248.928 226.98 248.928 226.047V220.972H250.865V219.182ZM255.325 223.247C255.325 221.828 256.207 221.01 257.447 221.01C258.662 221.01 259.378 221.783 259.378 223.107V229H261.692V222.749C261.692 220.377 260.349 219.054 258.31 219.054C256.802 219.054 255.843 219.738 255.389 220.85H255.274V215.909H253.011V229H255.325V223.247ZM268.397 229.192C270.685 229.192 272.258 228.073 272.667 226.366L270.506 226.124C270.193 226.955 269.426 227.389 268.429 227.389C266.933 227.389 265.942 226.405 265.923 224.724H272.763V224.014C272.763 220.569 270.692 219.054 268.275 219.054C265.463 219.054 263.628 221.119 263.628 224.148C263.628 227.229 265.437 229.192 268.397 229.192ZM265.93 223.164C266 221.911 266.927 220.857 268.307 220.857C269.637 220.857 270.532 221.828 270.545 223.164H265.93ZM279.185 232.682H281.499V227.453H281.595C281.959 228.169 282.72 229.173 284.407 229.173C286.721 229.173 288.453 227.338 288.453 224.104C288.453 220.831 286.67 219.054 284.401 219.054C282.669 219.054 281.946 220.096 281.595 220.805H281.461V219.182H279.185V232.682ZM281.454 224.091C281.454 222.186 282.272 220.952 283.762 220.952C285.302 220.952 286.095 222.263 286.095 224.091C286.095 225.932 285.289 227.274 283.762 227.274C282.285 227.274 281.454 225.996 281.454 224.091ZM292.749 215.909H290.435V229H292.749V215.909ZM297.954 229.198C299.494 229.198 300.415 228.476 300.836 227.651H300.913V229H303.138V222.429C303.138 219.834 301.022 219.054 299.149 219.054C297.084 219.054 295.499 219.974 294.988 221.764L297.148 222.071C297.378 221.4 298.03 220.825 299.162 220.825C300.236 220.825 300.824 221.374 300.824 222.339V222.378C300.824 223.043 300.127 223.075 298.395 223.26C296.49 223.464 294.668 224.033 294.668 226.245C294.668 228.175 296.081 229.198 297.954 229.198ZM298.555 227.498C297.589 227.498 296.899 227.057 296.899 226.207C296.899 225.318 297.672 224.947 298.708 224.8C299.315 224.717 300.53 224.564 300.83 224.321V225.478C300.83 226.571 299.948 227.498 298.555 227.498ZM307.778 223.247C307.778 221.828 308.635 221.01 309.856 221.01C311.051 221.01 311.767 221.796 311.767 223.107V229H314.081V222.749C314.087 220.396 312.745 219.054 310.719 219.054C309.248 219.054 308.238 219.757 307.791 220.85H307.676V219.182H305.464V229H307.778V223.247ZM324.193 221.777C323.873 220.115 322.544 219.054 320.243 219.054C317.878 219.054 316.267 220.217 316.273 222.033C316.267 223.464 317.149 224.411 319.035 224.8L320.709 225.152C321.611 225.35 322.032 225.714 322.032 226.271C322.032 226.942 321.304 227.447 320.204 227.447C319.143 227.447 318.453 226.987 318.255 226.104L315.998 226.322C316.286 228.124 317.801 229.192 320.211 229.192C322.665 229.192 324.398 227.92 324.404 226.06C324.398 224.66 323.496 223.803 321.643 223.401L319.968 223.043C318.971 222.819 318.574 222.474 318.581 221.905C318.574 221.24 319.309 220.78 320.275 220.78C321.342 220.78 321.905 221.362 322.084 222.007L324.193 221.777ZM335.059 229.192C337.936 229.192 339.764 227.165 339.764 224.129C339.764 221.087 337.936 219.054 335.059 219.054C332.183 219.054 330.355 221.087 330.355 224.129C330.355 227.165 332.183 229.192 335.059 229.192ZM335.072 227.338C333.481 227.338 332.701 225.919 332.701 224.123C332.701 222.327 333.481 220.888 335.072 220.888C336.638 220.888 337.418 222.327 337.418 224.123C337.418 225.919 336.638 227.338 335.072 227.338ZM346.701 219.182H344.662V218.408C344.662 217.641 344.982 217.213 345.844 217.213C346.209 217.213 346.516 217.296 346.707 217.354L347.174 215.564C346.874 215.462 346.215 215.295 345.416 215.295C343.71 215.295 342.348 216.273 342.348 218.255V219.182H340.897V220.972H342.348V229H344.662V220.972H346.701V219.182ZM353.486 219.182H351.447V218.408C351.447 217.641 351.767 217.213 352.63 217.213C352.994 217.213 353.301 217.296 353.493 217.354L353.959 215.564C353.659 215.462 353 215.295 352.201 215.295C350.495 215.295 349.133 216.273 349.133 218.255V219.182H347.682V220.972H349.133V229H351.447V220.972H353.486V219.182ZM359.276 229.192C361.564 229.192 363.137 228.073 363.546 226.366L361.385 226.124C361.072 226.955 360.305 227.389 359.308 227.389C357.812 227.389 356.821 226.405 356.802 224.724H363.642V224.014C363.642 220.569 361.57 219.054 359.154 219.054C356.342 219.054 354.507 221.119 354.507 224.148C354.507 227.229 356.316 229.192 359.276 229.192ZM356.808 223.164C356.879 221.911 357.806 220.857 359.186 220.857C360.516 220.857 361.411 221.828 361.423 223.164H356.808ZM365.599 229H367.913V223.228C367.913 221.982 368.853 221.099 370.125 221.099C370.515 221.099 371 221.17 371.199 221.234V219.105C370.988 219.067 370.623 219.041 370.368 219.041C369.243 219.041 368.303 219.68 367.945 220.818H367.843V219.182H365.599V229ZM376.678 229.192C378.966 229.192 380.539 228.073 380.948 226.366L378.787 226.124C378.474 226.955 377.707 227.389 376.71 227.389C375.214 227.389 374.224 226.405 374.204 224.724H381.044V224.014C381.044 220.569 378.973 219.054 376.557 219.054C373.744 219.054 371.91 221.119 371.91 224.148C371.91 227.229 373.719 229.192 376.678 229.192ZM374.211 223.164C374.281 221.911 375.208 220.857 376.589 220.857C377.918 220.857 378.813 221.828 378.826 223.164H374.211ZM386.645 229.173C388.332 229.173 389.093 228.169 389.457 227.453H389.598V229H391.874V215.909H389.553V220.805H389.457C389.106 220.096 388.384 219.054 386.651 219.054C384.382 219.054 382.599 220.831 382.599 224.104C382.599 227.338 384.331 229.173 386.645 229.173ZM387.29 227.274C385.763 227.274 384.957 225.932 384.957 224.091C384.957 222.263 385.75 220.952 387.29 220.952C388.78 220.952 389.598 222.186 389.598 224.091C389.598 225.996 388.767 227.274 387.29 227.274ZM397.056 227.21H395.01L394.966 227.926C394.857 229.658 394.403 231.423 394.218 232.196H395.778C396.084 231.391 396.794 229.524 396.973 227.913L397.056 227.21ZM77.0685 254.682C78.8711 254.682 79.913 253.755 80.4691 252.189L84.413 241.195L81.9393 241.182L79.6701 248.597H79.5678L77.305 241.182H74.8505L78.4109 251.205L78.2127 251.735C77.7844 252.854 77.1069 252.93 76.0969 252.636L75.56 254.439C75.8732 254.567 76.4357 254.682 77.0685 254.682ZM89.9677 251.192C92.8441 251.192 94.6722 249.165 94.6722 246.129C94.6722 243.087 92.8441 241.054 89.9677 241.054C87.0913 241.054 85.2631 243.087 85.2631 246.129C85.2631 249.165 87.0913 251.192 89.9677 251.192ZM89.9805 249.338C88.3888 249.338 87.609 247.919 87.609 246.123C87.609 244.327 88.3888 242.888 89.9805 242.888C91.5465 242.888 92.3263 244.327 92.3263 246.123C92.3263 247.919 91.5465 249.338 89.9805 249.338ZM102.894 246.871C102.894 248.366 101.827 249.108 100.804 249.108C99.6916 249.108 98.9501 248.322 98.9501 247.075V241.182H96.6362V247.433C96.6362 249.792 97.9785 251.128 99.9089 251.128C101.379 251.128 102.415 250.354 102.862 249.255H102.964V251H105.208V241.182H102.894V246.871ZM107.587 251H109.901V245.228C109.901 243.982 110.841 243.099 112.113 243.099C112.503 243.099 112.989 243.17 113.187 243.234V241.105C112.976 241.067 112.612 241.041 112.356 241.041C111.231 241.041 110.291 241.68 109.933 242.818H109.831V241.182H107.587V251ZM119.189 251H121.503V241.182H119.189V251ZM120.352 239.788C121.087 239.788 121.688 239.226 121.688 238.536C121.688 237.839 121.087 237.276 120.352 237.276C119.611 237.276 119.01 237.839 119.01 238.536C119.01 239.226 119.611 239.788 120.352 239.788ZM126.196 245.247C126.196 243.828 127.053 243.01 128.274 243.01C129.469 243.01 130.185 243.796 130.185 245.107V251H132.499V244.749C132.505 242.396 131.163 241.054 129.137 241.054C127.666 241.054 126.656 241.757 126.209 242.85H126.094V241.182H123.882V251H126.196V245.247ZM143.269 241.182H140.808L138.546 248.475H138.443L136.187 241.182H133.72L137.216 251H139.773L143.269 241.182ZM148.819 251.192C151.696 251.192 153.524 249.165 153.524 246.129C153.524 243.087 151.696 241.054 148.819 241.054C145.943 241.054 144.115 243.087 144.115 246.129C144.115 249.165 145.943 251.192 148.819 251.192ZM148.832 249.338C147.24 249.338 146.461 247.919 146.461 246.123C146.461 244.327 147.24 242.888 148.832 242.888C150.398 242.888 151.178 244.327 151.178 246.123C151.178 247.919 150.398 249.338 148.832 249.338ZM155.488 251H157.802V241.182H155.488V251ZM156.651 239.788C157.386 239.788 157.987 239.226 157.987 238.536C157.987 237.839 157.386 237.276 156.651 237.276C155.91 237.276 155.309 237.839 155.309 238.536C155.309 239.226 155.91 239.788 156.651 239.788ZM164.464 251.192C166.931 251.192 168.504 249.728 168.67 247.644H166.458C166.26 248.699 165.499 249.306 164.483 249.306C163.038 249.306 162.105 248.098 162.105 246.091C162.105 244.109 163.058 242.92 164.483 242.92C165.595 242.92 166.279 243.636 166.458 244.582H168.67C168.51 242.454 166.848 241.054 164.451 241.054C161.575 241.054 159.759 243.131 159.759 246.129C159.759 249.102 161.53 251.192 164.464 251.192ZM174.916 251.192C177.205 251.192 178.777 250.073 179.186 248.366L177.026 248.124C176.713 248.955 175.945 249.389 174.948 249.389C173.453 249.389 172.462 248.405 172.443 246.724H179.282V246.014C179.282 242.569 177.211 241.054 174.795 241.054C171.982 241.054 170.148 243.119 170.148 246.148C170.148 249.229 171.957 251.192 174.916 251.192ZM172.449 245.164C172.519 243.911 173.446 242.857 174.827 242.857C176.156 242.857 177.051 243.828 177.064 245.164H172.449ZM189 243.777C188.68 242.115 187.35 241.054 185.049 241.054C182.684 241.054 181.074 242.217 181.08 244.033C181.074 245.464 181.956 246.411 183.841 246.8L185.516 247.152C186.417 247.35 186.839 247.714 186.839 248.271C186.839 248.942 186.11 249.447 185.011 249.447C183.95 249.447 183.26 248.987 183.061 248.104L180.805 248.322C181.093 250.124 182.608 251.192 185.017 251.192C187.472 251.192 189.204 249.92 189.211 248.06C189.204 246.66 188.303 245.803 186.449 245.401L184.775 245.043C183.777 244.819 183.381 244.474 183.387 243.905C183.381 243.24 184.116 242.78 185.081 242.78C186.149 242.78 186.711 243.362 186.89 244.007L189 243.777ZM197.61 251H200.026L201.867 244.365H202.001L203.842 251H206.252L209.032 241.182H206.667L204.967 248.047H204.871L203.107 241.182H200.774L199.01 248.085H198.92L197.194 241.182H194.836L197.61 251ZM210.648 251H212.962V241.182H210.648V251ZM211.811 239.788C212.546 239.788 213.147 239.226 213.147 238.536C213.147 237.839 212.546 237.276 211.811 237.276C211.07 237.276 210.469 237.839 210.469 238.536C210.469 239.226 211.07 239.788 211.811 239.788ZM217.655 237.909H215.341V251H217.655V237.909ZM222.349 237.909H220.035V251H222.349V237.909ZM232.018 251.198C233.559 251.198 234.479 250.476 234.901 249.651H234.978V251H237.202V244.429C237.202 241.834 235.086 241.054 233.213 241.054C231.149 241.054 229.564 241.974 229.052 243.764L231.213 244.071C231.443 243.4 232.095 242.825 233.226 242.825C234.3 242.825 234.888 243.374 234.888 244.339V244.378C234.888 245.043 234.191 245.075 232.459 245.26C230.554 245.464 228.733 246.033 228.733 248.245C228.733 250.175 230.145 251.198 232.018 251.198ZM232.619 249.498C231.654 249.498 230.963 249.057 230.963 248.207C230.963 247.318 231.737 246.947 232.772 246.8C233.38 246.717 234.594 246.564 234.895 246.321V247.478C234.895 248.571 234.012 249.498 232.619 249.498ZM239.529 254.682H241.843V249.453H241.939C242.303 250.169 243.064 251.173 244.751 251.173C247.065 251.173 248.797 249.338 248.797 246.104C248.797 242.831 247.014 241.054 244.745 241.054C243.012 241.054 242.29 242.096 241.939 242.805H241.804V241.182H239.529V254.682ZM241.798 246.091C241.798 244.186 242.616 242.952 244.105 242.952C245.646 242.952 246.439 244.263 246.439 246.091C246.439 247.932 245.633 249.274 244.105 249.274C242.629 249.274 241.798 247.996 241.798 246.091ZM250.779 254.682H253.093V249.453H253.189C253.553 250.169 254.314 251.173 256.001 251.173C258.315 251.173 260.047 249.338 260.047 246.104C260.047 242.831 258.264 241.054 255.995 241.054C254.262 241.054 253.54 242.096 253.189 242.805H253.054V241.182H250.779V254.682ZM253.048 246.091C253.048 244.186 253.866 242.952 255.355 242.952C256.896 242.952 257.689 244.263 257.689 246.091C257.689 247.932 256.883 249.274 255.355 249.274C253.879 249.274 253.048 247.996 253.048 246.091ZM266.375 251.192C268.664 251.192 270.236 250.073 270.645 248.366L268.485 248.124C268.172 248.955 267.404 249.389 266.407 249.389C264.912 249.389 263.921 248.405 263.902 246.724H270.741V246.014C270.741 242.569 268.67 241.054 266.254 241.054C263.441 241.054 261.607 243.119 261.607 246.148C261.607 249.229 263.416 251.192 266.375 251.192ZM263.908 245.164C263.978 243.911 264.905 242.857 266.286 242.857C267.615 242.857 268.51 243.828 268.523 245.164H263.908ZM275.524 251.198C277.064 251.198 277.985 250.476 278.407 249.651H278.483V251H280.708V244.429C280.708 241.834 278.592 241.054 276.719 241.054C274.655 241.054 273.069 241.974 272.558 243.764L274.719 244.071C274.949 243.4 275.601 242.825 276.732 242.825C277.806 242.825 278.394 243.374 278.394 244.339V244.378C278.394 245.043 277.697 245.075 275.965 245.26C274.06 245.464 272.238 246.033 272.238 248.245C272.238 250.175 273.651 251.198 275.524 251.198ZM276.125 249.498C275.16 249.498 274.469 249.057 274.469 248.207C274.469 247.318 275.243 246.947 276.278 246.8C276.885 246.717 278.1 246.564 278.4 246.321V247.478C278.4 248.571 277.518 249.498 276.125 249.498ZM283.035 251H285.349V245.228C285.349 243.982 286.288 243.099 287.56 243.099C287.95 243.099 288.436 243.17 288.634 243.234V241.105C288.423 241.067 288.059 241.041 287.803 241.041C286.678 241.041 285.738 241.68 285.381 242.818H285.278V241.182H283.035V251ZM296.95 245.247C296.95 243.828 297.832 243.01 299.072 243.01C300.287 243.01 301.003 243.783 301.003 245.107V251H303.317V244.749C303.317 242.377 301.974 241.054 299.935 241.054C298.427 241.054 297.468 241.738 297.014 242.85H296.899V237.909H294.636V251H296.95V245.247ZM310.022 251.192C312.31 251.192 313.883 250.073 314.292 248.366L312.131 248.124C311.818 248.955 311.051 249.389 310.054 249.389C308.558 249.389 307.567 248.405 307.548 246.724H314.388V246.014C314.388 242.569 312.317 241.054 309.9 241.054C307.088 241.054 305.253 243.119 305.253 246.148C305.253 249.229 307.062 251.192 310.022 251.192ZM307.555 245.164C307.625 243.911 308.552 242.857 309.932 242.857C311.262 242.857 312.157 243.828 312.17 245.164H307.555ZM316.345 251H318.659V245.228C318.659 243.982 319.599 243.099 320.871 243.099C321.261 243.099 321.746 243.17 321.945 243.234V241.105C321.734 241.067 321.369 241.041 321.114 241.041C319.989 241.041 319.049 241.68 318.691 242.818H318.589V241.182H316.345V251ZM327.424 251.192C329.713 251.192 331.285 250.073 331.694 248.366L329.534 248.124C329.22 248.955 328.453 249.389 327.456 249.389C325.96 249.389 324.97 248.405 324.95 246.724H331.79V246.014C331.79 242.569 329.719 241.054 327.303 241.054C324.49 241.054 322.656 243.119 322.656 246.148C322.656 249.229 324.465 251.192 327.424 251.192ZM324.957 245.164C325.027 243.911 325.954 242.857 327.335 242.857C328.664 242.857 329.559 243.828 329.572 245.164H324.957Z" fill="#3C4043"/>
<path d="M406.576 192.651C406.54 192.656 406.504 192.659 406.467 192.659L0.802218 190.459C0.614223 190.458 0.434291 190.382 0.302005 190.249C0.169719 190.115 0.0959144 189.934 0.0968285 189.746C0.0977425 189.558 0.1733 189.379 0.306879 189.246C0.440458 189.114 0.621116 189.04 0.809111 189.041L406.474 191.241C406.653 191.242 406.825 191.31 406.956 191.432C407.087 191.554 407.166 191.721 407.179 191.899C407.192 192.077 407.137 192.254 407.025 192.393C406.914 192.533 406.753 192.625 406.576 192.651Z" fill="#3C4043"/>
<path d="M214.237 154.654L208.819 101.545L204.988 74.4212C204.25 72.6571 203.318 70.9807 202.21 69.4228C193.978 57.8737 177.297 54.3018 166.435 63.4173C163.515 65.8677 155.556 74.1022 155.556 74.1022L132.035 103.709L82.2386 93.8381C78.5295 99.3457 76.8909 105.991 77.614 112.593C78.337 119.195 81.3748 125.327 86.1879 129.9L86.1659 129.914L86.4156 130.112C87.4982 131.119 88.6582 132.039 89.8849 132.864L96.4244 138.05L49.6992 136.972V189.378L158.947 189.455C159.175 189.455 159.402 189.452 159.628 189.445C173.26 189.051 183.976 177.658 184.025 164.011C184.034 162.316 183.924 160.623 183.697 158.943L184.257 159.477L214.237 154.654Z" fill="white"/>
<path d="M134.718 65.4364L121.768 93.3593C121.725 93.4516 121.665 93.5344 121.59 93.6031C121.515 93.6719 121.427 93.7251 121.332 93.7597C121.247 93.7883 121.159 93.803 121.07 93.8033C120.956 93.8031 120.843 93.7777 120.739 93.7289L102.762 85.1056C98.9383 83.2291 96.009 79.9182 94.6108 75.8923C93.2126 71.8665 93.4585 67.451 95.2951 63.6056C97.1317 59.7602 100.411 56.7956 104.419 55.356C108.428 53.9164 112.842 54.1182 116.703 55.9175L134.354 64.4175C134.537 64.5053 134.677 64.6614 134.745 64.8522C134.813 65.0429 134.804 65.2528 134.718 65.4364Z" fill="#FFED96"/>
<path d="M154.699 56.6059C154.654 56.5081 154.59 56.4206 154.51 56.3491C154.43 56.2776 154.336 56.2236 154.234 56.1907L134.256 49.7502C133.852 49.6198 132.4 61.6251 121.07 58.2467C113.502 54.1876 116.783 46.8316 116.357 46.835C110.128 46.8465 104.124 49.1654 99.5016 53.3447C94.8795 57.5239 91.9671 63.2676 91.3257 69.4685C90.779 74.5757 89.0279 79.2933 86.2606 83.113C83.8038 86.5082 82.0989 90.3887 81.2598 94.4957C81.2189 94.6953 81.2588 94.9029 81.3706 95.0731C81.4824 95.2434 81.657 95.3623 81.8563 95.404L133.608 106.003C133.66 106.014 133.712 106.02 133.765 106.02C133.915 106.02 134.062 105.976 134.187 105.893L137.855 101.103C137.874 100.678 119.07 93.058 104.129 85.0776C100.854 83.3281 94.5067 77.3113 94.5972 71.9045C94.8214 58.4882 104.494 55.6789 107.035 55.4367C112.014 54.9619 116.825 56.3952 125.393 61.4262C134.834 65.7612 149.172 72.5836 148.329 71.94L154.704 57.2298C154.747 57.1312 154.769 57.0247 154.767 56.9173C154.766 56.8098 154.743 56.7038 154.699 56.6059Z" fill="#FFED96"/>
<path d="M214.18 68.8087C219.309 67.5817 222.918 62.995 227.852 59.6358C234.685 54.9548 238.635 51.3587 238.476 49.4049C238.069 44.9234 216.337 55.754 216.337 55.754C210.665 57.5287 207.672 59.1032 206.677 59.4718C206.631 59.4718 198.722 59.6121 189.341 59.77L171.695 60.0369L163.641 60.1945L153.997 56.9233L147.611 71.629L153.063 75.9902L248.926 78.4188C249.889 75.5007 242.658 71.5892 237.453 68.5062C246.115 69.3936 257.462 70.4998 258.084 66.616C258.7 62.7032 250.524 61.1225 239.284 60.0841C251.809 59.0832 258.579 60.2763 258.727 56.4693C258.9 52.3186 247.721 51.1449 237.556 51.5728" fill="#FFF1ED"/>
<path d="M248.927 79.189H248.907L153.044 76.7614C152.876 76.7572 152.714 76.6982 152.583 76.5933L147.131 72.2321C146.999 72.1265 146.905 71.9803 146.864 71.8162C146.824 71.652 146.838 71.479 146.906 71.3239L153.291 56.6181C153.368 56.4404 153.508 56.2981 153.685 56.2194C153.862 56.1408 154.061 56.1316 154.244 56.1936L163.761 59.4212L171.681 59.2672L189.33 59C195.375 58.8974 200.81 58.8034 203.922 58.749C205.637 58.719 206.28 58.708 206.528 58.7041C206.746 58.6161 207.058 58.477 207.436 58.3081C210.238 57.0411 213.114 55.9492 216.051 55.0387C216.589 54.7726 220.923 52.6419 225.574 50.7435C234.801 46.9775 237.264 47.3219 238.315 47.9086C238.576 48.0498 238.799 48.2546 238.961 48.5042C239.123 48.7537 239.22 49.04 239.242 49.3368C239.273 49.8271 239.173 50.3166 238.954 50.7561C244.023 50.6244 255.129 50.7502 258.499 54.1204C258.826 54.4224 259.085 54.7915 259.257 55.2024C259.429 55.6134 259.511 56.0567 259.497 56.5021C259.41 58.7223 257.557 59.4086 256.17 59.7317C254.345 60.157 251.685 60.2537 248.317 60.3761L248.115 60.3836C253.788 61.3168 256.86 62.5194 258.175 64.2112C258.46 64.5604 258.666 64.9663 258.782 65.4017C258.897 65.8372 258.919 66.2922 258.845 66.7366C258.226 70.5963 250.587 70.5093 240.852 69.6131C245.94 72.6292 250.629 75.7153 249.657 78.6608C249.606 78.8145 249.508 78.9482 249.377 79.0431C249.246 79.1379 249.088 79.1889 248.927 79.189ZM153.342 75.2272L248.228 77.6301C247.858 75.5 242.261 72.2193 238.451 69.9849C237.977 69.7073 237.512 69.4344 237.062 69.168C236.911 69.0786 236.795 68.9403 236.734 68.776C236.672 68.6117 236.668 68.4312 236.723 68.2645C236.778 68.0978 236.888 67.9549 237.035 67.8594C237.183 67.764 237.358 67.7217 237.532 67.7396C241.405 68.1363 246.703 68.6763 250.765 68.5798C254.796 68.481 257.125 67.7401 257.325 66.4935C257.365 66.2574 257.354 66.0153 257.291 65.7842C257.228 65.5531 257.115 65.3385 256.961 65.1554C254.981 62.6095 246.437 61.5172 239.215 60.8499C239.023 60.8323 238.845 60.7433 238.715 60.6004C238.586 60.4576 238.514 60.2714 238.516 60.0786C238.517 59.8857 238.59 59.7004 238.721 59.5591C238.853 59.4179 239.032 59.331 239.224 59.3157C242.682 59.039 245.646 58.9307 248.261 58.836C254.931 58.5932 257.883 58.4033 257.959 56.4384C257.962 56.2059 257.915 55.9755 257.82 55.7631C257.726 55.5507 257.586 55.3614 257.411 55.2083C255.279 53.0754 247.652 51.9515 237.933 52.3275C236.536 54.047 233.742 56.5344 228.287 60.2714C226.706 61.3858 225.183 62.5794 223.723 63.8478C220.751 66.3431 217.945 68.7002 214.36 69.5579C214.162 69.6054 213.953 69.572 213.779 69.4651C213.605 69.3582 213.481 69.1866 213.433 68.988C213.386 68.7894 213.419 68.58 213.526 68.406C213.633 68.232 213.804 68.1076 214.003 68.0601C217.234 67.2871 219.905 65.0435 222.733 62.6682C224.233 61.3662 225.797 60.1412 227.421 58.9982C233.164 55.0636 235.748 52.6534 236.878 51.209C236.917 51.136 236.968 51.0698 237.028 51.0127C237.627 50.1994 237.732 49.7241 237.711 49.4664C237.711 49.4201 237.697 49.3748 237.671 49.3364C237.645 49.298 237.608 49.2682 237.565 49.2508C235.467 48.0798 224.091 52.7502 216.682 56.4423C216.645 56.4605 216.607 56.4758 216.568 56.488C213.669 57.3849 210.829 58.4622 208.064 59.7135C207.567 59.9352 207.208 60.0954 206.945 60.1926C206.855 60.2284 206.758 60.2446 206.661 60.2404L203.95 60.2876C200.837 60.342 195.402 60.4367 189.355 60.5389L171.708 60.8058L163.657 60.9628C163.568 60.9655 163.479 60.9518 163.395 60.9223L154.422 57.879L148.553 71.3944L153.342 75.2272Z" fill="#3C4043"/>
<path d="M163.918 189.378C188.553 182.064 184.259 159.475 184.259 159.475L208.728 155.541C210.077 163.606 214.57 171.795 226.113 173.467C233.191 174.493 237.664 182.27 237.176 189.456L196.98 189.02L181.275 180.189L181.593 189.148L163.918 189.378Z" fill="#E7F1FF"/>
<path d="M49.7 178.263C41.112 173.751 27.0113 170.254 18.4387 183.577C14.5663 189.583 6.30866 190.712 0 187.273L16.4128 150.573L31.7636 141.691L22.6702 136.534L27.0298 126.808L49.7146 136.938" fill="#E7F1FF"/>
<path d="M118.378 138.819H96.4256C96.2216 138.819 96.0259 138.738 95.8816 138.594C95.7373 138.449 95.6562 138.253 95.6562 138.049C95.6562 137.845 95.7373 137.649 95.8816 137.505C96.0259 137.36 96.2216 137.279 96.4256 137.279H118.378C118.582 137.279 118.777 137.36 118.922 137.505C119.066 137.649 119.147 137.845 119.147 138.049C119.147 138.253 119.066 138.449 118.922 138.594C118.777 138.738 118.582 138.819 118.378 138.819Z" fill="#3C4043"/>
<path d="M163.296 134.797C163.116 134.797 162.941 134.733 162.803 134.617C162.664 134.501 162.571 134.34 162.54 134.162L160.926 125.108C160.908 125.009 160.91 124.907 160.932 124.808C160.954 124.709 160.995 124.616 161.052 124.533C161.11 124.45 161.184 124.379 161.269 124.324C161.354 124.27 161.449 124.233 161.548 124.215C161.648 124.197 161.75 124.199 161.849 124.221C161.947 124.243 162.041 124.284 162.124 124.342C162.206 124.399 162.277 124.473 162.332 124.558C162.386 124.643 162.423 124.738 162.441 124.838L164.054 133.892C164.074 134.002 164.069 134.116 164.04 134.225C164.011 134.334 163.958 134.435 163.886 134.521C163.814 134.607 163.723 134.677 163.622 134.724C163.52 134.772 163.409 134.797 163.296 134.797Z" fill="#3C4043"/>
<path d="M155.572 74.1521C155.572 74.1521 163.531 65.9174 166.451 63.467C177.313 54.3517 193.994 57.9234 202.226 69.4724C203.334 71.0304 204.266 72.7068 205.004 74.4708L208.835 101.595L214.253 154.704L184.273 159.525" fill="white"/>
<path d="M184.272 160.295C184.079 160.294 183.893 160.221 183.751 160.09C183.61 159.958 183.523 159.778 183.507 159.586C183.492 159.393 183.55 159.202 183.669 159.05C183.788 158.898 183.96 158.796 184.151 158.765L213.414 154.059L208.071 101.688L204.256 74.6775C203.546 72.9993 202.655 71.4036 201.599 69.9188C199.535 67.0206 196.895 64.5794 193.846 62.7479C190.796 60.9164 187.402 59.7338 183.876 59.2739C177.587 58.4729 171.575 60.1722 166.945 64.0562C164.089 66.4531 156.204 74.6043 156.125 74.6867C155.983 74.8335 155.789 74.9179 155.585 74.9213C155.381 74.9247 155.184 74.8468 155.037 74.7048C154.891 74.5628 154.806 74.3684 154.803 74.1642C154.799 73.96 154.877 73.7628 155.019 73.616C155.345 73.2788 163.04 65.3246 165.957 62.8762C170.919 58.7119 177.352 56.8912 184.07 57.7464C187.807 58.2334 191.404 59.4863 194.635 61.4269C197.867 63.3674 200.664 65.9539 202.852 69.0249C203.993 70.6299 204.953 72.3566 205.713 74.1734C205.738 74.2341 205.756 74.2978 205.765 74.3628L209.596 101.487C209.596 101.497 209.599 101.507 209.6 101.517L215.018 154.626C215.038 154.821 214.983 155.017 214.863 155.173C214.743 155.329 214.569 155.433 214.375 155.464L184.395 160.285C184.354 160.292 184.313 160.295 184.272 160.295Z" fill="#3C4043"/>
<path d="M158.965 190.274L49.7147 190.197C49.5106 190.197 49.3149 190.116 49.1707 189.972C49.0264 189.827 48.9453 189.631 48.9453 189.427V137.02C48.9452 136.918 48.9655 136.816 49.0052 136.722C49.0448 136.627 49.1029 136.541 49.1761 136.47C49.2479 136.396 49.3345 136.338 49.4304 136.3C49.5262 136.262 49.629 136.246 49.7318 136.251L94.1631 137.275L89.4462 133.534C88.2039 132.697 87.0281 131.765 85.9295 130.746L85.7033 130.566C85.632 130.51 85.5712 130.442 85.5238 130.365C80.6374 125.656 77.5667 119.373 76.8517 112.623C76.1367 105.872 77.8233 99.085 81.6147 93.4557C81.6706 93.3705 81.7429 93.2972 81.8274 93.2402C81.9118 93.1831 82.0068 93.1434 82.1067 93.1234C82.2066 93.1034 82.3094 93.1034 82.4093 93.1235C82.5092 93.1436 82.6041 93.1833 82.6886 93.2404C82.773 93.2975 82.8452 93.3708 82.9011 93.456C82.957 93.5413 82.9954 93.6368 83.0141 93.737C83.0328 93.8373 83.0314 93.9402 83.01 94.0399C82.9886 94.1396 82.9477 94.2341 82.8895 94.3178C79.2823 99.6744 77.6889 106.137 78.3923 112.558C79.0958 118.979 82.0505 124.943 86.7317 129.39C86.7624 129.419 86.7907 129.451 86.8165 129.485L86.9073 129.557C86.9232 129.57 86.9384 129.583 86.953 129.596C88.0064 130.575 89.1348 131.47 90.3279 132.273C90.3448 132.285 90.3612 132.296 90.3771 132.309L96.9166 137.495C97.0429 137.595 97.1346 137.732 97.1786 137.888C97.2227 138.043 97.2169 138.208 97.1622 138.36C97.1074 138.511 97.0063 138.642 96.8733 138.733C96.7403 138.824 96.582 138.871 96.4208 138.868L50.4827 137.808V188.658L158.961 188.735C159.18 188.735 159.4 188.731 159.62 188.725C172.833 188.343 183.221 177.508 183.269 164.057C183.291 157.697 181.777 149.094 174.436 144.233C174.413 144.218 174.391 144.202 174.37 144.185L142.278 117.65C142.121 117.52 142.022 117.333 142.003 117.129C141.983 116.926 142.046 116.723 142.176 116.566C142.306 116.409 142.493 116.309 142.696 116.29C142.899 116.271 143.102 116.333 143.259 116.463L175.32 142.971C183.204 148.217 184.832 157.333 184.809 164.062C184.799 170.849 182.179 177.372 177.492 182.278C172.842 187.199 166.431 190.072 159.666 190.265C159.433 190.27 159.199 190.273 158.965 190.274Z" fill="#3C4043"/>
<path d="M148.945 15.3576C148.806 14.5048 148.608 13.6628 148.352 12.8376L141.597 5.31641L121.85 23.7948L119.798 32.2641L120.435 33.5034L117.116 44.8669L116.373 47.5103C116.049 48.5468 115.927 49.6359 116.014 50.7184C116.212 52.7553 117.112 54.6599 118.558 56.1065C120.005 57.553 121.909 58.4517 123.944 58.6487C125.98 58.8457 128.021 58.3289 129.717 57.1867C131.414 56.0444 132.662 54.3476 133.247 52.3866L133.968 50.0906L135.319 45.7936C138.156 46.0366 141.009 45.5627 143.616 44.4153C146.223 43.2679 148.5 41.4838 150.238 39.2266C151.977 36.9694 153.121 34.3114 153.566 31.4966C154.011 28.6817 153.743 25.8001 152.786 23.116L148.945 15.3576Z" fill="#FFF1ED"/>
<path d="M124.801 59.4597C122.417 59.4595 120.119 58.572 118.353 56.9699C116.588 55.3678 115.481 53.1656 115.248 50.7918C115.15 49.6097 115.282 48.4198 115.636 47.2878L116.376 44.6585L119.612 33.583L119.115 32.6165C119.031 32.4521 119.008 32.2628 119.051 32.0832L121.103 23.6139C121.139 23.468 121.216 23.3357 121.325 23.2331L141.072 4.75464C141.147 4.68466 141.235 4.63031 141.331 4.59476C141.427 4.55921 141.529 4.54317 141.631 4.54759C141.733 4.55201 141.833 4.5768 141.926 4.62051C142.019 4.66421 142.101 4.72595 142.17 4.80212L148.925 12.3233C149 12.4067 149.055 12.5052 149.088 12.6121C149.342 13.4339 149.542 14.2716 149.686 15.1197L153.476 22.7747C153.489 22.8013 153.5 22.8286 153.51 22.8566C154.493 25.6127 154.782 28.569 154.35 31.4634C153.918 34.3578 152.78 37.101 151.035 39.4496C149.291 41.7983 146.994 43.68 144.349 44.928C141.704 46.1759 138.792 46.7516 135.872 46.6039L133.982 52.6181C133.438 54.4432 132.363 56.0647 130.894 57.2754C129.425 58.4861 127.628 59.2311 125.734 59.4153C125.422 59.4449 125.111 59.4597 124.801 59.4597ZM120.615 32.1674L121.12 33.1521C121.21 33.3275 121.23 33.5307 121.175 33.7201L117.856 45.0833L117.114 47.7198C117.111 47.7295 117.108 47.7393 117.105 47.7488C116.813 48.691 116.703 49.6805 116.782 50.664C116.882 51.7142 117.189 52.734 117.687 53.664C118.184 54.594 118.862 55.4157 119.68 56.081C120.705 56.9268 121.923 57.5056 123.225 57.7656C124.528 58.0256 125.875 57.9589 127.145 57.5713C128.416 57.1837 129.571 56.4873 130.507 55.5443C131.443 54.6013 132.132 53.441 132.511 52.1669L134.586 45.5629C134.639 45.396 134.747 45.252 134.893 45.1546C135.038 45.0573 135.213 45.0124 135.387 45.0273C138.092 45.2587 140.812 44.8076 143.298 43.7152C145.784 42.6229 147.956 40.9241 149.617 38.7744C151.277 36.6247 152.372 34.0927 152.802 31.4099C153.232 28.7272 152.983 25.9794 152.078 23.4178L148.257 15.6995C148.222 15.63 148.199 15.5556 148.186 15.479C148.063 14.7171 147.889 13.9641 147.667 13.2249L141.55 6.41538L122.544 24.2009L120.615 32.1674Z" fill="#3C4043"/>
<path d="M148.754 20.3827C148.226 19.3721 148.056 18.2126 148.27 17.0926C148.484 15.9725 149.07 14.9579 149.933 14.2135C150.796 13.4691 151.886 13.0388 153.024 12.9925C154.163 12.9461 155.283 13.2865 156.204 13.9582C157.125 14.63 157.792 15.5936 158.096 16.6925C158.4 17.7914 158.324 18.961 157.88 20.0112C157.436 21.0614 156.65 21.9304 155.65 22.477C154.65 23.0237 153.495 23.2157 152.372 23.0221" fill="white"/>
<path d="M153.234 23.8649C152.902 23.8649 152.57 23.8367 152.242 23.7805C152.041 23.7459 151.862 23.6328 151.744 23.466C151.626 23.2992 151.579 23.0925 151.614 22.8912C151.648 22.6899 151.761 22.5106 151.928 22.3928C152.095 22.2749 152.301 22.2281 152.502 22.2627C153.369 22.4129 154.26 22.293 155.056 21.9192C155.851 21.5454 156.513 20.9358 156.951 20.173C157.389 19.4102 157.582 18.5311 157.503 17.6549C157.425 16.7787 157.08 15.9477 156.514 15.2746C155.948 14.6015 155.189 14.1189 154.339 13.8921C153.49 13.6653 152.592 13.7053 151.766 14.0067C150.94 14.3082 150.227 14.8564 149.723 15.5772C149.219 16.2979 148.948 17.1563 148.948 18.036C148.946 18.7288 149.113 19.4116 149.436 20.0247C149.528 20.2053 149.545 20.4149 149.483 20.608C149.422 20.8012 149.287 20.9623 149.108 21.0564C148.928 21.1506 148.719 21.1702 148.525 21.1109C148.332 21.0517 148.169 20.9184 148.073 20.74C147.483 19.6123 147.278 18.3223 147.489 17.0671C147.7 15.8118 148.317 14.6602 149.243 13.7883C150.17 12.9164 151.356 12.372 152.621 12.2383C153.886 12.1046 155.16 12.389 156.249 13.0479C157.337 13.7069 158.18 14.7043 158.648 15.8877C159.117 17.0711 159.186 18.3755 158.844 19.6017C158.502 20.8278 157.769 21.9083 156.756 22.6781C155.743 23.448 154.506 23.8648 153.234 23.8649H153.234Z" fill="#3C4043"/>
<path d="M134.428 21.6678H127.252C127.048 21.6678 126.852 21.5867 126.708 21.4423C126.563 21.2979 126.482 21.1021 126.482 20.8979C126.482 20.6937 126.563 20.4978 126.708 20.3534C126.852 20.209 127.048 20.1279 127.252 20.1279H134.428C134.632 20.1279 134.828 20.209 134.972 20.3534C135.116 20.4978 135.197 20.6937 135.197 20.8979C135.197 21.1021 135.116 21.2979 134.972 21.4423C134.828 21.5867 134.632 21.6678 134.428 21.6678Z" fill="#3C4043"/>
<path d="M139.959 27.1492C142.751 27.1492 145.015 24.8842 145.015 22.0902C145.015 19.2962 142.751 17.0312 139.959 17.0312C137.168 17.0312 134.904 19.2962 134.904 22.0902C134.904 24.8842 137.168 27.1492 139.959 27.1492Z" fill="white"/>
<path d="M139.959 27.919C138.807 27.919 137.681 27.5772 136.723 26.9367C135.765 26.2962 135.019 25.3859 134.578 24.3209C134.137 23.2558 134.022 22.0838 134.247 20.9532C134.471 19.8225 135.026 18.7839 135.841 17.9688C136.655 17.1537 137.693 16.5986 138.823 16.3737C139.953 16.1488 141.124 16.2643 142.188 16.7055C143.252 17.1467 144.162 17.8938 144.802 18.8523C145.442 19.8109 145.783 20.9378 145.783 22.0906C145.781 23.6359 145.167 25.1174 144.075 26.21C142.983 27.3026 141.503 27.9173 139.959 27.919ZM139.959 17.8016C139.111 17.8016 138.283 18.0531 137.578 18.5244C136.873 18.9956 136.324 19.6654 136 20.4491C135.675 21.2327 135.59 22.095 135.756 22.927C135.921 23.7589 136.329 24.5231 136.929 25.1229C137.528 25.7227 138.291 26.1312 139.123 26.2967C139.954 26.4622 140.816 26.3773 141.599 26.0528C142.382 25.7282 143.051 25.1785 143.522 24.4733C143.993 23.768 144.244 22.9389 144.245 22.0906C144.243 20.9536 143.791 19.8634 142.988 19.0593C142.185 18.2553 141.095 17.8029 139.959 17.8016Z" fill="#3C4043"/>
<path d="M144.306 20.2817C144.114 20.2822 143.929 20.2109 143.787 20.0817C143.645 19.9526 143.556 19.775 143.539 19.5837C143.521 19.3925 143.575 19.2015 143.69 19.0481C143.806 18.8948 143.975 18.7902 144.163 18.755L148.087 18.0087C148.186 17.9898 148.288 17.9906 148.387 18.0112C148.486 18.0318 148.58 18.0717 148.664 18.1287C148.748 18.1856 148.819 18.2585 148.875 18.3431C148.93 18.4278 148.968 18.5225 148.987 18.6219C149.006 18.7213 149.005 18.8235 148.985 18.9226C148.964 19.0217 148.924 19.1157 148.867 19.1994C148.81 19.2831 148.738 19.3547 148.653 19.4102C148.568 19.4657 148.474 19.504 148.374 19.5229L144.451 20.2692C144.403 20.2779 144.355 20.2821 144.306 20.2817Z" fill="#3C4043"/>
<path d="M129.293 23.8794C130.797 23.1608 132.067 21.8945 133.069 19.8195L143.121 8.47586L148.353 12.8388C146.199 5.7041 141.48 3.06066 137.787 1.75178C135.684 1.00128 133.454 0.67283 131.224 0.785191C128.994 0.897553 126.808 1.44852 124.791 2.40663C122.773 3.36473 120.965 4.71119 119.468 6.36907C117.971 8.02696 116.815 9.96378 116.066 12.0689C115.907 12.5152 115.769 12.9671 115.648 13.4211C114.945 10.0708 113.112 7.06437 110.457 4.90673C107.801 2.74908 104.484 1.57164 101.064 1.57213H92.4212C90.4646 1.57213 88.5271 1.95781 86.7193 2.70716C84.9116 3.45651 83.2691 4.55485 81.8855 5.93947C80.5019 7.32409 79.4044 8.96787 78.6557 10.777C77.9069 12.586 77.5215 14.525 77.5215 16.4832C77.5215 18.4413 77.9069 20.3803 78.6557 22.1894C79.4044 23.9985 80.5019 25.6422 81.8855 27.0269C83.2691 28.4115 84.9116 29.5098 86.7193 30.2592C88.5271 31.0085 90.4646 31.3942 92.4212 31.3942H101.064C104.267 31.3945 107.386 30.3615 109.957 28.4482C112.527 26.5349 114.413 23.8433 115.335 20.7727C115.427 21.2963 115.54 21.8178 115.681 22.3347" fill="#3C4043"/>
<path d="M101.063 32.1641H92.421C88.2653 32.1641 84.2798 30.512 81.3413 27.5712C78.4028 24.6305 76.752 20.642 76.752 16.4831C76.752 12.3243 78.4028 8.33574 81.3413 5.39498C84.2798 2.45423 88.2653 0.802127 92.421 0.802127H101.063C104.234 0.812229 107.327 1.77975 109.939 3.5781C112.55 5.37645 114.559 7.92188 115.701 10.8813C117.467 6.69601 120.764 3.34427 124.918 1.51219C129.072 -0.319895 133.769 -0.493762 138.047 1.02618C143.731 3.04135 147.344 6.8325 149.09 12.616C149.138 12.7745 149.134 12.9443 149.078 13.1001C149.021 13.2559 148.916 13.3894 148.778 13.4808C148.64 13.5722 148.477 13.6166 148.311 13.6075C148.146 13.5984 147.988 13.5361 147.861 13.4301L143.201 9.54524L133.713 20.2517C132.687 22.3346 131.349 23.749 129.623 24.5738C129.532 24.6181 129.433 24.6439 129.331 24.6497C129.23 24.6555 129.129 24.6412 129.033 24.6077C128.937 24.5741 128.849 24.522 128.774 24.4542C128.698 24.3865 128.637 24.3044 128.593 24.2129C128.549 24.1213 128.524 24.022 128.519 23.9206C128.514 23.8193 128.529 23.7179 128.563 23.6223C128.597 23.5267 128.649 23.4388 128.718 23.3637C128.786 23.2885 128.868 23.2276 128.96 23.1844C130.385 22.5035 131.502 21.2931 132.374 19.4846C132.405 19.4209 132.445 19.3617 132.492 19.3088L142.544 7.96508C142.677 7.81538 142.863 7.72325 143.062 7.70821C143.262 7.69316 143.459 7.75639 143.613 7.88449L146.579 10.3585C144.209 5.38169 140.375 3.48637 137.529 2.47776C133.473 1.03665 129.012 1.26438 125.124 3.11099C121.236 4.95759 118.238 8.27226 116.789 12.3278C116.643 12.7384 116.507 13.1732 116.39 13.619C116.345 13.7865 116.246 13.934 116.107 14.0378C115.968 14.1416 115.799 14.1955 115.626 14.1908C115.452 14.1861 115.286 14.1231 115.153 14.0119C115.02 13.9008 114.929 13.7481 114.893 13.5784C114.219 10.4057 112.478 7.56001 109.962 5.51546C107.445 3.47092 104.305 2.35091 101.063 2.34199H92.421C88.6734 2.34199 85.0793 3.83186 82.4293 6.48383C79.7794 9.13581 78.2907 12.7327 78.2907 16.4831C78.2907 20.2336 79.7794 23.8304 82.4293 26.4824C85.0793 29.1344 88.6734 30.6242 92.421 30.6242H101.063C104.098 30.611 107.049 29.6261 109.485 27.8136C111.92 26.0012 113.712 23.4563 114.598 20.5514C114.647 20.3853 114.752 20.2408 114.894 20.1414C115.036 20.042 115.207 19.9934 115.38 20.0036C115.553 20.0137 115.717 20.082 115.847 20.1974C115.976 20.3127 116.063 20.4684 116.093 20.6392C116.184 21.1597 116.295 21.6619 116.423 22.1321C116.463 22.278 116.459 22.4323 116.412 22.5759C116.364 22.7195 116.276 22.846 116.157 22.9396C116.038 23.0332 115.895 23.0897 115.744 23.1021C115.594 23.1146 115.443 23.0824 115.31 23.0096C114.049 25.7319 112.04 28.0386 109.517 29.6598C106.994 31.281 104.062 32.1496 101.063 32.1641Z" fill="#3C4043"/>
<path d="M142.352 23.6694C143.046 23.6694 143.609 23.1064 143.609 22.4119C143.609 21.7173 143.046 21.1543 142.352 21.1543C141.658 21.1543 141.096 21.7173 141.096 22.4119C141.096 23.1064 141.658 23.6694 142.352 23.6694Z" fill="#3C4043"/>
<path d="M152.2 20.769C152.894 20.769 153.457 20.206 153.457 19.5115C153.457 18.8169 152.894 18.2539 152.2 18.2539C151.506 18.2539 150.943 18.8169 150.943 19.5115C150.943 20.206 151.506 20.769 152.2 20.769Z" fill="#3C4043"/>
<path d="M135.224 46.562C135.199 46.5621 135.175 46.5609 135.15 46.5584C132.031 46.2681 129.044 45.1572 126.492 43.3386C126.327 43.2193 126.216 43.0396 126.184 42.8388C126.151 42.6381 126.199 42.4325 126.318 42.2671C126.436 42.1017 126.615 41.9899 126.815 41.9561C127.016 41.9222 127.221 41.9691 127.387 42.0865C129.718 43.7469 132.446 44.7609 135.295 45.0258C135.492 45.0448 135.673 45.1387 135.803 45.288C135.932 45.4373 135.999 45.6306 135.99 45.828C135.98 46.0253 135.896 46.2115 135.753 46.3481C135.611 46.4848 135.421 46.5613 135.224 46.562Z" fill="#3C4043"/>
<path d="M147.098 19.332L152.97 23.4384L149.483 27.4164" fill="white"/>
<path d="M149.482 28.1859C149.334 28.1858 149.189 28.1431 149.065 28.0628C148.941 27.9826 148.842 27.8682 148.781 27.7335C148.721 27.5987 148.7 27.4492 148.721 27.3029C148.743 27.1565 148.806 27.0196 148.904 26.9083L151.825 23.5768L146.656 19.9628C146.495 19.8436 146.386 19.666 146.354 19.4679C146.321 19.2698 146.368 19.0668 146.482 18.9022C146.597 18.7377 146.772 18.6245 146.969 18.5869C147.166 18.5493 147.37 18.5902 147.537 18.7009L153.41 22.8072C153.499 22.8692 153.573 22.9492 153.629 23.042C153.685 23.1348 153.72 23.2383 153.733 23.3457C153.746 23.4532 153.736 23.5622 153.704 23.6656C153.672 23.769 153.619 23.8645 153.548 23.9459L150.06 27.9239C149.988 28.0063 149.899 28.0724 149.799 28.1176C149.699 28.1628 149.591 28.1861 149.482 28.1859Z" fill="#3C4043"/>
<path d="M147.891 34.7301C146.891 34.729 145.933 34.3311 145.227 33.6238C144.52 32.9166 144.122 31.9577 144.121 30.9574C144.121 30.7532 144.202 30.5574 144.346 30.413C144.491 30.2686 144.686 30.1875 144.89 30.1875C145.094 30.1875 145.29 30.2686 145.434 30.413C145.579 30.5574 145.66 30.7532 145.66 30.9574C145.66 31.5496 145.895 32.1175 146.313 32.5363C146.732 32.955 147.299 33.1902 147.891 33.1902C148.483 33.1902 149.05 32.955 149.469 32.5363C149.887 32.1175 150.122 31.5496 150.122 30.9574C150.122 30.7532 150.203 30.5574 150.347 30.413C150.492 30.2686 150.687 30.1875 150.891 30.1875C151.095 30.1875 151.291 30.2686 151.435 30.413C151.58 30.5574 151.661 30.7532 151.661 30.9574C151.66 31.9577 151.262 32.9166 150.555 33.6239C149.849 34.3312 148.89 34.729 147.891 34.7301Z" fill="#3C4043"/>
<path d="M120.455 33.4352C119.249 33.097 118.151 32.4546 117.265 31.5696C116.379 30.6846 115.735 29.5867 115.394 28.3811C115.054 27.1755 115.029 25.9026 115.321 24.6845C115.614 23.4663 116.214 22.3437 117.064 21.4243C117.914 20.5049 118.986 19.8194 120.177 19.4336C121.368 19.0478 122.638 18.9746 123.866 19.221C125.093 19.4674 126.237 20.0252 127.187 20.8409C128.137 21.6566 128.862 22.7028 129.292 23.8793" fill="#FFF1ED"/>
<path d="M120.455 34.205C120.385 34.2049 120.315 34.1953 120.248 34.1763C118.916 33.8026 117.701 33.0928 116.722 32.1147C115.742 31.1366 115.03 29.9232 114.654 28.5906C114.278 27.2581 114.25 25.8512 114.573 24.5047C114.896 23.1582 115.559 21.9174 116.499 20.9011C117.439 19.8847 118.623 19.127 119.94 18.7006C121.256 18.2741 122.66 18.1932 124.017 18.4656C125.373 18.7379 126.637 19.3545 127.688 20.2561C128.738 21.1577 129.539 22.3142 130.014 23.6146C130.051 23.7099 130.068 23.8116 130.064 23.9135C130.061 24.0155 130.038 24.1158 129.995 24.2087C129.953 24.3015 129.893 24.385 129.818 24.4543C129.743 24.5236 129.655 24.5773 129.56 24.6123C129.464 24.6473 129.362 24.6629 129.26 24.6583C129.158 24.6536 129.058 24.6287 128.966 24.585C128.874 24.5413 128.792 24.4798 128.723 24.4039C128.655 24.3281 128.603 24.2394 128.569 24.1431C128.184 23.0905 127.536 22.1544 126.686 21.4247C125.836 20.6949 124.812 20.1959 123.714 19.9754C122.616 19.755 121.48 19.8204 120.414 20.1656C119.349 20.5108 118.389 21.124 117.629 21.9466C116.868 22.7692 116.331 23.7736 116.069 24.8634C115.808 25.9533 115.83 27.0921 116.135 28.1708C116.439 29.2494 117.015 30.2318 117.808 31.0237C118.601 31.8155 119.583 32.3904 120.662 32.6932C120.841 32.7429 120.996 32.856 121.098 33.0114C121.201 33.1669 121.243 33.3542 121.218 33.5387C121.193 33.7232 121.102 33.8924 120.962 34.0149C120.822 34.1374 120.642 34.205 120.456 34.205H120.455Z" fill="#3C4043"/>
<path d="M119.705 29.0586C119.521 29.0587 119.342 28.9923 119.202 28.8715C119.062 28.7508 118.971 28.5837 118.944 28.4009C118.917 28.218 118.957 28.0316 119.056 27.8756C119.155 27.7197 119.307 27.6046 119.483 27.5514L124.03 26.1786L120.708 23.8926C120.624 23.836 120.551 23.763 120.495 23.6781C120.438 23.5931 120.399 23.4977 120.38 23.3976C120.361 23.2974 120.362 23.1944 120.383 23.0946C120.404 22.9947 120.444 22.9001 120.502 22.816C120.56 22.732 120.634 22.6603 120.719 22.605C120.805 22.5498 120.901 22.5122 121.001 22.4943C121.101 22.4765 121.204 22.4787 121.304 22.501C121.403 22.5233 121.497 22.5651 121.58 22.624L126.222 25.8185C126.342 25.9007 126.435 26.015 126.493 26.1483C126.55 26.2815 126.569 26.4282 126.546 26.5716C126.524 26.7149 126.462 26.849 126.366 26.9584C126.271 27.0678 126.147 27.1481 126.008 27.19L119.928 29.0255C119.856 29.0474 119.781 29.0586 119.705 29.0586Z" fill="#3C4043"/>
<path d="M117 47C112.5 47 102.5 48.5 98.5 54.5C93.5 62 94 61 90.5 75C87.7 86.2 84.5 84 81.5 95L134 106.5L138 101" stroke="#3C4043" stroke-width="1.5"/>
<path d="M202.162 105.639L214.172 105.639L214.172 106.773C214.172 110.713 217.89 113.665 221.83 113.665L294.583 113.665C295.779 113.722 296.949 114.035 298.014 114.581C299.079 115.128 300.015 115.896 300.758 116.834L303.509 120.007C304.312 120.908 305.297 121.627 306.399 122.118C307.5 122.609 308.694 122.86 309.9 122.855L348.957 122.855C349.868 122.878 350.775 122.715 351.621 122.377C352.467 122.038 353.236 121.531 353.881 120.887C354.525 120.242 355.032 119.473 355.371 118.627C355.709 117.781 355.872 116.874 355.85 115.963L355.85 10.2789C355.872 9.36763 355.709 8.4613 355.371 7.61491C355.032 6.76852 354.525 5.99972 353.881 5.35516C353.236 4.71061 352.467 4.20373 351.621 3.86531C350.775 3.52689 349.868 3.36398 348.957 3.38646L220.192 3.38647C218.194 3.45818 216.28 4.20133 214.757 5.4958C213.234 6.79027 212.192 8.56041 211.8 10.5201L196.286 98.5021C195.591 102.445 198.222 105.639 202.162 105.639Z" fill="#B893F2"/>
<path d="M337.852 91.9104C339.333 91.9104 337.469 95.3367 337.469 96.817C337.467 99.152 336.538 101.391 334.887 103.042C333.236 104.693 330.997 105.621 328.662 105.624L202.49 105.624C201.01 105.624 196.174 104.112 196.174 102.632C196.174 101.152 201.01 100.263 202.49 100.263L328.662 100.263C330.562 100.263 331.609 98.6504 332.109 96.817C333.257 92.605 336.372 91.9104 337.852 91.9104Z" fill="white"/>
<path d="M196.733 104.791C197.367 105.545 198.162 106.149 199.059 106.558C199.956 106.967 200.932 107.171 201.918 107.156L213.045 107.156C213.274 111.343 217.199 114.814 221.83 114.814L294.583 114.814C297.11 114.814 298.994 116.552 299.89 117.586L302.64 120.757C303.551 121.781 304.669 122.601 305.921 123.16C307.172 123.72 308.528 124.008 309.9 124.004L348.957 124.004C350.019 124.028 351.076 123.837 352.063 123.442C353.05 123.046 353.946 122.455 354.698 121.703C355.449 120.952 356.041 120.055 356.436 119.069C356.831 118.082 357.023 117.025 356.998 115.963L356.998 10.2785C357.023 9.21582 356.831 8.15916 356.436 7.17242C356.041 6.18569 355.449 5.2894 354.697 4.53775C353.946 3.78609 353.05 3.19469 352.063 2.79929C351.076 2.4039 350.019 2.21274 348.957 2.23736L220.191 2.23737C217.927 2.31862 215.755 3.16039 214.028 4.62691C212.3 6.09343 211.116 8.09919 210.668 10.3207L195.154 98.3042C194.928 99.435 194.951 100.602 195.224 101.722C195.497 102.843 196.012 103.89 196.733 104.791ZM354.7 10.2785L354.7 115.963C354.727 116.724 354.597 117.483 354.318 118.192C354.039 118.901 353.617 119.545 353.078 120.084C352.539 120.623 351.895 121.045 351.186 121.324C350.477 121.603 349.718 121.733 348.957 121.706L309.9 121.706C308.858 121.71 307.828 121.494 306.877 121.072C305.925 120.649 305.073 120.03 304.378 119.256L301.629 116.077C300.781 115.01 299.713 114.139 298.496 113.524C297.28 112.91 295.945 112.566 294.583 112.516L221.83 112.516C218.808 112.516 215.584 110.38 215.344 107.156L329.045 107.156C333.504 107.156 338.112 103.206 338.906 98.7039L354.42 10.7197C354.53 10.0924 354.566 9.45453 354.529 8.81886C354.642 9.29715 354.7 9.78699 354.7 10.2785ZM197.417 98.7039L212.931 10.7197C213.27 9.02289 214.171 7.48978 215.488 6.36769C216.806 5.24559 218.462 4.59993 220.191 4.53485L347.412 4.53484C348.122 4.51225 348.828 4.64778 349.48 4.93162C350.131 5.21545 350.711 5.6405 351.178 6.17601C351.638 6.75125 351.964 7.42139 352.134 8.13811C352.303 8.85483 352.312 9.60026 352.159 10.3206L336.643 98.3042C336.039 101.734 332.415 104.858 329.045 104.858L201.918 104.858C201.268 104.875 200.622 104.745 200.029 104.477C199.436 104.21 198.91 103.812 198.493 103.313C197.988 102.67 197.631 101.924 197.445 101.128C197.259 100.331 197.25 99.5042 197.417 98.7039Z" fill="#3C4043"/>
<path d="M134 50L154 57" stroke="#3C4043" stroke-width="1.5"/>
<path d="M121.07 93.0599L142.92 103.531L143.51 103.813C145.398 104.706 147.475 105.129 149.562 105.045L197.21 102.966L197.463 102.951C200.421 103.498 203.299 103.316 205.673 102.504C212.469 100.169 216.444 96.3449 226.061 102.325C230.395 105.02 236.473 109.716 238.883 105.533C240.55 102.633 233.677 96.8326 228.754 92.367C237.883 95.2157 249.808 98.9371 251.347 94.8821C252.886 90.8271 244.448 87.3111 232.6 83.718C246.269 85.3862 253.27 88.158 254.27 84.103C255.937 77.4046 228.112 72.323 218.034 73.1443C212.581 73.6011 204.071 74.5096 198.948 75.0755C198.378 74.997 153.024 74.2222 153.024 74.2222L134.021 65.1113" fill="#FFF1ED"/>
<path d="M236.053 107.966C233.398 107.966 230.153 105.871 227.249 103.996C226.699 103.641 226.164 103.296 225.654 102.978C218.099 98.2817 214.261 99.8686 209.403 101.879C208.302 102.335 207.165 102.806 205.922 103.232C203.419 104.089 200.4 104.262 197.415 103.725L197.255 103.735L149.595 105.814C147.383 105.905 145.181 105.457 143.18 104.509L142.587 104.226L120.738 93.7553C120.554 93.6671 120.412 93.5093 120.345 93.3167C120.277 93.1241 120.288 92.9124 120.376 92.7282C120.464 92.544 120.622 92.4024 120.815 92.3346C121.007 92.2667 121.219 92.2781 121.403 92.3664L143.842 103.12C145.618 103.96 147.572 104.357 149.535 104.277L197.178 102.198L197.419 102.184C197.481 102.181 197.543 102.185 197.604 102.196C200.365 102.706 203.143 102.557 205.426 101.777C206.622 101.366 207.737 100.904 208.816 100.458C213.874 98.3646 218.242 96.5566 226.468 101.672C226.985 101.994 227.527 102.343 228.085 102.703C230.966 104.564 234.552 106.881 236.723 106.354C237.043 106.27 237.342 106.12 237.6 105.912C237.858 105.705 238.068 105.444 238.218 105.149C239.44 103.023 233.436 97.6194 229.463 94.0433C229.046 93.6678 228.636 93.299 228.238 92.9384C228.108 92.8206 228.022 92.662 227.995 92.4888C227.967 92.3156 228 92.1382 228.087 91.986C228.174 91.8337 228.31 91.7157 228.473 91.6515C228.636 91.5873 228.816 91.5807 228.984 91.6329C236.602 94.0102 249.348 97.9871 250.628 94.6099C250.728 94.3574 250.772 94.0858 250.756 93.8144C250.74 93.5431 250.665 93.2786 250.535 93.0395C248.962 89.8353 240.005 86.7692 232.379 84.4563C232.194 84.4004 232.038 84.2774 231.94 84.1116C231.842 83.9458 231.809 83.7492 231.849 83.5607C231.889 83.3721 231.998 83.2054 232.154 83.0933C232.311 82.9812 232.504 82.9319 232.695 82.9552C236.476 83.4172 239.687 83.9518 242.519 84.4237C249.766 85.6317 252.993 86.0752 253.525 83.9199C253.674 83.3191 253.478 82.7109 252.924 82.0585C248.688 77.066 227.228 73.1688 218.099 73.9131C212.123 74.4138 202.776 75.4291 199.034 75.842C198.98 75.8481 198.924 75.8481 198.87 75.842C197.873 75.7733 168.456 75.2566 153.013 74.9931C152.902 74.9906 152.794 74.9643 152.694 74.9161L133.691 65.8052C133.509 65.7159 133.369 65.5582 133.302 65.3664C133.236 65.1746 133.248 64.9642 133.335 64.7811C133.423 64.5979 133.579 64.4569 133.77 64.3886C133.962 64.3203 134.172 64.3303 134.356 64.4165L153.207 73.4547C163.729 73.6344 196.47 74.199 198.917 74.3042C202.698 73.8867 212.004 72.8765 217.972 72.3766C226.601 71.6734 249.236 75.33 254.097 81.0601C254.982 82.1029 255.292 83.1903 255.019 84.2885C254.448 86.6026 252.344 86.9263 250.813 86.9686C248.773 87.0266 245.9 86.5464 242.267 85.942L241.243 85.7716C247.611 88.1376 250.846 90.1746 251.919 92.3592C252.142 92.7878 252.27 93.2592 252.296 93.7416C252.322 94.2241 252.245 94.7065 252.069 95.1566C250.467 99.3769 241.104 96.9657 231.868 94.1387C236.748 98.563 241.239 102.986 239.553 105.919C239.3 106.396 238.95 106.815 238.525 107.148C238.1 107.481 237.61 107.721 237.086 107.851C236.748 107.93 236.401 107.969 236.053 107.966Z" fill="#3C4043"/>
<path d="M121.069 93.8037C120.953 93.8036 120.839 93.7773 120.736 93.7267L102.758 85.1035C102.576 85.014 102.437 84.8563 102.371 84.6645C102.304 84.4727 102.316 84.2624 102.404 84.0794C102.491 83.8964 102.648 83.7554 102.839 83.6872C103.03 83.619 103.24 83.629 103.424 83.715L120.698 92.0011L133.322 64.7869C133.411 64.6066 133.567 64.4682 133.756 64.4013C133.946 64.3344 134.154 64.3443 134.336 64.429C134.518 64.5136 134.66 64.6662 134.731 64.8542C134.803 65.0422 134.798 65.2506 134.717 65.435L121.767 93.3579C121.705 93.4911 121.607 93.6038 121.483 93.6828C121.359 93.7618 121.216 93.8037 121.069 93.8037Z" fill="#3C4043"/>
</svg>
