<?xml version="1.0" encoding="UTF-8" standalone="no"?>
<!DOCTYPE svg PUBLIC "-//W3C//DTD SVG 1.1//EN"
 "http://www.w3.org/Graphics/SVG/1.1/DTD/svg11.dtd">
<!-- Generated by graphviz version 5.0.0 (20220707.1540)
 -->
<!-- Title: dependencies Pages: 1 -->
<svg width="982pt" height="174pt"
 viewBox="0.00 0.00 982.00 173.80" xmlns="http://www.w3.org/2000/svg" xmlns:xlink="http://www.w3.org/1999/xlink">
<g id="graph0" class="graph" transform="scale(1 1) rotate(0) translate(4 169.8)">
<title>dependencies</title>
<polygon fill="white" stroke="transparent" points="-4,4 -4,-169.8 978,-169.8 978,4 -4,4"/>
<text text-anchor="middle" x="487" y="-8.2" font-family="sans-serif" font-size="14.00">dependencies</text>
<g id="clust1" class="cluster">
<title>cluster_DashboardModule</title>
<polygon fill="none" stroke="black" stroke-dasharray="1,5" points="8,-32.8 8,-157.8 966,-157.8 966,-32.8 8,-32.8"/>
</g>
<g id="clust2" class="cluster">
<title>cluster_DashboardModule_declarations</title>
<polygon fill="none" stroke="black" points="800,-40.8 800,-92.8 958,-92.8 958,-40.8 800,-40.8"/>
</g>
<g id="clust4" class="cluster">
<title>cluster_DashboardModule_imports</title>
<polygon fill="none" stroke="black" points="16,-40.8 16,-92.8 792,-92.8 792,-40.8 16,-40.8"/>
</g>
<!-- DashboardComponent -->
<g id="node1" class="node">
<title>DashboardComponent</title>
<polygon fill="#ffffb3" stroke="black" points="949.98,-84.8 808.02,-84.8 808.02,-48.8 949.98,-48.8 949.98,-84.8"/>
<text text-anchor="middle" x="879" y="-62.6" font-family="Times,serif" font-size="14.00">DashboardComponent</text>
</g>
<!-- DashboardModule -->
<g id="node2" class="node">
<title>DashboardModule</title>
<polygon fill="#8dd3c7" stroke="black" points="549.2,-149.8 546.2,-153.8 525.2,-153.8 522.2,-149.8 428.8,-149.8 428.8,-113.8 549.2,-113.8 549.2,-149.8"/>
<text text-anchor="middle" x="489" y="-127.6" font-family="Times,serif" font-size="14.00">DashboardModule</text>
</g>
<!-- DashboardComponent&#45;&gt;DashboardModule -->
<g id="edge1" class="edge">
<title>DashboardComponent&#45;&gt;DashboardModule</title>
<path fill="none" stroke="black" d="M879,-85.08C879,-106.12 879,-137.8 879,-137.8 879,-137.8 559.51,-137.8 559.51,-137.8"/>
<polygon fill="black" stroke="black" points="559.51,-134.3 549.51,-137.8 559.51,-141.3 559.51,-134.3"/>
</g>
<!-- AnalyticsDropdownComponent -->
<g id="node3" class="node">
<title>AnalyticsDropdownComponent</title>
<polygon fill="#8dd3c7" stroke="black" points="784.37,-84.8 781.37,-88.8 760.37,-88.8 757.37,-84.8 589.63,-84.8 589.63,-48.8 784.37,-48.8 784.37,-84.8"/>
<text text-anchor="middle" x="687" y="-62.6" font-family="Times,serif" font-size="14.00">AnalyticsDropdownComponent</text>
</g>
<!-- AnalyticsDropdownComponent&#45;&gt;DashboardModule -->
<g id="edge2" class="edge">
<title>AnalyticsDropdownComponent&#45;&gt;DashboardModule</title>
<path fill="none" stroke="black" d="M687,-84.82C687,-102.17 687,-125.8 687,-125.8 687,-125.8 559.21,-125.8 559.21,-125.8"/>
<polygon fill="black" stroke="black" points="559.21,-122.3 549.21,-125.8 559.21,-129.3 559.21,-122.3"/>
</g>
<!-- DashboardRoutingModule -->
<g id="node4" class="node">
<title>DashboardRoutingModule</title>
<polygon fill="#8dd3c7" stroke="black" points="571.82,-84.8 568.82,-88.8 547.82,-88.8 544.82,-84.8 406.18,-84.8 406.18,-48.8 571.82,-48.8 571.82,-84.8"/>
<text text-anchor="middle" x="489" y="-62.6" font-family="Times,serif" font-size="14.00">DashboardRoutingModule</text>
</g>
<!-- DashboardRoutingModule&#45;&gt;DashboardModule -->
<g id="edge3" class="edge">
<title>DashboardRoutingModule&#45;&gt;DashboardModule</title>
<path fill="none" stroke="black" d="M489,-84.91C489,-84.91 489,-103.79 489,-103.79"/>
<polygon fill="black" stroke="black" points="485.5,-103.79 489,-113.79 492.5,-103.79 485.5,-103.79"/>
</g>
<!-- NgxDaterangepickerMd -->
<g id="node5" class="node">
<title>NgxDaterangepickerMd</title>
<polygon fill="#8dd3c7" stroke="black" points="388.06,-84.8 385.06,-88.8 364.06,-88.8 361.06,-84.8 235.94,-84.8 235.94,-48.8 388.06,-48.8 388.06,-84.8"/>
<text text-anchor="middle" x="312" y="-62.6" font-family="Times,serif" font-size="14.00">NgxDaterangepickerMd</text>
</g>
<!-- NgxDaterangepickerMd&#45;&gt;DashboardModule -->
<g id="edge4" class="edge">
<title>NgxDaterangepickerMd&#45;&gt;DashboardModule</title>
<path fill="none" stroke="black" d="M312,-84.82C312,-102.17 312,-125.8 312,-125.8 312,-125.8 418.58,-125.8 418.58,-125.8"/>
<polygon fill="black" stroke="black" points="418.58,-129.3 428.58,-125.8 418.58,-122.3 418.58,-129.3"/>
</g>
<!-- UseronboardingJourneyModule -->
<g id="node6" class="node">
<title>UseronboardingJourneyModule</title>
<polygon fill="#8dd3c7" stroke="black" points="218.08,-84.8 215.08,-88.8 194.08,-88.8 191.08,-84.8 23.92,-84.8 23.92,-48.8 218.08,-48.8 218.08,-84.8"/>
<text text-anchor="middle" x="121" y="-62.6" font-family="Times,serif" font-size="14.00">UseronboardingJourneyModule</text>
</g>
<!-- UseronboardingJourneyModule&#45;&gt;DashboardModule -->
<g id="edge5" class="edge">
<title>UseronboardingJourneyModule&#45;&gt;DashboardModule</title>
<path fill="none" stroke="black" d="M121,-85.08C121,-106.12 121,-137.8 121,-137.8 121,-137.8 418.64,-137.8 418.64,-137.8"/>
<polygon fill="black" stroke="black" points="418.64,-141.3 428.64,-137.8 418.64,-134.3 418.64,-141.3"/>
</g>
</g>
</svg>
