<?xml version="1.0" encoding="UTF-8" standalone="no"?>
<!DOCTYPE svg PUBLIC "-//W3C//DTD SVG 1.1//EN"
 "http://www.w3.org/Graphics/SVG/1.1/DTD/svg11.dtd">
<!-- Generated by graphviz version 5.0.0 (20220707.1540)
 -->
<!-- Title: dependencies Pages: 1 -->
<svg width="770pt" height="174pt"
 viewBox="0.00 0.00 770.00 173.80" xmlns="http://www.w3.org/2000/svg" xmlns:xlink="http://www.w3.org/1999/xlink">
<g id="graph0" class="graph" transform="scale(1 1) rotate(0) translate(4 169.8)">
<title>dependencies</title>
<polygon fill="white" stroke="transparent" points="-4,4 -4,-169.8 766,-169.8 766,4 -4,4"/>
<text text-anchor="middle" x="381" y="-8.2" font-family="sans-serif" font-size="14.00">dependencies</text>
<g id="clust1" class="cluster">
<title>cluster_DashboardModule</title>
<polygon fill="none" stroke="black" stroke-dasharray="1,5" points="8,-32.8 8,-157.8 754,-157.8 754,-32.8 8,-32.8"/>
</g>
<g id="clust2" class="cluster">
<title>cluster_DashboardModule_declarations</title>
<polygon fill="none" stroke="black" points="588,-40.8 588,-92.8 746,-92.8 746,-40.8 588,-40.8"/>
</g>
<g id="clust4" class="cluster">
<title>cluster_DashboardModule_imports</title>
<polygon fill="none" stroke="black" points="16,-40.8 16,-92.8 580,-92.8 580,-40.8 16,-40.8"/>
</g>
<!-- DashboardComponent -->
<g id="node1" class="node">
<title>DashboardComponent</title>
<polygon fill="#ffffb3" stroke="black" points="737.98,-84.8 596.02,-84.8 596.02,-48.8 737.98,-48.8 737.98,-84.8"/>
<text text-anchor="middle" x="667" y="-62.6" font-family="Times,serif" font-size="14.00">DashboardComponent</text>
</g>
<!-- DashboardModule -->
<g id="node2" class="node">
<title>DashboardModule</title>
<polygon fill="#8dd3c7" stroke="black" points="460.2,-149.8 457.2,-153.8 436.2,-153.8 433.2,-149.8 339.8,-149.8 339.8,-113.8 460.2,-113.8 460.2,-149.8"/>
<text text-anchor="middle" x="400" y="-127.6" font-family="Times,serif" font-size="14.00">DashboardModule</text>
</g>
<!-- DashboardComponent&#45;&gt;DashboardModule -->
<g id="edge1" class="edge">
<title>DashboardComponent&#45;&gt;DashboardModule</title>
<path fill="none" stroke="black" d="M667,-84.91C667,-104.14 667,-131.8 667,-131.8 667,-131.8 470.25,-131.8 470.25,-131.8"/>
<polygon fill="black" stroke="black" points="470.25,-128.3 460.25,-131.8 470.25,-135.3 470.25,-128.3"/>
</g>
<!-- DashboardRoutingModule -->
<g id="node3" class="node">
<title>DashboardRoutingModule</title>
<polygon fill="#8dd3c7" stroke="black" points="571.82,-84.8 568.82,-88.8 547.82,-88.8 544.82,-84.8 406.18,-84.8 406.18,-48.8 571.82,-48.8 571.82,-84.8"/>
<text text-anchor="middle" x="489" y="-62.6" font-family="Times,serif" font-size="14.00">DashboardRoutingModule</text>
</g>
<!-- DashboardRoutingModule&#45;&gt;DashboardModule -->
<g id="edge2" class="edge">
<title>DashboardRoutingModule&#45;&gt;DashboardModule</title>
<path fill="none" stroke="black" d="M433.22,-84.91C433.22,-84.91 433.22,-103.79 433.22,-103.79"/>
<polygon fill="black" stroke="black" points="429.72,-103.79 433.22,-113.79 436.72,-103.79 429.72,-103.79"/>
</g>
<!-- NgxDaterangepickerMd -->
<g id="node4" class="node">
<title>NgxDaterangepickerMd</title>
<polygon fill="#8dd3c7" stroke="black" points="388.06,-84.8 385.06,-88.8 364.06,-88.8 361.06,-84.8 235.94,-84.8 235.94,-48.8 388.06,-48.8 388.06,-84.8"/>
<text text-anchor="middle" x="312" y="-62.6" font-family="Times,serif" font-size="14.00">NgxDaterangepickerMd</text>
</g>
<!-- NgxDaterangepickerMd&#45;&gt;DashboardModule -->
<g id="edge3" class="edge">
<title>NgxDaterangepickerMd&#45;&gt;DashboardModule</title>
<path fill="none" stroke="black" d="M363.96,-84.91C363.96,-84.91 363.96,-103.79 363.96,-103.79"/>
<polygon fill="black" stroke="black" points="360.46,-103.79 363.96,-113.79 367.46,-103.79 360.46,-103.79"/>
</g>
<!-- UseronboardingJourneyModule -->
<g id="node5" class="node">
<title>UseronboardingJourneyModule</title>
<polygon fill="#8dd3c7" stroke="black" points="218.08,-84.8 215.08,-88.8 194.08,-88.8 191.08,-84.8 23.92,-84.8 23.92,-48.8 218.08,-48.8 218.08,-84.8"/>
<text text-anchor="middle" x="121" y="-62.6" font-family="Times,serif" font-size="14.00">UseronboardingJourneyModule</text>
</g>
<!-- UseronboardingJourneyModule&#45;&gt;DashboardModule -->
<g id="edge4" class="edge">
<title>UseronboardingJourneyModule&#45;&gt;DashboardModule</title>
<path fill="none" stroke="black" d="M121,-84.91C121,-104.14 121,-131.8 121,-131.8 121,-131.8 329.8,-131.8 329.8,-131.8"/>
<polygon fill="black" stroke="black" points="329.8,-135.3 339.8,-131.8 329.8,-128.3 329.8,-135.3"/>
</g>
</g>
</svg>
