<?xml version="1.0" encoding="UTF-8" standalone="no"?>
<!DOCTYPE svg PUBLIC "-//W3C//DTD SVG 1.1//EN"
 "http://www.w3.org/Graphics/SVG/1.1/DTD/svg11.dtd">
<!-- Generated by graphviz version 5.0.0 (20220707.1540)
 -->
<!-- Title: dependencies Pages: 1 -->
<svg width="1149pt" height="174pt"
 viewBox="0.00 0.00 1149.00 173.80" xmlns="http://www.w3.org/2000/svg" xmlns:xlink="http://www.w3.org/1999/xlink">
<g id="graph0" class="graph" transform="scale(1 1) rotate(0) translate(4 169.8)">
<title>dependencies</title>
<polygon fill="white" stroke="transparent" points="-4,4 -4,-169.8 1145,-169.8 1145,4 -4,4"/>
<text text-anchor="middle" x="570.5" y="-8.2" font-family="sans-serif" font-size="14.00">dependencies</text>
<g id="clust1" class="cluster">
<title>cluster_ResultInsightsModule</title>
<polygon fill="none" stroke="black" stroke-dasharray="1,5" points="8,-32.8 8,-157.8 1133,-157.8 1133,-32.8 8,-32.8"/>
</g>
<g id="clust2" class="cluster">
<title>cluster_ResultInsightsModule_declarations</title>
<polygon fill="none" stroke="black" points="947,-40.8 947,-92.8 1125,-92.8 1125,-40.8 947,-40.8"/>
</g>
<g id="clust4" class="cluster">
<title>cluster_ResultInsightsModule_imports</title>
<polygon fill="none" stroke="black" points="16,-40.8 16,-92.8 939,-92.8 939,-40.8 16,-40.8"/>
</g>
<!-- ResultInsightsComponent -->
<g id="node1" class="node">
<title>ResultInsightsComponent</title>
<polygon fill="#ffffb3" stroke="black" points="1116.95,-84.8 955.05,-84.8 955.05,-48.8 1116.95,-48.8 1116.95,-84.8"/>
<text text-anchor="middle" x="1036" y="-62.6" font-family="Times,serif" font-size="14.00">ResultInsightsComponent</text>
</g>
<!-- ResultInsightsModule -->
<g id="node2" class="node">
<title>ResultInsightsModule</title>
<polygon fill="#8dd3c7" stroke="black" points="657.67,-149.8 654.67,-153.8 633.67,-153.8 630.67,-149.8 518.33,-149.8 518.33,-113.8 657.67,-113.8 657.67,-149.8"/>
<text text-anchor="middle" x="588" y="-127.6" font-family="Times,serif" font-size="14.00">ResultInsightsModule</text>
</g>
<!-- ResultInsightsComponent&#45;&gt;ResultInsightsModule -->
<g id="edge1" class="edge">
<title>ResultInsightsComponent&#45;&gt;ResultInsightsModule</title>
<path fill="none" stroke="black" d="M1036,-85.08C1036,-106.12 1036,-137.8 1036,-137.8 1036,-137.8 668,-137.8 668,-137.8"/>
<polygon fill="black" stroke="black" points="668,-134.3 658,-137.8 668,-141.3 668,-134.3"/>
</g>
<!-- AnalyticsDropdownComponent -->
<g id="node3" class="node">
<title>AnalyticsDropdownComponent</title>
<polygon fill="#8dd3c7" stroke="black" points="931.37,-84.8 928.37,-88.8 907.37,-88.8 904.37,-84.8 736.63,-84.8 736.63,-48.8 931.37,-48.8 931.37,-84.8"/>
<text text-anchor="middle" x="834" y="-62.6" font-family="Times,serif" font-size="14.00">AnalyticsDropdownComponent</text>
</g>
<!-- AnalyticsDropdownComponent&#45;&gt;ResultInsightsModule -->
<g id="edge2" class="edge">
<title>AnalyticsDropdownComponent&#45;&gt;ResultInsightsModule</title>
<path fill="none" stroke="black" d="M834,-84.82C834,-102.17 834,-125.8 834,-125.8 834,-125.8 667.84,-125.8 667.84,-125.8"/>
<polygon fill="black" stroke="black" points="667.84,-122.3 657.84,-125.8 667.84,-129.3 667.84,-122.3"/>
</g>
<!-- KrModalModule -->
<g id="node4" class="node">
<title>KrModalModule</title>
<polygon fill="#8dd3c7" stroke="black" points="718.38,-84.8 715.38,-88.8 694.38,-88.8 691.38,-84.8 607.62,-84.8 607.62,-48.8 718.38,-48.8 718.38,-84.8"/>
<text text-anchor="middle" x="663" y="-62.6" font-family="Times,serif" font-size="14.00">KrModalModule</text>
</g>
<!-- KrModalModule&#45;&gt;ResultInsightsModule -->
<g id="edge3" class="edge">
<title>KrModalModule&#45;&gt;ResultInsightsModule</title>
<path fill="none" stroke="black" d="M632.7,-84.91C632.7,-84.91 632.7,-103.79 632.7,-103.79"/>
<polygon fill="black" stroke="black" points="629.2,-103.79 632.7,-113.79 636.2,-103.79 629.2,-103.79"/>
</g>
<!-- NgxDaterangepickerMd -->
<g id="node5" class="node">
<title>NgxDaterangepickerMd</title>
<polygon fill="#8dd3c7" stroke="black" points="590.06,-84.8 587.06,-88.8 566.06,-88.8 563.06,-84.8 437.94,-84.8 437.94,-48.8 590.06,-48.8 590.06,-84.8"/>
<text text-anchor="middle" x="514" y="-62.6" font-family="Times,serif" font-size="14.00">NgxDaterangepickerMd</text>
</g>
<!-- NgxDaterangepickerMd&#45;&gt;ResultInsightsModule -->
<g id="edge4" class="edge">
<title>NgxDaterangepickerMd&#45;&gt;ResultInsightsModule</title>
<path fill="none" stroke="black" d="M554.1,-84.91C554.1,-84.91 554.1,-103.79 554.1,-103.79"/>
<polygon fill="black" stroke="black" points="550.6,-103.79 554.1,-113.79 557.6,-103.79 550.6,-103.79"/>
</g>
<!-- ResultInsightsRoutingModule -->
<g id="node6" class="node">
<title>ResultInsightsRoutingModule</title>
<polygon fill="#8dd3c7" stroke="black" points="420.29,-84.8 417.29,-88.8 396.29,-88.8 393.29,-84.8 235.71,-84.8 235.71,-48.8 420.29,-48.8 420.29,-84.8"/>
<text text-anchor="middle" x="328" y="-62.6" font-family="Times,serif" font-size="14.00">ResultInsightsRoutingModule</text>
</g>
<!-- ResultInsightsRoutingModule&#45;&gt;ResultInsightsModule -->
<g id="edge5" class="edge">
<title>ResultInsightsRoutingModule&#45;&gt;ResultInsightsModule</title>
<path fill="none" stroke="black" d="M328,-84.82C328,-102.17 328,-125.8 328,-125.8 328,-125.8 508.32,-125.8 508.32,-125.8"/>
<polygon fill="black" stroke="black" points="508.32,-129.3 518.32,-125.8 508.32,-122.3 508.32,-129.3"/>
</g>
<!-- UseronboardingJourneyModule -->
<g id="node7" class="node">
<title>UseronboardingJourneyModule</title>
<polygon fill="#8dd3c7" stroke="black" points="218.08,-84.8 215.08,-88.8 194.08,-88.8 191.08,-84.8 23.92,-84.8 23.92,-48.8 218.08,-48.8 218.08,-84.8"/>
<text text-anchor="middle" x="121" y="-62.6" font-family="Times,serif" font-size="14.00">UseronboardingJourneyModule</text>
</g>
<!-- UseronboardingJourneyModule&#45;&gt;ResultInsightsModule -->
<g id="edge6" class="edge">
<title>UseronboardingJourneyModule&#45;&gt;ResultInsightsModule</title>
<path fill="none" stroke="black" d="M121,-85.08C121,-106.12 121,-137.8 121,-137.8 121,-137.8 508.09,-137.8 508.09,-137.8"/>
<polygon fill="black" stroke="black" points="508.09,-141.3 518.09,-137.8 508.09,-134.3 508.09,-141.3"/>
</g>
</g>
</svg>
