<?xml version="1.0" encoding="UTF-8" standalone="no"?>
<!DOCTYPE svg PUBLIC "-//W3C//DTD SVG 1.1//EN"
 "http://www.w3.org/Graphics/SVG/1.1/DTD/svg11.dtd">
<!-- Generated by graphviz version 5.0.0 (20220707.1540)
 -->
<!-- Title: dependencies Pages: 1 -->
<svg width="936pt" height="174pt"
 viewBox="0.00 0.00 936.00 173.80" xmlns="http://www.w3.org/2000/svg" xmlns:xlink="http://www.w3.org/1999/xlink">
<g id="graph0" class="graph" transform="scale(1 1) rotate(0) translate(4 169.8)">
<title>dependencies</title>
<polygon fill="white" stroke="transparent" points="-4,4 -4,-169.8 932,-169.8 932,4 -4,4"/>
<text text-anchor="middle" x="464" y="-8.2" font-family="sans-serif" font-size="14.00">dependencies</text>
<g id="clust1" class="cluster">
<title>cluster_ResultInsightsModule</title>
<polygon fill="none" stroke="black" stroke-dasharray="1,5" points="8,-32.8 8,-157.8 920,-157.8 920,-32.8 8,-32.8"/>
</g>
<g id="clust2" class="cluster">
<title>cluster_ResultInsightsModule_declarations</title>
<polygon fill="none" stroke="black" points="734,-40.8 734,-92.8 912,-92.8 912,-40.8 734,-40.8"/>
</g>
<g id="clust4" class="cluster">
<title>cluster_ResultInsightsModule_imports</title>
<polygon fill="none" stroke="black" points="16,-40.8 16,-92.8 726,-92.8 726,-40.8 16,-40.8"/>
</g>
<!-- ResultInsightsComponent -->
<g id="node1" class="node">
<title>ResultInsightsComponent</title>
<polygon fill="#ffffb3" stroke="black" points="903.95,-84.8 742.05,-84.8 742.05,-48.8 903.95,-48.8 903.95,-84.8"/>
<text text-anchor="middle" x="823" y="-62.6" font-family="Times,serif" font-size="14.00">ResultInsightsComponent</text>
</g>
<!-- ResultInsightsModule -->
<g id="node2" class="node">
<title>ResultInsightsModule</title>
<polygon fill="#8dd3c7" stroke="black" points="583.67,-149.8 580.67,-153.8 559.67,-153.8 556.67,-149.8 444.33,-149.8 444.33,-113.8 583.67,-113.8 583.67,-149.8"/>
<text text-anchor="middle" x="514" y="-127.6" font-family="Times,serif" font-size="14.00">ResultInsightsModule</text>
</g>
<!-- ResultInsightsComponent&#45;&gt;ResultInsightsModule -->
<g id="edge1" class="edge">
<title>ResultInsightsComponent&#45;&gt;ResultInsightsModule</title>
<path fill="none" stroke="black" d="M823,-85.08C823,-106.12 823,-137.8 823,-137.8 823,-137.8 593.73,-137.8 593.73,-137.8"/>
<polygon fill="black" stroke="black" points="593.73,-134.3 583.73,-137.8 593.73,-141.3 593.73,-134.3"/>
</g>
<!-- KrModalModule -->
<g id="node3" class="node">
<title>KrModalModule</title>
<polygon fill="#8dd3c7" stroke="black" points="718.38,-84.8 715.38,-88.8 694.38,-88.8 691.38,-84.8 607.62,-84.8 607.62,-48.8 718.38,-48.8 718.38,-84.8"/>
<text text-anchor="middle" x="663" y="-62.6" font-family="Times,serif" font-size="14.00">KrModalModule</text>
</g>
<!-- KrModalModule&#45;&gt;ResultInsightsModule -->
<g id="edge2" class="edge">
<title>KrModalModule&#45;&gt;ResultInsightsModule</title>
<path fill="none" stroke="black" d="M663,-84.82C663,-102.17 663,-125.8 663,-125.8 663,-125.8 593.7,-125.8 593.7,-125.8"/>
<polygon fill="black" stroke="black" points="593.7,-122.3 583.7,-125.8 593.7,-129.3 593.7,-122.3"/>
</g>
<!-- NgxDaterangepickerMd -->
<g id="node4" class="node">
<title>NgxDaterangepickerMd</title>
<polygon fill="#8dd3c7" stroke="black" points="590.06,-84.8 587.06,-88.8 566.06,-88.8 563.06,-84.8 437.94,-84.8 437.94,-48.8 590.06,-48.8 590.06,-84.8"/>
<text text-anchor="middle" x="514" y="-62.6" font-family="Times,serif" font-size="14.00">NgxDaterangepickerMd</text>
</g>
<!-- NgxDaterangepickerMd&#45;&gt;ResultInsightsModule -->
<g id="edge3" class="edge">
<title>NgxDaterangepickerMd&#45;&gt;ResultInsightsModule</title>
<path fill="none" stroke="black" d="M514,-84.91C514,-84.91 514,-103.79 514,-103.79"/>
<polygon fill="black" stroke="black" points="510.5,-103.79 514,-113.79 517.5,-103.79 510.5,-103.79"/>
</g>
<!-- ResultInsightsRoutingModule -->
<g id="node5" class="node">
<title>ResultInsightsRoutingModule</title>
<polygon fill="#8dd3c7" stroke="black" points="420.29,-84.8 417.29,-88.8 396.29,-88.8 393.29,-84.8 235.71,-84.8 235.71,-48.8 420.29,-48.8 420.29,-84.8"/>
<text text-anchor="middle" x="328" y="-62.6" font-family="Times,serif" font-size="14.00">ResultInsightsRoutingModule</text>
</g>
<!-- ResultInsightsRoutingModule&#45;&gt;ResultInsightsModule -->
<g id="edge4" class="edge">
<title>ResultInsightsRoutingModule&#45;&gt;ResultInsightsModule</title>
<path fill="none" stroke="black" d="M328,-84.82C328,-102.17 328,-125.8 328,-125.8 328,-125.8 434.21,-125.8 434.21,-125.8"/>
<polygon fill="black" stroke="black" points="434.21,-129.3 444.21,-125.8 434.21,-122.3 434.21,-129.3"/>
</g>
<!-- UseronboardingJourneyModule -->
<g id="node6" class="node">
<title>UseronboardingJourneyModule</title>
<polygon fill="#8dd3c7" stroke="black" points="218.08,-84.8 215.08,-88.8 194.08,-88.8 191.08,-84.8 23.92,-84.8 23.92,-48.8 218.08,-48.8 218.08,-84.8"/>
<text text-anchor="middle" x="121" y="-62.6" font-family="Times,serif" font-size="14.00">UseronboardingJourneyModule</text>
</g>
<!-- UseronboardingJourneyModule&#45;&gt;ResultInsightsModule -->
<g id="edge5" class="edge">
<title>UseronboardingJourneyModule&#45;&gt;ResultInsightsModule</title>
<path fill="none" stroke="black" d="M121,-85.08C121,-106.12 121,-137.8 121,-137.8 121,-137.8 434.19,-137.8 434.19,-137.8"/>
<polygon fill="black" stroke="black" points="434.19,-141.3 444.19,-137.8 434.19,-134.3 434.19,-141.3"/>
</g>
</g>
</svg>
