<?xml version="1.0" encoding="UTF-8" standalone="no"?>
<!DOCTYPE svg PUBLIC "-//W3C//DTD SVG 1.1//EN"
 "http://www.w3.org/Graphics/SVG/1.1/DTD/svg11.dtd">
<!-- Generated by graphviz version 5.0.0 (20220707.1540)
 -->
<!-- Title: dependencies Pages: 1 -->
<svg width="1066pt" height="174pt"
 viewBox="0.00 0.00 1066.00 173.80" xmlns="http://www.w3.org/2000/svg" xmlns:xlink="http://www.w3.org/1999/xlink">
<g id="graph0" class="graph" transform="scale(1 1) rotate(0) translate(4 169.8)">
<title>dependencies</title>
<polygon fill="white" stroke="transparent" points="-4,4 -4,-169.8 1062,-169.8 1062,4 -4,4"/>
<text text-anchor="middle" x="529" y="-8.2" font-family="sans-serif" font-size="14.00">dependencies</text>
<g id="clust1" class="cluster">
<title>cluster_ConnectorsModule</title>
<polygon fill="none" stroke="black" stroke-dasharray="1,5" points="8,-32.8 8,-157.8 1050,-157.8 1050,-32.8 8,-32.8"/>
</g>
<g id="clust2" class="cluster">
<title>cluster_ConnectorsModule_declarations</title>
<polygon fill="none" stroke="black" points="880,-40.8 880,-92.8 1042,-92.8 1042,-40.8 880,-40.8"/>
</g>
<g id="clust4" class="cluster">
<title>cluster_ConnectorsModule_imports</title>
<polygon fill="none" stroke="black" points="16,-40.8 16,-92.8 872,-92.8 872,-40.8 16,-40.8"/>
</g>
<!-- ConnectorsComponent -->
<g id="node1" class="node">
<title>ConnectorsComponent</title>
<polygon fill="#ffffb3" stroke="black" points="1033.6,-84.8 888.4,-84.8 888.4,-48.8 1033.6,-48.8 1033.6,-84.8"/>
<text text-anchor="middle" x="961" y="-62.6" font-family="Times,serif" font-size="14.00">ConnectorsComponent</text>
</g>
<!-- ConnectorsModule -->
<g id="node2" class="node">
<title>ConnectorsModule</title>
<polygon fill="#8dd3c7" stroke="black" points="600.82,-149.8 597.82,-153.8 576.82,-153.8 573.82,-149.8 477.18,-149.8 477.18,-113.8 600.82,-113.8 600.82,-149.8"/>
<text text-anchor="middle" x="539" y="-127.6" font-family="Times,serif" font-size="14.00">ConnectorsModule</text>
</g>
<!-- ConnectorsComponent&#45;&gt;ConnectorsModule -->
<g id="edge1" class="edge">
<title>ConnectorsComponent&#45;&gt;ConnectorsModule</title>
<path fill="none" stroke="black" d="M961,-85.08C961,-106.12 961,-137.8 961,-137.8 961,-137.8 610.81,-137.8 610.81,-137.8"/>
<polygon fill="black" stroke="black" points="610.81,-134.3 600.81,-137.8 610.81,-141.3 610.81,-134.3"/>
</g>
<!-- ConnectorsRoutingModule -->
<g id="node3" class="node">
<title>ConnectorsRoutingModule</title>
<polygon fill="#8dd3c7" stroke="black" points="864.44,-84.8 861.44,-88.8 840.44,-88.8 837.44,-84.8 695.56,-84.8 695.56,-48.8 864.44,-48.8 864.44,-84.8"/>
<text text-anchor="middle" x="780" y="-62.6" font-family="Times,serif" font-size="14.00">ConnectorsRoutingModule</text>
</g>
<!-- ConnectorsRoutingModule&#45;&gt;ConnectorsModule -->
<g id="edge2" class="edge">
<title>ConnectorsRoutingModule&#45;&gt;ConnectorsModule</title>
<path fill="none" stroke="black" d="M780,-84.82C780,-102.17 780,-125.8 780,-125.8 780,-125.8 610.75,-125.8 610.75,-125.8"/>
<polygon fill="black" stroke="black" points="610.75,-122.3 600.75,-125.8 610.75,-129.3 610.75,-122.3"/>
</g>
<!-- EmptyScreenModule -->
<g id="node4" class="node">
<title>EmptyScreenModule</title>
<polygon fill="#8dd3c7" stroke="black" points="677.47,-84.8 674.47,-88.8 653.47,-88.8 650.47,-84.8 542.53,-84.8 542.53,-48.8 677.47,-48.8 677.47,-84.8"/>
<text text-anchor="middle" x="610" y="-62.6" font-family="Times,serif" font-size="14.00">EmptyScreenModule</text>
</g>
<!-- EmptyScreenModule&#45;&gt;ConnectorsModule -->
<g id="edge3" class="edge">
<title>EmptyScreenModule&#45;&gt;ConnectorsModule</title>
<path fill="none" stroke="black" d="M571.59,-84.91C571.59,-84.91 571.59,-103.79 571.59,-103.79"/>
<polygon fill="black" stroke="black" points="568.09,-103.79 571.59,-113.79 575.09,-103.79 568.09,-103.79"/>
</g>
<!-- KrModalModule -->
<g id="node5" class="node">
<title>KrModalModule</title>
<polygon fill="#8dd3c7" stroke="black" points="524.38,-84.8 521.38,-88.8 500.38,-88.8 497.38,-84.8 413.62,-84.8 413.62,-48.8 524.38,-48.8 524.38,-84.8"/>
<text text-anchor="middle" x="469" y="-62.6" font-family="Times,serif" font-size="14.00">KrModalModule</text>
</g>
<!-- KrModalModule&#45;&gt;ConnectorsModule -->
<g id="edge4" class="edge">
<title>KrModalModule&#45;&gt;ConnectorsModule</title>
<path fill="none" stroke="black" d="M500.89,-84.91C500.89,-84.91 500.89,-103.79 500.89,-103.79"/>
<polygon fill="black" stroke="black" points="497.39,-103.79 500.89,-113.79 504.39,-103.79 497.39,-103.79"/>
</g>
<!-- RecordPaginationModule -->
<g id="node6" class="node">
<title>RecordPaginationModule</title>
<polygon fill="#8dd3c7" stroke="black" points="395.86,-84.8 392.86,-88.8 371.86,-88.8 368.86,-84.8 236.14,-84.8 236.14,-48.8 395.86,-48.8 395.86,-84.8"/>
<text text-anchor="middle" x="316" y="-62.6" font-family="Times,serif" font-size="14.00">RecordPaginationModule</text>
</g>
<!-- RecordPaginationModule&#45;&gt;ConnectorsModule -->
<g id="edge5" class="edge">
<title>RecordPaginationModule&#45;&gt;ConnectorsModule</title>
<path fill="none" stroke="black" d="M316,-84.82C316,-102.17 316,-125.8 316,-125.8 316,-125.8 467.18,-125.8 467.18,-125.8"/>
<polygon fill="black" stroke="black" points="467.18,-129.3 477.18,-125.8 467.18,-122.3 467.18,-129.3"/>
</g>
<!-- UseronboardingJourneyModule -->
<g id="node7" class="node">
<title>UseronboardingJourneyModule</title>
<polygon fill="#8dd3c7" stroke="black" points="218.08,-84.8 215.08,-88.8 194.08,-88.8 191.08,-84.8 23.92,-84.8 23.92,-48.8 218.08,-48.8 218.08,-84.8"/>
<text text-anchor="middle" x="121" y="-62.6" font-family="Times,serif" font-size="14.00">UseronboardingJourneyModule</text>
</g>
<!-- UseronboardingJourneyModule&#45;&gt;ConnectorsModule -->
<g id="edge6" class="edge">
<title>UseronboardingJourneyModule&#45;&gt;ConnectorsModule</title>
<path fill="none" stroke="black" d="M121,-85.08C121,-106.12 121,-137.8 121,-137.8 121,-137.8 467.32,-137.8 467.32,-137.8"/>
<polygon fill="black" stroke="black" points="467.32,-141.3 477.32,-137.8 467.32,-134.3 467.32,-141.3"/>
</g>
</g>
</svg>
