<?xml version="1.0" encoding="UTF-8" standalone="no"?>
<!DOCTYPE svg PUBLIC "-//W3C//DTD SVG 1.1//EN"
 "http://www.w3.org/Graphics/SVG/1.1/DTD/svg11.dtd">
<!-- Generated by graphviz version 5.0.0 (20220707.1540)
 -->
<!-- Title: dependencies Pages: 1 -->
<svg width="842pt" height="174pt"
 viewBox="0.00 0.00 842.00 173.80" xmlns="http://www.w3.org/2000/svg" xmlns:xlink="http://www.w3.org/1999/xlink">
<g id="graph0" class="graph" transform="scale(1 1) rotate(0) translate(4 169.8)">
<title>dependencies</title>
<polygon fill="white" stroke="transparent" points="-4,4 -4,-169.8 838,-169.8 838,4 -4,4"/>
<text text-anchor="middle" x="417" y="-8.2" font-family="sans-serif" font-size="14.00">dependencies</text>
<g id="clust1" class="cluster">
<title>cluster_UserEngagementModule</title>
<polygon fill="none" stroke="black" stroke-dasharray="1,5" points="8,-32.8 8,-157.8 826,-157.8 826,-32.8 8,-32.8"/>
</g>
<g id="clust2" class="cluster">
<title>cluster_UserEngagementModule_declarations</title>
<polygon fill="none" stroke="black" points="624,-40.8 624,-92.8 818,-92.8 818,-40.8 624,-40.8"/>
</g>
<g id="clust4" class="cluster">
<title>cluster_UserEngagementModule_imports</title>
<polygon fill="none" stroke="black" points="16,-40.8 16,-92.8 616,-92.8 616,-40.8 16,-40.8"/>
</g>
<!-- UserEngagementComponent -->
<g id="node1" class="node">
<title>UserEngagementComponent</title>
<polygon fill="#ffffb3" stroke="black" points="809.74,-84.8 632.26,-84.8 632.26,-48.8 809.74,-48.8 809.74,-84.8"/>
<text text-anchor="middle" x="721" y="-62.6" font-family="Times,serif" font-size="14.00">UserEngagementComponent</text>
</g>
<!-- UserEngagementModule -->
<g id="node2" class="node">
<title>UserEngagementModule</title>
<polygon fill="#8dd3c7" stroke="black" points="511.96,-149.8 508.96,-153.8 487.96,-153.8 484.96,-149.8 356.04,-149.8 356.04,-113.8 511.96,-113.8 511.96,-149.8"/>
<text text-anchor="middle" x="434" y="-127.6" font-family="Times,serif" font-size="14.00">UserEngagementModule</text>
</g>
<!-- UserEngagementComponent&#45;&gt;UserEngagementModule -->
<g id="edge1" class="edge">
<title>UserEngagementComponent&#45;&gt;UserEngagementModule</title>
<path fill="none" stroke="black" d="M721,-84.91C721,-104.14 721,-131.8 721,-131.8 721,-131.8 522.04,-131.8 522.04,-131.8"/>
<polygon fill="black" stroke="black" points="522.04,-128.3 512.04,-131.8 522.04,-135.3 522.04,-128.3"/>
</g>
<!-- NgxDaterangepickerMd -->
<g id="node3" class="node">
<title>NgxDaterangepickerMd</title>
<polygon fill="#8dd3c7" stroke="black" points="608.06,-84.8 605.06,-88.8 584.06,-88.8 581.06,-84.8 455.94,-84.8 455.94,-48.8 608.06,-48.8 608.06,-84.8"/>
<text text-anchor="middle" x="532" y="-62.6" font-family="Times,serif" font-size="14.00">NgxDaterangepickerMd</text>
</g>
<!-- NgxDaterangepickerMd&#45;&gt;UserEngagementModule -->
<g id="edge2" class="edge">
<title>NgxDaterangepickerMd&#45;&gt;UserEngagementModule</title>
<path fill="none" stroke="black" d="M483.98,-84.91C483.98,-84.91 483.98,-103.79 483.98,-103.79"/>
<polygon fill="black" stroke="black" points="480.48,-103.79 483.98,-113.79 487.48,-103.79 480.48,-103.79"/>
</g>
<!-- UserEngagementRoutingModule -->
<g id="node4" class="node">
<title>UserEngagementRoutingModule</title>
<polygon fill="#8dd3c7" stroke="black" points="437.58,-84.8 434.58,-88.8 413.58,-88.8 410.58,-84.8 236.42,-84.8 236.42,-48.8 437.58,-48.8 437.58,-84.8"/>
<text text-anchor="middle" x="337" y="-62.6" font-family="Times,serif" font-size="14.00">UserEngagementRoutingModule</text>
</g>
<!-- UserEngagementRoutingModule&#45;&gt;UserEngagementModule -->
<g id="edge3" class="edge">
<title>UserEngagementRoutingModule&#45;&gt;UserEngagementModule</title>
<path fill="none" stroke="black" d="M396.78,-84.91C396.78,-84.91 396.78,-103.79 396.78,-103.79"/>
<polygon fill="black" stroke="black" points="393.28,-103.79 396.78,-113.79 400.28,-103.79 393.28,-103.79"/>
</g>
<!-- UseronboardingJourneyModule -->
<g id="node5" class="node">
<title>UseronboardingJourneyModule</title>
<polygon fill="#8dd3c7" stroke="black" points="218.08,-84.8 215.08,-88.8 194.08,-88.8 191.08,-84.8 23.92,-84.8 23.92,-48.8 218.08,-48.8 218.08,-84.8"/>
<text text-anchor="middle" x="121" y="-62.6" font-family="Times,serif" font-size="14.00">UseronboardingJourneyModule</text>
</g>
<!-- UseronboardingJourneyModule&#45;&gt;UserEngagementModule -->
<g id="edge4" class="edge">
<title>UseronboardingJourneyModule&#45;&gt;UserEngagementModule</title>
<path fill="none" stroke="black" d="M121,-84.91C121,-104.14 121,-131.8 121,-131.8 121,-131.8 345.82,-131.8 345.82,-131.8"/>
<polygon fill="black" stroke="black" points="345.82,-135.3 355.82,-131.8 345.82,-128.3 345.82,-135.3"/>
</g>
</g>
</svg>
