<?xml version="1.0" encoding="UTF-8" standalone="no"?>
<!DOCTYPE svg PUBLIC "-//W3C//DTD SVG 1.1//EN"
 "http://www.w3.org/Graphics/SVG/1.1/DTD/svg11.dtd">
<!-- Generated by graphviz version 5.0.0 (20220707.1540)
 -->
<!-- Title: dependencies Pages: 1 -->
<svg width="1054pt" height="174pt"
 viewBox="0.00 0.00 1054.00 173.80" xmlns="http://www.w3.org/2000/svg" xmlns:xlink="http://www.w3.org/1999/xlink">
<g id="graph0" class="graph" transform="scale(1 1) rotate(0) translate(4 169.8)">
<title>dependencies</title>
<polygon fill="white" stroke="transparent" points="-4,4 -4,-169.8 1050,-169.8 1050,4 -4,4"/>
<text text-anchor="middle" x="523" y="-8.2" font-family="sans-serif" font-size="14.00">dependencies</text>
<g id="clust1" class="cluster">
<title>cluster_UserEngagementModule</title>
<polygon fill="none" stroke="black" stroke-dasharray="1,5" points="8,-32.8 8,-157.8 1038,-157.8 1038,-32.8 8,-32.8"/>
</g>
<g id="clust2" class="cluster">
<title>cluster_UserEngagementModule_declarations</title>
<polygon fill="none" stroke="black" points="836,-40.8 836,-92.8 1030,-92.8 1030,-40.8 836,-40.8"/>
</g>
<g id="clust4" class="cluster">
<title>cluster_UserEngagementModule_imports</title>
<polygon fill="none" stroke="black" points="16,-40.8 16,-92.8 828,-92.8 828,-40.8 16,-40.8"/>
</g>
<!-- UserEngagementComponent -->
<g id="node1" class="node">
<title>UserEngagementComponent</title>
<polygon fill="#ffffb3" stroke="black" points="1021.74,-84.8 844.26,-84.8 844.26,-48.8 1021.74,-48.8 1021.74,-84.8"/>
<text text-anchor="middle" x="933" y="-62.6" font-family="Times,serif" font-size="14.00">UserEngagementComponent</text>
</g>
<!-- UserEngagementModule -->
<g id="node2" class="node">
<title>UserEngagementModule</title>
<polygon fill="#8dd3c7" stroke="black" points="609.96,-149.8 606.96,-153.8 585.96,-153.8 582.96,-149.8 454.04,-149.8 454.04,-113.8 609.96,-113.8 609.96,-149.8"/>
<text text-anchor="middle" x="532" y="-127.6" font-family="Times,serif" font-size="14.00">UserEngagementModule</text>
</g>
<!-- UserEngagementComponent&#45;&gt;UserEngagementModule -->
<g id="edge1" class="edge">
<title>UserEngagementComponent&#45;&gt;UserEngagementModule</title>
<path fill="none" stroke="black" d="M933,-85.08C933,-106.12 933,-137.8 933,-137.8 933,-137.8 620.27,-137.8 620.27,-137.8"/>
<polygon fill="black" stroke="black" points="620.27,-134.3 610.27,-137.8 620.27,-141.3 620.27,-134.3"/>
</g>
<!-- AnalyticsDropdownComponent -->
<g id="node3" class="node">
<title>AnalyticsDropdownComponent</title>
<polygon fill="#8dd3c7" stroke="black" points="820.37,-84.8 817.37,-88.8 796.37,-88.8 793.37,-84.8 625.63,-84.8 625.63,-48.8 820.37,-48.8 820.37,-84.8"/>
<text text-anchor="middle" x="723" y="-62.6" font-family="Times,serif" font-size="14.00">AnalyticsDropdownComponent</text>
</g>
<!-- AnalyticsDropdownComponent&#45;&gt;UserEngagementModule -->
<g id="edge2" class="edge">
<title>AnalyticsDropdownComponent&#45;&gt;UserEngagementModule</title>
<path fill="none" stroke="black" d="M723,-84.82C723,-102.17 723,-125.8 723,-125.8 723,-125.8 619.96,-125.8 619.96,-125.8"/>
<polygon fill="black" stroke="black" points="619.96,-122.3 609.96,-125.8 619.96,-129.3 619.96,-122.3"/>
</g>
<!-- NgxDaterangepickerMd -->
<g id="node4" class="node">
<title>NgxDaterangepickerMd</title>
<polygon fill="#8dd3c7" stroke="black" points="608.06,-84.8 605.06,-88.8 584.06,-88.8 581.06,-84.8 455.94,-84.8 455.94,-48.8 608.06,-48.8 608.06,-84.8"/>
<text text-anchor="middle" x="532" y="-62.6" font-family="Times,serif" font-size="14.00">NgxDaterangepickerMd</text>
</g>
<!-- NgxDaterangepickerMd&#45;&gt;UserEngagementModule -->
<g id="edge3" class="edge">
<title>NgxDaterangepickerMd&#45;&gt;UserEngagementModule</title>
<path fill="none" stroke="black" d="M532,-84.91C532,-84.91 532,-103.79 532,-103.79"/>
<polygon fill="black" stroke="black" points="528.5,-103.79 532,-113.79 535.5,-103.79 528.5,-103.79"/>
</g>
<!-- UserEngagementRoutingModule -->
<g id="node5" class="node">
<title>UserEngagementRoutingModule</title>
<polygon fill="#8dd3c7" stroke="black" points="437.58,-84.8 434.58,-88.8 413.58,-88.8 410.58,-84.8 236.42,-84.8 236.42,-48.8 437.58,-48.8 437.58,-84.8"/>
<text text-anchor="middle" x="337" y="-62.6" font-family="Times,serif" font-size="14.00">UserEngagementRoutingModule</text>
</g>
<!-- UserEngagementRoutingModule&#45;&gt;UserEngagementModule -->
<g id="edge4" class="edge">
<title>UserEngagementRoutingModule&#45;&gt;UserEngagementModule</title>
<path fill="none" stroke="black" d="M337,-84.82C337,-102.17 337,-125.8 337,-125.8 337,-125.8 443.81,-125.8 443.81,-125.8"/>
<polygon fill="black" stroke="black" points="443.81,-129.3 453.81,-125.8 443.81,-122.3 443.81,-129.3"/>
</g>
<!-- UseronboardingJourneyModule -->
<g id="node6" class="node">
<title>UseronboardingJourneyModule</title>
<polygon fill="#8dd3c7" stroke="black" points="218.08,-84.8 215.08,-88.8 194.08,-88.8 191.08,-84.8 23.92,-84.8 23.92,-48.8 218.08,-48.8 218.08,-84.8"/>
<text text-anchor="middle" x="121" y="-62.6" font-family="Times,serif" font-size="14.00">UseronboardingJourneyModule</text>
</g>
<!-- UseronboardingJourneyModule&#45;&gt;UserEngagementModule -->
<g id="edge5" class="edge">
<title>UseronboardingJourneyModule&#45;&gt;UserEngagementModule</title>
<path fill="none" stroke="black" d="M121,-85.08C121,-106.12 121,-137.8 121,-137.8 121,-137.8 443.73,-137.8 443.73,-137.8"/>
<polygon fill="black" stroke="black" points="443.73,-141.3 453.73,-137.8 443.73,-134.3 443.73,-141.3"/>
</g>
</g>
</svg>
