<?xml version="1.0" encoding="UTF-8" standalone="no"?>
<!DOCTYPE svg PUBLIC "-//W3C//DTD SVG 1.1//EN"
 "http://www.w3.org/Graphics/SVG/1.1/DTD/svg11.dtd">
<!-- Generated by graphviz version 5.0.0 (20220707.1540)
 -->
<!-- Title: dependencies Pages: 1 -->
<svg width="697pt" height="247pt"
 viewBox="0.00 0.00 697.00 246.80" xmlns="http://www.w3.org/2000/svg" xmlns:xlink="http://www.w3.org/1999/xlink">
<g id="graph0" class="graph" transform="scale(1 1) rotate(0) translate(4 242.8)">
<title>dependencies</title>
<polygon fill="white" stroke="transparent" points="-4,4 -4,-242.8 693,-242.8 693,4 -4,4"/>
<text text-anchor="middle" x="344.5" y="-8.2" font-family="sans-serif" font-size="14.00">dependencies</text>
<g id="clust1" class="cluster">
<title>cluster_MainMenuModule</title>
<polygon fill="none" stroke="black" stroke-dasharray="1,5" points="8,-32.8 8,-230.8 681,-230.8 681,-32.8 8,-32.8"/>
</g>
<g id="clust2" class="cluster">
<title>cluster_MainMenuModule_declarations</title>
<polygon fill="none" stroke="black" points="301,-40.8 301,-92.8 673,-92.8 673,-40.8 301,-40.8"/>
</g>
<g id="clust6" class="cluster">
<title>cluster_MainMenuModule_exports</title>
<polygon fill="none" stroke="black" points="223,-170.8 223,-222.8 387,-222.8 387,-170.8 223,-170.8"/>
</g>
<g id="clust5" class="cluster">
<title>cluster_MainMenuModule_imports</title>
<polygon fill="none" stroke="black" points="16,-40.8 16,-92.8 293,-92.8 293,-40.8 16,-40.8"/>
</g>
<!-- ConfirmationDialogComponent -->
<g id="node1" class="node">
<title>ConfirmationDialogComponent</title>
<polygon fill="#ffffb3" stroke="black" points="665.37,-84.8 470.63,-84.8 470.63,-48.8 665.37,-48.8 665.37,-84.8"/>
<text text-anchor="middle" x="568" y="-62.6" font-family="Times,serif" font-size="14.00">ConfirmationDialogComponent</text>
</g>
<!-- MainMenuModule -->
<g id="node3" class="node">
<title>MainMenuModule</title>
<polygon fill="#8dd3c7" stroke="black" points="365.77,-149.8 362.77,-153.8 341.77,-153.8 338.77,-149.8 244.23,-149.8 244.23,-113.8 365.77,-113.8 365.77,-149.8"/>
<text text-anchor="middle" x="305" y="-127.6" font-family="Times,serif" font-size="14.00">MainMenuModule</text>
</g>
<!-- ConfirmationDialogComponent&#45;&gt;MainMenuModule -->
<g id="edge1" class="edge">
<title>ConfirmationDialogComponent&#45;&gt;MainMenuModule</title>
<path fill="none" stroke="black" d="M568,-84.91C568,-104.14 568,-131.8 568,-131.8 568,-131.8 376,-131.8 376,-131.8"/>
<polygon fill="black" stroke="black" points="376,-128.3 366,-131.8 376,-135.3 376,-128.3"/>
</g>
<!-- MainMenuComponent -->
<g id="node2" class="node">
<title>MainMenuComponent</title>
<polygon fill="#ffffb3" stroke="black" points="452.55,-84.8 309.45,-84.8 309.45,-48.8 452.55,-48.8 452.55,-84.8"/>
<text text-anchor="middle" x="381" y="-62.6" font-family="Times,serif" font-size="14.00">MainMenuComponent</text>
</g>
<!-- MainMenuComponent&#45;&gt;MainMenuModule -->
<g id="edge2" class="edge">
<title>MainMenuComponent&#45;&gt;MainMenuModule</title>
<path fill="none" stroke="black" d="M337.56,-84.91C337.56,-84.91 337.56,-103.79 337.56,-103.79"/>
<polygon fill="black" stroke="black" points="334.06,-103.79 337.56,-113.79 341.06,-103.79 334.06,-103.79"/>
</g>
<!-- MainMenuComponent  -->
<g id="node6" class="node">
<title>MainMenuComponent </title>
<polygon fill="#fb8072" stroke="black" points="378.54,-214.8 231.46,-214.8 231.46,-178.8 378.54,-178.8 378.54,-214.8"/>
<text text-anchor="middle" x="305" y="-192.6" font-family="Times,serif" font-size="14.00">MainMenuComponent </text>
</g>
<!-- MainMenuModule&#45;&gt;MainMenuComponent  -->
<g id="edge5" class="edge">
<title>MainMenuModule&#45;&gt;MainMenuComponent </title>
<path fill="none" stroke="black" stroke-dasharray="5,2" d="M305,-149.91C305,-149.91 305,-168.79 305,-168.79"/>
<polygon fill="black" stroke="black" points="301.5,-168.79 305,-178.79 308.5,-168.79 301.5,-168.79"/>
</g>
<!-- KrModalModule -->
<g id="node4" class="node">
<title>KrModalModule</title>
<polygon fill="#8dd3c7" stroke="black" points="285.38,-84.8 282.38,-88.8 261.38,-88.8 258.38,-84.8 174.62,-84.8 174.62,-48.8 285.38,-48.8 285.38,-84.8"/>
<text text-anchor="middle" x="230" y="-62.6" font-family="Times,serif" font-size="14.00">KrModalModule</text>
</g>
<!-- KrModalModule&#45;&gt;MainMenuModule -->
<g id="edge3" class="edge">
<title>KrModalModule&#45;&gt;MainMenuModule</title>
<path fill="none" stroke="black" d="M264.78,-84.91C264.78,-84.91 264.78,-103.79 264.78,-103.79"/>
<polygon fill="black" stroke="black" points="261.28,-103.79 264.78,-113.79 268.28,-103.79 261.28,-103.79"/>
</g>
<!-- UpgradePlanModule -->
<g id="node5" class="node">
<title>UpgradePlanModule</title>
<polygon fill="#8dd3c7" stroke="black" points="156.14,-84.8 153.14,-88.8 132.14,-88.8 129.14,-84.8 23.86,-84.8 23.86,-48.8 156.14,-48.8 156.14,-84.8"/>
<text text-anchor="middle" x="90" y="-62.6" font-family="Times,serif" font-size="14.00">UpgradePlanModule</text>
</g>
<!-- UpgradePlanModule&#45;&gt;MainMenuModule -->
<g id="edge4" class="edge">
<title>UpgradePlanModule&#45;&gt;MainMenuModule</title>
<path fill="none" stroke="black" d="M90,-84.91C90,-104.14 90,-131.8 90,-131.8 90,-131.8 233.96,-131.8 233.96,-131.8"/>
<polygon fill="black" stroke="black" points="233.96,-135.3 243.96,-131.8 233.96,-128.3 233.96,-135.3"/>
</g>
</g>
</svg>
