<svg width="48" height="48" viewBox="0 0 48 48" fill="none" xmlns="http://www.w3.org/2000/svg">
<path d="M41 10H25V38H41C41.553 38 42 37.553 42 37V11C42 10.447 41.553 10 41 10Z" fill="#B893F2"/>
<path d="M32 15H39V18H32V15ZM32 25H39V28H32V25ZM32 30H39V33H32V30ZM32 20H39V23H32V20ZM25 15H30V18H25V15ZM25 25H30V28H25V25ZM25 30H30V33H25V30ZM25 20H30V23H25V20Z" fill="white"/>
<path d="M27 42L6 38V10L27 6V42Z" fill="#7027E5"/>
<path d="M19.129 31L16.718 26.439C16.626 26.268 16.532 25.956 16.434 25.501H16.397C16.351 25.716 16.243 26.042 16.073 26.48L13.652 31H9.89502L14.357 23.999L10.274 17H14.111L16.112 21.196C16.268 21.527 16.408 21.921 16.532 22.375H16.572C16.65 22.104 16.796 21.695 17.011 21.155L19.237 17H22.752L18.553 23.939L22.869 30.998H19.129V31Z" fill="white"/>
</svg>
