<svg width="14" height="14" viewBox="0 0 14 14" fill="none" xmlns="http://www.w3.org/2000/svg">
<path d="M7.47136 0.8119C7.29617 0.396078 6.70682 0.396017 6.53158 0.811817C5.8998 2.31081 4.91448 4.65052 4.91448 4.65052L0.955781 5.08057C0.522929 5.1276 0.34406 5.66016 0.660804 5.95883L3.63993 8.76796L2.79861 12.8863C2.70947 13.3227 3.18327 13.6557 3.56382 13.4242L7.00157 11.3324L10.436 13.4241C10.8164 13.6557 11.2903 13.323 11.2015 12.8867L10.3632 8.76796L13.3394 5.95864C13.6559 5.65991 13.477 5.12762 13.0443 5.08058L9.08865 4.65052L7.47136 0.8119ZM7.00157 2.32102L8.38366 5.59825L11.8409 5.97256L9.25195 8.41754L9.96889 11.9456L7.00157 10.1378L4.03026 11.9456L4.75118 8.41754L2.16623 5.97256L5.61947 5.59825L7.00157 2.32102Z" fill="#202124"/>
</svg>
