<svg width="13" height="14" fill="none" xmlns="http://www.w3.org/2000/svg"><path d="M5.498 0c-.825 0-1.5.676-1.5 1.5L4 7.883 2.56 6.437a1.515 1.515 0 0 0-2.126 0 1.515 1.515 0 0 0 0 2.125l3.594 3.59A6.305 6.305 0 0 0 8.498 14c2.48 0 4.5-2.02 4.5-4.5v-3c0-.824-.676-1.5-1.5-1.5-.196 0-.387.04-.559.11A1.508 1.508 0 0 0 9.498 4a1.5 1.5 0 0 0-1 .39 1.501 1.501 0 0 0-1-.39c-.176 0-.344.04-.5.094V1.5c0-.824-.676-1.5-1.5-1.5Zm0 1c.28 0 .5.219.5.5V7h1V5.5c0-.281.218-.5.5-.5.28 0 .5.219.5.5V7h1V5.5c0-.281.218-.5.5-.5.28 0 .5.219.5.5V7h1v-.5c0-.281.218-.5.5-.5.28 0 .5.219.5.5v3a3.49 3.49 0 0 1-3.5 3.5 5.309 5.309 0 0 1-3.766-1.559l-3.586-3.59a.482.482 0 0 1 0-.703.482.482 0 0 1 .703 0l3.152 3.149L4.998 1.5c0-.281.218-.5.5-.5Z" fill="#9AA0A6"/></svg>