<svg width="16" height="16" fill="none" xmlns="http://www.w3.org/2000/svg"><path d="M5.695 6.474c0-1.992 1.977-2.9 3.433-2.18.92.456 1.48 1.546 1.295 2.438-.137.664-.424 1.052-1.002 1.525l-.223.177c-.565.443-.724.673-.724 1.205a.467.467 0 1 1-.934 0c0-.838.28-1.289.964-1.846l.22-.175c.502-.394.693-.633.785-1.075.096-.468-.25-1.141-.795-1.411-.886-.438-2.085.112-2.085 1.342a.467.467 0 1 1-.934 0Zm2.919 4.908a.57.57 0 1 1-1.138 0 .57.57 0 0 1 1.138 0Z" fill="#9AA0A6"/><path fill-rule="evenodd" clip-rule="evenodd" d="M8 .889A7.111 7.111 0 1 0 8 15.11 7.111 7.111 0 0 0 8 .89Zm0 1.053a6.058 6.058 0 1 1 0 12.116A6.058 6.058 0 0 1 8 1.942Z" fill="#9AA0A6"/></svg>