<svg xmlns="http://www.w3.org/2000/svg" width="16" height="16"><g fill="none" fill-rule="evenodd"><path d="M0 0h16v16H0z"/><path fill="#26344A" d="M6.3 3.451a.517.517 0 0 1 .694.034l.033.036a.515.515 0 0 1-.033.693L3.763 7.445l9.72.001.048.002a.516.516 0 0 1-.047 1.03H3.762l3.232 3.232.033.037a.515.515 0 0 1-.763.693L2.151 8.327l-.033-.036-.006-.008a.498.498 0 0 1-.085-.155l-.01-.033A.577.577 0 0 1 2 7.962l.006.08-.005-.05L2 7.961v-.008c0-.017.001-.035.004-.052.001-.016.004-.031.007-.046l.009-.036c.005-.017.01-.035.018-.051a.44.44 0 0 1 .043-.084.575.575 0 0 1 .07-.088l-.052.06.041-.048.011-.012 4.113-4.112z"/></g></svg>