<svg width="12" height="10" xmlns="http://www.w3.org/2000/svg"><g fill="none"><path d="M-2-3h16v16H-2z"/><path d="m7.7.451.036.034 4.113 4.112.01.012a.493.493 0 0 1 .042.049l-.052-.06a.524.524 0 0 1 .097.134l.017.037.017.051.01.037.007.05.003.041v.014l-.002.043a.22.22 0 0 1-.004.037l.006-.08a.54.54 0 0 1-.017.134l-.01.032a.52.52 0 0 1-.085.155l-.006.008-.033.036L7.736 9.44a.515.515 0 0 1-.763-.693l.033-.037 3.231-3.232H.517a.516.516 0 0 1-.047-1.03l.046-.002h9.72l-3.23-3.232a.516.516 0 0 1-.033-.693l.033-.036c.19-.19.49-.201.693-.034H7.7Z" fill="#009DAB"/></g></svg>