<svg width="380" height="170" fill="none" xmlns="http://www.w3.org/2000/svg"><g opacity=".8" clip-path="url(#a)"><path fill="url(#b)" d="M-470-611H996V450H-470z"/><path d="M-373 81.188c-121.6 18.8-171-52.5-180.5-90.5h-93v423H1013v-557.5c-152.5-36.5-279 31-379.5 108.5S383 112.188 161 29.188s-382 28.5-534 52Z" fill="url(#c)"/><path d="M-261.5 163.188c-121.6 18.8-171-52.5-180.5-90.5h-93v423h1659.5v-557.5c-152.5-36.5-279 31-379.5 108.5s-250.5 147.5-472.5 64.5-382 28.5-534 52Z" fill="url(#d)"/><path d="M-196.5 195.188c-121.6 18.8-171-52.5-180.5-90.5h-93v423h1659.5v-557.5c-152.5-36.5-279 31-379.5 108.5s-250.5 147.5-472.5 64.5-382 28.5-534 52Z" fill="url(#e)"/></g><defs><linearGradient id="b" x1="59.5" y1="-103.5" x2="122.5" y2="426.5" gradientUnits="userSpaceOnUse"><stop stop-color="#FFF5E7"/><stop offset="1" stop-color="#FF9D6B"/></linearGradient><linearGradient id="c" x1="510" y1="245" x2="113.5" y2="-163" gradientUnits="userSpaceOnUse"><stop stop-color="#fff" stop-opacity=".6"/><stop offset="1" stop-color="#fff"/></linearGradient><linearGradient id="d" x1="621.5" y1="327" x2="225" y2="-81" gradientUnits="userSpaceOnUse"><stop stop-color="#fff" stop-opacity=".6"/><stop offset="1" stop-color="#fff"/></linearGradient><linearGradient id="e" x1="686.5" y1="359" x2="290" y2="-49" gradientUnits="userSpaceOnUse"><stop stop-color="#fff" stop-opacity=".6"/><stop offset="1" stop-color="#fff"/></linearGradient><clipPath id="a"><path fill="#fff" transform="translate(-420 -465)" d="M0 0h1129v635H0z"/></clipPath></defs></svg>