<svg width="16" height="16" fill="none" xmlns="http://www.w3.org/2000/svg"><rect x=".375" y=".375" width="15.25" height="15.25" rx=".625" fill="#fff" stroke="#0D6EFD" stroke-width=".75" stroke-dasharray="1 1"/><path fill="#fff" d="M2 2h12v12H2z"/><path d="M11.126 3.313c-.4 0-.802.149-1.104.454h-.003L4.146 9.741l-.813 2.44c-.1.3.186.586.486.486l2.438-.815.067-.064 5.907-5.812a1.567 1.567 0 0 0 0-2.209 1.562 1.562 0 0 0-1.105-.454Zm0 .777a.77.77 0 0 1 .552.23.775.775 0 0 1 0 1.104l-.616.607a1.966 1.966 0 0 0-.44-.653 1.96 1.96 0 0 0-.655-.44l.61-.622a.77.77 0 0 1 .55-.226ZM9.451 5.598c.144.012.354.067.617.33.265.265.32.475.335.618.01.11-.006.126-.012.144l-4.036 3.969a1.996 1.996 0 0 0-.421-.598 1.962 1.962 0 0 0-.598-.418L9.308 5.61c.018-.01.033-.022.143-.012ZM4.8 10.29c.122.009.317.058.585.326.266.266.315.461.324.58 0 .015-.003.006 0 .018l-.745.247a2.203 2.203 0 0 0-.427-.424l.25-.747c.01.003 0 0 .013 0Z" fill="#0D6EFD"/></svg>