<svg width="21" height="19" fill="none" xmlns="http://www.w3.org/2000/svg"><path d="m3.056 1.781-.903.822.452.406.898.817.447.41.903-.82-.452-.407-.898-.817-.447-.41Zm14.214 0-.447.411-1.345 1.223.899.822.446-.411 1.345-1.223-.898-.822Zm-7.107.93c-2.799 0-5.082 2.076-5.082 4.622 0 1.598.77 2.52 1.39 3.304.625.781 1.151 1.445 1.151 3.052v1.155c0 .75.541 1.39 1.28 1.625-.004.037-.01.073-.01.109 0 .636.571 1.155 1.271 1.155s1.27-.519 1.27-1.155c0-.036 0-.072-.004-.109.74-.239 1.275-.875 1.275-1.625V13.69c0-1.607.526-2.27 1.151-3.052.62-.785 1.39-1.706 1.39-3.304 0-2.546-2.283-4.622-5.082-4.622Zm0 1.156c2.114 0 3.812 1.543 3.812 3.466 0 1.291-.502 1.815-1.152 2.618-.56.71-1.116 1.707-1.27 3.16h-2.78c-.153-1.453-.71-2.45-1.27-3.16-.65-.803-1.151-1.327-1.151-2.618 0-1.923 1.697-3.466 3.811-3.466ZM1.27 7.333V8.49h2.54V7.333H1.27Zm15.246 0V8.49h2.54V7.333h-2.54ZM3.95 11.585l-.447.411-.898.817-.452.406.903.818 1.345-1.224.452-.406-.903-.822Zm12.427 0-.899.822 1.792 1.63.898-.818-1.345-1.223-.446-.41Zm-7.484 2.682h2.54v.577c0 .325-.277.578-.635.578h-1.27c-.357 0-.635-.253-.635-.578v-.577Z" fill="#135423"/></svg>