<svg width="28" height="25" fill="none" xmlns="http://www.w3.org/2000/svg"><path d="M25.548 12.5c0 5.752-5.051 10.416-11.28 10.416-6.23 0-11.28-4.664-11.28-10.416 0-5.752 5.05-10.417 11.28-10.417 6.229 0 11.28 4.665 11.28 10.417Z" fill="#4CAF50"/><path d="M14.268 2.083V12.5l4.512 2.083-4.988 8.333h.476c6.234 0 11.28-4.66 11.28-10.416 0-5.757-5.046-10.417-11.28-10.417Z" fill="#FFC107"/><path d="M25.548 12.5c0 5.752-5.051 10.416-11.28 10.416-6.23 0-11.28-4.664-11.28-10.416 0-5.752 5.05-10.417 11.28-10.417 6.229 0 11.28 4.665 11.28 10.417Z" fill="#4CAF50"/><path d="M14.268 2.083V12.5l4.512 2.083-4.988 8.333h.476c6.234 0 11.28-4.66 11.28-10.416 0-5.757-5.046-10.417-11.28-10.417Z" fill="#FFC107"/><path d="M24.33 7.812H14.268v6.771l-1.692-.52L4.77 6.905h-.011c1.996-2.901 5.51-4.823 9.509-4.823 4.4 0 8.206 2.333 10.062 5.73Z" fill="#F44336"/><path d="m4.769 6.908 4.987 7.74 2.82-.586-7.807-7.154Z" fill="#DD2C00"/><path d="m13.793 22.916 5.038-8.364-2.307-1.531-2.732 9.895Z" fill="#558B2F"/><path d="M24.344 7.813H14.268l-.89 2.385 10.966-2.386Z" fill="#F9A825"/><path d="M19.344 12.5c0 2.588-2.274 4.688-5.076 4.688-2.803 0-5.076-2.1-5.076-4.688 0-2.588 2.273-4.688 5.076-4.688 2.802 0 5.076 2.1 5.076 4.688Z" fill="#fff"/><path d="M18.216 12.5c0 2.014-1.767 3.646-3.948 3.646S10.32 14.514 10.32 12.5c0-2.014 1.767-3.646 3.948-3.646s3.948 1.632 3.948 3.646Z" fill="#2196F3"/></svg>