<svg width="11" height="13" fill="none" xmlns="http://www.w3.org/2000/svg"><path d="M3.5 0C2.676 0 2 .676 2 1.5v3.309L.54 6.414c-.009.012-.02.02-.028.031A2.51 2.51 0 0 0 0 8c0 .871.543 1.7 1.035 2.406.477.68.918 1.168.95 1.203C2.674 12.566 3.866 13 5 13h2c2.188 0 4-1.785 4-3.98V5.5c0-.691-.52-1.188-1.156-1.36A.532.532 0 0 0 9.5 4a1.42 1.42 0 0 0-.629.148A1.506 1.506 0 0 0 7.5 3.25a.532.532 0 0 0-.344.14c-.18.051-.347.133-.5.235a1.707 1.707 0 0 0-.812-.484A.532.532 0 0 0 5.5 3c-.176 0-.344.04-.5.094V1.5C5 .676 4.324 0 3.5 0Zm0 1c.281 0 .5.219.5.5V6h1V4.5c0-.281.219-.5.5-.5s.5.219.5.5V6h1V4.75c0-.281.219-.5.5-.5s.5.219.5.5V6h1v-.5c0-.281.219-.5.5-.5s.5.219.5.5v3.52C10 10.664 8.648 12 7 12H5c-.867 0-1.762-.36-2.203-.973a.415.415 0 0 0-.035-.043s-.453-.504-.907-1.152C1.402 9.187 1 8.359 1 8c0-.375.086-.66.305-.945L2 6.289V8h1V1.5c0-.281.219-.5.5-.5Z" fill="#000"/></svg>