<svg width="13" height="13" fill="none" xmlns="http://www.w3.org/2000/svg"><path fill-rule="evenodd" clip-rule="evenodd" d="M12.097 5.75v4.597a1.75 1.75 0 0 1-1.75 1.75H5.75A1.75 1.75 0 0 1 4 10.347V5.75C4 4.784 4.784 4 5.75 4h4.597c.966 0 1.75.784 1.75 1.75Zm-1 0v4.597a.75.75 0 0 1-.75.75H5.75a.75.75 0 0 1-.75-.75V5.75A.75.75 0 0 1 5.75 5h4.597a.75.75 0 0 1 .75.75Z" fill="#202124"/><path d="M1.75 8.097A1.75 1.75 0 0 1 0 6.347V1.75C0 .784.784 0 1.75 0h4.597c.966 0 1.75.784 1.75 1.75v.75a.5.5 0 1 1-1 0v-.75a.75.75 0 0 0-.75-.75H1.75a.75.75 0 0 0-.75.75v4.597c0 .414.336.75.75.75h.75a.5.5 0 0 1 0 1h-.75Z" fill="#202124"/></svg>