<svg width="19" height="20" fill="none" xmlns="http://www.w3.org/2000/svg"><path fill-rule="evenodd" clip-rule="evenodd" d="M16.382 0c1.146 0 2.086.89 2.165 2.016l.006.155V13.54c0 1.147-.89 2.087-2.016 2.166l-.155.005h-2.093v3.494L9.05 15.71H2.17c-1.094 0-2-.81-2.15-1.864l-.016-.152L0 13.54V2.171C0 1.025.89.085 2.016.005L2.171 0h14.21Zm0 1.5H2.172a.672.672 0 0 0-.665.572l-.007.1v11.367c0 .337.249.616.572.664l.1.008h7.331l3.287 2.19v-2.19h3.592a.672.672 0 0 0 .663-.572l.008-.1V2.171a.672.672 0 0 0-.572-.664l-.1-.007Zm-6.395 9.947v-1.5H4.303v1.5h5.684Zm4.263-4.342v1.5H4.303v-1.5h9.947Zm0-1.342v-1.5H4.303v1.5h9.947Z" fill="#202124"/></svg>