<svg width="13" height="15" fill="none" xmlns="http://www.w3.org/2000/svg"><path d="M3.492.992A.499.499 0 0 0 3 1.5v1a.5.5 0 1 0 1 0v-1a.504.504 0 0 0-.145-.363.504.504 0 0 0-.363-.145Zm-2 1a.5.5 0 0 0-.344.86l1 1a.498.498 0 1 0 .704-.704l-1-1a.5.5 0 0 0-.36-.156Zm4 .004a.492.492 0 0 0-.344.152l-1 1a.498.498 0 1 0 .704.704l1-1a.498.498 0 0 0-.36-.856Zm4.371.016a1.46 1.46 0 0 0-.836.37c-.007.005-.011.009-.011.016l-4.47 4.36c-.183-.246-.284-.426-.585-.727A3.709 3.709 0 0 0 2.43 5.11c-.559-.164-1.157-.183-1.657.114-.46.27-.695.691-.695.691a.493.493 0 0 0 .035.582l1.418 1.719.477 2.867a.475.475 0 0 0 .129.262l2.726 2.875.012.011a2.636 2.636 0 0 0 3.719 0l.449-.449h-.211a.48.48 0 0 0 .355-.144l2.426-2.442h-.004c.512-.511.625-1.36.102-1.937-.195-.215-.473-.293-.742-.356.023-.367-.078-.734-.36-1.011-.183-.188-.441-.239-.687-.297.058-.403-.008-.813-.313-1.117-.093-.094-.226-.082-.336-.141l1.754-1.774-.027.024c.473-.418.527-1.07.305-1.633a.512.512 0 0 0-.094-.351 1.466 1.466 0 0 0-1.043-.59 1.324 1.324 0 0 0-.305 0Zm.203.988a.474.474 0 0 1 .34.195.472.472 0 0 1-.066.64c-.012.009-.02.017-.027.024l-2.58 2.618H7.73a.498.498 0 0 0 .024.687.493.493 0 0 0 .683.016.329.329 0 0 1 .47 0c-.005.004-.005.004 0 .004a.324.324 0 0 1 0 .464h-.005l-.207.211-.004.004a.498.498 0 0 0 .012.7.497.497 0 0 0 .7.003c.105-.105.37-.097.503.032a.324.324 0 0 1 0 .464c-.004 0-.008.004-.011.008l-.11.117-.008.008a.498.498 0 0 0 .016.7.494.494 0 0 0 .7-.004c.089-.086.39-.055.476.039.094.101.07.425-.063.558h-.004L8.48 12.93v.004l-.59.586a1.624 1.624 0 0 1-2.312 0l-2.61-2.754-.476-2.848a.505.505 0 0 0-.105-.238L1.164 6.2c.055-.052.063-.087.117-.114.164-.098.48-.129.86-.016.382.114.796.36 1.109.672.371.367.836 1.04.836 1.04a.51.51 0 0 0 .766.078l4.847-4.735A.467.467 0 0 1 10.066 3Z" fill="#000"/></svg>