<svg width="15" height="14" fill="none" xmlns="http://www.w3.org/2000/svg"><path d="M11.109 0c.051 0 .1.007.148.019L11.255 0h2.77v9.333h-2.5l-2.16 3.561C8.9 13.608 8.323 14 7.608 14a1.752 1.752 0 0 1-1.713-2.096l.04-.168.42-1.236H1.75A1.75 1.75 0 0 1 .008 8.918L0 8.75c0-.449.169-.858.447-1.168A1.746 1.746 0 0 1 .61 5.088a1.75 1.75 0 0 1 .719-2.604A1.75 1.75 0 0 1 2.748.008L2.917 0h8.192ZM3.526 7v1.167H1.75a.584.584 0 0 0-.105 1.157l.105.01h5.421c.367 0 .634.33.577.676l-.024.095-.675 1.981a.584.584 0 0 0 .56.747c.236 0 .45-.125.671-.421l.096-.138 2.15-3.543V1.167h-7.61a.584.584 0 0 0-.573.478l-.01.105c0 .286.207.524.479.574l.105.01h.609V3.5H2.042a.584.584 0 0 0-.105 1.157l.105.01h1.484v1.166H1.75a.584.584 0 0 0-.105 1.158L1.75 7h1.776Zm8.166 1.167h1.167v-7h-1.167v7Z" fill="#9AA0A6"/></svg>