<svg width="30" height="39" fill="none" xmlns="http://www.w3.org/2000/svg"><path d="M30 10.833v26A2.154 2.154 0 0 1 27.857 39H2.143A2.154 2.154 0 0 1 0 36.833V2.167C0 .97.959 0 2.143 0h17.143L30 10.833Z" fill="#85B7FE"/><path d="M19 0v8.8a2.2 2.2 0 0 0 2.2 2.2H30L19 0Z" fill="#0D6EFD"/><path d="M6.182 25c2.216 0 3.53-1.37 3.53-3.643 0-2.266-1.314-3.63-3.48-3.63H3.717V25h2.465Zm-1.147-1.14v-4.993h1.122c1.477 0 2.248.824 2.248 2.49 0 1.672-.77 2.503-2.287 2.503H5.035Zm8.25 1.247c1.599 0 2.614-1.126 2.614-2.813 0-1.69-1.015-2.82-2.613-2.82s-2.614 1.13-2.614 2.82c0 1.687 1.016 2.813 2.614 2.813Zm.008-1.03c-.884 0-1.317-.789-1.317-1.787 0-.997.433-1.796 1.317-1.796.87 0 1.303.799 1.303 1.797 0 .997-.433 1.786-1.303 1.786Zm6.077 1.03c1.37 0 2.244-.814 2.336-1.971h-1.228c-.11.586-.533.923-1.098.923-.802 0-1.32-.671-1.32-1.786 0-1.101.529-1.762 1.32-1.762.618 0 .998.398 1.098.924h1.228c-.088-1.183-1.012-1.96-2.343-1.96-1.598 0-2.607 1.154-2.607 2.819 0 1.651.984 2.813 2.614 2.813Zm4.404-5.561H22.41l1.62 2.727L22.368 25h1.364l1.143-1.964L26.029 25h1.353l-1.673-2.727 1.645-2.727h-1.36l-1.119 2.013-1.1-2.014Z" fill="#fff"/></svg>