<svg width="27" height="27" fill="none" xmlns="http://www.w3.org/2000/svg"><path d="M2.25 13.208C2.25 8.816 5.938 2.25 13.508 2.25c7.559 0 11.242 5.582 11.242 9.51 0 3.151-2.491 5.473-5.62 5.473-2.388 0-3.802-.792-3.802-1.423 0-.408.987-1.033.987-2.24 0-1.443-1.117-2.89-2.838-2.89-1.65 0-2.798 1.374-2.798 2.76 0 3.348 3.167 6.55 7.836 6.55 2.79 0 3.802-1.029 4.164-1.029.11 0 .364.045.364.34 0 .28-3.085 5.448-9.528 5.448C7.105 24.75 2.25 19.7 2.25 13.209Z" fill="#1DE9B6"/><path d="M2.25 13.208c0-4.392 4.283-6.772 7.16-6.772 7.56 0 9.719 1.396 9.719 5.324 0 3.152-2.814 3.018-2.814 1.811 0-1.442-1.117-2.89-2.838-2.89-1.65 0-2.798 1.375-2.798 2.76 0 3.348 3.167 6.55 7.836 6.55 2.79 0 3.802-1.029 4.164-1.029.11 0 .364.045.364.34 0 .28-3.085 5.448-9.528 5.448-6.41 0-11.265-5.05-11.265-11.542Z" fill="url(#a)"/><path d="M10.68 13.44c0-1.293.998-2.574 2.472-2.74-2.309.196-4.95 2.46-4.95 6.654 0 4.48 3.862 7.574 7.844 7.103 4.717-1.084 6.998-4.916 6.998-5.157 0-.294-.254-.339-.364-.339-.362 0-1.375 1.029-4.165 1.029-4.669 0-7.836-3.202-7.836-6.55Z" fill="url(#b)"/><path d="M2.25 13.208C2.25 8.816 5.938 2.25 13.508 2.25c7.559 0 11.242 5.582 11.242 9.51 0 3.151-2.491 5.473-5.62 5.473-2.388 0-3.802-.792-3.802-1.423 0-.408.987-1.033.987-2.24 0-1.443-1.168-6.006-7.104-6.006-1.65 0-6.255.73-6.961 5.644Z" fill="url(#c)"/><defs><radialGradient id="a" cx="0" cy="0" r="1" gradientUnits="userSpaceOnUse" gradientTransform="matrix(12.0083 0 0 13.3087 10.121 18.479)"><stop offset=".652" stop-color="#0083DE"/><stop offset=".822" stop-color="#006AAC"/><stop offset=".944" stop-color="#005A8C"/></radialGradient><radialGradient id="b" cx="0" cy="0" r="1" gradientUnits="userSpaceOnUse" gradientTransform="matrix(9.26887 0 0 9.29483 15.796 16.486)"><stop offset=".69" stop-color="#05509B"/><stop offset=".717" stop-color="#054E98"/><stop offset="1" stop-color="#033E78"/></radialGradient><radialGradient id="c" cx="0" cy="0" r="1" gradientUnits="userSpaceOnUse" gradientTransform="matrix(-34.6117 0 0 -52.2084 26.802 9.032)"><stop stop-color="#5EEB69"/><stop offset=".214" stop-color="#4BC958"/><stop offset=".225" stop-color="#4AC862"/><stop offset=".272" stop-color="#47C68B"/><stop offset=".323" stop-color="#44C4AE"/><stop offset=".376" stop-color="#41C2CB"/><stop offset=".433" stop-color="#3FC1E1"/><stop offset=".495" stop-color="#3EC0F1"/><stop offset=".565" stop-color="#3DBFFA"/><stop offset=".664" stop-color="#3DBFFD"/></radialGradient></defs></svg>