<svg width="15" height="14" fill="none" xmlns="http://www.w3.org/2000/svg"><path fill-rule="evenodd" clip-rule="evenodd" d="M1.475 1.463c0-.27.219-.488.488-.488h10.58c.27 0 .488.219.488.488V4.62a.488.488 0 1 0 .975 0V1.463C14.006.655 13.35 0 12.543 0H1.963C1.155 0 .5.655.5 1.463v10.266c0 .808.655 1.463 1.463 1.463H5.12a.488.488 0 0 0 0-.976H1.963a.488.488 0 0 1-.488-.487V1.463Zm11.53 4.347a.975.975 0 0 0-1.399-.007l-4.801 4.888-.194 2.25c-.05.57.4 1.059.971 1.059h2.33l4.77-5.117a.975.975 0 0 0-.01-1.341L13.005 5.81Zm-5.423 7.215.164-1.901 4.556-4.637 1.667 1.731-4.48 4.807H7.582Zm-3.36-9.977a.853.853 0 1 1-1.707 0 .853.853 0 0 1 1.706 0Zm1.595-.555a.562.562 0 1 0 0 1.125h4.849a.562.562 0 1 0 0-1.125h-4.85ZM4.22 5.608a.853.853 0 1 1-1.706 0 .853.853 0 0 1 1.706 0Zm1.596-.555a.562.562 0 1 0 0 1.125h1.862a.562.562 0 1 0 0-1.125H5.817Z" fill="#202124"/></svg>