<svg width="16" height="16" fill="none" xmlns="http://www.w3.org/2000/svg"><path fill="#D8D8D8" fill-opacity=".01" d="M0 0h16v16H0z"/><path d="M6.952 2.516A.516.516 0 0 0 6.436 2H3.3l-.065.002A1.3 1.3 0 0 0 2 3.3v9.4l.002.065A1.3 1.3 0 0 0 3.3 14h9.407l.065-.002a1.3 1.3 0 0 0 1.235-1.298V8.783l-.002-.047a.516.516 0 0 0-1.03.047V12.7l-.003.034a.267.267 0 0 1-.265.233H3.3l-.033-.002a.267.267 0 0 1-.234-.265V3.3l.002-.034a.267.267 0 0 1 .265-.233h3.136l.047-.002a.516.516 0 0 0 .47-.515Z" fill="#202124"/><path fill-rule="evenodd" clip-rule="evenodd" d="m11.558 2.151-4.703 4.7a.516.516 0 0 0-.152.366v1.566c0 .286.231.517.517.517h1.567a.516.516 0 0 0 .366-.151l4.703-4.7a.517.517 0 0 0 0-.731L12.288 2.15a.516.516 0 0 0-.73 0Zm.365 1.095.837.837-4.186 4.184h-.838V7.43l4.187-4.184Z" fill="#202124"/></svg>