<svg width="17" height="17" fill="none" xmlns="http://www.w3.org/2000/svg"><path d="M5.25 5.277a1.25 1.25 0 1 0 0 2.5 1.25 1.25 0 0 0 0-2.5Zm6.25 0a1.25 1.25 0 1 0 0 2.5 1.25 1.25 0 0 0 0-2.5Zm-3.125 7.5c1.39 0 2.32-.501 2.903-1.037.287-.264.483-.528.609-.731a2.858 2.858 0 0 0 .178-.334l.011-.026.004-.01.002-.004v-.001s0-.002-.582-.228l-.582-.226v-.002a1.594 1.594 0 0 1-.093.171 2.275 2.275 0 0 1-.392.47c-.367.337-1 .708-2.058.708-1.102 0-1.731-.374-2.082-.704-.182-.17-.3-.338-.37-.46a1.444 1.444 0 0 1-.083-.165v.004c.001 0 .001.002-.59.204-.591.203-.591.203-.59.204v.002l.001.004.004.01.01.027.035.083c.03.066.073.155.133.258.12.207.31.475.595.741.58.544 1.513 1.043 2.937 1.043Z" fill="#202124"/><path fill-rule="evenodd" clip-rule="evenodd" d="M2.63 2.63a8.125 8.125 0 1 1 11.49 11.49A8.125 8.125 0 0 1 2.63 2.63ZM8.375 1.5a6.875 6.875 0 1 0 0 13.75 6.875 6.875 0 0 0 0-13.75Z" fill="#202124"/></svg>