<svg width="498" height="156" xmlns="http://www.w3.org/2000/svg"><g fill="none" fill-rule="evenodd"><path fill="#E5E8EC" fill-rule="nonzero" d="M236 7.5v15H50v-15z"/><rect fill="#E5E8EC" fill-rule="nonzero" transform="rotate(90 22 15)" x="7" width="30" height="30" rx="15"/><path fill="#E5E8EC" fill-rule="nonzero" d="M236 63.5v15H50v-15z"/><rect fill="#E5E8EC" fill-rule="nonzero" transform="rotate(90 22 71)" x="7" y="56" width="30" height="30" rx="15"/><path fill="#E5E8EC" fill-rule="nonzero" d="M236 119.5v15H50v-15z"/><rect fill="#E5E8EC" fill-rule="nonzero" transform="rotate(90 22 127)" x="7" y="112" width="30" height="30" rx="15"/><path d="M498 7.5v15h-24v-15h24Zm0 56v15h-24v-15h24Zm0 56v15h-24v-15h24Z" fill="#E5E8EC" fill-rule="nonzero"/><path d="M.384 43h497.519M.384 99h497.519M.384 155h497.519" stroke="#E5E8EC" stroke-linecap="square"/></g></svg>