<svg width="124" height="124" fill="none" xmlns="http://www.w3.org/2000/svg"><path d="M20.27 15.5c-6.866 0-12.52 5.728-12.52 12.682V108.5h108.5V28.182c0-6.954-5.654-12.682-12.519-12.682H20.269Zm0 8.454h83.461c2.349 0 4.173 1.848 4.173 4.228v4.227H16.096v-4.227c0-2.38 1.824-4.227 4.173-4.227Zm-4.174 16.91h91.808v59.181H16.096V40.864Zm16.692 8.454v8.455h58.424v-8.455H32.788Zm0 16.91v8.454H74.52v-8.455H32.79Zm50.077 0v8.454h8.347v-8.455h-8.347ZM32.79 83.135v8.455h41.73v-8.455H32.79Zm50.076 0v8.455h8.347v-8.455h-8.347Z" fill="#E5E8EC"/></svg>