<svg width="30" height="39" fill="none" xmlns="http://www.w3.org/2000/svg"><path d="M30 10.833v26A2.154 2.154 0 0 1 27.857 39H2.143A2.154 2.154 0 0 1 0 36.833V2.167C0 .97.959 0 2.143 0h17.143L30 10.833Z" fill="#93D3A2"/><path d="M19 0v8.8a2.2 2.2 0 0 0 2.2 2.2H30L19 0Z" fill="#28A745"/><path d="M6.818 17.727H5.31l2.27 3.637L5.28 25H6.8l1.619-2.646h.057L10.096 25h1.527l-2.276-3.636 2.24-3.637h-1.502l-1.608 2.664H8.42l-1.602-2.664Zm7.032 0h-1.285V25h1.285v-7.273Zm2.373 1.819H14.86l1.619 2.727L14.817 25h1.364l1.143-1.964L18.478 25h1.353l-1.672-2.727 1.644-2.727h-1.36l-1.119 2.013-1.1-2.014Zm8.885 1.441c-.177-.923-.916-1.513-2.194-1.513-1.314 0-2.21.647-2.206 1.655-.003.796.487 1.321 1.535 1.538l.93.195c.5.11.735.313.735.622 0 .372-.405.653-1.016.653-.59 0-.973-.256-1.083-.746l-1.253.121c.16 1.002 1.001 1.595 2.34 1.595 1.364 0 2.326-.707 2.33-1.74-.004-.778-.505-1.254-1.535-1.478l-.93-.199c-.554-.124-.774-.316-.77-.632-.004-.37.404-.625.94-.625.593 0 .906.323 1.005.682l1.172-.128Z" fill="#fff"/></svg>