<svg width="12" height="12" fill="none" xmlns="http://www.w3.org/2000/svg"><path d="M5.82.001a.5.5 0 0 1 .353.11l.034.029L9.59 3.29a.516.516 0 0 1-.666.788l-.038-.032-2.51-2.339.019 5.574c0 .27-.205.492-.468.516L5.88 7.8a.516.516 0 0 1-.516-.467l-.002-.047-.019-5.582-2.562 2.562a.516.516 0 0 1-.764-.693l.034-.037L5.434.152a.515.515 0 0 1 .386-.15Zm5.212 7.833c.27 0 .49.206.515.47l.002.046v3.134c0 .269-.207.49-.47.514l-.047.002H.85a.516.516 0 0 1-.514-.47l-.002-.046V8.35a.516.516 0 0 1 1.03-.047l.003.047v2.617h9.15V8.35c0-.269.206-.49.47-.514l.046-.002Z" fill="#202124"/></svg>