<svg width="10" height="10" fill="none" xmlns="http://www.w3.org/2000/svg"><path d="M4.726 9.5a.394.394 0 0 1-.036-.786l.036-.002h3.285a.7.7 0 0 0 .7-.66l.001-.041V1.989a.701.701 0 0 0-.66-.7l-.041-.001H1.989a.701.701 0 0 0-.7.66l-.001.041v3.285a.394.394 0 0 1-.786.036L.5 5.274V1.989C.5 1.185 1.137.53 1.933.501L1.99.5h6.022c.804 0 1.459.637 1.488 1.433l.001.056v6.022c0 .804-.637 1.459-1.433 1.488L8.01 9.5H4.726Z" fill="#9AA0A6"/><path d="M6.502 3.203c.206 0 .374.157.393.358l.001.036v2.19a.394.394 0 0 1-.786.036l-.002-.036V4.553L2.285 8.376a.394.394 0 0 1-.583-.53l.026-.028 3.828-3.827H4.312a.394.394 0 0 1-.392-.358l-.002-.036c0-.206.158-.374.358-.392l.036-.002h2.19Z" fill="#9AA0A6"/></svg>