<svg xmlns="http://www.w3.org/2000/svg" width="16" height="16"><g fill="none" fill-rule="evenodd"><path d="M0 0h16v16H0z"/><path fill="#26344A" fill-rule="nonzero" d="M12.015 2c1.071 0 1.944.849 1.984 1.91l.001.075v8.03a1.986 1.986 0 0 1-1.91 1.984l-.075.001h-4.38a.525.525 0 0 1-.048-1.049l.048-.002h4.38a.936.936 0 0 0 .933-.88l.001-.054v-8.03a.936.936 0 0 0-.88-.933l-.054-.001h-8.03a.936.936 0 0 0-.933.88l-.001.054v4.38a.525.525 0 0 1-1.049.048L2 8.365v-4.38c0-1.071.849-1.944 1.91-1.984L3.986 2h8.03zm-2.012 3.604c.274 0 .499.21.523.478l.002.047v2.92a.526.526 0 0 1-1.048.048l-.002-.048-.001-1.646-5.097 5.098a.526.526 0 0 1-.777-.706l.034-.037 5.104-5.104H7.083a.525.525 0 0 1-.523-.477l-.002-.048c0-.274.21-.499.477-.523l.048-.002h2.92z"/></g></svg>