<svg width="30" height="39" fill="none" xmlns="http://www.w3.org/2000/svg"><path d="M30 10.833v26A2.154 2.154 0 0 1 27.857 39H2.143A2.154 2.154 0 0 1 0 36.833V2.167C0 .97.959 0 2.143 0h17.143L30 10.833Z" fill="#EF9AA3"/><path d="M19 0v8.8a2.2 2.2 0 0 0 2.2 2.2H30L19 0Z" fill="#DD3646"/><path d="M5.717 25h1.318v-2.457h1.392c1.68 0 2.582-1.009 2.582-2.408 0-1.389-.892-2.408-2.564-2.408H5.717V25Zm1.318-3.54v-2.632h1.207c.987 0 1.424.533 1.424 1.307 0 .774-.437 1.324-1.417 1.324H7.035ZM14.617 25c2.216 0 3.53-1.37 3.53-3.643 0-2.266-1.314-3.63-3.48-3.63h-2.514V25h2.464Zm-1.147-1.14v-4.993h1.122c1.478 0 2.248.824 2.248 2.49 0 1.672-.77 2.503-2.287 2.503H13.47ZM19.4 25h1.317v-3.09h3.022v-1.104h-3.022v-1.974h3.342v-1.105H19.4V25Z" fill="#fff"/></svg>