<svg width="10" height="12" xmlns="http://www.w3.org/2000/svg"><g fill="none" fill-rule="evenodd"><path d="M-2-1h14v14H-2z"/><path d="M8.368.75c.782 0 1.435.58 1.435 1.324v7.852c0 .744-.653 1.324-1.435 1.324h-6.89c-.783 0-1.436-.58-1.436-1.324V2.074C.042 1.33.695.75 1.478.75Zm0 .903h-6.89c-.306 0-.533.201-.533.421v7.852c0 .22.227.42.533.42h6.89c.305 0 .532-.2.532-.42V2.074c0-.22-.227-.42-.532-.42Zm-1.969 5.74c.25 0 .452.225.452.5 0 .262-.18.476-.41.499l-.042.002H3.446c-.25 0-.451-.224-.451-.5 0-.26.18-.475.41-.498l.041-.002H6.4Zm0-2.952c.25 0 .452.224.452.5 0 .26-.18.475-.41.498l-.042.002H3.446c-.25 0-.451-.224-.451-.5 0-.26.18-.475.41-.498l.041-.002H6.4Z" fill="#009DAB"/></g></svg>