<svg width="70" height="29" fill="none" xmlns="http://www.w3.org/2000/svg"><path d="M0 23.5h11.341c2.418.033 8.064-1.908 11.596-4.613 4.415-3.38 7.727-11.236 11.512-11.136C38.234 7.85 39.805 28 45.798 28c5.992 0 5.84-11.897 11.674-12.792 5.835-.895 6.15 2.983 11.355 2.287" stroke="#3368BB"/><path d="M.174 22.995h11.34c2.415.05 8.127-.88 11.655-5.006 4.41-5.157 7.717-17.14 11.497-16.988C38.446 1.153 40.02 28 46.006 28c5.985 0 5.827-14.258 11.655-15.623 5.827-1.365 6.142 4.55 11.34 3.489" stroke="#000"/></svg>