<svg width="14" height="14" fill="none" xmlns="http://www.w3.org/2000/svg"><path fill-rule="evenodd" clip-rule="evenodd" d="M6 .8H1.333a.533.533 0 0 0-.533.533V6c0 .295.239.533.533.533H6A.533.533 0 0 0 6.533 6V1.333A.533.533 0 0 0 6 .8Zm-.533 1.067v3.6h-3.6v-3.6h3.6ZM12.667.8H8a.533.533 0 0 0-.533.533V6c0 .295.239.533.533.533h4.667A.533.533 0 0 0 13.2 6V1.333A.533.533 0 0 0 12.667.8Zm-.534 1.067v3.6h-3.6v-3.6h3.6Zm-10.8 5.6H6c.295 0 .533.239.533.533v4.667A.533.533 0 0 1 6 13.2H1.333a.533.533 0 0 1-.533-.533V8c0-.295.239-.533.533-.533Zm4.134 4.666v-3.6h-3.6v3.6h3.6Zm7.2-4.666H8A.533.533 0 0 0 7.467 8v4.667c0 .294.239.533.533.533h4.667a.533.533 0 0 0 .533-.533V8a.533.533 0 0 0-.533-.533Zm-.534 1.066v3.6h-3.6v-3.6h3.6Z" fill="#202124"/></svg>