<svg width="14" height="14" fill="none" xmlns="http://www.w3.org/2000/svg"><path d="M4.731 5.498c0-1.961 1.946-2.854 3.38-2.145.904.447 1.456 1.52 1.275 2.4-.135.652-.418 1.034-.987 1.5l-.22.174c-.556.436-.712.662-.712 1.186a.46.46 0 0 1-.92 0c0-.824.277-1.268.949-1.817l.217-.172c.494-.388.682-.623.772-1.058.095-.46-.245-1.124-.783-1.39-.87-.43-2.051.111-2.051 1.322a.46.46 0 1 1-.92 0Zm2.874 4.831a.56.56 0 1 1-1.12 0 .56.56 0 0 1 1.12 0Z" fill="#9AA0A6"/><path fill-rule="evenodd" clip-rule="evenodd" d="M7 0a7 7 0 1 0 0 14A7 7 0 0 0 7 0Zm0 1.037a5.963 5.963 0 1 1 0 11.926A5.963 5.963 0 0 1 7 1.037Z" fill="#9AA0A6"/></svg>