<svg width="15" height="15" fill="none" xmlns="http://www.w3.org/2000/svg"><path d="M4.807 5.585c0-1.992 1.976-2.9 3.432-2.18.92.456 1.48 1.546 1.295 2.439-.137.663-.423 1.05-1.002 1.524l-.223.177c-.565.443-.724.673-.724 1.205a.467.467 0 1 1-.934 0c0-.838.28-1.288.964-1.846l.22-.175c.502-.394.693-.633.785-1.074.097-.469-.25-1.142-.795-1.412-.886-.438-2.084.112-2.084 1.342a.467.467 0 0 1-.934 0Zm2.918 4.908a.57.57 0 1 1-1.138 0 .57.57 0 0 1 1.138 0Z" fill="#5F6368"/><path fill-rule="evenodd" clip-rule="evenodd" d="M7.111 0a7.111 7.111 0 1 0 0 14.222A7.111 7.111 0 0 0 7.111 0Zm0 1.054a6.058 6.058 0 1 1 0 12.115 6.058 6.058 0 0 1 0-12.116Z" fill="#5F6368"/></svg>