<svg width="13" height="13" fill="none" xmlns="http://www.w3.org/2000/svg"><path d="M10.379 0a2.58 2.58 0 0 0-1.84.766L6.73 2.57a2.59 2.59 0 0 0-.69 2.403l1-.996c.07-.258.198-.5.398-.7L9.246 1.47a1.603 1.603 0 0 1 2.286.018 1.596 1.596 0 0 1 0 2.27L9.727 5.566c-.192.192-.434.32-.688.391L8.027 6.969a2.582 2.582 0 0 0 2.406-.695l1.805-1.805a2.614 2.614 0 0 0-.015-3.703A2.588 2.588 0 0 0 10.379 0ZM8.492 3.996a.507.507 0 0 0-.344.152l-4 4a.5.5 0 0 0 0 .707.505.505 0 0 0 .711 0l4-4a.497.497 0 0 0 .11-.554.494.494 0 0 0-.477-.305ZM4.414 5.965c-.695 0-1.348.27-1.84.762L.766 8.535a2.614 2.614 0 0 0 .02 3.703A2.597 2.597 0 0 0 2.624 13a2.6 2.6 0 0 0 1.844-.762l1.804-1.804A2.588 2.588 0 0 0 6.97 8.03l-1 .996c-.07.254-.2.496-.399.696L3.762 11.53a1.614 1.614 0 0 1-2.29-.02 1.592 1.592 0 0 1-.468-1.136c0-.426.164-.828.469-1.133L3.28 7.434c.196-.196.438-.329.696-.403l1.003-1a2.707 2.707 0 0 0-.566-.066Z" fill="#0D6EFD"/></svg>