<svg width="10" height="8" fill="none" xmlns="http://www.w3.org/2000/svg"><path d="M5 0C2.244 0 0 2.308 0 5.143a.575.575 0 0 0 .274.5c.173.107.39.107.564 0a.575.575 0 0 0 .273-.5c0-2.214 1.736-4 3.889-4 2.153 0 3.889 1.786 3.889 4a.575.575 0 0 0 .273.5c.174.107.39.107.564 0a.575.575 0 0 0 .274-.5C10 2.308 7.756 0 5 0Zm0 2.286c-1.528 0-2.778 1.285-2.778 2.857C2.222 6.714 3.472 8 5 8s2.778-1.286 2.778-2.857c0-1.572-1.25-2.857-2.778-2.857Zm0 1.143c.929 0 1.667.759 1.667 1.714S5.929 6.857 5 6.857s-1.667-.759-1.667-1.714S4.071 3.429 5 3.429Z" fill="#9AA0A6"/></svg>