<svg width="13" height="14" fill="none" xmlns="http://www.w3.org/2000/svg"><path d="M5.5 0C4.676 0 4 .676 4 1.5l.004 6.383-1.441-1.446a1.515 1.515 0 0 0-2.125 0 1.515 1.515 0 0 0 0 2.125l3.593 3.59A6.305 6.305 0 0 0 8.5 14c2.48 0 4.5-2.02 4.5-4.5v-3c0-.824-.676-1.5-1.5-1.5-.195 0-.387.04-.559.11A1.508 1.508 0 0 0 9.5 4c-.383 0-.734.152-1 .39a1.501 1.501 0 0 0-1-.39c-.176 0-.344.04-.5.094V1.5C7 .676 6.324 0 5.5 0Zm0 1c.281 0 .5.219.5.5V7h1V5.5c0-.281.219-.5.5-.5s.5.219.5.5V7h1V5.5c0-.281.219-.5.5-.5s.5.219.5.5V7h1v-.5c0-.281.219-.5.5-.5s.5.219.5.5v3A3.49 3.49 0 0 1 8.5 13a5.309 5.309 0 0 1-3.766-1.559l-3.586-3.59a.482.482 0 0 1 0-.703.482.482 0 0 1 .704 0l3.152 3.149L5 1.5c0-.281.219-.5.5-.5Z" fill="#9AA0A6"/></svg>