<svg width="13" height="14" fill="none" xmlns="http://www.w3.org/2000/svg"><path d="M10.379.992c-.672 0-1.352.246-1.84.735L6.73 3.535c-.03.031-.054.07-.082.106l.704.703c.03-.032.054-.07.086-.102l1.808-1.804a1.606 1.606 0 0 1 2.285.016 1.613 1.613 0 0 1 0 2.273L9.727 6.53c-.032.032-.07.055-.102.086l.703.703c.035-.027.074-.05.106-.082l1.804-1.808a2.61 2.61 0 0 0-.015-3.703 2.614 2.614 0 0 0-1.844-.735ZM2.516 2.996a.497.497 0 0 0-.461.313.494.494 0 0 0 .117.546l2 2a.5.5 0 0 0 .707 0 .496.496 0 0 0-.004-.707l-2-2a.496.496 0 0 0-.36-.152Zm.25 4.59c-.055.047-.118.086-.172.14L.785 9.537a2.614 2.614 0 0 0 .02 3.702A2.6 2.6 0 0 0 2.648 14c.665 0 1.332-.254 1.84-.762l1.809-1.804c.055-.059.094-.121.14-.18l-.703-.707a1.29 1.29 0 0 1-.148.176L3.781 12.53a1.614 1.614 0 0 1-2.289-.02 1.592 1.592 0 0 1-.469-1.136c0-.426.165-.828.47-1.133L3.3 8.437c.054-.054.113-.097.176-.144l-.711-.707Zm5.75 1.41a.497.497 0 0 0-.461.313.494.494 0 0 0 .117.546l2 2a.5.5 0 1 0 .703-.71l-2-1.997a.496.496 0 0 0-.36-.152Z" fill="#FF281B"/></svg>