<svg width="14" height="13" fill="none" xmlns="http://www.w3.org/2000/svg"><path d="M.776 8c0 .547.453 1 1 1h3c.547 0 1-.453 1-1V7h1v2.5c0 .824.676 1.5 1.5 1.5h.5v1c0 .547.453 1 1 1h3c.547 0 1-.453 1-1V9c0-.547-.453-1-1-1h-3c-.547 0-1 .453-1 1v1h-.5a.494.494 0 0 1-.5-.5v-6c0-.281.22-.5.5-.5h.5v1c0 .547.453 1 1 1h3c.547 0 1-.453 1-1V1c0-.547-.453-1-1-1h-3c-.547 0-1 .453-1 1v1h-.5c-.824 0-1.5.676-1.5 1.5V6h-1V5c0-.547-.453-1-1-1h-3c-.547 0-1 .453-1 1v3Zm1 0V5h3v3h-3Zm8 4V9h3v3h-3Zm0-8V1h3v3h-3Z" fill="#5F6368"/></svg>