<svg width="14" height="13" fill="none" xmlns="http://www.w3.org/2000/svg"><path d="M1.5 0C.676 0 0 .676 0 1.5v8c0 .824.676 1.5 1.5 1.5H3v.5c0 .824.676 1.5 1.5 1.5h8c.824 0 1.5-.676 1.5-1.5v-8c0-.824-.676-1.5-1.5-1.5H11v-.5C11 .676 10.324 0 9.5 0h-8Zm0 1h8c.281 0 .5.219.5.5v8c0 .281-.219.5-.5.5h-8a.494.494 0 0 1-.5-.5v-8c0-.281.219-.5.5-.5Zm4.059 1.004a2.337 2.337 0 0 0-2.2 2.316h1c0-.812.704-1.445 1.559-1.297C6.535 3.13 7.02 3.73 7 4.36c-.016.559-.34.91-.816 1.118H6.18c-.293.132-.575.257-.813.507S5 6.605 5 7h1c0-.223.027-.258.09-.324.062-.067.223-.16.496-.281C7.332 6.066 7.969 5.355 8 4.39c.031-1.137-.781-2.16-1.91-2.356a2.462 2.462 0 0 0-.531-.031ZM11 3h1.5c.281 0 .5.219.5.5v8c0 .281-.219.5-.5.5h-8a.494.494 0 0 1-.5-.5V11h5.5c.824 0 1.5-.676 1.5-1.5V3ZM5 8v1h1V8H5Z" fill="#5F6368"/></svg>