<svg width="28" height="25" fill="none" xmlns="http://www.w3.org/2000/svg"><path d="M17.48 4.375c.62-.365 2.989-1.72 4.963-1.72 3.722 0 1.974 4.011 1.974 4.011l.113.104c2.143-5.052-1.974-4.687-1.974-4.687-2.313 0-5.246 1.77-5.866 2.187a18.48 18.48 0 0 0-1.749-.104c-8.573 0-9.87 6.042-10.04 7.813-.056.26-.056.416-.056.416v.105-.157c3.441-4.53 8.179-6.354 8.179-6.354v.313c-7.05 4.427-8.743 10.99-9.137 12.291-.452 1.355-.17 4.323 2.82 4.323 2.989 0 5.865-2.187 5.865-2.187s.677.104 2.426.104c7.445 0 9.419-6.25 9.419-6.25h-6.6s-.676 2.083-3.045 2.083c-3.271 0-3.158-3.125-3.158-3.125h12.972c.226-2.864-.62-4.843-1.861-6.198-1.015-1.354-2.651-2.5-5.245-2.968Zm-5.302 16.25s-4.4 2.552-6.43.78c-1.072-1.77.677-4.27.677-4.27s1.353 2.552 5.753 3.49ZM11.5 5.365s-.056 0 0 0Zm.113 5.572s-.057-2.604 3.102-2.604c3.046 0 3.102 2.604 3.102 2.604h-6.204Z" fill="#29B6F6"/></svg>