<svg width="30" height="30" fill="none" xmlns="http://www.w3.org/2000/svg"><circle cx="15" cy="15" r="15" fill="#1372FF"/><path fill-rule="evenodd" clip-rule="evenodd" d="M14.461 11.23V8h1.078v3.23H14.46Zm-4.79-.799.76-.76 1.902 1.896-.766.766L9.67 10.43Zm9.898-.76-2.306 2.3.766.766 2.3-2.306-.76-.76ZM8 15.538V14.46h2.154v1.078H8Zm10.77-1.078v1.078H22V14.46h-3.23Zm-9.1 5.107 1.09-1.089.765.761-1.094 1.09-.76-.761Zm9.899-.76-.762.76.762.762.76-.761-.76-.762ZM14.462 22v-1.077h1.077V22H14.46Z" fill="#fff"/></svg>