<svg width="26" height="26" fill="none" xmlns="http://www.w3.org/2000/svg"><circle cx="13" cy="13" r="12" stroke="#E4E5E7" stroke-width="2"/><path d="M13 25c6.627 0 12-5.373 12-12S19.627 1 13 1" stroke="#0D6EFD" stroke-width="2" stroke-linecap="round"/><path d="M6.548 15.58v-.888L9.69 9.727h.7v1.307h-.445l-2.248 3.558v.057h4.308v.93H6.548ZM9.996 17v-1.69l.007-.405V9.727h1.04V17H9.997Zm5.78.12c-.562-.002-1.041-.15-1.439-.443-.397-.294-.702-.721-.912-1.282-.211-.561-.316-1.237-.316-2.028 0-.788.105-1.462.316-2.02.213-.56.518-.985.916-1.279.4-.293.878-.44 1.434-.44.557 0 1.034.148 1.432.444.397.293.701.72.912 1.278.213.556.32 1.229.32 2.017 0 .793-.105 1.47-.316 2.031-.21.56-.515.986-.913 1.282-.398.294-.876.44-1.435.44Zm0-.947c.492 0 .877-.24 1.154-.721.279-.48.419-1.176.419-2.085 0-.604-.064-1.114-.192-1.53-.126-.42-.307-.737-.544-.952a1.189 1.189 0 0 0-.838-.327c-.49 0-.874.242-1.154.725-.279.483-.42 1.178-.422 2.084 0 .606.063 1.119.188 1.538.128.417.309.732.543.948.235.213.516.32.845.32Z" fill="#BDC1C6"/></svg>