<svg width="14" height="14" fill="none" xmlns="http://www.w3.org/2000/svg"><path d="M13.806 7.583c0-.45-.173-.856-.448-1.166a1.75 1.75 0 0 0 .448-1.167c0-.965-.773-1.75-1.723-1.75H7.548l.422-1.26c.128-.45.078-.922-.144-1.331A1.72 1.72 0 0 0 6.798.07c-.81-.234-1.627.121-2.22 1.05L2.46 4.667H0V14h2.727v-.03c.046.014.092.03.144.03h8.064c.95 0 1.722-.785 1.722-1.75a1.76 1.76 0 0 0-.165-.736 1.752 1.752 0 0 0 .706-2.608 1.75 1.75 0 0 0 .608-1.323ZM1.148 5.833h1.149v7H1.148v-7Zm9.787 7h-7.49V5.267l2.106-3.525c.367-.575.656-.575.765-.575a.58.58 0 0 1 .56.723l-.673 2.007a.585.585 0 0 0 .076.526.572.572 0 0 0 .468.244h5.336a.58.58 0 0 1 .574.583.58.58 0 0 1-.574.583h-1.722V7h1.722a.58.58 0 0 1 .574.583.58.58 0 0 1-.574.584h-1.722v1.166h1.435a.58.58 0 0 1 .574.584.58.58 0 0 1-.574.583h-1.435v1.167h.574a.58.58 0 0 1 .574.583.58.58 0 0 1-.574.583Z" fill="#9AA0A6"/></svg>