<svg width="20" height="20" fill="none" xmlns="http://www.w3.org/2000/svg"><path fill="#D8D8D8" fill-opacity=".01" d="M0 0h20v20H0z"/><path fill-rule="evenodd" clip-rule="evenodd" d="M4.583 5.417a1.25 1.25 0 1 0 0-2.5 1.25 1.25 0 0 0 0 2.5Zm13.167-1.25a.667.667 0 0 0-.667-.667h-8.75l-.06.003a.667.667 0 0 0 .06 1.33h8.75l.06-.003a.667.667 0 0 0 .607-.663Zm0 5.833a.667.667 0 0 0-.667-.667h-8.75l-.06.003a.667.667 0 0 0 .06 1.33h8.75l.06-.002A.667.667 0 0 0 17.75 10Zm-.667 5.166a.667.667 0 0 1 .06 1.331l-.06.003h-8.75a.667.667 0 0 1-.06-1.33l.06-.004h8.75ZM5.833 10a1.25 1.25 0 1 1-2.5 0 1.25 1.25 0 0 1 2.5 0Zm-1.25 7.083a1.25 1.25 0 1 0 0-2.5 1.25 1.25 0 0 0 0 2.5Z" fill="#26344A"/></svg>