<svg width="16" height="16" fill="none" xmlns="http://www.w3.org/2000/svg"><path fill-rule="evenodd" clip-rule="evenodd" d="M8.543 15.427a1.716 1.716 0 0 0 1.32.344 1.806 1.806 0 0 0 1.191-.706 1.84 1.84 0 0 0 .342-1.33l-.097-.658a11.588 11.588 0 0 0-.457-1.971l-.326-.92 2.363.016a2.1 2.1 0 0 0 1.63-.772c.408-.477.57-1.117.457-1.757l-1.044-5.915A2.12 2.12 0 0 0 11.836 0H6.98c-.783 0-1.55.132-2.267.41a.493.493 0 0 0-.293.641.487.487 0 0 0 .636.297 5.535 5.535 0 0 1 1.924-.346h4.874c.554 0 1.026.411 1.124.954L14.02 7.87c.065.329-.033.673-.244.936a1.15 1.15 0 0 1-.88.41H9.847a.508.508 0 0 0-.407.215.48.48 0 0 0-.065.443l.554 1.577c.18.558.326 1.167.407 1.774l.098.657a.838.838 0 0 1-.7.92.892.892 0 0 1-.604-.164.868.868 0 0 1-.31-.542l-.097-.657a8.405 8.405 0 0 0-3.554-5.783.491.491 0 0 0-.685.132c-.146.23-.098.542.132.69a7.345 7.345 0 0 1 3.128 5.092l.099.657c.064.476.326.904.7 1.2ZM0 7.574c0 .28.211.492.489.492h2.445a.482.482 0 0 0 .49-.492V.509a.482.482 0 0 0-.49-.492H.49A.482.482 0 0 0 0 .509c0 .28.211.493.489.493h1.956v6.079H.49a.482.482 0 0 0-.49.493Z" fill="#DD3646"/></svg>