<svg width="14" height="14" fill="none" xmlns="http://www.w3.org/2000/svg"><path d="M7 .5A6.51 6.51 0 0 0 .5 7 6.51 6.51 0 0 0 7 13.5 6.51 6.51 0 0 0 13.5 7 6.51 6.51 0 0 0 7 .5Zm0 1c3.043 0 5.5 2.457 5.5 5.5a5.49 5.49 0 0 1-1.266 3.516 4.522 4.522 0 0 0-2.546-2.684A2.49 2.49 0 0 0 9.5 6c0-1.375-1.125-2.5-2.5-2.5A2.507 2.507 0 0 0 4.5 6c0 .723.316 1.375.813 1.832a4.516 4.516 0 0 0-2.543 2.684A5.472 5.472 0 0 1 1.5 7c0-3.043 2.457-5.5 5.5-5.5Zm0 3c.836 0 1.5.664 1.5 1.5S7.836 7.5 7 7.5A1.49 1.49 0 0 1 5.5 6c0-.836.664-1.5 1.5-1.5Zm0 4c1.7 0 3.094 1.207 3.418 2.809A5.477 5.477 0 0 1 7 12.5a5.457 5.457 0 0 1-3.414-1.191A3.48 3.48 0 0 1 7 8.5Z" fill="#9AA0A6"/></svg>