<svg width="15" height="9" fill="none" xmlns="http://www.w3.org/2000/svg"><path d="M7.216 4.364C7.216 2.013 5.78.628 3.874.628 1.964.628.533 2.013.533 4.364c0 2.347 1.43 3.735 3.341 3.735 1.907 0 3.342-1.385 3.342-3.735Zm-1.325 0c0 1.654-.83 2.553-2.017 2.553-1.182 0-2.017-.899-2.017-2.553 0-1.655.835-2.554 2.017-2.554 1.186 0 2.017.899 2.017 2.554ZM8.461 8H9.78V5.337h1.342L12.55 8h1.47l-1.573-2.884c.856-.344 1.307-1.076 1.307-2.063 0-1.388-.895-2.326-2.564-2.326H8.46V8ZM9.78 4.243V1.828h1.207c.984 0 1.424.451 1.424 1.225s-.44 1.19-1.417 1.19H9.78Z" fill="#BDC1C6"/></svg>