<svg width="16" height="16" fill="none" xmlns="http://www.w3.org/2000/svg"><path fill-rule="evenodd" clip-rule="evenodd" d="M8.543.367A1.7 1.7 0 0 1 9.863.02a1.8 1.8 0 0 1 1.191.715c.277.384.407.866.342 1.349l-.097.666a11.877 11.877 0 0 1-.457 1.997l-.326.933 2.363-.017c.636 0 1.223.283 1.63.783.408.482.57 1.131.457 1.78l-1.044 5.993A2.129 2.129 0 0 1 11.836 16H6.98a6.17 6.17 0 0 1-2.267-.416.502.502 0 0 1-.293-.65.486.486 0 0 1 .636-.3 5.47 5.47 0 0 0 1.924.35h4.874c.554 0 1.026-.416 1.124-.966l1.043-5.993a1.178 1.178 0 0 0-.244-.948 1.143 1.143 0 0 0-.88-.416h-3.05a.506.506 0 0 1-.472-.666l.554-1.599c.18-.565.326-1.182.407-1.797l.098-.666a.847.847 0 0 0-.7-.932.883.883 0 0 0-.604.166.882.882 0 0 0-.31.549l-.097.666c-.326 2.381-1.614 4.511-3.554 5.86a.487.487 0 0 1-.685-.134c-.146-.233-.098-.549.132-.698 1.711-1.182 2.85-3.063 3.128-5.16l.099-.667c.064-.482.326-.915.7-1.216ZM0 8.327c0-.283.211-.499.489-.499h2.445c.278 0 .49.216.49.5v7.158c0 .283-.212.5-.49.5H.49a.485.485 0 0 1-.489-.5c0-.284.211-.5.489-.5h1.956V8.827H.49a.485.485 0 0 1-.489-.5Z" fill="#28A745"/></svg>