<svg width="30" height="39" fill="none" xmlns="http://www.w3.org/2000/svg"><path d="M30 10.833v26A2.154 2.154 0 0 1 27.857 39H2.143A2.154 2.154 0 0 1 0 36.833V2.167C0 .97.959 0 2.143 0h17.143L30 10.833Z" fill="#FFBCA5"/><path d="M19 0v8.8a2.2 2.2 0 0 0 2.2 2.2H30L19 0Z" fill="#FF784B"/><path d="M7.717 25h1.318v-2.457h1.392c1.68 0 2.582-1.009 2.582-2.408 0-1.389-.892-2.408-2.564-2.408H7.717V25Zm1.318-3.54v-2.632h1.207c.987 0 1.424.533 1.424 1.307 0 .774-.437 1.324-1.417 1.324H9.035Zm5.061 5.585h1.286v-2.904h.053c.202.397.625.955 1.562.955 1.286 0 2.248-1.02 2.248-2.816 0-1.818-.99-2.806-2.251-2.806-.963 0-1.364.58-1.56.973h-.074v-.901h-1.264v7.5Zm1.26-4.772c0-1.058.455-1.744 1.283-1.744.855 0 1.296.728 1.296 1.744 0 1.023-.448 1.768-1.296 1.768-.82 0-1.282-.71-1.282-1.768Zm7.714-2.727h-1.076v-1.307h-1.286v1.306h-.774v.995h.774v3.032c-.007 1.027.739 1.531 1.705 1.503.366-.011.618-.082.756-.128l-.216-1.005c-.071.017-.217.05-.377.05-.323 0-.582-.114-.582-.633v-2.82h1.076v-.994Z" fill="#fff"/></svg>