<svg width="16" height="16" fill="none" xmlns="http://www.w3.org/2000/svg"><path fill="#D8D8D8" fill-opacity=".01" d="M0 0h16v16H0z"/><path d="M7.758 1.118a.519.519 0 0 0-.696.034l-.034.037a.519.519 0 0 0 .034.697l.968.967A6.076 6.076 0 0 0 2 8.926 6.076 6.076 0 0 0 8.077 15a6.076 6.076 0 0 0 6.077-6.074.519.519 0 1 0-1.037 0 5.039 5.039 0 0 1-5.04 5.036 5.039 5.039 0 0 1-5.04-5.036 5.039 5.039 0 0 1 4.99-5.035l-.965.964-.034.037a.519.519 0 0 0 .767.697l1.853-1.852.034-.037a.519.519 0 0 0-.034-.697L7.795 1.152l-.037-.034Z" fill="#202124"/></svg>