<svg width="15" height="16" fill="none" xmlns="http://www.w3.org/2000/svg"><path d="M1.73 0C.783 0 0 .774 0 1.714V12c0 .94.782 1.714 1.73 1.714h1.732v-1.143H1.73A.567.567 0 0 1 1.154 12V1.714c0-.321.252-.571.577-.571h5.192V4.57h3.462v2.286h1.154V3.763L7.739 0H1.73Zm6.347 1.95 1.492 1.48H8.077V1.95ZM10.96 8a4.025 4.025 0 0 0-3.98 3.429H4.039L7.5 14.857l3.461-3.428H8.136a2.866 2.866 0 0 1 2.825-2.286c1.6 0 2.885 1.272 2.885 2.857a2.862 2.862 0 0 1-2.885 2.857V16C13.185 16 15 14.203 15 12c0-2.202-1.815-4-4.039-4Z" fill="#DD3646"/></svg>