<svg width="28" height="25" fill="none" xmlns="http://www.w3.org/2000/svg"><path d="M25.548 12.5c0 5.752-5.051 10.416-11.28 10.416-6.23 0-11.28-4.664-11.28-10.416 0-5.752 5.05-10.417 11.28-10.417 6.229 0 11.28 4.665 11.28 10.417Z" fill="#CFD8DC"/><path d="M23.856 12.5c0 4.89-4.291 8.854-9.588 8.854-5.297 0-9.588-3.963-9.588-8.854 0-4.891 4.291-8.854 9.588-8.854 5.297 0 9.588 3.963 9.588 8.854Z" fill="#448AFF"/><path d="m13.082 11.405 2.37 2.19 5.19-6.98-7.56 4.79Z" fill="#FF3D00"/><path d="m14.268 12.5 6.374-5.886-5.189 6.98-1.185-1.094Z" fill="#BF360C"/><path d="m13.082 11.405-5.188 6.98 7.559-4.79-2.37-2.19Z" fill="#fff"/><path d="m14.268 12.5-6.374 5.886 7.559-4.791-1.185-1.095Z" fill="#BDBDBD"/><path d="M10.377 5.572a8.492 8.492 0 0 1 1.014-.417l.678 1.408-1.015.415-.677-1.406Zm10.66 7.449h1.634c0-.157.057-.364.057-.521 0-.157 0-.364-.057-.52h-1.635v1.04ZM7.893 7.345l1.185 1.093.789-.729-1.183-1.094-.791.73Zm6.938-2.604c-.17-.053-.394-.053-.564-.053-.17 0-.394 0-.564.053V6.25h1.128V4.74Zm3.044.728a6.217 6.217 0 0 0-1.07-.364l-.622 1.459 1.073.364.62-1.46ZM7.783 10.677l.394-.988-1.522-.574c-.17.313-.282.624-.395.988l1.523.574ZM7.5 11.98H5.865c-.057.157-.057.364-.057.521 0 .157 0 .364.057.52H7.5v-1.04Zm13.254 2.344-.394.989 1.522.573a5.24 5.24 0 0 0 .394-.988l-1.522-.574Zm1.468-4.48a7.249 7.249 0 0 0-.452-.936l-1.522.624.45.938 1.524-.626Zm-1.58 7.812-1.186-1.093-.788.729 1.183 1.094.79-.73ZM8.288 15.468l-.45-.938-1.524.627c.115.311.282.624.452.936l1.522-.625Zm9.194 2.554-1.015.415.678 1.408c.337-.106.676-.26 1.014-.417l-.677-1.406Zm-5.188.468-1.07-.364-.622 1.405c.34.157.676.26 1.07.364l.622-1.405Zm2.538 1.77v-1.51h-1.128v1.51c.17 0 .394.052.564.052.17 0 .394 0 .564-.053Z" fill="#BBDEFB"/></svg>