<svg width="12" height="14" fill="none" xmlns="http://www.w3.org/2000/svg"><path d="M4.878 0a.543.543 0 0 0-.474.265.529.529 0 0 0 0 .547c.097.164.28.27.474.265h.542v1.102C2.388 2.457 0 4.993 0 8.077 0 11.341 2.676 14 5.962 14c3.286 0 5.963-2.659 5.963-5.923 0-3.084-2.389-5.62-5.42-5.898V1.077h.541a.543.543 0 0 0 .475-.265.529.529 0 0 0 0-.547A.543.543 0 0 0 7.046 0H4.878Zm5.416 2.146a.544.544 0 0 0-.504.34.529.529 0 0 0 .123.585l1.152 1.144c.14.143.339.198.53.152a.547.547 0 0 0 .389-.387.541.541 0 0 0-.148-.522l-1.152-1.144a.559.559 0 0 0-.39-.168ZM5.962 3.23c2.702 0 4.878 2.162 4.878 4.846s-2.176 4.846-4.878 4.846c-2.701 0-4.878-2.162-4.878-4.846S3.261 3.23 5.962 3.23ZM3.786 5.376a.543.543 0 0 0-.5.341.523.523 0 0 0 .127.585l2.168 2.154a.542.542 0 0 0 .915-.236.534.534 0 0 0-.153-.522L4.175 5.545a.543.543 0 0 0-.39-.169Z" fill="#85B7FE"/></svg>