<svg width="14" height="14" fill="none" xmlns="http://www.w3.org/2000/svg"><path fill-rule="evenodd" clip-rule="evenodd" d="M6.298.8C3.26.8.8 3.268.8 6.312c0 3.045 2.461 5.513 5.498 5.513a5.466 5.466 0 0 0 3.495-1.258l2.55 2.524.037.034a.53.53 0 0 0 .712-.039.532.532 0 0 0-.005-.75l-2.544-2.52a5.498 5.498 0 0 0 1.252-3.504C11.795 3.268 9.334.8 6.298.8Zm0 1.063a4.444 4.444 0 0 1 4.437 4.45 4.444 4.444 0 0 1-4.437 4.449 4.444 4.444 0 0 1-4.438-4.45 4.444 4.444 0 0 1 4.438-4.45Z" fill="#5F6368"/></svg>