<svg width="15" height="14" fill="none" xmlns="http://www.w3.org/2000/svg"><path d="M1.5 0C.677 0 0 .677 0 1.5v8c0 .822.677 1.5 1.5 1.5H7v-1H1.5a.493.493 0 0 1-.5-.5V3h12v2h1V1.5c0-.823-.678-1.5-1.5-1.5h-11Zm0 1h11c.281 0 .5.219.5.5V2H1v-.5c0-.281.219-.5.5-.5ZM3 5v1h1V5H3Zm2 0v1h5V5H5Zm7 1c-1.65 0-3 1.35-3 3 0 .646.21 1.242.56 1.732l-2.539 2.54.708.707 2.539-2.54A2.97 2.97 0 0 0 12 12c1.65 0 3-1.35 3-3s-1.35-3-3-3ZM3 7v1h1V7H3Zm2 0v1h3V7H5Zm7 0c1.11 0 2 .89 2 2 0 1.11-.89 2-2 2-1.11 0-2-.89-2-2 0-1.11.89-2 2-2Z" fill="#000"/></svg>