<svg xmlns="http://www.w3.org/2000/svg" width="16" height="16"><g fill="none" fill-rule="evenodd"><path d="M0 0h16v16H0z"/><path fill="#26344A" d="M7.298 1.8c3.036 0 5.497 2.468 5.497 5.512 0 1.33-.47 2.55-1.252 3.503l2.544 2.52c.208.206.21.543.005.752a.53.53 0 0 1-.712.038l-.038-.034-2.548-2.524a5.47 5.47 0 0 1-3.496 1.258c-3.037 0-5.498-2.468-5.498-5.513C1.8 4.268 4.261 1.8 7.298 1.8zm0 1.063a4.444 4.444 0 0 0-4.438 4.45 4.444 4.444 0 0 0 4.438 4.449 4.444 4.444 0 0 0 4.437-4.45 4.444 4.444 0 0 0-4.437-4.45z"/></g></svg>