<svg width="11" height="12" fill="none" xmlns="http://www.w3.org/2000/svg"><path fill-rule="evenodd" clip-rule="evenodd" d="M5.761 2.255a2.255 2.255 0 1 1 .729 1.66l-2.12 1.59a2.25 2.25 0 0 1 .009 1.544l2.097 1.049a2.255 2.255 0 1 1-.583.886L3.795 7.935a2.255 2.255 0 1 1-.013-3.307l2.12-1.589a2.25 2.25 0 0 1-.14-.784Zm3.457 0a1.202 1.202 0 1 0-2.403 0 1.202 1.202 0 0 0 2.403 0ZM3.457 6.288a1.202 1.202 0 1 0-2.404 0 1.202 1.202 0 0 0 2.404 0Zm4.56 2.255a1.202 1.202 0 1 1 0 2.404 1.202 1.202 0 0 1 0-2.404Z" fill="#803C25"/></svg>