<svg width="14" height="13" fill="none" xmlns="http://www.w3.org/2000/svg"><path d="M11.5 0a2.507 2.507 0 0 0-2.45 3L4.52 5.04A2.505 2.505 0 0 0 2.5 4 2.507 2.507 0 0 0 0 6.5C0 7.875 1.125 9 2.5 9a2.5 2.5 0 0 0 2.027-1.05l4.535 2.015A2.417 2.417 0 0 0 9 10.5c0 1.375 1.125 2.5 2.5 2.5s2.5-1.125 2.5-2.5S12.875 8 11.5 8a2.5 2.5 0 0 0-2.027 1.05L4.937 7.04A2.48 2.48 0 0 0 5 6.5c0-.188-.023-.371-.063-.547l4.508-2.039A2.498 2.498 0 0 0 11.5 5C12.875 5 14 3.875 14 2.5S12.875 0 11.5 0Zm0 1c.836 0 1.5.664 1.5 1.5S12.336 4 11.5 4A1.49 1.49 0 0 1 10 2.5c0-.836.664-1.5 1.5-1.5Zm-9 4C3.336 5 4 5.664 4 6.5S3.336 8 2.5 8A1.49 1.49 0 0 1 1 6.5C1 5.664 1.664 5 2.5 5Zm9 4c.836 0 1.5.664 1.5 1.5s-.664 1.5-1.5 1.5a1.49 1.49 0 0 1-1.5-1.5c0-.836.664-1.5 1.5-1.5Z" fill="#000"/></svg>