<svg width="10" height="11" fill="none" xmlns="http://www.w3.org/2000/svg"><path d="M1.24.625C.629.625.126 1.132.126 1.75v7.5c0 .618.503 1.125 1.116 1.125h7.437c.613 0 1.115-.507 1.115-1.125V8.5a.373.373 0 0 0-.372-.375.373.373 0 0 0-.372.375v.75c0 .21-.162.375-.371.375H1.24a.369.369 0 0 1-.372-.375v-7.5c0-.21.162-.375.372-.375h7.437c.209 0 .371.164.371.375v.75c0 .207.167.375.372.375a.373.373 0 0 0 .372-.375v-.75c0-.618-.502-1.125-1.115-1.125H1.24Zm6.383 2.531a.37.37 0 0 0-.524-.001.377.377 0 0 0-.002.532l1.427 1.438H3.472A.373.373 0 0 0 3.1 5.5c0 .207.166.375.372.375h5.052L7.097 7.311a.379.379 0 0 0 0 .533.371.371 0 0 0 .529 0l2.198-2.22a.177.177 0 0 0 0-.248l-2.201-2.22Z" fill="#DD3646"/></svg>