<svg width="289" height="29" fill="none" xmlns="http://www.w3.org/2000/svg"><path d="M0 23.5h47.337c10.092.033 33.656-1.908 48.4-4.613 18.429-3.38 32.252-11.236 48.049-11.136C159.583 7.85 166.143 28 191.155 28s24.375-11.897 48.729-12.792c24.353-.895 25.67 2.983 47.39 2.287" stroke="#3368BB"/><path d="M.726 22.995h47.331c10.08.05 33.921-.88 48.646-5.006C115.11 12.832 128.915.85 144.692 1.001 160.469 1.153 167.043 28 192.023 28c24.981 0 24.323-14.258 48.646-15.623 24.323-1.365 25.638 4.55 47.332 3.489" stroke="#000"/></svg>