<svg width="13" height="13" fill="none" xmlns="http://www.w3.org/2000/svg"><path d="M7.774.52a.52.52 0 0 0-.52-.52H4.241l-.077.001C2.96.043 2 1.057 2 2.295v3.748l.002.048a.52.52 0 0 0 1.038-.048V2.295l.001-.065c.033-.666.561-1.19 1.2-1.19h3.013l.047-.002A.52.52 0 0 0 7.774.52ZM6.395 12a.52.52 0 0 1-.047-1.038l.047-.002h3.013c.64 0 1.168-.524 1.2-1.19l.001-.065V5.957a.52.52 0 0 1 1.038-.048l.002.048v3.748c0 1.238-.958 2.252-2.164 2.294L9.408 12H6.395Z" fill="#0D6EFD"/><circle cx="11" cy="2" r="1.75" stroke="#0D6EFD" stroke-width=".5"/><path d="M4.033 10.001a.194.194 0 0 0-.194-.193H2.058a.194.194 0 0 0 .018.387h1.781A.194.194 0 0 0 4.033 10Zm0 .882a.194.194 0 0 0-.194-.193H2.058a.194.194 0 0 0 .018.387h1.781a.194.194 0 0 0 .176-.194ZM3.445 9.12a.194.194 0 0 0-.194-.194H2.058a.194.194 0 0 0 .018.387h1.193a.194.194 0 0 0 .176-.194Z" fill="#0D6EFD"/><path fill-rule="evenodd" clip-rule="evenodd" d="M1.488 7.75h2.94c.268 0 .487.218.487.487v3.526a.488.488 0 0 1-.488.487h-2.94A.487.487 0 0 1 1 11.763V8.237c0-.269.218-.487.488-.487Zm2.94.387h-2.94a.1.1 0 0 0-.1.1v3.526a.1.1 0 0 0 .1.1h2.94a.1.1 0 0 0 .1-.1V8.237a.1.1 0 0 0-.1-.1Z" fill="#0D6EFD"/></svg>