<svg width="16" height="16" fill="none" xmlns="http://www.w3.org/2000/svg"><path d="M8 1.5c-3.582 0-6.5 2.914-6.5 6.498 0 .268.217.486.484.486h.032a.485.485 0 0 0 .484-.486A5.491 5.491 0 0 1 8 2.503a5.46 5.46 0 0 1 4.094 1.845l-.786.785a.2.2 0 0 0 .14.343H14.3a.2.2 0 0 0 .2-.2v-2.85a.2.2 0 0 0-.341-.143L12.8 3.639A6.467 6.467 0 0 0 8 1.5Zm6 5.981a.5.5 0 0 0-.5.501A5.5 5.5 0 0 1 8 13.497a5.457 5.457 0 0 1-4.105-1.864l.799-.801a.2.2 0 0 0-.142-.343H1.7a.2.2 0 0 0-.2.2v2.86a.2.2 0 0 0 .341.143l1.347-1.35A6.462 6.462 0 0 0 8 14.5c3.586 0 6.5-2.922 6.5-6.518a.5.5 0 0 0-.5-.501Z" fill="#202124"/></svg>