<svg width="11" height="12" xmlns="http://www.w3.org/2000/svg"><path d="M3.714 9.84V4.731a.226.226 0 0 0-.065-.167.226.226 0 0 0-.167-.065h-.464a.226.226 0 0 0-.167.065.226.226 0 0 0-.065.167V9.84a.223.223 0 0 0 .232.232h.464a.226.226 0 0 0 .167-.065.226.226 0 0 0 .065-.167Zm1.857 0V4.731a.226.226 0 0 0-.065-.167.226.226 0 0 0-.167-.065h-.464a.226.226 0 0 0-.167.065.226.226 0 0 0-.065.167V9.84c0 .068.022.124.065.167.044.044.1.065.167.065h.464a.226.226 0 0 0 .167-.065.226.226 0 0 0 .065-.167Zm1.858 0V4.731a.226.226 0 0 0-.066-.167.226.226 0 0 0-.167-.065h-.464a.226.226 0 0 0-.167.065.226.226 0 0 0-.065.167V9.84c0 .068.022.124.065.167.044.044.1.065.167.065h.464a.226.226 0 0 0 .167-.065.226.226 0 0 0 .066-.167ZM3.482 2.642h3.25l-.348-.849a.205.205 0 0 0-.123-.08h-2.3a.205.205 0 0 0-.123.08l-.356.849Zm6.732.232v.464a.226.226 0 0 1-.065.167.226.226 0 0 1-.167.065h-.696v6.878c0 .401-.114.748-.341 1.04-.228.293-.5.44-.82.44H2.089c-.319 0-.592-.142-.82-.425-.227-.283-.34-.625-.34-1.026V3.57H.232a.226.226 0 0 1-.167-.065A.226.226 0 0 1 0 3.34v-.464c0-.068.022-.123.065-.167a.226.226 0 0 1 .167-.065h2.242l.508-1.212a1.01 1.01 0 0 1 .391-.457 1.03 1.03 0 0 1 .573-.188h2.322c.193 0 .384.063.573.188.189.126.32.278.392.457l.508 1.212h2.241c.068 0 .123.022.167.065.044.044.065.1.065.167Z" fill="#FF001F" fill-rule="evenodd"/></svg>