<svg width="30" height="39" fill="none" xmlns="http://www.w3.org/2000/svg"><path d="M30 10.833v26A2.154 2.154 0 0 1 27.857 39H2.143A2.154 2.154 0 0 1 0 36.833V2.167C0 .97.959 0 2.143 0h17.143L30 10.833Z" fill="#BDC1C6"/><path d="M19 0v8.8a2.2 2.2 0 0 0 2.2 2.2H30L19 0Z" fill="#9AA0A6"/><path d="M7.398 18.832h2.248V25h1.306v-6.168H13.2v-1.105H7.398v1.105Zm7.515.713h-1.364l1.62 2.728L13.506 25h1.363l1.144-1.964L17.168 25h1.353l-1.673-2.727 1.644-2.727h-1.36l-1.118 2.013-1.101-2.014Zm7.297 0h-1.076V18.24H19.85v1.306h-.774v.995h.774v3.032c-.007 1.027.738 1.531 1.704 1.503.366-.011.618-.082.757-.128l-.217-1.005c-.07.017-.216.05-.376.05-.323 0-.583-.114-.583-.633v-2.82h1.076v-.994Z" fill="#fff"/></svg>