<svg width="16" height="16" fill="none" xmlns="http://www.w3.org/2000/svg"><path d="M4.8 0a.5.5 0 0 0-.5.5v2.2a.5.5 0 0 0 1 0V.5a.5.5 0 0 0-.5-.5ZM3.2 4.8a.5.5 0 0 0-.5-.5H.5a.5.5 0 0 0 0 1h2.2a.5.5 0 0 0 .5-.5Zm9.6 6.4a.5.5 0 0 0 .5.5h2.2a.5.5 0 0 0 0-1h-2.2a.5.5 0 0 0-.5.5Zm-1.6 1.6a.5.5 0 0 0-.5.5v2.2a.5.5 0 0 0 1 0v-2.2a.5.5 0 0 0-.5-.5ZM8.455 2.92a3.278 3.278 0 0 1 4.696 4.57l-.067.072-1.655 1.655a3.278 3.278 0 0 1-4.944-.354.52.52 0 0 1 .832-.622 2.24 2.24 0 0 0 3.31.306l.067-.065 1.649-1.648a2.24 2.24 0 0 0-3.1-3.23l-.061.058-.95.943a.52.52 0 0 1-.765-.7L7.5 3.87l.954-.949Z" fill="#DD3646"/><path d="M4.58 6.783a3.278 3.278 0 0 1 4.944.354.52.52 0 0 1-.832.622 2.24 2.24 0 0 0-3.31-.306l-.067.065-1.649 1.648a2.24 2.24 0 0 0 3.099 3.23l.061-.057.944-.943a.52.52 0 0 1 .768.697l-.034.037-.95.95A3.278 3.278 0 0 1 2.86 8.51l.067-.072L4.58 6.783Z" fill="#DD3646"/></svg>