<svg width="18" height="17" xmlns="http://www.w3.org/2000/svg"><g fill="none" fill-rule="evenodd"><path d="M-1-1h20v20H-1z"/><path d="M9 4.996a4.003 4.003 0 0 1 2.274 7.297l-.001 3.525a.758.758 0 0 1-.67.753l-.088.005h-3.03a.758.758 0 0 1-.753-.67l-.005-.088v-3.525A4.003 4.003 0 0 1 9 4.995Zm-.758 7.932v2.133h1.516v-2.132a4.028 4.028 0 0 1-1.516 0ZM9 6.511a2.488 2.488 0 1 0 0 4.974A2.488 2.488 0 1 0 9 6.51Zm7.576 1.731a.758.758 0 0 1 .088 1.51l-.088.006h-1.082a.758.758 0 0 1-.089-1.51l.089-.006h1.082Zm-14.07 0a.758.758 0 0 1 .089 1.51l-.089.006H1.424a.758.758 0 0 1-.088-1.51l.088-.006h1.082Zm.465-6.334.071.063 1.082 1.081a.758.758 0 0 1-1 1.135l-.07-.063L1.97 3.042a.758.758 0 0 1 1-1.134Zm13.058.063a.758.758 0 0 1 .063 1l-.063.071-1.082 1.082a.758.758 0 0 1-1.134-1l.063-.072 1.082-1.081a.758.758 0 0 1 1.071 0ZM9 .667c.389 0 .709.292.752.669l.006.088v1.082a.758.758 0 0 1-1.51.088l-.006-.088V1.424c0-.418.34-.757.758-.757Z" fill="#FF001F"/></g></svg>