<svg width="14" height="12" fill="none" xmlns="http://www.w3.org/2000/svg"><path d="M7.635 9.226a.645.645 0 1 0-1.29 0 .645.645 0 0 0 1.29 0Zm-.132-1.989a.516.516 0 0 1-1.03-.047V4.312l.002-.047a.516.516 0 0 1 1.03.047V7.19l-.002.047Z" fill="#DD3646"/><path fill-rule="evenodd" clip-rule="evenodd" d="M6.401.192C6.613.065 6.848 0 7.095 0a1.359 1.359 0 0 1 1.191.71L13.355 10l.036.07c.199.416.175.855-.062 1.26a1.34 1.34 0 0 1-.494.489 1.34 1.34 0 0 1-.677.181H2.015l-.083-.004a1.34 1.34 0 0 1-.575-.177 1.344 1.344 0 0 1-.494-.489 1.299 1.299 0 0 1-.02-1.339L5.912.693l.045-.072C6.072.445 6.22.3 6.4.192Zm.857.885a.302.302 0 0 0-.163-.045.302.302 0 0 0-.162.045.316.316 0 0 0-.099.088l-.024.04-5.064 9.284c-.064.116-.063.198.008.319.029.05.066.087.119.117a.304.304 0 0 0 .116.04l.044.003h10.124a.31.31 0 0 0 .161-.043.312.312 0 0 0 .12-.118c.065-.112.07-.189.028-.276l-.023-.046-5.062-9.28a.326.326 0 0 0-.123-.128Z" fill="#DD3646"/></svg>