<svg width="100" height="100" fill="none" xmlns="http://www.w3.org/2000/svg"><path d="M72.917 77.084c-4.584 0-8.334-3.75-8.334-8.334 0-4.583 3.75-8.333 8.334-8.333 4.583 0 8.333 3.75 8.333 8.333 0 4.584-3.75 8.334-8.333 8.334Z" fill="#2196F3"/><path d="M72.917 89.583c-6.25 0-12.292-2.916-16.25-7.708l6.458-5.208c2.292 2.916 6.042 4.791 9.792 4.791 6.875 0 12.5-5.625 12.5-12.5s-5.625-12.5-12.5-12.5c-2.084 0-4.167.625-6.042 1.459L63.333 60 48.542 33.333l7.291-3.958 11.042 19.583c2.083-.625 4.167-1.041 6.25-1.041 11.458 0 20.833 9.375 20.833 20.833 0 11.458-9.583 20.833-21.041 20.833Z" fill="#2196F3"/><path d="M29.167 89.584c-11.459 0-20.834-9.375-20.834-20.834 0-9.583 6.459-17.708 15.625-20.208l2.084 8.125c-5.417 1.458-9.375 6.458-9.375 12.083 0 6.875 5.625 12.5 12.5 12.5s12.5-5.625 12.5-12.5v-4.166h31.25v8.333H49.583C47.708 82.5 39.167 89.584 29.167 89.584Z" fill="#2196F3"/><path d="M29.167 77.084c-4.584 0-8.334-3.75-8.334-8.334 0-4.583 3.75-8.333 8.334-8.333 4.583 0 8.333 3.75 8.333 8.333 0 4.584-3.75 8.334-8.333 8.334Z" fill="#0D6EFD"/><path d="M52.083 39.584c-4.583 0-8.333-3.75-8.333-8.334 0-4.583 3.75-8.333 8.333-8.333 4.584 0 8.334 3.75 8.334 8.333 0 4.584-3.75 8.334-8.334 8.334Z" fill="#2196F3"/><path d="m32.708 70.834-7.083-4.167 12.292-20.208C33.75 42.5 31.25 37.084 31.25 31.25c0-11.458 9.375-20.833 20.833-20.833 11.459 0 20.834 9.375 20.834 20.833 0 1.875-.209 3.542-.625 5.209l-8.125-2.084c.208-1.041.416-2.083.416-3.125 0-6.875-5.625-12.5-12.5-12.5s-12.5 5.625-12.5 12.5c0 4.375 2.292 8.334 6.042 10.625l3.542 2.084-16.459 26.875Z" fill="#0D6EFD"/></svg>