<svg width="64" height="64" viewBox="0 0 64 64" fill="none" xmlns="http://www.w3.org/2000/svg">
<path d="M33 27.5V28.5C33 28.776 33.224 29 33.5 29H35V36.5C35 36.776 35.224 37 35.5 37H36.5C36.776 37 37 36.776 37 36.5V29H38.5C38.776 29 39 28.776 39 28.5V27.5C39 27.224 38.776 27 38.5 27H33.5C33.224 27 33 27.224 33 27.5Z" fill="#916E03"/>
<path d="M32 28.5V27.5C32 27.224 31.776 27 31.5 27H28C26.895 27 26 27.895 26 29V35C26 36.105 26.895 37 28 37H31.5C31.776 37 32 36.776 32 36.5V35.5C32 35.224 31.776 35 31.5 35H28V33H31.5C31.776 33 32 32.776 32 32.5V31.5C32 31.224 31.776 31 31.5 31H28V29H31.5C31.776 29 32 28.776 32 28.5Z" fill="#916E03"/>
<path d="M40 29V36.5C40 36.776 40.224 37 40.5 37H41.5C41.776 37 42 36.776 42 36.5V34H44V36.5C44 36.776 44.224 37 44.5 37H45.5C45.776 37 46 36.776 46 36.5V29C46 27.895 45.105 27 44 27H42C40.895 27 40 27.895 40 29ZM42 31.5V29.5C42 29.224 42.224 29 42.5 29H43.5C43.776 29 44 29.224 44 29.5V31.5C44 31.776 43.776 32 43.5 32H42.5C42.224 32 42 31.776 42 31.5Z" fill="#916E03"/>
<path d="M23.973 31.263C23.985 31.176 24 31.09 24 31V29C24 27.895 23.105 27 22 27H20C18.895 27 18 27.895 18 29V31V33V35C18 36.105 18.895 37 20 37H23C24.105 37 25 36.105 25 35V33C25 32.251 24.583 31.606 23.973 31.263ZM20 30.5V29.5C20 29.224 20.224 29 20.5 29H21.5C21.776 29 22 29.224 22 29.5V30.5C22 30.776 21.776 31 21.5 31H20.5C20.224 31 20 30.776 20 30.5ZM23 34.5C23 34.776 22.776 35 22.5 35H20.5C20.224 35 20 34.776 20 34.5V33.5C20 33.224 20.224 33 20.5 33H22H22.5C22.776 33 23 33.224 23 33.5V34.5Z" fill="#916E03"/>
<path d="M59 17H5C2.24 17 0 19.24 0 22V42C0 44.76 2.24 47 5 47H59C61.76 47 64 44.76 64 42V22C64 19.24 61.76 17 59 17ZM61 42C61 43.1 60.1 44 59 44H5C3.9 44 3 43.1 3 42V22C3 20.9 3.9 20 5 20H59C60.1 20 61 20.9 61 22V42Z" fill="url(#paint0_linear_411_4470)"/>
<path d="M59 19H5C3.35 19 2 20.35 2 22V42C2 43.65 3.35 45 5 45H59C60.65 45 62 43.65 62 42V22C62 20.35 60.65 19 59 19ZM60 42C60 42.55 59.55 43 59 43H5C4.45 43 4 42.55 4 42V22C4 21.45 4.45 21 5 21H59C59.55 21 60 21.45 60 22V42ZM59 19H5C3.35 19 2 20.35 2 22V42C2 43.65 3.35 45 5 45H59C60.65 45 62 43.65 62 42V22C62 20.35 60.65 19 59 19ZM60 42C60 42.55 59.55 43 59 43H5C4.45 43 4 42.55 4 42V22C4 21.45 4.45 21 5 21H59C59.55 21 60 21.45 60 22V42ZM59 19H5C3.35 19 2 20.35 2 22V42C2 43.65 3.35 45 5 45H59C60.65 45 62 43.65 62 42V22C62 20.35 60.65 19 59 19ZM60 42C60 42.55 59.55 43 59 43H5C4.45 43 4 42.55 4 42V22C4 21.45 4.45 21 5 21H59C59.55 21 60 21.45 60 22V42Z" fill="white"/>
<path d="M4 27V22.333C4 21.597 4.597 21 5.333 21H10L4 27Z" fill="url(#paint1_linear_411_4470)"/>
<defs>
<linearGradient id="paint0_linear_411_4470" x1="32" y1="9.903" x2="32" y2="64.775" gradientUnits="userSpaceOnUse">
<stop stop-color="#FAB900"/>
<stop offset="1" stop-color="#E3D27F"/>
</linearGradient>
<linearGradient id="paint1_linear_411_4470" x1="7" y1="20.638" x2="7" y2="25.021" gradientUnits="userSpaceOnUse">
<stop stop-color="#E3D27F"/>
<stop offset="1" stop-color="#FAB900"/>
</linearGradient>
</defs>
</svg>
