<svg width="67" height="67" viewBox="0 0 67 67" fill="none" xmlns="http://www.w3.org/2000/svg">
<g clip-path="url(#clip0_437_18623)">
<path fill-rule="evenodd" clip-rule="evenodd" d="M33.6479 0.897705C51.6808 0.897705 66.2995 15.5164 66.2995 33.5493C66.2995 51.5823 51.6808 66.201 33.6479 66.201C15.6149 66.201 0.996216 51.5823 0.996216 33.5493C0.996216 15.5164 15.6149 0.897705 33.6479 0.897705Z" fill="#F7D469"/>
<path fill-rule="evenodd" clip-rule="evenodd" d="M28.853 45.215C29.7913 45.6713 29.0031 45.2782 29.5624 45.6347C35.4003 49.3523 44.0432 42.6947 40.6029 34.6592C39.5727 32.2653 37.9383 32.0609 35.5273 30.8524C36.8205 29.4606 38.6835 28.457 39.1006 25.8086C39.5178 23.1602 38.3268 20.6972 36.6462 19.6654C32.7841 17.2945 27.985 20.3241 26.5267 25.4232C26.2833 26.2743 26.1155 27.695 26.002 29.4514H25.9885V29.665L25.9691 29.9931V54.3185L25.9885 54.3767H28.6228H28.853V45.215ZM28.6228 30.3243V29.4725C28.6587 25.1429 29.2796 20.4673 32.5576 20.684C35.1229 20.8536 36.4982 23.6308 36.2412 26.425C35.8538 30.6354 33.0288 30.5249 31.82 30.9792L31.2585 32.7911C34.5738 32.605 36.2895 33.6911 37.3341 35.8392C40.4639 42.2738 34.468 46.7875 29.5532 43.62C28.2857 42.8031 28.7517 37.0506 28.7504 35.2908C28.7496 34.1353 28.6377 32.3042 28.6227 30.3241L28.6228 30.3243Z" fill="white"/>
</g>
<defs>
<clipPath id="clip0_437_18623">
<rect width="67" height="67" fill="white"/>
</clipPath>
</defs>
</svg>
