<svg width="331" height="281" viewBox="0 0 331 281" fill="none" xmlns="http://www.w3.org/2000/svg">
<path d="M330.009 39.2875V38.2824H329.968L329.961 0H0V281H330.009L330.002 240.468H330.009V239.462H330.002L329.995 200.221H330.009V199.215H329.995L329.988 160.023H330.009V159.017H329.988L329.981 119.778H330.009V118.772H329.981L329.974 79.5323H330.009V78.5263H329.974L329.967 39.287L330.009 39.2875ZM328.958 1.10208V38.2824H289.762V1.10208H328.958ZM288.758 1.10208V38.2824H248.272V1.10208H288.758ZM164.813 119.779H205.778V159.018H164.813V119.779ZM163.81 159.018H122.845V119.779H163.81V159.018ZM164.813 118.773V79.5328H205.778V118.773H164.813ZM163.81 118.773H122.845V79.5328H163.81V118.773ZM121.841 118.773H80.8275V79.5328H121.84L121.841 118.773ZM121.841 119.779V159.018H80.8275V119.779H121.841ZM121.841 160.024V199.215H80.8275V160.024H121.841ZM122.845 160.024H163.81V199.215H122.845V160.024ZM164.813 160.024H205.778V199.215H164.813V160.024ZM206.781 160.024H247.268V199.215H206.781V160.024ZM206.781 159.018V119.779H247.268V159.018H206.781ZM206.781 118.773V79.5328H247.268V118.773H206.781ZM206.781 78.5268V39.2875H247.268V78.5268H206.781ZM205.778 78.5268H164.813V39.2875H205.778V78.5268ZM163.81 78.5268H122.845V39.2875H163.81V78.5268ZM121.841 78.5268H80.8275V39.2875H121.84L121.841 78.5268ZM79.8257 78.5268H38.8612V39.2875H79.8257V78.5268ZM79.8257 79.5328V118.773H38.8612V79.5328H79.8257ZM79.8257 119.779V159.018H38.8612V119.779H79.8257ZM79.8257 160.024V199.215H38.8612V160.024H79.8257ZM79.8257 200.222V239.461H38.8612V200.221L79.8257 200.222ZM80.8294 200.222H121.841V239.461H80.8275L80.8294 200.222ZM122.845 200.222H163.81V239.461H122.845V200.222ZM164.813 200.222H205.778V239.461H164.813V200.222ZM206.781 200.222H247.268V239.461H206.781V200.222ZM248.272 200.222H288.758V239.461H248.272V200.222ZM248.272 199.215V160.024H288.758V199.215H248.272ZM248.272 159.018V119.779H288.758V159.018H248.272ZM248.272 118.773V79.5328H288.758V118.773H248.272ZM248.272 78.5268V39.2875H288.758V78.5268H248.272ZM247.268 1.10208V38.2824H206.781V1.10208H247.268ZM205.778 1.10208V38.2824H164.813V1.10208H205.778ZM163.81 1.10208V38.2824H122.845V1.10208H163.81ZM121.841 1.10208V38.2824H80.8275V1.10208H121.841ZM79.8257 1.10208V38.2824H38.8612V1.10208H79.8257ZM1.05183 1.10208H37.8576V38.2824H1.05183V1.10208ZM1.05183 39.2875H37.8576V78.5268H1.05183V39.2875ZM1.05183 79.5328H37.8576V118.773H1.05183V79.5328ZM1.05183 119.779H37.8576V159.018H1.05183V119.779ZM1.05183 160.024H37.8576V199.215H1.05183V160.024ZM1.05183 200.222H37.8576V239.461H1.05183V200.222ZM1.05183 279.946V240.467H37.8576V279.946H1.05183ZM38.8612 279.946V240.467H79.8257V279.946H38.8612ZM80.8294 279.946V240.467H121.841V279.946H80.8294ZM122.845 279.946V240.467H163.81V279.946H122.845ZM164.813 279.946V240.467H205.778V279.946H164.813ZM206.781 279.946V240.467H247.268V279.946H206.781ZM248.272 279.946V240.467H288.758V279.946H248.272ZM328.959 279.946H289.762V240.467H328.958L328.959 279.946ZM328.959 239.461H289.762V200.221H328.958L328.959 239.461ZM328.959 199.216H289.762V160.024H328.958L328.959 199.216ZM328.959 159.018H289.762V119.779H328.958L328.959 159.018ZM328.959 118.773H289.762V79.5328H328.958L328.959 118.773ZM328.959 78.5272H289.762V39.2875H328.958L328.959 78.5272Z" fill="#E7F1FF"/>
<path d="M217.565 195.538C214.147 194.209 211.723 190.882 211.723 186.98C211.723 183.174 214.026 179.91 217.309 178.516C218.271 178.108 218.762 177.025 218.411 176.037C217.914 174.634 217.328 173.272 216.66 171.96C216.206 171.068 215.146 170.637 214.221 171.013C210.918 172.364 206.989 171.695 204.309 169.003C201.676 166.358 200.991 162.504 202.243 159.224C202.6 158.286 202.157 157.227 201.257 156.787C199.932 156.139 198.559 155.575 197.145 155.102C196.205 154.788 195.156 155.216 194.751 156.124C193.324 159.325 190.132 161.557 186.414 161.557C182.695 161.557 179.503 159.325 178.076 156.124C177.671 155.216 176.622 154.788 175.683 155.102C174.268 155.576 172.894 156.14 171.57 156.787C170.671 157.227 170.227 158.286 170.584 159.224C171.836 162.504 171.152 166.358 168.518 169.003C165.838 171.695 161.91 172.364 158.606 171.013C157.681 170.636 156.621 171.067 156.167 171.96C155.499 173.272 154.914 174.634 154.416 176.037C154.067 177.026 154.556 178.108 155.518 178.516C158.801 179.91 161.104 183.174 161.104 186.98C161.104 190.883 158.679 194.209 155.262 195.538C154.289 195.916 153.774 196.988 154.096 197.985C154.556 199.412 155.11 200.798 155.746 202.136C156.198 203.088 157.33 203.526 158.287 203.09C161.653 201.557 165.75 202.175 168.517 204.955C171.32 207.771 171.916 211.955 170.317 215.36C169.861 216.33 170.246 217.489 171.2 217.97C172.526 218.639 173.902 219.223 175.321 219.716C176.342 220.07 177.447 219.519 177.81 218.497C179.072 214.945 182.444 212.402 186.413 212.402C190.381 212.402 193.753 214.945 195.015 218.497C195.378 219.519 196.483 220.07 197.504 219.716C198.923 219.224 200.299 218.639 201.626 217.97C202.58 217.489 202.964 216.33 202.508 215.36C200.909 211.955 201.505 207.771 204.308 204.955C207.075 202.175 211.172 201.557 214.538 203.09C215.494 203.525 216.627 203.088 217.08 202.136C217.716 200.799 218.269 199.413 218.729 197.985C219.054 196.988 218.539 195.916 217.565 195.538ZM186.416 196.656C181.365 196.656 177.272 192.544 177.272 187.472C177.272 182.399 181.366 178.287 186.416 178.287C191.465 178.287 195.559 182.4 195.559 187.472C195.559 192.544 191.466 196.656 186.416 196.656Z" fill="#85B7FE"/>
<path d="M186.416 201.085C178.943 201.085 172.864 194.978 172.864 187.472C172.864 187.2 173.084 186.98 173.354 186.98C173.624 186.98 173.844 187.2 173.844 187.472C173.844 194.435 179.484 200.101 186.416 200.101C193.348 200.101 198.988 194.435 198.988 187.472C198.988 180.507 193.348 174.842 186.416 174.842C186.145 174.842 185.926 174.621 185.926 174.349C185.926 174.078 186.145 173.857 186.416 173.857C193.889 173.857 199.967 179.965 199.967 187.472C199.967 194.978 193.889 201.085 186.416 201.085Z" fill="#3C4043"/>
<path d="M255.162 227.027C252.633 226.043 250.839 223.581 250.839 220.693C250.839 217.877 252.543 215.461 254.972 214.43C255.684 214.128 256.048 213.326 255.788 212.595C255.421 211.557 254.987 210.549 254.493 209.578C254.156 208.917 253.372 208.598 252.687 208.877C250.243 209.877 247.335 209.382 245.352 207.389C243.403 205.432 242.896 202.58 243.823 200.152C244.087 199.458 243.759 198.675 243.093 198.349C242.112 197.869 241.097 197.452 240.05 197.102C239.355 196.87 238.578 197.186 238.279 197.858C237.222 200.227 234.86 201.879 232.108 201.879C229.356 201.879 226.994 200.227 225.938 197.858C225.638 197.186 224.862 196.87 224.166 197.102C223.12 197.452 222.103 197.87 221.123 198.349C220.457 198.675 220.129 199.458 220.394 200.152C221.32 202.58 220.813 205.432 218.865 207.389C216.881 209.382 213.974 209.877 211.529 208.877C210.845 208.598 210.06 208.917 209.724 209.578C209.229 210.549 208.796 211.557 208.428 212.595C208.169 213.327 208.532 214.128 209.244 214.43C211.673 215.461 213.378 217.877 213.378 220.693C213.378 223.582 211.583 226.043 209.054 227.027C208.334 227.307 207.953 228.1 208.191 228.838C208.532 229.894 208.941 230.919 209.412 231.91C209.747 232.614 210.584 232.938 211.293 232.616C213.784 231.482 216.816 231.939 218.864 233.996C220.938 236.08 221.379 239.177 220.196 241.697C219.859 242.414 220.143 243.272 220.849 243.628C221.831 244.123 222.848 244.555 223.899 244.92C224.654 245.182 225.472 244.775 225.741 244.018C226.675 241.389 229.17 239.508 232.107 239.508C235.044 239.508 237.54 241.389 238.474 244.018C238.743 244.775 239.56 245.182 240.316 244.92C241.366 244.556 242.384 244.123 243.366 243.628C244.072 243.272 244.356 242.414 244.019 241.697C242.836 239.177 243.277 236.08 245.351 233.996C247.399 231.939 250.431 231.482 252.922 232.616C253.63 232.938 254.468 232.614 254.803 231.91C255.274 230.92 255.683 229.895 256.024 228.838C256.264 228.1 255.883 227.307 255.162 227.027ZM232.11 227.855C228.372 227.855 225.343 224.811 225.343 221.057C225.343 217.303 228.373 214.26 232.11 214.26C235.846 214.26 238.876 217.304 238.876 221.057C238.876 224.811 235.847 227.855 232.11 227.855Z" fill="#FFBCA5"/>
<path d="M147.251 184.641C146.693 184.954 146.07 185.133 145.431 185.163C144.793 185.194 144.155 185.076 143.57 184.819L138.823 182.601L134.121 184.021C133.098 184.326 131.995 184.213 131.055 183.706C130.114 183.198 129.415 182.338 129.109 181.315C128.803 180.291 128.916 179.188 129.423 178.248C129.931 177.308 130.791 176.608 131.814 176.302L137.936 174.483C138.877 174.2 139.89 174.279 140.775 174.705L146.896 177.588C147.377 177.805 147.81 178.117 148.167 178.505C148.525 178.893 148.802 179.348 148.98 179.845C149.158 180.342 149.234 180.869 149.204 181.396C149.174 181.923 149.038 182.438 148.804 182.911C148.503 183.65 147.954 184.262 147.252 184.641H147.251Z" fill="#E7F1FF"/>
<path d="M145.257 185.663C144.6 185.659 143.951 185.523 143.349 185.264L138.78 183.135L134.3 184.466C133.732 184.638 133.135 184.696 132.545 184.637C131.954 184.579 131.381 184.404 130.858 184.124C130.335 183.844 129.872 183.464 129.496 183.005C129.12 182.546 128.838 182.017 128.666 181.449C128.494 180.881 128.436 180.285 128.494 179.694C128.553 179.104 128.727 178.531 129.007 178.008C129.287 177.484 129.668 177.022 130.127 176.646C130.586 176.269 131.114 175.987 131.682 175.815L137.804 173.997C138.861 173.692 139.993 173.77 140.998 174.218L147.164 177.102C148.242 177.612 149.075 178.528 149.482 179.649C149.889 180.771 149.837 182.007 149.337 183.091C148.94 183.946 148.289 184.658 147.473 185.131C147.429 185.175 147.429 185.175 147.386 185.175C146.718 185.483 145.993 185.65 145.257 185.663ZM138.78 182.115C138.842 182.108 138.905 182.123 138.957 182.158L143.704 184.376C144.214 184.618 144.776 184.732 145.34 184.709C145.904 184.686 146.454 184.526 146.942 184.243C146.986 184.2 146.986 184.2 147.029 184.2C147.64 183.841 148.122 183.297 148.405 182.648C148.803 181.8 148.849 180.83 148.533 179.948C148.217 179.067 147.565 178.347 146.719 177.945L140.553 175.062C139.77 174.718 138.892 174.655 138.069 174.885L131.947 176.703C131.049 176.969 130.293 177.581 129.846 178.404C129.398 179.226 129.295 180.193 129.559 181.092C129.823 181.99 130.433 182.747 131.255 183.197C132.076 183.647 133.043 183.752 133.942 183.49L138.644 182.071C138.662 182.088 138.684 182.1 138.707 182.108C138.731 182.115 138.756 182.117 138.78 182.113L138.78 182.115Z" fill="#3C4043"/>
<path d="M138.16 210.901C137.42 211.321 136.567 211.496 135.722 211.4C134.877 211.304 134.084 210.943 133.457 210.369L126.537 204.07C126.284 203.861 126.073 203.605 125.916 203.316L119.928 194.4C119.345 193.511 119.137 192.429 119.348 191.388C119.56 190.347 120.174 189.431 121.057 188.84C121.94 188.25 123.021 188.032 124.064 188.234C125.107 188.436 126.028 189.042 126.626 189.919L132.35 198.436L138.915 204.425C139.307 204.779 139.625 205.208 139.85 205.686C140.076 206.163 140.204 206.681 140.229 207.208C140.254 207.736 140.174 208.263 139.994 208.76C139.815 209.257 139.538 209.713 139.182 210.103C138.894 210.43 138.548 210.7 138.161 210.901H138.16Z" fill="#E7F1FF"/>
<path d="M136.164 211.922C135.041 211.928 133.96 211.499 133.147 210.724L126.227 204.425C125.955 204.177 125.716 203.893 125.517 203.582L119.529 194.666C118.867 193.675 118.622 192.464 118.846 191.293C119.07 190.123 119.746 189.088 120.726 188.412C121.217 188.084 121.767 187.857 122.345 187.743C122.923 187.629 123.519 187.63 124.096 187.746C124.682 187.849 125.241 188.072 125.737 188.4C126.233 188.728 126.656 189.155 126.98 189.654L132.66 198.127L139.181 204.071C139.62 204.467 139.975 204.946 140.227 205.481C140.478 206.016 140.621 206.596 140.645 207.187C140.67 207.777 140.577 208.367 140.371 208.921C140.166 209.475 139.851 209.983 139.447 210.414C139.154 210.731 138.827 211.013 138.471 211.257C138.428 211.3 138.428 211.3 138.384 211.3C137.712 211.701 136.946 211.915 136.164 211.922ZM123.255 188.633C122.553 188.614 121.866 188.833 121.304 189.255C120.535 189.789 120.003 190.6 119.821 191.519C119.639 192.438 119.821 193.391 120.328 194.178L126.317 203.095C126.485 203.322 126.679 203.53 126.893 203.716L133.813 210.015C134.358 210.493 135.032 210.8 135.751 210.894C136.47 210.989 137.2 210.868 137.85 210.547C137.894 210.504 137.894 210.504 137.939 210.504C138.274 210.32 138.574 210.08 138.826 209.794C139.458 209.098 139.789 208.181 139.747 207.242C139.705 206.303 139.295 205.419 138.604 204.781L131.995 198.837C131.951 198.794 131.951 198.794 131.951 198.751L126.228 190.234C125.696 189.458 124.886 188.918 123.965 188.725C123.736 188.654 123.495 188.622 123.255 188.633Z" fill="#3C4043"/>
<path d="M144.991 206.466C144.425 206.782 143.792 206.959 143.144 206.982C142.496 207.005 141.852 206.874 141.265 206.599L131.771 202.075C131.149 201.77 130.615 201.312 130.219 200.744L125.517 194.045C124.891 193.18 124.634 192.103 124.802 191.049C124.97 189.995 125.549 189.05 126.411 188.422C127.274 187.794 128.351 187.534 129.405 187.698C130.46 187.863 131.406 188.438 132.037 189.299C132.081 189.342 132.081 189.342 132.081 189.386L136.161 195.24L144.678 199.321C145.635 199.788 146.371 200.612 146.728 201.615C147.085 202.619 147.034 203.722 146.586 204.688C146.256 205.435 145.698 206.057 144.991 206.466Z" fill="#E7F1FF"/>
<path d="M142.995 207.442C142.335 207.432 141.684 207.281 141.087 206.998L131.595 202.474C130.889 202.163 130.288 201.655 129.865 201.01L125.163 194.312C124.469 193.339 124.186 192.132 124.377 190.952C124.568 189.773 125.217 188.716 126.183 188.013C126.66 187.665 127.2 187.416 127.774 187.28C128.347 187.143 128.942 187.122 129.524 187.216C130.105 187.311 130.663 187.521 131.163 187.833C131.663 188.144 132.096 188.552 132.438 189.033C132.481 189.076 132.481 189.076 132.481 189.12L136.474 194.843L144.902 198.836C145.436 199.088 145.915 199.443 146.311 199.881C146.707 200.319 147.013 200.831 147.211 201.388C147.409 201.944 147.495 202.534 147.464 203.124C147.433 203.714 147.286 204.291 147.031 204.824C146.646 205.651 146.01 206.334 145.212 206.775C144.566 207.234 143.787 207.468 142.995 207.442ZM128.8 188.146C128.065 188.135 127.347 188.369 126.76 188.812C126.014 189.368 125.513 190.193 125.364 191.112C125.216 192.031 125.43 192.972 125.961 193.735L130.663 200.434C131.012 200.933 131.486 201.331 132.038 201.587L141.531 206.112C142.047 206.364 142.616 206.484 143.19 206.461C143.763 206.438 144.321 206.272 144.814 205.978C145.44 205.611 145.948 205.073 146.278 204.426C146.48 204.007 146.597 203.553 146.622 203.088C146.646 202.624 146.578 202.159 146.421 201.722C146.264 201.284 146.022 200.882 145.708 200.539C145.394 200.196 145.015 199.919 144.592 199.724L136.075 195.643C136.032 195.6 135.942 195.556 135.898 195.466L131.815 189.609C131.772 189.565 131.772 189.565 131.772 189.522C131.503 189.142 131.16 188.821 130.763 188.577C130.367 188.333 129.925 188.172 129.465 188.103C129.245 188.135 129.023 188.149 128.8 188.146V188.146Z" fill="#3C4043"/>
<path d="M150.625 200.078C150.114 200.358 149.551 200.53 148.971 200.583C148.391 200.636 147.807 200.57 147.253 200.389L137.361 196.752C136.712 196.493 136.133 196.082 135.675 195.554L130.397 189.343C130.063 188.935 129.814 188.463 129.665 187.957C129.515 187.452 129.468 186.921 129.526 186.396C129.584 185.872 129.745 185.364 130.001 184.903C130.258 184.442 130.603 184.036 131.017 183.71C131.825 183.064 132.848 182.75 133.878 182.833C134.908 182.915 135.868 183.388 136.563 184.153L141.131 189.565L150.004 192.848C150.723 193.106 151.353 193.565 151.819 194.17C152.286 194.776 152.568 195.502 152.634 196.264C152.699 197.025 152.544 197.789 152.188 198.466C151.832 199.142 151.289 199.702 150.625 200.078Z" fill="#E7F1FF"/>
<path d="M148.674 201.056C148.14 201.065 147.61 200.959 147.121 200.746L137.273 197.108C136.544 196.838 135.901 196.379 135.409 195.777L130.131 189.565C129.392 188.65 129.041 187.482 129.153 186.311C129.265 185.14 129.831 184.059 130.729 183.3C131.628 182.54 132.788 182.163 133.961 182.248C135.134 182.333 136.227 182.874 137.007 183.755L141.532 189.123L150.315 192.361C150.869 192.564 151.377 192.875 151.811 193.275C152.244 193.675 152.595 194.157 152.842 194.692C153.089 195.228 153.228 195.807 153.251 196.397C153.275 196.986 153.181 197.575 152.977 198.128C152.584 199.118 151.885 199.958 150.982 200.523C150.259 200.863 149.472 201.045 148.674 201.056ZM133.547 183.224C132.739 183.232 131.957 183.514 131.329 184.022C130.967 184.313 130.666 184.672 130.443 185.079C130.22 185.487 130.08 185.934 130.031 186.396C129.981 186.857 130.023 187.324 130.155 187.769C130.286 188.215 130.504 188.63 130.797 188.99L136.076 195.201C136.451 195.679 136.961 196.033 137.539 196.219L147.387 199.857C147.869 200.044 148.388 200.118 148.904 200.072C149.419 200.026 149.917 199.861 150.359 199.591C151.099 199.195 151.656 198.526 151.912 197.726C152.232 196.849 152.192 195.882 151.802 195.034C151.411 194.186 150.701 193.527 149.826 193.201L140.955 189.919C140.911 189.875 140.777 189.875 140.777 189.786L136.209 184.375C135.867 184.012 135.454 183.722 134.997 183.524C134.539 183.326 134.046 183.223 133.547 183.222V183.224Z" fill="#3C4043"/>
<path d="M124.142 196.486C131.296 196.486 137.095 190.686 137.095 183.533C137.095 176.379 131.296 170.58 124.142 170.58C116.988 170.58 111.189 176.379 111.189 183.533C111.189 190.686 116.988 196.486 124.142 196.486Z" fill="#3C4043" stroke="#3C4043" stroke-width="3" stroke-linecap="round" stroke-linejoin="round"/>
<path d="M131.062 107.5L114.738 142.057L130.929 165.035C132.227 166.826 133.159 168.855 133.671 171.006C134.184 173.157 134.268 175.389 133.917 177.572C133.567 179.756 132.79 181.849 131.63 183.732C130.469 185.615 128.95 187.25 127.157 188.545C126.625 188.9 126.136 189.255 125.604 189.566C121.996 191.606 117.761 192.246 113.711 191.362C109.66 190.478 106.077 188.133 103.646 184.775L85.3703 158.957L81.6022 153.679C79.837 151.242 78.7577 148.376 78.4768 145.38C78.1959 142.384 78.7237 139.367 80.0052 136.645L81.9998 132.386L100.542 93.0393C101.486 91.0263 102.818 89.2195 104.462 87.7226C106.106 86.2258 108.029 85.0682 110.121 84.3165C112.214 83.5647 114.434 83.2336 116.654 83.342C118.875 83.4504 121.052 83.9963 123.061 84.9483C125.071 85.9002 126.872 87.2396 128.362 88.8895C129.852 90.5394 131.002 92.4673 131.745 94.5627C132.489 96.658 132.811 98.8795 132.694 101.1C132.576 103.32 132.022 105.495 131.061 107.5H131.062Z" fill="#07377F"/>
<path d="M89.6749 139.129C91.5298 142.394 92.1209 146.226 91.3358 149.898C90.5507 153.57 88.4441 156.825 85.4163 159.046L81.6456 153.767C79.8804 151.33 78.8011 148.464 78.5202 145.468C78.2394 142.472 78.7672 139.456 80.0486 136.733L82.0433 132.475C85.2602 133.776 87.9475 136.119 89.6749 139.129Z" fill="#E7F1FF"/>
<path d="M85.3722 159.49H85.3288C85.2119 159.458 85.105 159.397 85.0183 159.312L81.2459 154.033C79.4284 151.519 78.3176 148.563 78.0289 145.474C77.7403 142.385 78.2844 139.275 79.6047 136.467L81.5993 132.209C81.6606 132.104 81.754 132.021 81.8658 131.973C81.9776 131.925 82.1019 131.914 82.2202 131.943C85.5393 133.277 88.318 135.681 90.1163 138.774C92.0186 142.143 92.6221 146.092 91.8131 149.875C91.0041 153.659 88.8384 157.016 85.7247 159.312C85.6829 159.366 85.6295 159.41 85.5685 159.441C85.5075 159.472 85.4404 159.488 85.3722 159.49ZM82.2671 133.096L80.4481 136.912C79.2009 139.556 78.687 142.486 78.9602 145.397C79.2333 148.308 80.2835 151.092 82.0008 153.458L85.5049 158.292C88.2969 156.099 90.212 152.979 90.9035 149.497C91.595 146.014 91.0174 142.4 89.2751 139.306C87.641 136.558 85.1915 134.388 82.2671 133.096Z" fill="#3C4043"/>
<path d="M91.5383 144.939C91.4226 144.942 91.3096 144.904 91.2201 144.83C91.1305 144.757 91.0703 144.654 91.0505 144.54C91.0409 144.479 91.0437 144.416 91.0587 144.356C91.0737 144.296 91.1006 144.239 91.1378 144.19C91.1749 144.14 91.2217 144.098 91.2752 144.067C91.3287 144.036 91.3879 144.016 91.4494 144.008L114.738 141.612C114.861 141.596 114.985 141.63 115.084 141.704C115.182 141.779 115.247 141.89 115.265 142.012C115.282 142.135 115.251 142.259 115.177 142.359C115.104 142.458 114.994 142.525 114.871 142.544L91.5383 144.939Z" fill="#3C4043"/>
<path d="M157.514 198.029L157.514 198.029C159.975 195.056 161.375 191.348 161.492 187.49C161.609 183.633 160.437 179.846 158.161 176.73L158.16 176.728L130.835 139.023L130.834 139.023L126.177 132.591L126.131 132.528L126.115 132.478C126.111 132.473 126.105 132.466 126.096 132.456C126.09 132.449 126.083 132.442 126.075 132.433L126.067 132.423C126.055 132.411 126.041 132.395 126.026 132.377C126.005 132.352 125.971 132.311 125.939 132.258C124.593 130.411 122.896 128.848 120.945 127.657C118.986 126.462 116.81 125.666 114.542 125.315C112.274 124.965 109.959 125.066 107.731 125.614C105.503 126.163 103.405 127.146 101.558 128.509C99.7118 129.872 98.1533 131.586 96.9726 133.554C95.7919 135.522 95.0124 137.704 94.6789 139.975C94.3454 142.245 94.4645 144.559 95.0295 146.783C95.5945 149.007 96.594 151.098 97.9706 152.934L97.9757 152.941L97.9757 152.941L108.533 167.535L108.533 167.535L121.841 185.944L122.068 186.258L121.821 186.556L91.1246 223.64L157.514 198.029ZM157.514 198.029L117.99 245.805L117.989 245.805M157.514 198.029L117.989 245.805M117.989 245.805C116.654 247.424 115.033 248.783 113.206 249.813L113.206 249.813M117.989 245.805L113.206 249.813M113.206 249.813L113.198 249.818M113.206 249.813L113.198 249.818M113.198 249.818C112.172 250.42 111.078 250.895 109.938 251.233L109.938 251.233M113.198 249.818L109.938 251.233M109.938 251.233L109.925 251.237M109.938 251.233L109.925 251.237M109.925 251.237C107.139 252.143 104.17 252.334 101.291 251.791C98.4152 251.249 95.7214 249.993 93.4578 248.137L93.3958 248.083C93.0675 247.796 92.7396 247.509 92.4492 247.26M109.925 251.237L92.4492 247.26M92.4492 247.26C91.3032 246.176 90.3201 244.932 89.5307 243.566L89.5291 243.563C87.7215 240.479 86.9051 236.914 87.1904 233.35C87.4758 229.787 88.849 226.397 91.1242 223.64L92.4492 247.26Z" fill="white" stroke="#3C4043"/>
<path d="M110.08 251.757C107.215 252.689 104.16 252.886 101.199 252.327C98.2379 251.769 95.4647 250.475 93.135 248.563C92.7799 248.253 92.4252 247.942 92.1147 247.676C96.4175 247.898 104.358 248.83 110.08 251.757Z" fill="#07377F"/>
<path d="M147.697 200.655C155.537 200.655 161.892 194.3 161.892 186.46C161.892 178.62 155.537 172.265 147.697 172.265C139.857 172.265 133.502 178.62 133.502 186.46C133.502 194.3 139.857 200.655 147.697 200.655Z" fill="#FFF1ED"/>
<path d="M133.502 186.948L121.436 186.682C121.309 186.678 121.189 186.625 121.1 186.534C121.012 186.443 120.962 186.321 120.962 186.194C120.962 186.067 121.012 185.945 121.1 185.854C121.189 185.763 121.309 185.71 121.436 185.706L133.502 185.972C133.631 185.973 133.755 186.025 133.846 186.116C133.937 186.208 133.989 186.331 133.99 186.46C133.993 186.525 133.983 186.59 133.959 186.651C133.936 186.711 133.9 186.766 133.854 186.812C133.808 186.858 133.753 186.894 133.692 186.918C133.632 186.941 133.567 186.951 133.502 186.948Z" fill="#3C4043"/>
<path d="M93.0024 253.144H119.04C120.427 253.149 121.799 253.437 123.071 253.989C124.343 254.542 125.49 255.348 126.44 256.358L133.146 263.5H83.5317C83.756 257.994 87.6643 253.144 93.0024 253.144Z" fill="#E7F1FF" stroke="#3C4043"/>
<path d="M64.2145 71.5247H84.9304C87.9716 71.5232 90.9832 72.1211 93.7932 73.2842C96.6032 74.4473 99.1563 76.1529 101.307 78.3033C103.457 80.4537 105.163 83.0069 106.326 85.8169C107.489 88.6268 108.087 91.6385 108.085 94.6796V133.938C108.087 136.979 107.489 139.991 106.326 142.8C105.163 145.61 103.457 148.164 101.307 150.314C99.1563 152.464 96.6032 154.17 93.7932 155.333C90.9832 156.496 87.9716 157.094 84.9304 157.093H64.2145C61.1734 157.094 58.1618 156.496 55.3518 155.333C52.5419 154.17 49.9887 152.464 47.8383 150.314C45.6879 148.163 43.9824 145.61 42.8192 142.8C41.6561 139.99 41.0581 136.979 41.0596 133.938V94.6801C41.0641 88.5403 43.505 82.6533 47.8464 78.3118C52.1878 73.9703 58.0748 71.5293 64.2145 71.5247Z" fill="#3C4043"/>
<path d="M85.1884 82.558L89.0166 64.2175H115.853L112.025 82.558H85.1884Z" fill="#FFF1ED" stroke="#3C4043"/>
<path d="M125.995 92.9023C126.731 94.6777 127.121 96.5762 127.146 98.4964V98.717V134.958C127.146 134.958 127.146 134.958 127.146 134.958C127.146 136.947 126.753 138.915 125.991 140.752C125.228 142.588 124.111 144.256 122.703 145.66C121.295 147.064 119.624 148.176 117.785 148.934C115.947 149.691 113.977 150.078 111.989 150.073H111.987H75.7919C71.7801 150.069 67.9332 148.476 65.0924 145.643C62.2518 142.811 60.6482 138.969 60.6323 134.957L60.6323 98.717L60.6323 98.7166C60.6293 94.7028 62.2195 90.8519 65.0536 88.0097C67.8876 85.1676 71.7337 83.5665 75.7473 83.5579L111.944 83.5579L111.946 83.5579C113.941 83.5495 115.918 83.9356 117.764 84.6939C119.609 85.4522 121.286 86.5677 122.699 87.9764C124.112 89.3851 125.232 91.0592 125.995 92.9023Z" fill="white" stroke="#3C4043"/>
<path d="M95.9299 98.7168V134.958C95.9305 137.009 95.527 139.04 94.7425 140.934C93.958 142.829 92.8079 144.551 91.3579 146.001C89.9078 147.451 88.1863 148.601 86.2916 149.385C84.3969 150.17 82.3662 150.573 80.3155 150.573H75.8354C71.6892 150.576 67.7111 148.933 64.7751 146.006C61.8392 143.078 60.1853 139.104 60.1768 134.958V98.7168C60.1735 94.5705 61.8162 90.5925 64.7439 87.6564C67.6715 84.7203 71.6449 83.0664 75.7912 83.0577H80.2713C82.3278 83.0574 84.3642 83.4622 86.2642 84.249C88.1642 85.0358 89.8905 86.1893 91.3447 87.6434C92.7988 89.0976 93.9523 90.8239 94.7391 92.7239C95.5259 94.624 95.9307 96.6603 95.9304 98.7168H95.9299Z" fill="#07377F"/>
<path d="M100.188 19.9789H135.809C140.444 19.9804 144.888 21.8222 148.166 25.0996C151.443 28.377 153.285 32.8216 153.286 37.4565V59.3258C153.285 63.9608 151.443 68.4054 148.166 71.6828C144.888 74.9601 140.444 76.802 135.809 76.8035H100.188C95.5532 76.802 91.1086 74.9601 87.8312 71.6828C84.5538 68.4054 82.7119 63.9608 82.7104 59.3258V37.4565C82.7194 32.8239 84.5636 28.3836 87.8394 25.1078C91.1152 21.8321 95.5555 19.9878 100.188 19.9789V19.9789Z" fill="#85B7FE"/>
<path d="M100.189 77.3361C97.7134 77.3361 95.265 76.8238 92.9976 75.8312C90.7301 74.8387 88.6927 73.3875 87.0136 71.569C86.9728 71.5224 86.9416 71.4682 86.9218 71.4095C86.902 71.3509 86.8939 71.2889 86.898 71.2271C86.9064 71.1023 86.9639 70.986 87.058 70.9036C87.1522 70.8213 87.2752 70.7797 87.3999 70.788C87.5247 70.7964 87.6411 70.8539 87.7234 70.9481C89.3129 72.6676 91.2407 74.0399 93.3858 74.9788C95.5309 75.9178 97.8469 76.4031 100.189 76.4042H113.807C113.872 76.4023 113.937 76.4135 113.998 76.4371C114.059 76.4608 114.114 76.4964 114.161 76.5419C114.208 76.5874 114.245 76.6419 114.271 76.7021C114.296 76.7622 114.309 76.8269 114.309 76.8923C114.309 76.9576 114.296 77.0223 114.271 77.0825C114.245 77.1426 114.208 77.1971 114.161 77.2426C114.114 77.2881 114.059 77.3238 113.998 77.3474C113.937 77.3711 113.872 77.3822 113.807 77.3803H100.189V77.3361Z" fill="#3C4043"/>
<path d="M113.851 37.1904H140.779C142.92 37.1908 144.973 38.0415 146.487 39.5555C148.001 41.0695 148.852 43.1228 148.852 45.2639V51.6961C148.852 53.8372 148.001 55.8905 146.487 57.4045C144.973 58.9185 142.92 59.7692 140.779 59.7696H113.851C111.71 59.7693 109.657 58.9187 108.143 57.4046C106.629 55.8906 105.778 53.8372 105.778 51.6961V45.2639C105.785 43.125 106.639 41.076 108.151 39.5635C109.663 38.0511 111.712 37.1981 113.851 37.1904Z" fill="#E7F1FF"/>
<path d="M140.777 60.168H113.849C111.591 60.1671 109.425 59.2694 107.828 57.6723C106.231 56.0752 105.334 53.9094 105.333 51.651V45.2192C105.334 42.9605 106.232 40.7945 107.829 39.1974C109.426 37.6002 111.592 36.7027 113.851 36.7021H140.778C143.036 36.7031 145.202 37.6007 146.799 39.1978C148.396 40.7949 149.293 42.9607 149.294 45.2192V51.651C149.293 53.9097 148.396 56.0757 146.798 57.6728C145.201 59.2699 143.035 60.1674 140.777 60.168ZM113.849 37.6335C111.84 37.6405 109.914 38.442 108.494 39.8631C107.073 41.2842 106.272 43.2096 106.265 45.2192V51.651C106.272 53.6608 107.073 55.5864 108.494 57.0075C109.915 58.4287 111.841 59.23 113.851 59.2366H140.778C142.788 59.23 144.713 58.4286 146.134 57.0075C147.555 55.5863 148.357 53.6607 148.363 51.651V45.2192C148.357 43.2094 147.555 41.2838 146.134 39.8627C144.713 38.4415 142.788 37.6402 140.778 37.6335H113.849Z" fill="#0D6EFD"/>
<path d="M116.024 43.4452H116.068C116.383 43.4438 116.695 43.5049 116.986 43.6247C117.277 43.7446 117.542 43.921 117.764 44.1437C117.987 44.3664 118.163 44.631 118.283 44.9222C118.403 45.2135 118.464 45.5256 118.463 45.8405V51.0751C118.464 51.39 118.403 51.7021 118.283 51.9933C118.163 52.2846 117.987 52.5492 117.764 52.7719C117.542 52.9946 117.277 53.1709 116.986 53.2908C116.695 53.4107 116.383 53.4717 116.068 53.4704H116.024C115.709 53.4717 115.397 53.4107 115.106 53.2908C114.815 53.1709 114.55 52.9946 114.327 52.7719C114.105 52.5492 113.928 52.2846 113.808 51.9933C113.689 51.7021 113.628 51.39 113.629 51.0751V45.8405C113.628 45.5256 113.689 45.2135 113.808 44.9222C113.928 44.631 114.105 44.3664 114.327 44.1437C114.55 43.921 114.815 43.7446 115.106 43.6247C115.397 43.5049 115.709 43.4438 116.024 43.4452Z" fill="#E7F1FF"/>
<path d="M116.113 53.9138H116.07C115.307 53.9081 114.576 53.6025 114.037 53.063C113.497 52.5234 113.192 51.7933 113.186 51.0303V45.7961C113.192 45.0331 113.497 44.303 114.037 43.7634C114.576 43.2239 115.307 42.9183 116.07 42.9126H116.113C116.876 42.9183 117.606 43.2239 118.146 43.7634C118.685 44.303 118.991 45.0331 118.996 45.7961V51.0303C118.991 51.7933 118.685 52.5234 118.146 53.063C117.606 53.6025 116.876 53.9081 116.113 53.9138ZM116.024 43.9329C115.519 43.9365 115.036 44.1387 114.679 44.4957C114.322 44.8527 114.12 45.3359 114.116 45.8408V51.0749C114.12 51.5798 114.322 52.0629 114.679 52.4199C115.036 52.7769 115.519 52.9791 116.024 52.9828H116.067C116.572 52.9792 117.055 52.777 117.412 52.42C117.769 52.063 117.972 51.5798 117.975 51.0749V45.8404C117.972 45.3355 117.769 44.8523 117.412 44.4953C117.055 44.1383 116.572 43.9361 116.067 43.9325L116.024 43.9329Z" fill="#3C4043"/>
<path d="M141.664 43.4452H141.708C142.023 43.4438 142.335 43.5049 142.626 43.6247C142.917 43.7446 143.182 43.921 143.405 44.1437C143.627 44.3664 143.804 44.631 143.923 44.9222C144.043 45.2135 144.104 45.5256 144.103 45.8405V51.0751C144.104 51.39 144.043 51.7021 143.923 51.9933C143.804 52.2846 143.627 52.5492 143.405 52.7719C143.182 52.9946 142.917 53.1709 142.626 53.2908C142.335 53.4107 142.023 53.4717 141.708 53.4704H141.664C141.349 53.4717 141.037 53.4107 140.746 53.2908C140.455 53.1709 140.19 52.9946 139.968 52.7719C139.745 52.5492 139.568 52.2846 139.449 51.9933C139.329 51.7021 139.268 51.39 139.269 51.0751V45.8405C139.268 45.5256 139.329 45.2135 139.449 44.9222C139.568 44.631 139.745 44.3664 139.968 44.1437C140.19 43.921 140.455 43.7446 140.746 43.6247C141.037 43.5049 141.349 43.4438 141.664 43.4452Z" fill="#E7F1FF"/>
<path d="M141.753 53.9138H141.709C140.946 53.908 140.216 53.6024 139.677 53.0628C139.137 52.5233 138.832 51.7932 138.826 51.0303V45.7961C138.832 45.0332 139.137 44.3031 139.677 43.7636C140.216 43.2241 140.946 42.9184 141.709 42.9126H141.753C142.516 42.9183 143.246 43.2239 143.785 43.7634C144.325 44.303 144.63 45.0331 144.636 45.7961V51.0303C144.623 51.7909 144.315 52.5166 143.777 53.0545C143.239 53.5924 142.513 53.9004 141.753 53.9138ZM141.666 43.9329C141.161 43.9365 140.678 44.1387 140.321 44.4957C139.964 44.8527 139.762 45.3359 139.758 45.8408V51.0749C139.762 51.5798 139.964 52.063 140.321 52.42C140.678 52.777 141.161 52.9792 141.666 52.9828H141.709C142.214 52.9792 142.697 52.777 143.054 52.42C143.411 52.063 143.614 51.5798 143.617 51.0749V45.8404C143.614 45.3355 143.411 44.8523 143.054 44.4953C142.697 44.1383 142.214 43.9361 141.709 43.9325L141.666 43.9329Z" fill="#3C4043"/>
<path d="M128.756 52.2726C128.254 52.2764 127.756 52.1803 127.291 51.9899C126.826 51.7994 126.404 51.5185 126.049 51.1634C125.694 50.8083 125.413 50.3862 125.223 49.9215C125.032 49.4568 124.936 48.9589 124.94 48.4568C124.941 48.3277 124.993 48.2042 125.084 48.1129C125.175 48.0216 125.299 47.9698 125.428 47.9685C125.557 47.9696 125.681 48.0214 125.772 48.1128C125.863 48.2041 125.915 48.3276 125.916 48.4568C125.921 49.2081 126.222 49.9271 126.753 50.4584C127.285 50.9896 128.004 51.2904 128.755 51.2956C129.506 51.2904 130.225 50.9896 130.757 50.4584C131.288 49.9271 131.589 49.2081 131.594 48.4568C131.595 48.3276 131.647 48.2041 131.738 48.1128C131.829 48.0214 131.953 47.9696 132.082 47.9685C132.211 47.9696 132.335 48.0215 132.426 48.1128C132.517 48.2041 132.569 48.3277 132.57 48.4568C132.57 49.4685 132.168 50.4388 131.453 51.1543C130.738 51.8699 129.768 52.2721 128.756 52.2726Z" fill="#3C4043"/>
<path d="M55.786 248.019L55.9244 248.133C59.4845 251.064 64.0613 252.465 68.6524 252.029C73.2432 251.592 77.4739 249.354 80.4178 245.805L55.786 248.019ZM55.786 248.019H55.7326M55.786 248.019H55.7326M55.7326 248.019C55.6512 247.952 55.5708 247.879 55.4795 247.795L55.4719 247.788C55.3516 247.678 55.2109 247.549 55.046 247.427L54.8965 247.278L54.8966 247.278L54.8903 247.272C51.7344 244.224 49.844 240.098 49.5962 235.718C49.3484 231.338 50.7614 227.025 53.5531 223.641L55.7326 248.019ZM119.941 198.031L80.4182 245.804L53.5537 223.64L84.2499 186.557L84.4965 186.259L84.2702 185.945L60.4483 152.942L60.4478 152.941C57.9586 149.505 56.8086 145.279 57.2137 141.055C57.6188 136.831 59.5512 132.901 62.6482 130L62.6482 130L62.6547 129.994C63.1708 129.493 63.7279 129.035 64.3203 128.627L64.3203 128.627L64.3295 128.621C68.071 125.914 72.7333 124.803 77.2933 125.531C81.853 126.258 85.9378 128.765 88.6511 132.502C88.6512 132.502 88.6513 132.502 88.6514 132.502L120.633 176.681C120.633 176.682 120.634 176.682 120.634 176.683C122.884 179.821 124.035 183.614 123.91 187.473C123.785 191.333 122.39 195.044 119.941 198.03C119.941 198.03 119.941 198.031 119.941 198.031Z" fill="white" stroke="#3C4043"/>
<path d="M72.5966 251.757C69.7247 252.698 66.6618 252.899 63.6917 252.341C60.7217 251.782 57.9407 250.483 55.6067 248.563C55.2963 248.342 55.0747 248.076 54.7642 247.853L54.5864 247.676C58.8449 247.898 66.7853 248.83 72.5966 251.757Z" fill="#07377F"/>
<path d="M110.124 200.655C117.964 200.655 124.32 194.3 124.32 186.46C124.32 178.62 117.964 172.265 110.124 172.265C102.285 172.265 95.9292 178.62 95.9292 186.46C95.9292 194.3 102.285 200.655 110.124 200.655Z" fill="#FFF1ED"/>
<path d="M73.6708 157.133C81.5106 157.133 87.866 150.778 87.866 142.938C87.866 135.098 81.5106 128.743 73.6708 128.743C65.831 128.743 59.4756 135.098 59.4756 142.938C59.4756 150.778 65.831 157.133 73.6708 157.133Z" fill="#FFED96"/>
<path d="M95.9294 186.948L83.8636 186.682C83.7983 186.684 83.7333 186.672 83.6724 186.649C83.6115 186.625 83.5559 186.589 83.509 186.544C83.4621 186.498 83.4249 186.444 83.3994 186.384C83.374 186.324 83.3608 186.259 83.3608 186.194C83.3608 186.128 83.374 186.064 83.3994 186.003C83.4249 185.943 83.4621 185.889 83.509 185.843C83.5559 185.798 83.6115 185.762 83.6724 185.738C83.7333 185.715 83.7983 185.704 83.8636 185.706L95.9294 185.972C96.0585 185.973 96.182 186.025 96.2732 186.116C96.3645 186.207 96.4162 186.331 96.4172 186.46C96.4204 186.525 96.41 186.59 96.3866 186.65C96.3633 186.711 96.3274 186.766 96.2815 186.812C96.2355 186.858 96.1804 186.894 96.1198 186.917C96.0592 186.941 95.9943 186.951 95.9294 186.948Z" fill="#3C4043"/>
<path d="M55.4296 253.144H96.5936C97.98 253.153 99.3503 253.443 100.622 253.995C101.894 254.548 103.041 255.351 103.994 256.358C103.994 256.359 103.995 256.359 103.995 256.359L110.7 263.5H45.9589C46.1832 257.994 50.0916 253.144 55.4296 253.144Z" fill="#E7F1FF" stroke="#3C4043"/>
<path d="M58.8979 192.484L58.8954 192.484C58.3387 192.427 57.8042 192.235 57.3387 191.925C56.8731 191.614 56.4905 191.195 56.2242 190.703L56.2242 190.703L56.2201 190.695L53.647 186.126L53.554 185.961L53.3749 185.899L48.7617 184.302L48.7617 184.302L48.7565 184.3C48.3163 184.153 47.9095 183.92 47.5598 183.615C47.2101 183.31 46.9243 182.938 46.7191 182.522C46.5138 182.106 46.3931 181.653 46.3639 181.19C46.3347 180.726 46.3976 180.262 46.549 179.823C46.7004 179.384 46.9373 178.98 47.246 178.633C47.5546 178.287 47.9289 178.005 48.3472 177.804C48.7656 177.602 49.2196 177.486 49.6831 177.462C50.1466 177.437 50.6104 177.505 51.0477 177.66L51.0476 177.66L51.0532 177.662L57.1286 179.746C57.1288 179.747 57.1291 179.747 57.1293 179.747C57.936 180.027 58.6122 180.593 59.0302 181.337C59.0302 181.337 59.0302 181.337 59.0302 181.337L62.3566 187.281L62.3584 187.284C62.5869 187.686 62.733 188.128 62.7884 188.587C62.8438 189.045 62.8072 189.51 62.6809 189.954C62.5545 190.398 62.3409 190.813 62.0525 191.173C61.7642 191.534 61.4068 191.833 61.0014 192.054L61.0014 192.054L60.9973 192.056C60.3584 192.412 59.6251 192.561 58.8979 192.484Z" fill="#FFF1ED" stroke="#3C4043"/>
<path d="M34.9189 208.811L34.9091 208.809L34.8991 208.808C34.1569 208.73 33.459 208.416 32.9074 207.914C32.3557 207.411 31.9791 206.745 31.8324 206.013L31.8325 206.013L31.8312 206.007L29.8825 196.881C29.8354 196.59 29.8093 196.296 29.8043 196.002L30.1587 185.291C30.2341 184.393 30.6507 183.558 31.3231 182.958C31.9984 182.356 32.8798 182.036 33.7843 182.066C34.6889 182.096 35.5471 182.473 36.181 183.119C36.8121 183.763 37.1726 184.623 37.1884 185.524L36.8307 195.803L36.8286 195.863L36.8411 195.923L38.6623 204.573L38.6624 204.573C38.8539 205.479 38.6798 206.424 38.1781 207.202C37.6763 207.98 36.8876 208.529 35.9834 208.728L35.9662 208.732L35.9492 208.737C35.6152 208.836 35.2637 208.861 34.9189 208.811Z" fill="#FFF1ED" stroke="#3C4043"/>
<path d="M43.6787 209.237C43.0295 209.46 42.3331 209.507 41.661 209.372L41.57 209.351C41.018 209.223 40.5044 208.965 40.0714 208.6C39.6393 208.235 39.2999 207.773 39.0807 207.252L35.1798 197.497L35.1798 197.497L35.1774 197.492C34.944 196.929 34.8637 196.314 34.9447 195.71C34.9448 195.71 34.9448 195.709 34.9448 195.709L36.0522 187.641C36.1867 186.722 36.6778 185.892 37.4193 185.333C38.1611 184.773 39.0938 184.528 40.015 184.651C40.93 184.776 41.7582 185.258 42.3181 185.992C42.8781 186.727 43.124 187.654 43.0019 188.569L43.0018 188.57L42.0704 195.623L42.0531 195.754L42.1025 195.876L45.6505 204.657C45.6506 204.658 45.6507 204.658 45.6508 204.658C45.823 205.089 45.9083 205.549 45.9019 206.013C45.8956 206.477 45.7975 206.935 45.6134 207.361C45.4292 207.787 45.1627 208.173 44.829 208.495C44.4978 208.815 44.107 209.068 43.6787 209.237Z" fill="#FFF1ED" stroke="#3C4043"/>
<path d="M38.6615 207.886C38.565 207.884 38.4712 207.854 38.3921 207.798C38.313 207.743 38.2524 207.665 38.2179 207.575L34.3154 197.816C34.0146 197.103 33.9074 196.322 34.0045 195.554L34.8917 188.678C34.9093 188.555 34.9754 188.443 35.0752 188.368C35.1751 188.293 35.3006 188.261 35.4242 188.279C35.5477 188.297 35.6592 188.363 35.7341 188.462C35.809 188.562 35.8412 188.688 35.8235 188.811L34.8917 195.687C34.8115 196.302 34.8878 196.928 35.1137 197.506L39.0162 207.265C39.0589 207.383 39.0552 207.512 39.0057 207.628C38.9563 207.743 38.8649 207.835 38.75 207.886H38.6615Z" fill="#3C4043"/>
<path d="M52.2526 207.386C51.4666 207.691 50.6093 207.761 49.7846 207.589L49.7389 207.578C49.2443 207.455 48.7829 207.225 48.3875 206.903L48.0719 207.291L48.3875 206.903C47.9921 206.581 47.6726 206.176 47.4517 205.717L47.4504 205.714L42.8367 196.266L42.8357 196.264C42.5691 195.724 42.449 195.123 42.4875 194.523L42.4876 194.52L42.9754 186.359L42.9755 186.359L42.9757 186.354C42.9994 185.889 43.1151 185.434 43.3159 185.014C43.5167 184.594 43.7987 184.218 44.1457 183.908C44.4926 183.598 44.8976 183.36 45.3372 183.207C45.7768 183.054 46.2424 182.99 46.7069 183.018C47.1714 183.047 47.6258 183.167 48.0436 183.371C48.4615 183.576 48.8347 183.862 49.1415 184.212C49.4483 184.562 49.6828 184.969 49.8313 185.41L50.3052 185.25L49.8313 185.41C49.9798 185.851 50.0395 186.317 50.0068 186.781L50.0067 186.781L50.0063 186.788L49.607 193.886L49.5996 194.016L49.6571 194.134L53.8268 202.651L53.8269 202.651C54.2393 203.493 54.3033 204.463 54.0047 205.351C53.7086 206.233 53.0796 206.963 52.2526 207.386Z" fill="#FFF1ED" stroke="#3C4043"/>
<path d="M45.8924 204.204C45.8056 204.211 45.7191 204.188 45.6467 204.14C45.5744 204.091 45.5204 204.02 45.4935 203.937L41.9443 196.663C41.5987 195.961 41.4456 195.181 41.5007 194.401L41.989 186.238C41.9927 186.173 42.0096 186.109 42.0386 186.05C42.0676 185.991 42.1082 185.938 42.1579 185.895C42.2075 185.852 42.2653 185.82 42.3278 185.8C42.3903 185.78 42.4562 185.772 42.5216 185.778C42.587 185.784 42.6505 185.803 42.7085 185.834C42.7664 185.864 42.8176 185.907 42.8589 185.958C42.9002 186.009 42.9309 186.067 42.949 186.131C42.9672 186.194 42.9725 186.26 42.9646 186.325L42.4768 194.487C42.4397 195.099 42.562 195.71 42.8319 196.261L46.3806 203.536C46.4137 203.59 46.4342 203.651 46.4408 203.714C46.4473 203.777 46.4396 203.84 46.4183 203.9C46.397 203.96 46.3626 204.014 46.3177 204.058C46.2727 204.103 46.2184 204.137 46.1586 204.157C46.0682 204.16 45.9785 204.176 45.8924 204.204Z" fill="#3C4043"/>
<path d="M39.8592 190.408C47.0128 190.408 52.8121 184.609 52.8121 177.455C52.8121 170.301 47.0128 164.502 39.8592 164.502C32.7055 164.502 26.9062 170.301 26.9062 177.455C26.9062 184.609 32.7055 190.408 39.8592 190.408Z" fill="#FFED96"/>
<path d="M83.3763 114.731L52.1475 136.777L54.8979 164.768C55.3884 169.215 54.0943 173.674 51.2997 177.167C48.5052 180.66 44.4386 182.902 39.9929 183.399C39.3719 183.443 38.751 183.486 38.1283 183.486C33.985 183.48 29.989 181.948 26.904 179.182C23.819 176.416 21.8612 172.611 21.4047 168.492L18.2567 137.043L17.5915 130.611C17.2669 127.621 17.7451 124.598 18.977 121.853C20.2088 119.109 22.1497 116.742 24.6 114.997L28.4158 112.291L63.9478 87.228C67.5422 84.5752 72.0432 83.4588 76.4607 84.1246C80.8781 84.7903 84.8502 87.1836 87.503 90.778C90.1559 94.3724 91.2722 98.8734 90.6065 103.291C89.9407 107.708 87.5474 111.68 83.953 114.333C83.8199 114.42 83.5975 114.598 83.3763 114.731Z" fill="#85B7FE"/>
<path d="M52.1467 137.266C52.0843 137.272 52.0215 137.257 51.9694 137.222L30.5436 127.862C30.485 127.839 30.4314 127.805 30.3861 127.762C30.3408 127.718 30.3047 127.666 30.2799 127.608C30.2551 127.55 30.2421 127.488 30.2417 127.425C30.2413 127.362 30.2534 127.299 30.2774 127.241C30.3312 127.129 30.4237 127.041 30.5379 126.992C30.6521 126.943 30.7801 126.937 30.8983 126.975L52.324 136.335C52.3828 136.358 52.4364 136.392 52.4817 136.436C52.527 136.479 52.5631 136.532 52.5879 136.589C52.6127 136.647 52.6257 136.71 52.6261 136.772C52.6265 136.835 52.6143 136.898 52.5903 136.956C52.5557 137.046 52.4949 137.123 52.4159 137.179C52.3368 137.234 52.2431 137.264 52.1467 137.266Z" fill="#3C4043"/>
<path d="M31.786 121.828C31.7876 125.577 30.4094 129.195 27.9144 131.993C25.4193 134.791 21.9818 136.573 18.2572 136.999L17.5465 130.567C17.222 127.576 17.7004 124.553 18.9323 121.809C20.1642 119.064 22.1052 116.698 24.5555 114.952L28.3713 112.247C30.5722 114.956 31.7775 118.338 31.786 121.828Z" fill="#E7F1FF"/>
<path d="M18.2561 137.489C18.148 137.48 18.0425 137.451 17.9457 137.402C17.8925 137.369 17.8484 137.323 17.8175 137.269C17.7865 137.215 17.7696 137.154 17.7683 137.091L17.1027 130.656C16.7664 127.571 17.2593 124.453 18.5304 121.622C19.8015 118.792 21.8048 116.351 24.3337 114.553L28.1495 111.848C28.1955 111.811 28.2485 111.785 28.3051 111.77C28.3618 111.754 28.4209 111.751 28.4789 111.759C28.537 111.768 28.5927 111.788 28.6428 111.818C28.6929 111.849 28.7363 111.889 28.7704 111.937C31.0146 114.728 32.2356 118.203 32.2302 121.784C32.2351 125.661 30.8136 129.404 28.2366 132.3C25.6596 135.196 22.1071 137.043 18.2561 137.489ZM28.3259 112.913L24.9104 115.353C22.5129 117.034 20.613 119.33 19.4106 122C18.2082 124.669 17.7478 127.614 18.0779 130.523L18.6989 136.467C22.2039 135.94 25.4033 134.173 27.7154 131.487C30.0274 128.8 31.2983 125.373 31.2971 121.829C31.2905 118.614 30.2487 115.488 28.3259 112.912V112.913Z" fill="#0D6EFD"/>
<path d="M59.466 132.519C59.3897 132.527 59.3125 132.515 59.2423 132.484C59.1721 132.452 59.1115 132.403 59.0667 132.341C58.9915 132.24 58.9585 132.115 58.9747 131.991C58.9909 131.866 59.055 131.753 59.1534 131.676L83.0629 114.331C83.1122 114.291 83.169 114.262 83.2299 114.244C83.2908 114.227 83.3546 114.222 83.4175 114.229C83.4804 114.237 83.5412 114.257 83.5962 114.288C83.6512 114.32 83.6994 114.362 83.7379 114.412C83.7764 114.463 83.8044 114.52 83.8203 114.582C83.8363 114.643 83.8397 114.707 83.8306 114.769C83.8214 114.832 83.7998 114.892 83.767 114.947C83.7342 115.001 83.6909 115.048 83.6396 115.085L59.7743 132.43C59.7328 132.466 59.6835 132.493 59.6302 132.509C59.5769 132.524 59.5208 132.528 59.466 132.519Z" fill="#3C4043"/>
<path d="M119.44 132.519H104.89C103.526 132.518 102.218 131.975 101.253 131.011C100.288 130.046 99.7455 128.738 99.7446 127.373V107.456C99.7455 106.091 100.288 104.783 101.253 103.818C102.218 102.853 103.526 102.311 104.89 102.31H119.44C120.805 102.311 122.113 102.853 123.078 103.818C124.042 104.783 124.585 106.091 124.586 107.456V127.373C124.593 128.051 124.465 128.723 124.208 129.35C123.952 129.978 123.574 130.548 123.094 131.027C122.615 131.506 122.045 131.885 121.418 132.141C120.79 132.397 120.118 132.526 119.44 132.519ZM104.89 103.286C104.343 103.285 103.8 103.393 103.294 103.602C102.788 103.811 102.328 104.118 101.94 104.506C101.553 104.893 101.246 105.353 101.036 105.859C100.827 106.365 100.72 106.908 100.72 107.456V127.373C100.72 127.921 100.827 128.463 101.037 128.97C101.246 129.476 101.553 129.936 101.94 130.323C102.328 130.71 102.788 131.017 103.294 131.227C103.8 131.436 104.343 131.543 104.89 131.543H119.44C119.988 131.543 120.53 131.436 121.037 131.227C121.543 131.017 122.003 130.71 122.39 130.323C122.777 129.936 123.084 129.476 123.294 128.97C123.503 128.463 123.61 127.921 123.61 127.373V107.456C123.611 106.908 123.504 106.365 123.294 105.859C123.085 105.352 122.778 104.892 122.391 104.505C122.003 104.118 121.543 103.811 121.037 103.601C120.531 103.392 119.988 103.285 119.44 103.286H104.89Z" fill="#FFDA2D"/>
<path d="M124.143 110.117H100.277C100.148 110.117 100.023 110.066 99.9319 109.974C99.8405 109.883 99.7891 109.759 99.7891 109.629C99.7891 109.5 99.8405 109.376 99.9319 109.284C100.023 109.193 100.148 109.141 100.277 109.141H124.143C124.272 109.143 124.395 109.194 124.486 109.286C124.577 109.377 124.629 109.5 124.63 109.629C124.622 109.756 124.568 109.875 124.478 109.965C124.388 110.054 124.269 110.109 124.143 110.117Z" fill="#FFDA2D"/>
<path d="M124.143 115.218H100.277C100.15 115.215 100.03 115.162 99.9411 115.07C99.8527 114.979 99.8032 114.857 99.8032 114.73C99.8032 114.603 99.8527 114.481 99.9411 114.39C100.03 114.299 100.15 114.246 100.277 114.242H124.143C124.272 114.243 124.395 114.295 124.486 114.387C124.578 114.478 124.629 114.601 124.63 114.731C124.622 114.857 124.568 114.976 124.478 115.066C124.388 115.156 124.269 115.21 124.143 115.218Z" fill="#FFDA2D"/>
<path d="M124.143 120.274H100.277C100.148 120.274 100.023 120.223 99.9319 120.131C99.8405 120.04 99.7891 119.916 99.7891 119.786C99.7891 119.657 99.8405 119.533 99.9319 119.441C100.023 119.35 100.148 119.298 100.277 119.298H124.143C124.272 119.299 124.395 119.351 124.486 119.442C124.577 119.534 124.629 119.657 124.63 119.786C124.622 119.913 124.568 120.032 124.478 120.122C124.388 120.211 124.269 120.265 124.143 120.274Z" fill="#FFDA2D"/>
<path d="M124.143 125.332H100.277C100.15 125.329 100.03 125.276 99.9411 125.184C99.8527 125.093 99.8032 124.971 99.8032 124.844C99.8032 124.717 99.8527 124.595 99.9411 124.504C100.03 124.413 100.15 124.36 100.277 124.356H124.143C124.272 124.357 124.395 124.409 124.486 124.5C124.578 124.592 124.629 124.715 124.63 124.844C124.622 124.971 124.568 125.09 124.478 125.18C124.388 125.27 124.269 125.324 124.143 125.332Z" fill="#FFDA2D"/>
<path d="M151.647 4.56915C150.96 4.33877 151.405 4.51404 151.422 4.52617L151.613 4.70474L151.539 4.8403L150.875 4.76743L151.236 5.04562L150.667 5.00488L151.082 5.3134L150.309 5.19198L150.487 5.41725L150.489 5.57886L150.506 5.74889L150.294 5.84661L151.031 6.27734L150.079 6.0907L150.62 6.45189L150.782 6.6748L150.459 6.7183L150.431 6.86914L150.088 6.90285L150.427 7.19704L150.65 7.4415L150.119 7.4049L150.476 7.69734L149.993 7.67779L150.629 8.08088L149.999 8.00472L150.337 8.30692L149.526 8.15577L150.4 8.66185L150.114 8.71554L149.405 8.60376L149.931 8.97236L149.741 9.066L149.234 9.03098L150.017 9.50259L149.876 9.61113L149.514 9.63095L149.777 9.90104L149.296 9.86741L149.187 9.98672L149.798 10.3962L148.882 10.1922L149.05 10.4243L148.883 10.5217L149.414 10.9016L148.703 10.7742L149.234 11.1561L148.985 11.22L148.507 11.1881L148.859 11.4949L148.563 11.5378L148.639 11.7276L148.843 11.9779L148.911 12.1685L148.91 12.3344L148.632 12.3834L148.649 12.5554L148.564 12.686L148.166 12.6818L148.199 12.862L148.703 13.2427L148.614 13.3718L148.54 13.5074L148.116 13.4918L148.065 13.6369C148.089 13.7036 148.134 13.7781 148.165 13.8461L147.887 13.8931L148.486 14.3216L148.214 14.37L148.349 14.6035L147.996 14.6145L148.069 14.8145L148.13 15.0058C148.144 15.0518 147.857 14.9636 148.217 15.163C148.275 15.1947 148.196 15.1966 148.985 15.5473L149.351 15.7086L149.997 15.9884L150.402 16.1775C150.438 16.1948 150.476 16.2076 150.515 16.2157C150.565 16.1931 150.469 16.1078 150.454 16.058L150.526 15.9187L150.465 15.7273L150.771 15.6973L151.17 15.7035L151.054 15.482L151.398 15.46L151.273 15.2336C151.284 15.1808 151.292 15.1273 151.297 15.0734L151.487 14.9817L151.141 14.6625L151.527 14.6581L151.821 14.6134L151.616 14.3553L152.076 14.3811L152.071 14.208L151.994 14.0045L152.516 14.0538L152.17 13.7365L151.873 13.4422L152.524 13.5439C152.572 13.5076 152.616 13.4678 152.664 13.4315L152.024 12.9971L152.77 13.1369L152.272 12.7617L152.399 12.6445L152.558 12.5401L153.047 12.5691L153.197 12.4596L152.596 12.0155L152.579 11.8435L153.536 12.0592L152.897 11.6346L153.027 11.5173L153.75 11.6436L153.28 11.2951L152.944 10.9927L153.897 11.2009L153.195 10.7549L153.798 10.8199L153.4 10.496L154.135 10.6211L153.406 10.1679L153.962 10.2159L153.566 9.89367L154.291 10.0039L153.889 9.68036L153.872 9.50447L154.721 9.63611L154.751 9.47922L154.666 9.27845L153.942 8.8366L154.106 8.72965L154.808 8.8383L155.011 8.74526L154.205 8.27598L154.927 8.37664L154.453 8.0286L154.808 7.99372L154.585 7.74927L154.645 7.59142L154.756 7.4641L155.34 7.50934L155.494 7.3975L155.549 7.25001L154.886 6.84358L155.282 6.8185L155.974 6.89842L155.934 6.71685C155.857 6.63373 155.763 6.53634 155.68 6.45967L156.094 6.43871L155.489 6.05617L155.723 6.08451L155.906 6.10791C155.928 6.10578 156.059 6.14029 155.796 6.03395C155.532 5.92762 154.876 5.68436 153.32 5.14273L151.647 4.56915Z" fill="#FFBCA5"/>
<path d="M166.397 9.48218C165.941 8.92762 166.205 9.3013 166.206 9.31318L166.204 9.41923C166.203 9.44787 166.205 9.47661 166.213 9.50433L166.217 9.54984L166.059 9.67728L165.519 9.33078L165.643 9.81412L165.155 9.53238L165.296 10.032L164.672 9.58386L164.66 9.8947L164.534 10.0649L164.424 10.2516L164.161 10.2554L164.524 11.019L163.771 10.4356L164.007 11.0358L163.995 11.3368L163.659 11.2559L163.519 11.4055L163.168 11.3081L163.282 11.7525L163.316 12.0988L162.836 11.8562L162.954 12.3022L162.499 12.0812L162.82 12.7529L162.271 12.4373L162.406 12.8935L161.73 12.4325L162.216 13.2918L161.905 13.2485L161.292 12.8772L161.55 13.4652L161.311 13.5047L160.85 13.2902L161.289 14.0743L161.095 14.1453L160.725 14.0458L160.808 14.4372L160.351 14.2464L160.16 14.3451L160.499 14.9951L159.723 14.472L159.742 14.7858L159.514 14.8422L159.803 15.4312L159.166 15.0802L159.459 15.6688L159.176 15.6706L158.725 15.4972L158.877 15.9398L158.559 15.9131L158.519 16.1608L158.572 16.5012L158.523 16.7358L158.42 16.9177L158.109 16.8964L158.022 17.0928L157.857 17.2149L157.444 17.1016L157.37 17.3087L157.667 17.8789L157.498 17.9974C157.446 18.0405 157.396 18.0873 157.347 18.1322L156.914 18.0029L156.781 18.1559L156.762 18.4154L156.429 18.3842L156.839 19.0372L156.526 19.024L156.557 19.3327C156.428 19.3067 156.302 19.2832 156.178 19.262L156.159 19.5157L156.131 19.7602C156.113 19.8099 155.889 19.6701 156.178 19.9934C156.225 20.0447 156.159 20.0432 156.786 20.6029L157.088 20.853L157.609 21.3073C157.745 21.4374 157.891 21.5566 158.045 21.664C158.124 21.6662 158.097 21.5769 158.096 21.5091L158.236 21.3715L158.262 21.1331L158.598 21.1741L159.011 21.2933L158.994 21.0153C159.115 21.0393 159.24 21.065 159.354 21.0837L159.315 20.7819L159.403 20.5994L159.633 20.5488L159.436 20.0967L159.826 20.1982L160.136 20.2257L160.053 19.8781L160.497 20.0344L160.574 19.841L160.596 19.5931L161.079 19.7933L160.899 19.3475L160.761 18.9395L161.34 19.2362L161.533 19.1572L161.149 18.4997L161.801 18.8792L161.525 18.3189L161.718 18.234L161.931 18.1731L162.389 18.3638L162.596 18.2995L162.244 17.6667L162.332 17.4783L163.13 18.0273L162.761 17.3622L162.954 17.2813L163.575 17.6578L163.322 17.1193L163.178 16.6838L163.962 17.2421L163.558 16.5226L164.084 16.8066L163.902 16.323L164.523 16.7174L164.122 15.9657L164.615 16.2229L164.439 15.7407L165.05 16.1322L164.874 15.646L164.966 15.4591L165.657 15.9487L165.783 15.8004L165.83 15.562L165.445 14.8366L165.666 14.7949L166.25 15.1771L166.494 15.1671L166.062 14.3624L166.655 14.7636L166.449 14.2204L166.796 14.3322L166.762 13.9879L166.904 13.8561L167.097 13.7771L167.592 14.0741L167.805 14.0312L167.954 13.9107L167.633 13.2229L168.006 13.3761L168.566 13.7666C168.593 13.7015 168.625 13.6384 168.66 13.5775L168.626 13.2332L169.034 13.4389L168.77 12.7955C168.835 12.845 168.905 12.9021 168.956 12.933L169.085 13.0202C169.101 13.0307 169.187 13.1122 169.023 12.8745L168.846 12.6321L168.544 12.2323L167.458 10.8325C166.927 10.1314 166.592 9.72875 166.397 9.48218Z" fill="#FFBCA5"/>
<path d="M169.244 23.3536C169.031 22.7109 169.152 23.1311 169.153 23.1465L169.148 23.2424C169.152 23.2848 169.159 23.358 169.149 23.3552L169.05 23.3863L168.775 22.8723L168.803 23.3055L168.553 22.8785L168.599 23.3411L168.291 22.7214L168.258 22.9601L168.174 23.0384L168.096 23.1355L167.95 23.0234L168.079 23.7658L167.72 22.9857L167.792 23.5508L167.754 23.7764L167.578 23.566L167.485 23.6179L167.302 23.3868L167.318 23.7745L167.297 24.0509L167.05 23.6529L167.065 24.0406L166.841 23.6851L166.941 24.3351L166.685 23.8484L166.704 24.2532L166.384 23.5977L166.552 24.4647L166.385 24.2865L166.098 23.7309L166.167 24.2846L166.032 24.2025L165.803 23.8359L165.944 24.6198L165.821 24.5755L165.633 24.3313L165.625 24.6493L165.403 24.2974L165.29 24.2813L165.383 24.9124L165.035 24.1682L165 24.4032L164.869 24.3363L164.938 24.8958L164.651 24.3402L164.72 24.8978L164.566 24.7592L164.345 24.4151L164.36 24.8028L164.195 24.6244L164.136 24.782L164.112 25.049L164.049 25.1914L163.966 25.2717L163.804 25.1085L163.726 25.2037L163.619 25.2142L163.422 24.9398L163.348 25.0522L163.4 25.5822L163.29 25.5833L163.185 25.5936L162.978 25.2909L162.88 25.3239L162.821 25.4834L162.65 25.292L162.743 25.9231L162.573 25.7335L162.531 25.9439L162.334 25.6656L162.271 25.808L162.205 25.9429C162.19 25.9775 162.072 25.6932 162.173 26.0842C162.18 26.1497 162.146 26.0868 162.41 26.9075L162.534 27.2845L162.754 27.9576L162.895 28.372C162.905 28.4099 162.92 28.4469 162.937 28.4826C162.972 28.5025 162.957 28.3717 162.971 28.3274L163.067 28.285L163.12 28.1104L163.291 28.298L163.488 28.5763L163.527 28.3527L163.703 28.5649L163.741 28.3393L163.825 28.2572L163.959 28.3335L163.94 27.9306L164.132 28.1881L164.297 28.3665L164.32 28.0956L164.535 28.4209L164.615 28.3313L164.675 28.1775L164.905 28.5557L164.89 28.168L164.887 27.82L165.154 28.3134L165.279 28.3575L165.182 27.7131L165.481 28.3007L165.429 27.7725L165.548 27.8036L165.677 27.863L165.901 28.2185L166.027 28.2704L165.939 27.6524L166.019 27.5627L166.378 28.337L166.279 27.6871L166.399 27.722L166.689 28.2889L166.639 27.7782L166.626 27.3902L166.984 28.1646L166.867 27.4522L167.119 27.908L167.089 27.4693L167.385 28.0493L167.258 27.3144L167.507 27.7337L167.477 27.2969L167.77 27.8694L167.737 27.427L167.815 27.3317L168.144 28.0156L168.236 27.9636L168.296 27.808L168.17 27.0769L168.302 27.1457L168.589 27.7013L168.732 27.8059L168.584 27.0012L168.878 27.5737L168.829 27.0764L169.017 27.3187L169.04 27.0478L169.138 27.009L169.254 27.0307L169.506 27.4807L169.635 27.542L169.736 27.5146L169.63 26.84L169.831 27.1219L170.12 27.6773L170.197 27.5763L170.215 27.2885L170.431 27.6234L170.34 27.0018L170.436 27.187L170.507 27.324C170.509 27.3413 170.561 27.4472 170.494 27.191C170.427 26.9348 170.231 26.3138 169.77 24.882L169.244 23.3536Z" fill="#FFBCA5"/>
</svg>
