<svg xmlns="http://www.w3.org/2000/svg" fill="none" viewBox="0 0 331 281"><path fill="#E7F1FF" d="M330.009 39.288v-1.006h-.041L329.961 0H0v281h330.009l-.007-40.532h.007v-1.006h-.007l-.007-39.241h.014v-1.006h-.014l-.007-39.192h.021v-1.006h-.021l-.007-39.239h.028v-1.006h-.028l-.007-39.24h.035v-1.006h-.035l-.007-39.239h.042zm-1.051-38.186v37.18h-39.196V1.102h39.196zm-40.2 0v37.18h-40.486V1.102h40.486zM164.813 119.78h40.965v39.239h-40.965v-39.239zm-1.003 39.239h-40.965v-39.239h40.965v39.239zm1.003-40.245v-39.24h40.965v39.24h-40.965zm-1.003 0h-40.965v-39.24h40.965v39.24zm-41.969 0H80.828v-39.24h41.012l.001 39.24zm0 1.006v39.239H80.828v-39.239h41.013zm0 40.245v39.191H80.828v-39.191h41.013zm1.004 0h40.965v39.191h-40.965v-39.191zm41.968 0h40.965v39.191h-40.965v-39.191zm41.968 0h40.487v39.191h-40.487v-39.191zm0-1.006v-39.239h40.487v39.239h-40.487zm0-40.245v-39.24h40.487v39.24h-40.487zm0-40.246v-39.24h40.487v39.24h-40.487zm-1.003 0h-40.965v-39.24h40.965v39.24zm-41.968 0h-40.965v-39.24h40.965v39.24zm-41.969 0H80.828v-39.24h41.012l.001 39.24zm-42.015 0H38.86v-39.24h40.965v39.24zm0 1.006v39.24H38.86v-39.24h40.965zm0 40.246v39.239H38.86v-39.239h40.965zm0 40.245v39.191H38.86v-39.191h40.965zm0 40.198v39.239H38.86v-39.24l40.965.001zm1.003 0h41.012v39.239H80.828l.001-39.239zm42.016 0h40.965v39.239h-40.965v-39.239zm41.968 0h40.965v39.239h-40.965v-39.239zm41.968 0h40.487v39.239h-40.487v-39.239zm41.491 0h40.486v39.239h-40.486v-39.239zm0-1.007v-39.191h40.486v39.191h-40.486zm0-40.197v-39.239h40.486v39.239h-40.486zm0-40.245v-39.24h40.486v39.24h-40.486zm0-40.246v-39.24h40.486v39.24h-40.486zm-1.004-77.425v37.18h-40.487V1.102h40.487zm-41.49 0v37.18h-40.965V1.102h40.965zm-41.968 0v37.18h-40.965V1.102h40.965zm-41.969 0v37.18H80.828V1.102h41.013zm-42.015 0v37.18H38.86V1.102h40.965zm-78.774 0h36.806v37.18H1.052V1.102zm0 38.185h36.806v39.24H1.052v-39.24zm0 40.246h36.806v39.24H1.052v-39.24zm0 40.246h36.806v39.239H1.052v-39.239zm0 40.245h36.806v39.191H1.052v-39.191zm0 40.198h36.806v39.239H1.052v-39.239zm0 79.724v-39.479h36.806v39.479H1.052zm37.81 0v-39.479h40.964v39.479H38.86zm41.967 0v-39.479h41.012v39.479H80.829zm42.016 0v-39.479h40.965v39.479h-40.965zm41.968 0v-39.479h40.965v39.479h-40.965zm41.968 0v-39.479h40.487v39.479h-40.487zm41.491 0v-39.479h40.486v39.479h-40.486zm80.687 0h-39.197v-39.479h39.196l.001 39.479zm0-40.485h-39.197v-39.24h39.196l.001 39.24zm0-40.245h-39.197v-39.192h39.196l.001 39.192zm0-40.198h-39.197v-39.239h39.196l.001 39.239zm0-40.245h-39.197v-39.24h39.196l.001 39.24zm0-40.246h-39.197v-39.24h39.196l.001 39.24z"/><path fill="#85B7FE" d="M217.565 195.538a9.174 9.174 0 0 1-5.842-8.558 9.187 9.187 0 0 1 5.586-8.464 1.978 1.978 0 0 0 1.102-2.479 34.033 34.033 0 0 0-1.751-4.077c-.454-.892-1.514-1.323-2.439-.947a9.109 9.109 0 0 1-9.912-2.01c-2.633-2.645-3.318-6.499-2.066-9.779.357-.938-.086-1.997-.986-2.437a33.676 33.676 0 0 0-4.112-1.685c-.94-.314-1.989.114-2.394 1.022-1.427 3.201-4.619 5.433-8.337 5.433-3.719 0-6.911-2.232-8.338-5.433-.405-.908-1.454-1.336-2.393-1.022a33.88 33.88 0 0 0-4.113 1.685c-.899.44-1.343 1.499-.986 2.437 1.252 3.28.568 7.134-2.066 9.779a9.109 9.109 0 0 1-9.912 2.01c-.925-.377-1.985.054-2.439.947a34.196 34.196 0 0 0-1.751 4.077 1.98 1.98 0 0 0 1.102 2.479 9.187 9.187 0 0 1 5.586 8.464 9.175 9.175 0 0 1-5.842 8.558 1.975 1.975 0 0 0-1.166 2.447 33.897 33.897 0 0 0 1.65 4.151c.452.952 1.584 1.39 2.541.954a9.1 9.1 0 0 1 10.23 1.865c2.803 2.816 3.399 7 1.8 10.405-.456.97-.071 2.129.883 2.61a33.702 33.702 0 0 0 4.121 1.746c1.021.354 2.126-.197 2.489-1.219 1.262-3.552 4.634-6.095 8.603-6.095 3.968 0 7.34 2.543 8.602 6.095.363 1.022 1.468 1.573 2.489 1.219a33.627 33.627 0 0 0 4.122-1.746c.954-.481 1.338-1.64.882-2.61-1.599-3.405-1.003-7.589 1.8-10.405a9.1 9.1 0 0 1 10.23-1.865c.956.435 2.089-.002 2.542-.954a33.765 33.765 0 0 0 1.649-4.151 1.97 1.97 0 0 0-1.164-2.447zm-31.149 1.118c-5.051 0-9.144-4.112-9.144-9.184 0-5.073 4.094-9.185 9.144-9.185 5.049 0 9.143 4.113 9.143 9.185s-4.093 9.184-9.143 9.184z"/><path fill="#3C4043" d="M186.416 201.085c-7.473 0-13.552-6.107-13.552-13.613a.491.491 0 1 1 .98 0c0 6.963 5.64 12.629 12.572 12.629 6.932 0 12.572-5.666 12.572-12.629 0-6.965-5.64-12.63-12.572-12.63a.491.491 0 0 1 0-.985c7.473 0 13.551 6.108 13.551 13.615 0 7.506-6.078 13.613-13.551 13.613z"/><path fill="#FFBCA5" d="M255.162 227.027a6.79 6.79 0 0 1-4.323-6.334 6.798 6.798 0 0 1 4.133-6.263 1.465 1.465 0 0 0 .816-1.835 25.13 25.13 0 0 0-1.295-3.017c-.337-.661-1.121-.98-1.806-.701a6.739 6.739 0 0 1-7.335-1.488 6.81 6.81 0 0 1-1.529-7.237c.264-.694-.064-1.477-.73-1.803a24.834 24.834 0 0 0-3.043-1.247c-.695-.232-1.472.084-1.771.756-1.057 2.369-3.419 4.021-6.171 4.021-2.752 0-5.114-1.652-6.17-4.021-.3-.672-1.076-.988-1.772-.756-1.046.35-2.063.768-3.043 1.247-.666.326-.994 1.109-.729 1.803a6.813 6.813 0 0 1-1.529 7.237 6.74 6.74 0 0 1-7.336 1.488c-.684-.279-1.469.04-1.805.701a25.136 25.136 0 0 0-1.296 3.017 1.465 1.465 0 0 0 .816 1.835 6.799 6.799 0 0 1 4.134 6.263 6.79 6.79 0 0 1-4.324 6.334 1.462 1.462 0 0 0-.863 1.811 25.18 25.18 0 0 0 1.221 3.072c.335.704 1.172 1.028 1.881.706a6.736 6.736 0 0 1 7.571 1.38c2.074 2.084 2.515 5.181 1.332 7.701a1.462 1.462 0 0 0 .653 1.931c.982.495 1.999.927 3.05 1.292a1.454 1.454 0 0 0 1.842-.902c.934-2.629 3.429-4.51 6.366-4.51s5.433 1.881 6.367 4.51a1.453 1.453 0 0 0 1.842.902 24.882 24.882 0 0 0 3.05-1.292c.706-.356.99-1.214.653-1.931-1.183-2.52-.742-5.617 1.332-7.701a6.736 6.736 0 0 1 7.571-1.38c.708.322 1.546-.002 1.881-.706.471-.99.88-2.015 1.221-3.072a1.46 1.46 0 0 0-.862-1.811zm-23.052.828c-3.738 0-6.767-3.044-6.767-6.798s3.03-6.797 6.767-6.797c3.736 0 6.766 3.044 6.766 6.797 0 3.754-3.029 6.798-6.766 6.798z"/><path fill="#E7F1FF" d="M147.251 184.641a4.132 4.132 0 0 1-3.681.178l-4.747-2.218-4.702 1.42a4.028 4.028 0 0 1-2.307-7.719l6.122-1.819a3.934 3.934 0 0 1 2.839.222l6.121 2.883a3.93 3.93 0 0 1 1.908 5.323 3.442 3.442 0 0 1-1.552 1.73h-.001z"/><path fill="#3C4043" d="M145.257 185.663a4.904 4.904 0 0 1-1.908-.399l-4.569-2.129-4.48 1.331a4.51 4.51 0 0 1-3.442-.342 4.515 4.515 0 0 1-2.192-2.675c-.172-.568-.23-1.164-.172-1.755a4.526 4.526 0 0 1 3.188-3.879l6.122-1.818a4.668 4.668 0 0 1 3.194.221l6.166 2.884a4.527 4.527 0 0 1 2.173 5.989 4.596 4.596 0 0 1-1.864 2.04c-.044.044-.044.044-.087.044a5.31 5.31 0 0 1-2.129.488zm-6.477-3.548a.264.264 0 0 1 .177.043l4.747 2.218a3.486 3.486 0 0 0 3.238-.133c.044-.043.044-.043.087-.043a3.357 3.357 0 0 0 1.376-1.552 3.541 3.541 0 0 0-1.686-4.703l-6.166-2.883a3.7 3.7 0 0 0-2.484-.177l-6.122 1.818a3.536 3.536 0 0 0 1.995 6.787l4.702-1.419c.018.017.04.029.063.037a.165.165 0 0 0 .073.005v.002z"/><path fill="#E7F1FF" d="M138.16 210.901a4.019 4.019 0 0 1-4.703-.532l-6.92-6.299a2.569 2.569 0 0 1-.621-.754l-5.988-8.916a4.031 4.031 0 0 1 4.136-6.166 4.028 4.028 0 0 1 2.562 1.685l5.724 8.517 6.565 5.989a3.998 3.998 0 0 1 1.079 4.335 4.008 4.008 0 0 1-.812 1.343 3.523 3.523 0 0 1-1.021.798h-.001z"/><path fill="#3C4043" d="M136.164 211.922a4.338 4.338 0 0 1-3.017-1.198l-6.92-6.299a4.218 4.218 0 0 1-.71-.843l-5.988-8.916a4.536 4.536 0 0 1 1.197-6.254 4.471 4.471 0 0 1 3.37-.666 4.338 4.338 0 0 1 2.884 1.908l5.68 8.473 6.521 5.944a4.453 4.453 0 0 1 1.464 3.116 4.438 4.438 0 0 1-1.198 3.227c-.293.317-.62.599-.976.843-.043.043-.043.043-.087.043a4.408 4.408 0 0 1-2.22.622zm-12.909-23.289a3.108 3.108 0 0 0-1.951.622 3.61 3.61 0 0 0-.976 4.923l5.989 8.917c.168.227.362.435.576.621l6.92 6.299a3.66 3.66 0 0 0 4.037.532c.044-.043.044-.043.089-.043.335-.184.635-.424.887-.71a3.565 3.565 0 0 0-.222-5.013l-6.609-5.944c-.044-.043-.044-.043-.044-.086l-5.723-8.517a3.65 3.65 0 0 0-2.263-1.509 2.08 2.08 0 0 0-.71-.092z"/><path fill="#E7F1FF" d="M144.991 206.466a4.086 4.086 0 0 1-3.726.133l-9.494-4.524a4.083 4.083 0 0 1-1.552-1.331l-4.702-6.699a4.028 4.028 0 0 1-.715-2.996 4.035 4.035 0 0 1 7.235-1.75c.044.043.044.043.044.087l4.08 5.854 8.517 4.081a4.072 4.072 0 0 1 1.908 5.367 3.85 3.85 0 0 1-1.595 1.778z"/><path fill="#3C4043" d="M142.995 207.442a4.618 4.618 0 0 1-1.908-.444l-9.492-4.524a3.993 3.993 0 0 1-1.73-1.464l-4.702-6.698a4.532 4.532 0 0 1 1.02-6.299 4.465 4.465 0 0 1 3.341-.797 4.457 4.457 0 0 1 2.914 1.817c.043.043.043.043.043.087l3.993 5.723 8.428 3.993a4.472 4.472 0 0 1 2.309 2.552 4.475 4.475 0 0 1-.18 3.436 4.301 4.301 0 0 1-1.819 1.951 3.622 3.622 0 0 1-2.217.667zM128.8 188.146a3.304 3.304 0 0 0-2.04.666 3.584 3.584 0 0 0-.799 4.923l4.702 6.699a3.45 3.45 0 0 0 1.375 1.153l9.493 4.525a3.44 3.44 0 0 0 3.283-.134 3.8 3.8 0 0 0 1.464-1.552 3.507 3.507 0 0 0-1.686-4.702l-8.517-4.081c-.043-.043-.133-.087-.177-.177l-4.083-5.857c-.043-.044-.043-.044-.043-.087a3.446 3.446 0 0 0-2.307-1.419c-.22.032-.442.046-.665.043z"/><path fill="#E7F1FF" d="M150.625 200.078a4.246 4.246 0 0 1-3.372.311l-9.892-3.637a4.384 4.384 0 0 1-1.686-1.198l-5.278-6.211a3.957 3.957 0 0 1-.871-2.947 3.977 3.977 0 0 1 1.491-2.686 4.06 4.06 0 0 1 5.546.443l4.568 5.412 8.873 3.283a3.994 3.994 0 0 1 2.184 5.618 3.99 3.99 0 0 1-1.563 1.612z"/><path fill="#3C4043" d="M148.674 201.056a3.733 3.733 0 0 1-1.553-.31l-9.848-3.638a4.363 4.363 0 0 1-1.864-1.331l-5.278-6.212a4.497 4.497 0 0 1 .598-6.265 4.502 4.502 0 0 1 6.278.455l4.525 5.368 8.783 3.238a4.485 4.485 0 0 1 2.662 5.767 5.003 5.003 0 0 1-1.995 2.395c-.723.34-1.51.522-2.308.533zm-15.127-17.832a3.585 3.585 0 0 0-3.104 1.855 3.518 3.518 0 0 0-.288 2.69c.131.446.349.861.642 1.221l5.279 6.211c.375.478.885.832 1.463 1.018l9.848 3.638a3.367 3.367 0 0 0 2.972-.266 3.232 3.232 0 0 0 1.553-1.865 3.538 3.538 0 0 0-2.086-4.525l-8.871-3.282c-.044-.044-.178-.044-.178-.133l-4.568-5.411a3.673 3.673 0 0 0-2.662-1.153v.002z"/><path fill="#3C4043" stroke="#3C4043" stroke-linecap="round" stroke-linejoin="round" stroke-width="3" d="M124.142 196.486c7.154 0 12.953-5.8 12.953-12.953 0-7.154-5.799-12.953-12.953-12.953-7.154 0-12.953 5.799-12.953 12.953 0 7.153 5.799 12.953 12.953 12.953z"/><path fill="#07377F" d="M131.062 107.5l-16.324 34.557 16.191 22.978a16.808 16.808 0 0 1 2.742 5.971 16.817 16.817 0 0 1-6.514 17.539c-.532.355-1.021.71-1.553 1.021a16.861 16.861 0 0 1-21.958-4.791L85.37 158.957l-3.768-5.278a16.825 16.825 0 0 1-1.597-17.034L82 132.386l18.542-39.347a16.887 16.887 0 1 1 30.519 14.461h.001z"/><path fill="#E7F1FF" d="M89.675 139.129a15.317 15.317 0 0 1-4.259 19.917l-3.77-5.279a16.825 16.825 0 0 1-1.597-17.034l1.994-4.258a15.499 15.499 0 0 1 7.632 6.654z"/><path fill="#3C4043" d="M85.372 159.49h-.043a.711.711 0 0 1-.31-.178l-3.773-5.279a17.368 17.368 0 0 1-1.641-17.566l1.994-4.258a.569.569 0 0 1 .621-.266 16.063 16.063 0 0 1 7.896 6.831 15.841 15.841 0 0 1-4.391 20.538.462.462 0 0 1-.353.178zm-3.105-26.394l-1.819 3.816a16.314 16.314 0 0 0 1.553 16.546l3.504 4.834a14.866 14.866 0 0 0 3.77-18.986 15.387 15.387 0 0 0-7.008-6.21z"/><path fill="#3C4043" d="M91.538 144.939a.479.479 0 0 1-.48-.583.46.46 0 0 1 .217-.289.468.468 0 0 1 .174-.059l23.289-2.396a.476.476 0 0 1 .346.092.473.473 0 0 1-.213.84l-23.333 2.395z"/><path fill="#fff" stroke="#3C4043" d="M157.514 198.029h0a17.352 17.352 0 0 0 .647-21.299l-.001-.002-27.325-37.705h-.001l-4.657-6.432-.046-.063-.016-.05a.528.528 0 0 0-.019-.022l-.021-.023-.008-.01a.928.928 0 0 1-.128-.165 17.39 17.39 0 1 0-27.968 20.676l.005.007h0l10.557 14.594h0l13.308 18.409.227.314-.247.298-30.696 37.084 66.389-25.611zm0 0l-39.524 47.776h-.001m39.525-47.776l-39.525 47.776m0 0a17.057 17.057 0 0 1-4.783 4.008h0m4.783-4.008l-4.783 4.008m0 0l-.008.005m.008-.005l-.008.005m0 0a14.694 14.694 0 0 1-3.26 1.415h0m3.26-1.415l-3.26 1.415m0 0l-.013.004m.013-.004l-.013.004m0 0a17.456 17.456 0 0 1-16.467-3.1l-.062-.054c-.329-.287-.656-.574-.947-.823m17.476 3.977l-17.476-3.977m0 0a16.335 16.335 0 0 1-2.918-3.694l-.002-.003a17.444 17.444 0 0 1 1.595-19.923l1.325 23.62z"/><path fill="#07377F" d="M110.08 251.757a17.95 17.95 0 0 1-16.945-3.194c-.355-.31-.71-.621-1.02-.887 4.303.222 12.243 1.154 17.965 4.081z"/><path fill="#FFF1ED" d="M147.697 200.655c7.84 0 14.195-6.355 14.195-14.195s-6.355-14.195-14.195-14.195-14.195 6.355-14.195 14.195 6.355 14.195 14.195 14.195z"/><path fill="#3C4043" d="M133.502 186.948l-12.066-.266a.491.491 0 0 1-.474-.488.49.49 0 0 1 .474-.488l12.066.266a.493.493 0 0 1 .488.488.462.462 0 0 1-.136.352.471.471 0 0 1-.352.136z"/><path fill="#E7F1FF" stroke="#3C4043" d="M93.002 253.144h26.038a10.22 10.22 0 0 1 7.4 3.214l6.706 7.142H83.532c.224-5.506 4.132-10.356 9.47-10.356z"/><path fill="#3C4043" d="M64.215 71.525H84.93a23.144 23.144 0 0 1 23.155 23.155v39.258a23.129 23.129 0 0 1-6.778 16.376 23.152 23.152 0 0 1-16.377 6.779H64.214a23.155 23.155 0 0 1-16.376-6.779 23.153 23.153 0 0 1-6.778-16.376V94.68a23.172 23.172 0 0 1 23.154-23.155z"/><path fill="#FFF1ED" stroke="#3C4043" d="M85.188 82.558l3.829-18.34h26.836l-3.828 18.34H85.188z"/><path fill="#fff" stroke="#3C4043" d="M125.995 92.902a15.12 15.12 0 0 1 1.151 5.594V134.958s0 0 0 0a15.12 15.12 0 0 1-9.361 13.976 15.121 15.121 0 0 1-5.796 1.139H75.792a15.174 15.174 0 0 1-15.16-15.116v-36.24h0a15.147 15.147 0 0 1 15.115-15.16H111.946a15.143 15.143 0 0 1 10.753 4.42 15.124 15.124 0 0 1 3.296 4.925z"/><path fill="#07377F" d="M95.93 98.717v36.241a15.605 15.605 0 0 1-9.638 14.427 15.612 15.612 0 0 1-5.977 1.188h-4.48a15.65 15.65 0 0 1-15.659-15.615V98.717a15.647 15.647 0 0 1 15.615-15.66h4.48a15.658 15.658 0 0 1 15.66 15.66h-.001z"/><path fill="#85B7FE" d="M100.188 19.979h35.621a17.484 17.484 0 0 1 17.477 17.477v21.87a17.482 17.482 0 0 1-17.477 17.477h-35.621A17.484 17.484 0 0 1 82.71 59.326v-21.87a17.512 17.512 0 0 1 17.478-17.477z"/><path fill="#3C4043" d="M100.189 77.336a17.932 17.932 0 0 1-13.175-5.767.47.47 0 0 1 .386-.781.472.472 0 0 1 .323.16 16.986 16.986 0 0 0 12.466 5.456h13.618a.49.49 0 0 1 .464.678.497.497 0 0 1-.273.265.488.488 0 0 1-.191.033h-13.618v-.044z"/><path fill="#E7F1FF" d="M113.851 37.19h26.928a8.074 8.074 0 0 1 8.073 8.074v6.432a8.073 8.073 0 0 1-8.073 8.074h-26.928a8.073 8.073 0 0 1-8.073-8.074v-6.432a8.102 8.102 0 0 1 8.073-8.074z"/><path fill="#0D6EFD" d="M140.777 60.168h-26.928a8.52 8.52 0 0 1-8.516-8.517v-6.432a8.522 8.522 0 0 1 8.518-8.517h26.927a8.52 8.52 0 0 1 8.516 8.517v6.432a8.518 8.518 0 0 1-8.517 8.517zm-26.928-22.535a7.609 7.609 0 0 0-7.584 7.586v6.432a7.613 7.613 0 0 0 7.586 7.586h26.927a7.609 7.609 0 0 0 7.585-7.586v-6.432a7.608 7.608 0 0 0-7.585-7.586h-26.929z"/><path fill="#E7F1FF" d="M116.024 43.445h.044a2.384 2.384 0 0 1 2.395 2.395v5.235a2.39 2.39 0 0 1-1.477 2.216c-.291.12-.603.18-.918.18h-.044a2.384 2.384 0 0 1-2.395-2.396V45.84c-.001-.314.06-.627.179-.918a2.398 2.398 0 0 1 1.298-1.297c.291-.12.603-.181.918-.18z"/><path fill="#3C4043" d="M116.113 53.914h-.043a2.905 2.905 0 0 1-2.884-2.884v-5.234a2.905 2.905 0 0 1 2.884-2.883h.043a2.907 2.907 0 0 1 2.883 2.883v5.234a2.904 2.904 0 0 1-2.883 2.884zm-.089-9.981a1.921 1.921 0 0 0-1.908 1.908v5.234a1.923 1.923 0 0 0 1.908 1.908h.043a1.921 1.921 0 0 0 1.908-1.908V45.84a1.92 1.92 0 0 0-1.908-1.908h-.043z"/><path fill="#E7F1FF" d="M141.664 43.445h.044a2.384 2.384 0 0 1 2.395 2.395v5.235a2.39 2.39 0 0 1-1.477 2.216c-.291.12-.603.18-.918.18h-.044a2.384 2.384 0 0 1-2.395-2.396V45.84a2.39 2.39 0 0 1 1.477-2.215c.291-.12.603-.181.918-.18z"/><path fill="#3C4043" d="M141.753 53.914h-.044a2.903 2.903 0 0 1-2.883-2.884v-5.234a2.904 2.904 0 0 1 2.883-2.883h.044a2.903 2.903 0 0 1 2.883 2.883v5.234a2.933 2.933 0 0 1-2.883 2.884zm-.087-9.981a1.921 1.921 0 0 0-1.908 1.908v5.234a1.924 1.924 0 0 0 1.908 1.908h.043a1.921 1.921 0 0 0 1.908-1.908V45.84a1.92 1.92 0 0 0-1.908-1.908h-.043zM128.756 52.273a3.79 3.79 0 0 1-3.533-2.352 3.773 3.773 0 0 1-.283-1.464.493.493 0 0 1 .488-.489.492.492 0 0 1 .488.489 2.859 2.859 0 0 0 2.839 2.839 2.862 2.862 0 0 0 2.839-2.84.493.493 0 0 1 .488-.488.492.492 0 0 1 .488.489 3.817 3.817 0 0 1-3.814 3.816z"/><path fill="#fff" stroke="#3C4043" d="M55.786 248.019l.138.114a17.432 17.432 0 0 0 24.494-2.328l-24.632 2.214zm0 0h-.053m.053 0h-.053m0 0a6.163 6.163 0 0 1-.253-.224l-.008-.007c-.12-.11-.261-.239-.426-.361l-.15-.149h0l-.006-.006a17.432 17.432 0 0 1-1.337-23.631l2.18 24.378zm64.208-49.988l-39.523 47.773-26.864-22.164 30.696-37.083.246-.298-.226-.314-23.822-33.003v-.001a17.424 17.424 0 0 1 2.2-22.941h0l.007-.006a12.888 12.888 0 0 1 1.665-1.367h0l.01-.006a17.428 17.428 0 0 1 24.321 3.881s0 0 0 0l31.982 44.179.001.002a17.542 17.542 0 0 1-.693 21.347v.001z"/><path fill="#07377F" d="M72.597 251.757a17.953 17.953 0 0 1-16.99-3.194c-.31-.221-.532-.487-.843-.71l-.178-.177c4.259.222 12.2 1.154 18.01 4.081z"/><path fill="#FFF1ED" d="M110.124 200.655c7.84 0 14.196-6.355 14.196-14.195s-6.356-14.195-14.196-14.195c-7.839 0-14.195 6.355-14.195 14.195s6.356 14.195 14.195 14.195z"/><path fill="#FFED96" d="M73.67 157.133c7.84 0 14.196-6.355 14.196-14.195s-6.355-14.195-14.195-14.195-14.195 6.355-14.195 14.195 6.355 14.195 14.195 14.195z"/><path fill="#3C4043" d="M95.93 186.948l-12.066-.266a.5.5 0 0 1-.355-.138.495.495 0 0 1-.148-.35.494.494 0 0 1 .311-.456.498.498 0 0 1 .192-.032l12.065.266a.493.493 0 0 1 .488.488.461.461 0 0 1-.297.457.459.459 0 0 1-.19.031z"/><path fill="#E7F1FF" stroke="#3C4043" d="M55.43 253.144h41.164a10.286 10.286 0 0 1 7.401 3.215l6.705 7.141H45.959c.224-5.506 4.133-10.356 9.47-10.356z"/><path fill="#FFF1ED" stroke="#3C4043" d="M58.898 192.484h-.003a3.441 3.441 0 0 1-2.67-1.781h0l-.005-.008-2.573-4.569-.093-.165-.18-.062-4.612-1.597h0l-.005-.002a3.515 3.515 0 0 1-2.208-4.477 3.513 3.513 0 0 1 4.499-2.163h0l.005.002 6.076 2.084v.001c.807.28 1.483.846 1.901 1.59 0 0 0 0 0 0l3.327 5.944.001.003a3.478 3.478 0 0 1-.305 3.889 3.47 3.47 0 0 1-1.052.881h0l-.004.002a3.546 3.546 0 0 1-2.1.428zM34.919 208.811l-.01-.002-.01-.001a3.505 3.505 0 0 1-3.067-2.795h0v-.006l-1.95-9.126a6.16 6.16 0 0 1-.078-.879l.355-10.711a3.522 3.522 0 0 1 7.03.233l-.358 10.279-.002.06.012.06 1.821 8.65h0a3.511 3.511 0 0 1-2.679 4.155l-.017.004-.017.005a2.409 2.409 0 0 1-1.03.074z"/><path fill="#FFF1ED" stroke="#3C4043" d="M43.679 209.237c-.65.223-1.346.27-2.018.135l-.091-.021a3.581 3.581 0 0 1-2.49-2.099l-3.9-9.755h0l-.003-.005a3.455 3.455 0 0 1-.232-1.782v-.001l1.107-8.068a3.531 3.531 0 0 1 3.963-2.99 3.49 3.49 0 0 1 2.987 3.918v.001l-.932 7.053-.017.131.05.122 3.547 8.781v.001a3.52 3.52 0 0 1-1.971 4.579z"/><path fill="#3C4043" d="M38.661 207.886a.483.483 0 0 1-.443-.311l-3.903-9.759a4.402 4.402 0 0 1-.31-2.262l.887-6.876a.472.472 0 0 1 .842-.216c.075.1.107.226.09.349l-.932 6.876a3.688 3.688 0 0 0 .222 1.819l3.902 9.759a.494.494 0 0 1-.266.621h-.089z"/><path fill="#FFF1ED" stroke="#3C4043" d="M52.253 207.386a4.361 4.361 0 0 1-2.468.203l-.046-.011a3.463 3.463 0 0 1-1.351-.675l-.316.388.316-.388a3.47 3.47 0 0 1-.936-1.186l-.002-.003-4.613-9.448-.001-.002a3.438 3.438 0 0 1-.349-1.741v-.003l.488-8.161h0v-.005a3.52 3.52 0 0 1 6.856-.944l.474-.16-.474.16c.149.441.208.907.176 1.371h0v.007l-.4 7.098-.007.13.057.118 4.17 8.517h0a3.559 3.559 0 0 1-1.574 4.735z"/><path fill="#3C4043" d="M45.892 204.204a.389.389 0 0 1-.399-.267l-3.549-7.274a4.415 4.415 0 0 1-.443-2.262l.488-8.163a.49.49 0 1 1 .976.087l-.488 8.162a3.544 3.544 0 0 0 .355 1.774l3.549 7.275a.426.426 0 0 1-.063.522.408.408 0 0 1-.16.099.965.965 0 0 0-.266.047z"/><path fill="#FFED96" d="M39.86 190.408c7.153 0 12.952-5.799 12.952-12.953 0-7.154-5.8-12.953-12.953-12.953-7.154 0-12.953 5.799-12.953 12.953 0 7.154 5.8 12.953 12.953 12.953z"/><path fill="#85B7FE" d="M83.376 114.731l-31.229 22.046 2.75 27.991a16.883 16.883 0 0 1-14.904 18.631c-.621.044-1.242.087-1.865.087a16.85 16.85 0 0 1-16.723-14.994l-3.148-31.449-.666-6.432a16.928 16.928 0 0 1 7.009-15.614l3.816-2.706 35.532-25.063a16.844 16.844 0 0 1 20.005 27.105c-.133.087-.356.265-.577.398z"/><path fill="#3C4043" d="M52.147 137.266a.271.271 0 0 1-.178-.044l-21.425-9.36a.475.475 0 0 1-.266-.621.512.512 0 0 1 .62-.266l21.426 9.36a.473.473 0 0 1 .266.621.488.488 0 0 1-.443.31z"/><path fill="#E7F1FF" d="M31.786 121.828a15.263 15.263 0 0 1-13.529 15.171l-.71-6.432a16.926 16.926 0 0 1 7.008-15.615l3.816-2.705a15.254 15.254 0 0 1 3.415 9.581z"/><path fill="#0D6EFD" d="M18.256 137.489a.841.841 0 0 1-.31-.087.377.377 0 0 1-.178-.311l-.665-6.435a17.44 17.44 0 0 1 7.23-16.103l3.817-2.705a.425.425 0 0 1 .493-.03.44.44 0 0 1 .127.119 15.676 15.676 0 0 1 3.46 9.847 15.789 15.789 0 0 1-13.974 15.705zm10.07-24.576l-3.416 2.44a16.284 16.284 0 0 0-6.832 15.17l.62 5.944a14.8 14.8 0 0 0 12.6-14.638 14.957 14.957 0 0 0-2.972-8.917v.001z"/><path fill="#3C4043" d="M59.466 132.519a.44.44 0 0 1-.4-.178.48.48 0 0 1 .087-.665l23.91-17.345a.48.48 0 0 1 .355-.102.489.489 0 0 1 .403.353.47.47 0 0 1-.181.503L59.774 132.43a.38.38 0 0 1-.308.089z"/><path fill="#FFDA2D" d="M119.44 132.519h-14.55a5.153 5.153 0 0 1-5.145-5.146v-19.917a5.149 5.149 0 0 1 5.145-5.146h14.55a5.149 5.149 0 0 1 5.146 5.146v19.917a5.073 5.073 0 0 1-.378 1.977 5.094 5.094 0 0 1-4.768 3.169zm-14.55-29.233a4.164 4.164 0 0 0-4.17 4.17v19.917a4.17 4.17 0 0 0 4.17 4.17h14.55c.548 0 1.09-.107 1.597-.316a4.178 4.178 0 0 0 2.257-2.257 4.188 4.188 0 0 0 .316-1.597v-19.917a4.147 4.147 0 0 0-.316-1.597 4.153 4.153 0 0 0-2.257-2.258 4.164 4.164 0 0 0-1.597-.315h-14.55z"/><path fill="#FFDA2D" d="M124.143 110.117h-23.866a.486.486 0 0 1-.488-.488.49.49 0 0 1 .488-.488h23.866a.491.491 0 0 1 .487.488.52.52 0 0 1-.487.488zM124.143 115.218h-23.866a.488.488 0 0 1 0-.976h23.866a.487.487 0 0 1 .343.145.487.487 0 0 1 .144.344.52.52 0 0 1-.487.487zM124.143 120.274h-23.866a.486.486 0 0 1-.488-.488.49.49 0 0 1 .488-.488h23.866a.49.49 0 0 1 .487.488.52.52 0 0 1-.487.488zM124.143 125.332h-23.866a.488.488 0 0 1 0-.976h23.866a.49.49 0 0 1 .487.488.52.52 0 0 1-.487.488z"/><path fill="#FFBCA5" d="M151.647 4.57c-.687-.231-.242-.056-.225-.044l.191.179-.074.135-.664-.073.361.279-.569-.041.415.308-.773-.121.178.225.002.162.017.17-.212.098.737.43-.952-.186.541.36.162.224-.323.043-.028.151-.343.034.339.294.223.244-.531-.036.357.292-.483-.02.636.404-.63-.076.338.302-.811-.151.874.506-.286.054-.709-.112.526.368-.19.094-.507-.035.783.472-.141.108-.362.02.263.27-.481-.034-.109.12.611.41-.916-.205.168.232-.167.098.531.38-.711-.128.531.382-.249.064-.478-.032.352.307-.296.043.076.19.204.25.068.19-.001.166-.278.05.017.171-.085.131-.398-.004.033.18.504.38-.089.13-.074.135-.424-.015-.051.145c.024.067.069.141.1.21l-.278.046.599.429-.272.048.135.234-.353.01.073.2.061.192c.014.046-.273-.042.087.157.058.032-.021.034.768.384l.366.162.646.28.405.188c.036.018.074.03.113.039.05-.023-.046-.108-.061-.158l.072-.14-.061-.19.306-.03.399.005-.116-.221.344-.022-.125-.226c.011-.053.019-.107.024-.16l.19-.092-.346-.32.386-.004.294-.045-.205-.258.46.026-.005-.173-.077-.204.522.05-.346-.318-.297-.294.651.102c.048-.036.092-.076.14-.113l-.64-.434.746.14-.498-.375.127-.117.159-.105.489.03.15-.11-.601-.445-.017-.171.957.215-.639-.424.13-.118.723.127-.47-.349-.336-.302.953.208-.702-.446.603.065-.398-.324.735.125-.729-.453.556.048-.396-.322.725.11-.402-.324-.017-.176.849.132.03-.157-.085-.2-.724-.442.164-.107.702.108.203-.093-.806-.469.722.1-.474-.347.355-.035-.223-.245.06-.158.111-.127.584.045.154-.112.055-.147-.663-.406.396-.026.692.08-.04-.181a4.95 4.95 0 0 0-.254-.257l.414-.021-.605-.383.234.029.183.023c.022-.002.153.032-.11-.074-.264-.106-.92-.35-2.476-.891l-1.673-.574zM166.397 9.482c-.456-.554-.192-.18-.191-.169l-.002.106a.272.272 0 0 0 .009.085l.004.046-.158.127-.54-.346.124.483-.488-.282.141.5-.624-.448-.012.31-.126.17-.11.188-.263.003.363.764-.753-.583.236.6-.012.3-.336-.08-.14.15-.351-.098.114.444.034.347-.48-.243.118.446-.455-.22.321.67-.549-.315.135.457-.676-.462.486.86-.311-.043-.613-.372.258.588-.239.04-.461-.215.439.784-.194.071-.37-.1.083.392-.457-.19-.191.098.339.65-.776-.523.019.314-.228.056.289.59-.637-.352.293.589-.283.002-.451-.174.152.443-.318-.027-.04.248.053.34-.049.235-.103.182-.311-.022-.087.197-.165.122-.413-.113-.074.207.297.57-.169.118c-.052.044-.102.09-.151.135l-.433-.13-.133.154-.019.26-.333-.032.41.653-.313-.013.031.309c-.129-.026-.255-.05-.379-.071l-.019.254-.028.244c-.018.05-.242-.09.047.233.047.052-.019.05.608.61l.302.25.521.454c.136.13.282.25.436.357.079.002.052-.087.051-.155l.14-.137.026-.239.336.041.413.12-.017-.279c.121.024.246.05.36.069l-.039-.302.088-.183.23-.05-.197-.452.39.101.31.028-.083-.348.444.156.077-.193.022-.248.483.2-.18-.445-.138-.409.579.297.193-.079-.384-.657.652.38-.276-.561.193-.085.213-.06.458.19.207-.065-.352-.632.088-.189.798.55-.369-.666.193-.08.621.376-.253-.539-.144-.435.784.558-.404-.72.526.285-.182-.484.621.394-.401-.751.493.257-.176-.482.611.391-.176-.486.092-.187.691.49.126-.149.047-.238-.385-.725.221-.042.584.382.244-.01-.432-.805.593.402-.206-.544.347.112-.034-.344.142-.132.193-.079.495.297.213-.043.149-.12-.321-.688.373.153.56.39c.027-.065.059-.128.094-.188l-.034-.345.408.206-.264-.643c.065.049.135.106.186.137l.129.087c.016.01.102.092-.062-.146l-.177-.242-.302-.4-1.086-1.4c-.531-.7-.866-1.103-1.061-1.35zM169.244 23.354c-.213-.643-.092-.223-.091-.207l-.005.095c.004.043.011.116.001.113l-.099.031-.275-.514.028.433-.25-.427.046.463-.308-.62-.033.24-.084.077-.078.098-.146-.113.129.743-.359-.78.072.565-.038.225-.176-.21-.093.052-.183-.231.016.387-.021.277-.247-.398.015.388-.224-.356.1.65-.256-.487.019.405-.32-.655.168.867-.167-.178-.287-.556.069.554-.135-.082-.229-.367.141.784-.123-.044-.188-.245-.008.318-.222-.352-.113-.016.093.631-.348-.744-.035.235-.131-.067.069.56-.287-.556.069.558-.154-.139-.221-.344.015.388-.165-.179-.059.158-.024.267-.063.142-.083.08-.162-.163-.078.096-.107.01-.197-.274-.074.112.052.53-.11.001-.105.01-.207-.302-.098.033-.059.16-.171-.192.093.631-.17-.19-.042.21-.197-.277-.063.142-.066.135c-.015.034-.133-.25-.032.141.007.066-.027.003.237.823l.124.378.22.673.141.414c.01.038.025.075.042.11.035.02.02-.11.034-.155l.096-.042.053-.175.171.188.197.278.039-.223.176.212.038-.226.084-.082.134.076-.019-.402.192.257.165.178.023-.27.215.325.08-.09.06-.154.23.379-.015-.388-.003-.348.267.493.125.045-.097-.645.299.588-.052-.528.119.03.129.06.224.355.126.052-.088-.618.08-.09.359.775-.099-.65.12.035.29.567-.05-.51-.013-.389.358.775-.117-.713.252.456-.03-.439.296.58-.127-.735.249.42-.03-.437.293.572-.033-.442.078-.095.329.684.092-.052.06-.156-.126-.731.132.069.287.555.143.105-.148-.805.294.573-.049-.498.188.243.023-.271.098-.039.116.022.252.45.129.061.101-.027-.106-.675.201.282.289.555.077-.1.018-.289.216.335-.091-.621.096.185.071.137c.002.017.054.123-.013-.133s-.263-.877-.724-2.309l-.526-1.528z"/></svg>