<svg width="335" height="281" viewBox="0 0 335 281" fill="none" xmlns="http://www.w3.org/2000/svg">
<path d="M330.009 39.2875V38.2824H329.968L329.961 0H0V281H330.009L330.002 240.468H330.009V239.462H330.002L329.995 200.221H330.009V199.215H329.995L329.988 160.023H330.009V159.017H329.988L329.981 119.778H330.009V118.772H329.981L329.974 79.5323H330.009V78.5263H329.974L329.967 39.287L330.009 39.2875ZM328.958 1.10208V38.2824H289.762V1.10208H328.958ZM288.758 1.10208V38.2824H248.272V1.10208H288.758ZM164.813 119.779H205.778V159.018H164.813V119.779ZM163.81 159.018H122.845V119.779H163.81V159.018ZM164.813 118.773V79.5328H205.778V118.773H164.813ZM163.81 118.773H122.845V79.5328H163.81V118.773ZM121.841 118.773H80.8275V79.5328H121.84L121.841 118.773ZM121.841 119.779V159.018H80.8275V119.779H121.841ZM121.841 160.024V199.215H80.8275V160.024H121.841ZM122.845 160.024H163.81V199.215H122.845V160.024ZM164.813 160.024H205.778V199.215H164.813V160.024ZM206.781 160.024H247.268V199.215H206.781V160.024ZM206.781 159.018V119.779H247.268V159.018H206.781ZM206.781 118.773V79.5328H247.268V118.773H206.781ZM206.781 78.5268V39.2875H247.268V78.5268H206.781ZM205.778 78.5268H164.813V39.2875H205.778V78.5268ZM163.81 78.5268H122.845V39.2875H163.81V78.5268ZM121.841 78.5268H80.8275V39.2875H121.84L121.841 78.5268ZM79.8257 78.5268H38.8612V39.2875H79.8257V78.5268ZM79.8257 79.5328V118.773H38.8612V79.5328H79.8257ZM79.8257 119.779V159.018H38.8612V119.779H79.8257ZM79.8257 160.024V199.215H38.8612V160.024H79.8257ZM79.8257 200.222V239.461H38.8612V200.221L79.8257 200.222ZM80.8294 200.222H121.841V239.461H80.8275L80.8294 200.222ZM122.845 200.222H163.81V239.461H122.845V200.222ZM164.813 200.222H205.778V239.461H164.813V200.222ZM206.781 200.222H247.268V239.461H206.781V200.222ZM248.272 200.222H288.758V239.461H248.272V200.222ZM248.272 199.215V160.024H288.758V199.215H248.272ZM248.272 159.018V119.779H288.758V159.018H248.272ZM248.272 118.773V79.5328H288.758V118.773H248.272ZM248.272 78.5268V39.2875H288.758V78.5268H248.272ZM247.268 1.10208V38.2824H206.781V1.10208H247.268ZM205.778 1.10208V38.2824H164.813V1.10208H205.778ZM163.81 1.10208V38.2824H122.845V1.10208H163.81ZM121.841 1.10208V38.2824H80.8275V1.10208H121.841ZM79.8257 1.10208V38.2824H38.8612V1.10208H79.8257ZM1.05183 1.10208H37.8576V38.2824H1.05183V1.10208ZM1.05183 39.2875H37.8576V78.5268H1.05183V39.2875ZM1.05183 79.5328H37.8576V118.773H1.05183V79.5328ZM1.05183 119.779H37.8576V159.018H1.05183V119.779ZM1.05183 160.024H37.8576V199.215H1.05183V160.024ZM1.05183 200.222H37.8576V239.461H1.05183V200.222ZM1.05183 279.946V240.467H37.8576V279.946H1.05183ZM38.8612 279.946V240.467H79.8257V279.946H38.8612ZM80.8294 279.946V240.467H121.841V279.946H80.8294ZM122.845 279.946V240.467H163.81V279.946H122.845ZM164.813 279.946V240.467H205.778V279.946H164.813ZM206.781 279.946V240.467H247.268V279.946H206.781ZM248.272 279.946V240.467H288.758V279.946H248.272ZM328.959 279.946H289.762V240.467H328.958L328.959 279.946ZM328.959 239.461H289.762V200.221H328.958L328.959 239.461ZM328.959 199.216H289.762V160.024H328.958L328.959 199.216ZM328.959 159.018H289.762V119.779H328.958L328.959 159.018ZM328.959 118.773H289.762V79.5328H328.958L328.959 118.773ZM328.959 78.5272H289.762V39.2875H328.958L328.959 78.5272Z" fill="#E7F1FF"/>
<path d="M39.3634 68.9445C39.1621 69.641 39.3185 69.1889 39.3299 69.1713L39.5003 68.9733L39.6389 69.0417L39.5939 69.7082L39.8567 69.3351L39.8399 69.9055L40.1307 69.4785L40.0418 70.2551L40.2595 70.0684L40.4209 70.0597L40.59 70.0359L40.6965 70.2429L41.096 69.4885L40.9494 70.4473L41.2876 69.8916L41.5035 69.7212L41.5605 70.0412L41.7124 70.0638L41.7605 70.405L42.0402 70.0536L42.2751 69.8205L42.2608 70.3526L42.538 69.9835L42.5388 70.4674L42.9148 69.8144L42.8651 70.4474L43.1529 70.0969L43.0359 70.9134L43.5049 70.0193L43.5705 70.3021L43.4886 71.0157L43.8348 70.4748L43.9363 70.6606L43.9226 71.1686L44.3609 70.3667L44.4753 70.5026L44.5103 70.8637L44.7691 70.5892L44.7557 71.0712L44.8795 71.1758L45.263 70.5477L45.0976 71.4711L45.3224 71.2934L45.4267 71.4567L45.7841 70.9103L45.6866 71.6261L46.0459 71.0794L46.1201 71.325L46.1084 71.8047L46.4 71.4396L46.4554 71.7338L46.6418 71.6496L46.8833 71.4355L47.0709 71.3591L47.2367 71.3537L47.2973 71.6292L47.4685 71.6051L47.6026 71.6842L47.615 72.0825L47.7937 72.0413L48.1529 71.5227L48.2856 71.606L48.4242 71.6745L48.4264 72.0982L48.5735 72.1435C48.6391 72.1163 48.7116 72.068 48.7783 72.0346L48.837 72.3104L49.2399 71.6936L49.2997 71.9632L49.5273 71.8191L49.5532 72.1715L49.7499 72.0898L49.9386 72.0212C49.9838 72.0048 49.9078 72.2956 50.0919 71.9276C50.1212 71.8674 50.1264 71.9467 50.4436 71.1439L50.5894 70.7714L50.8418 70.1137L51.0138 69.7014C51.0296 69.6647 51.0408 69.6262 51.0472 69.5867C51.0225 69.5382 50.9413 69.6376 50.8922 69.6546L50.75 69.5886L50.5614 69.6572L50.5185 69.3532L50.508 68.9546L50.2915 69.0791L50.2551 68.7362L50.0342 68.8713C49.9809 68.8618 49.9271 68.856 49.8731 68.854L49.7735 68.668L49.4691 69.027L49.4486 68.6418L49.3916 68.3498L49.1422 68.565L49.1487 68.104L48.9759 68.1163L48.7759 68.2025L48.8032 67.6786L48.5007 68.0373L48.2191 68.347L48.2935 67.6924C48.2552 67.6458 48.2136 67.6037 48.1753 67.557L47.7681 68.2145L47.8765 67.4631L47.5225 67.977L47.4001 67.8543L47.2891 67.6999L47.2975 67.2107L47.1818 67.0649L46.7633 67.684L46.5922 67.7081L46.7676 66.7432L46.3702 67.3993L46.2475 67.2746L46.3433 66.547L46.0149 67.0313L45.7269 67.3799L45.8949 66.4182L45.4788 67.1388L45.5184 66.5332L45.2115 66.9445L45.3056 66.2051L44.8834 66.9527L44.908 66.3952L44.6027 66.8042L44.6824 66.0749L44.376 66.4901L44.201 66.5148L44.2969 65.6612L44.1389 65.6374L43.9419 65.7312L43.5308 66.4732L43.417 66.3132L43.4961 65.608L43.3946 65.4082L42.9596 66.2336L43.0299 65.5076L42.702 65.9959L42.6523 65.6428L42.4174 65.876L42.2572 65.8225L42.1253 65.7171L42.146 65.1321L42.0278 64.9827L41.8781 64.9338L41.4999 65.6132L41.4582 65.219L41.509 64.5238L41.3293 64.5711C41.2495 64.6523 41.1561 64.7495 41.083 64.8358L41.0447 64.4232L40.6878 65.0435L40.7064 64.8089L40.722 64.6246C40.719 64.6031 40.748 64.471 40.6528 64.7384C40.5576 65.0058 40.3421 65.6723 39.8663 67.2495L39.3634 68.9445Z" fill="#FFBCA5"/>
<path d="M43.6533 54.0013C43.1184 54.4804 43.4806 54.2012 43.4925 54.1996L43.5985 54.1968C43.6272 54.1975 43.6558 54.1934 43.6832 54.1848L43.7284 54.1784L43.8624 54.3312L43.5389 54.8855L44.0166 54.7415L43.7556 55.2406L44.2488 55.0782L43.8273 55.721L44.1383 55.7196L44.3137 55.8383L44.5048 55.9405L44.5197 56.2029L45.2674 55.8089L44.7161 56.5851L45.3059 56.3243L45.6071 56.3243L45.5403 56.6627L45.6957 56.7963L45.6132 57.1511L46.0523 57.0186L46.3969 56.9701L46.1747 57.4596L46.6153 57.3229L46.4137 57.7874L47.0713 57.4383L46.779 58.0003L47.2292 57.8461L46.7969 58.5409L47.6351 58.019L47.6049 58.3322L47.2596 58.9602L47.8362 58.6771L47.8857 58.9144L47.6908 59.384L48.4558 58.9128L48.5349 59.1036L48.4509 59.4768L48.8386 59.3778L48.667 59.842L48.7737 60.0289L49.4089 59.6628L48.9189 60.4607L49.2316 60.4287L49.2975 60.6536L49.8738 60.3402L49.5499 60.9915L50.1257 60.6742L50.1394 60.9569L49.985 61.4148L50.4209 61.2443L50.4076 61.5632L50.6567 61.5927L50.9945 61.5249L51.231 61.5642L51.4171 61.6592L51.4088 61.9712L51.6087 62.0501L51.7376 62.2096L51.6418 62.6268L51.8518 62.6921L52.409 62.3714L52.5345 62.5354C52.5798 62.5855 52.6286 62.6332 52.6755 62.6811L52.5645 63.1186L52.723 63.2457L52.9831 63.2535L52.9658 63.587L53.6011 63.1503L53.601 63.4632L53.9082 63.4199C53.8876 63.5493 53.8694 63.6764 53.8535 63.8011L54.1077 63.8097L54.3532 63.8276C54.4035 63.8427 54.2733 64.0731 54.5841 63.7708C54.6334 63.7215 54.6348 63.7879 55.1676 63.1375L55.4048 62.8255L55.8369 62.2861C55.9611 62.1448 56.0741 61.9939 56.1749 61.8347C56.1738 61.7562 56.0858 61.7867 56.018 61.7902L55.8747 61.657L55.6354 61.6402L55.6622 61.3033L55.764 60.8852L55.4869 60.9142C55.5059 60.7924 55.5263 60.6664 55.5402 60.5513L55.2404 60.6037L55.0543 60.5229L54.9941 60.2952L54.5506 60.5111L54.6357 60.1175L54.6502 59.8066L54.3064 59.9035L54.4439 59.4541L54.2474 59.3849L53.9988 59.3735L54.1785 58.8818L53.7406 59.0808L53.3389 59.2363L53.6109 58.6448L53.524 58.4552L52.8831 58.8665L53.2349 58.1991L52.6867 58.4985L52.5938 58.3097L52.524 58.0994L52.6953 57.6332L52.6224 57.4294L52.0049 57.8072L51.813 57.7272L52.328 56.9077L51.679 57.3039L51.5901 57.1146L51.9401 56.4778L51.4128 56.754L50.9837 56.9154L51.5086 56.1086L50.8067 56.5426L51.0683 56.0051L50.5928 56.2073L50.9608 55.57L50.2266 56.0025L50.4628 55.4988L49.9884 55.6949L50.3539 55.068L49.8756 55.2646L49.685 55.1804L50.1451 54.4696L49.9917 54.3499L49.7516 54.313L49.0429 54.7278L48.992 54.5089L49.3493 53.9094L49.3291 53.666L48.5433 54.132L48.9192 53.5218L48.3851 53.7505L48.4823 53.3997L48.1397 53.4479L48.0021 53.3119L47.9151 53.1222L48.191 52.615L48.1392 52.4043L48.0126 52.2606L47.3389 52.6099L47.4763 52.2312L47.8429 51.6546C47.7768 51.6303 47.7123 51.6016 47.65 51.5687L47.3074 51.617L47.4958 51.2008L46.8641 51.4917C46.9108 51.4246 46.9649 51.3523 46.9937 51.2998L47.0754 51.1672C47.0852 51.1517 47.163 51.062 46.9324 51.2358L46.6977 51.4223L46.3109 51.7413L44.9579 52.8848C44.2797 53.4447 43.8915 53.7961 43.6533 54.0013Z" fill="#FFBCA5"/>
<path d="M57.3928 50.5748C56.7596 50.8144 57.1744 50.6766 57.1897 50.6745L57.2857 50.6756C57.3279 50.6696 57.4008 50.6594 57.3984 50.6701L57.4336 50.7675L56.9316 51.0638L57.3632 51.0176L56.9472 51.285L57.4074 51.2202L56.8012 51.5541L57.0411 51.5767L57.1228 51.6571L57.2231 51.7307L57.1172 51.8813L57.8536 51.7212L57.0892 52.1129L57.6508 52.0171L57.8778 52.0457L57.675 52.2309L57.7308 52.3212L57.5075 52.5135L57.8942 52.4819L58.1713 52.4909L57.784 52.7544L58.1707 52.7228L57.8249 52.9616L58.4701 52.8352L57.9946 53.111L58.3983 53.075L57.7568 53.4223L58.6159 53.2177L58.4449 53.3922L57.9019 53.7026L58.4522 53.6104L58.3758 53.7486L58.0191 53.9931L58.7965 53.8188L58.7573 53.9434L58.5212 54.1416L58.8393 54.1365L58.497 54.3727L58.4857 54.487L59.1124 54.3674L58.3833 54.7458L58.6196 54.771L58.5583 54.9049L59.1144 54.812L58.5714 55.1224L59.1255 55.0297L58.9936 55.1903L58.659 55.4254L59.0458 55.3939L58.8745 55.5663L59.0344 55.6189L59.3022 55.6313L59.4471 55.6882L59.5308 55.7683L59.3745 55.9365L59.4729 56.0103L59.4879 56.1168L59.222 56.3255L59.3374 56.3949L59.8648 56.3206L59.8705 56.4305L59.8852 56.5349L59.5914 56.7538L59.6285 56.8509L59.7904 56.9033L59.6063 57.0817L60.2329 56.9621L60.0507 57.1402L60.2626 57.173L59.9929 57.3823L60.1378 57.4391L60.2753 57.4991C60.3105 57.513 60.0314 57.6421 60.4178 57.525C60.483 57.5158 60.4216 57.5516 61.2304 57.2539L61.6019 57.1138L62.2652 56.8658L62.6733 56.7081C62.7107 56.6957 62.7471 56.6801 62.7821 56.6614C62.8005 56.6254 62.6704 56.6459 62.6256 56.6334L62.5791 56.5397L62.4025 56.4935L62.5828 56.3157L62.8526 56.1064L62.6275 56.0776L62.8321 55.8921L62.6051 55.8635L62.5196 55.7837L62.5902 55.6463L62.1884 55.6821L62.4376 55.4799L62.6089 55.3075L62.3374 55.2956L62.6533 55.0673L62.5604 54.9906L62.4042 54.9374L62.7725 54.6913L62.3858 54.7228L62.0381 54.7405L62.5199 54.4533L62.5588 54.3267L61.919 54.4503L62.4935 54.1271L61.968 54.2011L61.994 54.0805L62.048 53.9497L62.3938 53.7109L62.4403 53.5832L61.8266 53.6968L61.7336 53.6201L62.4922 53.2292L61.8469 53.3556L61.8768 53.2345L62.4311 52.9204L61.9228 52.992L61.5358 53.0215L62.2944 52.6306L61.5876 52.7782L62.0325 52.5067L61.5954 52.5557L62.1625 52.2356L61.4335 52.3926L61.8419 52.1263L61.4068 52.175L61.9665 51.8581L61.5259 51.9097L61.4275 51.8359L62.0969 51.4784L62.0411 51.3881L61.8831 51.3352L61.1579 51.4917L61.2212 51.3575L61.7642 51.047L61.8627 50.8995L61.0649 51.0808L61.6246 50.7639L61.1298 50.8336L61.364 50.6356L61.0924 50.6238L61.0495 50.5275L61.0662 50.4103L61.5053 50.1395L61.5612 50.0085L61.5295 49.9085L60.8599 50.0425L61.1332 49.8307L61.676 49.5182L61.5718 49.4452L61.2835 49.4398L61.6091 49.2102L60.9918 49.3264L61.1729 49.2236L61.3067 49.1463C61.324 49.1439 61.4275 49.0875 61.1744 49.1649C60.9212 49.2424 60.309 49.4644 58.8978 49.9848L57.3928 50.5748Z" fill="#FFBCA5"/>
<path d="M175.745 231.876L220.214 231.766L193.34 168.88L205.501 142.333L226.939 172.208L245.056 231.766H289.141L267.867 155.675C267.071 153.062 265.809 150.586 264.134 148.44L217.853 89.075L217.798 89.1025C217.634 88.6349 217.442 88.1672 217.249 87.7271L169.706 107.259L151.177 162.718C150.024 166.156 150.161 169.898 151.534 173.254L175.745 231.876Z" fill="white"/>
<path d="M166.55 128.138C165.534 127.423 164.381 126.928 163.201 126.625C162.35 130.311 157.299 145.799 157.162 146.267C162.487 148.248 168.389 145.524 170.366 140.187C171.985 135.758 170.42 130.807 166.55 128.138Z" fill="#82B1FF"/>
<path d="M165.426 187.063C171.095 187.063 175.692 182.457 175.692 176.775C175.692 171.093 171.095 166.486 165.426 166.486C159.756 166.486 155.159 171.093 155.159 176.775C155.159 182.457 159.756 187.063 165.426 187.063Z" fill="#82B1FF"/>
<path d="M175.84 30.1444L175.843 30.1416C177.932 28.5516 178.651 25.8678 178.167 23.601C177.702 21.4188 176.087 19.5141 173.425 19.3203C171.285 15.5774 167.275 12.3681 164.391 10.1354C164.192 9.98128 163.999 9.83253 163.814 9.68909C162.771 8.88465 161.945 8.247 161.429 7.76555C169.525 7.82213 176.948 10.5322 183.577 15.1932L183.577 15.1935C190.43 20.0061 194.906 26.2933 196.313 32.8923L196.44 33.4859H197.047C201.892 33.4859 206.663 34.5759 211.031 36.6473C211.017 36.6483 211.004 36.6494 210.99 36.6504C210.273 36.7059 209.63 36.7556 209.141 36.7452L209.136 36.7451C208.598 36.7375 206.359 36.9192 203.364 37.1838C200.337 37.4513 196.467 37.8109 192.609 38.1719C191.64 38.2626 190.671 38.3534 189.717 38.4429C186.871 38.7096 184.152 38.9646 181.916 39.1699C178.903 39.4464 176.822 39.6274 176.447 39.6336C176.222 39.6368 176.132 39.6021 176.106 39.5875C176.098 39.5727 176.063 39.5 176.048 39.2778C176.04 39.1535 176.039 39.0139 176.04 38.8435C176.04 38.8241 176.04 38.8042 176.04 38.7839C176.041 38.6351 176.041 38.4658 176.036 38.2959C176.022 37.9138 175.975 37.4457 175.772 36.9962C175.701 36.8367 175.628 36.6582 175.552 36.4726C175.386 36.0681 175.206 35.6294 175.012 35.2788C174.835 34.9582 174.608 34.6321 174.298 34.3724C174.983 33.0737 175.465 31.6747 175.713 30.2318C175.755 30.2052 175.797 30.1762 175.84 30.1444L175.84 30.1444ZM160.958 7.24065C160.958 7.24067 160.958 7.24159 160.959 7.24338C160.958 7.24153 160.958 7.24063 160.958 7.24065ZM160.728 7.8037C160.724 7.80559 160.722 7.8064 160.721 7.80633C160.721 7.80626 160.723 7.80532 160.728 7.8037ZM176.098 39.5812C176.098 39.581 176.1 39.5825 176.104 39.5861C176.099 39.5832 176.097 39.5814 176.098 39.5812Z" fill="white" stroke="#3C4043" stroke-width="1.5"/>
<path d="M333.473 277.899C333.473 273.635 330.481 269.949 326.309 269.069L304.788 264.612C301.631 263.952 299.078 261.669 298.063 258.615L289.169 231.794H245.084V277.899L262.24 278.175V261.201L279.397 278.175L333.473 277.899Z" fill="#E7F1FF"/>
<path d="M279.396 279.001C279.176 279.001 278.984 278.918 278.819 278.753L263.063 263.155V278.148C263.063 278.368 262.981 278.588 262.816 278.726C262.651 278.863 262.432 278.973 262.212 278.973L245.056 278.698C244.617 278.698 244.232 278.313 244.232 277.873V231.795C244.232 231.327 244.589 230.969 245.056 230.969H289.141C289.498 230.969 289.8 231.189 289.909 231.547L298.803 258.369C299.736 261.147 302.07 263.21 304.924 263.815L326.445 268.272C331.002 269.235 334.241 273.251 334.269 277.9C334.269 278.368 333.912 278.726 333.445 278.726L279.396 279.001ZM262.24 260.377C262.459 260.377 262.651 260.459 262.816 260.624L279.725 277.35L332.594 277.075C332.21 273.526 329.602 270.61 326.116 269.867L304.595 265.411C301.164 264.696 298.364 262.192 297.266 258.864L288.564 232.62H245.907V277.075L261.416 277.323V261.202C261.416 260.734 261.8 260.377 262.24 260.377Z" fill="#3C4043"/>
<path d="M236.109 180.681C235.917 180.681 235.725 180.626 235.587 180.489L226.446 172.896C226.09 172.594 226.035 172.098 226.337 171.741C226.639 171.383 227.133 171.328 227.49 171.631L236.63 179.223C236.987 179.526 237.042 180.021 236.74 180.379C236.603 180.571 236.356 180.681 236.109 180.681Z" fill="#3C4043"/>
<path d="M131.441 277.982C131.441 277.982 134.433 270.032 138.606 269.151L160.127 264.695C163.283 264.035 165.836 261.751 166.852 258.698L175.746 231.876H219.831V277.982L203.059 277.789V261.201L197.431 277.899L131.441 277.982Z" fill="#E7F1FF"/>
<path d="M219.83 278.807L203.058 278.615C202.619 278.615 202.234 278.23 202.234 277.79V266.236L198.199 278.175C198.089 278.505 197.76 278.725 197.431 278.725L131.441 278.807C130.974 278.807 130.617 278.45 130.617 277.982C130.617 277.872 130.645 277.79 130.672 277.68C130.809 277.349 133.884 269.289 138.44 268.326L159.961 263.87C162.816 263.265 165.149 261.201 166.083 258.423L174.976 231.601C175.086 231.271 175.416 231.024 175.745 231.024H219.83C220.297 231.024 220.653 231.381 220.653 231.849V277.982C220.653 278.45 220.297 278.807 219.83 278.807ZM176.349 232.702L167.647 258.946C166.522 262.274 163.749 264.778 160.318 265.493L138.77 269.977C136.162 270.527 133.801 274.681 132.676 277.184L196.827 277.102L202.262 260.954C202.399 260.514 202.866 260.294 203.305 260.431C203.634 260.541 203.854 260.871 203.854 261.201V276.964L218.979 277.129V232.702H176.349Z" fill="#3C4043"/>
<path d="M251.783 132.568L266.331 51.3601C267.786 43.1348 262.296 35.2946 254.061 33.8366C252.634 33.589 251.179 33.534 249.751 33.6991L176.844 40.6865L163.942 46.1883C163.448 46.4084 163.393 46.1883 162.762 47.2612L141.982 79.1996L126.336 76.4486L98.8857 94.8799L140.994 111.165C141.186 111.248 141.378 111.331 141.543 111.413C148.817 114.879 157.547 111.798 161.005 104.508C161.252 103.986 161.472 103.463 161.664 102.913L168.334 86.0769C168.993 88.6078 169.323 88.0301 168.856 90.4784C167.209 95.9253 167.374 101.757 169.323 107.094L217.36 88.0301C215.192 82.7758 211.376 78.3468 206.49 75.4583C204.486 73.9728 201.796 69.6263 201.796 69.6263L233.089 66.0226L226.995 100.822L251.783 132.568Z" fill="#FFED96"/>
<path d="M251.783 133.393C251.536 133.393 251.289 133.283 251.124 133.063L226.337 101.29C226.199 101.097 226.145 100.877 226.172 100.629L232.101 66.9854L203.224 70.314C204.13 71.6345 205.722 73.8352 206.957 74.7705C211.98 77.7691 215.906 82.3081 218.129 87.6999C218.294 88.1126 218.102 88.6078 217.69 88.7728C217.69 88.7728 217.69 88.7728 217.663 88.7728L169.625 107.837C169.213 108.002 168.719 107.809 168.554 107.369V107.342C166.55 101.84 166.358 95.8427 168.06 90.2308C168.252 89.268 168.307 88.8829 168.225 88.4977L162.406 103.133C159.661 111.22 150.877 115.512 142.834 112.761C142.257 112.568 141.708 112.348 141.187 112.073C140.994 111.991 140.83 111.908 140.693 111.853L98.5842 95.6502C98.1724 95.4851 97.9528 95.0174 98.1175 94.5773C98.1724 94.4122 98.2822 94.2747 98.4195 94.1922L125.87 75.7609C126.034 75.6508 126.254 75.5958 126.473 75.6233L141.598 78.2917L162.076 46.821C162.598 45.9407 162.872 45.6656 163.449 45.5006C163.504 45.4731 163.558 45.4731 163.641 45.4456L176.542 39.9437C176.625 39.9162 176.707 39.8887 176.789 39.8887L249.697 32.9013C258.426 31.911 266.304 38.2381 267.292 46.9861C267.457 48.4991 267.402 50.0121 267.155 51.5251L252.606 132.733C252.552 133.063 252.304 133.31 252.003 133.393C251.92 133.393 251.865 133.393 251.783 133.393ZM227.874 100.602L251.316 130.615L265.535 51.2225C266.908 43.4374 261.692 36.0374 253.951 34.6619C252.606 34.4143 251.234 34.3868 249.889 34.5243L177.091 41.5117L164.327 46.9586C164.217 47.0136 164.08 47.0411 163.97 47.0961C163.943 47.0961 163.943 47.0961 163.915 47.1236C163.778 47.3162 163.641 47.5088 163.531 47.7013C163.531 47.7013 163.531 47.7288 163.504 47.7288L142.724 79.6672C142.532 79.9423 142.202 80.0798 141.9 80.0248L126.583 77.3289L100.725 94.6873L141.351 110.395C141.543 110.478 141.736 110.56 141.955 110.67C148.818 113.944 157.053 111.028 160.319 104.151C160.539 103.655 160.759 103.16 160.923 102.665C160.923 102.665 160.923 102.638 160.951 102.638L167.621 85.8018C167.786 85.3892 168.28 85.1691 168.692 85.3341C168.939 85.4442 169.103 85.6367 169.186 85.8843C169.378 86.5721 169.515 87.0122 169.652 87.3698C170.037 88.4702 170.092 88.8553 169.735 90.671C169.735 90.6985 169.735 90.726 169.707 90.7535C168.198 95.7602 168.252 101.097 169.899 106.049L216.345 87.6174C214.204 82.8583 210.635 78.8694 206.161 76.201C206.133 76.1735 206.106 76.1735 206.079 76.146C203.965 74.578 201.275 70.2865 201.165 70.094C200.918 69.7088 201.055 69.1861 201.44 68.9661C201.549 68.911 201.659 68.856 201.769 68.856L233.062 65.2523C233.501 65.1973 233.913 65.5274 233.968 65.9675C233.968 66.0501 233.968 66.1326 233.968 66.2151L227.874 100.602Z" fill="#3C4043"/>
<path d="M173.934 238.588C173.879 238.588 173.824 238.588 173.742 238.561L136.904 230.281C133.994 229.62 132.155 226.732 132.786 223.816C133.445 220.9 136.327 219.057 139.237 219.69C139.676 219.772 140.088 219.937 140.472 220.13L174.291 236.993C174.702 237.186 174.867 237.681 174.648 238.093C174.538 238.423 174.236 238.588 173.934 238.588ZM138.084 221.23C135.998 221.23 134.323 222.908 134.323 224.971C134.323 226.732 135.559 228.272 137.261 228.658L167.483 235.452L139.759 221.615C139.237 221.368 138.661 221.23 138.084 221.23Z" fill="#3C4043"/>
<path d="M135.888 243.347C132.896 243.32 130.481 240.872 130.508 237.873C130.508 237.681 130.508 237.488 130.535 237.268C130.892 234.297 133.555 232.179 136.52 232.509L174.016 236.91C174.456 236.965 174.785 237.378 174.73 237.818C174.675 238.203 174.401 238.506 174.016 238.533L136.575 243.237C136.355 243.32 136.135 243.347 135.888 243.347ZM135.916 234.159C133.83 234.159 132.155 235.837 132.155 237.901C132.155 238.918 132.567 239.881 133.281 240.596C134.104 241.422 135.229 241.807 136.382 241.642L167.099 237.763L136.327 234.159C136.218 234.159 136.08 234.159 135.916 234.159Z" fill="#3C4043"/>
<path d="M115.19 68.0027C113.516 76.2555 111.402 83.463 108.19 84.1782C105.335 84.8109 104.951 80.5195 105.994 69.7358C103.085 79.9418 101.41 82.5827 98.4455 83.0503C95.4809 83.518 95.0691 77.6035 97.3749 69.7358C95.0691 75.8979 94.575 77.0533 92.6535 77.6585C90.3477 78.3737 90.0458 73.9997 90.8693 69.7633L90.8967 69.4332C91.4732 64.8391 94.2731 63.7938 96.5514 63.8213C97.9239 63.8488 99.2964 63.5737 100.559 63.0235C101.904 62.3908 103.441 62.2532 104.896 62.5834C106.488 62.996 108.135 62.996 109.727 62.5834C111.978 61.9782 114.559 61.8681 116.315 63.8213C118.566 66.2971 117.825 70.396 117.825 70.396L123.013 70.7536L118.429 73.3945L130.974 66.1871C132.813 65.1142 134.844 67.2875 133.636 69.0756L128.695 76.4481C126.17 78.2912 120.076 84.3433 114.778 87.8645C113.653 92.5411 108.739 95.9522 103.002 95.6771C96.6063 95.402 91.6379 90.6979 91.8575 85.1961C91.9398 83.0503 93.5319 78.5663 94.6025 76.173" fill="#FFF1ED"/>
<path d="M103.58 96.5298C103.36 96.5298 103.168 96.5298 102.949 96.5023C96.1135 96.1997 90.7607 91.1104 91.0352 85.1684C91.1175 83.5454 91.941 80.7944 92.792 78.4561C92.1057 78.6487 91.392 78.4836 90.843 78.016C89.3333 76.668 89.4431 72.7892 90.047 69.6256L90.0744 69.3505V69.323C90.7881 63.5461 94.8507 62.9684 96.5527 62.9959C97.8154 63.0234 99.0506 62.7758 100.204 62.2806C101.741 61.5654 103.443 61.4003 105.09 61.7855C106.544 62.1431 108.082 62.1431 109.537 61.7855C112.776 60.9052 115.274 61.4003 116.948 63.271C118.787 65.2791 118.87 68.1951 118.76 69.6531L122.85 69.9282L130.563 65.4717C131.908 64.7015 133.665 65.1691 134.434 66.5171C134.983 67.4524 134.928 68.6353 134.324 69.5156L129.383 76.8881C129.328 76.9706 129.273 77.0256 129.191 77.0807C128.285 77.7409 126.885 78.9788 125.238 80.4368C122.383 82.9677 118.842 86.1037 115.521 88.3595C114.148 93.2012 109.262 96.5298 103.58 96.5298ZM95.1527 77.0256C94.137 79.419 92.7645 83.4078 92.6822 85.2509C92.4626 90.2852 97.1017 94.6041 103.031 94.8792C108.329 95.0993 112.913 92.1008 113.956 87.6993C114.011 87.5067 114.121 87.3141 114.313 87.2041C117.607 85.0034 121.23 81.8123 124.14 79.2539C125.732 77.8509 127.132 76.613 128.093 75.8978L132.979 68.6353C133.336 68.0851 133.198 67.3423 132.649 66.9847C132.265 66.7371 131.799 66.7096 131.387 66.9297L123.454 71.4963L118.87 74.1372C118.458 74.3572 117.964 74.2197 117.744 73.8071C117.524 73.4219 117.662 72.9268 118.046 72.7067L120.297 71.4137L117.799 71.2487C117.332 71.2212 117.003 70.8085 117.03 70.3684C117.03 70.3409 117.03 70.3134 117.03 70.2859C117.03 70.2583 117.662 66.5446 115.713 64.3988C114.478 63.0234 112.583 62.6933 109.948 63.4085C108.219 63.8487 106.435 63.8487 104.705 63.4085C103.443 63.1059 102.098 63.2435 100.89 63.7936C99.4898 64.3988 97.9801 64.7015 96.4703 64.6739C94.5488 64.6739 92.2155 65.5267 91.7214 69.5431L91.694 69.8457C91.694 69.8732 91.694 69.9007 91.694 69.9282C91.0077 73.4769 91.2822 76.2279 91.9685 76.8331C92.0234 76.8881 92.1332 76.9706 92.4351 76.8881C93.0116 76.723 93.5331 76.3654 93.89 75.8703C93.9174 75.7877 93.9723 75.7327 94.0272 75.6777C94.6586 74.6874 95.3448 72.9268 96.635 69.4881C96.7997 69.0479 97.2664 68.8554 97.7056 68.9929C98.1173 69.158 98.3369 69.5706 98.1997 70.0108C96.2782 76.5855 96.4978 80.8219 97.5134 82.0048C97.7056 82.2524 98.035 82.3625 98.3369 82.2799C100.698 81.8948 102.262 79.9691 105.227 69.5431C105.364 69.1029 105.803 68.8554 106.243 68.9654C106.627 69.0754 106.874 69.4331 106.846 69.8457C106.297 75.4576 105.858 82.0599 107.231 83.2703C107.368 83.3803 107.56 83.4904 108.054 83.4078C111.431 82.6651 113.681 71.5238 114.423 67.865C114.505 67.4249 114.944 67.1223 115.383 67.2323C115.823 67.3148 116.125 67.755 116.015 68.1951C113.764 79.2814 111.485 84.3156 108.384 85.0034C107.588 85.2234 106.737 85.0309 106.133 84.5082C105.007 83.4904 104.541 81.2621 104.705 76.668C102.811 81.7297 101.164 83.4628 98.584 83.8755C97.7056 84.0405 96.8272 83.7104 96.2782 83.0502C95.2076 81.8398 94.9605 79.6115 95.1527 77.0256Z" fill="#3C4043"/>
<path d="M233.006 67.2881C232.677 67.2881 232.375 67.0681 232.238 66.7655L229.163 58.9803C228.999 58.5677 229.191 58.0725 229.603 57.9074C230.014 57.7424 230.508 57.935 230.673 58.3476C230.673 58.3476 230.673 58.3476 230.673 58.3751L232.622 63.2993L233.418 57.8799C233.473 57.4398 233.885 57.1097 234.351 57.1647C234.791 57.2197 235.12 57.6323 235.065 58.1V58.1275L233.83 66.6004C233.775 66.958 233.473 67.2606 233.116 67.2881C233.061 67.2881 233.034 67.2881 233.006 67.2881Z" fill="#3C4043"/>
<path d="M256.229 138.29C256.943 138.4 257.684 138.483 258.48 138.593C266.88 139.666 290.349 136.502 289.224 130.835C288.538 127.396 282.581 129.432 271.08 130.312C281.126 127.754 286.836 119.694 284.777 116.723C282.718 113.752 275.938 120.904 268.197 122.912C272.479 119.364 275.307 111.909 273.303 109.955C270.393 107.149 266.605 112.349 263.723 115.54C257.382 122.61 252.853 113.312 247.28 111.111C244.096 109.845 239.786 111.028 237.179 113.889" fill="#FFF1ED"/>
<path d="M262.351 139.61C261.034 139.61 259.689 139.555 258.371 139.39C257.575 139.28 256.834 139.197 256.12 139.087C255.681 139.032 255.352 138.62 255.407 138.152C255.461 137.684 255.873 137.382 256.34 137.437C257.054 137.547 257.795 137.629 258.591 137.739C266.167 138.702 284.202 136.309 287.88 132.32C288.539 131.605 288.429 131.11 288.401 130.944C288.072 129.266 285.382 129.514 279.343 130.229C276.982 130.504 274.292 130.834 271.108 131.082C270.641 131.11 270.257 130.779 270.23 130.312C270.202 129.899 270.449 129.541 270.861 129.459C277.778 127.698 282.719 123.187 284.037 119.638C284.449 118.565 284.449 117.685 284.064 117.135C283.323 116.089 280.798 117.575 277.833 119.281C275.171 120.821 271.849 122.747 268.363 123.654C267.924 123.765 267.485 123.517 267.347 123.049C267.265 122.747 267.375 122.417 267.622 122.196C270.751 119.611 272.975 114.907 273.084 112.128C273.112 111.33 272.975 110.753 272.673 110.45C272.316 110.065 271.849 109.872 271.328 109.872C269.543 109.955 267.237 112.596 265.371 114.741C264.987 115.182 264.63 115.594 264.273 115.979C259.359 121.454 255.242 118.043 251.646 114.989C250.109 113.696 248.517 112.376 246.924 111.743C244.07 110.588 240.117 111.688 237.729 114.301C237.427 114.631 236.905 114.659 236.576 114.356C236.246 114.054 236.219 113.531 236.521 113.201C239.376 110.065 244.015 108.827 247.528 110.23C249.367 110.945 251.042 112.376 252.689 113.724C256.724 117.107 259.387 118.95 263.065 114.851C263.422 114.466 263.779 114.054 264.136 113.614C266.304 111.11 268.775 108.277 271.273 108.194C272.233 108.167 273.167 108.524 273.826 109.212C274.484 109.845 274.786 110.835 274.731 112.128C274.649 114.466 273.277 118.015 271.08 120.876C273.112 119.968 275.088 118.923 277.01 117.767C280.825 115.567 283.817 113.806 285.409 116.117C286.123 117.135 286.151 118.51 285.547 120.133C284.476 122.994 281.374 126.378 276.9 128.771C277.669 128.689 278.41 128.606 279.096 128.524C282.198 128.166 284.613 127.863 286.37 128.001C287.139 128.056 289.499 128.221 289.966 130.559C290.103 131.247 290.048 132.292 289.033 133.365C285.437 137.437 271.026 139.61 262.351 139.61Z" fill="#3C4043"/>
<path d="M175.746 232.702C175.417 232.702 175.115 232.509 174.978 232.179L150.767 173.556C149.312 170.008 149.175 166.074 150.382 162.443L168.911 106.984C168.993 106.764 169.158 106.571 169.378 106.489L216.921 86.9569C217.333 86.7918 217.8 86.9844 217.992 87.397C218.157 87.8097 218.321 88.1673 218.458 88.5249C218.458 88.5524 218.486 88.5524 218.486 88.5799L264.767 147.945C266.524 150.173 267.814 152.732 268.637 155.455L289.911 231.574C290.021 232.014 289.774 232.481 289.335 232.591C289.252 232.619 289.197 232.619 289.115 232.619H245.058C244.701 232.619 244.371 232.371 244.262 232.041L226.172 172.621L205.639 144.011L194.22 168.935L220.929 231.491C221.121 231.904 220.902 232.399 220.49 232.564C220.38 232.619 220.27 232.619 220.16 232.619L175.746 232.702ZM170.366 107.892L151.974 162.993C150.876 166.239 151.014 169.788 152.331 172.951L176.323 231.051L218.98 230.941L192.601 169.21C192.518 168.99 192.518 168.742 192.601 168.55L204.761 142.003C204.953 141.59 205.447 141.398 205.859 141.59C205.996 141.646 206.106 141.756 206.188 141.866L227.627 171.741C227.682 171.823 227.709 171.906 227.737 171.988L245.661 230.941H288.044L267.073 155.895C266.304 153.365 265.096 151.026 263.477 148.936L217.388 89.8179C217.223 89.7078 217.086 89.5703 217.031 89.3777C216.976 89.1852 216.894 88.9926 216.811 88.8L170.366 107.892Z" fill="#3C4043"/>
<path d="M148.377 32.8184L147.746 19.2287L154.334 14.002L166.522 25.3633C166.522 22.3373 168.965 19.889 171.985 19.889C175.004 19.889 177.447 22.3373 177.447 25.3633C177.392 28.5819 174.647 30.2325 174.647 30.2325C174.51 31.1953 174.235 32.1031 173.879 33.0109C173.769 33.286 173.659 33.5336 173.522 33.7812L175.8 39.8057L176.541 41.8414C176.898 42.6392 177.063 43.5195 177.063 44.3998C177.063 48.3336 173.879 51.5247 169.953 51.5247C167.043 51.5247 164.408 49.7366 163.338 46.9857L162.981 45.9953L161.252 41.5388C161.224 41.5388 161.197 41.5388 161.169 41.5388C155.514 41.5388 150.464 38.1002 148.377 32.8184Z" fill="#FFF1ED"/>
<path d="M169.953 52.3497C166.687 52.3497 163.75 50.3415 162.569 47.2879L162.213 46.2701L160.675 42.3638C154.856 42.1987 149.723 38.5675 147.609 33.1481C147.582 33.0656 147.554 32.9831 147.554 32.873L146.923 19.2834C146.923 19.0083 147.033 18.7607 147.225 18.5957L153.813 13.3689C154.142 13.1213 154.581 13.1213 154.883 13.4239L165.918 23.6849C166.852 20.3288 170.338 18.3481 173.687 19.3109C174.757 19.6135 175.718 20.1912 176.487 20.9615C177.639 22.1444 178.298 23.7399 178.271 25.3905C178.216 28.3615 176.212 30.1496 175.389 30.7548C175.224 31.6351 174.977 32.5154 174.62 33.3682C174.565 33.5333 174.483 33.6983 174.4 33.8634L176.541 39.5578L177.283 41.5935C177.667 42.5013 177.859 43.4641 177.859 44.4545C177.887 48.7735 174.345 52.3497 169.953 52.3497ZM161.252 40.7132C161.581 40.7132 161.911 40.9333 162.02 41.2359L163.75 45.6924L164.107 46.7103C165.369 49.9564 169.02 51.5244 172.259 50.259C174.647 49.3236 176.24 46.9853 176.24 44.3995C176.24 43.6292 176.102 42.8865 175.773 42.1712C175.773 42.1437 175.773 42.1437 175.745 42.1162L175.004 40.0805L172.726 34.0835C172.644 33.8634 172.644 33.6433 172.753 33.4232C172.891 33.1481 173 32.9281 173.083 32.6805C173.44 31.8552 173.659 30.9749 173.796 30.0946C173.824 29.847 173.989 29.6544 174.181 29.5169C174.263 29.4619 176.541 28.0314 176.569 25.3355C176.596 24.1251 176.13 22.9697 175.279 22.0894C173.495 20.2462 170.53 20.2187 168.691 22.0068C167.812 22.8871 167.291 24.07 167.291 25.3355C167.291 25.8031 166.934 26.1608 166.467 26.1608C166.248 26.1608 166.056 26.0782 165.918 25.9407L154.252 15.0745L148.542 19.586L149.146 32.5979C151.123 37.4946 155.872 40.6857 161.115 40.6582H161.252V40.7132Z" fill="#3C4043"/>
<path d="M161.169 42.3645C160.703 42.3645 160.346 42.0069 160.346 41.5392C160.346 41.0715 160.703 40.7139 161.169 40.7139C163.146 40.6864 165.095 40.2463 166.879 39.421C167.291 39.2284 167.785 39.421 167.977 39.8336C168.169 40.2463 167.977 40.7414 167.565 40.934C165.561 41.8418 163.365 42.337 161.169 42.3645Z" fill="#3C4043"/>
<path d="M156.843 37.6506H153.824C153.357 37.6506 153 37.2929 153 36.8253C153 36.3576 153.357 36 153.824 36H156.843C157.31 36 157.667 36.3576 157.667 36.8253C157.667 37.2929 157.31 37.6506 156.843 37.6506Z" fill="#3C4043"/>
<path d="M169.788 27.2893C169.322 27.2893 168.965 26.9317 168.965 26.464C168.965 26.299 169.02 26.1339 169.102 25.9964L171.682 22.2551C171.929 21.87 172.451 21.7875 172.835 22.035C173.22 22.2826 173.302 22.8053 173.055 23.1904C173.055 23.1904 173.055 23.2179 173.027 23.2179L171.435 25.5012L174.043 25.2536C174.51 25.2261 174.894 25.5562 174.949 25.9964C174.976 26.464 174.647 26.8492 174.208 26.9042L169.843 27.2893C169.843 27.2893 169.816 27.2893 169.788 27.2893Z" fill="#3C4043"/>
<path d="M165.532 23.8391C163.017 23.6274 160.609 22.593 158.671 20.9194L159.346 7.86841C166.757 6.89855 173.572 11.9955 174.792 19.3273C173.132 18.5441 171.279 18.7172 169.69 19.4362C167.827 20.2789 166.216 21.9119 165.532 23.8391Z" fill="white" stroke="#3C4043" stroke-width="1.5"/>
<path d="M157.546 31.8555C158.107 31.8555 158.562 31.3998 158.562 30.8377C158.562 30.2755 158.107 29.8198 157.546 29.8198C156.985 29.8198 156.53 30.2755 156.53 30.8377C156.53 31.3998 156.985 31.8555 157.546 31.8555Z" fill="#3C4043"/>
<path d="M154.311 34.1782C154.284 34.1782 154.256 34.1782 154.256 34.1782L150.77 33.9032C150.304 33.8756 149.974 33.463 150.002 33.0229C150.002 32.9403 150.029 32.8853 150.056 32.8028L152.994 24.55C153.158 24.1098 153.625 23.8897 154.037 24.0548C154.476 24.2199 154.696 24.6875 154.531 25.1002L151.951 32.3351L154.366 32.5277C154.833 32.5552 155.162 32.9678 155.135 33.408C155.107 33.8481 154.75 34.1782 154.311 34.1782Z" fill="#3C4043"/>
<path d="M172.122 31.6632C171.655 31.6632 171.299 31.3056 171.299 30.8379C171.299 30.3703 171.655 30.0127 172.122 30.0127C174.702 30.0127 176.789 27.9219 176.789 25.3361C176.789 22.7502 174.702 20.6595 172.122 20.6595C169.542 20.6595 167.456 22.7502 167.456 25.3361C167.456 25.8037 167.099 26.1613 166.632 26.1613C166.165 26.1613 165.809 25.8037 165.809 25.3361C165.809 21.8424 168.636 19.0089 172.122 19.0089C175.608 19.0089 178.436 21.8424 178.436 25.3361C178.436 28.8298 175.581 31.6632 172.122 31.6632Z" fill="#3C4043"/>
<path d="M195.61 153.642L177.206 112.427V71.1853H115C113.084 78.7982 111.055 82.3955 108.459 82.9726C108.231 83.0244 107.998 83.0511 107.765 83.0521C107.18 83.0621 106.613 82.8527 106.175 82.4654C105.025 81.4476 104.567 79.1931 104.725 74.5662C102.833 79.6804 101.178 81.436 98.5691 81.847C98.1401 81.9271 97.6975 81.8921 97.2864 81.7456C96.8752 81.5991 96.5102 81.3464 96.2285 81.013C95.157 79.7935 94.8965 77.4684 95.1102 74.7973C94.5586 75.5717 93.7574 76.1328 92.8411 76.3863C92.4905 76.5113 92.1128 76.5396 91.7475 76.4685C91.3822 76.3974 91.0427 76.2293 90.7647 75.9819C89.8004 75.1166 89.4898 73.2493 89.5452 71.187H59.8311V112.427L78.2342 153.642L59.8311 194.884L78.2342 236.126L59.8311 277.34H177.206L195.61 236.126L177.206 194.884L195.61 153.642Z" fill="white"/>
<path d="M177.207 278.172H59.8316C59.6929 278.172 59.5564 278.137 59.4346 278.071C59.3127 278.005 59.2094 277.909 59.1339 277.793C59.0585 277.676 59.0133 277.543 59.0026 277.405C58.9919 277.266 59.0159 277.128 59.0724 277.001L77.3242 236.126L59.0722 195.222C59.0246 195.116 59 195 59 194.884C59 194.767 59.0246 194.651 59.0722 194.545L77.3242 153.642L59.0724 112.766C59.0248 112.659 59.0001 112.544 59.0001 112.427V71.185C59.0001 70.9645 59.0877 70.753 59.2436 70.5971C59.3996 70.4411 59.6111 70.3535 59.8316 70.3535H89.5463C89.6574 70.3535 89.7674 70.3757 89.8698 70.4189C89.9722 70.4621 90.0649 70.5254 90.1424 70.605C90.2199 70.6847 90.2807 70.779 90.3211 70.8826C90.3615 70.9861 90.3808 71.0966 90.3777 71.2077C90.3223 73.2588 90.6651 74.774 91.3201 75.3619C91.4911 75.5134 91.7005 75.6149 91.9254 75.6553C92.1503 75.6957 92.3819 75.6734 92.595 75.5908C93.3422 75.3901 93.9954 74.9339 94.4411 74.3015C94.5487 74.1565 94.7005 74.0504 94.8736 73.9993C95.0467 73.9483 95.2318 73.9549 95.4008 74.0183C95.5699 74.0817 95.7137 74.1984 95.8105 74.3507C95.9074 74.503 95.952 74.6828 95.9377 74.8627C95.7224 77.5573 96.0469 79.5468 96.8524 80.4634C97.0414 80.6917 97.2888 80.8645 97.5683 80.9633C97.8478 81.0621 98.1488 81.0832 98.4394 81.0244C100.463 80.7059 102.012 79.5 103.944 74.2765C104.013 74.0912 104.145 73.9363 104.318 73.8397C104.49 73.743 104.691 73.7109 104.885 73.7491C105.079 73.7872 105.253 73.8932 105.376 74.0479C105.498 74.2027 105.562 74.3961 105.555 74.5936C105.412 78.7638 105.773 80.9991 106.725 81.8426C106.938 82.0193 107.191 82.1408 107.462 82.1963C107.733 82.2518 108.013 82.2396 108.278 82.1607C110.519 81.6618 112.399 78.1102 114.193 70.9821C114.239 70.8024 114.343 70.6429 114.489 70.529C114.635 70.4151 114.815 70.3534 115.001 70.3535H177.207C177.428 70.3535 177.639 70.4411 177.795 70.5971C177.951 70.753 178.038 70.9645 178.038 71.185V112.25L196.369 153.302C196.417 153.409 196.442 153.525 196.442 153.641C196.442 153.758 196.417 153.874 196.369 153.981L178.117 194.884L196.37 235.787C196.417 235.893 196.442 236.009 196.442 236.126C196.442 236.243 196.417 236.358 196.37 236.465L177.966 277.679C177.901 277.826 177.794 277.95 177.66 278.038C177.525 278.125 177.368 278.172 177.207 278.172ZM61.1134 276.509H176.668L194.7 236.126L176.448 195.222C176.4 195.116 176.375 195 176.375 194.884C176.375 194.767 176.4 194.651 176.448 194.545L194.7 153.642L176.448 112.766C176.4 112.659 176.376 112.544 176.376 112.427V72.0165H115.646C113.674 79.6033 111.565 83.1336 108.639 83.7841C108.352 83.8488 108.059 83.882 107.764 83.8833C106.976 83.8933 106.213 83.6096 105.623 83.0876C104.665 82.2392 104.129 80.804 103.941 78.4196C102.496 81.0925 100.914 82.3184 98.6979 82.6674C98.1305 82.7683 97.5465 82.7193 97.0038 82.5252C96.461 82.3312 95.9784 81.9988 95.6035 81.561C94.7135 80.5471 94.2477 78.9179 94.2116 76.7042C93.8552 76.9006 93.4794 77.0596 93.0902 77.1784C92.6015 77.3456 92.0772 77.3801 91.5708 77.2784C91.0644 77.1766 90.5941 76.9424 90.2078 76.5994C89.2622 75.751 88.76 74.2114 88.7112 72.0165H60.663V112.25L78.9938 153.302C79.0415 153.409 79.0661 153.525 79.0661 153.641C79.0661 153.758 79.0415 153.874 78.9938 153.981L60.742 194.884L78.9941 235.787C79.0417 235.893 79.0663 236.009 79.0663 236.126C79.0663 236.243 79.0417 236.358 78.9941 236.465L61.1134 276.509Z" fill="#3C4043"/>
<path d="M177.207 112.981H59.8315C59.6109 112.981 59.3995 112.894 59.2435 112.738C59.0876 112.582 59 112.37 59 112.15C59 111.929 59.0876 111.718 59.2435 111.562C59.3995 111.406 59.6109 111.318 59.8315 111.318H177.207C177.427 111.318 177.639 111.406 177.795 111.562C177.951 111.718 178.038 111.929 178.038 112.15C178.038 112.37 177.951 112.582 177.795 112.738C177.639 112.894 177.427 112.981 177.207 112.981Z" fill="#3C4043"/>
<path d="M177.207 195.438H59.8315C59.6109 195.438 59.3995 195.351 59.2435 195.195C59.0876 195.039 59 194.827 59 194.607C59 194.386 59.0876 194.175 59.2435 194.019C59.3995 193.863 59.6109 193.775 59.8315 193.775H177.207C177.427 193.775 177.639 193.863 177.795 194.019C177.951 194.175 178.038 194.386 178.038 194.607C178.038 194.827 177.951 195.039 177.795 195.195C177.639 195.351 177.427 195.438 177.207 195.438Z" fill="#3C4043"/>
<path d="M195.611 154.224H78.2358C78.0152 154.224 77.8038 154.136 77.6478 153.98C77.4919 153.824 77.4043 153.613 77.4043 153.392C77.4043 153.172 77.4919 152.96 77.6478 152.804C77.8038 152.648 78.0152 152.561 78.2358 152.561H195.611C195.832 152.561 196.043 152.648 196.199 152.804C196.355 152.96 196.443 153.172 196.443 153.392C196.443 153.613 196.355 153.824 196.199 153.98C196.043 154.136 195.832 154.224 195.611 154.224Z" fill="#3C4043"/>
<path d="M195.057 236.68H78.2358C78.0152 236.68 77.8038 236.592 77.6478 236.436C77.4919 236.28 77.4043 236.069 77.4043 235.848C77.4043 235.628 77.4919 235.416 77.6478 235.26C77.8038 235.104 78.0152 235.017 78.2358 235.017H195.057C195.277 235.017 195.489 235.104 195.645 235.26C195.801 235.416 195.888 235.628 195.888 235.848C195.888 236.069 195.801 236.28 195.645 236.436C195.489 236.592 195.277 236.68 195.057 236.68Z" fill="#3C4043"/>
<path d="M200.555 223.868L200.348 223.664C194.642 218.026 194.588 208.796 200.227 203.089C201.49 201.811 202.961 200.788 204.599 200.05C205 199.869 205.472 200.048 205.652 200.449C205.833 200.85 205.654 201.322 205.253 201.503C203.795 202.16 202.485 203.071 201.361 204.209C196.339 209.291 196.387 217.51 201.468 222.53L201.674 222.733C205.138 226.145 210.163 227.33 214.788 225.825C215.206 225.69 215.656 225.919 215.792 226.337C215.928 226.755 215.699 227.204 215.28 227.341C210.087 229.03 204.445 227.7 200.555 223.868Z" fill="#E7F1FF"/>
<path d="M211.739 217.1L204.782 215.29L209.139 210.872L211.739 217.1Z" fill="#FFF1ED"/>
<path d="M274.115 214.809L272.218 223.229L270.328 224.18L263.689 218.049L274.115 214.809Z" fill="#FFF1ED"/>
<path d="M283.935 218.188C283.814 218.318 283.649 218.41 283.459 218.436C283.023 218.496 282.621 218.192 282.561 217.756C282.151 214.801 280.717 212.06 278.522 210.039C273.273 205.193 265.066 205.518 260.223 210.762L260.026 210.975C255.302 216.091 255.453 223.964 260.371 228.898C260.681 229.21 260.681 229.712 260.369 230.025C260.058 230.335 259.553 230.335 259.242 230.023C253.719 224.482 253.549 215.64 258.855 209.894L259.052 209.681C264.491 203.792 273.709 203.426 279.6 208.867C282.067 211.139 283.678 214.218 284.139 217.538C284.173 217.783 284.091 218.019 283.935 218.188Z" fill="#E7F1FF"/>
<path d="M94.2784 100H96.0341V95.5966H98.4205C98.4602 95.5966 98.4943 95.5966 98.5341 95.5966L100.898 100H102.898L100.318 95.2898C101.744 94.7614 102.455 93.5739 102.455 92.0114C102.455 89.8693 101.125 88.3636 98.4261 88.3636H94.2784V100ZM96.0341 94.0852V89.8693H98.2386C99.9716 89.8693 100.688 90.6932 100.688 92.0114C100.688 93.3239 99.9716 94.0852 98.2614 94.0852H96.0341ZM109.983 96.3807C109.989 97.8636 108.886 98.5682 107.932 98.5682C106.881 98.5682 106.153 97.8068 106.153 96.6193V91.2727H104.455V96.8239C104.455 98.9886 105.642 100.114 107.318 100.114C108.631 100.114 109.523 99.4205 109.926 98.4886H110.017V100H111.688V91.2727H109.983V96.3807ZM115.669 88.3636H113.97V100H115.669V88.3636ZM121.716 100.176C123.619 100.176 124.966 99.2386 125.352 97.8182L123.744 97.5284C123.438 98.3523 122.699 98.7727 121.733 98.7727C120.278 98.7727 119.301 97.8295 119.256 96.1477H125.46V95.5455C125.46 92.392 123.574 91.1591 121.597 91.1591C119.165 91.1591 117.562 93.0114 117.562 95.6932C117.562 98.4034 119.142 100.176 121.716 100.176ZM119.261 94.875C119.33 93.6364 120.227 92.5625 121.608 92.5625C122.926 92.5625 123.79 93.5398 123.795 94.875H119.261ZM135.972 88.3636H134.261L131.358 90.2614V91.9432L134.142 90.125H134.21V100H135.972V88.3636Z" fill="#E4E5E7"/>
<path d="M103.153 138H104.909V133.597H107.295C107.335 133.597 107.369 133.597 107.409 133.597L109.773 138H111.773L109.193 133.29C110.619 132.761 111.33 131.574 111.33 130.011C111.33 127.869 110 126.364 107.301 126.364H103.153V138ZM104.909 132.085V127.869H107.114C108.847 127.869 109.562 128.693 109.562 130.011C109.562 131.324 108.847 132.085 107.136 132.085H104.909ZM118.858 134.381C118.864 135.864 117.761 136.568 116.807 136.568C115.756 136.568 115.028 135.807 115.028 134.619V129.273H113.33V134.824C113.33 136.989 114.517 138.114 116.193 138.114C117.506 138.114 118.398 137.42 118.801 136.489H118.892V138H120.562V129.273H118.858V134.381ZM124.544 126.364H122.845V138H124.544V126.364ZM130.591 138.176C132.494 138.176 133.841 137.239 134.227 135.818L132.619 135.528C132.312 136.352 131.574 136.773 130.608 136.773C129.153 136.773 128.176 135.83 128.131 134.148H134.335V133.545C134.335 130.392 132.449 129.159 130.472 129.159C128.04 129.159 126.438 131.011 126.438 133.693C126.438 136.403 128.017 138.176 130.591 138.176ZM128.136 132.875C128.205 131.636 129.102 130.562 130.483 130.562C131.801 130.562 132.665 131.54 132.67 132.875H128.136ZM140.432 138H148.091V136.494H142.852V136.409L145.165 133.989C147.295 131.835 147.903 130.807 147.903 129.506C147.903 127.636 146.381 126.205 144.188 126.205C142.011 126.205 140.42 127.614 140.42 129.739H142.097C142.091 128.489 142.898 127.67 144.153 127.67C145.335 127.67 146.233 128.398 146.233 129.557C146.233 130.585 145.619 131.324 144.369 132.648L140.432 136.727V138Z" fill="#E4E5E7"/>
<path d="M102.903 179H104.659V174.597H107.045C107.085 174.597 107.119 174.597 107.159 174.597L109.523 179H111.523L108.943 174.29C110.369 173.761 111.08 172.574 111.08 171.011C111.08 168.869 109.75 167.364 107.051 167.364H102.903V179ZM104.659 173.085V168.869H106.864C108.597 168.869 109.312 169.693 109.312 171.011C109.312 172.324 108.597 173.085 106.886 173.085H104.659ZM118.608 175.381C118.614 176.864 117.511 177.568 116.557 177.568C115.506 177.568 114.778 176.807 114.778 175.619V170.273H113.08V175.824C113.08 177.989 114.267 179.114 115.943 179.114C117.256 179.114 118.148 178.42 118.551 177.489H118.642V179H120.312V170.273H118.608V175.381ZM124.294 167.364H122.595V179H124.294V167.364ZM130.341 179.176C132.244 179.176 133.591 178.239 133.977 176.818L132.369 176.528C132.062 177.352 131.324 177.773 130.358 177.773C128.903 177.773 127.926 176.83 127.881 175.148H134.085V174.545C134.085 171.392 132.199 170.159 130.222 170.159C127.79 170.159 126.188 172.011 126.188 174.693C126.188 177.403 127.767 179.176 130.341 179.176ZM127.886 173.875C127.955 172.636 128.852 171.562 130.233 171.562C131.551 171.562 132.415 172.54 132.42 173.875H127.886ZM144.233 179.159C146.608 179.159 148.352 177.739 148.347 175.807C148.352 174.335 147.46 173.278 145.915 173.04V172.949C147.131 172.636 147.92 171.682 147.915 170.375C147.92 168.665 146.517 167.205 144.278 167.205C142.142 167.205 140.426 168.494 140.369 170.386H142.068C142.108 169.318 143.114 168.67 144.256 168.67C145.443 168.67 146.222 169.392 146.216 170.466C146.222 171.591 145.318 172.33 144.028 172.33H143.045V173.761H144.028C145.642 173.761 146.574 174.58 146.574 175.75C146.574 176.881 145.591 177.648 144.222 177.648C142.96 177.648 141.977 177 141.909 175.966H140.125C140.199 177.864 141.881 179.159 144.233 179.159Z" fill="#E4E5E7"/>
<path d="M102.825 220H104.581V215.597H106.967C107.007 215.597 107.041 215.597 107.081 215.597L109.445 220H111.445L108.865 215.29C110.291 214.761 111.001 213.574 111.001 212.011C111.001 209.869 109.672 208.364 106.973 208.364H102.825V220ZM104.581 214.085V209.869H106.786C108.518 209.869 109.234 210.693 109.234 212.011C109.234 213.324 108.518 214.085 106.808 214.085H104.581ZM118.53 216.381C118.536 217.864 117.433 218.568 116.479 218.568C115.428 218.568 114.7 217.807 114.7 216.619V211.273H113.001V216.824C113.001 218.989 114.189 220.114 115.865 220.114C117.178 220.114 118.07 219.42 118.473 218.489H118.564V220H120.234V211.273H118.53V216.381ZM124.216 208.364H122.517V220H124.216V208.364ZM130.263 220.176C132.166 220.176 133.513 219.239 133.899 217.818L132.291 217.528C131.984 218.352 131.246 218.773 130.28 218.773C128.825 218.773 127.848 217.83 127.803 216.148H134.007V215.545C134.007 212.392 132.121 211.159 130.143 211.159C127.712 211.159 126.109 213.011 126.109 215.693C126.109 218.403 127.689 220.176 130.263 220.176ZM127.808 214.875C127.876 213.636 128.774 212.562 130.155 212.562C131.473 212.562 132.337 213.54 132.342 214.875H127.808ZM139.859 217.727H145.376V220H147.053V217.727H148.592V216.239H147.053V208.364H144.888L139.859 216.307V217.727ZM145.388 216.239H141.7V216.148L145.297 210.455H145.388V216.239Z" fill="#E4E5E7"/>
<path d="M103.099 261H104.854V256.597H107.241C107.281 256.597 107.315 256.597 107.354 256.597L109.718 261H111.718L109.138 256.29C110.565 255.761 111.275 254.574 111.275 253.011C111.275 250.869 109.945 249.364 107.246 249.364H103.099V261ZM104.854 255.085V250.869H107.059C108.792 250.869 109.508 251.693 109.508 253.011C109.508 254.324 108.792 255.085 107.082 255.085H104.854ZM118.803 257.381C118.809 258.864 117.707 259.568 116.752 259.568C115.701 259.568 114.974 258.807 114.974 257.619V252.273H113.275V257.824C113.275 259.989 114.462 261.114 116.138 261.114C117.451 261.114 118.343 260.42 118.746 259.489H118.837V261H120.508V252.273H118.803V257.381ZM124.489 249.364H122.79V261H124.489V249.364ZM130.536 261.176C132.44 261.176 133.786 260.239 134.173 258.818L132.565 258.528C132.258 259.352 131.519 259.773 130.553 259.773C129.099 259.773 128.121 258.83 128.076 257.148H134.281V256.545C134.281 253.392 132.394 252.159 130.417 252.159C127.985 252.159 126.383 254.011 126.383 256.693C126.383 259.403 127.962 261.176 130.536 261.176ZM128.082 255.875C128.15 254.636 129.048 253.562 130.428 253.562C131.746 253.562 132.61 254.54 132.616 255.875H128.082ZM144.218 261.159C146.559 261.159 148.229 259.506 148.224 257.239C148.229 254.989 146.661 253.352 144.542 253.352C143.678 253.352 142.877 253.682 142.423 254.125H142.354L142.724 250.869H147.661V249.364H141.263L140.61 255.227L142.218 255.466C142.656 255.074 143.44 254.807 144.144 254.807C145.525 254.818 146.525 255.852 146.525 257.273C146.525 258.67 145.553 259.682 144.218 259.682C143.093 259.682 142.201 258.966 142.11 257.966H140.406C140.474 259.818 142.082 261.159 144.218 261.159Z" fill="#E4E5E7"/>
<path d="M238.991 131.531C238.987 131.535 238.984 131.539 238.981 131.543L238.801 131.768C233.799 138.033 224.631 139.06 218.365 134.057C212.098 129.054 211.069 119.886 216.071 113.621L216.252 113.395C216.253 113.393 216.255 113.392 216.256 113.39C219.794 108.958 225.636 106.981 231.14 108.353C231.567 108.46 231.827 108.892 231.721 109.319C231.614 109.746 231.182 110.006 230.755 109.899C225.854 108.678 220.652 110.438 217.501 114.385C217.5 114.386 217.499 114.388 217.498 114.389L217.317 114.616C212.863 120.194 213.779 128.357 219.359 132.812C224.939 137.267 233.102 136.353 237.556 130.774L237.736 130.548C237.739 130.544 237.742 130.541 237.745 130.537C239.539 128.29 240.539 125.471 240.563 122.597C240.566 122.157 240.926 121.803 241.366 121.807C241.806 121.811 242.16 122.171 242.156 122.611C242.13 125.84 241.006 129.007 238.991 131.531Z" fill="#E7F1FF"/>
<path d="M230.002 128.225L221.465 121.408L231.635 117.427L230.002 128.225Z" fill="#FFF1ED"/>
<path d="M251.487 176.004C251.863 172.143 250.713 168.366 248.249 165.368C245.783 162.367 242.296 160.506 238.43 160.127C234.561 159.748 230.777 160.899 227.774 163.368C227.318 163.744 226.88 164.151 226.472 164.579C226.168 164.897 226.18 165.401 226.498 165.705C226.817 166.009 227.321 165.997 227.625 165.678C227.989 165.297 228.38 164.934 228.787 164.599C231.46 162.4 234.83 161.375 238.275 161.713C241.717 162.05 244.822 163.707 247.018 166.379C249.211 169.049 250.235 172.412 249.901 175.85C249.901 175.854 249.9 175.856 249.9 175.859L249.872 176.148C249.18 183.251 242.836 188.469 235.73 187.779C235.286 187.733 234.834 187.661 234.393 187.566C233.963 187.474 233.539 187.748 233.447 188.179C233.355 188.61 233.629 189.032 234.06 189.124C234.556 189.23 235.064 189.311 235.57 189.365C243.556 190.14 250.681 184.28 251.458 176.302L251.486 176.014C251.487 176.011 251.487 176.008 251.487 176.004Z" fill="#E7F1FF"/>
<path d="M244.787 170.058L233.916 169L238.436 178.941L244.787 170.058Z" fill="#FFF1ED"/>
<path d="M193.243 112.695L189.05 116.544L189.966 111.663L193.243 112.695Z" fill="#FFF1ED"/>
<path d="M190.109 128.293L189.829 128.355C189.038 128.531 188.228 128.642 187.419 128.684C186.98 128.708 186.605 128.37 186.582 127.931C186.559 127.491 186.895 127.117 187.336 127.093C188.056 127.055 188.779 126.956 189.483 126.8L189.763 126.738C196.733 125.187 201.141 118.254 199.59 111.283C198.652 107.049 195.679 103.586 191.635 102.02C191.225 101.862 191.021 101.4 191.18 100.99C191.339 100.579 191.8 100.376 192.211 100.534C196.752 102.293 200.092 106.182 201.146 110.938C202.887 118.766 197.936 126.552 190.109 128.293Z" fill="#E7F1FF"/>
</svg>
