<svg xmlns="http://www.w3.org/2000/svg" fill="none" viewBox="0 0 335 281"><path fill="#E7F1FF" d="M330.009 39.288v-1.006h-.041L329.961 0H0v281h330.009l-.007-40.532h.007v-1.006h-.007l-.007-39.241h.014v-1.006h-.014l-.007-39.192h.021v-1.006h-.021l-.007-39.239h.028v-1.006h-.028l-.007-39.24h.035v-1.006h-.035l-.007-39.239h.042zm-1.051-38.186v37.18h-39.196V1.102h39.196zm-40.2 0v37.18h-40.486V1.102h40.486zM164.813 119.78h40.965v39.239h-40.965v-39.239zm-1.003 39.239h-40.965v-39.239h40.965v39.239zm1.003-40.245v-39.24h40.965v39.24h-40.965zm-1.003 0h-40.965v-39.24h40.965v39.24zm-41.969 0H80.828v-39.24h41.012l.001 39.24zm0 1.006v39.239H80.828v-39.239h41.013zm0 40.245v39.191H80.828v-39.191h41.013zm1.004 0h40.965v39.191h-40.965v-39.191zm41.968 0h40.965v39.191h-40.965v-39.191zm41.968 0h40.487v39.191h-40.487v-39.191zm0-1.006v-39.239h40.487v39.239h-40.487zm0-40.245v-39.24h40.487v39.24h-40.487zm0-40.246v-39.24h40.487v39.24h-40.487zm-1.003 0h-40.965v-39.24h40.965v39.24zm-41.968 0h-40.965v-39.24h40.965v39.24zm-41.969 0H80.828v-39.24h41.012l.001 39.24zm-42.015 0H38.86v-39.24h40.965v39.24zm0 1.006v39.24H38.86v-39.24h40.965zm0 40.246v39.239H38.86v-39.239h40.965zm0 40.245v39.191H38.86v-39.191h40.965zm0 40.198v39.239H38.86v-39.24l40.965.001zm1.003 0h41.012v39.239H80.828l.001-39.239zm42.016 0h40.965v39.239h-40.965v-39.239zm41.968 0h40.965v39.239h-40.965v-39.239zm41.968 0h40.487v39.239h-40.487v-39.239zm41.491 0h40.486v39.239h-40.486v-39.239zm0-1.007v-39.191h40.486v39.191h-40.486zm0-40.197v-39.239h40.486v39.239h-40.486zm0-40.245v-39.24h40.486v39.24h-40.486zm0-40.246v-39.24h40.486v39.24h-40.486zm-1.004-77.425v37.18h-40.487V1.102h40.487zm-41.49 0v37.18h-40.965V1.102h40.965zm-41.968 0v37.18h-40.965V1.102h40.965zm-41.969 0v37.18H80.828V1.102h41.013zm-42.015 0v37.18H38.86V1.102h40.965zm-78.774 0h36.806v37.18H1.052V1.102zm0 38.185h36.806v39.24H1.052v-39.24zm0 40.246h36.806v39.24H1.052v-39.24zm0 40.246h36.806v39.239H1.052v-39.239zm0 40.245h36.806v39.191H1.052v-39.191zm0 40.198h36.806v39.239H1.052v-39.239zm0 79.724v-39.479h36.806v39.479H1.052zm37.81 0v-39.479h40.964v39.479H38.86zm41.967 0v-39.479h41.012v39.479H80.829zm42.016 0v-39.479h40.965v39.479h-40.965zm41.968 0v-39.479h40.965v39.479h-40.965zm41.968 0v-39.479h40.487v39.479h-40.487zm41.491 0v-39.479h40.486v39.479h-40.486zm80.687 0h-39.197v-39.479h39.196l.001 39.479zm0-40.485h-39.197v-39.24h39.196l.001 39.24zm0-40.245h-39.197v-39.192h39.196l.001 39.192zm0-40.198h-39.197v-39.239h39.196l.001 39.239zm0-40.245h-39.197v-39.24h39.196l.001 39.24zm0-40.246h-39.197v-39.24h39.196l.001 39.24z"/><path fill="#FFBCA5" d="M39.363 68.945c-.2.696-.044.244-.033.226l.17-.198.139.069-.045.666.263-.373-.017.57.29-.427-.088.777.218-.187.16-.008.17-.024.106.207.4-.754-.147.958.339-.555.216-.17.056.32.152.022.048.341.28-.351.235-.234-.014.533.277-.37v.484l.377-.653-.05.633.288-.35-.117.816.469-.894.066.283-.082.714.346-.541.101.186-.013.508.438-.802.114.136.035.36.26-.274-.014.482.123.105.384-.628-.165.923.224-.178.105.164.357-.547-.097.716.359-.547.074.246-.012.48.292-.365.055.294.187-.084.241-.215.188-.076.166-.005.06.275.172-.024.134.08.012.397.179-.04.359-.52.133.084.138.069.002.423.148.046c.065-.028.138-.076.204-.11l.059.276.403-.616.06.27.227-.145.026.352.197-.081.189-.069c.045-.016-.031.275.153-.093.03-.06.034.019.352-.784l.145-.373.253-.657.172-.413a.487.487 0 0 0 .033-.114c-.024-.049-.106.05-.155.068l-.142-.066-.189.068-.042-.304-.011-.398-.217.124-.036-.343-.22.135a1.163 1.163 0 0 0-.162-.017l-.1-.186-.304.359-.02-.385-.057-.292-.25.215.007-.461-.173.012-.2.087.027-.524-.302.358-.282.31.075-.655c-.039-.046-.08-.088-.119-.135l-.407.657.108-.75-.353.513-.123-.123-.11-.154.008-.49-.116-.145-.419.619-.17.024.175-.965-.398.656-.122-.124.095-.728-.328.484-.288.349.168-.962-.416.72.04-.605-.307.412.094-.74-.423.748.025-.558-.305.41.08-.73-.307.415-.175.025.096-.854-.158-.024-.197.094-.411.742-.114-.16.08-.705-.102-.2-.435.826.07-.726-.328.488-.05-.353-.235.233-.16-.053-.132-.106.021-.585-.118-.15-.15-.048-.378.68-.042-.395.051-.695-.18.047c-.08.081-.173.178-.246.265l-.038-.413-.357.62.018-.234.016-.184c-.003-.022.026-.154-.07.113-.094.268-.31.934-.786 2.511l-.503 1.696zM43.653 54.001c-.535.48-.172.2-.16.199l.105-.003a.262.262 0 0 0 .085-.012l.045-.007.134.153-.323.554.478-.143-.261.499.493-.163-.422.643.311-.001.176.118.19.102.016.263.747-.394-.55.776.589-.26h.301l-.067.338.156.133-.083.355.44-.132.344-.049-.222.49.44-.137-.201.464.657-.349-.292.562.45-.154-.432.695.838-.522-.03.313-.345.628.576-.283.05.237-.195.47.765-.471.079.19-.084.374.388-.1-.172.465.107.187.635-.366-.49.798.313-.032.066.225.576-.314-.324.651.576-.317.013.283-.154.458.436-.17-.013.318.249.03.338-.068.236.04.186.094-.008.312.2.08.129.159-.096.417.21.065.557-.32.126.163c.045.05.094.098.14.146l-.11.438.158.127.26.008-.017.333.635-.437v.313l.307-.043c-.02.13-.039.256-.055.381l.255.009.245.018c.05.015-.08.245.231-.057.05-.05.05.017.584-.633l.237-.313.432-.539c.124-.141.237-.292.338-.451-.001-.079-.09-.048-.157-.045l-.143-.133-.24-.017.027-.337.102-.418-.277.03c.019-.123.04-.249.053-.364l-.3.053-.186-.081-.06-.228-.443.216.085-.394.014-.31-.344.096.138-.449-.197-.07-.248-.01.18-.492-.438.199-.402.155.272-.591-.087-.19-.64.412.35-.668-.547.3-.093-.19-.07-.21.171-.466-.073-.204-.617.378-.192-.08.515-.82-.649.397-.089-.19.35-.636-.527.276-.43.161.526-.806-.702.434.261-.538-.475.202.368-.637-.734.432.236-.503-.475.196.366-.627-.478.197-.191-.085.46-.71-.153-.12-.24-.037-.71.415-.05-.22.357-.599-.02-.243-.786.466.376-.61-.534.229.097-.351-.342.048-.138-.136-.087-.19.276-.507-.052-.21-.126-.144-.674.349.137-.379.367-.576a1.583 1.583 0 0 1-.193-.086l-.343.048.189-.416-.632.29c.047-.066.1-.139.13-.191l.081-.133c.01-.015.088-.105-.143.069l-.234.186-.387.32-1.353 1.143c-.678.56-1.066.911-1.305 1.116zM57.393 50.575c-.633.24-.219.102-.203.1h.096c.042-.005.115-.016.112-.005l.036.097-.502.297.431-.046-.416.267.46-.065-.606.334.24.023.082.08.1.074-.106.15.737-.16-.765.392.562-.096.227.029-.203.185.056.09-.224.193.387-.032.277.009-.387.263.387-.031-.346.239.645-.127-.475.276.403-.036-.641.347.859-.204-.171.174-.543.31.55-.092-.076.139-.357.244.778-.174-.04.124-.236.199.318-.006-.342.237-.011.114.626-.12-.729.379.237.025-.062.134.556-.093-.543.31.555-.092-.132.16-.335.235.387-.031-.172.172.16.053.268.012.145.057.084.08-.157.169.099.073.015.107-.266.209.115.069.528-.074.005.11.015.104-.294.219.038.097.161.052-.184.179.627-.12-.182.178.212.033-.27.21.145.056.137.06c.035.014-.244.143.143.026.065-.01.004.027.812-.271l.372-.14.663-.248.408-.158a.695.695 0 0 0 .11-.047c.017-.036-.113-.015-.157-.028l-.047-.093-.176-.047.18-.177.27-.21-.226-.028.205-.186-.227-.029-.085-.08.07-.137-.402.036.25-.202.17-.172-.27-.012.315-.229-.093-.076-.156-.054.368-.246-.386.032-.348.017.482-.287.039-.126-.64.123.575-.323-.526.074.026-.12.054-.131.346-.24.046-.127-.613.114-.093-.077.758-.39-.645.126.03-.122.554-.314-.508.072-.387.03.758-.391-.706.147.444-.271-.437.049.568-.32-.73.157.409-.267-.435.049.56-.317-.441.052-.099-.074.67-.358-.056-.09-.158-.053-.725.157.063-.134.543-.311.099-.147-.798.18.56-.316-.495.07.234-.198-.272-.012-.042-.096.016-.118.44-.27.055-.132-.032-.1-.67.134.274-.211.543-.313-.104-.073-.289-.005.326-.23-.617.116.18-.102.135-.078c.017-.002.12-.059-.133.019-.253.077-.865.3-2.276.82l-1.505.59z"/><path fill="#fff" d="M175.745 231.876l44.469-.11-26.874-62.886 12.161-26.547 21.438 29.875 18.117 59.558h44.085l-21.274-76.091a22.385 22.385 0 0 0-3.733-7.235l-46.281-59.365-.055.028a19.695 19.695 0 0 0-.549-1.376l-47.543 19.532-18.529 55.459a15.132 15.132 0 0 0 .357 10.536l24.211 58.622z"/><path fill="#82B1FF" d="M166.55 128.138c-1.016-.715-2.169-1.21-3.349-1.513-.851 3.686-5.902 19.174-6.039 19.642 5.325 1.981 11.227-.743 13.204-6.08 1.619-4.429.054-9.38-3.816-12.049zM165.426 187.063c5.669 0 10.266-4.606 10.266-10.288s-4.597-10.289-10.266-10.289c-5.67 0-10.267 4.607-10.267 10.289 0 5.682 4.597 10.288 10.267 10.288z"/><path fill="#fff" stroke="#3C4043" stroke-width="1.5" d="M175.84 30.144l.003-.002c2.089-1.59 2.808-4.274 2.324-6.541-.465-2.182-2.08-4.087-4.742-4.28-2.14-3.744-6.15-6.953-9.034-9.186l-.577-.446c-1.043-.804-1.869-1.442-2.385-1.923 8.096.056 15.519 2.766 22.148 7.427h0c6.853 4.813 11.329 11.1 12.736 17.7l.127.593h.607c4.845 0 9.616 1.09 13.984 3.161l-.041.003c-.717.056-1.36.106-1.849.095h-.005c-.538-.008-2.777.174-5.772.439-3.027.267-6.897.627-10.755.988l-2.892.27c-2.846.268-5.565.523-7.801.728-3.013.276-5.094.457-5.469.464-.225.003-.315-.032-.341-.047-.008-.014-.043-.087-.058-.31a6.348 6.348 0 0 1-.008-.434v-.06c.001-.148.001-.317-.004-.487-.014-.382-.061-.85-.264-1.3-.071-.16-.144-.338-.22-.523-.166-.405-.346-.844-.54-1.194a3.147 3.147 0 0 0-.714-.907 13.956 13.956 0 0 0 1.415-4.14c.042-.027.084-.056.127-.088h0zM160.958 7.241l.001.002-.001-.002zm-.23.563a.021.021 0 0 1-.007.002l.007-.002zm15.37 31.777l.006.005-.006-.005z"/><path fill="#E7F1FF" d="M333.473 277.899a9.03 9.03 0 0 0-7.164-8.83l-21.521-4.457a9.027 9.027 0 0 1-6.725-5.997l-8.894-26.821h-44.085v46.105l17.156.276v-16.974l17.157 16.974 54.076-.276z"/><path fill="#3C4043" d="M279.396 279.001a.79.79 0 0 1-.577-.248l-15.756-15.598v14.993a.75.75 0 0 1-.247.578c-.165.137-.384.247-.604.247l-17.156-.275a.846.846 0 0 1-.824-.825v-46.078a.81.81 0 0 1 .824-.826h44.085a.79.79 0 0 1 .768.578l8.894 26.822a8.258 8.258 0 0 0 6.121 5.446l21.521 4.457c4.557.963 7.796 4.979 7.824 9.628a.81.81 0 0 1-.824.826l-54.049.275zm-17.156-18.624a.79.79 0 0 1 .576.247l16.909 16.726 52.869-.275c-.384-3.549-2.992-6.465-6.478-7.208l-21.521-4.456a9.847 9.847 0 0 1-7.329-6.547l-8.702-26.244h-42.657v44.455l15.509.248v-16.121c0-.468.384-.825.824-.825zM236.109 180.681a.728.728 0 0 1-.522-.192l-9.141-7.593c-.356-.302-.411-.798-.109-1.155.302-.358.796-.413 1.153-.11l9.14 7.592c.357.303.412.798.11 1.156a.78.78 0 0 1-.631.302z"/><path fill="#E7F1FF" d="M131.441 277.982s2.992-7.95 7.165-8.831l21.521-4.456a9.032 9.032 0 0 0 6.725-5.997l8.894-26.822h44.085v46.106l-16.772-.193v-16.588l-5.628 16.698-65.99.083z"/><path fill="#3C4043" d="M219.83 278.807l-16.772-.192a.846.846 0 0 1-.824-.825v-11.554l-4.035 11.939a.826.826 0 0 1-.768.55l-65.99.082a.81.81 0 0 1-.824-.825c0-.11.028-.192.055-.302.137-.331 3.212-8.391 7.768-9.354l21.521-4.456a8.261 8.261 0 0 0 6.122-5.447l8.893-26.822c.11-.33.44-.577.769-.577h44.085c.467 0 .823.357.823.825v46.133a.809.809 0 0 1-.823.825zm-43.481-46.105l-8.702 26.244c-1.125 3.328-3.898 5.832-7.329 6.547l-21.548 4.484c-2.608.55-4.969 4.704-6.094 7.207l64.151-.082 5.435-16.148c.137-.44.604-.66 1.043-.523.329.11.549.44.549.77v15.763l15.125.165v-44.427h-42.63z"/><path fill="#FFED96" d="M251.783 132.568l14.548-81.208c1.455-8.225-4.035-16.065-12.27-17.523a15.103 15.103 0 0 0-4.31-.138l-72.907 6.988-12.902 5.501c-.494.22-.549 0-1.18 1.073L141.982 79.2l-15.646-2.751-27.45 18.43 42.108 16.286c.192.083.384.166.549.248 7.274 3.466 16.004.385 19.462-6.905.247-.522.467-1.045.659-1.595l6.67-16.836c.659 2.53.989 1.953.522 4.401a26.274 26.274 0 0 0 .467 16.616L217.36 88.03a26.226 26.226 0 0 0-10.87-12.572c-2.004-1.485-4.694-5.832-4.694-5.832l31.293-3.603-6.094 34.799 24.788 31.746z"/><path fill="#3C4043" d="M251.783 133.393a.819.819 0 0 1-.659-.33l-24.787-31.773a.925.925 0 0 1-.165-.661l5.929-33.644-28.877 3.329c.906 1.32 2.498 3.521 3.733 4.457A27.114 27.114 0 0 1 218.129 87.7c.165.413-.027.908-.439 1.073h-.027l-48.038 19.064a.82.82 0 0 1-1.071-.468v-.027c-2.004-5.502-2.196-11.5-.494-17.111.192-.963.247-1.348.165-1.733l-5.819 14.635c-2.745 8.087-11.529 12.379-19.572 9.628a10.938 10.938 0 0 1-1.647-.688c-.193-.082-.357-.165-.494-.22L98.584 95.65a.834.834 0 0 1-.466-1.073.71.71 0 0 1 .302-.385l27.45-18.431a.898.898 0 0 1 .603-.138l15.125 2.669 20.478-31.471c.522-.88.796-1.155 1.373-1.32.055-.028.109-.028.192-.055l12.901-5.502c.083-.028.165-.055.247-.055l72.908-6.988c8.729-.99 16.607 5.337 17.595 14.085.165 1.513.11 3.026-.137 4.54l-14.549 81.207a.829.829 0 0 1-.603.66h-.22zm-23.909-32.791l23.442 30.013 14.219-79.393c1.373-7.785-3.843-15.185-11.584-16.56a14.379 14.379 0 0 0-4.062-.138l-72.798 6.988-12.764 5.447c-.11.055-.247.082-.357.137-.027 0-.027 0-.055.028-.137.192-.274.385-.384.577 0 0 0 .028-.027.028l-20.78 31.938a.84.84 0 0 1-.824.358l-15.317-2.696-25.858 17.358 40.626 15.708c.192.083.385.165.604.275 6.863 3.274 15.098.358 18.364-6.519.22-.496.44-.991.604-1.486 0 0 0-.027.028-.027l6.67-16.836a.843.843 0 0 1 1.071-.468c.247.11.411.303.494.55.192.688.329 1.128.466 1.486.385 1.1.44 1.485.083 3.301 0 .027 0 .055-.028.082-1.509 5.007-1.455 10.344.192 15.296l46.446-18.432a25.491 25.491 0 0 0-10.184-11.416c-.028-.027-.055-.027-.082-.055-2.114-1.568-4.804-5.86-4.914-6.052a.81.81 0 0 1 .275-1.128c.109-.055.219-.11.329-.11l31.293-3.604a.826.826 0 0 1 .906.716v.247l-6.094 34.387zM173.934 238.588c-.055 0-.11 0-.192-.027l-36.838-8.28a5.452 5.452 0 0 1-4.118-6.465c.659-2.916 3.541-4.759 6.451-4.126a4.68 4.68 0 0 1 1.235.44l33.819 16.863a.794.794 0 0 1 .357 1.1c-.11.33-.412.495-.714.495zm-35.85-17.358a3.747 3.747 0 0 0-3.761 3.741 3.796 3.796 0 0 0 2.938 3.687l30.222 6.794-27.724-13.837a3.939 3.939 0 0 0-1.675-.385z"/><path fill="#3C4043" d="M135.888 243.347a5.43 5.43 0 0 1-5.38-5.474c0-.192 0-.385.027-.605a5.422 5.422 0 0 1 5.985-4.759l37.496 4.401c.44.055.769.468.714.908-.055.385-.329.688-.714.715l-37.441 4.704c-.22.083-.44.11-.687.11zm.028-9.188a3.748 3.748 0 0 0-3.761 3.742c0 1.017.412 1.98 1.126 2.695a3.614 3.614 0 0 0 3.101 1.046l30.717-3.879-30.772-3.604h-.411z"/><path fill="#FFF1ED" d="M115.19 68.003c-1.674 8.252-3.788 15.46-7 16.175-2.855.633-3.239-3.659-2.196-14.442-2.909 10.206-4.584 12.847-7.549 13.314-2.964.468-3.376-5.447-1.07-13.314-2.306 6.162-2.8 7.317-4.722 7.922-2.305.716-2.607-3.658-1.784-7.895l.028-.33c.576-4.594 3.376-5.64 5.654-5.612a9.575 9.575 0 0 0 4.008-.797c1.345-.633 2.882-.77 4.337-.44a9.582 9.582 0 0 0 4.831 0c2.251-.606 4.832-.716 6.588 1.237 2.251 2.476 1.51 6.575 1.51 6.575l5.188.358-4.584 2.64 12.545-7.207c1.839-1.073 3.87 1.1 2.662 2.889l-4.941 7.372c-2.525 1.843-8.619 7.895-13.917 11.417-1.125 4.676-6.039 8.087-11.776 7.812-6.396-.275-11.364-4.98-11.144-10.48.082-2.147 1.674-6.63 2.745-9.024"/><path fill="#3C4043" d="M103.58 96.53c-.22 0-.412 0-.631-.028-6.835-.302-12.188-5.392-11.914-11.334.083-1.623.906-4.374 1.757-6.712a2.1 2.1 0 0 1-1.949-.44c-1.51-1.348-1.4-5.227-.796-8.39l.027-.276v-.027c.714-5.777 4.777-6.355 6.479-6.327a8.742 8.742 0 0 0 3.651-.715 7.477 7.477 0 0 1 4.886-.495 9.351 9.351 0 0 0 4.447 0c3.239-.88 5.737-.386 7.411 1.485 1.839 2.008 1.922 4.924 1.812 6.382l4.09.275 7.713-4.456c1.345-.77 3.102-.303 3.871 1.045a2.816 2.816 0 0 1-.11 2.999l-4.941 7.372a.648.648 0 0 1-.192.193c-.906.66-2.306 1.898-3.953 3.356-2.855 2.53-6.396 5.667-9.717 7.922-1.373 4.842-6.259 8.17-11.941 8.17zm-8.427-19.504c-1.016 2.393-2.389 6.382-2.47 8.225-.22 5.034 4.419 9.353 10.348 9.628 5.298.22 9.882-2.778 10.925-7.18.055-.192.165-.385.357-.495 3.294-2.2 6.917-5.392 9.827-7.95 1.592-1.403 2.992-2.641 3.953-3.356l4.886-7.263c.357-.55.219-1.293-.33-1.65a1.223 1.223 0 0 0-1.262-.055l-7.933 4.566-4.584 2.641a.818.818 0 0 1-1.126-.33.81.81 0 0 1 .302-1.1l2.251-1.293-2.498-.165a.828.828 0 0 1-.769-.88v-.083c0-.028.632-3.741-1.317-5.887-1.235-1.376-3.13-1.706-5.765-.99-1.729.44-3.513.44-5.243 0a5.9 5.9 0 0 0-3.815.385c-1.4.605-2.91.907-4.42.88-1.921 0-4.254.853-4.749 4.87l-.027.302v.082c-.686 3.549-.412 6.3.275 6.905.054.055.164.138.466.055a2.726 2.726 0 0 0 1.455-1.018c.027-.082.082-.137.137-.192.632-.99 1.318-2.751 2.608-6.19.165-.44.631-.633 1.07-.495.412.165.632.578.495 1.018-1.922 6.575-1.702 10.81-.687 11.994a.787.787 0 0 0 .824.275c2.361-.385 3.925-2.31 6.89-12.737a.843.843 0 0 1 1.016-.578c.384.11.631.468.603.88-.549 5.613-.988 12.215.385 13.425.137.11.329.22.823.138 3.377-.743 5.627-11.884 6.369-15.543.082-.44.521-.743.96-.633.44.083.742.523.632.963-2.251 11.086-4.53 16.12-7.631 16.808a2.453 2.453 0 0 1-2.251-.495c-1.126-1.018-1.592-3.246-1.428-7.84-1.894 5.062-3.541 6.795-6.121 7.207a2.418 2.418 0 0 1-2.306-.825c-1.07-1.21-1.318-3.438-1.125-6.024zM233.006 67.288c-.329 0-.631-.22-.768-.522l-3.075-7.786c-.164-.412.028-.907.44-1.073.411-.165.905.028 1.07.44v.028l1.949 4.924.796-5.42a.837.837 0 0 1 .933-.714c.44.055.769.467.714.935v.027L233.83 66.6c-.055.358-.357.66-.714.688h-.11z"/><path fill="#FFF1ED" d="M256.229 138.29c.714.11 1.455.193 2.251.303 8.4 1.073 31.869-2.091 30.744-7.758-.686-3.439-6.643-1.403-18.144-.523 10.046-2.558 15.756-10.618 13.697-13.589-2.059-2.971-8.839 4.181-16.58 6.189 4.282-3.548 7.11-11.003 5.106-12.957-2.91-2.806-6.698 2.394-9.58 5.585-6.341 7.07-10.87-2.228-16.443-4.429-3.184-1.266-7.494-.083-10.101 2.778"/><path fill="#3C4043" d="M262.351 139.61c-1.317 0-2.662-.055-3.98-.22-.796-.11-1.537-.193-2.251-.303a.837.837 0 0 1-.713-.935c.054-.468.466-.77.933-.715.714.11 1.455.192 2.251.302 7.576.963 25.611-1.43 29.289-5.419.659-.715.549-1.21.521-1.376-.329-1.678-3.019-1.43-9.058-.715-2.361.275-5.051.605-8.235.853a.81.81 0 0 1-.878-.77c-.028-.413.219-.771.631-.853 6.917-1.761 11.858-6.272 13.176-9.821.412-1.073.412-1.953.027-2.503-.741-1.046-3.266.44-6.231 2.146-2.662 1.54-5.984 3.466-9.47 4.373-.439.111-.878-.137-1.016-.605a.855.855 0 0 1 .275-.853c3.129-2.585 5.353-7.289 5.462-10.068.028-.798-.109-1.375-.411-1.678a1.786 1.786 0 0 0-1.345-.578c-1.785.083-4.091 2.724-5.957 4.869-.384.441-.741.853-1.098 1.238-4.914 5.475-9.031 2.064-12.627-.99-1.537-1.293-3.129-2.613-4.722-3.246-2.854-1.155-6.807-.055-9.195 2.558a.82.82 0 0 1-1.153.055.823.823 0 0 1-.055-1.155c2.855-3.136 7.494-4.374 11.007-2.971 1.839.715 3.514 2.146 5.161 3.494 4.035 3.383 6.698 5.226 10.376 1.127.357-.385.714-.797 1.071-1.237 2.168-2.504 4.639-5.337 7.137-5.42.96-.027 1.894.33 2.553 1.018.658.633.96 1.623.905 2.916-.082 2.338-1.454 5.887-3.651 8.748a55.25 55.25 0 0 0 5.93-3.109c3.815-2.2 6.807-3.961 8.399-1.65.714 1.018.742 2.393.138 4.016-1.071 2.861-4.173 6.245-8.647 8.638.769-.082 1.51-.165 2.196-.247 3.102-.358 5.517-.661 7.274-.523.769.055 3.129.22 3.596 2.558.137.688.082 1.733-.933 2.806-3.596 4.072-18.007 6.245-26.682 6.245z"/><path fill="#3C4043" d="M175.746 232.702a.827.827 0 0 1-.768-.523l-24.211-58.623a15.975 15.975 0 0 1-.385-11.113l18.529-55.459a.828.828 0 0 1 .467-.495l47.543-19.532a.839.839 0 0 1 1.071.44c.165.413.329.77.466 1.128 0 .027.028.027.028.055l46.281 59.365c1.757 2.228 3.047 4.787 3.87 7.51l21.274 76.119c.11.44-.137.907-.576 1.017-.083.028-.138.028-.22.028h-44.057a.859.859 0 0 1-.796-.578l-18.09-59.42-20.533-28.61-11.419 24.924 26.709 62.556c.192.413-.027.908-.439 1.073-.11.055-.22.055-.33.055l-44.414.083zm-5.38-124.81l-18.392 55.101a14.15 14.15 0 0 0 .357 9.958l23.992 58.1 42.657-.11-26.379-61.731a.905.905 0 0 1 0-.66l12.16-26.547a.833.833 0 0 1 1.098-.413.816.816 0 0 1 .329.276l21.439 29.875c.055.082.082.165.11.247l17.924 58.953h42.383l-20.971-75.046a21.548 21.548 0 0 0-3.596-6.959l-46.089-59.118c-.165-.11-.302-.248-.357-.44a4.879 4.879 0 0 0-.22-.578l-46.445 19.092z"/><path fill="#FFF1ED" d="M148.377 32.818l-.631-13.59 6.588-5.226 12.188 11.361a5.465 5.465 0 0 1 5.463-5.474 5.465 5.465 0 0 1 5.462 5.474c-.055 3.219-2.8 4.87-2.8 4.87-.137.962-.412 1.87-.768 2.778-.11.275-.22.523-.357.77l2.278 6.025.741 2.035c.357.798.522 1.678.522 2.559 0 3.934-3.184 7.125-7.11 7.125a7.103 7.103 0 0 1-6.615-4.54l-.357-.99-1.729-4.456h-.083c-5.655 0-10.705-3.439-12.792-8.72z"/><path fill="#3C4043" d="M169.953 52.35a7.918 7.918 0 0 1-7.384-5.062l-.356-1.018-1.538-3.906a14.46 14.46 0 0 1-13.066-9.216c-.027-.082-.055-.165-.055-.275l-.631-13.59c0-.275.11-.522.302-.687l6.588-5.227c.329-.248.768-.248 1.07.055l11.035 10.26c.934-3.355 4.42-5.336 7.769-4.373a6.44 6.44 0 0 1 2.8 1.65c1.152 1.183 1.811 2.779 1.784 4.43-.055 2.97-2.059 4.759-2.882 5.364-.165.88-.412 1.76-.769 2.613-.055.165-.137.33-.22.495l2.141 5.695.742 2.035c.384.908.576 1.871.576 2.861.028 4.32-3.514 7.896-7.906 7.896zm-8.701-11.637c.329 0 .659.22.768.523l1.73 4.456.357 1.018c1.262 3.246 4.913 4.814 8.152 3.549 2.388-.935 3.981-3.274 3.981-5.86 0-.77-.138-1.513-.467-2.228 0-.027 0-.027-.028-.055l-.741-2.035-2.278-5.998a.799.799 0 0 1 .027-.66c.138-.275.247-.495.33-.742.357-.826.576-1.706.713-2.586.028-.248.193-.44.385-.578.082-.055 2.36-1.486 2.388-4.181a4.512 4.512 0 0 0-1.29-3.247c-1.784-1.843-4.749-1.87-6.588-.082a4.71 4.71 0 0 0-1.4 3.328.81.81 0 0 1-.824.826.768.768 0 0 1-.549-.22l-11.666-10.866-5.71 4.511.604 13.012c1.977 4.897 6.726 8.088 11.969 8.06h.137v.055z"/><path fill="#3C4043" d="M161.169 42.364a.81.81 0 0 1-.823-.825.81.81 0 0 1 .823-.825 14.075 14.075 0 0 0 5.71-1.293.833.833 0 0 1 1.098.413.836.836 0 0 1-.412 1.1 16.06 16.06 0 0 1-6.396 1.43zM156.843 37.65h-3.019a.81.81 0 0 1-.824-.825.81.81 0 0 1 .824-.825h3.019a.81.81 0 0 1 .824.825.81.81 0 0 1-.824.826zM169.788 27.29a.81.81 0 0 1-.823-.826c0-.165.055-.33.137-.468l2.58-3.74c.247-.386.769-.468 1.153-.221.385.248.467.77.22 1.155 0 0 0 .028-.028.028l-1.592 2.283 2.608-.247a.851.851 0 0 1 .906.742.852.852 0 0 1-.741.908l-4.365.385h-.055z"/><path fill="#fff" stroke="#3C4043" stroke-width="1.5" d="M165.532 23.84c-2.515-.213-4.923-1.247-6.861-2.92l.675-13.052c7.411-.97 14.226 4.127 15.446 11.46-1.66-.784-3.513-.61-5.102.108-1.863.843-3.474 2.476-4.158 4.403z"/><path fill="#3C4043" d="M157.546 31.855a1.017 1.017 0 1 0-.002-2.033 1.017 1.017 0 0 0 .002 2.034zM154.311 34.178h-.055l-3.486-.275a.828.828 0 0 1-.768-.88c0-.083.027-.138.054-.22l2.938-8.253c.164-.44.631-.66 1.043-.495.439.165.659.633.494 1.045l-2.58 7.235 2.415.193c.467.027.796.44.769.88a.817.817 0 0 1-.824.77zM172.122 31.663a.809.809 0 0 1-.823-.825c0-.468.356-.825.823-.825 2.58 0 4.667-2.091 4.667-4.677a4.667 4.667 0 0 0-9.333 0 .81.81 0 0 1-.824.825.809.809 0 0 1-.823-.825c0-3.494 2.827-6.327 6.313-6.327 3.486 0 6.314 2.833 6.314 6.327 0 3.494-2.855 6.327-6.314 6.327z"/><path fill="#fff" d="M195.61 153.642l-18.404-41.215V71.185H115c-1.916 7.613-3.945 11.21-6.541 11.788a3.196 3.196 0 0 1-.694.08 2.34 2.34 0 0 1-1.59-.588c-1.15-1.017-1.608-3.272-1.45-7.899-1.892 5.114-3.547 6.87-6.156 7.281a2.47 2.47 0 0 1-2.34-.834c-1.072-1.22-1.332-3.545-1.119-6.216a4.142 4.142 0 0 1-2.269 1.59 2.076 2.076 0 0 1-2.076-.405c-.965-.865-1.275-2.733-1.22-4.795H59.831v41.24l18.403 41.215-18.403 41.242 18.403 41.242-18.403 41.214h117.375l18.404-41.214-18.404-41.242 18.404-41.242z"/><path fill="#3C4043" d="M177.207 278.172H59.832a.834.834 0 0 1-.76-1.171l18.252-40.875-18.252-40.904a.828.828 0 0 1 0-.677l18.252-40.903-18.252-40.876a.833.833 0 0 1-.072-.339V71.185a.831.831 0 0 1 .832-.832h29.714a.832.832 0 0 1 .832.855c-.056 2.05.287 3.566.942 4.154a1.245 1.245 0 0 0 1.275.229c.747-.2 1.4-.657 1.846-1.29a.832.832 0 0 1 1.497.562c-.216 2.694.109 4.684.914 5.6a1.638 1.638 0 0 0 1.587.561c2.024-.318 3.573-1.524 5.505-6.748a.832.832 0 0 1 1.611.318c-.143 4.17.218 6.405 1.17 7.249a1.683 1.683 0 0 0 1.553.318c2.241-.5 4.121-4.05 5.915-11.179a.838.838 0 0 1 .808-.629h62.206a.83.83 0 0 1 .831.832v41.065l18.331 41.052a.83.83 0 0 1 0 .679l-18.252 40.903 18.253 40.903a.839.839 0 0 1 0 .678l-18.404 41.214a.834.834 0 0 1-.759.493zm-116.094-1.663h115.555l18.032-40.383-18.252-40.904a.822.822 0 0 1 0-.677l18.252-40.903-18.252-40.876a.826.826 0 0 1-.072-.339v-40.41h-60.73c-1.972 7.586-4.081 11.117-7.007 11.767-.287.065-.58.098-.875.1a3.17 3.17 0 0 1-2.141-.796c-.958-.849-1.494-2.284-1.682-4.668-1.445 2.672-3.027 3.898-5.243 4.247a3.31 3.31 0 0 1-3.094-1.106c-.89-1.014-1.356-2.643-1.392-4.857a5.881 5.881 0 0 1-1.122.474 2.918 2.918 0 0 1-2.882-.579c-.946-.848-1.448-2.388-1.497-4.583H60.663v40.234l18.33 41.052a.834.834 0 0 1 0 .679l-18.251 40.903 18.252 40.903a.829.829 0 0 1 0 .678l-17.88 40.044z"/><path fill="#3C4043" d="M177.207 112.981H59.832a.83.83 0 1 1 0-1.663h117.375a.833.833 0 0 1 .588 1.42.832.832 0 0 1-.588.243zM177.207 195.438H59.832a.83.83 0 1 1 0-1.663h117.375a.833.833 0 0 1 .588 1.42.832.832 0 0 1-.588.243zM195.611 154.224H78.236a.832.832 0 0 1 0-1.663H195.61a.83.83 0 0 1 .588 1.419.831.831 0 0 1-.588.244zM195.057 236.68H78.236a.832.832 0 0 1 0-1.663h116.821a.832.832 0 1 1 0 1.663z"/><path fill="#E7F1FF" d="M200.555 223.868l-.207-.204c-5.706-5.638-5.76-14.868-.121-20.575a14.497 14.497 0 0 1 4.372-3.039.796.796 0 1 1 .654 1.453 12.9 12.9 0 0 0-3.892 2.706c-5.022 5.082-4.974 13.301.107 18.321l.206.203a12.925 12.925 0 0 0 13.114 3.092.797.797 0 0 1 .492 1.516 14.513 14.513 0 0 1-14.725-3.473z"/><path fill="#FFF1ED" d="M211.739 217.1l-6.957-1.81 4.357-4.418 2.6 6.228zM274.115 214.809l-1.897 8.42-1.89.951-6.639-6.131 10.426-3.24z"/><path fill="#E7F1FF" d="M283.935 218.188a.797.797 0 0 1-1.374-.432 12.93 12.93 0 0 0-4.039-7.717c-5.249-4.846-13.456-4.521-18.299.723l-.197.213a12.916 12.916 0 0 0 .345 17.923.797.797 0 0 1-1.129 1.125 14.505 14.505 0 0 1-.387-20.129l.197-.213c5.439-5.889 14.657-6.255 20.548-.814a14.532 14.532 0 0 1 4.539 8.671.796.796 0 0 1-.204.65z"/><path fill="#E4E5E7" d="M94.278 100h1.756v-4.403h2.5l2.364 4.403h2l-2.58-4.71c1.426-.529 2.137-1.716 2.137-3.279 0-2.142-1.33-3.647-4.029-3.647h-4.148V100zm1.756-5.915V89.87h2.205c1.733 0 2.449.824 2.449 2.142 0 1.313-.716 2.074-2.427 2.074h-2.227zm13.949 2.296c.006 1.483-1.097 2.187-2.051 2.187-1.051 0-1.779-.761-1.779-1.949v-5.346h-1.698v5.55c0 2.166 1.187 3.291 2.863 3.291 1.313 0 2.205-.694 2.608-1.625h.091V100h1.671v-8.727h-1.705v5.108zm5.686-8.017h-1.699V100h1.699V88.364zm6.047 11.812c1.903 0 3.25-.937 3.636-2.358l-1.608-.29c-.306.824-1.045 1.245-2.011 1.245-1.455 0-2.432-.944-2.477-2.625h6.204v-.602c0-3.154-1.886-4.387-3.863-4.387-2.432 0-4.035 1.852-4.035 4.534 0 2.71 1.58 4.483 4.154 4.483zm-2.455-5.301c.069-1.239.966-2.313 2.347-2.313 1.318 0 2.182.978 2.187 2.313h-4.534zm16.711-6.511h-1.711l-2.903 1.897v1.682l2.784-1.818h.068V100h1.762V88.364zM103.153 138h1.756v-4.403h2.5l2.364 4.403h2l-2.58-4.71c1.426-.529 2.137-1.716 2.137-3.279 0-2.142-1.33-3.647-4.029-3.647h-4.148V138zm1.756-5.915v-4.216h2.205c1.733 0 2.448.824 2.448 2.142 0 1.313-.715 2.074-2.426 2.074h-2.227zm13.949 2.296c.006 1.483-1.097 2.187-2.051 2.187-1.051 0-1.779-.761-1.779-1.949v-5.346h-1.698v5.551c0 2.165 1.187 3.29 2.863 3.29 1.313 0 2.205-.694 2.608-1.625h.091V138h1.67v-8.727h-1.704v5.108zm5.686-8.017h-1.699V138h1.699v-11.636zm6.047 11.812c1.903 0 3.25-.937 3.636-2.358l-1.608-.29c-.307.824-1.045 1.245-2.011 1.245-1.455 0-2.432-.943-2.477-2.625h6.204v-.603c0-3.153-1.886-4.386-3.863-4.386-2.432 0-4.034 1.852-4.034 4.534 0 2.71 1.579 4.483 4.153 4.483zm-2.455-5.301c.069-1.239.966-2.313 2.347-2.313 1.318 0 2.182.978 2.187 2.313h-4.534zM140.432 138h7.659v-1.506h-5.239v-.085l2.313-2.42c2.13-2.154 2.738-3.182 2.738-4.483 0-1.87-1.522-3.301-3.715-3.301-2.177 0-3.768 1.409-3.768 3.534h1.677c-.006-1.25.801-2.069 2.056-2.069 1.182 0 2.08.728 2.08 1.887 0 1.028-.614 1.767-1.864 3.091l-3.937 4.079V138zM102.903 179h1.756v-4.403h2.5l2.364 4.403h2l-2.58-4.71c1.426-.529 2.137-1.716 2.137-3.279 0-2.142-1.33-3.647-4.029-3.647h-4.148V179zm1.756-5.915v-4.216h2.205c1.733 0 2.448.824 2.448 2.142 0 1.313-.715 2.074-2.426 2.074h-2.227zm13.949 2.296c.006 1.483-1.097 2.187-2.051 2.187-1.051 0-1.779-.761-1.779-1.949v-5.346h-1.698v5.551c0 2.165 1.187 3.29 2.863 3.29 1.313 0 2.205-.694 2.608-1.625h.091V179h1.67v-8.727h-1.704v5.108zm5.686-8.017h-1.699V179h1.699v-11.636zm6.047 11.812c1.903 0 3.25-.937 3.636-2.358l-1.608-.29c-.307.824-1.045 1.245-2.011 1.245-1.455 0-2.432-.943-2.477-2.625h6.204v-.603c0-3.153-1.886-4.386-3.863-4.386-2.432 0-4.034 1.852-4.034 4.534 0 2.71 1.579 4.483 4.153 4.483zm-2.455-5.301c.069-1.239.966-2.313 2.347-2.313 1.318 0 2.182.978 2.187 2.313h-4.534zm16.347 5.284c2.375 0 4.119-1.42 4.114-3.352.005-1.472-.887-2.529-2.432-2.767v-.091c1.216-.313 2.005-1.267 2-2.574.005-1.71-1.398-3.17-3.637-3.17-2.136 0-3.852 1.289-3.909 3.181h1.699c.04-1.068 1.046-1.716 2.188-1.716 1.187 0 1.966.722 1.96 1.796.006 1.125-.898 1.864-2.188 1.864h-.983v1.431h.983c1.614 0 2.546.819 2.546 1.989 0 1.131-.983 1.898-2.352 1.898-1.262 0-2.245-.648-2.313-1.682h-1.784c.074 1.898 1.756 3.193 4.108 3.193zM102.825 220h1.756v-4.403h2.5l2.364 4.403h2l-2.58-4.71c1.426-.529 2.136-1.716 2.136-3.279 0-2.142-1.329-3.647-4.028-3.647h-4.148V220zm1.756-5.915v-4.216h2.205c1.732 0 2.448.824 2.448 2.142 0 1.313-.716 2.074-2.426 2.074h-2.227zm13.949 2.296c.006 1.483-1.097 2.187-2.051 2.187-1.051 0-1.779-.761-1.779-1.949v-5.346h-1.699v5.551c0 2.165 1.188 3.29 2.864 3.29 1.313 0 2.205-.694 2.608-1.625h.091V220h1.67v-8.727h-1.704v5.108zm5.686-8.017h-1.699V220h1.699v-11.636zm6.047 11.812c1.903 0 3.25-.937 3.636-2.358l-1.608-.29c-.307.824-1.045 1.245-2.011 1.245-1.455 0-2.432-.943-2.477-2.625h6.204v-.603c0-3.153-1.886-4.386-3.864-4.386-2.431 0-4.034 1.852-4.034 4.534 0 2.71 1.58 4.483 4.154 4.483zm-2.455-5.301c.068-1.239.966-2.313 2.347-2.313 1.318 0 2.182.978 2.187 2.313h-4.534zm12.051 2.852h5.517V220h1.677v-2.273h1.539v-1.488h-1.539v-7.875h-2.165l-5.029 7.943v1.42zm5.529-1.488H141.7v-.091l3.597-5.693h.091v5.784zM103.099 261h1.755v-4.403h2.5l2.364 4.403h2l-2.58-4.71c1.427-.529 2.137-1.716 2.137-3.279 0-2.142-1.33-3.647-4.029-3.647h-4.147V261zm1.755-5.915v-4.216h2.205c1.733 0 2.449.824 2.449 2.142 0 1.313-.716 2.074-2.426 2.074h-2.228zm13.949 2.296c.006 1.483-1.096 2.187-2.051 2.187-1.051 0-1.778-.761-1.778-1.949v-5.346h-1.699v5.551c0 2.165 1.187 3.29 2.863 3.29 1.313 0 2.205-.694 2.608-1.625h.091V261h1.671v-8.727h-1.705v5.108zm5.686-8.017h-1.699V261h1.699v-11.636zm6.047 11.812c1.904 0 3.25-.937 3.637-2.358l-1.608-.29c-.307.824-1.046 1.245-2.012 1.245-1.454 0-2.432-.943-2.477-2.625h6.205v-.603c0-3.153-1.887-4.386-3.864-4.386-2.432 0-4.034 1.852-4.034 4.534 0 2.71 1.579 4.483 4.153 4.483zm-2.454-5.301c.068-1.239.966-2.313 2.346-2.313 1.318 0 2.182.978 2.188 2.313h-4.534zm16.136 5.284c2.341 0 4.011-1.653 4.006-3.92.005-2.25-1.563-3.887-3.682-3.887-.864 0-1.665.33-2.119.773h-.069l.37-3.256h4.937v-1.505h-6.398l-.653 5.863 1.608.239c.438-.392 1.222-.659 1.926-.659 1.381.011 2.381 1.045 2.381 2.466 0 1.397-.972 2.409-2.307 2.409-1.125 0-2.017-.716-2.108-1.716h-1.704c.068 1.852 1.676 3.193 3.812 3.193z"/><path fill="#E7F1FF" d="M238.991 131.531l-.01.012-.18.225c-5.002 6.265-14.17 7.292-20.436 2.289-6.267-5.003-7.296-14.171-2.294-20.436l.181-.226.004-.005a14.58 14.58 0 0 1 14.884-5.037.796.796 0 1 1-.385 1.546 12.984 12.984 0 0 0-13.254 4.486l-.003.004-.181.227c-4.454 5.578-3.538 13.741 2.042 18.196 5.58 4.455 13.743 3.541 18.197-2.038l.18-.226.009-.011a12.953 12.953 0 0 0 2.818-7.94.796.796 0 1 1 1.593.014 14.546 14.546 0 0 1-3.165 8.92z"/><path fill="#FFF1ED" d="M230.002 128.225l-8.537-6.817 10.17-3.981-1.633 10.798z"/><path fill="#E7F1FF" d="M251.487 176.004a14.438 14.438 0 0 0-3.238-10.636 14.45 14.45 0 0 0-9.819-5.241 14.45 14.45 0 0 0-10.656 3.241c-.456.376-.894.783-1.302 1.211a.796.796 0 1 0 1.153 1.099c.364-.381.755-.744 1.162-1.079a12.86 12.86 0 0 1 9.488-2.886 12.866 12.866 0 0 1 8.743 4.666 12.865 12.865 0 0 1 2.883 9.471l-.001.009-.028.289c-.692 7.103-7.036 12.321-14.142 11.631a12.513 12.513 0 0 1-1.337-.213.797.797 0 1 0-.333 1.558c.496.106 1.004.187 1.51.241 7.986.775 15.111-5.085 15.888-13.063l.028-.288.001-.01z"/><path fill="#FFF1ED" d="M244.787 170.058L233.916 169l4.52 9.941 6.351-8.883zM193.243 112.695l-4.193 3.849.916-4.881 3.277 1.032z"/><path fill="#E7F1FF" d="M190.109 128.293l-.28.062c-.791.176-1.601.287-2.41.329a.796.796 0 1 1-.083-1.591c.72-.038 1.443-.137 2.147-.293l.28-.062c6.97-1.551 11.378-8.484 9.827-15.455a12.905 12.905 0 0 0-7.955-9.263.796.796 0 1 1 .576-1.486 14.497 14.497 0 0 1 8.935 10.404c1.741 7.828-3.21 15.614-11.037 17.355z"/></svg>