<svg width="331" height="281" viewBox="0 0 331 281" fill="none" xmlns="http://www.w3.org/2000/svg">
<path d="M330.009 39.2875V38.2824H329.968L329.961 0H0V281H330.009L330.002 240.468H330.009V239.462H330.002L329.995 200.221H330.009V199.215H329.995L329.988 160.023H330.009V159.017H329.988L329.981 119.778H330.009V118.772H329.981L329.974 79.5323H330.009V78.5263H329.974L329.967 39.287L330.009 39.2875ZM328.958 1.10208V38.2824H289.762V1.10208H328.958ZM288.758 1.10208V38.2824H248.272V1.10208H288.758ZM164.813 119.779H205.778V159.018H164.813V119.779ZM163.81 159.018H122.845V119.779H163.81V159.018ZM164.813 118.773V79.5328H205.778V118.773H164.813ZM163.81 118.773H122.845V79.5328H163.81V118.773ZM121.841 118.773H80.8275V79.5328H121.84L121.841 118.773ZM121.841 119.779V159.018H80.8275V119.779H121.841ZM121.841 160.024V199.215H80.8275V160.024H121.841ZM122.845 160.024H163.81V199.215H122.845V160.024ZM164.813 160.024H205.778V199.215H164.813V160.024ZM206.781 160.024H247.268V199.215H206.781V160.024ZM206.781 159.018V119.779H247.268V159.018H206.781ZM206.781 118.773V79.5328H247.268V118.773H206.781ZM206.781 78.5268V39.2875H247.268V78.5268H206.781ZM205.778 78.5268H164.813V39.2875H205.778V78.5268ZM163.81 78.5268H122.845V39.2875H163.81V78.5268ZM121.841 78.5268H80.8275V39.2875H121.84L121.841 78.5268ZM79.8257 78.5268H38.8612V39.2875H79.8257V78.5268ZM79.8257 79.5328V118.773H38.8612V79.5328H79.8257ZM79.8257 119.779V159.018H38.8612V119.779H79.8257ZM79.8257 160.024V199.215H38.8612V160.024H79.8257ZM79.8257 200.222V239.461H38.8612V200.221L79.8257 200.222ZM80.8294 200.222H121.841V239.461H80.8275L80.8294 200.222ZM122.845 200.222H163.81V239.461H122.845V200.222ZM164.813 200.222H205.778V239.461H164.813V200.222ZM206.781 200.222H247.268V239.461H206.781V200.222ZM248.272 200.222H288.758V239.461H248.272V200.222ZM248.272 199.215V160.024H288.758V199.215H248.272ZM248.272 159.018V119.779H288.758V159.018H248.272ZM248.272 118.773V79.5328H288.758V118.773H248.272ZM248.272 78.5268V39.2875H288.758V78.5268H248.272ZM247.268 1.10208V38.2824H206.781V1.10208H247.268ZM205.778 1.10208V38.2824H164.813V1.10208H205.778ZM163.81 1.10208V38.2824H122.845V1.10208H163.81ZM121.841 1.10208V38.2824H80.8275V1.10208H121.841ZM79.8257 1.10208V38.2824H38.8612V1.10208H79.8257ZM1.05183 1.10208H37.8576V38.2824H1.05183V1.10208ZM1.05183 39.2875H37.8576V78.5268H1.05183V39.2875ZM1.05183 79.5328H37.8576V118.773H1.05183V79.5328ZM1.05183 119.779H37.8576V159.018H1.05183V119.779ZM1.05183 160.024H37.8576V199.215H1.05183V160.024ZM1.05183 200.222H37.8576V239.461H1.05183V200.222ZM1.05183 279.946V240.467H37.8576V279.946H1.05183ZM38.8612 279.946V240.467H79.8257V279.946H38.8612ZM80.8294 279.946V240.467H121.841V279.946H80.8294ZM122.845 279.946V240.467H163.81V279.946H122.845ZM164.813 279.946V240.467H205.778V279.946H164.813ZM206.781 279.946V240.467H247.268V279.946H206.781ZM248.272 279.946V240.467H288.758V279.946H248.272ZM328.959 279.946H289.762V240.467H328.958L328.959 279.946ZM328.959 239.461H289.762V200.221H328.958L328.959 239.461ZM328.959 199.216H289.762V160.024H328.958L328.959 199.216ZM328.959 159.018H289.762V119.779H328.958L328.959 159.018ZM328.959 118.773H289.762V79.5328H328.958L328.959 118.773ZM328.959 78.5272H289.762V39.2875H328.958L328.959 78.5272Z" fill="#E7F1FF"/>
<path d="M40.6554 96.1852C34.2127 96.1852 28.1902 94.3853 23.0633 91.2608C13.3097 85.3166 6.79688 74.5784 6.79688 62.3187C6.79688 43.6149 21.9559 28.4523 40.6554 28.4523C58.8466 28.4523 72.3927 39.6707 73.1862 57.6704" fill="white"/>
<path d="M40.6552 96.9821C34.2864 96.9821 28.0596 95.2391 22.6486 91.9412C17.6611 88.9017 13.4884 84.6186 10.5814 79.5548C7.58431 74.3341 6 68.3739 6 62.3188C6 43.2054 21.5462 27.6555 40.6552 27.6555C59.7982 27.6555 73.1913 39.7035 73.9818 57.6354C74.0012 58.075 73.6608 58.4472 73.221 58.4665C72.7826 58.4859 72.4092 58.1454 72.3901 57.7055C71.6396 40.6852 58.8865 29.2492 40.6552 29.2492C22.425 29.2492 7.59334 44.0843 7.59334 62.3188C7.59334 73.9537 13.5315 84.5187 23.4776 90.5802C28.639 93.7256 34.5787 95.3884 40.6552 95.3884C41.0952 95.3884 41.4519 95.7451 41.4519 96.1853C41.4519 96.6254 41.0952 96.9821 40.6552 96.9821Z" fill="#3C4043"/>
<path d="M78.2171 44.9729C77.6761 43.7351 76.953 42.6097 76.0897 41.6182C76.4758 40.6611 76.7557 39.6441 76.9081 38.5768C76.9081 38.5763 76.9081 38.5758 76.9084 38.5755C77.2789 36.1068 76.9355 33.6961 76.0331 31.5523L72.6544 26.5931L64.4222 30.843L52.2065 36.9523L53.0032 52.3582L76.9034 46.7802" fill="#FFF1ED"/>
<path d="M53.0035 53.155C52.8322 53.155 52.6639 53.0997 52.5245 52.9948C52.3362 52.8529 52.2201 52.6349 52.2079 52.3993L51.4112 36.9934C51.3948 36.677 51.5674 36.3811 51.8505 36.2395L64.0661 30.1303L72.2893 25.8852C72.6473 25.7003 73.0865 25.8119 73.3131 26.1447L76.6912 31.1035C76.7212 31.1473 76.7465 31.1941 76.7672 31.243C77.7542 33.5884 78.0756 36.1649 77.6961 38.6938C77.6961 38.6949 77.6958 38.6962 77.6956 38.6973C77.5607 39.6395 77.3278 40.5681 77.0017 41.4648C77.7943 42.4404 78.4479 43.5111 78.9474 44.6538C79.1237 45.057 78.9397 45.5269 78.5366 45.703C78.1337 45.8791 77.6637 45.6953 77.4874 45.2921C76.9892 44.1521 76.3168 43.092 75.489 42.1416C75.2923 41.9155 75.2389 41.5981 75.351 41.32C75.7217 40.4015 75.9801 39.4408 76.1195 38.4644C76.12 38.4604 76.1205 38.4567 76.1211 38.4527C76.4522 36.2409 76.1782 33.9887 75.3289 31.9338L72.3934 27.6247L64.7879 31.5511L53.0293 37.4319L53.7497 51.3657L76.7226 46.0042C77.1506 45.9041 77.5795 46.1705 77.6794 46.5992C77.7792 47.0279 77.5131 47.4564 77.0845 47.5562L53.1844 53.1342C53.1246 53.1483 53.0641 53.155 53.0035 53.155Z" fill="#3C4043"/>
<path d="M50.611 59.2878C47.5589 58.2942 44.3011 57.7571 40.9176 57.7571C23.6375 57.7571 9.62939 71.7685 9.62939 89.0526C9.62939 93.9368 10.9798 98.7766 12.9746 102.896" fill="white"/>
<path d="M12.9752 103.693C12.6794 103.693 12.3952 103.527 12.2577 103.243C10.6951 100.017 8.83252 94.936 8.83252 89.0528C8.83252 71.357 23.2257 56.9604 40.9174 56.9604C44.3136 56.9604 47.6578 57.4888 50.8575 58.5305C51.2757 58.6668 51.5046 59.1165 51.3684 59.5348C51.2324 59.9532 50.7834 60.1821 50.3643 60.0459C47.3242 59.0559 44.146 58.5542 40.9177 58.5542C24.1044 58.5542 10.4261 72.2357 10.4261 89.0528C10.4261 94.6337 12.2022 99.4723 13.6917 102.549C13.8837 102.945 13.718 103.421 13.322 103.613C13.2102 103.667 13.0918 103.693 12.9752 103.693Z" fill="#3C4043"/>
<path d="M46.1377 231.566C48.6546 237.984 49.6736 244.008 46.4513 248.235C42.059 253.997 40.2933 255.93 40.8085 263.203H43.1289H85.6462L89.8354 245.72L80.9172 217.776" fill="#E7F1FF"/>
<path d="M85.6459 264H40.8084C40.3902 264 40.0434 263.677 40.0136 263.259C39.5003 256.014 41.1807 253.816 45.2406 248.508L45.8176 247.752C48.436 244.318 48.3019 239.267 45.3959 231.857C45.2353 231.447 45.4371 230.985 45.8466 230.824C46.2563 230.663 46.7184 230.865 46.8793 231.275C50.0087 239.255 50.074 244.797 47.0846 248.718L46.506 249.476C42.7446 254.394 41.2474 256.351 41.5576 262.406H85.0179L89.0089 245.75L80.1582 218.018C80.0243 217.598 80.2556 217.15 80.6749 217.016C81.094 216.883 81.5422 217.114 81.6761 217.533L90.5943 245.477C90.6386 245.616 90.6439 245.764 90.6102 245.905L86.4211 263.388C86.3348 263.747 86.0145 264 85.6459 264Z" fill="#3C4043"/>
<path d="M79.0035 155.082L75.2166 163.922L71.0447 173.667L69.6001 177.038L70.171 178.525L73.9632 188.404L84.6545 216.294L40.2135 233.915L36.7613 224.934L27.4854 200.88L21.5475 185.474C19.8108 181.099 19.4071 176.305 20.387 171.699C20.7084 170.182 21.1784 168.703 21.7892 167.276L24.4952 160.981L26.4497 156.415L30.603 146.702L40.9544 122.522L45.568 106.81H58.3147L84.6049 106.544L87.168 108.227" fill="white"/>
<path d="M40.2135 234.712C40.1043 234.712 39.9955 234.689 39.8935 234.645C39.6988 234.559 39.5461 234.4 39.4697 234.201L36.0174 225.22L20.8042 185.761C19.0064 181.232 18.5916 176.31 19.6081 171.533C19.9382 169.975 20.4258 168.437 21.057 166.962L25.7175 156.101L29.8708 146.388L40.2037 122.252L44.8039 106.585C44.9035 106.246 45.2147 106.013 45.5682 106.013H58.3149L84.5971 105.747C84.7543 105.743 84.9102 105.791 85.0422 105.878L87.6051 107.56C87.9729 107.802 88.0754 108.296 87.834 108.664C87.5926 109.032 87.0987 109.134 86.7309 108.893L84.3706 107.343L58.3229 107.606H46.1644L41.7187 122.746C41.7096 122.777 41.699 122.806 41.6865 122.835L31.3351 147.015L25.2273 161.294L22.5207 167.591C21.9307 168.969 21.475 170.407 21.1661 171.864C20.2152 176.332 20.6031 180.937 22.2876 185.179L37.5043 224.647L40.6681 232.877L83.6284 215.843L73.2191 188.689L68.8559 177.323C68.7816 177.13 68.7858 176.914 68.8674 176.724L78.2707 154.768C78.4439 154.363 78.9121 154.176 79.3168 154.349C79.7212 154.522 79.9087 154.991 79.7353 155.395L70.4594 177.054L74.7067 188.118L85.398 216.008C85.5542 216.416 85.3537 216.873 84.9477 217.034L40.5067 234.655C40.4127 234.693 40.3131 234.712 40.2135 234.712Z" fill="#3C4043"/>
<path d="M144.569 231.94C146.796 235.703 150.341 238.617 154.772 240.734C163.037 244.681 166.171 246.154 170.175 247.412C177.062 249.575 181.946 256.005 181.374 263.203L140.831 263.054L119.034 250.952L119.233 263.142L103.942 263.203L103.758 225.73" fill="#E7F1FF"/>
<path d="M103.942 264C103.503 264 103.147 263.646 103.145 263.207L102.961 225.734C102.959 225.294 103.314 224.936 103.754 224.933C104.197 224.942 104.552 225.286 104.554 225.726L104.735 262.403L118.423 262.349L118.237 250.966C118.232 250.681 118.38 250.416 118.624 250.269C118.868 250.123 119.171 250.118 119.42 250.256L141.038 262.258L180.618 262.404C180.764 256.103 176.376 250.195 169.936 248.172C165.936 246.916 162.828 245.465 154.429 241.453C149.66 239.176 146.112 236.111 143.884 232.346C143.659 231.967 143.785 231.478 144.163 231.254C144.542 231.03 145.031 231.155 145.255 231.534C147.319 235.023 150.637 237.876 155.116 240.016C163.439 243.991 166.516 245.428 170.413 246.652C173.955 247.764 177.081 250.002 179.217 252.953C181.408 255.98 182.456 259.643 182.168 263.267C182.135 263.681 181.789 264 181.374 264C181.373 264 181.372 264 181.371 264L140.828 263.851C140.693 263.851 140.561 263.817 140.444 263.751L119.853 252.319L120.029 263.129C120.033 263.342 119.951 263.548 119.802 263.7C119.653 263.852 119.449 263.938 119.236 263.939L103.945 264C103.944 264 103.943 264 103.942 264Z" fill="#3C4043"/>
<path d="M85.4936 107.525L108.459 117.149L132.842 127.364L142.934 131.59L149.158 134.199L155.654 136.921C164.614 142.244 169.088 152.763 166.712 162.912L166.709 162.915L158.538 196.417L154.501 212.963L149.681 232.717L102.229 225.497L116.179 169.074L115.767 168.92L104.104 164.527L102.123 163.783L91.1155 159.64L79.0034 155.082" fill="white"/>
<path d="M149.682 233.514C149.642 233.514 149.602 233.511 149.562 233.504L102.109 226.285C101.888 226.251 101.691 226.126 101.566 225.94C101.442 225.753 101.402 225.523 101.456 225.306L115.235 169.572L78.7229 155.828C78.311 155.673 78.1028 155.213 78.2579 154.801C78.413 154.389 78.8721 154.181 79.284 154.336L116.458 168.328C116.837 168.47 117.049 168.874 116.952 169.266L103.212 224.841L149.08 231.82L165.935 162.726C165.939 162.711 165.943 162.696 165.948 162.681C168.225 152.857 163.949 142.804 155.294 137.635L85.1857 108.26C84.78 108.09 84.5887 107.623 84.7587 107.217C84.9287 106.812 85.3953 106.62 85.8013 106.79L155.961 136.186C155.995 136.201 156.028 136.217 156.061 136.236C165.363 141.763 169.955 152.556 167.487 163.094C167.482 163.114 167.477 163.135 167.471 163.154L150.455 232.906C150.367 233.267 150.044 233.514 149.682 233.514Z" fill="#3C4043"/>
<path d="M78.7107 156.543C78.6146 156.543 78.5169 156.526 78.4221 156.489C78.0121 156.329 77.8089 155.867 77.9685 155.457L81.5164 146.338C81.6762 145.928 82.1383 145.725 82.5478 145.885C82.9578 146.044 83.161 146.506 83.0014 146.916L79.4535 156.035C79.3306 156.35 79.0294 156.543 78.7107 156.543Z" fill="#3C4043"/>
<path d="M205.906 70.8422C205.863 70.8422 205.819 70.8387 205.774 70.8313L200.732 69.9906C200.298 69.9183 200.005 69.5077 200.077 69.0737C200.149 68.6396 200.559 68.3464 200.994 68.4187L206.036 69.2593C206.47 69.3316 206.763 69.7422 206.691 70.1763C206.627 70.5659 206.289 70.8422 205.906 70.8422Z" fill="#3C4043"/>
<path d="M29.4107 158.135L24.4819 160.982L26.4364 156.416L29.4107 158.135Z" fill="#FFF1ED"/>
<path d="M69.6054 177.039L70.1764 178.526L65.3618 181.305V170.382L71.0501 173.668L69.6054 177.039Z" fill="#FFF1ED"/>
<path d="M33.8428 216.651V205.726L43.2966 211.187L33.8428 216.651Z" fill="#FFF1ED"/>
<path d="M108.665 158.352L101.192 162.671L99.2109 161.928V152.891L108.665 158.352Z" fill="#FFF1ED"/>
<path d="M149.156 134.202L142.931 137.799V131.594L149.156 134.202Z" fill="#FFF1ED"/>
<path d="M145.945 146.875H145.655C137.633 146.868 131.113 140.334 131.121 132.311C131.122 130.514 131.451 128.753 132.099 127.078C132.258 126.667 132.72 126.463 133.13 126.622C133.54 126.78 133.744 127.242 133.586 127.652C133.009 129.145 132.716 130.713 132.714 132.312C132.708 139.457 138.513 145.275 145.656 145.281H145.945C150.807 145.278 155.217 142.593 157.453 138.274C157.656 137.883 158.137 137.731 158.527 137.933C158.918 138.135 159.07 138.616 158.868 139.007C156.357 143.857 151.405 146.871 145.945 146.875Z" fill="#E7F1FF"/>
<path d="M146.047 216.682C146.042 216.682 146.037 216.682 146.032 216.682H145.743C137.726 216.682 131.204 210.158 131.204 202.139C131.204 194.121 137.726 187.597 145.743 187.597H146.033C146.035 187.597 146.037 187.597 146.039 187.597C151.71 187.597 156.9 190.928 159.262 196.086C159.445 196.486 159.27 196.959 158.87 197.142C158.469 197.325 157.997 197.15 157.813 196.75C155.71 192.157 151.088 189.191 146.039 189.191C146.037 189.191 146.035 189.191 146.033 189.191H145.743C138.605 189.191 132.797 194.999 132.797 202.139C132.797 209.28 138.605 215.088 145.743 215.088H146.033C146.037 215.088 146.042 215.088 146.047 215.088C148.922 215.088 151.749 214.111 154.01 212.337C154.356 212.065 154.856 212.125 155.128 212.472C155.4 212.818 155.34 213.319 154.993 213.59C152.453 215.585 149.277 216.682 146.047 216.682Z" fill="#E7F1FF"/>
<path d="M143.021 207.595V196.671L152.478 202.134L143.021 207.595Z" fill="#FFF1ED"/>
<path d="M112.845 167.859C112.668 167.859 112.489 167.8 112.34 167.678C112 167.399 111.951 166.897 112.23 166.557C114.123 164.251 115.163 161.337 115.159 158.354C115.159 151.21 109.351 145.401 102.213 145.401H101.923C94.9591 145.402 89.2781 150.855 88.9899 157.815C88.9716 158.254 88.6022 158.595 88.1609 158.578C87.7214 158.56 87.3796 158.189 87.3977 157.749C87.7211 149.932 94.1014 143.808 101.923 143.807H102.212C110.229 143.807 116.752 150.331 116.752 158.35C116.757 161.704 115.588 164.977 113.461 167.568C113.304 167.76 113.076 167.859 112.845 167.859Z" fill="#E7F1FF"/>
<path d="M36.8546 225.732H36.7507C36.3107 225.732 35.9541 225.375 35.9541 224.935C35.9541 224.495 36.3107 224.138 36.7507 224.138H36.8543C43.9925 224.137 49.8002 218.327 49.8002 211.186C49.8002 204.033 43.9927 198.224 36.8543 198.224H36.5648C36.5622 198.224 36.5593 198.224 36.5566 198.224C33.3999 198.224 30.3633 199.379 28.0041 201.476C27.6753 201.768 27.1718 201.739 26.8794 201.409C26.5871 201.08 26.6168 200.577 26.9458 200.285C29.5966 197.928 33.0098 196.63 36.5561 196.63C36.5593 196.63 36.5622 196.63 36.5654 196.63H36.8543C44.8712 196.63 51.3936 203.154 51.3936 211.173C51.3938 219.205 44.8715 225.73 36.8546 225.732Z" fill="#E7F1FF"/>
<path d="M75.2156 164.72C75.0807 164.72 74.9442 164.686 74.8189 164.613C72.8668 163.489 70.6446 162.895 68.3921 162.895C68.3884 162.895 68.3855 162.895 68.3818 162.895H68.0915C67.857 162.895 67.6193 162.901 67.3857 162.914C66.9454 162.938 66.5712 162.6 66.5476 162.161C66.5239 161.721 66.8612 161.346 67.3004 161.322C67.5622 161.308 67.8286 161.301 68.0915 161.301H68.381C68.3849 161.301 68.3887 161.301 68.3926 161.301C70.9231 161.301 73.4202 161.969 75.6139 163.232C75.9953 163.452 76.1265 163.939 75.9069 164.32C75.7592 164.576 75.4913 164.72 75.2156 164.72Z" fill="#E7F1FF"/>
<path d="M68.3916 190.386C68.3879 190.386 68.3844 190.386 68.3804 190.386H68.0915C60.0746 190.386 53.5522 183.862 53.5522 175.844C53.5522 175.403 53.9089 175.047 54.3489 175.047C54.7889 175.047 55.1456 175.403 55.1456 175.844C55.1456 182.984 60.9531 188.793 68.0915 188.793H68.381C68.3841 188.793 68.3876 188.793 68.3908 188.793C70.2091 188.793 71.9726 188.417 73.6334 187.677C74.0344 187.498 74.5063 187.678 74.6853 188.08C74.8643 188.482 74.684 188.954 74.2819 189.133C72.4161 189.965 70.4342 190.386 68.3916 190.386Z" fill="#E7F1FF"/>
<path d="M22.9656 172.68H22.6788C21.8688 172.68 21.0533 172.612 20.2553 172.478C19.8214 172.405 19.5285 171.995 19.6015 171.56C19.6743 171.126 20.0837 170.834 20.519 170.907C21.2307 171.026 21.9575 171.087 22.6793 171.087H22.9658C30.1056 171.087 35.9144 165.277 35.9144 158.135C35.9184 153.798 33.7676 149.772 30.1611 147.366C29.7952 147.122 29.6964 146.627 29.9404 146.261C30.1845 145.895 30.6789 145.796 31.0454 146.04C35.0965 148.744 37.5123 153.265 37.5077 158.136C37.5072 166.155 30.9841 172.68 22.9656 172.68Z" fill="#E7F1FF"/>
<path d="M94.494 133.134C90.6148 133.134 86.9665 131.624 84.2209 128.882C81.473 126.137 79.9582 122.486 79.9556 118.601C79.9529 114.714 81.465 111.059 84.2132 108.309C84.631 107.892 85.0787 107.495 85.544 107.13C85.8902 106.859 86.3911 106.919 86.6625 107.266C86.9339 107.612 86.8731 108.113 86.5268 108.384C86.1117 108.71 85.7126 109.064 85.3397 109.436C82.8929 111.884 81.5465 115.139 81.5489 118.6C81.5513 122.059 82.9001 125.31 85.3466 127.754C87.7914 130.196 91.0399 131.541 94.4943 131.541C94.4975 131.541 94.4999 131.541 94.5033 131.541H94.7933C101.93 131.539 107.738 125.73 107.739 118.592C107.736 118.145 107.708 117.688 107.657 117.24C107.607 116.803 107.921 116.408 108.358 116.358C108.796 116.308 109.19 116.622 109.24 117.059C109.297 117.563 109.328 118.077 109.333 118.585C109.331 126.609 102.809 133.133 94.7933 133.134H94.5036C94.5007 133.134 94.4972 133.134 94.494 133.134Z" fill="#E7F1FF"/>
<path d="M91.7793 124.053V113.13L101.236 118.592L91.7793 124.053Z" fill="#FFF1ED"/>
<path d="M77.4034 44.2098C77.1267 44.2098 76.858 44.0656 76.7109 43.8082L75.5143 41.7133C75.296 41.3311 75.4288 40.8444 75.8109 40.6261C76.1928 40.4075 76.6795 40.5406 76.8978 40.9225L78.0944 43.0175C78.3127 43.3997 78.1799 43.8863 77.7978 44.1047C77.6732 44.1761 77.5375 44.2098 77.4034 44.2098Z" fill="#3C4043"/>
<path d="M40.2131 234.977C40.1039 234.977 39.995 234.955 39.8931 234.91C39.6984 234.825 39.5457 234.665 39.4692 234.467L36.017 225.486L20.8038 186.026C19.0059 181.498 18.5911 176.575 19.6074 171.799C19.9375 170.241 20.4251 168.703 21.0566 167.228L25.7171 156.367L29.8704 146.653L40.2218 122.474L46.1637 108.621C46.2787 108.352 46.5312 108.168 46.822 108.141L58.2409 107.079C58.2548 107.078 58.2686 107.077 58.2826 107.076L84.4599 106.018L85.1496 105.788C85.567 105.65 86.018 105.875 86.1574 106.292C86.2965 106.71 86.0708 107.161 85.6536 107.3L84.8569 107.566C84.7858 107.589 84.712 107.603 84.6371 107.606L58.3676 108.668L47.441 109.685L41.6864 123.102L31.3352 147.281L25.2274 161.561L22.5209 167.857C21.9308 169.235 21.4751 170.673 21.1662 172.13C20.2155 176.599 20.6035 181.203 22.2877 185.446L37.5044 224.913L40.6682 233.143L83.6285 216.109L73.2192 188.955L68.8561 177.589C68.7817 177.396 68.786 177.181 68.8675 176.99L78.2709 155.034C78.444 154.629 78.9122 154.442 79.3169 154.615C79.7213 154.789 79.9088 155.257 79.7354 155.661L70.4595 177.32L74.7068 188.384L85.3982 216.274C85.5543 216.682 85.3535 217.139 84.9478 217.3L40.5068 234.921C40.4122 234.959 40.3126 234.977 40.2131 234.977Z" fill="#3C4043"/>
<path d="M56.5413 38.906C59.2101 38.4709 63.2817 36.2548 65.1408 34.1049L71.8939 27.5407L76.0329 31.6262C75.1887 28.4395 73.8545 25.6341 71.1586 23.7545C68.3267 21.7935 64.7595 20.8402 61.056 21.3305C53.8671 22.3112 47.3679 27.7425 48.9787 37.6892" fill="white"/>
<path d="M56.5404 39.7026C56.1567 39.7026 55.8187 39.4247 55.7549 39.0337C55.684 38.5994 55.9788 38.1899 56.4132 38.1192C58.9737 37.7019 62.8464 35.5398 64.5382 33.5832C64.5534 33.5657 64.569 33.549 64.5855 33.533L71.3386 26.9688C71.6496 26.6665 72.1448 26.6684 72.4534 26.973L74.1429 28.6409C73.2812 26.7858 72.1679 25.4295 70.7029 24.4079C67.9273 22.4862 64.538 21.6729 61.1603 22.1202C57.2115 22.6588 53.8992 24.4906 51.8361 27.2774C49.8017 30.0258 49.1048 33.4857 49.765 37.5617C49.8354 37.996 49.5404 38.4053 49.1059 38.4757C48.673 38.5461 48.2625 38.251 48.1921 37.8164C47.4711 33.3641 48.2882 29.3918 50.5556 26.3289C52.8763 23.1938 56.5673 21.1382 60.9482 20.5405C64.7215 20.0412 68.508 20.9496 71.6119 23.099C74.8952 25.3878 76.1468 28.945 76.8027 31.4216C76.8949 31.7688 76.743 32.1348 76.4323 32.3152C76.1216 32.4955 75.7288 32.4453 75.4731 32.193L71.8894 28.6555L65.7199 34.6523C63.7856 36.8689 59.5678 39.2197 56.6692 39.6919C56.6262 39.6991 56.5832 39.7026 56.5404 39.7026Z" fill="#3C4043"/>
<path d="M171.373 83.2164L171.426 83.2705L171.491 83.3069C176.196 85.9099 180.944 84.7392 184.236 83.3502C185.469 82.8301 186.527 82.2655 187.297 81.8548C187.417 81.7909 187.53 81.7307 187.635 81.675C185.3 85.5282 181.309 88.329 176.499 88.9796L176.498 88.9797L119.791 96.7713C119.789 96.7716 119.787 96.7718 119.784 96.772C119.228 96.8333 118.669 96.8639 118.109 96.8639H86.6929H86.2429L86.1957 97.3115L85.1603 107.12L48.5915 109.169L48.3785 109.181L48.2398 109.343L46.3902 111.502L46.0601 111.887L46.4499 112.211L60.3444 123.778V123.786L60.5246 123.936C64.8239 127.512 66.6886 132.931 65.9234 138.087C65.8465 137.575 65.7378 137.019 65.5832 136.437C64.7634 133.351 62.6513 129.55 57.2341 127.678C53.3473 126.335 45.6977 127.159 41.7488 133.9C40.701 135.688 40.9605 138.118 41.5958 140.462C42.1292 142.43 42.9639 144.458 43.6748 146.186C43.8201 146.539 43.9602 146.879 44.0915 147.204C44.5009 148.217 44.6962 149.133 44.789 149.794C44.8046 149.906 44.8172 150.009 44.8276 150.105C43.4006 149.523 42.037 148.715 40.7879 147.676L14.2757 125.593C14.2146 125.542 14.1551 125.492 14.097 125.442L14.0964 125.441C7.62618 119.891 6.87892 110.146 12.4278 103.674C12.4278 103.674 12.4278 103.674 12.4278 103.674L37.3025 74.6682L37.3029 74.6678C38.4222 73.3594 39.5409 72.2286 41.1132 71.2863C42.687 70.3431 44.7439 69.5721 47.7532 69.0311C47.9041 69.0039 48.0504 68.9762 48.1937 68.949C48.5623 68.8791 48.9117 68.8129 49.2723 68.7698L49.273 68.7697L52.412 68.3899C52.4195 68.6103 52.4363 68.8845 52.4707 69.1983C52.5614 70.0262 52.7756 71.1432 53.2741 72.2837C53.7735 73.4264 54.562 74.6006 55.8024 75.5236C57.0454 76.4484 58.7141 77.0999 60.9383 77.2376C63.5057 77.3967 65.4009 76.7649 66.7791 75.6821C68.1486 74.6062 68.9593 73.1232 69.4366 71.6592C69.9139 70.1951 70.0674 68.7214 70.1036 67.6214C70.1217 67.0697 70.1105 66.6076 70.0945 66.2819C70.094 66.2715 70.0935 66.2612 70.093 66.251L71.7789 66.0471L71.7795 66.047C72.3637 65.9757 73.4769 65.9596 74.5337 65.9633C75.0556 65.9651 75.5542 65.9717 75.9526 65.9778C76.0692 65.9796 76.178 65.9813 76.2767 65.983C76.5112 65.9868 76.6883 65.9896 76.7751 65.9896H117.238H117.272L117.306 65.9849L172.363 58.3831C172.363 58.3831 172.364 58.383 172.364 58.383C175.996 57.8919 179.502 58.7065 182.411 60.4667C182.401 60.4672 182.391 60.4677 182.381 60.4682C182.069 60.4834 181.696 60.4956 181.277 60.5093C180.405 60.5378 179.335 60.5728 178.199 60.6549C176.505 60.7775 174.608 61.0074 172.855 61.4892C171.108 61.9693 169.454 62.7124 168.29 63.8941C167.364 64.8349 165.458 66.9275 165.152 70.1972C164.846 73.4829 166.165 77.8154 171.373 83.2164Z" fill="#FFED96" stroke="#3C4043"/>
<path d="M78.1625 44.8605C79.1528 47.122 79.4816 49.618 79.1106 52.0588C78.0969 58.9016 71.9076 64.0132 65.176 63.2355L69.4833 63.1603V68.6793C69.359 73.2546 65.5502 76.8628 60.9759 76.7385C60.9738 76.7385 60.9717 76.7385 60.9698 76.7382C56.4787 76.6145 52.9041 72.934 52.9102 68.4403L52.9811 50.1569" fill="#FFF1ED"/>
<path d="M61.2044 77.5384C61.1213 77.5384 61.0379 77.5374 60.9542 77.535C55.9872 77.3982 52.1067 73.4028 52.1133 68.4394L52.1842 50.1542C52.1858 49.7151 52.5424 49.3605 52.9809 49.3605C52.9819 49.3605 52.9827 49.3605 52.984 49.3605C53.4241 49.3621 53.7794 49.7204 53.7775 50.1605L53.7066 68.4439C53.7011 72.5347 56.901 75.8295 60.9917 75.9421C65.1219 76.0526 68.5749 72.7868 68.6872 68.658L68.687 63.9714L68.3505 63.9773C67.2856 64.1332 66.1907 64.1552 65.0847 64.0272C64.668 63.9791 64.36 63.6158 64.3804 63.1969C64.4009 62.7777 64.7429 62.4462 65.1622 62.4391L68.2265 62.3857C73.2591 61.6037 77.5136 57.4072 78.3227 51.9426C78.6719 49.6445 78.3641 47.3073 77.4331 45.181C77.2565 44.7778 77.4403 44.3079 77.8431 44.1313C78.2462 43.9549 78.716 44.1384 78.8926 44.5414C79.9447 46.9444 80.2926 49.5855 79.8985 52.179C79.0849 57.6733 75.165 62.0316 70.2803 63.5401V68.6795C70.1459 73.624 66.0989 77.5382 61.2044 77.5384Z" fill="#3C4043"/>
<path d="M69.1816 47.5185C68.8013 47.5185 68.4648 47.2454 68.3977 46.8579C68.3222 46.4244 68.6128 46.0116 69.0461 45.9364L71.0466 45.5887L69.9729 42.8823C69.8107 42.4733 70.0106 42.01 70.4196 41.8478C70.8288 41.6852 71.2917 41.8855 71.454 42.2945L72.8888 45.9123C72.9772 46.1351 72.9605 46.3861 72.8433 46.5954C72.7262 46.8047 72.521 46.95 72.2846 46.9912L69.3189 47.5065C69.2727 47.5145 69.2267 47.5185 69.1816 47.5185Z" fill="#3C4043"/>
<path d="M65.1758 42.6992C65.9385 42.6992 66.5567 42.0808 66.5567 41.318C66.5567 40.5552 65.9385 39.9368 65.1758 39.9368C64.4132 39.9368 63.7949 40.5552 63.7949 41.318C63.7949 42.0808 64.4132 42.6992 65.1758 42.6992Z" fill="#3C4043"/>
<path d="M75.1343 42.9222C75.897 42.9222 76.5152 42.3038 76.5152 41.541C76.5152 40.7782 75.897 40.1598 75.1343 40.1598C74.3717 40.1598 73.7534 40.7782 73.7534 41.541C73.7534 42.3038 74.3717 42.9222 75.1343 42.9222Z" fill="#3C4043"/>
<path d="M53.2132 49.7834C52.8629 49.846 52.5023 49.8787 52.1342 49.8787C48.7691 49.8787 46.041 47.15 46.041 43.7841C46.041 40.4182 48.7691 37.6895 52.1342 37.6895C55.4994 37.6895 58.2274 40.4182 58.2274 43.7841" fill="#FFF1ED"/>
<path d="M52.1345 50.6749C48.3355 50.6749 45.2446 47.5834 45.2446 43.7835C45.2446 39.9835 48.3355 36.892 52.1345 36.892C55.9336 36.892 59.0244 39.9835 59.0244 43.7835C59.0244 44.2236 58.6677 44.5803 58.2277 44.5803C57.7877 44.5803 57.431 44.2236 57.431 43.7835C57.431 40.8622 55.0551 38.4857 52.1345 38.4857C49.2139 38.4857 46.838 40.8624 46.838 43.7835C46.838 46.7045 49.2139 49.0812 52.1345 49.0812C52.45 49.0812 52.7657 49.0533 53.0733 48.9984C53.5082 48.9205 53.9204 49.2095 53.9977 49.6425C54.0752 50.0757 53.7868 50.4898 53.3537 50.5671C52.9538 50.6388 52.5437 50.6749 52.1345 50.6749Z" fill="#3C4043"/>
<path d="M51.8858 45.6465C51.5594 45.6465 51.2535 45.4447 51.1364 45.1201C50.9869 44.706 51.2015 44.2494 51.6155 44.1001L52.832 43.661L50.4401 42.7176C50.0309 42.5561 49.8299 42.0933 49.9913 41.684C50.1525 41.2744 50.6151 41.0734 51.0249 41.2351L55.38 42.9529C55.6883 43.0745 55.8891 43.3744 55.8843 43.7059C55.8795 44.0374 55.67 44.3312 55.3582 44.4438L52.1564 45.5993C52.0669 45.6314 51.9756 45.6465 51.8858 45.6465Z" fill="#3C4043"/>
<path d="M70.5956 55.6815C68.5508 55.6815 66.4136 53.9752 66.2771 50.707C66.2678 50.486 66.3509 50.2714 66.506 50.1141C66.6611 49.9569 66.874 49.8716 67.0958 49.8772L73.7764 50.0682C73.9886 50.0743 74.1896 50.1649 74.3349 50.3195C74.4801 50.4741 74.5574 50.6807 74.55 50.8927C74.4337 54.1922 72.4861 55.6754 70.6075 55.6815C70.6033 55.6815 70.5993 55.6815 70.5956 55.6815ZM67.9721 51.4964C68.3253 53.2022 69.4839 54.0878 70.5953 54.0878C70.5974 54.0878 70.5998 54.0878 70.6019 54.0878C71.7688 54.0841 72.6146 53.1459 72.8762 51.6367L67.9721 51.4964Z" fill="#3C4043"/>
<path d="M48.6145 110.053C48.4584 110.053 48.3006 110.008 48.1625 109.912C47.8003 109.662 47.7095 109.166 47.9596 108.804L55.3395 98.1151C55.5899 97.7528 56.0865 97.6623 56.4476 97.9122C56.8099 98.1621 56.9007 98.6586 56.6505 99.0206L49.2707 109.709C49.1161 109.933 48.8673 110.053 48.6145 110.053Z" fill="#3C4043"/>
<path d="M86.7479 97.6371C86.7197 97.6371 86.6916 97.6355 86.6632 97.6326C86.2255 97.5864 85.9085 97.1941 85.9547 96.7563L86.7965 88.7931C86.8427 88.3553 87.2373 88.0384 87.6726 88.0844C88.1102 88.1306 88.4273 88.5229 88.3811 88.9607L87.5392 96.9239C87.496 97.333 87.1502 97.6371 86.7479 97.6371Z" fill="#3C4043"/>
<path d="M54.0282 127.5C45.6552 126.515 37.9116 135.607 42.5801 143.371C42.6438 143.477 42.7075 143.581 42.7713 143.679C44.9488 147.053 46.5767 150.816 44.2186 156.193C42.5535 159.983 39.4757 165.402 43.1138 166.852C45.6366 167.856 49.4872 161.664 52.4986 157.205C51.2664 164.844 49.6651 174.85 53.0829 175.609C56.5006 176.369 58.3382 169.205 59.8652 159.29C60.0989 170.446 58.6808 176.377 62.0507 176.72C67.6088 177.28 68.4799 154.386 66.6608 146.397C66.6608 146.397 66.2731 144.484 65.2374 137.533C64.1778 130.425 58.4232 128.018 54.0282 127.5Z" fill="#FFF1ED"/>
<path d="M62.2427 177.526C62.1468 177.526 62.0557 177.521 61.9699 177.512C59.6928 177.281 59.3077 175.036 59.1811 174.298C58.9243 172.802 58.9445 170.718 59.0013 168.111C57.9223 172.505 56.7409 174.905 55.2591 175.919C54.5333 176.415 53.743 176.572 52.9094 176.387C49.5036 175.63 49.8685 169.275 51.1575 160.626C48.5991 164.383 46.0174 167.759 43.6882 167.76C43.394 167.76 43.1045 167.706 42.819 167.592C41.8776 167.217 41.2275 166.594 40.8866 165.74C39.99 163.495 41.5101 160.192 42.8512 157.278C43.0745 156.793 43.2917 156.321 43.4888 155.872C45.5721 151.123 44.4408 147.736 42.1015 144.112C42.034 144.008 41.9653 143.896 41.8967 143.782C39.7564 140.222 39.8631 136.113 42.1897 132.509C44.7741 128.504 49.5687 126.174 54.1209 126.71C57.2757 127.081 64.7509 128.869 66.0247 137.416C67.0424 144.246 67.4372 146.22 67.441 146.239C68.9995 153.083 68.6604 171.744 64.5984 176.342C63.7595 177.291 62.8936 177.526 62.2427 177.526ZM59.8638 158.493C59.8813 158.493 59.8991 158.493 59.9169 158.495C60.3291 158.522 60.6523 158.86 60.661 159.273C60.7258 162.362 60.6658 165 60.6127 167.327C60.4799 173.17 60.4903 175.76 62.1303 175.927C62.291 175.943 62.781 175.993 63.4042 175.286C66.8881 171.343 67.5233 153.777 65.8829 146.574C65.863 146.476 65.4753 144.543 64.4484 137.65C63.3365 130.191 56.7249 128.621 53.9339 128.292C49.9726 127.825 45.7898 129.867 43.5275 133.373C41.5433 136.447 41.4464 139.942 43.2617 142.961C43.3209 143.059 43.3793 143.155 43.4386 143.245C45.7054 146.757 47.4559 150.793 44.9472 156.513C44.7464 156.97 44.5255 157.45 44.2979 157.944C43.1507 160.437 41.7231 163.54 42.3657 165.149C42.5431 165.593 42.8745 165.899 43.408 166.112C45.119 166.794 48.8389 161.236 51.0606 157.916C51.3246 157.522 51.584 157.134 51.8376 156.758C52.0469 156.449 52.4433 156.326 52.7912 156.464C53.1388 156.601 53.3441 156.962 53.2844 157.331C52.698 160.965 51.9685 165.488 51.8424 169.015C51.6724 173.765 52.6545 174.698 53.2549 174.831C53.6516 174.919 54.0027 174.847 54.3596 174.603C56.7042 173 58.1749 165.026 59.077 159.168C59.1372 158.777 59.4737 158.493 59.8638 158.493Z" fill="#3C4043"/>
<path d="M187.801 72.6701C192.007 70.6272 189.913 70.518 193.534 66.635L201.195 57.8281C206.115 52.2076 198.84 53.022 196.339 54.7974L187.844 60.2492C181.617 60.8415 178.627 60.7053 172.221 62.1981C164.393 64.0202 165.118 76.2546 169.133 80.7276C172.206 84.1318 177.014 85.3717 181.349 83.8779C183.181 83.2218 184.742 82.4303 186.336 81.8459L186.381 81.83C187.626 81.3372 188.947 81.0623 190.285 81.0172C190.989 81.0055 191.694 81.0687 192.385 81.2058C193.96 81.5139 195.731 82.2178 197.856 83.4954C201.398 85.6336 206.375 89.3815 208.281 85.9603C208.932 84.7943 207.894 83.0784 206.194 81.219L199.602 75.8246L210.236 78.1498C214.297 78.953 217.583 79.0253 218.245 77.1976C219.437 73.9039 211.984 72.006 205.905 70.045C212.433 70.9704 219.724 71.7444 220.497 68.4454C221.252 65.216 219.794 63.9713 211.742 62.5104L198.857 60.5156" fill="#FFF1ED"/>
<path d="M205.964 88.1379C203.772 88.1382 201.125 86.477 198.754 84.9893C198.302 84.7059 197.863 84.4304 197.444 84.1775C195.504 83.0107 193.799 82.294 192.233 81.9875C191.596 81.8613 190.946 81.8024 190.298 81.8135C189.062 81.8555 187.838 82.1102 186.675 82.5705C186.666 82.5743 186.656 82.5777 186.647 82.5809L186.602 82.5968C185.888 82.8587 185.17 83.1685 184.41 83.4962C183.53 83.8763 182.618 84.2694 181.618 84.6278C176.963 86.2318 171.835 84.9091 168.542 81.2613C165.721 78.1185 164.589 71.8738 166.018 67.3392C167.023 64.1515 169.105 62.1051 172.042 61.4217C176.831 60.3056 179.749 60.0877 183.443 59.8118C184.72 59.7164 186.039 59.6181 187.577 59.4739L195.895 54.1363C197.593 52.9426 201.719 51.8825 203.182 53.5033C204.145 54.57 203.678 56.2017 201.795 58.353L200.407 59.9491L211.865 61.7229C217.548 62.7538 219.916 63.6667 220.932 65.2153C221.676 66.3503 221.506 67.6345 221.274 68.6269C220.678 71.171 217.438 71.7819 213.24 71.614C215.974 72.6417 218.128 73.7839 218.879 75.3019C219.224 75.9989 219.263 76.7277 218.995 77.4688C218.018 80.1667 213.44 79.5956 210.082 78.9316L202.68 77.3129L206.699 80.602C206.729 80.6265 206.757 80.6528 206.783 80.6812C208.211 82.2436 209.992 84.5308 208.978 86.3484C208.485 87.233 207.783 87.7974 206.892 88.0258C206.594 88.1026 206.284 88.1379 205.964 88.1379ZM190.442 80.219C191.153 80.219 191.854 80.2878 192.54 80.4238C194.29 80.7662 196.164 81.5477 198.267 82.8123C198.694 83.0702 199.141 83.3507 199.601 83.6391C201.925 85.0976 204.818 86.9126 206.496 86.4823C206.96 86.3633 207.306 86.0743 207.586 85.5723C207.799 85.1917 207.826 84.1969 205.645 81.7989L199.098 76.4411C198.812 76.2076 198.724 75.8092 198.885 75.4775C199.045 75.1457 199.412 74.9675 199.772 75.0458L210.406 77.3713C216.031 78.4832 217.263 77.57 217.496 76.9261C217.616 76.5962 217.602 76.3134 217.451 76.0087C216.572 74.2336 211.838 72.7477 207.66 71.4366C206.986 71.2252 206.315 71.0145 205.661 70.8034C205.267 70.6764 205.036 70.2692 205.129 69.866C205.222 69.4628 205.608 69.1972 206.017 69.2559C210.249 69.8556 219.056 71.104 219.722 68.2632C219.962 67.2366 219.925 66.5864 219.599 66.0894C218.888 65.0057 216.571 64.1961 211.6 63.2943L199.17 61.3702L194.136 67.158C194.13 67.1649 194.123 67.1718 194.117 67.1785C192.698 68.6997 192.218 69.5796 191.832 70.2867C191.173 71.4921 190.742 72.1275 188.149 73.3868C187.753 73.5788 187.277 73.4141 187.085 73.0181C186.892 72.6223 187.057 72.1455 187.453 71.9532C189.702 70.8607 189.916 70.4689 190.433 69.5228C190.839 68.7801 191.394 67.7636 192.943 66.1016L198.249 60.0006C198.254 59.9956 198.258 59.9905 198.263 59.9855L200.594 57.3049C202.103 55.5818 202.172 54.7634 201.999 54.5711C201.424 53.9347 198.376 54.3283 196.801 55.4469C196.791 55.454 196.78 55.4609 196.77 55.4676L188.275 60.9194C188.168 60.9879 188.046 61.0299 187.92 61.0421C186.282 61.1978 184.899 61.3011 183.561 61.401C179.936 61.6716 177.072 61.8855 172.402 62.9737C169.425 63.667 168.113 65.9906 167.537 67.8181C166.281 71.8058 167.283 77.4736 169.726 80.1949C172.588 83.3661 177.049 84.5167 181.09 83.1241C182.034 82.786 182.921 82.4032 183.779 82.0329C184.56 81.6961 185.297 81.3779 186.062 81.0974L186.102 81.0833C187.431 80.559 188.83 80.2687 190.258 80.2206C190.32 80.2196 190.381 80.219 190.442 80.219Z" fill="#3C4043"/>
<path d="M149.682 233.514C149.642 233.514 149.602 233.511 149.562 233.504L102.109 226.285C101.888 226.251 101.691 226.126 101.566 225.94C101.442 225.753 101.402 225.523 101.456 225.306L115.235 169.572L78.7229 155.828C78.311 155.673 78.1028 155.213 78.2579 154.801C78.413 154.389 78.8721 154.181 79.284 154.336L116.458 168.328C116.837 168.47 117.049 168.874 116.952 169.266L103.212 224.841L149.08 231.82L165.935 162.726C165.939 162.711 165.943 162.696 165.948 162.681C168.225 152.857 163.949 142.804 155.294 137.635L85.1857 108.26C84.78 108.09 84.5887 107.623 84.7587 107.217C84.9287 106.812 85.3953 106.62 85.8013 106.79L155.961 136.186C155.995 136.201 156.028 136.217 156.061 136.236C165.363 141.763 169.955 152.556 167.487 163.094C167.482 163.114 167.477 163.135 167.471 163.154L150.455 232.906C150.367 233.267 150.044 233.514 149.682 233.514Z" fill="#3C4043"/>
<path d="M273.059 52.3401C272.372 52.1098 272.817 52.285 272.834 52.2972L273.025 52.4757L272.95 52.6113L272.286 52.5384L272.648 52.8166L272.079 52.7759L272.493 53.0844L271.721 52.963L271.898 53.1882L271.9 53.3499L271.917 53.5199L271.706 53.6176L272.443 54.0483L271.491 53.8617L272.032 54.2229L272.193 54.4458L271.871 54.4893L271.842 54.6401L271.499 54.6738L271.839 54.968L272.062 55.2125L271.531 55.1759L271.888 55.4683L271.404 55.4488L272.041 55.8519L271.41 55.7757L271.749 56.0779L270.938 55.9268L271.811 56.4328L271.526 56.4865L270.817 56.3748L271.342 56.7434L271.153 56.837L270.646 56.802L271.428 57.2736L271.288 57.3821L270.925 57.4019L271.189 57.672L270.708 57.6384L270.598 57.7577L271.21 58.1672L270.294 57.9632L270.462 58.1953L270.295 58.2927L270.825 58.6726L270.114 58.5452L270.645 58.9271L270.397 58.991L269.918 58.9591L270.271 59.2658L269.974 59.3088L270.051 59.4986L270.255 59.7489L270.323 59.9395L270.321 60.1054L270.044 60.1544L270.061 60.3264L269.976 60.457L269.577 60.4528L269.611 60.633L270.114 61.0137L270.025 61.1428L269.951 61.2784L269.528 61.2628L269.476 61.4079C269.501 61.4746 269.546 61.5491 269.576 61.6171L269.298 61.6641L269.898 62.0926L269.626 62.141L269.76 62.3745L269.407 62.3855L269.481 62.5855L269.541 62.7768C269.556 62.8228 269.268 62.7346 269.628 62.934C269.687 62.9657 269.608 62.9676 270.396 63.3183L270.763 63.4796L271.409 63.7594L271.814 63.9485C271.85 63.9658 271.888 63.9786 271.927 63.9867C271.976 63.9641 271.881 63.8788 271.866 63.829L271.938 63.6897L271.877 63.4983L272.183 63.4683L272.581 63.4745L272.466 63.253L272.81 63.231L272.684 63.0046C272.696 62.9518 272.704 62.8983 272.708 62.8444L272.898 62.7527L272.552 62.4335L272.938 62.4291L273.232 62.3844L273.028 62.1263L273.488 62.1521L273.483 61.979L273.405 61.7755L273.928 61.8248L273.582 61.5075L273.284 61.2132L273.935 61.3149C273.983 61.2786 274.027 61.2388 274.075 61.2025L273.436 60.7681L274.182 60.9079L273.683 60.5327L273.811 60.4155L273.97 60.3111L274.458 60.34L274.609 60.2305L274.008 59.7865L273.991 59.6145L274.948 59.8302L274.309 59.4056L274.439 59.2883L275.161 59.4146L274.691 59.0661L274.355 58.7637L275.309 58.9719L274.606 58.5259L275.21 58.5909L274.812 58.267L275.547 58.3921L274.817 57.9389L275.373 57.9869L274.978 57.6647L275.703 57.7749L275.301 57.4514L275.284 57.2755L276.132 57.4071L276.163 57.2502L276.077 57.0495L275.353 56.6076L275.518 56.5006L276.219 56.6093L276.423 56.5163L275.617 56.047L276.339 56.1476L275.865 55.7996L276.22 55.7647L275.997 55.5203L276.057 55.3624L276.168 55.2351L276.751 55.2803L276.905 55.1685L276.961 55.021L276.298 54.6146L276.693 54.5895L277.386 54.6694L277.346 54.4878C277.268 54.4047 277.175 54.3073 277.092 54.2307L277.506 54.2097L276.901 53.8272L277.135 53.8555L277.318 53.8789C277.34 53.8768 277.471 53.9113 277.207 53.805C276.944 53.6986 276.287 53.4554 274.731 52.9137L273.059 52.3401Z" fill="#FFBCA5"/>
<path d="M287.809 57.2532C287.353 56.6986 287.617 57.0723 287.618 57.0842L287.616 57.1902C287.614 57.2189 287.617 57.2476 287.624 57.2753L287.629 57.3208L287.471 57.4483L286.93 57.1018L287.054 57.5851L286.567 57.3034L286.708 57.803L286.084 57.3549L286.072 57.6657L285.946 57.8359L285.836 58.0226L285.573 58.0264L285.935 58.79L285.183 58.2066L285.419 58.8068L285.406 59.1078L285.071 59.0269L284.931 59.1765L284.58 59.0791L284.694 59.5235L284.728 59.8698L284.248 59.6272L284.366 60.0732L283.91 59.8522L284.232 60.5239L283.682 60.2083L283.818 60.6645L283.142 60.2035L283.628 61.0628L283.316 61.0195L282.703 60.6482L282.962 61.2362L282.723 61.2757L282.262 61.0612L282.7 61.8453L282.506 61.9163L282.137 61.8168L282.22 62.2082L281.763 62.0174L281.572 62.1161L281.911 62.7661L281.134 62.243L281.153 62.5568L280.926 62.6132L281.215 63.2022L280.577 62.8512L280.87 63.4398L280.587 63.4416L280.136 63.2682L280.288 63.7108L279.97 63.6841L279.93 63.9318L279.984 64.2722L279.935 64.5068L279.832 64.6887L279.521 64.6674L279.433 64.8638L279.269 64.9859L278.856 64.8726L278.782 65.0797L279.079 65.6499L278.91 65.7684C278.858 65.8115 278.808 65.8583 278.758 65.9032L278.326 65.7739L278.192 65.9269L278.173 66.1864L277.841 66.1552L278.251 66.8082L277.938 66.795L277.968 67.1037C277.84 67.0777 277.714 67.0541 277.59 67.033L277.571 67.2867L277.542 67.5312C277.525 67.5809 277.3 67.4411 277.589 67.7644C277.637 67.8157 277.57 67.8142 278.198 68.3739L278.499 68.624L279.02 69.0783C279.156 69.2083 279.302 69.3276 279.457 69.4349C279.536 69.4372 279.509 69.3479 279.508 69.2801L279.647 69.1425L279.674 68.9041L280.009 68.9451L280.423 69.0643L280.406 68.7862C280.526 68.8103 280.652 68.836 280.766 68.8547L280.726 68.5529L280.815 68.3704L281.045 68.3198L280.848 67.8677L281.237 67.9692L281.547 67.9967L281.465 67.6491L281.908 67.8054L281.986 67.612L282.007 67.364L282.491 67.5643L282.311 67.1185L282.172 66.7105L282.752 67.0072L282.945 66.9282L282.561 66.2707L283.213 66.6502L282.937 66.0899L283.129 66.005L283.342 65.9441L283.801 66.1348L284.007 66.0705L283.656 65.4377L283.744 65.2493L284.541 65.7983L284.172 65.1332L284.365 65.0523L284.987 65.4288L284.733 64.8903L284.59 64.4548L285.374 65.0131L284.97 64.2936L285.496 64.5776L285.314 64.094L285.935 64.4884L285.534 63.7367L286.027 63.9939L285.851 63.5117L286.462 63.9032L286.286 63.417L286.378 63.2301L287.069 63.7196L287.195 63.5714L287.242 63.333L286.857 62.6076L287.078 62.5659L287.662 62.9481L287.906 62.938L287.473 62.1334L288.067 62.5346L287.861 61.9914L288.207 62.1032L288.174 61.7589L288.315 61.6271L288.508 61.5481L289.004 61.8451L289.216 61.8022L289.365 61.6817L289.045 60.9939L289.417 61.1471L289.978 61.5376C290.005 61.4725 290.036 61.4094 290.072 61.3485L290.038 61.0042L290.446 61.2098L290.182 60.5665C290.247 60.616 290.317 60.6731 290.368 60.704L290.497 60.7912C290.512 60.8017 290.598 60.8831 290.435 60.6455L290.258 60.4031L289.956 60.0033L288.87 58.6035C288.339 57.9024 288.004 57.4998 287.809 57.2532Z" fill="#FFBCA5"/>
<path d="M290.656 71.1246C290.443 70.4819 290.563 70.9021 290.565 70.9175L290.56 71.0133C290.564 71.0558 290.571 71.129 290.56 71.1262L290.462 71.1573L290.187 70.6433L290.215 71.0764L289.965 70.6495L290.01 71.1121L289.702 70.4924L289.67 70.7311L289.586 70.8094L289.508 70.9065L289.362 70.7944L289.491 71.5368L289.132 70.7567L289.204 71.3218L289.166 71.5474L288.989 71.337L288.897 71.3889L288.714 71.1578L288.729 71.5455L288.709 71.8219L288.462 71.4239L288.477 71.8116L288.253 71.4561L288.352 72.1061L288.097 71.6194L288.116 72.0242L287.796 71.3687L287.964 72.2357L287.797 72.0575L287.509 71.5019L287.578 72.0556L287.444 71.9735L287.214 71.6068L287.356 72.3908L287.233 72.3465L287.045 72.1022L287.037 72.4203L286.815 72.0684L286.701 72.0523L286.794 72.6834L286.447 71.9392L286.412 72.1742L286.281 72.1073L286.35 72.6668L286.063 72.1112L286.132 72.6687L285.977 72.5302L285.756 72.1861L285.772 72.5738L285.607 72.3954L285.547 72.553L285.524 72.82L285.461 72.9624L285.377 73.0427L285.216 72.8795L285.138 72.9747L285.031 72.9852L284.833 72.7108L284.759 72.8232L284.811 73.3532L284.701 73.3543L284.596 73.3646L284.39 73.0619L284.291 73.0949L284.232 73.2544L284.062 73.063L284.155 73.6941L283.985 73.5045L283.943 73.7149L283.745 73.4366L283.682 73.579L283.617 73.7139C283.601 73.7485 283.484 73.4642 283.585 73.8552C283.591 73.9207 283.558 73.8578 283.822 74.6785L283.946 75.0555L284.166 75.7286L284.306 76.143C284.317 76.1809 284.331 76.2179 284.348 76.2536C284.384 76.2735 284.369 76.1427 284.383 76.0984L284.479 76.056L284.532 75.8814L284.702 76.069L284.9 76.3473L284.938 76.1237L285.115 76.3359L285.153 76.1103L285.236 76.0282L285.371 76.1045L285.352 75.7016L285.543 75.9591L285.708 76.1375L285.732 75.8666L285.946 76.1919L286.027 76.1023L286.087 75.9485L286.317 76.3267L286.302 75.939L286.299 75.591L286.566 76.0844L286.69 76.1285L286.594 75.4841L286.893 76.0717L286.841 75.5435L286.96 75.5746L287.089 75.634L287.313 75.9895L287.438 76.0414L287.35 75.4234L287.431 75.3337L287.79 76.108L287.69 75.4581L287.81 75.493L288.101 76.0599L288.051 75.5492L288.037 75.1612L288.396 75.9356L288.278 75.2232L288.531 75.679L288.5 75.2403L288.796 75.8203L288.67 75.0854L288.919 75.5047L288.889 75.0678L289.182 75.6404L289.149 75.198L289.226 75.1027L289.556 75.7866L289.648 75.7346L289.708 75.5789L289.582 74.8479L289.713 74.9167L290 75.4723L290.144 75.5769L289.996 74.7722L290.289 75.3447L290.24 74.8474L290.428 75.0897L290.452 74.8188L290.55 74.78L290.666 74.8017L290.918 75.2517L291.047 75.313L291.148 75.2856L291.042 74.611L291.242 74.8929L291.532 75.4483L291.609 75.3473L291.626 75.0595L291.842 75.3944L291.752 74.7728L291.847 74.958L291.919 75.095C291.92 75.1123 291.972 75.2182 291.906 74.962C291.839 74.7058 291.643 74.0848 291.182 72.653L290.656 71.1246Z" fill="#FFBCA5"/>
<path d="M190.187 71.7871C194.937 65.7616 268.409 67.0409 273.321 74.8074C278.233 82.5739 276.344 162.396 268.031 164.985C259.717 167.574 192.454 168.437 189.053 162.828C185.653 157.218 186.786 76.1018 190.187 71.7871Z" fill="#07377F"/>
<path d="M195.106 73.2831C199.597 67.3339 269.066 68.597 273.711 76.2652C278.356 83.9334 276.569 162.746 268.709 165.302C260.848 167.858 197.25 168.71 194.034 163.172C190.819 157.633 191.891 77.5433 195.106 73.2831Z" fill="#85B7FE"/>
<path d="M207.577 83.3027C208.893 81.5509 258.775 82.3425 260.508 83.3027C262.24 84.263 261.278 111.726 259.93 113.262C258.583 114.798 209.309 114.414 207.577 113.262C205.844 112.11 206.422 84.8391 207.577 83.3027Z" fill="white"/>
<path d="M258.369 128.976H207.895C207.115 128.976 206.483 129.608 206.483 130.388V131.422C206.483 132.201 207.115 132.834 207.895 132.834H258.369C259.149 132.834 259.781 132.201 259.781 131.422V130.388C259.781 129.608 259.149 128.976 258.369 128.976Z" fill="white"/>
<path d="M246.701 122.307V124.063C246.714 124.215 246.757 124.362 246.827 124.497C246.897 124.631 246.993 124.751 247.109 124.849C247.226 124.946 247.36 125.02 247.505 125.066C247.65 125.111 247.802 125.128 247.953 125.115H247.963H258.564C258.866 125.137 259.165 125.039 259.396 124.843C259.627 124.646 259.772 124.366 259.799 124.064V122.307C259.772 122.004 259.627 121.725 259.396 121.528C259.165 121.332 258.866 121.234 258.564 121.256H247.941C247.637 121.233 247.337 121.33 247.105 121.527C246.873 121.723 246.728 122.004 246.701 122.307Z" fill="white"/>
<path d="M242.256 121.257H207.719C207.417 121.235 207.118 121.333 206.886 121.53C206.655 121.726 206.511 122.006 206.484 122.308V124.065C206.511 124.367 206.655 124.647 206.886 124.843C207.117 125.04 207.417 125.137 207.719 125.115H242.256C242.559 125.137 242.858 125.04 243.089 124.843C243.32 124.647 243.465 124.367 243.492 124.065V122.308C243.465 122.006 243.32 121.726 243.089 121.53C242.858 121.333 242.559 121.235 242.256 121.257Z" fill="white"/>
<path d="M258.369 144.416H207.895C207.115 144.416 206.483 145.048 206.483 145.828V146.861C206.483 147.641 207.115 148.273 207.895 148.273H258.369C259.149 148.273 259.781 147.641 259.781 146.861V145.828C259.781 145.048 259.149 144.416 258.369 144.416Z" fill="white"/>
<path d="M216.24 154.943V153.186C216.213 152.883 216.067 152.603 215.835 152.406C215.603 152.21 215.303 152.112 215 152.136H207.719C207.416 152.114 207.117 152.211 206.886 152.408C206.655 152.605 206.51 152.884 206.483 153.186V154.943C206.51 155.245 206.655 155.525 206.886 155.721C207.117 155.918 207.416 156.016 207.719 155.994H215C215.303 156.017 215.604 155.92 215.836 155.723C216.068 155.526 216.213 155.246 216.24 154.943Z" fill="white"/>
<path d="M220.689 155.993H251.167C251.318 156.007 251.471 155.992 251.616 155.948C251.761 155.903 251.896 155.83 252.013 155.734C252.13 155.637 252.227 155.518 252.298 155.384C252.369 155.25 252.413 155.103 252.428 154.952V154.942V153.186C252.401 152.881 252.254 152.599 252.02 152.402C251.785 152.205 251.482 152.109 251.177 152.135H251.167H220.689C220.538 152.121 220.385 152.136 220.24 152.181C220.095 152.225 219.96 152.298 219.843 152.395C219.726 152.491 219.629 152.61 219.558 152.744C219.487 152.878 219.443 153.025 219.428 153.177V153.186V154.942C219.455 155.248 219.602 155.53 219.836 155.727C220.071 155.924 220.374 156.02 220.679 155.993H220.689Z" fill="#E7F1FF"/>
<path d="M224.319 136.696H207.719C207.416 136.674 207.117 136.772 206.886 136.968C206.655 137.165 206.51 137.444 206.483 137.746V139.503C206.51 139.805 206.655 140.085 206.886 140.282C207.117 140.478 207.416 140.576 207.719 140.554H224.319C224.47 140.568 224.623 140.553 224.768 140.508C224.913 140.464 225.048 140.391 225.165 140.294C225.282 140.198 225.379 140.079 225.45 139.945C225.521 139.811 225.565 139.664 225.58 139.513V139.503V137.746C225.553 137.441 225.406 137.159 225.172 136.962C224.937 136.765 224.634 136.669 224.329 136.696H224.319Z" fill="#E7F1FF"/>
<path d="M228.769 137.747V139.503C228.795 139.806 228.94 140.087 229.172 140.283C229.404 140.48 229.705 140.577 230.008 140.554H242.256C242.558 140.576 242.857 140.478 243.088 140.282C243.32 140.085 243.464 139.805 243.491 139.503V137.747C243.464 137.444 243.319 137.165 243.088 136.968C242.857 136.772 242.558 136.674 242.256 136.696H230.008C229.705 136.673 229.405 136.77 229.172 136.967C228.94 137.163 228.795 137.443 228.769 137.747Z" fill="#E7F1FF"/>
<path d="M289.468 156.527C289.468 169.102 279.024 178.847 266.159 179.296C250.123 179.856 242.851 169.102 242.851 156.527C242.851 143.952 251.421 133.758 264.294 133.758C281.822 133.758 289.468 143.952 289.468 156.527Z" fill="#FFDA2D"/>
<path d="M255.068 151.002C253.198 152.189 254.753 159.91 255.488 160.434C256.224 160.958 261.791 159.595 262.422 160.643C263.052 161.691 262.106 166.826 262.842 167.455C263.577 168.084 270.826 168.293 271.981 167.455C273.137 166.617 271.351 161.062 271.981 160.643C272.611 160.224 278.809 161.482 279.44 160.224C280.07 158.966 280.49 151.63 279.44 151.002C278.389 150.373 272.191 151.735 271.981 151.002C271.771 150.268 272.401 144.085 271.771 143.561C271.141 143.037 263.787 142.932 262.947 143.561C262.106 144.19 263.157 150.373 262.316 150.897C261.476 151.421 256.224 150.268 255.068 151.002Z" fill="white"/>
</svg>
