<svg xmlns="http://www.w3.org/2000/svg" fill="none" viewBox="0 0 331 281"><path fill="#E7F1FF" d="M330.009 39.288v-1.006h-.041L329.961 0H0v281h330.009l-.007-40.532h.007v-1.006h-.007l-.007-39.241h.014v-1.006h-.014l-.007-39.192h.021v-1.006h-.021l-.007-39.239h.028v-1.006h-.028l-.007-39.24h.035v-1.006h-.035l-.007-39.239h.042zm-1.051-38.186v37.18h-39.196V1.102h39.196zm-40.2 0v37.18h-40.486V1.102h40.486zM164.813 119.78h40.965v39.239h-40.965v-39.239zm-1.003 39.239h-40.965v-39.239h40.965v39.239zm1.003-40.245v-39.24h40.965v39.24h-40.965zm-1.003 0h-40.965v-39.24h40.965v39.24zm-41.969 0H80.828v-39.24h41.012l.001 39.24zm0 1.006v39.239H80.828v-39.239h41.013zm0 40.245v39.191H80.828v-39.191h41.013zm1.004 0h40.965v39.191h-40.965v-39.191zm41.968 0h40.965v39.191h-40.965v-39.191zm41.968 0h40.487v39.191h-40.487v-39.191zm0-1.006v-39.239h40.487v39.239h-40.487zm0-40.245v-39.24h40.487v39.24h-40.487zm0-40.246v-39.24h40.487v39.24h-40.487zm-1.003 0h-40.965v-39.24h40.965v39.24zm-41.968 0h-40.965v-39.24h40.965v39.24zm-41.969 0H80.828v-39.24h41.012l.001 39.24zm-42.015 0H38.86v-39.24h40.965v39.24zm0 1.006v39.24H38.86v-39.24h40.965zm0 40.246v39.239H38.86v-39.239h40.965zm0 40.245v39.191H38.86v-39.191h40.965zm0 40.198v39.239H38.86v-39.24l40.965.001zm1.003 0h41.012v39.239H80.828l.001-39.239zm42.016 0h40.965v39.239h-40.965v-39.239zm41.968 0h40.965v39.239h-40.965v-39.239zm41.968 0h40.487v39.239h-40.487v-39.239zm41.491 0h40.486v39.239h-40.486v-39.239zm0-1.007v-39.191h40.486v39.191h-40.486zm0-40.197v-39.239h40.486v39.239h-40.486zm0-40.245v-39.24h40.486v39.24h-40.486zm0-40.246v-39.24h40.486v39.24h-40.486zm-1.004-77.425v37.18h-40.487V1.102h40.487zm-41.49 0v37.18h-40.965V1.102h40.965zm-41.968 0v37.18h-40.965V1.102h40.965zm-41.969 0v37.18H80.828V1.102h41.013zm-42.015 0v37.18H38.86V1.102h40.965zm-78.774 0h36.806v37.18H1.052V1.102zm0 38.185h36.806v39.24H1.052v-39.24zm0 40.246h36.806v39.24H1.052v-39.24zm0 40.246h36.806v39.239H1.052v-39.239zm0 40.245h36.806v39.191H1.052v-39.191zm0 40.198h36.806v39.239H1.052v-39.239zm0 79.724v-39.479h36.806v39.479H1.052zm37.81 0v-39.479h40.964v39.479H38.86zm41.967 0v-39.479h41.012v39.479H80.829zm42.016 0v-39.479h40.965v39.479h-40.965zm41.968 0v-39.479h40.965v39.479h-40.965zm41.968 0v-39.479h40.487v39.479h-40.487zm41.491 0v-39.479h40.486v39.479h-40.486zm80.687 0h-39.197v-39.479h39.196l.001 39.479zm0-40.485h-39.197v-39.24h39.196l.001 39.24zm0-40.245h-39.197v-39.192h39.196l.001 39.192zm0-40.198h-39.197v-39.239h39.196l.001 39.239zm0-40.245h-39.197v-39.24h39.196l.001 39.24zm0-40.246h-39.197v-39.24h39.196l.001 39.24z"/><path fill="#fff" d="M40.655 96.185c-6.442 0-12.465-1.8-17.592-4.924C13.31 85.317 6.797 74.578 6.797 62.319c0-18.704 15.159-33.867 33.858-33.867 18.192 0 31.738 11.219 32.531 29.218"/><path fill="#3C4043" d="M40.655 96.982a34.584 34.584 0 0 1-18.006-5.04A34.884 34.884 0 0 1 10.58 79.554 34.665 34.665 0 0 1 6 62.319c0-19.114 15.546-34.664 34.655-34.664 19.143 0 32.536 12.048 33.327 29.98a.797.797 0 1 1-1.592.07c-.75-17.02-13.504-28.456-31.735-28.456-18.23 0-33.062 14.835-33.062 33.07 0 11.635 5.938 22.2 15.885 28.261a32.993 32.993 0 0 0 17.177 4.808.797.797 0 0 1 0 1.594z"/><path fill="#FFF1ED" d="M78.217 44.973a13.092 13.092 0 0 0-2.127-3.355c.386-.957.666-1.974.818-3.041v-.002c.37-2.468.028-4.879-.875-7.023l-3.379-4.959-8.232 4.25-12.215 6.11.796 15.405 23.9-5.578"/><path fill="#3C4043" d="M53.004 53.155a.796.796 0 0 1-.796-.756l-.797-15.406a.797.797 0 0 1 .44-.754l12.215-6.109 8.223-4.245a.796.796 0 0 1 1.024.26l3.378 4.959c.03.043.055.09.076.139a13.889 13.889 0 0 1 .93 7.45l-.001.004c-.135.942-.368 1.871-.694 2.768a13.857 13.857 0 0 1 1.945 3.189.797.797 0 1 1-1.46.638c-.498-1.14-1.17-2.2-1.998-3.15a.798.798 0 0 1-.138-.822 12.272 12.272 0 0 0 .77-2.867 12.296 12.296 0 0 0-.792-6.52l-2.936-4.308-7.605 3.926-11.759 5.88.72 13.935 22.974-5.362a.797.797 0 1 1 .362 1.552l-23.9 5.578a.787.787 0 0 1-.181.021z"/><path fill="#fff" d="M50.611 59.288a31.26 31.26 0 0 0-9.693-1.53c-17.28 0-31.289 14.01-31.289 31.295 0 4.884 1.35 9.724 3.346 13.843"/><path fill="#3C4043" d="M12.975 103.693a.797.797 0 0 1-.717-.45c-1.563-3.226-3.425-8.307-3.425-14.19 0-17.696 14.393-32.093 32.084-32.093 3.397 0 6.74.529 9.94 1.57a.797.797 0 0 1-.493 1.516 30.457 30.457 0 0 0-9.446-1.492c-16.814 0-30.492 13.682-30.492 30.499 0 5.58 1.776 10.42 3.266 13.496a.796.796 0 0 1-.717 1.144z"/><path fill="#E7F1FF" d="M46.138 231.566c2.517 6.418 3.536 12.442.313 16.669-4.392 5.762-6.158 7.695-5.642 14.968h44.837l4.19-17.483-8.919-27.944"/><path fill="#3C4043" d="M85.646 264H40.808a.797.797 0 0 1-.794-.741c-.514-7.245 1.167-9.443 5.227-14.751l.577-.756c2.618-3.434 2.484-8.485-.422-15.895a.797.797 0 0 1 1.483-.582c3.13 7.98 3.195 13.522.206 17.443l-.579.758c-3.761 4.918-5.259 6.875-4.948 12.93h43.46l3.99-16.656-8.85-27.732a.797.797 0 1 1 1.518-.485l8.918 27.944c.045.139.05.287.016.428l-4.189 17.483a.798.798 0 0 1-.775.612z"/><path fill="#fff" d="M79.004 155.082l-3.787 8.84-4.172 9.745-1.445 3.371.571 1.487 3.792 9.879 10.692 27.89-44.441 17.621-3.453-8.981-9.276-24.054-5.938-15.406a23.875 23.875 0 0 1 .242-18.198l2.706-6.295 1.955-4.566 4.153-9.713 10.351-24.18 4.614-15.712h12.747l26.29-.266 2.563 1.683"/><path fill="#3C4043" d="M40.214 234.712a.798.798 0 0 1-.744-.511l-3.453-8.981-15.213-39.459a24.583 24.583 0 0 1-1.196-14.228c.33-1.558.818-3.096 1.449-4.571l4.66-10.861 4.154-9.713 10.333-24.136 4.6-15.667c.1-.339.41-.572.764-.572h12.747l26.282-.266a.778.778 0 0 1 .445.131l2.563 1.682a.798.798 0 0 1-.874 1.333l-2.36-1.55-26.048.263H46.164l-4.445 15.14a.77.77 0 0 1-.032.089l-10.352 24.18-6.108 14.279-2.706 6.297a23.006 23.006 0 0 0-1.355 4.273 22.997 22.997 0 0 0 1.122 13.315l15.216 39.468 3.164 8.23 42.96-17.034-10.409-27.154-4.363-11.366a.797.797 0 0 1 .011-.599l9.404-21.956a.797.797 0 1 1 1.464.627l-9.276 21.659 4.248 11.064 10.691 27.89a.797.797 0 0 1-.45 1.026l-44.441 17.621a.782.782 0 0 1-.293.057z"/><path fill="#E7F1FF" d="M144.569 231.94c2.227 3.763 5.772 6.677 10.203 8.794 8.265 3.947 11.399 5.42 15.403 6.678 6.887 2.163 11.771 8.593 11.199 15.791l-40.543-.149-21.797-12.102.199 12.19-15.291.061-.184-37.473"/><path fill="#3C4043" d="M103.942 264a.796.796 0 0 1-.797-.793l-.184-37.473a.798.798 0 0 1 .793-.801.802.802 0 0 1 .8.793l.181 36.677 13.688-.054-.186-11.383a.798.798 0 0 1 1.183-.71l21.618 12.002 39.58.146c.146-6.301-4.242-12.209-10.682-14.232-4-1.256-7.108-2.707-15.507-6.719-4.769-2.277-8.317-5.342-10.545-9.107a.797.797 0 1 1 1.371-.812c2.064 3.489 5.382 6.342 9.861 8.482 8.323 3.975 11.4 5.412 15.297 6.636 3.542 1.112 6.668 3.35 8.804 6.301 2.191 3.027 3.239 6.69 2.951 10.314a.797.797 0 0 1-.794.733h-.003l-40.543-.149a.78.78 0 0 1-.384-.1l-20.591-11.432.176 10.81a.795.795 0 0 1-.793.81l-15.291.061h-.003z"/><path fill="#fff" d="M85.494 107.525l22.965 9.624 24.383 10.215 10.092 4.226 6.224 2.609 6.496 2.722a23.895 23.895 0 0 1 11.058 25.991l-.003.003-8.171 33.502-4.037 16.546-4.82 19.754-47.452-7.22 13.95-56.423-.412-.154-11.663-4.393-1.981-.744-11.008-4.143-12.112-4.558"/><path fill="#3C4043" d="M149.682 233.514a.694.694 0 0 1-.12-.01l-47.453-7.219a.798.798 0 0 1-.653-.979l13.779-55.734-36.512-13.744a.797.797 0 0 1 .561-1.492l37.174 13.992a.798.798 0 0 1 .494.938l-13.74 55.575 45.868 6.979 16.855-69.094a.761.761 0 0 1 .013-.045c2.277-9.824-1.999-19.877-10.654-25.046L85.186 108.26a.797.797 0 0 1 .615-1.47l70.16 29.396c.034.015.067.031.1.05 9.302 5.527 13.894 16.32 11.426 26.858l-.016.06-17.016 69.752a.796.796 0 0 1-.773.608z"/><path fill="#3C4043" d="M78.71 156.543a.798.798 0 0 1-.742-1.086l3.548-9.119a.796.796 0 0 1 1.485.578l-3.547 9.119a.798.798 0 0 1-.743.508zM205.906 70.842a.812.812 0 0 1-.132-.01l-5.042-.841a.797.797 0 0 1 .262-1.572l5.042.84a.797.797 0 0 1-.13 1.583z"/><path fill="#FFF1ED" d="M29.41 158.135l-4.928 2.847 1.954-4.566 2.975 1.719zM69.605 177.039l.571 1.487-4.814 2.779v-10.923l5.688 3.286-1.445 3.371zM33.843 216.651v-10.925l9.454 5.461-9.454 5.464zM108.665 158.352l-7.473 4.319-1.981-.743v-9.037l9.454 5.461zM149.156 134.202l-6.225 3.597v-6.205l6.225 2.608z"/><path fill="#E7F1FF" d="M145.945 146.875h-.29c-8.022-.007-14.542-6.541-14.534-14.564.001-1.797.33-3.558.978-5.233a.797.797 0 0 1 1.487.574 12.923 12.923 0 0 0-.872 4.66c-.006 7.145 5.799 12.963 12.942 12.969h.289a12.925 12.925 0 0 0 11.508-7.007.797.797 0 0 1 1.415.733 14.514 14.514 0 0 1-12.923 7.868zM146.047 216.682h-.304c-8.017 0-14.539-6.524-14.539-14.543 0-8.018 6.522-14.542 14.539-14.542h.296a14.58 14.58 0 0 1 13.223 8.489.797.797 0 1 1-1.449.664 12.982 12.982 0 0 0-11.774-7.559h-.296c-7.138 0-12.946 5.808-12.946 12.948 0 7.141 5.808 12.949 12.946 12.949h.304c2.875 0 5.702-.977 7.963-2.751a.795.795 0 0 1 1.118.135.795.795 0 0 1-.135 1.118 14.543 14.543 0 0 1-8.946 3.092z"/><path fill="#FFF1ED" d="M143.021 207.595v-10.924l9.457 5.463-9.457 5.461z"/><path fill="#E7F1FF" d="M112.845 167.859a.795.795 0 0 1-.615-1.302 12.933 12.933 0 0 0 2.929-8.203c0-7.144-5.808-12.953-12.946-12.953h-.29a12.917 12.917 0 0 0-12.933 12.414.797.797 0 0 1-1.592-.066 14.506 14.506 0 0 1 14.525-13.942h.289c8.017 0 14.54 6.524 14.54 14.543a14.527 14.527 0 0 1-3.291 9.218.792.792 0 0 1-.616.291zM36.855 225.732h-.104a.797.797 0 0 1 0-1.594h.103c7.139-.001 12.946-5.811 12.946-12.952 0-7.153-5.807-12.962-12.946-12.962h-.297a12.86 12.86 0 0 0-8.553 3.252.796.796 0 1 1-1.058-1.191 14.449 14.449 0 0 1 9.61-3.655h.298c8.017 0 14.54 6.524 14.54 14.543 0 8.032-6.523 14.557-14.54 14.559zM75.216 164.72a.785.785 0 0 1-.397-.107 12.897 12.897 0 0 0-6.427-1.718h-.3c-.235 0-.473.006-.706.019a.796.796 0 1 1-.086-1.592c.262-.014.529-.021.791-.021h.302c2.53 0 5.027.668 7.22 1.931a.797.797 0 0 1-.397 1.488zM68.392 190.386h-.3c-8.017 0-14.54-6.524-14.54-14.542a.796.796 0 1 1 1.594 0c0 7.14 5.807 12.949 12.945 12.949h.3a12.8 12.8 0 0 0 5.242-1.116.797.797 0 1 1 .649 1.456 14.372 14.372 0 0 1-5.89 1.253zM22.966 172.68h-.287c-.81 0-1.626-.068-2.424-.202a.797.797 0 1 1 .264-1.571c.712.119 1.439.18 2.16.18h.287c7.14 0 12.948-5.81 12.948-12.952a12.904 12.904 0 0 0-5.753-10.769.797.797 0 0 1 .884-1.326 14.496 14.496 0 0 1 6.463 12.096c0 8.019-6.524 14.544-14.542 14.544zM94.494 133.134c-3.88 0-7.528-1.51-10.273-4.252a14.45 14.45 0 0 1-4.265-10.281 14.45 14.45 0 0 1 4.257-10.292c.418-.417.866-.814 1.331-1.179a.797.797 0 0 1 .983 1.254c-.415.326-.814.68-1.187 1.052a12.866 12.866 0 0 0-3.791 9.164 12.867 12.867 0 0 0 3.798 9.154 12.86 12.86 0 0 0 9.147 3.787h.3c7.136-.002 12.944-5.811 12.945-12.949a12.789 12.789 0 0 0-.082-1.352.797.797 0 0 1 1.583-.181c.057.504.088 1.018.093 1.526-.002 8.024-6.524 14.548-14.54 14.549h-.299z"/><path fill="#FFF1ED" d="M91.78 124.053V113.13l9.456 5.462-9.457 5.461z"/><path fill="#3C4043" d="M77.403 44.21a.796.796 0 0 1-.692-.402l-1.197-2.095a.797.797 0 0 1 1.384-.79l1.196 2.094a.797.797 0 0 1-.69 1.193zM40.213 234.977a.797.797 0 0 1-.744-.51l-3.452-8.981-15.213-39.46a24.58 24.58 0 0 1-1.197-14.227c.33-1.558.818-3.096 1.45-4.571l4.66-10.861 4.153-9.714 10.352-24.179 5.942-13.853a.796.796 0 0 1 .658-.48l11.419-1.062.042-.003 26.177-1.058.69-.23a.797.797 0 1 1 .504 1.512l-.797.266a.821.821 0 0 1-.22.04l-26.27 1.062-10.926 1.017-5.755 13.417-10.35 24.179-6.109 14.28-2.706 6.296a22.999 22.999 0 0 0-1.355 4.273 23.004 23.004 0 0 0 1.122 13.316l15.216 39.467 3.164 8.23 42.96-17.034-10.409-27.154-4.363-11.366a.797.797 0 0 1 .012-.599l9.403-21.956a.796.796 0 1 1 1.464.627L70.46 177.32l4.247 11.064 10.691 27.89a.797.797 0 0 1-.45 1.026l-44.441 17.621a.786.786 0 0 1-.294.056z"/><path fill="#fff" d="M56.541 38.906c2.67-.435 6.74-2.651 8.6-4.801l6.753-6.564 4.139 4.085c-.844-3.187-2.178-5.992-4.874-7.872a14.388 14.388 0 0 0-10.103-2.424c-7.189.981-13.688 6.413-12.077 16.36"/><path fill="#3C4043" d="M56.54 39.703a.797.797 0 0 1-.127-1.584c2.56-.417 6.433-2.58 8.125-4.536a.803.803 0 0 1 .047-.05l6.754-6.564a.796.796 0 0 1 1.114.004l1.69 1.668c-.862-1.855-1.975-3.211-3.44-4.233a13.591 13.591 0 0 0-9.543-2.288c-3.948.539-7.26 2.37-9.324 5.157-2.034 2.749-2.731 6.209-2.071 10.285a.797.797 0 1 1-1.573.254c-.72-4.452.096-8.424 2.364-11.487 2.32-3.135 6.011-5.19 10.392-5.788 3.774-.5 7.56.409 10.664 2.558 3.283 2.289 4.535 5.846 5.19 8.323a.797.797 0 0 1-1.329.771l-3.584-3.537-6.17 5.996c-1.933 2.217-6.151 4.568-9.05 5.04a.78.78 0 0 1-.129.01z"/><path fill="#FFED96" stroke="#3C4043" d="M171.373 83.216l.053.055.065.036c4.705 2.603 9.453 1.432 12.745.043 1.233-.52 2.291-1.084 3.061-1.495l.338-.18a15.404 15.404 0 0 1-11.136 7.305h-.001l-56.707 7.791-.007.001c-.556.061-1.115.092-1.675.092H86.243l-.047.447-1.036 9.809-36.568 2.049-.213.012-.14.162-1.849 2.159-.33.385.39.324 13.894 11.567v.008l.18.15c4.3 3.576 6.165 8.995 5.4 14.151a15.258 15.258 0 0 0-.34-1.65c-.82-3.086-2.933-6.887-8.35-8.759-3.887-1.343-11.536-.519-15.485 6.222-1.048 1.788-.788 4.218-.153 6.562.533 1.968 1.368 3.996 2.079 5.724.145.353.285.693.417 1.018a11.083 11.083 0 0 1 .736 2.901 15.412 15.412 0 0 1-4.04-2.429l-26.512-22.083a15.56 15.56 0 0 1-.179-.151v-.001c-6.47-5.55-7.218-15.295-1.67-21.767 0 0 0 0 0 0l24.876-29.006h0c1.12-1.309 2.238-2.44 3.81-3.382 1.574-.943 3.63-1.714 6.64-2.255.151-.027.297-.055.44-.082.37-.07.719-.136 1.08-.18h0l3.139-.38c.008.221.024.496.059.81.09.827.305 1.944.803 3.085.5 1.142 1.288 2.317 2.528 3.24 1.243.924 2.912 1.576 5.136 1.714 2.568.159 4.463-.473 5.841-1.556 1.37-1.076 2.18-2.559 2.658-4.023.477-1.464.63-2.938.667-4.038a16.523 16.523 0 0 0-.011-1.37l1.686-.204h0c.585-.071 1.698-.087 2.755-.084a120.161 120.161 0 0 1 1.743.02c.234.004.411.007.498.007h40.497l.034-.005 55.057-7.602h.001a15.362 15.362 0 0 1 10.047 2.084l-.03.001c-.312.015-.685.028-1.104.041-.872.029-1.942.064-3.078.146-1.694.123-3.591.352-5.344.834-1.747.48-3.401 1.223-4.565 2.405-.926.94-2.832 3.033-3.138 6.303-.306 3.286 1.013 7.618 6.221 13.02z"/><path fill="#FFF1ED" d="M78.162 44.86c.99 2.262 1.32 4.758.949 7.199-1.014 6.843-7.203 11.954-13.935 11.177l4.307-.076v5.52a8.286 8.286 0 0 1-8.507 8.058h-.006a8.289 8.289 0 0 1-8.06-8.298l.071-18.283"/><path fill="#3C4043" d="M61.204 77.538c-.083 0-.166 0-.25-.003a9.038 9.038 0 0 1-8.84-9.096l.07-18.285a.797.797 0 0 1 .797-.794h.003c.44.002.795.36.794.8l-.071 18.284a7.45 7.45 0 0 0 7.285 7.498c4.13.11 7.583-3.155 7.695-7.284v-4.687l-.337.006c-1.064.156-2.16.178-3.265.05a.797.797 0 0 1 .077-1.588l3.064-.053c5.033-.782 9.288-4.979 10.097-10.443.349-2.298.041-4.636-.89-6.762a.797.797 0 0 1 1.46-.64 13.835 13.835 0 0 1 1.005 7.638c-.813 5.494-4.733 9.853-9.618 11.361v5.14c-.134 4.944-4.181 8.858-9.076 8.858z"/><path fill="#3C4043" d="M69.182 47.519a.797.797 0 0 1-.136-1.583l2-.347-1.073-2.707a.797.797 0 0 1 1.481-.587l1.435 3.617a.797.797 0 0 1-.604 1.08l-2.966.515a.806.806 0 0 1-.137.012zM65.176 42.7a1.381 1.381 0 1 0 0-2.763 1.381 1.381 0 0 0 0 2.762zM75.134 42.922a1.381 1.381 0 1 0 0-2.762 1.381 1.381 0 0 0 0 2.762z"/><path fill="#FFF1ED" d="M53.213 49.783a6.094 6.094 0 0 1-7.172-6 6.094 6.094 0 1 1 12.186.001"/><path fill="#3C4043" d="M52.135 50.675c-3.8 0-6.89-3.092-6.89-6.892 0-3.8 3.09-6.891 6.89-6.891 3.799 0 6.89 3.091 6.89 6.891a.797.797 0 1 1-1.594 0 5.303 5.303 0 0 0-5.296-5.297 5.303 5.303 0 0 0-5.297 5.297 5.303 5.303 0 0 0 6.235 5.215.797.797 0 1 1 .28 1.569c-.4.072-.81.108-1.218.108z"/><path fill="#3C4043" d="M51.886 45.647a.797.797 0 0 1-.27-1.547l1.216-.439-2.392-.943a.797.797 0 0 1 .585-1.483l4.355 1.718a.797.797 0 0 1-.022 1.49L52.156 45.6a.8.8 0 0 1-.27.048zM70.596 55.681c-2.045 0-4.182-1.706-4.319-4.974a.797.797 0 0 1 .819-.83l6.68.191a.798.798 0 0 1 .774.825c-.116 3.3-2.064 4.782-3.942 4.788h-.012zm-2.624-4.185c.353 1.706 1.512 2.592 2.623 2.592h.007c1.167-.004 2.013-.942 2.274-2.451l-4.904-.14zM48.614 110.053a.796.796 0 0 1-.655-1.249l7.38-10.689a.797.797 0 1 1 1.312.906l-7.38 10.688a.796.796 0 0 1-.657.344zM86.748 97.637a.797.797 0 0 1-.793-.88l.841-7.964a.797.797 0 0 1 1.585.168l-.842 7.963a.797.797 0 0 1-.791.713z"/><path fill="#FFF1ED" d="M54.028 127.5c-8.373-.985-16.116 8.107-11.448 15.871.064.106.128.21.191.308 2.178 3.374 3.806 7.137 1.448 12.514-1.666 3.79-4.743 9.209-1.105 10.659 2.523 1.004 6.373-5.188 9.385-9.647-1.233 7.639-2.834 17.645.584 18.404 3.418.76 5.255-6.404 6.782-16.319.234 11.156-1.184 17.087 2.186 17.43 5.558.56 6.429-22.334 4.61-30.323 0 0-.388-1.913-1.424-8.864-1.06-7.108-6.814-9.515-11.209-10.033z"/><path fill="#3C4043" d="M62.243 177.526c-.096 0-.187-.005-.273-.014-2.277-.231-2.662-2.476-2.789-3.214-.257-1.496-.236-3.58-.18-6.187-1.079 4.394-2.26 6.794-3.742 7.808-.726.496-1.516.653-2.35.468-3.405-.757-3.04-7.112-1.752-15.761-2.558 3.757-5.14 7.133-7.469 7.134-.294 0-.584-.054-.869-.168-.941-.375-1.592-.998-1.932-1.852-.897-2.245.623-5.548 1.964-8.462.224-.485.44-.957.638-1.406 2.083-4.749.952-8.136-1.387-11.76a11.587 11.587 0 0 1-.205-.33c-2.14-3.56-2.034-7.669.293-11.273 2.584-4.005 7.379-6.335 11.93-5.799 3.156.371 10.63 2.159 11.905 10.706 1.017 6.83 1.412 8.804 1.416 8.823 1.558 6.844 1.22 25.505-2.843 30.103-.838.949-1.704 1.184-2.355 1.184zm-2.38-19.033a.797.797 0 0 1 .797.78c.066 3.089.006 5.727-.047 8.054-.133 5.843-.123 8.433 1.517 8.6.161.016.651.066 1.274-.641 3.484-3.943 4.12-21.509 2.479-28.712-.02-.098-.408-2.031-1.435-8.924-1.111-7.459-7.723-9.029-10.514-9.358-3.961-.467-8.144 1.575-10.406 5.081-1.985 3.074-2.082 6.569-.266 9.588.059.098.117.194.177.284 2.266 3.512 4.017 7.548 1.508 13.268-.2.457-.422.937-.65 1.431-1.146 2.493-2.574 5.596-1.931 7.205.177.444.508.75 1.042.963 1.711.682 5.43-4.876 7.653-8.196.264-.394.523-.782.777-1.158a.797.797 0 0 1 1.446.573c-.586 3.634-1.316 8.157-1.442 11.684-.17 4.75.813 5.683 1.413 5.816.397.088.748.016 1.105-.228 2.344-1.603 3.815-9.577 4.717-15.435a.796.796 0 0 1 .787-.675z"/><path fill="#FFF1ED" d="M187.801 72.67c4.206-2.043 2.112-2.152 5.733-6.035l7.661-8.807c4.92-5.62-2.355-4.806-4.856-3.03l-8.495 5.451c-6.227.593-9.217.456-15.623 1.95-7.828 1.821-7.103 14.056-3.088 18.529a11.437 11.437 0 0 0 12.216 3.15c1.832-.656 3.393-1.448 4.987-2.032l.045-.016a11.678 11.678 0 0 1 3.904-.813 9.949 9.949 0 0 1 2.1.189c1.575.308 3.346 1.012 5.471 2.29 3.542 2.138 8.519 5.886 10.425 2.464.651-1.166-.387-2.882-2.087-4.741l-6.592-5.394 10.634 2.325c4.061.803 7.347.875 8.009-.952 1.192-3.294-6.261-5.192-12.34-7.153 6.528.925 13.819 1.7 14.592-1.6.755-3.229-.703-4.474-8.755-5.935l-12.885-1.994"/><path fill="#3C4043" d="M205.964 88.138c-2.192 0-4.839-1.661-7.21-3.149-.452-.283-.891-.559-1.31-.812-1.94-1.166-3.645-1.883-5.211-2.19a9.16 9.16 0 0 0-1.935-.173 10.84 10.84 0 0 0-3.623.757l-.028.01-.045.016c-.714.262-1.432.572-2.192.9-.88.38-1.792.772-2.792 1.13a12.218 12.218 0 0 1-13.076-3.366c-2.821-3.142-3.953-9.387-2.524-13.922 1.005-3.188 3.087-5.234 6.024-5.917 4.789-1.116 7.707-1.334 11.401-1.61 1.277-.096 2.596-.194 4.134-.338l8.318-5.338c1.698-1.193 5.824-2.254 7.287-.633.963 1.067.496 2.699-1.387 4.85l-1.388 1.596 11.458 1.774c5.683 1.03 8.051 1.944 9.067 3.492.744 1.135.574 2.42.342 3.412-.596 2.544-3.836 3.155-8.034 2.987 2.734 1.028 4.888 2.17 5.639 3.688a2.67 2.67 0 0 1 .116 2.167c-.977 2.698-5.555 2.127-8.913 1.463l-7.402-1.62 4.019 3.29c.03.024.058.05.084.08 1.428 1.562 3.209 3.849 2.195 5.666-.493.885-1.195 1.45-2.086 1.678a3.707 3.707 0 0 1-.928.112zm-15.522-7.919c.711 0 1.412.069 2.098.205 1.75.342 3.624 1.124 5.727 2.388.427.258.874.539 1.334.827 2.324 1.459 5.217 3.274 6.895 2.843.464-.119.81-.408 1.09-.91.213-.38.24-1.375-1.941-3.773l-6.547-5.358a.795.795 0 0 1 .674-1.395l10.634 2.325c5.625 1.112 6.857.199 7.09-.445.12-.33.106-.613-.045-.917-.879-1.775-5.613-3.261-9.791-4.572-.674-.212-1.345-.422-1.999-.634a.797.797 0 0 1 .356-1.547c4.232.6 13.039 1.848 13.705-.993.24-1.026.203-1.677-.123-2.174-.711-1.083-3.028-1.893-7.999-2.795l-12.43-1.924-5.034 5.788-.019.02c-1.419 1.522-1.899 2.402-2.285 3.109-.659 1.205-1.09 1.84-3.683 3.1a.796.796 0 1 1-.696-1.434c2.249-1.092 2.463-1.484 2.98-2.43.406-.743.961-1.76 2.51-3.421L198.249 60l.014-.015 2.331-2.681c1.509-1.723 1.578-2.542 1.405-2.734-.575-.636-3.623-.243-5.198.876l-.031.02-8.495 5.452a.803.803 0 0 1-.355.123 205.18 205.18 0 0 1-4.359.359c-3.625.27-6.489.484-11.159 1.573-2.977.693-4.289 3.017-4.865 4.844-1.256 3.988-.254 9.656 2.189 12.377a10.623 10.623 0 0 0 11.364 2.93c.944-.339 1.831-.722 2.689-1.092.781-.337 1.518-.655 2.283-.936l.04-.014a12.439 12.439 0 0 1 4.156-.862l.184-.002zM149.682 233.514a.694.694 0 0 1-.12-.01l-47.453-7.219a.798.798 0 0 1-.653-.979l13.779-55.734-36.512-13.744a.797.797 0 0 1 .561-1.492l37.174 13.992a.798.798 0 0 1 .494.938l-13.74 55.575 45.868 6.979 16.855-69.094a.761.761 0 0 1 .013-.045c2.277-9.824-1.999-19.877-10.654-25.046L85.186 108.26a.797.797 0 0 1 .615-1.47l70.16 29.396c.034.015.067.031.1.05 9.302 5.527 13.894 16.32 11.426 26.858l-.016.06-17.016 69.752a.796.796 0 0 1-.773.608z"/><path fill="#FFBCA5" d="M273.059 52.34c-.687-.23-.242-.055-.225-.043l.191.179-.075.135-.664-.073.362.279-.569-.041.414.308-.772-.121.177.225.002.162.017.17-.211.098.737.43-.952-.186.541.36.161.224-.322.043-.029.151-.343.034.34.294.223.244-.531-.036.357.292-.484-.02.637.404-.631-.076.339.302-.811-.151.873.506-.285.053-.709-.111.525.368-.189.094-.507-.035.782.472-.14.108-.363.02.264.27-.481-.034-.11.12.612.41-.916-.205.168.232-.167.098.53.38-.711-.128.531.382-.248.064-.479-.032.353.307-.297.043.077.19.204.25.068.19-.002.166-.277.05.017.171-.085.131-.399-.004.034.18.503.38-.089.13-.074.135-.423-.015-.052.145c.025.067.07.141.1.21l-.278.046.6.429-.272.048.134.233-.353.011.074.2.06.192c.015.046-.273-.042.087.157.059.032-.02.034.768.384l.367.162.646.28.405.189c.036.017.074.03.113.038.049-.023-.046-.108-.061-.158l.072-.14-.061-.19.306-.03.398.005-.115-.221.344-.022-.126-.226c.012-.053.02-.107.024-.16l.19-.092-.346-.32.386-.004.294-.045-.204-.258.46.026-.005-.173-.078-.203.523.049-.346-.318-.298-.294.651.102c.048-.036.092-.076.14-.112l-.639-.435.746.14-.499-.375.128-.117.159-.105.488.029.151-.11-.601-.444-.017-.172.957.216-.639-.424.13-.118.722.127-.47-.349-.336-.302.954.208-.703-.446.604.065-.398-.324.735.125-.73-.453.556.048-.395-.322.725.11-.402-.324-.017-.175.848.131.031-.157-.086-.2-.724-.442.165-.107.701.108.204-.093-.806-.469.722.1-.474-.347.355-.035-.223-.245.06-.158.111-.127.583.045.154-.111.056-.148-.663-.406.395-.026.693.08-.04-.181a5.36 5.36 0 0 0-.254-.257l.414-.021-.605-.383.234.029.183.023c.022-.002.153.032-.111-.074-.263-.106-.92-.35-2.476-.891l-1.672-.574zM287.809 57.253c-.456-.554-.192-.18-.191-.169l-.002.106a.27.27 0 0 0 .008.085l.005.046-.158.127-.541-.346.124.483-.487-.282.141.5-.624-.448-.012.31-.126.17-.11.188-.263.003.362.764-.752-.583.236.6-.013.3-.335-.08-.14.15-.351-.098.114.444.034.347-.48-.243.118.446-.456-.22.322.67-.55-.315.136.456-.676-.46.486.859-.312-.044-.613-.37.259.587-.239.04-.461-.215.438.784-.194.071-.369-.1.083.392-.457-.19-.191.098.339.65-.777-.523.019.314-.227.056.289.59-.638-.352.293.589-.283.002-.451-.174.152.443-.318-.027-.04.248.054.34-.049.235-.103.182-.311-.022-.088.197-.164.122-.413-.113-.074.207.297.57-.169.118c-.052.043-.102.09-.152.135l-.432-.13-.134.154-.019.26-.332-.032.41.653-.313-.013.03.309c-.128-.026-.254-.05-.378-.071l-.019.254-.029.244c-.017.05-.242-.09.047.233.048.052-.019.05.609.61l.301.25.521.454c.136.13.282.25.437.357.079.002.052-.087.051-.155l.139-.138.027-.238.335.041.414.12-.017-.279c.12.024.246.05.36.069l-.04-.302.089-.183.23-.05-.197-.452.389.101.31.028-.082-.348.443.156.078-.193.021-.248.484.2-.18-.445-.139-.409.58.297.193-.079-.384-.657.652.38-.276-.561.192-.085.213-.06.459.19.206-.065-.351-.632.088-.189.797.55-.369-.666.193-.08.622.376-.254-.539-.143-.435.784.558-.404-.72.526.285-.182-.484.621.394-.401-.751.493.257-.176-.482.611.391-.176-.486.092-.187.691.49.126-.149.047-.238-.385-.725.221-.042.584.382.244-.01-.433-.805.594.402-.206-.544.346.112-.033-.344.141-.132.193-.079.496.297.212-.043.149-.12-.32-.688.372.153.561.39c.027-.065.058-.128.094-.188l-.034-.345.408.206-.264-.644c.065.05.135.107.186.138l.129.087c.015.01.101.092-.062-.145l-.177-.243-.302-.4-1.086-1.4c-.531-.7-.866-1.103-1.061-1.35zM290.656 71.125c-.213-.643-.093-.223-.091-.207l-.005.095c.004.043.011.116 0 .113l-.098.031-.275-.514.028.433-.25-.426.045.462-.308-.62-.032.24-.084.077-.078.097-.146-.112.129.743-.359-.78.072.565-.038.225-.177-.21-.092.052-.183-.231.015.388-.02.276-.247-.398.015.388-.224-.356.099.65-.255-.487.019.405-.32-.655.168.867-.167-.178-.288-.556.069.554-.134-.082-.23-.367.142.784-.123-.044-.188-.245-.008.318-.222-.352-.114-.016.093.631-.347-.744-.035.235-.131-.067.069.56-.287-.556.069.558-.155-.139-.221-.344.016.388-.165-.179-.06.158-.023.267-.063.142-.084.08-.161-.163-.078.096-.107.01-.198-.274-.074.112.052.53-.11.001-.105.01-.206-.302-.099.033-.059.16-.17-.192.093.631-.17-.19-.042.21-.198-.277-.063.142-.065.135c-.016.035-.133-.25-.032.141.006.066-.027.003.237.823l.124.377.22.674.14.414a.731.731 0 0 0 .042.11c.036.02.021-.11.035-.155l.096-.042.053-.175.17.188.198.278.038-.223.177.212.038-.226.083-.082.135.076-.019-.402.191.257.165.178.024-.27.214.325.081-.09.06-.154.23.379-.015-.388-.003-.348.267.493.124.044-.096-.644.299.588-.052-.529.119.032.129.059.224.356.125.051-.088-.618.081-.09.359.775-.1-.65.12.035.291.567-.05-.51-.014-.389.359.775-.118-.713.253.456-.031-.439.296.58-.126-.735.249.42-.03-.437.293.572-.033-.442.077-.095.33.684.092-.052.06-.156-.126-.731.131.069.287.555.144.105-.148-.805.293.573-.049-.498.188.243.024-.271.098-.039.116.022.252.45.129.061.101-.027-.106-.675.2.282.29.555.077-.1.017-.288.216.334-.09-.621.095.185.072.137c.001.017.053.123-.013-.133-.067-.256-.263-.877-.724-2.309l-.526-1.528z"/><path fill="#07377F" d="M190.187 71.787c4.75-6.025 78.222-4.746 83.134 3.02 4.912 7.767 3.023 87.589-5.29 90.178-8.314 2.589-75.577 3.452-78.978-2.157-3.4-5.61-2.267-86.726 1.134-91.04z"/><path fill="#85B7FE" d="M195.106 73.283c4.491-5.95 73.96-4.686 78.605 2.982 4.645 7.668 2.858 86.481-5.002 89.037-7.861 2.556-71.459 3.408-74.675-2.13-3.215-5.539-2.143-85.629 1.072-89.889z"/><path fill="#fff" d="M207.577 83.303c1.316-1.752 51.198-.96 52.931 0 1.732.96.77 28.423-.578 29.959-1.347 1.536-50.621 1.152-52.353 0-1.733-1.152-1.155-28.423 0-29.96zM258.369 128.976h-50.474c-.78 0-1.412.632-1.412 1.412v1.034c0 .779.632 1.412 1.412 1.412h50.474c.78 0 1.412-.633 1.412-1.412v-1.034c0-.78-.632-1.412-1.412-1.412zM246.701 122.307v1.756a1.156 1.156 0 0 0 1.252 1.052h10.611a1.157 1.157 0 0 0 1.235-1.051v-1.757a1.158 1.158 0 0 0-1.235-1.051h-10.623a1.156 1.156 0 0 0-1.24 1.051zM242.256 121.257h-34.537a1.157 1.157 0 0 0-1.235 1.051v1.757a1.155 1.155 0 0 0 1.235 1.05h34.537a1.154 1.154 0 0 0 1.236-1.05v-1.757a1.156 1.156 0 0 0-1.236-1.051zM258.369 144.416h-50.474c-.78 0-1.412.632-1.412 1.412v1.033c0 .78.632 1.412 1.412 1.412h50.474c.78 0 1.412-.632 1.412-1.412v-1.033c0-.78-.632-1.412-1.412-1.412zM216.24 154.943v-1.757a1.159 1.159 0 0 0-1.24-1.05h-7.281a1.154 1.154 0 0 0-1.236 1.05v1.757a1.156 1.156 0 0 0 1.236 1.051H215a1.157 1.157 0 0 0 1.24-1.051z"/><path fill="#E7F1FF" d="M220.689 155.993h30.478c.151.014.304-.001.449-.045a1.161 1.161 0 0 0 .812-.996v-1.766a1.159 1.159 0 0 0-1.251-1.051H220.689a1.156 1.156 0 0 0-1.261 1.042v1.765a1.16 1.16 0 0 0 1.251 1.051h.01zM224.319 136.696h-16.6a1.158 1.158 0 0 0-1.236 1.05v1.757a1.158 1.158 0 0 0 1.236 1.051h16.6a1.156 1.156 0 0 0 1.261-1.041v-1.767a1.159 1.159 0 0 0-1.251-1.05h-.01zM228.769 137.747v1.756a1.15 1.15 0 0 0 1.239 1.051h12.248a1.157 1.157 0 0 0 1.235-1.051v-1.756a1.158 1.158 0 0 0-1.235-1.051h-12.248a1.158 1.158 0 0 0-1.239 1.051z"/><path fill="#FFDA2D" d="M289.468 156.527c0 12.575-10.444 22.32-23.309 22.769-16.036.56-23.308-10.194-23.308-22.769 0-12.575 8.57-22.769 21.443-22.769 17.528 0 25.174 10.194 25.174 22.769z"/><path fill="#fff" d="M255.068 151.002c-1.87 1.187-.315 8.908.42 9.432.736.524 6.303-.839 6.934.209.63 1.048-.316 6.183.42 6.812.735.629 7.984.838 9.139 0 1.156-.838-.63-6.393 0-6.812.63-.419 6.828.839 7.459-.419.63-1.258 1.05-8.594 0-9.222-1.051-.629-7.249.733-7.459 0-.21-.734.42-6.917-.21-7.441s-7.984-.629-8.824 0c-.841.629.21 6.812-.631 7.336-.84.524-6.092-.629-7.248.105z"/></svg>