<svg xmlns="http://www.w3.org/2000/svg" fill="none" viewBox="0 0 331 281"><path fill="#E7F1FF" d="M330.009 39.288v-1.006h-.041L329.961 0H0v281h330.009l-.007-40.532h.007v-1.006h-.007l-.007-39.241h.014v-1.006h-.014l-.007-39.192h.021v-1.006h-.021l-.007-39.239h.028v-1.006h-.028l-.007-39.24h.035v-1.006h-.035l-.007-39.239h.042zm-1.051-38.186v37.18h-39.196V1.102h39.196zm-40.2 0v37.18h-40.486V1.102h40.486zM164.813 119.78h40.965v39.239h-40.965v-39.239zm-1.003 39.239h-40.965v-39.239h40.965v39.239zm1.003-40.245v-39.24h40.965v39.24h-40.965zm-1.003 0h-40.965v-39.24h40.965v39.24zm-41.969 0H80.828v-39.24h41.012l.001 39.24zm0 1.006v39.239H80.828v-39.239h41.013zm0 40.245v39.191H80.828v-39.191h41.013zm1.004 0h40.965v39.191h-40.965v-39.191zm41.968 0h40.965v39.191h-40.965v-39.191zm41.968 0h40.487v39.191h-40.487v-39.191zm0-1.006v-39.239h40.487v39.239h-40.487zm0-40.245v-39.24h40.487v39.24h-40.487zm0-40.246v-39.24h40.487v39.24h-40.487zm-1.003 0h-40.965v-39.24h40.965v39.24zm-41.968 0h-40.965v-39.24h40.965v39.24zm-41.969 0H80.828v-39.24h41.012l.001 39.24zm-42.015 0H38.86v-39.24h40.965v39.24zm0 1.006v39.24H38.86v-39.24h40.965zm0 40.246v39.239H38.86v-39.239h40.965zm0 40.245v39.191H38.86v-39.191h40.965zm0 40.198v39.239H38.86v-39.24l40.965.001zm1.003 0h41.012v39.239H80.828l.001-39.239zm42.016 0h40.965v39.239h-40.965v-39.239zm41.968 0h40.965v39.239h-40.965v-39.239zm41.968 0h40.487v39.239h-40.487v-39.239zm41.491 0h40.486v39.239h-40.486v-39.239zm0-1.007v-39.191h40.486v39.191h-40.486zm0-40.197v-39.239h40.486v39.239h-40.486zm0-40.245v-39.24h40.486v39.24h-40.486zm0-40.246v-39.24h40.486v39.24h-40.486zm-1.004-77.425v37.18h-40.487V1.102h40.487zm-41.49 0v37.18h-40.965V1.102h40.965zm-41.968 0v37.18h-40.965V1.102h40.965zm-41.969 0v37.18H80.828V1.102h41.013zm-42.015 0v37.18H38.86V1.102h40.965zm-78.774 0h36.806v37.18H1.052V1.102zm0 38.185h36.806v39.24H1.052v-39.24zm0 40.246h36.806v39.24H1.052v-39.24zm0 40.246h36.806v39.239H1.052v-39.239zm0 40.245h36.806v39.191H1.052v-39.191zm0 40.198h36.806v39.239H1.052v-39.239zm0 79.724v-39.479h36.806v39.479H1.052zm37.81 0v-39.479h40.964v39.479H38.86zm41.967 0v-39.479h41.012v39.479H80.829zm42.016 0v-39.479h40.965v39.479h-40.965zm41.968 0v-39.479h40.965v39.479h-40.965zm41.968 0v-39.479h40.487v39.479h-40.487zm41.491 0v-39.479h40.486v39.479h-40.486zm80.687 0h-39.197v-39.479h39.196l.001 39.479zm0-40.485h-39.197v-39.24h39.196l.001 39.24zm0-40.245h-39.197v-39.192h39.196l.001 39.192zm0-40.198h-39.197v-39.239h39.196l.001 39.239zm0-40.245h-39.197v-39.24h39.196l.001 39.24zm0-40.246h-39.197v-39.24h39.196l.001 39.24z"/><path fill="#E7F1FF" d="M209.001 236.007c3.935 3.724 9.199 5.027 15.035 4.482 8.008-.749 14.617-1.909 14.617-1.909 6.061-1.838 12.565.97 15.373 6.638l-30.447 18.325-21.871.196 5.639 9.581-11.493 6.923-12.78-21.106"/><path fill="#3C4043" d="M195.855 281a.759.759 0 0 1-.649-.366l-12.779-21.105a.755.755 0 0 1 .256-1.039.76.76 0 0 1 1.041.256l12.387 20.459 10.204-6.146-5.26-8.936a.759.759 0 0 1 .647-1.14l21.664-.194 29.656-17.849a12.158 12.158 0 0 0-14.148-5.636.641.641 0 0 1-.089.021c-.066.012-6.731 1.174-14.678 1.917-6.355.594-11.76-1.026-15.626-4.686a.755.755 0 0 1-.029-1.069.759.759 0 0 1 1.071-.028c3.591 3.398 8.45 4.837 14.443 4.277 7.55-.706 13.925-1.791 14.513-1.893a13.672 13.672 0 0 1 16.227 7.041.757.757 0 0 1-.288.983l-30.448 18.324a.765.765 0 0 1-.384.109l-20.561.185 4.976 8.452a.756.756 0 0 1-.262 1.031l-11.494 6.924a.758.758 0 0 1-.39.108z"/><path fill="#FFED96" d="M64.745 169.408l-5.36-6.134a5.887 5.887 0 0 1-1.438-3.457l-3.397-32.068c-1.155-7.022-.252-14.118 5.856-18.182l29.754-22.41c3.06-2.214 7.04-3.517 10.607-2.269l13.133 4.79c.794.361 2.045 1.543 2.525 2.27l14.396 20.17 17.426-14.12c2.216-1.624 6.749-3.05 8.587-1.008l10.102 14.371c.982 1.746.766 5.506-.758 6.808l-31.569 26.473-11.87-15.38-40.156-.756 2.526 29.75-12.123-7.816c-6.462.701-9.71 4.666-10.607 11.094l2.366 7.874z"/><path fill="#fff" d="M123.882 130.31l12.256 13.832 10.675 12.044 24.98 28.192 6.205 7.005 18.876 21.301 10.67 12.042 6.945 7.838-32.013 28.561-16.445-18.553-7.691-8.676-7.294-8.23-64.17-74.721 24.486-20.793"/><path fill="#E7F1FF" d="M82.836 253.811c-3.814 3.94-3.665 7.047-2.646 9.12.766 1.559 2.162 2.707 3.794 3.308 5.128 1.888 8.435 6.997 7.944 12.532h-2.02l-33.59-.171-6.47-19.595-6.733 7.528-9.357-8.541 24.075-26.115 25.003 21.934z"/><path fill="#3C4043" d="M91.928 279.528h-2.02l-33.594-.172a.759.759 0 0 1-.715-.519l-6.06-18.351-5.86 6.551a.755.755 0 0 1-1.076.054l-9.357-8.542a.754.754 0 0 1-.046-1.07l24.076-26.115a.758.758 0 0 1 1.058-.056l25.002 21.935a.753.753 0 0 1 .045 1.093c-2.893 2.987-3.737 5.767-2.511 8.261.654 1.33 1.852 2.371 3.376 2.932 5.484 2.018 8.953 7.491 8.437 13.309a.758.758 0 0 1-.755.69zm-35.06-1.682l33.043.169h1.302a11.473 11.473 0 0 0-7.491-11.066c-1.89-.696-3.387-2.005-4.212-3.685-1.01-2.054-1.397-5.318 2.24-9.398l-23.86-20.934-23.06 25.013 8.23 7.513 6.223-6.957a.757.757 0 0 1 1.284.267l6.3 19.078z"/><path fill="#fff" d="M80.78 195.314l-29.261 34.041 32.326 28.237 48.111-54.332c1.093-1.312 4.124-5.299 4.42-11.22.231-4.626-1.322-8.128-2.147-9.706l-18.941-52.19-32.58-1.512 2.779 30.506 2.82 18.043a10.965 10.965 0 0 1-1.287 7.087l-6.24 11.046z"/><path fill="#fff" stroke="#3C4043" stroke-width="1.5" d="M95.202 50.329c2.895 0 5.713.528 8.382 1.57l.03.087c.065.212.128.508.178.833a9.078 9.078 0 0 1 .097.997 6.061 6.061 0 0 0-1.608 1.125c-1.028 1.005-1.986 2.67-1.986 5.358 0 .802.233 1.595.526 2.356.177.459.396.956.617 1.455.135.307.271.614.397.913.678 1.608 1.244 3.345 1.016 5.4-1.895 4.56-3.944 9.487-5.205 12.517-1.683.09-3.472.672-5.197 1.47-1.91.885-3.8 2.062-5.466 3.225a66.578 66.578 0 0 0-4.173 3.19c-.38.312-.708.588-.97.808l-.264.221-.011.01a23.022 23.022 0 0 1-9.4-18.538c0-12.679 10.333-22.997 23.037-22.997zm8.34 1.467l.001.003c-.014-.02-.014-.025-.001-.003zm.675 1.868l.003-.001h-.002l-.001.001zM82.011 92.183h0z"/><path fill="#FFF1ED" d="M103.561 65.597c-.107.69-.169 1.39-.184 2.095l-.003-.003c-.021.998.054 1.975.21 2.925l-4.077 9.81c-.003 0-.598 1.431-1.356 3.256-1.75 4.211.251 9.042 4.47 10.79 4.219 1.747 9.058-.251 10.808-4.463l2.655-6.388c.937.193 1.903.308 2.894.33 8.806.188 16.097-6.786 16.286-15.577a15.874 15.874 0 0 0-.905-5.637 15.855 15.855 0 0 0 1.057-7.634l-3.837-5.257"/><path fill="#3C4043" d="M105.79 95.861a9.03 9.03 0 0 1-3.46-.693c-4.598-1.904-6.787-7.188-4.88-11.778l1.252-3.006c.034-.082.07-.167.11-.248l-.004-.002 3.994-9.613a16.8 16.8 0 0 1-.185-2.848c0-.022.001-.043.004-.064.018-.71.082-1.425.191-2.127a.758.758 0 0 1 1.498.231c-.102.66-.162 1.33-.175 1.995l-.004.061c-.016.899.052 1.814.201 2.723a.753.753 0 0 1-.048.412l-4.077 9.81a616.139 616.139 0 0 0-1.357 3.255c-1.587 3.82.235 8.217 4.061 9.802a7.477 7.477 0 0 0 5.75.003 7.458 7.458 0 0 0 4.068-4.057l2.654-6.388a.76.76 0 0 1 .853-.451c.918.189 1.846.294 2.757.314 8.37.186 15.334-6.476 15.513-14.837.04-1.832-.25-3.638-.862-5.368a.754.754 0 0 1 .012-.534 15.09 15.09 0 0 0 1.026-7.072l-3.715-5.092a.758.758 0 0 1 1.224-.89l3.836 5.256a.75.75 0 0 1 .141.363 16.583 16.583 0 0 1-1.002 7.734c.609 1.82.897 3.715.855 5.636-.197 9.194-7.851 16.511-17.06 16.316a16.746 16.746 0 0 1-2.413-.23l-2.419 5.822a8.966 8.966 0 0 1-4.889 4.875 9.022 9.022 0 0 1-3.45.69zM182.569 261.806l-.044-.002a.76.76 0 0 1-.523-.254l-51.201-57.762a.758.758 0 0 1 1.135-1.003l50.696 57.194 30.884-27.553-90.108-101.691a.755.755 0 0 1 .065-1.067.759.759 0 0 1 1.07.065l90.607 102.255a.755.755 0 0 1-.062 1.065l-32.014 28.56a.76.76 0 0 1-.505.193z"/><path fill="#fff" stroke="#3C4043" stroke-width="1.5" d="M135.428 55.113h0c-.489-4.664-1.801-7.695-4.182-9.978a16.62 16.62 0 0 0-11.925-4.648 16.624 16.624 0 0 0-11.725 5.131m27.832 9.495L107.85 53.46l.033-.749h-.001c-.529-.023-1.19.165-1.786.375a26.75 26.75 0 0 0-1.923.787c-.204.09-.398.178-.581.26l-.407.184a16.59 16.59 0 0 1 4.411-8.698m27.832 9.495v.001l-.001.002a.007.007 0 0 1-.003.003h-.001a.008.008 0 0 1-.009-.002h0l-3.6-4.871-.436-.59-.6.422-8.369 5.897-.025.017-.023.02c-1.988 1.651-4.505 2.74-7.142 3.09l20.209-3.989zm-27.832-9.495l-.541-.52m.541.52l-.541-.52m0 0a17.35 17.35 0 0 0-4.668 9.445l33.787.491c-.501-4.776-1.861-7.997-4.409-10.44a17.368 17.368 0 0 0-12.46-4.857c-4.667.095-9.017 2-12.25 5.361zm7.599 14.067s0 0 0 0h0z"/><path fill="#FFF1ED" d="M107.85 67.14a6.849 6.849 0 0 1-5.752-3.198 6.832 6.832 0 0 1 2.152-9.432 6.857 6.857 0 0 1 10.405 4.648"/><path fill="#3C4043" d="M107.848 67.897h-.006a7.587 7.587 0 0 1-6.388-3.552c-2.233-3.546-1.162-8.245 2.39-10.475a7.568 7.568 0 0 1 5.741-.977 7.557 7.557 0 0 1 4.751 3.362c.539.855.897 1.79 1.064 2.778a.758.758 0 0 1-1.494.252 6.043 6.043 0 0 0-.853-2.224 6.05 6.05 0 0 0-3.805-2.693 6.062 6.062 0 0 0-4.598.782 6.085 6.085 0 0 0-1.914 8.39 6.079 6.079 0 0 0 5.117 2.845.757.757 0 0 1-.005 1.512zM124.069 130.908l-.043-.001a.757.757 0 0 1-.714-.797 23.591 23.591 0 0 0-1.427-9.529 26.254 26.254 0 0 1-1.185-13.228.758.758 0 0 1 1.494.252 24.724 24.724 0 0 0 1.115 12.459 25.083 25.083 0 0 1 1.516 10.131.757.757 0 0 1-.756.713zM131.001 112.607a.76.76 0 0 1-.629-.334c-.083-.123-8.34-12.361-11.107-16.398a33.782 33.782 0 0 0-5.835-6.475.754.754 0 0 1-.086-1.067.759.759 0 0 1 1.068-.086 35.37 35.37 0 0 1 6.104 6.774c2.383 3.477 8.832 13.027 10.638 15.702l14.507-12.406c2.792-2.386 6.146-3.604 9.684-3.52a.756.756 0 1 1-.036 1.513c-3.168-.073-6.159 1.017-8.662 3.156l-15.153 12.959a.76.76 0 0 1-.493.182zM136.112 144.652a.756.756 0 0 1-.434-1.377c.354-.246.7-.512 1.028-.792l27.022-23.099c1.743-1.49 4.453-4.372 3.018-6.933a.759.759 0 0 1 1.323-.739c1.454 2.596.263 5.729-3.355 8.821l-27.023 23.1c-.366.312-.752.609-1.147.884a.76.76 0 0 1-.432.135z"/><path fill="#3C4043" d="M84.984 160.722a.756.756 0 0 1-.744-.906 13.097 13.097 0 0 0 .16-4.201l-3.111-27.497a.756.756 0 0 1 .791-.84l42.025 2.118c.418.021.74.377.719.794a.755.755 0 0 1-.795.717l-41.134-2.074 3.01 26.605.031.285a14.597 14.597 0 0 1-.21 4.392.757.757 0 0 1-.742.607z"/><path fill="#3C4043" d="M66.538 170.979a.762.762 0 0 1-.264-.047c-5.272-1.956-8.904-6.638-9.478-12.22l-4.04-35.822c-.566-5.038 1.577-10.094 5.592-13.196.253-.193 25.058-19.191 27.55-21.068 2.331-1.757 7.005-4.84 12.109-5.752a.756.756 0 1 1 .267 1.49c-4.794.856-9.24 3.794-11.464 5.469-2.487 1.874-27.287 20.868-27.537 21.059-3.598 2.779-5.52 7.313-5.012 11.829l4.041 35.829c.516 5.012 3.772 9.21 8.5 10.963a.757.757 0 0 1-.264 1.466z"/><path fill="#FFF1ED" d="M71.956 150.472c-7.995.592-13.582 10.463-7.829 16.854.078.088.157.171.235.252 2.642 2.748 4.844 5.963 3.612 11.398-.87 3.833-2.763 9.44.896 10.133 2.526.479 5.018-5.985 7.018-10.685.23 7.342.543 16.956 3.872 17.046 3.329.091 4.18-4.833 3.811-14.35 2.238 10.364 1.556 14.055 4.763 13.765 5.304-.481 1.965-21.972-1.177-29.089 0 0-.707-1.712-2.932-8.003-2.263-6.429-8.071-7.644-12.269-7.321z"/><path fill="#3C4043" d="M79.85 196.227l-.11-.001c-3.318-.091-4.126-6.077-4.485-14.369-1.824 4.224-3.75 8.034-6.108 8.035-.139 0-.277-.014-.419-.04-.946-.179-1.665-.643-2.138-1.377-1.244-1.929-.422-5.282.303-8.24.12-.493.238-.972.341-1.426 1.089-4.802-.58-7.753-3.419-10.708a7.936 7.936 0 0 1-.255-.274c-2.635-2.927-3.275-6.775-1.753-10.554 1.691-4.198 5.747-7.234 10.093-7.556 3.014-.231 10.31.069 13.04 7.825 2.186 6.18 2.91 7.947 2.918 7.965 2.692 6.099 5.751 23.55 2.793 28.563-.703 1.191-1.61 1.51-2.248 1.568-2.907.261-3.379-2.05-4.15-6.675-.275 3.207-.924 5.189-1.996 6.271-.653.66-1.462.993-2.407.993zm-3.962-18.56a.756.756 0 0 1 .758.733c.109 3.493.245 7.838.765 11.149.7 4.457 1.785 5.149 2.37 5.165.568.019 1.016-.157 1.398-.543 1.845-1.863 1.817-8.324 1.635-13.023a.758.758 0 0 1 1.498-.188c.64 2.968 1.042 5.384 1.364 7.326.845 5.085 1.114 5.981 2.59 5.846.153-.014.623-.057 1.079-.83 2.537-4.299-.048-20.782-2.881-27.202-.037-.087-.748-1.818-2.954-8.056-2.382-6.769-8.833-7.024-11.496-6.819h-.002c-3.783.28-7.32 2.938-8.8 6.612-1.297 3.223-.759 6.497 1.479 8.983.074.083.145.158.215.231 2.753 2.864 5.117 6.309 3.806 12.092-.105.462-.224.949-.347 1.451-.62 2.53-1.392 5.68-.501 7.063.246.381.61.607 1.147.708a.73.73 0 0 0 .14.013c1.718.001 4.113-5.682 5.56-9.115l.48-1.135a.758.758 0 0 1 .697-.461zm-3.932-27.196h.002-.002zM82.042 128.79a.758.758 0 0 1-.511-1.315l17.697-16.14a.759.759 0 0 1 1.07.048.755.755 0 0 1-.048 1.068l-17.697 16.141a.752.752 0 0 1-.51.198z"/><path fill="#FFF1ED" d="M165.058 102.468c2.328-3.506.654-2.633 1.685-7.297l1.911-10.327c1.244-6.604-4.029-2.645-5.157-.126l-4.096 8.109c-4.561 3.307-6.944 4.57-11.232 8.656-5.241 4.992.927 14.138 6.092 15.766a10.32 10.32 0 0 0 10.924-3.148c1.121-1.346 1.971-2.674 2.939-3.855l.028-.033a10.53 10.53 0 0 1 2.658-2.415 8.93 8.93 0 0 1 1.716-.815c1.363-.482 3.061-.747 5.295-.729 3.729.036 9.308.662 9.22-2.86-.029-1.201-1.621-2.055-3.792-2.718l-7.587-1.163 9.318-3.063c3.52-1.236 6.104-2.683 5.78-4.402-.583-3.096-7.238-1.157-12.854.105 5.491-2.27 11.504-5.005 10.592-7.914-.893-2.847-2.595-3.144-9.514-.593l-10.914 4.349"/><path fill="#3C4043" d="M157.342 118.477c-1.103 0-2.218-.166-3.309-.506-3.641-1.148-7.393-5.48-8.364-9.658-.684-2.943-.001-5.494 1.975-7.377 3.208-3.058 5.374-4.562 8.117-6.467.945-.656 1.92-1.334 3.045-2.146l4.005-7.93c.777-1.713 3.516-4.437 5.413-3.845 1.259.393 1.653 1.885 1.173 4.436l-.333 1.801 9.638-3.84c4.896-1.807 7.16-2.182 8.669-1.442 1.111.545 1.572 1.628 1.849 2.51.695 2.22-1.443 4.152-4.677 5.922 2.5-.422 4.61-.491 5.86.322.597.389.967.944 1.1 1.652.484 2.566-3.349 4.228-6.273 5.255l-6.33 2.08 4.463.685a.733.733 0 0 1 .106.024c1.836.561 4.282 1.525 4.328 3.423.023.922-.267 1.69-.862 2.282-1.554 1.548-4.839 1.46-7.737 1.382a89.63 89.63 0 0 0-1.387-.03c-2.036-.016-3.682.208-5.034.686a8.18 8.18 0 0 0-1.573.746 9.723 9.723 0 0 0-2.455 2.235l-.018.022-.028.033c-.433.528-.848 1.096-1.287 1.696-.51.699-1.037 1.42-1.651 2.157a11.068 11.068 0 0 1-8.423 3.892zm10.29-36.505c-.82 0-2.797 1.607-3.445 3.055l-.015.031-4.096 8.11a.762.762 0 0 1-.232.271c-1.199.87-2.225 1.583-3.218 2.272-2.689 1.867-4.812 3.342-7.936 6.319-1.98 1.887-1.933 4.272-1.545 5.941.849 3.651 4.211 7.57 7.342 8.557a9.548 9.548 0 0 0 10.119-2.917c.576-.693 1.089-1.395 1.586-2.074.451-.618.878-1.202 1.344-1.77l.025-.029a11.234 11.234 0 0 1 2.839-2.578 9.75 9.75 0 0 1 1.873-.89c1.519-.537 3.334-.791 5.551-.772.451.004.926.017 1.415.03 2.464.067 5.532.149 6.626-.94.297-.296.43-.669.417-1.174-.008-.308-.336-1.114-3.204-1.998l-7.533-1.154a.758.758 0 0 1-.123-1.467l9.319-3.063c4.846-1.7 5.384-2.95 5.272-3.543a.94.94 0 0 0-.438-.664c-1.481-.964-5.827.05-9.662.943-.62.144-1.237.288-1.843.424a.758.758 0 0 1-.456-1.437c3.549-1.467 10.933-4.52 10.159-6.99-.28-.893-.601-1.373-1.071-1.603-1.037-.51-3.198-.076-7.457 1.495l-10.507 4.187-1.252 6.765-.006.026c-.403 1.822-.373 2.72-.348 3.443.041 1.243-.003 1.938-1.445 4.109a.756.756 0 1 1-1.263-.836c1.239-1.864 1.225-2.262 1.193-3.223-.025-.762-.06-1.806.381-3.807l1.324-7.152.003-.018.582-3.143c.39-2.071.035-2.662-.135-2.715a.446.446 0 0 0-.14-.02z"/><path fill="#3C4043" d="M173.608 94.565a.757.757 0 0 1-.273-1.462l4.298-1.655a.756.756 0 1 1 .546 1.411l-4.299 1.655a.759.759 0 0 1-.272.051zM83.996 258.338a.76.76 0 0 1-.498-.186L51.13 229.987a.755.755 0 0 1-.074-1.067l17.565-20.124 11.61-13.958a.758.758 0 0 1 1.165.966l-11.62 13.972-17.08 19.568 31.225 27.171 40.681-46.6 5.974-6.823c.224-.257.516-.6.776-.948 4.419-5.718 5.536-13.156 2.997-19.905l-19.567-52.249a.758.758 0 0 1 1.419-.529l19.567 52.247c2.725 7.242 1.525 15.224-3.208 21.351-.283.378-.599.748-.842 1.027l-5.974 6.824-41.178 47.168a.757.757 0 0 1-.52.258l-.051.002zM129.768 72.018a.757.757 0 0 1-.324-1.44l2.964-1.397-2.549-5.824a.757.757 0 0 1 1.388-.606l2.844 6.498a.756.756 0 0 1-.371.987l-3.629 1.71a.76.76 0 0 1-.323.072zM125.817 65.027a1.168 1.168 0 0 0 .368-1.613 1.173 1.173 0 0 0-1.616-.368 1.168 1.168 0 0 0-.368 1.613 1.173 1.173 0 0 0 1.616.368zM134.505 65.965a1.168 1.168 0 0 0 .368-1.613 1.172 1.172 0 0 0-1.983 1.246 1.172 1.172 0 0 0 1.615.367zM127.271 76.45c-.277 0-.555-.028-.832-.083a4.156 4.156 0 0 1-2.883-2.157l-.073-.137a.757.757 0 1 1 1.34-.706l.073.138a2.653 2.653 0 0 0 1.841 1.378c.699.141 1.411 0 2.005-.394l.527-.353a.756.756 0 1 1 .845 1.256l-.53.355a4.165 4.165 0 0 1-2.313.703zM116.079 84.38a.777.777 0 0 1-.155-.017 16.65 16.65 0 0 1-7.805-3.962.756.756 0 0 1-.052-1.069.758.758 0 0 1 1.07-.052 15.133 15.133 0 0 0 7.095 3.602.757.757 0 0 1-.153 1.497zM110.306 62.423a.765.765 0 0 1-.082-.005l-5.556-.602a.756.756 0 1 1 .164-1.504l3.561.386-2.629-2.871a.756.756 0 0 1 .048-1.069.758.758 0 0 1 1.07.048l3.983 4.35a.756.756 0 0 1-.559 1.267z"/><path fill="#fff" d="M176.45 73.811l8.502 1.036c3.432.418 5.867 3.477 5.44 6.833l-4.212 33.071c-.428 3.356-3.556 5.737-6.988 5.319l-8.502-1.035c-3.431-.418-5.867-3.478-5.439-6.834l4.212-33.07c.427-3.356 3.556-5.738 6.987-5.32z"/><path fill="#3C4043" d="M179.98 120.806c-.29 0-.582-.018-.875-.053l-8.502-1.036a6.956 6.956 0 0 1-4.635-2.575 6.66 6.66 0 0 1-1.415-5.025l4.212-33.071a6.733 6.733 0 0 1 2.633-4.533 7.032 7.032 0 0 1 5.139-1.384l8.502 1.036a6.953 6.953 0 0 1 4.634 2.574 6.658 6.658 0 0 1 1.416 5.026l-4.212 33.071a6.732 6.732 0 0 1-2.633 4.532 7.01 7.01 0 0 1-4.264 1.438zm-4.315-46.355c-1.23 0-2.417.397-3.403 1.147a5.376 5.376 0 0 0-2.102 3.618l-4.212 33.07a5.316 5.316 0 0 0 1.13 4.011 5.55 5.55 0 0 0 3.699 2.055l8.502 1.036a5.613 5.613 0 0 0 4.101-1.105 5.376 5.376 0 0 0 2.102-3.617l4.212-33.07a5.317 5.317 0 0 0-1.13-4.012 5.551 5.551 0 0 0-3.699-2.055l-8.502-1.035a5.78 5.78 0 0 0-.698-.043z"/><path fill="#3C4043" d="M192.917 81.989l-4.211 33.072a6.734 6.734 0 0 1-2.634 4.533 7.018 7.018 0 0 1-4.263 1.437c-.29 0-3.491-.381-3.782-.418-.387-.045 2.247-.027 2.297-.403a.536.536 0 0 1 .021-.103c2.955-.172 5.455-2.381 5.835-5.356l4.211-33.07c.41-3.21-1.8-6.148-4.994-6.76-.342-.298-.607-.598-.586-.756 0 0 1.671.174 2.055.225 3.811.462 6.527 3.873 6.051 7.599z"/><path fill="#3C4043" d="M190.43 81.291c-.023 0-.046 0-.07-.003l-20.872-2.01a.691.691 0 0 1-.631-.752.697.697 0 0 1 .768-.616l20.873 2.01a.691.691 0 0 1 .631.75.698.698 0 0 1-.699.621zM186.356 114.067a.768.768 0 0 1-.067-.003l-21.004-1.962a.691.691 0 0 1-.633-.749.696.696 0 0 1 .766-.619l21.004 1.961c.387.036.67.372.633.75a.696.696 0 0 1-.699.622z"/><path fill="#FFF1ED" d="M101.196 135.424l-1.057 7.111-4.858-3.861 5.915-3.25z"/><path fill="#E7F1FF" d="M109.121 145.821l-.18.227c-4.996 6.276-14.168 7.316-20.445 2.318a14.492 14.492 0 0 1-3.488-4.022.797.797 0 1 1 1.375-.806 12.918 12.918 0 0 0 3.106 3.582c5.59 4.45 13.756 3.524 18.205-2.064l.179-.226a12.924 12.924 0 0 0 1.674-13.37.797.797 0 0 1 1.455-.651 14.513 14.513 0 0 1-1.881 15.012z"/><path fill="#FFF1ED" d="M82.532 238.67l5.388 1.837-4.724 1.533-.664-3.37zM99.06 187.26l-6.895-5.192-.089-2.114 8.319-3.53-1.335 10.836z"/><path fill="#E7F1FF" d="M194.981 245.045l-.016.003-.283.053c-7.878 1.488-15.497-3.713-16.985-11.593-1.487-7.88 3.712-15.5 11.59-16.987l.284-.054.007-.001a14.58 14.58 0 0 1 14.568 5.889.798.798 0 0 1-1.301.921 12.983 12.983 0 0 0-12.972-5.244l-.006.001-.284.054c-7.015 1.324-11.644 8.109-10.32 15.126 1.325 7.016 8.109 11.647 15.123 10.322l.285-.053a12.947 12.947 0 0 0 7.328-4.184.796.796 0 1 1 1.199 1.05 14.553 14.553 0 0 1-8.217 4.697z"/><path fill="#FFF1ED" d="M190.323 236.677l-2.026-10.736 10.305 3.615-8.279 7.121z"/><path fill="#E7F1FF" d="M91.94 194.822a.798.798 0 0 1 .959-1.076c2.862.842 5.95.662 8.695-.508 6.576-2.79 9.655-10.405 6.867-16.977l-.113-.266a12.916 12.916 0 0 0-16.48-7.057.797.797 0 1 1-.56-1.492 14.507 14.507 0 0 1 18.507 7.926l.113.266c3.131 7.38-.327 15.933-7.708 19.065a14.526 14.526 0 0 1-9.772.571.79.79 0 0 1-.508-.452zM97.729 233.948l.189.216c.532.61 1.018 1.269 1.442 1.958a.796.796 0 1 1-1.356.836 13.114 13.114 0 0 0-1.286-1.745l-.189-.216c-4.7-5.375-12.897-5.925-18.273-1.224a12.903 12.903 0 0 0-4.321 11.419.797.797 0 0 1-1.58.207 14.494 14.494 0 0 1 4.853-12.826c6.037-5.278 15.243-4.661 20.52 1.375zM149.97 192.919a14.449 14.449 0 0 1-7.244-8.435 14.455 14.455 0 0 1 .839-11.099 14.448 14.448 0 0 1 8.448-7.258c.562-.184 1.14-.336 1.72-.451a.797.797 0 1 1 .31 1.563c-.517.103-1.033.238-1.534.402a12.868 12.868 0 0 0-7.522 6.463 12.871 12.871 0 0 0-.747 9.882 12.86 12.86 0 0 0 6.459 7.515l.258.131c6.368 3.223 14.174.664 17.4-5.704.198-.4.38-.82.537-1.243a.796.796 0 1 1 1.494.554c-.177.475-.381.947-.607 1.403-3.626 7.158-12.392 10.032-19.543 6.412l-.259-.131-.009-.004z"/><path fill="#FFF1ED" d="M151.648 183.591l4.934-9.744 5.97 9.144-10.904.6z"/><path fill="#FFBCA5" d="M249.647 25.57c-.687-.231-.242-.056-.225-.044l.191.179-.074.135-.664-.073.361.279-.569-.041.415.308-.773-.121.178.225.002.162.017.17-.212.098.737.43-.952-.186.541.36.162.224-.323.043-.028.151-.343.034.339.294.223.245-.531-.037.357.292-.483-.02.636.404-.63-.076.338.302-.811-.151.874.506-.286.053-.709-.111.526.368-.19.094-.507-.035.783.472-.141.108-.362.02.263.27-.481-.034-.109.12.611.41-.916-.205.168.232-.167.098.531.38-.711-.128.531.382-.249.064-.478-.032.352.307-.296.043.076.19.204.25.068.19-.001.166-.278.05.017.171-.085.131-.398-.004.033.18.504.38-.089.13-.074.135-.424-.015-.051.145c.024.067.069.141.1.21l-.278.046.599.429-.272.048.135.233-.353.011.073.2.061.192c.014.046-.273-.042.087.157.058.032-.021.034.768.384l.366.162.646.28.405.189c.036.017.074.03.113.038.05-.023-.046-.108-.061-.158l.072-.14-.061-.19.306-.03.399.005-.116-.221.344-.022-.125-.226c.011-.053.019-.107.024-.16l.19-.092-.346-.32.386-.004.294-.045-.205-.258.46.026-.005-.173-.077-.203.522.049-.346-.318-.297-.294.651.102c.048-.036.092-.076.14-.112l-.64-.435.746.14-.498-.375.127-.117.159-.105.489.03.15-.11-.601-.444-.017-.172.957.215-.639-.424.13-.118.723.127-.47-.349-.336-.302.953.208-.702-.446.603.065-.398-.324.735.125-.729-.453.556.048-.396-.322.725.11-.402-.324-.017-.175.849.131.03-.157-.085-.2-.724-.442.164-.107.702.108.203-.093-.806-.469.722.1-.474-.347.355-.035-.223-.245.06-.158.111-.127.584.045.154-.111.055-.148-.663-.406.396-.026.692.08-.04-.181a4.892 4.892 0 0 0-.254-.257l.414-.021-.605-.383.234.028.183.024c.022-.002.153.032-.11-.074-.264-.106-.92-.35-2.476-.891l-1.673-.574zM264.396 30.482c-.456-.554-.193-.18-.191-.169l-.002.106a.27.27 0 0 0 .008.085l.005.046-.158.127-.541-.346.124.483-.487-.282.141.5-.625-.448-.011.31-.126.17-.11.188-.263.003.362.764-.752-.583.236.6-.013.3-.335-.08-.14.15-.351-.098.114.444.034.347-.48-.243.118.446-.456-.22.322.67-.55-.315.136.457-.677-.462.487.86-.312-.044-.613-.37.259.587-.239.04-.461-.215.438.784-.194.071-.369-.1.083.392-.457-.19-.191.098.339.65-.777-.523.019.314-.227.056.289.59-.638-.352.293.589-.283.002-.451-.174.152.443-.318-.027-.04.248.054.34-.049.235-.103.182-.311-.022-.088.197-.164.122-.413-.113-.074.207.297.57-.169.118c-.052.044-.102.09-.152.135l-.432-.13-.134.154-.019.26-.332-.032.41.653-.313-.013.03.309c-.128-.026-.254-.05-.378-.071l-.02.254-.028.244c-.017.05-.242-.09.047.233.047.052-.019.05.609.61l.301.25.521.454c.136.13.282.25.437.357.078.002.052-.087.051-.155l.139-.138.027-.238.335.041.414.12-.017-.279c.12.024.245.05.36.069l-.04-.302.089-.183.23-.05-.197-.452.389.101.31.028-.082-.348.443.156.077-.193.022-.248.484.2-.18-.446-.139-.407.58.296.193-.079-.384-.657.652.38-.276-.561.192-.085.213-.06.459.19.206-.064-.351-.633.088-.189.797.55-.369-.666.193-.08.622.376-.254-.539-.143-.435.784.558-.404-.72.526.285-.182-.484.621.394-.401-.751.493.257-.176-.482.611.391-.176-.486.092-.187.691.49.126-.149.047-.238-.385-.725.221-.042.584.382.244-.01-.433-.805.594.402-.206-.544.346.112-.033-.344.141-.132.193-.079.496.297.212-.043.149-.12-.321-.688.373.153.561.39c.027-.064.058-.128.094-.188l-.034-.345.408.206-.264-.644c.065.05.135.107.186.138l.129.087c.015.01.101.092-.063-.146l-.176-.242-.303-.4-1.085-1.4c-.531-.7-.866-1.103-1.061-1.35zM267.244 44.354c-.213-.643-.093-.223-.091-.207l-.005.095c.004.043.011.116 0 .113l-.099.031-.274-.514.028.434-.25-.427.045.462-.308-.62-.033.24-.083.077-.078.098-.146-.113.129.743-.359-.78.072.565-.038.225-.177-.21-.092.052-.183-.231.015.388-.02.276-.247-.398.015.388-.224-.356.099.65-.256-.487.019.405-.32-.655.169.867-.167-.179-.288-.555.069.554-.135-.082-.229-.367.142.784-.123-.044-.188-.245-.009.318-.221-.352-.114-.016.093.631-.347-.744-.035.235-.132-.067.07.56-.287-.556.069.558-.155-.139-.221-.344.015.388-.165-.179-.059.158-.024.267-.062.142-.084.08-.161-.163-.078.096-.107.01-.198-.274-.074.112.052.53-.11.001-.105.01-.206-.302-.099.033-.059.16-.17-.192.093.631-.171-.19-.041.21-.198-.277-.063.142-.066.135c-.015.035-.132-.25-.031.141.006.066-.027.003.236.823l.125.378.22.673.14.414a.731.731 0 0 0 .042.11c.035.02.02-.11.035-.155l.095-.042.054-.175.17.188.198.278.038-.223.177.212.038-.226.083-.082.134.077-.018-.403.191.257.165.178.024-.27.214.325.081-.09.06-.154.23.379-.015-.388-.003-.348.266.493.125.044-.096-.644.298.588-.051-.529.119.032.128.059.224.355.126.052-.088-.618.081-.09.359.775-.1-.65.12.035.291.567-.051-.51-.013-.389.359.775-.118-.713.253.456-.031-.439.296.58-.126-.735.249.42-.031-.437.294.572-.034-.442.078-.095.329.684.093-.052.059-.156-.125-.731.131.069.287.555.144.105-.148-.805.293.573-.049-.498.188.243.023-.271.098-.039.117.022.252.45.129.061.101-.027-.106-.675.2.282.29.555.077-.1.017-.288.216.334-.09-.621.095.185.072.137c.001.017.053.123-.013-.133-.067-.256-.263-.877-.724-2.309l-.526-1.528z"/><path fill="#E7F1FF" d="M208.393 19.896l2.623 1.456L184.623 68.9 182 67.444zM243.633 55l1.448 2.628-47.633 26.24L196 81.238zM250.941 109.479l-.578 2.944L197 101.943l.578-2.943zM233.062 158.809l-2.03 2.208L191 124.208l2.03-2.208z"/><circle cx="212" cy="17" r="8" fill="#E7F1FF"/><circle cx="244" cy="55" r="8" fill="#E7F1FF"/><circle cx="249" cy="111" r="8" fill="#E7F1FF"/><circle cx="236" cy="162" r="8" fill="#E7F1FF"/></svg>