<svg width="331" height="281" viewBox="0 0 331 281" fill="none" xmlns="http://www.w3.org/2000/svg">
<path d="M330.009 39.2875V38.2824H329.968L329.961 0H0V281H330.009L330.002 240.468H330.009V239.462H330.002L329.995 200.221H330.009V199.215H329.995L329.988 160.023H330.009V159.017H329.988L329.981 119.778H330.009V118.772H329.981L329.974 79.5323H330.009V78.5263H329.974L329.967 39.287L330.009 39.2875ZM328.958 1.10208V38.2824H289.762V1.10208H328.958ZM288.758 1.10208V38.2824H248.272V1.10208H288.758ZM164.813 119.779H205.778V159.018H164.813V119.779ZM163.81 159.018H122.845V119.779H163.81V159.018ZM164.813 118.773V79.5328H205.778V118.773H164.813ZM163.81 118.773H122.845V79.5328H163.81V118.773ZM121.841 118.773H80.8275V79.5328H121.84L121.841 118.773ZM121.841 119.779V159.018H80.8275V119.779H121.841ZM121.841 160.024V199.215H80.8275V160.024H121.841ZM122.845 160.024H163.81V199.215H122.845V160.024ZM164.813 160.024H205.778V199.215H164.813V160.024ZM206.781 160.024H247.268V199.215H206.781V160.024ZM206.781 159.018V119.779H247.268V159.018H206.781ZM206.781 118.773V79.5328H247.268V118.773H206.781ZM206.781 78.5268V39.2875H247.268V78.5268H206.781ZM205.778 78.5268H164.813V39.2875H205.778V78.5268ZM163.81 78.5268H122.845V39.2875H163.81V78.5268ZM121.841 78.5268H80.8275V39.2875H121.84L121.841 78.5268ZM79.8257 78.5268H38.8612V39.2875H79.8257V78.5268ZM79.8257 79.5328V118.773H38.8612V79.5328H79.8257ZM79.8257 119.779V159.018H38.8612V119.779H79.8257ZM79.8257 160.024V199.215H38.8612V160.024H79.8257ZM79.8257 200.222V239.461H38.8612V200.221L79.8257 200.222ZM80.8294 200.222H121.841V239.461H80.8275L80.8294 200.222ZM122.845 200.222H163.81V239.461H122.845V200.222ZM164.813 200.222H205.778V239.461H164.813V200.222ZM206.781 200.222H247.268V239.461H206.781V200.222ZM248.272 200.222H288.758V239.461H248.272V200.222ZM248.272 199.215V160.024H288.758V199.215H248.272ZM248.272 159.018V119.779H288.758V159.018H248.272ZM248.272 118.773V79.5328H288.758V118.773H248.272ZM248.272 78.5268V39.2875H288.758V78.5268H248.272ZM247.268 1.10208V38.2824H206.781V1.10208H247.268ZM205.778 1.10208V38.2824H164.813V1.10208H205.778ZM163.81 1.10208V38.2824H122.845V1.10208H163.81ZM121.841 1.10208V38.2824H80.8275V1.10208H121.841ZM79.8257 1.10208V38.2824H38.8612V1.10208H79.8257ZM1.05183 1.10208H37.8576V38.2824H1.05183V1.10208ZM1.05183 39.2875H37.8576V78.5268H1.05183V39.2875ZM1.05183 79.5328H37.8576V118.773H1.05183V79.5328ZM1.05183 119.779H37.8576V159.018H1.05183V119.779ZM1.05183 160.024H37.8576V199.215H1.05183V160.024ZM1.05183 200.222H37.8576V239.461H1.05183V200.222ZM1.05183 279.946V240.467H37.8576V279.946H1.05183ZM38.8612 279.946V240.467H79.8257V279.946H38.8612ZM80.8294 279.946V240.467H121.841V279.946H80.8294ZM122.845 279.946V240.467H163.81V279.946H122.845ZM164.813 279.946V240.467H205.778V279.946H164.813ZM206.781 279.946V240.467H247.268V279.946H206.781ZM248.272 279.946V240.467H288.758V279.946H248.272ZM328.959 279.946H289.762V240.467H328.958L328.959 279.946ZM328.959 239.461H289.762V200.221H328.958L328.959 239.461ZM328.959 199.216H289.762V160.024H328.958L328.959 199.216ZM328.959 159.018H289.762V119.779H328.958L328.959 159.018ZM328.959 118.773H289.762V79.5328H328.958L328.959 118.773ZM328.959 78.5272H289.762V39.2875H328.958L328.959 78.5272Z" fill="#E7F1FF"/>
<path d="M209.001 236.007C212.936 239.731 218.2 241.034 224.036 240.489C232.044 239.74 238.653 238.58 238.653 238.58C244.714 236.742 251.218 239.55 254.026 245.218L223.579 263.543L201.708 263.739L207.347 273.32L195.854 280.243L183.074 259.137" fill="#E7F1FF"/>
<path d="M195.855 281C195.599 281 195.348 280.869 195.206 280.634L182.427 259.529C182.21 259.171 182.325 258.706 182.683 258.49C183.041 258.274 183.507 258.389 183.724 258.746L196.111 279.205L206.315 273.059L201.055 264.123C200.919 263.89 200.916 263.602 201.049 263.367C201.183 263.132 201.431 262.985 201.702 262.983L223.366 262.789L253.022 244.94C250.219 239.996 244.382 237.633 238.874 239.304C238.845 239.313 238.816 239.32 238.785 239.325C238.719 239.337 232.054 240.499 224.107 241.242C217.752 241.836 212.347 240.216 208.481 236.556C208.177 236.269 208.164 235.79 208.452 235.487C208.74 235.184 209.22 235.172 209.523 235.459C213.114 238.857 217.973 240.296 223.966 239.736C231.516 239.03 237.891 237.945 238.479 237.843C244.909 235.917 251.727 238.872 254.706 244.884C254.88 245.236 254.755 245.664 254.418 245.867L223.97 264.191C223.854 264.261 223.721 264.298 223.586 264.3L203.025 264.485L208.001 272.937C208.211 273.295 208.094 273.754 207.739 273.968L196.245 280.892C196.123 280.965 195.988 281 195.855 281Z" fill="#3C4043"/>
<path d="M64.7454 169.408L59.3858 163.274C58.5423 162.308 58.0372 161.095 57.9467 159.817L54.5499 127.749C53.3945 120.727 54.2976 113.631 60.4063 109.567L90.1599 87.1576C93.2206 84.943 97.2001 83.6398 100.767 84.8885L113.9 89.6789C114.694 90.0394 115.945 91.2206 116.425 91.948L130.821 112.118L148.247 97.9989C150.463 96.3742 154.996 94.9485 156.834 96.9904L166.936 111.361C167.918 113.107 167.702 116.867 166.178 118.169L134.609 144.642L122.739 129.262L82.5834 128.506L85.1089 158.256L72.9864 150.44C66.5236 151.141 63.2751 155.106 62.3793 161.534L64.7454 169.408Z" fill="#FFED96"/>
<path d="M123.882 130.31L136.138 144.142L146.813 156.186L171.793 184.378L177.998 191.383L196.874 212.684L207.544 224.726L214.489 232.564L182.476 261.125L166.031 242.572L158.34 233.896L151.046 225.666L86.876 150.945L111.362 130.152" fill="white"/>
<path d="M82.8361 253.811C79.0216 257.751 79.1709 260.858 80.1899 262.931C80.9564 264.49 82.3515 265.638 83.984 266.239C89.112 268.127 92.4194 273.236 91.928 278.771H89.9076L56.3182 278.6L49.8479 259.005L43.1148 266.533L33.7578 257.992L57.8335 231.877L82.8361 253.811Z" fill="#E7F1FF"/>
<path d="M91.9278 279.528H89.9073L56.3142 279.356C55.9887 279.354 55.7005 279.145 55.5985 278.837L49.539 260.486L43.6798 267.037C43.545 267.188 43.3553 267.278 43.153 267.288C42.9502 267.299 42.7527 267.228 42.6035 267.091L33.2464 258.549C33.0979 258.414 33.0095 258.225 33.0007 258.024C32.9921 257.823 33.0638 257.627 33.2002 257.479L57.2759 231.364C57.5545 231.062 58.0242 231.036 58.3336 231.308L83.3362 253.243C83.4918 253.379 83.5847 253.573 83.5931 253.78C83.6014 253.986 83.5246 254.188 83.3807 254.336C80.4884 257.323 79.6439 260.103 80.87 262.597C81.5237 263.927 82.7225 264.968 84.2459 265.529C89.7298 267.547 93.1991 273.02 92.6826 278.838C92.6478 279.228 92.3202 279.528 91.9278 279.528ZM56.8671 277.846L89.9114 278.015H91.2135C91.3509 273.138 88.3481 268.652 83.7219 266.949C81.8315 266.253 80.3354 264.944 79.5096 263.264C78.5001 261.21 78.1129 257.946 81.7509 253.866L57.8894 232.932L34.8299 257.945L43.0603 265.458L49.2827 258.501C49.463 258.299 49.7368 258.209 50.0022 258.264C50.2671 258.319 50.4826 258.511 50.5674 258.768L56.8671 277.846Z" fill="#3C4043"/>
<path d="M80.7799 195.314L51.5186 229.355L83.8451 257.592L131.956 203.26C133.049 201.948 136.08 197.961 136.376 192.04C136.607 187.414 135.054 183.912 134.229 182.334L115.288 130.144L82.7087 128.632L85.4867 159.138L88.3072 177.181C88.6886 179.62 88.2352 182.117 87.0202 184.268L80.7799 195.314Z" fill="white"/>
<path d="M95.2016 50.3289C98.0972 50.3289 100.915 50.8569 103.584 51.8986C103.593 51.9232 103.603 51.9523 103.614 51.9862C103.679 52.1976 103.742 52.4943 103.792 52.8193C103.841 53.1409 103.874 53.4652 103.886 53.7239C103.887 53.7564 103.888 53.7872 103.889 53.8163C103.823 53.8483 103.75 53.8849 103.672 53.9265C103.292 54.1289 102.786 54.4477 102.281 54.9413C101.253 55.9464 100.295 57.6111 100.295 60.2991C100.295 61.1013 100.528 61.8937 100.821 62.6551C100.998 63.1136 101.217 63.6113 101.438 64.1104C101.573 64.417 101.709 64.724 101.835 65.0227C102.513 66.6312 103.079 68.3683 102.851 70.4223C100.956 74.9839 98.9066 79.9103 97.6459 82.9404C95.9629 83.0292 94.1735 83.6124 92.4494 84.4106C90.539 85.295 88.649 86.4718 86.983 87.6352C85.3147 88.8003 83.8564 89.9624 82.8102 90.8243C82.4303 91.1373 82.1019 91.4131 81.8402 91.6328C81.7427 91.7147 81.6544 91.7888 81.5762 91.8542C81.5724 91.8573 81.5687 91.8605 81.565 91.8635C75.6676 87.5331 72.1641 80.6441 72.1641 73.326C72.1641 60.6472 82.4979 50.3289 95.2016 50.3289ZM103.542 51.796C103.542 51.7969 103.542 51.7977 103.543 51.7986C103.529 51.7788 103.529 51.7736 103.542 51.796ZM104.217 53.6642C104.219 53.6634 104.22 53.663 104.22 53.663C104.22 53.663 104.219 53.6632 104.218 53.6638L104.217 53.6642ZM82.0106 92.1827L82.0105 92.1826L82.0106 92.1827Z" fill="white" stroke="#3C4043" stroke-width="1.5"/>
<path d="M103.561 65.5971C103.454 66.2869 103.392 66.9866 103.377 67.6918L103.374 67.6892C103.353 68.6869 103.428 69.6636 103.584 70.6144L99.5074 80.4242C99.5041 80.4242 98.9086 81.8553 98.1507 83.6796C96.401 87.8913 98.4022 92.7225 102.621 94.4697C106.84 96.2169 111.679 94.2188 113.429 90.0071L116.084 83.6189C117.021 83.8117 117.987 83.9272 118.978 83.9484C127.784 84.137 135.075 77.1627 135.264 68.3717C135.306 66.4332 134.992 64.5259 134.359 62.7353C135.064 60.9838 135.464 59.0919 135.504 57.1329C135.519 56.4544 135.49 55.7754 135.416 55.1008L131.579 49.844" fill="#FFF1ED"/>
<path d="M105.79 95.861C104.617 95.861 103.446 95.6301 102.33 95.1682C97.7324 93.2641 95.5435 87.9804 97.4508 83.3898L98.7016 80.3842C98.736 80.302 98.7716 80.2173 98.8128 80.1364L98.8077 80.1344L102.802 70.5212C102.659 69.5699 102.597 68.6128 102.617 67.6732C102.617 67.6515 102.618 67.6301 102.621 67.6089C102.639 66.8997 102.703 66.1844 102.812 65.4815C102.876 65.0685 103.265 64.7854 103.677 64.8499C104.091 64.914 104.374 65.3005 104.31 65.7132C104.208 66.3725 104.148 67.0434 104.135 67.7077C104.134 67.7284 104.133 67.7491 104.131 67.7695C104.115 68.6676 104.183 69.583 104.332 70.4924C104.355 70.6316 104.338 70.774 104.284 70.9041L100.207 80.714C100.203 80.7243 100.199 80.7344 100.194 80.7442C100.152 80.84 99.8801 81.4908 98.8504 83.9694C97.2634 87.7896 99.0848 92.1863 102.911 93.7709C104.765 94.5384 106.807 94.5394 108.661 93.7739C110.515 93.0082 111.96 91.5676 112.729 89.717L115.383 83.3287C115.523 82.9937 115.881 82.8053 116.236 82.8777C117.154 83.0668 118.082 83.1722 118.993 83.1918C127.363 83.3779 134.327 76.7156 134.506 68.3552C134.546 66.5233 134.256 64.717 133.644 62.9867C133.583 62.8133 133.587 62.6239 133.656 62.4532C134.342 60.7471 134.708 58.952 134.746 57.1173C134.759 56.5394 134.737 55.9568 134.682 55.3809L130.967 50.2891C130.72 49.9515 130.795 49.4782 131.133 49.2324C131.471 48.9866 131.945 49.0607 132.191 49.3983L136.027 54.6551C136.105 54.7617 136.154 54.887 136.168 55.0181C136.246 55.7238 136.277 56.4409 136.261 57.1493C136.222 59.0715 135.853 60.9551 135.166 62.752C135.775 64.5728 136.063 66.4673 136.021 68.3875C135.824 77.5816 128.17 84.8995 118.961 84.7041C118.162 84.6869 117.353 84.6098 116.548 84.4744L114.129 90.2962C113.204 92.5199 111.468 94.2512 109.24 95.1712C108.128 95.6311 106.958 95.8608 105.79 95.861Z" fill="#3C4043"/>
<path d="M182.569 261.806C182.554 261.806 182.54 261.805 182.525 261.804C182.324 261.792 182.136 261.701 182.002 261.55L130.801 203.788C130.524 203.475 130.553 202.997 130.867 202.72C131.18 202.443 131.659 202.472 131.936 202.785L182.632 259.979L213.516 232.426L123.408 130.735C123.131 130.422 123.16 129.944 123.473 129.668C123.786 129.391 124.266 129.42 124.543 129.733L215.15 231.988C215.427 232.299 215.399 232.775 215.088 233.053L183.074 261.613C182.935 261.737 182.755 261.806 182.569 261.806Z" fill="#3C4043"/>
<path d="M135.428 55.1131L135.428 55.1124C134.939 50.4485 133.627 47.4179 131.246 45.1348C128.022 42.0452 123.794 40.3952 119.321 40.4865C114.852 40.5778 110.69 42.3994 107.596 45.6181M135.428 55.1131L107.85 53.4594L107.883 52.7102C107.883 52.7102 107.882 52.7102 107.882 52.7102C107.353 52.6871 106.692 52.8751 106.096 53.0851C105.467 53.3063 104.786 53.5992 104.173 53.872C103.969 53.9627 103.775 54.0502 103.592 54.1325C103.449 54.1971 103.313 54.2585 103.185 54.3157C103.757 51.0287 105.277 48.0299 107.596 45.6181M135.428 55.1131L135.428 55.114C135.428 55.1142 135.428 55.1149 135.427 55.1157C135.426 55.1174 135.425 55.118 135.424 55.1186L135.423 55.1189C135.42 55.1202 135.416 55.119 135.414 55.1166L135.414 55.1161L131.814 50.2458L131.378 49.6563L130.778 50.0785L122.409 55.9749L122.384 55.9921L122.361 56.0112C120.373 57.6631 117.856 58.7517 115.219 59.1014L135.428 55.1131ZM107.596 45.6181L107.055 45.0983M107.596 45.6181L107.055 45.0983M107.055 45.0983C104.549 47.7045 102.935 50.9692 102.387 54.5426L136.174 55.0342C135.673 50.2575 134.313 47.0371 131.765 44.5933C128.398 41.3661 123.978 39.6414 119.305 39.7367C114.638 39.832 110.288 41.7362 107.055 45.0983ZM114.654 59.1648C114.654 59.1648 114.654 59.1648 114.654 59.1648H114.654Z" fill="white" stroke="#3C4043" stroke-width="1.5"/>
<path d="M107.85 67.1406C105.592 67.1227 103.389 65.9917 102.098 63.9417C100.083 60.744 101.046 56.5212 104.25 54.5098C107.453 52.4984 111.683 53.4602 113.697 56.6579C114.194 57.4453 114.509 58.2949 114.655 59.1584" fill="#FFF1ED"/>
<path d="M107.848 67.8972C107.846 67.8972 107.844 67.8972 107.842 67.8972C105.231 67.8766 102.843 66.5484 101.454 64.3446C99.2205 60.799 100.292 56.1002 103.844 53.8699C105.564 52.7895 107.603 52.4424 109.585 52.8932C111.567 53.3437 113.254 54.5378 114.336 56.2555C114.875 57.1104 115.233 58.0448 115.4 59.0329C115.469 59.4448 115.191 59.8351 114.779 59.9047C114.366 59.9738 113.975 59.6967 113.906 59.2847C113.772 58.4943 113.485 57.746 113.053 57.061C112.187 55.6854 110.836 54.7291 109.248 54.3683C107.661 54.0073 106.028 54.2851 104.65 55.1504C101.806 56.9365 100.947 60.6996 102.736 63.5393C103.849 65.3044 105.762 66.3681 107.853 66.3845C108.272 66.3878 108.608 66.7292 108.605 67.1469C108.602 67.5627 108.263 67.8972 107.848 67.8972Z" fill="#3C4043"/>
<path d="M124.069 130.908C124.055 130.908 124.04 130.908 124.026 130.907C123.609 130.884 123.289 130.527 123.312 130.11C123.494 126.85 123.014 123.644 121.885 120.581C120.363 116.351 119.954 111.779 120.7 107.353C120.77 106.941 121.161 106.664 121.573 106.733C121.986 106.803 122.264 107.193 122.194 107.605C121.491 111.775 121.876 116.084 123.309 120.064C124.508 123.317 125.019 126.728 124.825 130.195C124.802 130.597 124.468 130.908 124.069 130.908Z" fill="#3C4043"/>
<path d="M131.001 112.607C130.967 112.607 130.933 112.604 130.899 112.6C130.685 112.571 130.493 112.452 130.372 112.273C130.289 112.15 122.032 99.9115 119.265 95.8752C117.656 93.5275 115.584 91.2276 113.43 89.3997C113.111 89.1289 113.072 88.6517 113.344 88.3335C113.615 88.0153 114.093 87.9767 114.412 88.2473C116.665 90.1599 118.833 92.5656 120.516 95.021C122.899 98.4981 129.348 108.048 131.154 110.723L145.661 98.317C148.453 95.9312 151.807 94.7127 155.345 94.7974C155.763 94.8072 156.094 95.1537 156.084 95.5712C156.075 95.9887 155.726 96.3152 155.309 96.3096C152.141 96.2368 149.15 97.327 146.647 99.4662L131.494 112.425C131.356 112.543 131.18 112.607 131.001 112.607Z" fill="#3C4043"/>
<path d="M136.112 144.652C135.872 144.652 135.637 144.539 135.489 144.328C135.25 143.985 135.335 143.514 135.678 143.275C136.032 143.029 136.378 142.763 136.706 142.483L163.728 119.384C165.471 117.894 168.181 115.012 166.746 112.451C166.542 112.086 166.672 111.625 167.038 111.421C167.403 111.217 167.864 111.348 168.069 111.712C169.523 114.308 168.332 117.441 164.714 120.533L137.691 143.633C137.325 143.945 136.939 144.242 136.544 144.517C136.412 144.608 136.261 144.652 136.112 144.652Z" fill="#3C4043"/>
<path d="M84.9843 160.722C84.9346 160.722 84.8843 160.717 84.8338 160.707C84.4234 160.624 84.1582 160.226 84.2408 159.816C84.5017 158.525 84.5651 157.2 84.429 155.877C84.4199 155.79 84.41 155.702 84.3994 155.615L81.289 128.118C81.264 127.897 81.3375 127.677 81.4898 127.515C81.642 127.354 81.8572 127.268 82.08 127.278L124.105 129.396C124.523 129.417 124.845 129.773 124.824 130.19C124.803 130.607 124.447 130.931 124.029 130.907L82.8947 128.833L85.9041 155.438C85.9152 155.528 85.9263 155.625 85.9362 155.723C86.088 157.197 86.0172 158.675 85.7261 160.115C85.6536 160.474 85.3376 160.722 84.9843 160.722Z" fill="#3C4043"/>
<path d="M66.5379 170.979C66.4503 170.979 66.3611 170.964 66.2742 170.932C61.0022 168.976 57.3703 164.294 56.7957 158.712L52.7557 122.89C52.1897 117.852 54.3329 112.796 58.3484 109.694C58.6012 109.501 83.4063 90.5026 85.8977 88.6258C88.2293 86.8693 92.9033 83.7861 98.0068 82.8741C98.4175 82.801 98.8125 83.0741 98.886 83.4855C98.9597 83.8968 98.6857 84.2896 98.2735 84.3632C93.4803 85.2196 89.0342 88.1579 86.8102 89.833C84.3233 91.7065 59.523 110.701 59.273 110.892C55.6752 113.671 53.7538 118.205 54.2611 122.721L58.302 158.55C58.8177 163.562 62.0743 167.76 66.8016 169.513C67.1938 169.659 67.3936 170.094 67.2478 170.486C67.1347 170.791 66.8455 170.979 66.5379 170.979Z" fill="#3C4043"/>
<path d="M71.9562 150.472C63.9605 151.064 58.374 160.935 64.1271 167.326C64.2054 167.414 64.2837 167.497 64.362 167.578C67.0037 170.326 69.206 173.541 67.9735 178.976C67.1047 182.809 65.2106 188.416 68.8701 189.109C71.3956 189.588 73.8883 183.124 75.8885 178.424C76.1183 185.766 76.4314 195.38 79.7601 195.47C83.0887 195.561 83.9398 190.637 83.5711 181.12C85.8087 191.484 85.1268 195.175 88.3342 194.885C93.6378 194.404 90.299 172.913 87.1573 165.796C87.1573 165.796 86.4502 164.084 84.2252 157.793C81.9623 151.364 76.1536 150.149 71.9562 150.472Z" fill="#FFF1ED"/>
<path d="M79.8502 196.227C79.8134 196.227 79.7765 196.227 79.7391 196.226C76.4221 196.135 75.6142 190.149 75.2551 181.857C73.4314 186.081 71.5052 189.891 69.1466 189.892C69.0085 189.892 68.8696 189.878 68.7284 189.852C67.7821 189.673 67.0626 189.209 66.5895 188.475C65.3462 186.546 66.168 183.193 66.8931 180.235C67.0138 179.742 67.1313 179.263 67.2343 178.809C68.323 174.007 66.6549 171.056 63.8153 168.101C63.7317 168.015 63.646 167.924 63.5602 167.827C60.9251 164.9 60.2851 161.052 61.8072 157.273C63.4981 153.075 67.554 150.039 71.9002 149.717C74.9136 149.486 82.2103 149.786 84.9402 157.542C87.126 163.722 87.8508 165.489 87.8579 165.507C90.5503 171.606 93.6095 189.057 90.6506 194.07C89.9475 195.261 89.0403 195.58 88.4029 195.638C85.4955 195.899 85.0243 193.588 84.2532 188.963C83.9785 192.17 83.3289 194.152 82.2573 195.234C81.604 195.894 80.7948 196.227 79.8502 196.227ZM75.888 177.667C75.9344 177.667 75.9812 177.672 76.0279 177.681C76.3774 177.746 76.6345 178.045 76.6456 178.4C76.755 181.893 76.8909 186.238 77.4106 189.549C78.1102 194.006 79.1956 194.698 79.7805 194.714C80.3493 194.733 80.7971 194.557 81.1794 194.171C83.0243 192.308 82.9958 185.847 82.8139 181.148C82.7985 180.756 83.0862 180.418 83.4761 180.369C83.8658 180.321 84.2287 180.576 84.3116 180.96C84.9523 183.928 85.3538 186.344 85.6764 188.286C86.5214 193.371 86.7904 194.267 88.2655 194.132C88.4193 194.118 88.8886 194.075 89.3447 193.302C91.8823 189.003 89.2972 172.52 86.4636 166.1C86.4272 166.013 85.7165 164.282 83.5105 158.044C81.1277 151.275 74.6767 151.02 72.0141 151.225C72.0133 151.225 72.0128 151.225 72.0121 151.225C68.2291 151.505 64.6929 154.163 63.2129 157.837C61.9148 161.06 62.4532 164.334 64.6906 166.82C64.7646 166.903 64.8356 166.978 64.9063 167.051C67.6591 169.915 70.0235 173.36 68.7122 179.143C68.6074 179.605 68.488 180.092 68.365 180.594C67.7447 183.124 66.9729 186.274 67.8639 187.657C68.1099 188.038 68.4746 188.264 69.011 188.365C69.0572 188.374 69.1039 188.378 69.1512 188.378C70.8693 188.379 73.2642 182.696 74.7108 179.263C74.8737 178.877 75.0338 178.497 75.1909 178.128C75.3114 177.845 75.5887 177.667 75.888 177.667ZM71.956 150.471H71.9585H71.956Z" fill="#3C4043"/>
<path d="M82.0422 128.79C81.8369 128.79 81.6321 128.707 81.4825 128.544C81.2002 128.235 81.2219 127.757 81.5308 127.475L99.2276 111.335C99.5364 111.053 100.016 111.075 100.298 111.383C100.58 111.691 100.559 112.17 100.25 112.451L82.5529 128.592C82.4079 128.725 82.2248 128.79 82.0422 128.79Z" fill="#3C4043"/>
<path d="M165.058 102.468C167.386 98.9624 165.712 99.8352 166.743 95.171L168.654 84.8445C169.898 78.2402 164.625 82.199 163.497 84.718L159.401 92.827C154.84 96.1343 152.457 97.3964 148.169 101.483C142.928 106.475 149.096 115.621 154.261 117.249C158.205 118.48 162.505 117.242 165.185 114.101C166.306 112.755 167.156 111.427 168.124 110.246L168.152 110.213C168.893 109.262 169.792 108.445 170.81 107.798C171.351 107.466 171.927 107.193 172.526 106.983C173.889 106.501 175.587 106.236 177.821 106.254C181.55 106.29 187.129 106.916 187.041 103.394C187.012 102.193 185.42 101.339 183.249 100.676L175.662 99.513L184.98 96.4497C188.5 95.2141 191.084 93.7666 190.76 92.0484C190.177 88.9516 183.522 90.8912 177.906 92.1528C183.397 89.8832 189.41 87.1477 188.498 84.2387C187.605 81.3917 185.903 81.0947 178.984 83.6462L168.07 87.995" fill="#FFF1ED"/>
<path d="M157.342 118.477C156.239 118.477 155.124 118.311 154.033 117.971C150.392 116.823 146.64 112.491 145.669 108.313C144.985 105.37 145.668 102.819 147.644 100.936C150.852 97.8785 153.018 96.374 155.761 94.4693C156.706 93.813 157.681 93.1353 158.806 92.3227L162.811 84.3924C163.588 82.6797 166.327 79.9558 168.224 80.548C169.483 80.9409 169.877 82.4334 169.397 84.9841L169.064 86.7851L178.702 82.9442C183.598 81.138 185.862 80.7626 187.371 81.5031C188.482 82.0482 188.943 83.1308 189.22 84.013C189.915 86.2324 187.777 88.1654 184.543 89.9346C187.043 89.5135 189.153 89.4439 190.403 90.2573C191 90.6456 191.37 91.2012 191.503 91.9089C191.987 94.4753 188.154 96.137 185.23 97.1637L178.9 99.2447L183.363 99.9287C183.399 99.9343 183.434 99.9423 183.469 99.9532C185.305 100.514 187.751 101.478 187.797 103.376C187.82 104.298 187.53 105.066 186.935 105.658C185.381 107.206 182.096 107.118 179.198 107.04C178.718 107.027 178.252 107.015 177.811 107.01C175.775 106.994 174.129 107.218 172.777 107.696C172.227 107.888 171.699 108.139 171.204 108.442C170.267 109.038 169.438 109.792 168.749 110.677C168.743 110.685 168.737 110.692 168.731 110.699L168.703 110.732C168.27 111.26 167.855 111.828 167.416 112.428C166.906 113.127 166.379 113.848 165.765 114.585C163.62 117.098 160.528 118.477 157.342 118.477ZM167.632 81.9725C166.812 81.9725 164.835 83.5793 164.187 85.0265C164.182 85.0371 164.177 85.0479 164.172 85.0583L160.076 93.1675C160.021 93.2752 159.942 93.3682 159.844 93.4391C158.645 94.3089 157.619 95.0216 156.626 95.711C153.937 97.5782 151.814 99.0531 148.69 102.03C146.71 103.917 146.757 106.302 147.145 107.971C147.994 111.622 151.356 115.541 154.487 116.528C158.146 117.67 162.118 116.525 164.606 113.611C165.182 112.918 165.695 112.216 166.192 111.537C166.643 110.919 167.07 110.335 167.536 109.767L167.561 109.738C168.355 108.72 169.31 107.853 170.4 107.16C170.998 106.794 171.624 106.497 172.273 106.27C173.792 105.733 175.607 105.479 177.824 105.498C178.275 105.502 178.75 105.515 179.239 105.528C181.703 105.595 184.771 105.677 185.865 104.588C186.162 104.292 186.295 103.919 186.282 103.414C186.274 103.106 185.946 102.3 183.078 101.416L175.545 100.262C175.198 100.209 174.933 99.9252 174.904 99.5765C174.875 99.2278 175.09 98.9048 175.422 98.7954L184.741 95.7324C189.587 94.0311 190.125 92.782 190.013 92.1893C189.957 91.8905 189.822 91.6858 189.575 91.5252C188.094 90.5613 183.748 91.5741 179.913 92.4676C179.293 92.6121 178.676 92.7561 178.07 92.892C177.687 92.9782 177.301 92.7568 177.182 92.3827C177.063 92.0083 177.251 91.6054 177.614 91.4551C181.163 89.9883 188.547 86.9358 187.773 84.4658C187.493 83.572 187.172 83.0922 186.702 82.8618C185.665 82.3525 183.504 82.7861 179.245 84.3571L168.738 88.5444L167.486 95.3091C167.484 95.3176 167.482 95.3262 167.48 95.3348C167.077 97.1571 167.107 98.0559 167.132 98.778C167.173 100.021 167.129 100.716 165.687 102.887C165.456 103.235 164.986 103.33 164.637 103.1C164.288 102.869 164.193 102.4 164.424 102.051C165.663 100.187 165.649 99.789 165.617 98.8284C165.592 98.0658 165.557 97.0215 165.998 95.0214L167.322 87.8689C167.323 87.8629 167.324 87.8568 167.325 87.8508L167.907 84.7081C168.297 82.6366 167.942 82.0459 167.772 81.9927C167.73 81.9788 167.683 81.9725 167.632 81.9725Z" fill="#3C4043"/>
<path d="M173.608 94.5653C173.303 94.5653 173.017 94.3813 172.901 94.081C172.75 93.6914 172.944 93.2535 173.335 93.1032L177.633 91.4478C178.024 91.297 178.462 91.4914 178.613 91.8812C178.764 92.2707 178.569 92.7087 178.179 92.8589L173.88 94.5144C173.79 94.5489 173.698 94.5653 173.608 94.5653Z" fill="#3C4043"/>
<path d="M83.9957 258.338C83.8131 258.338 83.6363 258.272 83.4979 258.152L51.131 229.987C50.8155 229.713 50.7827 229.235 51.0575 228.92L68.6224 208.796L80.2315 194.838C80.4989 194.516 80.9765 194.472 81.2985 194.739C81.6202 195.006 81.6647 195.483 81.3975 195.804L69.7768 209.776L52.6978 229.344L83.9225 256.515L124.603 209.915L130.577 203.092C130.801 202.835 131.093 202.492 131.353 202.144C135.772 196.426 136.889 188.988 134.35 182.239L114.783 129.99C114.636 129.599 114.835 129.163 115.227 129.017C115.618 128.871 116.055 129.069 116.202 129.461L135.769 181.708C138.494 188.95 137.294 196.932 132.561 203.059C132.278 203.437 131.962 203.807 131.719 204.086L125.745 210.91L84.567 258.078C84.4349 258.23 84.248 258.322 84.0478 258.336C84.0303 258.337 84.0129 258.338 83.9957 258.338Z" fill="#3C4043"/>
<path d="M129.768 72.0177C129.484 72.0177 129.212 71.8576 129.082 71.584C128.904 71.2061 129.066 70.7553 129.444 70.577L132.408 69.181L129.859 63.3573C129.691 62.9745 129.866 62.5285 130.25 62.3614C130.633 62.194 131.08 62.3689 131.247 62.7517L134.091 69.2489C134.255 69.6238 134.091 70.0612 133.72 70.2359L130.091 71.9453C129.986 71.9945 129.876 72.0177 129.768 72.0177Z" fill="#3C4043"/>
<path d="M125.817 65.0269C126.365 64.6829 126.53 63.9607 126.185 63.4138C125.84 62.8669 125.117 62.7024 124.569 63.0464C124.021 63.3903 123.856 64.1126 124.201 64.6595C124.546 65.2064 125.269 65.3709 125.817 65.0269Z" fill="#3C4043"/>
<path d="M134.505 65.9651C135.053 65.6212 135.218 64.899 134.873 64.352C134.529 63.8051 133.805 63.6406 133.258 63.9846C132.71 64.3286 132.545 65.0508 132.89 65.5977C133.234 66.1446 133.958 66.3091 134.505 65.9651Z" fill="#3C4043"/>
<path d="M127.271 76.4499C126.994 76.4499 126.716 76.4224 126.439 76.367C125.343 76.1474 124.398 75.5148 123.779 74.5857C123.699 74.4652 123.624 74.3389 123.556 74.2095L123.483 74.0726C123.288 73.703 123.43 73.2457 123.8 73.0508C124.17 72.8556 124.628 72.9973 124.823 73.3667L124.896 73.5054C124.941 73.5896 124.989 73.6705 125.04 73.7474C125.435 74.3401 126.038 74.7435 126.737 74.8837C127.436 75.0242 128.148 74.8837 128.742 74.4894L129.269 74.1357C129.617 73.9027 130.088 73.9952 130.321 74.3419C130.554 74.6886 130.461 75.1585 130.114 75.3915L129.584 75.747C128.887 76.2101 128.088 76.4499 127.271 76.4499Z" fill="#3C4043"/>
<path d="M116.079 84.3791C116.028 84.3791 115.976 84.3738 115.924 84.3632C113.017 83.7626 110.317 82.3926 108.119 80.4008C107.809 80.1202 107.786 79.6417 108.067 79.3323C108.348 79.023 108.827 78.9998 109.137 79.2804C111.135 81.0906 113.589 82.3359 116.232 82.8817C116.641 82.9664 116.905 83.3665 116.82 83.7757C116.746 84.1333 116.431 84.3791 116.079 84.3791Z" fill="#3C4043"/>
<path d="M110.306 62.4231C110.279 62.4231 110.252 62.4215 110.224 62.4185L104.668 61.8157C104.252 61.7706 103.951 61.3974 103.997 60.9822C104.042 60.5669 104.416 60.2674 104.832 60.312L108.393 60.6983L105.764 57.8266C105.482 57.5183 105.503 57.0397 105.812 56.7581C106.121 56.4762 106.6 56.4979 106.882 56.806L110.865 61.1564C111.078 61.3886 111.124 61.7282 110.982 62.0088C110.852 62.2647 110.589 62.4231 110.306 62.4231Z" fill="#3C4043"/>
<path d="M176.45 73.8113L184.952 74.8469C188.384 75.2649 190.819 78.3243 190.392 81.6803L186.18 114.751C185.752 118.107 182.624 120.488 179.192 120.07L170.69 119.035C167.259 118.617 164.823 115.557 165.251 112.201L169.463 79.1308C169.89 75.7748 173.019 73.3933 176.45 73.8113Z" fill="white"/>
<path d="M179.98 120.806C179.69 120.806 179.398 120.788 179.105 120.753L170.603 119.717C168.757 119.492 167.111 118.578 165.968 117.142C164.826 115.707 164.323 113.922 164.553 112.117L168.765 79.046C168.995 77.2406 169.93 75.6309 171.398 74.5135C172.866 73.3958 174.692 72.904 176.537 73.129L185.039 74.1647C186.885 74.3895 188.531 75.3039 189.673 76.7394C190.816 78.1749 191.319 79.9597 191.089 81.7651L186.877 114.836C186.647 116.641 185.712 118.251 184.244 119.368C183.009 120.309 181.52 120.806 179.98 120.806ZM175.665 74.4509C174.435 74.4509 173.248 74.8476 172.262 75.5981C171.09 76.4901 170.344 77.7748 170.16 79.2156L165.948 112.286C165.765 113.727 166.166 115.152 167.078 116.297C167.99 117.443 169.304 118.173 170.777 118.352L179.279 119.388C180.752 119.567 182.209 119.175 183.38 118.283C184.552 117.391 185.298 116.106 185.482 114.666L189.694 81.5951C189.877 80.154 189.476 78.7297 188.564 77.5841C187.652 76.4383 186.338 75.7084 184.865 75.5291L176.363 74.4935C176.13 74.4651 175.896 74.4509 175.665 74.4509Z" fill="#3C4043"/>
<path d="M192.917 81.9889L188.706 115.061C188.476 116.867 187.541 118.475 186.072 119.594C184.837 120.533 183.349 121.031 181.809 121.031C181.519 121.031 178.318 120.65 178.027 120.613C177.64 120.568 180.274 120.586 180.324 120.21C180.328 120.173 180.335 120.139 180.345 120.107C183.3 119.935 185.8 117.726 186.18 114.751L190.391 81.6819C190.801 78.4712 188.591 75.5332 185.397 74.9213C185.055 74.6234 184.79 74.3232 184.811 74.165C184.811 74.165 186.482 74.3392 186.866 74.3896C190.677 74.8523 193.393 78.2626 192.917 81.9889Z" fill="#3C4043"/>
<path d="M190.43 81.291C190.407 81.291 190.384 81.2901 190.36 81.2876L169.488 79.2777C169.101 79.2406 168.819 78.9042 168.857 78.5263C168.895 78.1486 169.238 77.8711 169.625 77.9096L190.498 79.9194C190.885 79.9565 191.167 80.293 191.129 80.6709C191.093 81.0258 190.787 81.291 190.43 81.291Z" fill="#3C4043"/>
<path d="M186.356 114.067C186.334 114.067 186.312 114.066 186.289 114.064L165.285 112.102C164.898 112.066 164.615 111.73 164.652 111.353C164.688 110.975 165.03 110.697 165.418 110.734L186.422 112.695C186.809 112.731 187.092 113.067 187.055 113.445C187.021 113.801 186.715 114.067 186.356 114.067Z" fill="#3C4043"/>
<path d="M101.196 135.424L100.139 142.535L95.2812 138.674L101.196 135.424Z" fill="#FFF1ED"/>
<path d="M109.121 145.821L108.941 146.048C103.945 152.324 94.7731 153.364 88.4961 148.366C87.0905 147.247 85.9169 145.894 85.0079 144.344C84.7854 143.965 84.9126 143.476 85.292 143.254C85.6714 143.032 86.1597 143.159 86.3826 143.538C87.192 144.918 88.2372 146.123 89.4888 147.12C95.0782 151.57 103.245 150.644 107.694 145.056L107.873 144.83C110.896 141.021 111.538 135.898 109.547 131.46C109.368 131.059 109.547 130.587 109.948 130.408C110.35 130.228 110.821 130.407 111.002 130.809C113.236 135.792 112.516 141.544 109.121 145.821Z" fill="#E7F1FF"/>
<path d="M82.5323 238.67L87.92 240.507L83.196 242.04L82.5323 238.67Z" fill="#FFF1ED"/>
<path d="M99.0601 187.26L92.1652 182.068L92.0761 179.954L100.395 176.424L99.0601 187.26Z" fill="#FFF1ED"/>
<path d="M194.981 245.045C194.975 245.046 194.971 245.047 194.965 245.048L194.682 245.101C186.804 246.589 179.185 241.388 177.697 233.508C176.21 225.628 181.409 218.008 189.287 216.521L189.571 216.467C189.573 216.467 189.576 216.466 189.578 216.466C195.15 215.414 200.868 217.725 204.146 222.355C204.4 222.714 204.315 223.212 203.956 223.466C203.597 223.72 203.1 223.635 202.845 223.276C199.927 219.153 194.835 217.096 189.873 218.032C189.871 218.033 189.869 218.033 189.867 218.033L189.583 218.087C182.568 219.411 177.939 226.196 179.263 233.213C180.588 240.229 187.372 244.86 194.386 243.535L194.671 243.482C194.675 243.481 194.68 243.48 194.685 243.479C197.51 242.946 200.106 241.462 201.999 239.298C202.289 238.967 202.792 238.933 203.123 239.223C203.454 239.513 203.488 240.016 203.198 240.348C201.072 242.778 198.154 244.446 194.981 245.045Z" fill="#E7F1FF"/>
<path d="M190.323 236.677L188.297 225.941L198.602 229.556L190.323 236.677Z" fill="#FFF1ED"/>
<path d="M91.9404 194.822C91.8709 194.658 91.8555 194.47 91.9096 194.286C92.0341 193.864 92.4769 193.622 92.8989 193.746C95.761 194.588 98.8492 194.408 101.594 193.238C108.17 190.448 111.249 182.833 108.461 176.261L108.348 175.995C105.627 169.584 98.3881 166.484 91.8685 168.938C91.4567 169.093 90.9989 168.886 90.8419 168.473C90.6871 168.061 90.8952 167.601 91.3072 167.446C98.6292 164.691 106.759 168.172 109.815 175.372L109.928 175.638C113.059 183.018 109.601 191.571 102.22 194.703C99.1341 196.018 95.6646 196.22 92.4485 195.274C92.211 195.205 92.0304 195.034 91.9404 194.822Z" fill="#E7F1FF"/>
<path d="M97.7289 233.948L97.9176 234.164C98.4505 234.774 98.9361 235.433 99.3605 236.122C99.5913 236.497 99.4747 236.988 99.0999 237.218C98.7252 237.449 98.2355 237.333 98.0037 236.958C97.6251 236.344 97.1925 235.756 96.7176 235.213L96.529 234.997C91.8299 229.622 83.6324 229.072 78.2558 233.773C74.9878 236.624 73.3725 240.893 73.9346 245.192C73.9916 245.628 73.6841 246.028 73.2479 246.086C72.8117 246.143 72.4119 245.836 72.3545 245.399C71.7233 240.57 73.5376 235.775 77.2077 232.573C83.2454 227.295 92.4514 227.912 97.7289 233.948Z" fill="#E7F1FF"/>
<path d="M149.97 192.919C146.51 191.166 143.937 188.171 142.726 184.484C141.515 180.794 141.813 176.852 143.565 173.385C145.319 169.916 148.319 167.338 152.013 166.127C152.575 165.943 153.153 165.791 153.733 165.676C154.165 165.59 154.584 165.871 154.67 166.302C154.756 166.734 154.475 167.153 154.043 167.239C153.526 167.342 153.01 167.477 152.509 167.641C149.22 168.72 146.549 171.015 144.987 174.104C143.427 177.191 143.162 180.701 144.24 183.986C145.318 187.269 147.609 189.937 150.691 191.497C150.693 191.499 150.696 191.5 150.699 191.501L150.957 191.632C157.325 194.855 165.131 192.296 168.357 185.928C168.555 185.528 168.737 185.108 168.894 184.685C169.047 184.272 169.505 184.062 169.918 184.215C170.331 184.368 170.541 184.826 170.388 185.239C170.211 185.714 170.007 186.186 169.781 186.642C166.155 193.8 157.389 196.674 150.238 193.054L149.979 192.923C149.976 192.922 149.973 192.92 149.97 192.919Z" fill="#E7F1FF"/>
<path d="M151.648 183.591L156.582 173.847L162.552 182.991L151.648 183.591Z" fill="#FFF1ED"/>
<path d="M249.647 25.5692C248.96 25.3388 249.405 25.514 249.422 25.5262L249.613 25.7047L249.539 25.8403L248.875 25.7674L249.236 26.0456L248.667 26.0049L249.082 26.3134L248.309 26.192L248.487 26.4173L248.489 26.5789L248.506 26.7489L248.294 26.8466L249.031 27.2773L248.079 27.0907L248.62 27.4519L248.782 27.6748L248.459 27.7183L248.431 27.8691L248.088 27.9029L248.427 28.197L248.65 28.4415L248.119 28.4049L248.476 28.6973L247.993 28.6778L248.629 29.0809L247.999 29.0047L248.337 29.3069L247.526 29.1558L248.4 29.6618L248.114 29.7155L247.405 29.6038L247.931 29.9724L247.741 30.066L247.234 30.031L248.017 30.5026L247.876 30.6111L247.514 30.6309L247.777 30.901L247.296 30.8674L247.187 30.9867L247.798 31.3962L246.882 31.1922L247.05 31.4243L246.883 31.5217L247.414 31.9016L246.703 31.7742L247.234 32.1561L246.985 32.22L246.507 32.1881L246.859 32.4949L246.563 32.5378L246.639 32.7276L246.843 32.9779L246.911 33.1685L246.91 33.3344L246.632 33.3834L246.649 33.5554L246.564 33.686L246.166 33.6818L246.199 33.862L246.703 34.2427L246.614 34.3718L246.54 34.5074L246.116 34.4918L246.065 34.6369C246.089 34.7036 246.134 34.7781 246.165 34.8461L245.887 34.8931L246.486 35.3216L246.214 35.37L246.349 35.6035L245.996 35.6145L246.069 35.8145L246.13 36.0058C246.144 36.0518 245.857 35.9636 246.217 36.163C246.275 36.1947 246.196 36.1966 246.985 36.5473L247.351 36.7086L247.997 36.9884L248.402 37.1775C248.438 37.1948 248.476 37.2076 248.515 37.2157C248.565 37.1931 248.469 37.1078 248.454 37.058L248.526 36.9187L248.465 36.7273L248.771 36.6973L249.17 36.7035L249.054 36.482L249.398 36.46L249.273 36.2336C249.284 36.1808 249.292 36.1273 249.297 36.0734L249.487 35.9817L249.141 35.6625L249.527 35.6581L249.821 35.6134L249.616 35.3553L250.076 35.3811L250.071 35.208L249.994 35.0045L250.516 35.0538L250.17 34.7365L249.873 34.4422L250.524 34.5439C250.572 34.5076 250.616 34.4678 250.664 34.4315L250.024 33.9971L250.77 34.1369L250.272 33.7617L250.399 33.6445L250.558 33.5401L251.047 33.5691L251.197 33.4596L250.596 33.0155L250.579 32.8435L251.536 33.0592L250.897 32.6346L251.027 32.5173L251.75 32.6436L251.28 32.2951L250.944 31.9927L251.897 32.2009L251.195 31.7549L251.798 31.8199L251.4 31.496L252.135 31.6211L251.406 31.1679L251.962 31.2159L251.566 30.8937L252.291 31.0039L251.889 30.6804L251.872 30.5045L252.721 30.6361L252.751 30.4792L252.666 30.2785L251.942 29.8366L252.106 29.7296L252.808 29.8383L253.011 29.7453L252.205 29.276L252.927 29.3766L252.453 29.0286L252.808 28.9937L252.585 28.7493L252.645 28.5914L252.756 28.4641L253.34 28.5093L253.494 28.3975L253.549 28.25L252.886 27.8436L253.282 27.8185L253.974 27.8984L253.934 27.7169C253.857 27.6337 253.763 27.5363 253.68 27.4597L254.094 27.4387L253.489 27.0562L253.723 27.0845L253.906 27.1079C253.928 27.1058 254.059 27.1403 253.796 27.034C253.532 26.9276 252.876 26.6844 251.32 26.1427L249.647 25.5692Z" fill="#FFBCA5"/>
<path d="M264.396 30.4822C263.94 29.9276 264.203 30.3013 264.205 30.3132L264.203 30.4192C264.201 30.4479 264.204 30.4766 264.211 30.5043L264.216 30.5498L264.058 30.6773L263.517 30.3308L263.641 30.8141L263.154 30.5324L263.295 31.032L262.67 30.5839L262.659 30.8947L262.533 31.0649L262.423 31.2516L262.16 31.2554L262.522 32.019L261.77 31.4356L262.006 32.0358L261.993 32.3368L261.658 32.2559L261.518 32.4055L261.167 32.3081L261.281 32.7525L261.315 33.0988L260.835 32.8562L260.953 33.3022L260.497 33.0812L260.819 33.7529L260.269 33.4373L260.405 33.8935L259.728 33.4325L260.215 34.2918L259.903 34.2485L259.29 33.8772L259.549 34.4652L259.31 34.5047L258.849 34.2902L259.287 35.0743L259.093 35.1453L258.724 35.0458L258.807 35.4372L258.35 35.2464L258.159 35.3451L258.498 35.9951L257.721 35.472L257.74 35.7858L257.513 35.8422L257.802 36.4312L257.164 36.0802L257.457 36.6688L257.174 36.6706L256.723 36.4972L256.875 36.9398L256.557 36.9131L256.517 37.1608L256.571 37.5012L256.522 37.7358L256.419 37.9177L256.108 37.8964L256.02 38.0928L255.856 38.2149L255.443 38.1016L255.369 38.3087L255.666 38.8789L255.497 38.9974C255.445 39.0405 255.395 39.0873 255.345 39.1322L254.913 39.0029L254.779 39.1559L254.76 39.4154L254.428 39.3842L254.838 40.0372L254.525 40.024L254.555 40.3327C254.427 40.3067 254.301 40.2832 254.177 40.262L254.157 40.5157L254.129 40.7602C254.112 40.8099 253.887 40.6701 254.176 40.9934C254.223 41.0447 254.157 41.0432 254.785 41.6029L255.086 41.853L255.607 42.3073C255.743 42.4374 255.889 42.5566 256.044 42.664C256.122 42.6662 256.096 42.5769 256.095 42.5091L256.234 42.3715L256.261 42.1331L256.596 42.1741L257.01 42.2933L256.993 42.0153C257.113 42.0393 257.238 42.065 257.353 42.0837L257.313 41.7819L257.402 41.5994L257.632 41.5488L257.435 41.0967L257.824 41.1982L258.134 41.2257L258.052 40.8781L258.495 41.0344L258.572 40.841L258.594 40.5931L259.078 40.7933L258.898 40.3475L258.759 39.9395L259.339 40.2362L259.532 40.1572L259.148 39.4997L259.8 39.8792L259.524 39.3189L259.716 39.234L259.929 39.1731L260.388 39.3638L260.594 39.2995L260.243 38.6667L260.331 38.4783L261.128 39.0273L260.759 38.3622L260.952 38.2813L261.574 38.6578L261.32 38.1193L261.177 37.6838L261.961 38.2421L261.557 37.5226L262.083 37.8066L261.901 37.323L262.522 37.7174L262.121 36.9657L262.614 37.2229L262.438 36.7407L263.049 37.1322L262.873 36.646L262.965 36.4591L263.656 36.9487L263.782 36.8004L263.829 36.562L263.444 35.8366L263.665 35.7949L264.249 36.1771L264.493 36.1671L264.06 35.3624L264.654 35.7636L264.448 35.2204L264.794 35.3322L264.761 34.9879L264.902 34.8561L265.095 34.7771L265.591 35.0741L265.803 35.0312L265.952 34.9107L265.631 34.2229L266.004 34.3761L266.565 34.7666C266.592 34.7015 266.623 34.6384 266.659 34.5775L266.625 34.2332L267.033 34.4389L266.769 33.7955C266.834 33.845 266.904 33.9021 266.955 33.933L267.084 34.0202C267.099 34.0307 267.185 34.1122 267.021 33.8745L266.845 33.6321L266.542 33.2323L265.457 31.8325C264.926 31.1314 264.591 30.7288 264.396 30.4822Z" fill="#FFBCA5"/>
<path d="M267.244 44.3536C267.031 43.7109 267.151 44.1311 267.153 44.1465L267.148 44.2424C267.152 44.2848 267.159 44.358 267.148 44.3552L267.049 44.3863L266.775 43.8723L266.803 44.3055L266.553 43.8785L266.598 44.3411L266.29 43.7214L266.257 43.9601L266.174 44.0384L266.096 44.1355L265.95 44.0234L266.079 44.7658L265.72 43.9857L265.792 44.5508L265.754 44.7764L265.577 44.566L265.485 44.6179L265.302 44.3868L265.317 44.7745L265.297 45.0509L265.05 44.6529L265.065 45.0406L264.841 44.6851L264.94 45.3351L264.684 44.8484L264.703 45.2532L264.383 44.5977L264.552 45.4647L264.385 45.2865L264.097 44.7309L264.166 45.2846L264.031 45.2025L263.802 44.8359L263.944 45.6198L263.821 45.5755L263.633 45.3313L263.624 45.6493L263.403 45.2974L263.289 45.2813L263.382 45.9124L263.035 45.1682L263 45.4032L262.868 45.3363L262.938 45.8958L262.651 45.3402L262.72 45.8978L262.565 45.7592L262.344 45.4151L262.359 45.8028L262.194 45.6244L262.135 45.782L262.111 46.049L262.049 46.1914L261.965 46.2717L261.804 46.1085L261.726 46.2037L261.619 46.2142L261.421 45.9398L261.347 46.0522L261.399 46.5822L261.289 46.5833L261.184 46.5936L260.978 46.2909L260.879 46.3239L260.82 46.4834L260.65 46.292L260.743 46.9231L260.572 46.7335L260.531 46.9439L260.333 46.6656L260.27 46.808L260.204 46.9429C260.189 46.9775 260.072 46.6932 260.173 47.0842C260.179 47.1497 260.146 47.0868 260.409 47.9075L260.534 48.2845L260.754 48.9576L260.894 49.372C260.905 49.4099 260.919 49.4469 260.936 49.4826C260.971 49.5025 260.956 49.3717 260.971 49.3274L261.066 49.285L261.12 49.1104L261.29 49.298L261.488 49.5763L261.526 49.3527L261.703 49.5649L261.741 49.3393L261.824 49.2572L261.958 49.3335L261.94 48.9306L262.131 49.1881L262.296 49.3665L262.32 49.0956L262.534 49.4209L262.615 49.3313L262.675 49.1775L262.905 49.5557L262.89 49.168L262.887 48.82L263.153 49.3134L263.278 49.3575L263.182 48.7131L263.48 49.3007L263.429 48.7725L263.548 48.8036L263.676 48.863L263.9 49.2185L264.026 49.2704L263.938 48.6524L264.019 48.5627L264.378 49.337L264.278 48.6871L264.398 48.722L264.689 49.2889L264.638 48.7782L264.625 48.3902L264.984 49.1646L264.866 48.4522L265.119 48.908L265.088 48.4693L265.384 49.0493L265.258 48.3144L265.507 48.7337L265.476 48.2969L265.77 48.8694L265.736 48.427L265.814 48.3317L266.143 49.0156L266.236 48.9636L266.295 48.808L266.17 48.0769L266.301 48.1457L266.588 48.7013L266.732 48.8059L266.584 48.0012L266.877 48.5737L266.828 48.0764L267.016 48.3187L267.039 48.0478L267.137 48.009L267.254 48.0307L267.506 48.4807L267.635 48.542L267.736 48.5146L267.63 47.84L267.83 48.1219L268.12 48.6773L268.197 48.5763L268.214 48.2885L268.43 48.6234L268.34 48.0018L268.435 48.187L268.507 48.324C268.508 48.3413 268.56 48.4472 268.494 48.191C268.427 47.9348 268.231 47.3138 267.77 45.882L267.244 44.3536Z" fill="#FFBCA5"/>
<rect x="208.393" y="19.896" width="3" height="54.3822" transform="rotate(29.034 208.393 19.896)" fill="#E7F1FF"/>
<rect x="243.633" y="55" width="3" height="54.3822" transform="rotate(61.151 243.633 55)" fill="#E7F1FF"/>
<rect x="250.941" y="109.479" width="3" height="54.3822" transform="rotate(101.11 250.941 109.479)" fill="#E7F1FF"/>
<rect x="233.062" y="158.809" width="3" height="54.3822" transform="rotate(132.599 233.062 158.809)" fill="#E7F1FF"/>
<circle cx="212" cy="17" r="8" fill="#E7F1FF"/>
<circle cx="244" cy="55" r="8" fill="#E7F1FF"/>
<circle cx="249" cy="111" r="8" fill="#E7F1FF"/>
<circle cx="236" cy="162" r="8" fill="#E7F1FF"/>
</svg>
