<svg width="331" height="281" viewBox="0 0 331 281" fill="none" xmlns="http://www.w3.org/2000/svg">
<path d="M330.009 39.2875V38.2824H329.968L329.961 0H0V281H330.009L330.002 240.468H330.009V239.462H330.002L329.995 200.221H330.009V199.215H329.995L329.988 160.023H330.009V159.017H329.988L329.981 119.778H330.009V118.772H329.981L329.974 79.5323H330.009V78.5263H329.974L329.967 39.287L330.009 39.2875ZM328.958 1.10208V38.2824H289.762V1.10208H328.958ZM288.758 1.10208V38.2824H248.272V1.10208H288.758ZM164.813 119.779H205.778V159.018H164.813V119.779ZM163.81 159.018H122.845V119.779H163.81V159.018ZM164.813 118.773V79.5328H205.778V118.773H164.813ZM163.81 118.773H122.845V79.5328H163.81V118.773ZM121.841 118.773H80.8275V79.5328H121.84L121.841 118.773ZM121.841 119.779V159.018H80.8275V119.779H121.841ZM121.841 160.024V199.215H80.8275V160.024H121.841ZM122.845 160.024H163.81V199.215H122.845V160.024ZM164.813 160.024H205.778V199.215H164.813V160.024ZM206.781 160.024H247.268V199.215H206.781V160.024ZM206.781 159.018V119.779H247.268V159.018H206.781ZM206.781 118.773V79.5328H247.268V118.773H206.781ZM206.781 78.5268V39.2875H247.268V78.5268H206.781ZM205.778 78.5268H164.813V39.2875H205.778V78.5268ZM163.81 78.5268H122.845V39.2875H163.81V78.5268ZM121.841 78.5268H80.8275V39.2875H121.84L121.841 78.5268ZM79.8257 78.5268H38.8612V39.2875H79.8257V78.5268ZM79.8257 79.5328V118.773H38.8612V79.5328H79.8257ZM79.8257 119.779V159.018H38.8612V119.779H79.8257ZM79.8257 160.024V199.215H38.8612V160.024H79.8257ZM79.8257 200.222V239.461H38.8612V200.221L79.8257 200.222ZM80.8294 200.222H121.841V239.461H80.8275L80.8294 200.222ZM122.845 200.222H163.81V239.461H122.845V200.222ZM164.813 200.222H205.778V239.461H164.813V200.222ZM206.781 200.222H247.268V239.461H206.781V200.222ZM248.272 200.222H288.758V239.461H248.272V200.222ZM248.272 199.215V160.024H288.758V199.215H248.272ZM248.272 159.018V119.779H288.758V159.018H248.272ZM248.272 118.773V79.5328H288.758V118.773H248.272ZM248.272 78.5268V39.2875H288.758V78.5268H248.272ZM247.268 1.10208V38.2824H206.781V1.10208H247.268ZM205.778 1.10208V38.2824H164.813V1.10208H205.778ZM163.81 1.10208V38.2824H122.845V1.10208H163.81ZM121.841 1.10208V38.2824H80.8275V1.10208H121.841ZM79.8257 1.10208V38.2824H38.8612V1.10208H79.8257ZM1.05183 1.10208H37.8576V38.2824H1.05183V1.10208ZM1.05183 39.2875H37.8576V78.5268H1.05183V39.2875ZM1.05183 79.5328H37.8576V118.773H1.05183V79.5328ZM1.05183 119.779H37.8576V159.018H1.05183V119.779ZM1.05183 160.024H37.8576V199.215H1.05183V160.024ZM1.05183 200.222H37.8576V239.461H1.05183V200.222ZM1.05183 279.946V240.467H37.8576V279.946H1.05183ZM38.8612 279.946V240.467H79.8257V279.946H38.8612ZM80.8294 279.946V240.467H121.841V279.946H80.8294ZM122.845 279.946V240.467H163.81V279.946H122.845ZM164.813 279.946V240.467H205.778V279.946H164.813ZM206.781 279.946V240.467H247.268V279.946H206.781ZM248.272 279.946V240.467H288.758V279.946H248.272ZM328.959 279.946H289.762V240.467H328.958L328.959 279.946ZM328.959 239.461H289.762V200.221H328.958L328.959 239.461ZM328.959 199.216H289.762V160.024H328.958L328.959 199.216ZM328.959 159.018H289.762V119.779H328.958L328.959 159.018ZM328.959 118.773H289.762V79.5328H328.958L328.959 118.773ZM328.959 78.5272H289.762V39.2875H328.958L328.959 78.5272Z" fill="#E7F1FF"/>
<path d="M209.001 236.006C212.936 239.731 218.2 241.034 224.036 240.488C232.044 239.739 238.653 238.58 238.653 238.58C244.714 236.741 251.218 239.55 254.026 245.218L223.579 263.542L201.708 263.739L207.347 273.319L195.854 280.243L183.074 259.137" fill="#E7F1FF"/>
<path d="M195.854 280.999C195.598 280.999 195.347 280.869 195.205 280.634L182.426 259.528C182.209 259.171 182.324 258.706 182.682 258.49C183.04 258.274 183.506 258.388 183.723 258.746L196.11 279.205L206.314 273.058L201.054 264.123C200.918 263.89 200.915 263.602 201.048 263.366C201.182 263.131 201.43 262.985 201.701 262.983L223.365 262.788L253.021 244.94C250.218 239.996 244.381 237.633 238.874 239.304C238.844 239.313 238.815 239.32 238.784 239.325C238.718 239.337 232.053 240.499 224.106 241.242C217.751 241.836 212.347 240.216 208.48 236.556C208.176 236.269 208.163 235.79 208.451 235.487C208.739 235.184 209.219 235.171 209.522 235.458C213.113 238.857 217.972 240.296 223.965 239.736C231.515 239.03 237.89 237.945 238.478 237.843C244.908 235.917 251.726 238.872 254.705 244.884C254.879 245.236 254.754 245.664 254.417 245.867L223.969 264.191C223.853 264.261 223.72 264.298 223.585 264.299L203.024 264.484L208 272.937C208.21 273.294 208.093 273.754 207.738 273.968L196.244 280.891C196.122 280.964 195.987 280.999 195.854 280.999Z" fill="#3C4043"/>
<path d="M64.7454 169.408L59.3858 163.274C58.5423 162.308 58.0372 161.095 57.9467 159.817L54.5499 127.749C53.3945 120.727 54.2976 113.631 60.4063 109.567L90.1599 87.1576C93.2206 84.943 97.2001 83.6398 100.767 84.8885L113.9 89.6789C114.694 90.0394 115.945 91.2206 116.425 91.948L130.821 112.118L148.247 97.9989C150.463 96.3742 154.996 94.9485 156.834 96.9904L166.936 111.361C167.918 113.107 167.702 116.867 166.178 118.169L134.609 144.642L122.739 129.262L82.5834 128.506L85.1089 158.256L72.9864 150.44C66.5236 151.141 63.2751 155.106 62.3793 161.534L64.7454 169.408Z" fill="#FFED96"/>
<path d="M123.881 130.31L136.137 144.143L146.812 156.187L171.792 184.379L177.997 191.383L196.873 212.685L207.543 224.726L214.488 232.565L182.475 261.125L166.03 242.572L158.339 233.896L151.045 225.666L86.875 150.945L111.361 130.152" fill="white"/>
<path d="M82.8361 253.812C79.0216 257.751 79.1709 260.858 80.1899 262.931C80.9564 264.491 82.3515 265.639 83.984 266.24C89.112 268.127 92.4195 273.236 91.928 278.772H89.9076L56.3182 278.6L49.8479 259.005L43.1148 266.533L33.7578 257.992L57.8335 231.877L82.8361 253.812Z" fill="#E7F1FF"/>
<path d="M91.9278 279.528H89.9074L56.3142 279.356C55.9887 279.354 55.7005 279.145 55.5985 278.837L49.539 260.486L43.6798 267.037C43.545 267.187 43.3553 267.278 43.153 267.288C42.9502 267.299 42.7527 267.228 42.6035 267.091L33.2464 258.549C33.0979 258.414 33.0095 258.225 33.0007 258.024C32.9921 257.823 33.0638 257.627 33.2002 257.479L57.2759 231.364C57.5545 231.062 58.0242 231.036 58.3336 231.308L83.3362 253.243C83.4918 253.379 83.5847 253.573 83.5931 253.78C83.6014 253.986 83.5246 254.188 83.3807 254.336C80.4884 257.323 79.6439 260.103 80.8701 262.597C81.5237 263.927 82.7225 264.968 84.2459 265.529C89.7298 267.547 93.1991 273.02 92.6826 278.838C92.6478 279.228 92.3202 279.528 91.9278 279.528ZM56.8671 277.846L89.9114 278.015H91.2135C91.3509 273.138 88.3481 268.652 83.7219 266.949C81.8315 266.253 80.3354 264.944 79.5096 263.264C78.5001 261.21 78.1129 257.946 81.7509 253.866L57.8894 232.932L34.8299 257.945L43.0603 265.458L49.2827 258.501C49.463 258.299 49.7368 258.209 50.0022 258.264C50.2671 258.319 50.4826 258.511 50.5674 258.768L56.8671 277.846Z" fill="#3C4043"/>
<path d="M80.7809 195.314L51.5195 229.355L83.8461 257.593L131.957 203.26C133.05 201.948 136.081 197.962 136.377 192.041C136.608 187.414 135.055 183.912 134.23 182.334L115.289 130.145L82.7096 128.632L85.4877 159.139L88.3082 177.181C88.6895 179.621 88.2362 182.117 87.0212 184.268L80.7809 195.314Z" fill="white"/>
<path d="M96.2373 50C99.158 50 102 50.534 104.692 51.5873C104.701 51.6123 104.712 51.6417 104.723 51.6759C104.788 51.8896 104.852 52.1898 104.902 52.5183C104.952 52.8435 104.985 53.1714 104.997 53.4331C104.998 53.466 104.999 53.4971 105 53.5265C104.933 53.5589 104.86 53.5959 104.781 53.6379C104.398 53.8427 103.887 54.165 103.378 54.6642C102.341 55.6804 101.375 57.3638 101.375 60.082C101.375 60.8931 101.61 61.6944 101.905 62.4643C102.084 62.9279 102.305 63.4313 102.528 63.936C102.664 64.2459 102.801 64.5564 102.928 64.8584C103.612 66.485 104.183 68.2415 103.953 70.3186C102.042 74.9313 99.9744 79.9128 98.7028 82.9769C97.0052 83.0667 95.2003 83.6565 93.4612 84.4635C91.5342 85.3578 89.6278 86.5478 87.9474 87.7243C86.2646 88.9025 84.7938 90.0775 83.7384 90.9491C83.3552 91.2656 83.024 91.5445 82.76 91.7667C82.6617 91.8495 82.5726 91.9245 82.4937 91.9905C82.4899 91.9937 82.4862 91.9969 82.4824 92C76.5339 87.6211 73 80.6549 73 73.2548C73 60.434 83.4234 50 96.2373 50ZM104.65 51.4836C104.65 51.4844 104.65 51.4854 104.651 51.4863C104.637 51.4661 104.637 51.461 104.65 51.4836Z" fill="white" stroke="#3C4043" stroke-width="1.5"/>
<path d="M103.559 65.5974C103.452 66.2872 103.39 66.9868 103.375 67.692L103.372 67.6895C103.351 68.6871 103.426 69.6639 103.582 70.6146L99.5055 80.4244C99.5022 80.4244 98.9067 81.8555 98.1488 83.6799C96.3991 87.8916 98.4003 92.7227 102.619 94.47C106.838 96.2172 111.677 94.2191 113.427 90.0074L116.082 83.6191C117.019 83.812 117.985 83.9274 118.976 83.9486C127.782 84.1372 135.074 77.163 135.262 68.372C135.304 66.4334 134.99 64.5261 134.357 62.7355C135.062 60.984 135.462 59.0921 135.502 57.1331C135.517 56.4546 135.488 55.7757 135.414 55.101L131.577 49.8442" fill="#FFF1ED"/>
<path d="M105.79 95.861C104.617 95.861 103.446 95.6301 102.33 95.1682C97.7324 93.2641 95.5435 87.9804 97.4508 83.3898L98.7016 80.3842C98.736 80.302 98.7716 80.2173 98.8128 80.1364L98.8077 80.1344L102.802 70.5212C102.659 69.5699 102.597 68.6128 102.617 67.6732C102.617 67.6515 102.618 67.6301 102.621 67.6089C102.639 66.8997 102.703 66.1844 102.812 65.4815C102.876 65.0685 103.265 64.7854 103.677 64.8499C104.091 64.914 104.374 65.3005 104.31 65.7132C104.208 66.3725 104.148 67.0434 104.135 67.7077C104.134 67.7284 104.133 67.7491 104.131 67.7695C104.115 68.6676 104.183 69.583 104.332 70.4924C104.355 70.6316 104.338 70.774 104.284 70.9041L100.207 80.714C100.203 80.7243 100.199 80.7344 100.194 80.7442C100.152 80.84 99.8801 81.4908 98.8504 83.9694C97.2634 87.7895 99.0848 92.1863 102.911 93.7709C104.765 94.5384 106.807 94.5394 108.661 93.7739C110.515 93.0082 111.96 91.5676 112.729 89.717L115.383 83.3287C115.523 82.9937 115.881 82.8053 116.236 82.8777C117.154 83.0668 118.082 83.1722 118.993 83.1918C127.363 83.3779 134.327 76.7156 134.506 68.3552C134.546 66.5233 134.256 64.717 133.644 62.9867C133.583 62.8133 133.587 62.6239 133.656 62.4532C134.342 60.7471 134.708 58.952 134.746 57.1173C134.759 56.5394 134.737 55.9568 134.682 55.3809L130.967 50.2891C130.72 49.9515 130.795 49.4782 131.133 49.2324C131.471 48.9866 131.945 49.0607 132.191 49.3983L136.027 54.6551C136.105 54.7617 136.154 54.887 136.168 55.0181C136.246 55.7238 136.277 56.4409 136.261 57.1493C136.222 59.0715 135.853 60.9551 135.166 62.752C135.775 64.5728 136.063 66.4673 136.021 68.3875C135.824 77.5816 128.17 84.8995 118.961 84.7041C118.162 84.6869 117.353 84.6098 116.548 84.4744L114.129 90.2962C113.204 92.5199 111.468 94.2512 109.24 95.1712C108.128 95.6311 106.958 95.8608 105.79 95.861Z" fill="#3C4043"/>
<path d="M182.57 261.805C182.555 261.805 182.541 261.805 182.526 261.804C182.325 261.792 182.137 261.701 182.003 261.55L130.802 203.788C130.525 203.475 130.554 202.997 130.867 202.72C131.181 202.443 131.66 202.472 131.937 202.785L182.633 259.978L213.517 232.426L123.409 130.735C123.132 130.422 123.161 129.944 123.474 129.667C123.787 129.391 124.267 129.42 124.544 129.733L215.151 231.987C215.428 232.299 215.399 232.775 215.089 233.053L183.075 261.613C182.936 261.737 182.756 261.805 182.57 261.805Z" fill="#3C4043"/>
<path d="M135.426 55.1131C134.937 50.4491 133.625 47.4177 131.244 45.1346C128.02 42.0451 123.792 40.3953 119.319 40.4865C114.85 40.5778 110.688 42.3994 107.594 45.6181C105.275 48.0299 103.755 51.0287 103.183 54.3157C103.311 54.2585 103.447 54.1971 103.59 54.1326C103.773 54.0502 104.069 54.2233 104.273 54.1326C104.886 53.8598 105.371 54.2212 106 54C106.5 54 107.97 53.4769 108.5 53.5L114.652 59.1648L129.5 50.5L135.426 55.1131Z" fill="white"/>
<path d="M135.426 55.1131C134.937 50.4491 133.625 47.4177 131.244 45.1346C128.02 42.0451 123.792 40.3953 119.319 40.4865C114.85 40.5778 110.688 42.3994 107.594 45.6181C105.275 48.0299 103.755 51.0287 103.183 54.3157C103.311 54.2585 103.447 54.1971 103.59 54.1326C103.773 54.0502 104.069 54.2233 104.273 54.1326C104.886 53.8598 105.371 54.2212 106 54C106.5 54 107.97 53.4769 108.5 53.5L114.652 59.1648M135.426 55.1131L135.425 55.1157L135.422 55.1186L135.421 55.1189L135.417 55.1193C135.415 55.119 135.412 55.1166 135.412 55.1166M135.426 55.1131L129.5 50.5L114.652 59.1648M102.26 55.3934L102.258 55.3932M114.652 59.1648L114.65 59.165" stroke="#3C4043" stroke-width="1.5"/>
<path d="M107.852 67.1409C105.594 67.123 103.391 65.992 102.1 63.942C100.085 60.7443 101.048 56.5215 104.251 54.51C107.455 52.4986 111.685 53.4605 113.699 56.6581C114.196 57.4455 114.511 58.2952 114.657 59.1587" fill="#FFF1ED"/>
<path d="M107.849 67.8972C107.847 67.8972 107.845 67.8972 107.843 67.8972C105.232 67.8766 102.844 66.5484 101.455 64.3446C99.2216 60.799 100.293 56.1002 103.845 53.8699C105.565 52.7895 107.604 52.4424 109.586 52.8932C111.568 53.3437 113.255 54.5378 114.337 56.2555C114.876 57.1104 115.234 58.0448 115.401 59.0329C115.47 59.4448 115.192 59.8351 114.78 59.9047C114.367 59.9738 113.976 59.6967 113.907 59.2847C113.773 58.4943 113.486 57.746 113.054 57.061C112.188 55.6854 110.837 54.7291 109.249 54.3683C107.662 54.0073 106.029 54.2851 104.651 55.1504C101.807 56.9365 100.948 60.6996 102.737 63.5393C103.85 65.3044 105.763 66.3681 107.854 66.3845C108.273 66.3878 108.609 66.7292 108.606 67.1469C108.603 67.5627 108.264 67.8972 107.849 67.8972Z" fill="#3C4043"/>
<path d="M124.068 130.908C124.054 130.908 124.039 130.908 124.025 130.907C123.608 130.884 123.288 130.527 123.311 130.11C123.493 126.85 123.013 123.644 121.884 120.581C120.362 116.351 119.953 111.779 120.699 107.353C120.769 106.941 121.16 106.664 121.572 106.733C121.985 106.803 122.263 107.193 122.193 107.605C121.49 111.775 121.875 116.084 123.308 120.064C124.507 123.317 125.018 126.728 124.824 130.195C124.801 130.597 124.467 130.908 124.068 130.908Z" fill="#3C4043"/>
<path d="M131.002 112.607C130.968 112.607 130.934 112.605 130.9 112.6C130.686 112.571 130.494 112.452 130.373 112.273C130.29 112.15 122.033 99.9117 119.266 95.8755C117.657 93.5277 115.584 91.2279 113.431 89.4C113.112 89.1292 113.073 88.6519 113.345 88.3337C113.616 88.0156 114.094 87.977 114.413 88.2475C116.666 90.1601 118.834 92.5659 120.517 95.0213C122.9 98.4983 129.349 108.048 131.155 110.724L145.662 98.3173C148.454 95.9315 151.808 94.7129 155.346 94.7977C155.764 94.8075 156.095 95.1539 156.085 95.5714C156.076 95.9889 155.727 96.3154 155.31 96.3099C152.142 96.237 149.151 97.3272 146.648 99.4665L131.495 112.425C131.357 112.543 131.181 112.607 131.002 112.607Z" fill="#3C4043"/>
<path d="M136.114 144.652C135.874 144.652 135.638 144.539 135.491 144.328C135.252 143.985 135.337 143.514 135.68 143.275C136.034 143.029 136.38 142.763 136.708 142.483L163.73 119.384C165.473 117.894 168.183 115.012 166.748 112.451C166.544 112.086 166.674 111.625 167.039 111.421C167.405 111.217 167.866 111.348 168.071 111.712C169.525 114.308 168.334 117.441 164.716 120.533L137.693 143.633C137.327 143.945 136.941 144.242 136.546 144.517C136.414 144.608 136.263 144.652 136.114 144.652Z" fill="#3C4043"/>
<path d="M84.9853 160.722C84.9355 160.722 84.8853 160.717 84.8348 160.707C84.4244 160.625 84.1592 160.226 84.2418 159.816C84.5027 158.526 84.5661 157.201 84.4299 155.877C84.4208 155.79 84.411 155.702 84.4004 155.615L81.29 128.118C81.265 127.898 81.3384 127.677 81.4907 127.515C81.643 127.354 81.8582 127.268 82.0809 127.278L124.106 129.396C124.524 129.417 124.845 129.773 124.825 130.19C124.804 130.607 124.448 130.931 124.03 130.907L82.8957 128.834L85.9051 155.438C85.9162 155.528 85.9273 155.626 85.9372 155.723C86.0889 157.197 86.0182 158.675 85.727 160.115C85.6546 160.475 85.3386 160.722 84.9853 160.722Z" fill="#3C4043"/>
<path d="M66.536 170.979C66.4483 170.979 66.3592 170.964 66.2723 170.932C61.0003 168.976 57.3683 164.294 56.7938 158.712L52.7537 122.89C52.1878 117.852 54.3309 112.796 58.3465 109.694C58.5993 109.501 83.4044 90.5026 85.8958 88.6258C88.2273 86.8693 92.9013 83.7861 98.0049 82.8741C98.4155 82.801 98.8105 83.0741 98.884 83.4855C98.9578 83.8968 98.6837 84.2896 98.2716 84.3632C93.4784 85.2196 89.0322 88.1579 86.8083 89.833C84.3214 91.7065 59.5211 110.701 59.2711 110.892C55.6732 113.671 53.7518 118.205 54.2592 122.721L58.3 158.55C58.8157 163.562 62.0724 167.76 66.7996 169.513C67.1918 169.659 67.3916 170.094 67.2459 170.486C67.1327 170.791 66.8436 170.979 66.536 170.979Z" fill="#3C4043"/>
<path d="M71.9572 150.472C63.9614 151.064 58.375 160.935 64.1281 167.326C64.2064 167.414 64.2847 167.497 64.363 167.578C67.0047 170.326 69.2069 173.541 67.9745 178.976C67.1057 182.809 65.2116 188.416 68.871 189.109C71.3966 189.588 73.8892 183.124 75.8894 178.424C76.1193 185.766 76.4324 195.38 79.7611 195.47C83.0897 195.561 83.9408 190.637 83.5721 181.12C85.8097 191.484 85.1278 195.175 88.3352 194.885C93.6388 194.404 90.3 172.913 87.1583 165.796C87.1583 165.796 86.4511 164.084 84.2262 157.793C81.9633 151.364 76.1546 150.149 71.9572 150.472Z" fill="#FFF1ED"/>
<path d="M79.8502 196.227C79.8134 196.227 79.7765 196.227 79.7391 196.226C76.4221 196.135 75.6142 190.149 75.2551 181.857C73.4314 186.081 71.5052 189.891 69.1466 189.892C69.0085 189.892 68.8696 189.878 68.7284 189.852C67.7821 189.673 67.0626 189.209 66.5895 188.475C65.3462 186.546 66.168 183.193 66.8931 180.235C67.0138 179.742 67.1313 179.263 67.2343 178.809C68.323 174.007 66.6549 171.056 63.8153 168.101C63.7317 168.015 63.646 167.924 63.5602 167.827C60.9251 164.9 60.2851 161.052 61.8072 157.273C63.4981 153.075 67.554 150.039 71.9002 149.717C74.9136 149.486 82.2103 149.786 84.9402 157.542C87.126 163.722 87.8508 165.489 87.8579 165.507C90.5503 171.606 93.6095 189.057 90.6506 194.07C89.9475 195.261 89.0403 195.58 88.4029 195.638C85.4955 195.899 85.0243 193.588 84.2532 188.963C83.9785 192.17 83.3289 194.152 82.2573 195.234C81.604 195.894 80.7948 196.227 79.8502 196.227ZM75.888 177.667C75.9344 177.667 75.9812 177.672 76.0279 177.681C76.3774 177.746 76.6345 178.045 76.6456 178.4C76.755 181.893 76.8909 186.238 77.4106 189.549C78.1102 194.006 79.1956 194.698 79.7805 194.714C80.3493 194.733 80.7971 194.557 81.1794 194.171C83.0243 192.308 82.9958 185.847 82.8139 181.148C82.7985 180.756 83.0862 180.418 83.4761 180.369C83.8658 180.321 84.2287 180.576 84.3116 180.96C84.9523 183.928 85.3538 186.344 85.6764 188.286C86.5214 193.371 86.7904 194.267 88.2655 194.132C88.4193 194.118 88.8886 194.075 89.3447 193.302C91.8823 189.003 89.2972 172.52 86.4636 166.1C86.4272 166.013 85.7165 164.282 83.5105 158.044C81.1277 151.275 74.6767 151.02 72.0141 151.225C72.0133 151.225 72.0128 151.225 72.0121 151.225C68.2291 151.505 64.6929 154.163 63.2129 157.837C61.9148 161.06 62.4532 164.334 64.6906 166.82C64.7646 166.903 64.8356 166.978 64.9063 167.051C67.6591 169.915 70.0235 173.36 68.7122 179.143C68.6074 179.605 68.488 180.092 68.365 180.594C67.7447 183.124 66.9729 186.274 67.8639 187.657C68.1099 188.038 68.4746 188.264 69.011 188.365C69.0572 188.374 69.1039 188.378 69.1512 188.378C70.8693 188.379 73.2642 182.696 74.7108 179.263C74.8737 178.877 75.0338 178.497 75.1909 178.128C75.3114 177.845 75.5887 177.667 75.888 177.667ZM71.956 150.471H71.9585H71.956Z" fill="#3C4043"/>
<path d="M82.0432 128.79C81.8379 128.79 81.633 128.707 81.4835 128.544C81.2012 128.235 81.2229 127.757 81.5318 127.475L99.2285 111.335C99.5374 111.053 100.017 111.075 100.299 111.383C100.581 111.691 100.559 112.17 100.251 112.451L82.5538 128.592C82.4089 128.725 82.2258 128.79 82.0432 128.79Z" fill="#3C4043"/>
<path d="M165.059 102.468C167.387 98.9624 165.713 99.8352 166.744 95.171L168.655 84.8445C169.899 78.2402 164.626 82.199 163.498 84.718L159.402 92.827C154.841 96.1343 152.458 97.3964 148.17 101.483C142.929 106.475 149.097 115.621 154.262 117.249C158.206 118.48 162.506 117.242 165.186 114.101C166.307 112.755 167.157 111.427 168.125 110.246L168.153 110.213C168.894 109.262 169.793 108.445 170.811 107.798C171.352 107.466 171.928 107.193 172.527 106.983C173.89 106.501 175.588 106.236 177.822 106.254C181.551 106.29 187.13 106.916 187.042 103.394C187.013 102.193 185.421 101.339 183.25 100.676L175.663 99.513L184.981 96.4497C188.501 95.2141 191.085 93.7666 190.761 92.0484C190.177 88.9516 183.523 90.8912 177.907 92.1528C183.398 89.8832 189.411 87.1477 188.499 84.2387C187.606 81.3917 185.904 81.0947 178.985 83.6462L168.071 87.995" fill="#FFF1ED"/>
<path d="M157.341 118.477C156.238 118.477 155.123 118.311 154.032 117.971C150.391 116.823 146.639 112.491 145.668 108.313C144.984 105.37 145.667 102.819 147.643 100.936C150.851 97.8785 153.017 96.374 155.76 94.4693C156.705 93.813 157.68 93.1353 158.805 92.3227L162.81 84.3924C163.587 82.6797 166.326 79.9558 168.223 80.548C169.482 80.9409 169.876 82.4334 169.396 84.9841L169.063 86.7851L178.701 82.9442C183.597 81.138 185.861 80.7626 187.37 81.5031C188.481 82.0482 188.942 83.1308 189.219 84.013C189.914 86.2324 187.777 88.1654 184.542 89.9346C187.042 89.5135 189.152 89.4439 190.402 90.2573C190.999 90.6456 191.369 91.2012 191.502 91.9089C191.986 94.4753 188.153 96.137 185.229 97.1637L178.899 99.2447L183.362 99.9287C183.398 99.9343 183.433 99.9423 183.468 99.9532C185.304 100.514 187.75 101.478 187.796 103.376C187.819 104.298 187.529 105.066 186.934 105.658C185.38 107.206 182.095 107.118 179.197 107.04C178.718 107.027 178.251 107.015 177.81 107.01C175.774 106.994 174.128 107.218 172.776 107.696C172.226 107.888 171.698 108.139 171.203 108.442C170.266 109.038 169.437 109.792 168.748 110.677C168.742 110.685 168.736 110.692 168.73 110.699L168.702 110.732C168.269 111.26 167.854 111.828 167.415 112.428C166.905 113.127 166.378 113.848 165.764 114.585C163.619 117.098 160.527 118.477 157.341 118.477ZM167.632 81.9725C166.811 81.9725 164.834 83.5793 164.186 85.0265C164.181 85.0371 164.176 85.0479 164.171 85.0583L160.075 93.1675C160.02 93.2752 159.941 93.3682 159.843 93.4391C158.644 94.3089 157.618 95.0216 156.625 95.711C153.936 97.5782 151.813 99.0531 148.689 102.03C146.709 103.917 146.756 106.302 147.144 107.971C147.993 111.622 151.355 115.541 154.486 116.528C158.145 117.67 162.117 116.525 164.605 113.611C165.182 112.918 165.694 112.216 166.191 111.537C166.643 110.919 167.069 110.335 167.535 109.767L167.56 109.738C168.354 108.72 169.309 107.853 170.399 107.16C170.997 106.794 171.623 106.497 172.272 106.27C173.791 105.733 175.606 105.479 177.823 105.498C178.274 105.502 178.749 105.515 179.238 105.528C181.702 105.595 184.77 105.677 185.864 104.588C186.161 104.292 186.294 103.919 186.281 103.414C186.273 103.106 185.945 102.3 183.077 101.416L175.544 100.262C175.197 100.209 174.933 99.9252 174.903 99.5765C174.874 99.2278 175.089 98.9048 175.421 98.7954L184.74 95.7324C189.586 94.0311 190.124 92.782 190.012 92.1893C189.956 91.8905 189.821 91.6858 189.574 91.5252C188.093 90.5613 183.747 91.5741 179.912 92.4676C179.292 92.6121 178.675 92.7561 178.069 92.892C177.686 92.9782 177.3 92.7568 177.181 92.3827C177.062 92.0083 177.25 91.6054 177.613 91.4551C181.162 89.9883 188.546 86.9358 187.772 84.4658C187.492 83.572 187.171 83.0922 186.701 82.8618C185.664 82.3525 183.503 82.7861 179.244 84.3571L168.737 88.5444L167.485 95.3091C167.483 95.3176 167.481 95.3262 167.479 95.3348C167.076 97.1571 167.106 98.0559 167.131 98.778C167.172 100.021 167.128 100.716 165.686 102.887C165.455 103.235 164.985 103.33 164.636 103.1C164.287 102.869 164.192 102.4 164.423 102.051C165.662 100.187 165.648 99.789 165.616 98.8284C165.591 98.0658 165.556 97.0215 165.997 95.0214L167.321 87.8689C167.322 87.8629 167.323 87.8568 167.324 87.8508L167.906 84.7081C168.296 82.6366 167.941 82.0459 167.771 81.9927C167.729 81.9788 167.683 81.9725 167.632 81.9725Z" fill="#3C4043"/>
<path d="M173.61 94.5651C173.305 94.5651 173.019 94.381 172.903 94.0807C172.752 93.6912 172.946 93.2533 173.337 93.103L177.635 91.4476C178.026 91.2968 178.464 91.4912 178.615 91.881C178.766 92.2705 178.571 92.7084 178.181 92.8587L173.882 94.5141C173.792 94.5487 173.7 94.5651 173.61 94.5651Z" fill="#3C4043"/>
<path d="M83.9957 258.338C83.8131 258.338 83.6363 258.272 83.4979 258.152L51.131 229.987C50.8155 229.713 50.7827 229.235 51.0575 228.92L68.6224 208.796L80.2315 194.838C80.4989 194.516 80.9765 194.472 81.2985 194.739C81.6202 195.006 81.6647 195.483 81.3975 195.804L69.7768 209.776L52.6978 229.344L83.9225 256.515L124.603 209.915L130.577 203.092C130.801 202.835 131.093 202.492 131.353 202.144C135.772 196.426 136.889 188.988 134.35 182.239L114.782 129.99C114.636 129.599 114.835 129.163 115.227 129.017C115.618 128.871 116.055 129.069 116.202 129.461L135.769 181.708C138.494 188.95 137.294 196.932 132.561 203.059C132.278 203.437 131.962 203.807 131.719 204.086L125.745 210.91L84.567 258.078C84.4349 258.23 84.248 258.322 84.0478 258.336C84.0303 258.337 84.0129 258.338 83.9957 258.338Z" fill="#3C4043"/>
<path d="M129.77 72.0177C129.486 72.0177 129.214 71.8576 129.084 71.584C128.906 71.2061 129.068 70.7553 129.446 70.577L132.41 69.181L129.861 63.3573C129.693 62.9745 129.868 62.5285 130.252 62.3614C130.635 62.194 131.082 62.3689 131.249 62.7517L134.093 69.2489C134.257 69.6238 134.093 70.0612 133.722 70.2359L130.093 71.9453C129.988 71.9945 129.878 72.0177 129.77 72.0177Z" fill="#3C4043"/>
<path d="M125.818 65.0273C126.366 64.6833 126.53 63.9611 126.186 63.4142C125.841 62.8672 125.118 62.7027 124.57 63.0467C124.022 63.3907 123.857 64.1129 124.202 64.6598C124.547 65.2067 125.27 65.3712 125.818 65.0273Z" fill="#3C4043"/>
<path d="M134.505 65.9652C135.053 65.6213 135.218 64.8991 134.873 64.3521C134.529 63.8052 133.805 63.6407 133.258 63.9847C132.71 64.3287 132.545 65.0509 132.89 65.5978C133.234 66.1447 133.958 66.3092 134.505 65.9652Z" fill="#3C4043"/>
<path d="M127.27 76.4497C126.993 76.4497 126.715 76.4222 126.438 76.3667C125.342 76.1471 124.397 75.5145 123.778 74.5855C123.698 74.4649 123.623 74.3386 123.555 74.2093L123.482 74.0724C123.287 73.7028 123.429 73.2454 123.799 73.0505C124.169 72.8554 124.627 72.9971 124.822 73.3664L124.895 73.5051C124.94 73.5893 124.988 73.6703 125.039 73.7472C125.434 74.3399 126.037 74.7433 126.736 74.8835C127.435 75.0239 128.147 74.8835 128.741 74.4892L129.268 74.1354C129.616 73.9025 130.087 73.995 130.32 74.3417C130.553 74.6883 130.46 75.1583 130.113 75.3912L129.583 75.7467C128.886 76.2099 128.087 76.4497 127.27 76.4497Z" fill="#3C4043"/>
<path d="M116.08 84.3788C116.029 84.3788 115.977 84.3735 115.925 84.3629C113.018 83.7624 110.318 82.3924 108.12 80.4006C107.81 80.12 107.787 79.6414 108.068 79.3321C108.349 79.0227 108.828 78.9995 109.138 79.2801C111.136 81.0904 113.59 82.3356 116.233 82.8815C116.642 82.9662 116.906 83.3663 116.821 83.7755C116.747 84.133 116.432 84.3788 116.08 84.3788Z" fill="#3C4043"/>
<path d="M110.306 62.4231C110.279 62.4231 110.252 62.4215 110.224 62.4185L104.668 61.8157C104.252 61.7706 103.951 61.3974 103.997 60.9822C104.042 60.5669 104.416 60.2674 104.832 60.312L108.393 60.6983L105.764 57.8266C105.482 57.5183 105.503 57.0397 105.812 56.7581C106.121 56.4762 106.6 56.4979 106.882 56.806L110.865 61.1564C111.078 61.3886 111.124 61.7282 110.982 62.0088C110.852 62.2647 110.589 62.4231 110.306 62.4231Z" fill="#3C4043"/>
<path d="M176.451 73.8113L184.953 74.8469C188.385 75.2649 190.82 78.3243 190.393 81.6803L186.181 114.751C185.753 118.107 182.625 120.488 179.193 120.07L170.691 119.035C167.26 118.617 164.824 115.557 165.252 112.201L169.464 79.1308C169.891 75.7748 173.02 73.3933 176.451 73.8113Z" fill="white"/>
<path d="M179.982 120.806C179.692 120.806 179.4 120.788 179.107 120.753L170.605 119.717C168.759 119.492 167.113 118.578 165.97 117.142C164.827 115.707 164.325 113.922 164.554 112.117L168.767 79.046C168.997 77.2406 169.932 75.6309 171.4 74.5135C172.868 73.3958 174.693 72.904 176.539 73.129L185.041 74.1647C186.887 74.3895 188.533 75.3039 189.675 76.7394C190.818 78.1749 191.321 79.9597 191.091 81.7651L186.879 114.836C186.649 116.641 185.714 118.251 184.246 119.368C183.011 120.309 181.522 120.806 179.982 120.806ZM175.667 74.4509C174.437 74.4509 173.249 74.8476 172.264 75.5981C171.092 76.4901 170.345 77.7748 170.162 79.2156L165.95 112.286C165.766 113.727 166.168 115.152 167.08 116.297C167.992 117.443 169.305 118.173 170.779 118.352L179.281 119.388C180.754 119.567 182.211 119.175 183.382 118.283C184.554 117.391 185.3 116.106 185.484 114.666L189.696 81.5951C189.879 80.154 189.478 78.7297 188.566 77.5841C187.654 76.4383 186.34 75.7084 184.867 75.5291L176.365 74.4935C176.132 74.4651 175.898 74.4509 175.667 74.4509Z" fill="#3C4043"/>
<path d="M192.921 81.9889L188.71 115.061C188.48 116.867 187.545 118.475 186.076 119.594C184.841 120.533 183.353 121.031 181.813 121.031C181.523 121.031 178.322 120.65 178.031 120.613C177.644 120.568 180.278 120.586 180.327 120.21C180.332 120.173 180.339 120.139 180.349 120.107C183.304 119.935 185.804 117.726 186.184 114.751L190.395 81.6819C190.805 78.4712 188.595 75.5332 185.401 74.9213C185.059 74.6234 184.794 74.3232 184.815 74.165C184.815 74.165 186.486 74.3392 186.87 74.3896C190.681 74.8523 193.397 78.2626 192.921 81.9889Z" fill="#3C4043"/>
<path d="M190.432 81.2912C190.409 81.2912 190.386 81.2903 190.362 81.2878L169.49 79.278C169.103 79.2408 168.821 78.9044 168.859 78.5265C168.897 78.1488 169.24 77.8713 169.627 77.9098L190.5 79.9197C190.887 79.9568 191.169 80.2932 191.131 80.6711C191.095 81.0261 190.789 81.2912 190.432 81.2912Z" fill="#3C4043"/>
<path d="M186.356 114.067C186.334 114.067 186.312 114.066 186.289 114.064L165.285 112.102C164.898 112.066 164.615 111.73 164.652 111.352C164.688 110.974 165.03 110.696 165.418 110.733L186.422 112.695C186.809 112.731 187.092 113.067 187.055 113.445C187.021 113.8 186.715 114.067 186.356 114.067Z" fill="#3C4043"/>
<path d="M101.196 135.424L100.139 142.535L95.2812 138.674L101.196 135.424Z" fill="#FFF1ED"/>
<path d="M109.121 145.821L108.941 146.048C103.945 152.324 94.7732 153.364 88.4962 148.366C87.0906 147.247 85.917 145.894 85.008 144.344C84.7855 143.965 84.9127 143.476 85.2921 143.254C85.6715 143.032 86.1598 143.159 86.3827 143.538C87.1921 144.918 88.2373 146.123 89.4889 147.12C95.0783 151.57 103.245 150.644 107.694 145.056L107.873 144.83C110.896 141.021 111.538 135.898 109.547 131.46C109.368 131.059 109.547 130.587 109.948 130.408C110.35 130.228 110.821 130.407 111.002 130.809C113.236 135.792 112.516 141.544 109.121 145.821Z" fill="#E7F1FF"/>
<path d="M82.5342 238.67L87.9219 240.507L83.1979 242.04L82.5342 238.67Z" fill="#FFF1ED"/>
<path d="M99.0602 187.26L92.1653 182.068L92.0762 179.954L100.395 176.424L99.0602 187.26Z" fill="#FFF1ED"/>
<path d="M194.981 245.045C194.975 245.046 194.971 245.047 194.965 245.048L194.682 245.101C186.804 246.589 179.185 241.388 177.697 233.508C176.21 225.628 181.409 218.008 189.287 216.521L189.571 216.467C189.573 216.467 189.576 216.466 189.578 216.466C195.15 215.414 200.868 217.725 204.146 222.355C204.4 222.714 204.315 223.212 203.956 223.466C203.597 223.72 203.1 223.635 202.845 223.276C199.927 219.153 194.835 217.096 189.873 218.032C189.871 218.033 189.869 218.033 189.867 218.033L189.583 218.087C182.568 219.411 177.939 226.196 179.263 233.213C180.588 240.229 187.372 244.86 194.386 243.535L194.671 243.482C194.675 243.481 194.68 243.48 194.685 243.479C197.51 242.946 200.106 241.462 201.999 239.298C202.289 238.967 202.792 238.933 203.123 239.223C203.454 239.513 203.488 240.016 203.198 240.348C201.072 242.778 198.154 244.446 194.981 245.045Z" fill="#E7F1FF"/>
<path d="M190.323 236.677L188.297 225.941L198.602 229.556L190.323 236.677Z" fill="#FFF1ED"/>
<path d="M91.9407 194.822C91.8712 194.658 91.8558 194.47 91.9099 194.286C92.0344 193.864 92.4772 193.622 92.8992 193.746C95.7613 194.588 98.8495 194.408 101.594 193.238C108.17 190.448 111.249 182.833 108.461 176.261L108.348 175.995C105.627 169.584 98.3884 166.484 91.8688 168.938C91.457 169.093 90.9992 168.886 90.8422 168.473C90.6874 168.061 90.8955 167.601 91.3075 167.446C98.6295 164.691 106.759 168.172 109.815 175.372L109.928 175.638C113.059 183.018 109.601 191.571 102.22 194.703C99.1344 196.018 95.6649 196.22 92.4488 195.274C92.2113 195.205 92.0307 195.034 91.9407 194.822Z" fill="#E7F1FF"/>
<path d="M97.7293 233.948L97.918 234.164C98.4509 234.774 98.9365 235.433 99.3609 236.122C99.5917 236.497 99.4751 236.988 99.1003 237.218C98.7256 237.449 98.2359 237.333 98.0041 236.958C97.6255 236.344 97.1929 235.756 96.718 235.213L96.5294 234.997C91.8303 229.622 83.6328 229.072 78.2562 233.773C74.9882 236.624 73.3729 240.893 73.935 245.192C73.992 245.628 73.6845 246.028 73.2483 246.086C72.8121 246.143 72.4123 245.836 72.3549 245.399C71.7237 240.57 73.538 235.775 77.2081 232.573C83.2458 227.295 92.4518 227.912 97.7293 233.948Z" fill="#E7F1FF"/>
<path d="M149.97 192.919C146.51 191.166 143.937 188.171 142.726 184.484C141.515 180.794 141.813 176.852 143.565 173.385C145.319 169.916 148.319 167.338 152.013 166.127C152.575 165.943 153.153 165.791 153.733 165.676C154.165 165.59 154.584 165.871 154.67 166.302C154.756 166.734 154.475 167.153 154.043 167.239C153.526 167.342 153.01 167.477 152.509 167.641C149.22 168.72 146.549 171.015 144.987 174.104C143.427 177.191 143.162 180.701 144.24 183.986C145.318 187.269 147.609 189.937 150.691 191.497C150.693 191.499 150.696 191.5 150.699 191.501L150.957 191.632C157.325 194.855 165.131 192.296 168.357 185.928C168.555 185.528 168.737 185.108 168.894 184.685C169.047 184.272 169.505 184.062 169.918 184.215C170.331 184.368 170.541 184.826 170.388 185.239C170.211 185.714 170.007 186.186 169.781 186.642C166.155 193.8 157.389 196.674 150.238 193.054L149.979 192.923C149.976 192.922 149.973 192.92 149.97 192.919Z" fill="#E7F1FF"/>
<path d="M151.648 183.591L156.582 173.847L162.552 182.991L151.648 183.591Z" fill="#FFF1ED"/>
<path d="M249.648 25.5692C248.961 25.3388 249.406 25.5139 249.423 25.5261L249.614 25.7047L249.54 25.8402L248.876 25.7674L249.237 26.0456L248.668 26.0049L249.083 26.3134L248.31 26.1919L248.488 26.4172L248.49 26.5788L248.506 26.7488L248.295 26.8465L249.032 27.2773L248.08 27.0907L248.621 27.4519L248.783 27.6748L248.46 27.7183L248.432 27.8691L248.089 27.9029L248.428 28.197L248.651 28.4414L248.12 28.4048L248.477 28.6973L247.994 28.6777L248.63 29.0809L248 29.0046L248.338 29.3069L247.527 29.1558L248.401 29.6618L248.115 29.7155L247.406 29.6038L247.932 29.9724L247.742 30.066L247.235 30.031L248.018 30.5026L247.877 30.611L247.515 30.6308L247.778 30.9009L247.297 30.8673L247.188 30.9867L247.799 31.3962L246.883 31.1922L247.051 31.4242L246.884 31.5217L247.415 31.9016L246.704 31.7742L247.235 32.1561L246.986 32.22L246.508 32.188L246.86 32.4949L246.564 32.5378L246.64 32.7276L246.844 32.9779L246.912 33.1684L246.911 33.3344L246.633 33.3834L246.65 33.5554L246.565 33.686L246.167 33.6818L246.2 33.8619L246.704 34.2426L246.615 34.3717L246.541 34.5074L246.117 34.4917L246.066 34.6369C246.09 34.7036 246.135 34.7781 246.166 34.8461L245.888 34.8931L246.487 35.3216L246.215 35.3699L246.35 35.6035L245.997 35.6144L246.07 35.8144L246.131 36.0057C246.145 36.0517 245.858 35.9635 246.218 36.1629C246.276 36.1946 246.197 36.1965 246.986 36.5472L247.352 36.7085L247.998 36.9883L248.403 37.1775C248.439 37.1948 248.477 37.2075 248.516 37.2156C248.566 37.193 248.47 37.1077 248.455 37.0579L248.527 36.9187L248.466 36.7272L248.772 36.6973L249.171 36.7034L249.055 36.4819L249.399 36.4599L249.274 36.2336C249.285 36.1808 249.293 36.1272 249.298 36.0733L249.488 35.9817L249.142 35.6624L249.528 35.6581L249.822 35.6133L249.617 35.3553L250.077 35.3811L250.072 35.208L249.995 35.0045L250.517 35.0537L250.171 34.7365L249.874 34.4422L250.525 34.5438C250.573 34.5076 250.617 34.4677 250.665 34.4314L250.025 33.9971L250.771 34.1369L250.273 33.7617L250.4 33.6445L250.559 33.5401L251.048 33.569L251.198 33.4595L250.597 33.0154L250.58 32.8434L251.537 33.0592L250.898 32.6346L251.028 32.5173L251.751 32.6436L251.281 32.2951L250.944 31.9927L251.898 32.2009L251.196 31.7549L251.799 31.8199L251.401 31.496L252.136 31.621L251.407 31.1679L251.963 31.2159L251.567 30.8937L252.292 31.0039L251.89 30.6804L251.873 30.5044L252.722 30.6361L252.752 30.4792L252.667 30.2785L251.943 29.8365L252.107 29.7296L252.809 29.8383L253.012 29.7453L252.206 29.2759L252.928 29.3766L252.454 29.0286L252.809 28.9937L252.586 28.7493L252.646 28.5914L252.757 28.4641L253.341 28.5093L253.495 28.3974L253.55 28.25L252.887 27.8435L253.283 27.8185L253.975 27.8983L253.935 27.7169C253.858 27.6337 253.764 27.5362 253.681 27.4596L254.095 27.4386L253.49 27.0562L253.724 27.0844L253.907 27.1079C253.929 27.1058 254.06 27.1403 253.797 27.034C253.533 26.9276 252.877 26.6844 251.321 26.1427L249.648 25.5692Z" fill="#FFBCA5"/>
<path d="M264.395 30.4821C263.939 29.9275 264.202 30.3012 264.204 30.3131L264.202 30.4191C264.2 30.4478 264.203 30.4765 264.21 30.5042L264.215 30.5497L264.057 30.6772L263.516 30.3307L263.64 30.814L263.153 30.5323L263.294 31.0319L262.669 30.5838L262.658 30.8946L262.532 31.0648L262.422 31.2515L262.159 31.2553L262.521 32.0189L261.769 31.4355L262.005 32.0357L261.992 32.3367L261.657 32.2558L261.517 32.4054L261.166 32.308L261.28 32.7524L261.314 33.0987L260.834 32.8561L260.952 33.3021L260.496 33.0811L260.818 33.7528L260.268 33.4372L260.404 33.8934L259.727 33.4324L260.214 34.2917L259.902 34.2484L259.289 33.8771L259.548 34.4651L259.309 34.5046L258.848 34.2901L259.286 35.0742L259.092 35.1452L258.723 35.0457L258.806 35.4371L258.349 35.2463L258.158 35.345L258.497 35.995L257.72 35.4719L257.739 35.7857L257.512 35.8421L257.801 36.4311L257.163 36.0801L257.456 36.6687L257.173 36.6705L256.722 36.4971L256.874 36.9397L256.556 36.913L256.516 37.1607L256.57 37.5011L256.521 37.7357L256.418 37.9176L256.107 37.8963L256.019 38.0927L255.855 38.2148L255.442 38.1015L255.368 38.3086L255.665 38.8788L255.496 38.9973C255.444 39.0404 255.394 39.0872 255.344 39.1321L254.912 39.0028L254.778 39.1558L254.759 39.4153L254.427 39.3841L254.837 40.0371L254.524 40.0239L254.554 40.3326C254.426 40.3066 254.3 40.2831 254.176 40.2619L254.156 40.5156L254.128 40.7601C254.111 40.8098 253.886 40.67 254.175 40.9933C254.222 41.0446 254.156 41.0431 254.784 41.6028L255.085 41.8529L255.606 42.3072C255.742 42.4373 255.888 42.5565 256.043 42.6639C256.121 42.6661 256.095 42.5768 256.094 42.509L256.233 42.3714L256.26 42.133L256.595 42.174L257.009 42.2932L256.992 42.0152C257.112 42.0392 257.237 42.0649 257.352 42.0836L257.312 41.7818L257.401 41.5993L257.631 41.5487L257.434 41.0966L257.823 41.1981L258.133 41.2256L258.051 40.878L258.494 41.0343L258.571 40.8409L258.593 40.593L259.077 40.7932L258.897 40.3474L258.758 39.9394L259.338 40.2361L259.531 40.1571L259.147 39.4996L259.799 39.8791L259.523 39.3188L259.715 39.2339L259.928 39.173L260.387 39.3637L260.593 39.2994L260.242 38.6666L260.33 38.4782L261.127 39.0272L260.758 38.3621L260.951 38.2812L261.573 38.6577L261.319 38.1192L261.176 37.6837L261.96 38.242L261.556 37.5225L262.082 37.8065L261.9 37.3229L262.521 37.7173L262.12 36.9656L262.613 37.2228L262.437 36.7406L263.048 37.1321L262.872 36.6459L262.964 36.459L263.655 36.9486L263.781 36.8003L263.828 36.5619L263.443 35.8365L263.664 35.7948L264.248 36.177L264.492 36.167L264.059 35.3623L264.653 35.7635L264.447 35.2203L264.793 35.3321L264.76 34.9878L264.901 34.856L265.094 34.777L265.59 35.074L265.802 35.0311L265.951 34.9106L265.631 34.2228L266.003 34.376L266.564 34.7665C266.591 34.7014 266.622 34.6383 266.658 34.5774L266.624 34.2331L267.032 34.4388L266.768 33.7954C266.833 33.8449 266.903 33.902 266.954 33.9329L267.083 34.0201C267.098 34.0306 267.184 34.1121 267.02 33.8744L266.844 33.632L266.542 33.2322L265.456 31.8324C264.925 31.1313 264.59 30.7287 264.395 30.4821Z" fill="#FFBCA5"/>
<path d="M267.243 44.3536C267.03 43.7109 267.15 44.1311 267.152 44.1465L267.147 44.2424C267.151 44.2848 267.158 44.358 267.147 44.3552L267.048 44.3863L266.774 43.8723L266.802 44.3055L266.552 43.8785L266.597 44.3411L266.289 43.7214L266.256 43.9601L266.173 44.0384L266.095 44.1355L265.949 44.0234L266.078 44.7658L265.719 43.9857L265.791 44.5508L265.753 44.7764L265.576 44.566L265.484 44.6179L265.301 44.3868L265.316 44.7745L265.296 45.0509L265.049 44.6529L265.064 45.0406L264.84 44.6851L264.939 45.3351L264.683 44.8484L264.702 45.2532L264.382 44.5977L264.551 45.4647L264.384 45.2865L264.096 44.7309L264.165 45.2846L264.03 45.2025L263.801 44.8359L263.943 45.6198L263.82 45.5755L263.632 45.3313L263.623 45.6493L263.402 45.2974L263.288 45.2813L263.381 45.9124L263.034 45.1682L262.999 45.4032L262.867 45.3363L262.937 45.8958L262.65 45.3402L262.719 45.8978L262.564 45.7592L262.343 45.4151L262.359 45.8028L262.193 45.6244L262.134 45.782L262.11 46.049L262.048 46.1914L261.964 46.2717L261.803 46.1085L261.725 46.2037L261.618 46.2142L261.42 45.9398L261.346 46.0522L261.398 46.5822L261.288 46.5833L261.183 46.5936L260.977 46.2909L260.878 46.3239L260.819 46.4834L260.649 46.292L260.742 46.9231L260.572 46.7335L260.53 46.9439L260.332 46.6656L260.269 46.808L260.204 46.9429C260.188 46.9775 260.071 46.6932 260.172 47.0842C260.178 47.1497 260.145 47.0868 260.408 47.9075L260.533 48.2845L260.753 48.9576L260.893 49.372C260.904 49.4099 260.918 49.4469 260.935 49.4826C260.97 49.5025 260.955 49.3717 260.97 49.3274L261.065 49.285L261.119 49.1104L261.289 49.298L261.487 49.5763L261.525 49.3527L261.702 49.5649L261.74 49.3393L261.823 49.2572L261.957 49.3335L261.939 48.9306L262.13 49.1881L262.295 49.3665L262.319 49.0956L262.533 49.4209L262.614 49.3313L262.674 49.1775L262.904 49.5557L262.889 49.168L262.886 48.82L263.152 49.3134L263.277 49.3575L263.181 48.7131L263.479 49.3007L263.428 48.7725L263.547 48.8036L263.675 48.863L263.899 49.2185L264.025 49.2704L263.937 48.6524L264.018 48.5627L264.377 49.337L264.277 48.6871L264.397 48.722L264.688 49.2889L264.638 48.7782L264.624 48.3902L264.983 49.1646L264.865 48.4522L265.118 48.908L265.087 48.4693L265.383 49.0493L265.257 48.3144L265.506 48.7337L265.475 48.2969L265.769 48.8694L265.735 48.427L265.813 48.3317L266.142 49.0156L266.235 48.9636L266.295 48.808L266.169 48.0769L266.3 48.1457L266.587 48.7013L266.731 48.8059L266.583 48.0012L266.876 48.5737L266.827 48.0764L267.015 48.3187L267.039 48.0478L267.137 48.009L267.253 48.0307L267.505 48.4807L267.634 48.542L267.735 48.5146L267.629 47.84L267.829 48.1219L268.119 48.6773L268.196 48.5763L268.213 48.2885L268.429 48.6234L268.339 48.0018L268.434 48.187L268.506 48.324C268.507 48.3413 268.559 48.4472 268.493 48.191C268.426 47.9348 268.23 47.3138 267.769 45.882L267.243 44.3536Z" fill="#FFBCA5"/>
<path d="M211.014 21.352L208.391 19.896L181.997 67.4441L184.62 68.9001L211.014 21.352Z" fill="#E7F1FF"/>
<path d="M245.08 57.6277L243.633 55L196 81.2396L197.447 83.8673L245.08 57.6277Z" fill="#E7F1FF"/>
<path d="M250.363 112.423L250.941 109.479L197.578 98.9999L197 101.944L250.363 112.423Z" fill="#E7F1FF"/>
<path d="M231.031 161.017L233.062 158.809L193.03 122L191 124.208L231.031 161.017Z" fill="#E7F1FF"/>
<path d="M212 25C216.418 25 220 21.4183 220 17C220 12.5817 216.418 9 212 9C207.582 9 204 12.5817 204 17C204 21.4183 207.582 25 212 25Z" fill="#E7F1FF"/>
<path d="M244 63C248.418 63 252 59.4183 252 55C252 50.5817 248.418 47 244 47C239.582 47 236 50.5817 236 55C236 59.4183 239.582 63 244 63Z" fill="#E7F1FF"/>
<path d="M249 119C253.418 119 257 115.418 257 111C257 106.582 253.418 103 249 103C244.582 103 241 106.582 241 111C241 115.418 244.582 119 249 119Z" fill="#E7F1FF"/>
<path d="M236 170C240.418 170 244 166.418 244 162C244 157.582 240.418 154 236 154C231.582 154 228 157.582 228 162C228 166.418 231.582 170 236 170Z" fill="#E7F1FF"/>
</svg>
