<svg xmlns="http://www.w3.org/2000/svg" fill="none" viewBox="0 0 466 283"><path fill="#E7F1FF" d="M399.009 41.288v-1.006h-.041L398.961 2H69v281h330.009l-.007-40.532h.007v-1.006h-.007l-.007-39.241h.014v-1.006h-.014l-.007-39.192h.021v-1.006h-.021l-.007-39.239h.028v-1.006h-.028l-.007-39.24h.035v-1.006h-.035l-.007-39.239h.042zm-1.051-38.186v37.18h-39.196V3.102h39.196zm-40.2 0v37.18h-40.486V3.102h40.486zM233.813 121.78h40.965v39.239h-40.965v-39.239zm-1.003 39.239h-40.965v-39.239h40.965v39.239zm1.003-40.245v-39.24h40.965v39.24h-40.965zm-1.003 0h-40.965v-39.24h40.965v39.24zm-41.969 0h-41.014v-39.24h41.013l.001 39.24zm0 1.006v39.239h-41.014v-39.239h41.014zm0 40.245v39.191h-41.014v-39.191h41.014zm1.004 0h40.965v39.191h-40.965v-39.191zm41.968 0h40.965v39.191h-40.965v-39.191zm41.968 0h40.487v39.191h-40.487v-39.191zm0-1.006v-39.239h40.487v39.239h-40.487zm0-40.245v-39.24h40.487v39.24h-40.487zm0-40.246v-39.24h40.487v39.24h-40.487zm-1.003 0h-40.965v-39.24h40.965v39.24zm-41.968 0h-40.965v-39.24h40.965v39.24zm-41.969 0h-41.014v-39.24h41.013l.001 39.24zm-42.015 0h-40.965v-39.24h40.965v39.24zm0 1.006v39.24h-40.965v-39.24h40.965zm0 40.246v39.239h-40.965v-39.239h40.965zm0 40.245v39.191h-40.965v-39.191h40.965zm0 40.198v39.239h-40.965v-39.24l40.965.001zm1.003 0h41.012v39.239h-41.014l.002-39.239zm42.016 0h40.965v39.239h-40.965v-39.239zm41.968 0h40.965v39.239h-40.965v-39.239zm41.968 0h40.487v39.239h-40.487v-39.239zm41.491 0h40.486v39.239h-40.486v-39.239zm0-1.007v-39.191h40.486v39.191h-40.486zm0-40.197v-39.239h40.486v39.239h-40.486zm0-40.245v-39.24h40.486v39.24h-40.486zm0-40.246v-39.24h40.486v39.24h-40.486zm-1.004-77.425v37.18h-40.487V3.102h40.487zm-41.49 0v37.18h-40.965V3.102h40.965zm-41.968 0v37.18h-40.965V3.102h40.965zm-41.969 0v37.18h-41.014V3.102h41.014zm-42.015 0v37.18h-40.965V3.102h40.965zm-78.774 0h36.806v37.18H70.052V3.102zm0 38.185h36.806v39.24H70.052v-39.24zm0 40.246h36.806v39.24H70.052v-39.24zm0 40.246h36.806v39.239H70.052v-39.239zm0 40.245h36.806v39.191H70.052v-39.191zm0 40.198h36.806v39.239H70.052v-39.239zm0 79.724v-39.479h36.806v39.479H70.052zm37.809 0v-39.479h40.965v39.479h-40.965zm41.968 0v-39.479h41.012v39.479h-41.012zm42.016 0v-39.479h40.965v39.479h-40.965zm41.968 0v-39.479h40.965v39.479h-40.965zm41.968 0v-39.479h40.487v39.479h-40.487zm41.491 0v-39.479h40.486v39.479h-40.486zm80.687 0h-39.197v-39.479h39.196l.001 39.479zm0-40.485h-39.197v-39.24h39.196l.001 39.24zm0-40.245h-39.197v-39.192h39.196l.001 39.192zm0-40.198h-39.197v-39.239h39.196l.001 39.239zm0-40.245h-39.197v-39.24h39.196l.001 39.24zm0-40.246h-39.197v-39.24h39.196l.001 39.24z"/><path fill="#FFF1ED" d="M457.731 171c0-.016-3.492 21.04-7.042 31.136l-8.917-28.047L457.731 171z"/><path fill="#3C4043" d="M450.688 202.774h-.01a.635.635 0 0 1-.599-.445l-8.916-28.047a.63.63 0 0 1 .241-.714.627.627 0 0 1 .246-.105l15.958-3.09a.634.634 0 0 1 .758.593.604.604 0 0 1-.01.153l-.011.065c-.603 3.57-3.781 21.85-7.056 31.163a.634.634 0 0 1-.601.427zm-8.092-28.194l8.104 25.488c2.832-9.051 5.542-24.202 6.245-28.267l-14.349 2.779z"/><path fill="#FFF1ED" d="M354.653 117.78c.099-.749.49-4.959.827-9.173l-.438-15.375c-1.303-7.118-3.876-14.688-6.728-13.916-2.617.702-.723 5.21.553 14.055-2.489-7.634-4.872-13.056-7.489-12.014-2.595 1.042-.042 8.74 1.936 14.608-2.957-3.126-6.808-7.527-8.68-6.4-2.681 1.615.447 5.507 2.255 8.27 4.021 6.167 1.575 8.782.149 13.226-.957 2.955.447 6.315 2.851 9.674"/><path fill="#3C4043" d="M339.892 121.373a.643.643 0 0 1-.52-.267c-2.898-4.05-3.859-7.399-2.939-10.241.264-.822.558-1.574.843-2.302 1.274-3.254 2.194-5.604-.92-10.38-.205-.314-.429-.645-.659-.985-1.449-2.14-3.092-4.564-2.674-6.465a2.636 2.636 0 0 1 1.284-1.715c1.888-1.136 4.675 1.448 7.499 4.411-2.091-6.478-3.258-11.622-.663-12.664a2.35 2.35 0 0 1 1.931.069c1.299.609 2.539 2.336 3.95 5.63-.381-2.03-.664-3.657-.657-4.862.003-.6.014-2.427 1.785-2.902a2.293 2.293 0 0 1 1.879.33c3.213 2.024 5.131 11.294 5.642 14.087a.624.624 0 0 1 .01.096l.439 15.376a.53.53 0 0 1-.002.069c-.33 4.118-.723 8.403-.83 9.205a.642.642 0 0 1-.242.427.634.634 0 0 1-.712.048.65.65 0 0 1-.297-.392.637.637 0 0 1-.014-.25c.092-.698.477-4.825.82-9.105l-.436-15.292c-1.265-6.875-3.249-12.05-5.06-13.19a1.022 1.022 0 0 0-.866-.176c-1.274.341-.943 2.393-.072 7 .345 1.829.737 3.903 1.09 6.347a.638.638 0 0 1-1.239.29c-1.469-4.508-3.662-10.61-5.731-11.58a1.084 1.084 0 0 0-.915-.04c-2.071.832.885 9.599 2.305 13.812a.636.636 0 0 1-.691.836.636.636 0 0 1-.377-.194c-.256-.27-.519-.55-.786-.836-2.182-2.326-5.833-6.221-7.102-5.456a1.366 1.366 0 0 0-.696.896c-.301 1.365 1.243 3.645 2.484 5.476.234.346.462.682.672 1.004 3.473 5.325 2.346 8.205 1.04 11.541-.277.709-.565 1.442-.817 2.228-.787 2.431.116 5.41 2.762 9.108a.638.638 0 0 1-.519 1.009l.001-.001z"/><path fill="#FFF1ED" d="M346.761 112.156c.044-3.75 2.656-6.974 4.21-10.926 2.171-5.475 4.043-8.781 5.423-8.977 3.172-.422-.799 13.021-1.429 21.026"/><path fill="#3C4043" d="M354.965 113.917c-.017 0-.034 0-.051-.002a.649.649 0 0 1-.435-.222.63.63 0 0 1-.151-.464c.214-2.728.808-6.05 1.38-9.264.806-4.513 1.809-10.13.937-11.04-.028-.028-.053-.055-.168-.04-.371.053-1.841.831-4.914 8.58a41.771 41.771 0 0 1-1.81 3.835c-1.197 2.325-2.328 4.521-2.355 6.863a.635.635 0 0 1-.193.449.638.638 0 0 1-1.084-.464c.031-2.643 1.229-4.969 2.497-7.432a40.824 40.824 0 0 0 1.757-3.719c3.178-8.014 4.837-9.22 5.928-9.375a1.416 1.416 0 0 1 1.264.421c1.255 1.312.589 5.47-.602 12.146-.568 3.183-1.155 6.475-1.365 9.14a.637.637 0 0 1-.635.588z"/><path fill="#E7F1FF" d="M446.139 246.864c.135 6.905 1.607 14.144 7.208 15.691 5.701 1.574 9.51 6.741 9.063 12.694l-47.317-.191-.042-28.343 31.088.149z"/><path fill="#3C4043" d="M462.408 275.888h-.003l-47.317-.192a.637.637 0 0 1-.635-.638l-.043-28.342a.638.638 0 0 1 .638-.638h.003l31.089.148a.641.641 0 0 1 .635.626c.172 8.825 2.439 13.902 6.739 15.089 6.075 1.677 9.994 7.169 9.53 13.357a.64.64 0 0 1-.636.59zm-46.679-1.465l46.073.186c.134-5.327-3.342-9.98-8.627-11.439-4.8-1.326-7.375-6.597-7.659-15.672l-29.827-.142.04 27.067z"/><path fill="#FFED96" stroke="#3C4043" d="M345.092 147.483l-9.658-26.66 23.058-8.335 6.651 18.385a3.676 3.676 0 0 0-.085.407c-.063.421-.03.794.17 1.073a.889.889 0 0 0 .723.37c.1.002.186-.011.246-.023.03-.006.056-.013.076-.018l.025-.008.01-.003.004-.001.002-.001-.161-.473.162.473.481-.165-.173-.478-.429-1.186c.08-.247.194-.545.353-.904 1.269-2.863 5.188-9.142 15.827-22.728 1.825-2.33 4.372-3.564 6.878-4.272 1.865-.528 3.656-.754 5.101-.937.323-.041.629-.079.914-.119.417 1.799 1.55 3.536 3.038 4.613 1.639 1.187 3.76 1.598 5.801.327h0c2.139-1.332 3.561-4.048 3.395-6.596.78.112 2.03.259 3.438.414 1.988.22 4.337.462 6.251.654l.05-.497-.05.497c2.262.228 5.349 1.566 7.825 4.246l.014.016.017.015 20.256 18.408.031.028.035.022a12.32 12.32 0 0 1 5.438 8.051l7.46 39.542-14.745 2.697c-.533-1.196-1.552-3.06-2.797-5.226-1.392-2.419-3.085-5.247-4.747-8.005l-1.195-1.981c-1.234-2.046-2.405-3.984-3.367-5.612a122.689 122.689 0 0 1-1.587-2.744c-.398-.715-.654-1.215-.757-1.477l-1.366-7.239-.04-.212-.182-.116-4.746-3.041c-.196-.667-.314-1.353-.437-2.072-.048-.283-.098-.57-.153-.862-.202-1.075-.481-2.189-1.122-3.193-1.152-1.805-3.082-2.093-4.867-2.001l.026.499-.026-.499c-2.126.109-7.091.025-12.499-.067a1777.76 1777.76 0 0 0-4.756-.077c-3.514-.052-6.917-.084-9.553-.046a62.745 62.745 0 0 0-3.315.116 14.7 14.7 0 0 0-1.1.113c-.277.043-.55.101-.74.199l.217.423-.217-.423a1.238 1.238 0 0 0-.328.261 3.61 3.61 0 0 0-.286.352 12.41 12.41 0 0 0-.659 1.041c-.488.841-1.082 1.987-1.741 3.33-1.319 2.687-2.91 6.195-4.445 9.712a379.495 379.495 0 0 0-4.116 9.789 122.519 122.519 0 0 0-1.326 3.418c-.16.437-.287.805-.376 1.087a8.935 8.935 0 0 0-.09.307 20.553 20.553 0 0 1-6.355 1.01 21.406 21.406 0 0 1-3.034-.229 20.589 20.589 0 0 1-10.021-4.428 20.56 20.56 0 0 1-6.325-8.94l-.001-.001z"/><path fill="#E7F1FF" d="M340.944 240.72c.596 8.016-1.383 20.263-14.595 22.262-5.851.893-9.51 6.102-9.063 12.055l54.912-.191.042-21.74-31.296-12.386z"/><path fill="#3C4043" d="M317.285 275.675a.635.635 0 0 1-.636-.59c-.485-6.455 3.554-11.811 9.603-12.735 13.976-2.114 14.485-15.798 14.055-21.584a.632.632 0 0 1 .555-.68.634.634 0 0 1 .317.04l31.297 12.386a.64.64 0 0 1 .404.595l-.043 21.74a.636.636 0 0 1-.636.637l-54.912.191h-.004zm24.355-33.994c.137 3.138-.08 8.203-2.241 12.702-2.497 5.202-6.856 8.307-12.955 9.228-5.186.793-8.706 5.281-8.553 10.786l53.669-.187.041-20.671-29.961-11.858z"/><path fill="#fff" d="M381.047 137.129L339.56 239.934l33.742 13.608 30.081-74.559 10.896 19v48.733h36.402v-53.73c0-.447-.029-.894-.087-1.338l-6.1-14.32-22.875-40.199h-40.572z"/><path fill="#3C4043" d="M373.306 254.179a.608.608 0 0 1-.238-.046l-33.743-13.608a.634.634 0 0 1-.353-.829l41.487-102.805a.639.639 0 0 1 .592-.399h40.572a.634.634 0 0 1 .555.323l22.875 40.198a.503.503 0 0 1 .032.066l6.1 14.319a.66.66 0 0 1 .048.187l.027.261c.045.378.066.759.063 1.139v53.731a.637.637 0 0 1-.638.638h-36.402a.636.636 0 0 1-.638-.638v-48.564l-10.158-17.711-29.589 73.339a.636.636 0 0 1-.592.399zm-32.913-14.598l32.559 13.13 29.843-73.967a.636.636 0 0 1 .893-.323.628.628 0 0 1 .253.245l10.896 18.999a.644.644 0 0 1 .085.318v48.095h35.126v-53.092a7.892 7.892 0 0 0-.058-1.008l-.017-.169-6.048-14.197-22.673-39.845h-39.77l-41.089 101.814z"/><path fill="#FFF1ED" d="M452.798 182.95c-.617 2.764-2.744 10.865-3.404 12.715-.681 1.935-4.319 2.402-3.553-2.743 1.702-11.546-2.149-11.12-1.213-16.585"/><path fill="#3C4043" d="M447.545 197.657a2.218 2.218 0 0 1-.532-.063c-.569-.141-2.379-.901-1.803-4.766.975-6.619.089-9.195-.623-11.265-.538-1.564-1.002-2.913-.588-5.333a.63.63 0 0 1 .26-.415.653.653 0 0 1 .477-.109.65.65 0 0 1 .414.262.616.616 0 0 1 .101.228.614.614 0 0 1 .006.249c-.359 2.098.037 3.248.537 4.703.757 2.201 1.7 4.94.678 11.867-.331 2.226.221 3.185.848 3.34.565.14 1.253-.281 1.472-.902.659-1.853 2.777-9.926 3.383-12.642a.64.64 0 0 1 1.258.024.654.654 0 0 1-.013.253c-.612 2.741-2.754 10.908-3.425 12.791a2.669 2.669 0 0 1-2.45 1.778zM423.199 139.268l-.554.315 5.723 10.058.554-.316-5.723-10.057z"/><path fill="#fff" d="M383.607 131.175h36.402l1.617 5.954h-40.572l2.553-5.954z"/><path fill="#3C4043" d="M421.625 137.767h-40.573a.638.638 0 0 1-.586-.889l2.553-5.954a.637.637 0 0 1 .586-.386h36.403a.636.636 0 0 1 .616.47l1.616 5.954a.632.632 0 0 1-.333.739.633.633 0 0 1-.284.066h.002zm-39.605-1.276h38.77l-1.27-4.678h-35.494l-2.006 4.678z"/><path fill="#FFDA2D" d="M348.326 261.405c-4.03 0-11.383-2.843-11.732-2.979a.638.638 0 0 1-.272-.987c.652-.836 6.462-8.193 9.805-9.1a6.748 6.748 0 0 1 8.239 4.674c.236.848.303 1.734.196 2.608a6.686 6.686 0 0 1-4.873 5.632h-.004c-.444.109-.901.16-1.359.152zm-10.456-3.861c3.042 1.118 9.22 3.091 11.479 2.48a5.402 5.402 0 0 0 3.945-4.556 5.391 5.391 0 0 0-.158-2.111 5.466 5.466 0 0 0-6.675-3.786c-2.257.612-6.551 5.459-8.591 7.973z"/><path fill="#FFDA2D" d="M336.824 258.47a.611.611 0 0 1-.128-.013c-1.039-.212-10.22-2.145-12.519-4.72a6.7 6.7 0 0 1 5.377-11.153c1.775.1 3.438.9 4.623 2.226 2.297 2.575 3.189 11.91 3.283 12.966a.626.626 0 0 1-.164.487.64.64 0 0 1-.471.208l-.001-.001zm-7.643-14.618a5.433 5.433 0 0 0-5.36 6.254c.159 1.034.613 2 1.309 2.781 1.553 1.74 7.811 3.43 10.972 4.138-.349-3.22-1.326-9.627-2.879-11.367a5.351 5.351 0 0 0-1.688-1.273 5.361 5.361 0 0 0-2.354-.533zM454.228 260.965c-2.641 0-4.876-.177-5.071-.193a.643.643 0 0 1-.584-.577.64.64 0 0 1 .041-.291c.154-.394 3.804-9.663 6.774-11.532a6.721 6.721 0 0 1 9.237 2.117 6.706 6.706 0 0 1-2.119 9.231h-.001c-1.607 1.006-5.215 1.245-8.277 1.245zm-4.1-1.403c3.232.201 9.709.322 11.698-.921a5.436 5.436 0 0 0 2.473-3.385 5.426 5.426 0 0 0-8.232-5.804c-1.972 1.241-4.702 7.117-5.939 10.11z"/><path fill="#FFDA2D" d="M437.953 263.262a5.916 5.916 0 0 1-1.726-.211 6.69 6.69 0 0 1-2.303-1.257 6.685 6.685 0 0 1-2.379-4.56 6.689 6.689 0 0 1 1.555-4.903 6.7 6.7 0 0 1 4.573-2.359 6.713 6.713 0 0 1 2.607.298c3.294 1.039 8.829 8.631 9.448 9.493a.644.644 0 0 1 .09.566.637.637 0 0 1-.4.41c-.343.118-7.364 2.523-11.465 2.523zm.319-12.026a5.434 5.434 0 0 0-5.385 4.585 5.424 5.424 0 0 0 3.723 6.013c2.239.699 8.487-1.029 11.567-2.026-1.944-2.597-6.056-7.62-8.28-8.321a5.4 5.4 0 0 0-1.625-.251z"/><path fill="#fff" d="M383.475 79.995a2.794 2.794 0 0 0-4.04-1.641 2.793 2.793 0 0 0 1.9 5.183"/><path fill="#3C4043" d="M383.69 131.777l-.047-.001a.643.643 0 0 1-.591-.683l1.064-14.671a.64.64 0 0 1 .925-.529.642.642 0 0 1 .319.373c.026.08.036.164.029.248l-1.063 14.672a.638.638 0 0 1-.636.591zM420.068 131.777a.636.636 0 0 1-.638-.638v-14.671a.637.637 0 1 1 1.276 0v14.671a.636.636 0 0 1-.638.638z"/><path fill="#FFBCA5" d="M379.647.57c-.687-.231-.242-.056-.225-.044l.191.179-.074.135-.664-.073.361.279-.569-.041.415.308-.773-.121.178.225.002.162.017.17-.212.098.737.43-.952-.186.541.36.162.224-.323.043-.028.151-.343.034.339.294.223.244-.531-.036.357.292-.483-.02.636.404-.63-.076.338.302-.811-.151.874.506-.286.054-.709-.112.526.368-.19.094-.507-.035.783.472-.141.108-.362.02.263.27-.481-.034-.109.12.611.41-.916-.205.168.232-.167.098.531.38-.711-.128.531.382-.249.064-.478-.032.352.307-.296.043.076.19.204.25.068.19-.001.166-.278.05.017.171-.085.131-.398-.004.033.18.504.38-.089.13-.074.135-.424-.015-.051.145c.024.067.069.141.1.21l-.278.046.599.429-.272.048.135.234-.353.01.073.2.061.192c.014.046-.273-.042.087.157.058.032-.021.034.768.384l.366.162.646.28.405.188c.036.018.074.03.113.039.05-.023-.046-.108-.061-.158l.072-.14-.061-.19.306-.03.399.005-.116-.221.344-.022-.125-.226c.011-.053.019-.107.024-.16l.19-.092-.346-.32.386-.004.294-.045-.205-.258.46.026-.005-.173-.077-.204.522.05-.346-.317-.297-.295.651.102c.048-.036.092-.076.14-.113l-.64-.434.746.14-.498-.375.127-.117.159-.105.489.03.15-.11-.601-.445-.017-.172.957.216-.639-.424.13-.118.723.127-.47-.349-.336-.302.953.208-.702-.446.603.065-.398-.324.735.125-.729-.453.556.048-.396-.322.725.11-.402-.324-.017-.176.849.132.03-.157-.085-.2-.724-.442.164-.107.702.108.203-.093-.806-.469.722.1-.474-.347.355-.035-.223-.245.06-.158.111-.127.584.045.154-.111.055-.148-.663-.406.396-.026.692.08-.04-.181a4.95 4.95 0 0 0-.254-.257l.414-.021-.605-.383.234.029.183.023c.022-.002.153.032-.11-.074-.264-.106-.92-.35-2.476-.891l-1.673-.574zM394.396 5.482c-.456-.554-.193-.18-.191-.169l-.002.106a.27.27 0 0 0 .008.085l.005.046-.158.127-.541-.346.124.483-.487-.282.141.5-.625-.448-.011.31-.126.17-.11.188-.263.003.362.764-.752-.583.236.6-.013.3-.335-.08-.14.15-.351-.098.114.444.034.347-.48-.243.118.446-.456-.22.322.67-.55-.315.136.457-.677-.461.487.859-.312-.043-.613-.372.259.588-.239.04-.461-.215.438.784-.194.071-.369-.1.083.392-.457-.19-.191.098.339.65-.777-.523.019.314-.227.056.289.59-.638-.352.293.589-.283.002-.451-.174.152.443-.318-.027-.04.248.054.34-.049.235-.103.182-.311-.022-.088.197-.164.122-.413-.113-.074.207.297.57-.169.118c-.052.043-.102.09-.152.135l-.432-.13-.134.154-.019.26-.332-.032.41.653-.313-.013.03.309c-.128-.026-.254-.05-.378-.071l-.02.254-.028.244c-.017.05-.242-.09.047.233.047.052-.019.05.609.61l.301.25.521.454c.136.13.282.25.437.357.078.002.052-.087.051-.155l.139-.137.027-.239.335.041.414.12-.017-.279c.12.024.245.05.36.069l-.04-.302.089-.183.23-.05-.197-.452.389.101.31.028-.082-.348.443.156.077-.193.022-.248.484.2-.18-.445-.139-.409.58.297.193-.079-.384-.657.652.38-.276-.561.192-.085.213-.06.459.19.206-.065-.351-.632.088-.189.797.55-.369-.666.193-.08.622.376-.254-.539-.143-.435.784.558-.404-.72.526.285-.182-.484.621.394-.401-.751.493.257-.176-.482.611.391-.176-.486.092-.187.691.49.126-.149.047-.238-.385-.725.221-.042.584.382.244-.01-.433-.805.594.402-.206-.544.346.112-.033-.344.141-.132.193-.079.496.297.212-.043.149-.12-.321-.688.373.153.561.39c.027-.064.058-.128.094-.188l-.034-.345.408.206-.264-.644c.065.05.135.107.186.138l.129.087c.015.01.101.092-.063-.145l-.176-.243-.303-.4-1.085-1.4c-.531-.7-.866-1.103-1.061-1.35zM397.244 19.354c-.213-.643-.093-.223-.091-.207l-.005.095c.004.043.011.116 0 .113l-.099.031-.274-.514.028.433-.25-.427.045.463-.308-.62-.033.24-.083.077-.078.098-.146-.113.129.743-.359-.78.072.565-.038.225-.177-.21-.092.052-.183-.231.015.387-.02.277-.247-.398.015.388-.224-.356.099.65-.256-.487.019.405-.32-.655.169.867-.167-.178-.288-.556.069.554-.135-.082-.229-.367.142.784-.123-.044-.188-.245-.009.318-.221-.352-.114-.016.093.631-.347-.744-.035.235-.132-.067.07.56-.287-.556.069.558-.155-.139-.221-.344.015.388-.165-.179-.059.158-.024.267-.062.142-.084.08-.161-.163-.078.096-.107.01-.198-.274-.074.112.052.53-.11.001-.105.01-.206-.302-.099.033-.059.16-.17-.192.093.631-.171-.19-.041.21-.198-.277-.063.142-.066.135c-.015.034-.132-.25-.031.141.006.066-.027.003.236.823l.125.378.22.673.14.414a.731.731 0 0 0 .042.11c.035.02.02-.11.035-.155l.095-.042.054-.175.17.188.198.278.038-.223.177.212.038-.226.083-.082.134.076-.018-.402.191.257.165.178.024-.27.214.325.081-.09.06-.154.23.379-.015-.388-.003-.348.266.493.125.045-.096-.645.298.588-.051-.528.119.03.128.06.224.355.126.052-.088-.618.081-.09.359.775-.1-.65.12.035.291.567-.051-.51-.013-.389.359.775-.118-.713.253.456-.031-.439.296.58-.126-.735.249.42-.031-.437.294.572-.034-.442.078-.095.329.684.093-.052.059-.156-.125-.731.131.069.287.555.144.105-.148-.805.293.573-.049-.498.188.243.023-.271.098-.039.117.022.252.45.129.061.101-.027-.106-.675.2.282.29.555.077-.1.017-.289.216.335-.09-.621.095.185.072.137c.001.017.053.123-.013-.133-.067-.256-.263-.877-.724-2.309l-.526-1.528z"/><path fill="#fff" d="M58.406 79.573a24.748 24.748 0 0 0-14.224-.319 24.725 24.725 0 0 0-12.044 7.566A24.674 24.674 0 0 0 28.5 113.8l31.586-2.794-1.68-31.433z"/><path fill="#3C4043" d="M28.499 114.443c.019 0 .038 0 .057-.003l31.586-2.793a.647.647 0 0 0 .587-.676l-1.68-31.432a.643.643 0 0 0-.444-.579 25.392 25.392 0 0 0-14.594-.327 25.37 25.37 0 0 0-12.359 7.762 25.318 25.318 0 0 0-3.733 27.683.648.648 0 0 0 .58.365zm30.909-4.025l-30.518 2.698a23.794 23.794 0 0 1-2.205-10.066 24.041 24.041 0 0 1 9.756-19.318 24.097 24.097 0 0 1 21.344-3.679l1.623 30.365z"/><path fill="#fff" d="M64.906 85.997c2.107-.344 4.85-.774 7.216-3.137l3.656-4.511 3.288 2.594c-.666-2.514-1.72-4.727-3.85-6.209a11.287 11.287 0 0 0-16.116 3.46 11.26 11.26 0 0 0-1.604 5.864v.752l.648-.444c.294-.301.475-.263.86-.43 1.403-.611 2.935-.4 4.327.312a3.366 3.366 0 0 1 1.575 1.75v-.001z"/><path fill="#3C4043" d="M64.905 86.642c.035 0 .07-.003.104-.009l.055-.008c2.119-.344 5.021-.817 7.514-3.308a.77.77 0 0 0 .045-.05l3.254-4.017 2.789 2.199a.645.645 0 0 0 1.023-.671c-.518-1.955-1.508-4.765-4.104-6.572a11.933 11.933 0 0 0-17.04 3.657 11.905 11.905 0 0 0-1.694 6.2v.747a.644.644 0 0 0 1.01.531l.648-.445a.636.636 0 0 0 .094-.08.495.495 0 0 1 .282-.151c.128-.04.253-.086.376-.138 1.428-.622 2.841-.183 3.775.295.58.304 1.032.806 1.27 1.416a.644.644 0 0 0 .6.404zm6.736-4.212c-2.045 2.027-4.397 2.525-6.364 2.853a3.969 3.969 0 0 0-1.653-1.608c-1.671-.856-3.404-.972-4.88-.33a2.576 2.576 0 0 1-.254.092c-.117.035-.232.079-.343.132a10.617 10.617 0 0 1 5.888-9.094 10.645 10.645 0 0 1 10.813.79c1.287.894 2.228 2.117 2.936 3.846l-1.607-1.267a.645.645 0 0 0-.901.1L71.64 82.43z"/><path fill="#FFF1ED" d="M6.102 175.556c0-.016 3.53 21.258 7.119 31.46l9.012-28.338-16.13-3.122z"/><path fill="#3C4043" d="M13.22 207.66h.01a.65.65 0 0 0 .606-.449l9.013-28.338a.646.646 0 0 0-.493-.828l-16.13-3.122a.646.646 0 0 0-.757.754l.012.068c.61 3.608 3.824 22.081 7.132 31.484a.643.643 0 0 0 .608.431zm8.18-28.487l-8.192 25.755c-2.844-9.058-5.508-23.896-6.312-28.561l14.503 2.806z"/><path fill="#fff" d="M47.86 112.261a24.757 24.757 0 0 0-22.3 3.359 24.699 24.699 0 0 0-10.297 20.042l32.596-23.401z"/><path fill="#3C4043" d="M15.263 136.306a.644.644 0 0 0 .377-.121l32.595-23.4a.644.644 0 0 0-.17-1.135 25.392 25.392 0 0 0-22.88 3.447 25.347 25.347 0 0 0-10.567 20.565.644.644 0 0 0 .645.644zm31.163-23.81L15.942 134.38a24.063 24.063 0 0 1 9.995-18.236 24.092 24.092 0 0 1 20.49-3.648z"/><path fill="#FFF1ED" d="M110.293 121.784c-.1-.757-.495-5.011-.836-9.269l.443-15.534c1.317-7.192 3.918-14.84 6.801-14.06 2.645.708.731 5.263-.56 14.2 2.517-7.713 4.925-13.19 7.57-12.138 2.624 1.052.043 8.83-1.957 14.759 2.99-3.158 6.882-7.605 8.775-6.467 2.709 1.633-.452 5.564-2.28 8.357-4.065 6.23-1.591 8.873-.151 13.363.968 2.986-.451 6.38-2.881 9.775"/><path fill="#3C4043" d="M125.217 125.414a.638.638 0 0 0 .525-.269c2.93-4.092 3.901-7.476 2.971-10.349a39.245 39.245 0 0 0-.852-2.325c-1.288-3.287-2.218-5.662.929-10.487.209-.318.435-.652.667-.996 1.465-2.162 3.125-4.611 2.703-6.532a2.644 2.644 0 0 0-1.297-1.732c-1.908-1.15-4.725 1.462-7.58 4.457 2.113-6.546 3.293-11.743.669-12.796a2.369 2.369 0 0 0-1.951.07c-1.313.614-2.566 2.36-3.993 5.688.385-2.05.672-3.695.665-4.912-.004-.607-.014-2.453-1.804-2.933a2.323 2.323 0 0 0-1.9.333c-3.248 2.046-5.186 11.412-5.703 14.234a.64.64 0 0 0-.01.098l-.444 15.535a.55.55 0 0 0 .002.07c.334 4.161.732 8.491.838 9.3a.642.642 0 0 0 .245.433.656.656 0 0 0 .72.048.638.638 0 0 0 .301-.396.655.655 0 0 0 .014-.253c-.094-.705-.482-4.874-.83-9.201l.441-15.45c1.277-6.946 3.283-12.174 5.114-13.328a1.028 1.028 0 0 1 .875-.178c1.288.345.953 2.418.073 7.073-.349 1.847-.745 3.944-1.102 6.413a.644.644 0 0 0 .955.653.643.643 0 0 0 .297-.361c1.485-4.553 3.702-10.72 5.793-11.7a1.098 1.098 0 0 1 .925-.039c2.094.84-.894 9.698-2.33 13.955a.642.642 0 0 0 .279.758.65.65 0 0 0 .801-.11c.259-.273.524-.556.795-.844 2.205-2.35 5.897-6.285 7.178-5.513a1.377 1.377 0 0 1 .704.905c.304 1.38-1.257 3.682-2.511 5.533-.237.35-.467.689-.68 1.014-3.51 5.381-2.37 8.291-1.05 11.661.279.716.571 1.458.825 2.251.796 2.457-.117 5.467-2.792 9.203a.645.645 0 0 0 .525 1.02v-.001z"/><path fill="#FFF1ED" d="M118.27 116.1c-.045-3.789-2.686-7.046-4.256-11.038-2.194-5.532-4.087-8.873-5.482-9.07-3.206-.428.808 13.155 1.444 21.243"/><path fill="#3C4043" d="M109.974 117.88c.017 0 .034 0 .052-.002a.637.637 0 0 0 .563-.443.641.641 0 0 0 .029-.25c-.216-2.755-.817-6.113-1.395-9.36-.814-4.56-1.828-10.234-.947-11.154.028-.029.054-.056.17-.04.375.053 1.861.839 4.967 8.669a42.371 42.371 0 0 0 1.83 3.874c1.21 2.349 2.353 4.568 2.38 6.934a.647.647 0 0 0 .646.637h.007a.636.636 0 0 0 .454-.194.633.633 0 0 0 .184-.458c-.031-2.67-1.242-5.02-2.524-7.509a41.134 41.134 0 0 1-1.776-3.757c-3.212-8.098-4.889-9.316-5.992-9.473a1.435 1.435 0 0 0-1.277.426c-1.269 1.325-.596 5.526.608 12.271.574 3.217 1.167 6.543 1.379 9.235a.646.646 0 0 0 .642.594z"/><path fill="#E7F1FF" d="M17.82 252.208c-.135 6.976-1.623 14.291-7.285 15.854-5.763 1.59-9.613 6.811-9.161 12.826l27.72-.194 11.248-17.659-.086 17.659h8.946l.043-28.637-31.424.151z"/><path fill="#3C4043" d="M1.374 281.532h.005l27.72-.193a.65.65 0 0 0 .54-.299l10.047-15.774-.075 15.425a.643.643 0 0 0 .645.647h8.947a.645.645 0 0 0 .645-.644l.043-28.637a.645.645 0 0 0-.645-.645h-.004l-31.424.15a.647.647 0 0 0-.642.633c-.174 8.916-2.466 14.046-6.812 15.246C4.223 269.134.262 274.684.73 280.936a.644.644 0 0 0 .643.596zm27.365-1.48l-26.751.187c-.135-5.382 3.378-10.082 8.72-11.555 4.851-1.34 7.455-6.666 7.741-15.835l30.15-.144-.041 27.345h-7.654l.083-17.012a.643.643 0 0 0-.872-.606.643.643 0 0 0-.318.257L28.74 280.052z"/><path fill="#FFED96" stroke="#3C4043" d="M18.586 128.091l.002-.001 34.887-22.599.144-.079a14.914 14.914 0 0 1 3.249-1.316c-.146 2.559 1.286 5.274 3.432 6.611h0c2.06 1.282 4.202.868 5.858-.331 1.446-1.047 2.561-2.711 3.018-4.455 2.06 1.213 3.997 2.857 5.783 4.851 11.63 12.987 17.462 19.465 20.388 22.697 1.463 1.616 2.2 2.421 2.572 2.823a23.399 23.399 0 0 0 .39.414l.01.009a.455.455 0 0 0 .096.07.49.49 0 0 0 .299.061.947.947 0 0 0 .135-.034c.077-.04.146-.092-.189-.463l.335.371.093-.083.043-.118 7.27-20.09 23.318 8.426-9.765 26.942h0a20.791 20.791 0 0 1-16.528 13.511c-1.016.15-2.041.227-3.068.231a20.813 20.813 0 0 1-6.428-1.021 7.264 7.264 0 0 0-.092-.313 26.39 26.39 0 0 0-.38-1.098 123.25 123.25 0 0 0-1.34-3.454 382.765 382.765 0 0 0-4.16-9.89c-1.552-3.553-3.16-7.098-4.493-9.813-.666-1.357-1.267-2.514-1.76-3.364-.245-.424-.47-.781-.666-1.051a3.625 3.625 0 0 0-.288-.355 1.254 1.254 0 0 0-.33-.263s0 0 0 0l-.228.445-61.607-7.271zm0 0a12.451 12.451 0 0 0-5.5 8.138l-7.54 39.958 14.913 2.726c.538-1.208 1.569-3.093 2.83-5.283 1.406-2.445 3.118-5.302 4.797-8.088l1.208-2.003a793.832 793.832 0 0 0 3.404-5.669 126.86 126.86 0 0 0 1.604-2.773c.402-.723.661-1.229.766-1.494l1.38-7.314.04-.212.182-.116 4.8-3.074-22.884-14.796z"/><path fill="#3C4043" d="M44.233 135.962a.648.648 0 0 0 .615-.449.64.64 0 0 0 .026-.268 10.816 10.816 0 0 1 .832-5.644 11.746 11.746 0 0 0 .888-6.176.642.642 0 0 0-.717-.563.645.645 0 0 0-.564.716 10.475 10.475 0 0 1-.79 5.506 12.086 12.086 0 0 0-.93 6.306.646.646 0 0 0 .64.572zM81.05 135.962c.019 0 .039 0 .059-.003a.645.645 0 0 0 .584-.701c-.28-3.037-1.47-5.749-2.42-7.489a18.94 18.94 0 0 1-2.164-6.688.646.646 0 0 0-1.28.158 20.21 20.21 0 0 0 2.309 7.145c.893 1.636 2.01 4.175 2.269 6.993a.646.646 0 0 0 .642.585z"/><path fill="#E7F1FF" d="M124.146 245.999c-.602 8.1 1.398 20.474 14.753 22.493 5.914.903 9.613 6.166 9.161 12.181l-33.677.022-12.968-17.015.086 16.8h-8.946l-.043-21.966 31.634-12.515z"/><path fill="#3C4043" d="M114.382 281.339l33.677-.021a.648.648 0 0 0 .643-.596c.491-6.523-3.592-11.934-9.707-12.867-14.127-2.136-14.641-15.962-14.206-21.808a.647.647 0 0 0-.882-.647l-31.635 12.515a.642.642 0 0 0-.408.601l.043 21.966a.645.645 0 0 0 .645.643h8.946a.641.641 0 0 0 .645-.648l-.076-14.873 11.801 15.481a.652.652 0 0 0 .514.254zm33.065-1.31l-32.746.021-12.774-16.76a.641.641 0 0 0-.721-.22.645.645 0 0 0-.437.614l.082 16.152h-7.654l-.04-20.884 30.285-11.981c-.139 3.17.08 8.288 2.264 12.834 2.525 5.255 6.931 8.392 13.095 9.324 5.244.801 8.803 5.337 8.646 10.9z"/><path fill="#fff" d="M83.603 141.334l41.936 103.871-34.108 13.749-30.406-75.332-11.013 19.197v49.239H13.216V197.77c0-.452.03-.903.089-1.352l6.166-14.468 23.122-40.616h41.01z"/><path fill="#FFF1ED" d="M402.751 82.433a5.35 5.35 0 0 1 4.384-4.65 5.369 5.369 0 0 1 5.723 2.851 5.344 5.344 0 0 1-1.085 6.293 5.368 5.368 0 0 1-6.349.776"/><path fill="#FFF1ED" d="M407.248 101.973a6.18 6.18 0 0 1-1.777 4.348 6.2 6.2 0 0 1-8.703.132 6.18 6.18 0 0 1-1.909-4.293v-.008l-.024-.876-.095-3.439a9.8 9.8 0 0 1-4.262-2.42 9.778 9.778 0 0 1-2.757-9.072 9.777 9.777 0 0 1 2.196-4.378 9.74 9.74 0 0 1-.614-2.26v-.004a9.721 9.721 0 0 1 .84-5.656l5.354-.78 7.016.998 1.505 4.169 2.339-1.502"/><path fill="#222433" d="M401.043 108.666a6.696 6.696 0 0 1-4.661-1.892 6.676 6.676 0 0 1-2.025-4.599l-.109-3.959a10.3 10.3 0 0 1-6.814-6.867 10.268 10.268 0 0 1 1.908-9.478 10.392 10.392 0 0 1 .347-8.038.509.509 0 0 1 .38-.28l5.354-.78a.504.504 0 0 1 .143 0l7.016.998a.496.496 0 0 1 .401.326l1.292 3.577 1.809-1.162a.498.498 0 0 1 .559.008.507.507 0 0 1 .204.519.495.495 0 0 1-.221.315l-2.339 1.502a.5.5 0 0 1-.742-.251l-1.403-3.886-6.647-.945-5.012.73a9.22 9.22 0 0 0-.686 5.125l.003.02c.108.73.303 1.446.581 2.13a.501.501 0 0 1-.087.517 9.257 9.257 0 0 0-1.89 8.795 9.273 9.273 0 0 0 2.422 3.966 9.3 9.3 0 0 0 4.044 2.297.503.503 0 0 1 .37.47l.119 4.315a5.681 5.681 0 0 0 1.752 3.947 5.705 5.705 0 0 0 8-.116 5.68 5.68 0 0 0 1.635-3.997.498.498 0 0 1 .502-.5c.132 0 .26.053.354.146a.505.505 0 0 1 .147.354 6.641 6.641 0 0 1-1.881 4.677 6.659 6.659 0 0 1-4.629 2.014l-.196.002z"/><mask id="a" fill="#fff"><path d="M409.24 77.724a10.24 10.24 0 0 0-2.506-6.202 10.27 10.27 0 0 0-12.436-2.389 10.256 10.256 0 0 0-4.633 4.83.471.471 0 0 0 .028.443.471.471 0 0 0 .386.22l10.908.276a1.537 1.537 0 0 1 1.49 1.56l-.139 5.975s1.305-2.5 1.982-3.136c2.426-2.275 4.92-1.577 4.92-1.577z"/></mask><path fill="#fff" d="M409.24 77.724a10.24 10.24 0 0 0-2.506-6.202 10.27 10.27 0 0 0-12.436-2.389 10.256 10.256 0 0 0-4.633 4.83.471.471 0 0 0 .028.443.471.471 0 0 0 .386.22l10.908.276a1.537 1.537 0 0 1 1.49 1.56l-.139 5.975s1.305-2.5 1.982-3.136c2.426-2.275 4.92-1.577 4.92-1.577z"/><path fill="#3C4043" d="M409.24 77.724l-.27.963 1.339.375-.071-1.389-.998.051zm-19.575-3.76l-.908-.42.908.42zm.414.663l-.025 1 .025-1zm10.908.275l.03-1h-.004l-.026 1zm1.49 1.56l.999.023v-.005l-.999-.018zm-.139 5.975l-1-.024 1.887.486-.887-.462zm1.982-3.136l-.684-.729h-.001l.685.73zm5.918-1.628a11.237 11.237 0 0 0-2.75-6.808l-1.508 1.314a9.243 9.243 0 0 1 2.261 5.596l1.997-.102zm-2.75-6.808a11.271 11.271 0 0 0-6.37-3.662l-.378 1.964a9.27 9.27 0 0 1 5.24 3.012l1.508-1.314zm-6.37-3.662a11.282 11.282 0 0 0-7.277 1.04l.913 1.78a9.28 9.28 0 0 1 5.986-.856l.378-1.964zm-7.277 1.04a11.255 11.255 0 0 0-5.084 5.302l1.816.837a9.255 9.255 0 0 1 4.181-4.36l-.913-1.779zm-5.084 5.302a1.47 1.47 0 0 0-.132.706l1.996-.126a.527.527 0 0 1-.048.257l-1.816-.837zm-.132.706c.015.243.091.478.22.685l1.696-1.059c.047.075.074.16.08.248l-1.996.126zm.22.685c.128.206.306.377.517.498l.992-1.737a.527.527 0 0 1 .187.18l-1.696 1.059zm.517.498c.211.12.449.186.692.193l.05-2a.53.53 0 0 1 .25.07l-.992 1.737zm.692.193l10.908.274.051-1.999-10.909-.275-.05 2zm10.904.274a.537.537 0 0 1 .372.166l1.446-1.381a2.534 2.534 0 0 0-1.759-.784l-.059 2zm.372.166a.533.533 0 0 1 .147.376l1.999.037a2.526 2.526 0 0 0-.7-1.794l-1.446 1.38zm.147.372l-.139 5.974 2 .047.138-5.975-1.999-.046zm.861 5.998l.887.463v-.002l.003-.004.01-.02.04-.077.153-.283c.13-.239.309-.562.508-.903.2-.343.415-.695.616-.994.214-.319.369-.511.449-.587l-1.369-1.458c-.258.243-.519.6-.74.93-.234.348-.473.74-.684 1.101a39.966 39.966 0 0 0-.758 1.368l-.001.002.886.464zm2.666-2.406c1.038-.974 2.061-1.29 2.803-1.378.377-.045.687-.031.896-.008.104.011.181.025.228.034l.045.01h.004-.006l-.002-.001h-.001l.269-.964.268-.963h-.001l-.002-.001-.006-.002-.014-.003a4.675 4.675 0 0 0-.564-.098 5.967 5.967 0 0 0-1.349.01c-1.112.131-2.549.604-3.936 1.905l1.368 1.459z" mask="url(#a)"/><path fill="#222433" d="M407.25 102.473a.502.502 0 0 1-.501-.495l-.146-13.573a.485.485 0 0 1 .143-.355.494.494 0 0 1 .352-.15.5.5 0 0 1 .507.494l.146 13.573a.504.504 0 0 1-.304.466.508.508 0 0 1-.192.04h-.005zM397.469 82.152a1.032 1.032 0 1 0 .001-2.065 1.032 1.032 0 0 0-.001 2.065zM390.256 82.124a1.032 1.032 0 1 0 .001-2.065 1.032 1.032 0 0 0-.001 2.065zM392.152 84.596a.503.503 0 0 1-.493-.59l.8-4.382a.502.502 0 0 1 .986.18l-.685 3.755 2.138-.125a.504.504 0 0 1 .53.47.5.5 0 0 1-.471.529l-2.774.162h-.031z"/><path fill="#222433" d="M408.135 88.918a5.871 5.871 0 0 1-2.902-.766.513.513 0 0 1-.237-.303.514.514 0 0 1 .048-.381.509.509 0 0 1 .304-.235.505.505 0 0 1 .382.05 4.867 4.867 0 0 0 2.405.634h.003a4.867 4.867 0 0 0 3.437-1.422 4.852 4.852 0 0 0 1.423-3.432 4.852 4.852 0 0 0-1.425-3.43 4.865 4.865 0 0 0-3.438-1.421h-.002a4.86 4.86 0 0 0-3.233 1.227 4.844 4.844 0 0 0-1.594 3.066.5.5 0 1 1-.996-.114 5.844 5.844 0 0 1 1.923-3.699 5.863 5.863 0 0 1 3.9-1.481h.003c1.555 0 3.046.616 4.146 1.713a5.846 5.846 0 0 1 .002 8.278 5.87 5.87 0 0 1-4.146 1.716h-.003z"/><path fill="#222433" d="M409.854 84.74a.5.5 0 0 1-.17-.03l-3.438-1.236a.504.504 0 0 1-.246-.749.496.496 0 0 1 .232-.187l3.216-1.267a.504.504 0 0 1 .697.472.51.51 0 0 1-.329.458l-1.982.782 2.189.786a.504.504 0 0 1 .324.557.5.5 0 0 1-.494.415l.001-.001zM393.338 89.465a2.779 2.779 0 0 1-1.387-.355c-.796-.459-1.235-1.294-1.236-2.353a.5.5 0 0 1 1.002 0c0 .696.254 1.21.734 1.486.557.32 1.36.29 1.997-.078a1.764 1.764 0 0 0 .921-1.566.5.5 0 0 1 .856-.354.499.499 0 0 1 .146.354 2.745 2.745 0 0 1-1.422 2.432 3.24 3.24 0 0 1-1.611.434z"/><path fill="#3C4043" d="M91.431 259.599a.645.645 0 0 0 .242-.047l34.107-13.749a.645.645 0 0 0 .357-.838L84.201 141.093a.646.646 0 0 0-.598-.403h-41.01a.648.648 0 0 0-.562.326L18.91 181.631a.78.78 0 0 0-.033.066l-6.166 14.469a.646.646 0 0 0-.048.189l-.027.266a9.057 9.057 0 0 0-.065 1.149v54.288a.645.645 0 0 0 .646.645H50.01a.645.645 0 0 0 .646-.645V202.99l10.267-17.895 29.909 74.1a.646.646 0 0 0 .598.404zm33.269-14.751l-32.911 13.267-30.166-74.734a.641.641 0 0 0-.554-.402.64.64 0 0 0-.604.322l-11.013 19.197a.646.646 0 0 0-.086.321v48.595H13.86V197.77c-.002-.34.017-.679.058-1.017l.017-.172 6.114-14.345 22.919-40.258h40.2l41.532 102.87z"/><path fill="#FFF1ED" d="M11.095 187.629c.624 2.793 2.774 10.978 3.441 12.847.688 1.955 4.366 2.428 3.592-2.771-1.72-11.665 2.172-11.236 1.225-16.757"/><path fill="#3C4043" d="M16.404 202.49c.18.001.361-.021.537-.064.575-.142 2.404-.91 1.823-4.815-.986-6.688-.09-9.291.629-11.382.544-1.58 1.013-2.943.594-5.389a.649.649 0 0 0-.745-.529.646.646 0 0 0-.527.747c.364 2.119-.036 3.281-.542 4.752-.765 2.223-1.718 4.991-.686 11.99.335 2.249-.222 3.218-.856 3.375-.572.142-1.267-.285-1.488-.912-.667-1.872-2.807-10.029-3.42-12.773a.643.643 0 0 0-.766-.472.649.649 0 0 0-.493.752c.619 2.77 2.785 11.021 3.463 12.923a2.697 2.697 0 0 0 2.477 1.797zM41.01 143.492l.56.319-5.785 10.161-.56-.318 5.785-10.162z"/><path fill="#fff" d="M81.026 135.318H44.23l-1.634 6.016h41.01l-2.58-6.016z"/><path fill="#3C4043" d="M42.594 141.978h41.01a.652.652 0 0 0 .54-.29.641.641 0 0 0 .054-.609l-2.58-6.015a.642.642 0 0 0-.594-.391H44.228a.646.646 0 0 0-.622.476l-1.635 6.015a.644.644 0 0 0 .624.814h-.001zm40.032-1.289H43.437l1.285-4.727h35.877l2.027 4.727z"/><path fill="#FFF1ED" d="M64.912 85.997a4.62 4.62 0 0 0-3.48-2.472 4.63 4.63 0 0 0-4.023 1.429 4.617 4.617 0 0 0 1.584 7.4l.08.03c.085.813.238 1.617.458 2.404l-2.208 9.217a5.566 5.566 0 0 0 2.15 5.809 5.574 5.574 0 0 0 4.154.993 5.58 5.58 0 0 0 4.55-4.208l1.096-4.572a10.788 10.788 0 0 0 4.602-.828 10.79 10.79 0 0 0 6.53-11.405 10.694 10.694 0 0 0-1.214-3.683c.107-.47.183-.949.225-1.43.064-.802.043-1.609-.064-2.406-.063-.457-.156-.91-.28-1.354l-3.288-2.57c-1.936 2.363-3.051 3.48-6.667 5.586-1.616.94-2.939 1.716-4.206 2.06z"/><path fill="#3C4043" d="M62.75 111.523a6.239 6.239 0 0 0 6.054-4.773l.975-4.069a11.441 11.441 0 0 0 11.265-12.974 11.322 11.322 0 0 0-1.174-3.69c.087-.422.15-.85.188-1.279.069-.849.046-1.702-.068-2.546a10.711 10.711 0 0 0-.299-1.447.644.644 0 0 0-.222-.33l-3.289-2.572a.645.645 0 0 0-.897.1c-1.881 2.299-2.929 3.362-6.492 5.437l-.057.033c-1.369.797-2.488 1.45-3.524 1.816a5.266 5.266 0 0 0-4.029-2.377 5.273 5.273 0 0 0-5.472 3.875 5.259 5.259 0 0 0 2.772 6.102c.08.67.207 1.333.38 1.984l-2.166 9.042a6.217 6.217 0 0 0 3.34 7.044c.845.41 1.774.623 2.715.624zm6.521-10.139a.649.649 0 0 0-.627.494l-1.095 4.572a4.93 4.93 0 0 1-2.224 3.033 4.934 4.934 0 0 1-7.376-5.328l2.208-9.216a.647.647 0 0 0-.017-.36 14.155 14.155 0 0 1-.427-2.262.672.672 0 0 0-.405-.531l-.08-.032a3.978 3.978 0 0 1-2.267-4.72 3.974 3.974 0 0 1 4.385-2.87 3.98 3.98 0 0 1 2.99 2.127.645.645 0 0 0 .744.328c1.333-.362 2.71-1.164 4.303-2.092l.058-.034c3.466-2.019 4.716-3.184 6.439-5.247l2.624 2.052c.088.352.157.709.207 1.069.101.75.121 1.509.06 2.263-.04.45-.11.898-.211 1.34a.644.644 0 0 0 .063.45 10.127 10.127 0 0 1-4.172 13.794 10.156 10.156 0 0 1-5.155 1.17h-.025z"/><path fill="#3C4043" d="M69.22 102.685a.657.657 0 0 0 .461-.177.644.644 0 0 0-.426-1.112 10.246 10.246 0 0 1-5.058-1.636.646.646 0 0 0-.889.901c.048.07.109.13.18.176a11.517 11.517 0 0 0 5.732 1.848zM62.152 89.817a.645.645 0 0 0 .499-1.052l-2.373-2.892a.646.646 0 0 0-.999.817l1.369 1.667-1.653-.183a.646.646 0 0 0-.58 1.045.644.644 0 0 0 .438.236l3.227.358a.62.62 0 0 0 .072.004zM77.029 92.974c.13 0 .256-.04.363-.112l2.237-1.526a.645.645 0 0 0 .18-.879l-2.58-4.039a.645.645 0 0 0-1.089.694l2.245 3.512-1.721 1.173a.645.645 0 0 0 .365 1.177zM72.638 88.538a.794.794 0 1 1 1.197-1.048.794.794 0 1 1-1.197 1.048zM78.552 88.25a.794.794 0 1 1 1.197-1.047.794.794 0 1 1-1.197 1.047zM75.44 96.232c.748 0 1.468-.28 2.02-.784l.327-.306a.644.644 0 1 0-.88-.942l-.323.3a1.694 1.694 0 0 1-1.952.235 1.62 1.62 0 0 1-.51-.449l-.066-.088a.644.644 0 0 0-1.032.774l.065.086a2.931 2.931 0 0 0 2.351 1.174z"/><path fill="#fff" d="M360.819 22.548h-24.754a21.452 21.452 0 0 0-15.16 6.273 21.407 21.407 0 0 0-6.279 15.143c0 5.68 2.259 11.127 6.279 15.144a21.452 21.452 0 0 0 15.16 6.272h24.754c.275 0 .525 0 .783-.013a6.239 6.239 0 0 1 4.986 2.155l6.259 7.3a1.312 1.312 0 0 0 2.072-.105c.153-.22.236-.48.236-.748V62.437a6.215 6.215 0 0 1 1.606-4.157 21.324 21.324 0 0 0 5.497-14.305 21.406 21.406 0 0 0-6.272-15.147 21.438 21.438 0 0 0-15.156-6.28h-.011z"/><path fill="#3C4043" d="M373.841 76.102a2.124 2.124 0 0 1-1.623-.741l-6.261-7.304a5.368 5.368 0 0 0-4.324-1.867c-.271.014-.537.014-.818.014h-24.754a22.275 22.275 0 0 1-15.743-6.514 22.23 22.23 0 0 1-6.521-15.726 22.23 22.23 0 0 1 6.521-15.726 22.275 22.275 0 0 1 15.743-6.514h24.765a22.281 22.281 0 0 1 12.118 3.59 22.245 22.245 0 0 1 8.208 9.6 22.221 22.221 0 0 1-3.784 23.918 5.385 5.385 0 0 0-1.392 3.606v11.53a2.138 2.138 0 0 1-2.135 2.133zm-11.977-11.565a7.018 7.018 0 0 1 5.344 2.447l6.261 7.303a.477.477 0 0 0 .332.166.48.48 0 0 0 .356-.117.485.485 0 0 0 .17-.369v-11.53a7.026 7.026 0 0 1 1.817-4.71 20.576 20.576 0 0 0-4.099-31.032 20.63 20.63 0 0 0-11.219-3.323l-.011-.824v.824h-24.754a20.625 20.625 0 0 0-14.577 6.03 20.581 20.581 0 0 0-6.038 14.562c0 5.461 2.172 10.7 6.038 14.561a20.625 20.625 0 0 0 14.577 6.031h24.754c.269 0 .503 0 .739-.012.104-.005.206-.007.31-.007z"/><path fill="#fff" d="M111.259 24.824h24.754a21.452 21.452 0 0 1 15.16 6.273 21.407 21.407 0 0 1 6.279 15.143c0 5.68-2.259 11.127-6.279 15.144a21.452 21.452 0 0 1-15.16 6.272h-24.754c-.275 0-.525 0-.783-.014a6.24 6.24 0 0 0-4.986 2.156l-6.258 7.3a1.314 1.314 0 0 1-2.31-.853V64.713a6.215 6.215 0 0 0-1.605-4.157 21.319 21.319 0 0 1-5.497-14.305 21.398 21.398 0 0 1 6.272-15.147 21.436 21.436 0 0 1 15.156-6.28h.011z"/><path fill="#3C4043" d="M98.237 78.377a2.126 2.126 0 0 0 1.623-.741l6.261-7.303a5.369 5.369 0 0 1 4.324-1.867c.272.014.537.014.819.014h24.753a22.275 22.275 0 0 0 15.743-6.514 22.225 22.225 0 0 0 0-31.452A22.275 22.275 0 0 0 136.017 24h-24.764a22.28 22.28 0 0 0-12.119 3.59 22.243 22.243 0 0 0-8.208 9.6 22.216 22.216 0 0 0 3.784 23.918 5.383 5.383 0 0 1 1.392 3.606v11.53a2.136 2.136 0 0 0 2.135 2.133zm11.977-11.564a7.021 7.021 0 0 0-5.344 2.447l-6.26 7.303a.484.484 0 0 1-.523.144.488.488 0 0 1-.336-.463V64.712a7.029 7.029 0 0 0-1.817-4.71 20.57 20.57 0 0 1-3.5-22.143 20.598 20.598 0 0 1 7.599-8.889 20.632 20.632 0 0 1 11.22-3.324l.01-.823v.823h24.754c5.468 0 10.711 2.17 14.577 6.032a20.581 20.581 0 0 1 6.038 14.56c0 5.462-2.172 10.7-6.038 14.562a20.625 20.625 0 0 1-14.577 6.031h-24.753c-.27 0-.503 0-.74-.012a7.251 7.251 0 0 0-.31-.007z"/><path fill="#FFDA2D" d="M284.027.41l4.259 1.535L188.24 279.55l-4.259-1.534z"/><path fill="#07377F" d="M343.049 53h8.079c4.247 0 6.509-2.216 6.509-5.226 0-2.797-2.004-4.487-4.155-4.589v-.184c1.967-.444 3.416-1.838 3.416-4.063 0-2.834-2.105-4.847-6.278-4.847h-7.571V53zm3.998-3.269V44.71h3.351c1.921 0 3.112 1.108 3.112 2.668 0 1.422-.97 2.354-3.204 2.354h-3.259zm0-7.727v-4.682h3.037c1.773 0 2.779.914 2.779 2.281 0 1.496-1.218 2.4-2.853 2.4h-2.963zM120.381 55.276l1.404-4.312h6.823l1.403 4.312h4.284l-6.518-18.91h-5.152l-6.528 18.91h4.284zm2.419-7.433l2.327-7.155h.148l2.326 7.155H122.8z"/><path fill="#FFF1ED" d="M26.53 240.477l2.69 5.016-4.502-2.097 1.811-2.919zM23.412 201.51l-4.985-7.046.559-2.041 8.998-.827-4.572 9.914zM52.196 147.424l-1.057 7.111-4.858-3.861 5.915-3.25z"/><path fill="#E7F1FF" d="M60.121 157.821l-.18.227c-4.997 6.276-14.168 7.316-20.445 2.318a14.492 14.492 0 0 1-3.488-4.022.797.797 0 1 1 1.375-.806 12.918 12.918 0 0 0 3.106 3.582c5.59 4.45 13.756 3.524 18.205-2.064l.18-.226a12.926 12.926 0 0 0 1.673-13.37.796.796 0 1 1 1.455-.651 14.513 14.513 0 0 1-1.88 15.012zM106.981 251.045l-.016.003-.283.053c-7.878 1.488-15.497-3.713-16.984-11.593-1.488-7.88 3.711-15.5 11.589-16.987l.284-.054.007-.001a14.58 14.58 0 0 1 14.568 5.889.798.798 0 0 1-1.301.921 12.983 12.983 0 0 0-12.972-5.244l-.006.001-.284.054c-7.015 1.324-11.644 8.109-10.32 15.126 1.325 7.016 8.109 11.647 15.123 10.322l.285-.053a12.947 12.947 0 0 0 7.328-4.184.796.796 0 1 1 1.199 1.05 14.553 14.553 0 0 1-8.217 4.697z"/><path fill="#FFF1ED" d="M102.323 242.677l-2.026-10.736 10.305 3.615-8.279 7.121z"/><path fill="#E7F1FF" d="M14.328 206.543a.797.797 0 0 1 1.24-.731 12.931 12.931 0 0 0 8.437 2.165c7.114-.654 12.367-6.969 11.713-14.077l-.026-.289a12.915 12.915 0 0 0-13.545-11.742.797.797 0 0 1-.08-1.592 14.505 14.505 0 0 1 15.212 13.188l.026.288c.734 7.983-5.165 15.076-13.15 15.81a14.526 14.526 0 0 1-9.48-2.433.794.794 0 0 1-.347-.587zM40.867 247.378l-.01.287c-.025.809-.118 1.622-.277 2.415a.796.796 0 1 1-1.563-.313c.142-.707.225-1.432.248-2.153l.01-.287c.224-7.136-5.4-13.125-12.538-13.349a12.903 12.903 0 0 0-10.945 5.411.798.798 0 0 1-1.297-.926 14.496 14.496 0 0 1 12.293-6.078c8.015.253 14.331 6.978 14.079 14.993zM82.118 197.654a14.442 14.442 0 0 1-4.094-10.337A14.45 14.45 0 0 1 82.44 177.1a14.447 14.447 0 0 1 10.354-4.103c.591.009 1.188.054 1.773.135a.797.797 0 1 1-.217 1.578 13.285 13.285 0 0 0-1.581-.12 12.863 12.863 0 0 0-9.22 3.654 12.867 12.867 0 0 0-3.932 9.097 12.86 12.86 0 0 0 3.646 9.204l.006.007.202.208c4.967 5.125 13.18 5.254 18.308.288.318-.313.627-.651.913-1a.798.798 0 0 1 1.232 1.011c-.322.392-.669.772-1.032 1.129-5.764 5.582-14.988 5.437-20.566-.319l-.201-.208-.007-.007z"/><path fill="#FFF1ED" d="M86.75 189.385l7.844-7.6 2.657 10.592-10.502-2.992zM424.718 175.714a2.81 2.81 0 0 0 2.697-2.92 2.81 2.81 0 0 0-2.924-2.691 2.81 2.81 0 0 0-2.697 2.919 2.81 2.81 0 0 0 2.924 2.692zM404.039 149.725a2.81 2.81 0 0 0 2.697-2.919 2.811 2.811 0 0 0-2.925-2.692 2.81 2.81 0 0 0 .228 5.611z"/><path fill="#E7F1FF" d="M369.039 244.725a2.81 2.81 0 0 0 2.697-2.919 2.811 2.811 0 0 0-2.925-2.692 2.81 2.81 0 0 0 .228 5.611zM377.039 99.725a2.81 2.81 0 0 0 2.697-2.92 2.811 2.811 0 0 0-2.925-2.69 2.81 2.81 0 0 0-2.697 2.92 2.81 2.81 0 0 0 2.925 2.69z"/><path fill="#FFF1ED" d="M367.039 215.725a2.81 2.81 0 0 0 2.697-2.919 2.811 2.811 0 0 0-2.925-2.692 2.81 2.81 0 0 0 .228 5.611z"/><path fill="#E7F1FF" d="M380.039 208.725a2.81 2.81 0 0 0 2.697-2.919 2.811 2.811 0 0 0-2.925-2.692 2.81 2.81 0 0 0 .228 5.611zM391.039 173.725a2.81 2.81 0 0 0 2.697-2.919 2.811 2.811 0 0 0-2.925-2.692 2.81 2.81 0 0 0 .228 5.611zM362.234 203.65a2.81 2.81 0 0 0 2.697-2.92 2.81 2.81 0 0 0-2.925-2.691 2.81 2.81 0 0 0-2.697 2.92 2.811 2.811 0 0 0 2.925 2.691z"/><path fill="#FFF1ED" d="M431.039 236.725a2.81 2.81 0 0 0 2.697-2.919 2.811 2.811 0 0 0-2.925-2.692 2.81 2.81 0 0 0 .228 5.611zM361.039 226.725a2.81 2.81 0 0 0 2.697-2.919 2.811 2.811 0 0 0-2.925-2.692 2.81 2.81 0 0 0 .228 5.611z"/><path fill="#E7F1FF" d="M349.602 232.561a2.718 2.718 0 0 1-.63-.981 2.81 2.81 0 0 1 1.662-3.61 2.807 2.807 0 0 1 3.607 1.67 2.775 2.775 0 0 1-.491 2.774M419.16 164.623a2.81 2.81 0 0 0 2.697-2.92 2.811 2.811 0 0 0-2.925-2.691 2.81 2.81 0 0 0-2.697 2.92 2.81 2.81 0 0 0 2.925 2.691zM424.172 210.544a2.81 2.81 0 0 0 2.696-2.919 2.81 2.81 0 0 0-2.924-2.692 2.81 2.81 0 0 0-2.697 2.92 2.81 2.81 0 0 0 2.925 2.691zM420.047 226.594a2.81 2.81 0 0 0 2.696-2.92 2.81 2.81 0 0 0-2.924-2.691 2.81 2.81 0 0 0-2.697 2.92 2.81 2.81 0 0 0 2.925 2.691zM444.039 239.725a2.81 2.81 0 0 0 2.697-2.919 2.811 2.811 0 0 0-2.925-2.692 2.81 2.81 0 0 0 .228 5.611z"/><path fill="#FFF1ED" d="M442.039 192.725a2.81 2.81 0 0 0 2.697-2.919 2.811 2.811 0 0 0-2.925-2.692 2.81 2.81 0 0 0 .228 5.611z"/><path fill="#E7F1FF" d="M422.039 241.725a2.81 2.81 0 0 0 2.697-2.919 2.811 2.811 0 0 0-2.925-2.692 2.81 2.81 0 0 0 .228 5.611zM403.734 176.566a2.81 2.81 0 0 0 2.697-2.919 2.81 2.81 0 0 0-2.925-2.692 2.81 2.81 0 0 0-2.697 2.92 2.811 2.811 0 0 0 2.925 2.691z"/><path fill="#FFF1ED" d="M435.039 223.725a2.81 2.81 0 0 0 2.697-2.919 2.811 2.811 0 0 0-2.925-2.692 2.81 2.81 0 0 0 .228 5.611zM447.039 220.725a2.81 2.81 0 0 0 2.697-2.919 2.811 2.811 0 0 0-2.925-2.692 2.81 2.81 0 0 0 .228 5.611z"/><path fill="#E7F1FF" d="M430.269 192.81a2.81 2.81 0 0 0 2.697-2.919 2.81 2.81 0 0 0-2.925-2.692 2.811 2.811 0 0 0-2.697 2.92 2.81 2.81 0 0 0 2.925 2.691zM373.039 226.725a2.81 2.81 0 0 0 2.697-2.919 2.811 2.811 0 0 0-2.925-2.692 2.81 2.81 0 0 0 .228 5.611zM443 206.997a2.81 2.81 0 0 0 2.697-2.919 2.811 2.811 0 0 0-2.925-2.692 2.81 2.81 0 0 0 .228 5.611zM417.039 186.725a2.81 2.81 0 0 0 2.697-2.919 2.811 2.811 0 0 0-2.925-2.692 2.81 2.81 0 0 0 .228 5.611zM435.586 172.27a2.811 2.811 0 0 0 2.697-2.92 2.811 2.811 0 0 0-2.925-2.691 2.81 2.81 0 0 0-2.697 2.92 2.81 2.81 0 0 0 2.925 2.691z"/><path fill="#FFF1ED" d="M382.13 159.739a2.805 2.805 0 0 0-.38-3.953 2.817 2.817 0 0 0-3.96.38 2.805 2.805 0 0 0 .38 3.953 2.817 2.817 0 0 0 3.96-.38zM388.039 144.725a2.81 2.81 0 0 0 2.697-2.919 2.811 2.811 0 0 0-2.925-2.692 2.81 2.81 0 0 0 .228 5.611z"/><path fill="#E7F1FF" d="M388.039 192.725a2.81 2.81 0 0 0 2.697-2.919 2.811 2.811 0 0 0-2.925-2.692 2.81 2.81 0 0 0 .228 5.611zM406.203 163.455a2.81 2.81 0 0 0 2.697-2.919 2.811 2.811 0 0 0-2.925-2.692 2.811 2.811 0 0 0-2.697 2.92 2.81 2.81 0 0 0 2.925 2.691z"/><path fill="#FFF1ED" d="M427.646 149.632a2.808 2.808 0 0 1-2.338 2.07 2.818 2.818 0 0 1-2.811-1.366 2.804 2.804 0 0 1 1.507-4.071 2.816 2.816 0 0 1 1.631-.062"/><path fill="#E7F1FF" d="M390.636 154.691a2.81 2.81 0 0 0 2.697-2.919 2.81 2.81 0 0 0-2.925-2.692 2.81 2.81 0 0 0-2.696 2.92 2.81 2.81 0 0 0 2.924 2.691z"/><path fill="#FFF1ED" d="M376.039 176.726a2.812 2.812 0 0 0 2.697-2.92 2.811 2.811 0 0 0-2.925-2.692 2.81 2.81 0 0 0-2.697 2.92 2.81 2.81 0 0 0 2.925 2.692z"/><path fill="#E7F1FF" d="M417.039 143.725a2.81 2.81 0 0 0 2.697-2.919 2.811 2.811 0 0 0-2.925-2.692 2.81 2.81 0 0 0 .228 5.611zM372.039 195.725a2.81 2.81 0 0 0 2.697-2.919 2.811 2.811 0 0 0-2.925-2.692 2.81 2.81 0 0 0 .228 5.611z"/></svg>