<svg width="466" height="283" viewBox="0 0 466 283" fill="none" xmlns="http://www.w3.org/2000/svg">
<path d="M399.009 41.2875V40.2824H398.968L398.961 2H69V283H399.009L399.002 242.468H399.009V241.462H399.002L398.995 202.221H399.009V201.215H398.995L398.988 162.023H399.009V161.017H398.988L398.981 121.778H399.009V120.772H398.981L398.974 81.5323H399.009V80.5263H398.974L398.967 41.287L399.009 41.2875ZM397.958 3.10208V40.2824H358.762V3.10208H397.958ZM357.758 3.10208V40.2824H317.272V3.10208H357.758ZM233.813 121.779H274.778V161.018H233.813V121.779ZM232.81 161.018H191.845V121.779H232.81V161.018ZM233.813 120.773V81.5328H274.778V120.773H233.813ZM232.81 120.773H191.845V81.5328H232.81V120.773ZM190.841 120.773H149.827V81.5328H190.84L190.841 120.773ZM190.841 121.779V161.018H149.827V121.779H190.841ZM190.841 162.024V201.215H149.827V162.024H190.841ZM191.845 162.024H232.81V201.215H191.845V162.024ZM233.813 162.024H274.778V201.215H233.813V162.024ZM275.781 162.024H316.268V201.215H275.781V162.024ZM275.781 161.018V121.779H316.268V161.018H275.781ZM275.781 120.773V81.5328H316.268V120.773H275.781ZM275.781 80.5268V41.2875H316.268V80.5268H275.781ZM274.778 80.5268H233.813V41.2875H274.778V80.5268ZM232.81 80.5268H191.845V41.2875H232.81V80.5268ZM190.841 80.5268H149.827V41.2875H190.84L190.841 80.5268ZM148.826 80.5268H107.861V41.2875H148.826V80.5268ZM148.826 81.5328V120.773H107.861V81.5328H148.826ZM148.826 121.779V161.018H107.861V121.779H148.826ZM148.826 162.024V201.215H107.861V162.024H148.826ZM148.826 202.222V241.461H107.861V202.221L148.826 202.222ZM149.829 202.222H190.841V241.461H149.827L149.829 202.222ZM191.845 202.222H232.81V241.461H191.845V202.222ZM233.813 202.222H274.778V241.461H233.813V202.222ZM275.781 202.222H316.268V241.461H275.781V202.222ZM317.272 202.222H357.758V241.461H317.272V202.222ZM317.272 201.215V162.024H357.758V201.215H317.272ZM317.272 161.018V121.779H357.758V161.018H317.272ZM317.272 120.773V81.5328H357.758V120.773H317.272ZM317.272 80.5268V41.2875H357.758V80.5268H317.272ZM316.268 3.10208V40.2824H275.781V3.10208H316.268ZM274.778 3.10208V40.2824H233.813V3.10208H274.778ZM232.81 3.10208V40.2824H191.845V3.10208H232.81ZM190.841 3.10208V40.2824H149.827V3.10208H190.841ZM148.826 3.10208V40.2824H107.861V3.10208H148.826ZM70.0518 3.10208H106.858V40.2824H70.0518V3.10208ZM70.0518 41.2875H106.858V80.5268H70.0518V41.2875ZM70.0518 81.5328H106.858V120.773H70.0518V81.5328ZM70.0518 121.779H106.858V161.018H70.0518V121.779ZM70.0518 162.024H106.858V201.215H70.0518V162.024ZM70.0518 202.222H106.858V241.461H70.0518V202.222ZM70.0518 281.946V242.467H106.858V281.946H70.0518ZM107.861 281.946V242.467H148.826V281.946H107.861ZM149.829 281.946V242.467H190.841V281.946H149.829ZM191.845 281.946V242.467H232.81V281.946H191.845ZM233.813 281.946V242.467H274.778V281.946H233.813ZM275.781 281.946V242.467H316.268V281.946H275.781ZM317.272 281.946V242.467H357.758V281.946H317.272ZM397.959 281.946H358.762V242.467H397.958L397.959 281.946ZM397.959 241.461H358.762V202.221H397.958L397.959 241.461ZM397.959 201.216H358.762V162.024H397.958L397.959 201.216ZM397.959 161.018H358.762V121.779H397.958L397.959 161.018ZM397.959 120.773H358.762V81.5328H397.958L397.959 120.773ZM397.959 80.5272H358.762V41.2875H397.958L397.959 80.5272Z" fill="#E7F1FF"/>
<path d="M457.731 171C457.731 170.984 454.239 192.04 450.689 202.136L441.772 174.089L457.731 171Z" fill="#FFF1ED"/>
<path d="M450.688 202.774H450.678C450.544 202.772 450.414 202.728 450.307 202.648C450.199 202.568 450.12 202.457 450.079 202.329L441.163 174.282C441.135 174.196 441.127 174.106 441.137 174.016C441.147 173.927 441.176 173.841 441.222 173.763C441.268 173.686 441.33 173.619 441.404 173.568C441.477 173.516 441.561 173.48 441.65 173.463L457.608 170.373C457.666 170.362 457.725 170.359 457.784 170.364C457.938 170.377 458.081 170.445 458.188 170.556C458.295 170.667 458.359 170.812 458.366 170.966C458.369 171.017 458.366 171.069 458.356 171.119L458.345 171.184C457.742 174.754 454.564 193.034 451.289 202.347C451.245 202.472 451.164 202.58 451.056 202.656C450.948 202.732 450.82 202.774 450.688 202.774ZM442.596 174.58L450.7 200.068C453.532 191.017 456.242 175.866 456.945 171.801L442.596 174.58Z" fill="#3C4043"/>
<path d="M354.653 117.78C354.752 117.031 355.143 112.821 355.48 108.607L355.042 93.2317C353.739 86.1138 351.166 78.5439 348.314 79.316C345.697 80.0176 347.591 84.5253 348.867 93.3705C346.378 85.7373 343.995 80.3153 341.378 81.3572C338.783 82.399 341.336 90.0961 343.314 95.9645C340.357 92.8389 336.506 88.4376 334.634 89.5645C331.953 91.1805 335.081 95.0715 336.889 97.8356C340.91 104.002 338.464 106.617 337.038 111.061C336.081 114.016 337.485 117.376 339.889 120.735" fill="#FFF1ED"/>
<path d="M339.892 121.373C339.79 121.373 339.69 121.349 339.599 121.303C339.509 121.256 339.431 121.189 339.372 121.106C336.474 117.056 335.513 113.707 336.433 110.865C336.697 110.043 336.991 109.291 337.276 108.563C338.55 105.309 339.47 102.959 336.356 98.1839C336.151 97.8687 335.927 97.5383 335.697 97.1979C334.248 95.0587 332.605 92.6337 333.023 90.7328C333.105 90.3728 333.261 90.034 333.482 89.7386C333.703 89.4431 333.985 89.1977 334.307 89.0182C336.195 87.8824 338.982 90.4656 341.806 93.4293C339.715 86.9506 338.548 81.8068 341.143 80.7652C341.452 80.639 341.783 80.5798 342.116 80.5917C342.449 80.6035 342.775 80.6861 343.074 80.8338C344.373 81.4426 345.613 83.1702 347.024 86.4639C346.643 84.4347 346.36 82.8068 346.367 81.6021C346.37 81.0018 346.381 79.1747 348.152 78.6997C348.47 78.6167 348.803 78.6031 349.127 78.66C349.452 78.7168 349.76 78.8427 350.031 79.0291C353.244 81.0537 355.162 90.3237 355.673 93.1168C355.679 93.1486 355.682 93.1809 355.683 93.2133L356.122 108.589C356.123 108.612 356.122 108.635 356.12 108.658C355.79 112.776 355.397 117.061 355.29 117.863C355.28 117.947 355.253 118.028 355.212 118.101C355.17 118.174 355.114 118.239 355.048 118.29C354.981 118.342 354.905 118.38 354.823 118.402C354.742 118.424 354.657 118.429 354.573 118.418C354.49 118.407 354.409 118.38 354.336 118.338C354.263 118.295 354.199 118.239 354.148 118.172C354.097 118.104 354.06 118.028 354.039 117.946C354.018 117.865 354.013 117.78 354.025 117.696C354.117 116.998 354.502 112.871 354.845 108.591L354.409 93.2986C353.144 86.4242 351.16 81.2495 349.349 80.1092C349.227 80.0168 349.086 79.953 348.936 79.9224C348.786 79.8918 348.632 79.8953 348.483 79.9325C347.209 80.2742 347.54 82.3256 348.411 86.933C348.756 88.7616 349.148 90.8362 349.501 93.2803C349.524 93.4385 349.487 93.5995 349.397 93.7316C349.307 93.8636 349.17 93.9571 349.015 93.9934C348.859 94.0298 348.695 94.0063 348.556 93.9278C348.417 93.8492 348.312 93.7213 348.262 93.5692C346.793 89.0616 344.6 82.9592 342.531 81.9901C342.391 81.9173 342.236 81.8761 342.078 81.8693C341.92 81.8625 341.763 81.8903 341.616 81.9508C339.545 82.7821 342.501 91.5489 343.921 95.7618C343.968 95.8997 343.966 96.0492 343.916 96.1858C343.865 96.3223 343.77 96.4376 343.645 96.5126C343.521 96.5875 343.374 96.6176 343.23 96.5979C343.086 96.5781 342.952 96.5097 342.853 96.404C342.597 96.1333 342.334 95.8533 342.067 95.5679C339.885 93.2418 336.234 89.3467 334.965 90.112C334.792 90.2024 334.639 90.3293 334.519 90.4839C334.399 90.6386 334.314 90.8173 334.269 91.008C333.968 92.3734 335.512 94.6526 336.753 96.4839C336.987 96.8301 337.215 97.1664 337.425 97.4877C340.898 102.813 339.771 105.693 338.465 109.029C338.188 109.738 337.9 110.471 337.648 111.257C336.861 113.688 337.764 116.667 340.41 120.365C340.478 120.461 340.519 120.573 340.527 120.69C340.536 120.807 340.512 120.924 340.459 121.028C340.405 121.132 340.324 121.22 340.224 121.281C340.124 121.342 340.009 121.374 339.891 121.374L339.892 121.373Z" fill="#3C4043"/>
<path d="M346.761 112.156C346.805 108.406 349.417 105.182 350.971 101.23C353.142 95.7553 355.014 92.449 356.394 92.2534C359.566 91.8311 355.595 105.274 354.965 113.279" fill="#FFF1ED"/>
<path d="M354.965 113.917C354.948 113.917 354.931 113.917 354.914 113.915C354.83 113.908 354.749 113.885 354.674 113.847C354.6 113.809 354.533 113.757 354.479 113.693C354.424 113.629 354.383 113.556 354.357 113.476C354.331 113.396 354.321 113.312 354.328 113.229C354.542 110.501 355.136 107.179 355.708 103.965C356.514 99.452 357.517 93.8357 356.645 92.9254C356.617 92.897 356.592 92.8702 356.477 92.8855C356.106 92.9384 354.636 93.716 351.563 101.465C351.025 102.773 350.421 104.053 349.753 105.3C348.556 107.625 347.425 109.821 347.398 112.163C347.397 112.247 347.379 112.329 347.346 112.406C347.313 112.483 347.265 112.553 347.205 112.612C347.084 112.73 346.921 112.795 346.752 112.793C346.583 112.791 346.421 112.722 346.303 112.601C346.185 112.48 346.119 112.317 346.121 112.148C346.152 109.505 347.35 107.179 348.618 104.716C349.266 103.507 349.852 102.265 350.375 100.997C353.553 92.9829 355.212 91.7771 356.303 91.6218C356.532 91.5832 356.767 91.6014 356.987 91.6749C357.208 91.7484 357.407 91.875 357.567 92.0435C358.822 93.3552 358.156 97.5133 356.965 104.189C356.397 107.372 355.81 110.664 355.6 113.329C355.588 113.489 355.515 113.638 355.398 113.747C355.28 113.856 355.125 113.916 354.965 113.917Z" fill="#3C4043"/>
<path d="M446.139 246.864C446.274 253.769 447.746 261.008 453.347 262.555C459.048 264.129 462.857 269.296 462.41 275.249L415.093 275.058L415.051 246.715L446.139 246.864Z" fill="#E7F1FF"/>
<path d="M462.408 275.888H462.405L415.088 275.696C414.92 275.696 414.758 275.628 414.639 275.509C414.52 275.389 414.453 275.227 414.453 275.058L414.41 246.716C414.41 246.546 414.477 246.384 414.597 246.264C414.717 246.145 414.879 246.078 415.048 246.078H415.051L446.14 246.226C446.306 246.227 446.466 246.293 446.585 246.41C446.703 246.527 446.772 246.685 446.775 246.852C446.947 255.677 449.214 260.754 453.514 261.941C459.589 263.618 463.508 269.11 463.044 275.298C463.032 275.458 462.96 275.608 462.842 275.718C462.724 275.827 462.569 275.888 462.408 275.888ZM415.729 274.423L461.802 274.609C461.936 269.282 458.46 264.629 453.175 263.17C448.375 261.844 445.8 256.573 445.516 247.498L415.689 247.356L415.729 274.423Z" fill="#3C4043"/>
<path d="M345.092 147.483L335.434 120.823L358.492 112.488L365.143 130.873C365.104 131.021 365.076 131.156 365.058 131.28C364.995 131.701 365.028 132.074 365.228 132.353C365.442 132.654 365.753 132.719 365.951 132.723C366.051 132.725 366.137 132.712 366.197 132.7C366.227 132.694 366.253 132.687 366.273 132.682C366.283 132.679 366.291 132.676 366.298 132.674L366.308 132.671L366.312 132.67L366.314 132.669C366.314 132.669 366.315 132.669 366.153 132.196L366.315 132.669L366.796 132.504L366.623 132.026L366.194 130.84C366.274 130.593 366.388 130.295 366.547 129.936C367.816 127.073 371.735 120.794 382.374 107.208C384.199 104.878 386.746 103.644 389.252 102.936C391.117 102.408 392.908 102.182 394.353 101.999C394.676 101.958 394.982 101.92 395.267 101.88C395.684 103.679 396.817 105.416 398.305 106.493C399.944 107.68 402.065 108.091 404.106 106.82L404.106 106.82C406.245 105.488 407.667 102.772 407.501 100.224C408.281 100.336 409.531 100.483 410.939 100.638C412.927 100.858 415.276 101.1 417.19 101.292L417.24 100.795L417.19 101.292C419.452 101.52 422.539 102.858 425.015 105.538L425.029 105.554L425.046 105.569L445.302 123.977L445.333 124.005L445.368 124.027C446.773 124.93 447.98 126.11 448.915 127.494C449.85 128.878 450.494 130.437 450.806 132.078L458.266 171.62L443.521 174.317C442.988 173.121 441.969 171.257 440.724 169.091C439.332 166.672 437.639 163.844 435.977 161.086C435.575 160.419 435.175 159.757 434.782 159.105C433.548 157.059 432.377 155.121 431.415 153.493C430.78 152.42 430.238 151.487 429.828 150.749C429.43 150.034 429.174 149.534 429.071 149.272L427.705 142.033L427.665 141.821L427.483 141.705L422.737 138.664C422.541 137.997 422.423 137.311 422.3 136.592C422.252 136.309 422.202 136.022 422.147 135.73C421.945 134.655 421.666 133.541 421.025 132.537C419.873 130.732 417.943 130.444 416.158 130.536L416.184 131.035L416.158 130.536C414.032 130.645 409.067 130.561 403.659 130.469C402.091 130.442 400.486 130.415 398.903 130.392C395.389 130.34 391.986 130.308 389.35 130.346C388.032 130.365 386.899 130.401 386.035 130.462C385.604 130.493 385.233 130.53 384.935 130.575C384.658 130.618 384.385 130.676 384.195 130.774L384.412 131.197L384.195 130.774C384.064 130.841 383.953 130.943 383.867 131.035C383.774 131.134 383.678 131.253 383.581 131.387C383.387 131.654 383.165 132.008 382.922 132.428C382.434 133.269 381.84 134.415 381.181 135.758C379.862 138.445 378.271 141.953 376.736 145.47C375.201 148.988 373.72 152.521 372.62 155.259C372.07 156.628 371.614 157.801 371.294 158.677C371.134 159.114 371.007 159.482 370.918 159.764C370.883 159.878 370.852 159.981 370.828 160.071C368.777 160.739 366.632 161.08 364.473 161.081C363.458 161.077 362.444 161 361.439 160.852C357.76 160.308 354.297 158.778 351.418 156.424C348.54 154.07 346.354 150.981 345.093 147.484L345.092 147.483Z" fill="#FFED96" stroke="#3C4043"/>
<path d="M340.944 240.72C341.54 248.736 339.561 260.983 326.349 262.982C320.498 263.875 316.839 269.084 317.286 275.037L372.198 274.846L372.24 253.106L340.944 240.72Z" fill="#E7F1FF"/>
<path d="M317.285 275.675C317.124 275.675 316.969 275.615 316.851 275.505C316.733 275.396 316.661 275.246 316.649 275.085C316.164 268.63 320.203 263.274 326.252 262.35C340.228 260.236 340.737 246.552 340.307 240.766C340.299 240.658 340.318 240.55 340.364 240.452C340.409 240.354 340.478 240.268 340.566 240.204C340.653 240.14 340.755 240.1 340.862 240.086C340.97 240.072 341.079 240.086 341.179 240.126L372.476 252.512C372.595 252.559 372.698 252.641 372.77 252.747C372.842 252.853 372.88 252.979 372.88 253.107L372.837 274.847C372.837 275.016 372.77 275.178 372.651 275.297C372.531 275.416 372.37 275.483 372.201 275.484L317.289 275.675H317.285ZM341.64 241.681C341.777 244.819 341.56 249.884 339.399 254.383C336.902 259.585 332.543 262.69 326.444 263.611C321.258 264.404 317.738 268.892 317.891 274.397L371.56 274.21L371.601 253.539L341.64 241.681Z" fill="#3C4043"/>
<path d="M381.047 137.129L339.56 239.934L373.302 253.542L403.383 178.983L414.279 197.983V246.716H450.681V192.986C450.681 192.539 450.652 192.092 450.594 191.648L444.494 177.328L421.619 137.129H381.047Z" fill="white"/>
<path d="M373.306 254.179C373.225 254.18 373.143 254.164 373.068 254.133L339.325 240.525C339.168 240.462 339.043 240.339 338.977 240.183C338.911 240.028 338.909 239.853 338.972 239.696L380.459 136.891C380.507 136.774 380.588 136.673 380.694 136.601C380.799 136.53 380.924 136.492 381.051 136.492H421.623C421.736 136.492 421.847 136.522 421.944 136.579C422.042 136.635 422.122 136.717 422.178 136.815L445.053 177.013C445.065 177.034 445.076 177.056 445.085 177.079L451.185 191.398C451.21 191.457 451.226 191.52 451.233 191.585L451.26 191.846C451.305 192.224 451.326 192.605 451.323 192.985V246.716C451.323 246.885 451.256 247.047 451.136 247.167C451.017 247.287 450.854 247.354 450.685 247.354H414.283C414.114 247.354 413.951 247.287 413.832 247.167C413.712 247.047 413.645 246.885 413.645 246.716V198.152L403.487 180.441L373.898 253.78C373.851 253.898 373.769 253.999 373.663 254.07C373.558 254.141 373.434 254.179 373.306 254.179ZM340.393 239.581L372.952 252.711L402.795 178.744C402.84 178.633 402.915 178.537 403.012 178.467C403.109 178.397 403.224 178.355 403.344 178.347C403.463 178.339 403.583 178.364 403.688 178.421C403.794 178.477 403.882 178.562 403.941 178.666L414.837 197.665C414.892 197.762 414.922 197.871 414.922 197.983V246.078H450.048V192.986C450.05 192.649 450.031 192.312 449.99 191.978L449.973 191.809L443.925 177.612L421.252 137.767H381.482L340.393 239.581Z" fill="#3C4043"/>
<path d="M452.798 182.95C452.181 185.714 450.054 193.815 449.394 195.665C448.713 197.6 445.075 198.067 445.841 192.922C447.543 181.376 443.692 181.802 444.628 176.337" fill="#FFF1ED"/>
<path d="M447.545 197.657C447.366 197.658 447.187 197.636 447.013 197.594C446.444 197.453 444.634 196.693 445.21 192.828C446.185 186.209 445.299 183.633 444.587 181.563C444.049 179.999 443.585 178.65 443.999 176.23C444.013 176.147 444.043 176.068 444.088 175.997C444.132 175.925 444.191 175.864 444.259 175.815C444.328 175.767 444.405 175.732 444.487 175.713C444.569 175.695 444.654 175.692 444.736 175.706C444.819 175.721 444.898 175.751 444.969 175.796C445.04 175.841 445.102 175.899 445.15 175.968C445.199 176.036 445.233 176.114 445.251 176.196C445.27 176.278 445.272 176.362 445.257 176.445C444.898 178.543 445.294 179.693 445.794 181.148C446.551 183.349 447.494 186.088 446.472 193.015C446.141 195.241 446.693 196.2 447.32 196.355C447.885 196.495 448.573 196.074 448.792 195.453C449.451 193.6 451.569 185.527 452.175 182.811C452.191 182.727 452.223 182.648 452.271 182.577C452.318 182.506 452.38 182.445 452.451 182.398C452.522 182.351 452.603 182.319 452.687 182.303C452.771 182.288 452.857 182.29 452.94 182.308C453.024 182.327 453.103 182.362 453.172 182.411C453.242 182.461 453.301 182.524 453.345 182.597C453.39 182.67 453.42 182.751 453.433 182.835C453.445 182.919 453.441 183.005 453.42 183.088C452.808 185.829 450.666 193.996 449.995 195.879C449.815 196.388 449.484 196.831 449.046 197.148C448.609 197.466 448.085 197.643 447.545 197.657Z" fill="#3C4043"/>
<path d="M423.199 139.268L422.645 139.583L428.368 149.641L428.922 149.325L423.199 139.268Z" fill="#3C4043"/>
<path d="M383.607 131.175H420.009L421.626 137.129H381.054L383.607 131.175Z" fill="white"/>
<path d="M421.625 137.767H381.052C380.947 137.767 380.843 137.741 380.75 137.691C380.657 137.641 380.578 137.568 380.519 137.48C380.461 137.392 380.426 137.291 380.417 137.186C380.407 137.08 380.424 136.975 380.466 136.878L383.019 130.924C383.068 130.809 383.15 130.712 383.254 130.643C383.358 130.574 383.48 130.538 383.605 130.538H420.008C420.148 130.538 420.284 130.584 420.395 130.669C420.507 130.754 420.587 130.873 420.624 131.008L422.24 136.962C422.266 137.057 422.27 137.156 422.251 137.252C422.232 137.348 422.191 137.439 422.131 137.517C422.071 137.595 421.995 137.658 421.907 137.701C421.819 137.745 421.722 137.767 421.623 137.767H421.625ZM382.02 136.491H420.79L419.52 131.813H384.026L382.02 136.491Z" fill="#3C4043"/>
<path d="M348.326 261.405C344.296 261.405 336.943 258.562 336.594 258.426C336.501 258.39 336.418 258.332 336.352 258.259C336.285 258.185 336.237 258.096 336.21 258.001C336.184 257.905 336.18 257.804 336.2 257.707C336.219 257.609 336.261 257.518 336.322 257.439C336.974 256.603 342.784 249.246 346.127 248.339C347.839 247.88 349.663 248.113 351.205 248.988C352.747 249.862 353.882 251.308 354.366 253.013C354.602 253.861 354.669 254.747 354.562 255.621C354.454 256.495 354.175 257.338 353.741 258.104C353.306 258.87 352.724 259.542 352.029 260.082C351.334 260.623 350.538 261.02 349.689 261.253H349.685C349.241 261.362 348.784 261.413 348.326 261.405ZM337.87 257.544C340.912 258.662 347.09 260.635 349.349 260.024C350.037 259.837 350.681 259.515 351.244 259.078C351.807 258.641 352.278 258.097 352.63 257.477C352.982 256.858 353.207 256.175 353.294 255.468C353.381 254.761 353.328 254.043 353.136 253.357C352.744 251.976 351.824 250.805 350.575 250.097C349.326 249.388 347.848 249.199 346.461 249.571C344.204 250.183 339.91 255.03 337.87 257.544Z" fill="#FFDA2D"/>
<path d="M336.824 258.47C336.781 258.47 336.738 258.466 336.696 258.457C335.657 258.245 326.476 256.312 324.177 253.737C322.993 252.412 322.383 250.671 322.483 248.896C322.583 247.122 323.384 245.46 324.71 244.277C326.036 243.093 327.779 242.484 329.554 242.584C331.329 242.684 332.992 243.484 334.177 244.81C336.474 247.385 337.366 256.72 337.46 257.776C337.468 257.864 337.458 257.953 337.429 258.037C337.401 258.121 337.355 258.198 337.296 258.263C337.236 258.329 337.163 258.381 337.082 258.417C337.001 258.452 336.913 258.471 336.825 258.471L336.824 258.47ZM329.181 243.852C328.135 243.854 327.111 244.157 326.233 244.727C325.355 245.296 324.66 246.106 324.232 247.061C323.804 248.015 323.661 249.073 323.821 250.106C323.98 251.14 324.434 252.106 325.13 252.887C326.683 254.627 332.941 256.317 336.102 257.025C335.753 253.805 334.776 247.398 333.223 245.658C332.751 245.126 332.177 244.693 331.535 244.385C330.894 244.076 330.197 243.898 329.486 243.861C329.384 243.855 329.283 243.852 329.181 243.852Z" fill="#FFDA2D"/>
<path d="M454.228 260.965C451.587 260.965 449.352 260.788 449.157 260.772C449.057 260.764 448.962 260.732 448.877 260.681C448.792 260.629 448.72 260.558 448.667 260.474C448.615 260.39 448.582 260.294 448.573 260.195C448.564 260.096 448.578 259.996 448.614 259.904C448.768 259.51 452.418 250.241 455.388 248.372C456.896 247.434 458.713 247.13 460.444 247.526C462.174 247.923 463.678 248.988 464.625 250.489C465.566 251.995 465.872 253.812 465.475 255.542C465.077 257.273 464.01 258.775 462.506 259.72H462.505C460.898 260.726 457.29 260.965 454.228 260.965ZM450.128 259.562C453.36 259.763 459.837 259.884 461.826 258.641C462.442 258.269 462.978 257.778 463.403 257.197C463.827 256.616 464.132 255.956 464.299 255.256C464.465 254.556 464.491 253.83 464.374 253.121C464.258 252.411 464.001 251.731 463.619 251.122C463.237 250.512 462.737 249.984 462.149 249.57C461.561 249.155 460.896 248.861 460.193 248.706C459.49 248.55 458.763 248.536 458.055 248.664C457.347 248.793 456.671 249.06 456.067 249.452C454.095 250.693 451.365 256.569 450.128 259.562Z" fill="#FFDA2D"/>
<path d="M437.953 263.262C437.37 263.277 436.789 263.206 436.227 263.051C435.384 262.788 434.601 262.361 433.924 261.794C433.246 261.228 432.687 260.534 432.279 259.751C431.871 258.968 431.621 258.113 431.545 257.234C431.468 256.354 431.566 255.468 431.833 254.627C432.1 253.786 432.53 253.005 433.1 252.331C433.669 251.656 434.366 251.1 435.151 250.695C435.936 250.291 436.793 250.045 437.673 249.972C438.553 249.899 439.439 250 440.28 250.27C443.574 251.309 449.109 258.901 449.728 259.763C449.786 259.844 449.824 259.937 449.84 260.036C449.856 260.134 449.848 260.234 449.818 260.329C449.788 260.424 449.736 260.51 449.667 260.581C449.597 260.652 449.512 260.706 449.418 260.739C449.075 260.857 442.054 263.262 437.953 263.262ZM438.272 251.236C436.975 251.231 435.718 251.691 434.73 252.532C433.742 253.373 433.088 254.54 432.887 255.821C432.686 257.103 432.951 258.414 433.634 259.517C434.317 260.62 435.373 261.442 436.61 261.834C438.849 262.533 445.097 260.805 448.177 259.808C446.233 257.211 442.121 252.188 439.897 251.487C439.371 251.321 438.823 251.236 438.272 251.236H438.272Z" fill="#FFDA2D"/>
<path d="M383.475 79.9951C383.45 79.9127 383.422 79.8309 383.39 79.7497C383.192 79.258 382.857 78.8328 382.426 78.5237C381.995 78.2147 381.485 78.0346 380.955 78.0045C380.426 77.9744 379.898 78.0955 379.435 78.3536C378.971 78.6118 378.591 78.9964 378.338 79.4625C378.085 79.9285 377.97 80.4569 378.007 80.9859C378.043 81.5149 378.229 82.0226 378.543 82.4498C378.857 82.8771 379.287 83.2062 379.781 83.3987C380.275 83.5913 380.814 83.6393 381.335 83.5372" fill="white"/>
<path d="M383.69 131.777C383.674 131.777 383.659 131.777 383.643 131.776C383.474 131.763 383.317 131.685 383.206 131.557C383.096 131.429 383.04 131.262 383.052 131.093L384.116 116.422C384.122 116.338 384.143 116.256 384.181 116.18C384.218 116.105 384.27 116.037 384.333 115.982C384.397 115.926 384.471 115.884 384.551 115.857C384.631 115.83 384.715 115.82 384.799 115.826C384.884 115.832 384.966 115.855 385.041 115.893C385.116 115.931 385.183 115.983 385.238 116.047C385.293 116.111 385.335 116.185 385.36 116.266C385.386 116.346 385.396 116.43 385.389 116.514L384.326 131.186C384.314 131.346 384.242 131.497 384.124 131.606C384.006 131.716 383.851 131.777 383.69 131.777Z" fill="#3C4043"/>
<path d="M420.068 131.777C419.899 131.777 419.736 131.71 419.617 131.59C419.497 131.471 419.43 131.308 419.43 131.139V116.468C419.43 116.299 419.497 116.137 419.617 116.017C419.736 115.897 419.899 115.83 420.068 115.83C420.237 115.83 420.4 115.897 420.519 116.017C420.639 116.137 420.706 116.299 420.706 116.468V131.139C420.706 131.308 420.639 131.471 420.519 131.59C420.4 131.71 420.237 131.777 420.068 131.777Z" fill="#3C4043"/>
<path d="M379.647 0.569151C378.96 0.338765 379.405 0.514036 379.422 0.526166L379.613 0.70474L379.539 0.840296L378.875 0.767433L379.236 1.04562L378.667 1.00488L379.082 1.3134L378.309 1.19198L378.487 1.41725L378.489 1.57886L378.506 1.74889L378.294 1.84661L379.031 2.27734L378.079 2.0907L378.62 2.45189L378.782 2.6748L378.459 2.7183L378.431 2.86914L378.088 2.90285L378.427 3.19704L378.65 3.4415L378.119 3.4049L378.476 3.69734L377.993 3.67779L378.629 4.08088L377.999 4.00472L378.337 4.30692L377.526 4.15577L378.4 4.66185L378.114 4.71554L377.405 4.60376L377.931 4.97236L377.741 5.066L377.234 5.03098L378.017 5.50259L377.876 5.61113L377.514 5.63095L377.777 5.90104L377.296 5.86741L377.187 5.98672L377.798 6.39624L376.882 6.19223L377.05 6.42433L376.883 6.52171L377.414 6.90165L376.703 6.77422L377.234 7.15612L376.985 7.22001L376.507 7.18814L376.859 7.49485L376.563 7.53779L376.639 7.7276L376.843 7.9779L376.911 8.16849L376.91 8.3344L376.632 8.38341L376.649 8.55539L376.564 8.68605L376.166 8.6818L376.199 8.862L376.703 9.24271L376.614 9.3718L376.54 9.50736L376.116 9.49176L376.065 9.63691C376.089 9.70356 376.134 9.77806 376.165 9.84609L375.887 9.89314L376.486 10.3216L376.214 10.37L376.349 10.6035L375.996 10.6145L376.069 10.8145L376.13 11.0058C376.144 11.0518 375.857 10.9636 376.217 11.163C376.275 11.1947 376.196 11.1966 376.985 11.5473L377.351 11.7086L377.997 11.9884L378.402 12.1775C378.438 12.1948 378.476 12.2076 378.515 12.2157C378.565 12.1931 378.469 12.1078 378.454 12.058L378.526 11.9187L378.465 11.7273L378.771 11.6973L379.17 11.7035L379.054 11.482L379.398 11.46L379.273 11.2336C379.284 11.1808 379.292 11.1273 379.297 11.0734L379.487 10.9817L379.141 10.6625L379.527 10.6581L379.821 10.6134L379.616 10.3553L380.076 10.3811L380.071 10.208L379.994 10.0045L380.516 10.0538L380.17 9.73651L379.873 9.44216L380.524 9.54393C380.572 9.50762 380.616 9.46779 380.664 9.43149L380.024 8.99713L380.77 9.13689L380.272 8.76167L380.399 8.64453L380.558 8.54011L381.047 8.56905L381.197 8.45955L380.596 8.01545L380.579 7.84348L381.536 8.05924L380.897 7.63465L381.027 7.51731L381.75 7.64357L381.28 7.29514L380.944 6.99275L381.897 7.20089L381.195 6.75495L381.798 6.81994L381.4 6.496L382.135 6.6211L381.406 6.1679L381.962 6.21585L381.566 5.89367L382.291 6.00391L381.889 5.68036L381.872 5.50447L382.721 5.63611L382.751 5.47922L382.666 5.27845L381.942 4.8366L382.106 4.72965L382.808 4.8383L383.011 4.74526L382.205 4.27598L382.927 4.37664L382.453 4.0286L382.808 3.99372L382.585 3.74927L382.645 3.59142L382.756 3.4641L383.34 3.50934L383.494 3.3975L383.549 3.25001L382.886 2.84358L383.282 2.8185L383.974 2.89842L383.934 2.71685C383.857 2.63373 383.763 2.53634 383.68 2.45967L384.094 2.43871L383.489 2.05617L383.723 2.08451L383.906 2.10791C383.928 2.10578 384.059 2.14029 383.796 2.03395C383.532 1.92762 382.876 1.68436 381.32 1.14273L379.647 0.569151Z" fill="#FFBCA5"/>
<path d="M394.396 5.48218C393.94 4.92762 394.203 5.3013 394.205 5.31318L394.203 5.41923C394.201 5.44787 394.204 5.47661 394.211 5.50433L394.216 5.54984L394.058 5.67728L393.517 5.33078L393.641 5.81412L393.154 5.53238L393.295 6.03197L392.67 5.58386L392.659 5.8947L392.533 6.06492L392.423 6.25158L392.16 6.25543L392.522 7.01903L391.77 6.43563L392.006 7.03584L391.993 7.33678L391.658 7.25586L391.518 7.40549L391.167 7.30812L391.281 7.75247L391.315 8.09878L390.835 7.85623L390.953 8.30216L390.497 8.08121L390.819 8.75295L390.269 8.4373L390.405 8.89355L389.728 8.43252L390.215 9.29184L389.903 9.24854L389.29 8.87722L389.549 9.46519L389.31 9.50468L388.849 9.29025L389.287 10.0743L389.093 10.1453L388.724 10.0458L388.807 10.4372L388.35 10.2464L388.159 10.3451L388.498 10.9951L387.721 10.472L387.74 10.7858L387.513 10.8422L387.802 11.4312L387.164 11.0802L387.457 11.6688L387.174 11.6706L386.723 11.4972L386.875 11.9398L386.557 11.9131L386.517 12.1608L386.571 12.5012L386.522 12.7358L386.419 12.9177L386.108 12.8964L386.02 13.0928L385.856 13.2149L385.443 13.1016L385.369 13.3087L385.666 13.8789L385.497 13.9974C385.445 14.0405 385.395 14.0873 385.345 14.1322L384.913 14.0029L384.779 14.1559L384.76 14.4154L384.428 14.3842L384.838 15.0372L384.525 15.024L384.555 15.3327C384.427 15.3067 384.301 15.2832 384.177 15.262L384.157 15.5157L384.129 15.7602C384.112 15.8099 383.887 15.6701 384.176 15.9934C384.223 16.0447 384.157 16.0432 384.785 16.6029L385.086 16.853L385.607 17.3073C385.743 17.4374 385.889 17.5566 386.044 17.664C386.122 17.6662 386.096 17.5769 386.095 17.5091L386.234 17.3715L386.261 17.1331L386.596 17.1741L387.01 17.2933L386.993 17.0153C387.113 17.0393 387.238 17.065 387.353 17.0837L387.313 16.7819L387.402 16.5994L387.632 16.5488L387.435 16.0967L387.824 16.1982L388.134 16.2257L388.052 15.8781L388.495 16.0344L388.572 15.841L388.594 15.5931L389.078 15.7933L388.898 15.3475L388.759 14.9395L389.339 15.2362L389.532 15.1572L389.148 14.4997L389.8 14.8792L389.524 14.3189L389.716 14.234L389.929 14.1731L390.388 14.3638L390.594 14.2995L390.243 13.6667L390.331 13.4783L391.128 14.0273L390.759 13.3622L390.952 13.2813L391.574 13.6578L391.32 13.1193L391.177 12.6838L391.961 13.2421L391.557 12.5226L392.083 12.8066L391.901 12.323L392.522 12.7174L392.121 11.9657L392.614 12.2229L392.438 11.7407L393.049 12.1322L392.873 11.646L392.965 11.4591L393.656 11.9487L393.782 11.8004L393.829 11.562L393.444 10.8366L393.665 10.7949L394.249 11.1771L394.493 11.1671L394.06 10.3624L394.654 10.7636L394.448 10.2204L394.794 10.3322L394.761 9.98787L394.902 9.85606L395.095 9.77713L395.591 10.0741L395.803 10.0312L395.952 9.9107L395.631 9.22293L396.004 9.37612L396.565 9.76657C396.592 9.70155 396.623 9.63839 396.659 9.57752L396.625 9.23319L397.033 9.43885L396.769 8.79547C396.834 8.84502 396.904 8.90208 396.955 8.93301L397.084 9.02022C397.099 9.03073 397.185 9.11215 397.021 8.87452L396.845 8.63212L396.542 8.23228L395.457 6.83248C394.926 6.13141 394.591 5.72875 394.396 5.48218Z" fill="#FFBCA5"/>
<path d="M397.244 19.3536C397.031 18.7109 397.151 19.1311 397.153 19.1465L397.148 19.2424C397.152 19.2848 397.159 19.358 397.148 19.3552L397.049 19.3863L396.775 18.8723L396.803 19.3055L396.553 18.8785L396.598 19.3411L396.29 18.7214L396.257 18.9601L396.174 19.0384L396.096 19.1355L395.95 19.0234L396.079 19.7658L395.72 18.9857L395.792 19.5508L395.754 19.7764L395.577 19.566L395.485 19.6179L395.302 19.3868L395.317 19.7745L395.297 20.0509L395.05 19.6529L395.065 20.0406L394.841 19.6851L394.94 20.3351L394.684 19.8484L394.703 20.2532L394.383 19.5977L394.552 20.4647L394.385 20.2865L394.097 19.7309L394.166 20.2846L394.031 20.2025L393.802 19.8359L393.944 20.6198L393.821 20.5755L393.633 20.3313L393.624 20.6493L393.403 20.2974L393.289 20.2813L393.382 20.9124L393.035 20.1682L393 20.4032L392.868 20.3363L392.938 20.8958L392.651 20.3402L392.72 20.8978L392.565 20.7592L392.344 20.4151L392.359 20.8028L392.194 20.6244L392.135 20.782L392.111 21.049L392.049 21.1914L391.965 21.2717L391.804 21.1085L391.726 21.2037L391.619 21.2142L391.421 20.9398L391.347 21.0522L391.399 21.5822L391.289 21.5833L391.184 21.5936L390.978 21.2909L390.879 21.3239L390.82 21.4834L390.65 21.292L390.743 21.9231L390.572 21.7335L390.531 21.9439L390.333 21.6656L390.27 21.808L390.204 21.9429C390.189 21.9775 390.072 21.6932 390.173 22.0842C390.179 22.1497 390.146 22.0868 390.409 22.9075L390.534 23.2845L390.754 23.9576L390.894 24.372C390.905 24.4099 390.919 24.4469 390.936 24.4826C390.971 24.5025 390.956 24.3717 390.971 24.3274L391.066 24.285L391.12 24.1104L391.29 24.298L391.488 24.5763L391.526 24.3527L391.703 24.5649L391.741 24.3393L391.824 24.2572L391.958 24.3335L391.94 23.9306L392.131 24.1881L392.296 24.3665L392.32 24.0956L392.534 24.4209L392.615 24.3313L392.675 24.1775L392.905 24.5557L392.89 24.168L392.887 23.82L393.153 24.3134L393.278 24.3575L393.182 23.7131L393.48 24.3007L393.429 23.7725L393.548 23.8036L393.676 23.863L393.9 24.2185L394.026 24.2704L393.938 23.6524L394.019 23.5627L394.378 24.337L394.278 23.6871L394.398 23.722L394.689 24.2889L394.638 23.7782L394.625 23.3902L394.984 24.1646L394.866 23.4522L395.119 23.908L395.088 23.4693L395.384 24.0493L395.258 23.3144L395.507 23.7337L395.476 23.2969L395.77 23.8694L395.736 23.427L395.814 23.3317L396.143 24.0156L396.236 23.9636L396.295 23.808L396.17 23.0769L396.301 23.1457L396.588 23.7013L396.732 23.8059L396.584 23.0012L396.877 23.5737L396.828 23.0764L397.016 23.3187L397.039 23.0478L397.137 23.009L397.254 23.0307L397.506 23.4807L397.635 23.542L397.736 23.5146L397.63 22.84L397.83 23.1219L398.12 23.6773L398.197 23.5763L398.214 23.2885L398.43 23.6234L398.34 23.0018L398.435 23.187L398.507 23.324C398.508 23.3413 398.56 23.4472 398.494 23.191C398.427 22.9348 398.231 22.3138 397.77 20.882L397.244 19.3536Z" fill="#FFBCA5"/>
<path d="M58.4059 79.5735C53.7984 78.0772 48.8523 77.9662 44.1821 79.2544C39.512 80.5427 35.3237 83.1733 32.1377 86.8196C28.9516 90.4658 26.9083 94.9668 26.2615 99.7634C25.6148 104.56 26.3931 109.441 28.4998 113.799L60.0859 111.006L58.4059 79.5735Z" fill="white"/>
<path d="M28.4989 114.443C28.5178 114.443 28.5367 114.443 28.5559 114.44L60.142 111.647C60.3086 111.632 60.463 111.554 60.5726 111.428C60.6822 111.301 60.7385 111.138 60.7295 110.971L59.0495 79.5386C59.0426 79.4086 58.9964 79.2838 58.917 79.1806C58.8377 79.0773 58.7289 79.0005 58.605 78.9602C53.8774 77.4249 48.8023 77.3111 44.0105 78.6329C39.2186 79.9547 34.9211 82.6539 31.652 86.3951C28.3828 90.1363 26.2861 94.7545 25.6223 99.6761C24.9586 104.598 25.757 109.606 27.9185 114.078C27.971 114.187 28.0534 114.279 28.1561 114.344C28.2587 114.408 28.3776 114.443 28.4989 114.443ZM59.4078 110.418L28.8899 113.116C27.4283 109.961 26.6759 106.525 26.6853 103.05C26.6885 99.2923 27.5726 95.5879 29.2666 92.2333C30.9607 88.8787 33.4177 85.967 36.4408 83.7316C39.4639 81.4961 42.9691 79.9991 46.6755 79.3603C50.382 78.7215 54.1867 78.9588 57.7848 80.0531L59.4078 110.418Z" fill="#3C4043"/>
<path d="M64.9059 85.9968C67.0135 85.6531 69.7565 85.2234 72.1221 82.8603L75.778 78.3488L79.0664 80.9427C78.3997 78.4292 77.346 76.2164 75.2169 74.7341C73.5202 73.5553 71.5319 72.8648 69.4691 72.7381C67.4063 72.6113 65.3483 73.0531 63.5197 74.0152C61.6912 74.9773 60.1623 76.4228 59.1001 78.1938C58.0379 79.9648 57.4832 81.9932 57.4964 84.0578V84.8097L58.1435 84.3656C58.4375 84.0649 58.6188 84.1035 59.0038 83.936C60.4074 83.3248 61.939 83.5362 63.3313 84.2483C64.0497 84.6231 64.6088 85.244 64.9059 85.9973V85.9968Z" fill="white"/>
<path d="M64.9051 86.6417C64.9399 86.6418 64.9747 86.639 65.0091 86.6333L65.0638 86.6245C67.1829 86.2808 70.0853 85.8082 72.5776 83.3174C72.5935 83.3013 72.6085 83.2845 72.6229 83.2671L75.8771 79.2504L78.666 81.4488C78.7722 81.5326 78.9022 81.5809 79.0375 81.5868C79.1728 81.5928 79.3065 81.556 79.4197 81.4818C79.533 81.4076 79.6199 81.2997 79.6683 81.1733C79.7167 81.047 79.7241 80.9086 79.6894 80.7779C79.1707 78.8229 78.1808 76.0129 75.5851 74.2057C73.7913 72.9594 71.6892 72.2293 69.5083 72.0953C67.3274 71.9612 65.1516 72.4282 63.2183 73.4454C61.2851 74.4626 59.6688 75.9909 58.5458 77.8633C57.4229 79.7357 56.8365 81.8804 56.8506 84.0631V84.81C56.8506 84.9275 56.8827 85.0427 56.9435 85.1432C57.0043 85.2438 57.0914 85.3258 57.1955 85.3805C57.2995 85.4352 57.4166 85.4604 57.5339 85.4534C57.6513 85.4465 57.7645 85.4077 57.8614 85.3411L58.5085 84.8964C58.5427 84.8729 58.5745 84.8462 58.6035 84.8165C58.6779 84.7361 58.7768 84.6827 58.8848 84.6646C59.0126 84.6253 59.1381 84.5793 59.261 84.5267C60.6891 83.905 62.1025 84.3441 63.0365 84.8221C63.6168 85.1256 64.0679 85.6283 64.3068 86.2376C64.3548 86.3569 64.4374 86.4591 64.544 86.5311C64.6506 86.6031 64.7764 86.6416 64.9051 86.6417ZM71.6406 82.4295C69.596 84.4575 67.2444 84.9551 65.2767 85.2831C64.8972 84.5954 64.3218 84.0356 63.6236 83.6749C61.9526 82.8194 60.2197 82.7025 58.7442 83.3451C58.6611 83.3801 58.5763 83.4107 58.49 83.4368C58.3726 83.4719 58.258 83.516 58.1474 83.5687C58.2223 81.6648 58.8085 79.816 59.8443 78.2161C60.8802 76.6162 62.3278 75.324 64.0353 74.4749C65.7428 73.6258 67.6475 73.2511 69.5498 73.3899C71.4521 73.5288 73.2821 74.1762 74.8479 75.2642C76.1352 76.1594 77.0761 77.382 77.7838 79.1112L76.1771 77.8437C76.0439 77.7386 75.8746 77.6902 75.7059 77.709C75.5372 77.7277 75.3827 77.8122 75.2758 77.944L71.6406 82.4295Z" fill="#3C4043"/>
<path d="M6.10237 175.556C6.10237 175.54 9.6325 196.814 13.2207 207.016L22.2334 178.678L6.10237 175.556Z" fill="#FFF1ED"/>
<path d="M13.2208 207.66H13.2307C13.366 207.658 13.4973 207.613 13.6059 207.533C13.7145 207.452 13.7949 207.339 13.8359 207.211L22.8486 178.873C22.8762 178.786 22.8851 178.694 22.8747 178.604C22.8643 178.514 22.8349 178.427 22.7884 178.348C22.742 178.27 22.6794 178.203 22.6049 178.15C22.5304 178.098 22.4457 178.062 22.3563 178.045L6.22596 174.923C6.16781 174.912 6.10843 174.909 6.0494 174.913C5.95924 174.921 5.87168 174.947 5.79239 174.991C5.71309 175.034 5.64384 175.094 5.58911 175.166C5.53437 175.238 5.49538 175.321 5.47465 175.408C5.45391 175.496 5.4519 175.588 5.46875 175.677L5.48058 175.745C6.09134 179.353 9.30511 197.826 12.6131 207.229C12.6573 207.355 12.7396 207.464 12.8484 207.541C12.9572 207.618 13.0874 207.66 13.2208 207.66ZM21.3993 179.173L13.2081 204.928C10.364 195.87 7.69973 181.032 6.89564 176.367L21.3993 179.173Z" fill="#3C4043"/>
<path d="M47.8594 112.261C44.1421 111.015 40.1815 110.669 36.3043 111.253C32.4271 111.837 28.7445 113.334 25.5604 115.62C22.3762 117.905 19.7819 120.915 17.9915 124.4C16.201 127.884 15.2658 131.745 15.2629 135.662L47.8594 112.261Z" fill="white"/>
<path d="M15.263 136.306C15.3981 136.306 15.5298 136.264 15.6396 136.185L48.2351 112.785C48.3316 112.716 48.407 112.621 48.4531 112.512C48.4993 112.403 48.5144 112.283 48.4967 112.165C48.4791 112.048 48.4294 111.938 48.3531 111.847C48.2768 111.756 48.1769 111.688 48.0644 111.65C44.2502 110.372 40.1862 110.017 36.2079 110.616C32.2296 111.216 28.4509 112.751 25.1837 115.097C21.9166 117.442 19.2546 120.53 17.4175 124.106C15.5803 127.682 14.6207 131.642 14.6178 135.662C14.6178 135.832 14.6858 135.996 14.8068 136.117C14.9278 136.238 15.0919 136.306 15.263 136.306ZM46.4261 112.496L15.9419 134.38C16.137 130.787 17.1362 127.284 18.8659 124.128C20.5957 120.972 23.0119 118.243 25.9368 116.144C28.8617 114.044 32.2208 112.626 35.7667 111.995C39.3126 111.364 42.9552 111.535 46.4261 112.496Z" fill="#3C4043"/>
<path d="M110.293 121.784C110.193 121.027 109.798 116.773 109.457 112.515L109.9 96.9806C111.217 89.7888 113.818 82.1402 116.701 82.9204C119.346 83.6294 117.432 88.1838 116.141 97.1208C118.658 89.4084 121.066 83.9302 123.711 84.9828C126.335 86.0355 123.754 93.8124 121.754 99.7418C124.744 96.5838 128.636 92.1367 130.529 93.2753C133.238 94.9081 130.077 98.8395 128.249 101.632C124.184 107.862 126.658 110.505 128.098 114.995C129.066 117.981 127.647 121.375 125.217 124.77" fill="#FFF1ED"/>
<path d="M125.217 125.414C125.32 125.415 125.421 125.39 125.512 125.343C125.604 125.296 125.683 125.228 125.742 125.145C128.672 121.053 129.643 117.669 128.713 114.796C128.446 113.966 128.149 113.207 127.861 112.471C126.573 109.184 125.643 106.809 128.79 101.984C128.999 101.666 129.225 101.332 129.457 100.988C130.922 98.8265 132.582 96.3766 132.16 94.4558C132.077 94.0922 131.919 93.7501 131.696 93.4517C131.473 93.1533 131.189 92.9053 130.863 92.724C128.955 91.5749 126.138 94.1864 123.283 97.1807C125.396 90.6347 126.576 85.4377 123.952 84.3853C123.641 84.2578 123.306 84.198 122.969 84.21C122.633 84.2219 122.303 84.3054 122.001 84.4547C120.688 85.0693 119.435 86.8155 118.008 90.1432C118.393 88.0929 118.68 86.4481 118.673 85.2309C118.669 84.6242 118.659 82.7781 116.869 82.2984C116.547 82.2143 116.21 82.2005 115.882 82.2579C115.555 82.3154 115.243 82.4427 114.969 82.6312C111.721 84.6768 109.783 94.0431 109.266 96.8649C109.26 96.8972 109.257 96.9298 109.256 96.9626L108.812 112.498C108.811 112.521 108.812 112.544 108.814 112.568C109.148 116.729 109.546 121.059 109.652 121.868C109.663 121.953 109.689 122.035 109.732 122.109C109.774 122.183 109.83 122.248 109.897 122.301C109.965 122.353 110.042 122.391 110.124 122.414C110.207 122.436 110.293 122.442 110.377 122.431C110.462 122.419 110.544 122.392 110.617 122.349C110.691 122.306 110.756 122.249 110.807 122.181C110.859 122.113 110.896 122.035 110.918 121.953C110.939 121.87 110.944 121.784 110.932 121.7C110.838 120.995 110.45 116.826 110.102 112.499L110.543 97.0488C111.82 90.1035 113.826 84.8747 115.657 83.7215C115.78 83.6282 115.922 83.5637 116.074 83.5328C116.225 83.5019 116.382 83.5054 116.532 83.5429C117.82 83.8882 117.485 85.9609 116.605 90.6158C116.256 92.4634 115.86 94.5595 115.503 97.0292C115.48 97.1888 115.518 97.3512 115.609 97.4843C115.7 97.6174 115.838 97.7116 115.995 97.7482C116.152 97.7848 116.317 97.7613 116.458 97.6822C116.599 97.6031 116.705 97.4742 116.755 97.321C118.24 92.7676 120.457 86.6008 122.548 85.6216C122.69 85.5482 122.846 85.5066 123.006 85.4998C123.166 85.4929 123.325 85.521 123.473 85.5821C125.567 86.4221 122.579 95.2796 121.143 99.5365C121.096 99.6758 121.098 99.8268 121.149 99.9647C121.2 100.103 121.296 100.219 121.422 100.295C121.548 100.37 121.696 100.401 121.842 100.381C121.988 100.361 122.122 100.292 122.223 100.185C122.482 99.9118 122.747 99.6291 123.018 99.3412C125.223 96.9903 128.915 93.0557 130.196 93.828C130.372 93.9194 130.525 94.0476 130.647 94.2039C130.768 94.3601 130.855 94.5407 130.9 94.7333C131.204 96.1128 129.643 98.4155 128.389 100.266C128.152 100.616 127.922 100.955 127.709 101.28C124.199 106.661 125.339 109.571 126.659 112.941C126.938 113.657 127.23 114.399 127.484 115.192C128.28 117.649 127.367 120.659 124.692 124.395C124.623 124.492 124.582 124.605 124.574 124.723C124.565 124.841 124.589 124.959 124.643 125.065C124.697 125.17 124.78 125.259 124.881 125.32C124.982 125.382 125.098 125.415 125.217 125.415L125.217 125.414Z" fill="#3C4043"/>
<path d="M118.27 116.1C118.225 112.311 115.584 109.054 114.014 105.062C111.82 99.5297 109.927 96.189 108.532 95.9914C105.326 95.5645 109.34 109.147 109.976 117.235" fill="#FFF1ED"/>
<path d="M109.974 117.88C109.991 117.88 110.008 117.88 110.026 117.878C110.11 117.872 110.192 117.849 110.268 117.81C110.343 117.772 110.411 117.719 110.466 117.654C110.521 117.59 110.563 117.515 110.589 117.435C110.615 117.354 110.625 117.27 110.618 117.185C110.402 114.43 109.801 111.072 109.223 107.825C108.409 103.265 107.395 97.5907 108.276 96.6713C108.304 96.6425 108.33 96.6152 108.446 96.6309C108.821 96.6844 110.307 97.47 113.413 105.3C113.957 106.621 114.568 107.914 115.243 109.174C116.453 111.523 117.596 113.742 117.623 116.108C117.626 116.278 117.694 116.44 117.815 116.559C117.936 116.678 118.099 116.745 118.269 116.745H118.276C118.361 116.744 118.445 116.727 118.523 116.693C118.601 116.66 118.671 116.612 118.73 116.551C118.79 116.491 118.836 116.419 118.868 116.34C118.899 116.262 118.915 116.178 118.914 116.093C118.883 113.423 117.672 111.073 116.39 108.584C115.735 107.362 115.142 106.108 114.614 104.827C111.402 96.7293 109.725 95.511 108.622 95.3539C108.391 95.3149 108.153 95.3334 107.93 95.4077C107.707 95.482 107.506 95.6099 107.345 95.7801C106.076 97.1052 106.749 101.306 107.953 108.051C108.527 111.268 109.12 114.594 109.332 117.286C109.345 117.448 109.418 117.599 109.537 117.709C109.656 117.819 109.812 117.88 109.974 117.88Z" fill="#3C4043"/>
<path d="M17.8207 252.208C17.6846 259.184 16.1966 266.499 10.5353 268.062C4.77185 269.652 0.922379 274.873 1.37399 280.888L29.0945 280.694L40.3419 263.035L40.2558 280.694H49.2021L49.2451 252.057L17.8207 252.208Z" fill="#E7F1FF"/>
<path d="M1.37434 281.532H1.37885L29.0994 281.339C29.2072 281.338 29.313 281.31 29.4073 281.258C29.5016 281.206 29.5813 281.131 29.6392 281.04L39.6863 265.266L39.611 280.691C39.6106 280.775 39.627 280.86 39.6592 280.938C39.6914 281.017 39.7389 281.088 39.7988 281.148C39.8588 281.209 39.9301 281.256 40.0085 281.289C40.087 281.321 40.1712 281.338 40.2562 281.338H49.2025C49.3736 281.338 49.5377 281.27 49.6587 281.149C49.7796 281.029 49.8476 280.865 49.8476 280.694L49.8906 252.057C49.8906 251.886 49.8227 251.722 49.7017 251.601C49.5807 251.48 49.4166 251.412 49.2455 251.412H49.2424L17.8178 251.562C17.6494 251.563 17.488 251.63 17.3681 251.748C17.2481 251.866 17.1791 252.026 17.1759 252.195C17.0021 261.111 14.7101 266.241 10.3638 267.441C4.22295 269.134 0.261642 274.684 0.730892 280.936C0.742996 281.098 0.816044 281.249 0.935379 281.36C1.05472 281.471 1.21152 281.532 1.37434 281.532ZM28.7392 280.052L1.98767 280.239C1.85283 274.857 5.36617 270.157 10.7075 268.684C15.5593 267.344 18.1628 262.018 18.4494 252.849L48.5988 252.705L48.5577 280.05H40.9039L40.9867 263.038C40.9874 262.898 40.9426 262.762 40.859 262.65C40.7754 262.538 40.6577 262.456 40.5234 262.417C40.3892 262.377 40.2458 262.383 40.1148 262.432C39.9838 262.481 39.8724 262.571 39.7973 262.689L28.7392 280.052Z" fill="#3C4043"/>
<path d="M18.5861 128.091L18.5878 128.09L53.4751 105.491L53.6186 105.412C54.6468 104.847 55.7374 104.405 56.8677 104.096C56.7218 106.655 58.1537 109.37 60.3002 110.707L60.3003 110.707C62.3608 111.989 64.5018 111.575 66.1576 110.376C67.6041 109.329 68.7194 107.665 69.176 105.921C71.2367 107.134 73.1734 108.778 74.959 110.772C86.5884 123.759 92.4213 130.237 95.3472 133.469C96.8099 135.085 97.547 135.89 97.9189 136.292C98.1045 136.493 98.2011 136.595 98.2523 136.648C98.2771 136.674 98.2954 136.692 98.3097 136.706C98.3118 136.708 98.3153 136.711 98.3197 136.715C98.3268 136.722 98.3364 136.73 98.3475 136.739C98.3536 136.744 98.3794 136.765 98.4159 136.785C98.4311 136.794 98.4778 136.819 98.5436 136.835C98.5777 136.843 98.6383 136.854 98.7137 136.846C98.7577 136.839 98.8252 136.821 98.8492 136.812C98.9261 136.772 98.9951 136.72 98.6603 136.349L98.9951 136.72L99.088 136.637L99.1305 136.519L106.401 116.429L129.719 124.855L119.954 151.797L119.954 151.797C118.678 155.331 116.468 158.454 113.558 160.833C110.648 163.212 107.146 164.758 103.426 165.308C102.41 165.458 101.385 165.535 100.358 165.539C98.1747 165.538 96.0053 165.193 93.9301 164.518C93.9058 164.426 93.8748 164.321 93.8384 164.205C93.7488 163.92 93.6199 163.548 93.4585 163.107C93.1352 162.222 92.6745 161.036 92.1187 159.653C91.0068 156.887 89.5093 153.317 87.9575 149.763C86.406 146.21 84.798 142.665 83.4652 139.95C82.7993 138.593 82.1985 137.436 81.7056 136.586C81.4596 136.162 81.2353 135.805 81.039 135.535C80.941 135.4 80.8446 135.279 80.7511 135.18C80.6637 135.087 80.5523 134.984 80.4211 134.917C80.4211 134.917 80.4211 134.917 80.4211 134.917L80.193 135.362L18.5861 128.091ZM18.5861 128.091C17.1647 129.004 15.9442 130.196 14.9987 131.595C14.0533 132.994 13.4027 134.571 13.0867 136.229L5.54568 176.187L20.459 178.913C20.9971 177.705 22.0279 175.82 23.2883 173.63C24.6949 171.185 26.4066 168.328 28.0861 165.542C28.4923 164.868 28.8966 164.198 29.2942 163.539C30.542 161.473 31.7246 159.514 32.6977 157.87C33.3392 156.786 33.8875 155.842 34.302 155.097C34.7042 154.374 34.9633 153.868 35.0676 153.603L36.4484 146.289L36.4884 146.077L36.67 145.961L41.4691 142.887L18.5861 128.091Z" fill="#FFED96" stroke="#3C4043"/>
<path d="M44.2326 135.962C44.3235 135.962 44.4134 135.943 44.4964 135.906C44.5795 135.869 44.6537 135.815 44.7143 135.747C44.7749 135.679 44.8205 135.6 44.8481 135.513C44.8758 135.427 44.8848 135.335 44.8745 135.245C44.6415 133.323 44.9285 131.374 45.7057 129.601C46.5534 127.66 46.8604 125.526 46.5945 123.425C46.5742 123.255 46.4872 123.1 46.3527 122.995C46.2182 122.889 46.0471 122.841 45.8772 122.862C45.7073 122.882 45.5524 122.969 45.4467 123.103C45.3409 123.237 45.2929 123.408 45.3133 123.578C45.5511 125.451 45.2784 127.353 44.5238 129.084C43.6546 131.065 43.333 133.242 43.5924 135.39C43.6101 135.547 43.6852 135.692 43.8033 135.798C43.9213 135.903 44.0742 135.962 44.2326 135.962Z" fill="#3C4043"/>
<path d="M81.0494 135.962C81.069 135.962 81.089 135.962 81.109 135.959C81.2794 135.943 81.4366 135.861 81.546 135.729C81.6555 135.598 81.7082 135.429 81.6926 135.258C81.4131 132.221 80.2225 129.509 79.2724 127.769C78.14 125.694 77.4061 123.425 77.1087 121.081C77.0858 120.913 76.9975 120.761 76.863 120.657C76.7285 120.554 76.5586 120.507 76.3901 120.528C76.2216 120.549 76.0682 120.636 75.963 120.769C75.8579 120.902 75.8095 121.071 75.8283 121.239C76.1449 123.744 76.9282 126.167 78.1376 128.384C79.0307 130.02 80.1481 132.559 80.4068 135.377C80.4216 135.537 80.4957 135.685 80.6146 135.794C80.7335 135.902 80.8885 135.962 81.0494 135.962Z" fill="#3C4043"/>
<path d="M124.146 245.999C123.544 254.099 125.544 266.473 138.899 268.492C144.813 269.395 148.512 274.658 148.06 280.673L114.383 280.695L101.415 263.68L101.501 280.48H92.5549L92.5119 258.514L124.146 245.999Z" fill="#E7F1FF"/>
<path d="M114.382 281.339L148.059 281.318C148.222 281.318 148.379 281.256 148.498 281.146C148.617 281.035 148.69 280.884 148.702 280.722C149.193 274.199 145.11 268.788 138.995 267.855C124.868 265.719 124.354 251.893 124.789 246.047C124.797 245.938 124.777 245.829 124.731 245.729C124.686 245.63 124.615 245.544 124.527 245.48C124.439 245.415 124.336 245.374 124.227 245.36C124.119 245.346 124.009 245.36 123.907 245.4L92.2724 257.915C92.1516 257.962 92.048 258.045 91.9751 258.152C91.9022 258.26 91.8634 258.387 91.8638 258.516L91.9068 280.482C91.9071 280.653 91.9753 280.816 92.0962 280.937C92.2172 281.058 92.3811 281.125 92.552 281.125H101.498C101.583 281.125 101.667 281.109 101.746 281.076C101.824 281.043 101.896 280.996 101.956 280.935C102.016 280.875 102.063 280.804 102.095 280.725C102.127 280.647 102.144 280.562 102.143 280.477L102.067 265.604L113.868 281.085C113.929 281.164 114.006 281.228 114.095 281.272C114.184 281.316 114.282 281.339 114.382 281.339ZM147.447 280.029L114.701 280.05L101.927 263.29C101.845 263.182 101.731 263.103 101.602 263.064C101.473 263.024 101.334 263.026 101.206 263.07C101.078 263.114 100.967 263.196 100.888 263.306C100.81 263.416 100.768 263.548 100.769 263.684L100.851 279.836H93.1973L93.1565 258.952L123.442 246.971C123.303 250.141 123.522 255.259 125.706 259.805C128.231 265.06 132.637 268.197 138.801 269.129C144.045 269.93 147.604 274.466 147.447 280.029V280.029Z" fill="#3C4043"/>
<path d="M83.6034 141.334L125.539 245.205L91.4314 258.954L61.0253 183.622L50.0119 202.819V252.058H13.2161V197.77C13.2161 197.318 13.2457 196.867 13.3045 196.418L19.4705 181.95L42.5925 141.334H83.6034Z" fill="white"/>
<path d="M402.751 82.4328C402.884 81.2904 403.383 80.2211 404.172 79.3836C404.962 78.5461 406.001 77.9848 407.135 77.783C408.269 77.5812 409.438 77.7495 410.469 78.263C411.5 78.7766 412.338 79.608 412.858 80.6342C413.379 81.6603 413.554 82.8265 413.359 83.96C413.163 85.0935 412.607 86.1339 411.773 86.9271C410.938 87.7204 409.87 88.2241 408.727 88.3638C407.583 88.5035 406.425 88.2717 405.424 87.7027" fill="#FFF1ED"/>
<path d="M407.248 101.973C407.251 103.599 406.613 105.161 405.471 106.321C404.329 107.481 402.775 108.145 401.146 108.169C399.518 108.194 397.944 107.577 396.768 106.453C395.591 105.328 394.905 103.786 394.859 102.16V102.152L394.835 101.276L394.74 97.8371C393.137 97.4039 391.67 96.5708 390.478 95.4161C389.286 94.2613 388.407 92.8229 387.925 91.2361C387.443 89.6492 387.372 87.966 387.721 86.3446C388.07 84.7232 388.825 83.2169 389.917 81.9674C389.622 81.2411 389.416 80.4819 389.303 79.7063V79.7032C389.01 77.7765 389.302 75.8062 390.143 74.0474L395.497 73.2671L402.513 74.2649L404.018 78.434L406.357 76.9323" fill="#FFF1ED"/>
<path d="M401.043 108.666C399.302 108.665 397.63 107.986 396.382 106.774C395.133 105.562 394.407 103.912 394.357 102.175L394.248 98.2164C392.636 97.7171 391.171 96.8296 389.983 95.6319C388.794 94.4343 387.919 92.9634 387.434 91.3487C386.95 89.7339 386.87 88.025 387.203 86.3724C387.535 84.7197 388.27 83.1741 389.342 81.8715C388.862 80.5758 388.646 79.1976 388.705 77.8175C388.765 76.4374 389.099 75.083 389.689 73.8333C389.725 73.7591 389.778 73.6948 389.844 73.646C389.91 73.5972 389.988 73.5655 390.069 73.5537L395.423 72.7732C395.471 72.7664 395.519 72.7664 395.566 72.7732L402.582 73.771C402.673 73.7838 402.758 73.8208 402.828 73.8782C402.899 73.9356 402.952 74.0111 402.983 74.0967L404.275 77.6742L406.084 76.5123C406.139 76.4763 406.201 76.4515 406.266 76.4395C406.331 76.4274 406.398 76.4283 406.462 76.4421C406.527 76.4559 406.588 76.4823 406.643 76.5199C406.697 76.5574 406.743 76.6052 406.779 76.6607C406.815 76.7162 406.839 76.7782 406.851 76.8431C406.863 76.908 406.861 76.9746 406.847 77.039C406.833 77.1034 406.806 77.1644 406.768 77.2184C406.73 77.2725 406.682 77.3185 406.626 77.3538L404.287 78.8557C404.224 78.8964 404.152 78.9223 404.078 78.9315C404.003 78.9407 403.927 78.9329 403.856 78.9088C403.784 78.8846 403.719 78.8447 403.665 78.7921C403.612 78.7394 403.57 78.6753 403.545 78.6046L402.142 74.7189L395.495 73.7738L390.483 74.5032C389.77 76.1116 389.532 77.8898 389.797 79.6287C389.797 79.6343 389.799 79.6432 389.8 79.649C389.908 80.3797 390.103 81.0948 390.381 81.7791C390.416 81.8649 390.426 81.9586 390.411 82.0499C390.396 82.1411 390.355 82.2264 390.294 82.2961C389.258 83.4818 388.541 84.911 388.21 86.4494C387.879 87.9879 387.946 89.585 388.404 91.0907C388.861 92.5964 389.695 93.9612 390.826 95.0569C391.957 96.1526 393.349 96.9431 394.87 97.3542C394.974 97.3823 395.066 97.4431 395.133 97.5276C395.2 97.6121 395.237 97.7158 395.24 97.8234L395.359 102.139C395.4 103.633 396.03 105.051 397.111 106.086C398.192 107.12 399.637 107.688 401.135 107.667C402.632 107.645 404.06 107.035 405.111 105.97C406.161 104.904 406.749 103.468 406.746 101.973C406.746 101.841 406.799 101.713 406.893 101.62C406.987 101.526 407.115 101.473 407.248 101.473C407.38 101.473 407.508 101.526 407.602 101.619C407.696 101.713 407.748 101.84 407.749 101.973C407.761 103.718 407.086 105.398 405.868 106.65C404.649 107.903 402.987 108.626 401.239 108.664C401.173 108.665 401.108 108.666 401.043 108.666Z" fill="#222433"/>
<mask id="path-53-inside-1" fill="white">
<path d="M409.24 77.7242C409.123 75.4353 408.24 73.2517 406.734 71.5223C405.227 69.793 403.183 68.6178 400.929 68.1847C398.674 67.7515 396.34 68.0854 394.298 69.133C392.256 70.1805 390.625 71.8813 389.665 73.9633C389.633 74.0337 389.618 74.1111 389.623 74.1884C389.628 74.2657 389.652 74.3407 389.693 74.4064C389.734 74.4722 389.791 74.5268 389.858 74.5653C389.926 74.6037 390.001 74.6249 390.079 74.6269L400.987 74.9017C401.391 74.9137 401.774 75.0842 402.053 75.3763C402.332 75.6683 402.484 76.0583 402.477 76.4617L402.338 82.4366C402.338 82.4366 403.643 79.9366 404.32 79.3014C406.746 77.0262 409.24 77.7242 409.24 77.7242Z"/>
</mask>
<path d="M409.24 77.7242C409.123 75.4353 408.24 73.2517 406.734 71.5223C405.227 69.793 403.183 68.6178 400.929 68.1847C398.674 67.7515 396.34 68.0854 394.298 69.133C392.256 70.1805 390.625 71.8813 389.665 73.9633C389.633 74.0337 389.618 74.1111 389.623 74.1884C389.628 74.2657 389.652 74.3407 389.693 74.4064C389.734 74.4722 389.791 74.5268 389.858 74.5653C389.926 74.6037 390.001 74.6249 390.079 74.6269L400.987 74.9017C401.391 74.9137 401.774 75.0842 402.053 75.3763C402.332 75.6683 402.484 76.0583 402.477 76.4617L402.338 82.4366C402.338 82.4366 403.643 79.9366 404.32 79.3014C406.746 77.0262 409.24 77.7242 409.24 77.7242Z" fill="white"/>
<path d="M409.24 77.7242L408.97 78.6872L410.309 79.0621L410.238 77.6732L409.24 77.7242ZM389.665 73.9633L388.757 73.5447L388.757 73.5449L389.665 73.9633ZM390.079 74.6269L390.054 75.6266L390.054 75.6266L390.079 74.6269ZM400.987 74.9017L401.017 73.9021L401.013 73.902L400.987 74.9017ZM402.477 76.4617L403.476 76.4848L403.476 76.48L402.477 76.4617ZM402.338 82.4366L401.338 82.4134L403.225 82.8994L402.338 82.4366ZM404.32 79.3014L403.636 78.572L403.635 78.5723L404.32 79.3014ZM410.238 77.6732C410.11 75.1604 409.141 72.7635 407.488 70.8654L405.98 72.1792C407.339 73.7398 408.135 75.7102 408.241 77.7753L410.238 77.6732ZM407.488 70.8654C405.834 68.9674 403.591 67.6779 401.118 67.2026L400.74 69.1667C402.775 69.5577 404.62 70.6185 405.98 72.1792L407.488 70.8654ZM401.118 67.2026C398.644 66.7274 396.082 67.0937 393.841 68.2432L394.754 70.0227C396.597 69.0771 398.705 68.7757 400.74 69.1667L401.118 67.2026ZM393.841 68.2432C391.601 69.3928 389.81 71.2593 388.757 73.5447L390.573 74.3819C391.439 72.5032 392.911 70.9683 394.754 70.0227L393.841 68.2432ZM388.757 73.5449C388.655 73.7658 388.61 74.0086 388.625 74.2515L390.621 74.1253C390.627 74.2135 390.61 74.3016 390.573 74.3817L388.757 73.5449ZM388.625 74.2515C388.64 74.4944 388.716 74.7295 388.845 74.9359L390.541 73.877C390.588 73.9518 390.615 74.0371 390.621 74.1253L388.625 74.2515ZM388.845 74.9359C388.973 75.1422 389.151 75.3132 389.362 75.4337L390.354 73.6968C390.43 73.7404 390.495 73.8022 390.541 73.877L388.845 74.9359ZM389.362 75.4337C389.573 75.5542 389.811 75.6204 390.054 75.6266L390.104 73.6272C390.192 73.6294 390.278 73.6533 390.354 73.6968L389.362 75.4337ZM390.054 75.6266L400.962 75.9014L401.013 73.902L390.104 73.6272L390.054 75.6266ZM400.958 75.9013C401.099 75.9055 401.233 75.9651 401.33 76.0668L402.776 74.6857C402.316 74.2033 401.684 73.922 401.017 73.9021L400.958 75.9013ZM401.33 76.0668C401.427 76.1684 401.479 76.3037 401.477 76.4433L403.476 76.48C403.489 75.8129 403.237 75.1682 402.776 74.6857L401.33 76.0668ZM401.477 76.4385L401.338 82.4134L403.338 82.4598L403.476 76.4848L401.477 76.4385ZM402.338 82.4366C403.225 82.8994 403.225 82.8994 403.225 82.8995C403.225 82.8995 403.225 82.8995 403.225 82.8995C403.225 82.8994 403.225 82.8994 403.225 82.8993C403.225 82.8991 403.225 82.8988 403.225 82.8983C403.226 82.8974 403.226 82.8959 403.228 82.8937C403.23 82.8895 403.233 82.883 403.238 82.8743C403.247 82.857 403.261 82.831 403.278 82.7974C403.314 82.7303 403.366 82.633 403.431 82.514C403.561 82.2755 403.74 81.9522 403.939 81.611C404.139 81.2681 404.354 80.9161 404.555 80.6169C404.769 80.2982 404.924 80.1056 405.004 80.0304L403.635 78.5723C403.377 78.8147 403.116 79.1729 402.895 79.5015C402.661 79.8498 402.422 80.2419 402.211 80.6034C402 80.9666 401.81 81.308 401.674 81.5581C401.606 81.6834 401.551 81.7864 401.513 81.8584C401.493 81.8945 401.478 81.9228 401.468 81.9424C401.463 81.9522 401.459 81.9598 401.456 81.9651C401.455 81.9677 401.454 81.9698 401.453 81.9712C401.453 81.972 401.452 81.9725 401.452 81.973C401.452 81.9732 401.452 81.9734 401.452 81.9735C401.452 81.9736 401.452 81.9737 401.452 81.9737C401.452 81.9738 401.452 81.9738 402.338 82.4366ZM405.004 80.0307C406.042 79.0569 407.065 78.7406 407.807 78.6526C408.184 78.608 408.494 78.6218 408.703 78.6447C408.807 78.6562 408.884 78.6698 408.931 78.6791C408.954 78.6838 408.969 78.6874 408.976 78.689C408.98 78.6898 408.981 78.6901 408.98 78.6899C408.979 78.6898 408.978 78.6895 408.977 78.689C408.976 78.6888 408.975 78.6886 408.974 78.6883C408.973 78.6881 408.973 78.688 408.972 78.6878C408.972 78.6877 408.971 78.6876 408.971 78.6875C408.971 78.6874 408.97 78.6872 409.24 77.7242C409.509 76.7613 409.509 76.7611 409.508 76.761C409.508 76.7609 409.507 76.7608 409.507 76.7606C409.506 76.7604 409.506 76.7602 409.505 76.76C409.503 76.7595 409.501 76.759 409.499 76.7585C409.495 76.7574 409.49 76.7561 409.485 76.7547C409.475 76.752 409.462 76.7487 409.446 76.7449C409.415 76.7375 409.374 76.7282 409.325 76.7183C409.225 76.6983 409.089 76.6752 408.921 76.6567C408.587 76.6199 408.122 76.6013 407.572 76.6666C406.46 76.7984 405.023 77.2706 403.636 78.572L405.004 80.0307Z" fill="#3C4043" mask="url(#path-53-inside-1)"/>
<path d="M407.25 102.473C407.118 102.473 406.991 102.421 406.897 102.328C406.804 102.236 406.75 102.11 406.749 101.978L406.603 88.405C406.602 88.3393 406.614 88.2741 406.639 88.2132C406.663 88.1522 406.699 88.0966 406.746 88.0497C406.792 88.0027 406.846 87.9653 406.907 87.9395C406.967 87.9137 407.032 87.9 407.098 87.8993C407.164 87.8986 407.229 87.9108 407.29 87.9353C407.352 87.9598 407.407 87.9961 407.454 88.042C407.501 88.088 407.539 88.1427 407.565 88.2032C407.59 88.2636 407.604 88.3285 407.605 88.3942L407.751 101.967C407.752 102.033 407.739 102.098 407.715 102.159C407.69 102.22 407.654 102.276 407.608 102.323C407.562 102.37 407.507 102.407 407.447 102.433C407.386 102.459 407.321 102.472 407.255 102.473H407.25Z" fill="#222433"/>
<path d="M397.469 82.1523C398.039 82.1523 398.502 81.6906 398.502 81.121C398.502 80.5514 398.039 80.0897 397.469 80.0897C396.898 80.0897 396.436 80.5514 396.436 81.121C396.436 81.6906 396.898 82.1523 397.469 82.1523Z" fill="#222433"/>
<path d="M390.256 82.1243C390.826 82.1243 391.289 81.6626 391.289 81.0931C391.289 80.5235 390.826 80.0618 390.256 80.0618C389.685 80.0618 389.223 80.5235 389.223 81.0931C389.223 81.6626 389.685 82.1243 390.256 82.1243Z" fill="#222433"/>
<path d="M392.152 84.5959C392.079 84.5959 392.007 84.5798 391.94 84.5487C391.874 84.5176 391.815 84.4724 391.768 84.4161C391.721 84.3598 391.687 84.2939 391.668 84.223C391.649 84.1521 391.646 84.078 391.659 84.0059L392.459 79.6243C392.487 79.497 392.562 79.3854 392.671 79.313C392.779 79.2406 392.911 79.2132 393.04 79.2365C393.168 79.2599 393.282 79.3321 393.357 79.438C393.433 79.5439 393.465 79.6751 393.445 79.8037L392.76 83.559L394.898 83.4342C395.031 83.4265 395.161 83.4716 395.261 83.5598C395.36 83.648 395.42 83.772 395.428 83.9045C395.436 84.037 395.391 84.1671 395.302 84.2663C395.214 84.3655 395.09 84.4256 394.957 84.4333L392.183 84.5951C392.172 84.5958 392.163 84.5959 392.152 84.5959Z" fill="#222433"/>
<path d="M408.135 88.918C407.118 88.9183 406.117 88.6542 405.233 88.1517C405.176 88.1193 405.125 88.0759 405.084 88.0239C405.044 87.972 405.014 87.9126 404.996 87.849C404.979 87.7855 404.974 87.7192 404.982 87.6538C404.99 87.5884 405.011 87.5253 405.044 87.468C405.077 87.4108 405.121 87.3606 405.173 87.3203C405.225 87.2799 405.285 87.2503 405.348 87.2331C405.412 87.2159 405.479 87.2114 405.544 87.2199C405.61 87.2284 405.673 87.2497 405.73 87.2827C406.463 87.699 407.292 87.9177 408.135 87.9174H408.138C409.427 87.9171 410.663 87.4055 411.575 86.4952C412.486 85.5849 412.998 84.3504 412.998 83.0634C412.997 81.7763 412.485 80.542 411.573 79.6321C410.661 78.7222 409.425 78.2112 408.135 78.2115H408.133C406.941 78.2107 405.79 78.6478 404.9 79.4395C404.01 80.2312 403.442 81.3222 403.306 82.5046C403.291 82.6364 403.224 82.7569 403.119 82.8394C403.015 82.9219 402.883 82.9598 402.751 82.9446C402.619 82.9295 402.498 82.8626 402.415 82.7587C402.333 82.6548 402.295 82.5224 402.31 82.3905C402.474 80.964 403.159 79.6477 404.233 78.6924C405.307 77.7371 406.695 77.2097 408.133 77.2106H408.136C409.691 77.2102 411.182 77.8266 412.282 78.9242C413.382 80.0217 414 81.5104 414 83.0629C414.001 84.6153 413.383 86.1043 412.284 87.2023C411.184 88.3003 409.693 88.9173 408.138 88.9177L408.135 88.918Z" fill="#222433"/>
<path d="M409.854 84.7399C409.796 84.7399 409.738 84.7298 409.684 84.7102L406.246 83.4743C406.151 83.4399 406.068 83.3771 406.008 83.2944C405.949 83.2117 405.917 83.1129 405.915 83.0112C405.914 82.9096 405.943 82.8098 406 82.7253C406.056 82.6408 406.137 82.5756 406.232 82.5382L409.448 81.2708C409.51 81.2447 409.576 81.2312 409.643 81.2311C409.71 81.2309 409.776 81.2442 409.838 81.27C409.899 81.2958 409.955 81.3337 410.002 81.3814C410.049 81.4292 410.086 81.4858 410.11 81.5479C410.135 81.61 410.146 81.6764 410.145 81.7432C410.143 81.8099 410.128 81.8757 410.101 81.9366C410.073 81.9975 410.034 82.0523 409.985 82.0978C409.936 82.1432 409.878 82.1785 409.816 82.2014L407.834 82.9827L410.023 83.7695C410.134 83.8093 410.227 83.8871 410.287 83.9889C410.346 84.0908 410.367 84.2103 410.347 84.3263C410.327 84.4424 410.266 84.5476 410.176 84.6234C410.085 84.6991 409.971 84.7406 409.853 84.7406L409.854 84.7399Z" fill="#222433"/>
<path d="M393.338 89.465C392.852 89.4696 392.374 89.3471 391.951 89.1096C391.155 88.651 390.716 87.8155 390.715 86.7567C390.715 86.624 390.768 86.4968 390.862 86.4029C390.956 86.3091 391.083 86.2564 391.216 86.2564C391.349 86.2564 391.476 86.3091 391.57 86.4029C391.664 86.4968 391.717 86.624 391.717 86.7567C391.717 87.4528 391.971 87.9669 392.451 88.2431C393.008 88.5638 393.811 88.5324 394.448 88.1647C394.729 88.0118 394.964 87.7852 395.126 87.5094C395.288 87.2335 395.372 86.9188 395.369 86.5989C395.369 86.4662 395.422 86.339 395.516 86.2452C395.61 86.1513 395.737 86.0986 395.87 86.0986C396.003 86.0986 396.131 86.1513 396.225 86.2452C396.319 86.339 396.371 86.4662 396.371 86.5989C396.376 87.0947 396.246 87.5824 395.996 88.0106C395.745 88.4387 395.384 88.7914 394.949 89.0314C394.459 89.314 393.904 89.4635 393.338 89.465Z" fill="#222433"/>
<path d="M91.4311 259.599C91.5139 259.599 91.5959 259.583 91.6726 259.552L125.78 245.803C125.939 245.739 126.065 245.614 126.132 245.457C126.199 245.3 126.201 245.123 126.137 244.965L84.2014 141.093C84.1533 140.974 84.0706 140.872 83.964 140.8C83.8574 140.729 83.7317 140.69 83.6031 140.69H42.5923C42.4783 140.69 42.3664 140.72 42.2679 140.777C42.1694 140.835 42.0878 140.917 42.0314 141.016L18.909 181.631C18.8967 181.653 18.8857 181.675 18.876 181.697L12.7104 196.166C12.6848 196.226 12.6685 196.29 12.662 196.355L12.6349 196.621C12.5891 197.002 12.5675 197.386 12.5704 197.77V252.058C12.5704 252.229 12.6384 252.393 12.7594 252.514C12.8804 252.635 13.0445 252.703 13.2156 252.703H50.0114C50.1825 252.703 50.3466 252.635 50.4676 252.514C50.5886 252.393 50.6566 252.229 50.6566 252.058V202.99L60.9235 185.095L90.8328 259.195C90.881 259.314 90.9636 259.416 91.0702 259.488C91.1768 259.56 91.3025 259.599 91.4311 259.599ZM124.7 244.848L91.789 258.115L61.6233 183.381C61.578 183.268 61.502 183.171 61.404 183.1C61.306 183.029 61.1899 182.987 61.0691 182.979C60.9483 182.97 60.8276 182.996 60.7208 183.053C60.614 183.11 60.5254 183.196 60.4652 183.301L49.4519 202.498C49.3957 202.596 49.366 202.706 49.3658 202.819V251.414H13.8603V197.77C13.8575 197.43 13.8767 197.091 13.9177 196.753L13.9354 196.581L20.0487 182.236L42.9675 141.978H83.1672L124.7 244.848Z" fill="#3C4043"/>
<path d="M11.0953 187.629C11.7189 190.422 13.8695 198.607 14.5361 200.476C15.2243 202.431 18.9018 202.904 18.1276 197.705C16.4071 186.04 20.2996 186.469 19.3534 180.948" fill="#FFF1ED"/>
<path d="M16.4035 202.49C16.5847 202.491 16.7652 202.469 16.9411 202.426C17.5158 202.284 19.3452 201.516 18.7637 197.611C17.7775 190.923 18.6732 188.32 19.393 186.229C19.9368 184.649 20.4063 183.286 19.9874 180.84C19.9733 180.757 19.9429 180.677 19.8979 180.605C19.8528 180.533 19.794 180.47 19.7247 180.421C19.6555 180.372 19.5772 180.337 19.4944 180.318C19.4116 180.3 19.3259 180.297 19.2422 180.311C19.1585 180.326 19.0785 180.356 19.0067 180.402C18.9349 180.447 18.8727 180.506 18.8238 180.575C18.7749 180.645 18.7401 180.723 18.7215 180.806C18.7029 180.889 18.7009 180.974 18.7155 181.058C19.0788 183.177 18.679 184.339 18.1727 185.81C17.4076 188.033 16.4551 190.801 17.4874 197.8C17.8224 200.049 17.2646 201.018 16.6308 201.175C16.059 201.317 15.3637 200.89 15.1428 200.263C14.4762 198.391 12.3359 190.234 11.7235 187.49C11.6824 187.327 11.5794 187.187 11.4363 187.099C11.2933 187.011 11.1215 186.982 10.9575 187.018C10.7935 187.055 10.6503 187.154 10.5582 187.294C10.4661 187.435 10.4325 187.605 10.4645 187.77C11.083 190.54 13.2488 198.791 13.9269 200.693C14.1091 201.208 14.4434 201.655 14.8856 201.976C15.3278 202.297 15.8571 202.476 16.4035 202.49Z" fill="#3C4043"/>
<path d="M41.0095 143.492L41.5703 143.811L35.7852 153.972L35.2244 153.654L41.0095 143.492Z" fill="#3C4043"/>
<path d="M81.0258 135.318H44.23L42.5956 141.334H83.6064L81.0258 135.318Z" fill="white"/>
<path d="M42.5938 141.978H83.6047C83.7115 141.978 83.8166 141.951 83.9106 141.901C84.0046 141.85 84.0846 141.777 84.1434 141.688C84.2022 141.599 84.238 141.497 84.2474 141.39C84.2569 141.284 84.2399 141.177 84.1978 141.079L81.6172 135.064C81.5674 134.948 81.4847 134.849 81.3793 134.78C81.2738 134.71 81.1503 134.673 81.024 134.673H44.2282C44.0866 134.673 43.9489 134.72 43.8364 134.806C43.7239 134.892 43.6428 135.012 43.6056 135.149L41.9712 141.164C41.9452 141.26 41.9416 141.36 41.9607 141.457C41.9799 141.555 42.0212 141.646 42.0816 141.725C42.1419 141.804 42.2196 141.867 42.3086 141.911C42.3977 141.955 42.4956 141.978 42.5949 141.978H42.5938ZM82.6264 140.689H43.4375L44.7216 135.962H80.5987L82.6264 140.689Z" fill="#3C4043"/>
<path d="M64.9115 85.9971C64.5732 85.336 64.0803 84.7661 63.4746 84.3358C62.869 83.9054 62.1684 83.6273 61.4322 83.5249C60.6961 83.4226 59.9461 83.499 59.2458 83.7477C58.5455 83.9964 57.9156 84.4101 57.4093 84.9537C56.9031 85.4974 56.5355 86.1549 56.3378 86.8706C56.14 87.5863 56.1178 88.3391 56.2732 89.0651C56.4285 89.7912 56.7568 90.4692 57.2302 91.0416C57.7036 91.614 58.3081 92.0639 58.9926 92.3533L59.0726 92.3849C59.1578 93.1974 59.3111 94.0013 59.5309 94.7882L57.3233 104.005C57.1528 104.716 57.1243 105.455 57.2395 106.178C57.3547 106.901 57.6113 107.594 57.9946 108.218C58.378 108.842 58.8806 109.384 59.4738 109.814C60.067 110.244 60.7391 110.553 61.4518 110.723C62.1645 110.894 62.9038 110.922 63.6275 110.807C64.3513 110.692 65.0452 110.436 65.6697 110.053C66.9311 109.279 67.8331 108.037 68.1776 106.599L69.2726 102.027C70.8489 102.091 72.4199 101.808 73.8751 101.199C75.3303 100.591 76.6344 99.671 77.6955 98.5049C78.7567 97.3388 79.5493 95.9546 80.0174 94.4496C80.4856 92.9447 80.618 91.3556 80.4053 89.794C80.2283 88.5027 79.8167 87.2546 79.1907 86.1111C79.2982 85.6401 79.3735 85.1623 79.4161 84.681C79.4803 83.879 79.4587 83.0724 79.3516 82.2749C79.2894 81.8179 79.196 81.3657 79.072 80.9214L75.7836 78.3512C73.8481 80.7143 72.7326 81.8315 69.1169 83.9368C67.501 84.8774 66.178 85.6529 64.9115 85.9971Z" fill="#FFF1ED"/>
<path d="M62.7493 111.523C64.1481 111.521 65.5056 111.049 66.6037 110.183C67.7018 109.318 68.4767 108.109 68.804 106.75L69.7786 102.681C71.4056 102.671 73.0118 102.314 74.4899 101.634C75.9679 100.955 77.2839 99.9681 78.35 98.7402C79.4161 97.5123 80.2078 96.0714 80.6723 94.5136C81.1368 92.9559 81.2633 91.317 81.0436 89.7065C80.8672 88.4186 80.4703 87.1706 79.8702 86.0172C79.9571 85.5948 80.0198 85.1677 80.058 84.7381C80.1266 83.8894 80.1039 83.0358 79.9902 82.1919C79.924 81.7034 79.8241 81.22 79.6913 80.7452C79.6539 80.6144 79.576 80.4987 79.4687 80.4148L76.1803 77.8435C76.0475 77.7396 75.8792 77.6919 75.7115 77.7105C75.5439 77.7291 75.3901 77.8125 75.2833 77.943C73.4016 80.2417 72.3543 81.3047 68.7911 83.3799L68.7338 83.4132C67.3652 84.2105 66.2461 84.8623 65.21 85.2286C64.7671 84.5492 64.1731 83.9812 63.4743 83.5689C62.7755 83.1566 61.9908 82.9112 61.1814 82.8517C60.372 82.7922 59.5598 82.9203 58.8082 83.226C58.0565 83.5317 57.3857 84.0068 56.848 84.6141C56.3104 85.2214 55.9205 85.9445 55.7086 86.7272C55.4968 87.5098 55.4689 88.3307 55.6269 89.1259C55.785 89.9212 56.1248 90.6691 56.6198 91.3116C57.1149 91.954 57.7518 92.4735 58.4809 92.8295C58.5616 93.4987 58.6885 94.1616 58.8607 94.8133L56.6949 103.855C56.4763 104.769 56.4678 105.721 56.6701 106.639C56.8724 107.556 57.2801 108.417 57.8627 109.154C58.4454 109.892 59.1877 110.489 60.0341 110.899C60.8804 111.309 61.8088 111.522 62.7495 111.523H62.7493ZM69.2713 101.384C69.1264 101.384 68.9857 101.433 68.872 101.522C68.7582 101.612 68.678 101.737 68.6442 101.878L67.5489 106.45C67.2377 107.715 66.4382 108.805 65.3251 109.483C64.212 110.16 62.8756 110.371 61.6078 110.068C60.34 109.765 59.2437 108.973 58.5583 107.865C57.8728 106.757 57.654 105.424 57.9495 104.155L60.1573 94.939C60.1857 94.8197 60.1796 94.6949 60.1398 94.5789C59.9364 93.8378 59.7938 93.0814 59.7132 92.3172C59.6978 92.201 59.6524 92.0909 59.5813 91.9977C59.5102 91.9045 59.416 91.8315 59.308 91.7859L59.228 91.7543C58.6407 91.5032 58.1226 91.1144 57.7175 90.621C57.3124 90.1276 57.0322 89.5439 56.9006 88.9194C56.769 88.295 56.7898 87.648 56.9614 87.0333C57.133 86.4186 57.4502 85.8541 57.8862 85.3878C58.3223 84.9214 58.8643 84.5668 59.4666 84.3539C60.0688 84.141 60.7135 84.0761 61.3462 84.1647C61.9788 84.2533 62.5808 84.4928 63.1012 84.863C63.6216 85.2331 64.0451 85.7229 64.336 86.2911C64.4034 86.4228 64.5142 86.5273 64.6496 86.5871C64.7851 86.6469 64.937 86.6583 65.0799 86.6194C66.4132 86.2568 67.7895 85.4552 69.3835 84.5267L69.4407 84.4934C72.9072 82.474 74.1573 81.3087 75.8799 79.2457L78.5036 81.2976C78.5922 81.65 78.6615 82.007 78.7111 82.367C78.812 83.117 78.8322 83.8756 78.7713 84.6298C78.7309 85.0807 78.6602 85.5284 78.5597 85.9697C78.5251 86.1228 78.5476 86.2832 78.6229 86.4209C79.4781 87.9952 79.9005 89.7678 79.8469 91.5582C79.7934 93.3487 79.2658 95.0929 78.3181 96.6134C77.3703 98.134 76.0361 99.3764 74.4513 100.214C72.8666 101.052 71.0878 101.456 69.2962 101.384L69.2713 101.384Z" fill="#3C4043"/>
<path d="M69.22 102.685C69.3047 102.687 69.3891 102.672 69.4682 102.642C69.5474 102.612 69.6198 102.566 69.6813 102.508C69.7428 102.45 69.7923 102.38 69.8268 102.303C69.8613 102.225 69.8803 102.142 69.8826 102.057C69.8849 101.973 69.8704 101.889 69.8401 101.81C69.8098 101.73 69.7642 101.658 69.7059 101.597C69.6476 101.535 69.5778 101.486 69.5004 101.451C69.423 101.417 69.3396 101.398 69.2548 101.396C67.4542 101.305 65.7095 100.741 64.1974 99.7605C64.1266 99.7139 64.0473 99.6818 63.9641 99.6658C63.8809 99.6499 63.7953 99.6505 63.7123 99.6676C63.6293 99.6846 63.5505 99.7179 63.4803 99.7654C63.4102 99.8129 63.3501 99.8738 63.3035 99.9445C63.2569 100.015 63.2247 100.094 63.2088 100.178C63.1928 100.261 63.1934 100.346 63.2105 100.429C63.2276 100.512 63.2609 100.591 63.3084 100.661C63.356 100.731 63.4169 100.791 63.4877 100.837C65.1901 101.943 67.1551 102.58 69.1832 102.682C69.1959 102.684 69.208 102.685 69.22 102.685Z" fill="#3C4043"/>
<path d="M62.1523 89.8173C62.2744 89.8172 62.3939 89.7825 62.497 89.7172C62.6002 89.652 62.6826 89.5588 62.7349 89.4485C62.7871 89.3383 62.8069 89.2155 62.7921 89.0945C62.7772 88.9734 62.7283 88.859 62.651 88.7647L60.2781 85.873C60.2244 85.8075 60.1583 85.7532 60.0836 85.7132C60.0089 85.6732 59.9271 85.6483 59.8427 85.6399C59.7584 85.6315 59.6732 85.6398 59.5921 85.6643C59.511 85.6887 59.4355 85.7289 59.3699 85.7826C59.3043 85.8362 59.25 85.9022 59.2099 85.9768C59.1699 86.0514 59.1449 86.1332 59.1365 86.2175C59.1281 86.3017 59.1364 86.3868 59.1609 86.4678C59.1854 86.5489 59.2257 86.6243 59.2794 86.6898L60.648 88.3573L58.9951 88.1739C58.9104 88.1635 58.8245 88.1701 58.7423 88.1931C58.6602 88.2162 58.5834 88.2553 58.5165 88.3082C58.4496 88.361 58.3938 88.4267 58.3525 88.5012C58.3111 88.5758 58.285 88.6578 58.2756 88.7425C58.2662 88.8272 58.2737 88.9129 58.2976 88.9947C58.3216 89.0765 58.3616 89.1528 58.4153 89.219C58.469 89.2853 58.5353 89.3403 58.6103 89.3807C58.6854 89.4212 58.7678 89.4464 58.8527 89.4549L62.0802 89.8133C62.1041 89.816 62.1282 89.8174 62.1523 89.8173Z" fill="#3C4043"/>
<path d="M77.029 92.9739C77.1586 92.974 77.2853 92.9349 77.3922 92.8616L79.6288 91.3363C79.7672 91.2418 79.8635 91.0973 79.8971 90.9332C79.9307 90.7691 79.899 90.5984 79.8088 90.4572L77.2281 86.4183C77.136 86.2743 76.9904 86.1726 76.8233 86.1358C76.6562 86.0989 76.4813 86.1299 76.337 86.2219C76.1928 86.3139 76.091 86.4593 76.0542 86.6263C76.0173 86.7932 76.0483 86.9679 76.1404 87.112L78.3845 90.6239L76.664 91.7971C76.5501 91.8748 76.4641 91.9869 76.4186 92.117C76.3731 92.2471 76.3706 92.3883 76.4114 92.52C76.4521 92.6516 76.5341 92.7667 76.6452 92.8484C76.7562 92.9301 76.8906 92.9741 77.0286 92.9739H77.029Z" fill="#3C4043"/>
<path d="M72.6381 88.538C72.3485 88.2078 72.3816 87.7056 72.7121 87.4163C73.0425 87.1269 73.5453 87.16 73.8349 87.4901C74.1246 87.8203 74.0915 88.3225 73.761 88.6118C73.4305 88.9012 72.9278 88.8681 72.6381 88.538Z" fill="#3C4043"/>
<path d="M78.5521 88.2502C78.2625 87.9201 78.2957 87.4179 78.6262 87.1285C78.9567 86.8392 79.4594 86.8723 79.749 87.2025C80.0386 87.5326 80.0055 88.0348 79.675 88.3242C79.3445 88.6135 78.8418 88.5804 78.5521 88.2502Z" fill="#3C4043"/>
<path d="M75.4403 96.2318C76.1878 96.2312 76.9081 95.9515 77.4599 95.4477L77.7872 95.1424C77.9123 95.0258 77.9859 94.8643 77.9918 94.6934C77.9977 94.5226 77.9354 94.3564 77.8187 94.2314C77.7019 94.1064 77.5403 94.0329 77.3692 94.027C77.1982 94.0211 77.0319 94.0833 76.9068 94.1999L76.5842 94.5007C76.4095 94.6599 76.2034 94.7808 75.9791 94.8556C75.7548 94.9305 75.5174 94.9576 75.282 94.9353C75.0537 94.9153 74.8323 94.8471 74.6324 94.7352C74.4325 94.6232 74.2587 94.4702 74.1224 94.2861L74.0564 94.1982C74.0056 94.1305 73.9419 94.0735 73.869 94.0304C73.7961 93.9872 73.7154 93.9589 73.6315 93.9469C73.5477 93.9349 73.4622 93.9396 73.3802 93.9606C73.2981 93.9816 73.221 94.0185 73.1532 94.0693C73.0854 94.1201 73.0283 94.1837 72.9851 94.2566C72.942 94.3294 72.9136 94.41 72.9016 94.4938C72.8896 94.5776 72.8943 94.6629 72.9153 94.7449C72.9363 94.8269 72.9733 94.9039 73.0242 94.9716L73.0887 95.0576C73.3338 95.3845 73.6446 95.6566 74.0012 95.8564C74.3579 96.0562 74.7524 96.1792 75.1594 96.2176C75.2532 96.2272 75.3468 96.232 75.4403 96.2318Z" fill="#3C4043"/>
<path d="M360.819 22.5481H336.065C330.379 22.5481 324.926 24.8044 320.905 28.8207C316.885 32.837 314.626 38.2843 314.626 43.9642C314.626 49.6442 316.885 55.0914 320.905 59.1077C324.926 63.1241 330.379 65.3804 336.065 65.3804H360.819C361.094 65.3804 361.344 65.3804 361.602 65.3667C362.542 65.3265 363.479 65.4996 364.343 65.8729C365.206 66.2462 365.974 66.81 366.588 67.522L372.847 74.8227C373.022 75.0253 373.254 75.1697 373.514 75.2365C373.773 75.3033 374.047 75.2893 374.298 75.1964C374.549 75.1035 374.766 74.9362 374.919 74.7168C375.072 74.4973 375.155 74.2364 375.155 73.9688V62.437C375.158 60.9009 375.73 59.4201 376.761 58.2801C380.303 54.3565 382.262 49.2591 382.258 43.9752C382.259 41.1628 381.706 38.3777 380.63 35.7788C379.554 33.1799 377.976 30.8182 375.986 28.8285C373.996 26.8388 371.634 25.2601 369.033 24.1825C366.433 23.1049 363.645 22.5495 360.83 22.5481H360.819Z" fill="white"/>
<path d="M373.841 76.1016C373.787 76.1016 373.733 76.0997 373.68 76.0956C373.399 76.0757 373.126 76.0005 372.875 75.8743C372.624 75.748 372.401 75.5734 372.218 75.3603L365.957 68.0569C365.426 67.4378 364.76 66.9479 364.011 66.6244C363.262 66.3009 362.449 66.1523 361.633 66.1898C361.362 66.2044 361.096 66.2044 360.815 66.2044H336.061C330.156 66.2044 324.493 63.8612 320.318 59.6904C316.143 55.5196 313.797 49.8627 313.797 43.9642C313.797 38.0658 316.143 32.4089 320.318 28.2381C324.493 24.0673 330.156 21.7241 336.061 21.7241H360.826C365.127 21.7258 369.336 22.9726 372.944 25.3135C376.551 27.6545 379.402 30.9894 381.152 34.9149C382.902 38.8405 383.476 43.1884 382.805 47.4329C382.133 51.6774 380.245 55.6366 377.368 58.8317C376.474 59.8204 375.977 61.1055 375.976 62.4384V73.9685C375.975 74.5339 375.75 75.0759 375.349 75.4757C374.949 75.8755 374.407 76.1006 373.841 76.1016ZM361.864 64.5372C362.879 64.5345 363.883 64.7519 364.805 65.1743C365.728 65.5967 366.548 66.2141 367.208 66.9839L373.469 74.2873C373.511 74.3355 373.561 74.3749 373.619 74.4034C373.676 74.4319 373.738 74.4489 373.801 74.4534C373.865 74.4587 373.93 74.451 373.991 74.4308C374.052 74.4106 374.108 74.3783 374.157 74.3359C374.21 74.2903 374.253 74.2337 374.282 74.1702C374.311 74.1066 374.326 74.0374 374.327 73.9674V62.4368C374.328 60.6965 374.976 59.0187 376.144 57.7277C378.807 54.7691 380.554 51.1033 381.176 47.1736C381.797 43.2439 381.265 39.2186 379.645 35.5844C378.024 31.9502 375.384 28.8627 372.045 26.6953C368.705 24.528 364.808 23.3735 360.826 23.3715L360.815 22.5478V23.3715H336.061C330.593 23.3715 325.35 25.5411 321.484 29.4029C317.618 33.2647 315.446 38.5025 315.446 43.964C315.446 49.4254 317.618 54.6632 321.484 58.525C325.35 62.3869 330.593 64.5564 336.061 64.5564H360.815C361.084 64.5564 361.318 64.5564 361.554 64.5438C361.658 64.5394 361.76 64.5372 361.864 64.5372Z" fill="#3C4043"/>
<path d="M111.259 24.824H136.013C141.699 24.824 147.152 27.0803 151.173 31.0966C155.193 35.1129 157.452 40.5602 157.452 46.2401C157.452 51.92 155.193 57.3673 151.173 61.3836C147.152 65.3999 141.699 67.6563 136.013 67.6563H111.259C110.984 67.6563 110.734 67.6563 110.476 67.6425C109.536 67.6024 108.599 67.7755 107.735 68.1488C106.872 68.5221 106.104 69.0859 105.49 69.7979L99.2315 77.0986C99.0566 77.3012 98.8238 77.4456 98.5645 77.5124C98.3051 77.5792 98.0315 77.5652 97.7803 77.4723C97.5291 77.3794 97.3124 77.212 97.1591 76.9926C97.0058 76.7732 96.9233 76.5123 96.9227 76.2447V64.7129C96.92 63.1768 96.3482 61.696 95.3175 60.556C91.7748 56.6323 89.8159 51.5349 89.8203 46.2511C89.8189 43.4387 90.372 40.6535 91.448 38.0547C92.5241 35.4558 94.1021 33.0941 96.0919 31.1044C98.0816 29.1147 100.444 27.536 103.045 26.4584C105.645 25.3808 108.433 24.8254 111.248 24.824H111.259Z" fill="white"/>
<path d="M98.2374 78.3775C98.2908 78.3775 98.3446 78.3756 98.3985 78.3715C98.6787 78.3516 98.9522 78.2763 99.2031 78.1501C99.454 78.0239 99.6774 77.8492 99.8602 77.6362L106.121 70.3327C106.652 69.7137 107.318 69.2238 108.067 68.9003C108.816 68.5768 109.63 68.4281 110.445 68.4657C110.717 68.4802 110.982 68.4802 111.264 68.4802H136.017C141.922 68.4802 147.585 66.1371 151.76 61.9663C155.936 57.7954 158.281 52.1386 158.281 46.2401C158.281 40.3417 155.936 34.6848 151.76 30.514C147.585 26.3431 141.922 24 136.017 24H111.253C106.951 24.0017 102.742 25.2484 99.1343 27.5894C95.5268 29.9304 92.6757 33.2653 90.9257 37.1908C89.1756 41.1163 88.6017 45.4643 89.2732 49.7088C89.9447 53.9533 91.833 57.9125 94.7096 61.1076C95.6046 62.0963 96.1008 63.3813 96.1023 64.7143V76.2444C96.1034 76.8098 96.3286 77.3517 96.7288 77.7515C97.129 78.1513 97.6715 78.3764 98.2374 78.3775ZM110.214 66.8131C109.199 66.8104 108.196 67.0278 107.273 67.4502C106.35 67.8726 105.53 68.49 104.87 69.2597L98.6093 76.5632C98.5675 76.6114 98.5167 76.6508 98.4596 76.6793C98.4025 76.7078 98.3404 76.7248 98.2767 76.7293C98.2126 76.7346 98.1481 76.7269 98.0871 76.7067C98.026 76.6865 97.9697 76.6542 97.9214 76.6118C97.8682 76.5662 97.8256 76.5096 97.7962 76.446C97.7669 76.3825 97.7517 76.3133 97.7515 76.2433V64.7127C97.7497 62.9724 97.1021 61.2945 95.9339 60.0036C93.2713 57.0449 91.5238 53.3792 90.9026 49.4495C90.2814 45.5198 90.8132 41.4944 92.4336 37.8602C94.054 34.226 96.6937 31.1386 100.033 28.9712C103.373 26.8039 107.27 25.6494 111.253 25.6474L111.263 24.8237V25.6474H136.017C141.485 25.6474 146.728 27.817 150.594 31.6788C154.46 35.5406 156.632 40.7784 156.632 46.2398C156.632 51.7013 154.46 56.9391 150.594 60.8009C146.728 64.6627 141.485 66.8323 136.017 66.8323H111.264C110.994 66.8323 110.761 66.8323 110.524 66.8197C110.421 66.8153 110.318 66.8131 110.214 66.8131Z" fill="#3C4043"/>
<rect x="284.027" y="0.410156" width="4.5271" height="295.084" transform="rotate(19.8185 284.027 0.410156)" fill="#FFDA2D"/>
<path d="M343.049 53H351.128C355.375 53 357.637 50.7841 357.637 47.7741C357.637 44.9766 355.633 43.2869 353.482 43.1854V43.0007C355.449 42.5575 356.898 41.1634 356.898 38.9382C356.898 36.1037 354.793 34.0909 350.62 34.0909H343.049V53ZM347.047 49.7315V44.7088H350.398C352.319 44.7088 353.51 45.8168 353.51 47.3771C353.51 48.799 352.54 49.7315 350.306 49.7315H347.047ZM347.047 42.0036V37.3224H350.084C351.857 37.3224 352.863 38.2365 352.863 39.603C352.863 41.0987 351.645 42.0036 350.01 42.0036H347.047Z" fill="#07377F"/>
<path d="M120.381 55.2759L121.785 50.9641H128.608L130.011 55.2759H134.295L127.777 36.3668H122.625L116.097 55.2759H120.381ZM122.8 47.8433L125.127 40.6878H125.275L127.601 47.8433H122.8Z" fill="#07377F"/>
<path d="M26.5291 240.477L29.22 245.493L24.7178 243.396L26.5291 240.477Z" fill="#FFF1ED"/>
<path d="M23.4116 201.51L18.4267 194.464L18.986 192.423L27.9844 191.596L23.4116 201.51Z" fill="#FFF1ED"/>
<path d="M52.196 147.424L51.1391 154.535L46.2812 150.674L52.196 147.424Z" fill="#FFF1ED"/>
<path d="M60.1214 157.821L59.941 158.048C54.9445 164.324 45.7731 165.364 39.4961 160.366C38.0905 159.247 36.9169 157.894 36.0079 156.344C35.7854 155.965 35.9126 155.476 36.292 155.254C36.6714 155.032 37.1597 155.159 37.3826 155.538C38.192 156.918 39.2372 158.123 40.4888 159.12C46.0782 163.57 54.245 162.644 58.6939 157.056L58.8735 156.83C61.8961 153.021 62.5376 147.898 60.5474 143.46C60.3676 143.059 60.5474 142.587 60.9484 142.408C61.35 142.228 61.8213 142.407 62.0016 142.809C64.2362 147.792 63.5157 153.544 60.1214 157.821Z" fill="#E7F1FF"/>
<path d="M106.981 251.045C106.975 251.046 106.971 251.047 106.965 251.048L106.682 251.101C98.8041 252.589 91.1849 247.388 89.6975 239.508C88.2101 231.628 93.4092 224.008 101.287 222.521L101.571 222.467C101.573 222.467 101.576 222.466 101.578 222.466C107.15 221.414 112.868 223.725 116.146 228.355C116.4 228.714 116.315 229.212 115.956 229.466C115.597 229.72 115.1 229.635 114.845 229.276C111.927 225.153 106.835 223.096 101.873 224.032C101.871 224.033 101.869 224.033 101.867 224.033L101.583 224.087C94.568 225.411 89.9388 232.196 91.2632 239.213C92.5876 246.229 99.3717 250.86 106.386 249.535L106.671 249.482C106.675 249.481 106.68 249.48 106.685 249.479C109.51 248.946 112.106 247.462 113.999 245.298C114.289 244.967 114.792 244.933 115.123 245.223C115.454 245.513 115.488 246.016 115.198 246.348C113.072 248.778 110.154 250.446 106.981 251.045Z" fill="#E7F1FF"/>
<path d="M102.323 242.677L100.297 231.941L110.602 235.556L102.323 242.677Z" fill="#FFF1ED"/>
<path d="M14.3284 206.543C14.3121 206.366 14.3547 206.183 14.4623 206.024C14.7094 205.66 15.2048 205.565 15.5689 205.812C18.0384 207.485 21.0347 208.255 24.0054 207.977C31.1193 207.323 36.372 201.008 35.7185 193.9L35.692 193.611C35.0537 186.676 29.1039 181.518 22.1467 181.869C21.7073 181.891 21.3344 181.554 21.3106 181.113C21.2886 180.674 21.6269 180.299 22.0665 180.277C29.88 179.883 36.5622 185.676 37.279 193.465L37.3055 193.753C38.0394 201.736 32.1401 208.829 24.155 209.563C20.8155 209.875 17.4493 209.011 14.6744 207.13C14.4693 206.991 14.3495 206.773 14.3284 206.543Z" fill="#E7F1FF"/>
<path d="M40.8669 247.378L40.8579 247.665C40.8322 248.474 40.7385 249.287 40.5796 250.08C40.4932 250.512 40.0733 250.792 39.6418 250.705C39.2102 250.619 38.9308 250.2 39.017 249.767C39.1586 249.06 39.2423 248.335 39.2653 247.614L39.2743 247.327C39.499 240.191 33.8746 234.202 26.7367 233.978C22.4017 233.837 18.3103 235.86 15.7917 239.389C15.5362 239.747 15.0385 239.83 14.6803 239.575C14.3222 239.319 14.2389 238.822 14.4945 238.463C17.3238 234.5 21.9193 232.227 26.7877 232.385C34.8027 232.638 41.1193 239.363 40.8669 247.378Z" fill="#E7F1FF"/>
<path d="M82.1178 197.654C79.4186 194.868 77.9647 191.197 78.024 187.317C78.0834 183.433 79.6516 179.805 82.4399 177.1C85.2302 174.393 88.9076 172.936 92.7943 172.997C93.3851 173.006 93.9816 173.051 94.5673 173.132C95.0032 173.192 95.3082 173.594 95.2483 174.029C95.1884 174.465 94.7863 174.77 94.3503 174.71C93.8278 174.639 93.296 174.598 92.7689 174.59C89.3082 174.536 86.0338 175.833 83.5493 178.244C81.0669 180.652 79.6705 183.883 79.6173 187.341C79.5646 190.795 80.8591 194.064 83.2627 196.545C83.2649 196.548 83.2665 196.549 83.269 196.552L83.4707 196.76C88.4376 201.885 96.6509 202.014 101.779 197.048C102.097 196.735 102.406 196.397 102.692 196.048C102.972 195.708 103.474 195.659 103.814 195.938C104.154 196.218 104.203 196.719 103.924 197.059C103.602 197.451 103.255 197.831 102.892 198.188C97.1283 203.77 87.9044 203.625 82.3263 197.869L82.1247 197.661C82.1225 197.659 82.1201 197.656 82.1178 197.654Z" fill="#E7F1FF"/>
<path d="M86.7491 189.385L94.5938 181.785L97.2513 192.377L86.7491 189.385Z" fill="#FFF1ED"/>
<path d="M424.718 175.714C426.271 175.651 427.478 174.343 427.415 172.794C427.352 171.245 426.043 170.04 424.491 170.103C422.938 170.166 421.731 171.473 421.794 173.022C421.857 174.572 423.166 175.777 424.718 175.714Z" fill="#FFF1ED"/>
<path d="M404.039 149.725C405.591 149.662 406.799 148.355 406.736 146.806C406.673 145.256 405.363 144.051 403.811 144.114C402.258 144.177 401.051 145.485 401.114 147.034C401.177 148.584 402.486 149.789 404.039 149.725Z" fill="#FFF1ED"/>
<path d="M369.039 244.725C370.591 244.662 371.799 243.355 371.736 241.806C371.673 240.256 370.363 239.051 368.811 239.114C367.258 239.177 366.051 240.485 366.114 242.034C366.177 243.584 367.486 244.789 369.039 244.725Z" fill="#E7F1FF"/>
<path d="M377.039 99.7255C378.591 99.6624 379.799 98.3552 379.736 96.8057C379.673 95.2562 378.363 94.0513 376.811 94.1143C375.258 94.1774 374.051 95.4846 374.114 97.0341C374.177 98.5836 375.486 99.7885 377.039 99.7255Z" fill="#E7F1FF"/>
<path d="M367.039 215.725C368.591 215.662 369.799 214.355 369.736 212.806C369.673 211.256 368.363 210.051 366.811 210.114C365.258 210.177 364.051 211.485 364.114 213.034C364.177 214.584 365.486 215.789 367.039 215.725Z" fill="#FFF1ED"/>
<path d="M380.039 208.725C381.591 208.662 382.799 207.355 382.736 205.806C382.673 204.256 381.363 203.051 379.811 203.114C378.258 203.177 377.051 204.485 377.114 206.034C377.177 207.584 378.486 208.789 380.039 208.725Z" fill="#E7F1FF"/>
<path d="M391.039 173.725C392.591 173.662 393.799 172.355 393.736 170.806C393.673 169.256 392.363 168.051 390.811 168.114C389.258 168.177 388.051 169.485 388.114 171.034C388.177 172.584 389.486 173.789 391.039 173.725Z" fill="#E7F1FF"/>
<path d="M362.234 203.65C363.786 203.587 364.994 202.28 364.931 200.73C364.868 199.181 363.559 197.976 362.006 198.039C360.454 198.102 359.246 199.409 359.309 200.959C359.372 202.508 360.682 203.713 362.234 203.65Z" fill="#E7F1FF"/>
<path d="M431.039 236.725C432.591 236.662 433.799 235.355 433.736 233.806C433.673 232.256 432.363 231.051 430.811 231.114C429.258 231.177 428.051 232.485 428.114 234.034C428.177 235.584 429.486 236.789 431.039 236.725Z" fill="#FFF1ED"/>
<path d="M361.039 226.725C362.591 226.662 363.799 225.355 363.736 223.806C363.673 222.256 362.363 221.051 360.811 221.114C359.258 221.177 358.051 222.485 358.114 224.034C358.177 225.584 359.486 226.789 361.039 226.725Z" fill="#FFF1ED"/>
<path d="M349.602 232.561C349.323 232.283 349.109 231.949 348.972 231.58C348.714 230.88 348.744 230.106 349.056 229.429C349.368 228.752 349.936 228.228 350.634 227.97C351.333 227.713 352.106 227.744 352.782 228.057C353.459 228.371 353.984 228.94 354.241 229.64C354.414 230.105 354.46 230.607 354.373 231.095C354.287 231.583 354.072 232.038 353.75 232.414" fill="#E7F1FF"/>
<path d="M419.16 164.623C420.712 164.56 421.92 163.253 421.857 161.703C421.794 160.154 420.484 158.949 418.932 159.012C417.38 159.075 416.172 160.382 416.235 161.932C416.298 163.481 417.607 164.686 419.16 164.623Z" fill="#E7F1FF"/>
<path d="M424.172 210.544C425.724 210.481 426.931 209.174 426.868 207.625C426.806 206.075 425.496 204.87 423.944 204.933C422.391 204.996 421.184 206.303 421.247 207.853C421.31 209.402 422.619 210.607 424.172 210.544Z" fill="#E7F1FF"/>
<path d="M420.047 226.594C421.599 226.531 422.806 225.224 422.743 223.674C422.68 222.125 421.371 220.92 419.819 220.983C418.266 221.046 417.059 222.353 417.122 223.903C417.185 225.452 418.494 226.657 420.047 226.594Z" fill="#E7F1FF"/>
<path d="M444.039 239.725C445.591 239.662 446.799 238.355 446.736 236.806C446.673 235.256 445.363 234.051 443.811 234.114C442.258 234.177 441.051 235.485 441.114 237.034C441.177 238.584 442.486 239.789 444.039 239.725Z" fill="#E7F1FF"/>
<path d="M442.039 192.725C443.591 192.662 444.799 191.355 444.736 189.806C444.673 188.256 443.363 187.051 441.811 187.114C440.258 187.177 439.051 188.485 439.114 190.034C439.177 191.584 440.486 192.789 442.039 192.725Z" fill="#FFF1ED"/>
<path d="M422.039 241.725C423.591 241.662 424.799 240.355 424.736 238.806C424.673 237.256 423.363 236.051 421.811 236.114C420.258 236.177 419.051 237.485 419.114 239.034C419.177 240.584 420.486 241.789 422.039 241.725Z" fill="#E7F1FF"/>
<path d="M403.734 176.566C405.286 176.503 406.494 175.196 406.431 173.647C406.368 172.097 405.059 170.892 403.506 170.955C401.954 171.018 400.746 172.325 400.809 173.875C400.872 175.424 402.182 176.629 403.734 176.566Z" fill="#E7F1FF"/>
<path d="M435.039 223.725C436.591 223.662 437.799 222.355 437.736 220.806C437.673 219.256 436.363 218.051 434.811 218.114C433.258 218.177 432.051 219.485 432.114 221.034C432.177 222.584 433.486 223.789 435.039 223.725Z" fill="#FFF1ED"/>
<path d="M447.039 220.725C448.591 220.662 449.799 219.355 449.736 217.806C449.673 216.256 448.363 215.051 446.811 215.114C445.258 215.177 444.051 216.485 444.114 218.034C444.177 219.584 445.486 220.789 447.039 220.725Z" fill="#FFF1ED"/>
<path d="M430.269 192.81C431.822 192.747 433.029 191.44 432.966 189.891C432.903 188.341 431.594 187.136 430.041 187.199C428.489 187.262 427.281 188.57 427.344 190.119C427.407 191.669 428.717 192.873 430.269 192.81Z" fill="#E7F1FF"/>
<path d="M373.039 226.725C374.591 226.662 375.799 225.355 375.736 223.806C375.673 222.256 374.363 221.051 372.811 221.114C371.258 221.177 370.051 222.485 370.114 224.034C370.177 225.584 371.486 226.789 373.039 226.725Z" fill="#E7F1FF"/>
<path d="M443 206.997C444.552 206.934 445.76 205.627 445.697 204.078C445.634 202.528 444.324 201.323 442.772 201.386C441.219 201.449 440.012 202.757 440.075 204.306C440.138 205.856 441.447 207.061 443 206.997Z" fill="#E7F1FF"/>
<path d="M417.039 186.725C418.591 186.662 419.799 185.355 419.736 183.806C419.673 182.256 418.363 181.051 416.811 181.114C415.258 181.177 414.051 182.485 414.114 184.034C414.177 185.584 415.486 186.789 417.039 186.725Z" fill="#E7F1FF"/>
<path d="M435.586 172.27C437.138 172.207 438.345 170.9 438.283 169.35C438.22 167.801 436.91 166.596 435.358 166.659C433.805 166.722 432.598 168.029 432.661 169.579C432.724 171.128 434.033 172.333 435.586 172.27Z" fill="#E7F1FF"/>
<path d="M382.13 159.739C383.119 158.542 382.948 156.773 381.75 155.786C380.551 154.8 378.778 154.97 377.79 156.166C376.801 157.363 376.972 159.132 378.17 160.119C379.369 161.105 381.142 160.935 382.13 159.739Z" fill="#FFF1ED"/>
<path d="M388.039 144.725C389.591 144.662 390.799 143.355 390.736 141.806C390.673 140.256 389.363 139.051 387.811 139.114C386.258 139.177 385.051 140.485 385.114 142.034C385.177 143.584 386.486 144.789 388.039 144.725Z" fill="#FFF1ED"/>
<path d="M388.039 192.725C389.591 192.662 390.799 191.355 390.736 189.806C390.673 188.256 389.363 187.051 387.811 187.114C386.258 187.177 385.051 188.485 385.114 190.034C385.177 191.584 386.486 192.789 388.039 192.725Z" fill="#E7F1FF"/>
<path d="M406.203 163.455C407.755 163.392 408.963 162.085 408.9 160.536C408.837 158.986 407.527 157.781 405.975 157.844C404.423 157.907 403.215 159.215 403.278 160.764C403.341 162.314 404.65 163.519 406.203 163.455Z" fill="#E7F1FF"/>
<path d="M427.646 149.632C427.505 150.17 427.208 150.653 426.792 151.021C426.376 151.39 425.859 151.627 425.308 151.702C424.757 151.777 424.196 151.688 423.696 151.445C423.195 151.202 422.778 150.816 422.497 150.336C422.216 149.857 422.083 149.305 422.116 148.751C422.149 148.196 422.346 147.664 422.682 147.222C423.018 146.779 423.478 146.447 424.004 146.265C424.529 146.084 425.097 146.062 425.635 146.203" fill="#FFF1ED"/>
<path d="M390.636 154.691C392.189 154.628 393.396 153.321 393.333 151.772C393.27 150.222 391.961 149.017 390.408 149.08C388.856 149.143 387.649 150.45 387.712 152C387.775 153.549 389.084 154.754 390.636 154.691Z" fill="#E7F1FF"/>
<path d="M376.039 176.726C377.591 176.662 378.799 175.355 378.736 173.806C378.673 172.256 377.363 171.051 375.811 171.114C374.258 171.177 373.051 172.485 373.114 174.034C373.177 175.584 374.486 176.789 376.039 176.726Z" fill="#FFF1ED"/>
<path d="M417.039 143.725C418.591 143.662 419.799 142.355 419.736 140.806C419.673 139.256 418.363 138.051 416.811 138.114C415.258 138.177 414.051 139.485 414.114 141.034C414.177 142.584 415.486 143.789 417.039 143.725Z" fill="#E7F1FF"/>
<path d="M372.039 195.725C373.591 195.662 374.799 194.355 374.736 192.806C374.673 191.256 373.363 190.051 371.811 190.114C370.258 190.177 369.051 191.485 369.114 193.034C369.177 194.584 370.486 195.789 372.039 195.725Z" fill="#E7F1FF"/>
</svg>
