<svg xmlns="http://www.w3.org/2000/svg" fill="none" viewBox="0 0 347 281"><path fill="#E7F1FF" d="M346.009 39.288v-1.006h-.041L345.961 0H16v281h330.009l-.007-40.532h.007v-1.006h-.007l-.007-39.241h.014v-1.006h-.014l-.007-39.192h.021v-1.006h-.021l-.007-39.239h.028v-1.006h-.028l-.007-39.24h.035v-1.006h-.035l-.007-39.239h.042zm-1.051-38.186v37.18h-39.196V1.102h39.196zm-40.2 0v37.18h-40.486V1.102h40.486zM180.813 119.78h40.965v39.239h-40.965v-39.239zm-1.003 39.239h-40.965v-39.239h40.965v39.239zm1.003-40.245v-39.24h40.965v39.24h-40.965zm-1.003 0h-40.965v-39.24h40.965v39.24zm-41.969 0H96.827v-39.24h41.013l.001 39.24zm0 1.006v39.239H96.827v-39.239h41.014zm0 40.245v39.191H96.827v-39.191h41.014zm1.004 0h40.965v39.191h-40.965v-39.191zm41.968 0h40.965v39.191h-40.965v-39.191zm41.968 0h40.487v39.191h-40.487v-39.191zm0-1.006v-39.239h40.487v39.239h-40.487zm0-40.245v-39.24h40.487v39.24h-40.487zm0-40.246v-39.24h40.487v39.24h-40.487zm-1.003 0h-40.965v-39.24h40.965v39.24zm-41.968 0h-40.965v-39.24h40.965v39.24zm-41.969 0H96.827v-39.24h41.013l.001 39.24zm-42.015 0H54.86v-39.24h40.965v39.24zm0 1.006v39.24H54.86v-39.24h40.965zm0 40.246v39.239H54.86v-39.239h40.965zm0 40.245v39.191H54.86v-39.191h40.965zm0 40.198v39.239H54.86v-39.24l40.965.001zm1.003 0h41.012v39.239H96.827l.002-39.239zm42.016 0h40.965v39.239h-40.965v-39.239zm41.968 0h40.965v39.239h-40.965v-39.239zm41.968 0h40.487v39.239h-40.487v-39.239zm41.491 0h40.486v39.239h-40.486v-39.239zm0-1.007v-39.191h40.486v39.191h-40.486zm0-40.197v-39.239h40.486v39.239h-40.486zm0-40.245v-39.24h40.486v39.24h-40.486zm0-40.246v-39.24h40.486v39.24h-40.486zm-1.004-77.425v37.18h-40.487V1.102h40.487zm-41.49 0v37.18h-40.965V1.102h40.965zm-41.968 0v37.18h-40.965V1.102h40.965zm-41.969 0v37.18H96.827V1.102h41.014zm-42.015 0v37.18H54.86V1.102h40.965zm-78.774 0h36.806v37.18H17.052V1.102zm0 38.185h36.806v39.24H17.052v-39.24zm0 40.246h36.806v39.24H17.052v-39.24zm0 40.246h36.806v39.239H17.052v-39.239zm0 40.245h36.806v39.191H17.052v-39.191zm0 40.198h36.806v39.239H17.052v-39.239zm0 79.724v-39.479h36.806v39.479H17.052zm37.81 0v-39.479h40.964v39.479H54.86zm41.967 0v-39.479h41.012v39.479H96.829zm42.016 0v-39.479h40.965v39.479h-40.965zm41.968 0v-39.479h40.965v39.479h-40.965zm41.968 0v-39.479h40.487v39.479h-40.487zm41.491 0v-39.479h40.486v39.479h-40.486zm80.687 0h-39.197v-39.479h39.196l.001 39.479zm0-40.485h-39.197v-39.24h39.196l.001 39.24zm0-40.245h-39.197v-39.192h39.196l.001 39.192zm0-40.198h-39.197v-39.239h39.196l.001 39.239zm0-40.245h-39.197v-39.24h39.196l.001 39.24zm0-40.246h-39.197v-39.24h39.196l.001 39.24z"/><path fill="#FFBCA5" d="M310.28 103.676c-.594-.357-.215-.102-.201-.087l.141.206-.097.112-.605-.205.28.334-.523-.155.323.373-.696-.272.119.247-.031.151-.019.162-.218.048.6.554-.851-.37.431.449.105.241-.31-.025-.058.134-.328-.039.257.345.158.274-.489-.143.274.346-.448-.117.512.507-.573-.201.253.352-.726-.308.712.653-.278-.009-.639-.251.415.453-.197.048-.466-.137.634.602-.154.072-.342-.056.19.307-.442-.131-.127.089.487.509-.814-.379.109.251-.176.056.418.465-.638-.266.417.466-.245.009-.441-.129.266.36-.285-.021.032.193.139.275.024.193-.035.154-.27-.011-.02.164-.106.104-.371-.086-.006.176.392.459-.11.102-.097.112-.392-.102-.078.125c.009.067.036.146.05.216l-.269-.014.472.524-.264-.011.077.246-.332-.062.027.202.018.191c.004.046-.247-.096.049.165.048.041-.027.027.638.517l.309.226.546.394.339.26c.03.024.063.044.098.059.051-.011-.021-.11-.025-.16l.096-.115-.017-.191.291.035.372.088-.063-.231.326.05-.07-.237c.021-.047.04-.095.055-.145l.196-.046-.257-.37.361.076.284.019-.138-.284.425.119.031-.163-.031-.206.478.154-.258-.368-.217-.336.587.229c.053-.024.102-.052.154-.076l-.508-.537.668.284-.388-.453.143-.083.17-.065.451.127.163-.071-.47-.538.019-.165.85.399-.51-.528.146-.083.649.267-.367-.422-.252-.352.848.391-.565-.562.551.185-.305-.384.66.268-.588-.573.51.159-.303-.383.654.253-.309-.385.021-.168.765.298.061-.141-.038-.205-.586-.562.176-.066.633.246.209-.045-.656-.604.654.243-.371-.423.338.041-.158-.275.089-.135.13-.096.535.163.168-.073.081-.127-.535-.516.375.058.63.218v-.178a4.648 4.648 0 0 0-.184-.293l.391.066-.486-.482.212.075.167.059c.02.003.135.062-.089-.092-.224-.153-.787-.516-2.129-1.342l-1.444-.88zM323.046 111.304c-.312-.612-.143-.209-.144-.197l-.023.098a.25.25 0 0 0-.01.081l-.005.044-.174.086-.434-.435.017.477-.398-.363.029.496-.491-.548-.075.288-.152.133-.142.152-.246-.05.181.787-.582-.699.096.609-.074.278-.296-.144-.162.11-.308-.163.015.439-.039.33-.398-.325.018.441-.38-.3.162.693-.448-.408.032.454-.537-.57.278.903-.283-.105-.496-.473.121.603-.232-.013-.386-.295.248.823-.196.026-.324-.169-.004.383-.387-.272-.199.052.183.677-.617-.648-.048.297-.224.006.149.609-.523-.459.152.61-.264-.056-.386-.255.051.445-.292-.091-.088.223-.02.329-.094.209-.134.149-.286-.084-.122.166-.179.08-.362-.191-.112.178.16.594-.183.076c-.057.029-.113.063-.169.094l-.377-.21-.157.116-.07.238-.305-.097.249.694-.29-.077-.035.295a11.422 11.422 0 0 0-.339-.144l-.07.233-.077.223c-.026.042-.207-.134-.004.227.034.058-.028.043.443.695l.23.295.393.532c.1.15.212.291.334.423.073.019.067-.07.08-.134l.158-.1.074-.217.305.107.362.197.041-.263c.108.047.22.097.323.138l.025-.29.12-.153.225.001-.091-.463.343.175.284.089-.005-.341.382.237.112-.165.071-.227.411.287-.077-.454-.045-.409.48.396.197-.034-.224-.693.531.489-.142-.581.197-.039.212-.013.389.272.206-.017-.198-.664.121-.158.631.677-.207-.697.197-.036.503.48-.126-.555-.044-.436.617.683-.229-.756.433.374-.071-.489.499.496-.22-.785.408.342-.065-.487.49.492-.065-.491.125-.155.545.599.148-.112.093-.213-.21-.757.215.007.466.477.23.041-.238-.841.472.497-.08-.55.3.176.039-.328.16-.094.197-.034.401.379.208.004.163-.082-.157-.709.316.22.443.48c.039-.055.081-.107.127-.157l.039-.328.339.276-.114-.656c.05.06.104.128.145.167l.103.108c.012.013.076.107-.028-.149l-.115-.263-.201-.435-.725-1.531c-.352-.765-.582-1.21-.713-1.48zM322.848 124.845c-.066-.644-.041-.226-.042-.212l-.025.089c-.005.04-.013.11-.022.105l-.099.009-.151-.537-.063.411-.145-.451-.053.442-.16-.642-.08.216-.094.056-.093.074-.113-.134-.033.72-.175-.803-.049.543-.082.203-.121-.233-.097.029-.124-.253-.065.365-.076.254-.149-.423-.066.365-.136-.378-.041.628-.138-.507-.066.382-.164-.679-.021.845-.12-.201-.154-.578-.049.531-.109-.104-.139-.39-.029.762-.106-.067-.125-.267-.073.295-.135-.374-.103-.038-.043.608-.171-.767-.081.213-.109-.09-.05.537-.154-.578-.05.535-.117-.161-.135-.367-.066.365-.117-.2-.088.135-.077.244-.088.12-.095.058-.117-.186-.092.073-.102-.012-.128-.297-.093.09-.06.505-.103-.021-.1-.012-.131-.326-.099.011-.088.137-.12-.214-.042.609-.121-.213-.082.188-.127-.3-.088.12-.089.112c-.022.029-.073-.26-.059.126-.008.062-.026-.003.051.817l.039.378.067.674.046.416a.605.605 0 0 0 .016.112c.029.026.042-.099.064-.138l.098-.02.086-.152.12.211.128.3.082-.201.121.235.082-.203.095-.059.11.099.065-.381.126.28.117.201.078-.248.133.348.094-.067.088-.132.137.401.066-.365.068-.326.148.516.107.067.043-.622.158.61.06-.504.105.054.108.082.136.378.107.074.045-.595.094-.067.175.797.042-.627.104.057.155.589.058-.487.068-.365.175.797.037-.69.142.478.062-.416.157.603.033-.713.147.443.061-.414.156.595.06-.42.093-.073.166.707.097-.03.088-.133.033-.709.108.091.154.579.113.127.028-.782.155.595.057-.475.126.265.077-.248.1-.016.104.044.143.473.107.083.101-.004.04-.652.129.304.156.579.093-.079.075-.265.133.357.044-.599.05.193.039.142c-.002.017.025.126.015-.127-.009-.253-.065-.873-.2-2.305l-.177-1.537z"/><path fill="#fff" d="M32.276 191.374c-4.15 0-8.13-1.653-11.065-4.594a15.708 15.708 0 0 1-4.584-11.091v-38.288a15.702 15.702 0 0 1 4.592-11.075 15.63 15.63 0 0 1 11.057-4.583h262.698a15.627 15.627 0 0 1 11.057 4.584 15.698 15.698 0 0 1 4.592 11.074v38.288a15.708 15.708 0 0 1-4.584 11.09 15.63 15.63 0 0 1-11.065 4.595H32.276z"/><path fill="#fff" d="M78.435 192.78c4.6 2.359 7.008-2.038 5.11-4.639-1.133-1.528-4.46-6.279-8.504-9.577"/><path fill="#3C4043" d="M80.94 194.262a6.365 6.365 0 0 1-2.871-.766.815.815 0 0 1-.434-.781.807.807 0 0 1 .553-.701.795.795 0 0 1 .612.049c1.678.861 3.134.773 3.994-.238a2.619 2.619 0 0 0 .103-3.209l-.326-.444c-1.319-1.803-4.408-6.025-8.037-8.984a.796.796 0 0 1-.291-.542.802.802 0 0 1 1.304-.706c3.79 3.089 6.963 7.427 8.318 9.281.122.167.23.315.324.441a4.243 4.243 0 0 1-.173 5.206 3.913 3.913 0 0 1-3.076 1.394z"/><path fill="#E7F1FF" stroke="#3C4043" d="M215.817 279.473h-15.645l-2.632-15.143c2.239-1.16 11.078-5.29 19.764-9.318 5.091-2.362 10.12-4.684 13.71-6.341 2.192-1.013 3.847-1.777 4.65-2.15 3.75 9.391 13.142 16.529 23.217 16.95 7.728 1.912 13.685 8.385 14.509 16.002l-48.731-.027-10.31-13.108-.884.4 2.352 12.735zM86.235 279.5l-47.7-.027-13.471-12.865-.475-.453-.311.577-6.867 12.741H.782l23.623-51.056c2.187 1.588 6.52 4.805 11.454 8.469 2.636 1.957 5.443 4.041 8.186 6.073 4.146 3.069 8.144 6.017 11.176 8.215a241.928 241.928 0 0 0 3.727 2.66c.467.324.851.584 1.14.769l.005.003-.134.143c-3.24 3.456-.796 9.127 3.95 9.127h10.957c7.177 1.885 11.894 8.185 11.37 15.624z"/><path fill="#fff" d="M217.569 191.547l23.193 52.686-46.521 20.538-26.537-60.274-16.689-12.95"/><path fill="#3C4043" d="M194.241 265.575a.805.805 0 0 1-.735-.48l-26.455-60.086-16.528-12.826a.802.802 0 0 1-.144-1.128.805.805 0 0 1 1.126-.144l16.689 12.951a.79.79 0 0 1 .243.311l26.214 59.539 45.051-19.89-22.87-51.951a.793.793 0 0 1-.014-.616.812.812 0 0 1 .424-.445.792.792 0 0 1 .614-.014.794.794 0 0 1 .445.425l23.195 52.687a.82.82 0 0 1 .014.616.816.816 0 0 1-.425.444l-46.521 20.539a.8.8 0 0 1-.323.068z"/><path fill="#fff" d="M122.279 191.547l-1.632 4.88a25.615 25.615 0 0 1-6.206 10.001L63.4 256.594l-41.384-30.138 24.61-25.096 5.495-9.859 70.158.046z"/><path fill="#3C4043" d="M63.4 257.397a.8.8 0 0 1-.47-.154l-41.385-30.137a.801.801 0 0 1-.283-.924.798.798 0 0 1 .182-.29l24.536-25.02 5.441-9.764a.805.805 0 0 1 .7-.412l70.16.045a.804.804 0 0 1 .761 1.061l-1.632 4.879a26.57 26.57 0 0 1-6.4 10.314l-51.048 50.172a.798.798 0 0 1-.562.23zm-40.158-31.043l40.081 29.188 50.557-49.689a24.96 24.96 0 0 0 6.007-9.681l1.279-3.822-68.573-.045-5.264 9.446a.79.79 0 0 1-.128.172l-23.96 24.431z"/><path fill="#3C4043" d="M232.549 192.35H83.903a.8.8 0 0 1-.803-.804.806.806 0 0 1 .803-.804h148.646a.798.798 0 0 1 .802.804.805.805 0 0 1-.802.804zM42.508 192.35H31.806a16.453 16.453 0 0 1-11.628-4.835 16.528 16.528 0 0 1-4.824-11.655v-38.261a.805.805 0 0 1 1.37-.569c.15.151.235.356.235.569v38.261a14.915 14.915 0 0 0 4.354 10.518 14.843 14.843 0 0 0 10.493 4.363h10.7a.801.801 0 0 1 .803.805.803.803 0 0 1-.803.804z"/><path fill="#FFF1ED" d="M43.933 177.931a8.29 8.29 0 0 0-1.105 3.882 225.94 225.94 0 0 0-.32 11.771 7.584 7.584 0 0 0 1.685 4.773l2.434 3.003a7.572 7.572 0 0 0 7.731 2.574c1.16-.3 3.113-1.708 3.113-1.708a7.311 7.311 0 0 0 8.279.003 7.569 7.569 0 0 0 6.264 1.195c2.809-.724 5.484-3.056 6.046-5.925l.401-4.398-.03-.023c-.563-5.356-1.845-10.948-3.394-14.509-3.719-8.419-4.83-10.579-4.83-10.579"/><path fill="#3C4043" d="M52.52 204.966a8.403 8.403 0 0 1-6.515-3.1l-2.435-3.003a8.355 8.355 0 0 1-1.865-5.279c0-2.62.056-6.795.321-11.813a9.06 9.06 0 0 1 1.22-4.257.805.805 0 0 1 .496-.369.793.793 0 0 1 .61.092.814.814 0 0 1 .364.5.809.809 0 0 1-.097.611 7.482 7.482 0 0 0-.99 3.508 224.86 224.86 0 0 0-.321 11.728 6.756 6.756 0 0 0 1.508 4.268l2.432 3a6.785 6.785 0 0 0 6.912 2.301c.826-.212 2.33-1.213 2.84-1.581a.797.797 0 0 1 .903-.024 6.513 6.513 0 0 0 7.397.013.802.802 0 0 1 .915.012 6.748 6.748 0 0 0 5.6 1.07c2.68-.691 4.965-2.9 5.448-5.261l.378-4.154a.778.778 0 0 1-.01-.068c-.565-5.378-1.842-10.846-3.332-14.271-3.653-8.272-4.797-10.51-4.808-10.532a.806.806 0 0 1 .348-1.079.802.802 0 0 1 1.078.341c.046.089 1.166 2.279 4.852 10.623 1.536 3.53 2.849 9.097 3.44 14.57.043.115.06.239.05.361l-.402 4.398a.76.76 0 0 1-.012.08c-.588 3.001-3.315 5.694-6.634 6.549a8.332 8.332 0 0 1-6.477-1.016 8.32 8.32 0 0 1-2.137.882 8.206 8.206 0 0 1-6.1-.884c-.682.46-1.99 1.283-2.942 1.528a8.32 8.32 0 0 1-2.036.256z"/><path fill="#FFED96" stroke="#3C4043" stroke-width="2" d="M49.642 127.029l24.582 42.195-33.313 9.652-32.768-50.668h0a17.79 17.79 0 0 1-2.153-14.621 17.788 17.788 0 0 1 3.595-6.649 17.73 17.73 0 0 1 6.028-4.546v-.001L78.72 73.317l.045-.02.043-.025a19.33 19.33 0 0 1 7.249-2.49l.013-.001.013-.002 21.627-3.437c.326 2.702 1.359 5.457 3.503 7.412 1.301 1.188 2.871 1.772 4.455 2.07 1.57.296 3.225.32 4.72.341h0c4.171.056 6.776-3.52 8.295-6.734 1.223-2.59 1.902-5.27 2.196-6.614a16.794 16.794 0 0 1 12.208 4.854l.029.028.03.026 62.426 52.56c-12.413-.215-46.756-.834-50.866-.965l-4.842-4.077-1.649-1.389.005 2.156.009 4.287c-4.023.071-18.199-.027-32.293-.158-14.337-.133-28.485-.3-31.55-.354l-4.672-7.829-.461-.772-.817.376-28.347 13.058-1 .46.554.951z"/><path fill="#3C4043" d="M149.165 122.423a.798.798 0 0 1-.802-.804V91.991a.803.803 0 1 1 1.605 0v29.628a.802.802 0 0 1-.803.804z"/><path fill="#FFF1ED" d="M113.888 51.226l-4.554 11.916a9.453 9.453 0 0 0 1.23 9.009l.482.643a9.38 9.38 0 0 0 13.272 1.806 9.42 9.42 0 0 0 2.966-3.924l3.103-7.666a14.063 14.063 0 0 0 8.7-4.698 14.123 14.123 0 0 0 3.472-9.273 14.61 14.61 0 0 0-.428-3.46 14.17 14.17 0 0 0-4.548-7.295c.267-1.096.401-2.22.401-3.349a14.474 14.474 0 0 0-.535-3.888l-16.041-.42-3.21 5.63-4.422.532c-5.801.697-7.884 8.064-3.311 11.709l3.423 2.728z"/><path fill="#3C4043" d="M118.596 77.371c-.479 0-.957-.033-1.431-.1a10.122 10.122 0 0 1-6.762-3.995l-.482-.643a10.239 10.239 0 0 1-1.337-9.778l4.344-11.367-2.963-2.361a7.404 7.404 0 0 1-2.508-7.81 7.402 7.402 0 0 1 2.307-3.608 7.375 7.375 0 0 1 3.917-1.72l4.021-.483 3.01-5.279a.807.807 0 0 1 .717-.405l16.04.42a.803.803 0 0 1 .753.59 15.21 15.21 0 0 1 .564 4.103c0 1.028-.107 2.053-.317 3.06a14.871 14.871 0 0 1 4.438 7.386c.296 1.197.448 2.424.453 3.657a14.969 14.969 0 0 1-3.527 9.615 14.914 14.914 0 0 1-8.875 5.083l-2.931 7.242a10.277 10.277 0 0 1-3.281 4.306 10.098 10.098 0 0 1-6.15 2.087zm3.27-45.928l-2.972 5.213a.807.807 0 0 1-.601.4l-4.422.531a5.788 5.788 0 0 0-4.867 4.171 5.8 5.8 0 0 0 1.961 6.11l3.424 2.728a.807.807 0 0 1 .25.917l-4.557 11.916a8.64 8.64 0 0 0 1.126 8.242l.478.64a8.6 8.6 0 0 0 3.54 2.774 8.578 8.578 0 0 0 8.601-1.122 8.606 8.606 0 0 0 2.712-3.59l3.104-7.666a.807.807 0 0 1 .636-.494 13.296 13.296 0 0 0 8.194-4.439 13.35 13.35 0 0 0 3.282-8.736 13.588 13.588 0 0 0-.405-3.268 13.28 13.28 0 0 0-4.289-6.873.81.81 0 0 1-.26-.805c.499-2.055.506-4.2.02-6.258l-14.955-.391z"/><path fill="#fff" stroke="#3C4043" stroke-width="2" d="M110.864 30.122l-.006.014a8.14 8.14 0 0 0-.315.95l-.002.007-.002.007a14.05 14.05 0 0 0-.528 3.808l.853-4.786zm0 0l.005-.014m-.005.014l.005-.014m0 0a13.908 13.908 0 0 1 5.308-6.758 13.861 13.861 0 0 1 16.307.63 13.92 13.92 0 0 1 4.701 6.898h-12.392a5.332 5.332 0 0 0-3.769 1.568 5.349 5.349 0 0 0-1.563 3.775v3.387m-8.592-9.5l8.592 9.5m0 0a13.263 13.263 0 0 0-1.813-2.02c-.97-.887-2.211-1.876-3.721-2.274-.892-.236-1.768-.243-2.561-.205-.326.015-.62.036-.901.057l-.45.03a9.262 9.262 0 0 1-.004-.288l9.45 4.7z"/><path fill="#3C4043" d="M50.506 127.33a.804.804 0 0 1-.725-.46l-3.183-6.729a.81.81 0 0 1-.03-.615.803.803 0 0 1 1.48-.075l2.39 5.054 1.97-5.004a.808.808 0 0 1 .734-.514.798.798 0 0 1 .752.486.803.803 0 0 1 .008.618l-2.649 6.73a.8.8 0 0 1-.72.509h-.027zM86.139 115.854a.816.816 0 0 1-.17-.018l-7.277-1.582a.806.806 0 0 1-.165-1.517l9.068-4.183a.802.802 0 0 1 1.065.395.806.806 0 0 1-.394 1.067l-6.886 3.176 4.928 1.072a.804.804 0 0 1-.17 1.59zM294.504 192.35h-41.197a.802.802 0 0 1-.802-.804.802.802 0 0 1 .802-.804h41.197a14.85 14.85 0 0 0 10.494-4.364 14.912 14.912 0 0 0 4.353-10.517v-38.288a14.935 14.935 0 0 0-4.368-10.495 14.87 14.87 0 0 0-10.479-4.359H213.73l-133.436-.126-.508.107a.852.852 0 0 1-.167.018H58.56a.801.801 0 0 1-.803-.805.805.805 0 0 1 .803-.804h20.976l.508-.107a.784.784 0 0 1 .167-.018l133.52.126h80.774a16.477 16.477 0 0 1 11.612 4.831 16.548 16.548 0 0 1 4.84 11.629v38.291a16.523 16.523 0 0 1-4.824 11.654 16.448 16.448 0 0 1-11.628 4.835z"/><path fill="#3C4043" d="M289.106 192h-42.303a.837.837 0 0 1-.583-.234.791.791 0 0 1-.241-.566c0-.212.087-.416.241-.566a.837.837 0 0 1 .583-.234h42.303c4.042-.005 7.917-1.566 10.775-4.342 2.859-2.775 4.466-6.538 4.471-10.463v-38.091c-.017-3.919-1.63-7.672-4.486-10.441-2.856-2.768-6.724-4.328-10.76-4.337h-82.944L69.144 122.6l-.522.107a.823.823 0 0 1-.172.018H46.824a.837.837 0 0 1-.583-.235.787.787 0 0 1 0-1.131.837.837 0 0 1 .583-.235h21.54l.522-.106a.825.825 0 0 1 .172-.018l137.104.125h82.944c4.472.011 8.758 1.739 11.923 4.807 3.165 3.067 4.952 7.226 4.971 11.569v38.094c-.005 4.349-1.787 8.519-4.954 11.595-3.167 3.075-7.461 4.805-11.94 4.81z"/><path fill="#3C4043" d="M283.106 192h-42.303a.837.837 0 0 1-.583-.234.791.791 0 0 1-.241-.566c0-.212.087-.416.241-.566a.837.837 0 0 1 .583-.234h42.303c4.042-.005 7.917-1.566 10.775-4.342 2.859-2.775 4.466-6.538 4.471-10.463v-38.091c-.017-3.919-1.63-7.672-4.486-10.441-2.856-2.768-6.724-4.328-10.76-4.337h-82.944L63.144 122.6l-.522.107a.823.823 0 0 1-.172.018H40.824a.837.837 0 0 1-.583-.235.787.787 0 0 1 0-1.131.837.837 0 0 1 .583-.235h21.54l.522-.106a.825.825 0 0 1 .171-.018l137.105.125h82.944c4.472.011 8.758 1.739 11.923 4.807 3.165 3.067 4.952 7.226 4.971 11.569v38.094c-.005 4.349-1.787 8.519-4.954 11.595-3.167 3.075-7.461 4.805-11.94 4.81z"/><path fill="#3C4043" d="M277.106 192h-42.303a.837.837 0 0 1-.583-.234.791.791 0 0 1-.241-.566c0-.212.087-.416.241-.566a.837.837 0 0 1 .583-.234h42.303c4.042-.005 7.917-1.566 10.775-4.342 2.859-2.775 4.466-6.538 4.471-10.463v-38.091c-.017-3.919-1.63-7.672-4.486-10.441-2.856-2.768-6.724-4.328-10.76-4.337h-82.944L57.144 122.6l-.522.107a.823.823 0 0 1-.172.018H34.824a.837.837 0 0 1-.583-.235.787.787 0 0 1 0-1.131.837.837 0 0 1 .583-.235h21.54l.522-.106a.825.825 0 0 1 .171-.018l137.105.125h82.944c4.472.011 8.758 1.739 11.923 4.807 3.165 3.067 4.952 7.226 4.971 11.569v38.094c-.005 4.349-1.787 8.519-4.954 11.595-3.167 3.075-7.461 4.805-11.94 4.81zM175.756 210.502a.803.803 0 0 1-.434-.127l-8.025-5.175a.796.796 0 0 1-.351-.506.807.807 0 0 1 .615-.957.799.799 0 0 1 .604.11l8.026 5.174a.81.81 0 0 1 .046 1.321.803.803 0 0 1-.481.16zM47.617 194.174a.805.805 0 0 1-.793-.686c-1.227-8.22-3.452-13.971-3.475-14.028a.804.804 0 0 1 1.069-1.031.805.805 0 0 1 .426.444c.094.24 2.311 5.965 3.567 14.377a.803.803 0 0 1-.794.924zM124.848 40.244c.812 0 1.471-.66 1.471-1.475 0-.815-.659-1.475-1.471-1.475-.813 0-1.472.66-1.472 1.475 0 .814.659 1.475 1.472 1.475zM136.351 40.244c.813 0 1.472-.66 1.472-1.475 0-.815-.659-1.475-1.472-1.475-.812 0-1.471.66-1.471 1.475 0 .814.659 1.475 1.471 1.475zM128.459 63.946a14.68 14.68 0 0 1-8.655-2.78.804.804 0 0 1 .939-1.305 13.084 13.084 0 0 0 7.716 2.476c.676 0 1.35-.05 2.018-.151a.8.8 0 0 1 .908.673.808.808 0 0 1-.664.917c-.748.114-1.505.17-2.262.17zM134.879 44.882a.808.808 0 0 1-.118-.009l-5.029-.75a.803.803 0 0 1-.354-1.438.8.8 0 0 1 .59-.154l3.686.55-2.042-5.507a.805.805 0 0 1 1.087-1.011.801.801 0 0 1 .418.451l2.515 6.784a.81.81 0 0 1-.094.739.8.8 0 0 1-.659.345z"/><path fill="#FFF1ED" d="M113.887 51.226a7.687 7.687 0 0 1-4.702-.252 7.708 7.708 0 0 1-3.678-2.948 7.735 7.735 0 0 1 .319-8.982 7.69 7.69 0 0 1 12.366.219 7.733 7.733 0 0 1 1.44 4.493"/><path fill="#3C4043" d="M111.927 52.282c-1.682 0-3.327-.5-4.726-1.437a8.523 8.523 0 0 1-3.133-3.826 8.545 8.545 0 0 1 1.844-9.292 8.49 8.49 0 0 1 9.271-1.848 8.516 8.516 0 0 1 3.818 3.14 8.545 8.545 0 0 1 1.433 4.737.803.803 0 1 1-1.605 0 6.915 6.915 0 0 0-4.674-6.532 6.878 6.878 0 0 0-7.678 2.324 6.915 6.915 0 0 0-.286 8.033 6.89 6.89 0 0 0 7.492 2.867.8.8 0 0 1 .953.58.804.804 0 0 1-.546.975 8.503 8.503 0 0 1-2.163.28zM133.602 52.209c-.07 0-.141-.005-.211-.013-.749-.091-1.208-.62-1.614-1.087-.554-.636-.817-.864-1.39-.747a.802.802 0 0 1-.84-1.232.8.8 0 0 1 .516-.344c1.545-.319 2.374.635 2.923 1.265.206.237.463.531.6.548.186-.127.352-.282.49-.461.506-.566 1.271-1.421 2.702-1.421a.804.804 0 0 1 0 1.609c-.68 0-1.017.337-1.508.886-.4.448-.891.997-1.668.997z"/><path fill="#FFF1ED" d="M253.307 191.519s-.401-6.623-.749-9.197c-.666-4.92-5.093-5.381-6.545-1.82-1.217-3.942-6.824-2.842-6.777 2.678l.008.891c-1.365-3.654-6.742-2.488-6.696 2.917.027 3.727.187 5.389.294 7.293a5.483 5.483 0 0 0 1.472 3.432l1.926 2.118a5.595 5.595 0 0 0 6.169 1.406 5.598 5.598 0 0 0 1.865-1.218 5.578 5.578 0 0 0 6.084-.436 5.6 5.6 0 0 0 4.715.596c2.06-.67 3.905-2.52 4.2-4.665l.08-3.244"/><path fill="#3C4043" d="M240.352 202.432a6.374 6.374 0 0 1-4.704-2.058l-1.927-2.12a6.309 6.309 0 0 1-1.679-3.924c-.022-.397-.047-.777-.072-1.169-.095-1.495-.203-3.189-.224-6.167-.03-3.476 1.951-5.403 3.928-5.771a3.711 3.711 0 0 1 2.859.613c.438-2.686 2.242-4.175 3.944-4.44a3.693 3.693 0 0 1 3.588 1.453 3.756 3.756 0 0 1 3.404-1.45c1.59.203 3.446 1.574 3.885 4.816.347 2.574.738 8.984.754 9.256a.803.803 0 1 1-1.601.097c-.005-.066-.404-6.623-.744-9.137-.317-2.339-1.498-3.309-2.497-3.436-1.04-.132-2 .563-2.51 1.812a.808.808 0 0 1-.778.499.806.806 0 0 1-.732-.566c-.466-1.511-1.61-1.896-2.522-1.754-1.353.21-2.707 1.587-2.685 4.188l.008.89a.808.808 0 0 1-.656.799.8.8 0 0 1-.899-.509c-.519-1.391-1.644-1.713-2.525-1.549-1.318.245-2.638 1.631-2.616 4.177.021 2.934.127 4.604.221 6.078.025.395.05.78.072 1.176a4.635 4.635 0 0 0 1.254 2.925l1.935 2.129a4.802 4.802 0 0 0 3.406 1.537 4.793 4.793 0 0 0 3.473-1.38.8.8 0 0 1 .951-.131 4.776 4.776 0 0 0 5.212-.374.802.802 0 0 1 .913-.037 4.786 4.786 0 0 0 4.039.509c1.864-.606 3.39-2.27 3.644-3.966l.079-3.197a.803.803 0 0 1 .803-.785h.02a.8.8 0 0 1 .782.824l-.08 3.244a.684.684 0 0 1-.008.09c-.318 2.327-2.271 4.515-4.747 5.321a6.37 6.37 0 0 1-4.923-.411 6.372 6.372 0 0 1-5.991.448 6.34 6.34 0 0 1-4.054 1.45zM111.045 46.813a.8.8 0 0 1-.752-.524.807.807 0 0 1 .227-.89l2.22-1.921-4.295-1.228a.805.805 0 0 1 .44-1.547l5.724 1.636a.802.802 0 0 1 .564.6.814.814 0 0 1-.259.782l-3.344 2.896a.797.797 0 0 1-.525.196z"/><path fill="#3C4043" d="M246.192 193.932a.804.804 0 0 1-.803-.793l-.178-12.625a.802.802 0 1 1 1.605-.023l.178 12.625a.795.795 0 0 1-.227.572.804.804 0 0 1-.564.244h-.011zM239.477 194.442a.8.8 0 0 1-.803-.785l-.232-9.565a.804.804 0 1 1 1.605-.039l.233 9.566a.803.803 0 0 1-.783.823h-.02z"/><path fill="#FFF1ED" d="M203.724 224.454a2.81 2.81 0 0 0 1.597-3.64 2.81 2.81 0 0 0-3.642-1.59 2.81 2.81 0 0 0-1.598 3.639 2.811 2.811 0 0 0 3.643 1.591z"/><path fill="#E7F1FF" d="M188.157 215.465a2.812 2.812 0 0 0 1.598-3.64 2.812 2.812 0 0 0-3.643-1.591 2.81 2.81 0 0 0-1.597 3.64 2.81 2.81 0 0 0 3.642 1.591zM71.665 218.255a2.81 2.81 0 0 0 1.597-3.64 2.812 2.812 0 0 0-3.642-1.591 2.811 2.811 0 0 0-1.598 3.64 2.812 2.812 0 0 0 3.643 1.591zM60.665 211.255a2.81 2.81 0 0 0 1.598-3.64 2.812 2.812 0 0 0-3.643-1.591 2.811 2.811 0 0 0-1.598 3.64 2.812 2.812 0 0 0 3.643 1.591zM81.665 209.255a2.81 2.81 0 0 0 1.597-3.64 2.812 2.812 0 0 0-3.642-1.591 2.811 2.811 0 0 0-1.598 3.64 2.812 2.812 0 0 0 3.643 1.591zM58.665 224.255a2.81 2.81 0 0 0 1.598-3.64 2.812 2.812 0 0 0-3.643-1.591 2.811 2.811 0 0 0-1.598 3.64 2.812 2.812 0 0 0 3.643 1.591zM62.665 247.255a2.81 2.81 0 0 0 1.598-3.64 2.812 2.812 0 0 0-3.643-1.591 2.811 2.811 0 0 0-1.598 3.64 2.812 2.812 0 0 0 3.643 1.591zM46.665 215.255a2.81 2.81 0 0 0 1.598-3.64 2.812 2.812 0 0 0-3.643-1.591 2.811 2.811 0 0 0-1.598 3.64 2.812 2.812 0 0 0 3.643 1.591zM36.665 227.255a2.81 2.81 0 0 0 1.598-3.64 2.812 2.812 0 0 0-3.643-1.591 2.811 2.811 0 0 0-1.598 3.64 2.812 2.812 0 0 0 3.643 1.591zM80.665 231.255a2.81 2.81 0 0 0 1.597-3.64 2.812 2.812 0 0 0-3.642-1.591 2.811 2.811 0 0 0-1.598 3.64 2.812 2.812 0 0 0 3.643 1.591zM214.825 199.382a2.812 2.812 0 0 0 1.598-3.64 2.812 2.812 0 0 0-3.643-1.591 2.81 2.81 0 0 0-1.597 3.64 2.81 2.81 0 0 0 3.642 1.591zM216.157 215.899a2.811 2.811 0 0 0 1.598-3.639 2.81 2.81 0 0 0-3.643-1.591 2.81 2.81 0 0 0-1.597 3.639 2.81 2.81 0 0 0 3.642 1.591zM201.29 208.163a2.81 2.81 0 0 0 1.597-3.64 2.81 2.81 0 0 0-3.642-1.59 2.81 2.81 0 0 0-1.598 3.639 2.811 2.811 0 0 0 3.643 1.591z"/><path fill="#FFF1ED" d="M186.013 199.129a2.81 2.81 0 0 0 1.597-3.639 2.81 2.81 0 0 0-3.642-1.591 2.81 2.81 0 0 0-1.598 3.639 2.81 2.81 0 0 0 3.643 1.591zM86.665 220.255a2.81 2.81 0 0 0 1.597-3.64 2.812 2.812 0 0 0-3.642-1.591 2.811 2.811 0 0 0-1.598 3.64 2.812 2.812 0 0 0 3.643 1.591zM66.665 233.255a2.81 2.81 0 0 0 1.597-3.64 2.812 2.812 0 0 0-3.642-1.591 2.811 2.811 0 0 0-1.598 3.64 2.812 2.812 0 0 0 3.643 1.591zM51.665 234.255a2.81 2.81 0 0 0 1.598-3.64 2.812 2.812 0 0 0-3.643-1.591 2.811 2.811 0 0 0-1.598 3.64 2.812 2.812 0 0 0 3.643 1.591zM97.665 207.255a2.81 2.81 0 0 0 1.597-3.64 2.812 2.812 0 0 0-3.642-1.591 2.811 2.811 0 0 0-1.598 3.64 2.812 2.812 0 0 0 3.643 1.591z"/><path fill="#E7F1FF" d="M171.665 201.255a2.812 2.812 0 0 0 1.598-3.64 2.812 2.812 0 0 0-3.643-1.591 2.812 2.812 0 0 0-1.598 3.64 2.812 2.812 0 0 0 3.643 1.591zM111.665 202.255a2.81 2.81 0 0 0 1.597-3.64 2.81 2.81 0 0 0-3.642-1.591 2.812 2.812 0 0 0-1.598 3.64 2.812 2.812 0 0 0 3.643 1.591zM220.641 231.186a2.81 2.81 0 0 0 1.598-3.64 2.81 2.81 0 0 0-3.642-1.59 2.81 2.81 0 0 0-1.598 3.639 2.81 2.81 0 0 0 3.642 1.591z"/><path fill="#FFF1ED" d="M224.337 244.544a2.81 2.81 0 0 0 1.597-3.639 2.81 2.81 0 0 0-3.642-1.591 2.812 2.812 0 0 0-1.598 3.64 2.81 2.81 0 0 0 3.643 1.59z"/><path fill="#E7F1FF" d="M207.85 238.49a2.81 2.81 0 0 0 1.598-3.639 2.81 2.81 0 0 0-3.642-1.591 2.81 2.81 0 0 0-1.598 3.639 2.81 2.81 0 0 0 3.642 1.591zM211.716 252.629a2.81 2.81 0 0 0 1.597-3.64 2.81 2.81 0 0 0-3.642-1.591 2.812 2.812 0 0 0-1.598 3.64 2.812 2.812 0 0 0 3.643 1.591zM196.216 248.053a2.81 2.81 0 0 0 1.597-3.64 2.81 2.81 0 0 0-3.642-1.591 2.812 2.812 0 0 0-1.598 3.64 2.812 2.812 0 0 0 3.643 1.591zM190.589 231.316a2.81 2.81 0 0 0 1.597-3.639 2.81 2.81 0 0 0-3.642-1.591 2.811 2.811 0 0 0-1.598 3.639 2.81 2.81 0 0 0 3.643 1.591zM92.665 200.255a2.811 2.811 0 0 0 1.597-3.64 2.812 2.812 0 0 0-3.642-1.591 2.811 2.811 0 0 0-1.598 3.64 2.812 2.812 0 0 0 3.643 1.591z"/><path fill="#FFF1ED" d="M228.276 218.788a2.805 2.805 0 0 1-2.615 1.706 2.817 2.817 0 0 1-2.727-3.385 2.802 2.802 0 0 1 2.23-2.184 2.82 2.82 0 0 1 1.623.177"/><path fill="#E7F1FF" d="M96.665 215.255a2.811 2.811 0 0 0 1.597-3.64 2.812 2.812 0 0 0-3.642-1.591 2.811 2.811 0 0 0-1.598 3.64 2.812 2.812 0 0 0 3.643 1.591z"/><path fill="#FFDA2D" d="M263.473 262.939a3.687 3.687 0 0 1-.95.991 4.025 4.025 0 0 1-3.309.61l-12.83-3.248a.941.941 0 0 1-.614-.494l-4.416-8.859a3.702 3.702 0 0 1 .075-3.49 3.87 3.87 0 0 1 3.044-1.911 3.906 3.906 0 0 1 3.157 1.148 3.803 3.803 0 0 1 1.1 3.066l-.752 7.364 11.581-1.508a4.05 4.05 0 0 1 3.339 1.102 3.815 3.815 0 0 1 1.189 3.095l-.037.472a3.674 3.674 0 0 1-.577 1.662zm-14.748-3.009l10.948 2.771a2.133 2.133 0 0 0 1.751-.313 1.751 1.751 0 0 0 .739-1.269l.036-.469a1.932 1.932 0 0 0-.612-1.57 2.155 2.155 0 0 0-1.786-.592l-11.076 1.442zm-5.589-10.646c-.02.032-.041.064-.059.098a1.814 1.814 0 0 0-.024 1.715l3.101 6.224.693-6.759a1.903 1.903 0 0 0-.56-1.538 2.036 2.036 0 0 0-1.643-.599 1.951 1.951 0 0 0-1.507.859h-.001zM77.473 264.939a3.69 3.69 0 0 1-.95.991 4.028 4.028 0 0 1-3.31.61l-12.83-3.248a.938.938 0 0 1-.614-.494l-4.415-8.859a3.69 3.69 0 0 1 .075-3.49 3.85 3.85 0 0 1 3.044-1.911 3.907 3.907 0 0 1 3.157 1.148 3.787 3.787 0 0 1 1.1 3.066l-.752 7.364 11.58-1.508a4.047 4.047 0 0 1 3.34 1.102 3.812 3.812 0 0 1 1.189 3.095l-.037.472a3.664 3.664 0 0 1-.577 1.662zm-14.748-3.009l10.949 2.771a2.129 2.129 0 0 0 1.75-.313 1.745 1.745 0 0 0 .739-1.269l.036-.469a1.935 1.935 0 0 0-.612-1.57 2.154 2.154 0 0 0-1.786-.592l-11.076 1.442zm-5.589-10.646c-.02.032-.04.064-.059.098a1.817 1.817 0 0 0-.024 1.715l3.101 6.224.693-6.759a1.908 1.908 0 0 0-.56-1.538 2.035 2.035 0 0 0-1.643-.599 1.948 1.948 0 0 0-1.507.859z"/></svg>