<svg width="347" height="281" viewBox="0 0 347 281" fill="none" xmlns="http://www.w3.org/2000/svg">
<path d="M346.009 39.2875V38.2824H345.968L345.961 0H16V281H346.009L346.002 240.468H346.009V239.462H346.002L345.995 200.221H346.009V199.215H345.995L345.988 160.023H346.009V159.017H345.988L345.981 119.778H346.009V118.772H345.981L345.974 79.5323H346.009V78.5263H345.974L345.967 39.287L346.009 39.2875ZM344.958 1.10208V38.2824H305.762V1.10208H344.958ZM304.758 1.10208V38.2824H264.272V1.10208H304.758ZM180.813 119.779H221.778V159.018H180.813V119.779ZM179.81 159.018H138.845V119.779H179.81V159.018ZM180.813 118.773V79.5328H221.778V118.773H180.813ZM179.81 118.773H138.845V79.5328H179.81V118.773ZM137.841 118.773H96.8275V79.5328H137.84L137.841 118.773ZM137.841 119.779V159.018H96.8275V119.779H137.841ZM137.841 160.024V199.215H96.8275V160.024H137.841ZM138.845 160.024H179.81V199.215H138.845V160.024ZM180.813 160.024H221.778V199.215H180.813V160.024ZM222.781 160.024H263.268V199.215H222.781V160.024ZM222.781 159.018V119.779H263.268V159.018H222.781ZM222.781 118.773V79.5328H263.268V118.773H222.781ZM222.781 78.5268V39.2875H263.268V78.5268H222.781ZM221.778 78.5268H180.813V39.2875H221.778V78.5268ZM179.81 78.5268H138.845V39.2875H179.81V78.5268ZM137.841 78.5268H96.8275V39.2875H137.84L137.841 78.5268ZM95.8257 78.5268H54.8612V39.2875H95.8257V78.5268ZM95.8257 79.5328V118.773H54.8612V79.5328H95.8257ZM95.8257 119.779V159.018H54.8612V119.779H95.8257ZM95.8257 160.024V199.215H54.8612V160.024H95.8257ZM95.8257 200.222V239.461H54.8612V200.221L95.8257 200.222ZM96.8294 200.222H137.841V239.461H96.8275L96.8294 200.222ZM138.845 200.222H179.81V239.461H138.845V200.222ZM180.813 200.222H221.778V239.461H180.813V200.222ZM222.781 200.222H263.268V239.461H222.781V200.222ZM264.272 200.222H304.758V239.461H264.272V200.222ZM264.272 199.215V160.024H304.758V199.215H264.272ZM264.272 159.018V119.779H304.758V159.018H264.272ZM264.272 118.773V79.5328H304.758V118.773H264.272ZM264.272 78.5268V39.2875H304.758V78.5268H264.272ZM263.268 1.10208V38.2824H222.781V1.10208H263.268ZM221.778 1.10208V38.2824H180.813V1.10208H221.778ZM179.81 1.10208V38.2824H138.845V1.10208H179.81ZM137.841 1.10208V38.2824H96.8275V1.10208H137.841ZM95.8257 1.10208V38.2824H54.8612V1.10208H95.8257ZM17.0518 1.10208H53.8576V38.2824H17.0518V1.10208ZM17.0518 39.2875H53.8576V78.5268H17.0518V39.2875ZM17.0518 79.5328H53.8576V118.773H17.0518V79.5328ZM17.0518 119.779H53.8576V159.018H17.0518V119.779ZM17.0518 160.024H53.8576V199.215H17.0518V160.024ZM17.0518 200.222H53.8576V239.461H17.0518V200.222ZM17.0518 279.946V240.467H53.8576V279.946H17.0518ZM54.8612 279.946V240.467H95.8257V279.946H54.8612ZM96.8294 279.946V240.467H137.841V279.946H96.8294ZM138.845 279.946V240.467H179.81V279.946H138.845ZM180.813 279.946V240.467H221.778V279.946H180.813ZM222.781 279.946V240.467H263.268V279.946H222.781ZM264.272 279.946V240.467H304.758V279.946H264.272ZM344.959 279.946H305.762V240.467H344.958L344.959 279.946ZM344.959 239.461H305.762V200.221H344.958L344.959 239.461ZM344.959 199.216H305.762V160.024H344.958L344.959 199.216ZM344.959 159.018H305.762V119.779H344.958L344.959 159.018ZM344.959 118.773H305.762V79.5328H344.958L344.959 118.773ZM344.959 78.5272H305.762V39.2875H344.958L344.959 78.5272Z" fill="#E7F1FF"/>
<path d="M310.28 103.676C309.686 103.319 310.065 103.574 310.079 103.589L310.22 103.795L310.123 103.907L309.518 103.702L309.798 104.036L309.275 103.881L309.598 104.254L308.902 103.982L309.021 104.229L308.99 104.38L308.971 104.542L308.753 104.59L309.353 105.144L308.502 104.774L308.933 105.223L309.038 105.464L308.728 105.439L308.67 105.573L308.342 105.534L308.599 105.879L308.757 106.153L308.268 106.01L308.542 106.356L308.094 106.239L308.606 106.746L308.033 106.545L308.286 106.897L307.56 106.589L308.272 107.242L307.994 107.233L307.355 106.982L307.77 107.435L307.573 107.483L307.107 107.346L307.741 107.948L307.587 108.02L307.245 107.964L307.435 108.271L306.993 108.14L306.866 108.229L307.353 108.738L306.539 108.359L306.648 108.61L306.472 108.666L306.89 109.131L306.252 108.865L306.669 109.331L306.424 109.34L305.983 109.211L306.249 109.571L305.964 109.55L305.996 109.743L306.135 110.018L306.159 110.211L306.124 110.365L305.854 110.354L305.834 110.518L305.728 110.622L305.357 110.536L305.351 110.712L305.743 111.171L305.633 111.273L305.536 111.385L305.144 111.283L305.066 111.408C305.075 111.475 305.102 111.554 305.116 111.624L304.847 111.61L305.319 112.134L305.055 112.123L305.132 112.369L304.8 112.307L304.827 112.509L304.845 112.7C304.849 112.746 304.598 112.604 304.894 112.865C304.942 112.906 304.867 112.892 305.532 113.382L305.841 113.608L306.387 114.002L306.726 114.262C306.756 114.286 306.789 114.306 306.824 114.321C306.875 114.31 306.803 114.211 306.799 114.161L306.895 114.046L306.878 113.855L307.169 113.89L307.541 113.978L307.478 113.747L307.804 113.797L307.734 113.56C307.755 113.513 307.774 113.465 307.789 113.415L307.985 113.369L307.728 112.999L308.089 113.075L308.373 113.094L308.235 112.81L308.66 112.929L308.691 112.766L308.66 112.56L309.138 112.714L308.88 112.346L308.663 112.01L309.25 112.239C309.303 112.215 309.352 112.187 309.404 112.163L308.896 111.626L309.564 111.91L309.176 111.457L309.319 111.374L309.489 111.309L309.94 111.436L310.103 111.365L309.633 110.827L309.652 110.662L310.502 111.061L309.992 110.533L310.138 110.45L310.787 110.717L310.42 110.295L310.168 109.943L311.016 110.334L310.451 109.772L311.002 109.957L310.697 109.573L311.357 109.841L310.769 109.268L311.279 109.427L310.976 109.044L311.63 109.297L311.321 108.912L311.342 108.744L312.107 109.042L312.168 108.901L312.13 108.696L311.544 108.134L311.72 108.068L312.353 108.314L312.562 108.269L311.906 107.665L312.56 107.908L312.189 107.485L312.527 107.526L312.369 107.251L312.458 107.116L312.588 107.02L313.123 107.183L313.291 107.11L313.372 106.983L312.837 106.467L313.212 106.525L313.842 106.743L313.842 106.565C313.787 106.471 313.72 106.361 313.658 106.272L314.049 106.338L313.563 105.856L313.775 105.931L313.942 105.99C313.962 105.993 314.077 106.052 313.853 105.898C313.629 105.745 313.066 105.382 311.724 104.556L310.28 103.676Z" fill="#FFBCA5"/>
<path d="M323.046 111.304C322.734 110.692 322.903 111.095 322.902 111.107L322.879 111.205C322.871 111.232 322.868 111.259 322.869 111.286L322.864 111.33L322.69 111.416L322.256 110.981L322.273 111.458L321.875 111.095L321.904 111.591L321.413 111.043L321.338 111.331L321.186 111.464L321.044 111.616L320.798 111.566L320.979 112.353L320.397 111.654L320.493 112.263L320.419 112.541L320.123 112.397L319.961 112.507L319.653 112.344L319.668 112.783L319.629 113.113L319.231 112.788L319.249 113.229L318.869 112.929L319.031 113.622L318.583 113.214L318.615 113.668L318.078 113.098L318.356 114.001L318.073 113.896L317.577 113.423L317.698 114.026L317.466 114.013L317.08 113.718L317.328 114.541L317.132 114.567L316.808 114.398L316.804 114.781L316.417 114.509L316.218 114.561L316.401 115.238L315.784 114.59L315.736 114.887L315.512 114.893L315.661 115.502L315.138 115.043L315.29 115.653L315.026 115.597L314.64 115.342L314.691 115.787L314.399 115.696L314.311 115.919L314.291 116.248L314.197 116.457L314.063 116.606L313.777 116.522L313.655 116.688L313.476 116.768L313.114 116.577L313.002 116.755L313.162 117.349L312.979 117.425C312.922 117.454 312.866 117.488 312.81 117.519L312.433 117.309L312.276 117.425L312.206 117.663L311.901 117.566L312.15 118.26L311.86 118.183L311.825 118.478C311.71 118.427 311.597 118.379 311.486 118.334L311.416 118.567L311.339 118.79C311.313 118.832 311.132 118.656 311.335 119.017C311.369 119.075 311.307 119.06 311.778 119.712L312.008 120.007L312.401 120.539C312.501 120.689 312.613 120.83 312.735 120.962C312.808 120.981 312.802 120.892 312.815 120.828L312.973 120.728L313.047 120.511L313.352 120.618L313.714 120.815L313.755 120.552C313.863 120.599 313.975 120.649 314.078 120.69L314.103 120.4L314.223 120.247L314.448 120.248L314.357 119.785L314.7 119.96L314.984 120.049L314.979 119.708L315.361 119.945L315.473 119.78L315.544 119.553L315.955 119.84L315.878 119.386L315.833 118.977L316.313 119.373L316.51 119.339L316.286 118.646L316.817 119.135L316.675 118.554L316.872 118.515L317.084 118.502L317.473 118.774L317.679 118.757L317.481 118.093L317.602 117.935L318.233 118.612L318.026 117.915L318.223 117.879L318.726 118.359L318.6 117.804L318.556 117.368L319.173 118.051L318.944 117.295L319.377 117.669L319.306 117.18L319.805 117.676L319.585 116.891L319.993 117.233L319.928 116.746L320.418 117.238L320.353 116.747L320.478 116.592L321.023 117.191L321.171 117.079L321.264 116.866L321.054 116.109L321.269 116.116L321.735 116.593L321.965 116.634L321.727 115.793L322.199 116.29L322.119 115.74L322.419 115.916L322.458 115.588L322.618 115.494L322.815 115.46L323.216 115.839L323.424 115.843L323.587 115.761L323.43 115.052L323.746 115.272L324.189 115.752C324.228 115.697 324.27 115.645 324.316 115.595L324.355 115.267L324.694 115.543L324.58 114.887C324.63 114.947 324.684 115.015 324.725 115.054L324.828 115.162C324.84 115.175 324.904 115.269 324.8 115.013L324.685 114.75L324.484 114.315L323.759 112.784C323.407 112.019 323.177 111.574 323.046 111.304Z" fill="#FFBCA5"/>
<path d="M322.848 124.845C322.782 124.201 322.807 124.619 322.806 124.633L322.781 124.722C322.776 124.762 322.768 124.832 322.759 124.827L322.66 124.836L322.509 124.299L322.446 124.71L322.301 124.259L322.248 124.701L322.088 124.059L322.008 124.275L321.914 124.331L321.821 124.405L321.708 124.271L321.675 124.991L321.5 124.188L321.451 124.731L321.369 124.934L321.248 124.701L321.151 124.73L321.027 124.477L320.962 124.842L320.886 125.096L320.737 124.673L320.671 125.038L320.535 124.66L320.494 125.288L320.356 124.781L320.29 125.163L320.126 124.484L320.105 125.329L319.985 125.128L319.831 124.55L319.782 125.081L319.673 124.977L319.534 124.587L319.505 125.349L319.399 125.282L319.274 125.015L319.201 125.31L319.066 124.936L318.963 124.898L318.92 125.506L318.749 124.739L318.668 124.952L318.559 124.862L318.509 125.399L318.355 124.821L318.305 125.356L318.188 125.195L318.053 124.828L317.987 125.193L317.87 124.993L317.782 125.128L317.705 125.372L317.617 125.492L317.522 125.55L317.405 125.364L317.313 125.437L317.211 125.425L317.083 125.128L316.99 125.218L316.93 125.723L316.827 125.702L316.727 125.69L316.596 125.364L316.497 125.375L316.409 125.512L316.289 125.298L316.247 125.907L316.126 125.694L316.044 125.882L315.917 125.582L315.829 125.702L315.74 125.814C315.718 125.843 315.667 125.554 315.681 125.94C315.673 126.002 315.655 125.937 315.732 126.757L315.771 127.135L315.838 127.809L315.884 128.225C315.886 128.263 315.891 128.3 315.9 128.337C315.929 128.363 315.942 128.238 315.964 128.199L316.062 128.179L316.148 128.027L316.268 128.238L316.396 128.538L316.478 128.337L316.599 128.572L316.681 128.369L316.776 128.31L316.886 128.409L316.951 128.028L317.077 128.308L317.194 128.509L317.272 128.261L317.405 128.609L317.499 128.542L317.587 128.41L317.724 128.811L317.79 128.446L317.858 128.12L318.006 128.636L318.113 128.703L318.156 128.081L318.314 128.691L318.374 128.187L318.479 128.241L318.587 128.323L318.723 128.701L318.83 128.775L318.875 128.18L318.969 128.113L319.144 128.91L319.186 128.283L319.29 128.34L319.445 128.929L319.503 128.442L319.571 128.077L319.746 128.874L319.783 128.184L319.925 128.662L319.987 128.246L320.144 128.849L320.177 128.136L320.324 128.579L320.385 128.165L320.541 128.76L320.601 128.34L320.694 128.267L320.86 128.974L320.957 128.944L321.045 128.811L321.078 128.102L321.186 128.193L321.34 128.772L321.453 128.899L321.481 128.117L321.636 128.712L321.693 128.237L321.819 128.502L321.896 128.254L321.996 128.238L322.1 128.282L322.243 128.755L322.35 128.838L322.451 128.834L322.491 128.182L322.62 128.486L322.776 129.065L322.869 128.986L322.944 128.721L323.077 129.078L323.121 128.479L323.171 128.672L323.21 128.814C323.208 128.831 323.235 128.94 323.225 128.687C323.216 128.434 323.16 127.814 323.025 126.382L322.848 124.845Z" fill="#FFBCA5"/>
<path d="M32.2764 191.374C28.1262 191.374 24.1461 189.721 21.2114 186.78C18.2767 183.838 16.6277 179.849 16.627 175.689V137.401C16.6333 133.246 18.2849 129.262 21.2192 126.326C24.1534 123.391 28.1303 121.742 32.2764 121.743H294.974C299.12 121.742 303.097 123.391 306.031 126.327C308.965 129.262 310.617 133.246 310.623 137.401V175.689C310.622 179.849 308.973 183.838 306.039 186.779C303.104 189.721 299.124 191.374 294.974 191.374H32.2764Z" fill="white"/>
<path d="M78.4347 192.78C83.0359 195.139 85.4435 190.742 83.5442 188.141C82.4123 186.613 79.0853 181.862 75.041 178.564" fill="white"/>
<path d="M80.9396 194.262C79.9358 194.237 78.9521 193.974 78.0689 193.496C77.9751 193.447 77.8916 193.381 77.8233 193.301C77.755 193.22 77.7032 193.127 77.6708 193.027C77.6384 192.926 77.626 192.82 77.6345 192.715C77.6429 192.61 77.672 192.507 77.72 192.413C77.768 192.319 77.834 192.235 77.9143 192.167C77.9945 192.098 78.0874 192.046 78.1877 192.014C78.288 191.981 78.3937 191.969 78.4988 191.978C78.6038 191.986 78.7062 192.015 78.8001 192.063C80.4779 192.924 81.934 192.836 82.7943 191.825C83.1652 191.377 83.3767 190.819 83.3952 190.238C83.4137 189.656 83.2382 189.086 82.8965 188.616C82.805 188.492 82.695 188.342 82.5709 188.172C81.2521 186.369 78.1634 182.147 74.5343 179.188C74.4525 179.122 74.3847 179.039 74.3346 178.946C74.2846 178.853 74.2533 178.752 74.2425 178.646C74.2317 178.541 74.2417 178.435 74.2719 178.334C74.302 178.233 74.3518 178.139 74.4183 178.057C74.4848 177.975 74.5668 177.907 74.6596 177.856C74.7523 177.806 74.854 177.775 74.9588 177.764C75.0637 177.753 75.1696 177.763 75.2706 177.794C75.3716 177.824 75.4656 177.874 75.5474 177.94C79.3362 181.029 82.5099 185.367 83.8651 187.221C83.9874 187.388 84.0957 187.536 84.1886 187.662C84.7425 188.425 85.0264 189.352 84.995 190.295C84.9637 191.238 84.6191 192.144 84.0157 192.868C83.6389 193.316 83.1671 193.673 82.6349 193.914C82.1027 194.155 81.5235 194.274 80.9396 194.262Z" fill="#3C4043"/>
<path d="M215.817 279.473H200.172L197.54 264.33C199.779 263.17 208.618 259.04 217.304 255.012C222.395 252.65 227.424 250.328 231.014 248.671C233.206 247.658 234.861 246.894 235.664 246.521C239.414 255.912 248.806 263.05 258.881 263.471C266.609 265.383 272.566 271.856 273.39 279.473L224.659 279.446L214.349 266.338L213.465 266.738L215.817 279.473Z" fill="#E7F1FF" stroke="#3C4043"/>
<path d="M86.2354 279.5L38.5351 279.473L25.0635 266.608L24.5892 266.155L24.278 266.732L17.4108 279.473H0.782261L24.4046 228.417C26.592 230.005 30.9253 233.222 35.8593 236.886C38.495 238.843 41.3022 240.927 44.0451 242.959C48.1908 246.028 52.1886 248.976 55.2209 251.174C56.7367 252.272 58.0136 253.186 58.9479 253.834C59.4146 254.158 59.7994 254.418 60.0874 254.603C60.0892 254.604 60.091 254.605 60.0928 254.606L59.9594 254.749C56.7181 258.205 59.1627 263.876 63.9087 263.876H74.8662C82.0427 265.761 86.7601 272.061 86.2354 279.5Z" fill="#E7F1FF" stroke="#3C4043"/>
<path d="M217.569 191.547L240.762 244.233L194.241 264.771L167.704 204.497L151.015 191.547" fill="white"/>
<path d="M194.241 265.575C194.085 265.575 193.933 265.53 193.802 265.445C193.672 265.359 193.569 265.238 193.506 265.095L167.051 205.009L150.523 192.183C150.354 192.053 150.245 191.86 150.218 191.649C150.191 191.437 150.249 191.223 150.379 191.055C150.51 190.886 150.702 190.776 150.913 190.749C151.124 190.722 151.337 190.781 151.505 190.911L168.194 203.862C168.3 203.943 168.383 204.05 168.437 204.173L194.651 263.712L239.702 243.822L216.832 191.871C216.789 191.774 216.766 191.67 216.764 191.564C216.762 191.459 216.78 191.354 216.818 191.255C216.856 191.157 216.913 191.067 216.986 190.99C217.059 190.914 217.146 190.853 217.242 190.81C217.339 190.767 217.443 190.744 217.548 190.742C217.653 190.74 217.758 190.758 217.856 190.796C217.955 190.834 218.045 190.892 218.121 190.965C218.197 191.037 218.258 191.125 218.301 191.221L241.496 243.908C241.538 244.004 241.561 244.109 241.564 244.214C241.566 244.32 241.548 244.425 241.51 244.524C241.471 244.622 241.414 244.712 241.341 244.788C241.268 244.865 241.181 244.926 241.085 244.968L194.564 265.507C194.462 265.552 194.352 265.575 194.241 265.575Z" fill="#3C4043"/>
<path d="M122.279 191.547L120.647 196.427C119.382 200.198 117.257 203.623 114.441 206.428L63.3998 256.594L22.0156 226.456L46.6268 201.36L52.1207 191.501L122.279 191.547Z" fill="white"/>
<path d="M63.4005 257.397C63.2311 257.397 63.0661 257.343 62.9292 257.243L21.545 227.106C21.4517 227.038 21.3741 226.951 21.3175 226.85C21.2609 226.749 21.2267 226.637 21.2171 226.522C21.2076 226.407 21.2229 226.291 21.2621 226.182C21.3014 226.073 21.3635 225.974 21.4444 225.892L45.9796 200.872L51.4211 191.108C51.4907 190.983 51.5923 190.879 51.7155 190.806C51.8387 190.734 51.9789 190.696 52.1217 190.696L122.281 190.741C122.408 190.741 122.534 190.772 122.647 190.83C122.76 190.888 122.858 190.973 122.932 191.076C123.007 191.18 123.055 191.3 123.074 191.426C123.093 191.552 123.082 191.681 123.042 191.802L121.41 196.681C120.1 200.569 117.909 204.099 115.01 206.995L63.9623 257.167C63.8125 257.315 63.6107 257.397 63.4005 257.397ZM23.2416 226.354L63.323 255.542L113.88 205.853C116.601 203.134 118.657 199.82 119.887 196.172L121.166 192.35L52.593 192.305L47.3289 201.751C47.2941 201.814 47.251 201.872 47.2008 201.923L23.2416 226.354Z" fill="#3C4043"/>
<path d="M232.549 192.35H83.9026C83.6898 192.35 83.4857 192.266 83.3352 192.115C83.1846 191.964 83.1001 191.759 83.1001 191.546C83.1001 191.333 83.1846 191.128 83.3352 190.977C83.4857 190.826 83.6898 190.742 83.9026 190.742H232.549C232.762 190.742 232.966 190.826 233.116 190.977C233.267 191.128 233.351 191.333 233.351 191.546C233.351 191.759 233.267 191.964 233.116 192.115C232.966 192.266 232.762 192.35 232.549 192.35Z" fill="#3C4043"/>
<path d="M42.5075 192.35H31.807C27.4452 192.345 23.2634 190.606 20.1791 187.515C17.0949 184.424 15.3599 180.232 15.355 175.86V137.599C15.355 137.386 15.4395 137.181 15.59 137.03C15.7405 136.88 15.9447 136.795 16.1575 136.795C16.3704 136.795 16.5745 136.88 16.725 137.03C16.8755 137.181 16.9601 137.386 16.9601 137.599V175.86C16.9645 179.806 18.5302 183.588 21.3136 186.378C24.0969 189.168 27.8707 190.737 31.807 190.741H42.5075C42.7203 190.741 42.9245 190.826 43.075 190.977C43.2255 191.128 43.31 191.332 43.31 191.546C43.31 191.759 43.2255 191.964 43.075 192.114C42.9245 192.265 42.7203 192.35 42.5075 192.35Z" fill="#3C4043"/>
<path d="M43.9334 177.931C43.2509 179.114 42.8712 180.448 42.8283 181.813C42.5608 186.854 42.5073 191.037 42.5073 193.584C42.5062 195.322 43.1013 197.007 44.1927 198.357L46.627 201.36C47.538 202.481 48.7492 203.319 50.1186 203.775C51.4879 204.231 52.9587 204.286 54.3581 203.934C55.5186 203.634 57.4712 202.226 57.4712 202.226C58.6898 203.063 60.1326 203.512 61.6101 203.512C63.0876 203.513 64.5307 203.065 65.7499 202.229C66.6448 202.872 67.6687 203.312 68.7505 203.518C69.8322 203.725 70.9459 203.693 72.014 203.424C74.8228 202.7 77.498 200.368 78.0597 197.499L78.461 193.101L78.4316 193.078C77.8685 187.722 76.5858 182.13 75.0368 178.569C71.3184 170.15 70.2061 167.99 70.2061 167.99" fill="#FFF1ED"/>
<path d="M52.5193 204.966C51.2719 204.967 50.04 204.689 48.9131 204.152C47.7862 203.616 46.7926 202.835 46.0043 201.866L43.5699 198.863C42.3599 197.371 41.7012 195.506 41.7051 193.584C41.7051 190.964 41.761 186.789 42.0261 181.771C42.0748 180.272 42.4941 178.809 43.2465 177.514C43.3007 177.422 43.3724 177.343 43.4575 177.279C43.5425 177.216 43.6393 177.17 43.7421 177.145C43.8449 177.119 43.9518 177.114 44.0565 177.13C44.1613 177.146 44.2619 177.182 44.3525 177.237C44.4431 177.293 44.5219 177.365 44.5843 177.451C44.6468 177.537 44.6917 177.634 44.7164 177.737C44.7412 177.841 44.7453 177.948 44.7285 178.053C44.7117 178.157 44.6743 178.258 44.6186 178.348C44.0045 179.418 43.6645 180.623 43.6288 181.856C43.3642 186.838 43.3078 190.984 43.3078 193.584C43.3049 195.138 43.8377 196.646 44.816 197.852L47.2477 200.852C48.0627 201.854 49.1457 202.603 50.3698 203.01C51.5939 203.418 52.9085 203.468 54.1597 203.153C54.9858 202.941 56.4905 201.94 57.0004 201.572C57.1312 201.477 57.2872 201.425 57.4482 201.421C57.6092 201.416 57.7677 201.461 57.9032 201.548C58.99 202.3 60.2789 202.704 61.5995 202.706C62.9202 202.708 64.2104 202.309 65.2997 201.561C65.4354 201.469 65.5958 201.421 65.7594 201.423C65.923 201.426 66.0821 201.478 66.2151 201.573C67.0146 202.15 67.9299 202.544 68.8972 202.729C69.8645 202.913 70.8604 202.884 71.8152 202.643C74.4944 201.952 76.7795 199.743 77.2626 197.382L77.6414 193.228C77.6371 193.206 77.6336 193.183 77.6312 193.16C77.0657 187.782 75.7891 182.314 74.2988 178.889C70.6457 170.617 69.5018 168.379 69.4908 168.357C69.395 168.167 69.3778 167.948 69.4429 167.746C69.5081 167.544 69.6503 167.376 69.8386 167.278C70.0269 167.181 70.246 167.162 70.448 167.226C70.6501 167.29 70.8187 167.431 70.9172 167.619C70.9629 167.708 72.0828 169.898 75.7685 178.242C77.3046 181.772 78.6175 187.339 79.2085 192.812C79.2524 192.927 79.2694 193.051 79.2582 193.173L78.857 197.571C78.8545 197.598 78.8506 197.624 78.8452 197.651C78.2567 200.652 75.5296 203.345 72.2109 204.2C71.1186 204.477 69.9818 204.53 68.8687 204.355C67.7557 204.181 66.6893 203.782 65.7336 203.184C65.0657 203.576 64.3466 203.873 63.597 204.066C61.5263 204.575 59.3394 204.258 57.4977 203.182C56.8145 203.642 55.5071 204.465 54.5551 204.71C53.8896 204.879 53.2058 204.965 52.5193 204.966Z" fill="#3C4043"/>
<path d="M49.6424 127.029L74.2238 169.224L40.9107 178.876L8.14293 128.208L8.14275 128.208C6.75822 126.069 5.84923 123.656 5.47766 121.133C5.1061 118.61 5.28067 116.036 5.98951 113.587C6.69835 111.138 7.9248 108.87 9.58541 106.938C11.246 105.007 13.3018 103.456 15.6132 102.392L15.6133 102.391L78.7195 73.3172L78.7643 73.2965L78.8068 73.2716C81.0337 71.966 83.4983 71.1197 86.0559 70.7824L86.069 70.7806L86.0821 70.7786L107.709 67.3424C108.035 70.0443 109.068 72.799 111.212 74.7544C112.513 75.9423 114.083 76.5263 115.667 76.8242C117.237 77.1195 118.892 77.1448 120.387 77.1652L120.387 77.1652C124.558 77.2214 127.163 73.6455 128.682 70.4306C129.905 67.8412 130.584 65.1609 130.878 63.8167C133.004 63.767 135.122 64.1218 137.121 64.8646C139.356 65.6955 141.389 66.993 143.086 68.6713L143.115 68.6994L143.145 68.7252L205.571 121.285C193.158 121.07 158.815 120.451 154.705 120.32L149.863 116.243L148.214 114.854L148.219 117.01L148.228 121.297C144.205 121.368 130.029 121.27 115.935 121.139C101.598 121.006 87.4499 120.839 84.3845 120.785L79.7125 112.956L79.2518 112.184L78.4354 112.56L50.0881 125.618L49.0883 126.078L49.6424 127.029Z" fill="#FFED96" stroke="#3C4043" stroke-width="2"/>
<path d="M149.165 122.423C148.952 122.423 148.748 122.339 148.598 122.188C148.447 122.037 148.363 121.832 148.363 121.619V91.9914C148.363 91.7781 148.447 91.5735 148.598 91.4226C148.748 91.2718 148.952 91.187 149.165 91.187C149.378 91.187 149.582 91.2718 149.733 91.4226C149.883 91.5735 149.968 91.7781 149.968 91.9914V121.619C149.968 121.832 149.883 122.037 149.733 122.188C149.582 122.339 149.378 122.423 149.165 122.423Z" fill="#3C4043"/>
<path d="M113.888 51.2259L109.334 63.1419C108.765 64.6259 108.58 66.2297 108.795 67.8047C109.01 69.3796 109.619 70.8745 110.564 72.1508L111.046 72.7943C112.045 74.1311 113.38 75.1778 114.915 75.8271C116.45 76.4763 118.13 76.7049 119.782 76.4894C121.434 76.2739 123 75.622 124.318 74.6005C125.636 73.579 126.66 72.2246 127.284 70.6761L130.387 63.0102C133.758 62.5499 136.849 60.8808 139.087 58.312C141.325 55.7433 142.558 52.4488 142.559 49.0385C142.555 47.8726 142.411 46.7113 142.131 45.5797C141.406 42.7342 139.817 40.1848 137.583 38.2844C137.85 37.188 137.984 36.0636 137.984 34.9352C137.983 33.621 137.803 32.313 137.449 31.0474L121.408 30.6265L118.198 36.2571L113.776 36.789C107.975 37.4861 105.892 44.8526 110.465 48.4977L113.888 51.2259Z" fill="#FFF1ED"/>
<path d="M118.596 77.371C118.117 77.3709 117.639 77.3375 117.165 77.2713C115.829 77.0891 114.544 76.6421 113.383 75.9562C112.222 75.2703 111.209 74.3593 110.403 73.2765L109.921 72.633C108.893 71.2487 108.231 69.6262 107.998 67.9165C107.764 66.2068 107.965 64.4656 108.584 62.855L112.928 51.4882L109.965 49.1268C108.825 48.2184 107.979 46.9922 107.532 45.6026C107.086 44.2129 107.059 42.7219 107.457 41.3174C107.854 39.9128 108.657 38.6573 109.764 37.7091C110.872 36.7609 112.234 36.1624 113.681 35.9887L117.702 35.5061L120.712 30.227C120.784 30.101 120.889 29.9967 121.015 29.9254C121.141 29.8541 121.285 29.8183 121.429 29.8219L137.469 30.2426C137.641 30.247 137.807 30.3068 137.943 30.413C138.078 30.5192 138.176 30.6662 138.222 30.8325C138.596 32.1677 138.786 33.5479 138.786 34.9348C138.786 35.963 138.679 36.9885 138.469 37.9949C140.644 39.9634 142.188 42.5335 142.907 45.3809C143.203 46.5775 143.355 47.8053 143.36 49.0381C143.351 52.5595 142.102 55.9645 139.833 58.6533C137.564 61.342 134.421 63.142 130.958 63.7361L128.027 70.9781C127.337 72.6821 126.204 74.1693 124.746 75.2845C122.98 76.6387 120.819 77.3721 118.596 77.371ZM121.866 31.4427L118.894 36.6556C118.832 36.7646 118.745 36.8575 118.641 36.927C118.537 36.9964 118.417 37.0404 118.293 37.0553L113.871 37.587C112.74 37.7239 111.674 38.1928 110.808 38.935C109.942 39.6771 109.314 40.6593 109.004 41.758C108.693 42.8568 108.714 44.023 109.063 45.1101C109.411 46.1973 110.073 47.1568 110.965 47.868L114.389 50.5961C114.522 50.7025 114.618 50.8488 114.663 51.0136C114.708 51.1785 114.7 51.3535 114.639 51.5131L110.082 63.4291C109.561 64.7865 109.39 66.2541 109.587 67.6951C109.784 69.1362 110.341 70.5039 111.208 71.671L111.686 72.3112C112.6 73.5341 113.821 74.4915 115.226 75.0854C116.63 75.6793 118.167 75.8883 119.678 75.691C121.189 75.4937 122.621 74.8972 123.827 73.9627C125.033 73.0281 125.969 71.789 126.539 70.3724L129.643 62.707C129.696 62.5757 129.783 62.4609 129.894 62.374C130.006 62.2872 130.139 62.2315 130.279 62.2126C133.455 61.771 136.364 60.195 138.473 57.7744C140.582 55.3538 141.747 52.2514 141.755 49.0381C141.753 47.9363 141.617 46.8389 141.35 45.7699C140.67 43.0867 139.171 40.6836 137.061 38.8968C136.948 38.8002 136.863 38.6737 136.817 38.5317C136.771 38.3896 136.766 38.2375 136.801 38.0924C137.3 36.0371 137.307 33.8924 136.821 31.8339L121.866 31.4427Z" fill="#3C4043"/>
<path d="M110.864 30.1222L110.858 30.1357C110.734 30.4456 110.628 30.7628 110.543 31.0855L110.541 31.0926L110.539 31.0996C110.189 32.3387 110.012 33.6202 110.011 34.9079L110.864 30.1222ZM110.864 30.1222L110.869 30.1085M110.864 30.1222L110.869 30.1085M110.869 30.1085C111.882 27.3502 113.74 24.9846 116.177 23.3504C118.614 21.7163 121.503 20.8972 124.433 21.0103C127.362 21.1234 130.18 22.163 132.484 23.9803C134.72 25.7439 136.36 28.1523 137.185 30.8781L124.794 30.8781L124.793 30.8781C123.379 30.8797 122.023 31.4437 121.024 32.4455C120.024 33.4472 119.462 34.8049 119.461 36.2205V36.2217V39.6075M110.869 30.1085L119.461 39.6075M119.461 39.6075C118.908 38.8367 118.265 38.1524 117.648 37.5879C116.678 36.701 115.437 35.7118 113.927 35.314C113.035 35.0781 112.159 35.0709 111.366 35.1088C111.04 35.1243 110.746 35.1455 110.465 35.1656C110.312 35.1767 110.162 35.1874 110.015 35.1968C110.012 35.1005 110.011 35.0044 110.011 34.9082L119.461 39.6075Z" fill="white" stroke="#3C4043" stroke-width="2"/>
<path d="M50.5063 127.33C50.3544 127.33 50.2057 127.287 50.0773 127.206C49.949 127.124 49.8464 127.008 49.7813 126.87L46.5979 120.141C46.5528 120.045 46.5268 119.942 46.5215 119.836C46.5162 119.731 46.5317 119.625 46.5672 119.526C46.6387 119.325 46.7869 119.16 46.9792 119.069C47.1716 118.978 47.3923 118.967 47.5928 119.038C47.7933 119.11 47.9572 119.258 48.0484 119.451L50.4389 124.505L52.4083 119.501C52.4465 119.402 52.5038 119.312 52.577 119.235C52.6501 119.158 52.7377 119.097 52.8346 119.055C52.9315 119.012 53.0358 118.989 53.1416 118.987C53.2474 118.985 53.3525 119.004 53.4509 119.043C53.5494 119.082 53.6391 119.14 53.7151 119.214C53.7911 119.287 53.8518 119.376 53.8936 119.473C53.9355 119.57 53.9578 119.675 53.9591 119.781C53.9605 119.887 53.9409 119.992 53.9015 120.091L51.2532 126.821C51.1959 126.967 51.0972 127.093 50.9693 127.183C50.8415 127.274 50.69 127.325 50.5336 127.33L50.5063 127.33Z" fill="#3C4043"/>
<path d="M86.1389 115.854C86.0815 115.854 86.0243 115.848 85.9682 115.836L78.6919 114.254C78.5274 114.218 78.3783 114.131 78.2657 114.006C78.153 113.881 78.0826 113.723 78.0643 113.555C78.046 113.387 78.0808 113.218 78.1638 113.071C78.2468 112.925 78.3737 112.808 78.5266 112.737L87.5953 108.554C87.7886 108.465 88.0094 108.457 88.2091 108.531C88.4087 108.605 88.5709 108.755 88.6598 108.949C88.7488 109.143 88.7573 109.364 88.6835 109.564C88.6097 109.764 88.4595 109.927 88.2662 110.016L81.3796 113.192L86.3083 114.264C86.5012 114.307 86.6718 114.419 86.7872 114.58C86.9027 114.741 86.9549 114.938 86.9339 115.135C86.913 115.332 86.8203 115.514 86.6736 115.647C86.5269 115.78 86.3365 115.854 86.1389 115.854Z" fill="#3C4043"/>
<path d="M294.504 192.35H253.307C253.095 192.35 252.891 192.266 252.74 192.115C252.59 191.964 252.505 191.759 252.505 191.546C252.505 191.333 252.59 191.128 252.74 190.977C252.891 190.826 253.095 190.742 253.307 190.742H294.504C298.441 190.737 302.214 189.168 304.998 186.378C307.781 183.589 309.347 179.806 309.351 175.861V137.573C309.335 133.634 307.764 129.861 304.983 127.078C302.201 124.296 298.434 122.728 294.504 122.719H213.73L80.2943 122.593L79.7861 122.7C79.7312 122.712 79.6752 122.717 79.6191 122.718H58.5584C58.3456 122.718 58.1414 122.633 57.9909 122.482C57.8404 122.331 57.7559 122.127 57.7559 121.913C57.7559 121.7 57.8404 121.495 57.9909 121.344C58.1414 121.194 58.3456 121.109 58.5584 121.109H79.5349L80.0431 121.002C80.0981 120.99 80.1541 120.984 80.2103 120.984L213.73 121.11H294.504C298.859 121.121 303.033 122.857 306.116 125.941C309.198 129.025 310.938 133.205 310.956 137.57V175.861C310.951 180.233 309.217 184.424 306.132 187.515C303.048 190.607 298.866 192.345 294.504 192.35Z" fill="#3C4043"/>
<path d="M289.106 192H246.803C246.584 192 246.375 191.916 246.22 191.766C246.066 191.616 245.979 191.412 245.979 191.2C245.979 190.988 246.066 190.784 246.22 190.634C246.375 190.484 246.584 190.4 246.803 190.4H289.106C293.148 190.395 297.023 188.834 299.881 186.058C302.74 183.283 304.347 179.52 304.352 175.595V137.504C304.335 133.585 302.722 129.832 299.866 127.063C297.01 124.295 293.142 122.735 289.106 122.726H206.162L69.1437 122.6L68.6218 122.707C68.5654 122.719 68.508 122.725 68.4504 122.725H46.8241C46.6055 122.725 46.3959 122.64 46.2414 122.49C46.0868 122.34 46 122.137 46 121.925C46 121.712 46.0868 121.509 46.2414 121.359C46.3959 121.209 46.6055 121.124 46.8241 121.124H68.3638L68.8858 121.018C68.9422 121.006 68.9998 121 69.0575 121L206.162 121.125H289.106C293.578 121.136 297.864 122.864 301.029 125.932C304.194 128.999 305.981 133.158 306 137.501V175.595C305.995 179.944 304.213 184.114 301.046 187.19C297.879 190.265 293.585 191.995 289.106 192Z" fill="#3C4043"/>
<path d="M283.106 192H240.803C240.584 192 240.375 191.916 240.22 191.766C240.066 191.616 239.979 191.412 239.979 191.2C239.979 190.988 240.066 190.784 240.22 190.634C240.375 190.484 240.584 190.4 240.803 190.4H283.106C287.148 190.395 291.023 188.834 293.881 186.058C296.74 183.283 298.347 179.52 298.352 175.595V137.504C298.335 133.585 296.722 129.832 293.866 127.063C291.01 124.295 287.142 122.735 283.106 122.726H200.162L63.1437 122.6L62.6218 122.707C62.5654 122.719 62.508 122.725 62.4504 122.725H40.8241C40.6055 122.725 40.3959 122.64 40.2414 122.49C40.0868 122.34 40 122.137 40 121.925C40 121.712 40.0868 121.509 40.2414 121.359C40.3959 121.209 40.6055 121.124 40.8241 121.124H62.3638L62.8858 121.018C62.9422 121.006 62.9998 121 63.0575 121L200.162 121.125H283.106C287.578 121.136 291.864 122.864 295.029 125.932C298.194 128.999 299.981 133.158 300 137.501V175.595C299.995 179.944 298.213 184.114 295.046 187.19C291.879 190.265 287.585 191.995 283.106 192Z" fill="#3C4043"/>
<path d="M277.106 192H234.803C234.584 192 234.375 191.916 234.22 191.766C234.066 191.616 233.979 191.412 233.979 191.2C233.979 190.988 234.066 190.784 234.22 190.634C234.375 190.484 234.584 190.4 234.803 190.4H277.106C281.148 190.395 285.023 188.834 287.881 186.058C290.74 183.283 292.347 179.52 292.352 175.595V137.504C292.335 133.585 290.722 129.832 287.866 127.063C285.01 124.295 281.142 122.735 277.106 122.726H194.162L57.1437 122.6L56.6218 122.707C56.5654 122.719 56.508 122.725 56.4504 122.725H34.8241C34.6055 122.725 34.3959 122.64 34.2414 122.49C34.0868 122.34 34 122.137 34 121.925C34 121.712 34.0868 121.509 34.2414 121.359C34.3959 121.209 34.6055 121.124 34.8241 121.124H56.3638L56.8858 121.018C56.9422 121.006 56.9998 121 57.0575 121L194.162 121.125H277.106C281.578 121.136 285.864 122.864 289.029 125.932C292.194 128.999 293.981 133.158 294 137.501V175.595C293.995 179.944 292.213 184.114 289.046 187.19C285.879 190.265 281.585 191.995 277.106 192Z" fill="#3C4043"/>
<path d="M175.756 210.502C175.602 210.502 175.451 210.458 175.322 210.375L167.297 205.2C167.208 205.143 167.131 205.069 167.071 204.982C167.011 204.895 166.969 204.797 166.946 204.694C166.901 204.485 166.941 204.267 167.056 204.088C167.171 203.908 167.353 203.782 167.561 203.737C167.769 203.692 167.986 203.731 168.165 203.847L176.191 209.021C176.336 209.115 176.448 209.254 176.509 209.417C176.569 209.58 176.575 209.758 176.526 209.925C176.477 210.092 176.376 210.238 176.237 210.342C176.098 210.446 175.929 210.502 175.756 210.502Z" fill="#3C4043"/>
<path d="M47.6167 194.174C47.4246 194.173 47.239 194.104 47.0936 193.978C46.9481 193.853 46.8525 193.679 46.8241 193.488C45.5967 185.268 43.3716 179.517 43.3494 179.46C43.2716 179.262 43.2758 179.04 43.361 178.845C43.4461 178.649 43.6053 178.496 43.8035 178.418C44.0016 178.34 44.2225 178.344 44.4176 178.429C44.6127 178.515 44.766 178.674 44.8437 178.873C44.9376 179.113 47.1553 184.838 48.4112 193.25C48.4269 193.354 48.4218 193.461 48.3964 193.563C48.3709 193.666 48.3256 193.762 48.263 193.847C48.2003 193.932 48.1216 194.004 48.0313 194.059C47.9409 194.113 47.8408 194.149 47.7366 194.165C47.6969 194.171 47.6568 194.174 47.6167 194.174Z" fill="#3C4043"/>
<path d="M124.848 40.2436C125.66 40.2436 126.319 39.5833 126.319 38.7689C126.319 37.9544 125.66 37.2942 124.848 37.2942C124.035 37.2942 123.376 37.9544 123.376 38.7689C123.376 39.5833 124.035 40.2436 124.848 40.2436Z" fill="#3C4043"/>
<path d="M136.351 40.2436C137.164 40.2436 137.823 39.5833 137.823 38.7689C137.823 37.9544 137.164 37.2942 136.351 37.2942C135.539 37.2942 134.88 37.9544 134.88 38.7689C134.88 39.5833 135.539 40.2436 136.351 40.2436Z" fill="#3C4043"/>
<path d="M128.459 63.9458C125.354 63.9588 122.324 62.9857 119.804 61.1662C119.631 61.0414 119.515 60.8529 119.481 60.6423C119.447 60.4317 119.498 60.2162 119.622 60.0431C119.747 59.8701 119.935 59.7537 120.145 59.7196C120.355 59.6855 120.57 59.7364 120.743 59.8612C122.989 61.4827 125.691 62.3494 128.459 62.3371C129.135 62.3378 129.809 62.2871 130.477 62.1856C130.687 62.1554 130.899 62.2092 131.069 62.3354C131.239 62.4616 131.353 62.65 131.385 62.8595C131.417 63.069 131.365 63.2828 131.241 63.4543C131.117 63.6259 130.93 63.7413 130.721 63.7756C129.973 63.8897 129.216 63.9466 128.459 63.9458Z" fill="#3C4043"/>
<path d="M134.879 44.8821C134.84 44.8821 134.8 44.8791 134.761 44.8733L129.732 44.1225C129.523 44.089 129.336 43.9743 129.211 43.8034C129.086 43.6325 129.034 43.4191 129.065 43.2097C129.096 43.0002 129.208 42.8115 129.378 42.6845C129.547 42.5576 129.759 42.5026 129.968 42.5315L133.654 43.0817L131.612 37.5744C131.538 37.3744 131.546 37.1531 131.635 36.9591C131.724 36.7651 131.886 36.6144 132.085 36.5401C132.285 36.4658 132.506 36.474 132.699 36.5629C132.893 36.6517 133.043 36.814 133.117 37.014L135.632 43.7976C135.677 43.9192 135.692 44.05 135.676 44.1788C135.659 44.3075 135.612 44.4304 135.538 44.537C135.464 44.6436 135.366 44.7306 135.251 44.7907C135.136 44.8508 135.009 44.8822 134.879 44.8821Z" fill="#3C4043"/>
<path d="M113.887 51.2262C112.332 51.6361 110.688 51.5479 109.185 50.974C107.682 50.4002 106.396 49.3693 105.507 48.0261C104.619 46.6828 104.171 45.0944 104.229 43.4836C104.286 41.8728 104.844 40.3203 105.826 39.0437C106.808 37.7671 108.164 36.8305 109.703 36.3651C111.243 35.8996 112.889 35.9288 114.412 36.4484C115.934 36.968 117.256 37.9521 118.192 39.2626C119.128 40.5731 119.632 42.1444 119.632 43.7563" fill="#FFF1ED"/>
<path d="M111.927 52.2823C110.245 52.2823 108.6 51.7822 107.201 50.8454C105.802 49.9085 104.712 48.5768 104.068 47.0188C103.424 45.4609 103.256 43.7465 103.584 42.0926C103.912 40.4386 104.722 38.9194 105.912 37.7269C107.102 36.5345 108.618 35.7224 110.268 35.3934C111.918 35.0645 113.628 35.2333 115.183 35.8786C116.737 36.524 118.066 37.6168 119.001 39.019C119.935 40.4211 120.434 42.0696 120.434 43.756C120.434 43.9693 120.35 44.1739 120.199 44.3247C120.049 44.4756 119.845 44.5603 119.632 44.5603C119.419 44.5603 119.215 44.4756 119.064 44.3247C118.914 44.1739 118.829 43.9693 118.829 43.756C118.827 42.3145 118.376 40.9098 117.537 39.7385C116.699 38.5672 115.516 37.688 114.155 37.2241C112.793 36.7602 111.321 36.7348 109.944 37.1515C108.567 37.5681 107.355 38.406 106.477 39.5477C105.599 40.6894 105.099 42.0777 105.048 43.5182C104.997 44.9587 105.396 46.3793 106.191 47.5809C106.985 48.7825 108.134 49.705 109.478 50.2191C110.821 50.7333 112.292 50.8133 113.683 50.4481C113.886 50.4022 114.099 50.4371 114.276 50.5454C114.454 50.6537 114.583 50.8269 114.636 51.0286C114.689 51.2302 114.661 51.4446 114.559 51.6264C114.458 51.8082 114.289 51.9433 114.09 52.0032C113.384 52.1887 112.657 52.2825 111.927 52.2823Z" fill="#3C4043"/>
<path d="M133.602 52.2088C133.532 52.2089 133.461 52.2045 133.391 52.1957C132.642 52.1045 132.183 51.5755 131.777 51.109C131.223 50.4733 130.96 50.2446 130.387 50.362C130.283 50.3849 130.176 50.3868 130.071 50.3678C129.967 50.3488 129.867 50.3091 129.778 50.2511C129.689 50.1931 129.612 50.118 129.552 50.03C129.492 49.9421 129.45 49.8431 129.429 49.7387C129.407 49.6344 129.407 49.5269 129.427 49.4223C129.447 49.3178 129.488 49.2183 129.547 49.1297C129.606 49.0412 129.682 48.9652 129.771 48.9063C129.859 48.8474 129.959 48.8066 130.063 48.7865C131.608 48.4674 132.437 49.4209 132.986 50.051C133.192 50.2877 133.449 50.5824 133.586 50.599C133.772 50.4721 133.938 50.3165 134.076 50.1379C134.582 49.5716 135.347 48.7168 136.778 48.7168C136.991 48.7168 137.195 48.8015 137.345 48.9524C137.496 49.1032 137.581 49.3078 137.581 49.5212C137.581 49.7345 137.496 49.9391 137.345 50.0899C137.195 50.2408 136.991 50.3255 136.778 50.3255C136.098 50.3255 135.761 50.6626 135.27 51.212C134.87 51.6597 134.379 52.2088 133.602 52.2088Z" fill="#3C4043"/>
<path d="M253.307 191.519C253.307 191.519 252.906 184.896 252.558 182.322C251.892 177.402 247.465 176.941 246.013 180.502C244.796 176.56 239.189 177.66 239.236 183.18C239.238 183.472 239.241 183.77 239.244 184.071C237.879 180.417 232.502 181.583 232.548 186.988C232.575 190.715 232.735 192.377 232.842 194.281C232.916 195.562 233.437 196.777 234.314 197.713L236.24 199.831C236.749 200.382 237.363 200.826 238.046 201.135C238.729 201.444 239.468 201.612 240.217 201.63C240.967 201.647 241.712 201.514 242.409 201.237C243.106 200.96 243.74 200.546 244.274 200.019C245.221 200.544 246.3 200.783 247.38 200.705C248.46 200.628 249.495 200.238 250.358 199.583C251.052 200.022 251.834 200.304 252.649 200.407C253.464 200.51 254.291 200.432 255.073 200.179C257.133 199.509 258.978 197.659 259.273 195.514L259.353 192.27" fill="#FFF1ED"/>
<path d="M240.352 202.432C239.469 202.434 238.595 202.252 237.785 201.898C236.975 201.543 236.248 201.024 235.648 200.374L233.721 198.254C232.723 197.182 232.129 195.794 232.042 194.33C232.02 193.933 231.995 193.553 231.97 193.161C231.875 191.666 231.767 189.972 231.746 186.994C231.716 183.518 233.697 181.591 235.674 181.223C236.167 181.126 236.675 181.13 237.166 181.235C237.658 181.341 238.123 181.545 238.533 181.836C238.971 179.15 240.775 177.661 242.477 177.396C243.15 177.282 243.842 177.358 244.476 177.614C245.109 177.871 245.659 178.298 246.065 178.849C246.459 178.334 246.98 177.929 247.577 177.675C248.173 177.421 248.825 177.326 249.469 177.399C251.059 177.602 252.915 178.973 253.354 182.215C253.701 184.789 254.092 191.199 254.108 191.471C254.117 191.577 254.104 191.684 254.071 191.786C254.037 191.887 253.984 191.981 253.914 192.062C253.844 192.143 253.759 192.208 253.663 192.256C253.567 192.303 253.463 192.331 253.357 192.337C253.25 192.344 253.144 192.329 253.043 192.293C252.943 192.258 252.85 192.203 252.771 192.131C252.692 192.06 252.627 191.973 252.582 191.876C252.537 191.78 252.511 191.675 252.507 191.568C252.502 191.502 252.103 184.945 251.763 182.431C251.446 180.092 250.265 179.122 249.266 178.995C248.226 178.863 247.266 179.558 246.756 180.807C246.693 180.96 246.585 181.091 246.446 181.18C246.306 181.269 246.143 181.313 245.978 181.306C245.812 181.299 245.653 181.241 245.522 181.139C245.392 181.038 245.295 180.899 245.246 180.74C244.78 179.229 243.636 178.844 242.724 178.986C241.371 179.196 240.017 180.573 240.039 183.174L240.047 184.064C240.048 184.254 239.984 184.437 239.864 184.583C239.744 184.73 239.576 184.829 239.391 184.863C239.205 184.898 239.013 184.866 238.849 184.773C238.685 184.679 238.558 184.531 238.492 184.354C237.973 182.963 236.848 182.641 235.967 182.805C234.649 183.05 233.329 184.436 233.351 186.982C233.372 189.916 233.478 191.586 233.572 193.06C233.597 193.455 233.622 193.84 233.644 194.236C233.704 195.329 234.148 196.365 234.898 197.161L236.833 199.29C237.269 199.761 237.796 200.14 238.381 200.404C238.966 200.668 239.598 200.812 240.239 200.827C240.881 200.841 241.519 200.727 242.115 200.49C242.712 200.253 243.255 199.898 243.712 199.447C243.835 199.325 243.994 199.247 244.166 199.223C244.337 199.2 244.511 199.233 244.663 199.316C245.474 199.767 246.399 199.971 247.324 199.905C248.25 199.838 249.136 199.504 249.875 198.942C250.006 198.844 250.163 198.788 250.326 198.781C250.489 198.774 250.65 198.818 250.788 198.905C251.383 199.282 252.053 199.523 252.751 199.611C253.449 199.699 254.158 199.632 254.827 199.414C256.691 198.808 258.217 197.144 258.471 195.448L258.55 192.251C258.555 192.041 258.642 191.841 258.792 191.695C258.942 191.548 259.143 191.466 259.353 191.466H259.373C259.586 191.472 259.788 191.561 259.934 191.716C260.081 191.87 260.16 192.077 260.155 192.29L260.075 195.534C260.074 195.564 260.072 195.594 260.067 195.624C259.749 197.951 257.796 200.139 255.32 200.945C254.514 201.207 253.663 201.306 252.818 201.235C251.972 201.165 251.15 200.926 250.397 200.534C249.511 201.096 248.502 201.43 247.457 201.508C246.412 201.586 245.365 201.405 244.406 200.982C243.789 201.491 243.081 201.879 242.319 202.125C241.684 202.329 241.02 202.432 240.352 202.432Z" fill="#3C4043"/>
<path d="M111.045 46.8125C110.881 46.8125 110.721 46.7623 110.587 46.6687C110.453 46.5751 110.35 46.4426 110.293 46.2889C110.236 46.1351 110.227 45.9676 110.267 45.8087C110.308 45.6498 110.396 45.5071 110.52 45.3998L112.74 43.4776L108.445 42.2504C108.241 42.191 108.069 42.0532 107.966 41.8672C107.864 41.6812 107.839 41.462 107.897 41.2575C107.955 41.0531 108.092 40.8801 108.277 40.7762C108.462 40.6724 108.68 40.6462 108.885 40.7033L114.609 42.3389C114.748 42.3787 114.874 42.4555 114.973 42.5611C115.073 42.6667 115.141 42.7972 115.173 42.9388C115.204 43.0804 115.196 43.2279 115.151 43.3655C115.105 43.5032 115.023 43.6259 114.914 43.7208L111.57 46.6165C111.424 46.7433 111.238 46.813 111.045 46.8125Z" fill="#3C4043"/>
<path d="M246.192 193.932C245.981 193.932 245.778 193.849 245.628 193.701C245.478 193.552 245.392 193.351 245.389 193.139L245.211 180.514C245.207 180.301 245.289 180.095 245.437 179.942C245.586 179.789 245.789 179.701 246.002 179.698C246.214 179.695 246.42 179.777 246.572 179.925C246.725 180.074 246.813 180.277 246.816 180.491L246.994 193.116C246.996 193.222 246.977 193.327 246.938 193.425C246.899 193.523 246.841 193.613 246.767 193.688C246.694 193.764 246.606 193.825 246.51 193.867C246.413 193.908 246.309 193.931 246.203 193.932H246.192Z" fill="#3C4043"/>
<path d="M239.477 194.442C239.267 194.442 239.066 194.36 238.916 194.213C238.766 194.066 238.679 193.867 238.674 193.657L238.442 184.092C238.436 183.879 238.516 183.672 238.663 183.517C238.81 183.363 239.012 183.273 239.225 183.268C239.438 183.263 239.644 183.343 239.798 183.49C239.952 183.637 240.042 183.84 240.047 184.053L240.28 193.619C240.285 193.832 240.205 194.039 240.059 194.193C239.912 194.347 239.71 194.437 239.497 194.442L239.477 194.442Z" fill="#3C4043"/>
<path d="M203.724 224.454C205.171 223.888 205.886 222.259 205.321 220.814C204.756 219.37 203.126 218.658 201.679 219.224C200.232 219.789 199.516 221.419 200.081 222.863C200.646 224.307 202.277 225.02 203.724 224.454Z" fill="#FFF1ED"/>
<path d="M188.157 215.465C189.604 214.899 190.319 213.269 189.755 211.825C189.19 210.381 187.559 209.669 186.112 210.234C184.665 210.8 183.95 212.43 184.515 213.874C185.079 215.318 186.71 216.03 188.157 215.465Z" fill="#E7F1FF"/>
<path d="M71.6649 218.255C73.1119 217.689 73.8272 216.06 73.2625 214.615C72.6978 213.171 71.067 212.459 69.62 213.024C68.173 213.59 67.4578 215.22 68.0224 216.664C68.5871 218.108 70.2179 218.82 71.6649 218.255Z" fill="#E7F1FF"/>
<path d="M60.6649 211.255C62.1119 210.689 62.8272 209.06 62.2625 207.615C61.6978 206.171 60.067 205.459 58.62 206.024C57.173 206.59 56.4578 208.22 57.0224 209.664C57.5871 211.108 59.2179 211.82 60.6649 211.255Z" fill="#E7F1FF"/>
<path d="M81.6649 209.255C83.1119 208.689 83.8272 207.06 83.2625 205.615C82.6978 204.171 81.067 203.459 79.62 204.024C78.173 204.59 77.4578 206.22 78.0224 207.664C78.5871 209.108 80.2179 209.82 81.6649 209.255Z" fill="#E7F1FF"/>
<path d="M58.6649 224.255C60.1119 223.689 60.8272 222.06 60.2625 220.615C59.6978 219.171 58.067 218.459 56.62 219.024C55.173 219.59 54.4578 221.22 55.0224 222.664C55.5871 224.108 57.2179 224.82 58.6649 224.255Z" fill="#E7F1FF"/>
<path d="M62.6649 247.255C64.1119 246.689 64.8272 245.06 64.2625 243.615C63.6978 242.171 62.067 241.459 60.62 242.024C59.173 242.59 58.4578 244.22 59.0224 245.664C59.5871 247.108 61.2179 247.82 62.6649 247.255Z" fill="#E7F1FF"/>
<path d="M46.6649 215.255C48.1119 214.689 48.8272 213.06 48.2625 211.615C47.6978 210.171 46.067 209.459 44.62 210.024C43.173 210.59 42.4578 212.22 43.0224 213.664C43.5871 215.108 45.2179 215.82 46.6649 215.255Z" fill="#E7F1FF"/>
<path d="M36.6649 227.255C38.1119 226.689 38.8272 225.06 38.2625 223.615C37.6978 222.171 36.067 221.459 34.62 222.024C33.173 222.59 32.4578 224.22 33.0224 225.664C33.5871 227.108 35.2179 227.82 36.6649 227.255Z" fill="#E7F1FF"/>
<path d="M80.6649 231.255C82.1119 230.689 82.8272 229.06 82.2625 227.615C81.6978 226.171 80.067 225.459 78.62 226.024C77.173 226.59 76.4578 228.22 77.0224 229.664C77.5871 231.108 79.2179 231.82 80.6649 231.255Z" fill="#E7F1FF"/>
<path d="M214.825 199.382C216.272 198.816 216.987 197.186 216.423 195.742C215.858 194.298 214.227 193.586 212.78 194.151C211.333 194.717 210.618 196.347 211.183 197.791C211.747 199.235 213.378 199.947 214.825 199.382Z" fill="#E7F1FF"/>
<path d="M216.157 215.899C217.604 215.333 218.319 213.704 217.755 212.26C217.19 210.815 215.559 210.103 214.112 210.669C212.665 211.235 211.95 212.864 212.515 214.308C213.079 215.753 214.71 216.465 216.157 215.899Z" fill="#E7F1FF"/>
<path d="M201.29 208.163C202.737 207.597 203.452 205.968 202.887 204.523C202.323 203.079 200.692 202.367 199.245 202.933C197.798 203.498 197.083 205.128 197.647 206.572C198.212 208.016 199.843 208.729 201.29 208.163Z" fill="#E7F1FF"/>
<path d="M186.013 199.129C187.46 198.563 188.175 196.934 187.61 195.49C187.045 194.045 185.415 193.333 183.968 193.899C182.521 194.465 181.805 196.094 182.37 197.538C182.935 198.983 184.566 199.695 186.013 199.129Z" fill="#FFF1ED"/>
<path d="M86.6649 220.255C88.1119 219.689 88.8272 218.06 88.2625 216.615C87.6978 215.171 86.067 214.459 84.62 215.024C83.173 215.59 82.4578 217.22 83.0224 218.664C83.5871 220.108 85.2179 220.82 86.6649 220.255Z" fill="#FFF1ED"/>
<path d="M66.6649 233.255C68.1119 232.689 68.8272 231.06 68.2625 229.615C67.6978 228.171 66.067 227.459 64.62 228.024C63.173 228.59 62.4578 230.22 63.0224 231.664C63.5871 233.108 65.2179 233.82 66.6649 233.255Z" fill="#FFF1ED"/>
<path d="M51.6649 234.255C53.1119 233.689 53.8272 232.06 53.2625 230.615C52.6978 229.171 51.067 228.459 49.62 229.024C48.173 229.59 47.4578 231.22 48.0224 232.664C48.5871 234.108 50.2179 234.82 51.6649 234.255Z" fill="#FFF1ED"/>
<path d="M97.6649 207.255C99.1119 206.689 99.8272 205.06 99.2625 203.615C98.6978 202.171 97.067 201.459 95.62 202.024C94.173 202.59 93.4578 204.22 94.0224 205.664C94.5871 207.108 96.2179 207.82 97.6649 207.255Z" fill="#FFF1ED"/>
<path d="M171.665 201.255C173.112 200.689 173.827 199.059 173.263 197.615C172.698 196.171 171.067 195.459 169.62 196.024C168.173 196.59 167.458 198.22 168.022 199.664C168.587 201.108 170.218 201.82 171.665 201.255Z" fill="#E7F1FF"/>
<path d="M111.665 202.255C113.112 201.689 113.827 200.06 113.262 198.615C112.698 197.171 111.067 196.459 109.62 197.024C108.173 197.59 107.458 199.22 108.022 200.664C108.587 202.108 110.218 202.82 111.665 202.255Z" fill="#E7F1FF"/>
<path d="M220.641 231.186C222.088 230.62 222.804 228.991 222.239 227.546C221.674 226.102 220.044 225.39 218.597 225.956C217.15 226.521 216.434 228.151 216.999 229.595C217.564 231.039 219.194 231.752 220.641 231.186Z" fill="#E7F1FF"/>
<path d="M224.337 244.544C225.784 243.979 226.499 242.349 225.934 240.905C225.37 239.461 223.739 238.748 222.292 239.314C220.845 239.88 220.13 241.509 220.694 242.954C221.259 244.398 222.89 245.11 224.337 244.544Z" fill="#FFF1ED"/>
<path d="M207.85 238.49C209.297 237.924 210.013 236.295 209.448 234.851C208.883 233.406 207.253 232.694 205.806 233.26C204.359 233.826 203.643 235.455 204.208 236.899C204.773 238.344 206.403 239.056 207.85 238.49Z" fill="#E7F1FF"/>
<path d="M211.716 252.629C213.163 252.063 213.878 250.434 213.313 248.989C212.749 247.545 211.118 246.833 209.671 247.398C208.224 247.964 207.509 249.594 208.073 251.038C208.638 252.482 210.269 253.194 211.716 252.629Z" fill="#E7F1FF"/>
<path d="M196.216 248.053C197.663 247.487 198.378 245.857 197.813 244.413C197.249 242.969 195.618 242.257 194.171 242.822C192.724 243.388 192.009 245.018 192.573 246.462C193.138 247.906 194.769 248.618 196.216 248.053Z" fill="#E7F1FF"/>
<path d="M190.589 231.316C192.036 230.751 192.751 229.121 192.186 227.677C191.622 226.232 189.991 225.52 188.544 226.086C187.097 226.652 186.382 228.281 186.946 229.725C187.511 231.17 189.142 231.882 190.589 231.316Z" fill="#E7F1FF"/>
<path d="M92.6649 200.255C94.1119 199.689 94.8271 198.06 94.2625 196.615C93.6978 195.171 92.067 194.459 90.62 195.024C89.173 195.59 88.4578 197.22 89.0224 198.664C89.5871 200.108 91.2179 200.82 92.6649 200.255Z" fill="#E7F1FF"/>
<path d="M228.276 218.788C228.058 219.299 227.693 219.734 227.228 220.037C226.763 220.341 226.218 220.5 225.661 220.494C225.105 220.488 224.563 220.318 224.103 220.004C223.644 219.691 223.287 219.248 223.079 218.733C222.871 218.218 222.821 217.652 222.934 217.109C223.048 216.565 223.32 216.067 223.717 215.679C224.114 215.29 224.618 215.028 225.164 214.925C225.711 214.823 226.276 214.884 226.787 215.102" fill="#FFF1ED"/>
<path d="M96.6649 215.255C98.1119 214.689 98.8272 213.059 98.2625 211.615C97.6978 210.171 96.067 209.459 94.62 210.024C93.173 210.59 92.4578 212.22 93.0224 213.664C93.5871 215.108 95.2179 215.82 96.6649 215.255Z" fill="#E7F1FF"/>
<path d="M263.473 262.939C263.221 263.326 262.899 263.662 262.523 263.93C262.047 264.264 261.505 264.491 260.934 264.597C260.363 264.702 259.776 264.683 259.214 264.54L246.384 261.292C246.252 261.259 246.129 261.198 246.023 261.112C245.917 261.027 245.831 260.92 245.77 260.798L241.354 251.939C241.077 251.397 240.94 250.794 240.953 250.185C240.966 249.577 241.13 248.98 241.429 248.449C241.744 247.908 242.185 247.45 242.716 247.117C243.246 246.784 243.849 246.585 244.473 246.538C245.052 246.483 245.635 246.557 246.181 246.756C246.727 246.955 247.222 247.272 247.63 247.686C248.029 248.083 248.335 248.564 248.526 249.095C248.716 249.625 248.786 250.191 248.73 250.752L247.978 258.116L259.559 256.608C260.163 256.529 260.777 256.587 261.355 256.777C261.933 256.968 262.46 257.287 262.898 257.71C263.316 258.103 263.64 258.585 263.846 259.121C264.052 259.657 264.134 260.232 264.087 260.805L264.05 261.277C263.995 261.87 263.797 262.44 263.473 262.939ZM248.725 259.93L259.673 262.701C259.97 262.778 260.281 262.789 260.583 262.735C260.885 262.681 261.172 262.563 261.424 262.388C261.632 262.243 261.806 262.054 261.934 261.835C262.061 261.616 262.14 261.371 262.163 261.119L262.199 260.65C262.222 260.359 262.179 260.066 262.073 259.795C261.967 259.523 261.801 259.278 261.587 259.08C261.353 258.853 261.071 258.682 260.762 258.58C260.453 258.477 260.124 258.446 259.801 258.488L248.725 259.93ZM243.136 249.284C243.116 249.316 243.095 249.348 243.077 249.382C242.932 249.644 242.854 249.937 242.85 250.237C242.845 250.536 242.915 250.832 243.053 251.097L246.154 257.321L246.847 250.562C246.874 250.28 246.838 249.995 246.741 249.729C246.644 249.463 246.489 249.222 246.287 249.024C246.075 248.808 245.818 248.642 245.534 248.538C245.249 248.435 244.946 248.396 244.644 248.425C244.344 248.442 244.052 248.529 243.79 248.678C243.529 248.827 243.305 249.035 243.137 249.284L243.136 249.284Z" fill="#FFDA2D"/>
<path d="M77.4729 264.939C77.2209 265.326 76.8986 265.662 76.5228 265.93C76.0472 266.264 75.5053 266.491 74.9342 266.597C74.3631 266.702 73.7762 266.683 73.2136 266.54L60.3838 263.292C60.2519 263.259 60.1288 263.198 60.0229 263.112C59.9169 263.027 59.8306 262.92 59.7699 262.798L55.3536 253.939C55.0775 253.397 54.9399 252.794 54.953 252.185C54.9662 251.577 55.1297 250.98 55.429 250.449C55.7437 249.908 56.1853 249.45 56.7157 249.117C57.2462 248.784 57.8494 248.585 58.4734 248.538C59.0521 248.483 59.6355 248.557 60.1814 248.756C60.7272 248.955 61.2219 249.272 61.6296 249.686C62.0292 250.083 62.3352 250.564 62.5256 251.095C62.7159 251.625 62.7857 252.191 62.73 252.752L61.9778 260.116L73.5586 258.608C74.1627 258.529 74.7766 258.587 75.3548 258.777C75.933 258.968 76.4605 259.287 76.8981 259.71C77.3161 260.103 77.6401 260.585 77.8459 261.121C78.0517 261.657 78.134 262.232 78.0867 262.805L78.0499 263.277C77.9954 263.87 77.7973 264.44 77.4729 264.939ZM62.7254 261.93L73.6735 264.701C73.9704 264.778 74.2805 264.789 74.5826 264.735C74.8847 264.681 75.1717 264.563 75.4242 264.388C75.6322 264.243 75.8061 264.054 75.9337 263.835C76.0613 263.616 76.1395 263.371 76.163 263.119L76.1994 262.65C76.2221 262.359 76.1789 262.066 76.0728 261.795C75.9667 261.523 75.8006 261.278 75.5869 261.08C75.353 260.853 75.071 260.682 74.7618 260.58C74.4526 260.477 74.1242 260.446 73.8009 260.488L62.7254 261.93ZM57.1365 251.284C57.1158 251.316 57.0951 251.348 57.0773 251.382C56.9322 251.644 56.854 251.937 56.8497 252.237C56.8453 252.536 56.915 252.832 57.0525 253.097L60.1544 259.321L60.8471 252.562C60.8739 252.28 60.8375 251.995 60.7406 251.729C60.6437 251.463 60.4888 251.222 60.287 251.024C60.0751 250.808 59.8177 250.642 59.5335 250.538C59.2493 250.435 58.9455 250.396 58.6442 250.425C58.344 250.442 58.0517 250.529 57.7902 250.678C57.5287 250.827 57.3051 251.035 57.1367 251.284L57.1365 251.284Z" fill="#FFDA2D"/>
</svg>
