<svg xmlns="http://www.w3.org/2000/svg" fill="none" viewBox="0 0 331 288"><path fill="#E7F1FF" d="M330.009 46.288v-1.006h-.041L329.961 7H0v281h330.009l-.007-40.532h.007v-1.006h-.007l-.007-39.241h.014v-1.006h-.014l-.007-39.192h.021v-1.006h-.021l-.007-39.239h.028v-1.006h-.028l-.007-39.24h.035v-1.006h-.035l-.007-39.239h.042zm-1.051-38.186v37.18h-39.196V8.102h39.196zm-40.2 0v37.18h-40.486V8.102h40.486zM164.813 126.78h40.965v39.239h-40.965v-39.239zm-1.003 39.239h-40.965v-39.239h40.965v39.239zm1.003-40.245v-39.24h40.965v39.24h-40.965zm-1.003 0h-40.965v-39.24h40.965v39.24zm-41.969 0H80.828v-39.24h41.012l.001 39.24zm0 1.006v39.239H80.828v-39.239h41.013zm0 40.245v39.191H80.828v-39.191h41.013zm1.004 0h40.965v39.191h-40.965v-39.191zm41.968 0h40.965v39.191h-40.965v-39.191zm41.968 0h40.487v39.191h-40.487v-39.191zm0-1.006v-39.239h40.487v39.239h-40.487zm0-40.245v-39.24h40.487v39.24h-40.487zm0-40.246v-39.24h40.487v39.24h-40.487zm-1.003 0h-40.965v-39.24h40.965v39.24zm-41.968 0h-40.965v-39.24h40.965v39.24zm-41.969 0H80.828v-39.24h41.012l.001 39.24zm-42.015 0H38.86v-39.24h40.965v39.24zm0 1.006v39.24H38.86v-39.24h40.965zm0 40.246v39.239H38.86v-39.239h40.965zm0 40.245v39.191H38.86v-39.191h40.965zm0 40.198v39.239H38.86v-39.24l40.965.001zm1.003 0h41.012v39.239H80.828l.001-39.239zm42.016 0h40.965v39.239h-40.965v-39.239zm41.968 0h40.965v39.239h-40.965v-39.239zm41.968 0h40.487v39.239h-40.487v-39.239zm41.491 0h40.486v39.239h-40.486v-39.239zm0-1.007v-39.191h40.486v39.191h-40.486zm0-40.197v-39.239h40.486v39.239h-40.486zm0-40.245v-39.24h40.486v39.24h-40.486zm0-40.246v-39.24h40.486v39.24h-40.486zm-1.004-77.425v37.18h-40.487V8.102h40.487zm-41.49 0v37.18h-40.965V8.102h40.965zm-41.968 0v37.18h-40.965V8.102h40.965zm-41.969 0v37.18H80.828V8.102h41.013zm-42.015 0v37.18H38.86V8.102h40.965zm-78.774 0h36.806v37.18H1.052V8.102zm0 38.186h36.806v39.239H1.052v-39.24zm0 40.245h36.806v39.24H1.052v-39.24zm0 40.246h36.806v39.239H1.052v-39.239zm0 40.245h36.806v39.191H1.052v-39.191zm0 40.198h36.806v39.239H1.052v-39.239zm0 79.724v-39.479h36.806v39.479H1.052zm37.81 0v-39.479h40.964v39.479H38.86zm41.967 0v-39.479h41.012v39.479H80.829zm42.016 0v-39.479h40.965v39.479h-40.965zm41.968 0v-39.479h40.965v39.479h-40.965zm41.968 0v-39.479h40.487v39.479h-40.487zm41.491 0v-39.479h40.486v39.479h-40.486zm80.687 0h-39.197v-39.479h39.196l.001 39.479zm0-40.485h-39.197v-39.24h39.196l.001 39.24zm0-40.245h-39.197v-39.192h39.196l.001 39.192zm0-40.198h-39.197v-39.239h39.196l.001 39.239zm0-40.245h-39.197v-39.24h39.196l.001 39.24zm0-40.246h-39.197v-39.24h39.196l.001 39.24z"/><path fill="#07377F" d="M311.711 157.852c-.208-.043-.432-.075-.66-.108l-.632-.098c-.998-.127-1.996-.254-2.996-.374a341.597 341.597 0 0 0-3.036-.062c-.988-.223-1.977-.442-2.966-.655l-3.013-.2-3.002-.32-3.036-.021-2.985-.513-3.036.01-3.002-.296-2.996-.375-3.019-.041-3.002-.294-3.011-.144-3.016-.091-2.981-.148-3.007-.174-3.01-.294-3.009-.167-3.006-.208-2.998-.344-3.01-.159-3.022.045-3.006-.212-3.006-.204-2.996-.365-3.008-.196-3.011-.133c-1.002-.103-1.992-.213-3.011-.309a26.382 26.382 0 0 0-3.099.3 16.57 16.57 0 0 0-3.097.408c-.99.288-1.935.608-2.892.913l-2.937.681-2.871.908-1.436.451-1.427.481c-.674.217-1.38.337-2.008.708-.102.06-.712.232-.622.524.011.031.027.06.049.086h-.021l.044.099h-.053a1 1 0 0 0-.583.084c-.26.148-.169.496-.19.631l-.043.315a5.485 5.485 0 0 0-.052.758c.002.28.041.559.116.829.025.092.056.182.093.269l.04.101.101.218c.034.067.07.125.106.187.067.125.142.246.224.363.085.116.163.238.26.346.096.109.189.221.296.324.42.409.92.732 1.468.949 1.054.494 2.171.627 3.207.711l1.518-.075 1.501-.061c1 .077 2 .161 3 .252l3.017-.088 3.01.337 3.015-.011 3.013.064 3.014.059 3.009.152 3.021-.187 3 .442 3.019-.113 3.013.036 3.006.223 3.011.121 3.004.245 3.017-.013 3.015.042 3 .336h3.017l3 .334 3.025-.103 2.989.408 3.017.017 2.987.492 3.036-.178 3 .292 2.988.472 3.021-.025 3.002.268c1 .135 2.019.268 3.072.329a15.277 15.277 0 0 0 3.133-.642 11.258 11.258 0 0 0 5.584-3.047 9.316 9.316 0 0 0 1.617-2.787l.161-.374.08-.187.065-.187c.131-.416.238-.838.318-1.266.044-.213.101-.44.135-.651l-.634-.12z"/><path fill="#07377F" d="M312.931 159.029c-.024-.084.017-.547-.324-.563h-.107a.146.146 0 0 1-.088-.035.133.133 0 0 1-.044-.08.28.28 0 0 1 0-.041.448.448 0 0 0-.051-.064l-.039-.045-.051-.061a.593.593 0 0 0-.176-.154c-.253-.135-.392.132-.472.188l-1.252.797c-.664.376-1.324.741-1.99 1.128l-.286.141c-.12.057-.234.124-.341.201-.431.283-.909.552-1.393.828-.587.476-1.175.959-1.763 1.476-.689.436-1.331.935-1.92 1.49a5.568 5.568 0 0 0-.689 1.143 3.321 3.321 0 0 0-.214.708 2.96 2.96 0 0 0-.041.376v.276l-.491 2.188-.102 2.198-.159 2.201-.143 2.201-.229 2.195.153 2.217-.523 2.173.076 2.212-.074 2.212-.279 2.185-.17 2.195-.304 2.182-.029 2.203-.092 2.198-.423 2.169c-.017.734-.041 1.468-.071 2.201-.143.721-.286 1.443-.441 2.161l.02 2.214-.533 2.161c-.033.74-.06 1.483-.074 2.227a49.006 49.006 0 0 0-.513 2.21c.094.752.211 1.515.354 2.255a31.4 31.4 0 0 0 0 2.255 80.885 80.885 0 0 0-.063 2.256c.173.721.345 1.435.504 2.148.053.721.088 1.437.092 2.146a13.441 13.441 0 0 1-.335 2.039c.035.714.033 1.46.055 2.219-.039.25-.075.494-.108.752-.013.16-.013.321 0 .481 0 .133.018.261.029.387l.075.752.074 1.107.04.564.096.994.05.334v.042s.036 0 .053-.012l.116-.034.229-.065c.102-.042.092 0 .116.026l.055.075.097.139c.102.141.188.292.255.451a4 4 0 0 0 .48.22c.091.051.178.107.261.169l1.244-.977c.109-.083.217-.179.317-.263l.196-.154.38-.308c.278-.267.546-.54.821-.81l.783-.829c.434-.627.854-1.259 1.262-1.896.587-.491 1.175-.991 1.751-1.489l1.342-1.779c.49-.557.984-1.105 1.483-1.645.213-.299.421-.605.64-.898l.329-.444.179-.24c.079-.106.151-.218.215-.333.282-.372.495-.79.627-1.233a8.38 8.38 0 0 0 .294-1.206c-.045-.797-.171-1.545-.269-2.255 0-.367.03-.677.059-1.064l.073-1.111c.076-.738.143-1.477.205-2.213l-.172-2.201c.037-.733.076-1.455.129-2.189l-.004-2.216-.058-2.203v-2.2l.033-2.201.153-2.197.025-2.201c.024-.732.043-1.465.079-2.198l.238-2.195.046-2.201-.169-2.206.1-2.199.092-2.199.245-2.193.076-2.201.012-2.202.196-2.197-.229-2.21.182-2.197-.02-2.204.22-2.195c0-.735.019-1.468.013-2.203v-2.203c.012-.516.147-1.031-.001-1.554z"/><path fill="#85B7FE" d="M303.134 173.71c-.155-1.467-.167-2.979-.189-4.504.06-.757.119-1.525.155-2.298.019-.386.031-.774.036-1.163v-.727l-.019-.519v-.391c0-.019 0-.051-.009-.059h-.065l-1.04-.079c-.203-.018-.266-.016-.369-.023l-.29-.013c-.38-.016-.771-.031-1.156-.038-.771-.019-1.539-.027-2.304-.029-1.519-.125-3.049-.232-4.557-.378-1.502-.036-3.038-.127-4.557-.189l-4.585-.347c-1.52-.2-3.02-.41-4.558-.603a109.915 109.915 0 0 0-4.608-.176c-1.528-.034-3.051-.034-4.567-.078-1.519.025-3.038 0-4.541-.078l-4.558-.545a527.97 527.97 0 0 0-4.541-.664l-4.558-.465-4.591-.12-4.557-.567-4.584-.174-4.557-.413-4.568-.229-4.569-.312-4.568-.331-4.557-.472c-1.519-.111-3.038-.263-4.576-.359a33.393 33.393 0 0 0-4.681.019l-.292.038-.088.011-.133.019a1.743 1.743 0 0 0-.256.064 1.203 1.203 0 0 0-.74.676 2.224 2.224 0 0 0-.09.221l-.055.155c-.04.103-.064.209-.093.315a3.06 3.06 0 0 0-.074.318 3.368 3.368 0 0 0-.053.319c-.12.858-.017 1.669.057 2.413.011.379.015.74 0 1.094 0 .189-.03.343-.049.534l-.069.567a95.925 95.925 0 0 0-.233 2.285c-.169 1.513-.31 3.041-.454 4.556l-.114 2.271-.104 2.283-.149 4.568-.343 4.557-.023 2.286c-.011 1.15 0 2.286 0 2.286-.019.24-.042.479-.059.719l-.064.719-.099 1.136c-.025.268-.201 1.665.569 1.703v.036l-.036.028c-.07.06-.134.127-.19.201a1.08 1.08 0 0 0-.17.592c-.05 1.16-.057 2.328-.088 3.49l-.163 4.57-.127 4.566-.118 2.283c-.036.757-.089 1.513-.106 2.289-.05 1.537-.012 3.059-.126 4.542-.011.379-.04.742-.07 1.111-.03.369-.083.721-.14 1.109-.111.767-.19 1.537-.238 2.309a37.218 37.218 0 0 0-.135 4.627c.025.369.052.738.084 1.105l.053.551.082.791.53-.023.132-.013h.162v.034l-.067.308-.034.153v.019h.089l.226.01.517.03 1.044.076c1.519.136 3.038.289 4.557.443l4.557.522 2.279.176c.759.055 1.519.117 2.305.155 1.525.126 3.051.238 4.578.335l4.58.246 4.582.07c1.519.097 3.041.202 4.566.314 1.519.066 3.042.14 4.567.224 1.525.083 3.048.168 4.568.255 1.519.158 3.038.322 4.558.494l4.57.261 4.568.314c1.519.212 3.038.426 4.558.606 1.519.13 3.053.244 4.579.348l4.59.057 4.557.503 4.593.099c1.519.083 3.021.213 4.534.393l4.557.558c1.519.212 3.052.398 4.601.5.38.01.777.025 1.166.028.389.004.779 0 1.17-.011l1.014-.04.275-.011h.068c.017 0 .012-.011.014-.021v-.03l.011-.121.042-.487.127-1.468c.047-1.529.072-3.059.074-4.589.063-1.525.106-3.053.116-4.58.059-.757.106-1.527.15-2.293.044-.767.076-1.497.175-2.232.019-1.474.189-2.978.33-4.502.112-.757.216-1.514.292-2.291.076-.778.112-1.537.166-2.296l.489-4.542.105-4.566.133-4.568.547-4.542.026-4.568c.156-1.514.321-3.028.494-4.542l.104-2.284a44.62 44.62 0 0 0 .033-2.313c.054-.77.088-1.54.1-2.313.008-.386.008-.772 0-1.16l-.04-1.114z"/><path fill="#FFDA2D" d="M262.316 183.554a14.783 14.783 0 0 0-.347-1.681 13.431 13.431 0 0 0-.297-1.725 10.192 10.192 0 0 0-1.866-2.972 13.116 13.116 0 0 0-.681-.554 9.52 9.52 0 0 0-.714-.493c-.216-.192-.421-.383-.65-.552-.229-.169-.449-.351-.688-.504-.11-.092-.219-.192-.331-.276l-.35-.27c-.23-.178-.478-.328-.724-.487-.246-.159-.528-.238-.792-.356-.263-.119-.545-.192-.818-.299-.295-.023-.585-.056-.877-.067a7.41 7.41 0 0 0-.869 0c-.279-.068-.559-.142-.845-.192l-.43-.071a15.866 15.866 0 0 0-.432-.05c-.565.079-1.125.193-1.676.341-.557.056-1.11.138-1.655.236-.532.159-1.053.333-1.569.514-.515.18-1.049.31-1.575.494-.537.176-1.063.385-1.574.627-.555.2-1.088.457-1.591.766a9.406 9.406 0 0 0-1.311 1.204c-.376.433-.728.887-1.055 1.359-.131.253-.254.506-.379.767l-.348.734-1.055 1.242c-.4.422-.772.87-1.114 1.341-.145.28-.272.569-.379.866a3.871 3.871 0 0 0-.223 1.056.99.99 0 0 0 0 .154l.015.168c0 .066.01.131.023.192l.053.192c.083.245.22.468.401.651.264.252.57.455.904.6.513.299 1.051.551 1.608.755 0 0 .422.073.837.127l.824.1c.161.063.322.13.481.191l.379.142c.1.054.216.067.326.038.142-.049.299-.21.437-.638v-.009h.028a1.1 1.1 0 0 0 .171.017.263.263 0 0 0 .223-.111c.243-.334.453-.688.697-1.016.163-.213.33-.422.504-.625s.335-.414.51-.611c.334-.405.693-.789 1.074-1.15.4-.329.829-.621 1.282-.87a7.28 7.28 0 0 1 .685-.313c.231-.085.467-.155.707-.211.46-.18.94-.304 1.43-.37a5.49 5.49 0 0 1 1.455.163c.471.053.931.182 1.361.384a3.1 3.1 0 0 1 1.031.895c.248.386.405.824.458 1.282.034.113.051.232.078.349.026.117.034.239.043.364 0 .259.034.521.031.782-.057.255-.089.514-.169.766l-.106.372c-.036.123-.087.242-.131.361-.167.478-.378.94-.632 1.378a8.437 8.437 0 0 1-.745 1.328 9.376 9.376 0 0 1-1.149 1.014c-.376.347-.772.672-1.186.971-.206.156-.409.315-.627.457-.218.141-.43.291-.652.429-.477.211-.994.412-1.501.634-.455.322-.913.661-1.353 1.035a9.55 9.55 0 0 0-1.246 1.225 6.554 6.554 0 0 0-1.277 1.305 4.018 4.018 0 0 0-.219.416c-.065.14-.139.289-.19.42-.11.268-.212.542-.303.818-.085.578-.131 1.16-.138 1.744a13.645 13.645 0 0 0-.477 1.685c.024.293.058.575.102.872.025.144.044.287.072.431.028.144.045.257.106.504l.044.33a.624.624 0 0 0 .134.293c.14.171.316.307.515.399a3.526 3.526 0 0 0 .529.201c.145.046.289.082.43.115.549.128 1.104.227 1.663.297.543.117 1.089.218 1.634.308.548.046 1.095.083 1.642.11a47.598 47.598 0 0 0 1.646-.24l.822-.034.413-.023.227-.014.326-.023c.229.008.459.003.688-.013h.09c.029 0 .071 0 .071-.029l.056-.149.118-.311c.064-.222.138-.468.189-.707.044-.153.087-.293.123-.437-.043-.59-.125-1.15-.189-1.681a9.745 9.745 0 0 1 .17-1.533 4.855 4.855 0 0 1 .675-1.254c.15-.438.376-.846.666-1.205a6.892 6.892 0 0 1 1.122-1.003c.501-.18 1.026-.344 1.562-.544.448-.373.867-.779 1.256-1.215.248-.153.475-.333.712-.508.237-.174.455-.372.661-.575.336-.474.633-.976.888-1.5.371-.447.71-.92 1.015-1.415.153-.56.27-1.129.353-1.704.226-.524.423-1.061.591-1.608.061-.567.093-1.138.094-1.709.137-.56.244-1.127.321-1.698a16.078 16.078 0 0 0-.277-1.706zM252.773 211.679a2.674 2.674 0 0 0-.491-.489 3.336 3.336 0 0 0-.257-.51 3.889 3.889 0 0 0-.277-.507 4.156 4.156 0 0 0-.493-.274 4.445 4.445 0 0 0-.36-.437 5.343 5.343 0 0 0-.472-.267 5.495 5.495 0 0 0-.573.039 6.177 6.177 0 0 0-.39-.458 8.273 8.273 0 0 0-.51-.037 12.15 12.15 0 0 0-.478-.132c-.173.045-.342.095-.508.146-.146-.099-.292-.195-.442-.3-.168.057-.334.111-.499.173a10.869 10.869 0 0 0-.476-.101c-.158-.062-.321-.115-.485-.169-.166.046-.331.105-.493.156-.168-.02-.335-.039-.507-.051-.167.039-.331.068-.498.121-.168.052-.324.124-.482.194a5.11 5.11 0 0 0-.479.195c-.162.059-.316.142-.472.215-.156.072-.339.107-.502.185a3.572 3.572 0 0 0-.419.337c-.071.056-.143.109-.209.169l-.195.195c-.159.099-.31.211-.452.333l-.142.234-.125.239a4.255 4.255 0 0 0-.043.563c-.072.154-.13.312-.195.468-.064.156-.099.317-.138.477-.084.148-.16.302-.232.456a5.834 5.834 0 0 0-.062.489c-.016.164 0 .327.017.489-.039.158-.068.315-.099.473l.22.481a6.289 6.289 0 0 0-.06.487c.035.164.072.328.121.491a1.173 1.173 0 0 0 .294.998c.101.147.218.284.349.407.087.083.13.22.29.224.025 0 .097.08.226-.074.016-.02.025-.035.037-.051l-.031.035a2.943 2.943 0 0 0-.296.39c-.109.195.025.132.044.144.02.012.075.051.151.095a.85.85 0 0 0 .159.074c.146.098.297.185.447.263.12.139.247.267.376.39.173.025.343.039.51.051.131.113.271.216.409.325h.521c.139.121.284.238.436.351.172.009.345.013.517.013.171 0 .339.033.506.041.168.008.339 0 .507 0 .167 0 .335.043.503.057.165-.092.323-.195.477-.293.168.092.339.185.513.271.155-.084.303-.171.454-.259l.457-.14c.162 0 .328.013.499.012.166-.036.334-.076.507-.129.192-.016.382-.047.569-.092.167-.124.322-.264.464-.416.147-.142.278-.299.389-.47.178-.106.345-.228.499-.366.061-.186.107-.376.137-.569.119-.142.234-.294.335-.444a5.399 5.399 0 0 0-.103-.551l.315-.413-.046-.48.376-.389-.232-.522.195-.429c.113-.13.228-.267.341-.417a8.596 8.596 0 0 0-.129-.547 3.95 3.95 0 0 0 .078-.551c.058-.2.094-.405.107-.612z"/><path fill="#FFBCA5" d="M186.148 152.842c-.283.632-.075.225-.062.21l.188-.165.122.083-.131.626.298-.319-.092.538.333-.365-.188.723.231-.147.154.013h.163l.074.21.479-.661-.267.889.394-.482.228-.132.011.31.141.042v.33l.311-.296.254-.189-.084.502.311-.313-.064.459.444-.569-.132.593.32-.293-.22.757.563-.784.025.277-.173.665.4-.466.071.189-.08.479.522-.701.09.144-.015.347.282-.225-.077.454.103.116.447-.544-.28.853.237-.139.077.169.411-.47-.188.665.414-.47.037.243-.075.453.325-.307.013.286.188-.055.257-.171.188-.047.158.017.021.269h.165l.116.093-.041.379.175-.015.409-.444.115.097.122.083-.055.402.134.063c.065-.018.141-.054.208-.076l.019.269.464-.531.021.264.234-.106-.022.337.197-.051.188-.04c.045-.01-.066.256.158-.068.035-.053.03.022.437-.696l.188-.333.327-.589.218-.368a.462.462 0 0 0 .047-.104c-.017-.049-.107.034-.156.044l-.126-.082-.188.04v-.294l.043-.379-.221.089.011-.329-.227.098a1.136 1.136 0 0 0-.15-.038l-.07-.189-.336.299.032-.367-.015-.285-.265.171.068-.436-.166-.011-.201.055.096-.493-.334.3-.308.255.157-.61c-.03-.049-.063-.094-.093-.144l-.474.569.203-.698-.404.44-.099-.133-.085-.161.073-.462-.09-.153-.479.53h-.165l.295-.89-.464.568-.1-.135.188-.676-.375.415-.32.292.288-.889-.491.627.119-.568-.346.349.188-.688-.5.652.098-.525-.344.346.173-.68-.346.353h-.169l.205-.796-.146-.044-.2.063-.488.648-.086-.167.169-.657-.07-.203-.522.724.163-.678-.375.418v-.341l-.254.19-.144-.072-.111-.118.097-.551-.092-.157-.135-.067-.449.593.013-.379.141-.651-.176.021a4.72 4.72 0 0 0-.269.217l.019-.396-.421.54.049-.219.039-.173c0-.021.046-.142-.08.099-.126.24-.419.843-1.08 2.273l-.703 1.539zM192.205 139.26c-.57.383-.19.167-.179.167l.101.011a.226.226 0 0 0 .082 0h.044l.106.163-.38.482.471-.073-.313.438.488-.088-.485.553.295.04.151.135.167.123-.021.25.761-.273-.626.662.593-.169.286.04-.109.312.13.147-.126.325.434-.067h.333l-.276.435.435-.071-.253.413.67-.243-.352.493.447-.086-.502.601.863-.383-.07.293-.411.549.584-.192.015.232-.247.419.787-.345.05.192-.129.342.38-.042-.224.417.076.191.65-.262-.57.69.3.012.032.221.588-.219-.394.573.588-.224-.025.27-.207.413.436-.103-.056.3.232.061.33-.019.218.069.164.115-.05.294.179.102.101.168-.147.382.191.09.57-.229.097.172c.036.053.076.105.114.157l-.163.399.133.142.245.042-.061.313.66-.329-.041.297h.296c-.036.12-.071.238-.102.354l.239.042.23.049c.046.021-.108.222.227-.023.053-.04.045.023.637-.522l.266-.263.481-.454c.137-.117.264-.245.381-.382.009-.075-.078-.057-.143-.063l-.118-.146-.224-.047.07-.316.152-.382-.266-.01c.034-.113.07-.229.099-.336l-.291.009-.166-.101-.026-.224-.449.145.133-.361.055-.293-.338.046.19-.407-.177-.092-.234-.044.236-.441-.441.13-.402.093.337-.524-.057-.191-.662.304.422-.585-.559.21-.063-.191-.038-.208.225-.419-.042-.203-.635.276-.172-.102.598-.707-.668.289-.059-.192.417-.556-.537.191-.428.096.605-.694-.723.317.32-.474-.477.128.433-.555-.753.312.291-.445-.475.122.429-.545-.479.122-.169-.105.53-.612-.129-.134-.222-.067-.727.299-.019-.214.418-.52.014-.234-.807.337.438-.528-.537.145.139-.319h-.331l-.112-.147-.057-.191.329-.444-.021-.207-.101-.153-.684.241.18-.34.424-.497a1.685 1.685 0 0 1-.171-.107h-.331l.234-.369-.637.191c.053-.057.114-.119.148-.165l.096-.114c.011-.014.097-.088-.145.046l-.247.145-.409.25-1.434.903c-.717.44-1.132.721-1.385.883zM205.675 137.848c-.631.143-.22.068-.205.068l.091.013c.04 0 .111 0 .107.01l.02.097-.515.214.415.014-.429.198h.444l-.619.235.225.053.066.087.085.083-.12.129.719-.053-.776.269.544-.016.211.057-.216.149.04.093-.237.152.371.022.261.045-.402.198.371.022-.36.18.628-.034-.487.198.387.02-.654.243.841-.079-.185.142-.556.222.534-.014-.091.121-.371.184.76-.062-.054.113-.25.156.302.038-.356.178-.025.107.609-.03-.741.261.22.056-.076.118.54-.014-.556.222.537-.014-.146.135-.349.178.371.021-.185.141.144.071.252.047.13.074.068.087-.17.138.083.083v.103l-.279.162.1.081h.509l-.009.105v.101l-.308.168.022.097.147.071-.198.145.609-.03-.196.145.196.059-.283.162.129.073.123.075c.031.018-.251.103.131.044.063 0 0 .026.806-.148l.37-.084.662-.146.407-.095a.597.597 0 0 0 .11-.03c.022-.031-.104-.029-.145-.047l-.031-.095-.161-.067.194-.145.283-.162-.209-.057.219-.148-.211-.058-.071-.087.085-.121-.385-.019.263-.159.185-.14-.255-.048.329-.174-.077-.085-.141-.071.381-.184-.37-.022-.332-.029.495-.208.054-.115-.623.032.588-.229h-.508l.041-.111.068-.117.36-.18.061-.115-.597.026-.078-.085.771-.269-.628.034.045-.111.566-.224h-.491l-.37-.023.771-.269-.689.045.457-.198-.42-.012.579-.227-.711.051.422-.197-.418-.012.572-.226-.424-.01-.083-.083.681-.249-.04-.093-.143-.071-.708.051.078-.119.556-.221.113-.127-.78.066.572-.226h-.478l.249-.156-.256-.048-.028-.097.032-.108.452-.198.07-.117-.017-.099-.652.038.287-.164.556-.224-.089-.083-.272-.043.339-.175-.6.028.185-.073.137-.055c.017 0 .122-.04-.128 0-.25.039-.859.168-2.265.472l-1.505.358z"/><g clip-path="url(#clip0)"><path fill="#FFF1ED" d="M71.045 104.078c-.348.788-2.086 5.268-3.761 9.78l-4.33 16.973c-.791 8.203-.349 17.289 3.033 17.321 3.098.063 3.098-5.364 4.457-15.428.348 9.118.6 15.68 3.793 15.365 3.161-.316 2.782-9.56 2.434-16.595 2.276 4.354 5.12 10.348 7.523 9.717 3.445-.946 1.233-6.152.126-9.749-2.465-8.013 1.012-10.095 3.983-14.512 1.96-2.934 1.486-7.067-.095-11.484l-17.163-1.388z"/><path fill="#3C4043" d="M66.053 149.099h-.085a2.865 2.865 0 0 1-2.118-1.015c-2.943-3.263-2.152-14.099-1.84-17.342a.968.968 0 0 1 .025-.144l4.33-16.973c.009-.032.019-.063.03-.095 1.634-4.4 3.406-8.977 3.783-9.832a.96.96 0 0 1 .944-.562l17.164 1.388a.95.95 0 0 1 .816.625c1.93 5.395 1.928 9.428-.009 12.327-.551.82-1.109 1.546-1.647 2.251-2.38 3.106-4.098 5.35-2.218 11.459.13.426.278.874.429 1.335.916 2.808 1.96 5.992.87 8.014a3.216 3.216 0 0 1-2.08 1.591c-2.405.631-4.576-2.599-6.653-6.44.218 7.401-.231 13.024-3.462 13.346a2.768 2.768 0 0 1-2.143-.674c-1.111-.967-1.711-2.946-2.073-5.715-.668 4.193-1.576 6.456-4.063 6.456zm-2.164-18.105c-.738 7.741-.19 14.095 1.369 15.823a.96.96 0 0 0 .738.388h.024c1.69 0 2.135-3.675 2.87-9.748.177-1.452.376-3.095.614-4.861a.947.947 0 0 1 1.614-.54.949.949 0 0 1 .274.63c.252 6.63.491 12.892 2.044 14.243a.85.85 0 0 0 .707.216c.305-.031 1.328-.473 1.681-4.91.264-3.319.045-7.758-.1-10.695a.944.944 0 0 1 .699-.96.95.95 0 0 1 1.089.475l.598 1.154c1.048 2.025 2.235 4.32 3.385 5.959 1.523 2.172 2.265 2.177 2.457 2.127a1.33 1.33 0 0 0 .903-.66c.704-1.307-.243-4.202-1.003-6.529-.154-.473-.304-.931-.438-1.367-2.166-7.041.112-10.015 2.524-13.165.521-.68 1.06-1.384 1.578-2.153 1.493-2.236 1.493-5.62 0-10.064l-15.858-1.283c-.614 1.524-2.044 5.231-3.467 9.063l-4.302 16.857z"/><path fill="#fff" d="M82.014 84.659s-4.204 16.248-8.06 32.527c-.19.789-.38 1.609-.569 2.398-3.413 14.481-6.511 28.678-6.385 31.612l-.284 64.235.095 12.462h47.697v-67.547l-.063-1.578 9.482 13.787 13.781 57.23 46.244-12.272-14.983-62.31a25.31 25.31 0 0 0-4.267-9.212l-15.204-20.255-17.195-22.873-2.876-3.818L82.014 84.66z"/><path fill="#3C4043" d="M137.708 230.732a.952.952 0 0 1-.922-.726l-13.739-57.059-7.591-11.036v65.982a.945.945 0 0 1-.948.946H66.811a.95.95 0 0 1-.949-.939l-.094-12.462.284-64.225c-.123-3.324 3.416-19.143 6.41-31.846l.285-1.199.284-1.203c3.814-16.099 8.022-32.38 8.064-32.543a.945.945 0 0 1 1.194-.669l47.413 14.387a.95.95 0 0 1 .482.336l2.876 3.818 17.195 22.873 15.204 20.255a26.166 26.166 0 0 1 4.431 9.562l14.983 62.306a.943.943 0 0 1-.679 1.136l-46.243 12.273a.949.949 0 0 1-.243.033zm-23.264-72.91a.95.95 0 0 1 .782.41l9.483 13.787a.96.96 0 0 1 .14.315l13.555 56.288 44.409-11.786-14.766-61.412a24.26 24.26 0 0 0-4.109-8.872l-15.199-20.248-17.195-22.874-2.689-3.57-46.17-14.007c-.955 3.722-4.528 17.703-7.808 31.552l-.285 1.199-.284 1.202c-4.204 17.833-6.463 28.968-6.36 31.351v.045l-.284 64.235.088 11.511h45.808v-66.583l-.064-1.558a.952.952 0 0 1 .577-.91.947.947 0 0 1 .372-.075h-.001z"/><path fill="#E7F1FF" d="M112.107 258.022l.031-30.066H71.806c-2.782 7.603-9.64 11.61-17.859 13.44-7.238 1.609-11.853 8.518-11.316 16.311v.347l46.37-.032 7.65-13.03-.159 13.03h15.615z"/><path fill="#3C4043" d="M42.631 259a.947.947 0 0 1-.948-.946v-.316c-.56-8.329 4.507-15.588 12.058-17.267 9.013-2.006 14.793-6.327 17.174-12.84a.947.947 0 0 1 .89-.622h40.333a.95.95 0 0 1 .948.947l-.031 30.066a.944.944 0 0 1-.949.946H96.492a.937.937 0 0 1-.675-.281.948.948 0 0 1-.273-.676l.114-9.458-5.84 9.948a.948.948 0 0 1-.817.467l-46.37.032zm29.826-30.098c-2.747 6.812-8.901 11.324-18.303 13.418-6.48 1.44-10.87 7.611-10.605 14.787l44.908-.031 7.376-12.562a.952.952 0 0 1 1.071-.434.949.949 0 0 1 .695.923l-.147 12.073h13.707l.03-28.174H72.457z"/><path fill="#E7F1FF" d="M179.084 218.775c1.201 6.751 5.437 10.79 12.991 9.338l14.129-2.208c7.27-1.357 14.161 2.587 16.721 9.906l.126.347-45.642 21.832-22.189-13.029.158 13.029h-15.615l-.032-28.804 39.353-10.411z"/><path fill="#3C4043" d="M177.409 258.937a.947.947 0 0 1-.481-.131l-20.74-12.178.138 11.352a.951.951 0 0 1-.948.958h-15.615a.946.946 0 0 1-.948-.947l-.032-28.804a.946.946 0 0 1 .705-.915l39.353-10.412a.963.963 0 0 1 .753.117.948.948 0 0 1 .424.633c.609 3.426 2.035 5.994 4.122 7.427 1.991 1.367 4.601 1.753 7.756 1.147l.031-.006 14.129-2.208c7.771-1.45 15.086 2.878 17.764 10.53l.123.336a.944.944 0 0 1-.482 1.176l-45.642 21.832a.953.953 0 0 1-.41.093zm-36.697-1.893h13.706l-.147-12.072a.946.946 0 0 1 .951-.958.95.95 0 0 1 .478.131l21.755 12.774 44.41-21.243c-2.491-6.473-8.791-10.092-15.489-8.841l-14.138 2.211c-3.664.701-6.751.213-9.173-1.451-2.296-1.578-3.913-4.208-4.71-7.65l-37.674 9.969.031 27.13z"/><path fill="#FFDA2D" d="M70.155 247.173a3.16 3.16 0 0 1-2.339-1.027 3.301 3.301 0 0 1-.838-2.74l1.377-9.791-11.328 1.338a3.182 3.182 0 0 1-3.312-2.106l-.069-.206a3.35 3.35 0 0 1 .697-3.409 3.05 3.05 0 0 1 3.075-.896l12.322 3.281a.948.948 0 0 1 .674.677l2.782 10.727a3.424 3.424 0 0 1-.532 2.816 3.184 3.184 0 0 1-2.292 1.33c-.072.003-.143.006-.217.006zm-.4-9.878l-.897 6.378v.008a1.423 1.423 0 0 0 .357 1.182 1.193 1.193 0 0 0 .986.418 1.194 1.194 0 0 0 .923-.544 1.53 1.53 0 0 0 .237-1.254l-1.606-6.188zm-13.15-7.175a1.208 1.208 0 0 0-.87.399 1.473 1.473 0 0 0-.296 1.505l.07.207a1.28 1.28 0 0 0 1.319.84l7.63-.901-7.533-2.006a1.275 1.275 0 0 0-.32-.044z"/><path fill="#3C4043" d="M129.965 180.6a.942.942 0 0 1-.722-.332l-6.069-7.098a.946.946 0 0 1 .796-1.558.945.945 0 0 1 .647.329l6.069 7.098a.95.95 0 0 1-.21 1.412.947.947 0 0 1-.512.149h.001z"/><path fill="#FFDA2D" d="M190.995 242.977c-.462 0-.919-.087-1.349-.256a4.022 4.022 0 0 1-2.316-2.441l-4.275-12.525a.94.94 0 0 1 .079-.784l5.017-8.534a3.694 3.694 0 0 1 2.966-1.84 3.876 3.876 0 0 1 3.263 1.509 3.925 3.925 0 0 1 .758 3.272 3.791 3.791 0 0 1-1.97 2.595l-6.581 3.386 7.579 8.884a4.042 4.042 0 0 1 .898 3.4 3.818 3.818 0 0 1-1.945 2.684l-.416.227a3.672 3.672 0 0 1-1.708.423zm-5.521-14.002l3.648 10.687a2.14 2.14 0 0 0 1.217 1.297 1.747 1.747 0 0 0 1.467-.073l.413-.225a1.948 1.948 0 0 0 .982-1.37 2.164 2.164 0 0 0-.478-1.82l-7.249-8.496zm5.874-10.491c-.038 0-.076 0-.114.004a1.807 1.807 0 0 0-1.451.915l-3.525 5.994 6.043-3.106a1.907 1.907 0 0 0 .984-1.308 2.027 2.027 0 0 0-.394-1.704 1.95 1.95 0 0 0-1.543-.795z"/><path fill="#FFF1ED" d="M82.615 199.277a2.81 2.81 0 0 0 2.813-2.808c0-1.55-1.26-2.808-2.813-2.808a2.811 2.811 0 0 0-2.813 2.808 2.81 2.81 0 0 0 2.813 2.808z"/><path fill="#E7F1FF" d="M71.394 185.238a2.81 2.81 0 0 0 2.813-2.808 2.81 2.81 0 0 0-2.813-2.808 2.81 2.81 0 0 0-2.813 2.808 2.81 2.81 0 0 0 2.813 2.808zM111.379 194.387a2.81 2.81 0 0 0 2.813-2.808 2.81 2.81 0 0 0-2.813-2.808 2.811 2.811 0 0 0-2.814 2.808 2.811 2.811 0 0 0 2.814 2.808zM102.086 179.969a2.81 2.81 0 0 0 2.813-2.808 2.81 2.81 0 0 0-2.813-2.808 2.81 2.81 0 0 0-2.814 2.808 2.81 2.81 0 0 0 2.814 2.808zM99.195 195.122a2.805 2.805 0 0 0 .282-3.961 2.817 2.817 0 0 0-3.968-.281 2.804 2.804 0 0 0-.282 3.961 2.817 2.817 0 0 0 3.968.281zM86.282 183.219a2.81 2.81 0 0 0 2.813-2.808 2.81 2.81 0 0 0-2.813-2.808 2.81 2.81 0 0 0-2.813 2.808 2.81 2.81 0 0 0 2.813 2.808z"/><path fill="#FFF1ED" d="M75.345 169.242a2.81 2.81 0 0 0 2.814-2.808 2.81 2.81 0 0 0-2.814-2.807 2.81 2.81 0 0 0-2.813 2.807 2.81 2.81 0 0 0 2.813 2.808z"/><path fill="#E7F1FF" d="M91.718 166.782a2.811 2.811 0 0 0 2.814-2.808 2.81 2.81 0 0 0-2.814-2.808 2.81 2.81 0 0 0-2.813 2.808c0 1.55 1.26 2.808 2.813 2.808zM80.181 152.774a2.811 2.811 0 0 0 2.814-2.808 2.81 2.81 0 0 0-2.814-2.808 2.81 2.81 0 0 0-2.813 2.808c0 1.55 1.26 2.808 2.813 2.808zM108.313 164.573a2.81 2.81 0 0 0 2.813-2.808 2.81 2.81 0 0 0-2.813-2.808 2.81 2.81 0 0 0-2.813 2.808 2.81 2.81 0 0 0 2.813 2.808z"/><path fill="#FFF1ED" d="M99.051 149.966a2.812 2.812 0 0 0 2.814-2.808 2.81 2.81 0 0 0-2.814-2.808 2.81 2.81 0 0 0-2.813 2.808c0 1.55 1.26 2.808 2.813 2.808zM86.66 135.611a2.81 2.81 0 0 0 2.814-2.808 2.81 2.81 0 0 0-2.813-2.808 2.81 2.81 0 0 0-2.813 2.808 2.81 2.81 0 0 0 2.813 2.808z"/><path fill="#E7F1FF" d="M71.395 129.711a2.726 2.726 0 0 1 1.138-.252 2.806 2.806 0 1 1 0 5.616 2.778 2.778 0 0 1-2.434-1.42M109.893 209.941a2.81 2.81 0 0 0 2.813-2.808 2.81 2.81 0 0 0-2.813-2.808 2.81 2.81 0 0 0-2.813 2.808 2.81 2.81 0 0 0 2.813 2.808zM97.805 210.992a2.804 2.804 0 0 0 .282-3.961 2.816 2.816 0 0 0-3.969-.282 2.804 2.804 0 0 0-.282 3.961 2.816 2.816 0 0 0 3.969.282zM96.383 224.779a2.804 2.804 0 0 0 .282-3.961 2.816 2.816 0 0 0-3.968-.282 2.804 2.804 0 0 0-.283 3.961 2.816 2.816 0 0 0 3.969.282zM81.351 213.853a2.81 2.81 0 0 0 2.813-2.808 2.81 2.81 0 0 0-2.813-2.808 2.81 2.81 0 0 0-2.813 2.808 2.81 2.81 0 0 0 2.813 2.808z"/><path fill="#FFF1ED" d="M79.802 228.429a2.81 2.81 0 0 0 2.814-2.808 2.81 2.81 0 0 0-2.814-2.808 2.81 2.81 0 0 0-2.813 2.808 2.81 2.81 0 0 0 2.813 2.808zM67.064 212.875a2.807 2.807 0 1 1 0 5.616"/><path fill="#E7F1FF" d="M67.855 195.239a2.806 2.806 0 1 1 0 5.616M108.566 225.495a2.81 2.81 0 0 0 2.813-2.808 2.81 2.81 0 0 0-2.813-2.808 2.81 2.81 0 0 0-2.813 2.808 2.81 2.81 0 0 0 2.813 2.808z"/><path fill="#FFF1ED" d="M150.447 193.283a2.81 2.81 0 0 0 2.813-2.808 2.81 2.81 0 0 0-2.813-2.808 2.81 2.81 0 0 0-2.813 2.808 2.81 2.81 0 0 0 2.813 2.808z"/><path fill="#E7F1FF" d="M139.226 179.243a2.81 2.81 0 0 0 2.813-2.807 2.81 2.81 0 0 0-2.813-2.808 2.81 2.81 0 0 0-2.813 2.808 2.81 2.81 0 0 0 2.813 2.807zM169.918 173.975a2.81 2.81 0 0 0 2.813-2.808 2.81 2.81 0 0 0-2.813-2.808 2.811 2.811 0 0 0-2.814 2.808 2.811 2.811 0 0 0 2.814 2.808zM165.145 189.844a2.81 2.81 0 0 0 2.813-2.808 2.81 2.81 0 0 0-2.813-2.808 2.81 2.81 0 0 0-2.813 2.808 2.81 2.81 0 0 0 2.813 2.808zM154.114 177.224a2.81 2.81 0 0 0 2.813-2.808 2.81 2.81 0 0 0-2.813-2.807 2.81 2.81 0 0 0-2.813 2.807 2.81 2.81 0 0 0 2.813 2.808z"/><path fill="#FFF1ED" d="M143.177 163.248a2.811 2.811 0 0 0 2.814-2.808 2.811 2.811 0 0 0-2.814-2.808 2.81 2.81 0 0 0-2.813 2.808 2.81 2.81 0 0 0 2.813 2.808z"/><path fill="#E7F1FF" d="M159.518 160.787a2.81 2.81 0 0 0 2.813-2.808 2.81 2.81 0 0 0-2.813-2.808 2.811 2.811 0 0 0-2.813 2.808 2.81 2.81 0 0 0 2.813 2.808zM147.981 146.779a2.81 2.81 0 0 0 2.813-2.808 2.81 2.81 0 0 0-2.813-2.808 2.81 2.81 0 0 0-2.813 2.808 2.81 2.81 0 0 0 2.813 2.808z"/><path fill="#FFF1ED" d="M177.757 203.946a2.81 2.81 0 0 0 2.813-2.807 2.81 2.81 0 0 0-2.813-2.808 2.811 2.811 0 0 0-2.814 2.808 2.81 2.81 0 0 0 2.814 2.807z"/><path fill="#E7F1FF" d="M163.755 205.713a2.81 2.81 0 0 0 2.813-2.808c0-1.55-1.26-2.808-2.813-2.808a2.812 2.812 0 0 0-2.814 2.808 2.811 2.811 0 0 0 2.814 2.808z"/><path fill="#FFF1ED" d="M162.332 219.5a2.81 2.81 0 0 0 2.813-2.808 2.81 2.81 0 0 0-2.813-2.807 2.81 2.81 0 0 0-2.813 2.807 2.81 2.81 0 0 0 2.813 2.808z"/><path fill="#E7F1FF" d="M149.182 207.859a2.81 2.81 0 0 0 2.813-2.808 2.81 2.81 0 0 0-2.813-2.808 2.81 2.81 0 0 0-2.813 2.808 2.81 2.81 0 0 0 2.813 2.808zM147.633 222.434a2.811 2.811 0 0 0 2.814-2.808 2.81 2.81 0 0 0-2.814-2.807 2.81 2.81 0 0 0-2.813 2.807 2.81 2.81 0 0 0 2.813 2.808zM134.864 212.528a2.81 2.81 0 0 0 2.813-2.808 2.81 2.81 0 0 0-2.813-2.808 2.81 2.81 0 0 0-2.813 2.808 2.81 2.81 0 0 0 2.813 2.808zM135.717 194.892a2.811 2.811 0 0 0 2.814-2.808 2.811 2.811 0 0 0-2.814-2.808 2.81 2.81 0 0 0-2.813 2.808 2.81 2.81 0 0 0 2.813 2.808zM176.397 219.5a2.81 2.81 0 0 0 2.813-2.808 2.81 2.81 0 0 0-2.813-2.807 2.81 2.81 0 0 0-2.813 2.807 2.81 2.81 0 0 0 2.813 2.808zM106.89 125.231a2.81 2.81 0 0 0 2.813-2.808 2.81 2.81 0 0 0-2.813-2.808 2.81 2.81 0 0 0-2.813 2.808 2.81 2.81 0 0 0 2.813 2.808z"/><path fill="#FFF1ED" d="M97.672 110.337a2.804 2.804 0 0 0-.219-3.965 2.817 2.817 0 0 0-3.972.219 2.804 2.804 0 0 0 .22 3.965 2.817 2.817 0 0 0 3.972-.219zM126.33 105.923a2.81 2.81 0 0 0 2.813-2.808 2.81 2.81 0 0 0-2.813-2.808 2.81 2.81 0 0 0-2.813 2.808 2.81 2.81 0 0 0 2.813 2.808z"/><path fill="#E7F1FF" d="M121.557 121.792a2.81 2.81 0 0 0 2.813-2.808 2.81 2.81 0 0 0-2.813-2.808 2.811 2.811 0 0 0-2.813 2.808 2.81 2.81 0 0 0 2.813 2.808zM110.526 109.173a2.81 2.81 0 0 0 2.813-2.808 2.81 2.81 0 0 0-2.813-2.808 2.81 2.81 0 0 0-2.813 2.808 2.81 2.81 0 0 0 2.813 2.808zM99.62 95.196a2.81 2.81 0 0 0 2.814-2.808 2.81 2.81 0 0 0-2.813-2.808 2.81 2.81 0 0 0-2.813 2.808 2.81 2.81 0 0 0 2.813 2.808zM134.169 135.895a2.81 2.81 0 0 0 2.813-2.808 2.81 2.81 0 0 0-2.813-2.808 2.811 2.811 0 0 0-2.814 2.808 2.811 2.811 0 0 0 2.814 2.808z"/><path fill="#FFF1ED" d="M152.028 127.503a2.806 2.806 0 0 1-1.737 2.594 2.821 2.821 0 0 1-3.066-.609 2.807 2.807 0 0 1 .427-4.32 2.81 2.81 0 0 1 1.563-.473"/><path fill="#E7F1FF" d="M137.677 116.807a2.81 2.81 0 0 0 2.814-2.807 2.811 2.811 0 0 0-2.814-2.808 2.81 2.81 0 0 0-2.813 2.808 2.81 2.81 0 0 0 2.813 2.807zM85.65 96.521a2.81 2.81 0 0 0 2.813-2.808 2.81 2.81 0 0 0-2.813-2.807 2.81 2.81 0 0 0-2.813 2.807 2.81 2.81 0 0 0 2.813 2.808z"/><path fill="#FFF1ED" d="M120.166 137.661a2.81 2.81 0 0 0 2.813-2.807 2.81 2.81 0 0 0-2.813-2.808 2.81 2.81 0 0 0-2.813 2.808 2.81 2.81 0 0 0 2.813 2.807z"/><path fill="#E7F1FF" d="M104.046 137.598a2.81 2.81 0 0 0 2.813-2.807 2.81 2.81 0 0 0-2.813-2.808 2.811 2.811 0 0 0-2.814 2.808 2.81 2.81 0 0 0 2.814 2.807zM126.33 165.551a2.81 2.81 0 0 0 2.813-2.808 2.81 2.81 0 0 0-2.813-2.808 2.81 2.81 0 0 0-2.813 2.808 2.81 2.81 0 0 0 2.813 2.808zM115.899 152.774a2.81 2.81 0 0 0 2.813-2.808 2.81 2.81 0 0 0-2.813-2.808 2.81 2.81 0 0 0-2.813 2.808 2.81 2.81 0 0 0 2.813 2.808zM81.825 118.89a2.81 2.81 0 0 0 2.813-2.808 2.81 2.81 0 0 0-2.813-2.808 2.81 2.81 0 0 0-2.813 2.808 2.81 2.81 0 0 0 2.813 2.808zM132.809 151.449a2.81 2.81 0 0 0 2.813-2.808 2.81 2.81 0 0 0-2.813-2.808 2.81 2.81 0 0 0-2.813 2.808c0 1.55 1.26 2.808 2.813 2.808z"/><path fill="#3C4043" d="M137.741 230.7a.946.946 0 0 1-.922-.725l-13.74-57.06-7.591-11.036v66.013c0 .251-.1.492-.277.67a.952.952 0 0 1-.671.277H66.843a.95.95 0 0 1-.948-.939l-.095-12.462.284-64.224c-.25-6.586 14.236-63.996 14.853-66.44a.946.946 0 0 1 1.188-.676l47.603 14.008a.946.946 0 0 1 .489.339l2.877 3.817 17.195 22.873 15.203 20.255a26.163 26.163 0 0 1 4.431 9.563l14.983 62.306a.95.95 0 0 1-.679 1.135l-46.243 12.273a.907.907 0 0 1-.243.033zm-23.264-72.91a.95.95 0 0 1 .782.41l9.482 13.787a.944.944 0 0 1 .14.316l13.555 56.287 44.41-11.786-14.767-61.412a24.268 24.268 0 0 0-4.109-8.872l-15.199-20.248-17.195-22.873-2.687-3.566-46.354-13.64c-5.268 20.895-14.771 60.08-14.555 64.961v.047l-.285 64.234.088 11.511h45.809v-66.613l-.063-1.558a.95.95 0 0 1 .576-.909.933.933 0 0 1 .372-.075v-.001z"/><path fill="#FFF1ED" d="M75.346 117.06a9.578 9.578 0 0 1-4.362 8.771 13.802 13.802 0 0 0-3.698 3.218c-4.078 5.331-5.153 4.858-6.702 4.637-3.603-.536 5.564-15.964 8.756-24.514"/><path fill="#3C4043" d="M61.65 134.744a6.494 6.494 0 0 1-.984-.088l-.217-.032a1.784 1.784 0 0 1-1.357-.941c-1.093-2.046 1.215-7.124 5.072-15.238 1.608-3.387 3.273-6.887 4.287-9.603a.947.947 0 0 1 1.22-.556.95.95 0 0 1 .557 1.218c-1.043 2.793-2.724 6.331-4.35 9.752-1.492 3.138-3.035 6.382-4.032 8.953-1.328 3.418-1.173 4.346-1.099 4.545l.206.032c1.142.175 2.043.313 5.578-4.31a14.833 14.833 0 0 1 3.935-3.439 8.67 8.67 0 0 0 3.933-7.909.946.946 0 0 1 .878-1.012.95.95 0 0 1 1.014.876 10.557 10.557 0 0 1-1.077 5.47 10.583 10.583 0 0 1-3.715 4.163 12.941 12.941 0 0 0-3.461 2.999c-3.256 4.259-4.829 5.12-6.387 5.12z"/><path fill="#FFED96" d="M40.039 67.654a19.873 19.873 0 0 1 3.437-13.16 19.938 19.938 0 0 1 11.102-7.884l38.12-10.474a31.931 31.931 0 0 1 16.879.568l9.957 3.123 33.505 14.544-15.583 33.821-8.092 10.822L85.27 85.73l-1.86-.536 2.556-15.46-7.277 1.2 4.72 14.26-8.038 31.594-29.326-38.913c-2.434-3.187-5.058-6.31-6.006-10.222z"/><path fill="#3C4043" d="M75.37 117.735a.945.945 0 0 1-.758-.379L45.287 78.445c-.225-.295-.456-.594-.687-.893-2.25-2.919-4.577-5.937-5.483-9.676a.995.995 0 0 1-.023-.132 20.795 20.795 0 0 1 3.595-13.79 20.862 20.862 0 0 1 11.635-8.255l38.123-10.475.031-.008a32.946 32.946 0 0 1 17.381.585l9.958 3.124c.032.01.064.021.095.034l33.505 14.544a.954.954 0 0 1 .507.53.946.946 0 0 1-.024.733l-15.583 33.82c-.028.06-.062.118-.101.171l-8.092 10.821a.946.946 0 0 1-1.034.34L84.996 86.636l-.908-.262-7.798 30.646a.945.945 0 0 1-.733.694.977.977 0 0 1-.186.021zM40.977 67.497c.822 3.318 2.914 6.03 5.127 8.9l.696.905 28.14 37.339 7.483-29.41-4.634-13.998a.945.945 0 0 1 .746-1.23l7.277-1.2a.95.95 0 0 1 1.057.644.944.944 0 0 1 .033.444L84.482 84.52l1.05.303 43.47 13.092 7.634-10.208 15.136-32.853-32.571-14.139-9.908-3.108a31.045 31.045 0 0 0-16.36-.554L54.83 47.523A18.968 18.968 0 0 0 44.27 55a18.906 18.906 0 0 0-3.294 12.497zm38.96 4.193l3.165 9.56 1.713-10.364-4.878.804z"/><path fill="#FFF1ED" d="M122.474 27.996l-6.006 10.411a8.936 8.936 0 0 0-.189 8.55l.348.663a8.893 8.893 0 0 0 12.074 3.66 9.109 9.109 0 0 0 3.414-3.25l4.014-6.657a13.274 13.274 0 0 0 8.811-3.084 13.229 13.229 0 0 0 4.591-8.116c.173-1.085.205-2.188.095-3.281a13.21 13.21 0 0 0-3.161-7.446 12.15 12.15 0 0 0 .853-3.06 22.44 22.44 0 0 0 0-4.606l-14.824-1.83-3.825 4.764-4.204-.158c-5.531-.19-8.534 6.342-4.804 10.411l2.813 3.03z"/><path fill="#3C4043" d="M124.487 53.292a9.893 9.893 0 0 1-2.88-.431 9.769 9.769 0 0 1-5.819-4.798l-.35-.666a9.844 9.844 0 0 1 .207-9.459l5.658-9.81-2.339-2.517a7.15 7.15 0 0 1 1.516-10.942 7.184 7.184 0 0 1 4.015-1.059l3.73.14 3.527-4.392a.95.95 0 0 1 .856-.347l14.824 1.83a.948.948 0 0 1 .827.84 23.255 23.255 0 0 1-.006 4.85 13.36 13.36 0 0 1-.7 2.747 14.07 14.07 0 0 1 3.015 7.53 13.62 13.62 0 0 1-.104 3.521 14.22 14.22 0 0 1-4.717 8.501 14.263 14.263 0 0 1-9.086 3.492l-3.736 6.196a10.12 10.12 0 0 1-3.772 3.593 9.873 9.873 0 0 1-4.666 1.18zm-.251-37.793a5.28 5.28 0 0 0-4.826 3.152 5.253 5.253 0 0 0 .95 5.678l2.809 3.024a.945.945 0 0 1 .127 1.116L117.29 38.88a7.958 7.958 0 0 0-.169 7.642l.345.659a7.947 7.947 0 0 0 4.712 3.874 7.954 7.954 0 0 0 6.074-.61 8.089 8.089 0 0 0 3.054-2.91l4.01-6.65a.944.944 0 0 1 .836-.458 12.35 12.35 0 0 0 8.176-2.87 12.311 12.311 0 0 0 4.266-7.53c.161-1.01.191-2.035.088-3.052a12.208 12.208 0 0 0-2.935-6.91.941.941 0 0 1-.152-.994c.384-.902.648-1.85.785-2.821.127-1.204.146-2.417.056-3.624l-13.533-1.672-3.494 4.352a.937.937 0 0 1-.776.354l-4.204-.158a4.969 4.969 0 0 0-.193-.003z"/><path fill="#fff" stroke="#3C4043" stroke-width="2" d="M147.518 12.358l-11.676-1.85h0-.006a5.172 5.172 0 0 0-3.816.925 5.161 5.161 0 0 0-2.063 3.34h0l-.001.008-.475 3.05c-.4-.768-.883-1.47-1.354-2.062-.79-1.019-1.828-2.12-3.191-2.725-.807-.364-1.641-.504-2.398-.586-.327-.036-.619-.06-.896-.083l-.361-.03.031-.222c.191-1.206.547-2.38 1.058-3.49h0c.133-.29.283-.57.45-.842l.01-.016.009-.017a13.244 13.244 0 0 1 6.011-5.548 13.275 13.275 0 0 1 15.276 3.028 13.206 13.206 0 0 1 3.392 7.12z"/><path fill="#3C4043" d="M135.813 20.677a1.389 1.389 0 1 0 0-2.777 1.39 1.39 0 0 0-1.391 1.389 1.39 1.39 0 0 0 1.391 1.388zM145.263 21.119a1.39 1.39 0 0 0 1.391-1.389 1.39 1.39 0 0 0-1.391-1.388 1.39 1.39 0 0 0-1.391 1.388 1.39 1.39 0 0 0 1.391 1.389zM136.382 42.351a15.433 15.433 0 0 1-2.157-.167 14.195 14.195 0 0 1-7.807-3.928.946.946 0 0 1 1.34-1.338 12.3 12.3 0 0 0 6.754 3.395c.619.092 1.243.14 1.869.145a.947.947 0 1 1 0 1.893h.001zM143.145 25.41c-.031 0-.063 0-.096-.006l-3.698-.378a.952.952 0 0 1-.812-.67.933.933 0 0 1 .074-.721.94.94 0 0 1 .563-.458.945.945 0 0 1 .368-.034l2.416.247-1.103-5.427a.949.949 0 0 1 .74-1.115.951.951 0 0 1 1.118.74l1.36 6.688a.942.942 0 0 1-.195.788.95.95 0 0 1-.735.347v-.002z"/><path fill="#FFF1ED" d="M122.474 27.996a7.436 7.436 0 0 1-1.865-.063 7.285 7.285 0 0 1-3.806-1.832 7.262 7.262 0 0 1-1.906-7.844 7.283 7.283 0 0 1 10.622-3.704 7.265 7.265 0 0 1 3.403 7.323"/><path fill="#3C4043" d="M121.826 28.976a9.164 9.164 0 0 1-1.359-.107 8.231 8.231 0 0 1-4.303-2.068 8.205 8.205 0 0 1-2.16-8.865 8.211 8.211 0 0 1 2.872-3.809 8.237 8.237 0 0 1 12.315 3.17 8.2 8.2 0 0 1 .667 4.72.929.929 0 0 1-.37.634.952.952 0 0 1-1.339-.203.95.95 0 0 1-.165-.714 6.309 6.309 0 0 0-2.957-6.371 6.338 6.338 0 0 0-9.241 3.22 6.307 6.307 0 0 0 1.659 6.823 6.336 6.336 0 0 0 3.311 1.593 6.468 6.468 0 0 0 1.617.056.948.948 0 1 1 .199 1.883 7.153 7.153 0 0 1-.746.038z"/><path fill="#3C4043" d="M120.578 23.674a.948.948 0 0 1-.493-1.756l2.076-1.253-3.528-1.62a.955.955 0 0 1-.493-.532.944.944 0 0 1 .56-1.216.954.954 0 0 1 .726.028l5.152 2.366a.95.95 0 0 1 .443 1.301.956.956 0 0 1-.348.368l-3.604 2.177a.945.945 0 0 1-.491.137zM143.525 28.974h-.011l-5.658-.063a.95.95 0 0 1-.943-.951.947.947 0 0 1 .954-.941h.105l5.563.063a.949.949 0 0 1 .943.951.943.943 0 0 1-.953.941z"/><path fill="#FFF1ED" d="M153.671 68.82c-9.134.979-14.982-9.243-9.166-16.184.095-.095.158-.19.253-.284 2.687-2.965 4.836-6.436 3.287-11.957-1.106-3.912-3.414-9.591.443-10.506 2.655-.63 5.626 5.9 7.997 10.632-.127-7.603-.285-17.573 3.255-17.825 3.54-.284 4.362 6.94 4.394 16.753 1.865-10.822 1.296-16.785 4.741-16.658 5.658.22 3.224 22.557.221 30.098l-1.58 4.89c-1.928 6.025-7.396 10.348-13.845 11.042z"/><path fill="#3C4043" d="M152.506 69.83a11.27 11.27 0 0 1-5.818-1.572 11.241 11.241 0 0 1-4.17-4.343 10.49 10.49 0 0 1 1.315-11.947c.026-.027.047-.053.069-.08.052-.063.104-.123.165-.185 2.825-3.123 4.425-6.2 3.064-11.053-.135-.475-.288-.98-.445-1.498-.915-3.01-1.951-6.422-.733-8.54a3.466 3.466 0 0 1 2.314-1.643c2.669-.636 5.001 3.117 7.226 7.455-.007-8.388.621-14.418 4.178-14.67a3.154 3.154 0 0 1 2.434.854c1.215 1.115 2.015 3.244 2.476 6.825.653-4.85 1.369-7.698 4.326-7.587.732.029 1.78.337 2.632 1.644 3.423 5.253 1.06 23.126-1.552 29.72l-1.57 4.86c-2.037 6.364-7.786 10.954-14.646 11.693-.42.044-.842.067-1.265.067zm-7.296-16.56a8.633 8.633 0 0 0-1.019 9.752c1.83 3.42 5.424 5.28 9.379 4.857 6.114-.658 11.233-4.736 13.042-10.389l1.581-4.893a.657.657 0 0 1 .021-.059c2.653-6.66 4.578-23.657 1.736-28.018-.442-.681-.848-.774-1.113-.784h-.052c-1.516 0-1.892 2.477-2.588 8.007-.287 2.277-.612 4.859-1.13 7.866a.945.945 0 0 1-1.014.784.949.949 0 0 1-.869-.941c-.018-5.72-.284-13.544-2.362-15.452a1.235 1.235 0 0 0-1.007-.36c-.992.07-1.768 2.008-2.136 5.317-.383 3.43-.311 7.743-.247 11.549a.945.945 0 0 1-.723.935.95.95 0 0 1-1.074-.496c-.196-.392-.396-.796-.6-1.208-1.618-3.261-4.627-9.328-6.329-8.928a1.601 1.601 0 0 0-1.108.745c-.81 1.408.139 4.535.903 7.048.161.53.318 1.046.456 1.535 1.696 6.049-.816 9.89-3.497 12.85l-.033.034c-.026.026-.047.053-.069.079a2.464 2.464 0 0 1-.148.17z"/><path fill="#FFED96" d="M154.146 119.363a18.29 18.29 0 0 1-12.916-5.344 18.224 18.224 0 0 1-5.354-12.892V56.99h36.508v44.137a18.19 18.19 0 0 1-5.329 12.895 18.264 18.264 0 0 1-12.909 5.341z"/><path fill="#3C4043" d="M154.146 120.309a19.256 19.256 0 0 1-13.583-5.624 19.186 19.186 0 0 1-5.635-13.558V56.99a.948.948 0 0 1 .948-.947h36.508a.95.95 0 0 1 .948.947v44.137a19.118 19.118 0 0 1-5.606 13.564 19.207 19.207 0 0 1-13.58 5.618zm-17.322-62.373v43.191a17.25 17.25 0 0 0 2.92 9.608 17.305 17.305 0 0 0 7.777 6.367 17.33 17.33 0 0 0 18.878-3.765 17.1 17.1 0 0 0 5.037-12.208V57.936h-34.612z"/></g><defs><clipPath id="clip0"><path fill="#fff" d="M0 0h185v259H0z" transform="translate(39)"/></clipPath></defs></svg>