<svg width="331" height="288" viewBox="0 0 331 288" fill="none" xmlns="http://www.w3.org/2000/svg">
<path d="M330.009 46.2875V45.2824H329.968L329.961 7H0V288H330.009L330.002 247.468H330.009V246.462H330.002L329.995 207.221H330.009V206.215H329.995L329.988 167.023H330.009V166.017H329.988L329.981 126.778H330.009V125.772H329.981L329.974 86.5323H330.009V85.5263H329.974L329.967 46.287L330.009 46.2875ZM328.958 8.10208V45.2824H289.762V8.10208H328.958ZM288.758 8.10208V45.2824H248.272V8.10208H288.758ZM164.813 126.779H205.778V166.018H164.813V126.779ZM163.81 166.018H122.845V126.779H163.81V166.018ZM164.813 125.773V86.5328H205.778V125.773H164.813ZM163.81 125.773H122.845V86.5328H163.81V125.773ZM121.841 125.773H80.8275V86.5328H121.84L121.841 125.773ZM121.841 126.779V166.018H80.8275V126.779H121.841ZM121.841 167.024V206.215H80.8275V167.024H121.841ZM122.845 167.024H163.81V206.215H122.845V167.024ZM164.813 167.024H205.778V206.215H164.813V167.024ZM206.781 167.024H247.268V206.215H206.781V167.024ZM206.781 166.018V126.779H247.268V166.018H206.781ZM206.781 125.773V86.5328H247.268V125.773H206.781ZM206.781 85.5268V46.2875H247.268V85.5268H206.781ZM205.778 85.5268H164.813V46.2875H205.778V85.5268ZM163.81 85.5268H122.845V46.2875H163.81V85.5268ZM121.841 85.5268H80.8275V46.2875H121.84L121.841 85.5268ZM79.8257 85.5268H38.8612V46.2875H79.8257V85.5268ZM79.8257 86.5328V125.773H38.8612V86.5328H79.8257ZM79.8257 126.779V166.018H38.8612V126.779H79.8257ZM79.8257 167.024V206.215H38.8612V167.024H79.8257ZM79.8257 207.222V246.461H38.8612V207.221L79.8257 207.222ZM80.8294 207.222H121.841V246.461H80.8275L80.8294 207.222ZM122.845 207.222H163.81V246.461H122.845V207.222ZM164.813 207.222H205.778V246.461H164.813V207.222ZM206.781 207.222H247.268V246.461H206.781V207.222ZM248.272 207.222H288.758V246.461H248.272V207.222ZM248.272 206.215V167.024H288.758V206.215H248.272ZM248.272 166.018V126.779H288.758V166.018H248.272ZM248.272 125.773V86.5328H288.758V125.773H248.272ZM248.272 85.5268V46.2875H288.758V85.5268H248.272ZM247.268 8.10208V45.2824H206.781V8.10208H247.268ZM205.778 8.10208V45.2824H164.813V8.10208H205.778ZM163.81 8.10208V45.2824H122.845V8.10208H163.81ZM121.841 8.10208V45.2824H80.8275V8.10208H121.841ZM79.8257 8.10208V45.2824H38.8612V8.10208H79.8257ZM1.05183 8.10208H37.8576V45.2824H1.05183V8.10208ZM1.05183 46.2875H37.8576V85.5268H1.05183V46.2875ZM1.05183 86.5328H37.8576V125.773H1.05183V86.5328ZM1.05183 126.779H37.8576V166.018H1.05183V126.779ZM1.05183 167.024H37.8576V206.215H1.05183V167.024ZM1.05183 207.222H37.8576V246.461H1.05183V207.222ZM1.05183 286.946V247.467H37.8576V286.946H1.05183ZM38.8612 286.946V247.467H79.8257V286.946H38.8612ZM80.8294 286.946V247.467H121.841V286.946H80.8294ZM122.845 286.946V247.467H163.81V286.946H122.845ZM164.813 286.946V247.467H205.778V286.946H164.813ZM206.781 286.946V247.467H247.268V286.946H206.781ZM248.272 286.946V247.467H288.758V286.946H248.272ZM328.959 286.946H289.762V247.467H328.958L328.959 286.946ZM328.959 246.461H289.762V207.221H328.958L328.959 246.461ZM328.959 206.216H289.762V167.024H328.958L328.959 206.216ZM328.959 166.018H289.762V126.779H328.958L328.959 166.018ZM328.959 125.773H289.762V86.5328H328.958L328.959 125.773ZM328.959 85.5272H289.762V46.2875H328.958L328.959 85.5272Z" fill="#E7F1FF"/>
<path d="M311.711 157.852C311.503 157.809 311.279 157.777 311.051 157.744L310.419 157.646C309.421 157.519 308.423 157.392 307.423 157.272C306.411 157.247 305.399 157.226 304.387 157.21C303.399 156.987 302.41 156.768 301.421 156.555L298.408 156.355L295.406 156.035L292.37 156.014L289.385 155.501L286.349 155.511L283.347 155.215L280.351 154.84L277.332 154.799L274.33 154.505L271.319 154.361L268.303 154.27L265.322 154.122L262.315 153.948L259.305 153.654L256.296 153.487L253.29 153.279L250.292 152.935L247.282 152.776L244.26 152.821L241.254 152.609L238.248 152.405L235.252 152.04L232.244 151.844L229.233 151.711C228.231 151.608 227.241 151.498 226.222 151.402C225.184 151.441 224.149 151.541 223.123 151.702C222.08 151.74 221.043 151.877 220.026 152.11C219.036 152.398 218.091 152.718 217.134 153.023L214.197 153.704L211.326 154.612L209.89 155.063L208.463 155.544C207.789 155.761 207.083 155.881 206.455 156.252C206.353 156.312 205.743 156.484 205.833 156.776C205.844 156.807 205.86 156.836 205.882 156.862H205.861L205.905 156.961H205.852C205.653 156.93 205.45 156.959 205.269 157.045C205.009 157.193 205.1 157.541 205.079 157.676L205.036 157.991C205.001 158.242 204.984 158.495 204.984 158.749C204.986 159.029 205.025 159.308 205.1 159.578C205.125 159.67 205.156 159.76 205.193 159.847L205.233 159.948L205.334 160.166C205.368 160.233 205.404 160.291 205.44 160.353C205.507 160.478 205.582 160.599 205.664 160.716C205.749 160.832 205.827 160.954 205.924 161.062C206.02 161.171 206.113 161.283 206.22 161.386C206.64 161.795 207.14 162.118 207.688 162.335C208.742 162.829 209.859 162.962 210.895 163.046L212.413 162.971L213.914 162.91C214.914 162.987 215.914 163.071 216.914 163.162L219.931 163.074L222.941 163.411L225.956 163.4L228.969 163.464L231.983 163.523L234.992 163.675L238.013 163.488L241.013 163.93L244.032 163.817L247.045 163.853L250.051 164.076L253.062 164.197L256.066 164.442L259.083 164.429L262.098 164.471L265.098 164.807H268.115L271.115 165.141L274.14 165.038L277.129 165.446L280.146 165.463L283.133 165.955L286.169 165.777L289.169 166.069L292.157 166.541L295.178 166.516L298.18 166.784C299.18 166.919 300.199 167.052 301.252 167.113C302.316 167.009 303.367 166.794 304.385 166.471C306.506 166.01 308.446 164.952 309.969 163.424C310.667 162.594 311.214 161.651 311.586 160.637L311.747 160.263L311.827 160.076L311.892 159.889C312.023 159.473 312.13 159.051 312.21 158.623C312.254 158.41 312.311 158.183 312.345 157.972L311.711 157.852Z" fill="#07377F"/>
<path d="M312.931 159.029C312.907 158.945 312.948 158.482 312.607 158.466H312.564H312.545H312.5C312.467 158.464 312.436 158.452 312.412 158.431C312.388 158.41 312.373 158.382 312.368 158.351C312.367 158.337 312.367 158.323 312.368 158.31C312.353 158.287 312.336 158.266 312.317 158.246L312.278 158.201L312.227 158.14C312.18 158.078 312.12 158.026 312.051 157.986C311.798 157.851 311.659 158.118 311.579 158.174L310.327 158.971C309.663 159.347 309.003 159.712 308.337 160.099L308.051 160.24C307.931 160.297 307.817 160.364 307.71 160.441C307.279 160.724 306.801 160.993 306.317 161.269C305.73 161.745 305.142 162.228 304.554 162.745C303.865 163.181 303.223 163.68 302.634 164.235C302.359 164.588 302.127 164.972 301.945 165.378C301.847 165.606 301.776 165.843 301.731 166.086C301.709 166.21 301.696 166.336 301.69 166.462V166.738L301.199 168.926L301.097 171.124L300.938 173.325L300.795 175.526L300.566 177.721L300.719 179.938L300.196 182.111L300.272 184.323L300.198 186.535L299.919 188.72L299.749 190.915L299.445 193.097L299.416 195.3L299.324 197.498L298.901 199.667C298.884 200.401 298.86 201.135 298.83 201.868C298.687 202.589 298.544 203.311 298.389 204.029L298.409 206.243L297.876 208.404C297.843 209.144 297.816 209.887 297.802 210.631C297.616 211.36 297.443 212.095 297.289 212.841C297.383 213.593 297.5 214.356 297.643 215.096C297.614 215.848 297.618 216.6 297.643 217.351C297.608 218.103 297.594 218.855 297.58 219.607C297.753 220.328 297.925 221.042 298.084 221.755C298.137 222.476 298.172 223.192 298.176 223.901C298.117 224.587 298.005 225.269 297.841 225.94C297.876 226.654 297.874 227.4 297.896 228.159C297.857 228.409 297.821 228.653 297.788 228.911C297.775 229.071 297.775 229.232 297.788 229.392C297.788 229.525 297.806 229.653 297.817 229.779L297.892 230.531L297.966 231.638L298.006 232.202L298.102 233.196L298.152 233.53V233.572C298.152 233.572 298.188 233.572 298.205 233.56L298.321 233.526L298.55 233.461C298.652 233.419 298.642 233.461 298.666 233.487L298.721 233.562L298.818 233.701C298.92 233.842 299.006 233.993 299.073 234.152C299.228 234.236 299.388 234.309 299.553 234.372C299.644 234.423 299.731 234.479 299.814 234.541L301.058 233.564C301.167 233.481 301.275 233.385 301.375 233.301L301.571 233.147L301.951 232.839C302.229 232.572 302.497 232.299 302.772 232.029L303.555 231.2C303.989 230.573 304.409 229.941 304.817 229.304C305.404 228.813 305.992 228.313 306.568 227.815L307.91 226.036C308.4 225.479 308.894 224.931 309.393 224.391C309.606 224.092 309.814 223.786 310.033 223.493L310.362 223.049L310.541 222.809C310.62 222.703 310.692 222.591 310.756 222.476C311.038 222.104 311.251 221.686 311.383 221.243C311.511 220.848 311.609 220.445 311.677 220.037C311.632 219.24 311.506 218.492 311.408 217.782C311.408 217.415 311.438 217.105 311.467 216.718L311.54 215.607C311.616 214.869 311.683 214.13 311.745 213.394L311.573 211.193C311.61 210.46 311.649 209.738 311.702 209.004L311.698 206.788L311.64 204.585V202.385L311.673 200.184L311.826 197.987L311.851 195.786C311.875 195.054 311.894 194.321 311.93 193.588L312.168 191.393L312.214 189.192L312.045 186.986L312.145 184.787L312.237 182.588L312.482 180.395L312.558 178.194L312.57 175.992L312.766 173.795L312.537 171.585L312.719 169.388L312.699 167.184L312.919 164.989C312.919 164.254 312.938 163.521 312.932 162.786V160.583C312.944 160.067 313.079 159.552 312.931 159.029Z" fill="#07377F"/>
<path d="M303.134 173.71C302.979 172.243 302.967 170.731 302.945 169.206C303.005 168.449 303.064 167.681 303.1 166.908C303.119 166.522 303.131 166.134 303.136 165.745C303.136 165.531 303.136 165.423 303.136 165.018L303.117 164.499V164.238V164.108C303.117 164.089 303.117 164.057 303.108 164.049H303.043L302.003 163.97C301.8 163.952 301.737 163.954 301.634 163.947L301.344 163.934C300.964 163.918 300.573 163.903 300.188 163.896C299.417 163.877 298.649 163.869 297.884 163.867C296.365 163.742 294.835 163.635 293.327 163.489C291.825 163.453 290.289 163.362 288.77 163.3L284.185 162.953C282.665 162.753 281.165 162.543 279.627 162.35C278.086 162.251 276.548 162.208 275.019 162.174C273.491 162.14 271.968 162.14 270.452 162.096C268.933 162.121 267.414 162.096 265.911 162.018L261.353 161.473C259.841 161.245 258.327 161.024 256.812 160.809L252.254 160.344L247.663 160.224L243.106 159.657L238.522 159.483L233.965 159.07L229.397 158.841L224.828 158.529L220.26 158.198L215.703 157.726C214.184 157.615 212.665 157.463 211.127 157.367C209.568 157.264 208.004 157.27 206.446 157.386L206.154 157.424L206.066 157.435L205.933 157.454C205.846 157.469 205.761 157.49 205.677 157.518C205.512 157.571 205.361 157.659 205.233 157.776C205.105 157.892 205.004 158.035 204.937 158.194C204.903 158.266 204.873 158.34 204.847 158.415L204.792 158.57C204.752 158.673 204.728 158.779 204.699 158.885C204.669 158.989 204.644 159.095 204.625 159.203C204.604 159.308 204.583 159.414 204.572 159.522C204.452 160.38 204.555 161.191 204.629 161.935C204.64 162.314 204.644 162.675 204.629 163.029C204.629 163.218 204.599 163.372 204.58 163.563L204.511 164.13C204.424 164.887 204.348 165.644 204.278 166.415C204.109 167.928 203.968 169.456 203.824 170.971L203.71 173.242L203.606 175.525L203.457 180.093L203.114 184.65C203.114 184.65 203.102 185.785 203.091 186.936C203.08 188.086 203.091 189.222 203.091 189.222C203.072 189.462 203.049 189.701 203.032 189.941L202.968 190.66L202.869 191.796C202.844 192.064 202.668 193.461 203.438 193.499V193.535L203.402 193.563C203.332 193.623 203.268 193.69 203.212 193.764C203.099 193.941 203.04 194.146 203.042 194.356C202.992 195.516 202.985 196.684 202.954 197.846L202.791 202.416L202.664 206.982L202.546 209.265C202.51 210.022 202.457 210.778 202.44 211.554C202.39 213.091 202.428 214.613 202.314 216.096C202.303 216.475 202.274 216.838 202.244 217.207C202.214 217.576 202.161 217.928 202.104 218.316C201.993 219.083 201.914 219.853 201.866 220.625C201.725 222.163 201.68 223.708 201.731 225.252C201.756 225.621 201.783 225.99 201.815 226.357L201.868 226.908L201.95 227.699L202.48 227.676L202.612 227.663C202.658 227.663 202.7 227.663 202.743 227.663H202.774C202.774 227.663 202.774 227.685 202.774 227.697L202.707 228.005L202.673 228.158V228.177H202.762L202.988 228.187L203.505 228.217L204.549 228.293C206.068 228.429 207.587 228.582 209.106 228.736L213.663 229.258L215.942 229.434C216.701 229.489 217.461 229.551 218.247 229.589C219.772 229.715 221.298 229.827 222.825 229.924L227.405 230.17L231.987 230.24C233.506 230.337 235.028 230.442 236.553 230.554C238.072 230.62 239.595 230.694 241.12 230.778C242.645 230.861 244.168 230.946 245.688 231.033C247.207 231.191 248.726 231.355 250.246 231.527L254.816 231.788L259.384 232.102C260.903 232.314 262.422 232.528 263.942 232.708C265.461 232.838 266.995 232.952 268.521 233.056L273.111 233.113L277.668 233.616L282.261 233.715C283.78 233.798 285.282 233.928 286.795 234.108L291.352 234.666C292.871 234.878 294.404 235.064 295.953 235.166C296.333 235.176 296.73 235.191 297.119 235.194C297.508 235.198 297.898 235.194 298.289 235.183L299.303 235.143L299.578 235.132H299.646C299.663 235.132 299.658 235.121 299.66 235.111V235.081L299.671 234.96L299.713 234.473L299.84 233.005C299.887 231.476 299.912 229.946 299.914 228.416C299.977 226.891 300.02 225.363 300.03 223.836C300.089 223.079 300.136 222.309 300.18 221.543C300.224 220.776 300.256 220.046 300.355 219.311C300.374 217.837 300.544 216.333 300.685 214.809C300.797 214.052 300.901 213.295 300.977 212.518C301.053 211.74 301.089 210.981 301.143 210.222L301.632 205.68L301.737 201.114L301.87 196.546L302.417 192.004L302.443 187.436C302.599 185.922 302.764 184.408 302.937 182.894L303.041 180.61C303.072 179.839 303.083 179.067 303.074 178.297C303.128 177.527 303.162 176.757 303.174 175.984C303.182 175.598 303.182 175.212 303.174 174.824L303.134 173.71Z" fill="#85B7FE"/>
<path d="M262.316 183.554C262.233 182.987 262.117 182.426 261.969 181.873C261.908 181.292 261.808 180.716 261.672 180.148C261.225 179.055 260.594 178.049 259.806 177.176C259.581 176.984 259.354 176.792 259.125 176.622C258.895 176.451 258.657 176.279 258.411 176.129C258.195 175.937 257.99 175.746 257.761 175.577C257.532 175.408 257.312 175.226 257.073 175.073C256.963 174.981 256.854 174.881 256.742 174.797L256.392 174.527C256.162 174.349 255.914 174.199 255.668 174.04C255.422 173.881 255.14 173.802 254.876 173.684C254.613 173.565 254.331 173.492 254.058 173.385C253.763 173.362 253.473 173.329 253.181 173.318C252.889 173.306 252.602 173.296 252.312 173.318C252.033 173.25 251.753 173.176 251.467 173.126L251.037 173.055C250.893 173.036 250.749 173.02 250.605 173.005C250.04 173.084 249.48 173.198 248.929 173.346C248.372 173.402 247.819 173.484 247.274 173.582C246.742 173.741 246.221 173.915 245.705 174.096C245.19 174.276 244.656 174.406 244.13 174.59C243.593 174.766 243.067 174.975 242.556 175.217C242.001 175.417 241.468 175.674 240.965 175.983C240.491 176.342 240.052 176.745 239.654 177.187C239.278 177.62 238.926 178.074 238.599 178.546C238.468 178.799 238.345 179.052 238.22 179.313L237.872 180.047L236.817 181.289C236.417 181.711 236.045 182.159 235.703 182.63C235.558 182.91 235.431 183.199 235.324 183.496C235.265 183.658 235.217 183.824 235.18 183.993C235.137 184.177 235.111 184.364 235.101 184.552C235.097 184.603 235.097 184.655 235.101 184.706L235.116 184.874C235.116 184.94 235.126 185.005 235.139 185.066L235.192 185.258C235.275 185.503 235.412 185.726 235.593 185.909C235.857 186.161 236.163 186.364 236.497 186.509C237.01 186.808 237.548 187.06 238.105 187.264C238.105 187.264 238.527 187.337 238.942 187.391L239.766 187.491C239.927 187.554 240.088 187.621 240.247 187.682L240.626 187.824C240.726 187.878 240.842 187.891 240.952 187.862C241.094 187.813 241.251 187.652 241.389 187.224V187.215H241.417C241.474 187.225 241.531 187.231 241.588 187.232C241.631 187.234 241.675 187.224 241.714 187.205C241.753 187.185 241.786 187.157 241.811 187.121C242.054 186.787 242.264 186.433 242.508 186.105C242.671 185.892 242.838 185.683 243.012 185.48C243.186 185.277 243.347 185.066 243.522 184.869C243.856 184.464 244.215 184.08 244.596 183.719C244.996 183.39 245.425 183.098 245.878 182.849C246.101 182.733 246.33 182.628 246.563 182.536C246.794 182.451 247.03 182.381 247.27 182.325C247.73 182.145 248.21 182.021 248.7 181.955C249.19 181.944 249.679 181.999 250.155 182.118C250.626 182.171 251.086 182.3 251.516 182.502C251.921 182.719 252.273 183.025 252.547 183.397C252.795 183.783 252.952 184.221 253.005 184.679C253.039 184.792 253.056 184.911 253.083 185.028C253.109 185.145 253.117 185.267 253.126 185.392C253.126 185.651 253.16 185.913 253.157 186.174C253.1 186.429 253.068 186.688 252.988 186.94L252.882 187.312C252.846 187.435 252.795 187.554 252.751 187.673C252.584 188.151 252.373 188.613 252.119 189.051C251.911 189.515 251.662 189.96 251.374 190.379C251.019 190.748 250.635 191.087 250.225 191.393C249.849 191.74 249.453 192.065 249.039 192.364C248.833 192.52 248.63 192.679 248.412 192.821C248.194 192.962 247.982 193.112 247.76 193.25C247.283 193.461 246.766 193.662 246.259 193.884C245.804 194.206 245.346 194.545 244.906 194.919C244.455 195.288 244.037 195.698 243.66 196.144C243.176 196.516 242.747 196.956 242.383 197.449C242.302 197.583 242.229 197.722 242.164 197.865C242.099 198.005 242.025 198.154 241.974 198.285C241.864 198.553 241.762 198.827 241.671 199.103C241.586 199.681 241.54 200.263 241.533 200.847C241.338 201.398 241.179 201.96 241.056 202.532C241.08 202.825 241.114 203.107 241.158 203.404C241.183 203.548 241.202 203.691 241.23 203.835C241.258 203.979 241.275 204.092 241.336 204.339L241.38 204.669C241.398 204.777 241.445 204.878 241.514 204.962C241.654 205.133 241.83 205.269 242.029 205.361C242.128 205.407 242.241 205.456 242.336 205.489C242.431 205.522 242.486 205.541 242.558 205.562C242.703 205.608 242.847 205.644 242.988 205.677C243.537 205.805 244.092 205.904 244.651 205.974C245.194 206.091 245.74 206.192 246.285 206.282C246.833 206.328 247.38 206.365 247.927 206.392C248.478 206.319 249.026 206.244 249.573 206.152L250.395 206.118L250.808 206.095L251.035 206.081L251.361 206.058C251.59 206.066 251.82 206.061 252.049 206.045H252.139C252.168 206.045 252.21 206.045 252.21 206.016L252.266 205.867L252.384 205.556C252.448 205.334 252.522 205.088 252.573 204.849C252.617 204.696 252.66 204.556 252.696 204.412C252.653 203.822 252.571 203.262 252.507 202.731C252.523 202.216 252.58 201.704 252.677 201.198C252.759 200.97 252.858 200.748 252.973 200.535C253.085 200.329 253.212 200.132 253.352 199.944C253.502 199.506 253.728 199.098 254.018 198.739C254.355 198.364 254.731 198.028 255.14 197.736C255.641 197.556 256.166 197.392 256.702 197.192C257.15 196.819 257.569 196.413 257.958 195.977C258.206 195.824 258.433 195.644 258.67 195.469C258.907 195.295 259.125 195.097 259.331 194.894C259.667 194.42 259.964 193.918 260.219 193.394C260.59 192.947 260.929 192.474 261.234 191.979C261.387 191.419 261.504 190.85 261.587 190.275C261.813 189.751 262.01 189.214 262.178 188.667C262.239 188.1 262.271 187.529 262.272 186.958C262.409 186.398 262.516 185.831 262.593 185.26C262.531 184.686 262.439 184.117 262.316 183.554Z" fill="#FFDA2D"/>
<path d="M252.773 211.679C252.631 211.495 252.466 211.331 252.282 211.19C252.211 211.013 252.125 210.842 252.025 210.68C251.945 210.504 251.853 210.335 251.748 210.173C251.59 210.071 251.426 209.979 251.255 209.899C251.144 209.745 251.024 209.6 250.895 209.462C250.742 209.365 250.585 209.276 250.423 209.195C250.232 209.198 250.04 209.211 249.85 209.234C249.729 209.076 249.599 208.925 249.46 208.776C249.287 208.757 249.117 208.747 248.95 208.739C248.79 208.691 248.632 208.648 248.472 208.607C248.299 208.652 248.13 208.702 247.964 208.753C247.818 208.654 247.672 208.558 247.522 208.453C247.354 208.51 247.188 208.564 247.023 208.626C246.865 208.589 246.707 208.555 246.547 208.525C246.389 208.463 246.226 208.41 246.062 208.356C245.896 208.402 245.731 208.461 245.569 208.512C245.401 208.492 245.234 208.473 245.062 208.461C244.895 208.5 244.731 208.529 244.564 208.582C244.396 208.634 244.24 208.706 244.082 208.776C243.919 208.833 243.759 208.898 243.603 208.971C243.441 209.03 243.287 209.113 243.131 209.186C242.975 209.258 242.792 209.293 242.629 209.371C242.481 209.473 242.341 209.585 242.21 209.708C242.139 209.764 242.067 209.817 242.001 209.877L241.806 210.072C241.647 210.171 241.496 210.283 241.354 210.405L241.212 210.639L241.087 210.878C241.06 211.065 241.046 211.253 241.044 211.441C240.972 211.595 240.914 211.753 240.849 211.909C240.785 212.065 240.75 212.226 240.711 212.386C240.627 212.534 240.551 212.688 240.479 212.842C240.45 213.006 240.432 213.167 240.417 213.331C240.401 213.495 240.417 213.658 240.434 213.82C240.395 213.978 240.366 214.135 240.335 214.293L240.555 214.774C240.53 214.932 240.508 215.096 240.495 215.261C240.53 215.425 240.567 215.589 240.616 215.752C240.584 215.93 240.595 216.112 240.646 216.285C240.697 216.458 240.787 216.617 240.91 216.75C241.011 216.897 241.128 217.034 241.259 217.157C241.346 217.24 241.389 217.377 241.549 217.381C241.574 217.381 241.646 217.461 241.775 217.307C241.791 217.287 241.8 217.272 241.812 217.256L241.781 217.291C241.672 217.413 241.572 217.543 241.485 217.681C241.376 217.876 241.51 217.813 241.529 217.825C241.549 217.837 241.604 217.876 241.68 217.92C241.73 217.95 241.784 217.975 241.839 217.994C241.985 218.092 242.136 218.179 242.286 218.257C242.406 218.396 242.533 218.524 242.662 218.647C242.835 218.672 243.005 218.686 243.172 218.698C243.303 218.811 243.443 218.914 243.581 219.023C243.757 219.023 243.928 219.023 244.102 219.023C244.241 219.144 244.386 219.261 244.538 219.374C244.71 219.383 244.883 219.387 245.055 219.387C245.226 219.387 245.394 219.42 245.561 219.428C245.729 219.436 245.9 219.428 246.068 219.428C246.235 219.428 246.403 219.471 246.571 219.485C246.736 219.393 246.894 219.29 247.048 219.192C247.216 219.284 247.387 219.377 247.561 219.463C247.716 219.379 247.864 219.292 248.015 219.204L248.472 219.064C248.634 219.064 248.8 219.077 248.971 219.076C249.137 219.04 249.305 219 249.478 218.947C249.67 218.931 249.86 218.9 250.047 218.855C250.214 218.731 250.369 218.591 250.511 218.439C250.658 218.297 250.789 218.14 250.9 217.969C251.078 217.863 251.245 217.741 251.399 217.603C251.46 217.417 251.506 217.227 251.536 217.034C251.655 216.892 251.77 216.74 251.871 216.59C251.846 216.395 251.809 216.214 251.768 216.039L252.083 215.626L252.037 215.146L252.413 214.757L252.181 214.235L252.376 213.806C252.489 213.676 252.604 213.539 252.717 213.389C252.68 213.21 252.639 213.027 252.588 212.842C252.627 212.66 252.653 212.476 252.666 212.291C252.724 212.091 252.76 211.886 252.773 211.679Z" fill="#FFDA2D"/>
<path d="M186.148 152.842C185.865 153.474 186.073 153.067 186.086 153.052L186.274 152.887L186.396 152.97L186.265 153.596L186.563 153.277L186.471 153.815L186.804 153.45L186.616 154.173L186.847 154.026L187.001 154.039H187.164L187.238 154.249L187.717 153.588L187.45 154.477L187.844 153.995L188.072 153.863L188.083 154.173L188.224 154.215V154.545L188.535 154.249L188.789 154.06L188.705 154.562L189.016 154.249L188.952 154.708L189.396 154.139L189.264 154.732L189.584 154.439L189.364 155.196L189.927 154.412L189.952 154.689L189.779 155.354L190.179 154.888L190.25 155.077L190.17 155.556L190.692 154.855L190.782 154.999L190.767 155.346L191.049 155.121L190.972 155.575L191.075 155.691L191.522 155.147L191.242 156L191.479 155.861L191.556 156.03L191.967 155.56L191.779 156.225L192.193 155.755L192.23 155.998L192.155 156.451L192.48 156.144L192.493 156.43L192.681 156.375L192.938 156.204L193.126 156.157L193.284 156.174L193.305 156.443H193.47L193.586 156.536L193.545 156.915L193.72 156.9L194.129 156.456L194.244 156.553L194.366 156.636L194.311 157.038L194.445 157.101C194.51 157.083 194.586 157.047 194.653 157.025L194.672 157.294L195.136 156.763L195.157 157.027L195.391 156.921L195.369 157.258L195.566 157.207L195.754 157.167C195.799 157.157 195.688 157.423 195.912 157.099C195.947 157.046 195.942 157.121 196.349 156.403L196.537 156.07L196.864 155.481L197.082 155.113C197.102 155.08 197.118 155.045 197.129 155.009C197.112 154.96 197.022 155.043 196.973 155.053L196.847 154.971L196.659 155.011V154.717L196.702 154.338L196.481 154.427L196.492 154.098L196.265 154.196C196.216 154.18 196.165 154.167 196.115 154.158L196.045 153.969L195.709 154.268L195.741 153.901L195.726 153.616L195.461 153.787L195.529 153.351L195.363 153.34L195.162 153.395L195.258 152.902L194.924 153.202L194.616 153.457L194.773 152.847C194.743 152.798 194.71 152.753 194.68 152.703L194.206 153.272L194.409 152.574L194.005 153.014L193.906 152.881L193.821 152.72L193.894 152.258L193.804 152.105L193.325 152.635H193.16L193.455 151.745L192.991 152.313L192.891 152.178L193.079 151.502L192.704 151.917L192.384 152.209L192.672 151.32L192.181 151.947L192.3 151.379L191.954 151.728L192.142 151.04L191.642 151.692L191.74 151.167L191.396 151.513L191.569 150.833L191.223 151.186H191.054L191.259 150.39L191.113 150.346L190.913 150.409L190.425 151.057L190.339 150.89L190.508 150.233L190.438 150.03L189.916 150.754L190.079 150.076L189.704 150.494V150.153L189.45 150.343L189.306 150.271L189.195 150.153L189.292 149.602L189.2 149.445L189.065 149.378L188.616 149.971L188.629 149.592L188.77 148.941L188.594 148.962C188.507 149.028 188.406 149.107 188.325 149.179L188.344 148.783L187.923 149.323L187.972 149.104L188.011 148.931C188.011 148.91 188.057 148.789 187.931 149.03C187.805 149.27 187.512 149.873 186.851 151.303L186.148 152.842Z" fill="#FFBCA5"/>
<path d="M192.205 139.26C191.635 139.643 192.015 139.427 192.026 139.427L192.127 139.438C192.154 139.443 192.182 139.443 192.209 139.438H192.253L192.359 139.601L191.979 140.083L192.45 140.01L192.137 140.448L192.625 140.36L192.14 140.913L192.435 140.953L192.586 141.088L192.753 141.211L192.732 141.461L193.493 141.188L192.867 141.85L193.46 141.681L193.746 141.721L193.637 142.033L193.767 142.18L193.641 142.505L194.075 142.438H194.408L194.132 142.873L194.567 142.802L194.314 143.215L194.984 142.972L194.632 143.465L195.079 143.379L194.577 143.98L195.44 143.597L195.37 143.89L194.959 144.439L195.543 144.247L195.558 144.479L195.311 144.898L196.098 144.553L196.148 144.745L196.019 145.087L196.399 145.045L196.175 145.462L196.251 145.653L196.901 145.391L196.331 146.081L196.631 146.093L196.663 146.314L197.251 146.095L196.857 146.668L197.445 146.444L197.42 146.714L197.213 147.127L197.649 147.024L197.593 147.324L197.825 147.385L198.155 147.366L198.373 147.435L198.537 147.55L198.487 147.844L198.666 147.946L198.767 148.114L198.62 148.496L198.811 148.586L199.381 148.357L199.478 148.529C199.514 148.582 199.554 148.634 199.592 148.686L199.429 149.085L199.562 149.227L199.807 149.269L199.746 149.582L200.406 149.253L200.365 149.55H200.661C200.625 149.67 200.59 149.788 200.559 149.904L200.798 149.946L201.028 149.995C201.074 150.016 200.92 150.217 201.255 149.972C201.308 149.932 201.3 149.995 201.892 149.45L202.158 149.187L202.639 148.733C202.776 148.616 202.903 148.488 203.02 148.351C203.029 148.276 202.942 148.294 202.877 148.288L202.759 148.142L202.535 148.095L202.605 147.779L202.757 147.397L202.491 147.387C202.525 147.274 202.561 147.158 202.59 147.051L202.299 147.06L202.133 146.959L202.107 146.735L201.658 146.88L201.791 146.519L201.846 146.226L201.508 146.272L201.698 145.865L201.521 145.773L201.287 145.729L201.523 145.288L201.082 145.418L200.68 145.511L201.017 144.987L200.96 144.796L200.298 145.1L200.72 144.515L200.161 144.725L200.098 144.534L200.06 144.326L200.285 143.907L200.243 143.704L199.608 143.98L199.436 143.878L200.034 143.171L199.366 143.46L199.307 143.268L199.724 142.712L199.187 142.903L198.759 142.999L199.364 142.305L198.641 142.622L198.961 142.148L198.484 142.276L198.917 141.721L198.164 142.033L198.455 141.588L197.98 141.71L198.409 141.165L197.93 141.287L197.761 141.182L198.291 140.57L198.162 140.436L197.94 140.369L197.213 140.668L197.194 140.454L197.612 139.934L197.626 139.7L196.819 140.037L197.257 139.509L196.72 139.654L196.859 139.335H196.528L196.416 139.188L196.359 138.997L196.688 138.553L196.667 138.346L196.566 138.193L195.882 138.434L196.062 138.094L196.486 137.597C196.427 137.565 196.37 137.529 196.315 137.49H195.984L196.218 137.121L195.581 137.312C195.634 137.255 195.695 137.193 195.729 137.147L195.825 137.033C195.836 137.019 195.922 136.945 195.68 137.079L195.433 137.224L195.024 137.474L193.59 138.377C192.873 138.817 192.458 139.098 192.205 139.26Z" fill="#FFBCA5"/>
<path d="M205.675 137.848C205.044 137.991 205.455 137.916 205.47 137.916L205.561 137.929C205.601 137.929 205.672 137.929 205.668 137.939L205.688 138.036L205.173 138.25L205.588 138.264L205.159 138.462H205.603L204.984 138.697L205.209 138.75L205.275 138.837L205.36 138.92L205.24 139.049L205.959 138.996L205.183 139.265L205.727 139.249L205.938 139.306L205.722 139.455L205.762 139.548L205.525 139.7L205.896 139.722L206.157 139.767L205.755 139.965L206.126 139.987L205.766 140.167L206.394 140.133L205.907 140.331L206.294 140.351L205.64 140.594L206.481 140.515L206.296 140.657L205.74 140.879L206.274 140.865L206.183 140.986L205.812 141.17L206.572 141.108L206.518 141.221L206.268 141.377L206.57 141.415L206.214 141.593L206.189 141.7L206.798 141.67L206.057 141.931L206.277 141.987L206.201 142.105L206.741 142.091L206.185 142.313L206.722 142.299L206.576 142.434L206.227 142.612L206.598 142.633L206.413 142.774L206.557 142.845L206.809 142.892L206.939 142.966L207.007 143.053L206.837 143.191L206.92 143.274V143.377L206.641 143.539L206.741 143.62H207.25L207.241 143.725V143.826L206.933 143.994L206.955 144.091L207.102 144.162L206.904 144.307L207.513 144.277L207.317 144.422L207.513 144.481L207.23 144.643L207.359 144.716L207.482 144.791C207.513 144.809 207.231 144.894 207.613 144.835C207.676 144.835 207.613 144.861 208.419 144.687L208.789 144.603L209.451 144.457L209.858 144.362C209.896 144.355 209.932 144.346 209.968 144.332C209.99 144.301 209.864 144.303 209.823 144.285L209.792 144.19L209.631 144.123L209.825 143.978L210.108 143.816L209.899 143.759L210.118 143.611L209.907 143.553L209.836 143.466L209.921 143.345L209.536 143.326L209.799 143.167L209.984 143.027L209.729 142.979L210.058 142.805L209.981 142.72L209.84 142.649L210.221 142.465L209.851 142.443L209.519 142.414L210.014 142.206L210.068 142.091L209.445 142.123L210.033 141.894H209.525L209.566 141.783L209.634 141.666L209.994 141.486L210.055 141.371L209.458 141.397L209.38 141.312L210.151 141.043L209.523 141.077L209.568 140.966L210.134 140.742H209.643L209.273 140.719L210.044 140.45L209.355 140.495L209.812 140.297L209.392 140.285L209.971 140.058L209.26 140.109L209.682 139.912L209.264 139.9L209.836 139.674L209.412 139.664L209.329 139.581L210.01 139.332L209.97 139.239L209.827 139.168L209.119 139.219L209.197 139.1L209.753 138.879L209.866 138.752L209.086 138.818L209.658 138.592H209.18L209.429 138.436L209.173 138.388L209.145 138.291L209.177 138.183L209.629 137.985L209.699 137.868L209.682 137.769L209.03 137.807L209.317 137.643L209.873 137.419L209.784 137.336L209.512 137.293L209.851 137.118L209.251 137.146L209.436 137.073L209.573 137.018C209.59 137.018 209.695 136.978 209.445 137.018C209.195 137.057 208.586 137.186 207.18 137.49L205.675 137.848Z" fill="#FFBCA5"/>
<g clip-path="url(#clip0)">
<path d="M71.0449 104.078C70.6972 104.866 68.9587 109.346 67.2835 113.858L62.9531 130.831C62.1629 139.034 62.6054 148.12 65.9875 148.152C69.0851 148.215 69.0851 142.788 70.4443 132.724C70.792 141.842 71.0449 148.404 74.2373 148.089C77.3982 147.773 77.0189 138.529 76.6712 131.494C78.947 135.848 81.7917 141.842 84.194 141.211C87.6393 140.265 85.4267 135.059 84.3204 131.462C81.855 123.449 85.3319 121.367 88.3031 116.95C90.2628 114.016 89.7887 109.883 88.2083 105.466L71.0449 104.078Z" fill="#FFF1ED"/>
<path d="M66.0533 149.099H65.9676C65.5628 149.089 65.1647 148.994 64.7996 148.819C64.4345 148.644 64.1108 148.394 63.8499 148.084C60.9068 144.821 61.6976 133.985 62.0099 130.742C62.0146 130.693 62.0229 130.646 62.0349 130.598L66.3653 113.625C66.3738 113.593 66.3836 113.562 66.395 113.53C68.0291 109.13 69.8008 104.553 70.1779 103.698C70.2584 103.519 70.3923 103.369 70.5613 103.268C70.7303 103.167 70.9262 103.121 71.1223 103.136L88.2858 104.524C88.4677 104.539 88.6415 104.605 88.7863 104.716C88.9311 104.827 89.0408 104.977 89.1022 105.149C91.0325 110.544 91.0303 114.577 89.093 117.476C88.5418 118.296 87.9845 119.022 87.4459 119.727C85.0667 122.833 83.3482 125.077 85.2279 131.186C85.3588 131.612 85.5055 132.06 85.6566 132.521C86.5732 135.329 87.6163 138.513 86.5264 140.535C86.3107 140.931 86.0141 141.277 85.6559 141.551C85.2976 141.825 84.8856 142.021 84.4466 142.126C82.0421 142.757 79.8706 139.527 77.7939 135.686C78.012 143.087 77.5629 148.71 74.3325 149.032C73.9477 149.076 73.5581 149.038 73.1887 148.922C72.8194 148.806 72.4787 148.614 72.1885 148.358C71.0775 147.391 70.4778 145.412 70.1159 142.643C69.448 146.836 68.5402 149.099 66.0533 149.099ZM63.8894 130.994C63.151 138.735 63.6997 145.089 65.258 146.817C65.3441 146.933 65.4551 147.028 65.5828 147.095C65.7106 147.162 65.8518 147.2 65.9961 147.205H66.0201C67.7093 147.205 68.1546 143.53 68.8908 137.457C69.0665 136.005 69.2657 134.362 69.5043 132.596C69.536 132.361 69.6548 132.147 69.8372 131.995C70.0196 131.844 70.2523 131.766 70.4895 131.777C70.7266 131.788 70.9508 131.888 71.1179 132.056C71.2849 132.225 71.3826 132.45 71.3916 132.686C71.6445 139.316 71.8832 145.578 73.4361 146.929C73.5303 147.016 73.6428 147.08 73.7652 147.117C73.8876 147.155 74.0169 147.164 74.1435 147.145C74.4479 147.114 75.471 146.672 75.8241 142.235C76.088 138.916 75.869 134.477 75.7239 131.54C75.7133 131.324 75.7768 131.111 75.9039 130.937C76.031 130.762 76.214 130.636 76.4227 130.58C76.6313 130.523 76.853 130.54 77.0511 130.626C77.2492 130.713 77.4117 130.864 77.5117 131.055C77.707 131.43 77.9071 131.816 78.1103 132.209C79.1579 134.234 80.3451 136.529 81.4953 138.168C83.0185 140.34 83.7597 140.345 83.9522 140.295C84.1417 140.257 84.3207 140.179 84.4766 140.065C84.6325 139.951 84.7615 139.804 84.8547 139.635C85.5592 138.328 84.6125 135.433 83.8523 133.106C83.6978 132.633 83.548 132.175 83.4136 131.739C81.2475 124.698 83.5258 121.724 85.9379 118.574C86.4594 117.894 86.9983 117.19 87.5155 116.421C89.0093 114.185 89.009 110.801 87.5155 106.357L71.6581 105.074C71.0443 106.598 69.614 110.305 68.1907 114.137L63.8894 130.994Z" fill="#3C4043"/>
<path d="M82.0143 84.6588C82.0143 84.6588 77.8104 100.907 73.9542 117.186C73.7645 117.975 73.5749 118.795 73.3852 119.584C69.9715 134.065 66.8739 148.262 67.0003 151.196L66.7158 215.431L66.8106 227.893H114.508V160.346L114.445 158.768L123.927 172.555L137.708 229.785L183.952 217.513L168.969 155.203C168.184 151.876 166.732 148.743 164.702 145.991L149.498 125.736L132.303 102.863L129.427 99.0453L82.0143 84.6588Z" fill="white"/>
<path d="M137.708 230.732C137.495 230.732 137.288 230.66 137.121 230.529C136.954 230.397 136.836 230.213 136.786 230.006L123.047 172.947L115.456 161.911V227.893C115.456 228.144 115.356 228.384 115.178 228.562C115.001 228.739 114.759 228.839 114.508 228.839H66.8107C66.5604 228.839 66.3203 228.74 66.1427 228.564C65.9651 228.388 65.8643 228.15 65.8624 227.9L65.7676 215.438L66.0521 151.213C65.9291 147.889 69.468 132.07 72.4623 119.367C72.5571 118.97 72.6519 118.569 72.7467 118.168C72.8416 117.768 72.9364 117.361 73.0312 116.965C76.8451 100.866 81.0531 84.5849 81.0955 84.4225C81.1274 84.2989 81.1841 84.183 81.2621 84.0818C81.3401 83.9807 81.4378 83.8963 81.5492 83.8338C81.6607 83.7713 81.7838 83.7319 81.9109 83.7181C82.038 83.7043 82.1666 83.7162 82.289 83.7533L129.702 98.1398C129.894 98.1981 130.063 98.316 130.184 98.4764L133.06 102.294L150.255 125.167L165.459 145.422C167.57 148.277 169.077 151.53 169.89 154.984L184.873 217.29C184.931 217.531 184.892 217.784 184.765 217.996C184.638 218.208 184.434 218.363 184.194 218.426L137.951 230.699C137.872 230.72 137.79 230.732 137.708 230.732ZM114.444 157.822C114.598 157.822 114.75 157.859 114.886 157.93C115.022 158.002 115.139 158.105 115.226 158.232L124.709 172.019C124.774 172.115 124.822 172.221 124.849 172.334L138.404 228.622L182.813 216.836L168.047 155.424C167.294 152.219 165.896 149.201 163.938 146.552L148.739 126.304L131.544 103.43L128.855 99.8605L82.6857 85.8526C81.7299 89.5754 78.1572 103.556 74.8768 117.405C74.782 117.801 74.6872 118.202 74.5923 118.604C74.4975 119.006 74.4027 119.411 74.3079 119.806C70.1039 137.639 67.8455 148.774 67.9482 151.157C67.9482 151.172 67.9482 151.187 67.9482 151.202L67.6638 215.437L67.7516 226.948H113.56V160.365L113.496 158.807C113.491 158.679 113.512 158.552 113.557 158.433C113.603 158.313 113.672 158.204 113.76 158.112C113.849 158.02 113.955 157.947 114.073 157.897C114.19 157.847 114.317 157.822 114.445 157.822L114.444 157.822Z" fill="#3C4043"/>
<path d="M112.107 258.022L112.138 227.956H71.8059C69.0243 235.559 62.1653 239.566 53.9471 241.396C46.7088 243.005 42.0939 249.914 42.6313 257.707V258.054L89.0009 258.022L96.6502 244.992L96.4921 258.022H112.107Z" fill="#E7F1FF"/>
<path d="M42.631 259C42.3795 259 42.1383 258.901 41.9605 258.723C41.7827 258.546 41.6827 258.305 41.6827 258.054V257.738C41.1233 249.409 46.1898 242.15 53.7407 240.471C62.7539 238.465 68.5335 234.144 70.9149 227.631C70.9816 227.449 71.1028 227.291 71.2621 227.18C71.4215 227.069 71.6112 227.009 71.8056 227.009H112.138C112.39 227.009 112.631 227.109 112.809 227.286C112.986 227.464 113.086 227.704 113.086 227.956L113.055 258.022C113.055 258.273 112.955 258.514 112.777 258.691C112.599 258.869 112.358 258.968 112.106 258.968H96.4918C96.3664 258.968 96.2421 258.944 96.1263 258.895C96.0105 258.847 95.9055 258.776 95.8173 258.687C95.7291 258.598 95.6595 258.492 95.6125 258.376C95.5655 258.26 95.5421 258.136 95.5436 258.011L95.6583 248.553L89.8187 258.501C89.7351 258.643 89.6157 258.761 89.4723 258.843C89.3289 258.925 89.1666 258.968 89.0013 258.968L42.6316 259L42.631 259ZM72.4574 228.902C69.7097 235.714 63.5558 240.226 54.1536 242.32C47.6738 243.76 43.2831 249.931 43.5489 257.107L88.4573 257.076L95.8325 244.514C95.9383 244.334 96.1007 244.194 96.2946 244.115C96.4884 244.037 96.7028 244.025 96.9043 244.08C97.1059 244.136 97.2833 244.257 97.4088 244.424C97.5344 244.591 97.6012 244.795 97.5988 245.003L97.4521 257.076H111.159L111.189 228.902L72.4574 228.902Z" fill="#3C4043"/>
<path d="M179.084 218.775C180.285 225.526 184.521 229.565 192.075 228.113L206.204 225.905C213.474 224.548 220.365 228.492 222.925 235.811L223.051 236.158L177.409 257.99L155.22 244.961L155.378 257.99H139.763L139.731 229.186L179.084 218.775Z" fill="#E7F1FF"/>
<path d="M177.409 258.937C177.24 258.937 177.074 258.892 176.928 258.806L156.188 246.628L156.326 257.98C156.327 258.105 156.304 258.229 156.257 258.345C156.21 258.462 156.14 258.567 156.052 258.656C155.964 258.745 155.859 258.816 155.743 258.864C155.627 258.913 155.503 258.938 155.378 258.938H139.763C139.512 258.938 139.27 258.838 139.093 258.66C138.915 258.483 138.815 258.242 138.815 257.991L138.783 229.187C138.783 228.978 138.852 228.775 138.98 228.609C139.107 228.444 139.286 228.325 139.488 228.272L178.841 217.86C178.968 217.827 179.1 217.82 179.23 217.84C179.359 217.86 179.483 217.907 179.594 217.977C179.705 218.048 179.799 218.14 179.872 218.249C179.945 218.358 179.995 218.481 180.018 218.61C180.627 222.036 182.053 224.604 184.14 226.037C186.131 227.404 188.741 227.79 191.896 227.184L191.927 227.178L206.056 224.97C213.827 223.52 221.142 227.848 223.82 235.5L223.943 235.836C224.023 236.056 224.018 236.299 223.929 236.516C223.84 236.734 223.674 236.911 223.461 237.012L177.819 258.844C177.691 258.905 177.551 258.937 177.409 258.937ZM140.712 257.044H154.418L154.271 244.972C154.269 244.804 154.312 244.639 154.395 244.493C154.478 244.347 154.598 244.226 154.744 244.142C154.889 244.058 155.054 244.014 155.222 244.014C155.391 244.015 155.556 244.06 155.7 244.145L177.455 256.919L221.865 235.676C219.374 229.203 213.074 225.584 206.376 226.835L192.238 229.046C188.574 229.747 185.487 229.259 183.065 227.595C180.769 226.017 179.152 223.387 178.355 219.945L140.681 229.914L140.712 257.044Z" fill="#3C4043"/>
<path d="M70.1551 247.173C69.7151 247.174 69.2798 247.083 68.877 246.906C68.4742 246.729 68.1128 246.471 67.8161 246.146C67.4795 245.782 67.2294 245.346 67.0842 244.872C66.9391 244.397 66.9026 243.896 66.9775 243.406L68.3547 233.615L57.0275 234.953C56.3189 235.023 55.6074 234.853 55.0069 234.471C54.4064 234.089 53.9516 233.517 53.7152 232.847L53.646 232.641C53.4388 232.063 53.3942 231.44 53.5171 230.839C53.6401 230.238 53.9258 229.682 54.3433 229.232C54.7217 228.812 55.2099 228.506 55.7532 228.347C56.2964 228.189 56.8731 228.185 57.4185 228.336L69.7404 231.617C69.9028 231.66 70.0507 231.746 70.1691 231.865C70.2875 231.984 70.3721 232.132 70.4143 232.294L73.1959 243.021C73.3159 243.501 73.3305 244.001 73.2387 244.487C73.1468 244.973 72.9506 245.434 72.6636 245.837C72.4001 246.21 72.059 246.522 71.6635 246.752C71.2681 246.981 70.8276 247.123 70.3723 247.167C70.3005 247.17 70.2291 247.173 70.1551 247.173ZM69.755 237.295L68.8579 243.673V243.681C68.8247 243.892 68.8395 244.108 68.9013 244.313C68.9631 244.517 69.0702 244.705 69.2148 244.863C69.3349 245.005 69.4868 245.117 69.6582 245.19C69.8296 245.262 70.0157 245.294 70.2014 245.281C70.3872 245.269 70.5675 245.213 70.7278 245.119C70.8881 245.024 71.0239 244.894 71.1242 244.737C71.2519 244.557 71.3391 244.352 71.3799 244.136C71.4207 243.92 71.4141 243.697 71.3607 243.483L69.755 237.295ZM56.6058 230.12C56.4411 230.124 56.2789 230.161 56.1292 230.23C55.9794 230.298 55.8453 230.397 55.735 230.519C55.5522 230.719 55.4279 230.964 55.3757 231.23C55.3235 231.495 55.3453 231.77 55.4388 232.024L55.5087 232.231C55.6046 232.497 55.7861 232.724 56.0247 232.876C56.2634 233.028 56.5458 233.096 56.8277 233.071L64.4583 232.17L56.9251 230.164C56.8211 230.136 56.7137 230.121 56.6058 230.12Z" fill="#FFDA2D"/>
<path d="M129.965 180.6C129.827 180.6 129.692 180.571 129.567 180.513C129.443 180.456 129.332 180.372 129.243 180.268L123.174 173.17C123.011 172.979 122.93 172.731 122.95 172.481C122.97 172.23 123.089 171.998 123.28 171.835C123.471 171.672 123.72 171.592 123.97 171.612C124.221 171.631 124.454 171.75 124.617 171.941L130.686 179.039C130.803 179.177 130.879 179.345 130.904 179.524C130.929 179.704 130.901 179.886 130.826 180.05C130.75 180.215 130.628 180.354 130.476 180.451C130.323 180.549 130.146 180.6 129.964 180.6H129.965Z" fill="#3C4043"/>
<path d="M190.995 242.977C190.533 242.977 190.076 242.89 189.646 242.721C189.107 242.504 188.621 242.174 188.221 241.753C187.821 241.332 187.517 240.829 187.33 240.28L183.055 227.755C183.011 227.626 182.995 227.49 183.009 227.354C183.022 227.219 183.065 227.088 183.134 226.971L188.151 218.437C188.455 217.91 188.885 217.466 189.402 217.145C189.92 216.824 190.509 216.636 191.117 216.597C191.742 216.566 192.366 216.687 192.935 216.95C193.503 217.212 193.999 217.61 194.38 218.106C194.741 218.562 194.997 219.091 195.128 219.657C195.259 220.223 195.263 220.811 195.138 221.378C195.024 221.93 194.787 222.449 194.446 222.898C194.106 223.346 193.669 223.714 193.168 223.973L186.587 227.359L194.166 236.243C194.562 236.706 194.849 237.252 195.004 237.841C195.16 238.43 195.18 239.046 195.064 239.643C194.963 240.208 194.735 240.742 194.399 241.207C194.062 241.672 193.624 242.055 193.119 242.327L192.703 242.554C192.176 242.831 191.59 242.977 190.995 242.977ZM185.474 228.975L189.122 239.662C189.22 239.953 189.379 240.219 189.589 240.443C189.799 240.667 190.055 240.843 190.339 240.959C190.575 241.054 190.828 241.097 191.081 241.084C191.334 241.072 191.582 241.004 191.806 240.886L192.219 240.661C192.475 240.521 192.697 240.325 192.867 240.088C193.037 239.851 193.151 239.579 193.201 239.291C193.263 238.971 193.253 238.642 193.17 238.327C193.087 238.012 192.935 237.719 192.723 237.471L185.474 228.975ZM191.348 218.484C191.31 218.484 191.272 218.484 191.234 218.488C190.936 218.509 190.647 218.604 190.393 218.763C190.14 218.923 189.93 219.142 189.783 219.403L186.258 225.397L192.301 222.291C192.552 222.159 192.771 221.974 192.941 221.747C193.111 221.521 193.229 221.26 193.285 220.983C193.35 220.687 193.349 220.381 193.281 220.086C193.213 219.792 193.08 219.516 192.891 219.279C192.713 219.037 192.481 218.839 192.213 218.701C191.945 218.563 191.649 218.489 191.348 218.484H191.348Z" fill="#FFDA2D"/>
<path d="M82.6149 199.277C84.1686 199.277 85.4281 198.02 85.4281 196.469C85.4281 194.919 84.1686 193.661 82.6149 193.661C81.0612 193.661 79.8018 194.919 79.8018 196.469C79.8018 198.02 81.0612 199.277 82.6149 199.277Z" fill="#FFF1ED"/>
<path d="M71.3942 185.238C72.9479 185.238 74.2074 183.981 74.2074 182.43C74.2074 180.879 72.9479 179.622 71.3942 179.622C69.8405 179.622 68.5811 180.879 68.5811 182.43C68.5811 183.981 69.8405 185.238 71.3942 185.238Z" fill="#E7F1FF"/>
<path d="M111.379 194.387C112.932 194.387 114.192 193.13 114.192 191.579C114.192 190.028 112.932 188.771 111.379 188.771C109.825 188.771 108.565 190.028 108.565 191.579C108.565 193.13 109.825 194.387 111.379 194.387Z" fill="#E7F1FF"/>
<path d="M102.086 179.969C103.639 179.969 104.899 178.712 104.899 177.161C104.899 175.61 103.639 174.353 102.086 174.353C100.532 174.353 99.2725 175.61 99.2725 177.161C99.2725 178.712 100.532 179.969 102.086 179.969Z" fill="#E7F1FF"/>
<path d="M99.1953 195.122C100.369 194.106 100.495 192.333 99.4774 191.161C98.4595 189.99 96.6828 189.864 95.5091 190.88C94.3353 191.896 94.209 193.669 95.2269 194.841C96.2448 196.012 98.0215 196.138 99.1953 195.122Z" fill="#E7F1FF"/>
<path d="M86.2819 183.219C87.8356 183.219 89.0951 181.962 89.0951 180.411C89.0951 178.86 87.8356 177.603 86.2819 177.603C84.7282 177.603 83.4688 178.86 83.4688 180.411C83.4688 181.962 84.7282 183.219 86.2819 183.219Z" fill="#E7F1FF"/>
<path d="M75.3454 169.242C76.899 169.242 78.1585 167.985 78.1585 166.434C78.1585 164.884 76.899 163.627 75.3454 163.627C73.7917 163.627 72.5322 164.884 72.5322 166.434C72.5322 167.985 73.7917 169.242 75.3454 169.242Z" fill="#FFF1ED"/>
<path d="M91.7184 166.782C93.2721 166.782 94.5316 165.524 94.5316 163.974C94.5316 162.423 93.2721 161.166 91.7184 161.166C90.1648 161.166 88.9053 162.423 88.9053 163.974C88.9053 165.524 90.1648 166.782 91.7184 166.782Z" fill="#E7F1FF"/>
<path d="M80.1813 152.774C81.735 152.774 82.9945 151.516 82.9945 149.966C82.9945 148.415 81.735 147.158 80.1813 147.158C78.6277 147.158 77.3682 148.415 77.3682 149.966C77.3682 151.516 78.6277 152.774 80.1813 152.774Z" fill="#E7F1FF"/>
<path d="M108.313 164.573C109.867 164.573 111.126 163.316 111.126 161.765C111.126 160.214 109.867 158.957 108.313 158.957C106.759 158.957 105.5 160.214 105.5 161.765C105.5 163.316 106.759 164.573 108.313 164.573Z" fill="#E7F1FF"/>
<path d="M99.0514 149.966C100.605 149.966 101.865 148.708 101.865 147.158C101.865 145.607 100.605 144.35 99.0514 144.35C97.4978 144.35 96.2383 145.607 96.2383 147.158C96.2383 148.708 97.4978 149.966 99.0514 149.966Z" fill="#FFF1ED"/>
<path d="M86.6608 135.611C88.2145 135.611 89.474 134.354 89.474 132.803C89.474 131.252 88.2145 129.995 86.6608 129.995C85.1071 129.995 83.8477 131.252 83.8477 132.803C83.8477 134.354 85.1071 135.611 86.6608 135.611Z" fill="#FFF1ED"/>
<path d="M71.3946 129.711C71.7512 129.546 72.1394 129.46 72.5325 129.459C73.2786 129.459 73.9941 129.755 74.5217 130.281C75.0493 130.808 75.3456 131.522 75.3456 132.267C75.3456 133.011 75.0493 133.726 74.5217 134.252C73.9941 134.779 73.2786 135.075 72.5325 135.075C72.0368 135.076 71.5497 134.945 71.1218 134.696C70.6938 134.446 70.3406 134.087 70.0986 133.655" fill="#E7F1FF"/>
<path d="M109.893 209.941C111.447 209.941 112.706 208.684 112.706 207.133C112.706 205.582 111.447 204.325 109.893 204.325C108.34 204.325 107.08 205.582 107.08 207.133C107.08 208.684 108.34 209.941 109.893 209.941Z" fill="#E7F1FF"/>
<path d="M97.8047 210.992C98.9784 209.976 99.1048 208.203 98.0868 207.031C97.0689 205.859 95.2922 205.733 94.1184 206.749C92.9447 207.765 92.8184 209.539 93.8363 210.71C94.8542 211.882 96.6309 212.008 97.8047 210.992Z" fill="#E7F1FF"/>
<path d="M96.3828 224.779C97.5565 223.763 97.6829 221.989 96.6649 220.818C95.647 219.646 93.8703 219.52 92.6966 220.536C91.5228 221.552 91.3965 223.326 92.4144 224.497C93.4323 225.669 95.209 225.795 96.3828 224.779Z" fill="#E7F1FF"/>
<path d="M81.3512 213.853C82.9049 213.853 84.1644 212.596 84.1644 211.045C84.1644 209.494 82.9049 208.237 81.3512 208.237C79.7976 208.237 78.5381 209.494 78.5381 211.045C78.5381 212.596 79.7976 213.853 81.3512 213.853Z" fill="#E7F1FF"/>
<path d="M79.8024 228.429C81.3561 228.429 82.6156 227.172 82.6156 225.621C82.6156 224.07 81.3561 222.813 79.8024 222.813C78.2488 222.813 76.9893 224.07 76.9893 225.621C76.9893 227.172 78.2488 228.429 79.8024 228.429Z" fill="#FFF1ED"/>
<path d="M67.0635 212.875C67.8096 212.875 68.5251 213.171 69.0527 213.697C69.5802 214.224 69.8766 214.938 69.8766 215.683C69.8766 216.428 69.5802 217.142 69.0527 217.668C68.5251 218.195 67.8096 218.491 67.0635 218.491" fill="#FFF1ED"/>
<path d="M67.8545 195.239C68.6006 195.239 69.3161 195.535 69.8437 196.061C70.3713 196.588 70.6676 197.302 70.6676 198.047C70.6676 198.792 70.3713 199.506 69.8437 200.032C69.3161 200.559 68.6006 200.855 67.8545 200.855" fill="#E7F1FF"/>
<path d="M108.566 225.495C110.12 225.495 111.379 224.238 111.379 222.687C111.379 221.136 110.12 219.879 108.566 219.879C107.012 219.879 105.753 221.136 105.753 222.687C105.753 224.238 107.012 225.495 108.566 225.495Z" fill="#E7F1FF"/>
<path d="M150.447 193.283C152.001 193.283 153.26 192.026 153.26 190.475C153.26 188.924 152.001 187.667 150.447 187.667C148.893 187.667 147.634 188.924 147.634 190.475C147.634 192.026 148.893 193.283 150.447 193.283Z" fill="#FFF1ED"/>
<path d="M139.226 179.243C140.78 179.243 142.039 177.986 142.039 176.436C142.039 174.885 140.78 173.628 139.226 173.628C137.673 173.628 136.413 174.885 136.413 176.436C136.413 177.986 137.673 179.243 139.226 179.243Z" fill="#E7F1FF"/>
<path d="M169.918 173.975C171.471 173.975 172.731 172.718 172.731 171.167C172.731 169.616 171.471 168.359 169.918 168.359C168.364 168.359 167.104 169.616 167.104 171.167C167.104 172.718 168.364 173.975 169.918 173.975Z" fill="#E7F1FF"/>
<path d="M165.145 189.844C166.699 189.844 167.958 188.587 167.958 187.036C167.958 185.485 166.699 184.228 165.145 184.228C163.592 184.228 162.332 185.485 162.332 187.036C162.332 188.587 163.592 189.844 165.145 189.844Z" fill="#E7F1FF"/>
<path d="M154.114 177.224C155.668 177.224 156.927 175.967 156.927 174.416C156.927 172.866 155.668 171.609 154.114 171.609C152.56 171.609 151.301 172.866 151.301 174.416C151.301 175.967 152.56 177.224 154.114 177.224Z" fill="#E7F1FF"/>
<path d="M143.177 163.248C144.731 163.248 145.991 161.991 145.991 160.44C145.991 158.889 144.731 157.632 143.177 157.632C141.624 157.632 140.364 158.889 140.364 160.44C140.364 161.991 141.624 163.248 143.177 163.248Z" fill="#FFF1ED"/>
<path d="M159.518 160.787C161.072 160.787 162.331 159.53 162.331 157.979C162.331 156.429 161.072 155.171 159.518 155.171C157.965 155.171 156.705 156.429 156.705 157.979C156.705 159.53 157.965 160.787 159.518 160.787Z" fill="#E7F1FF"/>
<path d="M147.981 146.779C149.535 146.779 150.794 145.522 150.794 143.971C150.794 142.421 149.535 141.163 147.981 141.163C146.427 141.163 145.168 142.421 145.168 143.971C145.168 145.522 146.427 146.779 147.981 146.779Z" fill="#E7F1FF"/>
<path d="M177.757 203.946C179.31 203.946 180.57 202.689 180.57 201.139C180.57 199.588 179.31 198.331 177.757 198.331C176.203 198.331 174.943 199.588 174.943 201.139C174.943 202.689 176.203 203.946 177.757 203.946Z" fill="#FFF1ED"/>
<path d="M163.755 205.713C165.308 205.713 166.568 204.456 166.568 202.905C166.568 201.355 165.308 200.097 163.755 200.097C162.201 200.097 160.941 201.355 160.941 202.905C160.941 204.456 162.201 205.713 163.755 205.713Z" fill="#E7F1FF"/>
<path d="M162.332 219.5C163.885 219.5 165.145 218.243 165.145 216.692C165.145 215.142 163.885 213.885 162.332 213.885C160.778 213.885 159.519 215.142 159.519 216.692C159.519 218.243 160.778 219.5 162.332 219.5Z" fill="#FFF1ED"/>
<path d="M149.182 207.859C150.736 207.859 151.995 206.602 151.995 205.051C151.995 203.5 150.736 202.243 149.182 202.243C147.629 202.243 146.369 203.5 146.369 205.051C146.369 206.602 147.629 207.859 149.182 207.859Z" fill="#E7F1FF"/>
<path d="M147.633 222.434C149.187 222.434 150.447 221.177 150.447 219.626C150.447 218.076 149.187 216.819 147.633 216.819C146.08 216.819 144.82 218.076 144.82 219.626C144.82 221.177 146.08 222.434 147.633 222.434Z" fill="#E7F1FF"/>
<path d="M134.864 212.528C136.418 212.528 137.677 211.271 137.677 209.72C137.677 208.169 136.418 206.912 134.864 206.912C133.31 206.912 132.051 208.169 132.051 209.72C132.051 211.271 133.31 212.528 134.864 212.528Z" fill="#E7F1FF"/>
<path d="M135.717 194.892C137.271 194.892 138.531 193.635 138.531 192.084C138.531 190.533 137.271 189.276 135.717 189.276C134.164 189.276 132.904 190.533 132.904 192.084C132.904 193.635 134.164 194.892 135.717 194.892Z" fill="#E7F1FF"/>
<path d="M176.397 219.5C177.951 219.5 179.21 218.243 179.21 216.692C179.21 215.142 177.951 213.885 176.397 213.885C174.843 213.885 173.584 215.142 173.584 216.692C173.584 218.243 174.843 219.5 176.397 219.5Z" fill="#E7F1FF"/>
<path d="M106.89 125.231C108.444 125.231 109.703 123.974 109.703 122.423C109.703 120.872 108.444 119.615 106.89 119.615C105.337 119.615 104.077 120.872 104.077 122.423C104.077 123.974 105.337 125.231 106.89 125.231Z" fill="#E7F1FF"/>
<path d="M97.6725 110.337C98.7088 109.181 98.6105 107.406 97.453 106.372C96.2956 105.338 94.5172 105.436 93.4809 106.591C92.4446 107.746 92.5428 109.521 93.7003 110.556C94.8578 111.59 96.6362 111.492 97.6725 110.337Z" fill="#FFF1ED"/>
<path d="M126.33 105.923C127.883 105.923 129.143 104.666 129.143 103.115C129.143 101.564 127.883 100.307 126.33 100.307C124.776 100.307 123.517 101.564 123.517 103.115C123.517 104.666 124.776 105.923 126.33 105.923Z" fill="#FFF1ED"/>
<path d="M121.557 121.792C123.111 121.792 124.37 120.535 124.37 118.984C124.37 117.434 123.111 116.176 121.557 116.176C120.004 116.176 118.744 117.434 118.744 118.984C118.744 120.535 120.004 121.792 121.557 121.792Z" fill="#E7F1FF"/>
<path d="M110.526 109.173C112.08 109.173 113.339 107.916 113.339 106.365C113.339 104.814 112.08 103.557 110.526 103.557C108.972 103.557 107.713 104.814 107.713 106.365C107.713 107.916 108.972 109.173 110.526 109.173Z" fill="#E7F1FF"/>
<path d="M99.6208 95.1961C101.174 95.1961 102.434 93.939 102.434 92.3882C102.434 90.8375 101.174 89.5803 99.6208 89.5803C98.0671 89.5803 96.8076 90.8375 96.8076 92.3882C96.8076 93.939 98.0671 95.1961 99.6208 95.1961Z" fill="#E7F1FF"/>
<path d="M134.169 135.895C135.722 135.895 136.982 134.638 136.982 133.087C136.982 131.536 135.722 130.279 134.169 130.279C132.615 130.279 131.355 131.536 131.355 133.087C131.355 134.638 132.615 135.895 134.169 135.895Z" fill="#E7F1FF"/>
<path d="M152.028 127.503C152.028 128.058 151.863 128.601 151.554 129.063C151.244 129.524 150.805 129.884 150.291 130.097C149.777 130.309 149.211 130.365 148.666 130.257C148.12 130.148 147.619 129.881 147.225 129.488C146.832 129.095 146.564 128.595 146.455 128.05C146.347 127.506 146.403 126.941 146.616 126.428C146.828 125.915 147.189 125.476 147.652 125.168C148.114 124.859 148.658 124.695 149.215 124.695" fill="#FFF1ED"/>
<path d="M137.677 116.807C139.231 116.807 140.491 115.55 140.491 114C140.491 112.449 139.231 111.192 137.677 111.192C136.124 111.192 134.864 112.449 134.864 114C134.864 115.55 136.124 116.807 137.677 116.807Z" fill="#E7F1FF"/>
<path d="M85.6501 96.5213C87.2037 96.5213 88.4632 95.2641 88.4632 93.7134C88.4632 92.1626 87.2037 90.9055 85.6501 90.9055C84.0964 90.9055 82.8369 92.1626 82.8369 93.7134C82.8369 95.2641 84.0964 96.5213 85.6501 96.5213Z" fill="#E7F1FF"/>
<path d="M120.166 137.661C121.719 137.661 122.979 136.404 122.979 134.854C122.979 133.303 121.719 132.046 120.166 132.046C118.612 132.046 117.353 133.303 117.353 134.854C117.353 136.404 118.612 137.661 120.166 137.661Z" fill="#FFF1ED"/>
<path d="M104.046 137.598C105.599 137.598 106.859 136.341 106.859 134.791C106.859 133.24 105.599 131.983 104.046 131.983C102.492 131.983 101.232 133.24 101.232 134.791C101.232 136.341 102.492 137.598 104.046 137.598Z" fill="#E7F1FF"/>
<path d="M126.33 165.551C127.883 165.551 129.143 164.294 129.143 162.743C129.143 161.192 127.883 159.935 126.33 159.935C124.776 159.935 123.517 161.192 123.517 162.743C123.517 164.294 124.776 165.551 126.33 165.551Z" fill="#E7F1FF"/>
<path d="M115.899 152.774C117.453 152.774 118.712 151.516 118.712 149.966C118.712 148.415 117.453 147.158 115.899 147.158C114.345 147.158 113.086 148.415 113.086 149.966C113.086 151.516 114.345 152.774 115.899 152.774Z" fill="#E7F1FF"/>
<path d="M81.8249 118.89C83.3785 118.89 84.638 117.633 84.638 116.082C84.638 114.531 83.3785 113.274 81.8249 113.274C80.2712 113.274 79.0117 114.531 79.0117 116.082C79.0117 117.633 80.2712 118.89 81.8249 118.89Z" fill="#E7F1FF"/>
<path d="M132.809 151.449C134.363 151.449 135.622 150.191 135.622 148.641C135.622 147.09 134.363 145.833 132.809 145.833C131.256 145.833 129.996 147.09 129.996 148.641C129.996 150.191 131.256 151.449 132.809 151.449Z" fill="#E7F1FF"/>
<path d="M137.741 230.7C137.528 230.7 137.321 230.629 137.154 230.497C136.986 230.365 136.868 230.181 136.819 229.975L123.079 172.915L115.488 161.879V227.892C115.488 228.143 115.388 228.384 115.211 228.562C115.033 228.739 114.792 228.839 114.54 228.839H66.8429C66.5926 228.839 66.3525 228.74 66.1749 228.564C65.9973 228.388 65.8965 228.149 65.8946 227.9L65.7998 215.438L66.0843 151.214C65.8336 144.628 80.3201 87.2179 80.9374 84.7744C80.9686 84.6508 81.0246 84.5348 81.1018 84.4333C81.1791 84.3318 81.2761 84.2469 81.387 84.1837C81.4979 84.1205 81.6205 84.0804 81.7474 84.0657C81.8742 84.0509 82.0028 84.0619 82.1253 84.098L129.728 98.1059C129.923 98.1634 130.095 98.2822 130.217 98.4447L133.094 102.262L150.289 125.135L165.492 145.39C167.603 148.245 169.11 151.498 169.923 154.953L184.906 217.259C184.963 217.499 184.925 217.752 184.798 217.965C184.671 218.177 184.466 218.331 184.227 218.394L137.984 230.667C137.905 230.689 137.823 230.7 137.741 230.7ZM114.477 157.79C114.631 157.79 114.782 157.827 114.919 157.898C115.055 157.97 115.172 158.073 115.259 158.2L124.741 171.987C124.807 172.083 124.854 172.19 124.881 172.303L138.436 228.59L182.846 216.804L168.079 155.392C167.326 152.188 165.928 149.169 163.97 146.52L148.771 126.272L131.576 103.399L128.889 99.8335L82.5355 86.1926C77.2667 107.088 67.764 146.273 67.9798 151.154C67.9798 151.17 67.9798 151.186 67.9798 151.201L67.6954 215.435L67.7832 226.946H113.592V160.333L113.529 158.775C113.523 158.648 113.544 158.52 113.59 158.401C113.635 158.282 113.704 158.173 113.792 158.081C113.881 157.989 113.987 157.916 114.105 157.866C114.223 157.816 114.349 157.79 114.477 157.791V157.79Z" fill="#3C4043"/>
<path d="M75.3456 117.06C75.4749 118.778 75.1381 120.499 74.3705 122.043C73.6029 123.586 72.433 124.894 70.9836 125.831C69.5686 126.675 68.3161 127.764 67.2855 129.049C63.208 134.38 62.1333 133.907 60.5845 133.686C56.9811 133.15 66.1476 117.722 69.34 109.172" fill="#FFF1ED"/>
<path d="M61.6505 134.744C61.3206 134.74 60.9916 134.71 60.6662 134.656L60.4494 134.624C60.1642 134.588 59.892 134.483 59.6558 134.319C59.4196 134.155 59.2262 133.937 59.0921 133.683C57.9988 131.637 60.3071 126.559 64.1643 118.445C65.7722 115.058 67.4371 111.558 68.4511 108.842C68.5391 108.607 68.7171 108.416 68.946 108.312C69.1749 108.207 69.4359 108.198 69.6716 108.286C69.9073 108.374 70.0984 108.552 70.2028 108.78C70.3072 109.009 70.3164 109.269 70.2284 109.504C69.1853 112.297 67.5041 115.835 65.8778 119.256C64.3865 122.394 62.8434 125.638 61.8455 128.209C60.518 131.627 60.6725 132.555 60.7474 132.754L60.9535 132.786C62.0949 132.961 62.9961 133.099 66.5315 128.476C67.6288 127.106 68.9612 125.942 70.4664 125.037C71.7709 124.19 72.8238 123.01 73.5156 121.619C74.2074 120.227 74.5126 118.677 74.3995 117.128C74.3814 116.877 74.4638 116.63 74.6284 116.44C74.7931 116.25 75.0265 116.134 75.2774 116.116C75.5282 116.098 75.776 116.18 75.9661 116.344C76.1563 116.509 76.2732 116.742 76.2912 116.992C76.4287 118.879 76.0566 120.768 75.2138 122.462C74.371 124.156 73.0883 125.594 71.4994 126.625C70.1761 127.411 69.0039 128.427 68.0379 129.624C64.7816 133.883 63.2091 134.744 61.6505 134.744Z" fill="#3C4043"/>
<path d="M40.0386 67.6537C39.6007 63.0003 40.8176 58.3415 43.4761 54.4939C46.1346 50.6463 50.065 47.8554 54.5785 46.6103L92.6983 36.136C98.2734 34.807 104.104 35.0032 109.577 36.7038L119.534 39.8272L153.039 54.3714L137.456 88.1922L129.364 99.0137L85.2703 85.7314L83.4092 85.1951L85.9657 69.7359L78.6888 70.9348L83.4092 85.1951L75.3705 116.789L46.0445 77.8756C43.6107 74.6892 40.9872 71.5658 40.0389 67.6537H40.0386Z" fill="#FFED96"/>
<path d="M75.3705 117.735C75.2233 117.735 75.0781 117.701 74.9465 117.635C74.8148 117.569 74.7003 117.474 74.6119 117.356L45.2865 78.4448C45.0615 78.1501 44.8307 77.8511 44.6003 77.552C42.3501 74.633 40.0228 71.6147 39.1166 67.8764C39.1062 67.8327 39.0988 67.7883 39.0944 67.7436C38.6306 62.8681 39.9032 57.9855 42.6886 53.9537C45.474 49.9219 49.5939 46.999 54.3243 45.6986L92.4467 35.2242C92.4574 35.221 92.4682 35.2185 92.4783 35.2157C98.2194 33.8507 104.223 34.0529 109.859 35.8012L119.817 38.9246C119.849 38.9345 119.881 38.946 119.912 38.9593L153.417 53.5035C153.532 53.5538 153.637 53.6265 153.724 53.7175C153.811 53.8084 153.879 53.9158 153.924 54.0333C153.969 54.1508 153.99 54.276 153.986 54.4018C153.982 54.5275 153.953 54.6511 153.9 54.7655L138.317 88.5863C138.289 88.6466 138.255 88.7038 138.216 88.757L130.124 99.5784C130.008 99.7342 129.846 99.8504 129.661 99.9113C129.476 99.9721 129.277 99.9747 129.09 99.9185L84.9963 86.6363L84.0875 86.3744L76.2897 117.02C76.2455 117.193 76.1534 117.349 76.0238 117.472C75.8942 117.595 75.7325 117.679 75.5573 117.714C75.4959 117.727 75.4333 117.734 75.3705 117.735ZM40.9761 67.4966C41.7979 70.8146 43.8901 73.5266 46.1033 76.3976C46.3351 76.699 46.5669 77.0005 46.7987 77.3021L74.9384 114.641L82.4218 85.2307L77.7879 71.2333C77.745 71.1035 77.7308 70.966 77.7462 70.8303C77.7616 70.6945 77.8062 70.5637 77.8771 70.4468C77.9479 70.3299 78.0433 70.2297 78.1566 70.153C78.2699 70.0764 78.3985 70.0252 78.5336 70.0029L85.8108 68.8024C85.9595 68.7779 86.1119 68.7891 86.2554 68.8351C86.3989 68.8811 86.5294 68.9606 86.6359 69.067C86.7425 69.1733 86.8221 69.3035 86.8682 69.4468C86.9143 69.59 86.9256 69.7421 86.901 69.8905L84.482 84.5199L85.5327 84.8225L129.002 97.9154L136.636 87.707L151.772 54.8541L119.201 40.7153L109.293 37.6068C103.988 35.9621 98.3379 35.7709 92.9338 37.0531L54.8298 47.523C50.5404 48.7021 46.8027 51.3485 44.2703 54.9996C41.7379 58.6508 40.5718 63.0742 40.9761 67.4966ZM79.9364 71.6898L83.1007 81.2492L84.8142 70.8862L79.9364 71.6898Z" fill="#3C4043"/>
<path d="M122.474 27.9961L116.468 38.4074C115.724 39.7033 115.317 41.1647 115.283 42.6582C115.25 44.1517 115.593 45.6297 116.279 46.9573L116.627 47.6198C117.175 48.6548 117.923 49.5712 118.829 50.316C119.734 51.0609 120.778 51.6196 121.9 51.9598C123.023 52.3 124.201 52.4151 125.369 52.2983C126.536 52.1816 127.668 51.8353 128.701 51.2795C130.105 50.5142 131.282 49.3935 132.115 48.0299L136.129 41.373C139.344 41.4452 142.475 40.3491 144.94 38.2888C147.406 36.2285 149.037 33.3443 149.531 30.173C149.704 29.0879 149.736 27.9851 149.626 26.8919C149.377 24.1414 148.272 21.5376 146.465 19.4463C146.882 18.4677 147.169 17.4389 147.318 16.386C147.476 14.8547 147.476 13.3112 147.318 11.7798L132.494 9.94995L128.669 14.7139L124.465 14.5561C118.934 14.3669 115.931 20.8976 119.661 24.9674L122.474 27.9961Z" fill="#FFF1ED"/>
<path d="M124.487 53.2918C123.511 53.291 122.541 53.1458 121.607 52.8608C120.367 52.4867 119.213 51.8698 118.214 51.046C117.215 50.2222 116.391 49.2081 115.788 48.0628L115.438 47.3965C114.675 45.9291 114.294 44.2937 114.33 42.6409C114.367 40.988 114.819 39.3708 115.645 37.938L121.303 28.1284L118.964 25.6111C118.006 24.572 117.377 23.2733 117.157 21.8785C116.937 20.4837 117.135 19.055 117.726 17.7723C118.317 16.4895 119.276 15.4099 120.48 14.6693C121.685 13.9288 123.082 13.5603 124.495 13.6103L128.225 13.7504L131.752 9.35813C131.853 9.23219 131.985 9.13419 132.134 9.07344C132.284 9.0127 132.447 8.99124 132.608 9.01109L147.432 10.8409C147.645 10.8672 147.842 10.9646 147.992 11.1171C148.142 11.2697 148.236 11.4685 148.259 11.6811C148.426 13.2934 148.424 14.9186 148.253 16.5305C148.118 17.4684 147.883 18.3893 147.553 19.2779C149.276 21.4384 150.324 24.0568 150.568 26.8074C150.686 27.9809 150.651 29.1648 150.464 30.3293C149.94 33.6278 148.27 36.6372 145.747 38.83C143.223 41.0228 140.007 42.259 136.661 42.3221L132.925 48.5184C132.003 50.024 130.703 51.2625 129.153 52.1109C127.719 52.8834 126.116 53.2891 124.487 53.2918ZM124.236 15.4989C123.212 15.4999 122.211 15.7985 121.354 16.3582C120.497 16.9179 119.821 17.7145 119.41 18.6508C118.999 19.5871 118.87 20.6225 119.039 21.6308C119.208 22.639 119.667 23.5764 120.36 24.3286L123.169 27.3529C123.307 27.5011 123.393 27.6893 123.416 27.8901C123.439 28.0909 123.397 28.2937 123.296 28.4688L117.29 38.8801C116.622 40.0376 116.257 41.3442 116.227 42.6796C116.198 44.015 116.505 45.3364 117.121 46.5222L117.466 47.181C117.957 48.1052 118.626 48.9233 119.434 49.5883C120.243 50.2532 121.176 50.7518 122.178 51.0552C123.181 51.3587 124.234 51.461 125.276 51.3564C126.319 51.2517 127.33 50.9421 128.252 50.4454C129.51 49.762 130.564 48.7578 131.306 47.5353L135.316 40.8853C135.402 40.7418 135.525 40.6237 135.672 40.5431C135.819 40.4626 135.984 40.4225 136.152 40.4269C139.135 40.4889 142.04 39.4692 144.328 37.557C146.615 35.6447 148.131 32.9694 148.594 30.027C148.755 29.0176 148.785 27.9916 148.682 26.9746C148.454 24.4211 147.427 22.0037 145.747 20.0653C145.63 19.9306 145.554 19.766 145.528 19.5902C145.501 19.4144 145.524 19.2347 145.595 19.0715C145.979 18.1692 146.243 17.2205 146.38 16.2498C146.507 15.0459 146.526 13.8332 146.436 12.626L132.903 10.9539L129.409 15.3058C129.317 15.4217 129.199 15.5142 129.064 15.5758C128.929 15.6373 128.781 15.6661 128.633 15.6598L124.429 15.502C124.365 15.4997 124.3 15.4987 124.236 15.4989Z" fill="#3C4043"/>
<path d="M147.518 12.3582L135.842 10.5083L135.842 10.5083L135.836 10.5074C134.492 10.3025 133.12 10.6351 132.02 11.4334C130.919 12.2318 130.178 13.4316 129.957 14.7728L129.957 14.7728L129.956 14.7808L129.481 17.8304C129.081 17.0631 128.598 16.3618 128.127 15.7687C127.337 14.7504 126.299 13.6494 124.936 13.044C124.129 12.6803 123.295 12.5405 122.538 12.4579C122.211 12.4222 121.919 12.3981 121.642 12.3751C121.519 12.365 121.4 12.3551 121.281 12.3445C121.291 12.2695 121.301 12.1958 121.312 12.1234C121.503 10.9172 121.859 9.74285 122.37 8.63332L122.37 8.63261C122.503 8.34356 122.653 8.06267 122.82 7.79146L122.83 7.77473L122.839 7.75762C124.206 5.32181 126.31 3.37984 128.85 2.21027C131.391 1.04069 134.237 0.703659 136.981 1.24757C139.726 1.79148 142.227 3.18835 144.126 5.23769C145.958 7.21358 147.14 9.69825 147.518 12.3582Z" fill="white" stroke="#3C4043" stroke-width="2"/>
<path d="M135.813 20.6767C136.581 20.6767 137.203 20.0552 137.203 19.2886C137.203 18.5219 136.581 17.9004 135.813 17.9004C135.045 17.9004 134.422 18.5219 134.422 19.2886C134.422 20.0552 135.045 20.6767 135.813 20.6767Z" fill="#3C4043"/>
<path d="M145.263 21.1185C146.031 21.1185 146.654 20.497 146.654 19.7303C146.654 18.9637 146.031 18.3422 145.263 18.3422C144.495 18.3422 143.872 18.9637 143.872 19.7303C143.872 20.497 144.495 21.1185 145.263 21.1185Z" fill="#3C4043"/>
<path d="M136.382 42.3511C135.66 42.3459 134.939 42.29 134.225 42.1839C131.273 41.7276 128.541 40.3532 126.418 38.2564C126.245 38.0778 126.149 37.8388 126.151 37.5906C126.154 37.3424 126.253 37.105 126.429 36.9296C126.605 36.7541 126.843 36.6545 127.091 36.6524C127.34 36.6502 127.58 36.7456 127.758 36.918C129.596 38.7301 131.959 39.9181 134.512 40.3134C135.131 40.4047 135.755 40.4531 136.381 40.4582C136.632 40.4582 136.874 40.5579 137.051 40.7354C137.229 40.9129 137.329 41.1536 137.329 41.4047C137.329 41.6557 137.229 41.8964 137.051 42.0739C136.874 42.2514 136.632 42.3511 136.381 42.3511H136.382Z" fill="#3C4043"/>
<path d="M143.145 25.4092C143.114 25.4092 143.082 25.4092 143.049 25.4044L139.351 25.0258C139.227 25.0132 139.107 24.9763 138.997 24.9173C138.887 24.8583 138.791 24.7783 138.712 24.6819C138.633 24.5855 138.574 24.4746 138.539 24.3555C138.503 24.2365 138.491 24.1115 138.504 23.9879C138.517 23.8642 138.554 23.7443 138.613 23.6349C138.672 23.5255 138.752 23.4288 138.849 23.3503C138.945 23.2718 139.056 23.2131 139.176 23.1775C139.295 23.1418 139.42 23.13 139.544 23.1427L141.96 23.39L140.857 17.9635C140.807 17.7175 140.857 17.4617 140.995 17.2524C141.134 17.0432 141.351 16.8975 141.597 16.8476C141.844 16.7977 142.1 16.8476 142.31 16.9863C142.52 17.125 142.665 17.3411 142.715 17.5871L144.075 24.2756C144.103 24.4132 144.1 24.5552 144.066 24.6915C144.032 24.8279 143.969 24.955 143.88 25.0637C143.791 25.1724 143.679 25.26 143.552 25.3202C143.425 25.3803 143.286 25.4114 143.145 25.4114L143.145 25.4092Z" fill="#3C4043"/>
<path d="M122.474 27.9962C121.852 28.0536 121.225 28.0324 120.609 27.9332C119.187 27.7116 117.862 27.0741 116.803 26.1013C115.744 25.1284 114.997 23.8639 114.658 22.4677C114.319 21.0714 114.402 19.6061 114.897 18.2571C115.392 16.908 116.277 15.7358 117.44 14.8887C118.602 14.0416 119.99 13.5575 121.429 13.4979C122.867 13.4382 124.29 13.8055 125.519 14.5534C126.748 15.3012 127.728 16.3961 128.333 17.6994C128.939 19.0028 129.144 20.4561 128.922 21.8757" fill="#FFF1ED"/>
<path d="M121.826 28.9755C121.371 28.9739 120.917 28.9383 120.467 28.8692C118.859 28.6198 117.362 27.9002 116.164 26.8013C114.966 25.7024 114.121 24.2736 113.737 22.6956C113.352 21.1175 113.445 19.4612 114.004 17.936C114.563 16.4108 115.562 15.0853 116.876 14.127C118.19 13.1687 119.758 12.6208 121.384 12.5524C123.01 12.4841 124.619 12.8985 126.009 13.7431C127.398 14.5878 128.506 15.8248 129.191 17.2977C129.876 18.7706 130.108 20.4133 129.858 22.0179C129.842 22.1427 129.801 22.2629 129.737 22.3715C129.673 22.4801 129.589 22.575 129.488 22.6506C129.387 22.7262 129.272 22.781 129.15 22.8117C129.028 22.8425 128.901 22.8486 128.776 22.8297C128.651 22.8108 128.532 22.7673 128.424 22.7018C128.317 22.6362 128.223 22.5499 128.149 22.4479C128.076 22.3458 128.023 22.2302 127.995 22.1076C127.966 21.985 127.962 21.858 127.984 21.734C128.178 20.4992 128 19.2348 127.474 18.1006C126.948 16.9665 126.096 16.0136 125.027 15.3626C123.958 14.7115 122.72 14.3915 121.469 14.4431C120.218 14.4947 119.01 14.9155 117.999 15.6523C116.987 16.3891 116.217 17.4088 115.786 18.5824C115.356 19.756 115.283 21.0307 115.579 22.2454C115.874 23.46 116.523 24.5599 117.445 25.406C118.367 26.2521 119.519 26.8064 120.756 26.9986C121.291 27.0852 121.834 27.1042 122.373 27.0554C122.624 27.0291 122.874 27.103 123.069 27.261C123.265 27.4189 123.39 27.6478 123.416 27.8975C123.442 28.1471 123.368 28.397 123.21 28.5921C123.052 28.7872 122.822 28.9117 122.572 28.938C122.324 28.9635 122.075 28.976 121.826 28.9755Z" fill="#3C4043"/>
<path d="M120.578 23.6743C120.37 23.6746 120.169 23.6071 120.004 23.4823C119.838 23.3574 119.719 23.1819 119.663 22.9827C119.607 22.7836 119.618 22.5716 119.694 22.3793C119.771 22.187 119.908 22.025 120.085 21.9179L122.161 20.6648L118.633 19.0444C118.52 18.9925 118.418 18.9188 118.333 18.8276C118.249 18.7364 118.183 18.6294 118.14 18.5128C118.097 18.3962 118.077 18.2723 118.082 18.1481C118.087 18.0239 118.116 17.9019 118.168 17.7889C118.273 17.5609 118.465 17.3838 118.7 17.2968C118.817 17.2537 118.941 17.234 119.066 17.2387C119.19 17.2435 119.313 17.2727 119.426 17.3247L124.578 19.6909C124.734 19.7627 124.868 19.8757 124.965 20.0178C125.062 20.1598 125.119 20.3256 125.128 20.4972C125.138 20.6688 125.101 20.8399 125.021 20.992C124.94 21.1441 124.82 21.2714 124.673 21.3605L121.069 23.5374C120.921 23.6272 120.751 23.6745 120.578 23.6743Z" fill="#3C4043"/>
<path d="M143.525 28.9745H143.514L137.856 28.9114C137.605 28.91 137.364 28.809 137.187 28.6305C137.01 28.452 136.912 28.2107 136.913 27.9597C136.914 27.7087 137.016 27.4685 137.195 27.292C137.373 27.1155 137.615 27.0171 137.867 27.0184H137.972L143.535 27.0815C143.787 27.0829 144.027 27.184 144.204 27.3624C144.381 27.5409 144.48 27.7822 144.478 28.0332C144.477 28.2843 144.376 28.5244 144.197 28.701C144.018 28.8775 143.776 28.9759 143.525 28.9745H143.525Z" fill="#3C4043"/>
<path d="M153.671 68.8209C144.537 69.7989 138.689 59.5769 144.505 52.6361C144.6 52.5415 144.663 52.4468 144.758 52.3522C147.445 49.3865 149.594 45.9161 148.045 40.395C146.939 36.4829 144.631 30.804 148.488 29.8891C151.143 29.2581 154.114 35.7888 156.485 40.5212C156.358 32.9178 156.2 22.9482 159.74 22.6958C163.28 22.4119 164.102 29.6367 164.134 39.4485C165.999 28.6271 165.43 22.6643 168.875 22.7905C174.533 23.0113 172.099 45.3482 169.096 52.8885L167.516 57.7786C165.588 63.8045 160.12 68.1268 153.671 68.8209Z" fill="#FFF1ED"/>
<path d="M152.506 69.8299C150.46 69.8437 148.448 69.3003 146.688 68.258C144.928 67.2158 143.487 65.7143 142.518 63.915C141.493 62.0409 141.064 59.8995 141.289 57.776C141.514 55.6526 142.381 53.6479 143.777 52.0291C143.794 52.0077 143.813 51.9872 143.833 51.9676C143.859 51.9414 143.88 51.9146 143.902 51.8884C143.954 51.8253 144.006 51.7648 144.067 51.7029C146.892 48.5796 148.492 45.5032 147.131 40.6503C146.996 40.1748 146.843 39.6703 146.686 39.1517C145.771 36.1412 144.735 32.7295 145.953 30.6122C146.201 30.1904 146.535 29.8258 146.934 29.5425C147.333 29.2591 147.787 29.0635 148.267 28.9685C150.936 28.3331 153.268 32.0862 155.493 36.4236C155.486 28.0359 156.114 22.0056 159.671 21.7532C160.115 21.7161 160.561 21.773 160.98 21.9203C161.4 22.0675 161.783 22.3018 162.105 22.6075C163.32 23.7234 164.12 25.8524 164.581 29.4326C165.234 24.5828 165.95 21.7346 168.907 21.846C169.639 21.8747 170.687 22.1829 171.539 23.49C174.962 28.7429 172.599 46.6156 169.987 53.2094L168.417 58.0699C166.38 64.4337 160.631 69.0244 153.771 69.7627C153.351 69.8075 152.929 69.8299 152.506 69.8299ZM145.21 53.2694C144.07 54.6008 143.363 56.2462 143.181 57.9878C142.999 59.7294 143.351 61.4851 144.191 63.0225C146.021 66.4418 149.615 68.3019 153.57 67.8792C159.684 67.2214 164.803 63.1433 166.612 57.4903L168.193 52.5973C168.199 52.5775 168.206 52.5579 168.214 52.5384C170.867 45.8783 172.792 28.8814 169.95 24.5201C169.508 23.8389 169.102 23.7462 168.837 23.7358H168.785C167.269 23.7358 166.893 26.2127 166.197 31.743C165.91 34.0205 165.585 36.6015 165.067 39.6095C165.027 39.843 164.901 40.0531 164.713 40.1982C164.525 40.3433 164.29 40.4128 164.053 40.393C163.816 40.3731 163.596 40.2654 163.435 40.0912C163.274 39.9169 163.185 39.6887 163.184 39.4517C163.166 33.7325 162.9 25.9082 160.822 23.9998C160.692 23.8688 160.534 23.7685 160.359 23.7062C160.185 23.6438 159.999 23.6211 159.815 23.6395C158.823 23.7105 158.047 25.6483 157.679 28.9568C157.296 32.3866 157.368 36.7 157.432 40.5058C157.435 40.7203 157.366 40.9297 157.234 41.0996C157.103 41.2694 156.918 41.3898 156.709 41.4408C156.5 41.4918 156.28 41.4705 156.085 41.3803C155.89 41.2902 155.732 41.1365 155.635 40.9446C155.439 40.5531 155.239 40.149 155.035 39.7375C153.417 36.476 150.408 30.4087 148.706 30.8091C148.479 30.8463 148.262 30.9321 148.07 31.0607C147.879 31.1894 147.718 31.3577 147.598 31.5543C146.788 32.9623 147.737 36.0889 148.501 38.6015C148.662 39.1324 148.819 39.6483 148.957 40.137C150.653 46.1859 148.141 50.0267 145.46 52.9864C145.449 52.998 145.438 53.0097 145.427 53.0207C145.401 53.0469 145.38 53.0737 145.358 53.0996C145.312 53.1574 145.264 53.2135 145.21 53.27L145.21 53.2694Z" fill="#3C4043"/>
<path d="M154.146 119.363C149.301 119.361 144.655 117.439 141.23 114.019C137.804 110.6 135.878 105.963 135.876 101.127V56.99H172.384V101.127C172.389 103.521 171.921 105.892 171.006 108.104C170.092 110.317 168.749 112.328 167.055 114.022C165.361 115.716 163.349 117.059 161.133 117.976C158.918 118.892 156.544 119.364 154.146 119.363Z" fill="#FFED96"/>
<path d="M154.146 120.309C149.051 120.304 144.166 118.281 140.563 114.685C136.96 111.089 134.934 106.213 134.928 101.127V56.9899C134.928 56.7389 135.028 56.4982 135.205 56.3207C135.383 56.1432 135.624 56.0435 135.876 56.0435H172.384C172.635 56.0435 172.876 56.1432 173.054 56.3207C173.232 56.4982 173.332 56.7389 173.332 56.9899V101.127C173.337 103.645 172.845 106.139 171.883 108.467C170.921 110.794 169.508 112.909 167.726 114.691C165.944 116.473 163.827 117.887 161.496 118.851C159.166 119.815 156.668 120.31 154.146 120.309ZM136.824 57.9364V101.127C136.823 104.548 137.839 107.892 139.744 110.735C141.648 113.579 144.355 115.795 147.521 117.102C150.688 118.41 154.172 118.75 157.533 118.08C160.893 117.409 163.979 115.759 166.399 113.337C168.007 111.737 169.28 109.834 170.145 107.738C171.01 105.642 171.448 103.395 171.436 101.129V57.9364H136.824Z" fill="#3C4043"/>
</g>
<defs>
<clipPath id="clip0">
<rect width="185" height="259" fill="white" transform="translate(39)"/>
</clipPath>
</defs>
</svg>
