<svg xmlns="http://www.w3.org/2000/svg" fill="none" viewBox="0 0 528 281"><path fill="#E7F1FF" d="M458.009 39.288v-1.006h-.041L457.961 0H128v281h330.009l-.007-40.532h.007v-1.006h-.007l-.007-39.241h.014v-1.006h-.014l-.007-39.192h.021v-1.006h-.021l-.007-39.239h.028v-1.006h-.028l-.007-39.24h.035v-1.006h-.035l-.007-39.239h.042zm-1.051-38.186v37.18h-39.196V1.102h39.196zm-40.2 0v37.18h-40.486V1.102h40.486zM292.813 119.78h40.965v39.239h-40.965v-39.239zm-1.003 39.239h-40.965v-39.239h40.965v39.239zm1.003-40.245v-39.24h40.965v39.24h-40.965zm-1.003 0h-40.965v-39.24h40.965v39.24zm-41.969 0h-41.014v-39.24h41.013l.001 39.24zm0 1.006v39.239h-41.014v-39.239h41.014zm0 40.245v39.191h-41.014v-39.191h41.014zm1.004 0h40.965v39.191h-40.965v-39.191zm41.968 0h40.965v39.191h-40.965v-39.191zm41.968 0h40.487v39.191h-40.487v-39.191zm0-1.006v-39.239h40.487v39.239h-40.487zm0-40.245v-39.24h40.487v39.24h-40.487zm0-40.246v-39.24h40.487v39.24h-40.487zm-1.003 0h-40.965v-39.24h40.965v39.24zm-41.968 0h-40.965v-39.24h40.965v39.24zm-41.969 0h-41.014v-39.24h41.013l.001 39.24zm-42.015 0h-40.965v-39.24h40.965v39.24zm0 1.006v39.24h-40.965v-39.24h40.965zm0 40.246v39.239h-40.965v-39.239h40.965zm0 40.245v39.191h-40.965v-39.191h40.965zm0 40.198v39.239h-40.965v-39.24l40.965.001zm1.003 0h41.012v39.239h-41.014l.002-39.239zm42.016 0h40.965v39.239h-40.965v-39.239zm41.968 0h40.965v39.239h-40.965v-39.239zm41.968 0h40.487v39.239h-40.487v-39.239zm41.491 0h40.486v39.239h-40.486v-39.239zm0-1.007v-39.191h40.486v39.191h-40.486zm0-40.197v-39.239h40.486v39.239h-40.486zm0-40.245v-39.24h40.486v39.24h-40.486zm0-40.246v-39.24h40.486v39.24h-40.486zm-1.004-77.425v37.18h-40.487V1.102h40.487zm-41.49 0v37.18h-40.965V1.102h40.965zm-41.968 0v37.18h-40.965V1.102h40.965zm-41.969 0v37.18h-41.014V1.102h41.014zm-42.015 0v37.18h-40.965V1.102h40.965zm-78.774 0h36.806v37.18h-36.806V1.102zm0 38.185h36.806v39.24h-36.806v-39.24zm0 40.246h36.806v39.24h-36.806v-39.24zm0 40.246h36.806v39.239h-36.806v-39.239zm0 40.245h36.806v39.191h-36.806v-39.191zm0 40.198h36.806v39.239h-36.806v-39.239zm0 79.724v-39.479h36.806v39.479h-36.806zm37.809 0v-39.479h40.965v39.479h-40.965zm41.968 0v-39.479h41.012v39.479h-41.012zm42.016 0v-39.479h40.965v39.479h-40.965zm41.968 0v-39.479h40.965v39.479h-40.965zm41.968 0v-39.479h40.487v39.479h-40.487zm41.491 0v-39.479h40.486v39.479h-40.486zm80.687 0h-39.197v-39.479h39.196l.001 39.479zm0-40.485h-39.197v-39.24h39.196l.001 39.24zm0-40.245h-39.197v-39.192h39.196l.001 39.192zm0-40.198h-39.197v-39.239h39.196l.001 39.239zm0-40.245h-39.197v-39.24h39.196l.001 39.24zm0-40.246h-39.197v-39.24h39.196l.001 39.24z"/><path fill="#fff" d="M371.127 94.38s-16.678 62.811-16.386 69.527l-.314 67.49.088 13.091h52.668v-71.021l-.068-1.668 10.484 14.493 15.186 60.124 51.058-12.884-16.531-65.441a26.152 26.152 0 0 0-4.711-9.67l-16.809-21.269-18.995-24.035-3.17-4.011-52.5-14.727z"/><path fill="#3C4043" d="M432.786 247.292a.877.877 0 0 1-.851-.662l-15.145-59.961-8.728-12.066v69.885a.877.877 0 0 1-.878.876h-52.668a.878.878 0 0 1-.877-.871l-.088-13.09.313-67.481c-.259-6.881 15.733-67.2 16.415-69.767a.88.88 0 0 1 1.085-.62l52.502 14.727c.179.05.337.155.452.301l38.974 49.314a27.22 27.22 0 0 1 4.873 10.001l16.532 65.439a.873.873 0 0 1-.636 1.064l-51.059 12.884a.87.87 0 0 1-.216.027zm-25.67-76.37a.876.876 0 0 1 .712.363l10.484 14.493a.9.9 0 0 1 .14.299l14.971 59.274 49.356-12.454-16.318-64.592a25.421 25.421 0 0 0-4.553-9.347l-38.793-49.086-51.368-14.408c-5.809 21.921-16.353 63.267-16.129 68.405v.042l-.313 67.49.082 12.21h50.918v-70.126l-.067-1.65a.878.878 0 0 1 .878-.912v-.001z"/><path fill="#E7F1FF" d="M404.522 276.069l.038-31.582h-44.553c-3.079 7.98-10.646 12.202-19.71 14.111-7.979 1.681-13.109 8.94-12.494 17.12v.38l51.204-.029 8.456-13.702-.175 13.702h17.234z"/><path fill="#3C4043" d="M327.805 276.974a.879.879 0 0 1-.878-.876v-.347c-.638-8.694 4.905-16.265 13.19-18.01 9.994-2.104 16.411-6.671 19.072-13.568a.88.88 0 0 1 .819-.562h44.554a.881.881 0 0 1 .878.877l-.039 31.581a.877.877 0 0 1-.877.876H387.29a.89.89 0 0 1-.339-.067.897.897 0 0 1-.476-.481.876.876 0 0 1-.063-.339l.135-10.532-6.791 11.003a.872.872 0 0 1-.746.416l-51.205.03v-.001zm32.796-31.61c-3.01 7.173-9.776 11.912-20.121 14.091-7.288 1.536-12.204 8.127-11.827 15.766l49.866-.03 8.199-13.284a.875.875 0 0 1 .992-.382.88.88 0 0 1 .633.853l-.164 12.814h15.468l.036-29.828h-43.082z"/><path fill="#E7F1FF" d="M478.55 234.868c1.313 7.104 5.993 11.338 14.365 9.825l15.595-2.308c8.047-1.432 15.625 2.717 18.463 10.4l.146.351-50.414 22.933-24.491-13.701.176 13.701h-17.234l-.037-30.241 43.431-10.96z"/><path fill="#3C4043" d="M452.391 276.945h-17.234a.877.877 0 0 1-.878-.876l-.037-30.242a.877.877 0 0 1 .663-.851l43.431-10.958a.872.872 0 0 1 .689.112.877.877 0 0 1 .39.579c1.33 7.197 6.07 10.435 13.344 9.12l15.624-2.312c8.473-1.506 16.461 2.992 19.408 10.947l.139.334a.874.874 0 0 1-.446 1.135l-50.414 22.933a.88.88 0 0 1-.793-.033l-23.164-12.959.156 12.182a.877.877 0 0 1-.878.888v.001zm-16.356-1.753h15.468l-.164-12.814a.875.875 0 0 1 .867-.887.868.868 0 0 1 .44.112l24.102 13.484 49.248-22.403c-2.761-6.903-9.824-10.77-17.33-9.436l-15.621 2.312c-7.922 1.431-13.413-2.064-15.165-9.618l-41.881 10.567.036 28.683z"/><path fill="#FFDA2D" d="M358.113 264.536a3.246 3.246 0 0 1-2.347-1.018 3.314 3.314 0 0 1-.885-2.776v-.002l1.539-10.454-12.734 1.417a3.32 3.32 0 0 1-3.471-2.133l-.067-.184a3.34 3.34 0 0 1 .632-3.389 3.342 3.342 0 0 1 3.298-1.022l13.613 3.443a.884.884 0 0 1 .4.224c.11.109.19.245.231.395l3.089 11.28a3.356 3.356 0 0 1-1.604 3.793 3.319 3.319 0 0 1-1.394.412c-.1.01-.2.014-.3.014zm-1.495-3.541a1.579 1.579 0 0 0 .419 1.315 1.514 1.514 0 0 0 1.232.467 1.583 1.583 0 0 0 1.472-1.302 1.6 1.6 0 0 0-.027-.702l-1.992-7.275-1.104 7.497zm-13.359-14.371a1.598 1.598 0 0 0-1.556 1.398c-.03.253 0 .51.089.748l.073.201a1.552 1.552 0 0 0 1.634.989l9.126-1.015-8.978-2.272a1.637 1.637 0 0 0-.388-.049z"/><path fill="#3C4043" d="M424.292 194.625a.863.863 0 0 1-.358-.077.867.867 0 0 1-.296-.216l-6.69-7.456a.868.868 0 0 1-.242-.639.872.872 0 0 1 .939-.84.879.879 0 0 1 .61.311l6.691 7.456a.875.875 0 0 1-.654 1.461z"/><path fill="#FFDA2D" d="M487.6 261.291a4.021 4.021 0 0 1-4.024-3.912l-.384-13.902a.879.879 0 0 1 .302-.687l8.094-7.009a4.01 4.01 0 0 1 3.462-.92 4.017 4.017 0 0 1 2.818 2.209 3.998 3.998 0 0 1-.072 3.576 4.008 4.008 0 0 1-2.904 2.094l-8.232 1.383 5.129 11.376a4.036 4.036 0 0 1-.121 3.538 4.047 4.047 0 0 1-2.863 2.089l-.507.104-.029.005a4.054 4.054 0 0 1-.669.056zm-2.619-16.622l.351 12.66a2.268 2.268 0 0 0 2.633 2.18l.51-.104a2.305 2.305 0 0 0 1.65-1.2 2.253 2.253 0 0 0 .065-1.987l-5.209-11.549zm9.243-8.126a2.267 2.267 0 0 0-1.487.563l-6.043 5.234 7.909-1.329h.006a2.252 2.252 0 0 0 1.87-2.134 2.253 2.253 0 0 0-2.255-2.334z"/><path fill="#FFED96" d="M375.653 78.342l-43.304 12.04a15.024 15.024 0 0 1-11.661-1.424 14.524 14.524 0 0 1-6.818-9.481l-8.577-42.36c-.382-1.904 5.835-4.35 6.145-6.135.371-2.137 3.673-4.903 5.559-6.72l19.019 6.72 4.974 23.08 42.089-11a36.77 36.77 0 0 1 18.658.603l10.999 3.27 15.705 4.569 10.607 3.086a15.436 15.436 0 0 1 9.89 8.53l22.208 46.716a14.963 14.963 0 0 1 .585 11.715 14.54 14.54 0 0 1-8.193 8.326l-43.07 17.295a15.16 15.16 0 0 1-5.472 1.052c-2.172 0-4.638-.931-6.752-2.476l4.445-26.96 25.247-10.15-5.384-10.898-8.924 11.365-52.5-14.727 4.525-16.036z"/><path fill="#3C4043" d="M414.997 149.101c-2.321 0-4.972-.965-7.271-2.646a.883.883 0 0 1-.347-.85l4.445-26.957a.877.877 0 0 1 .538-.672l24.368-9.798-4.347-8.8-8.064 10.268a.872.872 0 0 1-.928.303L370.89 95.223a.876.876 0 0 1-.608-1.081l4.102-14.537-41.8 11.622a15.962 15.962 0 0 1-12.335-1.51 15.461 15.461 0 0 1-4.673-4.272 15.425 15.425 0 0 1-2.565-5.785l-8.579-42.369c-.32-1.595 1.559-2.892 3.548-4.265.936-.647 2.506-1.73 2.592-2.193.366-2.107 2.878-4.451 4.897-6.335.328-.306.639-.597.919-.866a.877.877 0 0 1 .902-.195l19.019 6.72a.873.873 0 0 1 .565.642l4.781 22.184 41.201-10.767a37.751 37.751 0 0 1 19.132.61l10.999 3.27 26.307 7.654a16.395 16.395 0 0 1 10.444 9.01l22.201 46.7a15.89 15.89 0 0 1 .616 12.392 15.464 15.464 0 0 1-8.688 8.838l-43.07 17.295a16.038 16.038 0 0 1-5.8 1.116zm-5.797-3.754c1.894 1.276 3.981 2.001 5.797 2.001a14.283 14.283 0 0 0 5.155-.994l43.059-17.29a13.702 13.702 0 0 0 7.699-7.823 14.127 14.127 0 0 0-.552-11.022l-22.212-46.722a14.661 14.661 0 0 0-9.34-8.063l-26.316-7.657-11.003-3.272a35.965 35.965 0 0 0-18.214-.588L341.212 54.91a.883.883 0 0 1-.939-.341.87.87 0 0 1-.142-.322l-4.87-22.601-18.049-6.377-.545.51c-1.633 1.524-4.1 3.827-4.365 5.353-.205 1.183-1.651 2.181-3.324 3.336-.707.488-2.86 1.974-2.824 2.479l8.576 42.356a13.692 13.692 0 0 0 6.403 8.9 14.2 14.2 0 0 0 10.971 1.338l43.313-12.043a.88.88 0 0 1 1.084.622c.04.15.038.309-.004.459L372.21 93.77l51.09 14.331 8.562-10.903a.878.878 0 0 1 1.478.153l5.384 10.897a.888.888 0 0 1 .033.701.875.875 0 0 1-.492.5l-24.789 9.966-4.276 25.932z"/><path fill="#5A38FD" d="M307.834 52.12a10.284 10.284 0 0 1 15.239-.316 10.243 10.243 0 0 1-1.238 15.168 10.278 10.278 0 0 1-10.817 1.034M351.164 85.501a10.274 10.274 0 0 1-5.76-3.516 10.242 10.242 0 0 1-.224-12.73 10.286 10.286 0 0 1 12.359-3.139 10.266 10.266 0 0 1 4.915 4.62 10.243 10.243 0 0 1-2.397 12.507"/><path fill="#3C4043" d="M432.522 98.618a.881.881 0 0 1-.788-.495.879.879 0 0 1 .1-.924l3.98-5.054a.868.868 0 0 1 .585-.328.88.88 0 0 1 .976.766.872.872 0 0 1-.181.646l-3.98 5.054a.87.87 0 0 1-.692.335zM437.907 109.515a.881.881 0 0 1-.865-.725.878.878 0 0 1 .566-.976l3.716-1.343a.883.883 0 0 1 .956.227.882.882 0 0 1 .23.635.876.876 0 0 1-.588.786l-3.716 1.343a.872.872 0 0 1-.299.053zM371.128 95.256a.88.88 0 0 1-.866-.733.873.873 0 0 1 .028-.406l8.486-26.878a.871.871 0 0 1 .431-.517.883.883 0 0 1 .972.106.883.883 0 0 1 .31.598.893.893 0 0 1-.039.34l-8.485 26.878a.88.88 0 0 1-.837.612zM336.308 56.4a.877.877 0 0 1-.262-1.713l4.682-1.461a.88.88 0 0 1 1.095.577.877.877 0 0 1-.572 1.096l-4.681 1.46a.885.885 0 0 1-.262.04z"/><path fill="#3C4043" d="M414.997 149.101c-2.321 0-4.972-.965-7.271-2.646a.883.883 0 0 1-.347-.85l4.445-26.957a.877.877 0 0 1 .538-.672l24.368-9.798-4.347-8.8-8.064 10.268a.872.872 0 0 1-.928.303L370.89 95.223a.876.876 0 0 1-.608-1.081l4.102-14.537-41.8 11.622a15.962 15.962 0 0 1-12.335-1.51 15.461 15.461 0 0 1-4.673-4.272 15.425 15.425 0 0 1-2.565-5.785l-8.579-42.369c-.32-1.595 1.559-2.892 3.548-4.265.936-.647 2.506-1.73 2.592-2.193.366-2.107 2.878-4.451 4.897-6.335.328-.306.639-.597.919-.866a.877.877 0 0 1 .902-.195l19.019 6.72a.873.873 0 0 1 .565.642l4.781 22.184 41.201-10.767a37.751 37.751 0 0 1 19.132.61l10.999 3.27 26.307 7.654a16.395 16.395 0 0 1 10.444 9.01l22.201 46.7a15.89 15.89 0 0 1 .616 12.392 15.464 15.464 0 0 1-8.688 8.838l-43.07 17.295a16.038 16.038 0 0 1-5.8 1.116zm-5.797-3.754c1.894 1.276 3.981 2.001 5.797 2.001a14.283 14.283 0 0 0 5.155-.994l43.059-17.29a13.702 13.702 0 0 0 7.699-7.823 14.127 14.127 0 0 0-.552-11.022l-22.212-46.722a14.661 14.661 0 0 0-9.34-8.063l-26.316-7.657-11.003-3.272a35.965 35.965 0 0 0-18.214-.588L341.212 54.91a.883.883 0 0 1-.939-.341.87.87 0 0 1-.142-.322l-4.87-22.601-18.049-6.377-.545.51c-1.633 1.524-4.1 3.827-4.365 5.353-.205 1.183-1.651 2.181-3.324 3.336-.707.488-2.86 1.974-2.824 2.479l8.576 42.356a13.692 13.692 0 0 0 6.403 8.9 14.2 14.2 0 0 0 10.971 1.338l43.313-12.043a.88.88 0 0 1 1.084.622c.04.15.038.309-.004.459L372.21 93.77l51.09 14.331 8.562-10.903a.878.878 0 0 1 1.478.153l5.384 10.897a.888.888 0 0 1 .033.701.875.875 0 0 1-.492.5l-24.789 9.966-4.276 25.932z"/><path fill="#FFF1ED" d="M438.74 19.556a6.278 6.278 0 0 1 .249 12.034l-4.368-9.955 4.119-2.08z"/><path fill="#3C4043" d="M438.989 32.466a.88.88 0 0 1-.805-.526l-4.368-9.955a.875.875 0 0 1 .408-1.134l4.119-2.08a.877.877 0 0 1 .63-.062 7.172 7.172 0 0 1 3.746 2.507 7.154 7.154 0 0 1-3.461 11.207.875.875 0 0 1-.269.043zm-3.232-10.424l3.694 8.418a5.41 5.41 0 0 0 3.008-5.191 5.412 5.412 0 0 0-3.64-4.771l-3.062 1.544z"/><path fill="#FFF1ED" d="M415.019 25.431a12.376 12.376 0 0 0 .187 6.26l-2.755 16.998a8.091 8.091 0 0 0 1.438 6.037 8.117 8.117 0 0 0 5.292 3.254 8.129 8.129 0 0 0 6.046-1.436 8.108 8.108 0 0 0 3.259-5.284l1.8-11.113a12.371 12.371 0 0 0 8.288-7.348 12.352 12.352 0 0 0-.927-11.028c.524-.84.946-1.738 1.255-2.678.529-1.605.531-3.756.4-5.348l-.877-3.798-17.849-3.506-5.557 18.99z"/><path fill="#3C4043" d="M420.513 58.966a9.05 9.05 0 0 1-6.864-3.156 9.018 9.018 0 0 1-2.065-7.258l2.724-16.81a13.267 13.267 0 0 1-.144-6.507l.013-.05 5.557-18.989a.878.878 0 0 1 1.012-.614l17.848 3.506a.872.872 0 0 1 .686.663l.878 3.798c.01.041.016.083.02.125.106 1.303.191 3.775-.442 5.694a13.188 13.188 0 0 1-1.07 2.408 13.215 13.215 0 0 1 .729 11.33 13.226 13.226 0 0 1-3.293 4.8 13.269 13.269 0 0 1-5.037 2.927L429.353 51.4a8.987 8.987 0 0 1-3.658 5.894 8.874 8.874 0 0 1-5.182 1.672zm-4.644-33.313a11.506 11.506 0 0 0 .178 5.79.873.873 0 0 1 .025.388l-2.754 16.999a7.23 7.23 0 0 0 1.285 5.38 7.253 7.253 0 0 0 4.716 2.905 7.14 7.14 0 0 0 5.354-1.245 7.242 7.242 0 0 0 2.947-4.752l1.8-11.111a.88.88 0 0 1 .639-.707 11.5 11.5 0 0 0 7.699-6.826 11.48 11.48 0 0 0-.859-10.245.872.872 0 0 1 .004-.92c.486-.78.878-1.615 1.166-2.488.387-1.175.519-2.973.364-4.94l-.736-3.182-16.502-3.242-5.326 18.195z"/><path fill="#fff" d="M415.049 12.71c.095-.45.215-.901.359-1.357a12.327 12.327 0 0 1 2.376-4.196 12.366 12.366 0 0 1 8.457-4.254 12.38 12.38 0 0 1 4.791.59c4.184 1.374 8.183 4.672 8.515 10.752a2.297 2.297 0 0 0-.987-1.888 2.304 2.304 0 0 0-2.115-.274 4.001 4.001 0 0 1-4.506-1.198l-1.082-1.344a4.733 4.733 0 0 0-5.794-1.256 4.857 4.857 0 0 0-2.633 3.594l-1.639 11.306-3.033-.373"/><path fill="#3C4043" d="M420.792 24.061a.851.851 0 0 1-.108-.006l-3.033-.373a.875.875 0 0 1 .214-1.74l2.18.268 1.516-10.457a5.727 5.727 0 0 1 3.109-4.252 5.593 5.593 0 0 1 6.868 1.487l1.085 1.348a3.11 3.11 0 0 0 3.509.928 3.18 3.18 0 0 1 1.969-.081c-1.413-4.262-5.038-6.1-7.344-6.857a11.524 11.524 0 0 0-8.77.654 11.494 11.494 0 0 0-5.747 6.646c-.137.439-.247.854-.333 1.263a.882.882 0 0 1-.379.554.87.87 0 0 1-.66.125.875.875 0 0 1-.679-1.038c.097-.466.222-.937.38-1.44a13.252 13.252 0 0 1 6.622-7.67 13.285 13.285 0 0 1 10.114-.759c5.38 1.766 8.678 5.835 9.095 11.197.016.128.023.258.023.387a.878.878 0 0 1-.853.876.864.864 0 0 1-.901-.828c-.005-.088-.01-.174-.017-.26a1.419 1.419 0 0 0-.683-1.014 1.434 1.434 0 0 0-1.219-.114 4.87 4.87 0 0 1-5.49-1.461l-1.089-1.352a3.845 3.845 0 0 0-4.717-1.023 3.961 3.961 0 0 0-2.157 2.941l-1.639 11.301a.878.878 0 0 1-.866.75z"/><path fill="#FFF1ED" d="M412.103 25.843c3.749 0 6.788-3.034 6.788-6.778 0-3.743-3.039-6.777-6.788-6.777s-6.789 3.034-6.789 6.777c0 3.744 3.04 6.778 6.789 6.778z"/><path fill="#3C4043" d="M412.102 26.72a7.671 7.671 0 0 1-7.083-4.726 7.643 7.643 0 0 1 1.662-8.341 7.67 7.67 0 0 1 8.354-1.66 7.65 7.65 0 0 1 4.733 7.072 7.661 7.661 0 0 1-2.248 5.41 7.68 7.68 0 0 1-5.418 2.244zm0-13.556a5.918 5.918 0 0 0-3.284.994 5.901 5.901 0 0 0-2.513 6.058 5.902 5.902 0 0 0 4.644 4.637 5.916 5.916 0 0 0 6.067-2.51c.649-.97.996-2.11.996-3.278a5.904 5.904 0 0 0-1.733-4.17 5.921 5.921 0 0 0-4.177-1.731z"/><path fill="#3C4043" d="M413.563 19.942a.878.878 0 0 1-.549-.193l-3.248-2.6a.876.876 0 1 1 1.098-1.368l3.248 2.6a.876.876 0 0 1-.55 1.561h.001z"/><path fill="#fff" d="M104.627 101.196c-4.403 4.594-9.858 7.606-15.685 9.035-11.085 2.719-23.519-.289-32.631-9.025-13.903-13.327-14.812-34.94-2.03-48.274 12.434-12.97 30.032-14.636 43.954-2.376"/><path fill="#3C4043" d="M105.219 101.764a33.12 33.12 0 0 1-16.055 9.247c-5.668 1.391-11.704 1.314-17.455-.221-5.93-1.583-11.443-4.701-15.943-9.015-14.208-13.62-15.14-35.785-2.078-49.41 13.085-13.65 31.195-14.615 45.065-2.401.34.3.384.807.097 1.135-.285.326-.793.35-1.133.05C84.552 39.556 67.335 40.5 54.873 53.5c-12.461 13-11.572 34.145 1.982 47.139 8.648 8.29 20.56 11.584 31.864 8.811a31.601 31.601 0 0 0 15.316-8.822c.301-.314.809-.314 1.137 0 .327.314.348.822.047 1.136zM427.075 41.433a13.302 13.302 0 0 1-7.768-2.527.88.88 0 0 1-.332-.915.87.87 0 0 1 .398-.54.875.875 0 0 1 .974.043 11.469 11.469 0 0 0 9.695 1.789.88.88 0 0 1 1.102.956.888.888 0 0 1-.334.582.876.876 0 0 1-.306.153 13.057 13.057 0 0 1-3.429.46zM434.661 25.346h-.043l-4.184-.204a.878.878 0 0 1-.538-1.519.878.878 0 0 1 .623-.232l3.115.152-1.012-6.742a.875.875 0 0 1 .739-.997.88.88 0 0 1 .998.737l1.17 7.8a.871.871 0 0 1-.203.702.87.87 0 0 1-.665.305v-.002zM433.08 31.16a.852.852 0 0 1-.122-.009l-4.623-.642a.886.886 0 0 1-.58-.34.884.884 0 0 1-.168-.65.865.865 0 0 1 .34-.578.88.88 0 0 1 .65-.168l4.623.642a.88.88 0 0 1 .756.929.877.877 0 0 1-.876.816zM428.048 17.459a.935.935 0 1 0 .001-1.871.935.935 0 0 0-.001 1.87zM436.475 19.533a.936.936 0 0 0 .937-.935.936.936 0 0 0-1.873 0c0 .516.419.935.936.935z"/><path fill="#FFF1ED" d="M328.582 16.63c-1.785 8.764-4.038 16.419-7.461 17.178-3.043.672-3.453-3.885-2.341-15.338-3.102 10.84-4.887 13.644-8.047 14.14-3.16.497-3.591-5.784-1.133-14.14-2.461 6.546-2.992 7.771-5.04 8.414-2.458.76-2.78-3.885-1.902-8.384l.029-.351c.614-4.879 3.599-5.99 6.027-5.96 1.469.03 2.927-.259 4.272-.847a7.145 7.145 0 0 1 4.623-.468c1.691.424 3.46.424 5.15 0 2.399-.642 5.15-.76 7.022 1.315 2.4 2.63 6.235 7.984 6.235 7.984l.292-.292-4.291 2.505 13.363-7.667c1.971-1.13 4.119 1.172 2.85 3.055l-5.28 7.835c-2.686 1.957-9.184 8.372-14.828 12.13-1.194 4.972-6.435 8.574-12.551 8.306-6.813-.298-12.128-5.282-11.871-11.134.1-2.279 1.785-7.05 2.931-9.575"/><path fill="#3C4043" d="M316.214 46.936c-.226 0-.453-.005-.68-.015a14.235 14.235 0 0 1-9.15-3.721c-2.431-2.28-3.695-5.238-3.56-8.326.076-1.726.958-4.65 1.875-7.117a2.172 2.172 0 0 1-2.067-.462c-1.614-1.446-1.496-5.544-.844-8.915l.025-.303c0-.012.002-.025.004-.037.76-6.037 4.95-6.727 6.819-6.727h.09a9.189 9.189 0 0 0 3.89-.766 8.016 8.016 0 0 1 5.197-.525 9.657 9.657 0 0 0 4.727.004c3.453-.926 6.113-.397 7.894 1.578 1.91 2.093 4.661 5.81 5.789 7.36l8.72-5.004a3.028 3.028 0 0 1 3.719.56c.465.5.748 1.14.802 1.82a3.022 3.022 0 0 1-.506 1.924l-5.279 7.834a.87.87 0 0 1-.211.22c-.954.694-2.461 2.02-4.207 3.555-3.052 2.685-6.831 6.01-10.372 8.407-1.411 5.11-6.623 8.656-12.675 8.656zm-9.007-20.73c-1.094 2.542-2.542 6.776-2.629 8.744-.113 2.57.956 5.047 3.008 6.972a12.48 12.48 0 0 0 8.024 3.248c5.632.25 10.537-2.965 11.659-7.636a.875.875 0 0 1 .366-.526c3.523-2.345 7.372-5.73 10.465-8.451 1.707-1.5 3.19-2.805 4.207-3.564l5.196-7.71a1.262 1.262 0 0 0-.124-1.57 1.269 1.269 0 0 0-1.56-.235l-9.074 5.207-.108.108a.878.878 0 0 1-.517.25l-3.665 2.104a.88.88 0 0 1-1.289-.983.878.878 0 0 1 .408-.533l3.102-1.812c-1.182-1.615-3.778-5.105-5.542-7.039-1.324-1.466-3.333-1.811-6.145-1.058-1.832.464-3.75.466-5.583.005a6.265 6.265 0 0 0-4.054.413 10.927 10.927 0 0 1-4.637.925c-2.044-.02-4.603.855-5.154 5.176l-.028.332a.759.759 0 0 1-.013.095c-.735 3.766-.432 6.68.284 7.322.07.063.176.157.498.059a2.72 2.72 0 0 0 1.541-1.096.894.894 0 0 1 .149-.217c.677-1.04 1.416-2.924 2.788-6.573a.878.878 0 0 1 1.664.555c-2.052 6.974-1.814 11.484-.724 12.723a.875.875 0 0 0 .878.305c2.513-.395 4.17-2.44 7.338-13.516a.88.88 0 0 1 1.718.325c-.579 5.96-1.054 12.967.409 14.263.138.122.362.247.868.135 3.594-.797 5.999-12.614 6.791-16.497a.88.88 0 0 1 1.592-.308.87.87 0 0 1 .128.659c-2.399 11.786-4.831 17.127-8.131 17.859a2.613 2.613 0 0 1-2.411-.536c-1.213-1.073-1.697-3.45-1.53-8.327-1.998 5.391-3.744 7.24-6.5 7.674a2.607 2.607 0 0 1-2.47-.88c-1.11-1.261-1.396-3.643-1.193-6.39z"/><path fill="#FFED96" d="M104.381 105.245l-4.311 15.218-3.122-.925h-.016L71.16 112.32l6.68-24.068c1.588-6.94 7.178-12.25 14.738-12.25h41.591c5.408 0 9.226 2.21 11.654 5.982l30.523 45.581 30.918 48.639-5.649-1.492-107.917-43.566 2.676-11.638 3.568.895 4.439-15.158z"/><path fill="#3C4043" d="M207.263 177.1a.874.874 0 0 1-.227-.03l-5.648-1.492a.944.944 0 0 1-.106-.036L93.365 131.976a.895.895 0 0 1-.535-1.032l2.51-10.921-24.42-6.841a.899.899 0 0 1-.62-1.102l6.675-24.048c1.779-7.733 8.046-12.926 15.603-12.926h41.591c5.5 0 9.674 2.15 12.403 6.39l30.513 45.566 30.931 48.66a.897.897 0 0 1-.752 1.376l-.001.002zm-5.367-3.239l3.389.895-29.692-46.711-30.51-45.562c-2.389-3.711-6.058-5.586-10.914-5.586H92.578c-6.714 0-12.288 4.643-13.87 11.554a.594.594 0 0 1-.01.04l-6.44 23.206 24.866 6.964c.027.006.053.012.077.019l2.13.631 4.194-14.319a.894.894 0 0 1 1.103-.607.893.893 0 0 1 .61 1.105l-4.31 15.218a.92.92 0 0 1-.16.313.91.91 0 0 1-.602.332.894.894 0 0 1-.349-.031l-.637-.189-2.14-.537-2.3 10.003 107.156 43.262z"/><path fill="#E7F1FF" d="M213.527 233.739a22.876 22.876 0 0 0 5.827 11.239 22.744 22.744 0 0 0 10.899 6.394l24.943 7.221c8.026 2.059 13.318 9.131 12.694 17.486v.388l-56.307-.029-24.883-13.995.178 13.995h-17.511l-.035-29.142 44.195-13.557z"/><path fill="#3C4043" d="M267.891 277.362l-56.307-.029a.897.897 0 0 1-.435-.114l-23.537-13.237.159 12.445a.886.886 0 0 1-.892.906h-17.51a.89.89 0 0 1-.892-.895l-.036-29.141a.896.896 0 0 1 .632-.858l44.194-13.556a.882.882 0 0 1 .717.087.894.894 0 0 1 .418.591 21.93 21.93 0 0 0 5.594 10.808 21.81 21.81 0 0 0 10.481 6.137l24.967 7.228c8.478 2.174 13.97 9.732 13.339 18.38v.353a.897.897 0 0 1-.892.895zm-56.074-1.82l55.212.03c.366-7.595-4.536-14.183-12.053-16.111l-24.969-7.228a23.548 23.548 0 0 1-10.974-6.286 23.687 23.687 0 0 1-6.165-11.07l-42.642 13.082.035 27.583h15.716l-.168-13.087a.893.893 0 0 1 1.328-.793l24.68 13.88z"/><path fill="#fff" d="M93.766 130.997l54.632-.746.753.062 3.211 2.471 32.63 24.77c18.108 12.98 16.919 18.948 19.354 30.059l3.534 15.558 9.737 31.998-51.164 15.696-16.588-54.488-11.826-6.535-44.273-58.845z"/><path fill="#3C4043" d="M166.453 251.76a.893.893 0 0 1-.853-.634l-16.483-54.14-11.509-6.36a.893.893 0 0 1-.282-.244l-44.273-58.845a.896.896 0 0 1 .7-1.435l54.633-.746a.61.61 0 0 1 .085.003l.752.062a.894.894 0 0 1 .47.181l3.211 2.471 32.625 24.768c16.049 11.504 17.238 17.814 18.884 26.546.242 1.287.493 2.618.803 4.035l3.525 15.519 9.728 31.969a.899.899 0 0 1-.592 1.118l-51.164 15.696a.883.883 0 0 1-.26.036zm-27.818-62.611l11.659 6.443c.203.113.355.3.423.523l16.328 53.632 49.458-15.172-9.476-31.145a.629.629 0 0 1-.017-.062l-3.534-15.556c-.318-1.45-.571-2.793-.816-4.093-1.627-8.632-2.701-14.335-18.187-25.437l-32.65-24.786-3.007-2.314-.449-.037-52.829.724 43.097 57.28z"/><path fill="#fff" d="M139.804 167.151l-2.843 31.254a26.95 26.95 0 0 1-4.515 12.465 26.828 26.828 0 0 1-9.903 8.781l-55.594 28.617-24.437-47.774 42.631-21.962 2.115-21.407"/><path fill="#3C4043" d="M154.276 196.854a.888.888 0 0 1-.88-1.035.9.9 0 0 1 .217-.459l6.534-7.296a.89.89 0 0 1 1.554.551.896.896 0 0 1-.227.646l-6.534 7.294a.896.896 0 0 1-.664.299zM157.962 200.178a.89.89 0 0 1-.814-.531.89.89 0 0 1 .151-.963l6.534-7.296a.89.89 0 0 1 1.554.551.897.897 0 0 1-.228.646l-6.533 7.296a.895.895 0 0 1-.664.297zM67.248 249.163a.89.89 0 0 1-.794-.487l-24.438-47.773a.902.902 0 0 1 .114-.989.907.907 0 0 1 .273-.217l42.2-21.738 2.066-20.922a.895.895 0 0 1 .976-.803.892.892 0 0 1 .8.979l-2.115 21.408a.9.9 0 0 1-.48.708l-41.838 21.553 23.623 46.182 54.8-28.208a25.814 25.814 0 0 0 9.584-8.481 25.949 25.949 0 0 0 4.354-12.057l2.843-31.248a.883.883 0 0 1 .315-.611.88.88 0 0 1 .654-.206.878.878 0 0 1 .607.321.907.907 0 0 1 .2.659l-2.843 31.255a27.75 27.75 0 0 1-4.652 12.892 27.615 27.615 0 0 1-10.247 9.068l-55.593 28.617a.88.88 0 0 1-.409.098z"/><path fill="#FFF1ED" d="M424.596 135.749c-.117 9.963-12.289 14.988-19.253 7.83-.088-.088-.176-.204-.264-.292-2.984-3.272-6.524-6.048-12.932-5.054-4.506.701-11.148 2.454-11.675-1.812-.351-2.95 7.315-5.317 12.904-7.274-8.486-.818-19.604-1.928-19.429-5.785.146-3.856 8.31-3.798 19.282-2.629-11.821-3.389-18.521-3.535-17.936-7.216.966-6.077 25.602-.584 33.59 3.593l5.238 2.308a17.67 17.67 0 0 1 7.685 6.601 17.637 17.637 0 0 1 2.79 9.73z"/><path fill="#3C4043" d="M413.204 147.828a11.78 11.78 0 0 1-8.492-3.638c-.05-.05-.11-.117-.169-.187-.029-.034-.057-.068-.086-.097l-.029-.029c-3.195-3.503-6.481-5.659-12.149-4.778a98.85 98.85 0 0 0-1.695.285c-3.479.605-7.422 1.29-9.558-.291a3.593 3.593 0 0 1-1.427-2.564c-.355-2.982 4.447-5.028 9.75-6.909-9.583-1.041-16.457-2.431-16.281-6.297a3.18 3.18 0 0 1 1.159-2.366c1.496-1.293 4.374-1.873 9.341-1.79-2.784-.67-5.003-1.232-6.519-1.924-.747-.341-3.02-1.379-2.625-3.863.117-.73.556-1.753 1.989-2.472 6.042-3.03 25.962 1.826 32.848 5.413l5.211 2.297a18.512 18.512 0 0 1 8.074 6.925 18.468 18.468 0 0 1 2.924 10.218 11.993 11.993 0 0 1-2.122 6.78 12.031 12.031 0 0 1-5.587 4.397 12.308 12.308 0 0 1-4.557.89zm-7.488-5.144c.053.054.107.117.16.178.03.034.059.068.088.097a10.09 10.09 0 0 0 11.148 2.351 10.295 10.295 0 0 0 4.787-3.764 10.277 10.277 0 0 0 1.82-5.807 16.718 16.718 0 0 0-2.647-9.25 16.76 16.76 0 0 0-7.307-6.27l-5.235-2.308a.86.86 0 0 1-.053-.025c-7.159-3.744-26.25-7.932-31.271-5.413-.931.467-1.017 1.004-1.045 1.18-.284 1.788 2.46 2.524 8.693 4.017 2.5.599 5.334 1.278 8.619 2.221a.879.879 0 0 1 .621 1.011.88.88 0 0 1-.957.703c-6.487-.691-15.386-1.373-17.758.677a1.48 1.48 0 0 0-.401.495 1.48 1.48 0 0 0-.153.619c-.031.684.68 1.991 5.783 3.143 3.839.867 8.836 1.349 12.853 1.736a.875.875 0 0 1 .206 1.699c-.472.166-.96.334-1.456.506-4.153 1.435-11.104 3.837-10.866 5.839a1.855 1.855 0 0 0 .73 1.366c1.531 1.133 5.235.489 8.212-.029a94.64 94.64 0 0 1 1.726-.29c6.808-1.055 10.61 1.93 13.703 5.318z"/><path fill="#E7F1FF" d="M65.713 245.267l-2.716 5.955a7.166 7.166 0 0 0 .501 6.817 7.123 7.123 0 0 0 2.575 2.399 7.076 7.076 0 0 0 3.405.87c9.216-.059 16.827 7.58 16.44 16.83 0 .209-.03.418-.03.627l-37.607.388a19.462 19.462 0 0 1-13.485-5.446 19.606 19.606 0 0 1-5.988-13.294l-.951-22.768-16.292 13.13L.893 236.869l43.232-33.806 21.588 42.204z"/><path fill="#3C4043" d="M48.29 280.048a20.306 20.306 0 0 1-14.121-5.676 20.457 20.457 0 0 1-6.253-13.919l-.877-21-14.916 12.021a.884.884 0 0 1-.664.191.884.884 0 0 1-.6-.343L.185 237.417a.9.9 0 0 1 .158-1.254l43.233-33.805a.89.89 0 0 1 1.341.298l21.587 42.202a.902.902 0 0 1 .017.782l-2.716 5.956a6.262 6.262 0 0 0 .442 5.96 6.229 6.229 0 0 0 2.252 2.097c.914.5 1.937.761 2.978.76h.11c2.329.006 4.633.481 6.777 1.396a17.425 17.425 0 0 1 5.702 3.932 16.758 16.758 0 0 1 3.652 5.717 16.806 16.806 0 0 1 1.09 6.701c0 .12-.008.239-.017.358-.005.084-.012.167-.012.251a.895.895 0 0 1-.883.895l-37.607.385zM27.857 236.75a.89.89 0 0 1 .892.858l.95 22.768a18.664 18.664 0 0 0 5.702 12.698 18.529 18.529 0 0 0 12.88 5.184l36.753-.379a14.994 14.994 0 0 0-4.251-10.895 15.593 15.593 0 0 0-11.201-4.78h-.099a7.981 7.981 0 0 1-3.834-.978 8.014 8.014 0 0 1-2.9-2.7 8.06 8.06 0 0 1-.564-7.675l2.536-5.562-20.898-40.854L2.141 237.03l9.576 12.476L27.3 236.948a.897.897 0 0 1 .558-.198zM148.854 131.206a.896.896 0 0 1-.889-.828l-1.932-25.543a.883.883 0 0 1 .038-.35.903.903 0 0 1 .444-.529.896.896 0 0 1 .992.123.893.893 0 0 1 .304.621l1.933 25.543a.89.89 0 0 1-.822.96c-.024.003-.047.003-.068.003zM84.64 189.125c-.023 0-.047 0-.071-.003a.89.89 0 0 1-.818-.963l.773-9.698a.891.891 0 0 1 .614-.781.88.88 0 0 1 .68.055.892.892 0 0 1 .484.868l-.773 9.698a.893.893 0 0 1-.888.824zM132.921 143.44a.89.89 0 0 1-.872-.699.9.9 0 0 1 .49-1.006l4.964-2.357a.887.887 0 0 1 1.188.426.893.893 0 0 1-.425 1.192l-4.964 2.357a.885.885 0 0 1-.381.087z"/><path fill="#3C4043" d="M166.752 251.61a.897.897 0 0 1-.853-.633l-16.483-54.143-11.509-6.36a.892.892 0 0 1-.351-1.216.89.89 0 0 1 1.211-.352l11.826 6.535c.203.112.355.3.423.522l16.328 53.632 49.458-15.173-9.477-31.144-.016-.062-3.534-15.557c-.318-1.45-.571-2.794-.816-4.093-1.627-8.633-2.701-14.336-18.187-25.437l-32.65-24.785-3.007-2.314-.449-.037-54.59.75a.891.891 0 0 1-.904-.883.897.897 0 0 1 .88-.908l54.632-.748a.599.599 0 0 1 .085.003l.753.062a.887.887 0 0 1 .47.182l3.211 2.471 32.625 24.767c16.049 11.505 17.238 17.814 18.884 26.546.242 1.287.493 2.618.802 4.035l3.526 15.519 9.728 31.969a.899.899 0 0 1-.593 1.118l-51.164 15.696a.907.907 0 0 1-.259.038z"/><path fill="#fff" d="M219.155 188.737l10.643 3.458c2.233.59 3.728-2.253 1.983-3.771l-5.414-4.916a18.282 18.282 0 0 0-5.355-3.384 195.694 195.694 0 0 1-7.555-3.287c-2.816-3.548-7.787-5.238-12.668-3.89-5.718 1.579-9.36 6.79-8.827 12.159l.733 9.599 14.27 7.162 8.853-10.772c.056-.726.938 1.869.958.922l2.379-3.28z"/><path fill="#3C4043" d="M206.966 202.762a.874.874 0 0 1-.398-.095l-14.27-7.161a.889.889 0 0 1-.491-.733l-.732-9.599c-.586-5.898 3.4-11.412 9.48-13.091 5.043-1.393 10.303.187 13.465 4.026a194.276 194.276 0 0 0 7.33 3.186 19.1 19.1 0 0 1 5.617 3.549l5.414 4.916a3.089 3.089 0 0 1-.795 5.143 3.057 3.057 0 0 1-2.013.157l-.048-.013-10.029-3.26-1.868 2.578a.953.953 0 0 1-.706.734c-.535.127-.869-.172-1.129-.567l-8.138 9.901a.896.896 0 0 1-.689.329zm-13.419-8.631l13.184 6.616 8.275-10.068a.932.932 0 0 1 1.278-.517c.186.086.34.229.44.408l1.71-2.36a.892.892 0 0 1 .996-.325l10.618 3.448a1.285 1.285 0 0 0 1.451-.663 1.294 1.294 0 0 0-.3-1.572l-5.428-4.928a17.36 17.36 0 0 0-5.094-3.219 196.023 196.023 0 0 1-7.589-3.302.883.883 0 0 1-.327-.257c-2.7-3.401-7.306-4.807-11.734-3.584-5.239 1.447-8.678 6.16-8.176 11.207l.696 9.116z"/><path fill="#FFF1ED" d="M97.829 57.685l3.597 17.957.069.36 18.848 10.593-1.783-10.593-2.281-11.008a13.513 13.513 0 0 0 5.857-5.85 13.58 13.58 0 0 0 1.359-8.179v-.06l-.089-.536a13.534 13.534 0 0 0-3.092-6.386l-.002-.003.002-.027a13.928 13.928 0 0 0-.714-5.133 13.454 13.454 0 0 0-2.735-4.655l-4.142-6.564-10.999 1.79-11.595 5.67-8.621 25.065 15.162 1.492 1.159-3.933z"/><path fill="#3C4043" d="M120.345 87.49a.887.887 0 0 1-.435-.114l-18.849-10.593a.894.894 0 0 1-.44-.612l-.069-.36-2.887-14.41-.138.47a.89.89 0 0 1-.943.636l-15.162-1.491a.89.89 0 0 1-.798-.785c-.016-.135.042-.399.042-.399L88.198 48.5c.077-.224 1.33-14.142 1.542-14.246l11.595-5.67a.884.884 0 0 1 .247-.078l11-1.79a.888.888 0 0 1 .897.404l4.102 6.503a14.393 14.393 0 0 1 2.864 4.902c.559 1.656.822 3.399.776 5.147a14.386 14.386 0 0 1 3.065 6.537l.092.55a.829.829 0 0 1 .012.14 14.42 14.42 0 0 1-1.307 8.383 14.349 14.349 0 0 1-5.792 6.182l2.146 10.355a.36.36 0 0 1 .005.032l1.784 10.594a.896.896 0 0 1-.879 1.044l-.002.001zm-18.051-12.066l16.862 9.477-1.471-8.733-2.276-10.991a.9.9 0 0 1 .467-.98 12.567 12.567 0 0 0 5.479-5.454 12.624 12.624 0 0 0 1.26-7.642.953.953 0 0 1-.01-.12l-.077-.464a12.637 12.637 0 0 0-2.887-5.948.895.895 0 0 1-.218-.644c0-.005 0-.02.003-.03a13.095 13.095 0 0 0-.67-4.79 12.597 12.597 0 0 0-2.549-4.336.898.898 0 0 1-.094-.123l-3.827-6.068-10.288 1.675L93.5 38l-7 15.5 5.5 6.332 4.977-2.4a.896.896 0 0 1 .895-.64.89.89 0 0 1 .834.717l3.588 17.915z"/><path fill="#3C4043" d="M107.916 43.894c.608 0 1.1-.494 1.1-1.104 0-.61-.492-1.104-1.1-1.104-.607 0-1.1.494-1.1 1.104 0 .61.493 1.104 1.1 1.104zM118.977 43.387c.607 0 1.1-.494 1.1-1.104 0-.61-.493-1.104-1.1-1.104-.608 0-1.1.494-1.1 1.104 0 .61.492 1.104 1.1 1.104zM114.962 55.143a.89.89 0 0 1-.915-.872.898.898 0 0 1 .869-.918l4.994-.269a.889.889 0 0 1 .853.51.887.887 0 0 1 .036.684.886.886 0 0 1-.457.51.89.89 0 0 1-.338.087l-4.994.268h-.048zM114.309 49.772a.895.895 0 0 1-.195-1.769l2.91-.656-3.96-6.759a.9.9 0 0 1 .321-1.218.89.89 0 0 1 1.217.31l4.578 7.819a.906.906 0 0 1 .05.81.899.899 0 0 1-.623.517l-4.102.925a.92.92 0 0 1-.196.021z"/><path fill="#FFF1ED" d="M203.378 190.11c-2.735-.03-4.697 3.611-5.827 6.505.417-3.252-.148-6.744-2.675-6.773-4.549-.06-6.303 9.996-6.303 9.996-.505 3.491 4.162 2.984 6.6 2.178a.224.224 0 0 0 .119-.059 1.518 1.518 0 0 1 1.754.209c1.486 1.402 5.054 1.133 6.6.089 2.14-1.402 4.311-12.115-.268-12.145z"/><path fill="#3C4043" d="M200.16 204.02c-1.41 0-2.818-.345-3.726-1.202a.618.618 0 0 0-.687-.087c-.11.074-.231.126-.359.157-.707.225-4.74 1.411-6.752-.284-.555-.468-1.17-1.35-.946-2.894.196-1.128 2.025-10.764 7.142-10.764h.054a3.11 3.11 0 0 1 2.375 1.101 5.604 5.604 0 0 1 1.156 2.757c1.465-2.362 3.136-3.589 4.927-3.589h.042c1.584.011 2.743.995 3.263 2.771.968 3.306-.49 9.69-2.517 11.018-.894.605-2.434 1.016-3.972 1.016zm-4.116-3.142a2.343 2.343 0 0 1 1.611.635c1.107 1.044 4.17.893 5.491 0 1.059-.694 2.67-6.023 1.792-9.021-.433-1.479-1.257-1.485-1.566-1.486h-.028c-2.301 0-4.096 3.716-4.964 5.936a.89.89 0 0 1-1.715-.44c.303-2.372.016-4.395-.751-5.28a1.326 1.326 0 0 0-1.051-.485h-.027c-3.073 0-4.965 6.849-5.386 9.257-.111.764.136 1.074.332 1.239.858.723 3.235.542 5.06-.05l.049-.026a2.566 2.566 0 0 1 1.153-.279zm-.873.244a.71.71 0 0 0 .001-.001l-.001.001z"/><path fill="#FFF1ED" d="M205.131 199.838h2.289c.417-1.612 2.735-10.982 6.898-10.952 4.548.06 2.318 12.056.208 13.488-2.081 1.402-9.781 1.88-9.395-2.536z"/><path fill="#3C4043" d="M210.14 204.264c-1.463 0-2.944-.269-4.059-.93a3.61 3.61 0 0 1-1.838-3.574.895.895 0 0 1 .888-.817h1.601c1.924-7.169 4.534-10.952 7.566-10.952h.026c.879.012 2.451.39 3.167 2.791 1.087 3.646-.365 10.908-2.466 12.334-.983.664-2.919 1.148-4.885 1.148zm-4.051-3.531c.152.456.474.836.899 1.058 1.98 1.175 5.885.619 7.041-.16 1.103-.749 2.76-6.956 1.754-10.336-.446-1.5-1.195-1.51-1.476-1.513h-.013c-2.106 0-4.343 3.798-5.98 10.166l-.03.114a.896.896 0 0 1-.862.671h-1.333z"/><path fill="#fff" d="M317.625 25.89c-2.001 5.414-3.751 7.271-6.508 7.706a2.61 2.61 0 0 1-2.475-.883c-1.133-1.29-1.407-3.75-1.182-6.577a4.377 4.377 0 0 1-2.399 1.68 2.191 2.191 0 0 1-2.195-.427c-1.616-1.452-1.498-5.566-.846-8.95l.016-.192h-149.07v15.839h166.025c-1.092-1.147-1.526-3.53-1.366-8.195z"/><path fill="#3C4043" d="M318.99 34.966H152.965a.878.878 0 0 1-.88-.88V18.247a.88.88 0 0 1 .88-.88h149.071a.882.882 0 0 1 .876.953l-.016.192a.978.978 0 0 1-.013.094c-.749 3.883-.52 7.15.569 8.129a1.314 1.314 0 0 0 1.348.242 3.497 3.497 0 0 0 1.952-1.365.88.88 0 0 1 1.583.594c-.228 2.852.115 4.957.967 5.927a1.721 1.721 0 0 0 1.677.594c2.139-.337 3.778-1.613 5.821-7.141a.878.878 0 0 1 1.703.335c-.145 4.2.213 6.6 1.123 7.558a.874.874 0 0 1 .172.953.879.879 0 0 1-.808.534zm-4.744-1.76h3.19a11.259 11.259 0 0 1-.643-3.232c-.787 1.456-1.612 2.506-2.547 3.232zm-160.402 0h154.062c-.892-1.078-1.359-2.771-1.396-5.051a6.245 6.245 0 0 1-1.186.502 3.086 3.086 0 0 1-3.046-.613c-2.055-1.848-1.684-6.361-1.272-8.917H153.844v14.08z"/><path fill="#fff" d="M335.41 18.247a.878.878 0 0 1-.098.361.887.887 0 0 1-.771.458h-4.977c-1.849 8.47-3.747 13.199-6.072 15.02h72.241v-15.84H335.41z"/><path fill="#3C4043" d="M395.731 34.966h-72.24a.88.88 0 0 1-.542-1.573c2.129-1.668 3.958-6.28 5.755-14.515a.878.878 0 0 1 .859-.692h4.976a.873.873 0 0 1 .87-.819h60.322a.88.88 0 0 1 .879.88v15.84a.88.88 0 0 1-.879.88zm-70.222-1.76h69.343V19.127h-58.827a1.753 1.753 0 0 1-1.486.819h-4.271c-1.472 6.58-2.988 10.826-4.759 13.26z"/><path fill="#fff" d="M376.757 111.336c.102-.052.209-.1.319-.147.036-.016.074-.029.111-.045.075-.029.151-.06.23-.088l.139-.047c.074-.026.149-.05.226-.074l.153-.045a16.107 16.107 0 0 1 .395-.104l.255-.059c.053-.011.104-.023.158-.033.097-.02.197-.037.297-.055l.135-.024c.146-.024.298-.047.452-.067h.003c.153-.02.309-.038.467-.055l.149-.014c.113-.01.226-.021.34-.029l.182-.013.326-.02.193-.009c.111-.005.223-.01.336-.013l.193-.006c.12-.003.241-.005.364-.005l.175-.003h.553c.381.006.771.017 1.169.036l.118.006c.158.008.318.016.479.026l.162.011.45.031.174.014c.153.012.307.024.461.038l.161.014.504.049.124.012.626.069h.006c.447.051.899.109 1.356.172h.012l.653.093.084.013c.197.029.395.059.594.091l.099.016c.2.031.399.063.599.097l.08.014c.218.036.437.074.656.113l.021.003c.937.167 1.88.352 2.82.551l.011.002c.228.049.455.097.682.147l.041.009c.222.049.444.099.665.15l.018.004.05-78.137H152.869l.059 99.453c5.94-1.672 13.804-3.058 19.781-3.048 3.17-.018 5.838.343 7.449 1.248 1.4.785 1.79 1.829 1.871 2.567.277 2.517-2.058 3.458-2.825 3.767-1.542.62-3.769 1.082-6.561 1.622 4.939.142 7.786.858 9.23 2.219a3.226 3.226 0 0 1 1.07 2.432c-.029 3.881-6.96 4.966-16.577 5.58 5.242 2.125 9.946 4.396 9.444 7.383a3.59 3.59 0 0 1-1.534 2.508c-.887.6-2.054.814-3.354.811-1.996.049-4.349-.471-6.52-.951-.579-.128-1.142-.252-1.676-.361-1.394-.3-2.815-.46-4.24-.478a10.497 10.497 0 0 0-5.542 1.54l.023 38.905h34.805l.015-.126c.194-1.113 1.998-10.655 7.093-10.58.039 0 .076.006.115.007.038.002.082-.007.125-.007h.053a3.084 3.084 0 0 1 2.341 1.082 5.22 5.22 0 0 1 1.072 2.36c1.389-2.091 2.957-3.178 4.63-3.178h.041c.04 0 .079.004.117.005.045 0 .088-.006.134-.006h.041c1.561.012 2.704.979 3.216 2.725.53 1.803.323 4.537-.308 6.838h.098c1.895-7.047 4.469-10.765 7.456-10.765h.026c.866.011 2.416.383 3.122 2.743.693 2.317.338 6.124-.56 8.901h179.135v-59.76h-.002a12.968 12.968 0 0 0-.716-.017h-.024a13.68 13.68 0 0 0-.723.022h-.023c-.235.013-.474.034-.717.059l-.144.015c-.242.028-.488.059-.739.098-.54.084-1.11.184-1.697.286-3.485.608-7.433 1.295-9.572-.292a3.613 3.613 0 0 1-1.43-2.574c-.355-2.994 4.452-5.048 9.765-6.937-9.598-1.045-16.481-2.44-16.305-6.322a3.202 3.202 0 0 1 1.161-2.376c1.498-1.297 4.38-1.881 9.354-1.797-2.788-.672-5.01-1.236-6.528-1.931-.748-.342-3.025-1.384-2.629-3.878.116-.733.556-1.759 1.992-2.481z"/><path fill="#3C4043" d="M395.732 200.102H216.599a.882.882 0 0 1-.868-.741.877.877 0 0 1 .032-.41c.905-2.802 1.143-6.404.553-8.378-.415-1.389-1.186-2.101-2.291-2.115-2.52 0-4.867 3.591-6.622 10.113a.884.884 0 0 1-.85.651h-.098a.88.88 0 0 1-.848-1.112c.64-2.333.762-4.828.314-6.357-.406-1.379-1.207-2.085-2.381-2.093l-.034-.88v.88l-.106.005h-.058l-.117-.005c-1.371 0-2.682.939-3.909 2.787a.88.88 0 0 1-1.593-.305 4.336 4.336 0 0 0-.875-1.966 2.189 2.189 0 0 0-1.688-.779h-.043a1.412 1.412 0 0 1-.095.007h-.069a.815.815 0 0 1-.081-.006h-.044c-3.519 0-5.537 6.183-6.178 9.851l-.007.076a.88.88 0 0 1-.873.777h-34.805a.879.879 0 0 1-.879-.88l-.023-38.904a.877.877 0 0 1 .42-.752 11.399 11.399 0 0 1 5.985-1.669c1.49.017 2.974.183 4.431.496.527.107 1.087.231 1.662.358l.029.006c2.069.458 4.421.982 6.309.93h.027c1.272 0 2.197-.216 2.856-.66a2.709 2.709 0 0 0 1.159-1.922c.389-2.316-4.051-4.456-8.908-6.424a.883.883 0 0 1-.537-.956.876.876 0 0 1 .811-.737c8.168-.522 15.729-1.453 15.754-4.71a2.356 2.356 0 0 0-.793-1.784c-1.293-1.218-4.044-1.848-8.653-1.98a.879.879 0 0 1-.142-1.743c2.621-.507 4.911-.975 6.4-1.575 1.156-.466 2.462-1.211 2.279-2.854-.085-.775-.565-1.412-1.427-1.896-1.356-.761-3.774-1.158-7.013-1.135h-.062c-5.333 0-12.97 1.181-19.486 3.015a.875.875 0 0 1-1.117-.847l-.059-99.453a.88.88 0 0 1 .879-.88h242.914a.88.88 0 0 1 .879.88l-.049 78.14a.874.874 0 0 1-.338.694.883.883 0 0 1-.754.159l-.66-.148-.051-.011a72.72 72.72 0 0 0-.663-.143h-.012a84.347 84.347 0 0 0-2.791-.546c-.237-.041-.454-.079-.67-.115l-.082-.014c-.193-.032-.39-.065-.587-.096l-.097-.015-.588-.091-.088-.013-.639-.091a59.199 59.199 0 0 0-1.34-.169l-.016-.002a33.084 33.084 0 0 0-.616-.067l-.117-.012c-.169-.017-.333-.034-.498-.048l-.163-.015a31.503 31.503 0 0 0-.45-.037l-.17-.014-.442-.031-.161-.01a69.486 69.486 0 0 0-.468-.026l-.119-.006a33.995 33.995 0 0 0-1.136-.034h-.117c-.136 0-.277-.002-.418 0l-.172.002c-.117 0-.235.002-.352.005l-.187.006c-.109.003-.218.008-.324.012l-.185.009-.313.019-.176.012-.324.03-.14.013c-.147.016-.293.032-.433.05l-.016.002c-.144.019-.285.041-.424.064l-.122.022c-.094.016-.188.033-.279.051l-.147.031c-.077.017-.156.034-.234.053l-.144.036a5.382 5.382 0 0 0-.212.059l-.144.042a5.498 5.498 0 0 0-.195.064 6.558 6.558 0 0 0-.321.119l-.105.041a5.069 5.069 0 0 0-.261.121c-.887.446-1.398 1.063-1.52 1.834-.258 1.625 1.001 2.425 2.127 2.94 1.456.667 3.651 1.221 6.369 1.877a.883.883 0 0 1 .667.959.88.88 0 0 1-.872.777h-.015c-4.642-.084-7.427.424-8.765 1.582a2.333 2.333 0 0 0-.858 1.744c-.146 3.258 7.373 4.527 15.522 5.414a.882.882 0 0 1 .651 1.34.877.877 0 0 1-.452.364c-4.933 1.754-9.46 3.696-9.186 6.004a2.73 2.73 0 0 0 1.08 1.972c1.837 1.362 5.588.709 8.898.131l.036-.006c.58-.101 1.143-.199 1.676-.282.264-.041.522-.074.777-.103l.133-.015c.275-.029.529-.05.776-.064h.03a14.7 14.7 0 0 1 1.553-.005.877.877 0 0 1 .836.879v59.752a.875.875 0 0 1-.881.88zm-177.969-1.76h177.09v-58.017c-.184.002-.36.009-.537.019l-.029.001c-.215.012-.44.032-.67.056l-.134.014c-.232.026-.465.056-.703.093-.524.082-1.077.178-1.646.277l-.036.006c-3.657.639-7.803 1.361-10.246-.451a4.457 4.457 0 0 1-1.779-3.174c-.348-2.931 2.882-4.926 6.948-6.593-7.575-.984-13.688-2.533-13.494-6.813a4.101 4.101 0 0 1 1.465-3.002c.977-.846 2.399-1.411 4.406-1.723-.5-.173-.957-.352-1.369-.539-2.41-1.104-3.464-2.724-3.132-4.817.148-.937.697-2.241 2.466-3.131a5.68 5.68 0 0 1 .368-.169l.13-.052a4.439 4.439 0 0 1 .419-.155c.074-.026.157-.053.242-.08l.174-.051c.081-.023.167-.046.255-.069l.171-.043.28-.063.172-.036c.101-.021.208-.04.314-.059l.147-.026c.155-.025.312-.049.472-.07h.01c.161-.022.325-.041.492-.059l.154-.014c.119-.012.236-.022.355-.032l.19-.013c.114-.008.227-.015.342-.021l.2-.01c.115-.005.231-.01.348-.013l.201-.006c.122-.003.248-.005.374-.006l.184-.002h.56c.396.006.795.018 1.203.037l.117.006c.167.008.33.017.494.027l.165.01.46.032.178.014.467.039.169.015c.165.015.336.032.509.05l.125.012c.207.021.416.044.625.068l.029.004c.44.051.9.108 1.363.172.232.032.452.064.674.096l.081.012.606.093.105.017c.196.031.399.064.601.098l.076.013c.227.038.447.076.668.115.009 0 .039.007.048.009.901.159 1.859.346 2.823.551l.013.003.343.074.043-76.161H153.746l.059 97.421c6.402-1.698 13.67-2.775 18.841-2.775h.064c3.57-.026 6.231.436 7.877 1.358 1.725.968 2.211 2.296 2.315 3.238.233 2.112-.901 3.686-3.37 4.68-.414.167-.869.321-1.363.468 1.976.402 3.366 1.03 4.307 1.916a4.125 4.125 0 0 1 1.347 3.073c-.033 4.278-6.194 5.552-13.784 6.196 3.994 1.846 7.131 3.985 6.638 6.913a4.495 4.495 0 0 1-1.908 3.091c-.957.647-2.206.962-3.816.962h-.036c-2.086.055-4.541-.492-6.707-.971l-.029-.007c-.564-.124-1.113-.246-1.633-.352a20.524 20.524 0 0 0-4.067-.461 9.78 9.78 0 0 0-4.66 1.169l.022 37.518h33.19c.565-2.797 2.618-10.706 7.783-10.706.058 0 .115 0 .179.006.045-.004.084-.005.123-.005h.067a3.914 3.914 0 0 1 2.989 1.384c.285.332.525.7.715 1.094 1.313-1.471 2.763-2.215 4.324-2.215h.029c.056 0 .094.002.131.005.044-.003.088-.005.131-.005h.03c1.971.014 3.448 1.237 4.071 3.356.086.297.154.598.203.902 1.725-3.628 3.8-5.461 6.199-5.461h.038c.888.012 3.053.364 3.952 3.371.709 2.365.406 5.717-.234 8.274zM390.831 30.856a.879.879 0 0 1-.624-.26l-7.544-7.588a.883.883 0 0 1 .017-1.23.88.88 0 0 1 1.229-.01l7.545 7.588a.879.879 0 0 1-.623 1.501z"/><path fill="#3C4043" d="M383.286 30.856a.88.88 0 0 1-.623-1.5l7.545-7.59a.878.878 0 0 1 1.436.956.89.89 0 0 1-.19.286l-7.545 7.588a.868.868 0 0 1-.623.26zM377.561 30.856h-7.582a.878.878 0 0 1-.879-.88v-7.59a.88.88 0 0 1 .879-.88h7.582a.88.88 0 0 1 .879.88v7.59a.88.88 0 0 1-.879.88zm-6.703-1.76h5.824v-5.83h-5.824v5.83zM364.141 29.775h-7.289a.88.88 0 0 1 0-1.76h7.289a.88.88 0 0 1 0 1.76z"/><rect width="177" height="21" x="166" y="122" fill="#EFF0F1" rx="4"/><rect width="177" height="21" x="166" y="145" fill="#EFF0F1" rx="4"/><path fill="#EFF0F1" d="M166 46h219v4H166zM213 75h130v4H213zM213 96h130v4H213zM166 53h219v4H166z"/><path fill="#FFF1ED" d="M71.173 112.316l-7.046 25.275a13.487 13.487 0 0 0 1.46 10.598 13.408 13.408 0 0 0 8.707 6.172l57.439 11.966c.665.158 1.321.295 1.967.41l.32.066.002-.009c4.456.746 8.378.392 11.146-1.87 5.025-4.148 7.195-8.684 17.273-6.625 4.549.925 11.208 3.014 11.922-1.313.505-3.014-7.195-5.789-12.784-8.027 8.651-.447 19.978-1.074 20.008-5.013 0-3.939-8.265-4.267-19.473-3.581 12.159-2.894 18.967-2.745 18.551-6.535-.684-6.236-25.953-1.76-34.248 2.149a270.92 270.92 0 0 0-8.565 4.2l-44.085-9.183 3.18-11.458-25.774-7.222z"/><path fill="#3C4043" d="M137.962 168.048a24.606 24.606 0 0 1-3.963-.348.862.862 0 0 1-.16-.018l-.32-.066a37.33 37.33 0 0 1-1.992-.415l-57.414-11.962a14.272 14.272 0 0 1-9.29-6.584 14.376 14.376 0 0 1-1.555-11.307l7.046-25.271a.886.886 0 0 1 .421-.54.901.901 0 0 1 .679-.081l25.775 7.221a.893.893 0 0 1 .62 1.103l-2.926 10.536 42.843 8.925a278.245 278.245 0 0 1 8.313-4.07c7.125-3.358 27.606-7.43 33.616-4.048 1.419.8 1.815 1.861 1.898 2.612.281 2.561-2.088 3.518-2.866 3.832-1.564.632-3.824 1.101-6.657 1.65 5.011.145 7.899.873 9.365 2.257a3.297 3.297 0 0 1 1.085 2.475c-.03 3.949-7.061 5.053-16.819 5.677 5.319 2.162 10.092 4.473 9.582 7.511a3.672 3.672 0 0 1-1.557 2.551c-2.235 1.517-6.212.636-9.72-.142-.588-.13-1.159-.257-1.701-.367-7.825-1.599-10.548.949-13.998 4.174-.791.739-1.609 1.504-2.53 2.265-1.992 1.625-4.556 2.43-7.775 2.43zm-3.889-2.145a.746.746 0 0 1 .095.01c4.679.786 8.093.234 10.437-1.681.876-.724 1.673-1.469 2.444-2.189 3.675-3.435 6.848-6.401 15.57-4.619.55.112 1.132.241 1.731.374 3.001.665 6.735 1.493 8.335.407a1.894 1.894 0 0 0 .797-1.363c.346-2.063-6.677-4.846-10.873-6.508-.463-.184-.919-.364-1.361-.541a.894.894 0 0 1-.549-.978.894.894 0 0 1 .834-.748c4.091-.211 9.184-.475 13.125-1.184 5.24-.943 6.031-2.248 6.035-2.941a1.516 1.516 0 0 0-.524-1.164c-2.334-2.205-11.391-1.921-18.002-1.517a.891.891 0 0 1-.938-.762.9.9 0 0 1 .678-1.003c3.351-.797 6.241-1.354 8.79-1.845 6.443-1.242 9.283-1.869 9.08-3.72-.02-.181-.08-.73-.998-1.247-4.986-2.807-24.552.604-31.984 4.107a273.288 273.288 0 0 0-8.538 4.187.894.894 0 0 1-.588.08l-44.084-9.184a.886.886 0 0 1-.58-.411.89.89 0 0 1-.098-.706l2.942-10.596-24.058-6.74-6.806 24.413a12.592 12.592 0 0 0 1.362 9.89 12.534 12.534 0 0 0 3.467 3.727 12.475 12.475 0 0 0 4.658 2.034l57.44 11.968c.675.159 1.321.294 1.943.405l.218.045z"/><path fill="#EFF0F1" d="M213 82h130v4H213zM213 103h130v4H213zM166 60h219v4H166zM213 89h130v4H213z"/><rect width="42" height="42" x="166" y="70" fill="#EFF0F1" rx="4"/><path fill="#fff" d="M98.999 47.5c2.578-1.819 5.305-6.078 6.123-9.401l3.632-10.687 6.517 2.479c-2.575-3.126-5.464-5.583-9.295-6.327-4.018-.767-8.276-.044-11.913 2.354C87.018 30.605 83.499 37 87.5 45.5"/><path fill="#3C4043" d="M99.034 48.633c-.404.192-.907.051-1.18-.352-.305-.448-.212-1.051.208-1.347 2.473-1.746 5.404-6.09 6.148-9.115l.023-.08 3.632-10.686a.891.891 0 0 1 1.175-.553l2.66 1.012c-1.888-1.634-3.777-2.588-5.859-2.992-3.938-.752-7.935.038-11.252 2.225-3.87 2.575-6.386 6.27-7.081 10.406-.686 4.078-.86 6.64 1.992 10.849.304.448-.58.337-1 .633-.418.295-.697.097-1-.352-2-4.281-2.606-7.002-1.842-11.546.783-4.651 3.579-8.786 7.872-11.643 3.706-2.443 8.171-3.325 12.574-2.484 4.666.906 7.866 4.24 9.867 6.67.281.34.315.824.083 1.18a.89.89 0 0 1-1.074.344L109.5 29l-3.48 9.419c-.863 3.435-4.056 8.162-6.856 10.138a.866.866 0 0 1-.13.076z"/><path fill="#3C4043" d="M101.655 76.152a.889.889 0 0 1-.873-.719l-3.313-16.54a7.47 7.47 0 0 1-8.509-.385 7.52 7.52 0 0 1-2.588-3.647 7.547 7.547 0 0 1-.063-4.477 7.52 7.52 0 0 1 2.483-3.72 7.476 7.476 0 0 1 8.493-.629 7.509 7.509 0 0 1 3 3.314.898.898 0 0 1-.439 1.175.889.889 0 0 1-1.178-.42 5.727 5.727 0 0 0-2.413-2.604 5.697 5.697 0 0 0-6.686.838 5.756 5.756 0 0 0-1.245 6.647c.521 1.097 1.376 2 2.441 2.578a5.696 5.696 0 0 0 6.677-.91.892.892 0 0 1 1.492.47l3.597 17.955a.899.899 0 0 1-.494.986.888.888 0 0 1-.382.086v.002z"/><path fill="#fff" d="M89 45.5c-2.796-.994-3.51-.704-6.61-.704-15.828 0-28.66 14.012-28.66 31.296 0 4.884 1.237 9.724 3.064 13.843"/><path fill="#3C4043" d="M56.795 90.733a.727.727 0 0 1-.657-.45C54.706 87.056 53 81.976 53 76.093 53 58.396 66.184 44 82.39 44c3.112 0 6.175.528 9.106 1.57.383.136.593.586.468 1.004-.125.419-.536.648-.92.511-2.544-1.085-5.696-1.491-8.653-1.491-15.401 0-27.931 13.681-27.931 30.498 0 5.581 1.627 10.42 2.991 13.496.176.396.024.873-.339 1.065a.676.676 0 0 1-.317.08z"/><path fill="#fff" d="M89 46.5l-2-.5-7.5 9 .5 7 17.5 1.5v-2l-1-1c-14-.8-10.667-9.667-7.5-14z"/><path fill="#FFF1ED" d="M450.718 186.714a2.81 2.81 0 0 0 2.697-2.92 2.81 2.81 0 0 0-2.924-2.691 2.81 2.81 0 0 0-2.697 2.919 2.81 2.81 0 0 0 2.924 2.692zM430.039 160.725a2.81 2.81 0 0 0 2.697-2.919 2.811 2.811 0 0 0-2.925-2.692 2.81 2.81 0 0 0 .228 5.611z"/><path fill="#E7F1FF" d="M378.039 228.725a2.81 2.81 0 0 0 2.697-2.919 2.811 2.811 0 0 0-2.925-2.692 2.81 2.81 0 0 0 .228 5.611zM403.039 110.725a2.81 2.81 0 0 0 2.697-2.919 2.811 2.811 0 0 0-2.925-2.692 2.81 2.81 0 0 0 .228 5.611z"/><path fill="#FFF1ED" d="M393.039 226.725a2.81 2.81 0 0 0 2.697-2.919 2.811 2.811 0 0 0-2.925-2.692 2.81 2.81 0 0 0 .228 5.611z"/><path fill="#E7F1FF" d="M371.746 217.531a2.81 2.81 0 0 0 2.697-2.92 2.811 2.811 0 0 0-2.925-2.691 2.81 2.81 0 0 0-2.697 2.92 2.81 2.81 0 0 0 2.925 2.691zM377.039 207.725a2.81 2.81 0 0 0 2.697-2.919 2.811 2.811 0 0 0-2.925-2.692 2.81 2.81 0 0 0 .228 5.611zM388.236 214.65a2.81 2.81 0 0 0 2.697-2.92 2.811 2.811 0 0 0-2.925-2.691 2.81 2.81 0 0 0-2.697 2.92 2.811 2.811 0 0 0 2.925 2.691z"/><path fill="#FFF1ED" d="M364.039 231.725a2.81 2.81 0 0 0 2.697-2.919 2.811 2.811 0 0 0-2.925-2.692 2.81 2.81 0 0 0 .228 5.611zM387.039 237.725a2.81 2.81 0 0 0 2.697-2.919 2.811 2.811 0 0 0-2.925-2.692 2.81 2.81 0 0 0 .228 5.611z"/><path fill="#E7F1FF" d="M375.602 243.561a2.718 2.718 0 0 1-.63-.981 2.81 2.81 0 0 1 1.662-3.61 2.807 2.807 0 0 1 3.607 1.67 2.775 2.775 0 0 1-.491 2.774M445.16 175.623a2.81 2.81 0 0 0 2.697-2.92 2.811 2.811 0 0 0-2.925-2.691 2.81 2.81 0 0 0-2.697 2.92 2.81 2.81 0 0 0 2.925 2.691zM450.172 221.544a2.81 2.81 0 0 0 2.696-2.919 2.81 2.81 0 0 0-2.924-2.692 2.81 2.81 0 0 0-2.697 2.92 2.81 2.81 0 0 0 2.925 2.691zM446.047 237.594a2.81 2.81 0 0 0 2.696-2.92 2.81 2.81 0 0 0-2.924-2.691 2.81 2.81 0 0 0-2.697 2.92 2.81 2.81 0 0 0 2.925 2.691zM434.511 225.432a2.81 2.81 0 0 0 2.697-2.92 2.81 2.81 0 0 0-2.925-2.691 2.81 2.81 0 0 0-2.696 2.92 2.81 2.81 0 0 0 2.924 2.691z"/><path fill="#FFF1ED" d="M468.039 203.725a2.81 2.81 0 0 0 2.697-2.919 2.811 2.811 0 0 0-2.925-2.692 2.81 2.81 0 0 0 .228 5.611z"/><path fill="#E7F1FF" d="M433.039 205.725a2.81 2.81 0 0 0 2.697-2.919 2.811 2.811 0 0 0-2.925-2.692 2.81 2.81 0 0 0 .228 5.611zM429.734 187.566a2.81 2.81 0 0 0 2.697-2.919 2.81 2.81 0 0 0-2.925-2.692 2.81 2.81 0 0 0-2.697 2.92 2.811 2.811 0 0 0 2.925 2.691z"/><path fill="#FFF1ED" d="M461.039 234.725a2.81 2.81 0 0 0 2.697-2.919 2.811 2.811 0 0 0-2.925-2.692 2.81 2.81 0 0 0 .228 5.611zM473.039 231.725a2.81 2.81 0 0 0 2.697-2.919 2.811 2.811 0 0 0-2.925-2.692 2.81 2.81 0 0 0 .228 5.611z"/><path fill="#E7F1FF" d="M456.269 203.81a2.81 2.81 0 0 0 2.697-2.919 2.81 2.81 0 0 0-2.925-2.692 2.811 2.811 0 0 0-2.697 2.92 2.81 2.81 0 0 0 2.925 2.691zM399.039 237.725a2.81 2.81 0 0 0 2.697-2.919 2.811 2.811 0 0 0-2.925-2.692 2.81 2.81 0 0 0 .228 5.611zM469.002 217.997a2.81 2.81 0 0 0 2.697-2.919 2.811 2.811 0 0 0-2.925-2.692 2.81 2.81 0 0 0 .228 5.611zM443.039 197.725a2.81 2.81 0 0 0 2.697-2.919 2.811 2.811 0 0 0-2.925-2.692 2.81 2.81 0 0 0 .228 5.611zM461.588 183.27a2.81 2.81 0 0 0 2.696-2.92 2.81 2.81 0 0 0-2.924-2.691 2.81 2.81 0 0 0-2.697 2.92 2.81 2.81 0 0 0 2.925 2.691z"/><path fill="#FFF1ED" d="M363.13 209.739a2.805 2.805 0 0 0-.38-3.953 2.817 2.817 0 0 0-3.96.38 2.805 2.805 0 0 0 .38 3.953 2.817 2.817 0 0 0 3.96-.38zM403.857 155.318a2.81 2.81 0 0 0 2.697-2.92 2.81 2.81 0 0 0-2.925-2.691 2.81 2.81 0 0 0-2.697 2.919 2.811 2.811 0 0 0 2.925 2.692z"/><path fill="#E7F1FF" d="M399.732 171.368a2.811 2.811 0 0 0 2.697-2.92 2.81 2.81 0 0 0-2.925-2.692 2.811 2.811 0 0 0-2.697 2.92 2.811 2.811 0 0 0 2.925 2.692zM432.205 174.455a2.81 2.81 0 0 0 2.697-2.919 2.811 2.811 0 0 0-2.925-2.692 2.81 2.81 0 0 0 .228 5.611z"/><path fill="#FFF1ED" d="M461.392 158.449a2.81 2.81 0 0 1-3.248 2.888 2.817 2.817 0 0 1-2.298-2.114 2.81 2.81 0 0 1 2.621-3.465"/><path fill="#E7F1FF" d="M416.636 165.691a2.81 2.81 0 0 0 2.697-2.919 2.81 2.81 0 0 0-2.925-2.692 2.81 2.81 0 0 0-2.696 2.92 2.81 2.81 0 0 0 2.924 2.691z"/><path fill="#FFF1ED" d="M402.039 187.726a2.812 2.812 0 0 0 2.697-2.92 2.811 2.811 0 0 0-2.925-2.692 2.81 2.81 0 0 0-2.697 2.92 2.81 2.81 0 0 0 2.925 2.692z"/><path fill="#E7F1FF" d="M443.039 154.725a2.81 2.81 0 0 0 2.697-2.919 2.811 2.811 0 0 0-2.925-2.692 2.81 2.81 0 0 0 .228 5.611zM398.039 206.725a2.81 2.81 0 0 0 2.697-2.919 2.811 2.811 0 0 0-2.925-2.692 2.81 2.81 0 0 0 .228 5.611z"/><path fill="#FFF1ED" d="M174.531 232.477l2.691 5.016-4.502-2.097 1.811-2.919zM101.115 220.808l-1.897 8.42-1.89.951-6.639-6.131 10.426-3.24zM67.198 190.424l-1.057 7.111-4.858-3.861 5.915-3.25z"/><path fill="#E7F1FF" d="M75.121 200.821l-.18.227c-4.996 6.276-14.168 7.316-20.445 2.318a14.492 14.492 0 0 1-3.488-4.022.797.797 0 1 1 1.375-.806 12.918 12.918 0 0 0 3.106 3.582c5.59 4.45 13.756 3.524 18.205-2.064l.18-.226a12.926 12.926 0 0 0 1.673-13.37.796.796 0 1 1 1.455-.651 14.513 14.513 0 0 1-1.88 15.012zM127.981 196.045l-.016.003-.283.053c-7.878 1.488-15.497-3.713-16.985-11.593-1.487-7.88 3.712-15.5 11.59-16.987l.284-.054.007-.001a14.58 14.58 0 0 1 14.568 5.889.798.798 0 0 1-1.301.921 12.983 12.983 0 0 0-12.972-5.244l-.006.001-.284.054c-7.015 1.324-11.644 8.109-10.32 15.126 1.325 7.016 8.109 11.647 15.123 10.322l.285-.053a12.947 12.947 0 0 0 7.328-4.184.796.796 0 1 1 1.199 1.05 14.553 14.553 0 0 1-8.217 4.697z"/><path fill="#FFF1ED" d="M123.323 187.677l-2.026-10.736 10.305 3.615-8.279 7.121z"/><path fill="#E7F1FF" d="M110.935 224.188a.797.797 0 0 1-1.374-.432 12.93 12.93 0 0 0-4.039-7.717c-5.249-4.846-13.456-4.521-18.3.723l-.196.213a12.916 12.916 0 0 0 .345 17.923.797.797 0 0 1-1.129 1.125 14.505 14.505 0 0 1-.387-20.129l.197-.213c5.439-5.889 14.657-6.255 20.548-.814a14.532 14.532 0 0 1 4.539 8.671.796.796 0 0 1-.204.65zM188.867 239.378l-.009.287a14.73 14.73 0 0 1-.278 2.415.797.797 0 1 1-1.563-.313c.142-.707.225-1.432.248-2.153l.009-.287c.225-7.136-5.399-13.125-12.537-13.349a12.902 12.902 0 0 0-10.945 5.411.798.798 0 0 1-1.298-.926 14.498 14.498 0 0 1 12.294-6.078c8.015.253 14.331 6.978 14.079 14.993zM194.538 227.174c-3.879 0-7.527-1.51-10.273-4.252A14.451 14.451 0 0 1 180 212.641a14.442 14.442 0 0 1 4.258-10.292c.417-.418.865-.815 1.33-1.179a.797.797 0 1 1 .983 1.254 13.16 13.16 0 0 0-1.187 1.052 12.865 12.865 0 0 0-3.791 9.164 12.872 12.872 0 0 0 3.798 9.154 12.86 12.86 0 0 0 9.148 3.786h.299c7.137-.001 12.944-5.81 12.946-12.949a13.097 13.097 0 0 0-.083-1.352.797.797 0 1 1 1.583-.18c.058.504.089 1.017.093 1.526-.002 8.024-6.524 14.548-14.539 14.549h-.3z"/><path fill="#FFF1ED" d="M191.824 218.092V207.17l9.457 5.461-9.457 5.461z"/></svg>