<svg xmlns="http://www.w3.org/2000/svg" fill="none" viewBox="0 0 383 293"><path fill="#E7F1FF" d="M382.009 51.288v-1.006h-.041L381.961 12H52v281h330.009l-.007-40.532h.007v-1.006h-.007l-.007-39.241h.014v-1.006h-.014l-.007-39.192h.021v-1.006h-.021l-.007-39.239h.028v-1.006h-.028l-.007-39.24h.035v-1.006h-.035l-.007-39.239h.042zm-1.051-38.186v37.18h-39.196v-37.18h39.196zm-40.2 0v37.18h-40.486v-37.18h40.486zM216.813 131.78h40.965v39.239h-40.965v-39.239zm-1.003 39.239h-40.965v-39.239h40.965v39.239zm1.003-40.245v-39.24h40.965v39.24h-40.965zm-1.003 0h-40.965v-39.24h40.965v39.24zm-41.969 0h-41.014v-39.24h41.013l.001 39.24zm0 1.006v39.239h-41.014v-39.239h41.014zm0 40.245v39.191h-41.014v-39.191h41.014zm1.004 0h40.965v39.191h-40.965v-39.191zm41.968 0h40.965v39.191h-40.965v-39.191zm41.968 0h40.487v39.191h-40.487v-39.191zm0-1.006v-39.239h40.487v39.239h-40.487zm0-40.245v-39.24h40.487v39.24h-40.487zm0-40.246v-39.24h40.487v39.24h-40.487zm-1.003 0h-40.965v-39.24h40.965v39.24zm-41.968 0h-40.965v-39.24h40.965v39.24zm-41.969 0h-41.014v-39.24h41.013l.001 39.24zm-42.015 0H90.861v-39.24h40.965v39.24zm0 1.006v39.24H90.861v-39.24h40.965zm0 40.246v39.239H90.861v-39.239h40.965zm0 40.245v39.191H90.861v-39.191h40.965zm0 40.198v39.239H90.861v-39.24l40.965.001zm1.003 0h41.012v39.239h-41.014l.002-39.239zm42.016 0h40.965v39.239h-40.965v-39.239zm41.968 0h40.965v39.239h-40.965v-39.239zm41.968 0h40.487v39.239h-40.487v-39.239zm41.491 0h40.486v39.239h-40.486v-39.239zm0-1.007v-39.191h40.486v39.191h-40.486zm0-40.197v-39.239h40.486v39.239h-40.486zm0-40.245v-39.24h40.486v39.24h-40.486zm0-40.246v-39.24h40.486v39.24h-40.486zm-1.004-77.425v37.18h-40.487v-37.18h40.487zm-41.49 0v37.18h-40.965v-37.18h40.965zm-41.968 0v37.18h-40.965v-37.18h40.965zm-41.969 0v37.18h-41.014v-37.18h41.014zm-42.015 0v37.18H90.861v-37.18h40.965zm-78.774 0h36.806v37.18H53.052v-37.18zm0 38.186h36.806v39.239H53.052v-39.24zm0 40.245h36.806v39.24H53.052v-39.24zm0 40.246h36.806v39.239H53.052v-39.239zm0 40.245h36.806v39.191H53.052v-39.191zm0 40.198h36.806v39.239H53.052v-39.239zm0 79.724v-39.479h36.806v39.479H53.052zm37.81 0v-39.479h40.964v39.479H90.861zm41.967 0v-39.479h41.012v39.479h-41.012zm42.016 0v-39.479h40.965v39.479h-40.965zm41.968 0v-39.479h40.965v39.479h-40.965zm41.968 0v-39.479h40.487v39.479h-40.487zm41.491 0v-39.479h40.486v39.479h-40.486zm80.687 0h-39.197v-39.479h39.196l.001 39.479zm0-40.485h-39.197v-39.24h39.196l.001 39.24zm0-40.245h-39.197v-39.192h39.196l.001 39.192zm0-40.198h-39.197v-39.239h39.196l.001 39.239zm0-40.245h-39.197v-39.24h39.196l.001 39.24zm0-40.246h-39.197v-39.24h39.196l.001 39.24z"/><path fill="#FFF1ED" d="M195.813 184.616a2.81 2.81 0 0 0 2.813-2.808 2.81 2.81 0 0 0-2.813-2.808 2.81 2.81 0 0 0-2.813 2.808 2.81 2.81 0 0 0 2.813 2.808zM173.813 156.616a2.81 2.81 0 0 0 2.813-2.808 2.81 2.81 0 0 0-2.813-2.808 2.81 2.81 0 0 0-2.813 2.808 2.81 2.81 0 0 0 2.813 2.808z"/><path fill="#E7F1FF" d="M182.813 143.616a2.81 2.81 0 0 0 2.813-2.808 2.81 2.81 0 0 0-2.813-2.808 2.81 2.81 0 0 0-2.813 2.808 2.81 2.81 0 0 0 2.813 2.808zM69.813 214.616a2.81 2.81 0 0 0 2.813-2.808A2.81 2.81 0 0 0 69.813 209 2.81 2.81 0 0 0 67 211.808a2.81 2.81 0 0 0 2.813 2.808zM78.811 200.082a2.804 2.804 0 0 0 .283-3.961 2.817 2.817 0 0 0-3.969-.281 2.803 2.803 0 0 0-.282 3.96 2.816 2.816 0 0 0 3.968.282zM82.813 223.616a2.81 2.81 0 0 0 2.813-2.808A2.81 2.81 0 0 0 82.813 218 2.81 2.81 0 0 0 80 220.808a2.81 2.81 0 0 0 2.813 2.808z"/><path fill="#FFF1ED" d="M99.282 214.663a2.81 2.81 0 0 0 2.813-2.808 2.81 2.81 0 0 0-2.813-2.808 2.81 2.81 0 0 0-2.813 2.808 2.81 2.81 0 0 0 2.813 2.808z"/><path fill="#E7F1FF" d="M115.655 212.202a2.81 2.81 0 0 0 2.813-2.808 2.81 2.81 0 0 0-2.813-2.808 2.81 2.81 0 0 0-2.813 2.808 2.81 2.81 0 0 0 2.813 2.808zM104.118 198.194a2.81 2.81 0 0 0 2.813-2.808 2.81 2.81 0 0 0-2.813-2.808 2.81 2.81 0 0 0-2.813 2.808 2.81 2.81 0 0 0 2.813 2.808z"/><path fill="#FFF1ED" d="M122.988 195.385a2.81 2.81 0 0 0 2.813-2.808 2.81 2.81 0 0 0-2.813-2.807 2.81 2.81 0 0 0-2.813 2.807 2.81 2.81 0 0 0 2.813 2.808zM110.597 181.031a2.81 2.81 0 0 0 2.813-2.808 2.81 2.81 0 0 0-2.813-2.808 2.81 2.81 0 0 0-2.813 2.808 2.81 2.81 0 0 0 2.813 2.808z"/><path fill="#E7F1FF" d="M99.599 179.067c.373.121.716.322 1.005.589a2.812 2.812 0 0 1 .152 3.971 2.802 2.802 0 0 1-1.954.895 2.818 2.818 0 0 1-2.794-1.987 2.777 2.777 0 0 1-.042-1.459M71.572 230.622a2.807 2.807 0 0 1 4.073 3.217c-.204.717-.994 1.297-1.645 1.661"/><path fill="#FFF1ED" d="M85.813 210.616a2.81 2.81 0 0 0 2.813-2.808A2.81 2.81 0 0 0 85.813 205 2.81 2.81 0 0 0 83 207.808a2.81 2.81 0 0 0 2.813 2.808z"/><path fill="#E7F1FF" d="M190.71 173.308a2.81 2.81 0 0 0 2.813-2.808c0-1.55-1.26-2.808-2.813-2.808a2.812 2.812 0 0 0-2.814 2.808 2.811 2.811 0 0 0 2.814 2.808zM193.854 219.395a2.81 2.81 0 0 0 2.813-2.808 2.81 2.81 0 0 0-2.813-2.808 2.81 2.81 0 0 0-2.813 2.808 2.81 2.81 0 0 0 2.813 2.808zM174.813 184.616a2.81 2.81 0 0 0 2.813-2.808 2.81 2.81 0 0 0-2.813-2.808 2.81 2.81 0 0 0-2.813 2.808 2.81 2.81 0 0 0 2.813 2.808z"/><path fill="#FFF1ED" d="M204.813 236.616a2.81 2.81 0 0 0 2.813-2.808 2.81 2.81 0 0 0-2.813-2.808 2.81 2.81 0 0 0-2.813 2.808 2.81 2.81 0 0 0 2.813 2.808z"/><path fill="#E7F1FF" d="M215.813 242.616a2.81 2.81 0 0 0 2.813-2.808 2.81 2.81 0 0 0-2.813-2.808 2.81 2.81 0 0 0-2.813 2.808 2.81 2.81 0 0 0 2.813 2.808zM200.667 201.923a2.81 2.81 0 0 0 2.813-2.808 2.81 2.81 0 0 0-2.813-2.807 2.81 2.81 0 0 0-2.813 2.807 2.81 2.81 0 0 0 2.813 2.808zM212.813 216.616a2.81 2.81 0 0 0 2.813-2.808 2.81 2.81 0 0 0-2.813-2.808 2.81 2.81 0 0 0-2.813 2.808 2.81 2.81 0 0 0 2.813 2.808zM186.813 190.616a2.81 2.81 0 0 0 2.813-2.808 2.81 2.81 0 0 0-2.813-2.808 2.81 2.81 0 0 0-2.813 2.808 2.81 2.81 0 0 0 2.813 2.808zM206.813 181.616a2.81 2.81 0 0 0 2.813-2.808 2.81 2.81 0 0 0-2.813-2.808 2.81 2.81 0 0 0-2.813 2.808 2.81 2.81 0 0 0 2.813 2.808zM200.334 264.92a2.81 2.81 0 0 0 2.813-2.807 2.81 2.81 0 0 0-2.813-2.808 2.81 2.81 0 0 0-2.813 2.808 2.81 2.81 0 0 0 2.813 2.807zM125.813 170.616a2.81 2.81 0 0 0 2.813-2.808 2.81 2.81 0 0 0-2.813-2.808 2.81 2.81 0 0 0-2.813 2.808 2.81 2.81 0 0 0 2.813 2.808z"/><path fill="#FFF1ED" d="M121.608 155.756a2.804 2.804 0 0 0-.219-3.964 2.817 2.817 0 0 0-3.973.219 2.803 2.803 0 0 0 .22 3.964 2.815 2.815 0 0 0 3.972-.219zM150.266 151.343a2.81 2.81 0 0 0 2.813-2.808 2.81 2.81 0 0 0-2.813-2.807 2.81 2.81 0 0 0-2.813 2.807 2.81 2.81 0 0 0 2.813 2.808z"/><path fill="#E7F1FF" d="M145.493 167.212a2.81 2.81 0 0 0 2.813-2.807 2.81 2.81 0 0 0-2.813-2.808 2.81 2.81 0 0 0-2.813 2.808 2.81 2.81 0 0 0 2.813 2.807zM136.813 158.616a2.81 2.81 0 0 0 2.813-2.808 2.81 2.81 0 0 0-2.813-2.808 2.81 2.81 0 0 0-2.813 2.808 2.81 2.81 0 0 0 2.813 2.808zM116.813 140.616a2.81 2.81 0 0 0 2.813-2.808 2.81 2.81 0 0 0-2.813-2.808 2.81 2.81 0 0 0-2.813 2.808 2.81 2.81 0 0 0 2.813 2.808zM177.813 171.616a2.81 2.81 0 0 0 2.813-2.808 2.81 2.81 0 0 0-2.813-2.808 2.81 2.81 0 0 0-2.813 2.808 2.81 2.81 0 0 0 2.813 2.808z"/><path fill="#FFF1ED" d="M207.626 156.808a2.806 2.806 0 0 1-1.736 2.594 2.819 2.819 0 0 1-3.066-.609 2.81 2.81 0 0 1-.61-3.06 2.816 2.816 0 0 1 2.599-1.733"/><path fill="#E7F1FF" d="M162.614 162.227a2.81 2.81 0 0 0 2.813-2.808 2.81 2.81 0 0 0-2.813-2.808 2.81 2.81 0 0 0-2.813 2.808 2.81 2.81 0 0 0 2.813 2.808z"/><path fill="#FFF1ED" d="M144.102 183.082a2.81 2.81 0 0 0 2.813-2.808 2.81 2.81 0 0 0-2.813-2.808 2.81 2.81 0 0 0-2.813 2.808c0 1.55 1.26 2.808 2.813 2.808z"/><path fill="#E7F1FF" d="M127.981 183.018a2.81 2.81 0 0 0 2.813-2.808 2.81 2.81 0 0 0-2.813-2.808 2.81 2.81 0 0 0-2.813 2.808 2.81 2.81 0 0 0 2.813 2.808zM188.813 155.616a2.81 2.81 0 0 0 2.813-2.808 2.81 2.81 0 0 0-2.813-2.808 2.81 2.81 0 0 0-2.813 2.808 2.81 2.81 0 0 0 2.813 2.808zM91.813 196.616a2.81 2.81 0 0 0 2.813-2.808A2.81 2.81 0 0 0 91.813 191 2.81 2.81 0 0 0 89 193.808a2.81 2.81 0 0 0 2.813 2.808z"/><path fill="#fff" d="M320.966 275.911V25.069H188.033V275.91h132.933z"/><path fill="#3C4043" d="M320.966 276.943H188.034A1.034 1.034 0 0 1 187 275.91V25.068a1.032 1.032 0 0 1 1.034-1.033h132.932A1.035 1.035 0 0 1 322 25.068V275.91a1.034 1.034 0 0 1-1.034 1.033zm-131.899-2.065h130.866V26.101H189.067v248.777z"/><path fill="#fff" d="M160.5 134l3-2-4.5 37-2.5-2 4-33z"/><path fill="#FFF1ED" d="M194.96 130.895c3.572-3.251 5.701-7.34 6.537-12.089.963-5.511 2.585-12.19 4.814-11.961 3.801.381 1.521 16.761 1.521 16.761s2.407-18.793 6.208-18.539c3.8.254 0 20.444 0 20.444s6.132-17.015 10.895-15.365c3.497 1.219-2.61 14.958-6.081 22.12a2.438 2.438 0 0 0 .223 2.503 2.43 2.43 0 0 0 2.311.976c5.422-.813 13.531-1.092 14.291 1.905.836 3.301-10.465 6.069-16.622 7.872a17.22 17.22 0 0 0-6.791 3.835l-2.631 2.402"/><path fill="#3C4043" d="M209.635 152.521a.76.76 0 0 1-.512-1.325l2.631-2.402a17.858 17.858 0 0 1 7.091-4.003c.682-.2 1.429-.412 2.215-.635 3.072-.872 6.895-1.958 9.761-3.159 4.015-1.684 4.219-2.77 4.121-3.16-.467-1.841-6.246-2.417-13.442-1.338a3.197 3.197 0 0 1-3.037-1.28 3.198 3.198 0 0 1-.291-3.29c5.21-10.749 7.783-18.476 6.88-20.665a.595.595 0 0 0-.137-.242.596.596 0 0 0-.23-.156c-2.795-.968-7.49 8.131-9.93 14.905a.765.765 0 0 1-.916.477.761.761 0 0 1-.546-.878c1.205-6.405 2.531-17.326.957-19.363-.131-.17-.222-.176-.261-.178-.19-.014-1.786.132-3.736 8.577-.882 3.818-1.449 7.706-1.616 8.916l-.052.391a.76.76 0 1 1-1.507-.203c0-.008.019-.149.053-.399.503-3.844 1.286-13.019-.421-15.195a.675.675 0 0 0-.474-.312c-.076-.007-1.999-.061-3.99 11.335-.885 5.023-3.164 9.235-6.776 12.52a.76.76 0 0 1-1.27-.601.766.766 0 0 1 .248-.528c3.356-3.053 5.476-6.975 6.3-11.656.603-3.448 1.263-6.222 1.963-8.25.675-1.955 1.796-4.532 3.678-4.337a2.185 2.185 0 0 1 1.516.886c.808 1.03 1.182 3.013 1.314 5.269 1.894-7.232 3.674-8.014 4.871-7.935a1.837 1.837 0 0 1 1.362.766c1.582 2.047 1.035 8.999.333 14.296.384-.823.802-1.675 1.243-2.514 3.069-5.836 5.735-8.267 8.156-7.428a2.122 2.122 0 0 1 1.273 1.255c1.407 3.412-2.986 13.802-6.919 21.917a1.635 1.635 0 0 0 .148 1.714 1.648 1.648 0 0 0 1.593.678c3.276-.491 14.063-1.766 15.136 2.471.858 3.385-5.951 5.607-14.94 8.16-.783.222-1.525.431-2.205.632a16.346 16.346 0 0 0-6.492 3.667l-2.631 2.401a.753.753 0 0 1-.512.199z"/><path fill="#FFED96" d="M145.038 118.152l-7.629 13.823-1.802 3.263a18.75 18.75 0 0 1-6.869 7.074 18.693 18.693 0 0 1-9.5 2.602h-7.677a21.154 21.154 0 0 1-11.03-3.106 23.394 23.394 0 0 1-7.837-7.906 25.04 25.04 0 0 1-2.72-6.3l-17.716-.082-4.834-.022-6.439-.031-22.247 35.91-15.768-9.836-7.044-4.394-7.316-4.563 6.115-9.854 16.606-26.759 1.432-2.306 3.365-5.422c.45-.729.954-1.422 1.508-2.075a17.716 17.716 0 0 1 6.076-4.653 17.679 17.679 0 0 1 7.467-1.653h.076l10.78.005 21.433.008c5.493.002 11.035.005 16.04.002 3.909.006 7.487.006 10.457.006h.002l8.461.005h8.048l22.475 7.598a24.359 24.359 0 0 1 3.198 4.63l.714 2.102 7.632 22.452 5.598 16.471 25.668-18.538 20.752 28.849-3.801 2.746-41.277 29.811a17.653 17.653 0 0 1-10.364 3.353 18.003 18.003 0 0 1-5.397-.838c-18.579-8.684-25.702-41.14-27.526-46.473"/><path fill="#E7F1FF" d="M244.243 240.046s-.185 8.035-.152 12.901c.038 5.696 3.547 10.666 9.223 10.666h10.313a16.112 16.112 0 0 1 9.58 3.148 16.18 16.18 0 0 1 5.851 8.229h-53.54l-11.91-7.644-1.647 7.644h-15.025l2.66-20.088 44.647-14.856z"/><path fill="#3C4043" d="M279.058 275.752h-53.54a.76.76 0 0 1-.41-.12l-10.987-7.053-1.416 6.572a.762.762 0 0 1-.744.601h-15.025a.767.767 0 0 1-.572-.26.769.769 0 0 1-.182-.602l2.661-20.088a.768.768 0 0 1 .514-.623l44.646-14.856a.758.758 0 0 1 1 .74c-.002.081-.185 8.08-.152 12.879.034 4.924 2.951 9.909 8.463 9.909h10.313a16.808 16.808 0 0 1 10.041 3.282 16.87 16.87 0 0 1 6.116 8.631.767.767 0 0 1-.383.906.76.76 0 0 1-.343.082zm-53.318-1.524h52.249a15.353 15.353 0 0 0-5.649-7.17 15.3 15.3 0 0 0-8.714-2.684h-10.312c-5.74 0-9.938-4.804-9.984-11.423-.025-3.764.081-9.479.129-11.843l-43.172 14.367-2.483 18.753h13.545l1.517-7.043a.775.775 0 0 1 .159-.327.76.76 0 0 1 .994-.154l11.721 7.524z"/><path fill="#E7F1FF" d="M47.682 243.73l-.502.226a9.358 9.358 0 0 0-5.524 9.739 9.358 9.358 0 0 0 1.318 3.746l5.042 8.153.482.05a9.284 9.284 0 0 1 6.19 3.208 9.321 9.321 0 0 1 2.222 6.62H40.77l-22.045-35.757.583-19.504-10.668 2.794-7.88-12.8 33.346-9.904 13.576 43.429z"/><path fill="#3C4043" d="M56.91 276.234H40.77a.761.761 0 0 1-.647-.361l-22.045-35.758a.762.762 0 0 1-.113-.423l.553-18.487-9.685 2.537a.763.763 0 0 1-.839-.338l-7.88-12.799a.764.764 0 0 1 .43-1.131l33.346-9.904a.758.758 0 0 1 .94.503l13.578 43.43a.762.762 0 0 1-.415.923l-.502.225a8.577 8.577 0 0 0-4.757 5.31 8.612 8.612 0 0 0 .887 7.08l4.845 7.834.112.012a9.977 9.977 0 0 1 6.708 3.458 10.023 10.023 0 0 1 2.383 7.174.764.764 0 0 1-.759.715zm-15.717-1.524h14.973a8.502 8.502 0 0 0-2.278-5.642 8.466 8.466 0 0 0-5.46-2.665l-.491-.051a.752.752 0 0 1-.567-.355l-5.042-8.153a10.126 10.126 0 0 1-1.066-8.268 10.108 10.108 0 0 1 5.492-6.262l-13.15-42.068-31.675 9.407 7.063 11.472 10.123-2.651a.751.751 0 0 1 .666.141.76.76 0 0 1 .287.619l-.576 19.275 21.701 35.201z"/><path fill="#FFF1ED" d="M12.802 146.935c-1.716 2.267-2.825 5.327-2.212 7.822.173.698.392 1.391.634 2.082-1.231.566-2.425 1.663-3.327 3.407a190.545 190.545 0 0 0-4.843 10.06 7.177 7.177 0 0 0-.386 4.759l.945 3.556a7.168 7.168 0 0 0 3.423 4.413 7.124 7.124 0 0 0 5.545.606 7.14 7.14 0 0 0 7.147 3.171 7.159 7.159 0 0 0 5.294 3.524c3.505.454 6.83-1.698 8.037-5.027 1.172-3.23 3.223-9.472 3.919-15.313 1.03-8.655.149-7.822.149-7.822l-24.325-15.238z"/><path fill="#3C4043" d="M25.937 191.155a7.988 7.988 0 0 1-1.389-.122 7.889 7.889 0 0 1-5.206-3.402 7.822 7.822 0 0 1-2.133-.081 7.933 7.933 0 0 1-4.945-3.038 7.892 7.892 0 0 1-5.837-.95 7.924 7.924 0 0 1-3.546-4.743l-.946-3.555a7.933 7.933 0 0 1 .428-5.269 191.341 191.341 0 0 1 4.86-10.098 8.404 8.404 0 0 1 3.074-3.426 21.285 21.285 0 0 1-.444-1.53c-.735-2.988.728-6.332 2.343-8.465a.756.756 0 0 1 1.009-.186l24.127 15.113c.081.015.16.041.234.078.527.266 1.124.568.167 8.604-.706 5.923-2.784 12.244-3.96 15.485a8.456 8.456 0 0 1-3.047 4.02 8.429 8.429 0 0 1-4.789 1.565zm-6.208-5.104a.756.756 0 0 1 .658.381 6.366 6.366 0 0 0 4.732 3.148c3.085.4 6.127-1.505 7.225-4.531 1.153-3.179 3.191-9.374 3.878-15.144.596-5.005.525-6.619.448-7.119l-23.667-14.824c-1.481 2.207-2.136 4.743-1.675 6.614.15.608.345 1.248.614 2.013a.765.765 0 0 1-.401.946c-1.187.545-2.214 1.605-2.97 3.064a189.4 189.4 0 0 0-4.822 10.02 6.401 6.401 0 0 0-.346 4.253l.945 3.555a6.408 6.408 0 0 0 3.06 3.945 6.389 6.389 0 0 0 4.957.539.76.76 0 0 1 .856.315 6.413 6.413 0 0 0 4.254 2.822 6.317 6.317 0 0 0 2.134.012c.04-.007.08-.01.121-.01v.001zm17.919-23.324h-.002.002zM60.79 128.228a.753.753 0 0 1-.665-.395.766.766 0 0 1 .025-.775l4.333-6.832a.763.763 0 0 1 1.045-.227.761.761 0 0 1 .238 1.045l-4.333 6.831a.757.757 0 0 1-.642.353z"/><path fill="#3C4043" d="M19.752 187.574h-.042a.764.764 0 0 1-.52-1.307.763.763 0 0 1 .54-.217h.029c.25 0 3.226-.078 5.224-3.692a.766.766 0 0 1 .455-.372.77.77 0 0 1 .583.064.752.752 0 0 1 .364.462.762.762 0 0 1-.073.584c-2.398 4.339-6.099 4.478-6.56 4.478zM12.694 184.41a.76.76 0 0 1-.762-.759.762.762 0 0 1 .758-.765c.13-.002 2.946-.093 4.98-3.565a.755.755 0 0 1 1.04-.271.76.76 0 0 1 .271 1.043c-2.497 4.262-6.132 4.317-6.286 4.317zM11.142 175.003a.752.752 0 0 1-.68-.421.764.764 0 0 1 .073-.797c4.226-5.629 2.551-9.959.778-14.543a36.295 36.295 0 0 1-1.46-4.302.764.764 0 0 1 .555-.923.758.758 0 0 1 .92.556c.381 1.401.85 2.777 1.403 4.119 1.759 4.547 3.752 9.701-.981 16.007a.756.756 0 0 1-.608.304zM157.177 191.92a18.465 18.465 0 0 1-10.77-3.457 18.528 18.528 0 0 1-6.748-9.095.763.763 0 0 1 .477-.955.757.757 0 0 1 .961.461 17.018 17.018 0 0 0 4.185 6.656 16.953 16.953 0 0 0 21.812 1.659l44.462-32.113-19.863-27.613-25.051 18.093a.76.76 0 0 1-1.164-.372l-13.922-40.967a23.655 23.655 0 0 0-2.937-4.278l-22.161-7.492-16.385-.005c-2.972 0-6.55 0-10.46-.005-5.003.002-10.545 0-16.039-.003l-32.288-.013c-2.47-.003-4.91.535-7.149 1.578a16.913 16.913 0 0 0-5.813 4.457 16.385 16.385 0 0 0-1.444 1.985L9.764 144.136 38.6 162.123l21.846-35.26a.762.762 0 0 1 .646-.36h.004l6.438.031 16.52-.229a.758.758 0 0 1 .77.751.764.764 0 0 1-.75.773l-16.533.228-6.027-.028-22.023 35.546a.756.756 0 0 1-.77.35.77.77 0 0 1-.278-.105L8.316 145.027a.762.762 0 0 1-.244-1.049l27.517-44.341c.47-.76.997-1.485 1.575-2.166a18.43 18.43 0 0 1 6.333-4.856 18.389 18.389 0 0 1 7.788-1.718l32.29.013c5.492.002 11.034.005 16.038.002 3.911.005 7.488.005 10.458.005l16.511.005c.083 0 .165.014.243.04l22.475 7.599c.127.042.24.118.328.218a25.224 25.224 0 0 1 3.298 4.774.816.816 0 0 1 .049.114l13.611 40.052 24.836-17.938a.76.76 0 0 1 1.06.173l20.753 28.849a.766.766 0 0 1-.173 1.064l-45.077 32.557a18.513 18.513 0 0 1-10.808 3.496z"/><path fill="#fff" stroke="#3C4043" stroke-width="2" d="M217.579 166.19l.004.012.004.012 27.472 73.721-47.437 15.919-17.712-65.135-.162-.597-.607-.121-49.709-9.91-1.342-.267.153 1.359 1.869 16.665v.001a21.871 21.871 0 0 1-3.375 14.34 21.791 21.791 0 0 1-11.694 8.924l-.011.003-.011.004-66.892 22.964-14.273-45.045 50.108-13.874.817-.227-.09-.842-4.316-40.817v0l-.005-.049a22.55 22.55 0 0 1-.106-2.202v-.004a21.906 21.906 0 0 1 3.847-12.492c.142-.01.3-.026.465-.043.206-.022.423-.047.653-.074.354-.04.737-.084 1.155-.126.67-.066 1.349-.117 1.93-.117.512.001.84.043 1.013.089.06.086.14.224.236.424.194.405.401.945.614 1.539.105.294.208.592.31.887l.012.037c.097.28.192.556.284.812.177.497.376 1.028.575 1.356 2.151 3.558 8.66 12.022 22.376 12.598 6.601.277 10.915-.61 14.107-2.161 3.032-1.473 4.967-3.513 6.804-5.449l.267-.282a2.27 2.27 0 0 0 .327-.417l69.469 15.304a21.727 21.727 0 0 1 7.888 5.176 21.801 21.801 0 0 1 4.983 8.105zM80.368 143.218v-.003.003zm8.918-15.011l-.007-.007.007.007z"/><path fill="#3C4043" d="M127.963 182.256a.76.76 0 0 1-.754-.677l-2.204-19.732a.764.764 0 0 1 .388-.752.754.754 0 0 1 1.033.299.763.763 0 0 1 .09.283l2.204 19.733a.76.76 0 0 1-.757.846zM180.253 191.782a.756.756 0 0 1-.73-.55l-3.395-11.707a.766.766 0 0 1 .064-.58.757.757 0 0 1 1.032-.301.76.76 0 0 1 .364.456l3.395 11.707a.764.764 0 0 1-.73.975zM82.76 186.574a.763.763 0 0 1-.245-1.483l8.92-3.047a.763.763 0 0 1 .584.032.769.769 0 0 1 .388.44.762.762 0 0 1-.482.97l-8.92 3.047a.757.757 0 0 1-.245.041zM118.738 145.5h-7.678a22.019 22.019 0 0 1-11.424-3.216 24.23 24.23 0 0 1-8.093-8.162 25.735 25.735 0 0 1-2.64-5.937l-5.645-.025a.758.758 0 0 1-.758-.763.763.763 0 0 1 .762-.761l.853-.304h3.582c.166.001 2.107.388 2.239.489a.762.762 0 0 1 .27.402 24.267 24.267 0 0 0 2.636 6.109 22.715 22.715 0 0 0 7.581 7.65 20.511 20.511 0 0 0 10.637 2.997h7.677c2.514.002 5-.529 7.295-1.557a18.09 18.09 0 0 0 8.409-7.726l1.801-3.264 6.989-13.575a.768.768 0 0 1 .444-.381.762.762 0 0 1 .907 1.079l-6.999 13.595-1.811 3.281a19.61 19.61 0 0 1-9.12 8.381 19.297 19.297 0 0 1-7.914 1.688z"/><path fill="#FFFBEA" d="M204.339 250.328l1.63 1.2-7.713 3.07a3.924 3.924 0 0 1 .052-2.406 3.916 3.916 0 0 1 3.747-2.63c.822.01 1.621.278 2.284.766z"/><path stroke="#3C4043" stroke-width="2" d="M163.781 80.081c.09.063.198.1.313.106a.72.72 0 0 0 .345-.071.878.878 0 0 0 .47-.565c.962-3.584.779-7.23-.519-10.356-1.297-3.127-3.634-5.554-6.638-6.892-3.003-1.339-6.499-1.512-9.929-.492-3.431 1.02-6.597 3.173-8.992 6.117 0 0 3.539 1.19 4.062 6.275.145 1.419-.835 5.85-.835 5.85l4.039-1.453"/><path fill="#FFF1ED" d="M156.545 89.904l2.809 2.123 1.29-7.518s.734-.835 1.143-1.219a11.762 11.762 0 0 0 2.762-3.821l-5.388-4.074c-3.66-2.768-6.229-2.7-9.482.537l-4.244 5.04-1.434-1.66a6.054 6.054 0 0 0-.54-10.348 6.018 6.018 0 0 0-5.937.156 6.043 6.043 0 0 0-2.925 5.18 5.908 5.908 0 0 0 1.632 4.06l-.018.056a12.072 12.072 0 0 0-1.818 6.131l-4.61 3.136a6.958 6.958 0 0 0 .005 11.478 6.923 6.923 0 0 0 4.251 1.195l1.09-.051a13.49 13.49 0 0 0 6.765-2.235l1.825-1.219c2.66.659 5.464.402 7.961-.728a12.233 12.233 0 0 0 5.81-5.505"/><path fill="#3C4043" d="M133.663 101.128a7.681 7.681 0 0 1-4.557-1.519 7.723 7.723 0 0 1 .255-12.559l4.292-2.92a12.857 12.857 0 0 1 1.653-5.68 6.587 6.587 0 0 1-1.467-4.15 6.826 6.826 0 0 1 2.143-4.962 6.785 6.785 0 0 1 7.11-1.381 6.795 6.795 0 0 1 2.995 2.292 6.822 6.822 0 0 1 1.315 3.54 6.873 6.873 0 0 1-.492 3.087 6.843 6.843 0 0 1-1.809 2.546l.326.377 3.67-4.359a.862.862 0 0 1 .046-.049c3.503-3.486 6.44-3.655 10.476-.604l5.387 4.074a.762.762 0 0 1 .235.922 12.465 12.465 0 0 1-2.939 4.069c-.27.253-.718.746-.946 1l-1.252 7.304a.764.764 0 0 1-.851.626.761.761 0 0 1-.356-.147l-1.171-.884a12.99 12.99 0 0 1-5.985 5.178 12.96 12.96 0 0 1-7.873.739l-1.549 1.035a14.287 14.287 0 0 1-7.148 2.362l-1.094.051a7.178 7.178 0 0 1-.414.012zm6.964-32.11a5.263 5.263 0 0 0-3.725 1.548 5.288 5.288 0 0 0-1.543 3.734 5.145 5.145 0 0 0 1.428 3.54.768.768 0 0 1 .168.751l-.018.057a.835.835 0 0 1-.08.173 11.372 11.372 0 0 0-1.703 5.751.762.762 0 0 1-.333.605l-4.609 3.137a6.193 6.193 0 0 0-2.374 7.08 6.181 6.181 0 0 0 2.377 3.14 6.156 6.156 0 0 0 3.786 1.061l1.095-.05a12.766 12.766 0 0 0 6.381-2.109l1.821-1.217a.76.76 0 0 1 .604-.106c2.389.591 4.903.397 7.173-.555a11.473 11.473 0 0 0 5.43-4.728l-.418-.316a.761.761 0 0 1 .915-1.217l.917.692c.021.015.041.03.06.046l.838.632 1.077-6.287a.758.758 0 0 1 .18-.375c.031-.036.764-.867 1.194-1.27a10.979 10.979 0 0 0 2.324-3.034l-4.889-3.697c-3.398-2.569-5.537-2.458-8.466.445l-4.221 5.014a.76.76 0 0 1-1.156.008l-1.434-1.66a.769.769 0 0 1-.071-.9.756.756 0 0 1 .221-.23 5.296 5.296 0 0 0 2.143-5.76 5.284 5.284 0 0 0-1.75-2.709 5.264 5.264 0 0 0-3.342-1.194z"/><path fill="#3C4043" d="M143.696 97.614a.758.758 0 0 1-.188-.024 13.228 13.228 0 0 1-6.673-4.137.768.768 0 0 1-.117-.848.757.757 0 0 1 .743-.422.762.762 0 0 1 .523.273 11.693 11.693 0 0 0 5.899 3.657.758.758 0 0 1 .567.832.762.762 0 0 1-.754.668zM155.443 83.383a1.091 1.091 0 1 0-.002-2.182 1.091 1.091 0 0 0 .002 2.182zM141.146 77.832a.76.76 0 0 1-.611-.308l-2.264-3.06a.756.756 0 0 1-.148-.568.751.751 0 0 1 .299-.505.76.76 0 0 1 1.07.166l1.341 1.812.843-3.014a.761.761 0 0 1 1.395-.167.769.769 0 0 1 .069.579l-1.262 4.51a.768.768 0 0 1-.595.543.766.766 0 0 1-.137.013z"/><path fill="#9AA0A6" d="M261.586 175.434l-1.172-1.622 36.603-26.435 34.591 26.452-1.215 1.588-33.409-25.548-35.398 25.565z"/><path fill="#3C4043" d="M343 231.623a1 1 0 0 1-1 1h-90a1 1 0 0 1-1-1v-21h92v21z" opacity=".2"/><path fill="#07377F" d="M343 228.623a2 2 0 0 1-2 2h-88a2 2 0 0 1-2-2v-56a2 2 0 0 1 2-2h88a2 2 0 0 1 2 2v56z"/><path fill="#FFBCA5" d="M297 180.623c-11.028 0-20 8.973-20 20s8.972 20 20 20 20-8.973 20-20-8.972-20-20-20zm-15.798 17.437c1.061-6.734 6.501-12.174 13.235-13.235 4.238-.668 8.216.358 11.402 2.485.513.343.559 1.086.122 1.522l-20.752 20.752c-.436.436-1.18.391-1.522-.122-2.126-3.185-3.152-7.163-2.485-11.402zm18.361 18.361c-4.238.668-8.216-.358-11.402-2.485-.513-.343-.559-1.086-.122-1.522l20.752-20.752c.436-.436 1.18-.391 1.522.122 2.127 3.186 3.153 7.164 2.485 11.402-1.061 6.733-6.501 12.173-13.235 13.235z"/><circle cx="297" cy="153" r="6" fill="#3C4043"/><path fill="#FFBCA5" d="M323.648.57c-.687-.231-.242-.056-.225-.044l.191.179-.074.135-.664-.073.361.279-.569-.041.415.308-.772-.121.177.225.002.162.017.17-.212.098.737.43-.952-.186.541.36.162.224-.322.043-.029.151-.343.034.339.294.223.244-.531-.036.357.292-.483-.02.636.404-.63-.076.338.302-.811-.151.874.506-.285.054-.71-.112.526.368-.19.094-.507-.035.783.472-.141.108-.362.02.263.27-.481-.034-.109.12.611.41-.916-.205.169.232-.168.098.531.38-.711-.128.531.382-.249.064-.478-.032.352.307-.296.043.076.19.204.25.068.19-.001.166-.278.05.017.171-.085.131-.398-.004.033.18.504.38-.089.13-.074.135-.424-.015-.051.145c.024.067.069.141.1.21l-.278.046.599.429-.272.048.135.234-.353.01.073.2.061.192c.014.046-.273-.042.087.157.059.032-.021.034.768.384l.366.162.646.28.405.188c.036.018.074.03.113.039.05-.023-.046-.108-.061-.158l.072-.14-.061-.19.306-.03.399.005-.116-.221.344-.022-.125-.226c.011-.053.019-.107.024-.16l.19-.092-.346-.32.386-.004.294-.045-.205-.258.46.026-.005-.173-.077-.204.522.05-.346-.317-.297-.295.651.102c.048-.036.092-.076.14-.113l-.64-.434.746.14-.498-.375.127-.117.159-.105.489.03.15-.11-.601-.445-.017-.172.957.216-.639-.424.13-.118.723.127-.47-.349-.336-.302.953.208-.702-.446.603.065-.398-.324.735.125-.729-.453.556.048-.396-.322.725.11-.402-.324-.017-.176.849.132.03-.157-.085-.2-.724-.442.164-.107.702.108.203-.093-.806-.469.722.1-.474-.347.355-.035-.223-.245.06-.158.111-.127.584.045.154-.111.055-.148-.663-.406.396-.026.692.08-.04-.181a4.58 4.58 0 0 0-.254-.257l.414-.021-.605-.383.234.029.183.023c.022-.002.153.032-.11-.074s-.92-.35-2.476-.891l-1.673-.574zM338.397 5.482c-.456-.554-.192-.18-.191-.169l-.002.106a.27.27 0 0 0 .008.085l.005.046-.158.127-.541-.346.124.483-.487-.282.141.5-.625-.448-.011.31-.126.17-.11.188-.263.003.362.764-.752-.583.236.6-.013.3-.335-.08-.14.15-.351-.098.114.444.034.347-.48-.243.118.446-.456-.22.322.67-.55-.315.136.457-.677-.461.487.859-.312-.043-.613-.372.259.588-.239.04-.461-.215.438.784-.194.071-.369-.1.083.392-.457-.19-.191.098.339.65-.777-.523.019.314-.227.056.289.59-.638-.352.293.589-.283.002-.451-.174.152.443-.318-.027-.04.248.054.34-.049.235-.103.182-.311-.022-.088.197-.164.122-.413-.113-.074.207.297.57-.169.118c-.052.043-.102.09-.152.135l-.432-.13-.134.154-.019.26-.332-.032.41.653-.313-.013.03.309c-.128-.026-.254-.05-.378-.071l-.02.254-.028.244c-.017.05-.242-.09.047.233.048.052-.019.05.609.61l.301.25.521.454c.136.13.282.25.437.357.078.002.052-.087.051-.155l.139-.137.027-.239.335.041.414.12-.017-.279c.12.024.245.05.36.069l-.04-.302.089-.183.23-.05-.197-.452.389.101.31.028-.082-.348.443.156.077-.193.022-.248.484.2-.18-.445-.139-.409.58.297.193-.079-.384-.657.652.38-.276-.561.192-.085.213-.06.459.19.206-.065-.351-.632.088-.189.797.55-.369-.666.193-.08.622.376-.254-.539-.143-.435.784.558-.404-.72.526.285-.182-.484.621.394-.401-.751.493.257-.176-.482.611.391-.176-.486.092-.187.691.49.126-.149.047-.238-.385-.725.221-.042.584.382.244-.01-.433-.805.594.402-.206-.544.346.112-.033-.344.141-.132.193-.079.496.297.212-.043.149-.12-.32-.688.372.153.561.39c.027-.064.058-.128.094-.188l-.034-.345.408.206-.264-.644c.065.05.135.107.186.138l.129.087c.015.01.101.092-.063-.145l-.176-.243-.302-.4-1.086-1.4c-.531-.7-.866-1.103-1.061-1.35zM341.245 19.354c-.213-.643-.093-.223-.091-.207l-.005.095c.004.043.011.116 0 .113l-.099.031-.274-.514.028.433-.25-.427.045.463-.308-.62-.033.24-.083.077-.078.098-.146-.113.129.743-.359-.78.072.565-.038.225-.177-.21-.092.052-.183-.231.015.387-.02.277-.247-.398.015.388-.224-.356.099.65-.256-.487.019.405-.32-.655.169.867-.167-.178-.288-.556.069.554-.135-.082-.229-.367.142.784-.123-.044-.188-.245-.009.318-.221-.352-.114-.016.093.631-.347-.744-.035.235-.132-.067.07.56-.287-.556.069.558-.155-.139-.221-.344.016.388-.166-.179-.059.158-.023.267-.063.142-.084.08-.161-.163-.078.096-.107.01-.198-.274-.074.112.052.53-.11.001-.105.01-.206-.302-.099.033-.059.16-.17-.192.093.631-.17-.19-.042.21-.198-.277-.063.142-.065.135c-.016.034-.133-.25-.032.141.006.066-.027.003.236.823l.125.378.22.673.14.414a.731.731 0 0 0 .042.11c.035.02.021-.11.035-.155l.095-.042.054-.175.17.188.198.278.038-.223.177.212.038-.226.083-.082.134.076-.018-.402.191.257.165.178.024-.27.214.325.081-.09.06-.154.23.379-.015-.388-.003-.348.266.493.125.045-.096-.645.299.588-.052-.528.119.03.128.06.224.355.126.052-.088-.618.081-.09.359.775-.1-.65.12.035.291.567-.05-.51-.014-.389.359.775-.118-.713.253.456-.031-.439.296.58-.126-.735.249.42-.031-.437.294.572-.033-.442.077-.095.329.684.093-.052.06-.156-.126-.731.131.069.287.555.144.105-.148-.805.293.573-.049-.498.188.243.024-.271.098-.039.116.022.252.45.129.061.101-.027-.106-.675.2.282.29.555.077-.1.017-.289.216.335-.09-.621.095.185.072.137c.001.017.053.123-.013-.133-.067-.256-.263-.877-.724-2.309l-.526-1.528z"/><path fill="#FFF1ED" d="M213.813 181.616a2.81 2.81 0 0 0 2.813-2.808 2.81 2.81 0 0 0-2.813-2.808 2.81 2.81 0 0 0-2.813 2.808 2.81 2.81 0 0 0 2.813 2.808zM193.813 164.616a2.81 2.81 0 0 0 2.813-2.808 2.81 2.81 0 0 0-2.813-2.808 2.81 2.81 0 0 0-2.813 2.808 2.81 2.81 0 0 0 2.813 2.808z"/><path fill="#E7F1FF" d="M76.813 199.616a2.81 2.81 0 0 0 2.813-2.808A2.81 2.81 0 0 0 76.813 194 2.81 2.81 0 0 0 74 196.808a2.81 2.81 0 0 0 2.813 2.808zM140.813 148.616a2.81 2.81 0 0 0 2.813-2.808 2.81 2.81 0 0 0-2.813-2.808 2.81 2.81 0 0 0-2.813 2.808 2.81 2.81 0 0 0 2.813 2.808zM87.813 211.616a2.81 2.81 0 0 0 2.813-2.808A2.81 2.81 0 0 0 87.813 206 2.81 2.81 0 0 0 85 208.808a2.81 2.81 0 0 0 2.813 2.808zM42.813 205.616a2.81 2.81 0 0 0 2.813-2.808A2.81 2.81 0 0 0 42.813 200 2.81 2.81 0 0 0 40 202.808a2.81 2.81 0 0 0 2.813 2.808zM94.811 179.082a2.804 2.804 0 0 0 .283-3.961 2.817 2.817 0 0 0-3.969-.281 2.803 2.803 0 0 0-.282 3.96 2.816 2.816 0 0 0 3.968.282zM100.813 220.616a2.81 2.81 0 0 0 2.813-2.808 2.81 2.81 0 0 0-2.813-2.808A2.81 2.81 0 0 0 98 217.808a2.81 2.81 0 0 0 2.813 2.808z"/><path fill="#FFF1ED" d="M117.282 211.663a2.81 2.81 0 0 0 2.813-2.808 2.81 2.81 0 0 0-2.813-2.808 2.81 2.81 0 0 0-2.813 2.808 2.81 2.81 0 0 0 2.813 2.808z"/><path fill="#E7F1FF" d="M119.813 192.616a2.81 2.81 0 0 0 2.813-2.808 2.81 2.81 0 0 0-2.813-2.808 2.81 2.81 0 0 0-2.813 2.808 2.81 2.81 0 0 0 2.813 2.808zM102.813 169.616a2.81 2.81 0 0 0 2.813-2.808 2.81 2.81 0 0 0-2.813-2.808 2.81 2.81 0 0 0-2.813 2.808 2.81 2.81 0 0 0 2.813 2.808zM157.813 156.616a2.81 2.81 0 0 0 2.813-2.808 2.81 2.81 0 0 0-2.813-2.808 2.81 2.81 0 0 0-2.813 2.808 2.81 2.81 0 0 0 2.813 2.808z"/><path fill="#FFF1ED" d="M106.813 191.616a2.81 2.81 0 0 0 2.813-2.808 2.81 2.81 0 0 0-2.813-2.808 2.81 2.81 0 0 0-2.813 2.808 2.81 2.81 0 0 0 2.813 2.808zM54.813 202.616a2.81 2.81 0 0 0 2.813-2.808A2.81 2.81 0 0 0 54.813 197 2.81 2.81 0 0 0 52 199.808a2.81 2.81 0 0 0 2.813 2.808zM54.813 233.616a2.81 2.81 0 0 0 2.813-2.808A2.81 2.81 0 0 0 54.813 228 2.81 2.81 0 0 0 52 230.808a2.81 2.81 0 0 0 2.813 2.808zM132.813 172.616a2.81 2.81 0 0 0 2.813-2.808 2.81 2.81 0 0 0-2.813-2.808 2.81 2.81 0 0 0-2.813 2.808 2.81 2.81 0 0 0 2.813 2.808z"/><path fill="#E7F1FF" d="M117.599 176.067c.373.121.716.322 1.005.589a2.812 2.812 0 0 1 .152 3.971 2.802 2.802 0 0 1-1.954.895 2.82 2.82 0 0 1-2.794-1.987 2.78 2.78 0 0 1-.042-1.459M87.848 229.323a2.814 2.814 0 0 1 1.83-3.529 2.809 2.809 0 0 1 2.14.187c.662.344 1.072 1.234 1.297 1.946"/><path fill="#FFF1ED" d="M103.813 207.616a2.81 2.81 0 0 0 2.813-2.808 2.81 2.81 0 0 0-2.813-2.808 2.81 2.81 0 0 0-2.813 2.808 2.81 2.81 0 0 0 2.813 2.808zM81.813 221.616a2.81 2.81 0 0 0 2.813-2.808A2.81 2.81 0 0 0 81.813 216 2.81 2.81 0 0 0 79 218.808a2.81 2.81 0 0 0 2.813 2.808z"/><path fill="#E7F1FF" d="M208.71 170.308a2.81 2.81 0 0 0 2.813-2.808c0-1.55-1.26-2.808-2.813-2.808a2.812 2.812 0 0 0-2.814 2.808 2.811 2.811 0 0 0 2.814 2.808zM211.854 216.395a2.81 2.81 0 0 0 2.813-2.808 2.81 2.81 0 0 0-2.813-2.808 2.81 2.81 0 0 0-2.813 2.808 2.81 2.81 0 0 0 2.813 2.808zM207.081 232.264a2.81 2.81 0 0 0 2.813-2.808c0-1.55-1.26-2.808-2.813-2.808a2.81 2.81 0 0 0-2.813 2.808 2.81 2.81 0 0 0 2.813 2.808zM196.049 219.644a2.811 2.811 0 0 0 2.814-2.808 2.811 2.811 0 0 0-2.814-2.808 2.81 2.81 0 0 0-2.813 2.808 2.81 2.81 0 0 0 2.813 2.808z"/><path fill="#FFF1ED" d="M187.813 198.616a2.81 2.81 0 0 0 2.813-2.808 2.81 2.81 0 0 0-2.813-2.808 2.81 2.81 0 0 0-2.813 2.808 2.81 2.81 0 0 0 2.813 2.808z"/><path fill="#E7F1FF" d="M201.454 203.207a2.811 2.811 0 0 0 2.813-2.808 2.81 2.81 0 0 0-2.813-2.808 2.81 2.81 0 0 0-2.813 2.808 2.81 2.81 0 0 0 2.813 2.808zM192.813 181.616a2.81 2.81 0 0 0 2.813-2.808 2.81 2.81 0 0 0-2.813-2.808 2.81 2.81 0 0 0-2.813 2.808 2.81 2.81 0 0 0 2.813 2.808z"/><path fill="#FFF1ED" d="M222.813 233.616a2.81 2.81 0 0 0 2.813-2.808 2.81 2.81 0 0 0-2.813-2.808 2.81 2.81 0 0 0-2.813 2.808 2.81 2.81 0 0 0 2.813 2.808z"/><path fill="#E7F1FF" d="M233.813 239.616a2.81 2.81 0 0 0 2.813-2.808 2.81 2.81 0 0 0-2.813-2.808 2.81 2.81 0 0 0-2.813 2.808 2.81 2.81 0 0 0 2.813 2.808z"/><path fill="#FFF1ED" d="M203.813 242.616a2.81 2.81 0 0 0 2.813-2.808 2.81 2.81 0 0 0-2.813-2.808 2.81 2.81 0 0 0-2.813 2.808 2.81 2.81 0 0 0 2.813 2.808z"/><path fill="#E7F1FF" d="M218.667 198.923a2.81 2.81 0 0 0 2.813-2.808 2.81 2.81 0 0 0-2.813-2.807 2.81 2.81 0 0 0-2.813 2.807 2.81 2.81 0 0 0 2.813 2.808zM165.813 179.616a2.81 2.81 0 0 0 2.813-2.808 2.81 2.81 0 0 0-2.813-2.808 2.81 2.81 0 0 0-2.813 2.808 2.81 2.81 0 0 0 2.813 2.808zM227.813 213.616a2.81 2.81 0 0 0 2.813-2.808 2.81 2.81 0 0 0-2.813-2.808 2.81 2.81 0 0 0-2.813 2.808 2.81 2.81 0 0 0 2.813 2.808zM204.813 187.616a2.81 2.81 0 0 0 2.813-2.808 2.81 2.81 0 0 0-2.813-2.808 2.81 2.81 0 0 0-2.813 2.808 2.81 2.81 0 0 0 2.813 2.808zM92.813 194.616a2.81 2.81 0 0 0 2.813-2.808A2.81 2.81 0 0 0 92.813 189 2.81 2.81 0 0 0 90 191.808a2.81 2.81 0 0 0 2.813 2.808zM218.333 261.92a2.81 2.81 0 0 0 2.813-2.807 2.81 2.81 0 0 0-2.813-2.808 2.81 2.81 0 0 0-2.813 2.808 2.81 2.81 0 0 0 2.813 2.807zM140.813 162.616a2.81 2.81 0 0 0 2.813-2.808 2.81 2.81 0 0 0-2.813-2.808 2.81 2.81 0 0 0-2.813 2.808 2.81 2.81 0 0 0 2.813 2.808z"/><path fill="#FFF1ED" d="M92.607 156.756a2.803 2.803 0 0 0-.22-3.964 2.816 2.816 0 0 0-3.972.219 2.803 2.803 0 0 0 .22 3.964 2.815 2.815 0 0 0 3.972-.219zM121.266 152.343a2.81 2.81 0 0 0 2.813-2.808 2.81 2.81 0 0 0-2.813-2.807 2.81 2.81 0 0 0-2.813 2.807 2.81 2.81 0 0 0 2.813 2.808z"/><path fill="#E7F1FF" d="M159.813 167.616a2.81 2.81 0 0 0 2.813-2.808 2.81 2.81 0 0 0-2.813-2.808 2.81 2.81 0 0 0-2.813 2.808 2.81 2.81 0 0 0 2.813 2.808zM106.813 155.616a2.81 2.81 0 0 0 2.813-2.808 2.81 2.81 0 0 0-2.813-2.808 2.81 2.81 0 0 0-2.813 2.808 2.81 2.81 0 0 0 2.813 2.808zM87.813 141.616a2.81 2.81 0 0 0 2.813-2.808A2.81 2.81 0 0 0 87.813 136 2.81 2.81 0 0 0 85 138.808a2.81 2.81 0 0 0 2.813 2.808zM181.813 174.616a2.81 2.81 0 0 0 2.813-2.808 2.81 2.81 0 0 0-2.813-2.808 2.81 2.81 0 0 0-2.813 2.808 2.81 2.81 0 0 0 2.813 2.808z"/><path fill="#FFF1ED" d="M211.626 158.808a2.806 2.806 0 0 1-1.736 2.594 2.819 2.819 0 0 1-3.066-.609 2.81 2.81 0 0 1-.61-3.06 2.816 2.816 0 0 1 2.599-1.733"/><path fill="#E7F1FF" d="M180.614 159.227a2.81 2.81 0 0 0 2.813-2.808 2.81 2.81 0 0 0-2.813-2.808 2.81 2.81 0 0 0-2.813 2.808 2.81 2.81 0 0 0 2.813 2.808z"/><path fill="#FFF1ED" d="M115.813 172.616a2.81 2.81 0 0 0 2.813-2.808 2.81 2.81 0 0 0-2.813-2.808 2.81 2.81 0 0 0-2.813 2.808 2.81 2.81 0 0 0 2.813 2.808z"/><path fill="#E7F1FF" d="M145.981 180.018a2.81 2.81 0 0 0 2.813-2.808 2.81 2.81 0 0 0-2.813-2.808 2.81 2.81 0 0 0-2.813 2.808 2.81 2.81 0 0 0 2.813 2.808zM68.813 226.616a2.81 2.81 0 0 0 2.813-2.808A2.81 2.81 0 0 0 68.813 221 2.81 2.81 0 0 0 66 223.808a2.81 2.81 0 0 0 2.813 2.808zM68.813 211.616a2.81 2.81 0 0 0 2.813-2.808A2.81 2.81 0 0 0 68.813 206 2.81 2.81 0 0 0 66 208.808a2.81 2.81 0 0 0 2.813 2.808zM112.813 201.616a2.81 2.81 0 0 0 2.813-2.808 2.81 2.81 0 0 0-2.813-2.808 2.81 2.81 0 0 0-2.813 2.808 2.81 2.81 0 0 0 2.813 2.808zM51.813 217.616a2.81 2.81 0 0 0 2.813-2.808A2.81 2.81 0 0 0 51.813 212 2.81 2.81 0 0 0 49 214.808a2.81 2.81 0 0 0 2.813 2.808z"/><path fill="#FFDA2D" d="M272.444 259.376a3.676 3.676 0 0 1-.518 1.271 4.031 4.031 0 0 1-2.851 1.787l-13.123 1.71a.947.947 0 0 1-.753-.233l-7.371-6.608a3.695 3.695 0 0 1-1.216-3.271 3.86 3.86 0 0 1 2.125-2.9 3.909 3.909 0 0 1 3.357-.095 3.788 3.788 0 0 1 2.153 2.444l2.015 7.122 10.21-5.67a4.056 4.056 0 0 1 1.732-.505 4.057 4.057 0 0 1 1.779.299 3.817 3.817 0 0 1 2.245 2.438l.14.453c.168.571.194 1.174.076 1.758zm-14.818 2.638l11.199-1.459a2.134 2.134 0 0 0 1.512-.937 1.744 1.744 0 0 0 .219-1.452l-.139-.449a1.951 1.951 0 0 0-.433-.749 1.953 1.953 0 0 0-.715-.485 2.174 2.174 0 0 0-1.879.108l-9.764 5.423zm-9.119-7.835a1.816 1.816 0 0 0 .59 1.716l5.177 4.642-1.847-6.539a1.912 1.912 0 0 0-1.088-1.223 2.029 2.029 0 0 0-1.748.048 1.97 1.97 0 0 0-1.084 1.355v.001zM47.202 244.859a3.153 3.153 0 0 1 1.97 1.626 3.31 3.31 0 0 1 .057 2.865l-4 9.043 11.261 1.808a3.179 3.179 0 0 1 2.61 2.931l.011.217a3.345 3.345 0 0 1-1.602 3.089 3.05 3.05 0 0 1-3.203.021l-10.956-6.523a.95.95 0 0 1-.464-.836l.256-11.079a3.425 3.425 0 0 1 1.281-2.563 3.18 3.18 0 0 1 2.568-.653c.07.016.14.034.21.054zm-2.315 9.611l2.606-5.89.002-.008a1.42 1.42 0 0 0-.02-1.235 1.194 1.194 0 0 0-1.386-.659c-.18.047-.346.136-.485.259a1.525 1.525 0 0 0-.57 1.141l-.147 6.392zm10.688 10.495a1.219 1.219 0 0 0 .947-.146 1.473 1.473 0 0 0 .696-1.366l-.01-.219a1.28 1.28 0 0 0-1.04-1.169l-7.587-1.217 6.699 3.987c.092.056.191.1.295.13z"/></svg>