<svg width="383" height="293" viewBox="0 0 383 293" fill="none" xmlns="http://www.w3.org/2000/svg">
<path d="M382.009 51.2875V50.2824H381.968L381.961 12H52V293H382.009L382.002 252.468H382.009V251.462H382.002L381.995 212.221H382.009V211.215H381.995L381.988 172.023H382.009V171.017H381.988L381.981 131.778H382.009V130.772H381.981L381.974 91.5323H382.009V90.5263H381.974L381.967 51.287L382.009 51.2875ZM380.958 13.1021V50.2824H341.762V13.1021H380.958ZM340.758 13.1021V50.2824H300.272V13.1021H340.758ZM216.813 131.779H257.778V171.018H216.813V131.779ZM215.81 171.018H174.845V131.779H215.81V171.018ZM216.813 130.773V91.5328H257.778V130.773H216.813ZM215.81 130.773H174.845V91.5328H215.81V130.773ZM173.841 130.773H132.827V91.5328H173.84L173.841 130.773ZM173.841 131.779V171.018H132.827V131.779H173.841ZM173.841 172.024V211.215H132.827V172.024H173.841ZM174.845 172.024H215.81V211.215H174.845V172.024ZM216.813 172.024H257.778V211.215H216.813V172.024ZM258.781 172.024H299.268V211.215H258.781V172.024ZM258.781 171.018V131.779H299.268V171.018H258.781ZM258.781 130.773V91.5328H299.268V130.773H258.781ZM258.781 90.5268V51.2875H299.268V90.5268H258.781ZM257.778 90.5268H216.813V51.2875H257.778V90.5268ZM215.81 90.5268H174.845V51.2875H215.81V90.5268ZM173.841 90.5268H132.827V51.2875H173.84L173.841 90.5268ZM131.826 90.5268H90.8612V51.2875H131.826V90.5268ZM131.826 91.5328V130.773H90.8612V91.5328H131.826ZM131.826 131.779V171.018H90.8612V131.779H131.826ZM131.826 172.024V211.215H90.8612V172.024H131.826ZM131.826 212.222V251.461H90.8612V212.221L131.826 212.222ZM132.829 212.222H173.841V251.461H132.827L132.829 212.222ZM174.845 212.222H215.81V251.461H174.845V212.222ZM216.813 212.222H257.778V251.461H216.813V212.222ZM258.781 212.222H299.268V251.461H258.781V212.222ZM300.272 212.222H340.758V251.461H300.272V212.222ZM300.272 211.215V172.024H340.758V211.215H300.272ZM300.272 171.018V131.779H340.758V171.018H300.272ZM300.272 130.773V91.5328H340.758V130.773H300.272ZM300.272 90.5268V51.2875H340.758V90.5268H300.272ZM299.268 13.1021V50.2824H258.781V13.1021H299.268ZM257.778 13.1021V50.2824H216.813V13.1021H257.778ZM215.81 13.1021V50.2824H174.845V13.1021H215.81ZM173.841 13.1021V50.2824H132.827V13.1021H173.841ZM131.826 13.1021V50.2824H90.8612V13.1021H131.826ZM53.0518 13.1021H89.8576V50.2824H53.0518V13.1021ZM53.0518 51.2875H89.8576V90.5268H53.0518V51.2875ZM53.0518 91.5328H89.8576V130.773H53.0518V91.5328ZM53.0518 131.779H89.8576V171.018H53.0518V131.779ZM53.0518 172.024H89.8576V211.215H53.0518V172.024ZM53.0518 212.222H89.8576V251.461H53.0518V212.222ZM53.0518 291.946V252.467H89.8576V291.946H53.0518ZM90.8612 291.946V252.467H131.826V291.946H90.8612ZM132.829 291.946V252.467H173.841V291.946H132.829ZM174.845 291.946V252.467H215.81V291.946H174.845ZM216.813 291.946V252.467H257.778V291.946H216.813ZM258.781 291.946V252.467H299.268V291.946H258.781ZM300.272 291.946V252.467H340.758V291.946H300.272ZM380.959 291.946H341.762V252.467H380.958L380.959 291.946ZM380.959 251.461H341.762V212.221H380.958L380.959 251.461ZM380.959 211.216H341.762V172.024H380.958L380.959 211.216ZM380.959 171.018H341.762V131.779H380.958L380.959 171.018ZM380.959 130.773H341.762V91.5328H380.958L380.959 130.773ZM380.959 90.5272H341.762V51.2875H380.958L380.959 90.5272Z" fill="#E7F1FF"/>
<path d="M195.813 184.616C197.367 184.616 198.626 183.359 198.626 181.808C198.626 180.257 197.367 179 195.813 179C194.259 179 193 180.257 193 181.808C193 183.359 194.259 184.616 195.813 184.616Z" fill="#FFF1ED"/>
<path d="M173.813 156.616C175.367 156.616 176.626 155.359 176.626 153.808C176.626 152.257 175.367 151 173.813 151C172.259 151 171 152.257 171 153.808C171 155.359 172.259 156.616 173.813 156.616Z" fill="#FFF1ED"/>
<path d="M182.813 143.616C184.367 143.616 185.626 142.359 185.626 140.808C185.626 139.257 184.367 138 182.813 138C181.259 138 180 139.257 180 140.808C180 142.359 181.259 143.616 182.813 143.616Z" fill="#E7F1FF"/>
<path d="M69.8132 214.616C71.3668 214.616 72.6263 213.359 72.6263 211.808C72.6263 210.257 71.3668 209 69.8132 209C68.2595 209 67 210.257 67 211.808C67 213.359 68.2595 214.616 69.8132 214.616Z" fill="#E7F1FF"/>
<path d="M78.8115 200.082C79.9852 199.066 80.1116 197.293 79.0936 196.121C78.0757 194.95 76.299 194.824 75.1253 195.84C73.9515 196.856 73.8252 198.629 74.8431 199.8C75.861 200.972 77.6377 201.098 78.8115 200.082Z" fill="#E7F1FF"/>
<path d="M82.8132 223.616C84.3668 223.616 85.6263 222.359 85.6263 220.808C85.6263 219.257 84.3668 218 82.8132 218C81.2595 218 80 219.257 80 220.808C80 222.359 81.2595 223.616 82.8132 223.616Z" fill="#E7F1FF"/>
<path d="M99.2819 214.663C100.836 214.663 102.095 213.406 102.095 211.855C102.095 210.304 100.836 209.047 99.2819 209.047C97.7282 209.047 96.4688 210.304 96.4688 211.855C96.4688 213.406 97.7282 214.663 99.2819 214.663Z" fill="#FFF1ED"/>
<path d="M115.655 212.202C117.209 212.202 118.468 210.945 118.468 209.394C118.468 207.843 117.209 206.586 115.655 206.586C114.101 206.586 112.842 207.843 112.842 209.394C112.842 210.945 114.101 212.202 115.655 212.202Z" fill="#E7F1FF"/>
<path d="M104.118 198.194C105.672 198.194 106.931 196.937 106.931 195.386C106.931 193.835 105.672 192.578 104.118 192.578C102.564 192.578 101.305 193.835 101.305 195.386C101.305 196.937 102.564 198.194 104.118 198.194Z" fill="#E7F1FF"/>
<path d="M122.988 195.385C124.542 195.385 125.801 194.128 125.801 192.577C125.801 191.027 124.542 189.77 122.988 189.77C121.434 189.77 120.175 191.027 120.175 192.577C120.175 194.128 121.434 195.385 122.988 195.385Z" fill="#FFF1ED"/>
<path d="M110.597 181.031C112.151 181.031 113.41 179.774 113.41 178.223C113.41 176.672 112.151 175.415 110.597 175.415C109.044 175.415 107.784 176.672 107.784 178.223C107.784 179.774 109.044 181.031 110.597 181.031Z" fill="#FFF1ED"/>
<path d="M99.5986 179.067C99.9722 179.188 100.315 179.389 100.604 179.656C101.151 180.163 101.475 180.867 101.503 181.611C101.532 182.356 101.263 183.081 100.756 183.627C100.25 184.173 99.5468 184.495 98.8019 184.522C98.057 184.549 97.3313 184.279 96.7844 183.772C96.42 183.436 96.1519 183.009 96.008 182.535C95.8642 182.061 95.8497 181.557 95.9661 181.076" fill="#E7F1FF"/>
<path d="M71.5718 230.622C72.2233 230.259 72.9923 230.169 73.7096 230.371C74.4269 230.574 75.0337 231.053 75.3967 231.703C75.7596 232.354 75.8488 233.122 75.6447 233.839C75.4407 234.556 74.6514 235.136 73.9999 235.5" fill="#E7F1FF"/>
<path d="M85.8131 210.616C87.3668 210.616 88.6263 209.359 88.6263 207.808C88.6263 206.257 87.3668 205 85.8131 205C84.2595 205 83 206.257 83 207.808C83 209.359 84.2595 210.616 85.8131 210.616Z" fill="#FFF1ED"/>
<path d="M190.71 173.308C192.263 173.308 193.523 172.051 193.523 170.5C193.523 168.95 192.263 167.692 190.71 167.692C189.156 167.692 187.896 168.95 187.896 170.5C187.896 172.051 189.156 173.308 190.71 173.308Z" fill="#E7F1FF"/>
<path d="M193.854 219.395C195.408 219.395 196.667 218.138 196.667 216.587C196.667 215.036 195.408 213.779 193.854 213.779C192.301 213.779 191.041 215.036 191.041 216.587C191.041 218.138 192.301 219.395 193.854 219.395Z" fill="#E7F1FF"/>
<path d="M174.813 184.616C176.367 184.616 177.626 183.359 177.626 181.808C177.626 180.257 176.367 179 174.813 179C173.259 179 172 180.257 172 181.808C172 183.359 173.259 184.616 174.813 184.616Z" fill="#E7F1FF"/>
<path d="M204.813 236.616C206.367 236.616 207.626 235.359 207.626 233.808C207.626 232.257 206.367 231 204.813 231C203.259 231 202 232.257 202 233.808C202 235.359 203.259 236.616 204.813 236.616Z" fill="#FFF1ED"/>
<path d="M215.813 242.616C217.367 242.616 218.626 241.359 218.626 239.808C218.626 238.257 217.367 237 215.813 237C214.259 237 213 238.257 213 239.808C213 241.359 214.259 242.616 215.813 242.616Z" fill="#E7F1FF"/>
<path d="M200.667 201.923C202.22 201.923 203.48 200.666 203.48 199.115C203.48 197.565 202.22 196.308 200.667 196.308C199.113 196.308 197.854 197.565 197.854 199.115C197.854 200.666 199.113 201.923 200.667 201.923Z" fill="#E7F1FF"/>
<path d="M212.813 216.616C214.367 216.616 215.626 215.359 215.626 213.808C215.626 212.257 214.367 211 212.813 211C211.26 211 210 212.257 210 213.808C210 215.359 211.26 216.616 212.813 216.616Z" fill="#E7F1FF"/>
<path d="M186.813 190.616C188.367 190.616 189.626 189.359 189.626 187.808C189.626 186.257 188.367 185 186.813 185C185.259 185 184 186.257 184 187.808C184 189.359 185.259 190.616 186.813 190.616Z" fill="#E7F1FF"/>
<path d="M206.813 181.616C208.367 181.616 209.626 180.359 209.626 178.808C209.626 177.257 208.367 176 206.813 176C205.259 176 204 177.257 204 178.808C204 180.359 205.259 181.616 206.813 181.616Z" fill="#E7F1FF"/>
<path d="M200.334 264.92C201.887 264.92 203.147 263.663 203.147 262.113C203.147 260.562 201.887 259.305 200.334 259.305C198.78 259.305 197.521 260.562 197.521 262.113C197.521 263.663 198.78 264.92 200.334 264.92Z" fill="#E7F1FF"/>
<path d="M125.813 170.616C127.367 170.616 128.626 169.359 128.626 167.808C128.626 166.257 127.367 165 125.813 165C124.259 165 123 166.257 123 167.808C123 169.359 124.259 170.616 125.813 170.616Z" fill="#E7F1FF"/>
<path d="M121.608 155.756C122.644 154.601 122.546 152.826 121.389 151.792C120.231 150.757 118.453 150.855 117.416 152.011C116.38 153.166 116.478 154.941 117.636 155.975C118.793 157.01 120.572 156.912 121.608 155.756Z" fill="#FFF1ED"/>
<path d="M150.266 151.343C151.82 151.343 153.079 150.086 153.079 148.535C153.079 146.985 151.82 145.728 150.266 145.728C148.713 145.728 147.453 146.985 147.453 148.535C147.453 150.086 148.713 151.343 150.266 151.343Z" fill="#FFF1ED"/>
<path d="M145.493 167.212C147.047 167.212 148.306 165.955 148.306 164.405C148.306 162.854 147.047 161.597 145.493 161.597C143.939 161.597 142.68 162.854 142.68 164.405C142.68 165.955 143.939 167.212 145.493 167.212Z" fill="#E7F1FF"/>
<path d="M136.813 158.616C138.367 158.616 139.626 157.359 139.626 155.808C139.626 154.257 138.367 153 136.813 153C135.259 153 134 154.257 134 155.808C134 157.359 135.259 158.616 136.813 158.616Z" fill="#E7F1FF"/>
<path d="M116.813 140.616C118.367 140.616 119.626 139.359 119.626 137.808C119.626 136.257 118.367 135 116.813 135C115.259 135 114 136.257 114 137.808C114 139.359 115.259 140.616 116.813 140.616Z" fill="#E7F1FF"/>
<path d="M177.813 171.616C179.367 171.616 180.626 170.359 180.626 168.808C180.626 167.257 179.367 166 177.813 166C176.259 166 175 167.257 175 168.808C175 170.359 176.259 171.616 177.813 171.616Z" fill="#E7F1FF"/>
<path d="M207.626 156.808C207.626 157.363 207.461 157.906 207.152 158.368C206.843 158.83 206.404 159.19 205.89 159.402C205.376 159.615 204.81 159.67 204.264 159.562C203.719 159.453 203.217 159.186 202.824 158.793C202.431 158.401 202.163 157.9 202.054 157.356C201.946 156.811 202.001 156.246 202.214 155.733C202.427 155.22 202.788 154.782 203.25 154.473C203.713 154.165 204.257 154 204.813 154" fill="#FFF1ED"/>
<path d="M162.614 162.227C164.168 162.227 165.427 160.97 165.427 159.419C165.427 157.868 164.168 156.611 162.614 156.611C161.06 156.611 159.801 157.868 159.801 159.419C159.801 160.97 161.06 162.227 162.614 162.227Z" fill="#E7F1FF"/>
<path d="M144.102 183.082C145.656 183.082 146.915 181.824 146.915 180.274C146.915 178.723 145.656 177.466 144.102 177.466C142.549 177.466 141.289 178.723 141.289 180.274C141.289 181.824 142.549 183.082 144.102 183.082Z" fill="#FFF1ED"/>
<path d="M127.981 183.018C129.535 183.018 130.794 181.761 130.794 180.21C130.794 178.659 129.535 177.402 127.981 177.402C126.427 177.402 125.168 178.659 125.168 180.21C125.168 181.761 126.427 183.018 127.981 183.018Z" fill="#E7F1FF"/>
<path d="M188.813 155.616C190.367 155.616 191.626 154.359 191.626 152.808C191.626 151.257 190.367 150 188.813 150C187.26 150 186 151.257 186 152.808C186 154.359 187.26 155.616 188.813 155.616Z" fill="#E7F1FF"/>
<path d="M91.8132 196.616C93.3668 196.616 94.6263 195.359 94.6263 193.808C94.6263 192.257 93.3668 191 91.8132 191C90.2595 191 89 192.257 89 193.808C89 195.359 90.2595 196.616 91.8132 196.616Z" fill="#E7F1FF"/>
<path d="M320.966 275.911V25.0686H188.033V275.911H320.966Z" fill="white"/>
<path d="M320.966 276.943H188.034C187.76 276.943 187.497 276.834 187.303 276.641C187.109 276.447 187 276.184 187 275.91V25.0679C187 24.794 187.109 24.5313 187.303 24.3376C187.497 24.144 187.76 24.0352 188.034 24.0352H320.966C321.24 24.0352 321.503 24.144 321.697 24.3376C321.891 24.5313 322 24.794 322 25.0679V275.91C322 276.184 321.891 276.447 321.697 276.641C321.503 276.834 321.24 276.943 320.966 276.943ZM189.067 274.878H319.933V26.1006H189.067V274.878Z" fill="#3C4043"/>
<path d="M160.5 134L163.5 132L159 169L156.5 167L160.5 134Z" fill="white"/>
<path d="M194.96 130.895C198.532 127.644 200.661 123.555 201.497 118.806C202.46 113.295 204.082 106.616 206.311 106.845C210.112 107.226 207.832 123.606 207.832 123.606C207.832 123.606 210.239 104.813 214.04 105.067C217.84 105.321 214.04 125.511 214.04 125.511C214.04 125.511 220.172 108.496 224.935 110.146C228.432 111.365 222.325 125.104 218.854 132.266C218.661 132.664 218.579 133.108 218.619 133.549C218.658 133.99 218.816 134.412 219.077 134.769C219.337 135.127 219.69 135.407 220.097 135.579C220.504 135.751 220.95 135.808 221.388 135.745C226.81 134.932 234.919 134.653 235.679 137.65C236.515 140.951 225.214 143.719 219.057 145.522C216.53 146.264 214.207 147.576 212.266 149.357L209.635 151.759" fill="#FFF1ED"/>
<path d="M209.635 152.521C209.482 152.521 209.332 152.475 209.205 152.388C209.079 152.301 208.982 152.178 208.926 152.035C208.871 151.891 208.86 151.734 208.895 151.585C208.93 151.435 209.009 151.3 209.123 151.196L211.754 148.794C213.779 146.931 216.205 145.561 218.845 144.791C219.527 144.591 220.274 144.379 221.06 144.156C224.132 143.284 227.955 142.198 230.821 140.997C234.836 139.313 235.04 138.227 234.942 137.837C234.475 135.996 228.696 135.42 221.5 136.499C220.926 136.582 220.339 136.507 219.804 136.282C219.269 136.056 218.805 135.689 218.463 135.219C218.12 134.749 217.912 134.194 217.861 133.615C217.81 133.035 217.917 132.452 218.172 131.929C223.382 121.18 225.955 113.453 225.052 111.264C225.026 111.173 224.979 111.091 224.915 111.022C224.852 110.953 224.773 110.899 224.685 110.866C221.89 109.898 217.195 118.997 214.755 125.771C214.69 125.951 214.56 126.1 214.39 126.189C214.22 126.277 214.023 126.298 213.839 126.248C213.655 126.197 213.496 126.079 213.395 125.916C213.293 125.754 213.257 125.559 213.293 125.37C214.498 118.965 215.824 108.044 214.25 106.007C214.119 105.837 214.028 105.831 213.989 105.829C213.799 105.815 212.203 105.961 210.253 114.406C209.371 118.224 208.804 122.112 208.637 123.322C208.615 123.493 208.597 123.625 208.585 123.713C208.558 123.913 208.453 124.095 208.292 124.217C208.132 124.34 207.93 124.394 207.73 124.367C207.53 124.34 207.349 124.234 207.227 124.074C207.104 123.913 207.051 123.71 207.078 123.51C207.078 123.502 207.097 123.361 207.131 123.111C207.634 119.267 208.417 110.092 206.71 107.916C206.658 107.832 206.589 107.761 206.507 107.707C206.425 107.654 206.333 107.618 206.236 107.604C206.16 107.597 204.237 107.543 202.246 118.939C201.361 123.962 199.082 128.174 195.47 131.459C195.321 131.594 195.124 131.665 194.923 131.655C194.721 131.646 194.532 131.556 194.397 131.407C194.261 131.257 194.19 131.059 194.2 130.858C194.21 130.656 194.299 130.466 194.448 130.33C197.804 127.277 199.924 123.355 200.748 118.674C201.351 115.226 202.011 112.452 202.711 110.424C203.386 108.469 204.507 105.892 206.389 106.087C206.688 106.122 206.978 106.219 207.239 106.372C207.499 106.524 207.726 106.729 207.905 106.973C208.713 108.003 209.087 109.986 209.219 112.242C211.113 105.01 212.893 104.228 214.09 104.307C214.359 104.327 214.621 104.406 214.856 104.539C215.091 104.671 215.295 104.853 215.452 105.073C217.034 107.12 216.487 114.072 215.785 119.369C216.169 118.546 216.587 117.694 217.028 116.855C220.097 111.019 222.763 108.588 225.184 109.427C225.474 109.531 225.738 109.697 225.958 109.914C226.178 110.131 226.348 110.393 226.457 110.682C227.864 114.094 223.471 124.484 219.538 132.599C219.401 132.87 219.343 133.174 219.369 133.477C219.395 133.78 219.505 134.069 219.686 134.313C219.863 134.563 220.105 134.758 220.387 134.878C220.668 134.998 220.977 135.037 221.279 134.991C224.555 134.5 235.342 133.225 236.415 137.462C237.273 140.847 230.464 143.069 221.475 145.622C220.692 145.844 219.95 146.053 219.27 146.254C216.854 146.959 214.632 148.214 212.778 149.921L210.147 152.322C210.007 152.451 209.825 152.521 209.635 152.521Z" fill="#3C4043"/>
<path d="M145.038 118.152L137.409 131.975L135.607 135.238C133.988 138.168 131.617 140.61 128.738 142.312C125.86 144.013 122.58 144.912 119.238 144.914H111.561C107.669 144.913 103.853 143.839 100.531 141.808C97.3219 139.843 94.6333 137.131 92.6938 133.902C91.5028 131.937 90.5879 129.817 89.9749 127.602L72.2582 127.52L67.4236 127.498L60.9851 127.467L38.7379 163.377L22.9697 153.541L15.9256 149.147L8.61035 144.584L14.7245 134.73L31.3314 107.971L32.7631 105.665L36.128 100.243C36.5779 99.5143 37.0819 98.8208 37.6356 98.1681C39.2988 96.192 41.3725 94.6038 43.7119 93.5146C46.0512 92.4255 48.5997 91.8615 51.1791 91.8623H51.2551C51.2551 91.8623 55.5804 91.8648 62.0341 91.8674C67.9507 91.8699 75.6587 91.8725 83.468 91.875C88.9614 91.8775 94.5029 91.8801 99.5073 91.8775C103.417 91.8826 106.995 91.8826 109.965 91.8826H109.967C114.946 91.8852 118.21 91.8877 118.428 91.8877H126.476L148.951 99.4861C150.192 100.9 151.265 102.454 152.149 104.116L152.863 106.218L160.495 128.67L166.093 145.141L191.761 126.603L212.513 155.452L208.712 158.198L167.435 188.009C164.418 190.192 160.792 191.365 157.071 191.362C155.24 191.359 153.42 191.076 151.674 190.524C133.095 181.84 125.972 149.384 124.148 144.051" fill="#FFED96"/>
<path d="M244.243 240.046C244.243 240.046 244.058 248.081 244.091 252.947C244.129 258.643 247.638 263.613 253.314 263.613H263.627C267.074 263.61 270.431 264.713 273.207 266.761C275.984 268.808 278.034 271.691 279.058 274.99H225.518L213.608 267.346L211.961 274.99H196.936L199.596 254.902L244.243 240.046Z" fill="#E7F1FF"/>
<path d="M279.058 275.752H225.518C225.372 275.752 225.23 275.71 225.108 275.632L214.121 268.579L212.705 275.151C212.668 275.321 212.574 275.473 212.439 275.583C212.304 275.692 212.135 275.752 211.961 275.752H196.936C196.827 275.752 196.72 275.728 196.622 275.684C196.523 275.639 196.435 275.573 196.364 275.492C196.293 275.41 196.24 275.314 196.208 275.21C196.177 275.107 196.168 274.997 196.182 274.89L198.843 254.802C198.862 254.66 198.92 254.527 199.011 254.416C199.102 254.306 199.221 254.224 199.357 254.179L244.003 239.323C244.119 239.284 244.242 239.274 244.363 239.293C244.483 239.312 244.597 239.36 244.695 239.433C244.793 239.506 244.872 239.601 244.926 239.71C244.979 239.82 245.006 239.941 245.003 240.063C245.001 240.144 244.818 248.143 244.851 252.942C244.885 257.866 247.802 262.851 253.314 262.851H263.627C267.239 262.837 270.759 263.988 273.668 266.133C276.578 268.278 278.722 271.304 279.784 274.764C279.819 274.878 279.827 274.999 279.807 275.117C279.788 275.234 279.741 275.346 279.67 275.442C279.599 275.538 279.507 275.616 279.401 275.67C279.294 275.724 279.177 275.752 279.058 275.752V275.752ZM225.74 274.228H277.989C276.875 271.319 274.905 268.818 272.34 267.058C269.774 265.298 266.735 264.362 263.626 264.374H253.314C247.574 264.374 243.376 259.57 243.33 252.951C243.305 249.187 243.411 243.472 243.459 241.108L200.287 255.475L197.804 274.228H211.349L212.866 267.185C212.892 267.065 212.947 266.953 213.025 266.858C213.104 266.764 213.204 266.69 213.317 266.642C213.43 266.595 213.554 266.576 213.676 266.587C213.798 266.597 213.916 266.638 214.019 266.704L225.74 274.228Z" fill="#3C4043"/>
<path d="M47.6824 243.73L47.1802 243.956C45.9553 244.493 44.8596 245.286 43.9673 246.284C43.075 247.281 42.4068 248.459 42.008 249.737C41.6091 251.016 41.489 252.365 41.6557 253.695C41.8223 255.024 42.2719 256.302 42.974 257.441L48.0164 265.594L48.4978 265.644C50.8986 265.868 53.1186 267.018 54.6885 268.852C56.2584 270.686 57.0551 273.06 56.9102 275.472H40.7696L18.725 239.715L19.3078 220.211L8.64029 223.005L0.76001 210.205L34.1055 200.301L47.6824 243.73Z" fill="#E7F1FF"/>
<path d="M56.9101 276.234H40.7695C40.6399 276.234 40.5125 276.201 40.3993 276.138C40.2861 276.074 40.191 275.983 40.1229 275.873L18.0783 240.115C18.0001 239.989 17.9607 239.841 17.9651 239.692L18.5177 221.205L8.83255 223.742C8.67511 223.783 8.50864 223.772 8.35762 223.712C8.2066 223.651 8.079 223.543 7.99359 223.404L0.113307 210.605C0.0519622 210.505 0.0143419 210.393 0.00336511 210.276C-0.00761169 210.16 0.00835023 210.042 0.0500122 209.933C0.0916741 209.824 0.157916 209.725 0.243596 209.646C0.329276 209.566 0.432091 209.508 0.544062 209.474L33.8896 199.57C34.0809 199.513 34.2868 199.534 34.4629 199.628C34.6391 199.722 34.7712 199.882 34.8309 200.073L48.4078 243.503C48.4634 243.681 48.452 243.873 48.3756 244.043C48.2993 244.213 48.1633 244.349 47.9935 244.426L47.4911 244.651C46.3649 245.143 45.3574 245.872 44.5368 246.788C43.7161 247.704 43.1015 248.786 42.7344 249.961C42.3674 251.136 42.2566 252.376 42.4095 253.598C42.5624 254.819 42.9754 255.994 43.6206 257.041L48.4661 264.875L48.5776 264.887C51.1789 265.116 53.5872 266.357 55.2865 268.345C56.9858 270.332 57.841 272.907 57.6688 275.519C57.6569 275.712 57.5718 275.894 57.4309 276.027C57.2899 276.16 57.1037 276.234 56.9101 276.234ZM41.1934 274.71H56.166C56.1283 272.612 55.3169 270.602 53.8881 269.068C52.4594 267.534 50.5145 266.585 48.4286 266.403L47.9365 266.352C47.8213 266.34 47.7104 266.302 47.6123 266.24C47.5141 266.178 47.4313 266.095 47.3702 265.997L42.3278 257.844C41.5741 256.621 41.0892 255.251 40.9055 253.825C40.7218 252.399 40.8434 250.951 41.2623 249.576C41.6813 248.201 42.3878 246.931 43.3349 245.851C44.282 244.772 45.4478 243.907 46.7547 243.314L33.604 201.246L1.92856 210.653L8.99193 222.125L19.1154 219.474C19.2297 219.444 19.3494 219.441 19.465 219.466C19.5806 219.49 19.6889 219.541 19.7813 219.615C19.8737 219.689 19.9477 219.783 19.9974 219.891C20.0471 219.998 20.0712 220.116 20.0677 220.234L19.4917 239.509L41.1934 274.71Z" fill="#3C4043"/>
<path d="M12.8016 146.935C11.0857 149.202 9.97665 152.262 10.5904 154.757C10.7629 155.455 10.9821 156.148 11.2238 156.839C9.99261 157.405 8.79942 158.502 7.89661 160.246C5.70103 164.481 4.04769 168.077 3.05391 170.306C2.38585 171.802 2.24955 173.481 2.66775 175.065L3.61339 178.621C3.85963 179.549 4.28951 180.418 4.87748 181.176C5.46546 181.934 6.19951 182.566 7.03604 183.034C7.87256 183.503 8.79446 183.798 9.74697 183.902C10.6995 184.006 11.6631 183.917 12.5807 183.64C13.3353 184.808 14.4135 185.73 15.683 186.293C16.9526 186.856 18.3585 187.036 19.7284 186.811C20.2508 187.717 20.965 188.497 21.8208 189.097C22.6765 189.697 23.6531 190.101 24.6816 190.282C24.7945 190.302 24.908 190.32 25.0222 190.335C28.5267 190.789 31.8512 188.637 33.0588 185.308C34.2309 182.078 36.2818 175.836 36.9776 169.995C38.0087 161.34 37.1266 162.173 37.1266 162.173L12.8016 146.935Z" fill="#FFF1ED"/>
<path d="M25.9373 191.155C25.5984 191.155 25.2598 191.133 24.9237 191.09C24.7982 191.073 24.6731 191.054 24.5484 191.033C23.4961 190.848 22.4921 190.452 21.5972 189.867C20.7023 189.282 19.9352 188.521 19.3424 187.631C18.631 187.702 17.9132 187.674 17.2091 187.55C15.2373 187.199 13.4706 186.114 12.2636 184.512C10.2686 184.964 8.17656 184.623 6.42696 183.562C4.67736 182.5 3.40636 180.8 2.88096 178.819L1.93482 175.264C1.47083 173.51 1.62183 171.65 2.36253 169.995C3.88588 166.578 5.52174 163.18 7.22347 159.897C7.90953 158.491 8.97387 157.304 10.2965 156.471C10.1161 155.92 9.9722 155.424 9.85285 154.941C9.11804 151.953 10.5813 148.609 12.1964 146.476C12.3111 146.324 12.4781 146.221 12.6647 146.187C12.8513 146.153 13.044 146.189 13.2049 146.29L37.3317 161.403C37.4131 161.418 37.492 161.444 37.5659 161.481C38.0929 161.747 38.6901 162.049 37.7328 170.085C37.0274 176.008 34.9494 182.329 33.7737 185.57C33.1899 187.19 32.1268 188.592 30.7265 189.59C29.3262 190.588 27.6554 191.134 25.9373 191.155ZM19.7293 186.051C19.8626 186.051 19.9935 186.086 20.1089 186.153C20.2244 186.22 20.3202 186.316 20.3868 186.432C20.8532 187.241 21.4912 187.939 22.2558 188.475C23.0203 189.011 23.8929 189.372 24.812 189.533C24.9133 189.551 25.0162 189.567 25.1186 189.58C28.2045 189.98 31.2457 188.075 32.3438 185.049C33.4973 181.87 35.535 175.675 36.2224 169.905C36.8184 164.9 36.7469 163.286 36.6696 162.786L13.0034 147.962C11.5219 150.169 10.8674 152.705 11.3278 154.576C11.4778 155.184 11.6732 155.824 11.9415 156.589C12.0044 156.769 11.9981 156.965 11.924 157.14C11.8499 157.315 11.7133 157.455 11.5409 157.535C10.3543 158.08 9.32733 159.14 8.57174 160.599C6.88318 163.856 5.2605 167.227 3.74855 170.619C3.15025 171.955 3.02814 173.457 3.40268 174.872L4.34831 178.427C4.56856 179.257 4.95299 180.033 5.47873 180.711C6.00447 181.389 6.66079 181.953 7.40867 182.372C8.15654 182.79 8.9807 183.053 9.83214 183.146C10.6836 183.239 11.5449 183.159 12.3649 182.911C12.5224 182.864 12.6909 182.869 12.8452 182.925C12.9995 182.982 13.1313 183.087 13.2209 183.226C13.6995 183.963 14.324 184.594 15.0557 185.079C15.7875 185.565 16.6109 185.895 17.4749 186.048C18.1805 186.173 18.9019 186.177 19.6087 186.06C19.6489 186.053 19.6896 186.05 19.7303 186.05L19.7293 186.051ZM37.6477 162.727H37.6462H37.6477Z" fill="#3C4043"/>
<path d="M60.7908 128.228C60.6547 128.228 60.521 128.192 60.4039 128.122C60.2868 128.052 60.1904 127.953 60.1249 127.833C60.0595 127.713 60.0272 127.578 60.0316 127.442C60.0361 127.305 60.0769 127.173 60.15 127.058L64.4829 120.226C64.5921 120.058 64.7631 119.94 64.9587 119.897C65.1544 119.855 65.3589 119.891 65.5278 119.999C65.6968 120.106 65.8165 120.277 65.8611 120.472C65.9056 120.668 65.8714 120.873 65.7658 121.044L61.4329 127.875C61.3642 127.983 61.2693 128.073 61.1571 128.134C61.0448 128.196 60.9188 128.228 60.7908 128.228Z" fill="#3C4043"/>
<path d="M19.7524 187.574H19.7103C19.5087 187.572 19.3164 187.489 19.1757 187.344C19.035 187.199 18.9574 187.004 18.96 186.802C18.9626 186.6 19.0452 186.408 19.1897 186.267C19.3341 186.126 19.5285 186.048 19.7301 186.05H19.7587C20.0085 186.05 22.9848 185.972 24.9825 182.358C25.03 182.269 25.0947 182.19 25.1729 182.126C25.251 182.062 25.341 182.015 25.4377 181.986C25.5343 181.958 25.6357 181.949 25.7359 181.96C25.836 181.971 25.933 182.002 26.0211 182.05C26.1093 182.099 26.1869 182.165 26.2493 182.245C26.3118 182.324 26.3579 182.415 26.385 182.512C26.4121 182.609 26.4196 182.711 26.4071 182.811C26.3946 182.912 26.3624 183.008 26.3123 183.096C23.9142 187.435 20.213 187.574 19.7524 187.574Z" fill="#3C4043"/>
<path d="M12.6945 184.41C12.4929 184.411 12.2992 184.331 12.1562 184.189C12.0131 184.046 11.9324 183.853 11.9316 183.651C11.9309 183.449 12.0104 183.255 12.1524 183.111C12.2945 182.968 12.4875 182.887 12.6891 182.886C12.8204 182.884 15.6363 182.793 17.6699 179.321C17.7721 179.147 17.939 179.02 18.1342 178.969C18.3293 178.918 18.5366 178.947 18.7105 179.05C18.8843 179.152 19.0105 179.319 19.0612 179.515C19.1119 179.711 19.0831 179.918 18.981 180.093C16.4838 184.355 12.849 184.41 12.6955 184.41H12.6945Z" fill="#3C4043"/>
<path d="M11.1416 175.003C11.0006 175.003 10.8623 174.964 10.7424 174.889C10.6225 174.815 10.5257 174.708 10.4627 174.582C10.3997 174.455 10.3731 174.314 10.3858 174.173C10.3985 174.032 10.4501 173.898 10.5348 173.785C14.7607 168.156 13.0861 163.826 11.3134 159.242C10.737 157.84 10.2491 156.403 9.85239 154.94C9.8039 154.744 9.83515 154.536 9.93927 154.363C10.0434 154.19 10.2118 154.066 10.4076 154.017C10.6033 153.968 10.8103 154 10.9829 154.104C11.1556 154.208 11.2799 154.377 11.3284 154.573C11.7092 155.974 12.1776 157.35 12.7308 158.692C14.4898 163.239 16.4835 168.393 11.7497 174.699C11.6789 174.794 11.5871 174.87 11.4815 174.923C11.376 174.976 11.2596 175.004 11.1416 175.003Z" fill="#3C4043"/>
<path d="M157.177 191.92C153.315 191.923 149.548 190.714 146.407 188.463C143.265 186.212 140.905 183.031 139.659 179.368C139.597 179.177 139.613 178.971 139.702 178.792C139.791 178.614 139.947 178.477 140.136 178.413C140.324 178.348 140.53 178.36 140.71 178.446C140.89 178.532 141.029 178.686 141.097 178.874C141.954 181.39 143.387 183.669 145.282 185.53C147.177 187.391 149.48 188.782 152.007 189.59C154.534 190.398 157.215 190.602 159.835 190.185C162.455 189.768 164.941 188.742 167.094 187.189L211.556 155.076L191.693 127.463L166.642 145.556C166.546 145.626 166.434 145.672 166.317 145.69C166.2 145.709 166.08 145.7 165.966 145.664C165.853 145.628 165.75 145.565 165.665 145.482C165.58 145.398 165.516 145.296 165.478 145.184L151.556 104.217C150.736 102.687 149.752 101.252 148.619 99.9386L126.458 92.4469L110.073 92.4418C107.101 92.4418 103.523 92.4418 99.6134 92.4367C94.6101 92.4393 89.068 92.4367 83.5741 92.4342L51.2855 92.4215C48.8163 92.4177 46.3764 92.956 44.137 93.9986C41.8977 95.0411 39.9134 96.5626 38.3235 98.456C37.7936 99.0806 37.3112 99.7442 36.8805 100.441L9.76396 144.136L38.6005 162.123L60.4461 126.863C60.5143 126.753 60.6095 126.662 60.7225 126.599C60.8355 126.536 60.9627 126.503 61.092 126.503H61.0955L67.5343 126.534L84.0538 126.305C84.2554 126.302 84.4498 126.38 84.5943 126.521C84.7388 126.662 84.8216 126.854 84.8243 127.056C84.8271 127.258 84.7496 127.453 84.609 127.598C84.4684 127.743 84.2762 127.826 84.0746 127.829L67.5409 128.057L61.5136 128.029L39.4906 163.575C39.4379 163.66 39.369 163.734 39.2878 163.792C39.2066 163.85 39.1148 163.892 39.0175 163.915C38.9202 163.938 38.8194 163.941 38.7209 163.925C38.6223 163.908 38.5279 163.873 38.4431 163.82L8.31561 145.027C8.14448 144.92 8.02264 144.75 7.97688 144.553C7.93113 144.356 7.96519 144.149 8.0716 143.978L35.5893 99.6369C36.0593 98.8764 36.5855 98.1523 37.1635 97.4707C38.8958 95.4082 41.0577 93.7509 43.4973 92.6152C45.9369 91.4795 48.5951 90.8931 51.285 90.897L83.5741 90.9097C89.0675 90.9122 94.6085 90.9148 99.6134 90.9122C103.524 90.9173 107.101 90.9173 110.071 90.9173L126.582 90.9224C126.665 90.9224 126.747 90.9358 126.825 90.9623L149.3 98.5607C149.427 98.6033 149.54 98.6786 149.628 98.7791C150.907 100.238 152.014 101.84 152.926 103.553C152.945 103.59 152.962 103.628 152.975 103.667L166.586 143.719L191.422 125.781C191.585 125.663 191.789 125.615 191.988 125.647C192.187 125.68 192.365 125.79 192.482 125.954L213.235 154.803C213.293 154.884 213.335 154.976 213.358 155.074C213.381 155.171 213.384 155.272 213.368 155.371C213.352 155.47 213.317 155.564 213.265 155.65C213.212 155.735 213.143 155.809 213.062 155.867L167.985 188.424C164.836 190.694 161.056 191.916 157.177 191.92Z" fill="#3C4043"/>
<path d="M217.579 166.19L217.583 166.202L217.587 166.214L245.059 239.935L197.622 255.854L179.91 190.719L179.748 190.122L179.141 190.001L129.432 180.091L128.09 179.824L128.243 181.183L130.112 197.848L130.112 197.849C130.679 202.876 129.486 207.945 126.737 212.189C123.988 216.432 119.854 219.586 115.043 221.113L115.032 221.116L115.021 221.12L48.1286 244.084L33.8555 199.039L83.9643 185.165L84.7811 184.938L84.6919 184.096L80.375 143.279V143.279L80.3702 143.23C80.2993 142.507 80.2637 141.773 80.2637 141.028L80.2637 141.024C80.2454 136.56 81.5903 132.202 84.1111 128.532C84.2534 128.522 84.4119 128.506 84.576 128.489C84.7822 128.467 84.9994 128.442 85.2287 128.415C85.5828 128.375 85.9661 128.331 86.3837 128.289C87.0549 128.223 87.733 128.172 88.3144 128.172C88.8257 128.173 89.1546 128.215 89.3271 128.261C89.3872 128.347 89.4669 128.485 89.563 128.685C89.7572 129.09 89.9645 129.63 90.1767 130.224C90.2816 130.518 90.3849 130.816 90.4865 131.111L90.4992 131.148C90.5958 131.428 90.6913 131.704 90.7826 131.96C90.9598 132.457 91.1593 132.988 91.3575 133.316C93.5091 136.874 100.018 145.338 113.734 145.914C120.335 146.191 124.649 145.304 127.841 143.753C130.873 142.28 132.808 140.24 134.645 138.304C134.734 138.21 134.823 138.116 134.912 138.022C135.037 137.896 135.147 137.756 135.239 137.605L204.708 152.909C207.684 154.035 210.376 155.802 212.596 158.085C214.833 160.386 216.534 163.153 217.579 166.19ZM80.3678 143.218L80.3674 143.215C80.3673 143.214 80.3675 143.215 80.3678 143.218ZM89.2858 128.207C89.2815 128.203 89.2794 128.2 89.2794 128.2C89.2795 128.2 89.2816 128.202 89.2858 128.207Z" fill="white" stroke="#3C4043" stroke-width="2"/>
<path d="M127.963 182.256C127.777 182.256 127.597 182.187 127.457 182.062C127.318 181.937 127.23 181.765 127.209 181.579L125.005 161.847C124.994 161.747 125.002 161.647 125.03 161.55C125.058 161.454 125.104 161.365 125.166 161.286C125.229 161.208 125.306 161.143 125.393 161.095C125.48 161.046 125.576 161.016 125.676 161.005C125.775 160.994 125.875 161.002 125.971 161.03C126.067 161.058 126.157 161.104 126.235 161.167C126.313 161.229 126.378 161.306 126.426 161.394C126.474 161.481 126.505 161.578 126.516 161.677L128.72 181.41C128.731 181.509 128.723 181.61 128.695 181.706C128.667 181.802 128.621 181.892 128.559 181.97C128.496 182.048 128.419 182.113 128.332 182.161C128.244 182.21 128.148 182.24 128.049 182.252C128.021 182.255 127.992 182.256 127.963 182.256Z" fill="#3C4043"/>
<path d="M180.253 191.782C180.088 191.782 179.928 191.728 179.797 191.629C179.665 191.53 179.569 191.391 179.523 191.232L176.128 179.525C176.072 179.331 176.095 179.122 176.192 178.945C176.289 178.768 176.452 178.637 176.646 178.581C176.839 178.524 177.047 178.547 177.224 178.644C177.401 178.742 177.532 178.905 177.588 179.1L180.983 190.807C181.016 190.921 181.022 191.04 181.001 191.156C180.979 191.273 180.931 191.382 180.861 191.477C180.79 191.571 180.698 191.648 180.593 191.701C180.487 191.754 180.371 191.782 180.253 191.782Z" fill="#3C4043"/>
<path d="M82.7605 186.574C82.5804 186.574 82.4061 186.51 82.2687 186.394C82.1313 186.277 82.0397 186.115 82.0102 185.937C81.9808 185.759 82.0154 185.576 82.1079 185.421C82.2004 185.266 82.3447 185.149 82.5152 185.091L91.4344 182.044C91.5292 182.01 91.6297 181.996 91.7301 182.001C91.8305 182.007 91.9288 182.032 92.0193 182.076C92.1098 182.12 92.1907 182.182 92.2573 182.257C92.3239 182.333 92.3749 182.421 92.4073 182.516C92.4398 182.612 92.453 182.712 92.4462 182.813C92.4395 182.914 92.4129 183.012 92.368 183.102C92.3231 183.192 92.2608 183.273 92.1847 183.338C92.1086 183.404 92.0202 183.454 91.9247 183.486L83.0055 186.533C82.9266 186.56 82.8439 186.574 82.7605 186.574Z" fill="#3C4043"/>
<path d="M118.738 145.5H111.06C107.031 145.494 103.08 144.382 99.6363 142.284C96.3245 140.253 93.5488 137.454 91.5435 134.122C90.4161 132.263 89.5288 130.268 88.9027 128.185L83.2585 128.16C83.0569 128.16 82.8637 128.079 82.7215 127.936C82.5792 127.793 82.4996 127.599 82.5 127.397C82.5004 127.194 82.5809 127.001 82.7238 126.858C82.8667 126.716 83.0602 126.636 83.2618 126.636L84.1146 126.332H87.6973C87.8629 126.333 89.8044 126.72 89.936 126.821C90.0676 126.922 90.1627 127.063 90.2068 127.223C90.8008 129.371 91.6875 131.427 92.842 133.332C94.7204 136.454 97.3206 139.078 100.423 140.982C103.629 142.936 107.308 143.972 111.06 143.979H118.737C121.251 143.981 123.737 143.45 126.032 142.422C129.594 140.824 132.544 138.113 134.441 134.696L136.242 131.432L143.231 117.857C143.277 117.767 143.339 117.687 143.415 117.622C143.492 117.557 143.58 117.507 143.675 117.476C143.771 117.445 143.871 117.434 143.971 117.442C144.071 117.45 144.169 117.478 144.258 117.524C144.347 117.57 144.426 117.634 144.491 117.711C144.555 117.787 144.604 117.876 144.634 117.972C144.664 118.068 144.675 118.169 144.666 118.269C144.658 118.369 144.629 118.466 144.582 118.555L137.583 132.15L135.772 135.431C133.715 139.139 130.515 142.079 126.652 143.812C124.162 144.928 121.465 145.503 118.738 145.5Z" fill="#3C4043"/>
<path d="M204.339 250.328L205.969 251.528L198.256 254.598C198.021 253.81 198.039 252.968 198.308 252.192C198.577 251.416 199.083 250.745 199.756 250.273C200.428 249.801 201.232 249.552 202.055 249.562C202.877 249.572 203.676 249.84 204.339 250.328Z" fill="#FFFBEA"/>
<path d="M163.781 80.081C163.871 80.1443 163.979 80.1806 164.094 80.1867C164.209 80.1928 164.328 80.1684 164.439 80.1158C164.551 80.0632 164.653 79.984 164.735 79.8854C164.817 79.7867 164.877 79.6716 164.909 79.5505C165.871 75.9675 165.688 72.3212 164.39 69.1946C163.093 66.0679 160.756 63.6414 157.752 62.3029C154.749 60.9644 151.253 60.7911 147.823 61.8109C144.392 62.8307 141.226 64.9845 138.831 67.9282C138.831 67.9282 142.37 69.1181 142.893 74.2028C143.038 75.6218 142.058 80.0538 142.058 80.0538L146.097 78.6001" stroke="#3C4043" stroke-width="2"/>
<path d="M156.545 89.9042L159.354 92.0265L160.644 84.5094C160.644 84.5094 161.378 83.6741 161.787 83.2904C162.956 82.2167 163.895 80.9167 164.549 79.4689L159.161 75.3954C155.501 72.6273 152.932 72.6941 149.679 75.9318L145.435 80.9718L144.001 79.3122C144.864 78.729 145.562 77.9319 146.026 76.9985C146.491 76.065 146.706 75.027 146.652 73.9853C146.597 72.9437 146.275 71.9339 145.716 71.0541C145.157 70.1743 144.38 69.4545 143.461 68.9647C142.542 68.4749 141.513 68.2317 140.472 68.2589C139.432 68.2861 138.416 68.5826 137.524 69.1197C136.632 69.6568 135.894 70.4162 135.381 71.3239C134.869 72.2317 134.599 73.257 134.599 74.3001C134.604 75.8128 135.188 77.2659 136.231 78.3591L136.213 78.4157C135.067 80.2582 134.439 82.3765 134.395 84.547L129.785 87.6834C128.536 88.5367 127.601 89.7756 127.12 91.2113C126.639 92.6471 126.64 94.2009 127.122 95.6362C127.604 97.0714 128.541 98.3093 129.79 99.1614C131.04 100.013 132.532 100.433 134.041 100.356L135.131 100.305C137.545 100.18 139.881 99.4081 141.896 98.0702L143.721 96.8512C146.381 97.5096 149.185 97.2531 151.682 96.1227C154.18 94.9923 156.226 93.0537 157.492 90.6181" fill="#FFF1ED"/>
<path d="M133.663 101.128C132.021 101.122 130.424 100.59 129.106 99.6095C127.788 98.6288 126.818 97.2511 126.337 95.6779C125.856 94.1046 125.891 92.4185 126.435 90.8662C126.979 89.3139 128.005 87.9769 129.361 87.0508L133.653 84.1303C133.755 82.1335 134.321 80.1882 135.306 78.4493C134.356 77.2761 133.838 75.8107 133.839 74.2997C133.84 73.37 134.031 72.4504 134.4 71.5973C134.768 70.7441 135.307 69.9753 135.982 69.3378C136.916 68.4587 138.08 67.8625 139.338 67.6181C140.596 67.3737 141.897 67.4911 143.092 67.9567C144.286 68.4223 145.324 69.2172 146.087 70.2493C146.85 71.2815 147.305 72.5089 147.402 73.7897C147.477 74.8427 147.309 75.8991 146.91 76.8761C146.511 77.8532 145.892 78.7245 145.101 79.422L145.427 79.7993L149.097 75.4404C149.112 75.4232 149.127 75.4069 149.143 75.3912C152.646 71.9051 155.583 71.736 159.619 74.787L165.006 78.8607C165.144 78.9648 165.242 79.1128 165.285 79.2803C165.328 79.4479 165.312 79.625 165.241 79.7826C164.547 81.3247 163.547 82.7091 162.302 83.8515C162.032 84.1054 161.584 84.5981 161.356 84.8526L160.104 92.1556C160.082 92.2844 160.027 92.4053 159.945 92.5068C159.863 92.6082 159.756 92.6868 159.635 92.7349C159.514 92.783 159.382 92.7991 159.253 92.7816C159.124 92.764 159.001 92.7135 158.897 92.6348L157.726 91.7506C156.317 94.0584 154.225 95.8685 151.741 96.9291C149.257 97.9896 146.505 98.2478 143.868 97.6678L142.319 98.7032C140.189 100.116 137.721 100.931 135.171 101.065L134.077 101.116C133.939 101.124 133.8 101.128 133.663 101.128ZM140.627 69.0179C139.229 69.0186 137.89 69.5754 136.902 70.566C135.914 71.5565 135.359 72.8997 135.359 74.3002C135.364 75.6203 135.875 76.888 136.787 77.8401C136.879 77.9391 136.943 78.0608 136.973 78.1928C137.002 78.3248 136.996 78.4622 136.955 78.591L136.937 78.6477C136.917 78.7086 136.89 78.7669 136.857 78.8211C135.785 80.5505 135.197 82.5369 135.154 84.5722C135.15 84.6923 135.118 84.8096 135.06 84.9148C135.002 85.02 134.921 85.11 134.821 85.1774L130.212 88.3138C129.099 89.0729 128.265 90.1758 127.837 91.4542C127.408 92.7327 127.409 94.1165 127.838 95.3947C128.268 96.6728 129.102 97.7752 130.215 98.5335C131.328 99.2919 132.657 99.6647 134.001 99.5951L135.096 99.5443C137.372 99.4245 139.575 98.6968 141.477 97.4364L143.298 96.2192C143.386 96.1605 143.485 96.1207 143.589 96.1025C143.693 96.0843 143.8 96.0879 143.902 96.1133C146.291 96.7045 148.805 96.5099 151.075 95.5585C153.344 94.607 155.248 92.9491 156.505 90.8297L156.087 90.5138C155.929 90.3911 155.826 90.211 155.8 90.0125C155.773 89.8141 155.826 89.6132 155.946 89.4533C156.066 89.2934 156.244 89.1874 156.442 89.1581C156.64 89.1289 156.841 89.1788 157.002 89.2971L157.919 89.9894C157.94 90.0036 157.96 90.0188 157.979 90.0348L158.817 90.6674L159.894 84.3797C159.918 84.2404 159.98 84.1105 160.074 84.0046C160.105 83.9693 160.838 83.1376 161.268 82.7348C162.214 81.8676 163 80.8406 163.592 79.7006L158.703 76.004C155.305 73.4352 153.166 73.5462 150.237 76.4491L146.016 81.4633C145.945 81.5475 145.857 81.6152 145.757 81.662C145.658 81.7087 145.549 81.7333 145.44 81.734C145.33 81.7355 145.221 81.7127 145.12 81.6672C145.02 81.6216 144.931 81.5545 144.86 81.4706L143.426 79.811C143.356 79.7296 143.304 79.6341 143.273 79.531C143.242 79.4278 143.234 79.3192 143.248 79.2125C143.262 79.1057 143.298 79.0032 143.355 78.9116C143.411 78.82 143.487 78.7415 143.576 78.6812C144.488 78.0653 145.185 77.1789 145.569 76.1461C145.953 75.1133 146.006 73.9859 145.719 72.9218C145.432 71.8577 144.82 70.9103 143.969 70.2122C143.118 69.5141 142.07 69.1004 140.972 69.029C140.857 69.0217 140.741 69.018 140.627 69.0179Z" fill="#3C4043"/>
<path d="M143.696 97.6137C143.632 97.6137 143.569 97.6057 143.508 97.5901C140.918 96.9193 138.591 95.4769 136.835 93.4534C136.768 93.3782 136.715 93.2901 136.682 93.1945C136.649 93.0988 136.635 92.9974 136.641 92.8963C136.647 92.7951 136.673 92.6962 136.718 92.6053C136.763 92.5144 136.825 92.4335 136.902 92.3671C136.978 92.3007 137.067 92.2502 137.163 92.2187C137.259 92.1872 137.361 92.1752 137.461 92.1834C137.562 92.1917 137.66 92.22 137.75 92.2667C137.84 92.3135 137.919 92.3777 137.984 92.4556C139.536 94.2443 141.593 95.5194 143.883 96.1126C144.062 96.1582 144.219 96.268 144.323 96.4214C144.428 96.5748 144.473 96.7611 144.45 96.9454C144.427 97.1297 144.338 97.2992 144.199 97.4221C144.06 97.5451 143.881 97.6129 143.696 97.6129V97.6137Z" fill="#3C4043"/>
<path d="M155.443 83.3828C156.045 83.3828 156.533 82.8939 156.533 82.2907C156.533 81.6876 156.045 81.1987 155.443 81.1987C154.841 81.1987 154.353 81.6876 154.353 82.2907C154.353 82.8939 154.841 83.3828 155.443 83.3828Z" fill="#3C4043"/>
<path d="M141.146 77.8325C141.027 77.8324 140.91 77.8046 140.804 77.7511C140.698 77.6976 140.606 77.62 140.535 77.5244L138.271 74.4645C138.21 74.3843 138.165 74.2927 138.14 74.1951C138.114 74.0974 138.109 73.9957 138.123 73.8958C138.137 73.7959 138.17 73.6998 138.222 73.6131C138.273 73.5264 138.342 73.4508 138.422 73.3906C138.503 73.3305 138.595 73.2871 138.693 73.2629C138.791 73.2387 138.892 73.2341 138.992 73.2496C139.091 73.265 139.187 73.3001 139.272 73.3528C139.358 73.4055 139.433 73.4748 139.492 73.5566L140.833 75.3686L141.676 72.3554C141.73 72.1608 141.86 71.9959 142.035 71.897C142.211 71.798 142.419 71.7731 142.613 71.8276C142.807 71.8822 142.972 72.0119 143.071 72.188C143.169 72.3642 143.194 72.5725 143.14 72.767L141.878 77.2763C141.839 77.4135 141.763 77.5372 141.658 77.6333C141.553 77.7293 141.423 77.7939 141.283 77.8198C141.238 77.8281 141.192 77.8324 141.146 77.8325Z" fill="#3C4043"/>
<path d="M261.586 175.434L260.414 173.812L297.017 147.377L331.608 173.829L330.393 175.417L296.984 149.869L261.586 175.434Z" fill="#9AA0A6"/>
<path opacity="0.2" d="M343 231.623C343 232.175 342.552 232.623 342 232.623H252C251.448 232.623 251 232.175 251 231.623C251 231.071 251 212.623 251 210.623H343C343 210.623 343 231.071 343 231.623Z" fill="#3C4043"/>
<path d="M343 228.623C343 229.728 342.105 230.623 341 230.623H253C251.895 230.623 251 229.728 251 228.623V172.623C251 171.518 251.895 170.623 253 170.623H341C342.105 170.623 343 171.518 343 172.623V228.623Z" fill="#07377F"/>
<path d="M297 180.623C285.972 180.623 277 189.596 277 200.623C277 211.65 285.972 220.623 297 220.623C308.028 220.623 317 211.65 317 200.623C317 189.596 308.028 180.623 297 180.623ZM281.202 198.06C282.263 191.326 287.703 185.886 294.437 184.825C298.675 184.157 302.653 185.183 305.839 187.31C306.352 187.653 306.398 188.396 305.961 188.832L285.209 209.584C284.773 210.02 284.029 209.975 283.687 209.462C281.561 206.277 280.535 202.299 281.202 198.06ZM299.563 216.421C295.325 217.089 291.347 216.063 288.161 213.936C287.648 213.593 287.602 212.85 288.039 212.414L308.791 191.662C309.227 191.226 309.971 191.271 310.313 191.784C312.44 194.97 313.466 198.948 312.798 203.186C311.737 209.919 306.297 215.359 299.563 216.421Z" fill="#FFBCA5"/>
<circle cx="297" cy="153" r="6" fill="#3C4043"/>
<path d="M323.648 0.569151C322.961 0.338765 323.406 0.514036 323.423 0.526166L323.614 0.70474L323.54 0.840296L322.876 0.767433L323.237 1.04562L322.668 1.00488L323.083 1.3134L322.311 1.19198L322.488 1.41725L322.49 1.57886L322.507 1.74889L322.295 1.84661L323.032 2.27734L322.08 2.0907L322.621 2.45189L322.783 2.6748L322.461 2.7183L322.432 2.86914L322.089 2.90285L322.428 3.19704L322.651 3.4415L322.12 3.4049L322.477 3.69734L321.994 3.67779L322.63 4.08088L322 4.00472L322.338 4.30692L321.527 4.15577L322.401 4.66185L322.116 4.71554L321.406 4.60376L321.932 4.97236L321.742 5.066L321.235 5.03098L322.018 5.50259L321.877 5.61113L321.515 5.63095L321.778 5.90104L321.297 5.86741L321.188 5.98672L321.799 6.39624L320.883 6.19223L321.052 6.42433L320.884 6.52171L321.415 6.90165L320.704 6.77422L321.235 7.15612L320.986 7.22001L320.508 7.18814L320.86 7.49485L320.564 7.53779L320.64 7.7276L320.844 7.9779L320.912 8.16849L320.911 8.3344L320.633 8.38341L320.65 8.55539L320.565 8.68605L320.167 8.6818L320.2 8.862L320.704 9.24271L320.615 9.3718L320.541 9.50736L320.117 9.49176L320.066 9.63691C320.09 9.70356 320.135 9.77806 320.166 9.84609L319.888 9.89314L320.487 10.3216L320.215 10.37L320.35 10.6035L319.997 10.6145L320.07 10.8145L320.131 11.0058C320.145 11.0518 319.858 10.9636 320.218 11.163C320.277 11.1947 320.197 11.1966 320.986 11.5473L321.352 11.7086L321.998 11.9884L322.403 12.1775C322.439 12.1948 322.477 12.2076 322.516 12.2157C322.566 12.1931 322.47 12.1078 322.455 12.058L322.527 11.9187L322.466 11.7273L322.772 11.6973L323.171 11.7035L323.055 11.482L323.399 11.46L323.274 11.2336C323.285 11.1808 323.293 11.1273 323.298 11.0734L323.488 10.9817L323.142 10.6625L323.528 10.6581L323.822 10.6134L323.617 10.3553L324.077 10.3811L324.072 10.208L323.995 10.0045L324.517 10.0538L324.171 9.73651L323.874 9.44216L324.525 9.54393C324.573 9.50762 324.617 9.46779 324.665 9.43149L324.025 8.99713L324.771 9.13689L324.273 8.76167L324.4 8.64453L324.559 8.54011L325.048 8.56905L325.198 8.45955L324.597 8.01545L324.58 7.84348L325.537 8.05924L324.898 7.63465L325.028 7.51731L325.751 7.64357L325.281 7.29514L324.945 6.99275L325.898 7.20089L325.196 6.75495L325.799 6.81994L325.401 6.496L326.136 6.6211L325.407 6.1679L325.963 6.21585L325.567 5.89367L326.292 6.00391L325.89 5.68036L325.873 5.50447L326.722 5.63611L326.752 5.47922L326.667 5.27845L325.943 4.8366L326.107 4.72965L326.809 4.8383L327.012 4.74526L326.206 4.27598L326.928 4.37664L326.454 4.0286L326.809 3.99372L326.586 3.74927L326.646 3.59142L326.757 3.4641L327.341 3.50934L327.495 3.3975L327.55 3.25001L326.887 2.84358L327.283 2.8185L327.975 2.89842L327.935 2.71685C327.858 2.63373 327.765 2.53634 327.681 2.45967L328.095 2.43871L327.49 2.05617L327.724 2.08451L327.907 2.10791C327.929 2.10578 328.06 2.14029 327.797 2.03395C327.534 1.92762 326.877 1.68436 325.321 1.14273L323.648 0.569151Z" fill="#FFBCA5"/>
<path d="M338.397 5.48218C337.941 4.92762 338.205 5.3013 338.206 5.31318L338.204 5.41923C338.202 5.44787 338.205 5.47661 338.212 5.50433L338.217 5.54984L338.059 5.67728L337.518 5.33078L337.642 5.81412L337.155 5.53238L337.296 6.03197L336.671 5.58386L336.66 5.8947L336.534 6.06492L336.424 6.25158L336.161 6.25543L336.523 7.01903L335.771 6.43563L336.007 7.03584L335.994 7.33678L335.659 7.25586L335.519 7.40549L335.168 7.30812L335.282 7.75247L335.316 8.09878L334.836 7.85623L334.954 8.30216L334.498 8.08121L334.82 8.75295L334.27 8.4373L334.406 8.89355L333.729 8.43252L334.216 9.29184L333.904 9.24854L333.291 8.87722L333.55 9.46519L333.311 9.50468L332.85 9.29025L333.288 10.0743L333.094 10.1453L332.725 10.0458L332.808 10.4372L332.351 10.2464L332.16 10.3451L332.499 10.9951L331.722 10.472L331.741 10.7858L331.514 10.8422L331.803 11.4312L331.165 11.0802L331.458 11.6688L331.175 11.6706L330.724 11.4972L330.876 11.9398L330.558 11.9131L330.518 12.1608L330.572 12.5012L330.523 12.7358L330.42 12.9177L330.109 12.8964L330.021 13.0928L329.857 13.2149L329.444 13.1016L329.37 13.3087L329.667 13.8789L329.498 13.9974C329.446 14.0405 329.396 14.0873 329.346 14.1322L328.914 14.0029L328.78 14.1559L328.761 14.4154L328.429 14.3842L328.839 15.0372L328.526 15.024L328.556 15.3327C328.428 15.3067 328.302 15.2832 328.178 15.262L328.158 15.5157L328.13 15.7602C328.113 15.8099 327.888 15.6701 328.177 15.9934C328.225 16.0447 328.158 16.0432 328.786 16.6029L329.087 16.853L329.608 17.3073C329.744 17.4374 329.89 17.5566 330.045 17.664C330.123 17.6662 330.097 17.5769 330.096 17.5091L330.235 17.3715L330.262 17.1331L330.597 17.1741L331.011 17.2933L330.994 17.0153C331.114 17.0393 331.239 17.065 331.354 17.0837L331.314 16.7819L331.403 16.5994L331.633 16.5488L331.436 16.0967L331.825 16.1982L332.135 16.2257L332.053 15.8781L332.496 16.0344L332.573 15.841L332.595 15.5931L333.079 15.7933L332.899 15.3475L332.76 14.9395L333.34 15.2362L333.533 15.1572L333.149 14.4997L333.801 14.8792L333.525 14.3189L333.717 14.234L333.93 14.1731L334.389 14.3638L334.595 14.2995L334.244 13.6667L334.332 13.4783L335.129 14.0273L334.76 13.3622L334.953 13.2813L335.575 13.6578L335.321 13.1193L335.178 12.6838L335.962 13.2421L335.558 12.5226L336.084 12.8066L335.902 12.323L336.523 12.7174L336.122 11.9657L336.615 12.2229L336.439 11.7407L337.05 12.1322L336.874 11.646L336.966 11.4591L337.657 11.9487L337.783 11.8004L337.83 11.562L337.445 10.8366L337.666 10.7949L338.25 11.1771L338.494 11.1671L338.061 10.3624L338.655 10.7636L338.449 10.2204L338.795 10.3322L338.762 9.98787L338.903 9.85606L339.096 9.77713L339.592 10.0741L339.804 10.0312L339.953 9.9107L339.633 9.22293L340.005 9.37612L340.566 9.76657C340.593 9.70155 340.624 9.63839 340.66 9.57752L340.626 9.23319L341.034 9.43885L340.77 8.79547C340.835 8.84502 340.905 8.90208 340.956 8.93301L341.085 9.02022C341.1 9.03073 341.186 9.11215 341.022 8.87452L340.846 8.63212L340.544 8.23228L339.458 6.83248C338.927 6.13141 338.592 5.72875 338.397 5.48218Z" fill="#FFBCA5"/>
<path d="M341.245 19.3536C341.032 18.7109 341.152 19.1311 341.154 19.1465L341.149 19.2424C341.153 19.2848 341.16 19.358 341.149 19.3552L341.05 19.3863L340.776 18.8723L340.804 19.3055L340.554 18.8785L340.599 19.3411L340.291 18.7214L340.258 18.9601L340.175 19.0384L340.097 19.1355L339.951 19.0234L340.08 19.7658L339.721 18.9857L339.793 19.5508L339.755 19.7764L339.578 19.566L339.486 19.6179L339.303 19.3868L339.318 19.7745L339.298 20.0509L339.051 19.6529L339.066 20.0406L338.842 19.6851L338.941 20.3351L338.685 19.8484L338.704 20.2532L338.384 19.5977L338.553 20.4647L338.386 20.2865L338.098 19.7309L338.167 20.2846L338.032 20.2025L337.803 19.8359L337.945 20.6198L337.822 20.5755L337.634 20.3313L337.625 20.6493L337.404 20.2974L337.29 20.2813L337.383 20.9124L337.036 20.1682L337.001 20.4032L336.869 20.3363L336.939 20.8958L336.652 20.3402L336.721 20.8978L336.566 20.7592L336.345 20.4151L336.361 20.8028L336.195 20.6244L336.136 20.782L336.113 21.049L336.05 21.1914L335.966 21.2717L335.805 21.1085L335.727 21.2037L335.62 21.2142L335.422 20.9398L335.348 21.0522L335.4 21.5822L335.29 21.5833L335.185 21.5936L334.979 21.2909L334.88 21.3239L334.821 21.4834L334.651 21.292L334.744 21.9231L334.574 21.7335L334.532 21.9439L334.334 21.6656L334.271 21.808L334.206 21.9429C334.19 21.9775 334.073 21.6932 334.174 22.0842C334.18 22.1497 334.147 22.0868 334.41 22.9075L334.535 23.2845L334.755 23.9576L334.895 24.372C334.906 24.4099 334.92 24.4469 334.937 24.4826C334.972 24.5025 334.958 24.3717 334.972 24.3274L335.067 24.285L335.121 24.1104L335.291 24.298L335.489 24.5763L335.527 24.3527L335.704 24.5649L335.742 24.3393L335.825 24.2572L335.959 24.3335L335.941 23.9306L336.132 24.1881L336.297 24.3665L336.321 24.0956L336.535 24.4209L336.616 24.3313L336.676 24.1775L336.906 24.5557L336.891 24.168L336.888 23.82L337.154 24.3134L337.279 24.3575L337.183 23.7131L337.482 24.3007L337.43 23.7725L337.549 23.8036L337.677 23.863L337.901 24.2185L338.027 24.2704L337.939 23.6524L338.02 23.5627L338.379 24.337L338.279 23.6871L338.399 23.722L338.69 24.2889L338.64 23.7782L338.626 23.3902L338.985 24.1646L338.867 23.4522L339.12 23.908L339.089 23.4693L339.385 24.0493L339.259 23.3144L339.508 23.7337L339.477 23.2969L339.771 23.8694L339.738 23.427L339.815 23.3317L340.144 24.0156L340.237 23.9636L340.297 23.808L340.171 23.0769L340.302 23.1457L340.589 23.7013L340.733 23.8059L340.585 23.0012L340.878 23.5737L340.829 23.0764L341.017 23.3187L341.041 23.0478L341.139 23.009L341.255 23.0307L341.507 23.4807L341.636 23.542L341.737 23.5146L341.631 22.84L341.831 23.1219L342.121 23.6773L342.198 23.5763L342.215 23.2885L342.431 23.6234L342.341 23.0018L342.436 23.187L342.508 23.324C342.509 23.3413 342.561 23.4472 342.495 23.191C342.428 22.9348 342.232 22.3138 341.771 20.882L341.245 19.3536Z" fill="#FFBCA5"/>
<path d="M213.813 181.616C215.367 181.616 216.626 180.359 216.626 178.808C216.626 177.257 215.367 176 213.813 176C212.259 176 211 177.257 211 178.808C211 180.359 212.259 181.616 213.813 181.616Z" fill="#FFF1ED"/>
<path d="M193.813 164.616C195.367 164.616 196.626 163.359 196.626 161.808C196.626 160.257 195.367 159 193.813 159C192.259 159 191 160.257 191 161.808C191 163.359 192.259 164.616 193.813 164.616Z" fill="#FFF1ED"/>
<path d="M76.8132 199.616C78.3668 199.616 79.6263 198.359 79.6263 196.808C79.6263 195.257 78.3668 194 76.8132 194C75.2595 194 74 195.257 74 196.808C74 198.359 75.2595 199.616 76.8132 199.616Z" fill="#E7F1FF"/>
<path d="M140.813 148.616C142.367 148.616 143.626 147.359 143.626 145.808C143.626 144.257 142.367 143 140.813 143C139.259 143 138 144.257 138 145.808C138 147.359 139.259 148.616 140.813 148.616Z" fill="#E7F1FF"/>
<path d="M87.8132 211.616C89.3668 211.616 90.6263 210.359 90.6263 208.808C90.6263 207.257 89.3668 206 87.8132 206C86.2595 206 85 207.257 85 208.808C85 210.359 86.2595 211.616 87.8132 211.616Z" fill="#E7F1FF"/>
<path d="M42.8132 205.616C44.3668 205.616 45.6263 204.359 45.6263 202.808C45.6263 201.257 44.3668 200 42.8132 200C41.2595 200 40 201.257 40 202.808C40 204.359 41.2595 205.616 42.8132 205.616Z" fill="#E7F1FF"/>
<path d="M94.8115 179.082C95.9852 178.066 96.1116 176.293 95.0936 175.121C94.0757 173.95 92.299 173.824 91.1253 174.84C89.9515 175.856 89.8252 177.629 90.8431 178.8C91.861 179.972 93.6377 180.098 94.8115 179.082Z" fill="#E7F1FF"/>
<path d="M100.813 220.616C102.367 220.616 103.626 219.359 103.626 217.808C103.626 216.257 102.367 215 100.813 215C99.2595 215 98 216.257 98 217.808C98 219.359 99.2595 220.616 100.813 220.616Z" fill="#E7F1FF"/>
<path d="M117.282 211.663C118.836 211.663 120.095 210.406 120.095 208.855C120.095 207.304 118.836 206.047 117.282 206.047C115.728 206.047 114.469 207.304 114.469 208.855C114.469 210.406 115.728 211.663 117.282 211.663Z" fill="#FFF1ED"/>
<path d="M119.813 192.616C121.367 192.616 122.626 191.359 122.626 189.808C122.626 188.257 121.367 187 119.813 187C118.259 187 117 188.257 117 189.808C117 191.359 118.259 192.616 119.813 192.616Z" fill="#E7F1FF"/>
<path d="M102.813 169.616C104.367 169.616 105.626 168.359 105.626 166.808C105.626 165.257 104.367 164 102.813 164C101.259 164 100 165.257 100 166.808C100 168.359 101.259 169.616 102.813 169.616Z" fill="#E7F1FF"/>
<path d="M157.813 156.616C159.367 156.616 160.626 155.359 160.626 153.808C160.626 152.257 159.367 151 157.813 151C156.259 151 155 152.257 155 153.808C155 155.359 156.259 156.616 157.813 156.616Z" fill="#E7F1FF"/>
<path d="M106.813 191.616C108.367 191.616 109.626 190.359 109.626 188.808C109.626 187.257 108.367 186 106.813 186C105.259 186 104 187.257 104 188.808C104 190.359 105.259 191.616 106.813 191.616Z" fill="#FFF1ED"/>
<path d="M54.8131 202.616C56.3668 202.616 57.6263 201.359 57.6263 199.808C57.6263 198.257 56.3668 197 54.8131 197C53.2595 197 52 198.257 52 199.808C52 201.359 53.2595 202.616 54.8131 202.616Z" fill="#FFF1ED"/>
<path d="M54.8131 233.616C56.3668 233.616 57.6263 232.359 57.6263 230.808C57.6263 229.257 56.3668 228 54.8131 228C53.2595 228 52 229.257 52 230.808C52 232.359 53.2595 233.616 54.8131 233.616Z" fill="#FFF1ED"/>
<path d="M132.813 172.616C134.367 172.616 135.626 171.359 135.626 169.808C135.626 168.257 134.367 167 132.813 167C131.259 167 130 168.257 130 169.808C130 171.359 131.259 172.616 132.813 172.616Z" fill="#FFF1ED"/>
<path d="M117.599 176.067C117.972 176.188 118.315 176.389 118.604 176.656C119.151 177.163 119.475 177.867 119.503 178.611C119.532 179.356 119.263 180.081 118.756 180.627C118.25 181.173 117.547 181.495 116.802 181.522C116.057 181.549 115.331 181.279 114.784 180.772C114.42 180.436 114.152 180.009 114.008 179.535C113.864 179.061 113.85 178.557 113.966 178.076" fill="#E7F1FF"/>
<path d="M87.8484 229.323C87.6234 228.612 87.6897 227.84 88.0327 227.179C88.3757 226.517 88.9672 226.019 89.6773 225.794C90.3873 225.57 91.1576 225.637 91.8188 225.981C92.4799 226.325 92.89 227.215 93.1149 227.927" fill="#E7F1FF"/>
<path d="M103.813 207.616C105.367 207.616 106.626 206.359 106.626 204.808C106.626 203.257 105.367 202 103.813 202C102.259 202 101 203.257 101 204.808C101 206.359 102.259 207.616 103.813 207.616Z" fill="#FFF1ED"/>
<path d="M81.8131 221.616C83.3668 221.616 84.6263 220.359 84.6263 218.808C84.6263 217.257 83.3668 216 81.8131 216C80.2595 216 79 217.257 79 218.808C79 220.359 80.2595 221.616 81.8131 221.616Z" fill="#FFF1ED"/>
<path d="M208.71 170.308C210.263 170.308 211.523 169.051 211.523 167.5C211.523 165.95 210.263 164.692 208.71 164.692C207.156 164.692 205.896 165.95 205.896 167.5C205.896 169.051 207.156 170.308 208.71 170.308Z" fill="#E7F1FF"/>
<path d="M211.854 216.395C213.408 216.395 214.667 215.138 214.667 213.587C214.667 212.036 213.408 210.779 211.854 210.779C210.301 210.779 209.041 212.036 209.041 213.587C209.041 215.138 210.301 216.395 211.854 216.395Z" fill="#E7F1FF"/>
<path d="M207.081 232.264C208.634 232.264 209.894 231.007 209.894 229.456C209.894 227.906 208.634 226.648 207.081 226.648C205.527 226.648 204.268 227.906 204.268 229.456C204.268 231.007 205.527 232.264 207.081 232.264Z" fill="#E7F1FF"/>
<path d="M196.049 219.644C197.603 219.644 198.863 218.387 198.863 216.836C198.863 215.285 197.603 214.028 196.049 214.028C194.496 214.028 193.236 215.285 193.236 216.836C193.236 218.387 194.496 219.644 196.049 219.644Z" fill="#E7F1FF"/>
<path d="M187.813 198.616C189.367 198.616 190.626 197.359 190.626 195.808C190.626 194.257 189.367 193 187.813 193C186.259 193 185 194.257 185 195.808C185 197.359 186.259 198.616 187.813 198.616Z" fill="#FFF1ED"/>
<path d="M201.454 203.207C203.007 203.207 204.267 201.949 204.267 200.399C204.267 198.848 203.007 197.591 201.454 197.591C199.9 197.591 198.641 198.848 198.641 200.399C198.641 201.949 199.9 203.207 201.454 203.207Z" fill="#E7F1FF"/>
<path d="M192.813 181.616C194.367 181.616 195.626 180.359 195.626 178.808C195.626 177.257 194.367 176 192.813 176C191.259 176 190 177.257 190 178.808C190 180.359 191.259 181.616 192.813 181.616Z" fill="#E7F1FF"/>
<path d="M222.813 233.616C224.367 233.616 225.626 232.359 225.626 230.808C225.626 229.257 224.367 228 222.813 228C221.259 228 220 229.257 220 230.808C220 232.359 221.259 233.616 222.813 233.616Z" fill="#FFF1ED"/>
<path d="M233.813 239.616C235.367 239.616 236.626 238.359 236.626 236.808C236.626 235.257 235.367 234 233.813 234C232.259 234 231 235.257 231 236.808C231 238.359 232.259 239.616 233.813 239.616Z" fill="#E7F1FF"/>
<path d="M203.813 242.616C205.367 242.616 206.626 241.359 206.626 239.808C206.626 238.257 205.367 237 203.813 237C202.259 237 201 238.257 201 239.808C201 241.359 202.259 242.616 203.813 242.616Z" fill="#FFF1ED"/>
<path d="M218.667 198.923C220.22 198.923 221.48 197.666 221.48 196.115C221.48 194.565 220.22 193.308 218.667 193.308C217.113 193.308 215.854 194.565 215.854 196.115C215.854 197.666 217.113 198.923 218.667 198.923Z" fill="#E7F1FF"/>
<path d="M165.813 179.616C167.367 179.616 168.626 178.359 168.626 176.808C168.626 175.257 167.367 174 165.813 174C164.259 174 163 175.257 163 176.808C163 178.359 164.259 179.616 165.813 179.616Z" fill="#E7F1FF"/>
<path d="M227.813 213.616C229.367 213.616 230.626 212.359 230.626 210.808C230.626 209.257 229.367 208 227.813 208C226.26 208 225 209.257 225 210.808C225 212.359 226.26 213.616 227.813 213.616Z" fill="#E7F1FF"/>
<path d="M204.813 187.616C206.367 187.616 207.626 186.359 207.626 184.808C207.626 183.257 206.367 182 204.813 182C203.259 182 202 183.257 202 184.808C202 186.359 203.259 187.616 204.813 187.616Z" fill="#E7F1FF"/>
<path d="M92.8132 194.616C94.3668 194.616 95.6263 193.359 95.6263 191.808C95.6263 190.257 94.3668 189 92.8132 189C91.2595 189 90 190.257 90 191.808C90 193.359 91.2595 194.616 92.8132 194.616Z" fill="#E7F1FF"/>
<path d="M218.333 261.92C219.886 261.92 221.146 260.663 221.146 259.113C221.146 257.562 219.886 256.305 218.333 256.305C216.779 256.305 215.52 257.562 215.52 259.113C215.52 260.663 216.779 261.92 218.333 261.92Z" fill="#E7F1FF"/>
<path d="M140.813 162.616C142.367 162.616 143.626 161.359 143.626 159.808C143.626 158.257 142.367 157 140.813 157C139.259 157 138 158.257 138 159.808C138 161.359 139.259 162.616 140.813 162.616Z" fill="#E7F1FF"/>
<path d="M92.607 156.756C93.6433 155.601 93.5451 153.826 92.3876 152.792C91.2301 151.757 89.4517 151.855 88.4154 153.011C87.3791 154.166 87.4774 155.941 88.6349 156.975C89.7923 158.01 91.5708 157.912 92.607 156.756Z" fill="#FFF1ED"/>
<path d="M121.266 152.343C122.82 152.343 124.079 151.086 124.079 149.535C124.079 147.985 122.82 146.728 121.266 146.728C119.713 146.728 118.453 147.985 118.453 149.535C118.453 151.086 119.713 152.343 121.266 152.343Z" fill="#FFF1ED"/>
<path d="M159.813 167.616C161.367 167.616 162.626 166.359 162.626 164.808C162.626 163.257 161.367 162 159.813 162C158.259 162 157 163.257 157 164.808C157 166.359 158.259 167.616 159.813 167.616Z" fill="#E7F1FF"/>
<path d="M106.813 155.616C108.367 155.616 109.626 154.359 109.626 152.808C109.626 151.257 108.367 150 106.813 150C105.259 150 104 151.257 104 152.808C104 154.359 105.259 155.616 106.813 155.616Z" fill="#E7F1FF"/>
<path d="M87.8132 141.616C89.3668 141.616 90.6263 140.359 90.6263 138.808C90.6263 137.257 89.3668 136 87.8132 136C86.2595 136 85 137.257 85 138.808C85 140.359 86.2595 141.616 87.8132 141.616Z" fill="#E7F1FF"/>
<path d="M181.813 174.616C183.367 174.616 184.626 173.359 184.626 171.808C184.626 170.257 183.367 169 181.813 169C180.259 169 179 170.257 179 171.808C179 173.359 180.259 174.616 181.813 174.616Z" fill="#E7F1FF"/>
<path d="M211.626 158.808C211.626 159.363 211.461 159.906 211.152 160.368C210.843 160.83 210.404 161.19 209.89 161.402C209.376 161.615 208.81 161.67 208.264 161.562C207.719 161.453 207.217 161.186 206.824 160.793C206.431 160.401 206.163 159.9 206.054 159.356C205.946 158.811 206.001 158.246 206.214 157.733C206.427 157.22 206.788 156.782 207.25 156.473C207.713 156.165 208.257 156 208.813 156" fill="#FFF1ED"/>
<path d="M180.614 159.227C182.168 159.227 183.427 157.97 183.427 156.419C183.427 154.868 182.168 153.611 180.614 153.611C179.06 153.611 177.801 154.868 177.801 156.419C177.801 157.97 179.06 159.227 180.614 159.227Z" fill="#E7F1FF"/>
<path d="M115.813 172.616C117.367 172.616 118.626 171.359 118.626 169.808C118.626 168.257 117.367 167 115.813 167C114.259 167 113 168.257 113 169.808C113 171.359 114.259 172.616 115.813 172.616Z" fill="#FFF1ED"/>
<path d="M145.981 180.018C147.535 180.018 148.794 178.761 148.794 177.21C148.794 175.659 147.535 174.402 145.981 174.402C144.427 174.402 143.168 175.659 143.168 177.21C143.168 178.761 144.427 180.018 145.981 180.018Z" fill="#E7F1FF"/>
<path d="M68.8132 226.616C70.3668 226.616 71.6263 225.359 71.6263 223.808C71.6263 222.257 70.3668 221 68.8132 221C67.2595 221 66 222.257 66 223.808C66 225.359 67.2595 226.616 68.8132 226.616Z" fill="#E7F1FF"/>
<path d="M68.8131 211.616C70.3668 211.616 71.6263 210.359 71.6263 208.808C71.6263 207.257 70.3668 206 68.8131 206C67.2595 206 66 207.257 66 208.808C66 210.359 67.2595 211.616 68.8131 211.616Z" fill="#E7F1FF"/>
<path d="M112.813 201.616C114.367 201.616 115.626 200.359 115.626 198.808C115.626 197.257 114.367 196 112.813 196C111.259 196 110 197.257 110 198.808C110 200.359 111.259 201.616 112.813 201.616Z" fill="#E7F1FF"/>
<path d="M51.8132 217.616C53.3668 217.616 54.6263 216.359 54.6263 214.808C54.6263 213.257 53.3668 212 51.8132 212C50.2595 212 49 213.257 49 214.808C49 216.359 50.2595 217.616 51.8132 217.616Z" fill="#E7F1FF"/>
<path d="M272.444 259.376C272.353 259.828 272.177 260.259 271.926 260.647C271.607 261.133 271.187 261.544 270.695 261.852C270.203 262.161 269.651 262.359 269.075 262.434L255.952 264.144C255.817 264.162 255.68 264.15 255.55 264.109C255.42 264.069 255.3 264.001 255.199 263.911L247.828 257.303C247.371 256.901 247.021 256.392 246.809 255.821C246.597 255.25 246.529 254.635 246.612 254.032C246.704 253.412 246.946 252.824 247.317 252.319C247.687 251.814 248.174 251.407 248.737 251.132C249.255 250.868 249.824 250.722 250.405 250.706C250.986 250.689 251.563 250.802 252.094 251.037C252.612 251.258 253.074 251.593 253.446 252.016C253.819 252.439 254.092 252.939 254.247 253.481L256.262 260.603L266.472 254.933C267.004 254.637 267.596 254.464 268.204 254.428C268.812 254.393 269.42 254.495 269.983 254.727C270.516 254.938 270.995 255.267 271.384 255.689C271.772 256.111 272.061 256.615 272.228 257.165L272.368 257.618C272.536 258.189 272.562 258.792 272.444 259.376ZM257.626 262.014L268.825 260.555C269.129 260.516 269.422 260.413 269.682 260.251C269.943 260.09 270.166 259.874 270.337 259.618C270.477 259.407 270.569 259.167 270.606 258.916C270.644 258.665 270.627 258.409 270.556 258.166L270.417 257.717C270.331 257.438 270.182 257.182 269.984 256.968C269.785 256.755 269.54 256.589 269.269 256.483C268.968 256.359 268.642 256.304 268.317 256.322C267.992 256.341 267.675 256.433 267.39 256.591L257.626 262.014ZM248.507 254.179C248.499 254.216 248.492 254.253 248.488 254.291C248.449 254.588 248.485 254.89 248.591 255.17C248.697 255.449 248.871 255.699 249.097 255.895L254.274 260.537L252.427 253.998C252.348 253.726 252.209 253.475 252.021 253.263C251.833 253.052 251.6 252.885 251.339 252.775C251.063 252.652 250.762 252.593 250.46 252.601C250.157 252.61 249.861 252.686 249.591 252.823C249.319 252.951 249.079 253.139 248.891 253.374C248.703 253.609 248.571 253.884 248.507 254.178L248.507 254.179Z" fill="#FFDA2D"/>
<path d="M47.2015 244.859C47.625 244.978 48.019 245.184 48.3582 245.465C48.6974 245.745 48.9742 246.092 49.171 246.485C49.3951 246.928 49.5167 247.416 49.5267 247.912C49.5367 248.407 49.4349 248.899 49.2289 249.35L45.2283 258.393L56.4902 260.201C57.1908 260.327 57.8288 260.685 58.3021 261.217C58.7754 261.748 59.0565 262.423 59.1007 263.132L59.111 263.349C59.1526 263.961 59.0251 264.573 58.7426 265.117C58.4601 265.662 58.0333 266.119 57.5087 266.438C57.0299 266.738 56.4766 266.899 55.9107 266.903C55.3449 266.907 54.7891 266.753 54.3057 266.459L43.3495 259.936C43.2051 259.85 43.0861 259.727 43.0048 259.58C42.9234 259.433 42.8825 259.268 42.8863 259.1L43.142 248.021C43.1576 247.527 43.2803 247.042 43.5015 246.599C43.7227 246.157 44.0372 245.768 44.4235 245.458C44.779 245.171 45.1924 244.964 45.6355 244.852C46.0786 244.739 46.541 244.723 46.991 244.805C47.0611 244.821 47.1304 244.839 47.2015 244.859ZM44.8871 254.47L47.4929 248.58L47.4951 248.572C47.5848 248.378 47.6295 248.166 47.626 247.953C47.6225 247.739 47.5709 247.529 47.475 247.337C47.3982 247.168 47.2826 247.019 47.1376 246.902C46.9926 246.785 46.8222 246.704 46.6402 246.665C46.4581 246.626 46.2694 246.631 46.0894 246.678C45.9094 246.725 45.743 246.814 45.6037 246.937C45.4318 247.075 45.2919 247.248 45.1935 247.445C45.0951 247.642 45.0406 247.858 45.0336 248.078L44.8871 254.47ZM55.5751 264.965C55.7345 265.006 55.9007 265.015 56.0635 264.99C56.2263 264.965 56.3822 264.907 56.5217 264.819C56.752 264.677 56.9388 264.475 57.0616 264.234C57.1843 263.993 57.2383 263.723 57.2177 263.453L57.2073 263.234C57.1876 262.952 57.075 262.685 56.887 262.473C56.699 262.262 56.4461 262.118 56.168 262.065L48.5815 260.848L55.28 264.835C55.3722 264.891 55.4714 264.935 55.5751 264.965Z" fill="#FFDA2D"/>
</svg>
