<svg xmlns="http://www.w3.org/2000/svg" fill="none" viewBox="0 0 396 281"><path fill="#E7F1FF" d="M378.009 39.288v-1.006h-.041L377.961 0H48v281h330.009l-.007-40.532h.007v-1.006h-.007l-.007-39.241h.014v-1.006h-.014l-.007-39.192h.021v-1.006h-.021l-.007-39.239h.028v-1.006h-.028l-.007-39.24h.035v-1.006h-.035l-.007-39.239h.042zm-1.051-38.186v37.18h-39.196V1.102h39.196zm-40.2 0v37.18h-40.486V1.102h40.486zM212.813 119.78h40.965v39.239h-40.965v-39.239zm-1.003 39.239h-40.965v-39.239h40.965v39.239zm1.003-40.245v-39.24h40.965v39.24h-40.965zm-1.003 0h-40.965v-39.24h40.965v39.24zm-41.969 0h-41.014v-39.24h41.013l.001 39.24zm0 1.006v39.239h-41.014v-39.239h41.014zm0 40.245v39.191h-41.014v-39.191h41.014zm1.004 0h40.965v39.191h-40.965v-39.191zm41.968 0h40.965v39.191h-40.965v-39.191zm41.968 0h40.487v39.191h-40.487v-39.191zm0-1.006v-39.239h40.487v39.239h-40.487zm0-40.245v-39.24h40.487v39.24h-40.487zm0-40.246v-39.24h40.487v39.24h-40.487zm-1.003 0h-40.965v-39.24h40.965v39.24zm-41.968 0h-40.965v-39.24h40.965v39.24zm-41.969 0h-41.014v-39.24h41.013l.001 39.24zm-42.015 0H86.861v-39.24h40.965v39.24zm0 1.006v39.24H86.861v-39.24h40.965zm0 40.246v39.239H86.861v-39.239h40.965zm0 40.245v39.191H86.861v-39.191h40.965zm0 40.198v39.239H86.861v-39.24l40.965.001zm1.003 0h41.012v39.239h-41.014l.002-39.239zm42.016 0h40.965v39.239h-40.965v-39.239zm41.968 0h40.965v39.239h-40.965v-39.239zm41.968 0h40.487v39.239h-40.487v-39.239zm41.491 0h40.486v39.239h-40.486v-39.239zm0-1.007v-39.191h40.486v39.191h-40.486zm0-40.197v-39.239h40.486v39.239h-40.486zm0-40.245v-39.24h40.486v39.24h-40.486zm0-40.246v-39.24h40.486v39.24h-40.486zm-1.004-77.425v37.18h-40.487V1.102h40.487zm-41.49 0v37.18h-40.965V1.102h40.965zm-41.968 0v37.18h-40.965V1.102h40.965zm-41.969 0v37.18h-41.014V1.102h41.014zm-42.015 0v37.18H86.861V1.102h40.965zm-78.774 0h36.806v37.18H49.052V1.102zm0 38.185h36.806v39.24H49.052v-39.24zm0 40.246h36.806v39.24H49.052v-39.24zm0 40.246h36.806v39.239H49.052v-39.239zm0 40.245h36.806v39.191H49.052v-39.191zm0 40.198h36.806v39.239H49.052v-39.239zm0 79.724v-39.479h36.806v39.479H49.052zm37.81 0v-39.479h40.964v39.479H86.861zm41.967 0v-39.479h41.012v39.479h-41.012zm42.016 0v-39.479h40.965v39.479h-40.965zm41.968 0v-39.479h40.965v39.479h-40.965zm41.968 0v-39.479h40.487v39.479h-40.487zm41.491 0v-39.479h40.486v39.479h-40.486zm80.687 0h-39.197v-39.479h39.196l.001 39.479zm0-40.485h-39.197v-39.24h39.196l.001 39.24zm0-40.245h-39.197v-39.192h39.196l.001 39.192zm0-40.198h-39.197v-39.239h39.196l.001 39.239zm0-40.245h-39.197v-39.24h39.196l.001 39.24zm0-40.246h-39.197v-39.24h39.196l.001 39.24z"/><path fill="#fff" d="M224.77 229.231V66.753h152.461v162.478H224.77z"/><path fill="#07377F" d="M224.769 230h152.462a.77.77 0 0 0 .769-.769V66.753a.77.77 0 0 0-.769-.769H224.769a.769.769 0 0 0-.769.77V229.23c0 .425.344.769.769.769zm151.693-1.538H225.538V67.522h150.924v160.94z"/><path fill="#07377F" d="M224.769 85.626h152.462a.769.769 0 1 0 0-1.538H224.769a.768.768 0 0 0 0 1.538z"/><path fill="#85B7FE" d="M369.153 78.826a3.022 3.022 0 1 1 0-6.043 3.022 3.022 0 0 1 0 6.043zM360.694 78.826a3.02 3.02 0 1 1 0-6.041 3.02 3.02 0 0 1 0 6.041zM352.237 78.826a3.022 3.022 0 1 1 0-6.043 3.022 3.022 0 0 1 0 6.043z"/><path fill="#fff" d="M55.64 91.731l-8.136 33.388 189.518 43.915 8.136-33.689L55.639 91.731z"/><path fill="#3C4043" d="M237.024 169.936a.956.956 0 0 1-.206-.023L47.3 125.997a.9.9 0 0 1-.674-1.092l8.135-33.387a.902.902 0 0 1 1.082-.666l189.518 43.614a.9.9 0 0 1 .566.405.896.896 0 0 1 .11.686l-8.135 33.688a.904.904 0 0 1-.878.691zm-188.425-45.49l187.755 43.506 7.711-31.932L56.307 92.81l-7.708 31.636z"/><path fill="#E7F1FF" stroke="#3C4043" stroke-width="2" d="M117.02 263.645v15.874h-14.903v-43.78h41.756l8.661 26.026.001.003a13.739 13.739 0 0 0 6.012 7.429l1.352.81.004.002c3.233 1.917 5.357 5.746 5.675 9.6h-37.977l-8.697-16.432-1.884.468zM27.604 259.755l-5.071 12.712-14.135-4.827 15.703-39.435 40.306 10.854-2.64 22.211-.026.223.071.212c1 2.992 3.125 6.624 6.044 8.334l.004.003 1.347.807h0l.008.005a11.66 11.66 0 0 1 5.724 9.001l-28.57.144-14.53-4.52-2.317-15.502-.547-3.659-1.37 3.437z"/><path fill="#fff" d="M73.748 148.797l-9.48 18.896-40.766 59.285 42.001 11.31 41.79-57.15 9.506-18.894-3.912-4.341-39.14-9.106z"/><path fill="#3C4043" d="M65.503 239.19a.851.851 0 0 1-.236-.03l-42-11.309a.903.903 0 0 1-.51-1.382l40.73-59.234 9.452-18.841a.9.9 0 0 1 1.013-.475l39.139 9.107a.905.905 0 0 1 .467.275l3.911 4.341a.896.896 0 0 1 .136 1.008l-9.504 18.894a.787.787 0 0 1-.078.127l-41.79 57.15a.898.898 0 0 1-.73.369zm-40.534-12.75l40.17 10.817 41.38-56.589 9.195-18.277-3.309-3.672-38.169-8.881-9.16 18.26a.857.857 0 0 1-.062.107L24.969 226.44z"/><path fill="#fff" d="M172.373 171.743a21.53 21.53 0 0 1-1.987 12.495l-25.792 50.472-43.477.03 25.881-60.398-13.833-16.405"/><path fill="#3C4043" d="M101.116 235.641a.903.903 0 0 1-.831-1.257l25.663-59.887-13.475-15.978a.903.903 0 1 1 1.383-1.162l13.833 16.405a.904.904 0 0 1 .14.936l-25.342 59.138 41.553-.03 25.54-49.979a20.555 20.555 0 0 0 1.898-11.96.904.904 0 0 1 1.79-.251 22.364 22.364 0 0 1-2.069 13.018l-25.8 50.486a.906.906 0 0 1-.804.492l-43.478.03-.001-.001z"/><path fill="#fff" d="M172.581 171.713l-152.515-35.36 27.328-11.099 111.652 25.886 31.275 23.91-17.74-3.337z"/><path fill="#3C4043" d="M190.321 175.952a.851.851 0 0 1-.167-.016l-17.741-3.339-.037-.007-152.515-35.359a.902.902 0 0 1-.136-1.714l27.328-11.1a.908.908 0 0 1 .546-.043L159.25 150.26a.907.907 0 0 1 .345.163l31.275 23.91a.906.906 0 0 1 .307 1.006.903.903 0 0 1-.856.613zm-17.554-5.123l13.989 2.632-28.105-21.487-111.182-25.778-24.424 9.92 149.722 34.713z"/><path fill="#fff" d="M236.082 170.319a128.36 128.36 0 0 1-17.64 6.879l-5.17 1.591-6.519-16.59 29.406 6.818-.077 1.302z"/><path fill="#3C4043" d="M213.273 179.692a.904.904 0 0 1-.842-.571l-6.519-16.59a.897.897 0 0 1 .158-.919.905.905 0 0 1 .888-.289l29.407 6.818a.899.899 0 0 1 .698.932l-.077 1.301a.911.911 0 0 1-.513.76 129.552 129.552 0 0 1-17.763 6.93l-5.17 1.59a.898.898 0 0 1-.267.038zm-5.051-16.225l5.586 14.212 4.369-1.343c5.829-1.793 11.521-4 17.035-6.605v-.008l-26.99-6.256z"/><path fill="#fff" d="M244.294 135.389l-63.892-14.813-45.413-10.53-79.46-18.422-19.163-22.56 95.316 22.103 37.213 8.63 56.206 13.033 19.193 22.559z"/><path fill="#3C4043" d="M244.294 136.291a.875.875 0 0 1-.204-.024L55.324 92.502a.904.904 0 0 1-.484-.295l-19.163-22.56a.901.901 0 0 1 .894-1.462l188.735 43.765a.9.9 0 0 1 .484.295l19.193 22.559a.897.897 0 0 1-.202 1.344.902.902 0 0 1-.487.143zM56.025 90.811l185.811 43.082-17.23-20.252-185.782-43.08 17.201 20.25z"/><path fill="#85B7FE" d="M263.331 152.839l-4.79-7.038a128.525 128.525 0 0 0-25.91-28.048l-6.96-5.624-.006-.004a.813.813 0 0 0-.095-.062c-.019-.012-.037-.026-.057-.036a.985.985 0 0 0-.084-.034c-.027-.01-.054-.023-.081-.03-.018-.005-.037-.006-.056-.01a.91.91 0 0 0-.116-.021h-.047a.872.872 0 0 0-.125.002c-.02.002-.038.008-.058.012a.856.856 0 0 0-.112.023c-.017.006-.033.014-.049.021a.822.822 0 0 0-.115.048c-.013.007-.024.017-.037.025a.965.965 0 0 0-.112.077l-.004.003c-.02.017-.034.036-.052.054a.822.822 0 0 0-.066.066l-.003.006a.774.774 0 0 0-.064.097c-.011.019-.025.036-.035.054a.848.848 0 0 0-.037.095c-.009.023-.021.046-.027.07-.009.03-.012.058-.017.087-.005.03-.012.055-.015.083a.92.92 0 0 0 0 .105v.067c.005.037.013.073.022.109.005.02.007.041.013.06.009.028.022.054.034.08.01.029.022.056.035.083.01.019.025.037.037.056.02.033.041.064.065.093l.004.006 18.897 22.212-8.105 34.486c-.003.012-.003.023-.005.035-.006.032-.01.064-.013.097-.002.028-.004.055-.004.082 0 .027.003.06.007.09.003.03.006.058.012.087a1.076 1.076 0 0 0 .055.172c.005.011.007.023.012.034.011.021.023.04.035.06l.02.036c.028.045.06.087.096.126l.01.009a.958.958 0 0 0 .106.095l.036.026c.036.024.074.046.113.066l.027.014a.898.898 0 0 0 .151.052c.005 0 .009.004.014.005.005.001.014 0 .021.002a.9.9 0 0 0 .186.022.883.883 0 0 0 .178-.02c.017-.003.033-.008.05-.012.045-.012.09-.028.133-.046.009-.005.02-.006.03-.011a128.34 128.34 0 0 0 26.689-17.092.898.898 0 0 0 .169-1.202z"/><path fill="#fff" d="M55.53 91.624l-8.136 33.629-27.328 11.099L.904 113.793l8.135-33.629 27.328-11.099 19.162 22.56z"/><path fill="#3C4043" d="M20.066 137.253a.907.907 0 0 1-.69-.319L.215 114.375a.902.902 0 0 1-.189-.794L8.16 79.953a.902.902 0 0 1 .538-.624l27.328-11.1a.905.905 0 0 1 1.03.253l19.163 22.56a.902.902 0 0 1 .19.794l-8.136 33.629a.905.905 0 0 1-.538.624l-27.328 11.099a.924.924 0 0 1-.34.065zM1.89 113.559l18.442 21.71 26.293-10.678 7.918-32.732-18.442-21.712L9.809 80.825 1.89 113.559z"/><path fill="#FFF1ED" d="M185.364 180.548c.291.931 1.152 1.983 2.858 3.148 6.147 4.211 13.257-5.083 12.624-9.505 6.177 12.062 7.744 19.281 11.601 17.867 6.387-2.316-3.194-28.063-9.401-35.824a568.835 568.835 0 0 0-8.336-10.126l-23.411 16.912c5.377 4.08 9.822 7.932 10.054 10.72l-8.768-2.045c.727 7.417 7.496 9.71 12.781 8.853 3.266-.53 5.965-2.263 6.322-4.732"/><path fill="#3C4043" d="M211.535 193.134c-1.84 0-3-1.617-3.431-2.218-1.171-1.633-2.354-4.223-3.852-7.502-.858-1.876-1.799-3.936-2.909-6.209-.901 2.685-3.073 5.59-5.607 7.161-2.754 1.707-5.604 1.734-8.026.074-1.427-.974-2.385-1.931-2.905-2.905-3.388.378-6.781-.472-9.194-2.327-2.263-1.74-3.621-4.307-3.926-7.425a.898.898 0 0 1 .68-.963.898.898 0 0 1 .425-.003l7.225 1.684c-1.351-2.54-5.549-5.944-9.264-8.763a.909.909 0 0 1-.357-.729.902.902 0 0 1 .374-.72l23.411-16.913a.905.905 0 0 1 1.222.151 577.65 577.65 0 0 1 8.35 10.143c5.445 6.809 13.408 27.133 11.366 34.38-.417 1.478-1.211 2.437-2.363 2.856a3.522 3.522 0 0 1-1.219.228zm-10.688-19.846a.902.902 0 0 1 .804.492c1.725 3.369 3.064 6.299 4.246 8.885 2.939 6.433 4.32 9.249 6.238 8.546.584-.211.989-.752 1.243-1.649 1.858-6.594-5.827-26.25-11.038-32.765a566.275 566.275 0 0 0-7.782-9.467l-21.746 15.71c5.526 4.258 9.199 7.719 9.441 10.625a.897.897 0 0 1-.31.758.902.902 0 0 1-.796.195l-7.465-1.741a8.158 8.158 0 0 0 3.032 4.9c2.19 1.685 5.366 2.387 8.497 1.881l.02-.003c3.103-.506 5.286-2.064 5.561-3.969a.913.913 0 0 1 .35-.602.906.906 0 0 1 1.44.86c-.349 2.413-2.597 4.391-5.852 5.238a8.73 8.73 0 0 0 2.002 1.769c2.301 1.576 4.56.805 6.051-.119 3.25-2.015 5.485-6.304 5.169-8.512a.901.901 0 0 1 .895-1.03v-.002z"/><path fill="#FFED96" d="M127.722 68.553l8.466 48.337a17.348 17.348 0 0 0 2.983 6.828l29.738 41.027 28.564-20.634-27.509-37.929-7.457-44.577a17.982 17.982 0 0 0-4.911-9.15l-16.085-7.95-13.632 10.219-22.36 30.377 26.049 6.028-3.846-22.576z"/><path fill="#3C4043" d="M168.909 165.648a.901.901 0 0 1-.732-.373l-29.739-41.027a18.165 18.165 0 0 1-3.137-7.184L130.893 91.9l-25.578-5.92a.9.9 0 0 1-.691-1.005.9.9 0 0 1 .166-.409l22.361-30.375a.914.914 0 0 1 .185-.187l13.632-10.218a.905.905 0 0 1 .944-.088l16.085 7.951c.087.043.167.1.237.17a18.995 18.995 0 0 1 5.164 9.64l7.422 44.368 27.385 37.756a.889.889 0 0 1 .16.672.89.89 0 0 1-.362.589l-28.564 20.634a.905.905 0 0 1-.53.17zm-41.187-97.997a.907.907 0 0 1 .889.747l8.467 48.337a16.354 16.354 0 0 0 2.825 6.456l29.208 40.295 27.098-19.576-26.977-37.198a.902.902 0 0 1-.16-.38l-7.454-44.558a16.97 16.97 0 0 0-4.558-8.575l-15.452-7.636-13.08 9.805-21.468 29.165 23.389 5.414-3.619-21.239a.903.903 0 0 1 .738-1.04.924.924 0 0 1 .154-.017z"/><path fill="#85B7FE" d="M25.38 116.675a10.647 10.647 0 0 1-3.274-.513c-3.12-1.005-5.591-3.351-6.959-6.608a15.077 15.077 0 0 1-.316-10.463 15.103 15.103 0 0 1 6.38-8.306c3.016-1.845 6.395-2.307 9.514-1.303 3.12 1.005 5.591 3.351 6.958 6.608A15.076 15.076 0 0 1 38 106.553c-1.973 6.112-7.232 10.122-12.618 10.122zm2.05-25.905c-1.868.02-3.694.558-5.273 1.554a13.3 13.3 0 0 0-5.604 7.321 13.273 13.273 0 0 0 .262 9.211c1.16 2.763 3.237 4.748 5.845 5.588a8.91 8.91 0 0 0 2.73.428c4.619 0 9.16-3.524 10.89-8.873a13.276 13.276 0 0 0-.263-9.212c-1.16-2.763-3.236-4.747-5.845-5.587a8.927 8.927 0 0 0-2.744-.43h.002z"/><path fill="#FFF1ED" d="M185.327 103.376a199.572 199.572 0 0 1 6.541-3.36c7.472-3.73 30.371-8.392 31.155-2.767.482 3.429-5.725 3.429-16.753 6.347 10.184-.873 18.159 5.159 17.194 8.588l-38.137-8.808z"/><path fill="#3C4043" d="M223.465 113.087a.931.931 0 0 1-.204-.023l-38.138-8.808a.905.905 0 0 1-.602-1.288.912.912 0 0 1 .376-.385 204.98 204.98 0 0 1 6.57-3.374c6.431-3.21 25.051-7.386 30.612-4.464 1.344.706 1.742 1.684 1.838 2.381.466 3.309-3.267 4.121-9.45 5.467l-1.848.405c4.805.881 8.571 3.125 10.455 5.399 1.169 1.41 1.605 2.805 1.259 4.033a.904.904 0 0 1-.868.657zm-35.578-10.046l34.664 8.006a4.422 4.422 0 0 0-.869-1.501c-2.448-2.954-8.502-5.637-15.336-5.052a.9.9 0 0 1-.838-1.385.902.902 0 0 1 .529-.386c3.07-.812 5.713-1.388 8.045-1.895 5.739-1.25 8.268-1.869 8.045-3.454-.037-.263-.169-.655-.89-1.034-4.579-2.406-22.281 1.146-28.965 4.482a247.48 247.48 0 0 0-4.385 2.219z"/><path fill="#FFF1ED" d="M172.841 35.865a13.517 13.517 0 0 1-4.479 8.434 13.562 13.562 0 0 1-8.944 3.38l-.085-.002-3.461 8.857a7.03 7.03 0 0 1-3.727 3.88 7.048 7.048 0 0 1-7.697-1.364 7.015 7.015 0 0 1-1.684-7.62l6.882-18.653 2.797-4.738 19.419-5.113a13.354 13.354 0 0 1 .977 6.568l-.103-.013 2.892 4.933-2.787 1.45"/><path fill="#3C4043" d="M149.32 61.911a7.956 7.956 0 0 1-6.556-3.456 7.922 7.922 0 0 1-.842-7.354l6.875-18.637c.019-.05.043-.1.07-.146l2.797-4.737a.904.904 0 0 1 .548-.415l19.419-5.113a.904.904 0 0 1 1.064.524 14.33 14.33 0 0 1 1.058 6.855l2.655 4.528a.896.896 0 0 1-.08 1.026.9.9 0 0 1-.281.23l-2.375 1.235a14.462 14.462 0 0 1-4.697 8.498 14.505 14.505 0 0 1-9.02 3.622l-3.241 8.29a7.943 7.943 0 0 1-2.917 3.663 7.968 7.968 0 0 1-4.477 1.387zm1.145-28.746l-6.854 18.576a6.128 6.128 0 0 0 1.459 6.643 6.133 6.133 0 0 0 6.706 1.197 6.126 6.126 0 0 0 3.253-3.376l3.461-8.855a.899.899 0 0 1 .843-.575h.071a12.688 12.688 0 0 0 8.347-3.157 12.648 12.648 0 0 0 4.194-7.867.895.895 0 0 1 .48-.688l1.944-1.012-2.413-4.115a.9.9 0 0 1 .02-.944 12.517 12.517 0 0 0-.667-4.99l-18.275 4.813-2.569 4.35zM135.103 180.386a.899.899 0 0 1-.484-.141l-8.105-5.144a.897.897 0 0 1-.39-.988.906.906 0 0 1 .823-.674l6.809-.391a.891.891 0 0 1 .657.225.909.909 0 0 1 .303.624.904.904 0 0 1-.856.953l-4.01.23 5.738 3.642a.9.9 0 0 1 .058 1.484.908.908 0 0 1-.543.18zM67.19 171.784a.915.915 0 0 1-.667-.293l-2.923-3.189a.9.9 0 0 1 .707-1.51.9.9 0 0 1 .627.292l2.922 3.188a.906.906 0 0 1 .16.973.906.906 0 0 1-.826.539z"/><path fill="#3C4043" d="M159.388 48.611a14.853 14.853 0 0 1-6.324-1.441.904.904 0 0 1-.428-1.202.902.902 0 0 1 1.204-.428 13.032 13.032 0 0 0 5.548 1.266.906.906 0 0 1 .904.903.904.904 0 0 1-.904.902zM162.22 36.339a.906.906 0 0 1-.9-.828.901.901 0 0 1 .751-.965l1.293-.217-1.776-1.736a.89.89 0 0 1-.272-.636.893.893 0 0 1 .259-.64.904.904 0 0 1 1.278-.013l3.043 2.978a.898.898 0 0 1-.039 1.324.902.902 0 0 1-.443.21l-3.043.511a.928.928 0 0 1-.151.012z"/><path fill="#fff" stroke="#3C4043" stroke-width="2" d="M106.772 41.635a16.922 16.922 0 0 1-.618-1.062c.32-.296.518-.487.62-.596a1.462 1.462 0 0 0 .138-.169c.016-.024.063-.093.104-.19a1.008 1.008 0 0 0-.074-.918 1.004 1.004 0 0 0-1.294-.37h-.001a1.373 1.373 0 0 0-.266.17 5.326 5.326 0 0 0-.157.124c-.069.056-.147.122-.23.193a1.508 1.508 0 0 0-.072-.068c-.016-.014-.065-.057-.13-.1a1.062 1.062 0 0 0-.249-.121 1.003 1.003 0 0 0-1.278 1.215c.026.095.06.164.071.188.029.058.058.104.069.12.028.044.06.088.083.12l.052.07-.525.474.545.245-.05.098c-.195.375-.46.81-.778 1.286-.638.953-1.457 2.021-2.279 3.035a82.671 82.671 0 0 1-2.998 3.48c-.092.1-.164.177-.213.228l-.017.018a23.218 23.218 0 0 1-26.507.075 23.155 23.155 0 0 1-8.542-10.982 23.11 23.11 0 0 1-.699-13.885 23.143 23.143 0 0 1 7.397-11.781 23.223 23.223 0 0 1 26.45-2.538 23.163 23.163 0 0 1 9.509 10.159l.836 1.741.94-1.687a23.157 23.157 0 0 1 8.435-8.657 23.221 23.221 0 0 1 23.358-.172 23.172 23.172 0 0 1 8.562 8.532l.753 1.306.91-1.202c.263-.348.538-.68.829-.996a13.506 13.506 0 0 1 20.258.514 13.45 13.45 0 0 1 2.995 6.727l-.028.071c-.067.169-.176.408-.323.708a40.978 40.978 0 0 1-1.201 2.227A47.474 47.474 0 0 1 169.466 32a6.36 6.36 0 0 0-2.874-3.389 6.402 6.402 0 0 0-8.757 2.52 6.387 6.387 0 0 0-.77 3.248 6.389 6.389 0 0 0 1.739 4.175c-3.537.971-7.078 1.427-9.857 1.631l-.6.044-.242.55a23.152 23.152 0 0 1-6.365 8.458 23.227 23.227 0 0 1-29.496.196l-.01-.014a122.081 122.081 0 0 1-.982-1.322 183.865 183.865 0 0 1-2.275-3.172c-.82-1.171-1.623-2.354-2.205-3.29zm-9.591 7.514a.218.218 0 0 1 0 0zm75.558-22.977l-.001.003c.005-.028.009-.032.001-.003z"/><path fill="#3C4043" d="M105.093 40.67a.9.9 0 0 1-.902-.864.912.912 0 0 1 .096-.445c3.841-7.582.56-17.125.527-17.22a.9.9 0 0 1 .555-1.143.906.906 0 0 1 1.15.543c.148.42 3.575 10.355-.618 18.634a.905.905 0 0 1-.808.496z"/><path fill="#3C4043" d="M99.92 55.386a3.817 3.817 0 0 1-1.943-.582 3.877 3.877 0 0 1-2.03-3.068c-.43-4.887 7.746-12.008 8.68-12.804a.905.905 0 0 1 1.49.726c-.058 1.34-.689 13.159-4.727 15.35-.45.247-.956.377-1.47.377zm4.236-13.58c-2.735 2.632-6.649 7.045-6.409 9.773a2.06 2.06 0 0 0 1.145 1.67c.841.493 1.336.335 1.634.173 2.024-1.097 3.201-7.007 3.63-11.616z"/><path fill="#3C4043" d="M109.704 55.626a3.73 3.73 0 0 1-2.441-.887c-3.768-3.148-3.046-13.966-2.952-15.19a.902.902 0 0 1 1.566-.541c.909.99 8.838 9.8 7.536 14.2-.235.79-.867 1.824-2.551 2.262a4.618 4.618 0 0 1-1.158.156zm-3.685-13.71c-.063 3.796.301 9.682 2.406 11.439a2.067 2.067 0 0 0 1.986.37c.939-.244 1.175-.703 1.272-1.028.653-2.205-2.701-7.215-5.664-10.78zM160.591 39.97a.897.897 0 0 1-.412-.1 6.62 6.62 0 0 1-3.599-5.642 6.613 6.613 0 0 1 3.168-5.893 6.639 6.639 0 0 1 9.176 2.301 6.608 6.608 0 0 1 .875 4.02.899.899 0 0 1-.326.613.898.898 0 0 1-.666.2.904.904 0 0 1-.807-.996 4.803 4.803 0 0 0-2.438-4.69 4.828 4.828 0 0 0-6.606 1.924 4.804 4.804 0 0 0 .182 4.86 4.826 4.826 0 0 0 1.867 1.697.908.908 0 0 1 .466 1.015.903.903 0 0 1-.88.69z"/><path fill="#FFBCA5" d="M376.647 44.57c-.687-.231-.242-.056-.225-.044l.191.179-.074.135-.664-.073.361.279-.569-.041.415.308-.773-.121.178.225.002.162.017.17-.212.098.737.43-.952-.186.541.36.162.224-.323.043-.028.151-.343.034.339.294.223.244-.531-.036.357.292-.483-.02.636.404-.63-.076.338.302-.811-.151.874.506-.286.053-.709-.111.526.368-.19.094-.507-.035.783.472-.141.108-.362.02.263.27-.481-.034-.109.12.611.41-.916-.205.168.232-.167.098.531.38-.711-.128.531.382-.249.064-.478-.032.352.307-.296.043.076.19.204.25.068.19-.001.166-.278.05.017.171-.085.131-.398-.004.033.18.504.38-.089.13-.074.135-.424-.015-.051.145c.024.067.069.141.1.21l-.278.046.599.429-.272.048.135.233-.353.011.073.2.061.192c.014.046-.273-.042.087.157.058.032-.021.034.768.384l.366.162.646.28.405.189c.036.017.074.03.113.038.05-.023-.046-.108-.061-.158l.072-.14-.061-.19.306-.03.399.005-.116-.221.344-.022-.125-.226c.011-.053.019-.107.024-.16l.19-.092-.346-.32.386-.004.294-.045-.205-.258.46.026-.005-.173-.077-.203.522.049-.346-.318-.297-.294.651.102c.048-.036.092-.076.14-.112l-.64-.435.746.14-.498-.375.127-.117.159-.105.489.03.15-.11-.601-.444-.017-.172.957.215-.639-.424.13-.118.723.127-.47-.349-.336-.302.953.208-.702-.446.603.065-.398-.324.735.125-.729-.453.556.048-.396-.322.725.11-.402-.324-.017-.175.849.131.03-.157-.085-.2-.724-.442.164-.107.702.108.203-.093-.806-.469.722.1-.474-.347.355-.035-.223-.245.06-.158.111-.127.584.045.154-.111.055-.148-.663-.406.396-.026.692.08-.04-.181a4.892 4.892 0 0 0-.254-.257l.414-.021-.605-.383.234.029.183.023c.022-.002.153.032-.11-.074-.264-.106-.92-.35-2.476-.891l-1.673-.574zM391.397 49.482c-.456-.554-.192-.18-.191-.169l-.002.106a.271.271 0 0 0 .009.085l.004.046-.158.127-.54-.346.124.483-.488-.282.141.5-.624-.448-.012.31-.126.17-.11.188-.263.003.363.764-.753-.583.236.6-.012.3-.336-.08-.14.15-.351-.098.114.444.034.347-.48-.243.118.446-.455-.22.321.67-.549-.315.135.457-.676-.462.486.86-.311-.044-.613-.37.258.587-.239.04-.461-.215.439.784-.194.071-.37-.1.083.392-.457-.19-.191.098.339.65-.776-.523.019.314-.228.056.289.59-.637-.352.293.589-.283.002-.451-.174.152.443-.318-.027-.04.248.053.34-.049.235-.103.182-.311-.022-.087.197-.165.122-.413-.113-.074.207.297.57-.169.118c-.052.044-.102.09-.151.135l-.433-.13-.133.154-.019.26-.333-.032.41.653-.313-.013.031.309c-.129-.026-.255-.05-.379-.071l-.019.254-.028.244c-.018.05-.242-.09.047.233.047.052-.019.05.608.61l.302.25.521.454c.136.13.282.25.436.357.079.002.052-.087.051-.155l.14-.138.026-.238.336.041.413.12-.017-.279c.121.024.246.05.36.069l-.039-.302.088-.183.23-.05-.197-.452.39.101.31.028-.083-.348.444.156.077-.193.022-.248.483.2-.18-.446-.138-.407.579.296.193-.079-.384-.657.652.38-.276-.561.193-.085.213-.06.458.19.207-.064-.352-.633.088-.189.798.55-.369-.666.193-.08.621.376-.253-.539-.144-.435.784.558-.404-.72.526.285-.182-.484.621.394-.401-.751.493.257-.176-.482.611.391-.176-.486.092-.187.691.49.126-.149.047-.238-.385-.725.221-.042.584.382.244-.01-.432-.805.593.402-.206-.544.347.112-.034-.344.142-.132.193-.079.495.297.213-.043.149-.12-.321-.688.373.153.56.39c.027-.064.059-.128.094-.188l-.034-.345.408.206-.264-.644c.065.05.135.107.186.138l.129.087c.016.01.102.092-.062-.146l-.177-.242-.302-.4-1.086-1.4c-.531-.7-.866-1.103-1.061-1.35zM394.244 63.354c-.213-.643-.092-.223-.091-.207l-.005.095c.004.043.011.116.001.113l-.099.031-.275-.514.028.434-.25-.427.046.462-.308-.62-.033.24-.084.077-.078.098-.146-.113.129.743-.359-.78.072.565-.038.225-.176-.21-.093.052-.183-.231.016.388-.021.276-.247-.398.015.388-.224-.356.1.65-.256-.487.019.405-.32-.655.168.867-.167-.178-.287-.556.069.554-.135-.082-.229-.367.141.784-.123-.044-.188-.245-.008.318-.222-.352-.113-.016.093.631-.348-.744-.035.235-.131-.067.069.56-.287-.556.069.558-.154-.139-.221-.344.015.388-.165-.179-.059.158-.024.267-.063.142-.083.08-.162-.162-.078.095-.107.01-.197-.274-.074.112.052.53-.11.001-.105.01-.207-.302-.098.033-.059.16-.171-.192.093.631-.17-.19-.042.21-.197-.277-.063.142-.066.135c-.015.035-.133-.25-.032.141.007.066-.027.003.237.823l.124.377.22.674.141.414c.01.038.025.075.042.11.035.02.02-.11.034-.155l.096-.042.053-.175.171.188.197.278.039-.223.176.212.038-.226.084-.082.134.076-.019-.402.192.257.165.178.023-.27.215.325.08-.09.06-.154.23.379-.015-.388-.003-.348.267.493.125.044-.097-.644.299.588-.052-.529.119.032.129.059.224.356.126.051-.088-.618.08-.09.359.775-.099-.65.12.035.29.567-.05-.51-.013-.389.358.775-.117-.713.252.456-.03-.439.296.58-.127-.735.249.42-.03-.437.293.572-.033-.442.078-.095.329.684.092-.052.06-.156-.126-.731.132.069.287.555.143.105-.148-.805.294.573-.049-.498.188.243.023-.271.098-.039.116.022.252.45.129.061.101-.027-.106-.675.201.282.289.555.077-.1.018-.288.216.334-.091-.621.096.185.071.137c.002.017.054.123-.013-.133s-.263-.877-.724-2.309l-.526-1.528z"/><path fill="#FFF1ED" d="M41.82 214.228l-4.928 2.848 1.954-4.566 2.974 1.718zM83.889 199.529l2.055 8.383-1.269 1.694-8.675-2.53 7.889-7.547zM161.035 174.635l-6.224 3.596v-6.205l6.224 2.609z"/><path fill="#E7F1FF" d="M157.825 187.307h-.29c-8.022-.007-14.542-6.541-14.535-14.564.002-1.797.331-3.558.979-5.233a.795.795 0 1 1 1.486.574 12.902 12.902 0 0 0-.871 4.661c-.007 7.144 5.799 12.962 12.942 12.968h.288a12.925 12.925 0 0 0 11.509-7.007.796.796 0 1 1 1.415.733 14.516 14.516 0 0 1-12.923 7.868zM135.224 230.114l-.015-.004-.276-.083c-7.683-2.291-12.069-10.406-9.777-18.091 2.291-7.684 10.406-12.072 18.088-9.781l.278.083.006.001a14.583 14.583 0 0 1 10.246 11.914.797.797 0 0 1-1.578.222 12.984 12.984 0 0 0-9.124-10.609l-.005-.001-.278-.083c-6.841-2.04-14.066 1.867-16.106 8.71-2.041 6.842 1.865 14.068 8.705 16.108l.278.083.013.004c2.755.821 5.743.693 8.417-.362a.798.798 0 0 1 .585 1.483 14.55 14.55 0 0 1-9.457.406z"/><path fill="#FFF1ED" d="M134.922 220.542l3.121-10.47 7.501 7.938-10.622 2.532z"/><path fill="#E7F1FF" d="M94.132 196.382a.797.797 0 0 1-1.421.232 12.929 12.929 0 0 0-7.079-5.075c-6.867-1.968-14.051 2.014-16.018 8.876l-.08.279a12.917 12.917 0 0 0 8.37 15.853.796.796 0 1 1-.502 1.512 14.505 14.505 0 0 1-9.4-17.804l.08-.278c2.209-7.707 10.277-12.179 17.985-9.97a14.524 14.524 0 0 1 7.955 5.703c.14.203.173.45.11.672zM35.375 228.774h-.287c-.81 0-1.625-.068-2.423-.202a.797.797 0 0 1 .264-1.572c.711.119 1.438.18 2.16.181h.287c7.14 0 12.948-5.811 12.948-12.952a12.904 12.904 0 0 0-5.753-10.769.797.797 0 0 1 .884-1.326 14.495 14.495 0 0 1 6.462 12.096c0 8.019-6.523 14.544-14.542 14.544zM89.564 175.038a14.448 14.448 0 0 1-10.85-2.426 14.453 14.453 0 0 1-5.967-9.396c-.67-3.83.192-7.69 2.428-10.87.34-.484.712-.951 1.108-1.391a.797.797 0 0 1 1.184 1.067c-.353.392-.686.809-.99 1.24a12.865 12.865 0 0 0-2.16 9.679 12.867 12.867 0 0 0 5.312 8.366 12.86 12.86 0 0 0 9.662 2.16l.009-.001.285-.05c7.031-1.226 11.756-7.946 10.531-14.979a12.86 12.86 0 0 0-.313-1.318.796.796 0 0 1 1.528-.45c.144.487.262.988.354 1.488 1.376 7.905-3.93 15.452-11.826 16.829l-.285.05a.034.034 0 0 0-.01.002z"/><path fill="#FFF1ED" d="M83 165.922V155l9.457 5.461L83 165.922z"/><path fill="#fff" d="M369.833 152.5h-50v3h50v-3z"/><path fill="#9AA0A6" d="M260.759 103.091h-3.758l-4.681 2.964v3.545l4.331-2.714h.11V122h3.998v-18.909zm5.84 19.149c1.182 0 2.207-.988 2.216-2.216-.009-1.209-1.034-2.197-2.216-2.197-1.219 0-2.225.988-2.216 2.197a2.21 2.21 0 0 0 2.216 2.216zM252.533 184h13.48v-3.268h-7.941v-.13l2.761-2.705c3.887-3.545 4.93-5.318 4.93-7.469 0-3.278-2.677-5.596-6.73-5.596-3.971 0-6.694 2.373-6.685 6.085h3.795c-.009-1.81 1.135-2.918 2.862-2.918 1.662 0 2.899 1.034 2.899 2.696 0 1.505-.923 2.539-2.641 4.192l-6.73 6.232V184zm18.713.24c1.181 0 2.206-.988 2.215-2.216-.009-1.209-1.034-2.197-2.215-2.197-1.219 0-2.226.988-2.216 2.197-.01 1.228.997 2.216 2.216 2.216z"/><path fill="#0D6EFD" d="M304.581 126.109v-2.946c-2.188 0-2.631-.84-2.631-2.622v-2.696c0-1.422-.61-2.696-3.287-3.241v-.369c2.677-.545 3.287-1.819 3.287-3.231v-2.696c0-1.792.443-2.632 2.631-2.632v-2.936c-3.73 0-6.398.619-6.398 5.171v2.04c0 1.893-.711 2.696-2.835 2.696v3.545c2.124 0 2.835.804 2.835 2.696v2.05c0 4.552 2.668 5.171 6.398 5.171zm-4.789 38.622v2.945c2.188 0 2.631.84 2.631 2.622v2.696c0 1.422.609 2.696 3.287 3.241v.369c-2.678.545-3.287 1.819-3.287 3.232v2.696c0 1.791-.443 2.631-2.631 2.631v2.936c3.73 0 6.398-.618 6.398-5.17v-2.041c0-1.892.711-2.696 2.835-2.696v-3.545c-2.124 0-2.835-.803-2.835-2.696v-2.05c0-4.552-2.668-5.17-6.398-5.17z"/></svg>