<svg width="396" height="281" viewBox="0 0 396 281" fill="none" xmlns="http://www.w3.org/2000/svg">
<path d="M378.009 39.2875V38.2824H377.968L377.961 0H48V281H378.009L378.002 240.468H378.009V239.462H378.002L377.995 200.221H378.009V199.215H377.995L377.988 160.023H378.009V159.017H377.988L377.981 119.778H378.009V118.772H377.981L377.974 79.5323H378.009V78.5263H377.974L377.967 39.287L378.009 39.2875ZM376.958 1.10208V38.2824H337.762V1.10208H376.958ZM336.758 1.10208V38.2824H296.272V1.10208H336.758ZM212.813 119.779H253.778V159.018H212.813V119.779ZM211.81 159.018H170.845V119.779H211.81V159.018ZM212.813 118.773V79.5328H253.778V118.773H212.813ZM211.81 118.773H170.845V79.5328H211.81V118.773ZM169.841 118.773H128.827V79.5328H169.84L169.841 118.773ZM169.841 119.779V159.018H128.827V119.779H169.841ZM169.841 160.024V199.215H128.827V160.024H169.841ZM170.845 160.024H211.81V199.215H170.845V160.024ZM212.813 160.024H253.778V199.215H212.813V160.024ZM254.781 160.024H295.268V199.215H254.781V160.024ZM254.781 159.018V119.779H295.268V159.018H254.781ZM254.781 118.773V79.5328H295.268V118.773H254.781ZM254.781 78.5268V39.2875H295.268V78.5268H254.781ZM253.778 78.5268H212.813V39.2875H253.778V78.5268ZM211.81 78.5268H170.845V39.2875H211.81V78.5268ZM169.841 78.5268H128.827V39.2875H169.84L169.841 78.5268ZM127.826 78.5268H86.8612V39.2875H127.826V78.5268ZM127.826 79.5328V118.773H86.8612V79.5328H127.826ZM127.826 119.779V159.018H86.8612V119.779H127.826ZM127.826 160.024V199.215H86.8612V160.024H127.826ZM127.826 200.222V239.461H86.8612V200.221L127.826 200.222ZM128.829 200.222H169.841V239.461H128.827L128.829 200.222ZM170.845 200.222H211.81V239.461H170.845V200.222ZM212.813 200.222H253.778V239.461H212.813V200.222ZM254.781 200.222H295.268V239.461H254.781V200.222ZM296.272 200.222H336.758V239.461H296.272V200.222ZM296.272 199.215V160.024H336.758V199.215H296.272ZM296.272 159.018V119.779H336.758V159.018H296.272ZM296.272 118.773V79.5328H336.758V118.773H296.272ZM296.272 78.5268V39.2875H336.758V78.5268H296.272ZM295.268 1.10208V38.2824H254.781V1.10208H295.268ZM253.778 1.10208V38.2824H212.813V1.10208H253.778ZM211.81 1.10208V38.2824H170.845V1.10208H211.81ZM169.841 1.10208V38.2824H128.827V1.10208H169.841ZM127.826 1.10208V38.2824H86.8612V1.10208H127.826ZM49.0518 1.10208H85.8576V38.2824H49.0518V1.10208ZM49.0518 39.2875H85.8576V78.5268H49.0518V39.2875ZM49.0518 79.5328H85.8576V118.773H49.0518V79.5328ZM49.0518 119.779H85.8576V159.018H49.0518V119.779ZM49.0518 160.024H85.8576V199.215H49.0518V160.024ZM49.0518 200.222H85.8576V239.461H49.0518V200.222ZM49.0518 279.946V240.467H85.8576V279.946H49.0518ZM86.8612 279.946V240.467H127.826V279.946H86.8612ZM128.829 279.946V240.467H169.841V279.946H128.829ZM170.845 279.946V240.467H211.81V279.946H170.845ZM212.813 279.946V240.467H253.778V279.946H212.813ZM254.781 279.946V240.467H295.268V279.946H254.781ZM296.272 279.946V240.467H336.758V279.946H296.272ZM376.959 279.946H337.762V240.467H376.958L376.959 279.946ZM376.959 239.461H337.762V200.221H376.958L376.959 239.461ZM376.959 199.216H337.762V160.024H376.958L376.959 199.216ZM376.959 159.018H337.762V119.779H376.958L376.959 159.018ZM376.959 118.773H337.762V79.5328H376.958L376.959 118.773ZM376.959 78.5272H337.762V39.2875H376.958L376.959 78.5272Z" fill="#E7F1FF"/>
<path d="M224.77 229.231V66.7533H377.231V101.994V229.231H224.77Z" fill="white"/>
<path d="M224.769 230H377.231C377.655 230 378 229.656 378 229.231V66.7532C378 66.3286 377.655 65.9844 377.231 65.9844H224.769C224.344 65.9844 224 66.3286 224 66.7532V229.231C224 229.656 224.344 230 224.769 230ZM376.462 228.462H225.538V67.522H376.462V228.462Z" fill="#07377F"/>
<path d="M224.769 85.6257H377.231C377.656 85.6257 378 85.2815 378 84.8568C378 84.4322 377.656 84.088 377.231 84.088H224.769C224.345 84.088 224.001 84.4322 224.001 84.8568C224.001 85.2815 224.345 85.6257 224.769 85.6257Z" fill="#07377F"/>
<path d="M369.153 78.8265C367.484 78.8265 366.131 77.4737 366.131 75.805C366.131 74.1362 367.484 72.7834 369.153 72.7834C370.821 72.7834 372.174 74.1362 372.174 75.805C372.174 77.4737 370.821 78.8265 369.153 78.8265Z" fill="#85B7FE"/>
<path d="M360.694 78.8265C359.025 78.8265 357.673 77.4737 357.673 75.805C357.673 74.1362 359.025 72.7834 360.694 72.7834C362.363 72.7834 363.716 74.1362 363.716 75.805C363.716 77.4737 362.363 78.8265 360.694 78.8265Z" fill="#85B7FE"/>
<path d="M352.237 78.8265C350.568 78.8265 349.215 77.4737 349.215 75.805C349.215 74.1362 350.568 72.7834 352.237 72.7834C353.905 72.7834 355.258 74.1362 355.258 75.805C355.258 77.4737 353.905 78.8265 352.237 78.8265Z" fill="#85B7FE"/>
<path d="M55.6393 91.7311L47.5042 125.119L237.022 169.034L245.158 135.345L55.6393 91.7311Z" fill="white"/>
<path d="M237.024 169.936C236.955 169.936 236.886 169.928 236.818 169.913L47.3002 125.997C47.1838 125.97 47.0739 125.921 46.9768 125.851C46.8798 125.781 46.7976 125.693 46.7349 125.592C46.6722 125.49 46.6303 125.377 46.6117 125.259C46.593 125.142 46.5979 125.021 46.6262 124.905L54.7613 91.5178C54.8175 91.287 54.9626 91.0878 55.165 90.9631C55.3674 90.8385 55.6109 90.7985 55.8427 90.8518L245.361 134.466C245.477 134.493 245.587 134.542 245.684 134.612C245.782 134.681 245.864 134.769 245.927 134.871C245.99 134.972 246.032 135.085 246.051 135.203C246.069 135.321 246.065 135.441 246.037 135.557L237.902 169.245C237.854 169.442 237.742 169.617 237.583 169.742C237.423 169.868 237.226 169.936 237.024 169.936ZM48.5994 124.446L236.354 167.952L244.065 136.02L56.307 92.8105L48.5994 124.446Z" fill="#3C4043"/>
<path d="M117.02 263.645V279.519H102.117V235.739H143.873L152.534 261.765L152.535 261.768C153.584 264.882 155.716 267.517 158.545 269.196C158.545 269.196 158.546 269.197 158.547 269.197L159.899 270.007L159.903 270.009C163.136 271.926 165.26 275.755 165.578 279.609H127.601L118.904 263.177L117.02 263.645Z" fill="#E7F1FF" stroke="#3C4043" stroke-width="2"/>
<path d="M27.6041 259.755L22.533 272.467L8.39824 267.64L24.1009 228.205L64.4075 239.059L61.7677 261.27L61.7413 261.493L61.8122 261.705C62.8114 264.697 64.9371 268.329 67.8555 270.039C67.8569 270.04 67.8584 270.041 67.8598 270.042L69.2069 270.849L69.2069 270.849L69.2152 270.854C70.9638 271.878 72.4152 273.339 73.4272 275.092C74.2718 276.556 74.786 278.181 74.9394 279.855L46.3688 279.999L31.8396 275.479L29.522 259.977L28.9749 256.318L27.6041 259.755Z" fill="#E7F1FF" stroke="#3C4043" stroke-width="2"/>
<path d="M73.7476 148.797L64.2677 167.693L23.5017 226.978L65.5031 238.288L107.293 181.138L116.799 162.244L112.887 157.903L73.7476 148.797Z" fill="white"/>
<path d="M65.5028 239.19C65.4233 239.191 65.3442 239.181 65.2674 239.16L23.2661 227.851C23.1266 227.813 22.9982 227.743 22.8916 227.645C22.785 227.548 22.7033 227.427 22.6534 227.291C22.6034 227.156 22.5867 227.011 22.6046 226.868C22.6225 226.725 22.6745 226.588 22.7563 226.469L63.4871 167.235L72.9389 148.394C73.0298 148.212 73.1793 148.067 73.3632 147.981C73.5471 147.895 73.7546 147.873 73.9524 147.919L113.091 157.026C113.272 157.068 113.434 157.164 113.558 157.301L117.469 161.642C117.591 161.777 117.669 161.945 117.693 162.125C117.717 162.305 117.687 162.488 117.605 162.65L108.101 181.544C108.079 181.589 108.053 181.631 108.023 181.671L66.2328 238.821C66.1488 238.936 66.0389 239.029 65.9121 239.093C65.7852 239.157 65.645 239.191 65.5028 239.19ZM24.9687 226.44L65.1388 237.257L106.519 180.668L115.714 162.391L112.405 158.719L74.2363 149.838L65.0767 168.098C65.0583 168.135 65.0373 168.171 65.0137 168.205L24.9687 226.44Z" fill="#3C4043"/>
<path d="M172.373 171.743C172.977 176.012 172.285 180.365 170.386 184.238L144.594 234.71L101.117 234.74L126.998 174.342L113.165 157.937" fill="white"/>
<path d="M101.116 235.641C100.967 235.641 100.82 235.604 100.688 235.533C100.556 235.463 100.444 235.36 100.362 235.236C100.279 235.111 100.229 234.968 100.216 234.819C100.203 234.671 100.226 234.521 100.285 234.384L125.948 174.497L112.473 158.519C112.396 158.429 112.338 158.324 112.301 158.21C112.264 158.097 112.251 157.978 112.261 157.859C112.27 157.741 112.304 157.625 112.358 157.519C112.413 157.414 112.488 157.32 112.579 157.243C112.67 157.167 112.776 157.109 112.889 157.073C113.003 157.037 113.123 157.024 113.241 157.035C113.36 157.045 113.476 157.079 113.581 157.134C113.687 157.19 113.78 157.265 113.856 157.357L127.689 173.762C127.797 173.89 127.867 174.045 127.892 174.21C127.917 174.375 127.895 174.544 127.829 174.698L102.487 233.836L144.04 233.806L169.58 183.827C171.399 180.121 172.061 175.954 171.478 171.867C171.448 171.632 171.512 171.394 171.656 171.205C171.801 171.016 172.014 170.892 172.249 170.859C172.485 170.826 172.724 170.887 172.914 171.028C173.105 171.17 173.232 171.381 173.268 171.616C173.902 176.064 173.181 180.6 171.199 184.634L145.399 235.12C145.323 235.268 145.208 235.392 145.066 235.479C144.924 235.566 144.761 235.612 144.595 235.612L101.117 235.642L101.116 235.641Z" fill="#3C4043"/>
<path d="M172.581 171.713L20.0662 136.353L47.3942 125.254L159.046 151.14L190.321 175.05L172.581 171.713Z" fill="white"/>
<path d="M190.321 175.952C190.265 175.952 190.209 175.947 190.154 175.936L172.413 172.597C172.401 172.595 172.388 172.593 172.376 172.59L19.8614 137.231C19.6745 137.188 19.5064 137.086 19.3813 136.941C19.2561 136.795 19.1805 136.614 19.1654 136.423C19.1503 136.232 19.1964 136.042 19.2971 135.879C19.3978 135.716 19.5478 135.589 19.7255 135.517L47.0535 124.417C47.2263 124.347 47.4168 124.332 47.5985 124.374L159.25 150.26C159.375 150.289 159.493 150.345 159.595 150.423L190.87 174.333C191.02 174.448 191.13 174.607 191.185 174.787C191.24 174.967 191.237 175.161 191.177 175.339C191.116 175.518 191.001 175.673 190.847 175.783C190.694 175.893 190.51 175.952 190.321 175.952L190.321 175.952ZM172.767 170.829L186.756 173.461L158.651 151.974L47.469 126.196L23.0449 136.116L172.767 170.829Z" fill="#3C4043"/>
<path d="M236.082 170.319C230.38 173.043 224.484 175.342 218.442 177.198L213.272 178.789L206.753 162.199L236.159 169.017L236.082 170.319Z" fill="white"/>
<path d="M213.273 179.692C213.091 179.692 212.914 179.638 212.764 179.536C212.613 179.434 212.498 179.289 212.431 179.121L205.912 162.531C205.852 162.378 205.835 162.212 205.863 162.05C205.89 161.888 205.962 161.736 206.07 161.612C206.177 161.487 206.317 161.395 206.474 161.344C206.63 161.293 206.798 161.286 206.958 161.323L236.365 168.141C236.573 168.189 236.757 168.309 236.885 168.479C237.013 168.65 237.076 168.86 237.063 169.073L236.986 170.374C236.976 170.534 236.923 170.69 236.833 170.824C236.743 170.957 236.619 171.064 236.473 171.134C230.731 173.877 224.794 176.193 218.71 178.064L213.54 179.654C213.453 179.68 213.363 179.693 213.273 179.692ZM208.222 163.467L213.808 177.679L218.177 176.336C224.006 174.543 229.698 172.336 235.212 169.731V169.723L208.222 163.467Z" fill="#3C4043"/>
<path d="M244.294 135.389L180.402 120.576L134.989 110.046L55.5292 91.6241L36.3665 69.0649L131.682 91.1672L168.895 99.7962L225.101 112.83L244.294 135.389Z" fill="white"/>
<path d="M244.294 136.291C244.225 136.291 244.157 136.283 244.09 136.267L55.3245 92.5024C55.1353 92.4585 54.9654 92.355 54.8397 92.2071L35.677 69.6479C35.5541 69.5032 35.4801 69.3235 35.4654 69.1344C35.4506 68.9453 35.496 68.7563 35.595 68.5944C35.6939 68.4325 35.8415 68.3058 36.0167 68.2324C36.1919 68.159 36.3859 68.1426 36.571 68.1855L225.306 111.95C225.495 111.994 225.665 112.097 225.79 112.245L244.983 134.804C245.095 134.935 245.167 135.096 245.19 135.266C245.213 135.437 245.187 135.611 245.115 135.767C245.042 135.923 244.927 136.056 244.781 136.148C244.636 136.241 244.467 136.291 244.294 136.291ZM56.0251 90.8114L241.836 133.893L224.606 113.641L38.8238 70.5608L56.0251 90.8114Z" fill="#3C4043"/>
<path d="M263.331 152.839L258.541 145.801C251.351 135.216 242.618 125.762 232.631 117.753L225.671 112.129L225.665 112.125C225.634 112.102 225.603 112.081 225.57 112.063C225.551 112.051 225.533 112.037 225.513 112.027C225.485 112.014 225.457 112.003 225.429 111.993C225.402 111.983 225.375 111.97 225.348 111.963C225.33 111.958 225.311 111.957 225.292 111.953C225.254 111.943 225.215 111.937 225.176 111.932C225.161 111.932 225.146 111.932 225.129 111.932C225.088 111.93 225.046 111.93 225.004 111.934C224.984 111.936 224.966 111.942 224.946 111.946C224.908 111.951 224.871 111.959 224.834 111.969C224.817 111.975 224.801 111.983 224.785 111.99C224.746 112.003 224.707 112.019 224.67 112.038C224.657 112.045 224.646 112.055 224.633 112.063C224.594 112.086 224.556 112.112 224.521 112.14L224.517 112.143C224.497 112.16 224.483 112.179 224.465 112.197C224.442 112.217 224.42 112.24 224.399 112.263L224.396 112.269C224.372 112.3 224.351 112.332 224.332 112.366C224.321 112.385 224.307 112.402 224.297 112.42C224.283 112.451 224.27 112.483 224.26 112.515C224.251 112.538 224.239 112.561 224.233 112.585C224.224 112.615 224.221 112.643 224.216 112.672C224.211 112.702 224.204 112.727 224.201 112.755C224.199 112.79 224.199 112.825 224.201 112.86C224.201 112.882 224.201 112.905 224.201 112.927C224.206 112.964 224.214 113 224.223 113.036C224.228 113.056 224.23 113.077 224.236 113.096C224.245 113.124 224.258 113.15 224.27 113.176C224.28 113.205 224.292 113.232 224.305 113.259C224.315 113.278 224.33 113.296 224.342 113.315C224.362 113.348 224.383 113.379 224.407 113.408L224.411 113.414L243.308 135.626L235.203 170.112C235.2 170.124 235.2 170.135 235.198 170.147C235.192 170.179 235.188 170.211 235.185 170.244C235.183 170.272 235.181 170.299 235.181 170.326C235.181 170.353 235.184 170.386 235.188 170.416C235.191 170.446 235.194 170.474 235.2 170.503C235.207 170.531 235.214 170.557 235.223 170.584C235.232 170.615 235.243 170.645 235.255 170.675C235.26 170.686 235.262 170.698 235.267 170.709C235.278 170.73 235.29 170.749 235.302 170.769C235.309 170.781 235.315 170.793 235.322 170.805C235.35 170.85 235.382 170.892 235.418 170.931L235.428 170.94C235.461 170.974 235.496 171.006 235.534 171.035C235.546 171.044 235.558 171.052 235.57 171.061C235.606 171.085 235.644 171.107 235.683 171.127C235.692 171.131 235.701 171.137 235.71 171.141C235.759 171.163 235.809 171.18 235.861 171.193C235.866 171.193 235.87 171.197 235.875 171.198C235.88 171.199 235.889 171.198 235.896 171.2C235.957 171.214 236.02 171.221 236.082 171.222C236.142 171.221 236.202 171.215 236.26 171.202C236.277 171.199 236.293 171.194 236.31 171.19C236.355 171.178 236.4 171.162 236.443 171.144C236.452 171.139 236.463 171.138 236.473 171.133C246.043 166.559 255.008 160.818 263.162 154.041C263.335 153.898 263.448 153.695 263.479 153.473C263.511 153.251 263.458 153.025 263.331 152.839Z" fill="#85B7FE"/>
<path d="M55.5294 91.6244L47.3943 125.253L20.0663 136.352L0.903564 113.793L9.03869 80.1644L36.3667 69.0653L55.5294 91.6244Z" fill="white"/>
<path d="M20.0664 137.253C19.9352 137.253 19.8055 137.224 19.6864 137.169C19.5673 137.114 19.4616 137.034 19.3767 136.934L0.213991 114.375C0.122217 114.267 0.0572854 114.138 0.0244627 114C-0.00835997 113.862 -0.00815013 113.719 0.0250752 113.581L8.1602 79.9527C8.1939 79.8135 8.26028 79.6844 8.35384 79.5759C8.44741 79.4675 8.56549 79.3828 8.69832 79.3289L36.0263 68.2298C36.2027 68.1582 36.3973 68.144 36.5822 68.1893C36.7671 68.2347 36.933 68.3371 37.0562 68.4821L56.2189 91.0413C56.3109 91.1496 56.376 91.2781 56.4089 91.4163C56.4418 91.5545 56.4415 91.6985 56.4081 91.8365L48.273 125.465C48.2394 125.604 48.1731 125.733 48.0795 125.842C47.986 125.95 47.868 126.035 47.7352 126.089L20.4072 137.188C20.2989 137.231 20.1831 137.253 20.0664 137.253ZM1.89013 113.559L20.3322 135.269L46.6246 124.591L54.5431 91.8588L36.101 70.147L9.80862 80.825L1.89013 113.559Z" fill="#3C4043"/>
<path d="M185.364 180.548C185.655 181.479 186.516 182.531 188.222 183.696C194.369 187.907 201.479 178.613 200.846 174.191C207.023 186.253 208.59 193.472 212.447 192.058C218.834 189.742 209.253 163.995 203.046 156.234C200.323 152.835 197.151 149.006 194.71 146.108L171.299 163.02C176.676 167.1 181.121 170.952 181.353 173.74L172.585 171.695C173.312 179.112 180.081 181.405 185.366 180.548C188.632 180.018 191.331 178.285 191.688 175.816" fill="#FFF1ED"/>
<path d="M211.535 193.134C209.695 193.134 208.535 191.517 208.104 190.916C206.933 189.283 205.75 186.693 204.252 183.414C203.394 181.538 202.453 179.478 201.343 177.205C200.442 179.89 198.27 182.795 195.736 184.366C192.982 186.073 190.132 186.1 187.71 184.44C186.283 183.466 185.325 182.509 184.805 181.535C181.417 181.913 178.024 181.063 175.611 179.208C173.348 177.468 171.99 174.901 171.685 171.783C171.671 171.64 171.691 171.496 171.744 171.363C171.797 171.23 171.881 171.111 171.989 171.016C172.097 170.922 172.226 170.854 172.365 170.82C172.505 170.785 172.65 170.784 172.79 170.817L180.015 172.501C178.664 169.961 174.466 166.557 170.751 163.738C170.639 163.653 170.548 163.542 170.486 163.416C170.424 163.289 170.392 163.15 170.394 163.009C170.396 162.868 170.43 162.73 170.495 162.605C170.56 162.479 170.654 162.371 170.768 162.289L194.179 145.376C194.364 145.242 194.593 145.184 194.82 145.211C195.046 145.239 195.254 145.352 195.401 145.527C196.772 147.155 200.331 151.402 203.751 155.67C209.196 162.479 217.159 182.803 215.117 190.05C214.7 191.528 213.906 192.487 212.754 192.906C212.365 193.053 211.952 193.131 211.535 193.134ZM200.847 173.288C201.013 173.288 201.176 173.334 201.318 173.421C201.46 173.508 201.576 173.632 201.651 173.78C203.376 177.149 204.715 180.079 205.897 182.665C208.836 189.098 210.217 191.914 212.135 191.211C212.719 191 213.124 190.459 213.378 189.562C215.236 182.968 207.551 163.312 202.34 156.797C199.315 153.022 196.181 149.263 194.558 147.33L172.812 163.04C178.338 167.298 182.011 170.759 182.253 173.665C182.265 173.807 182.243 173.949 182.189 174.081C182.135 174.213 182.051 174.33 181.943 174.423C181.835 174.516 181.707 174.582 181.568 174.616C181.43 174.65 181.285 174.651 181.147 174.618L173.682 172.877C174.063 174.824 175.14 176.566 176.714 177.777C178.904 179.462 182.08 180.164 185.211 179.658L185.231 179.655C188.334 179.149 190.517 177.591 190.792 175.686C190.808 175.568 190.847 175.453 190.907 175.35C190.967 175.246 191.047 175.156 191.142 175.084C191.238 175.011 191.347 174.959 191.462 174.929C191.578 174.899 191.699 174.892 191.818 174.909C191.936 174.926 192.05 174.967 192.153 175.028C192.256 175.089 192.345 175.171 192.417 175.267C192.488 175.363 192.539 175.473 192.567 175.589C192.595 175.705 192.6 175.826 192.582 175.944C192.233 178.357 189.985 180.335 186.73 181.182C187.302 181.871 187.978 182.467 188.732 182.951C191.033 184.527 193.292 183.756 194.783 182.832C198.033 180.817 200.268 176.528 199.952 174.32C199.933 174.192 199.943 174.061 199.979 173.937C200.016 173.813 200.079 173.698 200.164 173.601C200.248 173.503 200.353 173.425 200.471 173.371C200.589 173.317 200.717 173.29 200.847 173.29V173.288Z" fill="#3C4043"/>
<path d="M127.722 68.553L136.188 116.89C136.676 119.354 137.693 121.684 139.171 123.718L168.909 164.745L197.473 144.111L169.964 106.182L162.507 61.6048C161.806 58.1394 160.098 54.9571 157.596 52.4551L141.511 44.5059L127.879 54.7239L105.519 85.1006L131.568 91.1293L127.722 68.553Z" fill="#FFED96"/>
<path d="M168.909 165.648C168.861 165.648 168.814 165.644 168.766 165.636C168.53 165.599 168.318 165.469 168.177 165.275L138.438 124.248C136.882 122.11 135.811 119.658 135.301 117.064L130.893 91.8997L105.315 85.9801C105.169 85.9465 105.034 85.8771 104.922 85.7784C104.809 85.6797 104.723 85.5546 104.671 85.4144C104.619 85.2743 104.603 85.1234 104.624 84.9754C104.644 84.8274 104.702 84.6869 104.79 84.5664L127.151 54.1907C127.203 54.1197 127.266 54.0567 127.336 54.0036L140.968 43.7856C141.102 43.6852 141.261 43.624 141.428 43.6086C141.594 43.5932 141.762 43.6242 141.912 43.6983L157.997 51.6491C158.084 51.6924 158.164 51.7496 158.234 51.8184C160.855 54.4486 162.648 57.7868 163.391 61.4217C163.394 61.434 163.396 61.4463 163.398 61.459L170.82 105.827L198.205 143.583C198.274 143.679 198.324 143.788 198.352 143.903C198.38 144.019 198.384 144.138 198.365 144.255C198.347 144.372 198.305 144.484 198.243 144.585C198.18 144.686 198.099 144.774 198.003 144.844L169.439 165.478C169.285 165.589 169.1 165.648 168.909 165.648ZM127.722 67.651C127.934 67.6512 128.14 67.7263 128.303 67.8629C128.465 67.9996 128.574 68.1891 128.611 68.3982L137.078 116.735C137.539 119.066 138.503 121.269 139.903 123.191L169.111 163.486L196.209 143.91L169.232 106.712C169.15 106.599 169.095 106.469 169.072 106.332L161.618 61.7736C160.967 58.5337 159.383 55.5538 157.06 53.199L141.608 45.5626L128.528 55.3683L107.06 84.5328L130.449 89.9469L126.83 68.7083C126.79 68.4727 126.845 68.2307 126.983 68.0356C127.121 67.8405 127.332 67.7081 127.568 67.6675C127.618 67.6578 127.67 67.6522 127.722 67.651Z" fill="#3C4043"/>
<path d="M25.3807 116.675C24.2688 116.676 23.1637 116.503 22.1055 116.162C18.9859 115.157 16.5149 112.811 15.1473 109.554C13.7959 106.216 13.6839 102.505 14.8315 99.0913C15.898 95.6518 18.1605 92.7059 21.211 90.785C24.227 88.9402 27.6058 88.4776 30.7252 89.4823C33.8445 90.4869 36.3161 92.8334 37.6834 96.0897C39.0351 99.4281 39.1472 103.139 37.9995 106.553C36.0256 112.665 30.767 116.675 25.3807 116.675ZM27.4295 90.7696C25.5617 90.7903 23.7363 91.3283 22.1568 92.3238C19.4743 94.0195 17.4868 96.616 16.5526 99.6453C15.5374 102.649 15.6306 105.915 16.8153 108.856C17.9756 111.619 20.0516 113.604 22.6605 114.444C23.5427 114.728 24.464 114.872 25.3909 114.872C30.009 114.872 34.5505 111.348 36.2802 105.999C37.2952 102.995 37.2021 99.7285 36.0175 96.7875C34.8572 94.0245 32.7809 92.0402 30.1723 91.1998C29.2858 90.9141 28.3599 90.769 27.4283 90.7696H27.4295Z" fill="#85B7FE"/>
<path d="M185.327 103.376C187.029 102.458 189.006 101.43 191.868 100.016C199.34 96.2866 222.239 91.6244 223.023 97.2491C223.505 100.678 217.298 100.678 206.27 103.596C216.454 102.723 224.429 108.755 223.464 112.184L185.327 103.376Z" fill="#FFF1ED"/>
<path d="M223.465 113.087C223.396 113.087 223.328 113.079 223.261 113.064L185.123 104.256C184.944 104.215 184.782 104.12 184.658 103.985C184.535 103.849 184.455 103.679 184.431 103.498C184.406 103.316 184.438 103.131 184.521 102.968C184.604 102.805 184.736 102.671 184.897 102.583C186.886 101.512 188.911 100.472 191.467 99.2092C197.898 95.9989 216.518 91.8227 222.079 94.7449C223.423 95.4508 223.821 96.4293 223.917 97.1265C224.383 100.435 220.65 101.247 214.467 102.593C213.872 102.723 213.256 102.858 212.619 102.998C217.424 103.879 221.19 106.123 223.074 108.397C224.243 109.807 224.679 111.202 224.333 112.43C224.28 112.619 224.166 112.785 224.01 112.904C223.853 113.022 223.662 113.087 223.465 113.087ZM187.887 103.041L222.551 111.047C222.363 110.494 222.068 109.984 221.682 109.546C219.234 106.592 213.18 103.909 206.346 104.494C206.121 104.514 205.896 104.448 205.717 104.31C205.538 104.172 205.417 103.972 205.378 103.75C205.339 103.528 205.386 103.299 205.508 103.109C205.63 102.918 205.819 102.781 206.037 102.723C209.107 101.911 211.75 101.335 214.082 100.828C219.821 99.5786 222.35 98.9592 222.127 97.3744C222.09 97.1112 221.958 96.7193 221.237 96.34C216.658 93.9337 198.956 97.4863 192.272 100.822C190.633 101.633 189.217 102.35 187.887 103.041V103.041Z" fill="#3C4043"/>
<path d="M172.841 35.8649C172.425 39.1264 170.832 42.1248 168.362 44.2992C165.891 46.4736 162.712 47.6751 159.418 47.6789C159.388 47.6789 159.361 47.6771 159.333 47.6771L155.872 56.5341C155.194 58.2694 153.853 59.6647 152.145 60.4131C150.436 61.1615 148.5 61.2016 146.761 60.5247C145.901 60.1895 145.114 59.6884 144.448 59.05C143.781 58.4115 143.247 57.6482 142.876 56.8036C142.504 55.959 142.303 55.0497 142.284 54.1276C142.265 53.2055 142.428 52.2887 142.764 51.4294L149.646 32.777L152.443 28.0395L171.862 22.9261C172.735 24.9986 173.072 27.2574 172.839 29.4939L172.736 29.4812L175.628 34.4142L172.841 35.8637" fill="#FFF1ED"/>
<path d="M149.32 61.911C148.028 61.9106 146.756 61.5955 145.613 60.9932C144.471 60.3909 143.493 59.5196 142.764 58.4546C142.035 57.3897 141.578 56.1633 141.431 54.8819C141.284 53.6005 141.453 52.3027 141.922 51.101L148.797 32.4644C148.816 32.4137 148.84 32.3648 148.867 32.3182L151.664 27.5805C151.785 27.3758 151.982 27.2269 152.212 27.1663L171.631 22.0529C171.842 21.9974 172.066 22.0198 172.261 22.1161C172.457 22.2123 172.611 22.3759 172.695 22.5766C173.604 24.7412 173.967 27.095 173.753 29.4322L176.408 33.9596C176.47 34.0651 176.51 34.182 176.525 34.3032C176.54 34.4245 176.531 34.5476 176.497 34.665C176.463 34.7825 176.406 34.8919 176.328 34.9865C176.251 35.0812 176.155 35.1592 176.047 35.2157L173.672 36.4511C173.133 39.739 171.474 42.7406 168.975 44.9487C166.476 47.1568 163.29 48.4362 159.955 48.5707L156.714 56.8614C156.132 58.3469 155.116 59.623 153.797 60.5237C152.478 61.4243 150.918 61.9078 149.32 61.911ZM150.465 33.1646L143.611 51.7407C143.318 52.4892 143.175 53.288 143.19 54.0916C143.206 54.8953 143.38 55.688 143.702 56.4245C144.025 57.161 144.49 57.8269 145.07 58.3841C145.65 58.9414 146.335 59.3791 147.084 59.6722C147.834 59.9654 148.634 60.1082 149.439 60.0927C150.244 60.0771 151.038 59.9034 151.776 59.5814C152.514 59.2595 153.181 58.7957 153.739 58.2164C154.297 57.6371 154.736 56.9538 155.029 56.2053L158.49 47.3495C158.556 47.1801 158.672 47.0346 158.823 46.9321C158.973 46.8296 159.151 46.775 159.333 46.7753H159.404C162.478 46.7679 165.444 45.6458 167.751 43.6178C170.058 41.5899 171.549 38.7942 171.945 35.7511C171.963 35.6062 172.016 35.4678 172.1 35.3479C172.183 35.228 172.295 35.1301 172.425 35.0626L174.369 34.0511L171.956 29.9363C171.872 29.7925 171.829 29.6281 171.833 29.4615C171.836 29.2949 171.886 29.1326 171.976 28.9924C172.094 27.3012 171.867 25.6037 171.309 24.0023L153.034 28.8149L150.465 33.1646Z" fill="#3C4043"/>
<path d="M135.103 180.386C134.931 180.386 134.763 180.337 134.619 180.245L126.514 175.101C126.352 174.999 126.228 174.848 126.158 174.671C126.088 174.493 126.076 174.298 126.124 174.113C126.172 173.928 126.278 173.763 126.425 173.642C126.573 173.521 126.756 173.45 126.947 173.439L133.756 173.048C133.875 173.04 133.994 173.056 134.107 173.095C134.22 173.134 134.324 173.194 134.413 173.273C134.502 173.352 134.575 173.448 134.627 173.555C134.679 173.662 134.71 173.778 134.716 173.897C134.723 174.016 134.706 174.135 134.667 174.247C134.628 174.359 134.566 174.463 134.487 174.551C134.407 174.64 134.311 174.712 134.203 174.763C134.096 174.814 133.979 174.844 133.86 174.85L129.85 175.08L135.588 178.722C135.754 178.827 135.881 178.982 135.95 179.165C136.019 179.348 136.027 179.548 135.972 179.736C135.917 179.924 135.803 180.088 135.646 180.206C135.489 180.323 135.299 180.386 135.103 180.386Z" fill="#3C4043"/>
<path d="M67.19 171.784C67.0645 171.784 66.9402 171.758 66.8253 171.708C66.7104 171.657 66.6073 171.583 66.5226 171.491L63.6 168.302C63.4382 168.126 63.3533 167.892 63.3639 167.653C63.3746 167.414 63.4799 167.189 63.6568 167.027C63.8337 166.866 64.0676 166.781 64.3071 166.792C64.5466 166.802 64.7721 166.907 64.9339 167.084L67.8565 170.272C67.9748 170.402 68.053 170.562 68.0815 170.735C68.11 170.908 68.0875 171.085 68.0169 171.245C67.9462 171.405 67.8305 171.541 67.6837 171.637C67.5369 171.733 67.3653 171.784 67.19 171.784Z" fill="#3C4043"/>
<path d="M159.388 48.6111C157.199 48.6024 155.04 48.1103 153.064 47.17C152.847 47.0673 152.681 46.8829 152.6 46.6574C152.52 46.4319 152.533 46.1838 152.636 45.9676C152.739 45.7515 152.923 45.585 153.149 45.5048C153.375 45.4246 153.624 45.4373 153.84 45.54C155.573 46.3656 157.468 46.7981 159.388 46.8064C159.627 46.8064 159.857 46.9014 160.027 47.0706C160.196 47.2399 160.292 47.4694 160.292 47.7087C160.292 47.948 160.196 48.1776 160.027 48.3468C159.857 48.516 159.627 48.6111 159.388 48.6111Z" fill="#3C4043"/>
<path d="M162.22 36.3387C161.994 36.3387 161.775 36.2536 161.608 36.1002C161.441 35.9469 161.338 35.7365 161.32 35.5109C161.301 35.2853 161.368 35.0609 161.507 34.8822C161.646 34.7035 161.848 34.5836 162.071 34.5463L163.364 34.3292L161.588 32.5927C161.503 32.5098 161.435 32.411 161.389 32.3019C161.342 32.1929 161.318 32.0758 161.316 31.9573C161.315 31.8388 161.337 31.7213 161.382 31.6113C161.426 31.5014 161.492 31.4013 161.575 31.3166C161.658 31.232 161.757 31.1645 161.866 31.1181C161.975 31.0716 162.093 31.0471 162.211 31.0459C162.33 31.0448 162.448 31.0669 162.558 31.1112C162.668 31.1554 162.768 31.2209 162.853 31.3038L165.896 34.2816C166.015 34.3981 166.1 34.5452 166.14 34.7065C166.181 34.8679 166.176 35.0373 166.126 35.1961C166.076 35.3548 165.983 35.4967 165.857 35.606C165.732 35.7154 165.578 35.7879 165.414 35.8157L162.371 36.327C162.321 36.335 162.271 36.3389 162.22 36.3387Z" fill="#3C4043"/>
<path d="M106.772 41.6346C106.507 41.2078 106.297 40.8483 106.154 40.5728C106.474 40.2773 106.672 40.0864 106.774 39.9771C106.796 39.9528 106.825 39.9209 106.854 39.8856C106.868 39.868 106.889 39.8413 106.912 39.8082C106.928 39.7841 106.975 39.7146 107.016 39.6176C107.036 39.57 107.072 39.4723 107.087 39.3427C107.101 39.2184 107.105 38.9623 106.942 38.6995C106.76 38.4089 106.486 38.2862 106.285 38.2467C106.107 38.2118 105.964 38.2337 105.9 38.246C105.77 38.2711 105.674 38.3172 105.648 38.3299L105.647 38.33C105.607 38.3496 105.574 38.3685 105.554 38.3803C105.485 38.4218 105.419 38.471 105.381 38.5004C105.332 38.5371 105.279 38.5794 105.224 38.624C105.155 38.6804 105.077 38.7459 104.994 38.8167C104.971 38.7936 104.946 38.7706 104.922 38.7495C104.906 38.7353 104.857 38.6916 104.792 38.6484C104.773 38.6356 104.744 38.6178 104.709 38.5988C104.677 38.5814 104.619 38.5526 104.543 38.5279C104.478 38.5067 104.328 38.464 104.133 38.4832C104.029 38.4936 103.9 38.5231 103.766 38.5932C103.629 38.6653 103.511 38.768 103.42 38.8926C103.248 39.1313 103.23 39.3722 103.23 39.4833C103.231 39.6034 103.253 39.6969 103.265 39.7433C103.291 39.8376 103.325 39.9074 103.336 39.9313C103.365 39.989 103.394 40.0346 103.405 40.0519C103.433 40.095 103.465 40.1388 103.488 40.1705C103.504 40.193 103.522 40.2169 103.54 40.2414L103.015 40.7146L103.56 40.9604C103.544 40.9921 103.527 41.0246 103.51 41.0581C103.315 41.433 103.05 41.8676 102.732 42.3441C102.094 43.2966 101.275 44.3654 100.453 45.3788C99.633 46.3894 98.8212 47.3315 98.2048 48.0275C97.8967 48.3754 97.6389 48.6601 97.4549 48.8596C97.3626 48.9597 97.2909 49.0361 97.2419 49.0873C97.2357 49.0937 97.2302 49.0995 97.2251 49.1048C93.3554 51.8116 88.7489 53.2743 84.0222 53.2956C79.2694 53.317 74.6249 51.88 70.7175 49.1795C66.8101 46.4789 63.8284 42.6453 62.1758 38.1977C60.5233 33.75 60.2795 28.903 61.4774 24.3126C62.6754 19.7221 65.2573 15.6096 68.874 12.532C72.4908 9.45437 76.9676 7.56022 81.6986 7.10624C86.4296 6.65225 91.1861 7.66039 95.324 9.99402C99.4619 12.3276 102.781 15.8739 104.833 20.1527L105.669 21.8941L106.609 20.207C108.603 16.6273 111.514 13.64 115.044 11.5503C118.573 9.46069 122.595 8.34366 126.699 8.31346C130.803 8.28325 134.841 9.34096 138.402 11.3784C141.962 13.4159 144.916 16.36 146.964 19.91L147.717 21.216L148.627 20.0142C148.89 19.6664 149.165 19.3339 149.456 19.018C151.197 17.1383 153.438 15.7927 155.918 15.1394C158.398 14.486 161.014 14.5523 163.457 15.3305C165.901 16.1087 168.072 17.5665 169.714 19.5324C171.32 21.4542 172.356 23.7837 172.709 26.2588C172.701 26.2792 172.692 26.303 172.681 26.3304C172.614 26.4987 172.505 26.7376 172.358 27.0377C172.065 27.6341 171.643 28.4198 171.157 29.2653C170.628 30.185 170.038 31.1474 169.466 31.9987C169.335 31.6367 169.171 31.2859 168.975 30.9509C168.402 29.9733 167.58 29.1655 166.592 28.6101C165.604 28.0547 164.486 27.7716 163.353 27.7897C162.219 27.8079 161.111 28.1266 160.142 28.7133C159.172 29.3001 158.376 30.1338 157.835 31.1292C157.295 32.1246 157.029 33.2458 157.065 34.3778C157.102 35.5098 157.439 36.6116 158.042 37.5704C158.265 37.9232 158.52 38.252 158.804 38.5528C155.267 39.524 151.726 39.9796 148.947 40.1842L148.347 40.2284L148.105 40.7788C146.666 44.0503 144.487 46.9449 141.74 49.2359C138.993 51.5268 135.752 53.1519 132.271 53.9837C128.789 54.8155 125.162 54.8314 121.674 54.0301C118.219 53.2367 114.993 51.6633 112.244 49.4316C112.241 49.4274 112.237 49.4229 112.234 49.4182C112.184 49.3528 112.11 49.2559 112.017 49.1307C111.83 48.881 111.566 48.5252 111.252 48.0963C110.623 47.2384 109.795 46.0928 108.977 44.9242C108.157 43.7528 107.354 42.5703 106.772 41.6346ZM97.1808 49.1492C97.181 49.1488 97.1854 49.1445 97.1931 49.1374C97.1844 49.1461 97.1805 49.1496 97.1808 49.1492ZM172.739 26.1722C172.738 26.173 172.738 26.1738 172.738 26.1747C172.743 26.1472 172.747 26.1434 172.739 26.1722Z" fill="white" stroke="#3C4043" stroke-width="2"/>
<path d="M105.093 40.6706C104.939 40.6705 104.787 40.6309 104.653 40.5556C104.518 40.4804 104.405 40.3719 104.324 40.2406C104.243 40.1093 104.197 39.9595 104.191 39.8055C104.185 39.6515 104.218 39.4985 104.287 39.361C108.128 31.779 104.847 22.2362 104.814 22.1405C104.737 21.9155 104.752 21.6693 104.856 21.4554C104.96 21.2415 105.145 21.0772 105.369 20.9983C105.594 20.9193 105.841 20.932 106.056 21.0336C106.271 21.1353 106.438 21.3176 106.519 21.5411C106.667 21.9601 110.094 31.8957 105.901 40.1752C105.825 40.3242 105.71 40.4495 105.567 40.5369C105.425 40.6244 105.261 40.6707 105.093 40.6706Z" fill="#3C4043"/>
<path d="M99.9201 55.3855C99.2316 55.3706 98.56 55.1697 97.9767 54.8044C97.4102 54.501 96.928 54.0617 96.5737 53.5262C96.2193 52.9907 96.0038 52.3756 95.9465 51.7363C95.5166 46.8491 103.693 39.7283 104.627 38.9324C104.761 38.8183 104.925 38.7457 105.1 38.7235C105.275 38.7014 105.452 38.7306 105.61 38.8076C105.768 38.8847 105.901 39.0062 105.991 39.1572C106.081 39.3083 106.125 39.4823 106.117 39.6579C106.059 40.9985 105.428 52.8168 101.39 55.0077C100.94 55.2548 100.434 55.3847 99.9201 55.3855ZM104.156 41.8058C101.421 44.438 97.507 48.8506 97.7474 51.5787C97.7783 51.9319 97.8999 52.2711 98.1004 52.5637C98.301 52.8562 98.5738 53.0921 98.8924 53.2487C99.7333 53.7423 100.228 53.5841 100.526 53.4223C102.55 52.3247 103.727 46.4154 104.156 41.8058Z" fill="#3C4043"/>
<path d="M109.704 55.6263C108.81 55.6323 107.944 55.3173 107.263 54.7387C103.495 51.5906 104.217 40.7725 104.311 39.5489C104.324 39.3736 104.389 39.206 104.496 39.0668C104.604 38.9276 104.75 38.8229 104.916 38.7653C105.083 38.7078 105.262 38.7001 105.433 38.7431C105.604 38.7861 105.758 38.878 105.877 39.0075C106.786 39.9976 114.715 48.8083 113.413 53.2071C113.178 53.9978 112.546 55.0322 110.862 55.4696C110.484 55.5707 110.095 55.6233 109.704 55.6263ZM106.019 41.9161C105.956 45.7117 106.32 51.5978 108.425 53.3548C108.697 53.5816 109.022 53.7349 109.369 53.7997C109.717 53.8645 110.076 53.8387 110.411 53.7247C111.35 53.4808 111.586 53.0215 111.683 52.6972C112.336 50.4918 108.982 45.4816 106.019 41.9161H106.019Z" fill="#3C4043"/>
<path d="M160.591 39.9691C160.448 39.9692 160.306 39.9349 160.179 39.8692C159.131 39.3327 158.245 38.5273 157.613 37.5358C156.981 36.5443 156.624 35.4025 156.58 34.2279C156.536 33.0533 156.807 31.8882 157.364 30.8525C157.92 29.8167 158.743 28.9477 159.748 28.3348C160.753 27.722 161.903 27.3873 163.08 27.3653C164.257 27.3433 165.419 27.6347 166.446 28.2096C167.473 28.7845 168.328 29.6221 168.924 30.6363C169.519 31.6505 169.833 32.8047 169.833 33.9801C169.833 34.2057 169.822 34.4312 169.799 34.6557C169.788 34.7743 169.753 34.8896 169.697 34.9948C169.641 35.1001 169.565 35.1932 169.473 35.2689C169.381 35.3446 169.275 35.4013 169.16 35.4358C169.046 35.4702 168.926 35.4818 168.807 35.4697C168.689 35.4577 168.574 35.4223 168.469 35.3656C168.364 35.3088 168.271 35.2319 168.196 35.1393C168.121 35.0466 168.065 34.94 168.031 34.8257C167.998 34.7114 167.987 34.5915 168 34.4731C168.017 34.3093 168.025 34.1447 168.025 33.9801C168.025 33.1252 167.797 32.2858 167.364 31.5482C166.931 30.8106 166.309 30.2015 165.562 29.7834C164.815 29.3654 163.97 29.1535 163.113 29.1697C162.257 29.1858 161.421 29.4293 160.69 29.8751C159.959 30.321 159.361 30.9531 158.956 31.7065C158.551 32.4598 158.355 33.3072 158.387 34.1615C158.419 35.0158 158.678 35.8462 159.138 36.5672C159.599 37.2882 160.243 37.8739 161.005 38.2639C161.185 38.3564 161.329 38.5069 161.414 38.691C161.498 38.8752 161.518 39.0824 161.471 39.2793C161.423 39.4762 161.31 39.6512 161.15 39.7764C160.991 39.9015 160.794 39.9694 160.591 39.9691H160.591Z" fill="#3C4043"/>
<path d="M376.647 44.5692C375.96 44.3388 376.405 44.514 376.422 44.5262L376.613 44.7047L376.539 44.8403L375.875 44.7674L376.236 45.0456L375.667 45.0049L376.082 45.3134L375.309 45.192L375.487 45.4173L375.489 45.5789L375.506 45.7489L375.294 45.8466L376.031 46.2773L375.079 46.0907L375.62 46.4519L375.782 46.6748L375.459 46.7183L375.431 46.8691L375.088 46.9029L375.427 47.197L375.65 47.4415L375.119 47.4049L375.476 47.6973L374.993 47.6778L375.629 48.0809L374.999 48.0047L375.337 48.3069L374.526 48.1558L375.4 48.6618L375.114 48.7155L374.405 48.6038L374.931 48.9724L374.741 49.066L374.234 49.031L375.017 49.5026L374.876 49.6111L374.514 49.6309L374.777 49.901L374.296 49.8674L374.187 49.9867L374.798 50.3962L373.882 50.1922L374.05 50.4243L373.883 50.5217L374.414 50.9016L373.703 50.7742L374.234 51.1561L373.985 51.22L373.507 51.1881L373.859 51.4949L373.563 51.5378L373.639 51.7276L373.843 51.9779L373.911 52.1685L373.91 52.3344L373.632 52.3834L373.649 52.5554L373.564 52.686L373.166 52.6818L373.199 52.862L373.703 53.2427L373.614 53.3718L373.54 53.5074L373.116 53.4918L373.065 53.6369C373.089 53.7036 373.134 53.7781 373.165 53.8461L372.887 53.8931L373.486 54.3216L373.214 54.37L373.349 54.6035L372.996 54.6145L373.069 54.8145L373.13 55.0058C373.144 55.0518 372.857 54.9636 373.217 55.163C373.275 55.1947 373.196 55.1966 373.985 55.5473L374.351 55.7086L374.997 55.9884L375.402 56.1775C375.438 56.1948 375.476 56.2076 375.515 56.2157C375.565 56.1931 375.469 56.1078 375.454 56.058L375.526 55.9187L375.465 55.7273L375.771 55.6973L376.17 55.7035L376.054 55.482L376.398 55.46L376.273 55.2336C376.284 55.1808 376.292 55.1273 376.297 55.0734L376.487 54.9817L376.141 54.6625L376.527 54.6581L376.821 54.6134L376.616 54.3553L377.076 54.3811L377.071 54.208L376.994 54.0045L377.516 54.0538L377.17 53.7365L376.873 53.4422L377.524 53.5439C377.572 53.5076 377.616 53.4678 377.664 53.4315L377.024 52.9971L377.77 53.1369L377.272 52.7617L377.399 52.6445L377.558 52.5401L378.047 52.5691L378.197 52.4596L377.596 52.0155L377.579 51.8435L378.536 52.0592L377.897 51.6346L378.027 51.5173L378.75 51.6436L378.28 51.2951L377.944 50.9927L378.897 51.2009L378.195 50.7549L378.798 50.8199L378.4 50.496L379.135 50.6211L378.406 50.1679L378.962 50.2159L378.566 49.8937L379.291 50.0039L378.889 49.6804L378.872 49.5045L379.721 49.6361L379.751 49.4792L379.666 49.2785L378.942 48.8366L379.106 48.7296L379.808 48.8383L380.011 48.7453L379.205 48.276L379.927 48.3766L379.453 48.0286L379.808 47.9937L379.585 47.7493L379.645 47.5914L379.756 47.4641L380.34 47.5093L380.494 47.3975L380.549 47.25L379.886 46.8436L380.282 46.8185L380.974 46.8984L380.934 46.7169C380.857 46.6337 380.763 46.5363 380.68 46.4597L381.094 46.4387L380.489 46.0562L380.723 46.0845L380.906 46.1079C380.928 46.1058 381.059 46.1403 380.796 46.034C380.532 45.9276 379.876 45.6844 378.32 45.1427L376.647 44.5692Z" fill="#FFBCA5"/>
<path d="M391.397 49.4822C390.941 48.9276 391.205 49.3013 391.206 49.3132L391.204 49.4192C391.203 49.4479 391.205 49.4766 391.213 49.5043L391.217 49.5498L391.059 49.6773L390.519 49.3308L390.643 49.8141L390.155 49.5324L390.296 50.032L389.672 49.5839L389.66 49.8947L389.534 50.0649L389.424 50.2516L389.161 50.2554L389.524 51.019L388.771 50.4356L389.007 51.0358L388.995 51.3368L388.659 51.2559L388.519 51.4055L388.168 51.3081L388.282 51.7525L388.316 52.0988L387.836 51.8562L387.954 52.3022L387.499 52.0812L387.82 52.7529L387.271 52.4373L387.406 52.8935L386.73 52.4325L387.216 53.2918L386.905 53.2485L386.292 52.8772L386.55 53.4652L386.311 53.5047L385.85 53.2902L386.289 54.0743L386.095 54.1453L385.725 54.0458L385.808 54.4372L385.351 54.2464L385.16 54.3451L385.499 54.9951L384.723 54.472L384.742 54.7858L384.514 54.8422L384.803 55.4312L384.166 55.0802L384.459 55.6688L384.176 55.6706L383.725 55.4972L383.877 55.9398L383.559 55.9131L383.519 56.1608L383.572 56.5012L383.523 56.7358L383.42 56.9177L383.109 56.8964L383.022 57.0928L382.857 57.2149L382.444 57.1016L382.37 57.3087L382.667 57.8789L382.498 57.9974C382.446 58.0405 382.396 58.0873 382.347 58.1322L381.914 58.0029L381.781 58.1559L381.762 58.4154L381.429 58.3842L381.839 59.0372L381.526 59.024L381.557 59.3327C381.428 59.3067 381.302 59.2832 381.178 59.262L381.159 59.5157L381.131 59.7602C381.113 59.8099 380.889 59.6701 381.178 59.9934C381.225 60.0447 381.159 60.0432 381.786 60.6029L382.088 60.853L382.609 61.3073C382.745 61.4374 382.891 61.5566 383.045 61.664C383.124 61.6662 383.097 61.5769 383.096 61.5091L383.236 61.3715L383.262 61.1331L383.598 61.1741L384.011 61.2933L383.994 61.0153C384.115 61.0393 384.24 61.065 384.354 61.0837L384.315 60.7819L384.403 60.5994L384.633 60.5488L384.436 60.0967L384.826 60.1982L385.136 60.2257L385.053 59.8781L385.497 60.0344L385.574 59.841L385.596 59.5931L386.079 59.7933L385.899 59.3475L385.761 58.9395L386.34 59.2362L386.533 59.1572L386.149 58.4997L386.801 58.8792L386.525 58.3189L386.718 58.234L386.931 58.1731L387.389 58.3638L387.596 58.2995L387.244 57.6667L387.332 57.4783L388.13 58.0273L387.761 57.3622L387.954 57.2813L388.575 57.6578L388.322 57.1193L388.178 56.6838L388.962 57.2421L388.558 56.5226L389.084 56.8066L388.902 56.323L389.523 56.7174L389.122 55.9657L389.615 56.2229L389.439 55.7407L390.05 56.1322L389.874 55.646L389.966 55.4591L390.657 55.9487L390.783 55.8004L390.83 55.562L390.445 54.8366L390.666 54.7949L391.25 55.1771L391.494 55.1671L391.062 54.3624L391.655 54.7636L391.449 54.2204L391.796 54.3322L391.762 53.9879L391.904 53.8561L392.097 53.7771L392.592 54.0741L392.805 54.0312L392.954 53.9107L392.633 53.2229L393.006 53.3761L393.566 53.7666C393.593 53.7015 393.625 53.6384 393.66 53.5775L393.626 53.2332L394.034 53.4389L393.77 52.7955C393.835 52.845 393.905 52.9021 393.956 52.933L394.085 53.0202C394.101 53.0307 394.187 53.1122 394.023 52.8745L393.846 52.6321L393.544 52.2323L392.458 50.8325C391.927 50.1314 391.592 49.7288 391.397 49.4822Z" fill="#FFBCA5"/>
<path d="M394.244 63.3536C394.031 62.7109 394.152 63.1311 394.153 63.1465L394.148 63.2424C394.152 63.2848 394.159 63.358 394.149 63.3552L394.05 63.3863L393.775 62.8723L393.803 63.3055L393.553 62.8785L393.599 63.3411L393.291 62.7214L393.258 62.9601L393.174 63.0384L393.096 63.1355L392.95 63.0234L393.079 63.7658L392.72 62.9857L392.792 63.5508L392.754 63.7764L392.578 63.566L392.485 63.6179L392.302 63.3868L392.318 63.7745L392.297 64.0509L392.05 63.6529L392.065 64.0406L391.841 63.6851L391.941 64.3351L391.685 63.8484L391.704 64.2532L391.384 63.5977L391.552 64.4647L391.385 64.2865L391.098 63.7309L391.167 64.2846L391.032 64.2025L390.803 63.8359L390.944 64.6198L390.821 64.5755L390.633 64.3313L390.625 64.6493L390.403 64.2974L390.29 64.2813L390.383 64.9124L390.035 64.1682L390 64.4032L389.869 64.3363L389.938 64.8958L389.651 64.3402L389.72 64.8978L389.566 64.7592L389.345 64.4151L389.36 64.8028L389.195 64.6244L389.136 64.782L389.112 65.049L389.049 65.1914L388.966 65.2717L388.804 65.1085L388.726 65.2037L388.619 65.2142L388.422 64.9398L388.348 65.0522L388.4 65.5822L388.29 65.5833L388.185 65.5936L387.978 65.2909L387.88 65.3239L387.821 65.4834L387.65 65.292L387.743 65.9231L387.573 65.7335L387.531 65.9439L387.334 65.6656L387.271 65.808L387.205 65.9429C387.19 65.9775 387.072 65.6932 387.173 66.0842C387.18 66.1497 387.146 66.0868 387.41 66.9075L387.534 67.2845L387.754 67.9576L387.895 68.372C387.905 68.4099 387.92 68.4469 387.937 68.4826C387.972 68.5025 387.957 68.3717 387.971 68.3274L388.067 68.285L388.12 68.1104L388.291 68.298L388.488 68.5763L388.527 68.3527L388.703 68.5649L388.741 68.3393L388.825 68.2572L388.959 68.3335L388.94 67.9306L389.132 68.1881L389.297 68.3665L389.32 68.0956L389.535 68.4209L389.615 68.3313L389.675 68.1775L389.905 68.5557L389.89 68.168L389.887 67.82L390.154 68.3134L390.279 68.3575L390.182 67.7131L390.481 68.3007L390.429 67.7725L390.548 67.8036L390.677 67.863L390.901 68.2185L391.027 68.2704L390.939 67.6524L391.019 67.5627L391.378 68.337L391.279 67.6871L391.399 67.722L391.689 68.2889L391.639 67.7782L391.626 67.3902L391.984 68.1646L391.867 67.4522L392.119 67.908L392.089 67.4693L392.385 68.0493L392.258 67.3144L392.507 67.7337L392.477 67.2969L392.77 67.8694L392.737 67.427L392.815 67.3317L393.144 68.0156L393.236 67.9636L393.296 67.808L393.17 67.0769L393.302 67.1457L393.589 67.7013L393.732 67.8059L393.584 67.0012L393.878 67.5737L393.829 67.0764L394.017 67.3187L394.04 67.0478L394.138 67.009L394.254 67.0307L394.506 67.4807L394.635 67.542L394.736 67.5146L394.63 66.84L394.831 67.1219L395.12 67.6773L395.197 67.5763L395.215 67.2885L395.431 67.6234L395.34 67.0018L395.436 67.187L395.507 67.324C395.509 67.3413 395.561 67.4472 395.494 67.191C395.427 66.9348 395.231 66.3138 394.77 64.882L394.244 63.3536Z" fill="#FFBCA5"/>
<path d="M41.8203 214.228L36.8916 217.076L38.8461 212.51L41.8203 214.228Z" fill="#FFF1ED"/>
<path d="M83.889 199.529L85.9437 207.912L84.6751 209.606L76 207.076L83.889 199.529Z" fill="#FFF1ED"/>
<path d="M161.035 174.635L154.811 178.231V172.026L161.035 174.635Z" fill="#FFF1ED"/>
<path d="M157.825 187.307H157.535C149.513 187.3 142.993 180.766 143 172.743C143.002 170.946 143.331 169.185 143.979 167.51C144.137 167.099 144.599 166.895 145.009 167.054C145.419 167.212 145.623 167.674 145.465 168.084C144.888 169.577 144.595 171.145 144.594 172.745C144.587 179.889 150.393 185.707 157.536 185.713H157.824C162.687 185.71 167.097 183.025 169.333 178.706C169.535 178.315 170.016 178.163 170.406 178.365C170.797 178.567 170.95 179.048 170.748 179.439C168.236 184.289 163.285 187.303 157.825 187.307Z" fill="#E7F1FF"/>
<path d="M135.224 230.114C135.219 230.113 135.214 230.111 135.209 230.11L134.933 230.027C127.25 227.736 122.864 219.621 125.156 211.936C127.447 204.252 135.562 199.864 143.244 202.155L143.522 202.238C143.524 202.238 143.526 202.239 143.528 202.239C148.962 203.86 152.984 208.536 153.774 214.153C153.835 214.589 153.531 214.992 153.096 215.053C152.66 215.114 152.257 214.811 152.196 214.375C151.493 209.373 147.911 205.209 143.072 203.766C143.07 203.766 143.068 203.765 143.067 203.765L142.789 203.682C135.948 201.642 128.723 205.549 126.683 212.392C124.642 219.234 128.548 226.46 135.388 228.5L135.666 228.583C135.67 228.584 135.675 228.585 135.679 228.587C138.434 229.408 141.422 229.28 144.096 228.225C144.506 228.064 144.968 228.265 145.13 228.674C145.291 229.083 145.09 229.546 144.681 229.708C141.677 230.893 138.319 231.037 135.224 230.114Z" fill="#E7F1FF"/>
<path d="M134.922 220.542L138.043 210.072L145.544 218.01L134.922 220.542Z" fill="#FFF1ED"/>
<path d="M94.1321 196.382C94.083 196.553 93.9768 196.708 93.819 196.817C93.4568 197.067 92.9605 196.976 92.7106 196.614C91.0155 194.159 88.5016 192.357 85.6321 191.539C78.7647 189.571 71.5807 193.553 69.614 200.415L69.5342 200.694C67.6163 207.389 71.2927 214.352 77.9039 216.547C78.3215 216.685 78.547 217.134 78.4094 217.554C78.2707 217.971 77.8198 218.198 77.4019 218.059C69.9769 215.595 65.8479 207.774 68.002 200.255L68.0818 199.977C70.2906 192.27 78.3589 187.798 86.0673 190.007C89.2929 190.926 92.1172 192.951 94.022 195.71C94.1629 195.913 94.1955 196.16 94.1321 196.382Z" fill="#E7F1FF"/>
<path d="M35.3752 228.774H35.0884C34.2785 228.774 33.463 228.706 32.665 228.572C32.231 228.499 31.9381 228.088 32.0112 227.654C32.0839 227.22 32.4934 226.928 32.9287 227C33.6404 227.119 34.3672 227.18 35.089 227.181H35.3755C42.5153 227.181 48.3241 221.37 48.3241 214.229C48.3281 209.892 46.1773 205.866 42.5708 203.46C42.2048 203.216 42.1061 202.721 42.3501 202.355C42.5941 201.989 43.0886 201.89 43.4551 202.134C47.5062 204.837 49.9219 209.359 49.9174 214.23C49.9169 222.249 43.3937 228.774 35.3752 228.774Z" fill="#E7F1FF"/>
<path d="M89.5642 175.038C85.7426 175.703 81.8893 174.842 78.7137 172.612C75.5353 170.379 73.4163 167.042 72.7468 163.216C72.0769 159.386 72.9391 155.526 75.1746 152.346C75.5144 151.862 75.8874 151.395 76.2831 150.955C76.5777 150.629 77.0815 150.602 77.4083 150.897C77.7351 151.192 77.7612 151.696 77.4667 152.022C77.1136 152.414 76.7811 152.831 76.4778 153.262C74.4875 156.094 73.7198 159.531 74.3164 162.941C74.9124 166.348 76.7992 169.319 79.629 171.307C82.4566 173.293 85.8878 174.06 89.2909 173.467C89.2941 173.467 89.2964 173.466 89.2998 173.466L89.5855 173.416C96.6162 172.19 101.341 165.47 100.116 158.437C100.036 157.998 99.9305 157.552 99.803 157.119C99.6788 156.697 99.9202 156.254 100.342 156.13C100.765 156.006 101.207 156.247 101.331 156.669C101.475 157.156 101.593 157.657 101.685 158.157C103.061 166.062 97.7551 173.609 89.859 174.986L89.5736 175.036C89.5708 175.036 89.5674 175.037 89.5642 175.038Z" fill="#E7F1FF"/>
<path d="M83 165.922V155L92.4565 160.461L83 165.922Z" fill="#FFF1ED"/>
<path d="M369.833 152.5H319.833V155.5H369.833V152.5Z" fill="white"/>
<path d="M260.759 103.091H257.001L252.32 106.055V109.6L256.651 106.886H256.761V122H260.759V103.091ZM266.599 122.24C267.781 122.24 268.806 121.252 268.815 120.024C268.806 118.815 267.781 117.827 266.599 117.827C265.38 117.827 264.374 118.815 264.383 120.024C264.374 121.252 265.38 122.24 266.599 122.24ZM252.533 184H266.013V180.732H258.072V180.602L260.833 177.897C264.72 174.352 265.763 172.579 265.763 170.428C265.763 167.15 263.086 164.832 259.033 164.832C255.062 164.832 252.339 167.205 252.348 170.917H256.143C256.134 169.107 257.278 167.999 259.005 167.999C260.667 167.999 261.904 169.033 261.904 170.695C261.904 172.2 260.981 173.234 259.263 174.887L252.533 181.119V184ZM271.246 184.24C272.427 184.24 273.452 183.252 273.461 182.024C273.452 180.815 272.427 179.827 271.246 179.827C270.027 179.827 269.02 180.815 269.03 182.024C269.02 183.252 270.027 184.24 271.246 184.24Z" fill="#9AA0A6"/>
<path d="M304.581 126.109V123.163C302.393 123.163 301.95 122.323 301.95 120.541V117.845C301.95 116.423 301.34 115.149 298.663 114.604V114.235C301.34 113.69 301.95 112.416 301.95 111.004V108.308C301.95 106.516 302.393 105.676 304.581 105.676V102.74C300.851 102.74 298.183 103.359 298.183 107.911V109.951C298.183 111.844 297.472 112.647 295.348 112.647V116.192C297.472 116.192 298.183 116.996 298.183 118.888V120.938C298.183 125.49 300.851 126.109 304.581 126.109ZM299.792 164.731V167.676C301.98 167.676 302.423 168.516 302.423 170.298V172.994C302.423 174.416 303.032 175.69 305.71 176.235V176.604C303.032 177.149 302.423 178.423 302.423 179.836V182.532C302.423 184.323 301.98 185.163 299.792 185.163V188.099C303.522 188.099 306.19 187.481 306.19 182.929V180.888C306.19 178.996 306.901 178.192 309.025 178.192V174.647C306.901 174.647 306.19 173.844 306.19 171.951V169.901C306.19 165.349 303.522 164.731 299.792 164.731Z" fill="#0D6EFD"/>
</svg>
