<svg width="355" height="283" viewBox="0 0 355 283" fill="none" xmlns="http://www.w3.org/2000/svg">
<path d="M354.009 39.2875V38.2824H353.968L353.961 0H23.9998V281H354.009L354.002 240.468H354.009V239.462H354.002L353.995 200.221H354.008V199.215H353.995L353.988 160.023H354.008V159.017H353.988L353.981 119.778H354.008V118.772H353.981L353.974 79.5323H354.008V78.5263H353.974L353.967 39.287L354.009 39.2875ZM352.957 1.10208V38.2824H313.761V1.10208H352.957ZM312.758 1.10208V38.2824H272.272V1.10208H312.758ZM188.813 119.779H229.777V159.018H188.813V119.779ZM187.809 159.018H146.845V119.779H187.809V159.018ZM188.813 118.773V79.5328H229.777V118.773H188.813ZM187.809 118.773H146.845V79.5328H187.809V118.773ZM145.841 118.773H104.827V79.5328H145.839L145.841 118.773ZM145.841 119.779V159.018H104.827V119.779H145.841ZM145.841 160.024V199.215H104.827V160.024H145.841ZM146.845 160.024H187.809V199.215H146.845V160.024ZM188.813 160.024H229.777V199.215H188.813V160.024ZM230.781 160.024H271.268V199.215H230.781V160.024ZM230.781 159.018V119.779H271.268V159.018H230.781ZM230.781 118.773V79.5328H271.268V118.773H230.781ZM230.781 78.5268V39.2875H271.268V78.5268H230.781ZM229.777 78.5268H188.813V39.2875H229.777V78.5268ZM187.809 78.5268H146.845V39.2875H187.809V78.5268ZM145.841 78.5268H104.827V39.2875H145.839L145.841 78.5268ZM103.825 78.5268H62.861V39.2875H103.825V78.5268ZM103.825 79.5328V118.773H62.861V79.5328H103.825ZM103.825 119.779V159.018H62.861V119.779H103.825ZM103.825 160.024V199.215H62.861V160.024H103.825ZM103.825 200.222V239.461H62.861V200.221L103.825 200.222ZM104.829 200.222H145.841V239.461H104.827L104.829 200.222ZM146.845 200.222H187.809V239.461H146.845V200.222ZM188.813 200.222H229.777V239.461H188.813V200.222ZM230.781 200.222H271.268V239.461H230.781V200.222ZM272.272 200.222H312.758V239.461H272.272V200.222ZM272.272 199.215V160.024H312.758V199.215H272.272ZM272.272 159.018V119.779H312.758V159.018H272.272ZM272.272 118.773V79.5328H312.758V118.773H272.272ZM272.272 78.5268V39.2875H312.758V78.5268H272.272ZM271.268 1.10208V38.2824H230.781V1.10208H271.268ZM229.777 1.10208V38.2824H188.813V1.10208H229.777ZM187.809 1.10208V38.2824H146.845V1.10208H187.809ZM145.841 1.10208V38.2824H104.827V1.10208H145.841ZM103.825 1.10208V38.2824H62.861V1.10208H103.825ZM25.0516 1.10208H61.8573V38.2824H25.0516V1.10208ZM25.0516 39.2875H61.8573V78.5268H25.0516V39.2875ZM25.0516 79.5328H61.8573V118.773H25.0516V79.5328ZM25.0516 119.779H61.8573V159.018H25.0516V119.779ZM25.0516 160.024H61.8573V199.215H25.0516V160.024ZM25.0516 200.222H61.8573V239.461H25.0516V200.222ZM25.0516 279.946V240.467H61.8573V279.946H25.0516ZM62.861 279.946V240.467H103.825V279.946H62.861ZM104.829 279.946V240.467H145.841V279.946H104.829ZM146.845 279.946V240.467H187.809V279.946H146.845ZM188.813 279.946V240.467H229.777V279.946H188.813ZM230.781 279.946V240.467H271.268V279.946H230.781ZM272.272 279.946V240.467H312.758V279.946H272.272ZM352.959 279.946H313.761V240.467H352.957L352.959 279.946ZM352.959 239.461H313.761V200.221H352.957L352.959 239.461ZM352.959 199.216H313.761V160.024H352.957L352.959 199.216ZM352.959 159.018H313.761V119.779H352.957L352.959 159.018ZM352.959 118.773H313.761V79.5328H352.957L352.959 118.773ZM352.959 78.5272H313.761V39.2875H352.957L352.959 78.5272Z" fill="#E7F1FF"/>
<path d="M79.463 161.591L79.395 162.107L78.9334 162.347L27.1548 189.306L48.7419 230.71L111.779 197.886C115.114 196.15 117.979 193.634 120.132 190.555C122.285 187.475 123.662 183.921 124.147 180.195L124.147 180.195L127.059 157.841L126.973 157.778L127.04 157.201L131.049 122.915C129.784 124.284 128.077 125.969 125.915 127.769C122.507 130.605 118.537 133.814 114.587 135.963C110.678 138.091 106.51 139.334 102.849 137.775L102.849 137.775C98.6477 135.986 95.9981 132.126 94.1573 127.643C92.3146 123.156 91.2091 117.861 90.2126 112.98C89.2818 108.42 88.3766 104.123 87.704 100.966C87.4526 99.7856 87.2338 98.765 87.0583 97.9495C85.4675 100.362 84.4136 103.098 83.9794 105.972C83.4376 109.559 83.8815 113.225 85.2636 116.579L85.3653 116.826L85.3304 117.091L79.463 161.591ZM129.194 156.931L139.191 164.308L139.529 164.557L139.588 164.973L149.991 239.025C150.006 239.024 150.021 239.023 150.036 239.022C150.673 238.979 151.615 238.914 152.831 238.825C155.263 238.649 158.79 238.38 163.172 238.009C171.711 237.288 183.493 236.183 196.724 234.632C194.307 220.105 192.457 207.838 190.609 195.578L190.608 195.57C188.715 183.019 186.823 170.474 184.324 155.509C183.817 152.591 182.674 149.163 181.06 146.013C179.441 142.852 177.389 140.052 175.108 138.317L175.082 138.297L175.058 138.276L143.481 110.81L135.635 117.272L135.106 117.707L134.509 117.372C133.917 117.039 133.457 116.918 133.159 116.901C133.019 116.894 132.938 116.909 132.895 116.922C132.895 116.956 132.902 117.013 132.926 117.098C133.001 117.361 133.222 117.779 133.727 118.314L134.279 118.9L133.824 119.565L133.482 119.331C133.824 119.565 133.824 119.565 133.824 119.565L133.823 119.566L133.823 119.567L133.82 119.57L133.813 119.581L133.787 119.618C133.765 119.65 133.733 119.695 133.691 119.753C133.621 119.849 133.523 119.982 133.397 120.147C133.383 120.317 133.369 120.5 133.354 120.692C133.262 121.861 133.155 123.387 133.047 124.929L133.036 125.073C132.925 126.661 132.812 128.255 132.716 129.469C132.668 130.075 132.624 130.594 132.585 130.973C132.566 131.161 132.547 131.326 132.529 131.453C132.52 131.515 132.509 131.583 132.496 131.646C132.492 131.665 132.486 131.69 132.479 131.718L129.194 156.931ZM132.856 116.939C132.856 116.939 132.857 116.938 132.858 116.937C132.856 116.938 132.856 116.939 132.856 116.939ZM132.897 116.888C132.901 116.881 132.901 116.877 132.901 116.877C132.9 116.876 132.899 116.88 132.897 116.888Z" fill="white" stroke="#3C4043" stroke-width="2"/>
<path d="M140.223 164.63L140.223 164.63C140.231 164.692 140.226 164.755 140.209 164.816C140.192 164.876 140.163 164.933 140.124 164.982C140.085 165.031 140.037 165.072 139.982 165.103C139.927 165.134 139.867 165.153 139.805 165.161C139.805 165.161 139.804 165.161 139.804 165.161L140.223 164.63ZM140.223 164.63L139.289 156.762L139.289 156.762M140.223 164.63L139.289 156.762M139.747 165.498C139.548 165.498 139.356 165.425 139.208 165.293C139.059 165.161 138.965 164.979 138.941 164.782L139.747 165.498ZM139.747 165.498L139.747 165.164M139.747 165.498L139.747 165.164M139.289 156.762L139.288 156.759M139.289 156.762L139.288 156.759M139.288 156.759C139.281 156.697 139.262 156.636 139.232 156.581C139.201 156.526 139.16 156.477 139.11 156.438C139.061 156.398 139.004 156.369 138.943 156.352C138.882 156.335 138.819 156.33 138.756 156.337C138.693 156.345 138.633 156.364 138.578 156.395C138.522 156.426 138.474 156.468 138.435 156.518C138.396 156.567 138.368 156.624 138.351 156.685C138.334 156.746 138.33 156.81 138.338 156.872L138.338 156.875M139.288 156.759L138.338 156.875M138.338 156.875L139.273 164.742L139.273 164.742M138.338 156.875L139.273 164.742M139.273 164.742C139.286 164.858 139.342 164.965 139.43 165.043M139.273 164.742L139.43 165.043M139.43 165.043C139.517 165.121 139.63 165.164 139.747 165.164M139.43 165.043L139.747 165.164" fill="#222433" stroke="#3C4043" stroke-width="0.667626"/>
<path d="M78.5175 163.15C78.5919 163.208 78.6817 163.243 78.7754 163.25L78.814 163.25C78.8916 163.25 78.9681 163.231 79.0367 163.195L79.0373 163.195L86.5811 159.229C86.6898 159.169 86.7705 159.068 86.8061 158.949C86.8421 158.829 86.8295 158.7 86.771 158.589C86.7125 158.478 86.6128 158.395 86.4932 158.356C86.3745 158.319 86.2456 158.328 86.1341 158.384L78.5899 162.35L78.5896 162.35C78.4948 162.4 78.4195 162.48 78.3756 162.577C78.3318 162.675 78.3219 162.784 78.3476 162.888C78.3733 162.992 78.4331 163.084 78.5175 163.15Z" fill="#222433" stroke="#3C4043" stroke-width="0.667626"/>
<path d="M203.566 97.8196L203.566 97.8197L203.563 97.81L200.327 87.0304L195.463 79.4271C193.124 79.0468 190.724 79.3052 188.519 80.1761L188.51 80.1794L188.502 80.1822L171.509 85.874L171.438 85.8976L171.364 85.8891L152.386 83.7018L152.244 83.6853L152.158 83.5706L147.142 76.8915L147.142 76.8916L147.136 76.8821L138.776 64.9095C137.673 63.3316 136.239 62.0133 134.573 61.0467C132.907 60.08 131.05 59.4884 129.132 59.3131L129.132 59.3131C127.349 59.1491 124.624 59.0713 124.022 59.0789L124.014 59.0788L103.446 58.7999L90.8149 59.836C88.2681 60.363 85.8668 61.4381 83.7779 62.9865C81.6836 64.539 79.9539 66.5298 78.7098 68.8198C77.4657 71.1097 76.7371 73.6436 76.575 76.2442C76.4129 78.8449 76.8211 81.4495 77.7713 83.876L94.5259 126.671L94.536 126.697L94.5417 126.724C95.1657 129.686 96.7896 132.344 99.1414 134.252C101.407 136.089 104.214 137.124 107.125 137.199V137.192L107.459 137.193C110.454 137.195 113.361 136.179 115.701 134.311L115.701 134.311L144.53 111.326L144.734 111.164L144.941 111.323L152.189 116.898L152.196 116.904L152.203 116.91C154.026 118.48 156.243 119.522 158.616 119.924C160.987 120.327 163.424 120.074 165.663 119.194C165.663 119.194 165.664 119.194 165.664 119.193L198.597 105.8C201.899 104.081 203.114 102.058 203.527 100.504C203.735 99.7195 203.743 99.0407 203.699 98.5604C203.677 98.3204 203.642 98.1305 203.614 98.0028C203.6 97.939 203.587 97.8908 203.578 97.8597C203.574 97.8442 203.571 97.833 203.569 97.8262L203.566 97.8196Z" fill="#FFED96" stroke="#3C4043" stroke-width="0.667626"/>
<path d="M204.662 97.4806L201.412 86.655M204.662 97.4806C204.78 97.879 206.171 103.157 199.113 106.824C199.091 106.836 199.068 106.846 199.045 106.856L166.085 120.259M204.662 97.4806L204.343 97.5766L204.342 97.5758L90.7284 59.0291L103.396 57.9904L103.399 57.9901V57.99C103.412 57.9888 103.425 57.9884 103.438 57.9887L103.441 57.9888L124.004 58.2678L124.013 58.2679V58.2678C124.687 58.2585 127.435 58.3421 129.206 58.5051L129.206 58.5051C131.243 58.6895 133.214 59.3168 134.983 60.343C136.751 61.3691 138.273 62.7694 139.442 64.4455L139.443 64.4456L147.795 76.4078L147.801 76.4173L147.802 76.4172L152.599 82.8043L152.685 82.919L152.828 82.9354L171.278 85.0621L171.352 85.0706L171.423 85.047L188.225 79.4177L188.233 79.415L188.241 79.412C190.626 78.4763 193.223 78.2128 195.748 78.6501M204.662 97.4806L204.342 97.575L201.093 86.751L201.093 86.7508C201.08 86.7087 201.061 86.6686 201.038 86.6316L201.037 86.6311L196.069 78.8638L196.35 78.6839M201.412 86.655L166.085 120.259M201.412 86.655C201.391 86.583 201.359 86.5144 201.319 86.4512L196.35 78.6839M201.412 86.655L195.805 78.3212M166.085 120.259L165.959 119.95L165.961 119.95C165.962 119.949 165.962 119.949 165.963 119.949L166.085 120.259ZM196.35 78.6839L196.069 78.8638C196.033 78.8078 195.986 78.7599 195.931 78.7232C195.875 78.6864 195.813 78.6615 195.748 78.6501M196.35 78.6839C196.289 78.5889 196.209 78.5076 196.116 78.4452C196.022 78.3827 195.916 78.3405 195.805 78.3212M195.748 78.6501C195.748 78.6501 195.748 78.6501 195.748 78.6501L195.805 78.3212M195.748 78.6501L195.805 78.3212M195.805 78.3212C193.22 77.8735 190.561 78.1433 188.119 79.1012M195.805 78.3212L188.119 79.1012M188.119 79.1012L171.317 84.7305M188.119 79.1012L171.317 84.7305M171.317 84.7305L152.866 82.6038M171.317 84.7305L152.866 82.6038M152.866 82.6038L148.068 76.2167M152.866 82.6038L148.068 76.2167M148.068 76.2167L139.716 64.2545M148.068 76.2167L139.716 64.2545M139.716 64.2545C138.519 62.5384 136.961 61.1049 135.15 60.0543C133.34 59.0037 131.321 58.3615 129.237 58.1727M139.716 64.2545L129.237 58.1727M129.237 58.1727C127.454 58.0087 124.695 57.9245 124.008 57.934M129.237 58.1727L124.008 57.934M124.008 57.934L103.446 57.655L124.008 57.934ZM107.47 137.048H107.471C110.429 137.044 113.298 136.039 115.611 134.198L115.611 134.197L144.441 111.215C144.525 111.149 144.629 111.112 144.736 111.111C144.843 111.11 144.947 111.145 145.032 111.21L145.032 111.21L152.28 116.785L152.288 116.792L152.294 116.796C152.293 116.795 152.294 116.796 152.297 116.798L152.294 116.796L107.47 137.048ZM107.47 137.048L107.459 137.048M107.47 137.048L107.459 137.048M107.459 137.048L107.459 137.048M107.459 137.048L107.459 137.048M107.459 137.048C107.434 137.048 107.409 137.05 107.384 137.054L107.355 137.058M107.459 137.048L107.355 137.058M107.355 137.058L107.326 137.058M107.355 137.058L107.326 137.058M107.326 137.058C104.356 137.016 101.488 135.968 99.1911 134.085C96.8942 132.203 95.3043 129.597 94.6816 126.695L94.6814 126.694M107.326 137.058L94.6814 126.694M94.6814 126.694C94.6759 126.668 94.6683 126.643 94.6587 126.618C94.6587 126.618 94.6587 126.618 94.6587 126.618L77.9038 83.823C76.9629 81.4199 76.5578 78.8406 76.7166 76.265C76.8754 73.6894 77.5944 71.1794 78.8233 68.9099C80.0523 66.6404 81.7617 64.666 83.8324 63.1243C85.9031 61.5826 88.2854 60.5106 90.8131 59.9832L90.8334 59.9789M94.6814 126.694L90.8334 59.9789M90.8334 59.9789L90.854 59.9772M90.8334 59.9789L90.854 59.9772M90.854 59.9772L103.433 58.9456L103.449 58.9443M90.854 59.9772L103.449 58.9443M103.449 58.9443L103.465 58.9445M103.449 58.9443L103.465 58.9445M103.465 58.9445L124.001 59.2229C124.003 59.2229 124.004 59.2229 124.006 59.2229C124.584 59.2175 127.314 59.2907 129.116 59.4565C131.013 59.6283 132.851 60.2127 134.498 61.1689C136.146 62.1251 137.565 63.43 138.655 64.9919C138.655 64.992 138.655 64.992 138.655 64.992L147.015 76.9645L147.015 76.9644M103.465 58.9445L147.015 76.9644M147.015 76.9644L147.02 76.9707M147.015 76.9644L147.02 76.9707M147.02 76.9707L147.02 76.9714M147.02 76.9707L147.02 76.9714M147.02 76.9714L147.025 76.9778L147.026 76.9795L152.041 83.6569L152.042 83.657M147.02 76.9714L152.042 83.657M152.042 83.657C152.081 83.709 152.13 83.7525 152.186 83.7848C152.243 83.8172 152.305 83.8377 152.37 83.8452L171.347 86.0325L171.347 86.0325M152.042 83.657L171.347 86.0325M171.347 86.0325C171.417 86.0406 171.488 86.0332 171.555 86.0108L171.555 86.0107M171.347 86.0325L171.555 86.0107M171.555 86.0107L188.549 80.3187L188.549 80.3185M171.555 86.0107L188.549 80.3185M188.549 80.3185L188.563 80.314C188.566 80.3126 188.568 80.312 188.568 80.3121L188.572 80.3105M188.549 80.3185L188.572 80.3105M188.572 80.3105C190.684 79.4784 192.977 79.2114 195.225 79.5359L195.376 79.5577M188.572 80.3105L195.376 79.5577M195.376 79.5577L195.458 79.6864M195.376 79.5577L195.458 79.6864M195.458 79.6864L200.169 87.0502L200.194 87.0895M195.458 79.6864L200.194 87.0895M200.194 87.0895L200.208 87.1341M200.194 87.0895L200.208 87.1341M200.208 87.1341L203.425 97.8505L203.425 97.8514L203.43 97.8657C203.43 97.8662 203.43 97.8667 203.43 97.8672C203.471 97.9976 203.8 99.1359 203.339 100.655C202.872 102.191 201.611 104.063 198.551 105.662L198.536 105.67M200.208 87.1341L198.536 105.67M198.536 105.67L198.522 105.676M198.536 105.67L198.522 105.676M198.522 105.676L165.608 119.061L165.605 119.063M198.522 105.676L165.605 119.063M165.605 119.063C164.036 119.681 162.361 119.988 160.674 119.966L165.605 119.063ZM116.209 134.944L116.417 135.205L116.209 134.944L116.209 134.944ZM98.6674 134.89C101.118 136.868 104.159 137.967 107.306 138.014L90.7282 59.0291C90.7086 59.0307 90.6891 59.0335 90.6698 59.0373C88.0002 59.5868 85.4829 60.7122 83.2939 62.3349C81.1046 63.9578 79.2965 66.0389 77.9959 68.4327C76.6953 70.8266 75.9336 73.4754 75.7641 76.194C75.5946 78.9126 76.0213 81.6353 77.0145 84.172L93.745 126.906L93.7546 126.93L93.7602 126.956C94.4462 130.081 96.1769 132.879 98.6674 134.89ZM152.3 116.801L152.518 116.548L152.301 116.801L152.3 116.801Z" fill="#222433" stroke="#3C4043" stroke-width="0.667626"/>
<mask id="path-7-inside-1" fill="white">
<path d="M110.922 28.4229C110.706 26.5689 109.898 24.8337 108.617 23.4745C107.337 22.1154 105.653 21.2045 103.814 20.877C101.975 20.5494 100.079 20.8226 98.408 21.656C96.7367 22.4894 95.3785 23.8387 94.5347 25.504C93.6909 27.1693 93.4065 29.0619 93.7235 30.9013C94.0405 32.7408 94.9421 34.4293 96.2948 35.7166C97.6474 37.0038 99.3791 37.8214 101.233 38.0481C103.087 38.2748 104.965 37.8985 106.588 36.9751"/>
</mask>
<path d="M110.922 28.4229C110.706 26.5689 109.898 24.8337 108.617 23.4745C107.337 22.1154 105.653 21.2045 103.814 20.877C101.975 20.5494 100.079 20.8226 98.408 21.656C96.7367 22.4894 95.3785 23.8387 94.5347 25.504C93.6909 27.1693 93.4065 29.0619 93.7235 30.9013C94.0405 32.7408 94.9421 34.4293 96.2948 35.7166C97.6474 37.0038 99.3791 37.8214 101.233 38.0481C103.087 38.2748 104.965 37.8985 106.588 36.9751" fill="#FFF1ED"/>
<path d="M110.259 28.5002C110.059 26.7888 109.313 25.187 108.132 23.9323L109.103 23.0168C110.482 24.4804 111.352 26.349 111.585 28.3457L110.259 28.5002ZM108.132 23.9323C106.95 22.6776 105.395 21.8367 103.697 21.5343L103.931 20.2197C105.911 20.5724 107.725 21.5532 109.103 23.0168L108.132 23.9323ZM103.697 21.5343C101.999 21.2318 100.249 21.4841 98.706 22.2535L98.1101 21.0585C99.9098 20.1611 101.951 19.867 103.931 20.2197L103.697 21.5343ZM98.706 22.2535C97.1629 23.0229 95.9091 24.2685 95.1302 25.8058L93.9391 25.2022C94.8478 23.4089 96.3104 21.956 98.1101 21.0585L98.706 22.2535ZM95.1302 25.8058C94.3513 27.343 94.0888 29.09 94.3814 30.788L93.0656 31.0147C92.7241 29.0338 93.0305 26.9956 93.9391 25.2022L95.1302 25.8058ZM94.3814 30.788C94.674 32.4859 95.5063 34.0446 96.755 35.2329L95.8345 36.2002C94.378 34.814 93.407 32.9957 93.0656 31.0147L94.3814 30.788ZM96.755 35.2329C98.0037 36.4213 99.6024 37.1761 101.314 37.3854L101.152 38.7108C99.1558 38.4667 97.2911 37.5864 95.8345 36.2002L96.755 35.2329ZM101.314 37.3854C103.026 37.5947 104.76 37.2473 106.258 36.3948L106.919 37.5554C105.171 38.5497 103.149 38.9548 101.152 38.7108L101.314 37.3854Z" fill="#3C4043" mask="url(#path-7-inside-1)"/>
<path d="M144.74 112.065C144.74 112.065 144.74 112.065 144.74 112.065C144.838 112.065 144.935 112.034 145.015 111.977L145.016 111.977L151.516 107.367L151.516 107.367L151.522 107.363C151.522 107.363 151.522 107.363 151.522 107.363C151.522 107.363 151.523 107.363 151.524 107.361L151.533 107.355C153.234 106.032 154.607 104.334 155.544 102.394C156.481 100.454 156.957 98.323 156.935 96.1683C156.934 96.1057 156.921 96.0438 156.896 95.9862C156.871 95.9285 156.835 95.8763 156.79 95.8324C156.745 95.7886 156.692 95.754 156.634 95.7307C156.575 95.7074 156.513 95.6958 156.45 95.6966C156.387 95.6975 156.325 95.7106 156.267 95.7354C156.209 95.7602 156.157 95.7961 156.113 95.8411C156.069 95.8861 156.035 95.9392 156.011 95.9975C155.988 96.0558 155.977 96.1181 155.977 96.1809L155.977 96.1817C155.998 98.1852 155.556 100.166 154.686 101.971C153.816 103.776 152.541 105.357 150.96 106.589L150.954 106.593L150.948 106.598L144.462 111.197L144.462 111.197C144.379 111.256 144.317 111.339 144.285 111.436C144.253 111.532 144.252 111.636 144.283 111.732C144.314 111.829 144.375 111.913 144.457 111.973C144.539 112.033 144.638 112.065 144.739 112.065C144.739 112.065 144.739 112.065 144.739 112.065C144.739 112.065 144.74 112.065 144.74 112.065Z" fill="#222433" stroke="#3C4043" stroke-width="0.667626"/>
<path d="M116.192 100.215H116.192C116.301 100.215 116.406 100.178 116.491 100.111L134.642 85.6446C136.256 84.3572 138.193 83.5398 140.241 83.2822L140.241 83.2822L140.243 83.282C140.306 83.2745 140.366 83.2546 140.421 83.2236C140.476 83.1926 140.524 83.1511 140.563 83.1014C140.602 83.0518 140.63 82.995 140.647 82.9343C140.664 82.8736 140.668 82.8102 140.66 82.7478C140.653 82.6853 140.632 82.625 140.601 82.5703C140.57 82.5157 140.528 82.4677 140.478 82.4292C140.428 82.3906 140.371 82.3623 140.31 82.3459C140.25 82.3294 140.186 82.3252 140.123 82.3333L140.122 82.3335C137.899 82.6131 135.796 83.5002 134.045 84.8971L134.045 84.8972L116.924 98.542L116.501 98.8794L116.389 98.3497L112.768 81.1336L112.768 81.1336L112.767 81.1293C112.755 81.0672 112.731 81.0082 112.695 80.9556C112.66 80.903 112.615 80.8579 112.562 80.8229C112.509 80.788 112.45 80.7639 112.387 80.752C112.325 80.7401 112.261 80.7407 112.199 80.7537C112.137 80.7668 112.078 80.792 112.026 80.8279C111.974 80.8639 111.929 80.9098 111.895 80.9631C111.861 81.0163 111.837 81.0758 111.826 81.1381L111.498 81.0798L111.826 81.1381C111.815 81.2004 111.817 81.2643 111.83 81.3261L111.831 81.326L111.831 81.3304L115.724 99.8356L115.724 99.8359C115.746 99.9431 115.805 100.039 115.89 100.108C115.975 100.178 116.082 100.215 116.192 100.215Z" fill="#222433" stroke="#3C4043" stroke-width="0.667626"/>
<mask id="path-11-inside-2" fill="white">
<path d="M200.742 85.3469C204.615 83.781 206.95 79.6153 210.452 76.2962C215.302 71.7099 218.003 68.3088 217.653 66.7391C216.863 63.1301 210.043 70.2252 201.988 74.1673L201.867 74.2198C201.296 74.4643 200.743 74.7478 200.211 75.0683C197.53 76.6443 194.965 78.4113 192.537 80.3555C186.918 84.9563 192.082 94.9792 196.984 97.1765C198.818 97.9856 200.855 98.2154 202.823 97.8352C204.792 97.4549 206.597 96.4827 207.996 95.0487C211.668 91.2479 213.049 87.3442 221.155 88.2595C224.814 88.673 230.222 89.8798 230.476 86.2524C230.651 83.7376 224.375 82.051 219.793 80.6372C226.593 79.5909 235.496 78.2074 235.224 74.9665C234.952 71.7256 228.391 72.1042 219.588 73.5305C228.98 70.1951 234.375 69.7943 233.762 66.7117C233.124 63.5063 225.082 64.5667 217.656 66.7523"/>
</mask>
<path d="M200.742 85.3469C204.615 83.781 206.95 79.6153 210.452 76.2962C215.302 71.7099 218.003 68.3088 217.653 66.7391C216.863 63.1301 210.043 70.2252 201.988 74.1673L201.867 74.2198C201.296 74.4643 200.743 74.7478 200.211 75.0683C197.53 76.6443 194.965 78.4113 192.537 80.3555C186.918 84.9563 192.082 94.9792 196.984 97.1765C198.818 97.9856 200.855 98.2154 202.823 97.8352C204.792 97.4549 206.597 96.4827 207.996 95.0487C211.668 91.2479 213.049 87.3442 221.155 88.2595C224.814 88.673 230.222 89.8798 230.476 86.2524C230.651 83.7376 224.375 82.051 219.793 80.6372C226.593 79.5909 235.496 78.2074 235.224 74.9665C234.952 71.7256 228.391 72.1042 219.588 73.5305C228.98 70.1951 234.375 69.7943 233.762 66.7117C233.124 63.5063 225.082 64.5667 217.656 66.7523" fill="#FFF1ED"/>
<path d="M210.452 76.2962L209.992 75.8116L209.993 75.8111L210.452 76.2962ZM217.653 66.7391L217.001 66.8843L217.001 66.8819L217.653 66.7391ZM201.988 74.1673L202.282 74.767L202.268 74.7739L202.253 74.7802L201.988 74.1673ZM201.867 74.2198L202.131 74.8328L202.13 74.8335L201.867 74.2198ZM200.211 75.0683L200.556 75.6401L200.55 75.6439L200.211 75.0683ZM192.537 80.3555L192.114 79.8389L192.12 79.8344L192.537 80.3555ZM196.984 97.1765L196.714 97.7873L196.711 97.7857L196.984 97.1765ZM207.996 95.0487L208.477 95.5126L208.474 95.5151L207.996 95.0487ZM221.155 88.2595L221.23 87.5961L221.23 87.5961L221.155 88.2595ZM230.476 86.2524L231.142 86.2988L231.142 86.2989L230.476 86.2524ZM219.793 80.6372L219.597 81.2752L219.692 79.9774L219.793 80.6372ZM219.588 73.5305L219.694 74.1895L219.364 72.9014L219.588 73.5305ZM233.762 66.7117L234.416 66.5814L234.416 66.5814L233.762 66.7117ZM200.492 84.7279C202.284 84.0033 203.753 82.6642 205.243 81.0293C206.699 79.4312 208.222 77.4902 209.992 75.8116L210.911 76.7807C209.18 78.4212 207.784 80.2226 206.23 81.9287C204.708 83.5978 203.073 85.1245 200.992 85.9658L200.492 84.7279ZM209.993 75.8111C212.408 73.5272 214.266 71.5589 215.472 69.9811C216.076 69.191 216.5 68.5198 216.75 67.9718C217.009 67.4057 217.041 67.0632 217.001 66.8843L218.305 66.5938C218.44 67.1998 218.265 67.8711 217.964 68.5275C217.656 69.202 217.167 69.9621 216.533 70.7918C215.263 72.4535 213.345 74.4788 210.91 76.7813L209.993 75.8111ZM217.001 66.8819C216.928 66.5482 216.819 66.4752 216.777 66.4534C216.709 66.4182 216.537 66.3778 216.167 66.4705C215.414 66.6587 214.326 67.2657 212.907 68.1823C210.147 69.965 206.356 72.7728 202.282 74.767L201.695 73.5677C205.675 71.6197 209.321 68.9089 212.182 67.0607C213.574 66.1619 214.842 65.4255 215.843 65.1752C216.348 65.0487 216.902 65.0152 217.39 65.2674C217.904 65.533 218.181 66.0278 218.305 66.5963L217.001 66.8819ZM202.253 74.7802L202.131 74.8328L201.602 73.6069L201.724 73.5544L202.253 74.7802ZM202.13 74.8335C201.587 75.0659 201.061 75.3354 200.556 75.6401L199.867 74.4965C200.425 74.1602 201.005 73.8627 201.604 73.6061L202.13 74.8335ZM200.55 75.6439C197.896 77.2037 195.357 78.9524 192.955 80.8766L192.12 79.8344C194.573 77.8702 197.164 76.085 199.873 74.4927L200.55 75.6439ZM192.96 80.872C190.468 82.9125 190.286 86.2076 191.444 89.4423C192.604 92.6836 195.02 95.5645 197.257 96.5673L196.711 97.7857C194.046 96.5912 191.429 93.362 190.186 89.8923C188.942 86.416 188.987 82.3993 192.114 79.8389L192.96 80.872ZM197.253 96.5657C198.963 97.3199 200.862 97.5341 202.697 97.1797L202.95 98.4907C200.848 98.8967 198.673 98.6513 196.714 97.7873L197.253 96.5657ZM202.697 97.1797C204.531 96.8252 206.214 95.9189 207.519 94.5824L208.474 95.5151C206.979 97.0464 205.052 98.0846 202.95 98.4907L202.697 97.1797ZM207.516 94.5849C208.418 93.6508 209.165 92.7265 209.958 91.817C210.738 90.9221 211.547 90.061 212.517 89.3477C214.5 87.8896 217.051 87.1242 221.23 87.5961L221.08 88.9229C217.153 88.4795 214.96 89.2083 213.308 90.4234C212.46 91.0468 211.729 91.817 210.965 92.6944C210.212 93.5573 209.41 94.5462 208.477 95.5126L207.516 94.5849ZM221.23 87.5961C223.131 87.811 225.289 88.2007 227.056 88.1047C227.931 88.0571 228.607 87.8915 229.063 87.595C229.477 87.3251 229.76 86.916 229.81 86.2059L231.142 86.2989C231.065 87.4025 230.576 88.2028 229.791 88.714C229.047 89.1985 228.094 89.3855 227.129 89.4379C225.213 89.542 222.838 89.1215 221.08 88.9229L221.23 87.5961ZM229.81 86.206C229.832 85.8906 229.663 85.5015 229.095 85.0241C228.535 84.5529 227.694 84.0927 226.654 83.6452C224.577 82.7508 221.913 81.99 219.597 81.2752L219.99 79.9993C222.255 80.6982 225.02 81.4876 227.182 82.4188C228.263 82.8839 229.244 83.4053 229.954 84.0018C230.657 84.5921 231.207 85.3569 231.142 86.2988L229.81 86.206ZM219.692 79.9774C223.104 79.4523 226.983 78.8509 229.975 77.9836C231.475 77.5486 232.697 77.0617 233.514 76.5172C234.341 75.9655 234.596 75.469 234.559 75.0223L235.889 74.9107C235.988 76.0845 235.232 76.9762 234.254 77.6282C233.266 78.2872 231.888 78.8193 230.347 79.2661C227.255 80.1623 223.283 80.7758 219.895 81.2971L219.692 79.9774ZM234.559 75.0223C234.514 74.4912 234.234 74.0877 233.604 73.7707C232.938 73.4354 231.928 73.2297 230.574 73.1652C227.876 73.0367 224.096 73.4764 219.694 74.1895L219.481 72.8715C223.883 72.1583 227.785 71.6956 230.637 71.8314C232.057 71.8991 233.289 72.1173 234.204 72.5779C235.156 73.0568 235.798 73.8214 235.889 74.9107L234.559 75.0223ZM219.364 72.9014C221.727 72.0623 223.837 71.4083 225.656 70.8529C227.484 70.2949 228.995 69.8428 230.196 69.4C231.411 68.9517 232.211 68.545 232.673 68.1182C232.894 67.9145 233.019 67.7226 233.082 67.5364C233.146 67.3524 233.164 67.1306 233.107 66.8421L234.416 66.5814C234.512 67.0635 234.497 67.5286 234.345 67.9696C234.195 68.4083 233.925 68.7795 233.58 69.099C232.909 69.7185 231.889 70.1986 230.658 70.6527C229.412 71.1123 227.852 71.5785 226.046 72.13C224.231 72.6841 222.144 73.331 219.811 74.1596L219.364 72.9014ZM233.107 66.8421C233.013 66.3686 232.648 65.9691 231.811 65.6923C230.965 65.4127 229.763 65.3099 228.285 65.3773C225.343 65.5114 221.534 66.3069 217.845 67.3928L217.468 66.1119C221.205 65.0121 225.13 64.1845 228.224 64.0434C229.765 63.9732 231.157 64.0698 232.23 64.4245C233.312 64.7822 234.192 65.4521 234.416 66.5814L233.107 66.8421Z" fill="#3C4043" mask="url(#path-11-inside-2)"/>
<path d="M219.662 74.0017C222.233 73.5854 225.298 73.143 227.975 73.0015C229.313 72.9308 230.564 72.9346 231.614 73.0574C232.649 73.1785 233.541 73.4204 234.116 73.8675C234.298 74 234.448 74.1706 234.557 74.3673C234.666 74.5649 234.73 74.7841 234.745 75.0092C234.773 75.3506 234.647 75.6706 234.428 75.9567C234.211 76.2408 233.891 76.5068 233.493 76.7568C232.696 77.2571 231.522 77.7323 230.025 78.1664L230.025 78.1664C226.989 79.0466 222.953 79.6678 219.732 80.1636L219.718 80.1657C219.718 80.1657 219.718 80.1657 219.718 80.1657C219.611 80.1822 219.513 80.2345 219.439 80.314C219.366 80.3934 219.322 80.4954 219.314 80.6032C219.306 80.7109 219.335 80.8182 219.396 80.9076C219.457 80.9969 219.546 81.0629 219.65 81.0949C220.016 81.2081 220.393 81.3229 220.778 81.4398L220.778 81.4399L220.787 81.4427C222.484 81.959 224.771 82.6549 226.621 83.4327C227.545 83.8216 228.381 84.2389 228.983 84.6749C229.283 84.8929 229.54 85.1257 229.72 85.3744C229.898 85.6213 230.014 85.9029 229.996 86.2086C229.995 86.4759 229.936 86.7399 229.825 86.9829C229.712 87.2294 229.547 87.4484 229.341 87.625L229.341 87.6251L229.335 87.6303C228.983 87.9177 228.519 88.0879 228.013 88.1866C227.503 88.2858 226.926 88.3175 226.323 88.3092C225.122 88.2925 223.775 88.1153 222.596 87.9603L222.588 87.9593C222.108 87.8961 221.644 87.8354 221.206 87.786L221.205 87.7858C220.458 87.6984 219.707 87.653 218.955 87.6498C216.338 87.6499 214.526 88.265 213.096 89.1888C211.653 90.12 210.58 91.3748 209.444 92.7064L209.444 92.7065L219.715 74.3313M219.662 74.0017L219.715 74.3313M219.662 74.0017C219.662 74.0017 219.662 74.0017 219.662 74.0017L219.715 74.3313M219.662 74.0017C219.544 74.0207 219.423 73.995 219.323 73.9296C219.223 73.8642 219.152 73.7639 219.122 73.6484C219.092 73.5329 219.107 73.4105 219.163 73.3052L218.868 73.1484M219.715 74.3313C219.515 74.3635 219.31 74.3199 219.141 74.2089C218.971 74.0979 218.849 73.9276 218.799 73.7314C218.748 73.5351 218.773 73.3272 218.868 73.1484M218.868 73.1484L219.163 73.3052C219.219 73.2 219.312 73.1194 219.425 73.0794M218.868 73.1484L219.425 73.0794M219.425 73.0794C222.022 72.1571 224.269 71.4722 226.257 70.8665M219.425 73.0794L226.257 70.8665M202.056 74.6599C201.506 74.8954 200.973 75.1682 200.461 75.4763C200.46 75.4766 200.46 75.4768 200.459 75.4771L200.631 75.7632L202.056 74.6599ZM202.056 74.6599L202.177 74.6079L202.179 74.6069C202.184 74.6049 202.19 74.6021 202.2 74.5974C205.25 73.1043 208.057 71.2096 210.552 69.5247C211.711 68.7416 213.024 67.8547 214.142 67.2014C214.7 66.8753 215.221 66.6007 215.656 66.426C215.873 66.3388 216.08 66.2721 216.265 66.2386C216.444 66.2065 216.644 66.1971 216.823 66.2685C216.914 66.3045 216.972 66.3664 217.005 66.4071C217.04 66.4516 217.067 66.4996 217.087 66.5433C217.129 66.6309 217.161 66.7346 217.184 66.8421M202.056 74.6599L217.184 66.8416C217.184 66.8418 217.184 66.8419 217.184 66.8421M217.184 66.8421C217.249 67.1343 217.195 67.7742 216.311 69.1207C215.418 70.4823 213.639 72.6238 210.124 75.9476C208.981 77.0639 207.896 78.2367 206.871 79.4616L206.871 79.4616M217.184 66.8421L206.871 79.4616M206.871 79.4616L206.868 79.4656M206.871 79.4616L206.868 79.4656M206.868 79.4656L206.834 79.5042C204.915 81.7262 203.032 83.905 200.56 84.9047L200.56 84.9047M206.868 79.4656L200.56 84.9047M200.56 84.9047L200.556 84.9066M200.56 84.9047L200.556 84.9066M200.556 84.9066C200.496 84.9295 200.442 84.9639 200.397 85.0079C200.351 85.0518 200.314 85.1044 200.289 85.1626C200.264 85.2208 200.251 85.2833 200.25 85.3467C200.249 85.4101 200.261 85.473 200.285 85.5317C200.309 85.5904 200.344 85.6439 200.388 85.6889L200.151 85.924M200.556 84.9066L200.151 85.924M200.151 85.924L200.388 85.6889C200.433 85.7339 200.486 85.7696 200.545 85.794C200.604 85.8183 200.667 85.8307 200.73 85.8305C200.794 85.8303 200.856 85.8174 200.915 85.7927L200.915 85.7927M200.151 85.924L200.915 85.7927M200.915 85.7927L200.92 85.7908M200.915 85.7927L200.92 85.7908M200.92 85.7908C203.593 84.7099 205.504 82.5077 207.593 80.0904L207.595 80.0883C208.587 78.9396 209.625 77.7371 210.779 76.6436L210.779 76.6433M200.92 85.7908L210.779 76.6433M210.779 76.6433C213.703 73.8792 215.512 71.8716 216.609 70.3844C217.709 68.8934 218.073 67.9524 218.148 67.3186L218.175 67.0979M210.779 76.6433L218.175 67.0979M218.175 67.0979L218.388 67.0369M218.175 67.0979L218.388 67.0369M218.388 67.0369C221.71 66.0903 224.738 65.4892 227.176 65.2668C228.395 65.1557 229.474 65.1384 230.373 65.2225C231.258 65.3054 231.999 65.4893 232.525 65.8038C232.716 65.9014 232.884 66.0401 233.015 66.21C233.15 66.3837 233.243 66.5854 233.289 66.8002L233.289 66.8002M218.388 67.0369L233.289 66.8002M233.289 66.8002L233.29 66.8042M233.289 66.8002L233.29 66.8042M233.29 66.8042C233.382 67.2678 233.273 67.6855 232.974 68.0554C232.689 68.4074 232.239 68.7069 231.664 68.9893C230.513 69.5543 228.71 70.1191 226.257 70.8665L226.257 70.8665M233.29 66.8042L226.257 70.8665M234.084 68.1587C234.291 67.734 234.354 67.2369 234.231 66.6189C234.159 66.2799 234.017 65.96 233.812 65.6804C233.607 65.4004 233.344 65.1673 233.042 64.9968L233.042 64.9969L233.033 64.9917C232.303 64.5503 231.271 64.3117 230.04 64.2351C228.814 64.1589 227.422 64.245 225.995 64.427C223.142 64.7909 220.189 65.5334 218.223 66.09L217.98 66.1587L217.848 65.9438C217.691 65.6894 217.457 65.4919 217.18 65.3804C216.554 65.1304 215.699 65.3063 214.476 65.9251C213.27 66.5356 211.808 67.522 210.016 68.7318C207.574 70.3808 204.786 72.2641 201.795 73.73L201.787 73.7338L201.78 73.7371L201.676 73.7815L201.676 73.7815C201.085 74.0349 200.513 74.3285 199.962 74.6602L199.959 74.662C197.259 76.2498 194.676 78.0295 192.232 79.9874C190.186 81.6641 189.3 84.1312 189.705 87.1731L189.374 87.2172L189.705 87.1731C189.988 89.2941 190.926 91.5366 192.22 93.4394C193.516 95.3452 195.146 96.8778 196.787 97.6132C198.098 98.1961 199.517 98.4979 200.952 98.4992C202.327 98.4943 203.688 98.2168 204.955 97.6828C206.222 97.1489 207.37 96.3693 208.333 95.389C208.994 94.7054 209.568 94.0339 210.128 93.3779L210.172 93.3264L210.172 93.3262L210.194 93.3012C211.46 91.8175 212.6 90.4809 214.218 89.6199C215.858 88.7472 217.949 88.3795 221.101 88.7348L221.063 89.0665L221.101 88.7348C221.536 88.7839 221.995 88.8438 222.465 88.906C223.881 89.092 225.36 89.2856 226.697 89.2624C228.04 89.2392 229.173 88.997 229.941 88.3702C230.247 88.1161 230.494 87.8002 230.669 87.4435C230.843 87.0863 230.939 86.6963 230.952 86.2991L230.952 86.2991L230.953 86.2863C231.027 85.2244 230.274 84.3038 228.829 83.4466C227.399 82.5987 225.409 81.8849 223.267 81.2057L223.312 80.5583C227.096 79.9204 230.296 79.2379 232.511 78.3211C233.619 77.8627 234.453 77.3567 234.991 76.7914C235.519 76.2362 235.759 75.6273 235.7 74.9256L235.7 74.9214C235.675 74.5685 235.574 74.2252 235.405 73.9146C235.235 73.604 235.001 73.3335 234.718 73.1213L234.718 73.1214L234.712 73.1172C233.593 72.2434 231.529 71.8514 227.919 72.0459L227.802 71.3936C230.085 70.6881 231.835 70.0885 232.951 69.3447C233.502 68.9771 233.875 68.5892 234.084 68.1587Z" fill="#222433" stroke="#3C4043" stroke-width="0.667626"/>
<mask id="path-14-inside-3" fill="white">
<path d="M103.629 60.1325C103.624 62.7718 104.659 65.307 106.511 67.1891C108.362 69.0713 110.881 70.1491 113.522 70.1891C116.163 70.2291 118.713 69.2282 120.621 67.403C122.529 65.5778 123.641 63.0752 123.715 60.437V60.4243L123.754 59.0013L123.908 53.4212C126.508 52.7182 128.886 51.3662 130.819 49.4922C132.752 47.6183 134.176 45.284 134.958 42.7087C135.74 40.1334 135.853 37.4018 135.288 34.7705C134.723 32.1393 133.498 29.6948 131.727 27.667C132.206 26.4884 132.541 25.2564 132.724 23.9976V23.9925C133.199 20.8658 132.725 17.6684 131.362 14.814L122.681 13.5477L111.306 15.167L108.866 21.9329L105.075 19.4958"/>
</mask>
<path d="M103.629 60.1325C103.624 62.7718 104.659 65.307 106.511 67.1891C108.362 69.0713 110.881 70.1491 113.522 70.1891C116.163 70.2291 118.713 69.2282 120.621 67.403C122.529 65.5778 123.641 63.0752 123.715 60.437V60.4243L123.754 59.0013L123.908 53.4212C126.508 52.7182 128.886 51.3662 130.819 49.4922C132.752 47.6183 134.176 45.284 134.958 42.7087C135.74 40.1334 135.853 37.4018 135.288 34.7705C134.723 32.1393 133.498 29.6948 131.727 27.667C132.206 26.4884 132.541 25.2564 132.724 23.9976V23.9925C133.199 20.8658 132.725 17.6684 131.362 14.814L122.681 13.5477L111.306 15.167L108.866 21.9329L105.075 19.4958" fill="#FFF1ED"/>
<path d="M123.715 60.437H124.383V60.4465L124.383 60.456L123.715 60.437ZM123.715 60.4243H123.048V60.4152L123.048 60.4061L123.715 60.4243ZM123.754 59.0013L123.087 58.9831L123.087 58.9828L123.754 59.0013ZM123.908 53.4212L123.241 53.4028L123.255 52.9064L123.734 52.7768L123.908 53.4212ZM131.727 27.667L131.224 28.1061L130.954 27.7965L131.109 27.4158L131.727 27.667ZM132.724 23.9976H133.391V24.046L133.384 24.0938L132.724 23.9976ZM132.724 23.9925H132.056V23.942L132.064 23.8921L132.724 23.9925ZM131.362 14.814L131.458 14.1534L131.811 14.2048L131.964 14.5264L131.362 14.814ZM122.681 13.5477L122.587 12.8868L122.683 12.8732L122.778 12.8871L122.681 13.5477ZM111.306 15.167L110.678 14.9405L110.815 14.5626L111.212 14.506L111.306 15.167ZM108.866 21.9329L109.494 22.1594L109.21 22.9475L108.505 22.4946L108.866 21.9329ZM104.297 60.1339C104.292 62.5974 105.258 64.9639 106.987 66.7209L106.035 67.6573C104.06 65.65 102.956 62.9462 102.961 60.1312L104.297 60.1339ZM106.987 66.7209C108.715 68.478 111.067 69.4842 113.532 69.5215L113.512 70.8566C110.696 70.814 108.009 69.6646 106.035 67.6573L106.987 66.7209ZM113.532 69.5215C115.998 69.5589 118.379 68.6245 120.16 66.9206L121.083 67.8854C119.048 69.832 116.328 70.8993 113.512 70.8566L113.532 69.5215ZM120.16 66.9206C121.94 65.2168 122.978 62.8807 123.048 60.4181L124.383 60.456C124.303 63.2698 123.117 65.9389 121.083 67.8854L120.16 66.9206ZM123.048 60.437V60.4243H124.383V60.437H123.048ZM123.048 60.4061L123.087 58.9831L124.422 59.0194L124.383 60.4425L123.048 60.4061ZM123.087 58.9828L123.241 53.4028L124.576 53.4397L124.422 59.0197L123.087 58.9828ZM123.734 52.7768C126.224 52.1033 128.502 50.8081 130.354 49.0129L131.284 49.9716C129.269 51.9243 126.791 53.3332 124.083 54.0657L123.734 52.7768ZM130.354 49.0129C132.206 47.2178 133.57 44.9816 134.319 42.5148L135.597 42.9027C134.782 45.5863 133.298 48.0188 131.284 49.9716L130.354 49.0129ZM134.319 42.5148C135.068 40.0479 135.177 37.4312 134.636 34.9107L135.941 34.6304C136.53 37.3724 136.412 40.219 135.597 42.9027L134.319 42.5148ZM134.636 34.9107C134.094 32.3902 132.92 30.0486 131.224 28.1061L132.23 27.2279C134.075 29.341 135.352 31.8883 135.941 34.6304L134.636 34.9107ZM131.109 27.4158C131.567 26.287 131.888 25.107 132.063 23.9015L133.384 24.0938C133.193 25.4057 132.845 26.6898 132.346 27.9182L131.109 27.4158ZM132.056 23.9976V23.9925H133.391V23.9976H132.056ZM132.064 23.8921C132.519 20.8976 132.065 17.8354 130.76 15.1017L131.964 14.5264C133.385 17.5013 133.88 20.834 133.384 24.0929L132.064 23.8921ZM131.266 15.4747L122.585 14.2084L122.778 12.8871L131.458 14.1534L131.266 15.4747ZM122.776 14.2087L111.401 15.8279L111.212 14.506L122.587 12.8868L122.776 14.2087ZM111.934 15.3935L109.494 22.1594L108.238 21.7064L110.678 14.9405L111.934 15.3935ZM108.505 22.4946L104.714 20.0575L105.436 18.9342L109.227 21.3713L108.505 22.4946Z" fill="#3C4043" mask="url(#path-14-inside-3)"/>
<path d="M124.378 53.7886L124.371 54.0275L124.194 60.451C124.116 63.1839 122.975 65.7788 121.014 67.6851C119.052 69.5914 116.425 70.6589 113.688 70.6611C113.586 70.6611 113.483 70.6598 113.378 70.6582C110.632 70.5976 108.02 69.46 106.106 67.4911C104.192 65.522 103.131 62.8795 103.151 60.1347L103.151 60.1329C103.151 60.0063 103.201 59.8849 103.291 59.7954C103.381 59.7059 103.502 59.6555 103.629 59.6555C103.756 59.6555 103.878 59.706 103.968 59.7957C104.058 59.8853 104.108 60.0069 104.108 60.1337H104.442M124.378 53.7886L131.256 27.7456C131.27 27.8328 131.309 27.9143 131.367 27.9809C133.084 29.9477 134.273 32.3185 134.821 34.8705C135.369 37.4225 135.259 40.0719 134.5 42.5697C133.742 45.0674 132.361 47.3314 130.486 49.149C128.611 50.9665 126.305 52.2778 123.784 52.9597L123.784 52.9598C123.685 52.9866 123.596 53.0447 123.533 53.1255C123.469 53.2063 123.433 53.3053 123.43 53.408C123.43 53.408 123.43 53.408 123.43 53.4081L123.238 60.4113L122.904 60.4021L123.238 60.4113C123.168 62.9243 122.111 65.3088 120.295 67.0486C118.479 68.7883 116.051 69.7432 113.535 69.7066C111.02 69.6701 108.62 68.6449 106.856 66.8531C105.091 65.0613 104.104 62.6471 104.108 60.1331L104.442 60.1337M124.378 53.7886L124.606 53.7178C127.168 52.9237 129.496 51.5121 131.384 49.6075C133.272 47.7028 134.662 45.3634 135.432 42.7954C136.203 40.2275 136.329 37.5096 135.801 34.8813C135.272 32.253 134.105 29.7949 132.402 27.7233L132.281 27.5753L132.347 27.3956C133.109 25.3344 133.453 23.1421 133.358 20.9467C133.264 18.7516 132.732 16.5974 131.795 14.6098C131.761 14.5391 131.71 14.4779 131.647 14.4314C131.584 14.3847 131.51 14.3544 131.432 14.343L131.432 14.343L122.752 13.0765C122.752 13.0765 122.752 13.0765 122.752 13.0765C122.707 13.07 122.661 13.07 122.616 13.0765L122.615 13.0766L111.24 14.6958L111.24 14.6958C111.154 14.7081 111.073 14.7436 111.005 14.7984C110.938 14.8533 110.886 14.9254 110.857 15.0072L110.857 15.0072L108.763 20.8129L108.62 21.207L108.268 20.9804L105.335 19.0949L105.334 19.0938C105.281 19.0593 105.222 19.0357 105.16 19.0242C105.098 19.0126 105.034 19.0135 104.972 19.0267C104.91 19.0399 104.852 19.0652 104.8 19.101L104.662 18.9008L104.8 19.101C104.748 19.1369 104.704 19.1827 104.67 19.2357C104.635 19.2887 104.612 19.3479 104.601 19.4099C104.59 19.4719 104.591 19.5355 104.605 19.597L104.279 19.6689L104.605 19.597C104.618 19.6586 104.644 19.7168 104.68 19.7685C104.716 19.8201 104.762 19.8641 104.816 19.8978L104.817 19.899L108.609 22.3363C108.609 22.3363 108.609 22.3363 108.609 22.3363C108.67 22.3752 108.738 22.4 108.81 22.4088C108.881 22.4176 108.954 22.4101 109.022 22.387C109.09 22.364 109.152 22.3258 109.203 22.2755C109.255 22.2251 109.294 22.1639 109.318 22.0963L109.318 22.0963L111.593 15.7904L111.662 15.6015L111.86 15.5732L122.636 14.0395L122.684 14.0327L122.731 14.0396L130.857 15.2234L131.04 15.25L131.114 15.4185C132.294 18.0829 132.69 21.0281 132.254 23.9087C132.253 23.9134 132.253 23.9174 132.252 23.9205C132.251 23.9309 132.249 23.9397 132.249 23.9444L132.248 23.9504L132.248 23.9505L132.247 23.9532C132.069 25.1654 131.745 26.3518 131.284 27.487L124.378 53.7886ZM104.442 60.1337C104.442 59.9183 104.356 59.7118 104.204 59.5595C104.052 59.4073 103.845 59.3217 103.629 59.3217C103.414 59.3217 103.208 59.4071 103.055 59.5591C102.903 59.711 102.817 59.9172 102.817 60.1323M104.442 60.1337L102.817 60.1323M102.817 60.1323C102.796 62.9649 103.892 65.6918 105.867 67.7238C107.842 69.7558 110.538 70.9298 113.372 70.992L102.817 60.1323ZM132.247 23.9532C132.247 23.9532 132.247 23.953 132.247 23.9528L132.247 23.953C132.247 23.9532 132.247 23.9532 132.247 23.9532Z" fill="#222433" stroke="#3C4043" stroke-width="0.667626"/>
<path d="M113.749 15.2009L113.753 15.2008L131.07 14.7641C129.59 11.7396 127.17 9.2701 124.167 7.72821C121.056 6.13031 117.498 5.62097 114.062 6.28169C110.627 6.9424 107.512 8.73498 105.216 11.3727C103.186 13.7051 101.9 16.5792 101.506 19.6269C101.936 19.6068 102.451 19.6144 103.03 19.6831C104.718 19.8834 106.919 20.6013 109.06 22.6114L109.061 22.6117C109.424 22.9531 109.815 23.4827 110.171 24.013C110.279 24.1747 110.389 24.3428 110.498 24.5143L110.364 18.7552L110.364 18.7503C110.347 17.8323 110.694 16.9448 111.327 16.2804C111.961 15.616 112.831 15.2282 113.749 15.2009ZM131.446 14.995L131.446 14.995L131.446 14.995Z" fill="white" stroke="#3C4043" stroke-width="2"/>
<path d="M104.107 60.1372L104.107 60.1372L104.344 38.1101L104.344 38.1101C104.344 38.0473 104.333 37.9851 104.309 37.9268C104.286 37.8686 104.251 37.8155 104.207 37.7706C104.163 37.7257 104.111 37.6899 104.053 37.6652C103.995 37.6405 103.933 37.6275 103.87 37.6268C103.807 37.6261 103.745 37.6378 103.687 37.6613C103.628 37.6847 103.575 37.7193 103.53 37.7633C103.485 37.8072 103.449 37.8595 103.425 37.9173C103.4 37.975 103.387 38.037 103.386 38.0997C103.386 38.0997 103.386 38.0997 103.386 38.0998L103.149 60.127C103.149 60.1898 103.16 60.2521 103.184 60.3103L102.878 60.4334L103.184 60.3103C103.207 60.3685 103.242 60.4216 103.286 60.4665C103.33 60.5114 103.382 60.5472 103.44 60.5719C103.497 60.5963 103.559 60.6093 103.621 60.6102H103.628C103.754 60.6102 103.875 60.5605 103.965 60.4719C104.054 60.3833 104.105 60.2631 104.107 60.1372Z" fill="#222433" stroke="#3C4043" stroke-width="0.667626"/>
<path d="M118.144 26.2937C118.144 27.0335 118.744 27.6336 119.485 27.6336C120.226 27.6336 120.826 27.0335 120.826 26.2937C120.826 25.554 120.226 24.9539 119.485 24.9539C118.744 24.9539 118.144 25.554 118.144 26.2937Z" fill="#222433" stroke="#3C4043" stroke-width="0.667626"/>
<path d="M129.836 26.2478C129.836 26.9876 130.436 27.5877 131.177 27.5877C131.917 27.5877 132.518 26.9876 132.518 26.2478C132.518 25.5081 131.917 24.908 131.177 24.908C130.436 24.908 129.836 25.5081 129.836 26.2478Z" fill="#222433" stroke="#3C4043" stroke-width="0.667626"/>
<path d="M123.064 30.252L123.286 30.5015C123.381 30.4171 123.505 30.3739 123.632 30.3813L123.632 30.3813L127.099 30.5838L127.523 30.6085L127.447 30.1907L126.337 24.102C126.32 23.9805 126.35 23.8569 126.421 23.7569C126.494 23.6557 126.603 23.5866 126.725 23.5642C126.848 23.5419 126.974 23.5682 127.078 23.6374C127.18 23.7058 127.252 23.8108 127.278 23.9306L128.574 31.0357L128.574 31.0358C128.587 31.1046 128.584 31.1754 128.566 31.2431L128.888 31.328L128.566 31.2431C128.548 31.3108 128.516 31.3738 128.471 31.4276C128.426 31.4814 128.37 31.5247 128.306 31.5544C128.243 31.5841 128.174 31.5995 128.103 31.5996L123.064 30.252ZM123.064 30.252L123.286 30.5015C123.191 30.5858 123.133 30.7043 123.126 30.8308C123.119 30.9574 123.162 31.0817 123.246 31.1765C123.33 31.2713 123.449 31.3288 123.576 31.3362C123.576 31.3362 123.576 31.3362 123.576 31.3362L128.074 31.5988L128.075 31.5988M123.064 30.252L128.075 31.5988M128.075 31.5988C128.083 31.5994 128.091 31.5996 128.103 31.5996L128.075 31.5988Z" fill="#222433" stroke="#3C4043" stroke-width="0.667626"/>
<path d="M106.734 37.4123L106.733 37.4129C105.355 38.1966 103.797 38.61 102.212 38.6128L102.208 38.6123L102.188 38.6123C99.7553 38.6118 97.4225 37.6456 95.7027 35.9263C93.9829 34.207 93.0171 31.8755 93.0176 29.4447C93.0181 27.0139 93.9849 24.6829 95.7054 22.9643C97.4259 21.2458 99.7592 20.2806 102.192 20.2811L102.192 20.2811H102.196H102.196C104.446 20.2797 106.618 21.1056 108.298 22.6013C109.978 24.0971 111.048 26.1581 111.306 28.3917L106.734 37.4123ZM106.734 37.4123C106.789 37.3813 106.837 37.3398 106.876 37.2902L107.139 37.4958M106.734 37.4123L107.139 37.4958M107.139 37.4958L106.876 37.2902C106.915 37.2406 106.943 37.1838 106.96 37.1231C106.977 37.0624 106.981 36.999 106.973 36.9366C106.966 36.8741 106.945 36.8138 106.914 36.7591L107.204 36.5936L106.914 36.7591C106.883 36.7045 106.841 36.6565 106.791 36.6179C106.741 36.5794 106.684 36.551 106.624 36.5346C106.563 36.5181 106.499 36.5138 106.437 36.5219C106.374 36.5301 106.314 36.5505 106.259 36.582L106.257 36.583M107.139 37.4958L106.257 36.583M106.257 36.583C105.018 37.2872 103.618 37.6572 102.192 37.6566C102.192 37.6566 102.192 37.6566 102.192 37.6566H102.189H102.189M106.257 36.583L102.189 37.6566M102.189 37.6566C100.01 37.6562 97.9207 36.7908 96.3804 35.251C94.8401 33.7111 93.975 31.6228 93.9755 29.4454C93.976 27.2681 94.842 25.1801 96.383 23.6409C97.924 22.1018 100.014 21.2374 102.192 21.2378C102.192 21.2378 102.192 21.2378 102.192 21.2378L102.195 21.2378C102.195 21.2378 102.196 21.2378 102.196 21.2378C104.21 21.2366 106.155 21.9759 107.66 23.3152C109.165 24.6544 110.124 26.5001 110.354 28.5004L110.354 28.5006M102.189 37.6566L110.354 28.5006M110.354 28.5006C110.369 28.6265 110.433 28.7416 110.532 28.8205M110.354 28.5006L110.532 28.8205M110.532 28.8205C110.632 28.8994 110.758 28.9356 110.885 28.9211M110.532 28.8205L110.885 28.9211M110.885 28.9211C111.011 28.9067 111.126 28.8427 111.205 28.7434M110.885 28.9211L111.205 28.7434M111.205 28.7434C111.284 28.6441 111.32 28.5176 111.306 28.3918L111.205 28.7434Z" fill="#222433" stroke="#3C4043" stroke-width="0.667626"/>
<path d="M99.0961 31.7221C99.1741 31.7876 99.2708 31.8264 99.372 31.8331L99.4034 31.8331C99.4586 31.8331 99.5134 31.8235 99.5653 31.8048L99.5656 31.8047L105.139 29.799L105.139 29.799C105.23 29.766 105.309 29.706 105.366 29.627C105.423 29.5479 105.454 29.4535 105.455 29.3564C105.457 29.2594 105.428 29.1641 105.374 29.0834C105.32 29.0026 105.243 28.9402 105.152 28.9045C105.152 28.9045 105.152 28.9045 105.152 28.9045L99.9383 26.8476L99.9383 26.8477L99.9305 26.8445C99.8717 26.8195 99.8084 26.8066 99.7445 26.8065C99.6806 26.8063 99.6173 26.819 99.5583 26.8437C99.4994 26.8684 99.446 26.9046 99.4013 26.9502C99.3566 26.9959 99.3216 27.0499 99.2982 27.1093C99.2747 27.1686 99.2635 27.2321 99.265 27.2958C99.2665 27.3596 99.2807 27.4224 99.3069 27.4806C99.3331 27.5388 99.3707 27.5912 99.4175 27.6346C99.4643 27.6781 99.5193 27.7118 99.5793 27.7337L99.5794 27.7336L99.5875 27.7368L102.8 29.0047L103.623 29.3296L102.79 29.6293L99.2422 30.9062L99.242 30.9062C99.1359 30.9444 99.0467 31.0187 98.9901 31.116C98.9335 31.2133 98.9131 31.3275 98.9325 31.4383C98.9519 31.5492 99.0098 31.6497 99.0961 31.7221Z" fill="#222433" stroke="#3C4043" stroke-width="0.667626"/>
<path d="M126.188 39.5009L126.186 39.5009C125.327 39.4987 124.483 39.2715 123.739 38.8419L123.734 38.8388L123.733 38.8389C123.082 38.4785 122.539 37.9489 122.164 37.306C121.788 36.6631 121.594 35.9308 121.6 35.1865L121.6 35.1835C121.6 35.0568 121.651 34.9352 121.74 34.8455C121.83 34.7558 121.952 34.7054 122.079 34.7054C122.206 34.7054 122.328 34.7558 122.417 34.8455C122.507 34.9349 122.557 35.0559 122.558 35.1821C122.552 35.7612 122.704 36.3308 122.998 36.8302C123.291 37.3288 123.714 37.7386 124.222 38.0157C125.34 38.6598 126.767 38.7299 127.789 38.141L126.188 39.5009ZM126.188 39.5009C126.916 39.5079 127.633 39.3241 128.268 38.9678M126.188 39.5009L128.268 38.9678M128.268 38.9678C129.437 38.2931 130.102 37.0594 130.104 35.4392L130.437 35.4395M128.268 38.9678L128.812 35.4395C128.812 35.2242 128.898 35.0177 129.05 34.8654C129.203 34.7131 129.409 34.6276 129.625 34.6276C129.84 34.6276 130.047 34.7131 130.199 34.8654C130.352 35.0177 130.437 35.2242 130.437 35.4395M130.437 35.4395H130.104C130.104 35.3128 130.053 35.1912 129.963 35.1015M130.437 35.4395L129.963 35.1015M129.963 35.1015C129.874 35.0118 129.752 34.9614 129.625 34.9614M129.963 35.1015L129.625 34.9614M129.625 34.9614C129.498 34.9614 129.376 35.0119 129.286 35.1015M129.625 34.9614L129.286 35.1015M129.286 35.1015C129.197 35.1912 129.146 35.3128 129.146 35.4395M129.286 35.1015L129.146 35.4395M129.146 35.4395C129.146 36.6528 128.698 37.6173 127.789 38.1409L129.146 35.4395Z" fill="#3C4043" stroke="#3C4043" stroke-width="0.667626"/>
<path d="M136.691 97.6149L136.691 97.6151C138.289 101.101 141.781 103.285 145.363 103.674C148.936 104.063 152.554 102.665 154.456 99.0337L154.457 99.033C154.51 98.9313 154.558 98.839 154.599 98.7463L154.599 98.7463L154.603 98.7371C155.434 97.0241 156.426 95.3415 157.921 93.9944C159.422 92.6418 161.412 91.6441 164.211 91.2677L164.212 91.2676C164.684 91.2048 165.18 91.1473 165.686 91.0887C167.289 90.903 168.998 90.705 170.394 90.2848C171.31 90.0092 172.042 89.6505 172.507 89.1746C172.954 88.7167 173.173 88.1325 173.037 87.3278C172.957 86.8607 172.571 86.4519 171.825 86.1047C171.085 85.7606 170.066 85.5142 168.875 85.3349C166.884 85.0351 164.489 84.9332 162.272 84.8388C161.839 84.8204 161.413 84.8023 160.999 84.783L160.888 84.1404C161.988 83.6924 163.139 83.246 164.292 82.7988C166.699 81.865 169.116 80.9276 171.095 79.9653C172.558 79.254 173.746 78.5453 174.499 77.8377C175.256 77.1268 175.497 76.4976 175.294 75.9027C175.057 75.2048 174.608 74.692 173.935 74.356C173.251 74.0149 172.32 73.8489 171.122 73.8904C169.151 73.9586 166.526 74.5842 163.245 75.8055C163.105 75.864 162.969 75.9201 162.838 75.9736C162.286 76.1993 161.823 76.3801 161.499 76.5046C161.336 76.5668 161.209 76.615 161.121 76.6477L161.021 76.6849L160.995 76.6945L160.988 76.697L160.986 76.6976L160.986 76.6978C160.986 76.6978 160.986 76.6979 160.871 76.3843L160.986 76.6979L160.743 76.076C161.525 75.7509 162.278 75.4535 163.001 75.1839C164.033 74.7543 165.303 74.1965 166.552 73.5725C167.978 72.8596 169.362 72.0685 170.335 71.291C170.822 70.9014 171.189 70.5287 171.41 70.1855C171.631 69.8428 171.682 69.5688 171.619 69.345L171.619 69.3446C171.499 68.9133 171.164 68.6048 170.562 68.4241C169.95 68.2403 169.103 68.2048 168.062 68.3116C165.987 68.5247 163.258 69.2904 160.376 70.375C157.499 71.4579 154.489 72.8513 151.855 74.3072C149.217 75.766 146.978 77.2761 145.628 78.5877L145.628 78.5878L145.621 78.5938L145.395 78.3483L145.621 78.5939L145.621 78.594L145.621 78.5942L145.62 78.5951L145.616 78.5981L145.603 78.6101L145.551 78.6579C145.503 78.701 145.429 78.7669 145.326 78.8589C145.118 79.0431 144.789 79.3323 144.302 79.7536C143.327 80.5961 141.718 81.9676 139.18 84.0853L138.966 83.829L139.18 84.0853C136.651 86.1945 135.613 88.6462 135.408 91.027C135.202 93.4188 135.838 95.757 136.691 97.6149Z" fill="#FFF1ED" stroke="#3C4043" stroke-width="0.667626"/>
<path d="M155.176 99.4085L155.176 99.409C153.458 102.688 150.325 104.549 146.524 104.549C146.422 104.549 146.318 104.547 146.214 104.545L155.176 99.4085ZM155.176 99.4085C155.237 99.2936 155.292 99.1856 155.341 99.0773L155.341 99.0772M155.176 99.4085L155.341 99.0772M155.341 99.0772L155.345 99.0686M155.341 99.0772L155.345 99.0686M155.345 99.0686C156.229 97.2445 157.231 95.6566 158.641 94.443C160.056 93.2247 161.86 92.402 164.32 92.0711L164.32 92.0711M155.345 99.0686L164.32 92.0711M164.32 92.0711C164.772 92.0108 165.253 91.9551 165.743 91.8982L165.761 91.8961C167.274 91.7208 168.856 91.5367 170.232 91.1713C171.615 90.804 172.722 90.2696 173.344 89.442C173.58 89.1246 173.745 88.7612 173.831 88.3754C173.916 87.9894 173.919 87.5896 173.839 87.2024L173.839 87.2024L173.837 87.1913C173.658 86.1423 172.68 85.4281 171.007 84.9483C169.356 84.4746 167.168 84.2722 164.83 84.1441L164.728 83.4996C168.008 82.227 171.143 81.0018 173.32 79.6845C174.409 79.0255 175.226 78.3615 175.703 77.6833C176.17 77.0199 176.306 76.3546 176.063 75.6399L176.062 75.6365C175.91 75.175 175.661 74.7512 175.333 74.3933C175.004 74.0354 174.603 73.7517 174.155 73.5611L174.155 73.5612L174.149 73.5583C173.193 73.1268 171.889 72.9784 170.22 73.1466L169.999 72.5382C171.008 71.8545 171.683 71.2289 172.067 70.6543C172.445 70.0892 172.532 69.5911 172.401 69.1247L172.4 69.1242C172.261 68.6243 171.867 67.9331 170.69 67.6155C169.441 67.2785 167.513 67.451 165.201 68.0101C162.905 68.5656 160.282 69.4888 157.674 70.6007C152.446 72.8295 147.341 75.7885 145.061 78.0044L145.061 78.0045L145.053 78.0112L144.828 77.765M164.32 92.0711L144.828 77.765M144.828 77.765L145.053 78.0113L145.053 78.0114L145.053 78.0116L145.052 78.0125L145.049 78.0156L145.035 78.0277L144.981 78.0766C144.932 78.1204 144.857 78.1874 144.752 78.2806C144.542 78.467 144.21 78.7583 143.722 79.1793C142.747 80.0213 141.15 81.3826 138.658 83.4612M144.828 77.765L138.658 83.4612M138.658 83.4612C135.597 86.0158 134.621 88.9612 134.553 91.6008C134.485 94.2546 135.336 96.6121 135.951 97.9534L135.951 97.9536C137.702 101.772 141.827 104.43 146.214 104.545L138.658 83.4612ZM173.743 74.4243L173.743 74.4243L173.746 74.4256C174.078 74.5633 174.376 74.7709 174.619 75.0343C174.862 75.2972 175.046 75.6094 175.158 75.9497C175.273 76.2893 175.217 76.6288 175.059 76.9419C174.905 77.2489 174.648 77.5435 174.331 77.8247C173.697 78.3874 172.754 78.9572 171.665 79.5141C169.483 80.6294 166.623 81.7386 164.227 82.6679L164.219 82.6711L164.219 82.6712L164.17 82.6901C163.055 83.1228 161.907 83.5682 160.833 84.0055C160.732 84.0467 160.648 84.121 160.595 84.2163C160.542 84.3115 160.524 84.4219 160.542 84.5292C160.561 84.6365 160.615 84.7344 160.697 84.8065C160.779 84.8787 160.883 84.9208 160.992 84.9258L160.992 84.9258C161.367 84.9435 161.752 84.9599 162.145 84.9766L162.261 84.9815L162.271 84.9819C164.142 85.0615 166.663 85.1688 168.754 85.466C169.799 85.6145 170.757 85.8132 171.479 86.0883C171.84 86.2257 172.159 86.3885 172.404 86.5864C172.646 86.7828 172.836 87.0314 172.892 87.3403C172.952 87.5998 172.956 87.8691 172.903 88.1302C172.85 88.3947 172.741 88.6447 172.583 88.8631L172.583 88.8631L172.579 88.8676C172.292 89.2498 171.858 89.5424 171.359 89.7737C170.857 90.0063 170.266 90.1881 169.636 90.3356C168.383 90.6292 166.935 90.7972 165.665 90.9444L165.651 90.946L165.651 90.946L165.611 90.9507C165.117 91.0081 164.641 91.0635 164.192 91.1234C161.328 91.5087 159.329 92.528 157.835 93.8715C156.336 95.2194 155.328 96.9098 154.475 98.6703C154.422 98.7848 154.375 98.8758 154.328 98.9644C152.739 101.999 149.782 103.681 146.24 103.589L146.24 103.589C142.218 103.483 138.433 101.068 136.822 97.5548C136.263 96.3371 135.476 94.1751 135.527 91.7279C135.578 89.2666 136.478 86.5277 139.273 84.1957L139.487 84.452L139.273 84.1956C144.221 80.0674 145.624 78.7872 145.717 78.7028C148.082 76.407 153.125 73.5706 158.102 71.4612C160.598 70.4032 163.093 69.5212 165.248 68.978C166.325 68.7065 167.323 68.5181 168.197 68.4361C169.066 68.3544 169.834 68.3757 170.441 68.5395L170.441 68.5395C170.825 68.643 171.077 68.7913 171.241 68.961C171.41 69.1358 171.458 69.3064 171.479 69.3831L171.479 69.3831L171.48 69.3868C171.525 69.5543 171.502 69.954 170.894 70.5922C170.285 71.2323 169.042 72.1666 166.497 73.4384L166.497 73.4384C165.242 74.0654 163.962 74.6275 162.926 75.0586L162.926 75.0588L162.914 75.0632C162.199 75.3294 161.457 75.6226 160.688 75.9427C160.573 75.9912 160.482 76.0824 160.433 76.197C160.385 76.3118 160.383 76.441 160.428 76.557C160.474 76.6731 160.563 76.7669 160.676 76.8185C160.79 76.87 160.919 76.8752 161.036 76.8331C161.109 76.8065 162.03 76.4687 163.324 75.9302L163.324 75.9299L163.336 75.9255C167.162 74.5015 169.729 74.025 171.46 74.0239C172.241 73.9956 173.019 74.132 173.743 74.4243Z" fill="#222433" stroke="#3C4043" stroke-width="0.667626"/>
<path d="M219.588 111.921L235.225 64.4176L187.711 48.7766L171.975 96.3391L219.588 111.921Z" fill="white"/>
<path d="M171.692 97.1983L219.305 112.781C219.533 112.856 219.781 112.837 219.995 112.729C220.209 112.621 220.372 112.432 220.447 112.204L236.084 64.7006C236.159 64.4727 236.141 64.2245 236.033 64.0103C235.924 63.7962 235.736 63.6337 235.508 63.5587L187.994 47.9178C187.766 47.8427 187.518 47.8613 187.303 47.9694C187.089 48.0774 186.927 48.2661 186.852 48.4939L171.116 96.0564C171.078 96.1693 171.063 96.2884 171.072 96.407C171.081 96.5255 171.113 96.6412 171.166 96.7474C171.22 96.8536 171.294 96.9482 171.384 97.0258C171.474 97.1034 171.579 97.1625 171.692 97.1997L171.692 97.1983ZM219.011 110.781L173.119 95.7621L188.286 49.9182L234.083 64.9939L219.011 110.781Z" fill="#3C4043"/>
<path d="M181.831 92.0974L214.252 102.77C214.48 102.845 214.728 102.826 214.942 102.718C215.156 102.61 215.319 102.421 215.394 102.194L226.064 69.7799C226.139 69.5521 226.12 69.3038 226.012 69.0897C225.904 68.8755 225.715 68.7131 225.487 68.6381L193.067 57.9656C192.839 57.8906 192.59 57.9092 192.376 58.0172C192.162 58.1253 192 58.314 191.925 58.5418L181.255 90.9555C181.18 91.1834 181.198 91.4317 181.306 91.6458C181.414 91.8599 181.603 92.0224 181.831 92.0974ZM213.958 100.769L183.256 90.6622L193.36 59.9665L224.063 70.0733L213.958 100.769Z" fill="#3C4043"/>
<path d="M347.118 168V100.225H279.328L279.226 168.118L347.118 168Z" fill="white"/>
<path d="M279.226 169.344L347.118 169.227C347.443 169.227 347.755 169.097 347.985 168.868C348.214 168.638 348.344 168.326 348.344 168.001V100.226C348.344 99.9005 348.214 99.5888 347.985 99.359C347.755 99.1291 347.443 99 347.118 99H279.328C279.003 99 278.691 99.1291 278.461 99.359C278.231 99.5888 278.102 99.9005 278.102 100.226L278 168.118C278 168.279 278.031 168.439 278.093 168.588C278.154 168.737 278.244 168.872 278.358 168.986C278.472 169.1 278.607 169.191 278.756 169.252C278.905 169.314 279.065 169.346 279.226 169.346V169.344ZM345.892 166.777L280.454 166.891L280.552 101.451H345.892V166.777Z" fill="#3C4043"/>
<path d="M290.115 158.481H336.37C336.696 158.481 337.007 158.352 337.237 158.122C337.467 157.893 337.596 157.581 337.596 157.256V111.01C337.596 110.685 337.467 110.373 337.237 110.143C337.007 109.914 336.696 109.784 336.37 109.784H290.115C289.79 109.784 289.478 109.914 289.248 110.143C289.018 110.373 288.889 110.685 288.889 111.01V157.256C288.889 157.581 289.018 157.893 289.248 158.122C289.478 158.352 289.79 158.481 290.115 158.481ZM335.145 156.03H291.341V112.236H335.145V156.03Z" fill="#3C4043"/>
<path d="M353.157 178.598V168.052H264.914V263.594H353.157V178.598Z" fill="white"/>
<path d="M264.914 264.486H353.157C353.394 264.486 353.62 264.392 353.788 264.225C353.955 264.057 354.049 263.831 354.049 263.594V168.052C354.049 167.816 353.955 167.589 353.788 167.422C353.62 167.255 353.394 167.161 353.157 167.161H264.914C264.678 167.161 264.451 167.255 264.284 167.422C264.117 167.589 264.023 167.816 264.023 168.052V263.594C264.023 263.831 264.117 264.057 264.284 264.225C264.451 264.392 264.678 264.486 264.914 264.486ZM352.266 262.703H265.806V168.944H352.266V262.703Z" fill="#3C4043"/>
<path d="M274.393 254.233H343.709C343.946 254.233 344.173 254.139 344.34 253.971C344.507 253.804 344.601 253.578 344.601 253.341V178.304C344.601 178.068 344.507 177.841 344.34 177.674C344.173 177.507 343.946 177.413 343.709 177.413H274.393C274.156 177.413 273.93 177.507 273.762 177.674C273.595 177.841 273.501 178.068 273.501 178.304V253.341C273.501 253.578 273.595 253.804 273.762 253.971C273.93 254.139 274.156 254.233 274.393 254.233ZM342.818 252.45H275.284V179.196H342.818V252.45Z" fill="#3C4043"/>
<path d="M167.813 172.616C169.367 172.616 170.626 171.359 170.626 169.808C170.626 168.257 169.367 167 167.813 167C166.259 167 165 168.257 165 169.808C165 171.359 166.259 172.616 167.813 172.616Z" fill="#FFF1ED"/>
<path d="M145.813 144.616C147.367 144.616 148.626 143.359 148.626 141.808C148.626 140.257 147.367 139 145.813 139C144.259 139 143 140.257 143 141.808C143 143.359 144.259 144.616 145.813 144.616Z" fill="#FFF1ED"/>
<path d="M67.3306 218.658C68.8843 218.658 70.1438 217.401 70.1438 215.85C70.1438 214.299 68.8843 213.042 67.3306 213.042C65.7769 213.042 64.5175 214.299 64.5175 215.85C64.5175 217.401 65.7769 218.658 67.3306 218.658Z" fill="#E7F1FF"/>
<path d="M154.813 131.616C156.367 131.616 157.626 130.359 157.626 128.808C157.626 127.257 156.367 126 154.813 126C153.259 126 152 127.257 152 128.808C152 130.359 153.259 131.616 154.813 131.616Z" fill="#E7F1FF"/>
<path d="M41.813 202.616C43.3667 202.616 44.6262 201.359 44.6262 199.808C44.6262 198.257 43.3667 197 41.813 197C40.2594 197 38.9999 198.257 38.9999 199.808C38.9999 201.359 40.2594 202.616 41.813 202.616Z" fill="#E7F1FF"/>
<path d="M50.8114 188.082C51.9851 187.066 52.1114 185.293 51.0935 184.121C50.0756 182.95 48.2989 182.824 47.1251 183.84C45.9514 184.856 45.8251 186.629 46.843 187.8C47.8609 188.972 49.6376 189.098 50.8114 188.082Z" fill="#E7F1FF"/>
<path d="M54.813 211.616C56.3667 211.616 57.6262 210.359 57.6262 208.808C57.6262 207.257 56.3667 206 54.813 206C53.2594 206 51.9999 207.257 51.9999 208.808C51.9999 210.359 53.2594 211.616 54.813 211.616Z" fill="#E7F1FF"/>
<path d="M71.2818 202.663C72.8354 202.663 74.0949 201.406 74.0949 199.855C74.0949 198.304 72.8354 197.047 71.2818 197.047C69.7281 197.047 68.4686 198.304 68.4686 199.855C68.4686 201.406 69.7281 202.663 71.2818 202.663Z" fill="#FFF1ED"/>
<path d="M87.6548 200.202C89.2085 200.202 90.468 198.945 90.468 197.394C90.468 195.843 89.2085 194.586 87.6548 194.586C86.1012 194.586 84.8417 195.843 84.8417 197.394C84.8417 198.945 86.1012 200.202 87.6548 200.202Z" fill="#E7F1FF"/>
<path d="M76.1177 186.194C77.6714 186.194 78.9309 184.937 78.9309 183.386C78.9309 181.835 77.6714 180.578 76.1177 180.578C74.5641 180.578 73.3046 181.835 73.3046 183.386C73.3046 184.937 74.5641 186.194 76.1177 186.194Z" fill="#E7F1FF"/>
<path d="M104.249 197.993C105.802 197.993 107.062 196.736 107.062 195.185C107.062 193.634 105.802 192.377 104.249 192.377C102.695 192.377 101.435 193.634 101.435 195.185C101.435 196.736 102.695 197.993 104.249 197.993Z" fill="#E7F1FF"/>
<path d="M94.9888 183.385C96.5425 183.385 97.802 182.128 97.802 180.577C97.802 179.027 96.5425 177.77 94.9888 177.77C93.4351 177.77 92.1757 179.027 92.1757 180.577C92.1757 182.128 93.4351 183.385 94.9888 183.385Z" fill="#FFF1ED"/>
<path d="M82.5982 169.031C84.1519 169.031 85.4114 167.774 85.4114 166.223C85.4114 164.672 84.1519 163.415 82.5982 163.415C81.0445 163.415 79.785 164.672 79.785 166.223C79.785 167.774 81.0445 169.031 82.5982 169.031Z" fill="#FFF1ED"/>
<path d="M71.5984 167.067C71.9721 167.188 72.3152 167.389 72.6042 167.656C73.1511 168.163 73.4744 168.867 73.5029 169.611C73.5314 170.356 73.2629 171.081 72.7563 171.627C72.2497 172.173 71.5467 172.495 70.8018 172.522C70.0569 172.549 69.3312 172.279 68.7843 171.772C68.4199 171.436 68.1518 171.009 68.0079 170.535C67.864 170.061 67.8495 169.557 67.9659 169.076" fill="#E7F1FF"/>
<path d="M43.5717 218.622C44.2232 218.259 44.9922 218.169 45.7095 218.371C46.4268 218.574 47.0336 219.053 47.3965 219.703C47.7594 220.354 47.8487 221.122 47.6446 221.839C47.4405 222.556 46.6513 223.136 45.9998 223.5" fill="#E7F1FF"/>
<path d="M57.813 198.616C59.3667 198.616 60.6262 197.359 60.6262 195.808C60.6262 194.257 59.3667 193 57.813 193C56.2594 193 54.9999 194.257 54.9999 195.808C54.9999 197.359 56.2594 198.616 57.813 198.616Z" fill="#FFF1ED"/>
<path d="M162.71 161.308C164.263 161.308 165.523 160.051 165.523 158.5C165.523 156.95 164.263 155.692 162.71 155.692C161.156 155.692 159.896 156.95 159.896 158.5C159.896 160.051 161.156 161.308 162.71 161.308Z" fill="#E7F1FF"/>
<path d="M165.854 207.395C167.408 207.395 168.667 206.138 168.667 204.587C168.667 203.036 167.408 201.779 165.854 201.779C164.3 201.779 163.041 203.036 163.041 204.587C163.041 206.138 164.3 207.395 165.854 207.395Z" fill="#E7F1FF"/>
<path d="M161.081 223.264C162.634 223.264 163.894 222.007 163.894 220.456C163.894 218.906 162.634 217.648 161.081 217.648C159.527 217.648 158.267 218.906 158.267 220.456C158.267 222.007 159.527 223.264 161.081 223.264Z" fill="#E7F1FF"/>
<path d="M150.049 210.644C151.603 210.644 152.863 209.387 152.863 207.836C152.863 206.285 151.603 205.028 150.049 205.028C148.496 205.028 147.236 206.285 147.236 207.836C147.236 209.387 148.496 210.644 150.049 210.644Z" fill="#E7F1FF"/>
<path d="M139.114 196.668C140.667 196.668 141.927 195.41 141.927 193.86C141.927 192.309 140.667 191.052 139.114 191.052C137.56 191.052 136.301 192.309 136.301 193.86C136.301 195.41 137.56 196.668 139.114 196.668Z" fill="#FFF1ED"/>
<path d="M155.454 194.207C157.007 194.207 158.267 192.949 158.267 191.399C158.267 189.848 157.007 188.591 155.454 188.591C153.9 188.591 152.641 189.848 152.641 191.399C152.641 192.949 153.9 194.207 155.454 194.207Z" fill="#E7F1FF"/>
<path d="M146.813 172.616C148.367 172.616 149.626 171.359 149.626 169.808C149.626 168.257 148.367 167 146.813 167C145.259 167 144 168.257 144 169.808C144 171.359 145.259 172.616 146.813 172.616Z" fill="#E7F1FF"/>
<path d="M176.813 224.616C178.367 224.616 179.626 223.359 179.626 221.808C179.626 220.257 178.367 219 176.813 219C175.259 219 174 220.257 174 221.808C174 223.359 175.259 224.616 176.813 224.616Z" fill="#FFF1ED"/>
<path d="M187.813 230.616C189.367 230.616 190.626 229.359 190.626 227.808C190.626 226.257 189.367 225 187.813 225C186.259 225 185 226.257 185 227.808C185 229.359 186.259 230.616 187.813 230.616Z" fill="#E7F1FF"/>
<path d="M157.813 233.616C159.367 233.616 160.626 232.359 160.626 230.808C160.626 229.257 159.367 228 157.813 228C156.259 228 155 229.257 155 230.808C155 232.359 156.259 233.616 157.813 233.616Z" fill="#FFF1ED"/>
<path d="M172.667 189.923C174.22 189.923 175.48 188.666 175.48 187.115C175.48 185.565 174.22 184.308 172.667 184.308C171.113 184.308 169.853 185.565 169.853 187.115C169.853 188.666 171.113 189.923 172.667 189.923Z" fill="#E7F1FF"/>
<path d="M143.813 127.616C145.367 127.616 146.626 126.359 146.626 124.808C146.626 123.257 145.367 122 143.813 122C142.259 122 141 123.257 141 124.808C141 126.359 142.259 127.616 143.813 127.616Z" fill="#E7F1FF"/>
<path d="M184.813 204.616C186.367 204.616 187.626 203.359 187.626 201.808C187.626 200.257 186.367 199 184.813 199C183.259 199 182 200.257 182 201.808C182 203.359 183.259 204.616 184.813 204.616Z" fill="#E7F1FF"/>
<path d="M158.813 178.616C160.367 178.616 161.626 177.359 161.626 175.808C161.626 174.257 160.367 173 158.813 173C157.259 173 156 174.257 156 175.808C156 177.359 157.259 178.616 158.813 178.616Z" fill="#E7F1FF"/>
<path d="M178.813 169.616C180.367 169.616 181.626 168.359 181.626 166.808C181.626 165.257 180.367 164 178.813 164C177.259 164 176 165.257 176 166.808C176 168.359 177.259 169.616 178.813 169.616Z" fill="#E7F1FF"/>
<path d="M172.333 252.92C173.886 252.92 175.146 251.663 175.146 250.113C175.146 248.562 173.886 247.305 172.333 247.305C170.779 247.305 169.519 248.562 169.519 250.113C169.519 251.663 170.779 252.92 172.333 252.92Z" fill="#E7F1FF"/>
<path d="M97.813 158.616C99.3667 158.616 100.626 157.359 100.626 155.808C100.626 154.257 99.3667 153 97.813 153C96.2594 153 94.9999 154.257 94.9999 155.808C94.9999 157.359 96.2594 158.616 97.813 158.616Z" fill="#E7F1FF"/>
<path d="M93.6069 143.756C94.6432 142.601 94.545 140.826 93.3875 139.792C92.23 138.757 90.4516 138.855 89.4153 140.011C88.379 141.166 88.4773 142.941 89.6347 143.975C90.7922 145.01 92.5706 144.912 93.6069 143.756Z" fill="#FFF1ED"/>
<path d="M122.266 139.343C123.82 139.343 125.079 138.086 125.079 136.535C125.079 134.985 123.82 133.728 122.266 133.728C120.713 133.728 119.453 134.985 119.453 136.535C119.453 138.086 120.713 139.343 122.266 139.343Z" fill="#FFF1ED"/>
<path d="M117.493 155.212C119.046 155.212 120.306 153.955 120.306 152.405C120.306 150.854 119.046 149.597 117.493 149.597C115.939 149.597 114.68 150.854 114.68 152.405C114.68 153.955 115.939 155.212 117.493 155.212Z" fill="#E7F1FF"/>
<path d="M108.813 146.616C110.367 146.616 111.626 145.359 111.626 143.808C111.626 142.257 110.367 141 108.813 141C107.259 141 106 142.257 106 143.808C106 145.359 107.259 146.616 108.813 146.616Z" fill="#E7F1FF"/>
<path d="M88.813 128.616C90.3667 128.616 91.6262 127.359 91.6262 125.808C91.6262 124.257 90.3667 123 88.813 123C87.2594 123 85.9999 124.257 85.9999 125.808C85.9999 127.359 87.2594 128.616 88.813 128.616Z" fill="#E7F1FF"/>
<path d="M149.813 159.616C151.367 159.616 152.626 158.359 152.626 156.808C152.626 155.257 151.367 154 149.813 154C148.259 154 147 155.257 147 156.808C147 158.359 148.259 159.616 149.813 159.616Z" fill="#E7F1FF"/>
<path d="M179.626 144.808C179.626 145.363 179.461 145.906 179.152 146.368C178.843 146.83 178.404 147.19 177.89 147.402C177.376 147.615 176.81 147.67 176.264 147.562C175.719 147.453 175.217 147.186 174.824 146.793C174.43 146.401 174.162 145.9 174.054 145.356C173.945 144.811 174.001 144.246 174.214 143.733C174.427 143.22 174.788 142.782 175.25 142.473C175.713 142.165 176.257 142 176.813 142" fill="#FFF1ED"/>
<path d="M134.614 150.227C136.167 150.227 137.427 148.97 137.427 147.419C137.427 145.868 136.167 144.611 134.614 144.611C133.06 144.611 131.801 145.868 131.801 147.419C131.801 148.97 133.06 150.227 134.614 150.227Z" fill="#E7F1FF"/>
<path d="M116.102 171.082C117.656 171.082 118.915 169.824 118.915 168.274C118.915 166.723 117.656 165.466 116.102 165.466C114.548 165.466 113.289 166.723 113.289 168.274C113.289 169.824 114.548 171.082 116.102 171.082Z" fill="#FFF1ED"/>
<path d="M99.981 171.018C101.535 171.018 102.794 169.761 102.794 168.21C102.794 166.659 101.535 165.402 99.981 165.402C98.4273 165.402 97.1678 166.659 97.1678 168.21C97.1678 169.761 98.4273 171.018 99.981 171.018Z" fill="#E7F1FF"/>
<path d="M160.813 143.616C162.367 143.616 163.626 142.359 163.626 140.808C163.626 139.257 162.367 138 160.813 138C159.259 138 158 139.257 158 140.808C158 142.359 159.259 143.616 160.813 143.616Z" fill="#E7F1FF"/>
<path d="M111.835 186.194C113.388 186.194 114.648 184.937 114.648 183.386C114.648 181.835 113.388 180.578 111.835 180.578C110.281 180.578 109.021 181.835 109.021 183.386C109.021 184.937 110.281 186.194 111.835 186.194Z" fill="#E7F1FF"/>
<path d="M63.813 184.616C65.3667 184.616 66.6262 183.359 66.6262 181.808C66.6262 180.257 65.3667 179 63.813 179C62.2594 179 60.9999 180.257 60.9999 181.808C60.9999 183.359 62.2594 184.616 63.813 184.616Z" fill="#E7F1FF"/>
<path d="M132.5 122L135.5 120L131 157L128.5 155L132.5 122Z" fill="white"/>
<path d="M281.643 228H285.641V220.189H293.757V228H297.746V209.091H293.757V216.893H285.641V209.091H281.643V228ZM307.376 228.277C311.678 228.277 314.356 225.332 314.356 220.964C314.356 216.57 311.678 213.634 307.376 213.634C303.073 213.634 300.395 216.57 300.395 220.964C300.395 225.332 303.073 228.277 307.376 228.277ZM307.394 225.23C305.409 225.23 304.393 223.411 304.393 220.937C304.393 218.462 305.409 216.634 307.394 216.634C309.342 216.634 310.358 218.462 310.358 220.937C310.358 223.411 309.342 225.23 307.394 225.23ZM320.846 209.091H316.913V228H320.846V209.091ZM328.041 228.268C330.137 228.268 331.494 227.354 332.187 226.033H332.298V228H336.028V218.435C336.028 215.055 333.166 213.634 330.008 213.634C326.61 213.634 324.376 215.259 323.831 217.844L327.469 218.139C327.737 217.197 328.577 216.505 329.989 216.505C331.328 216.505 332.095 217.179 332.095 218.342V218.398C332.095 219.312 331.125 219.432 328.66 219.672C325.853 219.93 323.332 220.872 323.332 224.039C323.332 226.846 325.336 228.268 328.041 228.268ZM329.168 225.553C327.958 225.553 327.09 224.99 327.09 223.91C327.09 222.802 328.004 222.257 329.389 222.063C330.248 221.943 331.651 221.74 332.122 221.426V222.931C332.122 224.418 330.894 225.553 329.168 225.553Z" fill="#07377F"/>
<path d="M199.472 67.3182L195.613 66.0005L189 85.3701L192.859 86.6878L199.472 67.3182Z" fill="#07377F"/>
<path d="M209.763 70.8312L205.904 69.5135L199.29 88.8832L203.149 90.2009L209.763 70.8312Z" fill="#07377F"/>
<path d="M215.277 79.9229L211.418 78.6052L207.009 91.5176L210.868 92.8353L215.277 79.9229Z" fill="#07377F"/>
<path d="M217.482 73.4669L213.622 72.1492L212.3 76.0231L216.159 77.3408L217.482 73.4669Z" fill="#07377F"/>
<path d="M204.545 77.7011L195.54 74.6263L194.217 78.5003L203.222 81.575L204.545 77.7011Z" fill="#07377F"/>
<path d="M296.599 142.045L296.536 141.618L296.562 141.614C296.054 135.392 295.874 129.078 296.024 122.84L298.128 122.891C297.976 129.175 298.165 135.539 298.689 141.805L296.599 142.045Z" fill="#FFDA2D"/>
<path d="M305.049 141.534L302.945 141.517L302.945 141.515L303.085 122.834L305.19 122.85L305.052 141.192L305.052 141.192L305.049 141.534Z" fill="#FFDA2D"/>
<path d="M297.75 131.495L297.658 129.401L301.736 129.223C302.432 129.193 303.297 129.156 304.134 129.444L303.445 131.424C302.988 131.266 302.398 131.291 301.829 131.317L297.75 131.495Z" fill="#FFDA2D"/>
<path d="M329.537 136.379C329.511 131.298 329.313 126.153 328.948 121.086L331.047 120.936C331.415 126.05 331.615 131.241 331.641 136.368L329.537 136.379Z" fill="#FFDA2D"/>
<path d="M331.899 139.599L329.795 139.607L329.801 141.091L331.905 141.084L331.899 139.599Z" fill="#FFDA2D"/>
<path d="M311.717 141.269C311.233 141.271 310.748 141.183 310.291 141.001C308.965 140.474 307.96 139.244 307.303 137.347C306.651 135.461 306.511 133.725 306.887 132.187C307.372 130.2 308.761 128.622 310.511 128.069C312.593 127.41 314.934 128.403 315.73 130.281C316.123 131.208 316.106 132.17 316.03 133.071L315.959 133.903L315.129 134.02C313.276 134.281 311.387 134.453 309.515 134.531L309.427 132.437C310.939 132.374 312.463 132.248 313.967 132.06C313.959 131.713 313.912 131.381 313.791 131.096C313.419 130.22 312.184 129.739 311.147 130.066C310.109 130.394 309.239 131.422 308.931 132.682C308.652 133.824 308.774 135.164 309.293 136.665C309.741 137.96 310.339 138.764 311.071 139.055C311.646 139.283 312.376 139.164 312.847 138.764C313.318 138.364 313.552 137.665 313.417 137.063L315.47 136.604C315.779 137.975 315.285 139.448 314.212 140.359C313.514 140.951 312.618 141.265 311.717 141.269Z" fill="#FFDA2D"/>
<path d="M321.181 147.973C320.901 147.974 320.624 147.945 320.353 147.886C318.558 147.489 317.299 145.662 317.66 143.976L319.718 144.413C319.596 144.984 320.136 145.691 320.809 145.84C321.537 146.001 322.438 145.649 323.05 144.964C323.62 144.326 324.012 143.396 324.215 142.199C324.376 141.246 324.409 140.289 324.365 139.317C323.206 140.026 321.824 140.189 320.668 139.717C319.505 139.243 318.065 137.953 317.807 134.505C317.637 132.24 317.741 129.956 318.117 127.717L320.192 128.061C319.844 130.136 319.748 132.252 319.905 134.349C320.003 135.663 320.354 137.324 321.467 137.779C322.099 138.036 322.993 137.822 323.639 137.255C323.806 137.109 323.962 136.942 324.108 136.752C324.029 136.187 323.94 135.617 323.849 135.039C323.555 133.16 323.251 131.217 323.291 129.255C323.324 127.656 324.105 126.552 325.28 126.443L325.672 126.408L325.991 126.636C326.954 127.326 327.492 128.478 327.636 130.158C327.784 131.892 327.594 133.688 327.085 135.352C326.866 136.068 326.604 136.697 326.294 137.245C326.505 138.99 326.593 140.764 326.29 142.548C326.02 144.14 325.458 145.422 324.621 146.358C323.707 147.38 322.422 147.968 321.181 147.973ZM325.393 129.428C325.382 130.318 325.448 131.207 325.554 132.108C325.594 131.516 325.589 130.921 325.539 130.336C325.51 129.994 325.461 129.691 325.393 129.428Z" fill="#FFDA2D"/>
<path d="M235.647 45.5692C234.96 45.3388 235.405 45.514 235.422 45.5262L235.613 45.7047L235.539 45.8403L234.875 45.7674L235.236 46.0456L234.667 46.0049L235.082 46.3134L234.309 46.192L234.487 46.4173L234.489 46.5789L234.505 46.7489L234.294 46.8466L235.031 47.2773L234.079 47.0907L234.62 47.4519L234.781 47.6748L234.459 47.7183L234.43 47.8691L234.087 47.9029L234.427 48.197L234.65 48.4415L234.119 48.4049L234.476 48.6973L233.992 48.6778L234.629 49.0809L233.999 49.0047L234.337 49.3069L233.526 49.1558L234.4 49.6618L234.114 49.7155L233.405 49.6038L233.931 49.9724L233.741 50.066L233.234 50.031L234.017 50.5026L233.876 50.6111L233.514 50.6309L233.777 50.901L233.296 50.8674L233.186 50.9867L233.798 51.3962L232.882 51.1922L233.05 51.4243L232.883 51.5217L233.414 51.9016L232.703 51.7742L233.234 52.1561L232.985 52.22L232.506 52.1881L232.859 52.4949L232.563 52.5378L232.639 52.7276L232.843 52.9779L232.911 53.1685L232.91 53.3344L232.632 53.3834L232.649 53.5554L232.564 53.686L232.166 53.6818L232.199 53.862L232.702 54.2427L232.614 54.3718L232.539 54.5074L232.116 54.4918L232.065 54.6369C232.089 54.7036 232.134 54.7781 232.165 54.8461L231.887 54.8931L232.486 55.3216L232.214 55.37L232.349 55.6035L231.995 55.6145L232.069 55.8145L232.129 56.0058C232.144 56.0518 231.857 55.9636 232.217 56.163C232.275 56.1947 232.196 56.1966 232.985 56.5473L233.351 56.7086L233.997 56.9884L234.402 57.1775C234.438 57.1948 234.476 57.2076 234.515 57.2157C234.565 57.1931 234.469 57.1078 234.454 57.058L234.526 56.9187L234.465 56.7273L234.771 56.6973L235.169 56.7035L235.054 56.482L235.398 56.46L235.272 56.2336C235.284 56.1808 235.292 56.1273 235.297 56.0734L235.487 55.9817L235.141 55.6625L235.526 55.6581L235.821 55.6134L235.616 55.3553L236.076 55.3811L236.071 55.208L235.994 55.0045L236.516 55.0538L236.17 54.7365L235.873 54.4422L236.523 54.5439C236.572 54.5076 236.615 54.4678 236.664 54.4315L236.024 53.9971L236.77 54.1369L236.271 53.7617L236.399 53.6445L236.558 53.5401L237.047 53.5691L237.197 53.4596L236.596 53.0155L236.579 52.8435L237.536 53.0592L236.897 52.6346L237.027 52.5173L237.75 52.6436L237.28 52.2951L236.943 51.9927L237.897 52.2009L237.195 51.7549L237.798 51.8199L237.4 51.496L238.135 51.6211L237.406 51.1679L237.962 51.2159L237.566 50.8937L238.291 51.0039L237.889 50.6804L237.872 50.5045L238.721 50.6361L238.751 50.4792L238.666 50.2785L237.942 49.8366L238.106 49.7296L238.807 49.8383L239.011 49.7453L238.205 49.276L238.927 49.3766L238.453 49.0286L238.808 48.9937L238.585 48.7493L238.645 48.5914L238.756 48.4641L239.34 48.5093L239.494 48.3975L239.549 48.25L238.886 47.8436L239.282 47.8185L239.974 47.8984L239.934 47.7169C239.857 47.6337 239.763 47.5363 239.68 47.4597L240.094 47.4387L239.489 47.0562L239.723 47.0845L239.906 47.1079C239.928 47.1058 240.059 47.1403 239.796 47.034C239.532 46.9276 238.876 46.6844 237.32 46.1427L235.647 45.5692Z" fill="#FFBCA5"/>
<path d="M250.397 50.4822C249.941 49.9276 250.205 50.3013 250.206 50.3132L250.204 50.4192C250.202 50.4479 250.205 50.4766 250.213 50.5043L250.217 50.5498L250.059 50.6773L249.519 50.3308L249.643 50.8141L249.155 50.5324L249.296 51.032L248.672 50.5839L248.66 50.8947L248.534 51.0649L248.424 51.2516L248.161 51.2554L248.524 52.019L247.771 51.4356L248.007 52.0358L247.994 52.3368L247.659 52.2559L247.519 52.4055L247.168 52.3081L247.282 52.7525L247.316 53.0988L246.836 52.8562L246.954 53.3022L246.499 53.0812L246.82 53.7529L246.271 53.4373L246.406 53.8935L245.73 53.4325L246.216 54.2918L245.904 54.2485L245.291 53.8772L245.55 54.4652L245.311 54.5047L244.85 54.2902L245.289 55.0743L245.095 55.1453L244.725 55.0458L244.808 55.4372L244.351 55.2464L244.16 55.3451L244.499 55.9951L243.723 55.472L243.741 55.7858L243.514 55.8422L243.803 56.4312L243.166 56.0802L243.459 56.6688L243.176 56.6706L242.725 56.4972L242.877 56.9398L242.559 56.9131L242.519 57.1608L242.572 57.5012L242.523 57.7358L242.42 57.9177L242.109 57.8964L242.022 58.0928L241.857 58.2149L241.444 58.1016L241.37 58.3087L241.667 58.8789L241.498 58.9974C241.446 59.0405 241.396 59.0873 241.347 59.1322L240.914 59.0029L240.78 59.1559L240.762 59.4154L240.429 59.3842L240.839 60.0372L240.526 60.024L240.557 60.3327C240.428 60.3067 240.302 60.2832 240.178 60.262L240.159 60.5157L240.131 60.7602C240.113 60.8099 239.889 60.6701 240.178 60.9934C240.225 61.0447 240.158 61.0432 240.786 61.6029L241.088 61.853L241.608 62.3073C241.744 62.4374 241.89 62.5566 242.045 62.664C242.124 62.6662 242.097 62.5769 242.096 62.5091L242.235 62.3715L242.262 62.1331L242.598 62.1741L243.011 62.2933L242.994 62.0153C243.115 62.0393 243.24 62.065 243.354 62.0837L243.314 61.7819L243.403 61.5994L243.633 61.5488L243.436 61.0967L243.826 61.1982L244.136 61.2257L244.053 60.8781L244.496 61.0344L244.574 60.841L244.596 60.5931L245.079 60.7933L244.899 60.3475L244.76 59.9395L245.34 60.2362L245.533 60.1572L245.149 59.4997L245.801 59.8792L245.525 59.3189L245.718 59.234L245.93 59.1731L246.389 59.3638L246.596 59.2995L246.244 58.6667L246.332 58.4783L247.129 59.0273L246.761 58.3622L246.954 58.2813L247.575 58.6578L247.321 58.1193L247.178 57.6838L247.962 58.2421L247.558 57.5226L248.084 57.8066L247.902 57.323L248.523 57.7174L248.122 56.9657L248.615 57.2229L248.439 56.7407L249.05 57.1322L248.874 56.646L248.966 56.4591L249.657 56.9487L249.783 56.8004L249.83 56.562L249.445 55.8366L249.666 55.7949L250.25 56.1771L250.494 56.1671L250.062 55.3624L250.655 55.7636L250.449 55.2204L250.796 55.3322L250.762 54.9879L250.904 54.8561L251.097 54.7771L251.592 55.0741L251.805 55.0312L251.954 54.9107L251.633 54.2229L252.005 54.3761L252.566 54.7666C252.593 54.7015 252.624 54.6384 252.66 54.5775L252.626 54.2332L253.034 54.4389L252.77 53.7955C252.835 53.845 252.905 53.9021 252.956 53.933L253.085 54.0202C253.1 54.0307 253.187 54.1122 253.023 53.8745L252.846 53.6321L252.544 53.2323L251.458 51.8325C250.927 51.1314 250.592 50.7288 250.397 50.4822Z" fill="#FFBCA5"/>
<path d="M253.244 64.3536C253.031 63.7109 253.151 64.1311 253.153 64.1465L253.148 64.2424C253.152 64.2848 253.159 64.358 253.149 64.3552L253.05 64.3863L252.775 63.8723L252.803 64.3055L252.553 63.8785L252.599 64.3411L252.29 63.7214L252.258 63.9601L252.174 64.0384L252.096 64.1355L251.95 64.0234L252.079 64.7658L251.72 63.9857L251.792 64.5508L251.754 64.7764L251.578 64.566L251.485 64.6179L251.302 64.3868L251.318 64.7745L251.297 65.0509L251.05 64.6529L251.065 65.0406L250.841 64.6851L250.94 65.3351L250.685 64.8484L250.704 65.2532L250.384 64.5977L250.552 65.4647L250.385 65.2865L250.098 64.7309L250.167 65.2846L250.032 65.2025L249.803 64.8359L249.944 65.6198L249.821 65.5755L249.633 65.3313L249.625 65.6493L249.403 65.2974L249.289 65.2813L249.383 65.9124L249.035 65.1682L249 65.4032L248.869 65.3363L248.938 65.8958L248.651 65.3402L248.72 65.8978L248.565 65.7592L248.345 65.4151L248.36 65.8028L248.195 65.6244L248.135 65.782L248.112 66.049L248.049 66.1914L247.965 66.2717L247.804 66.1085L247.726 66.2037L247.619 66.2142L247.422 65.9398L247.347 66.0522L247.4 66.5822L247.29 66.5833L247.185 66.5936L246.978 66.2909L246.88 66.3239L246.82 66.4834L246.65 66.292L246.743 66.9231L246.573 66.7335L246.531 66.9439L246.333 66.6656L246.271 66.808L246.205 66.9429C246.19 66.9775 246.072 66.6932 246.173 67.0842C246.179 67.1497 246.146 67.0868 246.41 67.9075L246.534 68.2845L246.754 68.9576L246.895 69.372C246.905 69.4099 246.919 69.4469 246.937 69.4826C246.972 69.5025 246.957 69.3717 246.971 69.3274L247.067 69.285L247.12 69.1104L247.29 69.298L247.488 69.5763L247.526 69.3527L247.703 69.5649L247.741 69.3393L247.825 69.2572L247.959 69.3335L247.94 68.9306L248.132 69.1881L248.297 69.3665L248.32 69.0956L248.535 69.4209L248.615 69.3313L248.675 69.1775L248.905 69.5557L248.89 69.168L248.887 68.82L249.154 69.3134L249.279 69.3575L249.182 68.7131L249.481 69.3007L249.429 68.7725L249.548 68.8036L249.677 68.863L249.901 69.2185L250.026 69.2704L249.939 68.6524L250.019 68.5627L250.378 69.337L250.279 68.6871L250.399 68.722L250.689 69.2889L250.639 68.7782L250.626 68.3902L250.984 69.1646L250.867 68.4522L251.119 68.908L251.089 68.4693L251.384 69.0493L251.258 68.3144L251.507 68.7337L251.477 68.2969L251.77 68.8694L251.737 68.427L251.815 68.3317L252.144 69.0156L252.236 68.9636L252.296 68.808L252.17 68.0769L252.301 68.1457L252.589 68.7013L252.732 68.8059L252.584 68.0012L252.878 68.5737L252.829 68.0764L253.017 68.3187L253.04 68.0478L253.138 68.009L253.254 68.0307L253.506 68.4807L253.635 68.542L253.736 68.5146L253.63 67.84L253.831 68.1219L254.12 68.6773L254.197 68.5763L254.215 68.2885L254.43 68.6234L254.34 68.0018L254.435 68.187L254.507 68.324C254.509 68.3413 254.561 68.4472 254.494 68.191C254.427 67.9348 254.231 67.3138 253.77 65.882L253.244 64.3536Z" fill="#FFBCA5"/>
<path d="M194.235 235.416C194.335 242.273 197.865 246.94 205.555 246.722L219.855 246.815C227.249 246.645 233.415 251.646 234.765 259.282L234.834 259.645L186.274 273.851L166.47 257.422L164.53 270.308L149.119 267.796L153.72 239.362L194.235 235.416Z" fill="#E7F1FF"/>
<path d="M186.122 274.786C185.955 274.758 185.799 274.687 185.668 274.579L167.157 259.224L165.468 270.45C165.449 270.574 165.406 270.693 165.341 270.8C165.276 270.907 165.19 271 165.089 271.074C164.987 271.147 164.872 271.2 164.75 271.229C164.628 271.258 164.501 271.263 164.378 271.243L148.966 268.731C148.718 268.691 148.496 268.554 148.349 268.35C148.202 268.146 148.142 267.892 148.183 267.644L152.784 239.21C152.818 239.004 152.919 238.815 153.071 238.672C153.224 238.529 153.419 238.441 153.628 238.42L194.142 234.474C194.273 234.461 194.405 234.476 194.529 234.517C194.654 234.557 194.769 234.623 194.867 234.711C194.965 234.798 195.043 234.905 195.098 235.024C195.152 235.143 195.181 235.272 195.183 235.403C195.234 238.883 196.228 241.647 198.057 243.396C199.803 245.066 202.317 245.867 205.528 245.776L205.56 245.776L219.86 245.869C227.763 245.688 234.286 251.136 235.699 259.118L235.766 259.47C235.809 259.7 235.766 259.939 235.643 260.14C235.52 260.34 235.327 260.487 235.101 260.553L186.541 274.76C186.405 274.8 186.262 274.808 186.122 274.786ZM150.207 267.015L163.735 269.219L165.532 257.281C165.557 257.115 165.626 256.959 165.731 256.828C165.836 256.698 165.975 256.598 166.132 256.538C166.289 256.478 166.459 256.461 166.625 256.489C166.791 256.516 166.946 256.587 167.075 256.695L186.492 272.802L233.74 258.978C232.323 252.189 226.688 247.603 219.876 247.761L205.565 247.669C201.837 247.771 198.868 246.794 196.745 244.761C194.733 242.835 193.561 239.979 193.327 236.454L154.54 240.233L150.207 267.015Z" fill="#3C4043"/>
<path d="M222.685 240.676C222.654 241.136 222.537 241.587 222.339 242.004C222.087 242.528 221.726 242.991 221.279 243.361C220.832 243.732 220.31 244.002 219.75 244.152L206.967 247.582C206.836 247.617 206.698 247.624 206.564 247.601C206.43 247.578 206.302 247.527 206.19 247.45L198.01 241.875C197.505 241.537 197.09 241.078 196.805 240.541C196.519 240.003 196.37 239.403 196.372 238.793C196.383 238.167 196.545 237.552 196.845 237.003C197.145 236.453 197.575 235.985 198.096 235.638C198.574 235.308 199.12 235.088 199.693 234.995C200.266 234.902 200.853 234.938 201.411 235.1C201.954 235.251 202.456 235.521 202.881 235.891C203.306 236.261 203.643 236.721 203.868 237.238L206.807 244.032L216.178 237.062C216.666 236.697 217.23 236.448 217.828 236.332C218.426 236.216 219.042 236.237 219.63 236.393C220.187 236.531 220.705 236.794 221.146 237.161C221.587 237.528 221.94 237.99 222.178 238.513L222.377 238.943C222.619 239.487 222.724 240.081 222.685 240.676ZM208.345 245.25L219.253 242.323C219.549 242.245 219.826 242.103 220.063 241.909C220.3 241.714 220.493 241.471 220.628 241.195C220.739 240.966 220.798 240.717 220.802 240.463C220.807 240.209 220.756 239.958 220.653 239.726L220.456 239.3C220.334 239.034 220.153 238.8 219.928 238.615C219.702 238.429 219.438 238.297 219.155 238.228C218.84 238.144 218.51 238.133 218.19 238.194C217.87 238.256 217.569 238.389 217.307 238.584L208.345 245.25ZM198.27 238.688C198.268 238.726 198.265 238.764 198.266 238.802C198.267 239.102 198.343 239.396 198.485 239.66C198.627 239.923 198.832 240.147 199.082 240.311L204.828 244.228L202.132 237.991C202.018 237.732 201.847 237.502 201.633 237.317C201.418 237.132 201.165 236.997 200.892 236.922C200.602 236.838 200.296 236.819 199.998 236.867C199.699 236.915 199.415 237.03 199.166 237.202C198.913 237.364 198.7 237.582 198.545 237.84C198.389 238.098 198.295 238.388 198.27 238.688L198.27 238.688Z" fill="#FFDA2D"/>
<path d="M1.32149 206.272L27.9333 192.279L46.6665 227.997C41.225 233.992 40.8625 241.927 43.0591 250.055C44.9961 257.213 41.0208 264.509 33.8701 267.652L33.5628 267.814L12.0534 226.735L20.0397 213.908L8.57399 220.1L1.32149 206.272Z" fill="#E7F1FF"/>
<path d="M32.7244 268.253C32.8412 268.476 33.0415 268.643 33.2813 268.718C33.5211 268.793 33.7807 268.77 34.003 268.654L34.2824 268.507C41.9183 265.134 45.994 257.275 43.9732 249.809C41.5641 240.895 42.706 233.769 47.3678 228.635C47.4983 228.492 47.5814 228.311 47.6059 228.118C47.6304 227.926 47.5951 227.73 47.5048 227.558L28.7716 191.84C28.6548 191.617 28.4545 191.45 28.2147 191.375C27.9749 191.3 27.7153 191.323 27.493 191.44L0.881114 205.433C0.658813 205.549 0.492014 205.749 0.417418 205.989C0.342825 206.229 0.366548 206.489 0.48336 206.712L7.73586 220.54C7.79414 220.651 7.87385 220.75 7.97039 220.83C8.06692 220.91 8.17835 220.97 8.29822 221.007C8.41809 221.044 8.54402 221.056 8.66869 221.044C8.79337 221.031 8.91433 220.994 9.02454 220.935L17.3467 216.441L11.2497 226.232C11.1625 226.373 11.1134 226.533 11.1073 226.698C11.1012 226.863 11.1383 227.027 11.215 227.174L32.7244 268.253L32.7244 268.253ZM45.5254 227.86C40.7694 233.457 39.6318 241.002 42.1445 250.302C43.879 256.709 40.453 263.464 33.9747 266.561L13.144 226.776L20.843 214.41C20.9534 214.233 21.002 214.024 20.9814 213.816C20.9608 213.608 20.872 213.412 20.7289 213.26C20.5858 213.107 20.3965 213.006 20.1903 212.973C19.9841 212.939 19.7727 212.974 19.589 213.073L8.96623 218.81L2.59959 206.671L27.5358 193.559L45.5254 227.86Z" fill="#3C4043"/>
<path d="M52.5988 233.421C52.8801 233.759 53.0878 234.153 53.2085 234.576C53.3292 234.999 53.3603 235.442 53.2997 235.877C53.2333 236.369 53.0572 236.84 52.7844 237.254C52.5116 237.668 52.1491 238.016 51.7237 238.271L43.3028 243.453L51.5568 251.325C52.0621 251.827 52.385 252.483 52.4737 253.189C52.5624 253.896 52.4119 254.611 52.0461 255.22L51.9318 255.405C51.6191 255.932 51.1674 256.364 50.626 256.653C50.0846 256.941 49.4742 257.076 48.8612 257.041C48.2964 257.018 47.749 256.837 47.2807 256.519C46.8124 256.202 46.4416 255.76 46.2101 255.244L40.8805 243.66C40.8102 243.507 40.7817 243.338 40.7978 243.171C40.814 243.004 40.8742 242.845 40.9723 242.709L47.4618 233.726C47.7549 233.328 48.1308 232.997 48.5638 232.758C48.9969 232.519 49.4766 232.377 49.9703 232.341C50.4258 232.305 50.8837 232.369 51.3127 232.528C51.7416 232.686 52.1315 232.935 52.4557 233.258C52.5044 233.31 52.5516 233.364 52.5988 233.421ZM45.2449 240.028L50.73 236.652L50.7361 236.647C50.9199 236.538 51.0768 236.389 51.1951 236.211C51.3134 236.033 51.3901 235.83 51.4194 235.618C51.4522 235.435 51.4414 235.247 51.3881 235.068C51.3348 234.89 51.2404 234.727 51.1124 234.591C50.9845 234.456 50.8267 234.353 50.6516 234.289C50.4766 234.226 50.2892 234.205 50.1046 234.228C49.8849 234.244 49.6713 234.307 49.4786 234.414C49.2859 234.521 49.1185 234.668 48.988 234.845L45.2449 240.028ZM48.1029 254.732C48.2107 254.856 48.3428 254.958 48.4911 255.029C48.6394 255.101 48.8007 255.141 48.9651 255.148C49.2354 255.162 49.5041 255.101 49.7418 254.972C49.9795 254.843 50.1771 254.651 50.313 254.417L50.4284 254.231C50.572 253.988 50.6309 253.703 50.5958 253.423C50.5607 253.142 50.4337 252.88 50.2345 252.679L44.6742 247.376L47.9331 254.458C47.9773 254.556 48.0344 254.648 48.1029 254.732Z" fill="#FFDA2D"/>
</svg>
