<svg xmlns="http://www.w3.org/2000/svg" fill="none" viewBox="0 0 355 283"><path fill="#E7F1FF" d="M354.009 39.288v-1.006h-.041L353.961 0H24v281h330.009l-.007-40.532h.007v-1.006h-.007l-.007-39.241h.013v-1.006h-.013l-.007-39.192h.02v-1.006h-.02l-.007-39.239h.027v-1.006h-.027l-.007-39.24h.034v-1.006h-.034l-.007-39.239h.042zm-1.052-38.186v37.18h-39.196V1.102h39.196zm-40.199 0v37.18h-40.486V1.102h40.486zM188.813 119.78h40.964v39.239h-40.964v-39.239zm-1.004 39.239h-40.964v-39.239h40.964v39.239zm1.004-40.245v-39.24h40.964v39.24h-40.964zm-1.004 0h-40.964v-39.24h40.964v39.24zm-41.968 0h-41.014v-39.24h41.012l.002 39.24zm0 1.006v39.239h-41.014v-39.239h41.014zm0 40.245v39.191h-41.014v-39.191h41.014zm1.004 0h40.964v39.191h-40.964v-39.191zm41.968 0h40.964v39.191h-40.964v-39.191zm41.968 0h40.487v39.191h-40.487v-39.191zm0-1.006v-39.239h40.487v39.239h-40.487zm0-40.245v-39.24h40.487v39.24h-40.487zm0-40.246v-39.24h40.487v39.24h-40.487zm-1.004 0h-40.964v-39.24h40.964v39.24zm-41.968 0h-40.964v-39.24h40.964v39.24zm-41.968 0h-41.014v-39.24h41.012l.002 39.24zm-42.016 0H62.861v-39.24h40.964v39.24zm0 1.006v39.24H62.861v-39.24h40.964zm0 40.246v39.239H62.861v-39.239h40.964zm0 40.245v39.191H62.861v-39.191h40.964zm0 40.198v39.239H62.861v-39.24l40.964.001zm1.004 0h41.012v39.239h-41.014l.002-39.239zm42.016 0h40.964v39.239h-40.964v-39.239zm41.968 0h40.964v39.239h-40.964v-39.239zm41.968 0h40.487v39.239h-40.487v-39.239zm41.491 0h40.486v39.239h-40.486v-39.239zm0-1.007v-39.191h40.486v39.191h-40.486zm0-40.197v-39.239h40.486v39.239h-40.486zm0-40.245v-39.24h40.486v39.24h-40.486zm0-40.246v-39.24h40.486v39.24h-40.486zm-1.004-77.425v37.18h-40.487V1.102h40.487zm-41.491 0v37.18h-40.964V1.102h40.964zm-41.968 0v37.18h-40.964V1.102h40.964zm-41.968 0v37.18h-41.014V1.102h41.014zm-42.016 0v37.18H62.861V1.102h40.964zm-78.773 0h36.805v37.18H25.052V1.102zm0 38.185h36.805v39.24H25.052v-39.24zm0 40.246h36.805v39.24H25.052v-39.24zm0 40.246h36.805v39.239H25.052v-39.239zm0 40.245h36.805v39.191H25.052v-39.191zm0 40.198h36.805v39.239H25.052v-39.239zm0 79.724v-39.479h36.805v39.479H25.052zm37.809 0v-39.479h40.964v39.479H62.861zm41.968 0v-39.479h41.012v39.479h-41.012zm42.016 0v-39.479h40.964v39.479h-40.964zm41.968 0v-39.479h40.964v39.479h-40.964zm41.968 0v-39.479h40.487v39.479h-40.487zm41.491 0v-39.479h40.486v39.479h-40.486zm80.687 0h-39.198v-39.479h39.196l.002 39.479zm0-40.485h-39.198v-39.24h39.196l.002 39.24zm0-40.245h-39.198v-39.192h39.196l.002 39.192zm0-40.198h-39.198v-39.239h39.196l.002 39.239zm0-40.245h-39.198v-39.24h39.196l.002 39.24zm0-40.246h-39.198v-39.24h39.196l.002 39.24z"/><path fill="#fff" stroke="#3C4043" stroke-width="2" d="M79.463 161.591l-.068.516-.462.24-51.778 26.959 21.587 41.404 63.037-32.824a23.349 23.349 0 0 0 12.368-17.691h0l2.912-22.354-.086-.063.067-.577 4.009-34.286a54.406 54.406 0 0 1-5.134 4.854c-3.408 2.836-7.378 6.045-11.328 8.194-3.909 2.128-8.077 3.371-11.738 1.812h0c-4.201-1.789-6.85-5.649-8.692-10.132-1.842-4.487-2.948-9.782-3.944-14.663a1464.617 1464.617 0 0 0-3.155-15.03 20 20 0 0 0-1.794 18.629l.101.247-.035.265-5.867 44.5zm49.731-4.66l9.997 7.377.338.249.059.416 10.403 74.052.045-.003a857.274 857.274 0 0 0 13.136-1.013c8.539-.721 20.321-1.826 33.552-3.377-2.417-14.527-4.267-26.794-6.115-39.054l-.001-.008c-1.893-12.551-3.785-25.096-6.284-40.061-.507-2.918-1.65-6.346-3.264-9.496-1.619-3.161-3.671-5.961-5.952-7.696l-.026-.02-.024-.021-31.577-27.466-7.846 6.462-.529.435-.597-.335c-.592-.333-1.052-.454-1.35-.471a.79.79 0 0 0-.264.021c0 .034.007.091.031.176.075.263.296.681.801 1.216l.552.586-.455.665-.342-.234.342.234-.001.001v.001l-.003.003-.007.011-.026.037a21.865 21.865 0 0 1-.39.529l-.043.545a544.608 544.608 0 0 0-.307 4.237l-.011.144a528.975 528.975 0 0 1-.32 4.396 69.898 69.898 0 0 1-.131 1.504 12.7 12.7 0 0 1-.056.48 3.387 3.387 0 0 1-.05.265l-3.285 25.213zm3.662-39.992l.002-.002-.002.002zm.041-.051c.004-.007.004-.011.004-.011-.001-.001-.002.003-.004.011z"/><path fill="#222433" stroke="#3C4043" stroke-width=".668" d="M140.223 164.63h0a.468.468 0 0 1-.099.352.486.486 0 0 1-.319.179h-.001l.419-.531zm0 0l-.934-7.868h0m.934 7.868l-.934-7.868m.458 8.736a.81.81 0 0 1-.806-.716l.806.716zm0 0v-.334m0 .334v-.334m-.458-8.402l-.001-.003m.001.003l-.001-.003m0 0a.479.479 0 1 0-.95.113v.003m.95-.116l-.95.116m0 0l.935 7.867h0m-.935-7.867l.935 7.867m0 0a.473.473 0 0 0 .157.301m-.157-.301l.157.301m0 0c.087.078.2.121.317.121m-.317-.121l.317.121M78.517 163.15a.478.478 0 0 0 .258.1h.039a.48.48 0 0 0 .223-.055h0l7.544-3.966a.475.475 0 0 0 .19-.64.482.482 0 0 0-.637-.205l-7.544 3.966h0a.481.481 0 0 0-.242.538.478.478 0 0 0 .17.262z"/><path fill="#FFED96" stroke="#3C4043" stroke-width=".668" d="M203.566 97.82h0l-.003-.01-3.236-10.78-4.864-7.603a13.158 13.158 0 0 0-6.944.75l-.009.002-.008.003-16.993 5.692-.071.024-.074-.009-18.978-2.187-.142-.017-.086-.114-5.016-6.68h0l-.006-.009-8.36-11.973a13.226 13.226 0 0 0-9.644-5.596h0a72.097 72.097 0 0 0-5.11-.234h-.008l-20.568-.28-12.631 1.037A17.912 17.912 0 0 0 78.71 68.82a17.882 17.882 0 0 0-.939 15.056l16.755 42.795.01.026.006.027a13.198 13.198 0 0 0 4.6 7.528 13.217 13.217 0 0 0 7.983 2.947v-.007l.334.001a13.197 13.197 0 0 0 8.242-2.882h0l28.829-22.985.204-.162.207.159 7.248 5.575.007.006.007.006a13.214 13.214 0 0 0 13.46 2.284l.001-.001 32.933-13.393c3.302-1.719 4.517-3.742 4.93-5.296a5.615 5.615 0 0 0 .172-1.944 4.545 4.545 0 0 0-.121-.7 1.185 1.185 0 0 0-.009-.034l-.003-.006z"/><path fill="#222433" stroke="#3C4043" stroke-width=".668" d="M204.662 97.48l-3.25-10.825m3.25 10.826c.118.398 1.509 5.676-5.549 9.343a.843.843 0 0 1-.068.032l-32.96 13.403m38.577-22.778l-.319.096-.001-.001L90.728 59.029l12.668-1.039h.003v0a.339.339 0 0 1 .039-.001h.003l20.563.279h.009v0c.674-.01 3.422.074 5.193.237h0a14.01 14.01 0 0 1 10.236 5.94h.001l8.352 11.963.006.01h.001l4.797 6.386.086.115.143.016 18.45 2.127.074.009.071-.024 16.802-5.63.008-.002.008-.003a14.01 14.01 0 0 1 7.507-.762m8.914 18.83l-.32.095-3.249-10.824h0a.514.514 0 0 0-.055-.12h-.001l-4.968-7.767.281-.18m5.062 7.971l-35.327 33.604m35.327-33.604a.803.803 0 0 0-.093-.204l-4.969-7.767m5.062 7.971l-5.607-8.334m-29.72 41.938l-.126-.309h.002l.002-.001.122.31zm30.265-41.575l-.281.18a.483.483 0 0 0-.321-.214m.602.034a.824.824 0 0 0-.545-.363m-.057.33s0 0 0 0l.057-.33m-.057.33l.057-.33m0 0a14.346 14.346 0 0 0-7.686.78m7.686-.78l-7.686.78m0 0l-16.802 5.63m16.802-5.63l-16.802 5.63m0 0l-18.451-2.127m18.451 2.127l-18.451-2.127m0 0l-4.798-6.387m4.798 6.387l-4.798-6.387m0 0l-8.352-11.963m8.352 11.963l-8.352-11.963m0 0a14.362 14.362 0 0 0-10.479-6.082m10.479 6.082l-10.479-6.081m0 0c-1.783-.164-4.542-.248-5.229-.239m5.229.239l-5.229-.239m0 0l-20.562-.279 20.562.279zm-16.538 79.114h.001a13.1 13.1 0 0 0 8.14-2.85v-.001l28.83-22.982a.486.486 0 0 1 .591-.005h0l7.248 5.575.008.007.006.004.003.002-.003-.002-44.824 20.252zm0 0h-.011m.011 0h-.011m0 0h0m0 0h0m0 0a.474.474 0 0 0-.075.006l-.029.004m.104-.01l-.104.01m0 0h-.029m.029 0h-.029m0 0a13.124 13.124 0 0 1-12.644-10.363v-.001m12.644 10.364l-12.645-10.364m0 0a.498.498 0 0 0-.022-.076s0 0 0 0L77.904 83.823a17.736 17.736 0 0 1 5.928-20.699 17.766 17.766 0 0 1 6.981-3.14l.02-.005m3.848 66.715l-3.848-66.715m0 0l.021-.002m-.02.002l.02-.002m0 0l12.579-1.031.016-.002m-12.595 1.033l12.595-1.033m0 0h.016m-.016 0h.016m0 0l20.536.279h.005c.578-.005 3.308.068 5.11.233a13.07 13.07 0 0 1 9.539 5.536s0 0 0 0l8.36 11.972h0m-43.55-18.02l43.55 18.02m0 0l.005.007m-.005-.007l.005.007m0 0h0m0 0h0m0 0l.005.007.001.002 5.015 6.677h.001m-5.022-6.686l5.022 6.686m0 0a.48.48 0 0 0 .328.188l18.977 2.188h0m-19.305-2.376l19.305 2.376m0 0c.07.008.141 0 .208-.022h0m-.208.022l.208-.022m0 0l16.994-5.692h0m-16.994 5.692l16.994-5.692m0 0l.014-.005a.022.022 0 0 1 .005-.002l.004-.001m-.023.007l.023-.007m0 0a13.06 13.06 0 0 1 6.653-.775l.151.022m-6.804.752l6.804-.752m0 0l.082.128m-.082-.128l.082.128m0 0l4.711 7.364.025.04m-4.736-7.404l4.736 7.403m0 0l.014.045m-.014-.044l.014.044m0 0l3.217 10.716v.001l.005.015v.001c.041.13.37 1.269-.091 2.788-.467 1.536-1.728 3.408-4.788 5.007l-.015.008m1.672-18.536l-1.672 18.536m0 0l-.014.006m.014-.006l-.014.006m0 0l-32.914 13.385-.003.002m32.917-13.387l-32.917 13.387m0 0a12.994 12.994 0 0 1-4.931.903l4.931-.903zm-49.396 15.881l.208.261-.208-.261h0zm-17.542-.054a14.088 14.088 0 0 0 8.639 3.124L90.728 59.029a.523.523 0 0 0-.058.008 18.725 18.725 0 0 0-12.674 9.396 18.694 18.694 0 0 0-.981 15.739l16.73 42.734.01.024.005.026a14.077 14.077 0 0 0 4.907 7.934zm53.633-18.089l.218-.253-.217.253h-.001z"/><mask id="a" fill="#fff"><path d="M110.922 28.423a8.69 8.69 0 0 0-12.514-6.767 8.688 8.688 0 0 0-4.684 9.245 8.683 8.683 0 0 0 7.509 7.147 8.696 8.696 0 0 0 5.355-1.073"/></mask><path fill="#FFF1ED" d="M110.922 28.423a8.69 8.69 0 0 0-12.514-6.767 8.688 8.688 0 0 0-4.684 9.245 8.683 8.683 0 0 0 7.509 7.147 8.696 8.696 0 0 0 5.355-1.073"/><path fill="#3C4043" d="M110.259 28.5a8.024 8.024 0 0 0-2.127-4.568l.971-.915a9.35 9.35 0 0 1 2.482 5.329l-1.326.154zm-2.127-4.568a8.026 8.026 0 0 0-4.435-2.398l.234-1.314a9.358 9.358 0 0 1 5.172 2.797l-.971.915zm-4.435-2.398a8.029 8.029 0 0 0-4.991.72l-.596-1.196a9.365 9.365 0 0 1 5.821-.838l-.234 1.314zm-4.991.72a8.02 8.02 0 0 0-3.576 3.552l-1.19-.604a9.357 9.357 0 0 1 4.17-4.144l.596 1.195zm-3.576 3.552a8.012 8.012 0 0 0-.749 4.982l-1.315.227a9.347 9.347 0 0 1 .873-5.813l1.191.604zm-.749 4.982a8.015 8.015 0 0 0 2.374 4.445l-.92.967a9.351 9.351 0 0 1-2.77-5.185l1.316-.227zm2.374 4.445a8.026 8.026 0 0 0 4.559 2.152l-.162 1.326a9.362 9.362 0 0 1-5.317-2.51l.92-.968zm4.559 2.152a8.027 8.027 0 0 0 4.944-.99l.661 1.16a9.366 9.366 0 0 1-5.767 1.156l.162-1.326z" mask="url(#a)"/><path fill="#222433" stroke="#3C4043" stroke-width=".668" d="M144.74 112.065s0 0 0 0a.476.476 0 0 0 .275-.088h.001l6.5-4.61h0l.006-.004s0 0 0 0l.002-.002.009-.006a13.999 13.999 0 0 0 5.402-11.187.476.476 0 0 0-.485-.471.482.482 0 0 0-.439.3.5.5 0 0 0-.034.184h0a13.018 13.018 0 0 1-5.017 10.408l-.006.004-.006.005-6.486 4.599h0a.475.475 0 0 0-.179.535.48.48 0 0 0 .456.333s0 0 0 0h.001zM116.192 100.215h0a.483.483 0 0 0 .299-.104l18.151-14.466a11.225 11.225 0 0 1 5.599-2.363h.002a.476.476 0 0 0 .417-.534.467.467 0 0 0-.182-.319.478.478 0 0 0-.355-.096h-.001a12.183 12.183 0 0 0-6.077 2.564h0l-17.121 13.645-.423.337-.112-.53-3.621-17.215h0l-.001-.005a.472.472 0 0 0-.568-.376.48.48 0 0 0-.373.385l-.328-.058.328.058a.496.496 0 0 0 .004.188h.001v.004l3.893 18.506h0a.473.473 0 0 0 .468.379z"/><mask id="b" fill="#fff"><path d="M200.742 85.347c3.873-1.566 6.208-5.732 9.71-9.05 4.85-4.587 7.551-7.988 7.201-9.558-.79-3.609-7.61 3.486-15.665 7.428l-.121.053c-.571.244-1.124.528-1.656.848a64.882 64.882 0 0 0-7.674 5.288c-5.619 4.6-.455 14.623 4.447 16.82a9.84 9.84 0 0 0 11.012-2.127c3.672-3.801 5.053-7.705 13.159-6.79 3.659.414 9.067 1.62 9.321-2.007.175-2.514-6.101-4.201-10.683-5.615 6.8-1.046 15.703-2.43 15.431-5.67-.272-3.241-6.833-2.863-15.636-1.436 9.392-3.336 14.787-3.737 14.174-6.82-.638-3.205-8.68-2.144-16.106.041"/></mask><path fill="#FFF1ED" d="M200.742 85.347c3.873-1.566 6.208-5.732 9.71-9.05 4.85-4.587 7.551-7.988 7.201-9.558-.79-3.609-7.61 3.486-15.665 7.428l-.121.053c-.571.244-1.124.528-1.656.848a64.882 64.882 0 0 0-7.674 5.288c-5.619 4.6-.455 14.623 4.447 16.82a9.84 9.84 0 0 0 11.012-2.127c3.672-3.801 5.053-7.705 13.159-6.79 3.659.414 9.067 1.62 9.321-2.007.175-2.514-6.101-4.201-10.683-5.615 6.8-1.046 15.703-2.43 15.431-5.67-.272-3.241-6.833-2.863-15.636-1.436 9.392-3.336 14.787-3.737 14.174-6.82-.638-3.205-8.68-2.144-16.106.041"/><path fill="#3C4043" d="M210.452 76.296l-.46-.484h.001l.459.484zm7.201-9.557l-.652.145v-.002l.652-.143zm-15.665 7.428l.294.6-.014.007-.015.006-.265-.613zm-.121.053l.264.613h-.001l-.263-.613zm-1.656.848l.345.572-.006.004-.339-.576zm-7.674 5.288l-.423-.517.006-.005.417.522zm4.447 16.82l-.27.611-.003-.001.273-.61zm11.012-2.127l.481.464-.003.002-.478-.466zm13.159-6.79l.075-.663-.075.663zm9.321-2.007l.666.047-.666-.047zm-10.683-5.615l-.196.638.095-1.298.101.66zm-.205-7.106l.106.658-.33-1.288.224.63zm14.174-6.82l.654-.13-.654.13zm-33.27 18.017c1.792-.725 3.261-2.064 4.751-3.699 1.456-1.598 2.979-3.539 4.749-5.217l.919.969c-1.731 1.64-3.127 3.442-4.681 5.148-1.522 1.669-3.157 3.195-5.238 4.037l-.5-1.238zm9.501-8.917c2.415-2.284 4.273-4.252 5.479-5.83.604-.79 1.028-1.461 1.278-2.01.259-.565.291-.908.251-1.087l1.304-.29c.135.606-.04 1.277-.341 1.934-.308.674-.797 1.434-1.431 2.264-1.27 1.662-3.188 3.687-5.623 5.99l-.917-.97zm7.008-8.93c-.073-.333-.182-.406-.224-.428-.068-.035-.24-.075-.61.017-.753.189-1.841.796-3.26 1.712-2.76 1.783-6.551 4.59-10.625 6.585l-.587-1.2c3.98-1.947 7.626-4.658 10.487-6.506 1.392-.9 2.66-1.636 3.661-1.886.505-.126 1.059-.16 1.547.092.514.266.791.76.915 1.33l-1.304.285zm-14.748 7.9l-.122.052-.529-1.226.122-.053.529 1.226zm-.123.052c-.543.233-1.069.502-1.574.807l-.689-1.144a14.187 14.187 0 0 1 1.737-.89l.526 1.228zm-1.58.81a64.083 64.083 0 0 0-7.595 5.234l-.835-1.043a65.529 65.529 0 0 1 7.753-5.341l.677 1.15zm-7.59 5.229c-2.492 2.04-2.674 5.336-1.516 8.57 1.16 3.242 3.576 6.123 5.813 7.125l-.546 1.219c-2.665-1.195-5.282-4.424-6.525-7.894-1.244-3.476-1.199-7.493 1.928-10.053l.846 1.033zm4.293 15.694a9.177 9.177 0 0 0 5.444.614l.253 1.31c-2.102.407-4.277.161-6.236-.703l.539-1.221zm5.444.614a9.174 9.174 0 0 0 4.822-2.598l.955.933a10.504 10.504 0 0 1-5.524 2.976l-.253-1.311zm4.819-2.595c.902-.934 1.649-1.858 2.442-2.768.78-.895 1.589-1.756 2.559-2.47 1.983-1.457 4.534-2.223 8.713-1.75l-.15 1.326c-3.927-.444-6.12.285-7.772 1.5-.848.624-1.579 1.394-2.343 2.271-.753.863-1.555 1.852-2.488 2.819l-.961-.928zm13.714-6.989c1.901.215 4.059.605 5.826.509.875-.048 1.551-.214 2.007-.51.414-.27.697-.679.747-1.39l1.332.094c-.077 1.103-.566 1.904-1.351 2.415-.744.484-1.697.671-2.662.724-1.916.104-4.291-.317-6.049-.515l.15-1.327zm8.58-1.39c.022-.315-.147-.705-.715-1.182-.56-.471-1.401-.931-2.441-1.379-2.077-.894-4.741-1.655-7.057-2.37L219.99 80c2.265.7 5.03 1.489 7.192 2.42 1.081.465 2.062.986 2.772 1.583.703.59 1.253 1.355 1.188 2.297l-1.332-.093zm-10.118-6.229c3.412-.525 7.291-1.126 10.283-1.993 1.5-.435 2.722-.922 3.539-1.467.827-.551 1.082-1.048 1.045-1.495l1.33-.111c.099 1.174-.657 2.065-1.635 2.717-.988.66-2.366 1.191-3.907 1.638-3.092.896-7.064 1.51-10.452 2.031l-.203-1.32zm14.867-4.955c-.045-.53-.325-.934-.955-1.251-.666-.336-1.676-.541-3.03-.606-2.698-.128-6.478.311-10.88 1.024l-.213-1.317c4.402-.714 8.304-1.176 11.156-1.04 1.42.067 2.652.285 3.567.746.952.479 1.594 1.243 1.685 2.333l-1.33.111zm-15.195-2.12c2.363-.84 4.473-1.494 6.292-2.05 1.828-.557 3.339-1.01 4.54-1.452 1.215-.448 2.015-.855 2.477-1.282.221-.203.346-.395.409-.582.064-.184.082-.405.025-.694l1.309-.26c.096.482.081.947-.071 1.388-.15.438-.42.81-.765 1.129-.671.62-1.691 1.1-2.922 1.554-1.246.46-2.806.925-4.612 1.477a141.742 141.742 0 0 0-6.235 2.03l-.447-1.259zm13.743-6.06c-.094-.473-.459-.873-1.296-1.15-.846-.28-2.048-.382-3.526-.315-2.942.134-6.751.93-10.44 2.016l-.377-1.281c3.737-1.1 7.662-1.927 10.756-2.069 1.541-.07 2.933.027 4.006.381 1.082.358 1.962 1.028 2.186 2.157l-1.309.261z" mask="url(#b)"/><path fill="#222433" stroke="#3C4043" stroke-width=".668" d="M219.662 74.002c2.571-.417 5.636-.859 8.313-1 1.338-.071 2.589-.067 3.639.055 1.035.121 1.927.363 2.502.81a1.542 1.542 0 0 1 .629 1.142c.028.342-.098.662-.317.948-.217.284-.537.55-.935.8-.797.5-1.971.975-3.468 1.41h0c-3.036.88-7.072 1.5-10.293 1.997l-.014.002s0 0 0 0a.481.481 0 0 0-.404.437.477.477 0 0 0 .336.492c.366.113.743.228 1.128.345h0l.009.003c1.697.516 3.984 1.212 5.834 1.99.924.389 1.76.806 2.362 1.242.3.218.557.45.737.7.178.246.294.528.276.834a1.882 1.882 0 0 1-.655 1.416h0l-.006.005c-.352.288-.816.458-1.322.557-.51.099-1.087.13-1.69.122-1.201-.016-2.548-.194-3.727-.349h-.008c-.48-.064-.944-.125-1.382-.174h-.001a20.095 20.095 0 0 0-2.25-.136c-2.617 0-4.429.615-5.859 1.539-1.443.931-2.516 2.186-3.652 3.517h0l10.271-18.375m-.053-.33l.053.33m-.053-.33s0 0 0 0l.053.33m-.053-.33a.48.48 0 0 1-.54-.353.476.476 0 0 1 .041-.343l-.295-.157m.847 1.183a.811.811 0 0 1-.847-1.183m0 0l.295.157a.477.477 0 0 1 .262-.226m-.557.07l.557-.07m0 0c2.597-.922 4.844-1.607 6.832-2.212m-6.832 2.212l6.832-2.212m-24.201 3.793c-.55.235-1.083.508-1.595.816l-.002.001.172.286 1.425-1.103zm0 0l.121-.052.002-.001a.429.429 0 0 0 .021-.01c3.05-1.493 5.857-3.387 8.352-5.072 1.159-.783 2.472-1.67 3.59-2.324.558-.326 1.079-.6 1.514-.775.217-.087.424-.154.609-.187.179-.032.379-.042.558.03a.447.447 0 0 1 .182.138.679.679 0 0 1 .082.136c.042.088.074.192.097.3m-15.128 7.817l15.128-7.818s0 0 0 0m0 0c.065.292.011.932-.873 2.279-.893 1.361-2.672 3.503-6.187 6.827a47.692 47.692 0 0 0-3.253 3.514h0m10.313-12.62l-10.313 12.62m0 0l-.003.004m.003-.004l-.003.004m0 0l-.034.038c-1.919 2.222-3.802 4.401-6.274 5.4h0m6.308-5.438l-6.308 5.439m0 0l-.004.002m.004-.002l-.004.002m0 0a.472.472 0 0 0-.271.625.49.49 0 0 0 .103.157l-.237.235m.405-1.017l-.405 1.017m0 0l.237-.235a.482.482 0 0 0 .527.104h0m-.764.131l.764-.131m0 0l.005-.002m-.005.002l.005-.002m0 0c2.673-1.081 4.584-3.283 6.673-5.7l.002-.003c.992-1.148 2.03-2.35 3.184-3.444h0m-9.859 9.147l9.859-9.148m0 0c2.924-2.764 4.733-4.771 5.83-6.259 1.1-1.49 1.464-2.432 1.539-3.065l.027-.221m-7.396 9.545l7.396-9.545m0 0l.213-.061m-.213.06l.213-.06m0 0c3.322-.947 6.35-1.548 8.788-1.77 1.219-.111 2.298-.129 3.197-.044.885.082 1.626.266 2.152.58a1.455 1.455 0 0 1 .764.997h0m-14.901.237l14.901-.237m0 0l.001.004m-.001-.004l.001.004m0 0c.092.464-.017.882-.316 1.251-.285.352-.735.652-1.31.934-1.151.565-2.954 1.13-5.407 1.877h0m7.033-4.062l-7.033 4.063m7.827-2.708c.207-.425.27-.922.147-1.54a2.445 2.445 0 0 0-1.189-1.622h0l-.009-.005c-.73-.442-1.762-.68-2.993-.757-1.226-.076-2.618.01-4.045.192-2.853.364-5.806 1.106-7.772 1.663l-.243.069-.132-.215a1.4 1.4 0 0 0-.668-.564c-.626-.25-1.481-.074-2.704.545-1.206.61-2.668 1.597-4.46 2.807-2.442 1.649-5.23 3.532-8.221 4.998l-.008.004-.007.003-.104.044h0c-.591.254-1.163.547-1.714.88l-.003.001a65.317 65.317 0 0 0-7.727 5.325c-2.046 1.677-2.932 4.144-2.527 7.186l-.331.044.331-.044c.283 2.121 1.221 4.364 2.515 6.266 1.296 1.906 2.926 3.439 4.567 4.174 1.311.583 2.73.885 4.165.886a10.404 10.404 0 0 0 7.381-3.11 42.5 42.5 0 0 0 1.795-2.011l.044-.052h0l.022-.025c1.266-1.484 2.406-2.82 4.024-3.681 1.64-.873 3.731-1.24 6.883-.885l-.038.332.038-.332c.435.049.894.109 1.364.171 1.416.186 2.895.38 4.232.356 1.343-.023 2.476-.265 3.244-.892a2.813 2.813 0 0 0 1.011-2.07h0l.001-.014c.074-1.062-.679-1.982-2.124-2.84-1.43-.847-3.42-1.561-5.562-2.24l.045-.648c3.784-.638 6.984-1.32 9.199-2.237 1.108-.458 1.942-.964 2.48-1.53.528-.555.768-1.164.709-1.865v-.005a2.473 2.473 0 0 0-.982-1.8h0l-.006-.004c-1.119-.874-3.183-1.266-6.793-1.071l-.117-.652c2.283-.706 4.033-1.306 5.149-2.05.551-.367.924-.755 1.133-1.185z"/><mask id="c" fill="#fff"><path d="M103.629 60.133a10.033 10.033 0 0 0 2.882 7.056 10.047 10.047 0 0 0 17.204-6.752v-.013l.039-1.423.154-5.58a15.885 15.885 0 0 0 11.05-10.712 15.86 15.86 0 0 0-3.231-15.042c.479-1.179.814-2.41.997-3.67v-.005a15.795 15.795 0 0 0-1.362-9.178l-8.681-1.266-11.375 1.619-2.44 6.766-3.791-2.437"/></mask><path fill="#FFF1ED" d="M103.629 60.133a10.033 10.033 0 0 0 2.882 7.056 10.047 10.047 0 0 0 17.204-6.752v-.013l.039-1.423.154-5.58a15.885 15.885 0 0 0 11.05-10.712 15.86 15.86 0 0 0-3.231-15.042c.479-1.179.814-2.41.997-3.67v-.005a15.795 15.795 0 0 0-1.362-9.178l-8.681-1.266-11.375 1.619-2.44 6.766-3.791-2.437"/><path fill="#3C4043" d="M123.715 60.437h.668v.019l-.668-.019zm0-.013h-.667v-.018l.667.018zm.039-1.423l-.667-.018.667.018zm.154-5.58l-.667-.018.014-.497.479-.13.174.645zm7.819-25.754l-.503.44-.27-.31.155-.381.618.251zm.997-3.67h.667v.049l-.007.048-.66-.096zm0-.005h-.668v-.05l.008-.05.66.1zm-1.362-9.178l.096-.66.353.05.153.322-.602.288zm-8.681-1.266l-.094-.661.096-.014.095.014-.097.66zm-11.375 1.619l-.628-.226.137-.378.397-.057.094.661zm-2.44 6.766l.628.226-.284.789-.705-.453.361-.562zm-4.569 38.2a9.363 9.363 0 0 0 2.69 6.588l-.952.936a10.703 10.703 0 0 1-3.074-7.526l1.336.003zm2.69 6.588a9.38 9.38 0 0 0 6.545 2.8l-.02 1.336a10.715 10.715 0 0 1-7.477-3.2l.952-.936zm6.545 2.8a9.382 9.382 0 0 0 6.628-2.6l.923.964a10.718 10.718 0 0 1-7.571 2.972l.02-1.335zm6.628-2.6a9.37 9.37 0 0 0 2.888-6.503l1.335.038a10.705 10.705 0 0 1-3.3 7.43l-.923-.965zm2.888-6.484v-.013h1.335v.013h-1.335zm0-.03l.039-1.424 1.335.036-.039 1.424-1.335-.037zm.039-1.424l.154-5.58 1.335.037-.154 5.58-1.335-.037zm.647-6.206a15.222 15.222 0 0 0 6.62-3.764l.93.959a16.562 16.562 0 0 1-7.201 4.094l-.349-1.29zm6.62-3.764a15.199 15.199 0 0 0 3.965-6.498l1.278.388a16.541 16.541 0 0 1-4.313 7.069l-.93-.96zm3.965-6.498c.749-2.467.858-5.084.317-7.604l1.305-.28a16.524 16.524 0 0 1-.344 8.272l-1.278-.388zm.317-7.604a15.207 15.207 0 0 0-3.412-6.805l1.006-.878a16.535 16.535 0 0 1 3.711 7.402l-1.305.28zm-3.527-7.495a15.13 15.13 0 0 0 .954-3.515l1.321.193a16.463 16.463 0 0 1-1.038 3.824l-1.237-.502zm.947-3.418v-.006h1.335v.006h-1.335zm.008-.106a15.129 15.129 0 0 0-1.304-8.79l1.204-.576a16.452 16.452 0 0 1 1.42 9.567l-1.32-.2zm-.798-8.417l-8.681-1.267.193-1.32 8.68 1.265-.192 1.322zm-8.49-1.266l-11.375 1.619-.189-1.322 11.375-1.62.189 1.323zm-10.842 1.184l-2.44 6.766-1.256-.453 2.44-6.765 1.256.452zm-3.429 7.102l-3.791-2.438.722-1.123 3.791 2.437-.722 1.124z" mask="url(#c)"/><path fill="#222433" stroke="#3C4043" stroke-width=".668" d="M124.378 53.789l-.007.239-.177 6.423a10.507 10.507 0 0 1-3.18 7.234 10.524 10.524 0 0 1-7.636 2.973 10.464 10.464 0 0 1-7.272-3.167 10.444 10.444 0 0 1-2.955-7.356v-.002a.475.475 0 0 1 .478-.477.48.48 0 0 1 .479.478h.334m19.936-6.345l6.878-26.043a.474.474 0 0 0 .111.235A15.39 15.39 0 0 1 134.5 42.57a15.385 15.385 0 0 1-4.014 6.579 15.41 15.41 0 0 1-6.702 3.81h0a.477.477 0 0 0-.354.449s0 0 0 0l-.192 7.003-.334-.009.334.01a9.56 9.56 0 0 1-2.943 6.637 9.57 9.57 0 0 1-13.439-.196 9.554 9.554 0 0 1-2.748-6.72h.334m19.936-6.344l.228-.071a16.345 16.345 0 0 0 7.796-25.994l-.121-.149.066-.18a16.537 16.537 0 0 0-.552-12.785.481.481 0 0 0-.363-.267h0l-8.68-1.267s0 0 0 0a.477.477 0 0 0-.136 0h-.001l-11.375 1.62h0a.484.484 0 0 0-.383.311h0l-2.094 5.806-.143.394-.352-.227-2.933-1.885-.001-.001a.479.479 0 0 0-.534.007l-.138-.2.138.2a.475.475 0 0 0-.195.496l-.326.072.326-.072a.471.471 0 0 0 .211.3l.001.002 3.792 2.437s0 0 0 0a.48.48 0 0 0 .709-.24h0l2.275-6.306.069-.188.198-.029 10.776-1.534.048-.006.047.007 8.126 1.183.183.027.074.168a15.309 15.309 0 0 1 1.14 8.49l-.002.012-.003.024-.001.006h0l-.001.003a15.302 15.302 0 0 1-.963 3.534l-6.906 26.302zm-19.936 6.345a.813.813 0 0 0-1.625-.002m1.625.002l-1.625-.002m0 0a10.778 10.778 0 0 0 3.05 7.592 10.797 10.797 0 0 0 7.505 3.268l-10.555-10.86zm29.43-36.179s0 0 0 0h0s0 0 0 0z"/><path fill="#fff" stroke="#3C4043" stroke-width="2" d="M113.749 15.2h.004l17.317-.436a15.65 15.65 0 0 0-25.854-3.391 15.624 15.624 0 0 0-3.71 8.254c.43-.02.945-.013 1.524.056 1.688.2 3.889.918 6.03 2.928h.001c.363.342.754.872 1.11 1.402.108.162.218.33.327.501l-.134-5.759v-.005a3.488 3.488 0 0 1 3.385-3.55zm17.697-.205h0z"/><path fill="#222433" stroke="#3C4043" stroke-width=".668" d="M104.107 60.137h0l.237-22.027h0a.48.48 0 0 0-.958-.01s0 0 0 0l-.237 22.027a.48.48 0 0 0 .035.183l-.306.123.306-.123a.471.471 0 0 0 .256.262.48.48 0 0 0 .181.038h.007a.48.48 0 0 0 .479-.473zM118.144 26.294a1.34 1.34 0 1 0 2.68-.001 1.34 1.34 0 0 0-2.68 0zM129.836 26.248a1.34 1.34 0 1 0 2.68-.001 1.34 1.34 0 0 0-2.68 0zM123.064 30.252l.222.25a.478.478 0 0 1 .346-.12h0l3.467.202.424.024-.076-.417-1.11-6.089a.481.481 0 0 1 .388-.538.481.481 0 0 1 .553.367l1.296 7.105h0c.013.069.01.14-.008.207l.322.085-.322-.085a.478.478 0 0 1-.463.357l-5.039-1.348zm0 0l.222.25a.476.476 0 0 0-.04.675.478.478 0 0 0 .33.16s0 0 0 0l4.498.262h.001m-5.011-1.347l5.011 1.347m0 0h.028-.028z"/><path fill="#222433" stroke="#3C4043" stroke-width=".668" d="M106.734 37.412h-.001a9.179 9.179 0 0 1-4.521 1.2h-.024a9.176 9.176 0 0 1-6.485-2.686 9.162 9.162 0 0 1 .002-12.962 9.176 9.176 0 0 1 6.487-2.683h.004a9.16 9.16 0 0 1 9.11 8.11l-4.572 9.021zm0 0a.481.481 0 0 0 .142-.122l.263.206m-.405-.084l.405.084m0 0l-.263-.206a.478.478 0 0 0 .038-.53l.29-.166-.29.165a.475.475 0 0 0-.477-.237.482.482 0 0 0-.178.06l-.002.001m.882.913l-.882-.913m0 0a8.217 8.217 0 0 1-4.065 1.074s0 0 0 0h-.003 0m4.068-1.074l-4.068 1.074m0 0a8.218 8.218 0 0 1-5.809-2.406 8.207 8.207 0 0 1 .003-11.61 8.219 8.219 0 0 1 5.809-2.403s0 0 0 0h.004a8.213 8.213 0 0 1 5.464 2.077 8.194 8.194 0 0 1 2.694 5.185h0m-8.165 9.157l8.165-9.156m0 0a.482.482 0 0 0 .178.32m-.178-.32l.178.32m0 0a.48.48 0 0 0 .353.1m-.353-.1l.353.1m0 0a.478.478 0 0 0 .32-.178m-.32.178l.32-.178m0 0a.48.48 0 0 0 .101-.351l-.101.351z"/><path fill="#222433" stroke="#3C4043" stroke-width=".668" d="M99.096 31.722a.478.478 0 0 0 .276.111h.031c.056 0 .11-.01.162-.028h0l5.574-2.006h0a.483.483 0 0 0 .316-.443.474.474 0 0 0-.303-.452s0 0 0 0l-5.214-2.056h0l-.008-.003a.477.477 0 1 0-.35.889h0l.008.003 3.212 1.268.823.325-.833.3-3.548 1.276h0a.48.48 0 0 0-.146.816z"/><path fill="#3C4043" stroke="#3C4043" stroke-width=".668" d="M126.188 39.5h-.002a4.92 4.92 0 0 1-2.447-.658l-.005-.003h-.001a4.135 4.135 0 0 1-2.133-3.652v-.003a.481.481 0 0 1 .479-.479.476.476 0 0 1 .479.477 3.193 3.193 0 0 0 1.664 2.834c1.118.644 2.545.714 3.567.125l-1.601 1.36zm0 0a4.168 4.168 0 0 0 2.08-.532m-2.08.533l2.08-.533m0 0c1.169-.675 1.834-1.909 1.836-3.529h.333m-2.169 3.529l.544-3.529a.813.813 0 0 1 1.625 0m0 0h-.333a.478.478 0 0 0-.141-.337m.474.338l-.474-.338m0 0a.476.476 0 0 0-.338-.14m.338.14l-.338-.14m0 0a.48.48 0 0 0-.339.14m.339-.14l-.339.14m0 0a.481.481 0 0 0-.14.338m.14-.338l-.14.338m0 0c0 1.213-.448 2.177-1.357 2.7l1.357-2.7z"/><path fill="#FFF1ED" stroke="#3C4043" stroke-width=".668" d="M136.691 97.615h0c1.598 3.486 5.09 5.67 8.672 6.059 3.573.389 7.191-1.009 9.093-4.64l.001-.001c.053-.102.101-.194.142-.287h0l.004-.009c.831-1.713 1.823-3.395 3.318-4.743 1.501-1.352 3.491-2.35 6.29-2.726h.001c.472-.063.968-.12 1.474-.18 1.603-.185 3.312-.383 4.708-.803.916-.276 1.648-.635 2.113-1.11.447-.458.666-1.043.53-1.847-.08-.467-.466-.876-1.212-1.223-.74-.344-1.759-.59-2.95-.77-1.991-.3-4.386-.402-6.603-.496l-1.273-.056-.111-.643c1.1-.448 2.251-.894 3.404-1.341 2.407-.934 4.824-1.871 6.803-2.834 1.463-.711 2.651-1.42 3.404-2.127.757-.711.998-1.34.795-1.935a2.6 2.6 0 0 0-1.359-1.547c-.684-.341-1.615-.507-2.813-.466-1.971.069-4.596.694-7.877 1.915l-.407.169a67.838 67.838 0 0 1-1.717.674l-.1.037-.026.01-.007.002h-.002 0l-.115-.313.115.314-.243-.622a65.599 65.599 0 0 1 2.258-.892 57.875 57.875 0 0 0 3.551-1.611c1.426-.713 2.81-1.504 3.783-2.282.487-.39.854-.762 1.075-1.105.221-.343.272-.617.209-.841h0c-.12-.432-.455-.74-1.057-.92-.612-.185-1.459-.22-2.5-.113-2.075.213-4.804.978-7.686 2.063a66.725 66.725 0 0 0-8.521 3.932c-2.638 1.459-4.877 2.97-6.227 4.28h0l-.007.007-.226-.246.226.246h0l-.001.001-.004.003-.013.012-.052.048-.225.2c-.208.185-.537.474-1.024.896-.975.842-2.584 2.214-5.122 4.331l-.214-.256.214.256c-2.529 2.11-3.567 4.561-3.772 6.942-.206 2.392.43 4.73 1.283 6.588z"/><path fill="#222433" stroke="#3C4043" stroke-width=".668" d="M155.176 99.409h0c-1.718 3.279-4.851 5.14-8.652 5.14-.102 0-.206-.002-.31-.004l8.962-5.136zm0 0c.061-.115.116-.223.165-.332h0m-.165.332l.165-.332m0 0l.004-.008m-.004.008l.004-.008m0 0c.884-1.825 1.886-3.412 3.296-4.626 1.415-1.218 3.219-2.041 5.679-2.372h0m-8.975 6.998l8.975-6.998m0 0c.452-.06.933-.116 1.423-.173l.018-.002c1.513-.175 3.095-.36 4.471-.725 1.383-.367 2.49-.901 3.112-1.729a2.81 2.81 0 0 0 .495-2.24h0l-.002-.01c-.179-1.05-1.157-1.764-2.83-2.244-1.651-.473-3.839-.676-6.177-.804l-.102-.644c3.28-1.273 6.415-2.498 8.592-3.816 1.089-.659 1.906-1.322 2.383-2 .467-.664.603-1.33.36-2.044l-.001-.004a3.428 3.428 0 0 0-1.907-2.075h0l-.006-.003c-.956-.431-2.26-.58-3.929-.411l-.221-.609c1.009-.683 1.684-1.31 2.068-1.884.378-.565.465-1.063.334-1.53h-.001c-.139-.5-.533-1.19-1.71-1.508-1.249-.338-3.177-.165-5.489.394-2.296.556-4.919 1.479-7.527 2.59-5.228 2.23-10.333 5.189-12.613 7.404h0l-.008.007-.225-.246m19.492 14.306l-19.492-14.306m0 0l.225.246h0l-.001.002-.003.003-.014.012-.054.049a83.435 83.435 0 0 1-1.259 1.102c-.975.842-2.572 2.204-5.064 4.282m6.17-5.696l-6.17 5.696m0 0c-3.061 2.555-4.037 5.5-4.105 8.14-.068 2.654.783 5.011 1.398 6.352h0c1.751 3.819 5.876 6.477 10.263 6.592l-7.556-21.084zm35.085-9.037h0l.003.002a2.48 2.48 0 0 1 1.412 1.524c.115.34.059.679-.099.992-.154.307-.411.602-.728.883-.634.562-1.577 1.132-2.666 1.69-2.182 1.114-5.042 2.224-7.438 3.153l-.008.003h0l-.049.02c-1.115.432-2.263.877-3.337 1.314a.48.48 0 0 0-.238.211c-.053.096-.071.206-.053.313a.48.48 0 0 0 .45.397h0c.375.017.76.034 1.153.05l.116.005h.01c1.871.08 4.392.188 6.483.485 1.045.149 2.003.347 2.725.622.361.138.68.3.925.498.242.197.432.445.488.754a1.88 1.88 0 0 1-.309 1.523h0l-.004.005c-.287.382-.721.674-1.22.906-.502.232-1.093.414-1.723.562-1.253.293-2.701.461-3.971.608l-.014.002h0l-.04.005c-.494.057-.97.113-1.419.172-2.864.386-4.863 1.405-6.357 2.748-1.499 1.348-2.507 3.039-3.36 4.8-.053.114-.1.205-.147.293-1.589 3.035-4.546 4.717-8.088 4.625h0c-4.022-.106-7.807-2.521-9.418-6.034-.559-1.218-1.346-3.38-1.295-5.827.051-2.461.951-5.2 3.746-7.532l.214.256-.214-.256c4.948-4.129 6.351-5.409 6.444-5.493 2.365-2.296 7.408-5.132 12.385-7.242 2.496-1.058 4.991-1.94 7.146-2.483 1.077-.271 2.075-.46 2.949-.542.869-.082 1.637-.06 2.244.103h0c.384.104.636.252.8.422a.928.928 0 0 1 .238.422h0l.001.004c.045.167.022.567-.586 1.205-.609.64-1.852 1.575-4.397 2.846h0a58.154 58.154 0 0 1-3.571 1.62h0l-.012.005c-.715.266-1.457.56-2.226.88a.48.48 0 0 0-.26.614.483.483 0 0 0 .608.276c.073-.026.994-.364 2.288-.903h0l.012-.005c3.826-1.424 6.393-1.9 8.124-1.901a5.56 5.56 0 0 1 2.283.4z"/><path fill="#fff" d="M219.588 111.921l15.637-47.503-47.514-15.641-15.736 47.562 47.613 15.582z"/><path fill="#3C4043" d="M171.692 97.198l47.613 15.583a.904.904 0 0 0 1.142-.577l15.637-47.503a.905.905 0 0 0-.576-1.142l-47.514-15.641a.906.906 0 0 0-1.142.576l-15.736 47.562a.888.888 0 0 0 .05.691.915.915 0 0 0 .526.453v-.002zm47.319 13.583l-45.892-15.019 15.167-45.844 45.797 15.076-15.072 45.787z"/><path fill="#3C4043" d="M181.831 92.097l32.421 10.673a.904.904 0 0 0 1.142-.576l10.67-32.414a.905.905 0 0 0-.577-1.142l-32.42-10.672a.906.906 0 0 0-1.142.576l-10.67 32.413a.905.905 0 0 0 .576 1.142zm32.127 8.672l-30.702-10.107 10.104-30.696 30.703 10.107-10.105 30.696z"/><path fill="#fff" d="M347.118 168v-67.775h-67.79l-.102 67.893 67.892-.118z"/><path fill="#3C4043" d="M279.226 169.344l67.892-.117c.325 0 .637-.13.867-.359a1.23 1.23 0 0 0 .359-.867v-67.775A1.23 1.23 0 0 0 347.118 99h-67.79a1.227 1.227 0 0 0-1.226 1.226L278 168.118a1.223 1.223 0 0 0 1.226 1.228v-.002zm66.666-2.567l-65.438.114.098-65.44h65.34v65.326z"/><path fill="#3C4043" d="M290.115 158.481h46.255a1.224 1.224 0 0 0 1.226-1.225V111.01a1.226 1.226 0 0 0-1.226-1.226h-46.255a1.226 1.226 0 0 0-1.226 1.226v46.246a1.222 1.222 0 0 0 1.226 1.225zm45.03-2.451h-43.804v-43.794h43.804v43.794z"/><path fill="#fff" d="M353.157 178.598v-10.546h-88.243v95.542h88.243v-84.996z"/><path fill="#3C4043" d="M264.914 264.486h88.243a.894.894 0 0 0 .892-.892v-95.542a.892.892 0 0 0-.892-.891h-88.243a.892.892 0 0 0-.891.891v95.542a.894.894 0 0 0 .891.892zm87.352-1.783h-86.46v-93.759h86.46v93.759z"/><path fill="#3C4043" d="M274.393 254.233h69.316a.89.89 0 0 0 .892-.892v-75.037a.892.892 0 0 0-.892-.891h-69.316a.894.894 0 0 0-.892.891v75.037a.89.89 0 0 0 .892.892zm68.425-1.783h-67.534v-73.254h67.534v73.254z"/><path fill="#FFF1ED" d="M167.813 172.616a2.81 2.81 0 0 0 2.813-2.808 2.81 2.81 0 0 0-2.813-2.808 2.81 2.81 0 0 0-2.813 2.808 2.81 2.81 0 0 0 2.813 2.808zM145.813 144.616a2.81 2.81 0 0 0 2.813-2.808 2.81 2.81 0 0 0-2.813-2.808 2.81 2.81 0 0 0-2.813 2.808 2.81 2.81 0 0 0 2.813 2.808z"/><path fill="#E7F1FF" d="M67.33 218.658a2.81 2.81 0 0 0 2.814-2.808 2.81 2.81 0 0 0-2.813-2.808 2.81 2.81 0 0 0-2.814 2.808 2.81 2.81 0 0 0 2.814 2.808zM154.813 131.616a2.81 2.81 0 0 0 2.813-2.808 2.81 2.81 0 0 0-2.813-2.808 2.81 2.81 0 0 0-2.813 2.808 2.81 2.81 0 0 0 2.813 2.808zM41.813 202.616a2.81 2.81 0 0 0 2.813-2.808A2.81 2.81 0 0 0 41.813 197 2.81 2.81 0 0 0 39 199.808a2.81 2.81 0 0 0 2.813 2.808zM50.811 188.082a2.804 2.804 0 0 0 .282-3.961 2.817 2.817 0 0 0-3.968-.281 2.803 2.803 0 0 0-.282 3.96 2.816 2.816 0 0 0 3.968.282zM54.813 211.616a2.81 2.81 0 0 0 2.813-2.808A2.81 2.81 0 0 0 54.813 206 2.81 2.81 0 0 0 52 208.808a2.81 2.81 0 0 0 2.813 2.808z"/><path fill="#FFF1ED" d="M71.282 202.663a2.81 2.81 0 0 0 2.813-2.808 2.81 2.81 0 0 0-2.813-2.808 2.81 2.81 0 0 0-2.813 2.808 2.81 2.81 0 0 0 2.813 2.808z"/><path fill="#E7F1FF" d="M87.655 200.202a2.81 2.81 0 0 0 2.813-2.808 2.81 2.81 0 0 0-2.813-2.808 2.81 2.81 0 0 0-2.813 2.808 2.81 2.81 0 0 0 2.813 2.808zM76.118 186.194a2.81 2.81 0 0 0 2.813-2.808 2.81 2.81 0 0 0-2.813-2.808 2.81 2.81 0 0 0-2.813 2.808 2.81 2.81 0 0 0 2.813 2.808zM104.249 197.993a2.81 2.81 0 0 0 2.813-2.808 2.81 2.81 0 0 0-2.813-2.808 2.811 2.811 0 0 0-2.814 2.808 2.811 2.811 0 0 0 2.814 2.808z"/><path fill="#FFF1ED" d="M94.989 183.385a2.81 2.81 0 0 0 2.813-2.808 2.81 2.81 0 0 0-2.813-2.807 2.81 2.81 0 0 0-2.813 2.807 2.81 2.81 0 0 0 2.813 2.808zM82.598 169.031a2.81 2.81 0 0 0 2.813-2.808 2.81 2.81 0 0 0-2.813-2.808 2.81 2.81 0 0 0-2.813 2.808 2.81 2.81 0 0 0 2.813 2.808z"/><path fill="#E7F1FF" d="M71.598 167.067c.374.121.717.322 1.006.589a2.805 2.805 0 1 1-3.82 4.116 2.782 2.782 0 0 1-.818-2.696M43.572 218.622a2.807 2.807 0 0 1 4.073 3.217c-.205.717-.994 1.297-1.645 1.661"/><path fill="#FFF1ED" d="M57.813 198.616a2.81 2.81 0 0 0 2.813-2.808A2.81 2.81 0 0 0 57.813 193 2.81 2.81 0 0 0 55 195.808a2.81 2.81 0 0 0 2.813 2.808z"/><path fill="#E7F1FF" d="M162.71 161.308a2.81 2.81 0 0 0 2.813-2.808c0-1.55-1.26-2.808-2.813-2.808a2.812 2.812 0 0 0-2.814 2.808 2.811 2.811 0 0 0 2.814 2.808zM165.854 207.395a2.81 2.81 0 0 0 2.813-2.808 2.81 2.81 0 0 0-2.813-2.808 2.81 2.81 0 0 0-2.813 2.808 2.81 2.81 0 0 0 2.813 2.808zM161.081 223.264a2.81 2.81 0 0 0 2.813-2.808c0-1.55-1.26-2.808-2.813-2.808a2.812 2.812 0 0 0-2.814 2.808 2.811 2.811 0 0 0 2.814 2.808zM150.049 210.644a2.811 2.811 0 0 0 2.814-2.808 2.811 2.811 0 0 0-2.814-2.808 2.81 2.81 0 0 0-2.813 2.808 2.81 2.81 0 0 0 2.813 2.808z"/><path fill="#FFF1ED" d="M139.114 196.668a2.811 2.811 0 0 0 2.813-2.808 2.81 2.81 0 0 0-2.813-2.808 2.81 2.81 0 0 0-2.813 2.808 2.81 2.81 0 0 0 2.813 2.808z"/><path fill="#E7F1FF" d="M155.454 194.207a2.811 2.811 0 0 0 2.813-2.808 2.81 2.81 0 0 0-2.813-2.808 2.81 2.81 0 0 0-2.813 2.808 2.81 2.81 0 0 0 2.813 2.808zM146.813 172.616a2.81 2.81 0 0 0 2.813-2.808 2.81 2.81 0 0 0-2.813-2.808 2.81 2.81 0 0 0-2.813 2.808 2.81 2.81 0 0 0 2.813 2.808z"/><path fill="#FFF1ED" d="M176.813 224.616a2.81 2.81 0 0 0 2.813-2.808 2.81 2.81 0 0 0-2.813-2.808 2.81 2.81 0 0 0-2.813 2.808 2.81 2.81 0 0 0 2.813 2.808z"/><path fill="#E7F1FF" d="M187.813 230.616a2.81 2.81 0 0 0 2.813-2.808 2.81 2.81 0 0 0-2.813-2.808 2.81 2.81 0 0 0-2.813 2.808 2.81 2.81 0 0 0 2.813 2.808z"/><path fill="#FFF1ED" d="M157.813 233.616a2.81 2.81 0 0 0 2.813-2.808 2.81 2.81 0 0 0-2.813-2.808 2.81 2.81 0 0 0-2.813 2.808 2.81 2.81 0 0 0 2.813 2.808z"/><path fill="#E7F1FF" d="M172.667 189.923a2.81 2.81 0 0 0 2.813-2.808 2.81 2.81 0 0 0-2.813-2.807 2.81 2.81 0 0 0-2.814 2.807 2.811 2.811 0 0 0 2.814 2.808zM143.813 127.616a2.81 2.81 0 0 0 2.813-2.808 2.81 2.81 0 0 0-2.813-2.808 2.81 2.81 0 0 0-2.813 2.808 2.81 2.81 0 0 0 2.813 2.808zM184.813 204.616a2.81 2.81 0 0 0 2.813-2.808 2.81 2.81 0 0 0-2.813-2.808 2.81 2.81 0 0 0-2.813 2.808 2.81 2.81 0 0 0 2.813 2.808zM158.813 178.616a2.81 2.81 0 0 0 2.813-2.808 2.81 2.81 0 0 0-2.813-2.808 2.81 2.81 0 0 0-2.813 2.808 2.81 2.81 0 0 0 2.813 2.808zM178.813 169.616a2.81 2.81 0 0 0 2.813-2.808 2.81 2.81 0 0 0-2.813-2.808 2.81 2.81 0 0 0-2.813 2.808 2.81 2.81 0 0 0 2.813 2.808zM172.333 252.92a2.81 2.81 0 0 0 2.813-2.807 2.81 2.81 0 0 0-2.813-2.808 2.811 2.811 0 0 0-2.814 2.808 2.81 2.81 0 0 0 2.814 2.807zM97.813 158.616a2.81 2.81 0 0 0 2.813-2.808A2.81 2.81 0 0 0 97.813 153 2.81 2.81 0 0 0 95 155.808a2.81 2.81 0 0 0 2.813 2.808z"/><path fill="#FFF1ED" d="M93.607 143.756a2.803 2.803 0 0 0-.22-3.964 2.816 2.816 0 0 0-3.972.219 2.803 2.803 0 0 0 .22 3.964 2.816 2.816 0 0 0 3.972-.219zM122.266 139.343a2.81 2.81 0 0 0 2.813-2.808 2.81 2.81 0 0 0-2.813-2.807 2.81 2.81 0 0 0-2.813 2.807 2.81 2.81 0 0 0 2.813 2.808z"/><path fill="#E7F1FF" d="M117.493 155.212a2.81 2.81 0 0 0 2.813-2.807 2.81 2.81 0 0 0-2.813-2.808 2.81 2.81 0 0 0-2.813 2.808 2.81 2.81 0 0 0 2.813 2.807zM108.813 146.616a2.81 2.81 0 0 0 2.813-2.808 2.81 2.81 0 0 0-2.813-2.808 2.81 2.81 0 0 0-2.813 2.808 2.81 2.81 0 0 0 2.813 2.808zM88.813 128.616a2.81 2.81 0 0 0 2.813-2.808A2.81 2.81 0 0 0 88.813 123 2.81 2.81 0 0 0 86 125.808a2.81 2.81 0 0 0 2.813 2.808zM149.813 159.616a2.81 2.81 0 0 0 2.813-2.808 2.81 2.81 0 0 0-2.813-2.808 2.81 2.81 0 0 0-2.813 2.808 2.81 2.81 0 0 0 2.813 2.808z"/><path fill="#FFF1ED" d="M179.626 144.808a2.806 2.806 0 0 1-1.736 2.594 2.819 2.819 0 0 1-3.066-.609 2.796 2.796 0 0 1-.61-3.06 2.816 2.816 0 0 1 2.599-1.733"/><path fill="#E7F1FF" d="M134.614 150.227a2.81 2.81 0 0 0 2.813-2.808 2.81 2.81 0 0 0-2.813-2.808 2.81 2.81 0 0 0-2.813 2.808 2.81 2.81 0 0 0 2.813 2.808z"/><path fill="#FFF1ED" d="M116.102 171.082a2.81 2.81 0 0 0 2.813-2.808 2.81 2.81 0 0 0-2.813-2.808 2.81 2.81 0 0 0-2.813 2.808 2.81 2.81 0 0 0 2.813 2.808z"/><path fill="#E7F1FF" d="M99.981 171.018a2.81 2.81 0 0 0 2.813-2.808 2.81 2.81 0 0 0-2.813-2.808 2.81 2.81 0 0 0-2.813 2.808 2.81 2.81 0 0 0 2.813 2.808zM160.813 143.616a2.81 2.81 0 0 0 2.813-2.808 2.81 2.81 0 0 0-2.813-2.808 2.81 2.81 0 0 0-2.813 2.808 2.81 2.81 0 0 0 2.813 2.808zM111.835 186.194a2.81 2.81 0 0 0 2.813-2.808 2.81 2.81 0 0 0-2.813-2.808 2.811 2.811 0 0 0-2.814 2.808 2.811 2.811 0 0 0 2.814 2.808zM63.813 184.616a2.81 2.81 0 0 0 2.813-2.808A2.81 2.81 0 0 0 63.813 179 2.81 2.81 0 0 0 61 181.808a2.81 2.81 0 0 0 2.813 2.808z"/><path fill="#fff" d="M132.5 122l3-2-4.5 37-2.5-2 4-33z"/><path fill="#07377F" d="M281.643 228h3.998v-7.811h8.116V228h3.989v-18.909h-3.989v7.802h-8.116v-7.802h-3.998V228zm25.733.277c4.302 0 6.98-2.945 6.98-7.313 0-4.394-2.678-7.33-6.98-7.33-4.303 0-6.981 2.936-6.981 7.33 0 4.368 2.678 7.313 6.981 7.313zm.018-3.047c-1.985 0-3.001-1.819-3.001-4.293 0-2.475 1.016-4.303 3.001-4.303 1.948 0 2.964 1.828 2.964 4.303 0 2.474-1.016 4.293-2.964 4.293zm13.452-16.139h-3.933V228h3.933v-18.909zm7.195 19.177c2.096 0 3.453-.914 4.146-2.235h.111V228h3.73v-9.565c0-3.38-2.862-4.801-6.02-4.801-3.398 0-5.632 1.625-6.177 4.21l3.638.295c.268-.942 1.108-1.634 2.52-1.634 1.339 0 2.106.674 2.106 1.837v.056c0 .914-.97 1.034-3.435 1.274-2.807.258-5.328 1.2-5.328 4.367 0 2.807 2.004 4.229 4.709 4.229zm1.127-2.715c-1.21 0-2.078-.563-2.078-1.643 0-1.108.914-1.653 2.299-1.847.859-.12 2.262-.323 2.733-.637v1.505c0 1.487-1.228 2.622-2.954 2.622zM199.472 67.318l-3.859-1.317L189 85.37l3.859 1.317 6.613-19.37zM209.763 70.831l-3.859-1.318-6.614 19.37 3.859 1.318 6.614-19.37zM215.277 79.923l-3.859-1.318-4.409 12.913 3.859 1.317 4.409-12.912zM217.482 73.467l-3.86-1.318-1.322 3.874 3.859 1.318 1.323-3.874z"/><path fill="#07377F" d="M204.545 77.701l-9.005-3.075-1.323 3.874 9.005 3.075 1.323-3.874z"/><path fill="#FFDA2D" d="M296.599 142.045l-.063-.427.026-.004a178.772 178.772 0 0 1-.538-18.774l2.104.051a176.62 176.62 0 0 0 .561 18.914l-2.09.24zM305.049 141.534l-2.104-.017v-.002l.14-18.681 2.105.016-.138 18.342-.003.342z"/><path fill="#FFDA2D" d="M297.75 131.495l-.092-2.094 4.078-.178c.696-.03 1.561-.067 2.398.221l-.689 1.98c-.457-.158-1.047-.133-1.616-.107l-4.079.178zM329.537 136.379a230.176 230.176 0 0 0-.589-15.293l2.099-.15c.368 5.114.568 10.305.594 15.432l-2.104.011zM331.899 139.599l-2.104.008.006 1.484 2.104-.007-.006-1.485zM311.717 141.269a3.811 3.811 0 0 1-1.426-.268c-1.326-.527-2.331-1.757-2.988-3.654-.652-1.886-.792-3.622-.416-5.16.485-1.987 1.874-3.565 3.624-4.118 2.082-.659 4.423.334 5.219 2.212.393.927.376 1.889.3 2.79l-.071.832-.83.117a57.613 57.613 0 0 1-5.614.511l-.088-2.094a55.264 55.264 0 0 0 4.54-.377c-.008-.347-.055-.679-.176-.964-.372-.876-1.607-1.357-2.644-1.03-1.038.328-1.908 1.356-2.216 2.616-.279 1.142-.157 2.482.362 3.983.448 1.295 1.046 2.099 1.778 2.39a1.815 1.815 0 0 0 1.776-.291 1.8 1.8 0 0 0 .57-1.701l2.053-.459a3.862 3.862 0 0 1-1.258 3.755 3.897 3.897 0 0 1-2.495.91zM321.181 147.973a3.823 3.823 0 0 1-.828-.087c-1.795-.397-3.054-2.224-2.693-3.91l2.058.437c-.122.571.418 1.278 1.091 1.427.728.161 1.629-.191 2.241-.876.57-.638.962-1.568 1.165-2.765.161-.953.194-1.91.15-2.882-1.159.709-2.541.872-3.697.4-1.163-.474-2.603-1.764-2.861-5.212a28.26 28.26 0 0 1 .31-6.788l2.075.344a26.223 26.223 0 0 0-.287 6.288c.098 1.314.449 2.975 1.562 3.43.632.257 1.526.043 2.172-.524.167-.146.323-.313.469-.503-.079-.565-.168-1.135-.259-1.713-.294-1.879-.598-3.822-.558-5.784.033-1.599.814-2.703 1.989-2.812l.392-.035.319.228c.963.69 1.501 1.842 1.645 3.522a13.887 13.887 0 0 1-.551 5.194 9.443 9.443 0 0 1-.791 1.893c.211 1.745.299 3.519-.004 5.303-.27 1.592-.832 2.874-1.669 3.81-.914 1.022-2.199 1.61-3.44 1.615zm4.212-18.545c-.011.89.055 1.779.161 2.68a11.64 11.64 0 0 0-.015-1.772 5.514 5.514 0 0 0-.146-.908z"/><path fill="#FFBCA5" d="M235.647 45.57c-.687-.231-.242-.056-.225-.044l.191.179-.074.135-.664-.073.361.279-.569-.041.415.308-.773-.121.178.225.002.162.016.17-.211.098.737.43-.952-.186.541.36.161.224-.322.043-.029.151-.343.034.34.294.223.244-.531-.036.357.292-.484-.02.637.404-.63-.076.338.302-.811-.151.874.506-.286.053-.709-.111.526.368-.19.094-.507-.035.783.472-.141.108-.362.02.263.27-.481-.034-.11.12.612.41-.916-.205.168.232-.167.098.531.38-.711-.128.531.382-.249.064-.479-.032.353.307-.296.043.076.19.204.25.068.19-.001.166-.278.05.017.171-.085.131-.398-.004.033.18.503.38-.088.13-.075.135-.423-.015-.051.145c.024.067.069.141.1.21l-.278.046.599.429-.272.048.135.233-.354.011.074.2.06.192c.015.046-.272-.042.088.157.058.032-.021.034.768.384l.366.162.646.28.405.189c.036.017.074.03.113.038.05-.023-.046-.108-.061-.158l.072-.14-.061-.19.306-.03.398.005-.115-.221.344-.022-.126-.226c.012-.053.02-.107.025-.16l.19-.092-.346-.32.385-.004.295-.045-.205-.258.46.026-.005-.173-.077-.203.522.049-.346-.318-.297-.294.65.102c.049-.036.092-.076.141-.112l-.64-.435.746.14-.499-.375.128-.117.159-.105.489.03.15-.11-.601-.444-.017-.172.957.215-.639-.424.13-.118.723.127-.47-.349-.337-.302.954.208-.702-.446.603.065-.398-.324.735.125-.729-.453.556.048-.396-.322.725.11-.402-.324-.017-.175.849.131.03-.157-.085-.2-.724-.442.164-.107.701.108.204-.093-.806-.469.722.1-.474-.347.355-.035-.223-.245.06-.158.111-.127.584.045.154-.111.055-.148-.663-.406.396-.026.692.08-.04-.181a4.892 4.892 0 0 0-.254-.257l.414-.021-.605-.383.234.029.183.023c.022-.002.153.032-.11-.074-.264-.106-.92-.35-2.476-.891l-1.673-.574zM250.397 50.482c-.456-.554-.192-.18-.191-.169l-.002.106a.245.245 0 0 0 .009.085l.004.046-.158.127-.54-.346.124.483-.488-.282.141.5-.624-.448-.012.31-.126.17-.11.188-.263.003.363.764-.753-.583.236.6-.013.3-.335-.08-.14.15-.351-.098.114.444.034.347-.48-.243.118.446-.455-.22.321.67-.549-.315.135.457-.676-.462.486.86-.312-.044-.613-.37.259.587-.239.04-.461-.215.439.784-.194.071-.37-.1.083.392-.457-.19-.191.098.339.65-.776-.523.018.314-.227.056.289.59-.637-.352.293.589-.283.002-.451-.174.152.443-.318-.027-.04.248.053.34-.049.235-.103.182-.311-.022-.087.197-.165.122-.413-.113-.074.207.297.57-.169.118c-.052.044-.102.09-.151.135l-.433-.13-.134.154-.018.26-.333-.032.41.653-.313-.013.031.309c-.129-.026-.255-.05-.379-.071l-.019.254-.028.244c-.018.05-.242-.09.047.233.047.052-.02.05.608.61l.302.25.52.454c.136.13.282.25.437.357.079.002.052-.087.051-.155l.139-.138.027-.238.336.041.413.12-.017-.279c.121.024.246.05.36.069l-.04-.302.089-.183.23-.05-.197-.452.39.101.31.028-.083-.348.443.156.078-.193.022-.248.483.2-.18-.446-.139-.407.58.296.193-.079-.384-.657.652.38-.276-.561.193-.085.212-.06.459.19.207-.064-.352-.633.088-.189.797.55-.368-.666.193-.08.621.376-.254-.539-.143-.435.784.558-.404-.72.526.285-.182-.484.621.394-.401-.751.493.257-.176-.482.611.391-.176-.486.092-.187.691.49.126-.149.047-.238-.385-.725.221-.042.584.382.244-.01-.432-.805.593.402-.206-.544.347.112-.034-.344.142-.132.193-.079.495.297.213-.043.149-.12-.321-.688.372.153.561.39c.027-.064.058-.128.094-.188l-.034-.345.408.206-.264-.644c.065.05.135.107.186.138l.129.087c.015.01.102.092-.062-.146l-.177-.242-.302-.4-1.086-1.4c-.531-.7-.866-1.103-1.061-1.35zM253.244 64.354c-.213-.643-.093-.223-.091-.207l-.005.095c.004.043.011.116.001.113l-.099.031-.275-.514.028.433-.25-.427.046.463-.309-.62-.032.24-.084.077-.078.097-.146-.112.129.743-.359-.78.072.565-.038.225-.176-.21-.093.052-.183-.231.016.388-.021.276-.247-.398.015.388-.224-.356.099.65-.255-.487.019.405-.32-.655.168.867-.167-.178-.287-.556.069.554-.135-.082-.229-.367.141.784-.123-.044-.188-.245-.008.318-.222-.352-.114-.016.094.631-.348-.744-.035.235-.131-.067.069.56-.287-.556.069.558-.155-.139-.22-.344.015.388-.165-.179-.06.158-.023.267-.063.142-.084.08-.161-.162-.078.095-.107.01-.197-.274-.075.112.053.53-.11.001-.105.01-.207-.302-.098.033-.06.16-.17-.192.093.631-.17-.19-.042.21-.198-.277-.062.142-.066.135c-.015.035-.133-.25-.032.141.006.066-.027.003.237.823l.124.377.22.674.141.414c.01.038.024.075.042.11.035.02.02-.11.034-.155l.096-.042.053-.175.17.188.198.278.038-.223.177.212.038-.226.084-.082.134.076-.019-.402.192.257.165.178.023-.27.215.325.08-.09.06-.154.23.379-.015-.388-.003-.348.267.493.125.044-.097-.644.299.588-.052-.529.119.032.129.059.224.356.125.051-.087-.618.08-.09.359.775-.099-.65.12.035.29.567-.05-.51-.013-.389.358.775-.117-.713.252.456-.03-.439.295.58-.126-.735.249.42-.03-.437.293.572-.033-.442.078-.095.329.684.092-.052.06-.156-.126-.731.131.069.288.555.143.105-.148-.805.294.573-.049-.498.188.243.023-.271.098-.039.116.022.252.45.129.061.101-.027-.106-.675.201.282.289.555.077-.1.018-.288.215.334-.09-.621.095.185.072.137c.002.017.054.123-.013-.133s-.263-.877-.724-2.309l-.526-1.528z"/><path fill="#E7F1FF" d="M194.235 235.416c.1 6.857 3.63 11.524 11.32 11.306l14.3.093c7.394-.17 13.56 4.831 14.91 12.467l.069.363-48.56 14.206-19.804-16.429-1.94 12.886-15.411-2.512 4.601-28.434 40.515-3.946z"/><path fill="#3C4043" d="M186.122 274.786a.962.962 0 0 1-.454-.207l-18.511-15.355-1.689 11.226a.951.951 0 0 1-.379.624.967.967 0 0 1-.711.169l-15.412-2.512a.946.946 0 0 1-.783-1.087l4.601-28.434a.952.952 0 0 1 .844-.79l40.514-3.946a.939.939 0 0 1 .387.043.951.951 0 0 1 .654.886c.051 3.48 1.045 6.244 2.874 7.993 1.746 1.67 4.26 2.471 7.471 2.38h.032l14.3.093c7.903-.181 14.426 5.267 15.839 13.249l.067.352a.947.947 0 0 1-.665 1.083l-48.56 14.207a.957.957 0 0 1-.419.026zm-35.915-7.771l13.528 2.204 1.797-11.938a.95.95 0 0 1 .6-.743.941.941 0 0 1 .943.157l19.417 16.107 47.248-13.824c-1.417-6.789-7.052-11.375-13.864-11.217l-14.311-.092c-3.728.102-6.697-.875-8.82-2.908-2.012-1.926-3.184-4.782-3.418-8.307l-38.787 3.779-4.333 26.782z"/><path fill="#FFDA2D" d="M222.685 240.676c-.031.46-.148.911-.346 1.328a4.024 4.024 0 0 1-2.589 2.148l-12.783 3.43a.945.945 0 0 1-.777-.132l-8.18-5.575a3.687 3.687 0 0 1-1.638-3.082 3.876 3.876 0 0 1 1.724-3.155 3.917 3.917 0 0 1 3.315-.538 3.78 3.78 0 0 1 2.457 2.138l2.939 6.794 9.371-6.97a4.037 4.037 0 0 1 3.452-.669 3.815 3.815 0 0 1 2.548 2.12l.199.43a3.67 3.67 0 0 1 .308 1.733zm-14.34 4.574l10.908-2.927a2.144 2.144 0 0 0 1.375-1.128 1.738 1.738 0 0 0 .025-1.469l-.197-.426a1.927 1.927 0 0 0-1.301-1.072 2.17 2.17 0 0 0-1.848.356l-8.962 6.666zm-10.075-6.562c-.002.038-.005.076-.004.114a1.823 1.823 0 0 0 .816 1.509l5.746 3.917-2.696-6.237a1.908 1.908 0 0 0-1.24-1.069 2.047 2.047 0 0 0-1.726.28 1.952 1.952 0 0 0-.896 1.486z"/><path fill="#E7F1FF" d="M1.321 206.272l26.612-13.993 18.733 35.718c-5.441 5.995-5.803 13.93-3.607 22.058 1.937 7.158-2.038 14.454-9.189 17.597l-.307.162-21.51-41.079 7.987-12.827L8.574 220.1l-7.253-13.828z"/><path fill="#3C4043" d="M32.724 268.253a.948.948 0 0 0 1.279.401l.28-.147c7.635-3.373 11.711-11.232 9.69-18.698-2.409-8.914-1.267-16.04 3.395-21.174a.943.943 0 0 0 .137-1.077L28.772 191.84a.948.948 0 0 0-1.279-.4L.881 205.433a.95.95 0 0 0-.398 1.279l7.253 13.828a.95.95 0 0 0 .562.467c.12.037.246.049.37.037a.967.967 0 0 0 .357-.109l8.322-4.494-6.097 9.791a.952.952 0 0 0-.035.942l21.51 41.079zm12.801-40.393c-4.756 5.597-5.893 13.142-3.38 22.442 1.734 6.407-1.692 13.162-8.17 16.259l-20.831-39.785 7.699-12.366a.946.946 0 0 0-.653-1.437.943.943 0 0 0-.601.1L8.966 218.81 2.6 206.671l24.936-13.112 17.99 34.301z"/><path fill="#FFDA2D" d="M52.599 233.421a3.163 3.163 0 0 1 .7 2.456 3.307 3.307 0 0 1-1.575 2.394l-8.421 5.182 8.254 7.872a3.188 3.188 0 0 1 .49 3.895l-.115.185a3.352 3.352 0 0 1-3.07 1.636 3.045 3.045 0 0 1-2.651-1.797l-5.33-11.584a.953.953 0 0 1 .091-.951l6.49-8.983a3.426 3.426 0 0 1 2.508-1.385 3.174 3.174 0 0 1 2.485.917c.05.052.097.106.144.163zm-7.354 6.607l5.485-3.376.006-.005a1.422 1.422 0 0 0 .683-1.029 1.19 1.19 0 0 0-1.314-1.39 1.515 1.515 0 0 0-1.117.617l-3.743 5.183zm2.858 14.704a1.206 1.206 0 0 0 .862.416 1.469 1.469 0 0 0 1.348-.731l.115-.186a1.278 1.278 0 0 0-.194-1.552l-5.56-5.303 3.26 7.082c.043.098.1.19.169.274z"/></svg>