<svg xmlns="http://www.w3.org/2000/svg" xmlns:xlink="http://www.w3.org/1999/xlink" width="331" height="281" fill="none" xmlns:v="https://vecta.io/nano"><style><![CDATA[.B{fill:#e7f1ff}.C{fill:#fff1ed}.D{fill:#3c4043}.E{fill:#fff}.F{stroke-width:.668}.G{stroke:#3c4043}.H{stroke-width:2}.I{stroke-width:1.5}.J{stroke-linecap:round}]]></style><path d="M330.009 39.288v-1.005h-.041L329.961 0H0v281h330.009l-.007-40.532h.007v-1.006h-.007l-.007-39.241h.013v-1.006h-.013l-.007-39.192h.02v-1.006h-.02l-.007-39.239h.027v-1.006h-.027l-.007-39.24h.034v-1.006h-.034l-.007-39.239.042.001zm-1.051-38.185v37.18h-39.196V1.102h39.196zm-40.2 0v37.18h-40.486V1.102h40.486zM164.813 119.779h40.965v39.239h-40.965v-39.239zm-1.004 39.239h-40.964v-39.239h40.964v39.239zm1.004-40.245v-39.24h40.965v39.24h-40.965zm-1.004 0h-40.964v-39.24h40.964v39.24zm-41.968 0H80.827v-39.24h41.012l.002 39.24zm0 1.006v39.239H80.827v-39.239h41.014zm0 40.245v39.191H80.827v-39.191h41.014zm1.004 0h40.964v39.191h-40.964v-39.191zm41.968 0h40.965v39.191h-40.965v-39.191zm41.968 0h40.487v39.191h-40.487v-39.191zm0-1.006v-39.239h40.487v39.239h-40.487zm0-40.245v-39.24h40.487v39.24h-40.487zm0-40.246V39.288h40.487v39.239h-40.487zm-1.003 0h-40.965V39.288h40.965v39.239zm-41.969 0h-40.964V39.288h40.964v39.239zm-41.968 0H80.827V39.288h41.012l.002 39.239zm-42.015 0H38.861V39.288h40.964v39.239zm0 1.006v39.24H38.861v-39.24h40.964zm0 40.246v39.239H38.861v-39.239h40.964zm0 40.245v39.191H38.861v-39.191h40.964zm0 40.198v39.239H38.861v-39.24l40.964.001zm1.004 0h41.012v39.239H80.827l.002-39.239zm42.016 0h40.964v39.239h-40.964v-39.239zm41.968 0h40.965v39.239h-40.965v-39.239zm41.968 0h40.487v39.239h-40.487v-39.239zm41.491 0h40.486v39.239h-40.486v-39.239zm0-1.007v-39.191h40.486v39.191h-40.486zm0-40.197v-39.239h40.486v39.239h-40.486zm0-40.245v-39.24h40.486v39.24h-40.486zm0-40.246V39.288h40.486v39.239h-40.486zm-1.004-77.425v37.18h-40.487V1.102h40.487zm-41.49 0v37.18h-40.965V1.102h40.965zm-41.969 0v37.18h-40.964V1.102h40.964zm-41.968 0v37.18H80.827V1.102h41.014zm-42.015 0v37.18H38.861V1.102h40.964zm-78.774 0h36.806v37.18H1.052V1.102zm0 38.185h36.806v39.239H1.052V39.288zm0 40.245h36.806v39.24H1.052v-39.24zm0 40.246h36.806v39.239H1.052v-39.239zm0 40.245h36.806v39.191H1.052v-39.191zm0 40.198h36.806v39.239H1.052v-39.239zm0 79.724v-39.479h36.806v39.479H1.052zm37.809 0v-39.479h40.964v39.479H38.861zm41.968 0v-39.479h41.012v39.479H80.829zm42.016 0v-39.479h40.964v39.479h-40.964zm41.968 0v-39.479h40.965v39.479h-40.965zm41.968 0v-39.479h40.487v39.479h-40.487zm41.491 0v-39.479h40.486v39.479h-40.486zm80.687 0h-39.197v-39.479h39.196l.001 39.479zm0-40.485h-39.197v-39.24h39.196l.001 39.24zm0-40.245h-39.197v-39.192h39.196l.001 39.192zm0-40.198h-39.197v-39.239h39.196l.001 39.239zm0-40.245h-39.197v-39.24h39.196l.001 39.24zm0-40.246h-39.197v-39.24h39.196l.001 39.24z" class="B"/><path d="M323.118 168.002v-67.775h-67.79l-.102 67.892 67.892-.117z" class="E"/><path d="M255.226 169.344l67.892-.117a1.23 1.23 0 0 0 1.226-1.226v-67.775a1.23 1.23 0 0 0-.359-.867c-.23-.23-.542-.359-.867-.359h-67.79c-.325 0-.637.129-.867.359s-.359.541-.359.867L254 168.118c0 .161.031.321.093.47a1.21 1.21 0 0 0 .265.398c.114.114.249.205.398.266s.309.094.47.094v-.002zm66.666-2.567l-65.438.114.098-65.44h65.34v65.326zm-55.777-8.295h46.255c.326 0 .637-.129.867-.359s.359-.541.359-.867v-46.245c0-.325-.129-.637-.359-.867s-.541-.359-.867-.359h-46.255c-.325 0-.637.129-.867.359s-.359.542-.359.867v46.245c0 .326.129.637.359.867s.542.359.867.359zm45.03-2.451h-43.804v-43.795h43.804v43.795z" class="D"/><path d="M329.157 178.597v-10.546h-88.243v95.542h88.243v-84.996z" class="E"/><path d="M240.914 264.485h88.243c.237 0 .463-.094.631-.261a.89.89 0 0 0 .261-.63v-95.542a.89.89 0 0 0-.261-.631c-.168-.167-.394-.261-.631-.261h-88.243a.89.89 0 0 0-.891.892v95.542a.89.89 0 0 0 .891.891zm87.352-1.783h-86.46v-93.759h86.46v93.759zm-77.873-8.472h69.316a.89.89 0 0 0 .892-.891v-75.037a.89.89 0 0 0-.892-.892h-69.316c-.237 0-.463.094-.631.261a.89.89 0 0 0-.261.631v75.037a.89.89 0 0 0 .261.63c.168.167.394.261.631.261zm68.425-1.783h-67.534v-73.254h67.534v73.254z" class="D"/><path d="M257.643 228h3.998v-7.811h8.116V228h3.989v-18.909h-3.989v7.802h-8.116v-7.802h-3.998V228zm25.733.277c4.302 0 6.98-2.945 6.98-7.313 0-4.394-2.678-7.33-6.98-7.33s-6.981 2.936-6.981 7.33c0 4.368 2.678 7.313 6.981 7.313zm.018-3.047c-1.985 0-3.001-1.819-3.001-4.293s1.016-4.303 3.001-4.303c1.948 0 2.964 1.828 2.964 4.303s-1.016 4.293-2.964 4.293zm13.452-16.139h-3.933V228h3.933v-18.909zm7.195 19.177c2.096 0 3.453-.914 4.146-2.235h.111V228h3.73v-9.565c0-3.38-2.862-4.801-6.02-4.801-3.398 0-5.632 1.625-6.177 4.21l3.638.295c.268-.942 1.108-1.634 2.52-1.634 1.339 0 2.106.674 2.106 1.837v.056c0 .914-.97 1.034-3.435 1.274-2.807.258-5.328 1.2-5.328 4.367 0 2.807 2.004 4.229 4.709 4.229zm1.127-2.715c-1.21 0-2.078-.563-2.078-1.643 0-1.108.914-1.653 2.299-1.847.859-.12 2.262-.323 2.733-.637v1.505c0 1.487-1.228 2.622-2.954 2.622z" fill="#07377f"/><g fill="#ffda2d"><path d="M272.599 142.044l-.063-.427.026-.004a178.76 178.76 0 0 1-.538-18.773l2.104.05c-.152 6.285.037 12.649.561 18.914l-2.09.24zm8.45-.51l-2.104-.017v-.001l.14-18.681 2.105.016-.138 18.342h0l-.003.341z"/><path d="M273.75 131.493l-.092-2.094 4.078-.178c.696-.03 1.561-.067 2.398.221l-.689 1.98c-.457-.158-1.047-.132-1.616-.107l-4.079.178zm31.787 4.887a230.17 230.17 0 0 0-.589-15.292l2.099-.15a232.32 232.32 0 0 1 .594 15.431l-2.104.011zm2.362 3.218l-2.104.007.006 1.485 2.104-.008-.006-1.484zm-20.182 1.67a3.83 3.83 0 0 1-1.426-.268c-1.326-.527-2.331-1.757-2.988-3.654-.652-1.886-.792-3.622-.416-5.16.485-1.987 1.874-3.565 3.624-4.119 2.082-.659 4.423.334 5.219 2.213.393.927.376 1.888.3 2.79l-.071.832-.83.117-5.614.51-.088-2.093 4.54-.377c-.008-.347-.055-.679-.176-.964-.372-.877-1.607-1.357-2.644-1.03s-1.908 1.356-2.216 2.616c-.279 1.142-.157 2.482.362 3.982.448 1.296 1.046 2.1 1.778 2.391a1.82 1.82 0 0 0 1.776-.291 1.8 1.8 0 0 0 .57-1.701l2.053-.459a3.86 3.86 0 0 1-1.258 3.754c-.698.593-1.594.907-2.495.911zm9.464 6.705c-.28.001-.557-.028-.828-.088-1.795-.396-3.054-2.223-2.693-3.91l2.058.437c-.122.572.418 1.279 1.091 1.427.728.161 1.629-.191 2.241-.876.57-.637.962-1.567 1.165-2.764.161-.953.194-1.911.15-2.882-1.159.708-2.541.872-3.697.4-1.163-.475-2.603-1.764-2.861-5.212a28.27 28.27 0 0 1 .31-6.789l2.075.345a26.22 26.22 0 0 0-.287 6.288c.098 1.314.449 2.975 1.562 3.429.632.258 1.526.043 2.172-.523.167-.146.323-.314.469-.503l-.259-1.713c-.294-1.879-.598-3.822-.558-5.784.033-1.6.814-2.704 1.989-2.812l.392-.036.319.229c.963.689 1.501 1.841 1.645 3.522a13.89 13.89 0 0 1-.551 5.194c-.219.716-.481 1.344-.791 1.893.211 1.745.299 3.519-.004 5.303-.27 1.592-.832 2.874-1.669 3.809-.914 1.023-2.199 1.611-3.44 1.616zm4.212-18.545c-.011.89.055 1.779.161 2.68.04-.593.035-1.187-.015-1.773-.029-.341-.078-.644-.146-.907z"/></g><g clip-path="url(#A)"><g fill="#ffda2d"><path d="M222.31 246.544c-.031.46-.148.911-.346 1.328-.252.524-.613.987-1.06 1.357a4.04 4.04 0 0 1-1.529.791l-12.783 3.43c-.131.035-.269.042-.403.019a.94.94 0 0 1-.374-.151l-8.18-5.575c-.505-.338-.92-.797-1.205-1.334s-.435-1.138-.433-1.748c.011-.626.173-1.241.473-1.79s.73-1.018 1.251-1.365c.478-.33 1.024-.55 1.597-.643s1.16-.057 1.718.105a3.78 3.78 0 0 1 1.47.791 3.79 3.79 0 0 1 .987 1.347l2.939 6.794 9.371-6.97c.488-.365 1.052-.614 1.65-.73a4.03 4.03 0 0 1 1.802.061 3.8 3.8 0 0 1 1.516.768c.441.367.794.829 1.032 1.352l.199.43a3.67 3.67 0 0 1 .308 1.733zm-14.34 4.574l10.908-2.927c.296-.078.573-.22.81-.414s.43-.438.565-.714a1.74 1.74 0 0 0 .174-.732 1.73 1.73 0 0 0-.149-.737l-.197-.426c-.122-.266-.303-.5-.528-.685a1.94 1.94 0 0 0-.773-.387 2.17 2.17 0 0 0-.965-.033c-.32.061-.621.194-.883.389l-8.962 6.666zm-10.075-6.562l-.004.114c.001.3.077.594.219.858a1.81 1.81 0 0 0 .597.651l5.746 3.917-2.696-6.237a1.91 1.91 0 0 0-.499-.674c-.215-.185-.468-.32-.741-.395-.29-.084-.595-.103-.894-.055a2.03 2.03 0 0 0-.832.335 1.95 1.95 0 0 0-.896 1.486zM52.224 239.29a3.16 3.16 0 0 1 .701 2.456c-.066.492-.242.962-.515 1.376s-.635.762-1.061 1.017l-8.421 5.183 8.254 7.872a3.19 3.19 0 0 1 .917 1.864 3.18 3.18 0 0 1-.428 2.031l-.114.184a3.34 3.34 0 0 1-1.306 1.248c-.542.288-1.152.423-1.765.389a3.05 3.05 0 0 1-1.581-.522 3.06 3.06 0 0 1-1.071-1.276l-5.33-11.584a.95.95 0 0 1-.083-.488.94.94 0 0 1 .175-.463l6.489-8.982c.293-.399.669-.729 1.102-.968a3.43 3.43 0 0 1 1.406-.418 3.18 3.18 0 0 1 1.342.187 3.17 3.17 0 0 1 1.143.73l.143.164zm-7.354 6.606l5.485-3.375.006-.006a1.42 1.42 0 0 0 .683-1.028 1.19 1.19 0 0 0-.768-1.329c-.175-.063-.362-.084-.547-.062a1.53 1.53 0 0 0-.626.186c-.193.107-.36.254-.49.431l-3.743 5.183zm2.858 14.704a1.21 1.21 0 0 0 .388.298 1.22 1.22 0 0 0 .474.119 1.47 1.47 0 0 0 .777-.177 1.46 1.46 0 0 0 .571-.554l.115-.186a1.28 1.28 0 0 0-.194-1.552l-5.56-5.303 3.259 7.081c.044.099.101.191.17.274z"/></g><g class="G"><path d="M79.088 167.457l-.068.516-.461.24-51.779 26.96 21.587 41.404 63.037-32.825a23.34 23.34 0 0 0 12.368-17.69v-.001l2.912-22.353-.086-.064.067-.576 4.073-34.833-5.473 4.902-.791.659c-3.197 2.667-6.798 5.672-10.371 7.769-3.83 2.248-7.945 3.645-11.629 2.077-4.201-1.789-6.85-5.65-8.691-10.132s-2.948-9.782-3.945-14.664l-2.509-12.014-.646-3.016c-1.591 2.413-2.645 5.149-3.079 8.023a20 20 0 0 0 1.284 10.607l.102.247-.035.264-5.867 44.5zm49.731-4.659l9.997 7.376.338.25.059.416 10.403 74.051.045-.003 2.795-.196 10.341-.816a1056.43 1056.43 0 0 0 33.552-3.378l-6.115-39.053-.001-.008-6.284-40.062c-.507-2.917-1.65-6.345-3.264-9.495-1.619-3.161-3.671-5.961-5.952-7.696l-.026-.02-.024-.022-31.577-27.465-7.846 6.461-.529.436-.597-.336c-.592-.332-1.052-.454-1.35-.47-.14-.008-.221.007-.264.02a.69.69 0 0 0 .031.177c.075.262.296.681.801 1.216l.624.663-.601.683-.278-.244.277.244v.001l-.001.001-.002.002-.007.008-.027.031-.103.113-.203.222-.052.654-.307 4.233-.011.148-.32 4.395-.131 1.505a12.95 12.95 0 0 1-.056.48c-.009.062-.02.129-.033.192-.004.02-.01.045-.017.072l-3.285 25.214zm3.662-39.993zm.041-.051z" class="E H"/><path d="M139.055 170.908c.087.078.2.121.317.121.019 0 .039-.001.058-.003l.039.331-.04-.331c.063-.008.123-.027.178-.058s.103-.072.142-.121.068-.106.085-.166a.47.47 0 0 0 .014-.186l-.934-7.868-.001-.003c-.007-.062-.026-.123-.056-.178a.48.48 0 0 0-.122-.143.46.46 0 0 0-.167-.086.49.49 0 0 0-.187-.015c-.063.008-.123.027-.178.058a.47.47 0 0 0-.227.29c-.017.061-.021.125-.013.187v.003l.935 7.867c.013.116.069.223.157.301z" class="D F"/></g><g class="C"><use xlink:href="#B"/><path d="M145.438 150.483a2.81 2.81 0 0 0 2.813-2.808 2.81 2.81 0 1 0-5.626 0 2.81 2.81 0 0 0 2.813 2.808z"/></g><g class="B"><path d="M66.956 224.526a2.81 2.81 0 0 0 2.813-2.808 2.813 2.813 0 1 0-5.626 0 2.81 2.81 0 0 0 2.813 2.808zm87.482-87.043a2.81 2.81 0 0 0 2.813-2.808 2.813 2.813 0 1 0-5.626 0 2.81 2.81 0 0 0 2.813 2.808zm-113 71a2.81 2.81 0 0 0 2.813-2.808 2.813 2.813 0 1 0-5.626 0 2.81 2.81 0 0 0 2.813 2.808zm8.999-14.534c1.174-1.016 1.3-2.79.282-3.961a2.82 2.82 0 0 0-3.968-.282c-1.173 1.016-1.3 2.789-.282 3.961s2.795 1.298 3.968.282zm4.001 23.534a2.81 2.81 0 0 0 2.813-2.808 2.813 2.813 0 1 0-5.626 0 2.81 2.81 0 0 0 2.813 2.808z"/></g><path d="M70.907 208.53a2.81 2.81 0 0 0 2.813-2.808 2.81 2.81 0 1 0-5.626 0 2.81 2.81 0 0 0 2.813 2.808z" class="C"/><g class="B"><path d="M87.28 206.069a2.81 2.81 0 0 0 2.813-2.808 2.813 2.813 0 1 0-5.626 0 2.81 2.81 0 0 0 2.813 2.808zm-11.537-14.008a2.81 2.81 0 0 0 2.813-2.808 2.813 2.813 0 1 0-5.626 0 2.81 2.81 0 0 0 2.813 2.808z"/><use xlink:href="#C"/></g><g class="C"><path d="M94.614 189.252a2.81 2.81 0 0 0 2.813-2.808 2.813 2.813 0 1 0-5.626 0 2.81 2.81 0 0 0 2.813 2.808zm-12.39-14.355a2.81 2.81 0 0 0 2.813-2.808 2.813 2.813 0 1 0-5.626 0 2.81 2.81 0 0 0 2.813 2.808z"/></g><g class="B"><path d="M71.224 172.934c.374.121.717.322 1.006.589.547.507.87 1.211.899 1.955s-.24 1.47-.747 2.016-1.21.868-1.954.895a2.82 2.82 0 0 1-2.017-.75 2.78 2.78 0 0 1-.818-2.696M43.197 224.49a2.81 2.81 0 0 1 2.138-.251c.717.202 1.324.682 1.687 1.332s.452 1.418.248 2.135-.993 1.298-1.645 1.662"/></g><path d="M57.438 204.483a2.81 2.81 0 0 0 2.813-2.808 2.81 2.81 0 1 0-5.626 0 2.81 2.81 0 0 0 2.813 2.808z" class="C"/><g class="B"><use xlink:href="#D"/><path d="M165.479 213.264a2.81 2.81 0 0 0 2.813-2.808 2.813 2.813 0 1 0-5.626 0 2.81 2.81 0 0 0 2.813 2.808zm-4.773 15.868a2.81 2.81 0 0 0 2.813-2.808c0-1.55-1.26-2.808-2.813-2.808s-2.814 1.258-2.814 2.808a2.81 2.81 0 0 0 2.814 2.808zm-11.032-12.621a2.81 2.81 0 0 0 2.814-2.808 2.814 2.814 0 1 0-5.627 0 2.81 2.81 0 0 0 2.813 2.808zm5.405-16.438c1.553 0 2.813-1.258 2.813-2.808a2.813 2.813 0 1 0-5.626 0 2.81 2.81 0 0 0 2.813 2.808zm-8.641-21.59a2.81 2.81 0 0 0 2.813-2.808 2.813 2.813 0 1 0-5.626 0 2.81 2.81 0 0 0 2.813 2.808z"/></g><path d="M176.438 230.483a2.81 2.81 0 0 0 2.813-2.808 2.81 2.81 0 1 0-5.626 0 2.81 2.81 0 0 0 2.813 2.808z" class="C"/><path d="M187.438 236.483a2.81 2.81 0 0 0 2.813-2.808 2.81 2.81 0 1 0-5.626 0 2.81 2.81 0 0 0 2.813 2.808z" class="B"/><path d="M157.438 239.483a2.81 2.81 0 0 0 2.813-2.808 2.81 2.81 0 1 0-5.626 0 2.81 2.81 0 0 0 2.813 2.808z" class="C"/><g class="B"><path d="M172.292 195.791a2.81 2.81 0 0 0 2.813-2.808 2.814 2.814 0 1 0-5.627 0 2.81 2.81 0 0 0 2.814 2.808zm-28.854-62.308a2.81 2.81 0 0 0 2.813-2.808 2.813 2.813 0 1 0-5.626 0 2.81 2.81 0 0 0 2.813 2.808zm41 77a2.81 2.81 0 0 0 2.813-2.808 2.813 2.813 0 1 0-5.626 0 2.81 2.81 0 0 0 2.813 2.808zm-26-26a2.81 2.81 0 0 0 2.813-2.808 2.813 2.813 0 1 0-5.626 0 2.81 2.81 0 0 0 2.813 2.808zm20-9a2.81 2.81 0 0 0 2.813-2.808 2.813 2.813 0 1 0-5.626 0 2.81 2.81 0 0 0 2.813 2.808zm-81-11a2.81 2.81 0 0 0 2.813-2.808 2.813 2.813 0 1 0-5.626 0 2.81 2.81 0 0 0 2.813 2.808z"/></g><g class="C"><path d="M93.232 149.622c1.036-1.155.938-2.93-.219-3.964s-2.936-.937-3.972.219-.938 2.93.219 3.964 2.936.937 3.972-.219zm28.659-4.413a2.81 2.81 0 0 0 2.813-2.808 2.813 2.813 0 1 0-5.626 0 2.81 2.81 0 0 0 2.813 2.808z"/></g><g class="B"><path d="M117.118 161.08a2.81 2.81 0 0 0 2.813-2.807 2.813 2.813 0 1 0-5.626 0 2.81 2.81 0 0 0 2.813 2.807zm-8.68-8.597a2.81 2.81 0 0 0 2.813-2.808 2.813 2.813 0 1 0-5.626 0 2.81 2.81 0 0 0 2.813 2.808zm-20-18a2.81 2.81 0 0 0 2.813-2.808 2.813 2.813 0 1 0-5.626 0 2.81 2.81 0 0 0 2.813 2.808zm61 31a2.81 2.81 0 0 0 2.813-2.808 2.813 2.813 0 1 0-5.626 0 2.81 2.81 0 0 0 2.813 2.808z"/></g><path d="M179.251 150.675c0 .555-.165 1.098-.474 1.56s-.748.822-1.262 1.034a2.82 2.82 0 0 1-3.066-.609c-.394-.392-.662-.893-.77-1.437a2.8 2.8 0 0 1 .16-1.623c.213-.513.574-.951 1.036-1.26s1.007-.473 1.563-.473" class="C"/><path d="M134.239 156.093a2.81 2.81 0 0 0 2.813-2.808c0-1.55-1.26-2.808-2.813-2.808a2.81 2.81 0 0 0-2.813 2.808 2.81 2.81 0 0 0 2.813 2.808z" class="B"/><path d="M115.727 176.948a2.81 2.81 0 0 0 2.813-2.808 2.81 2.81 0 1 0-5.626 0 2.81 2.81 0 0 0 2.813 2.808z" class="C"/><g class="B"><path d="M99.606 176.886a2.81 2.81 0 0 0 2.813-2.808 2.813 2.813 0 1 0-5.626 0 2.81 2.81 0 0 0 2.813 2.808zm60.832-27.403a2.81 2.81 0 0 0 2.813-2.808 2.813 2.813 0 1 0-5.626 0 2.81 2.81 0 0 0 2.813 2.808zm-48.978 42.578a2.81 2.81 0 0 0 2.813-2.808 2.813 2.813 0 1 0-5.627 0 2.81 2.81 0 0 0 2.814 2.808zm-48.022-1.578a2.81 2.81 0 0 0 2.813-2.808 2.813 2.813 0 1 0-5.626 0 2.81 2.81 0 0 0 2.813 2.808z"/></g><path d="M132.125 127.867l3-2-4.5 37-2.5-2 4-33z" class="E"/><path d="M193.773 241.195c.099 6.856 3.63 11.523 11.32 11.306l14.3.093c7.393-.17 13.56 4.831 14.91 12.467l.069.363-48.56 14.206-19.805-16.429-1.939 12.886-15.412-2.512 4.602-28.434 40.515-3.946z" class="B"/><path d="M185.747 280.654c-.167-.028-.323-.101-.454-.209l-18.511-15.355-1.689 11.227c-.019.124-.062.242-.127.349s-.151.2-.252.274-.217.126-.339.155a.95.95 0 0 1-.372.015l-15.412-2.513c-.248-.04-.47-.177-.617-.381a.94.94 0 0 1-.166-.705l4.601-28.435a.95.95 0 0 1 .287-.538c.153-.143.348-.231.557-.252l40.514-3.946a.94.94 0 0 1 .387.043.93.93 0 0 1 .338.194.95.95 0 0 1 .316.692c.051 3.48 1.045 6.244 2.874 7.993 1.746 1.67 4.26 2.471 7.471 2.38h.032l14.3.093c7.903-.181 14.426 5.268 15.839 13.25l.067.351a.95.95 0 0 1-.665 1.085l-48.56 14.205a.96.96 0 0 1-.419.028zm-35.915-7.772l13.528 2.203 1.797-11.938a.95.95 0 0 1 .6-.742.94.94 0 0 1 .493-.05c.166.027.321.098.45.206l19.417 16.107 47.248-13.824c-1.417-6.789-7.052-11.375-13.864-11.217l-14.311-.092c-3.728.102-6.697-.875-8.82-2.908-2.012-1.926-3.184-4.781-3.418-8.306l-38.787 3.778-4.333 26.783z" class="D"/><path d="M.947 212.141l26.612-13.993 18.733 35.718c-5.441 5.995-5.804 13.93-3.607 22.058 1.937 7.157-2.038 14.453-9.189 17.597l-.307.161-21.509-41.079 7.986-12.826-11.466 6.192-7.253-13.828z" class="B"/><path d="M32.35 274.12a.95.95 0 0 0 1.279.401l.279-.147c7.636-3.373 11.712-11.232 9.691-18.698-2.409-8.915-1.267-16.04 3.395-21.174.131-.143.214-.324.238-.517s-.011-.388-.101-.56l-18.733-35.718a.95.95 0 0 0-.557-.465c-.24-.075-.499-.052-.722.065L.506 211.3c-.222.117-.389.316-.464.556a.95.95 0 0 0 .066.723l7.253 13.829c.058.111.138.209.235.289s.208.14.328.177.246.049.37.037.246-.05.356-.109l8.322-4.494-6.097 9.791c-.087.14-.136.301-.142.466s.031.329.108.476L32.35 274.12zm12.801-40.393c-4.756 5.597-5.894 13.142-3.381 22.442 1.734 6.407-1.691 13.162-8.17 16.259l-20.831-39.785 7.699-12.366c.11-.177.159-.386.139-.594a.95.95 0 0 0-.791-.844.95.95 0 0 0-.601.101l-10.623 5.737-6.367-12.139 24.936-13.112 17.99 34.301z" class="D"/><path d="M204.985 108.223l.002.006.01.034.035.143c.029.128.063.318.085.557.044.481.036 1.16-.172 1.944-.412 1.554-1.627 3.577-4.929 5.297l-32.933 13.392-.002.001a13.21 13.21 0 0 1-7.047.73c-2.372-.402-4.589-1.444-6.412-3.014l-.007-.006-.007-.006-7.248-5.575-.207-.159-.205.163-28.829 22.984c-2.34 1.868-5.246 2.884-8.241 2.882l-.334-.001v.007c-2.911-.075-5.719-1.11-7.984-2.947a13.2 13.2 0 0 1-4.6-7.528l-.006-.027-.01-.026L79.19 94.279a17.88 17.88 0 0 1-1.196-7.632c.162-2.601.891-5.135 2.135-7.425s2.974-4.281 5.068-5.833a17.91 17.91 0 0 1 7.037-3.151l12.631-1.036 20.567.279h.009a72.09 72.09 0 0 1 5.109.234 13.24 13.24 0 0 1 9.645 5.596l13.381 18.661h26.229l25.18 14.249zm0 0l-.003-.01-3.237-10.779-4.863-7.603a13.16 13.16 0 0 0-6.945.749l-.008.003-.008.003-16.994 5.692-.07.024-.074-.009-18.978-2.187-.143-.016-.086-.115-5.015-6.679-.007-.009-8.359-11.973 13.381 18.661h26.229l25.18 14.249z" fill="#ffed96"/><g class="G"><path d="M204.985 108.223l.002.006.01.034.035.143c.029.128.063.318.085.557.044.481.036 1.16-.172 1.944-.412 1.554-1.627 3.577-4.929 5.297l-32.933 13.392-.002.001a13.21 13.21 0 0 1-7.047.73c-2.372-.402-4.589-1.444-6.412-3.014l-.007-.006-.007-.006-7.248-5.575-.207-.159-.205.163-28.829 22.984c-2.34 1.868-5.246 2.884-8.241 2.882l-.334-.001v.007c-2.911-.075-5.719-1.11-7.984-2.947a13.2 13.2 0 0 1-4.6-7.528l-.006-.027-.01-.026m109.04-28.851l-.003-.01-3.237-10.779-4.863-7.603a13.16 13.16 0 0 0-6.945.749l-.008.003-.008.003-16.994 5.692-.07.024-.074-.009-18.978-2.187-.143-.016-.086-.115m51.409 14.249l-51.409-14.249m51.409 14.249l-25.18-14.249h-26.229m0 0l-5.015-6.679-.007-.009-8.359-11.973m13.381 18.661l-13.381-18.661M77.994 86.647c.162-2.601.891-5.135 2.135-7.425s2.974-4.281 5.068-5.833a17.91 17.91 0 0 1 7.037-3.151l12.631-1.036 20.567.279h.009a72.09 72.09 0 0 1 5.109.234 13.24 13.24 0 0 1 9.645 5.596" class="F"/><path d="M140.169 74l14.5 20 6 6 29.5-10c3.2-.8 6-.667 7-.5l5.5 8.5c.833 2.333 2.7 7.9 3.5 11.5s-4 6.5-6.5 7.5l-32.5 13c-5.6 2.4-11-.333-13-2l-7.5-6-27.5 22c-6.5 5-9.5 5-15 3.5-4.4-1.2-7.5-7.5-8.5-10.5l-5.5-14.5-12-31c-.333-1.5-.4-6.1 2-12.5s9.333-8.667 12.5-9l13-1h19.5c5 0 7 .5 9.5 1 2 .4 4.5 2.833 5.5 4z" class="H"/></g><path d="M116.332 115.67v.334-.334a.47.47 0 0 0 .299-.104l18.151-14.466c1.614-1.287 3.551-2.104 5.599-2.362h.002a.48.48 0 0 0 .32-.181.48.48 0 0 0 .084-.167.47.47 0 0 0 .013-.186c-.008-.062-.028-.123-.059-.177s-.073-.103-.123-.141a.48.48 0 0 0-.355-.096h-.001a12.18 12.18 0 0 0-6.077 2.564h0l-17.121 13.644-.423.338-.112-.53-3.621-17.216-.001-.004a.46.46 0 0 0-.072-.174.47.47 0 0 0-.133-.133c-.053-.035-.112-.059-.175-.071s-.126-.011-.188.002-.121.038-.173.074-.097.082-.131.135a.48.48 0 0 0-.069.175c-.011.062-.009.126.004.188l.001.004 3.893 18.505c.022.107.081.204.166.273s.192.107.302.106z" class="D"/><g class="F G"><path d="M116.332 115.67v.334-.334zm0 0a.47.47 0 0 0 .299-.104l18.151-14.466c1.614-1.287 3.551-2.104 5.599-2.362h.002a.48.48 0 0 0 .32-.181.48.48 0 0 0 .084-.167.47.47 0 0 0 .013-.186c-.008-.062-.028-.123-.059-.177s-.073-.103-.123-.141a.48.48 0 0 0-.355-.096h-.001a12.18 12.18 0 0 0-6.077 2.564h0l-17.121 13.644-.423.338-.112-.53-3.621-17.216-.001-.004a.46.46 0 0 0-.072-.174.47.47 0 0 0-.133-.133c-.053-.035-.112-.059-.175-.071s-.126-.011-.188.002-.121.038-.173.074-.097.082-.131.135a.48.48 0 0 0-.069.175c-.011.062-.009.126.004.188l.001.004 3.893 18.505c.022.107.081.204.166.273s.192.107.302.106z"/><path d="M136.1 114.371c1.598 3.485 5.09 5.669 8.672 6.059 3.573.389 7.191-1.01 9.094-4.641a4.46 4.46 0 0 0 .142-.287l.005-.009c.83-1.713 1.822-3.396 3.317-4.743 1.501-1.353 3.491-2.35 6.291-2.726h0l1.474-.179c1.603-.186 3.312-.384 4.708-.804.916-.276 1.648-.634 2.113-1.11.447-.458.667-1.042.53-1.847-.08-.467-.465-.876-1.212-1.223-.739-.344-1.759-.591-2.949-.77-1.992-.3-4.387-.402-6.604-.496l-1.273-.056-.11-.643 3.403-1.341c2.408-.934 4.824-1.871 6.803-2.834 1.463-.711 2.651-1.42 3.404-2.128s.998-1.34.796-1.935c-.238-.698-.687-1.211-1.36-1.547-.684-.341-1.614-.507-2.813-.466-1.97.068-4.596.694-7.876 1.915l-.408.168-1.339.531-.378.143-.1.037-.026.01-.007.002-.001.001h-.001s0 0-.114-.314l.114.314-.243-.622c.782-.325 1.535-.623 2.259-.892 1.032-.43 2.301-.987 3.55-1.611 1.427-.713 2.81-1.504 3.783-2.282.487-.39.855-.762 1.075-1.105s.272-.617.209-.841h0c-.12-.431-.455-.74-1.057-.921-.612-.184-1.459-.219-2.499-.112-2.076.213-4.805.979-7.686 2.063a66.6 66.6 0 0 0-8.521 3.932c-2.639 1.459-4.878 2.969-6.228 4.281h0l-.007.006-.226-.246.226.246h0 0l-.001.001-.003.003-.013.012-.053.048-.225.201-1.024.895-5.122 4.331-.214-.256.214.256c-2.528 2.11-3.567 4.561-3.772 6.942-.205 2.391.43 4.73 1.283 6.588z" class="C"/><path d="M154.585 116.165h.001l.164-.332.004-.008c.885-1.824 1.886-3.412 3.296-4.626s3.22-2.041 5.679-2.372h0l1.423-.173.018-.002 4.471-.725c1.383-.367 2.491-.902 3.113-1.729.235-.318.401-.681.486-1.067a2.81 2.81 0 0 0 .009-1.173h0l-.002-.011c-.179-1.049-1.158-1.763-2.83-2.243-1.652-.474-3.84-.676-6.178-.804l-.102-.645 8.592-3.815c1.089-.659 1.906-1.323 2.384-2.001.466-.663.603-1.329.359-2.043l-.001-.003c-.152-.461-.4-.885-.729-1.243a3.42 3.42 0 0 0-1.177-.832h0l-.007-.003c-.956-.431-2.26-.58-3.929-.412l-.22-.608c1.008-.684 1.683-1.309 2.068-1.884.377-.565.464-1.063.333-1.53h0c-.14-.5-.533-1.191-1.71-1.509-1.249-.337-3.177-.165-5.489.395-2.297.555-4.919 1.479-7.527 2.591-5.228 2.229-10.333 5.188-12.614 7.404h0l-.007.007-.226-.246.226.246h0-.001l-.001.001-.003.003-.013.012-.055.049-.228.204-1.031.899-5.063 4.282c-3.061 2.554-4.037 5.5-4.105 8.139-.069 2.655.782 5.012 1.398 6.354 1.751 3.818 5.876 6.476 10.263 6.591.104.003.207.004.309.004 3.802 0 6.934-1.861 8.652-5.14zm18.567-24.985l.004.001a2.5 2.5 0 0 1 1.411 1.524c.115.34.059.679-.098.992-.155.307-.412.602-.729.883-.634.563-1.577 1.133-2.666 1.689-2.181 1.115-5.041 2.225-7.438 3.154l-.008.003-.048.019-3.338 1.315a.48.48 0 0 0-.291.524.48.48 0 0 0 .155.277c.082.072.186.114.295.12l1.153.05.117.005.009.001c1.871.079 4.392.186 6.483.484 1.045.148 2.003.347 2.726.622.36.137.68.3.924.498s.432.445.488.754a1.88 1.88 0 0 1 .012.79 1.89 1.89 0 0 1-.321.733l-.003.004c-.287.383-.722.675-1.22.906s-1.094.415-1.724.562c-1.252.294-2.701.462-3.971.609l-.013.002-.04.004-1.419.173c-2.864.385-4.864 1.405-6.358 2.749s-2.506 3.038-3.36 4.798c-.053.115-.1.206-.146.295-1.59 3.034-4.547 4.716-8.089 4.624-4.022-.106-7.807-2.521-9.417-6.034-.559-1.218-1.347-3.38-1.296-5.827.051-2.462.951-5.201 3.746-7.533l.214.257-.214-.257 6.444-5.493c2.365-2.296 7.409-5.132 12.385-7.242 2.496-1.058 4.991-1.94 7.146-2.483 1.077-.272 2.075-.46 2.949-.542s1.637-.06 2.245.103h0c.383.104.635.252.799.422s.217.345.239.422h0l.001.004c.044.167.021.567-.586 1.205s-1.853 1.574-4.397 2.846a58.04 58.04 0 0 1-3.572 1.62h0l-.012.004c-.714.266-1.456.559-2.226.88-.115.048-.206.14-.254.254s-.051.244-.005.36.134.21.248.261a.48.48 0 0 0 .36.015c.073-.027.994-.365 2.287-.903h0l.012-.004c3.826-1.424 6.394-1.9 8.124-1.902a5.56 5.56 0 0 1 2.283.4z" class="D"/></g><path d="M221.213 116.177l15.637-47.505-47.514-15.641-15.736 47.563 47.613 15.583z" class="E"/><g class="D"><path d="M173.317 101.455l47.613 15.583c.228.075.476.056.69-.052s.377-.297.452-.525l15.637-47.504c.075-.228.057-.476-.051-.69s-.297-.377-.525-.452l-47.514-15.641c-.228-.075-.476-.056-.691.052a.9.9 0 0 0-.451.525l-15.736 47.563c-.038.113-.052.232-.044.35a.92.92 0 0 0 .094.341.91.91 0 0 0 .218.278c.09.078.195.137.308.174v-.001zm47.319 13.583l-45.892-15.019 15.167-45.844 45.797 15.076-15.072 45.788zm-37.18-18.685l32.421 10.672c.228.075.476.057.69-.051s.377-.297.452-.525l10.67-32.414c.075-.228.056-.476-.052-.69s-.297-.377-.525-.452l-32.42-10.673c-.228-.075-.477-.056-.691.052s-.376.297-.451.525l-10.67 32.414c-.075.228-.057.476.051.69s.297.377.525.452zm32.127 8.671l-30.702-10.106 10.104-30.696 30.703 10.107-10.105 30.695z"/></g><g fill="#07377f"><path d="M201.097 71.185l-3.859-1.318-6.613 19.37 3.859 1.318 6.613-19.37zm10.291 3.512l-3.859-1.318-6.614 19.37 3.859 1.318 6.614-19.37zm5.514 9.093l-3.859-1.318-4.409 12.912 3.86 1.318 4.408-12.912zm2.205-6.457l-3.86-1.318-1.322 3.874 3.859 1.318 1.323-3.874z"/><path d="M206.17 81.567l-9.005-3.075-1.323 3.874 9.005 3.075 1.323-3.874z"/></g><g fill="#ffbca5"><path d="M237.272 49.435c-.687-.23-.242-.055-.225-.043l.191.178-.074.136-.664-.073.361.278-.569-.041.415.309-.773-.121.178.225.002.162.016.17-.211.098.737.431-.952-.187.541.361.162.223-.323.044-.028.151-.343.034.339.294.223.245-.531-.037.357.292-.483-.02.636.403-.63-.076.338.302-.811-.151.874.506-.286.054-.709-.112.526.369-.19.094-.507-.035.783.472-.141.108-.362.02.263.27-.481-.034-.109.119.611.41-.916-.204.168.232-.167.097.531.38-.711-.127.531.382-.249.064-.478-.032.352.307-.296.043.076.19.204.25.068.191-.001.166-.278.049.017.172-.085.131-.398-.004.033.18.504.381-.089.129-.075.136-.423-.016-.051.145c.024.067.069.141.1.209l-.278.047.599.428-.272.048.135.233-.353.011.073.2.061.191c.014.046-.273-.042.087.157.058.032-.021.034.768.384l.366.161.646.28.405.189a.49.49 0 0 0 .113.038c.05-.023-.046-.108-.061-.158l.072-.139-.061-.191.306-.03.399.006-.116-.221.344-.022-.125-.226c.011-.053.019-.106.024-.16l.19-.092-.346-.319.385-.004.295-.045-.205-.258.46.026-.005-.173-.077-.203.522.049-.346-.317-.297-.294.651.102.14-.112-.64-.434.746.14-.498-.375.127-.117.159-.104.489.029.15-.109-.601-.444-.017-.172.957.216-.639-.425.13-.117.723.126-.47-.349-.337-.302.954.208-.702-.446.603.065-.398-.324.735.125-.729-.453.556.048-.396-.322.725.11-.402-.324-.017-.176.849.132.03-.157-.085-.201-.724-.442.164-.107.702.109.203-.093-.806-.469.722.101-.474-.348.355-.035-.223-.244.06-.158.111-.127.584.045.154-.112.055-.148-.663-.406.396-.025.692.08-.04-.182-.254-.257.414-.021-.605-.383.234.028.183.023c.022-.002.153.032-.11-.074l-2.476-.891-1.673-.573zm14.75 4.915c-.456-.555-.192-.181-.191-.169l-.002.106a.27.27 0 0 0 .009.085l.004.045-.158.127-.54-.346.124.483-.488-.282.141.5-.624-.448-.012.311-.126.17-.11.187-.263.004.363.764-.753-.583.236.6-.013.301-.335-.081-.14.15-.351-.097.114.444.034.346-.48-.243.118.446-.455-.221.321.672-.549-.316.135.456-.676-.461.486.859-.311-.043-.614-.371.259.588-.239.04-.461-.215.439.784-.194.071-.37-.1.083.392-.457-.191-.191.099.339.65-.776-.523.019.314-.228.056.289.589-.637-.351.293.589-.283.002-.451-.173.152.443-.318-.027-.04.248.053.34-.049.235-.103.182-.311-.021-.087.196-.165.122-.413-.113-.074.207.297.57-.169.119-.151.135-.433-.129-.134.153-.018.26-.333-.031.41.653-.313-.013.031.309-.379-.071-.019.254-.028.245c-.018.05-.242-.09.047.233.047.051-.02.05.608.61l.302.25.521.454a3.58 3.58 0 0 0 .436.357c.079.002.052-.087.051-.155l.14-.138.026-.238.336.041.413.119-.017-.278.36.069-.039-.302.088-.182.23-.051-.197-.452.39.102.31.028-.083-.348.443.156.078-.194.022-.248.483.2-.18-.446-.139-.408.58.297.193-.079-.384-.658.652.379-.276-.56.193-.085.213-.061.458.191.207-.064-.352-.633.088-.188.798.549-.369-.665.193-.081.621.377-.254-.538-.143-.435.784.558-.404-.72.526.284-.182-.484.621.395-.401-.752.493.257-.176-.482.611.391-.176-.486.092-.187.691.489.126-.148.047-.238-.385-.725.221-.042.584.382.244-.01-.432-.805.593.401-.206-.543.347.112-.034-.344.142-.132.193-.079.495.297.213-.043.149-.12-.321-.688.373.153.56.39a1.66 1.66 0 0 1 .094-.189l-.034-.344.408.206-.264-.643.186.138.129.087c.015.011.102.092-.062-.146l-.177-.242-.302-.4-1.086-1.4-1.061-1.35zm2.847 13.868c-.213-.643-.092-.223-.091-.207l-.005.096c.004.042.011.116.001.113l-.099.031-.275-.514.028.433-.25-.427.046.463-.308-.62-.033.239-.084.078-.078.097-.146-.112.129.742-.359-.78.072.565-.038.226-.176-.21-.093.052-.183-.231.016.388-.021.276-.247-.398.015.388-.224-.356.1.65-.256-.487.019.405-.32-.656.168.867-.167-.178-.287-.556.069.554-.135-.082-.229-.367.141.784-.123-.044-.188-.244-.008.318-.222-.352-.114-.016.094.631-.348-.744-.035.235-.131-.067.069.559-.287-.556.069.558-.154-.138-.221-.344.015.388-.165-.178-.059.158-.024.267-.063.142-.084.08-.161-.163-.078.095-.107.011-.197-.275-.074.112.052.53-.11.001-.105.01-.207-.303-.098.033-.059.16-.171-.192.093.631-.17-.189-.042.21-.197-.278-.063.142-.066.135c-.015.035-.133-.25-.032.141.007.066-.027.003.237.823l.124.377.22.673.141.414a.57.57 0 0 0 .042.111c.035.02.02-.111.034-.155l.096-.042.053-.175.17.188.198.278.039-.224.176.212.038-.225.084-.082.134.076-.019-.403.192.257.165.178.023-.271.215.325.08-.09.06-.154.23.378-.015-.388-.003-.348.267.493.125.044-.097-.644.299.588-.052-.528.119.031.129.059.224.355.126.052-.088-.618.08-.09.359.774-.099-.65.12.035.29.567-.05-.511-.013-.388.358.774-.117-.712.252.456-.03-.439.296.58-.127-.735.249.419-.03-.437.293.573-.033-.442.078-.095.329.684.092-.052.06-.156-.126-.731.131.069.288.555.143.105-.148-.805.294.572-.049-.497.188.242.023-.271.098-.039.116.022.252.45.129.061.101-.028-.106-.675.201.282.289.555.077-.101.018-.288.216.335-.091-.622.095.185.072.137c.002.017.054.123-.013-.133l-.724-2.309-.526-1.528z"/></g><g class="C"><path d="M101.08 48.867a8.5 8.5 0 1 0 0-17 8.5 8.5 0 0 0 0 17z"/><path d="M101.19 65.585c-.005 2.639 1.03 5.174 2.882 7.057s4.37 2.96 7.011 3a10.05 10.05 0 0 0 7.099-2.786c1.908-1.825 3.02-4.328 3.095-6.966v-.013l.038-1.423.154-5.58c2.6-.703 4.978-2.055 6.911-3.929a15.87 15.87 0 0 0 4.139-6.783 15.85 15.85 0 0 0 .33-7.938 15.86 15.86 0 0 0-3.561-7.104c.479-1.179.814-2.411.997-3.669v-.005c.475-3.127.001-6.324-1.362-9.178L120.243 19l-11.375 1.619L105.245 25l-5 1.691"/></g><g class="G"><path d="M128 21c.5.167 1.6 1.4 2 5s-.333 6-1 7c1 1.167 3.1 4.6 3.5 7 .5 3 .5 8-2 12s-8.5 7-9.5 7v6.5c-.167 3.333-2.3 10-9.5 10-3.167 0-9.6-1.9-10-9.5s-.5-13.833-.5-16" class="I"/><g class="H"><path d="M113.245 11.03c-11.6.797-19 9.97-18 21.47 9.5-4.5 13.04 3.726 13 3-.149-2.687-1.909-8.765-.232-11.617.377-.642.876-1.258 1.504-1.66 2.943-1.882 12.239-1.111 18.082-.759.606.037 1.092-.479.891-1.052-1.385-3.96-7.97-9.882-15.245-9.382z" class="E"/><g class="J"><path d="M108.245 36.002c-.5-3.002-7-7.137-12.686-3.355-7.995 5.319-1.815 22.352 11.5 14.998"/></g></g><path d="M121.586 44.317a4.92 4.92 0 0 1-2.447-.659l-.005-.003h-.001c-.651-.36-1.194-.89-1.569-1.533a4.13 4.13 0 0 1-.564-2.12V40m4.588 4.317a4.17 4.17 0 0 0 2.08-.533c1.169-.675 1.834-1.908 1.836-3.529" stroke-linejoin="round" class="I J"/><g class="D F"><path d="M114 31.16a1.341 1.341 0 1 0 2.682 0 1.341 1.341 0 1 0-2.682 0zm11.692-.047a1.341 1.341 0 1 0 2.682 0 1.341 1.341 0 1 0-2.682 0z"/></g><path d="M122.231 29l1.653 6.613a1 1 0 0 1-1.075 1.237l-3.309-.35" class="I J"/><path d="M97.966 43.588a.48.48 0 0 0 .276.111h.031a.48.48 0 0 0 .162-.028h0l5.573-2.006c.091-.033.17-.093.227-.172a.47.47 0 0 0 .089-.271c.002-.097-.027-.192-.081-.273s-.131-.143-.222-.179l-5.213-2.057h0l-.008-.003c-.059-.025-.122-.038-.186-.038a.48.48 0 0 0-.343.144.48.48 0 0 0-.103.159c-.023.059-.035.123-.033.187s.016.127.042.185.064.111.111.154a.48.48 0 0 0 .162.099h0l.008.003 3.212 1.268.823.325-.833.3-3.547 1.277h0a.48.48 0 0 0-.252.21c-.057.097-.077.212-.058.322a.48.48 0 0 0 .164.284z" class="D F"/></g></g><defs><clipPath id="A"><path transform="translate(0 10)" d="M0 0h257v271H0z" class="E"/></clipPath><path id="B" d="M167.438 178.483a2.81 2.81 0 0 0 2.813-2.808 2.81 2.81 0 1 0-5.626 0 2.81 2.81 0 0 0 2.813 2.808z"/><path id="C" d="M103.874 203.858a2.81 2.81 0 0 0 2.813-2.808 2.81 2.81 0 1 0-5.627 0 2.81 2.81 0 0 0 2.814 2.808z"/><path id="D" d="M162.335 167.175a2.81 2.81 0 0 0 2.813-2.808c0-1.55-1.26-2.808-2.813-2.808s-2.814 1.258-2.814 2.808a2.81 2.81 0 0 0 2.814 2.808z"/></defs></svg>