<svg width="354" height="298" viewBox="0 0 354 298" fill="none" xmlns="http://www.w3.org/2000/svg">
<path d="M330.009 56.2875V55.2824H329.968L329.961 17H0V298H330.009L330.002 257.468H330.009V256.462H330.002L329.995 217.221H330.009V216.215H329.995L329.988 177.023H330.009V176.017H329.988L329.981 136.778H330.009V135.772H329.981L329.974 96.5323H330.009V95.5263H329.974L329.967 56.287L330.009 56.2875ZM328.958 18.1021V55.2824H289.762V18.1021H328.958ZM288.758 18.1021V55.2824H248.272V18.1021H288.758ZM164.813 136.779H205.778V176.018H164.813V136.779ZM163.81 176.018H122.845V136.779H163.81V176.018ZM164.813 135.773V96.5328H205.778V135.773H164.813ZM163.81 135.773H122.845V96.5328H163.81V135.773ZM121.841 135.773H80.8275V96.5328H121.84L121.841 135.773ZM121.841 136.779V176.018H80.8275V136.779H121.841ZM121.841 177.024V216.215H80.8275V177.024H121.841ZM122.845 177.024H163.81V216.215H122.845V177.024ZM164.813 177.024H205.778V216.215H164.813V177.024ZM206.781 177.024H247.268V216.215H206.781V177.024ZM206.781 176.018V136.779H247.268V176.018H206.781ZM206.781 135.773V96.5328H247.268V135.773H206.781ZM206.781 95.5268V56.2875H247.268V95.5268H206.781ZM205.778 95.5268H164.813V56.2875H205.778V95.5268ZM163.81 95.5268H122.845V56.2875H163.81V95.5268ZM121.841 95.5268H80.8275V56.2875H121.84L121.841 95.5268ZM79.8257 95.5268H38.8612V56.2875H79.8257V95.5268ZM79.8257 96.5328V135.773H38.8612V96.5328H79.8257ZM79.8257 136.779V176.018H38.8612V136.779H79.8257ZM79.8257 177.024V216.215H38.8612V177.024H79.8257ZM79.8257 217.222V256.461H38.8612V217.221L79.8257 217.222ZM80.8294 217.222H121.841V256.461H80.8275L80.8294 217.222ZM122.845 217.222H163.81V256.461H122.845V217.222ZM164.813 217.222H205.778V256.461H164.813V217.222ZM206.781 217.222H247.268V256.461H206.781V217.222ZM248.272 217.222H288.758V256.461H248.272V217.222ZM248.272 216.215V177.024H288.758V216.215H248.272ZM248.272 176.018V136.779H288.758V176.018H248.272ZM248.272 135.773V96.5328H288.758V135.773H248.272ZM248.272 95.5268V56.2875H288.758V95.5268H248.272ZM247.268 18.1021V55.2824H206.781V18.1021H247.268ZM205.778 18.1021V55.2824H164.813V18.1021H205.778ZM163.81 18.1021V55.2824H122.845V18.1021H163.81ZM121.841 18.1021V55.2824H80.8275V18.1021H121.841ZM79.8257 18.1021V55.2824H38.8612V18.1021H79.8257ZM1.05183 18.1021H37.8576V55.2824H1.05183V18.1021ZM1.05183 56.2875H37.8576V95.5268H1.05183V56.2875ZM1.05183 96.5328H37.8576V135.773H1.05183V96.5328ZM1.05183 136.779H37.8576V176.018H1.05183V136.779ZM1.05183 177.024H37.8576V216.215H1.05183V177.024ZM1.05183 217.222H37.8576V256.461H1.05183V217.222ZM1.05183 296.946V257.467H37.8576V296.946H1.05183ZM38.8612 296.946V257.467H79.8257V296.946H38.8612ZM80.8294 296.946V257.467H121.841V296.946H80.8294ZM122.845 296.946V257.467H163.81V296.946H122.845ZM164.813 296.946V257.467H205.778V296.946H164.813ZM206.781 296.946V257.467H247.268V296.946H206.781ZM248.272 296.946V257.467H288.758V296.946H248.272ZM328.959 296.946H289.762V257.467H328.958L328.959 296.946ZM328.959 256.461H289.762V217.221H328.958L328.959 256.461ZM328.959 216.216H289.762V177.024H328.958L328.959 216.216ZM328.959 176.018H289.762V136.779H328.958L328.959 176.018ZM328.959 135.773H289.762V96.5328H328.958L328.959 135.773ZM328.959 95.5272H289.762V56.2875H328.958L328.959 95.5272Z" fill="#E7F1FF"/>
<path d="M292.542 75.1333C291.873 75.3138 292.32 75.2177 292.34 75.2183L292.587 75.2596L292.599 75.4069L292.032 75.7004L292.467 75.7304L291.992 75.9994L292.486 76.0257L291.807 76.3379L292.067 76.4234L292.154 76.5511L292.258 76.6777L292.141 76.8674L292.956 76.8203L292.099 77.1756L292.721 77.1769L292.968 77.269L292.734 77.4743L292.791 77.6098L292.536 77.8182L292.962 77.8729L293.269 77.9495L292.827 78.2015L293.266 78.2453L292.87 78.4858L293.591 78.4698L293.048 78.7429L293.478 78.8046L292.752 79.1136L293.716 79.0541L293.517 79.2479L292.893 79.5346L293.507 79.5498L293.405 79.7249L292.983 79.9654L293.856 79.9266L293.801 80.0875L293.523 80.2951L293.876 80.3708L293.475 80.5987L293.451 80.7518L294.155 80.7542L293.318 81.0766L293.574 81.1725L293.492 81.3388L294.117 81.3603L293.483 81.6353L294.108 81.6583L293.944 81.8407L293.546 82.0689L293.989 82.1265L293.776 82.3176L293.937 82.4284L294.232 82.5199L294.387 82.6354L294.474 82.7684L294.278 82.9546L294.383 83.0826L294.385 83.2315L294.065 83.4392L294.187 83.5649L294.79 83.6017L294.787 83.7516L294.8 83.8989L294.454 84.1107L294.49 84.2535C294.545 84.2937 294.62 84.3291 294.681 84.3671L294.484 84.5518L295.189 84.5757L294.998 84.7582L295.228 84.873L294.953 85.0688L295.117 85.1893L295.267 85.3096C295.303 85.3385 295.027 85.4204 295.419 85.3887C295.483 85.3828 295.421 85.4263 296.235 85.288L296.612 85.2226L297.275 85.1032L297.697 85.0395C297.735 85.0342 297.772 85.0243 297.808 85.01C297.835 84.9657 297.714 84.9486 297.676 84.9168L297.659 84.7678L297.509 84.6474L297.737 84.4617L298.058 84.2556L297.849 84.1402L298.111 83.9404L297.891 83.8267C297.873 83.7784 297.851 83.7315 297.825 83.6863L297.928 83.5127L297.484 83.4415L297.789 83.2338L297.999 83.0425L297.7 82.9451L298.08 82.7219L297.984 82.5867L297.815 82.4658L298.257 82.2285L297.813 82.1588L297.42 82.0819L297.993 81.8183C298.012 81.7639 298.026 81.7089 298.045 81.6545L297.305 81.6473L297.974 81.3635L297.378 81.3287L297.418 81.1677L297.489 81.0004L297.893 80.7648L297.955 80.5979L297.241 80.5623L297.137 80.4343L298.013 80.0996L297.279 80.0996L297.321 79.9375L297.963 79.6552L297.404 79.6266L296.976 79.5638L297.846 79.2245L297.051 79.2413L297.566 78.9735L297.077 78.9262L297.729 78.6368L296.908 78.662L297.376 78.4057L296.89 78.3587L297.526 78.0624L297.035 78.0176L296.928 77.8866L297.674 77.542L297.615 77.401L297.44 77.2863L296.63 77.3177L296.704 77.1454L297.32 76.8606L297.433 76.6785L296.543 76.7317L297.171 76.4294L296.609 76.4032L296.874 76.1875L296.566 76.1109L296.531 75.9533L296.552 75.7932L297.04 75.5202L297.104 75.3494L297.07 75.2027L296.327 75.23L296.629 75.0006L297.222 74.6975L297.095 74.5739C296.989 74.549 296.863 74.5207 296.756 74.5037L297.075 74.2678L296.39 74.2834L296.591 74.1822L296.75 74.1037C296.766 74.0905 296.888 74.0488 296.622 74.1035C296.357 74.1581 295.705 74.3122 294.178 74.7046L292.542 75.1333Z" fill="#FFBCA5"/>
<path d="M306.894 71.2364C306.236 71.0362 306.644 71.1942 306.652 71.2031L306.706 71.2884C306.72 71.3122 306.738 71.3336 306.758 71.3518L306.786 71.3857L306.727 71.571L306.113 71.581L306.468 71.9005L305.93 71.9343L306.308 72.2573L305.573 72.2311L305.728 72.4849L305.718 72.6871L305.729 72.8942L305.522 73.0364L306.215 73.4528L305.307 73.3865L305.812 73.7397L305.962 73.9861L305.652 74.0992L305.619 74.2925L305.288 74.4009L305.614 74.6945L305.825 74.9523L305.314 75.0132L305.644 75.3058L305.164 75.3711L305.776 75.7361L305.171 75.7755L305.52 76.0674L304.738 76.0581L305.58 76.4851L305.309 76.6157L304.624 76.6445L305.142 76.9759L304.972 77.134L304.491 77.2073L305.256 77.5996L305.139 77.7588L304.792 77.8751L305.065 78.1431L304.6 78.2329L304.5 78.4128L305.115 78.751L304.219 78.7455L304.4 78.9856L304.249 79.1509L304.791 79.4671L304.097 79.5249L304.642 79.8387L304.418 79.99L303.967 80.0906L304.322 80.3627L304.055 80.5099L304.154 80.7283L304.377 80.9711L304.462 81.1841L304.477 81.3833L304.217 81.5312L304.252 81.7338L304.185 81.9183L303.796 82.0467L303.847 82.2509L304.386 82.5478L304.314 82.7318C304.295 82.7936 304.28 82.8572 304.264 82.9193L303.851 83.0454L303.826 83.238L303.949 83.4546L303.667 83.6058L304.339 83.9091L304.083 84.0641L304.271 84.2939C304.155 84.3412 304.042 84.3893 303.932 84.4381L304.051 84.6503L304.158 84.86C304.171 84.9087 303.918 84.9163 304.319 85.0209C304.384 85.0367 304.33 85.0707 305.126 85.1843L305.499 85.2237L306.154 85.3098C306.332 85.3414 306.511 85.3591 306.691 85.3626C306.755 85.3228 306.686 85.266 306.65 85.2122L306.688 85.029L306.583 84.8249L306.872 84.6799L307.264 84.5559L307.103 84.3436C307.212 84.2987 307.326 84.253 307.427 84.2074L307.235 83.988L307.209 83.7957L307.365 83.6336L306.969 83.3778L307.333 83.2524L307.595 83.1101L307.345 82.8769L307.781 82.7666L307.74 82.5715L307.626 82.3625L308.117 82.2659L307.738 82.0063L307.411 81.7547L308.03 81.6841L308.142 81.519L307.488 81.1985L308.208 81.1556L307.692 80.8554L307.8 80.6859L307.938 80.5246L308.404 80.4336L308.534 80.273L307.919 79.9551L307.89 79.7584L308.815 79.7736L308.169 79.439L308.28 79.2724L308.975 79.2432L308.487 78.9486L308.143 78.6776L309.063 78.7071L308.36 78.348L308.929 78.2956L308.528 78.0069L309.232 77.9921L308.514 77.6058L309.043 77.5494L308.648 77.2585L309.342 77.2468L308.944 76.9529L308.918 76.7553L309.728 76.7794L309.75 76.5945L309.661 76.3798L308.97 76.0057L309.124 75.8555L309.792 75.8507L309.981 75.7135L309.21 75.3016L309.896 75.3067L309.444 74.9832L309.779 74.8888L309.57 74.6324L309.613 74.4524L309.725 74.2872L310.277 74.2616L310.423 74.1147L310.478 73.9399L309.859 73.5619L310.236 73.4866L310.89 73.5007C310.877 73.4346 310.868 73.3677 310.865 73.3004L310.655 73.0441L311.089 72.9919L310.538 72.6193C310.616 72.6242 310.702 72.6327 310.759 72.6302L310.908 72.6313C310.926 72.6317 311.038 72.6508 310.781 72.5483L310.512 72.4487L310.06 72.2904L308.454 71.7503C307.659 71.4729 307.179 71.3295 306.894 71.2364Z" fill="#FFBCA5"/>
<path d="M316.506 80.7778C315.997 80.3786 316.315 80.6496 316.324 80.6611L316.371 80.7402C316.397 80.7717 316.441 80.8263 316.431 80.8296L316.369 80.9067L315.878 80.6429L316.13 80.9731L315.705 80.7653L315.986 81.1097L315.412 80.7792L315.512 80.9867L315.487 81.0934L315.477 81.2119L315.301 81.1999L315.797 81.723L315.098 81.2918L315.454 81.7037L315.543 81.9036L315.291 81.8295L315.245 81.9199L314.977 81.8325L315.195 82.1333L315.325 82.3644L314.917 82.1781L315.135 82.4788L314.768 82.3143L315.191 82.7795L314.73 82.5272L314.959 82.8396L314.357 82.4869L314.951 83.0884L314.723 83.0349L314.2 82.7445L314.548 83.1491L314.397 83.1551L314.02 82.9844L314.548 83.534L314.427 83.5637L314.148 83.4688L314.31 83.7265L313.947 83.5635L313.848 83.611L314.256 84.0643L313.585 83.6555L313.682 83.8612L313.542 83.8775L313.893 84.2863L313.37 83.9959L313.721 84.4033L313.524 84.375L313.166 84.2178L313.383 84.5186L313.157 84.4639L313.194 84.6209L313.316 84.846L313.341 84.9928L313.317 85.1009L313.102 85.0565L313.091 85.1736L313.011 85.2386L312.708 85.1245L312.709 85.2533L313.031 85.6479L312.944 85.7071L312.866 85.7709L312.541 85.639L312.48 85.7175L312.517 85.8759L312.28 85.8137L312.689 86.267L312.453 86.2062L312.531 86.3959L312.226 86.2789L312.251 86.4256L312.27 86.5679C312.277 86.6035 312.033 86.4392 312.32 86.6973C312.36 86.7461 312.3 86.7136 312.944 87.2277L313.243 87.4622L313.775 87.8819L314.106 88.1376C314.135 88.1621 314.166 88.1841 314.198 88.2035C314.237 88.2007 314.155 88.1043 314.144 88.0615L314.197 87.9771L314.147 87.8097L314.382 87.869L314.687 87.986L314.599 87.7876L314.852 87.8631L314.763 87.6632L314.786 87.5537L314.933 87.5434L314.705 87.2324L314.994 87.3361L315.22 87.3907L315.095 87.1627L315.438 87.308L315.455 87.194L315.421 87.0399L315.805 87.2192L315.588 86.9184L315.401 86.6428L315.875 86.8946L315.997 86.8636L315.579 86.4015L316.128 86.7113L315.807 86.3181L315.919 86.2796L316.053 86.2589L316.419 86.4234L316.547 86.3982L316.15 85.9524L316.167 85.8383L316.862 86.2652L316.439 85.8L316.553 85.7644L317.085 86.0621L316.774 85.6818L316.558 85.3798L317.254 85.8067L316.783 85.3016L317.226 85.531L316.969 85.1977L317.512 85.503L317.022 84.9845L317.442 85.1866L317.187 84.8547L317.723 85.1556L317.463 84.8207L317.474 84.7036L318.099 85.074L318.145 84.9837L318.11 84.8281L317.622 84.3125L317.764 84.2977L318.287 84.5881L318.456 84.5956L317.912 84.0327L318.449 84.3335L318.147 83.9633L318.425 84.0567L318.3 83.8287L318.358 83.7459L318.462 83.7015L318.901 83.9265L319.036 83.9072L319.102 83.8318L318.66 83.3504L318.969 83.469L319.494 83.7582L319.502 83.6367L319.363 83.3983L319.713 83.5508L319.311 83.1034L319.485 83.2006L319.615 83.2717C319.625 83.2847 319.723 83.3414 319.534 83.1727C319.345 83.004 318.86 82.6132 317.735 81.7167L316.506 80.7778Z" fill="#FFBCA5"/>
<path d="M171.106 76.3632C161.483 77.3935 155.323 66.6249 161.45 59.3129C161.55 59.2132 161.616 59.1135 161.716 59.0138C164.546 55.8896 166.811 52.2336 165.179 46.4173C164.014 42.296 161.583 36.3134 165.645 35.3496C168.442 34.6848 171.573 41.5648 174.07 46.5502C173.937 38.5403 173.77 28.0376 177.5 27.7717C181.229 27.4726 182.095 35.0837 182.128 45.4202C184.093 34.0201 183.493 27.7385 187.123 27.8714C193.083 28.1041 190.519 51.6354 187.356 59.5788L185.691 64.7305C183.66 71.0786 177.899 75.632 171.106 76.3632Z" fill="#FFF1ED"/>
<path d="M169.879 77.4261C167.723 77.4407 165.604 76.8682 163.75 75.7702C161.896 74.6723 160.377 73.0905 159.356 71.195C158.276 69.2207 157.825 66.9647 158.061 64.7277C158.298 62.4907 159.212 60.3789 160.682 58.6736C160.701 58.6509 160.721 58.6293 160.741 58.6087C160.769 58.5812 160.791 58.5529 160.814 58.5253C160.869 58.4588 160.924 58.395 160.988 58.3299C163.964 55.0395 165.65 51.7986 164.216 46.6862C164.074 46.1853 163.913 45.6539 163.747 45.1075C162.784 41.9361 161.692 38.3419 162.975 36.1114C163.236 35.6671 163.588 35.283 164.008 34.9845C164.428 34.686 164.907 34.4799 165.413 34.3798C168.225 33.7104 170.681 37.6642 173.026 42.2336C173.018 33.3974 173.679 27.0446 177.427 26.7787C177.894 26.7396 178.364 26.7996 178.806 26.9547C179.248 27.1098 179.652 27.3566 179.991 27.6787C181.271 28.8543 182.114 31.0971 182.599 34.8687C183.287 29.7596 184.041 26.7591 187.157 26.8764C187.928 26.9066 189.032 27.2314 189.929 28.6083C193.536 34.1422 191.046 52.9705 188.294 59.9169L186.64 65.0373C184.495 71.7414 178.438 76.5776 171.211 77.3553C170.769 77.4026 170.324 77.4262 169.879 77.4261ZM162.192 59.9801C160.992 61.3827 160.246 63.1161 160.055 64.9508C159.863 66.7856 160.234 68.6351 161.119 70.2547C163.047 73.8569 166.833 75.8165 170.999 75.3711C177.44 74.6781 182.833 70.382 184.739 64.4268L186.404 59.2721C186.411 59.2512 186.418 59.2306 186.426 59.21C189.221 52.1938 191.249 34.2881 188.255 29.6935C187.789 28.9759 187.362 28.8782 187.082 28.8673H187.027C185.431 28.8673 185.034 31.4766 184.301 37.3026C183.999 39.7019 183.657 42.421 183.111 45.5898C183.069 45.8358 182.936 46.0572 182.738 46.21C182.54 46.3628 182.292 46.436 182.043 46.4152C181.794 46.3943 181.561 46.2808 181.392 46.0972C181.222 45.9136 181.128 45.6732 181.128 45.4236C181.108 39.3985 180.828 31.1559 178.639 29.1454C178.502 29.0074 178.335 28.9018 178.152 28.8361C177.968 28.7704 177.772 28.7465 177.578 28.7659C176.533 28.8407 175.716 30.882 175.328 34.3675C174.925 37.9806 175.001 42.5247 175.068 46.534C175.071 46.76 174.998 46.9806 174.86 47.1595C174.721 47.3385 174.526 47.4653 174.306 47.519C174.086 47.5727 173.855 47.5503 173.649 47.4553C173.444 47.3603 173.276 47.1985 173.175 46.9963C172.969 46.5839 172.757 46.1581 172.543 45.7247C170.839 42.2887 167.668 35.8971 165.875 36.3188C165.636 36.358 165.407 36.4484 165.206 36.5839C165.004 36.7194 164.834 36.8968 164.708 37.1039C163.854 38.5872 164.855 41.8809 165.659 44.5279C165.829 45.0872 165.994 45.6306 166.139 46.1455C167.927 52.5179 165.28 56.564 162.456 59.6819C162.444 59.6942 162.433 59.7065 162.421 59.7182C162.394 59.7458 162.372 59.774 162.348 59.8013C162.3 59.8621 162.25 59.9212 162.193 59.9807L162.192 59.9801Z" fill="#3C4043"/>
<path d="M96.4557 9.67724C90.5114 7.74676 84.1303 7.60361 78.1053 9.26559C72.0803 10.9276 66.6769 14.3214 62.5666 19.0254C58.4562 23.7295 55.8201 29.5363 54.9857 35.7245C54.1513 41.9126 55.1554 48.2093 57.8733 53.8321L98.623 50.229L96.4557 9.67724Z" fill="white"/>
<path d="M57.8727 54.6626C57.8971 54.6626 57.9215 54.6626 57.9462 54.6593L98.6959 51.0557C98.9109 51.0368 99.11 50.9352 99.2514 50.7723C99.3929 50.6095 99.4654 50.3982 99.4539 50.1829L97.2865 9.63195C97.2775 9.46429 97.2179 9.30327 97.1155 9.1701C97.0132 9.03692 96.8728 8.93782 96.713 8.88585C90.6138 6.90509 84.0664 6.75824 77.8844 8.46352C71.7023 10.1688 66.158 13.651 61.9405 18.4776C57.7229 23.3042 55.0179 29.2623 54.1616 35.6117C53.3053 41.9611 54.3353 48.422 57.1239 54.1915C57.1917 54.3324 57.2979 54.4514 57.4304 54.5347C57.5628 54.618 57.7161 54.6624 57.8727 54.6626ZM97.7487 49.4698L58.3771 52.9504C56.4915 48.8808 55.5208 44.4482 55.533 39.9638C55.5371 35.1165 56.6776 30.3374 58.8631 26.0096C61.0486 21.6817 64.2185 17.9254 68.1186 15.0414C72.0188 12.1574 76.5408 10.2261 81.3226 9.40195C86.1043 8.57786 91.0128 8.88396 95.6548 10.2957L97.7487 49.4698Z" fill="#3C4043"/>
<path d="M104.841 17.9638C107.56 17.5204 111.099 16.9661 114.151 13.9173L118.867 8.09701L123.11 11.4434C122.25 8.20066 120.89 5.34594 118.144 3.43355C115.955 1.91281 113.39 1.02204 110.728 0.858492C108.067 0.694941 105.412 1.26489 103.053 2.50612C100.694 3.74735 98.7214 5.61216 97.3511 7.89696C95.9807 10.1818 95.265 12.7987 95.2821 15.4622V16.4323L96.117 15.8594C96.4962 15.4713 96.7301 15.5212 97.2268 15.305C99.0376 14.5165 101.014 14.7893 102.81 15.708C103.737 16.1915 104.458 16.9926 104.841 17.9644V17.9638Z" fill="white"/>
<path d="M104.841 18.7956C104.886 18.7957 104.931 18.7921 104.975 18.7848L105.045 18.7734C107.779 18.33 111.524 17.7202 114.739 14.5069C114.76 14.4861 114.779 14.4645 114.798 14.442L118.996 9.25999L122.594 12.0961C122.731 12.2043 122.899 12.2666 123.073 12.2742C123.248 12.2819 123.42 12.2345 123.566 12.1387C123.712 12.043 123.824 11.9037 123.887 11.7408C123.949 11.5778 123.959 11.3993 123.914 11.2306C123.245 8.70845 121.968 5.08322 118.619 2.75177C116.305 1.14386 113.593 0.202002 110.779 0.0290272C107.966 -0.143948 105.159 0.458609 102.665 1.77091C100.17 3.08321 98.0852 5.05482 96.6365 7.47046C95.1877 9.88611 94.4312 12.6529 94.4495 15.4689V16.4326C94.4495 16.5841 94.4909 16.7327 94.5693 16.8624C94.6477 16.9921 94.7601 17.098 94.8944 17.1685C95.0286 17.239 95.1796 17.2716 95.331 17.2626C95.4824 17.2537 95.6285 17.2036 95.7535 17.1177L96.5883 16.544C96.6325 16.5137 96.6735 16.4791 96.7109 16.4409C96.8068 16.3372 96.9345 16.2683 97.0738 16.2449C97.2386 16.1942 97.4006 16.1348 97.5591 16.067C99.4016 15.2649 101.225 15.8314 102.43 16.4481C103.179 16.8397 103.761 17.4882 104.069 18.2743C104.131 18.4282 104.237 18.56 104.375 18.6529C104.512 18.7458 104.675 18.7955 104.841 18.7956ZM113.53 13.3614C110.893 15.9777 107.859 16.6196 105.32 17.0429C104.83 16.1556 104.088 15.4335 103.187 14.9681C101.032 13.8644 98.7959 13.7136 96.8924 14.5426C96.7852 14.5878 96.6758 14.6273 96.5644 14.661C96.413 14.7062 96.2652 14.7631 96.1225 14.8311C96.2192 12.3748 96.9753 9.98971 98.3117 7.92563C99.6481 5.86154 101.516 4.19446 103.719 3.09904C105.921 2.00361 108.379 1.52015 110.833 1.6993C113.287 1.87845 115.648 2.71363 117.668 4.11733C119.329 5.27224 120.543 6.84955 121.456 9.08039L119.383 7.44516C119.211 7.30958 118.993 7.24713 118.775 7.27136C118.557 7.29559 118.358 7.40454 118.22 7.57459L113.53 13.3614Z" fill="#3C4043"/>
<path d="M28.9787 133.505C28.9787 133.485 33.533 160.931 38.1621 174.092L49.7896 137.533L28.9787 133.505Z" fill="#FFF1ED"/>
<path d="M38.162 174.923H38.1748C38.3494 174.92 38.5187 174.863 38.6588 174.759C38.7989 174.655 38.9027 174.509 38.9555 174.343L50.583 137.784C50.6185 137.672 50.63 137.554 50.6167 137.438C50.6033 137.321 50.5654 137.209 50.5054 137.108C50.4454 137.007 50.3647 136.92 50.2686 136.852C50.1725 136.785 50.0632 136.738 49.9479 136.716L29.1379 132.689C29.0628 132.674 28.9862 132.67 28.9101 132.676C28.7938 132.686 28.6808 132.72 28.5785 132.776C28.4762 132.832 28.3869 132.909 28.3163 133.002C28.2456 133.095 28.1953 133.201 28.1686 133.315C28.1418 133.429 28.1392 133.546 28.161 133.661L28.1762 133.75C28.9642 138.404 33.1103 162.237 37.378 174.367C37.4351 174.53 37.5412 174.67 37.6816 174.77C37.822 174.869 37.9899 174.923 38.162 174.923ZM48.7133 138.172L38.1457 171.398C34.4765 159.712 31.0392 140.569 30.0018 134.551L48.7133 138.172Z" fill="#3C4043"/>
<path d="M82.8491 51.8473C78.0535 50.2394 72.9438 49.7937 67.9418 50.5471C62.9397 51.3005 58.1887 53.2313 54.0808 56.1803C49.973 59.1293 46.626 63.0119 44.3161 67.5076C42.0062 72.0034 40.7997 76.9834 40.796 82.0368L82.8491 51.8473Z" fill="white"/>
<path d="M40.7966 82.868C40.9709 82.8681 41.1408 82.8135 41.2824 82.712L83.3344 52.5229C83.4588 52.4336 83.5561 52.3118 83.6157 52.1708C83.6752 52.0299 83.6947 51.8752 83.6719 51.7239C83.6491 51.5726 83.585 51.4305 83.4866 51.3133C83.3882 51.1961 83.2593 51.1082 83.1141 51.0595C78.1934 49.4096 72.9504 48.9523 67.8179 49.7253C62.6854 50.4984 57.8105 52.4797 53.5955 55.5056C49.3805 58.5315 45.9462 62.5154 43.5761 67.1284C41.206 71.7415 39.968 76.8514 39.9642 82.0366C39.9642 82.2571 40.0519 82.4686 40.208 82.6245C40.3641 82.7804 40.5758 82.868 40.7966 82.868ZM81.0006 52.1504L41.6725 80.383C41.9241 75.7479 43.2132 71.2282 45.4448 67.1566C47.6763 63.085 50.7936 59.5652 54.5671 56.8564C58.3405 54.1475 62.6741 52.3185 67.2487 51.5041C71.8234 50.6896 76.5226 50.9105 81.0006 52.1504Z" fill="#3C4043"/>
<path d="M44.0966 232.395C43.921 241.395 42.0014 250.833 34.6976 252.849C27.2621 254.9 22.2958 261.635 22.8785 269.395L58.6411 269.146L73.1515 246.363L73.0405 269.146H84.5822L84.6377 232.201L44.0966 232.395Z" fill="#E7F1FF"/>
<path d="M22.8787 270.227H22.8845L58.6471 269.977C58.7862 269.976 58.9228 269.94 59.0444 269.873C59.1661 269.806 59.2689 269.709 59.3435 269.592L72.3055 249.241L72.2084 269.141C72.2078 269.25 72.2289 269.359 72.2705 269.46C72.3121 269.561 72.3733 269.654 72.4507 269.731C72.528 269.809 72.62 269.871 72.7212 269.913C72.8225 269.955 72.931 269.976 73.0407 269.976H84.5824C84.8031 269.976 85.0148 269.889 85.1709 269.733C85.327 269.577 85.4147 269.365 85.4147 269.145L85.4702 232.2C85.4702 231.979 85.3825 231.768 85.2264 231.612C85.0703 231.456 84.8586 231.368 84.6379 231.368H84.634L44.0927 231.562C43.8754 231.563 43.6671 231.649 43.5124 231.801C43.3577 231.954 43.2687 232.161 43.2645 232.378C43.0403 243.881 40.0833 250.499 34.4761 252.047C26.5537 254.232 21.4432 261.391 22.0485 269.457C22.0642 269.666 22.1584 269.862 22.3124 270.004C22.4663 270.147 22.6686 270.227 22.8787 270.227ZM58.1824 268.317L23.6699 268.558C23.496 261.615 28.0286 255.551 34.9195 253.65C41.1789 251.922 44.5377 245.051 44.9075 233.222L83.8036 233.036L83.7506 268.314H73.8764L73.9832 246.367C73.984 246.187 73.9262 246.011 73.8184 245.866C73.7106 245.722 73.5586 245.616 73.3855 245.565C73.2123 245.515 73.0273 245.521 72.8583 245.585C72.6893 245.648 72.5455 245.765 72.4486 245.917L58.1824 268.317Z" fill="#3C4043"/>
<path d="M45.0056 72.1483L45.0072 72.1473L90.0202 42.9881L90.2099 42.8838C91.6062 42.1167 93.0909 41.5249 94.6304 41.1212C94.3566 44.4239 96.1936 47.9857 98.9765 49.7189L98.9766 49.719C101.574 51.3354 104.272 50.8178 106.371 49.2983C108.262 47.9303 109.709 45.7296 110.257 43.4456C112.993 45.0281 115.56 47.1942 117.919 49.829C132.923 66.584 140.448 74.9418 144.222 79.1111C146.109 81.1956 147.06 82.2342 147.539 82.7522C147.778 83.0107 147.902 83.1417 147.967 83.2089C147.998 83.2417 148.02 83.2635 148.036 83.2788C148.04 83.2824 148.046 83.2885 148.055 83.2958C148.061 83.3012 148.068 83.3072 148.076 83.3134L148.076 83.3136C148.083 83.319 148.108 83.3394 148.144 83.3596C148.16 83.3681 148.206 83.3938 148.272 83.4096C148.306 83.4178 148.367 83.4286 148.442 83.4205C148.486 83.4138 148.554 83.3954 148.578 83.3864C148.655 83.3469 148.724 83.2948 148.389 82.9234L148.724 83.2948L148.816 83.2111L148.859 83.0936L158.288 57.0395L188.644 68.0076L175.996 102.902L175.996 102.903C174.342 107.487 171.475 111.537 167.7 114.623C163.925 117.708 159.384 119.714 154.558 120.427C153.241 120.622 151.911 120.722 150.579 120.727C147.72 120.726 144.88 120.27 142.166 119.378C142.166 119.377 142.166 119.377 142.166 119.377C142.133 119.245 142.087 119.086 142.03 118.904C141.915 118.539 141.75 118.063 141.542 117.494C141.125 116.355 140.532 114.827 139.815 113.043C138.381 109.475 136.449 104.872 134.448 100.287C132.447 95.7038 130.373 91.1336 128.655 87.6332C127.797 85.8841 127.023 84.3947 126.39 83.3021C126.074 82.7567 125.787 82.301 125.538 81.9584C125.414 81.7873 125.293 81.6368 125.178 81.5149C125.069 81.3995 124.939 81.2808 124.792 81.2052C124.568 81.0902 124.234 81.0172 123.872 80.9616C123.491 80.903 123.011 80.8549 122.45 80.8153C121.329 80.736 119.854 80.6885 118.137 80.6638C114.701 80.6145 110.266 80.6565 105.684 80.724C103.62 80.7543 101.527 80.7898 99.4828 80.8245C92.4309 80.9441 85.9496 81.054 83.1708 80.9113C80.8589 80.7924 78.4167 81.1694 76.9606 83.4504C76.1412 84.7339 75.7813 86.1622 75.5183 87.5584C75.4475 87.9341 75.384 88.3047 75.3213 88.6704C75.1569 89.6301 74.9982 90.5559 74.7291 91.4518L68.4925 95.4462L68.3108 95.5625L68.2708 95.7745L66.487 105.224C66.3509 105.574 66.0096 106.24 65.4859 107.182C64.9502 108.144 64.2421 109.363 63.4143 110.762C62.1587 112.883 60.6327 115.411 59.0231 118.077C58.51 118.927 57.9883 119.791 57.4642 120.66C55.2975 124.255 53.0899 127.94 51.276 131.092C49.6115 133.985 48.2625 136.457 47.5865 137.999L28.0907 134.435L37.8465 82.7413L45.0056 72.1483ZM45.0056 72.1483C43.1552 73.3365 41.5663 74.8884 40.3356 76.7095C39.105 78.5303 38.2582 80.5823 37.8467 82.7404L45.0056 72.1483Z" fill="#FFED96" stroke="#3C4043"/>
<path d="M78.1708 82.4244C78.2881 82.4246 78.4041 82.4 78.5112 82.3522C78.6183 82.3045 78.7141 82.2346 78.7923 82.1473C78.8705 82.06 78.9293 81.9571 78.9649 81.8455C79.0005 81.7339 79.0121 81.616 78.999 81.4995C78.6983 79.0204 79.0686 76.506 80.0713 74.2183C81.1648 71.7139 81.561 68.961 81.218 66.2503C81.1917 66.0313 81.0795 65.8317 80.9059 65.6954C80.7324 65.5591 80.5118 65.4973 80.2926 65.5235C80.0733 65.5497 79.8735 65.6618 79.7371 65.8352C79.6006 66.0085 79.5387 66.229 79.565 66.4479C79.8719 68.8643 79.52 71.3186 78.5465 73.5518C77.4251 76.1071 77.0102 78.9161 77.3448 81.6861C77.3677 81.889 77.4646 82.0764 77.6169 82.2126C77.7692 82.3487 77.9664 82.4241 78.1708 82.4244Z" fill="#3C4043"/>
<path d="M125.669 82.424C125.694 82.424 125.72 82.424 125.746 82.4204C125.965 82.4003 126.168 82.2938 126.309 82.1243C126.451 81.9548 126.519 81.7362 126.498 81.5166C126.138 77.5981 124.602 74.0993 123.376 71.854C121.915 69.1771 120.968 66.2508 120.585 63.2261C120.555 63.0093 120.441 62.8129 120.268 62.6794C120.094 62.546 119.875 62.4862 119.658 62.5132C119.44 62.5401 119.242 62.6515 119.107 62.8232C118.971 62.995 118.909 63.2132 118.933 63.4306C119.341 66.6619 120.352 69.7883 121.912 72.6481C123.064 74.7586 124.506 78.0341 124.84 81.669C124.859 81.8754 124.954 82.0673 125.108 82.207C125.261 82.3466 125.461 82.424 125.669 82.424Z" fill="#3C4043"/>
<path d="M181.269 224.385C180.492 234.834 183.072 250.798 200.301 253.404C207.931 254.568 212.703 261.358 212.121 269.119L168.673 269.146L151.943 247.195L152.054 268.869H140.512L140.457 240.531L181.269 224.385Z" fill="#E7F1FF"/>
<path d="M168.671 269.978L212.119 269.95C212.329 269.95 212.531 269.871 212.685 269.728C212.839 269.585 212.933 269.39 212.948 269.181C213.582 260.766 208.314 253.785 200.425 252.581C182.2 249.826 181.536 231.989 182.097 224.447C182.108 224.306 182.082 224.165 182.023 224.037C181.964 223.909 181.874 223.798 181.76 223.715C181.646 223.631 181.513 223.578 181.373 223.56C181.233 223.542 181.091 223.56 180.96 223.612L140.148 239.757C139.992 239.819 139.858 239.926 139.764 240.064C139.67 240.202 139.62 240.366 139.62 240.533L139.676 268.872C139.676 269.092 139.764 269.303 139.92 269.459C140.076 269.614 140.288 269.702 140.508 269.702H152.05C152.16 269.702 152.268 269.68 152.369 269.638C152.471 269.596 152.563 269.534 152.64 269.457C152.717 269.379 152.779 269.287 152.82 269.185C152.862 269.084 152.883 268.975 152.882 268.866L152.784 249.678L168.009 269.65C168.086 269.752 168.187 269.834 168.302 269.891C168.416 269.948 168.543 269.978 168.671 269.978ZM211.329 268.287L169.083 268.315L152.603 246.692C152.497 246.553 152.351 246.451 152.184 246.4C152.017 246.349 151.838 246.352 151.673 246.408C151.507 246.464 151.364 246.571 151.263 246.713C151.162 246.855 151.108 247.025 151.109 247.2L151.215 268.038H141.341L141.288 241.095L180.36 225.638C180.181 229.729 180.463 236.331 183.281 242.196C186.539 248.976 192.223 253.023 200.175 254.224C206.94 255.258 211.531 261.11 211.329 268.288V268.287Z" fill="#3C4043"/>
<path d="M128.964 89.3545L183.065 223.36L139.063 241.098L99.8353 143.911L85.6268 168.677V232.202H38.156V162.164C38.156 161.581 38.1941 160.998 38.27 160.42L46.2249 141.754L76.0549 89.3545H128.964Z" fill="white"/>
<path d="M139.062 241.93C139.169 241.93 139.274 241.909 139.373 241.869L183.376 224.131C183.581 224.049 183.744 223.889 183.83 223.686C183.916 223.483 183.919 223.255 183.836 223.05L129.735 89.0446C129.673 88.891 129.566 88.7593 129.428 88.6666C129.291 88.5739 129.129 88.5244 128.963 88.5244H76.0541C75.9071 88.5244 75.7627 88.5632 75.6356 88.637C75.5085 88.7108 75.4033 88.817 75.3306 88.9446L45.5 141.343C45.4842 141.371 45.47 141.399 45.4575 141.428L37.5032 160.094C37.4701 160.172 37.4491 160.254 37.4408 160.338L37.4058 160.681C37.3466 161.173 37.3188 161.668 37.3225 162.164V232.202C37.3225 232.422 37.4102 232.634 37.5663 232.79C37.7224 232.946 37.9341 233.033 38.1549 233.033H85.6257C85.8465 233.033 86.0582 232.946 86.2143 232.79C86.3703 232.634 86.458 232.422 86.458 232.202V168.899L99.7035 145.812L138.29 241.409C138.352 241.563 138.459 241.695 138.596 241.788C138.734 241.88 138.896 241.93 139.062 241.93ZM181.983 222.9L139.524 240.016L100.606 143.6C100.548 143.455 100.45 143.33 100.323 143.238C100.197 143.146 100.047 143.092 99.8914 143.081C99.7355 143.071 99.5798 143.104 99.442 143.178C99.3042 143.251 99.19 143.362 99.1123 143.498L84.9038 168.264C84.8313 168.389 84.793 168.532 84.7928 168.677V231.37H38.9867V162.164C38.983 161.725 39.0078 161.287 39.0607 160.852L39.0835 160.63L46.9704 142.123L76.5383 90.186H128.4L181.983 222.9Z" fill="#3C4043"/>
<path d="M35.4195 149.082C36.2241 152.685 38.9985 163.244 39.8586 165.656C40.7464 168.178 45.4907 168.787 44.4919 162.08C42.2724 147.031 47.2941 147.585 46.0734 140.462" fill="#FFF1ED"/>
<path d="M42.2682 168.253C42.5019 168.254 42.7348 168.226 42.9618 168.17C43.7032 167.987 46.0634 166.997 45.3132 161.959C44.0408 153.331 45.1964 149.972 46.125 147.274C46.8266 145.236 47.4323 143.477 46.8918 140.323C46.8737 140.215 46.8345 140.111 46.7763 140.019C46.7182 139.926 46.6423 139.845 46.553 139.782C46.4637 139.719 46.3627 139.674 46.2559 139.649C46.1491 139.625 46.0385 139.622 45.9305 139.64C45.8225 139.659 45.7193 139.698 45.6266 139.757C45.534 139.815 45.4538 139.891 45.3907 139.981C45.3275 140.07 45.2827 140.171 45.2587 140.278C45.2348 140.385 45.2321 140.495 45.251 140.603C45.7196 143.337 45.2038 144.836 44.5507 146.734C43.5636 149.602 42.3348 153.172 43.6665 162.202C44.0988 165.104 43.3791 166.354 42.5615 166.556C41.8237 166.74 40.9268 166.189 40.6418 165.38C39.7817 162.965 37.0206 152.442 36.2304 148.901C36.1774 148.691 36.0445 148.51 35.86 148.397C35.6755 148.283 35.4538 148.246 35.2423 148.293C35.0307 148.34 34.8459 148.468 34.7271 148.649C34.6083 148.83 34.565 149.05 34.6063 149.263C35.4042 152.836 38.1984 163.481 39.0731 165.935C39.3082 166.599 39.7395 167.176 40.31 167.59C40.8804 168.004 41.5633 168.235 42.2682 168.253Z" fill="#3C4043"/>
<path d="M74.0123 92.1397L74.7358 92.5508L67.2724 105.66L66.5489 105.249L74.0123 92.1397Z" fill="#3C4043"/>
<path d="M125.638 81.5938H78.1671L76.0586 89.3542H128.967L125.638 81.5938Z" fill="white"/>
<path d="M76.0566 90.1851H128.965C129.103 90.1851 129.239 90.151 129.36 90.0858C129.481 90.0205 129.585 89.9263 129.66 89.8114C129.736 89.6965 129.782 89.5646 129.795 89.4275C129.807 89.2905 129.785 89.1525 129.731 89.026L126.401 81.2656C126.337 81.116 126.23 80.9885 126.094 80.899C125.958 80.8094 125.799 80.7617 125.636 80.7617H78.1652C77.9825 80.7617 77.8048 80.8218 77.6597 80.9326C77.5145 81.0435 77.4099 81.1989 77.362 81.3751L75.2534 89.1355C75.2198 89.2589 75.2152 89.3884 75.2399 89.5139C75.2646 89.6395 75.3179 89.7576 75.3957 89.8591C75.4736 89.9607 75.5739 90.0429 75.6887 90.0995C75.8036 90.156 75.9299 90.1853 76.058 90.1851H76.0566ZM127.703 88.5221H77.145L78.8016 82.4247H125.087L127.703 88.5221Z" fill="#3C4043"/>
<path d="M104.849 17.9637C104.412 17.1108 103.777 16.3756 102.995 15.8204C102.214 15.2652 101.31 14.9064 100.36 14.7743C99.4105 14.6422 98.4429 14.7408 97.5395 15.0617C96.636 15.3826 95.8233 15.9163 95.1702 16.6176C94.5171 17.319 94.0429 18.1673 93.7877 19.0906C93.5326 20.0139 93.504 20.9851 93.7044 21.9218C93.9049 22.8585 94.3284 23.7332 94.9391 24.4716C95.5498 25.2101 96.3297 25.7906 97.2128 26.1639L97.316 26.2047C97.4259 27.2529 97.6237 28.29 97.9072 29.3052L95.0592 41.1953C94.8392 42.1138 94.8025 43.0666 94.9511 43.9993C95.0997 44.932 95.4307 45.8264 95.9253 46.6313C96.4199 47.4362 97.0683 48.1358 97.8336 48.6904C98.5989 49.245 99.466 49.6435 100.385 49.8633C101.305 50.0831 102.259 50.1198 103.192 49.9713C104.126 49.8229 105.021 49.4922 105.827 48.9981C107.454 48.0003 108.618 46.3976 109.062 44.5425L110.475 38.6446C112.509 38.726 114.536 38.3613 116.413 37.5762C118.29 36.7911 119.973 35.6046 121.342 34.1002C122.711 32.5958 123.733 30.81 124.337 28.8684C124.941 26.9269 125.112 24.8767 124.838 22.8621C124.609 21.1963 124.078 19.5861 123.271 18.1108C123.409 17.5031 123.506 16.8867 123.561 16.2658C123.644 15.2311 123.616 14.1904 123.478 13.1616C123.398 12.572 123.278 11.9886 123.118 11.4155L118.875 8.09961C116.378 11.1483 114.939 12.5896 110.274 15.3057C108.19 16.5191 106.483 17.5197 104.849 17.9637Z" fill="#FFF1ED"/>
<path d="M102.059 50.8948C103.864 50.8922 105.615 50.2837 107.032 49.167C108.449 48.0502 109.448 46.4902 109.871 44.7375L111.128 39.4881C113.227 39.4748 115.299 39.0144 117.206 38.1376C119.113 37.2609 120.811 35.988 122.186 34.4039C123.561 32.8198 124.583 30.9608 125.182 28.9511C125.781 26.9414 125.945 24.8272 125.661 22.7494C125.434 21.0879 124.921 19.4778 124.147 17.9898C124.259 17.4448 124.34 16.8938 124.39 16.3396C124.478 15.2447 124.449 14.1434 124.302 13.0547C124.217 12.4245 124.088 11.8009 123.917 11.1883C123.868 11.0195 123.768 10.8703 123.629 10.7621L119.387 7.44476C119.216 7.31076 118.998 7.24916 118.782 7.27314C118.566 7.29713 118.368 7.4048 118.23 7.57308C115.802 10.5387 114.451 11.91 109.854 14.5874L109.78 14.6304C108.014 15.6589 106.571 16.4998 105.234 16.9723C104.663 16.0959 103.896 15.3631 102.995 14.8312C102.093 14.2993 101.081 13.9827 100.037 13.9059C98.9924 13.8292 97.9446 13.9945 96.9749 14.3888C96.0051 14.7832 95.1397 15.3961 94.4461 16.1796C93.7525 16.9631 93.2494 17.896 92.9762 18.9057C92.7029 19.9154 92.6668 20.9745 92.8707 22.0004C93.0746 23.0263 93.513 23.9913 94.1517 24.8201C94.7903 25.6489 95.612 26.3191 96.5527 26.7785C96.6568 27.6418 96.8205 28.4969 97.0427 29.3377L94.2485 41.003C93.9665 42.1822 93.9556 43.4099 94.2165 44.5939C94.4775 45.7779 95.0035 46.8875 95.7552 47.8393C96.5068 48.7912 97.4645 49.5606 98.5564 50.0898C99.6484 50.619 100.846 50.8942 102.06 50.8948H102.059ZM110.473 37.8146C110.287 37.8147 110.105 37.8776 109.958 37.9932C109.812 38.1089 109.708 38.2705 109.664 38.4521L108.251 44.3503C107.85 45.9818 106.819 47.3883 105.382 48.2628C103.946 49.1373 102.222 49.4086 100.587 49.0176C98.9511 48.6267 97.5367 47.6051 96.6525 46.176C95.7682 44.7469 95.4859 43.0263 95.8671 41.3899L98.7154 29.4999C98.752 29.346 98.7442 29.185 98.6929 29.0354C98.4305 28.0792 98.2464 27.1034 98.1425 26.1174C98.1227 25.9676 98.064 25.8255 97.9723 25.7053C97.8807 25.5851 97.7591 25.4909 97.6197 25.432L97.5165 25.3913C96.7589 25.0673 96.0905 24.5658 95.5678 23.9292C95.0452 23.2926 94.6837 22.5396 94.5139 21.734C94.3441 20.9283 94.371 20.0937 94.5923 19.3006C94.8137 18.5076 95.2229 17.7794 95.7855 17.1777C96.348 16.5761 97.0474 16.1185 97.8243 15.8439C98.6013 15.5693 99.433 15.4856 100.249 15.5999C101.065 15.7142 101.842 16.0232 102.513 16.5007C103.185 16.9781 103.731 17.6101 104.106 18.3432C104.193 18.513 104.336 18.6479 104.511 18.725C104.686 18.8021 104.882 18.8168 105.066 18.7667C106.786 18.2988 108.562 17.2647 110.618 16.0669L110.692 16.0239C115.164 13.4186 116.777 11.9153 118.999 9.25377L122.384 11.9009C122.499 12.3556 122.588 12.8162 122.652 13.2806C122.782 14.2481 122.808 15.2268 122.73 16.1999C122.678 16.7816 122.586 17.3591 122.457 17.9285C122.412 18.126 122.441 18.3329 122.538 18.5106C123.641 20.5416 124.186 22.8285 124.117 25.1383C124.048 27.4482 123.368 29.6985 122.145 31.6601C120.922 33.6218 119.201 35.2247 117.156 36.3057C115.112 37.3868 112.817 37.9073 110.506 37.8143L110.473 37.8146Z" fill="#3C4043"/>
<path d="M110.407 39.4929C110.516 39.4959 110.625 39.4773 110.727 39.4382C110.829 39.3991 110.923 39.3404 111.002 39.2652C111.082 39.1901 111.145 39.1001 111.19 39.0004C111.234 38.9006 111.259 38.7931 111.262 38.6839C111.265 38.5747 111.246 38.466 111.207 38.364C111.168 38.262 111.109 38.1687 111.034 38.0894C110.959 38.0101 110.869 37.9463 110.769 37.9018C110.669 37.8573 110.561 37.8329 110.452 37.83C108.129 37.7136 105.878 36.9859 103.927 35.7205C103.836 35.6605 103.734 35.619 103.626 35.5984C103.519 35.5778 103.409 35.5786 103.302 35.6006C103.194 35.6227 103.093 35.6656 103.002 35.7269C102.912 35.7882 102.834 35.8667 102.774 35.9579C102.714 36.0491 102.673 36.1513 102.652 36.2586C102.631 36.3658 102.632 36.4761 102.654 36.5831C102.676 36.69 102.719 36.7916 102.781 36.882C102.842 36.9724 102.92 37.0498 103.012 37.1099C105.208 38.5367 107.743 39.3579 110.36 39.4901C110.376 39.4926 110.392 39.4929 110.407 39.4929Z" fill="#3C4043"/>
<path d="M101.289 22.8925C101.447 22.8924 101.601 22.8476 101.734 22.7634C101.867 22.6791 101.973 22.5589 102.041 22.4167C102.108 22.2745 102.134 22.1161 102.114 21.9599C102.095 21.8037 102.032 21.6562 101.932 21.5344L98.8711 17.8039C98.8018 17.7194 98.7166 17.6493 98.6202 17.5977C98.5238 17.5461 98.4182 17.514 98.3094 17.5031C98.2006 17.4923 98.0908 17.503 97.9861 17.5346C97.8814 17.5661 97.784 17.618 97.6994 17.6872C97.6148 17.7564 97.5447 17.8415 97.493 17.9378C97.4414 18.0341 97.4092 18.1396 97.3984 18.2482C97.3875 18.3569 97.3982 18.4667 97.4298 18.5712C97.4614 18.6758 97.5134 18.7731 97.5826 18.8576L99.3483 21.0089L97.2158 20.7722C97.1066 20.7589 96.9957 20.7673 96.8898 20.7971C96.7838 20.8268 96.6848 20.8773 96.5984 20.9455C96.5121 21.0137 96.4402 21.0984 96.3868 21.1945C96.3335 21.2907 96.2998 21.3965 96.2876 21.5058C96.2755 21.6151 96.2851 21.7257 96.3161 21.8313C96.347 21.9368 96.3986 22.0351 96.4678 22.1206C96.5371 22.2061 96.6226 22.277 96.7195 22.3292C96.8164 22.3815 96.9226 22.414 97.0322 22.4249L101.196 22.8872C101.227 22.8908 101.258 22.8926 101.289 22.8925Z" fill="#3C4043"/>
<path d="M120.482 26.9651C120.649 26.9652 120.812 26.9147 120.95 26.8202L123.836 24.8524C124.014 24.7305 124.138 24.544 124.182 24.3323C124.225 24.1206 124.184 23.9004 124.068 23.7182L120.739 18.5077C120.62 18.3218 120.432 18.1906 120.216 18.1431C120.001 18.0955 119.775 18.1355 119.589 18.2542C119.403 18.3729 119.272 18.5605 119.224 18.7759C119.176 18.9913 119.216 19.2167 119.335 19.4026L122.23 23.9333L120.011 25.4469C119.864 25.5471 119.753 25.6917 119.694 25.8595C119.636 26.0274 119.632 26.2096 119.685 26.3794C119.737 26.5493 119.843 26.6978 119.987 26.8032C120.13 26.9086 120.303 26.9654 120.481 26.9651H120.482Z" fill="#3C4043"/>
<path d="M114.817 21.2418C114.443 20.8158 114.486 20.168 114.912 19.7947C115.339 19.4214 115.987 19.464 116.361 19.8899C116.735 20.3159 116.692 20.9638 116.266 21.3371C115.839 21.7104 115.191 21.6677 114.817 21.2418Z" fill="#3C4043"/>
<path d="M122.447 20.871C122.073 20.4451 122.116 19.7972 122.542 19.4239C122.969 19.0506 123.617 19.0933 123.991 19.5193C124.365 19.9452 124.322 20.5931 123.895 20.9664C123.469 21.3397 122.82 21.297 122.447 20.871Z" fill="#3C4043"/>
<path d="M118.432 31.1681C119.397 31.1673 120.326 30.8065 121.038 30.1565L121.46 29.7626C121.622 29.6121 121.716 29.4038 121.724 29.1834C121.732 28.963 121.651 28.7486 121.501 28.5873C121.35 28.4261 121.142 28.3312 120.921 28.3236C120.7 28.316 120.486 28.3963 120.324 28.5467L119.908 28.9347C119.683 29.1401 119.417 29.296 119.128 29.3926C118.838 29.4892 118.532 29.5242 118.228 29.4954C117.934 29.4696 117.648 29.3816 117.39 29.2372C117.132 29.0928 116.908 28.8953 116.732 28.6579L116.647 28.5445C116.581 28.4572 116.499 28.3836 116.405 28.3279C116.311 28.2723 116.207 28.2357 116.099 28.2203C115.991 28.2048 115.88 28.2108 115.775 28.2379C115.669 28.265 115.569 28.3127 115.482 28.3782C115.394 28.4437 115.321 28.5258 115.265 28.6198C115.209 28.7137 115.173 28.8177 115.157 28.9258C115.142 29.0339 115.148 29.144 115.175 29.2497C115.202 29.3555 115.25 29.4549 115.315 29.5423L115.399 29.6531C115.715 30.0749 116.116 30.4259 116.576 30.6837C117.036 30.9414 117.545 31.1002 118.07 31.1498C118.191 31.1622 118.312 31.1683 118.432 31.1681Z" fill="#3C4043"/>
<path d="M55.3312 217.261L58.8028 223.732L52.9944 221.026L55.3312 217.261Z" fill="#FFF1ED"/>
<path d="M51.3092 166.989L44.878 157.899L45.5995 155.266L57.2085 154.199L51.3092 166.989Z" fill="#FFF1ED"/>
<path d="M88.4442 97.2113L87.0806 106.385L80.8135 101.405L88.4442 97.2113Z" fill="#FFF1ED"/>
<path d="M98.6692 110.625L98.4365 110.918C91.9905 119.014 80.1583 120.356 72.0603 113.909C70.2469 112.465 68.7328 110.719 67.56 108.72C67.273 108.23 67.4371 107.6 67.9266 107.313C68.4161 107.026 69.046 107.19 69.3336 107.68C70.3778 109.46 71.7262 111.015 73.341 112.3C80.5519 118.041 91.088 116.847 96.8276 109.638L97.0593 109.346C100.959 104.433 101.786 97.8232 99.2189 92.0982C98.9868 91.5799 99.2189 90.9718 99.7361 90.74C100.254 90.5077 100.862 90.7396 101.095 91.2575C103.978 97.6864 103.048 105.107 98.6692 110.625Z" fill="#E7F1FF"/>
<path d="M159.123 230.895C159.116 230.896 159.11 230.897 159.103 230.899L158.738 230.968C148.574 232.886 138.745 226.176 136.826 216.011C134.907 205.845 141.614 196.014 151.777 194.095L152.144 194.026C152.147 194.026 152.15 194.025 152.153 194.025C159.342 192.668 166.718 195.649 170.947 201.622C171.275 202.086 171.165 202.727 170.702 203.056C170.239 203.383 169.597 203.274 169.269 202.811C165.504 197.492 158.935 194.837 152.533 196.045C152.531 196.046 152.529 196.046 152.526 196.047L152.159 196.116C143.109 197.824 137.137 206.578 138.846 215.63C140.554 224.681 149.307 230.655 158.356 228.947L158.723 228.878C158.729 228.877 158.735 228.876 158.741 228.875C162.386 228.187 165.736 226.272 168.177 223.481C168.551 223.053 169.2 223.01 169.627 223.384C170.055 223.758 170.098 224.407 169.724 224.835C166.981 227.971 163.217 230.122 159.123 230.895Z" fill="#E7F1FF"/>
<path d="M153.114 220.099L150.5 206.249L163.795 210.913L153.114 220.099Z" fill="#FFF1ED"/>
<path d="M39.5911 173.482C39.57 173.254 39.625 173.017 39.7638 172.812C40.0826 172.343 40.7217 172.22 41.1915 172.538C44.3774 174.698 48.2429 175.69 52.0755 175.332C61.2532 174.488 68.0299 166.341 67.1868 157.17L67.1526 156.798C66.329 147.852 58.6531 141.197 49.6776 141.649C49.1107 141.677 48.6295 141.243 48.5989 140.674C48.5706 140.107 49.0069 139.624 49.5741 139.596C59.6543 139.088 68.2752 146.561 69.2 156.61L69.2342 156.981C70.181 167.281 62.5701 176.43 52.2684 177.378C47.9602 177.78 43.6174 176.665 40.0374 174.239C39.7728 174.06 39.6182 173.778 39.5911 173.482Z" fill="#E7F1FF"/>
<path d="M73.8284 226.164L73.8168 226.534C73.7835 227.578 73.6627 228.627 73.4577 229.65C73.3462 230.207 72.8045 230.568 72.2478 230.456C71.6911 230.345 71.3306 229.805 71.4418 229.246C71.6245 228.334 71.7324 227.399 71.7621 226.468L71.7737 226.099C72.0637 216.892 64.8075 209.166 55.5988 208.876C50.0061 208.695 44.7277 211.304 41.4785 215.857C41.1488 216.319 40.5067 216.426 40.0447 216.097C39.5826 215.767 39.4753 215.126 39.8049 214.663C43.4551 209.549 49.3838 206.618 55.6645 206.821C66.0049 207.148 74.154 215.824 73.8284 226.164Z" fill="#E7F1FF"/>
<path d="M127.047 162.014C123.565 158.42 121.689 153.684 121.766 148.678C121.842 143.668 123.865 138.987 127.463 135.497C131.062 132.005 135.807 130.125 140.821 130.204C141.583 130.216 142.353 130.274 143.108 130.378C143.671 130.455 144.064 130.974 143.987 131.536C143.91 132.098 143.391 132.492 142.828 132.415C142.154 132.322 141.468 132.27 140.788 132.259C136.323 132.189 132.099 133.863 128.894 136.973C125.691 140.08 123.89 144.248 123.821 148.709C123.753 153.166 125.423 157.383 128.524 160.584C128.527 160.587 128.529 160.589 128.532 160.592L128.792 160.861C135.2 167.473 145.796 167.64 152.412 161.233C152.823 160.829 153.221 160.393 153.591 159.943C153.951 159.504 154.599 159.44 155.037 159.8C155.477 160.161 155.54 160.808 155.179 161.247C154.764 161.753 154.316 162.243 153.848 162.703C146.412 169.905 134.512 169.717 127.316 162.292L127.056 162.023C127.053 162.021 127.05 162.017 127.047 162.014Z" fill="#E7F1FF"/>
<path d="M133.022 151.346L143.143 141.542L146.571 155.206L133.022 151.346Z" fill="#FFF1ED"/>
<path d="M235.509 159.734C205.126 159.734 180.496 184.365 180.496 214.748C180.496 245.131 205.126 269.762 235.509 269.762C265.892 269.762 290.523 245.131 290.523 214.748C290.523 184.365 265.892 159.734 235.509 159.734ZM235.509 250.585C215.717 250.585 199.672 234.54 199.672 214.748C199.672 194.956 215.717 178.911 235.509 178.911C255.301 178.911 271.346 194.956 271.346 214.748C271.346 234.54 255.301 250.585 235.509 250.585Z" fill="white"/>
<path d="M235.509 270.647C204.687 270.647 179.61 245.571 179.61 214.748C179.61 183.925 204.687 158.849 235.509 158.849C266.332 158.849 291.408 183.925 291.408 214.748C291.408 245.571 266.332 270.647 235.509 270.647ZM235.509 160.62C205.663 160.62 181.381 184.902 181.381 214.748C181.381 244.595 205.663 268.876 235.509 268.876C265.356 268.876 289.637 244.594 289.637 214.748C289.637 184.902 265.356 160.62 235.509 160.62ZM235.509 251.47C215.26 251.47 198.787 234.997 198.787 214.748C198.787 194.499 215.26 178.026 235.509 178.026C255.758 178.026 272.231 194.499 272.231 214.748C272.231 234.997 255.758 251.47 235.509 251.47ZM235.509 179.797C216.237 179.797 200.558 195.476 200.558 214.748C200.558 234.02 216.237 249.7 235.509 249.7C254.782 249.7 270.461 234.02 270.461 214.748C270.461 195.476 254.782 179.797 235.509 179.797Z" fill="#3C4043"/>
<path d="M169.288 208.729C184.48 220.062 187.594 241.519 176.243 256.653C164.893 271.787 143.376 274.868 128.184 263.534C128.02 263.411 127.857 263.288 127.696 263.162L137.803 249.929C145.557 255.822 156.627 254.338 162.529 246.614C168.431 238.89 166.931 227.85 159.177 221.957L169.288 208.729Z" fill="#85B7FE"/>
<path d="M302.367 91.6103C302.233 91.5647 302.09 91.5574 301.952 91.5891C301.815 91.6208 301.689 91.6903 301.589 91.7897L279.446 113.842L280.097 151.769L310.968 161.507C311.09 161.545 311.219 161.552 311.343 161.527C311.468 161.503 311.584 161.447 311.682 161.365C311.779 161.284 311.854 161.179 311.9 161.061C311.946 160.942 311.962 160.814 311.945 160.688L302.874 92.2283C302.856 92.0884 302.799 91.9564 302.709 91.8472C302.619 91.738 302.501 91.6559 302.367 91.6103Z" fill="#85B7FE"/>
<path d="M280.324 151.048L252.103 142.145L280.058 114.302L280.324 151.048Z" fill="white"/>
<path d="M281.111 151.502C281.008 151.681 280.847 151.819 280.654 151.894C280.462 151.969 280.249 151.976 280.052 151.914L251.831 143.01C251.682 142.963 251.547 142.878 251.44 142.764C251.333 142.65 251.257 142.511 251.22 142.359C251.182 142.207 251.185 142.048 251.227 141.898C251.269 141.748 251.349 141.611 251.46 141.501L279.416 113.659C279.543 113.533 279.704 113.447 279.88 113.412C280.055 113.377 280.238 113.395 280.403 113.463C280.569 113.531 280.711 113.647 280.811 113.795C280.912 113.944 280.966 114.119 280.967 114.297L281.232 151.044C281.233 151.205 281.192 151.363 281.111 151.502ZM253.806 141.731L279.407 149.809L279.167 116.475L253.806 141.731Z" fill="#3C4043"/>
<path d="M343.835 268.107C337.1 271.775 328.668 269.279 325.004 262.533C324.998 262.523 324.993 262.513 324.988 262.504L278.737 177.139C274.993 170.425 277.391 161.943 284.094 158.195C290.798 154.448 299.267 156.852 303.012 163.567C303.067 163.666 349.421 249.221 349.421 249.221C353.087 255.978 350.591 264.431 343.845 268.101C343.842 268.103 343.839 268.105 343.835 268.107Z" fill="white"/>
<path d="M338.716 270.626C332.961 271.211 327.14 268.366 324.207 262.966C324.207 262.966 324.191 262.937 324.191 262.936L277.94 177.571C276.016 174.122 275.547 170.118 276.625 166.307C277.703 162.495 280.199 159.333 283.652 157.403C290.781 153.417 299.821 155.983 303.803 163.124C303.859 163.225 345.473 240.031 350.217 248.789C354.117 255.974 351.452 264.996 344.278 268.899L343.835 268.107L344.269 268.904C342.495 269.87 340.609 270.434 338.716 270.626ZM325.8 262.099C329.22 268.395 337.116 270.732 343.402 267.309C343.404 267.308 343.405 267.307 343.406 267.307C349.708 263.878 352.046 255.961 348.624 249.655C348.161 248.801 302.418 164.373 302.217 164.003C298.725 157.743 290.792 155.491 284.537 158.988C281.506 160.683 279.316 163.458 278.37 166.802C277.424 170.147 277.835 173.66 279.528 176.696L325.785 262.071L325.003 262.533L325.8 262.099Z" fill="#3C4043"/>
<path d="M298.77 270.647C295.157 270.648 291.625 269.577 288.62 267.569C285.615 265.562 283.274 262.709 281.891 259.37C280.508 256.032 280.147 252.359 280.853 248.815C281.558 245.271 283.299 242.016 285.855 239.462C289.28 236.036 293.926 234.112 298.77 234.112C303.615 234.112 308.261 236.036 311.686 239.462C315.112 242.887 317.036 247.533 317.036 252.377C317.036 257.222 315.112 261.868 311.686 265.293C309.995 266.996 307.983 268.347 305.765 269.266C303.548 270.185 301.171 270.654 298.77 270.647ZM298.77 244.921C297.296 244.921 295.854 245.358 294.628 246.177C293.401 246.997 292.446 248.161 291.881 249.524C291.317 250.886 291.169 252.386 291.457 253.832C291.745 255.279 292.455 256.607 293.498 257.65C294.54 258.693 295.869 259.403 297.316 259.691C298.762 259.979 300.261 259.831 301.624 259.267C302.987 258.702 304.151 257.747 304.971 256.52C305.79 255.294 306.227 253.852 306.227 252.377C306.225 250.4 305.438 248.505 304.04 247.107C302.643 245.709 300.747 244.923 298.77 244.92V244.921Z" fill="#85B7FE"/>
<circle cx="236" cy="215" r="39" fill="white" stroke="#3C4043" stroke-width="2"/>
</svg>
