<svg xmlns="http://www.w3.org/2000/svg" fill="none" viewBox="0 0 354 298"><path fill="#E7F1FF" d="M330.009 56.288v-1.006h-.041L329.961 17H0v281h330.009l-.007-40.532h.007v-1.006h-.007l-.007-39.241h.014v-1.006h-.014l-.007-39.192h.021v-1.006h-.021l-.007-39.239h.028v-1.006h-.028l-.007-39.24h.035v-1.006h-.035l-.007-39.239h.042zm-1.051-38.186v37.18h-39.196v-37.18h39.196zm-40.2 0v37.18h-40.486v-37.18h40.486zM164.813 136.78h40.965v39.239h-40.965v-39.239zm-1.003 39.239h-40.965v-39.239h40.965v39.239zm1.003-40.245v-39.24h40.965v39.24h-40.965zm-1.003 0h-40.965v-39.24h40.965v39.24zm-41.969 0H80.828v-39.24h41.012l.001 39.24zm0 1.006v39.239H80.828v-39.239h41.013zm0 40.245v39.191H80.828v-39.191h41.013zm1.004 0h40.965v39.191h-40.965v-39.191zm41.968 0h40.965v39.191h-40.965v-39.191zm41.968 0h40.487v39.191h-40.487v-39.191zm0-1.006v-39.239h40.487v39.239h-40.487zm0-40.245v-39.24h40.487v39.24h-40.487zm0-40.246v-39.24h40.487v39.24h-40.487zm-1.003 0h-40.965v-39.24h40.965v39.24zm-41.968 0h-40.965v-39.24h40.965v39.24zm-41.969 0H80.828v-39.24h41.012l.001 39.24zm-42.015 0H38.86v-39.24h40.965v39.24zm0 1.006v39.24H38.86v-39.24h40.965zm0 40.246v39.239H38.86v-39.239h40.965zm0 40.245v39.191H38.86v-39.191h40.965zm0 40.198v39.239H38.86v-39.24l40.965.001zm1.003 0h41.012v39.239H80.828l.001-39.239zm42.016 0h40.965v39.239h-40.965v-39.239zm41.968 0h40.965v39.239h-40.965v-39.239zm41.968 0h40.487v39.239h-40.487v-39.239zm41.491 0h40.486v39.239h-40.486v-39.239zm0-1.007v-39.191h40.486v39.191h-40.486zm0-40.197v-39.239h40.486v39.239h-40.486zm0-40.245v-39.24h40.486v39.24h-40.486zm0-40.246v-39.24h40.486v39.24h-40.486zm-1.004-77.425v37.18h-40.487v-37.18h40.487zm-41.49 0v37.18h-40.965v-37.18h40.965zm-41.968 0v37.18h-40.965v-37.18h40.965zm-41.969 0v37.18H80.828v-37.18h41.013zm-42.015 0v37.18H38.86v-37.18h40.965zm-78.774 0h36.806v37.18H1.052v-37.18zm0 38.186h36.806v39.239H1.052v-39.24zm0 40.245h36.806v39.24H1.052v-39.24zm0 40.246h36.806v39.239H1.052v-39.239zm0 40.245h36.806v39.191H1.052v-39.191zm0 40.198h36.806v39.239H1.052v-39.239zm0 79.724v-39.479h36.806v39.479H1.052zm37.81 0v-39.479h40.964v39.479H38.86zm41.967 0v-39.479h41.012v39.479H80.829zm42.016 0v-39.479h40.965v39.479h-40.965zm41.968 0v-39.479h40.965v39.479h-40.965zm41.968 0v-39.479h40.487v39.479h-40.487zm41.491 0v-39.479h40.486v39.479h-40.486zm80.687 0h-39.197v-39.479h39.196l.001 39.479zm0-40.485h-39.197v-39.24h39.196l.001 39.24zm0-40.245h-39.197v-39.192h39.196l.001 39.192zm0-40.198h-39.197v-39.239h39.196l.001 39.239zm0-40.245h-39.197v-39.24h39.196l.001 39.24zm0-40.246h-39.197v-39.24h39.196l.001 39.24z"/><path fill="#FFBCA5" d="M292.542 75.133c-.669.18-.222.085-.202.085l.247.042.012.147-.567.293.435.03-.475.27.494.026-.679.312.26.085.087.128.104.127-.117.19.815-.048-.857.356h.622l.247.093-.234.205.057.136-.255.208.426.055.307.076-.442.252.439.044-.396.24.721-.015-.543.273.43.062-.726.309.964-.06-.199.194-.624.287.614.015-.102.175-.422.24.873-.038-.055.16-.278.208.353.076-.401.228-.024.153.704.002-.837.323.256.096-.082.166.625.021-.634.275.625.023-.164.183-.398.228.443.057-.213.192.161.11.295.092.155.115.087.133-.196.187.105.128.002.148-.32.208.122.126.603.037-.003.15.013.147-.346.212.036.142c.055.04.13.076.191.114l-.197.185.705.024-.191.182.23.115-.275.196.164.12.15.12c.036.03-.24.111.152.08.064-.006.002.037.816-.101l.377-.065.663-.12.422-.063a.48.48 0 0 0 .111-.03c.027-.044-.094-.061-.132-.093l-.017-.15-.15-.12.228-.185.321-.206-.209-.116.262-.2-.22-.113a.939.939 0 0 0-.066-.14l.103-.174-.444-.072.305-.207.21-.191-.299-.098.38-.223-.096-.135-.169-.121.442-.237-.444-.07-.393-.077.573-.264c.019-.054.033-.11.052-.163l-.74-.008.669-.284-.596-.034.04-.161.071-.168.404-.235.062-.167-.714-.036-.104-.128.876-.334h-.734l.042-.162.642-.283-.559-.028-.428-.063.87-.34-.795.017.515-.267-.489-.048.652-.29-.821.026.468-.256-.486-.047.636-.297-.491-.044-.107-.131.746-.345-.059-.141-.175-.115-.81.032.074-.173.616-.284.113-.183-.89.054.628-.303-.562-.026.265-.216-.308-.076-.035-.158.021-.16.488-.273.064-.17-.034-.147-.743.027.302-.23.593-.302-.127-.124a5.034 5.034 0 0 0-.339-.07l.319-.236-.685.015.201-.1.159-.08c.016-.012.138-.054-.128 0-.265.055-.917.21-2.444.602l-1.636.428zM306.894 71.236c-.658-.2-.25-.042-.242-.033l.054.085a.275.275 0 0 0 .052.064l.028.034-.059.185-.614.01.355.32-.538.033.378.323-.735-.026.155.254-.01.202.011.207-.207.142.693.417-.908-.067.505.354.15.246-.31.113-.033.194-.331.108.326.294.211.257-.511.061.33.293-.48.065.612.365-.605.04.349.291-.782-.009.842.427-.271.13-.685.03.518.33-.17.159-.481.073.765.393-.117.159-.347.116.273.268-.465.09-.1.18.615.338-.896-.005.181.24-.151.165.542.316-.694.058.545.314-.224.151-.451.1.355.273-.267.147.099.218.223.243.085.213.015.2-.26.147.035.203-.067.184-.389.129.051.204.539.297-.072.184c-.019.062-.034.125-.05.187l-.413.126-.025.193.123.217-.282.15.672.304-.256.155.188.23c-.116.047-.229.095-.339.144l.119.212.107.21c.013.049-.24.056.161.16.065.017.011.05.807.164l.373.04.655.086c.178.031.357.05.537.053.064-.04-.005-.097-.041-.15l.038-.184-.105-.204.289-.145.392-.124-.161-.212c.109-.045.223-.091.324-.137l-.192-.219-.026-.192.156-.162-.396-.256.364-.126.262-.142-.25-.233.436-.11-.041-.195-.114-.21.491-.096-.379-.26-.327-.251.619-.07.112-.166-.654-.32.72-.043-.516-.3.108-.17.138-.161.466-.091.13-.161-.615-.318-.029-.197.925.016-.646-.335.111-.167.695-.029-.488-.294-.344-.271.92.03-.703-.36.569-.052-.401-.29.704-.014-.718-.386.529-.057-.395-.29.694-.012-.398-.294-.026-.198.81.024.022-.184-.089-.215-.691-.374.154-.15.668-.005.189-.138-.771-.411.686.005-.452-.324.335-.094-.209-.257.043-.18.112-.165.552-.025.146-.147.055-.175-.619-.378.377-.075.654.014a1.35 1.35 0 0 1-.025-.2l-.21-.257.434-.052-.551-.373c.078.005.164.014.221.011l.149.001c.018 0 .13.02-.127-.083l-.269-.1-.452-.158-1.606-.54c-.795-.277-1.275-.42-1.56-.514zM316.506 80.778c-.509-.4-.191-.128-.182-.117l.047.08c.026.03.07.085.06.089l-.062.077-.491-.264.252.33-.425-.208.281.345-.574-.33.1.207-.025.106-.01.119-.176-.012.496.523-.699-.431.356.412.089.2-.252-.075-.046.09-.268-.087.218.301.13.231-.408-.186.218.3-.367-.164.423.466-.461-.253.229.313-.602-.353.594.601-.228-.053-.523-.29.348.404-.151.006-.377-.17.528.549-.121.03-.279-.095.162.258-.363-.163-.099.047.408.453-.671-.408.097.205-.14.016.351.41-.523-.291.351.407-.197-.028-.358-.157.217.3-.226-.054.037.157.122.225.025.147-.024.108-.215-.044-.011.117-.08.065-.303-.115.001.13.322.394-.087.06-.078.063-.325-.132-.061.079.037.158-.237-.062.409.453-.236-.06.078.189-.305-.117.025.147.019.142c.007.035-.237-.129.05.13.04.048-.02.016.624.53l.299.234.532.42.331.256c.029.024.06.046.092.066.039-.003-.043-.1-.054-.142l.053-.085-.05-.167.235.059.305.117-.088-.198.253.075-.089-.2.023-.11.147-.01-.228-.31.289.103.226.055-.125-.228.343.145.017-.114-.034-.154.384.18-.217-.302-.187-.275.474.252.122-.031-.418-.463.549.31-.321-.393.112-.038.134-.021.366.164.128-.025-.397-.446.017-.114.695.427-.423-.465.114-.036.532.298-.311-.38-.216-.302.696.427-.471-.505.443.229-.257-.333.543.305-.49-.519.42.203-.255-.332.536.3-.26-.334.011-.117.625.37.046-.09-.035-.156-.488-.516.142-.014.523.29.169.008-.544-.563.537.3-.302-.37.278.094-.125-.228.058-.083.104-.044.439.225.135-.02.066-.075-.442-.482.309.119.525.29.008-.122-.139-.239.35.153-.402-.448.174.098.13.07c.01.014.108.07-.081-.098-.189-.169-.674-.56-1.799-1.456l-1.229-.94z"/><path fill="#FFF1ED" d="M171.106 76.363c-9.623 1.03-15.783-9.738-9.656-17.05.1-.1.166-.2.266-.3 2.83-3.123 5.095-6.78 3.463-12.596-1.165-4.121-3.596-10.104.466-11.067 2.797-.665 5.928 6.215 8.425 11.2-.133-8.01-.3-18.512 3.43-18.778 3.729-.3 4.595 7.312 4.628 17.648 1.965-11.4 1.365-17.682 4.995-17.549 5.96.233 3.396 23.764.233 31.708l-1.665 5.152c-2.031 6.348-7.792 10.901-14.585 11.632z"/><path fill="#3C4043" d="M169.879 77.426a11.87 11.87 0 0 1-6.129-1.656 11.847 11.847 0 0 1-4.394-4.575 11.056 11.056 0 0 1 1.385-12.586c.028-.028.05-.056.073-.084.055-.066.11-.13.174-.195 2.976-3.29 4.662-6.531 3.228-11.644-.142-.5-.303-1.032-.469-1.578-.963-3.172-2.055-6.766-.772-8.997a3.651 3.651 0 0 1 2.438-1.731c2.812-.67 5.268 3.284 7.613 7.854-.008-8.837.653-15.19 4.401-15.455a3.327 3.327 0 0 1 2.564.9c1.28 1.175 2.123 3.418 2.608 7.19.688-5.11 1.442-8.11 4.558-7.993.771.03 1.875.355 2.772 1.732 3.607 5.534 1.117 24.363-1.635 31.309l-1.654 5.12c-2.145 6.704-8.202 11.54-15.429 12.318-.442.048-.887.071-1.332.071zm-7.687-17.446a9.096 9.096 0 0 0-1.073 10.275c1.928 3.602 5.714 5.562 9.88 5.116 6.441-.693 11.834-4.989 13.74-10.944l1.665-5.155.022-.062c2.795-7.016 4.823-24.922 1.829-29.517-.466-.717-.893-.815-1.173-.826h-.055c-1.596 0-1.993 2.61-2.726 8.436-.302 2.399-.644 5.118-1.19 8.287a.995.995 0 0 1-1.068.825 1 1 0 0 1-.915-.991c-.02-6.026-.3-14.268-2.489-16.279a1.31 1.31 0 0 0-1.061-.38c-1.045.076-1.862 2.117-2.25 5.602-.403 3.614-.327 8.158-.26 12.167a1.002 1.002 0 0 1-.762.985 1 1 0 0 1-1.131-.523c-.206-.412-.418-.838-.632-1.271-1.704-3.436-4.875-9.828-6.668-9.406a1.687 1.687 0 0 0-1.167.785c-.854 1.483.147 4.777.951 7.424.17.56.335 1.103.48 1.617 1.788 6.373-.859 10.419-3.683 13.537l-.035.036c-.027.028-.049.056-.073.083-.048.061-.098.12-.155.18h-.001z"/><path fill="#fff" d="M96.456 9.677a31.926 31.926 0 0 0-18.35-.411 31.899 31.899 0 0 0-15.54 9.76 31.832 31.832 0 0 0-4.693 34.807l40.75-3.604-2.167-40.552z"/><path fill="#3C4043" d="M57.873 54.663c.024 0 .049 0 .073-.004l40.75-3.603a.832.832 0 0 0 .758-.873L97.287 9.632a.83.83 0 0 0-.574-.746 32.759 32.759 0 0 0-18.829-.422A32.73 32.73 0 0 0 61.94 18.478a32.662 32.662 0 0 0-4.817 35.714.831.831 0 0 0 .75.47zm39.876-5.193l-39.372 3.48a30.691 30.691 0 0 1-2.844-12.986 31.014 31.014 0 0 1 3.33-13.954A31.048 31.048 0 0 1 68.12 15.04a31.09 31.09 0 0 1 27.536-4.745l2.094 39.174z"/><path fill="#fff" d="M104.841 17.964c2.719-.444 6.258-.998 9.31-4.047l4.716-5.82 4.243 3.346c-.86-3.242-2.22-6.097-4.966-8.01a14.562 14.562 0 0 0-20.793 4.464 14.526 14.526 0 0 0-2.069 7.565v.97l.835-.573c.38-.388.613-.338 1.11-.554 1.81-.788 3.787-.516 5.583.403a4.34 4.34 0 0 1 2.031 2.256z"/><path fill="#3C4043" d="M104.841 18.796a.81.81 0 0 0 .134-.011l.07-.012c2.734-.443 6.479-1.053 9.694-4.266a.978.978 0 0 0 .059-.065l4.198-5.182 3.598 2.836a.832.832 0 0 0 1.32-.865c-.669-2.523-1.946-6.148-5.295-8.48a15.394 15.394 0 0 0-21.983 4.72 15.356 15.356 0 0 0-2.186 7.998v.964a.83.83 0 0 0 1.303.685l.835-.574a.823.823 0 0 0 .123-.103.638.638 0 0 1 .363-.196c.165-.05.327-.11.485-.178 1.843-.802 3.666-.236 4.871.381a3.503 3.503 0 0 1 1.639 1.826.829.829 0 0 0 .772.522zm8.689-5.435c-2.637 2.617-5.671 3.259-8.21 3.682a5.121 5.121 0 0 0-2.133-2.075c-2.155-1.104-4.391-1.254-6.295-.425a3.313 3.313 0 0 1-.328.118c-.151.045-.299.102-.441.17A13.697 13.697 0 0 1 103.719 3.1a13.73 13.73 0 0 1 13.949 1.018c1.661 1.155 2.875 2.733 3.788 4.963l-2.073-1.635a.833.833 0 0 0-1.163.13l-4.69 5.786z"/><path fill="#FFF1ED" d="M28.979 133.505c0-.02 4.554 27.426 9.183 40.587l11.628-36.559-20.811-4.028z"/><path fill="#3C4043" d="M38.162 174.923h.013a.836.836 0 0 0 .78-.58l11.628-36.559a.832.832 0 0 0-.635-1.068l-20.81-4.027a.83.83 0 0 0-.977.972l.015.089c.788 4.654 4.934 28.487 9.202 40.617a.832.832 0 0 0 .784.556zm10.551-36.751l-10.567 33.226c-3.67-11.686-7.107-30.829-8.144-36.847l18.711 3.621z"/><path fill="#fff" d="M82.85 51.847a31.934 31.934 0 0 0-28.77 4.333 31.88 31.88 0 0 0-9.764 11.328 31.843 31.843 0 0 0-3.52 14.529l42.053-30.19z"/><path fill="#3C4043" d="M40.797 82.868a.833.833 0 0 0 .485-.156l42.052-30.19a.832.832 0 0 0-.22-1.462 32.767 32.767 0 0 0-29.519 4.446 32.71 32.71 0 0 0-10.019 11.622 32.674 32.674 0 0 0-3.612 14.909.83.83 0 0 0 .833.831zM81 52.15L41.672 80.383a31.016 31.016 0 0 1 3.773-13.226 31.05 31.05 0 0 1 9.122-10.3 31.09 31.09 0 0 1 26.434-4.707z"/><path fill="#E7F1FF" d="M44.097 232.395c-.176 9-2.096 18.438-9.4 20.454-7.435 2.051-12.401 8.786-11.819 16.546l35.763-.249 14.51-22.783-.11 22.783h11.541l.056-36.945-40.541.194z"/><path fill="#3C4043" d="M22.879 270.227h.005l35.763-.25a.836.836 0 0 0 .697-.385l12.961-20.351-.097 19.9a.828.828 0 0 0 .513.772c.102.042.21.063.32.063h11.541a.832.832 0 0 0 .833-.831l.055-36.945a.83.83 0 0 0-.832-.832h-.004l-40.541.194a.834.834 0 0 0-.829.816c-.224 11.503-3.18 18.121-8.788 19.669-7.922 2.185-13.033 9.344-12.427 17.41a.832.832 0 0 0 .83.77zm35.303-1.91l-34.512.241c-.174-6.943 4.359-13.007 11.25-14.908 6.259-1.728 9.618-8.599 9.987-20.428l38.897-.186-.053 35.278h-9.875l.107-21.947a.834.834 0 0 0-.598-.802.835.835 0 0 0-.936.352l-14.267 22.4z"/><path fill="#FFED96" stroke="#3C4043" d="M45.006 72.148h.001l45.013-29.16.19-.104a19.4 19.4 0 0 1 4.42-1.763c-.273 3.303 1.564 6.865 4.347 8.598h0c2.597 1.616 5.295 1.099 7.394-.42 1.891-1.369 3.338-3.57 3.886-5.853 2.736 1.582 5.303 3.748 7.662 6.383 15.004 16.755 22.529 25.113 26.303 29.282a514.812 514.812 0 0 0 3.317 3.641 30.652 30.652 0 0 0 .497.527l.019.017a.372.372 0 0 0 .021.017h0c.007.006.032.026.068.047.016.008.062.034.128.05a.5.5 0 0 0 .306-.024c.077-.04.146-.091-.189-.463l.335.372.092-.084.043-.117 9.429-26.054 30.356 10.968-12.648 34.894v.001a26.954 26.954 0 0 1-8.296 11.72 27.005 27.005 0 0 1-13.142 5.804 27.883 27.883 0 0 1-3.979.3 26.977 26.977 0 0 1-8.413-1.349v-.001a8.67 8.67 0 0 0-.136-.473c-.115-.365-.28-.841-.488-1.41a161.826 161.826 0 0 0-1.727-4.451 495.97 495.97 0 0 0-5.367-12.756c-2.001-4.583-4.075-9.153-5.793-12.654-.858-1.749-1.632-3.238-2.265-4.33a16.078 16.078 0 0 0-.852-1.345 4.518 4.518 0 0 0-.36-.443 1.5 1.5 0 0 0-.386-.31c-.224-.115-.558-.188-.92-.243a18.1 18.1 0 0 0-1.422-.147c-1.121-.079-2.596-.126-4.313-.151-3.436-.05-7.871-.008-12.453.06-2.064.03-4.157.066-6.201.1-7.052.12-13.533.23-16.312.087-2.312-.119-4.754.258-6.21 2.54-.82 1.283-1.18 2.711-1.443 4.107-.07.376-.134.747-.197 1.112-.164.96-.323 1.886-.592 2.782l-6.236 3.994-.182.117-.04.212-1.784 9.449c-.136.35-.477 1.016-1.001 1.958-.536.962-1.244 2.181-2.072 3.58a1051.122 1051.122 0 0 1-4.39 7.315l-1.56 2.583c-2.166 3.595-4.374 7.28-6.188 10.432-1.665 2.893-3.014 5.365-3.69 6.907l-19.495-3.564 9.755-51.694 7.16-10.593zm0 0a16.202 16.202 0 0 0-7.16 10.592l7.16-10.592z"/><path fill="#3C4043" d="M78.17 82.424A.832.832 0 0 0 79 81.5c-.3-2.479.07-4.993 1.072-7.28a15.157 15.157 0 0 0 1.147-7.969.831.831 0 0 0-1.653.198 13.515 13.515 0 0 1-1.019 7.104 15.59 15.59 0 0 0-1.201 8.134.832.832 0 0 0 .826.738zM125.669 82.424c.025 0 .051 0 .077-.004a.832.832 0 0 0 .752-.903c-.36-3.919-1.896-7.418-3.122-9.663a24.41 24.41 0 0 1-2.791-8.628.835.835 0 0 0-.927-.713.83.83 0 0 0-.725.918 26.068 26.068 0 0 0 2.979 9.217c1.152 2.11 2.594 5.386 2.928 9.021a.828.828 0 0 0 .829.755z"/><path fill="#E7F1FF" d="M181.269 224.385c-.777 10.449 1.803 26.413 19.032 29.019 7.63 1.164 12.402 7.954 11.82 15.715l-43.448.027-16.73-21.951.111 21.674h-11.542l-.055-28.338 40.812-16.146z"/><path fill="#3C4043" d="M168.671 269.978l43.448-.028a.831.831 0 0 0 .829-.769c.634-8.415-4.634-15.396-12.523-16.6-18.225-2.755-18.889-20.592-18.328-28.134a.826.826 0 0 0-.337-.732.83.83 0 0 0-.8-.103l-40.812 16.145a.84.84 0 0 0-.528.776l.056 28.339a.83.83 0 0 0 .832.83h11.542a.83.83 0 0 0 .77-.517.813.813 0 0 0 .062-.319l-.098-19.188 15.225 19.972a.826.826 0 0 0 .662.328zm42.658-1.691l-42.246.028-16.48-21.623a.832.832 0 0 0-1.494.508l.106 20.838h-9.874l-.053-26.943 39.072-15.457c-.179 4.091.103 10.693 2.921 16.558 3.258 6.78 8.942 10.827 16.894 12.028 6.765 1.034 11.356 6.886 11.154 14.064v-.001z"/><path fill="#fff" d="M128.964 89.355l54.101 134.005-44.002 17.738-39.228-97.187-14.208 24.766v63.525H38.156v-70.038c0-.583.038-1.166.114-1.744l7.955-18.666 29.83-52.4h52.909z"/><path fill="#3C4043" d="M139.062 241.93a.828.828 0 0 0 .311-.061l44.003-17.738a.83.83 0 0 0 .46-1.081L129.735 89.045a.83.83 0 0 0-.772-.52H76.054a.833.833 0 0 0-.723.42L45.5 141.343a.886.886 0 0 0-.042.085l-7.955 18.666a.833.833 0 0 0-.062.244l-.035.343c-.06.492-.087.987-.084 1.483v70.038a.832.832 0 0 0 .833.831h47.47a.832.832 0 0 0 .833-.831v-63.303l13.246-23.087 38.586 95.597a.836.836 0 0 0 .772.521zm42.921-19.03l-42.459 17.116-38.918-96.416a.831.831 0 0 0-1.494-.102l-14.208 24.766a.827.827 0 0 0-.111.413v62.693H38.987v-69.206c-.004-.439.02-.877.074-1.312l.023-.222 7.886-18.507 29.568-51.937H128.4L181.983 222.9z"/><path fill="#FFF1ED" d="M35.42 149.082c.804 3.603 3.578 14.162 4.439 16.574.887 2.522 5.632 3.131 4.633-3.576-2.22-15.049 2.802-14.495 1.581-21.618"/><path fill="#3C4043" d="M42.268 168.253c.234.001.467-.027.694-.083.741-.183 3.101-1.173 2.351-6.211-1.272-8.628-.117-11.987.812-14.685.702-2.038 1.307-3.797.767-6.951a.825.825 0 0 0-.339-.541.849.849 0 0 0-.622-.142.833.833 0 0 0-.68.963c.469 2.734-.047 4.233-.7 6.131-.987 2.868-2.216 6.438-.885 15.468.433 2.902-.287 4.152-1.104 4.354-.738.184-1.635-.367-1.92-1.176-.86-2.415-3.621-12.938-4.412-16.479a.832.832 0 0 0-1.624.362c.798 3.573 3.592 14.218 4.467 16.672a3.48 3.48 0 0 0 3.195 2.318zM74.012 92.14l.724.41-7.464 13.11-.723-.411 7.463-13.11z"/><path fill="#fff" d="M125.638 81.594h-47.47l-2.11 7.76h52.909l-3.329-7.76z"/><path fill="#3C4043" d="M76.057 90.185h52.908a.833.833 0 0 0 .766-1.159l-3.33-7.76a.83.83 0 0 0-.765-.504h-47.47a.833.833 0 0 0-.804.613l-2.109 7.76a.83.83 0 0 0 .805 1.05h-.001zm51.646-1.663H77.145l1.657-6.097h46.285l2.616 6.097z"/><path fill="#FFF1ED" d="M104.849 17.964a5.96 5.96 0 0 0-4.489-3.19 5.97 5.97 0 0 0-6.572 4.317 5.954 5.954 0 0 0 3.425 7.073l.103.04c.11 1.049.308 2.086.591 3.101l-2.848 11.89a7.185 7.185 0 0 0 2.775 7.495 7.204 7.204 0 0 0 11.228-4.148l1.413-5.897a13.944 13.944 0 0 0 10.867-4.545 13.914 13.914 0 0 0 3.496-11.238 13.824 13.824 0 0 0-1.567-4.751 13.85 13.85 0 0 0 .29-1.845 14.58 14.58 0 0 0-.083-3.104c-.08-.59-.2-1.173-.36-1.747L118.875 8.1c-2.497 3.048-3.936 4.49-8.601 7.206-2.084 1.213-3.791 2.214-5.425 2.658z"/><path fill="#3C4043" d="M102.059 50.895a8.04 8.04 0 0 0 7.812-6.157l1.257-5.25a14.774 14.774 0 0 0 11.058-5.084 14.745 14.745 0 0 0 3.475-11.655 14.598 14.598 0 0 0-1.514-4.76c.112-.544.193-1.095.243-1.65a15.356 15.356 0 0 0-.088-3.284 13.807 13.807 0 0 0-.385-1.867.833.833 0 0 0-.288-.426l-4.242-3.317a.833.833 0 0 0-1.157.128c-2.428 2.966-3.779 4.337-8.376 7.014l-.074.043c-1.766 1.029-3.209 1.87-4.546 2.342a6.795 6.795 0 0 0-5.197-3.066 6.806 6.806 0 0 0-5.59 2.274 6.787 6.787 0 0 0 2.106 10.599c.104.863.267 1.718.49 2.559l-2.794 11.665a8.02 8.02 0 0 0 4.307 9.087c1.092.529 2.29.804 3.504.805h-.001zm8.414-13.08a.835.835 0 0 0-.809.637l-1.413 5.898a6.371 6.371 0 0 1-11.599 1.826 6.355 6.355 0 0 1-.785-4.786l2.848-11.89a.836.836 0 0 0-.022-.465 18.255 18.255 0 0 1-.55-2.918.867.867 0 0 0-.523-.685l-.104-.04a5.133 5.133 0 0 1-3.002-3.658 5.123 5.123 0 0 1 3.31-5.89 5.138 5.138 0 0 1 6.282 2.5.832.832 0 0 0 .96.423c1.72-.468 3.496-1.502 5.552-2.7l.074-.043c4.472-2.605 6.085-4.109 8.307-6.77l3.385 2.647c.115.455.204.915.268 1.38.13.967.156 1.946.078 2.919-.052.582-.144 1.16-.273 1.729a.83.83 0 0 0 .081.582 13.07 13.07 0 0 1-5.382 17.795 13.098 13.098 0 0 1-6.65 1.508h-.033z"/><path fill="#3C4043" d="M110.407 39.493a.831.831 0 1 0 .045-1.663 13.206 13.206 0 0 1-6.525-2.11.828.828 0 0 0-.925.007.837.837 0 0 0-.348.856.82.82 0 0 0 .358.527 14.863 14.863 0 0 0 7.395 2.383zM101.289 22.892a.832.832 0 0 0 .643-1.358l-3.06-3.73a.833.833 0 0 0-1.29 1.054l1.766 2.15-2.132-.236a.832.832 0 1 0-.184 1.653l4.164.462a.784.784 0 0 0 .093.005zM120.482 26.965c.167 0 .33-.05.468-.145l2.886-1.968a.834.834 0 0 0 .232-1.134l-3.329-5.21a.833.833 0 0 0-1.404.895l2.895 4.53-2.219 1.514a.834.834 0 0 0-.326.932.83.83 0 0 0 .796.586h.001zM114.817 21.242a1.025 1.025 0 0 1 .095-1.447 1.028 1.028 0 0 1 1.449.095 1.025 1.025 0 0 1-.095 1.447 1.028 1.028 0 0 1-1.449-.095zM122.447 20.871a1.025 1.025 0 0 1 .095-1.447 1.028 1.028 0 0 1 1.449.095 1.026 1.026 0 0 1-1.544 1.352zM118.432 31.168a3.87 3.87 0 0 0 2.606-1.011l.422-.394a.83.83 0 0 0-.539-1.44.834.834 0 0 0-.597.224l-.416.388a2.184 2.184 0 0 1-2.518.302 2.09 2.09 0 0 1-.658-.58l-.085-.113a.84.84 0 0 0-.548-.324.83.83 0 0 0-.942.706.842.842 0 0 0 .158.616l.084.111a3.779 3.779 0 0 0 3.033 1.515z"/><path fill="#FFF1ED" d="M55.331 217.261l3.472 6.471-5.809-2.706 2.337-3.765zM51.31 166.989l-6.432-9.09.721-2.633 11.61-1.067-5.9 12.79zM88.444 97.211l-1.363 9.174-6.267-4.98 7.63-4.194z"/><path fill="#E7F1FF" d="M98.67 110.625l-.234.293c-6.446 8.096-18.278 9.438-26.376 2.991a18.713 18.713 0 0 1-4.5-5.189 1.028 1.028 0 0 1 1.774-1.04 16.647 16.647 0 0 0 4.007 4.62c7.21 5.741 17.747 4.547 23.487-2.662l.231-.292a16.675 16.675 0 0 0 2.16-17.248 1.028 1.028 0 0 1 1.876-.84 18.724 18.724 0 0 1-2.426 19.367zM159.123 230.895a.142.142 0 0 0-.02.004l-.365.069c-10.164 1.918-19.993-4.792-21.912-14.957-1.919-10.166 4.788-19.997 14.951-21.916l.367-.069.009-.001c7.189-1.357 14.565 1.624 18.794 7.597a1.03 1.03 0 0 1-1.678 1.189 16.75 16.75 0 0 0-16.736-6.766l-.007.002-.367.069c-9.05 1.708-15.022 10.462-13.313 19.514 1.708 9.051 10.461 15.025 19.51 13.317l.367-.069.018-.003a16.704 16.704 0 0 0 9.436-5.394 1.028 1.028 0 1 1 1.547 1.354 18.77 18.77 0 0 1-10.601 6.06z"/><path fill="#FFF1ED" d="M153.114 220.099l-2.614-13.85 13.295 4.664-10.681 9.186z"/><path fill="#E7F1FF" d="M39.591 173.482a1.03 1.03 0 0 1 1.6-.944 16.677 16.677 0 0 0 10.884 2.794c9.178-.844 15.955-8.991 15.112-18.162l-.034-.372a16.664 16.664 0 0 0-17.475-15.149 1.029 1.029 0 0 1-.104-2.053A18.713 18.713 0 0 1 69.2 156.61l.034.371c.947 10.3-6.664 19.449-16.966 20.397a18.748 18.748 0 0 1-12.23-3.139 1.024 1.024 0 0 1-.447-.757zM73.828 226.164l-.011.37a18.992 18.992 0 0 1-.36 3.116 1.027 1.027 0 1 1-2.015-.404c.183-.912.29-1.847.32-2.778l.012-.369c.29-9.207-6.966-16.933-16.175-17.223a16.648 16.648 0 0 0-14.12 6.981 1.029 1.029 0 0 1-1.674-1.194 18.701 18.701 0 0 1 15.86-7.842c10.34.327 18.489 9.003 18.163 19.343zM127.047 162.014a18.629 18.629 0 0 1-5.281-13.336 18.637 18.637 0 0 1 5.697-13.181 18.636 18.636 0 0 1 13.358-5.293c.762.012 1.532.07 2.287.174a1.028 1.028 0 1 1-.28 2.037 16.986 16.986 0 0 0-2.04-.156 16.593 16.593 0 0 0-11.894 4.714 16.6 16.6 0 0 0-5.073 11.736 16.591 16.591 0 0 0 4.703 11.875l.008.008.26.269c6.408 6.612 17.004 6.779 23.62.372.411-.404.809-.84 1.179-1.29a1.027 1.027 0 1 1 1.588 1.304c-.415.506-.863.996-1.331 1.456-7.436 7.202-19.336 7.014-26.532-.411l-.26-.269-.009-.009z"/><path fill="#FFF1ED" d="M133.022 151.346l10.121-9.804 3.428 13.664-13.549-3.86z"/><path fill="#fff" d="M235.509 159.734c-30.383 0-55.013 24.631-55.013 55.014 0 30.383 24.63 55.014 55.013 55.014s55.014-24.631 55.014-55.014c0-30.383-24.631-55.014-55.014-55.014zm0 90.851c-19.792 0-35.837-16.045-35.837-35.837s16.045-35.837 35.837-35.837 35.837 16.045 35.837 35.837-16.045 35.837-35.837 35.837z"/><path fill="#3C4043" d="M235.509 270.647c-30.822 0-55.899-25.076-55.899-55.899s25.077-55.899 55.899-55.899c30.823 0 55.899 25.076 55.899 55.899s-25.076 55.899-55.899 55.899zm0-110.027c-29.846 0-54.128 24.282-54.128 54.128 0 29.847 24.282 54.128 54.128 54.128 29.847 0 54.128-24.282 54.128-54.128s-24.281-54.128-54.128-54.128zm0 90.85c-20.249 0-36.722-16.473-36.722-36.722 0-20.249 16.473-36.722 36.722-36.722 20.249 0 36.722 16.473 36.722 36.722 0 20.249-16.473 36.722-36.722 36.722zm0-71.673c-19.272 0-34.951 15.679-34.951 34.951s15.679 34.952 34.951 34.952c19.273 0 34.952-15.68 34.952-34.952s-15.679-34.951-34.952-34.951z"/><path fill="#85B7FE" d="M169.288 208.729c15.192 11.333 18.306 32.79 6.955 47.924-11.35 15.134-32.867 18.215-48.059 6.881a29.852 29.852 0 0 1-.488-.372l10.107-13.233c7.754 5.893 18.824 4.409 24.726-3.315 5.902-7.724 4.402-18.764-3.352-24.657l10.111-13.228zM302.367 91.61a.758.758 0 0 0-.778.18l-22.143 22.052.651 37.927 30.871 9.738a.758.758 0 0 0 .977-.819l-9.071-68.46a.75.75 0 0 0-.507-.618z"/><path fill="#fff" d="M280.324 151.048l-28.221-8.903 27.955-27.843.266 36.746z"/><path fill="#3C4043" d="M281.111 151.502a.904.904 0 0 1-1.059.412l-28.221-8.904a.914.914 0 0 1-.611-.651.9.9 0 0 1 .24-.858l27.956-27.842a.91.91 0 0 1 1.551.638l.265 36.747a.897.897 0 0 1-.121.458zm-27.305-9.771l25.601 8.078-.24-33.334-25.361 25.256z"/><path fill="#fff" d="M343.835 268.107c-6.735 3.668-15.167 1.172-18.831-5.574l-.016-.029-46.251-85.365c-3.744-6.714-1.346-15.196 5.357-18.944 6.704-3.747 15.173-1.343 18.918 5.372.055.099 46.409 85.654 46.409 85.654 3.666 6.757 1.17 15.21-5.576 18.88l-.01.006z"/><path fill="#3C4043" d="M338.716 270.626c-5.755.585-11.576-2.26-14.509-7.66l-.016-.03-46.251-85.365a14.744 14.744 0 0 1-1.315-11.264 14.72 14.72 0 0 1 7.027-8.904c7.129-3.986 16.169-1.42 20.151 5.721.056.101 41.67 76.907 46.414 85.665 3.9 7.185 1.235 16.207-5.939 20.11l-.443-.792.434.797a14.69 14.69 0 0 1-5.553 1.722zm-12.916-8.527c3.42 6.296 11.316 8.633 17.602 5.21l.004-.002c6.302-3.429 8.64-11.346 5.218-17.652l-46.407-85.652c-3.492-6.26-11.425-8.512-17.68-5.015a12.924 12.924 0 0 0-6.167 7.814 12.947 12.947 0 0 0 1.158 9.894l46.257 85.375-.782.462.797-.434z"/><path fill="#85B7FE" d="M298.77 270.647a18.261 18.261 0 0 1-17.917-21.832 18.258 18.258 0 0 1 5.002-9.353 18.262 18.262 0 0 1 25.831 0 18.262 18.262 0 0 1 0 25.831 18.118 18.118 0 0 1-12.916 5.354zm0-25.726a7.458 7.458 0 0 0-7.313 8.911 7.457 7.457 0 0 0 14.77-1.455 7.464 7.464 0 0 0-7.457-7.457v.001z"/><circle cx="236" cy="215" r="39" fill="#fff" stroke="#3C4043" stroke-width="2"/></svg>