<?xml version="1.0" encoding="UTF-8" standalone="no"?>
<!DOCTYPE svg PUBLIC "-//W3C//DTD SVG 1.1//EN"
 "http://www.w3.org/Graphics/SVG/1.1/DTD/svg11.dtd">
<!-- Generated by graphviz version 5.0.0 (20220707.1540)
 -->
<!-- Title: dependencies Pages: 1 -->
<svg width="460pt" height="174pt"
 viewBox="0.00 0.00 460.00 173.80" xmlns="http://www.w3.org/2000/svg" xmlns:xlink="http://www.w3.org/1999/xlink">
<g id="graph0" class="graph" transform="scale(1 1) rotate(0) translate(4 169.8)">
<title>dependencies</title>
<polygon fill="white" stroke="transparent" points="-4,4 -4,-169.8 456,-169.8 456,4 -4,4"/>
<text text-anchor="middle" x="226" y="-8.2" font-family="sans-serif" font-size="14.00">dependencies</text>
<g id="clust1" class="cluster">
<title>cluster_TraitsModule</title>
<polygon fill="none" stroke="black" stroke-dasharray="1,5" points="8,-32.8 8,-157.8 444,-157.8 444,-32.8 8,-32.8"/>
</g>
<g id="clust2" class="cluster">
<title>cluster_TraitsModule_declarations</title>
<polygon fill="none" stroke="black" points="306,-40.8 306,-92.8 436,-92.8 436,-40.8 306,-40.8"/>
</g>
<g id="clust4" class="cluster">
<title>cluster_TraitsModule_imports</title>
<polygon fill="none" stroke="black" points="16,-40.8 16,-92.8 298,-92.8 298,-40.8 16,-40.8"/>
</g>
<!-- TraitsComponent -->
<g id="node1" class="node">
<title>TraitsComponent</title>
<polygon fill="#ffffb3" stroke="black" points="427.99,-84.8 314.01,-84.8 314.01,-48.8 427.99,-48.8 427.99,-84.8"/>
<text text-anchor="middle" x="371" y="-62.6" font-family="Times,serif" font-size="14.00">TraitsComponent</text>
</g>
<!-- TraitsModule -->
<g id="node2" class="node">
<title>TraitsModule</title>
<polygon fill="#8dd3c7" stroke="black" points="281.21,-149.8 278.21,-153.8 257.21,-153.8 254.21,-149.8 188.79,-149.8 188.79,-113.8 281.21,-113.8 281.21,-149.8"/>
<text text-anchor="middle" x="235" y="-127.6" font-family="Times,serif" font-size="14.00">TraitsModule</text>
</g>
<!-- TraitsComponent&#45;&gt;TraitsModule -->
<g id="edge1" class="edge">
<title>TraitsComponent&#45;&gt;TraitsModule</title>
<path fill="none" stroke="black" d="M371,-84.91C371,-104.14 371,-131.8 371,-131.8 371,-131.8 291.42,-131.8 291.42,-131.8"/>
<polygon fill="black" stroke="black" points="291.42,-128.3 281.42,-131.8 291.42,-135.3 291.42,-128.3"/>
</g>
<!-- KrModalModule -->
<g id="node3" class="node">
<title>KrModalModule</title>
<polygon fill="#8dd3c7" stroke="black" points="290.38,-84.8 287.38,-88.8 266.38,-88.8 263.38,-84.8 179.62,-84.8 179.62,-48.8 290.38,-48.8 290.38,-84.8"/>
<text text-anchor="middle" x="235" y="-62.6" font-family="Times,serif" font-size="14.00">KrModalModule</text>
</g>
<!-- KrModalModule&#45;&gt;TraitsModule -->
<g id="edge2" class="edge">
<title>KrModalModule&#45;&gt;TraitsModule</title>
<path fill="none" stroke="black" d="M235,-84.91C235,-84.91 235,-103.79 235,-103.79"/>
<polygon fill="black" stroke="black" points="231.5,-103.79 235,-113.79 238.5,-103.79 231.5,-103.79"/>
</g>
<!-- TraitsRoutingModule -->
<g id="node4" class="node">
<title>TraitsRoutingModule</title>
<polygon fill="#8dd3c7" stroke="black" points="161.82,-84.8 158.82,-88.8 137.82,-88.8 134.82,-84.8 24.18,-84.8 24.18,-48.8 161.82,-48.8 161.82,-84.8"/>
<text text-anchor="middle" x="93" y="-62.6" font-family="Times,serif" font-size="14.00">TraitsRoutingModule</text>
</g>
<!-- TraitsRoutingModule&#45;&gt;TraitsModule -->
<g id="edge3" class="edge">
<title>TraitsRoutingModule&#45;&gt;TraitsModule</title>
<path fill="none" stroke="black" d="M93,-84.91C93,-104.14 93,-131.8 93,-131.8 93,-131.8 178.5,-131.8 178.5,-131.8"/>
<polygon fill="black" stroke="black" points="178.5,-135.3 188.5,-131.8 178.5,-128.3 178.5,-135.3"/>
</g>
</g>
</svg>
