<?xml version="1.0" encoding="UTF-8" standalone="no"?>
<!DOCTYPE svg PUBLIC "-//W3C//DTD SVG 1.1//EN"
 "http://www.w3.org/Graphics/SVG/1.1/DTD/svg11.dtd">
<!-- Generated by graphviz version 5.0.0 (20220707.1540)
 -->
<!-- Title: dependencies Pages: 1 -->
<svg width="613pt" height="174pt"
 viewBox="0.00 0.00 613.00 173.80" xmlns="http://www.w3.org/2000/svg" xmlns:xlink="http://www.w3.org/1999/xlink">
<g id="graph0" class="graph" transform="scale(1 1) rotate(0) translate(4 169.8)">
<title>dependencies</title>
<polygon fill="white" stroke="transparent" points="-4,4 -4,-169.8 609,-169.8 609,4 -4,4"/>
<text text-anchor="middle" x="302.5" y="-8.2" font-family="sans-serif" font-size="14.00">dependencies</text>
<g id="clust1" class="cluster">
<title>cluster_TraitsModule</title>
<polygon fill="none" stroke="black" stroke-dasharray="1,5" points="8,-32.8 8,-157.8 597,-157.8 597,-32.8 8,-32.8"/>
</g>
<g id="clust4" class="cluster">
<title>cluster_TraitsModule_imports</title>
<polygon fill="none" stroke="black" points="154,-40.8 154,-92.8 589,-92.8 589,-40.8 154,-40.8"/>
</g>
<g id="clust2" class="cluster">
<title>cluster_TraitsModule_declarations</title>
<polygon fill="none" stroke="black" points="16,-40.8 16,-92.8 146,-92.8 146,-40.8 16,-40.8"/>
</g>
<!-- TraitsComponent -->
<g id="node1" class="node">
<title>TraitsComponent</title>
<polygon fill="#ffffb3" stroke="black" points="137.99,-84.8 24.01,-84.8 24.01,-48.8 137.99,-48.8 137.99,-84.8"/>
<text text-anchor="middle" x="81" y="-62.6" font-family="Times,serif" font-size="14.00">TraitsComponent</text>
</g>
<!-- TraitsModule -->
<g id="node2" class="node">
<title>TraitsModule</title>
<polygon fill="#8dd3c7" stroke="black" points="348.21,-149.8 345.21,-153.8 324.21,-153.8 321.21,-149.8 255.79,-149.8 255.79,-113.8 348.21,-113.8 348.21,-149.8"/>
<text text-anchor="middle" x="302" y="-127.6" font-family="Times,serif" font-size="14.00">TraitsModule</text>
</g>
<!-- TraitsComponent&#45;&gt;TraitsModule -->
<g id="edge1" class="edge">
<title>TraitsComponent&#45;&gt;TraitsModule</title>
<path fill="none" stroke="black" d="M81,-84.91C81,-104.14 81,-131.8 81,-131.8 81,-131.8 245.67,-131.8 245.67,-131.8"/>
<polygon fill="black" stroke="black" points="245.67,-135.3 255.67,-131.8 245.67,-128.3 245.67,-135.3"/>
</g>
<!-- EmptyScreenModule -->
<g id="node3" class="node">
<title>EmptyScreenModule</title>
<polygon fill="#8dd3c7" stroke="black" points="581.47,-84.8 578.47,-88.8 557.47,-88.8 554.47,-84.8 446.53,-84.8 446.53,-48.8 581.47,-48.8 581.47,-84.8"/>
<text text-anchor="middle" x="514" y="-62.6" font-family="Times,serif" font-size="14.00">EmptyScreenModule</text>
</g>
<!-- EmptyScreenModule&#45;&gt;TraitsModule -->
<g id="edge2" class="edge">
<title>EmptyScreenModule&#45;&gt;TraitsModule</title>
<path fill="none" stroke="black" d="M514,-84.91C514,-104.14 514,-131.8 514,-131.8 514,-131.8 358.26,-131.8 358.26,-131.8"/>
<polygon fill="black" stroke="black" points="358.26,-128.3 348.26,-131.8 358.26,-135.3 358.26,-128.3"/>
</g>
<!-- KrModalModule -->
<g id="node4" class="node">
<title>KrModalModule</title>
<polygon fill="#8dd3c7" stroke="black" points="428.38,-84.8 425.38,-88.8 404.38,-88.8 401.38,-84.8 317.62,-84.8 317.62,-48.8 428.38,-48.8 428.38,-84.8"/>
<text text-anchor="middle" x="373" y="-62.6" font-family="Times,serif" font-size="14.00">KrModalModule</text>
</g>
<!-- KrModalModule&#45;&gt;TraitsModule -->
<g id="edge3" class="edge">
<title>KrModalModule&#45;&gt;TraitsModule</title>
<path fill="none" stroke="black" d="M332.83,-84.91C332.83,-84.91 332.83,-103.79 332.83,-103.79"/>
<polygon fill="black" stroke="black" points="329.33,-103.79 332.83,-113.79 336.33,-103.79 329.33,-103.79"/>
</g>
<!-- TraitsRoutingModule -->
<g id="node5" class="node">
<title>TraitsRoutingModule</title>
<polygon fill="#8dd3c7" stroke="black" points="299.82,-84.8 296.82,-88.8 275.82,-88.8 272.82,-84.8 162.18,-84.8 162.18,-48.8 299.82,-48.8 299.82,-84.8"/>
<text text-anchor="middle" x="231" y="-62.6" font-family="Times,serif" font-size="14.00">TraitsRoutingModule</text>
</g>
<!-- TraitsRoutingModule&#45;&gt;TraitsModule -->
<g id="edge4" class="edge">
<title>TraitsRoutingModule&#45;&gt;TraitsModule</title>
<path fill="none" stroke="black" d="M277.78,-84.91C277.78,-84.91 277.78,-103.79 277.78,-103.79"/>
<polygon fill="black" stroke="black" points="274.28,-103.79 277.78,-113.79 281.28,-103.79 274.28,-103.79"/>
</g>
</g>
</svg>
