<svg width="43" height="37" fill="none" xmlns="http://www.w3.org/2000/svg"><path fill-rule="evenodd" clip-rule="evenodd" d="M5.344.875A4.422 4.422 0 0 0 .937 5.281V31.72a4.422 4.422 0 0 0 4.407 4.406h32.312a4.422 4.422 0 0 0 4.407-4.406V5.28A4.422 4.422 0 0 0 37.656.875H5.344Zm0 2.938h32.312a1.45 1.45 0 0 1 1.469 1.468v21.343l-9.918-10.47a.5.5 0 0 0-.737.011l-5.375 6.053-8.472-8.934a.5.5 0 0 0-.737.012L3.875 24.57V5.281a1.45 1.45 0 0 1 1.469-1.468ZM30.312 6.75a2.943 2.943 0 0 0-2.937 2.938 2.943 2.943 0 0 0 2.938 2.937 2.943 2.943 0 0 0 2.937-2.938 2.943 2.943 0 0 0-2.938-2.937ZM14.318 17.226l15.135 15.962H5.344a1.45 1.45 0 0 1-1.469-1.47V29l10.442-11.773Zm14.573 2.88 10.235 10.787v.826a1.45 1.45 0 0 1-1.469 1.468h-4.165l-8.365-8.835 3.764-4.246Z" fill="#E4E5E7"/></svg>