<svg width="28" height="24" fill="none" xmlns="http://www.w3.org/2000/svg"><path fill-rule="evenodd" clip-rule="evenodd" d="M3 0a3.01 3.01 0 0 0-3 3v18c0 1.648 1.352 3 3 3h22c1.648 0 3-1.352 3-3V3c0-1.648-1.352-3-3-3H3Zm0 2h22c.563 0 1 .438 1 1v14.531l-6.633-7.002a.5.5 0 0 0-.737.011l-3.544 3.991-5.649-5.956a.5.5 0 0 0-.736.012L2 16.133V3c0-.563.438-1 1-1Zm17 2c-1.102 0-2 .898-2 2 0 1.102.898 2 2 2 1.102 0 2-.898 2-2 0-1.102-.898-2-2-2ZM9.11 11.133 19.413 22H3c-.563 0-1-.438-1-1v-1.852l7.11-8.015Zm9.921 1.96L26 20.439V21c0 .563-.438 1-1 1h-2.836l-5.695-6.016 2.562-2.89Z" fill="#E4E5E7"/></svg>