<svg width="37" height="31" fill="none" xmlns="http://www.w3.org/2000/svg"><path fill-rule="evenodd" clip-rule="evenodd" d="M4.406.125A3.858 3.858 0 0 0 .563 3.969V27.03a3.858 3.858 0 0 0 3.843 3.844h28.188a3.858 3.858 0 0 0 3.843-3.844V3.97A3.858 3.858 0 0 0 32.594.125H4.406Zm0 2.563h28.188c.72 0 1.281.56 1.281 1.28v18.619l-8.604-9.084a.5.5 0 0 0-.737.012l-4.643 5.228-7.342-7.742a.5.5 0 0 0-.737.012l-8.687 9.782V3.97c0-.72.56-1.281 1.281-1.281ZM26.188 5.25a2.567 2.567 0 0 0-2.563 2.563 2.567 2.567 0 0 0 2.563 2.562 2.567 2.567 0 0 0 2.562-2.563 2.567 2.567 0 0 0-2.563-2.562Zm-13.954 9.139 13.203 13.924H4.407a1.266 1.266 0 0 1-1.282-1.282V24.66l9.109-10.27ZM24.946 16.9l8.929 9.41v.72c0 .721-.56 1.282-1.281 1.282H28.96l-7.297-7.708 3.283-3.704Z" fill="#E4E5E7"/></svg>