<svg width="77" height="67" fill="none" xmlns="http://www.w3.org/2000/svg"><path fill-rule="evenodd" clip-rule="evenodd" d="M8.594.875C4.112.875.438 4.55.438 9.031V57.97c0 4.481 3.674 8.156 8.156 8.156h59.812c4.482 0 8.156-3.675 8.156-8.156V9.03c0-4.481-3.674-8.156-8.156-8.156H8.594Zm0 5.438h59.812a2.683 2.683 0 0 1 2.719 2.718v39.507L52.447 28.82a.5.5 0 0 0-.736.012l-10.259 11.55-16-16.872a.5.5 0 0 0-.738.012L5.875 44.736V9.031c0-1.53 1.19-2.719 2.719-2.719Zm46.218 5.437a5.448 5.448 0 0 0-5.437 5.438 5.448 5.448 0 0 0 5.438 5.437 5.448 5.448 0 0 0 5.437-5.438 5.448 5.448 0 0 0-5.438-5.437ZM25.204 31.142l28.015 29.546H8.594a2.684 2.684 0 0 1-2.719-2.72v-5.033l19.329-21.793Zm26.975 5.332L71.125 56.44v1.529a2.684 2.684 0 0 1-2.719 2.718h-7.71L45.212 44.334l6.967-7.86Z" fill="#E4E5E7"/></svg>