<svg width="411" height="232" fill="none" xmlns="http://www.w3.org/2000/svg"><path d="M.5 4A3.5 3.5 0 0 1 4 .5h403a3.5 3.5 0 0 1 3.5 3.5v13.623H.5V4Z" fill="#F3F8FF" stroke="#EFF0F1"/><rect x=".5" y=".5" width="410" height="230.066" rx="3.5" stroke="#E4E5E7"/><rect x="13.5" y="26.5" width="385" height="16" rx=".5" stroke="#EFF0F1"/><rect x="13" y="52" width="60" height="171" rx="2" fill="#EFF0F1"/><path fill-rule="evenodd" clip-rule="evenodd" d="M402.715 72.118c.136.135.144.35.024.494l-.024.027-3.222 3.222a.368.368 0 0 1-.544-.494l.024-.026 2.962-2.963-2.962-2.962a.369.369 0 0 1-.024-.494l.024-.026a.368.368 0 0 1 .494-.024l.026.024 3.222 3.222Z" fill="#BDC1C6"/><rect x="78.5" y="52.5" width="75" height="40" rx="3.5" fill="#fff" stroke="#E7F1FF"/><rect x="82" y="57" width="63" height="11" rx="2" fill="#F8F9FA"/><rect x="82" y="69" width="39" height="11" rx="2" fill="#F8F9FA"/><g filter="url(#a)"><rect x="78" y="101" width="316" height="22" rx="2" fill="#fff"/></g><rect x="82" y="106" width="88" height="5" rx="1" fill="#F8F9FA"/><rect x="82" y="113" width="306" height="5" rx="1" fill="#F8F9FA"/><g filter="url(#b)"><rect x="78" y="127" width="316" height="22" rx="2" fill="#fff"/></g><rect x="82" y="132" width="88" height="5" rx="1" fill="#F8F9FA"/><rect x="82" y="139" width="306" height="5" rx="1" fill="#F8F9FA"/><g filter="url(#c)"><rect x="78" y="153" width="316" height="22" rx="2" fill="#fff"/></g><rect x="82" y="158" width="88" height="5" rx="1" fill="#F8F9FA"/><rect x="82" y="165" width="306" height="5" rx="1" fill="#F8F9FA"/><g filter="url(#d)"><rect x="78" y="179" width="316" height="22" rx="2" fill="#fff"/></g><rect x="82" y="184" width="88" height="5" rx="1" fill="#F8F9FA"/><rect x="82" y="191" width="306" height="5" rx="1" fill="#F8F9FA"/><rect x="158.5" y="52.5" width="75" height="40" rx="3.5" fill="#fff" stroke="#E7F1FF"/><rect x="162" y="57" width="63" height="11" rx="2" fill="#F8F9FA"/><rect x="162" y="69" width="39" height="11" rx="2" fill="#F8F9FA"/><rect x="238.5" y="52.5" width="75" height="40" rx="3.5" fill="#fff" stroke="#E7F1FF"/><rect x="242" y="57" width="63" height="11" rx="2" fill="#F8F9FA"/><rect x="242" y="69" width="39" height="11" rx="2" fill="#F8F9FA"/><rect x="318.5" y="52.5" width="75" height="40" rx="3.5" fill="#fff" stroke="#E7F1FF"/><rect x="322" y="57" width="63" height="11" rx="2" fill="#F8F9FA"/><rect x="322" y="69" width="39" height="11" rx="2" fill="#F8F9FA"/><path fill="#202124" d="m82 105 7 7-7 7-7-7z"/><g filter="url(#e)"><rect x="82" y="95" width="58" height="34" rx="4" fill="#202124"/><path d="M97.717 116h1.318v-3.089h3.022v-1.105h-3.022v-1.974h3.341v-1.105h-4.659V116Zm7.324.11c.855 0 1.367-.401 1.601-.859h.043V116h1.236v-3.651c0-1.441-1.176-1.875-2.216-1.875-1.147 0-2.028.512-2.312 1.506l1.2.171c.128-.373.49-.693 1.119-.693.596 0 .923.305.923.842v.021c0 .369-.387.387-1.349.49-1.059.114-2.071.43-2.071 1.658 0 1.073.785 1.641 1.826 1.641Zm.333-.945c-.536 0-.919-.245-.919-.717 0-.493.429-.699 1.005-.781.337-.046 1.012-.131 1.179-.266v.642c0 .608-.49 1.122-1.265 1.122Zm6.219.942c1.37 0 2.244-.814 2.336-1.971H112.7c-.11.586-.532.923-1.097.923-.802 0-1.321-.671-1.321-1.786 0-1.101.529-1.762 1.321-1.762.618 0 .998.398 1.097.924h1.229c-.089-1.183-1.012-1.961-2.344-1.961-1.598 0-2.606 1.155-2.606 2.82 0 1.651.984 2.813 2.614 2.813Zm5.807 0c1.271 0 2.144-.622 2.372-1.57l-1.201-.135c-.174.462-.6.703-1.154.703-.831 0-1.381-.547-1.392-1.481h3.8v-.394c0-1.914-1.151-2.756-2.493-2.756-1.562 0-2.582 1.147-2.582 2.831 0 1.711 1.005 2.802 2.65 2.802Zm-1.371-3.349c.039-.696.554-1.282 1.321-1.282.738 0 1.236.54 1.243 1.282h-2.564Zm7.607-2.213h-1.076v-1.306h-1.285v1.306h-.774v.995h.774v3.032c-.007 1.027.738 1.531 1.704 1.503.366-.011.618-.082.757-.128l-.217-1.005a1.6 1.6 0 0 1-.376.049c-.324 0-.583-.113-.583-.632v-2.819h1.076v-.995Z" fill="#fff"/></g><defs><filter id="a" x="67" y="90" width="338" height="44" filterUnits="userSpaceOnUse" color-interpolation-filters="sRGB"><feFlood flood-opacity="0" result="BackgroundImageFix"/><feColorMatrix in="SourceAlpha" values="0 0 0 0 0 0 0 0 0 0 0 0 0 0 0 0 0 0 127 0"/><feOffset/><feGaussianBlur stdDeviation="5.5"/><feColorMatrix values="0 0 0 0 0 0 0 0 0 0 0 0 0 0 0 0 0 0 0.1 0"/><feBlend in2="BackgroundImageFix" result="effect1_dropShadow"/><feBlend in="SourceGraphic" in2="effect1_dropShadow" result="shape"/></filter><filter id="b" x="67" y="116" width="338" height="44" filterUnits="userSpaceOnUse" color-interpolation-filters="sRGB"><feFlood flood-opacity="0" result="BackgroundImageFix"/><feColorMatrix in="SourceAlpha" values="0 0 0 0 0 0 0 0 0 0 0 0 0 0 0 0 0 0 127 0"/><feOffset/><feGaussianBlur stdDeviation="5.5"/><feColorMatrix values="0 0 0 0 0 0 0 0 0 0 0 0 0 0 0 0 0 0 0.1 0"/><feBlend in2="BackgroundImageFix" result="effect1_dropShadow"/><feBlend in="SourceGraphic" in2="effect1_dropShadow" result="shape"/></filter><filter id="c" x="67" y="142" width="338" height="44" filterUnits="userSpaceOnUse" color-interpolation-filters="sRGB"><feFlood flood-opacity="0" result="BackgroundImageFix"/><feColorMatrix in="SourceAlpha" values="0 0 0 0 0 0 0 0 0 0 0 0 0 0 0 0 0 0 127 0"/><feOffset/><feGaussianBlur stdDeviation="5.5"/><feColorMatrix values="0 0 0 0 0 0 0 0 0 0 0 0 0 0 0 0 0 0 0.1 0"/><feBlend in2="BackgroundImageFix" result="effect1_dropShadow"/><feBlend in="SourceGraphic" in2="effect1_dropShadow" result="shape"/></filter><filter id="d" x="67" y="168" width="338" height="44" filterUnits="userSpaceOnUse" color-interpolation-filters="sRGB"><feFlood flood-opacity="0" result="BackgroundImageFix"/><feColorMatrix in="SourceAlpha" values="0 0 0 0 0 0 0 0 0 0 0 0 0 0 0 0 0 0 127 0"/><feOffset/><feGaussianBlur stdDeviation="5.5"/><feColorMatrix values="0 0 0 0 0 0 0 0 0 0 0 0 0 0 0 0 0 0 0.1 0"/><feBlend in2="BackgroundImageFix" result="effect1_dropShadow"/><feBlend in="SourceGraphic" in2="effect1_dropShadow" result="shape"/></filter><filter id="e" x="78" y="95" width="66" height="42" filterUnits="userSpaceOnUse" color-interpolation-filters="sRGB"><feFlood flood-opacity="0" result="BackgroundImageFix"/><feColorMatrix in="SourceAlpha" values="0 0 0 0 0 0 0 0 0 0 0 0 0 0 0 0 0 0 127 0"/><feOffset dy="4"/><feGaussianBlur stdDeviation="2"/><feColorMatrix values="0 0 0 0 0.12549 0 0 0 0 0.129412 0 0 0 0 0.141176 0 0 0 0.2 0"/><feBlend in2="BackgroundImageFix" result="effect1_dropShadow"/><feBlend in="SourceGraphic" in2="effect1_dropShadow" result="shape"/></filter></defs></svg>