<svg width="14" height="14" fill="none" xmlns="http://www.w3.org/2000/svg"><path fill-rule="evenodd" clip-rule="evenodd" d="M6.297.8C3.261.8.8 3.268.8 6.312c0 3.045 2.461 5.513 5.497 5.513a5.466 5.466 0 0 0 3.496-1.258l2.549 2.524.038.034c.21.171.518.158.711-.039a.532.532 0 0 0-.004-.75l-2.545-2.52a5.498 5.498 0 0 0 1.253-3.504C11.795 3.268 9.334.8 6.297.8Zm0 1.063a4.444 4.444 0 0 1 4.438 4.45 4.444 4.444 0 0 1-4.438 4.449 4.444 4.444 0 0 1-4.437-4.45 4.444 4.444 0 0 1 4.437-4.45Z" fill="#BDC1C6"/></svg>