<svg width="468" height="232" fill="none" xmlns="http://www.w3.org/2000/svg"><path d="M.5 4A3.5 3.5 0 0 1 4 .5h403a3.5 3.5 0 0 1 3.5 3.5v13.623H.5V4Z" fill="#F3F8FF" stroke="#EFF0F1"/><rect x=".5" y=".5" width="410" height="230.066" rx="3.5" stroke="#E4E5E7"/><rect x="13.5" y="26.5" width="385" height="16" rx=".5" stroke="#EFF0F1"/><rect x="13" y="47" width="386" height="32" rx="2" fill="#EFF0F1"/><path fill="#202124" d="m406 56 7 7-7 7-7-7z"/><g filter="url(#a)"><rect x="406" y="46" width="58" height="34" rx="4" fill="#202124"/><path d="M421.717 67h1.318v-3.09h3.022v-1.104h-3.022v-1.974h3.341v-1.105h-4.659V67Zm7.324.11c.855 0 1.367-.401 1.601-.86h.043V67h1.236v-3.65c0-1.442-1.176-1.876-2.216-1.876-1.147 0-2.028.512-2.312 1.506l1.2.17c.128-.372.49-.692 1.119-.692.596 0 .923.306.923.842v.021c0 .37-.387.387-1.349.49-1.059.114-2.071.43-2.071 1.658 0 1.073.785 1.641 1.826 1.641Zm.333-.945c-.536 0-.919-.245-.919-.717 0-.493.429-.7 1.005-.781.337-.046 1.012-.132 1.179-.266v.642c0 .608-.49 1.122-1.265 1.122Zm6.219.941c1.37 0 2.244-.813 2.336-1.97H436.7c-.11.586-.532.923-1.097.923-.802 0-1.321-.671-1.321-1.786 0-1.101.529-1.762 1.321-1.762.618 0 .998.398 1.097.924h1.229c-.089-1.183-1.012-1.96-2.344-1.96-1.598 0-2.606 1.154-2.606 2.819 0 1.651.984 2.813 2.614 2.813Zm5.807 0c1.271 0 2.144-.62 2.372-1.57l-1.201-.134c-.174.462-.6.703-1.154.703-.831 0-1.381-.547-1.392-1.48h3.8v-.395c0-1.914-1.151-2.756-2.493-2.756-1.562 0-2.582 1.147-2.582 2.83 0 1.712 1.005 2.802 2.65 2.802Zm-1.371-3.348c.039-.696.554-1.282 1.321-1.282.738 0 1.236.54 1.243 1.282h-2.564Zm7.607-2.213h-1.076V60.24h-1.285v1.306h-.774v.995h.774v3.032c-.007 1.027.738 1.531 1.704 1.503a2.59 2.59 0 0 0 .757-.128l-.217-1.005c-.071.018-.217.05-.376.05-.324 0-.583-.114-.583-.633v-2.82h1.076v-.994Z" fill="#fff"/></g><path fill-rule="evenodd" clip-rule="evenodd" d="M354.715 109.118c.136.135.144.35.024.494l-.024.027-3.222 3.222a.367.367 0 0 1-.544-.494l.024-.027 2.962-2.962-2.962-2.962a.368.368 0 0 1-.024-.494l.024-.026a.368.368 0 0 1 .494-.024l.026.024 3.222 3.222Z" fill="#BDC1C6"/><rect x="13.5" y="89.5" width="75" height="40" rx="3.5" fill="#fff" stroke="#E7F1FF"/><rect x="17" y="94" width="63" height="11" rx="2" fill="#F8F9FA"/><rect x="17" y="106" width="39" height="11" rx="2" fill="#F8F9FA"/><g filter="url(#b)"><rect x="13" y="138" width="386" height="22" rx="2" fill="#fff"/></g><rect x="17.886" y="143" width="107.494" height="5" rx="1" fill="#F8F9FA"/><rect x="17.886" y="150" width="373.785" height="5" rx="1" fill="#F8F9FA"/><g filter="url(#c)"><rect x="13" y="164" width="386" height="22" rx="2" fill="#fff"/></g><rect x="17.886" y="169" width="107.494" height="5" rx="1" fill="#F8F9FA"/><rect x="17.886" y="176" width="373.785" height="5" rx="1" fill="#F8F9FA"/><g filter="url(#d)"><rect x="13" y="190" width="386" height="22" rx="2" fill="#fff"/></g><rect x="17.886" y="195" width="107.494" height="5" rx="1" fill="#F8F9FA"/><rect x="17.886" y="202" width="373.785" height="5" rx="1" fill="#F8F9FA"/><rect x="93.5" y="89.5" width="75" height="40" rx="3.5" fill="#fff" stroke="#E7F1FF"/><rect x="97" y="94" width="63" height="11" rx="2" fill="#F8F9FA"/><rect x="97" y="106" width="39" height="11" rx="2" fill="#F8F9FA"/><rect x="173.5" y="89.5" width="75" height="40" rx="3.5" fill="#fff" stroke="#E7F1FF"/><rect x="177" y="94" width="63" height="11" rx="2" fill="#F8F9FA"/><rect x="177" y="106" width="39" height="11" rx="2" fill="#F8F9FA"/><rect x="253.5" y="89.5" width="75" height="40" rx="3.5" fill="#fff" stroke="#E7F1FF"/><rect x="257" y="94" width="63" height="11" rx="2" fill="#F8F9FA"/><rect x="257" y="106" width="39" height="11" rx="2" fill="#F8F9FA"/><defs><filter id="a" x="402" y="46" width="66" height="42" filterUnits="userSpaceOnUse" color-interpolation-filters="sRGB"><feFlood flood-opacity="0" result="BackgroundImageFix"/><feColorMatrix in="SourceAlpha" values="0 0 0 0 0 0 0 0 0 0 0 0 0 0 0 0 0 0 127 0"/><feOffset dy="4"/><feGaussianBlur stdDeviation="2"/><feColorMatrix values="0 0 0 0 0.12549 0 0 0 0 0.129412 0 0 0 0 0.141176 0 0 0 0.2 0"/><feBlend in2="BackgroundImageFix" result="effect1_dropShadow"/><feBlend in="SourceGraphic" in2="effect1_dropShadow" result="shape"/></filter><filter id="b" x="2" y="127" width="408" height="44" filterUnits="userSpaceOnUse" color-interpolation-filters="sRGB"><feFlood flood-opacity="0" result="BackgroundImageFix"/><feColorMatrix in="SourceAlpha" values="0 0 0 0 0 0 0 0 0 0 0 0 0 0 0 0 0 0 127 0"/><feOffset/><feGaussianBlur stdDeviation="5.5"/><feColorMatrix values="0 0 0 0 0 0 0 0 0 0 0 0 0 0 0 0 0 0 0.1 0"/><feBlend in2="BackgroundImageFix" result="effect1_dropShadow"/><feBlend in="SourceGraphic" in2="effect1_dropShadow" result="shape"/></filter><filter id="c" x="2" y="153" width="408" height="44" filterUnits="userSpaceOnUse" color-interpolation-filters="sRGB"><feFlood flood-opacity="0" result="BackgroundImageFix"/><feColorMatrix in="SourceAlpha" values="0 0 0 0 0 0 0 0 0 0 0 0 0 0 0 0 0 0 127 0"/><feOffset/><feGaussianBlur stdDeviation="5.5"/><feColorMatrix values="0 0 0 0 0 0 0 0 0 0 0 0 0 0 0 0 0 0 0.1 0"/><feBlend in2="BackgroundImageFix" result="effect1_dropShadow"/><feBlend in="SourceGraphic" in2="effect1_dropShadow" result="shape"/></filter><filter id="d" x="2" y="179" width="408" height="44" filterUnits="userSpaceOnUse" color-interpolation-filters="sRGB"><feFlood flood-opacity="0" result="BackgroundImageFix"/><feColorMatrix in="SourceAlpha" values="0 0 0 0 0 0 0 0 0 0 0 0 0 0 0 0 0 0 127 0"/><feOffset/><feGaussianBlur stdDeviation="5.5"/><feColorMatrix values="0 0 0 0 0 0 0 0 0 0 0 0 0 0 0 0 0 0 0.1 0"/><feBlend in2="BackgroundImageFix" result="effect1_dropShadow"/><feBlend in="SourceGraphic" in2="effect1_dropShadow" result="shape"/></filter></defs></svg>