<svg width="16" height="11" fill="none" xmlns="http://www.w3.org/2000/svg"><path fill-rule="evenodd" clip-rule="evenodd" d="M8 2.86a2.502 2.502 0 1 0 0 5.004A2.502 2.502 0 0 0 8 2.86Zm0 1.054A1.449 1.449 0 1 1 8 6.81a1.449 1.449 0 0 1 0-2.897Z" fill="#202124"/><path fill-rule="evenodd" clip-rule="evenodd" d="M8 .556C5.067.556 2.705 2.15.956 5.273a.527.527 0 0 0 .025.555C2.978 8.742 5.325 10.23 8 10.23c2.674 0 5.021-1.488 7.019-4.402a.527.527 0 0 0 .025-.555C13.294 2.151 10.933.556 8 .556Zm.13 1.054c2.377.045 4.308 1.323 5.83 3.892l-.006.01C12.188 7.971 10.21 9.175 8 9.175l-.123-.001C5.76 9.132 3.854 7.973 2.146 5.649l-.107-.147C3.59 2.886 5.563 1.61 8 1.61l.13.001Z" fill="#202124"/></svg>