<svg width="6" height="12" fill="none" xmlns="http://www.w3.org/2000/svg"><path fill-rule="evenodd" clip-rule="evenodd" d="M.857 10.286a.857.857 0 1 1 0 1.714.857.857 0 0 1 0-1.714Zm4.286 0a.857.857 0 1 1 0 1.714.857.857 0 0 1 0-1.714ZM.857 6.857a.857.857 0 1 1 0 1.714.857.857 0 0 1 0-1.714Zm4.286 0a.857.857 0 1 1 0 1.714.857.857 0 0 1 0-1.714ZM.857 3.43a.857.857 0 1 1 0 1.714.857.857 0 0 1 0-1.714Zm4.286 0a.857.857 0 1 1 0 1.714.857.857 0 0 1 0-1.714ZM.857 0a.857.857 0 1 1 0 1.714.857.857 0 0 1 0-1.714Zm4.286 0a.857.857 0 1 1 0 1.714.857.857 0 0 1 0-1.714Z" fill="#5F6368"/></svg>