<svg width="14" height="12" fill="none" xmlns="http://www.w3.org/2000/svg"><path d="M3.488.81.941 3.225l-.033.034a.522.522 0 0 0 .013.704l.034.033c.2.177.507.174.704-.013L3.382 2.35v8.51l.002.048a.522.522 0 0 0 1.042-.047V2.457l1.61 1.526.036.031a.522.522 0 0 0 .683-.79L4.207.81 4.17.778a.522.522 0 0 0-.682.032Zm6.198 9.17V1.47l.003-.048a.522.522 0 0 1 1.042.047v8.404l1.61-1.526.036-.03a.522.522 0 0 1 .682.789l-2.547 2.414-.037.032a.522.522 0 0 1-.682-.032L7.246 9.106l-.033-.035a.522.522 0 0 1 .013-.704l.034-.033a.522.522 0 0 1 .704.013L9.686 9.98Z" fill="#202124"/></svg>