<?xml version="1.0" encoding="UTF-8" standalone="no"?>
<!DOCTYPE svg PUBLIC "-//W3C//DTD SVG 1.1//EN"
 "http://www.w3.org/Graphics/SVG/1.1/DTD/svg11.dtd">
<!-- Generated by graphviz version 5.0.0 (20220707.1540)
 -->
<!-- Title: dependencies Pages: 1 -->
<svg width="512pt" height="174pt"
 viewBox="0.00 0.00 512.00 173.80" xmlns="http://www.w3.org/2000/svg" xmlns:xlink="http://www.w3.org/1999/xlink">
<g id="graph0" class="graph" transform="scale(1 1) rotate(0) translate(4 169.8)">
<title>dependencies</title>
<polygon fill="white" stroke="transparent" points="-4,4 -4,-169.8 508,-169.8 508,4 -4,4"/>
<text text-anchor="middle" x="252" y="-8.2" font-family="sans-serif" font-size="14.00">dependencies</text>
<g id="clust1" class="cluster">
<title>cluster_WeightsModule</title>
<polygon fill="none" stroke="black" stroke-dasharray="1,5" points="8,-32.8 8,-157.8 496,-157.8 496,-32.8 8,-32.8"/>
</g>
<g id="clust4" class="cluster">
<title>cluster_WeightsModule_imports</title>
<polygon fill="none" stroke="black" points="168,-40.8 168,-92.8 488,-92.8 488,-40.8 168,-40.8"/>
</g>
<g id="clust2" class="cluster">
<title>cluster_WeightsModule_declarations</title>
<polygon fill="none" stroke="black" points="16,-40.8 16,-92.8 160,-92.8 160,-40.8 16,-40.8"/>
</g>
<!-- WeightsComponent -->
<g id="node1" class="node">
<title>WeightsComponent</title>
<polygon fill="#ffffb3" stroke="black" points="151.99,-84.8 24.01,-84.8 24.01,-48.8 151.99,-48.8 151.99,-84.8"/>
<text text-anchor="middle" x="88" y="-62.6" font-family="Times,serif" font-size="14.00">WeightsComponent</text>
</g>
<!-- WeightsModule -->
<g id="node2" class="node">
<title>WeightsModule</title>
<polygon fill="#8dd3c7" stroke="black" points="305.21,-149.8 302.21,-153.8 281.21,-153.8 278.21,-149.8 198.79,-149.8 198.79,-113.8 305.21,-113.8 305.21,-149.8"/>
<text text-anchor="middle" x="252" y="-127.6" font-family="Times,serif" font-size="14.00">WeightsModule</text>
</g>
<!-- WeightsComponent&#45;&gt;WeightsModule -->
<g id="edge1" class="edge">
<title>WeightsComponent&#45;&gt;WeightsModule</title>
<path fill="none" stroke="black" d="M88,-84.91C88,-104.14 88,-131.8 88,-131.8 88,-131.8 188.75,-131.8 188.75,-131.8"/>
<polygon fill="black" stroke="black" points="188.75,-135.3 198.75,-131.8 188.75,-128.3 188.75,-135.3"/>
</g>
<!-- FindlySharedModule -->
<g id="node3" class="node">
<title>FindlySharedModule</title>
<polygon fill="#8dd3c7" stroke="black" points="480.49,-84.8 477.49,-88.8 456.49,-88.8 453.49,-84.8 345.51,-84.8 345.51,-48.8 480.49,-48.8 480.49,-84.8"/>
<text text-anchor="middle" x="413" y="-62.6" font-family="Times,serif" font-size="14.00">FindlySharedModule</text>
</g>
<!-- FindlySharedModule&#45;&gt;WeightsModule -->
<g id="edge2" class="edge">
<title>FindlySharedModule&#45;&gt;WeightsModule</title>
<path fill="none" stroke="black" d="M413,-84.91C413,-104.14 413,-131.8 413,-131.8 413,-131.8 315.16,-131.8 315.16,-131.8"/>
<polygon fill="black" stroke="black" points="315.16,-128.3 305.16,-131.8 315.16,-135.3 315.16,-128.3"/>
</g>
<!-- WeightsRoutingModule -->
<g id="node4" class="node">
<title>WeightsRoutingModule</title>
<polygon fill="#8dd3c7" stroke="black" points="327.82,-84.8 324.82,-88.8 303.82,-88.8 300.82,-84.8 176.18,-84.8 176.18,-48.8 327.82,-48.8 327.82,-84.8"/>
<text text-anchor="middle" x="252" y="-62.6" font-family="Times,serif" font-size="14.00">WeightsRoutingModule</text>
</g>
<!-- WeightsRoutingModule&#45;&gt;WeightsModule -->
<g id="edge3" class="edge">
<title>WeightsRoutingModule&#45;&gt;WeightsModule</title>
<path fill="none" stroke="black" d="M252,-84.91C252,-84.91 252,-103.79 252,-103.79"/>
<polygon fill="black" stroke="black" points="248.5,-103.79 252,-113.79 255.5,-103.79 248.5,-103.79"/>
</g>
</g>
</svg>
