<?xml version="1.0" encoding="UTF-8" standalone="no"?>
<!DOCTYPE svg PUBLIC "-//W3C//DTD SVG 1.1//EN"
 "http://www.w3.org/Graphics/SVG/1.1/DTD/svg11.dtd">
<!-- Generated by graphviz version 5.0.0 (20220707.1540)
 -->
<!-- Title: dependencies Pages: 1 -->
<svg width="512pt" height="174pt"
 viewBox="0.00 0.00 512.00 173.80" xmlns="http://www.w3.org/2000/svg" xmlns:xlink="http://www.w3.org/1999/xlink">
<g id="graph0" class="graph" transform="scale(1 1) rotate(0) translate(4 169.8)">
<title>dependencies</title>
<polygon fill="white" stroke="transparent" points="-4,4 -4,-169.8 508,-169.8 508,4 -4,4"/>
<text text-anchor="middle" x="252" y="-8.2" font-family="sans-serif" font-size="14.00">dependencies</text>
<g id="clust1" class="cluster">
<title>cluster_WeightsModule</title>
<polygon fill="none" stroke="black" stroke-dasharray="1,5" points="8,-32.8 8,-157.8 496,-157.8 496,-32.8 8,-32.8"/>
</g>
<g id="clust2" class="cluster">
<title>cluster_WeightsModule_declarations</title>
<polygon fill="none" stroke="black" points="344,-40.8 344,-92.8 488,-92.8 488,-40.8 344,-40.8"/>
</g>
<g id="clust4" class="cluster">
<title>cluster_WeightsModule_imports</title>
<polygon fill="none" stroke="black" points="16,-40.8 16,-92.8 336,-92.8 336,-40.8 16,-40.8"/>
</g>
<!-- WeightsComponent -->
<g id="node1" class="node">
<title>WeightsComponent</title>
<polygon fill="#ffffb3" stroke="black" points="479.99,-84.8 352.01,-84.8 352.01,-48.8 479.99,-48.8 479.99,-84.8"/>
<text text-anchor="middle" x="416" y="-62.6" font-family="Times,serif" font-size="14.00">WeightsComponent</text>
</g>
<!-- WeightsModule -->
<g id="node2" class="node">
<title>WeightsModule</title>
<polygon fill="#8dd3c7" stroke="black" points="314.21,-149.8 311.21,-153.8 290.21,-153.8 287.21,-149.8 207.79,-149.8 207.79,-113.8 314.21,-113.8 314.21,-149.8"/>
<text text-anchor="middle" x="261" y="-127.6" font-family="Times,serif" font-size="14.00">WeightsModule</text>
</g>
<!-- WeightsComponent&#45;&gt;WeightsModule -->
<g id="edge1" class="edge">
<title>WeightsComponent&#45;&gt;WeightsModule</title>
<path fill="none" stroke="black" d="M416,-84.91C416,-104.14 416,-131.8 416,-131.8 416,-131.8 324.34,-131.8 324.34,-131.8"/>
<polygon fill="black" stroke="black" points="324.34,-128.3 314.34,-131.8 324.34,-135.3 324.34,-128.3"/>
</g>
<!-- FindlySharedModule -->
<g id="node3" class="node">
<title>FindlySharedModule</title>
<polygon fill="#8dd3c7" stroke="black" points="328.49,-84.8 325.49,-88.8 304.49,-88.8 301.49,-84.8 193.51,-84.8 193.51,-48.8 328.49,-48.8 328.49,-84.8"/>
<text text-anchor="middle" x="261" y="-62.6" font-family="Times,serif" font-size="14.00">FindlySharedModule</text>
</g>
<!-- FindlySharedModule&#45;&gt;WeightsModule -->
<g id="edge2" class="edge">
<title>FindlySharedModule&#45;&gt;WeightsModule</title>
<path fill="none" stroke="black" d="M261,-84.91C261,-84.91 261,-103.79 261,-103.79"/>
<polygon fill="black" stroke="black" points="257.5,-103.79 261,-113.79 264.5,-103.79 257.5,-103.79"/>
</g>
<!-- WeightsRoutingModule -->
<g id="node4" class="node">
<title>WeightsRoutingModule</title>
<polygon fill="#8dd3c7" stroke="black" points="175.82,-84.8 172.82,-88.8 151.82,-88.8 148.82,-84.8 24.18,-84.8 24.18,-48.8 175.82,-48.8 175.82,-84.8"/>
<text text-anchor="middle" x="100" y="-62.6" font-family="Times,serif" font-size="14.00">WeightsRoutingModule</text>
</g>
<!-- WeightsRoutingModule&#45;&gt;WeightsModule -->
<g id="edge3" class="edge">
<title>WeightsRoutingModule&#45;&gt;WeightsModule</title>
<path fill="none" stroke="black" d="M100,-84.91C100,-104.14 100,-131.8 100,-131.8 100,-131.8 197.84,-131.8 197.84,-131.8"/>
<polygon fill="black" stroke="black" points="197.84,-135.3 207.84,-131.8 197.84,-128.3 197.84,-135.3"/>
</g>
</g>
</svg>
