<svg width="20" height="20" fill="none" xmlns="http://www.w3.org/2000/svg"><path d="M6.667 10.416a1.667 1.667 0 0 1-3.333 0C3.334 9.5 5.001 7.5 5.001 7.5s1.666 2 1.666 2.916Z" fill="#00C92C"/><path d="M17.546 11.183a2.077 2.077 0 0 1-2.896.53L8.55 7.5 5.93 5.69l2.308-3.46c.01.004.02.01.03.017L15.874 7.5l1.142.787a2.08 2.08 0 0 1 .53 2.896Z" fill="#35C1F1"/><path d="M17.547 11.183a2.078 2.078 0 0 1-2.896.53L8.55 7.5h7.325l1.141.787a2.08 2.08 0 0 1 .53 2.896Z" fill="#00C92C"/><path d="M5.832 6.667a.833.833 0 0 1-.689-1.301l.096-.142 2.398-3.6a.833.833 0 0 1 1.392.918l-.096.146L6.523 6.3a.833.833 0 0 1-.69.366Z" fill="#50E6FF"/><path d="M15.833 11.25a.833.833 0 1 0 0-1.667.833.833 0 0 0 0 1.667Zm-1.666-2.083a.417.417 0 1 0 0-.833.417.417 0 0 0 0 .833Z" fill="#9AF5B2"/><path d="M10.093 14.166a.212.212 0 0 0-.197.146 1.656 1.656 0 0 1-2.542.783.206.206 0 0 0-.293.06 2.493 2.493 0 0 1-4.49-.824.208.208 0 0 0-.2-.165h-.704a.417.417 0 0 0-.417.417v2.5a.833.833 0 0 0 .833.834h15.834a.833.833 0 0 0 .833-.834v-2.5a.417.417 0 0 0-.417-.417h-8.24Z" fill="url(#a)"/><defs><linearGradient id="a" x1="8.352" y1="11.341" x2="12.971" y2="24.033" gradientUnits="userSpaceOnUse"><stop stop-color="#6D6D6D"/><stop offset=".126" stop-color="#626262"/><stop offset=".987" stop-color="#464646"/><stop offset=".998" stop-color="#454545"/></linearGradient></defs></svg>