<svg width="35" height="38" fill="none" xmlns="http://www.w3.org/2000/svg"><path d="M11.667 19.834c0 .82-.307 1.607-.854 2.186a2.835 2.835 0 0 1-2.062.906 2.836 2.836 0 0 1-2.063-.906 3.189 3.189 0 0 1-.854-2.186c0-1.7 2.917-5.41 2.917-5.41s2.916 3.71 2.916 5.41Z" fill="#00C92C"/><path d="M30.706 21.257a3.741 3.741 0 0 1-1.02 1.05 3.518 3.518 0 0 1-1.321.557 3.46 3.46 0 0 1-1.422-.025 3.533 3.533 0 0 1-1.305-.6l-10.675-7.815-4.586-3.355 4.04-6.423a.182.182 0 0 1 .05.03l13.315 9.748 1.998 1.46c.394.289.73.656.99 1.082.26.426.438.902.524 1.401.085.5.078 1.011-.023 1.507a3.97 3.97 0 0 1-.565 1.383Z" fill="#35C1F1"/><path d="M30.706 21.257a3.741 3.741 0 0 1-1.02 1.05 3.517 3.517 0 0 1-1.322.557 3.46 3.46 0 0 1-1.422-.025 3.532 3.532 0 0 1-1.304-.6l-10.675-7.815h12.819l1.998 1.46c.393.289.73.656.99 1.082.259.426.437.902.523 1.401a4.087 4.087 0 0 1-.022 1.507 3.989 3.989 0 0 1-.565 1.383Z" fill="#00C92C"/><path d="M10.207 12.878c-.265 0-.525-.077-.752-.222a1.512 1.512 0 0 1-.535-.6A1.623 1.623 0 0 1 9 10.464l.168-.263 4.196-6.677c.214-.34.546-.578.924-.66.378-.08.771 0 1.093.225.322.225.547.576.626.976.078.4.004.818-.207 1.16l-.168.27-4.218 6.703a1.49 1.49 0 0 1-.524.5 1.4 1.4 0 0 1-.684.179Z" fill="#50E6FF"/><path d="M27.708 21.38c.806 0 1.459-.692 1.459-1.546 0-.853-.653-1.545-1.459-1.545-.805 0-1.458.692-1.458 1.545 0 .854.653 1.546 1.458 1.546Zm-2.916-3.864c.402 0 .729-.346.729-.773 0-.427-.327-.773-.73-.773-.402 0-.729.346-.729.773 0 .427.327.773.73.773Z" fill="#9AF5B2"/><path d="M17.663 26.791a.357.357 0 0 0-.213.077.392.392 0 0 0-.132.193c-.15.453-.399.861-.725 1.193a2.868 2.868 0 0 1-1.154.72 2.74 2.74 0 0 1-1.336.093 2.814 2.814 0 0 1-1.233-.553.35.35 0 0 0-.28-.06.352.352 0 0 0-.133.06.377.377 0 0 0-.1.113 4.428 4.428 0 0 1-1.926 1.67 4.136 4.136 0 0 1-2.474.283 4.28 4.28 0 0 1-2.218-1.197 4.698 4.698 0 0 1-1.24-2.287.39.39 0 0 0-.125-.218.352.352 0 0 0-.226-.087H2.917a.71.71 0 0 0-.516.226.797.797 0 0 0-.213.547v4.638c0 .41.153.803.427 1.093.273.29.644.453 1.03.453h27.71c.386 0 .757-.163 1.03-.453.274-.29.428-.683.428-1.093v-4.638a.797.797 0 0 0-.214-.547.709.709 0 0 0-.516-.226h-14.42Z" fill="url(#a)"/><defs><linearGradient id="a" x1="14.615" y1="21.55" x2="23.57" y2="44.759" gradientUnits="userSpaceOnUse"><stop stop-color="#6D6D6D"/><stop offset=".126" stop-color="#626262"/><stop offset=".987" stop-color="#464646"/><stop offset=".998" stop-color="#454545"/></linearGradient></defs></svg>