<svg width="36" height="39" fill="none" xmlns="http://www.w3.org/2000/svg"><path d="M31.5 6.139V33.17c0 .879-.671 1.59-1.5 1.59h-3.75V4.55H30c.829 0 1.5.711 1.5 1.59Z" fill="url(#a)"/><path d="M30 6.139V33.17c0 .879-.671 1.59-1.5 1.59H24V4.55h4.5c.829 0 1.5.711 1.5 1.59Z" fill="url(#b)"/><path d="M9.75 6.139V33.17c0 .879.671 1.59 1.5 1.59H12V4.55h-.75c-.829 0-1.5.711-1.5 1.59Z" fill="url(#c)"/><path d="M27 4.549H12V34.76h15c.829 0 1.5-.712 1.5-1.59V6.138c0-.879-.671-1.59-1.5-1.59Z" fill="url(#d)"/><path opacity=".05" d="M23.49 7.729H9.75v27.032h13.74c1.524 0 2.76-1.31 2.76-2.927V10.656c0-1.617-1.236-2.927-2.76-2.927Z" fill="#000"/><path opacity=".07" d="M23.37 8.524H9.75V34.76h13.62c1.177 0 2.13-1.01 2.13-2.257V10.781c0-1.246-.953-2.257-2.13-2.257Z" fill="#000"/><path d="M24.75 10.91v22.26c0 .879-.671 1.59-1.5 1.59H19.5V9.32h3.75c.829 0 1.5.71 1.5 1.59Z" fill="#1783BD"/><path d="M23.25 10.91v22.26c0 .879-.671 1.59-1.5 1.59h-4.5V9.32h4.5c.829 0 1.5.71 1.5 1.59Z" fill="url(#e)"/><path d="M4.5 10.91v22.26c0 .879.671 1.59 1.5 1.59h.75V9.32H6c-.829 0-1.5.71-1.5 1.59Z" fill="url(#f)"/><path d="M20.25 9.32H6.75v25.44h13.5c.829 0 1.5-.711 1.5-1.59V10.91c0-.88-.671-1.59-1.5-1.59Z" fill="url(#g)"/><path d="M18 17.27h-7.5v1.59H18v-1.59Z" fill="#1B9DE2"/><defs><linearGradient id="a" x1="26.25" y1="19.655" x2="31.5" y2="19.655" gradientUnits="userSpaceOnUse"><stop stop-color="#7F22E2"/><stop offset="1" stop-color="#B133F0"/></linearGradient><linearGradient id="b" x1="26.979" y1="19.655" x2="29.335" y2="19.655" gradientUnits="userSpaceOnUse"><stop offset=".441" stop-color="#999998"/><stop offset=".653" stop-color="#C1C1C0"/><stop offset=".88" stop-color="#E5E5E5"/><stop offset="1" stop-color="#F3F3F3"/></linearGradient><linearGradient id="c" x1="7.103" y1="8.107" x2="16.533" y2="32.343" gradientUnits="userSpaceOnUse"><stop stop-color="#6F01D0"/><stop offset="1" stop-color="#51189C"/></linearGradient><linearGradient id="d" x1="15.2" y1="5.724" x2="26.339" y2="34.35" gradientUnits="userSpaceOnUse"><stop stop-color="#B133F0"/><stop offset="1" stop-color="#9F22E2"/></linearGradient><linearGradient id="e" x1="20.229" y1="22.041" x2="22.585" y2="22.041" gradientUnits="userSpaceOnUse"><stop offset=".441" stop-color="#999998"/><stop offset=".653" stop-color="#C1C1C0"/><stop offset=".88" stop-color="#E5E5E5"/><stop offset="1" stop-color="#F3F3F3"/></linearGradient><linearGradient id="f" x1="2.482" y1="12.313" x2="10.444" y2="32.771" gradientUnits="userSpaceOnUse"><stop stop-color="#0176D0"/><stop offset="1" stop-color="#16538C"/></linearGradient><linearGradient id="g" x1="9.908" y1="10.152" x2="19.397" y2="34.539" gradientUnits="userSpaceOnUse"><stop stop-color="#33BEF0"/><stop offset="1" stop-color="#22A5E2"/></linearGradient></defs></svg>