<svg width="36" height="39" fill="none" xmlns="http://www.w3.org/2000/svg"><path d="M18.75 4.074v5.963c0 .22-.168.398-.375.398h-.75c-.207 0-.375-.178-.375-.398V4.074h1.5Zm6.044 3.732 1.88-1.993a.446.446 0 0 1 .656 0l1.88 1.993c.083.09.023.244-.097.244h-4.225c-.12 0-.18-.155-.094-.244ZM9 10.435v5.963a.387.387 0 0 1-.375.397h-.75c-.207 0-.375-.178-.375-.398v-5.962H9Z" fill="#FF784B"/><path d="M31.5 16v15.9c0 .44-.336.796-.75.796H22.5V15.205h8.25c.414 0 .75.356.75.795Z" fill="#FFBCA5"/><path d="M22.5 12.82v19.876h-9V12.82c0-.439.336-.795.75-.795h7.5c.414 0 .75.356.75.795Z" fill="#FF784B"/><path d="M13.5 18.385v14.31H5.25c-.414 0-.75-.355-.75-.794V19.18c0-.44.336-.796.75-.796h8.25Z" fill="#803C25"/><path d="m15.794 4.625 1.88-1.992a.446.446 0 0 1 .656 0l1.88 1.992c.083.09.023.244-.097.244h-4.225c-.12 0-.18-.154-.094-.244Zm11.956 2.63v5.962c0 .22-.168.398-.375.398h-.75c-.207 0-.375-.178-.375-.398V7.255h1.5ZM6.044 10.986l1.88-1.993a.446.446 0 0 1 .656 0l1.88 1.993c.083.09.023.244-.097.244H6.139c-.12 0-.18-.155-.095-.244Z" fill="#FF784B"/></svg>