<svg width="46" height="50" fill="none" xmlns="http://www.w3.org/2000/svg"><path d="M38.333 29.013H7.666v11.174c0 2.245 6.865 4.064 15.333 4.064 8.47 0 15.334-1.82 15.334-4.064V29.013Z" fill="url(#a)"/><path d="M38.333 18.854H7.666v11.174c0 2.245 6.865 4.064 15.333 4.064 8.47 0 15.334-1.82 15.334-4.064V18.854Z" fill="url(#b)"/><path d="M38.333 8.695H7.666v10.667c0 1.963 6.865 3.555 15.333 3.555 8.47 0 15.334-1.592 15.334-3.555V8.695Z" fill="url(#c)"/><path d="M23 11.742c8.468 0 15.333-1.364 15.333-3.047s-6.865-3.048-15.334-3.048c-8.468 0-15.333 1.365-15.333 3.048s6.865 3.047 15.333 3.047Z" fill="url(#d)"/><defs><linearGradient id="a" x1="7.666" y1="36.632" x2="38.333" y2="36.632" gradientUnits="userSpaceOnUse"><stop stop-color="#11408A"/><stop offset="1" stop-color="#103F8F"/></linearGradient><linearGradient id="b" x1="7.666" y1="26.473" x2="38.333" y2="26.473" gradientUnits="userSpaceOnUse"><stop stop-color="#1D59B3"/><stop offset="1" stop-color="#195BBC"/></linearGradient><linearGradient id="c" x1="7.666" y1="15.806" x2="38.333" y2="15.806" gradientUnits="userSpaceOnUse"><stop stop-color="#3079D6"/><stop offset="1" stop-color="#297CD2"/></linearGradient><linearGradient id="d" x1="7.666" y1="8.695" x2="38.333" y2="8.695" gradientUnits="userSpaceOnUse"><stop stop-color="#42A3F2"/><stop offset="1" stop-color="#42A4EB"/></linearGradient></defs></svg>