<svg width="36" height="39" fill="none" xmlns="http://www.w3.org/2000/svg"><g clip-path="url(#a)"><path d="M3 31.017V12.73h30v18.287c0 .874-.675 1.59-1.5 1.59h-27c-.825 0-1.5-.716-1.5-1.59Z" fill="#50E6FF"/><path d="M33 8.755v3.975H3V8.755c0-.874.675-1.59 1.5-1.59h27c.825 0 1.5.716 1.5 1.59Z" fill="url(#b)"/><path d="M12.375 11.14h18.75a.387.387 0 0 0 .375-.397v-1.59c0-.22-.168-.398-.375-.398h-18.75c-.207 0-.375.178-.375.398v1.59c0 .22.168.397.375.397Z" fill="url(#c)"/><path d="M5.625 11.14c.621 0 1.125-.534 1.125-1.192 0-.659-.504-1.193-1.125-1.193S4.5 9.29 4.5 9.948s.504 1.192 1.125 1.192Z" fill="url(#d)"/><path d="M9.375 11.14c.621 0 1.125-.534 1.125-1.192 0-.659-.504-1.193-1.125-1.193S8.25 9.29 8.25 9.948s.504 1.192 1.125 1.192Z" fill="url(#e)"/><path d="m33.744 35.17-1.326 1.405 2.201 2.334a.18.18 0 0 0 .266 0l1.06-1.124a.207.207 0 0 0 0-.282l-2.201-2.333Z" fill="#199BE2"/><path d="m32.1 33.428-1.325 1.405 1.644 1.742 1.326-1.405-1.644-1.742Z" fill="url(#f)"/><path d="M27.75 22.271c-4.136 0-7.5 3.567-7.5 7.95 0 .831.122 1.632.346 2.386H31.5c.825 0 1.5-.716 1.5-1.59v-6.463c-1.354-1.41-3.207-2.283-5.25-2.283Z" fill="url(#g)"/><path d="M27.75 36.582c3.314 0 6-2.848 6-6.36 0-3.513-2.686-6.36-6-6.36s-6 2.847-6 6.36c0 3.512 2.686 6.36 6 6.36Z" fill="url(#h)"/></g><defs><linearGradient id="b" x1="3.461" y1="6.959" x2="32.328" y2="12.496" gradientUnits="userSpaceOnUse"><stop stop-color="#0077D2"/><stop offset="1" stop-color="#0B59A2"/></linearGradient><linearGradient id="c" x1="12" y1="9.948" x2="31.5" y2="9.948" gradientUnits="userSpaceOnUse"><stop stop-color="#7DD8F3"/><stop offset="1" stop-color="#45B0D0"/></linearGradient><linearGradient id="d" x1="5.063" y1="9.086" x2="6.101" y2="10.502" gradientUnits="userSpaceOnUse"><stop stop-color="#75DAFF"/><stop offset="1" stop-color="#49BEF1"/></linearGradient><linearGradient id="e" x1="8.813" y1="9.086" x2="9.851" y2="10.502" gradientUnits="userSpaceOnUse"><stop stop-color="#75DAFF"/><stop offset="1" stop-color="#49BEF1"/></linearGradient><linearGradient id="h" x1="23.591" y1="25.813" x2="32.492" y2="34.209" gradientUnits="userSpaceOnUse"><stop stop-color="#A3FFFF"/><stop offset=".223" stop-color="#9DFBFF"/><stop offset=".53" stop-color="#8BF1FF"/><stop offset=".885" stop-color="#6EE0FF"/><stop offset="1" stop-color="#63DAFF"/></linearGradient><radialGradient id="f" cx="0" cy="0" r="1" gradientUnits="userSpaceOnUse" gradientTransform="matrix(7.3515 0 0 7.79303 27.76 30.26)"><stop offset=".693" stop-color="#006185"/><stop offset=".921" stop-color="#35C1F1"/></radialGradient><radialGradient id="g" cx="0" cy="0" r="1" gradientUnits="userSpaceOnUse" gradientTransform="matrix(7.24125 0 0 7.67616 27.702 30.154)"><stop/><stop offset="1" stop-opacity="0"/></radialGradient><clipPath id="a"><path fill="#fff" transform="translate(0 .805)" d="M0 0h36v38.162H0z"/></clipPath></defs></svg>