<svg width="40" height="40" fill="none" xmlns="http://www.w3.org/2000/svg"><path d="M20.834 19.167 3.334 20c0 9.204 7.463 16.667 16.667 16.667l.833-17.5Z" fill="url(#a)"/><path d="m19.166 20.833 17.5-.833c0-9.204-7.462-16.667-16.667-16.667l-.833 17.5Z" fill="url(#b)"/><path d="M20 20H3.335c0-9.204 7.463-16.667 16.667-16.667V20Z" fill="url(#c)"/><path d="M20 20h16.667c0 9.204-7.463 16.667-16.667 16.667V20Z" fill="url(#d)"/><path opacity=".05" d="M31.049 8.95c.67.672.83 1.654.406 2.503l-5.71 11.42a6.463 6.463 0 0 1-2.873 2.872l-11.42 5.71a2.139 2.139 0 0 1-2.502-.406 2.138 2.138 0 0 1-.406-2.502l5.71-11.42a6.459 6.459 0 0 1 2.872-2.873l11.42-5.71a2.2 2.2 0 0 1 .98-.235c.558 0 1.101.22 1.523.641Z" fill="#000"/><path opacity=".05" d="M30.754 9.245a1.73 1.73 0 0 1 .329 2.022l-5.71 11.42a6.045 6.045 0 0 1-2.687 2.686l-11.42 5.71a1.728 1.728 0 0 1-2.022-.329 1.73 1.73 0 0 1-.328-2.021l5.71-11.42a6.045 6.045 0 0 1 2.687-2.687l11.42-5.71c.255-.127.525-.19.791-.19.45.002.89.18 1.23.52Z" fill="#000"/><path d="m22.5 25-11.42 5.71c-1.148.573-2.364-.643-1.79-1.79L15 17.5a5.59 5.59 0 0 1 2.5-2.5l11.42-5.71c1.146-.573 2.362.644 1.79 1.79L25 22.5a5.59 5.59 0 0 1-2.5 2.5Z" fill="url(#e)"/><path opacity=".05" d="M29.526 31.69a2.19 2.19 0 0 1-.98-.235l-11.42-5.71a6.458 6.458 0 0 1-2.873-2.873l-5.71-11.42A2.14 2.14 0 0 1 8.95 8.95a2.138 2.138 0 0 1 2.503-.406l11.42 5.71a6.459 6.459 0 0 1 2.872 2.873l5.71 11.42a2.14 2.14 0 0 1-.405 2.502 2.143 2.143 0 0 1-1.523.641Z" fill="#000"/><path opacity=".05" d="M29.524 31.273a1.77 1.77 0 0 1-.792-.19l-11.42-5.71a6.045 6.045 0 0 1-2.687-2.687l-5.709-11.42a1.728 1.728 0 0 1 .329-2.02 1.729 1.729 0 0 1 2.021-.33l11.42 5.71a6.045 6.045 0 0 1 2.687 2.687l5.71 11.42a1.73 1.73 0 0 1-.328 2.022 1.74 1.74 0 0 1-1.231.518Z" fill="#000"/><path d="M22.5 15 11.08 9.29c-1.148-.573-2.364.643-1.79 1.79L15 22.5a5.59 5.59 0 0 0 2.5 2.5l11.42 5.71c1.146.573 2.362-.643 1.79-1.79L25 17.5a5.591 5.591 0 0 0-2.5-2.5Z" fill="url(#f)"/><path d="M20 22.5a2.5 2.5 0 1 0 0-5 2.5 2.5 0 0 0 0 5Z" fill="url(#g)"/><defs><linearGradient id="a" x1="11.766" y1="18.513" x2="15.118" y2="37.528" gradientUnits="userSpaceOnUse"><stop stop-color="#0176D3"/><stop offset=".998" stop-color="#185899"/></linearGradient><linearGradient id="b" x1="24.882" y1="2.473" x2="28.234" y2="21.487" gradientUnits="userSpaceOnUse"><stop stop-color="#4FE2FF"/><stop offset=".998" stop-color="#27ADED"/></linearGradient><linearGradient id="c" x1="10.449" y1="4.758" x2="13.344" y2="21.174" gradientUnits="userSpaceOnUse"><stop stop-color="#20A3E7"/><stop offset=".998" stop-color="#1287D9"/></linearGradient><linearGradient id="d" x1="26.657" y1="18.826" x2="29.552" y2="35.242" gradientUnits="userSpaceOnUse"><stop stop-color="#1795E0"/><stop offset=".998" stop-color="#218CD0"/></linearGradient><linearGradient id="e" x1="18.427" y1="11.08" x2="21.572" y2="28.92" gradientUnits="userSpaceOnUse"><stop offset=".002" stop-color="#CDEFFD"/><stop offset="1" stop-color="#C1D8EF"/></linearGradient><linearGradient id="f" x1="17.852" y1="7.823" x2="22.146" y2="32.176" gradientUnits="userSpaceOnUse"><stop stop-color="#fff"/><stop offset=".998" stop-color="#DEDCDD"/></linearGradient><linearGradient id="g" x1="19.566" y1="17.538" x2="20.434" y2="22.462" gradientUnits="userSpaceOnUse"><stop stop-color="#28A7E1"/><stop offset=".998" stop-color="#156FBB"/></linearGradient></defs></svg>