<svg width="20" height="20" fill="none" xmlns="http://www.w3.org/2000/svg"><path d="M13.75 10.833a.833.833 0 0 1-.827-.736l-.833-7.084a.833.833 0 1 1 1.655-.194l.834 7.083a.833.833 0 0 1-.83.931Z" fill="#FFC430"/><path d="M12.293 10.834c-.39 0-.764-.22-.942-.597L7.6 2.321a1.042 1.042 0 0 1 1.882-.892l3.75 7.916a1.042 1.042 0 0 1-.94 1.489Z" fill="#FFC430"/><path d="M11.458 11.25a1.04 1.04 0 0 1-.736-.305l-3.66-3.659-4.056-2.434a1.041 1.041 0 1 1 1.072-1.786l4.167 2.5c.073.043.14.096.2.156l3.75 3.75a1.04 1.04 0 0 1-.737 1.778Z" fill="#FFC430"/><path d="M3.542 12.577a1.04 1.04 0 0 1-.737-1.778l2.16-2.16a1.04 1.04 0 0 1 .737-.306h5.76a1.042 1.042 0 1 1 0 2.084H6.134l-1.855 1.855a1.04 1.04 0 0 1-.737.305Z" fill="#FFC430"/><path d="M13.38 17.5H5.99a1.25 1.25 0 0 1-.894-.378l-2.478-2.54a.417.417 0 0 1 .004-.586l.16-.16a2.249 2.249 0 0 1 3.176-.004l.756.751h6.666V17.5Z" fill="url(#a)"/><path d="m15.602 11.206-1.436-2.873h-7.5v2.084h1.16c1.088 0 2.06.795 2.163 1.878a2.084 2.084 0 0 1-2.073 2.288h-.833V17.5h10.416c.46 0 .834-.373.834-.833V12.5a.833.833 0 0 0-.834-.833h-1.151a.834.834 0 0 1-.746-.461Z" fill="url(#b)"/><defs><linearGradient id="a" x1="7.94" y1="8.262" x2="7.94" y2="17.507" gradientUnits="userSpaceOnUse"><stop stop-color="#FFC430"/><stop offset=".41" stop-color="#FEC130"/><stop offset=".72" stop-color="#FCB730"/><stop offset=".998" stop-color="#F7A72F"/><stop offset="1" stop-color="#F7A72F"/></linearGradient><linearGradient id="b" x1="12.499" y1="8.311" x2="12.499" y2="17.701" gradientUnits="userSpaceOnUse"><stop stop-color="#FFC430"/><stop offset=".41" stop-color="#FEC130"/><stop offset=".72" stop-color="#FCB730"/><stop offset=".998" stop-color="#F7A72F"/><stop offset="1" stop-color="#F7A72F"/></linearGradient></defs></svg>