<svg width="36" height="36" fill="none" xmlns="http://www.w3.org/2000/svg"><path d="M4.901 13.965a6.16 6.16 0 0 1 0-8.702A6.113 6.113 0 0 1 9.252 3.46c1.644 0 3.19.641 4.352 1.803l-1.06 1.06A4.623 4.623 0 0 0 9.252 4.96a4.623 4.623 0 0 0-3.29 1.363 4.66 4.66 0 0 0 0 6.581L4.9 13.964Z" fill="url(#a)"/><path d="M9.252 33.264a6.117 6.117 0 0 1-4.351-1.802 6.16 6.16 0 0 1 0-8.703l1.06 1.061a4.66 4.66 0 0 0 0 6.581 4.623 4.623 0 0 0 3.291 1.363 4.626 4.626 0 0 0 3.291-1.363l1.061 1.06a6.117 6.117 0 0 1-4.351 1.803Z" fill="url(#b)"/><path d="m31.1 13.965-1.061-1.06a4.66 4.66 0 0 0 0-6.582 4.623 4.623 0 0 0-3.291-1.363 4.626 4.626 0 0 0-3.291 1.363l-1.06-1.06a6.113 6.113 0 0 1 4.351-1.803c1.644 0 3.189.641 4.351 1.803a6.16 6.16 0 0 1 0 8.702Z" fill="url(#c)"/><path d="M26.748 33.264a6.117 6.117 0 0 1-4.352-1.802l1.061-1.06a4.623 4.623 0 0 0 3.291 1.362 4.626 4.626 0 0 0 3.291-1.363 4.66 4.66 0 0 0 0-6.581l1.06-1.06a6.16 6.16 0 0 1 0 8.702 6.117 6.117 0 0 1-4.351 1.802Z" fill="url(#d)"/><path d="M18 3.75c-7.873 0-14.256 6.383-14.256 14.256S10.127 32.261 18 32.261c7.874 0 14.256-6.382 14.256-14.256C32.256 10.132 25.874 3.75 18 3.75Zm0 22.511A8.256 8.256 0 1 1 18 9.75a8.256 8.256 0 0 1 0 16.512Z" fill="url(#e)"/><path d="M18 9.75a8.21 8.21 0 0 1 3.75.908V4.265A14.225 14.225 0 0 0 18 3.75c-1.3 0-2.553.189-3.75.515v6.393A8.21 8.21 0 0 1 18 9.75Zm0 16.511a8.21 8.21 0 0 1-3.75-.907v6.392c1.197.326 2.45.515 3.75.515 1.3 0 2.553-.189 3.75-.515v-6.392a8.21 8.21 0 0 1-3.75.907Zm-8.256-8.255a8.21 8.21 0 0 1 .908-3.75H4.259a14.225 14.225 0 0 0-.515 3.75c0 1.3.19 2.553.515 3.75h6.393a8.21 8.21 0 0 1-.908-3.75Zm21.998-3.75H25.35a8.21 8.21 0 0 1 0 7.5h6.392c.326-1.197.515-2.45.515-3.75 0-1.3-.19-2.554-.515-3.75Z" fill="#E92D3B"/><path d="M18 7.506c-5.799 0-10.5 4.701-10.5 10.5 0 5.8 4.701 10.5 10.5 10.5s10.5-4.7 10.5-10.5c0-5.799-4.701-10.5-10.5-10.5Zm0 18.755A8.256 8.256 0 1 1 18 9.75a8.256 8.256 0 0 1 0 16.512Z" fill="url(#f)"/><defs><linearGradient id="a" x1="2.994" y1="3.553" x2="9.026" y2="9.394" gradientUnits="userSpaceOnUse"><stop stop-color="#FEDE00"/><stop offset=".311" stop-color="#FECC00"/><stop offset=".634" stop-color="#FFB700"/><stop offset=".826" stop-color="#EBA600"/><stop offset="1" stop-color="#C28200"/></linearGradient><linearGradient id="b" x1=".907" y1="35.455" x2="8.926" y2="27.436" gradientUnits="userSpaceOnUse"><stop stop-color="#FEDE00"/><stop offset=".311" stop-color="#FECC00"/><stop offset=".634" stop-color="#FFB700"/><stop offset=".826" stop-color="#EBA600"/><stop offset="1" stop-color="#C28200"/></linearGradient><linearGradient id="c" x1="33.532" y1="2.83" x2="27.158" y2="9.203" gradientUnits="userSpaceOnUse"><stop stop-color="#FEDE00"/><stop offset=".311" stop-color="#FECC00"/><stop offset=".634" stop-color="#FFB700"/><stop offset=".826" stop-color="#EBA600"/><stop offset="1" stop-color="#C28200"/></linearGradient><linearGradient id="d" x1="33.186" y1="33.548" x2="27.057" y2="27.419" gradientUnits="userSpaceOnUse"><stop stop-color="#FEDE00"/><stop offset=".311" stop-color="#FECC00"/><stop offset=".634" stop-color="#FFB700"/><stop offset=".826" stop-color="#EBA600"/><stop offset="1" stop-color="#C28200"/></linearGradient><radialGradient id="e" cx="0" cy="0" r="1" gradientUnits="userSpaceOnUse" gradientTransform="translate(16.947 15.133) scale(25.9642)"><stop stop-color="#FAFAFB"/><stop offset=".293" stop-color="#F6F7F8"/><stop offset=".566" stop-color="#EBECEE"/><stop offset=".832" stop-color="#D8DCDF"/><stop offset="1" stop-color="#C8CDD1"/></radialGradient><radialGradient id="f" cx="0" cy="0" r="1" gradientUnits="userSpaceOnUse" gradientTransform="matrix(10.5 0 0 10.5 18 18.006)"><stop/><stop offset="1" stop-opacity="0"/></radialGradient></defs></svg>