<svg width="40" height="40" fill="none" xmlns="http://www.w3.org/2000/svg"><path d="M19.999 36.665c-9.204 0-16.667-7.462-16.667-16.667 0-9.204 7.462-16.666 16.667-16.666 9.204 0 16.666 7.462 16.666 16.666S29.203 36.665 20 36.665Z" fill="#09914A"/><path d="M19.997 19.998 8.096 8.332c6.443-6.572 16.996-6.677 23.569-.234L19.997 19.999Z" fill="url(#a)"/><path d="M19.999 34.165c7.824 0 14.166-6.343 14.166-14.167S27.823 5.832 20 5.832c-7.824 0-14.167 6.342-14.167 14.166 0 7.824 6.343 14.167 14.167 14.167Z" fill="#F2F2F2"/><path d="m29.197 14.404-.908-7.016a.685.685 0 0 1 .767-.766l7.015.907c.564.073.799.76.396 1.163L30.36 14.8a.684.684 0 0 1-1.163-.396Z" fill="#09914A"/><path d="M11.953 25.833v-1.652l1.3-1.458c1.89-2.062 3.123-3.551 3.131-5.102 0-.938-.537-1.623-1.64-1.623-.83 0-1.53.385-2.032.718l-.548-1.914c.663-.464 1.81-.9 3.062-.9 2.628 0 3.685 1.671 3.685 3.517 0 2.124-1.39 3.81-2.853 5.337l-.839.85v.036h3.874v2.191h-7.14Zm12.539 0v-2.77H20.08v-1.696l4.01-7.2h2.698v6.926h1.234v1.97h-1.234v2.77h-2.296Zm0-4.74v-2.41c0-.643.056-1.34.105-2.005h-.06a37.18 37.18 0 0 1-.911 1.934l-1.32 2.444-.004.036h2.19Z" fill="#E52030"/><defs><linearGradient id="a" x1="31.028" y1="8.541" x2="14.742" y2="12.748" gradientUnits="userSpaceOnUse"><stop stop-color="#F2F2F2"/><stop offset=".148" stop-color="#EEF1EF"/><stop offset=".282" stop-color="#E4ECE8"/><stop offset=".409" stop-color="#D1E4DA"/><stop offset=".533" stop-color="#B7DAC8"/><stop offset=".654" stop-color="#96CCB0"/><stop offset=".773" stop-color="#6DBB92"/><stop offset=".889" stop-color="#3EA770"/><stop offset="1" stop-color="#09914A"/></linearGradient></defs></svg>