<svg width="186" height="23" fill="none" xmlns="http://www.w3.org/2000/svg"><g clip-path="url(#a)"><path d="M23.141 6.133v15.334c0 .406-.162.796-.452 1.084-.29.288-.681.449-1.09.449H6.17a6.19 6.19 0 0 1-4.364-1.796A6.114 6.114 0 0 1 0 16.867V6.133c0-1.626.65-3.186 1.807-4.337A6.19 6.19 0 0 1 6.171 0h10.8a6.19 6.19 0 0 1 4.363 1.796 6.114 6.114 0 0 1 1.807 4.337Z" fill="#FAB900"/><path d="m17.741 16.1-2.43-2.415a5.282 5.282 0 0 0 .888-2.951c0-1.062-.317-2.1-.91-2.982a5.392 5.392 0 0 0-2.424-1.976 5.43 5.43 0 0 0-5.884 1.163 5.336 5.336 0 0 0-1.17 5.849c.408.98 1.1 1.818 1.988 2.408.888.59 1.932.905 3 .905a5.362 5.362 0 0 0 2.97-.882l2.43 2.415a1.094 1.094 0 0 0 1.542 0 1.081 1.081 0 0 0 0-1.534Zm-3.556-3.534a3.89 3.89 0 0 1-1.542 1.534 3.874 3.874 0 0 1-3.986-.178A3.839 3.839 0 0 1 7.235 12.2a3.812 3.812 0 0 1 .836-4.178 3.879 3.879 0 0 1 4.203-.831c.705.29 1.307.782 1.73 1.412a3.817 3.817 0 0 1 .18 3.962Z" fill="#fff"/><path d="M11.347 11.276a.773.773 0 0 1-1.319-.544.764.764 0 0 0-.226-.543.774.774 0 0 0-1.317.543c0 .454.137.898.391 1.276s.616.673 1.038.847a2.327 2.327 0 0 0 2.52-.498.764.764 0 0 0-.555-1.265.774.774 0 0 0-.532.184Z" fill="#fff"/><path d="M37.126 20.892c-4.29 0-7.274-2.3-7.645-5.926h3.48c.362 1.825 2.028 2.944 4.373 2.944 1.936 0 3.085-.767 3.085-2.078 0-1.042-.77-1.71-2.314-1.978l-2.908-.574c-3.386-.667-4.967-2.3-4.967-5.03 0-3.312 2.676-5.535 6.664-5.535 1.543 0 6.68.406 7.251 5.512h-3.479c-.223-1.25-1.033-2.66-3.54-2.66-2.006 0-3.248.897-3.248 2.338 0 1.442 1.28 1.925 2.67 2.208l2.198.445c3.718.767 5.307 2.223 5.307 4.853 0 3.327-2.716 5.481-6.927 5.481Zm15.327.024a6.384 6.384 0 0 1-4.716-1.806 6.277 6.277 0 0 1-1.895-4.657 6.168 6.168 0 0 1 .41-2.528 6.198 6.198 0 0 1 1.403-2.147 6.275 6.275 0 0 1 4.698-1.818c3.594 0 6.109 2.56 6.109 6.232.005.341-.013.682-.054 1.02h-9.35v.176a3.162 3.162 0 0 0 1.157 2.044c.634.51 1.44.757 2.253.693a2.513 2.513 0 0 0 2.206-.943h3.51c-.71 2.247-3.008 3.734-5.731 3.734Zm-.077-10.266a3.099 3.099 0 0 0-2.095.66 3.064 3.064 0 0 0-1.122 1.878l-.046.192h6.063v-.177a2.631 2.631 0 0 0-.875-1.875 2.666 2.666 0 0 0-1.964-.678h.039Zm13.576 10.133a6.273 6.273 0 0 1-4.375-1.91 6.197 6.197 0 0 1-1.742-4.423 6.099 6.099 0 0 1 1.705-4.467 6.203 6.203 0 0 1 4.412-1.896 6.292 6.292 0 0 1 3.472.966l.239.153v-.858h3.34v12.174H69.67v-.858l-.239.153a6.291 6.291 0 0 1-3.479.966Zm.602-9.967a3.512 3.512 0 0 0-2.472 1.101 3.472 3.472 0 0 0-.937 2.526 3.423 3.423 0 0 0 .95 2.494 3.463 3.463 0 0 0 2.459 1.07 3.706 3.706 0 0 0 3.085-1.494V12.35a3.66 3.66 0 0 0-3.085-1.526v-.008Zm9.202 9.707V8.35h3.34v1.617l.254-.237a5.999 5.999 0 0 1 4.15-1.572v3.136a5.994 5.994 0 0 0-4.366 1.84v7.405l-3.378-.016Zm15.164.294a6.436 6.436 0 0 1-4.526-1.864 6.33 6.33 0 0 1 0-9A6.437 6.437 0 0 1 90.92 8.09c3.209 0 5.708 1.994 6.17 4.877h-3.347a2.722 2.722 0 0 0-1.046-1.477 2.75 2.75 0 0 0-1.746-.501 3.305 3.305 0 0 0-2.413 1.017 3.262 3.262 0 0 0-.896 2.448 3.193 3.193 0 0 0 .89 2.445 3.233 3.233 0 0 0 2.419.99 2.704 2.704 0 0 0 1.748-.481 2.68 2.68 0 0 0 1.044-1.474h3.348c-.463 2.883-2.985 4.884-6.171 4.884Zm17.28-.293v-6.386c0-2.04-1.042-3.205-2.854-3.205a3.954 3.954 0 0 0-1.618.494c-.497.28-.927.663-1.259 1.124l-.039.046v7.927h-3.332V2.301h3.332v7.076l.255-.2a5.458 5.458 0 0 1 3.494-1.241c3.255 0 5.353 2.3 5.353 5.865v6.7l-3.332.023Zm19.592-.002-1.388-3.411h-8.285l-1.396 3.411h-3.695l7.552-17.518h3.355l7.529 17.518h-3.672Zm-8.408-6.524h5.755l-2.908-7.046-2.847 7.046Zm18.243 6.916c-1.997 0-5.399-.575-5.762-4.408h3.039c.247 1.227 1.173 1.855 2.746 1.855 1.389 0 2.315-.483 2.315-1.226 0-.598-.51-1.035-1.366-1.166l-2.7-.467c-1.334-.238-3.571-1.012-3.571-3.527s2.021-3.987 5.276-3.987c1.543 0 5.099.384 5.469 3.94h-3.024c-.146-.98-1.041-1.532-2.445-1.532s-2.013.659-2.013 1.219c0 .39.208 1.073 1.62 1.326l2.314.368c2.468.437 3.672 1.595 3.672 3.519-.062 2.53-2.168 4.086-5.57 4.086Zm12.566 0c-2.006 0-5.4-.575-5.762-4.408h3.031c.247 1.227 1.173 1.855 2.754 1.855 1.381 0 2.275-.483 2.275-1.226 0-.598-.509-1.035-1.357-1.166l-2.7-.467c-1.334-.238-3.571-1.012-3.571-3.527s2.021-3.987 5.276-3.987c1.543 0 5.099.384 5.469 3.94h-3.024c-.147-.98-1.049-1.532-2.445-1.532s-2.021.659-2.021 1.219c0 .39.216 1.073 1.627 1.326l2.315.368c2.468.437 3.671 1.595 3.671 3.519-.031 2.53-2.144 4.086-5.538 4.086Zm7.783-.392V8.347h3.34v12.175h-3.34Zm1.697-14.804a1.963 1.963 0 0 1-1.443-.53 1.93 1.93 0 0 1-.609-1.403c0-.536.215-1.05.597-1.43a2.04 2.04 0 0 1 1.44-.593c.54 0 1.058.213 1.439.593.382.38.597.894.597 1.43a1.934 1.934 0 0 1-2.021 1.933Zm9.372 15.196c-1.997 0-5.399-.575-5.754-4.408h3.031c.247 1.227 1.173 1.855 2.747 1.855 1.388 0 2.314-.483 2.314-1.226 0-.598-.509-1.035-1.366-1.166l-2.699-.467c-1.327-.238-3.564-1.012-3.564-3.527s2.021-3.987 5.268-3.987c1.543 0 5.099.384 5.469 3.94h-3.023c-.139-.98-1.042-1.532-2.446-1.532-1.404 0-2.013.659-2.013 1.219 0 .39.208 1.073 1.62 1.326l2.314.368c2.476.437 3.672 1.595 3.672 3.519-.062 2.53-2.168 4.086-5.57 4.086Zm13.77 0c-2.97 0-4.883-2.047-4.883-5.213v-4.6h-2.646V8.35h2.646V3.887h3.309v4.462h4.536v2.737h-4.536v4.6c0 1.41.856 2.215 2.36 2.215a8.604 8.604 0 0 0 1.998-.299l.425 2.799a9.313 9.313 0 0 1-3.209.513Z" fill="#222"/></g><defs><clipPath id="a"><path fill="#fff" d="M0 0h186v23H0z"/></clipPath></defs></svg>