<svg width="52" height="52" fill="none" xmlns="http://www.w3.org/2000/svg"><path d="M44.417 15.98 48.75 6.5s-5.417 1.083-7.47 8.613a9.157 9.157 0 0 0 3.137.866Z" fill="#199BE2"/><path d="M14.083 29.25a4.333 4.333 0 1 1-8.666 0 4.333 4.333 0 0 1 8.666 0Z" fill="url(#a)"/><path d="M24.917 33.583a4.333 4.333 0 1 1-8.666 0 4.333 4.333 0 0 1 8.666 0ZM7.583 44.959a1.625 1.625 0 1 1-3.25 0 1.625 1.625 0 0 1 3.25 0Zm36.834-29.25a1.625 1.625 0 1 1-3.25 0 1.625 1.625 0 0 1 3.25 0ZM33.583 30.333a4.333 4.333 0 1 1-8.666 0 4.333 4.333 0 0 1 8.666 0Z" fill="#35C1F1"/><path d="m7.055 46.158 11.362-9.324-.947-6.264L4.88 43.744l2.175 2.414Zm23.831-11.809-8.805 3.303-2.838-8.19 8.463-3.179 3.18 8.066Z" fill="#35C1F1"/><path d="m29.002 25.806-9.682 3.672a2.484 2.484 0 1 1-1.752-4.648l9.616-3.607a1.084 1.084 0 0 1 1.382.602l1.053 2.556a1.083 1.083 0 0 1-.617 1.425Z" fill="url(#b)"/><path d="m41.28 15.113-4.447 7.638-5.397 3.84 1.047 6.629 7.41-8.064a2.17 2.17 0 0 0 .352-.517l4.056-8.325-3.022-1.2Z" fill="#35C1F1"/><defs><linearGradient id="a" x1="9.75" y1="22.29" x2="9.75" y2="35.644" gradientUnits="userSpaceOnUse"><stop stop-color="#FFCF54"/><stop offset=".261" stop-color="#FDCB4D"/><stop offset=".639" stop-color="#F7C13A"/><stop offset="1" stop-color="#F0B421"/></linearGradient><linearGradient id="b" x1="21.854" y1="23.414" x2="24.662" y2="31.15" gradientUnits="userSpaceOnUse"><stop stop-color="#FED100"/><stop offset="1" stop-color="#E38101"/></linearGradient></defs></svg>