<svg width="22" height="22" fill="none" xmlns="http://www.w3.org/2000/svg"><path d="M19.25 3.208v15.584c0 .506-.41.916-.917.916H16.04V2.292h2.292c.506 0 .916.41.916.916Z" fill="url(#a)"/><path d="M18.333 3.208v15.584c0 .506-.41.916-.917.916h-2.75V2.292h2.75c.506 0 .917.41.917.916Z" fill="url(#b)"/><path d="M5.959 3.208v15.584c0 .506.41.916.917.916h.458V2.292h-.458a.916.916 0 0 0-.917.916Z" fill="url(#c)"/><path d="M16.5 2.292H7.335v17.416h9.167c.506 0 .916-.41.916-.916V3.208a.916.916 0 0 0-.916-.916Z" fill="url(#d)"/><path opacity=".05" d="M14.355 4.125H5.96v15.583h8.396c.932 0 1.687-.755 1.687-1.687V5.812c0-.932-.755-1.687-1.687-1.687Z" fill="#000"/><path opacity=".07" d="M14.283 4.583H5.959v15.125h8.324a1.3 1.3 0 0 0 1.301-1.3V5.884c0-.72-.583-1.302-1.301-1.302Z" fill="#000"/><path d="M15.124 5.958v12.834c0 .506-.41.916-.916.916h-2.292V5.042h2.292c.506 0 .916.41.916.916Z" fill="#1783BD"/><path d="M14.208 5.958v12.834c0 .506-.41.916-.917.916h-2.75V5.042h2.75c.506 0 .917.41.917.916Z" fill="url(#e)"/><path d="M2.75 5.958v12.834c0 .506.41.916.917.916h.458V5.042h-.458a.916.916 0 0 0-.917.916Z" fill="url(#f)"/><path d="M12.375 5.042h-8.25v14.666h8.25c.507 0 .917-.41.917-.916V5.958a.916.916 0 0 0-.917-.916Z" fill="url(#g)"/><path d="M11 9.625H6.415v.917h4.583v-.917Z" fill="#1B9DE2"/><defs><linearGradient id="a" x1="16.041" y1="11" x2="19.249" y2="11" gradientUnits="userSpaceOnUse"><stop stop-color="#7F22E2"/><stop offset="1" stop-color="#B133F0"/></linearGradient><linearGradient id="b" x1="16.486" y1="11" x2="17.927" y2="11" gradientUnits="userSpaceOnUse"><stop offset=".441" stop-color="#999998"/><stop offset=".653" stop-color="#C1C1C0"/><stop offset=".88" stop-color="#E5E5E5"/><stop offset="1" stop-color="#F3F3F3"/></linearGradient><linearGradient id="c" x1="4.341" y1="4.343" x2="9.545" y2="18.52" gradientUnits="userSpaceOnUse"><stop stop-color="#6F01D0"/><stop offset="1" stop-color="#51189C"/></linearGradient><linearGradient id="d" x1="9.289" y1="2.969" x2="15.436" y2="19.714" gradientUnits="userSpaceOnUse"><stop stop-color="#B133F0"/><stop offset="1" stop-color="#9F22E2"/></linearGradient><linearGradient id="e" x1="12.361" y1="12.375" x2="13.802" y2="12.375" gradientUnits="userSpaceOnUse"><stop offset=".441" stop-color="#999998"/><stop offset=".653" stop-color="#C1C1C0"/><stop offset=".88" stop-color="#E5E5E5"/><stop offset="1" stop-color="#F3F3F3"/></linearGradient><linearGradient id="f" x1="1.517" y1="6.768" x2="5.91" y2="18.735" gradientUnits="userSpaceOnUse"><stop stop-color="#0176D0"/><stop offset="1" stop-color="#16538C"/></linearGradient><linearGradient id="g" x1="6.055" y1="5.521" x2="11.291" y2="19.787" gradientUnits="userSpaceOnUse"><stop stop-color="#33BEF0"/><stop offset="1" stop-color="#22A5E2"/></linearGradient></defs></svg>