<svg width="24" height="24" fill="none" xmlns="http://www.w3.org/2000/svg"><path d="M21 10v10a.5.5 0 0 1-.5.5H15v-11h5.5a.5.5 0 0 1 .5.5Z" fill="#FFBCA5"/><path d="M15 8v12.5H9V8a.5.5 0 0 1 .5-.5h5a.5.5 0 0 1 .5.5Z" fill="#FF784B"/><path d="M9 11.5v9H3.5A.5.5 0 0 1 3 20v-8a.5.5 0 0 1 .5-.5H9Z" fill="#803C25"/><path d="M12.5 2.5v3.75a.25.25 0 0 1-.25.25h-.5a.25.25 0 0 1-.25-.25V2.5h1Z" fill="#FF784B"/><path d="m10.528 2.847 1.253-1.253a.31.31 0 0 1 .438 0l1.253 1.253a.09.09 0 0 1-.064.153H10.59a.09.09 0 0 1-.063-.153ZM18.5 4.5v3.75a.25.25 0 0 1-.25.25h-.5a.25.25 0 0 1-.25-.25V4.5h1Z" fill="#FF784B"/><path d="m16.528 4.847 1.253-1.253a.31.31 0 0 1 .438 0l1.253 1.253a.09.09 0 0 1-.064.153H16.59a.09.09 0 0 1-.063-.153ZM6 6.5v3.75a.25.25 0 0 1-.25.25h-.5a.25.25 0 0 1-.25-.25V6.5h1Z" fill="#FF784B"/><path d="m4.028 6.847 1.253-1.253a.31.31 0 0 1 .438 0l1.253 1.253A.09.09 0 0 1 6.908 7H4.092a.09.09 0 0 1-.064-.153Z" fill="#FF784B"/></svg>