<svg width="48" height="49" fill="none" xmlns="http://www.w3.org/2000/svg"><path d="M4 38V13h40v23c0 2.2-1.8 4-4 4H6c-1.1 0-2-.9-2-2Z" fill="url(#a)"/><path d="M38.5 22h-23a.5.5 0 0 1-.5-.5v-1a.5.5 0 0 1 .5-.5h23a.5.5 0 0 1 .5.5v1a.5.5 0 0 1-.5.5Zm0 5h-23a.5.5 0 0 1-.5-.5v-1a.5.5 0 0 1 .5-.5h23a.5.5 0 0 1 .5.5v1a.5.5 0 0 1-.5.5Zm0 5h-23a.5.5 0 0 1-.5-.5v-1a.5.5 0 0 1 .5-.5h23a.5.5 0 0 1 .5.5v1a.5.5 0 0 1-.5.5Z" fill="#0F94BF"/><path d="M44 10v3H4v-3c0-1.1.9-2 2-2h36c1.1 0 2 .9 2 2Z" fill="url(#b)"/><path d="M9.5 22h1a.5.5 0 0 0 .5-.5v-1a.5.5 0 0 0-.5-.5h-1a.5.5 0 0 0-.5.5v1a.5.5 0 0 0 .5.5Zm0 5h1a.5.5 0 0 0 .5-.5v-1a.5.5 0 0 0-.5-.5h-1a.5.5 0 0 0-.5.5v1a.5.5 0 0 0 .5.5Zm0 5h1a.5.5 0 0 0 .5-.5v-1a.5.5 0 0 0-.5-.5h-1a.5.5 0 0 0-.5.5v1a.5.5 0 0 0 .5.5Z" fill="#0F94BF"/><path opacity=".15" d="M44 30.018C42.176 27.583 39.277 26 36 26c-5.523 0-10 4.477-10 10 0 1.423.302 2.774.838 4H40c2.2 0 4-1.8 4-4v-5.982Z" fill="url(#c)"/><path d="m43.992 42.225-1.768 1.768 3.935 3.935a.25.25 0 0 0 .354 0l1.414-1.414a.25.25 0 0 0 0-.354l-3.935-3.935Z" fill="#199BE2"/><path d="M41.8 40.033 40.033 41.8l2.191 2.192 1.768-1.768-2.192-2.19Z" fill="url(#d)"/><path d="M36 44a8 8 0 1 0 0-16 8 8 0 0 0 0 16Z" fill="url(#e)"/><defs><linearGradient id="a" x1="13.042" y1="9.959" x2="31.564" y2="36.751" gradientUnits="userSpaceOnUse"><stop stop-color="#7DD8F3"/><stop offset="1" stop-color="#45B0D0"/></linearGradient><linearGradient id="b" x1="4.808" y1="6.78" x2="42.75" y2="14.495" gradientUnits="userSpaceOnUse"><stop stop-color="#0077D2"/><stop offset="1" stop-color="#0B59A2"/></linearGradient><linearGradient id="e" x1="30.455" y1="30.455" x2="41.669" y2="41.669" gradientUnits="userSpaceOnUse"><stop stop-color="#A3FFFF"/><stop offset=".223" stop-color="#9DFBFF"/><stop offset=".53" stop-color="#8BF1FF"/><stop offset=".885" stop-color="#6EE0FF"/><stop offset="1" stop-color="#63DAFF"/></linearGradient><radialGradient id="c" cx="0" cy="0" r="1" gradientUnits="userSpaceOnUse" gradientTransform="translate(36.018 35.992) scale(9.941)"><stop/><stop offset="1" stop-opacity="0"/></radialGradient><radialGradient id="d" cx="0" cy="0" r="1" gradientUnits="userSpaceOnUse" gradientTransform="translate(36.012 36.048) scale(9.802)"><stop offset=".693" stop-color="#006185"/><stop offset=".921" stop-color="#35C1F1"/></radialGradient></defs></svg>