<svg width="20" height="20" fill="none" xmlns="http://www.w3.org/2000/svg"><g clip-path="url(#a)"><path d="M1.666 15.833V6.25h16.667v9.583a.836.836 0 0 1-.834.834h-15a.836.836 0 0 1-.833-.834Z" fill="#50E6FF"/><path d="M18.333 4.167V6.25H1.666V4.167c0-.459.375-.834.833-.834h15c.459 0 .834.375.834.834Z" fill="url(#b)"/><path d="M6.874 5.417h10.417a.208.208 0 0 0 .208-.209v-.833a.208.208 0 0 0-.208-.208H6.874a.208.208 0 0 0-.208.208v.833c0 .115.093.209.208.209Z" fill="url(#c)"/><path d="M3.125 5.417a.625.625 0 1 0 0-1.25.625.625 0 0 0 0 1.25Z" fill="url(#d)"/><path d="M5.209 5.417a.625.625 0 1 0 0-1.25.625.625 0 0 0 0 1.25Z" fill="url(#e)"/><path d="m18.746 18.01-.736.737 1.223 1.223c.04.04.106.04.147 0l.59-.59a.104.104 0 0 0 0-.147l-1.224-1.223Z" fill="#199BE2"/><path d="m17.834 17.097-.736.736.913.914.736-.737-.913-.913Z" fill="url(#f)"/><path d="M15.417 11.25a4.171 4.171 0 0 0-3.975 5.417H17.5a.836.836 0 0 0 .833-.834v-3.387a4.151 4.151 0 0 0-2.916-1.196Z" fill="url(#g)"/><path d="M15.417 18.75a3.333 3.333 0 1 0 0-6.667 3.333 3.333 0 0 0 0 6.667Z" fill="url(#h)"/></g><defs><linearGradient id="b" x1="1.922" y1="3.225" x2="17.889" y2="6.472" gradientUnits="userSpaceOnUse"><stop stop-color="#0077D2"/><stop offset="1" stop-color="#0B59A2"/></linearGradient><linearGradient id="c" x1="6.666" y1="4.792" x2="17.499" y2="4.792" gradientUnits="userSpaceOnUse"><stop stop-color="#7DD8F3"/><stop offset="1" stop-color="#45B0D0"/></linearGradient><linearGradient id="d" x1="2.813" y1="4.34" x2="3.347" y2="5.112" gradientUnits="userSpaceOnUse"><stop stop-color="#75DAFF"/><stop offset="1" stop-color="#49BEF1"/></linearGradient><linearGradient id="e" x1="4.897" y1="4.34" x2="5.431" y2="5.112" gradientUnits="userSpaceOnUse"><stop stop-color="#75DAFF"/><stop offset="1" stop-color="#49BEF1"/></linearGradient><linearGradient id="h" x1="13.107" y1="13.106" x2="17.779" y2="17.779" gradientUnits="userSpaceOnUse"><stop stop-color="#A3FFFF"/><stop offset=".223" stop-color="#9DFBFF"/><stop offset=".53" stop-color="#8BF1FF"/><stop offset=".885" stop-color="#6EE0FF"/><stop offset="1" stop-color="#63DAFF"/></linearGradient><radialGradient id="f" cx="0" cy="0" r="1" gradientUnits="userSpaceOnUse" gradientTransform="translate(15.422 15.437) scale(4.08416)"><stop offset=".693" stop-color="#006185"/><stop offset=".921" stop-color="#35C1F1"/></radialGradient><radialGradient id="g" cx="0" cy="0" r="1" gradientUnits="userSpaceOnUse" gradientTransform="translate(15.39 15.381) scale(4.02292)"><stop/><stop offset="1" stop-opacity="0"/></radialGradient><clipPath id="a"><path fill="#fff" d="M0 0h20v20H0z"/></clipPath></defs></svg>