<svg width="36" height="39" fill="none" xmlns="http://www.w3.org/2000/svg"><path d="M5.25 10.432H31.5c.829 0 1.5.711 1.5 1.59v20.67c0 .88-.671 1.591-1.5 1.591h-21c-2.9 0-5.25-2.492-5.25-5.565V10.432Z" fill="url(#a)"/><path d="M3 8.047h26.25c.829 0 1.5.711 1.5 1.59v20.67c0 .88-.671 1.59-1.5 1.59h-21c-2.9 0-5.25-2.49-5.25-5.564V8.046Z" fill="url(#b)"/><path d="M8.25 20.767h1.5c.829 0 1.5-.711 1.5-1.59V4.867c0-.88-.671-1.59-1.5-1.59h-1.5C5.35 3.276 3 5.766 3 8.841v17.49c0-3.073 2.35-5.565 5.25-5.565Z" fill="url(#c)"/><path d="M13.875 24.742h14.25c.207 0 .375.179.375.398v.795c0 .22-.168.398-.375.398h-14.25c-.207 0-.375-.178-.375-.398v-.795c0-.22.168-.398.375-.398Zm1.036-3.32-.53-.563a.415.415 0 0 1 0-.562l4.265-4.521a.36.36 0 0 1 .53 0l2.735 2.899 3.22-3.414 1.06 1.125-4.014 4.256a.36.36 0 0 1-.53 0l-2.735-2.9-3.47 3.679a.36.36 0 0 1-.53 0Z" fill="#35C1F1"/><path d="m23.14 15.086 3.22 3.413c.235.25.64.072.64-.281v-3.414a.388.388 0 0 0-.376-.397h-3.22c-.333 0-.5.428-.264.679Z" fill="#35C1F1"/><defs><linearGradient id="a" x1="32.905" y1="22.357" x2="4.839" y2="22.357" gradientUnits="userSpaceOnUse"><stop stop-color="#004C87"/><stop offset="1" stop-color="#003A70"/></linearGradient><linearGradient id="b" x1="30.655" y1="19.972" x2="2.589" y2="19.972" gradientUnits="userSpaceOnUse"><stop stop-color="#0068B8"/><stop offset="1" stop-color="#004D94"/></linearGradient><linearGradient id="c" x1="3.119" y1="14.804" x2="11.451" y2="14.804" gradientUnits="userSpaceOnUse"><stop stop-color="#28AFEA"/><stop offset="1" stop-color="#0B88DA"/></linearGradient></defs></svg>