<svg width="40" height="40" fill="none" xmlns="http://www.w3.org/2000/svg"><path d="M20 35c8.284 0 15-6.716 15-15 0-8.284-6.716-15-15-15-8.284 0-15 6.716-15 15 0 8.284 6.716 15 15 15Z" fill="url(#a)"/><path d="M5.833 26.667h28.333c.92 0 1.667-.746 1.667-1.667V15c0-.92-.746-1.667-1.667-1.667H5.833c-.921 0-1.667.746-1.667 1.667v10c0 .92.746 1.667 1.667 1.667Z" fill="url(#b)"/><path d="M13.766 23.333h-1.592l-2.886-4.399a6.451 6.451 0 0 1-.351-.58h-.02c.026.247.04.624.04 1.132v3.847h-1.49v-7.002h1.699l2.778 4.263c.127.192.244.383.352.572h.02c-.027-.163-.04-.484-.04-.962v-3.872h1.49v7.001Zm5.8 0h-4.199v-7.002h4.038v1.285h-2.46v1.557h2.29v1.28h-2.29v1.601h2.621v1.28Zm10.484-7.002-1.85 7.002h-1.75l-1.162-4.492a3.774 3.774 0 0 1-.112-.786h-.02c-.029.319-.071.58-.126.786l-1.192 4.492h-1.821l-1.841-7.002h1.723l.987 4.664a5.5 5.5 0 0 1 .092.8h.03c.013-.25.06-.524.141-.82l1.27-4.643h1.688l1.148 4.703c.042.172.08.423.112.752h.02a5.08 5.08 0 0 1 .102-.782l.967-4.673h1.594Zm1.73 7.115a.908.908 0 0 1-.645-.237.756.756 0 0 1-.254-.573.73.73 0 0 1 .256-.576.942.942 0 0 1 .643-.225c.26 0 .473.076.64.226a.74.74 0 0 1 .25.574.76.76 0 0 1-.248.58c-.164.153-.38.23-.643.23Zm.8-7.115-.19 4.825h-1.25l-.182-4.825h1.622Z" fill="#fff"/><path opacity=".05" d="M6.578 13.333h26.845a14.78 14.78 0 0 0-.446-.833H7.024c-.158.273-.305.55-.446.833Z" fill="#000"/><path opacity=".07" d="M6.578 13.333h26.845c-.068-.137-.128-.28-.2-.416H6.778c-.073.136-.132.279-.2.416Z" fill="#000"/><path opacity=".05" d="M33.423 26.667H6.578c.141.282.288.56.446.833h25.954c.158-.273.304-.55.445-.833Z" fill="#000"/><path opacity=".07" d="M33.423 26.667H6.578c.068.138.128.28.201.416h26.443c.073-.135.132-.278.201-.416Z" fill="#000"/><defs><linearGradient id="a" x1="9.642" y1="9.334" x2="30.203" y2="30.507" gradientUnits="userSpaceOnUse"><stop stop-color="#FFD869"/><stop offset="1" stop-color="#FEC52B"/></linearGradient><linearGradient id="b" x1="12.852" y1="5.586" x2="27.483" y2="35.092" gradientUnits="userSpaceOnUse"><stop stop-color="#F44F5A"/><stop offset=".443" stop-color="#EE3D4A"/><stop offset="1" stop-color="#E52030"/></linearGradient></defs></svg>