<svg width="36" height="45" fill="none" xmlns="http://www.w3.org/2000/svg"><path d="M31.5 14.625V42.75A2.25 2.25 0 0 1 29.25 45h-27A2.25 2.25 0 0 1 0 42.75v-36A2.25 2.25 0 0 1 2.25 4.5h19.125L31.5 14.625Z" fill="#7027E5"/><path opacity=".05" d="M2.25 4.5H31.5v38.25H6.391a4.141 4.141 0 0 1-4.141-4.14V4.5Z" fill="#000"/><path opacity=".07" d="M3.375 4.5h22.434a5.691 5.691 0 0 1 5.691 5.691v31.434H6.569a3.194 3.194 0 0 1-3.194-3.194V4.5Z" fill="#000"/><path d="M36 11.25v27a2.25 2.25 0 0 1-2.25 2.25h-27a2.25 2.25 0 0 1-2.25-2.25v-36A2.25 2.25 0 0 1 6.75 0h18L36 11.25Z" fill="#B893F2"/><path d="M24.75 0v9A2.25 2.25 0 0 0 27 11.25h9L24.75 0Z" fill="#7027E5"/><path d="M18.187 26.718a4.3 4.3 0 0 1-.234-1.336c0-3.233 3.329-3.357 3.329-5.755 0-1.51-1.492-1.603-1.759-1.603-1.694 0-3.017.968-3.573 1.458V16.13c.572-.34 1.879-1.024 3.964-1.024 4.826 0 4.887 3.318 4.887 4.03 0 3.83-3.952 4.114-3.952 6.568 0 .512.185.886.266 1.012h-2.928v.002Zm1.624 5.264c-.919 0-1.89-.574-1.89-1.687s1.01-1.666 1.89-1.666c.881 0 1.86.494 1.86 1.666s-.94 1.686-1.86 1.686Z" fill="#F1E9FB"/></svg>