<svg width="60" height="60" fill="none" xmlns="http://www.w3.org/2000/svg"><circle cx="30" cy="30" r="29.5" fill="#fff" stroke="#93D3A2"/><path d="M35.035 27.321h-9.642L14.02 40.96c-.047.047-.088.1-.133.148l-.232.26h.02a3.813 3.813 0 0 0-.818 2.347 3.857 3.857 0 0 0 3.857 3.857h27a3.857 3.857 0 0 0 3.857-3.857c0-.859-.29-1.644-.764-2.284h.014l-.174-.194c-.09-.104-.175-.211-.273-.305l-11.339-13.61Z" fill="#93D3A2"/><path d="M25.393 15.75h9.643v12.938h-9.643V15.75Z" fill="#93D3A2"/><path d="M36.964 14.786a1.93 1.93 0 0 1-1.928 1.928h-9.643a1.93 1.93 0 0 1 0-3.857h9.643a1.93 1.93 0 0 1 1.928 1.929Z" fill="#93D3A2"/><path d="m45.258 42.578-.013-.018-.033-.037-.019-.02-.018-.02-.047-.056c-.03-.036-.059-.072-.091-.105l-.055-.053-.045-.051-6.36-7.664h-16.73l-6.392 7.694-.034.038-.013.013c-.037.042-.066.076-.095.107l-.039.043-.075.099a1.91 1.91 0 0 0-.413 1.166 1.93 1.93 0 0 0 1.929 1.929h27a1.93 1.93 0 0 0 1.928-1.929c0-.509-.21-.898-.385-1.136Z" fill="#FFED96"/><path d="M35.036 37.929a2.893 2.893 0 1 0 0 5.785 2.893 2.893 0 0 0 0-5.785ZM28.286 36a1.929 1.929 0 1 0 0 3.857 1.929 1.929 0 0 0 0-3.857Z" fill="#FFFBEA"/><path d="M31.178 27.321a1.928 1.928 0 1 0 0 3.857 1.928 1.928 0 0 0 0-3.857Zm-1.446-5.785a1.446 1.446 0 1 0 0 2.893 1.446 1.446 0 0 0 0-2.893Z" fill="#fff"/></svg>