<svg width="54" height="54" fill="none" xmlns="http://www.w3.org/2000/svg"><circle cx="27" cy="27" r="26.5" fill="#fff" stroke="#FFDA2D"/><path d="M39.667 43.625H14.333v-33.25H31.75l7.917 7.917v25.333Z" fill="#FFED96"/><path d="M38.48 19.083h-7.521v-7.52l7.52 7.52ZM20.553 36.907l-1.357-.815 5.271-8.786 4.75 4.75 4.23-7.047 1.356.815-5.27 8.786-4.75-4.75-4.23 7.047Z" fill="#806D16"/><path d="M24.625 27a1.583 1.583 0 1 0 0 3.167 1.583 1.583 0 0 0 0-3.167Zm-4.75 7.917a1.583 1.583 0 1 0 0 3.166 1.583 1.583 0 0 0 0-3.166Zm9.5-3.167a1.583 1.583 0 1 0 0 3.167 1.583 1.583 0 0 0 0-3.167Zm4.75-7.916a1.583 1.583 0 1 0 0 3.166 1.583 1.583 0 0 0 0-3.166Z" fill="#FFFBEA"/></svg>