<svg width="58" height="58" fill="none" xmlns="http://www.w3.org/2000/svg"><circle cx="29" cy="29" r="28.5" fill="#fff" stroke="#FFBCA5"/><path d="M14 27.333h30v3.334H14v-3.334Zm0 15h30V39H14v3.333ZM14 19h30v-3.334H14V19Z" fill="#FF784B"/><path d="M14 39h20v3.333H14V39Zm0-20h23.334v-3.334H14V19Zm0 11.666h9.167v-3.333H14v3.334Z" fill="#FFBCA5"/><path d="M32.333 37.333h2.5c.417 0 .834.417.834.834v5c0 .416-.417.833-.834.833h-2.5c-.416 0-.833-.417-.833-.833v-5c0-.417.417-.834.833-.834Zm2.5-22.5v5c0 .5.417.834.834.834h2.5c.5 0 .833-.334.833-.834v-5c0-.5-.333-.833-.833-.833h-2.5a.835.835 0 0 0-.834.833ZM20.667 26.5v5c0 .417.416.833.833.833H24c.417 0 .833-.416.833-.833v-5c0-.417-.416-.833-.833-.833h-2.5c-.417 0-.833.416-.833.833Z" fill="#803C25"/></svg>