<svg width="60" height="60" fill="none" xmlns="http://www.w3.org/2000/svg"><circle cx="30" cy="30" r="29.5" fill="#fff" stroke="#85B7FE"/><path d="M43.5 29.571a3.214 3.214 0 1 0 0-6.428 3.214 3.214 0 0 0 0 6.428Z" fill="#85B7FE"/><path d="M43.5 21a3.214 3.214 0 1 0 0-6.429 3.214 3.214 0 0 0 0 6.429Z" fill="#07377F"/><path d="M43.5 46.714a3.214 3.214 0 1 0 0-6.428 3.214 3.214 0 0 0 0 6.428Z" fill="#85B7FE"/><path d="M43.5 38.143a3.214 3.214 0 1 0 0-6.429 3.214 3.214 0 0 0 0 6.429Zm-8.572-8.572a3.214 3.214 0 1 0 0-6.428 3.214 3.214 0 0 0 0 6.428Z" fill="#07377F"/><path d="M34.928 21a3.214 3.214 0 1 0 0-6.429 3.214 3.214 0 0 0 0 6.429Z" fill="#85B7FE"/><path d="M34.928 46.714a3.214 3.214 0 1 0 0-6.428 3.214 3.214 0 0 0 0 6.428Z" fill="#07377F"/><path d="M34.928 38.143a3.214 3.214 0 1 0 0-6.429 3.214 3.214 0 0 0 0 6.429Zm-8.571-8.572a3.214 3.214 0 1 0 0-6.428 3.214 3.214 0 0 0 0 6.428Z" fill="#85B7FE"/><path d="M26.357 21a3.214 3.214 0 1 0 0-6.429 3.214 3.214 0 0 0 0 6.429Z" fill="#07377F"/><path d="M26.357 46.714a3.214 3.214 0 1 0 0-6.428 3.214 3.214 0 0 0 0 6.428Z" fill="#85B7FE"/><path d="M26.357 38.143a3.214 3.214 0 1 0 0-6.429 3.214 3.214 0 0 0 0 6.429Zm-8.571-8.572a3.214 3.214 0 1 0 0-6.428 3.214 3.214 0 0 0 0 6.428Z" fill="#07377F"/><path d="M17.786 21a3.214 3.214 0 1 0 0-6.428 3.214 3.214 0 0 0 0 6.428Z" fill="#85B7FE"/><path d="M17.786 46.714a3.214 3.214 0 1 0 0-6.428 3.214 3.214 0 0 0 0 6.428Z" fill="#07377F"/><path d="M17.786 38.143a3.214 3.214 0 1 0 0-6.429 3.214 3.214 0 0 0 0 6.429Z" fill="#85B7FE"/></svg>