<svg width="62" height="62" fill="none" xmlns="http://www.w3.org/2000/svg"><circle cx="31" cy="31" r="30.5" fill="#fff" stroke="#93D3A2"/><path d="M49.75 44.542a5.208 5.208 0 0 1-5.208 5.208H17.458a5.208 5.208 0 0 1-5.208-5.208V17.458a5.208 5.208 0 0 1 5.208-5.208h27.084a5.208 5.208 0 0 1 5.208 5.208v27.084Z" fill="#93D3A2"/><path d="M44.542 24.75H17.458a1.042 1.042 0 0 1-1.041-1.041v-6.25c0-.575.466-1.042 1.041-1.042h27.084c.575 0 1.041.467 1.041 1.042v6.25a1.04 1.04 0 0 1-1.041 1.041Zm0 10.417H17.458a1.042 1.042 0 0 1-1.041-1.042v-6.25a1.04 1.04 0 0 1 1.041-1.041h27.084a1.04 1.04 0 0 1 1.041 1.041v6.25c0 .575-.466 1.042-1.041 1.042Zm0 10.417H17.458a1.042 1.042 0 0 1-1.041-1.042v-6.25c0-.575.466-1.042 1.041-1.042h27.084c.575 0 1.041.467 1.041 1.042v6.25c0 .575-.466 1.042-1.041 1.042Z" fill="#EAF6EC"/><path d="M45.286 32.786a8.928 8.928 0 1 0 0 17.856 8.928 8.928 0 0 0 0-17.856Z" fill="#FFDA2D"/><path d="M43.5 36.357h3.572V47.07H43.5V36.357Z" fill="#fff"/><path d="M39.929 39.928h10.714V43.5H39.929v-3.572Z" fill="#fff"/></svg>