<svg width="56" height="56" fill="none" xmlns="http://www.w3.org/2000/svg"><circle cx="28" cy="28" r="27.5" fill="#fff" stroke="#B893F2"/><path d="M38.083 43.729H17.917v-32.25h20.166v32.25Z" fill="#B893F2"/><path d="M39.917 43.729H16.083V14.166h23.834V43.73Z" fill="#7027E5"/><path d="M41.75 43.729h-27.5V16.854h27.5v26.875Z" fill="#B893F2"/><path d="M17 21.334h7.333v1.791H17v-1.791Zm9.167 0h6.416v1.791h-6.416v-1.791ZM17 24.916h11v1.791H17v-1.791Z" fill="#381472"/><path d="M31.667 32.979v1.792c0 1.979-1.642 3.583-3.667 3.583s-3.667-1.604-3.667-3.583v-1.792H14.25v10.75h27.5v-10.75H31.667Z" fill="#B893F2"/><path d="M28 40.146c-3.037 0-5.5-2.407-5.5-5.375H12.417a.907.907 0 0 0-.917.896v7.166c0 1.485 1.231 2.688 2.75 2.688h27.5c1.519 0 2.75-1.203 2.75-2.688v-7.166a.907.907 0 0 0-.917-.896H33.5c0 2.968-2.463 5.375-5.5 5.375Z" fill="#FFDA2D"/></svg>