<svg width="50" height="50" fill="none" xmlns="http://www.w3.org/2000/svg"><path d="M3.906 12.5v22.656c0 4.315 8.745 7.813 19.532 7.813 10.786 0 19.53-3.498 19.53-7.813l-4.748-7.662L42.97 25V12.5H3.906Z" fill="#B893F2"/><path d="M9.375 12.5H3.906v22.656c0 2.105 2.085 4.014 5.469 5.419V12.5Zm21.875 0v29.817c6.897-1.206 11.719-3.958 11.719-7.16V12.5H31.25Z" fill="#F1E9FB"/><path d="M23.438 3.906c-5.18 0-10.148.823-13.811 2.288-3.663 1.466-5.72 3.453-5.72 5.525 0 2.072 2.057 4.059 5.72 5.524 3.663 1.465 8.63 2.288 13.81 2.288s10.148-.823 13.811-2.288c3.663-1.465 5.72-3.452 5.72-5.524s-2.057-4.06-5.72-5.525c-3.663-1.465-8.63-2.288-13.81-2.288Z" fill="#B893F2"/><path d="M49.219 39.844H37.5l3.125 3.125-3.125 3.125-8.594-8.594 8.594-8.594 3.125 3.125-3.125 3.125h11.719v4.688Z" fill="#FFDA2D"/><path d="M24.302 7.82a45.049 45.049 0 0 1 2.264.096.782.782 0 0 0 .051-1.56 47.143 47.143 0 0 0-2.286-.098h-.014a.781.781 0 0 0-.015 1.562ZM14.206 8.83a.796.796 0 0 0 .19-.024c1.88-.471 4.127-.79 6.495-.923a.78.78 0 0 0 .736-.823.785.785 0 0 0-.824-.737c-2.465.137-4.813.472-6.787.968a.781.781 0 0 0 .19 1.539Zm9.232 23.983a.781.781 0 0 0-.781.782v1.562a.781.781 0 1 0 1.562 0v-1.562a.781.781 0 0 0-.781-.782Zm4.687.626a.781.781 0 1 0-1.562 0V35a.781.781 0 1 0 1.562 0v-1.563Z" fill="#7027E5"/><path d="M49.219 34.375H43.75V11.719c0-4.819-8.923-8.594-20.313-8.594-11.39 0-20.312 3.775-20.312 8.594v23.437c0 4.82 8.922 8.594 20.313 8.594 3.5 0 6.773-.36 9.617-.992l3.89 3.89a.8.8 0 0 0 .555.227.8.8 0 0 0 .555-.227l3.125-3.125a.787.787 0 0 0 0-1.109l-1.797-1.789h9.836c.43 0 .781-.352.781-.781v-4.688a.784.784 0 0 0-.781-.781ZM23.437 4.687c11.216 0 18.75 3.636 18.75 7.032 0 3.395-7.534 7.031-18.75 7.031-11.215 0-18.75-3.636-18.75-7.031 0-3.396 7.535-7.031 18.75-7.031ZM4.688 15.085c3.038 3.1 10.198 5.229 18.75 5.229 8.553 0 15.713-2.129 18.75-5.229v4.447c0 3.396-7.534 7.032-18.75 7.032-11.215 0-18.75-3.636-18.75-7.032v-4.447Zm27.063 26.37c-2.438.46-5.242.733-8.313.733-11.218 0-18.75-3.632-18.75-7.03v-4.464c2.51 2.581 7.874 4.517 14.732 5.081a.782.782 0 0 0 .128-1.558c-8.471-.696-14.86-3.65-14.86-6.872v-4.447c3.038 3.1 10.198 5.228 18.75 5.228 8.553 0 15.713-2.128 18.75-5.228v11.478h-2.804l1.797-1.79a.787.787 0 0 0 0-1.108l-3.125-3.125a.787.787 0 0 0-1.11 0l-4.914 4.914v-.375a.781.781 0 1 0-1.562 0v1.562c0 .11.024.215.065.31l-2.182 2.182a.787.787 0 0 0 0 1.11l3.398 3.398Zm16.688-2.392H37.5a.771.771 0 0 0-.719.485.737.737 0 0 0-.031.5c.031.133.094.25.195.351l2.578 2.57-2.023 2.024-7.492-7.492 7.492-7.492 2.023 2.023-2.578 2.57a.783.783 0 0 0-.164.852.771.771 0 0 0 .719.484h10.938v3.126Z" fill="#7027E5"/></svg>