<svg width="50" height="50" fill="none" xmlns="http://www.w3.org/2000/svg"><path d="M.781 14.063v22.656c0 4.312 8.742 7.812 19.532 7.812 10.789 0 19.53-3.5 19.53-7.812V14.062H.782Z" fill="#B893F2"/><path d="M6.25 14.063H.781v22.656c0 2.101 2.086 4.015 5.469 5.422V14.063Zm21.875 0v29.82c6.898-1.211 11.719-3.961 11.719-7.164V14.062H28.125Z" fill="#F1E9FB"/><path d="M20.313 5.469c-5.18 0-10.148.823-13.811 2.288-3.663 1.465-5.72 3.452-5.72 5.524s2.057 4.06 5.72 5.524c3.663 1.466 8.63 2.289 13.81 2.289s10.148-.823 13.811-2.289c3.663-1.465 5.72-3.452 5.72-5.524s-2.057-4.059-5.72-5.524c-3.663-1.465-8.63-2.288-13.81-2.288Z" fill="#B893F2"/><path d="M21.18 9.375c.734 0 1.484.047 2.21.094h.047a.782.782 0 0 0 .055-1.563 39.221 39.221 0 0 0-2.29-.093.782.782 0 0 0 0 1.562h-.023Zm-10.102 1.016a.754.754 0 0 0 .187 0 35.35 35.35 0 0 1 6.493-.922.781.781 0 0 0 .742-.875.781.781 0 0 0-.82-.735 36.932 36.932 0 0 0-6.79.97.787.787 0 0 0 .188 1.562Z" fill="#7027E5"/><path d="M20.313 4.688C8.921 4.688 0 8.46 0 13.28v23.44c0 4.82 8.922 8.593 20.313 8.593 11.39 0 20.312-3.773 20.312-8.593V13.28c0-4.82-8.922-8.594-20.313-8.594Zm18.75 16.406c0 3.398-7.532 7.031-18.75 7.031-11.22 0-18.75-3.633-18.75-7.031v-4.446c3.039 3.125 10.195 5.227 18.75 5.227 8.554 0 15.71-2.125 18.75-5.227v4.446ZM20.313 6.25c11.218 0 18.75 3.633 18.75 7.031 0 3.399-7.532 7.031-18.75 7.031-11.22 0-18.75-3.632-18.75-7.03 0-3.4 7.53-7.032 18.75-7.032Zm0 37.5c-11.22 0-18.75-3.633-18.75-7.031v-4.461c2.507 2.578 7.875 4.515 14.734 5.078h.062a.782.782 0 0 0 .063-1.563c-8.469-.687-14.86-3.648-14.86-6.867v-4.445c3.04 3.125 10.196 5.227 18.75 5.227 8.555 0 15.711-2.125 18.75-5.227v4.445c0 1.352-1.195 2.75-3.374 3.907a.79.79 0 0 0 .78 1.374c.953-.5 1.826-1.137 2.594-1.89v4.422c0 3.398-7.53 7.031-18.75 7.031Z" fill="#7027E5"/><path d="M20.313 34.375a.782.782 0 0 0-.782.781v1.563a.782.782 0 0 0 1.563 0v-1.563a.782.782 0 0 0-.782-.781Zm3.906-.156a.782.782 0 0 0-.782.781v1.563a.782.782 0 0 0 1.563 0V35a.782.782 0 0 0-.781-.781Zm3.906-.547a.782.782 0 0 0-.781.781v1.563a.782.782 0 0 0 1.562 0v-1.563a.782.782 0 0 0-.781-.781Zm3.906-.86a.782.782 0 0 0-.781.782v1.562a.782.782 0 0 0 1.563 0v-1.562a.782.782 0 0 0-.782-.782Z" fill="#7027E5"/><path d="M49.219 7.031h-6.25V.781h-6.25v6.25h-6.25v6.25h6.25v6.25h6.25v-6.25h6.25v-6.25Z" fill="#FFDA2D"/><path d="M42.969 20.313h-6.25a.782.782 0 0 1-.782-.782v-5.468H30.47a.782.782 0 0 1-.782-.782v-6.25c0-.431.35-.781.782-.781h5.468V.781c0-.431.35-.781.782-.781h6.25c.431 0 .781.35.781.781V6.25h5.469c.431 0 .781.35.781.781v6.25c0 .431-.35.781-.781.781h-5.47v5.47c0 .43-.35.78-.781.78ZM37.5 18.75h4.688v-5.469c0-.431.35-.781.78-.781h5.47V7.812h-5.47a.782.782 0 0 1-.78-.78v-5.47H37.5v5.47c0 .43-.35.78-.781.78H31.25V12.5h5.469c.431 0 .781.35.781.781v5.469Z" fill="#7027E5"/></svg>