<svg width="13" height="12" fill="none" xmlns="http://www.w3.org/2000/svg"><path d="M4.952.516A.516.516 0 0 0 4.436 0H1.3l-.065.002A1.3 1.3 0 0 0 0 1.3v9.4l.002.065A1.3 1.3 0 0 0 1.3 12h9.407l.065-.002a1.3 1.3 0 0 0 1.235-1.298V6.783l-.002-.047a.516.516 0 0 0-1.03.047V10.7l-.003.034a.267.267 0 0 1-.265.233H1.3l-.033-.002a.267.267 0 0 1-.234-.265V1.3l.002-.034a.267.267 0 0 1 .265-.233h3.136l.047-.002a.516.516 0 0 0 .47-.515Z" fill="#202124"/><path fill-rule="evenodd" clip-rule="evenodd" d="m9.558.151-4.703 4.7a.516.516 0 0 0-.152.366v1.566c0 .286.231.517.517.517h1.567a.516.516 0 0 0 .366-.151l4.703-4.7a.517.517 0 0 0 0-.731L10.288.15a.516.516 0 0 0-.73 0Zm.365 1.095.837.837-4.186 4.184h-.838V5.43l4.187-4.184Z" fill="#202124"/></svg>