<svg width="47" height="47" fill="none" xmlns="http://www.w3.org/2000/svg"><path d="M0 23.5C0 10.522 10.522 0 23.5 0S47 10.522 47 23.5 36.478 47 23.5 47 0 36.478 0 23.5Z" fill="#DD3646"/><path d="M43.475 23.5c0-3.806-.791-7.392-2.161-10.575h3.151a23.31 23.31 0 0 0-1.349-2.35h-2.951C36.587 4.211 30.457 0 23.5 0 16.543 0 10.413 4.211 6.835 10.575H3.883c-.497.752-.94 1.54-1.349 2.35h3.152A26.733 26.733 0 0 0 3.525 23.5c0 3.806.79 7.392 2.16 10.575h-3.15c.408.81.851 1.598 1.348 2.35h2.952C10.413 42.789 16.543 47 23.5 47c6.957 0 13.087-4.211 16.665-10.575h2.951c.497-.752.94-1.54 1.35-2.35h-3.152a26.733 26.733 0 0 0 2.16-10.575Zm-2.35 0c0 3.854-.878 7.46-2.384 10.575h-6.807c.638-3.329.966-6.988.966-10.575 0-3.587-.328-7.246-.966-10.575h6.807c1.506 3.115 2.384 6.721 2.384 10.575ZM23.5 44.65c-1.986 0-4.102-3.099-5.492-8.225h10.985c-1.391 5.127-3.508 8.225-5.493 8.225Zm-6.054-10.575c-.62-3.04-.996-6.614-.996-10.575 0-3.96.377-7.535.996-10.575h12.107c.62 3.04.997 6.614.997 10.575 0 3.96-.378 7.535-.997 10.575H17.446ZM23.5 2.35c1.985 0 4.102 3.098 5.492 8.225H18.007c1.39-5.127 3.507-8.225 5.493-8.225Zm13.92 8.225h-6.006c-.735-2.936-1.737-5.504-2.998-7.37 3.618 1.264 6.75 3.883 9.004 7.37Zm-18.837-7.37c-1.26 1.867-2.262 4.434-2.998 7.37H9.579c2.254-3.487 5.387-6.106 9.005-7.37ZM5.876 23.5c0-3.854.877-7.46 2.384-10.575h6.807c-.639 3.329-.966 6.988-.966 10.575 0 3.587.328 7.246.966 10.575H8.259C6.752 30.96 5.875 27.354 5.875 23.5ZM9.58 36.425h6.006c.735 2.936 1.738 5.504 2.998 7.37-3.617-1.264-6.75-3.883-9.004-7.37Zm18.837 7.37c1.26-1.867 2.263-4.434 2.998-7.37h6.006c-2.254 3.487-5.386 6.107-9.004 7.37Z" fill="#EF9AA3"/><path opacity=".05" d="M45.043 17.625H41.94a.87.87 0 0 0-.851.69l-.553 2.634-.683-2.67a.868.868 0 0 0-.841-.654h-2.825a.87.87 0 0 0-.843.654l-.682 2.671-.554-2.634a.867.867 0 0 0-.85-.691H27.84a.87.87 0 0 0-.851.69l-.553 2.634-.683-2.67a.868.868 0 0 0-.841-.654h-2.825a.87.87 0 0 0-.843.654l-.682 2.671-.554-2.634a.867.867 0 0 0-.85-.691H13.74a.87.87 0 0 0-.851.69l-.553 2.634-.683-2.67a.868.868 0 0 0-.841-.654H7.988a.87.87 0 0 0-.843.654l-.681 2.671-.553-2.635a.87.87 0 0 0-.851-.69H1.958a.868.868 0 0 0-.843 1.08l2.503 10.012a.868.868 0 0 0 .843.658h3.353c.394 0 .737-.26.838-.64.225-.84.608-2.27.747-2.796.139.526.522 1.957.747 2.797.104.38.447.639.84.639h3.354a.869.869 0 0 0 .842-.658l1.268-5.07 1.268 5.07a.869.869 0 0 0 .843.658h3.353c.394 0 .737-.26.838-.64.225-.84.608-2.27.747-2.796.139.526.522 1.957.747 2.797.104.38.447.639.84.639h3.354a.869.869 0 0 0 .842-.658l1.268-5.07 1.268 5.07a.869.869 0 0 0 .843.658h3.353c.394 0 .737-.26.838-.64.225-.84.609-2.27.747-2.796.139.526.522 1.957.747 2.797.104.38.447.639.84.639h3.354a.869.869 0 0 0 .843-.658l2.502-10.012a.868.868 0 0 0-.842-1.08Z" fill="#000"/><path opacity=".07" d="M44.594 18.212h-2.37a.631.631 0 0 0-.618.502l-1.014 4.828-1.24-4.855a.631.631 0 0 0-.611-.475h-2.282a.632.632 0 0 0-.613.475l-1.24 4.855-1.014-4.828a.631.631 0 0 0-.618-.502h-4.852a.631.631 0 0 0-.618.502l-1.014 4.828-1.24-4.855a.631.631 0 0 0-.612-.475h-2.282a.632.632 0 0 0-.612.475l-1.24 4.855-1.015-4.828a.631.631 0 0 0-.618-.502H14.02a.631.631 0 0 0-.618.502l-1.014 4.828-1.24-4.855a.631.631 0 0 0-.612-.475H8.254a.632.632 0 0 0-.612.475l-1.24 4.855-1.01-4.828a.63.63 0 0 0-.616-.502H2.405a.631.631 0 0 0-.612.785L4.12 28.31c.07.281.323.478.613.478h2.811a.628.628 0 0 0 .609-.465c.284-1.062 1.157-4.327 1.244-4.777.088.45.96 3.716 1.245 4.777a.628.628 0 0 0 .608.465h2.812a.63.63 0 0 0 .612-.478l1.776-7.085 1.771 7.085a.633.633 0 0 0 .613.478h2.811a.63.63 0 0 0 .61-.465c.284-1.062 1.157-4.327 1.243-4.777.089.45.96 3.716 1.245 4.777a.628.628 0 0 0 .608.465h2.812a.63.63 0 0 0 .612-.478l1.775-7.085 1.771 7.085a.633.633 0 0 0 .613.478h2.812a.627.627 0 0 0 .608-.465c.285-1.062 1.157-4.327 1.244-4.777.089.45.96 3.716 1.245 4.777a.628.628 0 0 0 .608.465h2.812a.63.63 0 0 0 .612-.478l2.328-9.312a.627.627 0 0 0-.609-.785Z" fill="#000"/><path d="m28.089 18.8-1.542 7.335-1.872-7.335h-2.35l-1.872 7.335-1.541-7.335H16.45l2.35 9.4h2.88s1.778-6.622 1.82-7.05c.043.428 1.82 7.05 1.82 7.05h2.88l2.35-9.4h-2.46Z" fill="#fff"/><path d="m13.988 18.8-1.542 7.335-1.871-7.335h-2.35l-1.872 7.335L4.81 18.8H2.35l2.35 9.4h2.88s1.777-6.622 1.82-7.05c.042.428 1.82 7.05 1.82 7.05h2.88l2.35-9.4h-2.462Zm28.2 0-1.541 7.335-1.872-7.335h-2.35l-1.872 7.335-1.542-7.335H30.55l2.35 9.4h2.88s1.777-6.622 1.82-7.05c.042.428 1.82 7.05 1.82 7.05h2.88l2.35-9.4h-2.462Z" fill="#fff"/></svg>