<svg width="45" height="41" fill="none" xmlns="http://www.w3.org/2000/svg"><path opacity=".5" d="M38.092 24.336H6.35v13.756c0 1.17.947 2.116 2.116 2.116h27.51c1.17 0 2.117-.947 2.117-2.116V24.336Z" fill="#DD3646"/><path d="M38.092 11.64v12.697H6.35V2.117A2.114 2.114 0 0 1 8.465 0h17.988l11.64 11.64Z" fill="#93D3A2"/><path d="M26.453 0v9.523c0 1.17.947 2.116 2.116 2.116h9.523L26.453 0Z" fill="#28A745"/><path d="M32.272 16.93H12.168a.53.53 0 0 1-.53-.53v-1.057a.53.53 0 0 1 .53-.53h20.104a.53.53 0 0 1 .529.53V16.4a.53.53 0 0 1-.53.529Zm0 4.232H12.168a.53.53 0 0 1-.53-.529v-1.058a.53.53 0 0 1 .53-.53h20.104a.53.53 0 0 1 .529.53v1.058a.53.53 0 0 1-.53.53Z" fill="#EAF6EC"/><path d="M43.383 25.395H1.058a1.057 1.057 0 1 1 0-2.117h42.325a1.057 1.057 0 1 1 0 2.117Z" fill="#DD3646"/></svg>