<svg width="45" height="36" fill="none" xmlns="http://www.w3.org/2000/svg"><path d="M0 33.125V7.729h44.167v25.396a2.215 2.215 0 0 1-2.209 2.208H2.208A2.215 2.215 0 0 1 0 33.125Z" fill="#FFDA2D"/><path d="M39.198 16.562H24.844a.552.552 0 0 1-.552-.552v-1.104c0-.305.247-.552.552-.552h14.354c.305 0 .552.247.552.552v1.104a.552.552 0 0 1-.552.552Zm0 4.418H24.844a.552.552 0 0 1-.552-.553v-1.104c0-.305.247-.552.552-.552h14.354c.305 0 .552.247.552.552v1.104a.552.552 0 0 1-.552.552Zm0 4.416H24.844a.552.552 0 0 1-.552-.552V23.74c0-.305.247-.552.552-.552h14.354c.305 0 .552.247.552.552v1.104a.552.552 0 0 1-.552.552Zm-3.312 4.416H24.844a.552.552 0 0 1-.552-.552v-1.104c0-.305.247-.552.552-.552h11.042c.304 0 .552.247.552.552v1.104a.552.552 0 0 1-.552.552Z" fill="#FFFBEA"/><path d="M44.167 2.208V7.73H0V2.21C0 .993.994 0 2.208 0h39.75c1.215 0 2.209.994 2.209 2.208Z" fill="#806D16"/><path d="M13.802 5.521h27.604a.552.552 0 0 0 .552-.552V2.76a.552.552 0 0 0-.552-.553H13.802a.552.552 0 0 0-.552.553v2.208c0 .305.247.552.552.552Zm-9.937 0a1.656 1.656 0 1 0 0-3.313 1.656 1.656 0 0 0 0 3.313Zm5.521 0a1.656 1.656 0 1 0 0-3.312 1.656 1.656 0 0 0 0 3.312Z" fill="#FFED96"/><path d="M19.016 14.354H5.276a.859.859 0 0 0-.859.859v13.74c0 .475.384.86.859.86h13.74a.859.859 0 0 0 .86-.86v-13.74a.859.859 0 0 0-.86-.859Z" fill="#806D16"/><path d="M15.608 21.681a1.287 1.287 0 0 0-1.796-.024l-4.242 4.02v4.135h9.447a.858.858 0 0 0 .858-.859v-3.005l-4.267-4.267Z" fill="#FFED96"/><path d="M16.563 18.77a1.104 1.104 0 1 0 0-2.207 1.104 1.104 0 0 0 0 2.208Z" fill="#FFDA2D"/><path d="M5.276 29.812h13.74a.857.857 0 0 0 .782-.506l-9.341-9.342a1.287 1.287 0 0 0-1.797-.024l-4.243 4.02v4.993c0 .475.384.86.859.86Z" fill="#FFED96"/></svg>