<svg width="26" height="26" fill="none" xmlns="http://www.w3.org/2000/svg"><circle cx="13" cy="13" r="12" stroke="#E4E5E7" stroke-width="2"/><path d="M13 25c6.627 0 12-5.373 12-12S19.627 1 13 1" stroke="#0D6EFD" stroke-width="2" stroke-linecap="round"/><path d="M6.548 15.58h3.448V17h1.048v-1.42h.962v-.93h-.962V9.726H9.69l-3.143 4.965v.887Zm3.455-.93H7.698v-.058l2.248-3.558h.057v3.615Zm5.772 2.47c1.68 0 2.664-1.37 2.664-3.753 0-2.365-.998-3.74-2.664-3.74-1.669 0-2.663 1.372-2.666 3.74 0 2.38.983 3.75 2.666 3.754Zm0-.947c-.983 0-1.576-.988-1.576-2.806.003-1.81.596-2.809 1.576-2.809.977 0 1.574.998 1.574 2.81 0 1.817-.593 2.805-1.574 2.805Z" fill="#BDC1C6"/></svg>