<svg width="16" height="10" fill="none" xmlns="http://www.w3.org/2000/svg"><path fill-rule="evenodd" clip-rule="evenodd" d="M16 .498a.498.498 0 0 1-.498.499H3.672a.498.498 0 1 1 0-.997h11.83c.275 0 .498.223.498.498Zm0 4.252a.498.498 0 0 1-.498.498H7.947a.498.498 0 0 1 0-.996h7.555c.275 0 .498.223.498.498Zm0 4.252a.498.498 0 0 1-.498.498H3.672a.498.498 0 1 1 0-.996h11.83c.275 0 .498.223.498.498Z" fill="#202124"/><path d="m.147 3.33 1.428 1.42L.147 6.17a.5.5 0 1 0 .705.708l1.785-1.776a.496.496 0 0 0 0-.704L.852 2.622a.5.5 0 1 0-.705.709Z" fill="#202124"/></svg>