<svg width="13" height="12" fill="none" xmlns="http://www.w3.org/2000/svg"><path d="M4.691.85a.516.516 0 0 0-.516-.517H2.941l-.07.002c-.913.037-1.636.802-1.636 1.734v2.562L.152 5.707l-.033.037a.516.516 0 0 0 .033.695l1.083 1.076v2.416c0 .932.723 1.697 1.635 1.734l.071.002h1.234a.516.516 0 0 0 .047-1.03l-.047-.002H2.941a.687.687 0 0 1-.672-.654l-.002-.05V7.355a.514.514 0 0 0-.055-.232.514.514 0 0 0-.132-.223l-.832-.827.832-.827.033-.037a.515.515 0 0 0 .117-.373.515.515 0 0 0 .037-.191V2.069l.002-.05a.687.687 0 0 1 .672-.654h1.234l.047-.002a.516.516 0 0 0 .47-.514Zm5.304 4.36a.515.515 0 0 1-.117-.374.515.515 0 0 1-.037-.191V2.069l-.002-.05a.687.687 0 0 0-.672-.654H7.933l-.047-.002a.516.516 0 0 1 .047-1.03h1.234l.07.002c.913.037 1.636.802 1.636 1.734v2.562l1.083 1.076.033.037a.516.516 0 0 1-.033.695l-1.083 1.076v2.416c0 .932-.723 1.697-1.636 1.734l-.07.002H7.933a.516.516 0 0 1-.047-1.03l.047-.002h1.234a.687.687 0 0 0 .672-.654l.002-.05V7.355c0-.083.02-.162.055-.232a.513.513 0 0 1 .132-.223l.832-.827-.832-.827-.033-.037Z" fill="#202124"/></svg>