<svg width="50" height="50" fill="none" xmlns="http://www.w3.org/2000/svg"><g clip-path="url(#a)"><path d="M41.667 46.875H8.333V3.125H31.25l10.417 10.417v33.333Z" fill="#90CAF9"/><path d="M42 14H31V3l11 11Z" fill="#E1F5FE"/><path d="m39.086 41.167 2.081-2.082L50 47.917l-2.081 2.081-8.832-8.831Z" fill="#616161"/><path d="M43.75 32.291c0 6.327-5.13 11.459-11.458 11.459s-11.459-5.132-11.459-11.46 5.13-11.458 11.459-11.458c6.328 0 11.458 5.131 11.458 11.458Z" fill="#616161"/><path d="M41.666 32.292a9.374 9.374 0 0 1-9.374 9.375 9.374 9.374 0 0 1-9.376-9.375 9.374 9.374 0 0 1 9.375-9.375 9.374 9.374 0 0 1 9.376 9.375Z" fill="#90CAF9"/><path d="m41.522 43.602 2.08-2.084 6.401 6.394-2.081 2.084-6.4-6.394Z" fill="#37474F"/></g><defs><clipPath id="a"><path fill="#fff" d="M0 0h50v50H0z"/></clipPath></defs></svg>