<svg width="47" height="47" fill="none" xmlns="http://www.w3.org/2000/svg"><path d="M47 23.5C47 36.478 36.478 47 23.5 47S0 36.478 0 23.5 10.522 0 23.5 0 47 10.522 47 23.5Z" fill="#0D6EFD"/><path d="M43.475 23.5c0-2.896-.469-5.661-1.288-8.225h3.303c-.3-.805-.641-1.59-1.026-2.35h-3.15C38.016 5.27 31.28 0 23.5 0 15.72 0 8.983 5.27 5.686 12.925H2.535c-.385.76-.724 1.545-1.026 2.35h3.303A27.035 27.035 0 0 0 3.525 23.5c0 2.896.469 5.661 1.288 8.225H1.51c.3.805.642 1.59 1.026 2.35h3.151C8.984 41.73 15.722 47 23.501 47c7.78 0 14.517-5.27 17.814-12.925h3.152c.384-.76.724-1.545 1.026-2.35H42.19a27.068 27.068 0 0 0 1.285-8.225Zm-2.35 0c0 2.915-.495 5.695-1.388 8.225h-7.413A58.79 58.79 0 0 0 32.9 23.5c0-2.761-.195-5.562-.576-8.225h7.413a24.717 24.717 0 0 1 1.388 8.225ZM23.5 44.65c-2.275 0-4.725-4.048-6.053-10.575h12.107c-1.33 6.527-3.78 10.575-6.054 10.575Zm-6.462-12.925a55.961 55.961 0 0 1-.588-8.225c0-2.983.218-5.742.588-8.225h12.925c.37 2.483.587 5.242.587 8.225 0 2.983-.217 5.742-.587 8.225H17.038ZM23.5 2.35c2.275 0 4.725 4.048 6.054 10.575H17.447C18.774 6.398 21.224 2.35 23.5 2.35Zm15.24 10.575h-6.806c-.75-3.913-1.93-7.37-3.518-9.72 4.392 1.534 8.073 5.065 10.324 9.72Zm-20.156-9.72c-1.586 2.352-2.767 5.807-3.518 9.72H8.26c2.252-4.655 5.932-8.186 10.324-9.72ZM5.875 23.5c0-2.915.495-5.695 1.388-8.225h7.413A58.677 58.677 0 0 0 14.1 23.5c0 2.761.195 5.563.576 8.225H7.263A24.717 24.717 0 0 1 5.875 23.5ZM8.26 34.075h6.806c.75 3.913 1.93 7.37 3.518 9.72-4.392-1.534-8.072-5.065-10.324-9.72Zm20.156 9.72c1.587-2.352 2.767-5.807 3.518-9.72h6.806c-2.252 4.655-5.932 8.186-10.324 9.72Z" fill="#85B7FE"/><path opacity=".1" d="m36.736 31.031-9.277-9.276a1.614 1.614 0 0 0-1.797-.345c-.6.258-.986.845-.986 1.497v13.275c0 1.533 1.637 2.161 2.69 1.259l1.86-1.55L30.62 39.1c.268.61 1.183 1.2 2.146.842l1.58-.687c.83-.353 1.278-1.216.847-2.146l-1.353-3.116 1.882-.169c1.5 0 2.055-1.76 1.014-2.792Z" fill="#000"/><path opacity=".1" d="m36.32 31.446-9.277-9.277a1.034 1.034 0 0 0-1.15-.22 1.04 1.04 0 0 0-.63.957v13.275c0 .964 1.048 1.386 1.726.808l2.461-2.053 1.707 3.927c.183.42.775.767 1.372.54l1.581-.688c.532-.227.808-.792.542-1.373l-1.679-3.862 2.694-.24c.948-.02 1.313-1.138.652-1.794Z" fill="#000"/><path d="m35.904 31.735-9.277-9.276a.448.448 0 0 0-.503-.096.449.449 0 0 0-.273.418v13.274c0 .393.459.608.762.357l3.065-2.556 2.018 4.645c.1.23.37.336.6.236l1.582-.688c.23-.1.336-.37.236-.6l-2.003-4.61 3.506-.313a.464.464 0 0 0 .287-.79Z" fill="#fff"/></svg>