<?xml version="1.0" encoding="UTF-8" standalone="no"?>
<!DOCTYPE svg PUBLIC "-//W3C//DTD SVG 1.1//EN"
 "http://www.w3.org/Graphics/SVG/1.1/DTD/svg11.dtd">
<!-- Generated by graphviz version 5.0.0 (20220707.1540)
 -->
<!-- Title: dependencies Pages: 1 -->
<svg width="548pt" height="174pt"
 viewBox="0.00 0.00 548.00 173.80" xmlns="http://www.w3.org/2000/svg" xmlns:xlink="http://www.w3.org/1999/xlink">
<g id="graph0" class="graph" transform="scale(1 1) rotate(0) translate(4 169.8)">
<title>dependencies</title>
<polygon fill="white" stroke="transparent" points="-4,4 -4,-169.8 544,-169.8 544,4 -4,4"/>
<text text-anchor="middle" x="270" y="-8.2" font-family="sans-serif" font-size="14.00">dependencies</text>
<g id="clust1" class="cluster">
<title>cluster_PresentableModule</title>
<polygon fill="none" stroke="black" stroke-dasharray="1,5" points="8,-32.8 8,-157.8 532,-157.8 532,-32.8 8,-32.8"/>
</g>
<g id="clust2" class="cluster">
<title>cluster_PresentableModule_declarations</title>
<polygon fill="none" stroke="black" points="362,-40.8 362,-92.8 524,-92.8 524,-40.8 362,-40.8"/>
</g>
<g id="clust4" class="cluster">
<title>cluster_PresentableModule_imports</title>
<polygon fill="none" stroke="black" points="16,-40.8 16,-92.8 354,-92.8 354,-40.8 16,-40.8"/>
</g>
<!-- PresentableComponent -->
<g id="node1" class="node">
<title>PresentableComponent</title>
<polygon fill="#ffffb3" stroke="black" points="515.86,-84.8 370.14,-84.8 370.14,-48.8 515.86,-48.8 515.86,-84.8"/>
<text text-anchor="middle" x="443" y="-62.6" font-family="Times,serif" font-size="14.00">PresentableComponent</text>
</g>
<!-- PresentableModule -->
<g id="node2" class="node">
<title>PresentableModule</title>
<polygon fill="#8dd3c7" stroke="black" points="341.08,-149.8 338.08,-153.8 317.08,-153.8 314.08,-149.8 216.92,-149.8 216.92,-113.8 341.08,-113.8 341.08,-149.8"/>
<text text-anchor="middle" x="279" y="-127.6" font-family="Times,serif" font-size="14.00">PresentableModule</text>
</g>
<!-- PresentableComponent&#45;&gt;PresentableModule -->
<g id="edge1" class="edge">
<title>PresentableComponent&#45;&gt;PresentableModule</title>
<path fill="none" stroke="black" d="M443,-84.91C443,-104.14 443,-131.8 443,-131.8 443,-131.8 351.47,-131.8 351.47,-131.8"/>
<polygon fill="black" stroke="black" points="351.47,-128.3 341.47,-131.8 351.47,-135.3 351.47,-128.3"/>
</g>
<!-- FindlySharedModule -->
<g id="node3" class="node">
<title>FindlySharedModule</title>
<polygon fill="#8dd3c7" stroke="black" points="346.49,-84.8 343.49,-88.8 322.49,-88.8 319.49,-84.8 211.51,-84.8 211.51,-48.8 346.49,-48.8 346.49,-84.8"/>
<text text-anchor="middle" x="279" y="-62.6" font-family="Times,serif" font-size="14.00">FindlySharedModule</text>
</g>
<!-- FindlySharedModule&#45;&gt;PresentableModule -->
<g id="edge2" class="edge">
<title>FindlySharedModule&#45;&gt;PresentableModule</title>
<path fill="none" stroke="black" d="M279,-84.91C279,-84.91 279,-103.79 279,-103.79"/>
<polygon fill="black" stroke="black" points="275.5,-103.79 279,-113.79 282.5,-103.79 275.5,-103.79"/>
</g>
<!-- PresentableRoutingModule -->
<g id="node4" class="node">
<title>PresentableRoutingModule</title>
<polygon fill="#8dd3c7" stroke="black" points="193.7,-84.8 190.7,-88.8 169.7,-88.8 166.7,-84.8 24.3,-84.8 24.3,-48.8 193.7,-48.8 193.7,-84.8"/>
<text text-anchor="middle" x="109" y="-62.6" font-family="Times,serif" font-size="14.00">PresentableRoutingModule</text>
</g>
<!-- PresentableRoutingModule&#45;&gt;PresentableModule -->
<g id="edge3" class="edge">
<title>PresentableRoutingModule&#45;&gt;PresentableModule</title>
<path fill="none" stroke="black" d="M109,-84.91C109,-104.14 109,-131.8 109,-131.8 109,-131.8 206.66,-131.8 206.66,-131.8"/>
<polygon fill="black" stroke="black" points="206.66,-135.3 216.66,-131.8 206.66,-128.3 206.66,-135.3"/>
</g>
</g>
</svg>
