<svg width="127" height="169" viewBox="0 0 127 169" fill="none" xmlns="http://www.w3.org/2000/svg">
<g filter="url(#filter0_d_477:13452)">
<rect x="6" y="6.34961" width="115" height="156" rx="4" fill="white"/>
<rect x="6.25" y="6.59961" width="114.5" height="155.5" rx="3.75" stroke="#E7F1FF" stroke-width="0.5"/>
</g>
<rect x="15" y="80.3496" width="97" height="16" fill="#EFF0F1"/>
<rect x="15" y="99.3496" width="97" height="4" fill="#EFF0F1"/>
<rect x="15" y="105.35" width="97" height="4" fill="#EFF0F1"/>
<rect x="15" y="111.35" width="97" height="4" fill="#EFF0F1"/>
<rect x="59" y="141.35" width="53" height="12" fill="#EFF0F1"/>
<rect x="15" y="15.3496" width="97" height="60" rx="2" fill="#EFF0F1"/>
<path fill-rule="evenodd" clip-rule="evenodd" d="M54.2188 35.7246C52.8279 35.7246 51.6875 36.865 51.6875 38.2559V53.4434C51.6875 54.8342 52.8279 55.9746 54.2188 55.9746H72.7812C74.1721 55.9746 75.3125 54.8342 75.3125 53.4434V38.2559C75.3125 36.865 74.1721 35.7246 72.7812 35.7246H54.2188ZM54.2188 37.4121H72.7812C73.2559 37.4121 73.625 37.7812 73.625 38.2559V50.5166L68.087 44.6699C67.8854 44.4571 67.5448 44.4626 67.3502 44.6818L64.4163 47.9854L59.7089 43.0215C59.5072 42.8089 59.1668 42.8145 58.9722 43.0336L53.375 49.3367V38.2559C53.375 37.7812 53.7441 37.4121 54.2188 37.4121ZM68.5625 39.0996C67.6331 39.0996 66.875 39.8577 66.875 40.7871C66.875 41.7166 67.6331 42.4746 68.5625 42.4746C69.4919 42.4746 70.25 41.7166 70.25 40.7871C70.25 39.8577 69.4919 39.0996 68.5625 39.0996ZM59.3735 45.1179L68.0681 54.2871H54.2188C53.7441 54.2871 53.375 53.918 53.375 53.4434V51.8811L59.3735 45.1179ZM67.7451 46.7725L73.625 52.9688V53.4434C73.625 53.918 73.2559 54.2871 72.7812 54.2871H70.3884L65.583 49.2114L67.7451 46.7725Z" fill="#BDC1C6"/>
<rect x="34" y="122.35" width="78" height="4" fill="#EFF0F1"/>
<rect x="34" y="128.35" width="78" height="4" fill="#EFF0F1"/>
<path fill-rule="evenodd" clip-rule="evenodd" d="M17.6562 120.6C16.7805 120.6 16.0625 121.36 16.0625 122.287V132.412C16.0625 133.339 16.7805 134.1 17.6562 134.1H29.3438C30.2195 134.1 30.9375 133.339 30.9375 132.412V122.287C30.9375 121.36 30.2195 120.6 29.3438 120.6H17.6562ZM17.6562 121.725H29.3438C29.6426 121.725 29.875 121.971 29.875 122.287V130.461L26.5369 126.729C26.3339 126.503 25.9769 126.508 25.7812 126.742L24.0769 128.773L21.2618 125.63C21.0587 125.404 20.7019 125.409 20.5063 125.643L17.125 129.674V122.287C17.125 121.971 17.3574 121.725 17.6562 121.725ZM26.6875 122.85C26.1023 122.85 25.625 123.355 25.625 123.975C25.625 124.594 26.1023 125.1 26.6875 125.1C27.2727 125.1 27.75 124.594 27.75 123.975C27.75 123.355 27.2727 122.85 26.6875 122.85ZM20.9019 126.862L26.3762 132.975H17.6562C17.3574 132.975 17.125 132.729 17.125 132.412V131.371L20.9019 126.862ZM26.1729 127.965L29.875 132.096V132.412C29.875 132.729 29.6426 132.975 29.3438 132.975H27.8372L24.8115 129.591L26.1729 127.965Z" fill="#BDC1C6"/>
<defs>
<filter id="filter0_d_477:13452" x="0" y="0.349609" width="127" height="168" filterUnits="userSpaceOnUse" color-interpolation-filters="sRGB">
<feFlood flood-opacity="0" result="BackgroundImageFix"/>
<feColorMatrix in="SourceAlpha" type="matrix" values="0 0 0 0 0 0 0 0 0 0 0 0 0 0 0 0 0 0 127 0" result="hardAlpha"/>
<feOffset/>
<feGaussianBlur stdDeviation="3"/>
<feColorMatrix type="matrix" values="0 0 0 0 0 0 0 0 0 0 0 0 0 0 0 0 0 0 0.1 0"/>
<feBlend mode="normal" in2="BackgroundImageFix" result="effect1_dropShadow_477:13452"/>
<feBlend mode="normal" in="SourceGraphic" in2="effect1_dropShadow_477:13452" result="shape"/>
</filter>
</defs>
</svg>
