<svg width="127" height="163" viewBox="0 0 127 163" fill="none" xmlns="http://www.w3.org/2000/svg">
<g filter="url(#filter0_d)">
<rect x="6" y="6.69775" width="115" height="156" rx="4" fill="white"/>
<rect x="6.25" y="6.94775" width="114.5" height="155.5" rx="3.75" stroke="#0D6EFD" stroke-width="0.5"/>
</g>
<rect x="15" y="80.6978" width="97" height="16" fill="#EFF0F1"/>
<rect x="15" y="99.6978" width="97" height="4" fill="#EFF0F1"/>
<rect x="15" y="105.698" width="97" height="4" fill="#EFF0F1"/>
<rect x="15" y="111.698" width="97" height="4" fill="#EFF0F1"/>
<rect x="59" y="141.698" width="53" height="12" fill="#EFF0F1"/>
<rect x="15" y="15.6978" width="97" height="60" rx="2" fill="#EFF0F1"/>
<path fill-rule="evenodd" clip-rule="evenodd" d="M54.2188 36.0728C52.8279 36.0728 51.6875 37.2131 51.6875 38.604V53.7915C51.6875 55.1824 52.8279 56.3228 54.2188 56.3228H72.7812C74.1721 56.3228 75.3125 55.1824 75.3125 53.7915V38.604C75.3125 37.2131 74.1721 36.0728 72.7812 36.0728H54.2188ZM54.2188 37.7603H72.7812C73.2559 37.7603 73.625 38.1294 73.625 38.604V50.8647L68.087 45.0181C67.8854 44.8053 67.5448 44.8107 67.3502 45.0299L64.4163 48.3335L59.7089 43.3697C59.5072 43.1571 59.1668 43.1626 58.9722 43.3817L53.375 49.6848V38.604C53.375 38.1294 53.7441 37.7603 54.2188 37.7603ZM68.5625 39.4478C67.6331 39.4478 66.875 40.2058 66.875 41.1353C66.875 42.0647 67.6331 42.8228 68.5625 42.8228C69.4919 42.8228 70.25 42.0647 70.25 41.1353C70.25 40.2058 69.4919 39.4478 68.5625 39.4478ZM59.3735 45.4661L68.0681 54.6353H54.2188C53.7441 54.6353 53.375 54.2661 53.375 53.7915V52.2292L59.3735 45.4661ZM67.7451 47.1206L73.625 53.3169V53.7915C73.625 54.2661 73.2559 54.6353 72.7812 54.6353H70.3884L65.583 49.5596L67.7451 47.1206Z" fill="#BDC1C6"/>
<rect x="34" y="122.698" width="78" height="4" fill="#EFF0F1"/>
<rect x="34" y="128.698" width="78" height="4" fill="#EFF0F1"/>
<path fill-rule="evenodd" clip-rule="evenodd" d="M17.6562 120.948C16.7805 120.948 16.0625 121.708 16.0625 122.635V132.76C16.0625 133.688 16.7805 134.448 17.6562 134.448H29.3438C30.2195 134.448 30.9375 133.688 30.9375 132.76V122.635C30.9375 121.708 30.2195 120.948 29.3438 120.948H17.6562ZM17.6562 122.073H29.3438C29.6426 122.073 29.875 122.319 29.875 122.635V130.809L26.5369 127.078C26.3339 126.851 25.9769 126.856 25.7812 127.09L24.0769 129.122L21.2618 125.979C21.0587 125.752 20.7019 125.758 20.5063 125.991L17.125 130.022V122.635C17.125 122.319 17.3574 122.073 17.6562 122.073ZM26.6875 123.198C26.1023 123.198 25.625 123.703 25.625 124.323C25.625 124.942 26.1023 125.448 26.6875 125.448C27.2727 125.448 27.75 124.942 27.75 124.323C27.75 123.703 27.2727 123.198 26.6875 123.198ZM20.9019 127.21L26.3762 133.323H17.6562C17.3574 133.323 17.125 133.077 17.125 132.76V131.719L20.9019 127.21ZM26.1729 128.313L29.875 132.444V132.76C29.875 133.077 29.6426 133.323 29.3438 133.323H27.8372L24.8115 129.939L26.1729 128.313Z" fill="#BDC1C6"/>
<defs>
<filter id="filter0_d" x="0" y="0.697754" width="127" height="168" filterUnits="userSpaceOnUse" color-interpolation-filters="sRGB">
<feFlood flood-opacity="0" result="BackgroundImageFix"/>
<feColorMatrix in="SourceAlpha" type="matrix" values="0 0 0 0 0 0 0 0 0 0 0 0 0 0 0 0 0 0 127 0" result="hardAlpha"/>
<feOffset/>
<feGaussianBlur stdDeviation="3"/>
<feColorMatrix type="matrix" values="0 0 0 0 0 0 0 0 0 0 0 0 0 0 0 0 0 0 0.1 0"/>
<feBlend mode="normal" in2="BackgroundImageFix" result="effect1_dropShadow"/>
<feBlend mode="normal" in="SourceGraphic" in2="effect1_dropShadow" result="shape"/>
</filter>
</defs>
</svg>
