<svg width="127" height="130" viewBox="0 0 127 130" fill="none" xmlns="http://www.w3.org/2000/svg">
<g filter="url(#filter0_d_1838_20270)">
<rect x="6" y="6.69775" width="115" height="117" rx="4" fill="white"/>
<rect x="6.25" y="6.94775" width="114.5" height="116.5" rx="3.75" stroke="#E7F1FF" stroke-width="0.5"/>
</g>
<rect x="15" y="102.698" width="97" height="4" fill="#EFF0F1"/>
<rect x="15" y="108.698" width="97" height="4" fill="#EFF0F1"/>
<rect x="15" y="16.6978" width="97" height="14" fill="#EFF0F1"/>
<rect x="38" y="83.6987" width="73" height="4" fill="#EFF0F1"/>
<rect x="38" y="89.6987" width="73" height="4" fill="#EFF0F1"/>
<path fill-rule="evenodd" clip-rule="evenodd" d="M16.125 81.1978C15.0947 81.1978 14.25 82.0425 14.25 83.0728V94.3228C14.25 95.353 15.0947 96.1978 16.125 96.1978H29.875C30.9053 96.1978 31.75 95.353 31.75 94.3228V83.0728C31.75 82.0425 30.9053 81.1978 29.875 81.1978H16.125ZM16.125 82.4478H29.875C30.2266 82.4478 30.5 82.7212 30.5 83.0728V92.1548L26.495 87.9265C26.2934 87.7137 25.9528 87.7192 25.7581 87.9384L23.6787 90.2798L20.289 86.7054C20.0873 86.4928 19.7469 86.4983 19.5523 86.7174L15.5 91.2808V83.0728C15.5 82.7212 15.7734 82.4478 16.125 82.4478ZM26.75 83.6978C26.0615 83.6978 25.5 84.2593 25.5 84.9478C25.5 85.6362 26.0615 86.1978 26.75 86.1978C27.4385 86.1978 28 85.6362 28 84.9478C28 84.2593 27.4385 83.6978 26.75 83.6978ZM19.9434 88.1558L26.3838 94.9478H16.125C15.7734 94.9478 15.5 94.6743 15.5 94.3228V93.1655L19.9434 88.1558ZM26.1445 89.3813L30.5 93.9712V94.3228C30.5 94.6743 30.2266 94.9478 29.875 94.9478H28.1025L24.543 91.188L26.1445 89.3813Z" fill="#BDC1C6"/>
<rect x="38" y="39.6978" width="73" height="4" fill="#EFF0F1"/>
<rect x="38" y="45.6978" width="73" height="4" fill="#EFF0F1"/>
<path fill-rule="evenodd" clip-rule="evenodd" d="M16.125 37.1978C15.0947 37.1978 14.25 38.0425 14.25 39.0728V50.3228C14.25 51.353 15.0947 52.1978 16.125 52.1978H29.875C30.9053 52.1978 31.75 51.353 31.75 50.3228V39.0728C31.75 38.0425 30.9053 37.1978 29.875 37.1978H16.125ZM16.125 38.4478H29.875C30.2266 38.4478 30.5 38.7212 30.5 39.0728V48.1548L26.495 43.9265C26.2934 43.7137 25.9528 43.7192 25.7581 43.9384L23.6787 46.2798L20.289 42.7054C20.0873 42.4928 19.7469 42.4983 19.5523 42.7174L15.5 47.2808V39.0728C15.5 38.7212 15.7734 38.4478 16.125 38.4478ZM26.75 39.6978C26.0615 39.6978 25.5 40.2593 25.5 40.9478C25.5 41.6362 26.0615 42.1978 26.75 42.1978C27.4385 42.1978 28 41.6362 28 40.9478C28 40.2593 27.4385 39.6978 26.75 39.6978ZM19.9434 44.1558L26.3838 50.9478H16.125C15.7734 50.9478 15.5 50.6743 15.5 50.3228V49.1655L19.9434 44.1558ZM26.1445 45.3813L30.5 49.9712V50.3228C30.5 50.6743 30.2266 50.9478 29.875 50.9478H28.1025L24.543 47.188L26.1445 45.3813Z" fill="#BDC1C6"/>
<rect x="38" y="61.6978" width="73" height="4" fill="#EFF0F1"/>
<rect x="38" y="67.6978" width="73" height="4" fill="#EFF0F1"/>
<path fill-rule="evenodd" clip-rule="evenodd" d="M16.125 59.1978C15.0947 59.1978 14.25 60.0425 14.25 61.0728V72.3228C14.25 73.353 15.0947 74.1978 16.125 74.1978H29.875C30.9053 74.1978 31.75 73.353 31.75 72.3228V61.0728C31.75 60.0425 30.9053 59.1978 29.875 59.1978H16.125ZM16.125 60.4478H29.875C30.2266 60.4478 30.5 60.7212 30.5 61.0728V70.1548L26.495 65.9265C26.2934 65.7137 25.9528 65.7192 25.7581 65.9384L23.6787 68.2798L20.289 64.7054C20.0873 64.4928 19.7469 64.4983 19.5523 64.7174L15.5 69.2808V61.0728C15.5 60.7212 15.7734 60.4478 16.125 60.4478ZM26.75 61.6978C26.0615 61.6978 25.5 62.2593 25.5 62.9478C25.5 63.6362 26.0615 64.1978 26.75 64.1978C27.4385 64.1978 28 63.6362 28 62.9478C28 62.2593 27.4385 61.6978 26.75 61.6978ZM19.9434 66.1558L26.3838 72.9478H16.125C15.7734 72.9478 15.5 72.6743 15.5 72.3228V71.1655L19.9434 66.1558ZM26.1445 67.3813L30.5 71.9712V72.3228C30.5 72.6743 30.2266 72.9478 29.875 72.9478H28.1025L24.543 69.188L26.1445 67.3813Z" fill="#BDC1C6"/>
<defs>
<filter id="filter0_d_1838_20270" x="0" y="0.697754" width="127" height="129" filterUnits="userSpaceOnUse" color-interpolation-filters="sRGB">
<feFlood flood-opacity="0" result="BackgroundImageFix"/>
<feColorMatrix in="SourceAlpha" type="matrix" values="0 0 0 0 0 0 0 0 0 0 0 0 0 0 0 0 0 0 127 0" result="hardAlpha"/>
<feOffset/>
<feGaussianBlur stdDeviation="3"/>
<feColorMatrix type="matrix" values="0 0 0 0 0 0 0 0 0 0 0 0 0 0 0 0 0 0 0.1 0"/>
<feBlend mode="normal" in2="BackgroundImageFix" result="effect1_dropShadow_1838_20270"/>
<feBlend mode="normal" in="SourceGraphic" in2="effect1_dropShadow_1838_20270" result="shape"/>
</filter>
</defs>
</svg>
