<svg width="127" height="130" viewBox="0 0 127 130" fill="none" xmlns="http://www.w3.org/2000/svg">
<g filter="url(#filter0_d)">
<rect x="6" y="6.02344" width="115" height="117" rx="4" fill="white"/>
<rect x="6.25" y="6.27344" width="114.5" height="116.5" rx="3.75" stroke="#E7F1FF" stroke-width="0.5"/>
</g>
<rect x="15" y="102.023" width="97" height="4" fill="#EFF0F1"/>
<rect x="15" y="108.023" width="97" height="4" fill="#EFF0F1"/>
<rect x="15" y="16.0234" width="97" height="14" fill="#EFF0F1"/>
<rect x="38" y="83.0244" width="73" height="4" fill="#EFF0F1"/>
<rect x="38" y="89.0244" width="73" height="4" fill="#EFF0F1"/>
<path fill-rule="evenodd" clip-rule="evenodd" d="M16.125 80.5234C15.0947 80.5234 14.25 81.3682 14.25 82.3984V93.6484C14.25 94.6787 15.0947 95.5234 16.125 95.5234H29.875C30.9053 95.5234 31.75 94.6787 31.75 93.6484V82.3984C31.75 81.3682 30.9053 80.5234 29.875 80.5234H16.125ZM16.125 81.7734H29.875C30.2266 81.7734 30.5 82.0469 30.5 82.3984V91.4805L26.495 87.2522C26.2934 87.0394 25.9528 87.0448 25.7581 87.264L23.6787 89.6055L20.289 86.0311C20.0873 85.8184 19.7469 85.824 19.5523 86.0431L15.5 90.6064V82.3984C15.5 82.0469 15.7734 81.7734 16.125 81.7734ZM26.75 83.0234C26.0615 83.0234 25.5 83.585 25.5 84.2734C25.5 84.9619 26.0615 85.5234 26.75 85.5234C27.4385 85.5234 28 84.9619 28 84.2734C28 83.585 27.4385 83.0234 26.75 83.0234ZM19.9434 87.4814L26.3838 94.2734H16.125C15.7734 94.2734 15.5 94 15.5 93.6484V92.4912L19.9434 87.4814ZM26.1445 88.707L30.5 93.2969V93.6484C30.5 94 30.2266 94.2734 29.875 94.2734H28.1025L24.543 90.5137L26.1445 88.707Z" fill="#BDC1C6"/>
<rect x="38" y="39.0234" width="73" height="4" fill="#EFF0F1"/>
<rect x="38" y="45.0234" width="73" height="4" fill="#EFF0F1"/>
<path fill-rule="evenodd" clip-rule="evenodd" d="M16.125 36.5234C15.0947 36.5234 14.25 37.3682 14.25 38.3984V49.6484C14.25 50.6787 15.0947 51.5234 16.125 51.5234H29.875C30.9053 51.5234 31.75 50.6787 31.75 49.6484V38.3984C31.75 37.3682 30.9053 36.5234 29.875 36.5234H16.125ZM16.125 37.7734H29.875C30.2266 37.7734 30.5 38.0469 30.5 38.3984V47.4805L26.495 43.2522C26.2934 43.0394 25.9528 43.0448 25.7581 43.264L23.6787 45.6055L20.289 42.0311C20.0873 41.8184 19.7469 41.824 19.5523 42.0431L15.5 46.6064V38.3984C15.5 38.0469 15.7734 37.7734 16.125 37.7734ZM26.75 39.0234C26.0615 39.0234 25.5 39.585 25.5 40.2734C25.5 40.9619 26.0615 41.5234 26.75 41.5234C27.4385 41.5234 28 40.9619 28 40.2734C28 39.585 27.4385 39.0234 26.75 39.0234ZM19.9434 43.4814L26.3838 50.2734H16.125C15.7734 50.2734 15.5 50 15.5 49.6484V48.4912L19.9434 43.4814ZM26.1445 44.707L30.5 49.2969V49.6484C30.5 50 30.2266 50.2734 29.875 50.2734H28.1025L24.543 46.5137L26.1445 44.707Z" fill="#BDC1C6"/>
<rect x="38" y="61.0234" width="73" height="4" fill="#EFF0F1"/>
<rect x="38" y="67.0234" width="73" height="4" fill="#EFF0F1"/>
<path fill-rule="evenodd" clip-rule="evenodd" d="M16.125 58.5234C15.0947 58.5234 14.25 59.3682 14.25 60.3984V71.6484C14.25 72.6787 15.0947 73.5234 16.125 73.5234H29.875C30.9053 73.5234 31.75 72.6787 31.75 71.6484V60.3984C31.75 59.3682 30.9053 58.5234 29.875 58.5234H16.125ZM16.125 59.7734H29.875C30.2266 59.7734 30.5 60.0469 30.5 60.3984V69.4805L26.495 65.2522C26.2934 65.0394 25.9528 65.0448 25.7581 65.264L23.6787 67.6055L20.289 64.0311C20.0873 63.8184 19.7469 63.824 19.5523 64.0431L15.5 68.6064V60.3984C15.5 60.0469 15.7734 59.7734 16.125 59.7734ZM26.75 61.0234C26.0615 61.0234 25.5 61.585 25.5 62.2734C25.5 62.9619 26.0615 63.5234 26.75 63.5234C27.4385 63.5234 28 62.9619 28 62.2734C28 61.585 27.4385 61.0234 26.75 61.0234ZM19.9434 65.4814L26.3838 72.2734H16.125C15.7734 72.2734 15.5 72 15.5 71.6484V70.4912L19.9434 65.4814ZM26.1445 66.707L30.5 71.2969V71.6484C30.5 72 30.2266 72.2734 29.875 72.2734H28.1025L24.543 68.5137L26.1445 66.707Z" fill="#BDC1C6"/>
<defs>
<filter id="filter0_d" x="0" y="0.0234375" width="127" height="129" filterUnits="userSpaceOnUse" color-interpolation-filters="sRGB">
<feFlood flood-opacity="0" result="BackgroundImageFix"/>
<feColorMatrix in="SourceAlpha" type="matrix" values="0 0 0 0 0 0 0 0 0 0 0 0 0 0 0 0 0 0 127 0" result="hardAlpha"/>
<feOffset/>
<feGaussianBlur stdDeviation="3"/>
<feColorMatrix type="matrix" values="0 0 0 0 0 0 0 0 0 0 0 0 0 0 0 0 0 0 0.1 0"/>
<feBlend mode="normal" in2="BackgroundImageFix" result="effect1_dropShadow"/>
<feBlend mode="normal" in="SourceGraphic" in2="effect1_dropShadow" result="shape"/>
</filter>
</defs>
</svg>
