<?xml version="1.0" encoding="UTF-8" standalone="no"?>
<!DOCTYPE svg PUBLIC "-//W3C//DTD SVG 1.1//EN"
 "http://www.w3.org/Graphics/SVG/1.1/DTD/svg11.dtd">
<!-- Generated by graphviz version 5.0.0 (20220707.1540)
 -->
<!-- Title: dependencies Pages: 1 -->
<svg width="691pt" height="312pt"
 viewBox="0.00 0.00 691.00 311.80" xmlns="http://www.w3.org/2000/svg" xmlns:xlink="http://www.w3.org/1999/xlink">
<g id="graph0" class="graph" transform="scale(1 1) rotate(0) translate(4 307.8)">
<title>dependencies</title>
<polygon fill="white" stroke="transparent" points="-4,4 -4,-307.8 687,-307.8 687,4 -4,4"/>
<text text-anchor="middle" x="341.5" y="-8.2" font-family="sans-serif" font-size="14.00">dependencies</text>
<g id="clust1" class="cluster">
<title>cluster_AddFaqModule</title>
<polygon fill="none" stroke="black" stroke-dasharray="1,5" points="8,-32.8 8,-295.8 675,-295.8 675,-32.8 8,-32.8"/>
</g>
<g id="clust5" class="cluster">
<title>cluster_AddFaqModule_exports</title>
<polygon fill="none" stroke="black" points="251,-235.8 251,-287.8 397,-287.8 397,-235.8 251,-235.8"/>
</g>
<g id="clust4" class="cluster">
<title>cluster_AddFaqModule_imports</title>
<polygon fill="none" stroke="black" points="166,-105.8 166,-157.8 667,-157.8 667,-105.8 166,-105.8"/>
</g>
<g id="clust2" class="cluster">
<title>cluster_AddFaqModule_declarations</title>
<polygon fill="none" stroke="black" points="16,-105.8 16,-157.8 158,-157.8 158,-105.8 16,-105.8"/>
</g>
<g id="clust3" class="cluster">
<title>cluster_AddFaqModule_AddFaqComponent_providers</title>
<polygon fill="none" stroke="black" points="16,-40.8 16,-92.8 334,-92.8 334,-40.8 16,-40.8"/>
</g>
<!-- AddFaqComponent -->
<g id="node1" class="node">
<title>AddFaqComponent</title>
<polygon fill="#ffffb3" stroke="black" points="150.44,-149.8 23.56,-149.8 23.56,-113.8 150.44,-113.8 150.44,-149.8"/>
<text text-anchor="middle" x="87" y="-127.6" font-family="Times,serif" font-size="14.00">AddFaqComponent</text>
</g>
<!-- AddFaqModule -->
<g id="node2" class="node">
<title>AddFaqModule</title>
<polygon fill="#8dd3c7" stroke="black" points="376.16,-214.8 373.16,-218.8 352.16,-218.8 349.16,-214.8 271.84,-214.8 271.84,-178.8 376.16,-178.8 376.16,-214.8"/>
<text text-anchor="middle" x="324" y="-192.6" font-family="Times,serif" font-size="14.00">AddFaqModule</text>
</g>
<!-- AddFaqComponent&#45;&gt;AddFaqModule -->
<g id="edge1" class="edge">
<title>AddFaqComponent&#45;&gt;AddFaqModule</title>
<path fill="none" stroke="black" d="M87,-149.91C87,-169.14 87,-196.8 87,-196.8 87,-196.8 261.7,-196.8 261.7,-196.8"/>
<polygon fill="black" stroke="black" points="261.7,-200.3 271.7,-196.8 261.7,-193.3 261.7,-200.3"/>
</g>
<!-- AddFaqComponent  -->
<g id="node7" class="node">
<title>AddFaqComponent </title>
<polygon fill="#fb8072" stroke="black" points="388.94,-279.8 259.06,-279.8 259.06,-243.8 388.94,-243.8 388.94,-279.8"/>
<text text-anchor="middle" x="324" y="-257.6" font-family="Times,serif" font-size="14.00">AddFaqComponent </text>
</g>
<!-- AddFaqModule&#45;&gt;AddFaqComponent  -->
<g id="edge7" class="edge">
<title>AddFaqModule&#45;&gt;AddFaqComponent </title>
<path fill="none" stroke="black" stroke-dasharray="5,2" d="M324,-214.91C324,-214.91 324,-233.79 324,-233.79"/>
<polygon fill="black" stroke="black" points="320.5,-233.79 324,-243.79 327.5,-233.79 320.5,-233.79"/>
</g>
<!-- { provide: , useClass: FaqsService } -->
<g id="node3" class="node">
<title>{ provide: , useClass: FaqsService }</title>
<ellipse fill="#fdb462" stroke="black" cx="175" cy="-66.8" rx="150.81" ry="18"/>
<text text-anchor="middle" x="175" y="-62.6" font-family="Times,serif" font-size="14.00">{ provide: , useClass: FaqsService }</text>
</g>
<!-- { provide: , useClass: FaqsService }&#45;&gt;AddFaqComponent -->
<g id="edge2" class="edge">
<title>{ provide: , useClass: FaqsService }&#45;&gt;AddFaqComponent</title>
<path fill="none" stroke="black" d="M108.26,-83.2C108.26,-83.2 108.26,-103.34 108.26,-103.34"/>
<polygon fill="black" stroke="black" points="104.76,-103.34 108.26,-113.34 111.76,-103.34 104.76,-103.34"/>
</g>
<!-- { provide: , useClass: FaqsService }&#45;&gt;AddFaqComponent -->
<g id="edge3" class="edge">
<title>{ provide: , useClass: FaqsService }&#45;&gt;AddFaqComponent</title>
<path fill="none" stroke="black" d="M66.3,-79.33C66.3,-79.33 66.3,-103.65 66.3,-103.65"/>
<polygon fill="black" stroke="black" points="62.8,-103.65 66.3,-113.65 69.8,-103.65 62.8,-103.65"/>
</g>
<!-- AddAlternateQuestionModule -->
<g id="node4" class="node">
<title>AddAlternateQuestionModule</title>
<polygon fill="#8dd3c7" stroke="black" points="659.3,-149.8 656.3,-153.8 635.3,-153.8 632.3,-149.8 472.7,-149.8 472.7,-113.8 659.3,-113.8 659.3,-149.8"/>
<text text-anchor="middle" x="566" y="-127.6" font-family="Times,serif" font-size="14.00">AddAlternateQuestionModule</text>
</g>
<!-- AddAlternateQuestionModule&#45;&gt;AddFaqModule -->
<g id="edge4" class="edge">
<title>AddAlternateQuestionModule&#45;&gt;AddFaqModule</title>
<path fill="none" stroke="black" d="M566,-149.91C566,-169.14 566,-196.8 566,-196.8 566,-196.8 386.21,-196.8 386.21,-196.8"/>
<polygon fill="black" stroke="black" points="386.21,-193.3 376.21,-196.8 386.21,-200.3 386.21,-193.3"/>
</g>
<!-- KrModalModule -->
<g id="node5" class="node">
<title>KrModalModule</title>
<polygon fill="#8dd3c7" stroke="black" points="454.38,-149.8 451.38,-153.8 430.38,-153.8 427.38,-149.8 343.62,-149.8 343.62,-113.8 454.38,-113.8 454.38,-149.8"/>
<text text-anchor="middle" x="399" y="-127.6" font-family="Times,serif" font-size="14.00">KrModalModule</text>
</g>
<!-- KrModalModule&#45;&gt;AddFaqModule -->
<g id="edge5" class="edge">
<title>KrModalModule&#45;&gt;AddFaqModule</title>
<path fill="none" stroke="black" d="M359.95,-149.91C359.95,-149.91 359.95,-168.79 359.95,-168.79"/>
<polygon fill="black" stroke="black" points="356.45,-168.79 359.95,-178.79 363.45,-168.79 356.45,-168.79"/>
</g>
<!-- NgxDaterangepickerMd -->
<g id="node6" class="node">
<title>NgxDaterangepickerMd</title>
<polygon fill="#8dd3c7" stroke="black" points="326.06,-149.8 323.06,-153.8 302.06,-153.8 299.06,-149.8 173.94,-149.8 173.94,-113.8 326.06,-113.8 326.06,-149.8"/>
<text text-anchor="middle" x="250" y="-127.6" font-family="Times,serif" font-size="14.00">NgxDaterangepickerMd</text>
</g>
<!-- NgxDaterangepickerMd&#45;&gt;AddFaqModule -->
<g id="edge6" class="edge">
<title>NgxDaterangepickerMd&#45;&gt;AddFaqModule</title>
<path fill="none" stroke="black" d="M298.85,-149.91C298.85,-149.91 298.85,-168.79 298.85,-168.79"/>
<polygon fill="black" stroke="black" points="295.35,-168.79 298.85,-178.79 302.35,-168.79 295.35,-168.79"/>
</g>
</g>
</svg>
