<?xml version="1.0" encoding="UTF-8" standalone="no"?>
<!DOCTYPE svg PUBLIC "-//W3C//DTD SVG 1.1//EN"
 "http://www.w3.org/Graphics/SVG/1.1/DTD/svg11.dtd">
<!-- Generated by graphviz version 5.0.0 (20220707.1540)
 -->
<!-- Title: dependencies Pages: 1 -->
<svg width="1455pt" height="247pt"
 viewBox="0.00 0.00 1455.00 246.80" xmlns="http://www.w3.org/2000/svg" xmlns:xlink="http://www.w3.org/1999/xlink">
<g id="graph0" class="graph" transform="scale(1 1) rotate(0) translate(4 242.8)">
<title>dependencies</title>
<polygon fill="white" stroke="transparent" points="-4,4 -4,-242.8 1451,-242.8 1451,4 -4,4"/>
<text text-anchor="middle" x="723.5" y="-8.2" font-family="sans-serif" font-size="14.00">dependencies</text>
<g id="clust1" class="cluster">
<title>cluster_SourcesModule</title>
<polygon fill="none" stroke="black" stroke-dasharray="1,5" points="8,-32.8 8,-230.8 1439,-230.8 1439,-32.8 8,-32.8"/>
</g>
<g id="clust2" class="cluster">
<title>cluster_SourcesModule_declarations</title>
<polygon fill="none" stroke="black" points="1289,-40.8 1289,-92.8 1431,-92.8 1431,-40.8 1289,-40.8"/>
</g>
<g id="clust5" class="cluster">
<title>cluster_SourcesModule_exports</title>
<polygon fill="none" stroke="black" points="698,-170.8 698,-222.8 844,-222.8 844,-170.8 698,-170.8"/>
</g>
<g id="clust4" class="cluster">
<title>cluster_SourcesModule_imports</title>
<polygon fill="none" stroke="black" points="16,-40.8 16,-92.8 1281,-92.8 1281,-40.8 16,-40.8"/>
</g>
<!-- SourcesComponent -->
<g id="node1" class="node">
<title>SourcesComponent</title>
<polygon fill="#ffffb3" stroke="black" points="1422.66,-84.8 1297.34,-84.8 1297.34,-48.8 1422.66,-48.8 1422.66,-84.8"/>
<text text-anchor="middle" x="1360" y="-62.6" font-family="Times,serif" font-size="14.00">SourcesComponent</text>
</g>
<!-- SourcesModule -->
<g id="node2" class="node">
<title>SourcesModule</title>
<polygon fill="#8dd3c7" stroke="black" points="822.88,-149.8 819.88,-153.8 798.88,-153.8 795.88,-149.8 719.12,-149.8 719.12,-113.8 822.88,-113.8 822.88,-149.8"/>
<text text-anchor="middle" x="771" y="-127.6" font-family="Times,serif" font-size="14.00">SourcesModule</text>
</g>
<!-- SourcesComponent&#45;&gt;SourcesModule -->
<g id="edge1" class="edge">
<title>SourcesComponent&#45;&gt;SourcesModule</title>
<path fill="none" stroke="black" d="M1360,-84.81C1360,-107.29 1360,-142.8 1360,-142.8 1360,-142.8 833.01,-142.8 833.01,-142.8"/>
<polygon fill="black" stroke="black" points="833.01,-139.3 823.01,-142.8 833.01,-146.3 833.01,-139.3"/>
</g>
<!-- SourcesComponent  -->
<g id="node11" class="node">
<title>SourcesComponent </title>
<polygon fill="#fb8072" stroke="black" points="835.66,-214.8 706.34,-214.8 706.34,-178.8 835.66,-178.8 835.66,-214.8"/>
<text text-anchor="middle" x="771" y="-192.6" font-family="Times,serif" font-size="14.00">SourcesComponent </text>
</g>
<!-- SourcesModule&#45;&gt;SourcesComponent  -->
<g id="edge10" class="edge">
<title>SourcesModule&#45;&gt;SourcesComponent </title>
<path fill="none" stroke="black" stroke-dasharray="5,2" d="M771,-149.91C771,-149.91 771,-168.79 771,-168.79"/>
<polygon fill="black" stroke="black" points="767.5,-168.79 771,-178.79 774.5,-168.79 767.5,-168.79"/>
</g>
<!-- AddFaqModule -->
<g id="node3" class="node">
<title>AddFaqModule</title>
<polygon fill="#8dd3c7" stroke="black" points="1273.16,-84.8 1270.16,-88.8 1249.16,-88.8 1246.16,-84.8 1168.84,-84.8 1168.84,-48.8 1273.16,-48.8 1273.16,-84.8"/>
<text text-anchor="middle" x="1221" y="-62.6" font-family="Times,serif" font-size="14.00">AddFaqModule</text>
</g>
<!-- AddFaqModule&#45;&gt;SourcesModule -->
<g id="edge2" class="edge">
<title>AddFaqModule&#45;&gt;SourcesModule</title>
<path fill="none" stroke="black" d="M1221,-84.93C1221,-105.37 1221,-135.8 1221,-135.8 1221,-135.8 833.06,-135.8 833.06,-135.8"/>
<polygon fill="black" stroke="black" points="833.06,-132.3 823.06,-135.8 833.06,-139.3 833.06,-132.3"/>
</g>
<!-- AddStructuredDataModule -->
<g id="node4" class="node">
<title>AddStructuredDataModule</title>
<polygon fill="#8dd3c7" stroke="black" points="1150.41,-84.8 1147.41,-88.8 1126.41,-88.8 1123.41,-84.8 981.59,-84.8 981.59,-48.8 1150.41,-48.8 1150.41,-84.8"/>
<text text-anchor="middle" x="1066" y="-62.6" font-family="Times,serif" font-size="14.00">AddStructuredDataModule</text>
</g>
<!-- AddStructuredDataModule&#45;&gt;SourcesModule -->
<g id="edge3" class="edge">
<title>AddStructuredDataModule&#45;&gt;SourcesModule</title>
<path fill="none" stroke="black" d="M1066,-85.07C1066,-103.36 1066,-128.8 1066,-128.8 1066,-128.8 833.06,-128.8 833.06,-128.8"/>
<polygon fill="black" stroke="black" points="833.06,-125.3 823.06,-128.8 833.06,-132.3 833.06,-125.3"/>
</g>
<!-- KrModalModule -->
<g id="node5" class="node">
<title>KrModalModule</title>
<polygon fill="#8dd3c7" stroke="black" points="963.38,-84.8 960.38,-88.8 939.38,-88.8 936.38,-84.8 852.62,-84.8 852.62,-48.8 963.38,-48.8 963.38,-84.8"/>
<text text-anchor="middle" x="908" y="-62.6" font-family="Times,serif" font-size="14.00">KrModalModule</text>
</g>
<!-- KrModalModule&#45;&gt;SourcesModule -->
<g id="edge4" class="edge">
<title>KrModalModule&#45;&gt;SourcesModule</title>
<path fill="none" stroke="black" d="M908,-84.81C908,-100.85 908,-121.8 908,-121.8 908,-121.8 833.18,-121.8 833.18,-121.8"/>
<polygon fill="black" stroke="black" points="833.18,-118.3 823.18,-121.8 833.18,-125.3 833.18,-118.3"/>
</g>
<!-- NgOptimizedImage -->
<g id="node6" class="node">
<title>NgOptimizedImage</title>
<polygon fill="#8dd3c7" stroke="black" points="834.69,-84.8 831.69,-88.8 810.69,-88.8 807.69,-84.8 707.31,-84.8 707.31,-48.8 834.69,-48.8 834.69,-84.8"/>
<text text-anchor="middle" x="771" y="-62.6" font-family="Times,serif" font-size="14.00">NgOptimizedImage</text>
</g>
<!-- NgOptimizedImage&#45;&gt;SourcesModule -->
<g id="edge5" class="edge">
<title>NgOptimizedImage&#45;&gt;SourcesModule</title>
<path fill="none" stroke="black" d="M771,-84.91C771,-84.91 771,-103.79 771,-103.79"/>
<polygon fill="black" stroke="black" points="767.5,-103.79 771,-113.79 774.5,-103.79 767.5,-103.79"/>
</g>
<!-- SchedulerModule -->
<g id="node7" class="node">
<title>SchedulerModule</title>
<polygon fill="#8dd3c7" stroke="black" points="689.53,-84.8 686.53,-88.8 665.53,-88.8 662.53,-84.8 574.47,-84.8 574.47,-48.8 689.53,-48.8 689.53,-84.8"/>
<text text-anchor="middle" x="632" y="-62.6" font-family="Times,serif" font-size="14.00">SchedulerModule</text>
</g>
<!-- SchedulerModule&#45;&gt;SourcesModule -->
<g id="edge6" class="edge">
<title>SchedulerModule&#45;&gt;SourcesModule</title>
<path fill="none" stroke="black" d="M632,-84.81C632,-100.85 632,-121.8 632,-121.8 632,-121.8 708.85,-121.8 708.85,-121.8"/>
<polygon fill="black" stroke="black" points="708.85,-125.3 718.85,-121.8 708.85,-118.3 708.85,-125.3"/>
</g>
<!-- SourcesRoutingModule -->
<g id="node8" class="node">
<title>SourcesRoutingModule</title>
<polygon fill="#8dd3c7" stroke="black" points="556.49,-84.8 553.49,-88.8 532.49,-88.8 529.49,-84.8 407.51,-84.8 407.51,-48.8 556.49,-48.8 556.49,-84.8"/>
<text text-anchor="middle" x="482" y="-62.6" font-family="Times,serif" font-size="14.00">SourcesRoutingModule</text>
</g>
<!-- SourcesRoutingModule&#45;&gt;SourcesModule -->
<g id="edge7" class="edge">
<title>SourcesRoutingModule&#45;&gt;SourcesModule</title>
<path fill="none" stroke="black" d="M482,-85.07C482,-103.36 482,-128.8 482,-128.8 482,-128.8 709,-128.8 709,-128.8"/>
<polygon fill="black" stroke="black" points="709,-132.3 719,-128.8 709,-125.3 709,-132.3"/>
</g>
<!-- StructuredDataStatusModalModule -->
<g id="node9" class="node">
<title>StructuredDataStatusModalModule</title>
<polygon fill="#8dd3c7" stroke="black" points="389.58,-84.8 386.58,-88.8 365.58,-88.8 362.58,-84.8 174.42,-84.8 174.42,-48.8 389.58,-48.8 389.58,-84.8"/>
<text text-anchor="middle" x="282" y="-62.6" font-family="Times,serif" font-size="14.00">StructuredDataStatusModalModule</text>
</g>
<!-- StructuredDataStatusModalModule&#45;&gt;SourcesModule -->
<g id="edge8" class="edge">
<title>StructuredDataStatusModalModule&#45;&gt;SourcesModule</title>
<path fill="none" stroke="black" d="M282,-84.93C282,-105.37 282,-135.8 282,-135.8 282,-135.8 708.67,-135.8 708.67,-135.8"/>
<polygon fill="black" stroke="black" points="708.67,-139.3 718.67,-135.8 708.67,-132.3 708.67,-139.3"/>
</g>
<!-- UpgradePlanModule -->
<g id="node10" class="node">
<title>UpgradePlanModule</title>
<polygon fill="#8dd3c7" stroke="black" points="156.14,-84.8 153.14,-88.8 132.14,-88.8 129.14,-84.8 23.86,-84.8 23.86,-48.8 156.14,-48.8 156.14,-84.8"/>
<text text-anchor="middle" x="90" y="-62.6" font-family="Times,serif" font-size="14.00">UpgradePlanModule</text>
</g>
<!-- UpgradePlanModule&#45;&gt;SourcesModule -->
<g id="edge9" class="edge">
<title>UpgradePlanModule&#45;&gt;SourcesModule</title>
<path fill="none" stroke="black" d="M90,-84.81C90,-107.29 90,-142.8 90,-142.8 90,-142.8 708.97,-142.8 708.97,-142.8"/>
<polygon fill="black" stroke="black" points="708.97,-146.3 718.97,-142.8 708.97,-139.3 708.97,-146.3"/>
</g>
</g>
</svg>
