<?xml version="1.0" encoding="UTF-8" standalone="no"?>
<!DOCTYPE svg PUBLIC "-//W3C//DTD SVG 1.1//EN"
 "http://www.w3.org/Graphics/SVG/1.1/DTD/svg11.dtd">
<!-- Generated by graphviz version 5.0.0 (20220707.1540)
 -->
<!-- Title: dependencies Pages: 1 -->
<svg width="1310pt" height="247pt"
 viewBox="0.00 0.00 1310.00 246.80" xmlns="http://www.w3.org/2000/svg" xmlns:xlink="http://www.w3.org/1999/xlink">
<g id="graph0" class="graph" transform="scale(1 1) rotate(0) translate(4 242.8)">
<title>dependencies</title>
<polygon fill="white" stroke="transparent" points="-4,4 -4,-242.8 1306,-242.8 1306,4 -4,4"/>
<text text-anchor="middle" x="651" y="-8.2" font-family="sans-serif" font-size="14.00">dependencies</text>
<g id="clust1" class="cluster">
<title>cluster_SourcesModule</title>
<polygon fill="none" stroke="black" stroke-dasharray="1,5" points="8,-32.8 8,-230.8 1294,-230.8 1294,-32.8 8,-32.8"/>
</g>
<g id="clust5" class="cluster">
<title>cluster_SourcesModule_exports</title>
<polygon fill="none" stroke="black" points="624,-170.8 624,-222.8 770,-222.8 770,-170.8 624,-170.8"/>
</g>
<g id="clust2" class="cluster">
<title>cluster_SourcesModule_declarations</title>
<polygon fill="none" stroke="black" points="1144,-40.8 1144,-92.8 1286,-92.8 1286,-40.8 1144,-40.8"/>
</g>
<g id="clust4" class="cluster">
<title>cluster_SourcesModule_imports</title>
<polygon fill="none" stroke="black" points="16,-40.8 16,-92.8 1136,-92.8 1136,-40.8 16,-40.8"/>
</g>
<!-- SourcesComponent -->
<g id="node1" class="node">
<title>SourcesComponent</title>
<polygon fill="#ffffb3" stroke="black" points="1277.66,-84.8 1152.34,-84.8 1152.34,-48.8 1277.66,-48.8 1277.66,-84.8"/>
<text text-anchor="middle" x="1215" y="-62.6" font-family="Times,serif" font-size="14.00">SourcesComponent</text>
</g>
<!-- SourcesModule -->
<g id="node2" class="node">
<title>SourcesModule</title>
<polygon fill="#8dd3c7" stroke="black" points="748.88,-149.8 745.88,-153.8 724.88,-153.8 721.88,-149.8 645.12,-149.8 645.12,-113.8 748.88,-113.8 748.88,-149.8"/>
<text text-anchor="middle" x="697" y="-127.6" font-family="Times,serif" font-size="14.00">SourcesModule</text>
</g>
<!-- SourcesComponent&#45;&gt;SourcesModule -->
<g id="edge1" class="edge">
<title>SourcesComponent&#45;&gt;SourcesModule</title>
<path fill="none" stroke="black" d="M1215,-85.09C1215,-107.01 1215,-140.8 1215,-140.8 1215,-140.8 759.04,-140.8 759.04,-140.8"/>
<polygon fill="black" stroke="black" points="759.04,-137.3 749.04,-140.8 759.04,-144.3 759.04,-137.3"/>
</g>
<!-- SourcesComponent  -->
<g id="node10" class="node">
<title>SourcesComponent </title>
<polygon fill="#fb8072" stroke="black" points="761.66,-214.8 632.34,-214.8 632.34,-178.8 761.66,-178.8 761.66,-214.8"/>
<text text-anchor="middle" x="697" y="-192.6" font-family="Times,serif" font-size="14.00">SourcesComponent </text>
</g>
<!-- SourcesModule&#45;&gt;SourcesComponent  -->
<g id="edge9" class="edge">
<title>SourcesModule&#45;&gt;SourcesComponent </title>
<path fill="none" stroke="black" stroke-dasharray="5,2" d="M697,-149.91C697,-149.91 697,-168.79 697,-168.79"/>
<polygon fill="black" stroke="black" points="693.5,-168.79 697,-178.79 700.5,-168.79 693.5,-168.79"/>
</g>
<!-- AddFaqModule -->
<g id="node3" class="node">
<title>AddFaqModule</title>
<polygon fill="#8dd3c7" stroke="black" points="1128.16,-84.8 1125.16,-88.8 1104.16,-88.8 1101.16,-84.8 1023.84,-84.8 1023.84,-48.8 1128.16,-48.8 1128.16,-84.8"/>
<text text-anchor="middle" x="1076" y="-62.6" font-family="Times,serif" font-size="14.00">AddFaqModule</text>
</g>
<!-- AddFaqModule&#45;&gt;SourcesModule -->
<g id="edge2" class="edge">
<title>AddFaqModule&#45;&gt;SourcesModule</title>
<path fill="none" stroke="black" d="M1076,-84.91C1076,-104.14 1076,-131.8 1076,-131.8 1076,-131.8 758.9,-131.8 758.9,-131.8"/>
<polygon fill="black" stroke="black" points="758.9,-128.3 748.9,-131.8 758.9,-135.3 758.9,-128.3"/>
</g>
<!-- AddStructuredDataModule -->
<g id="node4" class="node">
<title>AddStructuredDataModule</title>
<polygon fill="#8dd3c7" stroke="black" points="1005.41,-84.8 1002.41,-88.8 981.41,-88.8 978.41,-84.8 836.59,-84.8 836.59,-48.8 1005.41,-48.8 1005.41,-84.8"/>
<text text-anchor="middle" x="921" y="-62.6" font-family="Times,serif" font-size="14.00">AddStructuredDataModule</text>
</g>
<!-- AddStructuredDataModule&#45;&gt;SourcesModule -->
<g id="edge3" class="edge">
<title>AddStructuredDataModule&#45;&gt;SourcesModule</title>
<path fill="none" stroke="black" d="M921,-84.83C921,-101.2 921,-122.8 921,-122.8 921,-122.8 758.95,-122.8 758.95,-122.8"/>
<polygon fill="black" stroke="black" points="758.95,-119.3 748.95,-122.8 758.95,-126.3 758.95,-119.3"/>
</g>
<!-- KrModalModule -->
<g id="node5" class="node">
<title>KrModalModule</title>
<polygon fill="#8dd3c7" stroke="black" points="818.38,-84.8 815.38,-88.8 794.38,-88.8 791.38,-84.8 707.62,-84.8 707.62,-48.8 818.38,-48.8 818.38,-84.8"/>
<text text-anchor="middle" x="763" y="-62.6" font-family="Times,serif" font-size="14.00">KrModalModule</text>
</g>
<!-- KrModalModule&#45;&gt;SourcesModule -->
<g id="edge4" class="edge">
<title>KrModalModule&#45;&gt;SourcesModule</title>
<path fill="none" stroke="black" d="M728.25,-84.91C728.25,-84.91 728.25,-103.79 728.25,-103.79"/>
<polygon fill="black" stroke="black" points="724.75,-103.79 728.25,-113.79 731.75,-103.79 724.75,-103.79"/>
</g>
<!-- SchedulerModule -->
<g id="node6" class="node">
<title>SchedulerModule</title>
<polygon fill="#8dd3c7" stroke="black" points="689.53,-84.8 686.53,-88.8 665.53,-88.8 662.53,-84.8 574.47,-84.8 574.47,-48.8 689.53,-48.8 689.53,-84.8"/>
<text text-anchor="middle" x="632" y="-62.6" font-family="Times,serif" font-size="14.00">SchedulerModule</text>
</g>
<!-- SchedulerModule&#45;&gt;SourcesModule -->
<g id="edge5" class="edge">
<title>SchedulerModule&#45;&gt;SourcesModule</title>
<path fill="none" stroke="black" d="M667.41,-84.91C667.41,-84.91 667.41,-103.79 667.41,-103.79"/>
<polygon fill="black" stroke="black" points="663.91,-103.79 667.41,-113.79 670.91,-103.79 663.91,-103.79"/>
</g>
<!-- SourcesRoutingModule -->
<g id="node7" class="node">
<title>SourcesRoutingModule</title>
<polygon fill="#8dd3c7" stroke="black" points="556.49,-84.8 553.49,-88.8 532.49,-88.8 529.49,-84.8 407.51,-84.8 407.51,-48.8 556.49,-48.8 556.49,-84.8"/>
<text text-anchor="middle" x="482" y="-62.6" font-family="Times,serif" font-size="14.00">SourcesRoutingModule</text>
</g>
<!-- SourcesRoutingModule&#45;&gt;SourcesModule -->
<g id="edge6" class="edge">
<title>SourcesRoutingModule&#45;&gt;SourcesModule</title>
<path fill="none" stroke="black" d="M482,-84.83C482,-101.2 482,-122.8 482,-122.8 482,-122.8 634.95,-122.8 634.95,-122.8"/>
<polygon fill="black" stroke="black" points="634.95,-126.3 644.95,-122.8 634.95,-119.3 634.95,-126.3"/>
</g>
<!-- StructuredDataStatusModalModule -->
<g id="node8" class="node">
<title>StructuredDataStatusModalModule</title>
<polygon fill="#8dd3c7" stroke="black" points="389.58,-84.8 386.58,-88.8 365.58,-88.8 362.58,-84.8 174.42,-84.8 174.42,-48.8 389.58,-48.8 389.58,-84.8"/>
<text text-anchor="middle" x="282" y="-62.6" font-family="Times,serif" font-size="14.00">StructuredDataStatusModalModule</text>
</g>
<!-- StructuredDataStatusModalModule&#45;&gt;SourcesModule -->
<g id="edge7" class="edge">
<title>StructuredDataStatusModalModule&#45;&gt;SourcesModule</title>
<path fill="none" stroke="black" d="M282,-84.91C282,-104.14 282,-131.8 282,-131.8 282,-131.8 634.86,-131.8 634.86,-131.8"/>
<polygon fill="black" stroke="black" points="634.86,-135.3 644.86,-131.8 634.86,-128.3 634.86,-135.3"/>
</g>
<!-- UpgradePlanModule -->
<g id="node9" class="node">
<title>UpgradePlanModule</title>
<polygon fill="#8dd3c7" stroke="black" points="156.14,-84.8 153.14,-88.8 132.14,-88.8 129.14,-84.8 23.86,-84.8 23.86,-48.8 156.14,-48.8 156.14,-84.8"/>
<text text-anchor="middle" x="90" y="-62.6" font-family="Times,serif" font-size="14.00">UpgradePlanModule</text>
</g>
<!-- UpgradePlanModule&#45;&gt;SourcesModule -->
<g id="edge8" class="edge">
<title>UpgradePlanModule&#45;&gt;SourcesModule</title>
<path fill="none" stroke="black" d="M90,-85.09C90,-107.01 90,-140.8 90,-140.8 90,-140.8 634.99,-140.8 634.99,-140.8"/>
<polygon fill="black" stroke="black" points="634.99,-144.3 644.99,-140.8 634.99,-137.3 634.99,-144.3"/>
</g>
</g>
</svg>
