<svg width="58" height="53" viewBox="0 0 58 53" fill="none" xmlns="http://www.w3.org/2000/svg">
<path d="M51.5 44.4167C51.5 48.3295 48.3295 51.5 44.4167 51.5H7.58333C3.67192 51.5 0.5 48.3295 0.5 44.4167V7.58333C0.5 3.6705 3.67192 0.5 7.58333 0.5H44.4167C48.3295 0.5 51.5 3.6705 51.5 7.58333V44.4167Z" fill="#85B7FE"/>
<path d="M44.4165 17.4994H7.58317C6.80117 17.4994 6.1665 16.8647 6.1665 16.0827V7.58268C6.1665 6.80068 6.80117 6.16602 7.58317 6.16602H44.4165C45.1985 6.16602 45.8332 6.80068 45.8332 7.58268V16.0827C45.8332 16.8647 45.1985 17.4994 44.4165 17.4994ZM44.4165 31.666H7.58317C6.80117 31.666 6.1665 31.0314 6.1665 30.2494V21.7494C6.1665 20.9674 6.80117 20.3327 7.58317 20.3327H44.4165C45.1985 20.3327 45.8332 20.9674 45.8332 21.7494V30.2494C45.8332 31.0314 45.1985 31.666 44.4165 31.666ZM44.4165 45.8327H7.58317C6.80117 45.8327 6.1665 45.198 6.1665 44.416V35.916C6.1665 35.134 6.80117 34.4994 7.58317 34.4994H44.4165C45.1985 34.4994 45.8332 35.134 45.8332 35.916V44.416C45.8332 45.198 45.1985 45.8327 44.4165 45.8327Z" fill="#E7F1FF"/>
<path d="M45.4285 28.4277C42.208 28.4277 39.1194 29.7071 36.8422 31.9843C34.565 34.2615 33.2856 37.3501 33.2856 40.5706C33.2856 43.7911 34.565 46.8797 36.8422 49.1569C39.1194 51.4341 42.208 52.7135 45.4285 52.7135C48.649 52.7135 51.7376 51.4341 54.0148 49.1569C56.292 46.8797 57.5714 43.7911 57.5714 40.5706C57.5714 37.3501 56.292 34.2615 54.0148 31.9843C51.7376 29.7071 48.649 28.4277 45.4285 28.4277Z" fill="#07377F"/>
<path d="M42.9995 33.2852H47.8567V47.8566H42.9995V33.2852Z" fill="white"/>
<path d="M38.1426 38.1426H52.714V42.9997H38.1426V38.1426Z" fill="white"/>
</svg>
