<svg width="68" height="68" viewBox="0 0 68 68" fill="none" xmlns="http://www.w3.org/2000/svg">
<path d="M56.6663 63.75H11.333V4.25H42.4997L56.6663 18.4167V63.75Z" fill="#85B7FE"/>
<path d="M54.5413 19.8333H41.083V6.375L54.5413 19.8333Z" fill="#E7F1FF"/>
<path d="M22.4638 51.73L20.0356 50.2708L29.4678 34.5487L37.9678 43.0487L45.5356 30.4375L47.9638 31.8967L38.5316 47.6188L30.0316 39.1188L22.4638 51.73Z" fill="#07377F"/>
<path d="M29.7503 34.0007C28.9989 34.0007 28.2782 34.2992 27.7469 34.8305C27.2155 35.3619 26.917 36.0825 26.917 36.834C26.917 37.5854 27.2155 38.3061 27.7469 38.8375C28.2782 39.3688 28.9989 39.6673 29.7503 39.6673C30.5018 39.6673 31.2224 39.3688 31.7538 38.8375C32.2851 38.3061 32.5837 37.5854 32.5837 36.834C32.5837 36.0825 32.2851 35.3619 31.7538 34.8305C31.2224 34.2992 30.5018 34.0007 29.7503 34.0007ZM21.2503 48.1673C20.4989 48.1673 19.7782 48.4658 19.2469 48.9972C18.7155 49.5285 18.417 50.2492 18.417 51.0007C18.417 51.7521 18.7155 52.4728 19.2469 53.0041C19.7782 53.5355 20.4989 53.834 21.2503 53.834C22.0018 53.834 22.7224 53.5355 23.2538 53.0041C23.7851 52.4728 24.0837 51.7521 24.0837 51.0007C24.0837 50.2492 23.7851 49.5285 23.2538 48.9972C22.7224 48.4658 22.0018 48.1673 21.2503 48.1673ZM38.2503 42.5007C37.4989 42.5007 36.7782 42.7992 36.2469 43.3305C35.7155 43.8619 35.417 44.5825 35.417 45.334C35.417 46.0854 35.7155 46.8061 36.2469 47.3375C36.7782 47.8688 37.4989 48.1673 38.2503 48.1673C39.0018 48.1673 39.7224 47.8688 40.2538 47.3375C40.7852 46.8061 41.0837 46.0854 41.0837 45.334C41.0837 44.5825 40.7852 43.8619 40.2538 43.3305C39.7224 42.7992 39.0018 42.5007 38.2503 42.5007ZM46.7503 28.334C45.9989 28.334 45.2782 28.6325 44.7469 29.1638C44.2155 29.6952 43.917 30.4159 43.917 31.1673C43.917 31.9188 44.2155 32.6394 44.7469 33.1708C45.2782 33.7021 45.9989 34.0007 46.7503 34.0007C47.5018 34.0007 48.2224 33.7021 48.7538 33.1708C49.2852 32.6394 49.5837 31.9188 49.5837 31.1673C49.5837 30.4159 49.2852 29.6952 48.7538 29.1638C48.2224 28.6325 47.5018 28.334 46.7503 28.334Z" fill="#FFDA2D"/>
</svg>
