<svg width="68" height="68" viewBox="0 0 68 68" fill="none" xmlns="http://www.w3.org/2000/svg">
<path d="M51 32.584C53.3472 32.584 55.25 30.6812 55.25 28.334C55.25 25.9868 53.3472 24.084 51 24.084C48.6528 24.084 46.75 25.9868 46.75 28.334C46.75 30.6812 48.6528 32.584 51 32.584Z" fill="#85B7FE"/>
<path d="M51 21.25C53.3472 21.25 55.25 19.3472 55.25 17C55.25 14.6528 53.3472 12.75 51 12.75C48.6528 12.75 46.75 14.6528 46.75 17C46.75 19.3472 48.6528 21.25 51 21.25Z" fill="#0D6EFD"/>
<path d="M51 55.25C53.3472 55.25 55.25 53.3472 55.25 51C55.25 48.6528 53.3472 46.75 51 46.75C48.6528 46.75 46.75 48.6528 46.75 51C46.75 53.3472 48.6528 55.25 51 55.25Z" fill="#85B7FE"/>
<path d="M51 43.916C53.3472 43.916 55.25 42.0132 55.25 39.666C55.25 37.3188 53.3472 35.416 51 35.416C48.6528 35.416 46.75 37.3188 46.75 39.666C46.75 42.0132 48.6528 43.916 51 43.916Z" fill="#0D6EFD"/>
<path d="M39.6665 32.584C42.0137 32.584 43.9165 30.6812 43.9165 28.334C43.9165 25.9868 42.0137 24.084 39.6665 24.084C37.3193 24.084 35.4165 25.9868 35.4165 28.334C35.4165 30.6812 37.3193 32.584 39.6665 32.584Z" fill="#0D6EFD"/>
<path d="M39.6665 21.25C42.0137 21.25 43.9165 19.3472 43.9165 17C43.9165 14.6528 42.0137 12.75 39.6665 12.75C37.3193 12.75 35.4165 14.6528 35.4165 17C35.4165 19.3472 37.3193 21.25 39.6665 21.25Z" fill="#85B7FE"/>
<path d="M39.6665 55.25C42.0137 55.25 43.9165 53.3472 43.9165 51C43.9165 48.6528 42.0137 46.75 39.6665 46.75C37.3193 46.75 35.4165 48.6528 35.4165 51C35.4165 53.3472 37.3193 55.25 39.6665 55.25Z" fill="#0D6EFD"/>
<path d="M39.6665 43.916C42.0137 43.916 43.9165 42.0132 43.9165 39.666C43.9165 37.3188 42.0137 35.416 39.6665 35.416C37.3193 35.416 35.4165 37.3188 35.4165 39.666C35.4165 42.0132 37.3193 43.916 39.6665 43.916Z" fill="#85B7FE"/>
<path d="M28.3335 32.584C30.6807 32.584 32.5835 30.6812 32.5835 28.334C32.5835 25.9868 30.6807 24.084 28.3335 24.084C25.9863 24.084 24.0835 25.9868 24.0835 28.334C24.0835 30.6812 25.9863 32.584 28.3335 32.584Z" fill="#85B7FE"/>
<path d="M28.3335 21.25C30.6807 21.25 32.5835 19.3472 32.5835 17C32.5835 14.6528 30.6807 12.75 28.3335 12.75C25.9863 12.75 24.0835 14.6528 24.0835 17C24.0835 19.3472 25.9863 21.25 28.3335 21.25Z" fill="#0D6EFD"/>
<path d="M28.3335 55.25C30.6807 55.25 32.5835 53.3472 32.5835 51C32.5835 48.6528 30.6807 46.75 28.3335 46.75C25.9863 46.75 24.0835 48.6528 24.0835 51C24.0835 53.3472 25.9863 55.25 28.3335 55.25Z" fill="#85B7FE"/>
<path d="M28.3335 43.916C30.6807 43.916 32.5835 42.0132 32.5835 39.666C32.5835 37.3188 30.6807 35.416 28.3335 35.416C25.9863 35.416 24.0835 37.3188 24.0835 39.666C24.0835 42.0132 25.9863 43.916 28.3335 43.916Z" fill="#0D6EFD"/>
<path d="M17 32.584C19.3472 32.584 21.25 30.6812 21.25 28.334C21.25 25.9868 19.3472 24.084 17 24.084C14.6528 24.084 12.75 25.9868 12.75 28.334C12.75 30.6812 14.6528 32.584 17 32.584Z" fill="#0D6EFD"/>
<path d="M17 21.25C19.3472 21.25 21.25 19.3472 21.25 17C21.25 14.6528 19.3472 12.75 17 12.75C14.6528 12.75 12.75 14.6528 12.75 17C12.75 19.3472 14.6528 21.25 17 21.25Z" fill="#85B7FE"/>
<path d="M17 55.25C19.3472 55.25 21.25 53.3472 21.25 51C21.25 48.6528 19.3472 46.75 17 46.75C14.6528 46.75 12.75 48.6528 12.75 51C12.75 53.3472 14.6528 55.25 17 55.25Z" fill="#0D6EFD"/>
<path d="M17 43.916C19.3472 43.916 21.25 42.0132 21.25 39.666C21.25 37.3188 19.3472 35.416 17 35.416C14.6528 35.416 12.75 37.3188 12.75 39.666C12.75 42.0132 14.6528 43.916 17 43.916Z" fill="#85B7FE"/>
</svg>
