<svg width="68" height="68" viewBox="0 0 68 68" fill="none" xmlns="http://www.w3.org/2000/svg">
<path d="M41.0833 29.75H26.9167L10.2085 49.7859C10.1391 49.8553 10.0796 49.9333 10.013 50.0027L9.673 50.3837H9.70133C8.959 51.34 8.5 52.5272 8.5 53.8333C8.5 56.9627 11.0372 59.5 14.1667 59.5H53.8333C56.9627 59.5 59.5 56.9627 59.5 53.8333C59.5 52.5711 59.0736 51.4179 58.3766 50.4773H58.3978L58.1414 50.1925C58.0111 50.0395 57.885 49.8822 57.7405 49.7448L41.0833 29.75Z" fill="#85B7FE"/>
<path d="M26.9165 12.75H41.0832V31.7574H26.9165V12.75Z" fill="#85B7FE"/>
<path d="M43.9168 11.3333C43.9168 12.8973 42.6475 14.1667 41.0835 14.1667H26.9168C25.3528 14.1667 24.0835 12.8973 24.0835 11.3333C24.0835 9.76933 25.3528 8.5 26.9168 8.5H41.0835C42.6475 8.5 43.9168 9.76933 43.9168 11.3333Z" fill="#85B7FE"/>
<path d="M56.1016 52.1645L56.0817 52.1376L56.0336 52.0837L56.0052 52.054L55.9783 52.0242L55.9103 51.9421C55.8664 51.8897 55.8239 51.8358 55.7757 51.7877L55.695 51.7097L55.6284 51.6347L46.2855 40.375H21.7077L12.3167 51.6786L12.2657 51.7352L12.2472 51.7537C12.1934 51.816 12.1509 51.8656 12.107 51.9109L12.0503 51.9747L11.9398 52.1192C11.6636 52.4762 11.3335 53.0641 11.3335 53.8333C11.3335 55.3959 12.6042 56.6667 14.1668 56.6667H53.8335C55.3961 56.6667 56.6668 55.3959 56.6668 53.8333C56.6668 53.0853 56.358 52.513 56.1016 52.1645Z" fill="#FFDA2D"/>
<path d="M41.0835 45.334C39.9563 45.334 38.8753 45.7818 38.0783 46.5788C37.2813 47.3758 36.8335 48.4568 36.8335 49.584C36.8335 50.7112 37.2813 51.7922 38.0783 52.5892C38.8753 53.3862 39.9563 53.834 41.0835 53.834C42.2107 53.834 43.2917 53.3862 44.0887 52.5892C44.8857 51.7922 45.3335 50.7112 45.3335 49.584C45.3335 48.4568 44.8857 47.3758 44.0887 46.5788C43.2917 45.7818 42.2107 45.334 41.0835 45.334Z" fill="#FFFBEA"/>
<path d="M31.1668 42.5C30.4154 42.5 29.6947 42.7985 29.1634 43.3299C28.632 43.8612 28.3335 44.5819 28.3335 45.3333C28.3335 46.0848 28.632 46.8054 29.1634 47.3368C29.6947 47.8682 30.4154 48.1667 31.1668 48.1667C31.9183 48.1667 32.6389 47.8682 33.1703 47.3368C33.7017 46.8054 34.0002 46.0848 34.0002 45.3333C34.0002 44.5819 33.7017 43.8612 33.1703 43.3299C32.6389 42.7985 31.9183 42.5 31.1668 42.5Z" fill="#FFFBEA"/>
<path d="M35.4165 29.75C34.6651 29.75 33.9444 30.0485 33.413 30.5799C32.8817 31.1112 32.5832 31.8319 32.5832 32.5833C32.5832 33.3348 32.8817 34.0554 33.413 34.5868C33.9444 35.1182 34.6651 35.4167 35.4165 35.4167C36.1679 35.4167 36.8886 35.1182 37.42 34.5868C37.9513 34.0554 38.2498 33.3348 38.2498 32.5833C38.2498 31.8319 37.9513 31.1112 37.42 30.5799C36.8886 30.0485 36.1679 29.75 35.4165 29.75ZM33.2915 21.25C32.7279 21.25 32.1874 21.4739 31.7889 21.8724C31.3904 22.2709 31.1665 22.8114 31.1665 23.375C31.1665 23.9386 31.3904 24.4791 31.7889 24.8776C32.1874 25.2761 32.7279 25.5 33.2915 25.5C33.8551 25.5 34.3956 25.2761 34.7941 24.8776C35.1926 24.4791 35.4165 23.9386 35.4165 23.375C35.4165 22.8114 35.1926 22.2709 34.7941 21.8724C34.3956 21.4739 33.8551 21.25 33.2915 21.25Z" fill="white"/>
</svg>
