<svg width="68" height="68" viewBox="0 0 68 68" fill="none" xmlns="http://www.w3.org/2000/svg">
<path d="M49.5832 58.084H18.4165V7.08398H49.5832V58.084Z" fill="#85B7FE"/>
<path d="M52.4168 58.084H15.5835V11.334H52.4168V58.084Z" fill="#0D6EFD"/>
<path d="M55.25 58.084H12.75V15.584H55.25V58.084Z" fill="#85B7FE"/>
<path d="M17 22.666H28.3333V25.4993H17V22.666ZM31.1667 22.666H41.0833V25.4993H31.1667V22.666ZM17 28.3327H34V31.166H17V28.3327Z" fill="#07377F"/>
<path d="M39.6667 41.084V43.9173C39.6667 47.0467 37.1294 49.584 34 49.584C30.8706 49.584 28.3333 47.0467 28.3333 43.9173V41.084H12.75V58.084H55.25V41.084H39.6667Z" fill="#85B7FE"/>
<path d="M34 52.416C29.3066 52.416 25.5 48.6094 25.5 43.916H9.91667C9.13467 43.916 8.5 44.5507 8.5 45.3327V56.666C8.5 59.0134 10.4026 60.916 12.75 60.916H55.25C57.5974 60.916 59.5 59.0134 59.5 56.666V45.3327C59.5 44.5507 58.8653 43.916 58.0833 43.916H42.5C42.5 48.6094 38.6934 52.416 34 52.416Z" fill="#FFDA2D"/>
</svg>
