<svg width="68" height="68" viewBox="0 0 68 68" fill="none" xmlns="http://www.w3.org/2000/svg">
<path d="M8.5 31.1673L59.5 31.1673L59.5 36.834L8.5 36.834L8.5 31.1673ZM8.5 56.6673L59.5 56.6673L59.5 51.0006L8.5 51.0006L8.5 56.6673ZM8.5 17.0006L59.5 17.0007L59.5 11.334L8.5 11.334L8.5 17.0006Z" fill="#85B7FE"/>
<path d="M8.49983 51.0006L42.4998 51.0006L42.4998 56.6673L8.49983 56.6673L8.49983 51.0006ZM8.49984 17.0006L48.1665 17.0007L48.1665 11.334L8.49984 11.334L8.49984 17.0006ZM8.49983 36.834L24.0832 36.834L24.0832 31.1673L8.49984 31.1673L8.49983 36.834Z" fill="#0D6EFD"/>
<path d="M39.6667 48.1667L43.9167 48.1667C44.625 48.1667 45.3333 48.875 45.3333 49.5833L45.3333 58.0833C45.3333 58.7917 44.625 59.5 43.9167 59.5L39.6667 59.5C38.9583 59.5 38.25 58.7917 38.25 58.0833L38.25 49.5833C38.25 48.875 38.9583 48.1667 39.6667 48.1667ZM43.9167 9.91667L43.9167 18.4167C43.9167 19.2667 44.625 19.8333 45.3333 19.8333L49.5833 19.8333C50.4333 19.8333 51 19.2667 51 18.4167L51 9.91667C51 9.06667 50.4333 8.5 49.5833 8.5L45.3333 8.5C44.625 8.5 43.9167 9.06667 43.9167 9.91667ZM19.8333 29.75L19.8333 38.25C19.8333 38.9583 20.5417 39.6667 21.25 39.6667L25.5 39.6667C26.2083 39.6667 26.9167 38.9583 26.9167 38.25L26.9167 29.75C26.9167 29.0417 26.2083 28.3333 25.5 28.3333L21.25 28.3333C20.5417 28.3333 19.8333 29.0417 19.8333 29.75Z" fill="#07377F"/>
</svg>
