<svg width="34" height="34" fill="none" xmlns="http://www.w3.org/2000/svg"><path d="M25.501 12.041v17.708c0 .783-.634 1.417-1.416 1.417h-17a1.416 1.416 0 0 1-1.417-1.417V7.083c0-.783.634-1.417 1.417-1.417h12.041l6.375 6.375Z" fill="#93D3A2"/><path opacity=".05" d="M7.082 5.666h18.417v24.083H9.689a2.607 2.607 0 0 1-2.607-2.607V5.666Z" fill="#3C4043"/><path opacity=".07" d="M7.793 5.666h14.125A3.583 3.583 0 0 1 25.5 9.249v19.792H9.804a2.01 2.01 0 0 1-2.011-2.01V5.665Z" fill="#3C4043"/><path d="M28.333 9.917v17c0 .783-.634 1.417-1.416 1.417h-17A1.416 1.416 0 0 1 8.5 26.917V4.251c0-.783.634-1.417 1.417-1.417H21.25l7.083 7.083Z" fill="#93D3A2"/><path d="M21.25 2.834v5.667c0 .782.634 1.416 1.417 1.416h5.666L21.25 2.834ZM24.594 14H12.406c-.224 0-.406-.112-.406-.25v-.5c0-.138.182-.25.406-.25h12.188c.224 0 .406.112.406.25v.5c0 .138-.182.25-.406.25Zm0 3H12.406c-.224 0-.406-.112-.406-.25v-.5c0-.138.182-.25.406-.25h12.188c.224 0 .406.112.406.25v.5c0 .138-.182.25-.406.25Zm0 3H12.406c-.224 0-.406-.112-.406-.25v-.5c0-.138.182-.25.406-.25h12.188c.224 0 .406.112.406.25v.5c0 .138-.182.25-.406.25Zm-3.969 3h-8.25c-.207 0-.375-.112-.375-.25v-.5c0-.138.168-.25.375-.25h8.25c.207 0 .375.112.375.25v.5c0 .138-.168.25-.375.25Z" fill="#135423"/></svg>