<svg width="60" height="60" fill="none" xmlns="http://www.w3.org/2000/svg"><path d="M29.494 53.75a5 5 0 1 1 .004-10 5 5 0 0 1-.004 10Z" fill="#7CB342"/><path d="M48.75 25.505a3.751 3.751 0 1 0 0 7.502 3.751 3.751 0 0 0 0-7.502Z" fill="#9CCC65"/><path d="M43.147 19.373a3.751 3.751 0 1 1 0-7.5 3.75 3.75 0 0 1 0 7.5Z" fill="#AED581"/><path d="M29.492 13.75a3.751 3.751 0 0 1-3.747-3.752 3.749 3.749 0 0 1 3.747-3.748 3.749 3.749 0 1 1 0 7.5ZM10 31.116c-1.377 0-2.5-1.12-2.5-2.5a2.5 2.5 0 1 1 2.5 2.5Zm5.848 13.645a1.876 1.876 0 0 1-1.878-1.875 1.88 1.88 0 0 1 1.877-1.875c1.036 0 1.873.845 1.873 1.875a1.872 1.872 0 0 1-1.872 1.875Zm-.002-32.264a3.125 3.125 0 1 0 0 6.25 3.125 3.125 0 0 0 0-6.25Z" fill="#CFD8DC"/><path d="M43.147 47.261a4.374 4.374 0 1 1 0-8.75 4.376 4.376 0 0 1 0 8.75Z" fill="#8BC34A"/></svg>