<svg width="20" height="20" fill="none" xmlns="http://www.w3.org/2000/svg"><path d="M10 .8C4.927.8.8 4.927.8 10c0 5.073 4.127 9.2 9.2 9.2 5.073 0 9.2-4.127 9.2-9.2 0-5.073-4.127-9.2-9.2-9.2ZM7.719 4.527c.53 0 .778.31.772.695-.006.384-.365.818-.774.818-.43 0-.701-.285-.694-.757.006-.384.32-.756.696-.756Zm-2.866 7.605c.018-.469.225-.793.772-2.306l.352-.98c.078-.214.12-.314.152-.448a.563.563 0 0 0 .02-.144c.002-.087-.1-.1-.185-.035-.172.131-.549.456-.701.654-.05.05-.1.05-.136.012l-.124-.126c-.036-.036-.06-.086-.035-.11.04-.047.421-.6.996-1.042.352-.27.755-.521 1.26-.521.383 0 .541.198.537.446-.005.273-.16.645-.42 1.365l-.748 1.885c-.085.23-.137.387-.168.504-.032.116-.049.213.075.213.248 0 .797-.61.873-.722.026-.037.076-.037.1-.012l.187.176c.037.037.048.062.01.124-.145.138-.826 1.384-2.34 1.44-.371.012-.483-.187-.477-.373Zm7.164.398c-.419 0-.684-.285-.676-.757.006-.384.386-.744.751-.744.517 0 .685.298.68.682-.007.385-.357.819-.755.819Zm1.166-7.824a.447.447 0 0 0-.444-.348c-.818 0-1.287 1.573-1.632 2.899h.988c.074 0 .098.037.084.112l-.067.31c-.014.086-.04.124-.139.124h-.975c-.29 1.016-.707 3.338-1.177 4.639-.848 2.26-1.785 3.478-3.31 3.478-.745 0-1.222-.334-1.213-.805.006-.347.239-.706.623-.706.397 0 .67.238.702.742.01.124.096.211.27.211.608 0 1.095-.899 1.655-3.13L9.67 7.8h-.722c-.063 0-.099-.05-.085-.112l.08-.335c.014-.062.04-.099.138-.099h.733c.2-.616.289-1.451 1.3-2.555.303-.335 1.02-.85 1.8-.85 1.067 0 1.507.39 1.5.836-.006.31-.301.69-.66.69-.521 0-.502-.366-.571-.669Zm.958 7.824c-.419 0-.684-.285-.676-.757.006-.384.386-.744.751-.744.517 0 .685.298.68.682-.006.385-.357.819-.755.819Zm2.125 0c-.42 0-.684-.285-.677-.757.006-.384.386-.744.752-.744.516 0 .684.298.679.682-.006.385-.357.819-.754.819Z" fill="#07377F"/></svg>