<svg width="100" height="25" viewBox="0 0 100 25" fill="none" xmlns="http://www.w3.org/2000/svg">
<path d="M31.9372 12.5729C30.7404 11.3863 29.1165 10.7179 27.4219 10.7142C25.7272 10.7105 24.1003 11.372 22.8983 12.5533C23.7028 11.7735 24.7855 11.3384 25.912 11.3424C27.0385 11.3464 28.118 11.789 28.9169 12.5745C29.7157 13.36 30.1695 14.4251 30.1799 15.5391C30.1903 16.6531 29.7566 17.7263 28.9727 18.5263L28.9667 18.5321L28.9381 18.5614L28.8917 18.6064C27.6926 19.7967 26.0646 20.4672 24.3657 20.4704C22.6667 20.4736 21.0361 19.8092 19.8325 18.6235C18.6289 17.4377 17.9509 15.8277 17.9477 14.1476C17.9444 12.4674 18.6162 10.8548 19.8152 9.66455C18.2151 11.245 17.3154 13.3894 17.314 15.626C17.3126 17.8625 18.2096 20.008 19.8078 21.5904C21.406 23.1729 23.5744 24.0626 25.8359 24.064C28.0975 24.0654 30.2669 23.1782 31.8671 21.5977C31.878 21.588 31.8888 21.5782 31.8987 21.5675L31.9382 21.5294L31.9511 21.5157C31.9688 21.4991 31.9856 21.4815 32.0024 21.4639L32.0251 21.4414C33.1872 20.246 33.8289 18.6476 33.8125 16.9894C33.7961 15.3312 33.1228 13.7456 31.9372 12.5729Z" fill="url(#paint0_linear_46_5660)"/>
<path d="M29.7703 8.09784C28.177 7.28962 26.367 6.99774 24.5966 7.26356C22.8263 7.52937 21.1854 8.3394 19.9065 9.57886L19.8779 9.60719L19.8482 9.6365L19.7909 9.69316C18.5948 10.8864 17.927 12.5007 17.9344 14.181C17.9418 15.8612 18.6238 17.4697 19.8305 18.6526C21.0371 19.8355 22.6694 20.4959 24.3685 20.4886C26.0675 20.4813 27.694 19.8068 28.8901 18.6135C28.0845 19.4032 26.995 19.8446 25.8607 19.8409C24.7264 19.8373 23.6399 19.3888 22.8395 18.5939C22.0392 17.799 21.5903 16.7227 21.5914 15.6009C21.5925 14.4791 22.0435 13.4036 22.8454 12.6103L22.8721 12.5849C24.076 11.4336 25.6881 10.7945 27.3628 10.8044C29.0375 10.8143 30.6417 11.4724 31.8317 12.6379C33.0216 13.8033 33.7027 15.3833 33.729 17.0393C33.7552 18.6953 33.1246 20.2956 31.9722 21.4974C32.9054 20.5528 33.6014 19.4048 34.0041 18.1457C34.4068 16.8865 34.505 15.5515 34.2908 14.248C34.0766 12.9445 33.556 11.709 32.7709 10.6408C31.9857 9.57257 30.9579 8.70156 29.7703 8.09784Z" fill="#17A674"/>
<path d="M29.7703 8.09784C28.177 7.28962 26.367 6.99774 24.5966 7.26356C22.8263 7.52937 21.1854 8.3394 19.9065 9.57886L19.8779 9.60719L19.8482 9.6365L19.7909 9.69316C18.5948 10.8864 17.927 12.5007 17.9344 14.181C17.9418 15.8612 18.6238 17.4697 19.8305 18.6526C21.0371 19.8355 22.6694 20.4959 24.3685 20.4886C26.0675 20.4813 27.694 19.8068 28.8901 18.6135C28.0845 19.4032 26.995 19.8446 25.8607 19.8409C24.7264 19.8373 23.6399 19.3888 22.8395 18.5939C22.0392 17.799 21.5903 16.7227 21.5914 15.6009C21.5925 14.4791 22.0435 13.4036 22.8454 12.6103L22.8721 12.5849C24.076 11.4336 25.6881 10.7945 27.3628 10.8044C29.0375 10.8143 30.6417 11.4724 31.8317 12.6379C33.0216 13.8033 33.7027 15.3833 33.729 17.0393C33.7552 18.6953 33.1246 20.2956 31.9722 21.4974C32.9054 20.5528 33.6014 19.4048 34.0041 18.1457C34.4068 16.8865 34.505 15.5515 34.2908 14.248C34.0766 12.9445 33.556 11.709 32.7709 10.6408C31.9857 9.57257 30.9579 8.70156 29.7703 8.09784Z" fill="url(#paint1_linear_46_5660)"/>
<path d="M29.7703 8.09784C28.177 7.28962 26.367 6.99774 24.5966 7.26356C22.8263 7.52937 21.1854 8.3394 19.9065 9.57886L19.8779 9.60719L19.8482 9.6365L19.7909 9.69316C18.5948 10.8864 17.927 12.5007 17.9344 14.181C17.9418 15.8612 18.6238 17.4697 19.8305 18.6526C21.0371 19.8355 22.6694 20.4959 24.3685 20.4886C26.0675 20.4813 27.694 19.8068 28.8901 18.6135C28.0845 19.4032 26.995 19.8446 25.8607 19.8409C24.7264 19.8373 23.6399 19.3888 22.8395 18.5939C22.0392 17.799 21.5903 16.7227 21.5914 15.6009C21.5925 14.4791 22.0435 13.4036 22.8454 12.6103L22.8721 12.5849C24.076 11.4336 25.6881 10.7945 27.3628 10.8044C29.0375 10.8143 30.6417 11.4724 31.8317 12.6379C33.0216 13.8033 33.7027 15.3833 33.729 17.0393C33.7552 18.6953 33.1246 20.2956 31.9722 21.4974C32.9054 20.5528 33.6014 19.4048 34.0041 18.1457C34.4068 16.8865 34.505 15.5515 34.2908 14.248C34.0766 12.9445 33.556 11.709 32.7709 10.6408C31.9857 9.57257 30.9579 8.70156 29.7703 8.09784Z" fill="url(#paint2_linear_46_5660)"/>
<path d="M29.7703 8.09784C28.177 7.28962 26.367 6.99774 24.5966 7.26356C22.8263 7.52937 21.1854 8.3394 19.9065 9.57886L19.8779 9.60719L19.8482 9.6365L19.7909 9.69316C18.5948 10.8864 17.927 12.5007 17.9344 14.181C17.9418 15.8612 18.6238 17.4697 19.8305 18.6526C21.0371 19.8355 22.6694 20.4959 24.3685 20.4886C26.0675 20.4813 27.694 19.8068 28.8901 18.6135C28.0845 19.4032 26.995 19.8446 25.8607 19.8409C24.7264 19.8373 23.6399 19.3888 22.8395 18.5939C22.0392 17.799 21.5903 16.7227 21.5914 15.6009C21.5925 14.4791 22.0435 13.4036 22.8454 12.6103L22.8721 12.5849C24.076 11.4336 25.6881 10.7945 27.3628 10.8044C29.0375 10.8143 30.6417 11.4724 31.8317 12.6379C33.0216 13.8033 33.7027 15.3833 33.729 17.0393C33.7552 18.6953 33.1246 20.2956 31.9722 21.4974C32.9054 20.5528 33.6014 19.4048 34.0041 18.1457C34.4068 16.8865 34.505 15.5515 34.2908 14.248C34.0766 12.9445 33.556 11.709 32.7709 10.6408C31.9857 9.57257 30.9579 8.70156 29.7703 8.09784Z" fill="url(#paint3_linear_46_5660)"/>
<path d="M29.7703 8.09784C28.177 7.28962 26.367 6.99774 24.5966 7.26356C22.8263 7.52937 21.1854 8.3394 19.9065 9.57886L19.8779 9.60719L19.8482 9.6365L19.7909 9.69316C18.5948 10.8864 17.927 12.5007 17.9344 14.181C17.9418 15.8612 18.6238 17.4697 19.8305 18.6526C21.0371 19.8355 22.6694 20.4959 24.3685 20.4886C26.0675 20.4813 27.694 19.8068 28.8901 18.6135C28.0845 19.4032 26.995 19.8446 25.8607 19.8409C24.7264 19.8373 23.6399 19.3888 22.8395 18.5939C22.0392 17.799 21.5903 16.7227 21.5914 15.6009C21.5925 14.4791 22.0435 13.4036 22.8454 12.6103L22.8721 12.5849C24.076 11.4336 25.6881 10.7945 27.3628 10.8044C29.0375 10.8143 30.6417 11.4724 31.8317 12.6379C33.0216 13.8033 33.7027 15.3833 33.729 17.0393C33.7552 18.6953 33.1246 20.2956 31.9722 21.4974C32.9054 20.5528 33.6014 19.4048 34.0041 18.1457C34.4068 16.8865 34.505 15.5515 34.2908 14.248C34.0766 12.9445 33.556 11.709 32.7709 10.6408C31.9857 9.57257 30.9579 8.70156 29.7703 8.09784Z" fill="url(#paint4_linear_46_5660)"/>
<path d="M29.7703 8.09784C28.177 7.28962 26.367 6.99774 24.5966 7.26356C22.8263 7.52937 21.1854 8.3394 19.9065 9.57886L19.8779 9.60719L19.8482 9.6365L19.7909 9.69316C18.5948 10.8864 17.927 12.5007 17.9344 14.181C17.9418 15.8612 18.6238 17.4697 19.8305 18.6526C21.0371 19.8355 22.6694 20.4959 24.3685 20.4886C26.0675 20.4813 27.694 19.8068 28.8901 18.6135C28.0845 19.4032 26.995 19.8446 25.8607 19.8409C24.7264 19.8373 23.6399 19.3888 22.8395 18.5939C22.0392 17.799 21.5903 16.7227 21.5914 15.6009C21.5925 14.4791 22.0435 13.4036 22.8454 12.6103L22.8721 12.5849C24.076 11.4336 25.6881 10.7945 27.3628 10.8044C29.0375 10.8143 30.6417 11.4724 31.8317 12.6379C33.0216 13.8033 33.7027 15.3833 33.729 17.0393C33.7552 18.6953 33.1246 20.2956 31.9722 21.4974C32.9054 20.5528 33.6014 19.4048 34.0041 18.1457C34.4068 16.8865 34.505 15.5515 34.2908 14.248C34.0766 12.9445 33.556 11.709 32.7709 10.6408C31.9857 9.57257 30.9579 8.70156 29.7703 8.09784Z" fill="url(#paint5_linear_46_5660)"/>
<path d="M29.7703 8.09784C28.177 7.28962 26.367 6.99774 24.5966 7.26356C22.8263 7.52937 21.1854 8.3394 19.9065 9.57886L19.8779 9.60719L19.8482 9.6365L19.7909 9.69316C18.5948 10.8864 17.927 12.5007 17.9344 14.181C17.9418 15.8612 18.6238 17.4697 19.8305 18.6526C21.0371 19.8355 22.6694 20.4959 24.3685 20.4886C26.0675 20.4813 27.694 19.8068 28.8901 18.6135C28.0845 19.4032 26.995 19.8446 25.8607 19.8409C24.7264 19.8373 23.6399 19.3888 22.8395 18.5939C22.0392 17.799 21.5903 16.7227 21.5914 15.6009C21.5925 14.4791 22.0435 13.4036 22.8454 12.6103L22.8721 12.5849C24.076 11.4336 25.6881 10.7945 27.3628 10.8044C29.0375 10.8143 30.6417 11.4724 31.8317 12.6379C33.0216 13.8033 33.7027 15.3833 33.729 17.0393C33.7552 18.6953 33.1246 20.2956 31.9722 21.4974C32.9054 20.5528 33.6014 19.4048 34.0041 18.1457C34.4068 16.8865 34.505 15.5515 34.2908 14.248C34.0766 12.9445 33.556 11.709 32.7709 10.6408C31.9857 9.57257 30.9579 8.70156 29.7703 8.09784Z" fill="url(#paint6_linear_46_5660)"/>
<path d="M84.6807 9.99868V13.9954C83.8712 15.0651 82.796 15.4308 81.7198 15.4308C79.8048 15.4308 78.4698 13.836 78.4698 12.0116C78.4698 10.1582 79.8048 8.5332 81.7198 8.5332C82.796 8.5332 83.8712 8.90468 84.6807 9.99868Z" fill="#111827"/>
<path d="M96.1113 0.0058595H74.041C73.5303 0.00573177 73.0245 0.105797 72.5526 0.300341C72.0807 0.494884 71.6519 0.780094 71.2907 1.13968C70.9295 1.49927 70.643 1.92619 70.4475 2.39606C70.252 2.86593 70.1514 3.36955 70.1514 3.87814V16.2671C73.0713 16.2788 75.3525 18.4969 75.3525 21.3404C75.3573 22.2759 75.1017 23.1944 74.6143 23.9942H96.1113C97.1424 23.9934 98.1311 23.5852 98.8602 22.8592C99.5893 22.1331 99.9992 21.1487 100 20.1219V3.88203C100.001 3.37316 99.9005 2.86914 99.7054 2.39883C99.5102 1.92852 99.2239 1.50113 98.8627 1.14112C98.5015 0.781103 98.0726 0.495529 97.6005 0.300731C97.1284 0.105932 96.6223 0.00573127 96.1113 0.0058595ZM88.3271 18.5154H84.6807V17.5206C83.7119 18.1498 82.5322 18.5154 81.1172 18.5154C77.6533 18.5154 74.8467 15.6428 74.8467 12.0117C74.8467 8.32806 77.6533 5.47879 81.1172 5.47879C82.5293 5.47879 83.7119 5.84443 84.6807 6.47361V5.47879H88.3271V18.5154ZM95.3076 18.5154H91.6611V5.47879H95.3125L95.3076 18.5154Z" fill="#111827"/>
<path d="M10.9453 14.154L17.4941 7.20972H11.4062L4.89355 14.189V0H0V24H4.89355V20.5274L7.60645 17.6908L12.0742 24H18.2324L10.9453 14.154Z" fill="#111827"/>
<path d="M40.8809 9.34056V7.20117H36.0635V24.0002H40.8809V14.1367C42.2695 12.6187 44.1035 11.8592 46.7022 11.759V7.20409C44.2432 7.20409 42.3701 7.9626 40.8809 9.34056Z" fill="#111827"/>
<path d="M63.5342 15.2013C63.5342 10.27 60.1241 7.04443 55.544 7.04443C50.4902 7.04443 47.0479 10.6055 47.0479 15.531C47.0479 20.296 50.5234 23.9913 55.6709 23.9913C59.4532 23.9913 62.462 21.8898 63.3301 18.8237H58.4873C57.9841 19.6243 57.0798 20.0247 55.7744 20.0247C53.2354 20.0247 51.9981 18.5592 51.6309 16.694H63.4336C63.5066 16.1999 63.5402 15.7008 63.5342 15.2013ZM51.6602 13.9653C52.0967 12.1712 53.332 10.87 55.5723 10.87C57.4463 10.87 58.6514 11.9709 58.917 13.9653H51.6602Z" fill="#111827"/>
<path d="M70.1357 18.7031C68.6348 18.7031 67.3936 19.8389 67.3936 21.3346C67.3936 22.8642 68.6348 24 70.1357 24C71.6729 24 72.9141 22.8642 72.9141 21.3346C72.9141 19.838 71.6729 18.7031 70.1357 18.7031Z" fill="#111827"/>
<path d="M22.8301 12.6199L22.8507 12.6001C22.8453 12.6048 22.8401 12.6099 22.8354 12.6153L22.8301 12.6199Z" fill="url(#paint7_linear_46_5660)"/>
<path d="M31.7855 21.5336L31.7955 21.5229L31.7626 21.5557L31.7855 21.5336Z" fill="url(#paint8_linear_46_5660)"/>
<defs>
<linearGradient id="paint0_linear_46_5660" x1="18.9861" y1="20.7377" x2="33.1359" y2="11.261" gradientUnits="userSpaceOnUse">
<stop stop-color="#8C8EFF"/>
<stop offset="0.549246" stop-color="#4B4EFC"/>
<stop offset="1" stop-color="#3D40F2"/>
</linearGradient>
<linearGradient id="paint1_linear_46_5660" x1="28.5279" y1="13.2455" x2="34.9095" y2="9.14112" gradientUnits="userSpaceOnUse">
<stop stop-color="#BFC527" stop-opacity="0"/>
<stop offset="1" stop-color="#BFC527"/>
</linearGradient>
<linearGradient id="paint2_linear_46_5660" x1="26.8129" y1="10.9639" x2="25.3167" y2="16.3683" gradientUnits="userSpaceOnUse">
<stop stop-color="#FEC412"/>
<stop offset="1" stop-color="#FEC412" stop-opacity="0"/>
</linearGradient>
<linearGradient id="paint3_linear_46_5660" x1="21.7301" y1="15.1571" x2="30.3364" y2="15.4094" gradientUnits="userSpaceOnUse">
<stop stop-color="#E05063"/>
<stop offset="1" stop-color="#E05063" stop-opacity="0"/>
</linearGradient>
<linearGradient id="paint4_linear_46_5660" x1="21.9796" y1="17.2845" x2="26.4366" y2="11.3778" gradientUnits="userSpaceOnUse">
<stop stop-color="#AF348D"/>
<stop offset="1" stop-color="#AF348D" stop-opacity="0"/>
</linearGradient>
<linearGradient id="paint5_linear_46_5660" x1="26.9064" y1="19.6894" x2="24.5549" y2="11.597" gradientUnits="userSpaceOnUse">
<stop stop-color="#3596D5"/>
<stop offset="1" stop-color="#3596D5" stop-opacity="0"/>
</linearGradient>
<linearGradient id="paint6_linear_46_5660" x1="32.7064" y1="20.4293" x2="27.9779" y2="16.5848" gradientUnits="userSpaceOnUse">
<stop stop-color="#17A674"/>
<stop offset="1" stop-color="#17A674" stop-opacity="0"/>
</linearGradient>
<linearGradient id="paint7_linear_46_5660" x1="25.8899" y1="16.8648" x2="27.5725" y2="15.1103" gradientUnits="userSpaceOnUse">
<stop stop-color="#009DAB" stop-opacity="0"/>
<stop offset="1" stop-color="#009DAB"/>
</linearGradient>
<linearGradient id="paint8_linear_46_5660" x1="36.3593" y1="16.8206" x2="28.4932" y2="24.9934" gradientUnits="userSpaceOnUse">
<stop offset="0.24" stop-color="#009DAB" stop-opacity="0"/>
<stop offset="1" stop-color="#009DAB"/>
</linearGradient>
</defs>
</svg>
