<svg width="139" height="34" viewBox="0 0 139 34" fill="none" xmlns="http://www.w3.org/2000/svg">
<path d="M44.3927 17.2875C42.7292 15.656 40.4719 14.7369 38.1164 14.7318C35.7608 14.7268 33.4995 15.6363 31.8287 17.2606C32.9469 16.1884 34.4519 15.5902 36.0177 15.5956C37.5835 15.6011 39.0841 16.2098 40.1944 17.2898C41.3048 18.3699 41.9355 19.8343 41.9501 21.3661C41.9646 22.8978 41.3617 24.3734 40.272 25.4734L40.2638 25.4815L40.2239 25.5218L40.1594 25.5836C38.4928 27.2202 36.2298 28.1422 33.8683 28.1466C31.5068 28.151 29.2402 27.2375 27.5672 25.6071C25.8942 23.9767 24.9517 21.7629 24.9472 19.4527C24.9427 17.1425 25.8765 14.9252 27.5432 13.2886C25.319 15.4618 24.0683 18.4103 24.0664 21.4855C24.0645 24.5608 25.3114 27.5108 27.5329 29.6866C29.7543 31.8625 32.7684 33.0859 35.9119 33.0878C39.0555 33.0897 42.071 31.8699 44.2952 29.6967C44.3103 29.6833 44.3254 29.6698 44.3392 29.6551L44.3941 29.6027L44.412 29.5839C44.4367 29.561 44.46 29.5369 44.4834 29.5127L44.5149 29.4818C46.1302 27.838 47.0222 25.6402 46.9993 23.3602C46.9765 21.0803 46.0406 18.9 44.3927 17.2875Z" fill="url(#paint0_linear_46_5608)"/>
<path d="M41.3807 11.1345C39.1661 10.0232 36.6501 9.6219 34.1893 9.98739C31.7285 10.3529 29.4477 11.4667 27.6701 13.1709L27.6302 13.2099L27.589 13.2502L27.5094 13.3281C25.8468 14.9688 24.9185 17.1885 24.9288 19.4988C24.9391 21.8091 25.8871 24.0208 27.5643 25.6473C29.2415 27.2738 31.5105 28.1819 33.8722 28.1718C36.2338 28.1617 38.4946 27.2343 40.1572 25.5936C39.0374 26.6794 37.5231 27.2863 35.9464 27.2813C34.3697 27.2763 32.8595 26.6596 31.7469 25.5666C30.6344 24.4737 30.0105 22.9936 30.012 21.4512C30.0135 19.9088 30.6404 18.43 31.7551 17.3391L31.7922 17.3042C33.4657 15.7212 35.7064 14.8424 38.0343 14.856C40.3621 14.8696 42.5919 15.7746 44.246 17.3771C45.9 18.9795 46.8467 21.152 46.8833 23.429C46.9198 25.706 46.0432 27.9065 44.4414 29.5589C45.7386 28.2601 46.706 26.6816 47.2657 24.9503C47.8255 23.219 47.962 21.3834 47.6643 19.5911C47.3665 17.7988 46.6428 16.0998 45.5515 14.6311C44.4601 13.1623 43.0315 11.9646 41.3807 11.1345Z" fill="#17A674"/>
<path d="M41.3807 11.1345C39.1661 10.0232 36.6501 9.6219 34.1893 9.98739C31.7285 10.3529 29.4477 11.4667 27.6701 13.1709L27.6302 13.2099L27.589 13.2502L27.5094 13.3281C25.8468 14.9688 24.9185 17.1885 24.9288 19.4988C24.9391 21.8091 25.8871 24.0208 27.5643 25.6473C29.2415 27.2738 31.5105 28.1819 33.8722 28.1718C36.2338 28.1617 38.4946 27.2343 40.1572 25.5936C39.0374 26.6794 37.5231 27.2863 35.9464 27.2813C34.3697 27.2763 32.8595 26.6596 31.7469 25.5666C30.6344 24.4737 30.0105 22.9936 30.012 21.4512C30.0135 19.9088 30.6404 18.43 31.7551 17.3391L31.7922 17.3042C33.4657 15.7212 35.7064 14.8424 38.0343 14.856C40.3621 14.8696 42.5919 15.7746 44.246 17.3771C45.9 18.9795 46.8467 21.152 46.8833 23.429C46.9198 25.706 46.0432 27.9065 44.4414 29.5589C45.7386 28.2601 46.706 26.6816 47.2657 24.9503C47.8255 23.219 47.962 21.3834 47.6643 19.5911C47.3665 17.7988 46.6428 16.0998 45.5515 14.6311C44.4601 13.1623 43.0315 11.9646 41.3807 11.1345Z" fill="url(#paint1_linear_46_5608)"/>
<path d="M41.3807 11.1345C39.1661 10.0232 36.6501 9.6219 34.1893 9.98739C31.7285 10.3529 29.4477 11.4667 27.6701 13.1709L27.6302 13.2099L27.589 13.2502L27.5094 13.3281C25.8468 14.9688 24.9185 17.1885 24.9288 19.4988C24.9391 21.8091 25.8871 24.0208 27.5643 25.6473C29.2415 27.2738 31.5105 28.1819 33.8722 28.1718C36.2338 28.1617 38.4946 27.2343 40.1572 25.5936C39.0374 26.6794 37.5231 27.2863 35.9464 27.2813C34.3697 27.2763 32.8595 26.6596 31.7469 25.5666C30.6344 24.4737 30.0105 22.9936 30.012 21.4512C30.0135 19.9088 30.6404 18.43 31.7551 17.3391L31.7922 17.3042C33.4657 15.7212 35.7064 14.8424 38.0343 14.856C40.3621 14.8696 42.5919 15.7746 44.246 17.3771C45.9 18.9795 46.8467 21.152 46.8833 23.429C46.9198 25.706 46.0432 27.9065 44.4414 29.5589C45.7386 28.2601 46.706 26.6816 47.2657 24.9503C47.8255 23.219 47.962 21.3834 47.6643 19.5911C47.3665 17.7988 46.6428 16.0998 45.5515 14.6311C44.4601 13.1623 43.0315 11.9646 41.3807 11.1345Z" fill="url(#paint2_linear_46_5608)"/>
<path d="M41.3807 11.1345C39.1661 10.0232 36.6501 9.6219 34.1893 9.98739C31.7285 10.3529 29.4477 11.4667 27.6701 13.1709L27.6302 13.2099L27.589 13.2502L27.5094 13.3281C25.8468 14.9688 24.9185 17.1885 24.9288 19.4988C24.9391 21.8091 25.8871 24.0208 27.5643 25.6473C29.2415 27.2738 31.5105 28.1819 33.8722 28.1718C36.2338 28.1617 38.4946 27.2343 40.1572 25.5936C39.0374 26.6794 37.5231 27.2863 35.9464 27.2813C34.3697 27.2763 32.8595 26.6596 31.7469 25.5666C30.6344 24.4737 30.0105 22.9936 30.012 21.4512C30.0135 19.9088 30.6404 18.43 31.7551 17.3391L31.7922 17.3042C33.4657 15.7212 35.7064 14.8424 38.0343 14.856C40.3621 14.8696 42.5919 15.7746 44.246 17.3771C45.9 18.9795 46.8467 21.152 46.8833 23.429C46.9198 25.706 46.0432 27.9065 44.4414 29.5589C45.7386 28.2601 46.706 26.6816 47.2657 24.9503C47.8255 23.219 47.962 21.3834 47.6643 19.5911C47.3665 17.7988 46.6428 16.0998 45.5515 14.6311C44.4601 13.1623 43.0315 11.9646 41.3807 11.1345Z" fill="url(#paint3_linear_46_5608)"/>
<path d="M41.3807 11.1345C39.1661 10.0232 36.6501 9.6219 34.1893 9.98739C31.7285 10.3529 29.4477 11.4667 27.6701 13.1709L27.6302 13.2099L27.589 13.2502L27.5094 13.3281C25.8468 14.9688 24.9185 17.1885 24.9288 19.4988C24.9391 21.8091 25.8871 24.0208 27.5643 25.6473C29.2415 27.2738 31.5105 28.1819 33.8722 28.1718C36.2338 28.1617 38.4946 27.2343 40.1572 25.5936C39.0374 26.6794 37.5231 27.2863 35.9464 27.2813C34.3697 27.2763 32.8595 26.6596 31.7469 25.5666C30.6344 24.4737 30.0105 22.9936 30.012 21.4512C30.0135 19.9088 30.6404 18.43 31.7551 17.3391L31.7922 17.3042C33.4657 15.7212 35.7064 14.8424 38.0343 14.856C40.3621 14.8696 42.5919 15.7746 44.246 17.3771C45.9 18.9795 46.8467 21.152 46.8833 23.429C46.9198 25.706 46.0432 27.9065 44.4414 29.5589C45.7386 28.2601 46.706 26.6816 47.2657 24.9503C47.8255 23.219 47.962 21.3834 47.6643 19.5911C47.3665 17.7988 46.6428 16.0998 45.5515 14.6311C44.4601 13.1623 43.0315 11.9646 41.3807 11.1345Z" fill="url(#paint4_linear_46_5608)"/>
<path d="M41.3807 11.1345C39.1661 10.0232 36.6501 9.6219 34.1893 9.98739C31.7285 10.3529 29.4477 11.4667 27.6701 13.1709L27.6302 13.2099L27.589 13.2502L27.5094 13.3281C25.8468 14.9688 24.9185 17.1885 24.9288 19.4988C24.9391 21.8091 25.8871 24.0208 27.5643 25.6473C29.2415 27.2738 31.5105 28.1819 33.8722 28.1718C36.2338 28.1617 38.4946 27.2343 40.1572 25.5936C39.0374 26.6794 37.5231 27.2863 35.9464 27.2813C34.3697 27.2763 32.8595 26.6596 31.7469 25.5666C30.6344 24.4737 30.0105 22.9936 30.012 21.4512C30.0135 19.9088 30.6404 18.43 31.7551 17.3391L31.7922 17.3042C33.4657 15.7212 35.7064 14.8424 38.0343 14.856C40.3621 14.8696 42.5919 15.7746 44.246 17.3771C45.9 18.9795 46.8467 21.152 46.8833 23.429C46.9198 25.706 46.0432 27.9065 44.4414 29.5589C45.7386 28.2601 46.706 26.6816 47.2657 24.9503C47.8255 23.219 47.962 21.3834 47.6643 19.5911C47.3665 17.7988 46.6428 16.0998 45.5515 14.6311C44.4601 13.1623 43.0315 11.9646 41.3807 11.1345Z" fill="url(#paint5_linear_46_5608)"/>
<path d="M41.3807 11.1345C39.1661 10.0232 36.6501 9.6219 34.1893 9.98739C31.7285 10.3529 29.4477 11.4667 27.6701 13.1709L27.6302 13.2099L27.589 13.2502L27.5094 13.3281C25.8468 14.9688 24.9185 17.1885 24.9288 19.4988C24.9391 21.8091 25.8871 24.0208 27.5643 25.6473C29.2415 27.2738 31.5105 28.1819 33.8722 28.1718C36.2338 28.1617 38.4946 27.2343 40.1572 25.5936C39.0374 26.6794 37.5231 27.2863 35.9464 27.2813C34.3697 27.2763 32.8595 26.6596 31.7469 25.5666C30.6344 24.4737 30.0105 22.9936 30.012 21.4512C30.0135 19.9088 30.6404 18.43 31.7551 17.3391L31.7922 17.3042C33.4657 15.7212 35.7064 14.8424 38.0343 14.856C40.3621 14.8696 42.5919 15.7746 44.246 17.3771C45.9 18.9795 46.8467 21.152 46.8833 23.429C46.9198 25.706 46.0432 27.9065 44.4414 29.5589C45.7386 28.2601 46.706 26.6816 47.2657 24.9503C47.8255 23.219 47.962 21.3834 47.6643 19.5911C47.3665 17.7988 46.6428 16.0998 45.5515 14.6311C44.4601 13.1623 43.0315 11.9646 41.3807 11.1345Z" fill="url(#paint6_linear_46_5608)"/>
<path d="M117.706 13.7484V19.244C116.581 20.7148 115.086 21.2175 113.59 21.2175C110.929 21.2175 109.073 19.0247 109.073 16.5163C109.073 13.9677 110.929 11.7334 113.59 11.7334C115.086 11.7334 116.581 12.2442 117.706 13.7484Z" fill="#111827"/>
<path d="M133.595 0.00781267H102.917C102.207 0.00763705 101.504 0.145227 100.848 0.412724C100.192 0.680221 99.596 1.07239 99.0939 1.56682C98.5918 2.06125 98.1936 2.64827 97.9218 3.29434C97.6501 3.94041 97.5103 4.63288 97.5103 5.33221V22.3671C101.569 22.3831 104.74 25.4331 104.74 29.3428C104.746 30.6291 104.391 31.8921 103.714 32.9918H133.595C135.028 32.9907 136.402 32.4294 137.415 31.4311C138.429 30.4328 138.999 29.0792 139 27.6674V5.33755C139.001 4.63785 138.862 3.94483 138.59 3.29815C138.319 2.65146 137.921 2.06381 137.419 1.56879C136.917 1.07377 136.321 0.681109 135.665 0.413261C135.008 0.145413 134.305 0.00763635 133.595 0.00781267ZM122.775 25.4585H117.706V24.0906C116.359 24.9557 114.72 25.4585 112.753 25.4585C107.938 25.4585 104.037 21.5086 104.037 16.5158C104.037 11.4508 107.938 7.5331 112.753 7.5331C114.716 7.5331 116.359 8.03585 117.706 8.90097V7.5331H122.775V25.4585ZM132.477 25.4585H127.409V7.5331H132.484L132.477 25.4585Z" fill="#111827"/>
<path d="M15.214 19.4617L24.3169 9.91337H15.8547L6.80204 19.5098V0H0V33H6.80204V28.2252L10.573 24.3248L16.7832 33H25.3431L15.214 19.4617Z" fill="#111827"/>
<path d="M56.8244 12.843V9.90137H50.1282V33H56.8244V19.4377C58.7546 17.3504 61.3039 16.3061 64.916 16.1684V9.90538C61.498 9.90538 58.8944 10.9483 56.8244 12.843Z" fill="#111827"/>
<path d="M88.3125 20.9018C88.3125 14.1212 83.5724 9.68604 77.2061 9.68604C70.1814 9.68604 65.3965 14.5826 65.3965 21.355C65.3965 27.9069 70.2276 32.9879 77.3826 32.9879C82.6399 32.9879 86.8221 30.0984 88.0288 25.8825H81.2974C80.5978 26.9834 79.3409 27.5338 77.5264 27.5338C73.9971 27.5338 72.2773 25.5188 71.7669 22.9542H88.1727C88.2741 22.2748 88.3209 21.5885 88.3125 20.9018ZM71.8076 19.2023C72.4144 16.7353 74.1315 14.9462 77.2455 14.9462C79.8504 14.9462 81.5254 16.4599 81.8946 19.2023H71.8076Z" fill="#111827"/>
<path d="M97.4886 25.7168C95.4023 25.7168 93.677 27.2785 93.677 29.335C93.677 31.4383 95.4023 33.0001 97.4886 33.0001C99.6252 33.0001 101.351 31.4383 101.351 29.335C101.351 27.2772 99.6252 25.7168 97.4886 25.7168Z" fill="#111827"/>
<path d="M31.7339 17.3524L31.7626 17.3252C31.755 17.3316 31.7479 17.3386 31.7413 17.3461L31.7339 17.3524Z" fill="url(#paint7_linear_46_5608)"/>
<path d="M44.182 29.6089L44.1959 29.5942L44.1501 29.6393L44.182 29.6089Z" fill="url(#paint8_linear_46_5608)"/>
<defs>
<linearGradient id="paint0_linear_46_5608" x1="26.3906" y1="28.5141" x2="45.9262" y2="15.2878" gradientUnits="userSpaceOnUse">
<stop stop-color="#8C8EFF"/>
<stop offset="0.549246" stop-color="#4B4EFC"/>
<stop offset="1" stop-color="#3D40F2"/>
</linearGradient>
<linearGradient id="paint1_linear_46_5608" x1="39.6538" y1="18.2125" x2="48.4677" y2="12.482" gradientUnits="userSpaceOnUse">
<stop stop-color="#BFC527" stop-opacity="0"/>
<stop offset="1" stop-color="#BFC527"/>
</linearGradient>
<linearGradient id="paint2_linear_46_5608" x1="37.2699" y1="15.0754" x2="35.2317" y2="22.5178" gradientUnits="userSpaceOnUse">
<stop stop-color="#FEC412"/>
<stop offset="1" stop-color="#FEC412" stop-opacity="0"/>
</linearGradient>
<linearGradient id="paint3_linear_46_5608" x1="30.2048" y1="20.841" x2="42.1673" y2="21.1955" gradientUnits="userSpaceOnUse">
<stop stop-color="#E05063"/>
<stop offset="1" stop-color="#E05063" stop-opacity="0"/>
</linearGradient>
<linearGradient id="paint4_linear_46_5608" x1="30.5516" y1="23.7661" x2="36.6615" y2="15.5807" gradientUnits="userSpaceOnUse">
<stop stop-color="#AF348D"/>
<stop offset="1" stop-color="#AF348D" stop-opacity="0"/>
</linearGradient>
<linearGradient id="paint5_linear_46_5608" x1="37.3999" y1="27.0729" x2="34.1961" y2="15.9272" gradientUnits="userSpaceOnUse">
<stop stop-color="#3596D5"/>
<stop offset="1" stop-color="#3596D5" stop-opacity="0"/>
</linearGradient>
<linearGradient id="paint6_linear_46_5608" x1="45.4619" y1="28.0903" x2="38.9462" y2="22.7348" gradientUnits="userSpaceOnUse">
<stop stop-color="#17A674"/>
<stop offset="1" stop-color="#17A674" stop-opacity="0"/>
</linearGradient>
<linearGradient id="paint7_linear_46_5608" x1="35.9875" y1="23.189" x2="38.2997" y2="20.7512" gradientUnits="userSpaceOnUse">
<stop stop-color="#009DAB" stop-opacity="0"/>
<stop offset="1" stop-color="#009DAB"/>
</linearGradient>
<linearGradient id="paint8_linear_46_5608" x1="50.5397" y1="23.1282" x2="39.7285" y2="34.4832" gradientUnits="userSpaceOnUse">
<stop offset="0.24" stop-color="#009DAB" stop-opacity="0"/>
<stop offset="1" stop-color="#009DAB"/>
</linearGradient>
</defs>
</svg>
