<svg width="177" height="23" viewBox="0 0 177 23" fill="none" xmlns="http://www.w3.org/2000/svg">
<g clip-path="url(#clip0_46_5609)">
<path d="M22.1714 6.36667V21.0333C22.1714 21.4223 22.0169 21.7954 21.7418 22.0704C21.4668 22.3455 21.0937 22.5 20.7047 22.5H6.03805C4.48212 22.5 2.98991 21.8819 1.88969 20.7817C0.78948 19.6815 0.171387 18.1893 0.171387 16.6333V6.36667C0.171387 4.81073 0.78948 3.31852 1.88969 2.21831C2.98991 1.11809 4.48212 0.5 6.03805 0.5L16.3047 0.5C17.8607 0.5 19.3529 1.11809 20.4531 2.21831C21.5533 3.31852 22.1714 4.81073 22.1714 6.36667Z" fill="#FAB900"/>
<path d="M17.038 15.9L14.728 13.59C15.2822 12.753 15.5757 11.7704 15.5714 10.7666C15.5714 9.75136 15.2703 8.75888 14.7062 7.91471C14.1422 7.07054 13.3405 6.41258 12.4025 6.02405C11.4645 5.63552 10.4323 5.53387 9.43656 5.73194C8.44079 5.93001 7.52612 6.41891 6.80821 7.13682C6.0903 7.85473 5.6014 8.7694 5.40333 9.76517C5.20525 10.7609 5.30691 11.7931 5.69544 12.7311C6.08397 13.6691 6.74192 14.4708 7.5861 15.0348C8.43027 15.5989 9.42275 15.9 10.438 15.9C11.4418 15.9043 12.4244 15.6108 13.2614 15.0566L15.5714 17.3666C15.7658 17.5611 16.0296 17.6704 16.3047 17.6704C16.5797 17.6704 16.8435 17.5611 17.038 17.3666C17.2325 17.1721 17.3418 16.9084 17.3418 16.6333C17.3418 16.3582 17.2325 16.0945 17.038 15.9ZM13.6574 12.5193C13.3178 13.1377 12.8091 13.6464 12.1907 13.986C11.6538 14.2812 11.0507 14.4351 10.438 14.4333C9.71283 14.4333 9.00391 14.2183 8.40093 13.8154C7.79795 13.4125 7.32799 12.8398 7.05046 12.1698C6.77294 11.4998 6.70033 10.7626 6.84181 10.0513C6.98329 9.34004 7.33251 8.6867 7.8453 8.17391C8.35809 7.66112 9.01143 7.3119 9.72269 7.17042C10.434 7.02894 11.1712 7.10156 11.8412 7.37908C12.5112 7.6566 13.0838 8.12657 13.4867 8.72955C13.8896 9.33253 14.1047 10.0414 14.1047 10.7666C14.1065 11.3793 13.9526 11.9824 13.6574 12.5193Z" fill="white"/>
<path d="M10.9587 11.2872C10.8561 11.3906 10.7251 11.4612 10.5823 11.4898C10.4395 11.5185 10.2913 11.5039 10.1568 11.4481C10.0223 11.3922 9.90745 11.2976 9.82693 11.1762C9.74641 11.0548 9.70386 10.9122 9.7047 10.7665C9.7047 10.572 9.62744 10.3855 9.48992 10.248C9.35239 10.1105 9.16586 10.0332 8.97137 10.0332C8.77688 10.0332 8.59035 10.1105 8.45283 10.248C8.3153 10.3855 8.23804 10.572 8.23804 10.7665C8.23842 11.2014 8.36765 11.6263 8.60942 11.9878C8.85118 12.3492 9.19464 12.6309 9.5964 12.7972C9.99815 12.9636 10.4402 13.0072 10.8667 12.9224C11.2932 12.8377 11.685 12.6285 11.9927 12.3212C12.1128 12.1809 12.1756 12.0005 12.1685 11.8159C12.1614 11.6313 12.0849 11.4563 11.9543 11.3257C11.8236 11.1951 11.6486 11.1185 11.464 11.1114C11.2794 11.1043 11.099 11.1671 10.9587 11.2872Z" fill="white"/>
<path d="M35.4667 20.4835C31.3893 20.4835 28.5513 18.2835 28.1993 14.8149H31.5067C31.8513 16.5602 33.4353 17.6309 35.6647 17.6309C37.5053 17.6309 38.598 16.8975 38.598 15.6435C38.598 14.6462 37.8647 14.0082 36.398 13.7515L33.6333 13.2015C30.414 12.5635 28.9107 11.0015 28.9107 8.39086C28.9107 5.22286 31.4553 3.09619 35.2467 3.09619C36.7133 3.09619 41.5973 3.48486 42.14 8.36886H38.8327C38.62 7.17352 37.85 5.82419 35.4667 5.82419C33.56 5.82419 32.3793 6.68219 32.3793 8.06086C32.3793 9.43953 33.5967 9.90152 34.9167 10.1729L37.0067 10.5982C40.5413 11.3315 42.052 12.7249 42.052 15.2402C42.052 18.4229 39.4707 20.4835 35.4667 20.4835Z" fill="#222222"/>
<path d="M50.0381 20.5051C49.2123 20.5396 48.3882 20.404 47.617 20.1068C46.8457 19.8097 46.1437 19.3573 45.5545 18.7777C44.9653 18.1981 44.5014 17.5036 44.1916 16.7374C43.8817 15.9711 43.7326 15.1494 43.7534 14.3231C43.7138 13.4989 43.8467 12.6754 44.1434 11.9053C44.4402 11.1353 44.8943 10.4356 45.4768 9.85104C46.0593 9.26647 46.7573 8.80986 47.5263 8.51038C48.2953 8.21091 49.1183 8.07516 49.9427 8.11181C53.3601 8.11181 55.7507 10.5611 55.7507 14.0738C55.7561 14.3997 55.7389 14.7256 55.6994 15.0491H46.8114V15.2178C46.9141 15.9861 47.3074 16.6857 47.9104 17.1727C48.5133 17.6598 49.2801 17.8971 50.0527 17.8358C50.45 17.8737 50.8503 17.8109 51.2168 17.6532C51.5834 17.4956 51.9043 17.2482 52.1501 16.9338H55.4867C54.8121 19.0825 52.6267 20.5051 50.0381 20.5051ZM49.9647 10.6858C49.246 10.6446 48.5371 10.8692 47.9732 11.3168C47.4093 11.7644 47.0298 12.4038 46.9067 13.1131L46.8627 13.2965H52.6267V13.1278C52.6157 12.7884 52.5364 12.4546 52.3936 12.1464C52.2508 11.8383 52.0475 11.562 51.7956 11.3341C51.5438 11.1062 51.2486 10.9314 50.9278 10.82C50.6069 10.7086 50.2669 10.663 49.9281 10.6858H49.9647Z" fill="#222222"/>
<path d="M62.8713 20.3809C61.2978 20.3462 59.8021 19.6892 58.7121 18.5538C57.622 17.4184 57.0265 15.8972 57.056 14.3236C57.0266 13.5391 57.1548 12.7568 57.4332 12.0228C57.7116 11.2888 58.1344 10.6182 58.6767 10.0506C59.219 9.48307 59.8697 9.03009 60.5902 8.71854C61.3107 8.407 62.0864 8.24322 62.8713 8.2369C64.0381 8.21488 65.1857 8.53619 66.1713 9.1609L66.3987 9.30757V8.48623H69.574V20.1316H66.406V19.3102L66.1787 19.4569C65.1909 20.083 64.0406 20.4044 62.8713 20.3809ZM63.4433 10.8476C63.0013 10.8579 62.5658 10.9563 62.1623 11.1371C61.7588 11.3179 61.3954 11.5775 61.0935 11.9005C60.7916 12.2236 60.5573 12.6037 60.4042 13.0185C60.2511 13.4333 60.1824 13.8745 60.202 14.3162C60.1864 14.7541 60.2582 15.1907 60.4135 15.6005C60.5687 16.0102 60.8042 16.3848 61.106 16.7024C61.4079 17.02 61.7701 17.2742 62.1715 17.45C62.5728 17.6258 63.0052 17.7197 63.4433 17.7262C64.0116 17.7436 64.5755 17.6225 65.0866 17.3734C65.5976 17.1243 66.0404 16.7546 66.3767 16.2962V16.2596V12.3509V12.3142C66.0463 11.8477 65.6055 11.4702 65.0936 11.2155C64.5817 10.9609 64.0148 10.837 63.4433 10.8549V10.8476Z" fill="#222222"/>
<path d="M72.192 20.1312V8.48587H75.3674V10.0332L75.6094 9.80587C76.6826 8.81674 78.0953 8.27844 79.5547 8.30253V11.3019C78.7792 11.2957 78.0108 11.4488 77.2969 11.7515C76.5829 12.0542 75.9387 12.5002 75.404 13.0619V13.1059V20.1459L72.192 20.1312Z" fill="#222222"/>
<path d="M86.6094 20.4101C85.8101 20.4101 85.0186 20.2527 84.2801 19.9468C83.5416 19.6409 82.8706 19.1926 82.3054 18.6274C81.7403 18.0622 81.2919 17.3912 80.986 16.6527C80.6801 15.9143 80.5227 15.1228 80.5227 14.3235C80.5227 13.5242 80.6801 12.7327 80.986 11.9942C81.2919 11.2557 81.7403 10.5848 82.3054 10.0196C82.8706 9.45436 83.5416 9.00602 84.2801 8.70014C85.0186 8.39425 85.8101 8.23682 86.6094 8.23682C89.66 8.23682 92.036 10.1435 92.476 12.9008H89.2934C89.1324 12.3303 88.7815 11.8319 88.2988 11.4879C87.8161 11.1438 87.2305 10.9748 86.6387 11.0088C86.2101 11.005 85.7852 11.0894 85.3906 11.2569C84.996 11.4243 84.6401 11.6712 84.345 11.9821C84.0499 12.293 83.8219 12.6613 83.6753 13.0641C83.5287 13.4669 83.4665 13.8956 83.4927 14.3235C83.4629 14.7508 83.5228 15.1796 83.6685 15.5823C83.8142 15.9851 84.0424 16.353 84.3387 16.6623C84.6349 16.9717 84.9926 17.2157 85.3886 17.3787C85.7847 17.5417 86.2105 17.6201 86.6387 17.6088C87.2292 17.6523 87.8165 17.4897 88.3006 17.1487C88.7846 16.8077 89.1355 16.3095 89.2934 15.7388H92.476C92.036 18.4961 89.638 20.4101 86.6094 20.4101Z" fill="#222222"/>
<path d="M103.036 20.1315V14.0229C103.036 12.0722 102.046 10.9575 100.323 10.9575C99.7818 11.0015 99.257 11.1628 98.7846 11.43C98.3123 11.6971 97.9037 12.0639 97.5874 12.5049L97.5507 12.5489V20.1315H94.3827V2.7002H97.5507V9.46886L97.7927 9.2782C98.7265 8.50493 99.9023 8.08443 101.115 8.0902C104.209 8.0902 106.204 10.2902 106.204 13.7002V20.1095L103.036 20.1315Z" fill="#222222"/>
<path d="M121.663 20.1312L120.343 16.8678H112.467L111.139 20.1312H107.627L114.806 3.37451H117.996L125.153 20.1312H121.663ZM113.669 13.8905H119.14L116.375 7.15118L113.669 13.8905Z" fill="#222222"/>
<path d="M131.013 20.5051C129.113 20.5051 125.879 19.9551 125.535 16.2884H128.424C128.659 17.4618 129.539 18.0631 131.035 18.0631C132.355 18.0631 133.235 17.6011 133.235 16.8898C133.235 16.3178 132.751 15.8998 131.937 15.7751L129.37 15.3278C128.101 15.1004 125.975 14.3598 125.975 11.9544C125.975 9.54911 127.896 8.14111 130.991 8.14111C132.457 8.14111 135.838 8.50778 136.19 11.9104H133.315C133.176 10.9718 132.325 10.4438 130.991 10.4438C129.656 10.4438 129.077 11.0744 129.077 11.6098C129.077 11.9838 129.275 12.6364 130.617 12.8784L132.817 13.2304C135.163 13.6484 136.307 14.7558 136.307 16.5964C136.249 19.0164 134.247 20.5051 131.013 20.5051Z" fill="#222222"/>
<path d="M142.959 20.5051C141.052 20.5051 137.825 19.9551 137.481 16.2884H140.363C140.597 17.4618 141.477 18.0631 142.981 18.0631C144.293 18.0631 145.144 17.6011 145.144 16.8898C145.144 16.3178 144.66 15.8998 143.853 15.7751L141.287 15.3278C140.018 15.1004 137.891 14.3598 137.891 11.9544C137.891 9.54911 139.813 8.14111 142.907 8.14111C144.374 8.14111 147.755 8.50778 148.107 11.9104H145.232C145.093 10.9718 144.235 10.4438 142.907 10.4438C141.58 10.4438 140.986 11.0744 140.986 11.6098C140.986 11.9838 141.191 12.6364 142.533 12.8784L144.733 13.2304C147.08 13.6484 148.224 14.7558 148.224 16.5964C148.195 19.0164 146.185 20.5051 142.959 20.5051Z" fill="#222222"/>
<path d="M150.358 20.1312V8.48586H153.533V20.1312H150.358ZM151.971 5.97052C151.72 5.98343 151.47 5.94524 151.234 5.85826C150.998 5.77128 150.782 5.63733 150.6 5.46453C150.418 5.29172 150.272 5.08367 150.173 4.85298C150.073 4.6223 150.021 4.37379 150.021 4.12252C150.021 3.60906 150.225 3.11664 150.588 2.75356C150.951 2.39049 151.443 2.18652 151.957 2.18652C152.47 2.18652 152.963 2.39049 153.326 2.75356C153.689 3.11664 153.893 3.60906 153.893 4.12252C153.893 4.3715 153.843 4.61795 153.745 4.84708C153.648 5.07621 153.505 5.28329 153.326 5.45588C153.146 5.62848 152.934 5.76304 152.701 5.85147C152.468 5.93991 152.22 5.9804 151.971 5.97052Z" fill="#222222"/>
<path d="M160.881 20.5051C158.982 20.5051 155.748 19.9551 155.411 16.2884H158.293C158.527 17.4618 159.407 18.0631 160.903 18.0631C162.223 18.0631 163.103 17.6011 163.103 16.8898C163.103 16.3178 162.619 15.8998 161.805 15.7751L159.239 15.3278C157.977 15.1004 155.851 14.3598 155.851 11.9544C155.851 9.54911 157.772 8.14111 160.859 8.14111C162.326 8.14111 165.707 8.50778 166.059 11.9104H163.184C163.052 10.9718 162.194 10.4438 160.859 10.4438C159.525 10.4438 158.945 11.0744 158.945 11.6098C158.945 11.9838 159.143 12.6364 160.485 12.8784L162.685 13.2304C165.039 13.6484 166.176 14.7558 166.176 16.5964C166.117 19.0164 164.115 20.5051 160.881 20.5051Z" fill="#222222"/>
<path d="M173.971 20.5051C171.148 20.5051 169.329 18.5471 169.329 15.5184V11.1184H166.814V8.48577H169.329V4.21777H172.475V8.48577H176.787V11.1038H172.475V15.5038C172.475 16.8531 173.289 17.6231 174.719 17.6231C175.362 17.6031 175.999 17.5071 176.619 17.3371L177.022 20.0138C176.042 20.3562 175.009 20.5225 173.971 20.5051Z" fill="#222222"/>
</g>
<defs>
<clipPath id="clip0_46_5609">
<rect width="176.829" height="22" fill="white" transform="translate(0.171387 0.5)"/>
</clipPath>
</defs>
</svg>
