<?xml version="1.0" encoding="UTF-8" standalone="no"?>
<!DOCTYPE svg PUBLIC "-//W3C//DTD SVG 1.1//EN"
 "http://www.w3.org/Graphics/SVG/1.1/DTD/svg11.dtd">
<!-- Generated by graphviz version 5.0.0 (20220707.1540)
 -->
<!-- Title: dependencies Pages: 1 -->
<svg width="907pt" height="174pt"
 viewBox="0.00 0.00 907.00 173.80" xmlns="http://www.w3.org/2000/svg" xmlns:xlink="http://www.w3.org/1999/xlink">
<g id="graph0" class="graph" transform="scale(1 1) rotate(0) translate(4 169.8)">
<title>dependencies</title>
<polygon fill="white" stroke="transparent" points="-4,4 -4,-169.8 903,-169.8 903,4 -4,4"/>
<text text-anchor="middle" x="449.5" y="-8.2" font-family="sans-serif" font-size="14.00">dependencies</text>
<g id="clust1" class="cluster">
<title>cluster_AppExperimentsModule</title>
<polygon fill="none" stroke="black" stroke-dasharray="1,5" points="8,-32.8 8,-157.8 891,-157.8 891,-32.8 8,-32.8"/>
</g>
<g id="clust2" class="cluster">
<title>cluster_AppExperimentsModule_declarations</title>
<polygon fill="none" stroke="black" points="691,-40.8 691,-92.8 883,-92.8 883,-40.8 691,-40.8"/>
</g>
<g id="clust4" class="cluster">
<title>cluster_AppExperimentsModule_imports</title>
<polygon fill="none" stroke="black" points="16,-40.8 16,-92.8 683,-92.8 683,-40.8 16,-40.8"/>
</g>
<!-- AppExperimentsComponent -->
<g id="node1" class="node">
<title>AppExperimentsComponent</title>
<polygon fill="#ffffb3" stroke="black" points="875.2,-84.8 698.8,-84.8 698.8,-48.8 875.2,-48.8 875.2,-84.8"/>
<text text-anchor="middle" x="787" y="-62.6" font-family="Times,serif" font-size="14.00">AppExperimentsComponent</text>
</g>
<!-- AppExperimentsModule -->
<g id="node2" class="node">
<title>AppExperimentsModule</title>
<polygon fill="#8dd3c7" stroke="black" points="467.42,-149.8 464.42,-153.8 443.42,-153.8 440.42,-149.8 312.58,-149.8 312.58,-113.8 467.42,-113.8 467.42,-149.8"/>
<text text-anchor="middle" x="390" y="-127.6" font-family="Times,serif" font-size="14.00">AppExperimentsModule</text>
</g>
<!-- AppExperimentsComponent&#45;&gt;AppExperimentsModule -->
<g id="edge1" class="edge">
<title>AppExperimentsComponent&#45;&gt;AppExperimentsModule</title>
<path fill="none" stroke="black" d="M787,-84.91C787,-104.14 787,-131.8 787,-131.8 787,-131.8 477.49,-131.8 477.49,-131.8"/>
<polygon fill="black" stroke="black" points="477.49,-128.3 467.49,-131.8 477.49,-135.3 477.49,-128.3"/>
</g>
<!-- AppExperimentsRoutingModule -->
<g id="node3" class="node">
<title>AppExperimentsRoutingModule</title>
<polygon fill="#8dd3c7" stroke="black" points="674.54,-84.8 671.54,-88.8 650.54,-88.8 647.54,-84.8 475.46,-84.8 475.46,-48.8 674.54,-48.8 674.54,-84.8"/>
<text text-anchor="middle" x="575" y="-62.6" font-family="Times,serif" font-size="14.00">AppExperimentsRoutingModule</text>
</g>
<!-- AppExperimentsRoutingModule&#45;&gt;AppExperimentsModule -->
<g id="edge2" class="edge">
<title>AppExperimentsRoutingModule&#45;&gt;AppExperimentsModule</title>
<path fill="none" stroke="black" d="M475.27,-66.8C467.36,-66.8 462.35,-66.8 462.35,-66.8 462.35,-66.8 462.35,-103.69 462.35,-103.69"/>
<polygon fill="black" stroke="black" points="458.85,-103.69 462.35,-113.69 465.85,-103.69 458.85,-103.69"/>
</g>
<!-- EmptyScreenModule -->
<g id="node4" class="node">
<title>EmptyScreenModule</title>
<polygon fill="#8dd3c7" stroke="black" points="457.47,-84.8 454.47,-88.8 433.47,-88.8 430.47,-84.8 322.53,-84.8 322.53,-48.8 457.47,-48.8 457.47,-84.8"/>
<text text-anchor="middle" x="390" y="-62.6" font-family="Times,serif" font-size="14.00">EmptyScreenModule</text>
</g>
<!-- EmptyScreenModule&#45;&gt;AppExperimentsModule -->
<g id="edge3" class="edge">
<title>EmptyScreenModule&#45;&gt;AppExperimentsModule</title>
<path fill="none" stroke="black" d="M390,-84.91C390,-84.91 390,-103.79 390,-103.79"/>
<polygon fill="black" stroke="black" points="386.5,-103.79 390,-113.79 393.5,-103.79 386.5,-103.79"/>
</g>
<!-- KrModalModule -->
<g id="node5" class="node">
<title>KrModalModule</title>
<polygon fill="#8dd3c7" stroke="black" points="304.38,-84.8 301.38,-88.8 280.38,-88.8 277.38,-84.8 193.62,-84.8 193.62,-48.8 304.38,-48.8 304.38,-84.8"/>
<text text-anchor="middle" x="249" y="-62.6" font-family="Times,serif" font-size="14.00">KrModalModule</text>
</g>
<!-- KrModalModule&#45;&gt;AppExperimentsModule -->
<g id="edge4" class="edge">
<title>KrModalModule&#45;&gt;AppExperimentsModule</title>
<path fill="none" stroke="black" d="M304.41,-66.8C312.22,-66.8 317.65,-66.8 317.65,-66.8 317.65,-66.8 317.65,-103.69 317.65,-103.69"/>
<polygon fill="black" stroke="black" points="314.15,-103.69 317.65,-113.69 321.15,-103.69 314.15,-103.69"/>
</g>
<!-- NgxDaterangepickerMd -->
<g id="node6" class="node">
<title>NgxDaterangepickerMd</title>
<polygon fill="#8dd3c7" stroke="black" points="176.06,-84.8 173.06,-88.8 152.06,-88.8 149.06,-84.8 23.94,-84.8 23.94,-48.8 176.06,-48.8 176.06,-84.8"/>
<text text-anchor="middle" x="100" y="-62.6" font-family="Times,serif" font-size="14.00">NgxDaterangepickerMd</text>
</g>
<!-- NgxDaterangepickerMd&#45;&gt;AppExperimentsModule -->
<g id="edge5" class="edge">
<title>NgxDaterangepickerMd&#45;&gt;AppExperimentsModule</title>
<path fill="none" stroke="black" d="M100,-84.91C100,-104.14 100,-131.8 100,-131.8 100,-131.8 302.67,-131.8 302.67,-131.8"/>
<polygon fill="black" stroke="black" points="302.67,-135.3 312.67,-131.8 302.67,-128.3 302.67,-135.3"/>
</g>
</g>
</svg>
