<?xml version="1.0" encoding="UTF-8" standalone="no"?>
<!DOCTYPE svg PUBLIC "-//W3C//DTD SVG 1.1//EN"
 "http://www.w3.org/Graphics/SVG/1.1/DTD/svg11.dtd">
<!-- Generated by graphviz version 5.0.0 (20220707.1540)
 -->
<!-- Title: dependencies Pages: 1 -->
<svg width="1536pt" height="174pt"
 viewBox="0.00 0.00 1536.00 173.80" xmlns="http://www.w3.org/2000/svg" xmlns:xlink="http://www.w3.org/1999/xlink">
<g id="graph0" class="graph" transform="scale(1 1) rotate(0) translate(4 169.8)">
<title>dependencies</title>
<polygon fill="white" stroke="transparent" points="-4,4 -4,-169.8 1532,-169.8 1532,4 -4,4"/>
<text text-anchor="middle" x="764" y="-8.2" font-family="sans-serif" font-size="14.00">dependencies</text>
<g id="clust1" class="cluster">
<title>cluster_BusinessRulesModule</title>
<polygon fill="none" stroke="black" stroke-dasharray="1,5" points="8,-32.8 8,-157.8 1520,-157.8 1520,-32.8 8,-32.8"/>
</g>
<g id="clust2" class="cluster">
<title>cluster_BusinessRulesModule_declarations</title>
<polygon fill="none" stroke="black" points="1187,-40.8 1187,-92.8 1512,-92.8 1512,-40.8 1187,-40.8"/>
</g>
<g id="clust5" class="cluster">
<title>cluster_BusinessRulesModule_imports</title>
<polygon fill="none" stroke="black" points="16,-40.8 16,-92.8 1179,-92.8 1179,-40.8 16,-40.8"/>
</g>
<!-- BusinessRulesComponent -->
<g id="node1" class="node">
<title>BusinessRulesComponent</title>
<polygon fill="#ffffb3" stroke="black" points="1503.51,-84.8 1340.49,-84.8 1340.49,-48.8 1503.51,-48.8 1503.51,-84.8"/>
<text text-anchor="middle" x="1422" y="-62.6" font-family="Times,serif" font-size="14.00">BusinessRulesComponent</text>
</g>
<!-- BusinessRulesModule -->
<g id="node3" class="node">
<title>BusinessRulesModule</title>
<polygon fill="#8dd3c7" stroke="black" points="753.73,-149.8 750.73,-153.8 729.73,-153.8 726.73,-149.8 612.27,-149.8 612.27,-113.8 753.73,-113.8 753.73,-149.8"/>
<text text-anchor="middle" x="683" y="-127.6" font-family="Times,serif" font-size="14.00">BusinessRulesModule</text>
</g>
<!-- BusinessRulesComponent&#45;&gt;BusinessRulesModule -->
<g id="edge1" class="edge">
<title>BusinessRulesComponent&#45;&gt;BusinessRulesModule</title>
<path fill="none" stroke="black" d="M1422,-84.81C1422,-107.29 1422,-142.8 1422,-142.8 1422,-142.8 763.86,-142.8 763.86,-142.8"/>
<polygon fill="black" stroke="black" points="763.86,-139.3 753.86,-142.8 763.86,-146.3 763.86,-139.3"/>
</g>
<!-- SelectTextDirective -->
<g id="node2" class="node">
<title>SelectTextDirective</title>
<polygon fill="#ffffb3" stroke="black" points="1322.95,-84.8 1195.05,-84.8 1195.05,-48.8 1322.95,-48.8 1322.95,-84.8"/>
<text text-anchor="middle" x="1259" y="-62.6" font-family="Times,serif" font-size="14.00">SelectTextDirective</text>
</g>
<!-- SelectTextDirective&#45;&gt;BusinessRulesModule -->
<g id="edge2" class="edge">
<title>SelectTextDirective&#45;&gt;BusinessRulesModule</title>
<path fill="none" stroke="black" d="M1259,-84.93C1259,-105.37 1259,-135.8 1259,-135.8 1259,-135.8 763.63,-135.8 763.63,-135.8"/>
<polygon fill="black" stroke="black" points="763.63,-132.3 753.63,-135.8 763.63,-139.3 763.63,-132.3"/>
</g>
<!-- BusinessRulesRoutingModule -->
<g id="node4" class="node">
<title>BusinessRulesRoutingModule</title>
<polygon fill="#8dd3c7" stroke="black" points="1171.35,-84.8 1168.35,-88.8 1147.35,-88.8 1144.35,-84.8 984.65,-84.8 984.65,-48.8 1171.35,-48.8 1171.35,-84.8"/>
<text text-anchor="middle" x="1078" y="-62.6" font-family="Times,serif" font-size="14.00">BusinessRulesRoutingModule</text>
</g>
<!-- BusinessRulesRoutingModule&#45;&gt;BusinessRulesModule -->
<g id="edge3" class="edge">
<title>BusinessRulesRoutingModule&#45;&gt;BusinessRulesModule</title>
<path fill="none" stroke="black" d="M1078,-85.07C1078,-103.36 1078,-128.8 1078,-128.8 1078,-128.8 763.62,-128.8 763.62,-128.8"/>
<polygon fill="black" stroke="black" points="763.62,-125.3 753.62,-128.8 763.62,-132.3 763.62,-125.3"/>
</g>
<!-- EmptyScreenModule -->
<g id="node5" class="node">
<title>EmptyScreenModule</title>
<polygon fill="#8dd3c7" stroke="black" points="966.47,-84.8 963.47,-88.8 942.47,-88.8 939.47,-84.8 831.53,-84.8 831.53,-48.8 966.47,-48.8 966.47,-84.8"/>
<text text-anchor="middle" x="899" y="-62.6" font-family="Times,serif" font-size="14.00">EmptyScreenModule</text>
</g>
<!-- EmptyScreenModule&#45;&gt;BusinessRulesModule -->
<g id="edge4" class="edge">
<title>EmptyScreenModule&#45;&gt;BusinessRulesModule</title>
<path fill="none" stroke="black" d="M899,-84.81C899,-100.85 899,-121.8 899,-121.8 899,-121.8 763.73,-121.8 763.73,-121.8"/>
<polygon fill="black" stroke="black" points="763.73,-118.3 753.73,-121.8 763.73,-125.3 763.73,-118.3"/>
</g>
<!-- KrModalModule -->
<g id="node6" class="node">
<title>KrModalModule</title>
<polygon fill="#8dd3c7" stroke="black" points="813.38,-84.8 810.38,-88.8 789.38,-88.8 786.38,-84.8 702.62,-84.8 702.62,-48.8 813.38,-48.8 813.38,-84.8"/>
<text text-anchor="middle" x="758" y="-62.6" font-family="Times,serif" font-size="14.00">KrModalModule</text>
</g>
<!-- KrModalModule&#45;&gt;BusinessRulesModule -->
<g id="edge5" class="edge">
<title>KrModalModule&#45;&gt;BusinessRulesModule</title>
<path fill="none" stroke="black" d="M728.09,-84.91C728.09,-84.91 728.09,-103.79 728.09,-103.79"/>
<polygon fill="black" stroke="black" points="724.59,-103.79 728.09,-113.79 731.59,-103.79 724.59,-103.79"/>
</g>
<!-- NgxDaterangepickerMd -->
<g id="node7" class="node">
<title>NgxDaterangepickerMd</title>
<polygon fill="#8dd3c7" stroke="black" points="685.06,-84.8 682.06,-88.8 661.06,-88.8 658.06,-84.8 532.94,-84.8 532.94,-48.8 685.06,-48.8 685.06,-84.8"/>
<text text-anchor="middle" x="609" y="-62.6" font-family="Times,serif" font-size="14.00">NgxDaterangepickerMd</text>
</g>
<!-- NgxDaterangepickerMd&#45;&gt;BusinessRulesModule -->
<g id="edge6" class="edge">
<title>NgxDaterangepickerMd&#45;&gt;BusinessRulesModule</title>
<path fill="none" stroke="black" d="M636.6,-84.91C636.6,-84.91 636.6,-103.79 636.6,-103.79"/>
<polygon fill="black" stroke="black" points="633.1,-103.79 636.6,-113.79 640.1,-103.79 633.1,-103.79"/>
</g>
<!-- NgxDaterangepickerMd&#45;&gt;BusinessRulesModule -->
<g id="edge7" class="edge">
<title>NgxDaterangepickerMd&#45;&gt;BusinessRulesModule</title>
<path fill="none" stroke="black" d="M660.81,-84.91C660.81,-84.91 660.81,-103.79 660.81,-103.79"/>
<polygon fill="black" stroke="black" points="657.31,-103.79 660.81,-113.79 664.31,-103.79 657.31,-103.79"/>
</g>
<!-- RangeSliderModule -->
<g id="node8" class="node">
<title>RangeSliderModule</title>
<polygon fill="#8dd3c7" stroke="black" points="515.26,-84.8 512.26,-88.8 491.26,-88.8 488.26,-84.8 386.74,-84.8 386.74,-48.8 515.26,-48.8 515.26,-84.8"/>
<text text-anchor="middle" x="451" y="-62.6" font-family="Times,serif" font-size="14.00">RangeSliderModule</text>
</g>
<!-- RangeSliderModule&#45;&gt;BusinessRulesModule -->
<g id="edge8" class="edge">
<title>RangeSliderModule&#45;&gt;BusinessRulesModule</title>
<path fill="none" stroke="black" d="M451,-84.83C451,-101.2 451,-122.8 451,-122.8 451,-122.8 602.13,-122.8 602.13,-122.8"/>
<polygon fill="black" stroke="black" points="602.13,-126.3 612.13,-122.8 602.13,-119.3 602.13,-126.3"/>
</g>
<!-- UpgradePlanModule -->
<g id="node9" class="node">
<title>UpgradePlanModule</title>
<polygon fill="#8dd3c7" stroke="black" points="368.14,-84.8 365.14,-88.8 344.14,-88.8 341.14,-84.8 235.86,-84.8 235.86,-48.8 368.14,-48.8 368.14,-84.8"/>
<text text-anchor="middle" x="302" y="-62.6" font-family="Times,serif" font-size="14.00">UpgradePlanModule</text>
</g>
<!-- UpgradePlanModule&#45;&gt;BusinessRulesModule -->
<g id="edge9" class="edge">
<title>UpgradePlanModule&#45;&gt;BusinessRulesModule</title>
<path fill="none" stroke="black" d="M302,-84.91C302,-104.14 302,-131.8 302,-131.8 302,-131.8 602.23,-131.8 602.23,-131.8"/>
<polygon fill="black" stroke="black" points="602.23,-135.3 612.23,-131.8 602.23,-128.3 602.23,-135.3"/>
</g>
<!-- UseronboardingJourneyModule -->
<g id="node10" class="node">
<title>UseronboardingJourneyModule</title>
<polygon fill="#8dd3c7" stroke="black" points="218.08,-84.8 215.08,-88.8 194.08,-88.8 191.08,-84.8 23.92,-84.8 23.92,-48.8 218.08,-48.8 218.08,-84.8"/>
<text text-anchor="middle" x="121" y="-62.6" font-family="Times,serif" font-size="14.00">UseronboardingJourneyModule</text>
</g>
<!-- UseronboardingJourneyModule&#45;&gt;BusinessRulesModule -->
<g id="edge10" class="edge">
<title>UseronboardingJourneyModule&#45;&gt;BusinessRulesModule</title>
<path fill="none" stroke="black" d="M121,-85.09C121,-107.01 121,-140.8 121,-140.8 121,-140.8 602.11,-140.8 602.11,-140.8"/>
<polygon fill="black" stroke="black" points="602.11,-144.3 612.11,-140.8 602.11,-137.3 602.11,-144.3"/>
</g>
</g>
</svg>
