<?xml version="1.0" encoding="UTF-8" standalone="no"?>
<!DOCTYPE svg PUBLIC "-//W3C//DTD SVG 1.1//EN"
 "http://www.w3.org/Graphics/SVG/1.1/DTD/svg11.dtd">
<!-- Generated by graphviz version 5.0.0 (20220707.1540)
 -->
<!-- Title: dependencies Pages: 1 -->
<svg width="922pt" height="174pt"
 viewBox="0.00 0.00 922.00 173.80" xmlns="http://www.w3.org/2000/svg" xmlns:xlink="http://www.w3.org/1999/xlink">
<g id="graph0" class="graph" transform="scale(1 1) rotate(0) translate(4 169.8)">
<title>dependencies</title>
<polygon fill="white" stroke="transparent" points="-4,4 -4,-169.8 918,-169.8 918,4 -4,4"/>
<text text-anchor="middle" x="457" y="-8.2" font-family="sans-serif" font-size="14.00">dependencies</text>
<g id="clust1" class="cluster">
<title>cluster_BusinessRulesModule</title>
<polygon fill="none" stroke="black" stroke-dasharray="1,5" points="8,-32.8 8,-157.8 906,-157.8 906,-32.8 8,-32.8"/>
</g>
<g id="clust2" class="cluster">
<title>cluster_BusinessRulesModule_declarations</title>
<polygon fill="none" stroke="black" points="718,-40.8 718,-92.8 898,-92.8 898,-40.8 718,-40.8"/>
</g>
<g id="clust4" class="cluster">
<title>cluster_BusinessRulesModule_imports</title>
<polygon fill="none" stroke="black" points="16,-40.8 16,-92.8 710,-92.8 710,-40.8 16,-40.8"/>
</g>
<!-- BusinessRulesComponent -->
<g id="node1" class="node">
<title>BusinessRulesComponent</title>
<polygon fill="#ffffb3" stroke="black" points="889.51,-84.8 726.49,-84.8 726.49,-48.8 889.51,-48.8 889.51,-84.8"/>
<text text-anchor="middle" x="808" y="-62.6" font-family="Times,serif" font-size="14.00">BusinessRulesComponent</text>
</g>
<!-- BusinessRulesModule -->
<g id="node2" class="node">
<title>BusinessRulesModule</title>
<polygon fill="#8dd3c7" stroke="black" points="512.73,-149.8 509.73,-153.8 488.73,-153.8 485.73,-149.8 371.27,-149.8 371.27,-113.8 512.73,-113.8 512.73,-149.8"/>
<text text-anchor="middle" x="442" y="-127.6" font-family="Times,serif" font-size="14.00">BusinessRulesModule</text>
</g>
<!-- BusinessRulesComponent&#45;&gt;BusinessRulesModule -->
<g id="edge1" class="edge">
<title>BusinessRulesComponent&#45;&gt;BusinessRulesModule</title>
<path fill="none" stroke="black" d="M808,-84.91C808,-104.14 808,-131.8 808,-131.8 808,-131.8 523,-131.8 523,-131.8"/>
<polygon fill="black" stroke="black" points="523,-128.3 513,-131.8 523,-135.3 523,-128.3"/>
</g>
<!-- BusinessRulesRoutingModule -->
<g id="node3" class="node">
<title>BusinessRulesRoutingModule</title>
<polygon fill="#8dd3c7" stroke="black" points="702.35,-84.8 699.35,-88.8 678.35,-88.8 675.35,-84.8 515.65,-84.8 515.65,-48.8 702.35,-48.8 702.35,-84.8"/>
<text text-anchor="middle" x="609" y="-62.6" font-family="Times,serif" font-size="14.00">BusinessRulesRoutingModule</text>
</g>
<!-- BusinessRulesRoutingModule&#45;&gt;BusinessRulesModule -->
<g id="edge2" class="edge">
<title>BusinessRulesRoutingModule&#45;&gt;BusinessRulesModule</title>
<path fill="none" stroke="black" d="M515.76,-66.8C509.15,-66.8 505.03,-66.8 505.03,-66.8 505.03,-66.8 505.03,-103.69 505.03,-103.69"/>
<polygon fill="black" stroke="black" points="501.53,-103.69 505.03,-113.69 508.53,-103.69 501.53,-103.69"/>
</g>
<!-- KrModalModule -->
<g id="node4" class="node">
<title>KrModalModule</title>
<polygon fill="#8dd3c7" stroke="black" points="497.38,-84.8 494.38,-88.8 473.38,-88.8 470.38,-84.8 386.62,-84.8 386.62,-48.8 497.38,-48.8 497.38,-84.8"/>
<text text-anchor="middle" x="442" y="-62.6" font-family="Times,serif" font-size="14.00">KrModalModule</text>
</g>
<!-- KrModalModule&#45;&gt;BusinessRulesModule -->
<g id="edge3" class="edge">
<title>KrModalModule&#45;&gt;BusinessRulesModule</title>
<path fill="none" stroke="black" d="M442,-84.91C442,-84.91 442,-103.79 442,-103.79"/>
<polygon fill="black" stroke="black" points="438.5,-103.79 442,-113.79 445.5,-103.79 438.5,-103.79"/>
</g>
<!-- UpgradePlanModule -->
<g id="node5" class="node">
<title>UpgradePlanModule</title>
<polygon fill="#8dd3c7" stroke="black" points="368.14,-84.8 365.14,-88.8 344.14,-88.8 341.14,-84.8 235.86,-84.8 235.86,-48.8 368.14,-48.8 368.14,-84.8"/>
<text text-anchor="middle" x="302" y="-62.6" font-family="Times,serif" font-size="14.00">UpgradePlanModule</text>
</g>
<!-- UpgradePlanModule&#45;&gt;BusinessRulesModule -->
<g id="edge4" class="edge">
<title>UpgradePlanModule&#45;&gt;BusinessRulesModule</title>
<path fill="none" stroke="black" d="M368.27,-66.8C374.75,-66.8 378.97,-66.8 378.97,-66.8 378.97,-66.8 378.97,-103.69 378.97,-103.69"/>
<polygon fill="black" stroke="black" points="375.47,-103.69 378.97,-113.69 382.47,-103.69 375.47,-103.69"/>
</g>
<!-- UseronboardingJourneyModule -->
<g id="node6" class="node">
<title>UseronboardingJourneyModule</title>
<polygon fill="#8dd3c7" stroke="black" points="218.08,-84.8 215.08,-88.8 194.08,-88.8 191.08,-84.8 23.92,-84.8 23.92,-48.8 218.08,-48.8 218.08,-84.8"/>
<text text-anchor="middle" x="121" y="-62.6" font-family="Times,serif" font-size="14.00">UseronboardingJourneyModule</text>
</g>
<!-- UseronboardingJourneyModule&#45;&gt;BusinessRulesModule -->
<g id="edge5" class="edge">
<title>UseronboardingJourneyModule&#45;&gt;BusinessRulesModule</title>
<path fill="none" stroke="black" d="M121,-84.91C121,-104.14 121,-131.8 121,-131.8 121,-131.8 361.16,-131.8 361.16,-131.8"/>
<polygon fill="black" stroke="black" points="361.16,-135.3 371.16,-131.8 361.16,-128.3 361.16,-135.3"/>
</g>
</g>
</svg>
