<svg width="139" height="103" fill="none" xmlns="http://www.w3.org/2000/svg"><path fill-rule="evenodd" clip-rule="evenodd" d="M68.5 26.125c-18.984 0-34.375 15.39-34.375 34.375 0 18.984 15.39 34.375 34.375 34.375 18.984 0 34.375-15.39 34.375-34.375 0-18.984-15.39-34.375-34.375-34.375Zm14.9 28.563a3.124 3.124 0 1 0-4.8-4l-13.438 16.12-6.953-6.956a3.125 3.125 0 0 0-4.418 4.419l9.375 9.375a3.126 3.126 0 0 0 4.609-.21L83.4 54.688Z" fill="#28A745"/><path opacity=".8" d="m22.375 35.375-15.75-15.75M28 27.5H1h27ZM14.5 14v27-27ZM6.625 35.375l15.75-15.75-15.75 15.75Z" stroke="#93D3A2" stroke-width="1.5" stroke-linecap="round" stroke-linejoin="round"/><path opacity=".3" d="m127.292 11.292-7.584-7.584M130 7.5h-13 13ZM123.5 1v13V1Zm-3.792 10.292 7.584-7.584-7.584 7.584Z" stroke="#93D3A2" stroke-width="1.5" stroke-linecap="round" stroke-linejoin="round"/><path opacity=".4" d="m135.292 99.292-7.584-7.584M138 95.5h-13 13Zm-6.5-6.5v13-13Zm-3.792 10.292 7.584-7.584-7.584 7.584Z" stroke="#93D3A2" stroke-width="1.5" stroke-linecap="round" stroke-linejoin="round"/><path opacity=".3" d="m25.292 99.292-7.584-7.584M28 95.5H15h13ZM21.5 89v13-13Zm-3.792 10.292 7.584-7.584-7.584 7.584Z" stroke="#93D3A2" stroke-width="1.5" stroke-linecap="round" stroke-linejoin="round"/><path opacity=".6" d="m121.25 61.25-10.5-10.5M125 56h-18 18Zm-9-9v18-18Zm-5.25 14.25 10.5-10.5-10.5 10.5Z" stroke="#93D3A2" stroke-width="1.5" stroke-linecap="round" stroke-linejoin="round"/></svg>