<?xml version="1.0" encoding="UTF-8" standalone="no"?>
<!DOCTYPE svg PUBLIC "-//W3C//DTD SVG 1.1//EN"
 "http://www.w3.org/Graphics/SVG/1.1/DTD/svg11.dtd">
<!-- Generated by graphviz version 5.0.0 (20220707.1540)
 -->
<!-- Title: dependencies Pages: 1 -->
<svg width="942pt" height="174pt"
 viewBox="0.00 0.00 942.00 173.80" xmlns="http://www.w3.org/2000/svg" xmlns:xlink="http://www.w3.org/1999/xlink">
<g id="graph0" class="graph" transform="scale(1 1) rotate(0) translate(4 169.8)">
<title>dependencies</title>
<polygon fill="white" stroke="transparent" points="-4,4 -4,-169.8 938,-169.8 938,4 -4,4"/>
<text text-anchor="middle" x="467" y="-8.2" font-family="sans-serif" font-size="14.00">dependencies</text>
<g id="clust1" class="cluster">
<title>cluster_SearchInsightsModule</title>
<polygon fill="none" stroke="black" stroke-dasharray="1,5" points="8,-32.8 8,-157.8 926,-157.8 926,-32.8 8,-32.8"/>
</g>
<g id="clust2" class="cluster">
<title>cluster_SearchInsightsModule_declarations</title>
<polygon fill="none" stroke="black" points="738,-40.8 738,-92.8 918,-92.8 918,-40.8 738,-40.8"/>
</g>
<g id="clust4" class="cluster">
<title>cluster_SearchInsightsModule_imports</title>
<polygon fill="none" stroke="black" points="16,-40.8 16,-92.8 730,-92.8 730,-40.8 16,-40.8"/>
</g>
<!-- SearchInsightsComponent -->
<g id="node1" class="node">
<title>SearchInsightsComponent</title>
<polygon fill="#ffffb3" stroke="black" points="909.76,-84.8 746.24,-84.8 746.24,-48.8 909.76,-48.8 909.76,-84.8"/>
<text text-anchor="middle" x="828" y="-62.6" font-family="Times,serif" font-size="14.00">SearchInsightsComponent</text>
</g>
<!-- SearchInsightsModule -->
<g id="node2" class="node">
<title>SearchInsightsModule</title>
<polygon fill="#8dd3c7" stroke="black" points="588.98,-149.8 585.98,-153.8 564.98,-153.8 561.98,-149.8 447.02,-149.8 447.02,-113.8 588.98,-113.8 588.98,-149.8"/>
<text text-anchor="middle" x="518" y="-127.6" font-family="Times,serif" font-size="14.00">SearchInsightsModule</text>
</g>
<!-- SearchInsightsComponent&#45;&gt;SearchInsightsModule -->
<g id="edge1" class="edge">
<title>SearchInsightsComponent&#45;&gt;SearchInsightsModule</title>
<path fill="none" stroke="black" d="M828,-85.08C828,-106.12 828,-137.8 828,-137.8 828,-137.8 599.12,-137.8 599.12,-137.8"/>
<polygon fill="black" stroke="black" points="599.12,-134.3 589.12,-137.8 599.12,-141.3 599.12,-134.3"/>
</g>
<!-- KrModalModule -->
<g id="node3" class="node">
<title>KrModalModule</title>
<polygon fill="#8dd3c7" stroke="black" points="722.38,-84.8 719.38,-88.8 698.38,-88.8 695.38,-84.8 611.62,-84.8 611.62,-48.8 722.38,-48.8 722.38,-84.8"/>
<text text-anchor="middle" x="667" y="-62.6" font-family="Times,serif" font-size="14.00">KrModalModule</text>
</g>
<!-- KrModalModule&#45;&gt;SearchInsightsModule -->
<g id="edge2" class="edge">
<title>KrModalModule&#45;&gt;SearchInsightsModule</title>
<path fill="none" stroke="black" d="M667,-84.82C667,-102.17 667,-125.8 667,-125.8 667,-125.8 599.01,-125.8 599.01,-125.8"/>
<polygon fill="black" stroke="black" points="599.01,-122.3 589.01,-125.8 599.01,-129.3 599.01,-122.3"/>
</g>
<!-- NgxDaterangepickerMd -->
<g id="node4" class="node">
<title>NgxDaterangepickerMd</title>
<polygon fill="#8dd3c7" stroke="black" points="594.06,-84.8 591.06,-88.8 570.06,-88.8 567.06,-84.8 441.94,-84.8 441.94,-48.8 594.06,-48.8 594.06,-84.8"/>
<text text-anchor="middle" x="518" y="-62.6" font-family="Times,serif" font-size="14.00">NgxDaterangepickerMd</text>
</g>
<!-- NgxDaterangepickerMd&#45;&gt;SearchInsightsModule -->
<g id="edge3" class="edge">
<title>NgxDaterangepickerMd&#45;&gt;SearchInsightsModule</title>
<path fill="none" stroke="black" d="M518,-84.91C518,-84.91 518,-103.79 518,-103.79"/>
<polygon fill="black" stroke="black" points="514.5,-103.79 518,-113.79 521.5,-103.79 514.5,-103.79"/>
</g>
<!-- SearchInsightsRoutingModule -->
<g id="node5" class="node">
<title>SearchInsightsRoutingModule</title>
<polygon fill="#8dd3c7" stroke="black" points="423.6,-84.8 420.6,-88.8 399.6,-88.8 396.6,-84.8 236.4,-84.8 236.4,-48.8 423.6,-48.8 423.6,-84.8"/>
<text text-anchor="middle" x="330" y="-62.6" font-family="Times,serif" font-size="14.00">SearchInsightsRoutingModule</text>
</g>
<!-- SearchInsightsRoutingModule&#45;&gt;SearchInsightsModule -->
<g id="edge4" class="edge">
<title>SearchInsightsRoutingModule&#45;&gt;SearchInsightsModule</title>
<path fill="none" stroke="black" d="M330,-84.82C330,-102.17 330,-125.8 330,-125.8 330,-125.8 436.93,-125.8 436.93,-125.8"/>
<polygon fill="black" stroke="black" points="436.93,-129.3 446.93,-125.8 436.93,-122.3 436.93,-129.3"/>
</g>
<!-- UseronboardingJourneyModule -->
<g id="node6" class="node">
<title>UseronboardingJourneyModule</title>
<polygon fill="#8dd3c7" stroke="black" points="218.08,-84.8 215.08,-88.8 194.08,-88.8 191.08,-84.8 23.92,-84.8 23.92,-48.8 218.08,-48.8 218.08,-84.8"/>
<text text-anchor="middle" x="121" y="-62.6" font-family="Times,serif" font-size="14.00">UseronboardingJourneyModule</text>
</g>
<!-- UseronboardingJourneyModule&#45;&gt;SearchInsightsModule -->
<g id="edge5" class="edge">
<title>UseronboardingJourneyModule&#45;&gt;SearchInsightsModule</title>
<path fill="none" stroke="black" d="M121,-85.08C121,-106.12 121,-137.8 121,-137.8 121,-137.8 436.57,-137.8 436.57,-137.8"/>
<polygon fill="black" stroke="black" points="436.57,-141.3 446.57,-137.8 436.57,-134.3 436.57,-141.3"/>
</g>
</g>
</svg>
