<?xml version="1.0" encoding="UTF-8" standalone="no"?>
<!DOCTYPE svg PUBLIC "-//W3C//DTD SVG 1.1//EN"
 "http://www.w3.org/Graphics/SVG/1.1/DTD/svg11.dtd">
<!-- Generated by graphviz version 5.0.0 (20220707.1540)
 -->
<!-- Title: dependencies Pages: 1 -->
<svg width="1155pt" height="174pt"
 viewBox="0.00 0.00 1155.00 173.80" xmlns="http://www.w3.org/2000/svg" xmlns:xlink="http://www.w3.org/1999/xlink">
<g id="graph0" class="graph" transform="scale(1 1) rotate(0) translate(4 169.8)">
<title>dependencies</title>
<polygon fill="white" stroke="transparent" points="-4,4 -4,-169.8 1151,-169.8 1151,4 -4,4"/>
<text text-anchor="middle" x="573.5" y="-8.2" font-family="sans-serif" font-size="14.00">dependencies</text>
<g id="clust1" class="cluster">
<title>cluster_SearchInsightsModule</title>
<polygon fill="none" stroke="black" stroke-dasharray="1,5" points="8,-32.8 8,-157.8 1139,-157.8 1139,-32.8 8,-32.8"/>
</g>
<g id="clust2" class="cluster">
<title>cluster_SearchInsightsModule_declarations</title>
<polygon fill="none" stroke="black" points="951,-40.8 951,-92.8 1131,-92.8 1131,-40.8 951,-40.8"/>
</g>
<g id="clust4" class="cluster">
<title>cluster_SearchInsightsModule_imports</title>
<polygon fill="none" stroke="black" points="16,-40.8 16,-92.8 943,-92.8 943,-40.8 16,-40.8"/>
</g>
<!-- SearchInsightsComponent -->
<g id="node1" class="node">
<title>SearchInsightsComponent</title>
<polygon fill="#ffffb3" stroke="black" points="1122.76,-84.8 959.24,-84.8 959.24,-48.8 1122.76,-48.8 1122.76,-84.8"/>
<text text-anchor="middle" x="1041" y="-62.6" font-family="Times,serif" font-size="14.00">SearchInsightsComponent</text>
</g>
<!-- SearchInsightsModule -->
<g id="node2" class="node">
<title>SearchInsightsModule</title>
<polygon fill="#8dd3c7" stroke="black" points="662.98,-149.8 659.98,-153.8 638.98,-153.8 635.98,-149.8 521.02,-149.8 521.02,-113.8 662.98,-113.8 662.98,-149.8"/>
<text text-anchor="middle" x="592" y="-127.6" font-family="Times,serif" font-size="14.00">SearchInsightsModule</text>
</g>
<!-- SearchInsightsComponent&#45;&gt;SearchInsightsModule -->
<g id="edge1" class="edge">
<title>SearchInsightsComponent&#45;&gt;SearchInsightsModule</title>
<path fill="none" stroke="black" d="M1041,-85.08C1041,-106.12 1041,-137.8 1041,-137.8 1041,-137.8 673.15,-137.8 673.15,-137.8"/>
<polygon fill="black" stroke="black" points="673.15,-134.3 663.15,-137.8 673.15,-141.3 673.15,-134.3"/>
</g>
<!-- AnalyticsDropdownComponent -->
<g id="node3" class="node">
<title>AnalyticsDropdownComponent</title>
<polygon fill="#8dd3c7" stroke="black" points="935.37,-84.8 932.37,-88.8 911.37,-88.8 908.37,-84.8 740.63,-84.8 740.63,-48.8 935.37,-48.8 935.37,-84.8"/>
<text text-anchor="middle" x="838" y="-62.6" font-family="Times,serif" font-size="14.00">AnalyticsDropdownComponent</text>
</g>
<!-- AnalyticsDropdownComponent&#45;&gt;SearchInsightsModule -->
<g id="edge2" class="edge">
<title>AnalyticsDropdownComponent&#45;&gt;SearchInsightsModule</title>
<path fill="none" stroke="black" d="M838,-84.82C838,-102.17 838,-125.8 838,-125.8 838,-125.8 673.15,-125.8 673.15,-125.8"/>
<polygon fill="black" stroke="black" points="673.15,-122.3 663.15,-125.8 673.15,-129.3 673.15,-122.3"/>
</g>
<!-- KrModalModule -->
<g id="node4" class="node">
<title>KrModalModule</title>
<polygon fill="#8dd3c7" stroke="black" points="722.38,-84.8 719.38,-88.8 698.38,-88.8 695.38,-84.8 611.62,-84.8 611.62,-48.8 722.38,-48.8 722.38,-84.8"/>
<text text-anchor="middle" x="667" y="-62.6" font-family="Times,serif" font-size="14.00">KrModalModule</text>
</g>
<!-- KrModalModule&#45;&gt;SearchInsightsModule -->
<g id="edge3" class="edge">
<title>KrModalModule&#45;&gt;SearchInsightsModule</title>
<path fill="none" stroke="black" d="M637.28,-84.91C637.28,-84.91 637.28,-103.79 637.28,-103.79"/>
<polygon fill="black" stroke="black" points="633.78,-103.79 637.28,-113.79 640.78,-103.79 633.78,-103.79"/>
</g>
<!-- NgxDaterangepickerMd -->
<g id="node5" class="node">
<title>NgxDaterangepickerMd</title>
<polygon fill="#8dd3c7" stroke="black" points="594.06,-84.8 591.06,-88.8 570.06,-88.8 567.06,-84.8 441.94,-84.8 441.94,-48.8 594.06,-48.8 594.06,-84.8"/>
<text text-anchor="middle" x="518" y="-62.6" font-family="Times,serif" font-size="14.00">NgxDaterangepickerMd</text>
</g>
<!-- NgxDaterangepickerMd&#45;&gt;SearchInsightsModule -->
<g id="edge4" class="edge">
<title>NgxDaterangepickerMd&#45;&gt;SearchInsightsModule</title>
<path fill="none" stroke="black" d="M557.52,-84.91C557.52,-84.91 557.52,-103.79 557.52,-103.79"/>
<polygon fill="black" stroke="black" points="554.02,-103.79 557.52,-113.79 561.02,-103.79 554.02,-103.79"/>
</g>
<!-- SearchInsightsRoutingModule -->
<g id="node6" class="node">
<title>SearchInsightsRoutingModule</title>
<polygon fill="#8dd3c7" stroke="black" points="423.6,-84.8 420.6,-88.8 399.6,-88.8 396.6,-84.8 236.4,-84.8 236.4,-48.8 423.6,-48.8 423.6,-84.8"/>
<text text-anchor="middle" x="330" y="-62.6" font-family="Times,serif" font-size="14.00">SearchInsightsRoutingModule</text>
</g>
<!-- SearchInsightsRoutingModule&#45;&gt;SearchInsightsModule -->
<g id="edge5" class="edge">
<title>SearchInsightsRoutingModule&#45;&gt;SearchInsightsModule</title>
<path fill="none" stroke="black" d="M330,-84.82C330,-102.17 330,-125.8 330,-125.8 330,-125.8 510.75,-125.8 510.75,-125.8"/>
<polygon fill="black" stroke="black" points="510.75,-129.3 520.75,-125.8 510.75,-122.3 510.75,-129.3"/>
</g>
<!-- UseronboardingJourneyModule -->
<g id="node7" class="node">
<title>UseronboardingJourneyModule</title>
<polygon fill="#8dd3c7" stroke="black" points="218.08,-84.8 215.08,-88.8 194.08,-88.8 191.08,-84.8 23.92,-84.8 23.92,-48.8 218.08,-48.8 218.08,-84.8"/>
<text text-anchor="middle" x="121" y="-62.6" font-family="Times,serif" font-size="14.00">UseronboardingJourneyModule</text>
</g>
<!-- UseronboardingJourneyModule&#45;&gt;SearchInsightsModule -->
<g id="edge6" class="edge">
<title>UseronboardingJourneyModule&#45;&gt;SearchInsightsModule</title>
<path fill="none" stroke="black" d="M121,-85.08C121,-106.12 121,-137.8 121,-137.8 121,-137.8 510.98,-137.8 510.98,-137.8"/>
<polygon fill="black" stroke="black" points="510.98,-141.3 520.98,-137.8 510.98,-134.3 510.98,-141.3"/>
</g>
</g>
</svg>
