<svg width="16" height="16" fill="none" xmlns="http://www.w3.org/2000/svg"><path d="M3 1.5c-.824 0-1.5.673-1.5 1.495v7.972c0 .822.676 1.495 1.5 1.495h1.5v1.591c0 .356.4.569.697.371l2.955-1.962H13c.824 0 1.5-.673 1.5-1.495V2.995c0-.822-.676-1.495-1.5-1.495H3Zm0 .997h10c.281 0 .5.218.5.498v7.972c0 .28-.219.498-.5.498H7.848L5.5 13.026v-1.56H3a.493.493 0 0 1-.5-.499V2.995c0-.28.219-.498.5-.498ZM6.5 4.92a.18.18 0 0 0-.306-.126l-2.067 2.06a.178.178 0 0 0 0 .252l2.067 2.06A.18.18 0 0 0 6.5 9.04V7.479H10c.281 0 .5.218.5.498v.998a.499.499 0 0 0 1 0v-.998c0-.82-.676-1.494-1.5-1.494H6.5V4.92Z" fill="#0D6EFD"/></svg>