<svg width="34" height="34" fill="none" xmlns="http://www.w3.org/2000/svg"><path d="M25.5 12.041V29.75c0 .782-.634 1.416-1.416 1.416h-17a1.416 1.416 0 0 1-1.417-1.416V7.083c0-.783.634-1.417 1.417-1.417h12.041l6.375 6.375Z" fill="#93D3A2"/><path opacity=".05" d="M7.083 5.667H25.5V29.75H9.69a2.607 2.607 0 0 1-2.607-2.608V5.666Z" fill="#3C4043"/><path opacity=".07" d="M7.792 5.667h14.125A3.583 3.583 0 0 1 25.5 9.25v19.791H9.803a2.01 2.01 0 0 1-2.011-2.01V5.666Z" fill="#3C4043"/><path d="M28.333 9.917v17c0 .782-.634 1.416-1.416 1.416h-17A1.416 1.416 0 0 1 8.5 26.918V4.25c0-.783.634-1.417 1.417-1.417H21.25l7.083 7.084Z" fill="#93D3A2"/><path d="M21.25 2.833V8.5c0 .783.634 1.417 1.417 1.417h5.666L21.25 2.834ZM24.594 14H12.406c-.224 0-.406-.112-.406-.25v-.5c0-.138.182-.25.406-.25h12.188c.224 0 .406.112.406.25v.5c0 .138-.182.25-.406.25Zm0 3H12.406c-.224 0-.406-.112-.406-.25v-.5c0-.138.182-.25.406-.25h12.188c.224 0 .406.112.406.25v.5c0 .138-.182.25-.406.25Zm0 3H12.406c-.224 0-.406-.112-.406-.25v-.5c0-.138.182-.25.406-.25h12.188c.224 0 .406.112.406.25v.5c0 .138-.182.25-.406.25Zm-3.969 3h-8.25c-.207 0-.375-.112-.375-.25v-.5c0-.138.168-.25.375-.25h8.25c.207 0 .375.112.375.25v.5c0 .138-.168.25-.375.25Z" fill="#135423"/></svg>