<svg width="34" height="34" fill="none" xmlns="http://www.w3.org/2000/svg"><path d="M25.5 12.041V29.75c0 .782-.634 1.416-1.416 1.416h-17a1.416 1.416 0 0 1-1.417-1.416V7.083c0-.783.634-1.417 1.417-1.417h12.041l6.375 6.375Z" fill="#85B7FE"/><path opacity=".05" d="M7.083 5.667H25.5V29.75H9.69a2.607 2.607 0 0 1-2.607-2.608V5.666Z" fill="#3C4043"/><path opacity=".07" d="M7.792 5.667h14.125A3.583 3.583 0 0 1 25.5 9.25v19.791H9.803a2.01 2.01 0 0 1-2.011-2.01V5.666Z" fill="#3C4043"/><path d="M28.333 9.917v17c0 .782-.634 1.416-1.416 1.416h-17A1.416 1.416 0 0 1 8.5 26.918V4.25c0-.783.634-1.417 1.417-1.417H21.25l7.083 7.084Z" fill="#85B7FE"/><path d="M21.25 2.833V8.5c0 .783.634 1.417 1.417 1.417h5.666L21.25 2.834Zm-4.131 16.821a2.71 2.71 0 0 1-.148-.841c0-2.036 2.096-2.114 2.096-3.624 0-.95-.939-1.01-1.107-1.01-1.067 0-1.9.61-2.25.918v-2.11c.36-.214 1.183-.644 2.496-.644 3.039 0 3.077 2.089 3.077 2.537 0 2.411-2.489 2.59-2.489 4.135 0 .323.117.558.168.638H17.12Zm1.022 3.314c-.578 0-1.19-.361-1.19-1.062 0-.7.636-1.05 1.19-1.05.555 0 1.171.312 1.171 1.05s-.592 1.062-1.17 1.062Z" fill="#07377F"/></svg>