<svg width="18" height="18" fill="none" xmlns="http://www.w3.org/2000/svg"><path d="M9.223.878C4.745.751 1.005 4.296.878 8.774c-.127 4.477 3.418 8.223 7.896 8.35 4.477.122 8.223-3.418 8.35-7.901a7.973 7.973 0 0 0-.134-1.677c-.09-.476-.663-.626-1.014-.294a.694.694 0 0 0-.2.625c.073.427.109.866.097 1.317-.107 3.789-3.276 6.782-7.065 6.68a6.89 6.89 0 0 1-6.685-7.066A6.89 6.89 0 0 1 9.19 2.123a6.834 6.834 0 0 1 2.957.774.68.68 0 0 0 .783-.096c.298-.282.256-.769-.105-.962a8.068 8.068 0 0 0-3.601-.96Zm6.467 2.737a.625.625 0 0 0-.883 0l-7.059 7.058-1.875-1.865-.186-.19a.62.62 0 1 0-.878.878l.19.186 2.396 2.404a.5.5 0 0 0 .708 0L15.69 4.5a.625.625 0 0 0 0-.884Z" fill="#7027E5"/></svg>