<?xml version="1.0" encoding="UTF-8" standalone="no"?>
<!DOCTYPE svg PUBLIC "-//W3C//DTD SVG 1.1//EN"
 "http://www.w3.org/Graphics/SVG/1.1/DTD/svg11.dtd">
<!-- Generated by graphviz version 5.0.0 (20220707.1540)
 -->
<!-- Title: dependencies Pages: 1 -->
<svg width="1468pt" height="247pt"
 viewBox="0.00 0.00 1468.00 246.80" xmlns="http://www.w3.org/2000/svg" xmlns:xlink="http://www.w3.org/1999/xlink">
<g id="graph0" class="graph" transform="scale(1 1) rotate(0) translate(4 242.8)">
<title>dependencies</title>
<polygon fill="white" stroke="transparent" points="-4,4 -4,-242.8 1464,-242.8 1464,4 -4,4"/>
<text text-anchor="middle" x="730" y="-8.2" font-family="sans-serif" font-size="14.00">dependencies</text>
<g id="clust1" class="cluster">
<title>cluster_FindlySharedModule</title>
<polygon fill="none" stroke="black" stroke-dasharray="1,5" points="8,-32.8 8,-230.8 1452,-230.8 1452,-32.8 8,-32.8"/>
</g>
<g id="clust2" class="cluster">
<title>cluster_FindlySharedModule_declarations</title>
<polygon fill="none" stroke="black" points="705,-40.8 705,-92.8 1438,-92.8 1438,-40.8 705,-40.8"/>
</g>
<g id="clust8" class="cluster">
<title>cluster_FindlySharedModule_exports</title>
<polygon fill="none" stroke="black" points="16,-170.8 16,-222.8 1444,-222.8 1444,-170.8 16,-170.8"/>
</g>
<g id="clust7" class="cluster">
<title>cluster_FindlySharedModule_imports</title>
<polygon fill="none" stroke="black" points="34,-40.8 34,-92.8 697,-92.8 697,-40.8 34,-40.8"/>
</g>
<!-- ListFieldsComponent -->
<g id="node1" class="node">
<title>ListFieldsComponent</title>
<polygon fill="#ffffb3" stroke="black" points="1429.84,-84.8 1292.16,-84.8 1292.16,-48.8 1429.84,-48.8 1429.84,-84.8"/>
<text text-anchor="middle" x="1361" y="-62.6" font-family="Times,serif" font-size="14.00">ListFieldsComponent</text>
</g>
<!-- FindlySharedModule -->
<g id="node5" class="node">
<title>FindlySharedModule</title>
<polygon fill="#8dd3c7" stroke="black" points="712.49,-149.8 709.49,-153.8 688.49,-153.8 685.49,-149.8 577.51,-149.8 577.51,-113.8 712.49,-113.8 712.49,-149.8"/>
<text text-anchor="middle" x="645" y="-127.6" font-family="Times,serif" font-size="14.00">FindlySharedModule</text>
</g>
<!-- ListFieldsComponent&#45;&gt;FindlySharedModule -->
<g id="edge1" class="edge">
<title>ListFieldsComponent&#45;&gt;FindlySharedModule</title>
<path fill="none" stroke="black" d="M1297.88,-85.02C1297.88,-103.63 1297.88,-129.8 1297.88,-129.8 1297.88,-129.8 722.72,-129.8 722.72,-129.8"/>
<polygon fill="black" stroke="black" points="722.72,-126.3 712.72,-129.8 722.72,-133.3 722.72,-126.3"/>
</g>
<!-- RangeSliderSearchExperienceComponent -->
<g id="node2" class="node">
<title>RangeSliderSearchExperienceComponent</title>
<polygon fill="#ffffb3" stroke="black" points="1274.59,-84.8 1023.41,-84.8 1023.41,-48.8 1274.59,-48.8 1274.59,-84.8"/>
<text text-anchor="middle" x="1149" y="-62.6" font-family="Times,serif" font-size="14.00">RangeSliderSearchExperienceComponent</text>
</g>
<!-- RangeSliderSearchExperienceComponent&#45;&gt;FindlySharedModule -->
<g id="edge2" class="edge">
<title>RangeSliderSearchExperienceComponent&#45;&gt;FindlySharedModule</title>
<path fill="none" stroke="black" d="M1083.67,-84.82C1083.67,-102.17 1083.67,-125.8 1083.67,-125.8 1083.67,-125.8 722.58,-125.8 722.58,-125.8"/>
<polygon fill="black" stroke="black" points="722.58,-122.3 712.58,-125.8 722.58,-129.3 722.58,-122.3"/>
</g>
<!-- SearchFilterComponent -->
<g id="node3" class="node">
<title>SearchFilterComponent</title>
<polygon fill="#ffffb3" stroke="black" points="1004.75,-84.8 855.25,-84.8 855.25,-48.8 1004.75,-48.8 1004.75,-84.8"/>
<text text-anchor="middle" x="930" y="-62.6" font-family="Times,serif" font-size="14.00">SearchFilterComponent</text>
</g>
<!-- SearchFilterComponent&#45;&gt;FindlySharedModule -->
<g id="edge3" class="edge">
<title>SearchFilterComponent&#45;&gt;FindlySharedModule</title>
<path fill="none" stroke="black" d="M924.33,-84.81C924.33,-100.85 924.33,-121.8 924.33,-121.8 924.33,-121.8 722.62,-121.8 722.62,-121.8"/>
<polygon fill="black" stroke="black" points="722.62,-118.3 712.62,-121.8 722.62,-125.3 722.62,-118.3"/>
</g>
<!-- SynonymFilterPipe -->
<g id="node4" class="node">
<title>SynonymFilterPipe</title>
<polygon fill="#ffffb3" stroke="black" points="837.4,-84.8 712.6,-84.8 712.6,-48.8 837.4,-48.8 837.4,-84.8"/>
<text text-anchor="middle" x="775" y="-62.6" font-family="Times,serif" font-size="14.00">SynonymFilterPipe</text>
</g>
<!-- SynonymFilterPipe&#45;&gt;FindlySharedModule -->
<g id="edge4" class="edge">
<title>SynonymFilterPipe&#45;&gt;FindlySharedModule</title>
<path fill="none" stroke="black" d="M716.62,-84.92C716.62,-99.58 716.62,-117.8 716.62,-117.8 716.62,-117.8 716.23,-117.8 716.23,-117.8"/>
<polygon fill="black" stroke="black" points="722.77,-114.3 712.77,-117.8 722.77,-121.3 722.77,-114.3"/>
</g>
<!-- KrModalModule  -->
<g id="node10" class="node">
<title>KrModalModule </title>
<polygon fill="#fb8072" stroke="black" points="1436.38,-214.8 1321.62,-214.8 1321.62,-178.8 1436.38,-178.8 1436.38,-214.8"/>
<text text-anchor="middle" x="1379" y="-192.6" font-family="Times,serif" font-size="14.00">KrModalModule </text>
</g>
<!-- FindlySharedModule&#45;&gt;KrModalModule  -->
<g id="edge9" class="edge">
<title>FindlySharedModule&#45;&gt;KrModalModule </title>
<path fill="none" stroke="black" stroke-dasharray="5,2" d="M712.76,-133.8C893.92,-133.8 1375.74,-133.8 1375.74,-133.8 1375.74,-133.8 1375.74,-168.58 1375.74,-168.58"/>
<polygon fill="black" stroke="black" points="1372.24,-168.58 1375.74,-178.58 1379.24,-168.58 1372.24,-168.58"/>
</g>
<!-- ListFieldsComponent  -->
<g id="node11" class="node">
<title>ListFieldsComponent </title>
<polygon fill="#fb8072" stroke="black" points="1303.34,-214.8 1162.66,-214.8 1162.66,-178.8 1303.34,-178.8 1303.34,-214.8"/>
<text text-anchor="middle" x="1233" y="-192.6" font-family="Times,serif" font-size="14.00">ListFieldsComponent </text>
</g>
<!-- FindlySharedModule&#45;&gt;ListFieldsComponent  -->
<g id="edge10" class="edge">
<title>FindlySharedModule&#45;&gt;ListFieldsComponent </title>
<path fill="none" stroke="black" stroke-dasharray="5,2" d="M712.5,-137.8C864.15,-137.8 1218.69,-137.8 1218.69,-137.8 1218.69,-137.8 1218.69,-168.78 1218.69,-168.78"/>
<polygon fill="black" stroke="black" points="1215.19,-168.78 1218.69,-178.78 1222.19,-168.78 1215.19,-168.78"/>
</g>
<!-- RangeSliderModule  -->
<g id="node12" class="node">
<title>RangeSliderModule </title>
<polygon fill="#fb8072" stroke="black" points="1144.26,-214.8 1011.74,-214.8 1011.74,-178.8 1144.26,-178.8 1144.26,-214.8"/>
<text text-anchor="middle" x="1078" y="-192.6" font-family="Times,serif" font-size="14.00">RangeSliderModule </text>
</g>
<!-- FindlySharedModule&#45;&gt;RangeSliderModule  -->
<g id="edge11" class="edge">
<title>FindlySharedModule&#45;&gt;RangeSliderModule </title>
<path fill="none" stroke="black" stroke-dasharray="5,2" d="M712.9,-141.8C820.35,-141.8 1017.54,-141.8 1017.54,-141.8 1017.54,-141.8 1017.54,-168.79 1017.54,-168.79"/>
<polygon fill="black" stroke="black" points="1014.04,-168.79 1017.54,-178.79 1021.04,-168.79 1014.04,-168.79"/>
</g>
<!-- RangeSliderSearchExperienceComponent  -->
<g id="node13" class="node">
<title>RangeSliderSearchExperienceComponent </title>
<polygon fill="#fb8072" stroke="black" points="993.59,-214.8 738.41,-214.8 738.41,-178.8 993.59,-178.8 993.59,-214.8"/>
<text text-anchor="middle" x="866" y="-192.6" font-family="Times,serif" font-size="14.00">RangeSliderSearchExperienceComponent </text>
</g>
<!-- FindlySharedModule&#45;&gt;RangeSliderSearchExperienceComponent  -->
<g id="edge12" class="edge">
<title>FindlySharedModule&#45;&gt;RangeSliderSearchExperienceComponent </title>
<path fill="none" stroke="black" stroke-dasharray="5,2" d="M712.71,-145.8C749.66,-145.8 787.95,-145.8 787.95,-145.8 787.95,-145.8 787.95,-168.68 787.95,-168.68"/>
<polygon fill="black" stroke="black" points="784.45,-168.68 787.95,-178.68 791.45,-168.68 784.45,-168.68"/>
</g>
<!-- RecordPaginationModule  -->
<g id="node14" class="node">
<title>RecordPaginationModule </title>
<polygon fill="#fb8072" stroke="black" points="720.86,-214.8 557.14,-214.8 557.14,-178.8 720.86,-178.8 720.86,-214.8"/>
<text text-anchor="middle" x="639" y="-192.6" font-family="Times,serif" font-size="14.00">RecordPaginationModule </text>
</g>
<!-- FindlySharedModule&#45;&gt;RecordPaginationModule  -->
<g id="edge13" class="edge">
<title>FindlySharedModule&#45;&gt;RecordPaginationModule </title>
<path fill="none" stroke="black" stroke-dasharray="5,2" d="M645,-149.91C645,-149.91 645,-168.79 645,-168.79"/>
<polygon fill="black" stroke="black" points="641.5,-168.79 645,-178.79 648.5,-168.79 641.5,-168.79"/>
</g>
<!-- SearchFilterComponent  -->
<g id="node15" class="node">
<title>SearchFilterComponent </title>
<polygon fill="#fb8072" stroke="black" points="539.75,-214.8 386.25,-214.8 386.25,-178.8 539.75,-178.8 539.75,-214.8"/>
<text text-anchor="middle" x="463" y="-192.6" font-family="Times,serif" font-size="14.00">SearchFilterComponent </text>
</g>
<!-- FindlySharedModule&#45;&gt;SearchFilterComponent  -->
<g id="edge14" class="edge">
<title>FindlySharedModule&#45;&gt;SearchFilterComponent </title>
<path fill="none" stroke="black" stroke-dasharray="5,2" d="M577.41,-144.8C533.97,-144.8 485.62,-144.8 485.62,-144.8 485.62,-144.8 485.62,-168.61 485.62,-168.61"/>
<polygon fill="black" stroke="black" points="482.12,-168.61 485.62,-178.61 489.12,-168.61 482.12,-168.61"/>
</g>
<!-- SynonymFilterPipe  -->
<g id="node16" class="node">
<title>SynonymFilterPipe </title>
<polygon fill="#fb8072" stroke="black" points="368.4,-214.8 239.6,-214.8 239.6,-178.8 368.4,-178.8 368.4,-214.8"/>
<text text-anchor="middle" x="304" y="-192.6" font-family="Times,serif" font-size="14.00">SynonymFilterPipe </text>
</g>
<!-- FindlySharedModule&#45;&gt;SynonymFilterPipe  -->
<g id="edge15" class="edge">
<title>FindlySharedModule&#45;&gt;SynonymFilterPipe </title>
<path fill="none" stroke="black" stroke-dasharray="5,2" d="M577.44,-139.8C479.88,-139.8 311.13,-139.8 311.13,-139.8 311.13,-139.8 311.13,-168.76 311.13,-168.76"/>
<polygon fill="black" stroke="black" points="307.63,-168.76 311.13,-178.76 314.63,-168.76 307.63,-168.76"/>
</g>
<!-- UseronboardingJourneyModule  -->
<g id="node17" class="node">
<title>UseronboardingJourneyModule </title>
<polygon fill="#fb8072" stroke="black" points="221.58,-214.8 24.42,-214.8 24.42,-178.8 221.58,-178.8 221.58,-214.8"/>
<text text-anchor="middle" x="123" y="-192.6" font-family="Times,serif" font-size="14.00">UseronboardingJourneyModule </text>
</g>
<!-- FindlySharedModule&#45;&gt;UseronboardingJourneyModule  -->
<g id="edge16" class="edge">
<title>FindlySharedModule&#45;&gt;UseronboardingJourneyModule </title>
<path fill="none" stroke="black" stroke-dasharray="5,2" d="M577.39,-134.8C438.05,-134.8 131.88,-134.8 131.88,-134.8 131.88,-134.8 131.88,-168.53 131.88,-168.53"/>
<polygon fill="black" stroke="black" points="128.38,-168.53 131.88,-178.53 135.38,-168.53 128.38,-168.53"/>
</g>
<!-- KrModalModule -->
<g id="node6" class="node">
<title>KrModalModule</title>
<polygon fill="#8dd3c7" stroke="black" points="689.38,-84.8 686.38,-88.8 665.38,-88.8 662.38,-84.8 578.62,-84.8 578.62,-48.8 689.38,-48.8 689.38,-84.8"/>
<text text-anchor="middle" x="634" y="-62.6" font-family="Times,serif" font-size="14.00">KrModalModule</text>
</g>
<!-- KrModalModule&#45;&gt;FindlySharedModule -->
<g id="edge5" class="edge">
<title>KrModalModule&#45;&gt;FindlySharedModule</title>
<path fill="none" stroke="black" d="M634,-84.91C634,-84.91 634,-103.79 634,-103.79"/>
<polygon fill="black" stroke="black" points="630.5,-103.79 634,-113.79 637.5,-103.79 630.5,-103.79"/>
</g>
<!-- RangeSliderModule -->
<g id="node7" class="node">
<title>RangeSliderModule</title>
<polygon fill="#8dd3c7" stroke="black" points="560.26,-84.8 557.26,-88.8 536.26,-88.8 533.26,-84.8 431.74,-84.8 431.74,-48.8 560.26,-48.8 560.26,-84.8"/>
<text text-anchor="middle" x="496" y="-62.6" font-family="Times,serif" font-size="14.00">RangeSliderModule</text>
</g>
<!-- RangeSliderModule&#45;&gt;FindlySharedModule -->
<g id="edge6" class="edge">
<title>RangeSliderModule&#45;&gt;FindlySharedModule</title>
<path fill="none" stroke="black" d="M548.47,-85.04C548.47,-100.37 548.47,-119.8 548.47,-119.8 548.47,-119.8 567.43,-119.8 567.43,-119.8"/>
<polygon fill="black" stroke="black" points="567.43,-123.3 577.43,-119.8 567.43,-116.3 567.43,-123.3"/>
</g>
<!-- RecordPaginationModule -->
<g id="node8" class="node">
<title>RecordPaginationModule</title>
<polygon fill="#8dd3c7" stroke="black" points="413.86,-84.8 410.86,-88.8 389.86,-88.8 386.86,-84.8 254.14,-84.8 254.14,-48.8 413.86,-48.8 413.86,-84.8"/>
<text text-anchor="middle" x="334" y="-62.6" font-family="Times,serif" font-size="14.00">RecordPaginationModule</text>
</g>
<!-- RecordPaginationModule&#45;&gt;FindlySharedModule -->
<g id="edge7" class="edge">
<title>RecordPaginationModule&#45;&gt;FindlySharedModule</title>
<path fill="none" stroke="black" d="M400.15,-84.83C400.15,-101.86 400.15,-124.8 400.15,-124.8 400.15,-124.8 567.45,-124.8 567.45,-124.8"/>
<polygon fill="black" stroke="black" points="567.45,-128.3 577.45,-124.8 567.45,-121.3 567.45,-128.3"/>
</g>
<!-- UseronboardingJourneyModule -->
<g id="node9" class="node">
<title>UseronboardingJourneyModule</title>
<polygon fill="#8dd3c7" stroke="black" points="236.08,-84.8 233.08,-88.8 212.08,-88.8 209.08,-84.8 41.92,-84.8 41.92,-48.8 236.08,-48.8 236.08,-84.8"/>
<text text-anchor="middle" x="139" y="-62.6" font-family="Times,serif" font-size="14.00">UseronboardingJourneyModule</text>
</g>
<!-- UseronboardingJourneyModule&#45;&gt;FindlySharedModule -->
<g id="edge8" class="edge">
<title>UseronboardingJourneyModule&#45;&gt;FindlySharedModule</title>
<path fill="none" stroke="black" d="M228.91,-85.02C228.91,-103.63 228.91,-129.8 228.91,-129.8 228.91,-129.8 567.22,-129.8 567.22,-129.8"/>
<polygon fill="black" stroke="black" points="567.22,-133.3 577.22,-129.8 567.22,-126.3 567.22,-133.3"/>
</g>
</g>
</svg>
