<?xml version="1.0" encoding="UTF-8" standalone="no"?>
<!DOCTYPE svg PUBLIC "-//W3C//DTD SVG 1.1//EN"
 "http://www.w3.org/Graphics/SVG/1.1/DTD/svg11.dtd">
<!-- Generated by graphviz version 5.0.0 (20220707.1540)
 -->
<!-- Title: dependencies Pages: 1 -->
<svg width="515pt" height="174pt"
 viewBox="0.00 0.00 515.00 173.80" xmlns="http://www.w3.org/2000/svg" xmlns:xlink="http://www.w3.org/1999/xlink">
<g id="graph0" class="graph" transform="scale(1 1) rotate(0) translate(4 169.8)">
<title>dependencies</title>
<polygon fill="white" stroke="transparent" points="-4,4 -4,-169.8 511,-169.8 511,4 -4,4"/>
<text text-anchor="middle" x="253.5" y="-8.2" font-family="sans-serif" font-size="14.00">dependencies</text>
<g id="clust1" class="cluster">
<title>cluster_SnippetsModule</title>
<polygon fill="none" stroke="black" stroke-dasharray="1,5" points="8,-32.8 8,-157.8 499,-157.8 499,-32.8 8,-32.8"/>
</g>
<g id="clust2" class="cluster">
<title>cluster_SnippetsModule_declarations</title>
<polygon fill="none" stroke="black" points="345,-40.8 345,-92.8 491,-92.8 491,-40.8 345,-40.8"/>
</g>
<g id="clust4" class="cluster">
<title>cluster_SnippetsModule_imports</title>
<polygon fill="none" stroke="black" points="16,-40.8 16,-92.8 337,-92.8 337,-40.8 16,-40.8"/>
</g>
<!-- SnippetsComponent -->
<g id="node1" class="node">
<title>SnippetsComponent</title>
<polygon fill="#ffffb3" stroke="black" points="482.56,-84.8 353.44,-84.8 353.44,-48.8 482.56,-48.8 482.56,-84.8"/>
<text text-anchor="middle" x="418" y="-62.6" font-family="Times,serif" font-size="14.00">SnippetsComponent</text>
</g>
<!-- SnippetsModule -->
<g id="node2" class="node">
<title>SnippetsModule</title>
<polygon fill="#8dd3c7" stroke="black" points="315.78,-149.8 312.78,-153.8 291.78,-153.8 288.78,-149.8 208.22,-149.8 208.22,-113.8 315.78,-113.8 315.78,-149.8"/>
<text text-anchor="middle" x="262" y="-127.6" font-family="Times,serif" font-size="14.00">SnippetsModule</text>
</g>
<!-- SnippetsComponent&#45;&gt;SnippetsModule -->
<g id="edge1" class="edge">
<title>SnippetsComponent&#45;&gt;SnippetsModule</title>
<path fill="none" stroke="black" d="M418,-84.91C418,-104.14 418,-131.8 418,-131.8 418,-131.8 326.12,-131.8 326.12,-131.8"/>
<polygon fill="black" stroke="black" points="326.12,-128.3 316.12,-131.8 326.12,-135.3 326.12,-128.3"/>
</g>
<!-- FindlySharedModule -->
<g id="node3" class="node">
<title>FindlySharedModule</title>
<polygon fill="#8dd3c7" stroke="black" points="329.49,-84.8 326.49,-88.8 305.49,-88.8 302.49,-84.8 194.51,-84.8 194.51,-48.8 329.49,-48.8 329.49,-84.8"/>
<text text-anchor="middle" x="262" y="-62.6" font-family="Times,serif" font-size="14.00">FindlySharedModule</text>
</g>
<!-- FindlySharedModule&#45;&gt;SnippetsModule -->
<g id="edge2" class="edge">
<title>FindlySharedModule&#45;&gt;SnippetsModule</title>
<path fill="none" stroke="black" d="M262,-84.91C262,-84.91 262,-103.79 262,-103.79"/>
<polygon fill="black" stroke="black" points="258.5,-103.79 262,-113.79 265.5,-103.79 258.5,-103.79"/>
</g>
<!-- SnippetsRoutingModule -->
<g id="node4" class="node">
<title>SnippetsRoutingModule</title>
<polygon fill="#8dd3c7" stroke="black" points="176.4,-84.8 173.4,-88.8 152.4,-88.8 149.4,-84.8 23.6,-84.8 23.6,-48.8 176.4,-48.8 176.4,-84.8"/>
<text text-anchor="middle" x="100" y="-62.6" font-family="Times,serif" font-size="14.00">SnippetsRoutingModule</text>
</g>
<!-- SnippetsRoutingModule&#45;&gt;SnippetsModule -->
<g id="edge3" class="edge">
<title>SnippetsRoutingModule&#45;&gt;SnippetsModule</title>
<path fill="none" stroke="black" d="M100,-84.91C100,-104.14 100,-131.8 100,-131.8 100,-131.8 198.06,-131.8 198.06,-131.8"/>
<polygon fill="black" stroke="black" points="198.06,-135.3 208.06,-131.8 198.06,-128.3 198.06,-135.3"/>
</g>
</g>
</svg>
