<?xml version="1.0" encoding="UTF-8" standalone="no"?>
<!DOCTYPE svg PUBLIC "-//W3C//DTD SVG 1.1//EN"
 "http://www.w3.org/Graphics/SVG/1.1/DTD/svg11.dtd">
<!-- Generated by graphviz version 5.0.0 (20220707.1540)
 -->
<!-- Title: dependencies Pages: 1 -->
<svg width="515pt" height="174pt"
 viewBox="0.00 0.00 515.00 173.80" xmlns="http://www.w3.org/2000/svg" xmlns:xlink="http://www.w3.org/1999/xlink">
<g id="graph0" class="graph" transform="scale(1 1) rotate(0) translate(4 169.8)">
<title>dependencies</title>
<polygon fill="white" stroke="transparent" points="-4,4 -4,-169.8 511,-169.8 511,4 -4,4"/>
<text text-anchor="middle" x="253.5" y="-8.2" font-family="sans-serif" font-size="14.00">dependencies</text>
<g id="clust1" class="cluster">
<title>cluster_SnippetsModule</title>
<polygon fill="none" stroke="black" stroke-dasharray="1,5" points="8,-32.8 8,-157.8 499,-157.8 499,-32.8 8,-32.8"/>
</g>
<g id="clust4" class="cluster">
<title>cluster_SnippetsModule_imports</title>
<polygon fill="none" stroke="black" points="170,-40.8 170,-92.8 491,-92.8 491,-40.8 170,-40.8"/>
</g>
<g id="clust2" class="cluster">
<title>cluster_SnippetsModule_declarations</title>
<polygon fill="none" stroke="black" points="16,-40.8 16,-92.8 162,-92.8 162,-40.8 16,-40.8"/>
</g>
<!-- SnippetsComponent -->
<g id="node1" class="node">
<title>SnippetsComponent</title>
<polygon fill="#ffffb3" stroke="black" points="153.56,-84.8 24.44,-84.8 24.44,-48.8 153.56,-48.8 153.56,-84.8"/>
<text text-anchor="middle" x="89" y="-62.6" font-family="Times,serif" font-size="14.00">SnippetsComponent</text>
</g>
<!-- SnippetsModule -->
<g id="node2" class="node">
<title>SnippetsModule</title>
<polygon fill="#8dd3c7" stroke="black" points="307.78,-149.8 304.78,-153.8 283.78,-153.8 280.78,-149.8 200.22,-149.8 200.22,-113.8 307.78,-113.8 307.78,-149.8"/>
<text text-anchor="middle" x="254" y="-127.6" font-family="Times,serif" font-size="14.00">SnippetsModule</text>
</g>
<!-- SnippetsComponent&#45;&gt;SnippetsModule -->
<g id="edge1" class="edge">
<title>SnippetsComponent&#45;&gt;SnippetsModule</title>
<path fill="none" stroke="black" d="M89,-84.91C89,-104.14 89,-131.8 89,-131.8 89,-131.8 189.97,-131.8 189.97,-131.8"/>
<polygon fill="black" stroke="black" points="189.97,-135.3 199.97,-131.8 189.97,-128.3 189.97,-135.3"/>
</g>
<!-- FindlySharedModule -->
<g id="node3" class="node">
<title>FindlySharedModule</title>
<polygon fill="#8dd3c7" stroke="black" points="483.49,-84.8 480.49,-88.8 459.49,-88.8 456.49,-84.8 348.51,-84.8 348.51,-48.8 483.49,-48.8 483.49,-84.8"/>
<text text-anchor="middle" x="416" y="-62.6" font-family="Times,serif" font-size="14.00">FindlySharedModule</text>
</g>
<!-- FindlySharedModule&#45;&gt;SnippetsModule -->
<g id="edge2" class="edge">
<title>FindlySharedModule&#45;&gt;SnippetsModule</title>
<path fill="none" stroke="black" d="M416,-84.91C416,-104.14 416,-131.8 416,-131.8 416,-131.8 317.94,-131.8 317.94,-131.8"/>
<polygon fill="black" stroke="black" points="317.94,-128.3 307.94,-131.8 317.94,-135.3 317.94,-128.3"/>
</g>
<!-- SnippetsRoutingModule -->
<g id="node4" class="node">
<title>SnippetsRoutingModule</title>
<polygon fill="#8dd3c7" stroke="black" points="330.4,-84.8 327.4,-88.8 306.4,-88.8 303.4,-84.8 177.6,-84.8 177.6,-48.8 330.4,-48.8 330.4,-84.8"/>
<text text-anchor="middle" x="254" y="-62.6" font-family="Times,serif" font-size="14.00">SnippetsRoutingModule</text>
</g>
<!-- SnippetsRoutingModule&#45;&gt;SnippetsModule -->
<g id="edge3" class="edge">
<title>SnippetsRoutingModule&#45;&gt;SnippetsModule</title>
<path fill="none" stroke="black" d="M254,-84.91C254,-84.91 254,-103.79 254,-103.79"/>
<polygon fill="black" stroke="black" points="250.5,-103.79 254,-113.79 257.5,-103.79 250.5,-103.79"/>
</g>
</g>
</svg>
