<?xml version="1.0" encoding="UTF-8" standalone="no"?>
<!DOCTYPE svg PUBLIC "-//W3C//DTD SVG 1.1//EN"
 "http://www.w3.org/Graphics/SVG/1.1/DTD/svg11.dtd">
<!-- Generated by graphviz version 5.0.0 (20220707.1540)
 -->
<!-- Title: dependencies Pages: 1 -->
<svg width="1447pt" height="247pt"
 viewBox="0.00 0.00 1447.00 246.80" xmlns="http://www.w3.org/2000/svg" xmlns:xlink="http://www.w3.org/1999/xlink">
<g id="graph0" class="graph" transform="scale(1 1) rotate(0) translate(4 242.8)">
<title>dependencies</title>
<polygon fill="white" stroke="transparent" points="-4,4 -4,-242.8 1443,-242.8 1443,4 -4,4"/>
<text text-anchor="middle" x="719.5" y="-8.2" font-family="sans-serif" font-size="14.00">dependencies</text>
<g id="clust1" class="cluster">
<title>cluster_AnnotoolModule</title>
<polygon fill="none" stroke="black" stroke-dasharray="1,5" points="8,-32.8 8,-230.8 1431,-230.8 1431,-32.8 8,-32.8"/>
</g>
<g id="clust2" class="cluster">
<title>cluster_AnnotoolModule_declarations</title>
<polygon fill="none" stroke="black" points="380,-40.8 380,-92.8 1423,-92.8 1423,-40.8 380,-40.8"/>
</g>
<g id="clust11" class="cluster">
<title>cluster_AnnotoolModule_exports</title>
<polygon fill="none" stroke="black" points="277,-170.8 277,-222.8 1245,-222.8 1245,-170.8 277,-170.8"/>
</g>
<g id="clust10" class="cluster">
<title>cluster_AnnotoolModule_imports</title>
<polygon fill="none" stroke="black" points="16,-40.8 16,-92.8 372,-92.8 372,-40.8 16,-40.8"/>
</g>
<!-- AnnotoolComponent -->
<g id="node1" class="node">
<title>AnnotoolComponent</title>
<polygon fill="#ffffb3" stroke="black" points="1415.22,-84.8 1280.78,-84.8 1280.78,-48.8 1415.22,-48.8 1415.22,-84.8"/>
<text text-anchor="middle" x="1348" y="-62.6" font-family="Times,serif" font-size="14.00">AnnotoolComponent</text>
</g>
<!-- AnnotoolModule -->
<g id="node8" class="node">
<title>AnnotoolModule</title>
<polygon fill="#8dd3c7" stroke="black" points="798.44,-149.8 795.44,-153.8 774.44,-153.8 771.44,-149.8 685.56,-149.8 685.56,-113.8 798.44,-113.8 798.44,-149.8"/>
<text text-anchor="middle" x="742" y="-127.6" font-family="Times,serif" font-size="14.00">AnnotoolModule</text>
</g>
<!-- AnnotoolComponent&#45;&gt;AnnotoolModule -->
<g id="edge1" class="edge">
<title>AnnotoolComponent&#45;&gt;AnnotoolModule</title>
<path fill="none" stroke="black" d="M1348,-85.02C1348,-105.17 1348,-134.8 1348,-134.8 1348,-134.8 808.47,-134.8 808.47,-134.8"/>
<polygon fill="black" stroke="black" points="808.47,-131.3 798.47,-134.8 808.47,-138.3 808.47,-131.3"/>
</g>
<!-- ClickOutSideDirective -->
<g id="node2" class="node">
<title>ClickOutSideDirective</title>
<polygon fill="#ffffb3" stroke="black" points="1263.3,-84.8 1118.7,-84.8 1118.7,-48.8 1263.3,-48.8 1263.3,-84.8"/>
<text text-anchor="middle" x="1191" y="-62.6" font-family="Times,serif" font-size="14.00">ClickOutSideDirective</text>
</g>
<!-- ClickOutSideDirective&#45;&gt;AnnotoolModule -->
<g id="edge2" class="edge">
<title>ClickOutSideDirective&#45;&gt;AnnotoolModule</title>
<path fill="none" stroke="black" d="M1177.85,-85.02C1177.85,-103.63 1177.85,-129.8 1177.85,-129.8 1177.85,-129.8 808.53,-129.8 808.53,-129.8"/>
<polygon fill="black" stroke="black" points="808.53,-126.3 798.53,-129.8 808.53,-133.3 808.53,-126.3"/>
</g>
<!-- ConfirmationComponent -->
<g id="node3" class="node">
<title>ConfirmationComponent</title>
<polygon fill="#ffffb3" stroke="black" points="1100.27,-84.8 943.73,-84.8 943.73,-48.8 1100.27,-48.8 1100.27,-84.8"/>
<text text-anchor="middle" x="1022" y="-62.6" font-family="Times,serif" font-size="14.00">ConfirmationComponent</text>
</g>
<!-- ConfirmationComponent&#45;&gt;AnnotoolModule -->
<g id="edge3" class="edge">
<title>ConfirmationComponent&#45;&gt;AnnotoolModule</title>
<path fill="none" stroke="black" d="M1012.26,-84.83C1012.26,-101.86 1012.26,-124.8 1012.26,-124.8 1012.26,-124.8 808.33,-124.8 808.33,-124.8"/>
<polygon fill="black" stroke="black" points="808.33,-121.3 798.33,-124.8 808.33,-128.3 808.33,-121.3"/>
</g>
<!-- SearchPipe -->
<g id="node4" class="node">
<title>SearchPipe</title>
<polygon fill="#ffffb3" stroke="black" points="925.48,-84.8 846.52,-84.8 846.52,-48.8 925.48,-48.8 925.48,-84.8"/>
<text text-anchor="middle" x="886" y="-62.6" font-family="Times,serif" font-size="14.00">SearchPipe</text>
</g>
<!-- SearchPipe&#45;&gt;AnnotoolModule -->
<g id="edge4" class="edge">
<title>SearchPipe&#45;&gt;AnnotoolModule</title>
<path fill="none" stroke="black" d="M880.82,-85.04C880.82,-100.37 880.82,-119.8 880.82,-119.8 880.82,-119.8 808.46,-119.8 808.46,-119.8"/>
<polygon fill="black" stroke="black" points="808.46,-116.3 798.46,-119.8 808.46,-123.3 808.46,-116.3"/>
</g>
<!-- SummaryModalComponent -->
<g id="node5" class="node">
<title>SummaryModalComponent</title>
<polygon fill="#ffffb3" stroke="black" points="828.32,-84.8 655.68,-84.8 655.68,-48.8 828.32,-48.8 828.32,-84.8"/>
<text text-anchor="middle" x="742" y="-62.6" font-family="Times,serif" font-size="14.00">SummaryModalComponent</text>
</g>
<!-- SummaryModalComponent&#45;&gt;AnnotoolModule -->
<g id="edge5" class="edge">
<title>SummaryModalComponent&#45;&gt;AnnotoolModule</title>
<path fill="none" stroke="black" d="M742,-84.91C742,-84.91 742,-103.79 742,-103.79"/>
<polygon fill="black" stroke="black" points="738.5,-103.79 742,-113.79 745.5,-103.79 738.5,-103.79"/>
</g>
<!-- TruncatePipe -->
<g id="node6" class="node">
<title>TruncatePipe</title>
<polygon fill="#ffffb3" stroke="black" points="638.14,-84.8 547.86,-84.8 547.86,-48.8 638.14,-48.8 638.14,-84.8"/>
<text text-anchor="middle" x="593" y="-62.6" font-family="Times,serif" font-size="14.00">TruncatePipe</text>
</g>
<!-- TruncatePipe&#45;&gt;AnnotoolModule -->
<g id="edge6" class="edge">
<title>TruncatePipe&#45;&gt;AnnotoolModule</title>
<path fill="none" stroke="black" d="M599.7,-85.04C599.7,-100.37 599.7,-119.8 599.7,-119.8 599.7,-119.8 675.76,-119.8 675.76,-119.8"/>
<polygon fill="black" stroke="black" points="675.76,-123.3 685.76,-119.8 675.76,-116.3 675.76,-123.3"/>
</g>
<!-- UserGuideComponent -->
<g id="node7" class="node">
<title>UserGuideComponent</title>
<polygon fill="#ffffb3" stroke="black" points="529.98,-84.8 388.02,-84.8 388.02,-48.8 529.98,-48.8 529.98,-84.8"/>
<text text-anchor="middle" x="459" y="-62.6" font-family="Times,serif" font-size="14.00">UserGuideComponent</text>
</g>
<!-- UserGuideComponent&#45;&gt;AnnotoolModule -->
<g id="edge7" class="edge">
<title>UserGuideComponent&#45;&gt;AnnotoolModule</title>
<path fill="none" stroke="black" d="M489.46,-84.83C489.46,-101.86 489.46,-124.8 489.46,-124.8 489.46,-124.8 675.64,-124.8 675.64,-124.8"/>
<polygon fill="black" stroke="black" points="675.64,-128.3 685.64,-124.8 675.64,-121.3 675.64,-128.3"/>
</g>
<!-- AnnotoolComponent  -->
<g id="node11" class="node">
<title>AnnotoolComponent </title>
<polygon fill="#fb8072" stroke="black" points="1236.72,-214.8 1099.28,-214.8 1099.28,-178.8 1236.72,-178.8 1236.72,-214.8"/>
<text text-anchor="middle" x="1168" y="-192.6" font-family="Times,serif" font-size="14.00">AnnotoolComponent </text>
</g>
<!-- AnnotoolModule&#45;&gt;AnnotoolComponent  -->
<g id="edge10" class="edge">
<title>AnnotoolModule&#45;&gt;AnnotoolComponent </title>
<path fill="none" stroke="black" stroke-dasharray="5,2" d="M798.23,-139.8C901.21,-139.8 1109.62,-139.8 1109.62,-139.8 1109.62,-139.8 1109.62,-168.76 1109.62,-168.76"/>
<polygon fill="black" stroke="black" points="1106.12,-168.76 1109.62,-178.76 1113.12,-168.76 1106.12,-168.76"/>
</g>
<!-- ClickOutSideDirective  -->
<g id="node12" class="node">
<title>ClickOutSideDirective </title>
<polygon fill="#fb8072" stroke="black" points="1080.8,-214.8 933.2,-214.8 933.2,-178.8 1080.8,-178.8 1080.8,-214.8"/>
<text text-anchor="middle" x="1007" y="-192.6" font-family="Times,serif" font-size="14.00">ClickOutSideDirective </text>
</g>
<!-- AnnotoolModule&#45;&gt;ClickOutSideDirective  -->
<g id="edge11" class="edge">
<title>AnnotoolModule&#45;&gt;ClickOutSideDirective </title>
<path fill="none" stroke="black" stroke-dasharray="5,2" d="M798.27,-144.8C856.29,-144.8 938.36,-144.8 938.36,-144.8 938.36,-144.8 938.36,-168.61 938.36,-168.61"/>
<polygon fill="black" stroke="black" points="934.86,-168.61 938.36,-178.61 941.86,-168.61 934.86,-168.61"/>
</g>
<!-- ConfirmationComponent  -->
<g id="node13" class="node">
<title>ConfirmationComponent </title>
<polygon fill="#fb8072" stroke="black" points="915.27,-214.8 754.73,-214.8 754.73,-178.8 915.27,-178.8 915.27,-214.8"/>
<text text-anchor="middle" x="835" y="-192.6" font-family="Times,serif" font-size="14.00">ConfirmationComponent </text>
</g>
<!-- AnnotoolModule&#45;&gt;ConfirmationComponent  -->
<g id="edge12" class="edge">
<title>AnnotoolModule&#45;&gt;ConfirmationComponent </title>
<path fill="none" stroke="black" stroke-dasharray="5,2" d="M776.54,-149.91C776.54,-149.91 776.54,-168.79 776.54,-168.79"/>
<polygon fill="black" stroke="black" points="773.04,-168.79 776.54,-178.79 780.04,-168.79 773.04,-168.79"/>
</g>
<!-- SummaryModalComponent  -->
<g id="node14" class="node">
<title>SummaryModalComponent </title>
<polygon fill="#fb8072" stroke="black" points="736.82,-214.8 561.18,-214.8 561.18,-178.8 736.82,-178.8 736.82,-214.8"/>
<text text-anchor="middle" x="649" y="-192.6" font-family="Times,serif" font-size="14.00">SummaryModalComponent </text>
</g>
<!-- AnnotoolModule&#45;&gt;SummaryModalComponent  -->
<g id="edge13" class="edge">
<title>AnnotoolModule&#45;&gt;SummaryModalComponent </title>
<path fill="none" stroke="black" stroke-dasharray="5,2" d="M711.35,-149.91C711.35,-149.91 711.35,-168.79 711.35,-168.79"/>
<polygon fill="black" stroke="black" points="707.85,-168.79 711.35,-178.79 714.85,-168.79 707.85,-168.79"/>
</g>
<!-- TruncatePipe  -->
<g id="node15" class="node">
<title>TruncatePipe </title>
<polygon fill="#fb8072" stroke="black" points="543.13,-214.8 448.87,-214.8 448.87,-178.8 543.13,-178.8 543.13,-214.8"/>
<text text-anchor="middle" x="496" y="-192.6" font-family="Times,serif" font-size="14.00">TruncatePipe </text>
</g>
<!-- AnnotoolModule&#45;&gt;TruncatePipe  -->
<g id="edge14" class="edge">
<title>AnnotoolModule&#45;&gt;TruncatePipe </title>
<path fill="none" stroke="black" stroke-dasharray="5,2" d="M685.58,-144.8C624.75,-144.8 536.53,-144.8 536.53,-144.8 536.53,-144.8 536.53,-168.61 536.53,-168.61"/>
<polygon fill="black" stroke="black" points="533.03,-168.61 536.53,-178.61 540.03,-168.61 533.03,-168.61"/>
</g>
<!-- UserGuideComponent  -->
<g id="node16" class="node">
<title>UserGuideComponent </title>
<polygon fill="#fb8072" stroke="black" points="430.98,-214.8 285.02,-214.8 285.02,-178.8 430.98,-178.8 430.98,-214.8"/>
<text text-anchor="middle" x="358" y="-192.6" font-family="Times,serif" font-size="14.00">UserGuideComponent </text>
</g>
<!-- AnnotoolModule&#45;&gt;UserGuideComponent  -->
<g id="edge15" class="edge">
<title>AnnotoolModule&#45;&gt;UserGuideComponent </title>
<path fill="none" stroke="black" stroke-dasharray="5,2" d="M685.57,-139.8C590.68,-139.8 409.38,-139.8 409.38,-139.8 409.38,-139.8 409.38,-168.76 409.38,-168.76"/>
<polygon fill="black" stroke="black" points="405.88,-168.76 409.38,-178.76 412.88,-168.76 405.88,-168.76"/>
</g>
<!-- AnnotoolRoutingModule -->
<g id="node9" class="node">
<title>AnnotoolRoutingModule</title>
<polygon fill="#8dd3c7" stroke="black" points="363.56,-84.8 360.56,-88.8 339.56,-88.8 336.56,-84.8 206.44,-84.8 206.44,-48.8 363.56,-48.8 363.56,-84.8"/>
<text text-anchor="middle" x="285" y="-62.6" font-family="Times,serif" font-size="14.00">AnnotoolRoutingModule</text>
</g>
<!-- AnnotoolRoutingModule&#45;&gt;AnnotoolModule -->
<g id="edge8" class="edge">
<title>AnnotoolRoutingModule&#45;&gt;AnnotoolModule</title>
<path fill="none" stroke="black" d="M324.52,-85.02C324.52,-103.63 324.52,-129.8 324.52,-129.8 324.52,-129.8 675.7,-129.8 675.7,-129.8"/>
<polygon fill="black" stroke="black" points="675.7,-133.3 685.7,-129.8 675.7,-126.3 675.7,-133.3"/>
</g>
<!-- PdfAnnotationComponent -->
<g id="node10" class="node">
<title>PdfAnnotationComponent</title>
<polygon fill="#8dd3c7" stroke="black" points="187.77,-84.8 184.77,-88.8 163.77,-88.8 160.77,-84.8 24.23,-84.8 24.23,-48.8 187.77,-48.8 187.77,-84.8"/>
<text text-anchor="middle" x="106" y="-62.6" font-family="Times,serif" font-size="14.00">PdfAnnotationComponent</text>
</g>
<!-- PdfAnnotationComponent&#45;&gt;AnnotoolModule -->
<g id="edge9" class="edge">
<title>PdfAnnotationComponent&#45;&gt;AnnotoolModule</title>
<path fill="none" stroke="black" d="M106,-85.02C106,-105.17 106,-134.8 106,-134.8 106,-134.8 675.56,-134.8 675.56,-134.8"/>
<polygon fill="black" stroke="black" points="675.56,-138.3 685.56,-134.8 675.56,-131.3 675.56,-138.3"/>
</g>
</g>
</svg>
