<?xml version="1.0" encoding="UTF-8" standalone="no"?>
<!DOCTYPE svg PUBLIC "-//W3C//DTD SVG 1.1//EN"
 "http://www.w3.org/Graphics/SVG/1.1/DTD/svg11.dtd">
<!-- Generated by graphviz version 5.0.0 (20220707.1540)
 -->
<!-- Title: dependencies Pages: 1 -->
<svg width="637pt" height="174pt"
 viewBox="0.00 0.00 637.00 173.80" xmlns="http://www.w3.org/2000/svg" xmlns:xlink="http://www.w3.org/1999/xlink">
<g id="graph0" class="graph" transform="scale(1 1) rotate(0) translate(4 169.8)">
<title>dependencies</title>
<polygon fill="white" stroke="transparent" points="-4,4 -4,-169.8 633,-169.8 633,4 -4,4"/>
<text text-anchor="middle" x="314.5" y="-8.2" font-family="sans-serif" font-size="14.00">dependencies</text>
<g id="clust1" class="cluster">
<title>cluster_SettingsModule</title>
<polygon fill="none" stroke="black" stroke-dasharray="1,5" points="8,-32.8 8,-157.8 621,-157.8 621,-32.8 8,-32.8"/>
</g>
<g id="clust4" class="cluster">
<title>cluster_SettingsModule_imports</title>
<polygon fill="none" stroke="black" points="166,-40.8 166,-92.8 613,-92.8 613,-40.8 166,-40.8"/>
</g>
<g id="clust2" class="cluster">
<title>cluster_SettingsModule_declarations</title>
<polygon fill="none" stroke="black" points="16,-40.8 16,-92.8 158,-92.8 158,-40.8 16,-40.8"/>
</g>
<!-- SettingsComponent -->
<g id="node1" class="node">
<title>SettingsComponent</title>
<polygon fill="#ffffb3" stroke="black" points="150.45,-84.8 23.55,-84.8 23.55,-48.8 150.45,-48.8 150.45,-84.8"/>
<text text-anchor="middle" x="87" y="-62.6" font-family="Times,serif" font-size="14.00">SettingsComponent</text>
</g>
<!-- SettingsModule -->
<g id="node2" class="node">
<title>SettingsModule</title>
<polygon fill="#8dd3c7" stroke="black" points="375.17,-149.8 372.17,-153.8 351.17,-153.8 348.17,-149.8 270.83,-149.8 270.83,-113.8 375.17,-113.8 375.17,-149.8"/>
<text text-anchor="middle" x="323" y="-127.6" font-family="Times,serif" font-size="14.00">SettingsModule</text>
</g>
<!-- SettingsComponent&#45;&gt;SettingsModule -->
<g id="edge1" class="edge">
<title>SettingsComponent&#45;&gt;SettingsModule</title>
<path fill="none" stroke="black" d="M87,-84.91C87,-104.14 87,-131.8 87,-131.8 87,-131.8 260.62,-131.8 260.62,-131.8"/>
<polygon fill="black" stroke="black" points="260.62,-135.3 270.62,-131.8 260.62,-128.3 260.62,-135.3"/>
</g>
<!-- EmptyScreenModule -->
<g id="node3" class="node">
<title>EmptyScreenModule</title>
<polygon fill="#8dd3c7" stroke="black" points="605.47,-84.8 602.47,-88.8 581.47,-88.8 578.47,-84.8 470.53,-84.8 470.53,-48.8 605.47,-48.8 605.47,-84.8"/>
<text text-anchor="middle" x="538" y="-62.6" font-family="Times,serif" font-size="14.00">EmptyScreenModule</text>
</g>
<!-- EmptyScreenModule&#45;&gt;SettingsModule -->
<g id="edge2" class="edge">
<title>EmptyScreenModule&#45;&gt;SettingsModule</title>
<path fill="none" stroke="black" d="M538,-84.91C538,-104.14 538,-131.8 538,-131.8 538,-131.8 385.32,-131.8 385.32,-131.8"/>
<polygon fill="black" stroke="black" points="385.32,-128.3 375.32,-131.8 385.32,-135.3 385.32,-128.3"/>
</g>
<!-- KrModalModule -->
<g id="node4" class="node">
<title>KrModalModule</title>
<polygon fill="#8dd3c7" stroke="black" points="452.38,-84.8 449.38,-88.8 428.38,-88.8 425.38,-84.8 341.62,-84.8 341.62,-48.8 452.38,-48.8 452.38,-84.8"/>
<text text-anchor="middle" x="397" y="-62.6" font-family="Times,serif" font-size="14.00">KrModalModule</text>
</g>
<!-- KrModalModule&#45;&gt;SettingsModule -->
<g id="edge3" class="edge">
<title>KrModalModule&#45;&gt;SettingsModule</title>
<path fill="none" stroke="black" d="M358.45,-84.91C358.45,-84.91 358.45,-103.79 358.45,-103.79"/>
<polygon fill="black" stroke="black" points="354.95,-103.79 358.45,-113.79 361.95,-103.79 354.95,-103.79"/>
</g>
<!-- SettingsRoutingModule -->
<g id="node5" class="node">
<title>SettingsRoutingModule</title>
<polygon fill="#8dd3c7" stroke="black" points="323.79,-84.8 320.79,-88.8 299.79,-88.8 296.79,-84.8 174.21,-84.8 174.21,-48.8 323.79,-48.8 323.79,-84.8"/>
<text text-anchor="middle" x="249" y="-62.6" font-family="Times,serif" font-size="14.00">SettingsRoutingModule</text>
</g>
<!-- SettingsRoutingModule&#45;&gt;SettingsModule -->
<g id="edge4" class="edge">
<title>SettingsRoutingModule&#45;&gt;SettingsModule</title>
<path fill="none" stroke="black" d="M297.28,-84.91C297.28,-84.91 297.28,-103.79 297.28,-103.79"/>
<polygon fill="black" stroke="black" points="293.78,-103.79 297.28,-113.79 300.78,-103.79 293.78,-103.79"/>
</g>
</g>
</svg>
