<svg width="32" height="28" fill="none" xmlns="http://www.w3.org/2000/svg"><path fill-rule="evenodd" clip-rule="evenodd" d="M3.625.5A3.387 3.387 0 0 0 .25 3.875v20.25A3.387 3.387 0 0 0 3.625 27.5h24.75a3.387 3.387 0 0 0 3.375-3.375V3.875A3.387 3.387 0 0 0 28.375.5H3.625Zm0 2.25h24.75A1.11 1.11 0 0 1 29.5 3.875v16.348l-7.509-7.928a.5.5 0 0 0-.737.012l-4.032 4.54-6.402-6.75a.5.5 0 0 0-.736.013L2.5 18.65V3.874A1.11 1.11 0 0 1 3.625 2.75ZM22.75 5c-1.24 0-2.25 1.01-2.25 2.25s1.01 2.25 2.25 2.25S25 8.49 25 7.25 23.99 5 22.75 5Zm-12.252 8.024L22.091 25.25H3.625A1.11 1.11 0 0 1 2.5 24.125v-2.083l7.998-9.018Zm11.162 2.207 7.84 8.261v.633a1.11 1.11 0 0 1-1.125 1.125h-3.19l-6.408-6.768 2.883-3.252Z" fill="#EFF0F1"/></svg>