<svg width="14" height="14" fill="none" xmlns="http://www.w3.org/2000/svg"><path d="M11.168.75c-.533 0-1.07.2-1.472.606h-.004L1.86 9.321.777 12.576c-.133.4.248.78.648.647l3.25-1.087.09-.085 7.876-7.75a2.09 2.09 0 0 0 0-2.945A2.082 2.082 0 0 0 11.168.75Zm0 1.037c.265 0 .529.098.737.305.41.411.41 1.062 0 1.473l-.822.81a2.623 2.623 0 0 0-.586-.871 2.614 2.614 0 0 0-.875-.586l.814-.83c.203-.199.468-.305.732-.3Zm-2.233 2.01c.191.016.472.09.822.44.354.353.427.634.447.825.012.146-.008.167-.016.191l-5.382 5.292a2.662 2.662 0 0 0-.561-.797 2.617 2.617 0 0 0-.798-.557l5.297-5.378c.024-.012.045-.028.19-.016ZM2.73 10.053c.163.012.424.077.782.435.353.354.418.615.43.773 0 .02-.003.009 0 .025l-.992.33a2.931 2.931 0 0 0-.57-.565l.334-.998c.012.004 0 0 .016 0Z" fill="#5F6368"/></svg>