<svg width="218" height="55" fill="none" xmlns="http://www.w3.org/2000/svg"><g filter="url(#a)"><path d="M4 8a4 4 0 0 1 4-4h202a4 4 0 0 1 4 4v39a4 4 0 0 1-4 4H8a4 4 0 0 1-4-4V8Z" fill="#F3F8FF"/><path d="M4.5 8A3.5 3.5 0 0 1 8 4.5h202a3.5 3.5 0 0 1 3.5 3.5v39a3.5 3.5 0 0 1-3.5 3.5H8A3.5 3.5 0 0 1 4.5 47V8Z" stroke="#85B7FE"/></g><path d="M24.082 34h1.273l2.247-8.114h.08L29.929 34h1.273l2.784-10.182h-1.253l-2.128 8.293h-.1l-2.167-8.293h-1.392l-2.168 8.293h-.099l-2.128-8.293h-1.253L24.082 34Zm12.817.179c1.332 0 2.029-.716 2.267-1.213h.06V34h1.173v-5.031c0-2.426-1.85-2.705-2.824-2.705-1.153 0-2.466.398-3.062 1.79l1.113.398c.259-.557.87-1.154 1.99-1.154 1.078 0 1.61.572 1.61 1.551v.04c0 .567-.577.517-1.969.696-1.417.184-2.963.497-2.963 2.247 0 1.492 1.153 2.347 2.605 2.347Zm.18-1.054c-.935 0-1.612-.418-1.612-1.233 0-.895.816-1.173 1.73-1.293.498-.06 1.83-.198 2.029-.437v1.074c0 .954-.756 1.889-2.148 1.889Zm10.87-5.051c-.367-1.084-1.192-1.81-2.704-1.81-1.61 0-2.804.915-2.804 2.208 0 1.054.627 1.76 2.029 2.088l1.272.298c.771.179 1.134.547 1.134 1.074 0 .656-.696 1.193-1.79 1.193-.96 0-1.561-.413-1.77-1.233l-1.113.278c.273 1.298 1.342 1.99 2.903 1.99 1.775 0 2.983-.97 2.983-2.288 0-1.064-.666-1.735-2.029-2.068l-1.133-.278c-.905-.224-1.313-.527-1.313-1.114 0-.656.697-1.134 1.631-1.134 1.024 0 1.447.567 1.65 1.094l1.055-.298Zm9.165-1.71h-1.631v-1.83H54.31v1.83h-1.154v.994h1.154v4.773c0 1.332 1.073 1.968 2.068 1.968.437 0 .716-.08.875-.139l-.239-1.054c-.1.02-.258.06-.517.06-.517 0-1.014-.16-1.014-1.154v-4.454h1.63v-.994Zm3.102 3.042c0-1.332.85-2.088 2.008-2.088 1.104 0 1.77.696 1.77 1.91V34h1.174v-4.852c0-1.964-1.044-2.884-2.606-2.884-1.203 0-1.889.502-2.247 1.293h-.1v-3.739h-1.172V34h1.173v-4.594ZM67.314 34h1.173v-7.636h-1.173V34Zm.597-8.91c.457 0 .835-.357.835-.794 0-.438-.378-.796-.835-.796-.458 0-.835.358-.835.796 0 .437.377.795.835.795Zm8.135 2.984c-.368-1.084-1.194-1.81-2.705-1.81-1.61 0-2.804.915-2.804 2.208 0 1.054.626 1.76 2.028 2.088l1.273.298c.77.179 1.134.547 1.134 1.074 0 .656-.696 1.193-1.79 1.193-.96 0-1.561-.413-1.77-1.233l-1.114.278c.274 1.298 1.343 1.99 2.904 1.99 1.775 0 2.983-.97 2.983-2.288 0-1.064-.666-1.735-2.029-2.068l-1.133-.278c-.905-.224-1.313-.527-1.313-1.114 0-.656.696-1.134 1.63-1.134 1.025 0 1.448.567 1.651 1.094l1.055-.298Zm7.016 1.332c0-1.332.85-2.088 2.008-2.088 1.104 0 1.77.696 1.77 1.91V34h1.173v-4.852c0-1.964-1.044-2.884-2.605-2.884-1.203 0-1.889.502-2.247 1.293h-.1v-3.739h-1.173V34h1.174v-4.594Zm10.3 4.753c1.55 0 2.684-.776 3.042-1.929l-1.133-.318c-.299.795-.99 1.193-1.91 1.193-1.377 0-2.326-.89-2.38-2.525h5.542v-.498c0-2.843-1.69-3.818-3.28-3.818-2.069 0-3.441 1.63-3.441 3.977s1.352 3.918 3.56 3.918Zm-2.382-4.594c.08-1.188.92-2.247 2.262-2.247 1.273 0 2.088.955 2.088 2.247h-4.35Zm8.501-5.747h-1.173V34h1.173V23.818Zm2.15 13.046h1.173v-4.037h.099c.259.417.756 1.332 2.228 1.332 1.909 0 3.241-1.531 3.241-3.957 0-2.407-1.332-3.938-3.261-3.938-1.492 0-1.949.915-2.208 1.313h-.139v-1.213h-1.133v10.5Zm1.153-6.682c0-1.71.756-2.864 2.187-2.864 1.492 0 2.228 1.253 2.228 2.864 0 1.63-.756 2.923-2.228 2.923-1.412 0-2.187-1.193-2.187-2.923Zm10.778-3.818h-1.71v-.776c0-.756.318-1.153 1.094-1.153.338 0 .537.08.656.119l.338-1.014c-.179-.08-.537-.2-1.113-.2-1.094 0-2.148.657-2.148 1.97v1.054h-1.233v.994h1.233V34h1.173v-6.642h1.71v-.994Zm6.457 4.514c0 1.432-1.094 2.088-1.969 2.088-.974 0-1.67-.716-1.67-1.83v-4.772h-1.173v4.852c0 1.949 1.034 2.883 2.466 2.883 1.153 0 1.909-.616 2.267-1.392h.079V34h1.173v-7.636h-1.173v4.514Zm4.496-7.06h-1.174V34h1.174V23.818Zm3.68 7.318h1.193v-.06c.02-1.232.338-1.77 1.213-2.316.875-.532 1.392-1.298 1.392-2.396 0-1.552-1.133-2.685-2.883-2.685-1.611 0-2.889.994-2.963 2.685h1.253c.074-1.174.894-1.65 1.71-1.65.934 0 1.69.616 1.69 1.59 0 .79-.452 1.357-1.034 1.71-.974.592-1.556 1.169-1.571 3.063v.06Zm.636 2.944a.897.897 0 0 0 .895-.895.897.897 0 0 0-.895-.895.898.898 0 0 0-.895.895c0 .492.403.895.895.895ZM190.915 22c.051 0 .1.006.147.019L191.06 22h2.771v9.333h-2.5l-2.161 3.561c-.463.714-1.041 1.106-1.755 1.106a1.751 1.751 0 0 1-1.713-2.096l.04-.168.42-1.236h-4.606a1.75 1.75 0 0 1-1.742-1.581l-.008-.169c0-.449.169-.858.447-1.168a1.749 1.749 0 0 1 .163-2.494 1.752 1.752 0 0 1 .719-2.604 1.751 1.751 0 0 1 1.419-2.476l.168-.008h8.193Zm-7.584 7v1.167h-1.775a.584.584 0 0 0-.105 1.157l.105.01h5.421c.367 0 .633.33.576.676l-.024.095-.674 1.981a.584.584 0 0 0 .56.747c.235 0 .449-.125.671-.421l.096-.138 2.149-3.543v-7.564h-7.609a.585.585 0 0 0-.574.478l-.009.105c0 .286.207.524.479.574l.104.01h.609V25.5h-1.484a.583.583 0 0 0-.104 1.157l.104.01h1.484v1.166h-1.775a.584.584 0 0 0-.105 1.158l.105.009h1.775Zm8.167 1.167h1.167v-7h-1.167v7Zm-31.692-.584c0-.45-.173-.856-.448-1.166.275-.31.448-.717.448-1.167 0-.965-.773-1.75-1.723-1.75h-4.535l.422-1.26c.128-.45.078-.922-.144-1.331a1.722 1.722 0 0 0-1.028-.839c-.809-.235-1.627.121-2.219 1.05l-2.119 3.547H146V36h2.727v-.03c.046.014.092.03.144.03h8.064c.949 0 1.722-.785 1.722-1.75a1.76 1.76 0 0 0-.165-.736 1.752 1.752 0 0 0 .706-2.608 1.75 1.75 0 0 0 .608-1.323Zm-12.658-1.75h1.149v7h-1.149v-7Zm9.787 7h-7.49v-7.566l2.106-3.525c.367-.575.656-.575.765-.575a.58.58 0 0 1 .559.723l-.672 2.007a.587.587 0 0 0 .076.526.573.573 0 0 0 .468.244h5.336a.58.58 0 0 1 .574.583.58.58 0 0 1-.574.583h-1.722V29h1.722a.58.58 0 0 1 .574.583.58.58 0 0 1-.574.584h-1.722v1.166h1.435a.58.58 0 0 1 .574.584.58.58 0 0 1-.574.583h-1.435v1.167h.574a.58.58 0 0 1 .574.583.58.58 0 0 1-.574.583Z" fill="#202124"/><defs><filter id="a" x="0" y="0" width="218" height="55" filterUnits="userSpaceOnUse" color-interpolation-filters="sRGB"><feFlood flood-opacity="0" result="BackgroundImageFix"/><feColorMatrix in="SourceAlpha" values="0 0 0 0 0 0 0 0 0 0 0 0 0 0 0 0 0 0 127 0" result="hardAlpha"/><feOffset/><feGaussianBlur stdDeviation="2"/><feColorMatrix values="0 0 0 0 0.0509804 0 0 0 0 0.431373 0 0 0 0 0.992157 0 0 0 0.2 0"/><feBlend in2="BackgroundImageFix" result="effect1_dropShadow_467_2320"/><feBlend in="SourceGraphic" in2="effect1_dropShadow_467_2320" result="shape"/></filter></defs></svg>