<svg width="18" height="18" fill="none" xmlns="http://www.w3.org/2000/svg"><path d="M4.558 7.126a1.269 1.269 0 1 1 2.537-.002 1.269 1.269 0 0 1-2.537.002Zm6.346 0a1.269 1.269 0 1 1 2.537-.001 1.269 1.269 0 0 1-2.537 0Zm-5.726 4.691a.677.677 0 0 1-.206-.466.67.67 0 0 1 .413-.646.667.667 0 0 1 .751.154 4.058 4.058 0 0 0 2.87 1.186 4.058 4.058 0 0 0 2.869-1.186.677.677 0 1 1 .958.958 5.419 5.419 0 0 1-7.655 0Z" fill="#202124"/><path fill-rule="evenodd" clip-rule="evenodd" d="M.75 9C.75 4.454 4.454.75 9 .75c4.546 0 8.25 3.704 8.25 8.25 0 4.546-3.704 8.25-8.25 8.25C4.454 17.25.75 13.546.75 9Zm15.23 0A6.972 6.972 0 0 0 9 2.02 6.972 6.972 0 0 0 2.02 9 6.972 6.972 0 0 0 9 15.98 6.972 6.972 0 0 0 15.98 9Z" fill="#202124"/></svg>