<svg width="22" height="22" viewBox="0 0 22 22" fill="none" xmlns="http://www.w3.org/2000/svg">
<path d="M22 5.86667V20.5333C22 20.9223 21.8454 21.2953 21.5704 21.5704C21.2953 21.8454 20.9223 22 20.5333 22H5.86667C4.31076 22 2.81848 21.3819 1.71826 20.2817C0.618144 19.1815 0 17.6892 0 16.1333V5.86667C0 4.31076 0.618144 2.81848 1.71826 1.71826C2.81848 0.618144 4.31076 0 5.86667 0H16.1333C17.6892 0 19.1815 0.618144 20.2817 1.71826C21.3819 2.81848 22 4.31076 22 5.86667Z" fill="#E6B415"/>
<path d="M16.8697 15.3994L14.5597 13.0894C15.1139 12.2525 15.4074 11.27 15.403 10.2661C15.403 9.25082 15.102 8.25834 14.5379 7.41422C13.9739 6.5701 13.1721 5.91213 12.2341 5.52357C11.2961 5.13502 10.2641 5.03337 9.2683 5.23148C8.27255 5.42948 7.3578 5.91845 6.63992 6.63632C5.92205 7.3542 5.43308 8.26895 5.23508 9.2647C5.03697 10.2605 5.13862 11.2925 5.52717 12.2305C5.91573 13.1686 6.57358 13.9703 7.41782 14.5343C8.26194 15.0984 9.25443 15.3994 10.2697 15.3994C11.2736 15.4038 12.2561 15.1103 13.093 14.5561L15.403 16.8661C15.5975 17.0606 15.8613 17.1699 16.1364 17.1699C16.4114 17.1699 16.6752 17.0606 16.8697 16.8661C17.0642 16.6716 17.1735 16.4078 17.1735 16.1328C17.1735 15.8577 17.0642 15.5939 16.8697 15.3994ZM13.489 12.0188C13.1496 12.6371 12.6407 13.146 12.0224 13.4854C11.4856 13.7807 10.8824 13.9346 10.2697 13.9328C9.54449 13.9328 8.83564 13.7177 8.23261 13.3148C7.6297 12.912 7.15969 12.3393 6.88215 11.6694C6.60461 10.9993 6.53207 10.262 6.67354 9.55081C6.81502 8.83959 7.1642 8.18625 7.67697 7.67348C8.18985 7.1606 8.84319 6.81142 9.55442 6.66994C10.2656 6.52847 11.0029 6.60112 11.6728 6.87855C12.3429 7.15609 12.9156 7.6261 13.3184 8.22901C13.7213 8.83203 13.9364 9.541 13.9364 10.2661C13.9382 10.8788 13.7843 11.482 13.489 12.0188Z" fill="white"/>
<path d="M10.7909 10.7868C10.6883 10.8902 10.5573 10.9607 10.4145 10.9894C10.2717 11.0181 10.1235 11.0035 9.98904 10.9477C9.85445 10.8918 9.7396 10.7972 9.65915 10.6758C9.5786 10.5544 9.53607 10.4118 9.53686 10.2661C9.53686 10.0716 9.45957 9.88512 9.32205 9.74759C9.18452 9.61006 8.99803 9.53278 8.80352 9.53278C8.60902 9.53278 8.42253 9.61006 8.285 9.74759C8.14747 9.88512 8.07019 10.0716 8.07019 10.2661C8.07064 10.7009 8.19982 11.1259 8.44159 11.4874C8.68337 11.8488 9.02679 12.1305 9.42855 12.2968C9.8303 12.4632 10.2723 12.5067 10.6989 12.422C11.1254 12.3373 11.5172 12.1281 11.8249 11.8208C11.945 11.6805 12.0079 11.5 12.0006 11.3155C11.9935 11.1309 11.917 10.9558 11.7864 10.8252C11.6559 10.6946 11.4808 10.6181 11.2962 10.611C11.1116 10.6039 10.9312 10.6666 10.7909 10.7868Z" fill="white"/>
</svg>
