<svg width="150" height="132" fill="none" xmlns="http://www.w3.org/2000/svg"><g clip-path="url(#a)"><path d="M47.79 131.303s.541-18.844 20.307-34.45c13.699-10.814 37.347-21.64 46.208-46.467 5.58-15.635 5.028-31.142 15.778-38.852 3.224-2.312 6.154-3.973 10.093-5.335 3.688-1.276 9.532-2.271 9.532-2.271s-3.145-2.144-8.768-2.932c-16.565-2.32-36.98 1.45-45.212 5.611-4.777 2.415-7.597 6.682-9.5 10.496-3.128 6.266-3.634 15.934-3.765 19.553-.116 3.189-1.588 8.36-8.555 13.426-10.882 7.915-28.215 15.092-38.714 21.621C9.148 87.901 4.052 105.14.292 119.068c25.915 3.438 47.497 12.235 47.497 12.235Z" fill="#fff"/><path d="M47.789 131.591a.274.274 0 0 1-.108-.022c-.216-.087-21.848-8.823-47.427-12.216a.288.288 0 0 1-.24-.36c1.65-6.111 3.909-14.48 9.127-22.908 5.771-9.322 14.243-17.377 25.9-24.627 4.351-2.705 9.818-5.494 15.606-8.447C58.87 58.817 67.373 54.48 73.74 49.85c6.754-4.913 8.316-9.892 8.436-13.204.31-8.515 1.623-15.317 3.796-19.671 1.649-3.305 4.441-8.002 9.627-10.624 4.26-2.153 11.576-4.121 19.57-5.264 9.093-1.3 18.26-1.433 25.812-.375 5.625.788 8.759 2.89 8.89 2.979a.288.288 0 0 1-.114.52c-.058.01-5.863 1.007-9.486 2.26-3.611 1.249-6.514 2.784-10.019 5.298-7.249 5.199-9.287 13.947-11.647 24.076-1.107 4.749-2.251 9.66-4.028 14.638-3.094 8.67-8.241 16.395-15.734 23.615-6.51 6.272-13.885 11.295-20.391 15.727-3.691 2.514-7.178 4.889-10.175 7.255-10.15 8.013-15.1 16.892-17.467 22.93-2.565 6.545-2.73 11.256-2.732 11.303a.286.286 0 0 1-.288.279ZM.655 118.826c23.676 3.186 43.908 10.899 46.872 12.063.099-1.29.574-5.538 2.736-11.064 2.391-6.111 7.395-15.096 17.656-23.197 3.014-2.38 6.508-4.76 10.208-7.28 6.488-4.418 13.84-9.427 20.316-15.666 7.428-7.157 12.527-14.809 15.591-23.393 1.766-4.948 2.906-9.842 4.009-14.576 2.387-10.242 4.448-19.088 11.872-24.413 3.554-2.549 6.5-4.106 10.167-5.374 2.878-.995 7.098-1.827 8.812-2.145-1.185-.645-3.95-1.934-7.994-2.5-7.5-1.051-16.609-.918-25.65.374-7.935 1.135-15.185 3.082-19.392 5.208-5.034 2.545-7.76 7.136-9.373 10.367-2.136 4.282-3.428 11.002-3.735 19.436-.125 3.44-1.731 8.6-8.672 13.648-6.403 4.657-14.926 9.005-23.17 13.21-5.776 2.947-11.233 5.73-15.562 8.423C9.078 88.283 4.149 105.887.656 118.826Z" fill="#5B2448"/><path d="M111.307 43.152h-.001l-27.083-.104a.288.288 0 0 1 .003-.575l27.082.104a.288.288 0 0 1-.001.575Zm-2.038 4.203h-.001l-27.082-.104a.288.288 0 0 1 0-.575h.002l27.083.104a.288.288 0 0 1-.002.575Z" fill="#5B2448"/><path d="M99.317 50.425 98.33 52.2a34.062 34.062 0 0 1-7.044 8.803l-2.167 1.938a.271.271 0 0 1-.266.094L68.11 58.737a.336.336 0 0 1-.128-.601l1.817-1.037a47.86 47.86 0 0 0 9.558-7.166l.093-.09a.386.386 0 0 1 .23-.073l19.43.213a.271.271 0 0 1 .207.442Z" fill="#9B3C82"/><path d="M90.235 70.927a.293.293 0 0 1-.073-.01L60.273 63.11a.288.288 0 0 1 .146-.557l29.889 7.809a.288.288 0 0 1-.073.566Zm-7.434 4.09a.286.286 0 0 1-.082-.012l-29.356-8.752a.288.288 0 0 1 .164-.552l29.356 8.753a.288.288 0 0 1-.082.563Zm-7.218 3.994A.286.286 0 0 1 75.5 79l-29.355-8.752a.288.288 0 0 1 .164-.552l29.356 8.753a.288.288 0 0 1-.082.563Zm-29.89 39.679a.295.295 0 0 1-.092-.015l-6.983-2.358a155.75 155.75 0 0 0-24.376-6.09l-7.568-1.251a.288.288 0 0 1 .094-.568l7.568 1.251a156.419 156.419 0 0 1 24.467 6.113l6.982 2.358a.287.287 0 0 1-.092.56Zm67.004-79.74h-.001l-27.083-.105a.288.288 0 0 1 .001-.575h.001l27.083.104a.288.288 0 0 1-.001.575Z" fill="#5B2448"/><path d="M34.883 117.922a1.079 1.079 0 0 1-1.078-1.049l-.199-7.1a1.079 1.079 0 0 1 2.157-.06l.112 4.007 6.912-9.227a1.079 1.079 0 0 1 1.727 1.293l-8.768 11.704c-.207.277-.53.432-.863.432Z" fill="#F94F46"/></g><defs><clipPath id="a"><path fill="#fff" d="M0 0h150v131.592H0z"/></clipPath></defs></svg>