<svg width="180" height="180" fill="none" xmlns="http://www.w3.org/2000/svg"><g clip-path="url(#a)"><path d="M13.608 169.992c4.533 0 8.208-.951 8.208-2.124s-3.675-2.124-8.208-2.124-8.208.951-8.208 2.124 3.675 2.124 8.208 2.124Z" fill="#5B2448"/></g><g clip-path="url(#b)"><path d="m172.807 27.205.065 100.188s-.065.014-.065.022l-.505 2.19c-.901 1.512-2.342 2.694-4.23 2.694l-65.842.043c-.872 0-1.441-.079-2.205-.497a4.998 4.998 0 0 1-1.117-.865c-.973-.965-1.434-1.988-1.434-3.364l-.05-46.694-.101-53.53 75.484-.187Z" fill="#fff"/><path d="m173.174 29.287-.007-5.82a5.181 5.181 0 0 0-5.182-5.18l-54.425.043v.03l-11.329.006a5.186 5.186 0 0 0-5.175 5.187l.007 5.792.03 51.462.028 46.788c0 1.376.548 2.694 1.52 3.659a5.123 5.123 0 0 0 3.669 1.513l65.755-.079a5.174 5.174 0 0 0 5.174-5.18l-.065-98.221Zm-.67 98.214a4.454 4.454 0 0 1-4.446 4.452l-54.498.043v.036h-11.257a4.45 4.45 0 0 1-4.454-4.444l-.058-97.026c0-.62.497-1.117 1.117-1.117l61.136-.028v-.022l11.285-.007c.62 0 1.117.497 1.117 1.116l.058 96.997Z" fill="#66B0F0"/><path d="M168.758 24.592a1.492 1.492 0 1 0-2.614-1.438 1.492 1.492 0 0 0 2.614 1.438Zm-5.068.002a1.491 1.491 0 1 0-2.612-1.439 1.491 1.491 0 0 0 2.612 1.439Zm-5.071.008a1.491 1.491 0 1 0-2.612-1.44 1.491 1.491 0 0 0 2.612 1.44Zm-4.449 97.69a.569.569 0 1 0 0-1.137.569.569 0 0 0 0 1.137Zm4.778 0a.568.568 0 1 0 .002-1.136.568.568 0 0 0-.002 1.136Z" fill="#fff"/><rect x="110.5" y="77.5" width="50" height="9" rx="1.5" fill="#C2E3FF" stroke="#66B0F0"/><rect width="20" height="3" rx="1.5" transform="matrix(1 0 0 -1 110 74)" fill="#C2E3FF"/><rect width="20" height="3" rx="1.5" transform="matrix(1 0 0 -1 110 97)" fill="#C2E3FF"/><rect x="110.5" y="99.5" width="50" height="9" rx="1.5" fill="#C2E3FF" stroke="#66B0F0"/><g clip-path="url(#c)"><path d="M141.264 115.364a7.005 7.005 0 0 0-9.9 0 7.004 7.004 0 0 0 0 9.899 7.005 7.005 0 0 0 9.9 0 7.006 7.006 0 0 0 0-9.899Zm-4.95 8.757-.762-.761 2.502-2.502-5.509-.006v-1.077l5.521.006-2.514-2.513.762-.762 3.807 3.808-3.807 3.807Z" fill="#C2E3FF"/></g><circle cx="116" cy="104" r="2" fill="#66B0F0"/><circle cx="123" cy="104" r="2" fill="#66B0F0"/><circle cx="130" cy="104" r="2" fill="#66B0F0"/><circle cx="137" cy="104" r="2" fill="#66B0F0"/><path d="m115.25 80.364.733 1.239h.029l.737-1.24h.868l-1.11 1.819L117.642 84h-.884l-.746-1.241h-.029L115.238 84h-.881l1.138-1.818-1.117-1.818h.872Zm7 0 .733 1.239h.029l.737-1.24h.868l-1.11 1.819L124.642 84h-.884l-.746-1.241h-.029L122.238 84h-.881l1.138-1.818-1.117-1.818h.872Zm7 0 .733 1.239h.029l.737-1.24h.868l-1.11 1.819L131.642 84h-.884l-.746-1.241h-.029L129.238 84h-.881l1.138-1.818-1.117-1.818h.872Zm7 0 .733 1.239h.029l.737-1.24h.868l-1.11 1.819L138.642 84h-.884l-.746-1.241h-.029L136.238 84h-.881l1.138-1.818-1.117-1.818h.872Z" fill="#66B0F0"/></g><path d="M135 39c-7.164 0-13 5.836-13 13s5.836 13 13 13 13-5.836 13-13-5.836-13-13-13Zm0 2c6.086 0 11 4.914 11 11 0 2.68-.953 5.125-2.531 7.031a9.043 9.043 0 0 0-5.094-5.367A4.978 4.978 0 0 0 140 50c0-2.75-2.25-5-5-5s-5 2.25-5 5c0 1.445.633 2.75 1.625 3.664a9.033 9.033 0 0 0-5.086 5.367A10.943 10.943 0 0 1 124 52c0-6.086 4.914-11 11-11Zm0 6c1.672 0 3 1.328 3 3s-1.328 3-3 3a2.98 2.98 0 0 1-3-3c0-1.672 1.328-3 3-3Zm0 8c3.399 0 6.188 2.414 6.836 5.617A10.954 10.954 0 0 1 135 63a10.91 10.91 0 0 1-6.828-2.383C128.813 57.414 131.602 55 135 55Z" fill="#6CE0DC"/><g clip-path="url(#d)"><path d="m86.077 68.32 9.005-21.195 11.657.173-9.062 21.196-11.6-.173Z" fill="#66B0F0"/><path d="M107.28 47.146a.452.452 0 0 0-.454-.454l-11.716-.108a.458.458 0 0 0-.418.274l-9.12 21.318a.51.51 0 0 0-.036.209v.029c0 .252.202.454.454.454l11.716.108c.18 0 .346-.108.418-.274l9.12-21.318a.509.509 0 0 0 .036-.209v-.029Zm-11.752.346 10.613.108-8.853 20.468-10.613-.108 8.853-20.468Z" fill="#5B2448"/></g><g clip-path="url(#e)"><path d="M47.968 141.836c-2.21 2.047.064 6.809 9.594 7.321 7.722.42 13.747-2.358 13.747-2.358s-18.375-9.57-23.341-4.963Z" fill="#5B2448"/><path d="M72.003 142.402c-.146 1.134-.83 5.256-1.095 6.764-.073.411-.146.832-.229 1.252-.09.485-2.546 2.029-2.647 2.523-.547 2.851 1.196 4.707.703 6.718-.01.009-.584.594-1.698 1.17l-.11.054c-1.268.631-2.902 1.225-4.199 1.033-.93-.137-3.021-4.286-3.13-4.716v-.073c.082-1.938.894-3.821.858-5.585-.01-.493-.822-.978-.84-1.453-.037-.914.155-6.599-.019-7.678l12.406-.009Z" fill="#FCB6B1"/><path d="M59.68 151.524c0 .173.009.347.009.53l10.625.32c.128-.658.256-1.307.375-1.956l-11.046-.348c.01.476.027.96.037 1.454Zm.018 2.03c0 1.151-.028 2.34-.082 3.555v.073c.11.43 2.209 4.58 3.13 4.717l4.2-1.033.11-.055c1.113-.567 1.688-1.152 1.697-1.17.42-1.746.95-4.168 1.443-6.645l-10.49-.31c-.008.292-.008.575-.008.868Z" fill="#66B0F0"/><path d="m59.698 152.694 10.488.311c.046-.21.083-.42.128-.63l-10.625-.32c0 .21.009.42.009.639Z" fill="#fff"/><path d="M59.661 147.374s8.344 1.27 11.657-.576c-.292-.091-11.657-2.751-11.657-2.751v3.327Z" fill="#9B3C82"/><path d="M18.765 127.715c-1.177.183-3.788 2.925 2.657 10.237 6.29 7.138 10.671 7.165 11.045 6.946.356-.228-6.189-17.183-13.702-17.183Z" fill="#5B2448"/><path d="M35.553 142.723c-.922.676-4.354 3.053-5.632 3.903-3.04 2.038-6.692 4.332-9.047 5.712-.009.009-.83-.009-2.017-.411a.421.421 0 0 0-.119-.037c-1.333-.484-2.894-1.243-3.651-2.312-.539-.768.986-5.146 1.223-5.53l.055-.055c.748-.667 1.479-1.334 2.181-1.992.649-.622 2.666.877 2.666.877s-.1-3.409.228-3.747c.63-.658 4.857-4.47 5.514-5.338l8.599 8.93Z" fill="#FCB6B1"/><path d="m16.374 143.993-.055.055c-.237.383-1.762 4.762-1.223 5.529l3.651 2.313c.037.009.082.018.119.036 1.068.366 1.844.412 1.99.412h.027a162.985 162.985 0 0 0 5.779-3.574l-7.048-7.787a96.993 96.993 0 0 1-3.24 3.016Zm3.679-3.455 7.138 7.878c.557-.365 1.114-.722 1.662-1.087l-7.404-8.208c-.328.347-.675.686-1.022 1.042-.119.128-.247.247-.374.375Z" fill="#66B0F0"/><path d="m19.605 140.986 7.048 7.787c.182-.119.356-.229.538-.347l-7.138-7.879a18.39 18.39 0 0 0-.448.439Z" fill="#fff"/><path d="m63.526 25.29-4.03-1.218s-4.967 6.709-8.22 8.148c-3.451 1.532-6.08 1.09-10.966 1.729-5.894.766-9.842 5.803-9.564 11.687.162 3.436-.36 5.06-1.274 6.465-.718 1.102-2.57 3.4-3.103 4.364-7.804 14.31 6.276 23.56 15.678 21.517.162-.035.347.174.498.128.231-.058.428-.371.648-.441.046-.012.07-.058.093-.105.37-.789 4.122-8.832 5.57-16.097.01-.035.022-.081.045-.105 6.056-7.509 12.02-19.95 13.258-27.378l2.247-.488c.335-3.737.104-6.72-.88-8.205Z" fill="#5B2448"/><path d="M77.142 26.997c-.266-.185-.532-.406-.671-.696-.14-.302-.186-.708-.232-1.033-.035-.255-.07-.499-.093-.754-.034-.348-.069-.708-.115-1.056v-.012a18.213 18.213 0 0 0-.128-.778 12.926 12.926 0 0 0-.776-2.46c-.613-1.37-1.597-2.519-2.86-3.261a5.718 5.718 0 0 0-.845-.418 7.978 7.978 0 0 0-.74-.256 8.256 8.256 0 0 0-2.768-.255h-.012c-.058 0-.115.012-.185.012-2.698.232-4.574 1.799-5.535 3.76 0 0 0 .012-.011.012-.926 1.903-.996 4.178-.116 5.988.012.024.023.058.046.082 0 0 0 .011.012.011 0 .012.011.023.011.035.024 0 .151.012.174.012.023 0 .046.011.07.011.011 0 1.922.128 2.2.14.058 0 .104.011.162 0-.209.684-1.587 2.68-1.621 2.773-.035.07-.081.151-.14.267-.96 1.857-5.742 8.496-6.298 9.041-.429.43.52 5.873.52 5.873 5.802 3.308 9.333-1.184 9.333-1.184-.243-2.832 1.587-6.337 2.189-7.288.579-.917.984-1.985 1.216-1.985.127.035.266.081.416.128 1.216.394 3.069.998 3.787.708 2.003-.79 2.246-4.84 2.397-6.117.498-.197 1.192-.917.613-1.3Z" fill="#F4ADA2"/><path d="M76.123 24.525c-5.13 1.88-9.853 1.59-9.853 1.59l6.796-1.845 2.745-.755.196-.058v.012c.047.348.081.708.116 1.056Z" fill="#9B3C82"/><path opacity=".52" d="M71.685 29.397a1.526 1.526 0 0 0-1.257-1.752 1.523 1.523 0 0 0-1.739 1.274c-.133.835.43 1.62 1.258 1.752a1.523 1.523 0 0 0 1.738-1.274Z" fill="#E57281"/><path d="M70.345 33.695c-.498.417-.845.824-1.644 1.868-1.563-.79-2.246-2.39-1.91-2.75.3-.337.984 0 1.412.15.822.314 1.147.43 2.142.732Zm2.177-9.03c-.868.313-1.32 1.08-1.123 1.486.197.406 1.054.429 1.853-.047.81-.476 1.32-1.126 1.123-1.485-.209-.36-.996-.267-1.853.046Z" fill="#5B2448"/><path d="M74.803 30.933a.835.835 0 0 1-.37.093 1.019 1.019 0 0 1-.37-.047 1.213 1.213 0 0 1-.626-.383 1.473 1.473 0 0 1-.208-.313 1.264 1.264 0 0 1-.093-.36c-.035-.244.035-.5.174-.708.046-.07.139-.081.208-.035.046.035.07.093.058.151a1.04 1.04 0 0 0-.012.5.814.814 0 0 0 .093.231c.035.07.081.14.139.198.116.127.255.22.417.29.15.07.324.093.498.08h.011c.081-.01.15.047.162.129 0 .08-.034.15-.08.174Z" fill="#9B3C82"/><path d="M73.182 26.718c.348-.186 1.193-.615 1.9-1.277a.228.228 0 0 1 .335.012c.231.255.544.743.011 1.126-.66.476-1.91.592-2.257.348a.116.116 0 0 1-.035-.163l.046-.046Z" fill="#5B2448"/><path d="M62.055 26s-11.59-3.54-10.954-5.687c.336-1.149 6.994-.824 9.877-.615.764.058 1.25.093 1.25.093l-.185 6.163.012.046Z" fill="#F94F46"/><path d="M62.113 26.046c-.278-.151-2.142-2.878-1.123-6.337.764.058 1.25.093 1.25.093l-.127 6.244Z" fill="#5B2448"/><path d="M76.007 23.47c-.266.138-.625.313-.937.452h-.012c-.51.22-1.123.452-1.806.685-.058.023-.116.034-.15.046-2.224.754-5.026 1.45-6.82 1.44-.603 0-1.112-.012-1.564-.024-.058 0-.104-.012-.162 0-.278-.012-.521-.023-.741-.023h-.093s-.335-.023-.405-.023c-.023 0-.058 0-.08-.012-.29-.023-.522-.046-.707-.058-.035 0-.058-.012-.081-.012s-.382.058-.382.058c-2.235-4.26.266-9.505 5.65-9.97.058 0 .116-.01.185-.01h.012a8.256 8.256 0 0 1 2.767.254c2.027.57 3.59 2.032 4.435 3.935.058.128.116.267.174.406.254.673.463 1.358.613 2.066.023.267.07.522.104.79Z" fill="#F94F46"/><path d="m66.27 26.115-.209 4.166a5.725 5.725 0 0 1-1.737-.603l-.08-.047a6.174 6.174 0 0 1-.857-.591 1.957 1.957 0 0 1-.278-.256c-.985-.952-1.286-2.02-1.042-2.774a.56.56 0 0 1 .046-.127s0-.012.011-.012c.174-.395.521-.696.996-.824 1.668-.453 3 .905 3.15 1.068 0 0 0-.012 0 0Z" fill="#F4ADA2"/><path d="M76.007 23.468c-.266.14-.625.314-.937.453h-.012c-.51.22-1.123.453-1.806.685-.058.023-.116.035-.15.046-.314-.603-.464-1.776-.082-2.565.382-.789 1.135-1.323 2.246-1.474.255.673.464 1.358.614 2.066.046.267.093.522.127.79Z" fill="#5B2448"/><path d="M63.526 26.475c-.082 0-.151.07-.163.162 0 .093.07.163.163.163.069 0 1.597.011 2.315 1.706a.156.156 0 0 0 .07.08.194.194 0 0 0 .139.013.158.158 0 0 0 .08-.21c-.798-1.914-2.581-1.914-2.604-1.914Zm.787 3.19a.089.089 0 0 1-.023.058.17.17 0 0 1-.22.07 15 15 0 0 1-1.123-.685c.034-.093.162-.313.162-.313s.173.14.29.209c.22.162.485.325.821.499.07.046.104.104.093.162Z" fill="#9B3C82"/><path d="M59.58 155.261s-1.032 7.806-1.434 13.043l20.055.347s3.725-.274 4.975-1.974c0 0-2.766-6.361-11.602-8.482-4.099-.987-7.001 1.344-9.658-1.691-1.296-1.489-2.337-1.243-2.337-1.243Z" fill="#fff"/><path d="M77.499 168.844h-.201l-19.152-.329c-.119 0-.21-.1-.21-.21v-.009c.393-5.192 1.424-12.979 1.442-13.052a.2.2 0 0 1 .229-.183.2.2 0 0 1 .182.229v.009c-.009.073-1.013 7.641-1.415 12.805l18.933.329a10.853 10.853 0 0 0 3.012-.366c1.233-.338 2.127-.822 2.62-1.407-.2-.43-1.04-2.066-2.82-3.775-1.909-1.837-5.323-4.15-10.754-4.735-.119-.018-.2-.118-.183-.237.01-.11.12-.192.229-.183 5.559.603 9.055 2.971 11.009 4.862 2.126 2.048 2.92 3.931 2.957 4.013a.2.2 0 0 1-.027.201c-.53.713-1.506 1.28-2.921 1.664a11.8 11.8 0 0 1-2.93.374Z" fill="#5B2448"/><path d="M62.455 163.663c.776.137 1.323.576 1.898 1.033.585.466 1.187.941 2.063 1.133.713.155 1.26.027 1.79-.091.41-.092.794-.183 1.223-.128.237.027.666.201 1.214.429 1.397.567 3.651 1.472 6.29 1.472 1.807 0 3.788-.43 5.787-1.682a9.585 9.585 0 0 0-.22-.356c-4.755 2.979-9.42 1.096-11.702.173-.593-.237-1.022-.411-1.314-.457-.502-.064-.95.037-1.37.137-.502.119-.986.229-1.606.092-.776-.165-1.315-.594-1.89-1.051-.593-.467-1.205-.96-2.081-1.115-1.67-.302-3.177.466-4.008 1.023l-.054.558c.657-.494 2.245-1.481 3.98-1.17Zm-2.301-1.399c.657 0 1.415-.173 2.319-.85.183-.137.356-.283.538-.438.603-.512 1.224-1.052 2.146-1.097h.009c.118-.009.2-.11.192-.22a.205.205 0 0 0-.22-.192c-1.059.064-1.77.668-2.391 1.198a9.709 9.709 0 0 1-.511.42c-1.297.969-2.237.795-3.058.649-.128-.018-.247-.045-.366-.064-.018.137-.027.274-.045.421l.337.055a5 5 0 0 0 1.05.118Z" fill="#5B2448"/><path d="M61.916 167.602c-1.205 0-2.154-.567-2.154-1.279 0-.722.95-1.28 2.154-1.28 1.205 0 2.154.567 2.154 1.28 0 .712-.94 1.279-2.154 1.279Zm0-2.148c-.822 0-1.734.357-1.734.859 0 .503.912.86 1.734.86s1.735-.357 1.735-.86c0-.502-.913-.859-1.735-.859Z" fill="#5B2448"/><path d="M69.274 162.382a.507.507 0 0 1-.466-.695c.046-.11 1.178-2.751 4.491-3.903a.5.5 0 0 1 .64.311.5.5 0 0 1-.311.64c-2.867.996-3.88 3.318-3.889 3.345a.493.493 0 0 1-.465.302Zm2.282.778a.507.507 0 0 1-.502-.503c0-.073.018-.155.055-.219.054-.119 1.433-2.861 4.673-3.72a.5.5 0 0 1 .621.347.5.5 0 0 1-.347.622c-.009 0-.018 0-.018.009-2.803.74-4.007 3.162-4.026 3.19a.527.527 0 0 1-.456.274Zm2.574.594a.507.507 0 0 1-.502-.503c0-.082.018-.165.064-.238.055-.109 1.46-2.605 4.208-3.043a.504.504 0 0 1 .155.996c-2.273.365-3.478 2.513-3.487 2.532a.5.5 0 0 1-.438.256Z" fill="#FFCF2D"/><path d="M18.181 142.156s-6.052 3.373-10.771 5.585l9.512 17.53s2.063 3.081 4.144 3.336c0 0 4.135-5.511 1.652-14.194-1.16-4.022-4.09-5.201-3.487-9.158.256-1.709-1.05-3.099-1.05-3.099Z" fill="#fff"/><path d="M21.066 168.817h-.027c-.877-.11-1.845-.686-2.867-1.709-.74-.75-1.36-1.6-1.862-2.523L7.218 147.85a.21.21 0 0 1 .082-.284s.01 0 .01-.009c4.655-2.184 10.698-5.548 10.753-5.584a.209.209 0 0 1 .2.365c-.064.037-5.942 3.309-10.58 5.503l8.983 16.543a10.587 10.587 0 0 0 1.79 2.422c.894.896 1.752 1.435 2.491 1.572.283-.42 1.36-2.111 1.981-4.643.666-2.696.94-6.919-1.515-11.745-.055-.1-.01-.228.091-.283.1-.055.228-.009.283.091 2.51 4.954 2.227 9.287 1.543 12.056-.74 2.998-2.063 4.798-2.118 4.881-.018.055-.082.082-.146.082Z" fill="#5B2448"/><path d="M13.517 149.202c.255.74.155 1.425.036 2.147-.119.732-.237 1.49.027 2.34.21.686.594 1.097.959 1.499.283.311.548.594.712.997.091.219.146.676.228 1.261.329 2.495 1.004 7.595 6.089 10.356.064-.11.128-.238.2-.366-4.901-2.66-5.559-7.614-5.878-10.036-.082-.63-.146-1.087-.256-1.362-.191-.466-.492-.804-.785-1.124-.347-.384-.675-.74-.867-1.343-.237-.759-.128-1.435-.018-2.148.119-.741.237-1.508-.055-2.349-.602-1.71-2.173-2.651-3.04-3.062-.155.082-.32.164-.474.247.666.274 2.5 1.169 3.122 2.943Zm-.439-3.947c.329.795.676 1.608 2.173 2.203.164.064.338.128.52.192.785.274 1.589.557 2.118 1.371.037.064.11.1.174.1.036 0 .082-.009.11-.036a.21.21 0 0 0 .063-.293c-.602-.941-1.515-1.261-2.328-1.545-.173-.064-.347-.118-.502-.182-1.333-.531-1.616-1.207-1.944-1.984l-.055-.128v-.009a.196.196 0 0 0-.274-.1.196.196 0 0 0-.1.274l.045.137Z" fill="#5B2448"/><path d="M11.6 152.008c-.575 0-1.27-.512-1.744-1.344a3.202 3.202 0 0 1-.429-1.444c-.01-.494.164-.868.484-1.051.32-.183.72-.137 1.15.128a3.01 3.01 0 0 1 1.013 1.106 3.2 3.2 0 0 1 .43 1.444c.008.493-.165.868-.484 1.051a.824.824 0 0 1-.42.11Zm-1.26-3.519a.48.48 0 0 0-.22.055c-.173.1-.273.347-.273.676a2.6 2.6 0 0 0 .374 1.243c.402.713 1.15 1.325 1.588 1.079.174-.101.274-.348.274-.677a2.6 2.6 0 0 0-.374-1.243 2.734 2.734 0 0 0-.867-.96.978.978 0 0 0-.502-.173Z" fill="#5B2448"/><path d="M23.576 156.596a.491.491 0 0 1-.328-.128c-2.264-1.992-4.756-1.736-4.784-1.727a.51.51 0 0 1-.557-.448.51.51 0 0 1 .439-.558c.118-.018 2.957-.319 5.568 1.975a.506.506 0 0 1-.338.886Zm.374 2.569a.474.474 0 0 1-.355-.155c-1.99-2.047-4.693-1.919-4.72-1.919a.501.501 0 0 1-.53-.476.496.496 0 0 1 .475-.53c.128-.009 3.177-.164 5.496 2.221a.505.505 0 0 1-.365.859Zm-.063 2.412a.497.497 0 0 1-.393-.192c-1.415-1.773-3.87-1.773-3.889-1.773a.515.515 0 0 1-.51-.503.502.502 0 0 1 .501-.511c.119 0 2.958-.009 4.692 2.157a.497.497 0 0 1-.082.703.506.506 0 0 1-.32.119Z" fill="#FFCF2D"/><path d="M47.822 75.525c11.794 2.522 20.895 1.681 23.076-.046-1.442-1.929-15.4-6.764-19.288-7.568-3.889-.804-20.037-3.702-19.955 1.38-.01-.009-.21 3.985 16.167 6.234Z" fill="#5B2448"/><path d="M32.458 144.889s-5.093-2.806-8.307-8.318l2.273-2.184 6.034 10.502Z" fill="#9B3C82"/><path d="M48.871 70.709s-5.55 2.459-8.26 12.33c-1.151 4.213-.01 15.41-.074 17.658.01 4.013-.803 9.515-.803 9.515-2.465 4.954-7.267 10.877-21.179 17.522 6.244-.558 8.061 12.841 13.912 17.155 0 0 13.858-6.58 20.996-23.014 3.268-7.522 3.834-14.122 3.834-14.122s1.433 3.702 1.451 12.751c.01 4.469-5.048 16.653-10.78 21.333 4.765-3.099 10.917 6.251 23.341 4.963 6.664-24.925 6.664-50.563-1.26-70.954l-21.178-5.137Z" fill="#F94F46"/><path d="M54.093 95.66c-.018-.092-.1-.156-.192-.137-.091.018-.155.1-.137.192.475 2.897 1.37 5.941 2.246 8.884.429 1.444.84 2.851 1.168 4.131.064-.448.092-.759.11-.896-.283-1.06-.62-2.175-.959-3.327-.867-2.934-1.77-5.968-2.236-8.847Zm-11.703 8.701c.037-.091 0-.192-.091-.219-.082-.037-.183.009-.22.091l-.09.21c-.712 1.673-1.388 3.272-2.127 4.78-.083.622-.128.997-.128.997-.019.027-.028.055-.046.082.94-1.791 1.753-3.702 2.61-5.731l.092-.21Zm18.23 10.474a.169.169 0 0 0-.128-.201.169.169 0 0 0-.2.128c-.54 2.468-1.078 4.452-1.553 5.978a11.568 11.568 0 0 1-.219 1.764c.566-1.636 1.342-4.177 2.1-7.669 0 .01 0 .01 0 0Z" fill="#FCB6B1"/><path d="M31.445 69.2c-.274-.805-.155-1.6.31-2.121.457-.512 1.196-.695 2.073-.512.1.019.173.119.155.22a.198.198 0 0 1-.228.155h-.01c-.739-.155-1.341-.01-1.707.393-.374.42-.465 1.07-.237 1.746.566 1.69 6.17 8.19 10.68 8.93 0 0-.027.064-.054.118l-.128.256c-3.652-.557-9.512-5.913-10.854-9.186Z" fill="#21A0AA"/><path d="m62.18 70.243-.584-.494-.474-2.66-.283-1.58-.073-.394-.1-.567-4.601-25.6-.01.008c-.072.092-.145.192-.237.302-.246.32-.566.731-.95 1.216-4.198 5.31-15.81 19.55-22.875 26.396-7.066 6.846 0 0-.01.01-.082.072-.155.154-.237.228l-.009.009-.027.027h.009c.611-.356 1.214-.402 1.853-.228h.01c2.665.75 5.896 5.484 12.441 8.71 8.125 4.013 20.357 3.172 24.866 2.01l-8.708-7.393Z" fill="#21A0AA"/><path d="M73.007 62.848c-3.36 3.016-7.175 5.52-10.835 7.385a45.734 45.734 0 0 1-3.305 1.535c-6.59 2.742-11.958 3.071-12.031.073 0-.045.009-.1.009-.146l.155-.923.484-.375c.091-.1.128-.155.237-.256 0 0 .064-.055.064-.064 1.835-1.736 6.07-3.217 10.562-4.378l.009-.009c.794-.2 1.597-.393 2.392-.585 3.195-.74 6.316-1.316 8.608-1.7 2.218-.356 3.651-.557 3.651-.557Z" fill="#5B2448"/><path d="M101.99 62.033c.009.1 0 .21-.018.348-.046.457-.237 1.096-.803 1.8-.028.028-.046.064-.073.092a.673.673 0 0 1-.073.082l-.028.027.009.01c.009.009.019.018.028.036.009.018.018.027.036.055a.56.56 0 0 1 .073.183v.018c.009.027.009.055.019.082.045.293-.01.759-.42 1.472-.055.1-.119.192-.183.301 0 .01-.009.01-.009.019 0 0 .018.045.036.118.01.019.01.046.01.074 0 .027.009.045.009.073v.064c0 .137-.019.31-.11.511 0 .01-.009.01-.009.019-.228.484-.858 1.087-2.474 1.526h-.018c-.493.137-6.052 1.856-7.686 2.56-1.132.484-10.215 4.259-13.4 5.237-3.342 1.023-14.56 2.98-18.98-6.71-.109-.246 1.571-1.891 1.571-1.891s-2.236.22-2.383-.274a14.833 14.833 0 0 1-.356-1.362c0-.01 0-.019-.009-.028l4.555-2.275 10.535-5.265c.082.265.164.548.255.84.055.193.119.385.174.577.064.21.128.43.192.649.611 2.01 1.223 4.058 1.223 4.058 2.044-.731 12.314-2.934 14.24-3.428 1.835-.466 6.089-1.883 9.275-2.696 1.314-.338 3.049-.695 4.108-.695.109 0 .191.018.246.037.1.045.146.119.119.228-.028.12-.119.274-.283.485a2.954 2.954 0 0 1-.247.292 1.467 1.467 0 0 1-.128.137c-.045.046-.091.1-.136.147l-.01.009c.01 0 .028-.01.037-.019 1.004-.383 1.369-.74 1.57-1.069.356.887.475 2.02-.557 3.135v.018c0 .01 0 .01.009.019.009.027.009.064.019.11a.382.382 0 0 1 .009.109c.027.064.027.11.036.155Z" fill="#F4ADA2"/><path d="M101.99 62.034c-.009.01-.018.01-.018.019-1.022.73-2.483 1.28-3.104 1.498-.018.01-.036.01-.064.01-.064 0-.118-.046-.146-.11-.027-.082.019-.174.1-.21a17.326 17.326 0 0 0 1.927-.805 8.31 8.31 0 0 0 1.26-.767c.009-.01.018-.01.018-.019-.009.01-.009.019-.018.019.009.045.036.173.045.365Zm-.849 2.634c-.748.52-1.78.886-2.41 1.069-.018.01-.036.01-.054.01a.154.154 0 0 1-.146-.12c-.028-.082.027-.173.11-.2.62-.184 1.651-.55 2.354-1.061.009-.01.019-.01.019-.018a.664.664 0 0 0-.028.027l.009.01a.102.102 0 0 1 .028.036c.009.018.018.027.036.055a.52.52 0 0 1 .082.192Zm-.529 2.229a.754.754 0 0 1-.091.055c-.685.412-1.424.631-1.963.759h-.046a.148.148 0 0 1-.146-.128.165.165 0 0 1 .119-.192c.566-.128 1.37-.375 2.072-.85 0 .01-.009.01-.009.018 0 0 .018.046.036.12a.69.69 0 0 1 .028.218Zm.785-7.887-.383.539-.128.046c-1.488.64-2.994 1.023-4.135 1.05h-.01a.16.16 0 0 1-.155-.155c0-.091.073-.164.165-.164 1.013-.028 2.72-.384 4.646-1.316Zm-30.252 1.16-3.962 1.627-5.86 2.404-4.647 1.9-2.008.823c.137.42.274.841.42 1.253.639-.101 1.314-.202 2.054-.32.237.777.502 1.499.803 2.157 1.406-.503 2.739-.978 3.734-1.426 2.464-1.097 5.559-2.916 8.27-5.594a23.744 23.744 0 0 0 1.707-1.864c.22-.247-.511-.96-.511-.96Z" fill="#9B3C82"/><path d="M50.788 59.173c1.215-6.005 1.799-10.64 2.748-14.295.128-.503.265-.978.41-1.444.348-1.097.74-2.102 1.224-3.026.164-.31.338-.612.52-.904l.356-.549c3.57-5.11 7.97-1.16 10.434 3.464.256.485 5.989 18.61 5.989 18.61s-1.324 1.188-2.529 2.01c-2.547 1.755-6.664 3.93-12.187 4.762-.155.018-.3.046-.447.064a.8.8 0 0 1-.146.018h-.027c-.74.11-1.415.22-2.054.32-4.565.722-6.618 1.197-7.559 2.102l-.036.037a3.06 3.06 0 0 0-.712 1.115c0 .01 0 .018-.01.018 0-.018.01-.027.01-.045v-.019c.027-.11.055-.22.091-.347 0-.01.01-.018.01-.027" fill="#21A0AA"/><path d="m55.81 39.258-.083.164a.397.397 0 0 0-.027.064c-.676 1.335-1.342 3.885-1.735 5.42-.557 2.13-.986 4.598-1.488 7.459-.356 2.029-.758 4.323-1.26 6.836l-.073.366c-.611 3.016-1.798 6.042-2.747 8.473-.329.84-.63 1.6-.858 2.257l-.028.082c-.365.421-.593.86-.639 1.308 0 0-.045-.403.174-1.134.009-.018.009-.036.018-.055.246-.73.593-1.617.977-2.595.95-2.413 2.117-5.42 2.73-8.41l.072-.365c.502-2.504.904-4.798 1.26-6.818.502-2.87.931-5.347 1.488-7.486.1-.402.228-.868.365-1.37v-.029c.265-.97.575-2.039.913-2.953.374-.475.694-.886.94-1.215Z" fill="#6CE0DC"/></g><g clip-path="url(#f)"><path d="M100.543 54.48c-.984 1.448-2.88 2.114-4.253 1.494-1.388-.627-1.735-2.334-.755-3.82.99-1.5 2.938-2.18 4.33-1.515 1.377.658 1.672 2.38.678 3.84Z" fill="#fff"/><path d="M97.073 54.938a.427.427 0 0 1-.381-.356l-.357-2.125a.43.43 0 0 1 .351-.494.426.426 0 0 1 .493.351l.242 1.44 2.173-1.59a.429.429 0 1 1 .505.692l-2.733 2a.428.428 0 0 1-.293.081Z" fill="#6CE0DC"/></g><defs><clipPath id="a"><path fill="#fff" transform="translate(5.4 165.744)" d="M0 0h16.416v4.248H0z"/></clipPath><clipPath id="b"><path fill="#fff" transform="translate(97.056 18.287)" d="M0 0h76.176v114.48H0z"/></clipPath><clipPath id="c"><path fill="#fff" transform="rotate(45 -63.418 219.046)" d="M0 0h16v16H0z"/></clipPath><clipPath id="d"><path fill="#fff" transform="translate(85.536 46.584)" d="M0 0h21.744v22.392H0z"/></clipPath><clipPath id="e"><path fill="#fff" transform="translate(7.2 15.984)" d="M0 0h95.472v152.784H0z"/></clipPath><clipPath id="f"><path fill="#fff" transform="rotate(5.492 -471.745 1018.17)" d="M0 0h6.264v6.336H0z"/></clipPath></defs></svg>