<svg width="100" height="100" fill="none" xmlns="http://www.w3.org/2000/svg"><g clip-path="url(#a)"><path d="m75.228 49.243 8.226-17.782 8.668.05-8.281 17.783-8.613-.051Z" fill="#66B0F0"/><path d="M83.894 49.578c-.228 0-.412-.17-.412-.378a.35.35 0 0 1 .034-.15l8.164-17.333h-8.233L75.25 49.298c-.09.192-.332.281-.542.2-.21-.083-.306-.305-.217-.498l8.303-17.81a.415.415 0 0 1 .38-.23h9.133c.227 0 .412.17.412.378a.352.352 0 0 1-.034.15L84.273 49.35a.415.415 0 0 1-.379.228Z" fill="#FFCF2D"/><path d="M60.29 49.822c-.371-.083-.6-.429-.51-.774.074-.288.352-.492.672-.492l23.308-.006c.381 0 .69.287.69.641 0 .355-.309.642-.69.642l-23.309.007a.745.745 0 0 1-.161-.018Z" fill="#9B3C82"/><path d="M82.902 49.459c.138 0 .249-.103.249-.229s-.111-.228-.249-.228c-.137 0-.248.102-.248.228s.11.229.248.229Zm-.934-.166a.22.22 0 0 1-.2.115h-.006l-1.74-.01c-.097-.001-.188-.056-.217-.142-.049-.143.068-.275.217-.274l1.743.01c.157.001.276.149.203.3Z" fill="#FFCF2D"/></g><g clip-path="url(#b)"><path d="M88.98 35.786h-6.864l.414-.805h6.849l-.4.805Z" fill="#5B2448"/><path d="M88.98 35.888h-6.864a.104.104 0 0 1-.086-.05.105.105 0 0 1-.005-.102l.414-.8a.095.095 0 0 1 .091-.056h6.849c.035 0 .066.02.086.045.02.026.02.066.005.097l-.4.805a.093.093 0 0 1-.09.06Zm-6.697-.203h6.635l.299-.602h-6.626l-.308.602Z" fill="#5B2448"/><path d="M88.949 35.655c-1.401.268-6.92 3.864-10 6.3-2.761 2.189-5.042 5.633-7.207 6.063-3.748.745-5.437-4.214-6.156-5.323-1.563-2.41-5.047-4.406-7.136-2.41 0 0-4.143 3.777-2.934 3.752 2.018-.04 4.87.461 6.429 3.145 1.76 3.03 5.472-1.109 9.65-4.801 2.833-2.502 8.766-6.31 10.571-6.797" fill="#fff"/><path d="M89.05 35.635a.099.099 0 0 0-.116-.081c-.653.121-2.261.982-4.406 2.35-1.977 1.26-4.137 2.78-5.64 3.97-1.046.831-2.012 1.829-2.948 2.791-1.492 1.535-2.898 2.988-4.213 3.252-.102.02-.203.035-.299.045-.51.026-1.254-.086-1.608-.217-.895-.34-1.538-1.003-2.074-1.768.703-.598 1.437-1.271 2.205-1.97a106.94 106.94 0 0 1 1.72-1.55c2.817-2.487 8.715-6.3 10.53-6.777.107-.025.375-.096.375-.096l-.137-.177s-.242.06-.293.076c-1.831.496-7.78 4.32-10.612 6.817-.581.517-1.163 1.043-1.72 1.555-.748.678-1.481 1.352-2.184 1.95-.44-.664-.814-1.398-1.204-2.072-1.649-2.851-3.333-3.732-4.198-4.072-.946-.37-2.666-.456-2.666-.456s-2.498.04-4.263 1.753c-2.317 2.254-2.499 4.756-2.499 4.756s2.342-2.508 6.312.131c1.78 1.185 3.83 2.715 4.451 2.715h7.931s.339.157 2.054-1.352c.824-.628 1.669-1.5 2.539-2.401.93-.962 1.891-1.95 2.928-2.776 3.116-2.466 8.609-6.022 9.954-6.28.056-.005.091-.06.081-.116Z" fill="#5B2448"/><path d="m85.778 36.693-4.608-.086a.102.102 0 0 1-.101-.101c0-.056.05-.102.1-.102l4.603.087c.056 0 .102.045.102.1.005.062-.04.102-.096.102Zm-2.509 1.332-4.608-.086a.102.102 0 0 1-.101-.101c0-.056.046-.101.101-.101l4.603.086c.055 0 .101.045.101.101a.094.094 0 0 1-.096.101Zm-2.691 1.495-4.168-.082a.102.102 0 0 1 0-.202l4.168.076a.1.1 0 0 1 .101.101c0 .06-.045.107-.1.107Zm-1.376.855-4.112-.08a.101.101 0 0 1 0-.203l4.112.08a.102.102 0 0 1 0 .203Zm-1.421.775-3.632-.07a.102.102 0 0 1 0-.203l3.632.07c.056 0 .101.046.101.102 0 .06-.045.101-.101.101Zm-1.988 2.543-4.658-.086a.101.101 0 0 1 0-.203l4.653.086c.056 0 .101.046.101.101 0 .056-.04.102-.096.102Zm-1.922.83-3.682-.07a.101.101 0 0 1 0-.203l3.682.07a.101.101 0 0 1 0 .203Z" fill="#5B2448"/></g><g clip-path="url(#c)"><path d="M17.846 90.18c1.903 0 3.445-.295 3.445-.658 0-.364-1.542-.659-3.445-.659-1.903 0-3.446.295-3.446.659 0 .363 1.543.658 3.446.658Z" fill="#5B2448"/></g><g clip-path="url(#d)"><path d="M73.488 50.13h19.28a.11.11 0 0 1 .111.111v35.077a.11.11 0 0 1-.112.112h-19.28a.111.111 0 0 1-.111-.112V50.242c0-.063.05-.113.112-.113Z" fill="#FFCF2D"/><path d="M92.767 85.43h-19.28a.111.111 0 0 1-.111-.112V50.242c0-.063.05-.113.112-.113h19.28c.062 0 .111.05.111.113v35.076a.11.11 0 0 1-.112.112ZM73.6 85.206h19.055V50.354H73.6v34.852Z" fill="#FFCF2D"/><path d="M73.376 67.668h19.503v.224H73.376v-.224Zm19.504-8.77-19.504.045v.225l19.503-.045v-.225ZM73.376 76.415h19.503v.224H73.376v-.224Z" fill="#fff"/><path d="M92.767 50.466H50.353a.672.672 0 1 1 0-1.346h42.414a.672.672 0 1 1 0 1.346ZM76.604 89.4a2.072 2.072 0 1 0 0-4.144 2.072 2.072 0 0 0 0 4.144Zm13.106 0a2.072 2.072 0 1 0-.001-4.144 2.072 2.072 0 0 0 0 4.144Z" fill="#5B2448"/><path d="M83.15 55.4a.785.785 0 1 0 0-1.57.785.785 0 0 0 0 1.57Zm0 8.612a.785.785 0 1 0 0-1.57.785.785 0 0 0 0 1.57Zm0 8.612a.785.785 0 1 0 0-1.57.785.785 0 0 0 0 1.57Zm0 8.612a.785.785 0 1 0 0-1.57.785.785 0 0 0 0 1.57Z" fill="#fff"/></g><g clip-path="url(#e)"><path d="M33.579 85.048c-1.322-.363-2.424-1.12-3.275-2.246-.739-.976-1.312-2.263-1.702-3.827-.726-2.89-.726-6.21-.726-8.635a.222.222 0 0 0-.224-.224.222.222 0 0 0-.223.224c0 2.447 0 5.799.739 8.743.25 1.004.578 1.905.976 2.684h-4.327c.394-.78.721-1.68.977-2.684.739-2.944.739-6.296.739-8.743a.222.222 0 0 0-.224-.224.222.222 0 0 0-.224.224c0 2.424 0 5.74-.726 8.635-.394 1.564-.968 2.85-1.702 3.828-.851 1.124-1.953 1.882-3.275 2.245a.225.225 0 0 0-.165.215.222.222 0 0 0 .282.215c1.42-.39 2.602-1.201 3.512-2.407.201-.264.39-.55.564-.856h4.811c.175.305.363.592.565.856.909 1.206 2.091 2.017 3.511 2.407a.22.22 0 0 0 .273-.157.223.223 0 0 0-.156-.273Z" fill="#5B2448"/><path d="M32.826 90.08a2.572 2.572 0 1 0 0-5.144 2.572 2.572 0 0 0 0 5.144Z" fill="#FFCF2D"/><path d="M32.826 89.318a1.81 1.81 0 1 0 0-3.62 1.81 1.81 0 0 0 0 3.62Z" fill="#9B3C82"/><path d="M21.045 90.08a2.572 2.572 0 1 0 0-5.144 2.572 2.572 0 0 0 0 5.144Z" fill="#FFCF2D"/><path d="M21.045 89.318a1.81 1.81 0 1 0 0-3.62 1.81 1.81 0 0 0 0 3.62Z" fill="#9B3C82"/><path d="M23.33 72.128c-.161 0-.336-.004-.524-.018a.114.114 0 0 1-.108-.116.114.114 0 0 1 .117-.108h.004c.995.063 1.608-.045 1.926-.34.278-.256.34-.65.35-1.206 0-.063.053-.112.112-.112.063 0 .112.054.112.112-.01.614-.085 1.058-.421 1.367-.305.287-.802.421-1.568.421Z" fill="#5B2448"/><path d="M23.084 72.67h-2.016a.671.671 0 1 1 0-1.344h2.015a.671.671 0 1 1 0 1.344Z" fill="#9B3C82"/><path d="M15.827 67.338a.219.219 0 0 1-.22-.189c-.86-5.624-2.419-12.964-3.75-16.123a.221.221 0 0 1 .122-.292.22.22 0 0 1 .291.121c1.34 3.191 2.916 10.58 3.776 16.232a.226.226 0 0 1-.188.255c-.009-.004-.022-.004-.031-.004Z" fill="#5B2448"/><path d="M27.012 65.415a56.003 56.003 0 0 0 4.918-.125c1.098-.045 4.905-.641 4.905-.641a1.967 1.967 0 0 1 2.258 1.622c.134.807-.287 1.542-.959 2.021-.434.273-2.365 1.295-5.532 1.95-.94.179-3.395.465-5.68.465a30.372 30.372 0 0 1-5.621-.618c-.928-.193-3.808-.91-5.394-1.797a1.975 1.975 0 0 1-.878-2.648 1.968 1.968 0 0 1 1.967-1.076c.004 0 8.363.82 10.016.847ZM12.839 52.921c-1.066.144-1.787-.658-2.07-1.608-.609-2.017-1.088-4.06-1.733-6.073-.524-1.64-1.062-3.276-1.734-4.862-.39-.923-.931-2.106-.277-3.03.3-.425.761-.707 1.276-.774 2.088-.014 3.525 3.186 3.826 3.773 1.155 2.303 2.02 5.906 2.195 7.134.282 2.725.743 5.055-1.483 5.44Z" fill="#FFCF2D"/></g><g clip-path="url(#f)"><path d="M63.099 76.028c-2.188 1.115-3.309 1.431-7.728 1.115-4.42-.315-6.134 1.475-5.674 2.68.8 2.097 8.04 1.159 13.402-3.795Z" fill="#5B2448"/><path d="M50.406 79.642s-4.966-.752-7.594-3.796c-2.471-2.857-4.86-5.327-6.345-4.374-2.37 1.517 2.725 9.912 13.939 8.17Z" fill="#5B2448"/><path d="m50.406 79.642-.992 1.383-1.599 2.235s-4.783 1.431-6.435-2.235c.172-.479.455-1.25.747-2.049l.196-.526v-.005c.489-1.316.958-2.56.972-2.599l7.11 3.796Zm12.914 3.479s-4.9 1.092-6.604-.995c-.014-.02-.028-.034-.043-.053a.494.494 0 0 0-.043-.052l-.038-.053c-.005-.005-.005-.01-.01-.014l-.029-.048c-.023-.039-.047-.082-.071-.12a29.87 29.87 0 0 0-.33-1.632c-.039-.172-.082-.345-.12-.512-.01-.048-.024-.091-.034-.134-.01-.034-.014-.067-.024-.1-.311-1.264-.608-2.264-.608-2.264l7.728-1.116s.072 1.407.139 3.135c0 .043.005.082.005.125.043 1.234.081 2.699.081 3.833Z" fill="#F4ADA2"/><path d="M63.099 76.028c-1.92 1.742-5.171 2.776-7.12 3.384-.311-1.263-.608-2.264-.608-2.264l7.728-1.12Zm-12.693 3.614c-3.27.2-6.795-.814-8.083-1.192v-.005c.489-1.316.958-2.56.972-2.599l7.11 3.796Z" fill="#9B3C82"/><path d="m49.414 81.03-1.599 2.235s-4.783 1.43-6.435-2.235c.172-.479.455-1.25.747-2.049l7.287 2.049Z" fill="#66B0F0"/><path d="m48.735 81.982-6.981-1.977c-.053.149-.106.288-.154.422l6.857 1.938.278-.383Z" fill="#fff"/><path d="M63.32 83.126s-4.9 1.091-6.604-.996c-.014-.019-.028-.033-.043-.052a.41.41 0 0 0-.043-.053l-.038-.053c-.005-.004-.005-.01-.01-.014a.415.415 0 0 1-.028-.048c-.024-.038-.048-.081-.072-.12a29.79 29.79 0 0 0-.33-1.632l7.081-1c0 .043.005.082.005.125.043 1.244.081 2.709.081 3.843Z" fill="#66B0F0"/><path d="m63.267 80.14-6.934.856.087.44 6.86-.847-.014-.45Zm8.642 8.275c-.412.492-1.274 1.172-3.084 1.335-3.327.292-12.185.129-12.185.129.019-1.646.024-3.317-.005-4.767v-.005c-.034-1.58-.215-2.871-.172-3.225.536-.269 1.627.631 2.504.938 1.388.483 4.323.268 4.472.282 1.245.177 2.46.507 3.62.981l.072.029c.009.005.023.01.033.014a11.14 11.14 0 0 1 .776.388c.047.029.095.053.143.076.072.043.144.082.216.125.019.014.043.024.062.038a11.074 11.074 0 0 1 1.398.99l.034.03c.01.01.024.019.033.028l.01.01c.005.005.014.01.019.014l.005.005c.01.01.019.02.028.024.02.02.043.033.063.053.01.004.014.014.024.019l.047.043.02.019c.019.02.043.038.062.057l.005.005.019.02a.102.102 0 0 0 .024.018.297.297 0 0 0 .043.039c.01.005.014.014.024.019l.01.01.009.009c.02.02.043.038.062.062.029.029.058.058.086.082l.015.014.019.02.043.042c.014.014.024.029.038.038l.015.015.024.028c.014.02.033.034.047.053.01.01.02.02.024.029l.048.048c.01.014.024.024.034.038.038.038.072.077.105.12.014.019.034.038.048.052a.69.69 0 0 1 .077.091l.062.072c.01.01.019.024.029.034.01.01.019.023.028.033l.058.072c.038.048.076.096.11.143.014.015.024.034.034.048a4.326 4.326 0 0 1 .23.33c.018.03.038.063.057.091.004.005.004.01.01.015l.071.115c.014.019.024.038.034.057.086.148.148.268.191.354l.014.034a.605.605 0 0 1 .044.096c.004.004.004.01.004.014.01.005.01.005.01.01Z" fill="#fff"/><path d="M71.535 87.74c-2.868 2.043-5.683 1.125-7.344.435-1.432-.593-1.48.02-2.648-.35-.977-.31-1.283-1.004-2.528-1.153-.747-.086-1.839.254-2.332.79a37 37 0 0 0-.053-2.355v-.004c-.081-1.762-.191-3.317-.172-3.317 1.034.029 1.537.54 2.413.847 1.384.483 3.797.402 4.558.46 1.523.12 2.873.665 3.62.98l.072.03c.01.004.024.009.033.014a9.83 9.83 0 0 1 .776.388c.048.028.096.052.144.076.072.043.143.081.215.124.02.015.043.024.062.039a11.073 11.073 0 0 1 1.399.99l.033.03c.01.009.024.018.034.028l.01.01c.004.004.014.009.018.014l.005.004c.01.01.02.02.029.025.019.019.043.033.062.052.01.005.014.014.024.02l.048.042.02.02c.018.019.042.038.061.057l.005.005.02.019a.093.093 0 0 0 .023.019.303.303 0 0 0 .043.038c.01.005.015.015.024.02l.01.009.01.01c.019.019.043.038.062.057.028.029.057.057.086.081l.014.015.02.019.042.043c.015.014.024.029.039.038l.014.015.024.028.014.015.039.038c.01.01.019.02.024.029l.047.047c.01.015.024.025.034.039a1.1 1.1 0 0 1 .105.12c.015.019.034.038.048.052a.7.7 0 0 1 .077.091l.062.072.029.033c.01.015.019.024.029.034l.057.072c.038.047.077.095.11.143.014.015.024.034.034.048a7.286 7.286 0 0 1 .287.421c.005.024.01.029.01.034Z" fill="#5B2448"/><path d="M56.85 85.773c-.052 0-.081-.005-.09-.005a.132.132 0 0 1-.12-.149.132.132 0 0 1 .148-.12c.01 0 .771.063 1.724-.617.21-.148.383-.287.536-.402.594-.46.92-.718 2.116-.876a.135.135 0 0 1 .154.115.135.135 0 0 1-.115.154h-.005c-1.12.148-1.413.373-1.987.818-.153.12-.33.258-.546.412-.852.612-1.566.67-1.815.67Z" fill="#fff"/><path d="M67.758 89.132c-1.274 0-2.437-.378-3.429-.79-.809-.334-1.24-.325-1.661-.315a3.25 3.25 0 0 1-1.11-.12c-.446-.13-.729-.35-1.002-.56-.344-.268-.675-.521-1.326-.584-1.494-.143-2.408.79-2.418.8-.043.043-.115.047-.158.004s-.048-.114-.005-.158c.039-.043.996-1.019 2.6-.866.718.067 1.087.354 1.441.632.269.21.522.407.93.522.43.124.727.12 1.043.11.445-.01.905-.02 1.753.33 1.881.78 4.386 1.43 7.081-.488a.113.113 0 0 1 .153.028c.034.053.02.12-.028.154-1.355.966-2.658 1.301-3.864 1.301Z" fill="#5B2448"/><path d="M59.024 87.567h-.014c-.369 0-.718.091-.977.245-.282.167-.436.392-.436.636 0 .488.623.871 1.413.871h.014c.369 0 .718-.086.977-.244.282-.168.436-.392.436-.641-.005-.489-.623-.867-1.413-.867Zm.867 1.312c-.23.139-.541.215-.876.215-.652.005-1.207-.297-1.212-.655 0-.163.115-.326.33-.45.23-.14.542-.216.877-.216h.01c.646 0 1.196.297 1.196.656.005.163-.11.325-.325.45Z" fill="#5B2448"/><path d="M72.024 88.367c0-.005 0-.005 0 0 0-.005-.005-.01-.005-.01-.01-.02-.024-.057-.048-.105l-.014-.034a4.59 4.59 0 0 0-.196-.359c-.01-.019-.024-.038-.034-.057-.024-.043-.053-.086-.081-.134-.02-.029-.039-.062-.058-.091a.214.214 0 0 0-.038-.053c-.062-.095-.13-.186-.196-.277l-.034-.048c-.038-.053-.076-.1-.11-.144-.029-.033-.057-.072-.086-.105l-.029-.034c-.014-.019-.029-.033-.043-.052l-.02-.024-.076-.091-.014-.014a.273.273 0 0 0-.034-.039l-.105-.12c-.014-.014-.024-.028-.034-.038-.014-.019-.033-.033-.047-.052l-.024-.024-.048-.053c-.024-.029-.053-.053-.082-.081l-.014-.015c-.01-.01-.02-.019-.024-.028l-.038-.039-.087-.086c-.028-.024-.052-.052-.08-.076-.025-.02-.044-.043-.068-.063l-.024-.019a1.413 1.413 0 0 0-.09-.081c-.01-.005-.015-.014-.02-.02-.024-.023-.048-.042-.072-.066l-.005-.005-.086-.072-.004-.005a.617.617 0 0 0-.063-.052c-.014-.01-.024-.024-.038-.034l-.1-.086a11.532 11.532 0 0 0-1.308-.914c-.019-.01-.038-.024-.057-.034l-.01-.004a4.965 4.965 0 0 0-.215-.125c-.048-.028-.096-.052-.144-.081a9.648 9.648 0 0 0-.268-.144c-.062-.033-.125-.062-.182-.09a5.295 5.295 0 0 0-.33-.154l-.211-.086a9.397 9.397 0 0 0-.862-.287 10.352 10.352 0 0 0-.766-.196 6.107 6.107 0 0 0-.364-.077c-.22-.048-.46-.09-.713-.13l-.178-.028a16.81 16.81 0 0 0-.598-.081h-.005a.116.116 0 0 0-.124.1.116.116 0 0 0 .1.125c.173.019.34.043.498.067.402.057.766.124 1.092.196.273.057.517.12.737.177.436.115.771.23 1.01.32.12.044.216.087.288.116.115.047.22.1.32.148.005 0 .005.005.01.005.14.067.283.143.436.225.048.028.096.052.139.076.072.039.139.082.206.12l.004.005.01.005c.014.01.034.019.053.028.45.268.876.57 1.283.9.033.029.067.053.1.081.01.01.02.02.034.03.02.018.043.033.062.052l.005.004c.029.024.053.048.081.072l.005.005c.024.02.048.043.072.067l.02.02c.028.023.057.052.085.08l.024.02c.02.019.043.038.063.062.028.024.052.053.081.077l.086.08c.01.01.024.025.034.04.01.009.019.014.024.023l.019.02.076.076.048.048.029.028c.014.015.029.034.048.053.01.01.019.024.033.038.034.039.072.077.106.115.01.01.019.024.033.038l.015.015c.023.029.052.057.076.086l.02.024c.014.02.028.034.042.048l.03.038c.028.034.057.072.08.105.039.048.072.096.11.144.01.014.025.029.034.043.067.091.13.182.192.273.01.014.024.033.033.052.005.005.005.01.01.015.014.024.033.048.048.072a1.727 1.727 0 0 0 .072.115c.004.004.004.01.01.014.009.019.023.038.033.057.072.12.134.235.186.345l.015.029c.01.019.014.033.024.047-.771.876-2.03 1.159-2.96 1.24-3.078.273-11.007.168-12.07.148a34.88 34.88 0 0 0 .081-2.254v-.297c0-.464-.01-.952-.019-1.46-.005-.09-.005-.176-.01-.267a91.535 91.535 0 0 0-.186-3.499v-.005c-.005-.048-.005-.086-.005-.095 0-.03-.005-.053-.024-.072a.11.11 0 0 0-.067-.043c-.005 0-.01 0-.014-.005h-.034c-.01 0-.014.005-.024.01a.113.113 0 0 0-.067.09c-.005.024 0 .053.02.355.143 1.981.21 3.733.2 5.24-.004.886-.033 1.69-.09 2.403v.005c0 .062.047.11.11.115.043 0 2.197.033 4.773.033 2.662 0 5.765-.038 7.441-.186.986-.087 2.337-.398 3.155-1.374.03-.043.034-.091.01-.13Z" fill="#5B2448"/><path d="M62.505 85.926a.333.333 0 0 1-.335-.335c0-.043.01-.087.024-.13.029-.071.78-1.814 2.81-2.527a.334.334 0 0 1 .427.201.334.334 0 0 1-.201.426h-.005c-1.738.613-2.409 2.14-2.413 2.154a.321.321 0 0 1-.307.21Zm1.499.478a.333.333 0 0 1-.307-.469c.034-.076.829-1.837 2.912-2.45a.335.335 0 0 1 .191.641c-1.776.522-2.48 2.063-2.49 2.077a.329.329 0 0 1-.306.201Zm1.719.354a.333.333 0 0 1-.302-.478c.029-.067.766-1.594 2.667-2.13a.333.333 0 0 1 .412.235.331.331 0 0 1-.235.411c-1.609.45-2.236 1.752-2.24 1.766a.323.323 0 0 1-.302.197Z" fill="#FFCF2D"/><path d="M55.222 88.395c-.416.489-1.283 1.163-3.088 1.312-3.328.273-13.775-.015-13.775-.015.268-1.474 3.035-8.662 3.04-8.662.982.31 1.207 1.34 2.322 1.608 1.16.277 1.791.292 3.084.445 1.59.191 2.988.675 3.701.99a7 7 0 0 1 .326.154c.153.076.301.158.445.234.048.029.096.053.139.082.072.043.144.086.215.124.024.014.044.024.063.038.45.273.88.58 1.292.914l.101.087c.01.01.024.019.033.028.01.01.024.02.034.029a.855.855 0 0 0 .01.01c.004.004.01.01.019.014l.005.005c.028.024.057.052.09.076.01.005.015.015.025.02.014.014.033.028.047.042l.02.02c.019.019.043.038.062.057l.005.005.019.019c.01.005.014.014.024.02.014.013.028.028.043.037.01.005.014.015.024.02l.01.01.009.009c.019.019.043.038.062.062l.081.081c.015.01.024.024.034.039l.043.043c.024.028.053.052.077.081.014.02.033.033.047.053.01.01.015.019.025.028.014.015.028.034.043.048.01.015.023.024.033.038.038.039.072.082.105.12.015.02.034.038.048.053l.077.09.057.073.03.038c.009.01.018.024.028.033l.057.072c.039.048.077.096.11.144l.034.048c.072.095.134.191.191.277.01.02.024.034.034.053.02.028.038.062.057.09.03.044.058.092.082.13.01.02.024.038.033.057.087.149.149.268.187.355l.015.033c.019.048.033.081.043.1.004.005.004.01.004.015.02.01.02.01.02.014Z" fill="#fff"/><path d="M54.844 87.72c-2.877 2.025-6.244.934-7.9.235-1.432-.603-1.906.163-3.074-.215-.972-.316-1.279-1.015-2.519-1.168-.747-.09-1.838.407-2.293.804-.005.005 2.322-6.385 2.322-6.385 1.03.403 1.116 1.163 2.102 1.518.824.296 1.992.368 3.29.526 1.59.192 3.002.728 3.715 1.048.13.058.24.11.326.153.153.077.301.158.445.235.048.029.096.053.139.081.072.043.143.086.215.125.024.014.043.024.063.038.45.273.88.58 1.292.914l.1.086c.01.01.025.02.034.029.01.01.024.02.034.029l.01.01a.066.066 0 0 0 .019.014l.004.005c.01.004.015.014.024.019.024.019.043.038.067.057.01.005.015.014.024.02.015.014.034.028.048.042l.02.02c.019.019.042.038.062.057l.004.005.02.019c.01.005.014.014.023.019a.315.315 0 0 0 .044.038c.01.005.014.015.024.02l.01.009.009.01c.019.019.043.038.062.062l.081.081.015.014.019.02.043.043.052.052.024.029.015.014c.014.015.024.03.038.039.01.01.014.019.024.028.014.015.029.034.043.048.01.015.024.024.034.039.038.038.072.08.105.12.014.018.034.037.048.052l.077.09.057.073.029.038c.01.01.019.024.029.033l.057.072c.038.048.076.096.11.144l.034.048c.071.095.134.191.191.277.01.02.024.034.034.053.019.029.038.062.057.09.014.01.02.015.02.025Z" fill="#5B2448"/><path d="M39.939 85.572c-.058 0-.091-.005-.1-.005a.141.141 0 0 1-.12-.149.137.137 0 0 1 .143-.12c.015 0 .776.063 1.729-.607.21-.148.388-.282.54-.402.6-.46.925-.709 2.122-.862a.134.134 0 0 1 .148.115.134.134 0 0 1-.115.149c-1.12.143-1.412.363-1.991.808-.154.12-.33.254-.551.407-.843.603-1.551.666-1.805.666Z" fill="#fff"/><path d="M51.057 88.994c-.206 0-.417-.01-.628-.024-1.105-.086-2.288-.393-3.528-.914-.786-.33-1.293-.264-1.791-.197-.378.053-.77.106-1.255-.038-.46-.139-.766-.359-1.063-.574-.354-.254-.684-.498-1.264-.589-1.48-.234-2.288.723-2.322.761a.113.113 0 0 1-.158.014.113.113 0 0 1-.014-.158c.038-.043.92-1.096 2.528-.842.637.1 1.006.369 1.365.627.292.21.57.412.99.541.436.13.786.081 1.16.034.497-.068 1.062-.144 1.905.21 1.216.512 2.38.814 3.457.895 1.642.125 3.103-.249 4.338-1.12a.11.11 0 0 1 .153.034.11.11 0 0 1-.033.153c-1.106.79-2.399 1.187-3.84 1.187Z" fill="#5B2448"/><path d="M41.318 87.443a1.98 1.98 0 0 0-.982.24c-.282.167-.44.392-.44.636s.153.474.435.636c.264.153.613.24.982.24h.005c.368 0 .713-.087.977-.24.282-.167.435-.392.44-.636 0-.493-.622-.876-1.417-.876Zm.88 1.33c-.234.14-.55.211-.885.211-.335 0-.651-.077-.886-.215-.215-.13-.335-.288-.335-.455 0-.168.12-.33.335-.455.235-.138.55-.21.886-.21h.005c.66 0 1.22.306 1.22.67 0 .167-.119.325-.34.454Z" fill="#5B2448"/><path d="M55.309 88.348c-.005-.005-.005-.01-.005-.01v-.005c-.01-.019-.024-.057-.048-.1l-.014-.034a6.81 6.81 0 0 0-.192-.359c-.01-.019-.024-.038-.033-.057-.024-.043-.053-.086-.082-.134l-.057-.091a.212.212 0 0 0-.039-.053 4.099 4.099 0 0 0-.234-.325c-.038-.053-.077-.1-.11-.144-.03-.033-.058-.072-.087-.105l-.028-.038c-.015-.02-.029-.034-.043-.053l-.02-.024c-.023-.029-.047-.062-.076-.09l-.014-.015a.279.279 0 0 0-.034-.039c-.033-.038-.067-.08-.105-.12a.325.325 0 0 0-.034-.038c-.014-.019-.033-.033-.048-.052-.01-.01-.014-.02-.024-.029l-.047-.053c-.025-.028-.053-.052-.077-.08l-.014-.02c-.01-.01-.02-.02-.025-.029a6.915 6.915 0 0 0-.124-.124l-.005-.005-.076-.076a.836.836 0 0 0-.067-.063l-.024-.019a1.446 1.446 0 0 0-.091-.081l-.02-.02a.858.858 0 0 0-.076-.066c-.029-.024-.057-.053-.086-.077l-.005-.005a.604.604 0 0 0-.062-.052c-.015-.01-.024-.024-.039-.034l-.1-.086a10.274 10.274 0 0 0-.977-.718c-.105-.072-.215-.139-.325-.206-.02-.01-.039-.024-.058-.033l-.01-.005-.215-.13c-.048-.028-.096-.052-.144-.08h-.004a14.232 14.232 0 0 0-.45-.235c-.063-.034-.13-.062-.197-.096-.043-.02-.09-.043-.139-.062a9.981 9.981 0 0 0-1.503-.517c-.34-.091-.723-.177-1.154-.254h-.01c-.124-.024-.253-.043-.387-.067a14.04 14.04 0 0 0-.527-.076.123.123 0 0 0-.091.028.113.113 0 0 0-.034.067c-.01.063.039.115.096.125.177.024.354.048.517.072.043.005.086.014.13.019.392.067.751.139 1.072.215.287.067.546.139.78.21a9.617 9.617 0 0 1 1.02.379c.11.048.22.1.321.153l.273.139c.058.029.115.062.172.09.048.03.096.053.14.082.071.043.143.082.21.125l.01.01c.014.009.033.018.052.028a10.996 10.996 0 0 1 1.379.996c.01.009.02.018.034.028.019.02.038.034.062.053l.005.005a.977.977 0 0 1 .086.076c.024.02.048.043.072.067l.019.02.086.08.024.02c.02.019.043.038.067.062.024.024.053.048.077.077l.005.004.08.082c.01.01.025.024.034.038.01.01.02.014.024.024l.02.02c.023.028.052.052.076.076l.048.047.029.03c.014.014.028.033.048.052a2.288 2.288 0 0 0 .139.153c.009.014.023.024.033.038l.014.015c.024.028.053.057.077.086l.02.024c.013.019.028.033.037.048l.03.038c.028.033.057.072.08.105.034.043.072.091.11.144.01.014.025.029.034.043.067.09.13.182.192.273.01.014.024.033.033.052.005.005.005.01.01.015.014.024.033.047.048.071l.014.02c.02.033.038.067.057.095.005.005.005.01.01.015.01.019.024.038.034.057.071.12.134.235.186.345l.015.028c.01.02.014.034.024.048-.44.493-1.308 1.087-2.969 1.225-2.686.22-10.113.149-12.799.11-.397-.004-.69-.009-.847-.009.038-.148.1-.359.177-.613a76.569 76.569 0 0 1 .632-1.871c.024-.072.053-.148.077-.225.163-.46.33-.938.507-1.421.034-.091.062-.178.096-.268.393-1.092.785-2.154 1.068-2.925.301-.818.402-1.1.44-1.206a.297.297 0 0 0 .02-.067.078.078 0 0 0-.01-.057.113.113 0 0 0-.067-.058c-.005 0-.01-.004-.015-.004-.057-.01-.12.028-.129.086-.033.057-.22.574-.46 1.23-.699 1.91-1.896 5.169-2.384 6.729a7.11 7.11 0 0 0-.206.751v.02c0 .062.048.11.11.114a473.139 473.139 0 0 0 6.79.053c2.729 0 5.563-.034 7.02-.153.986-.081 2.34-.383 3.164-1.355a.1.1 0 0 0 .01-.114Z" fill="#5B2448"/><path d="M46.13 85.682a.333.333 0 0 1-.335-.335c0-.053.01-.1.033-.149.034-.072.886-1.766 2.95-2.36a.33.33 0 0 1 .411.23.33.33 0 0 1-.23.412c-1.771.512-2.528 2-2.532 2.015a.328.328 0 0 1-.297.187Zm1.465.569a.333.333 0 0 1-.297-.488c.038-.072.934-1.79 3.05-2.278a.335.335 0 0 1 .402.249.335.335 0 0 1-.249.402c-1.805.416-2.595 1.914-2.604 1.929a.34.34 0 0 1-.302.186Zm1.695.45a.333.333 0 0 1-.335-.335c0-.052.014-.11.038-.158.034-.062.852-1.55 2.787-1.972a.335.335 0 0 1 .397.254.335.335 0 0 1-.254.397c-1.618.354-2.331 1.623-2.336 1.637a.339.339 0 0 1-.297.177Z" fill="#FFCF2D"/><path d="M15.242 56.913c1.431 6.116 9.696 15.765 29.806 7.547 0 0-1.743 2.235-4.113 3.977-1.657 1.22-3.53 2.145-4.468 3.04.714-.446 2.505-.202 5.45 3.66 2.858 3.753 8.489 4.514 8.489 4.514l1.565-1.919s1.355-.67 4.022-.445c2.145.177 5.181-.091 7.106-1.25 0 0-.503-16.597-9.83-22.106-7.867-4.657-22.61-2.915-29.85-1.264-1.838.422-6.257 1.7-8.177 4.245Z" fill="#21A0AA"/><path d="M57.53 58.526a9.138 9.138 0 0 0-.9-1.78 15.314 15.314 0 0 0-1.48-1.47.114.114 0 0 0 .03.043 9.104 9.104 0 0 1 2.144 3.288c.551 1.44.786 3.058.69 4.81-.22 4.197-2.265 9.022-6.067 14.344l.03-.034s.124-.062.368-.138c3.687-5.241 5.669-10.008 5.89-14.167.095-1.78-.145-3.432-.705-4.896Zm-10.122 2.512a.11.11 0 0 0-.153.034c-.014.024-1.56 2.46-2.696 3.585.163-.063.326-.13.489-.197 0 0-.015.02-.048.058 1.101-1.211 2.384-3.23 2.442-3.327a.114.114 0 0 0-.034-.153Z" fill="#6CE0DC"/><path d="M46.724 49.317a88.724 88.724 0 0 1-2.94 1.862 32.097 32.097 0 0 1-.771.454c-.053.03-.1.063-.153.091-2.05 1.183-4.31 2.331-6.795 3.312-9.739 3.844-12.645-2.369-12.645-2.369l-.01.005c-.01 0-.014.005-.019.005-.048.01-.096.024-.148.038-.01 0-.02.005-.03.01-.047.01-.095.024-.143.038-.048.01-.09.024-.139.038a.696.696 0 0 1-.095.024c-.048.015-.091.024-.14.039l-.11.028a3.004 3.004 0 0 1-.148.043c-.067.02-.134.039-.2.063-.058.019-.111.033-.168.052l-.307.1-.134.044c-.033.01-.067.024-.096.033-.062.02-.124.043-.182.063-.004 0-.01 0-.01.004-.052.02-.1.034-.152.053l-.115.043a4.263 4.263 0 0 1-.182.067c-.048.02-.1.038-.149.057-.09.039-.186.072-.277.11l-.144.058a2.24 2.24 0 0 1-.163.067l-.134.057c-.182.082-.359.158-.531.24-.039.019-.077.038-.115.052-.072.034-.144.072-.216.106-.057.028-.11.057-.167.086-.053.029-.11.053-.163.081-.005.005-.014.005-.02.01a15.863 15.863 0 0 0-.872.483c-.042.029-.09.053-.133.081-.029.02-.057.034-.086.053a2.541 2.541 0 0 1-.12.072c-.028.02-.057.038-.086.057-.043.03-.09.058-.134.087l-.13.086c-.042.028-.08.057-.124.081a.942.942 0 0 0-.11.077 2.068 2.068 0 0 0-.124.086c-.039.029-.077.052-.11.081-.182.13-.35.259-.503.373l-.086.072a1.044 1.044 0 0 1-.087.067l-.071.058-.087.072c-.024.019-.047.042-.071.062a6.89 6.89 0 0 0-.56.517l-.02.019c-.014.014-.024.024-.028.033-.01.01-.01.015-.015.015v.004a25.841 25.841 0 0 1-.709-5.255 28.274 28.274 0 0 1 .053-2.92c.67-9.748 6.296-19.225 14.475-23.274.071-.038.143-.072.22-.105.775-.373 1.57-.694 2.39-.967l5.855 3.862.177.115s.005.005.005.01c0 0 0 .005.005.005.014.023.024.047.038.071.014.03.029.058.048.087l.043.086.086.172.038.081c.039.086.082.177.115.264.01.028.024.057.034.086.01.028.024.057.033.086.01.029.02.052.034.081.057.149.105.292.153.431.01.024.015.048.024.067.01.029.015.053.024.077.01.023.014.052.024.076l.043.153c.005.024.014.048.02.077.014.048.023.1.038.148l.028.13c.005.009.005.023.01.033.014.062.029.12.038.177v.005c.02.086.034.167.048.249l.029.177v.005c.019.11.029.215.038.306 0 .014.005.029.005.048.005.029.005.057.01.081 0 .029.004.053.004.077a.1.1 0 0 0 .005.038c.005.09.01.163.01.21v.063c1.201 1.704 2.518 5.896 2.7 6.495-.005.004-.01.01-.005.019.096.354.182.708.264 1.062.076.345.34 1.565.354 1.642v.005c.005 0 .01-.005.014-.005.154-.038 1.604-.46 2.514-.713l.1-.03c.092-.023.183-.047.269-.076v.187c-.005.948.057 4.652 1.283 7.663.005.004.005.01.01.019.138.354.296.694.474 1.02Z" fill="#66B0F0"/><path d="M45.23 12.474a2.036 2.036 0 0 0-1.853-.191c-.403-2.116-3.156-2.058-3.697-.546-1.714-1.642-4.252.2-3.672 2 .21.66.507 1.853.1 2.886.872.517 2.356 3.126 2.356 3.126s3.62-3.977 5.262-3.94c2.586.058 2.667-2.545 1.504-3.335Z" fill="#5B2448"/><path d="M42.247 12.948a.096.096 0 0 0-.02.062c0 .062.048.11.11.11.039 0 .072-.02.092-.048.718-1.067 1.762-.914 1.805-.91a.1.1 0 0 0 .067-.009 2.07 2.07 0 0 0-.93.13 2.36 2.36 0 0 0-.052-.216c-.345.13-.742.388-1.072.88Z" fill="#9B3C82"/><path d="M45.464 22.175c-.005.57-.359 1.135-.981 1.417-1.628.737-3.625.082-3.625.082s-2.585 2.163-3.131 4.7a2.32 2.32 0 0 0-.182-.015c-.728-.077-3.61-.593-5.856-3.963 0 0 2.81-1.819 4.099-3.8-1.083-.244-2.208-1.46-1.81-2.92.23-.832 1.182-1.33 2.044-1.115.886.22 1.413 1.01 2.035 1.814.704.914 1 .23 1.389-.631.249-.55.536-1.178.996-1.498 1.039-.728 3.289-.44 3.289-.44s-.014.296-.01.67c.01.492.058 1.12.235 1.378.306.454.651.406.642.689-.01.244-.302.512-.47.627-.023 1.66 1.35 1.675 1.336 3.005Z" fill="#F4ADA2"/><path d="M37.291 20.821a.111.111 0 0 0 .072-.139.111.111 0 0 0-.139-.072c-.522.163-1.125.072-1.441 0a2.787 2.787 0 0 1-.134.197 4 4 0 0 0 .914.12c.244 0 .489-.034.728-.106Z" fill="#9B3C82"/><path d="M39.034 22.175c-.283.134-.67 1.752.718 2.594.603-.674 1.106-1.086 1.106-1.09 0-.006-1.216-.518-1.824-1.504Zm1.576-5.37.009-.09.014-.082a1.242 1.242 0 0 1 .201-.436c.13-.186.302-.34.498-.45a1.29 1.29 0 0 1 .69-.163c.12.006.234.034.344.078a.819.819 0 0 1 .288.19c.1.101.095.264-.005.36a.273.273 0 0 1-.077.053l-.043.019c-.09.038-.167.062-.24.086-.071.024-.133.052-.19.072-.116.047-.216.09-.331.138-.11.053-.225.115-.355.192l-.2.12-.106.062a.364.364 0 0 0-.057.033.292.292 0 0 1-.058.024l-.153.024a.207.207 0 0 1-.24-.172c.005-.015.005-.038.01-.058Zm1.043.9c.249-.076.857-.249 1.403-.593a.163.163 0 0 1 .225.052c.124.196.263.555-.139.737-.493.23-1.331.144-1.527-.062-.034-.033-.03-.086.005-.12l.033-.014Z" fill="#5B2448"/><path opacity=".52" d="M40.336 21.17a1.168 1.168 0 1 0 0-2.336 1.168 1.168 0 0 0 0 2.336Z" fill="#E57281"/><path d="M43.573 20.668a.772.772 0 0 1-.263.138.856.856 0 0 1-.292.034.984.984 0 0 1-.776-.378.983.983 0 0 1-.148-.259.86.86 0 0 1-.015-.579.099.099 0 0 1 .13-.057c.042.014.066.057.066.1v.005a.806.806 0 0 0 .206.598c.048.053.1.1.158.144.12.077.259.13.402.144a.744.744 0 0 0 .422-.053h.005c.052-.024.11 0 .134.048a.091.091 0 0 1-.029.115Zm-6.665-1.283a.118.118 0 0 1-.11-.086c-.321-1.479-1.518-1.512-1.57-1.512a.112.112 0 0 1-.11-.115c0-.063.047-.11.11-.11.014 0 1.426.028 1.785 1.689a.11.11 0 0 1-.086.134c-.005-.005-.014 0-.02 0Z" fill="#9B3C82"/><path d="M63.99 42.617c-.513-.474-1.432-1.163-1.968-1.517.67.224 3.93.938 1.608-.714-.047-.033-.57-.392-.775-.53-2.677-1.772-5.933-2.274-9.078-1.642-.609.12-7.618 1.857-7.618 1.857l-1.207.358s-.172 5.313 1.767 8.888c1.03-.68 1.992-1.34 2.882-1.953.953-.65 1.825-1.249 2.62-1.751 1.302-.828 2.403-1.412 3.318-1.613 2.125-.464 3.887.76 5.716 1.34 1.83.579 1.652-.225-.354-1.517.1.043 4.673 2.077 3.127.177.01.005 2.24.718-.039-1.383Z" fill="#F4ADA2"/><path d="M42.065 41.257s-.173-1.46-.508-2.622c-.488-1.709-1.518-4.772-2.81-6.6 0 0 0-1.786-1.025-3.662-.043 2.01 0 4.265 0 4.265s.756 6.987.306 9.893l4.037-1.274Z" fill="#F94F46"/><path d="M23.405 52.672c-5.53 1.34-8.163 4.24-8.163 4.24a25.773 25.773 0 0 1-.46-2.397l.01-.01c2.815-2.948 7.8-3.853 7.8-3.853s.818 2.015.814 2.02Z" fill="#5B2448"/><path d="M38.876 32.226a6.618 6.618 0 0 0-.13-.191v-.005a3.19 3.19 0 0 1-1.005.842c.005.067.014.144.024.235a3.387 3.387 0 0 0 1.11-.881Z" fill="#66B0F0"/><path d="M42.022 41.267c-2.51.742-5.79 1.732-6.196 1.857.1-.479.182-.972.258-1.474.355-2.46.383-5.107.077-7.648a17.201 17.201 0 0 0-.455-2.379c.757 1.35 1.24 2.135 1.628 2.135.029 0 .053-.005.081-.01.355-.105.642-.809.312-5.38a6.83 6.83 0 0 1-.182-.014c.134 1.828.172 3.14.129 4.001-.053.996-.215 1.192-.306 1.22-.091.03-.283-.062-.675-.64-.312-.46-.68-1.13-1.073-1.839l-.172-.315c-.738-2.092-1.91-3.47-3.39-3.91a2.728 2.728 0 0 0-.283-.072.065.065 0 0 0-.029-.034c-.972-.699-1.843-1.158-2.442-1.402-.071.033-.148.072-.22.105.532.196 1.365.613 2.318 1.268-1.49-.162-3.692.512-6.522 3.853-3.174 3.748-3.787 8.582-3.74 11.98.058 4.192 2.112 10.141 2.112 10.141l.182-.043s-2.054-5.93-2.111-10.098c-.043-3.365.56-8.156 3.696-11.86 1.312-1.55 2.605-2.647 3.83-3.255 1.135-.56 2.198-.698 3.16-.411 1.03.31 1.906 1.086 2.605 2.316.68 1.201 1.16 2.814 1.38 4.671a29.441 29.441 0 0 1-.077 7.6 26.88 26.88 0 0 1-.288 1.614v.01c-.454 2.143-1.168 4.029-2.13 5.618a.092.092 0 0 0 .029.124.092.092 0 0 0 .124-.028c.895-1.48 1.575-3.207 2.035-5.155.282 3.212-.58 6.17-.589 6.203-.005.01-.005.014-.005.024 0 .048.039.09.091.09.038 0 .077-.023.086-.062.01-.033.968-3.316.551-6.738.431-.134 2.748-.843 5.205-1.57-.24 2.57.167 7.241 1.843 9.974.053-.029.105-.062.153-.09-.953-1.537-1.412-3.566-1.632-5.007-.259-1.704-.33-3.547-.192-4.94.148-.042 1.125-.354 2.054-.622.872-.248 1.705-.459 1.705-.459v-.187c-.005 0-1.307.36-2.935.838Z" fill="#B0DCF7"/><path d="M59.795 40.109a.11.11 0 0 0 .077.139c.014.004 1.192.363 2.16.856.157.053.45.13.78.197-1.001-.694-2.797-1.245-2.873-1.269a.113.113 0 0 0-.144.077Zm4.558 3.871c-1.168-1.076-3.351-2.244-4.97-2.66a.11.11 0 0 0-.134.081c-.014.057.02.12.082.139 1.494.383 3.552 1.464 4.716 2.47.038.01.182.052.345.08v-.004c.01-.038-.01-.076-.039-.105Zm-5.449-1.2a.11.11 0 0 0 .068.143c.014.005 1.192.45 2.073.957.177.077.507.216.895.364-.732-.723-2.8-1.498-2.887-1.532-.062-.019-.13.01-.148.067Z" fill="#9B3C82"/><path d="M52.23 45.613c-.795.507-1.671 1.1-2.62 1.751-.842-1.526-1.57-3.379-2.087-5.264-.043-.168-.09-.33-.13-.498a23.795 23.795 0 0 1-.282-1.259l-.014-.072a9.316 9.316 0 0 1-.086-.483c-.005-.02-.005-.038-.01-.057l.211-.034 2.073-.345.814-.133c.082.478.182.962.297 1.45.043.182.091.363.139.54.426 1.575 1.02 3.13 1.695 4.404Z" fill="#5B2448"/><path d="M48.04 38.362c1.418-.483 2.844-.077 3.184.914.34.99-.536 2.187-1.953 2.67-1.418.484-2.864.082-3.227-.9-.431-1.157.579-2.196 1.996-2.684Z" fill="#5B2448"/><path d="M49.338 42.157a3.985 3.985 0 0 0 1.264-.703c-.024-.077-.043-.158-.067-.235a3.77 3.77 0 0 1-1.269.727 3.66 3.66 0 0 1-1.743.168c.02.077.043.153.067.235a3.918 3.918 0 0 0 1.748-.191Zm-.252-.747c1.376-.47 2.257-1.538 1.968-2.386-.29-.848-1.64-1.155-3.017-.685-1.376.469-2.257 1.537-1.968 2.385.29.848 1.64 1.155 3.017.686Z" fill="#fff"/><path d="M47.82 41.722c-.9 0-1.628-.35-1.839-.962-.153-.44-.019-.948.374-1.422.383-.464.967-.847 1.652-1.081 1.422-.489 2.83-.154 3.131.741.153.44.02.948-.373 1.422-.383.464-.968.847-1.652 1.081a4.1 4.1 0 0 1-1.293.22Zm.244-3.298c-.651.225-1.206.589-1.57 1.024-.35.426-.474.871-.345 1.25.273.799 1.58 1.081 2.906.626.651-.225 1.207-.588 1.57-1.024.35-.426.475-.87.346-1.249-.273-.8-1.58-1.082-2.907-.627Z" fill="#5B2448"/><path d="M48.758 40.73a.114.114 0 0 1-.11-.08l-.258-.977c-.014-.057.019-.12.077-.134l1.517-.421c.058-.02.12.02.14.077.018.057-.02.12-.078.138l-1.412.388.235.866a.118.118 0 0 1-.077.14c-.014.004-.024.004-.034.004Z" fill="#5B2448"/></g><g clip-path="url(#g)"><path d="M32.719 80.911s.166-5.814 6.255-10.629c4.22-3.336 11.503-6.676 14.233-14.336 1.718-4.824 1.548-9.608 4.86-11.987.993-.714 1.895-1.226 3.108-1.646 1.136-.394 2.936-.701 2.936-.701s-.968-.661-2.7-.904c-5.102-.716-11.39.447-13.926 1.73-1.472.746-2.34 2.062-2.927 3.239-.963 1.933-1.119 4.916-1.16 6.033-.035.983-.489 2.579-2.634 4.142-3.352 2.442-8.691 4.656-11.925 6.67-8.022 4.998-9.592 10.317-10.75 14.614 7.982 1.061 14.63 3.775 14.63 3.775Z" fill="#fff"/><path d="M32.718 81a.088.088 0 0 1-.033-.006c-.066-.028-6.73-2.723-14.608-3.77a.088.088 0 0 1-.074-.11c.508-1.886 1.204-4.468 2.811-7.069 1.778-2.875 4.387-5.36 7.978-7.598 1.34-.834 3.024-1.695 4.807-2.606 2.533-1.294 5.152-2.632 7.113-4.06 2.08-1.516 2.561-3.053 2.598-4.074.096-2.627.5-4.726 1.17-6.07.507-1.02 1.367-2.468 2.965-3.277 1.312-.665 3.565-1.272 6.028-1.625 2.8-.4 5.624-.442 7.95-.115 1.733.243 2.698.891 2.738.919a.089.089 0 0 1-.035.16c-.018.004-1.806.311-2.922.698-1.112.385-2.006.858-3.086 1.634-2.233 1.604-2.86 4.303-3.587 7.428-.341 1.465-.694 2.98-1.24 4.517-.954 2.675-2.54 5.058-4.847 7.285-2.006 1.936-4.277 3.486-6.281 4.853-1.137.775-2.21 1.508-3.134 2.238-3.126 2.472-4.651 5.212-5.38 7.075-.79 2.02-.841 3.473-.842 3.487a.089.089 0 0 1-.089.086ZM18.2 77.062c7.293.983 13.525 3.362 14.438 3.722.03-.398.177-1.709.843-3.414.736-1.885 2.277-4.658 5.438-7.157.928-.734 2.005-1.468 3.144-2.246 1.998-1.363 4.263-2.908 6.258-4.834 2.288-2.208 3.858-4.568 4.802-7.217.544-1.527.895-3.037 1.235-4.497.735-3.16 1.37-5.89 3.657-7.532 1.095-.787 2.002-1.267 3.132-1.658.886-.307 2.186-.564 2.714-.662-.365-.2-1.217-.597-2.462-.772-2.31-.324-5.116-.283-7.901.116-2.444.35-4.677.95-5.973 1.607-1.55.785-2.39 2.201-2.887 3.199-.658 1.32-1.056 3.394-1.15 5.996-.04 1.061-.534 2.653-2.672 4.21-1.972 1.438-4.598 2.78-7.137 4.076-1.779.91-3.46 1.768-4.793 2.6-8.091 5.04-9.61 10.47-10.685 14.463Z" fill="#5B2448"/><path d="m52.283 53.714-8.342-.032a.089.089 0 0 1 0-.178l8.342.032a.089.089 0 0 1 0 .178Zm-.627 1.296-8.343-.032a.089.089 0 0 1 0-.177h.001l8.342.032a.089.089 0 0 1 0 .178Z" fill="#5B2448"/><path d="m48.59 55.958-.304.547a10.509 10.509 0 0 1-2.17 2.716l-.667.598a.084.084 0 0 1-.082.029l-6.39-1.326a.104.104 0 0 1-.039-.185l.56-.32a14.74 14.74 0 0 0 2.944-2.211l.029-.028a.118.118 0 0 1 .07-.023l5.985.066c.07 0 .108.082.064.137Z" fill="#9B3C82"/><path d="M45.793 62.283a.092.092 0 0 1-.023-.002l-9.206-2.41a.089.089 0 0 1 .045-.171l9.206 2.409a.089.089 0 0 1-.022.174Zm-2.29 1.263a.09.09 0 0 1-.026-.004l-9.042-2.7a.089.089 0 0 1 .05-.17l9.043 2.7a.089.089 0 0 1-.025.174Zm-2.223 1.231a.09.09 0 0 1-.026-.003l-9.042-2.7a.089.089 0 0 1 .05-.17l9.043 2.7a.089.089 0 0 1-.026.173ZM32.073 77.02a.088.088 0 0 1-.028-.005l-2.151-.727a47.955 47.955 0 0 0-7.509-1.88l-2.33-.385a.089.089 0 0 1 .028-.175l2.331.386a48.117 48.117 0 0 1 7.537 1.886l2.15.727a.089.089 0 0 1-.028.173Zm20.638-24.603-8.342-.032a.089.089 0 0 1 0-.177l8.343.032a.089.089 0 0 1 0 .177Z" fill="#5B2448"/><path d="M28.743 76.783a.332.332 0 0 1-.332-.324l-.061-2.19a.333.333 0 1 1 .664-.019l.035 1.236 2.129-2.847a.332.332 0 1 1 .532.4l-2.7 3.61a.332.332 0 0 1-.267.134Z" fill="#F94F46"/></g><g clip-path="url(#h)"><path d="M42.858 51.825c-2.057 1.188-4.331 2.343-6.833 3.328-9.801 3.863-12.725-2.38-12.725-2.38 4.6-1.049 12.213-2.134 19.191-1.615l.21.016c.366.03.73.063 1.092.1-.232.14-.467.279-.704.417l-.075.044-.156.09Z" fill="#21A0AA"/><path d="M64.531 44.149a3.231 3.231 0 0 1-.346-.084l-.011-.003c1.085 1.332-.823.74-2.113.246a24.982 24.982 0 0 1-1.033-.425c2.022 1.302 2.201 2.11.358 1.526-1.843-.583-3.617-1.812-5.755-1.347-.918.2-2.026.79-3.338 1.62a93.948 93.948 0 0 0-2.638 1.763c-.897.613-1.863 1.276-2.901 1.96-.087-.159-.47-.192-.55-.359-1.688-3.568-1.23-8.577-1.23-8.577l1.214-.36s7.054-1.745 7.665-1.867c3.163-.634 6.443-.13 9.135 1.649.207.137.735.501.781.534 1.795 1.275.277 1.148-.83.918a7.838 7.838 0 0 1-.784-.199l-.004-.001c.539.36 1.461 1.051 1.978 1.527 1.675 1.541.927 1.574.402 1.479Z" fill="#F4ADA2"/><path d="M46.753 49.406a79.663 79.663 0 0 1-3.664 2.285l-.075.044-.156.09c-2.057 1.188-4.331 2.343-6.833 3.328-9.801 3.863-12.725-2.38-12.725-2.38l-.012.003s-.255-.765-.59-1.92l-.032-.112-.003-.01-.015-.052a70.672 70.672 0 0 1-.92-3.684c-.335-1.523-.635-3.192-.65-4.34-.046-3.414.557-8.273 3.752-12.04 2.598-3.065 4.603-3.871 6.086-3.871.135 0 .262-.053.387-.047l.021.002.377.06c.098.021.175.093.266.12 1.49.447 2.639 1.808 3.381 3.91.06.107.186.523.272.84.2.73.398 1.516.501 2.378a29.695 29.695 0 0 1-.077 7.69c-.073.506-.16 1-.258 1.48.2-.06 1.083-.329 2.229-.674 1.209-.363 2.71-.812 4.008-1.194l.002-.001.038-.012a.067.067 0 0 1 .013-.004l.042-.012.02-.006a.723.723 0 0 0 .03-.009l.157-.045.07-.02a.5.5 0 0 1 .028-.008c.522-.15 1.5-.431 2.18-.622l.101-.028.267-.074h.003v.015l-.001.033-.002.1v.038c-.005.854.044 3.92.936 6.724l.022.068a2.062 2.062 0 0 0 .022.068l.04.12.015.044.035.1.025.07.024.068.05.136a6.233 6.233 0 0 0 .121.307v.002a17.594 17.594 0 0 0 .131.305l.068.15.07.15.072.147.075.146.076.144Z" fill="#66B0F0"/><path d="M62.939 41.343a7.802 7.802 0 0 1-.784-.199c-.973-.494-2.158-.855-2.173-.86a.112.112 0 0 1 .065-.214c.078.024 1.884.573 2.892 1.273Zm1.593 2.803v.003a3.208 3.208 0 0 1-.347-.084c-1.171-1.007-3.247-2.098-4.75-2.48a.112.112 0 0 1-.026-.204.113.113 0 0 1 .083-.014c1.629.415 3.826 1.59 5.003 2.674a.113.113 0 0 1 .037.105Zm-2.47.163c-.389-.15-.72-.29-.898-.366-.889-.514-2.072-.96-2.088-.966a.113.113 0 0 1-.062-.143.112.112 0 0 1 .14-.067c.09.033 2.17.817 2.907 1.541Z" fill="#9B3C82"/><path d="M38.015 42.506c1.209-.363 2.71-.812 4.008-1.194l-.898.283-.083.026-3.038.959.011-.074Z" fill="#F94F46"/><path d="M15.573 56.563c.031.15-.606.028-.572.178-.034-.15.603-.027.572-.178Zm-.537.327.036.15-.036-.15Z" fill="#5B2448"/><path d="M44.971 40.47v.187c-.023.006-.849.213-1.713.46-.935.268-1.917.58-2.067.625l-.186.055c-2.472.73-4.805 1.444-5.24 1.578.423 3.442-.543 6.742-.552 6.775a.09.09 0 0 1-.154.032.09.09 0 0 1-.02-.084c.01-.031.88-3.006.596-6.235a15.196 15.196 0 0 0-.059-.557v-.001c0-.007.002-.013.004-.02v-.002l.001-.001v-.002a.09.09 0 0 1 .058-.055l.147-.045a735.921 735.921 0 0 1 6.237-1.869h.002l.113-.034.03-.009.157-.045a15.828 15.828 0 0 0 .098-.028c1.444-.422 2.548-.725 2.548-.725Z" fill="#B0DCF7"/><path d="m43.014 51.735-.156.09a8.293 8.293 0 0 1-.367-.666c-1.377-2.79-1.71-6.975-1.486-9.362l.012-.124a.087.087 0 0 1 .024-.052.086.086 0 0 1 .084-.026.088.088 0 0 1 .071.096l-.005.05c-.141 1.402-.07 3.254.193 4.968.197 1.281.58 3.02 1.316 4.465.099.193.203.38.314.56ZM36.044 41.7a25.332 25.332 0 0 1-.409 2.162v.001c-.464 1.961-1.15 3.699-2.05 5.185a.09.09 0 0 1-.092.045.092.092 0 0 1-.06-.036.09.09 0 0 1-.002-.102c.967-1.6 1.687-3.494 2.145-5.65a.073.073 0 0 0 .004-.02v-.001l.001-.002v-.002c.111-.52.206-1.056.286-1.606.355-2.458.382-5.1.076-7.643-.224-1.863-.705-3.487-1.39-4.695-.7-1.234-1.581-2.018-2.62-2.329-.967-.29-2.038-.15-3.18.414-1.235.611-2.533 1.712-3.855 3.272-3.159 3.726-3.768 8.541-3.722 11.925.019 1.362.249 2.91.552 4.38a49.31 49.31 0 0 0 .92 3.684l.015.053a.776.776 0 0 1 .003.009l.032.112a45.47 45.47 0 0 0 .602 1.918l-.012.003-.055.013-.114.029v-.003a47.235 47.235 0 0 1-.646-2.076c-.612-2.123-1.442-5.47-1.477-8.12-.046-3.414.57-8.275 3.765-12.043 2.597-3.065 4.669-3.897 6.152-3.897a3.63 3.63 0 0 1 .411.022l.377.06c.098.021.193.045.284.073 1.49.446 2.67 1.831 3.412 3.934l.266.85c.212.785.365 1.584.458 2.39a29.695 29.695 0 0 1-.077 7.69Z" fill="#B0DCF7"/><path d="M52.293 45.683a92.296 92.296 0 0 0-2.638 1.762c-.809-1.47-1.518-3.234-2.03-5.046a20.36 20.36 0 0 1-.064-.234l-.005-.014a23.985 23.985 0 0 1-.413-1.764l-.014-.074a20.65 20.65 0 0 1-.088-.488l-.01-.059.213-.035 2.087-.346.82-.136a20.543 20.543 0 0 0 .438 2.005l.003.01c.02.079.043.158.065.236.42 1.498.993 2.965 1.636 4.183Z" fill="#5B2448"/><path d="M50.592 41.264a3.756 3.756 0 0 1-1.279.73c-.61.21-1.223.259-1.752.171.02.078.042.156.064.234.153.02.307.03.461.03a4.045 4.045 0 0 0 1.3-.221 3.99 3.99 0 0 0 1.27-.708 20.664 20.664 0 0 1-.064-.236Zm-.003-.01a20.543 20.543 0 0 1-.439-2.005l-.819.136-2.087.346-.213.035.01.059c.028.162.057.325.088.488l.014.074a23.985 23.985 0 0 0 .413 1.764l.005.014 3.03-.901-.002-.01Z" fill="#fff"/><path d="M48.078 38.39c1.428-.487 2.862-.076 3.203.92.341.994-.54 2.197-1.968 2.685s-2.884.084-3.249-.903c-.43-1.165.587-2.213 2.014-2.701Z" fill="#5B2448"/><path d="M49.129 41.458c1.387-.473 2.274-1.548 1.983-2.402-.292-.854-1.652-1.163-3.039-.69-1.386.472-2.274 1.548-1.982 2.401.291.854 1.652 1.163 3.038.69Z" fill="#fff"/><path d="M51.242 39.21a1.118 1.118 0 0 0-.102-.319c-.397-.797-1.74-1.074-3.098-.61-.685.235-1.275.62-1.66 1.087a1.87 1.87 0 0 0-.41.806 1.19 1.19 0 0 0-.003.487v.003c.01.045.022.09.037.134.179.522.73.853 1.443.944.135.017.271.025.408.025.443-.004.884-.08 1.303-.225.48-.16.927-.41 1.314-.736.125-.107.24-.224.346-.351.34-.413.486-.848.422-1.244Zm-.816 1.398a3.763 3.763 0 0 1-1.325.764c-.602.205-1.198.26-1.698.187-.61-.091-1.075-.377-1.227-.82a1.027 1.027 0 0 1-.005-.624 1.79 1.79 0 0 1 .35-.633c.364-.441.925-.807 1.58-1.03 1.251-.429 2.482-.207 2.86.483a.941.941 0 0 1 .065.148c.131.382.008.829-.345 1.258a2.674 2.674 0 0 1-.255.267Z" fill="#5B2448"/><path d="M48.802 40.771a.112.112 0 0 1-.109-.083l-.263-.98a.112.112 0 0 1 .079-.137l1.526-.423a.113.113 0 0 1 .124.035.113.113 0 0 1 .01.128.113.113 0 0 1-.073.053l-1.42.394.234.872a.112.112 0 0 1-.108.141Z" fill="#5B2448"/></g><defs><clipPath id="a"><path fill="#fff" transform="translate(59.76 30.96)" d="M0 0h32.96v18.88H0z"/></clipPath><clipPath id="b"><path fill="#fff" transform="translate(52.8 34.88)" d="M0 0h36.68v13.68H0z"/></clipPath><clipPath id="c"><path fill="#fff" transform="translate(14.4 88.84)" d="M0 0h10.2v1.32H0z"/></clipPath><clipPath id="d"><path fill="#fff" transform="translate(49.68 49.12)" d="M0 0h43.76v40.28H0z"/></clipPath><clipPath id="e"><path fill="#fff" transform="translate(6.72 36.56)" d="M0 0h32.4v53.52H0z"/></clipPath><clipPath id="f"><path fill="#fff" transform="translate(14.52 10.64)" d="M0 0h57.52v79.4H0z"/></clipPath><clipPath id="g"><path fill="#fff" transform="translate(18 43.28)" d="M0 0h46.2v37.72H0z"/></clipPath><clipPath id="h"><path fill="#fff" transform="translate(15 26.68)" d="M0 0h50.16v30.36H0z"/></clipPath></defs></svg>