<svg width="170" height="170" fill="none" xmlns="http://www.w3.org/2000/svg"><g clip-path="url(#a)"><path d="M132.239 133.915c-1.055 2.149-7.826-.922-7.826-.922s5.07-2.303 7.145-.503c.077.077 1.072.64.681 1.425Z" fill="#5B2448"/><path d="m122.865 141.866-54.864-.802c-.995-.017-1.48-1.22-.774-1.928l17.633-17.512a5.231 5.231 0 0 1 3.751-1.518l48.757.674c.825.008 1.301.947.825 1.629l-12.827 18.186a3.018 3.018 0 0 1-2.501 1.271Z" fill="#FFCF2D"/><path d="m122.287 138.863-50.237-.392c-.757-.009-1.123-.93-.587-1.459l14.962-14.399a4.817 4.817 0 0 1 3.428-1.365l44.682.785c.434.009.689.504.434.862l-10.888 15.055c-.408.58-1.08.921-1.794.913Z" fill="#fff"/><path d="m128.615 127.185-3.487 4.819a.592.592 0 0 0 .501.939c1.37-.06 3.624-.137 5.274-.137.919 0 1.353.572 1.336.964v.145l4.193-6.159c.34-.494.264-1.134-.179-1.578a1.506 1.506 0 0 0-1.122-.409l-5.521.81c-.4.06-.757.273-.995.606Z" fill="#9B3C82"/></g><g clip-path="url(#b)"><path d="M64.325 80.246c-.585-2.056-1.747-3.536-2.358-5.45-1.103-3.478-1.655-7.122-1.906-10.115 1.597-.058 2.985-.342 3.83-.977 2.617-2.174.986-8.184.551-10.157.67-.551 1.347-1.956.293-2.265-.493-.15-.986-.334-1.346-.719-.36-.384-.627-.953-.87-1.421a21.507 21.507 0 0 1-.501-1.087 35.265 35.265 0 0 0-.703-1.513s0-.008-.008-.008a17.031 17.031 0 0 0-.577-1.095 19.712 19.712 0 0 0-2.391-3.31c-2.224-2.424-5.293-3.845-8.604-3.703-1.463.075-2.918.41-4.28.978-.01 0-.01.008-.017.008-.092.042-.176.067-.268.109-7.818 3.343-8.27 12.864-3.838 17.637.092-.016.335-.075.368-.075.05-.008 1.647-.593 2.567-.87 6.388 11.762 2.207 23.523 2.207 23.523l12.183 5.843 5.668-5.333Z" fill="#F4ADA2"/><path d="M54.886 54.727a2.642 2.642 0 1 1 0 5.284 2.642 2.642 0 0 1 0-5.284Z" fill="#E57281"/><path d="M57.026 48.515c-1.145.895-1.446 2.274-.945 2.776.502.493 1.798.108 2.76-.987.986-1.12 1.42-2.34.944-2.775-.493-.435-1.63.1-2.759.986Z" fill="#5B2448"/><path d="M62.92 57.333a1.536 1.536 0 0 1-.626.485c-.243.108-.51.167-.778.158a1.955 1.955 0 0 1-.385-.066 2.326 2.326 0 0 1-.367-.16 1.524 1.524 0 0 1-.56-.568l-.009-.008c-.067-.109-.21-.15-.318-.075a.224.224 0 0 0-.108.242 1.6 1.6 0 0 0 .618.978 1.965 1.965 0 0 0 1.095.401 2.1 2.1 0 0 0 1.121-.292 2.1 2.1 0 0 0 .451-.368c.134-.15.235-.326.293-.51a.223.223 0 0 0-.159-.284.226.226 0 0 0-.259.092l-.008-.025Z" fill="#9B3C82"/><path d="M58.707 52.81c.434-.45 1.488-1.504 2.215-2.833.1-.184.335-.26.519-.159.485.268 1.179.836.568 1.68-.76 1.045-2.575 1.83-3.227 1.63a.19.19 0 0 1-.125-.242c.025-.025.033-.05.05-.075ZM48.08 55.27c.418.384 3.352-1.263 4.172-2.098 5.535-5.601 6.078-10.583 5.777-11.36-1.923-2.107-5.35-3.636-8.938-3.561-3.695.083-7.692 2.04-9.824 5.207-2.8 4.105-3.27 8.794-1.288 14.662 3.688 9.554-1.572 12.104-5.46 15.698-3.887 3.595-9.347 7.055-8.737 16.677.627 9.939-4.707 9.395-5.602 17.328-1.27 11.385 14.298 19.727 23.136 11.794 4.623-4.154-4.223-32.115 1.613-36.83 5.836-4.722 6.304-12.304 3.838-22.786 0 .017-.008-5.2 1.313-4.731Z" fill="#5B2448"/><path d="M48.038 55.318s-2.843-1.63-5.268-.058c-2.29 1.488-1.011 5.258 3.955 6.328 1.003.2 2.04.217 3.06.075l-1.747-6.345Z" fill="#F4ADA2"/><path d="M48.765 59.222c.134.034.276-.066.301-.209a.289.289 0 0 0-.058-.217c-2.275-2.516-4.791-1.63-4.9-1.596a.264.264 0 0 0-.159.334c.05.134.201.209.335.159.1-.042 2.307-.794 4.33 1.446a.304.304 0 0 0 .151.083Z" fill="#9B3C82"/><path d="M57.628 64.514c-.702-.1-1.873-.384-2.224.234-.36.635 1.02 2.918 5.092 3.687-.2-1.38-.335-2.667-.426-3.745-.251.017-1.154.008-2.442-.176Z" fill="#5B2448"/><path d="M49.493 62.24a.25.25 0 0 0 .234-.258.245.245 0 0 0-.26-.234 15.996 15.996 0 0 1-2.324-.084c.034.167.059.318.1.51.519.05 1.029.084 1.606.084.217-.009.426-.009.644-.017Z" fill="#9B3C82"/><path d="M41.44 120.194s2.61 9.379-3.185 17.554c1.263-1.104 2.868-.067 4.724 1.479 3.286 2.725 6.597 5.735 13.612 5.693 20.36-.134-4.239-27.092-4.239-27.092l-10.911 2.366Z" fill="#FFCF2D"/><path d="M34.568 129.572s2.099-10.449 33.194-21.023c-21.756 25.06-33.763 25.695-33.194 21.023Z" fill="#5B2448"/><path d="M68.314 107.438s-1.372 7.648-21.639 17.796c0 0-2.55-3.603-3.754-6.37-1.196-2.767 25.393-11.426 25.393-11.426Z" fill="#9B3C82"/><path d="M117.603 107.688c-.243-.811-.795-.92-1.071-1.714-.083-.234-19.339-1.028-35.626-2.483-8.412-.744-11.53 10.123-13.286 14.913-1.648 4.489-.226 9.078 4.89 8.785 20.193-1.153 36.614-5.676 47.601-11.844-.987-2.5-1.731-5.074-2.508-7.657Z" fill="#F4ADA2"/><path d="m77.218 98.352 6.28 8.751v12.94l-10.82.335-2.868-8.652 7.408-13.374Zm-43.369 34.204c-.727-1.914-.61-4.355-.953-6.353-2.35-27.1 6.63-50.38 14.272-49.402 6.029-.677 10.084 4.765 13.253 21.684.35 1.897-4.816 17.855-4.816 17.855l2.8 5.491-24.556 10.725Z" fill="#F4ADA2"/><path d="M107.586 134.747c1.112.802 3.085 1.914 6.379 4.831 6.02 5.333-1.413 2.776-1.538 2.734 5.092 5.433-6.706-.385-6.706-.385 8.637 7.172-2.299 1.956-13.185.259a41.963 41.963 0 0 0-3.177-.384c-.076-.009-.15-.009-.226-.017-9.13-.627-23.06 4.69-36.83 3.243-.043 0-.076-.008-.118-.016-3.947-.427-7.876-1.405-11.672-3.244-7.667-3.711-9.156-10.649-7.977-17.671.803-4.756 3.32-9.587 5.176-13.307a75.71 75.71 0 0 1 .861-1.68c.544-1.029 1.062-1.948 1.505-2.734.05-.092.1-.184.159-.267l.46-.786c.05-.084.092-.159.134-.234.025-.05.058-.1.083-.15.042-.067.075-.134.117-.193a.614.614 0 0 1 .059-.092c.075.109.15.226.225.335l.009.008c.025.042.058.084.084.125.1.151.2.31.309.469.635.952 1.32 1.972 2.115 3 .092.126.193.251.293.377l.3.376c.101.125.21.25.319.376l.326.376c.108.125.225.251.343.376.025.034.058.059.083.092.042.042.084.092.125.134.042.042.084.092.126.134.2.209.401.409.619.61.025.017.041.042.066.058.076.067.143.134.218.201a24.116 24.116 0 0 0 2.048 1.672c.092.067.176.134.268.192l.25.176c.477.334.97.652 1.456.961l.577.351c.091.058.192.117.284.167.108.067.217.125.326.184.067.042.134.075.2.117.042.025.084.042.118.067.217.117.434.234.643.351.1.05.201.109.293.159.117.058.234.125.351.184.1.05.2.1.31.15.05.025.108.05.158.075.11.059.218.109.327.159.1.05.2.101.3.142.1.05.201.092.302.142.1.051.2.092.3.134.084.042.168.075.251.117.117.05.235.101.352.159h.008c.042.017.092.042.134.059.033.016.067.033.1.041.017.009.025.009.042.017.1.042.192.084.284.125.017.009.025.009.042.017a.474.474 0 0 0 .1.042c.025.008.05.025.076.033.016.009.041.017.058.025.075.034.142.059.21.092.066.025.133.059.2.084.05.017.092.033.133.059l.126.05c.167.067.326.133.485.192l.26.1c.04.017.091.034.133.05.042.017.075.034.117.042.192.075.385.142.56.209.059.017.109.042.159.059l.15.05.076.025.075.025c.209.075.41.142.585.201.034.008.067.025.1.033l.076.025c.033.008.058.017.092.025.042.017.083.025.117.042.025.008.042.017.067.025.033.008.075.025.108.033.176.059.318.101.41.126.017.008.034.008.05.017.025.008.05.016.067.016h.034l-.009.009-.008.008s-2.325 3.335-2.291 3.335c9.331-.844 28.863 2.299 42.926 6.378.008 0 .017 0 .025-.008 1.723-.259 3.261-.736 4.883-1.221 3.771-1.136 4.164-.359.636 3.001 3.837 1.321 6.295 2.567 7.951 3.837 6.664 5.107-3.478 1.513-7.525.109Z" fill="#F4ADA2"/><path d="M58.49 118.104c-4.925 4.23-18.73 4.406-26.313 10.7l.15-13.7 25.928 1.83.234 1.17Z" fill="#9B3C82"/><path d="m62.076 75.113 1.447 3.896c.36 1.095-1.94 6.185-17.157-3.052-3.604.385-11.004 7.933-13.035 24.844-1.112 8.877-1.146 21.332-1.146 21.332s7.124-.644 10.76-.861c9.758-.569 13.287-1.672 15.268-2.984l.636 5.976s16.538 1.564 26.195.861c-.986-1.772-6.22-19.944-5.343-22.293-2.725-3.962-6.647-12.405-8.218-16.05-4.365-10.13-6.673-11.619-9.407-11.669Z" fill="#21A0AA"/><path d="M80.245 110.013c0 .125.117.234.242.234.134-.009.243-.117.243-.243-.075-2.674.084-5.383.159-6.511l-.443-.636c-.009.017-.009.034-.009.051.009.041-.292 3.594-.192 7.105Z" fill="#9B3C82"/><path d="M115.036 134.57c-1.656-1.27-4.114-2.516-7.952-3.836 3.529-3.361 3.127-4.138-.635-3.001-1.614.484-3.152.961-4.883 1.22-.008 0-.017.008-.025.008-14.064-4.079-33.595-7.23-42.926-6.378-.009 0-15.602-.142-22.96 9.814-.752 1.02-1.045 2.299-1.555 3.452 1.237 2.341 5.727 8.167 18.018 9.095.042 0 .075.008.117.017 13.78 1.446 27.709-3.871 36.831-3.244.075 0 .15.009.226.017 1.045.084 2.107.217 3.177.385 10.895 1.696 21.823 6.912 13.186-.26 0 0 11.797 5.818 6.705.385.126.042 7.567 2.6 1.539-2.733-3.295-2.918-5.268-4.03-6.38-4.832 4.055 1.404 14.189 4.999 7.517-.109Z" fill="#F4ADA2"/><path d="M105.186 137.371c-.05.108 0 .225.101.276 2.316 1.061 4.682 2.783 7.157 4.672.2.067.618.201 1.103.318-2.809-2.157-5.468-4.171-8.093-5.375a.203.203 0 0 0-.268.109Zm-1.914 2.842a.218.218 0 0 0 .092.284c.016.008 1.22.619 2.433 1.471.351.167.919.435 1.597.736-1.505-1.396-3.746-2.533-3.847-2.583a.207.207 0 0 0-.275.092Zm4.272-9.78c-.844-.276-2.985-.962-5.109-1.63-.292.058-.593.108-.894.159 2.241.702 4.607 1.471 5.66 1.805.109-.109.234-.234.343-.334Zm-16.279-3.971h-.034l-6.22-1.17a.164.164 0 0 1-.134-.193.167.167 0 0 1 .192-.133l6.221 1.17c.092.017.15.1.134.192a.16.16 0 0 1-.159.134Zm-38.428-1.228a.15.15 0 0 1-.125-.059.162.162 0 0 1 .025-.234c.117-.092 2.876-2.349 5.836-2.675a.17.17 0 0 1 .184.151.17.17 0 0 1-.15.184c-2.868.317-5.636 2.574-5.661 2.599a.17.17 0 0 1-.109.034Z" fill="#9B3C82"/><path d="M133.012 104.128c-.41.301-.819.619-1.195.953-.009.009-.009.017-.017.017-3.478 5.057-7.927 8.493-12.701 10.8-13.545 6.545-29.674 3.979-33.628 3.569l23.729-14.018 5.543.293.886-.201s.234-.092.644-.309a13.979 13.979 0 0 0 2.701-1.915 17.983 17.983 0 0 0 3.453-4.179c2.951-4.882 3.319-3.778 3.286-1.605v-.008c.293-.586.568-1.104.811-1.589v-.008c2.876-5.383 3.336-3.803 3.386-.995l.009-.016.008-.034c.033-.083.067-.167.109-.25.008-.009.008-.017.008-.026.234-.543.451-.994.644-1.379l.025-.05c1.58-2.984 2.132-1.112 1.99 1.246v.016c0 .075-.009.142-.017.21v.007a14.856 14.856 0 0 1 .794-1.404c.502-.76.92-1.137 1.221-1.137.401 0 .585.652.477 1.915-.243 2.7-1.28 6.378-1.28 6.378h.017c.067-.009.326-.051.686-.101.618-.075 1.522-.15 2.215-.067 2.852.343-.677 1.605-3.804 3.887Z" fill="#F4ADA2"/><path d="M116.256 105.23c-.25.209-.485.418-.694.627-1.438 1.396-2.09 2.692-2.09 2.709a.304.304 0 0 1-.401.175.305.305 0 0 1-.176-.401c.025-.067.577-1.22 1.798-2.549l.05-.051.468-.108a3.893 3.893 0 0 0 1.045-.402Zm10.276-9.294c-.334 4.706-2.951 9.253-3.052 9.445a.303.303 0 0 1-.418.117.307.307 0 0 1-.117-.426c.025-.042 2.082-3.611 2.768-7.548.292-.577.568-1.104.819-1.588Zm4.164-2.7c-.075 1.764-.644 4.08-1.212 6.211a55.37 55.37 0 0 1-1.815 5.609.312.312 0 0 1-.401.176.3.3 0 0 1-.192-.26.26.26 0 0 1 .017-.142c.903-2.315 2.349-6.561 2.826-9.888.476-3.327 0-.009.008-.009.042-.1.084-.2.117-.292.008-.009.008-.017.008-.025.234-.544.452-1.004.644-1.38Zm2.743.1c-.184 1.58-.569 3.536-.987 5.458-.452 2.124-1.037 4.255-1.756 5.969a.303.303 0 0 1-.585-.084c-.009-.05 0-.1.025-.15 1.179-2.809 2.107-6.713 2.55-9.864a16.9 16.9 0 0 1 .753-1.33Zm1.145 6.98c-.443 1.304-1.045 2.642-1.664 3.879-.41.301-.819.685-1.196 1.02-.008.008-.008.017-.016.017.836-1.505 1.63-3.194 2.199-4.815.067-.009.125-.025.501-.076" fill="#9B3C82"/><path d="m47.578 75.498 3.252 56.791 25.335-6.595s-4.524-6.194-9.683-15.999c-3.846-7.298-13.06-29.967-13.06-29.967l-5.844-4.23Zm14.49-.419 1.455 3.929 21.153 45.841.903 1.964s7.576-1.496 14.298-3.394c7.625-2.156 13.002-4.581 13.002-4.581s-2.91-2.9-3.964-6.645c-.961-3.419.176-6.787.176-6.787.359.075-28.194-1.898-28.194-1.898s-8.344-15.957-13.135-24.592c-2.325-4.213-5.694-3.837-5.694-3.837Z" fill="#B0DCF7"/><path d="M44.384 75.999c3.696-1.847 7.065 1.37 7.717 1.998 4.7 4.53 4.8 19.97 4.8 20.814.008 15.13 1.755 23.681 1.755 23.681s10.168-.192 18.88.953c8.361 1.095 18.035 3.928 18.035 3.928s-2.3 2.491-3.436 6.629c-1.221 4.456-.61 8.042-.61 8.042s-2.994-.101-6.514.142c-7.91.543-21.572 2.942-23.62 3.051-7.969.426-18.203-.535-23.554-4.272-4.49-3.134-6.864-8.133-6.864-18.523.008-6.788 1.204-40.35 13.411-46.443Z" fill="#B0DCF7"/><path d="M100.981 114.107c.769 3.219 2.14 6.027 3.771 7.816.117-.042.234-.075.351-.117-1.639-1.73-3.027-4.539-3.796-7.782-.887-3.687-.769-7.072.284-9.12l-.36-.025c-1.036 2.131-1.137 5.542-.25 9.228Zm4.615 3.797a1.04 1.04 0 0 0 .418 1.997c.142 0 .276-.025.41-.083.526-.226.769-.844.543-1.371a1.03 1.03 0 0 0-1.371-.543Zm.702 1.605a.712.712 0 0 1-.936-.368.726.726 0 0 1-.009-.544.694.694 0 0 1 .377-.392.71.71 0 0 1 .936.367.711.711 0 0 1-.368.937Zm-26.605-12.733a.168.168 0 0 0 .167-.167c.05-1.262.82-2.491 1.263-3.093-.142-.008-.218-.016-.218-.016s-.025-.051-.075-.143c-.468.652-1.254 1.906-1.304 3.244 0 .092.067.175.167.175Zm-21.454 15.347c-2.567.151-5.418 1.998-6.012 5.784-.017.092.05.176.142.193h.025a.17.17 0 0 0 .167-.142c.56-3.603 3.27-5.358 5.694-5.509a.174.174 0 0 0 .16-.175.173.173 0 0 0-.176-.151Z" fill="#66B0F0"/><path d="M58.088 122.133c-.042 0-3.821.083-7.049 3.226a.162.162 0 0 0 0 .234.164.164 0 0 0 .118.051.164.164 0 0 0 .117-.051c3.127-3.042 6.78-3.126 6.814-3.126a.167.167 0 0 0 .167-.167.167.167 0 0 0-.167-.167Zm28.796 3.016a.178.178 0 0 1-.059.101 3.9 3.9 0 0 0-.217.184c-1.505 1.379-2.743 4.346-3.361 8.033-.577 3.519-.46 7.038.3 8.768a.115.115 0 0 1 .017.05 4.418 4.418 0 0 1-.342.034c-1.539-3.594-.435-13.575 2.993-16.969.1-.1.2-.192.3-.276.126.025.252.05.369.075Z" fill="#66B0F0"/><path d="M85.278 138.373a1.045 1.045 0 1 0 0 2.09 1.045 1.045 0 0 0 0-2.09Zm0 1.747a.71.71 0 1 1 0-1.42.71.71 0 0 1 0 1.42Zm10.302-12.755s-.05.05-.126.142c-1.22-.343-4.707-1.17-8.846-2.073-.134-.025-.26-.058-.393-.083a290.584 290.584 0 0 0-8.713-1.747c-10.376-1.89-20.116-1.087-20.217-1.079a.142.142 0 0 1-.125-.042.169.169 0 0 1-.05-.125c0-.084.259-8.585-.377-23.539 0-.05-.008-.15 0-.318-.1-4.798-.735-16.183-4.406-20.304 1.438 1.53 2.492 4.03 3.261 6.746 1.137 4.84 1.413 10.516 1.48 13.558.008.142.008.243.008.293.586 13.742.418 22.051.385 23.372 1.405-.101 10.493-.652 20.117 1.103a295.183 295.183 0 0 1 9.306 1.889c2.675.577 5.058 1.129 6.73 1.538a70.73 70.73 0 0 1 1.965.669Z" fill="#66B0F0"/></g><g clip-path="url(#c)"><path d="M117.007 75.905c-1.926 0-3.7-2.357-4.994-6.638-1.258-4.157-1.95-9.679-1.95-15.547s.692-11.39 1.95-15.547c1.295-4.28 3.068-6.638 4.994-6.638 1.926 0 3.7 2.357 4.994 6.638 1.258 4.157 1.95 9.679 1.95 15.547s-.692 11.39-1.95 15.547c-1.294 4.28-3.068 6.638-4.994 6.638Zm0-43.7c-1.581 0-3.167 2.246-4.352 6.162-1.239 4.096-1.921 9.549-1.921 15.353 0 5.805.682 11.257 1.921 15.354 1.185 3.915 2.771 6.161 4.352 6.161 1.582 0 3.168-2.246 4.352-6.161 1.239-4.097 1.921-9.55 1.921-15.354 0-5.804-.682-11.257-1.921-15.353-1.184-3.916-2.77-6.162-4.352-6.162Z" fill="#FFCF2D"/><path d="M131.903 67.188c-1.291 0-2.865-.25-4.683-.756-4.19-1.166-9.233-3.538-14.197-6.68-4.965-3.142-9.266-6.682-12.11-9.968-2.928-3.383-3.973-6.14-2.942-7.764 1.031-1.625 3.975-1.858 8.29-.658 4.19 1.166 9.233 3.538 14.197 6.68 4.965 3.141 9.266 6.681 12.11 9.967 2.928 3.384 3.973 6.141 2.942 7.765-.597.94-1.834 1.414-3.607 1.414ZM101.56 41.271c-1.508 0-2.555.371-3.022 1.107-.847 1.334.204 3.873 2.883 6.968 2.802 3.238 7.05 6.733 11.961 9.84 4.911 3.108 9.889 5.452 14.018 6.6 3.947 1.098 6.697.963 7.543-.37.847-1.334-.204-3.873-2.883-6.968-2.802-3.238-7.05-6.733-11.961-9.84-4.911-3.108-9.889-5.452-14.018-6.6-1.768-.492-3.297-.737-4.521-.737Z" fill="#FFCF2D"/><path d="M101.579 67.188c-1.774 0-3.011-.474-3.608-1.414-1.031-1.624.014-4.381 2.942-7.765 2.844-3.286 7.145-6.826 12.11-9.968 4.965-3.141 10.007-5.513 14.197-6.679 4.315-1.2 7.259-.967 8.29.657 1.031 1.624-.014 4.382-2.942 7.765-2.844 3.286-7.145 6.826-12.11 9.968-4.964 3.142-10.007 5.514-14.197 6.68-1.817.505-3.392.756-4.682.756Zm11.623-18.864.18.283c-4.911 3.108-9.159 6.603-11.961 9.84-2.679 3.095-3.73 5.635-2.883 6.968.847 1.334 3.596 1.469 7.543.371 4.129-1.148 9.107-3.492 14.018-6.6 4.911-3.107 9.159-6.602 11.961-9.84 2.679-3.095 3.73-5.635 2.883-6.968-.846-1.333-3.595-1.468-7.543-.37-4.129 1.148-9.107 3.492-14.018 6.6l-.18-.283Z" fill="#FFCF2D"/><path d="M119.529 53.544c0 1.551-1.26 2.81-2.814 2.81a2.812 2.812 0 0 1-2.815-2.81c0-1.552 1.26-2.81 2.815-2.81a2.812 2.812 0 0 1 2.814 2.81Z" fill="#F94F46"/><path d="M102.74 48.637a2.367 2.367 0 0 1-2.369 2.365 2.367 2.367 0 0 1-2.37-2.365 2.367 2.367 0 0 1 2.37-2.365 2.367 2.367 0 0 1 2.369 2.365Zm33.77-1.012a2.367 2.367 0 0 1-2.369 2.365 2.368 2.368 0 0 1-2.37-2.365 2.368 2.368 0 0 1 2.37-2.365 2.367 2.367 0 0 1 2.369 2.365ZM123.616 71.32a2.367 2.367 0 0 1-2.369 2.366 2.367 2.367 0 0 1-2.369-2.366 2.367 2.367 0 0 1 2.369-2.365 2.367 2.367 0 0 1 2.369 2.365Z" fill="#9B3C82"/></g><g clip-path="url(#d)"><path d="m141.881 119.266 2.041-.676.283.854-2.04.675-.284-.853Z" fill="#5B2448"/><path d="m142.614 120.439-17.997 5.964c-.39.127-2.719.475-2.88.008-.153-.467 1.92-1.578 2.311-1.705l18.005-5.964c.391-.127.833.144.986.62.161.466-.034.95-.425 1.077Z" fill="#66B0F0"/><path d="M144.041 118.081a.353.353 0 0 1 .442.221l.34 1.035a.352.352 0 0 1-.221.441.353.353 0 0 1-.442-.22l-.34-1.035a.342.342 0 0 1 .221-.442Zm-8.323 2.755.831-.275.564 1.699-.831.275-.564-1.699Z" fill="#F94F46"/><path d="M122.655 126.649c-.485.017-.876-.076-.927-.237-.051-.161.213-.458.612-.738l.315.975Z" fill="#9B3C82"/></g><defs><clipPath id="a"><path fill="#fff" transform="translate(66.895 120.105)" d="M0 0h71.485v21.76H0z"/></clipPath><clipPath id="b"><path fill="#fff" transform="translate(18.105 38.25)" d="M0 0h119.765v107.355H0z"/></clipPath><clipPath id="c"><path fill="#fff" transform="translate(97.58 31.535)" d="M0 0h38.93v44.37H0z"/></clipPath><clipPath id="d"><path fill="#fff" transform="translate(121.72 118.064)" d="M0 0h23.12v8.585H0z"/></clipPath></defs></svg>