<svg width="200" height="200" fill="none" xmlns="http://www.w3.org/2000/svg"><g clip-path="url(#a)"><path d="M124.067 54.131a2.46 2.46 0 0 1-1.407-.443L91.728 32.093a2.461 2.461 0 1 1 2.818-4.034l30.932 21.595a2.46 2.46 0 0 1-1.411 4.477Z" fill="#66B0F0"/><path d="M48.349 53.06 91.84 28.002l2.457 4.264-43.492 25.057-2.457-4.263Z" fill="#66B0F0"/><path d="m47.259 55.039 4.921-.032.386 60.962-4.92.031-.387-60.961Z" fill="#66B0F0"/><path d="M49.894 68.188c7.144 0 12.934-5.79 12.934-12.931 0-7.142-5.79-12.931-12.934-12.931-7.143 0-12.934 5.79-12.934 12.93 0 7.143 5.79 12.932 12.934 12.932Z" fill="#B0DCF7"/><path d="M49.894 62.366a7.112 7.112 0 0 1-6.974-8.496 7.109 7.109 0 0 1 9.695-5.181 7.11 7.11 0 0 1 4.39 6.568 7.116 7.116 0 0 1-7.11 7.109Zm0-13.882a6.775 6.775 0 0 0-6.643 8.094 6.772 6.772 0 0 0 9.235 4.935 6.773 6.773 0 0 0 4.182-6.256 6.779 6.779 0 0 0-6.774-6.773Z" fill="#fff"/><path d="M92.687 37.29a7.166 7.166 0 1 0 0-14.33 7.166 7.166 0 1 0 0 14.33Z" fill="#B0DCF7"/><path d="M92.686 33.958a3.834 3.834 0 0 1-2.71-6.543 3.833 3.833 0 1 1 2.71 6.543Zm0-7.329a3.497 3.497 0 0 0-2.472 5.968 3.497 3.497 0 0 0 5.97-2.472 3.5 3.5 0 0 0-3.498-3.496Z" fill="#fff"/><path d="M124.451 55.933a3.76 3.76 0 1 0 0-7.52 3.76 3.76 0 0 0 0 7.52Z" fill="#B0DCF7"/><path d="m147.726 62.43-2.211.771a6.63 6.63 0 0 0-1.432-1.236l.444-2.3a.331.331 0 0 0-.218-.393l-1.927-.639a.332.332 0 0 0-.41.185l-1.019 2.11a6.62 6.62 0 0 0-1.886.136l-1.313-1.94a.33.33 0 0 0-.432-.123l-1.815.91a.331.331 0 0 0-.159.421l.772 2.211a6.593 6.593 0 0 0-1.236 1.431l-2.301-.443a.332.332 0 0 0-.393.218l-.639 1.927a.334.334 0 0 0 .012.24.334.334 0 0 0 .173.17l2.11 1.018a6.634 6.634 0 0 0 .136 1.885l-1.94 1.313a.332.332 0 0 0-.123.432l.91 1.814a.335.335 0 0 0 .421.159l2.212-.771a6.6 6.6 0 0 0 1.431 1.236l-.444 2.3a.332.332 0 0 0 .218.393l1.927.639a.332.332 0 0 0 .41-.185l1.019-2.11c.632.045 1.267 0 1.886-.136l1.313 1.94a.334.334 0 0 0 .432.123l1.815-.91a.331.331 0 0 0 .158-.421l-.771-2.211a6.62 6.62 0 0 0 1.236-1.43l2.301.442a.332.332 0 0 0 .393-.218l.639-1.926a.334.334 0 0 0-.012-.241.334.334 0 0 0-.173-.169l-2.11-1.019a6.633 6.633 0 0 0-.136-1.885l1.94-1.313a.332.332 0 0 0 .123-.432l-.911-1.814a.33.33 0 0 0-.42-.16Z" fill="#FFCF2D"/><path d="M140.556 69.879a2.311 2.311 0 1 0 0-4.622 2.311 2.311 0 0 0 0 4.622Z" fill="#9B3C82"/><path d="M140.556 71.918h-.004a4.348 4.348 0 0 1-4.348-4.351 4.347 4.347 0 0 1 4.352-4.348h.004a4.352 4.352 0 0 1 4.349 4.352 4.353 4.353 0 0 1-4.353 4.347Zm0-8.362a4.014 4.014 0 0 0-2.841 6.849 4.016 4.016 0 0 0 2.838 1.176h.003a4.014 4.014 0 0 0 4.016-4.01 4.012 4.012 0 0 0-4.012-4.015h-.004Z" fill="#fff"/><path d="m122.979 67.025 10.994 13.452 2.054-2.05-7.697-14.301 8.684-8.668 14.292 7.72 2.054-2.049-13.436-11.015a3.577 3.577 0 0 0-4.793.234l-11.91 11.886a3.572 3.572 0 0 0-.242 4.79Z" fill="#B0DCF7"/><path d="M125.236 65.966a1.47 1.47 0 1 1 0-2.94 1.47 1.47 0 0 1 0 2.94Zm0-2.605a1.124 1.124 0 0 0-.802.332 1.136 1.136 0 0 0 1.236 1.849 1.137 1.137 0 0 0 .678-1.269 1.132 1.132 0 0 0-1.112-.912Zm12.581-9.52a1.47 1.47 0 0 1-1.294-2.163 1.47 1.47 0 1 1 1.294 2.163Zm0-2.603a1.136 1.136 0 0 0-1.111.912 1.13 1.13 0 0 0 .679 1.267 1.132 1.132 0 1 0 .432-2.18Z" fill="#fff"/><path d="m125.974 55.862 2.748-2.747a3.167 3.167 0 0 1 4.476 0l1.159 1.158-7.224 7.222-1.159-1.158a3.166 3.166 0 0 1 0-4.475Z" fill="#B0DCF7"/></g><g clip-path="url(#b)"><path d="M175.664 167.12H45.456a5.385 5.385 0 0 1-3.801-1.57 5.352 5.352 0 0 1 0-7.58 5.385 5.385 0 0 1 3.801-1.57h130.208c1.426 0 2.793.565 3.801 1.57a5.348 5.348 0 0 1 0 7.58 5.367 5.367 0 0 1-3.801 1.57Z" fill="#FFCF2D"/><path d="M45.982 165.344a3.59 3.59 0 0 0 3.595-3.584 3.59 3.59 0 0 0-3.595-3.584 3.59 3.59 0 0 0-3.595 3.584 3.59 3.59 0 0 0 3.595 3.584Zm74.989-.273a3.58 3.58 0 0 0 1.946-4.683 3.599 3.599 0 0 0-4.697-1.939 3.581 3.581 0 0 0-1.946 4.683 3.599 3.599 0 0 0 4.697 1.939Zm-19.908.273a3.59 3.59 0 0 0 3.595-3.584 3.59 3.59 0 0 0-3.595-3.584 3.59 3.59 0 0 0-3.595 3.584 3.59 3.59 0 0 0 3.595 3.584Zm-18.533 0a3.59 3.59 0 0 0 3.595-3.584 3.59 3.59 0 0 0-3.595-3.584 3.59 3.59 0 0 0-3.595 3.584 3.59 3.59 0 0 0 3.595 3.584Zm-18.533 0a3.59 3.59 0 0 0 3.595-3.584 3.59 3.59 0 0 0-3.595-3.584 3.59 3.59 0 0 0-3.595 3.584 3.59 3.59 0 0 0 3.595 3.584Zm110.859 0a3.59 3.59 0 0 0 3.594-3.584 3.589 3.589 0 0 0-3.594-3.584 3.589 3.589 0 0 0-3.595 3.584 3.59 3.59 0 0 0 3.595 3.584Zm-18.242 0a3.59 3.59 0 0 0 3.595-3.584 3.589 3.589 0 0 0-3.595-3.584 3.59 3.59 0 0 0-3.595 3.584 3.59 3.59 0 0 0 3.595 3.584Zm-18.533 0a3.59 3.59 0 0 0 3.595-3.584 3.589 3.589 0 0 0-3.595-3.584 3.59 3.59 0 0 0-3.595 3.584 3.59 3.59 0 0 0 3.595 3.584Z" fill="#FFBD11"/></g><g clip-path="url(#c)"><path d="M135.922 122.842c-6.8 6.021-21.568 33.518-14.278 33.525 5.436.007 14.278-10.402 14.278-33.525ZM50.34 138.775c-8.258-3.985-23.987-12.915-27.683-8.548-4.858 5.726 27.683 8.548 27.683 8.548Z" fill="#5B2448"/><path d="M135.922 122.843c-.033.027-.06.053-.094.08-.034.027-.067.061-.101.094-1.028.968-2.56 2.91-4.266 5.396a107.974 107.974 0 0 0-3.662 5.719 124.447 124.447 0 0 0-2.547 4.475c-1.747 3.253-3.286 6.538-4.273 9.394-.115.33-.222.652-.316.961-.007.027-.014.041-.014.054 0 .007-.006.007-.006.013-1.196 3.864-1.203 6.747.954 7.332.013.006.027.006.033.013H57.664l.786-3.427 1.855-8.104.033-.134s-.04-.02-.114-.068c-.255-.154-.934-.557-1.935-1.135-.417-.242-.88-.511-1.398-.807-.732-.416-1.565-.887-2.472-1.391-.101-.053-.202-.114-.31-.174-.739-.41-1.531-.847-2.358-1.29-.201-.115-.41-.222-.618-.336-.484-.262-.981-.525-1.492-.793-.228-.121-.45-.242-.678-.356-3.931-2.063-8.386-4.254-12.518-5.961h-.007c-6.343-2.614-11.94-4.085-13.767-2.191l-.014.014c.356-.457 9.683-12.324 21.428-21.759 5.745-4.616 12.074-8.648 18.215-10.476a24.666 24.666 0 0 1 4.925-.967 20.51 20.51 0 0 1 1.566-.074h.343a16.609 16.609 0 0 1 5.08.84c.033.013.067.02.1.033.148.047.29.101.43.155.108.04.208.08.316.128a15.962 15.962 0 0 1 3.857 2.251l.074.053.477.014 19.048.47a15.03 15.03 0 0 1 1.727-.98l.128-.061.309-.141c.175-.081.356-.162.538-.236a17.321 17.321 0 0 1 2.687-.846l.269-.06c.02-.007.034-.007.054-.014a17.492 17.492 0 0 1 .746-.135l.389-.06c.021 0 .047-.007.074-.007a18.497 18.497 0 0 1 3.729-.134c.135.007.269.02.41.027l.222.02c.242.02.491.047.732.08 3.266.43 6.767 1.721 10.274 4.194 2.567 1.807 5.14 4.253 7.626 7.459a52.15 52.15 0 0 1 2.937 4.213c.43.685.86 1.398 1.283 2.143a71.744 71.744 0 0 1 1.928 3.622c.289.592.578 1.196.867 1.815.087.181.168.363.249.551.074.154.147.329.228.504Z" fill="#F94F46"/><path d="M88.64 115.995a.538.538 0 1 0 0-1.075.538.538 0 0 0 0 1.075Zm.356 7.338a.538.538 0 1 0-.001-1.076.538.538 0 0 0 0 1.076Z" fill="#FCB6B1"/><path d="M98.947 100.613c-.141.088-.283.175-.424.269 1.431 4.213.834 11.773-1.169 14.165-.47.565-.994.807-1.545.706-1.23-.215-3.272-2.103-6.047-9.851l-.511-1.431.04 1.518c.108 3.817-2.68 9.562-5.328 9.663-1.458.054-2.446-1.707-3.017-3.192-.994-2.6-1.646-6.659-1.942-12.062h-.02a22.96 22.96 0 0 0-.484-.369v.04c.282 5.631.954 9.858 1.99 12.566.886 2.325 2.028 3.508 3.392 3.508h.094c1.385-.054 2.87-1.391 4.079-3.669a15.553 15.553 0 0 0 1.498-4.22c.518 4.415 1.56 14.037 1.156 16.739-.376 2.506-3.447 2.943-3.48 2.943a.243.243 0 0 0-.209.275.236.236 0 0 0 .242.209h.034c.033-.007 3.467-.491 3.897-3.353.423-2.843-.665-12.755-1.176-17.089 2.03 5.161 3.944 7.936 5.705 8.252.107.02.215.027.322.027.605 0 1.183-.309 1.68-.9 1.041-1.25 1.767-3.743 1.995-6.855.229-2.95-.06-5.886-.772-7.889Z" fill="#FCB6B1"/><path d="M120.65 149.029a27.628 27.628 0 0 0 3.178 2.769c.262.201.537.403.826.604 2.842 2.01 6.921 4.12 11.275 4.046 6.02-.094 12.726-7.775 17.779-19.044 3.944-8.803 5.342-14.474 14.574-21.664 9.071-7.07 4.374-6.606 2.916-5.927 8.775-7.385 2.237-5.732 2.237-5.732 6.995-7.48-4.374-2.527-4.374-2.527s6.585-6.538-1.552-3.4c-6.8 2.621-10.878 5.443-10.878 5.443-2.426-.78-16.153 12.552-20.924 18.721-.309.397-.584.766-.833 1.095a120.703 120.703 0 0 0-2.493 3.448c-.013.013-.02.033-.033.053a121.727 121.727 0 0 0-4.012 6.142c-5.953 9.737-7.686 15.973-7.686 15.973Z" fill="#F4ADA2"/><path d="M120.65 149.029a27.628 27.628 0 0 0 3.178 2.769c.262.201.537.403.826.604.43.303-.914-10.254 3.662-19.339-5.933 9.73-7.666 15.966-7.666 15.966Zm34.879-38.034a.236.236 0 0 0-.168.296c1.075 3.904-.76 8.124-2.009 9.999a.24.24 0 0 0 .201.376c.081 0 .155-.04.202-.107 1.297-1.949 3.191-6.323 2.069-10.402a.243.243 0 0 0-.295-.162Zm10.414 1.492a.24.24 0 0 0-.06.336.244.244 0 0 0 .336.068c.181-.121.363-.256.558-.39 1.088-.759 2.465-1.727 4.421-2.688.477-.403.914-.779 1.303-1.129-2.815 1.196-4.636 2.466-6 3.42-.195.135-.376.262-.558.383Zm-.584-3.978a.238.238 0 0 0-.054.336.237.237 0 0 0 .195.101.213.213 0 0 0 .141-.047c.202-.148.437-.323.699-.524 1.323-1.002 3.42-2.574 7.102-4.301.302-.323.585-.632.82-.914-4.361 1.922-6.76 3.723-8.211 4.825a36.8 36.8 0 0 1-.692.524Zm-1.687-3.662a.244.244 0 0 0 .007.343c.047.04.107.067.168.067a.245.245 0 0 0 .175-.074c.013-.02 1.444-1.492 5.032-3.629.074-.074.558-.564 1.082-1.182-4.629 2.573-6.39 4.394-6.464 4.475Z" fill="#9B3C82"/><path d="M99.665 68.527a1.461 1.461 0 0 1-.14.074c-3.683 1.962-11.739 13.876-11.739 13.876s-5.402-4.764-7.902-5.349c.182-2.816-1.653-5.88-2.674-7.318a4.394 4.394 0 0 1-.631-1.283h23.087Z" fill="#5B2448"/><path d="M106.613 83.324c.43 1.384.007 3.024-1.29 4.186-3.373 3.031-8.708 2.99-8.708 2.99s.94 6.983 1.908 10.383c0 0-9.615 11.947-19.526-.484 0 0 2.903-6.451 4.173-13.614-2.809.242-7.66-1.667-7.814-5.51-.088-2.191 1.76-4.409 4.085-4.268 2.257.135 3.346 1.223 5.47 2.702 1.975 1.37 2.217.295 2.808-2.023.524-2.063 1.592-4.005 2.46-5.14 1.948-2.56 6.355-3.596 9.352-3.945a51.304 51.304 0 0 0 1.922 6.538c1.35 3.757 4.159 4.953 5.16 8.185Z" fill="#F4ADA2"/><path d="m90.232 74.675-.047-.228a2.855 2.855 0 0 1-.034-.625 3.33 3.33 0 0 1 .141-.813 3.713 3.713 0 0 1 .867-1.492 3.46 3.46 0 0 1 .712-.578c.27-.161.558-.282.854-.356a2.7 2.7 0 0 1 .9-.067c.296.027.585.114.847.255a.694.694 0 0 1 .127 1.116l-.094.087c-.188.175-.356.289-.497.417-.148.114-.269.228-.39.329-.235.208-.436.383-.658.585-.222.201-.45.436-.706.705l-.396.43a6.82 6.82 0 0 1-.215.229 1.395 1.395 0 0 1-.612.403.74.74 0 0 1-.383.027.546.546 0 0 1-.39-.316c-.006-.034-.02-.067-.026-.108Zm1.565 1.667c.605-.275 2.083-.9 3.347-1.942a.407.407 0 0 1 .577.054v.007c.37.457.847 1.31-.107 1.908-1.17.733-3.306.786-3.87.336a.212.212 0 0 1-.027-.296.157.157 0 0 1 .08-.067Zm8.42-3.199c-.625.229-1.116.283-2.332.403a.415.415 0 0 0-.376.45c.053.592.463 1.11 1.404 1.002 1.048-.114 1.525-1.015 1.586-1.633a.217.217 0 0 0-.195-.235c-.027 0-.054 0-.087.013Z" fill="#5B2448"/><path d="M85.313 86.388a.245.245 0 0 0-.329-.107 6.147 6.147 0 0 1-1.834.591c-.034.168-.06.336-.094.504a6.522 6.522 0 0 0 2.143-.665.236.236 0 0 0 .114-.323Z" fill="#9B3C82"/><path d="M97.294 69.353a1.919 1.919 0 0 0-.43.672.63.63 0 0 0 .564.847l.114.007c.229.006.41-.007.585-.007.168-.007.322 0 .464 0 .282.007.524.007.799.013.222.007.457.027.719.054a55.948 55.948 0 0 1-.578-2.325c-.457.054-.947.121-1.458.215l-.114.054a2.002 2.002 0 0 0-.665.47ZM91.011 88.86c-.584.545.31 5.162 5.974 5.551.08.007.154.007.221.014-.356-2.177-.59-3.924-.59-3.924-.008 0-3.515-.27-5.605-1.64Z" fill="#5B2448"/><path opacity=".52" d="M94.276 81.885a2.769 2.769 0 1 0-5.466-.887 2.769 2.769 0 0 0 5.466.887Z" fill="#E57281"/><path d="M100.378 80.73a1.99 1.99 0 0 1-.961.557 2.46 2.46 0 0 1-1.109.047 2.21 2.21 0 0 1-.98-.504 2.058 2.058 0 0 1-.599-.94v-.007a.216.216 0 0 0-.423.067c.034.498.242.961.585 1.324a2.5 2.5 0 0 0 2.728.605c.228-.08.443-.202.638-.35a1.76 1.76 0 0 0 .484-.557.224.224 0 0 0-.094-.296.24.24 0 0 0-.269.054Zm-16.704 2.426a.24.24 0 0 0 .242-.242.28.28 0 0 0-.034-.121c-2.123-3.71-5.536-2.702-5.57-2.695a.242.242 0 0 0-.161.302c.04.128.175.195.302.162.128-.04 3.078-.894 5.006 2.473.047.074.128.12.215.12Z" fill="#9B3C82"/><path d="M99.39 78.177c.054 0 .108-.02.141-.06.538-.579.759-1.009.712-1.392-.053-.49-.524-.806-1.075-1.169-1.223-.826-1.182-1.572-1.182-1.58a.19.19 0 0 0-.175-.207.186.186 0 0 0-.208.174c-.007.04-.088.975 1.35 1.942.538.363.867.605.9.894.028.255-.174.612-.61 1.082a.193.193 0 0 0 .013.275c.033.02.08.04.134.04Z" fill="#5B2448"/><path d="M120.34 156.381H58.423c4.791-11.236 10.187-23.21 10.764-29.298 13.66 3.615 27.153 3.615 40.483 0a131.205 131.205 0 0 0 3.071 11.06 125.913 125.913 0 0 0 7.559 18.17c.02.027.027.047.04.068Z" fill="#66B0F0"/><path d="M67.091 137.082c-.591.067-1.176.134-1.747.201a117.486 117.486 0 0 0-10.549 1.794c-.08.021-.161.034-.242.054-1.33.296-2.083.491-2.083.491h-.013c-5.826-2.231-14.077-4.852-23.255-5.645a36.825 36.825 0 0 1 1.901-2.956c-.45.604-1.135 1.632-1.901 2.956-2.218 3.824-5.134 10.1-5.134 15.704 0 5.242 2.553 9.905 10.623 11.417 5.759 1.082 13.929-1.344 21.65-3.938l.9-.302c2.083-.706 4.119-1.411 6.06-2.056.303-.101.605-.202.9-.296 2.285-.746 8.037-2.795 9.918-3.219 1.31-.295 2.769-.793 3.803-.84 5.342 3.689 3.185-1.444 2.21-3.776 0 0 .034-.477.559-1.163.396-.517 6.51 1.667 6.343.833.315-.295.57-.651.752-1.041.06-.121 3.124-3.575 3.165-3.709-5.288-6.552-19.533-4.603-23.86-4.509Z" fill="#F4ADA2"/><path d="M31.466 130.543c-.094.121-.215.276-.356.471a38.195 38.195 0 0 0-1.902 2.957c9.172.792 17.423 3.413 23.255 5.644h.007c-.356-.289-13.472-7.089-21.004-9.072Z" fill="#9B3C82"/><path d="M56.058 138.661v.141c0 .383 0 .766.007 1.156v.174c.02.995.074 2.003.148 3.017.027.397.067.8.1 1.197.397 4.186 1.237 8.366 2.4 12.008.302-.101.604-.202.9-.303 2.083-.705 4.118-1.411 6.06-2.056-.994-3.145-1.713-6.834-2.049-10.51-.04-.436-.074-.873-.108-1.31a46.537 46.537 0 0 1-.107-3.467l-1.928-.014-4.919-.027H56.3l-.242-.006Z" fill="#5B2448"/><path d="M60.416 144.657c3.466-.557 5.96-2.969 5.572-5.388-.389-2.418-3.513-3.927-6.98-3.37-3.465.558-5.96 2.97-5.571 5.388.389 2.418 3.513 3.927 6.98 3.37Z" fill="#5B2448"/><path d="M58.927 145.3a9.33 9.33 0 0 0 1.56-.128 9.14 9.14 0 0 0 3.19-1.122c-.02-.175-.033-.356-.053-.531-.907.565-2.002.981-3.219 1.176-1.444.235-2.869.121-4.085-.302.02.174.034.356.054.53.8.249 1.66.377 2.553.377Zm1.281-1.953c3.367-.541 5.827-2.661 5.493-4.735-.333-2.074-3.333-3.316-6.7-2.775-3.367.542-5.826 2.662-5.493 4.735.334 2.074 3.333 3.317 6.7 2.775Z" fill="#fff"/><path d="M59.149 139.776h.034l3.655-.457a.243.243 0 0 0 .208-.275.247.247 0 0 0-.269-.209l-3.413.43-.222-2.103a.243.243 0 0 0-.484.04v.007l.25 2.352a.241.241 0 0 0 .241.215Z" fill="#5B2448"/><path d="M52.51 139.629c-5.53 1.505-11.254 3.662-15.857 6a.24.24 0 1 1-.215-.43c4.563-2.318 10.018-4.394 15.434-5.9l.638.33Z" fill="#9B3C82"/><path d="M92.9 148.546a1.77 1.77 0 0 1-.592-.101 3.58 3.58 0 0 1-.645-.302c-.007-.007-.013-.007-.02-.014.208.806-.114 1.478-1.23 1.835-.228.067-.47.1-.712.087a2.807 2.807 0 0 1-.578-.081c-.007 0-.013 0-.013-.006.362 1.108.027 1.915-1.411 1.955a3.87 3.87 0 0 1-.84-.067 3.629 3.629 0 0 1-.652-.182s-.007 0-.007-.006c.188.987-.154 1.794-1.29 2.13-1.317.39-4.213-.706-5.066-1.028-1.539-.571-2.634-1.069-3.427-1.519a8.168 8.168 0 0 1-.645-.41c-1.29-.907-1.424-1.707-1.64-2.742l3.918-2.009c-.78-.477-1.451-.873-1.895-1.149l2.816-.403 6.087-1.599c.161.047.316.101.477.161-1.344-.887-2.647-1.66-3.413-2.238l5.583-1.868c4.879 2.567 9.3 9.401 5.194 9.556Z" fill="#F4ADA2"/><path d="M92.308 148.445a3.83 3.83 0 0 1-.665-.316c-.02-.061-.027-.108-.047-.168-.04-.101-.074-.195-.114-.289-1.68-3.992-4.603-4.644-4.832-4.684a.256.256 0 0 1-.221-.403c.1-.141.255-.108.35-.087.16.026 3.836.806 5.529 5.947Zm-2.6 1.606a3.001 3.001 0 0 1-.598-.081c-.034-.094-.054-.181-.094-.268a6.363 6.363 0 0 0-.303-.612.422.422 0 0 0-.053-.094 7.102 7.102 0 0 0-.746-1.095c-1.6-1.929-3.635-2.231-3.797-2.251a.255.255 0 0 1-.074-.504c.115-.027.672.04 1.425.342 1.33.531 3.239 1.794 4.24 4.563Zm-2.843 1.801a3.772 3.772 0 0 1-.665-.182 7.178 7.178 0 0 0-2.5-2.782c-.98-.625-1.8-.799-1.807-.799a.257.257 0 0 1 .101-.504c.135.04 3.272.705 4.871 4.267Zm-3.789.759a.255.255 0 0 1-.363 0c-1.767-1.754-4.851-1.559-6.289-1.358a7.956 7.956 0 0 1-.625-.396c.84-.161 1.666-.249 2.52-.249 2.056.021 3.695.585 4.757 1.633.1.108.1.269 0 .37Z" fill="#9B3C82"/><path d="M103.67 69.024c-4.267.793-10.273 2.204-15.239 4.818h-.007a19.4 19.4 0 0 1-1.034.571l-.222.115-.235.114c-1.76.853-4.737 2.016-9.05 2.795-2.185.43-2.138-1.861-1.405-2.164-.034-.168-.06-.329-.094-.49a37.133 37.133 0 0 1-.437-2.977c-.02-.175-.034-.343-.054-.51-.289-3.152-.04-5.598.638-7.493.061-.168.128-.336.195-.497a8.195 8.195 0 0 1 2.01-2.903c.45-.41.94-.773 1.464-1.082.04-.02.08-.047.121-.067.276-.162.564-.303.853-.437l.047-.02c.04-.02.081-.04.128-.054.249-.108.504-.215.766-.31.014-.006.027-.006.04-.013.276-.1.558-.201.847-.282a13.738 13.738 0 0 1 3.172-.578c2.082-.12 3.984.007 5.22 1.008l.007.007c.316.013.564.033.786.067.202.027.403.074.605.128 1.861.51 5.543 2.452 6.262 6.33 0 .013.007.02.007.027a4.924 4.924 0 0 1 .04.268c.014.068.02.142.027.202 0 .014 0 .02.007.034v.026s.006.007.013.02l4.737 2.675a.406.406 0 0 1-.215.672Z" fill="#FFCF2D"/><path d="m86.214 67.284.007.02c-3.636 2.943-7.633 4.072-10.267 4.502-.02-.174-.034-.343-.054-.51 2.506-.417 6.262-1.472 9.73-4.173-1.244-2.87-3.38-4.886-6.364-6.001a11.86 11.86 0 0 0-.934-.31c.135-.14.269-.275.41-.41.222.068.45.149.679.236 2.23.833 5.227 2.654 6.82 6.632l-.027.014ZM96.582 66l-.498.128a7.472 7.472 0 0 0-.114-.416c-.894-2.99-3.003-5.55-4.562-7.137.316.014.564.034.786.067 1.538 1.64 3.42 4.08 4.273 6.949.04.127.08.268.115.41Zm-4.509 1.358-.497.12a94.972 94.972 0 0 1-.04-.16c-.914-3.502-2.997-6.102-6.196-7.728a14.074 14.074 0 0 0-3.218-1.163c.013-.007.027-.007.04-.013.276-.101.558-.202.847-.283.88.256 1.733.585 2.546 1.002C87.84 60.288 90.79 62.6 92 67.069c.027.094.054.194.074.288Z" fill="#FFBD11"/><path d="M86.946 70.617c-.463.927-.43 1.982.094 3.131.108.229.222.45.356.665l-.221.115-.236.114a6.324 6.324 0 0 1-.356-.665c-.591-1.284-.625-2.527-.094-3.589 1.364-2.735 8.285-4.542 12.578-5.268.007.04.074.49.074.504-4.622.786-10.999 2.6-12.195 4.993Z" fill="#FFBD11"/><path d="M120.307 156.32h-34.61c13.713-1.64 25.284-4.993 27.051-18.17a126.13 126.13 0 0 0 7.559 18.17Z" fill="#649FE3"/><path d="M109.791 98.249v33.43h-5.61V98.558c.02-.007.033-.007.054-.014a17.435 17.435 0 0 1 .745-.134l.39-.06c.02 0 .047-.007.074-.007a18.497 18.497 0 0 1 3.729-.134c.135.006.269.02.41.026.06 0 .134.007.208.014Zm-35.041-.283v31.569h-5.61V96.938a16.606 16.606 0 0 1 5.08.84c.034.013.067.02.1.034.142.047.29.1.43.154Z" fill="#66B0F0"/><path d="M106.989 132.963a1.888 1.888 0 1 0-.001-3.777 1.888 1.888 0 0 0 .001 3.777Zm-35.04-.115a1.888 1.888 0 1 0 0-3.776 1.888 1.888 0 0 0 0 3.776Z" fill="#FFBD11"/></g><g clip-path="url(#d)"><path d="m99.849 143.741-.787.362-4.69 2.158c-.674-1.746-1.843-3.21-3.007-4.341l5.523-2.542.788-.362.64 1.393.892 1.938.64 1.394Z" fill="#FFCF2D"/><path d="m120.899 130.488.56 1.219a.673.673 0 0 1-.236.832l-5.657 3.827a.69.69 0 0 1-.559.093.674.674 0 0 1-.429-.363l-1.513-3.288a.671.671 0 0 1 .444-.927l6.609-1.757a.676.676 0 0 1 .458.04.661.661 0 0 1 .323.324Z" fill="#B0DCF7"/><path d="m115.272 132.607.892 1.938-17.63 8.112-.891-1.938 17.629-8.112Z" fill="#B0DCF7"/><path d="M99.233 144.475c.321.697 1.153 1 1.858.675a1.397 1.397 0 0 0 .695-1.85l-2.516-5.469c-.32-.697-1.152-1-1.857-.675a1.398 1.398 0 0 0-.696 1.85l2.516 5.469Z" fill="#FFCF2D"/></g><g clip-path="url(#e)"><path d="m170.645 135.18-.175 2.792-.003.045a4.47 4.47 0 0 1-.903-.171 5.933 5.933 0 0 1-2.181-1.158 6.445 6.445 0 0 1-1.807-2.502 7.672 7.672 0 0 1-.197-.523c-.339-1.001-.481-2.049-.515-3.024a15.147 15.147 0 0 1 .011-1.253c.056-1.106-.088-2.101-.432-2.986a5.867 5.867 0 0 0-1.605-2.288 4.385 4.385 0 0 0-.207-.177 8.892 8.892 0 0 0-.387-.297l-.002-.001a7.773 7.773 0 0 0-1.056-.631 8.097 8.097 0 0 0-1.877-.682l.511-2.797c.465.097.921.228 1.366.394.96.343 1.87.814 2.704 1.4.161.115.323.238.487.37l.065.053c.123.1.247.207.369.319.017.016.035.031.052.049a8.694 8.694 0 0 1 2.343 3.552c.342.988.543 2.133.52 3.458-.002.134-.007.271-.014.409l-.003.068c-.05 1.075.037 2.018.254 2.809.042.16.093.317.151.472.252.682.618 1.23 1.092 1.627.073.062.146.117.219.167.362.261.78.434 1.22.506Z" fill="#FFCF2D"/><path d="M140.01 138.415h11.147v7.545H140.01v-7.545Z" fill="#5B2448"/><path d="M163.218 153.042v1.034a2.486 2.486 0 0 1-2.481 2.483h-25.615v-10.964h19.754v.004c.608-.014 1.2.198 1.662.593l5.81 4.961a2.489 2.489 0 0 1 .87 1.889Z" fill="#9B3C82"/><path d="M129.392 156.559h11.276a2.481 2.481 0 0 0 2.481-2.483v-1.034a2.474 2.474 0 0 0-.87-1.889l-5.81-4.961a2.483 2.483 0 0 0-3.27.043l-5.467 4.922a2.487 2.487 0 0 0-.821 1.846v1.073a2.481 2.481 0 0 0 2.481 2.483Z" fill="#5B2448"/><path d="M133.613 153.581a1.89 1.89 0 0 0-1.022-2.469 1.887 1.887 0 0 0-2.467 1.023 1.888 1.888 0 1 0 3.489 1.446Zm4.47 1.167a1.89 1.89 0 1 0-.001-3.78 1.89 1.89 0 0 0 .001 3.78Z" fill="#9B3C82"/><path d="M159.268 153.238v1.108c.001.422-.091.839-.269 1.221a2.864 2.864 0 0 1-.759.993h-.754a2.464 2.464 0 0 0 1.368-2.214v-1.108a2.466 2.466 0 0 0-.843-1.867l-3.135-2.669-2.234-1.902-1.413-1.205h.637l1.086.925 1.924 1.638 3.404 2.899a2.896 2.896 0 0 1 .988 2.181Zm-5.055 0v1.108a2.874 2.874 0 0 1-1.028 2.214h-.753a2.457 2.457 0 0 0 1.368-2.214v-1.108a2.466 2.466 0 0 0-.844-1.867l-2.771-2.36-4.011-3.416h.638l3.684 3.137 2.73 2.325a2.885 2.885 0 0 1 .987 2.181Zm-5.307 0v1.108a2.886 2.886 0 0 1-1.029 2.214h-.753c.286-.139.541-.334.751-.573a2.473 2.473 0 0 0 .617-1.641v-1.108a2.466 2.466 0 0 0-.844-1.867l-.032-.028-6.749-5.748h.637l6.411 5.46.003.002a2.895 2.895 0 0 1 .988 2.181Z" fill="#5B2448"/><path d="M161.186 112.992v26.678a2.496 2.496 0 0 1-.727 1.756 2.477 2.477 0 0 1-1.755.727h-28.616a2.477 2.477 0 0 1-2.293-1.533 2.495 2.495 0 0 1-.188-.95v-26.678a2.483 2.483 0 0 1 2.481-2.483h28.616a2.482 2.482 0 0 1 2.482 2.483Z" fill="#9B3C82"/><path d="M140.694 94.093h.744v8.73h-.744v-8.73Zm7.451 0h.744v8.73h-.744v-8.73Z" fill="#5B2448"/><path d="M154.577 110.526h-19.292v-6.324a4.168 4.168 0 0 1 1.222-2.953 4.183 4.183 0 0 1 2.951-1.224h10.946a4.167 4.167 0 0 1 3.855 2.579c.21.506.318 1.049.318 1.598v6.324Z" fill="#5B2448"/><path d="M141.066 94.632a1.796 1.796 0 1 0-.001-3.592 1.796 1.796 0 0 0 .001 3.592Zm7.567 0c.991 0 1.794-.804 1.794-1.796a1.795 1.795 0 1 0-1.794 1.796Z" fill="#FFBD11"/><path d="M141.226 108.407h8.6a1.637 1.637 0 0 0 1.637-1.638v-1.172a1.647 1.647 0 0 0-.48-1.158 1.629 1.629 0 0 0-1.157-.48h-8.6a1.628 1.628 0 0 0-1.158.48 1.628 1.628 0 0 0-.479 1.158v1.172a1.639 1.639 0 0 0 1.637 1.638Z" fill="#FFCF2D"/><path d="M142.174 107.216a1.032 1.032 0 1 0-.002-2.064 1.032 1.032 0 0 0 .002 2.064Zm6.704 0a1.033 1.033 0 1 0-.002-2.066 1.033 1.033 0 0 0 .002 2.066Z" fill="#F94F46"/><path d="M136.176 117.195h21.704v6.889h-21.704v-6.889Z" fill="#5B2448"/><path d="M137.942 118.486h4.715v4.432h-4.715v-4.432Zm6.644.001h4.715v4.432h-4.715v-4.432Zm6.644 0h4.715v4.432h-4.715v-4.432Z" fill="#FFCF2D"/><path d="M136.126 127.024h21.804v1.471h-21.804v-1.471Z" fill="#F94F46"/><path d="M136.118 142.153h-6.051a2.483 2.483 0 0 1-2.461-2.483v-26.677a2.484 2.484 0 0 1 2.482-2.484v-.009h6.051a2.722 2.722 0 0 0-2.341 2.165v27.42a2.722 2.722 0 0 0 2.32 2.068Z" fill="#5B2448"/><path d="M169.929 141.865a.782.782 0 0 1-.782-.783v-2.543a.784.784 0 0 1 1.333-.549c.146.146.23.343.232.549v2.543a.791.791 0 0 1-.483.724.79.79 0 0 1-.3.059Z" fill="#FFCF2D"/><path d="M173.091 140.529a.79.79 0 0 1-.554-.229l-1.771-1.773a.783.783 0 0 1 1.106-1.107l1.772 1.773a.783.783 0 0 1-.554 1.336h.001Zm1.087-3.263h-2.115a.778.778 0 0 1-.789-.783.777.777 0 0 1 .488-.725.779.779 0 0 1 .301-.058h2.115a.776.776 0 0 1 .558.227.789.789 0 0 1 .171.858.785.785 0 0 1-.729.481Z" fill="#FFCF2D"/><path d="M172.203 138.977a2.622 2.622 0 0 0 0-3.705 2.615 2.615 0 0 0-3.701 0 2.62 2.62 0 0 0 0 3.705 2.615 2.615 0 0 0 3.701 0Zm-4.998-13.313a3.047 3.047 0 0 0-2.762.737 5.618 5.618 0 0 0-.2-.456 3.526 3.526 0 0 1 2.762-.8 8.6 8.6 0 0 1 .2.519Zm-2.343-3.553a3.153 3.153 0 0 0-2.024 2.001 4.385 4.385 0 0 0-.207-.177 4.02 4.02 0 0 0-.192-.153 3.622 3.622 0 0 1 2.002-2.038c.123.1.247.207.37.319l.051.048Zm2.864 7.011c-.003.135-.008.271-.015.409l-.002.069a3.052 3.052 0 0 0-2.846 1.039 16.823 16.823 0 0 1-.007-.67 3.535 3.535 0 0 1 2.87-.847Zm.387 3.758a3.041 3.041 0 0 0-1.04.17 3.016 3.016 0 0 0-1.498 1.136 8.476 8.476 0 0 1-.197-.523 3.531 3.531 0 0 1 2.584-1.255c.043.16.093.317.151.472Z" fill="#FFBD11"/><path d="M131.086 120.538c0 .804-.442 1.456-.988 1.459h-2.327v-2.916h2.327c.546.003.988.654.988 1.457Z" fill="#FFCF2D"/><path d="M127.787 121.998c.545 0 .987-.653.987-1.459s-.442-1.459-.987-1.459c-.545 0-.987.653-.987 1.459s.442 1.459.987 1.459Z" fill="#FFBD11"/></g><defs><clipPath id="a"><path fill="#fff" transform="translate(36.96 22.96)" d="M0 0h116.4v93.04H0z"/></clipPath><clipPath id="b"><path fill="#fff" transform="translate(40.08 156.4)" d="M0 0h140.96v10.72H0z"/></clipPath><clipPath id="c"><path fill="#fff" transform="translate(22.16 57.52)" d="M0 0h153.6v103.84H0z"/></clipPath><clipPath id="d"><path fill="#fff" transform="rotate(65.043 -39.946 157.021)" d="M0 0h8.8v31.6H0z"/></clipPath><clipPath id="e"><path fill="#fff" transform="translate(126.8 91.04)" d="M0 0h48.16v65.52H0z"/></clipPath></defs></svg>