<svg width="200" height="200" fill="none" xmlns="http://www.w3.org/2000/svg"><g clip-path="url(#a)"><path d="M52.896 98.07c-3.04-2.852-7.813-2.697-10.671.335-2.858 3.032-2.702 7.796.337 10.648 3.039 2.851 7.813 2.696 10.67-.336 2.858-3.033 2.703-7.796-.336-10.648Zm-8.608 9.156a5.014 5.014 0 0 1-.224-7.098c1.9-2.024 5.085-2.12 7.114-.224 2.029 1.895 2.123 5.074.224 7.099-1.908 2.015-5.093 2.119-7.114.223Z" fill="#5B2448"/><path d="M59.656 117.797a4.167 4.167 0 0 1-.89 1.447l-2.616 2.774c-.008.009-.017.017-.017.026l-10.956 11.638a4.206 4.206 0 0 1-5.93.19l-21.074-19.745a4.184 4.184 0 0 1-.19-5.918l10.964-11.656.009-.008 2.607-2.775c.406-.43.88-.757 1.399-.973a4.197 4.197 0 0 1 4.532.793l21.074 19.744a4.173 4.173 0 0 1 1.088 4.463Z" fill="#F94F46"/><path d="M55.9 121.785c-1.52 1.611-4.066 1.697-5.68.181l-20.824-19.512a4.015 4.015 0 0 1-.181-5.668l3.746-3.98a4.139 4.139 0 0 0-1.398.973l-2.607 2.774-.009.009c-1.64 1.748-1.545 4.505.198 6.15l20.824 19.513a4.387 4.387 0 0 0 2.987 1.18 4.354 4.354 0 0 0 3.16-1.353c.008-.008.017-.017.017-.025l2.607-2.774c.406-.431.708-.931.89-1.448l-3.73 3.98Z" fill="#FCB6B1"/><path d="M31.546 107.39a1.033 1.033 0 0 1-.043-1.464l1.122-1.198a1.04 1.04 0 0 1 1.468-.043c.414.388.44 1.043.043 1.465l-1.123 1.197a1.038 1.038 0 0 1-1.467.043Zm13.787 12.914a1.034 1.034 0 0 1-.043-1.465l1.122-1.197a1.038 1.038 0 0 1 1.511 1.421l-1.122 1.198a1.04 1.04 0 0 1-1.468.043Z" fill="#FFCF2D"/></g><g clip-path="url(#b)"><path d="m37.528 166.407-11.802 11.958c-.406.405-.11 1.096.465 1.096h128.447c19.512.051 27.713-13.265 24.23-29.504a.867.867 0 0 0-.617-.641l-19.927-5.427c-.431-.118-.753.354-.507.725 5.005 7.837 1.961 19.636-8.311 20.049.008 0-95.061.446-109.07.514a4.085 4.085 0 0 0-2.908 1.23Z" fill="#fff"/><path d="M154.739 179.63H26.19a.803.803 0 0 1-.752-.498.797.797 0 0 1 .17-.884l11.801-11.959.119.118-.119-.118a4.33 4.33 0 0 1 3.027-1.272c15.31-.076 108.47-.506 109.07-.515 4.033-.16 7.254-2.149 9.055-5.578 1.073-2.057 1.572-4.475 1.428-7.004a14.995 14.995 0 0 0-2.308-7.205.66.66 0 0 1 .017-.75.616.616 0 0 1 .676-.228l19.919 5.419c.38.101.659.396.744.767 1.826 8.512.423 16.164-3.94 21.524-4.362 5.351-11.405 8.183-20.358 8.183Zm-5.233-14.799h-.076l-4.041.017-10.957.051-34.207.16c-25.515.118-52.78.244-59.789.278a3.959 3.959 0 0 0-2.781 1.171l-11.811 11.975a.485.485 0 0 0-.102.523c.06.143.203.295.44.295h128.557c8.852 0 15.801-2.79 20.088-8.057 4.303-5.284 5.673-12.826 3.872-21.245a.686.686 0 0 0-.499-.514l-19.919-5.436a.276.276 0 0 0-.312.11.325.325 0 0 0-.009.371 15.295 15.295 0 0 1 2.359 7.365c.144 2.587-.364 5.073-1.471 7.18-1.86 3.548-5.183 5.596-9.342 5.756Z" fill="#66B0F0"/><path d="M56.6 174.784c6.631 0 12.006-1 12.006-2.233 0-1.234-5.375-2.234-12.005-2.234-6.63 0-12.005 1-12.005 2.234 0 1.233 5.375 2.233 12.005 2.233Zm54.802.843c10.795 0 19.546-1.604 19.546-3.582 0-1.978-8.751-3.582-19.546-3.582s-19.546 1.604-19.546 3.582c0 1.978 8.751 3.582 19.546 3.582Zm42.449-4.341c-.059-.615 2.207-1.306 3.069-1.651 2.258-.919 4.354-2.116 6.079-3.717 1.725-1.609 3.06-3.607 4.134-5.789.406-.835 1.226-3.026 1.869-2.942.794.102.862 3.093.752 4.096-.338 2.992-1.818 5.748-3.897 7.686-2.089 1.938-4.938 3.228-7.956 3.354-1.108.034-3.974-.278-4.05-1.037Z" fill="#FFCF2D"/></g><g clip-path="url(#c)"><path d="M63.333 172.222c5.114 0 9.26-1.078 9.26-2.407 0-1.33-4.146-2.408-9.26-2.408-5.113 0-9.259 1.078-9.259 2.408 0 1.329 4.146 2.407 9.26 2.407Z" fill="#5B2448"/></g><g clip-path="url(#d)"><path d="M132.103 148.268c-3.328-.526-8.805-3.565-11.819-7.614-2.989-4.016-7.192-6.172-9.391-4.27-3.854 3.208 1.775 16.001 21.21 11.884Zm-47.454-2.631c-3.329-.527-3.015-9.661-6.029-13.71-2.989-4.016-8.32-4.712-11.802-3.608-3.226 1.783-1.868 14.177 17.83 17.318Z" fill="#5B2448"/><path d="M124.64 157.818s-2.709 1.783-2.717 1.783c-.917.034-7.345 2.683-6.623-.764 0-.017-.841-1.715-.509-3.226 2.207-5.857 7.573-15.416 7.556-15.62-.314-3.242 13.925-.254 12.991 2.377-.594 3.396-10.698 15.756-10.698 15.45Z" fill="#F4ADA2"/><path d="M131.178 149.584c-5.774-.509-9.196-2.555-11.718-3.99.145-.272 1.342-2.589 1.724-3.396 3.184 3.252 7.531 5.688 9.994 7.386Z" fill="#9B3C82"/><path d="m118.255 149.202-.518-.187c-.06.119-.111.229-.17.348-.238.484-.467.976-.696 1.46l10.537 3.735a93.76 93.76 0 0 0 1.231-1.578l-10.384-3.778Zm-3.448 6.367c1.597 1.68 5.171 3.132 7.319 3.896.629-.407 2.514-1.647 2.514-1.647 0 .094.908-.959 2.199-2.555l-10.333-3.667a60.318 60.318 0 0 0-1.699 3.973Z" fill="#66B0F0"/><path d="m116.497 151.596 10.333 3.667c.179-.221.365-.458.561-.705l-10.537-3.735c-.111.255-.238.518-.357.773Zm-1.138 2.674s-4.041 9.762-4.967 15.263c0 0 17.016.476 23.053-.102 3.277-.314 4.831-1.562 5.578-2.462l-.009-.008c0-.009-.008-.017-.008-.026-.178-.415-2.072-4.499-8.066-7.419-.934-.458-3.931-1.723-7.37-2.08-2.352-.246-4.356-.119-5.867-.602-1.928-.62-1.274-2.624-2.344-2.564Z" fill="#fff"/><path d="M115.436 154.109c1.681.373.382 1.952 2.428 2.674 1.333.467 5.086.144 7.837.849.102.025.195.051.297.076.026.008.051.017.085.017a36.88 36.88 0 0 1 1.987.594c.153.051.297.102.45.161.119.043.229.085.34.128.093.034.186.068.28.11.059.026.11.043.17.068.135.051.271.11.407.17h.009c.042.017.093.042.136.059.152.068.305.136.458.196a.962.962 0 0 0 .093.042c.179.085.357.17.535.246.17.085.331.161.493.246.059.034.127.06.187.094.186.093.365.195.543.297l.127.068c.043.025.085.051.119.068.077.042.153.093.229.135.085.051.162.102.247.153.042.026.076.051.119.068.271.17.526.34.772.51.111.076.212.144.314.22.068.051.136.094.204.145l.102.076c.102.076.212.161.314.238.026.017.051.042.077.059.152.119.305.246.45.365.025.026.059.051.085.077.059.042.11.093.161.144.034.025.059.051.093.076.051.051.111.094.162.145l.076.076s.051.051.076.068c.026.025.051.051.077.068.076.076.153.144.221.212l.076.068.068.068c.051.051.093.093.136.144.025.026.042.051.068.068.042.051.093.093.136.136.042.042.084.093.127.136.042.042.085.093.127.136.026.025.043.05.068.076l.229.255c.034.042.077.084.111.127l.102.127.102.128c.305.39.56.738.764 1.052a.445.445 0 0 0 .051.068c-5.18 3.752-10.452 1.842-13.484.611-2.615-1.061-3.302.382-5.434-.271-1.774-.552-2.105-2.029-4.364-2.275-2.114-.23-3.702 1.146-3.702 1.146s1.461-4.712 4.059-10.798Z" fill="#5B2448"/><path d="M112.608 161.613c.501-.111 1.24-.408 2.072-1.138l.391-.339c1.146-1.019 1.842-1.639 4.152-1.749a.236.236 0 0 1 .246.221.237.237 0 0 1-.221.246c-2.14.102-2.717.611-3.855 1.63-.127.11-.254.22-.39.348-1.011.874-1.885 1.18-2.463 1.282-.186.025-.373-.408.068-.501Z" fill="#fff"/><path d="M131.976 168.098c-2.87.034-5.383-.984-7.065-1.664-1.375-.56-2.224-.407-3.048-.254-.704.127-1.435.263-2.437-.051-.789-.246-1.316-.654-1.817-1.044-.67-.518-1.307-1.01-2.547-1.146-2.004-.221-3.362.789-3.379.806a.192.192 0 0 1-.272-.042.2.2 0 0 1 .034-.272c.077-.059 1.495-1.112 3.66-.883 1.35.145 2.063.696 2.742 1.231.501.391.977.756 1.698.976.917.281 1.563.162 2.25.034.875-.161 1.783-.331 3.269.272 1.384.56 3.473 1.409 5.808 1.604 2.708.221 5.111-.458 7.353-2.079a.198.198 0 0 1 .271.051.199.199 0 0 1-.05.271c-2.217 1.605-4.433 2.165-6.47 2.19Z" fill="#5B2448"/><path d="M114.824 168.769c-1.451.017-2.598-.671-2.606-1.562-.009-.891 1.121-1.613 2.564-1.63 1.452-.017 2.598.671 2.607 1.562.008.892-1.113 1.613-2.565 1.63Zm-.034-2.801c-1.188.017-2.19.577-2.182 1.231.009.653 1.019 1.188 2.208 1.18 1.189-.009 2.191-.578 2.182-1.231-.008-.654-1.019-1.197-2.208-1.18Z" fill="#6D2A53"/><path d="M124.461 169.966c-6.758.085-14.145-.025-14.255-.025a.198.198 0 0 1-.196-.196v-.025c1.384-6.8 5.171-15.348 5.188-15.45a.198.198 0 0 1 .238-.145c.102.026.17.128.144.238-.025.102-3.6 9.151-5.145 15.196 2.063.025 17.397.22 22.976-.315 1.689-.161 3.973-.696 5.366-2.3-.331-.713-2.284-4.491-7.939-7.241a2.98 2.98 0 0 0-.178-.085c-.994-.492-3.337-1.647-7.201-1.893-.11-.009-.195-.094-.186-.204.008-.11.093-.195.203-.187h.009c3.94.255 6.325 1.435 7.344 1.936.068.034.128.059.179.085 5.986 2.92 7.93 6.995 8.151 7.504 0 0 0 .009.008.009.009.008.009.016.009.025l.008.008a.182.182 0 0 1-.034.196c-1.469 1.782-3.914 2.36-5.705 2.529-2.047.196-5.435.298-8.984.34Z" fill="#5B2448"/><path d="M122.959 162.903a.59.59 0 0 1-.535-.849c.068-.136 1.664-3.319 5.536-4.27a.594.594 0 0 1 .713.433.593.593 0 0 1-.433.713c-3.32.824-4.746 3.625-4.755 3.65a.598.598 0 0 1-.526.323Zm2.683.993a.589.589 0 0 1-.535-.848c.068-.136 1.647-3.26 5.468-4.203a.588.588 0 0 1 .288 1.138h-.008c-3.269.806-4.679 3.557-4.695 3.582a.584.584 0 0 1-.518.331Zm3.082.781a.589.589 0 0 1-.527-.866c.06-.118 1.512-2.826 4.993-3.641a.579.579 0 0 1 .705.441.58.58 0 0 1-.442.705c-2.946.687-4.203 3.013-4.22 3.039a.578.578 0 0 1-.509.322Z" fill="#FFCF2D"/><path d="M82.866 146.825c-1.053.535-4.433 1.995-5.536 2.496a.266.266 0 0 1-.085.034c-3.609 1.621-7.014 2.903-7.124 2.937-.11.034 0-.009-.008-.017-.009-.009-.009-.017-.017-.026-.009-.008-.009-.008-.009-.017-.603-.687-7.149-8.225-4.024-9.838.008-.009.263-.527.271-.535a67.551 67.551 0 0 0 3.465-1.936c.297-.178.585-.356.882-.534.264-.162.518-.323.773-.476.077-.042.145-.093.22-.136a131.92 131.92 0 0 0 2.463-1.604c.9-.611 1.647-1.155 2.148-1.545.017-.009.026-.026.043-.034a6.93 6.93 0 0 0 .475-.408c2.31-2.275 6.063 11.639 6.063 11.639Z" fill="#F4ADA2"/><path d="M77.245 149.355c-3.609 1.621-7.014 2.903-7.124 2.937-.11.034 0-.009-.008-.017-.009-.009-.009-.017-.017-.026-.009-.008-.009-.008-.009-.017-.603-.687-7.149-8.225-4.024-9.838.008-.009.263-.527.271-.535a67.551 67.551 0 0 0 3.465-1.936l7.446 9.432Z" fill="#66B0F0"/><path d="m75.632 150.068-7.396-9.236c-.238.136-.467.263-.696.39l7.336 9.168c.255-.11.5-.22.755-.322Zm-9.306-8.192s-8.898 4.541-13.747 7.292c0 0 10.359 13.497 14.621 17.818 2.31 2.343 4.263 2.759 5.426 2.768l.008-.009c0-.008.009-.008.009-.025.204-.399 2.182-4.449.67-10.934-.237-1.01-1.146-4.134-3.03-7.038-1.291-1.986-2.65-3.455-3.236-4.932-.73-1.867 0-4.134-.721-4.94Z" fill="#fff"/><path d="M66.496 141.842c.764 1.536-.043 3.039.687 5.085.476 1.324 3.1 4.04 4.288 6.613l.127.28c.009.025.026.051.034.076.247.552.467 1.087.671 1.613.043.102.077.212.12.314.05.153.11.297.16.442.043.118.077.229.12.348.033.093.059.186.093.28.017.059.034.119.06.178.041.144.084.28.127.416v.009c.016.05.025.093.042.144.042.161.093.322.136.475l.025.102c.051.195.094.382.145.569.042.178.084.365.118.543.017.068.026.136.043.204.042.204.076.407.11.611l.026.144c.008.051.017.094.025.136.017.094.026.179.043.263.017.094.025.187.042.281.009.042.009.093.017.135.043.314.068.62.094.926l.025.382c.008.085.008.169.017.246 0 .042 0 .085.008.127.009.128.009.263.009.391v.789c0 .077 0 .144-.009.212 0 .043 0 .077-.008.119 0 .077-.009.145-.009.221 0 .034 0 .068-.008.11 0 .034-.008.068-.008.102 0 .034-.009.068-.009.102l-.025.314-.009.102c0 .034-.008.068-.008.102-.009.068-.017.136-.026.195 0 .034-.008.068-.008.094l-.026.186-.025.187-.026.187c-.008.034-.008.068-.017.102a3.978 3.978 0 0 1-.06.339 1.11 1.11 0 0 1-.033.17c-.009.059-.026.11-.034.161-.009.051-.026.111-.034.162a13.125 13.125 0 0 1-.357 1.341c-6.172-1.647-8.023-6.944-8.983-10.068-.824-2.691-2.386-2.326-3.218-4.389-.696-1.723.246-2.912-.993-4.822-1.155-1.782-3.38-2.343-3.38-2.343s4.33-2.512 9.9-5.008Z" fill="#5B2448"/><path d="M59.372 145.823a2.053 2.053 0 0 1-.161-.221.24.24 0 0 1 .093-.322.239.239 0 0 1 .323.093c.008.017.636 1.053 2.691 1.409.178.034.348.06.51.085 1.52.246 2.436.399 3.973 2.114a.239.239 0 0 1-.017.331.238.238 0 0 1-.33-.017c-1.427-1.596-2.183-1.723-3.694-1.969-.162-.026-.331-.051-.518-.085-1.732-.289-2.556-1.036-2.87-1.418Z" fill="#fff"/><path d="M67.31 165.017c-1.833-2.199-2.631-4.805-3.158-6.528-.433-1.426-1.095-1.987-1.732-2.53-.543-.467-1.112-.942-1.503-1.927-.306-.764-.323-1.435-.34-2.071-.016-.849-.033-1.647-.713-2.7-1.095-1.689-3.141-2.207-3.167-2.215a.202.202 0 0 1-.144-.238.197.197 0 0 1 .238-.144c.093.025 2.216.56 3.405 2.385.738 1.138.755 2.037.78 2.903.018.637.026 1.231.306 1.936.357.891.858 1.316 1.393 1.774.679.577 1.384 1.18 1.85 2.708.434 1.426 1.096 3.582 2.42 5.518 1.537 2.241 3.584 3.676 6.258 4.389a.21.21 0 0 1 .136.246.21.21 0 0 1-.246.136c-2.64-.713-4.475-2.08-5.782-3.642Z" fill="#5B2448"/><path d="M55.967 152.131c-.934-1.113-1.12-2.437-.433-3.014.688-.577 1.953-.153 2.887.968.925 1.112 1.12 2.436.433 3.013-.688.569-1.953.145-2.887-.967Zm2.157-1.8c-.764-.917-1.834-1.333-2.335-.917-.501.416-.28 1.545.484 2.462.764.917 1.834 1.333 2.335.917.492-.416.271-1.545-.484-2.462Z" fill="#6D2A53"/><path d="M61.12 160.356a558.35 558.35 0 0 1-8.974-11.078.19.19 0 0 1 .034-.271c.009-.009.017-.009.026-.017 4.805-2.725 13.941-7.191 14.026-7.233.094-.051.213-.009.264.093a.192.192 0 0 1-.094.263c-.093.043-8.966 4.389-13.806 7.114 1.274 1.613 10.8 13.634 14.74 17.623 1.189 1.206 3.048 2.641 5.17 2.708.349-.704 2.039-4.609.612-10.721-.017-.06-.025-.128-.042-.195-.246-1.087-.824-3.625-3.074-6.783a.185.185 0 0 1 .043-.272c.093-.059.212-.051.271.043 0 0 0 .008.009.008 2.292 3.217 2.878 5.815 3.133 6.919.017.068.034.136.042.195 1.512 6.486-.424 10.569-.679 11.061 0 0 0 .009-.008.009-.009.008-.009.017-.017.025l-.009.009a.204.204 0 0 1-.17.101c-2.31-.017-4.305-1.545-5.57-2.826-1.443-1.486-3.65-4.041-5.926-6.775Z" fill="#5B2448"/><path d="M65.655 154.745a.6.6 0 0 1 .076-.832.519.519 0 0 1 .247-.119c.144-.033 3.625-.798 6.81 1.596a.585.585 0 0 1 .118.824.585.585 0 0 1-.824.119c-2.733-2.055-5.807-1.393-5.833-1.393a.596.596 0 0 1-.594-.195Zm.925 2.7a.6.6 0 0 1 .077-.832.51.51 0 0 1 .246-.119c.144-.034 3.575-.781 6.708 1.587a.585.585 0 0 1 .119.824.585.585 0 0 1-.824.119s-.009 0-.009-.009c-2.691-2.029-5.705-1.383-5.74-1.383a.554.554 0 0 1-.576-.187Zm1.333 2.886a.6.6 0 0 1 .077-.832.717.717 0 0 1 .255-.127c.127-.026 3.141-.612 5.977 1.579a.582.582 0 0 1 .102.823.583.583 0 0 1-.824.102c-2.385-1.851-4.992-1.358-5.018-1.358a.545.545 0 0 1-.569-.187Z" fill="#FFCF2D"/><path d="M81.337 147.589c-3.48-.934-8.32-6.706-9.424-8.999.288-.101 5.969-4.159 6.792-4.499.212 4.542.773 11.214 2.632 13.498Z" fill="#9B3C82"/><path d="M116.149 91.9c6.708 3.184 26.525 13.736 29.972 26.792 3.311 12.564-14.943 30.892-14.943 30.892s-4.925-1.401-8.831-6.07c-3.914-4.686-8.151-8.404-11.462-7.131 5.009-4.414 10.358-7.045 12.566-12.818-2.123-1.528-8.321-4.194-12.057-6.486 3.312 19.186-11.207 21.987-30.057 30.51-3.056-1.953-4.737-6.316-6.877-12.903-1.104-3.396-4.755-7.386-7.642-6.367 5.689-2.377 11.633-1.783 21.567-7.131.28-6.477-6.173-19.89.254-37.734l27.51 8.447Z" fill="#21A0AA"/><path d="M124.453 118.896a.218.218 0 0 0-.238.187c0 .017-.229 1.825-1.163 4.21.127.085.28.187.399.272.976-2.479 1.189-4.406 1.189-4.431a.218.218 0 0 0-.187-.238Zm-13.747-19.372a.205.205 0 0 0-.178-.237.205.205 0 0 0-.238.178c-.611 4.533-.067 8.395.561 12.878.204 1.477.348 3.013.543 4.737.145.093.297.178.45.271-.204-1.859-.365-3.506-.577-5.068-.62-4.448-1.163-8.285-.561-12.759ZM92.74 117.758c-.076-.084-.212-.084-.297 0-.025.026-1.35 1.393-4.05 2.946 0 .161-.008.323-.008.484 2.895-1.638 4.33-3.115 4.355-3.132a.206.206 0 0 0 0-.298Z" fill="#6CE0DC"/><path d="M149.356 64.091s4.492-19.253 1.528-22.7c-1.171-1.366-5.926-.373-7.276-.865-1.698-.629 1.868-2.03 2.989-2.42.288-.925-2.089-1.205-4.857-2.071-1.469-.459-1.401-1.24.56-1.426-.637-.45.467-1.087 1.902-.951-.798-1.392 7.302-2.02 11.361.594 3.642 2.343 6.113 7.691 7.446 16.52.679 4.499.925 19.592-.934 23.939-2.428 5.696-12.719-10.62-12.719-10.62Z" fill="#F4ADA2"/><path d="M124.614 50.687s12.252-3.387 23.375 11.893c.425-.34 1.35-1.528 5.01 1.273 3.608 2.768 11.131 7.92 10.095 11.044-.756 2.284-6.614 11.537-20.114 6.359-4.611-1.766-9.34-4.5-12.651-7.216-8.118-6.664-5.715-23.353-5.715-23.353Z" fill="#66B0F0"/><path d="M138.114 29.83a2.988 2.988 0 0 0-2.623-.722c-.077-3.15-4.059-3.727-5.205-1.673-2.08-2.775-6.181-.73-5.782 2.004.144 1.002.28 3.056-.552 4.448 1.129.96 2.649 4.813 2.649 4.813s7.251-3.99 9.654-4.032c3.014-.05 3.345-3.421 1.859-4.839Z" fill="#5B2448"/><path d="M133.589 30c-.009.008-.017.016-.017.025a.181.181 0 0 0 .085.229.18.18 0 0 0 .221-.068c.441-.662 1.086-.96 1.613-1.087 0-.119-.009-.237-.026-.348-.603.136-1.358.467-1.876 1.248Z" fill="#9B3C82"/><path d="M136.034 44.074c-.144.823-.789 1.553-1.757 1.808-2.531.67-5.248-.755-5.248-.755s-1.239 3.132-1.885 5.662c0 0-3.608 11.825-9.942-4.712 0 0 3.574-3.828 5.909-6.375-1.502-.611-3.489-2.86-2.564-4.873.527-1.146 2.063-1.8 3.218-1.12 1.121.662 1.393 1.502 2.097 2.818.654 1.223 1.062.739 1.97-.297a8.76 8.76 0 0 1 2.607-1.986c1.673-.798 4.203-.179 5.833.432a29.619 29.619 0 0 0-.73 3.855c-.297 2.275.832 3.624.492 5.543Z" fill="#F4ADA2"/><path d="m130.261 35.525.025-.127c.009-.042.026-.076.034-.119a2.029 2.029 0 0 1 .357-.62c.212-.254.492-.458.798-.585.161-.068.331-.12.509-.145.178-.025.357-.017.535.009.17.025.34.085.493.17.152.085.28.195.39.33a.396.396 0 0 1-.187.62l-.068.026c-.135.05-.254.068-.356.102-.102.025-.195.06-.28.085-.17.06-.315.102-.484.152-.162.051-.34.128-.535.213l-.306.136c-.051.025-.11.05-.17.068a.77.77 0 0 1-.416.067.496.496 0 0 1-.212-.076.31.31 0 0 1-.136-.255s.009-.025.009-.05Zm.017 1.062c.382.025 1.299.101 2.224-.085a.24.24 0 0 1 .28.186c.068.331.077.892-.569.943-.789.06-1.893-.493-2.054-.875-.026-.06.008-.136.068-.161.008 0 .034-.008.051-.008Zm5.213-.094c-.374.076-.662.076-1.359.051a.238.238 0 0 0-.254.23c-.017.339.178.67.721.678.612.017.951-.458 1.028-.806a.115.115 0 0 0-.094-.144c-.008-.017-.025-.017-.042-.009Z" fill="#5B2448"/><path d="M124.342 40.05a.17.17 0 0 0-.169-.17c-.425 0-.824-.093-1.147-.212.026.008.06.025.085.034-.085.093-.169.178-.246.272a3.65 3.65 0 0 0 1.308.246.17.17 0 0 0 .169-.17Z" fill="#9B3C82"/><path d="M134.913 34.464a1.26 1.26 0 0 0-.399.23.362.362 0 0 0 .068.577l.06.034c.119.068.212.102.305.153l.238.118c.144.077.263.136.408.213l.365.22c.093-.45.195-.891.314-1.332-.263-.094-.544-.196-.841-.29h-.051c-.161 0-.314.026-.467.077Zm-8.329 8.353c-.441.128-1.197 2.725 1.605 4.415a.168.168 0 0 1 .051.034c.433-1.231.789-2.14.789-2.14s-1.732-1.06-2.445-2.309Z" fill="#5B2448"/><path opacity=".52" d="M128.8 40.755a1.596 1.596 0 1 0 0-3.192 1.596 1.596 0 0 0 0 3.192Z" fill="#E57281"/><path d="M133.606 41.45a1.015 1.015 0 0 1-.408.17 1.48 1.48 0 0 1-.433.018 1.55 1.55 0 0 1-.798-.331 1.509 1.509 0 0 1-.289-.323 1.314 1.314 0 0 1-.178-.399 1.218 1.218 0 0 1 .06-.849.145.145 0 0 1 .203-.068c.06.026.094.093.085.161v.009c-.059.416.102.84.433 1.112.162.127.357.22.561.263.203.051.416.043.62-.017h.008c.076-.025.17.017.195.094a.154.154 0 0 1-.059.16Zm-9.289-3.446a.184.184 0 0 1-.102-.144c-.102-2.199-1.817-2.538-1.893-2.547a.165.165 0 0 1-.136-.195.166.166 0 0 1 .195-.136c.017 0 2.055.39 2.174 2.87a.166.166 0 0 1-.162.178l-.076-.026Z" fill="#9B3C82"/><path d="M133.996 39.439c-.068-.026-.11-.102-.085-.17a.122.122 0 0 1 .068-.076c.569-.289.476-.213.535-.45.034-.153-.093-.348-.305-.646-.595-.823-.357-1.324-.348-1.34a.138.138 0 0 1 .186-.06.13.13 0 0 1 .06.178c-.009.009-.162.4.322 1.061.221.314.416.586.349.866-.051.22-.264.416-.68.628a.142.142 0 0 1-.102.009Zm-69.64 21.698c-1.359 1.443 2.547 4.923 20.777 9.338 0 0-13.305-12.989-20.777-9.338Z" fill="#5B2448"/><path d="M58.073 84.66c-1.46 2.037-4.662 5.628-6.555 7.326-3.057 2.742-5.493 5.238-5.196 7.3.11.773.857 1.087 1.205.943-.042 1.086.985 1.392 1.435 1.299 0 1.103 1.231 1.791 1.783 1.239.162 1.29 1.987 1.936 2.055 1.002.204-2.827 1.12-3.489 1.783-2.971.535.416.815 1.884.722 3.073.39-.06 1.85-.289 3.863-4.347 2.343-4.728 4.526-6.74 6.436-8.735C78.45 77.385 85.506 68.981 85.506 68.981c-.314-.824-12.201-11.07-12.693-11.528-7.277 7.945-10.987 21.935-14.74 27.207Z" fill="#F4ADA2"/><path d="m67.667 64.872 2.462-4.584s11.845 9.49 12.864 11.613c0 0-5.731-2.87-15.326-7.03Z" fill="#9B3C82"/><path d="M118.442 44.787c-.637.441-1.529 1.214-2.225 1.485-1.936-.076-3.634-.246-3.634-.246s-6.19-2.046-17.236 8.608c-4.84 4.67-5.094 7.606-7.378 29.33 2.462 2.292 18.254 7.98 30.311 7.046l.671-1.062c4.33-1.952 9.849-7.725 11.377-15.959 16.557 11.511 8.686-21.715-3.048-23.727l-2.037 3.48s-5.273-4.88-6.801-8.955Z" fill="#66B0F0"/><path d="M118.696 93.09c-12.26 2.181-29.437-3.574-31.356-5.204l.705-5c11.19 6.451 31.144 6.97 31.144 6.97l-.493 3.234Z" fill="#5B2448"/><path d="M85.158 70.814c9.934-2.461 29.089-12.012 29.633-21.392.484-8.277-31.161-8.659-43.133 5.433 0 0-2.386-.433-3.566.934-1.333 1.545-2.208 2.801-3.736 5.348 3.396-1.613 14.392 6.944 18.637 10.764 0 0 1.57-.153 2.165-1.087Z" fill="#66B0F0"/><path d="M156.701 81.477c-1.945-8.871-5.273-14.364-8.372-19.169 0 0-.009 0-.009.009-.11.076-.195.153-.271.212 0 0-.009 0-.009.009 1.189 3.65 2.496 8.234 3.082 12.215a.173.173 0 0 0 .17.145c.008 0 .017 0 .017.008.093-.017.161-.102.144-.195-.535-3.6-1.647-7.683-2.734-11.13 2.887 4.542 5.867 9.848 7.65 18.048.119-.05.221-.102.332-.152Zm-34.872-12.861a.594.594 0 1 0 .001-1.189.594.594 0 0 0-.001 1.189Zm-6.792 16.299a.594.594 0 1 0 0-1.189.594.594 0 0 0 0 1.189Zm4.16-7.725a.594.594 0 1 0 0-1.189.594.594 0 0 0 0 1.188Zm-5.052-29.279a5.264 5.264 0 0 0-.925-1.817c-.204-.025-.374-.042-.493-.06a4.84 4.84 0 0 1 1.104 1.962c.849 2.971-.883 6.901-4.755 10.798-2.462 2.47-5.892 4.873-9.934 6.935-3.158 1.613-6.487 2.895-9.56 3.727-.017.119-.026.246-.043.365 6.19-1.664 14.553-5.552 19.775-10.79 3.957-3.972 5.723-8.03 4.831-11.12Z" fill="#B0DCF7"/><path d="M125.506 59.524a.17.17 0 0 0-.17-.17.17.17 0 0 0-.17.17c.043 2.02-.272 6.944-1.724 12.538-1.884 7.267-4.975 13.294-9.195 17.912a.164.164 0 0 0 .009.238.16.16 0 0 0 .11.042.285.285 0 0 0 .136-.042c4.254-4.652 7.378-10.73 9.272-18.057 1.46-5.636 1.774-10.594 1.732-12.631Zm-3.982-.45c.067.009.135.017.203.017 1.07 0 2.199-1.672 3.371-4.983l.128-.382c-.026-.017-.119-.11-.272-.255-.06.179-.119.348-.178.527-1.138 3.242-2.268 4.923-3.185 4.745-1.613-.323-3.812-7.725-5.051-12.632-.102.06-.204.11-.306.162.34 1.358.79 3.064 1.307 4.762 1.563 5.187 2.862 7.818 3.983 8.04Z" fill="#B0DCF7"/><path d="M127.807 58.599c-.102.05-.196.042-.306-.009-.875-.424-1.825-3.455-2.114-4.584-.017-.085-.111-.144-.204-.119-.085.017-.144.11-.119.204 0 .008.272 1.053.679 2.156.552 1.503 1.096 2.394 1.614 2.64a.712.712 0 0 0 .314.077.815.815 0 0 0 .28-.051c.747-.348.662-2.58.458-4.397a39.831 39.831 0 0 0-.721-4.186c-.119-.025-.246-.042-.365-.067.331 1.417.594 2.92.747 4.286.306 2.76.051 3.905-.263 4.05Z" fill="#B0DCF7"/><path d="M130.345 59.09c-.67-3.539-1.613-6.544-2.513-8.734-.136-.026-.272-.051-.399-.077.917 2.19 1.902 5.272 2.581 8.871.739 3.922 1.197 9.279.306 14.89.102.068.195.161.306.246.925-5.713.475-11.214-.281-15.195Z" fill="#B0DCF7"/><path d="M124.19 56.111c-.578 1.282-1.155 1.757-.697 2.657 0 0 .332.348 1.673.56.586.094.671-.16.671-.16s.509-.51.509-1.783c-.119-.866-.339-1.868-1.078-3.702 0 0-.535 1.223-1.078 2.428Z" fill="#F94F46"/><path d="M127.272 58.93c-.994.407-2.946.322-3.889-.4h-.008c-.085-.067-.196-.05-.264.035a.18.18 0 0 0 .034.263c.085.06.17.119.255.17 1.112.653 2.989.704 4.016.28.094-.043.144-.153.102-.246-.042-.094-.153-.145-.246-.102Z" fill="#66B0F0"/><path d="m108.694 88.913-.917 4.414c2.063.195 4.144.289 6.173.23l1.019-3.957a109.12 109.12 0 0 1-6.275-.687Z" fill="#FFCF2D"/><path d="M125.667 59.515c-.594 3.48-8.414 14.899-27.425 14.016-.407-.017-.806-.085-1.154-.297l-4.543-2.768a1.127 1.127 0 0 1-.543-1.01l.653-4.898a1.035 1.035 0 0 1 1.257-.875c2.352.535 2.717 1.342 11.284 1.172 10.138-.204 18.085-5.925 18.085-5.925 1.112.585 2.386.585 2.386.585Z" fill="#F94F46"/><path d="m53.004 88.378 1.97-2.02.764-.781.976-1.002a34.168 34.168 0 0 0 2.862 2.496c2.097 1.655 3.676 2.996 5.799 4.023-1.079 1.062-2.496 2.7-3.49 3.99-1.842-1.018-3.388-2.147-5.06-3.42-.221-.17-.45-.34-.671-.519a41.561 41.561 0 0 1-1.97-1.663c-.144-.128-.28-.255-.416-.382-.076-.077-.153-.145-.23-.221a9.618 9.618 0 0 1-.534-.501Z" fill="#5B2448"/><path d="M58.82 89.535c1.238-2.214.987-4.71-.56-5.574-1.548-.865-3.805.23-5.043 2.444-1.237 2.214-.986 4.71.561 5.574 1.548.865 3.805-.23 5.043-2.444Z" fill="#5B2448"/><path d="M59.143 89.71a6.624 6.624 0 0 0 .798-2.342c-.119-.093-.23-.178-.348-.272a6.28 6.28 0 0 1-.781 2.436c-.501.9-1.19 1.647-1.962 2.148.102.077.212.162.314.238.782-.526 1.46-1.29 1.979-2.207Zm-1.163-.642c1.2-2.149 1.098-4.492-.228-5.233-1.327-.74-3.375.4-4.576 2.55-1.201 2.148-1.1 4.49.227 5.232 1.326.74 3.375-.4 4.576-2.55Z" fill="#fff"/><path d="M54.303 91.969a2 2 0 0 1-.968-.246c-.68-.382-1.078-1.163-1.12-2.19-.043-1.01.254-2.148.848-3.21.595-1.06 1.41-1.918 2.293-2.41.9-.5 1.774-.569 2.454-.195.679.382 1.078 1.163 1.12 2.19.043 1.01-.254 2.148-.849 3.209-.594 1.06-1.41 1.918-2.292 2.41-.51.298-1.019.442-1.486.442Zm2.547-8.234c-.424 0-.891.136-1.367.399-.84.466-1.621 1.29-2.19 2.309-.57 1.018-.858 2.113-.816 3.073.043.942.391 1.646.994 1.978.603.34 1.384.271 2.208-.196.84-.466 1.621-1.29 2.19-2.309.569-1.018.858-2.113.815-3.073-.042-.942-.39-1.647-.993-1.978a1.888 1.888 0 0 0-.84-.203Z" fill="#5B2448"/><path d="M55.194 87.419a.192.192 0 0 1 .221-.017l1.46.882c.086.06.12.17.06.264a.19.19 0 0 1-.255.06l-1.299-.782-1.24 2.14a.184.184 0 0 1-.254.067c-.085-.05-.119-.17-.068-.254l1.333-2.3a.151.151 0 0 1 .042-.06Z" fill="#5B2448"/><path d="M51.077 100.415a.17.17 0 0 0-.23.077c-.034.059-.467.934-.45 2.453a.624.624 0 0 0 .349-.178c.016-1.358.39-2.105.407-2.122a.171.171 0 0 0-.076-.23Zm-1.503-1.383a.185.185 0 0 0-.238.06c-.008.016-.586.975-.722 2.435a.942.942 0 0 0 .348 0c.136-1.358.654-2.25.671-2.266a.177.177 0 0 0-.06-.23Zm-1.469-1.052c-.077-.052-.178-.018-.23.058-.042.06-.534.926-.713 2.208a.587.587 0 0 0 .366-.017c.178-1.206.628-2.012.636-2.03.051-.067.017-.169-.06-.22Zm102.083-62.896a.2.2 0 0 0 .187-.153.176.176 0 0 0-.161-.178c-1.979-.127-5.052-.306-6.012-1.095-.161-.017-.314-.017-.467-.017.713.985 3.456 1.248 6.453 1.443Zm-2.165 1.104a.17.17 0 0 0 .17-.17.17.17 0 0 0-.17-.17c-.586.017-2.012-.153-3.379-.458-1.13-.255-1.919-.51-2.344-.781-.17.017-.314.034-.458.06.993.924 4.975 1.519 6.13 1.519h.051Zm4.746 4.287a.17.17 0 0 0-.229-.077c-.849.433-1.384.654-1.919.764.051.026.17.136.297.272.493-.136 1.062-.374 1.775-.73a.17.17 0 0 0 .076-.23Zm-1.8-3.15a.168.168 0 0 0-.169-.161h-.009a20.53 20.53 0 0 0-4.22.602c.051.102.06.213.026.34-.017.009.017-.008 0 0a19.175 19.175 0 0 1 4.211-.603.176.176 0 0 0 .161-.178Zm6.708 2.369a.173.173 0 0 0-.017.237c.034.043.076.06.127.06a.165.165 0 0 0 .111-.051c.721-.603 1.095-1.29 1.129-1.995-.136-.22-.272-.433-.416-.637.051.178.076.365.076.543 0 .654-.339 1.274-1.01 1.843Zm-3.575-2.293c-.925-.45-1.426-1.655-1.435-1.663a.171.171 0 0 0-.22-.094.172.172 0 0 0-.094.221c.017.05.552 1.333 1.597 1.834.025.008.05.017.076.017a.19.19 0 0 0 .153-.085.17.17 0 0 0-.077-.23Z" fill="#9B3C82"/><path d="M77.737 58.777c-2.054-1.876-4.092-3.285-5.824-4.22-.077.086-.179.213-.255.298 2.046 1.104 4.245 2.7 5.85 4.168 3.82 3.506 6.487 7.674 7.65 11.791.11-.025.22-.06.331-.085-1.494-5.314-4.992-9.422-7.752-11.952Z" fill="#B0DCF7"/><path d="M79.707 55.992c-.076.051-.093.162-.042.238.05.068 4.873 7.123 5.62 14.55.11-.025.23-.06.34-.085-.773-7.495-5.63-14.584-5.68-14.66-.051-.076-.161-.093-.238-.042Z" fill="#B0DCF7"/></g><defs><clipPath id="a"><path fill="#fff" transform="translate(16.852 80.926)" d="M0 0h53.889v54.074H0z"/></clipPath><clipPath id="b"><path fill="#fff" transform="translate(25.37 143.704)" d="M0 0h154.444v35.926H0z"/></clipPath><clipPath id="c"><path fill="#fff" transform="translate(54.074 167.407)" d="M0 0h18.518v4.815H0z"/></clipPath><clipPath id="d"><path fill="#fff" transform="translate(46.296 26.111)" d="M0 0h117.222v143.889H0z"/></clipPath></defs></svg>