<svg width="170" height="170" fill="none" xmlns="http://www.w3.org/2000/svg"><g clip-path="url(#a)"><path d="m127.59 160.595-41.803-2.989-41.803 2.989a.948.948 0 0 1-.93-1.332l3.868-13.165a2.636 2.636 0 0 1 2.43-1.568l36.575.266 36.303-.266a2.635 2.635 0 0 1 2.429 1.568l3.862 13.173a.945.945 0 0 1-.931 1.324Z" fill="#219DA7"/><path d="M85.787 160.706a3.163 3.163 0 0 0 3.16-3.166 3.163 3.163 0 0 0-3.16-3.166 3.163 3.163 0 0 0-3.16 3.166 3.163 3.163 0 0 0 3.16 3.166Z" fill="#219DA7"/><path d="M85.787 156.504c6.113-4.171 39.116 2.478 39.116 2.478l-3.655-9.748h-35.32l-.141 7.27Z" fill="#fff"/><path d="M124.903 159.278c-.022 0-.037 0-.059-.007-.081-.015-8.343-1.672-17.247-2.804-11.725-1.486-19.204-1.39-21.647.274a.296.296 0 0 1-.303.015.299.299 0 0 1-.155-.259l.14-7.278a.29.29 0 0 1 .295-.289h35.321c.126 0 .236.074.273.193l3.655 9.756a.301.301 0 0 1-.052.295.275.275 0 0 1-.221.104Zm-30.936-4.445c3.574 0 8.144.355 13.711 1.057 7.642.969 14.811 2.323 16.767 2.708l-3.396-9.068H86.215c-.022 1.102-.096 5.022-.125 6.457 1.513-.77 4.142-1.154 7.877-1.154Z" fill="#66ADED"/><path d="M85.787 156.504c2.038-2.906 7.383-6.568 39.943.363l-3.95-12.071H85.927l-.14 11.708Z" fill="#fff"/><path d="M125.73 157.17c-.022 0-.045 0-.059-.007-14.279-3.04-24.822-4.342-31.334-3.869-5.508.4-7.288 1.938-8.306 3.381a.302.302 0 0 1-.333.11.295.295 0 0 1-.206-.288l.14-11.701c0-.163.133-.296.295-.296h35.845c.126 0 .244.081.281.207l3.95 12.078a.308.308 0 0 1-.059.289.291.291 0 0 1-.214.096Zm-28.573-4.564c6.527 0 15.97 1.295 28.137 3.869l-3.728-11.383H86.223l-.133 10.554c1.166-1.287 3.293-2.588 8.195-2.943a38.358 38.358 0 0 1 2.872-.097Z" fill="#66ADED"/><path d="M85.75 156.504c-6.113-4.171-39.116 2.478-39.116 2.478l3.655-9.748h35.32l.141 7.27Z" fill="#fff"/><path d="M46.634 159.278a.276.276 0 0 1-.221-.104.303.303 0 0 1-.052-.295l3.655-9.749a.293.293 0 0 1 .273-.192h35.32a.29.29 0 0 1 .296.288l.14 7.278a.294.294 0 0 1-.458.244c-2.436-1.664-9.922-1.76-21.647-.273-8.904 1.124-17.165 2.788-17.247 2.803h-.059Zm3.862-9.749-3.397 9.068c1.957-.377 9.126-1.738 16.768-2.707 11.377-1.442 18.627-1.405 21.58.097-.03-1.428-.103-5.355-.125-6.458H50.496Z" fill="#66ADED"/><path d="M85.75 156.504c-3.972-6.146-12.692-6.287-39.61-.303l3.831-11.405h36.133l-.354 11.708Z" fill="#fff"/><path d="M85.75 156.8a.32.32 0 0 1-.251-.133c-3.906-6.043-12.721-6.08-39.3-.17a.3.3 0 0 1-.281-.089.293.293 0 0 1-.059-.288l3.84-11.42a.285.285 0 0 1 .272-.2h36.134a.3.3 0 0 1 .214.089.263.263 0 0 1 .08.214l-.354 11.709c-.007.133-.088.244-.214.273-.022.015-.051.015-.08.015Zm-35.565-11.708-3.595 10.71c13.828-3.062 22.208-4.342 27.967-4.29 5.42.052 8.75 1.287 10.927 4.105l.318-10.525H50.185Z" fill="#66ADED"/></g><g clip-path="url(#b)"><path d="M46.231 123.317c-8.607-4.156-25.004-13.485-28.859-8.924-3.09 4.503 7.423 11.032 28.86 8.924Z" fill="#5B2448"/><path d="M142.725 126.11c-5.429-1.607-19.472-9.469-21.848-.074-1.471-3.367 4.782 1.975 1.802 5.188.353 3.286.456 13.411.25 13.419H49.24l3.362-7.296 4.032-7.707.029-.14-.118-.074c-.265-.162-.97-.582-2.016-1.186l-1.456-.841c-.765-.434-1.633-.928-2.582-1.451-.103-.059-.213-.118-.316-.177-.773-.427-1.597-.877-2.457-1.349-.214-.117-.427-.235-.64-.346-.508-.273-1.023-.553-1.553-.833-.235-.125-.47-.25-.713-.375-4.098-2.152-8.74-4.444-13.05-6.227h-.008c-6.613-2.734-12.447-4.267-14.345-2.284l-.015.014c.368-.479 10.211-11.318 22.46-21.17 15.536-12.55 28.469-13.213 35.141-7.996.03.022.47.037.566 0 3.65-.014 19.752-.825 19.752-.825 9.034-4.716 34.804 8.194 47.412 41.73Z" fill="#F64F46"/><path d="M91.812 43.203c-1.766-.192-3.524.412-4.73 1.717-3.473-4.687-10.1-1.305-9.637 3.028-6.106-1.982-10.108 5.497-6.584 9.204 1.294 1.363 3.685 4.318 3.92 7.317 2.723.236 9.137 4.451 9.137 4.451s6.695-12.66 10.277-15.29c4.466-3.287 1.597-9.985-2.383-10.427Z" fill="#5B2448"/><path d="M102.582 68.508c.537 1.414.213 3.146-1.06 4.45-3.303 3.39-8.857 3.707-8.857 3.707s.61 3.161 2.648 7.708c-.404 1.142-3.104 4.767-8.305 5.504-5.635.803-9.902-2.638-11.447-4.672 1.052-2.033 1.965-5.895 2.877-11.502-2.899.442-8.078-1.216-8.504-5.21-.243-2.277 1.537-4.716 3.957-4.724 2.355-.007 3.561 1.047 5.87 2.44 2.149 1.296 2.326.162 2.789-2.3.405-2.18 1.383-4.28 2.207-5.519 1.854-2.8 6.37-4.178 9.46-4.745a53.02 53.02 0 0 0 2.443 6.683c1.662 3.825 4.664 4.878 5.922 8.18Z" fill="#F1AA9F"/><path d="m85.434 61.227-.11-.221a4.543 4.543 0 0 1-.089-.206c-.051-.133-.088-.273-.125-.413a3.727 3.727 0 0 1-.08-.862 3.926 3.926 0 0 1 .448-1.74 3.382 3.382 0 0 1 1.309-1.377c.28-.155.574-.266.89-.317a2.15 2.15 0 0 1 .92.022c.39.096.625.486.53.877a.516.516 0 0 1-.089.206l-.073.11c-.14.23-.272.391-.383.553-.117.155-.206.31-.301.442-.177.273-.331.509-.5.774-.17.265-.332.568-.508.907l-.28.545c-.044.096-.103.191-.154.295-.11.235-.287.434-.5.574a.86.86 0 0 1-.376.14.568.568 0 0 1-.478-.206.449.449 0 0 0-.051-.103Zm1.523 1.024c.625-.31 2.133-1.024 3.406-2.151a.438.438 0 0 1 .61.036v.008c.405.464.927 1.334-.037 1.99-1.191.81-3.413.943-4.016.493a.222.222 0 0 1-.037-.31.21.21 0 0 1 .074-.066Zm8.246-3.964c-.625.302-1.126.412-2.376.663a.435.435 0 0 0-.346.508c.118.605.596 1.098 1.567.892 1.081-.228 1.471-1.216 1.471-1.864a.222.222 0 0 0-.316-.2Z" fill="#5B2448"/><path d="M80.637 73.061a.253.253 0 0 0-.345-.088 6.163 6.163 0 0 1-1.869.737l-.066.538a6.692 6.692 0 0 0 2.185-.84.256.256 0 0 0 .095-.347Z" fill="#983C80"/><path d="M92.32 54.72a2.495 2.495 0 0 0-.398.76 1.964 1.964 0 0 0-.096.825.658.658 0 0 0 .913.538l.11-.052c.22-.096.383-.199.544-.273.155-.08.302-.147.434-.213.265-.126.493-.236.75-.347.104-.044.214-.088.325-.132a56.912 56.912 0 0 1-.685-2.167c-.213.037-.426.081-.647.126a2.8 2.8 0 0 0-.618.338 2.436 2.436 0 0 0-.633.597Zm-5.592 20.618c-.566.612.67 5.35 6.585 5.38.206 0 .39-.008.559-.022a62.668 62.668 0 0 1-1.207-4.031s-3.663-.044-5.937-1.327Z" fill="#5B2448"/><path opacity=".52" d="M86.78 70.46a2.886 2.886 0 0 0 2.884-2.888 2.886 2.886 0 0 0-2.884-2.889 2.886 2.886 0 0 0-2.884 2.889 2.886 2.886 0 0 0 2.884 2.888Z" fill="#E27280"/><path d="M78.717 69.885a.255.255 0 0 0 .236-.272.2.2 0 0 0-.044-.125c-2.465-3.722-5.944-2.44-5.981-2.425a.256.256 0 0 0-.147.332.256.256 0 0 0 .323.147c.126-.051 3.142-1.142 5.378 2.233a.27.27 0 0 0 .235.11Z" fill="#983C80"/><path d="M94.718 63.63c.058 0 .11-.03.147-.075.522-.64.72-1.105.647-1.503-.088-.5-.603-.803-1.192-1.15-1.331-.773-1.339-1.554-1.339-1.562a.204.204 0 0 0-.198-.206.194.194 0 0 0-.206.192c0 .044-.022 1.017 1.537 1.93.589.34.95.568 1 .87.045.265-.139.648-.566 1.172a.202.202 0 0 0 .03.287.17.17 0 0 0 .14.044Z" fill="#5B2448"/><path d="M50.837 128.298a.263.263 0 0 1-.162-.051.289.289 0 0 1-.081-.405c.051-.081 5.363-8.143 9.306-15.136a.29.29 0 0 1 .397-.111.3.3 0 0 1 .11.406c-3.95 7.015-9.269 15.091-9.328 15.172a.287.287 0 0 1-.242.125Z" fill="#F9B3AE"/><path d="M53.566 145.475c-11.02.111-22.555-.14-28.433-9.122-4.906-7.494-2.008-17.295.192-21.974 1.5.383 7.724 2.8 10.254 3.75 6.724 2.528 14.772 4.827 15.537 5.173 26.822 2.248 38.592 6.736 47.412 11.643 9.335 5.195 14.566 12.837 9.453 11.503 1.052 1.68-.353 2.594-2.729 1.828.419 1.827-2.803 1.54-4.554.7-3.222 2.387-11.557-2.948-20.59-3.648-9.1-.7-12.602 0-26.542.147Z" fill="#F1AA9F"/><path d="M23.662 118.741c7.143.774 20.944 3.154 27.101 4.421-1.471-.913-19.002-7.089-25.483-8.82-.345.766-.92 2.365-1.618 4.399Z" fill="#983C80"/><path d="M95.858 84.115c-.177.088-.36.177-.537.272 0 0-.007.015-.015.052.53 3.515 1.03 9.064-.61 11.252-.412.553-.927.833-1.575.877-2.7.17-4.274-3.146-5.12-5.954-.088-.295-.169-.59-.25-.877-.191.03-.383.067-.581.089.08.317.17.633.265.95.566 1.887 1.265 3.383 2.067 4.444.978 1.29 2.126 1.945 3.413 1.945.081 0 .162 0 .243-.007.817-.052 1.493-.428 2.008-1.113 1.81-2.432 1.244-8.349.692-11.93Zm-8.696 5.695-.19.023c-.118.015-.229.03-.34.037-.021 0-.036.007-.058.007-.191.022-.382.037-.566.052-.662 2.63-1.876 5.357-3.45 6.543-.825.62-1.685.774-2.56.45-3.569-1.304-4.312-8.07-4.437-11.717-.176.037-.375.03-.573 0 .037 1.165.132 2.646.368 4.164.691 4.546 2.184 7.273 4.443 8.098.368.133.735.207 1.096.207.691 0 1.368-.244 2.016-.737 1.692-1.283 2.979-4.12 3.67-6.868l.383 13.271v.022s.118 1.12-.177 2.27c-.375 1.466-1.236 2.306-2.545 2.483a.293.293 0 0 0-.25.332.3.3 0 0 0 .294.258h.044c1.552-.214 2.605-1.231 3.038-2.941a7.77 7.77 0 0 0 .192-2.453l-.398-13.5Z" fill="#F9B3AE"/><path d="M84.948 99.796a.633.633 0 1 0-.001-1.267.633.633 0 0 0 .001 1.267Z" fill="#F9B3AE"/><path d="M85.36 48.479c.008.155.14.28.294.28h.015a.296.296 0 0 0 .28-.31c0-.03-.088-2.011 1.044-3.544a6.253 6.253 0 0 0-.382-.472 5.519 5.519 0 0 0-.964 1.901c-.338 1.15-.287 2.108-.287 2.145Z" fill="#983C80"/><path d="M108.18 113.399a.295.295 0 0 0-.39-.14.296.296 0 0 0-.14.39l10.593 22.033c.052.103.155.17.265.17a.244.244 0 0 0 .125-.03.296.296 0 0 0 .14-.39l-10.593-22.033Z" fill="#F9B3AE"/><path d="M97.16 77.092c-3.185.192-1.994 7.7 2.67 8.334 0 0 1.28 3.935 4.716 8.755 6.871 9.623 5.002 28.805 12.108 43.041 8.401 16.838 29.809 12.417 29.735-4.532-.052-12.269-13.83-28.222-19.84-36.18-8.078-10.693-11.344-17.539-15.883-22.144-2.891-2.933-6.113-3.604-7.341-1.555-.935-.361-2.759.545-3.149 2.078-1.14-.324-2.906.567-3.016 2.203Z" fill="#F1AA9F"/><path d="M85.073 105.072a.633.633 0 1 0-.001-1.267.633.633 0 0 0 .001 1.267Z" fill="#F9B3AE"/><path d="M99.786 138.615a.294.294 0 0 0-.397.133.296.296 0 0 0 .132.398c3.075 1.54 6.79 4.657 8.46 7.302.287.074.537.125.758.14-1.589-2.859-5.576-6.278-8.953-7.973Zm-2.744 2.52a.297.297 0 0 0-.39.147.297.297 0 0 0 .147.391c.022.015 2.582 1.172 4.9 2.785 1.5 1.047 3.082 2.425 3.553 3.818.228.073.449.14.662.176-.817-3.64-8.497-7.147-8.872-7.317Zm.721 4.333a35.553 35.553 0 0 0-3.472-1.533.286.286 0 0 0-.375.177.287.287 0 0 0 .176.376c2.59.965 6.695 2.962 6.702 4.222a.504.504 0 0 1-.096.266c.17.081.368.169.567.235.081-.162.125-.324.125-.508-.022-.936-1.207-1.99-3.627-3.235ZM40.825 125.02a.293.293 0 0 0 .272.191.255.255 0 0 0 .103-.022c3.567-1.334 7.165-1.791 10.078-1.879-.051-.007-.11-.007-.162-.015-.17-.073-.684-.25-1.464-.493-2.626.191-5.65.707-8.658 1.827a.312.312 0 0 0-.17.391Zm57.902-43.963a.296.296 0 0 0-.28.31c.008.088.074 1.466.736 3.912.206.059.426.11.655.14-.721-2.594-.802-4.06-.802-4.075a.297.297 0 0 0-.31-.287Zm8.629 15.393a.3.3 0 0 0 .279-.199.296.296 0 0 0-.184-.375c-1.015-.34-2.103-1.062-2.92-1.71.074.103.603.87.831 1.282.611.398 1.244.774 1.898.995.03 0 .066.007.096.007Zm.073-21.561c-1.272-1.334-2.773-2.152-4.237-2.343a5.2 5.2 0 0 0-1.236.015c-1.081.161-1.802.758-2.082 1.82 0 .007 0 .007-.007.014v.008h-.007a2.841 2.841 0 0 0-.228.08c-.515.192-.971.42-1.354.7a4.308 4.308 0 0 1 1.258-.221c-.993.605-1.832.833-1.846.833-.015.008-.037.008-.052.015a2.714 2.714 0 0 0-.5 1.253v.03c.103-.008.338-.008.338-.008 1.082.015 2.656.398 4.061 2.196.059.073.147.11.228.11a.298.298 0 0 0 .235-.479c-1.405-1.783-2.972-2.291-4.046-2.402-.029 0-.058-.007-.095-.007.03-.06.059-.118.095-.17a8.904 8.904 0 0 0 2.553-1.297c1.324.236 2.692 1.002 3.921 2.233a.29.29 0 0 0 .206.088.29.29 0 0 0 .206-.088.293.293 0 0 0 0-.42c-1.17-1.172-2.472-1.953-3.759-2.292a6.833 6.833 0 0 0 1.243-1.474c1.552-.073 3.288.737 4.686 2.204a.295.295 0 0 0 .213.088.32.32 0 0 0 .206-.08.296.296 0 0 0 0-.406Zm-7.106-.464a4.504 4.504 0 0 0-.449-.037.111.111 0 0 0 .023-.03c.36-.56.919-.95 1.618-1.135a6.85 6.85 0 0 1-1.192 1.202Z" fill="#983C80"/><path d="M86.765 75.383c6.231 2.734 14.64 1.12 16-4.76l-7.385-.738-8.615 5.498Z" fill="#F1AA9F"/><path d="M95.439 67.1h-.023c-.088-.007-.132-.081-.14-.162a2.42 2.42 0 0 1 .604-1.813 2.939 2.939 0 0 1 1.986-.943c.088-.022.184.022.206.096.03.073-.022.162-.11.184-.081.022-2.053.56-2.354 2.52-.015.067-.089.118-.17.118Z" fill="#983C80"/></g><g clip-path="url(#c)"><path d="M138.056 50.285c13.445-.066 24.303-8.596 24.252-19.054-.051-10.458-10.992-18.882-24.438-18.816-13.445.066-24.303 8.597-24.252 19.055.051 10.457 10.992 18.881 24.438 18.815Z" fill="#fff"/><path d="M137.896 50.58c-6.505 0-12.628-1.959-17.258-5.522-4.687-3.607-7.285-8.437-7.307-13.59-.022-5.154 2.517-9.998 7.175-13.657 4.629-3.636 10.796-5.661 17.361-5.69 6.564-.03 12.754 1.928 17.42 5.521 4.688 3.607 7.285 8.437 7.307 13.59.023 5.154-2.524 10.005-7.175 13.657-4.629 3.637-10.796 5.661-17.368 5.69h-.155Zm.133-37.87h-.155c-6.439.029-12.481 2.01-17.007 5.565-4.504 3.541-6.977 8.224-6.955 13.193.022 4.962 2.539 9.622 7.08 13.126 4.563 3.512 10.619 5.434 17.059 5.404 6.439-.03 12.474-2.01 17.007-5.566 4.504-3.54 6.977-8.223 6.955-13.192-.022-4.962-2.539-9.622-7.08-13.127-4.526-3.49-10.524-5.404-16.904-5.404Z" fill="#66ADED"/><path d="M127.431 38.44a.295.295 0 0 1 0-.59l20.481-.102c.162 0 .295.132.295.294a.296.296 0 0 1-.295.294l-20.481.104Zm.876-16.977a.295.295 0 0 1-.236-.471l1.031-1.392a.297.297 0 0 1 .235-.118c.089 0 .184.045.236.118l1.045 1.384a.294.294 0 0 1-.059.413.293.293 0 0 1-.412-.06l-.81-1.067-.794 1.075a.298.298 0 0 1-.236.118Z" fill="#FFCC2D"/><path d="M146.867 39.375a.286.286 0 0 1-.235-.118.293.293 0 0 1 .059-.413l1.067-.81-1.075-.794a.296.296 0 0 1 .346-.479l1.399 1.023c.073.052.117.14.117.236a.287.287 0 0 1-.117.235l-1.377 1.053a.311.311 0 0 1-.184.067Zm-17.441 1.479a.296.296 0 0 1-.295-.294l-.103-20.489a.295.295 0 0 1 .589 0l.096 20.489c.007.154-.125.287-.287.294Z" fill="#FFCC2D"/><path d="M129.426 38.425a.308.308 0 0 1-.214-.088.308.308 0 0 1 0-.42l17.339-17.058a.306.306 0 0 1 .419 0 .306.306 0 0 1 0 .42l-17.331 17.065a.32.32 0 0 1-.213.081Z" fill="#FFCC2D"/><path d="M120.69 60.202c2.829 0 5.122-1.783 5.122-3.983s-2.293-3.983-5.122-3.983c-2.829 0-5.122 1.783-5.122 3.983s2.293 3.983 5.122 3.983Z" fill="#fff"/><path d="M120.69 60.489c-2.988 0-5.417-1.914-5.417-4.27s2.429-4.277 5.417-4.277 5.416 1.921 5.416 4.277-2.428 4.27-5.416 4.27Zm0-7.958c-2.664 0-4.828 1.656-4.828 3.688s2.164 3.688 4.828 3.688 4.828-1.656 4.828-3.688-2.164-3.688-4.828-3.688Z" fill="#66ADED"/><path d="M107.421 61.41c1.353 0 2.451-.854 2.451-1.907 0-1.054-1.098-1.907-2.451-1.907s-2.451.853-2.451 1.907c0 1.053 1.098 1.906 2.451 1.906Z" fill="#fff"/><path d="M107.421 61.704c-1.509 0-2.745-.987-2.745-2.202 0-1.214 1.236-2.2 2.752-2.2 1.516 0 2.753.986 2.753 2.2 0 1.215-1.244 2.202-2.76 2.202Zm0-3.821c-1.192 0-2.156.721-2.156 1.612 0 .891.971 1.612 2.163 1.612 1.193 0 2.164-.721 2.164-1.612 0-.89-.979-1.612-2.171-1.612Z" fill="#66ADED"/><path d="M126.85 25.416a.275.275 0 0 1-.228-.11l-1.958-2.489a.287.287 0 0 1 .052-.412.287.287 0 0 1 .412.052l1.957 2.488a.287.287 0 0 1-.051.412.277.277 0 0 1-.184.06Z" fill="#FFCC2D"/><path d="M124.9 25.416a.3.3 0 0 1-.236-.479l1.958-2.488a.3.3 0 0 1 .412-.051.3.3 0 0 1 .051.412l-1.957 2.488a.282.282 0 0 1-.228.118Zm19.944 17.021a.286.286 0 0 1-.236-.118l-.007-.007-.979-1.244a.287.287 0 0 1 .051-.412c.133-.096.31-.081.413.051l.986 1.26a.3.3 0 0 1-.052.411.316.316 0 0 1-.176.06Z" fill="#FFCC2D"/><path d="M144.829 42.437a.302.302 0 0 1-.177-.059.287.287 0 0 1-.051-.412l.007-.007.979-1.245a.3.3 0 0 1 .412-.051.302.302 0 0 1 .052.412l-.987 1.252a.325.325 0 0 1-.235.11Z" fill="#FFCC2D"/><path d="M144.836 43.674a.295.295 0 0 1-.294-.294v-1.252a.295.295 0 0 1 .589 0v1.252a.29.29 0 0 1-.295.294Z" fill="#FFCC2D"/></g><g clip-path="url(#d)" fill="#FFCC2D"><path d="m45.012 49.32-1.604 2.586a.916.916 0 0 1-1.259.296l-1.344-.83a8.086 8.086 0 0 1-2.617-2.59 5.794 5.794 0 0 1-.827-2.273c-.385-2.65-.627-3.868-.718-4.21a3.297 3.297 0 0 0-5.77-.31 3.28 3.28 0 0 0 .193 3.744c.26.337.251.81-.022 1.137l-1.974 2.373a.915.915 0 0 1-1.367.046 8.132 8.132 0 0 1-.86-10.042c2.477-3.764 7.543-4.812 11.315-2.34a8.158 8.158 0 0 1 2.956 3.443c.163.352.409.884 1.073 5.462.016.134.06.264.13.381.266.424.627.78 1.054 1.042l1.344.83a.91.91 0 0 1 .297 1.256Zm2.411 6.108-1.753-1.08a.911.911 0 0 1-.297-1.257l1.602-2.587a.916.916 0 0 1 1.26-.296l1.752 1.08c.43.266.563.828.297 1.257l-1.602 2.587a.916.916 0 0 1-1.26.296Zm18.241-26.484-2.2.589a.684.684 0 0 1-.837-.482l-.306-1.139a6.023 6.023 0 0 1-.097-2.747 4.33 4.33 0 0 1 .717-1.66c1.15-1.639 1.644-2.427 1.77-2.659a2.455 2.455 0 0 0-1.6-3.084 2.467 2.467 0 0 0-3.2 2.105.68.68 0 0 1-.595.608l-2.292.284a.682.682 0 0 1-.768-.674 6.092 6.092 0 0 1 4.686-5.907c3.28-.784 6.576 1.234 7.362 4.507a6.08 6.08 0 0 1-.158 3.384c-.092.275-.23.69-2.219 3.522a.743.743 0 0 0-.125.274c-.073.367-.059.745.04 1.106l.305 1.139a.682.682 0 0 1-.483.834Zm-1.817 4.568-.398-1.484a.682.682 0 0 1 .483-.835l2.2-.589a.684.684 0 0 1 .837.482l.399 1.484a.682.682 0 0 1-.483.835l-2.2.589a.684.684 0 0 1-.838-.482Z"/></g><defs><clipPath id="a"><path fill="#fff" transform="translate(42.972 144.5)" d="M0 0h85.63v16.213H0z"/></clipPath><clipPath id="b"><path fill="#fff" transform="translate(16.843 42.657)" d="M0 0h129.546v107.667H0z"/></clipPath><clipPath id="c"><path fill="#fff" transform="translate(104.676 12.12)" d="M0 0h57.926v49.583H0z"/></clipPath><clipPath id="d"><path fill="#fff" transform="translate(25.5 14.01)" d="M0 0h42.972v41.556H0z"/></clipPath></defs></svg>