<svg width="100" height="100" fill="none" xmlns="http://www.w3.org/2000/svg"><g clip-path="url(#a)"><path d="m75.228 49.243 8.226-17.782 8.668.05-8.281 17.783-8.613-.051Z" fill="#66B0F0"/><path d="M83.894 49.578c-.228 0-.413-.17-.413-.378 0-.052.012-.103.034-.15l8.165-17.333h-8.234L75.25 49.298c-.09.192-.332.281-.541.2-.21-.083-.307-.305-.217-.498l8.303-17.81a.415.415 0 0 1 .38-.23h9.132c.228 0 .413.17.413.378a.35.35 0 0 1-.034.15L84.273 49.35a.415.415 0 0 1-.38.228Z" fill="#FFCF2D"/><path d="M60.29 49.822c-.371-.083-.6-.429-.511-.774.074-.288.353-.492.672-.492l23.308-.006c.382 0 .691.287.691.641 0 .355-.309.642-.69.642l-23.309.007a.745.745 0 0 1-.162-.018Z" fill="#9B3C82"/><path d="M82.902 49.459c.137 0 .249-.103.249-.229s-.112-.228-.25-.228c-.136 0-.248.102-.248.228s.112.229.249.229Zm-.934-.166a.22.22 0 0 1-.2.115h-.007l-1.74-.01c-.097-.001-.187-.056-.216-.142-.049-.143.067-.275.216-.274l1.743.01c.157.001.277.149.204.3Z" fill="#FFCF2D"/></g><g clip-path="url(#b)"><path d="M88.979 35.786h-6.864l.415-.805h6.848l-.4.805Z" fill="#5B2448"/><path d="M88.98 35.888h-6.865a.104.104 0 0 1-.085-.05.105.105 0 0 1-.005-.102l.414-.8a.096.096 0 0 1 .091-.056h6.849c.035 0 .065.02.086.045.02.026.02.066.005.097l-.4.805a.093.093 0 0 1-.09.06Zm-6.698-.203h6.636l.299-.602H82.59l-.309.602Z" fill="#5B2448"/><path d="M88.949 35.655c-1.401.268-6.92 3.864-10 6.3-2.761 2.189-5.042 5.633-7.207 6.063-3.748.745-5.438-4.214-6.156-5.323-1.563-2.41-5.047-4.406-7.136-2.41 0 0-4.143 3.777-2.934 3.752 2.018-.04 4.87.461 6.429 3.145 1.76 3.03 5.472-1.109 9.65-4.801 2.832-2.502 8.766-6.31 10.571-6.797" fill="#fff"/><path d="M89.05 35.635a.099.099 0 0 0-.117-.081c-.652.121-2.26.982-4.405 2.35-1.978 1.26-4.137 2.78-5.64 3.97-1.047.831-2.013 1.829-2.948 2.791-1.492 1.535-2.898 2.988-4.213 3.252-.102.02-.203.035-.299.045-.51.026-1.254-.086-1.608-.217-.896-.34-1.538-1.003-2.074-1.768.703-.598 1.436-1.271 2.205-1.97.557-.512 1.133-1.033 1.72-1.55 2.817-2.487 8.715-6.3 10.53-6.777.107-.025.375-.096.375-.096l-.137-.177s-.243.06-.293.076c-1.831.496-7.78 4.32-10.612 6.817-.581.517-1.163 1.043-1.72 1.555-.748.678-1.481 1.352-2.184 1.95-.44-.664-.815-1.398-1.204-2.072-1.65-2.851-3.333-3.732-4.198-4.072-.946-.37-2.666-.456-2.666-.456s-2.498.04-4.264 1.753c-2.316 2.254-2.498 4.756-2.498 4.756s2.342-2.508 6.312.131c1.78 1.185 3.829 2.715 4.451 2.715h7.93s.34.157 2.054-1.352c.825-.628 1.67-1.5 2.54-2.401.93-.962 1.891-1.95 2.928-2.776 3.116-2.466 8.609-6.022 9.954-6.28.056-.005.091-.06.08-.116Z" fill="#5B2448"/><path d="m85.777 36.693-4.608-.086a.102.102 0 0 1-.1-.101c0-.056.05-.102.1-.102l4.603.087a.1.1 0 0 1 .101.1c.005.062-.04.102-.096.102Zm-2.508 1.332-4.608-.086a.102.102 0 0 1 0-.202l4.602.086c.056 0 .102.045.102.101a.094.094 0 0 1-.096.101Zm-2.691 1.495-4.168-.082a.102.102 0 0 1 0-.202l4.168.076a.1.1 0 0 1 .101.101c0 .06-.045.107-.101.107Zm-1.376.855-4.112-.08a.101.101 0 0 1 0-.203l4.112.08a.102.102 0 0 1 0 .203Zm-1.421.775-3.632-.07a.102.102 0 0 1-.1-.102.1.1 0 0 1 .1-.101l3.632.07c.056 0 .101.046.101.102 0 .06-.045.101-.1.101Zm-1.988 2.543-4.658-.086a.101.101 0 0 1 0-.203l4.653.086c.056 0 .101.046.101.101 0 .056-.04.102-.096.102Zm-1.922.83-3.682-.07a.101.101 0 0 1 0-.203l3.682.07a.102.102 0 0 1 0 .203Z" fill="#5B2448"/></g><g clip-path="url(#c)"><path d="M17.846 90.18c1.902 0 3.445-.295 3.445-.658 0-.364-1.543-.659-3.445-.659-1.903 0-3.446.295-3.446.659 0 .363 1.543.658 3.446.658Z" fill="#5B2448"/></g><g clip-path="url(#d)"><path d="M73.488 50.13h19.28c.062 0 .112.049.112.111v35.077c0 .063-.05.112-.112.112h-19.28a.111.111 0 0 1-.112-.112V50.242c0-.063.05-.113.112-.113Z" fill="#FFCF2D"/><path d="M92.768 85.43h-19.28a.111.111 0 0 1-.112-.112V50.242c0-.063.05-.113.112-.113h19.28c.062 0 .112.05.112.113v35.076c0 .063-.05.112-.112.112ZM73.6 85.206h19.056V50.354H73.6v34.852Z" fill="#FFCF2D"/><path d="M73.376 67.668H92.88v.224H73.376v-.224Zm19.504-8.77-19.504.045v.225l19.504-.045v-.225ZM73.376 76.415H92.88v.224H73.376v-.224Z" fill="#fff"/><path d="M92.768 50.466H50.353a.672.672 0 1 1 0-1.346h42.415a.672.672 0 1 1 0 1.346ZM76.604 89.4a2.072 2.072 0 1 0 0-4.144 2.072 2.072 0 0 0 0 4.144Zm13.106 0a2.072 2.072 0 1 0-.001-4.144 2.072 2.072 0 0 0 0 4.144Z" fill="#5B2448"/><path d="M83.15 55.4a.785.785 0 1 0 0-1.57.785.785 0 0 0 0 1.57Zm0 8.612a.785.785 0 1 0 0-1.57.785.785 0 0 0 0 1.57Zm0 8.612a.785.785 0 1 0 0-1.57.785.785 0 0 0 0 1.57Zm0 8.612a.785.785 0 1 0 0-1.57.785.785 0 0 0 0 1.57Z" fill="#fff"/></g><g clip-path="url(#e)"><path d="M33.58 85.048c-1.322-.363-2.424-1.12-3.275-2.246-.74-.976-1.313-2.263-1.703-3.827-.725-2.89-.725-6.21-.725-8.635a.222.222 0 0 0-.224-.224.222.222 0 0 0-.224.224c0 2.447 0 5.799.739 8.743.25 1.004.578 1.905.976 2.684h-4.327c.394-.78.721-1.68.977-2.684.739-2.944.739-6.296.739-8.743a.222.222 0 0 0-.224-.224.222.222 0 0 0-.224.224c0 2.424 0 5.74-.726 8.635-.394 1.564-.967 2.85-1.702 3.828-.851 1.124-1.953 1.882-3.274 2.245a.225.225 0 0 0-.166.215.222.222 0 0 0 .282.215c1.42-.39 2.603-1.201 3.512-2.407.201-.264.39-.55.564-.856h4.811c.175.305.363.592.565.856.909 1.206 2.092 2.017 3.512 2.407a.22.22 0 0 0 .273-.157.222.222 0 0 0-.157-.273Z" fill="#5B2448"/><path d="M32.827 90.08a2.572 2.572 0 1 0-.002-5.143 2.572 2.572 0 0 0 .002 5.143Z" fill="#FFCF2D"/><path d="M32.827 89.318a1.81 1.81 0 1 0 0-3.62 1.81 1.81 0 0 0 0 3.62Z" fill="#9B3C82"/><path d="M21.045 90.08a2.572 2.572 0 1 0 0-5.144 2.572 2.572 0 0 0 0 5.144Z" fill="#FFCF2D"/><path d="M21.046 89.318a1.81 1.81 0 1 0-.001-3.62 1.81 1.81 0 0 0 0 3.62Z" fill="#9B3C82"/><path d="M23.33 72.128c-.161 0-.336-.004-.524-.018a.114.114 0 0 1-.108-.116.114.114 0 0 1 .117-.108h.004c.995.063 1.608-.045 1.926-.34.278-.256.34-.65.35-1.206 0-.063.053-.112.112-.112.063 0 .112.054.112.112-.01.614-.085 1.058-.421 1.367-.305.287-.802.421-1.568.421Z" fill="#5B2448"/><path d="M23.084 72.67h-2.016a.671.671 0 1 1 0-1.344h2.016a.671.671 0 1 1 0 1.344Z" fill="#9B3C82"/><path d="M15.827 67.338a.218.218 0 0 1-.22-.189c-.86-5.624-2.419-12.964-3.749-16.123a.221.221 0 0 1 .12-.292.22.22 0 0 1 .292.121c1.34 3.191 2.916 10.58 3.776 16.232a.226.226 0 0 1-.188.255c-.009-.004-.022-.004-.031-.004Z" fill="#5B2448"/><path d="M27.012 65.415a56 56 0 0 0 4.919-.125c1.097-.045 4.905-.641 4.905-.641a1.967 1.967 0 0 1 2.258 1.622c.134.807-.287 1.542-.959 2.021-.434.273-2.365 1.295-5.532 1.95-.94.179-3.396.465-5.68.465a30.373 30.373 0 0 1-5.622-.618c-.927-.193-3.807-.91-5.393-1.797a1.975 1.975 0 0 1-.878-2.648 1.967 1.967 0 0 1 1.966-1.076c.005 0 8.364.82 10.017.847ZM12.84 52.921c-1.067.144-1.788-.658-2.07-1.608-.61-2.017-1.089-4.06-1.734-6.073-.524-1.64-1.061-3.276-1.733-4.862-.39-.923-.932-2.106-.278-3.03.3-.425.762-.707 1.277-.774 2.087-.014 3.525 3.186 3.825 3.773 1.156 2.303 2.02 5.906 2.195 7.134.282 2.725.744 5.055-1.483 5.44Z" fill="#FFCF2D"/></g><g clip-path="url(#f)"><path d="M63.099 76.028c-2.188 1.115-3.309 1.431-7.728 1.115-4.42-.315-6.134 1.475-5.674 2.68.8 2.097 8.039 1.159 13.402-3.795Z" fill="#5B2448"/><path d="M50.406 79.642s-4.966-.752-7.594-3.796c-2.471-2.857-4.86-5.327-6.345-4.374-2.37 1.517 2.725 9.912 13.939 8.17Z" fill="#5B2448"/><path d="m50.406 79.642-.992 1.383-1.599 2.235s-4.783 1.431-6.435-2.235c.172-.479.455-1.25.747-2.049l.196-.526v-.005c.489-1.316.958-2.56.972-2.599l7.11 3.796Zm12.914 3.479s-4.899 1.092-6.603-.995c-.015-.02-.03-.034-.044-.053-.014-.019-.028-.038-.043-.052l-.038-.053c-.005-.005-.005-.01-.01-.014a.433.433 0 0 1-.028-.048c-.024-.039-.048-.082-.072-.12a29.774 29.774 0 0 0-.33-1.632c-.039-.172-.082-.345-.12-.512-.01-.048-.024-.091-.034-.134-.01-.034-.014-.067-.024-.1-.31-1.264-.608-2.264-.608-2.264l7.728-1.116s.072 1.407.14 3.135c0 .043.004.082.004.125.043 1.234.081 2.699.081 3.833Z" fill="#F4ADA2"/><path d="M63.099 76.028c-1.92 1.742-5.171 2.776-7.12 3.384-.312-1.263-.608-2.264-.608-2.264l7.728-1.12Zm-12.693 3.614c-3.27.2-6.795-.814-8.083-1.192v-.005c.489-1.316.958-2.56.972-2.599l7.11 3.796Z" fill="#9B3C82"/><path d="m49.414 81.03-1.599 2.235s-4.783 1.43-6.435-2.235c.172-.479.455-1.25.747-2.049l7.287 2.049Z" fill="#66B0F0"/><path d="m48.734 81.982-6.98-1.977c-.053.149-.106.288-.154.422l6.857 1.938.277-.383Z" fill="#fff"/><path d="M63.32 83.126s-4.9 1.091-6.604-.996c-.014-.019-.028-.033-.043-.052a.41.41 0 0 0-.043-.053l-.038-.053c-.005-.004-.005-.01-.01-.014a.415.415 0 0 1-.028-.048c-.024-.038-.048-.081-.072-.12a29.79 29.79 0 0 0-.33-1.632l7.081-1c0 .043.005.082.005.125.043 1.244.081 2.709.081 3.843Z" fill="#66B0F0"/><path d="m63.266 80.14-6.933.856.086.44 6.862-.847-.015-.45Zm8.644 8.275c-.413.492-1.275 1.172-3.084 1.335-3.328.292-12.186.129-12.186.129.019-1.646.024-3.317-.005-4.767v-.005c-.033-1.58-.215-2.871-.172-3.225.536-.269 1.628.631 2.504.938 1.388.483 4.324.268 4.472.282 1.245.177 2.461.507 3.62.981l.072.029.033.014a9.927 9.927 0 0 1 .776.388c.048.029.096.053.143.076.072.043.144.082.216.125.019.014.043.024.062.038.455.273.886.575 1.298.91.033.028.067.057.1.08l.034.03c.01.01.024.019.033.028l.01.01c.005.005.014.01.019.014l.005.005c.01.01.019.02.028.024.02.02.044.033.063.053.01.004.014.014.024.019l.047.043.02.019c.019.02.043.038.062.057l.005.005.019.02c.005.004.014.014.024.018.014.015.029.03.043.039.01.005.014.014.024.019l.01.01.009.009c.02.02.043.038.062.062.029.029.058.058.086.082l.015.014.019.02.043.042c.014.014.024.029.038.038l.015.015.024.028c.014.02.033.034.047.053.01.01.02.02.025.029l.047.048c.01.014.024.024.034.038.038.038.072.077.105.12.015.019.034.038.048.052a.698.698 0 0 1 .077.091l.062.072c.01.01.02.024.029.034.01.01.019.023.028.033l.058.072c.038.048.077.096.11.143.014.015.024.034.034.048a4.287 4.287 0 0 1 .23.33c.019.03.038.063.057.091.005.005.005.01.01.015l.071.115c.015.019.024.038.034.057.086.148.148.268.191.354l.015.034c.023.048.038.076.043.096.005.004.005.01.005.014.01.005.01.005.01.01Z" fill="#fff"/><path d="M71.535 87.74c-2.868 2.043-5.683 1.125-7.344.435-1.432-.593-1.48.02-2.648-.35-.977-.31-1.283-1.004-2.528-1.153-.747-.086-1.839.254-2.332.79a37 37 0 0 0-.053-2.355v-.004c-.081-1.762-.191-3.317-.172-3.317 1.034.029 1.537.54 2.413.847 1.384.483 3.797.402 4.558.46 1.523.12 2.873.665 3.62.98l.072.03c.01.004.024.009.033.014a9.83 9.83 0 0 1 .776.388c.048.028.096.052.144.076.072.043.143.081.215.124.02.015.043.024.062.039a11.073 11.073 0 0 1 1.399.99l.033.03c.01.009.024.018.034.028l.01.01c.004.004.014.009.018.014l.005.004c.01.01.02.02.029.025.019.019.043.033.062.052.01.005.014.014.024.02l.048.042.02.02c.018.019.042.038.061.057l.005.005.02.019a.093.093 0 0 0 .023.019.303.303 0 0 0 .043.038c.01.005.015.015.024.02l.01.009.01.01c.019.019.043.038.062.057.028.029.057.057.086.081l.014.015.02.019.042.043c.015.014.024.029.039.038l.014.015.024.028.014.015.039.038c.01.01.019.02.024.029l.047.047c.01.015.024.025.034.039a1.1 1.1 0 0 1 .105.12c.015.019.034.038.048.052a.7.7 0 0 1 .077.091l.062.072.029.033c.01.015.019.024.029.034l.057.072c.038.047.077.095.11.143.014.015.024.034.034.048a7.286 7.286 0 0 1 .287.421c.005.024.01.029.01.034Z" fill="#5B2448"/><path d="M56.85 85.773c-.052 0-.081-.005-.09-.005a.132.132 0 0 1-.12-.149.132.132 0 0 1 .148-.12c.01 0 .771.063 1.724-.617.21-.148.383-.287.536-.402.594-.46.92-.718 2.116-.876a.135.135 0 0 1 .154.115.135.135 0 0 1-.115.154h-.005c-1.12.148-1.413.373-1.987.818-.153.12-.33.258-.546.412-.852.612-1.566.67-1.815.67Z" fill="#fff"/><path d="M67.758 89.132c-1.274 0-2.438-.378-3.429-.79-.809-.334-1.24-.325-1.661-.315-.316.01-.647.014-1.111-.12-.445-.13-.728-.35-1-.56-.346-.268-.676-.521-1.327-.584-1.494-.143-2.408.79-2.418.8-.043.043-.115.047-.158.004s-.048-.114-.005-.158c.038-.043.996-1.019 2.6-.866.718.067 1.087.354 1.441.632.269.21.522.407.93.522.43.124.727.12 1.043.11.445-.01.905-.02 1.752.33 1.882.78 4.386 1.43 7.082-.488a.113.113 0 0 1 .153.028c.034.053.02.12-.028.154-1.356.966-2.658 1.301-3.864 1.301Z" fill="#5B2448"/><path d="M59.024 87.567h-.014c-.369 0-.719.091-.977.245-.283.167-.436.392-.436.636 0 .488.623.871 1.413.871h.014c.369 0 .718-.086.977-.244.282-.168.436-.392.436-.641-.005-.489-.623-.867-1.413-.867Zm.867 1.312c-.23.139-.541.215-.877.215-.65.005-1.206-.297-1.21-.655 0-.163.114-.326.33-.45.23-.14.54-.216.876-.216h.01c.646 0 1.196.297 1.196.656.005.163-.11.325-.325.45Z" fill="#5B2448"/><path d="M72.024 88.367c0-.005 0-.005 0 0 0-.005-.005-.01-.005-.01-.01-.02-.024-.057-.048-.105l-.014-.034a4.557 4.557 0 0 0-.197-.359l-.033-.057c-.024-.043-.053-.086-.081-.134-.02-.029-.039-.062-.058-.091a.211.211 0 0 0-.038-.053 5.691 5.691 0 0 0-.197-.277c-.009-.015-.023-.034-.033-.048-.038-.053-.077-.1-.11-.144-.029-.033-.058-.072-.086-.105l-.029-.034c-.014-.019-.029-.033-.043-.052l-.02-.024-.076-.091-.014-.014a.226.226 0 0 0-.034-.039l-.105-.12c-.014-.014-.024-.028-.034-.038-.014-.019-.033-.033-.047-.052l-.024-.024-.048-.053c-.024-.029-.053-.053-.082-.081l-.014-.015c-.01-.01-.02-.019-.024-.028l-.038-.039c-.03-.028-.058-.057-.087-.086-.028-.024-.052-.052-.08-.076-.025-.02-.044-.043-.068-.063l-.024-.019a1.361 1.361 0 0 0-.09-.081c-.01-.005-.015-.014-.02-.02-.024-.023-.048-.042-.072-.066l-.005-.005a29.788 29.788 0 0 1-.086-.072l-.005-.005a.628.628 0 0 0-.062-.052c-.014-.01-.024-.024-.038-.034a76.986 76.986 0 0 1-.1-.086 11.553 11.553 0 0 0-1.308-.914c-.019-.01-.038-.024-.057-.034l-.01-.004a4.906 4.906 0 0 0-.215-.125c-.048-.028-.096-.052-.144-.081a9.648 9.648 0 0 0-.268-.144c-.062-.033-.125-.062-.182-.09a5.242 5.242 0 0 0-.33-.154l-.211-.086a9.39 9.39 0 0 0-.862-.287 10.34 10.34 0 0 0-.766-.196 6.09 6.09 0 0 0-.364-.077c-.22-.048-.46-.09-.713-.13l-.178-.028a16.779 16.779 0 0 0-.598-.081h-.005a.116.116 0 0 0-.124.1.116.116 0 0 0 .1.125c.173.019.34.043.498.067.402.057.766.124 1.092.196.273.057.517.12.737.177.436.115.771.23 1.01.32.12.044.216.087.288.116.115.047.22.1.32.148.005 0 .005.005.01.005.139.067.283.143.436.225.048.028.096.052.139.076.072.039.139.082.206.12l.004.005.01.005c.014.01.034.019.053.028.45.268.876.57 1.283.9.033.029.067.053.1.081.01.01.02.02.034.03.02.018.043.033.062.052l.005.004c.029.024.053.048.081.072l.005.005c.024.02.048.043.072.067l.02.02c.028.023.057.052.085.08l.024.02c.02.019.043.038.063.062.028.024.052.053.08.077l.087.08c.01.01.024.025.034.04.01.009.019.014.023.023l.02.02.076.076.048.048.029.028c.014.015.029.034.048.053.01.01.019.024.033.038.034.039.072.077.106.115.01.01.019.024.033.038l.014.015c.025.029.053.057.077.086l.02.024a.43.43 0 0 0 .042.048l.03.038c.028.034.057.072.08.105.039.048.072.096.11.144.01.014.025.029.034.043.067.091.13.182.192.273.01.014.024.033.033.052.005.005.005.01.01.015.014.024.033.048.048.072 0 .004.004.01.004.01.024.038.043.071.067.105.005.004.005.01.01.014.01.019.024.038.034.057.071.12.134.235.186.345l.015.029c.01.019.014.033.024.047-.771.876-2.03 1.159-2.96 1.24-3.078.273-11.007.168-12.07.148a34.88 34.88 0 0 0 .081-2.254v-.297c0-.464-.01-.952-.019-1.46-.005-.09-.005-.176-.01-.267a91.302 91.302 0 0 0-.186-3.499v-.005c-.005-.048-.005-.086-.005-.095 0-.03-.005-.053-.024-.072a.11.11 0 0 0-.067-.043c-.005 0-.01 0-.014-.005h-.034c-.01 0-.014.005-.024.01a.114.114 0 0 0-.067.09c-.005.024 0 .053.02.355.143 1.981.21 3.733.2 5.24a32.48 32.48 0 0 1-.09 2.403v.005c0 .062.047.11.11.115.042 0 2.197.033 4.773.033 2.662 0 5.765-.038 7.44-.186.987-.087 2.337-.398 3.156-1.374.029-.043.034-.091.01-.13Z" fill="#5B2448"/><path d="M62.505 85.926a.333.333 0 0 1-.335-.335.41.41 0 0 1 .024-.13c.029-.071.78-1.814 2.81-2.527a.334.334 0 0 1 .427.201.334.334 0 0 1-.201.426h-.005c-1.738.613-2.409 2.14-2.413 2.154a.321.321 0 0 1-.307.21Zm1.499.478a.333.333 0 0 1-.307-.469c.034-.076.828-1.837 2.911-2.45a.335.335 0 0 1 .192.641c-1.776.522-2.48 2.063-2.49 2.077a.329.329 0 0 1-.306.201Zm1.719.354a.333.333 0 0 1-.302-.478c.029-.067.766-1.594 2.667-2.13a.333.333 0 0 1 .412.235.331.331 0 0 1-.235.411c-1.609.45-2.236 1.752-2.24 1.766a.323.323 0 0 1-.302.197Z" fill="#FFCF2D"/><path d="M55.223 88.395c-.417.489-1.284 1.163-3.089 1.312-3.328.273-13.775-.015-13.775-.015.268-1.474 3.035-8.662 3.04-8.662.982.31 1.207 1.34 2.323 1.608 1.158.277 1.79.292 3.083.445 1.59.191 2.988.675 3.701.99a7 7 0 0 1 .326.154c.153.076.302.158.445.234.048.029.096.053.14.082.07.043.143.086.215.124.024.014.043.024.062.038.45.273.88.58 1.293.914l.1.087c.01.01.024.019.034.028l.033.029.01.01c.005.004.01.01.019.014l.005.005c.028.024.057.052.09.076.01.005.015.015.025.02.014.014.033.028.047.042l.02.02c.019.019.043.038.062.057l.005.005.019.019c.01.005.014.014.024.02a.315.315 0 0 0 .043.037c.01.005.014.015.024.02l.01.01.009.009c.02.019.043.038.062.062l.082.081a.13.13 0 0 1 .033.039l.043.043c.024.028.053.052.077.081.014.02.033.033.048.053.01.01.014.019.024.028.014.015.028.034.043.048.01.015.024.024.033.038.038.039.072.082.106.12.014.02.033.038.047.053l.077.09.057.073.03.038c.009.01.018.024.028.033l.057.072c.039.048.077.096.11.144l.034.048c.072.095.134.191.192.277.01.02.023.034.033.053.02.028.038.062.058.09l.081.13c.01.02.024.038.034.057.086.149.148.268.186.355l.015.033a1.186 1.186 0 0 0 .048.115c.019.01.019.01.019.014Z" fill="#fff"/><path d="M54.844 87.72c-2.878 2.025-6.244.934-7.9.235-1.432-.603-1.906.163-3.074-.215-.972-.316-1.279-1.015-2.519-1.168-.747-.09-1.838.407-2.293.804-.005.005 2.322-6.385 2.322-6.385 1.03.403 1.115 1.163 2.102 1.518.823.296 1.992.368 3.29.526 1.589.192 3.001.728 3.715 1.048.13.058.24.11.325.153.154.077.302.158.446.235.048.029.095.053.139.081.071.043.143.086.215.125.024.014.043.024.062.038.45.273.881.58 1.293.914l.1.086c.01.01.025.02.034.029.01.01.024.02.034.029l.01.01a.075.075 0 0 0 .018.014l.005.005c.01.004.014.014.024.019.024.019.043.038.067.057.01.005.014.014.024.02.014.014.034.028.048.042l.02.02c.018.019.042.038.061.057l.005.005.02.019c.009.005.014.014.023.019a.303.303 0 0 0 .043.038c.01.005.015.015.024.02l.01.009a.855.855 0 0 1 .01.01c.019.019.043.038.062.062l.081.081.015.014.019.02.043.043.052.052.024.029.015.014c.014.015.024.03.038.039.01.01.014.019.024.028.014.015.029.034.043.048.01.015.024.024.033.039.039.038.072.08.106.12.014.018.033.037.048.052l.076.09.058.073.029.038c.01.01.019.024.028.033l.058.072c.038.048.076.096.11.144.01.014.024.033.033.048.072.095.134.191.192.277.01.02.024.034.033.053.02.029.039.062.058.09.014.01.019.015.019.025Z" fill="#5B2448"/><path d="M39.939 85.572c-.058 0-.091-.005-.1-.005a.141.141 0 0 1-.12-.149.137.137 0 0 1 .143-.12c.015 0 .776.063 1.729-.607.21-.148.388-.282.54-.402.6-.46.925-.709 2.122-.862a.134.134 0 0 1 .148.115.134.134 0 0 1-.115.149c-1.12.143-1.412.363-1.991.808-.154.12-.33.254-.551.407-.843.603-1.551.666-1.805.666Z" fill="#fff"/><path d="M51.057 88.994c-.206 0-.417-.01-.628-.024-1.105-.086-2.288-.393-3.528-.914-.786-.33-1.293-.264-1.791-.197-.378.053-.77.106-1.255-.038-.46-.139-.766-.359-1.063-.574-.354-.254-.684-.498-1.264-.589-1.48-.234-2.288.723-2.322.761a.113.113 0 0 1-.158.014.113.113 0 0 1-.014-.158c.038-.043.92-1.096 2.528-.842.637.1 1.006.369 1.365.627.292.21.57.412.99.541.436.13.786.081 1.16.034.497-.068 1.062-.144 1.905.21 1.216.512 2.38.814 3.457.895 1.642.125 3.103-.249 4.338-1.12a.11.11 0 0 1 .153.034.11.11 0 0 1-.033.153c-1.106.79-2.399 1.187-3.84 1.187Z" fill="#5B2448"/><path d="M41.318 87.443c-.37 0-.719.086-.982.24-.282.167-.44.392-.44.636s.153.474.435.636c.264.153.613.24.982.24h.005c.368 0 .713-.087.976-.24.283-.167.436-.392.44-.636 0-.493-.622-.876-1.416-.876Zm.88 1.33c-.234.14-.55.211-.885.211-.335 0-.651-.077-.886-.215-.215-.13-.335-.288-.335-.455 0-.168.12-.33.335-.455.235-.138.55-.21.886-.21h.005c.66 0 1.22.306 1.22.67 0 .167-.12.325-.34.454Z" fill="#5B2448"/><path d="M55.308 88.348c-.004-.005-.004-.01-.004-.01v-.005c-.01-.019-.024-.057-.048-.1l-.015-.034a6.74 6.74 0 0 0-.191-.359c-.01-.019-.024-.038-.034-.057-.024-.043-.052-.086-.081-.134-.02-.029-.038-.062-.058-.091a.215.215 0 0 0-.038-.053 4.1 4.1 0 0 0-.196-.277c-.01-.02-.024-.034-.038-.048-.039-.053-.077-.1-.11-.144-.03-.033-.058-.072-.087-.105l-.029-.038c-.014-.02-.028-.034-.043-.053l-.019-.024c-.024-.029-.048-.062-.076-.09l-.015-.015c-.01-.015-.024-.029-.033-.039-.034-.038-.067-.08-.106-.12-.01-.014-.024-.028-.033-.038-.015-.019-.034-.033-.048-.052-.01-.01-.014-.02-.024-.029l-.048-.053c-.024-.028-.052-.052-.076-.08l-.015-.02a.147.147 0 0 1-.024-.029l-.038-.038-.086-.086-.005-.005-.077-.076a.854.854 0 0 0-.067-.063l-.024-.019a1.418 1.418 0 0 0-.09-.081l-.02-.02a1.288 1.288 0 0 0-.076-.066c-.029-.024-.058-.053-.087-.077l-.004-.005a.604.604 0 0 0-.063-.052c-.014-.01-.024-.024-.038-.034l-.1-.086a10.249 10.249 0 0 0-.977-.718 7.466 7.466 0 0 0-.326-.206c-.019-.01-.038-.024-.057-.033l-.01-.005-.215-.13c-.048-.028-.096-.052-.144-.08h-.005a14.124 14.124 0 0 0-.45-.235c-.062-.034-.129-.062-.196-.096-.043-.02-.091-.043-.139-.062a9.95 9.95 0 0 0-1.504-.517 13.94 13.94 0 0 0-1.153-.254h-.01c-.124-.024-.254-.043-.388-.067a14.07 14.07 0 0 0-.526-.076.123.123 0 0 0-.091.028.112.112 0 0 0-.034.067c-.01.063.038.115.096.125.177.024.354.048.517.072.043.005.086.014.13.019.392.067.751.139 1.072.215.287.067.546.139.78.21a9.63 9.63 0 0 1 1.02.379c.11.048.22.1.32.153.087.043.178.091.274.139.057.029.115.062.172.09.048.03.096.053.14.082.07.043.143.082.21.125l.01.01c.014.009.033.018.052.028a10.986 10.986 0 0 1 1.379.996c.01.009.02.018.034.028.019.02.038.034.062.053l.005.005c.028.023.057.047.086.076.024.02.048.043.072.067l.019.02c.028.028.057.052.086.08l.024.02c.019.019.043.038.067.062.024.024.053.048.076.077l.005.004.082.082a.25.25 0 0 1 .033.038c.01.01.02.014.024.024l.02.02c.023.028.052.052.076.076l.048.047.028.03c.015.014.03.033.048.052a2.19 2.19 0 0 0 .139.153c.01.014.024.024.034.038l.014.015c.024.028.053.057.077.086l.019.024c.014.019.029.033.038.048l.029.038c.029.033.057.072.081.105.034.043.072.091.11.144l.034.043c.067.09.13.182.191.273.01.014.024.033.034.052.005.005.005.01.01.015.014.024.033.047.047.071.005.005.01.015.015.02.019.033.038.067.057.095.005.005.005.01.01.015.01.019.024.038.033.057.072.12.134.235.187.345l.014.028c.01.02.015.034.024.048-.44.493-1.307 1.087-2.968 1.225-2.686.22-10.113.149-12.799.11-.397-.004-.69-.009-.847-.009.038-.148.1-.359.177-.613.139-.435.33-1.005.55-1.641.024-.077.053-.153.082-.23.024-.072.053-.148.076-.225.163-.46.33-.938.508-1.421.033-.091.062-.178.096-.268.392-1.092.785-2.154 1.068-2.925.301-.818.402-1.1.44-1.206.014-.043.02-.057.02-.067a.078.078 0 0 0-.01-.057.113.113 0 0 0-.068-.058c-.004 0-.01-.004-.014-.004-.057-.01-.12.028-.13.086-.033.057-.22.574-.459 1.23-.699 1.91-1.896 5.169-2.384 6.729a6.99 6.99 0 0 0-.206.751v.02c0 .062.048.11.11.114a473.135 473.135 0 0 0 6.79.053c2.729 0 5.563-.034 7.019-.153.986-.081 2.341-.383 3.165-1.355a.1.1 0 0 0 .01-.114Z" fill="#5B2448"/><path d="M46.13 85.682a.333.333 0 0 1-.336-.335c0-.053.01-.1.034-.149.033-.072.886-1.766 2.95-2.36a.33.33 0 0 1 .411.23.33.33 0 0 1-.23.412c-1.771.512-2.528 2-2.533 2.015a.328.328 0 0 1-.296.187Zm1.465.569a.333.333 0 0 1-.297-.488c.038-.072.934-1.79 3.05-2.278a.335.335 0 0 1 .153.65c-1.805.417-2.595 1.915-2.604 1.93a.34.34 0 0 1-.302.186Zm1.695.45a.333.333 0 0 1-.335-.335c0-.052.014-.11.038-.158.033-.062.852-1.55 2.787-1.972a.335.335 0 0 1 .397.254.335.335 0 0 1-.254.397c-1.618.354-2.332 1.623-2.336 1.637a.339.339 0 0 1-.297.177Z" fill="#FFCF2D"/><path d="M15.242 56.913c1.431 6.116 9.696 15.765 29.806 7.547 0 0-1.743 2.235-4.113 3.977-1.657 1.22-3.53 2.145-4.468 3.04.714-.446 2.505-.202 5.45 3.66 2.858 3.753 8.489 4.514 8.489 4.514l1.565-1.919s1.355-.67 4.022-.445c2.145.177 5.181-.091 7.106-1.25 0 0-.503-16.597-9.83-22.106-7.867-4.657-22.61-2.915-29.85-1.264-1.838.422-6.257 1.7-8.177 4.245Z" fill="#21A0AA"/><path d="M57.53 58.526a9.138 9.138 0 0 0-.9-1.78 15.302 15.302 0 0 0-1.48-1.47.115.115 0 0 0 .03.043 9.103 9.103 0 0 1 2.144 3.288c.55 1.44.786 3.058.69 4.81-.22 4.197-2.265 9.022-6.067 14.344l.029-.034s.124-.062.369-.138c3.687-5.241 5.669-10.008 5.89-14.167.095-1.78-.145-3.432-.705-4.896Zm-10.122 2.512a.11.11 0 0 0-.153.034c-.015.024-1.561 2.46-2.696 3.585.163-.063.326-.13.489-.197 0 0-.015.02-.048.058 1.1-1.211 2.384-3.23 2.441-3.327a.114.114 0 0 0-.033-.153Z" fill="#6CE0DC"/><path d="M46.724 49.317a89.78 89.78 0 0 1-2.94 1.862 32.097 32.097 0 0 1-.771.454c-.053.03-.1.063-.154.091-2.049 1.183-4.309 2.331-6.794 3.312-9.739 3.844-12.645-2.369-12.645-2.369l-.01.005c-.01 0-.014.005-.019.005-.048.01-.096.024-.148.038-.01 0-.02.005-.03.01-.047.01-.095.024-.143.038-.048.01-.09.024-.139.038a.696.696 0 0 1-.095.024c-.048.015-.091.024-.14.039l-.11.028a3.004 3.004 0 0 1-.148.043c-.067.02-.134.039-.2.063-.058.019-.111.033-.168.052l-.307.1-.134.044c-.034.01-.067.024-.096.033-.062.02-.124.043-.182.063-.005 0-.01 0-.01.004-.052.02-.1.034-.152.053l-.115.043a4.26 4.26 0 0 1-.182.067c-.048.02-.1.038-.149.057-.09.039-.186.072-.277.11l-.144.058a2.24 2.24 0 0 1-.163.067l-.134.057c-.182.082-.36.158-.531.24-.039.019-.077.038-.115.052-.072.034-.144.072-.216.106-.057.028-.11.057-.167.086-.053.029-.11.053-.163.081-.005.005-.015.005-.02.01a15.803 15.803 0 0 0-.871.483c-.043.029-.09.053-.134.081-.029.02-.057.034-.086.053a2.541 2.541 0 0 1-.12.072l-.086.057c-.043.03-.09.058-.134.087l-.13.086c-.042.028-.08.057-.124.081a.942.942 0 0 0-.11.077 2.068 2.068 0 0 0-.124.086c-.039.029-.077.052-.11.081-.182.13-.35.259-.503.373l-.086.072a1.011 1.011 0 0 1-.087.067l-.072.058-.086.072c-.024.019-.048.042-.071.062a7.53 7.53 0 0 0-.56.517l-.02.019c-.014.014-.024.024-.029.033-.01.01-.01.015-.014.015v.004a25.808 25.808 0 0 1-.709-5.255 28.274 28.274 0 0 1 .053-2.92c.67-9.748 6.296-19.225 14.475-23.274.071-.038.143-.072.22-.105.775-.373 1.57-.694 2.389-.967l5.856 3.862.177.115s.005.005.005.01c0 0 0 .005.005.005.014.023.024.047.038.071.014.03.029.058.048.087l.043.086.086.172.038.081c.039.086.082.177.115.264.01.028.024.057.034.086.01.028.024.057.033.086a.57.57 0 0 0 .034.081c.057.149.105.292.153.431.01.024.015.048.024.067.01.029.014.053.024.077.01.023.014.052.024.076l.043.153c.005.024.014.048.02.077.014.048.023.1.038.148l.028.13c.005.009.005.023.01.033.014.062.029.12.038.177v.005a5.774 5.774 0 0 1 .077.426v.005c.019.11.028.215.038.306 0 .014.005.029.005.048.005.029.005.057.01.081 0 .029.004.053.004.077a.1.1 0 0 0 .005.038c.005.09.01.163.01.21v.063c1.201 1.704 2.518 5.896 2.7 6.495-.005.004-.01.01-.005.019.096.354.182.708.264 1.062.076.345.34 1.565.354 1.642v.005c.005 0 .01-.005.014-.005.154-.038 1.604-.46 2.514-.713l.1-.03c.091-.023.182-.047.269-.076v.187c-.005.948.057 4.652 1.283 7.663.005.004.005.01.01.019.138.354.296.694.474 1.02Z" fill="#66B0F0"/><path d="M45.23 12.474a2.036 2.036 0 0 0-1.853-.191c-.403-2.116-3.156-2.058-3.697-.546-1.714-1.642-4.252.2-3.672 2 .21.66.507 1.853.1 2.886.872.517 2.356 3.126 2.356 3.126s3.62-3.977 5.262-3.94c2.586.058 2.667-2.545 1.504-3.335Z" fill="#5B2448"/><path d="M42.247 12.948a.096.096 0 0 0-.02.062c0 .062.048.11.11.11.039 0 .072-.02.092-.048.718-1.067 1.762-.914 1.805-.91a.1.1 0 0 0 .067-.009 2.07 2.07 0 0 0-.93.13 2.36 2.36 0 0 0-.052-.216c-.345.13-.742.388-1.072.88Z" fill="#9B3C82"/><path d="M45.464 22.175c-.004.57-.359 1.135-.981 1.417-1.628.737-3.625.082-3.625.082s-2.585 2.163-3.131 4.7a2.323 2.323 0 0 0-.182-.015c-.728-.077-3.61-.593-5.856-3.963 0 0 2.81-1.819 4.099-3.8-1.082-.244-2.208-1.46-1.81-2.92.23-.832 1.182-1.33 2.044-1.115.886.22 1.413 1.01 2.035 1.814.704.914 1 .23 1.389-.631.249-.55.536-1.178.996-1.498 1.039-.728 3.29-.44 3.29-.44s-.015.296-.01.67c.01.492.057 1.12.234 1.378.306.454.651.406.642.689-.01.244-.302.512-.47.627-.023 1.66 1.35 1.675 1.336 3.005Z" fill="#F4ADA2"/><path d="M37.29 20.821a.111.111 0 0 0 .073-.139.111.111 0 0 0-.14-.072c-.521.163-1.124.072-1.44 0a2.823 2.823 0 0 1-.135.197c.302.076.608.115.915.12.244 0 .488-.034.728-.106Z" fill="#9B3C82"/><path d="M39.034 22.175c-.283.134-.67 1.752.718 2.594.603-.674 1.106-1.086 1.106-1.09 0-.006-1.216-.518-1.824-1.504Zm1.576-5.37.009-.09.014-.082a1.242 1.242 0 0 1 .201-.436c.13-.186.302-.34.498-.45a1.29 1.29 0 0 1 .69-.163c.12.006.234.034.344.078a.818.818 0 0 1 .288.19c.1.101.095.264-.005.36a.273.273 0 0 1-.077.053l-.043.019c-.09.038-.167.062-.24.086-.071.024-.133.052-.19.072-.116.047-.216.09-.331.138a4.48 4.48 0 0 0-.354.192l-.202.12-.105.062c-.019.01-.038.019-.057.033-.02.01-.039.02-.058.024l-.153.024a.207.207 0 0 1-.24-.172c.005-.015.005-.038.01-.058Zm1.043.9c.249-.076.857-.249 1.403-.593a.163.163 0 0 1 .225.052c.124.196.263.555-.139.737-.493.23-1.331.144-1.527-.062-.034-.033-.03-.086.005-.12l.033-.014Z" fill="#5B2448"/><path opacity=".52" d="M40.336 21.17a1.168 1.168 0 1 0 0-2.336 1.168 1.168 0 0 0 0 2.336Z" fill="#E57281"/><path d="M43.573 20.668a.771.771 0 0 1-.264.138.855.855 0 0 1-.291.034.984.984 0 0 1-.776-.378.98.98 0 0 1-.149-.259.859.859 0 0 1-.014-.579.099.099 0 0 1 .13-.057c.042.014.066.057.066.1v.005a.805.805 0 0 0 .206.598c.048.053.1.1.158.144.12.077.259.13.402.144a.744.744 0 0 0 .422-.053h.005c.052-.024.11 0 .134.048a.09.09 0 0 1-.03.115Zm-6.665-1.283a.118.118 0 0 1-.11-.086c-.321-1.479-1.518-1.512-1.57-1.512a.112.112 0 0 1-.11-.115c0-.063.047-.11.11-.11.014 0 1.426.028 1.785 1.689a.11.11 0 0 1-.086.134c-.005-.005-.014 0-.02 0Z" fill="#9B3C82"/><path d="M63.99 42.617c-.513-.474-1.432-1.163-1.969-1.517.67.224 3.931.938 1.61-.714-.049-.033-.57-.392-.777-.53-2.676-1.772-5.932-2.274-9.078-1.642-.608.12-7.618 1.857-7.618 1.857l-1.206.358s-.173 5.313 1.767 8.888c1.029-.68 1.991-1.34 2.882-1.953.953-.65 1.824-1.249 2.619-1.751 1.302-.828 2.404-1.412 3.318-1.613 2.126-.464 3.888.76 5.717 1.34 1.83.579 1.652-.225-.354-1.517.1.043 4.673 2.077 3.127.177.01.005 2.24.718-.039-1.383Z" fill="#F4ADA2"/><path d="M42.065 41.257s-.173-1.46-.508-2.622c-.488-1.709-1.518-4.772-2.81-6.6 0 0 0-1.786-1.025-3.662-.043 2.01 0 4.265 0 4.265s.756 6.987.306 9.893l4.037-1.274Z" fill="#F94F46"/><path d="M23.406 52.672c-5.53 1.34-8.164 4.24-8.164 4.24a25.806 25.806 0 0 1-.46-2.397l.01-.01c2.815-2.948 7.8-3.853 7.8-3.853s.818 2.015.814 2.02Z" fill="#5B2448"/><path d="M38.876 32.226a4.234 4.234 0 0 0-.13-.191v-.005a3.19 3.19 0 0 1-1.005.842c.005.067.015.144.024.235a3.388 3.388 0 0 0 1.111-.881Z" fill="#66B0F0"/><path d="M42.022 41.267c-2.51.742-5.79 1.732-6.196 1.857.1-.479.182-.972.258-1.474.355-2.46.383-5.107.077-7.648a17.201 17.201 0 0 0-.455-2.379c.757 1.35 1.24 2.135 1.628 2.135.029 0 .053-.005.081-.01.355-.105.642-.809.312-5.38a6.83 6.83 0 0 1-.182-.014c.134 1.828.172 3.14.129 4.001-.053.996-.215 1.192-.306 1.22-.091.03-.283-.062-.675-.64-.312-.46-.68-1.13-1.073-1.839l-.172-.315c-.738-2.092-1.91-3.47-3.39-3.91a2.728 2.728 0 0 0-.283-.072.065.065 0 0 0-.029-.034c-.972-.699-1.843-1.158-2.442-1.402-.071.033-.148.072-.22.105.532.196 1.365.613 2.318 1.268-1.49-.162-3.692.512-6.522 3.853-3.174 3.748-3.787 8.582-3.74 11.98.058 4.192 2.112 10.141 2.112 10.141l.182-.043s-2.054-5.93-2.111-10.098c-.043-3.365.56-8.156 3.696-11.86 1.312-1.55 2.605-2.647 3.83-3.255 1.135-.56 2.198-.698 3.16-.411 1.03.31 1.906 1.086 2.605 2.316.68 1.201 1.16 2.814 1.38 4.671a29.441 29.441 0 0 1-.077 7.6 26.88 26.88 0 0 1-.288 1.614v.01c-.454 2.143-1.168 4.029-2.13 5.618a.092.092 0 0 0 .029.124.092.092 0 0 0 .124-.028c.895-1.48 1.575-3.207 2.035-5.155.282 3.212-.58 6.17-.589 6.203-.005.01-.005.014-.005.024 0 .048.039.09.091.09.038 0 .077-.023.086-.062.01-.033.968-3.316.551-6.738.431-.134 2.748-.843 5.205-1.57-.24 2.57.167 7.241 1.843 9.974.053-.029.105-.062.153-.09-.953-1.537-1.412-3.566-1.632-5.007-.259-1.704-.33-3.547-.192-4.94.148-.042 1.125-.354 2.054-.622.872-.248 1.705-.459 1.705-.459v-.187c-.005 0-1.307.36-2.935.838Z" fill="#B0DCF7"/><path d="M59.795 40.109c-.02.057.014.12.076.139.015.004 1.193.363 2.16.856.158.053.45.13.78.197-1-.694-2.796-1.245-2.872-1.269a.113.113 0 0 0-.144.077Zm4.558 3.871c-1.168-1.076-3.351-2.244-4.97-2.66a.11.11 0 0 0-.134.081c-.014.057.02.12.082.139 1.494.383 3.553 1.464 4.716 2.47.038.01.182.052.345.08v-.004c.01-.038-.01-.076-.038-.105Zm-5.449-1.2a.11.11 0 0 0 .067.143c.015.005 1.193.45 2.074.957.177.077.507.216.895.364-.733-.723-2.801-1.498-2.887-1.532-.063-.019-.13.01-.149.067Z" fill="#9B3C82"/><path d="M52.23 45.613c-.795.507-1.671 1.1-2.62 1.751-.842-1.526-1.57-3.379-2.087-5.264-.043-.168-.091-.33-.13-.498a23.795 23.795 0 0 1-.382-1.814c-.005-.02-.005-.038-.01-.057l.21-.034 2.074-.345.814-.133c.081.478.182.962.297 1.45.043.182.09.363.139.54.426 1.575 1.02 3.13 1.695 4.404Z" fill="#5B2448"/><path d="M48.04 38.362c1.418-.483 2.845-.077 3.184.914.34.99-.536 2.187-1.953 2.67-1.417.484-2.863.082-3.227-.9-.431-1.157.58-2.196 1.996-2.684Z" fill="#5B2448"/><path d="M49.338 42.157a3.986 3.986 0 0 0 1.264-.703c-.024-.077-.043-.158-.067-.235a3.77 3.77 0 0 1-1.27.727 3.66 3.66 0 0 1-1.742.168c.02.077.043.153.067.235a3.918 3.918 0 0 0 1.748-.191Zm-.252-.747c1.376-.47 2.257-1.538 1.968-2.386-.29-.848-1.64-1.155-3.017-.685-1.376.469-2.257 1.537-1.968 2.385.29.848 1.64 1.155 3.017.686Z" fill="#fff"/><path d="M47.82 41.722c-.9 0-1.628-.35-1.839-.962-.153-.44-.019-.948.374-1.422.383-.464.967-.847 1.652-1.081 1.422-.489 2.83-.154 3.131.741.153.44.02.948-.373 1.422-.383.464-.968.847-1.652 1.081a4.1 4.1 0 0 1-1.293.22Zm.244-3.298c-.651.225-1.206.589-1.57 1.024-.35.426-.474.871-.345 1.25.273.799 1.58 1.081 2.906.626.651-.225 1.207-.588 1.57-1.024.35-.426.475-.87.346-1.249-.273-.8-1.58-1.082-2.907-.627Z" fill="#5B2448"/><path d="M48.758 40.73a.114.114 0 0 1-.11-.08l-.259-.977c-.014-.057.02-.12.077-.134l1.518-.421c.057-.02.12.02.139.077.019.057-.02.12-.077.138l-1.412.388.234.866a.118.118 0 0 1-.076.14c-.015.004-.024.004-.034.004Z" fill="#5B2448"/></g><g clip-path="url(#g)"><path d="M32.718 80.911s.167-5.814 6.256-10.629c4.219-3.336 11.503-6.676 14.232-14.336 1.72-4.824 1.55-9.608 4.86-11.987.993-.714 1.896-1.226 3.11-1.646 1.135-.394 2.935-.701 2.935-.701s-.968-.661-2.7-.904c-5.103-.716-11.391.447-13.927 1.73-1.471.746-2.34 2.062-2.926 3.239-.963 1.933-1.119 4.916-1.16 6.033-.035.983-.489 2.579-2.635 4.142-3.351 2.442-8.69 4.656-11.924 6.67-8.023 4.998-9.593 10.317-10.75 14.614 7.982 1.061 14.63 3.775 14.63 3.775Z" fill="#fff"/><path d="M32.718 81a.088.088 0 0 1-.033-.006c-.066-.028-6.73-2.723-14.608-3.77a.088.088 0 0 1-.074-.11c.508-1.886 1.204-4.468 2.811-7.069 1.778-2.875 4.387-5.36 7.978-7.598 1.34-.834 3.024-1.695 4.807-2.606 2.533-1.294 5.152-2.632 7.113-4.06 2.08-1.516 2.56-3.053 2.598-4.074.096-2.627.5-4.726 1.17-6.07.507-1.02 1.367-2.468 2.965-3.277 1.312-.665 3.565-1.272 6.028-1.625 2.8-.4 5.624-.442 7.95-.115 1.733.243 2.698.891 2.738.919a.089.089 0 0 1-.035.16c-.018.004-1.806.311-2.922.698-1.112.385-2.006.858-3.086 1.634-2.233 1.604-2.86 4.303-3.587 7.428-.341 1.465-.694 2.98-1.24 4.517-.954 2.675-2.54 5.058-4.847 7.285-2.006 1.936-4.277 3.486-6.281 4.853-1.137.775-2.211 1.508-3.134 2.238-3.126 2.472-4.652 5.212-5.38 7.075-.79 2.02-.841 3.473-.842 3.487a.089.089 0 0 1-.089.086ZM18.2 77.062c7.293.983 13.525 3.362 14.438 3.722.03-.398.177-1.709.843-3.414.736-1.885 2.277-4.658 5.438-7.157.928-.734 2.005-1.468 3.144-2.246 1.998-1.363 4.263-2.908 6.258-4.834 2.288-2.208 3.858-4.568 4.802-7.217.544-1.527.895-3.037 1.235-4.497.735-3.16 1.37-5.89 3.657-7.532 1.094-.787 2.002-1.267 3.132-1.658.886-.307 2.186-.564 2.714-.662-.365-.2-1.217-.597-2.463-.772-2.31-.324-5.116-.283-7.9.116-2.444.35-4.677.95-5.973 1.607-1.55.785-2.39 2.201-2.887 3.199-.658 1.32-1.056 3.394-1.15 5.996-.04 1.061-.534 2.653-2.672 4.21-1.972 1.438-4.598 2.78-7.137 4.076-1.779.91-3.46 1.768-4.793 2.6-8.091 5.04-9.61 10.47-10.685 14.463Z" fill="#5B2448"/><path d="m52.283 53.714-8.342-.032a.089.089 0 0 1 0-.178l8.342.032a.089.089 0 0 1 0 .178Zm-.627 1.296-8.343-.032a.089.089 0 0 1 0-.177h.001l8.342.032a.089.089 0 0 1 0 .178Z" fill="#5B2448"/><path d="m48.59 55.958-.304.547a10.507 10.507 0 0 1-2.17 2.716l-.667.598a.084.084 0 0 1-.082.029l-6.389-1.326a.104.104 0 0 1-.04-.185l.56-.32a14.74 14.74 0 0 0 2.944-2.211l.029-.028a.119.119 0 0 1 .07-.023l5.986.066c.07 0 .108.082.063.137Z" fill="#9B3C82"/><path d="M45.793 62.283a.091.091 0 0 1-.022-.002l-9.207-2.41a.089.089 0 0 1 .045-.171l9.206 2.409a.089.089 0 0 1-.022.174Zm-2.29 1.263a.09.09 0 0 1-.026-.004l-9.042-2.7a.089.089 0 0 1 .051-.17l9.042 2.7a.089.089 0 0 1-.025.174Zm-2.223 1.231a.09.09 0 0 1-.026-.003l-9.042-2.7a.089.089 0 0 1 .05-.17l9.043 2.7a.089.089 0 0 1-.025.173ZM32.073 77.02a.087.087 0 0 1-.028-.005l-2.151-.727a47.952 47.952 0 0 0-7.508-1.88l-2.331-.385a.089.089 0 0 1 .029-.175l2.33.386a48.115 48.115 0 0 1 7.537 1.886l2.15.727a.089.089 0 0 1-.028.173Zm20.639-24.603-8.343-.032a.089.089 0 0 1 0-.177h.001l8.342.032a.089.089 0 0 1 0 .177Z" fill="#5B2448"/><path d="M28.743 76.783a.333.333 0 0 1-.332-.324l-.061-2.19a.333.333 0 1 1 .664-.019l.035 1.236 2.129-2.847a.332.332 0 1 1 .532.4l-2.701 3.61a.332.332 0 0 1-.266.134Z" fill="#F94F46"/></g><g clip-path="url(#h)"><path d="M42.858 51.825c-2.057 1.188-4.331 2.343-6.833 3.328-9.802 3.863-12.725-2.38-12.725-2.38 4.6-1.049 12.213-2.134 19.191-1.615l.21.016c.366.03.73.063 1.092.1-.232.14-.467.279-.704.417l-.075.044-.156.09Z" fill="#21A0AA"/><path d="M64.531 44.149a3.237 3.237 0 0 1-.346-.084l-.01-.003c1.085 1.332-.824.74-2.113.246a24.982 24.982 0 0 1-1.034-.425c2.022 1.302 2.201 2.11.358 1.526-1.843-.583-3.617-1.812-5.755-1.347-.917.2-2.026.79-3.338 1.62a94.095 94.095 0 0 0-2.638 1.763c-.897.613-1.863 1.276-2.901 1.96-.087-.159-.47-.192-.55-.359-1.688-3.568-1.23-8.577-1.23-8.577l1.214-.36s7.055-1.745 7.665-1.867c3.163-.634 6.444-.13 9.135 1.649.207.137.735.501.781.534 1.795 1.275.277 1.148-.83.918a7.838 7.838 0 0 1-.784-.199l-.004-.001c.54.36 1.462 1.051 1.978 1.527 1.675 1.541.927 1.574.402 1.479Z" fill="#F4ADA2"/><path d="M46.753 49.406a79.663 79.663 0 0 1-3.664 2.285l-.075.044-.156.09c-2.057 1.188-4.331 2.343-6.833 3.328-9.802 3.863-12.725-2.38-12.725-2.38l-.012.003s-.255-.765-.59-1.92l-.032-.112-.003-.01-.015-.052a70.672 70.672 0 0 1-.92-3.684c-.336-1.523-.635-3.192-.65-4.34-.046-3.414.557-8.273 3.752-12.04 2.598-3.065 4.602-3.871 6.086-3.871.134 0 .262-.053.386-.047l.022.002.377.06c.098.021.174.093.266.12 1.49.447 2.639 1.808 3.381 3.91.06.107.186.523.272.84.2.73.398 1.516.501 2.378a29.695 29.695 0 0 1-.077 7.69c-.073.506-.16 1-.258 1.48.2-.06 1.083-.329 2.229-.674 1.209-.363 2.71-.812 4.008-1.194l.002-.001.038-.012a.067.067 0 0 1 .012-.004l.042-.012.02-.006a.728.728 0 0 0 .032-.009l.156-.045.07-.02a.5.5 0 0 1 .028-.008c.522-.15 1.5-.431 2.18-.622.034-.01.068-.018.1-.028l.268-.074h.003v.01l-.001.005v.033l-.002.1v.038c-.005.854.044 3.92.936 6.724l.022.068a2.062 2.062 0 0 0 .022.068l.04.12.015.044.035.1.025.07.024.068.05.136a7.128 7.128 0 0 0 .12.307l.002.002a17.598 17.598 0 0 0 .13.305l.068.15.07.15.072.147.075.146.076.144Z" fill="#66B0F0"/><path d="M62.939 41.343a7.811 7.811 0 0 1-.785-.199c-.973-.494-2.157-.855-2.172-.86a.112.112 0 0 1 .065-.214c.078.024 1.884.573 2.892 1.273Zm1.593 2.803v.003a3.21 3.21 0 0 1-.347-.084c-1.171-1.007-3.247-2.098-4.75-2.48a.112.112 0 0 1-.026-.204.112.112 0 0 1 .083-.014c1.629.415 3.826 1.59 5.003 2.674a.113.113 0 0 1 .037.105Zm-2.47.163c-.389-.15-.72-.29-.898-.366-.889-.514-2.072-.96-2.088-.966a.112.112 0 0 1 .079-.21c.088.033 2.168.817 2.907 1.541Z" fill="#9B3C82"/><path d="M38.015 42.506c1.209-.363 2.71-.812 4.008-1.194l-.898.283-.083.026-3.038.959.011-.074Z" fill="#F94F46"/><path d="M15.573 56.563c.031.15-.606.028-.572.178-.034-.15.603-.027.572-.178Zm-.537.327.036.15-.036-.15Z" fill="#5B2448"/><path d="M44.971 40.47v.187c-.024.006-.849.213-1.714.46-.934.268-1.916.58-2.066.625l-.186.055c-2.472.73-4.805 1.444-5.24 1.578.423 3.442-.543 6.742-.553 6.775a.09.09 0 0 1-.172-.051c.01-.032.88-3.007.595-6.236a14.966 14.966 0 0 0-.059-.557v-.001c0-.007.002-.013.004-.02v-.002l.001-.001v-.002a.091.091 0 0 1 .058-.055l.147-.045a735.921 735.921 0 0 1 6.236-1.869h.003l.113-.034.03-.009.157-.045a12.612 12.612 0 0 0 .098-.028c1.444-.422 2.548-.725 2.548-.725Z" fill="#B0DCF7"/><path d="m43.014 51.735-.156.09a8.324 8.324 0 0 1-.367-.666c-1.377-2.79-1.71-6.975-1.486-9.362l.012-.124a.087.087 0 0 1 .024-.052.085.085 0 0 1 .084-.026.088.088 0 0 1 .071.096l-.005.05c-.141 1.402-.07 3.254.193 4.968.197 1.281.58 3.02 1.317 4.465.098.193.202.38.313.56ZM36.044 41.7a25.415 25.415 0 0 1-.409 2.162v.001c-.464 1.961-1.15 3.699-2.05 5.185a.09.09 0 0 1-.092.045.092.092 0 0 1-.06-.036.09.09 0 0 1-.002-.102c.967-1.6 1.687-3.494 2.145-5.65a.069.069 0 0 0 .004-.02v-.001l.001-.002v-.002c.111-.52.206-1.056.286-1.606.355-2.458.382-5.1.076-7.643-.224-1.863-.705-3.487-1.39-4.695-.7-1.234-1.581-2.018-2.62-2.329-.967-.29-2.038-.15-3.18.414-1.235.611-2.533 1.712-3.855 3.272-3.159 3.726-3.767 8.541-3.722 11.925.019 1.362.25 2.91.552 4.38a49.36 49.36 0 0 0 .92 3.684l.015.053a.776.776 0 0 1 .003.009c.01.038.022.076.033.112a45.47 45.47 0 0 0 .601 1.918l-.012.003-.055.013-.114.029v-.003a47.308 47.308 0 0 1-.646-2.076c-.612-2.123-1.441-5.47-1.477-8.12-.046-3.414.57-8.275 3.765-12.043 2.598-3.065 4.669-3.897 6.152-3.897a3.628 3.628 0 0 1 .411.022l.377.06c.098.021.193.045.284.073 1.49.446 2.67 1.831 3.413 3.934l.265.85c.212.785.365 1.584.458 2.39a29.7 29.7 0 0 1-.077 7.69Z" fill="#B0DCF7"/><path d="M52.293 45.683a92.16 92.16 0 0 0-2.638 1.762c-.809-1.47-1.518-3.234-2.03-5.046a22.623 22.623 0 0 1-.064-.234l-.004-.014a23.786 23.786 0 0 1-.413-1.764l-.015-.074a20.65 20.65 0 0 1-.088-.488l-.01-.059.214-.035 2.086-.346.82-.136a20.488 20.488 0 0 0 .438 2.005l.003.01c.02.079.043.158.065.236.42 1.498.993 2.965 1.636 4.183Z" fill="#5B2448"/><path d="M50.592 41.264a3.755 3.755 0 0 1-1.279.73 3.64 3.64 0 0 1-1.752.171c.02.078.042.156.065.234.152.02.306.03.46.03a4.045 4.045 0 0 0 1.3-.221 3.99 3.99 0 0 0 1.27-.708 22.935 22.935 0 0 1-.064-.236Zm-.003-.01a21.828 21.828 0 0 1-.439-2.005l-.819.136-2.087.346-.213.035.01.059c.028.162.057.325.088.488l.014.074a23.786 23.786 0 0 0 .414 1.764l.004.014 3.03-.901-.002-.01Z" fill="#fff"/><path d="M48.078 38.39c1.428-.487 2.862-.076 3.203.92.34.994-.54 2.197-1.968 2.685s-2.884.084-3.249-.903c-.43-1.165.586-2.213 2.014-2.701Z" fill="#5B2448"/><path d="M49.13 41.458c1.386-.473 2.273-1.548 1.982-2.402-.292-.854-1.652-1.163-3.039-.69-1.386.472-2.274 1.548-1.982 2.401.291.854 1.652 1.163 3.038.69Z" fill="#fff"/><path d="M51.242 39.21a1.118 1.118 0 0 0-.102-.319c-.397-.797-1.74-1.074-3.098-.61-.685.235-1.275.62-1.66 1.087a1.87 1.87 0 0 0-.41.806 1.19 1.19 0 0 0-.003.487v.003c.01.045.022.09.037.134.179.522.73.853 1.443.944.135.017.271.025.408.025.443-.004.884-.08 1.303-.225.48-.16.927-.41 1.314-.736.125-.107.24-.224.346-.351.34-.413.486-.848.422-1.244Zm-.816 1.398a3.763 3.763 0 0 1-1.325.764c-.602.205-1.198.26-1.698.187-.61-.091-1.075-.377-1.227-.82a1.027 1.027 0 0 1-.005-.624 1.79 1.79 0 0 1 .35-.633c.364-.441.925-.807 1.58-1.03 1.251-.429 2.482-.207 2.86.483a.941.941 0 0 1 .065.148c.131.382.008.829-.345 1.258a2.674 2.674 0 0 1-.255.267Z" fill="#5B2448"/><path d="M48.802 40.771a.113.113 0 0 1-.109-.083l-.263-.98a.112.112 0 0 1 .078-.137l1.527-.423a.114.114 0 0 1 .089.007.112.112 0 0 1-.029.21l-1.419.393.234.872a.113.113 0 0 1-.108.141Z" fill="#5B2448"/></g><defs><clipPath id="a"><path fill="#fff" transform="translate(59.76 30.96)" d="M0 0h32.96v18.88H0z"/></clipPath><clipPath id="b"><path fill="#fff" transform="translate(52.8 34.88)" d="M0 0h36.68v13.68H0z"/></clipPath><clipPath id="c"><path fill="#fff" transform="translate(14.4 88.84)" d="M0 0h10.2v1.32H0z"/></clipPath><clipPath id="d"><path fill="#fff" transform="translate(49.68 49.12)" d="M0 0h43.76v40.28H0z"/></clipPath><clipPath id="e"><path fill="#fff" transform="translate(6.72 36.56)" d="M0 0h32.4v53.52H0z"/></clipPath><clipPath id="f"><path fill="#fff" transform="translate(14.52 10.64)" d="M0 0h57.52v79.4H0z"/></clipPath><clipPath id="g"><path fill="#fff" transform="translate(18 43.28)" d="M0 0h46.2v37.72H0z"/></clipPath><clipPath id="h"><path fill="#fff" transform="translate(15 26.68)" d="M0 0h50.16v30.36H0z"/></clipPath></defs></svg>