<svg width="200" height="200" fill="none" xmlns="http://www.w3.org/2000/svg"><g clip-path="url(#a)"><path d="M30.492 43.848a.144.144 0 0 1-.12-.065c-.04-.062-4.167-6.308-9.354-10.564a.143.143 0 0 1 .181-.221c5.222 4.284 9.371 10.566 9.412 10.629a.143.143 0 0 1-.12.221Zm144.799 27.909a.18.18 0 0 1-.167-.115.174.174 0 0 1-.007-.105.175.175 0 0 1 .054-.091c2.082-1.88 4.913-6.477 6.17-8.992a.177.177 0 0 1 .24-.08.18.18 0 0 1 .09.104.18.18 0 0 1-.01.136c-1.27 2.54-4.134 7.186-6.251 9.097a.176.176 0 0 1-.119.046Z" fill="#9B3C82"/><path d="M177.957 68.643c-8.371 7.154-37.12 36.904-72.973 31.317-41.57-6.478-56.097-38.201-78.171-61.081 4.86 6.48 25.677 77.558 71.623 76.402 37.759-.95 66.763-22.678 79.521-46.638Z" fill="#9B3C82"/><path d="M97.345 115.473a42.933 42.933 0 0 1-12.394-1.822c-4.057-1.221-8.072-3.083-11.933-5.535-6.767-4.297-13.304-10.556-19.428-18.604-11.06-14.536-18.47-31.736-22.898-42.013-1.85-4.297-3.188-7.401-4.022-8.514a.179.179 0 0 1 .271-.231c5.226 5.417 10.126 11.447 14.865 17.28 7.71 9.49 15.685 19.304 25.581 27.226 5.33 4.268 10.755 7.638 16.583 10.305 6.553 2.999 13.436 5.032 21.041 6.217 7.532 1.174 15.302.846 23.094-.977 6.571-1.537 13.297-4.168 19.99-7.822 12.088-6.599 21.375-14.969 26.924-19.97 1.1-.99 2.05-1.847 2.822-2.507a.18.18 0 0 1 .228-.003.18.18 0 0 1 .064.103.179.179 0 0 1-.018.12c-3.249 6.103-7.463 11.923-12.525 17.3a91.81 91.81 0 0 1-17.922 14.715 95.219 95.219 0 0 1-22.618 10.391c-8.54 2.642-17.493 4.097-26.61 4.327-.365.009-.73.014-1.095.014Zm-69.57-75.327c.818 1.576 1.896 4.079 3.246 7.211 4.42 10.262 11.82 27.437 22.854 41.939 6.098 8.013 12.603 14.244 19.334 18.518 3.834 2.434 7.818 4.283 11.844 5.495a42.625 42.625 0 0 0 13.378 1.792c9.083-.229 18.003-1.679 26.513-4.31a94.926 94.926 0 0 0 22.532-10.352 91.444 91.444 0 0 0 17.853-14.657c4.8-5.1 8.834-10.599 12.002-16.358-.611.538-1.305 1.164-2.073 1.855-5.56 5.012-14.867 13.399-26.992 20.018-6.721 3.669-13.477 6.312-20.079 7.856-7.838 1.833-15.653 2.164-23.231.983-7.638-1.19-14.551-3.233-21.135-6.246-5.855-2.679-11.303-6.064-16.657-10.35-9.927-7.947-17.913-17.776-25.636-27.281-4.402-5.418-8.944-11.008-13.753-16.113Z" fill="#9B3C82"/><path d="M177.805 68.55c-.018.028-1.86 2.972-5.322 7.25-3.195 3.948-8.461 9.87-15.407 15.67-11.37 9.492-29.358 20.329-52.218 20.329-1.79 0-3.611-.069-5.464-.206-36.54-2.745-45.685-21.915-56.275-44.113-4.485-9.404-9.125-19.128-16.162-28.707l-.296.201c1.553 2.474 3.28 7.53 5.467 13.932 8.543 25.014 24.446 71.572 67.24 74.837 1.549.119 3.092.178 4.63.178 10.196 0 20.116-2.596 29.55-7.742 8.68-4.734 16.969-11.624 24.638-20.479 6.82-7.875 11.876-15.879 14.917-21.207 3.296-5.774 5.002-9.74 5.018-9.779l-.316-.165Z" fill="#FFCF2D"/><path d="M26.71 39.048a.179.179 0 0 1-.167-.242c1.279-3.342 4.523-6.79 6.55-6.96.627-.052 1.122.2 1.435.73.262.444.261.956-.003 1.52-.61 1.306-2.444 2.536-3.483 3.153-1.541.915-3.23 1.62-4.303 1.797a.177.177 0 0 1-.029.002Zm6.546-6.851c-.043 0-.088.002-.134.006-.893.075-2.113.874-3.347 2.194-1.168 1.25-2.167 2.775-2.776 4.232 1.033-.242 2.501-.88 3.86-1.688 1.708-1.014 2.926-2.106 3.342-2.996.214-.457.22-.846.019-1.188-.222-.376-.538-.56-.964-.56Z" fill="#9B3C82"/><path d="M22.522 39.81h-.082c-1.516-.012-2.72-.325-3.303-.86-.38-.348-.503-.787-.358-1.27.123-.405.43-.688.916-.842 1.101-.35 2.818.06 3.743.337 1.37.409 2.697 1.019 3.382 1.553a.179.179 0 0 1-.043.307c-1.238.493-2.784.774-4.255.774Zm-1.813-2.748a3.05 3.05 0 0 0-.906.116c-.371.118-.594.316-.681.605-.106.352-.022.648.257.904 1.051.964 4.468 1.011 6.954.133-.7-.46-1.83-.954-2.997-1.303-1.007-.3-1.915-.455-2.627-.455Z" fill="#9B3C82"/><path d="M24.855 52.662a.18.18 0 0 1-.159-.26c1.384-2.72 2.12-7.518 1.917-12.25-.788 3.19-2.395 6.798-4.048 8.992a.178.178 0 0 1-.25.036.178.178 0 0 1-.036-.25c1.85-2.455 3.64-6.71 4.256-10.117a.179.179 0 0 1 .355.017c.416 5.192-.337 10.711-1.875 13.734a.179.179 0 0 1-.16.098ZM179.462 76.27c-.402 0-.752-.201-1.039-.597-.683-.941-.835-2.717-.864-3.691-.044-1.446.118-2.914.413-3.74a.14.14 0 0 1 .042-.062.142.142 0 0 1 .202.017c1.86 2.21 3.026 5.847 2.354 7.344-.207.463-.579.715-1.075.728h-.033Zm-1.299-7.685c-.234.823-.357 2.111-.318 3.388.048 1.602.343 2.889.809 3.531.24.331.514.486.833.479.389-.01.658-.193.822-.559.297-.66.209-1.834-.241-3.222-.426-1.314-1.114-2.617-1.905-3.617Z" fill="#9B3C82"/><path d="M170.432 71.565c-.511 0-.958-.072-1.309-.227-.562-.248-.869-.697-.889-1.297-.017-.503.224-.941.716-1.303 1.154-.848 3.345-1.049 4.548-1.093 1.786-.064 3.602.124 4.625.481a.15.15 0 0 1 .061.042.15.15 0 0 1 .032.067.133.133 0 0 1-.006.074.142.142 0 0 1-.042.06c-2.199 1.876-5.557 3.196-7.736 3.196Zm3.775-3.646c-.232 0-.465.004-.699.012-1.991.073-3.59.45-4.388 1.037-.412.303-.614.66-.6 1.064.016.49.258.84.719 1.044.827.366 2.291.248 4.015-.322 1.651-.547 3.287-1.428 4.529-2.436-.875-.253-2.199-.4-3.576-.4Z" fill="#9B3C82"/><path d="M176.438 83.331a.143.143 0 0 1-.141-.122c-.861-5.84.038-10.51 1.113-13.666-2.47 3.827-4.209 8.115-4.407 10.956a.146.146 0 0 1-.048.099.14.14 0 0 1-.104.035.146.146 0 0 1-.099-.05.133.133 0 0 1-.027-.049.132.132 0 0 1-.007-.055c.219-3.136 2.277-7.995 5.121-12.092a.146.146 0 0 1 .084-.057.145.145 0 0 1 .168.09.142.142 0 0 1-.001.101c-1.219 3.084-2.471 8.128-1.51 14.646a.15.15 0 0 1-.003.056.141.141 0 0 1-.139.108Z" fill="#9B3C82"/></g><g clip-path="url(#b)"><path d="M74.535 38.324c-5.788-1.078-13.103 3.663-19.463 8.832-5.724 4.647-5.446 11.023-1.349 12.194 2.827.806 5.189-2.563 5.189-2.563l8.35-8.418c0 .008 8.223-4.719 7.273-10.045Z" fill="#F4ADA2"/><path d="M56.357 50.755c.421-.665.514-1.043.328-1.236-.364-.37-1.57.293-3.811 1.735a.146.146 0 0 0-.043.2c.043.072.129.086.2.043.735-.471 1.513-.964 2.177-1.328 1.106-.592 1.263-.457 1.27-.45 0 0 .136.157-.55 1.171-1.37 2.028-3.354 2.906-3.375 2.913a.141.141 0 0 0 .057.271c.021 0 .036-.007.057-.014.064-.029 1.192-.528 2.355-1.656.2-.693.693-1.285 1.335-1.65Zm-2.997 5.331a.135.135 0 0 0-.08.129c0 .078.065.142.143.142a.206.206 0 0 0 .065-.014 6.155 6.155 0 0 0 1.884-1.378 3.506 3.506 0 0 1-.136-.285 5.693 5.693 0 0 1-1.877 1.406Zm1.291 1.751c-.057.02-.086.07-.086.135 0 .079.065.143.143.143.022 0 .036-.007.057-.014 1.17-.479 1.977-1.55 2.013-1.6 0 0 0-.007.007-.007a4.77 4.77 0 0 1-.235-.164c-.057.072-.835 1.071-1.899 1.507Z" fill="#9B3C82"/><path d="M61.781 52.53c-.114-.1-.228-.192-.342-.292-1.12-.942-2.177-1.842-3.547-1.878a2.974 2.974 0 0 0-1.535.386c-.642.364-1.135.956-1.328 1.65a2.39 2.39 0 0 0-.092.549c0 .057-.008.114-.008.164a3.8 3.8 0 0 0 .443 1.85 3.949 3.949 0 0 0 1.17 1.37c.08.057.158.107.236.164a3.88 3.88 0 0 0 1.891.585c.058 0 .186.008.229 0 .05-.057.028-.257.014-.285-.036 0-.071.007-.107.007-.05 0-.107 0-.157-.007a3.634 3.634 0 0 1-3.426-3.834c.064-1.27 1.306-2.349 2.662-2.313 1.27.036 2.291.892 3.37 1.806.113.1.227.193.349.293a.14.14 0 0 0 .2-.021.131.131 0 0 0-.022-.193Z" fill="#9B3C82"/><path d="M79.403 68.496c1.941-6.454 1.734-15.478-.62-22.889 1.077-1.685-.608-6.604-4.248-7.275 0 0-.335 4.655-6.23 9.067-5.896 4.412-3.42 19.09-3.42 19.09l14.518 2.007Z" fill="#66B0F0"/><path d="M78.89 45.943c-.037-.107-.072-.228-.108-.336-.835 1.036-2.484 2.356-5.703 3.27-2.212.628-4.689.914-6.716.778-.05.093-.1.179-.15.272.372.028.764.042 1.178.042 3.818.008 9.107-1.242 11.498-4.026ZM67.113 62.749c-.079-.008-.15.05-.157.121-.008.071.05.15.121.157 4.397.528 7.052 3.984 7.073 4.02.021.028.05.042.078.05 1.735.4 3.448.863 5.175 1.399.028-.093.057-.186.078-.271a72.084 72.084 0 0 0-5.138-1.385c-.314-.407-2.977-3.585-7.23-4.091Z" fill="#B0DCF7"/><path d="M108.266 111.852a67.1 67.1 0 0 1-3.405.079c-1.784 0-3.604-.065-5.452-.208-27.3-2.048-39.277-13.293-48.005-28.114-.743-9.253 4.096-14.721 5.824-16.985l10.134-3.548c4.005.628 6.838 4.02 6.838 4.02 12.868 2.97 18.592 7.817 39.604 12.33-6.716 17.462-5.709 30.713-5.538 32.426Z" fill="#66B0F0"/><path d="M96.69 104.327c-.793 1.149-3.084 4.348-4.133 5.861-.3.436-.835.664-1.356.578a72.142 72.142 0 0 1-8.686-1.949c-.136-1.392-2.541-25.287-9.792-38.759l-1.778-.036s-1.527-3.063-3.14-4.947c1.749-.471 6.266.271 7.137 3.434 0 0 17.18 13.207 21.919 34.94.071.307.007.621-.172.878Z" fill="#F94F46"/><path d="m79.553 86.385.035-.057-.02-.064c-.443-1.406-3.02-5.876-6.225-9.945-1.456-1.85-2.79-3.327-4.018-4.505.514.171.97.279 1.335.279.285 0 .514-.065.664-.222.285-.285.242-.82-.122-1.635-1.37-3.041-3.047-4.79-3.697-5.397-.014-.014-.028-.029-.035-.029a.138.138 0 0 0-.2 0 .138.138 0 0 0 0 .2l.043.043c.642.6 2.283 2.313 3.632 5.312.3.67.364 1.128.179 1.313-.307.307-1.256.058-2.32-.35-2.969-2.72-5.224-3.648-6.766-3.883-1.534-.236-2.912.121-4.11 1.05a14.18 14.18 0 0 0-2.15.028c-.07.1-.142.2-.22.307h.035a12.95 12.95 0 0 1 2.006-.064 8.159 8.159 0 0 0-1.3 1.492c-2.904 4.212-3.69 10.395-2.197 17.391l.085.379c.15.214.329.478.478.692-.085-.364-.207-.771-.285-1.135-1.477-6.925-.714-13.022 2.155-17.17a7.721 7.721 0 0 1 1.485-1.635c2.284.135 4.91.671 6.809 1.25.585.178 1.342.499 2.14.849.579.25 1.157.492 1.685.7 1.342 1.235 2.827 2.84 4.461 4.919 3.362 4.276 5.724 8.517 6.16 9.795-4.154 6.296-4.083 14.65-2.663 20.461.107.043.214.093.329.136-1.456-5.776-1.578-14.2 2.612-20.505Zm-12.469-15.77c-.806-.35-1.57-.671-2.17-.857-1.82-.557-4.303-1.07-6.537-1.242a4.826 4.826 0 0 1 2.769-.857c.285 0 .564.021.85.064 1.391.214 3.404 1.014 6.03 3.291-.321-.135-.635-.27-.942-.4Z" fill="#B0DCF7"/><path d="M70.346 41.472a3.142 3.142 0 0 0-2.834.328c-1.306-3.034-5.46-2.348-5.767.093-3.111-1.884-6.237 2.028-4.774 4.534.535.92 1.399 2.677 1.142 4.362 1.47.485 4.532 3.82 4.532 3.82s4.096-7.154 6.566-7.647c3.876-.764 3.133-4.69 1.135-5.49Z" fill="#5B2448"/><path d="M66.064 43.186c-.008.015-.008.036-.008.05 0 .079.065.143.143.143a.146.146 0 0 0 .136-.093c.5-1.363 1.741-1.806 2.234-1.934a3.28 3.28 0 0 0-1.057.45c-.035-.086-.078-.172-.12-.258a3.247 3.247 0 0 0-1.328 1.642Z" fill="#9B3C82"/><path d="M73.915 55.93c.185.857-.158 1.82-1 2.449-2.19 1.642-5.717 1.242-5.717 1.242s-.135 3.298.607 5.454c0 0-3.276 2.942-10.577 1.55a97.945 97.945 0 0 0 1.684-9.853c-1.699-.007-3.79-1.449-3.676-3.77.065-1.32 1.328-2.384 2.684-2.348 1.399.036 2.44 1.042 3.64 2.042 1.356 1.135 1.57.014 1.87-1.407.193-.906.414-1.942.992-2.577 1.313-1.435 4.775-1.75 4.775-1.75s.078.45.207 1c.178.736.457 1.657.806 1.992.607.578 1.114.393 1.185.821.064.364-.285.871-.492 1.1.528 2.491 2.59 2.056 3.011 4.055Z" fill="#F4ADA2"/><path d="M61.21 56.587a.143.143 0 0 0 .064-.193.143.143 0 0 0-.192-.064c-.671.314-1.556.428-2.184.464-.015.1-.022.193-.036.293.657-.036 1.613-.15 2.348-.5Z" fill="#9B3C82"/><path d="M66.256 61.712c.443.143.764.172.985.122-.085-1.235-.043-2.213-.043-2.213a5.335 5.335 0 0 1-2.962-1.414c-.385.293-.37 2.727 2.02 3.505ZM64.85 49.498l-.014-.136c0-.043-.007-.086-.007-.128a2.156 2.156 0 0 1 .15-.728 2.21 2.21 0 0 1 .6-.85 1.97 1.97 0 0 1 .456-.307c.164-.079.35-.136.528-.164.178-.029.364-.029.543.007.178.028.342.1.492.2a.412.412 0 0 1 .014.67l-.057.044c-.121.092-.228.15-.321.221-.093.064-.178.121-.257.178-.15.115-.285.207-.435.315-.143.107-.293.242-.464.392l-.264.236a2.55 2.55 0 0 1-.143.128c-.022.022-.05.043-.071.065a.32.32 0 0 1-.079.057l-.257.085a.324.324 0 0 1-.414-.2.17.17 0 0 0 0-.085Zm1.877 1c.35-.2 1.2-.657 1.906-1.35.1-.1.257-.092.35 0 .25.258.578.743.042 1.15-.663.507-1.94.657-2.305.414a.135.135 0 0 1-.035-.179c.014-.014.028-.02.042-.035Z" fill="#5B2448"/><path opacity=".52" d="M65.521 56.044a1.67 1.67 0 1 0 0-3.34 1.67 1.67 0 0 0 0 3.34Z" fill="#E57281"/><path d="M70.588 54.302a1.087 1.087 0 0 1-.35.3 1.53 1.53 0 0 1-.427.15c-.457.1-.935-.014-1.292-.307a1.558 1.558 0 0 1-.307-.343 1.3 1.3 0 0 1-.214-.87c.014-.086.093-.15.178-.136.072.007.121.064.136.135v.008c.078.435.37.806.785.978.207.078.42.107.642.085.221-.014.436-.085.614-.214l.007-.007a.159.159 0 0 1 .221.036c.05.05.05.128.007.185Zm-10.434.278a.141.141 0 0 1-.129-.085c-.984-2.127-2.804-1.77-2.883-1.756a.151.151 0 0 1-.171-.107.151.151 0 0 1 .107-.172c.021-.007 2.12-.42 3.197 1.92.036.072 0 .158-.071.194-.014.007-.029.007-.05.007Z" fill="#9B3C82"/><path d="M72.516 70.444a.177.177 0 0 1-.179-.178c0-.079.057-.15.136-.172 1.72-.45 2.512-1.727 2.52-1.741a.176.176 0 0 1 .242-.065c.085.05.114.157.064.243-.036.057-.87 1.414-2.734 1.9-.014.013-.035.013-.05.013Z" fill="#66B0F0"/><path d="M138.256 87.193c-4.981 4.362-18.649 27.837-14.752 31.449 3.64 3.37 12.333-23.11 14.752-31.449Z" fill="#5B2448"/><path d="M152.538 154.017c-2.598 1.571-7.523 1.235-12.64-.635a30.521 30.521 0 0 1-1.777-.707 21.713 21.713 0 0 0-2.041-.771c-4.49-1.464-8.458-2.013-9.85-3.405-3.497-3.499.593-7.268 3.469-15.7 1.884-5.526 3.433-15.763 6.059-21.76-.064.021-3.39 1.163-8.165 1.634l-.428.043c-1.085.1-2.241.157-3.447.164h-.05l-.007-4.676-.093-44.264c4.511-5.925 18.542-18.933 26.201-5.925 8.215 13.95-1.678 33.283-1.678 33.283s15.146 4.248 6.188 22.975c-8.878 18.569-13.31 23.038-11.99 28.835.078.336.193.657.342.964.493 1.028 1.385 2.142 2.52 3.163 2.02 1.799 4.803 3.298 7.508 3.491 1.563.1 2.841 1.499-.121 3.291Z" fill="#F4ADA2"/><path d="M140.754 84.886c-.842.421-2.669-.278-4.375-1.55a60.858 60.858 0 0 0 2.084-5.582c2.67 3.477 3.498 6.525 2.291 7.132Z" fill="#5B2448"/><path d="M137.45 80.668c-.343.921-.7 1.8-1.078 2.67.343.257.707.5 1.078.714v1.714l-10.57-3.777-3.305-18.055c2.02 7.21 13.875 16.734 13.875 16.734Zm-.157 7.568c-3.918 5.426-8.964 16.899-10.121 24.466-1.085.1-2.241.157-3.447.164h-.05l-.007-4.676 8.665-20.547 4.175-1.485.785 2.078Z" fill="#9B3C82"/><path d="M148.091 91.297c.015-.028.058-.121.129-.264a109.835 109.835 0 0 0-14.039-3.798c-3.668-.721-7.194-1.214-10.556-1.463v.285c3.347.257 6.852.742 10.499 1.464 4.739.935 9.393 2.213 13.967 3.776Zm-7.222 10.56c.042-.064.028-.157-.036-.2a.147.147 0 0 0-.2.036c-1.627 2.277-3.711 6.097-5.239 9.46.172-.05.3-.093.364-.115 1.521-3.291 3.526-6.968 5.111-9.181Zm-4.668-17.941a.14.14 0 0 0 .128-.085l.022-.057c.035-.079.071-.157.1-.236a61.67 61.67 0 0 0 2.127-5.74c1.213-3.805 2.005-7.482 2.298-10.616a.138.138 0 0 0-.129-.15.144.144 0 0 0-.157.128c-.292 3.12-1.085 6.768-2.291 10.56a64.96 64.96 0 0 1-2.12 5.71c-.035.08-.071.158-.099.236l-.022.058c-.007.021-.014.035-.014.057.014.071.078.135.157.135Z" fill="#9B3C82"/><path d="M123.518 63.99c-4.111 5.12-8.486 12.33-9.764 15.5-1.277 3.17-7.173 17.677-5.488 32.369 0 0 9.999 2.399 15.188 6.847-2.762-4.177 8.015-26.344 17.243-33.755-5.053 1.471-16.372-15.37-17.179-20.96Z" fill="#F94F46"/><path d="M113.155 85.787a.142.142 0 0 0-.129.15.138.138 0 0 0 .15.128c6.217-.55 13.254-.064 20.912 1.442a132.1 132.1 0 0 1 3.233.693c.072-.079.143-.164.222-.243a92.37 92.37 0 0 0-3.391-.728c-7.686-1.507-14.752-2-20.997-1.442Z" fill="#FCB6B1"/><path d="M130.812 90.277a.707.707 0 1 0 0-1.413.707.707 0 0 0 0 1.413Zm-1.613-9.096a.707.707 0 1 0 0-1.414.707.707 0 0 0 0 1.414Zm-10.463-.914a.707.707 0 1 0 0-1.414.707.707 0 0 0 0 1.414Zm4.247-9.359a.706.706 0 1 0 0-1.413.706.706 0 0 0 0 1.413Zm-3.212 21.117a.707.707 0 1 0 0-1.414.707.707 0 0 0 0 1.414Zm4.175 10.039a.706.706 0 1 0 .001-1.413.706.706 0 0 0-.001 1.413Zm-11.248-2.627a.707.707 0 1 0 0-1.414.707.707 0 0 0 0 1.414Zm4.175 10.508a.707.707 0 1 0 0-1.414.707.707 0 0 0 0 1.414Z" fill="#FFCF2D"/><path d="m152.445 156.366-14.353 1.313-4.225.386-12.34 1.128h-.079a.835.835 0 0 1-.835-.85c0-.435.329-.792.764-.835l12.89-1.178 4.396-.4 13.632-1.249a.842.842 0 1 1 .179 1.677c-.015.008-.022.008-.029.008Z" fill="#9B3C82"/><path d="M145.165 147.221c-2.17 1.792-3.975 3.913-5.267 6.154a18.087 18.087 0 0 0-1.235 2.563 16.72 16.72 0 0 0-.571 1.742l-4.225.386c.1-.578.235-1.157.392-1.728a20.913 20.913 0 0 1 1.82-4.448c.336-.614.7-1.22 1.1-1.82a27.505 27.505 0 0 1 5.467-6.011c.492 1.035 1.384 2.149 2.519 3.162Z" fill="#9B3C82"/><path d="M79.253 86.236c-3.64 7.14-4.175 26.344.942 26.951 5.824.686-.942-26.95-.942-26.95Z" fill="#5B2448"/><path d="M105.589 69.794c2.491.607 3.433 1.485-.406 1.55-3.84.063-4.176.406-4.176.406s1.813.157 3.098.471c1.506.364 2.362.921-.064 1.278-4.511.671-7.01 1.014-8.351 4.377-.143.356-.307.963-.507 1.763-.3 1.228-.685 2.913-1.17 4.883-1.799 7.297-5.082 18.42-11.47 24.06-.45.392-.913.764-1.399 1.113a13.927 13.927 0 0 1-2.847 1.557c-.036.014-.079.028-.122.05a23.978 23.978 0 0 1-.35-.557c-.056-.093-.106-.186-.156-.278-.029-.05-.05-.093-.079-.143a.335.335 0 0 1-.036-.072c-3.254-6.054-2.04-14.285.022-20.111a29.925 29.925 0 0 1 1.677-3.905c.057-.107.114-.229.186-.357.65-1.285 1.734-3.613 3.169-6.197a.678.678 0 0 1 .07-.122c1.014-1.813 2.2-3.74 3.52-5.511.014-.022.035-.05.05-.072 1.998-2.655 4.303-4.947 6.816-5.932.042-.015.085-.036.128-.05 1.449-1.143 2.577-2.656 3.44-3.656 1.35-1.556 1.884-1.349 1.62.336a25.712 25.712 0 0 1-.428 2.142c6.209-.864 11.091 1.12 8.443 1.499 2.02.535 3.098 1.478-.678 1.478Z" fill="#F4ADA2"/><path d="M97.824 66.817c.022-.093.05-.2.071-.307-.828.143-2.42.45-4.132 1a20.55 20.55 0 0 1-.571.485c1.913-.671 3.69-1.014 4.632-1.178Zm2.527.977s-.007.008 0 0c-.079.015-.136.086-.122.165a.15.15 0 0 0 .165.121c1.998-.293 4.189-.014 5.881.236.264-.043.506-.093.628-.193 0 0-.15-.022-.172-.029-1.741-.27-4.175-.62-6.38-.3Zm.128 1.693a.136.136 0 0 0-.114.157c.014.079.086.136.164.122.029-.008 2.384-.4 5.082.028.464-.007.856-.007 1.17-.043-3.133-.778-6.266-.271-6.302-.264Zm-19.342 40.209a13.491 13.491 0 0 1-2.962 1.599c-4.018-6.118-3.126-15.456-.942-21.625l2.02-3.434c-2.427 6.397-1.749 17.984 1.884 23.46Z" fill="#9B3C82"/><path d="M79.253 86.235C78.24 83.001 63.83 59.755 56.485 70.4c-7.351 10.66.471 32.341 12.526 39.688 0 0 4.04 3.976 11.184 3.098-3.297-1.42-7.273-13.479-.942-26.95Z" fill="#66B0F0"/><path d="M79.246 86.216c0-.007-.007-.022-.007-.029-.029-.078-.057-.171-.1-.264v-.007l-.007.007c-.721.257-2.027.771-3.576 1.628-2.177 1.2-5.303 3.327-7.822 6.647-.022.021-.029.057-.029.085 0 .079.064.143.143.143a.149.149 0 0 0 .114-.057c2.49-3.284 5.574-5.383 7.73-6.568a26.866 26.866 0 0 1 3.019-1.42c-4.061 4.425-10.763 12.172-9.992 23.523l.27.164.03.022c-.893-11.652 6.216-19.526 10.227-23.874Z" fill="#B0DCF7"/><path d="M95.183 79.64c-.3 1.228-.685 2.913-1.17 4.883-1.942-1.37-4.447-2.705-6.98-3.69a15.301 15.301 0 0 0-.8-.3 25.88 25.88 0 0 0-1.641-.536l.35-1.192.342-1.164.235-.8.4-1.37c.107.028.214.064.321.093.193.057.386.12.579.178.442.143.885.3 1.334.464.236.086.471.178.714.271a41.101 41.101 0 0 1 6.316 3.163Z" fill="#5B2448"/><path d="M88.32 79.137c.994-2.02.655-4.221-.756-4.916-1.411-.694-3.36.38-4.354 2.4-.994 2.02-.656 4.221.756 4.916 1.41.694 3.36-.38 4.354-2.4Z" fill="#5B2448"/><path d="M88.617 79.29c.443-.892.635-1.82.621-2.663-.121-.05-.236-.1-.357-.143.05.821-.142 1.75-.578 2.65a5.591 5.591 0 0 1-1.263 1.698c.121.05.242.1.37.143a6.006 6.006 0 0 0 1.207-1.685Zm-1.061-.525c.966-1.964.768-4.038-.441-4.634-1.21-.595-2.974.514-3.94 2.478-.965 1.963-.768 4.038.442 4.633 1.21.595 2.973-.514 3.939-2.477Z" fill="#fff"/><path d="M86.426 78.427a.144.144 0 0 1-.079-.022l-1.363-.664c-.085-.043-.128-.15-.078-.236L85.99 75.4a.183.183 0 0 1 .242-.078c.086.043.122.15.079.243l-1 1.942 1.2.585c.085.043.128.15.085.236-.035.057-.1.1-.171.1Z" fill="#5B2448"/></g><g clip-path="url(#c)" fill="#FFCF2D"><path d="M99.112 57.58a.2.2 0 0 1-.387.095l-2.234-6.038a.201.201 0 1 1 .377-.14l2.234 6.038c.005.015.008.03.01.045Zm-6.62 3.443a.2.2 0 0 1-.213.226.2.2 0 0 1-.109-.042l-5.098-3.939a.202.202 0 0 1-.079-.133.2.2 0 0 1 .325-.184l5.098 3.94a.198.198 0 0 1 .076.132Zm14.737-11.555a.233.233 0 0 1 0 .053l-.879 6.378a.201.201 0 0 1-.398-.054l.879-6.378a.202.202 0 0 1 .332-.123.2.2 0 0 1 .066.125Z"/></g><g clip-path="url(#d)"><path d="m106.605 76.629 10.359-20.113.014-.025.044-.007 7.693-.655-11.028 22.322-7.082-1.522Z" fill="#66B0F0"/><path d="M114.005 79.01a.661.661 0 0 1-.067.107.519.519 0 0 1-.628.13.527.527 0 0 1-.241-.7l.329-.677.154-.321 10.351-21.16-6.533.398-9.926 19.374-.163.323-.136.26-.262.515a.53.53 0 0 1-.701.232l-.012-.007a.521.521 0 0 1-.213-.691l.279-.546.37-.066-.21-.251 10.167-19.853.01-.019c.075-.15.21-.25.376-.277l.044-.007a.213.213 0 0 1 .06-.007l7.676-.466a.526.526 0 0 1 .506.75l-10.854 22.196-.189.11-.125.528-.004.007-.058.119Z" fill="#FFCF2D"/><path d="M114.384 78.243a1.074 1.074 0 0 0-.493-.56 1.117 1.117 0 0 0-.287-.112l-.05-.011-6.104-1.394-.542-.126-.509-.115-.163.324.502.111.543.126 6.236 1.427a.715.715 0 0 1 .196.077l.037.02.012.007c.012.007.03.017.045.033l.012.007a.603.603 0 0 1 .078.075c.015.016.024.029.038.045.015.016.024.03.036.052.006.003.002.009.008.012l.027.039c.029.048.045.105.065.155l.008.029c.002.01-.001.015.005.019.003.01-.001.015.002.025.003.01.002.025.007.044.003.01.006.018.005.034a.106.106 0 0 1 .001.056.365.365 0 0 0 .001.056.588.588 0 0 1-.009.06l-.004.005c-.004.022-.004.037-.008.06-.004.02 0 0 0 0a.347.347 0 0 1-.022.067l.327-.647Z" fill="#fff"/><path d="M114.085 78.808a.76.76 0 0 1-.899.576L88.424 73.8a.755.755 0 0 1-.564-.902.757.757 0 0 1 .902-.567l17.477 3.91.503.112.542.126 6.237 1.428a.757.757 0 0 1 .564.902Z" fill="#9B3C82"/><path d="M112.313 78.695a.272.272 0 1 0 .263-.476.272.272 0 0 0-.263.476Zm-3.032-.727a.28.28 0 0 1-.109-.378.285.285 0 0 1 .309-.14l1.799.425a.285.285 0 0 1 .213.333c-.028.151-.182.241-.333.213l-.006-.003-1.8-.425a.147.147 0 0 1-.073-.025Z" fill="#FFCF2D"/></g><g clip-path="url(#e)"><path d="M120.106 106.699c-1.005.498-2.038.97-3.092 1.427a70.952 70.952 0 0 1-5.085 1.98c-25.86 8.985-41.322 3.436-55.228-6.687-4.364-8.193-2.101-15.135-1.417-17.899l7.885-7.289c3.924-1.017 7.873.967 7.873.967 12.987-2.397 20.167-.228 41.239-4.451.789 18.693 6.986 30.448 7.825 31.952Z" fill="#66B0F0"/><path d="M106.491 104.402c-.27 1.37-1.098 5.216-1.459 7.022a1.384 1.384 0 0 1-1.013 1.07 72.307 72.307 0 0 1-8.745 1.669c-.678-1.223-12.395-22.187-24.409-31.66l-1.644.674s-2.62-2.202-4.85-3.289c1.416-1.128 5.857-2.245 7.914.31 0 0 21.017 5.28 34.013 23.33.188.254.254.567.193.874Zm8.559-47.682c-1.735 6.333-2.878 14.689-2.789 18.105.09 3.417.455 19.072 7.848 31.88 0 0 10.128-1.779 16.658.237-4.196-2.732-3.132-27.358 2.385-37.83-4.05 3.361-21.138-7.584-24.102-12.391Z" fill="#F94F46"/><path d="M100.912 69.18c2.527-.435 3.74-.004.243 1.583-3.497 1.587-3.668 2.035-3.668 2.035s1.726-.578 3.029-.8c1.527-.266 2.534-.096.45 1.197-3.871 2.411-6.026 3.72-5.92 7.339.012.384.103 1.006.238 1.819.214 1.246.53 2.945.87 4.946 1.253 7.41 2.668 18.92-.947 26.636a19.183 19.183 0 0 1-.84 1.579 13.98 13.98 0 0 1-1.993 2.561c-.027.027-.061.057-.092.094a22.387 22.387 0 0 1-.542-.372 4.749 4.749 0 0 1-.255-.193c-.046-.034-.083-.065-.129-.099a.328.328 0 0 1-.061-.052c-5.395-4.258-7.558-12.293-7.984-18.458a29.919 29.919 0 0 1-.016-4.25c.01-.121.014-.255.028-.402.085-1.437.154-4.004.441-6.946a.677.677 0 0 1 .017-.14c.208-2.067.528-4.306 1.035-6.456.004-.026.013-.06.017-.086.776-3.231 1.98-6.251 3.892-8.155.034-.03.064-.067.098-.097.874-1.624 1.306-3.462 1.701-4.722.618-1.965 1.192-1.988 1.62-.337.24.946.38 1.648.46 2.135 5.352-3.264 10.62-3.386 8.342-1.985 2.066-.313 3.43.123-.034 1.626Z" fill="#F4ADA2"/><path d="M83.295 94.745c-2.217-2.564-24.688-18.154-27.189-5.466-2.502 12.704 13.303 29.482 27.286 31.424 0 0 5.289 2.04 11.493-1.609-3.59.009-12.036-9.471-11.59-24.35Z" fill="#66B0F0"/></g><defs><clipPath id="a"><path fill="#fff" transform="translate(18.72 31.84)" d="M0 0h162.96v96.08H0z"/></clipPath><clipPath id="b"><path fill="#fff" transform="translate(50.64 38.16)" d="M0 0h106.48v121.04H0z"/></clipPath><clipPath id="c"><path fill="#fff" transform="rotate(-97.263 71.032 -7.646)" d="M0 0h10v21.04H0z"/></clipPath><clipPath id="d"><path fill="#fff" transform="rotate(29.012 -36.778 239.53)" d="M0 0h17.59v32.24H0z"/></clipPath><clipPath id="e"><path fill="#fff" transform="rotate(-23.452 226.58 -190.094)" d="M0 0h5.28v2.96H0z"/></clipPath></defs></svg>