<svg width="200" height="200" fill="none" xmlns="http://www.w3.org/2000/svg"><g clip-path="url(#a)"><path d="M163.318 137.037H34.781c-2.357 0-4.35-1.909-4.35-4.258l.008-103c0-2.044 1.74-3.87 3.784-3.87h129.399c2.188 0 3.802 1.944 3.802 4.14l.16 102.713a4.272 4.272 0 0 1-4.266 4.275Z" fill="#fff"/><path d="M163.512 137.037H34.265a4.078 4.078 0 0 1-4.08-4.081V33.64h137.408v99.316a4.09 4.09 0 0 1-4.081 4.081ZM30.523 33.977v98.979a3.739 3.739 0 0 0 3.742 3.743h129.247a3.74 3.74 0 0 0 3.743-3.743V33.978H30.523Z" fill="#66B0F0"/><path d="M167.593 33.978H30.185V29.83a4.092 4.092 0 0 1 4.089-4.09h129.238a4.097 4.097 0 0 1 4.089 4.09v4.148h-.008Zm-137.07-.338h136.732v-3.81a3.759 3.759 0 0 0-3.751-3.751H34.274a3.753 3.753 0 0 0-3.75 3.75v3.81Z" fill="#66B0F0"/><path d="M146.203 32.043a2.112 2.112 0 1 0 0-4.223 2.112 2.112 0 0 0 0 4.223Z" fill="#21A0AA"/><path d="M153.612 32.12a2.112 2.112 0 1 0 0-4.225 2.112 2.112 0 0 0 0 4.224Z" fill="#FFCF2D"/><path d="M160.438 32.043a2.111 2.111 0 1 0 0-4.223 2.111 2.111 0 0 0 0 4.223Z" fill="#F94F46"/></g><g clip-path="url(#b)" fill="#66B0F0"><path d="M93.386 101.613H79.329a.251.251 0 0 1-.255-.251c0-.066.027-.13.075-.177a.258.258 0 0 1 .18-.074h14.057c.067 0 .132.027.18.074a.249.249 0 0 1 0 .355.257.257 0 0 1-.18.073Zm10.021 0h-6.86a.251.251 0 0 1-.255-.251c0-.066.027-.13.075-.177a.258.258 0 0 1 .18-.074h6.86c.067 0 .132.027.18.074a.248.248 0 0 1 0 .355.258.258 0 0 1-.18.073Zm-20.522 7.62H79.33a.258.258 0 0 1-.18-.074.249.249 0 0 1 0-.355.257.257 0 0 1 .18-.073h3.556c.068 0 .133.026.18.073a.25.25 0 0 1 0 .355.258.258 0 0 1-.18.074Zm20.522 0H85.821a.258.258 0 0 1-.18-.074.249.249 0 0 1 0-.355.257.257 0 0 1 .18-.073h17.586c.067 0 .132.026.18.073a.249.249 0 0 1 0 .355.259.259 0 0 1-.18.074Zm-6.86 7.619H79.371a.257.257 0 0 1-.18-.073.25.25 0 0 1 .18-.428h17.176c.068 0 .133.026.18.073a.249.249 0 0 1 0 .355.257.257 0 0 1-.18.073Zm6.902 0h-3.966a.257.257 0 0 1-.18-.073.25.25 0 0 1 .18-.428h3.966c.067 0 .132.026.18.073a.248.248 0 0 1 0 .355.258.258 0 0 1-.18.073Z"/></g><g clip-path="url(#c)"><path d="M156.068 82.749c.691-3.247-.094-8.108-1.745-11.08-.987.611-2.056 1.131-2.657 1.069-2.467-.256-3.975-4.67-4.512-6.037-.626-.061-1.61-.642-1.095-1.25.236-.288.462-.602.524-.978.063-.38-.003-.835-.053-1.212a24.602 24.602 0 0 0-.132-.86c-.067-.4-.137-.8-.193-1.203a14.353 14.353 0 0 1 .013-3.882c.362-2.367 1.648-4.477 3.711-5.73a9.445 9.445 0 0 1 2.986-1.144l.014-.003.202-.04c6.105-1.144 10.236 4.438 9.489 9.124l-.254.1h-.001c-.034.014-1.713.626-2.387.837.904 9.712 7.96 15.05 7.96 15.05l-4.285 8.235-7.585-.996Z" fill="#F4ADA2"/><path opacity=".52" d="M155.851 66.493a1.923 1.923 0 1 0-2.719-2.72 1.923 1.923 0 0 0 2.719 2.72Z" fill="#E57281"/><path d="M149.137 60.715c1.06-.035 1.873.596 1.824 1.107-.048.51-.951.903-1.999.743-1.078-.165-1.89-.648-1.824-1.107.067-.476.948-.708 1.999-.743Z" fill="#5B2448"/><path d="M150.108 68.137c.197.01.392-.033.567-.123.176-.083.331-.205.454-.356a1.163 1.163 0 0 0 .228-.522 1.159 1.159 0 0 0-.05-.58l-.003-.01a.17.17 0 0 1 .192-.224.173.173 0 0 1 .1.06c.178.227.266.512.248.8a1.412 1.412 0 0 1-.296.799 1.494 1.494 0 0 1-1.109.56 1.003 1.003 0 0 1-.425-.081.17.17 0 0 1 .082-.325l.012.002Z" fill="#9B3C82"/><path d="M150.444 63.187c-.449.059-1.523.226-2.622.08a.282.282 0 0 0-.315.241v.002c-.05.399-.017 1.056.746 1.06.936.003 2.185-.732 2.348-1.196a.146.146 0 0 0-.085-.18.145.145 0 0 0-.072-.008Z" fill="#5B2448"/><path d="M146.699 54.42c1.343-2.572-4.844-4.418-5.929-3.336-.913.91 4.309 6.438 5.929 3.335Z" fill="#F94F46"/><path d="M157.763 60.756c-1.642.19-2.648-.467-3.964-.927-.99-.347-2.216-.774-3.181-1.29-.71.792-2.865 2.477-4.474 2.871-6.699 1.64-6.456-8.386-.079-7.133.988-3.252 6.979-6.682 12.496-4.467 4.54 1.823 5.989 6.25 6.932 8.619 1.142 2.87 4.498 7.157 7.743 9.24 3.518 2.257 8.574 1.864 10.858 7.487 2.434 5.99-1.245 9.364 6.085 15.068 9.875 7.683 2.739 22.124-9.813 17.826-11.222-3.842-4.799-28.83-9.849-30.942-4.968-2.077-8.12-4.644-10.393-13.42 0 0-1.351-3.05-2.361-2.932Z" fill="#5B2448"/><path d="M157.807 61.115s1.057-2.144 3.168-2.172c1.991-.025 2.742 2.772.172 5.434a6.893 6.893 0 0 1-1.82 1.29l-1.52-4.552Z" fill="#F4ADA2"/><path d="M158.948 63.775a.188.188 0 0 1-.3-.049.189.189 0 0 1-.019-.115c.355-2.447 2.241-2.929 2.321-2.948a.19.19 0 1 1 .089.368c-.072.017-1.718.45-2.035 2.635a.19.19 0 0 1-.056.109Z" fill="#9B3C82"/><path d="M153.462 72.176c.543.001.397 1.603 1.689 2.378 2.625-2.276 2.555-4.468 2.051-4.722-.467-.236-1.06.42-1.443.757-.763.674-1.384 1.145-2.297 1.587Z" fill="#5B2448"/><path d="M159.683 65.984a.212.212 0 0 1-.129-.043.213.213 0 0 1 .016-.354c1.615-1 2.604-2.14 3.15-2.92.591-.848.803-1.466.805-1.473a.215.215 0 0 1 .408.137c-.035.106-.905 2.622-4.137 4.621a.214.214 0 0 1-.113.032Z" fill="#9B3C82"/><path d="M155.037 60.71c-4.587-1.398-7.437-4.823-8.73-6.239 0 0-.045-1.187 1.747-2.518 1.098 1.442 4.22 6.268 10.246 8.438-.667 1.173-1.914.73-3.263.318Z" fill="#F94F46"/><path d="M146.8 54.256c.603-.166.933-.879.736-1.59-.196-.713-.845-1.156-1.448-.99-.604.167-.933.88-.737 1.592.197.712.845 1.155 1.449.988Z" fill="#F94F46"/><path d="M146.54 54.48a1.261 1.261 0 0 1-.713-.23 1.63 1.63 0 0 1-.641-.921 1.632 1.632 0 0 1 .079-1.118 1.177 1.177 0 0 1 .778-.684 1.19 1.19 0 0 1 1.02.188 1.685 1.685 0 0 1 .562 2.038 1.208 1.208 0 0 1-1.085.726Zm-.192-2.65a.8.8 0 0 0-.548.214.874.874 0 0 0-.223.311c-.124.278-.144.59-.059.883.076.294.254.552.503.727a.84.84 0 0 0 1.071-.042.847.847 0 0 0 .221-.314 1.345 1.345 0 0 0-.444-1.61.924.924 0 0 0-.521-.17Z" fill="#FCB6B1"/><path d="M147.762 53.542c-2.646-1.453 1.648-6.618 3.212-6.306 1.316.261-.019 8.059-3.212 6.306Z" fill="#F94F46"/><path d="M149.898 53.394c-.275.282-.624.48-1.006.574a1.824 1.824 0 0 1-1.2-.106 1.758 1.758 0 0 1-.506-.358 1.515 1.515 0 0 1-.342-.52 1.437 1.437 0 0 1 .074-1.172 2.97 2.97 0 0 0 .034.557c.03.171.087.336.167.49.082.149.185.284.308.402.121.12.26.22.411.3.314.154.666.214 1.013.171a2.795 2.795 0 0 0 1.047-.338Z" fill="#FCB6B1"/><path d="M151.478 110.457c27.77 9.283 37.141 2.922 34.476-.086-4.6-5.549-33.983-1.962-34.476.086Zm12.658 9.276s-8.712-1.52-7.26-2.753c.767-.479 4.65.548 7.26 2.753Zm-3.929 26.938c5.156 1.721-.998 10.296-15.544 13.328 0-.007 4.699-15.984 15.544-13.328Zm-43.106 18.517c-.205 2.3-8.441 4.124-19.77-12.857-.008 0 20.876 6.084 19.77 12.857Z" fill="#5B2448"/><path d="M138.558 158.769c.908.806 3.777 3.66 5.047 4.677 3.025 2.445 6.679 5.217 9.049 6.896.013.007.881.075 2.171-.245a.735.735 0 0 1 .13-.028c1.462-.389 3.19-1.044 4.084-2.103.649-.758-.56-5.544-.772-5.967-.02-.021-.034-.041-.054-.062a95.189 95.189 0 0 1-3.941-4.431c-.334-.409-.662-.805-.983-1.195-.608-.757-4.726-5.182-5.341-6.165l-9.39 8.623Z" fill="#FCB6B1"/><path d="M144.663 164.293a155.89 155.89 0 0 0 7.984 6.043c.013.006.881.075 2.171-.246a.733.733 0 0 1 .13-.027l4.084-2.103c.649-.758-.56-5.545-.772-5.968-.02-.02.007-.198-.02-.218-1.414-1.496-4.425-4.848-4.965-5.469l-8.612 7.988Z" fill="#66B0F0"/><path d="m145.961 166.867.007-.007 9.888-9.183a.337.337 0 0 0-.214-.587.34.34 0 0 0-.243.088l-.007.007-9.889 9.184a.341.341 0 0 0-.02.478.347.347 0 0 0 .235.104.347.347 0 0 0 .243-.084Zm10.483-7.067s6.645 4.998 11.036 8.46l-14.184 15.943s-2.903 2.71-5.129 2.471c0 0-2.978-6.746 1.728-15.185 2.185-3.912 6.098-4.506 5.634-8.766-.219-2.09.915-2.923.915-2.923Z" fill="#fff"/><path d="M148.46 186.852c.868 0 1.892-.369 3.06-1.1a11.509 11.509 0 0 0 2.54-2.164l13.542-15.226a.166.166 0 0 0 .042-.122.168.168 0 0 0-.055-.117l-.007-.007c-4.337-3.42-11.009-8.486-11.077-8.541a.161.161 0 0 0-.125-.038.179.179 0 0 0-.064.021.174.174 0 0 0-.085.169.17.17 0 0 0 .062.114l.003.001.002.001.002.002v.003c.068.048 6.59 5.005 10.927 8.425l-13.426 15.09a11.316 11.316 0 0 1-2.465 2.096c-1.175.737-2.227 1.092-3.053 1.038-.321-.751-.881-2.622-.936-4.971a17.546 17.546 0 0 1 .745-5.387c.669-2.226 1.782-4.397 3.312-6.466a.17.17 0 0 0 .012-.191.163.163 0 0 0-.105-.079.156.156 0 0 0-.068-.003.166.166 0 0 0-.063.023.162.162 0 0 0-.049.045c-1.557 2.103-2.691 4.322-3.367 6.582a17.823 17.823 0 0 0-.758 5.497c.068 3.127.963 5.093 1.004 5.175a.167.167 0 0 0 .136.096c.103.027.209.039.314.034Z" fill="#5B2448"/><path d="M147.026 185.8a.07.07 0 0 0 .035-.006c6.522-1.38 8.584-6.808 9.581-9.423.225-.587.403-1.051.553-1.263.273-.382.622-.621.998-.874.471-.321.963-.655 1.352-1.311.478-.805.539-1.618.601-2.403.061-.785.116-1.529.573-2.246 1.346-2.096 4.269-2.363 4.296-2.363a.176.176 0 0 0 .117-.059.177.177 0 0 0 .04-.125.175.175 0 0 0-.06-.117.183.183 0 0 0-.058-.032.164.164 0 0 0-.066-.008c-.13.014-3.121.28-4.555 2.519-.506.792-.567 1.612-.629 2.404-.061.778-.116 1.515-.553 2.253-.348.587-.806.901-1.25 1.202-.382.259-.778.525-1.085.962-.178.246-.349.704-.595 1.345-.498 1.304-1.243 3.271-2.663 5.087-1.694 2.157-3.934 3.544-6.665 4.124a.155.155 0 0 0-.062.026.172.172 0 0 0-.071.112.19.19 0 0 0 .003.067.16.16 0 0 0 .164.129h-.001Zm8.673-18.1a.154.154 0 0 0 .064-.011.138.138 0 0 0 .052-.037c.717-.696 1.592-.799 2.438-.894.253-.028.492-.055.724-.103 1.857-.348 2.479-1.317 2.978-2.096.095-.15.184-.287.273-.409a.174.174 0 0 0 .013-.192.195.195 0 0 0-.045-.05.19.19 0 0 0-.061-.029.19.19 0 0 0-.067-.003.164.164 0 0 0-.113.069c-.096.136-.191.28-.287.429-.485.758-1.038 1.619-2.752 1.939a9.602 9.602 0 0 1-.704.096c-.86.103-1.837.212-2.636.99a.17.17 0 0 0-.006.239.166.166 0 0 0 .058.044.177.177 0 0 0 .071.018Z" fill="#5B2448"/><path d="M162.337 171.66c.18-.001.358-.034.526-.096.451-.15.915-.471 1.305-.894.846-.922 1.092-2.035.553-2.533-.273-.253-.69-.301-1.175-.137-.451.15-.915.471-1.304.895a3.317 3.317 0 0 0-.786 1.372c-.122.499-.041.908.233 1.154a.922.922 0 0 0 .648.239Zm1.742-3.407a.586.586 0 0 1 .416.143c.39.355.123 1.298-.573 2.049-.355.382-.765.669-1.161.798-.362.123-.655.096-.833-.061-.178-.164-.225-.457-.13-.826.132-.459.373-.878.704-1.222.355-.383.765-.669 1.16-.799.132-.055.274-.083.417-.082Z" fill="#5B2448"/><path d="M148.59 173.435a.355.355 0 0 0 .191-.047c2.917-1.564 5.491-.656 5.518-.649a.408.408 0 0 0 .443-.102.407.407 0 0 0-.156-.663h-.002l-.003-.002-.001-.002-.001-.002c-.116-.041-2.95-1.038-6.18.696a.414.414 0 0 0-.171.553.424.424 0 0 0 .362.218Zm-1.01 2.581a.4.4 0 0 0 .218-.061c2.643-1.687 5.463-.881 5.491-.867a.411.411 0 0 0 .5-.279.412.412 0 0 0-.268-.506c-.13-.041-3.217-.922-6.167.962a.403.403 0 0 0-.172.461.402.402 0 0 0 .397.29h.001Zm-.526 2.526a.42.42 0 0 0 .252-.088c1.967-1.55 4.576-.936 4.603-.929a.416.416 0 0 0 .313-.041.41.41 0 0 0 .2-.412.409.409 0 0 0-.308-.339h-.007c-.123-.027-3.025-.717-5.306 1.079a.41.41 0 0 0 .016.654c.069.05.152.076.237.077v-.001Z" fill="#FFCF2D"/><path d="M98.184 149.566c-.492 1.113-2.233 4.998-2.814 6.514-1.406 3.625-2.93 7.954-3.817 10.719 0 .014.198.86.895 1.994a.946.946 0 0 1 .068.109c.813 1.27 1.967 2.717 3.25 3.25.923.382 5.109-2.226 5.45-2.554.014-.027.028-.047.041-.075a97.714 97.714 0 0 1 3.019-5.1c.287-.444.56-.874.84-1.297.539-.813 5.607-9.279 6.365-10.16l-13.297-3.4Z" fill="#FCB6B1"/><path d="M94.879 157.349a158.257 158.257 0 0 0-3.326 9.443c0 .014.198.86.895 1.994a.88.88 0 0 1 .068.109l3.25 3.25c.922.382 5.108-2.226 5.45-2.554.014-.027.191-.054.198-.082.99-1.802 3.271-5.687 3.701-6.39l-10.236-5.77Z" fill="#66B0F0"/><path d="m92.823 159.363.007.007 11.76 6.623a.334.334 0 0 0 .257.026.332.332 0 0 0 .2-.163.314.314 0 0 0 .03-.252.33.33 0 0 0-.159-.198l-11.76-6.623a.337.337 0 0 0-.439.496.335.335 0 0 0 .104.084Zm9.923 7.838s-2.739 7.852-4.699 13.082l-19.504-8.65s-3.462-1.933-3.913-4.131c0 0 5.518-4.889 14.99-2.977 4.391.888 6.153 4.431 10.073 2.697 1.912-.854 3.053-.021 3.053-.021Z" fill="#fff"/><path d="M98.047 180.454a.164.164 0 0 0 .097-.028.163.163 0 0 0 .06-.081c1.94-5.168 4.733-13.068 4.76-13.15a.168.168 0 0 0-.102-.218.163.163 0 0 0-.13.006.171.171 0 0 0-.089.096c-.027.075-2.765 7.804-4.698 12.973l-18.466-8.187a11.245 11.245 0 0 1-2.752-1.714c-1.059-.894-1.721-1.789-1.92-2.594.615-.533 2.227-1.639 4.453-2.404 1.728-.587 3.537-.9 5.361-.928 2.322-.041 4.733.355 7.17 1.181a.17.17 0 0 0 .116-.321h-.006c-2.48-.839-4.938-1.242-7.3-1.201a17.538 17.538 0 0 0-5.47.956c-2.958 1.017-4.563 2.471-4.63 2.533a.19.19 0 0 0-.056.157c.185.915.881 1.884 2.056 2.881.856.719 1.81 1.312 2.834 1.762l18.63 8.261a.212.212 0 0 0 .082.02Z" fill="#5B2448"/><path d="M99.693 177.327a.165.165 0 0 0 .066-.013.16.16 0 0 0 .055-.037.168.168 0 0 0 .05-.121.312.312 0 0 0-.014-.069c-.047-.116-1.215-2.888-3.79-3.57-.908-.239-1.707-.048-2.486.136-.765.185-1.482.355-2.315.164-.67-.15-1.1-.492-1.523-.819-.362-.287-.737-.581-1.243-.738-.286-.088-.778-.116-1.461-.157-1.393-.075-3.497-.191-5.655-.99-2.574-.956-4.575-2.669-5.955-5.093a.177.177 0 0 0-.232-.068.174.174 0 0 0-.08.102.179.179 0 0 0 .012.13v.006c3.298 5.79 9.103 6.104 11.89 6.255.628.034 1.126.061 1.372.136.45.144.785.403 1.14.683.451.355.916.717 1.66.887.915.212 1.707.021 2.472-.163.772-.185 1.496-.355 2.315-.137 2.404.642 3.55 3.346 3.558 3.373a.175.175 0 0 0 .164.103Zm.731-3.277a.169.169 0 0 0 .158-.105.165.165 0 0 0 .013-.066.178.178 0 0 0-.116-.164c-.158-.054-.321-.095-.5-.143-.873-.232-1.857-.499-2.69-2.028a8.076 8.076 0 0 1-.307-.642c-.356-.785-.766-1.679-1.742-2.205a.172.172 0 0 0-.131-.01.171.171 0 0 0-.113.215.177.177 0 0 0 .08.102c.881.471 1.243 1.277 1.598 2.048.103.232.205.451.321.663.902 1.666 2.008 1.959 2.903 2.198.17.048.328.089.478.137.014-.007.027 0 .048 0Z" fill="#5B2448"/><path d="M96.135 178.201c.567 0 1.018-.198 1.195-.581.308-.669-.341-1.604-1.475-2.13-1.133-.525-2.274-.416-2.581.246-.157.335-.075.744.225 1.16.329.423.759.756 1.25.97a3.24 3.24 0 0 0 1.386.335Zm-1.673-2.704c.429.013.85.116 1.236.301 1.031.478 1.51 1.249 1.311 1.68-.198.43-1.1.559-2.123.081a2.88 2.88 0 0 1-1.12-.86c-.226-.307-.294-.594-.191-.812.115-.24.443-.39.887-.39Z" fill="#5B2448"/><path d="M89.418 170.161a.421.421 0 0 0 .466-.359c.022-.126.449-3.195-1.966-6.119a.425.425 0 0 0-.657.537l.007.008c2.165 2.62 1.781 5.424 1.778 5.452a.425.425 0 0 0 .358.48l.014.001Zm-2.578-.57h.007a.428.428 0 0 0 .462-.381c.016-.14.284-3.44-2.237-6.049a.418.418 0 0 0-.293-.119.418.418 0 0 0-.422.408.42.42 0 0 0 .11.296c2.247 2.331 2.002 5.356 1.999 5.384a.416.416 0 0 0 .218.413.431.431 0 0 0 .156.048Zm-2.807-.484.028.004a.428.428 0 0 0 .442-.405c.007-.127.11-3.211-2.173-5.155a.423.423 0 0 0-.547.642h.007c1.965 1.668 1.876 4.441 1.88 4.47a.399.399 0 0 0 .089.297.391.391 0 0 0 .274.147Z" fill="#FFCF2D"/><path d="M141.843 161.91s5.675-2.533 9.281-8.043l-2.882-3.263-6.399 11.306Zm-44.983-9.354s1.406 3.298 10.052 7.654l3.476-5.619-13.529-2.035Z" fill="#9B3C82"/><path d="M142.471 115.57c-15.079-.02-33.907 6.432-45.605 36.986 0 0 2.568 2.478 9.014 4.629 8.544 2.847 11.358 5.572 11.248 7.866 0 0 1.455-13.567 9.432-23.884 1.181-1.522 6.2-5.352 9.997-7.831 7.11-4.629 15.516-10.603 15.605-11.969.157-2.526-4.931-5.79-9.691-5.797Z" fill="#F94F46"/><path d="M175.641 109.61s9.397 8.944 3.578 20.142c-5.955 11.456-21.983 10.159-31.79 8.589 0 0 4.733 4.424 12.887 8.364 0 0-4.582-.881-8.912 3.427-3.21 3.189-4.569 7.797-9.547 11.771-5.429-4.745-28.546-26.321-17.333-40.577 5.58-7.101 20.747-6.24 29.605-5.496 5.798-3.366 8.755-3.284 8.755-3.284l12.757-2.936Z" fill="#F94F46"/><path d="M126.02 144.315a.229.229 0 0 0 .068-.014.12.12 0 0 0 .041-.033.135.135 0 0 0 .014-.151c-4.74-8.616-5.498-15.929-2.199-21.152 3.257-5.155 10.373-7.92 19.033-7.395a.136.136 0 0 0 .053-.007.141.141 0 0 0 .09-.122.137.137 0 0 0-.035-.099.15.15 0 0 0-.043-.032.153.153 0 0 0-.052-.013c-8.761-.525-15.966 2.288-19.285 7.524-3.36 5.313-2.602 12.727 2.185 21.433.034.036.08.058.13.061Zm25.336-2.67a.137.137 0 0 0 .137-.136.161.161 0 0 0-.015-.061.143.143 0 0 0-.04-.048c-.061-.048-6.44-4.951-11.773-11.806a.172.172 0 0 0-.04-.036.155.155 0 0 0-.051-.018.12.12 0 0 0-.053.003.13.13 0 0 0-.084.063.116.116 0 0 0-.018.051.156.156 0 0 0 .003.053.135.135 0 0 0 .024.048c5.361 6.883 11.76 11.805 11.828 11.853a.14.14 0 0 0 .082.034Z" fill="#FCB6B1"/><path d="M160.35 146.63c5.156 1.721-1.168 10.296-15.714 13.328-.007 0 4.869-15.977 15.714-13.328Z" fill="#5B2448"/><path d="M138.531 158.728c.908.806 3.776 3.66 5.047 4.677 3.025 2.445 6.678 5.217 9.048 6.896.014.007.881.075 2.172-.246a.715.715 0 0 1 .13-.027c1.461-.389 3.189-1.045 4.083-2.103.649-.758-.56-5.544-.771-5.967-.021-.021-.035-.041-.055-.062a95.149 95.149 0 0 1-3.94-4.431c-.335-.41-.663-.806-.984-1.195-.608-.758-4.726-5.182-5.34-6.165l-9.39 8.623Z" fill="#FCB6B1"/><path d="M144.629 164.259a155.233 155.233 0 0 0 7.984 6.042c.013.007.881.076 2.171-.245a.735.735 0 0 1 .13-.028l4.084-2.103c.649-.757-.56-5.544-.772-5.967-.02-.02 0-.198-.02-.218-1.414-1.496-4.426-4.848-4.965-5.469l-8.612 7.988Z" fill="#66B0F0"/><path d="m145.927 166.833.007-.007 9.888-9.183a.336.336 0 0 0-.086-.556.331.331 0 0 0-.371.057l-9.889 9.184a.337.337 0 0 0-.019.47.339.339 0 0 0 .47.035Zm10.489-7.067s6.645 4.998 11.036 8.46l-14.184 15.942s-2.902 2.711-5.128 2.472c0 0-2.978-6.746 1.728-15.185 2.185-3.912 6.098-4.506 5.634-8.767-.226-2.089.914-2.922.914-2.922Z" fill="#fff"/><path d="M148.433 186.817c.867 0 1.892-.368 3.06-1.099a11.509 11.509 0 0 0 2.54-2.164l13.542-15.226a.167.167 0 0 0 .042-.122.168.168 0 0 0-.055-.117l-.007-.007c-4.337-3.421-11.009-8.487-11.077-8.541a.148.148 0 0 0-.059-.032.15.15 0 0 0-.067-.006.18.18 0 0 0-.063.021.17.17 0 0 0-.085.169.17.17 0 0 0 .062.114l.003.001.002.001.002.002v.003c.068.048 6.59 5.005 10.927 8.425l-13.427 15.09a11.316 11.316 0 0 1-2.465 2.096c-1.174.737-2.226 1.092-3.052 1.037-.322-.751-.881-2.621-.936-4.97a17.542 17.542 0 0 1 .745-5.387c.669-2.226 1.782-4.397 3.312-6.466a.17.17 0 1 0-.267-.212v.003a.002.002 0 0 1-.002.002l-.002.002h-.002c-1.558 2.103-2.692 4.322-3.367 6.582a17.817 17.817 0 0 0-.758 5.496c.068 3.127.963 5.094 1.004 5.176a.167.167 0 0 0 .055.066.169.169 0 0 0 .081.029c.103.025.208.037.314.034Z" fill="#5B2448"/><path d="M146.999 185.766a.058.058 0 0 0 .034-.007c6.522-1.379 8.591-6.807 9.581-9.422.226-.587.403-1.051.554-1.263.273-.383.621-.622.997-.874.471-.321.963-.656 1.352-1.311.478-.806.54-1.619.601-2.404.062-.785.116-1.529.574-2.246 1.345-2.096 4.268-2.362 4.295-2.362a.172.172 0 0 0-.027-.342c-.13.014-3.121.28-4.555 2.52-.505.792-.567 1.611-.628 2.403-.062.778-.116 1.516-.554 2.253-.348.587-.805.901-1.249 1.202-.383.259-.779.526-1.086.962-.178.246-.348.704-.594 1.346-.499 1.304-1.243 3.27-2.664 5.086-1.693 2.158-3.933 3.544-6.665 4.124a.169.169 0 0 0-.07.298c.03.024.066.036.104.037Zm8.673-18.107a.15.15 0 0 0 .116-.048c.717-.696 1.591-.799 2.438-.894.253-.027.492-.054.724-.102 1.858-.348 2.479-1.318 2.978-2.096.095-.151.184-.287.273-.41a.17.17 0 0 0 .032-.127.17.17 0 0 0-.305-.078c-.096.137-.192.28-.287.43-.485.758-1.038 1.618-2.752 1.939-.219.041-.458.068-.704.096-.86.102-1.837.211-2.636.99a.17.17 0 0 0-.052.118.175.175 0 0 0 .045.121c.015.02.035.036.057.047a.143.143 0 0 0 .073.014Z" fill="#5B2448"/><path d="M162.31 171.626a1.55 1.55 0 0 0 .526-.096c.451-.15.915-.471 1.304-.894.847-.921 1.093-2.034.553-2.533-.273-.252-.689-.301-1.174-.136-.451.15-.915.471-1.305.894a3.326 3.326 0 0 0-.785 1.372c-.123.499-.041.908.232 1.154a.91.91 0 0 0 .649.239Zm1.742-3.414a.587.587 0 0 1 .416.144c.389.355.123 1.297-.574 2.048-.355.382-.765.669-1.16.799-.362.123-.656.095-.833-.062-.178-.164-.226-.457-.13-.826.131-.459.373-.878.703-1.222.355-.382.765-.669 1.161-.799.133-.051.274-.079.417-.082Z" fill="#5B2448"/><path d="M148.563 173.394a.355.355 0 0 0 .191-.047c2.896-1.55 5.491-.656 5.518-.649a.412.412 0 0 0 .516-.251.406.406 0 0 0-.243-.52c-.116-.041-2.95-1.038-6.18.696a.414.414 0 0 0-.171.553.423.423 0 0 0 .369.218Zm-1.018 2.588a.411.411 0 0 0 .219-.061c2.643-1.687 5.463-.881 5.491-.867a.411.411 0 0 0 .5-.28.41.41 0 0 0-.268-.506c-.13-.041-3.217-.921-6.167.963a.405.405 0 0 0-.179.258.42.42 0 0 0 .056.309.443.443 0 0 0 .348.184Zm-.519 2.527a.427.427 0 0 0 .253-.089c1.967-1.55 4.576-.936 4.603-.929a.406.406 0 0 0 .443-.608.41.41 0 0 0-.252-.184c-.123-.027-3.025-.716-5.306 1.079a.413.413 0 0 0-.068.574.45.45 0 0 0 .327.157Z" fill="#FFCF2D"/><path d="M141.816 161.876s5.675-2.533 9.281-8.043l-2.882-3.264-6.399 11.307Z" fill="#9B3C82"/><path d="M156.813 144.882c1.174.662 2.41 1.243 3.564 1.755 0 0-4.684-.847-9.014 3.461-3.21 3.189-4.569 7.797-9.547 11.771-5.3-4.888-19.027-15.861-19.819-31.53-.095-1.912.745-6.882 3.722-9.416 1.953-1.658 6.037-1.024 7.936 1.407 3.237 4.138 4.78 6.657 9.615 11.921 3.763 4.111 8.523 7.811 13.543 10.631Z" fill="#F94F46"/><path d="M171.771 120.678a.143.143 0 0 0 .1-.041.145.145 0 0 0 .041-.1.146.146 0 0 0-.091-.134 20.117 20.117 0 0 0-6.041-1.136.141.141 0 0 0-.1.241.137.137 0 0 0 .1.041c2.026.071 4.029.449 5.942 1.123a.135.135 0 0 0 .049.006Z" fill="#FCB6B1"/><path d="M162.56 76.955c-1.87 4.09-5.765 7.02-6.186 4.522 0 0-.853 25.525-9.705 32.118 5.781 3.252 15.456-.356 23.294-2.45 8.683-2.321 14.271-2.579 15.991-.774-4.987-5.243-9.744-20.138-12.552-31.46l-10.842-1.956Z" fill="#FFCF2D"/><path d="M155.777 107.534s-5.857-2.685-9.2-4.04c0 0 3.334-9.53 5.108-18.924 1.149-6.09 3.727-6.557 4.652-4.671.256 1.921-.489 17.298-.489 17.298l-.071 10.337Z" fill="#FFCF2D"/><path d="M154.229 108.136a.169.169 0 0 1-.132-.062.166.166 0 0 1-.034-.066.158.158 0 0 1-.003-.075c3.43-18.862 5.664-27.162 8.851-32.89a.173.173 0 0 1 .301.167c-3.167 5.691-5.391 13.964-8.813 32.784a.177.177 0 0 1-.059.102.174.174 0 0 1-.111.04Zm-5.158 0a.173.173 0 0 1-.172-.171c0-.03.007-.059.022-.086 3.219-5.674 6.861-20.346 7.442-26.554a.168.168 0 0 1 .12-.148.174.174 0 0 1 .131.012c.02.01.038.025.052.042a.167.167 0 0 1 .039.126c-.297 3.177-1.344 8.36-2.731 13.525-2.124 7.91-3.89 11.645-4.754 13.167a.173.173 0 0 1-.149.087Z" fill="#fff"/><path d="M129.401 104.273c7.392 1.265 9.618 1.73 9.647 1.774l2.707-4.166c-8.972-5.39-25.219-6.364-31.588-.823-2.502 2.272.918.949 1.417.777-2.837 4.356.315 2.157.675 1.869-1.397 3.911 2.524-.539 2.524-.539l.012.02.003.004c.368.519 2.983.24 3.09.222-.124.037 5.128-.231 11.513.862Z" fill="#F4ADA2"/><path d="M115.073 103.79a.161.161 0 0 1-.072-.016c-.427-.197-.636-.454-.623-.766.025-.553.799-1.191 2.365-1.948.386-.187.772-.357 1.113-.5-3.365.447-7.013 1.936-7.054 1.953a.185.185 0 0 1-.066.013.184.184 0 0 1-.065-.013.18.18 0 0 1-.093-.094.164.164 0 0 1-.013-.065.176.176 0 0 1 .05-.122.161.161 0 0 1 .056-.037c.047-.019 4.677-1.91 8.368-2.09a.172.172 0 0 1 .066.333c-1.676.599-4.349 1.831-4.383 2.585-.007.159.135.306.423.439a.174.174 0 0 1 .082.079.179.179 0 0 1 .014.114.18.18 0 0 1-.06.097.177.177 0 0 1-.108.038Z" fill="#9B3C82"/><path d="M111.834 104.437a.167.167 0 0 1-.097-.031.169.169 0 0 1-.07-.182.175.175 0 0 1 .053-.088c.03-.027 3.134-2.763 7.278-4.024.021-.007.044-.009.066-.007a.171.171 0 0 1 .064.02c.02.01.038.025.052.042a.17.17 0 0 1-.082.274c-4.073 1.239-7.119 3.925-7.15 3.952a.171.171 0 0 1-.114.044Z" fill="#9B3C82"/><path d="M155.519 105.299c9.371 6.017 23.299 4.298 22.439-.257-2.837-7.049-21.946-1.79-22.439.257Z" fill="#5B2448"/><path d="M114.154 112.234c-1.886 2.96 4.287-.692 4.42-.77-2.645 2.175-2.766 3.348-.255 2.219 2.51-1.129 5.848-2.813 8.949-3.111 4.697-.452 9.198 2.391 10.659 3.161 23.307 13.547 38.754 8.218 37.218-8.58-1.038-9.218-11.843-15.163-17.821-10.169-.601 1.805-2.407 10.229-2.336 10.235 0 0-16.97-7.562-31.966-2.866-.123.042-4.965 1.195-8.716 4.506l-.178.159c-3.033 2.737 1.49 1.18 2.407.751-.704.597-1.894 1.729-2.547 2.487-2.895 3.365.166 1.978.166 1.978Z" fill="#F4ADA2"/><path d="M114.802 109.209a.173.173 0 0 1-.17-.2.174.174 0 0 1 .043-.088c1.905-2.086 4.615-3.027 4.73-3.066a.173.173 0 0 1 .13.01.172.172 0 0 1 .078.228.173.173 0 0 1-.097.087c-.027.01-2.743.954-4.587 2.973a.158.158 0 0 1-.058.041.165.165 0 0 1-.069.015Zm-1.717 4.425a.167.167 0 0 1-.084-.022.176.176 0 0 1-.063-.061.18.18 0 0 1-.005-.169c.727-1.375 2.218-2.769 4.431-4.143a26.44 26.44 0 0 1 3.106-1.65.162.162 0 0 1 .065-.014.174.174 0 0 1 .122.048.15.15 0 0 1 .038.056c.009.02.014.043.014.065a.149.149 0 0 1-.012.066.19.19 0 0 1-.036.057.18.18 0 0 1-.056.038c-.056.024-5.7 2.478-7.368 5.638a.163.163 0 0 1-.063.067.172.172 0 0 1-.089.024Zm2.439.542a.17.17 0 0 1-.144-.265c.613-.957 1.777-1.978 3.46-3.034a25.186 25.186 0 0 1 2.341-1.298.177.177 0 0 1 .132-.006.173.173 0 0 1 .015.318c-.043.019-4.257 2.016-5.659 4.206a.173.173 0 0 1-.145.079Zm39.995-9.056a.18.18 0 0 1-.057-.009c-5.415-1.903-10.78-3.124-15.947-3.63-4.132-.405-8.148-.355-11.934.147-6.448.856-10.042 2.755-10.078 2.774a.184.184 0 0 1-.064.02.194.194 0 0 1-.068-.006.161.161 0 0 1-.059-.032.154.154 0 0 1-.043-.052.165.165 0 0 1-.013-.131.159.159 0 0 1 .032-.06.163.163 0 0 1 .052-.042c.036-.02 3.673-1.943 10.175-2.809 3.815-.508 7.858-.559 12.019-.153 5.199.507 10.596 1.736 16.042 3.649a.173.173 0 0 1 .054.294.172.172 0 0 1-.111.04Z" fill="#9B3C82"/><path d="M175.121 104.869s-12.38 3.611-20.118.344c1.807-3.07 19.172-8.166 19.172-8.166s.602 4.298.946 7.822Z" fill="#9B3C82"/><path d="M163.088 76.02c-3.184 4.782-5.764 16.214-8.085 29.107 0 0 5.1 1.717 11.778-.43 7.222-2.32 10.489-1.461 11.177.344-3.095-7.65-2.837-13.151-3.869-22.606-1.214-11.132-7.941-11.011-11.001-6.416Z" fill="#FFCF2D"/><path d="M178.113 105.949a.176.176 0 0 1-.153-.091c-2.254-4.249-3.132-13.282-3.837-20.541-.338-3.473-.629-6.473-1.006-8.116a.174.174 0 0 1 .022-.13.173.173 0 0 1 .237-.054.175.175 0 0 1 .077.107c.381 1.665.673 4.675 1.012 8.16.703 7.229 1.577 16.224 3.799 20.412a.173.173 0 0 1-.151.253Z" fill="#fff"/></g><g clip-path="url(#d)"><path d="m110.82 116.325-.115.057a1.223 1.223 0 0 1-1.633-.565l-.123-.246-.057-.123-.269-.557-11.834-24.369a1.23 1.23 0 0 1 .564-1.638l.114-.057a1.235 1.235 0 0 1 1.641.565l11.744 24.189.164.335.008.025.359.745a1.218 1.218 0 0 1-.563 1.639Z" fill="#FFCF2D"/><path d="M145.741 115.17v.122c0 .68-.547 1.229-1.225 1.229h-34.374c-.58 0-1.07-.41-1.193-.95-.016-.09-.032-.18-.032-.279v-.213a1.226 1.226 0 0 1 1.217-1.146h34.373a1.24 1.24 0 0 1 1.234 1.237Z" fill="#9B3C82"/><path d="m110.852 113.58.164.336-.752-.024c-.212 0-.416.049-.596.139-.4.196-.686.581-.743 1.048-.008.058-.008.115-.008.172 0 .066-.008.131-.017.197l-.269-.557a1.681 1.681 0 0 1 1.642-1.327l.579.016Z" fill="#fff"/></g><g clip-path="url(#e)"><path d="M113.994 112.049c-1.871 2.937 4.264-.683 4.392-.769-2.632 2.161-2.751 3.33-.256 2.203 2.495-1.127 5.811-2.792 8.895-3.091 4.666-.452 9.144 2.374 10.596 3.142 20.149 11.715 34.138 9.623 36.753-2.595.247-1.17-13.724-3.407-19.791-5.858 0 0-15.894-7.027-31.77-2.843-.12.043-4.939 1.187-8.665 4.474-.06.051-.12.103-.18.162-3.016 2.716 1.479 1.17 2.393.743-.701.589-1.88 1.716-2.529 2.468-2.88 3.347.162 1.964.162 1.964Z" fill="#F4ADA2"/><path d="M119.326 106.037a.174.174 0 0 0 .103-.222.176.176 0 0 0-.223-.102c-.102.034-2.17.751-3.956 2.322.436-.145.863-.316 1.094-.418a13.586 13.586 0 0 1 2.982-1.58Zm1.077 1.717a.163.163 0 0 0 .085-.222.163.163 0 0 0-.222-.086 26.152 26.152 0 0 0-3.085 1.64c-1.709 1.059-2.973 2.109-3.802 3.176.324-.085.598-.213.606-.213 2.222-2.536 6.375-4.278 6.418-4.295Zm.803 1.741c-.043-.085-.145-.119-.231-.085-.794.384-1.572.82-2.324 1.289-.897.564-1.641 1.11-2.239 1.648a30.872 30.872 0 0 0 1.914-1.033c1.419-.948 2.769-1.579 2.786-1.597a.16.16 0 0 0 .094-.222Zm16.15-8.273c3.538.23 7.178.802 10.87 1.716-2.051-.623-4.41-1.247-7.076-1.682a65.662 65.662 0 0 0-3.777-.376c-3.708-.239-7.306-.111-10.707.393-2.7.47-4.913 1.136-6.836 1.981 1.547-.538 3.794-1.17 6.665-1.605 3.436-.538 7.093-.675 10.861-.427Z" fill="#9B3C82"/></g><g clip-path="url(#f)"><path d="M56.6 111.885a6.72 6.72 0 1 0-.002-13.44 6.72 6.72 0 0 0 .001 13.44Zm9.457 8.254a15.955 15.955 0 0 1-18.688.2c1.178-3.398 3.03-6.387 4.99-8.318a8.044 8.044 0 0 0 8.73-.162c2.003 1.877 3.82 4.846 4.968 8.28Z" fill="#66B0F0"/><path d="M56.574 123.519a16.097 16.097 0 0 1-9.567-3.126 16.175 16.175 0 0 1-6.637-13.078c0-8.935 7.27-16.204 16.204-16.204 8.935 0 16.204 7.27 16.204 16.204a16.036 16.036 0 0 1-1.734 7.3 16.36 16.36 0 0 1-4.835 5.729 16.074 16.074 0 0 1-9.635 3.175Zm0-31.896c-8.652 0-15.692 7.04-15.692 15.692a15.673 15.673 0 0 0 6.633 12.814 15.701 15.701 0 0 0 18.39-.196l.191-.144a15.834 15.834 0 0 0 4.492-5.405 15.527 15.527 0 0 0 1.678-7.069c0-8.653-7.04-15.692-15.692-15.692Z" fill="#FFCF2D"/></g><g clip-path="url(#g)"><path d="M56.784 67.625a6.72 6.72 0 1 0 0-13.439 6.72 6.72 0 0 0 0 13.44Z" fill="#F4ADA2"/><path d="M66.242 75.88a15.95 15.95 0 0 1-18.688.2c1.178-3.398 3.03-6.387 4.99-8.319a8.047 8.047 0 0 0 8.73-.16c2.003 1.876 3.82 4.844 4.968 8.279Z" fill="#F4ADA2"/><path d="M56.76 79.26a16.092 16.092 0 0 1-9.568-3.126 16.18 16.18 0 0 1-6.636-13.078c0-8.935 7.269-16.204 16.203-16.204 8.935 0 16.204 7.269 16.204 16.204a16.035 16.035 0 0 1-1.734 7.3 16.354 16.354 0 0 1-4.835 5.73 16.073 16.073 0 0 1-9.635 3.174Zm0-31.896c-8.653 0-15.693 7.04-15.693 15.692A15.668 15.668 0 0 0 47.7 75.869a15.695 15.695 0 0 0 18.581-.34 15.839 15.839 0 0 0 4.492-5.404 15.529 15.529 0 0 0 1.678-7.07c0-8.652-7.039-15.691-15.692-15.691Z" fill="#FFCF2D"/></g><g clip-path="url(#h)" fill="#66B0F0"><path d="M92.645 57.168H78.588a.257.257 0 0 1-.18-.073.249.249 0 0 1 0-.355.257.257 0 0 1 .18-.074h14.057c.068 0 .133.027.18.074a.249.249 0 0 1 0 .355.257.257 0 0 1-.18.073Zm10.021 0h-6.86a.257.257 0 0 1-.18-.073.249.249 0 0 1 0-.355.257.257 0 0 1 .18-.074h6.86a.254.254 0 0 1 .255.251.254.254 0 0 1-.255.25Zm-20.521 7.62h-3.557a.257.257 0 0 1-.18-.074.249.249 0 0 1 0-.354.257.257 0 0 1 .18-.074h3.557c.067 0 .132.027.18.074a.249.249 0 0 1 0 .354.256.256 0 0 1-.18.074Zm20.521 0H85.08a.257.257 0 0 1-.18-.074.249.249 0 0 1 0-.354.257.257 0 0 1 .18-.074h17.586a.255.255 0 0 1 .255.251.254.254 0 0 1-.255.25Zm-6.859 7.619H78.63a.257.257 0 0 1-.18-.073.249.249 0 0 1 0-.355.257.257 0 0 1 .18-.073h17.176c.067 0 .132.026.18.073a.25.25 0 0 1 0 .355.257.257 0 0 1-.18.073Zm6.901 0h-3.966a.257.257 0 0 1-.18-.073.249.249 0 0 1 0-.355.257.257 0 0 1 .18-.073h3.966a.254.254 0 0 1 .255.25.254.254 0 0 1-.255.25Z"/></g><g clip-path="url(#i)"><path d="m112.963 54.75.584 1.239a.207.207 0 0 0 .155.118l1.306.199a.203.203 0 0 1 .104.048.22.22 0 0 1 .067.217.22.22 0 0 1-.056.102l-.946.965a.225.225 0 0 0-.059.191l.223 1.362a.225.225 0 0 1-.012.118.212.212 0 0 1-.07.094.2.2 0 0 1-.217.016l-1.168-.643a.201.201 0 0 0-.192 0l-1.169.643a.196.196 0 0 1-.217-.017.225.225 0 0 1-.082-.211l.223-1.362a.212.212 0 0 0-.007-.103.212.212 0 0 0-.052-.088l-.945-.964a.212.212 0 0 1-.056-.103.217.217 0 0 1 .004-.118.205.205 0 0 1 .166-.147l1.306-.199a.199.199 0 0 0 .092-.039.217.217 0 0 0 .064-.08l.584-1.239a.21.21 0 0 1 .076-.088.197.197 0 0 1 .217 0c.033.022.06.052.077.088Z" fill="#FFCF2D"/></g><g clip-path="url(#j)"><path d="m122.222 54.75.584 1.239a.216.216 0 0 0 .064.079c.027.02.058.034.091.039l1.307.199a.2.2 0 0 1 .103.048.22.22 0 0 1 .067.217.212.212 0 0 1-.056.102l-.945.965a.227.227 0 0 0-.053.088.24.24 0 0 0-.007.103l.223 1.362a.215.215 0 0 1-.012.118.204.204 0 0 1-.176.134.197.197 0 0 1-.11-.024l-1.169-.643a.201.201 0 0 0-.192 0l-1.168.643a.2.2 0 0 1-.217-.017.205.205 0 0 1-.07-.093.215.215 0 0 1-.012-.118l.223-1.362a.24.24 0 0 0-.007-.103.226.226 0 0 0-.053-.088l-.945-.964a.22.22 0 0 1-.052-.221.22.22 0 0 1 .063-.099.2.2 0 0 1 .103-.048l1.307-.199a.2.2 0 0 0 .091-.039.217.217 0 0 0 .064-.08l.584-1.239a.21.21 0 0 1 .076-.088.2.2 0 0 1 .218 0 .218.218 0 0 1 .076.088Z" fill="#FFCF2D"/></g><g clip-path="url(#k)"><path d="m131.296 54.75.584 1.239a.216.216 0 0 0 .064.079c.027.02.058.034.091.039l1.307.199a.2.2 0 0 1 .103.048.22.22 0 0 1 .067.217.212.212 0 0 1-.056.102l-.945.965a.225.225 0 0 0-.06.191l.224 1.362a.225.225 0 0 1-.082.212.2.2 0 0 1-.217.016l-1.169-.643a.201.201 0 0 0-.192 0l-1.168.643a.2.2 0 0 1-.217-.017.213.213 0 0 1-.07-.093.215.215 0 0 1-.012-.118l.223-1.362a.24.24 0 0 0-.007-.103.226.226 0 0 0-.053-.088l-.945-.964a.22.22 0 0 1-.052-.221.22.22 0 0 1 .063-.099.2.2 0 0 1 .103-.048l1.307-.199a.2.2 0 0 0 .091-.039.217.217 0 0 0 .064-.08l.584-1.239a.21.21 0 0 1 .076-.088.2.2 0 0 1 .218 0 .21.21 0 0 1 .076.088Z" fill="#FFCF2D"/></g><g clip-path="url(#l)"><path d="m112.963 70.12.584 1.24a.207.207 0 0 0 .155.118l1.306.198a.203.203 0 0 1 .104.049.22.22 0 0 1 .067.216.22.22 0 0 1-.056.103l-.946.965a.225.225 0 0 0-.059.191l.223 1.362c.007.04.002.08-.012.118a.212.212 0 0 1-.07.093.2.2 0 0 1-.217.017l-1.168-.644a.201.201 0 0 0-.192 0l-1.169.643a.196.196 0 0 1-.217-.016.225.225 0 0 1-.082-.211l.223-1.362a.212.212 0 0 0-.007-.103.212.212 0 0 0-.052-.088l-.945-.965a.212.212 0 0 1-.056-.102.217.217 0 0 1 .004-.119.205.205 0 0 1 .166-.147l1.306-.198a.199.199 0 0 0 .092-.04.217.217 0 0 0 .064-.079l.584-1.239a.21.21 0 0 1 .076-.088.197.197 0 0 1 .217 0c.033.021.06.052.077.088Z" fill="#FFCF2D"/></g><g clip-path="url(#m)"><path d="m122.037 70.305.584 1.24a.217.217 0 0 0 .064.079.2.2 0 0 0 .091.038l1.307.2a.204.204 0 0 1 .103.048.22.22 0 0 1 .067.216.22.22 0 0 1-.056.103l-.945.965a.227.227 0 0 0-.053.088.24.24 0 0 0-.007.103l.223 1.362c.007.04.003.08-.012.118a.204.204 0 0 1-.07.093.197.197 0 0 1-.217.017l-1.168-.644a.201.201 0 0 0-.192 0l-1.169.643a.197.197 0 0 1-.217-.016.225.225 0 0 1-.082-.211l.224-1.362a.24.24 0 0 0-.007-.103.226.226 0 0 0-.053-.088l-.945-.965a.212.212 0 0 1-.056-.103.22.22 0 0 1 .067-.217.199.199 0 0 1 .103-.048l1.307-.198a.2.2 0 0 0 .091-.04.217.217 0 0 0 .064-.078l.584-1.24a.21.21 0 0 1 .076-.088.2.2 0 0 1 .218 0 .218.218 0 0 1 .076.088Z" fill="#FFCF2D"/></g><g clip-path="url(#n)"><path d="m131.111 70.305.584 1.24a.217.217 0 0 0 .064.079.2.2 0 0 0 .091.038l1.307.2a.204.204 0 0 1 .103.048.22.22 0 0 1 .067.216.22.22 0 0 1-.056.103l-.946.965a.237.237 0 0 0-.052.088.24.24 0 0 0-.007.103l.223 1.362c.007.04.003.08-.012.118a.204.204 0 0 1-.07.093.197.197 0 0 1-.217.017l-1.168-.644a.201.201 0 0 0-.192 0l-1.169.643a.197.197 0 0 1-.217-.016.225.225 0 0 1-.082-.211l.224-1.362a.225.225 0 0 0-.06-.191l-.945-.965a.212.212 0 0 1-.056-.103.22.22 0 0 1 .067-.217.199.199 0 0 1 .103-.048l1.307-.198a.2.2 0 0 0 .091-.04.217.217 0 0 0 .064-.078l.584-1.24a.21.21 0 0 1 .076-.088.197.197 0 0 1 .218 0 .218.218 0 0 1 .076.088Z" fill="#FFCF2D"/></g><g clip-path="url(#o)"><path d="m112.963 62.342.584 1.24a.207.207 0 0 0 .155.118l1.306.198a.203.203 0 0 1 .104.049.22.22 0 0 1 .067.216.22.22 0 0 1-.056.103l-.946.965a.225.225 0 0 0-.059.191l.223 1.362c.007.04.002.08-.012.118a.212.212 0 0 1-.176.134.2.2 0 0 1-.111-.024l-1.168-.644a.201.201 0 0 0-.192 0l-1.169.644a.197.197 0 0 1-.217-.017.225.225 0 0 1-.082-.211l.223-1.362a.212.212 0 0 0-.007-.103.213.213 0 0 0-.052-.088l-.945-.965a.212.212 0 0 1-.056-.102.216.216 0 0 1 .004-.119.205.205 0 0 1 .063-.098.199.199 0 0 1 .103-.049l1.306-.198a.199.199 0 0 0 .092-.04.217.217 0 0 0 .064-.078l.584-1.24a.21.21 0 0 1 .076-.088.197.197 0 0 1 .217 0c.033.022.06.052.077.088Z" fill="#FFCF2D"/></g><g clip-path="url(#p)"><path d="m122.037 62.527.584 1.24a.218.218 0 0 0 .064.079.2.2 0 0 0 .091.039l1.307.198a.203.203 0 0 1 .103.049.22.22 0 0 1 .067.217.22.22 0 0 1-.056.102l-.945.965a.226.226 0 0 0-.053.088.24.24 0 0 0-.007.103l.223 1.362c.007.04.003.08-.012.118a.205.205 0 0 1-.176.134.2.2 0 0 1-.111-.024l-1.168-.644a.201.201 0 0 0-.192 0l-1.169.644a.197.197 0 0 1-.217-.017.225.225 0 0 1-.082-.21l.224-1.363a.24.24 0 0 0-.007-.103.226.226 0 0 0-.053-.088l-.945-.965a.211.211 0 0 1-.056-.102.22.22 0 0 1 .067-.217.2.2 0 0 1 .103-.049l1.307-.198a.199.199 0 0 0 .091-.04.217.217 0 0 0 .064-.078l.584-1.24a.21.21 0 0 1 .076-.088.198.198 0 0 1 .218 0 .218.218 0 0 1 .076.088Z" fill="#FFCF2D"/></g><g clip-path="url(#q)"><path d="M23.636 87.874c.016-.084.101-.135.194-.118.068.017.11.067.119.135.448 3.077-2.387 15.452 8.318 22.106 6.855 4.263 8.031 6.128 9.064 10.163 1.684 6.569-3.157 12.536-1.896 21.19 1.219 8.374 5.128 16.935-1.989 23.529-.067.06-.169.06-.228-.008a.19.19 0 0 1-.043-.093c-.203-1.772.974-11.96-5.576-19.105-6.669-7.281 4.781-15.257-6.102-23.861-10.375-8.196-4.07-24.546-1.861-33.938Z" fill="#21A0AA"/><path d="M55.725 127.085c.017-.026 0-.06-.025-.077a.076.076 0 0 0-.06 0c-.846.577-4.256 3.17-4.053 7.459.33 6.857-3.986 8.366-6.82 12.435-2.734 3.916-.915 7.052-1.44 10.857-.33 4.179-6.524 7.392-6.524 7.392s8.733-.424 11.873-5.79c1.845-3.619.635-6.026 2.04-10.442 1.167-3.687 5.102-4.365 5.906-8.595.821-4.323-4.112-7.111-.897-13.239Z" fill="#21A0AA"/><path d="M38.09 165.489c.025.051 0 .111-.051.136a.107.107 0 0 1-.102 0c-2.048-.729-8.242-3.195-9.207-7.891-1.752-8.603-12.034-6.306-10.087-16.571 2.437-12.866-1.608-14.324-8.234-20.029 0 0 15.943 3.442 17.077 16.215.516 5.806-2.336 6.95 3.529 13.045 3.419 3.534 1.87 10.442 7.075 15.095Z" fill="#21A0AA"/><path d="M36.008 142.519c-1.236-3.475-.728-6.628-.237-9.671.397-2.458.804-5.001.296-7.688-.576-3.009-2.268-5.874-5.188-8.764-2.36-2.331-4.18-5.365-5.407-9.001-.99-2.916-1.6-6.23-1.828-9.85a53.24 53.24 0 0 1 .305-9.637v-.034a.164.164 0 0 0-.119-.135.17.17 0 0 0-.194.118c-.06.263-.127.534-.195.814a54.376 54.376 0 0 0-.212 8.883c.229 3.653.847 7.01 1.845 9.959 1.253 3.704 3.106 6.79 5.518 9.171 2.852 2.823 4.51 5.62 5.069 8.536.499 2.61.11 5.009-.297 7.543-.499 3.103-1.015 6.307.254 9.884 2.471 6.95 4.536 14.943 1.557 22.046 0 .025.009.051.009.068a.14.14 0 0 0 .042.093c.06.068.161.068.229.008.067-.059.127-.118.186-.178 2.92-7.17.846-15.189-1.633-22.165Z" fill="#6CE0DC"/><path d="M43.658 161.023c2.217-2.331 3.326-5.196 3.385-8.748.068-3.949 1.938-6.17 3.749-8.315 1.684-2 3.283-3.882 2.928-6.908-.415-3.526-.517-6.229 1.6-9.111.118-.28.253-.568.405-.856.017-.026 0-.06-.025-.077a.076.076 0 0 0-.06 0c-.084.06-.185.136-.312.229-2.573 3.162-2.48 6.052-2.031 9.866.33 2.84-1.134 4.569-2.827 6.578-1.768 2.102-3.783 4.475-3.85 8.577-.06 3.442-1.126 6.213-3.267 8.468-1.362 1.433-3.173 2.687-5.61 3.882-.568.339-.931.543-.931.543s.414-.043 1.083-.145c2.496-1.22 4.366-2.517 5.763-3.983Z" fill="#6CE0DC"/><path d="M20.555 128.881c1.422 2.035 2.048 4.196 1.862 6.434-.728 8.527-.728 10.247 3.453 14.011 2.877 2.585 3.562 4.255 4.603 6.772.262.644.567 1.373.931 2.187 1.346 2.992 3.85 5.408 5.856 6.993.296.144.533.262.677.356a.108.108 0 0 0 .102 0c.05-.026.067-.085.05-.136a8.545 8.545 0 0 1-.626-.61c-1.955-1.551-4.358-3.891-5.661-6.773-.364-.805-.66-1.534-.931-2.17-1.058-2.568-1.76-4.271-4.714-6.924-2.158-1.942-3.063-3.255-3.444-5.027-.415-1.915-.237-4.407.127-8.637.203-2.339-.448-4.594-1.938-6.713-1.176-1.678-2.886-3.272-5.06-4.738-1.642-1.102-3.31-1.958-4.663-2.577a14.411 14.411 0 0 0-.762-.195c.27.229.533.458.796.678 1.294.602 2.86 1.416 4.392 2.45 2.14 1.424 3.808 2.984 4.95 4.619Z" fill="#6CE0DC"/><path d="M48.126 166.591c3.038 1.924 4.942 4.662 4.942 7.714 0 5.806-6.897 10.51-15.402 10.51-8.504 0-15.401-4.704-15.401-10.51 0-3.052 1.904-5.79 4.942-7.714h20.92Z" fill="#FFCF2D"/><path d="M26.242 164.812h22.68c.744 0 1.354.61 1.354 1.356a1.36 1.36 0 0 1-1.355 1.356h-22.68c-.744 0-1.353-.61-1.353-1.356 0-.746.61-1.356 1.354-1.356Z" fill="#FFCF2D"/><path d="m49.353 167.456-23.407.034c-.144.11-.263.22-.398.339l24.22-.034c-.144-.11-.271-.229-.415-.339Z" fill="#fff"/></g><defs><clipPath id="a"><path fill="#fff" transform="translate(30.185 25.74)" d="M0 0h137.407v111.296H0z"/></clipPath><clipPath id="b"><path fill="#fff" transform="translate(79.074 101.111)" d="M0 0h24.63v15.741H0z"/></clipPath><clipPath id="c"><path fill="#fff" transform="translate(74.445 47.222)" d="M0 0h120.37v139.63H0z"/></clipPath><clipPath id="d"><path fill="#fff" transform="translate(96.667 88.704)" d="M0 0h49.074v29.259H0z"/></clipPath><clipPath id="e"><path fill="#fff" transform="translate(112.593 92.222)" d="M0 0h62.593v29.074H0z"/></clipPath><clipPath id="f"><path fill="#fff" transform="translate(40.37 91.111)" d="M0 0h32.407v32.407H0z"/></clipPath><clipPath id="g"><path fill="#fff" transform="translate(40.556 46.852)" d="M0 0h32.407v32.407H0z"/></clipPath><clipPath id="h"><path fill="#fff" transform="translate(78.333 56.666)" d="M0 0h24.63v15.741H0z"/></clipPath><clipPath id="i"><path fill="#fff" transform="translate(110.37 54.63)" d="M0 0h4.815v4.815H0z"/></clipPath><clipPath id="j"><path fill="#fff" transform="translate(119.63 54.63)" d="M0 0h4.815v4.815H0z"/></clipPath><clipPath id="k"><path fill="#fff" transform="translate(128.704 54.63)" d="M0 0h4.815v4.815H0z"/></clipPath><clipPath id="l"><path fill="#fff" transform="translate(110.37 70)" d="M0 0h4.815v4.815H0z"/></clipPath><clipPath id="m"><path fill="#fff" transform="translate(119.444 70.185)" d="M0 0h4.815v4.815H0z"/></clipPath><clipPath id="n"><path fill="#fff" transform="translate(128.519 70.185)" d="M0 0h4.815v4.815H0z"/></clipPath><clipPath id="o"><path fill="#fff" transform="translate(110.37 62.222)" d="M0 0h4.815v4.815H0z"/></clipPath><clipPath id="p"><path fill="#fff" transform="translate(119.444 62.407)" d="M0 0h4.815v4.815H0z"/></clipPath><clipPath id="q"><path fill="#fff" transform="translate(7.963 86.111)" d="M0 0h49.074v98.704H0z"/></clipPath></defs></svg>