<svg width="120" height="108" fill="none" xmlns="http://www.w3.org/2000/svg"><g clip-path="url(#a)"><path d="M3.717 19.908V16.9a2.526 2.526 0 0 1 2.526-2.527h44.771a2.49 2.49 0 0 1 2.49 2.49v3.063L3.76 19.912l-.042-.004Z" fill="#66B0F0"/><path d="m53.504 20.042-49.787-.014a.115.115 0 0 1-.117-.116V16.9a2.644 2.644 0 0 1 2.643-2.644h44.771a2.61 2.61 0 0 1 2.607 2.606v3.064c0 .032-.014.06-.033.084-.019.023-.051.032-.084.032Zm-49.67-.247 49.553.014v-2.947a2.374 2.374 0 0 0-2.373-2.373H6.244a2.414 2.414 0 0 0-2.41 2.41v2.896Z" fill="#66B0F0"/><path d="M50.74 17.837a.77.77 0 1 0 0-1.538.77.77 0 0 0 0 1.538Zm-2.62.004a.77.77 0 1 0 0-1.538.77.77 0 0 0 0 1.538Zm-2.62 0a.77.77 0 1 0 0-1.538.77.77 0 0 0 0 1.538ZM3.717 19.908h24.891v17.49H3.717v-17.49Z" fill="#fff"/><path d="M28.724 37.514H3.6V19.79h25.124v17.723Zm-24.89-.233H28.49V20.024H3.833v17.257Z" fill="#66B0F0"/><path d="M3.717 37.397h24.891v17.49H5.815a2.095 2.095 0 0 1-2.098-2.099V37.397Z" fill="#fff"/><path d="M28.724 55.004H5.814A2.217 2.217 0 0 1 3.6 52.79V37.281h25.125v17.723Zm-24.89-17.49V52.79c0 1.091.89 1.982 1.98 1.982h22.677V37.514H3.833Z" fill="#66B0F0"/><path d="M28.608 37.397h24.891V52.81c0 1.147-.932 2.08-2.079 2.08H28.608V37.397Z" fill="#fff"/><path d="M51.42 55.009H28.491V37.28h25.125v15.532a2.197 2.197 0 0 1-2.196 2.196Zm-22.695-.233H51.42a1.966 1.966 0 0 0 1.963-1.963V37.514H28.725v17.262Z" fill="#66B0F0"/><path d="M28.608 19.906h24.891v17.49H28.608v-17.49Z" fill="#fff"/><path d="M53.5 37.514H28.607a.115.115 0 0 1-.117-.117v-17.49c0-.065.052-.116.117-.116h24.891c.066 0 .117.051.117.117v17.49a.115.115 0 0 1-.117.116Zm-24.775-.233h24.658V20.024H28.725v17.257Z" fill="#66B0F0"/><path d="M21.2 28.655a5.036 5.036 0 0 1-5.035 5.04 5.036 5.036 0 0 1-5.04-5.035 5.036 5.036 0 0 1 5.035-5.04 5.042 5.042 0 0 1 5.04 5.035Z" fill="#fff"/><path d="M16.165 33.811a5.16 5.16 0 0 1-5.157-5.152 5.16 5.16 0 0 1 5.152-5.157 5.16 5.16 0 0 1 5.156 5.152 5.16 5.16 0 0 1-5.151 5.157Zm-.005-10.076a4.927 4.927 0 0 0-4.919 4.924 4.927 4.927 0 0 0 4.924 4.919 4.927 4.927 0 0 0 4.918-4.924 4.927 4.927 0 0 0-4.923-4.919Z" fill="#21A0AA"/><path d="M18.37 30.669a.213.213 0 0 1-.042.21c-.075.074-.154.14-.238.2a3.072 3.072 0 0 1-3.772 0 5.757 5.757 0 0 1-.247-.21c-.051-.051-.07-.13-.051-.2.14-.378.35-.728.625-1.026a.093.093 0 0 1 .121-.01c.415.28.904.43 1.403.43a2.47 2.47 0 0 0 1.436-.457c.037-.028.089-.024.117.013l.005.005c.274.313.489.662.643 1.045Zm-.518-3.288a1.68 1.68 0 1 1-3.343.34 1.68 1.68 0 0 1 3.343-.34Z" fill="#21A0AA"/><path d="M46.091 28.655a5.036 5.036 0 0 1-5.035 5.04 5.038 5.038 0 0 1-.01-10.076 5.043 5.043 0 0 1 5.045 5.036Z" fill="#FFCF2D"/><path d="M43.261 30.669a.213.213 0 0 1-.042.21c-.074.074-.154.14-.237.2a3.072 3.072 0 0 1-3.772 0 5.882 5.882 0 0 1-.247-.21.21.21 0 0 1-.052-.2 3.18 3.18 0 0 1 .625-1.026.092.092 0 0 1 .121-.01c.415.28.905.43 1.404.43.517 0 1.016-.159 1.436-.457.037-.028.088-.024.116.013l.005.005c.275.313.494.662.643 1.045Zm-.517-3.288a1.68 1.68 0 1 1-3.344.34 1.68 1.68 0 0 1 3.344-.34Zm3.347 18.763a5.036 5.036 0 0 1-5.035 5.04 5.038 5.038 0 0 1-.01-10.076 5.043 5.043 0 0 1 5.045 5.036Z" fill="#fff"/><path d="M41.056 51.301A5.16 5.16 0 0 1 35.9 46.15a5.163 5.163 0 0 1 5.147-5.157c2.844 0 5.16 2.313 5.16 5.153a5.16 5.16 0 0 1-5.151 5.156Zm-.01-10.076a4.932 4.932 0 0 0-4.913 4.924c0 2.714 2.21 4.92 4.923 4.92a4.927 4.927 0 0 0 4.919-4.925 4.928 4.928 0 0 0-4.928-4.919Z" fill="#21A0AA"/><path d="M43.261 48.163a.213.213 0 0 1-.042.21c-.074.075-.154.14-.238.2a3.072 3.072 0 0 1-3.771 0 5.807 5.807 0 0 1-.247-.209c-.052-.051-.07-.13-.052-.2a3.18 3.18 0 0 1 .625-1.026.092.092 0 0 1 .121-.01c.415.28.905.43 1.404.43a2.47 2.47 0 0 0 1.436-.458.082.082 0 0 1 .116.014l.005.005c.275.308.494.662.643 1.044Zm-.517-3.291a1.683 1.683 0 0 1-1.502 1.841 1.68 1.68 0 1 1 1.501-1.842Z" fill="#21A0AA"/><path d="M21.2 46.143a5.036 5.036 0 0 1-5.035 5.04 5.036 5.036 0 0 1-5.04-5.035 5.036 5.036 0 0 1 5.035-5.04 5.042 5.042 0 0 1 5.04 5.035Z" fill="#fff"/><path d="M16.165 51.301a5.16 5.16 0 0 1-5.157-5.152 5.16 5.16 0 0 1 5.152-5.157 5.16 5.16 0 0 1 5.156 5.153 5.16 5.16 0 0 1-5.151 5.156Zm-.005-10.076a4.927 4.927 0 0 0-4.919 4.924c0 2.714 2.21 4.92 4.924 4.92a4.927 4.927 0 0 0 4.918-4.925 4.927 4.927 0 0 0-4.923-4.919Z" fill="#21A0AA"/><path d="M18.37 48.163a.213.213 0 0 1-.042.21c-.075.075-.154.14-.238.2a3.072 3.072 0 0 1-3.772 0 5.685 5.685 0 0 1-.247-.209.21.21 0 0 1-.051-.2 3.1 3.1 0 0 1 .625-1.026.093.093 0 0 1 .121-.01c.415.28.904.43 1.403.43a2.47 2.47 0 0 0 1.436-.458.083.083 0 0 1 .117.014l.005.005c.274.308.489.662.643 1.044Zm-.518-3.291a1.68 1.68 0 1 1-3.344.342 1.68 1.68 0 0 1 3.344-.342Z" fill="#21A0AA"/></g><g clip-path="url(#b)"><path d="M63.457 55.304c1.968-2.254 5.927-6.182 12.179-8.696 1.596-.644 9.936-3.849 15.445-1.999 9.041 3.029 14.536 21.013 9.807 43.854-15.325-.71-30.645-1.415-45.97-2.124 2.845-10.347 5.69-20.693 8.54-31.035Z" fill="#66B0F0"/><path d="M81.846 51.71c-.441 2.356-1.29 6.962-3.189 7.226-.617.088-1.304-.25-2-.923-.088-.084-.172-.172-.26-.264-1.09-1.188-2.177-3.177-3.012-5.63.334-1.87 1.104-4.624 3.026-7.393a18.342 18.342 0 0 1 2.167-2.574c1.142.738 2.284 1.48 3.425 2.217l.172.111c.014.14.023.288.037.441.12 1.646.149 4.02-.367 6.79Zm-9.89 1.512c-.15.306-3.263 6.572-5.844 6.001-.01-.004-.023-.004-.037-.009-.339-.083-.835-.334-1.434-1.298-2.135-3.414-.84-8.153-.149-10.166.07-.209.135-.385.19-.533l.196-.167.004-.005c.752-.65 1.504-1.299 2.251-1.952a3384.17 3384.17 0 0 0 3.235 5.449c.084.139.163.273.246.413.446.756.891 1.511 1.341 2.267Z" fill="#66B0F0"/><path d="M113.809 75.734c0 .12-.005.241-.009.362v.023c-.084 2.926-.673 6.353-2.757 8.25a5.269 5.269 0 0 1-.761.58c-5.013 3.149-15.423-2.129-19.61-9.837a17.826 17.826 0 0 1-.496-.983c-.041-.093-.083-.18-.12-.273l-.126-.292a6.971 6.971 0 0 1-.139-.353c-.028-.065-.05-.134-.074-.2a10.175 10.175 0 0 1-.12-.347c-.544-1.623-.678-3.08-.97-5.11-.627-4.36-1.816-10.227-4.285-17.332l-.213-.612a119.702 119.702 0 0 0-1.959-5.124c.07-.033.14-.06.205-.088 3.072-1.318 5.731-1.874 7.922-2.027a17.653 17.653 0 0 1 3.666.106c1.133.154 2 .395 2.586.58 13.617 4.36 16.703 26.203 16.958 28.011.047.32.074.603.079.622.107.862.246 2.347.223 4.044Z" fill="#66B0F0"/><path d="M116.412 81.395a13.279 13.279 0 0 1-1.675 5.227 110.468 110.468 0 0 0-9.969-5.649 110.009 110.009 0 0 0-14.095-5.862c-.209-.07-.413-.139-.617-.204v-2.314a36.95 36.95 0 0 1 2.696-.422 35.6 35.6 0 0 1 8.298-.047c3.76.422 8.094 1.522 11.209 3.09a15.49 15.49 0 0 1 1.619.931c1.439.965 2.4 2.06 2.576 3.247.093.654.005 1.553-.042 2.003ZM66.107 56.9v.557c-.004.593-.013 1.178-.027 1.757-.386 14.623-4.447 25.275-11.445 27.812-3.217 1.164-7.496.78-10.294-1.41-6.229-4.864-3.662-17.502-.288-24.537 1.146-2.389 5.425-11.32 14.629-13.598a18.264 18.264 0 0 1 6.196-.431h.004c.26.023.51.056.743.083.32 3.395.483 6.66.483 9.767Z" fill="#66B0F0"/><path d="m113.878 76.148-.078-.028a50.7 50.7 0 0 0-7.046-1.952 51.943 51.943 0 0 0-16.698-.617l-.126.014a52.9 52.9 0 0 0-3.295.52.178.178 0 0 1-.209-.13.183.183 0 0 1 .112-.223 49.614 49.614 0 0 1 7.792-2.296 49.952 49.952 0 0 1 13.125-.941.183.183 0 0 1 .172.194.183.183 0 0 1-.195.172 49.432 49.432 0 0 0-17.376 2.045c-.112.033-.228.07-.34.102-.38.116-.756.242-1.132.367.404-.06.803-.116 1.207-.167l.265-.033a52.116 52.116 0 0 1 16.768.626 51.984 51.984 0 0 1 6.985 1.93c0 .12-.005.24-.009.361l.078.056Z" fill="#B0DCF7"/><path d="M93.968 42.472c-2.316-.208-4.246.21-5.746 1.243-.394.27-.997.742-1.712 1.716-1.017 1.378-1.713 3.01-2.163 4.791-1.982 7.865.873 18.685 2.437 23.629a.186.186 0 0 1-.019.148.195.195 0 0 1-.12.088l-.02.005a1.6 1.6 0 0 0-1.02.695 1.58 1.58 0 0 0-.218 1.215l.705 3.13a.182.182 0 0 1-.139.219c-.014.005-.028.005-.042.005a.187.187 0 0 1-.18-.144l-.706-3.13a1.96 1.96 0 0 1 1.341-2.31c-1.383-4.42-2.348-8.812-2.79-12.717-.357-3.167-.375-6.033-.05-8.505.139-1.048.339-2.031.598-2.945.483-1.702 1.184-3.177 2.084-4.396.747-1.016 1.388-1.512 1.801-1.8a7.296 7.296 0 0 1 2.288-1.043 18.363 18.363 0 0 1 3.671.106Z" fill="#B0DCF7"/><path d="M70.568 50.871c.886 2.04 1.773 4.081 2.654 6.126a4.08 4.08 0 0 1-2.654.937c-1.546-.028-2.525-.937-2.739-1.145a37.888 37.888 0 0 0 2.738-5.918Z" fill="#F84F46"/><path d="M68.855 57.324a60.01 60.01 0 0 0-3.31 8.329c-2.663 8.533-2.946 16.208-2.612 21.801l12.178-1.182a78.119 78.119 0 0 1-3.35-29.44c-.975.167-1.94.33-2.906.492Z" fill="#F84F46"/><path d="M70.466 58.2c-.228 0-.46-.018-.687-.065-1.267-.236-2.07-1.066-2.441-1.54a.19.19 0 0 1 .032-.26.186.186 0 0 1 .26.033c.334.432 1.072 1.188 2.218 1.4 1.448.27 2.994-.435 3.94-1.803a.185.185 0 0 1 .256-.047.185.185 0 0 1 .046.256c-.882 1.284-2.25 2.026-3.624 2.026Z" fill="#66B0F0"/><path d="M71.05 49.684c-.148.44-.297.863-.44 1.27-.623 1.75-1.203 3.168-1.722 4.226-.85 1.711-1.555 2.518-2.21 2.518a.966.966 0 0 1-.116-.01.872.872 0 0 1-.454-.231 2.307 2.307 0 0 1-.149-.153c-1.425-1.619-1.54-6.558-1.467-9.554.005-.26.014-.505.024-.732.125.009.24.018.362.032l.004-.005v.005c-.148 3.956.102 8.292 1.225 9.85.042.056.084.112.126.158.125.144.241.246.38.264a.247.247 0 0 0 .06.005c.525 0 1.658-.974 3.695-6.785.111-.31.223-.635.334-.974a.183.183 0 0 1 .348.116Z" fill="#B0DCF7"/><path d="M82.375 44.392c-.037.112-.07.223-.107.334-.019.065-.042.13-.065.195a92.233 92.233 0 0 1-4.135 10.578c-.52 1.118-.947 1.976-1.411 2.51-.32.366-.66.58-1.068.616-.041.005-.083.005-.12.005-1.62 0-3.412-2.917-5.463-8.909a.181.181 0 0 1 .116-.232c.098-.032.2.019.232.116 2.506 7.318 4.214 8.747 5.203 8.654.302-.028.575-.209.84-.515.431-.5.845-1.336 1.337-2.398a90.835 90.835 0 0 0 4.26-10.977l.172.111a1.9 1.9 0 0 0 .209-.088Zm-28.539 42.82a.181.181 0 0 1-.18-.163c-.957-7.94-.363-15.657 1.763-22.938a52.663 52.663 0 0 1 1.518-4.466.186.186 0 0 1 .236-.106.185.185 0 0 1 .107.236 54.207 54.207 0 0 0-1.508 4.434c-2.112 7.235-2.701 14.9-1.75 22.794a.183.183 0 0 1-.162.204c-.01.005-.014.005-.024.005Z" fill="#B0DCF7"/><path d="M114.737 86.624c.436-1.164-5.114-4.508-9.073-6.205-3.323-1.424-9.134-3.233-17.488-2.49 3.393 1.669 18.699 9.103 24.802 9.144.52 0 1.587.01 1.759-.45Z" fill="#5B2448"/><path d="M71.382 86.063H47.348l.888 1.956h23.146a.978.978 0 1 0 0-1.957Z" fill="#9B3C82"/><path d="m47.434 86.063.895 1.962h.493l-.894-1.963h-.494Z" fill="#FCB6B1"/><path d="M48.329 88.026H18.643L6.66 61.516a.91.91 0 0 1 .833-1.285H34.5c.771 0 1.468.449 1.783 1.15L48.33 88.026Zm1.623-1.378a.407.407 0 1 0-.001.814.407.407 0 0 0 0-.814Zm1.425.738a.358.358 0 1 1 0-.714l2.092-.006a.358.358 0 1 1 0 .714l-2.092.006Z" fill="#F94F46"/><path d="M26.09 76.768c-.87 0-1.61-.628-1.758-1.483a1.475 1.475 0 0 1 1.203-1.698 1.227 1.227 0 0 1 1.413.997 1.028 1.028 0 0 1-.839 1.18.87.87 0 0 1-.697-.184c-.093-.08-.111-.221-.031-.313a.225.225 0 0 1 .315-.031c.092.074.216.11.333.092a.573.573 0 0 0 .469-.664.784.784 0 0 0-.895-.634 1.026 1.026 0 0 0-.84 1.181 1.336 1.336 0 0 0 1.543 1.09 1.726 1.726 0 0 0 1.414-1.988c-.204-1.206-1.197-1.895-2.413-1.692-.734.123-1.339.505-1.697 1.058-.37.585-.463 1.33-.247 2.104a.229.229 0 0 1-.16.277.223.223 0 0 1-.278-.154c-.247-.898-.142-1.771.302-2.46.426-.665 1.136-1.114 2-1.262 1.45-.246 2.684.616 2.93 2.055a2.169 2.169 0 0 1-1.776 2.504 1.453 1.453 0 0 1-.29.025Z" fill="#FCB6B1"/><path d="M111.224 84.745c-.474 1.72-1.411 3.998-3.435 5.719-3.146 2.67-6.395 1.831-14.712 2.165-9.412.376-14.485.58-20.105 3.307-3.634 1.767-6.943 4.318-7.56 3.636-.39-.436.538-1.92 1.433-3.158.024-.038.052-.07.075-.107-.585.492-1.123.932-1.615 1.322-2.26 1.785-3.574 2.518-3.94 2.189-.381-.339.25-1.804 1.888-4.401.01-.014.019-.033.028-.047a86.4 86.4 0 0 1-1.197.97c-3.12 2.5-4.873 3.561-5.263 3.195-.386-.367.585-2.147 2.9-5.347-.023.013-.046.032-.07.046-.333.227-.686.464-1.039.691-1.624 1.057-3.272 1.976-3.634 1.586-.353-.376.66-1.841 1.021-2.37 5.584-8.097 17.938-12.452 17.938-12.452 7.593-2.676 15.446-5.444 25.132-2.94 5.602 1.438 9.69 4.095 12.155 5.996Z" fill="#F4ADA2"/><path d="m111.632 83.6-.529 1.716c-2.553-2.221-6.316-4.865-11.361-6.33-4.405-1.28-8.113-1.225-8.048-1.225a33.387 33.387 0 0 1 11.566 1.675 33.374 33.374 0 0 1 8.372 4.164Zm-47.924 6.864a24.708 24.708 0 0 0-2.149 1.78c-.668.622-1.3 1.28-1.893 1.976a50.31 50.31 0 0 1-1.04.691 24.77 24.77 0 0 1 2.678-2.935c.687-.64 1.42-1.252 2.181-1.809a.184.184 0 0 1 .256.037.18.18 0 0 1-.033.26Zm3.096 1.804a15.88 15.88 0 0 0-3.541 3.14l.027-.047a86.4 86.4 0 0 1-1.197.97 16.36 16.36 0 0 1 2.149-2.514 16.372 16.372 0 0 1 2.358-1.86.183.183 0 0 1 .255.056c.06.088.037.2-.051.255Zm3.114 1.465a21.481 21.481 0 0 0-3.063 2.671c.023-.036.05-.069.074-.106-.585.492-1.123.932-1.615 1.322a22.098 22.098 0 0 1 3.114-3.2c.413-.343.84-.677 1.276-.988a.18.18 0 0 1 .256.042c.06.083.041.2-.042.26Z" fill="#9A3C81"/><path d="M20.298 83.244c.282.245.491 1.128-1.068 1.693a6.289 6.289 0 0 1-3.037.26c-1.584-.263-1.89-2.043-1.36-2.195 2.09-.583 4.718-.392 5.465.242Z" fill="#9B3C82"/><path d="M20.197 83.707c.071.597-1.637 1.49-3.787 1.435-1.901-.051-2.743-2.013-1.006-2.06 2.07-.053 4.683-.241 4.793.625Z" fill="#F4ADA2"/><path d="M19.727 81.654c.202.406.317 1.472-3.108 1.882a9.636 9.636 0 0 1-2.156.052l-.84-2.307c.268-.306.275-.585.82-.673 2.129-.353 4.837.166 5.284 1.046Z" fill="#9B3C82"/><path d="M19.456 81.99c.033.376-1.035 1.314-4.744 1.249-2.051-.038-2.756-2.65-.71-2.507 2.442.174 5.374.224 5.454 1.259Z" fill="#F4ADA2"/><path d="M19.17 79.508c.15.436-.044 1.396-3.677 1.593-.81.05-1.622.004-2.419-.15l-.356-2.545c.303-.275.777-.559 1.335-.583 2.157-.09 4.784.761 5.117 1.685Z" fill="#9B3C82"/><path d="M18.806 79.9c-.119.294-1.212 1.026-4.814.833-3.148-.165-3.474-3.28-1.115-3.051 2.448.24 6.314 1.256 5.929 2.218Z" fill="#F4ADA2"/><path d="M17.832 77.728c.017.475-.499 1.14-4.13.858-.922-.07-1.799-.283-2.153-.465l.247-3.114c.362-.183.807-.375 1.437-.242 2.428.502 4.57 1.984 4.6 2.963Z" fill="#9B3C82"/><path d="M17.393 77.861c-.215.42-1.44.673-4.619.275-3.188-.396-2.147-3.901.302-3.126 2.334.733 4.71 2.107 4.317 2.851Z" fill="#F4ADA2"/><path d="M78.077 22.267c-.599 1.155-1.583 3.483-1.37 5.57.02.167.043.334.075.5-1.907.738-5.644 5.098-5.644 5.098s-.07-.07-.194-.2a100.65 100.65 0 0 0-2.367-2.328c-.376-.362-.785-.742-1.207-1.136a94.52 94.52 0 0 0-.96-.877c-1.226-1.099-2.526-2.193-3.677-3.023-.821-.59-1.564-1.04-2.158-1.257-.004-.005-.014-.005-.018-.005-.005 0-.01-.004-.019-.004-3.884-1.433-3.211-6.827-.445-7.968 1.225-.51 2.617-.436 3.759.241 1.522-4.08 6.994-3.042 7.565.163 3.982-2.695 8.419 1.836 6.66 5.226Z" fill="#5B2448"/><path d="M76.067 35.711c.005.024.014.042.019.065.032.125.07.25.107.376a33.687 33.687 0 0 0 2.38 5.983c-1.805 5.105-4.72 8.681-7.634 8.741-.371.01-1.61.033-2.534-.774 0 0-1.61-1.415-1.267-5.023 0-.004 0-.023.004-.046.014-.13.047-.496.08-.974l.013-.241c.065-1.14.07-2.23.028-3.256v-.014c-2.91 1.378-6.21 1.35-8.131-.366-.297-.264-1.643-1.493-1.508-3.149.213-2.63 2.158-4.011 2.552-7.105a41.95 41.95 0 0 0 .362-5.305c.014 0 .028-.005.037-.005a19.27 19.27 0 0 1 1.133-.083c1.485-.07 3.202.018 4.669.487.371.12.728.264 1.058.436.325.171.626.366.896.593.849.72 1.986 2.018 2.738 3.502.84 1.67 1.206 2.448 2.483 1.066 1.206-1.308 1.852-2.249 3.156-2.782a4.9 4.9 0 0 1 .557-.19c1.745-.497 3.536.88 3.833 2.56.53 2.95-2.854 5.217-5.03 5.504Z" fill="#F4ADA2"/><path d="m68.65 27.688-.004-.186-.014-.162a1.818 1.818 0 0 0-.07-.315 2.87 2.87 0 0 0-1.156-1.59 2.757 2.757 0 0 0-.64-.321 2.36 2.36 0 0 0-.714-.125 2.08 2.08 0 0 0-.696.106 1.75 1.75 0 0 0-.604.334.546.546 0 0 0 .089.872l.088.051c.171.098.32.162.45.232.13.065.246.13.353.186.213.116.399.213.603.333.204.116.418.255.654.418l.376.255c.065.046.13.093.205.134.157.116.338.186.533.204a.652.652 0 0 0 .297-.041.419.419 0 0 0 .242-.306.45.45 0 0 0 .009-.08Zm-.913 1.526c-.51-.112-1.736-.339-2.873-.919a.333.333 0 0 0-.437.14v.004c-.204.413-.427 1.136.404 1.428 1.012.362 2.65.042 3.008-.398a.164.164 0 0 0-.033-.232c-.023-.005-.041-.014-.07-.023Zm-6.962-1.02c.52.069.896.027 1.843-.084a.32.32 0 0 1 .361.278c.056.454-.167.923-.9 1.002-.821.088-1.332-.52-1.48-.974-.028-.088.023-.186.106-.209.023-.014.047-.014.07-.014Z" fill="#5B2448"/><path d="M76.193 36.153a4.959 4.959 0 0 1-1.69-.153.192.192 0 0 1-.134-.232.192.192 0 0 1 .232-.135c.552.144 1.058.167 1.485.144.032.125.07.25.107.376Z" fill="#9A3C81"/><path d="M62.733 25.875a.353.353 0 0 1-.064.051.64.64 0 0 1-.14.065l-.088.023c-.172.047-.316.065-.446.093-.13.018-.245.05-.352.079-.214.05-.4.093-.604.148-.171.042-.348.102-.547.162a41.95 41.95 0 0 0 .05-1.873c.015 0 .029-.005.038-.005-.005-.004-.014-.004-.019-.004-.004 0-.009-.005-.018-.005.195-.06.394-.098.599-.116.19-.01.38.005.566.046.028.005.056.014.083.019.21.05.404.144.58.255.177.116.325.264.441.44.13.2.089.464-.078.622Zm4.502 17.938c.065-1.14.07-2.23.028-3.255.873-.385 2.237-1.09 3.073-2.018.533.293.784 3.775-3.1 5.273Z" fill="#5B2448"/><path opacity=".52" d="M68.785 35.211a2.16 2.16 0 0 0 2.163-2.156 2.16 2.16 0 0 0-2.163-2.157 2.16 2.16 0 0 0-2.162 2.157 2.16 2.16 0 0 0 2.162 2.156Z" fill="#E47280"/><path d="M61.93 34.004c.246.162.53.255.831.26.293.014.59-.037.854-.153.265-.125.488-.316.66-.552.171-.241.278-.524.296-.816v-.005c.005-.093.088-.162.186-.158a.173.173 0 0 1 .158.14c.055.38-.023.774-.228 1.103a1.958 1.958 0 0 1-1.972.923 2.06 2.06 0 0 1-.548-.158 1.42 1.42 0 0 1-.468-.347c-.066-.075-.051-.177.023-.242.055-.05.148-.05.209-.009v.014Zm13.14-.965a.188.188 0 0 1-.228-.148.227.227 0 0 1 .005-.097c.998-3.182 3.764-2.987 3.792-2.987.106.01.185.097.171.204a.19.19 0 0 1-.204.172c-.097-.005-2.497-.163-3.397 2.722a.173.173 0 0 1-.14.134Z" fill="#9A3C81"/><path d="M62.255 31.89a.16.16 0 0 1-.12-.023c-.51-.353-.752-.64-.78-.942-.042-.38.27-.7.617-1.076.794-.834.636-1.396.636-1.4-.028-.08.023-.163.098-.19a.148.148 0 0 1 .19.092c.01.033.232.729-.7 1.702-.354.367-.562.608-.54.835.024.2.233.436.65.724.07.046.084.139.038.208-.014.042-.051.06-.089.07Z" fill="#5B2448"/><path d="M65.365 19.183c.014.098.107.163.2.163.013 0 .032 0 .046-.005a.205.205 0 0 0 .158-.25 5.076 5.076 0 0 0-.65-1.47 4.2 4.2 0 0 0-1.081-1.16 7.72 7.72 0 0 0-.172.394c1.146.863 1.494 2.31 1.499 2.328Z" fill="#9A3C81"/><path d="M85.377 93.01c-2.26.162-4.237.384-6.089.755-.185-1.998-.775-4.442-1.424-6.344-.284-.825-.571-1.549-.845-2.087a1.875 1.875 0 0 0-.056-.102 41.902 41.902 0 0 0-.353-1.146c-.013-.036-.023-.078-.037-.115a40.802 40.802 0 0 0-.984-2.69l1.235-.5h.005l.306-.126.339-.14 1.267-.514 2.325-.946.404-.162c.014.037.032.074.046.11a2.9 2.9 0 0 1 .065.168c.088.218.172.436.255.654l.042.106.056.14c.009.027.023.055.032.088a45.394 45.394 0 0 1 1.114 3.362c.01.032.014.065.028.093.014.032.032.06.046.092.38.807.868 2.338 1.286 4.021.45 1.828.835 3.835.938 5.282Z" fill="#5B2448"/><path d="M84.82 80.042c.47 2.068-1.684 4.452-4.859 5.166-3.174.714-6.177-.5-6.646-2.569-.469-2.068 1.727-4.327 4.906-5.046 3.179-.719 6.13.38 6.6 2.449Z" fill="#5B2448"/><path d="M80.04 85.617c1.267-.287 2.404-.849 3.281-1.614-.046-.125-.088-.25-.134-.38-.845.774-1.968 1.345-3.23 1.628a7.36 7.36 0 0 1-2.873.093c.05.134.097.269.148.398.334.047.678.07 1.03.07.58.01 1.18-.056 1.778-.195Zm-.388-1.739c2.868-.647 4.87-2.603 4.47-4.37-.399-1.766-3.047-2.674-5.915-2.027-2.868.647-4.87 2.603-4.47 4.37.399 1.766 3.047 2.674 5.915 2.027Z" fill="#fff"/><path d="M79.428 82.222a.207.207 0 0 1-.2-.149l-.613-1.943a.208.208 0 0 1 .135-.26l3.021-.978a.208.208 0 0 1 .265.134.208.208 0 0 1-.135.265l-2.826.913.547 1.744a.208.208 0 0 1-.134.26.128.128 0 0 1-.06.014Z" fill="#5B2448"/></g><defs><clipPath id="a"><path fill="#fff" transform="translate(3.6 14.256)" d="M0 0h50.016v40.752H0z"/></clipPath><clipPath id="b"><path fill="#fff" transform="translate(6.576 14.207)" d="M0 0h109.92v85.68H0z"/></clipPath></defs></svg>