<?xml version="1.0" encoding="UTF-8" standalone="no"?>
<!DOCTYPE svg PUBLIC "-//W3C//DTD SVG 1.1//EN"
 "http://www.w3.org/Graphics/SVG/1.1/DTD/svg11.dtd">
<!-- Generated by graphviz version 5.0.0 (20220707.1540)
 -->
<!-- Title: dependencies Pages: 1 -->
<svg width="544pt" height="174pt"
 viewBox="0.00 0.00 544.00 173.80" xmlns="http://www.w3.org/2000/svg" xmlns:xlink="http://www.w3.org/1999/xlink">
<g id="graph0" class="graph" transform="scale(1 1) rotate(0) translate(4 169.8)">
<title>dependencies</title>
<polygon fill="white" stroke="transparent" points="-4,4 -4,-169.8 540,-169.8 540,4 -4,4"/>
<text text-anchor="middle" x="268" y="-8.2" font-family="sans-serif" font-size="14.00">dependencies</text>
<g id="clust1" class="cluster">
<title>cluster_StopWordsModule</title>
<polygon fill="none" stroke="black" stroke-dasharray="1,5" points="8,-32.8 8,-157.8 528,-157.8 528,-32.8 8,-32.8"/>
</g>
<g id="clust4" class="cluster">
<title>cluster_StopWordsModule_imports</title>
<polygon fill="none" stroke="black" points="184,-40.8 184,-92.8 520,-92.8 520,-40.8 184,-40.8"/>
</g>
<g id="clust2" class="cluster">
<title>cluster_StopWordsModule_declarations</title>
<polygon fill="none" stroke="black" points="16,-40.8 16,-92.8 176,-92.8 176,-40.8 16,-40.8"/>
</g>
<!-- StopWordsComponent -->
<g id="node1" class="node">
<title>StopWordsComponent</title>
<polygon fill="#ffffb3" stroke="black" points="168.33,-84.8 23.67,-84.8 23.67,-48.8 168.33,-48.8 168.33,-84.8"/>
<text text-anchor="middle" x="96" y="-62.6" font-family="Times,serif" font-size="14.00">StopWordsComponent</text>
</g>
<!-- StopWordsModule -->
<g id="node2" class="node">
<title>StopWordsModule</title>
<polygon fill="#8dd3c7" stroke="black" points="337.05,-149.8 334.05,-153.8 313.05,-153.8 310.05,-149.8 214.95,-149.8 214.95,-113.8 337.05,-113.8 337.05,-149.8"/>
<text text-anchor="middle" x="276" y="-127.6" font-family="Times,serif" font-size="14.00">StopWordsModule</text>
</g>
<!-- StopWordsComponent&#45;&gt;StopWordsModule -->
<g id="edge1" class="edge">
<title>StopWordsComponent&#45;&gt;StopWordsModule</title>
<path fill="none" stroke="black" d="M96,-84.91C96,-104.14 96,-131.8 96,-131.8 96,-131.8 204.81,-131.8 204.81,-131.8"/>
<polygon fill="black" stroke="black" points="204.81,-135.3 214.81,-131.8 204.81,-128.3 204.81,-135.3"/>
</g>
<!-- FindlySharedModule -->
<g id="node3" class="node">
<title>FindlySharedModule</title>
<polygon fill="#8dd3c7" stroke="black" points="512.49,-84.8 509.49,-88.8 488.49,-88.8 485.49,-84.8 377.51,-84.8 377.51,-48.8 512.49,-48.8 512.49,-84.8"/>
<text text-anchor="middle" x="445" y="-62.6" font-family="Times,serif" font-size="14.00">FindlySharedModule</text>
</g>
<!-- FindlySharedModule&#45;&gt;StopWordsModule -->
<g id="edge2" class="edge">
<title>FindlySharedModule&#45;&gt;StopWordsModule</title>
<path fill="none" stroke="black" d="M445,-84.91C445,-104.14 445,-131.8 445,-131.8 445,-131.8 347.49,-131.8 347.49,-131.8"/>
<polygon fill="black" stroke="black" points="347.49,-128.3 337.49,-131.8 347.49,-135.3 347.49,-128.3"/>
</g>
<!-- StopWordsRoutingModule -->
<g id="node4" class="node">
<title>StopWordsRoutingModule</title>
<polygon fill="#8dd3c7" stroke="black" points="359.67,-84.8 356.67,-88.8 335.67,-88.8 332.67,-84.8 192.33,-84.8 192.33,-48.8 359.67,-48.8 359.67,-84.8"/>
<text text-anchor="middle" x="276" y="-62.6" font-family="Times,serif" font-size="14.00">StopWordsRoutingModule</text>
</g>
<!-- StopWordsRoutingModule&#45;&gt;StopWordsModule -->
<g id="edge3" class="edge">
<title>StopWordsRoutingModule&#45;&gt;StopWordsModule</title>
<path fill="none" stroke="black" d="M276,-84.91C276,-84.91 276,-103.79 276,-103.79"/>
<polygon fill="black" stroke="black" points="272.5,-103.79 276,-113.79 279.5,-103.79 272.5,-103.79"/>
</g>
</g>
</svg>
