<svg width="120" height="120" fill="none" xmlns="http://www.w3.org/2000/svg"><g opacity=".4"><path d="M40 90h70v5c0 5.523-4.478 10-10 10H40V90Z" fill="#00B3D7"/><path d="M80 15H20c-5.523 0-10 4.477-10 10v5h60v-5c0-5.523 4.478-10 10-10Z" fill="#3DD9EB"/><path d="M100 105H35c-5.523 0-10-4.478-10-10V25c0-5.523 4.477-10 10-10h45c5.522 0 10 4.477 10 10v70c0 5.522 4.478 10 10 10Z" fill="#3DD9EB"/><path d="M25 95v-5h65v5c0 5.523 4.478 10 10 10H35c-5.523 0-10-4.477-10-10Z" fill="#3DD9EB"/><path d="M70 25v5H25V15h55c-5.522 0-10 4.477-10 10Zm7.5 20h-40v7.5h40V45Zm0 15h-40v7.5h40V60Zm0 15h-40v7.5h40V75Z" fill="#00B3D7"/></g></svg>