<?xml version="1.0" encoding="UTF-8" standalone="no"?>
<!DOCTYPE svg PUBLIC "-//W3C//DTD SVG 1.1//EN"
 "http://www.w3.org/Graphics/SVG/1.1/DTD/svg11.dtd">
<!-- Generated by graphviz version 5.0.0 (20220707.1540)
 -->
<!-- Title: dependencies Pages: 1 -->
<svg width="1089pt" height="174pt"
 viewBox="0.00 0.00 1089.00 173.80" xmlns="http://www.w3.org/2000/svg" xmlns:xlink="http://www.w3.org/1999/xlink">
<g id="graph0" class="graph" transform="scale(1 1) rotate(0) translate(4 169.8)">
<title>dependencies</title>
<polygon fill="white" stroke="transparent" points="-4,4 -4,-169.8 1085,-169.8 1085,4 -4,4"/>
<text text-anchor="middle" x="540.5" y="-8.2" font-family="sans-serif" font-size="14.00">dependencies</text>
<g id="clust1" class="cluster">
<title>cluster_CustomConfigurationsModule</title>
<polygon fill="none" stroke="black" stroke-dasharray="1,5" points="8,-32.8 8,-157.8 1073,-157.8 1073,-32.8 8,-32.8"/>
</g>
<g id="clust2" class="cluster">
<title>cluster_CustomConfigurationsModule_declarations</title>
<polygon fill="none" stroke="black" points="425,-40.8 425,-92.8 1065,-92.8 1065,-40.8 425,-40.8"/>
</g>
<g id="clust6" class="cluster">
<title>cluster_CustomConfigurationsModule_imports</title>
<polygon fill="none" stroke="black" points="16,-40.8 16,-92.8 417,-92.8 417,-40.8 16,-40.8"/>
</g>
<!-- CustomConfigFormComponent -->
<g id="node1" class="node">
<title>CustomConfigFormComponent</title>
<polygon fill="#ffffb3" stroke="black" points="1057.12,-84.8 862.88,-84.8 862.88,-48.8 1057.12,-48.8 1057.12,-84.8"/>
<text text-anchor="middle" x="960" y="-62.6" font-family="Times,serif" font-size="14.00">CustomConfigFormComponent</text>
</g>
<!-- CustomConfigurationsModule -->
<g id="node4" class="node">
<title>CustomConfigurationsModule</title>
<polygon fill="#8dd3c7" stroke="black" points="630.61,-149.8 627.61,-153.8 606.61,-153.8 603.61,-149.8 443.39,-149.8 443.39,-113.8 630.61,-113.8 630.61,-149.8"/>
<text text-anchor="middle" x="537" y="-127.6" font-family="Times,serif" font-size="14.00">CustomConfigurationsModule</text>
</g>
<!-- CustomConfigFormComponent&#45;&gt;CustomConfigurationsModule -->
<g id="edge1" class="edge">
<title>CustomConfigFormComponent&#45;&gt;CustomConfigurationsModule</title>
<path fill="none" stroke="black" d="M960,-85.08C960,-106.12 960,-137.8 960,-137.8 960,-137.8 640.61,-137.8 640.61,-137.8"/>
<polygon fill="black" stroke="black" points="640.62,-134.3 630.61,-137.8 640.61,-141.3 640.62,-134.3"/>
</g>
<!-- CustomConfigListComponent -->
<g id="node2" class="node">
<title>CustomConfigListComponent</title>
<polygon fill="#ffffb3" stroke="black" points="844.57,-84.8 659.43,-84.8 659.43,-48.8 844.57,-48.8 844.57,-84.8"/>
<text text-anchor="middle" x="752" y="-62.6" font-family="Times,serif" font-size="14.00">CustomConfigListComponent</text>
</g>
<!-- CustomConfigListComponent&#45;&gt;CustomConfigurationsModule -->
<g id="edge2" class="edge">
<title>CustomConfigListComponent&#45;&gt;CustomConfigurationsModule</title>
<path fill="none" stroke="black" d="M752,-84.82C752,-102.17 752,-125.8 752,-125.8 752,-125.8 640.68,-125.8 640.68,-125.8"/>
<polygon fill="black" stroke="black" points="640.68,-122.3 630.68,-125.8 640.68,-129.3 640.68,-122.3"/>
</g>
<!-- CustomConfigurationsComponent -->
<g id="node3" class="node">
<title>CustomConfigurationsComponent</title>
<polygon fill="#ffffb3" stroke="black" points="641.39,-84.8 432.61,-84.8 432.61,-48.8 641.39,-48.8 641.39,-84.8"/>
<text text-anchor="middle" x="537" y="-62.6" font-family="Times,serif" font-size="14.00">CustomConfigurationsComponent</text>
</g>
<!-- CustomConfigurationsComponent&#45;&gt;CustomConfigurationsModule -->
<g id="edge3" class="edge">
<title>CustomConfigurationsComponent&#45;&gt;CustomConfigurationsModule</title>
<path fill="none" stroke="black" d="M537,-84.91C537,-84.91 537,-103.79 537,-103.79"/>
<polygon fill="black" stroke="black" points="533.5,-103.79 537,-113.79 540.5,-103.79 533.5,-103.79"/>
</g>
<!-- CustomConfigurationsRoutingModule -->
<g id="node5" class="node">
<title>CustomConfigurationsRoutingModule</title>
<polygon fill="#8dd3c7" stroke="black" points="409.23,-84.8 406.23,-88.8 385.23,-88.8 382.23,-84.8 176.77,-84.8 176.77,-48.8 409.23,-48.8 409.23,-84.8"/>
<text text-anchor="middle" x="293" y="-62.6" font-family="Times,serif" font-size="14.00">CustomConfigurationsRoutingModule</text>
</g>
<!-- CustomConfigurationsRoutingModule&#45;&gt;CustomConfigurationsModule -->
<g id="edge4" class="edge">
<title>CustomConfigurationsRoutingModule&#45;&gt;CustomConfigurationsModule</title>
<path fill="none" stroke="black" d="M293,-84.82C293,-102.17 293,-125.8 293,-125.8 293,-125.8 433.36,-125.8 433.36,-125.8"/>
<polygon fill="black" stroke="black" points="433.36,-129.3 443.36,-125.8 433.36,-122.3 433.36,-129.3"/>
</g>
<!-- FindlySharedModule -->
<g id="node6" class="node">
<title>FindlySharedModule</title>
<polygon fill="#8dd3c7" stroke="black" points="158.49,-84.8 155.49,-88.8 134.49,-88.8 131.49,-84.8 23.51,-84.8 23.51,-48.8 158.49,-48.8 158.49,-84.8"/>
<text text-anchor="middle" x="91" y="-62.6" font-family="Times,serif" font-size="14.00">FindlySharedModule</text>
</g>
<!-- FindlySharedModule&#45;&gt;CustomConfigurationsModule -->
<g id="edge5" class="edge">
<title>FindlySharedModule&#45;&gt;CustomConfigurationsModule</title>
<path fill="none" stroke="black" d="M91,-85.08C91,-106.12 91,-137.8 91,-137.8 91,-137.8 433.23,-137.8 433.23,-137.8"/>
<polygon fill="black" stroke="black" points="433.23,-141.3 443.23,-137.8 433.23,-134.3 433.23,-141.3"/>
</g>
</g>
</svg>
