<svg width="22" height="22" viewBox="0 0 22 22" fill="none" xmlns="http://www.w3.org/2000/svg">
<path d="M7.54337 8.71153C7.54337 5.72277 10.5086 4.36155 12.6919 5.44195C14.0711 6.12442 14.912 7.75982 14.6352 9.09867C14.4296 10.0934 13.9994 10.6753 13.1315 11.385L12.7966 11.6506C11.9491 12.3154 11.7111 12.66 11.7111 13.4584C11.7111 13.8452 11.3975 14.1589 11.0106 14.1589C10.6237 14.1589 10.3101 13.8452 10.3101 13.4584C10.3101 12.2018 10.7314 11.5256 11.7555 10.6893L12.086 10.4275C12.8389 9.83541 13.1263 9.47759 13.2632 8.81507C13.4084 8.11263 12.8891 7.10273 12.0705 6.69765C10.7427 6.0406 8.94441 6.86615 8.94441 8.71153C8.94441 9.09841 8.63078 9.41204 8.24389 9.41204C7.85701 9.41204 7.54337 9.09841 7.54337 8.71153Z" fill="#202124"/>
<path d="M11.9216 16.0721C11.9216 16.5437 11.5394 16.9259 11.0679 16.9259C10.5963 16.9259 10.2141 16.5437 10.2141 16.0721C10.2141 15.6006 10.5963 15.2184 11.0679 15.2184C11.5394 15.2184 11.9216 15.6006 11.9216 16.0721Z" fill="#202124"/>
<path fill-rule="evenodd" clip-rule="evenodd" d="M11.0002 0.333313C5.10913 0.333313 0.333496 5.10894 0.333496 11C0.333496 16.891 5.10913 21.6666 11.0002 21.6666C16.8912 21.6666 21.6668 16.891 21.6668 11C21.6668 5.10894 16.8912 0.333313 11.0002 0.333313ZM11.0002 1.91356C16.0185 1.91356 20.0866 5.98169 20.0866 11C20.0866 16.0183 16.0185 20.0864 11.0002 20.0864C5.98187 20.0864 1.91374 16.0183 1.91374 11C1.91374 5.98169 5.98187 1.91356 11.0002 1.91356Z" fill="#202124"/>
</svg>
