<svg width="16" height="22" viewBox="0 0 16 22" fill="none" xmlns="http://www.w3.org/2000/svg">
<path d="M8 0.5C7.17969 0.5 6.5 1.17969 6.5 2V3.71094C3.92188 4.38477 2 6.7168 2 9.5V15.4766C2 15.4766 1.97656 15.8926 1.77734 16.2793C1.6547 16.521 1.51651 16.7382 1.23291 16.8695C0.857035 17.0436 0.5 17.3358 0.5 17.75C0.5 18.1642 0.835786 18.5 1.25 18.5H14.75C15.1642 18.5 15.5 18.1642 15.5 17.75C15.5 17.3358 15.1469 17.0406 14.7633 16.8842C14.4492 16.7562 14.3129 16.5361 14.1934 16.2969C14.0059 15.916 14 15.5059 14 15.5059V9.5C14 6.7168 12.0781 4.38477 9.5 3.71094V2C9.5 1.17969 8.82031 0.5 8 0.5ZM8 18.5C7.17383 18.5 6.5 19.1738 6.5 20C6.5 20.8262 7.17383 21.5 8 21.5C8.82617 21.5 9.5 20.8262 9.5 20C9.5 19.1738 8.82617 18.5 8 18.5ZM8 5C10.4961 5 12.5 7.00391 12.5 9.5V15.4941C12.5 15.4941 12.4824 16.209 12.8516 16.9531C12.8574 16.9707 12.8691 16.9824 12.875 17H3.08984C3.0957 16.9883 3.10742 16.9766 3.11328 16.9707C3.48828 16.2324 3.5 15.5234 3.5 15.5234V9.5C3.5 7.00391 5.50391 5 8 5Z" fill="black"/>
</svg>
