<svg width="20" height="20" viewBox="0 0 20 20" fill="none" xmlns="http://www.w3.org/2000/svg">
<path fill-rule="evenodd" clip-rule="evenodd" d="M8.94659 0.700012C4.39223 0.700012 0.700195 4.40191 0.700195 8.96844C0.700195 13.535 4.39223 17.2369 8.94659 17.2369C10.9383 17.2369 12.765 16.5289 14.1902 15.3503L18.0135 19.1367L18.0705 19.1881C18.3843 19.4446 18.8472 19.4245 19.1375 19.1298C19.446 18.8166 19.4429 18.312 19.1306 18.0027L15.314 14.2229C16.488 12.7944 17.193 10.964 17.193 8.96844C17.193 4.40191 13.501 0.700012 8.94659 0.700012ZM8.94659 2.29392C12.623 2.29392 15.6033 5.2822 15.6033 8.96844C15.6033 12.6547 12.623 15.6429 8.94659 15.6429C5.27018 15.6429 2.28986 12.6547 2.28986 8.96844C2.28986 5.2822 5.27018 2.29392 8.94659 2.29392Z" fill="#202124"/>
</svg>
