<svg width="16" height="16" viewBox="0 0 16 16" fill="none" xmlns="http://www.w3.org/2000/svg">
<path fill-rule="evenodd" clip-rule="evenodd" d="M3.65096 2C2.74379 2 2 2.67578 2 3.5V12.5C2 13.3242 2.74379 14 3.65096 14H12.349C13.2562 14 14 13.3242 14 12.5V3.5C14 2.67578 13.2562 2 12.349 2H3.65096ZM3.65096 3H12.349C12.6586 3 12.8994 3.21875 12.8994 3.5V6H8.0949C7.81876 6 7.5949 6.22386 7.5949 6.5C7.5949 6.77614 7.81876 7 8.0949 7H12.8994V10H8.0949C7.81876 10 7.5949 10.2239 7.5949 10.5C7.5949 10.7761 7.81876 11 8.0949 11H12.8994V12.5C12.8994 12.7812 12.6586 13 12.349 13H3.65096C3.3414 13 3.10064 12.7812 3.10064 12.5V11H5.99427C6.27041 11 6.49427 10.7761 6.49427 10.5C6.49427 10.2239 6.27041 10 5.99427 10H3.10064V7H5.99427C6.27041 7 6.49427 6.77614 6.49427 6.5C6.49427 6.22386 6.27041 6 5.99427 6H3.10064V3.5C3.10064 3.21875 3.3414 3 3.65096 3Z" fill="#202124"/>
</svg>
