<svg width="33" height="33" fill="none" xmlns="http://www.w3.org/2000/svg"><path d="M27.5 30.938h-22V2.063h15.125L27.5 8.936v22Z" fill="#85B7FE"/><path d="M26.469 9.625h-6.532V3.094l6.532 6.531Z" fill="#E7F1FF"/><path d="m10.902 25.104-1.179-.708 4.577-7.63 4.125 4.125 3.673-6.12 1.178.708-4.577 7.63-4.125-4.125-3.672 6.12Z" fill="#07377F"/><path d="M14.438 16.5a1.375 1.375 0 1 0 0 2.75 1.375 1.375 0 0 0 0-2.75Zm-4.126 6.875a1.375 1.375 0 1 0 0 2.75 1.375 1.375 0 0 0 0-2.75Zm8.25-2.75a1.375 1.375 0 1 0 0 2.75 1.375 1.375 0 0 0 0-2.75Zm4.125-6.875a1.375 1.375 0 1 0 0 2.75 1.375 1.375 0 0 0 0-2.75Z" fill="#FFDA2D"/></svg>