<svg width="36" height="36" fill="none" xmlns="http://www.w3.org/2000/svg"><path d="M31.5 27.75a3.75 3.75 0 0 1-3.75 3.75H8.25a3.75 3.75 0 0 1-3.75-3.75V8.25A3.75 3.75 0 0 1 8.25 4.5h19.5a3.75 3.75 0 0 1 3.75 3.75v19.5Z" fill="#85B7FE"/><path d="M27.75 13.5H8.25a.75.75 0 0 1-.75-.75v-4.5a.75.75 0 0 1 .75-.75h19.5a.75.75 0 0 1 .75.75v4.5a.75.75 0 0 1-.75.75Zm0 7.5H8.25a.75.75 0 0 1-.75-.75v-4.5a.75.75 0 0 1 .75-.75h19.5a.75.75 0 0 1 .75.75v4.5a.75.75 0 0 1-.75.75Zm0 7.5H8.25a.75.75 0 0 1-.75-.75v-4.5a.75.75 0 0 1 .75-.75h19.5a.75.75 0 0 1 .75.75v4.5a.75.75 0 0 1-.75.75Z" fill="#E7F1FF"/><path d="M28.286 19.286a6.429 6.429 0 1 0 0 12.857 6.429 6.429 0 0 0 0-12.857Z" fill="#07377F"/><path d="M27 21.857h2.571v7.714H27v-7.714Z" fill="#fff"/><path d="M24.429 24.428h7.714V27h-7.714v-2.572Z" fill="#fff"/></svg>