<svg width="34" height="34" fill="none" xmlns="http://www.w3.org/2000/svg"><path d="M20.542 14.875h-7.084L5.104 24.893c-.034.035-.064.074-.098.108l-.17.19h.015a2.8 2.8 0 0 0-.601 1.726 2.833 2.833 0 0 0 2.833 2.833h19.834a2.833 2.833 0 0 0 2.833-2.833 2.8 2.8 0 0 0-.562-1.678h.01l-.127-.143c-.066-.076-.129-.155-.2-.224l-8.33-9.997Z" fill="#85B7FE"/><path d="M13.459 6.375h7.083v9.504h-7.084V6.375Z" fill="#85B7FE"/><path d="M21.958 5.667c0 .782-.634 1.416-1.416 1.416h-7.084a1.417 1.417 0 0 1 0-2.833h7.083c.782 0 1.417.635 1.417 1.417Z" fill="#85B7FE"/><path d="m28.05 26.082-.01-.013-.023-.027-.015-.015-.013-.015-.034-.041c-.022-.026-.043-.053-.067-.077l-.04-.04-.034-.037-4.672-5.63H10.854L6.158 25.84l-.025.029-.01.009c-.027.031-.048.056-.07.079l-.028.031-.055.073a1.402 1.402 0 0 0-.303.857c0 .781.635 1.416 1.416 1.416h19.834c.78 0 1.416-.635 1.416-1.416 0-.374-.154-.66-.282-.835Z" fill="#FFDA2D"/><path d="M20.541 22.667a2.125 2.125 0 1 0 0 4.25 2.125 2.125 0 0 0 0-4.25Zm-4.958-1.417a1.417 1.417 0 1 0 0 2.834 1.417 1.417 0 0 0 0-2.834Z" fill="#FFFBEA"/><path d="M17.709 14.875a1.417 1.417 0 1 0 0 2.834 1.417 1.417 0 0 0 0-2.834Zm-1.063-4.25a1.062 1.062 0 1 0 0 2.125 1.062 1.062 0 0 0 0-2.125Z" fill="#fff"/></svg>