<svg width="40" height="40" fill="none" xmlns="http://www.w3.org/2000/svg"><path d="M29.167 34.166H10.833v-30h18.334v30Z" fill="#85B7FE"/><path d="M30.833 34.166H9.167v-27.5h21.666v27.5Z" fill="#0D6EFD"/><path d="M32.5 34.166h-25v-25h25v25Z" fill="#85B7FE"/><path d="M10 13.334h6.667V15H10v-1.666Zm8.333 0h5.834V15h-5.834v-1.666ZM10 16.666h10v1.666H10v-1.666Z" fill="#07377F"/><path d="M23.333 24.166v1.667a3.333 3.333 0 0 1-6.666 0v-1.666H7.5v10h25v-10h-9.167Z" fill="#85B7FE"/><path d="M20 30.834a5 5 0 0 1-5-5H5.833a.834.834 0 0 0-.833.833v6.666a2.5 2.5 0 0 0 2.5 2.5h25a2.5 2.5 0 0 0 2.5-2.5v-6.666a.834.834 0 0 0-.833-.834H25a5 5 0 0 1-5 5Z" fill="#FFDA2D"/></svg>