<svg width="706" height="234" fill="none" xmlns="http://www.w3.org/2000/svg"><path d="M704.64 233.892H7.36c-.8 0-1.36-.394-1.36-.946 0-.552.56-.946 1.36-.946h697.28c.8 0 1.36.394 1.36.946 0 .552-.72.946-1.36.946Z" fill="#E7F1FF"/><path d="M132.964 112.131c1.652-.413 3.145-.256 4.749 0 25.227 4.027 27.859 10.18 27.657 11.222-.522 2.704-10.258-1.765-11.274-2.108 0 0 11.118 5.58 9.202 8.544-1.593 2.466-12.201-4.365-12.201-4.365 2.152 2.955 5.214 6.849 4.01 8.227-1.748 1.969-4.511-1.249-6.543-3.206-4.509-4.319-7.067-2.622-10.98-2.239-5.286.517-8.699-2.955-9.491-3.674l-3.235-2.952a2.364 2.364 0 0 1-.213-3.275c1.977-2.331 8.319-6.174 8.319-6.174Z" fill="#FFF1ED"/><path d="M153.827 134.885h.073a2.282 2.282 0 0 0 1.671-.822c1.182-1.354-.289-3.875-2.179-6.54a55.36 55.36 0 0 0 2.935 1.564c4.227 2.076 6.607 2.406 7.492 1.039a2.079 2.079 0 0 0 .234-1.71c-.378-1.385-2.048-2.921-3.903-4.258 2.175.648 4.033.925 5.03.387a1.513 1.513 0 0 0 .799-1.075c.095-.49-.134-1.175-.626-1.878-1.672-2.387-7.472-6.869-27.542-10.073-1.53-.244-3.175-.444-4.996.011a.612.612 0 0 0-.171.071c-.262.159-6.451 3.922-8.47 6.302a2.97 2.97 0 0 0 .268 4.133l3.236 2.953c.041.036.086.079.139.129 3.013 2.801 6.321 4.048 9.828 3.704a29.114 29.114 0 0 0 2.218-.328c2.723-.479 4.876-.857 8.274 2.398.227.218.464.454.708.696 1.557 1.547 3.319 3.297 4.982 3.297Zm-2.729-10.081a.615.615 0 0 0-.553.338.628.628 0 0 0-.065.33.61.61 0 0 0 .117.315c.18.248.366.501.555.759 1.491 2.03 4.266 5.808 3.49 6.697a1.061 1.061 0 0 1-.78.403c-1.154.027-2.811-1.613-4.144-2.937-.248-.247-.49-.487-.723-.71-3.852-3.691-6.521-3.222-9.347-2.725-.678.12-1.38.243-2.124.316-4.734.461-7.842-2.429-8.864-3.379-.057-.053-.106-.099-.149-.137l-3.235-2.952a1.738 1.738 0 0 1-.158-2.417c1.772-2.089 7.349-5.542 8.087-5.995 1.561-.37 2.977-.196 4.41.033 13.045 2.082 19.691 4.711 22.968 6.55 3.576 2.006 4.205 3.627 4.178 3.952a.28.28 0 0 1-.169.21c-.994.537-4.152-.283-9.388-2.435-.452-.186-.751-.31-.91-.362a.62.62 0 0 0-.475 1.14c2.303 1.155 8.417 4.657 9.039 6.943a.824.824 0 0 1-.079.711c-.071.111-.843 1.006-5.897-1.474a62.162 62.162 0 0 1-5.448-3.075.62.62 0 0 0-.336-.099Z" fill="#202124"/><path d="M51.83 231.441c1.291-6.276-1.459-12.136-6.954-13.403-4.834-1.114-6.488-3.123-6.388-5.681l-24.502-14.568L.62 219.545l18.872 11.912 32.338-.016Z" fill="#3C4043"/><path d="m19.491 232.076 32.338-.015a.62.62 0 0 0 .607-.496c.662-3.217.312-6.407-.985-8.983-1.347-2.673-3.633-4.501-6.436-5.148-5.425-1.251-5.97-3.483-5.908-5.053a.617.617 0 0 0-.303-.557l-24.501-14.569a.62.62 0 0 0-.844.208L.09 219.222a.617.617 0 0 0 .198.847l18.872 11.912a.623.623 0 0 0 .33.095Zm31.825-1.254-31.645.016-18.204-11.49 12.728-20.715 23.671 14.075c.064 2.94 2.316 4.883 6.87 5.934 4.898 1.129 7.613 6.208 6.58 12.18Z" fill="#202124"/><path d="M147.626 230.781c1.292-6.149-1.458-11.889-6.954-13.131-4.833-1.092-7.295-6.025-6.469-11.967l-30.843-1.703-3.824 27.483 48.09-.682Z" fill="#3C4043"/><path d="M99.536 232.082h.009l48.09-.681a.62.62 0 0 0 .597-.492c.664-3.158.314-6.288-.986-8.816a9.515 9.515 0 0 0-6.437-5.047c-4.384-.991-6.792-5.523-5.993-11.278a.618.618 0 0 0-.579-.703l-30.843-1.703a.622.622 0 0 0-.648.533l-3.825 27.483a.62.62 0 0 0 .614.704Zm47.578-1.913-46.866.665 3.646-26.204 29.615 1.635c-.616 6.112 2.154 10.888 7.027 11.989 4.894 1.105 7.608 6.074 6.578 11.915Z" fill="#202124"/><path d="M136.387 151.96h-.001l.001-.013c.09-2.264-.425-5.137-1.323-7.921-.896-2.781-2.158-5.423-3.528-7.234l-24.119-30.651-21.252 9.42-.996 16.26 14.73 17.346.117.138.001.182.251 34.196v.001l.097 14.392.049 6.959 35.175 1.798.798-54.873Z" fill="#fff" stroke="#202124"/><path d="M28.25 158.75 7.629 196.475l31.733 17.337 15.43-28.227 4.65-8.508 24.778-45.326 4.162-7.611-2.915-17.504L56.678 106l-23.983 44.622-.001.003-4.443 8.124v.001Z" fill="#fff" stroke="#202124"/><path d="M56.666 105.347v.003c0 .03.01.06.032.082.02.023.05.036.08.037h.002l7.864.299.384.015.084.375 2.635 11.687a10.446 10.446 0 0 0 11.857 8.01l31.083-5.033.002-.001a10.46 10.46 0 0 0 3.374-1.186 9.079 9.079 0 0 1-1.84-.468c-2.006-.741-4.469-2.449-6.311-6.355l-.004-.008-.003-.008c-1.767-4.111-.51-7.241 1.266-9.149.877-.942 1.884-1.591 2.716-1.92.41-.163.813-.261 1.155-.255.314.006.799.121.933.623 1.319 4.944 2.81 9.716 4.549 13.289.87 1.787 1.79 3.248 2.764 4.278.972 1.03 1.962 1.593 2.978 1.672 1.958.151 4.378-.907 6.687-2.456 2.286-1.534 4.362-3.482 5.604-4.955 1.333-1.581.874-3.981-.866-5.317l-.02-.015-.018-.018-33.298-31.364a23.65 23.65 0 0 0-8.84-5.264l-.002-.001a16.177 16.177 0 0 0-3.699-.777l-.121.313-.162.418c-.256.647-.632 1.523-1.187 2.38-1.113 1.716-2.992 3.416-6.076 3.005-2.004-.128-3.403-.73-4.353-1.61-.95-.882-1.4-1.998-1.596-3.057-.195-1.057-.142-2.083-.068-2.825.02-.199.044-.397.064-.563-2.527.396-6.902 1.733-11.025 5.105-.99.81-1.658 1.992-2.091 3.353-.433 1.36-.622 2.867-.677 4.284a27.64 27.64 0 0 0 .295 5.12l.013.079.003.019.001.004v.001l.004.02.002.022c.341 3.744-1.175 7.553-2.306 10.032l-.002.005a19.668 19.668 0 0 0-1.866 8.075Zm31.238-34.38-.002.003a.013.013 0 0 0 .002-.002Z" fill="#FFED96" stroke="#202124"/><path d="M96.11 102.772a.618.618 0 0 0 .61-.731 20.399 20.399 0 0 0-1.197-4.09 19.977 19.977 0 0 1-1.404-9.986c.046-.387.078-.746.098-1.095a.62.62 0 1 0-1.236-.071c-.02.324-.049.658-.092 1.021a21.213 21.213 0 0 0 1.489 10.605 19.157 19.157 0 0 1 1.123 3.839.621.621 0 0 0 .61.508Z" fill="#202124"/><path d="M105.137 112.97c1.811 6.089 10.323 8.772 14.26 3.253.054-.075.105-.149.155-.223 1.664-2.5 3.755-4.737 8.136-4.686 3.097.036 7.712.57 7.625-2.375-.062-2.042-5.444-2.89-9.39-3.658 5.595-1.395 12.92-3.234 12.427-5.824-.494-2.59-5.944-1.753-13.185.111 7.575-3.449 12.312-4.204 11.546-6.638-1.266-4.014-17.456 2.118-22.387 5.73 0 0-1.193.826-5.646 3.595-4.549 2.826-4.491 7.52-3.541 10.715Z" fill="#FFF1ED"/><path d="M113.603 119.846a7.56 7.56 0 0 0 6.298-3.265c.056-.077.112-.158.165-.238 1.785-2.68 3.759-4.463 7.614-4.41.369.004.758.015 1.159.027 2.39.07 5.102.148 6.383-1.133a2.484 2.484 0 0 0 .709-1.907c-.062-2.057-3.446-2.975-7.176-3.723 6.27-1.649 10.696-3.27 10.203-5.857a2.22 2.22 0 0 0-1.038-1.507c-1.108-.702-3.022-.826-6.176-.332 3.924-1.556 6.243-2.579 5.557-4.758-.154-.489-.56-1.144-1.62-1.49-4.478-1.466-17.481 3.799-21.724 6.906 0 0-1.235.85-5.607 3.57-5.486 3.408-4.49 9.119-3.808 11.416.995 3.343 4.043 5.986 7.586 6.577.487.082.98.124 1.475.124Zm13.936-9.152c-4.565 0-6.785 2.382-8.503 4.962a6.954 6.954 0 0 1-.142.204c-1.514 2.122-3.905 3.084-6.562 2.64-3.087-.514-5.74-2.808-6.602-5.707-.601-2.025-1.487-7.055 3.274-10.012 4.416-2.747 5.623-3.579 5.672-3.613 4.434-3.247 16.909-7.953 20.62-6.739.677.222.787.572.824.686.355 1.129-1.495 1.916-5.378 3.45-1.698.672-3.624 1.433-5.833 2.439a.618.618 0 0 0 .411 1.163c4.265-1.098 10.142-2.427 11.937-1.288a1.007 1.007 0 0 1 .484.693c.086.449-.261 1.393-3.546 2.667-2.454.952-5.763 1.778-8.423 2.441a.618.618 0 0 0-.323 1.001.622.622 0 0 0 .355.208c.318.061.647.123.98.188 2.942.561 7.867 1.5 7.908 2.88a1.263 1.263 0 0 1-.347.994c-.904.904-3.436.83-5.471.771a64.288 64.288 0 0 0-1.335-.029v.001Z" fill="#202124"/><path d="M85.865 104.43a.663.663 0 0 0 .1-.008l20.107-3.255c3.831-.621 5.177-.057 5.189-.051a.62.62 0 0 0 .721-.978.623.623 0 0 0-.194-.143c-.163-.077-1.72-.73-5.914-.05l-19.526 3.16-2.392-11.081a.62.62 0 0 0-1.21.261l2.515 11.656a.62.62 0 0 0 .604.489Zm-21.618 2.095a.617.617 0 0 0 .605-.749l-1.097-5.092a.618.618 0 0 0-.736-.476.623.623 0 0 0-.475.736l.926 4.301-7.056-.371a.627.627 0 0 0-.447.158.631.631 0 0 0-.204.428.617.617 0 0 0 .586.651l7.864.413.034.001Zm40.67 48.446a.615.615 0 0 0 .567-.371.613.613 0 0 0-.112-.668l-5.292-5.727a.622.622 0 0 0-.881-.041.62.62 0 0 0-.03.881l5.293 5.727a.623.623 0 0 0 .455.199Z" fill="#202124"/><path d="M94.108 56.407a4.808 4.808 0 1 1 4.808-4.807 4.808 4.808 0 0 1-4.808 4.807Z" fill="#fff"/><path d="M94.104 57.027a5.429 5.429 0 0 0 4.295-8.75 5.428 5.428 0 1 0-4.296 8.75Zm4.18-5.763a4.188 4.188 0 0 1-4.662 4.497 4.19 4.19 0 1 1 4.662-4.497Zm-24.288-3.407a9.793 9.793 0 0 1 5.833-9.396 9.8 9.8 0 0 1 10.874 2.025c.593.6 1.111 1.269 1.544 1.993l-12.1.116.327 10.055-6.478-4.793Z" fill="#202124"/><path d="M80.474 53.269a.62.62 0 0 0 .62-.64l-.308-9.422 11.467-.11a.62.62 0 0 0 .523-.94 11.092 11.092 0 0 0-1.636-2.11A10.337 10.337 0 0 0 83.784 37h-.013a10.432 10.432 0 0 0-9.738 6.761 10.424 10.424 0 0 0-.656 4.122.62.62 0 0 0 .25.47l6.479 4.794a.619.619 0 0 0 .368.122Zm10.614-11.4-10.948.106a.619.619 0 0 0-.613.64l.287 8.776-5.207-3.854a9.187 9.187 0 0 1 2.683-6.601 9.1 9.1 0 0 1 6.483-2.697h.011a9.106 9.106 0 0 1 7.303 3.63Z" fill="#202124"/><path d="M93.144 50.236a9.853 9.853 0 0 0-.898-7.758l-12.011.117.239 10.055a5.348 5.348 0 0 0-7.187-4.577 5.35 5.35 0 0 0 3.351 10.152l.046-.014-2.42 11.572a6.655 6.655 0 0 0 5.095 7.838 6.66 6.66 0 0 0 7.91-4.982l1.339-5.752A9.79 9.79 0 0 0 95.843 54.7a9.787 9.787 0 0 0-2.7-4.466Z" fill="#FFF1ED"/><path d="M80.765 78.393a7.32 7.32 0 0 0 7.107-5.611l1.254-5.385a10.408 10.408 0 0 0 7.364-12.685 10.404 10.404 0 0 0-2.651-4.663 10.48 10.48 0 0 0-1.058-7.883.63.63 0 0 0-.54-.307l-12.012.116a.62.62 0 0 0-.614.635l.16 6.708a5.976 5.976 0 0 0-9.322 7.479 5.974 5.974 0 0 0 5.43 2.215L73.66 69.657a7.254 7.254 0 0 0 7.106 8.736ZM91.885 43.1a9.268 9.268 0 0 1 .665 6.96.618.618 0 0 0 .17.626 9.168 9.168 0 0 1-4.251 15.597.618.618 0 0 0-.464.463L86.667 72.5a6.037 6.037 0 0 1-7.176 4.524 6.039 6.039 0 0 1-4.62-7.113l2.42-11.572a.62.62 0 0 0-.791-.718l-.046.014a4.754 4.754 0 0 1-3.621-.411 4.736 4.736 0 1 1 7.023-4.523.619.619 0 0 0 1.237-.065l-.225-9.427 11.016-.107Z" fill="#202124"/><path d="M87.69 53.59c.017 0 .034 0 .051-.003l2.763-.225a.62.62 0 0 0 .537-.811l-1.558-4.735a.62.62 0 0 0-1.177.387l1.313 3.988-1.979.162a.62.62 0 0 0 .05 1.236Zm-3.107-3.813a1.037 1.037 0 1 1 0-2.074 1.037 1.037 0 0 1 0 2.074Zm7.295.123a1.037 1.037 0 1 1 0-2.074 1.037 1.037 0 0 1 0 2.075Z" fill="#202124"/><path d="M91.852 56.432c-.212 4.595-5.289 4.063-5.41-.202l5.41.202Z" fill="#fff"/><path d="M89.275 60.28c1.507 0 3.074-1.177 3.195-3.82a.619.619 0 0 0-.595-.647l-5.41-.202a.62.62 0 0 0-.642.637c.075 2.627 1.78 4.016 3.426 4.03l.026.001Zm1.892-3.253c-.257 1.483-1.156 2.02-1.907 2.014-.918-.008-1.868-.751-2.13-2.165l4.037.151ZM74.464 54.97a.613.613 0 0 0 .266-.061l3.298-1.574a.619.619 0 0 0-.096-1.154l-4.825-1.385c-.078-.024-.161-.032-.243-.024a.62.62 0 0 0-.099 1.214l3.255.935-1.823.87a.62.62 0 0 0 .267 1.178Z" fill="#202124"/><rect x="150" y="1" width="420" height="183" rx="7" fill="#fff" stroke="#F1E9FB" stroke-width="2"/><path d="M135.62 111.923c2.26-.304 5.037.083 5.037.083 6.715-1.035 13.335-3.964 13.19-1.284-.067 1.164-2.719 2.972-7.209 5.143-3.235 1.561-5.793 3.978-8.955 4.245" fill="#FFF1ED"/><path d="M137.683 120.728c.017 0 .035 0 .052-.002 2.249-.19 4.147-1.355 6.155-2.59a34.397 34.397 0 0 1 3.018-1.715c6.669-3.223 7.508-4.777 7.559-5.665a1.52 1.52 0 0 0-.098-.722 1.521 1.521 0 0 0-.424-.591c-1.083-.894-3.476-.301-7.098.596-1.901.471-4.051 1.004-6.196 1.34-.516-.066-3.003-.354-5.114-.07a.619.619 0 1 0 .165 1.227c2.147-.289 4.844.078 4.871.082.059.008.12.007.179-.002 2.229-.343 4.441-.891 6.393-1.375 2.535-.628 5.41-1.34 6.01-.843.026.02.086.071.074.289-.012.221-.404 1.498-6.86 4.619a35.17 35.17 0 0 0-3.128 1.775c-1.878 1.156-3.654 2.245-5.61 2.41a.621.621 0 0 0-.566.643.619.619 0 0 0 .618.593v.001Z" fill="#202124"/></svg>