<svg width="35" height="35" fill="none" xmlns="http://www.w3.org/2000/svg"><path d="M4.375 16.042h26.25v2.916H4.375v-2.916Zm0 13.125h26.25V26.25H4.375v2.917Zm0-20.417h26.25V5.833H4.375V8.75Z" fill="#85B7FE"/><path d="M4.375 26.25h17.5v2.917h-17.5V26.25Zm0-17.5H24.79V5.833H4.375V8.75Zm0 10.209h8.02v-2.917h-8.02v2.916Z" fill="#0D6EFD"/><path d="M20.417 24.792h2.187c.365 0 .73.364.73.729v4.375c0 .364-.365.729-.73.729h-2.187c-.365 0-.73-.365-.73-.73v-4.374c0-.365.365-.73.73-.73Zm2.187-19.688V9.48c0 .438.365.73.73.73h2.187c.437 0 .729-.292.729-.73V5.104c0-.437-.292-.729-.73-.729h-2.187a.73.73 0 0 0-.729.73ZM10.208 15.313v4.374c0 .365.365.73.73.73h2.187c.365 0 .73-.365.73-.73v-4.375c0-.364-.365-.729-.73-.729h-2.188c-.364 0-.729.365-.729.73Z" fill="#07377F"/></svg>