<svg width="172" height="180" fill="none" xmlns="http://www.w3.org/2000/svg"><path d="M136.176 140.644c2.132 6.676 11.608 14.371 22.938 11.683 5.025-1.187 9.883 2.355 11.459 7.306l-26.164 10.551-20.731-8.085 5.767 14.112-7.14 2.893-11.404-28.187 25.275-10.273Z" fill="#3C4043"/><path d="M138.121 163.07a4.402 4.402 0 0 0 3.264-1.463 4.396 4.396 0 0 0 1.114-3.171c-.112-2.143-4.141-12.286-4.6-13.436a.551.551 0 0 0-.547-.349.558.558 0 0 0-.506.407c-.331 1.193-3.229 11.721-3.116 13.863a4.396 4.396 0 0 0 4.391 4.149Zm3.266-4.575a3.28 3.28 0 0 1-5.455 2.622 3.277 3.277 0 0 1-1.092-2.254c-.076-1.43 1.604-8.045 2.637-11.894 1.447 3.711 3.835 10.098 3.91 11.526Z" fill="#FFDA2D"/><path d="M129.391 160.457c.227 0 .453-.017.677-.052a4.329 4.329 0 0 0 2.866-1.741c1.28-1.735 4.603-12.128 4.977-13.308a.552.552 0 0 0-.201-.617.558.558 0 0 0-.649-.006c-1.011.711-9.92 7-11.197 8.728a4.393 4.393 0 0 0 3.527 6.996Zm6.947-13.846c-1.238 3.787-3.448 10.241-4.299 11.393l-.003.004a3.265 3.265 0 0 1-3.422 1.24 3.292 3.292 0 0 1-2.401-3.97c.103-.418.289-.81.545-1.155.853-1.154 6.342-5.195 9.58-7.512Z" fill="#FFDA2D"/><path d="M122.305 179.661a.551.551 0 0 0 .209-.04l7.14-2.893a.558.558 0 0 0 .306-.726l-5.277-12.912 19.524 7.615c.132.051.279.05.41-.003l26.164-10.551a.553.553 0 0 0 .322-.685c-1.75-5.498-7.072-8.871-12.117-7.679-11.173 2.651-20.266-5.005-22.28-11.311a.564.564 0 0 0-.74-.346l-25.274 10.273a.559.559 0 0 0-.306.724l11.404 28.186a.55.55 0 0 0 .515.348Zm6.414-3.755-6.107 2.475-10.987-27.156 24.217-9.844c2.486 6.589 11.912 14.216 23.399 11.488 4.333-1.023 8.911 1.79 10.633 6.447l-25.47 10.271-20.524-8.005a.56.56 0 0 0-.748.411.558.558 0 0 0 .031.318l5.556 13.595Z" fill="#202124"/><path d="m49.617 179.126.037-30.412-27.277-.092c.52 6.991-1.205 17.672-12.72 19.415-5.1.779-8.29 5.878-7.9 11.07l29.039.019 11.181-15.243-.074 15.243h7.714Z" fill="#3C4043"/><path d="M30.795 179.68a.55.55 0 0 0 .449-.227l10.168-13.862-.066 13.53a.555.555 0 0 0 .557.559h7.714a.553.553 0 0 0 .556-.556l.037-30.412a.554.554 0 0 0-.554-.556l-27.277-.093a.59.59 0 0 0-.408.178.555.555 0 0 0-.149.42c.375 5.046-.068 16.98-12.249 18.824-5.126.783-8.802 5.906-8.37 11.662a.555.555 0 0 0 .554.515l29.038.018Zm18.265-1.112h-6.599l.072-14.684a.558.558 0 0 0-.726-.533.556.556 0 0 0-.28.201l-11.014 15.016-28.229-.019c-.144-4.968 3.053-9.292 7.455-9.965 5.315-.804 9.114-3.512 11.291-8.048 1.95-4.062 2.083-8.651 1.94-11.358l26.126.088-.036 29.302Z" fill="#202124"/><path d="M5.139 165.524c3.365 0 12.091-1.268 13.185-1.428a.557.557 0 0 0 .188-1.037c-1.083-.599-10.643-5.858-12.77-6.243a4.398 4.398 0 0 0-4.478 1.946 4.402 4.402 0 0 0-.6 3.31 4.402 4.402 0 0 0 1.917 2.764 4.386 4.386 0 0 0 1.596.629c.318.046.64.066.962.059Zm11.369-2.294c-3.95.548-10.727 1.394-12.133 1.139a3.276 3.276 0 0 1-2.638-2.533 3.28 3.28 0 0 1 2.523-3.909c.423-.09.86-.096 1.285-.017 1.418.257 7.46 3.423 10.963 5.32Z" fill="#FFDA2D"/><path d="M18.243 164.101a.551.551 0 0 0 .46-.244.556.556 0 0 0 .057-.518c-.459-1.15-4.52-11.285-5.927-12.916A4.386 4.386 0 0 0 8.13 149.1a4.395 4.395 0 0 0-2.816 5.537c.178.545.463 1.05.838 1.484 1.39 1.628 10.743 7.263 11.805 7.9a.55.55 0 0 0 .287.08Zm-8.76-14.1a3.302 3.302 0 0 1 2.509 1.149c.935 1.085 3.603 7.364 5.109 11.052-3.402-2.079-9.18-5.719-10.103-6.803l-.002-.003a3.218 3.218 0 0 1-.774-2.365 3.27 3.27 0 0 1 3.26-3.03Z" fill="#FFDA2D"/><path d="M17.565 95.27c.8-4.8 19.333-26.667 28.5-37l32-5 6.5 8.5-1.5 6 7 2 3 3.5c-.167.667-.2 2.3 1 3.5 1.5 1.5 3.5 8.5 4 11 .4 2 1.833 2.5 2.5 2.5 0 2 11 10.5 14.5 15s.5 11 7 13c5.2 1.6 13.833 14 17.5 20l-28 18c-3.833-5.167-11.6-16.2-12-19-.5-3.5-5-9.5-8.5-11.5s-7.5-8.5-7.5-11-5-8.5-8.5-10.5-11.5-14-11.5-13c0 .8-8.667 11.333-13 16.5v43h-34c0-16.5.2-50.7 1-55.5Z" fill="#fff" stroke="#3C4043"/><path d="M102.855 74.175c.834 4.85 4.016 24.912.592 25.026L84.874 69.223l17.981 4.952Z" fill="#FCEAED"/><path d="M103.447 99.756h.019a1.454 1.454 0 0 0 1.096-.576c.394-.485 1.594-1.957.62-12.094-.536-5.578-1.497-11.364-1.778-13.005a.557.557 0 0 0-.401-.443l-17.982-4.952a.556.556 0 0 0-.62.83l18.574 29.977a.555.555 0 0 0 .472.263Zm-1.08-25.14c1.793 10.56 2.892 21.947 1.333 23.86l-.027.032-17.58-28.372 16.274 4.48Zm-51.883 32.65.416.369-5.637 6.36-.416-.369 5.637-6.36Zm48.902 28.854c.016 0 .033 0 .05-.002a.557.557 0 0 0 .505-.602l-.816-9.346a.555.555 0 0 0-.978-.306.555.555 0 0 0-.13.402l.816 9.346a.557.557 0 0 0 .553.508Zm18.655-16.522a.554.554 0 0 0 .548-.653l-1.539-8.734a.559.559 0 0 0-.644-.451.559.559 0 0 0-.452.644l1.54 8.734a.554.554 0 0 0 .547.46Zm-34.825-5.655a.56.56 0 0 0 .538-.411.555.555 0 0 0 .011-.24l-1.687-9.791a.558.558 0 0 0-1.007-.232.56.56 0 0 0-.09.421l1.688 9.791a.554.554 0 0 0 .547.462Zm-19.6-22.513a.557.557 0 0 0 .447-.886l-4.023-5.452a.556.556 0 0 0-.896.66l4.024 5.453a.555.555 0 0 0 .448.226Z" fill="#202124"/><path d="M45.933 59.21 30.628 75.577a16.519 16.519 0 0 1-10.087 3.449 17.054 17.054 0 0 1-7.38-1.706 16.576 16.576 0 0 1-9.272-14.928V37.266h22.252v13.76l21.79-18.231a28.094 28.094 0 0 1 5.206-3.482l9.529-1.547c.342.037.683.068 1.025.082l38.477 1.555a11.132 11.132 0 0 1 10.494 9.087 11.128 11.128 0 0 1-.203 4.95l-8.474 31.043-21.491-5.841 4.802-17.561-10.354-.422c.515 1.29.86 2.64 1.027 4.02l-31.523 3.764" fill="#FFED96"/><path d="M20.54 79.58a16.973 16.973 0 0 0 10.427-3.564.54.54 0 0 0 .067-.06L46.34 59.587a.556.556 0 0 0 .108-.59.571.571 0 0 0 .064-.004l31.524-3.765a.556.556 0 0 0 .486-.62 16.674 16.674 0 0 0-.768-3.361l8.822.359-4.618 16.886a.556.556 0 0 0 .39.684l21.492 5.841a.556.556 0 0 0 .682-.39l8.475-31.042a11.69 11.69 0 0 0-5.786-13.38 11.681 11.681 0 0 0-5.021-1.36L63.713 27.29a14.275 14.275 0 0 1-.987-.079.55.55 0 0 0-.15.004l-9.528 1.547a.549.549 0 0 0-.163.053 28.741 28.741 0 0 0-5.312 3.551L26.697 49.833V37.264a.556.556 0 0 0-.556-.556H3.889a.556.556 0 0 0-.556.556v25.127a17.134 17.134 0 0 0 9.58 15.426 17.733 17.733 0 0 0 7.628 1.764Zm9.713-4.418a15.869 15.869 0 0 1-9.712 3.306 16.607 16.607 0 0 1-7.14-1.65A16.025 16.025 0 0 1 4.446 62.39V37.82h21.14v13.203a.556.556 0 0 0 .913.426l21.79-18.23a27.693 27.693 0 0 1 5.025-3.373l9.368-1.521c.373.04.689.064.987.076l38.477 1.556a10.574 10.574 0 0 1 9.777 13.335L103.594 73.8l-20.417-5.55 4.656-17.022a.555.555 0 0 0-.514-.704l-10.354-.422a.557.557 0 0 0-.54.763c.428 1.071.735 2.187.914 3.327l-30.96 3.697a.555.555 0 0 0-.448.764.556.556 0 0 0-.405.176L30.253 75.162Z" fill="#202124"/><path d="M46.446 58.996a.578.578 0 0 0 .272-.07.556.556 0 0 0 .281-.551 15.412 15.412 0 0 1 .52-6.176c.831-2.794.943-5.754.324-8.603a.556.556 0 1 0-1.086.241 16.186 16.186 0 0 1-.306 8.049 16.515 16.515 0 0 0-.556 6.62.557.557 0 0 0 .551.49Zm-16.764-4.912a.557.557 0 0 0 .323-1.01l-3.542-2.522a.557.557 0 1 0-.645.907l3.542 2.522a.553.553 0 0 0 .322.103ZM76.93 51.21a.557.557 0 0 0 .024-1.113l-4.877-.204a.557.557 0 0 0-.047 1.111l4.877.204a.18.18 0 0 0 .024.001Zm10.384.407a.556.556 0 0 0 .543-.437l.686-3.096a.556.556 0 1 0-1.086-.242l-.686 3.097a.557.557 0 0 0 .543.678Z" fill="#202124"/><path d="M60.685 16.343a9.254 9.254 0 0 1-.253 3.812l1.738 5.946.371 1.41c.194.565.264 1.166.204 1.761a4.8 4.8 0 0 1-9.383.946l-.463-1.483-.535-1.842a9.28 9.28 0 0 1-9.246-13.26 9.236 9.236 0 0 1-.251-1.217 9.668 9.668 0 0 1-.056-2.077c.032-.393.094-.784.185-1.168l4.791-5.222 12.898 12.394Z" fill="#FFF1ED"/><path d="M45.24 19.259a.556.556 0 0 0 .29-1.03l-1.54-.942 1.788-3.109a.557.557 0 0 0-.965-.556L42.755 17.2a.556.556 0 0 0 .192.752l2.003 1.223a.551.551 0 0 0 .29.083Zm2.67-3.915a.686.686 0 1 1 .852-1.076.686.686 0 0 1-.852 1.076Zm-5.091-.017a.686.686 0 1 1 .852-1.076.686.686 0 0 1-.852 1.076Zm3.804 6.681a2.543 2.543 0 0 0 1.346-.387c.297-.186.551-.433.747-.724l.047-.062a.556.556 0 1 0-.89-.668l-.056.074a1.383 1.383 0 0 1-.986.639 1.454 1.454 0 0 1-1.141-.323l-.27-.235a.556.556 0 1 0-.73.84l.279.242c.463.39 1.049.603 1.654.604Zm5.775 5.281c.018 0 .037 0 .055-.003a9.965 9.965 0 0 0 4.813-1.826.556.556 0 0 0-.65-.904 8.852 8.852 0 0 1-4.273 1.623.556.556 0 0 0 .055 1.11Z" fill="#202124"/><path d="M57.98 34.027a5.3 5.3 0 0 0 1.491-.214 5.404 5.404 0 0 0 3.83-4.677 4.699 4.699 0 0 0-.226-1.97l-.366-1.391-1.698-5.811a9.83 9.83 0 0 0 .225-3.886.557.557 0 1 0-1.101.159 8.717 8.717 0 0 1-.238 3.585.558.558 0 0 0 .002.304l1.738 5.946.367 1.395a3.6 3.6 0 0 1 .188 1.566 4.243 4.243 0 0 1-8.296.84l-.466-1.49-.53-1.83a.556.556 0 0 0-.586-.399 8.73 8.73 0 0 1-9.523-9.443 8.792 8.792 0 0 1 .83-3.022.556.556 0 0 0 .034-.39 8.747 8.747 0 0 1-.236-1.143 9.066 9.066 0 0 1-.052-1.958c.028-.363.085-.723.17-1.077a.558.558 0 0 0-.989-.47.557.557 0 0 0-.09.2c-.1.412-.166.831-.2 1.253-.06.735-.04 1.474.059 2.204.05.366.12.73.212 1.088a9.904 9.904 0 0 0-.846 3.218 9.844 9.844 0 0 0 10.273 10.68l.41 1.41.466 1.495a5.386 5.386 0 0 0 5.148 3.828Z" fill="#202124"/><path d="M58.523 17.398a3.987 3.987 0 1 0-4.79-3.906" fill="#FFF1ED"/><path d="M58.523 17.955a.57.57 0 0 0 .111-.011 4.543 4.543 0 1 0-5.458-4.451.556.556 0 0 0 1.113 0 3.43 3.43 0 1 1 4.122 3.36.556.556 0 0 0 .111 1.102h.001Z" fill="#202124"/><path d="M56.702 15.427a.551.551 0 0 0 .13-.016l2.777-.662a.557.557 0 0 0-.258-1.082l-1.504.358.994-1.682a.558.558 0 0 0-.617-.826.556.556 0 0 0-.34.26l-1.66 2.81a.556.556 0 0 0 .478.84Zm43.632 75.778c.056 0 .106-.002.148-.006 1.071-.099 1.952-1.115 1.964-2.266 0-1.73-.575-9.027-.876-11.514a.547.547 0 0 0-.207-.374.558.558 0 0 0-.897.508c.299 2.465.867 9.678.867 11.374-.006.571-.451 1.118-.953 1.164-.56.055-1.294-.582-1.672-2.513-1.155-5.985-2.72-7.967-3.976-9.56-.832-1.054-1.488-1.886-1.788-3.718a.556.556 0 1 0-1.098.179c.346 2.117 1.118 3.095 2.013 4.228 1.182 1.498 2.653 3.363 3.757 9.084.602 3.07 2.085 3.414 2.718 3.414Z" fill="#202124"/><path d="M5.02 36.382s-.638-11.857-.89-14.825c-.319-3.421.655-5.048 2.05-5.099 2.385-.1 2.721 8.771 2.772 10.13-.034-1.526-.168-12.645 2.94-12.813 3.41-.184 2.15 11.823 2.15 11.823a.052.052 0 0 0 .034-.016c.017-.298.05-.595.1-.89.538-2.834 1.815-4.645 3.646-5.701 1.697-.973 3.713-1.308 6.031-.487a2.261 2.261 0 0 1 1.506 2.012 2.306 2.306 0 0 1-.985 1.996 2.272 2.272 0 0 1 2.671 2.096 14.48 14.48 0 0 1-.05 2.114c-.27 2.247-1.68 4.276-4.083 5.736a4.776 4.776 0 0 0-1.999 3.957l-15.892-.033Zm17.321-13.618c-1.008-.352-1.78-.386-2.285-.1-.638.368-1.159 1.408-1.445 2.884a1.934 1.934 0 0 0 .807 1.979 1.98 1.98 0 0 0 1.949.168 1.851 1.851 0 0 0 1.108-1.51 8.66 8.66 0 0 0 .034-1.341 2.243 2.243 0 0 1 .991-1.996c-.386.08-.788.051-1.159-.084Z" fill="#FFF1ED"/><path d="M20.912 36.918h.003a.506.506 0 0 0 .502-.505 4.291 4.291 0 0 1 1.776-3.538c2.485-1.516 4.012-3.68 4.3-6.094.072-.73.09-1.463.054-2.195a2.765 2.765 0 0 0-2.079-2.527 2.769 2.769 0 0 0-1.447-4.028c-2.27-.806-4.441-.63-6.451.523a7.356 7.356 0 0 0-2.79 2.872c.032-2.832-.216-6.245-1.461-7.552a1.839 1.839 0 0 0-1.455-.602c-1.61.088-2.632 2.162-3.122 6.341l-.018.16c-.326-1.503-.788-2.77-1.445-3.376a1.516 1.516 0 0 0-1.121-.441 2.201 2.201 0 0 0-1.598.775c-.82.932-1.143 2.616-.932 4.872.248 2.923.882 14.687.889 14.806a.503.503 0 1 0 1.006-.054c-.006-.12-.642-11.899-.892-14.841-.245-2.628.325-3.709.686-4.119a1.182 1.182 0 0 1 .88-.434.529.529 0 0 1 .398.176c.959.883 1.668 4.512 1.852 9.47a.503.503 0 0 0 1.008-.03c-.133-6.039.67-12.203 2.463-12.3a.82.82 0 0 1 .67.29c1.554 1.63 1.214 8.478.952 10.979a.5.5 0 0 0 .127.389.538.538 0 0 0 .59.118.502.502 0 0 0 .322-.444 7.51 7.51 0 0 1 .094-.834c.485-2.555 1.598-4.309 3.4-5.348 1.743-1 3.63-1.15 5.611-.448a1.748 1.748 0 0 1 1.173 1.563 1.799 1.799 0 0 1-.772 1.556.504.504 0 0 0-.216.407.506.506 0 0 0-.481-.149c-.294.06-.6.037-.881-.068-1.154-.402-2.062-.424-2.7-.063-.776.448-1.375 1.593-1.69 3.227a2.458 2.458 0 0 0 .9 2.404 2.47 2.47 0 0 0 2.554.298 2.375 2.375 0 0 0 1.405-1.917c.048-.469.06-.94.036-1.411a1.743 1.743 0 0 1 .773-1.564.503.503 0 0 0 .22-.408.503.503 0 0 0 .467.15 1.76 1.76 0 0 1 2.07 1.63c.033.68.017 1.36-.049 2.035-.252 2.1-1.616 4.005-3.843 5.357a5.285 5.285 0 0 0-2.242 4.39.503.503 0 0 0 .504.502Zm1.475-13.614a2.713 2.713 0 0 0-.382 1.57c.02.417.01.834-.03 1.249a1.351 1.351 0 0 1-.814 1.112 1.477 1.477 0 0 1-1.457-.122 1.442 1.442 0 0 1-.6-1.469c.253-1.305.703-2.256 1.204-2.545.359-.204 1.023-.155 1.865.14h.001c.072.025.143.046.214.065Z" fill="#202124"/><path d="M12.562 33.48a.505.505 0 0 0 .458-.292c2.05-4.431 5.62-4.74 6.793-4.841a.504.504 0 0 0 .281-.887.504.504 0 0 0-.368-.116c-1.317.114-5.325.46-7.621 5.422a.504.504 0 0 0 .457.715Z" fill="#202124"/><path d="M45.065 4.887c-.864.864-1.82 2.897-2.294 4.308-.065.192.161.325.304.181l2.49-2.49c1.2 1.6 6.5 5.55 8.5 6.884-1-1 2-5.884 5.5-3.383 4.325 3.089 1 6.5 1 7 0 .329-.226 1.813-.4 2.884a.201.201 0 0 0 .341.174l.059-.058c1.2-4 4.333 3.383 6 7.383l28 1c.833-1.667 3.1-5.084 5.5-5.883 2.4-.8 5 1.333 6 2.5 9.5 11.5 26 3 23.5-9s-14-12.5-19-9.5-4 4-8 6c-3.2 1.6-4-2.25-8.5-6-9-7.5-13.5-6.117-17.5-5-4.36 1.218-9 7-12.5 7s-6.5-7-11.5-7c-3.536 0-6 1.5-7.5 3Z" fill="#3C4043" stroke="#202124"/><path d="M33.54 94.642a6.077 6.077 0 0 0-2.47-3.61 6.1 6.1 0 0 0-4.26-1.02 2.257 2.257 0 0 1-2.035-.801 7.151 7.151 0 0 0-.34-.377l-.014-.017a6.109 6.109 0 0 0-.617-.547c-.467.55-.92 1.112-1.399 1.653.165.12.32.252.464.396.084.09.165.174.24.266a4.4 4.4 0 0 0 3.98 1.566 3.95 3.95 0 0 1 2.834.72 3.935 3.935 0 0 1 .984 5.331 3.944 3.944 0 0 1-2.392 1.68 4.415 4.415 0 0 0-3.05 2.599 3.947 3.947 0 0 1-6.9.727 19.44 19.44 0 0 0 .48 3.199 6.106 6.106 0 0 0 6.177-.36 6.076 6.076 0 0 0 2.24-2.743 2.246 2.246 0 0 1 1.554-1.323 6.113 6.113 0 0 0 3.784-2.736 6.088 6.088 0 0 0 .74-4.603Zm12.885 29.881c.152-.047.305-.097.459-.151a6.034 6.034 0 0 0 3.113-2.448c.057-.887.12-1.773.197-2.659-.109-1.187-.287-2.371-.354-3.562-.012-.17.018-.341.086-.498a6.13 6.13 0 0 0-7.05-2.368l-.002.002-.033.01a2.328 2.328 0 0 1-2.203-.388 6.111 6.111 0 0 0-4.305-1.404 6.085 6.085 0 0 0-5.694 6.171 6.11 6.11 0 0 0 1.747 4.178 2.258 2.258 0 0 1 .611 1.948 6.115 6.115 0 0 0 4.67 6.953 6.084 6.084 0 0 0 7.207-4.237 2.243 2.243 0 0 1 1.537-1.542l.014-.005Zm-.258-2.189a9.262 9.262 0 0 1-.372.123 4.38 4.38 0 0 0-2.997 3.011 3.93 3.93 0 0 1-4.654 2.733 3.951 3.951 0 0 1-3.018-4.487 4.413 4.413 0 0 0-1.2-3.818 3.949 3.949 0 0 1-1.127-2.703 3.934 3.934 0 0 1 6.471-3.064 4.488 4.488 0 0 0 4.24.773l.01-.002.045-.015a3.957 3.957 0 0 1 4.242 1.105 3.941 3.941 0 0 1-1.64 6.344Zm5.258-36.811c.152-.047.305-.097.459-.15a6.036 6.036 0 0 0 3.113-2.45c.057-.886.12-1.772.197-2.658-.109-1.187-.287-2.371-.354-3.562-.012-.17.018-.341.086-.498a6.13 6.13 0 0 0-3.127-2.377 6.113 6.113 0 0 0-3.924.01l-.034.011a2.327 2.327 0 0 1-2.203-.388 6.11 6.11 0 0 0-4.305-1.404 6.086 6.086 0 0 0-5.694 6.171 6.11 6.11 0 0 0 1.747 4.178 2.252 2.252 0 0 1 .611 1.948 6.117 6.117 0 0 0 4.67 6.952 6.095 6.095 0 0 0 4.447-.685 6.081 6.081 0 0 0 2.76-3.55 2.24 2.24 0 0 1 1.536-1.543l.015-.005Zm-.258-2.189a9.08 9.08 0 0 1-.372.123 4.38 4.38 0 0 0-2.997 3.01 3.928 3.928 0 0 1-4.654 2.734 3.951 3.951 0 0 1-3.018-4.487 4.412 4.412 0 0 0-1.2-3.818 3.948 3.948 0 0 1-1.127-2.703 3.932 3.932 0 0 1 3.69-3.982 3.948 3.948 0 0 1 2.781.918 4.494 4.494 0 0 0 4.24.773l.01-.002.045-.015a3.94 3.94 0 0 1 3.013.176 3.955 3.955 0 0 1 2.225 3.78 3.936 3.936 0 0 1-2.636 3.493Zm41.258 15.189c.152-.047.305-.097.459-.15a6.036 6.036 0 0 0 3.113-2.45c.058-.886.12-1.772.197-2.658-.109-1.187-.287-2.371-.354-3.562-.011-.17.018-.341.086-.498a6.13 6.13 0 0 0-3.127-2.377 6.113 6.113 0 0 0-3.924.01l-.034.011a2.327 2.327 0 0 1-2.203-.388 6.11 6.11 0 0 0-4.305-1.404 6.086 6.086 0 0 0-5.694 6.171 6.11 6.11 0 0 0 1.747 4.178 2.252 2.252 0 0 1 .611 1.948 6.115 6.115 0 0 0 4.67 6.953 6.084 6.084 0 0 0 7.207-4.237 2.24 2.24 0 0 1 1.537-1.542l.014-.005Zm-.258-2.189a9.08 9.08 0 0 1-.372.123 4.38 4.38 0 0 0-2.997 3.01 3.93 3.93 0 0 1-4.654 2.734 3.951 3.951 0 0 1-3.018-4.487 4.412 4.412 0 0 0-1.2-3.818 3.948 3.948 0 0 1-1.127-2.703 3.932 3.932 0 0 1 3.69-3.982 3.948 3.948 0 0 1 2.781.918 4.494 4.494 0 0 0 4.24.773l.01-.002.045-.015a3.94 3.94 0 0 1 3.013.176 3.955 3.955 0 0 1 2.225 3.78 3.936 3.936 0 0 1-2.636 3.493ZM76.425 71.523c.152-.047.305-.097.459-.15a6.036 6.036 0 0 0 3.113-2.45c.058-.886.12-1.772.197-2.658-.109-1.187-.287-2.371-.354-3.562-.011-.17.018-.341.086-.498a6.13 6.13 0 0 0-3.127-2.377 6.113 6.113 0 0 0-3.924.01l-.034.011a2.327 2.327 0 0 1-2.203-.387 6.11 6.11 0 0 0-4.305-1.405 6.086 6.086 0 0 0-5.694 6.171 6.11 6.11 0 0 0 1.747 4.178 2.252 2.252 0 0 1 .611 1.948 6.117 6.117 0 0 0 4.67 6.952 6.095 6.095 0 0 0 4.448-.685 6.081 6.081 0 0 0 2.759-3.55 2.24 2.24 0 0 1 1.537-1.543l.014-.005Zm-.258-2.189a9.08 9.08 0 0 1-.372.123 4.38 4.38 0 0 0-2.997 3.01 3.928 3.928 0 0 1-4.654 2.734 3.951 3.951 0 0 1-3.018-4.487 4.412 4.412 0 0 0-1.2-3.818 3.948 3.948 0 0 1-1.127-2.703 3.932 3.932 0 0 1 3.69-3.982 3.948 3.948 0 0 1 2.781.918 4.494 4.494 0 0 0 4.24.773l.01-.002.045-.015a3.94 3.94 0 0 1 3.013.177 3.955 3.955 0 0 1 2.225 3.778 3.936 3.936 0 0 1-2.636 3.494Zm-45.924 69.402a2.241 2.241 0 0 1-1.414-1.66 7.12 7.12 0 0 0-.122-.509l-.01-.033a6.089 6.089 0 0 0-1.957-2.886 6.12 6.12 0 0 0-6.654-.706 6.098 6.098 0 0 0-2.521 2.41c.543.56 1.067 1.137 1.585 1.719a3.95 3.95 0 0 1 6.07-1.873 3.937 3.937 0 0 1 1.41 1.967c.031.112.058.225.08.336v.001a4.383 4.383 0 0 0 2.77 3.253 3.939 3.939 0 0 1 2.163 1.972 3.936 3.936 0 0 1-1.667 5.169 3.95 3.95 0 0 1-2.91.343l-.037-.008c.739.705 1.431 1.458 2.123 2.21a6.103 6.103 0 0 0 5.017-5.437 6.083 6.083 0 0 0-.903-3.795 6.106 6.106 0 0 0-3.023-2.472v-.001Zm78.918-16.689a2.246 2.246 0 0 1-1.365-1.695 6.076 6.076 0 0 0-1.942-3.527 6.104 6.104 0 0 0-9.29 1.386c.333.958.876 1.831 1.298 2.753a3.928 3.928 0 0 1 1.165-2.417 3.949 3.949 0 0 1 5.039-.39 3.937 3.937 0 0 1 1.597 2.548l.002.011a4.39 4.39 0 0 0 2.673 3.326 3.93 3.93 0 0 1 .292 7.149 3.947 3.947 0 0 1-2.915.264 4.444 4.444 0 0 0-3.948.746c-.016.013-.033.023-.049.035.186.718.43 1.419.731 2.096a6.06 6.06 0 0 0 .64-.424 2.267 2.267 0 0 1 2.015-.384 6.12 6.12 0 0 0 4.511-.412 6.094 6.094 0 0 0 2.799-7.919 6.102 6.102 0 0 0-3.254-3.146h.001Zm23.175 17.038a3.928 3.928 0 0 1-1.857-.432 4.429 4.429 0 0 0-4.009 0 3.946 3.946 0 0 1-5.211-1.541 3.93 3.93 0 0 1 1.281-5.272 4.489 4.489 0 0 0 1.988-3.823v-.016a3.941 3.941 0 0 1 2.298-3.587 9.88 9.88 0 0 1-.462-2.144 6.12 6.12 0 0 0-2.902 2.24 6.099 6.099 0 0 0-1.096 3.494v.048a2.329 2.329 0 0 1-1.022 1.991 6.088 6.088 0 0 0-1.958 8.16 6.11 6.11 0 0 0 8.066 2.371 2.248 2.248 0 0 1 2.041 0 6.088 6.088 0 0 0 3.761.588 34.35 34.35 0 0 1-.918-2.077Z" fill="#F1E9FB"/></svg>