<svg width="669" height="220" fill="none" xmlns="http://www.w3.org/2000/svg"><path d="M595.037 218.031a.581.581 0 0 1-.581-.558l-2.209-62.206a.58.58 0 0 1 1.16-.041l2.21 62.206a.584.584 0 0 1-.56.599h-.02Z" fill="#202124"/><path d="M593.131 164.494a.576.576 0 0 1-.484-.261l-3.71-5.614a.581.581 0 0 1 .166-.802.583.583 0 0 1 .804.165l3.185 4.822 2.839-5.043a.585.585 0 0 1 .794-.228.576.576 0 0 1 .276.352.568.568 0 0 1-.058.442l-3.305 5.871a.574.574 0 0 1-.486.295l-.021.001Z" fill="#202124"/><path d="M593.334 170.313a.575.575 0 0 1-.486-.262l-5.36-8.191a.574.574 0 0 1 .006-.644.584.584 0 0 1 .373-.243.578.578 0 0 1 .593.255l4.835 7.388 4.311-7.72a.584.584 0 0 1 .974-.09.57.57 0 0 1 .117.436.582.582 0 0 1-.077.217l-4.78 8.558a.576.576 0 0 1-.486.297l-.02-.001Z" fill="#202124"/><path d="M593.577 176.964a.575.575 0 0 1-.484-.26l-6.954-10.523a.578.578 0 0 1 .602-.877c.15.029.281.116.367.241l6.43 9.73 5.724-10.165a.585.585 0 0 1 .794-.227.59.59 0 0 1 .276.351.58.58 0 0 1-.058.442l-6.19 10.993a.581.581 0 0 1-.486.295h-.021Z" fill="#202124"/><path d="M593.8 183.37a.584.584 0 0 1-.483-.261l-8.216-12.424a.582.582 0 0 1-.002-.649.587.587 0 0 1 .374-.246.588.588 0 0 1 .439.094c.063.044.117.1.158.165l7.692 11.632 6.857-12.153a.581.581 0 0 1 1.012.567l-7.324 12.98a.578.578 0 0 1-.486.294l-.021.001Z" fill="#202124"/><path d="M667.7 219.372H1.3c-.765 0-1.3-.394-1.3-.946 0-.551.535-.946 1.3-.946h666.4c.765 0 1.3.395 1.3.946 0 .552-.688.946-1.3.946Z" fill="#E7F1FF"/><path d="m618.557 153.603-6.464 4.938-4.923-6.474a9.614 9.614 0 0 1-1.888-7.114 9.625 9.625 0 0 1 3.686-6.373l.025-.018 6.464-4.939 4.923 6.474a9.636 9.636 0 0 1-1.799 13.487l-.024.019Z" fill="#fff"/><path d="M612.159 159.129a.592.592 0 0 1-.536-.229l-4.924-6.474a10.225 10.225 0 0 1 1.91-14.317l.024-.018 6.464-4.939a.592.592 0 0 1 .829.112l4.924 6.474a10.217 10.217 0 0 1 2.003 7.552 10.223 10.223 0 0 1-3.913 6.764l-.024.019-6.464 4.939a.593.593 0 0 1-.293.117Zm3.185-24.675-6.015 4.593a9.05 9.05 0 0 0-3.239 9.497 9.026 9.026 0 0 0 1.55 3.162l4.565 6.003 6.017-4.596a9.039 9.039 0 0 0 1.687-12.656l-4.565-6.003Z" fill="#202124"/><path d="M604.169 218.5a.594.594 0 0 1-.653-.668l9.563-70.881a.593.593 0 0 1 1.058-.28.594.594 0 0 1 .115.439l-9.563 70.88a.593.593 0 0 1-.52.51Zm11.343-84.29a.586.586 0 0 1-.638-.437.58.58 0 0 1-.014-.231l.867-6.43a.591.591 0 1 1 1.173.158l-.868 6.43a.593.593 0 0 1-.52.51Z" fill="#202124"/><path d="M615.512 134.21a.594.594 0 0 1-.632-.422l-1.822-6.209a.607.607 0 0 1 .043-.456.588.588 0 0 1 .355-.289.569.569 0 0 1 .232-.021.587.587 0 0 1 .505.431l1.822 6.209a.6.6 0 0 1-.26.674.601.601 0 0 1-.243.083Z" fill="#202124"/><path d="M615.511 134.211a.596.596 0 0 1-.566-.273.597.597 0 0 1-.001-.63l3.425-5.5a.592.592 0 0 1 1.003.627l-3.425 5.5a.586.586 0 0 1-.436.276Z" fill="#202124"/><path d="M611.998 167.911a4.704 4.704 0 0 0 4.141-5.198 4.69 4.69 0 0 0-5.183-4.146 4.704 4.704 0 0 0-4.142 5.198 4.69 4.69 0 0 0 5.184 4.146Z" fill="#fff"/><path d="M612.065 168.498a5.27 5.27 0 0 1-5.213-2.701 5.308 5.308 0 0 1 .498-5.861 5.29 5.29 0 0 1 2.528-1.742 5.268 5.268 0 0 1 5.638 1.63 5.289 5.289 0 0 1 1.211 2.822 5.312 5.312 0 0 1-1.124 3.892 5.288 5.288 0 0 1-3.538 1.96Zm-1.043-9.343a4.1 4.1 0 0 0-3.483 2.944 4.104 4.104 0 0 0 3.59 5.233 4.1 4.1 0 0 0 3.989-2.208 4.107 4.107 0 0 0-4.096-5.969ZM68.426 218.62a.59.59 0 0 0 .58-.525l2.897-26.362a.596.596 0 0 0-.127-.431.58.58 0 0 0-.816-.091.59.59 0 0 0-.217.392l-2.898 26.362a.593.593 0 0 0 .124.433.577.577 0 0 0 .457.222Z" fill="#202124"/><path d="M77.326 192.581a4.066 4.066 0 0 0 2.178-.64 4.134 4.134 0 0 0 1.507-1.714 4.187 4.187 0 0 0-.498-4.38 4.042 4.042 0 0 0-2.75-1.528l-11.326-1.271a4.062 4.062 0 0 0-3.01.887 4.154 4.154 0 0 0-1.509 2.779 4.184 4.184 0 0 0 .879 3.043 4.092 4.092 0 0 0 2.746 1.529l11.325 1.27c.153.017.305.025.458.025Zm-11.344-8.378c.11 0 .218.006.327.019l11.326 1.27c.77.089 1.473.482 1.956 1.094a2.987 2.987 0 0 1-.45 4.156 2.903 2.903 0 0 1-2.143.64l-11.326-1.27a2.913 2.913 0 0 1-1.565-.676 2.964 2.964 0 0 1-.93-1.441 2.996 2.996 0 0 1 .02-1.721c.175-.559.51-1.053.962-1.42a2.884 2.884 0 0 1 1.823-.651Zm12.136 5.721c.312 0 .615-.109.857-.308.212-.172.368-.404.45-.666a1.406 1.406 0 0 0-.43-1.482 1.364 1.364 0 0 0-.733-.315l-12.856-1.442a1.34 1.34 0 0 0-1.01.297 1.378 1.378 0 0 0-.504.933c-.039.366.067.733.295 1.02.228.287.56.471.92.511l12.856 1.443c.052.005.104.008.155.009Zm.015-1.598a.212.212 0 0 1 .18.148.215.215 0 0 1 .006.08.215.215 0 0 1-.077.144.207.207 0 0 1-.07.038.21.21 0 0 1-.08.006l-12.855-1.443a.208.208 0 0 1-.14-.074.21.21 0 0 1-.045-.154.216.216 0 0 1 .077-.144.189.189 0 0 1 .07-.037.177.177 0 0 1 .079-.006l12.855 1.442Zm-14.006 15.097c.788 0 2.047-.358 3.833-1.087 1.406-.574 2.596-1.161 2.645-1.185a.59.59 0 0 0 .111-.99c-.441-.36-4.363-3.517-6.058-3.708a3.447 3.447 0 0 0-2.55.748 3.526 3.526 0 0 0-1.284 2.351 3.543 3.543 0 0 0 .747 2.567 3.46 3.46 0 0 0 2.316 1.291c.08.009.16.013.24.013Zm5.117-2.929c-1.837.847-4.345 1.841-5.228 1.742a2.245 2.245 0 0 1-.857-.276 2.304 2.304 0 0 1-.685-.589 2.302 2.302 0 0 1-.49-1.688 2.34 2.34 0 0 1 .852-1.561 2.286 2.286 0 0 1 1.693-.496c.878.099 3.11 1.631 4.715 2.868Z" fill="#202124"/><path d="M76.44 204.79a3.44 3.44 0 0 0 2.173-.773 3.468 3.468 0 0 0 1.263-2.329 3.547 3.547 0 0 0-.74-2.579 3.473 3.473 0 0 0-2.322-1.299c-.76-.085-2.093.266-4.073 1.075-1.406.574-2.596 1.161-2.646 1.185a.582.582 0 0 0-.324.464.597.597 0 0 0 .214.526c.441.36 4.363 3.517 6.058 3.707.132.015.264.023.396.023Zm.112-5.813c.045 0 .089.002.133.007a2.3 2.3 0 0 1 1.542.863 2.352 2.352 0 0 1 .226 2.565 2.299 2.299 0 0 1-2.28 1.182c-.879-.098-3.11-1.63-4.716-2.868 1.752-.808 4.118-1.749 5.095-1.749Z" fill="#202124"/><path d="M50.695 136.962c3.13 0 5.669-2.547 5.669-5.689s-2.538-5.69-5.669-5.69c-3.13 0-5.668 2.548-5.668 5.69 0 3.142 2.538 5.689 5.668 5.689Z" fill="#fff"/><path d="M50.695 137.544a6.234 6.234 0 0 1-3.472-1.057 6.266 6.266 0 0 1-2.301-2.815 6.293 6.293 0 0 1 1.355-6.835 6.242 6.242 0 0 1 6.81-1.36 6.258 6.258 0 0 1 2.804 2.31 6.293 6.293 0 0 1 1.053 3.485 6.292 6.292 0 0 1-1.832 4.433 6.244 6.244 0 0 1-4.417 1.839Zm0-11.379c-1.006 0-1.99.3-2.827.861a5.103 5.103 0 0 0-1.874 2.292 5.123 5.123 0 0 0 1.103 5.565 5.067 5.067 0 0 0 5.545 1.107 5.087 5.087 0 0 0 2.284-1.881 5.12 5.12 0 0 0-.635-6.446 5.084 5.084 0 0 0-3.596-1.498Z" fill="#202124"/><path d="M56.693 149.1c3.13 0 5.668-2.547 5.668-5.689 0-3.143-2.538-5.69-5.668-5.69-3.13 0-5.669 2.547-5.669 5.69 0 3.142 2.538 5.689 5.669 5.689Z" fill="#fff"/><path d="M56.693 149.681a6.234 6.234 0 0 1-3.471-1.057 6.267 6.267 0 0 1-2.302-2.815 6.291 6.291 0 0 1 1.355-6.835 6.242 6.242 0 0 1 3.2-1.716 6.245 6.245 0 0 1 6.415 2.667 6.286 6.286 0 0 1-.78 7.917 6.244 6.244 0 0 1-4.417 1.839Zm0-11.379c-1.006 0-1.99.3-2.827.861a5.103 5.103 0 0 0-1.874 2.292 5.125 5.125 0 0 0 1.103 5.565 5.076 5.076 0 0 0 7.829-.774 5.118 5.118 0 0 0-.635-6.446 5.084 5.084 0 0 0-3.596-1.498Z" fill="#202124"/><path d="M45.376 149.406c3.13 0 5.668-2.547 5.668-5.689s-2.538-5.69-5.668-5.69c-3.131 0-5.669 2.548-5.669 5.69 0 3.142 2.538 5.689 5.669 5.689Z" fill="#fff"/><path d="M45.375 149.99a6.234 6.234 0 0 1-3.471-1.057 6.262 6.262 0 0 1-2.302-2.815 6.292 6.292 0 0 1 1.355-6.835 6.242 6.242 0 0 1 3.2-1.716 6.246 6.246 0 0 1 6.415 2.667 6.287 6.287 0 0 1-.78 7.917 6.244 6.244 0 0 1-4.417 1.839Zm0-11.379c-1.006 0-1.99.3-2.827.861a5.103 5.103 0 0 0-1.873 2.292 5.125 5.125 0 0 0 1.103 5.565 5.077 5.077 0 0 0 7.828-.773 5.12 5.12 0 0 0-.634-6.447 5.084 5.084 0 0 0-3.597-1.498Z" fill="#202124"/><path d="M57.04 161.738c3.131 0 5.669-2.547 5.669-5.69 0-3.142-2.538-5.689-5.669-5.689-3.13 0-5.668 2.547-5.668 5.689 0 3.143 2.538 5.69 5.669 5.69Z" fill="#fff"/><path d="M57.04 162.321a6.234 6.234 0 0 1-3.47-1.057 6.263 6.263 0 0 1-2.302-2.814 6.295 6.295 0 0 1 1.354-6.836 6.242 6.242 0 0 1 3.2-1.716 6.246 6.246 0 0 1 6.415 2.667 6.287 6.287 0 0 1-.78 7.917 6.244 6.244 0 0 1-4.416 1.839Zm0-11.379c-1.005 0-1.99.3-2.826.861a5.103 5.103 0 0 0-1.874 2.292 5.126 5.126 0 0 0 1.103 5.565 5.077 5.077 0 0 0 7.828-.773 5.12 5.12 0 0 0-.635-6.447 5.088 5.088 0 0 0-3.595-1.498Z" fill="#202124"/><path d="M45.705 162.032c3.13 0 5.668-2.547 5.668-5.689s-2.538-5.69-5.668-5.69c-3.131 0-5.669 2.548-5.669 5.69 0 3.142 2.538 5.689 5.669 5.689Z" fill="#fff"/><path d="M45.705 162.613a6.234 6.234 0 0 1-3.472-1.057 6.267 6.267 0 0 1-2.301-2.815 6.295 6.295 0 0 1 1.354-6.835 6.233 6.233 0 0 1 9.614.95 6.29 6.29 0 0 1 1.054 3.485 6.292 6.292 0 0 1-1.833 4.433 6.244 6.244 0 0 1-4.416 1.839Zm0-11.379a5.07 5.07 0 0 0-2.827.861 5.098 5.098 0 0 0-1.874 2.292 5.123 5.123 0 0 0 1.103 5.565 5.067 5.067 0 0 0 5.545 1.107 5.088 5.088 0 0 0 2.283-1.881 5.12 5.12 0 0 0-.634-6.447 5.083 5.083 0 0 0-3.596-1.497Z" fill="#202124"/><path d="M53.036 218.265a.58.58 0 0 1-.58-.567l-2.262-83.734a.586.586 0 0 1 .158-.416.58.58 0 0 1 1.002.385l2.263 83.733a.58.58 0 0 1-.565.598l-.016.001Zm-8.239-.225a.566.566 0 0 1-.652-.465l-4.128-22.802a.567.567 0 0 1 .448-.665.567.567 0 0 1 .652.464l4.129 22.803a.568.568 0 0 1-.449.665Z" fill="#202124"/><path d="M41.283 198.623c2.125-.387 3.527-2.469 3.133-4.651-.395-2.182-2.438-3.637-4.563-3.251-2.125.387-3.528 2.469-3.133 4.651s2.438 3.637 4.563 3.251Z" fill="#85B7FE"/><path d="M87.165 164.216a8.211 8.211 0 0 1-4.325-1.955 8.16 8.16 0 0 1-2.51-4.018 8.112 8.112 0 0 1 2.908-8.565 8.172 8.172 0 0 1 4.44-1.661 8.214 8.214 0 0 1 4.623 1.077 8.185 8.185 0 0 1 3.249 3.454 8.124 8.124 0 0 1 .779 4.665 8.126 8.126 0 0 1-3.124 5.392 8.195 8.195 0 0 1-6.04 1.611Zm1.981-15.128a7.165 7.165 0 0 0-4.091.669 7.118 7.118 0 0 0-3.024 2.822 7.083 7.083 0 0 0-.937 4.023 7.111 7.111 0 0 0 1.466 3.868 7.17 7.17 0 0 0 7.52 2.549 7.125 7.125 0 0 0 3.52-2.179 7.085 7.085 0 0 0 .283-9.022 7.177 7.177 0 0 0-4.736-2.73Z" fill="#202124"/><path d="M87.165 164.216a8.211 8.211 0 0 1-4.325-1.955 8.16 8.16 0 0 1-2.51-4.018 8.112 8.112 0 0 1 2.908-8.565 8.172 8.172 0 0 1 4.44-1.661 8.214 8.214 0 0 1 4.623 1.077 8.185 8.185 0 0 1 3.249 3.454 8.124 8.124 0 0 1 .779 4.665 8.126 8.126 0 0 1-3.124 5.392 8.195 8.195 0 0 1-6.04 1.611Zm1.981-15.128a7.165 7.165 0 0 0-4.091.669 7.118 7.118 0 0 0-3.024 2.822 7.083 7.083 0 0 0-.937 4.023 7.111 7.111 0 0 0 1.466 3.868 7.17 7.17 0 0 0 7.52 2.549 7.125 7.125 0 0 0 3.52-2.179 7.085 7.085 0 0 0 .283-9.022 7.177 7.177 0 0 0-4.736-2.73Z" fill="#202124"/><path d="M87.233 163.707c4.195.554 8.04-2.383 8.586-6.56.546-4.177-2.411-8.012-6.606-8.566-4.195-.555-8.04 2.382-8.586 6.559-.547 4.177 2.411 8.013 6.606 8.567Z" fill="#fff"/><path d="M87.166 164.214a8.205 8.205 0 0 1-4.325-1.955 8.163 8.163 0 0 1-2.512-4.017 8.108 8.108 0 0 1 2.909-8.564 8.18 8.18 0 0 1 4.44-1.661 8.208 8.208 0 0 1 7.873 4.532 8.12 8.12 0 0 1 .779 4.664 8.12 8.12 0 0 1-3.124 5.391 8.19 8.19 0 0 1-6.04 1.61Zm1.98-15.126a7.165 7.165 0 0 0-4.091.669 7.109 7.109 0 0 0-3.024 2.821 7.084 7.084 0 0 0-.937 4.023 7.112 7.112 0 0 0 1.466 3.868 7.171 7.171 0 0 0 7.521 2.549 7.13 7.13 0 0 0 3.52-2.178 7.084 7.084 0 0 0 .282-9.022 7.178 7.178 0 0 0-4.736-2.73Z" fill="#202124"/><path d="M80.111 217.947a.514.514 0 0 1-.445-.576l7.05-53.729a.517.517 0 0 1 1.024.135l-7.05 53.729a.512.512 0 0 1-.579.441ZM88 157.838a8.212 8.212 0 0 1-4.191-1.851 8.16 8.16 0 0 1-2.54-3.802.513.513 0 0 1 .336-.649c.066-.021.134-.027.202-.021a.53.53 0 0 1 .351.188.502.502 0 0 1 .095.179 7.137 7.137 0 0 0 2.219 3.322 7.17 7.17 0 0 0 3.662 1.616 7.182 7.182 0 0 0 3.952-.607 7.133 7.133 0 0 0 3.007-2.622.518.518 0 0 1 .71-.155.514.514 0 0 1 .16.707 8.17 8.17 0 0 1-3.44 3 8.234 8.234 0 0 1-4.522.695Z" fill="#202124"/><path d="M91.28 157.547a.518.518 0 0 1-.21-.075 8.223 8.223 0 0 1-3.033-3.436 8.165 8.165 0 0 1-.714-4.517 8.16 8.16 0 0 1 .236-1.147.52.52 0 0 1 .242-.315.526.526 0 0 1 .395-.048.524.524 0 0 1 .373.441.514.514 0 0 1-.018.202 7.107 7.107 0 0 0-.206 1.002 7.136 7.136 0 0 0 .624 3.948 7.182 7.182 0 0 0 2.653 3.003.515.515 0 0 1 .209.609.51.51 0 0 1-.551.333Zm516.518 61.456a.56.56 0 0 1-.344-.654l9.517-40.977a.562.562 0 0 1 .671-.425.56.56 0 0 1 .416.676l-9.517 40.976a.562.562 0 0 1-.743.404Z" fill="#202124"/><path d="M615.746 182.233c2.58.972 5.466-.361 6.447-2.977.981-2.616-.315-5.524-2.895-6.496-2.58-.972-5.467.361-6.448 2.976-.98 2.616.316 5.525 2.896 6.497Z" fill="#85B7FE"/><path d="M95.239 207.069c1.544 0 2.796-1.24 2.796-2.77s-1.252-2.77-2.796-2.77c-1.545 0-2.797 1.24-2.797 2.77s1.252 2.77 2.797 2.77Z" fill="#fff"/><path d="M95.239 207.598a3.35 3.35 0 0 1-1.85-.556 3.301 3.301 0 0 1-1.227-1.48 3.27 3.27 0 0 1-.19-1.906c.129-.64.446-1.228.912-1.69a3.35 3.35 0 0 1 5.124.5 3.28 3.28 0 0 1 .561 1.833 3.286 3.286 0 0 1-.976 2.332 3.348 3.348 0 0 1-2.354.967Zm0-5.539c-.448 0-.885.131-1.257.377a2.242 2.242 0 0 0-.833 1.006 2.22 2.22 0 0 0 .49 2.442 2.275 2.275 0 0 0 3.48-.34 2.225 2.225 0 0 0-.281-2.828 2.273 2.273 0 0 0-1.6-.657Z" fill="#202124"/><path d="M86.743 209.804c1.22 0 2.208-.979 2.208-2.188a2.198 2.198 0 0 0-2.208-2.187c-1.22 0-2.209.979-2.209 2.187 0 1.209.989 2.188 2.209 2.188Z" fill="#fff"/><path d="M86.743 210.333a2.758 2.758 0 0 1-1.524-.458 2.726 2.726 0 0 1-1.01-1.219 2.695 2.695 0 0 1 .594-2.961 2.753 2.753 0 0 1 2.99-.589c.5.205.929.554 1.23 1 .302.447.463.973.463 1.51a2.705 2.705 0 0 1-.805 1.92 2.758 2.758 0 0 1-1.938.797Zm0-4.376c-.331 0-.655.098-.93.28a1.644 1.644 0 0 0-.254 2.552 1.685 1.685 0 0 0 2.576-.252 1.645 1.645 0 0 0-.209-2.093 1.687 1.687 0 0 0-1.183-.487Zm4.364 13.197a.543.543 0 0 1-.427-.21.532.532 0 0 1-.087-.464l4.132-14.327a.529.529 0 0 1 .453-.384.545.545 0 0 1 .53.27.533.533 0 0 1 .044.405L91.62 218.77a.532.532 0 0 1-.514.384Z" fill="#202124"/><path d="M91.107 219.156a.537.537 0 0 1-.498-.335l-4.363-11.01a.524.524 0 0 1 .301-.686.537.537 0 0 1 .693.298l4.364 11.009a.525.525 0 0 1-.247.662.531.531 0 0 1-.25.062Z" fill="#202124"/><path d="m616.809 218.643-4.058-7.259a1.759 1.759 0 0 1 1.012-2.535 1.756 1.756 0 0 1 2.03.792l1.879 3.209-.044-4.73a1.583 1.583 0 0 1 1.574-1.592h.008a1.582 1.582 0 0 1 1.582 1.515l.197 5.103 1.598-2.451a1.581 1.581 0 0 1 2.092-.512l.209.118a1.584 1.584 0 0 1 .599 2.146l-3.508 6.196" fill="#fff"/><path d="M616.809 219.171a.526.526 0 0 1-.46-.27l-4.059-7.259a2.278 2.278 0 0 1-.202-1.74 2.272 2.272 0 0 1 1.518-1.557 2.277 2.277 0 0 1 2.642 1.029l.878 1.5-.025-2.749a2.113 2.113 0 0 1 2.097-2.125h.002c1.144 0 2.07.887 2.119 2.02l.133 3.449.693-1.063a2.116 2.116 0 0 1 2.79-.684l.211.119a2.118 2.118 0 0 1 .801 2.863l-3.51 6.199a.527.527 0 1 1-.917-.52l3.508-6.196a1.06 1.06 0 0 0-.401-1.428l-.207-.116a1.058 1.058 0 0 0-1.393.342l-1.596 2.449a.527.527 0 0 1-.969-.268l-.197-5.103a1.051 1.051 0 0 0-1.053-1.007h-.001a1.058 1.058 0 0 0-1.056 1.061l.044 4.728a.527.527 0 0 1-.982.272l-1.879-3.21a1.226 1.226 0 0 0-1.65-.455c-.288.16-.495.423-.585.739-.09.317-.052.649.108.937l4.058 7.257a.529.529 0 0 1-.46.786Z" fill="#202124"/><path d="M369.249 57.215c-.192-5.665-1.318-11.828-3.619-11.56-2.111.242-1.16 3.953-1.187 10.954-1.053-6.202-2.278-10.678-4.428-10.173-2.134.507-1.037 6.766-.177 11.541-1.936-2.763-4.417-6.618-5.999-5.961-2.265.942-.286 4.317.799 6.668 2.41 5.242.211 6.986-1.405 10.264-1.083 2.18-.38 4.944 1.099 7.825l2.457 26.019a10.192 10.192 0 0 0 8.299 7.089l9.625 1.384 3.555-19.017-3.894-.64s-6.567-22.213-6.611-22.332" fill="#FFF1ED"/><path d="M363.579 110.18a10.856 10.856 0 0 1-7.375-7.21.637.637 0 0 1-.024-.123l-2.445-25.903c-1.754-3.456-2.097-6.162-1.049-8.269.3-.61.616-1.16.921-1.692 1.346-2.344 2.319-4.039.476-8.046-.123-.268-.259-.549-.398-.839-.889-1.845-1.895-3.936-1.335-5.405a2.151 2.151 0 0 1 1.254-1.242c1.587-.66 3.38 1.437 5.164 3.93-.85-5.218-1.061-9.025 1.106-9.54a1.973 1.973 0 0 1 1.576.292c.85.563 1.558 1.809 2.214 4-.09-3.056.08-4.877 1.896-5.084a1.933 1.933 0 0 1 1.505.498c2.294 1.969 2.72 9.412 2.796 11.646a.612.612 0 0 1-1.222.04c-.183-5.377-1.135-9.701-2.371-10.762a.693.693 0 0 0-.567-.21c-.927.105-.902 1.795-.763 5.301.058 1.459.123 3.112.116 5.049a.606.606 0 0 1-.562.601.61.61 0 0 1-.651-.504c-.394-2.32-1.441-8.481-3.067-9.56a.74.74 0 0 0-.618-.12c-.273.065-.897.542-.742 3.546.116 2.248.642 5.164 1.025 7.293a.608.608 0 0 1-.772.695.611.611 0 0 1-.331-.238c-.167-.239-.339-.486-.513-.739-1.314-1.892-3.76-5.418-4.748-5.008a.958.958 0 0 0-.582.552c-.373.979.551 2.899 1.295 4.442.142.296.28.584.407.857 2.106 4.578.828 6.805-.525 9.163-.296.516-.603 1.049-.887 1.626-.874 1.759-.516 4.14 1.095 7.276a.61.61 0 0 1 .064.221l2.449 25.957a9.608 9.608 0 0 0 2.943 4.418 9.641 9.641 0 0 0 4.841 2.187l9.044 1.301 3.334-17.829-3.278-.539a.612.612 0 0 1-.488-.43c-2.234-7.558-6.48-21.918-6.604-22.312a.612.612 0 0 1 1.153-.404c.042.113 3.539 11.94 6.515 22.004l3.516.579a.6.6 0 0 1 .402.252.602.602 0 0 1 .1.462l-3.555 19.017a.609.609 0 0 1-.688.492l-9.624-1.385a10.786 10.786 0 0 1-1.423-.304Z" fill="#202124"/><path d="M360.654 70.919c.466-2.9 2.864-5.097 4.523-7.979 2.314-3.991 4.146-6.335 5.24-6.328 2.509.04-1.185 6.435-2.594 12.565" fill="#FFF1ED"/><path d="M360.486 71.505a.608.608 0 0 1-.435-.684c.331-2.069 1.536-3.743 2.81-5.516a31.55 31.55 0 0 0 1.785-2.669c3.416-5.891 4.88-6.64 5.773-6.634a1.37 1.37 0 0 1 1.172.571c.7 1.007.073 2.898-1.191 6.43-.696 1.946-1.485 4.152-1.981 6.31a.618.618 0 0 1-.271.381.611.611 0 0 1-.92-.654c.512-2.229 1.314-4.47 2.021-6.448.763-2.132 1.712-4.786 1.338-5.324-.026-.038-.134-.045-.179-.045-.197-.001-1.374.282-4.702 6.024a32.763 32.763 0 0 1-1.85 2.77c-1.189 1.653-2.311 3.214-2.597 4.999a.617.617 0 0 1-.245.398.613.613 0 0 1-.528.091Z" fill="#202124"/><path d="m291.723 20.21.717 2.378c.126.413.449.736.861.861l2.375.72a.293.293 0 0 1 0 .561l-2.375.72a1.293 1.293 0 0 0-.861.861l-.717 2.378a.293.293 0 0 1-.562 0l-.719-2.378a1.285 1.285 0 0 0-.86-.86l-2.374-.72a.293.293 0 0 1 0-.562l2.374-.72c.413-.124.736-.448.86-.861l.719-2.377a.292.292 0 0 1 .562 0ZM335.553.295l1.005 3.328a1.807 1.807 0 0 0 1.205 1.206l3.324 1.008a.41.41 0 0 1 0 .785l-3.324 1.008a1.807 1.807 0 0 0-1.205 1.206l-1.005 3.328a.41.41 0 0 1-.786 0l-1.007-3.328a1.8 1.8 0 0 0-1.204-1.206l-3.323-1.008a.41.41 0 0 1 0-.785l3.323-1.008a1.8 1.8 0 0 0 1.204-1.206l1.007-3.328a.41.41 0 0 1 .786 0Z" fill="#82B1FF"/><path d="m360.967 29.177.603 1.997c.105.347.376.618.723.723l1.994.605c.13.04.204.177.165.307a.247.247 0 0 1-.165.164l-1.994.605a1.082 1.082 0 0 0-.723.723l-.603 1.997a.246.246 0 0 1-.472 0l-.604-1.997a1.078 1.078 0 0 0-.722-.723l-1.994-.605a.246.246 0 0 1 0-.471l1.994-.605c.347-.104.618-.376.722-.723l.604-1.997a.246.246 0 0 1 .472 0Z" fill="#85B7FE"/><path d="m235.097 108.561-1.299 1.894a15.495 15.495 0 0 0-2.509 6.316 15.727 15.727 0 0 0 .415 6.819l-14.719 33.037-7.975 10.751-14.227 18.064 26.547 13.71 23.387-28.332a15.59 15.59 0 0 0 2.464-4.182l6.519-16.506 3.347 7.788-3.258 35.157 32.83 3.296 3.683-39.659a17.737 17.737 0 0 0-1.358-8.641l-19.156-39.482v-.03h-34.691Z" fill="#fff"/><path d="M221.329 199.786a.583.583 0 0 1-.271-.066l-26.547-13.71a.625.625 0 0 1-.325-.435.644.644 0 0 1 .124-.536l14.227-18.063 7.922-10.681 14.594-32.756a16.288 16.288 0 0 1-.358-6.994 16.026 16.026 0 0 1 2.605-6.459l1.299-1.894a.611.611 0 0 1 .498-.267h34.69a.6.6 0 0 1 .373.132.637.637 0 0 1 .218.34l19.111 39.39.012.027a18.433 18.433 0 0 1 1.409 8.961l-3.684 39.659a.634.634 0 0 1-.429.546c-.077.025-.157.033-.237.025l-32.83-3.295a.595.595 0 0 1-.413-.228.661.661 0 0 1-.137-.465l3.242-34.99-2.699-6.283-5.978 15.135a16.181 16.181 0 0 1-2.565 4.354l-23.387 28.332a.614.614 0 0 1-.464.221Zm-25.587-14.559 25.434 13.136 23.078-27.957a14.928 14.928 0 0 0 2.362-4.01l6.519-16.506a.625.625 0 0 1 .221-.283.595.595 0 0 1 .334-.11h.01a.59.59 0 0 1 .332.102.632.632 0 0 1 .225.273l3.348 7.789c.043.1.06.21.05.319l-3.2 34.526 31.614 3.174 3.624-39.026a17.117 17.117 0 0 0-1.302-8.308l-18.995-39.15h-33.985l-1.116 1.628a14.741 14.741 0 0 0-2.414 6.049 14.992 14.992 0 0 0 .407 6.536.658.658 0 0 1-.03.448l-14.72 33.037a.697.697 0 0 1-.071.121l-7.975 10.751-13.75 17.461Z" fill="#202124"/><path d="M281.529 195.831c-.492 3.909 3.25 9.157 8.468 10.925 2.464.835 6.397 2.188 8.595 2.955 4.179 1.457 6.601 3.891 6.25 7.955h-44.959l-.067-23.902 21.713 2.067Z" fill="#3C4043"/><path d="M304.842 218.291h-44.959a.624.624 0 0 1-.625-.623l-.067-23.902a.627.627 0 0 1 .685-.625l21.712 2.068a.616.616 0 0 1 .428.231.613.613 0 0 1 .133.468c-.428 3.409 2.923 8.52 8.048 10.256 2.359.799 6.298 2.153 8.601 2.957 4.84 1.687 7.02 4.5 6.666 8.598a.623.623 0 0 1-.622.572Zm-44.335-1.249h43.742c.059-3.18-1.819-5.331-5.863-6.741-2.3-.802-6.234-2.154-8.59-2.952-5.03-1.705-9.035-6.695-8.935-10.954l-20.418-1.944.064 22.591Z" fill="#202124"/><path d="M214.021 195.732c-.302 3.944 2.512 7.972 8.473 10.4l8.595 3.578c3.953 1.009 6.597 3.894 6.25 7.956l-29.877.172-21.837-10.353 10.033-20.87 18.363 9.117Z" fill="#3C4043"/><path d="M207.462 218.462a.62.62 0 0 1-.268-.06l-21.838-10.353a.63.63 0 0 1-.294-.835l10.033-20.87a.605.605 0 0 1 .148-.196.63.63 0 0 1 .693-.093l18.363 9.117a.632.632 0 0 1 .345.607c-.301 3.935 2.722 7.589 8.085 9.774l8.56 3.563c4.472 1.158 7.028 4.451 6.673 8.603a.622.622 0 0 1-.619.571l-29.877.172h-.004Zm-21.002-11.273 21.141 10.024 29.143-.169c.039-3.288-2.096-5.781-5.81-6.729a.664.664 0 0 1-.086-.028l-8.595-3.579c-5.702-2.322-8.988-6.262-8.878-10.599l-17.428-8.654-9.487 19.734Zm67.621-55.691a.628.628 0 0 1-.622-.562.628.628 0 0 1 .044-.3l4.519-10.997a.625.625 0 0 1 1.156.474l-4.518 10.997a.625.625 0 0 1-.579.388Zm5.101 11.073a.624.624 0 0 1-.558-.342l-1.698-3.346a.627.627 0 0 1 .275-.84.623.623 0 0 1 .84.275l1.698 3.345a.62.62 0 0 1-.252.828.626.626 0 0 1-.305.08Z" fill="#202124"/><path d="M234.624 147.378c.077-.335.136-.677.178-1.026l-.178 1.026Zm0 0 .042-.106a9.904 9.904 0 0 0 .48-5.467l-5.362-27.467-.038-.194.105-.168 4.338-6.917.672-1.072.242 1.242.335 1.713h34.522l.469-11.967.022-.545.541.069 17.212 2.199h.008l.008.002a9.715 9.715 0 0 0 1.565.125 9.928 9.928 0 0 0 7.374-3.298l.016-.018.017-.016.339.368-.339-.368h.001l.002-.002.008-.008.034-.032.135-.125.513-.481a249.27 249.27 0 0 0 7.704-7.577c2.195-2.26 4.481-4.716 6.407-7.009 1.934-2.302 3.475-4.404 4.209-5.96h.001c.27-.573.521-1.707.595-2.837a7.572 7.572 0 0 0-.036-1.528 3.116 3.116 0 0 0-.087-.424l-.038.034a18.8 18.8 0 0 1-1.298 1.089c-1.037.781-2.507 1.652-4.008 1.514-1.778-.163-3.481-1.346-4.762-2.793-1.285-1.452-2.233-3.266-2.43-4.83a877.28 877.28 0 0 0-.039-.312c-.207-1.638-.409-3.233-.423-4.884a9.869 9.869 0 0 0-2.51 2.022h-.001l-14.987 16.72-.173.193-.258-.03.059-.497-.06.496h-.003l-.012-.002-.046-.005-.178-.021-.677-.081-2.419-.289-7.342-.877c-5.333-.636-10.698-1.277-10.737-1.283h-.002c-.668-.101-1.734-.093-2.455-.088l-.208.002c-.429.002-2.15-.048-3.746-.098l-2.154-.069-.603-.02a.567.567 0 0 1-.698-.136.576.576 0 0 1-.124-.278c-.223-.073-.612-.155-1.261-.207-.837-.068-2.066-.082-3.853.015-2.567.14-3.265.334-3.61.465l-.122.05a3.04 3.04 0 0 1-.505.174c-.28.064-.648.095-1.262.095h-.5v-.006c-.296 0-.691.004-1.087.006h-.011a283.432 283.432 0 0 1-1.451.005 4.341 4.341 0 0 1-.164-.005h-3.079c-.762.034-1.519.132-2.265.292l-.011.002-.01.002c-3.943.669-6.994 3.52-8.277 5.524l-.001.002-16.016 25.532a9.892 9.892 0 0 0-1.33 7.162l6.154 31.507c.159.816.42 1.606.776 2.354m18.163-.577-18.163.577m0 0c.099-.268.207-.527.313-.779l.03-.072c.248-.594.481-1.15.623-1.75l-.966 2.601Z" fill="#FFED96" stroke="#202124"/><path d="M270.941 97.071a.624.624 0 0 1-.625-.624v-7.53a.625.625 0 0 1 1.25 0v7.53a.625.625 0 0 1-.625.624Zm-36.328 10.464a.635.635 0 0 1-.318-.086.616.616 0 0 1-.306-.556.624.624 0 0 1 .095-.314l4.695-7.485a.627.627 0 0 1 1.139.192.625.625 0 0 1-.079.472l-4.696 7.484a.624.624 0 0 1-.53.293Z" fill="#202124"/><path d="M234.12 144.127a7.951 7.951 0 0 1-.5 4.466c-1.169 2.781-3.179 7.47-4.531 10.409-2.475 5.399-13.066 18.193-16.021 15.419-1.791-1.68 1.636-4.465 6.423-10.992-5.25 5.032-9.464 8.348-11.099 6.404-1.636-1.945 3.699-6.996 7.776-10.851-3.697 1.249-8.647 3.106-9.658 1.417-1.458-2.436 2.709-4.199 5.334-5.648 5.833-3.21 4.999-6.352 5.758-10.499.341-1.874 1.475-3.881 3.233-5.486a7.854 7.854 0 0 1 5-2.014 7.963 7.963 0 0 1 8.141 6.567l.144.808Z" fill="#FFF1ED"/><path d="M213.914 174.754a2.097 2.097 0 0 1-1.479-.558c-1.587-1.488-.26-3.409 2.171-6.458-2.395 1.877-4.049 2.665-5.304 2.599a2.162 2.162 0 0 1-1.594-.782c-1.632-1.941 1.304-5.401 5.791-9.76-3.475 1.142-6.711 1.946-7.729.245a2.43 2.43 0 0 1-.302-1.952c.476-1.703 2.812-2.939 4.873-4.03.347-.183.683-.361.997-.534 4.496-2.474 4.764-4.736 5.135-7.866.083-.702.169-1.429.31-2.199.376-2.064 1.625-4.191 3.427-5.835a8.49 8.49 0 0 1 5.401-2.176 8.618 8.618 0 0 1 8.777 7.082l.143.807a8.544 8.544 0 0 1-.539 4.817c-1.01 2.403-3.102 7.305-4.539 10.429-2.13 4.645-10.569 15.253-14.945 16.11-.196.04-.394.06-.594.061Zm5.373-12.63a.63.63 0 0 1 .623.675.635.635 0 0 1-.119.319c-1.325 1.806-2.521 3.296-3.577 4.612-2.635 3.282-3.764 4.766-2.922 5.556.141.132.395.295.974.182 3.61-.708 11.834-10.573 14.05-15.406 1.43-3.11 3.516-7.995 4.523-10.391a7.313 7.313 0 0 0 .461-4.115l-.144-.808a7.36 7.36 0 0 0-2.623-4.423 7.374 7.374 0 0 0-4.879-1.629 7.244 7.244 0 0 0-4.604 1.853c-1.601 1.462-2.708 3.334-3.037 5.135a33.402 33.402 0 0 0-.299 2.121c-.383 3.235-.714 6.029-5.772 8.813-.32.176-.663.358-1.016.544-1.747.925-3.922 2.076-4.254 3.263a1.195 1.195 0 0 0 .171.974c.118.197.623.609 2.755.187 1.596-.316 3.566-.989 5.305-1.582.293-.1.581-.199.862-.293a.622.622 0 0 1 .819.676.625.625 0 0 1-.189.369c-2.044 1.932-4.359 4.122-5.978 6.086-2.17 2.632-2.028 3.579-1.75 3.91a.925.925 0 0 0 .704.339c2.031.111 6.388-3.824 9.485-6.792a.617.617 0 0 1 .431-.174v-.001Z" fill="#202124"/><path d="M314.31 51.98c-.096-3.7 1.034-11.471-1.891-11.471-1.458 0-1.458 4.164-1.25 7.287-.208-3.54.625-7.495-1.337-7.525-3.25-.05-5.389 12.41-5.775 17.582-.068.95-.208 3.246-.208 3.246s-.208 5.696 2.146 8.536c2.008 2.41 3.895 2.848 3.895 2.848 4.108 1.04 8.052-2.409 7.423-6.598a5.888 5.888 0 0 0-.15-.695c-.524-1.808-1.033-3.234-1.482-4.768" fill="#FFF1ED"/><path d="M311.372 73.291a6.65 6.65 0 0 1-1.636-.204c-.073-.017-2.104-.51-4.222-3.054-2.478-2.99-2.299-8.715-2.29-8.958.002-.038.141-2.326.209-3.269a67.038 67.038 0 0 1 1.832-10.862c1.301-4.939 2.792-7.323 4.576-7.3a1.65 1.65 0 0 1 1.195.5c.095.1.18.21.251.328.045-.055.084-.097.117-.132a1.372 1.372 0 0 1 1.015-.458 1.992 1.992 0 0 1 1.461.622c1.387 1.44 1.242 5.227 1.114 8.569-.042 1.074-.08 2.089-.06 2.888a.635.635 0 0 1-.171.447.633.633 0 0 1-.678.153.616.616 0 0 1-.347-.33.63.63 0 0 1-.054-.238c-.02-.839.018-1.873.06-2.968.107-2.784.253-6.598-.764-7.654a.738.738 0 0 0-.561-.24c-.017 0-.045 0-.102.062-.119.127-.38.543-.524 1.808.014.572 0 1.2-.015 1.874-.02.95-.041 1.931.015 2.883a.627.627 0 0 1-1.036.504.626.626 0 0 1-.212-.426 29.35 29.35 0 0 1-.004-4.863c-.024-.916-.121-1.665-.406-1.961a.393.393 0 0 0-.312-.118h-.009c-.805 0-2.102 1.67-3.339 6.367a65.599 65.599 0 0 0-1.794 10.637c-.068.933-.207 3.214-.208 3.237-.002.04-.17 5.48 2.003 8.1 1.826 2.192 3.541 2.634 3.559 2.638a5.418 5.418 0 0 0 4.976-1.24 5.158 5.158 0 0 0 1.684-4.657 5.455 5.455 0 0 0-.134-.62 92.981 92.981 0 0 0-.81-2.611c-.235-.732-.458-1.424-.67-2.15a.634.634 0 0 1 .201-.673.63.63 0 0 1 .701-.06.63.63 0 0 1 .297.382c.209.71.428 1.395.661 2.119.266.826.542 1.68.822 2.65.071.255.127.514.167.775a6.479 6.479 0 0 1-2.081 5.771 6.668 6.668 0 0 1-4.477 1.733Z" fill="#202124"/><path d="M315.68 61.047a.628.628 0 0 1-.62-.553c-.006-.05-.584-5.022-1.278-7.955-.16-.676-.525-1.05-1.027-1.052h-.005c-.622 0-1.396.592-1.676 1.726-.202.81-.633 4.97-.783 6.504a.623.623 0 1 1-1.244-.121c.056-.574.554-5.639.814-6.683.389-1.576 1.576-2.674 2.888-2.674h.012c1.088.005 1.945.777 2.237 2.013.713 3.005 1.28 7.893 1.304 8.1a.634.634 0 0 1-.318.617.624.624 0 0 1-.304.078Zm-76.19-5.365a8.284 8.284 0 0 1 3.883-9.467 8.297 8.297 0 0 1 10.125 1.512l-9.937 2.427.993 6.316" fill="#202124"/><path d="M244.554 57.094a.626.626 0 0 1-.617-.528l-.993-6.316a.62.62 0 0 1 .469-.704l8.8-2.15a7.677 7.677 0 0 0-9.045-.32 7.661 7.661 0 0 0-3.076 8.435.629.629 0 0 1-.432.771.625.625 0 0 1-.771-.43 8.908 8.908 0 0 1 4.175-10.18 8.927 8.927 0 0 1 10.888 1.624.619.619 0 0 1-.022.881.63.63 0 0 1-.283.155l-9.38 2.291.904 5.749a.625.625 0 0 1-.617.722Z" fill="#202124"/><path d="M244.555 56.47a4.542 4.542 0 0 0-7.226 5.222 4.54 4.54 0 0 0 6.374 2.027l.009.017.23 9.972a5.637 5.637 0 0 0 5.637 5.492h.009a5.642 5.642 0 0 0 5.631-5.644v-4.983a8.297 8.297 0 0 0 4.654-7.143 8.293 8.293 0 0 0-4.109-7.47 8.265 8.265 0 0 0-.125-1.986v-.006a8.25 8.25 0 0 0-2.143-4.24l-9.929 2.38.988 6.362Z" fill="#FFF1ED"/><path d="M249.589 79.826a6.232 6.232 0 0 1-6.271-6.1l-.208-9.055a5.171 5.171 0 0 1-6.362-2.753 5.163 5.163 0 0 1 6.97-6.777l-.767-4.936a.622.622 0 0 1 .472-.703l9.928-2.38a.628.628 0 0 1 .6.178 8.883 8.883 0 0 1 2.303 4.56v.002a8.93 8.93 0 0 1 .147 1.758 8.957 8.957 0 0 1 4.103 7.501 8.856 8.856 0 0 1-4.661 7.834v4.601a6.255 6.255 0 0 1-1.828 4.429 6.268 6.268 0 0 1-4.427 1.84l.001.001Zm-5.886-16.73a.625.625 0 0 1 .544.317c.053.095.084.2.09.31l.23 9.972a5.013 5.013 0 0 0 8.582 3.383 5.008 5.008 0 0 0 1.445-3.52v-4.983a.626.626 0 0 1 .351-.563 7.622 7.622 0 0 0 4.309-6.89 7.696 7.696 0 0 0-3.806-6.62.623.623 0 0 1-.308-.577 7.637 7.637 0 0 0-.115-1.836l-.001-.01a7.64 7.64 0 0 0-1.741-3.656l-9.01 2.159.9 5.794a.621.621 0 0 1-.702.714.625.625 0 0 1-.344-.163 3.911 3.911 0 0 0-4.023-.823 3.913 3.913 0 0 0 1.217 7.59 3.922 3.922 0 0 0 2.071-.515.624.624 0 0 1 .311-.083Z" fill="#202124"/><path d="M251.738 57.768a.625.625 0 0 1-.165-1.227l1.504-.412-1.664-3a.624.624 0 1 1 1.093-.606l2.05 3.695a.622.622 0 0 1-.381.905l-2.271.623a.617.617 0 0 1-.166.022Zm-3.042-2.575a.875.875 0 1 0 0-1.75.875.875 0 0 0 0 1.75Zm6.095-1.053a.875.875 0 1 0 0-1.75.875.875 0 0 0 0 1.75Zm-3.228 15.9a8.833 8.833 0 0 1-3.813-.867.625.625 0 0 1 .538-1.128 7.59 7.59 0 0 0 4.644.622 7.754 7.754 0 0 0 2-.648.626.626 0 0 1 .747.98.63.63 0 0 1-.204.144 9.053 9.053 0 0 1-3.913.896h.001Zm4.811-10.668c.55 3.866-3.749 4.214-4.539.677l4.539-.677Zm-15.236 2.188a.628.628 0 0 1-.59-.418.623.623 0 0 1 .201-.695l1.127-.896-2.598-.13a.624.624 0 0 1 .062-1.247l4.252.213a.622.622 0 0 1 .564.432.622.622 0 0 1-.206.68l-2.423 1.926a.62.62 0 0 1-.389.135Z" fill="#202124"/><path d="M454.909 117.38c.873 5.079 4.204 26.084.62 26.203l-19.447-31.388 18.827 5.185Z" fill="#FCEAED"/><path d="M455.529 144.166h.02a1.51 1.51 0 0 0 1.148-.604c.412-.506 1.668-2.048.648-12.662-.561-5.84-1.566-11.899-1.861-13.617a.582.582 0 0 0-.42-.463l-18.827-5.185a.585.585 0 0 0-.621.212.578.578 0 0 0-.029.656l19.447 31.388a.585.585 0 0 0 .495.275Zm-1.131-26.322c1.878 11.056 3.029 22.979 1.396 24.982l-.029.033-18.405-29.706 17.038 4.691Z" fill="#202124"/><path d="m395.309 101.713-16.024 17.137a17.3 17.3 0 0 1-10.562 3.611 17.862 17.862 0 0 1-7.727-1.786 17.355 17.355 0 0 1-9.708-15.63V78.737h23.299v14.406l22.814-19.088a29.438 29.438 0 0 1 5.451-3.646l9.977-1.619c.359.039.716.071 1.073.086l40.287 1.628a11.652 11.652 0 0 1 10.776 14.698l-8.873 32.502-22.502-6.116 5.028-18.387-10.841-.441a16.72 16.72 0 0 1 1.075 4.208l-33.006 3.941" fill="#FFED96"/><path d="M368.723 123.041a17.767 17.767 0 0 0 10.917-3.732.532.532 0 0 0 .07-.064l16.025-17.137a.58.58 0 0 0 .113-.618c.023 0 .045-.002.067-.004l33.006-3.942a.582.582 0 0 0 .51-.649 17.48 17.48 0 0 0-.804-3.52l9.236.376-4.835 17.681a.58.58 0 0 0 .409.716l22.502 6.116a.583.583 0 0 0 .715-.409l8.873-32.502a12.236 12.236 0 0 0-11.315-15.433l-40.286-1.629a14.931 14.931 0 0 1-1.033-.082.577.577 0 0 0-.157.004l-9.977 1.62a.569.569 0 0 0-.17.055 30.076 30.076 0 0 0-5.562 3.718l-21.858 18.288v-13.16a.58.58 0 0 0-.582-.582h-23.299a.585.585 0 0 0-.582.582v26.309a17.94 17.94 0 0 0 10.031 16.151 18.566 18.566 0 0 0 7.986 1.847Zm10.17-4.627a16.617 16.617 0 0 1-10.17 3.462 17.376 17.376 0 0 1-7.475-1.728 16.78 16.78 0 0 1-9.377-15.105V79.317h22.133V93.14a.586.586 0 0 0 .336.527.584.584 0 0 0 .62-.08L397.775 74.5a28.998 28.998 0 0 1 5.261-3.532l9.809-1.592c.391.041.722.067 1.034.08l40.287 1.628a11.068 11.068 0 0 1 10.237 13.963l-8.72 31.94-21.378-5.81 4.875-17.824a.582.582 0 0 0-.538-.737l-10.841-.44a.581.581 0 0 0-.565.798c.449 1.121.769 2.29.957 3.483l-32.416 3.871a.586.586 0 0 0-.47.8.576.576 0 0 0-.423.184l-15.991 17.102Z" fill="#202124"/><path d="M395.847 101.489c.023 0 .046-.002.069-.004a.59.59 0 0 0 .389-.218.595.595 0 0 0 .121-.429 16.15 16.15 0 0 1 .544-6.466c.871-2.926.988-6.025.34-9.008a.586.586 0 0 0-.695-.443.583.583 0 0 0-.442.695 16.95 16.95 0 0 1-.321 8.428 17.31 17.31 0 0 0-.582 6.931.58.58 0 0 0 .577.514Zm-17.553-5.144a.584.584 0 0 0 .553-.766.585.585 0 0 0-.214-.291l-3.709-2.64a.58.58 0 0 0-.912.34.59.59 0 0 0 .077.443.583.583 0 0 0 .16.165l3.708 2.64a.574.574 0 0 0 .337.109Zm49.471-3.01a.584.584 0 0 0 .433-.986.583.583 0 0 0-.409-.179l-5.106-.213a.583.583 0 0 0-.049 1.164l5.106.213a.208.208 0 0 0 .025.001Zm10.873.427a.581.581 0 0 0 .568-.456l.718-3.243a.58.58 0 0 0-.442-.695.582.582 0 0 0-.695.443l-.719 3.242a.58.58 0 0 0 .115.492.58.58 0 0 0 .455.217Z" fill="#202124"/><path d="M410.756 56.828a9.685 9.685 0 0 1-.265 3.992l1.82 6.226.388 1.476a4.34 4.34 0 0 1 .214 1.844 5.023 5.023 0 0 1-9.824.99l-.486-1.553-.559-1.928a9.712 9.712 0 0 1-8.895-4.115 9.715 9.715 0 0 1-.786-9.77 9.698 9.698 0 0 1-.263-1.273c-.098-.72-.117-1.45-.059-2.174a8.04 8.04 0 0 1 .195-1.224l5.015-5.467 13.505 12.976Z" fill="#FFF1ED"/><path d="M394.584 59.882a.582.582 0 0 0 .305-1.08l-1.613-.985 1.871-3.255a.584.584 0 0 0-.656-.854.581.581 0 0 0-.353.272l-2.156 3.747a.583.583 0 0 0 .202.787l2.097 1.281a.576.576 0 0 0 .303.087Zm2.796-4.099a.719.719 0 1 1 .892-1.127.719.719 0 0 1-.892 1.127Zm-5.33-.019a.718.718 0 1 1 .89-1.126.718.718 0 0 1-.89 1.126Zm3.982 6.997a2.66 2.66 0 0 0 1.409-.405c.311-.196.578-.454.783-.759l.049-.065a.58.58 0 0 0 .035-.646.587.587 0 0 0-.584-.28.588.588 0 0 0-.383.228l-.059.077-.019.029a1.442 1.442 0 0 1-1.013.64 1.52 1.52 0 0 1-1.195-.338l-.283-.246a.583.583 0 0 0-.763.88l.291.252a2.7 2.7 0 0 0 1.732.633Zm6.047 5.529c.02 0 .039 0 .058-.003a10.436 10.436 0 0 0 5.039-1.912.584.584 0 0 0-.248-1.044.583.583 0 0 0-.432.098 9.267 9.267 0 0 1-4.475 1.699.582.582 0 0 0 .059 1.162h-.001Z" fill="#202124"/><path d="M407.923 75.344c.528 0 1.054-.076 1.562-.224a5.661 5.661 0 0 0 4.009-4.897 4.93 4.93 0 0 0-.236-2.063l-.383-1.456-1.778-6.084c.147-.563.247-1.136.3-1.715a10.29 10.29 0 0 0-.065-2.354.573.573 0 0 0-.226-.386.58.58 0 0 0-.818.117.588.588 0 0 0-.109.435 9.091 9.091 0 0 1-.249 3.754.586.586 0 0 0 .003.319l1.819 6.225.384 1.46a3.756 3.756 0 0 1 .197 1.64 4.439 4.439 0 0 1-3.978 4.043 4.44 4.44 0 0 1-4.708-3.163l-.487-1.56-.557-1.916a.577.577 0 0 0-.612-.418 9.142 9.142 0 0 1-9.971-9.887 9.23 9.23 0 0 1 .868-3.165.58.58 0 0 0 .036-.407 9.206 9.206 0 0 1-.247-1.197 9.56 9.56 0 0 1-.055-2.05c.031-.38.09-.757.179-1.128a.572.572 0 0 0-.061-.446.579.579 0 0 0-.59-.28.586.586 0 0 0-.479.444 8.42 8.42 0 0 0-.209 1.311c-.063.77-.043 1.543.061 2.308.053.383.127.763.223 1.138a10.372 10.372 0 0 0-.886 3.37 10.307 10.307 0 0 0 10.756 11.183l.428 1.477.489 1.564a5.642 5.642 0 0 0 5.39 4.008Z" fill="#202124"/><path d="M408.492 57.933a4.18 4.18 0 0 0 3.213-3.094 4.172 4.172 0 0 0-3.553-5.139 4.17 4.17 0 0 0-4.029 1.913 4.173 4.173 0 0 0-.646 2.23" fill="#FFF1ED"/><path d="M408.491 58.517c.04 0 .079-.005.117-.012a4.756 4.756 0 1 0-5.715-4.66.584.584 0 0 0 .995.412.583.583 0 0 0 .17-.412 3.59 3.59 0 1 1 4.316 3.519.585.585 0 0 0-.463.63.581.581 0 0 0 .58.523Z" fill="#202124"/><path d="M406.585 55.869a.567.567 0 0 0 .136-.016l2.908-.693a.58.58 0 0 0 .426-.7.581.581 0 0 0-.696-.433l-1.574.375 1.04-1.762a.573.573 0 0 0 .067-.444.588.588 0 0 0-.269-.359.575.575 0 0 0-.444-.062.587.587 0 0 0-.356.273l-1.739 2.942a.579.579 0 0 0 .502.879h-.001Zm45.684 79.344c.06 0 .112-.003.155-.007 1.122-.103 2.044-1.167 2.056-2.372 0-1.81-.601-9.451-.916-12.055a.576.576 0 0 0-.218-.392.586.586 0 0 0-.821.099.572.572 0 0 0-.118.433c.313 2.58.909 10.133.909 11.909-.007.598-.473 1.17-.998 1.218-.587.059-1.355-.609-1.751-2.63-1.209-6.267-2.847-8.343-4.163-10.01-.871-1.104-1.558-1.975-1.872-3.893a.578.578 0 0 0-.669-.481.58.58 0 0 0-.481.668c.363 2.216 1.171 3.241 2.107 4.427 1.238 1.569 2.779 3.521 3.935 9.511.63 3.215 2.183 3.575 2.845 3.575Z" fill="#202124"/><path d="m429.703 148.634 16.444 45.198 34.053-4.555-20.07-55.253a16.737 16.737 0 0 0-3.434-5.635l-28.977-32.465c-.008-.074-.012-.148-.022-.222l-.16.02-.017-.02-.026.024-30.715 3.66-21.914 21.388a16.742 16.742 0 0 0-.785 21.707l33.986 42.94 27.075-18.358-25.841-34.186 3.233-3.529 17.17 19.286Z" fill="#fff"/><path d="m456.262 203.132.125 14.428-6.562.032-.13-23.504c2.833-.141 8.972-.969 14.584-1.82 2.99-.454 5.844-.916 7.994-1.289 1.074-.187 1.974-.351 2.629-.482.224-.045.421-.086.588-.123.748 6.885 6.641 15.638 17.043 17.173 4.542.671 7.524 5.099 7.395 9.808l-27.002.131-15.824-14.725-.85-.791.01 1.162Zm-44.528-19.514-.086-.036a.258.258 0 0 1-.038.008l.124.028Zm0 0 .054-.131-.068.046-.046.032-.013.009-.006.004-.006.004m34.262 10.447-3.141 2.026-7.794-12.155-.829-1.293-.091 1.533-1.083 18.225-23.33 15.029c-2.688-3.874-2.614-9.209.822-12.247 4.059-3.583 5.341-7.663 5.1-11.574-.232-3.759-1.867-7.328-3.702-10.138l.036-.025.679-.465 2.426-1.666a9437.453 9437.453 0 0 0 14.852-10.222 878.235 878.235 0 0 0 3.157-2.191l8.831 13.67c.093.369.364 1.206.712 2.233a273.222 273.222 0 0 0 2.796 7.84c.197.521.368.961.499 1.277l.06.143Z" fill="#3C4043" stroke="#202124"/><path d="M402.729 199.618a4.414 4.414 0 0 1-4.215-3.111 4.393 4.393 0 0 1 1.739-4.936c1.796-1.154 12.184-3.806 13.363-4.105a.651.651 0 0 1 .807.659.652.652 0 0 1-.14.371c-.756.949-7.448 9.312-9.232 10.463a4.404 4.404 0 0 1-2.322.659Zm9.314-10.408c-3.806 1.002-9.937 2.709-11.076 3.441a3.103 3.103 0 0 0-.862 4.264 3.121 3.121 0 0 0 4.255.947l.021-.013c1.185-.807 5.208-5.618 7.663-8.639h-.001Z" fill="#FFDA2D"/><path d="M400.512 190.993a3.532 3.532 0 0 1-.385-.018 4.407 4.407 0 0 1-3.882-4.868 4.38 4.38 0 0 1 1.635-2.946 4.415 4.415 0 0 1 3.243-.929c2.109.237 11.827 4.761 12.929 5.276a.643.643 0 0 1-.139 1.218c-1.128.242-10.634 2.267-13.401 2.267Zm.108-7.496a3.114 3.114 0 0 0-3.108 2.933 3.105 3.105 0 0 0 2.762 3.259c1.252.143 6.972-.904 11.459-1.827-4.165-1.904-9.506-4.204-10.756-4.345a3.29 3.29 0 0 0-.358-.02h.001Zm72.64 24.932a4.763 4.763 0 0 1-4.711-4.046 4.751 4.751 0 0 1 .196-2.223c.736-2.186 7.813-11.505 8.617-12.56a.65.65 0 0 1 1.165.391c0 1.325-.023 13.008-.76 15.201a4.754 4.754 0 0 1-1.732 2.341 4.773 4.773 0 0 1-2.775.896Zm3.96-16.49c-2.567 3.431-6.764 9.206-7.246 10.634a3.457 3.457 0 0 0 .165 2.652 3.456 3.456 0 0 0 2.002 1.751 3.459 3.459 0 0 0 2.657-.184 3.474 3.474 0 0 0 1.74-2.011c.481-1.436.644-8.564.682-12.842Z" fill="#FFDA2D"/><path d="M465.615 202.398a4.763 4.763 0 0 1-4.582-3.435 4.749 4.749 0 0 1 2.051-5.341c1.948-1.222 13.349-3.953 14.643-4.26a.64.64 0 0 1 .396.031.642.642 0 0 1 .401.64.637.637 0 0 1-.146.369c-.842 1.025-8.288 10.053-10.247 11.275a4.732 4.732 0 0 1-2.516.721Zm10.516-11.317c-4.167 1.029-11.086 2.839-12.358 3.638a3.456 3.456 0 0 0-1.601 3.508 3.438 3.438 0 0 0 1.41 2.252 3.47 3.47 0 0 0 3.862.101c1.28-.799 5.937-6.212 8.687-9.499Z" fill="#FFDA2D"/><path d="M471.977 167.026a3.927 3.927 0 0 1-1.857-.431 4.416 4.416 0 0 0-4.008 0 3.953 3.953 0 0 1-5.212-1.542 3.933 3.933 0 0 1 1.281-5.272 4.489 4.489 0 0 0 1.988-3.823v-.016a3.936 3.936 0 0 1 2.299-3.587 9.88 9.88 0 0 1-.463-2.144 6.116 6.116 0 0 0-2.902 2.241 6.096 6.096 0 0 0-1.096 3.494v.047a2.34 2.34 0 0 1-.256 1.126 2.345 2.345 0 0 1-.766.865 6.084 6.084 0 0 0-1.958 8.161 6.105 6.105 0 0 0 3.559 2.792 6.115 6.115 0 0 0 4.507-.422 2.261 2.261 0 0 1 2.042 0 6.085 6.085 0 0 0 3.76.588 34.35 34.35 0 0 1-.918-2.077Zm-19.548 12.993a2.244 2.244 0 0 1-1.365-1.695 6.081 6.081 0 0 0-1.941-3.527 6.105 6.105 0 0 0-9.29 1.386c.332.958.875 1.831 1.297 2.754a3.929 3.929 0 0 1 3.614-3.526 3.937 3.937 0 0 1 4.187 3.267l.002.01a4.385 4.385 0 0 0 2.673 3.326 3.93 3.93 0 0 1 .292 7.149 3.952 3.952 0 0 1-2.915.265 4.43 4.43 0 0 0-3.948.746l-.049.034c.186.718.43 1.419.732 2.096.221-.127.435-.269.639-.424a2.278 2.278 0 0 1 2.015-.384 6.114 6.114 0 0 0 4.511-.412 6.086 6.086 0 0 0-.455-11.065h.001Zm-4.796-61.191a3.953 3.953 0 0 1-5.227.546 4.427 4.427 0 0 0-3.969-.629 3.956 3.956 0 0 1-2.919-.19 3.941 3.941 0 0 1-1.985-2.144 3.925 3.925 0 0 1 .038-2.918 3.942 3.942 0 0 1 2.042-2.091 4.49 4.49 0 0 0 2.557-3.479l.004-.046c.013-.073.032-.144.048-.216a17.846 17.846 0 0 0-1.707-1.661 6.037 6.037 0 0 0-.483 1.593 2.332 2.332 0 0 1-1.322 1.85 6.098 6.098 0 0 0-3.138 3.243 6.082 6.082 0 0 0-.045 4.508 6.097 6.097 0 0 0 3.071 3.306 6.116 6.116 0 0 0 4.507.295 2.274 2.274 0 0 1 2.032.324 6.122 6.122 0 0 0 8.075-.816 61.061 61.061 0 0 1-1.579-1.475Zm-61.999 7.152a6.078 6.078 0 0 0-2.472-3.609 6.096 6.096 0 0 0-4.259-1.02 2.25 2.25 0 0 1-2.035-.802c-.116-.14-.235-.266-.339-.377l-.015-.016a6.302 6.302 0 0 0-.618-.548c-.466.551-.92 1.112-1.398 1.653.165.12.32.253.464.396.084.09.164.174.24.266a4.403 4.403 0 0 0 3.98 1.566 3.955 3.955 0 0 1 2.834.72 3.93 3.93 0 0 1 .983 5.332 3.947 3.947 0 0 1-2.391 1.68 4.413 4.413 0 0 0-3.05 2.599 3.939 3.939 0 0 1-3.233 2.415 3.95 3.95 0 0 1-3.667-1.689c.071 1.078.231 2.148.479 3.199a6.093 6.093 0 0 0 6.178-.36 6.084 6.084 0 0 0 2.241-2.742 2.237 2.237 0 0 1 1.553-1.323 6.111 6.111 0 0 0 3.783-2.736 6.09 6.09 0 0 0 .742-4.604Zm28.359 17.892c.081-.138.159-.278.236-.421a6.04 6.04 0 0 0 .638-3.909 122.315 122.315 0 0 1-1.653-2.092c-.883-.802-1.815-1.553-2.669-2.385a1.075 1.075 0 0 1-.274-.425 6.129 6.129 0 0 0-6.795 3.024v.002l-.018.03a2.325 2.325 0 0 1-1.885 1.204 6.114 6.114 0 0 0-4.121 1.876 6.087 6.087 0 0 0-.021 8.397 6.112 6.112 0 0 0 4.112 1.897 2.246 2.246 0 0 1 1.768 1.021 6.104 6.104 0 0 0 3.68 2.595 6.117 6.117 0 0 0 4.461-.631 6.084 6.084 0 0 0 2.445-7.995 2.238 2.238 0 0 1 .089-2.175l.007-.013Zm-1.67-1.438a9.005 9.005 0 0 1-.191.341 4.375 4.375 0 0 0-.172 4.245c.446.9.53 1.935.236 2.894a3.94 3.94 0 0 1-4.696 2.676 3.943 3.943 0 0 1-2.377-1.673 4.399 4.399 0 0 0-1.494-1.415 4.41 4.41 0 0 0-1.973-.586 3.945 3.945 0 0 1-2.658-1.23 3.93 3.93 0 0 1 .026-5.428 3.95 3.95 0 0 1 2.67-1.205 4.486 4.486 0 0 0 3.646-2.298l.005-.008a3.95 3.95 0 0 1 7.28.687 3.918 3.918 0 0 1-.302 3Zm-10.598 22.179a2.244 2.244 0 0 1-1.413-1.661 6.581 6.581 0 0 0-.123-.508l-.009-.034a6.106 6.106 0 0 0-5.179-4.229 6.112 6.112 0 0 0-5.954 3.048 52.603 52.603 0 0 1 1.585 1.719 3.936 3.936 0 0 1 3.774-2.645 3.945 3.945 0 0 1 3.707 2.738c.031.112.058.225.08.337v.001c.146.732.477 1.415.962 1.984a4.382 4.382 0 0 0 1.807 1.268 3.938 3.938 0 0 1 2.366 4.89 3.95 3.95 0 0 1-4.78 2.595l-.036-.008c.738.705 1.43 1.457 2.122 2.21a6.113 6.113 0 0 0 3.429-1.873 6.082 6.082 0 0 0 .686-7.36 6.107 6.107 0 0 0-3.024-2.471v-.001Z" opacity=".2" fill="#B893F2"/><path d="M412.147 130.424a.654.654 0 0 1-.591-.38.65.65 0 0 1 .103-.693l4.16-4.743a.647.647 0 0 1 .701-.197.643.643 0 0 1 .406.83.642.642 0 0 1-.131.219l-4.161 4.743a.648.648 0 0 1-.487.221Zm20.044 20.285a.65.65 0 0 1-.322-.087l-2.492-1.425a.662.662 0 0 1-.321-.392.66.66 0 0 1 .06-.503.676.676 0 0 1 .171-.194.645.645 0 0 1 .735-.033l2.492 1.426a.646.646 0 0 1 .071 1.074.65.65 0 0 1-.395.134h.001Z" fill="#222433"/><path opacity=".2" d="M440.07 149.648a6.118 6.118 0 0 1-5.578-3.614 2.248 2.248 0 0 0-1.588-1.288 6.111 6.111 0 0 1-3.77-2.507 6.082 6.082 0 0 1 1.316-8.292 6.117 6.117 0 0 1 4.362-1.221 2.346 2.346 0 0 0 2.087-.942 6.111 6.111 0 0 1 8.399-.998 6.093 6.093 0 0 1 2.349 3.9 6.079 6.079 0 0 1-1.336 4.857l-.007.008a2.23 2.23 0 0 0-.425 2.139 6.091 6.091 0 0 1-3.046 7.293 6.108 6.108 0 0 1-2.765.665h.002Zm-5.9-14.799a3.948 3.948 0 0 0-2.642 1.008 3.931 3.931 0 0 0 1.821 6.778 4.41 4.41 0 0 1 3.117 2.523 3.95 3.95 0 0 0 7.156.095 3.932 3.932 0 0 0 .2-2.906 4.365 4.365 0 0 1 .828-4.184 3.928 3.928 0 0 0-.639-5.652 3.949 3.949 0 0 0-5.413.605l-.024.032a4.499 4.499 0 0 1-3.977 1.723 4.043 4.043 0 0 0-.427-.022Zm-24.923-15.841a6.18 6.18 0 0 1-1.102-.1 6.074 6.074 0 0 1-2.218-.868 6.075 6.075 0 0 1-1.711-1.655 2.244 2.244 0 0 0-1.8-.961 6.115 6.115 0 0 1-4.18-1.75 6.087 6.087 0 0 1-.275-8.395 6.111 6.111 0 0 1 4.056-2.019 2.323 2.323 0 0 0 1.79-1.176c.017-.046.037-.091.06-.135a6.117 6.117 0 0 1 8.084-2.6 6.097 6.097 0 0 1 3.051 3.409 6.078 6.078 0 0 1-.185 4.568 6.6 6.6 0 0 1-.231.463l-.01.017a2.205 2.205 0 0 0 .005 2.17 6.079 6.079 0 0 1-.09 6.031 6.105 6.105 0 0 1-5.244 3.001Zm-3.416-16.147c-.014.035-.029.07-.046.103a4.487 4.487 0 0 1-3.573 2.442 3.946 3.946 0 0 0-2.639 1.291 3.929 3.929 0 0 0 .165 5.442 3.947 3.947 0 0 0 2.714 1.128 4.413 4.413 0 0 1 3.54 1.89 3.947 3.947 0 0 0 7.055-1.244 3.924 3.924 0 0 0-.358-2.895 4.336 4.336 0 0 1 .002-4.267 3.928 3.928 0 0 0 .287-3.233 3.935 3.935 0 0 0-1.927-2.207 3.951 3.951 0 0 0-5.22 1.551v-.001Z" fill="#B893F2"/><path d="M446.147 194.481a.651.651 0 0 1-.609-.426l-9.766-26.843a.647.647 0 0 1-.267.389l-27.074 18.357a.65.65 0 0 1-.873-.134l-33.986-42.939a17.328 17.328 0 0 1-3.767-11.423 17.325 17.325 0 0 1 4.607-11.148l21.913-21.388a.652.652 0 0 1 .377-.18l30.582-3.643a.646.646 0 0 1 .325-.038l.012-.002a.648.648 0 0 1 .721.566l.003.027 28.836 32.305a17.295 17.295 0 0 1 3.559 5.844l20.07 55.253a.64.64 0 0 1-.054.556.659.659 0 0 1-.469.307l-34.053 4.555a.846.846 0 0 1-.087.005Zm-33.614-65.777h.005a.645.645 0 0 1 .48.217l17.17 19.285a.646.646 0 0 1 .125.209l16.266 44.709 32.738-4.379-19.796-54.497a16.004 16.004 0 0 0-3.302-5.417l-28.94-32.425-30.204 3.598-21.744 21.222a16.034 16.034 0 0 0-.742 20.855l33.612 42.468 26.012-17.637-25.43-33.643a.648.648 0 0 1 .039-.826l3.233-3.529a.644.644 0 0 1 .478-.21Zm-2.391 4.215 25.359 33.548-6.364-17.494-16.611-18.655-2.384 2.601Z" fill="#222433"/><path d="M394.499 44.887c-.946.947-1.858 1.86-2.384 4.385-.04.19.189.31.326.173L395 46.886c1.2 1.6 6.5 5.55 8.5 6.883-1-1 2-5.883 5.5-3.383 4.325 3.09 1 6.5 1 7 0 .301.377 1.912.493 3.117.01.1.007.099.007-.003 1.2-4 3.833 4.27 5.5 8.27L443.5 70c.833-1.667 3.6-6.313 6-7.114 2.4-.8 5 1.334 6 2.5 9.5 11.5 26 3 23.5-9s-14-12.5-19-9.5c-5 3.001-4 4-8 6-3.2 1.6-4-2.25-8.5-6-9-7.5-13.5-6.117-17.5-5-4.361 1.219-9 5-12.5 5s-6.5-5-11.5-5c-3.536 0-6 1.5-7.5 3l-.001.001Z" fill="#202124" stroke="#202124"/></svg>