<svg width="178" height="158" fill="none" xmlns="http://www.w3.org/2000/svg"><rect x=".246" y="3.146" width="177.754" height="146.293" rx="4" fill="#F3F8FF"/><path d="M147.265 89.207a24.265 24.265 0 0 0 2.807-11.341c0-10.416-6.542-19.281-15.732-22.775l.002-.035c0-18.244-14.79-33.033-33.034-33.033-15.39 0-28.285 10.54-31.953 24.786a23.568 23.568 0 0 0-7.373-1.19c-12.1 0-22.059 9.112-23.423 20.845-8.186 1.732-14.33 8.993-14.33 17.694 0 9.99 8.1 18.09 18.09 18.09.278 0 .554-.019.827-.035-.006.275-.04.544-.04.821 0 17.81 14.437 32.248 32.247 32.248 10.126 0 19.152-4.675 25.065-11.978 3.426 3.5 8.189 5.685 13.474 5.685 7.315 0 13.645-4.168 16.779-10.253 1.654.527 3.415.815 5.244.815 9.556 0 17.304-7.747 17.304-17.303 0-5.209-2.313-9.868-5.954-13.04Z" fill="#E7F1FF"/><path d="M39.023 75.506h-15.58a.787.787 0 0 1 0-1.573h15.58a.787.787 0 0 1 0 1.573Zm4.869 0h-1.573a.787.787 0 0 1 0-1.573h1.573a.787.787 0 0 1 0 1.573Zm7.85 3.146H37.6a.787.787 0 0 1 0-1.573h14.143a.787.787 0 0 1 0 1.573Zm-17.288 0H32.88a.787.787 0 0 1 0-1.573h1.574a.787.787 0 0 1 0 1.573Zm-4.72 0h-3.146a.787.787 0 0 1 0-1.573h3.146a.787.787 0 0 1 0 1.573Zm9.439 3.146h-3.146a.787.787 0 0 1 0-1.573h3.146a.787.787 0 0 1 0 1.573Zm4.719-14.157h-1.573a.787.787 0 0 0 0 1.573h1.573a.787.787 0 0 0 0-1.573Zm0 3.146h-7.865a.787.787 0 0 0 0 1.573h7.865a.787.787 0 0 0 0-1.573Zm7.865 3.146h-4.72a.787.787 0 0 0 0 1.573h4.72a.787.787 0 0 0 0-1.573Zm92.023 26.742h-15.73a.788.788 0 0 1 0-1.573h15.73a.787.787 0 0 1 0 1.573Zm6.292 0h-3.146a.787.787 0 0 1 0-1.573h3.146a.787.787 0 0 1 0 1.573Zm7.865 3.146h-15.73a.787.787 0 0 1 0-1.573h15.73a.786.786 0 1 1 0 1.573Zm-18.876 0h-1.573a.787.787 0 1 1 0-1.573h1.573a.786.786 0 0 1 0 1.573Zm-4.916 0h-2.949a.787.787 0 1 1 0-1.573h2.949a.787.787 0 1 1 0 1.573Zm14.354-6.293h-7.865a.787.787 0 0 1 0-1.573h7.865a.787.787 0 0 1 0 1.573Zm-4.719 9.439h-3.146a.787.787 0 1 1 0-1.573h3.146a.787.787 0 1 1 0 1.573Zm-32.641-46.405h-5.505a5.506 5.506 0 0 1-5.506-5.505c0-2.802 2.1-5.088 4.806-5.435a5.501 5.501 0 0 1-.087-.858 5.506 5.506 0 0 1 5.506-5.505c1.623 0 3.067.716 4.074 1.833a6.29 6.29 0 0 1 12.443 1.313c0 .3-.047.588-.088.878a3.892 3.892 0 0 1 2.447-.878 3.926 3.926 0 0 1 3.862 3.233c.282-.044.563-.087.858-.087a5.505 5.505 0 0 1 0 11.011h-11.798v.787h-11.012v-.787Z" fill="#fff"/><path d="M108.387 53.484a.393.393 0 0 0 .393-.393 3.493 3.493 0 0 0-3.489-3.49c-.054.015-1.159-.001-1.957.215a.393.393 0 0 0 .204.758c.699-.19 1.731-.19 1.751-.186a2.706 2.706 0 0 1 2.704 2.703c0 .217.177.393.394.393Zm10.618 6.292a.789.789 0 0 0-.787.786.788.788 0 0 0 .787.787.788.788 0 0 0 .556-1.343.788.788 0 0 0-.556-.23Z" fill="#BDC1C6"/><path d="M105.634 61.349h5.506a.786.786 0 0 0 0-1.573h-5.506a4.725 4.725 0 0 1-4.719-4.72c0-2.353 1.77-4.354 4.118-4.654a.782.782 0 0 0 .676-.901c-.036-.243-.075-.485-.075-.737a4.725 4.725 0 0 1 4.719-4.719c1.337 0 2.577.559 3.491 1.573a.787.787 0 0 0 1.353-.363 5.528 5.528 0 0 1 5.381-4.356 5.512 5.512 0 0 1 5.506 5.506c0 .225-.033.44-.065.657-.046.32.099.69.381.85.281.16.623.185.874-.016a3.101 3.101 0 0 1 1.956-.705 3.137 3.137 0 0 1 3.088 2.587c.075.42.465.701.895.637.242-.038.484-.078.736-.078a4.725 4.725 0 0 1 4.719 4.72 4.725 4.725 0 0 1-4.719 4.719h-11.798a.787.787 0 0 0 0 1.573h11.798a6.298 6.298 0 0 0 6.292-6.292 6.298 6.298 0 0 0-6.292-6.293 4.13 4.13 0 0 0-.274.01 4.708 4.708 0 0 0-4.445-3.156c-.549 0-1.084.096-1.591.283-.259-3.67-3.327-6.575-7.061-6.575-2.88 0-5.452 1.773-6.533 4.364a6.26 6.26 0 0 0-3.692-1.218 6.298 6.298 0 0 0-6.286 6.516c-2.742.705-4.725 3.188-4.725 6.069a6.299 6.299 0 0 0 6.292 6.292Z" fill="#9AA0A6"/><path d="M114.286 59.776h1.573a.786.786 0 0 1 0 1.573h-1.573a.787.787 0 1 1 0-1.573Z" fill="#472B29"/><path d="M62.801 120.023a2.868 2.868 0 0 1-2.864-2.865V52.73a2.868 2.868 0 0 1 2.864-2.865h50.27a2.868 2.868 0 0 1 2.865 2.865v64.427a2.868 2.868 0 0 1-2.865 2.864h-50.27v.002Z" fill="#85B7FE"/><path d="M113.071 50.966c.974 0 1.765.792 1.765 1.765v64.426c0 .974-.791 1.765-1.765 1.765H62.803a1.766 1.766 0 0 1-1.765-1.765V52.731c0-.973.791-1.765 1.765-1.765h50.268Zm0-2.202H62.803a3.967 3.967 0 0 0-3.967 3.967v64.426a3.967 3.967 0 0 0 3.967 3.967h50.268a3.967 3.967 0 0 0 3.968-3.967V52.731a3.967 3.967 0 0 0-3.968-3.967Z" fill="#803C25"/><path d="M64.656 113.731V56.158h46.562v47.257l-10.711 10.316H64.656Z" fill="#fff"/><path d="M110.117 57.259v45.689l-10.053 9.682H65.757V57.259h44.36Zm2.202-2.202H63.555v59.775h37.397l11.367-10.948V55.057Z" fill="#803C25"/><path d="m109.271 103.821-7.969 7.374-.046-7.374h8.015Z" fill="#85B7FE"/><path d="M79.613 60.247c-1.308 0-2.373-.912-2.373-2.034v-5.085c0-1.12.52-1.293.69-1.35.056-.02.111-.042.163-.07l6.146-3.24c1.656-.81 3.094-1.194 4.499-1.194 1.41 0 2.886.387 4.644 1.215l6.08 3.632c.053.031.106.057.163.079.563.221.579.855.579.928v5.085c0 1.122-1.065 2.034-2.372 2.034h-18.22Z" fill="#93D3A2"/><path d="M88.741 48.376c1.22 0 2.517.34 4.08 1.065l6.08 3.624c.066.04.134.075.203.107v5.04c0 .505-.582.933-1.27.933H79.612c-.69 0-1.271-.428-1.271-.933v-5.087c0-.16.017-.273.034-.342.079-.031.156-.066.231-.105l6.088-3.208c1.53-.747 2.814-1.094 4.046-1.094Zm0-2.203c-1.615 0-3.214.44-5.013 1.32l-6.146 3.237c-1.148.386-1.443 1.476-1.443 2.396v5.087c0 1.732 1.556 3.136 3.474 3.136h18.22c1.92 0 3.475-1.404 3.475-3.136v-5.087c0-.61-.296-1.567-1.279-1.952l-6.174-3.68c-1.866-.88-3.498-1.32-5.114-1.32Z" fill="#803C25"/><path d="M88.724 50.337a1.573 1.573 0 1 0 0 3.146 1.573 1.573 0 0 0 0-3.146Z" fill="#472B29"/><path d="M101.623 113.259H99.42v-10.225a1.1 1.1 0 0 1 1.102-1.101h10.224v2.202h-9.123v9.124Z" fill="#803C25"/><path d="M50.97 127.416h-9.044c-3.91 1.18-7.08-1.989-7.08-5.898 0-3.67 2.804-6.653 6.38-7.008-.035-.285-.087-.564-.087-.858a7.079 7.079 0 0 1 7.079-7.078c2.262 0 4.252 1.079 5.548 2.73.22-4.146 3.621-7.45 7.823-7.45a7.867 7.867 0 0 1 7.865 7.866c0 .701-.121 1.368-.294 2.016 1.01-1.222 2.517-2.016 4.227-2.016 2.801 0 5.087 2.1 5.434 4.805.285-.034.564-.086.858-.086a7.08 7.08 0 0 1 7.078 7.079c0 3.909-3.17 7.078-7.078 5.898H55.69v1.573h-4.72v-1.573Z" fill="#fff"/><path d="M61.195 100.675c4.771 0 8.652 3.881 8.652 8.652v.073a6.191 6.191 0 0 1 3.146-.86c2.88 0 5.366 1.984 6.069 4.727.074-.005.148-.008.223-.008 4.875 0 8.73 4.458 7.697 9.512-.755 3.699-4.23 6.219-8.005 6.219h-23.09a.787.787 0 0 1 0-1.573h23.151c3.02 0 5.8-2.017 6.404-4.976a6.302 6.302 0 0 0-6.157-7.609c-.184 0-.361.027-.54.051l-.221.029a.79.79 0 0 1-.876-.681c-.3-2.348-2.302-4.118-4.655-4.118-1.392 0-2.71.631-3.62 1.73a.79.79 0 0 1-.607.287.788.788 0 0 1-.758-.99c.252-.944.318-1.681.232-2.436-.378-3.346-3.082-6.149-6.437-6.431-4.013-.338-7.433 2.718-7.644 6.679a.787.787 0 0 1-1.405.444c-1.214-1.543-3.009-2.429-4.93-2.429a6.298 6.298 0 0 0-6.292 6.292c0 .184.027.362.05.54l.03.222a.787.787 0 0 1-.701.877c-3.7.368-6.358 3.821-5.512 7.653.642 2.915 3.42 4.866 6.405 4.866h9.363a.787.787 0 1 1 0 1.573h-9.34c-3.881 0-7.406-2.681-8.047-6.51a7.823 7.823 0 0 1 6.184-9.029 3.906 3.906 0 0 1-.005-.192c0-4.337 3.529-7.865 7.865-7.865 1.85 0 3.608.654 5.008 1.831.94-3.782 4.344-6.55 8.363-6.55Z" fill="#9AA0A6"/><path d="M63.948 112.08c2.207 0 4.104 1.571 4.583 3.682a3.688 3.688 0 0 1 1.906-.536 3.74 3.74 0 0 1 3.701 3.253c.32-.071.623-.107.92-.107 2.406 0 4.422 1.887 4.59 4.297a.394.394 0 0 1-.364.42h-.029a.393.393 0 0 1-.391-.365c-.14-1.999-1.81-3.567-3.805-3.567-.36 0-.74.066-1.161.199a.35.35 0 0 1-.106.016.414.414 0 0 1-.245-.085.415.415 0 0 1-.16-.328 2.953 2.953 0 0 0-2.95-2.95c-.703 0-1.392.264-1.936.744a.394.394 0 0 1-.26.099.35.35 0 0 1-.146-.03.388.388 0 0 1-.244-.333c-.16-2.033-1.874-3.626-3.9-3.626-.327 0-.668.053-1.072.168a.394.394 0 0 1-.216-.756 4.7 4.7 0 0 1 1.285-.195Zm-21.838 2.359c2.086 0 3.945 1.411 4.52 3.433a.393.393 0 1 1-.755.215c-.48-1.685-2.027-2.86-3.764-2.86-.184 0-.362.022-.538.046a.395.395 0 0 1-.442-.337.392.392 0 0 1 .337-.442c.21-.03.423-.055.642-.055Z" fill="#BDC1C6"/><path d="M90.197 74.72a2.26 2.26 0 1 1-4.52 0 2.26 2.26 0 0 1 4.52 0Zm1.573-7.08a1.473 1.473 0 1 1-2.947 0 1.473 1.473 0 0 1 2.947 0Zm-6.292-1.572a1.473 1.473 0 1 1-2.946 0 1.473 1.473 0 0 1 2.946 0Z" fill="#FFF1ED" stroke="#FFBCA5" stroke-width=".2"/><path d="M99.143 96.495h.006l-6.295-11.366v-3.886h1.376c.76 0 1.377-.58 1.377-1.296 0-.715-.617-1.295-1.377-1.295H83.218c-.76 0-1.376.58-1.376 1.295s.617 1.296 1.376 1.296h1.377v3.886L78.3 96.494l.005.001c-.35.42-.572.937-.591 1.507-.05 1.47 1.386 2.672 2.948 2.672h16.123c1.563 0 3-1.202 2.949-2.672a2.469 2.469 0 0 0-.59-1.507Z" fill="#FFBCA5"/></svg>