<svg width="16" height="16" fill="none" xmlns="http://www.w3.org/2000/svg"><path d="M2.462 0A2.473 2.473 0 0 0 0 2.462c0 .668.303 1.254.678 1.826.375.573.846 1.14 1.303 1.712.913 1.144 1.711 2.308 1.711 3.23a.607.607 0 0 1-.615.616.615.615 0 0 0 0 1.23c.64 0 1.211-.336 1.538-.836.015.034.02.077.03.106.331.986.744 1.76 1.307 2.322a2.94 2.94 0 0 0 1.433.798v1.303H5.538a.615.615 0 1 0 0 1.231h4.923a.615.615 0 1 0 0-1.23H8.615v-1.304a2.94 2.94 0 0 0 1.433-.798c.563-.562.976-1.336 1.303-2.322.014-.029.02-.072.034-.106.326.5.899.837 1.538.837a.615.615 0 0 0 0-1.23.607.607 0 0 1-.615-.616c0-.923.798-2.087 1.711-3.231.457-.572.928-1.14 1.303-1.712.375-.572.678-1.158.678-1.826A2.473 2.473 0 0 0 13.539 0c-.904 0-1.688.5-2.116 1.23H4.577A2.455 2.455 0 0 0 2.462 0Zm0 1.23c.687 0 1.23.544 1.23 1.232h.015c.014 1.504.077 2.865.197 4.062a20.503 20.503 0 0 0-.962-1.293c-.466-.582-.918-1.13-1.235-1.616-.318-.485-.476-.899-.476-1.153a1.22 1.22 0 0 1 1.23-1.231Zm11.077 0c.687 0 1.23.544 1.23 1.232 0 .254-.158.668-.476 1.153-.317.486-.769 1.034-1.235 1.616a20.36 20.36 0 0 0-.962 1.293c.12-1.197.183-2.558.197-4.062h.015a1.22 1.22 0 0 1 1.23-1.231ZM4.99 2.463h6.02c-.044 3.25-.294 5.899-.827 7.5-.284.86-.64 1.47-1 1.831-.366.366-.721.515-1.183.515-.462 0-.817-.15-1.183-.515-.36-.36-.716-.97-1-1.831-.533-1.601-.783-4.25-.827-7.5Z" fill="#FFDA2D"/><path d="M8.45 11.6c1.497-.645 2.011-4.534 2.011-7.909l-.384 3.079a7 7 0 0 1-1.346 3.332l-.639.85A.462.462 0 0 0 8 11.23c0 .255.215.47.45.37Z" fill="#FFED96"/></svg>