<?xml version="1.0" encoding="UTF-8" standalone="no"?>
<!DOCTYPE svg PUBLIC "-//W3C//DTD SVG 1.1//EN"
 "http://www.w3.org/Graphics/SVG/1.1/DTD/svg11.dtd">
<!-- Generated by graphviz version 5.0.0 (20220707.1540)
 -->
<!-- Title: dependencies Pages: 1 -->
<svg width="463pt" height="247pt"
 viewBox="0.00 0.00 463.00 246.80" xmlns="http://www.w3.org/2000/svg" xmlns:xlink="http://www.w3.org/1999/xlink">
<g id="graph0" class="graph" transform="scale(1 1) rotate(0) translate(4 242.8)">
<title>dependencies</title>
<polygon fill="white" stroke="transparent" points="-4,4 -4,-242.8 459,-242.8 459,4 -4,4"/>
<text text-anchor="middle" x="227.5" y="-8.2" font-family="sans-serif" font-size="14.00">dependencies</text>
<g id="clust1" class="cluster">
<title>cluster_PricingModule</title>
<polygon fill="none" stroke="black" stroke-dasharray="1,5" points="8,-32.8 8,-230.8 447,-230.8 447,-32.8 8,-32.8"/>
</g>
<g id="clust2" class="cluster">
<title>cluster_PricingModule_declarations</title>
<polygon fill="none" stroke="black" points="301,-40.8 301,-92.8 439,-92.8 439,-40.8 301,-40.8"/>
</g>
<g id="clust5" class="cluster">
<title>cluster_PricingModule_exports</title>
<polygon fill="none" stroke="black" points="159,-170.8 159,-222.8 301,-222.8 301,-170.8 159,-170.8"/>
</g>
<g id="clust4" class="cluster">
<title>cluster_PricingModule_imports</title>
<polygon fill="none" stroke="black" points="16,-40.8 16,-92.8 293,-92.8 293,-40.8 16,-40.8"/>
</g>
<!-- PricingComponent -->
<g id="node1" class="node">
<title>PricingComponent</title>
<polygon fill="#ffffb3" stroke="black" points="430.77,-84.8 309.23,-84.8 309.23,-48.8 430.77,-48.8 430.77,-84.8"/>
<text text-anchor="middle" x="370" y="-62.6" font-family="Times,serif" font-size="14.00">PricingComponent</text>
</g>
<!-- PricingModule -->
<g id="node2" class="node">
<title>PricingModule</title>
<polygon fill="#8dd3c7" stroke="black" points="279.99,-149.8 276.99,-153.8 255.99,-153.8 252.99,-149.8 180.01,-149.8 180.01,-113.8 279.99,-113.8 279.99,-149.8"/>
<text text-anchor="middle" x="230" y="-127.6" font-family="Times,serif" font-size="14.00">PricingModule</text>
</g>
<!-- PricingComponent&#45;&gt;PricingModule -->
<g id="edge1" class="edge">
<title>PricingComponent&#45;&gt;PricingModule</title>
<path fill="none" stroke="black" d="M370,-84.91C370,-104.14 370,-131.8 370,-131.8 370,-131.8 290.15,-131.8 290.15,-131.8"/>
<polygon fill="black" stroke="black" points="290.15,-128.3 280.15,-131.8 290.15,-135.3 290.15,-128.3"/>
</g>
<!-- PricingComponent  -->
<g id="node5" class="node">
<title>PricingComponent </title>
<polygon fill="#fb8072" stroke="black" points="292.77,-214.8 167.23,-214.8 167.23,-178.8 292.77,-178.8 292.77,-214.8"/>
<text text-anchor="middle" x="230" y="-192.6" font-family="Times,serif" font-size="14.00">PricingComponent </text>
</g>
<!-- PricingModule&#45;&gt;PricingComponent  -->
<g id="edge4" class="edge">
<title>PricingModule&#45;&gt;PricingComponent </title>
<path fill="none" stroke="black" stroke-dasharray="5,2" d="M230,-149.91C230,-149.91 230,-168.79 230,-168.79"/>
<polygon fill="black" stroke="black" points="226.5,-168.79 230,-178.79 233.5,-168.79 226.5,-168.79"/>
</g>
<!-- KrModalModule -->
<g id="node3" class="node">
<title>KrModalModule</title>
<polygon fill="#8dd3c7" stroke="black" points="285.38,-84.8 282.38,-88.8 261.38,-88.8 258.38,-84.8 174.62,-84.8 174.62,-48.8 285.38,-48.8 285.38,-84.8"/>
<text text-anchor="middle" x="230" y="-62.6" font-family="Times,serif" font-size="14.00">KrModalModule</text>
</g>
<!-- KrModalModule&#45;&gt;PricingModule -->
<g id="edge2" class="edge">
<title>KrModalModule&#45;&gt;PricingModule</title>
<path fill="none" stroke="black" d="M230,-84.91C230,-84.91 230,-103.79 230,-103.79"/>
<polygon fill="black" stroke="black" points="226.5,-103.79 230,-113.79 233.5,-103.79 226.5,-103.79"/>
</g>
<!-- UpgradePlanModule -->
<g id="node4" class="node">
<title>UpgradePlanModule</title>
<polygon fill="#8dd3c7" stroke="black" points="156.14,-84.8 153.14,-88.8 132.14,-88.8 129.14,-84.8 23.86,-84.8 23.86,-48.8 156.14,-48.8 156.14,-84.8"/>
<text text-anchor="middle" x="90" y="-62.6" font-family="Times,serif" font-size="14.00">UpgradePlanModule</text>
</g>
<!-- UpgradePlanModule&#45;&gt;PricingModule -->
<g id="edge3" class="edge">
<title>UpgradePlanModule&#45;&gt;PricingModule</title>
<path fill="none" stroke="black" d="M90,-84.91C90,-104.14 90,-131.8 90,-131.8 90,-131.8 169.85,-131.8 169.85,-131.8"/>
<polygon fill="black" stroke="black" points="169.85,-135.3 179.85,-131.8 169.85,-128.3 169.85,-135.3"/>
</g>
</g>
</svg>
