<?xml version="1.0" encoding="UTF-8" standalone="no"?>
<!DOCTYPE svg PUBLIC "-//W3C//DTD SVG 1.1//EN"
 "http://www.w3.org/Graphics/SVG/1.1/DTD/svg11.dtd">
<!-- Generated by graphviz version 5.0.0 (20220707.1540)
 -->
<!-- Title: dependencies Pages: 1 -->
<svg width="535pt" height="247pt"
 viewBox="0.00 0.00 535.00 246.80" xmlns="http://www.w3.org/2000/svg" xmlns:xlink="http://www.w3.org/1999/xlink">
<g id="graph0" class="graph" transform="scale(1 1) rotate(0) translate(4 242.8)">
<title>dependencies</title>
<polygon fill="white" stroke="transparent" points="-4,4 -4,-242.8 531,-242.8 531,4 -4,4"/>
<text text-anchor="middle" x="263.5" y="-8.2" font-family="sans-serif" font-size="14.00">dependencies</text>
<g id="clust1" class="cluster">
<title>cluster_SmallTalkModule</title>
<polygon fill="none" stroke="black" stroke-dasharray="1,5" points="8,-32.8 8,-230.8 519,-230.8 519,-32.8 8,-32.8"/>
</g>
<g id="clust5" class="cluster">
<title>cluster_SmallTalkModule_exports</title>
<polygon fill="none" stroke="black" points="192,-170.8 192,-222.8 352,-222.8 352,-170.8 192,-170.8"/>
</g>
<g id="clust2" class="cluster">
<title>cluster_SmallTalkModule_declarations</title>
<polygon fill="none" stroke="black" points="355,-40.8 355,-92.8 511,-92.8 511,-40.8 355,-40.8"/>
</g>
<g id="clust4" class="cluster">
<title>cluster_SmallTalkModule_imports</title>
<polygon fill="none" stroke="black" points="16,-40.8 16,-92.8 347,-92.8 347,-40.8 16,-40.8"/>
</g>
<!-- SmallTalkComponent -->
<g id="node1" class="node">
<title>SmallTalkComponent</title>
<polygon fill="#ffffb3" stroke="black" points="502.66,-84.8 363.34,-84.8 363.34,-48.8 502.66,-48.8 502.66,-84.8"/>
<text text-anchor="middle" x="433" y="-62.6" font-family="Times,serif" font-size="14.00">SmallTalkComponent</text>
</g>
<!-- SmallTalkModule -->
<g id="node2" class="node">
<title>SmallTalkModule</title>
<polygon fill="#8dd3c7" stroke="black" points="330.88,-149.8 327.88,-153.8 306.88,-153.8 303.88,-149.8 213.12,-149.8 213.12,-113.8 330.88,-113.8 330.88,-149.8"/>
<text text-anchor="middle" x="272" y="-127.6" font-family="Times,serif" font-size="14.00">SmallTalkModule</text>
</g>
<!-- SmallTalkComponent&#45;&gt;SmallTalkModule -->
<g id="edge1" class="edge">
<title>SmallTalkComponent&#45;&gt;SmallTalkModule</title>
<path fill="none" stroke="black" d="M433,-84.91C433,-104.14 433,-131.8 433,-131.8 433,-131.8 341.04,-131.8 341.04,-131.8"/>
<polygon fill="black" stroke="black" points="341.04,-128.3 331.04,-131.8 341.04,-135.3 341.04,-128.3"/>
</g>
<!-- SmallTalkComponent  -->
<g id="node5" class="node">
<title>SmallTalkComponent </title>
<polygon fill="#fb8072" stroke="black" points="343.66,-214.8 200.34,-214.8 200.34,-178.8 343.66,-178.8 343.66,-214.8"/>
<text text-anchor="middle" x="272" y="-192.6" font-family="Times,serif" font-size="14.00">SmallTalkComponent </text>
</g>
<!-- SmallTalkModule&#45;&gt;SmallTalkComponent  -->
<g id="edge4" class="edge">
<title>SmallTalkModule&#45;&gt;SmallTalkComponent </title>
<path fill="none" stroke="black" stroke-dasharray="5,2" d="M272,-149.91C272,-149.91 272,-168.79 272,-168.79"/>
<polygon fill="black" stroke="black" points="268.5,-168.79 272,-178.79 275.5,-168.79 268.5,-168.79"/>
</g>
<!-- FindlySharedModule -->
<g id="node3" class="node">
<title>FindlySharedModule</title>
<polygon fill="#8dd3c7" stroke="black" points="339.49,-84.8 336.49,-88.8 315.49,-88.8 312.49,-84.8 204.51,-84.8 204.51,-48.8 339.49,-48.8 339.49,-84.8"/>
<text text-anchor="middle" x="272" y="-62.6" font-family="Times,serif" font-size="14.00">FindlySharedModule</text>
</g>
<!-- FindlySharedModule&#45;&gt;SmallTalkModule -->
<g id="edge2" class="edge">
<title>FindlySharedModule&#45;&gt;SmallTalkModule</title>
<path fill="none" stroke="black" d="M272,-84.91C272,-84.91 272,-103.79 272,-103.79"/>
<polygon fill="black" stroke="black" points="268.5,-103.79 272,-113.79 275.5,-103.79 268.5,-103.79"/>
</g>
<!-- SmallTalkRoutingModule -->
<g id="node4" class="node">
<title>SmallTalkRoutingModule</title>
<polygon fill="#8dd3c7" stroke="black" points="186.49,-84.8 183.49,-88.8 162.49,-88.8 159.49,-84.8 23.51,-84.8 23.51,-48.8 186.49,-48.8 186.49,-84.8"/>
<text text-anchor="middle" x="105" y="-62.6" font-family="Times,serif" font-size="14.00">SmallTalkRoutingModule</text>
</g>
<!-- SmallTalkRoutingModule&#45;&gt;SmallTalkModule -->
<g id="edge3" class="edge">
<title>SmallTalkRoutingModule&#45;&gt;SmallTalkModule</title>
<path fill="none" stroke="black" d="M105,-84.91C105,-104.14 105,-131.8 105,-131.8 105,-131.8 203.12,-131.8 203.12,-131.8"/>
<polygon fill="black" stroke="black" points="203.12,-135.3 213.12,-131.8 203.12,-128.3 203.12,-135.3"/>
</g>
</g>
</svg>
