<svg width="498" height="199" xmlns="http://www.w3.org/2000/svg"><g fill="none" fill-rule="evenodd"><path d="M.384.5h497.519M.384 50.5h497.519M.384 100.5h497.519M.384 150.5h497.519M.384 198.5h497.519" stroke="#E5E8EC" stroke-linecap="square"/><path fill="#E5E8EC" fill-rule="nonzero" d="M33 156h15v42H33z"/><path d="M33 95h15v62H33V95Zm61-38h15v141H94V57Z" fill="#E5E8EC" fill-rule="nonzero"/><path d="M94 0h15v58H94V0Zm61 107h15v91h-15v-91Z" fill="#E5E8EC" fill-rule="nonzero"/><path d="M155 59h15v49h-15V59Zm57 72h15v67h-15v-67Z" fill="#E5E8EC" fill-rule="nonzero"/><path d="M212 33h15v99h-15V33Zm61 128h15v37h-15v-37Zm0-25h15v25h-15v-25Zm58 21h15v42h-15v-42Z" fill="#E5E8EC" fill-rule="nonzero"/><path d="M331 107h15v54h-15v-54Zm60-22h15v113h-15V85Zm0-77h15v77h-15V8Zm58 140h15v50h-15v-50Z" fill="#E5E8EC" fill-rule="nonzero"/><path fill="#E5E8EC" fill-rule="nonzero" d="M449 75h15v74h-15z"/></g></svg>