<svg xmlns="http://www.w3.org/2000/svg" width="16" height="16"><g fill="none" fill-rule="evenodd"><path d="M0 0h16v16H0z"/><path fill="#26344A" d="M2.516 6.079a.516.516 0 0 1-.046-1.03l.046-.002h1.828a.702.702 0 0 0 .7-.653l.003-.05V2.516a.515.515 0 0 1 1.03-.046l.002.046v1.828c0 .935-.74 1.697-1.665 1.733l-.07.002H2.516zm9.14 0c-.935 0-1.697-.74-1.733-1.665l-.002-.07V2.516a.516.516 0 0 1 1.03-.046l.002.046v1.828c0 .371.288.675.653.7l.05.003h1.828a.515.515 0 0 1 .046 1.03l-.046.002h-1.828zM10.437 14a.516.516 0 0 1-.514-.47l-.002-.046v-1.828c0-.935.74-1.697 1.665-1.733l.07-.002h1.828a.516.516 0 0 1 .046 1.03l-.046.002h-1.828a.702.702 0 0 0-.7.653l-.003.05v1.828c0 .285-.23.516-.516.516zm-4.874 0a.516.516 0 0 1-.514-.47l-.002-.046v-1.828a.702.702 0 0 0-.653-.7l-.05-.003H2.516a.515.515 0 0 1-.046-1.03l.046-.002h1.828c.935 0 1.697.74 1.733 1.665l.002.07v1.828a.516.516 0 0 1-.516.516z"/></g></svg>