<svg xmlns="http://www.w3.org/2000/svg" width="16" height="16"><g fill="none" fill-rule="evenodd"><path d="M0 0h16v16H0z"/><path fill="#26344A" d="M13.484 9.921c.27 0 .49.206.514.47l.002.046v1.828c0 .935-.74 1.697-1.665 1.734l-.07.001h-1.828a.516.516 0 0 1-.046-1.03l.046-.002h1.828a.703.703 0 0 0 .701-.653l.002-.05v-1.828c0-.285.23-.516.516-.516zm-10.968 0c.27 0 .49.206.514.47l.002.046v1.828c0 .371.288.675.653.701l.05.002h1.828a.515.515 0 0 1 .046 1.03L5.564 14H3.735C2.8 14 2.038 13.26 2 12.335v-1.898c0-.285.231-.516.516-.516zM5.563 2a.516.516 0 0 1 .046 1.03l-.046.002H3.735a.703.703 0 0 0-.701.653l-.002.05v1.828a.515.515 0 0 1-1.03.046L2 5.564V3.735C2 2.8 2.74 2.038 3.665 2h1.898zm6.702 0c.935 0 1.697.74 1.734 1.665l.001.07v1.828a.516.516 0 0 1-1.03.046l-.002-.046V3.735a.703.703 0 0 0-.653-.701l-.05-.002h-1.828a.515.515 0 0 1-.046-1.03L10.436 2h1.828z"/></g></svg>