<?xml version="1.0" encoding="UTF-8" standalone="no"?>
<!DOCTYPE svg PUBLIC "-//W3C//DTD SVG 1.1//EN"
 "http://www.w3.org/Graphics/SVG/1.1/DTD/svg11.dtd">
<!-- Generated by graphviz version 5.0.0 (20220707.1540)
 -->
<!-- Title: dependencies Pages: 1 -->
<svg width="865pt" height="247pt"
 viewBox="0.00 0.00 865.00 246.80" xmlns="http://www.w3.org/2000/svg" xmlns:xlink="http://www.w3.org/1999/xlink">
<g id="graph0" class="graph" transform="scale(1 1) rotate(0) translate(4 242.8)">
<title>dependencies</title>
<polygon fill="white" stroke="transparent" points="-4,4 -4,-242.8 861,-242.8 861,4 -4,4"/>
<text text-anchor="middle" x="428.5" y="-8.2" font-family="sans-serif" font-size="14.00">dependencies</text>
<g id="clust1" class="cluster">
<title>cluster_HeaderModule</title>
<polygon fill="none" stroke="black" stroke-dasharray="1,5" points="8,-32.8 8,-230.8 849,-230.8 849,-32.8 8,-32.8"/>
</g>
<g id="clust2" class="cluster">
<title>cluster_HeaderModule_declarations</title>
<polygon fill="none" stroke="black" points="505,-40.8 505,-92.8 841,-92.8 841,-40.8 505,-40.8"/>
</g>
<g id="clust6" class="cluster">
<title>cluster_HeaderModule_exports</title>
<polygon fill="none" stroke="black" points="363,-170.8 363,-222.8 505,-222.8 505,-170.8 363,-170.8"/>
</g>
<g id="clust5" class="cluster">
<title>cluster_HeaderModule_imports</title>
<polygon fill="none" stroke="black" points="226,-40.8 226,-92.8 497,-92.8 497,-40.8 226,-40.8"/>
</g>
<g id="clust8" class="cluster">
<title>cluster_HeaderModule_providers</title>
<polygon fill="none" stroke="black" points="16,-40.8 16,-92.8 218,-92.8 218,-40.8 16,-40.8"/>
</g>
<!-- HeaderComponent -->
<g id="node1" class="node">
<title>HeaderComponent</title>
<polygon fill="#ffffb3" stroke="black" points="832.75,-84.8 711.25,-84.8 711.25,-48.8 832.75,-48.8 832.75,-84.8"/>
<text text-anchor="middle" x="772" y="-62.6" font-family="Times,serif" font-size="14.00">HeaderComponent</text>
</g>
<!-- HeaderModule -->
<g id="node3" class="node">
<title>HeaderModule</title>
<polygon fill="#8dd3c7" stroke="black" points="483.97,-149.8 480.97,-153.8 459.97,-153.8 456.97,-149.8 384.03,-149.8 384.03,-113.8 483.97,-113.8 483.97,-149.8"/>
<text text-anchor="middle" x="434" y="-127.6" font-family="Times,serif" font-size="14.00">HeaderModule</text>
</g>
<!-- HeaderComponent&#45;&gt;HeaderModule -->
<g id="edge1" class="edge">
<title>HeaderComponent&#45;&gt;HeaderModule</title>
<path fill="none" stroke="black" d="M772,-85.08C772,-106.12 772,-137.8 772,-137.8 772,-137.8 494.24,-137.8 494.24,-137.8"/>
<polygon fill="black" stroke="black" points="494.24,-134.3 484.24,-137.8 494.24,-141.3 494.24,-134.3"/>
</g>
<!-- SliderComponentComponent -->
<g id="node2" class="node">
<title>SliderComponentComponent</title>
<polygon fill="#ffffb3" stroke="black" points="693.1,-84.8 512.9,-84.8 512.9,-48.8 693.1,-48.8 693.1,-84.8"/>
<text text-anchor="middle" x="603" y="-62.6" font-family="Times,serif" font-size="14.00">SliderComponentComponent</text>
</g>
<!-- SliderComponentComponent&#45;&gt;HeaderModule -->
<g id="edge2" class="edge">
<title>SliderComponentComponent&#45;&gt;HeaderModule</title>
<path fill="none" stroke="black" d="M603,-84.82C603,-102.17 603,-125.8 603,-125.8 603,-125.8 494.25,-125.8 494.25,-125.8"/>
<polygon fill="black" stroke="black" points="494.25,-122.3 484.25,-125.8 494.25,-129.3 494.25,-122.3"/>
</g>
<!-- HeaderComponent  -->
<g id="node6" class="node">
<title>HeaderComponent </title>
<polygon fill="#fb8072" stroke="black" points="496.75,-214.8 371.25,-214.8 371.25,-178.8 496.75,-178.8 496.75,-214.8"/>
<text text-anchor="middle" x="434" y="-192.6" font-family="Times,serif" font-size="14.00">HeaderComponent </text>
</g>
<!-- HeaderModule&#45;&gt;HeaderComponent  -->
<g id="edge5" class="edge">
<title>HeaderModule&#45;&gt;HeaderComponent </title>
<path fill="none" stroke="black" stroke-dasharray="5,2" d="M434,-149.91C434,-149.91 434,-168.79 434,-168.79"/>
<polygon fill="black" stroke="black" points="430.5,-168.79 434,-178.79 437.5,-168.79 430.5,-168.79"/>
</g>
<!-- KrModalModule -->
<g id="node4" class="node">
<title>KrModalModule</title>
<polygon fill="#8dd3c7" stroke="black" points="489.38,-84.8 486.38,-88.8 465.38,-88.8 462.38,-84.8 378.62,-84.8 378.62,-48.8 489.38,-48.8 489.38,-84.8"/>
<text text-anchor="middle" x="434" y="-62.6" font-family="Times,serif" font-size="14.00">KrModalModule</text>
</g>
<!-- KrModalModule&#45;&gt;HeaderModule -->
<g id="edge3" class="edge">
<title>KrModalModule&#45;&gt;HeaderModule</title>
<path fill="none" stroke="black" d="M434,-84.91C434,-84.91 434,-103.79 434,-103.79"/>
<polygon fill="black" stroke="black" points="430.5,-103.79 434,-113.79 437.5,-103.79 430.5,-103.79"/>
</g>
<!-- OnboardingModule -->
<g id="node5" class="node">
<title>OnboardingModule</title>
<polygon fill="#8dd3c7" stroke="black" points="360.43,-84.8 357.43,-88.8 336.43,-88.8 333.43,-84.8 233.57,-84.8 233.57,-48.8 360.43,-48.8 360.43,-84.8"/>
<text text-anchor="middle" x="297" y="-62.6" font-family="Times,serif" font-size="14.00">OnboardingModule</text>
</g>
<!-- OnboardingModule&#45;&gt;HeaderModule -->
<g id="edge4" class="edge">
<title>OnboardingModule&#45;&gt;HeaderModule</title>
<path fill="none" stroke="black" d="M297,-84.82C297,-102.17 297,-125.8 297,-125.8 297,-125.8 373.76,-125.8 373.76,-125.8"/>
<polygon fill="black" stroke="black" points="373.76,-129.3 383.76,-125.8 373.76,-122.3 373.76,-129.3"/>
</g>
<!-- AppSelectionService -->
<g id="node7" class="node">
<title>AppSelectionService</title>
<ellipse fill="#fdb462" stroke="black" cx="117" cy="-66.8" rx="92.62" ry="18"/>
<text text-anchor="middle" x="117" y="-62.6" font-family="Times,serif" font-size="14.00">AppSelectionService</text>
</g>
<!-- AppSelectionService&#45;&gt;HeaderModule -->
<g id="edge6" class="edge">
<title>AppSelectionService&#45;&gt;HeaderModule</title>
<path fill="none" stroke="black" d="M117,-85.08C117,-106.12 117,-137.8 117,-137.8 117,-137.8 373.77,-137.8 373.77,-137.8"/>
<polygon fill="black" stroke="black" points="373.77,-141.3 383.77,-137.8 373.77,-134.3 373.77,-141.3"/>
</g>
</g>
</svg>
