<svg width="14" height="13" fill="none" xmlns="http://www.w3.org/2000/svg"><path d="M2.188.75A1.32 1.32 0 0 0 .875 2.063v7c0 .72.593 1.312 1.313 1.312H7V9.5H2.187a.432.432 0 0 1-.437-.438V3.375h10.5v1.75h.875V2.062A1.32 1.32 0 0 0 11.812.75H2.188Zm0 .875h9.624c.247 0 .438.191.438.438V2.5H1.75v-.438c0-.246.191-.437.438-.437Zm1.312 3.5V6h.875v-.875H3.5Zm1.75 0V6h4.375v-.875H5.25ZM11.375 6A2.632 2.632 0 0 0 8.75 8.625a2.6 2.6 0 0 0 .49 1.516l-2.22 2.222.618.618L9.86 10.76c.43.307.95.491 1.516.491A2.632 2.632 0 0 0 14 8.625 2.632 2.632 0 0 0 11.375 6ZM3.5 6.875v.875h.875v-.875H3.5Zm1.75 0v.875h2.625v-.875H5.25Zm6.125 0c.972 0 1.75.778 1.75 1.75s-.778 1.75-1.75 1.75-1.75-.778-1.75-1.75.778-1.75 1.75-1.75Z" fill="#3C4043"/></svg>