<svg width="13" height="13" fill="none" xmlns="http://www.w3.org/2000/svg"><path d="M0 5.958c0 .418.162.795.422 1.084A1.61 1.61 0 0 0 0 8.125C0 9.021.728 9.75 1.622 9.75h4.27l-.397 1.17c-.12.417-.073.856.136 1.236.208.38.552.658.967.779.763.218 1.533-.113 2.09-.975l1.996-3.293H13V0h-2.568v.027C10.389.015 10.345 0 10.297 0H2.703C1.81 0 1.081.73 1.081 1.625c0 .245.059.474.156.684A1.617 1.617 0 0 0 .572 4.73 1.616 1.616 0 0 0 0 5.958Zm11.919 1.625h-1.082v-6.5h1.082v6.5Zm-9.216-6.5h7.053V8.11l-1.983 3.274c-.345.534-.618.534-.72.534a.537.537 0 0 1-.527-.672l.633-1.863a.54.54 0 0 0-.511-.715H1.621a.542.542 0 0 1 0-1.084h1.622V6.5H1.622a.542.542 0 0 1 0-1.083h1.622V4.333H1.892a.542.542 0 0 1 0-1.083h1.352V2.167h-.54a.542.542 0 0 1 0-1.084Z" fill="#DD3646"/></svg>