<svg width="13" height="13" fill="none" xmlns="http://www.w3.org/2000/svg"><path d="M13 7.042c0-.418-.162-.795-.422-1.084A1.61 1.61 0 0 0 13 4.875c0-.896-.728-1.625-1.622-1.625h-4.27l.397-1.17A1.615 1.615 0 0 0 7.369.844a1.615 1.615 0 0 0-.967-.779c-.763-.218-1.533.113-2.09.975L2.315 4.333H0V13h2.568v-.027c.043.012.087.027.135.027h7.594c.894 0 1.622-.73 1.622-1.625 0-.245-.059-.475-.156-.684a1.618 1.618 0 0 0 .665-2.421c.347-.298.572-.735.572-1.228ZM1.081 5.417h1.082v6.5H1.08v-6.5Zm9.216 6.5H3.244V4.89l1.983-3.274c.345-.534.618-.534.72-.534a.538.538 0 0 1 .527.672l-.633 1.863a.54.54 0 0 0 .511.715h5.026a.542.542 0 0 1 0 1.084H9.756V6.5h1.622a.542.542 0 0 1 0 1.083H9.756v1.084h1.352a.542.542 0 0 1 0 1.083H9.756v1.083h.54a.542.542 0 0 1 0 1.084Z" fill="#0D6EFD"/></svg>