<svg width="70" height="59" fill="none" xmlns="http://www.w3.org/2000/svg"><g clip-path="url(#a)"><path d="M64.753 54.575h-29.5a.463.463 0 0 1-.463-.463V15.077c0-.256.208-.464.463-.464h29.5c.256 0 .464.208.464.464v39.035a.463.463 0 0 1-.464.463Z" fill="#21A0AA"/><path d="M62.834 52.489h-25.66a.392.392 0 0 1-.392-.392v-34.87c0-.216.176-.391.392-.391h25.66c.216 0 .391.175.391.392v34.869a.392.392 0 0 1-.391.392Z" fill="#fff"/><path d="M55.11 17.866H44.845a.126.126 0 0 1-.126-.127v-6.25a.126.126 0 0 1 .126-.126H55.11a.126.126 0 0 1 .126.126v6.25a.126.126 0 0 1-.126.127Z" fill="#FFCF2D"/><path d="M60.996 38.026h-9.722a.1.1 0 1 1 0-.202h9.722a.1.1 0 1 1 0 .202Zm-11.1 0h-10.66a.1.1 0 1 1 0-.202h10.66a.1.1 0 1 1 0 .202Zm11.1-3.33h-6.321a.1.1 0 0 1-.101-.1.1.1 0 0 1 .1-.102h6.322a.101.101 0 0 1 0 .202Zm-7.666 0h-6.978a.1.1 0 0 1-.101-.1.101.101 0 0 1 .1-.102h6.979a.101.101 0 0 1 .07.172.1.1 0 0 1-.07.03Zm-8.37 0h-5.723a.1.1 0 0 1-.072-.172.101.101 0 0 1 .072-.03h5.723a.1.1 0 0 1 0 .202Zm16.036-3.33H49.748a.1.1 0 1 1 0-.202h11.248a.103.103 0 0 1 .071.03.102.102 0 0 1 .022.11.1.1 0 0 1-.054.054.1.1 0 0 1-.039.008Zm-12.628 0h-9.131a.1.1 0 1 1 0-.202h9.13a.1.1 0 1 1 0 .202Z" fill="#5B2448"/><path d="M43.777 43.965h-3.153a.076.076 0 0 1-.075-.076v-3.153a.076.076 0 0 1 .075-.076h3.153a.076.076 0 0 1 .076.076v3.153a.076.076 0 0 1-.076.076Zm-3.077-.151h3.002v-3.002H40.7v3.002Z" fill="#FFCF2D"/><path d="M42.173 43.077a.075.075 0 0 1-.059-.028l-.99-1.245a.075.075 0 0 1 .012-.106.075.075 0 0 1 .106.012l.93 1.168 1.9-2.535a.074.074 0 0 1 .05-.03.075.075 0 0 1 .084.094.075.075 0 0 1-.012.027l-1.96 2.613a.076.076 0 0 1-.06.03Z" fill="#6CE0DC"/><path d="M43.777 49.578h-3.153a.076.076 0 0 1-.075-.075v-3.154a.076.076 0 0 1 .075-.076h3.153a.076.076 0 0 1 .076.076v3.154a.075.075 0 0 1-.076.075Zm-3.077-.151h3.002v-3.002H40.7v3.002Z" fill="#FFCF2D"/><path d="M42.173 48.69a.075.075 0 0 1-.059-.028l-.99-1.244a.075.075 0 0 1-.007-.084.075.075 0 0 1 .125-.01l.93 1.167 1.9-2.535a.075.075 0 0 1 .136.035.077.077 0 0 1-.014.056l-1.96 2.613a.076.076 0 0 1-.06.03Z" fill="#6CE0DC"/><path d="M54.48 42.386h-6.272a.076.076 0 0 1 0-.152h6.272a.076.076 0 1 1 0 .152Zm6.557 0H55.79a.076.076 0 0 1 0-.152h5.248a.076.076 0 1 1 0 .152Zm-14.137 0h-1.773a.076.076 0 0 1 0-.152H46.9a.075.075 0 0 1 .075.076.076.076 0 0 1-.075.076Zm10.39 5.548h-8.35a.076.076 0 1 1 0-.151h8.35a.076.076 0 0 1 0 .151Zm-9.627-.02H45.13a.076.076 0 0 1 0-.152h2.532a.076.076 0 0 1 0 .152Z" fill="#66B0F0"/><path d="M49.978 28.254c.675-.335 5.65-2.922 5.178-6.463-.43-3.233-4.48-3.4-5.152-.593a.026.026 0 0 1-.009.013.026.026 0 0 1-.03 0 .026.026 0 0 1-.01-.013c-.66-2.81-4.71-2.659-5.153.572-.486 3.54 4.503 6.146 5.176 6.484Z" fill="#9B3C82"/><path d="M49.975 26.47a.426.426 0 0 1-.394-.26l-2.001-4.55a.2.2 0 0 0-.193-.12.2.2 0 0 0-.183.135l-.745 2.14a.427.427 0 0 1-.406.289l-4.114-.013a.075.075 0 0 1-.076-.075.076.076 0 0 1 .076-.076l4.113.012c.12 0 .226-.075.264-.186l.745-2.14a.347.347 0 0 1 .32-.238.347.347 0 0 1 .337.211l2.001 4.552a.276.276 0 0 0 .256.168h.005a.274.274 0 0 0 .255-.174l1.094-2.694a.27.27 0 0 1 .254-.172c.115 0 .212.066.256.171l.667 1.627a.276.276 0 0 0 .187.167.277.277 0 0 0 .34-.193l.35-1.269c.016-.059.07-.1.132-.1l3.822.012a.076.076 0 0 1 .076.075.076.076 0 0 1-.076.076l-3.811-.012-.346 1.258a.43.43 0 0 1-.814.042l-.667-1.625a.12.12 0 0 0-.115-.077.12.12 0 0 0-.115.077L50.375 26.2a.425.425 0 0 1-.393.27h-.006Z" fill="#fff"/></g><g clip-path="url(#b)"><path d="M20.543 54.328H7.13c-2.012 0-3.5-1.912-2.956-3.846a3.41 3.41 0 0 0 .01-.04l.779-2.679c.023.007.874-3.01.874-3.01.028.01.059.015.089.015h7.707a.275.275 0 0 0 .277-.236.264.264 0 0 0-.262-.29H5.984l.728-2.507a.249.249 0 0 0 .116.028h6.804a.274.274 0 0 0 .277-.236.263.263 0 0 0-.262-.29h-6.79l.726-2.5a.258.258 0 0 0 .098.02h5.95a.274.274 0 0 0 .278-.236.264.264 0 0 0-.262-.291H7.73l.73-2.512c.038.021.08.032.124.032h5.048a.275.275 0 0 0 .277-.236.264.264 0 0 0-.262-.29H8.603l.729-2.51c.038.02.08.03.122.03h4.178a.274.274 0 0 0 .277-.236.264.264 0 0 0-.262-.29h-4.17l.414-1.43h.022v-4.534h7.847v4.535h.022l5.706 19.654.01.04c.546 1.933-.943 3.845-2.955 3.845Zm-1.738-30.086H8.867a.735.735 0 1 0 0 1.47h9.938a.736.736 0 1 0 0-1.47Z" fill="#66B0F0"/><path d="M31.321 32.813h-4.973a.644.644 0 1 0 0 1.287h4.973a.644.644 0 1 0 0-1.288Zm6.933 20.859-5.333-5.793h-8.444l-5.333 5.793a.38.38 0 0 0 .28.637h18.55a.381.381 0 0 0 .375-.442.38.38 0 0 0-.095-.195Z" fill="#9B3C82"/><path d="M38.109 54.574h-18.55a.648.648 0 0 1-.637-.751.645.645 0 0 1 .162-.331l7.607-8.263a.115.115 0 0 0 .03-.078V33.605h4.227v11.547c0 .029.011.056.03.078l7.607 8.262a.645.645 0 0 1-.476 1.082ZM27.253 34.136v11.015c0 .162-.06.318-.17.437l-7.608 8.263a.114.114 0 0 0 .022.174c.02.012.041.018.064.018h18.548a.115.115 0 0 0 .085-.192l-7.607-8.262a.644.644 0 0 1-.17-.437V34.136h-3.164Z" fill="#9B3C82"/></g><g clip-path="url(#c)"><path d="M24.683 24.781c-.76 0-1.461-.93-1.972-2.618-.497-1.64-.77-3.817-.77-6.132 0-2.314.273-4.492.77-6.132.511-1.688 1.212-2.618 1.972-2.618.761 0 1.462.93 1.973 2.618.497 1.64.77 3.818.77 6.132 0 2.315-.273 4.492-.77 6.132-.511 1.689-1.212 2.618-1.973 2.618Zm0-17.235c-.624 0-1.25.885-1.719 2.43-.489 1.615-.758 3.766-.758 6.055 0 2.29.269 4.44.758 6.056.468 1.544 1.095 2.43 1.72 2.43.624 0 1.25-.886 1.718-2.43.49-1.616.759-3.766.759-6.056s-.27-4.44-.759-6.055c-.468-1.545-1.094-2.43-1.719-2.43Z" fill="#FFCF2D"/><path d="M30.567 21.344c-.51 0-1.132-.1-1.85-.299-1.655-.46-3.646-1.395-5.607-2.634-1.961-1.24-3.66-2.635-4.783-3.931-1.157-1.335-1.57-2.422-1.162-3.063.407-.64 1.57-.732 3.274-.26 1.655.46 3.647 1.396 5.608 2.635 1.96 1.24 3.66 2.636 4.783 3.932 1.156 1.334 1.569 2.422 1.162 3.062-.236.37-.725.558-1.425.558ZM18.582 11.122c-.596 0-1.009.146-1.194.437-.334.525.081 1.527 1.14 2.748 1.106 1.277 2.784 2.655 4.724 3.88 1.94 1.226 3.906 2.151 5.537 2.604 1.559.433 2.644.38 2.979-.146.334-.526-.08-1.528-1.139-2.748-1.107-1.278-2.785-2.656-4.724-3.881-1.94-1.226-3.906-2.15-5.537-2.604-.699-.194-1.302-.29-1.786-.29Z" fill="#FFCF2D"/><path d="M18.59 21.344c-.701 0-1.19-.187-1.425-.558-.408-.64.005-1.728 1.162-3.062 1.123-1.296 2.822-2.693 4.783-3.932 1.96-1.239 3.952-2.175 5.608-2.634 1.704-.473 2.866-.381 3.274.26.407.64-.006 1.727-1.162 3.062-1.124 1.296-2.822 2.692-4.783 3.931-1.961 1.24-3.953 2.175-5.608 2.634-.718.2-1.34.299-1.85.299Zm4.59-7.44.072.111c-1.94 1.226-3.618 2.604-4.725 3.881-1.058 1.221-1.473 2.223-1.138 2.749.334.526 1.42.579 2.979.146 1.63-.453 3.597-1.378 5.537-2.603 1.94-1.226 3.617-2.604 4.724-3.881 1.058-1.22 1.473-2.223 1.139-2.748-.334-.526-1.42-.58-2.98-.147-1.63.453-3.597 1.378-5.536 2.603l-.071-.111Z" fill="#FFCF2D"/><path d="M25.68 15.964a1.11 1.11 0 0 1-1.112 1.108 1.11 1.11 0 0 1-1.112-1.108 1.11 1.11 0 0 1 1.112-1.109 1.11 1.11 0 0 1 1.111 1.109Z" fill="#F94F46"/><path d="M19.047 14.027a.934.934 0 0 1-.935.933.934.934 0 0 1-.936-.933c0-.515.419-.932.936-.932.516 0 .935.417.935.932Zm13.339-.399a.934.934 0 0 1-.936.933.934.934 0 0 1-.936-.933.935.935 0 0 1 1.872 0Zm-5.093 9.346a.934.934 0 0 1-.936.933.934.934 0 0 1-.935-.933.934.934 0 0 1 1.872 0Z" fill="#9B3C82"/></g><defs><clipPath id="a"><path fill="#fff" transform="translate(34.79 11.363)" d="M0 0h30.427v43.213H0z"/></clipPath><clipPath id="b"><path fill="#fff" transform="translate(4.06 24.242)" d="M0 0h34.697v30.333H0z"/></clipPath><clipPath id="c"><path fill="#fff" transform="translate(17.01 7.281)" d="M0 0h15.377v17.5H0z"/></clipPath></defs></svg>