<svg width="171" height="180" viewBox="0 0 171 180" fill="none" xmlns="http://www.w3.org/2000/svg">
<path d="M135.611 140.374C137.743 147.05 147.219 154.745 158.549 152.057C163.574 150.87 168.432 154.412 170.008 159.363L143.844 169.914L123.113 161.829L128.88 175.941L121.74 178.834L110.336 150.647L135.611 140.374Z" fill="#3C4043"/>
<path d="M121.74 179.391C121.812 179.391 121.883 179.378 121.949 179.351L129.089 176.458C129.156 176.431 129.218 176.39 129.27 176.339C129.322 176.287 129.364 176.226 129.392 176.158C129.421 176.091 129.435 176.019 129.436 175.945C129.436 175.872 129.422 175.8 129.395 175.732L124.118 162.82L143.642 170.435C143.774 170.486 143.921 170.485 144.052 170.432L170.216 159.881C170.347 159.829 170.452 159.729 170.512 159.602C170.572 159.474 170.581 159.329 170.538 159.196C168.788 153.698 163.466 150.325 158.421 151.517C147.248 154.168 138.155 146.512 136.141 140.206C136.117 140.133 136.079 140.066 136.029 140.008C135.978 139.951 135.916 139.904 135.847 139.872C135.777 139.839 135.702 139.821 135.625 139.82C135.548 139.818 135.472 139.831 135.401 139.86L110.127 150.133C109.991 150.189 109.882 150.296 109.824 150.432C109.767 150.567 109.766 150.72 109.821 150.857L121.225 179.043C121.266 179.146 121.337 179.234 121.429 179.296C121.521 179.358 121.63 179.391 121.74 179.391ZM128.154 175.636L122.047 178.111L111.06 150.955L135.277 141.111C137.763 147.7 147.189 155.327 158.676 152.599C163.009 151.576 167.587 154.389 169.309 159.046L143.839 169.317L123.315 161.312C123.213 161.273 123.103 161.264 122.996 161.287C122.89 161.309 122.792 161.363 122.716 161.44C122.64 161.518 122.588 161.616 122.567 161.723C122.546 161.83 122.557 161.94 122.598 162.041L128.154 175.636Z" fill="#202124"/>
<path d="M49.0523 178.856L49.0894 148.444L21.8123 148.352C22.3315 155.343 20.607 166.024 9.09173 167.767C3.99236 168.546 0.802921 173.645 1.19233 178.837L30.2309 178.856L41.4125 163.613L41.3383 178.856H49.0523Z" fill="#3C4043"/>
<path d="M30.2303 179.41C30.3177 179.41 30.4038 179.39 30.4817 179.35C30.5597 179.311 30.6272 179.254 30.6789 179.183L40.8472 165.321L40.7814 178.851C40.781 178.925 40.7951 178.997 40.8229 179.065C40.8507 179.133 40.8916 179.194 40.9433 179.246C40.995 179.298 41.0565 179.34 41.1241 179.368C41.1918 179.396 41.2644 179.41 41.3377 179.41H49.0516C49.1992 179.41 49.3407 179.352 49.445 179.247C49.5493 179.143 49.6079 179.002 49.6079 178.854L49.645 148.442C49.645 148.295 49.5867 148.154 49.4827 148.05C49.3788 147.945 49.2378 147.887 49.0906 147.886L21.8136 147.793C21.7373 147.795 21.6619 147.811 21.5919 147.841C21.5219 147.872 21.4586 147.916 21.4056 147.971C21.3532 148.027 21.313 148.093 21.2875 148.165C21.2619 148.238 21.2517 148.315 21.2573 148.391C21.632 153.437 21.1887 165.371 9.00822 167.215C3.88215 167.998 0.205593 173.121 0.63728 178.877C0.6478 179.017 0.710777 179.148 0.813587 179.243C0.916401 179.339 1.05145 179.392 1.19172 179.392L30.2303 179.41ZM48.4953 178.298H41.896L41.9674 163.614C41.968 163.496 41.9314 163.382 41.8628 163.286C41.7942 163.191 41.6972 163.12 41.5856 163.083C41.474 163.046 41.3536 163.045 41.2417 163.081C41.1298 163.117 41.0321 163.187 40.9626 163.282L29.9479 178.298L1.71909 178.279C1.57537 173.311 4.77148 168.987 9.17437 168.314C14.4888 167.51 18.288 164.802 20.4651 160.266C22.414 156.204 22.5481 151.615 22.404 148.908L48.5313 148.996L48.4953 178.298Z" fill="#202124"/>
<path d="M102.29 73.9054C103.124 78.7557 106.306 98.8171 102.882 98.9311L84.3086 68.9531L102.29 73.9054Z" fill="#FCEAED"/>
<path d="M102.882 99.4864H102.901C103.115 99.4771 103.324 99.4205 103.514 99.3208C103.703 99.2211 103.868 99.0806 103.997 98.9095C104.391 98.4255 105.591 96.9535 104.617 86.8161C104.081 81.2384 103.12 75.4515 102.839 73.8105C102.821 73.7064 102.774 73.6095 102.703 73.5312C102.632 73.4528 102.54 73.3963 102.438 73.3683L84.4563 68.416C84.3485 68.3863 84.2342 68.3897 84.1283 68.426C84.0225 68.4622 83.93 68.5295 83.863 68.619C83.796 68.7086 83.7576 68.8163 83.7527 68.928C83.7478 69.0398 83.7767 69.1504 83.8356 69.2455L102.41 99.2231C102.46 99.3036 102.529 99.37 102.612 99.4161C102.695 99.4622 102.788 99.4864 102.882 99.4864ZM101.802 74.3468C103.595 84.9061 104.694 96.2928 103.135 98.2063C103.126 98.2173 103.116 98.2278 103.108 98.2377L85.5288 69.8659L101.802 74.3468Z" fill="#202124"/>
<path d="M49.9191 106.996L50.3354 107.365L44.6982 113.725L44.2819 113.356L49.9191 106.996Z" fill="#202124"/>
<path d="M45.0526 57.7006L44.9246 57.8655L20.8181 88.9456C17.8683 92.1238 16.2293 96.3002 16.2306 100.637L16.2492 150.501L16.2494 151.001H16.7492H50.1269H50.6269V150.501V107.359L63.2193 91.7255L69.2689 99.9322L69.6139 100.4L69.6421 100.372C71.1218 102.393 73.031 104.066 75.2354 105.266C79.0458 107.351 81.8201 110.939 82.6428 115.196L82.6429 115.196C82.9024 116.533 83.319 117.834 83.8841 119.073L83.8841 119.073C85.4202 122.438 88.0078 125.214 91.2576 126.981C95.0675 129.066 97.8415 132.654 98.6641 136.91L98.6642 136.911C98.9236 138.247 99.34 139.548 99.9048 140.786C99.905 140.786 99.9052 140.787 99.9054 140.787L100.36 140.58C100.756 141.454 101.228 142.291 101.77 143.083L45.0526 57.7006ZM45.0526 57.7006L45.2598 57.6755L77.87 53.738L78.1621 53.7027L78.3348 53.941L84.0589 61.8396L84.2949 62.1653L84.0855 62.4004C84.075 62.4308 84.0618 62.4707 84.0458 62.5203C84.0023 62.6554 83.9431 62.848 83.8731 63.0826C83.7333 63.551 83.553 64.1782 83.3738 64.8301C83.1945 65.4826 83.0173 66.1562 82.8831 66.7185C82.7854 67.1283 82.7173 67.452 82.6833 67.6632C82.6927 67.6684 82.7028 67.6739 82.7134 67.6797C82.8909 67.7749 83.1621 67.8933 83.51 68.0286C84.2009 68.297 85.1327 68.608 86.0759 68.9052C87.0168 69.2017 87.96 69.4817 88.67 69.6881C89.384 69.8957 89.8532 70.0262 89.8499 70.0253L90.024 70.0703L90.1295 70.216L92.6273 73.6623L92.7828 73.8768L92.6926 74.1259C92.6874 74.1403 92.6831 74.155 92.6799 74.1698C92.5923 74.6549 92.7167 75.2685 92.9805 75.8887C93.242 76.5034 93.6118 77.0574 93.9263 77.3974L93.9462 77.419L93.9635 77.4427C95.3775 79.3853 96.3646 81.6102 97.0005 83.3586C97.6342 85.1008 97.9312 86.4045 97.9522 86.5295C98.0842 87.3194 98.3335 88.3032 98.7669 88.9696C98.9802 89.2975 99.2123 89.5084 99.4576 89.6065C99.6885 89.6988 99.9945 89.7169 100.423 89.5348L100.882 89.3399L101.078 89.798C102.394 92.8667 104.708 95.4007 107.645 96.989L107.645 96.9892C109.844 98.1815 111.753 99.8441 113.235 101.859C114.718 103.873 115.738 106.19 116.223 108.643L116.224 108.646C116.629 110.745 117.493 112.728 118.754 114.454C120.015 116.179 121.641 117.605 123.516 118.629L45.0526 57.7006Z" fill="white" stroke="#3C4043"/>
<path d="M98.821 135.85C98.8372 135.85 98.8535 135.85 98.87 135.848C99.0169 135.835 99.1528 135.765 99.2477 135.652C99.3425 135.539 99.3886 135.393 99.3758 135.246L98.5599 125.9C98.5457 125.754 98.4744 125.619 98.3617 125.526C98.249 125.432 98.1039 125.387 97.958 125.4C97.812 125.412 97.677 125.482 97.5822 125.594C97.4873 125.706 97.4404 125.85 97.4516 125.996L98.2675 135.342C98.2796 135.481 98.3431 135.61 98.4455 135.704C98.548 135.798 98.6819 135.85 98.821 135.85Z" fill="#202124"/>
<path d="M117.476 119.328C117.508 119.328 117.541 119.325 117.573 119.319C117.718 119.294 117.847 119.212 117.932 119.091C118.017 118.97 118.05 118.82 118.024 118.675L116.485 109.941C116.459 109.796 116.377 109.667 116.256 109.582C116.136 109.498 115.986 109.465 115.841 109.49C115.696 109.516 115.567 109.598 115.482 109.719C115.397 109.84 115.364 109.989 115.389 110.134L116.929 118.868C116.951 118.997 117.018 119.114 117.119 119.198C117.219 119.282 117.345 119.328 117.476 119.328Z" fill="#202124"/>
<path d="M82.6515 113.673C82.7326 113.673 82.8128 113.655 82.8864 113.621C82.96 113.587 83.0252 113.537 83.0775 113.475C83.1298 113.413 83.1679 113.34 83.1891 113.262C83.2103 113.184 83.2142 113.102 83.2004 113.022L81.513 103.231C81.5016 103.158 81.4759 103.088 81.4372 103.025C81.3986 102.962 81.3478 102.907 81.2878 102.864C81.2279 102.821 81.16 102.79 81.088 102.774C81.0161 102.757 80.9415 102.755 80.8688 102.768C80.796 102.78 80.7265 102.807 80.6642 102.847C80.602 102.887 80.5482 102.938 80.5062 102.999C80.4641 103.06 80.4345 103.128 80.4191 103.2C80.4038 103.273 80.4029 103.347 80.4167 103.42L82.1041 113.211C82.1264 113.34 82.1935 113.457 82.2936 113.541C82.3937 113.626 82.5205 113.672 82.6515 113.673Z" fill="#202124"/>
<path d="M63.0514 91.1608C63.1543 91.1607 63.2552 91.1321 63.3429 91.0781C63.4305 91.0241 63.5015 90.9469 63.5478 90.855C63.5942 90.7631 63.6141 90.6601 63.6054 90.5575C63.5968 90.455 63.5598 90.3568 63.4986 90.274L59.4748 84.8222C59.3872 84.7035 59.256 84.6244 59.1101 84.6024C59.0378 84.5915 58.9642 84.595 58.8933 84.6125C58.8223 84.6301 58.7556 84.6615 58.6968 84.7049C58.638 84.7483 58.5884 84.8028 58.5507 84.8654C58.5129 84.928 58.4879 84.9974 58.477 85.0696C58.4661 85.1418 58.4696 85.2155 58.4872 85.2864C58.5048 85.3574 58.5361 85.4241 58.5795 85.4829L62.6034 90.9347C62.6551 91.0049 62.7226 91.0619 62.8004 91.1011C62.8783 91.1404 62.9642 91.1608 63.0514 91.1608Z" fill="#202124"/>
<path d="M4.57358 165.254C7.93917 165.254 16.6652 163.986 17.7591 163.826C17.8742 163.809 17.9812 163.756 18.0649 163.675C18.1485 163.594 18.2047 163.489 18.2255 163.375C18.2462 163.26 18.2305 163.142 18.1806 163.037C18.1306 162.932 18.049 162.845 17.9471 162.789C16.864 162.19 7.30443 156.931 5.17753 156.546C4.60963 156.443 4.02705 156.453 3.46305 156.575C2.89903 156.698 2.36465 156.93 1.89039 157.259C1.41613 157.588 1.01128 158.007 0.698969 158.492C0.38666 158.978 0.173006 159.52 0.0701942 160.088C-0.0326157 160.655 -0.0225697 161.238 0.0997677 161.802C0.222107 162.366 0.454344 162.9 0.783207 163.375C1.11207 163.849 1.53112 164.254 2.01644 164.566C2.50177 164.879 3.04386 165.092 3.61175 165.195C3.93019 165.241 4.2519 165.261 4.57358 165.254ZM15.9427 162.96C11.9931 163.508 5.2161 164.354 3.80979 164.099C3.38393 164.025 2.97708 163.866 2.6126 163.634C2.24812 163.401 1.93321 163.099 1.68595 162.744C1.43869 162.389 1.26396 161.989 1.17179 161.566C1.07963 161.144 1.07186 160.707 1.14891 160.282C1.22596 159.857 1.38632 159.45 1.62078 159.087C1.85525 158.724 2.15918 158.41 2.51513 158.165C2.87108 157.919 3.27203 157.747 3.69495 157.657C4.11786 157.567 4.5544 157.561 4.97949 157.64C6.39785 157.897 12.4405 161.063 15.9427 162.96Z" fill="#FFDA2D"/>
<path d="M17.678 163.831C17.7689 163.831 17.8584 163.809 17.9386 163.766C18.0189 163.724 18.0876 163.662 18.1385 163.587C18.1895 163.512 18.2213 163.425 18.2311 163.335C18.2409 163.245 18.2285 163.153 18.1948 163.069C17.7363 161.919 13.6749 151.784 12.2684 150.153C11.7035 149.491 10.9547 149.012 10.1172 148.777C9.27965 148.541 8.39102 148.56 7.56398 148.83C6.73694 149.1 6.00874 149.61 5.47173 150.294C4.93472 150.979 4.6131 151.807 4.54763 152.675C4.50141 153.247 4.56942 153.822 4.7477 154.367C4.92597 154.912 5.21096 155.417 5.58604 155.851C6.97548 157.479 16.329 163.114 17.3912 163.751C17.4777 163.804 17.5769 163.831 17.678 163.831ZM8.91713 149.731C9.39331 149.731 9.864 149.833 10.297 150.031C10.73 150.229 11.115 150.519 11.4258 150.88C12.3621 151.965 15.0295 158.244 16.5356 161.932C13.134 159.853 7.35673 156.213 6.43273 155.129L6.43068 155.126C6.15116 154.803 5.9388 154.427 5.80598 154.021C5.67316 153.615 5.62253 153.187 5.65706 152.761C5.71747 151.937 6.08719 151.167 6.69192 150.605C7.29665 150.043 8.09161 149.731 8.91713 149.731V149.731Z" fill="#FFDA2D"/>
<path d="M45.3678 58.94L30.0634 75.3069C27.1744 77.5399 23.6271 78.7528 19.9759 78.756C17.419 78.7478 14.8968 78.1647 12.5957 77.05C9.8066 75.6808 7.45847 73.5553 5.81913 70.9159C4.17979 68.2765 3.31524 65.2295 3.3241 62.1224V36.9958H25.5759V50.7552L47.3656 32.5248C48.9658 31.1737 50.7122 30.0058 52.572 29.0428L62.1006 27.4961C62.4429 27.5332 62.7843 27.5642 63.1256 27.5779L101.603 29.1333C103.274 29.2006 104.908 29.6436 106.385 30.4296C107.861 31.2155 109.141 32.3241 110.13 33.6729C111.119 35.0217 111.791 36.5761 112.097 38.2204C112.402 39.8648 112.333 41.5569 111.894 43.1708L103.42 74.2128L81.9286 68.3716L86.7313 50.8108L76.3771 50.3891C76.8922 51.6787 77.2374 53.0297 77.4041 54.4083L45.8807 58.1726" fill="#FFED96"/>
<path d="M19.9756 79.3109C23.7507 79.3153 27.4196 78.0611 30.402 75.7464C30.4261 75.728 30.4486 75.7076 30.4693 75.6854L45.7738 59.3184C45.8465 59.2407 45.8955 59.1437 45.9147 59.0389C45.934 58.9341 45.9228 58.826 45.8824 58.7275C45.9038 58.7274 45.9251 58.7261 45.9464 58.7236L77.4698 54.9592C77.5424 54.9505 77.6126 54.9276 77.6764 54.8917C77.7402 54.8559 77.7963 54.8078 77.8414 54.7502C77.8866 54.6927 77.92 54.6267 77.9396 54.5563C77.9593 54.4858 77.9648 54.4121 77.956 54.3395C77.817 53.1953 77.5597 52.0686 77.1883 50.9775L86.01 51.3367L81.3917 68.2235C81.3724 68.294 81.3672 68.3676 81.3764 68.4402C81.3856 68.5127 81.409 68.5827 81.4453 68.6462C81.4816 68.7097 81.53 68.7654 81.5879 68.8102C81.6457 68.8549 81.7118 68.8878 81.7824 68.907L103.274 74.7482C103.416 74.7869 103.568 74.7675 103.696 74.6943C103.824 74.6211 103.918 74.5001 103.956 74.3579L112.431 43.3159C112.891 41.6211 112.964 39.8442 112.643 38.1174C112.323 36.3907 111.617 34.7584 110.579 33.342C109.54 31.9256 108.196 30.7615 106.645 29.9363C105.095 29.1111 103.379 28.646 101.624 28.5755L63.1478 27.0203C62.8559 27.0084 62.5423 26.9832 62.1611 26.9413C62.1111 26.9358 62.0607 26.9372 62.0111 26.9454L52.4827 28.4919C52.4259 28.501 52.371 28.519 52.3199 28.5451C50.4229 29.5277 48.6413 30.7188 47.0083 32.0962L26.1319 49.5628V36.9943C26.1319 36.8468 26.0733 36.7053 25.969 36.601C25.8646 36.4966 25.7231 36.438 25.5756 36.438H3.32378C3.17625 36.438 3.03476 36.4966 2.93044 36.601C2.8261 36.7053 2.76749 36.8468 2.76749 36.9943V62.1209C2.75878 65.3316 3.65229 68.48 5.34616 71.2074C7.04003 73.9348 9.46611 76.1314 12.3478 77.5468C14.7272 78.6958 17.3333 79.2985 19.9756 79.3109ZM29.6881 74.8917C26.906 77.039 23.4899 78.202 19.9756 78.1983C17.5027 78.1866 15.0636 77.6227 12.8364 76.5479C10.142 75.2236 7.87382 73.169 6.2903 70.6183C4.70678 68.0675 3.87164 65.1233 3.88008 62.1209V37.5507H25.0193V50.7537C25.0193 50.8595 25.0495 50.9631 25.1064 51.0524C25.1632 51.1416 25.2443 51.2128 25.3402 51.2576C25.4361 51.3024 25.5427 51.3189 25.6476 51.3052C25.7526 51.2914 25.8514 51.2481 25.9326 51.1802L47.7223 32.95C49.2691 31.6453 50.9542 30.514 52.7475 29.5765L62.1157 28.056C62.4893 28.0958 62.8049 28.1203 63.1031 28.1324L101.58 29.6876C103.168 29.7515 104.72 30.1725 106.123 30.9191C107.525 31.6657 108.742 32.7189 109.681 34.0002C110.62 35.2816 111.259 36.7582 111.549 38.3204C111.839 39.8825 111.774 41.4899 111.357 43.0232L103.029 73.529L82.6118 67.9796L87.2676 50.9566C87.2899 50.8758 87.2936 50.7911 87.2785 50.7087C87.2634 50.6263 87.2299 50.5483 87.1805 50.4807C87.131 50.4131 87.067 50.3575 86.9931 50.318C86.9192 50.2786 86.8373 50.2564 86.7536 50.253L76.3995 49.8315C76.3067 49.8278 76.2145 49.8473 76.1312 49.8883C76.0479 49.9293 75.9762 49.9904 75.9226 50.0662C75.8691 50.142 75.8353 50.23 75.8244 50.3222C75.8136 50.4144 75.8259 50.5079 75.8604 50.594C76.2884 51.6654 76.5949 52.7814 76.7742 53.9211L45.8144 57.6184C45.7292 57.6285 45.6476 57.6582 45.5759 57.7051C45.5041 57.752 45.4442 57.8148 45.4007 57.8887C45.3573 57.9626 45.3315 58.0455 45.3253 58.131C45.3192 58.2165 45.3329 58.3023 45.3654 58.3816C45.2896 58.3818 45.2146 58.3976 45.145 58.4279C45.0755 58.4582 45.0129 58.5025 44.9612 58.558L29.6881 74.8917Z" fill="#202124"/>
<path d="M137.556 162.8C137.635 162.8 137.713 162.798 137.792 162.794C138.954 162.728 140.043 162.204 140.82 161.337C141.597 160.469 141.997 159.329 141.934 158.166C141.822 156.023 137.793 145.88 137.334 144.73C137.291 144.622 137.215 144.53 137.117 144.468C137.018 144.405 136.903 144.375 136.787 144.381C136.671 144.388 136.559 144.43 136.469 144.503C136.378 144.576 136.312 144.676 136.281 144.788C135.95 145.981 133.052 156.509 133.165 158.651C133.228 159.773 133.719 160.828 134.535 161.599C135.352 162.371 136.433 162.801 137.556 162.8ZM140.822 158.225C140.868 159.091 140.568 159.941 139.989 160.587C139.41 161.233 138.598 161.623 137.732 161.672C136.865 161.72 136.015 161.424 135.367 160.847C134.719 160.27 134.326 159.459 134.275 158.593C134.199 157.163 135.879 150.548 136.912 146.699C138.359 150.41 140.747 156.797 140.822 158.225V158.225Z" fill="#FFDA2D"/>
<path d="M128.826 160.187C129.053 160.187 129.279 160.17 129.503 160.135C130.072 160.05 130.619 159.852 131.111 159.553C131.603 159.254 132.031 158.86 132.369 158.394C133.649 156.659 136.972 146.266 137.346 145.086C137.382 144.975 137.381 144.856 137.345 144.745C137.309 144.634 137.239 144.538 137.145 144.469C137.051 144.4 136.938 144.363 136.822 144.361C136.705 144.36 136.591 144.396 136.496 144.463C135.485 145.174 126.576 151.463 125.299 153.191C124.819 153.845 124.529 154.619 124.462 155.427C124.394 156.236 124.552 157.047 124.917 157.771C125.282 158.495 125.841 159.104 126.531 159.53C127.221 159.957 128.015 160.184 128.826 160.187ZM135.773 146.341C134.535 150.128 132.325 156.582 131.474 157.734L131.471 157.738C131.217 158.085 130.896 158.378 130.528 158.601C130.16 158.824 129.752 158.972 129.326 159.036C128.901 159.101 128.467 159.081 128.049 158.978C127.632 158.874 127.239 158.689 126.893 158.434C126.545 158.179 126.251 157.858 126.028 157.489C125.804 157.12 125.656 156.71 125.591 156.284C125.525 155.859 125.544 155.425 125.648 155.008C125.751 154.59 125.937 154.198 126.193 153.853C127.046 152.699 132.535 148.658 135.773 146.341Z" fill="#FFDA2D"/>
<path d="M45.8809 58.7262C45.9029 58.7262 45.9249 58.725 45.9467 58.7225C46.0193 58.714 46.0894 58.6913 46.1532 58.6556C46.217 58.62 46.2731 58.5721 46.3184 58.5148C46.3636 58.4574 46.3972 58.3917 46.417 58.3214C46.4369 58.2511 46.4428 58.1776 46.4342 58.105C46.1873 56.0325 46.3639 53.9313 46.9534 51.9291C47.785 49.1346 47.8967 46.1752 47.2781 43.326C47.2462 43.1819 47.1583 43.0565 47.0338 42.9772C46.9722 42.938 46.9034 42.9112 46.8315 42.8986C46.7595 42.8859 46.6858 42.8875 46.6145 42.9034C46.5431 42.9192 46.4756 42.9489 46.4158 42.9908C46.3559 43.0327 46.305 43.086 46.2657 43.1477C46.2265 43.2093 46.1997 43.278 46.1871 43.35C46.1744 43.422 46.176 43.4957 46.1918 43.567C46.7698 46.2329 46.6646 49.0016 45.8861 51.6159C45.2542 53.7621 45.0649 56.0144 45.3298 58.2359C45.3459 58.3709 45.4109 58.4952 45.5124 58.5856C45.6139 58.6759 45.745 58.7259 45.8809 58.7262Z" fill="#202124"/>
<path d="M29.1169 53.8137C29.2348 53.8137 29.3497 53.7763 29.445 53.7068C29.5402 53.6373 29.6109 53.5393 29.6469 53.427C29.6828 53.3146 29.6821 53.1938 29.6449 53.0819C29.6077 52.97 29.5359 52.8728 29.4399 52.8044L25.8982 50.2824C25.8387 50.2389 25.7712 50.2075 25.6996 50.1903C25.6279 50.173 25.5536 50.1702 25.4808 50.1819C25.4081 50.1936 25.3383 50.2197 25.2757 50.2586C25.2131 50.2975 25.1589 50.3484 25.1161 50.4084C25.0734 50.4685 25.043 50.5364 25.0267 50.6083C25.0104 50.6801 25.0086 50.7545 25.0213 50.8271C25.0341 50.8997 25.0611 50.9691 25.1008 51.0311C25.1406 51.0932 25.1923 51.1468 25.2529 51.1887L28.7946 53.7106C28.8886 53.7778 29.0013 53.8138 29.1169 53.8137Z" fill="#202124"/>
<path d="M76.3658 50.9393C76.5133 50.9424 76.656 50.8866 76.7625 50.7845C76.8689 50.6823 76.9305 50.542 76.9335 50.3944C76.9365 50.2469 76.8808 50.1042 76.7786 49.9977C76.6764 49.8913 76.5361 49.8298 76.3886 49.8267L71.5117 49.6227C71.3658 49.6189 71.2242 49.6727 71.1175 49.7724C71.0108 49.8721 70.9475 50.0097 70.9414 50.1556C70.9353 50.3015 70.9868 50.4439 71.0848 50.5522C71.1828 50.6604 71.3194 50.7258 71.4652 50.7342L76.342 50.9382C76.3504 50.9393 76.3584 50.9393 76.3658 50.9393Z" fill="#202124"/>
<path d="M86.7493 51.3465C86.8759 51.3464 86.9986 51.3031 87.0972 51.2238C87.1959 51.1445 87.2645 51.034 87.2919 50.9104L87.978 47.8136C88.01 47.6696 87.9834 47.5187 87.9041 47.3942C87.8249 47.2698 87.6994 47.1819 87.5554 47.1499C87.4113 47.118 87.2605 47.1445 87.136 47.2238C87.0116 47.303 86.9237 47.4285 86.8917 47.5725L86.2056 50.6693C86.1875 50.7507 86.1879 50.8351 86.2068 50.9164C86.2257 50.9976 86.2626 51.0735 86.3148 51.1385C86.367 51.2035 86.4332 51.256 86.5084 51.292C86.5836 51.328 86.6659 51.3466 86.7493 51.3465Z" fill="#202124"/>
<path d="M60.1195 16.0725C60.2198 16.7742 60.2392 17.4852 60.1772 18.1913C60.1252 18.7641 60.0215 19.3311 59.8673 19.8853L61.605 25.8313L61.9759 27.2406C62.1702 27.8062 62.2397 28.4072 62.1799 29.0022C62.0833 30.1161 61.6009 31.1612 60.8159 31.9573C60.0309 32.7533 58.9926 33.2503 57.8802 33.3625C56.7679 33.4746 55.6513 33.1948 54.7233 32.5714C53.7952 31.948 53.1139 31.0201 52.797 29.9479L52.3335 28.4645L51.799 26.6233C50.1618 26.7796 48.5124 26.4981 47.0197 25.8074C45.527 25.1168 44.2447 24.0418 43.304 22.6927C42.3633 21.3435 41.798 19.7686 41.666 18.1292C41.5341 16.4897 41.8401 14.8446 42.5529 13.3624C42.4419 12.963 42.358 12.5567 42.3016 12.1461C42.2085 11.4578 42.1899 10.7615 42.246 10.0692C42.2777 9.67561 42.3397 9.28503 42.4314 8.90096L47.2219 3.67871L60.1195 16.0725Z" fill="#FFF1ED"/>
<path d="M44.6749 18.9889C44.7962 18.989 44.9142 18.9495 45.0109 18.8763C45.1076 18.8031 45.1778 18.7004 45.2107 18.5836C45.2436 18.4669 45.2375 18.3426 45.1933 18.2297C45.149 18.1168 45.0691 18.0214 44.9656 17.9581L43.4251 17.0166L45.2126 13.908C45.2864 13.7801 45.3063 13.6282 45.2681 13.4856C45.2298 13.343 45.1365 13.2215 45.0087 13.1477C44.8808 13.074 44.7289 13.054 44.5863 13.0923C44.4437 13.1305 44.3222 13.2238 44.2484 13.3517L42.1901 16.9306C42.1179 17.0563 42.0976 17.2052 42.1335 17.3456C42.1694 17.4861 42.2587 17.607 42.3824 17.6825L44.3851 18.9064C44.4721 18.9603 44.5725 18.9888 44.6749 18.9889Z" fill="#202124"/>
<path d="M47.3453 15.0742C47.0482 14.8391 46.9979 14.4076 47.233 14.1104C47.4682 13.8132 47.8997 13.763 48.1968 13.9981C48.494 14.2332 48.5443 14.6647 48.3091 14.9619C48.074 15.259 47.6425 15.3093 47.3453 15.0742Z" fill="#202124"/>
<path d="M42.254 15.0566C41.9569 14.8215 41.9066 14.39 42.1417 14.0928C42.3768 13.7957 42.8083 13.7454 43.1055 13.9805C43.4027 14.2156 43.4529 14.6471 43.2178 14.9443C42.9827 15.2415 42.5512 15.2917 42.254 15.0566Z" fill="#202124"/>
<path d="M46.0581 21.7382C46.1816 21.7382 46.3048 21.7292 46.427 21.7113C46.7741 21.6607 47.1068 21.5381 47.4038 21.3513C47.7008 21.1646 47.9555 20.9178 48.1515 20.6268L48.1978 20.5649C48.2417 20.5065 48.2735 20.44 48.2917 20.3692C48.3098 20.2984 48.3138 20.2248 48.3035 20.1524C48.2932 20.0801 48.2687 20.0105 48.2315 19.9477C48.1942 19.8848 48.145 19.8299 48.0866 19.7861C48.0281 19.7422 47.9616 19.7103 47.8909 19.6922C47.8201 19.6741 47.7464 19.6701 47.6741 19.6804C47.6018 19.6907 47.5322 19.7152 47.4694 19.7524C47.4065 19.7896 47.3516 19.8389 47.3078 19.8973L47.2521 19.9715C47.2456 19.9802 47.2391 19.99 47.2336 19.9986C47.1253 20.1637 46.9829 20.3037 46.816 20.4092C46.6491 20.5148 46.4616 20.5834 46.266 20.6105C46.0638 20.6397 45.8576 20.626 45.6611 20.5702C45.4645 20.5145 45.2818 20.418 45.125 20.2869L44.8543 20.052C44.7428 19.9554 44.5975 19.907 44.4503 19.9175C44.3031 19.9281 44.1662 19.9967 44.0696 20.1082C43.9729 20.2197 43.9246 20.365 43.9351 20.5122C43.9457 20.6594 44.0142 20.7963 44.1257 20.8929L44.4039 21.134C44.8673 21.5234 45.4529 21.7373 46.0581 21.7382Z" fill="#202124"/>
<path d="M51.8329 27.0188C51.8514 27.0188 51.87 27.0188 51.8885 27.0162C53.6248 26.8393 55.2842 26.2095 56.7006 25.1898C56.8188 25.1031 56.8979 24.9733 56.9209 24.8285C56.9438 24.6838 56.9088 24.5359 56.8233 24.4168C56.7378 24.2978 56.6088 24.2173 56.4643 24.1929C56.3198 24.1684 56.1715 24.2019 56.0516 24.2862C54.7936 25.192 53.3198 25.7516 51.7776 25.9089C51.6356 25.9232 51.5045 25.9915 51.4115 26.0997C51.3184 26.2079 51.2705 26.3478 51.2776 26.4903C51.2848 26.6329 51.3464 26.7672 51.4498 26.8656C51.5533 26.9639 51.6906 27.0188 51.8333 27.0188H51.8329Z" fill="#202124"/>
<path d="M42.3575 8.70359L42.3577 8.70255C42.7384 6.96101 43.6094 5.36473 44.8678 4.10213C46.1262 2.83953 47.7196 1.96331 49.4598 1.5769C51.2 1.19048 53.0145 1.31001 54.689 1.92136C56.3635 2.53272 57.8281 3.61038 58.9101 5.02715L58.9381 5.06384L58.9724 5.09478C58.9762 5.09827 58.9797 5.10224 58.9826 5.1066C60.2011 6.96518 61.6863 8.07057 63.4172 8.22793L63.4173 8.22794C65.2621 8.39523 67.1931 7.4313 68.8691 5.67404L68.8703 5.67273C68.9519 5.58663 69.0313 5.50885 69.0979 5.44633L69.1049 5.43984L69.1115 5.43309C70.6602 3.86483 72.5058 2.62088 74.5405 1.7739C76.5753 0.926912 78.7584 0.493871 80.9624 0.500066C83.8364 0.508195 86.6602 1.25361 89.1638 2.66501C91.6674 4.07641 93.767 6.10659 95.2617 8.56135L95.2936 8.61366L95.3371 8.65674C95.3406 8.6602 95.3436 8.66414 95.3461 8.66845L95.3464 8.66905C96.6288 10.9013 98.3792 12.2673 100.44 12.4676L42.3575 8.70359ZM42.3575 8.70359C42.3549 8.71568 42.3562 8.72832 42.3615 8.73954C42.3667 8.75079 42.3755 8.75997 42.3865 8.76568C42.3975 8.7714 42.4101 8.77333 42.4222 8.77119C42.4344 8.76904 42.4456 8.76294 42.454 8.7538L42.4543 8.75349L44.7762 6.22692L45.1075 5.86644L45.4749 6.19007L49.8696 10.0616L49.8844 10.0746L49.8981 10.0888C50.6171 10.8304 51.7948 11.5636 52.8269 12.0259C52.8348 11.9938 52.8429 11.9612 52.851 11.9283L52.8767 11.8245C52.923 11.6378 52.9698 11.4493 53.0066 11.3052C53.0249 11.2335 53.0413 11.1703 53.0542 11.1231C53.0605 11.1 53.067 11.0769 53.0731 11.0571C53.076 11.0478 53.0803 11.0339 53.0856 11.0192C53.0882 11.012 53.0929 10.9994 53.0994 10.9845C53.1016 10.9793 53.1202 10.9348 53.1554 10.8867L53.1562 10.8855C53.8597 9.92871 54.7067 9.19538 55.7371 8.86054C56.7767 8.52273 57.9347 8.61263 59.2092 9.17553C60.5259 9.75695 61.318 11.0993 61.5433 12.4678C61.7658 13.8192 61.4569 15.326 60.4109 16.3078C60.4119 16.4403 60.4117 16.5765 60.4116 16.7102C60.4114 16.8685 60.4112 17.0234 60.4129 17.1645L60.4129 17.1653C60.4147 17.3426 60.407 17.5098 60.3958 17.6685C60.3882 18.2451 60.2634 18.8159 60.12 19.3481C60.2252 19.1678 60.3477 18.9856 60.4862 18.826C60.7031 18.576 61.0498 18.2774 61.5099 18.2852L61.513 18.2853C61.8713 18.2935 62.3826 18.5014 63.0327 19.2366C63.6838 19.973 64.5211 21.2889 65.5392 23.6419L65.5417 23.6479C65.6136 23.82 65.6799 23.9809 65.7425 24.1326C66.188 25.2129 66.4426 25.8302 67.126 26.7351C70.0718 26.8005 91.5077 27.7219 94.0984 27.834C94.3267 27.552 94.485 27.2922 94.637 27.0126C94.6925 26.9105 94.7501 26.7999 94.8114 26.682C94.9469 26.4214 95.101 26.125 95.2933 25.8054L95.3147 25.7699L95.3416 25.7384C95.3423 25.7375 95.3431 25.7365 95.3438 25.7356C95.3446 25.7344 95.3454 25.7332 95.3461 25.732L95.3464 25.7314C96.6207 23.5125 98.362 22.1509 100.414 21.9412C102.491 21.7287 104.57 22.7485 106.284 24.6733L106.301 24.6921L106.316 24.7126C107.872 26.8625 110.059 28.4752 112.572 29.3273C115.085 30.1795 117.802 30.2289 120.344 29.4688C122.887 28.7087 125.131 27.1766 126.764 25.0848C128.398 22.993 129.34 20.445 129.461 17.7937C129.582 15.1424 128.876 12.5191 127.44 10.2871C126.004 8.0551 123.91 6.3249 121.447 5.33614C118.984 4.34738 116.274 4.14902 113.694 4.76851C111.113 5.388 108.789 6.79469 107.043 8.79375L107.029 8.80934L107.015 8.82375C107.014 8.82452 107.013 8.82532 107.012 8.82615C107.012 8.82711 107.011 8.8281 107.01 8.82914L107.01 8.82923L107.002 8.83923L106.998 8.84424L106.991 8.85417L106.982 8.8637C106.763 9.11894 106.568 9.36192 106.387 9.60559L106.376 9.62163M42.3575 8.70359L106.376 9.62163M106.376 9.62163L106.362 9.63667M106.376 9.62163L106.362 9.63667M106.362 9.63667C104.637 11.6147 102.541 12.6721 100.44 12.4676L106.362 9.63667Z" fill="#3C4043" stroke="#202124"/>
<path d="M57.4143 33.7569C57.9192 33.7567 58.4215 33.6846 58.9061 33.5429C59.9376 33.2337 60.8533 32.6232 61.5355 31.79C62.2177 30.9567 62.6353 29.9385 62.7349 28.8662C62.8009 28.2007 62.7241 27.5288 62.5096 26.8954L62.1437 25.5046L60.4457 19.694C60.5861 19.1568 60.6819 18.6088 60.732 18.0558C60.7976 17.3069 60.7771 16.5528 60.6708 15.8085C60.661 15.7358 60.6368 15.6657 60.5998 15.6023C60.5627 15.5389 60.5135 15.4834 60.4549 15.4392C60.3963 15.3949 60.3295 15.3627 60.2584 15.3444C60.1873 15.326 60.1132 15.322 60.0405 15.3324C59.9678 15.3428 59.8979 15.3675 59.8349 15.4051C59.7718 15.4427 59.7167 15.4924 59.673 15.5513C59.6292 15.6103 59.5975 15.6773 59.5797 15.7486C59.562 15.8199 59.5585 15.8939 59.5695 15.9665C59.6636 16.6261 59.6818 17.2942 59.6237 17.9579C59.5746 18.4969 59.4769 19.0304 59.3318 19.5518C59.3043 19.6515 59.305 19.757 59.334 19.8564L61.0717 25.8024L61.4387 27.1971C61.442 27.2103 61.4461 27.2234 61.4506 27.2364C61.6186 27.7268 61.6788 28.2477 61.6269 28.7635C61.5428 29.749 61.1171 30.6741 60.4233 31.379C59.7295 32.0839 58.8112 32.5243 57.8271 32.6239C56.8431 32.7235 55.8552 32.4762 55.0341 31.9247C54.2131 31.3732 53.6106 30.5522 53.3307 29.6035L52.8651 28.1137L52.334 26.2833C52.298 26.1592 52.2198 26.0515 52.113 25.9787C52.0062 25.9059 51.8774 25.8725 51.7488 25.8844C51.2255 25.9326 50.6991 25.9342 50.1756 25.8892C47.8686 25.6905 45.735 24.5834 44.2442 22.8116C42.7534 21.0398 42.0275 18.7483 42.2261 16.4412C42.3192 15.3922 42.6001 14.3684 43.0553 13.4186C43.1135 13.2973 43.1257 13.1589 43.0896 13.0292C42.9855 12.6539 42.9066 12.272 42.8534 11.8862C42.7654 11.2374 42.7479 10.5809 42.8013 9.92836C42.83 9.56547 42.887 9.20537 42.9717 8.85134C42.9908 8.78001 42.9956 8.70558 42.9857 8.63239C42.9757 8.5592 42.9513 8.48872 42.9139 8.42507C42.8764 8.36141 42.8267 8.30585 42.7675 8.26163C42.7084 8.2174 42.641 8.1854 42.5693 8.16749C42.4977 8.14958 42.4232 8.14611 42.3502 8.15729C42.2772 8.16848 42.2071 8.19409 42.1441 8.23263C42.0811 8.27117 42.0264 8.32187 41.9832 8.38177C41.94 8.44168 41.9092 8.50958 41.8925 8.58153C41.7933 8.99322 41.7265 9.41204 41.6926 9.83415C41.6325 10.5688 41.6522 11.3077 41.7514 12.0381C41.8017 12.4043 41.8727 12.7673 41.9641 13.1255C41.5025 14.1428 41.2164 15.2309 41.1178 16.3437C41.0066 17.6317 41.1502 18.929 41.5404 20.1616C41.9306 21.3941 42.5597 22.5377 43.3919 23.527C44.2241 24.5164 45.2429 25.3322 46.3904 25.9277C47.5378 26.5233 48.7913 26.887 50.0793 26.9981C50.5153 27.0358 50.9533 27.0446 51.3905 27.0245L51.7999 28.4349L52.2667 29.9293C52.6009 31.0349 53.2817 32.0038 54.2086 32.693C55.1354 33.3822 56.2593 33.7551 57.4143 33.7569Z" fill="#202124"/>
<path d="M57.9583 17.1283C58.6969 16.9763 59.3772 16.618 59.9204 16.0949C60.4635 15.5718 60.8472 14.9054 61.0268 14.173C61.2065 13.4407 61.1747 12.6724 60.9353 11.9573C60.6959 11.2423 60.2586 10.6098 59.6742 10.1333C59.0897 9.65674 58.3822 9.35573 57.6336 9.26518C56.885 9.17463 56.126 9.29824 55.4449 9.62167C54.7637 9.9451 54.1882 10.4551 53.7852 11.0924C53.3822 11.7298 53.1682 12.4684 53.1681 13.2224" fill="#FFF1ED"/>
<path d="M57.9579 17.6848C57.9952 17.6847 58.0325 17.6809 58.0691 17.6735C58.9108 17.5004 59.6862 17.0922 60.3052 16.4961C60.9243 15.9001 61.3616 15.1407 61.5664 14.3061C61.7712 13.4715 61.7351 12.596 61.4623 11.7811C61.1894 10.9662 60.6911 10.2454 60.0251 9.70231C59.3591 9.15925 58.5528 8.81623 57.6997 8.71305C56.8466 8.60986 55.9817 8.75076 55.2054 9.11938C54.4292 9.488 53.7734 10.0692 53.3142 10.7956C52.855 11.5219 52.6112 12.3636 52.6111 13.223C52.6111 13.3705 52.6697 13.512 52.7741 13.6164C52.8784 13.7207 53.0199 13.7793 53.1674 13.7793C53.315 13.7793 53.4565 13.7207 53.5608 13.6164C53.6651 13.512 53.7237 13.3705 53.7237 13.223C53.7239 12.5742 53.908 11.9387 54.2548 11.3903C54.6015 10.8419 55.0967 10.4031 55.6828 10.1248C56.2689 9.84649 56.9219 9.74011 57.566 9.81801C58.2101 9.8959 58.819 10.1549 59.3218 10.5648C59.8247 10.9748 60.201 11.519 60.4071 12.1343C60.6131 12.7495 60.6405 13.4106 60.486 14.0407C60.3315 14.6709 60.0014 15.2443 59.5341 15.6945C59.0669 16.1446 58.4815 16.453 57.846 16.5838C57.7109 16.6113 57.5907 16.688 57.5089 16.7991C57.427 16.9102 57.3894 17.0477 57.4033 17.1849C57.4171 17.3222 57.4815 17.4494 57.5839 17.5419C57.6863 17.6343 57.8193 17.6855 57.9573 17.6853L57.9579 17.6848Z" fill="#202124"/>
<path d="M56.1368 15.1565C56.1805 15.1566 56.2241 15.1515 56.2666 15.1413L59.0444 14.4789C59.1866 14.4435 59.3091 14.3533 59.3853 14.2281C59.4615 14.1028 59.4851 13.9526 59.4511 13.81C59.4171 13.6674 59.3282 13.544 59.2037 13.4666C59.0792 13.3892 58.9292 13.3641 58.7862 13.3967L57.2826 13.7553L58.2765 12.0727C58.3145 12.0097 58.3397 11.9399 58.3506 11.8671C58.3615 11.7944 58.3578 11.7203 58.3399 11.6489C58.3219 11.5776 58.29 11.5106 58.246 11.4517C58.2019 11.3928 58.1466 11.3432 58.0833 11.3058C58.02 11.2684 57.9499 11.2439 57.8771 11.2338C57.8042 11.2237 57.7301 11.2281 57.659 11.2468C57.5879 11.2655 57.5212 11.2981 57.4627 11.3428C57.4043 11.3874 57.3553 11.4432 57.3185 11.5069L55.6585 14.3174C55.6087 14.4018 55.582 14.498 55.5813 14.5961C55.5806 14.6942 55.6059 14.7907 55.6545 14.8759C55.7031 14.9611 55.7734 15.032 55.8582 15.0812C55.9431 15.1305 56.0394 15.1564 56.1375 15.1565H56.1368Z" fill="#202124"/>
<path d="M99.7688 90.9354C99.8257 90.9354 99.8756 90.9326 99.9171 90.9287C100.988 90.8304 101.869 89.814 101.881 88.6632C101.881 86.9338 101.306 79.6365 101.005 77.1491C100.997 77.076 100.975 77.0053 100.939 76.941C100.903 76.8768 100.855 76.8202 100.798 76.7746C100.74 76.7289 100.674 76.6952 100.603 76.6753C100.532 76.6554 100.458 76.6497 100.385 76.6586C100.312 76.6674 100.242 76.6906 100.178 76.7269C100.114 76.7632 100.058 76.8117 100.013 76.8698C99.9678 76.9279 99.9347 76.9943 99.9155 77.0653C99.8962 77.1362 99.8913 77.2103 99.9008 77.2832C100.2 79.7476 100.768 86.9609 100.768 88.6575C100.762 89.2284 100.317 89.7747 99.8155 89.8207C99.2548 89.8763 98.5214 89.2392 98.1433 87.3082C96.9884 81.3227 95.4241 79.3406 94.1671 77.7479C93.3356 76.6942 92.679 75.8622 92.3795 74.0297C92.3677 73.9576 92.3419 73.8885 92.3034 73.8264C92.2649 73.7643 92.2146 73.7103 92.1553 73.6677C92.096 73.625 92.0288 73.5945 91.9577 73.5777C91.8866 73.561 91.8129 73.5585 91.7408 73.5703C91.6687 73.582 91.5996 73.6079 91.5375 73.6464C91.4754 73.6848 91.4215 73.7352 91.3788 73.7945C91.3361 73.8538 91.3056 73.9209 91.2889 73.992C91.2721 74.0632 91.2696 74.1369 91.2814 74.209C91.6272 76.3256 92.3995 77.3039 93.2937 78.4369C94.476 79.9351 95.9474 81.7995 97.0511 87.5205C97.6532 90.5908 99.1367 90.9354 99.7688 90.9354Z" fill="#202124"/>
<path d="M4.45543 36.1117C4.45543 36.1117 3.81704 24.255 3.56504 21.2866C3.24585 17.8654 4.22022 16.2386 5.61461 16.1883C8.00017 16.0877 8.33617 24.9593 8.38657 26.3177C8.35297 24.7916 8.21857 13.6727 11.3265 13.505C14.7369 13.3206 13.4769 25.3283 13.4769 25.3283C13.4898 25.3271 13.5018 25.3211 13.5105 25.3115C13.5275 25.0136 13.5611 24.7168 13.6113 24.4227C14.1489 21.5884 15.4257 19.7772 17.2569 18.7207C18.9536 17.748 20.9696 17.4126 23.288 18.2343C23.5685 18.3329 23.8268 18.4858 24.0481 18.6843C24.2693 18.8828 24.449 19.1229 24.577 19.3909C24.705 19.6589 24.7787 19.9496 24.7939 20.2461C24.8091 20.5426 24.7655 20.8392 24.6656 21.1189C24.5047 21.5737 24.2051 21.9666 23.8088 22.2425C23.9027 22.2221 23.9983 22.2109 24.0944 22.209C24.6932 22.1773 25.2803 22.3835 25.7273 22.7826C26.1743 23.1817 26.4449 23.7412 26.4799 24.3388C26.5148 25.0435 26.4979 25.7497 26.4295 26.4519C26.1607 28.6992 24.7496 30.7284 22.3472 32.1874C21.7182 32.6366 21.2078 33.2314 20.8596 33.9207C20.5114 34.61 20.3358 35.3734 20.348 36.1453L4.45543 36.1117ZM21.776 22.4941C20.768 22.1419 19.9952 22.1083 19.4912 22.3934C18.8528 22.7624 18.332 23.8022 18.0464 25.278C17.9716 25.6504 18.0082 26.0366 18.1516 26.3885C18.295 26.7403 18.5388 27.0423 18.8528 27.2569C19.1352 27.4512 19.4633 27.5688 19.805 27.5982C20.1467 27.6276 20.4901 27.5677 20.8016 27.4246C21.1042 27.2943 21.3666 27.0857 21.5615 26.8203C21.7564 26.555 21.8768 26.2426 21.9104 25.9152C21.9563 25.4696 21.9675 25.021 21.944 24.5736C21.9212 24.1836 22.0006 23.7945 22.1745 23.4445C22.3483 23.0946 22.6105 22.7959 22.9352 22.5779C22.5485 22.6584 22.147 22.6293 21.776 22.4941Z" fill="#FFF1ED"/>
<path d="M20.3475 36.6482H20.3501C20.4162 36.6479 20.4817 36.6345 20.5427 36.609C20.6038 36.5834 20.6592 36.5461 20.7057 36.4991C20.7523 36.4522 20.7892 36.3966 20.8142 36.3354C20.8393 36.2743 20.852 36.2088 20.8517 36.1427C20.8421 35.4541 20.9984 34.7732 21.3075 34.1575C21.6167 33.5419 22.0695 33.0094 22.6279 32.6049C25.1131 31.0891 26.6402 28.9258 26.9287 26.5112C27 25.7818 27.0179 25.0482 26.9821 24.3163C26.9497 23.7291 26.7307 23.1676 26.357 22.713C25.9832 22.2585 25.4742 21.9347 24.9036 21.7884C24.9979 21.6295 25.0767 21.4618 25.1388 21.2878C25.3812 20.5972 25.3404 19.8389 25.0252 19.1782C24.71 18.5174 24.1461 18.0078 23.4562 17.7603C21.1853 16.9553 19.015 17.1316 17.005 18.2842C15.8271 18.9654 14.8614 19.9593 14.2153 21.1554C14.2472 18.324 13.9992 14.9113 12.7537 13.6037C12.571 13.4021 12.3457 13.2435 12.094 13.1394C11.8424 13.0354 11.5707 12.9886 11.2987 13.0023C9.68824 13.0894 8.66732 15.1634 8.17727 19.3433C8.17105 19.3965 8.16483 19.45 8.15896 19.5029C7.83321 18 7.37071 16.7328 6.71418 16.1272C6.56742 15.9809 6.39217 15.8663 6.19927 15.7903C6.00636 15.7143 5.79989 15.6786 5.59262 15.6855C5.28688 15.6966 4.98682 15.7712 4.71165 15.9047C4.43648 16.0382 4.19227 16.2276 3.99463 16.4608C3.17447 17.3927 2.85224 19.077 3.06257 21.333C3.31071 24.2556 3.94523 36.0199 3.95162 36.1385C3.95447 36.205 3.97051 36.2702 3.99879 36.3305C4.02708 36.3907 4.06704 36.4447 4.11638 36.4895C4.16573 36.5342 4.22347 36.5687 4.28626 36.591C4.34905 36.6133 4.41565 36.6229 4.4822 36.6193C4.54875 36.6158 4.61393 36.5991 4.67397 36.5702C4.734 36.5413 4.78771 36.5008 4.83196 36.4511C4.87622 36.4013 4.91016 36.3433 4.93181 36.2804C4.95346 36.2175 4.96239 36.1509 4.9581 36.0845C4.95171 35.9659 4.31634 24.186 4.06653 21.2439C3.82142 18.6155 4.39076 17.5354 4.75179 17.1251C4.85884 16.994 4.99286 16.8874 5.14477 16.8125C5.29667 16.7376 5.46293 16.6962 5.63227 16.691C5.70727 16.6903 5.78155 16.7056 5.85015 16.7358C5.91876 16.7661 5.98011 16.8106 6.03009 16.8664C6.98868 17.7503 7.69831 21.3789 7.88227 26.3361C7.88623 26.4695 7.94313 26.5959 8.04045 26.6875C8.13777 26.7791 8.26754 26.8283 8.40121 26.8243C8.53488 26.8203 8.6615 26.7635 8.75321 26.6664C8.84493 26.5692 8.89422 26.4397 8.89025 26.3063C8.7572 20.2679 9.56056 14.104 11.3536 14.0074C11.4801 14.0005 11.6066 14.0231 11.7229 14.0733C11.8392 14.1236 11.9422 14.2002 12.0237 14.297C13.5774 15.9278 13.2375 22.7751 12.9755 25.2757C12.9681 25.3458 12.9756 25.4167 12.9975 25.4837C13.0193 25.5507 13.055 25.6124 13.1023 25.6648C13.1524 25.7151 13.212 25.755 13.2777 25.7822C13.3433 25.8095 13.4136 25.8236 13.4847 25.8237C13.5558 25.8239 13.6262 25.81 13.6919 25.783C13.7576 25.7559 13.8174 25.7162 13.8677 25.6661C13.9548 25.5787 14.0067 25.4623 14.0135 25.3391C14.0295 25.0596 14.0612 24.7811 14.1083 24.5051C14.5928 21.9494 15.7058 20.1962 17.5084 19.1565C19.2507 18.1576 21.1386 18.0068 23.1195 18.7085C23.3382 18.7842 23.5397 18.9026 23.7122 19.0567C23.8847 19.2108 24.0249 19.3976 24.1244 19.6063C24.224 19.8149 24.281 20.0412 24.2922 20.2721C24.3034 20.5029 24.2685 20.7337 24.1896 20.9509C24.0641 21.3062 23.8301 21.6131 23.5205 21.8285C23.4547 21.8742 23.4007 21.9349 23.3631 22.0056C23.3255 22.0763 23.3054 22.1549 23.3043 22.2349C23.2441 22.1703 23.1679 22.1226 23.0835 22.0965C22.999 22.0704 22.9092 22.0669 22.823 22.0863C22.5287 22.1462 22.2235 22.1226 21.942 22.0182C20.7885 21.6157 19.8802 21.5941 19.2423 21.9548C18.4665 22.4031 17.8672 23.548 17.5512 25.1815C17.4653 25.6261 17.5039 26.0858 17.6628 26.51C17.8217 26.9342 18.0947 27.3064 18.4518 27.5857C18.8089 27.865 19.2362 28.0406 19.6868 28.0932C20.1374 28.1457 20.5938 28.0732 21.0057 27.8835C21.3881 27.7156 21.7193 27.45 21.966 27.1136C22.2128 26.7771 22.3663 26.3817 22.4112 25.9672C22.459 25.4982 22.471 25.0262 22.4472 24.5554C22.4275 24.2501 22.4886 23.945 22.6242 23.6707C22.7598 23.3964 22.9653 23.1624 23.22 22.9922C23.2867 22.9467 23.3414 22.8858 23.3796 22.8147C23.4178 22.7436 23.4383 22.6644 23.4394 22.5837C23.498 22.6467 23.5717 22.6936 23.6537 22.72C23.7356 22.7465 23.823 22.7515 23.9074 22.7346C23.9782 22.7216 24.0498 22.7135 24.1218 22.7102C24.5875 22.684 25.0447 22.8437 25.3925 23.1539C25.7404 23.4642 25.9506 23.8998 25.9768 24.3647C26.0102 25.0432 25.994 25.7231 25.9284 26.3992C25.6764 28.4985 24.3121 30.404 22.0855 31.7564C22.0727 31.7641 22.0604 31.7723 22.0485 31.7812C21.3558 32.2777 20.7935 32.934 20.4096 33.6942C20.0256 34.4544 19.8315 35.296 19.8435 36.1472C19.8441 36.2803 19.8975 36.4077 19.9919 36.5016C20.0864 36.5955 20.2142 36.6482 20.3475 36.6482ZM21.8224 23.0342C21.5384 23.5067 21.405 24.0543 21.44 24.6042C21.4608 25.0205 21.4505 25.4378 21.4093 25.8526C21.3859 26.0937 21.2981 26.3241 21.155 26.5198C21.0119 26.7154 20.8188 26.869 20.5958 26.9647C20.3634 27.0725 20.1068 27.118 19.8514 27.0967C19.596 27.0754 19.3505 26.9882 19.1391 26.8434C18.9062 26.6839 18.7253 26.4597 18.6188 26.1986C18.5123 25.9374 18.4849 25.6508 18.54 25.3743C18.792 24.0691 19.2421 23.118 19.7427 22.8287C20.1019 22.6251 20.766 22.6743 21.6085 22.9688H21.6095C21.6808 22.9937 21.7518 23.0152 21.8229 23.0342H21.8224Z" fill="#202124"/>
<path d="M11.9975 33.2105C12.0938 33.2105 12.1881 33.183 12.2693 33.1312C12.3504 33.0794 12.415 33.0055 12.4553 32.9182C14.5057 28.4866 18.0753 28.1782 19.2485 28.0767C19.3816 28.0652 19.5048 28.0013 19.5908 27.8992C19.6768 27.797 19.7186 27.6649 19.7071 27.532C19.6956 27.399 19.6316 27.2761 19.5292 27.1903C19.4269 27.1044 19.2946 27.0626 19.1614 27.0741C17.8443 27.188 13.8359 27.5345 11.5402 32.4964C11.5048 32.573 11.4892 32.6574 11.4949 32.7416C11.5007 32.8258 11.5276 32.9072 11.5731 32.9784C11.6187 33.0495 11.6814 33.108 11.7556 33.1486C11.8297 33.1892 11.9129 33.2104 11.9975 33.2105Z" fill="#202124"/>
<g opacity="0.2">
<path d="M31.976 94.3717C31.6293 92.9043 30.7484 91.6179 29.5045 90.7624C28.2606 89.9068 26.7424 89.5432 25.2449 89.7422C24.8655 89.7921 24.4796 89.7447 24.1236 89.6044C23.7676 89.4642 23.4532 89.2358 23.2102 88.9407C23.0942 88.8003 22.9755 88.6746 22.8709 88.5635L22.8558 88.5474C22.6626 88.3513 22.4564 88.1684 22.2386 88C21.7724 88.5506 21.3186 89.1116 20.8403 89.6527C21.0051 89.7726 21.1602 89.9051 21.3043 90.0491C21.3886 90.1386 21.4686 90.2229 21.5442 90.3146C22.0193 90.8918 22.6342 91.3386 23.3305 91.6127C24.0269 91.8868 24.7818 91.9791 25.5239 91.881C26.5262 91.7497 27.5407 92.0075 28.358 92.601C29.1753 93.1946 29.733 94.0787 29.916 95.0708C30.0991 96.0629 29.8934 97.0872 29.3415 97.9324C28.7896 98.7775 27.9336 99.379 26.9503 99.6125C26.2724 99.7747 25.6426 100.095 25.1124 100.546C24.5823 100.998 24.1668 101.569 23.9001 102.211C23.6294 102.867 23.186 103.438 22.6169 103.863C22.0477 104.289 21.374 104.552 20.667 104.627C19.9599 104.701 19.2459 104.584 18.6004 104.286C17.9549 103.989 17.4019 103.523 17 102.938C17.071 104.015 17.2314 105.085 17.4793 106.137C18.3412 106.579 19.2965 106.809 20.2657 106.809C21.4738 106.808 22.6544 106.449 23.6574 105.777C24.6603 105.105 25.4402 104.15 25.8978 103.034C26.0338 102.707 26.2454 102.417 26.5153 102.187C26.7852 101.957 27.1059 101.794 27.451 101.711C29.0255 101.335 30.3862 100.351 31.2346 98.9754C32.0829 97.5994 32.3496 95.9437 31.976 94.3717Z" fill="#B893F2"/>
<path d="M46.86 124.253C47.0124 124.206 47.1649 124.156 47.3187 124.102C48.6026 123.659 49.6991 122.797 50.4318 121.654C50.4895 120.767 50.5519 119.881 50.6294 118.995C50.5204 117.808 50.3422 116.624 50.2754 115.433C50.2635 115.263 50.2928 115.092 50.3606 114.935C49.6074 113.821 48.5087 112.986 47.2343 112.558C45.9599 112.13 44.5809 112.133 43.3105 112.567L43.3092 112.569C43.2979 112.572 43.287 112.576 43.2759 112.579C42.906 112.705 42.5103 112.735 42.1253 112.667C41.7403 112.599 41.3783 112.436 41.0729 112.191C39.87 111.189 38.3287 110.686 36.7677 110.787C35.2067 110.888 33.7454 111.584 32.6857 112.733C31.6261 113.881 31.0492 115.394 31.0743 116.958C31.0995 118.522 31.7247 120.018 32.8208 121.136C33.0691 121.39 33.254 121.699 33.3603 122.037C33.4667 122.376 33.4914 122.735 33.4325 123.084C33.1786 124.618 33.5206 126.192 34.3886 127.484C35.2565 128.777 36.5848 129.69 38.1018 130.037C39.6188 130.383 41.2098 130.138 42.5495 129.351C43.8892 128.563 44.8763 127.293 45.309 125.8C45.4128 125.433 45.6084 125.1 45.8772 124.83C46.146 124.56 46.4793 124.363 46.8456 124.258L46.86 124.253ZM46.602 122.064C46.4758 122.109 46.3532 122.149 46.2304 122.187C45.5161 122.393 44.8663 122.778 44.3421 123.304C43.8178 123.831 43.4363 124.483 43.2333 125.198C42.9531 126.161 42.3154 126.981 41.4503 127.489C40.5852 127.997 39.558 128.155 38.5787 127.931C37.5993 127.707 36.7416 127.118 36.1808 126.284C35.62 125.45 35.3984 124.434 35.5612 123.444C35.6759 122.759 35.6268 122.055 35.4181 121.392C35.2094 120.729 34.8469 120.123 34.3602 119.626C33.6518 118.902 33.2486 117.934 33.2339 116.923C33.2192 115.911 33.5942 114.934 34.2812 114.192C34.9682 113.451 35.9146 113.003 36.9244 112.941C37.9341 112.879 38.9298 113.208 39.7053 113.859C40.2911 114.334 40.9866 114.653 41.7277 114.788C42.4689 114.923 43.2317 114.869 43.9458 114.632L43.9544 114.63C43.9698 114.625 43.9849 114.62 43.9999 114.615C44.4888 114.445 45.0065 114.373 45.5236 114.404C46.0406 114.434 46.5468 114.566 47.0133 114.791C47.4798 115.017 47.8974 115.333 48.2424 115.72C48.5873 116.106 48.8528 116.557 49.0236 117.046C49.1945 117.536 49.2674 118.053 49.2382 118.57C49.2089 119.087 49.0781 119.593 48.8533 120.059C48.6284 120.525 48.3139 120.942 47.9276 121.286C47.5413 121.63 47.0909 121.894 46.602 122.064Z" fill="#B893F2"/>
<path d="M51.86 85.253C52.0124 85.2061 52.1649 85.1564 52.3187 85.1023C53.6026 84.6592 54.6991 83.7967 55.4318 82.6537C55.4895 81.767 55.5519 80.8806 55.6294 79.9953C55.5204 78.8077 55.3422 77.6238 55.2754 76.4333C55.2635 76.2626 55.2928 76.0917 55.3606 75.9348C54.6074 74.821 53.5087 73.9856 52.2343 73.5576C50.9599 73.1297 49.5809 73.1332 48.3105 73.5675L48.3092 73.5689C48.2979 73.5723 48.287 73.5758 48.2759 73.5793C47.906 73.7048 47.5103 73.735 47.1253 73.6672C46.7403 73.5995 46.3783 73.4358 46.0729 73.1915C44.87 72.1889 43.3287 71.686 41.7677 71.7868C40.2067 71.8875 38.7454 72.5842 37.6857 73.7327C36.6261 74.8813 36.0492 76.394 36.0743 77.958C36.0995 79.522 36.7247 81.0178 37.8208 82.1362C38.0691 82.3899 38.254 82.6987 38.3603 83.0373C38.4667 83.3758 38.4914 83.7346 38.4325 84.0842C38.1786 85.618 38.5206 87.1921 39.3886 88.4844C40.2565 89.7767 41.5848 90.6897 43.1018 91.0366C44.6188 91.3835 46.2098 91.1381 47.5495 90.3506C48.8892 89.5631 49.8763 88.293 50.309 86.8001C50.4128 86.4335 50.6084 86.0996 50.8772 85.8298C51.146 85.5601 51.4793 85.3633 51.8456 85.2581L51.86 85.253ZM51.602 83.0643C51.4758 83.1088 51.3532 83.1491 51.2304 83.1866C50.5161 83.393 49.8663 83.7777 49.3421 84.3044C48.8178 84.8311 48.4363 85.4826 48.2333 86.1978C47.9531 87.1613 47.3154 87.9808 46.4503 88.4889C45.5852 88.9969 44.558 89.1552 43.5787 88.9313C42.5993 88.7074 41.7416 88.1183 41.1808 87.2843C40.62 86.4503 40.3984 85.4344 40.5612 84.444C40.6759 83.7586 40.6268 83.0555 40.4181 82.392C40.2094 81.7285 39.8469 81.1234 39.3602 80.626C38.6518 79.9022 38.2486 78.9343 38.2339 77.9228C38.2192 76.9113 38.5942 75.9337 39.2812 75.1924C39.9682 74.4512 40.9146 74.0032 41.9244 73.9412C42.9341 73.8792 43.9298 74.2079 44.7053 74.8593C45.2911 75.3336 45.9866 75.653 46.7277 75.788C47.4689 75.9231 48.2317 75.8694 48.9458 75.632L48.9544 75.6297C48.9698 75.6251 48.9849 75.6202 48.9999 75.615C49.4888 75.4451 50.0065 75.3733 50.5236 75.4036C51.0406 75.4339 51.5468 75.5657 52.0133 75.7915C52.4798 76.0172 52.8974 76.3326 53.2424 76.7195C53.5873 77.1064 53.8528 77.5573 54.0236 78.0464C54.1945 78.5356 54.2674 79.0533 54.2382 79.5702C54.2089 80.0871 54.0781 80.593 53.8533 81.0589C53.6284 81.5249 53.3139 81.9418 52.9276 82.2859C52.5413 82.63 52.0909 82.8945 51.602 83.0643Z" fill="#B893F2"/>
<path d="M99.86 113.253C100.012 113.206 100.165 113.156 100.319 113.102C101.603 112.659 102.699 111.797 103.432 110.654C103.49 109.767 103.552 108.881 103.629 107.995C103.52 106.808 103.342 105.624 103.275 104.433C103.264 104.263 103.293 104.092 103.361 103.935C102.607 102.821 101.509 101.986 100.234 101.558C98.9599 101.13 97.5809 101.133 96.3105 101.567L96.3092 101.569C96.2979 101.572 96.287 101.576 96.2759 101.579C95.906 101.705 95.5103 101.735 95.1253 101.667C94.7403 101.599 94.3783 101.436 94.0729 101.191C92.87 100.189 91.3287 99.686 89.7677 99.7868C88.2067 99.8875 86.7454 100.584 85.6857 101.733C84.6261 102.881 84.0492 104.394 84.0743 105.958C84.0995 107.522 84.7247 109.018 85.8208 110.136C86.0691 110.39 86.254 110.699 86.3603 111.037C86.4667 111.376 86.4914 111.735 86.4325 112.084C86.1786 113.618 86.5206 115.192 87.3886 116.484C88.2565 117.777 89.5848 118.69 91.1018 119.037C92.6188 119.383 94.2098 119.138 95.5495 118.351C96.8892 117.563 97.8763 116.293 98.309 114.8C98.4128 114.433 98.6084 114.1 98.8772 113.83C99.146 113.56 99.4793 113.363 99.8456 113.258L99.86 113.253ZM99.602 111.064C99.4758 111.109 99.3532 111.149 99.2304 111.187C98.5161 111.393 97.8663 111.778 97.3421 112.304C96.8178 112.831 96.4363 113.483 96.2333 114.198C95.9531 115.161 95.3154 115.981 94.4503 116.489C93.5852 116.997 92.558 117.155 91.5787 116.931C90.5993 116.707 89.7416 116.118 89.1808 115.284C88.62 114.45 88.3984 113.434 88.5612 112.444C88.6759 111.759 88.6268 111.055 88.4181 110.392C88.2094 109.729 87.8469 109.123 87.3602 108.626C86.6518 107.902 86.2486 106.934 86.2339 105.923C86.2192 104.911 86.5942 103.934 87.2812 103.192C87.9682 102.451 88.9146 102.003 89.9244 101.941C90.9341 101.879 91.9298 102.208 92.7053 102.859C93.2911 103.334 93.9866 103.653 94.7277 103.788C95.4689 103.923 96.2317 103.869 96.9458 103.632L96.9544 103.63C96.9698 103.625 96.9849 103.62 96.9999 103.615C97.4888 103.445 98.0065 103.373 98.5236 103.404C99.0406 103.434 99.5468 103.566 100.013 103.791C100.48 104.017 100.897 104.333 101.242 104.72C101.587 105.106 101.853 105.557 102.024 106.046C102.194 106.536 102.267 107.053 102.238 107.57C102.209 108.087 102.078 108.593 101.853 109.059C101.628 109.525 101.314 109.942 100.928 110.286C100.541 110.63 100.091 110.894 99.602 111.064Z" fill="#B893F2"/>
<path d="M78.86 70.253C79.0124 70.2061 79.1649 70.1564 79.3187 70.1023C80.6026 69.6592 81.6991 68.7967 82.4318 67.6537C82.4895 66.767 82.5519 65.8806 82.6294 64.9953C82.5204 63.8077 82.3422 62.6238 82.2754 61.4333C82.2635 61.2626 82.2928 61.0917 82.3606 60.9348C81.6074 59.821 80.5087 58.9856 79.2343 58.5576C77.9599 58.1297 76.5809 58.1332 75.3105 58.5675L75.3092 58.5689C75.2979 58.5723 75.287 58.5758 75.2759 58.5793C74.906 58.7048 74.5103 58.735 74.1253 58.6672C73.7403 58.5995 73.3783 58.4358 73.0729 58.1915C71.87 57.1889 70.3287 56.686 68.7677 56.7868C67.2067 56.8875 65.7454 57.5842 64.6857 58.7327C63.6261 59.8813 63.0492 61.394 63.0743 62.958C63.0995 64.522 63.7247 66.0178 64.8208 67.1362C65.0691 67.3899 65.254 67.6987 65.3603 68.0373C65.4667 68.3758 65.4914 68.7346 65.4325 69.0842C65.1786 70.618 65.5206 72.1921 66.3886 73.4844C67.2565 74.7767 68.5848 75.6897 70.1018 76.0366C71.6188 76.3835 73.2098 76.1381 74.5495 75.3506C75.8892 74.5631 76.8763 73.293 77.309 71.8001C77.4128 71.4335 77.6084 71.0996 77.8772 70.8298C78.146 70.5601 78.4793 70.3633 78.8456 70.2581L78.86 70.253ZM78.602 68.0643C78.4758 68.1088 78.3532 68.1491 78.2304 68.1866C77.5161 68.393 76.8663 68.7777 76.3421 69.3044C75.8178 69.8311 75.4363 70.4826 75.2333 71.1978C74.9531 72.1613 74.3154 72.9808 73.4503 73.4889C72.5852 73.9969 71.558 74.1552 70.5787 73.9313C69.5993 73.7074 68.7416 73.1183 68.1808 72.2843C67.62 71.4503 67.3984 70.4344 67.5612 69.444C67.6759 68.7586 67.6268 68.0555 67.4181 67.392C67.2094 66.7285 66.8469 66.1234 66.3602 65.626C65.6518 64.9022 65.2486 63.9343 65.2339 62.9228C65.2192 61.9113 65.5942 60.9337 66.2812 60.1924C66.9682 59.4512 67.9146 59.0032 68.9244 58.9412C69.9341 58.8792 70.9298 59.2079 71.7053 59.8593C72.2911 60.3336 72.9866 60.653 73.7277 60.788C74.4689 60.9231 75.2317 60.8694 75.9458 60.632L75.9544 60.6297C75.9698 60.6251 75.9849 60.6202 75.9999 60.615C76.4888 60.4451 77.0065 60.3733 77.5236 60.4036C78.0406 60.4339 78.5468 60.5657 79.0133 60.7915C79.4798 61.0172 79.8974 61.3326 80.2424 61.7195C80.5873 62.1064 80.8528 62.5573 81.0236 63.0464C81.1945 63.5356 81.2674 64.0534 81.2382 64.5702C81.2089 65.0871 81.0781 65.593 80.8533 66.0589C80.6284 66.5249 80.3139 66.9418 79.9276 67.2859C79.5413 67.63 79.0909 67.8945 78.602 68.0643Z" fill="#B893F2"/>
<path d="M29.6778 138.466C29.3202 138.332 29.0026 138.11 28.7553 137.819C28.508 137.528 28.3391 137.18 28.2645 136.806C28.2305 136.637 28.1892 136.466 28.1421 136.297C28.1389 136.286 28.1354 136.276 28.1322 136.264C27.7754 135.132 27.0953 134.129 26.1755 133.378C25.2556 132.627 24.136 132.16 22.954 132.034C21.7719 131.909 20.5789 132.13 19.5213 132.672C18.4636 133.213 17.5874 134.051 17 135.082C17.5431 135.642 18.0667 136.219 18.5848 136.801C18.856 136.021 19.3665 135.345 20.0439 134.871C20.7213 134.396 21.5313 134.146 22.3589 134.156C23.1866 134.167 23.99 134.437 24.6552 134.928C25.3204 135.42 25.8138 136.108 26.0653 136.895C26.0964 137.007 26.1234 137.12 26.1457 137.231V137.232C26.2918 137.965 26.6227 138.648 27.1072 139.217C27.5917 139.786 28.2137 140.222 28.9143 140.485C29.8625 140.84 30.6372 141.547 31.0778 142.457C31.5183 143.367 31.591 144.412 31.2807 145.374C30.9704 146.337 30.3009 147.143 29.4111 147.626C28.5212 148.109 27.4792 148.232 26.501 147.969C26.4889 147.966 26.4766 147.964 26.4645 147.961C27.2029 148.666 27.8951 149.419 28.5871 150.171C29.9047 149.939 31.1093 149.281 32.0157 148.298C32.9221 147.316 33.4802 146.064 33.6041 144.734C33.7279 143.404 33.4108 142.071 32.7014 140.939C31.9921 139.807 30.9297 138.938 29.6776 138.467L29.6778 138.466Z" fill="#B893F2"/>
</g>
</svg>
