<svg width="17" height="17" fill="none" xmlns="http://www.w3.org/2000/svg"><path d="M8 .688a7.323 7.323 0 0 0-6.75 4.5v.002A7.273 7.273 0 0 0 .687 8c0 .995.201 1.945.563 2.81v.002a7.323 7.323 0 0 0 6.75 4.5c1.239 0 2.406-.31 3.43-.856l.056-1.348a6.189 6.189 0 0 1-1.167.626c.825-1.318 1.337-3.358 1.337-5.734 0-.586-.034-1.148-.093-1.688h2.389a6.165 6.165 0 0 1-.043 3.525l.915.787a7.286 7.286 0 0 0-.074-5.434v-.003A7.323 7.323 0 0 0 8 .688Zm0 1.125c.856 0 1.779 1.302 2.237 3.375H5.763C6.22 3.115 7.144 1.813 8 1.813Zm-2.32.452c-.474.759-.844 1.758-1.074 2.922H2.491a6.223 6.223 0 0 1 3.19-2.922Zm4.64 0a6.224 6.224 0 0 1 3.19 2.922h-2.116c-.23-1.164-.6-2.163-1.075-2.922ZM2.047 6.312h2.389a15.473 15.473 0 0 0 0 3.375H2.048a6.168 6.168 0 0 1 0-3.374Zm3.524 0h4.856a13.9 13.9 0 0 1 0 3.375H5.572a13.898 13.898 0 0 1 0-3.374Zm6.647 2.813.001 6.566 1.658-1.763 1.13 3.066 1.032-.446-1.46-2.923H17l-4.781-4.5ZM2.49 10.813h2.115c.23 1.164.6 2.163 1.075 2.922a6.224 6.224 0 0 1-3.19-2.922Zm3.272 0h4.474C9.78 12.884 8.856 14.187 8 14.187c-.856 0-1.779-1.302-2.237-3.374Z" fill="#85B7FE"/></svg>