<svg width="17" height="17" fill="none" xmlns="http://www.w3.org/2000/svg"><path d="M4.006 13.977a7.08 7.08 0 0 0 3.268 1.5l.1-1.424a5.643 5.643 0 0 1-2.36-1.083l-1.008 1.007Z" fill="#90BDFC"/><path d="M2.864 9.209h-1.43a7.041 7.041 0 0 0 1.57 3.766l1.007-1.005a5.65 5.65 0 0 1-1.147-2.761Z" fill="#5597F3"/><path d="m11.92 12.99.717 1.23a7.16 7.16 0 0 0 1.512-1.494l-1.225-.734c-.293.372-.628.71-1.003.998Z" fill="#E7F1FF"/><path d="m8.788 14.153-.101 1.42a7.033 7.033 0 0 0 2.728-.64l-.715-1.226a5.65 5.65 0 0 1-1.912.446Z" fill="#B3D2FD"/><path d="M14.1 7.792h1.43c-.358-3.575-3.382-6.375-7.048-6.375s-6.69 2.8-7.047 6.375h1.429C3.214 5 5.598 2.833 8.482 2.833c2.884 0 5.268 2.168 5.618 4.958Z" fill="#0D6EFD"/></svg>