<svg width="12" height="12" fill="none" xmlns="http://www.w3.org/2000/svg"><path fill-rule="evenodd" clip-rule="evenodd" d="M6 .75a5.25 5.25 0 0 1 .087 10.5h-.098c-.16 0-.32-.008-.48-.023l-.158-.017a.389.389 0 0 1 .095-.772c.135.017.27.027.408.032l.146.002a4.472 4.472 0 0 0 .081-8.943l-.085-.001c-.3 0-.597.03-.886.088a.389.389 0 0 1-.154-.762c.292-.06.59-.093.893-.102L6 .75ZM2.823 9.7a.389.389 0 0 1 .543-.085c.242.176.5.328.772.453a.389.389 0 0 1-.324.707 5.25 5.25 0 0 1-.906-.532.389.389 0 0 1-.085-.543ZM1.435 7.719a.389.389 0 0 1 .517.186c.128.27.282.527.461.766a.389.389 0 0 1-.623.466 5.249 5.249 0 0 1-.541-.9.389.389 0 0 1 .186-.518ZM5.73 3.18c.203 0 .37.155.387.353l.002.035V6.09l2.15 1.204a.389.389 0 0 1 .166.495l-.017.034a.389.389 0 0 1-.496.166l-.033-.017L5.54 6.66a.389.389 0 0 1-.197-.305L5.34 6.32V3.57a.39.39 0 0 1 .389-.39ZM1.136 5.31h.036a.389.389 0 0 1 .364.412 4.54 4.54 0 0 0 .034.899.389.389 0 0 1-.77.107 5.314 5.314 0 0 1-.04-1.053.389.389 0 0 1 .376-.365Zm.439-2.136a.389.389 0 0 1 .655.42 4.455 4.455 0 0 0-.404.797.389.389 0 0 1-.726-.28c.127-.328.286-.642.475-.937Zm1.902-1.779a.389.389 0 1 1 .374.682 4.483 4.483 0 0 0-.737.507.389.389 0 0 1-.503-.594c.268-.227.558-.426.866-.595Z" fill="#5F6368"/></svg>