<svg width="24" height="24" fill="none" xmlns="http://www.w3.org/2000/svg"><path d="M5.656 19.732a9.996 9.996 0 0 0 4.613 2.12l.143-2.012a7.969 7.969 0 0 1-3.334-1.53l-1.422 1.422Z" fill="#86D38F"/><path d="M4.043 13H2.026a9.94 9.94 0 0 0 2.216 5.318l1.42-1.42A7.976 7.976 0 0 1 4.043 13Z" fill="#5DB868"/><path d="m16.83 18.34 1.011 1.734a10.107 10.107 0 0 0 2.134-2.107l-1.73-1.037a8.038 8.038 0 0 1-1.416 1.41Z" fill="#C6EDCB"/><path d="m12.406 19.98-.143 2.006a9.93 9.93 0 0 0 3.852-.904l-1.01-1.73a7.977 7.977 0 0 1-2.699.628Z" fill="#A0DDA7"/><path d="M19.906 11h2.018c-.505-5.046-4.773-9-9.95-9C6.8 2 2.53 5.954 2.027 11h2.017c.495-3.94 3.86-7 7.932-7 4.072 0 7.436 3.06 7.931 7Z" fill="#35A243"/></svg>