<?xml version="1.0" encoding="UTF-8" standalone="no"?>
<!DOCTYPE svg PUBLIC "-//W3C//DTD SVG 1.1//EN"
 "http://www.w3.org/Graphics/SVG/1.1/DTD/svg11.dtd">
<!-- Generated by graphviz version 5.0.0 (20220707.1540)
 -->
<!-- Title: dependencies Pages: 1 -->
<svg width="584pt" height="174pt"
 viewBox="0.00 0.00 584.00 173.80" xmlns="http://www.w3.org/2000/svg" xmlns:xlink="http://www.w3.org/1999/xlink">
<g id="graph0" class="graph" transform="scale(1 1) rotate(0) translate(4 169.8)">
<title>dependencies</title>
<polygon fill="white" stroke="transparent" points="-4,4 -4,-169.8 580,-169.8 580,4 -4,4"/>
<text text-anchor="middle" x="288" y="-8.2" font-family="sans-serif" font-size="14.00">dependencies</text>
<g id="clust1" class="cluster">
<title>cluster_ResultRankingModule</title>
<polygon fill="none" stroke="black" stroke-dasharray="1,5" points="8,-32.8 8,-157.8 568,-157.8 568,-32.8 8,-32.8"/>
</g>
<g id="clust4" class="cluster">
<title>cluster_ResultRankingModule_imports</title>
<polygon fill="none" stroke="black" points="204,-40.8 204,-92.8 560,-92.8 560,-40.8 204,-40.8"/>
</g>
<g id="clust2" class="cluster">
<title>cluster_ResultRankingModule_declarations</title>
<polygon fill="none" stroke="black" points="16,-40.8 16,-92.8 196,-92.8 196,-40.8 16,-40.8"/>
</g>
<!-- ResultRankingComponent -->
<g id="node1" class="node">
<title>ResultRankingComponent</title>
<polygon fill="#ffffb3" stroke="black" points="188.05,-84.8 23.95,-84.8 23.95,-48.8 188.05,-48.8 188.05,-84.8"/>
<text text-anchor="middle" x="106" y="-62.6" font-family="Times,serif" font-size="14.00">ResultRankingComponent</text>
</g>
<!-- ResultRankingModule -->
<g id="node2" class="node">
<title>ResultRankingModule</title>
<polygon fill="#8dd3c7" stroke="black" points="377.27,-149.8 374.27,-153.8 353.27,-153.8 350.27,-149.8 234.73,-149.8 234.73,-113.8 377.27,-113.8 377.27,-149.8"/>
<text text-anchor="middle" x="306" y="-127.6" font-family="Times,serif" font-size="14.00">ResultRankingModule</text>
</g>
<!-- ResultRankingComponent&#45;&gt;ResultRankingModule -->
<g id="edge1" class="edge">
<title>ResultRankingComponent&#45;&gt;ResultRankingModule</title>
<path fill="none" stroke="black" d="M106,-84.91C106,-104.14 106,-131.8 106,-131.8 106,-131.8 224.64,-131.8 224.64,-131.8"/>
<polygon fill="black" stroke="black" points="224.64,-135.3 234.64,-131.8 224.64,-128.3 224.64,-135.3"/>
</g>
<!-- EmptyScreenModule -->
<g id="node3" class="node">
<title>EmptyScreenModule</title>
<polygon fill="#8dd3c7" stroke="black" points="552.47,-84.8 549.47,-88.8 528.47,-88.8 525.47,-84.8 417.53,-84.8 417.53,-48.8 552.47,-48.8 552.47,-84.8"/>
<text text-anchor="middle" x="485" y="-62.6" font-family="Times,serif" font-size="14.00">EmptyScreenModule</text>
</g>
<!-- EmptyScreenModule&#45;&gt;ResultRankingModule -->
<g id="edge2" class="edge">
<title>EmptyScreenModule&#45;&gt;ResultRankingModule</title>
<path fill="none" stroke="black" d="M485,-84.91C485,-104.14 485,-131.8 485,-131.8 485,-131.8 387.52,-131.8 387.52,-131.8"/>
<polygon fill="black" stroke="black" points="387.52,-128.3 377.52,-131.8 387.52,-135.3 387.52,-128.3"/>
</g>
<!-- ResultRankingRoutingModule -->
<g id="node4" class="node">
<title>ResultRankingRoutingModule</title>
<polygon fill="#8dd3c7" stroke="black" points="399.89,-84.8 396.89,-88.8 375.89,-88.8 372.89,-84.8 212.11,-84.8 212.11,-48.8 399.89,-48.8 399.89,-84.8"/>
<text text-anchor="middle" x="306" y="-62.6" font-family="Times,serif" font-size="14.00">ResultRankingRoutingModule</text>
</g>
<!-- ResultRankingRoutingModule&#45;&gt;ResultRankingModule -->
<g id="edge3" class="edge">
<title>ResultRankingRoutingModule&#45;&gt;ResultRankingModule</title>
<path fill="none" stroke="black" d="M306,-84.91C306,-84.91 306,-103.79 306,-103.79"/>
<polygon fill="black" stroke="black" points="302.5,-103.79 306,-113.79 309.5,-103.79 302.5,-103.79"/>
</g>
</g>
</svg>
