<?xml version="1.0" encoding="UTF-8" standalone="no"?>
<!DOCTYPE svg PUBLIC "-//W3C//DTD SVG 1.1//EN"
 "http://www.w3.org/Graphics/SVG/1.1/DTD/svg11.dtd">
<!-- Generated by graphviz version 5.0.0 (20220707.1540)
 -->
<!-- Title: dependencies Pages: 1 -->
<svg width="432pt" height="174pt"
 viewBox="0.00 0.00 432.00 173.80" xmlns="http://www.w3.org/2000/svg" xmlns:xlink="http://www.w3.org/1999/xlink">
<g id="graph0" class="graph" transform="scale(1 1) rotate(0) translate(4 169.8)">
<title>dependencies</title>
<polygon fill="white" stroke="transparent" points="-4,4 -4,-169.8 428,-169.8 428,4 -4,4"/>
<text text-anchor="middle" x="212" y="-8.2" font-family="sans-serif" font-size="14.00">dependencies</text>
<g id="clust1" class="cluster">
<title>cluster_ResultRankingModule</title>
<polygon fill="none" stroke="black" stroke-dasharray="1,5" points="8,-32.8 8,-157.8 416,-157.8 416,-32.8 8,-32.8"/>
</g>
<g id="clust2" class="cluster">
<title>cluster_ResultRankingModule_declarations</title>
<polygon fill="none" stroke="black" points="228,-40.8 228,-92.8 408,-92.8 408,-40.8 228,-40.8"/>
</g>
<g id="clust4" class="cluster">
<title>cluster_ResultRankingModule_imports</title>
<polygon fill="none" stroke="black" points="16,-40.8 16,-92.8 220,-92.8 220,-40.8 16,-40.8"/>
</g>
<!-- ResultRankingComponent -->
<g id="node1" class="node">
<title>ResultRankingComponent</title>
<polygon fill="#ffffb3" stroke="black" points="400.05,-84.8 235.95,-84.8 235.95,-48.8 400.05,-48.8 400.05,-84.8"/>
<text text-anchor="middle" x="318" y="-62.6" font-family="Times,serif" font-size="14.00">ResultRankingComponent</text>
</g>
<!-- ResultRankingModule -->
<g id="node2" class="node">
<title>ResultRankingModule</title>
<polygon fill="#8dd3c7" stroke="black" points="289.27,-149.8 286.27,-153.8 265.27,-153.8 262.27,-149.8 146.73,-149.8 146.73,-113.8 289.27,-113.8 289.27,-149.8"/>
<text text-anchor="middle" x="218" y="-127.6" font-family="Times,serif" font-size="14.00">ResultRankingModule</text>
</g>
<!-- ResultRankingComponent&#45;&gt;ResultRankingModule -->
<g id="edge1" class="edge">
<title>ResultRankingComponent&#45;&gt;ResultRankingModule</title>
<path fill="none" stroke="black" d="M262.56,-84.91C262.56,-84.91 262.56,-103.79 262.56,-103.79"/>
<polygon fill="black" stroke="black" points="259.06,-103.79 262.56,-113.79 266.06,-103.79 259.06,-103.79"/>
</g>
<!-- ResultRankingRoutingModule -->
<g id="node3" class="node">
<title>ResultRankingRoutingModule</title>
<polygon fill="#8dd3c7" stroke="black" points="211.89,-84.8 208.89,-88.8 187.89,-88.8 184.89,-84.8 24.11,-84.8 24.11,-48.8 211.89,-48.8 211.89,-84.8"/>
<text text-anchor="middle" x="118" y="-62.6" font-family="Times,serif" font-size="14.00">ResultRankingRoutingModule</text>
</g>
<!-- ResultRankingRoutingModule&#45;&gt;ResultRankingModule -->
<g id="edge2" class="edge">
<title>ResultRankingRoutingModule&#45;&gt;ResultRankingModule</title>
<path fill="none" stroke="black" d="M179.28,-84.91C179.28,-84.91 179.28,-103.79 179.28,-103.79"/>
<polygon fill="black" stroke="black" points="175.78,-103.79 179.28,-113.79 182.78,-103.79 175.78,-103.79"/>
</g>
</g>
</svg>
