<svg width="76" height="76" fill="none" xmlns="http://www.w3.org/2000/svg"><path d="M57 26.917V66.5a3.166 3.166 0 0 1-3.167 3.167h-38a3.166 3.166 0 0 1-3.167-3.167V15.833a3.166 3.166 0 0 1 3.167-3.166H42.75L57 26.917Z" fill="#7027E5"/><path opacity=".05" d="M15.834 12.667H57V66.5H21.662a5.828 5.828 0 0 1-5.828-5.828V12.667Z" fill="#000"/><path opacity=".07" d="M17.416 12.667H48.99a8.01 8.01 0 0 1 8.01 8.01v44.24H21.912a4.495 4.495 0 0 1-4.495-4.495V12.666Z" fill="#000"/><path d="M63.333 22.167v38a3.166 3.166 0 0 1-3.166 3.166h-38A3.166 3.166 0 0 1 19 60.167V9.5a3.166 3.166 0 0 1 3.167-3.167H47.5l15.833 15.834Z" fill="#B893F2"/><path d="M47.5 6.333V19a3.166 3.166 0 0 0 3.167 3.167h12.666L47.5 6.333Z" fill="#7027E5"/><path d="M38.263 43.936a6.054 6.054 0 0 1-.33-1.88c0-4.55 4.686-4.724 4.686-8.1 0-2.125-2.1-2.256-2.475-2.256-2.385 0-4.247 1.363-5.029 2.052v-4.717c.805-.48 2.644-1.44 5.578-1.44 6.793 0 6.878 4.669 6.878 5.67 0 5.39-5.562 5.791-5.562 9.244 0 .72.261 1.248.375 1.425h-4.121v.002Zm2.286 7.408c-1.293 0-2.66-.807-2.66-2.373 0-1.566 1.42-2.345 2.66-2.345 1.24 0 2.617.695 2.617 2.345 0 1.65-1.323 2.373-2.617 2.373Z" fill="#F1E9FB"/></svg>