<svg width="76" height="76" fill="none" xmlns="http://www.w3.org/2000/svg"><path d="M69.667 38c0 17.488-14.179 31.667-31.667 31.667S6.334 55.487 6.334 38C6.334 20.512 20.512 6.333 38 6.333S69.667 20.513 69.667 38Z" fill="#0D6EFD"/><path d="M64.917 38c0-3.903-.632-7.628-1.736-11.083h4.451a31.335 31.335 0 0 0-1.382-3.167h-4.247C57.562 13.435 48.483 6.333 38 6.333S18.438 13.435 13.995 23.75H9.748a31.693 31.693 0 0 0-1.382 3.167h4.451A36.43 36.43 0 0 0 11.083 38c0 3.903.632 7.629 1.736 11.083H8.367A31.332 31.332 0 0 0 9.75 52.25h4.246c4.443 10.315 13.522 17.417 24.006 17.417 10.483 0 19.561-7.102 24.004-17.417h4.247a31.7 31.7 0 0 0 1.382-3.167h-4.45A36.479 36.479 0 0 0 64.916 38Zm-3.167 0c0 3.928-.667 7.674-1.87 11.083h-9.99c.512-3.587.776-7.362.776-11.083 0-3.72-.262-7.495-.775-11.083h9.989c1.203 3.409 1.87 7.155 1.87 11.083ZM38 66.5c-3.066 0-6.367-5.455-8.157-14.25h16.314C44.367 61.045 41.065 66.5 38 66.5Zm-8.71-17.417c-.497-3.345-.79-7.063-.79-11.083 0-4.02.293-7.738.791-11.083h17.417c.499 3.345.792 7.063.792 11.083 0 4.02-.293 7.738-.792 11.083H29.292ZM38 9.5c3.065 0 6.367 5.455 8.157 14.25H29.843C31.633 14.955 34.934 9.5 38 9.5Zm20.536 14.25h-9.17c-1.013-5.273-2.602-9.93-4.742-13.099 5.92 2.068 10.878 6.826 13.912 13.099Zm-27.16-13.099c-2.138 3.17-3.73 7.826-4.741 13.099h-9.171c3.034-6.273 7.993-11.031 13.911-13.099ZM14.25 38c0-3.928.666-7.674 1.87-11.083h9.989A79.066 79.066 0 0 0 25.333 38c0 3.72.263 7.495.776 11.083h-9.99c-1.203-3.409-1.87-7.155-1.87-11.083Zm3.214 14.25h9.17c1.012 5.273 2.602 9.93 4.741 13.099-5.918-2.068-10.877-6.826-13.911-13.099Zm27.16 13.099c2.138-3.17 3.73-7.827 4.741-13.099h9.17c-3.033 6.273-7.992 11.031-13.91 13.099Z" fill="#85B7FE"/><path opacity=".05" d="m55.835 47.978-12.5-12.5a2.175 2.175 0 0 0-2.423-.464 2.192 2.192 0 0 0-1.328 2.017V54.92c0 2.064 2.205 2.911 3.624 1.695l2.506-2.088 1.88 4.322c.36.824 1.594 1.617 2.89 1.136l2.13-.927c1.12-.475 1.723-1.638 1.142-2.89l-1.824-4.2 2.536-.228c2.02 0 2.77-2.372 1.367-3.762Z" fill="#000"/><path opacity=".07" d="m55.274 48.537-12.5-12.5a1.393 1.393 0 0 0-1.55-.296 1.4 1.4 0 0 0-.849 1.288v17.889c0 1.298 1.412 1.867 2.326 1.088l3.317-2.766 2.299 5.291c.247.567 1.045 1.034 1.85.727l2.13-.926c.716-.306 1.088-1.068.73-1.85l-2.262-5.204 3.63-.325c1.278-.025 1.769-1.532.88-2.416Z" fill="#000"/><path d="m54.714 49.098-12.5-12.5a.603.603 0 0 0-.679-.13.605.605 0 0 0-.368.563v17.887c0 .53.619.82 1.027.481l4.13-3.444 2.72 6.26c.134.31.497.452.807.318l2.133-.928a.615.615 0 0 0 .318-.808l-2.7-6.211 4.725-.423a.625.625 0 0 0 .387-1.065Z" fill="#fff"/></svg>