<svg width="80" height="63" fill="none" xmlns="http://www.w3.org/2000/svg"><path d="M72.625 37.344c.267-.547.503-1.123.708-1.727 2.34-6.907-1.2-15.18-8.652-17.178C63.876 8.321 56.765 1.38 48.734.195 39.54-1.161 31.12 4.678 28.319 13.959c-3.377-1.196-6.667-1.05-9.769.762-1.407.65-2.694 1.61-3.849 2.874-1.695 1.854-2.797 4.195-3.246 6.662-.665.105-1.318.21-1.934.43-3.591 1.288-5.857 3.939-6.478 7.932-.387 2.486.394 4.966.83 5.968 1.72 3.96 5.708 6.204 9.76 5.61.202-.029.495.062.669.208.214 6.328 3.287 11.926 7.896 15.123 7.397 5.13 16.913 3.55 22.917-3.485 2.572 2.63 5.634 3.91 9.23 3.445 3.576-.461 6.353-2.434 8.379-5.643.936.251 1.823.614 2.74.714 3.593.393 6.51-1.035 8.65-4.266.82-1.237 1.595-2.84 1.595-5.648 0-2.895-1.149-5.532-3.084-7.3Z" fill="#E7F1FF"/><path fill-rule="evenodd" clip-rule="evenodd" d="M61.739 3.593H53.19a.445.445 0 0 1 0-.889h8.548a.445.445 0 0 1 0 .889Zm-13.28 3.315h8.915a.444.444 0 1 0 0-.89H48.46a.445.445 0 0 0 0 .89ZM11.074 26.949h1.117a.444.444 0 1 0 0-.889h-1.117a.445.445 0 0 0 0 .89Zm1.117 1.658H7.723a.445.445 0 0 1 0-.889h4.468a.445.445 0 0 1 0 .89ZM1.19 30.266h8.916a.444.444 0 1 0 0-.889H1.19a.445.445 0 0 0 0 .889Zm10.192 0h1.284a.444.444 0 1 0 0-.889h-1.284a.445.445 0 0 0 0 .889Zm4.888 0h-2.263a.445.445 0 0 1 0-.889h2.263a.445.445 0 0 1 0 .889Zm-8.547 1.657h8.547a.444.444 0 1 0 0-.89H7.723a.445.445 0 0 0 0 .89Zm-1.54 0h-.515a.445.445 0 0 1 0-.89h.515a.445.445 0 0 1 0 .89Zm-3.406 0h1.294a.445.445 0 0 0 0-.89H2.777a.445.445 0 0 0 0 .89Zm6.51 1.658H7.722a.445.445 0 0 1 0-.89h1.563a.445.445 0 0 1 0 .89ZM59.934 6.908H58.65a.445.445 0 0 1 0-.89h1.284a.445.445 0 0 1 0 .89Zm1.342 0h2.263a.445.445 0 0 0 0-.89h-2.263a.445.445 0 0 0 0 .89Zm-10.14-3.315h.516a.445.445 0 0 0 0-.889h-.516a.445.445 0 0 0 0 .889Zm-1.597 0h-1.294a.445.445 0 0 1 0-.889h1.294a.445.445 0 0 1 0 .889Zm5.452 1.657h4.469a.445.445 0 0 0 0-.889h-4.469a.445.445 0 0 0 0 .889Z" fill="#fff"/><path fill-rule="evenodd" clip-rule="evenodd" d="M58.343 3.593h1.118a.445.445 0 0 0 0-.889h-1.118a.445.445 0 0 0 0 .889ZM52.135 5.25H53.7a.445.445 0 0 0 0-.889h-1.564a.445.445 0 0 0 0 .889Z" fill="#fff"/><path d="M26.6 47.05a.445.445 0 0 1-.445-.444v-14.94a3.957 3.957 0 0 0-3.953-3.953h-2.239a.445.445 0 0 1 0-.889h2.24a4.847 4.847 0 0 1 4.84 4.842v14.94a.443.443 0 0 1-.444.444Z" fill="#202124"/><path fill-rule="evenodd" clip-rule="evenodd" d="M18.086 29.698a2.039 2.039 0 0 1-2.038-2.037 2.04 2.04 0 0 1 2.038-2.037 2.038 2.038 0 0 1 0 4.074Zm0-3.185a1.15 1.15 0 0 0 0 2.296 1.149 1.149 0 0 0 0-2.296Zm24.491 24.131a.445.445 0 0 0 .89 0V39.35a.445.445 0 0 0-.89 0v11.296Z" fill="#202124"/><path d="M54.389 51.09H32.184a.445.445 0 0 1 0-.89h22.204c.643 0 1.166-.523 1.166-1.166v-9.387a.445.445 0 0 1 .889 0v9.388a2.057 2.057 0 0 1-2.054 2.054Z" fill="#202124"/><path d="M42.96 48.685a1.633 1.633 0 1 0 0 3.266 1.633 1.633 0 0 0 0-3.266Z" fill="#F2F3F5"/><path fill-rule="evenodd" clip-rule="evenodd" d="M40.995 50.318c0 1.085.882 1.967 1.966 1.967a1.969 1.969 0 0 0 1.966-1.967 1.968 1.968 0 0 0-1.966-1.966 1.968 1.968 0 0 0-1.966 1.966Zm.667 0c0-.716.583-1.3 1.3-1.3a1.3 1.3 0 0 1 0 2.6c-.717 0-1.3-.583-1.3-1.3Z" fill="#202124"/><path d="m41.716 36.405.02 1.839c-.02.66.512 1.105 1.32 1.105s1.274-.567 1.272-1.102v-1.843h-2.612Z" fill="#F1BC19"/><path fill-rule="evenodd" clip-rule="evenodd" d="M41.688 39.28c.32.33.807.513 1.368.513.5 0 .952-.177 1.273-.498.283-.285.445-.666.444-1.048v-1.842c0-.246-.2-.445-.445-.445h-2.612a.448.448 0 0 0-.444.45l.02 1.82c-.013.406.123.77.395 1.05Zm.493-1.042-.016-1.389h1.719v1.4a.6.6 0 0 1-.185.418c-.107.107-.307.237-.643.237-.319 0-.578-.085-.73-.243a.549.549 0 0 1-.145-.423Z" fill="#472B29"/><path d="M45.19 17.861c-.497 0-.9-.371-.9-.829v-.777c0-1.155-1.034-2.1-2.296-2.1H31.933c-1.262 0-2.295.945-2.295 2.1v2.129l.039 16.978c1.793.08 1.944.694 4.367.694h17.57c2.418 0 4.395-1.817 4.395-4.036V18.69c0-.457-.403-.829-.901-.829H45.19Z" fill="#FFED96"/><path fill-rule="evenodd" clip-rule="evenodd" d="M34.045 36.5h17.57c2.668 0 4.839-2.01 4.838-4.48V18.692c0-.703-.604-1.275-1.346-1.275H45.19c-.254 0-.458-.173-.458-.385v-.777c0-1.402-1.228-2.544-2.739-2.544H31.932c-1.51 0-2.74 1.141-2.74 2.544l.04 19.108a.443.443 0 0 0 .425.442c.739.033 1.16.158 1.645.303h.002c.62.184 1.324.393 2.74.393Zm-2.487-1.244c-.41-.122-.83-.246-1.437-.307l-.039-18.695c0-.913.83-1.655 1.85-1.655h10.062c1.02 0 1.85.742 1.85 1.655v.777c0 .702.604 1.274 1.347 1.274h9.917c.252 0 .457.173.457.386v13.328c0 1.981-1.773 3.593-3.95 3.593h-17.57c-1.287 0-1.898-.18-2.487-.356Z" fill="#202124"/><path d="M54.987 36.422H30.796a1.12 1.12 0 0 1-1.118-1.12l3.54-14.995h26.33l-3.54 15.092c0 .565-.457 1.023-1.02 1.023Z" fill="#fff"/><path fill-rule="evenodd" clip-rule="evenodd" d="M37.678 16.237H31.39a.222.222 0 0 1 0-.445h6.288a.222.222 0 0 1 0 .445Zm-6.882 20.63h24.19c.79 0 1.435-.628 1.465-1.413l3.529-15.047a.444.444 0 0 0-.433-.545h-26.33a.444.444 0 0 0-.432.342l-3.54 14.995a.44.44 0 0 0-.012.102c0 .864.7 1.566 1.563 1.566Zm0-.889a.676.676 0 0 1-.672-.632l3.445-14.595h25.418l-3.412 14.546a.434.434 0 0 0-.012.102.579.579 0 0 1-.576.579H30.796Zm8.074-19.741h1.288a.222.222 0 0 0 0-.445H38.87a.222.222 0 0 0 0 .445Z" fill="#202124"/><path fill-rule="evenodd" clip-rule="evenodd" d="M50.231 20.24a.135.135 0 0 1-.078-.026.133.133 0 0 1-.03-.185l1.37-1.893a.133.133 0 1 1 .215.157l-1.37 1.892a.13.13 0 0 1-.107.055Zm1.21-.026a.135.135 0 0 0 .078.026.13.13 0 0 0 .108-.055l1.369-1.892a.133.133 0 1 0-.215-.157l-1.37 1.893a.133.133 0 0 0 .03.185Zm1.367.026a.135.135 0 0 1-.078-.026.133.133 0 0 1-.03-.185l1.37-1.893a.133.133 0 1 1 .215.157l-1.37 1.892a.132.132 0 0 1-.107.055Zm1.29 0a.133.133 0 0 1-.108-.212l1.368-1.892a.133.133 0 1 1 .216.157l-1.37 1.892a.13.13 0 0 1-.107.055Zm-4.548-.971a.135.135 0 0 0 .078.025c.04 0 .08-.02.107-.055l.685-.945a.133.133 0 1 0-.215-.157l-.685.946a.132.132 0 0 0 .03.186Z" fill="#202124"/><path d="M65.695 48.305h9.641a4.007 4.007 0 0 0 .823-7.929c.021-.169.036-.34.036-.515a4.15 4.15 0 0 0-4.15-4.15c-1.353 0-2.55.65-3.308 1.654a4.578 4.578 0 0 0-9.06-.518c-.114.62-.103 1.22.012 1.785a2.852 2.852 0 0 0-2.095-.917 2.86 2.86 0 0 0-2.853 2.673 3.85 3.85 0 0 0-2.226.153c-1.508.567-2.583 1.986-2.645 3.596a4.007 4.007 0 0 0 4.004 4.167h9.236" fill="#fff"/><path d="M75.336 48.749h-9.64a.445.445 0 0 1 0-.89h9.641a3.567 3.567 0 0 0 3.562-3.562 3.574 3.574 0 0 0-2.83-3.486.445.445 0 0 1-.35-.49c.018-.151.032-.304.032-.46a3.71 3.71 0 0 0-3.706-3.706 3.68 3.68 0 0 0-2.955 1.476.445.445 0 0 1-.797-.233 4.153 4.153 0 0 0-1.503-2.885 4.115 4.115 0 0 0-3.137-.901c-1.76.215-3.215 1.578-3.538 3.315-.1.543-.097 1.087.01 1.615a.446.446 0 0 1-.761.392 2.393 2.393 0 0 0-1.77-.776 2.42 2.42 0 0 0-2.409 2.258.446.446 0 0 1-.539.404 3.399 3.399 0 0 0-1.975.136c-1.354.508-2.302 1.794-2.356 3.197a3.53 3.53 0 0 0 .991 2.612 3.53 3.53 0 0 0 2.568 1.093h9.236a.445.445 0 0 1 0 .889h-9.238a4.412 4.412 0 0 1-3.208-1.366 4.42 4.42 0 0 1-1.24-3.263c.07-1.758 1.248-3.362 2.934-3.994a4.3 4.3 0 0 1 2.007-.25 3.313 3.313 0 0 1 3.228-2.605c.547 0 1.084.138 1.56.394.002-.3.031-.6.088-.9.392-2.114 2.163-3.773 4.304-4.035a4.986 4.986 0 0 1 3.808 1.095 5.046 5.046 0 0 1 1.668 2.58 4.55 4.55 0 0 1 3.025-1.139 4.599 4.599 0 0 1 4.59 4.773 4.471 4.471 0 0 1 3.152 4.258 4.458 4.458 0 0 1-4.452 4.454Z" fill="#202124"/><path d="M63.373 39.478c-1.481-.097-2.758.926-2.849 2.286-.011.17-.003.336.02.497a1.746 1.746 0 0 0-1.194-.574c-.889-.058-1.657.53-1.768 1.327a2.54 2.54 0 0 0-.505-.085c-1.297-.085-2.413.81-2.493 2" fill="#FDFCEF"/><path d="M54.583 45.152h-.015a.22.22 0 0 1-.206-.237c.089-1.31 1.308-2.308 2.73-2.206.105.006.212.019.32.04.233-.793 1.034-1.353 1.953-1.282.336.021.658.128.936.301l.001-.018c.1-1.48 1.479-2.609 3.087-2.493a.22.22 0 0 1 .206.236c-.007.122-.097.232-.237.207-1.357-.073-2.53.844-2.613 2.08-.01.148-.003.3.019.448a.222.222 0 0 1-.387.18 1.529 1.529 0 0 0-1.043-.499c-.77-.04-1.437.45-1.533 1.136a.224.224 0 0 1-.277.184 2.438 2.438 0 0 0-.463-.078c-1.152-.06-2.186.727-2.258 1.794a.22.22 0 0 1-.22.207Z" fill="#202124"/><path d="M76.959 40.846c-1.393-.656-3.004-.191-3.598 1.039a2.17 2.17 0 0 0-.164.47" fill="#FDFCEF"/><path d="M73.197 42.576a.222.222 0 0 1-.217-.272c.042-.181.103-.355.182-.517.647-1.337 2.393-1.847 3.892-1.142.11.053.159.184.106.295a.225.225 0 0 1-.296.107c-1.28-.605-2.762-.186-3.302.934a1.913 1.913 0 0 0-.148.423.223.223 0 0 1-.217.172Z" fill="#202124"/><path fill-rule="evenodd" clip-rule="evenodd" d="M31.008 51.532h3.148c2.117 0 3.84-1.69 3.84-3.77 0-1.644-1.101-3.096-2.67-3.59l.002-.09c0-2.144-1.777-3.888-3.962-3.888-.94 0-1.824.32-2.527.895a4.2 4.2 0 0 0-1.375-2.046 4.338 4.338 0 0 0-3.313-.952c-1.843.22-3.367 1.62-3.706 3.408-.041.216-.065.43-.073.644a2.917 2.917 0 0 0-1.257-.286c-1.34 0-2.482.914-2.787 2.155a3.79 3.79 0 0 0-1.672.217c-1.456.535-2.474 1.894-2.533 3.383a3.708 3.708 0 0 0 1.044 2.736 3.893 3.893 0 0 0 2.794 1.183h7.83a.445.445 0 0 0 0-.889h-7.83a2.96 2.96 0 0 1-2.154-.91 2.82 2.82 0 0 1-.795-2.085c.043-1.133.828-2.171 1.951-2.583a2.852 2.852 0 0 1 1.64-.11.446.446 0 0 0 .537-.405c.067-1.01.934-1.802 1.974-1.802.558 0 1.074.22 1.453.621a.446.446 0 0 0 .759-.395 3.336 3.336 0 0 1-.008-1.308c.267-1.41 1.476-2.516 2.94-2.69a3.49 3.49 0 0 1 2.643.758 3.304 3.304 0 0 1 1.217 2.314.444.444 0 0 0 .794.237 3.074 3.074 0 0 1 2.453-1.2c1.694 0 3.073 1.346 3.073 2.999 0 .127-.01.25-.026.372a.446.446 0 0 0 .352.491c1.358.278 2.343 1.462 2.343 2.817 0 1.588-1.324 2.88-2.951 2.88h-3.148a.445.445 0 0 0 0 .889Zm-5.756 0h.32a.445.445 0 0 0 0-.89h-.32a.445.445 0 0 0 0 .89Z" fill="#202124"/><path fill-rule="evenodd" clip-rule="evenodd" d="M32.589 46.368a.224.224 0 0 0 .267-.17c.024-.112.063-.222.115-.326.43-.873 1.65-1.183 2.722-.688a.221.221 0 1 0 .186-.402c-1.287-.596-2.77-.193-3.308.895a1.87 1.87 0 0 0-.15.425.22.22 0 0 0 .168.266Zm-5.52 5.164h.983a.445.445 0 0 0 0-.89h-.983a.445.445 0 0 0 0 .89Z" fill="#202124"/></svg>