<svg width="76" height="76" fill="none" xmlns="http://www.w3.org/2000/svg"><path d="M53.041 52.25H22.959a.792.792 0 0 1-.791-.792v-1.583c0-.437.354-.792.791-.792h30.084c.436 0 .791.355.791.792v1.583a.792.792 0 0 1-.791.792Z" fill="#EAF6EC"/><path opacity=".5" d="M61.75 44.333h-47.5v20.584a3.166 3.166 0 0 0 3.167 3.166h41.166a3.166 3.166 0 0 0 3.167-3.166V44.333Z" fill="#DD3646"/><path d="M61.75 25.333v19h-47.5v-33.25a3.166 3.166 0 0 1 3.167-3.166h26.916L61.75 25.333Z" fill="#93D3A2"/><path d="M44.334 7.917v14.25a3.166 3.166 0 0 0 3.166 3.166h14.25L44.334 7.917Z" fill="#28A745"/><path d="M53.041 33.25H22.959a.792.792 0 0 1-.791-.792v-1.583c0-.437.354-.792.791-.792h30.084c.436 0 .791.355.791.792v1.583a.792.792 0 0 1-.791.792Zm0 6.333H22.959a.792.792 0 0 1-.791-.791v-1.584a.79.79 0 0 1 .791-.791h30.084c.436 0 .791.354.791.791v1.584a.792.792 0 0 1-.791.791Z" fill="#EAF6EC"/><path d="M69.667 45.917H6.333a1.582 1.582 0 0 1-1.583-1.584c0-.875.708-1.583 1.583-1.583h63.334c.875 0 1.583.708 1.583 1.583 0 .876-.708 1.584-1.583 1.584Z" fill="#DD3646"/></svg>