<svg width="76" height="76" fill="none" xmlns="http://www.w3.org/2000/svg"><path d="M6.333 38C6.333 20.512 20.514 6.333 38 6.333c17.488 0 31.667 14.18 31.667 31.667 0 17.488-14.179 31.667-31.667 31.667S6.334 55.488 6.334 38Z" fill="#DD3646"/><path d="M64.917 38a36.03 36.03 0 0 0-2.912-14.25h4.246a31.414 31.414 0 0 0-1.817-3.167h-3.978C55.636 12.008 47.375 6.333 38 6.333s-17.635 5.675-22.456 14.25h-3.978A31.406 31.406 0 0 0 9.75 23.75h4.246A36.024 36.024 0 0 0 11.083 38c0 5.129 1.066 9.96 2.912 14.25H9.749a31.397 31.397 0 0 0 1.817 3.167h3.977c4.822 8.575 13.082 14.25 22.457 14.25s17.635-5.675 22.456-14.25h3.978a31.405 31.405 0 0 0 1.817-3.167h-4.246A36.023 36.023 0 0 0 64.917 38Zm-3.167 0c0 5.193-1.183 10.053-3.213 14.25h-9.172c.86-4.486 1.302-9.416 1.302-14.25s-.442-9.764-1.302-14.25h9.172c2.03 4.198 3.213 9.057 3.213 14.25ZM38 66.5c-2.676 0-5.528-4.175-7.4-11.083h14.802C43.527 62.325 40.676 66.5 38 66.5Zm-8.157-14.25C29.008 48.154 28.5 43.337 28.5 38s.508-10.154 1.343-14.25h16.314C46.992 27.846 47.5 32.663 47.5 38s-.508 10.154-1.343 14.25H29.843ZM38 9.5c2.676 0 5.527 4.175 7.4 11.083H30.599C32.472 13.675 35.324 9.5 38 9.5Zm18.758 11.083h-8.093c-.99-3.956-2.341-7.416-4.04-9.932 4.875 1.704 9.096 5.233 12.133 9.932Zm-25.383-9.932c-1.699 2.518-3.05 5.976-4.04 9.932h-8.093c3.037-4.699 7.258-8.228 12.133-9.932ZM14.25 38c0-5.193 1.183-10.052 3.212-14.25h9.173c-.86 4.486-1.302 9.416-1.302 14.25s.442 9.764 1.302 14.25h-9.173c-2.03-4.197-3.212-9.057-3.212-14.25Zm4.992 17.417h8.093c.99 3.956 2.341 7.416 4.04 9.932-4.875-1.704-9.096-5.233-12.133-9.932Zm25.383 9.932c1.699-2.518 3.05-5.976 4.04-9.932h8.093c-3.037 4.699-7.258 8.228-12.133 9.932Z" fill="#EF9AA3"/><path opacity=".05" d="M67.029 30.083h-4.18a1.17 1.17 0 0 0-1.146.93l-.746 3.55-.92-3.6a1.17 1.17 0 0 0-1.134-.88h-3.806c-.535 0-1.002.363-1.135.882l-.92 3.6-.746-3.55a1.168 1.168 0 0 0-1.145-.932H43.85a1.17 1.17 0 0 0-1.146.93l-.746 3.55-.92-3.6a1.17 1.17 0 0 0-1.134-.88h-3.806c-.535 0-1.002.363-1.135.882l-.92 3.6-.746-3.55a1.168 1.168 0 0 0-1.145-.932H24.85a1.17 1.17 0 0 0-1.146.93l-.746 3.55-.92-3.6a1.17 1.17 0 0 0-1.134-.88h-3.806c-.535 0-1.002.363-1.135.882l-.919 3.6-.745-3.552a1.171 1.171 0 0 0-1.147-.93h-4.18a1.17 1.17 0 0 0-1.135 1.456L11.21 45.03c.13.521.598.887 1.135.887h4.519c.53 0 .992-.35 1.128-.862.305-1.132.82-3.06 1.008-3.768.186.708.703 2.636 1.007 3.768.139.512.601.862 1.132.862h4.518a1.17 1.17 0 0 0 1.136-.887l1.708-6.832 1.709 6.832c.13.521.598.887 1.135.887h4.519c.53 0 .992-.35 1.129-.862.303-1.132.82-3.06 1.007-3.768.186.708.703 2.636 1.006 3.768.14.512.602.862 1.133.862h4.518a1.17 1.17 0 0 0 1.136-.887l1.708-6.832 1.709 6.832c.13.521.598.887 1.135.887h4.519c.53 0 .992-.35 1.129-.862.303-1.132.82-3.06 1.007-3.768.186.708.703 2.636 1.006 3.768.14.512.602.862 1.133.862h4.518a1.17 1.17 0 0 0 1.136-.887l3.372-13.492a1.17 1.17 0 0 0-1.135-1.455Z" fill="#000"/><path opacity=".07" d="M66.426 30.875h-3.194a.85.85 0 0 0-.833.676l-1.366 6.506-1.67-6.542a.85.85 0 0 0-.825-.64h-3.075a.852.852 0 0 0-.825.64l-1.67 6.542-1.369-6.506a.85.85 0 0 0-.832-.676h-6.538a.85.85 0 0 0-.833.676l-1.366 6.506-1.67-6.542a.85.85 0 0 0-.826-.64H36.46a.852.852 0 0 0-.825.64l-1.67 6.542-1.368-6.506a.85.85 0 0 0-.833-.676h-6.537a.85.85 0 0 0-.833.676l-1.367 6.506-1.67-6.542a.85.85 0 0 0-.825-.64h-3.075a.852.852 0 0 0-.825.64l-1.67 6.542-1.36-6.506a.85.85 0 0 0-.831-.676H9.574a.85.85 0 0 0-.824 1.058l3.136 12.548a.852.852 0 0 0 .825.644H16.5c.385 0 .72-.255.82-.627.383-1.431 1.56-5.831 1.677-6.438.119.607 1.294 5.008 1.677 6.438.1.372.435.627.82.627h3.789a.85.85 0 0 0 .825-.644l2.392-9.548 2.388 9.548a.852.852 0 0 0 .825.644H35.5a.845.845 0 0 0 .82-.627c.384-1.431 1.56-5.831 1.678-6.438.118.607 1.293 5.008 1.676 6.438.1.372.436.627.82.627h3.79a.85.85 0 0 0 .824-.644l2.391-9.548 2.388 9.548a.852.852 0 0 0 .825.644H54.5a.845.845 0 0 0 .82-.627c.384-1.431 1.56-5.831 1.678-6.438.118.607 1.293 5.008 1.676 6.438.1.372.436.627.82.627h3.79a.85.85 0 0 0 .824-.644l3.137-12.548a.846.846 0 0 0-.82-1.058Z" fill="#000"/><path d="m44.183 31.667-2.077 9.884-2.523-9.884h-3.166l-2.523 9.884-2.077-9.884H28.5l3.167 12.666h3.88s2.396-8.923 2.453-9.5c.057.577 2.453 9.5 2.453 9.5h3.88L47.5 31.667h-3.317Zm-19 0-2.077 9.884-2.523-9.884h-3.166l-2.523 9.884-2.077-9.884H9.5l3.167 12.666h3.88s2.396-8.923 2.453-9.5c.057.577 2.453 9.5 2.453 9.5h3.88L28.5 31.667h-3.317Zm38 0-2.077 9.884-2.523-9.884h-3.166l-2.523 9.884-2.077-9.884H47.5l3.167 12.666h3.88s2.396-8.923 2.453-9.5c.057.577 2.453 9.5 2.453 9.5h3.88L66.5 31.667h-3.317Z" fill="#fff"/></svg>