<svg width="76" height="76" fill="none" xmlns="http://www.w3.org/2000/svg"><path d="M6.333 60.167V23.75h63.334v36.417a3.176 3.176 0 0 1-3.167 3.166h-57a3.176 3.176 0 0 1-3.167-3.166Z" fill="#FFDA2D"/><path d="M62.541 36.417H41.959a.792.792 0 0 1-.791-.792v-1.583c0-.437.354-.792.791-.792h20.584c.436 0 .791.355.791.792v1.583a.792.792 0 0 1-.791.792Zm0 6.333H41.959a.792.792 0 0 1-.791-.792v-1.583c0-.437.354-.792.791-.792h20.584c.436 0 .791.355.791.792v1.583a.792.792 0 0 1-.791.792Zm0 6.333H41.959a.792.792 0 0 1-.791-.791v-1.584a.79.79 0 0 1 .791-.791h20.584c.436 0 .791.354.791.791v1.584a.792.792 0 0 1-.791.791Zm-4.75 6.334H41.959a.792.792 0 0 1-.791-.792v-1.583c0-.437.354-.792.791-.792h15.834c.436 0 .791.355.791.792v1.583a.792.792 0 0 1-.791.792Z" fill="#FFFBEA"/><path d="M69.667 15.833v7.917H6.333v-7.917A3.176 3.176 0 0 1 9.5 12.667h57a3.176 3.176 0 0 1 3.167 3.166Z" fill="#806D16"/><path d="M26.125 20.583H65.71a.792.792 0 0 0 .791-.791v-3.167a.792.792 0 0 0-.791-.792H26.124a.792.792 0 0 0-.791.792v3.167a.79.79 0 0 0 .791.791Zm-14.25 0a2.375 2.375 0 1 0 0-4.75 2.375 2.375 0 0 0 0 4.75Zm7.916 0a2.375 2.375 0 1 0 0-4.75 2.375 2.375 0 0 0 0 4.75Z" fill="#FFED96"/><path d="M33.601 33.25H13.898c-.68 0-1.232.551-1.232 1.232v19.703c0 .68.551 1.232 1.232 1.232h19.703c.681 0 1.232-.551 1.232-1.232V34.482a1.23 1.23 0 0 0-1.232-1.232Z" fill="#806D16"/><path d="M28.715 43.757a1.846 1.846 0 0 0-2.576-.035l-6.083 5.764v5.93h13.547c.68 0 1.23-.55 1.23-1.231v-4.31l-6.118-6.118Z" fill="#FFED96"/><path d="M30.083 39.583a1.583 1.583 0 1 0 0-3.166 1.583 1.583 0 0 0 0 3.166Z" fill="#FFDA2D"/><path d="M13.898 55.417h19.703c.5 0 .928-.3 1.121-.727L21.327 41.295a1.846 1.846 0 0 0-2.576-.035l-6.085 5.763v7.162c0 .68.551 1.232 1.232 1.232Z" fill="#FFED96"/></svg>