<svg width="14" height="14" fill="none" xmlns="http://www.w3.org/2000/svg"><path d="M1.077 1.615c0-.297.241-.538.538-.538h10.77c.297 0 .538.241.538.538v2.693H14V1.615C14 .724 13.277 0 12.385 0H1.615C.724 0 0 .724 0 1.615v10.77C0 13.277.724 14 1.615 14h10.77c.892 0 1.615-.723 1.615-1.615V9.692h-1.077v2.693a.539.539 0 0 1-.538.538H1.615a.539.539 0 0 1-.538-.538V1.615Z" fill="#000"/><path d="M6.146 7.538H14V6.462H6.146l2.446-2.447-.761-.761L4.085 7l3.746 3.746.761-.761-2.446-2.447Z" fill="#000"/></svg>