<svg width="14" height="13" fill="none" xmlns="http://www.w3.org/2000/svg"><path d="M.5 0a.5.5 0 1 0 0 1 .5.5 0 0 0 0-1Zm10 1a.5.5 0 0 0-.5.5v8.543L8.078 8.125a.498.498 0 0 0-.703.703l2.81 2.814a.445.445 0 0 0 .63 0l2.81-2.81a.5.5 0 0 0-.707-.707L11 10.043V1.5a.5.5 0 0 0-.5-.5ZM.5 2a.5.5 0 0 0 0 1h1a.5.5 0 0 0 0-1h-1Zm0 2a.5.5 0 0 0 0 1h2a.5.5 0 0 0 0-1h-2Zm0 2a.5.5 0 0 0 0 1h3a.5.5 0 0 0 0-1h-3Zm0 2a.5.5 0 0 0 0 1h4a.5.5 0 0 0 0-1h-4Zm0 2a.5.5 0 0 0 0 1h5a.5.5 0 0 0 0-1h-5Zm0 2a.5.5 0 0 0 0 1h6a.5.5 0 0 0 0-1h-6Z" fill="#202124"/></svg>