<svg width="14" height="13" fill="none" xmlns="http://www.w3.org/2000/svg"><path d="M.5 13a.5.5 0 1 1 0-1 .5.5 0 0 1 0 1Zm10-1a.5.5 0 0 1-.5-.5V2.957L8.078 4.875a.498.498 0 0 1-.703-.703l2.81-2.814a.445.445 0 0 1 .63 0l2.81 2.81a.5.5 0 0 1-.707.707L11 2.957V11.5a.5.5 0 0 1-.5.5Zm-10-1a.5.5 0 0 1 0-1h1a.5.5 0 0 1 0 1h-1Zm0-2a.5.5 0 0 1 0-1h2a.5.5 0 0 1 0 1h-2Zm0-2a.5.5 0 0 1 0-1h3a.5.5 0 0 1 0 1h-3Zm0-2a.5.5 0 0 1 0-1h4a.5.5 0 0 1 0 1h-4Zm0-2a.5.5 0 0 1 0-1h5a.5.5 0 0 1 0 1h-5Zm0-2a.5.5 0 0 1 0-1h6a.5.5 0 0 1 0 1h-6Z" fill="#202124"/></svg>