<?xml version="1.0" encoding="UTF-8" standalone="no"?>
<!DOCTYPE svg PUBLIC "-//W3C//DTD SVG 1.1//EN"
 "http://www.w3.org/Graphics/SVG/1.1/DTD/svg11.dtd">
<!-- Generated by graphviz version 5.0.0 (20220707.1540)
 -->
<!-- Title: dependencies Pages: 1 -->
<svg width="268pt" height="247pt"
 viewBox="0.00 0.00 268.00 246.80" xmlns="http://www.w3.org/2000/svg" xmlns:xlink="http://www.w3.org/1999/xlink">
<g id="graph0" class="graph" transform="scale(1 1) rotate(0) translate(4 242.8)">
<title>dependencies</title>
<polygon fill="white" stroke="transparent" points="-4,4 -4,-242.8 264,-242.8 264,4 -4,4"/>
<text text-anchor="middle" x="130" y="-8.2" font-family="sans-serif" font-size="14.00">dependencies</text>
<g id="clust1" class="cluster">
<title>cluster_AddAlternateQuestionModule</title>
<polygon fill="none" stroke="black" stroke-dasharray="1,5" points="8,-32.8 8,-230.8 252,-230.8 252,-32.8 8,-32.8"/>
</g>
<g id="clust5" class="cluster">
<title>cluster_AddAlternateQuestionModule_exports</title>
<polygon fill="none" stroke="black" points="16,-170.8 16,-222.8 244,-222.8 244,-170.8 16,-170.8"/>
</g>
<g id="clust2" class="cluster">
<title>cluster_AddAlternateQuestionModule_declarations</title>
<polygon fill="none" stroke="black" points="18,-40.8 18,-92.8 242,-92.8 242,-40.8 18,-40.8"/>
</g>
<!-- AddAlternateQuestionComponent -->
<g id="node1" class="node">
<title>AddAlternateQuestionComponent</title>
<polygon fill="#ffffb3" stroke="black" points="234.08,-84.8 25.92,-84.8 25.92,-48.8 234.08,-48.8 234.08,-84.8"/>
<text text-anchor="middle" x="130" y="-62.6" font-family="Times,serif" font-size="14.00">AddAlternateQuestionComponent</text>
</g>
<!-- AddAlternateQuestionModule -->
<g id="node2" class="node">
<title>AddAlternateQuestionModule</title>
<polygon fill="#8dd3c7" stroke="black" points="223.3,-149.8 220.3,-153.8 199.3,-153.8 196.3,-149.8 36.7,-149.8 36.7,-113.8 223.3,-113.8 223.3,-149.8"/>
<text text-anchor="middle" x="130" y="-127.6" font-family="Times,serif" font-size="14.00">AddAlternateQuestionModule</text>
</g>
<!-- AddAlternateQuestionComponent&#45;&gt;AddAlternateQuestionModule -->
<g id="edge1" class="edge">
<title>AddAlternateQuestionComponent&#45;&gt;AddAlternateQuestionModule</title>
<path fill="none" stroke="black" d="M130,-84.91C130,-84.91 130,-103.79 130,-103.79"/>
<polygon fill="black" stroke="black" points="126.5,-103.79 130,-113.79 133.5,-103.79 126.5,-103.79"/>
</g>
<!-- AddAlternateQuestionComponent  -->
<g id="node3" class="node">
<title>AddAlternateQuestionComponent </title>
<polygon fill="#fb8072" stroke="black" points="235.58,-214.8 24.42,-214.8 24.42,-178.8 235.58,-178.8 235.58,-214.8"/>
<text text-anchor="middle" x="130" y="-192.6" font-family="Times,serif" font-size="14.00">AddAlternateQuestionComponent </text>
</g>
<!-- AddAlternateQuestionModule&#45;&gt;AddAlternateQuestionComponent  -->
<g id="edge2" class="edge">
<title>AddAlternateQuestionModule&#45;&gt;AddAlternateQuestionComponent </title>
<path fill="none" stroke="black" stroke-dasharray="5,2" d="M130,-149.91C130,-149.91 130,-168.79 130,-168.79"/>
<polygon fill="black" stroke="black" points="126.5,-168.79 130,-178.79 133.5,-168.79 126.5,-168.79"/>
</g>
</g>
</svg>
