<svg width="12" height="16" xmlns="http://www.w3.org/2000/svg"><g fill="none" fill-rule="evenodd"><path d="M-4-2h20v20H-4z"/><path d="m10.23 10.043.05.038.868.74.228.198c.22.193.285.505.164.766l-.029.055-.16.274-.763 1.277-.156.268a.653.653 0 0 1-.7.31l-.059-.015-.312-.097-.797-.267-.127.083c-.095.06-.192.115-.291.167l-.116.058-.159.774-.06.303a.653.653 0 0 1-.583.522l-.058.003H5.012a.653.653 0 0 1-.626-.47l-.014-.057-.059-.297-.16-.778-.116-.058a4.456 4.456 0 0 1-.291-.167l-.127-.083-.81.27-.3.094a.653.653 0 0 1-.726-.245l-.033-.05-.15-.261-.773-1.291-.155-.268a.653.653 0 0 1 .09-.776l.044-.043.235-.205.863-.734a.653.653 0 0 1 .892.952l-.046.043-.675.574.538.9.91-.305a.653.653 0 0 1 .556.068l.054.038c.263.206.537.365.824.475a.65.65 0 0 1 .392.42l.015.058.183.89h1.09l.182-.89a.653.653 0 0 1 .35-.454l.056-.024a3.19 3.19 0 0 0 .825-.475.653.653 0 0 1 .547-.123l.063.017.91.305.538-.9-.675-.574a.653.653 0 0 1-.112-.87l.038-.05a.653.653 0 0 1 .87-.113Zm-2.606-.01c.333.139.49.521.352.854a2.04 2.04 0 0 1-3.765.008.653.653 0 0 1 1.178-.56l.025.053a.735.735 0 0 0 1.33.054l.027-.057a.653.653 0 0 1 .853-.352ZM6.092.5c.34 0 .62.26.65.593l.003.06v.526a.674.674 0 0 1-.016.143h2.709a1.47 1.47 0 0 1 1.467 1.39l.002.079v3.917a1.47 1.47 0 0 1-1.391 1.467l-.078.002H2.746a1.469 1.469 0 0 1-1.467-1.391l-.002-.078V3.29c0-.785.616-1.427 1.39-1.467l.079-.002h2.709a.652.652 0 0 1-.013-.084l-.003-.06v-.525c0-.36.292-.653.653-.653Zm3.346 2.627H2.746a.163.163 0 0 0-.16.13l-.003.034v3.917c0 .079.056.144.13.16l.033.003h6.692a.163.163 0 0 0 .16-.13l.003-.033V3.29a.163.163 0 0 0-.163-.164ZM4.704 4.556a.694.694 0 1 1 0 1.387.694.694 0 0 1 0-1.387Zm2.775 0a.694.694 0 1 1 0 1.387.694.694 0 0 1 0-1.387Z" fill="#F3F3F4"/></g></svg>