<svg width="40" height="40" fill="none" xmlns="http://www.w3.org/2000/svg"><g clip-path="url(#a)"><path d="M36.875 33.75a1.25 1.25 0 1 1 0-2.5h.938A2.194 2.194 0 0 0 40 29.062a2.194 2.194 0 0 0-2.187-2.187H31.25a1.562 1.562 0 1 1 0-3.125h5a1.88 1.88 0 0 0 1.875-1.875A1.88 1.88 0 0 0 36.25 20h-10v-3.75H37.5a2.506 2.506 0 0 0 2.487-2.756c-.13-1.298-1.301-2.244-2.605-2.244h-.507a1.25 1.25 0 1 1 0-2.5h.223c.818 0 1.562-.588 1.644-1.401a1.563 1.563 0 0 0-1.554-1.724h-9.375a.938.938 0 0 1 0-1.875h2.41c.818 0 1.562-.588 1.644-1.401A1.563 1.563 0 0 0 30.313.625H9.777c-.817 0-1.562.588-1.644 1.401A1.563 1.563 0 0 0 9.688 3.75h2.187a1.25 1.25 0 1 1 0 2.5H3.868c-1.304 0-2.474.946-2.605 2.244A2.506 2.506 0 0 0 3.75 11.25h1.563a2.188 2.188 0 0 1 0 4.375h-2.07c-1.303 0-2.474.946-2.605 2.244a2.506 2.506 0 0 0 2.487 2.756H13.75V27.5h-10a1.88 1.88 0 0 0-1.875 1.875A1.88 1.88 0 0 0 3.75 31.25a1.25 1.25 0 1 1 0 2.5H2.618c-1.303 0-2.474.946-2.605 2.244A2.506 2.506 0 0 0 2.5 38.75h34.257c1.304 0 2.474-.946 2.605-2.244a2.506 2.506 0 0 0-2.487-2.756Z" fill="url(#b)"/><path d="M31.875 7.5H8.75a2.5 2.5 0 0 0-2.5 2.5v22.5a2.5 2.5 0 0 0 2.5 2.5h23.125a2.5 2.5 0 0 0 2.5-2.5V10a2.5 2.5 0 0 0-2.5-2.5Z" fill="url(#c)"/><path d="M6.25 10v3.75h28.125V10a2.5 2.5 0 0 0-2.5-2.5H8.75a2.5 2.5 0 0 0-2.5 2.5Z" fill="url(#d)"/><path d="M18.75 11.875h11.875c.688 0 1.25-.563 1.25-1.25 0-.688-.563-1.25-1.25-1.25H18.75c-.688 0-1.25.563-1.25 1.25 0 .688.563 1.25 1.25 1.25Z" fill="#F1FCFF"/><path d="M10 11.875c.688 0 1.25-.563 1.25-1.25 0-.688-.563-1.25-1.25-1.25-.688 0-1.25.563-1.25 1.25 0 .688.563 1.25 1.25 1.25Z" fill="url(#e)"/><path d="M14.375 11.875c.688 0 1.25-.563 1.25-1.25 0-.688-.563-1.25-1.25-1.25-.688 0-1.25.563-1.25 1.25 0 .688.563 1.25 1.25 1.25Z" fill="url(#f)"/><path d="M24.246 29.25h3.186c1.533 0 2.457-1.79 1.318-2.944l-6.182-6.262a1.853 1.853 0 0 0-2.636 0l-6.181 6.262a1.672 1.672 0 0 0-.344 1.902 1.8 1.8 0 0 0 1.66 1.036l.001-.5v.5l9.178.006Zm0 0c-.038 2.158-.337 4.27-1.33 5.885-1.101 1.79-3 2.883-6.044 2.865-.75-.005-2.17-.136-3.53-.34a.822.822 0 0 1-.711-.838.83.83 0 0 1 .733-.814c1.848-.239 3.03-.931 3.772-2.06.707-1.074 1.06-2.61 1.108-4.699m6.002 0h-6.002m0 0h.5c-.098 4.436-1.55 6.768-5.316 7.255-.389.05-.4.604-.012.662 1.349.202 2.743.33 3.459.334l1.37-8.251Zm0 0c.004-.163.006-.33.006-.5h.5m-.506.5.506-.5m0 0v.082-.081Z" fill="url(#g)" stroke="#E1FBFF"/></g><defs><linearGradient id="c" x1="20.313" y1="46.309" x2="20.313" y2="6.587" gradientUnits="userSpaceOnUse"><stop stop-color="#29A1EC"/><stop offset="1" stop-color="#518AE2"/></linearGradient><linearGradient id="d" x1="20.313" y1="5.709" x2="20.313" y2="14.529" gradientUnits="userSpaceOnUse"><stop stop-color="#A4A4A4"/><stop offset=".409" stop-color="#8D8D8D"/><stop offset="1" stop-color="#6F6F6F"/></linearGradient><linearGradient id="e" x1="10" y1="13.881" x2="10" y2="8.454" gradientUnits="userSpaceOnUse"><stop stop-color="#FEAA53"/><stop offset=".612" stop-color="#FFCD49"/><stop offset="1" stop-color="#FFDE44"/></linearGradient><linearGradient id="f" x1="14.375" y1="9.733" x2="14.375" y2="14.938" gradientUnits="userSpaceOnUse"><stop stop-color="#42D778"/><stop offset=".428" stop-color="#3DCA76"/><stop offset="1" stop-color="#34B171"/></linearGradient><linearGradient id="g" x1="20.94" y1="43.151" x2="20.94" y2="18.277" gradientUnits="userSpaceOnUse"><stop stop-color="#fff"/><stop offset="1" stop-color="#fff"/></linearGradient><radialGradient id="b" cx="0" cy="0" r="1" gradientUnits="userSpaceOnUse" gradientTransform="matrix(19.3753 0 0 19.719 20 19.688)"><stop stop-color="#AFEEFF"/><stop offset=".193" stop-color="#BBF1FF"/><stop offset=".703" stop-color="#D7F8FF"/><stop offset="1" stop-color="#E1FAFF"/></radialGradient><clipPath id="a"><path fill="#fff" d="M0 0h40v40H0z"/></clipPath></defs></svg>