<svg width="16" height="16" xmlns="http://www.w3.org/2000/svg"><g fill="none" fill-rule="evenodd"><path d="M0 0h16v16H0z"/><path d="M7.938 2a.54.54 0 0 1 .538.49l.002.05v1.783h4.518c.649 0 1.179.509 1.212 1.15l.002.064v7.25c0 .648-.509 1.178-1.15 1.211l-.064.002H2.881a1.214 1.214 0 0 1-1.213-1.15l-.001-.064v-7.25c0-.648.509-1.178 1.15-1.212l.064-.001h4.517V2.539A.54.54 0 0 1 7.939 2Zm5.058 3.402H2.881a.135.135 0 0 0-.133.107l-.002.028v7.25c0 .064.046.119.107.131l.028.003h10.115c.065 0 .12-.046.132-.108l.003-.027v-7.25a.135.135 0 0 0-.135-.134ZM9.371 9.836a.54.54 0 0 1 .05 1.076l-.05.003H6.505a.54.54 0 0 1-.049-1.077l.05-.002H9.37ZM5.79 7.012a.717.717 0 1 1 0 1.433.717.717 0 0 1 0-1.433Zm4.299 0a.717.717 0 1 1 0 1.433.717.717 0 0 1 0-1.433Z" fill="#26344A"/></g></svg>