<svg width="16" height="16" xmlns="http://www.w3.org/2000/svg"><g fill="none" fill-rule="evenodd"><path d="M0 0h16v16H0z"/><path d="m11.384 9.634.04.03.695.592.182.16a.522.522 0 0 1 .131.612l-.023.044-.128.22-.61 1.02-.125.216a.522.522 0 0 1-.56.248l-.047-.013-.25-.078-.637-.213-.102.066a3.565 3.565 0 0 1-.233.134l-.093.046-.127.62-.048.242a.522.522 0 0 1-.466.418L8.936 14H7.21a.522.522 0 0 1-.502-.376l-.01-.045-.047-.238-.128-.622-.093-.047a3.565 3.565 0 0 1-.233-.134l-.102-.066-.648.217-.24.074a.522.522 0 0 1-.58-.196l-.027-.04-.12-.209-.618-1.032-.125-.215a.522.522 0 0 1 .072-.62l.036-.035.188-.164.69-.587a.522.522 0 0 1 .713.761l-.036.035-.54.459.43.72.728-.244a.52.52 0 0 1 .445.054l.043.03c.21.166.43.293.66.38a.522.522 0 0 1 .313.336l.012.047.147.712h.871l.146-.711a.522.522 0 0 1 .28-.364l.045-.02c.23-.087.45-.214.66-.38a.522.522 0 0 1 .438-.098l.05.014.728.244.43-.72-.54-.46a.522.522 0 0 1-.09-.696l.031-.04a.522.522 0 0 1 .697-.09Zm-2.085-.007c.267.11.393.416.282.683a1.633 1.633 0 0 1-3.013.006.522.522 0 0 1 .943-.448l.02.042a.588.588 0 0 0 1.064.044l.021-.046a.522.522 0 0 1 .683-.281ZM8.073 2c.273 0 .497.209.52.475l.003.047v.421a.54.54 0 0 1-.013.115h2.167c.628 0 1.141.492 1.174 1.112l.001.062v3.134c0 .628-.492 1.141-1.112 1.174l-.063.001H5.397A1.175 1.175 0 0 1 4.223 7.43l-.001-.063V4.232c0-.628.492-1.14 1.112-1.173l.063-.002h2.167a.521.521 0 0 1-.01-.066l-.003-.048v-.42c0-.29.234-.523.522-.523Zm2.677 2.102H5.397a.13.13 0 0 0-.128.104l-.003.026v3.134a.13.13 0 0 0 .104.128l.027.003h5.353a.13.13 0 0 0 .128-.105l.003-.026V4.232a.13.13 0 0 0-.13-.13ZM6.964 5.244a.555.555 0 1 1 0 1.11.555.555 0 0 1 0-1.11Zm2.22 0a.555.555 0 1 1 0 1.11.555.555 0 0 1 0-1.11Z" fill="#8A959F"/></g></svg>