<svg width="13" height="12" xmlns="http://www.w3.org/2000/svg"><g fill="none"><path d="M-2-2h16v16H-2z"/><path d="M4.436 0a.516.516 0 0 1 .046 1.031l-.046.002H1.3a.267.267 0 0 0-.265.233l-.002.034v9.4c0 .136.102.249.234.265l.033.002h9.407a.267.267 0 0 0 .265-.233l.002-.034V6.783a.516.516 0 0 1 1.031-.046l.002.046V10.7c0 .697-.547 1.265-1.235 1.298l-.065.002H1.3a1.299 1.299 0 0 1-1.298-1.235L0 10.7V1.3A1.3 1.3 0 0 1 1.235.002L1.3 0h3.136Zm5.122.151a.517.517 0 0 1 .73 0l1.568 1.567a.515.515 0 0 1 0 .73l-4.703 4.7a.519.519 0 0 1-.366.152H5.22a.516.516 0 0 1-.517-.517V5.217c0-.137.055-.269.152-.366l4.703-4.7Zm.365 1.095L5.736 5.43v.837h.838l4.186-4.184-.837-.837Z" fill="#FFF"/></g></svg>