<svg width="250" height="176" xmlns="http://www.w3.org/2000/svg"><g fill="none" fill-rule="evenodd"><path fill="#FFF" d="M0 6h250v170H0z"/><g fill-rule="nonzero"><g opacity=".5" transform="translate(54.44)" fill="#8A959F"><path d="M76.969 48.626a1.092 1.092 0 0 0 0 2.185 1.092 1.092 0 0 0 0-2.185m0 4.63c-1.942 0-3.521-1.587-3.521-3.538 0-1.95 1.58-3.537 3.52-3.537 1.942 0 3.52 1.586 3.52 3.538 0 1.95-1.58 3.538-3.52 3.538" opacity=".3"/><ellipse opacity=".3" cx="107.441" cy="44.36" rx="3.649" ry="3.617"/><ellipse opacity=".3" cx="17.434" cy="6.062" rx="3.649" ry="3.617"/><path d="M42.907 16.774a1.093 1.093 0 0 0 0 2.185c.6 0 1.087-.49 1.087-1.093 0-.602-.488-1.092-1.087-1.092m0 4.63c-1.942 0-3.52-1.587-3.52-3.538 0-1.95 1.578-3.537 3.52-3.537s3.52 1.587 3.52 3.538c0 1.95-1.578 3.537-3.52 3.537m94.122 8.831a1.092 1.092 0 0 0 0 2.186 1.092 1.092 0 0 0 0-2.186m0 4.63c-1.94 0-3.52-1.586-3.52-3.537 0-1.95 1.58-3.538 3.52-3.538 1.942 0 3.521 1.588 3.521 3.538 0 1.951-1.58 3.538-3.52 3.538m-35.194-4.687h4.198v-1.92h-4.198v1.92Z" opacity=".3"/><path d="M103.332 31.328h1.205v-4.22h-1.205v4.22ZM78.154 2.961h4.199V1.259h-4.2V2.96Z" opacity=".3"/><path d="M79.634 4.22h1.24V0h-1.24v4.22Zm-58.078 32.4h4.2v-1.326h-4.2v1.326Z" opacity=".3"/><path d="M22.713 38.068H24.6v-4.22h-1.886v4.22Zm92.444 17.915c0-.64.516-1.158 1.152-1.158.636 0 1.151.519 1.151 1.158 0 .64-.515 1.158-1.151 1.158a1.154 1.154 0 0 1-1.151-1.158M64.376 26.78c0-.64.516-1.158 1.151-1.158.636 0 1.152.518 1.152 1.158 0 .64-.516 1.158-1.15 1.158a1.155 1.155 0 0 1-1.153-1.158m72.653 45.73h4.2v-2.444h-4.2v2.444Z" opacity=".3"/><path d="M137.912 73.396h2.433v-4.218h-2.433v4.218ZM3.587 58.193a1.092 1.092 0 0 0 0 2.186 1.092 1.092 0 0 0 0-2.186m0 4.63c-1.942 0-3.521-1.588-3.521-3.538 0-1.95 1.58-3.537 3.522-3.537 1.942 0 3.52 1.587 3.52 3.538 0 1.95-1.58 3.538-3.52 3.538M8.32 20.525c0-.64.515-1.158 1.15-1.158.637 0 1.153.518 1.153 1.158 0 .64-.516 1.158-1.151 1.158a1.155 1.155 0 0 1-1.152-1.158" opacity=".3"/></g><path d="M230.196 109.292h-4.252c-1.318 0-2.386-1.333-2.386-2.977s1.068-2.978 2.386-2.978h9.068c1.318 0 2.386-1.334 2.386-2.979 0-1.643-1.068-2.977-2.386-2.977h-28.09c-1.317 0-2.385 1.334-2.385 2.977 0 1.645 1.068 2.979 2.386 2.979h2.955c1.319 0 2.386 1.333 2.386 2.978 0 1.644-1.067 2.977-2.386 2.977H198.73c-1.318 0-2.386 1.334-2.386 2.979 0 1.644 1.068 2.978 2.386 2.978h31.465c1.317 0 2.385-1.333 2.385-2.978 0-1.645-1.068-2.979-2.385-2.979ZM7.268 77.13h4.29c1.33 0 2.407-1.333 2.407-2.978 0-1.644-1.078-2.977-2.407-2.977H2.407C1.077 71.175 0 69.84 0 68.196c0-1.644 1.078-2.978 2.407-2.978h28.344c1.329 0 2.407 1.334 2.407 2.978 0 1.645-1.078 2.979-2.407 2.979h-2.983c-1.33 0-2.407 1.333-2.407 2.977s1.078 2.978 2.407 2.978h24.266c1.33 0 2.407 1.334 2.407 2.979 0 1.643-1.078 2.977-2.407 2.977H7.268c-1.33 0-2.407-1.333-2.407-2.977 0-1.645 1.078-2.979 2.407-2.979Z" fill="#8A959F" opacity=".2"/><g fill="#26344A"><path d="M30.487 175.107h188.935v-1.611H30.487v1.61Zm218.253-1.611h-22.02v1.61h22.021v-1.61Zm-225.405 0H1.314v1.61h22.021v-1.61Z"/><path d="M55.314 174.704v-27.388h-1.622v27.388z"/><path d="M54.811 160.58c-5.597 0-10.135-4.507-10.135-10.069 0-3.66 3.175-9.273 9.507-16.995l.628-.766.629.766c6.332 7.72 9.506 13.335 9.506 16.995 0 5.562-4.537 10.069-10.135 10.069Zm-8.514-10.069c0 4.672 3.813 8.458 8.514 8.458 4.702 0 8.514-3.786 8.514-8.458 0-3.05-2.832-8.165-8.514-15.205-5.68 7.04-8.514 12.155-8.514 15.205Z"/><path d="m50.422 152.149 3.579 3.556 1.147-1.14-3.58-3.555zm142.728 22.384v-38.324h-1.62v38.324z"/><path d="M192.648 154.163c-7.836 0-14.19-6.311-14.19-14.096 0-7.786 6.354-14.097 14.19-14.097 7.836 0 14.189 6.31 14.189 14.097 0 7.785-6.353 14.096-14.189 14.096Zm0-1.611c6.941 0 12.567-5.59 12.567-12.485 0-6.897-5.626-12.487-12.567-12.487-6.94 0-12.567 5.59-12.567 12.487 0 6.895 5.627 12.485 12.567 12.485Z"/><path d="m192.85 149.864 7.228-7.18-1.146-1.139-7.228 7.18zm-6.01-9.596 4.795 4.764 1.146-1.139-4.795-4.765z"/></g><g fill="#26344A"><path d="M78.378 73.094v63.26h87.782v-63.26H78.377Zm89.407-1.622v66.505H76.753V71.472h91.032Z"/><path d="M167.379 82.826H77.175v1.623h90.204v-1.623Zm-35.421 38.39c-5.079 5.068-13.314 5.068-18.392 0l-.574-.573 1.15-1.147.574.574c4.443 4.433 11.648 4.433 16.092 0l.575-.574 1.15 1.147-.575.574Zm-27.316 51.902 1.388 1.39-21.133-.035 1.384-1.385c5.062-5.067 13.282-5.054 18.361.03Zm-15.537-.263 12.713.02c-3.832-2.598-8.89-2.606-12.713-.02Zm51.3.263 1.388 1.39-21.132-.035 1.383-1.385c5.062-5.067 13.283-5.054 18.36.03Zm-15.538-.263 12.713.02c-3.831-2.598-8.889-2.606-12.713-.02Z"/><path d="M109.043 136.369c-11.022 6.35-12.937 23.404-4.449 38.076l.407.702 1.408-.811-.406-.703c-8.084-13.972-6.283-30.02 3.853-35.859l.704-.406-.813-1.404-.704.406v-.001Zm35.85 0c-11.022 6.35-12.938 23.405-4.449 38.076l.406.703 1.408-.812-.407-.702c-8.084-13.973-6.282-30.02 3.854-35.86l.704-.405-.812-1.404-.705.406.001-.002Z"/><g transform="translate(82.442 77.15)"><ellipse cx="1.625" cy="1.622" rx="1.625" ry="1.622"/><ellipse cx="6.503" cy="1.622" rx="1.625" ry="1.622"/><ellipse cx="11.379" cy="1.622" rx="1.625" ry="1.622"/></g><g transform="translate(102.762 94.992)"><path d="M5.283 16.22C2.258 16.22 0 12.533 0 8.11 0 3.688 2.259 0 5.283 0c3.024 0 5.284 3.689 5.284 8.11 0 4.423-2.26 8.11-5.284 8.11Zm0-1.622c1.914 0 3.658-2.847 3.658-6.488 0-3.64-1.744-6.488-3.658-6.488S1.625 4.47 1.625 8.11c0 3.64 1.744 6.488 3.658 6.488Zm28.448 1.623c-3.025 0-5.283-3.69-5.283-8.11C28.448 3.687 30.706 0 33.73 0s5.283 3.689 5.283 8.11c0 4.423-2.26 8.11-5.283 8.11Zm0-1.623c1.913 0 3.657-2.847 3.657-6.488 0-3.64-1.744-6.488-3.657-6.488-1.914 0-3.658 2.848-3.658 6.488 0 3.64 1.744 6.488 3.658 6.488Z"/><ellipse cx="5.283" cy="12.165" rx="2.032" ry="3.244"/><ellipse cx="33.731" cy="12.165" rx="2.032" ry="3.244"/></g></g></g></g></svg>