<svg width="19" height="12" fill="none" xmlns="http://www.w3.org/2000/svg"><path d="M9.57 0C3.236 0 .86 6 .86 6s2.376 6 8.71 6c6.333 0 8.709-6 8.709-6s-2.376-6-8.71-6Zm0 1.5c4.177 0 6.29 3.2 6.974 4.497C15.859 7.285 13.73 10.5 9.57 10.5c-4.177 0-6.29-3.2-6.974-4.497C3.28 4.715 5.409 1.5 9.57 1.5Zm0 1.5C7.82 3 6.403 4.343 6.403 6S7.82 9 9.57 9c1.749 0 3.167-1.343 3.167-3S11.319 3 9.57 3Zm0 1.5c.874 0 1.583.671 1.583 1.5s-.709 1.5-1.583 1.5c-.875 0-1.584-.671-1.584-1.5s.709-1.5 1.584-1.5Z" fill="#000"/></svg>