<svg width="16" height="16" xmlns="http://www.w3.org/2000/svg"><path d="M4.357 11.929c.226.22.34.488.34.803a1.1 1.1 0 0 1-.335.808 1.101 1.101 0 0 1-.808.335c-.31 0-.578-.113-.804-.34a1.098 1.098 0 0 1-.34-.803 1.1 1.1 0 0 1 .336-.808 1.1 1.1 0 0 1 .808-.335c.315 0 .583.113.803.34Zm4.447 1.839c.226.22.339.488.339.803a1.1 1.1 0 0 1-.335.808 1.101 1.101 0 0 1-.808.335c-.315 0-.585-.111-.808-.335a1.101 1.101 0 0 1-.335-.808c0-.315.112-.584.335-.808.223-.223.493-.334.808-.334.315 0 .583.113.804.339ZM2.518 7.482c.226.22.34.488.34.804a1.1 1.1 0 0 1-.336.808 1.101 1.101 0 0 1-.808.335c-.315 0-.585-.112-.808-.335a1.101 1.101 0 0 1-.335-.808 1.1 1.1 0 0 1 .335-.808c.223-.224.493-.335.808-.335.316 0 .584.113.804.34Zm11.071 5.25c0 .31-.113.578-.339.804a1.099 1.099 0 0 1-.804.339c-.315 0-.584-.112-.808-.335a1.101 1.101 0 0 1-.334-.808c0-.315.111-.585.334-.808.224-.223.493-.335.808-.335a1.1 1.1 0 0 1 .808.335c.224.223.335.493.335.808ZM4.562 2.83c.28.28.42.616.42 1.01 0 .392-.14.728-.42 1.008-.28.28-.616.42-1.008.42-.393 0-.73-.14-1.01-.42a1.374 1.374 0 0 1-.419-1.009c0-.393.14-.729.42-1.009.28-.28.616-.42 1.009-.42.392 0 .729.14 1.009.42ZM15.09 7.482c.226.22.34.488.34.804 0 .315-.112.585-.335.808a1.101 1.101 0 0 1-.808.335 1.1 1.1 0 0 1-.808-.335 1.101 1.101 0 0 1-.335-.808c0-.316.111-.585.335-.808.223-.224.492-.335.808-.335.315 0 .583.113.803.34ZM9.214.786c.334.333.5.738.5 1.214s-.166.881-.5 1.214c-.333.334-.738.5-1.214.5s-.881-.166-1.214-.5A1.653 1.653 0 0 1 6.286 2c0-.476.166-.881.5-1.214.333-.334.738-.5 1.214-.5s.881.166 1.214.5Zm5.232 3.053a1.92 1.92 0 0 1-.589 1.415c-.393.39-.863.585-1.41.585a1.928 1.928 0 0 1-1.416-.585 1.928 1.928 0 0 1-.585-1.415c0-.547.195-1.018.585-1.41a1.92 1.92 0 0 1 1.415-.59c.548 0 1.018.197 1.411.59.393.392.59.863.59 1.41Z" fill="#FFF"/></svg>