<svg width="16" height="18" xmlns="http://www.w3.org/2000/svg"><g fill="none" fill-rule="evenodd"><path d="M-3-2h22v22H-3z"/><path d="M13.233.75c.987 0 1.788.8 1.788 1.787v12.926c0 .987-.8 1.787-1.788 1.787H2.455c-.988 0-1.788-.8-1.788-1.787V2.537c0-.987.8-1.787 1.788-1.787Zm0 1.42H2.455a.367.367 0 0 0-.368.367v12.926c0 .203.164.367.368.367h10.778a.367.367 0 0 0 .368-.367V2.537a.367.367 0 0 0-.368-.367Zm-2.156 9.358a.71.71 0 0 1 .065 1.418l-.065.003H4.61a.71.71 0 0 1-.064-1.418l.064-.003h6.467Zm0-3.233a.71.71 0 0 1 .065 1.417l-.065.003H4.61a.71.71 0 0 1-.064-1.417l.064-.003h6.467ZM8.922 5.06a.71.71 0 0 1 .064 1.418l-.064.003H4.61a.71.71 0 0 1-.064-1.418l.064-.003h4.312Z" fill="#FFF"/></g></svg>