<svg width="16" height="16" xmlns="http://www.w3.org/2000/svg"><g fill="none" fill-rule="evenodd"><path d="M-2-2h20v20H-2z"/><path d="M14.855 10.401c.336 0 .613.258.642.587l.003.059v2.285a2.169 2.169 0 0 1-2.081 2.166l-.087.002h-2.285a.645.645 0 0 1-.06-1.288l.06-.002h2.285c.463 0 .843-.36.875-.816l.003-.062v-2.285c0-.357.289-.646.645-.646Zm-13.71 0c.337 0 .613.258.643.587l.002.059v2.285c0 .463.36.843.816.875l.062.003h2.285a.645.645 0 0 1 .06 1.287l-.06.003H2.668a2.169 2.169 0 0 1-2.166-2.081L.5 13.332v-2.285c0-.357.289-.646.645-.646ZM4.953.5a.645.645 0 0 1 .06 1.288l-.06.002H2.668a.878.878 0 0 0-.875.816l-.003.062v2.285a.645.645 0 0 1-1.287.06L.5 4.952V2.668C.5 1.5 1.424.548 2.581.502L2.668.5h2.285Zm8.379 0c1.168 0 2.12.924 2.166 2.081l.002.087v2.285a.645.645 0 0 1-1.288.06l-.002-.06V2.668a.878.878 0 0 0-.816-.875l-.062-.003h-2.285a.645.645 0 0 1-.06-1.287l.06-.003h2.285Z" fill="#009DAB"/></g></svg>