<svg width="40" height="40" fill="none" xmlns="http://www.w3.org/2000/svg"><g clip-path="url(#a)"><path d="M39.344 14.019c.019.118.031.237.031.356A1.872 1.872 0 0 1 37.5 16.25h-6.25a1.87 1.87 0 0 0-1.325.55 1.87 1.87 0 0 0 0 2.65c.338.338.806.55 1.325.55h1.25a2.499 2.499 0 0 1 2.488 2.744C34.863 24.044 33.7 25 32.394 25h-5.831c-.432 0-.825.175-1.107.456a1.564 1.564 0 0 0 1.107 2.669h.312c1.069 0 1.925.887 1.875 1.975-.056 1.012-.962 1.775-1.975 1.775h-3.337a1.56 1.56 0 0 0-1.557 1.706c.07.819.82 1.419 1.644 1.419h.225c1.069 0 1.925.888 1.875 1.975-.056 1.012-.962 1.775-1.975 1.775H1.875c-1.425 0-2.469-1.575-1.5-3.081.313-.481.888-.681 1.463-.669.362.006.687-.131.918-.369a1.22 1.22 0 0 0 .37-.881c0-.688-.563-1.25-1.25-1.25a1.87 1.87 0 0 1-1.326-.55 1.855 1.855 0 0 1-.544-1.462c.07-1 .975-1.738 1.975-1.738h1.457a1.56 1.56 0 0 0 1.556-1.706c-.069-.819-.819-1.419-1.644-1.419H2.188A1.56 1.56 0 0 1 .63 23.919C.7 23.1 1.45 22.5 2.274 22.5h1.788a1.564 1.564 0 0 0 1.562-1.469c.05-.906-.75-1.656-1.662-1.656H3.75a1.875 1.875 0 0 1-1.837-2.244c.168-.893 1-1.506 1.906-1.506h7.119a1.564 1.564 0 0 0 1.562-1.469c.05-.906-.75-1.656-1.662-1.656h-.525a2.19 2.19 0 0 1-2.188-2.188c0-.112.006-.224.031-.33a2.13 2.13 0 0 1 .613-1.213c.394-.4.944-.644 1.544-.644h7.462c.425 0 .813-.175 1.1-.45.3-.3.481-.719.463-1.194C19.3 5.638 18.55 5 17.706 5H17.5a1.875 1.875 0 0 1-1.837-2.244c.168-.893 1-1.506 1.906-1.506h20.156c.75 0 1.45.488 1.613 1.219a1.552 1.552 0 0 1-.413 1.437 1.584 1.584 0 0 1-1.087.469h-.025a.936.936 0 0 0-.938.938c0 .518.419.937.938.937h.312c1.069 0 1.925.888 1.875 1.975C39.944 9.238 39.038 10 38.025 10h-2.4c-.756 0-1.362.681-1.231 1.463.1.612.687 1.037 1.306 1.037h1.8c.519 0 .988.213 1.325.55.256.256.444.594.519.969Z" fill="url(#b)"/><path d="M29.375 38.75a1.875 1.875 0 1 1 0-3.75 1.875 1.875 0 0 1 0 3.75Z" fill="url(#c)"/><path d="M4.063 12.5a2.188 2.188 0 1 0 0-4.375 2.188 2.188 0 0 0 0 4.375Z" fill="url(#d)"/><path d="M14.697 18.561a7.167 7.167 0 0 1 5.083 2.102c2.801 2.802 2.801 7.362 0 10.165l-3.094 3.093c-2.802 2.803-7.362 2.802-10.165 0-2.802-2.802-2.802-7.362 0-10.165l3.093-3.093a7.167 7.167 0 0 1 5.083-2.102Zm1.989 5.195a2.816 2.816 0 0 0-3.979.001L9.614 26.85a2.816 2.816 0 0 0 0 3.978 2.816 2.816 0 0 0 3.978 0l3.094-3.093a2.817 2.817 0 0 0 0-3.979Z" fill="url(#e)"/><path d="M29.28 3.977c1.841 0 3.682.7 5.083 2.101 2.803 2.802 2.803 7.362 0 10.165l-3.093 3.094c-2.8 2.802-7.361 2.801-10.165 0-2.802-2.803-2.802-7.363 0-10.165L24.2 6.078a7.163 7.163 0 0 1 5.082-2.101Zm-3.093 13.089c.72 0 1.44-.274 1.99-.822l3.093-3.094a2.816 2.816 0 0 0 0-3.977 2.816 2.816 0 0 0-3.978 0l-3.094 3.093a2.817 2.817 0 0 0 0 3.978 2.805 2.805 0 0 0 1.99.822Z" fill="url(#f)"/><path d="M24.42 13.835a2.187 2.187 0 0 1 1.547 3.734l-7.956 7.955a2.187 2.187 0 1 1-3.093-3.093l7.954-7.955a2.181 2.181 0 0 1 1.547-.641Z" fill="url(#g)"/></g><defs><radialGradient id="b" cx="0" cy="0" r="1" gradientUnits="userSpaceOnUse" gradientTransform="matrix(19.3772 0 0 19.3958 20 20)"><stop stop-color="#AFEEFF"/><stop offset=".193" stop-color="#BBF1FF"/><stop offset=".703" stop-color="#D7F8FF"/><stop offset="1" stop-color="#E1FAFF"/></radialGradient><radialGradient id="c" cx="0" cy="0" r="1" gradientUnits="userSpaceOnUse" gradientTransform="matrix(1.81644 0 0 1.93958 29.375 36.875)"><stop stop-color="#AFEEFF"/><stop offset=".193" stop-color="#BBF1FF"/><stop offset=".703" stop-color="#D7F8FF"/><stop offset="1" stop-color="#E1FAFF"/></radialGradient><radialGradient id="d" cx="0" cy="0" r="1" gradientUnits="userSpaceOnUse" gradientTransform="matrix(2.11918 0 0 2.26284 4.063 10.313)"><stop stop-color="#AFEEFF"/><stop offset=".193" stop-color="#BBF1FF"/><stop offset=".703" stop-color="#D7F8FF"/><stop offset="1" stop-color="#E1FAFF"/></radialGradient><linearGradient id="e" x1="16.681" y1="34.428" x2="6.787" y2="14.428" gradientUnits="userSpaceOnUse"><stop stop-color="#155CDE"/><stop offset=".278" stop-color="#1F7FE5"/><stop offset=".569" stop-color="#279CEB"/><stop offset=".82" stop-color="#2CAFEF"/><stop offset="1" stop-color="#2EB5F0"/></linearGradient><linearGradient id="f" x1="31.375" y1="19.35" x2="21.055" y2=".52" gradientUnits="userSpaceOnUse"><stop stop-color="#155CDE"/><stop offset=".278" stop-color="#1F7FE5"/><stop offset=".569" stop-color="#279CEB"/><stop offset=".82" stop-color="#2CAFEF"/><stop offset="1" stop-color="#2EB5F0"/></linearGradient><linearGradient id="g" x1="21.865" y1="21.516" x2="18.62" y2="18.059" gradientUnits="userSpaceOnUse"><stop stop-color="#155CDE"/><stop offset=".278" stop-color="#1F7FE5"/><stop offset=".569" stop-color="#279CEB"/><stop offset=".82" stop-color="#2CAFEF"/><stop offset="1" stop-color="#2EB5F0"/></linearGradient><clipPath id="a"><path fill="#fff" d="M0 0h40v40H0z"/></clipPath></defs></svg>