<svg width="40" height="40" fill="none" xmlns="http://www.w3.org/2000/svg"><path d="M36.875 12.5h.938a2.193 2.193 0 0 0 2.138-2.652c-.213-1.022-1.166-1.723-2.21-1.723h-4.616a1.25 1.25 0 1 1 0-2.5h2.116c1.044 0 1.997-.701 2.21-1.723a2.193 2.193 0 0 0-2.138-2.652h-30a2.194 2.194 0 0 0-2.188 2.188c0 1.203.984 2.187 2.188 2.187h.937a1.25 1.25 0 1 1 0 2.5H2.885c-1.044 0-1.997.701-2.211 1.723A2.193 2.193 0 0 0 2.813 12.5h8.437V20H2.884c-1.043 0-1.996.701-2.21 1.723a2.193 2.193 0 0 0 2.139 2.652h.312a1.25 1.25 0 1 1 0 2.5h-.312a2.193 2.193 0 0 0-2.14 2.652c.215 1.022 1.168 1.723 2.212 1.723H6.25a1.25 1.25 0 1 1 0 2.5h-.865c-1.044 0-1.997.701-2.211 1.723a2.193 2.193 0 0 0 2.139 2.652h29.375a2.194 2.194 0 0 0 2.187-2.188 2.194 2.194 0 0 0-2.187-2.187h-.313a1.25 1.25 0 1 1 0-2.5h2.74c1.044 0 1.998-.701 2.211-1.723a2.193 2.193 0 0 0-2.138-2.652h-7.813v-7.5h7.74c1.044 0 1.998-.701 2.211-1.723A2.193 2.193 0 0 0 37.188 15h-.313a1.25 1.25 0 1 1 0-2.5Z" fill="url(#a)"/><path d="M35 18.125c0 4.144-3.356 7.5-7.5 7.5H10.937A5.935 5.935 0 0 1 5 19.687a5.938 5.938 0 0 1 4.656-5.8c1.063-4.38 5.006-7.637 9.719-7.637a9.99 9.99 0 0 1 8.275 4.381A7.49 7.49 0 0 1 35 18.125Z" fill="url(#b)"/><path d="M18.906 11.728v6.248h-2.512c-.671 0-1.019.763-.561 1.23l3.606 3.683a.785.785 0 0 0 1.122 0l3.606-3.683c.458-.467.11-1.23-.561-1.23h-2.512v-6.248c0-.61-.49-1.103-1.094-1.103-.604 0-1.094.494-1.094 1.103Z" fill="#fff"/><defs><radialGradient id="a" cx="0" cy="0" r="1" gradientUnits="userSpaceOnUse" gradientTransform="translate(20.313 19.688) scale(19.0725)"><stop stop-color="#AFEEFF"/><stop offset=".193" stop-color="#BBF1FF"/><stop offset=".703" stop-color="#D7F8FF"/><stop offset="1" stop-color="#E1FAFF"/></radialGradient><linearGradient id="b" x1="12.797" y1="4.996" x2="22.753" y2="23.957" gradientUnits="userSpaceOnUse"><stop stop-color="#238DE8"/><stop stop-color="#1E7AE4"/><stop offset="1" stop-color="#2FB6F1"/></linearGradient></defs></svg>