<svg width="40" height="40" fill="none" xmlns="http://www.w3.org/2000/svg"><path d="M36.563 15h-2.188c-.688 0-1.25-.563-1.25-1.25 0-.688.563-1.25 1.25-1.25h3.019c1.015 0 1.925-.76 1.979-1.774l.002-.101c0-1.035-.84-1.875-1.875-1.875h-2.723c-.818 0-1.562-.588-1.644-1.401a1.563 1.563 0 0 1 1.554-1.724h.207c1.015 0 1.925-.76 1.979-1.774l.002-.101c0-1.035-.84-1.875-1.875-1.875H3.856c-1.015 0-1.925.76-1.978 1.774A1.875 1.875 0 0 0 3.75 5.625h.222c.818 0 1.562.588 1.644 1.401A1.562 1.562 0 0 1 4.063 8.75H1.98c-1.015 0-1.925.76-1.979 1.774A1.875 1.875 0 0 0 1.875 12.5h3.683c.623 0 1.2.426 1.3 1.04A1.252 1.252 0 0 1 5.624 15H2.812A2.82 2.82 0 0 0 0 17.813a2.82 2.82 0 0 0 2.813 2.812h1.786c.817 0 1.562.588 1.643 1.401a1.562 1.562 0 0 1-1.555 1.724h-.206c-1.015 0-1.925.76-1.978 1.774A1.875 1.875 0 0 0 4.375 27.5h5.656a1.574 1.574 0 0 0-.023.487c.09.808.835 1.388 1.65 1.388h16.057c.815 0 1.56-.58 1.649-1.389a1.577 1.577 0 0 0-.022-.486h6.176c1.016 0 1.926-.76 1.98-1.774a1.876 1.876 0 0 0-1.873-1.976h-6.876v-3.157c.104.012.206.032.313.032h7.5a2.82 2.82 0 0 0 2.812-2.813A2.82 2.82 0 0 0 36.562 15Z" fill="url(#a)"/><path d="M29.375 33.75h-18.75a1.88 1.88 0 0 1-1.875-1.875A1.88 1.88 0 0 1 10.625 30h18.75a1.88 1.88 0 0 1 1.875 1.875 1.88 1.88 0 0 1-1.875 1.875Z" fill="#1261AB"/><path d="M29.988 4.634H27.5l-1.849.093a.783.783 0 0 0-1.303 0L22.5 4.634l-1.849.093a.783.783 0 0 0-1.303 0L17.5 4.634l-1.849.093a.783.783 0 0 0-1.303 0L12.5 4.634h-2.488c-.427-.514-1.262-.211-1.262.459v26.782h22.5V5.093c0-.67-.835-.973-1.262-.459Z" fill="url(#b)"/><path d="M20.938 20.625h-6.25a.938.938 0 0 1 0-1.875h6.25a.938.938 0 0 1 0 1.875Zm5.312-8.75V10a.938.938 0 0 0-.938-.938H14.688a.938.938 0 0 0-.937.938v1.875c0 .518.42.938.938.938h10.624c.518 0 .938-.42.938-.938Zm-4.375 11.563a.938.938 0 0 0-.938-.938h-6.25a.938.938 0 0 0 0 1.875h6.25c.518 0 .938-.42.938-.938Zm4.375-3.75a.938.938 0 0 0-.938-.938h-.625a.938.938 0 0 0 0 1.875h.625c.518 0 .938-.42.938-.938Zm0 3.75a.938.938 0 0 0-.938-.938h-.625a.938.938 0 0 0 0 1.875h.625c.518 0 .938-.42.938-.938Zm0 3.75a.938.938 0 0 0-.938-.938h-.625a.938.938 0 0 0 0 1.875h.625c.518 0 .938-.42.938-.938ZM14.688 16.875h6.25a.938.938 0 0 0 0-1.875h-6.25a.938.938 0 0 0 0 1.875ZM25.313 15a.938.938 0 0 1 0 1.875h-.625a.938.938 0 0 1 0-1.875h.625Z" fill="#fff"/><defs><radialGradient id="a" cx="0" cy="0" r="1" gradientUnits="userSpaceOnUse" gradientTransform="matrix(19.0726 0 0 14.2236 19.688 15.625)"><stop stop-color="#AFEEFF"/><stop offset=".193" stop-color="#BBF1FF"/><stop offset=".703" stop-color="#D7F8FF"/><stop offset="1" stop-color="#E1FAFF"/></radialGradient><linearGradient id="b" x1="20" y1="31.875" x2="20" y2="4.375" gradientUnits="userSpaceOnUse"><stop stop-color="#2287E7"/><stop offset="1" stop-color="#88E4FD"/></linearGradient></defs></svg>