<svg width="15" height="13" fill="none" xmlns="http://www.w3.org/2000/svg"><path d="M5.253 1.482A5.545 5.545 0 0 0 2.607 4H1.502A6.508 6.508 0 0 1 7.5 0a6.51 6.51 0 0 1 5.999 4h-1.106a5.544 5.544 0 0 0-2.646-2.518c.434.667.776 1.528.992 2.518H9.701c-.453-1.835-1.355-2.998-2.199-3H7.5c-.844 0-1.748 1.163-2.201 3H4.261c.216-.99.558-1.851.992-2.518Zm4.489 10.04A5.534 5.534 0 0 0 11.74 10h1.229a6.494 6.494 0 0 1-5.464 3H7.5a6.495 6.495 0 0 1-5.468-3h1.229a5.532 5.532 0 0 0 1.997 1.522A6.79 6.79 0 0 1 4.539 10h1.077c.493 1.242 1.206 2 1.884 2 .678 0 1.391-.758 1.884-2h1.077a6.793 6.793 0 0 1-.719 1.522ZM5 5l-.98 4h-.942L2.5 6.448 1.922 9H.979L0 5h1l.474 2.404L2 5h1l.526 2.404L4 5h1Z" fill="#202124"/><path d="m10 5-.979 4h-.943L7.5 6.448 6.922 9h-.943l-.98-4H6l.474 2.404L7 5h1l.526 2.404L9 5h1Zm0 0 .979 4h.943l.578-2.552L13.078 9h.943L15 5h-1l-.474 2.404L13 5h-1l-.526 2.404L11 5h-1Z" fill="#202124"/></svg>