<svg xmlns="http://www.w3.org/2000/svg" width="16" height="16"><g fill="none" fill-rule="evenodd"><path d="M0 0h16v16H0z"/><path fill="#F2F3F5" fill-rule="nonzero" d="M9.587 8.684c2.003 0 3.633 1.6 3.682 3.59l.002.094v.79a.51.51 0 0 1-1.015.047l-.002-.046v-.791a2.666 2.666 0 0 0-2.587-2.666l-.08-.001H6.684a2.667 2.667 0 0 0-2.667 2.587v.87a.51.51 0 0 1-1.015.047L3 13.159v-.791a3.683 3.683 0 0 1 3.59-3.682l.094-.002h2.903zm-1.432-6.35a2.932 2.932 0 1 1 0 5.865 2.932 2.932 0 0 1 0-5.866zm0 1.015a1.916 1.916 0 1 0 0 3.832 1.916 1.916 0 0 0 0-3.832z"/></g></svg>