<svg width="16" height="16" xmlns="http://www.w3.org/2000/svg"><g fill="none" fill-rule="evenodd"><path d="M0 0h16v16H0z"/><path d="M9.587 8.684a3.684 3.684 0 0 1 3.682 3.59l.002.094v.79a.508.508 0 0 1-1.015.047l-.002-.046v-.791a2.667 2.667 0 0 0-2.587-2.666l-.08-.001H6.684a2.667 2.667 0 0 0-2.667 2.587v.87a.508.508 0 0 1-1.015.047L3 13.159v-.791a3.684 3.684 0 0 1 3.59-3.682l.094-.002h2.903Zm-1.432-6.35a2.932 2.932 0 1 1 0 5.863 2.932 2.932 0 0 1 0-5.864Zm0 1.015a1.916 1.916 0 1 0 0 3.832 1.916 1.916 0 0 0 0-3.832Z" fill="#F2F3F5" fill-rule="nonzero"/></g></svg>