<svg width="16" height="11" fill="none" xmlns="http://www.w3.org/2000/svg"><path d="M8 0a7.82 7.82 0 0 0-3.85.987.473.473 0 0 0-.15.678c.152.23.461.292.703.158A6.846 6.846 0 0 1 8 1a6.84 6.84 0 0 1 3.328.84c.24.135.55.076.704-.153a.473.473 0 0 0-.146-.679A7.816 7.816 0 0 0 8 0ZM2.405 4.806c-.118-.25-.399-.393-.66-.305-.262.088-.405.372-.287.621.177.375.404.725.651 1.062L1 7.293A.5.5 0 1 0 1.708 8l1.088-1.088a6.75 6.75 0 0 0 1.713 1.211l-.567 1.37a.5.5 0 1 0 .924.382l.553-1.338A7.944 7.944 0 0 0 7.5 8.93v1.468a.5.5 0 1 0 1 0V8.93a7.941 7.941 0 0 0 2.082-.393l.553 1.338a.5.5 0 1 0 .924-.382l-.567-1.37a6.75 6.75 0 0 0 1.713-1.21L14.293 8A.5.5 0 1 0 15 7.293l-1.11-1.11a6.34 6.34 0 0 0 .651-1.062c.118-.25-.025-.534-.286-.621-.262-.087-.542.055-.66.305C12.737 6.643 10.575 8 8 8 5.427 8 3.265 6.644 2.405 4.806Z" fill="#202124"/></svg>