<svg width="48" height="48" xmlns="http://www.w3.org/2000/svg"><g fill="none" fill-rule="evenodd"><g stroke="#DDD" stroke-width=".2"><circle cx="24" cy="24" r="9.9"/><path d="M.1.1h47.8v47.8H.1z"/><path d="M5.1 5.1h37.8v37.8H5.1z"/><path d="M8.1 2.1h31.8v43.8H8.1z"/><path d="M2.1 8.1h43.8v31.8H2.1z"/><circle cx="24" cy="24" r="21.9"/><path d="M24.125 48V0m7.125 48V0M17 48V0M0 17.06h48M0 24.125h48M0 31.25h48M48 48 0 0m0 48L48 0"/></g><path d="M0 0h48v48H0z"/><g transform="translate(2 3)"><path d="M1 0h42v42H1z"/><path d="M21.838 5.25c.739 0 1.345.566 1.41 1.287l.006.13v4.68h11.86a3.187 3.187 0 0 1 3.183 3.017l.004.17v19.03a3.187 3.187 0 0 1-3.017 3.182l-.17.004H8.562a3.187 3.187 0 0 1-3.182-3.017l-.004-.17v-19.03a3.187 3.187 0 0 1 3.017-3.181l.17-.005H20.42v-4.68c0-.783.635-1.417 1.417-1.417Zm13.277 8.93H8.56a.354.354 0 0 0-.346.282l-.008.072v19.03c0 .17.122.313.283.346l.071.008h26.554a.354.354 0 0 0 .347-.283l.007-.071v-19.03a.354.354 0 0 0-.354-.354ZM25.6 25.819a1.416 1.416 0 0 1 .129 2.826l-.13.006h-7.523a1.416 1.416 0 0 1-.129-2.827l.13-.005H25.6Zm-9.405-7.413a1.88 1.88 0 1 1 0 3.762 1.88 1.88 0 0 1 0-3.762Zm11.286 0a1.88 1.88 0 1 1 0 3.762 1.88 1.88 0 0 1 0-3.762Z" fill="#F2F3F5"/><path d="m4 17.6-2.4.4.4 10.4 2.4-.4L4 17.6Z" stroke="#F2F3F5" stroke-width="3.2"/><rect stroke="#F2F3F5" stroke-width="3.2" fill="#F2F3F5" x="39.6" y="17.6" width="2.8" height="10.8" rx="1.4"/><path stroke="#F2F3F5" stroke-width="3.2" stroke-linecap="round" stroke-linejoin="round" d="m3 29.778.204 11h18.921"/><rect stroke="#F2F3F5" stroke-width="3.2" fill="#170808" x="20.6" y="39.6" width="3.8" height="1.8" rx=".9"/></g></g></svg>