<svg width="12" height="12" xmlns="http://www.w3.org/2000/svg"><g fill="none" fill-rule="evenodd"><path d="M-1-1h14v14H-1z"/><path d="M6.084.75a1.184 1.184 0 0 1 .975.512l.067.11L11.56 9.5l.031.06c.174.364.153.749-.054 1.102-.105.18-.251.324-.432.429a1.172 1.172 0 0 1-.468.152l-.124.006H1.638l-.072-.003a1.171 1.171 0 0 1-.503-.155 1.176 1.176 0 0 1-.433-.428A1.132 1.132 0 0 1 .55 9.62l.062-.128L5.05 1.357l.038-.064A1.184 1.184 0 0 1 6.084.75Zm0 .903a.264.264 0 0 0-.143.04.314.314 0 0 0-.065.051l-.021.026-.02.034-4.432 8.124c-.057.102-.055.173.006.279a.307.307 0 0 0 .177.133l.029.005.04.002h8.858a.27.27 0 0 0 .14-.038.274.274 0 0 0 .105-.103c.043-.073.056-.13.044-.185l-.02-.057-.02-.04-4.429-8.119a.285.285 0 0 0-.25-.152ZM5.99 8.258a.565.565 0 1 1 0 1.13.565.565 0 0 1 0-1.13Zm.048-4.187c.246 0 .45.16.492.37l.008.082v2.519l-.002.04c-.023.23-.237.411-.498.411-.245 0-.45-.16-.492-.37l-.008-.081v-2.52l.002-.04c.023-.23.237-.41.498-.41Z" fill="#FC8500"/></g></svg>