<?xml version="1.0" encoding="UTF-8" standalone="no"?>
<!DOCTYPE svg PUBLIC "-//W3C//DTD SVG 1.1//EN"
 "http://www.w3.org/Graphics/SVG/1.1/DTD/svg11.dtd">
<!-- Generated by graphviz version 5.0.0 (20220707.1540)
 -->
<!-- Title: dependencies Pages: 1 -->
<svg width="1033pt" height="174pt"
 viewBox="0.00 0.00 1033.00 173.80" xmlns="http://www.w3.org/2000/svg" xmlns:xlink="http://www.w3.org/1999/xlink">
<g id="graph0" class="graph" transform="scale(1 1) rotate(0) translate(4 169.8)">
<title>dependencies</title>
<polygon fill="white" stroke="transparent" points="-4,4 -4,-169.8 1029,-169.8 1029,4 -4,4"/>
<text text-anchor="middle" x="512.5" y="-8.2" font-family="sans-serif" font-size="14.00">dependencies</text>
<g id="clust1" class="cluster">
<title>cluster_BotActionsModule</title>
<polygon fill="none" stroke="black" stroke-dasharray="1,5" points="8,-32.8 8,-157.8 1017,-157.8 1017,-32.8 8,-32.8"/>
</g>
<g id="clust2" class="cluster">
<title>cluster_BotActionsModule_declarations</title>
<polygon fill="none" stroke="black" points="847,-40.8 847,-92.8 1009,-92.8 1009,-40.8 847,-40.8"/>
</g>
<g id="clust4" class="cluster">
<title>cluster_BotActionsModule_imports</title>
<polygon fill="none" stroke="black" points="16,-40.8 16,-92.8 839,-92.8 839,-40.8 16,-40.8"/>
</g>
<!-- BotActionsComponent -->
<g id="node1" class="node">
<title>BotActionsComponent</title>
<polygon fill="#ffffb3" stroke="black" points="1000.61,-84.8 855.39,-84.8 855.39,-48.8 1000.61,-48.8 1000.61,-84.8"/>
<text text-anchor="middle" x="928" y="-62.6" font-family="Times,serif" font-size="14.00">BotActionsComponent</text>
</g>
<!-- BotActionsModule -->
<g id="node2" class="node">
<title>BotActionsModule</title>
<polygon fill="#8dd3c7" stroke="black" points="567.83,-149.8 564.83,-153.8 543.83,-153.8 540.83,-149.8 444.17,-149.8 444.17,-113.8 567.83,-113.8 567.83,-149.8"/>
<text text-anchor="middle" x="506" y="-127.6" font-family="Times,serif" font-size="14.00">BotActionsModule</text>
</g>
<!-- BotActionsComponent&#45;&gt;BotActionsModule -->
<g id="edge1" class="edge">
<title>BotActionsComponent&#45;&gt;BotActionsModule</title>
<path fill="none" stroke="black" d="M928,-85.08C928,-106.12 928,-137.8 928,-137.8 928,-137.8 577.81,-137.8 577.81,-137.8"/>
<polygon fill="black" stroke="black" points="577.81,-134.3 567.81,-137.8 577.81,-141.3 577.81,-134.3"/>
</g>
<!-- BotActionsRoutingModule -->
<g id="node3" class="node">
<title>BotActionsRoutingModule</title>
<polygon fill="#8dd3c7" stroke="black" points="831.45,-84.8 828.45,-88.8 807.45,-88.8 804.45,-84.8 662.55,-84.8 662.55,-48.8 831.45,-48.8 831.45,-84.8"/>
<text text-anchor="middle" x="747" y="-62.6" font-family="Times,serif" font-size="14.00">BotActionsRoutingModule</text>
</g>
<!-- BotActionsRoutingModule&#45;&gt;BotActionsModule -->
<g id="edge2" class="edge">
<title>BotActionsRoutingModule&#45;&gt;BotActionsModule</title>
<path fill="none" stroke="black" d="M747,-84.82C747,-102.17 747,-125.8 747,-125.8 747,-125.8 577.75,-125.8 577.75,-125.8"/>
<polygon fill="black" stroke="black" points="577.75,-122.3 567.75,-125.8 577.75,-129.3 577.75,-122.3"/>
</g>
<!-- EmptyScreenModule -->
<g id="node4" class="node">
<title>EmptyScreenModule</title>
<polygon fill="#8dd3c7" stroke="black" points="644.47,-84.8 641.47,-88.8 620.47,-88.8 617.47,-84.8 509.53,-84.8 509.53,-48.8 644.47,-48.8 644.47,-84.8"/>
<text text-anchor="middle" x="577" y="-62.6" font-family="Times,serif" font-size="14.00">EmptyScreenModule</text>
</g>
<!-- EmptyScreenModule&#45;&gt;BotActionsModule -->
<g id="edge3" class="edge">
<title>EmptyScreenModule&#45;&gt;BotActionsModule</title>
<path fill="none" stroke="black" d="M538.59,-84.91C538.59,-84.91 538.59,-103.79 538.59,-103.79"/>
<polygon fill="black" stroke="black" points="535.09,-103.79 538.59,-113.79 542.09,-103.79 535.09,-103.79"/>
</g>
<!-- KrModalModule -->
<g id="node5" class="node">
<title>KrModalModule</title>
<polygon fill="#8dd3c7" stroke="black" points="491.38,-84.8 488.38,-88.8 467.38,-88.8 464.38,-84.8 380.62,-84.8 380.62,-48.8 491.38,-48.8 491.38,-84.8"/>
<text text-anchor="middle" x="436" y="-62.6" font-family="Times,serif" font-size="14.00">KrModalModule</text>
</g>
<!-- KrModalModule&#45;&gt;BotActionsModule -->
<g id="edge4" class="edge">
<title>KrModalModule&#45;&gt;BotActionsModule</title>
<path fill="none" stroke="black" d="M467.89,-84.91C467.89,-84.91 467.89,-103.79 467.89,-103.79"/>
<polygon fill="black" stroke="black" points="464.39,-103.79 467.89,-113.79 471.39,-103.79 464.39,-103.79"/>
</g>
<!-- OnboardingModule -->
<g id="node6" class="node">
<title>OnboardingModule</title>
<polygon fill="#8dd3c7" stroke="black" points="362.43,-84.8 359.43,-88.8 338.43,-88.8 335.43,-84.8 235.57,-84.8 235.57,-48.8 362.43,-48.8 362.43,-84.8"/>
<text text-anchor="middle" x="299" y="-62.6" font-family="Times,serif" font-size="14.00">OnboardingModule</text>
</g>
<!-- OnboardingModule&#45;&gt;BotActionsModule -->
<g id="edge5" class="edge">
<title>OnboardingModule&#45;&gt;BotActionsModule</title>
<path fill="none" stroke="black" d="M299,-84.82C299,-102.17 299,-125.8 299,-125.8 299,-125.8 434.17,-125.8 434.17,-125.8"/>
<polygon fill="black" stroke="black" points="434.17,-129.3 444.17,-125.8 434.17,-122.3 434.17,-129.3"/>
</g>
<!-- UseronboardingJourneyModule -->
<g id="node7" class="node">
<title>UseronboardingJourneyModule</title>
<polygon fill="#8dd3c7" stroke="black" points="218.08,-84.8 215.08,-88.8 194.08,-88.8 191.08,-84.8 23.92,-84.8 23.92,-48.8 218.08,-48.8 218.08,-84.8"/>
<text text-anchor="middle" x="121" y="-62.6" font-family="Times,serif" font-size="14.00">UseronboardingJourneyModule</text>
</g>
<!-- UseronboardingJourneyModule&#45;&gt;BotActionsModule -->
<g id="edge6" class="edge">
<title>UseronboardingJourneyModule&#45;&gt;BotActionsModule</title>
<path fill="none" stroke="black" d="M121,-85.08C121,-106.12 121,-137.8 121,-137.8 121,-137.8 434.14,-137.8 434.14,-137.8"/>
<polygon fill="black" stroke="black" points="434.14,-141.3 444.14,-137.8 434.14,-134.3 434.14,-141.3"/>
</g>
</g>
</svg>
