<?xml version="1.0" encoding="UTF-8" standalone="no"?>
<!DOCTYPE svg PUBLIC "-//W3C//DTD SVG 1.1//EN"
 "http://www.w3.org/Graphics/SVG/1.1/DTD/svg11.dtd">
<!-- Generated by graphviz version 5.0.0 (20220707.1540)
 -->
<!-- Title: dependencies Pages: 1 -->
<svg width="745pt" height="174pt"
 viewBox="0.00 0.00 745.00 173.80" xmlns="http://www.w3.org/2000/svg" xmlns:xlink="http://www.w3.org/1999/xlink">
<g id="graph0" class="graph" transform="scale(1 1) rotate(0) translate(4 169.8)">
<title>dependencies</title>
<polygon fill="white" stroke="transparent" points="-4,4 -4,-169.8 741,-169.8 741,4 -4,4"/>
<text text-anchor="middle" x="368.5" y="-8.2" font-family="sans-serif" font-size="14.00">dependencies</text>
<g id="clust1" class="cluster">
<title>cluster_UsageLogModule</title>
<polygon fill="none" stroke="black" stroke-dasharray="1,5" points="8,-32.8 8,-157.8 729,-157.8 729,-32.8 8,-32.8"/>
</g>
<g id="clust4" class="cluster">
<title>cluster_UsageLogModule_imports</title>
<polygon fill="none" stroke="black" points="178,-40.8 178,-92.8 721,-92.8 721,-40.8 178,-40.8"/>
</g>
<g id="clust2" class="cluster">
<title>cluster_UsageLogModule_declarations</title>
<polygon fill="none" stroke="black" points="16,-40.8 16,-92.8 170,-92.8 170,-40.8 16,-40.8"/>
</g>
<!-- UsageLogComponent -->
<g id="node1" class="node">
<title>UsageLogComponent</title>
<polygon fill="#ffffb3" stroke="black" points="162.37,-84.8 23.63,-84.8 23.63,-48.8 162.37,-48.8 162.37,-84.8"/>
<text text-anchor="middle" x="93" y="-62.6" font-family="Times,serif" font-size="14.00">UsageLogComponent</text>
</g>
<!-- UsageLogModule -->
<g id="node2" class="node">
<title>UsageLogModule</title>
<polygon fill="#8dd3c7" stroke="black" points="439.59,-149.8 436.59,-153.8 415.59,-153.8 412.59,-149.8 322.41,-149.8 322.41,-113.8 439.59,-113.8 439.59,-149.8"/>
<text text-anchor="middle" x="381" y="-127.6" font-family="Times,serif" font-size="14.00">UsageLogModule</text>
</g>
<!-- UsageLogComponent&#45;&gt;UsageLogModule -->
<g id="edge1" class="edge">
<title>UsageLogComponent&#45;&gt;UsageLogModule</title>
<path fill="none" stroke="black" d="M93,-84.91C93,-104.14 93,-131.8 93,-131.8 93,-131.8 312.37,-131.8 312.37,-131.8"/>
<polygon fill="black" stroke="black" points="312.37,-135.3 322.37,-131.8 312.37,-128.3 312.37,-135.3"/>
</g>
<!-- EmptyScreenModule -->
<g id="node3" class="node">
<title>EmptyScreenModule</title>
<polygon fill="#8dd3c7" stroke="black" points="713.47,-84.8 710.47,-88.8 689.47,-88.8 686.47,-84.8 578.53,-84.8 578.53,-48.8 713.47,-48.8 713.47,-84.8"/>
<text text-anchor="middle" x="646" y="-62.6" font-family="Times,serif" font-size="14.00">EmptyScreenModule</text>
</g>
<!-- EmptyScreenModule&#45;&gt;UsageLogModule -->
<g id="edge2" class="edge">
<title>EmptyScreenModule&#45;&gt;UsageLogModule</title>
<path fill="none" stroke="black" d="M646,-84.91C646,-104.14 646,-131.8 646,-131.8 646,-131.8 449.81,-131.8 449.81,-131.8"/>
<polygon fill="black" stroke="black" points="449.81,-128.3 439.81,-131.8 449.81,-135.3 449.81,-128.3"/>
</g>
<!-- UsageLogRoutingModule -->
<g id="node4" class="node">
<title>UsageLogRoutingModule</title>
<polygon fill="#8dd3c7" stroke="black" points="560.21,-84.8 557.21,-88.8 536.21,-88.8 533.21,-84.8 397.79,-84.8 397.79,-48.8 560.21,-48.8 560.21,-84.8"/>
<text text-anchor="middle" x="479" y="-62.6" font-family="Times,serif" font-size="14.00">UsageLogRoutingModule</text>
</g>
<!-- UsageLogRoutingModule&#45;&gt;UsageLogModule -->
<g id="edge3" class="edge">
<title>UsageLogRoutingModule&#45;&gt;UsageLogModule</title>
<path fill="none" stroke="black" d="M418.72,-84.91C418.72,-84.91 418.72,-103.79 418.72,-103.79"/>
<polygon fill="black" stroke="black" points="415.22,-103.79 418.72,-113.79 422.22,-103.79 415.22,-103.79"/>
</g>
<!-- UseronboardingJourneyModule -->
<g id="node5" class="node">
<title>UseronboardingJourneyModule</title>
<polygon fill="#8dd3c7" stroke="black" points="380.08,-84.8 377.08,-88.8 356.08,-88.8 353.08,-84.8 185.92,-84.8 185.92,-48.8 380.08,-48.8 380.08,-84.8"/>
<text text-anchor="middle" x="283" y="-62.6" font-family="Times,serif" font-size="14.00">UseronboardingJourneyModule</text>
</g>
<!-- UseronboardingJourneyModule&#45;&gt;UsageLogModule -->
<g id="edge4" class="edge">
<title>UseronboardingJourneyModule&#45;&gt;UsageLogModule</title>
<path fill="none" stroke="black" d="M351.25,-84.91C351.25,-84.91 351.25,-103.79 351.25,-103.79"/>
<polygon fill="black" stroke="black" points="347.75,-103.79 351.25,-113.79 354.75,-103.79 347.75,-103.79"/>
</g>
</g>
</svg>
