<?xml version="1.0" encoding="UTF-8" standalone="no"?>
<!DOCTYPE svg PUBLIC "-//W3C//DTD SVG 1.1//EN"
 "http://www.w3.org/Graphics/SVG/1.1/DTD/svg11.dtd">
<!-- Generated by graphviz version 5.0.0 (20220707.1540)
 -->
<!-- Title: dependencies Pages: 1 -->
<svg width="592pt" height="174pt"
 viewBox="0.00 0.00 592.00 173.80" xmlns="http://www.w3.org/2000/svg" xmlns:xlink="http://www.w3.org/1999/xlink">
<g id="graph0" class="graph" transform="scale(1 1) rotate(0) translate(4 169.8)">
<title>dependencies</title>
<polygon fill="white" stroke="transparent" points="-4,4 -4,-169.8 588,-169.8 588,4 -4,4"/>
<text text-anchor="middle" x="292" y="-8.2" font-family="sans-serif" font-size="14.00">dependencies</text>
<g id="clust1" class="cluster">
<title>cluster_UsageLogModule</title>
<polygon fill="none" stroke="black" stroke-dasharray="1,5" points="8,-32.8 8,-157.8 576,-157.8 576,-32.8 8,-32.8"/>
</g>
<g id="clust2" class="cluster">
<title>cluster_UsageLogModule_declarations</title>
<polygon fill="none" stroke="black" points="414,-40.8 414,-92.8 568,-92.8 568,-40.8 414,-40.8"/>
</g>
<g id="clust4" class="cluster">
<title>cluster_UsageLogModule_imports</title>
<polygon fill="none" stroke="black" points="16,-40.8 16,-92.8 406,-92.8 406,-40.8 16,-40.8"/>
</g>
<!-- UsageLogComponent -->
<g id="node1" class="node">
<title>UsageLogComponent</title>
<polygon fill="#ffffb3" stroke="black" points="560.37,-84.8 421.63,-84.8 421.63,-48.8 560.37,-48.8 560.37,-84.8"/>
<text text-anchor="middle" x="491" y="-62.6" font-family="Times,serif" font-size="14.00">UsageLogComponent</text>
</g>
<!-- UsageLogModule -->
<g id="node2" class="node">
<title>UsageLogModule</title>
<polygon fill="#8dd3c7" stroke="black" points="375.59,-149.8 372.59,-153.8 351.59,-153.8 348.59,-149.8 258.41,-149.8 258.41,-113.8 375.59,-113.8 375.59,-149.8"/>
<text text-anchor="middle" x="317" y="-127.6" font-family="Times,serif" font-size="14.00">UsageLogModule</text>
</g>
<!-- UsageLogComponent&#45;&gt;UsageLogModule -->
<g id="edge1" class="edge">
<title>UsageLogComponent&#45;&gt;UsageLogModule</title>
<path fill="none" stroke="black" d="M491,-84.91C491,-104.14 491,-131.8 491,-131.8 491,-131.8 385.91,-131.8 385.91,-131.8"/>
<polygon fill="black" stroke="black" points="385.91,-128.3 375.91,-131.8 385.91,-135.3 385.91,-128.3"/>
</g>
<!-- UsageLogRoutingModule -->
<g id="node3" class="node">
<title>UsageLogRoutingModule</title>
<polygon fill="#8dd3c7" stroke="black" points="398.21,-84.8 395.21,-88.8 374.21,-88.8 371.21,-84.8 235.79,-84.8 235.79,-48.8 398.21,-48.8 398.21,-84.8"/>
<text text-anchor="middle" x="317" y="-62.6" font-family="Times,serif" font-size="14.00">UsageLogRoutingModule</text>
</g>
<!-- UsageLogRoutingModule&#45;&gt;UsageLogModule -->
<g id="edge2" class="edge">
<title>UsageLogRoutingModule&#45;&gt;UsageLogModule</title>
<path fill="none" stroke="black" d="M317,-84.91C317,-84.91 317,-103.79 317,-103.79"/>
<polygon fill="black" stroke="black" points="313.5,-103.79 317,-113.79 320.5,-103.79 313.5,-103.79"/>
</g>
<!-- UseronboardingJourneyModule -->
<g id="node4" class="node">
<title>UseronboardingJourneyModule</title>
<polygon fill="#8dd3c7" stroke="black" points="218.08,-84.8 215.08,-88.8 194.08,-88.8 191.08,-84.8 23.92,-84.8 23.92,-48.8 218.08,-48.8 218.08,-84.8"/>
<text text-anchor="middle" x="121" y="-62.6" font-family="Times,serif" font-size="14.00">UseronboardingJourneyModule</text>
</g>
<!-- UseronboardingJourneyModule&#45;&gt;UsageLogModule -->
<g id="edge3" class="edge">
<title>UseronboardingJourneyModule&#45;&gt;UsageLogModule</title>
<path fill="none" stroke="black" d="M121,-84.91C121,-104.14 121,-131.8 121,-131.8 121,-131.8 248.19,-131.8 248.19,-131.8"/>
<polygon fill="black" stroke="black" points="248.19,-135.3 258.19,-131.8 248.19,-128.3 248.19,-135.3"/>
</g>
</g>
</svg>
