<svg width="10" height="13" fill="none" xmlns="http://www.w3.org/2000/svg"><path d="M.455 12.355V.962h3.826c1.453 0 2.567.286 3.39.807.822.523 1.21 1.33 1.21 2.327 0 .521-.146 1.044-.388 1.424-.242.427-.677.758-1.21.95.677.14 1.21.426 1.549.9.338.475.484.998.484 1.567 0 1.093-.388 1.946-1.161 2.517-.776.569-1.84.9-3.293.9H.455Zm2.663-6.646h1.067c.628 0 1.112-.094 1.452-.332.339-.237.484-.569.484-.997 0-.475-.145-.855-.484-1.044-.34-.19-.775-.332-1.405-.332H3.118v2.705Zm0 1.756v2.848h1.744c.58 0 1.017-.094 1.307-.332.291-.237.437-.569.437-1.044 0-.474-.146-.854-.388-1.092-.242-.237-.68-.38-1.26-.38h-1.84Z" fill="#000"/></svg>