<svg width="30" height="28" fill="none" xmlns="http://www.w3.org/2000/svg"><path d="M0 2a2 2 0 0 1 2-2h11a2 2 0 0 1 2 2v24a2 2 0 0 1-2 2H2a2 2 0 0 1-2-2V2Zm18 13a1 1 0 0 1 1-1h10a1 1 0 1 1 0 2H19a1 1 0 0 1-1-1Zm0 4a1 1 0 0 1 1-1h10a1 1 0 1 1 0 2H19a1 1 0 0 1-1-1Zm0 4a1 1 0 0 1 1-1h10a1 1 0 1 1 0 2H19a1 1 0 0 1-1-1Zm0 4a1 1 0 0 1 1-1h10a1 1 0 1 1 0 2H19a1 1 0 0 1-1-1Zm0-25a2 2 0 0 1 2-2h8a2 2 0 0 1 2 2v1.5a2 2 0 0 1-2 2h-8a2 2 0 0 1-2-2V2Zm12 9a1 1 0 0 0-1-1H19a1 1 0 1 0 0 2h10a1 1 0 0 0 1-1Z" fill="#0D6EFD"/></svg>