<svg width="8" height="10" fill="none" xmlns="http://www.w3.org/2000/svg"><path fill-rule="evenodd" clip-rule="evenodd" d="M1.813 2.676c0-.96.778-1.739 1.738-1.739h.761c.93 0 1.702.677 1.85 1.564.028.17-.114.312-.287.312s-.308-.143-.351-.31a1.25 1.25 0 0 0-1.212-.94h-.761c-.615 0-1.114.498-1.114 1.113 0 .42.2.81.529 1.054.138.104.214.285.146.443-.067.159-.253.234-.399.142a1.942 1.942 0 0 1-.9-1.64Zm3.37 2.636H.874a.312.312 0 1 1 0-.625h6.25a.312.312 0 1 1 0 .625H6.18c.077.088.148.18.213.276.253.376.418.828.418 1.279a2.196 2.196 0 0 1-2.195 2.196h-.93a2.5 2.5 0 0 1-2.48-2.189c-.022-.17.12-.311.293-.311s.31.14.338.31c.148.888.92 1.564 1.85 1.564h.929a1.57 1.57 0 0 0 1.57-1.57c0-.303-.113-.636-.312-.93a1.826 1.826 0 0 0-.693-.625Z" fill="#202124"/></svg>