<svg width="64" height="64" fill="none" xmlns="http://www.w3.org/2000/svg"><path d="M48.5 62h-33c-2.75 0-5-2.25-5-5V9c0-2.75 2.25-5 5-5h33c2.75 0 5 2.25 5 5v48c0 2.75-2.25 5-5 5Z" fill="#fff"/><path d="M53.55 48.15 43.35 37.9c-.8-.8-1.85-1.25-3-1.25s-2.2.45-3 1.25L24.5 50.8c-.5.5-1.25.5-1.75 0l-4-4c-.8-.8-1.85-1.25-3-1.25s-2.2.45-3 1.25l-2.35 2.35c-.95.95-1.45 2.15-1.45 3.45v4.35c0 3.6 2.9 6.5 6.5 6.5h33c3.6 0 6.5-2.9 6.5-6.5v-5.4c.05-1.25-.45-2.5-1.4-3.4Zm-.05-5.65c-.85 0-1.5-.65-1.5-1.5V30.5c0-.85.65-1.5 1.5-1.5s1.5.65 1.5 1.5V41c0 .85-.65 1.5-1.5 1.5Zm-43 1c-.85 0-1.5-.65-1.5-1.5V9c0-3.6 2.9-6.5 6.5-6.5h22c.85 0 1.5.65 1.5 1.5s-.65 1.5-1.5 1.5h-22C13.55 5.5 12 7.05 12 9v33c0 .85-.65 1.5-1.5 1.5Z" fill="#98CCFD"/><path d="M24.85 21.8a4.2 4.2 0 1 0 0 8.399 4.2 4.2 0 0 0 0-8.4Z" fill="#98CCFD"/><path d="M53.5 2.5a10 10 0 1 0 0 20 10 10 0 0 0 0-20Z" fill="#0D6EFD"/><path d="M57 11h-2V9c0-.85-.65-1.5-1.5-1.5S52 8.15 52 9v2h-2c-.85 0-1.5.65-1.5 1.5S49.15 14 50 14h2v2c0 .85.65 1.5 1.5 1.5S55 16.85 55 16v-2h2c.85 0 1.5-.65 1.5-1.5S57.85 11 57 11Z" fill="#fff"/></svg>