<?xml version="1.0" encoding="UTF-8" standalone="no"?>
<!DOCTYPE svg PUBLIC "-//W3C//DTD SVG 1.1//EN"
 "http://www.w3.org/Graphics/SVG/1.1/DTD/svg11.dtd">
<!-- Generated by graphviz version 5.0.0 (20220707.1540)
 -->
<!-- Title: dependencies Pages: 1 -->
<svg width="689pt" height="247pt"
 viewBox="0.00 0.00 689.00 246.80" xmlns="http://www.w3.org/2000/svg" xmlns:xlink="http://www.w3.org/1999/xlink">
<g id="graph0" class="graph" transform="scale(1 1) rotate(0) translate(4 242.8)">
<title>dependencies</title>
<polygon fill="white" stroke="transparent" points="-4,4 -4,-242.8 685,-242.8 685,4 -4,4"/>
<text text-anchor="middle" x="340.5" y="-8.2" font-family="sans-serif" font-size="14.00">dependencies</text>
<g id="clust1" class="cluster">
<title>cluster_AppModule</title>
<polygon fill="none" stroke="black" stroke-dasharray="1,5" points="8,-32.8 8,-230.8 673,-230.8 673,-32.8 8,-32.8"/>
</g>
<g id="clust2" class="cluster">
<title>cluster_AppModule_declarations</title>
<polygon fill="none" stroke="black" points="543,-40.8 543,-92.8 665,-92.8 665,-40.8 543,-40.8"/>
</g>
<g id="clust4" class="cluster">
<title>cluster_AppModule_imports</title>
<polygon fill="none" stroke="black" points="16,-40.8 16,-92.8 535,-92.8 535,-40.8 16,-40.8"/>
</g>
<g id="clust6" class="cluster">
<title>cluster_AppModule_bootstrap</title>
<polygon fill="none" stroke="black" points="269,-170.8 269,-222.8 393,-222.8 393,-170.8 269,-170.8"/>
</g>
<!-- AppComponent -->
<g id="node1" class="node">
<title>AppComponent</title>
<polygon fill="#ffffb3" stroke="black" points="656.94,-84.8 551.06,-84.8 551.06,-48.8 656.94,-48.8 656.94,-84.8"/>
<text text-anchor="middle" x="604" y="-62.6" font-family="Times,serif" font-size="14.00">AppComponent</text>
</g>
<!-- AppModule -->
<g id="node2" class="node">
<title>AppModule</title>
<polygon fill="#8dd3c7" stroke="black" points="372.66,-149.8 369.66,-153.8 348.66,-153.8 345.66,-149.8 289.34,-149.8 289.34,-113.8 372.66,-113.8 372.66,-149.8"/>
<text text-anchor="middle" x="331" y="-127.6" font-family="Times,serif" font-size="14.00">AppModule</text>
</g>
<!-- AppComponent&#45;&gt;AppModule -->
<g id="edge1" class="edge">
<title>AppComponent&#45;&gt;AppModule</title>
<path fill="none" stroke="black" d="M604,-85.08C604,-106.12 604,-137.8 604,-137.8 604,-137.8 382.76,-137.8 382.76,-137.8"/>
<polygon fill="black" stroke="black" points="382.76,-134.3 372.76,-137.8 382.76,-141.3 382.76,-134.3"/>
</g>
<!-- AppComponent  -->
<g id="node7" class="node">
<title>AppComponent </title>
<polygon fill="#80b1d3" stroke="black" points="385.44,-214.8 276.56,-214.8 276.56,-178.8 385.44,-178.8 385.44,-214.8"/>
<text text-anchor="middle" x="331" y="-192.6" font-family="Times,serif" font-size="14.00">AppComponent </text>
</g>
<!-- AppModule&#45;&gt;AppComponent  -->
<g id="edge6" class="edge">
<title>AppModule&#45;&gt;AppComponent </title>
<path fill="none" stroke="black" stroke-dasharray="1,5" d="M331,-149.91C331,-149.91 331,-168.79 331,-168.79"/>
<polygon fill="black" stroke="black" points="327.5,-168.79 331,-178.79 334.5,-168.79 327.5,-168.79"/>
</g>
<!-- AppRoutingModule -->
<g id="node3" class="node">
<title>AppRoutingModule</title>
<polygon fill="#8dd3c7" stroke="black" points="527.28,-84.8 524.28,-88.8 503.28,-88.8 500.28,-84.8 398.72,-84.8 398.72,-48.8 527.28,-48.8 527.28,-84.8"/>
<text text-anchor="middle" x="463" y="-62.6" font-family="Times,serif" font-size="14.00">AppRoutingModule</text>
</g>
<!-- AppRoutingModule&#45;&gt;AppModule -->
<g id="edge2" class="edge">
<title>AppRoutingModule&#45;&gt;AppModule</title>
<path fill="none" stroke="black" d="M463,-84.82C463,-102.17 463,-125.8 463,-125.8 463,-125.8 382.77,-125.8 382.77,-125.8"/>
<polygon fill="black" stroke="black" points="382.77,-122.3 372.77,-125.8 382.77,-129.3 382.77,-122.3"/>
</g>
<!-- HeaderModule -->
<g id="node4" class="node">
<title>HeaderModule</title>
<polygon fill="#8dd3c7" stroke="black" points="380.97,-84.8 377.97,-88.8 356.97,-88.8 353.97,-84.8 281.03,-84.8 281.03,-48.8 380.97,-48.8 380.97,-84.8"/>
<text text-anchor="middle" x="331" y="-62.6" font-family="Times,serif" font-size="14.00">HeaderModule</text>
</g>
<!-- HeaderModule&#45;&gt;AppModule -->
<g id="edge3" class="edge">
<title>HeaderModule&#45;&gt;AppModule</title>
<path fill="none" stroke="black" d="M331,-84.91C331,-84.91 331,-103.79 331,-103.79"/>
<polygon fill="black" stroke="black" points="327.5,-103.79 331,-113.79 334.5,-103.79 327.5,-103.79"/>
</g>
<!-- LoaderModule -->
<g id="node5" class="node">
<title>LoaderModule</title>
<polygon fill="#8dd3c7" stroke="black" points="262.69,-84.8 259.69,-88.8 238.69,-88.8 235.69,-84.8 163.31,-84.8 163.31,-48.8 262.69,-48.8 262.69,-84.8"/>
<text text-anchor="middle" x="213" y="-62.6" font-family="Times,serif" font-size="14.00">LoaderModule</text>
</g>
<!-- LoaderModule&#45;&gt;AppModule -->
<g id="edge4" class="edge">
<title>LoaderModule&#45;&gt;AppModule</title>
<path fill="none" stroke="black" d="M213,-84.82C213,-102.17 213,-125.8 213,-125.8 213,-125.8 279.07,-125.8 279.07,-125.8"/>
<polygon fill="black" stroke="black" points="279.07,-129.3 289.07,-125.8 279.07,-122.3 279.07,-129.3"/>
</g>
<!-- MainMenuModule -->
<g id="node6" class="node">
<title>MainMenuModule</title>
<polygon fill="#8dd3c7" stroke="black" points="145.77,-84.8 142.77,-88.8 121.77,-88.8 118.77,-84.8 24.23,-84.8 24.23,-48.8 145.77,-48.8 145.77,-84.8"/>
<text text-anchor="middle" x="85" y="-62.6" font-family="Times,serif" font-size="14.00">MainMenuModule</text>
</g>
<!-- MainMenuModule&#45;&gt;AppModule -->
<g id="edge5" class="edge">
<title>MainMenuModule&#45;&gt;AppModule</title>
<path fill="none" stroke="black" d="M85,-85.08C85,-106.12 85,-137.8 85,-137.8 85,-137.8 279.27,-137.8 279.27,-137.8"/>
<polygon fill="black" stroke="black" points="279.27,-141.3 289.27,-137.8 279.27,-134.3 279.27,-141.3"/>
</g>
</g>
</svg>
