<?xml version="1.0" encoding="UTF-8" standalone="no"?>
<!DOCTYPE svg PUBLIC "-//W3C//DTD SVG 1.1//EN"
 "http://www.w3.org/Graphics/SVG/1.1/DTD/svg11.dtd">
<!-- Generated by graphviz version 5.0.0 (20220707.1540)
 -->
<!-- Title: dependencies Pages: 1 -->
<svg width="931pt" height="174pt"
 viewBox="0.00 0.00 931.00 173.80" xmlns="http://www.w3.org/2000/svg" xmlns:xlink="http://www.w3.org/1999/xlink">
<g id="graph0" class="graph" transform="scale(1 1) rotate(0) translate(4 169.8)">
<title>dependencies</title>
<polygon fill="white" stroke="transparent" points="-4,4 -4,-169.8 927,-169.8 927,4 -4,4"/>
<text text-anchor="middle" x="461.5" y="-8.2" font-family="sans-serif" font-size="14.00">dependencies</text>
<g id="clust1" class="cluster">
<title>cluster_GeneralSettingsModule</title>
<polygon fill="none" stroke="black" stroke-dasharray="1,5" points="8,-32.8 8,-157.8 915,-157.8 915,-32.8 8,-32.8"/>
</g>
<g id="clust2" class="cluster">
<title>cluster_GeneralSettingsModule_declarations</title>
<polygon fill="none" stroke="black" points="721,-40.8 721,-92.8 907,-92.8 907,-40.8 721,-40.8"/>
</g>
<g id="clust4" class="cluster">
<title>cluster_GeneralSettingsModule_imports</title>
<polygon fill="none" stroke="black" points="16,-40.8 16,-92.8 713,-92.8 713,-40.8 16,-40.8"/>
</g>
<!-- GeneralSettingsComponent -->
<g id="node1" class="node">
<title>GeneralSettingsComponent</title>
<polygon fill="#ffffb3" stroke="black" points="899.25,-84.8 728.75,-84.8 728.75,-48.8 899.25,-48.8 899.25,-84.8"/>
<text text-anchor="middle" x="814" y="-62.6" font-family="Times,serif" font-size="14.00">GeneralSettingsComponent</text>
</g>
<!-- GeneralSettingsModule -->
<g id="node2" class="node">
<title>GeneralSettingsModule</title>
<polygon fill="#8dd3c7" stroke="black" points="590.47,-149.8 587.47,-153.8 566.47,-153.8 563.47,-149.8 441.53,-149.8 441.53,-113.8 590.47,-113.8 590.47,-149.8"/>
<text text-anchor="middle" x="516" y="-127.6" font-family="Times,serif" font-size="14.00">GeneralSettingsModule</text>
</g>
<!-- GeneralSettingsComponent&#45;&gt;GeneralSettingsModule -->
<g id="edge1" class="edge">
<title>GeneralSettingsComponent&#45;&gt;GeneralSettingsModule</title>
<path fill="none" stroke="black" d="M814,-84.91C814,-104.14 814,-131.8 814,-131.8 814,-131.8 600.81,-131.8 600.81,-131.8"/>
<polygon fill="black" stroke="black" points="600.81,-128.3 590.81,-131.8 600.81,-135.3 600.81,-128.3"/>
</g>
<!-- ActionsModule -->
<g id="node3" class="node">
<title>ActionsModule</title>
<polygon fill="#8dd3c7" stroke="black" points="704.6,-84.8 701.6,-88.8 680.6,-88.8 677.6,-84.8 601.4,-84.8 601.4,-48.8 704.6,-48.8 704.6,-84.8"/>
<text text-anchor="middle" x="653" y="-62.6" font-family="Times,serif" font-size="14.00">ActionsModule</text>
</g>
<!-- ActionsModule&#45;&gt;GeneralSettingsModule -->
<g id="edge2" class="edge">
<title>ActionsModule&#45;&gt;GeneralSettingsModule</title>
<path fill="none" stroke="black" d="M601.31,-66.8C592.96,-66.8 586.99,-66.8 586.99,-66.8 586.99,-66.8 586.99,-103.69 586.99,-103.69"/>
<polygon fill="black" stroke="black" points="583.49,-103.69 586.99,-113.69 590.49,-103.69 583.49,-103.69"/>
</g>
<!-- EmptyScreenModule -->
<g id="node4" class="node">
<title>EmptyScreenModule</title>
<polygon fill="#8dd3c7" stroke="black" points="583.47,-84.8 580.47,-88.8 559.47,-88.8 556.47,-84.8 448.53,-84.8 448.53,-48.8 583.47,-48.8 583.47,-84.8"/>
<text text-anchor="middle" x="516" y="-62.6" font-family="Times,serif" font-size="14.00">EmptyScreenModule</text>
</g>
<!-- EmptyScreenModule&#45;&gt;GeneralSettingsModule -->
<g id="edge3" class="edge">
<title>EmptyScreenModule&#45;&gt;GeneralSettingsModule</title>
<path fill="none" stroke="black" d="M516,-84.91C516,-84.91 516,-103.79 516,-103.79"/>
<polygon fill="black" stroke="black" points="512.5,-103.79 516,-113.79 519.5,-103.79 512.5,-103.79"/>
</g>
<!-- GeneralSettingsRoutingModule -->
<g id="node5" class="node">
<title>GeneralSettingsRoutingModule</title>
<polygon fill="#8dd3c7" stroke="black" points="430.09,-84.8 427.09,-88.8 406.09,-88.8 403.09,-84.8 235.91,-84.8 235.91,-48.8 430.09,-48.8 430.09,-84.8"/>
<text text-anchor="middle" x="333" y="-62.6" font-family="Times,serif" font-size="14.00">GeneralSettingsRoutingModule</text>
</g>
<!-- GeneralSettingsRoutingModule&#45;&gt;GeneralSettingsModule -->
<g id="edge4" class="edge">
<title>GeneralSettingsRoutingModule&#45;&gt;GeneralSettingsModule</title>
<path fill="none" stroke="black" d="M430.37,-66.8C439.26,-66.8 445.01,-66.8 445.01,-66.8 445.01,-66.8 445.01,-103.69 445.01,-103.69"/>
<polygon fill="black" stroke="black" points="441.51,-103.69 445.01,-113.69 448.51,-103.69 441.51,-103.69"/>
</g>
<!-- UseronboardingJourneyModule -->
<g id="node6" class="node">
<title>UseronboardingJourneyModule</title>
<polygon fill="#8dd3c7" stroke="black" points="218.08,-84.8 215.08,-88.8 194.08,-88.8 191.08,-84.8 23.92,-84.8 23.92,-48.8 218.08,-48.8 218.08,-84.8"/>
<text text-anchor="middle" x="121" y="-62.6" font-family="Times,serif" font-size="14.00">UseronboardingJourneyModule</text>
</g>
<!-- UseronboardingJourneyModule&#45;&gt;GeneralSettingsModule -->
<g id="edge5" class="edge">
<title>UseronboardingJourneyModule&#45;&gt;GeneralSettingsModule</title>
<path fill="none" stroke="black" d="M121,-84.91C121,-104.14 121,-131.8 121,-131.8 121,-131.8 431.24,-131.8 431.24,-131.8"/>
<polygon fill="black" stroke="black" points="431.24,-135.3 441.24,-131.8 431.24,-128.3 431.24,-135.3"/>
</g>
</g>
</svg>
