<?xml version="1.0" encoding="UTF-8" standalone="no"?>
<!DOCTYPE svg PUBLIC "-//W3C//DTD SVG 1.1//EN"
 "http://www.w3.org/Graphics/SVG/1.1/DTD/svg11.dtd">
<!-- Generated by graphviz version 5.0.0 (20220707.1540)
 -->
<!-- Title: dependencies Pages: 1 -->
<svg width="778pt" height="174pt"
 viewBox="0.00 0.00 778.00 173.80" xmlns="http://www.w3.org/2000/svg" xmlns:xlink="http://www.w3.org/1999/xlink">
<g id="graph0" class="graph" transform="scale(1 1) rotate(0) translate(4 169.8)">
<title>dependencies</title>
<polygon fill="white" stroke="transparent" points="-4,4 -4,-169.8 774,-169.8 774,4 -4,4"/>
<text text-anchor="middle" x="385" y="-8.2" font-family="sans-serif" font-size="14.00">dependencies</text>
<g id="clust1" class="cluster">
<title>cluster_GeneralSettingsModule</title>
<polygon fill="none" stroke="black" stroke-dasharray="1,5" points="8,-32.8 8,-157.8 762,-157.8 762,-32.8 8,-32.8"/>
</g>
<g id="clust2" class="cluster">
<title>cluster_GeneralSettingsModule_declarations</title>
<polygon fill="none" stroke="black" points="568,-40.8 568,-92.8 754,-92.8 754,-40.8 568,-40.8"/>
</g>
<g id="clust4" class="cluster">
<title>cluster_GeneralSettingsModule_imports</title>
<polygon fill="none" stroke="black" points="16,-40.8 16,-92.8 560,-92.8 560,-40.8 16,-40.8"/>
</g>
<!-- GeneralSettingsComponent -->
<g id="node1" class="node">
<title>GeneralSettingsComponent</title>
<polygon fill="#ffffb3" stroke="black" points="746.25,-84.8 575.75,-84.8 575.75,-48.8 746.25,-48.8 746.25,-84.8"/>
<text text-anchor="middle" x="661" y="-62.6" font-family="Times,serif" font-size="14.00">GeneralSettingsComponent</text>
</g>
<!-- GeneralSettingsModule -->
<g id="node2" class="node">
<title>GeneralSettingsModule</title>
<polygon fill="#8dd3c7" stroke="black" points="490.47,-149.8 487.47,-153.8 466.47,-153.8 463.47,-149.8 341.53,-149.8 341.53,-113.8 490.47,-113.8 490.47,-149.8"/>
<text text-anchor="middle" x="416" y="-127.6" font-family="Times,serif" font-size="14.00">GeneralSettingsModule</text>
</g>
<!-- GeneralSettingsComponent&#45;&gt;GeneralSettingsModule -->
<g id="edge1" class="edge">
<title>GeneralSettingsComponent&#45;&gt;GeneralSettingsModule</title>
<path fill="none" stroke="black" d="M661,-84.91C661,-104.14 661,-131.8 661,-131.8 661,-131.8 500.51,-131.8 500.51,-131.8"/>
<polygon fill="black" stroke="black" points="500.51,-128.3 490.51,-131.8 500.51,-135.3 500.51,-128.3"/>
</g>
<!-- ActionsModule -->
<g id="node3" class="node">
<title>ActionsModule</title>
<polygon fill="#8dd3c7" stroke="black" points="551.6,-84.8 548.6,-88.8 527.6,-88.8 524.6,-84.8 448.4,-84.8 448.4,-48.8 551.6,-48.8 551.6,-84.8"/>
<text text-anchor="middle" x="500" y="-62.6" font-family="Times,serif" font-size="14.00">ActionsModule</text>
</g>
<!-- ActionsModule&#45;&gt;GeneralSettingsModule -->
<g id="edge2" class="edge">
<title>ActionsModule&#45;&gt;GeneralSettingsModule</title>
<path fill="none" stroke="black" d="M469.47,-84.91C469.47,-84.91 469.47,-103.79 469.47,-103.79"/>
<polygon fill="black" stroke="black" points="465.97,-103.79 469.47,-113.79 472.97,-103.79 465.97,-103.79"/>
</g>
<!-- GeneralSettingsRoutingModule -->
<g id="node4" class="node">
<title>GeneralSettingsRoutingModule</title>
<polygon fill="#8dd3c7" stroke="black" points="430.09,-84.8 427.09,-88.8 406.09,-88.8 403.09,-84.8 235.91,-84.8 235.91,-48.8 430.09,-48.8 430.09,-84.8"/>
<text text-anchor="middle" x="333" y="-62.6" font-family="Times,serif" font-size="14.00">GeneralSettingsRoutingModule</text>
</g>
<!-- GeneralSettingsRoutingModule&#45;&gt;GeneralSettingsModule -->
<g id="edge3" class="edge">
<title>GeneralSettingsRoutingModule&#45;&gt;GeneralSettingsModule</title>
<path fill="none" stroke="black" d="M385.78,-84.91C385.78,-84.91 385.78,-103.79 385.78,-103.79"/>
<polygon fill="black" stroke="black" points="382.28,-103.79 385.78,-113.79 389.28,-103.79 382.28,-103.79"/>
</g>
<!-- UseronboardingJourneyModule -->
<g id="node5" class="node">
<title>UseronboardingJourneyModule</title>
<polygon fill="#8dd3c7" stroke="black" points="218.08,-84.8 215.08,-88.8 194.08,-88.8 191.08,-84.8 23.92,-84.8 23.92,-48.8 218.08,-48.8 218.08,-84.8"/>
<text text-anchor="middle" x="121" y="-62.6" font-family="Times,serif" font-size="14.00">UseronboardingJourneyModule</text>
</g>
<!-- UseronboardingJourneyModule&#45;&gt;GeneralSettingsModule -->
<g id="edge4" class="edge">
<title>UseronboardingJourneyModule&#45;&gt;GeneralSettingsModule</title>
<path fill="none" stroke="black" d="M121,-84.91C121,-104.14 121,-131.8 121,-131.8 121,-131.8 331.18,-131.8 331.18,-131.8"/>
<polygon fill="black" stroke="black" points="331.18,-135.3 341.18,-131.8 331.18,-128.3 331.18,-135.3"/>
</g>
</g>
</svg>
