<?xml version="1.0" encoding="UTF-8" standalone="no"?>
<!DOCTYPE svg PUBLIC "-//W3C//DTD SVG 1.1//EN"
 "http://www.w3.org/Graphics/SVG/1.1/DTD/svg11.dtd">
<!-- Generated by graphviz version 5.0.0 (20220707.1540)
 -->
<!-- Title: dependencies Pages: 1 -->
<svg width="689pt" height="174pt"
 viewBox="0.00 0.00 689.00 173.80" xmlns="http://www.w3.org/2000/svg" xmlns:xlink="http://www.w3.org/1999/xlink">
<g id="graph0" class="graph" transform="scale(1 1) rotate(0) translate(4 169.8)">
<title>dependencies</title>
<polygon fill="white" stroke="transparent" points="-4,4 -4,-169.8 685,-169.8 685,4 -4,4"/>
<text text-anchor="middle" x="340.5" y="-8.2" font-family="sans-serif" font-size="14.00">dependencies</text>
<g id="clust1" class="cluster">
<title>cluster_SynonymsModule</title>
<polygon fill="none" stroke="black" stroke-dasharray="1,5" points="8,-32.8 8,-157.8 673,-157.8 673,-32.8 8,-32.8"/>
</g>
<g id="clust4" class="cluster">
<title>cluster_SynonymsModule_imports</title>
<polygon fill="none" stroke="black" points="180,-40.8 180,-92.8 665,-92.8 665,-40.8 180,-40.8"/>
</g>
<g id="clust2" class="cluster">
<title>cluster_SynonymsModule_declarations</title>
<polygon fill="none" stroke="black" points="16,-40.8 16,-92.8 172,-92.8 172,-40.8 16,-40.8"/>
</g>
<!-- SynonymsComponent -->
<g id="node1" class="node">
<title>SynonymsComponent</title>
<polygon fill="#ffffb3" stroke="black" points="164.46,-84.8 23.54,-84.8 23.54,-48.8 164.46,-48.8 164.46,-84.8"/>
<text text-anchor="middle" x="94" y="-62.6" font-family="Times,serif" font-size="14.00">SynonymsComponent</text>
</g>
<!-- SynonymsModule -->
<g id="node2" class="node">
<title>SynonymsModule</title>
<polygon fill="#8dd3c7" stroke="black" points="412.18,-149.8 409.18,-153.8 388.18,-153.8 385.18,-149.8 293.82,-149.8 293.82,-113.8 412.18,-113.8 412.18,-149.8"/>
<text text-anchor="middle" x="353" y="-127.6" font-family="Times,serif" font-size="14.00">SynonymsModule</text>
</g>
<!-- SynonymsComponent&#45;&gt;SynonymsModule -->
<g id="edge1" class="edge">
<title>SynonymsComponent&#45;&gt;SynonymsModule</title>
<path fill="none" stroke="black" d="M94,-84.91C94,-104.14 94,-131.8 94,-131.8 94,-131.8 283.58,-131.8 283.58,-131.8"/>
<polygon fill="black" stroke="black" points="283.58,-135.3 293.58,-131.8 283.58,-128.3 283.58,-135.3"/>
</g>
<!-- EmptyScreenModule -->
<g id="node3" class="node">
<title>EmptyScreenModule</title>
<polygon fill="#8dd3c7" stroke="black" points="657.47,-84.8 654.47,-88.8 633.47,-88.8 630.47,-84.8 522.53,-84.8 522.53,-48.8 657.47,-48.8 657.47,-84.8"/>
<text text-anchor="middle" x="590" y="-62.6" font-family="Times,serif" font-size="14.00">EmptyScreenModule</text>
</g>
<!-- EmptyScreenModule&#45;&gt;SynonymsModule -->
<g id="edge2" class="edge">
<title>EmptyScreenModule&#45;&gt;SynonymsModule</title>
<path fill="none" stroke="black" d="M590,-84.91C590,-104.14 590,-131.8 590,-131.8 590,-131.8 422.19,-131.8 422.19,-131.8"/>
<polygon fill="black" stroke="black" points="422.19,-128.3 412.19,-131.8 422.19,-135.3 422.19,-128.3"/>
</g>
<!-- FindlySharedModule -->
<g id="node4" class="node">
<title>FindlySharedModule</title>
<polygon fill="#8dd3c7" stroke="black" points="504.49,-84.8 501.49,-88.8 480.49,-88.8 477.49,-84.8 369.51,-84.8 369.51,-48.8 504.49,-48.8 504.49,-84.8"/>
<text text-anchor="middle" x="437" y="-62.6" font-family="Times,serif" font-size="14.00">FindlySharedModule</text>
</g>
<!-- FindlySharedModule&#45;&gt;SynonymsModule -->
<g id="edge3" class="edge">
<title>FindlySharedModule&#45;&gt;SynonymsModule</title>
<path fill="none" stroke="black" d="M390.92,-84.91C390.92,-84.91 390.92,-103.79 390.92,-103.79"/>
<polygon fill="black" stroke="black" points="387.42,-103.79 390.92,-113.79 394.42,-103.79 387.42,-103.79"/>
</g>
<!-- SynonymsRoutingModule -->
<g id="node5" class="node">
<title>SynonymsRoutingModule</title>
<polygon fill="#8dd3c7" stroke="black" points="351.79,-84.8 348.79,-88.8 327.79,-88.8 324.79,-84.8 188.21,-84.8 188.21,-48.8 351.79,-48.8 351.79,-84.8"/>
<text text-anchor="middle" x="270" y="-62.6" font-family="Times,serif" font-size="14.00">SynonymsRoutingModule</text>
</g>
<!-- SynonymsRoutingModule&#45;&gt;SynonymsModule -->
<g id="edge4" class="edge">
<title>SynonymsRoutingModule&#45;&gt;SynonymsModule</title>
<path fill="none" stroke="black" d="M322.78,-84.91C322.78,-84.91 322.78,-103.79 322.78,-103.79"/>
<polygon fill="black" stroke="black" points="319.28,-103.79 322.78,-113.79 326.28,-103.79 319.28,-103.79"/>
</g>
</g>
</svg>
