<svg width="35" height="28" fill="none" xmlns="http://www.w3.org/2000/svg"><path d="M14.882.238c1.132.558 1.134 2.378 1.073 3.165v.144c0 .095-.02.198-.026.308-.026.206-.036.43-.055.644-.026.44-.054.875-.057 1.313v.266a2.75 2.75 0 0 0 .846 1.912 2.694 2.694 0 0 0 1.936.748 100.97 100.97 0 0 1 1.548-.088 72.792 72.792 0 0 1 4.414-.047c1.473.023 2.944.09 4.415.22 1.482.115 2.955.32 4.413.614.42.09.802.312 1.09.634.288.322.468.729.513 1.16.044.513-.1 1.024-.406 1.436a2.065 2.065 0 0 1-1.252.794c-1.44.29-2.896.492-4.36.605a62.61 62.61 0 0 1-4.414.22h-.258c.29.295.493.666.585 1.072a2.283 2.283 0 0 1-.213 1.51 2.247 2.247 0 0 1-1.114 1.03c-.118.053-.237.099-.35.144a2.236 2.236 0 0 1 .947 1.66c.028.483-.089.964-.335 1.38a2.4 2.4 0 0 1-1.043.95c-.227.112-.46.207-.699.287a2.235 2.235 0 0 1 .947 1.675c.025.49-.097.976-.35 1.395-.254.419-.627.75-1.07.951a5.99 5.99 0 0 1-.628.256c-5.43 2.184-11.131.259-16.19-2.89H1.11C.497 23.707 0 20.964 0 17.577c0-3.388.497-6.81 1.11-6.81l3.679.078c1.466-.914 2.633-1.696 3.874-2.301a2.497 2.497 0 0 0 1.013-.89c.25-.385.392-.832.408-1.292.036-.65.112-.622.237-1.26a12.04 12.04 0 0 1 .54-1.888 9.04 9.04 0 0 1 .403-.919c.073-.148.154-.301.237-.456l.137-.24.178-.287c.26-.55.727-.975 1.297-1.179a2.26 2.26 0 0 1 1.742.092l.027.014Z" fill="#FFDA2D"/><path d="M31.432 11.37c-.014-1.45 2.369-1.257 2.369.071.005 1.464-2.352 1.68-2.369-.072ZM12.597 2.002c-.014-1.45 2.368-1.256 2.368.07.005 1.467-2.352 1.683-2.368-.07ZM.845 17.176c.012 2.797.465 5.063 1.012 5.06.546-.002.98-2.271.968-5.068-.012-2.797-.465-5.063-1.012-5.06-.547.002-.98 2.271-.968 5.068Z" fill="#FF784B"/><path d="M1.694 16.513c0 .616.181 1.115.405 1.115.223 0 .405-.5.405-1.115 0-.616-.182-1.115-.405-1.115-.224 0-.405.5-.405 1.115Z" fill="#fff"/><path d="M26.57 12.742a7.4 7.4 0 0 1-.013-.646v-1.919a.184.184 0 0 1 .339-.093c.132.203.226.428.277.665.056.235.082.476.076.717a3.022 3.022 0 0 1-.09.701 2.23 2.23 0 0 1-.263.663.183.183 0 0 1-.199.085.182.182 0 0 1-.14-.166l.012-.007ZM12.469 5.191c.106-.02.216-.026.324-.017a2.265 2.265 0 0 1 .566.11c.1.035.197.078.289.13l.026.014a.206.206 0 0 1 .019.34.786.786 0 0 1-.37.148 1.106 1.106 0 0 1-.376 0 1.195 1.195 0 0 1-.348-.132.896.896 0 0 1-.29-.26.203.203 0 0 1 .048-.28.193.193 0 0 1 .071-.031l.04-.022Zm15.818 6.865a1.15 1.15 0 0 1-.087-.309 1.724 1.724 0 0 1 .002-.569c.017-.104.047-.205.088-.301v-.024a.205.205 0 0 1 .267-.108l.005.003a.194.194 0 0 1 .062.04.824.824 0 0 1 .192.325 1.15 1.15 0 0 1-.008.701.856.856 0 0 1-.184.32.201.201 0 0 1-.284.015l-.003-.002a.274.274 0 0 1-.042-.06l-.008-.031Zm-6.201 8.714a1.102 1.102 0 0 1-.087-.305 1.689 1.689 0 0 1 .005-.57c.015-.103.044-.205.085-.301v-.024a.21.21 0 0 1 .272-.108.244.244 0 0 1 .062.043.8.8 0 0 1 .192.326 1.13 1.13 0 0 1-.005.698.904.904 0 0 1-.187.323.2.2 0 0 1-.284 0 .21.21 0 0 1-.046-.057l-.007-.024Zm.896-4.083a1.77 1.77 0 0 1-.1-.41 3.138 3.138 0 0 1 .002-.792c.02-.137.053-.273.1-.403a.2.2 0 0 1 .103-.111.196.196 0 0 1 .15-.005h.003c.038.014.07.04.092.074.084.128.143.27.176.419a1.99 1.99 0 0 1-.005.863c-.033.148-.09.289-.17.416a.195.195 0 0 1-.183.093.193.193 0 0 1-.163-.124l-.005-.02Zm-2.174 8.459a1.756 1.756 0 0 1-.099-.407 2.838 2.838 0 0 1-.024-.4c0-.13.008-.262.026-.392.018-.139.05-.275.1-.406a.195.195 0 0 1 .254-.113h.002c.038.013.07.04.092.074.083.127.143.27.175.418.032.142.047.288.045.433 0 .145-.016.29-.05.43a1.359 1.359 0 0 1-.17.417.197.197 0 0 1-.272.06.207.207 0 0 1-.073-.09l-.006-.024Z" fill="#FF784B"/></svg>