<svg width="47" height="43" viewBox="0 0 47 43" fill="none" xmlns="http://www.w3.org/2000/svg">
<path d="M42 36.1667C42 39.389 39.389 42 36.1667 42H5.83333C2.61217 42 0 39.389 0 36.1667V5.83333C0 2.611 2.61217 0 5.83333 0H36.1667C39.389 0 42 2.611 42 5.83333V36.1667Z" fill="#93D3A2"/>
<path d="M36.1667 14.0003H5.83335C5.18935 14.0003 4.66669 13.4777 4.66669 12.8337V5.83366C4.66669 5.18966 5.18935 4.66699 5.83335 4.66699H36.1667C36.8107 4.66699 37.3334 5.18966 37.3334 5.83366V12.8337C37.3334 13.4777 36.8107 14.0003 36.1667 14.0003ZM36.1667 25.667H5.83335C5.18935 25.667 4.66669 25.1443 4.66669 24.5003V17.5003C4.66669 16.8563 5.18935 16.3337 5.83335 16.3337H36.1667C36.8107 16.3337 37.3334 16.8563 37.3334 17.5003V24.5003C37.3334 25.1443 36.8107 25.667 36.1667 25.667ZM36.1667 37.3337H5.83335C5.18935 37.3337 4.66669 36.811 4.66669 36.167V29.167C4.66669 28.523 5.18935 28.0003 5.83335 28.0003H36.1667C36.8107 28.0003 37.3334 28.523 37.3334 29.167V36.167C37.3334 36.811 36.8107 37.3337 36.1667 37.3337Z" fill="#EAF6EC"/>
<path d="M37 23C34.3478 23 31.8043 24.0536 29.9289 25.9289C28.0536 27.8043 27 30.3478 27 33C27 35.6522 28.0536 38.1957 29.9289 40.0711C31.8043 41.9464 34.3478 43 37 43C39.6522 43 42.1957 41.9464 44.0711 40.0711C45.9464 38.1957 47 35.6522 47 33C47 30.3478 45.9464 27.8043 44.0711 25.9289C42.1957 24.0536 39.6522 23 37 23Z" fill="#FFDA2D"/>
<path d="M35 27H39V39H35V27Z" fill="white"/>
<path d="M31 31H43V35H31V31Z" fill="white"/>
</svg>
