<svg width="49" height="49" viewBox="0 0 49 49" fill="none" xmlns="http://www.w3.org/2000/svg">
<path d="M40.8333 45.9375H8.16663V3.0625H30.625L40.8333 13.2708V45.9375Z" fill="#FFED96"/>
<path d="M39.302 14.2917H29.6041V4.59375L39.302 14.2917Z" fill="#806D16"/>
<path d="M16.1873 37.2757L14.4376 36.2243L21.2343 24.8951L27.3593 31.0201L32.8126 21.9326L34.5623 22.9841L27.7656 34.3133L21.6406 28.1883L16.1873 37.2757Z" fill="#806D16"/>
<path d="M21.4375 24.4998C20.8961 24.4998 20.3768 24.7149 19.9939 25.0978C19.611 25.4807 19.3959 26 19.3959 26.5415C19.3959 27.083 19.611 27.6023 19.9939 27.9852C20.3768 28.3681 20.8961 28.5832 21.4375 28.5832C21.979 28.5832 22.4983 28.3681 22.8812 27.9852C23.2641 27.6023 23.4792 27.083 23.4792 26.5415C23.4792 26 23.2641 25.4807 22.8812 25.0978C22.4983 24.7149 21.979 24.4998 21.4375 24.4998ZM15.3125 34.7082C14.7711 34.7082 14.2518 34.9233 13.8689 35.3062C13.486 35.689 13.2709 36.2084 13.2709 36.7498C13.2709 37.2913 13.486 37.8106 13.8689 38.1935C14.2518 38.5764 14.7711 38.7915 15.3125 38.7915C15.854 38.7915 16.3733 38.5764 16.7562 38.1935C17.1391 37.8106 17.3542 37.2913 17.3542 36.7498C17.3542 36.2084 17.1391 35.689 16.7562 35.3062C16.3733 34.9233 15.854 34.7082 15.3125 34.7082ZM27.5625 30.6248C27.0211 30.6248 26.5018 30.8399 26.1189 31.2228C25.736 31.6057 25.5209 32.125 25.5209 32.6665C25.5209 33.208 25.736 33.7273 26.1189 34.1102C26.5018 34.4931 27.0211 34.7082 27.5625 34.7082C28.104 34.7082 28.6233 34.4931 29.0062 34.1102C29.3891 33.7273 29.6042 33.208 29.6042 32.6665C29.6042 32.125 29.3891 31.6057 29.0062 31.2228C28.6233 30.8399 28.104 30.6248 27.5625 30.6248ZM33.6875 20.4165C33.1461 20.4165 32.6268 20.6316 32.2439 21.0145C31.861 21.3974 31.6459 21.9167 31.6459 22.4582C31.6459 22.9997 31.861 23.519 32.2439 23.9018C32.6268 24.2847 33.1461 24.4998 33.6875 24.4998C34.229 24.4998 34.7483 24.2847 35.1312 23.9018C35.5141 23.519 35.7292 22.9997 35.7292 22.4582C35.7292 21.9167 35.5141 21.3974 35.1312 21.0145C34.7483 20.6316 34.229 20.4165 33.6875 20.4165Z" fill="#FFFBEA"/>
</svg>
