<svg width="54" height="54" viewBox="0 0 54 54" fill="none" xmlns="http://www.w3.org/2000/svg">
<path d="M39.375 46.125H14.625V5.625H39.375V46.125Z" fill="#B893F2"/>
<path d="M41.625 46.125H12.375V9H41.625V46.125Z" fill="#7027E5"/>
<path d="M43.875 46.125H10.125V12.375H43.875V46.125Z" fill="#B893F2"/>
<path d="M13.5 18H22.5V20.25H13.5V18ZM24.75 18H32.625V20.25H24.75V18ZM13.5 22.5H27V24.75H13.5V22.5Z" fill="#381472"/>
<path d="M31.5 32.625V34.875C31.5 37.3601 29.4851 39.375 27 39.375C24.5149 39.375 22.5 37.3601 22.5 34.875V32.625H10.125V46.125H43.875V32.625H31.5Z" fill="#B893F2"/>
<path d="M27 41.625C23.2729 41.625 20.25 38.6021 20.25 34.875H7.875C7.254 34.875 6.75 35.379 6.75 36V45C6.75 46.8641 8.26088 48.375 10.125 48.375H43.875C45.7391 48.375 47.25 46.8641 47.25 45V36C47.25 35.379 46.746 34.875 46.125 34.875H33.75C33.75 38.6021 30.7271 41.625 27 41.625Z" fill="#FFDA2D"/>
</svg>
