<svg width="48" height="48" viewBox="0 0 48 48" fill="none" xmlns="http://www.w3.org/2000/svg">
<path d="M6 22L42 22L42 26L6 26L6 22ZM6 40L42 40L42 36L6 36L6 40ZM6 12L42 12L42 8L6 8L6 12Z" fill="#FF784B"/>
<path d="M6 36L30 36L30 40L6 40L6 36ZM6 12L34 12L34 8L6 8L6 12ZM6 26L17 26L17 22L6 22L6 26Z" fill="#FFBCA5"/>
<path d="M28 34L31 34C31.5 34 32 34.5 32 35L32 41C32 41.5 31.5 42 31 42L28 42C27.5 42 27 41.5 27 41L27 35C27 34.5 27.5 34 28 34ZM31 7L31 13C31 13.6 31.5 14 32 14L35 14C35.6 14 36 13.6 36 13L36 7C36 6.4 35.6 6 35 6L32 6C31.5 6 31 6.4 31 7ZM14 21L14 27C14 27.5 14.5 28 15 28L18 28C18.5 28 19 27.5 19 27L19 21C19 20.5 18.5 20 18 20L15 20C14.5 20 14 20.5 14 21Z" fill="#803C25"/>
</svg>
