<?xml version="1.0" encoding="UTF-8" standalone="no"?>
<!DOCTYPE svg PUBLIC "-//W3C//DTD SVG 1.1//EN"
 "http://www.w3.org/Graphics/SVG/1.1/DTD/svg11.dtd">
<!-- Generated by graphviz version 5.0.0 (20220707.1540)
 -->
<!-- Title: dependencies Pages: 1 -->
<svg width="294pt" height="247pt"
 viewBox="0.00 0.00 294.00 246.80" xmlns="http://www.w3.org/2000/svg" xmlns:xlink="http://www.w3.org/1999/xlink">
<g id="graph0" class="graph" transform="scale(1 1) rotate(0) translate(4 242.8)">
<title>dependencies</title>
<polygon fill="white" stroke="transparent" points="-4,4 -4,-242.8 290,-242.8 290,4 -4,4"/>
<text text-anchor="middle" x="143" y="-8.2" font-family="sans-serif" font-size="14.00">dependencies</text>
<g id="clust1" class="cluster">
<title>cluster_OnboardingModule</title>
<polygon fill="none" stroke="black" stroke-dasharray="1,5" points="8,-32.8 8,-230.8 278,-230.8 278,-32.8 8,-32.8"/>
</g>
<g id="clust5" class="cluster">
<title>cluster_OnboardingModule_exports</title>
<polygon fill="none" stroke="black" points="59,-170.8 59,-222.8 227,-222.8 227,-170.8 59,-170.8"/>
</g>
<g id="clust2" class="cluster">
<title>cluster_OnboardingModule_declarations</title>
<polygon fill="none" stroke="black" points="106,-40.8 106,-92.8 270,-92.8 270,-40.8 106,-40.8"/>
</g>
<g id="clust4" class="cluster">
<title>cluster_OnboardingModule_imports</title>
<polygon fill="none" stroke="black" points="16,-40.8 16,-92.8 98,-92.8 98,-40.8 16,-40.8"/>
</g>
<!-- OnboardingComponent -->
<g id="node1" class="node">
<title>OnboardingComponent</title>
<polygon fill="#ffffb3" stroke="black" points="262.21,-84.8 113.79,-84.8 113.79,-48.8 262.21,-48.8 262.21,-84.8"/>
<text text-anchor="middle" x="188" y="-62.6" font-family="Times,serif" font-size="14.00">OnboardingComponent</text>
</g>
<!-- OnboardingModule -->
<g id="node2" class="node">
<title>OnboardingModule</title>
<polygon fill="#8dd3c7" stroke="black" points="206.43,-149.8 203.43,-153.8 182.43,-153.8 179.43,-149.8 79.57,-149.8 79.57,-113.8 206.43,-113.8 206.43,-149.8"/>
<text text-anchor="middle" x="143" y="-127.6" font-family="Times,serif" font-size="14.00">OnboardingModule</text>
</g>
<!-- OnboardingComponent&#45;&gt;OnboardingModule -->
<g id="edge1" class="edge">
<title>OnboardingComponent&#45;&gt;OnboardingModule</title>
<path fill="none" stroke="black" d="M160.06,-84.91C160.06,-84.91 160.06,-103.79 160.06,-103.79"/>
<polygon fill="black" stroke="black" points="156.56,-103.79 160.06,-113.79 163.56,-103.79 156.56,-103.79"/>
</g>
<!-- OnboardingComponent  -->
<g id="node4" class="node">
<title>OnboardingComponent </title>
<polygon fill="#fb8072" stroke="black" points="218.71,-214.8 67.29,-214.8 67.29,-178.8 218.71,-178.8 218.71,-214.8"/>
<text text-anchor="middle" x="143" y="-192.6" font-family="Times,serif" font-size="14.00">OnboardingComponent </text>
</g>
<!-- OnboardingModule&#45;&gt;OnboardingComponent  -->
<g id="edge3" class="edge">
<title>OnboardingModule&#45;&gt;OnboardingComponent </title>
<path fill="none" stroke="black" stroke-dasharray="5,2" d="M143,-149.91C143,-149.91 143,-168.79 143,-168.79"/>
<polygon fill="black" stroke="black" points="139.5,-168.79 143,-178.79 146.5,-168.79 139.5,-168.79"/>
</g>
<!-- SafePipe -->
<g id="node3" class="node">
<title>SafePipe</title>
<polygon fill="#8dd3c7" stroke="black" points="89.77,-84.8 86.77,-88.8 65.77,-88.8 62.77,-84.8 24.23,-84.8 24.23,-48.8 89.77,-48.8 89.77,-84.8"/>
<text text-anchor="middle" x="57" y="-62.6" font-family="Times,serif" font-size="14.00">SafePipe</text>
</g>
<!-- SafePipe&#45;&gt;OnboardingModule -->
<g id="edge2" class="edge">
<title>SafePipe&#45;&gt;OnboardingModule</title>
<path fill="none" stroke="black" d="M84.83,-84.91C84.83,-84.91 84.83,-103.79 84.83,-103.79"/>
<polygon fill="black" stroke="black" points="81.33,-103.79 84.83,-113.79 88.33,-103.79 81.33,-103.79"/>
</g>
</g>
</svg>
