<svg width="14" height="12" xmlns="http://www.w3.org/2000/svg"><g fill="none" fill-rule="evenodd"><path d="M-1-2h16v16H-1z"/><path d="M1.5 0C.676 0 0 .676 0 1.5v9c0 .824.676 1.5 1.5 1.5h11c.824 0 1.5-.676 1.5-1.5v-9c0-.824-.676-1.5-1.5-1.5h-11Zm0 1h11c.281 0 .5.219.5.5v7.266l-3.504-3.7-1.953 2.2L4.531 4.09 1 8.066V1.5c0-.281.219-.5.5-.5ZM10 2c-.55 0-1 .45-1 1s.45 1 1 1 1-.45 1-1-.45-1-1-1ZM4.555 5.566 9.707 11H1.5a.494.494 0 0 1-.5-.5v-.926l3.555-4.008Zm4.96.98L13 10.22v.281c0 .281-.219.5-.5.5h-1.418L8.234 7.992l1.282-1.445Z" fill="#FFF"/></g></svg>