<svg width="12" height="12" xmlns="http://www.w3.org/2000/svg"><path d="M.553 0a.541.541 0 0 0-.478.27c-.1.17-.1.381 0 .55.099.17.28.274.478.271h10.894c.197.003.379-.1.478-.27.1-.17.1-.38 0-.55a.541.541 0 0 0-.478-.27H.553Zm0 2.727a.541.541 0 0 0-.478.27c-.1.17-.1.381 0 .55a.54.54 0 0 0 .478.271h6.536c.197.003.38-.1.478-.27.1-.17.1-.38 0-.55a.541.541 0 0 0-.478-.27H.553Zm11.439 0L8.724 6l3.268 3.273V2.727ZM.552 5.455a.541.541 0 0 0-.477.27c-.1.17-.1.38 0 .55a.54.54 0 0 0 .478.27h6.536a.54.54 0 0 0 .478-.27c.1-.17.1-.38 0-.55a.541.541 0 0 0-.478-.27H.553Zm0 2.727a.541.541 0 0 0-.477.27c-.1.17-.1.38 0 .55a.54.54 0 0 0 .478.27h6.536a.54.54 0 0 0 .478-.27c.1-.17.1-.38 0-.55a.541.541 0 0 0-.478-.27H.553Zm0 2.727a.541.541 0 0 0-.477.27c-.1.17-.1.38 0 .55a.54.54 0 0 0 .478.27h10.894a.54.54 0 0 0 .478-.27c.1-.17.1-.38 0-.55a.541.541 0 0 0-.478-.27H.553Z" fill="#FFF"/></svg>