<svg width="12" height="12" xmlns="http://www.w3.org/2000/svg"><g fill="none" fill-rule="evenodd"><path d="M-1-1h14v14H-1z"/><path d="M5.242 4.102c.83.06 1.593.477 2.091 1.143a.454.454 0 1 1-.727.544 1.96 1.96 0 0 0-2.897-.267l-.058.056L2.208 7.02A1.96 1.96 0 0 0 4.92 9.847l.054-.05.826-.826a.454.454 0 0 1 .672.61l-.03.033-.83.83A2.868 2.868 0 0 1 1.5 6.447l.059-.062 1.448-1.449a2.868 2.868 0 0 1 2.234-.833Zm5.177-2.512a2.87 2.87 0 0 1 .088 3.964l-.059.062L9 7.065a2.868 2.868 0 0 1-4.325-.31.454.454 0 1 1 .727-.544 1.96 1.96 0 0 0 2.897.267l.058-.056L9.8 4.98a1.96 1.96 0 0 0-2.712-2.825l-.054.05-.83.826a.454.454 0 0 1-.67-.612l.03-.033.834-.83a2.868 2.868 0 0 1 4.02.035Z" fill="#FFF"/></g></svg>