<svg xmlns="http://www.w3.org/2000/svg" width="17" height="17"><path d="M6.333 12.667H15v-1.334H6.333v1.334zm0-4H15V7.333H6.333v1.334zm0-5.334v1.334H15V3.333H6.333zm-2.95.168c.072-.064.132-.125.18-.183-.008.152-.013.32-.013.504v1.511h.784V2.478H3.64l-.982.799.4.492.325-.267zm.223 5.176c.316-.284.523-.476.62-.578a2.04 2.04 0 0 0 .233-.29c.058-.092.102-.186.13-.28.028-.096.042-.199.042-.311 0-.15-.04-.285-.12-.405a.77.77 0 0 0-.338-.278 1.172 1.172 0 0 0-.495-.099c-.147 0-.28.015-.397.045-.118.03-.227.073-.327.13-.1.056-.225.15-.372.282l.424.496c.116-.1.22-.176.311-.227a.55.55 0 0 1 .274-.078c.086 0 .154.021.202.065a.22.22 0 0 1 .074.176c0 .06-.014.117-.037.172a.953.953 0 0 1-.128.196 8.252 8.252 0 0 1-.39.426l-.699.706v.508h2.074v-.636h-1.08v-.02h-.001zm.353 3.164v-.012a.926.926 0 0 0 .468-.276.68.68 0 0 0 .162-.456.56.56 0 0 0-.252-.485c-.168-.117-.4-.176-.695-.176-.205 0-.387.022-.544.067a1.564 1.564 0 0 0-.464.222l.32.516a1.07 1.07 0 0 1 .567-.183c.098 0 .175.018.233.055.058.036.087.093.087.168 0 .2-.196.3-.588.3h-.18v.58h.176c.144 0 .262.011.351.033.09.02.155.053.196.095.043.05.064.115.06.18 0 .102-.038.177-.115.225-.077.047-.2.07-.37.07-.109 0-.228-.014-.358-.046a1.62 1.62 0 0 1-.382-.14v.64a2.173 2.173 0 0 0 .851.155c.373 0 .665-.076.876-.229a.732.732 0 0 0 .315-.627c.002-.39-.237-.615-.713-.675z"/></svg>