<svg width="11" height="10" xmlns="http://www.w3.org/2000/svg"><g fill="none" fill-rule="evenodd"><path d="M-2-2h14v14H-2z"/><path d="M1.208 8.208a.875.875 0 1 1 0 1.75.875.875 0 0 1 0-1.75Zm8.75.409c.258 0 .467.224.467.5 0 .26-.186.475-.424.498l-.043.002H3.833c-.257 0-.466-.224-.466-.5 0-.261.186-.475.424-.498l.042-.002h6.125Zm-8.75-4.492a.875.875 0 1 1 0 1.75.875.875 0 0 1 0-1.75Zm8.75.408c.258 0 .467.224.467.5a.488.488 0 0 1-.424.498l-.043.002H3.833c-.257 0-.466-.224-.466-.5 0-.26.186-.475.424-.498l.042-.002h6.125ZM1.208.042a.875.875 0 1 1 0 1.75.875.875 0 0 1 0-1.75Zm8.75.408c.258 0 .467.224.467.5 0 .26-.186.475-.424.498l-.043.002H3.833c-.257 0-.466-.224-.466-.5 0-.26.186-.475.424-.498L3.833.45h6.125Z" fill="#FFF"/></g></svg>