<svg width="10" height="8" fill="none" xmlns="http://www.w3.org/2000/svg"><path fill-rule="evenodd" clip-rule="evenodd" d="M1.333 1.203a.32.32 0 0 1-.312.328H.313A.32.32 0 0 1 0 1.203.32.32 0 0 1 .313.875h.708a.32.32 0 0 1 .312.328Zm8.667 0a.32.32 0 0 1-.313.328H2.98a.32.32 0 0 1-.312-.328.32.32 0 0 1 .312-.328h6.708a.32.32 0 0 1 .313.328ZM1.333 4a.32.32 0 0 1-.312.328H.313A.32.32 0 0 1 0 4a.32.32 0 0 1 .313-.328h.708A.32.32 0 0 1 1.333 4ZM10 4a.32.32 0 0 1-.313.328H2.98A.32.32 0 0 1 2.667 4a.32.32 0 0 1 .312-.328h6.708A.32.32 0 0 1 10 4ZM1.333 6.797a.32.32 0 0 1-.312.328H.313A.32.32 0 0 1 0 6.797a.32.32 0 0 1 .313-.328h.708a.32.32 0 0 1 .312.328Zm8.667 0a.32.32 0 0 1-.313.328H2.98a.32.32 0 0 1-.312-.328.32.32 0 0 1 .312-.328h6.708a.32.32 0 0 1 .313.328Z" fill="#202124"/></svg>