<svg width="10" height="8" fill="none" xmlns="http://www.w3.org/2000/svg"><path fill-rule="evenodd" clip-rule="evenodd" d="M0 .563C0 .39.14.25.313.25H1a.25.25 0 0 1 .25.25v1.625h.313a.312.312 0 1 1 0 .625H.313a.312.312 0 1 1 0-.625h.312V.875H.313A.312.312 0 0 1 0 .562Zm10 .625c0 .172-.14.312-.312.312h-6.25a.312.312 0 1 1 0-.625h6.25c.172 0 .312.14.312.313Zm0 2.5C10 3.86 9.86 4 9.688 4h-6.25a.312.312 0 1 1 0-.625h6.25c.172 0 .312.14.312.313Zm-9.687 2.5c-.173 0-.318-.144-.262-.307a.938.938 0 0 1 .887-.631h.183a.754.754 0 0 1 .533 1.288l-.587.587h.496a.312.312 0 1 1 0 .625H.313a.313.313 0 0 1-.221-.533l1.12-1.121a.13.13 0 0 0-.091-.221H.938a.311.311 0 0 0-.17.05c-.145.093-.283.263-.455.263Zm9.687 0c0 .172-.14.312-.312.312h-6.25a.312.312 0 1 1 0-.625h6.25c.172 0 .312.14.312.313Z" fill="#202124"/></svg>