<svg width="12" height="12" xmlns="http://www.w3.org/2000/svg"><path d="m.964 0-.82.543v.687L.92.72h.043v2.416h.82V0h-.82Zm2.969 1.547a.537.537 0 0 0-.471.259.506.506 0 0 0 0 .527.537.537 0 0 0 .471.259h7.522a.537.537 0 0 0 .471-.26.506.506 0 0 0 0-.526.537.537 0 0 0-.471-.26H3.933ZM1.247 4.683C.518 4.683.03 5.093.03 5.7v.013h.732v-.015c0-.252.187-.43.456-.43.26 0 .428.15.428.375 0 .18-.117.334-.578.75L.077 7.3v.519h2.386v-.605H1.14v-.04l.518-.464c.556-.483.76-.783.76-1.122 0-.54-.468-.905-1.171-.905Zm2.686 1.045a.537.537 0 0 0-.471.26.506.506 0 0 0 0 .526.537.537 0 0 0 .471.26h7.522a.537.537 0 0 0 .471-.26.506.506 0 0 0 0-.527.537.537 0 0 0-.471-.26H3.933ZM1.236 8.864c-.71 0-1.168.37-1.178.952h.705c.008-.232.189-.388.455-.388.272 0 .44.135.44.352 0 .216-.172.358-.432.358H.85v.522h.376c.297 0 .476.14.476.37 0 .222-.19.374-.466.374-.295 0-.484-.14-.494-.367H0c.027.583.509.963 1.223.963.748 0 1.27-.376 1.27-.914 0-.382-.27-.653-.691-.696v-.04a.676.676 0 0 0 .578-.673c0-.481-.466-.813-1.144-.813Zm2.697 1.045a.537.537 0 0 0-.471.26.506.506 0 0 0 0 .526.537.537 0 0 0 .471.26h7.522a.537.537 0 0 0 .471-.26.506.506 0 0 0 0-.526.537.537 0 0 0-.471-.26H3.933Z" fill="#FFF"/></svg>