<svg width="24" height="23" viewBox="0 0 24 23" fill="none" xmlns="http://www.w3.org/2000/svg">
<path d="M23.0646 12.6122C22.8374 10.5433 22.6001 9.49262 21.9672 8.22679C21.9672 8.22679 23.8659 2.53057 22.6001 0.188794C22.1735 -0.599815 17.914 1.25715 16.2709 2.53057C16.2709 2.53057 13.7393 1.89893 11.8405 1.89893C9.94181 1.89893 7.41015 2.53057 7.41015 2.53057C5.76711 1.25715 1.50761 -0.599815 1.08102 0.188794C-0.184804 2.53057 1.71394 8.22679 1.71394 8.22679C1.08102 9.49262 0.84368 10.5433 0.616464 12.6122C0.366463 14.8806 0.863933 16.6888 1.08102 17.0876C1.32786 17.5407 2.57913 19.0021 4.24559 20.2521C6.77724 22.1509 10.5747 22.7838 11.8405 22.7838C13.1064 22.7838 16.9039 22.1509 19.4355 20.2521C21.102 19.0021 22.3532 17.5407 22.6001 17.0876C22.8172 16.6888 23.3146 14.8806 23.0646 12.6122Z" fill="#FFCC4D"/>
<path d="M11.8401 12.3379C13.7389 12.3379 13.7389 12.6543 13.7389 13.2873C13.7389 13.9202 12.7895 15.186 11.8401 15.186C10.8908 15.186 9.94141 13.9202 9.94141 13.2873C9.94141 12.6543 9.94077 12.3379 11.8401 12.3379Z" fill="#E75A70"/>
<path d="M1.71384 1.89871C1.99675 1.04934 5.28347 2.53162 5.91638 3.16454C5.91638 3.16454 2.97966 5.06328 2.34675 6.96202C2.34675 6.96202 1.08092 3.79745 1.71384 1.89871ZM21.9671 1.89871C21.6841 1.04934 18.3974 2.53162 17.7645 3.16454C17.7645 3.16454 20.7012 5.06328 21.3341 6.96202C21.3341 6.96202 22.6 3.79745 21.9671 1.89871Z" fill="#F18F26"/>
<path d="M3.5708 3.54761C3.5708 2.65267 7.41005 4.43179 6.77714 5.0647C6.14423 5.69761 5.51131 6.07926 4.8784 6.71217C4.24549 7.34509 3.5708 4.18052 3.5708 3.54761ZM20.1101 3.54761C20.1101 2.65267 16.2708 4.43179 16.9037 5.0647C17.5367 5.69761 18.1696 6.07926 18.8025 6.71217C19.4354 7.34509 20.1101 4.18052 20.1101 3.54761Z" fill="#FFCC4D"/>
<path d="M0.891616 15.8222C0.797945 15.8222 0.70554 15.7811 0.642881 15.7019C0.534653 15.5646 0.558071 15.3659 0.695413 15.2576C0.797945 15.1773 3.23972 13.283 7.43467 13.6089C7.60872 13.6216 7.7391 13.7741 7.72581 13.9481C7.71252 14.1222 7.56315 14.2652 7.38594 14.2393C3.44099 13.9393 1.1106 15.7368 1.08782 15.7551C1.02896 15.8001 0.959971 15.8222 0.891616 15.8222ZM6.50429 12.8709C6.47328 12.8709 6.441 12.8665 6.40999 12.857C3.37833 11.9095 0.880224 12.6374 0.854907 12.6443C0.687185 12.6956 0.511236 12.6 0.460602 12.4323C0.410602 12.2646 0.505539 12.0886 0.672628 12.0386C0.782122 12.0057 3.38529 11.2494 6.59796 12.2526C6.76505 12.3051 6.85809 12.4823 6.80556 12.6494C6.76378 12.7842 6.6391 12.8709 6.50429 12.8709ZM22.7891 15.8222C22.8828 15.8222 22.9752 15.7811 23.0379 15.7019C23.1461 15.5646 23.1227 15.3659 22.9853 15.2576C22.8828 15.1773 20.441 13.283 16.2461 13.6089C16.072 13.6216 15.9417 13.7741 15.9549 13.9481C15.9682 14.1222 16.1176 14.2652 16.2948 14.2393C20.2398 13.9393 22.5702 15.7368 22.5929 15.7551C22.6518 15.8001 22.7208 15.8222 22.7891 15.8222ZM17.1765 12.8709C17.2075 12.8709 17.2398 12.8665 17.2708 12.857C20.3024 11.9095 22.8005 12.6374 22.8258 12.6443C22.9936 12.6956 23.1695 12.6 23.2202 12.4323C23.2702 12.2646 23.1752 12.0886 23.0081 12.0386C22.8986 12.0057 20.2955 11.2494 17.0828 12.2526C16.9157 12.3051 16.8227 12.4823 16.8752 12.6494C16.9163 12.7842 17.0417 12.8709 17.1765 12.8709Z" fill="#FEE7B8"/>
<path d="M18.184 15.3128C17.5657 15.4344 15.0049 16.4578 11.8403 16.4578C8.67578 16.4578 6.11501 15.4344 5.49665 15.3128C4.8783 15.192 4.80551 15.992 5.15804 17.1742C5.51121 18.3565 7.40995 20.8882 11.8403 20.8882C16.2707 20.8882 18.1695 18.3565 18.5226 17.1742C18.8752 15.992 18.8024 15.192 18.184 15.3128Z" fill="#292F33"/>
<path d="M5.51123 15.8223C5.51123 15.8223 8.6758 17.0881 11.8404 17.0881C15.0049 17.0881 18.1695 15.8223 18.1695 15.8223C18.1695 15.8223 17.853 17.721 17.2201 17.721C16.5872 17.721 16.2708 17.0881 16.2708 17.0881C16.2708 17.0881 13.7391 18.3539 11.8404 18.3539C9.94162 18.3539 7.40997 17.0881 7.40997 17.0881C7.40997 17.0881 7.09351 17.721 6.4606 17.721C5.82769 17.721 5.51123 15.8223 5.51123 15.8223Z" fill="#F5F8FA"/>
<path d="M8.04317 11.3874C8.74227 11.3874 9.309 10.3956 9.309 9.17223C9.309 7.94881 8.74227 6.95703 8.04317 6.95703C7.34407 6.95703 6.77734 7.94881 6.77734 9.17223C6.77734 10.3956 7.34407 11.3874 8.04317 11.3874Z" fill="#292F33"/>
<path d="M15.6379 11.3874C16.337 11.3874 16.9037 10.3956 16.9037 9.17223C16.9037 7.94881 16.337 6.95703 15.6379 6.95703C14.9388 6.95703 14.3721 7.94881 14.3721 9.17223C14.3721 10.3956 14.9388 11.3874 15.6379 11.3874Z" fill="#292F33"/>
</svg>
