<svg width="22" height="23" viewBox="0 0 22 23" fill="none" xmlns="http://www.w3.org/2000/svg">
<path d="M11.398 22.1956C13.1525 21.4418 14.293 19.9064 14.9702 18.426C16.0291 16.1114 19.7689 15.1545 20.6981 14.495C21.9879 13.5798 20.8031 11.7272 18.8854 12.0336C16.8189 12.3639 16.3202 13.2633 15.0746 13.8083C14.4392 14.0855 13.9904 13.9962 13.9056 12.8234C13.8436 11.9633 14.9537 5.20507 15.2917 2.08923C15.4075 1.02278 14.9632 0.41518 14.105 0.300622C13.1329 0.170875 12.6297 0.69999 12.424 1.67404C11.9113 4.09937 11.0987 8.85381 10.7575 9.12217C8.92461 10.2722 6.48093 11.7766 4.29675 8.85444C4.29675 8.85444 3.25181 3.37278 3.08915 2.26645C2.80751 0.351255 0.221424 0.696826 0.43345 2.69367C0.632184 4.57468 1.24927 9.0133 0.708767 10.5899C0.234082 11.9753 -0.603895 16.7304 1.24231 19.626C3.06384 22.483 7.92587 23.6874 11.398 22.1956Z" fill="#FFDC5D"/>
<path d="M4.86918 14.5017C5.41665 17.1321 8.59451 16.8365 8.39388 14.3308C8.23122 12.2928 7.61223 8.73204 7.41096 7.84217C7.00084 6.02127 3.82931 6.42571 4.0888 8.57571C4.25716 9.97129 4.44323 12.4542 4.86918 14.5017Z" fill="#EF9645"/>
<path d="M5.45407 14.2378C5.95724 16.4207 8.25724 15.8137 8.14015 13.7732C8.02306 11.7321 7.55091 8.62194 7.40661 7.72067C7.06863 5.61561 4.36483 6.56308 4.58445 8.11371C4.80407 9.66435 5.07875 12.6099 5.45407 14.2378Z" fill="#FFDC5D"/>
<path d="M7.33473 15.0779C7.3784 18.2064 10.867 18.0361 11.1404 15.6943C11.3778 13.664 10.8752 9.18799 10.8379 8.27533C10.7677 6.57723 7.66385 6.5652 7.56195 8.49369C7.47967 10.0582 7.31131 13.4076 7.33473 15.0779Z" fill="#EF9645"/>
<path d="M7.928 15.1685C7.83876 17.114 10.4685 17.3343 10.659 15.2995C10.8502 13.2647 10.8046 8.91401 10.7894 8.00198C10.7635 6.41463 8.10965 6.47096 8.03496 8.42034C7.97547 9.9849 8.00395 13.4995 7.928 15.1685Z" fill="#FFDC5D"/>
</svg>
