<svg width="23" height="23" viewBox="0 0 23 23" fill="none" xmlns="http://www.w3.org/2000/svg">
<path d="M3.07656 5.76142C3.6715 5.3456 4.56834 5.42534 5.10252 5.86648L4.48986 4.97598C3.99682 4.27281 4.1734 3.51205 4.8772 3.01838C5.581 2.5266 7.57531 3.84876 7.57531 3.84876C7.07784 3.13863 7.17088 2.23863 7.88101 1.74052C8.59114 1.24432 9.57089 1.41584 10.0684 2.12723L16.6633 11.4437L15.8228 19.5925L8.80822 17.0342L2.68985 7.96269C2.18795 7.24813 2.36137 6.26269 3.07656 5.76142Z" fill="#EF9645"/>
<path d="M1.7059 10.9465C1.7059 10.9465 0.989447 9.90221 2.03439 9.18639C3.07806 8.47056 3.79388 9.51424 3.79388 9.51424L7.11731 14.3611C7.23187 14.1699 7.35719 13.9813 7.49706 13.7953L2.88439 7.06929C2.88439 7.06929 2.16856 6.02562 3.21287 5.30979C4.25654 4.59397 4.97237 5.63764 4.97237 5.63764L9.31099 11.9649C9.47238 11.8332 9.63757 11.7009 9.80783 11.5712L4.77806 4.23511C4.77806 4.23511 4.06224 3.19143 5.10655 2.47561C6.15022 1.75978 6.86605 2.80346 6.86605 2.80346L11.8958 10.1383C12.0806 10.025 12.2635 9.92689 12.4471 9.8231L7.74579 2.96738C7.74579 2.96738 7.02997 1.92371 8.07364 1.20788C9.11732 0.492059 9.83314 1.53573 9.83314 1.53573L14.804 8.78512L15.5597 9.88765C12.4281 12.0358 12.13 16.0769 13.9192 18.6864C14.2768 19.2086 14.799 18.851 14.799 18.851C12.6515 15.7187 13.3072 12.1991 16.4395 10.0516L15.5161 5.43005C15.5161 5.43005 15.1711 4.21232 16.3882 3.86675C17.6059 3.52181 17.9515 4.73954 17.9515 4.73954L19.018 7.90664C19.4408 9.16234 19.8908 10.4136 20.4863 11.5972C22.168 14.9389 21.1636 19.0921 17.9927 21.2674C14.5338 23.639 9.80529 22.7573 7.43314 19.2991L1.7059 10.9465Z" fill="#FFDC5D"/>
<path d="M7.59497 20.2541C5.06332 20.2541 2.50508 17.6958 2.50508 15.1642C2.50508 14.8142 2.24875 14.5312 1.89875 14.5312C1.54875 14.5312 1.23926 14.8142 1.23926 15.1642C1.23926 18.9616 3.79749 21.5199 7.59497 21.5199C7.94497 21.5199 8.22788 21.2104 8.22788 20.8604C8.22788 20.5104 7.94497 20.2541 7.59497 20.2541Z" fill="#5DADEC"/>
<path d="M4.43039 21.4915C2.53165 21.4915 1.26583 20.2257 1.26583 18.3269C1.26583 17.9769 0.982914 17.694 0.632913 17.694C0.282912 17.694 0 17.9769 0 18.3269C0 20.8586 1.89874 22.7573 4.43039 22.7573C4.78039 22.7573 5.0633 22.4744 5.0633 22.1244C5.0633 21.7744 4.78039 21.4915 4.43039 21.4915ZM15.1899 1.23828C14.8405 1.23828 14.557 1.52183 14.557 1.87119C14.557 2.22056 14.8405 2.50411 15.1899 2.50411C17.7216 2.50411 20.2532 4.77563 20.2532 7.56741C20.2532 7.91678 20.5368 8.20033 20.8861 8.20033C21.2355 8.20033 21.519 7.91678 21.519 7.56741C21.519 4.07753 18.9874 1.23828 15.1899 1.23828Z" fill="#5DADEC"/>
<path d="M18.3546 0C18.0052 0 17.7217 0.256963 17.7217 0.606331C17.7217 0.955699 18.0052 1.26583 18.3546 1.26583C20.2533 1.26583 21.4926 2.67406 21.4926 4.40381C21.4926 4.75318 21.8021 5.03672 22.1521 5.03672C22.5021 5.03672 22.7584 4.75318 22.7584 4.40381C22.7584 1.97532 20.8862 0 18.3546 0Z" fill="#5DADEC"/>
</svg>
