<svg width="20" height="23" viewBox="0 0 20 23" fill="none" xmlns="http://www.w3.org/2000/svg">
<path d="M7.31791 11.0105C7.49133 11.6497 7.10652 12.3073 6.45715 12.4801L6.30082 12.5212C5.65145 12.6921 4.98499 12.3124 4.81094 11.6725L2.4603 3.02689C2.1622 1.98828 2.36726 1.01233 3.27043 0.748406L3.55461 0.683216C4.20335 0.511696 4.58309 0.951571 4.75651 1.59081L7.31791 11.0105ZM11.7097 11.5813C11.5882 12.2617 10.9293 12.7168 10.2382 12.5965L10.1831 12.587C9.4926 12.4674 9.03121 11.8174 9.15336 11.137L10.8534 1.63702C10.9749 0.956634 11.3046 0.488911 11.9951 0.608532L12.1477 0.654735C13.9008 1.07056 13.1736 3.39968 13.4091 2.08132L11.7097 11.5813Z" fill="#EF9645"/>
<path d="M4.96793 11.953C5.13186 12.565 4.7692 13.1941 4.15717 13.3587L3.92806 13.4201C3.31603 13.584 2.68691 13.2214 2.52299 12.6093L0.495137 5.04349C0.331845 4.43146 0.695137 3.80172 1.30716 3.63779L1.53565 3.5764C2.14767 3.41184 2.77679 3.77513 2.94135 4.38716L4.96793 11.953ZM7.85022 10.4846C8.02047 11.1176 7.64452 11.7682 7.01161 11.9378L6.85845 11.979C6.22553 12.1486 5.5749 11.7726 5.40528 11.1397L2.90717 1.81627C2.73692 1.18335 3.11287 0.532719 3.74578 0.363098L3.89894 0.321959C4.53186 0.152338 5.18249 0.528289 5.35275 1.1612L7.85022 10.4846ZM11.011 11.2467C10.8971 11.8922 10.2819 12.3233 9.6363 12.2093L9.4806 12.1815C8.83503 12.0676 8.40402 11.4524 8.51794 10.8068L10.1939 1.30234C10.3078 0.65677 10.923 0.225756 11.5686 0.339681L11.7243 0.366896C12.3699 0.48082 12.8009 1.09664 12.6876 1.74222L11.011 11.2467ZM14.1135 11.8739C14.0072 12.4764 13.4338 12.879 12.8306 12.7726L12.5192 12.7176C11.9167 12.6112 11.5148 12.0372 11.6205 11.4346L13.2148 2.39728C13.3211 1.79538 13.8952 1.39222 14.4971 1.49854L14.8091 1.55361C15.4116 1.65994 15.8135 2.23462 15.7072 2.83652L14.1135 11.8739ZM16.2281 17.2195C15.8977 17.791 15.1667 17.9872 14.5945 17.6568L14.4737 17.5866C13.9015 17.2562 13.7053 16.5252 14.0363 15.9536L17.5863 9.803C17.9167 9.23148 18.6483 9.03464 19.2205 9.36502L19.3414 9.43528C19.9135 9.76502 20.1091 10.4973 19.7787 11.0688L16.2281 17.2195Z" fill="#FFDC5D"/>
<path d="M1.83311 10.0311C2.08627 10.976 1.71729 13.3127 1.71729 15.0899C1.71729 16.8671 3.06223 22.6849 9.31224 22.6849C15.5623 22.6849 15.9578 17.4735 16.9072 15.9342C17.8566 14.395 16.38 11.8994 15.6414 13.1652C14.9028 14.4311 13.7844 13.9013 14.1648 11.6621C14.5452 9.42282 12.1901 8.20383 11.8635 10.0519C11.5863 11.6197 10.9534 11.1614 11.323 9.47409C11.692 7.78611 9.09895 7.30953 8.67933 9.6051C8.3711 11.2931 7.76034 10.1697 7.50781 9.20194C7.25527 8.23421 4.66982 8.14877 5.00717 9.65067C5.48881 11.7943 5.004 12.2247 4.3021 9.60574C3.85653 7.94434 1.83311 10.0311 1.83311 10.0311Z" fill="#FFDC5D"/>
<path d="M14.6662 13.8398C14.6807 13.8385 14.6953 13.8347 14.7099 13.8328C14.4637 13.7898 14.2586 13.555 14.1573 13.1328C12.944 13.2898 11.2548 13.5841 9.94528 14.8645C8.32756 16.4461 8.05161 18.1556 8.0649 19.2993C8.07566 20.2214 8.57882 20.6581 8.72629 19.2917C8.9168 17.5227 10.2124 14.2031 14.6662 13.8398Z" fill="#EF9645"/>
</svg>
