<svg width="23" height="22" viewBox="0 0 23 22" fill="none" xmlns="http://www.w3.org/2000/svg">
<path d="M3.79738 12.5082C3.79738 13.9063 3.08915 15.0399 2.2151 15.0399C1.34104 15.0399 0.632812 13.9063 0.632812 12.5082C0.632812 11.1101 1.34104 9.97656 2.2151 9.97656C3.08915 9.97656 3.79738 11.1101 3.79738 12.5082ZM22.1519 12.5082C22.1519 13.9063 21.4436 15.0399 20.5696 15.0399C19.6955 15.0399 18.9873 13.9063 18.9873 12.5082C18.9873 11.1101 19.6955 9.97656 20.5696 9.97656C21.4436 9.97656 22.1519 11.1101 22.1519 12.5082Z" fill="#FFDC5D"/>
<path d="M2.53174 12.8608C2.53174 7.46454 6.49884 3.08984 11.3925 3.08984C16.2862 3.08984 20.2533 7.46454 20.2533 12.8608C20.2533 18.257 16.2862 21.9988 11.3925 21.9988C6.49884 21.9988 2.53174 18.257 2.53174 12.8608Z" fill="#FFDC5D"/>
<path d="M7.59483 13.7738C7.24546 13.7738 6.96191 13.4909 6.96191 13.1409V11.8751C6.96191 11.5257 7.24546 11.2422 7.59483 11.2422C7.9442 11.2422 8.22774 11.5257 8.22774 11.8751V13.1409C8.22774 13.4909 7.9442 13.7738 7.59483 13.7738ZM15.1898 13.7738C14.8398 13.7738 14.5569 13.4909 14.5569 13.1409V11.8751C14.5569 11.5257 14.8398 11.2422 15.1898 11.2422C15.5398 11.2422 15.8227 11.5257 15.8227 11.8751V13.1409C15.8227 13.4909 15.5398 13.7738 15.1898 13.7738Z" fill="#662113"/>
<path d="M11.3922 18.8386C8.74157 18.8386 7.36878 18.1677 7.31182 18.1392C6.99916 17.9829 6.87257 17.6025 7.0289 17.2899C7.18523 16.9785 7.56245 16.8519 7.87511 17.0057C7.90739 17.0209 9.09347 17.5728 11.3922 17.5728C13.7118 17.5728 14.8985 17.0107 14.9106 17.005C15.2245 16.8525 15.603 16.9835 15.7561 17.2943C15.9099 17.6063 15.7846 17.9835 15.4732 18.1392C15.415 18.1677 14.0428 18.8386 11.3922 18.8386ZM12.0251 15.674H10.7593C10.4099 15.674 10.1264 15.3911 10.1264 15.0411C10.1264 14.6911 10.4099 14.4082 10.7593 14.4082H12.0251C12.3751 14.4082 12.658 14.6911 12.658 15.0411C12.658 15.3911 12.3751 15.674 12.0251 15.674Z" fill="#C1694F"/>
<path d="M11.3921 0.0742188C5.55035 0.0742188 1.89844 4.1641 1.89844 7.57171C1.89844 10.9799 2.62882 12.3432 3.3592 10.9799L4.81996 8.25335C4.81996 8.25335 7.21934 8.17487 8.6801 6.81158C8.6801 6.81158 8.00225 9.34323 12.8535 6.89006C12.8535 6.89006 12.7485 9.34323 16.139 6.81158C16.139 6.81158 18.6953 7.57171 19.4244 10.9799C19.627 11.9255 20.8858 10.9799 20.8858 7.57171C20.8858 4.1641 17.9649 0.0742188 11.3921 0.0742188Z" fill="#FFAC33"/>
</svg>
