<svg width="23" height="24" viewBox="0 0 23 24" fill="none" xmlns="http://www.w3.org/2000/svg">
<path d="M4.47991 14.5217C5.72571 14.2041 6.36224 12.4818 5.90162 10.6747C5.44101 8.86769 4.05768 7.66021 2.81188 7.97776C1.56608 8.29531 0.929553 10.0176 1.39017 11.8247C1.85078 13.6318 3.23411 14.8392 4.47991 14.5217Z" fill="#D79E84"/>
<path d="M21.344 11.8253C21.8046 10.0182 21.1681 8.29585 19.9223 7.9783C18.6765 7.66075 17.2932 8.86824 16.8325 10.6753C16.3719 12.4824 17.0085 14.2047 18.2543 14.5222C19.5001 14.8398 20.8834 13.6323 21.344 11.8253Z" fill="#D79E84"/>
<path d="M11.9907 22.6455H10.7438C6.62988 22.6455 2.64062 19.4923 2.64062 15.0784C2.64062 12.5562 3.57544 11.2948 3.57544 11.2948C3.57544 11.2948 3.26404 10.0334 3.26404 8.77267C3.26404 4.98911 7.2533 1.83594 11.3672 1.83594C15.4812 1.83594 19.4704 5.61949 19.4704 8.77267C19.4704 10.0341 19.159 11.2948 19.159 11.2948C19.159 11.2948 20.0938 12.5562 20.0938 15.0784C20.0938 19.4923 16.1046 22.6455 11.9907 22.6455Z" fill="#BF6952"/>
<path d="M14.0518 0.599671C14.0518 0.599671 10.6955 -0.0718495 9.35306 1.94208C8.01065 3.95601 12.0379 2.6136 12.0379 2.6136C12.0379 2.6136 12.7094 0.599671 14.0518 0.599671Z" fill="#BF6952"/>
<path d="M18.7513 10.2246C18.7513 7.81513 16.7975 5.86133 14.388 5.86133C13.2146 5.86133 12.1513 6.32715 11.3671 7.08032C10.5829 6.32652 9.51963 5.86133 8.34621 5.86133C5.93671 5.86133 3.98291 7.81513 3.98291 10.2246C3.98291 11.686 4.70443 12.9765 5.80697 13.7683C5.49747 14.5354 5.32532 15.3797 5.32532 16.2658C5.32532 19.7879 8.03039 21.9715 11.3665 21.9715C14.7026 21.9715 17.4076 19.7879 17.4076 16.2658C17.4076 15.3791 17.2355 14.5354 16.926 13.7683C18.0298 12.9765 18.7513 11.686 18.7513 10.2246Z" fill="#D79E84"/>
<path d="M8.20235 13.149C8.90145 13.149 9.46818 12.2989 9.46818 11.2503C9.46818 10.2017 8.90145 9.35156 8.20235 9.35156C7.50325 9.35156 6.93652 10.2017 6.93652 11.2503C6.93652 12.2989 7.50325 13.149 8.20235 13.149Z" fill="#292F33"/>
<path d="M14.5315 13.149C15.2305 13.149 15.7973 12.2989 15.7973 11.2503C15.7973 10.2017 15.2305 9.35156 14.5315 9.35156C13.8324 9.35156 13.2656 10.2017 13.2656 11.2503C13.2656 12.2989 13.8324 13.149 14.5315 13.149Z" fill="#292F33"/>
<path d="M11.3671 20.4321C13.0854 20.4321 14.5487 19.5587 15.0981 18.3378C15.3253 17.8328 14.9398 17.2676 14.3658 17.2676H8.36831C7.79426 17.2676 7.40881 17.8328 7.63603 18.3378C8.1854 19.5587 9.64869 20.4321 11.3671 20.4321Z" fill="#642116"/>
<path d="M10.4181 15.0872C10.7676 15.0872 11.051 14.7865 11.051 14.4157C11.051 14.0448 10.7676 13.7441 10.4181 13.7441C10.0685 13.7441 9.78516 14.0448 9.78516 14.4157C9.78516 14.7865 10.0685 15.0872 10.4181 15.0872Z" fill="#642116"/>
<path d="M12.3165 15.049C12.6661 15.049 12.9494 14.7657 12.9494 14.4161C12.9494 14.0666 12.6661 13.7832 12.3165 13.7832C11.967 13.7832 11.6836 14.0666 11.6836 14.4161C11.6836 14.7657 11.967 15.049 12.3165 15.049Z" fill="#642116"/>
<path d="M4.3252 15.2034C4.70369 14.385 4.87964 13.7331 4.87964 13.1496C4.87964 12.3217 4.49736 11.5293 4.18976 10.8926C4.01634 10.5331 3.83723 10.161 3.83723 9.98503C3.83723 9.86288 3.9271 9.48313 4.00622 9.14768C4.25115 8.11224 4.55558 6.82299 4.17267 6.20527C4.07773 6.05274 3.89799 5.87109 3.57647 5.87109C2.34165 5.87109 0.449244 8.56477 0.449244 11.8838C0.449244 13.5142 0.559371 14.5274 0.800511 15.1192L0.291016 23.2762H4.72141L4.19166 15.4021C4.24546 15.3433 4.29103 15.2774 4.3252 15.2034Z" fill="#BF6952"/>
<path d="M4.32524 15.2055C4.70372 14.3872 4.87967 13.7353 4.87967 13.1517C4.87967 12.3239 4.49739 11.5315 4.1898 10.8948C4.01638 10.5353 3.83726 10.1631 3.83726 9.98715C3.83726 9.865 3.92714 9.48525 4.00625 9.14981C4.25119 8.11436 4.55562 6.82512 4.17271 6.2074C4.1322 6.14284 4.07271 6.07512 3.99739 6.01562C3.53283 6.86436 3.26384 7.79664 3.26384 8.77259C3.26384 10.0334 3.13916 12.5561 3.13916 15.0783C3.13916 15.2777 4.40499 23.2783 4.40499 23.2783H4.72144L4.19043 15.3865C4.24043 15.3302 4.29296 15.2758 4.32524 15.2055Z" fill="#9B3C07"/>
<path d="M3.57655 6.50391C2.70756 6.50391 0.970215 8.82986 0.970215 11.8837C0.970215 13.4925 1.0873 14.5254 1.31832 14.9539C1.47971 15.2546 1.94174 15.2514 2.38667 15.247L2.53351 15.2463C3.26769 15.2463 3.78984 15.0672 3.87022 14.8932C4.1987 14.1837 4.3582 13.6128 4.3582 13.1495C4.3582 12.4938 4.02972 11.8128 3.73984 11.2121C3.50313 10.721 3.31579 10.333 3.31579 9.98493C3.31579 9.78366 3.38415 9.48429 3.50503 8.9729C3.67212 8.26657 3.98288 6.95138 3.75567 6.58619C3.74111 6.5615 3.70503 6.50391 3.57655 6.50391Z" fill="#D79E84"/>
<path d="M22.4431 23.2762L21.9336 15.1192C22.1748 14.5274 22.2849 13.5148 22.2849 11.8838C22.2849 8.56477 20.3925 5.87109 19.1577 5.87109C18.8361 5.87109 18.6564 6.05274 18.5615 6.20527C18.1779 6.82299 18.483 8.11224 18.7279 9.14768C18.807 9.48313 18.8969 9.86288 18.8969 9.98503C18.8969 10.161 18.7178 10.5331 18.5444 10.8926C18.2368 11.5293 17.8545 12.3224 17.8545 13.1496C17.8545 13.7331 18.0304 14.385 18.4096 15.2034C18.4437 15.2774 18.4893 15.3433 18.5431 15.4021L18.0127 23.2762H22.4431Z" fill="#BF6952"/>
<path d="M19.595 15.0779C19.595 12.5557 19.4703 10.0329 19.4703 8.77215C19.4703 7.90253 19.1583 6.98607 18.6323 6.11328C18.6058 6.14493 18.5804 6.17657 18.5615 6.20695C18.1779 6.82468 18.483 8.11392 18.7279 9.14937C18.807 9.48481 18.8969 9.86456 18.8969 9.98671C18.8969 10.1627 18.7178 10.5348 18.5444 10.8943C18.2368 11.531 17.8545 12.3241 17.8545 13.1513C17.8545 13.7348 18.0304 14.3867 18.4096 15.2051C18.4418 15.2747 18.4944 15.3298 18.5444 15.3861L18.0127 23.2779H18.3292C18.3292 23.2779 19.595 15.2772 19.595 15.0779Z" fill="#9B3C07"/>
<path d="M19.1578 6.50391C19.0293 6.50391 18.9932 6.5615 18.978 6.58619C18.7514 6.95138 19.0622 8.26657 19.2287 8.9729C19.3495 9.48429 19.4179 9.78366 19.4179 9.98493C19.4179 10.333 19.2306 10.721 18.9938 11.2121C18.704 11.8128 18.3755 12.4938 18.3755 13.1495C18.3755 13.6128 18.535 14.1837 18.8628 14.8932C18.9432 15.0666 19.4647 15.2463 20.1995 15.2463L20.3464 15.247C20.7907 15.2514 21.2527 15.2546 21.4154 14.9539C21.6464 14.5261 21.7635 13.4932 21.7635 11.8837C21.7635 8.82986 20.0268 6.50391 19.1578 6.50391Z" fill="#D79E84"/>
</svg>
