<svg width="23" height="23" viewBox="0 0 23 23" fill="none" xmlns="http://www.w3.org/2000/svg">
<path d="M11.9028 22.2783H10.6559C6.54199 22.2783 2.55273 19.1251 2.55273 14.7112C2.55273 12.189 3.48755 10.9276 3.48755 10.9276C3.48755 10.9276 3.17615 9.66624 3.17615 8.40548C3.17615 4.62192 7.16541 1.46875 11.2793 1.46875C15.3933 1.46875 19.3825 5.2523 19.3825 8.40548C19.3825 9.66687 19.0711 10.9276 19.0711 10.9276C19.0711 10.9276 20.0059 12.189 20.0059 14.7112C20.0059 19.1251 16.0167 22.2783 11.9028 22.2783Z" fill="#BF6952"/>
<path d="M18.6634 9.85744C18.6634 7.44794 16.7096 5.49414 14.3001 5.49414C13.1267 5.49414 12.0634 5.95997 11.2792 6.71313C10.495 5.95933 9.43174 5.49414 8.25832 5.49414C5.84882 5.49414 3.89502 7.44794 3.89502 9.85744C3.89502 11.3188 4.61654 12.6094 5.71908 13.4011C5.40958 14.1682 5.23743 15.0125 5.23743 15.8986C5.23743 19.4208 7.9425 21.6043 11.2786 21.6043C14.6147 21.6043 17.3197 19.4208 17.3197 15.8986C17.3197 15.0119 17.1476 14.1682 16.8381 13.4011C17.9419 12.6094 18.6634 11.3188 18.6634 9.85744Z" fill="#D79E84"/>
<path d="M8.11446 12.7819C8.81356 12.7819 9.38029 11.9318 9.38029 10.8831C9.38029 9.83447 8.81356 8.98438 8.11446 8.98438C7.41536 8.98438 6.84863 9.83447 6.84863 10.8831C6.84863 11.9318 7.41536 12.7819 8.11446 12.7819Z" fill="#292F33"/>
<path d="M14.444 12.7819C15.1431 12.7819 15.7099 11.9318 15.7099 10.8831C15.7099 9.83447 15.1431 8.98438 14.444 8.98438C13.745 8.98438 13.1782 9.83447 13.1782 10.8831C13.1782 11.9318 13.745 12.7819 14.444 12.7819Z" fill="#292F33"/>
<path d="M11.2796 20.065C12.998 20.065 14.4613 19.1915 15.0107 17.9706C15.2379 17.4656 14.8524 16.9004 14.2784 16.9004H8.28091C7.70685 16.9004 7.32141 17.4656 7.54863 17.9706C8.09799 19.1915 9.56129 20.065 11.2796 20.065Z" fill="#642116"/>
<path d="M10.3302 14.72C10.6797 14.72 10.9631 14.4193 10.9631 14.0485C10.9631 13.6776 10.6797 13.377 10.3302 13.377C9.98063 13.377 9.69727 13.6776 9.69727 14.0485C9.69727 14.4193 9.98063 14.72 10.3302 14.72Z" fill="#642116"/>
<path d="M12.2286 14.6818C12.5782 14.6818 12.8615 14.3985 12.8615 14.0489C12.8615 13.6994 12.5782 13.416 12.2286 13.416C11.8791 13.416 11.5957 13.6994 11.5957 14.0489C11.5957 14.3985 11.8791 14.6818 12.2286 14.6818Z" fill="#642116"/>
<path d="M13.9639 0.232484C13.9639 0.232484 10.6076 -0.439037 9.26517 1.57489C7.92276 3.58882 11.95 2.24641 11.95 2.24641C11.95 2.24641 12.6215 0.232484 13.9639 0.232484Z" fill="#BF6952"/>
<path d="M5.58311 20.3769C5.66222 20.794 6.71033 21.2687 6.71033 21.2687L6.21602 12.1484L4.9502 15.3155C4.9502 15.3155 5.50399 19.9592 5.58311 20.3769ZM16.9755 20.3769C16.8566 20.8339 15.8679 21.2491 15.8679 21.2491L16.3433 12.1484L17.6085 15.3155C17.6085 15.3155 17.0945 19.92 16.9755 20.3769Z" fill="#9B3C07"/>
<path d="M1.15283 22.9128H6.21614L5.57563 12.8919L3.04588 10.2539L1.15283 22.9128ZM21.406 22.9128H16.3427L16.9769 12.8919L19.5067 10.2539L21.406 22.9128Z" fill="#BF6952"/>
<path d="M19.259 9.64902C19.259 9.64902 19.3856 8.08193 20.0166 7.40725C20.8407 6.5256 21.8331 7.20851 21.7565 8.44522C21.478 12.93 20.4932 14.1623 19.2135 14.8984C17.9343 15.6351 16.1824 15.4971 14.3286 13.7136C12.4748 11.93 11.697 10.8313 11.4755 10.0446C11.254 9.25725 12.0805 8.61801 12.7856 9.01864C13.4198 9.37877 14.3742 10.4794 14.3742 10.4794C14.3742 10.4794 13.1419 8.77307 12.9672 8.11358C12.7255 7.20155 13.804 6.65724 14.3894 7.15978C14.9666 7.65535 16.1565 9.15725 16.1565 9.15725C16.1565 9.15725 15.14 7.59775 15.0464 6.84648C14.954 6.10471 15.8305 5.44901 16.6052 6.09585C17.3793 6.74332 18.6236 8.60915 19.259 9.64902ZM3.2995 9.64902C3.2995 9.64902 3.17292 8.08193 2.5419 7.40725C1.71785 6.5256 0.725443 7.20851 0.802025 8.44522C1.08051 12.93 2.06532 14.1623 3.34507 14.8984C4.62419 15.6351 6.37609 15.4971 8.22989 13.7136C10.0837 11.93 10.8615 10.8313 11.0831 10.0446C11.3046 9.25725 10.478 8.61801 9.77294 9.01864C9.13876 9.37877 8.18432 10.4794 8.18432 10.4794C8.18432 10.4794 9.41661 8.77307 9.59129 8.11358C9.83306 7.20155 8.75458 6.65724 8.16913 7.15978C7.59192 7.65535 6.40204 9.15725 6.40204 9.15725C6.40204 9.15725 7.4185 7.59775 7.51217 6.84648C7.60458 6.10471 6.72799 5.44901 5.95331 6.09585C5.17862 6.74269 3.93495 8.60915 3.2995 9.64902Z" fill="#D79E84"/>
<path d="M17.6604 15.6383C16.5021 15.6383 15.2718 15.063 14.1091 13.9446C12.3401 12.2434 11.4338 11.0674 11.1711 10.1332C11.0338 9.64526 11.1926 9.14969 11.5863 8.84146C11.961 8.54779 12.4483 8.49969 12.8749 8.71045C12.7755 8.51551 12.699 8.3383 12.6616 8.19779C12.5186 7.65918 12.7186 7.14336 13.1825 6.85222C13.642 6.56361 14.2097 6.59146 14.5958 6.9231C14.649 6.96931 14.7072 7.02247 14.768 7.08197C14.7515 7.01424 14.7388 6.94969 14.7313 6.88893C14.6699 6.39779 14.9256 5.90601 15.3667 5.66487C15.8268 5.41424 16.3648 5.48702 16.8066 5.85601C17.5154 6.44842 18.504 7.8883 19.0787 8.77438C19.1971 8.24653 19.4097 7.59462 19.7844 7.19336C20.2154 6.73196 20.7566 6.57817 21.2351 6.78386C21.7914 7.02374 22.1199 7.6845 22.0711 8.46678C21.7952 12.9168 20.8332 14.3333 19.3699 15.1757C18.8338 15.4858 18.2559 15.6383 17.6604 15.6383ZM12.33 9.21425C12.2053 9.21425 12.0825 9.25602 11.9762 9.33957C11.7857 9.48893 11.7123 9.72121 11.7793 9.96172C12.004 10.7592 12.9091 11.913 14.5471 13.4883C16.1129 14.9934 17.7129 15.3978 19.0553 14.6269C20.1047 14.0225 21.1534 13.0459 21.4401 8.42817C21.4762 7.84526 21.2376 7.47437 20.9844 7.36551C20.7597 7.26678 20.4965 7.36045 20.2471 7.62627C19.7933 8.11235 19.6072 9.27184 19.5743 9.67754C19.5629 9.81425 19.4654 9.92818 19.3319 9.95982C19.199 9.9921 19.0604 9.93324 18.9889 9.81678C18.3794 8.81995 17.149 6.96614 16.4015 6.34209C16.0724 6.06741 15.8021 6.14779 15.6705 6.22057C15.4547 6.33829 15.33 6.575 15.3597 6.81045C15.4294 7.36741 16.1496 8.57058 16.4218 8.98767C16.5142 9.12944 16.4787 9.31805 16.3414 9.41741C16.2053 9.51615 16.0135 9.4902 15.9085 9.35729C15.8964 9.34273 14.7306 7.87311 14.1825 7.40349C13.9844 7.2326 13.6983 7.27564 13.518 7.3883C13.4104 7.45602 13.1711 7.65412 13.2724 8.03577C13.4034 8.53007 14.2964 9.8364 14.63 10.2978C14.7287 10.4351 14.7028 10.6263 14.5699 10.7313C14.4376 10.8351 14.2452 10.8187 14.1344 10.6908C13.8793 10.3959 13.1104 9.57058 12.6293 9.29779C12.5325 9.24147 12.4306 9.21425 12.33 9.21425Z" fill="#BF6952"/>
<path d="M4.89825 15.6383C4.30204 15.6383 3.72482 15.4858 3.18685 15.1763C1.72419 14.3339 0.762158 12.9181 0.486208 8.46741C0.437474 7.68513 0.765956 7.02437 1.32292 6.7845C1.7976 6.57943 2.34128 6.73196 2.77292 7.19399C3.14761 7.59462 3.3609 8.24652 3.47925 8.77501C4.05394 7.88956 5.04128 6.44968 5.75141 5.85664C6.19382 5.48639 6.7318 5.41424 7.19066 5.66551C7.63243 5.90601 7.88813 6.39842 7.8261 6.88956C7.81851 6.95032 7.80585 7.01488 7.78939 7.0826C7.85079 7.0231 7.90838 6.96931 7.96218 6.92374C8.34699 6.59336 8.91598 6.56487 9.37484 6.85285C9.8394 7.14399 10.0394 7.65981 9.89699 8.19842C9.85965 8.33893 9.78307 8.51615 9.68433 8.71172C10.1097 8.50159 10.5976 8.54906 10.9717 8.84273C11.366 9.15096 11.5248 9.64653 11.3875 10.1345C11.1242 11.0699 10.2179 12.2453 8.44889 13.9459C7.28686 15.063 6.05648 15.6383 4.89825 15.6383ZM1.75646 7.32753C1.69317 7.32753 1.63241 7.34019 1.57292 7.36551C1.32039 7.47437 1.08178 7.84526 1.11786 8.42817C1.40457 13.0459 2.4533 14.0225 3.50267 14.6269C4.84508 15.3997 6.44445 14.9946 8.01028 13.4883C9.64826 11.9136 10.5533 10.7598 10.778 9.96172C10.8457 9.72121 10.7723 9.4883 10.5818 9.33957C10.39 9.18893 10.1457 9.17248 9.92864 9.29653C9.44699 9.57058 8.67864 10.3946 8.42294 10.6896C8.31155 10.8174 8.11914 10.8345 7.98749 10.7301C7.85522 10.625 7.82863 10.4339 7.92737 10.2965C8.26028 9.83514 9.15395 8.5288 9.2856 8.0345C9.38687 7.65285 9.14699 7.45475 9.0394 7.38703C8.85965 7.27374 8.57484 7.23007 8.37547 7.40222C7.828 7.87247 6.66217 9.34146 6.65078 9.35602C6.54572 9.48767 6.35521 9.51488 6.21787 9.41615C6.08053 9.31741 6.04508 9.12817 6.13749 8.9864C6.40901 8.56931 7.1299 7.36551 7.19889 6.80918C7.228 6.57374 7.10332 6.33703 6.88812 6.2193C6.75648 6.14778 6.48559 6.06677 6.15774 6.34082C5.50584 6.88513 4.35964 8.52374 3.56976 9.81552C3.49824 9.93261 3.36153 9.99147 3.22672 9.95855C3.09381 9.92691 2.99571 9.81298 2.98432 9.67628C2.95141 9.27058 2.76533 8.11108 2.31153 7.625C2.12672 7.42943 1.93558 7.32753 1.75646 7.32753Z" fill="#BF6952"/>
<path d="M16.3347 6.30126C16.3575 6.31771 16.3784 6.32341 16.4018 6.34303C17.1493 6.96708 18.3797 8.82088 18.9892 9.81772C19.0461 9.91013 19.1468 9.95063 19.2512 9.9538C19.3879 9.28797 19.424 8.50886 19.4195 7.76708C19.2632 8.09493 19.1506 8.45506 19.079 8.77531C18.5044 7.88923 17.5157 6.44936 16.8069 5.85695C16.3854 5.50442 15.8778 5.43163 15.4328 5.64176C15.8581 5.7848 16.1417 6.031 16.3347 6.30126ZM3.56887 9.81772C4.35874 8.52531 5.50495 6.88733 6.15685 6.34303C6.20052 6.30632 6.23976 6.29113 6.2809 6.26645C6.47014 6.01328 6.74356 5.78606 7.14103 5.64872C6.69293 5.42784 6.17774 5.49999 5.75052 5.85758C5.04039 6.45062 4.05241 7.8905 3.47836 8.77595C3.41127 8.47721 3.30937 8.1424 3.1695 7.83291C3.1676 8.55506 3.20558 9.30633 3.33722 9.95253C3.43089 9.93987 3.51824 9.90063 3.56887 9.81772Z" fill="#9B3C07"/>
</svg>
