<svg width="23" height="24" viewBox="0 0 23 24" fill="none" xmlns="http://www.w3.org/2000/svg">
<path d="M4.70842 14.2561C5.95423 13.9385 6.59075 12.2162 6.13014 10.4091C5.66952 8.60207 4.2862 7.39458 3.0404 7.71213C1.79459 8.02968 1.15807 9.75202 1.61868 11.5591C2.0793 13.3661 3.46262 14.5736 4.70842 14.2561Z" fill="#D79E84"/>
<path d="M21.5725 11.5596C22.0331 9.75257 21.3966 8.03023 20.1508 7.71268C18.905 7.39513 17.5217 8.60261 17.0611 10.4097C16.6005 12.2167 17.237 13.9391 18.4828 14.2566C19.7286 14.5742 21.1119 13.3667 21.5725 11.5596Z" fill="#D79E84"/>
<path d="M12.2187 22.3799H10.9718C6.8579 22.3799 2.86865 19.2267 2.86865 14.8128C2.86865 12.2906 3.80347 11.0292 3.80347 11.0292C3.80347 11.0292 3.49207 9.7678 3.49207 8.50704C3.49207 4.72349 7.48132 1.57031 11.5953 1.57031C15.7092 1.57031 19.6984 5.35387 19.6984 8.50704C19.6984 9.76844 19.3871 11.0292 19.3871 11.0292C19.3871 11.0292 20.3219 12.2906 20.3219 14.8128C20.3219 19.2267 16.3326 22.3799 12.2187 22.3799Z" fill="#BF6952"/>
<path d="M18.9798 9.95901C18.9798 7.54951 17.026 5.5957 14.6165 5.5957C13.4431 5.5957 12.3798 6.06153 11.5956 6.81469C10.8114 6.06089 9.74815 5.5957 8.57473 5.5957C6.16523 5.5957 4.21143 7.54951 4.21143 9.95901C4.21143 11.4204 4.93295 12.7109 6.03548 13.5027C5.72599 14.2698 5.55383 15.1141 5.55383 16.0002C5.55383 19.5223 8.25891 21.7059 11.595 21.7059C14.9311 21.7059 17.6361 19.5223 17.6361 16.0002C17.6361 15.1135 17.464 14.2698 17.1545 13.5027C18.2583 12.7109 18.9798 11.4204 18.9798 9.95901Z" fill="#D79E84"/>
<path d="M8.43087 12.8834C9.12996 12.8834 9.69669 12.0333 9.69669 10.9847C9.69669 9.93603 9.12996 9.08594 8.43087 9.08594C7.73177 9.08594 7.16504 9.93603 7.16504 10.9847C7.16504 12.0333 7.73177 12.8834 8.43087 12.8834Z" fill="#292F33"/>
<path d="M14.76 12.8834C15.4591 12.8834 16.0258 12.0333 16.0258 10.9847C16.0258 9.93603 15.4591 9.08594 14.76 9.08594C14.0609 9.08594 13.4941 9.93603 13.4941 10.9847C13.4941 12.0333 14.0609 12.8834 14.76 12.8834Z" fill="#292F33"/>
<path d="M11.5956 20.1665C13.3139 20.1665 14.7772 19.2931 15.3266 18.0722C15.5538 17.5671 15.1684 17.002 14.5943 17.002H8.59682C8.02277 17.002 7.63733 17.5671 7.86454 18.0722C8.41391 19.2931 9.87721 20.1665 11.5956 20.1665Z" fill="#642116"/>
<path d="M10.6461 14.8216C10.9956 14.8216 11.279 14.5209 11.279 14.15C11.279 13.7792 10.9956 13.4785 10.6461 13.4785C10.2965 13.4785 10.0132 13.7792 10.0132 14.15C10.0132 14.5209 10.2965 14.8216 10.6461 14.8216Z" fill="#642116"/>
<path d="M12.545 14.7834C12.8946 14.7834 13.1779 14.5 13.1779 14.1505C13.1779 13.8009 12.8946 13.5176 12.545 13.5176C12.1955 13.5176 11.9121 13.8009 11.9121 14.1505C11.9121 14.5 12.1955 14.7834 12.545 14.7834Z" fill="#642116"/>
<path d="M14.2804 0.334046C14.2804 0.334046 10.924 -0.337474 9.58163 1.67646C8.23922 3.69038 12.2664 2.34798 12.2664 2.34798C12.2664 2.34798 12.938 0.334046 14.2804 0.334046ZM22.988 23.0113L14.1272 20.4797L16.026 16.6822L22.988 17.948V23.0113ZM0.203125 23.0113L9.06391 20.4797L7.16517 16.6822L0.203125 17.948V23.0113Z" fill="#BF6952"/>
<path d="M8.03127 16.0491C8.03127 16.0491 8.10596 15.2516 8.09077 14.3282C8.07115 13.1219 6.45658 12.5231 5.95468 13.656C5.34139 15.0408 4.56987 18.3636 5.02493 19.7674C5.48 21.1712 6.62684 22.2795 9.19836 22.2004C11.7699 22.1212 14.0047 21.6269 14.6971 21.1915C15.3895 20.7561 15.2319 19.6864 14.4402 19.5105C13.7281 19.3523 11.7699 19.6687 11.7699 19.6687C11.7699 19.6687 13.8288 19.2295 14.4003 18.8579C15.1914 18.344 14.756 17.2162 13.9851 17.1965C13.2243 17.1769 11.3344 17.4934 11.3344 17.4934C11.3344 17.4934 13.1344 17.0187 13.7079 16.5244C14.2743 16.0364 14.0636 14.9617 13.0553 14.9225C12.0471 14.8833 8.98064 15.5345 8.03127 16.0491Z" fill="#D79E84"/>
<path d="M8.94064 22.5245C6.71279 22.5245 5.29506 21.6314 4.72417 19.8688C4.21404 18.2947 5.0786 14.8567 5.66531 13.5314C5.92987 12.9327 6.4881 12.6384 7.11912 12.7688C7.74886 12.896 8.39317 13.4719 8.40709 14.327C8.41469 14.7979 8.40013 15.2333 8.38304 15.5529C9.68431 15.0631 12.159 14.5662 13.0672 14.6093C13.6438 14.632 14.0913 14.9396 14.2634 15.4333C14.4299 15.908 14.2894 16.4447 13.9141 16.7675C13.8679 16.8067 13.8153 16.8466 13.7577 16.8859C13.8432 16.8833 13.9229 16.8827 13.9926 16.884C14.5008 16.8972 14.9407 17.2567 15.0881 17.7789C15.2369 18.3067 15.0394 18.8232 14.5723 19.127C14.5375 19.1498 14.4989 19.1719 14.4552 19.1947L14.5077 19.2055C14.9932 19.3137 15.347 19.6884 15.4331 20.184C15.5204 20.6897 15.297 21.1922 14.8647 21.4631C14.1489 21.9137 11.9229 22.4371 9.20773 22.5207C9.11722 22.5226 9.02798 22.5245 8.94064 22.5245ZM6.84063 13.3732C6.65456 13.3732 6.3957 13.4434 6.2438 13.7871C5.60202 15.2365 4.91911 18.4162 5.32607 19.6732C5.82987 21.2276 7.09443 21.9618 9.18874 21.8871C11.6647 21.8112 13.8875 21.3295 14.5286 20.927C14.7881 20.7631 14.8445 20.4909 14.8096 20.2903C14.7679 20.0492 14.6039 19.8745 14.371 19.8226C13.8343 19.7036 12.3482 19.8991 11.8198 19.984C11.6514 20.0156 11.49 19.8992 11.4584 19.7302C11.4267 19.5612 11.5356 19.3985 11.7033 19.3624C12.2603 19.2435 13.7995 18.8745 14.2274 18.596C14.5584 18.3808 14.5134 18.0726 14.4786 17.9498C14.421 17.746 14.2394 17.5226 13.9761 17.5156C13.2331 17.4846 11.4046 17.8048 11.3862 17.808C11.2179 17.8371 11.0603 17.7276 11.0248 17.5624C10.9894 17.3966 11.09 17.2327 11.2533 17.1897C11.7343 17.0624 13.0761 16.6523 13.5008 16.2865C13.6799 16.1321 13.747 15.8719 13.666 15.6403C13.616 15.4979 13.4685 15.2574 13.0425 15.2403C12.1236 15.2023 9.09001 15.8377 8.18178 16.3295C8.07798 16.3846 7.9533 16.3802 7.85646 16.3156C7.75899 16.251 7.70456 16.139 7.71532 16.0219C7.71595 16.0143 7.78811 15.2302 7.77355 14.3358C7.76532 13.8162 7.37418 13.465 6.99253 13.3877C6.95393 13.3801 6.90139 13.3732 6.84063 13.3732Z" fill="#BF6952"/>
<path d="M15.1594 16.0491C15.1594 16.0491 15.0847 15.2516 15.0999 14.3282C15.1195 13.1219 16.7341 12.5231 17.236 13.656C17.8493 15.0408 18.6208 18.3636 18.1657 19.7674C17.7107 21.1712 16.5638 22.2795 13.9923 22.2004C11.4208 22.1212 9.18596 21.6269 8.49356 21.1915C7.80115 20.7561 7.95875 19.6864 8.75052 19.5105C9.46255 19.3523 11.4208 19.6687 11.4208 19.6687C11.4208 19.6687 9.36191 19.2295 8.79039 18.8579C7.99925 18.344 8.4347 17.2162 9.20558 17.1965C9.96635 17.1769 11.8562 17.4934 11.8562 17.4934C11.8562 17.4934 10.0562 17.0187 9.4828 16.5244C8.91634 16.0364 9.1271 14.9617 10.1353 14.9225C11.1436 14.8833 14.21 15.5345 15.1594 16.0491Z" fill="#D79E84"/>
<path d="M14.2496 22.5251C14.1617 22.5251 14.0731 22.5232 13.9819 22.5207C11.2667 22.4371 9.04077 21.9137 8.32495 21.4631C7.89267 21.1916 7.66925 20.689 7.75722 20.184C7.84267 19.6884 8.1971 19.3137 8.68191 19.2055L8.73444 19.1947C8.69203 19.1719 8.65279 19.1498 8.61798 19.127C8.15026 18.8238 7.95279 18.3067 8.10216 17.7789C8.24963 17.2567 8.69014 16.8966 9.19773 16.884C9.26799 16.8827 9.3471 16.8833 9.43254 16.8859C9.37495 16.8466 9.32242 16.8074 9.27558 16.7675C8.9009 16.4441 8.76039 15.908 8.92621 15.4333C9.09836 14.9403 9.54583 14.632 10.1224 14.6093C11.0294 14.5782 13.506 15.0637 14.8066 15.5529C14.7902 15.2333 14.775 14.7985 14.7826 14.327C14.7965 13.4726 15.4408 12.896 16.0699 12.7688C16.7053 12.6384 17.2591 12.9327 17.5243 13.5314C18.1117 14.8567 18.9756 18.2941 18.4655 19.8688C17.8952 21.6314 16.4775 22.5245 14.2496 22.5251ZM9.29773 19.7852C9.10533 19.7852 8.93887 19.7966 8.81988 19.8232C8.58697 19.8751 8.42305 20.0498 8.38127 20.2909C8.34646 20.4909 8.40216 20.7637 8.66229 20.9276C9.3028 21.3302 11.5262 21.8112 14.0022 21.8878C16.0908 21.9517 17.3617 21.2283 17.8648 19.6738C18.2724 18.4175 17.5883 15.2371 16.9471 13.7877C16.7452 13.332 16.3566 13.3567 16.1971 13.389C15.8155 13.4662 15.425 13.8175 15.4167 14.3371C15.4028 15.2314 15.4743 16.0156 15.475 16.0238C15.4857 16.1403 15.4319 16.2523 15.3338 16.3169C15.2364 16.3821 15.1104 16.3865 15.0085 16.3308C14.1003 15.8396 11.0927 15.2004 10.1477 15.2415C9.72115 15.258 9.57368 15.4991 9.52432 15.6415C9.44394 15.8726 9.50976 16.1327 9.68951 16.2877C10.1142 16.6542 11.456 17.0643 11.937 17.1909C12.1003 17.234 12.2009 17.3979 12.1655 17.5637C12.1294 17.7289 11.968 17.8359 11.8034 17.8093C11.7844 17.8061 9.92875 17.4972 9.21356 17.5169C8.95026 17.5238 8.76798 17.7466 8.71039 17.951C8.67558 18.0732 8.63128 18.3821 8.96229 18.5972C9.39077 18.8751 10.9294 19.2447 11.4863 19.3637C11.6541 19.3998 11.7629 19.5624 11.7313 19.7314C11.6996 19.9004 11.5376 20.0143 11.3699 19.9852C10.9598 19.9181 9.96925 19.7852 9.29773 19.7852Z" fill="#BF6952"/>
<path d="M6.30605 13.6865C6.12251 13.5606 5.95099 13.4315 5.79403 13.2986C5.74593 13.3701 5.70226 13.446 5.66491 13.5302C5.3282 14.2903 4.90352 15.7435 4.69592 17.1429L3.33643 17.4277L5.2339 17.984L5.332 17.1815C5.51934 15.9327 5.8858 14.5922 6.24276 13.7859C6.26175 13.7448 6.2858 13.7201 6.30605 13.6865ZM18.5042 17.2043C18.3004 15.7865 17.8668 14.3011 17.5251 13.5302C17.4865 13.4422 17.4396 13.3631 17.3884 13.2891C17.2276 13.4258 17.0618 13.5574 16.889 13.684C16.9086 13.7163 16.9289 13.7473 16.9466 13.7859C17.382 14.7694 17.8358 16.5492 17.9555 17.9846L19.8675 17.4277L18.5042 17.2043Z" fill="#9B3C07"/>
</svg>
