<svg width="24" height="21" viewBox="0 0 24 21" fill="none" xmlns="http://www.w3.org/2000/svg">
<path d="M22.7007 12.3611C23.0881 12.0725 23.3425 11.6156 23.3425 11.0953C23.3425 10.413 22.9077 9.83644 22.302 9.61429C22.5526 9.33455 22.7096 8.96872 22.7096 8.56366C22.7096 7.6896 22.0013 6.98137 21.1273 6.98137L21.1197 6.98201C21.3203 6.71682 21.4438 6.39023 21.4438 6.032C21.4438 5.15795 20.7355 4.44972 19.8615 4.44972C19.4697 4.44972 19.1165 4.59719 18.8399 4.83263C17.0804 2.68579 14.6058 1.28516 11.9501 1.28516C9.23232 1.28516 6.70384 2.5706 4.93801 4.732C4.68231 4.55479 4.37345 4.44972 4.03864 4.44972C3.16459 4.44972 2.45636 5.15795 2.45636 6.032C2.45636 6.39023 2.57977 6.71682 2.78041 6.98201L2.77281 6.98137C1.89876 6.98137 1.19053 7.6896 1.19053 8.56366C1.19053 8.96872 1.34749 9.33455 1.59813 9.61429C0.992429 9.83644 0.557617 10.413 0.557617 11.0953C0.557617 11.6156 0.812048 12.0725 1.19939 12.3611C0.812048 12.6497 0.557617 13.1067 0.557617 13.627C0.557617 14.3092 0.992429 14.8858 1.59813 15.108C1.34749 15.3877 1.19053 15.7535 1.19053 16.1586C1.19053 16.9377 1.75509 17.582 2.49623 17.713C2.47155 17.8244 2.45636 17.939 2.45636 18.0574C2.45636 18.9314 3.16459 19.6396 4.03864 19.6396C4.4437 19.6396 4.80953 19.4827 5.08927 19.232C5.31143 19.8377 5.88801 20.2725 6.57029 20.2725C6.97536 20.2725 7.34118 20.1156 7.62093 19.865C7.84308 20.4707 8.41966 20.9055 9.10194 20.9055C9.87979 20.9055 10.5228 20.3434 10.6557 19.6042C11.0817 19.6257 11.5121 19.6396 11.9501 19.6396C12.3874 19.6396 12.8171 19.62 13.2431 19.5903C13.3703 20.3365 14.0159 20.9055 14.7982 20.9055C15.4804 20.9055 16.057 20.4707 16.2792 19.865C16.5589 20.1156 16.9247 20.2725 17.3298 20.2725C18.0121 20.2725 18.5887 19.8377 18.8108 19.232C19.0906 19.4827 19.4564 19.6396 19.8615 19.6396C20.7355 19.6396 21.4438 18.9314 21.4438 18.0574C21.4438 17.939 21.4286 17.8244 21.4039 17.713C22.145 17.582 22.7096 16.9377 22.7096 16.1586C22.7096 15.7535 22.5526 15.3877 22.302 15.108C22.9077 14.8858 23.3425 14.3092 23.3425 13.627C23.3425 13.1067 23.0881 12.6497 22.7007 12.3611Z" fill="#FFAC33"/>
<path d="M4.35498 11.1381C4.35498 5.74188 7.75562 1.36719 11.9499 1.36719C16.1443 1.36719 19.5449 5.74188 19.5449 11.1381C19.5449 16.5343 16.1443 20.909 11.9499 20.909C7.75562 20.909 4.35498 16.5343 4.35498 11.1381Z" fill="#FFDC5D"/>
<path d="M11.9498 18.3731C10.4643 18.3731 9.68712 17.6389 9.60357 17.5548C9.3561 17.3073 9.3561 16.9073 9.60357 16.6598C9.84851 16.4149 10.2447 16.413 10.4922 16.6535C10.5245 16.6832 11.0023 17.1073 11.9498 17.1073C12.9112 17.1073 13.3884 16.6706 13.4086 16.6522C13.6605 16.4162 14.0586 16.4231 14.2998 16.6706C14.5397 16.9193 14.5403 17.3105 14.296 17.5548C14.2124 17.6389 13.4352 18.3731 11.9498 18.3731Z" fill="#DF1F32"/>
<path d="M12.5828 15.2092H11.317C10.9676 15.2092 10.6841 14.9263 10.6841 14.5763C10.6841 14.2263 10.9676 13.9434 11.317 13.9434H12.5828C12.9328 13.9434 13.2157 14.2263 13.2157 14.5763C13.2157 14.9263 12.9328 15.2092 12.5828 15.2092Z" fill="#C1694F"/>
<path d="M8.78526 13.309C8.43589 13.309 8.15234 13.0261 8.15234 12.6761V11.4103C8.15234 11.0609 8.43589 10.7773 8.78526 10.7773C9.13462 10.7773 9.41817 11.0609 9.41817 11.4103V12.6761C9.41817 13.0261 9.13462 13.309 8.78526 13.309ZM15.1144 13.309C14.7644 13.309 14.4815 13.0261 14.4815 12.6761V11.4103C14.4815 11.0609 14.7644 10.7773 15.1144 10.7773C15.4644 10.7773 15.7473 11.0609 15.7473 11.4103V12.6761C15.7473 13.0261 15.4644 13.309 15.1144 13.309Z" fill="#662113"/>
<path d="M19.4251 5.32144C19.8795 4.97461 20.1776 4.43283 20.1776 3.81701C20.1776 2.76827 19.3276 1.91827 18.2789 1.91827C18.0289 1.91827 17.7916 1.96954 17.5726 2.05751C17.3542 1.24991 16.6238 0.652444 15.7472 0.652444C15.4074 0.652444 15.0928 0.74928 14.8169 0.90561C14.4802 0.374596 13.8909 0.0195312 13.2156 0.0195312C12.727 0.0195312 12.2865 0.209405 11.9498 0.512571C11.6131 0.209405 11.1725 0.0195312 10.6839 0.0195312C10.0086 0.0195312 9.41938 0.374596 9.08267 0.90561C8.80672 0.74928 8.49216 0.652444 8.15229 0.652444C7.2757 0.652444 6.54532 1.24991 6.32696 2.05751C6.10798 1.96954 5.87063 1.91827 5.62063 1.91827C4.5719 1.91827 3.72189 2.76827 3.72189 3.81701C3.72189 4.47524 4.05671 5.05436 4.56557 5.39486C3.7681 6.55562 3.26746 7.71196 3.00987 8.48474C2.29784 10.6208 4.79911 15.7113 4.55228 13.1917C4.25607 10.1613 5.33456 7.5493 7.5295 6.75752C7.58709 7.93727 8.689 8.88031 10.051 8.88031C10.8371 8.88031 11.5314 8.56006 11.9953 8.06765C12.2099 9.24867 13.2384 10.1461 14.4814 10.1461C15.2884 10.1461 15.9985 9.76133 16.4624 9.17335C16.6903 10.0987 17.4131 10.7791 18.2789 10.7791C19.3276 10.7791 20.1776 9.78728 20.1776 8.56386C20.1776 8.36259 20.1473 8.17082 20.1042 7.98538C20.1479 7.87335 20.1776 7.75246 20.1776 7.61449C20.1776 7.02461 19.9327 6.19107 19.4251 5.32144Z" fill="#FFAC33"/>
</svg>
