<svg width="20" height="24" viewBox="0 0 20 24" fill="none" xmlns="http://www.w3.org/2000/svg">
<path d="M3.89894 12.7856C3.89894 14.1837 3.19071 15.3172 2.31666 15.3172C1.4426 15.3172 0.734375 14.1837 0.734375 12.7856C0.734375 11.3875 1.4426 10.2539 2.31666 10.2539C3.19071 10.2539 3.89894 11.3875 3.89894 12.7856ZM19.7218 12.7856C19.7218 14.1837 19.0135 15.3172 18.1395 15.3172C17.2654 15.3172 16.5572 14.1837 16.5572 12.7856C16.5572 11.3875 17.2654 10.2539 18.1395 10.2539C19.0135 10.2539 19.7218 11.3875 19.7218 12.7856Z" fill="#FFDC5D"/>
<path d="M2 13.7748C2 8.3786 5.68355 4.00391 10.2279 4.00391C14.7722 4.00391 18.4557 8.3786 18.4557 13.7748C18.4557 19.171 14.7722 23.5457 10.2279 23.5457C5.68355 23.5457 2 19.171 2 13.7748Z" fill="#FFDC5D"/>
<path d="M7.06358 13.4223C6.71421 13.4223 6.43066 13.1394 6.43066 12.7894V11.5235C6.43066 11.1742 6.71421 10.8906 7.06358 10.8906C7.41295 10.8906 7.69649 11.1742 7.69649 11.5235V12.7894C7.69649 13.1394 7.41295 13.4223 7.06358 13.4223ZM13.3927 13.4223C13.0427 13.4223 12.7598 13.1394 12.7598 12.7894V11.5235C12.7598 11.1742 13.0427 10.8906 13.3927 10.8906C13.7427 10.8906 14.0256 11.1742 14.0256 11.5235V12.7894C14.0256 13.1394 13.7427 13.4223 13.3927 13.4223Z" fill="#662113"/>
<path d="M10.8607 15.9514H9.59483C9.24546 15.9514 8.96191 15.6685 8.96191 15.3185C8.96191 14.9685 9.24546 14.6855 9.59483 14.6855H10.8607C11.2107 14.6855 11.4936 14.9685 11.4936 15.3185C11.4936 15.6685 11.2107 15.9514 10.8607 15.9514Z" fill="#C1694F"/>
<path d="M14.8323 17.8744L12.7475 17.2789C12.7494 17.2573 12.7601 17.239 12.7601 17.2175C12.7601 16.8675 12.4772 16.5845 12.1272 16.5845H8.32972C7.98035 16.5845 7.69681 16.8675 7.69681 17.2175C7.69681 17.239 7.70693 17.2573 7.70883 17.2789L5.62402 17.8744C5.28794 17.9706 5.09364 18.3213 5.18984 18.6567C5.26895 18.9352 5.52212 19.1162 5.79807 19.1162C5.85566 19.1162 5.91452 19.108 5.97212 19.0921L7.19427 18.7428C7.05757 18.9282 7.02086 19.1782 7.13098 19.3991C7.24174 19.6213 7.46516 19.7491 7.69744 19.7491C7.79238 19.7491 7.88921 19.7276 7.97972 19.6827L8.97782 19.1839C9.00061 19.3903 9.11263 19.5833 9.31263 19.6827C9.40314 19.7276 9.49998 19.7491 9.59491 19.7491C9.82719 19.7491 10.0506 19.6213 10.162 19.3991L10.2285 19.2656L10.2949 19.3991C10.4063 19.6213 10.6297 19.7491 10.862 19.7491C10.9569 19.7491 11.0538 19.7276 11.1443 19.6827C11.3437 19.5833 11.4563 19.3903 11.4791 19.1839L12.4766 19.6827C12.5677 19.7276 12.6645 19.7491 12.7595 19.7491C12.9918 19.7491 13.2152 19.6213 13.3266 19.3991C13.4367 19.1782 13.4 18.9282 13.2633 18.7428L14.4854 19.0921C14.543 19.108 14.6013 19.1162 14.6595 19.1162C14.9342 19.1162 15.188 18.9352 15.2677 18.6567C15.3633 18.3213 15.169 17.9706 14.8323 17.8744ZM10.2285 0.761719C15.681 0.761719 19.0892 4.78578 19.0892 8.13895C19.0892 11.4921 18.4076 12.8333 17.726 11.4921L16.3633 8.80984C16.3633 8.80984 12.2734 8.80984 10.9107 7.46807C10.9107 7.46807 12.9551 11.4921 8.8658 7.46807C8.8658 7.46807 9.54745 10.151 5.45756 6.79718C5.45756 6.79718 3.41325 8.13895 2.73097 11.4915C2.54173 12.4219 1.36768 11.4921 1.36768 8.13895C1.36768 4.78515 4.09427 0.761719 10.2285 0.761719Z" fill="#FFAC33"/>
</svg>
