<svg width="23" height="19" viewBox="0 0 23 19" fill="none" xmlns="http://www.w3.org/2000/svg">
<path d="M10.1497 18.0099C10.1497 18.0099 11.6649 17.8783 12.0915 16.8757C12.5326 15.8384 11.6978 15.4143 11.6978 15.4143C11.6978 15.4143 12.9092 15.4517 13.3573 14.1858C13.7801 12.9928 12.751 12.4453 12.751 12.4453C12.751 12.4453 13.9352 12.251 14.2808 10.9947C14.5713 9.9371 13.5421 9.14913 13.5421 9.14913H21.2687C21.8757 9.14913 22.8985 8.80609 22.8991 7.53963C22.9004 6.2738 21.8491 5.98456 21.2687 5.98456H8.29403C7.66111 5.98456 7.66111 5.35165 8.29403 5.35165H9.98137C12.3814 5.35165 13.8694 4.06177 14.2801 3.6105C14.6915 3.15924 14.8997 2.55544 14.7447 1.82569C14.482 0.587709 13.5295 0.857963 12.7213 1.2086C10.7731 2.0548 7.99719 2.63518 6.68453 2.81177C2.97692 3.3124 0.118057 6.48836 0.114259 10.3333C0.111728 14.527 3.46743 18.0067 7.66111 18.0099H10.1497Z" fill="#FFDC5D"/>
</svg>
