<svg width="23" height="23" viewBox="0 0 23 23" fill="none" xmlns="http://www.w3.org/2000/svg">
<path d="M21.7996 10.1266C21.7996 15.7178 17.2641 20.2532 11.673 20.2532C6.08058 20.2532 1.54639 15.7178 1.54639 10.1266C1.54639 4.53419 6.08058 0 11.673 0C17.2641 0 21.7996 4.53419 21.7996 10.1266Z" fill="#FFCC4D"/>
<path d="M16.6483 10.2103C16.5533 10.1084 16.4116 10.1021 16.3097 10.1919C16.2888 10.2103 14.2191 12.0274 11.6729 12.0274C9.13306 12.0274 7.0571 10.2103 7.03622 10.1919C6.93369 10.1021 6.79255 10.1097 6.69761 10.2103C6.60331 10.3116 6.58242 10.4787 6.64761 10.6078C6.71596 10.7438 8.36217 13.9261 11.6729 13.9261C14.9837 13.9261 16.6305 10.7438 16.6983 10.6078C16.7635 10.478 16.7426 10.3116 16.6483 10.2103Z" fill="#664500"/>
<path d="M8.75701 14.6571L7.78296 13.2526C7.78296 13.2526 7.43928 12.7039 6.88992 13.047C6.34118 13.3894 6.68485 13.9387 6.68485 13.9387L7.79751 16.078C7.79751 16.078 7.88865 16.5641 7.2165 16.0204C6.92346 15.7837 7.09181 15.9172 7.09181 15.9172L6.81333 15.6887L3.33801 12.8356C3.33801 12.8356 2.88927 12.3621 2.47788 12.8621C2.06775 13.3628 2.61902 13.7109 2.61902 13.7109L5.90574 16.4109C5.82979 16.4868 5.60067 16.7489 5.52599 16.8305L2.00889 13.9444C2.00889 13.9444 1.55952 13.4704 1.14939 13.9704C0.738 14.471 1.2899 14.8191 1.2899 14.8191L4.80573 17.7065C4.74054 17.7951 4.57599 18.0077 4.51523 18.0951L1.48231 15.6052C1.48231 15.6052 1.03294 15.1318 0.62281 15.6318C0.210784 16.1324 0.763317 16.4811 0.763317 16.4811L3.98738 19.1292C3.94687 19.2419 3.75763 19.5381 3.72788 19.6482L1.40382 17.7419C1.40382 17.7419 0.95509 17.266 0.544962 17.7679C0.133568 18.2685 0.685469 18.6166 0.685469 18.6166L4.43864 21.6976L4.68864 21.9039C6.34688 23.2653 8.79562 23.0248 10.157 21.3666C11.4045 19.8457 11.307 17.6622 10.0051 16.2596C9.54372 15.7647 9.14435 15.2134 8.75701 14.6571ZM22.8014 17.7685C22.3912 17.2666 21.9425 17.7425 21.9425 17.7425L19.6184 19.6489C19.5887 19.5387 19.3994 19.2419 19.3589 19.1299L22.583 16.4818C22.583 16.4818 23.1355 16.133 22.7241 15.6324C22.314 15.1324 21.8646 15.6058 21.8646 15.6058L18.8317 18.0957C18.771 18.0077 18.6058 17.7951 18.5412 17.7071L22.057 14.8197C22.057 14.8197 22.6096 14.4716 22.1982 13.971C21.7881 13.471 21.3393 13.9451 21.3393 13.9451L17.8216 16.8311C17.7475 16.7495 17.5184 16.4875 17.4418 16.4115L20.7286 13.7115C20.7286 13.7115 21.2792 13.3634 20.8697 12.8628C20.4583 12.3628 20.0096 12.8362 20.0096 12.8362L16.5342 15.6894L16.2564 15.9178C16.2564 15.9178 16.883 15.3856 16.1317 16.021C15.3798 16.6565 15.5507 16.0786 15.5507 16.0786L16.6634 13.9394C16.6634 13.9394 17.007 13.39 16.4583 13.0476C15.9083 12.7045 15.5653 13.2533 15.5653 13.2533L14.5918 14.6577C14.2039 15.214 13.8045 15.7653 13.3425 16.2609C12.0399 17.6641 11.9425 19.847 13.1912 21.3679C14.552 23.0261 17.0013 23.2666 18.6596 21.9052L18.9102 21.6989L22.6634 18.6179C22.6602 18.6172 23.2121 18.2691 22.8014 17.7685Z" fill="#F4900C"/>
<path d="M17.7975 6.95243C17.7653 6.87522 16.9842 5.06445 15.3792 5.06445C13.7754 5.06445 12.9944 6.87522 12.9621 6.95243C12.9114 7.07142 12.9444 7.2094 13.0399 7.29167C13.1342 7.37269 13.2709 7.37522 13.3709 7.29927C13.3773 7.29357 14.0551 6.78281 15.3792 6.78281C16.695 6.78281 17.3722 7.28724 17.388 7.29927C17.4355 7.33661 17.4925 7.3556 17.5494 7.3556C17.6096 7.3556 17.6691 7.33408 17.7184 7.29294C17.8153 7.21129 17.8482 7.07142 17.7975 6.95243ZM10.8355 6.95243C10.8026 6.87522 10.0222 5.06445 8.41713 5.06445C6.81333 5.06445 6.03232 6.87522 5.99941 6.95243C5.94941 7.07142 5.98168 7.2094 6.07789 7.29167C6.17282 7.37269 6.30953 7.37522 6.4089 7.29927C6.41586 7.29357 7.09308 6.78281 8.41713 6.78281C9.73359 6.78281 10.4102 7.28724 10.4254 7.29927C10.4735 7.33661 10.5298 7.3556 10.5868 7.3556C10.6469 7.3556 10.7064 7.33408 10.7557 7.29294C10.8532 7.21129 10.8855 7.07142 10.8355 6.95243Z" fill="#664500"/>
<path d="M7.35739 16.123C7.35739 16.123 5.71625 18.2205 7.66372 20.8446C7.7979 21.025 8.1384 20.937 7.99347 20.7256C7.83524 20.4952 6.25296 18.2598 7.7403 16.2591C7.7403 16.2591 7.49916 16.2294 7.35739 16.123ZM15.9542 16.1851C15.9542 16.1851 17.596 18.2825 15.6479 20.9066C15.5137 21.087 15.1732 20.999 15.3182 20.7876C15.4764 20.5572 17.0587 18.3218 15.5713 16.3211C15.5707 16.3218 15.8125 16.292 15.9542 16.1851Z" fill="#B55005"/>
</svg>
