<svg width="23" height="23" viewBox="0 0 23 23" fill="none" xmlns="http://www.w3.org/2000/svg">
<path d="M0.114258 11.3924C0.114258 5.10065 5.2149 0 11.5067 0C17.7985 0 22.8991 5.10065 22.8991 11.3924C22.8991 17.6842 17.7985 22.7849 11.5067 22.7849C5.2149 22.7849 0.114258 17.6842 0.114258 11.3924Z" fill="#FFCC4D"/>
<path d="M5.5988 8.14357C5.71145 8.24547 5.87981 8.2518 6.0007 8.16192C6.02538 8.14357 8.48298 6.32647 11.507 6.32647C14.5235 6.32647 16.9893 8.14357 17.0134 8.16192C17.1343 8.2518 17.3026 8.2442 17.4153 8.14357C17.5273 8.0423 17.5526 7.87521 17.4748 7.7461C17.3931 7.61065 15.4387 4.42773 11.507 4.42773C7.57538 4.42773 5.62031 7.61002 5.5393 7.7461C5.46145 7.87584 5.48614 8.0423 5.5988 8.14357Z" fill="#664500"/>
<path d="M7.39283 15.821C8.2667 15.821 8.97511 14.8292 8.97511 13.6058C8.97511 12.3824 8.2667 11.3906 7.39283 11.3906C6.51896 11.3906 5.81055 12.3824 5.81055 13.6058C5.81055 14.8292 6.51896 15.821 7.39283 15.821Z" fill="#664500"/>
<path d="M15.6209 15.821C16.4947 15.821 17.2031 14.8292 17.2031 13.6058C17.2031 12.3824 16.4947 11.3906 15.6209 11.3906C14.747 11.3906 14.0386 12.3824 14.0386 13.6058C14.0386 14.8292 14.747 15.821 15.6209 15.821Z" fill="#664500"/>
</svg>
