<svg width="24" height="23" viewBox="0 0 24 23" fill="none" xmlns="http://www.w3.org/2000/svg">
<path d="M23.0632 11.3924C23.0632 17.6842 17.9625 22.7849 11.6708 22.7849C5.3796 22.7849 0.27832 17.6842 0.27832 11.3924C0.27832 5.10128 5.3796 0 11.6708 0C17.9625 0 23.0632 5.10128 23.0632 11.3924Z" fill="#FFCC4D"/>
<path d="M7.55689 11.3898C8.43076 11.3898 9.13917 9.83127 9.13917 7.90876C9.13917 5.98624 8.43076 4.42773 7.55689 4.42773C6.68302 4.42773 5.97461 5.98624 5.97461 7.90876C5.97461 9.83127 6.68302 11.3898 7.55689 11.3898Z" fill="#664500"/>
<path d="M15.7849 11.3898C16.6588 11.3898 17.3672 9.83127 17.3672 7.90876C17.3672 5.98624 16.6588 4.42773 15.7849 4.42773C14.911 4.42773 14.2026 5.98624 14.2026 7.90876C14.2026 9.83127 14.911 11.3898 15.7849 11.3898Z" fill="#664500"/>
<path d="M11.6705 13.9217C9.3775 13.9217 7.85597 13.6546 5.97432 13.2888C5.54457 13.2059 4.7085 13.2888 4.7085 14.5546C4.7085 17.0863 7.61673 20.2508 11.6705 20.2508C15.7237 20.2508 18.6326 17.0863 18.6326 14.5546C18.6326 13.2888 17.7965 13.2052 17.3668 13.2888C15.4851 13.6546 13.9636 13.9217 11.6705 13.9217Z" fill="#664500"/>
<path d="M5.97461 14.5566C5.97461 14.5566 7.87335 15.1896 11.6708 15.1896C15.4683 15.1896 17.367 14.5566 17.367 14.5566C17.367 14.5566 16.1012 17.0883 11.6708 17.0883C7.24044 17.0883 5.97461 14.5566 5.97461 14.5566Z" fill="white"/>
</svg>
