<svg width="24" height="23" viewBox="0 0 24 23" fill="none" xmlns="http://www.w3.org/2000/svg">
<path d="M12.2284 22.7849C18.5202 22.7849 23.6208 17.6843 23.6208 11.3924C23.6208 5.10057 18.5202 0 12.2284 0C5.9365 0 0.835938 5.10057 0.835938 11.3924C0.835938 17.6843 5.9365 22.7849 12.2284 22.7849Z" fill="#FFCC4D"/>
<path d="M7.49104 14.9497C7.51952 15.063 8.23029 17.7212 12.2284 17.7212C16.2271 17.7212 16.9373 15.063 16.9658 14.9497C17.0006 14.8123 16.9385 14.6699 16.8158 14.599C16.6923 14.5288 16.5379 14.5497 16.436 14.6478C16.424 14.6598 15.1993 15.8225 12.2284 15.8225C9.2575 15.8225 8.03218 14.6598 8.02079 14.6484C7.96003 14.5883 7.87902 14.5566 7.79801 14.5566C7.74484 14.5566 7.69104 14.5699 7.64231 14.5971C7.51826 14.668 7.45623 14.8117 7.49104 14.9497Z" fill="#664500"/>
<path d="M8.43043 10.7546C9.3043 10.7546 10.0127 9.76283 10.0127 8.53941C10.0127 7.316 9.3043 6.32422 8.43043 6.32422C7.55656 6.32422 6.84814 7.316 6.84814 8.53941C6.84814 9.76283 7.55656 10.7546 8.43043 10.7546Z" fill="#664500"/>
<path d="M16.0256 10.7624C16.8995 10.7624 17.6079 9.77065 17.6079 8.54723C17.6079 7.32381 16.8995 6.33203 16.0256 6.33203C15.1518 6.33203 14.4434 7.32381 14.4434 8.54723C14.4434 9.77065 15.1518 10.7624 16.0256 10.7624Z" fill="#664500"/>
</svg>
