<svg width="24" height="23" viewBox="0 0 24 23" fill="none" xmlns="http://www.w3.org/2000/svg">
<path d="M23.342 11.3924C23.342 17.6842 18.2414 22.7849 11.9496 22.7849C5.65841 22.7849 0.557129 17.6842 0.557129 11.3924C0.557129 5.10128 5.65841 0 11.9496 0C18.2414 0 23.342 5.10128 23.342 11.3924Z" fill="#FFCC4D"/>
<path d="M18.5677 11.2644C18.5297 11.179 17.619 9.17773 15.7468 9.17773C13.8753 9.17773 12.9639 11.179 12.9259 11.2644C12.8677 11.3955 12.9057 11.5486 13.0177 11.6385C13.1285 11.7284 13.2873 11.7315 13.4038 11.6474C13.4114 11.6417 14.2025 11.0765 15.7468 11.0765C17.2823 11.0765 18.0722 11.6341 18.0899 11.6467C18.1456 11.6885 18.2127 11.7094 18.2785 11.7094C18.3481 11.7094 18.4184 11.686 18.4759 11.6404C18.588 11.5505 18.6266 11.3961 18.5677 11.2644ZM10.9728 11.2644C10.9348 11.179 10.024 9.17773 8.15187 9.17773C6.28035 9.17773 5.36895 11.179 5.33098 11.2644C5.27275 11.3955 5.31072 11.5486 5.42212 11.6385C5.53351 11.7284 5.69237 11.7315 5.80819 11.6474C5.81642 11.6417 6.60693 11.0765 8.15187 11.0765C9.68732 11.0765 10.4772 11.6341 10.4949 11.6467C10.5506 11.6885 10.6177 11.7094 10.6835 11.7094C10.7531 11.7094 10.8234 11.686 10.881 11.6404C10.9937 11.5505 11.031 11.3961 10.9728 11.2644ZM11.9493 13.9246C9.6563 13.9246 8.13478 13.6575 6.25313 13.2917C5.82338 13.2088 4.9873 13.2917 4.9873 14.5575C4.9873 17.0891 7.89554 20.2537 11.9493 20.2537C16.0025 20.2537 18.9114 17.0891 18.9114 14.5575C18.9114 13.2917 18.0753 13.2081 17.6456 13.2917C15.7639 13.6575 14.2424 13.9246 11.9493 13.9246Z" fill="#664500"/>
<path d="M6.25342 14.5566C6.25342 14.5566 8.15216 15.1896 11.9496 15.1896C15.7471 15.1896 17.6459 14.5566 17.6459 14.5566C17.6459 14.5566 16.38 17.0883 11.9496 17.0883C7.51924 17.0883 6.25342 14.5566 6.25342 14.5566Z" fill="white"/>
</svg>
