<svg width="23" height="23" viewBox="0 0 23 23" fill="none" xmlns="http://www.w3.org/2000/svg">
<path d="M11.3924 22.7849C17.6843 22.7849 22.7849 17.6843 22.7849 11.3924C22.7849 5.10057 17.6843 0 11.3924 0C5.10057 0 0 5.10057 0 11.3924C0 17.6843 5.10057 22.7849 11.3924 22.7849Z" fill="#FFCC4D"/>
<path d="M11.3922 13.2947C9.09918 13.2947 7.57765 13.0276 5.696 12.6618C5.26625 12.5789 4.43018 12.6618 4.43018 13.9276C4.43018 16.4593 7.33841 19.6239 11.3922 19.6239C15.4454 19.6239 18.3543 16.4593 18.3543 13.9276C18.3543 12.6618 17.5182 12.5783 17.0884 12.6618C15.2068 13.0276 13.6853 13.2947 11.3922 13.2947Z" fill="#664500"/>
<path d="M5.69629 13.9238C5.69629 13.9238 7.59503 14.5567 11.3925 14.5567C15.19 14.5567 17.0887 13.9238 17.0887 13.9238C17.0887 13.9238 15.8229 16.4555 11.3925 16.4555C6.96212 16.4555 5.69629 13.9238 5.69629 13.9238Z" fill="white"/>
<path d="M7.59498 10.7624C8.46885 10.7624 9.17726 9.77065 9.17726 8.54723C9.17726 7.32381 8.46885 6.33203 7.59498 6.33203C6.72111 6.33203 6.0127 7.32381 6.0127 8.54723C6.0127 9.77065 6.72111 10.7624 7.59498 10.7624Z" fill="#664500"/>
<path d="M15.1897 10.7624C16.0636 10.7624 16.772 9.77065 16.772 8.54723C16.772 7.32381 16.0636 6.33203 15.1897 6.33203C14.3158 6.33203 13.6074 7.32381 13.6074 8.54723C13.6074 9.77065 14.3158 10.7624 15.1897 10.7624Z" fill="#664500"/>
</svg>
