<svg width="21" height="24" viewBox="0 0 21 24" fill="none" xmlns="http://www.w3.org/2000/svg">
<path d="M20.9228 11.9289C20.9228 11.6106 20.8469 11.3118 20.7197 11.0403C19.8709 8.30233 15.8975 8.50234 10.2456 8.36879C9.30063 8.34664 9.84114 7.23081 10.1728 4.78144C10.3886 3.1884 9.36139 0.742188 7.63481 0.742188C4.78796 0.742188 7.52658 2.98776 5.00948 8.54094C3.66454 11.508 0.658203 9.84601 0.658203 12.8264V19.6106C0.658203 20.7707 0.772128 21.8859 2.40378 22.0695C3.98543 22.2473 3.62973 23.3745 5.91138 23.3745H17.3317C18.495 23.3745 19.4412 22.4277 19.4412 21.2644C19.4412 20.7821 19.2722 20.3429 18.9994 19.9872C19.645 19.6258 20.088 18.9435 20.088 18.1524C20.088 17.6713 19.9197 17.2321 19.6475 16.877C20.295 16.5163 20.7393 15.8334 20.7393 15.041C20.7393 14.4656 20.5064 13.9441 20.131 13.5625C20.6102 13.1758 20.9228 12.591 20.9228 11.9289Z" fill="#FFDB5E"/>
<path d="M13.3686 14.0374H18.8142C19.5547 14.0374 20.2496 13.6412 20.6281 13.0038C20.7838 12.7412 20.6971 12.4013 20.4338 12.2449C20.1711 12.0886 19.8313 12.1766 19.6749 12.4393C19.4958 12.7424 19.1648 12.9298 18.8135 12.9298H13.2376C12.685 12.9298 12.2357 12.4804 12.2357 11.9279C12.2357 11.3753 12.685 10.926 13.2376 10.926H16.9635C17.2692 10.926 17.5173 10.6779 17.5173 10.3722C17.5173 10.0665 17.2692 9.81836 16.9635 9.81836H13.2369C12.0736 9.81836 11.1274 10.7646 11.1274 11.9279C11.1274 12.5766 11.4281 13.1506 11.8901 13.538C11.5009 13.9209 11.2585 14.4525 11.2585 15.0399C11.2585 15.6905 11.561 16.2665 12.0255 16.6532C11.6388 17.0355 11.399 17.5652 11.399 18.1513C11.399 18.8602 11.7528 19.4855 12.2907 19.8684C11.9591 20.2412 11.7515 20.7266 11.7515 21.2633C11.7515 22.4266 12.6977 23.3728 13.861 23.3728H17.3319C18.0724 23.3728 18.768 22.9773 19.1464 22.3399C19.3028 22.0773 19.2161 21.7374 18.9534 21.581C18.6901 21.426 18.3502 21.5114 18.1945 21.7741C18.0142 22.0773 17.6832 22.2652 17.3319 22.2652H13.861C13.3085 22.2652 12.8591 21.8159 12.8591 21.2633C12.8591 20.7108 13.3085 20.2614 13.861 20.2614H17.9787C18.7192 20.2614 19.4154 19.8652 19.7933 19.2279C19.9496 18.9646 19.8629 18.6247 19.6003 18.469C19.3351 18.3102 18.9964 18.3994 18.8414 18.6621C18.6585 18.9703 18.3357 19.1538 17.9787 19.1538H13.5085C12.9559 19.1538 12.5066 18.7038 12.5066 18.1513C12.5066 17.5988 12.9559 17.1494 13.5085 17.1494H18.6294C19.3699 17.1494 20.0654 16.7538 20.4439 16.1165C20.6003 15.8538 20.5135 15.5139 20.2509 15.3576C19.987 15.2019 19.6477 15.288 19.492 15.5507C19.3091 15.8582 18.9863 16.0418 18.6294 16.0418H13.3686C12.8161 16.0418 12.3667 15.5924 12.3667 15.0399C12.3667 14.4874 12.8154 14.0374 13.3686 14.0374Z" fill="#EE9547"/>
</svg>
