<svg width="24" height="24" viewBox="0 0 24 24" fill="none" xmlns="http://www.w3.org/2000/svg">
<path d="M19.9244 14.3027C18.0257 14.3027 15.6915 18.7926 15.494 20.6319C15.2276 23.1097 16.7598 23.1635 16.7598 23.1635H23.7219V16.8344C23.7219 16.8344 21.5459 14.3027 19.9244 14.3027Z" fill="#50A5E6"/>
<path d="M19.2859 18.929C20.308 17.1587 20.7346 15.4915 20.2387 15.2052C19.7429 14.9189 18.5124 16.122 17.4903 17.8923C16.4682 19.6626 16.0416 21.3297 16.5375 21.616C17.0333 21.9023 18.2638 20.6993 19.2859 18.929Z" fill="#1C6399"/>
<path d="M13.65 0.378906C14.3975 0.378906 15.0032 0.984604 15.0032 1.73207C15.0032 2.23144 15.426 8.58273 15.426 8.58273L12.2969 11.7713V1.73207C12.2969 0.984604 12.9026 0.378906 13.65 0.378906Z" fill="#F9CA55"/>
<path d="M12.8833 3.11629C12.8833 2.42071 13.4225 1.85742 14.0877 1.85742C14.7529 1.85742 15.2921 2.42135 15.2921 3.11629C15.2921 3.11629 15.6308 6.87706 16.0466 9.04668C16.6023 10.2277 16.913 12.01 16.8447 13.0011C16.8789 13.253 20.4048 16.1695 20.4048 16.1695C20.227 17.317 18.9751 20.0651 17.3928 21.3334L15.1643 19.4828C13.3383 19.2271 12.3428 17.3746 12.3428 16.784C12.3428 14.8954 12.8833 3.11629 12.8833 3.11629Z" fill="#FFDC5D"/>
<path d="M4.73449 14.3027C6.63323 14.3027 8.96741 18.7926 9.16488 20.6319C9.43134 23.1097 7.89906 23.1635 7.89906 23.1635H0.937012V16.8344C0.937012 16.8344 3.11297 14.3027 4.73449 14.3027Z" fill="#50A5E6"/>
<path d="M8.12058 21.6151C8.61643 21.3288 8.18984 19.6616 7.16776 17.8913C6.14568 16.1211 4.91515 14.918 4.4193 15.2043C3.92345 15.4906 4.35004 17.1578 5.37212 18.9281C6.3942 20.6983 7.62473 21.9014 8.12058 21.6151Z" fill="#1C6399"/>
<path d="M11.1023 0.385859C10.3011 0.305479 9.62573 0.932696 9.62573 1.71688C9.62573 2.21055 9.50928 8.24791 9.50928 8.24791L12.2631 11.7713L12.3023 1.79346C12.3023 1.09346 11.7992 0.455479 11.1023 0.385859Z" fill="#F9CA55"/>
<path d="M11.7754 3.11629C11.7754 2.42071 11.2362 1.85742 10.571 1.85742C9.90582 1.85742 9.36658 2.42135 9.36658 3.11629C9.36658 3.11629 9.02797 6.87706 8.61215 9.04668C8.05645 10.2277 7.74569 12.01 7.81404 13.0011C7.77987 13.253 4.25391 16.1695 4.25391 16.1695C4.43175 17.317 5.68366 20.0651 7.26594 21.3334L9.49443 19.4828C11.3204 19.2271 12.316 17.3746 12.316 16.784C12.316 14.8954 11.7754 3.11629 11.7754 3.11629Z" fill="#FFDC5D"/>
<path d="M12.3028 16.7212C12.0408 16.7212 11.8281 16.5086 11.8281 16.2465V2.14461C11.8281 1.88258 12.0408 1.66992 12.3028 1.66992C12.5648 1.66992 12.7775 1.88258 12.7775 2.14461V16.2472C12.7781 16.5086 12.5655 16.7212 12.3028 16.7212Z" fill="#F9CA55"/>
</svg>
