<svg width="21" height="21" viewBox="0 0 21 21" fill="none" xmlns="http://www.w3.org/2000/svg">
<path d="M18.3212 14.0012C20.8782 16.4778 20.9054 20.9215 20.2586 20.9215C19.6117 20.9215 17.6541 19.7493 16.418 18.4297C15.182 17.1107 15.3104 14.1398 15.3104 14.1398L16.3142 11.4063C16.3142 11.4056 15.7642 11.5246 18.3212 14.0012Z" fill="#FFAC33"/>
<path d="M16.4225 14.0012C18.9794 16.4778 19.0067 20.9215 18.3598 20.9215C17.713 20.9215 15.7554 19.7493 14.5193 18.4297C13.2832 17.1107 13.4117 14.1398 13.4117 14.1398L14.4155 11.4063C14.4155 11.4056 13.8655 11.5246 16.4225 14.0012ZM1.25787 20.9082C0.624955 20.9082 0.624955 16.4778 3.15661 13.9461C5.68826 11.4145 5.05535 11.4145 5.05535 11.4145L6.32117 13.9461C6.32117 13.9461 6.32117 17.1107 5.05535 18.3765C3.78952 19.6424 1.89078 20.9082 1.25787 20.9082Z" fill="#FFAC33"/>
<path d="M3.15679 20.9039C2.52388 20.9039 2.52388 16.4735 5.05553 13.9418C7.58719 11.4102 6.95427 11.4102 6.95427 11.4102L8.2201 13.9418C8.2201 13.9418 8.2201 17.1064 6.95427 18.3722C5.68845 19.638 3.78971 20.9039 3.15679 20.9039Z" fill="#FFAC33"/>
<path d="M3.73512 11.0026C3.37373 9.65194 2.39588 8.73992 1.55157 8.9665C0.707267 9.19308 0.317393 10.4716 0.678786 11.8216C1.04018 13.1728 2.01803 14.0836 2.86234 13.8577C3.70664 13.6311 4.09715 12.3526 3.73512 11.0026ZM20.8244 11.8216C21.1858 10.4709 20.7953 9.19245 19.951 8.96587C19.1073 8.74055 18.1295 9.65131 17.7681 11.0026C17.406 12.3532 17.7966 13.6311 18.6409 13.8577C19.4852 14.0842 20.463 13.1722 20.8244 11.8216Z" fill="#FFDC5D"/>
<path d="M18.9792 11.4118C18.9792 5.46935 15.2956 1.28516 10.7513 1.28516C6.20699 1.28516 2.52344 5.46935 2.52344 11.4118C2.52344 17.3542 6.20699 20.9055 10.7513 20.9055C15.2956 20.9055 18.9792 17.3542 18.9792 11.4118Z" fill="#FFDC5D"/>
<path d="M10.7518 16.8875C9.22016 16.8875 8.04674 16.4527 7.99737 16.4349C7.67015 16.3121 7.50433 15.947 7.62775 15.6197C7.75053 15.2925 8.11446 15.1267 8.44168 15.2495C8.4518 15.2533 9.46067 15.6216 10.7518 15.6216C12.0436 15.6216 13.0524 15.2533 13.0619 15.2495C13.3885 15.1267 13.7543 15.2944 13.8752 15.621C13.9974 15.9482 13.8328 16.3121 13.5056 16.4349C13.4569 16.4533 12.2841 16.8875 10.7518 16.8875Z" fill="#DF1F32"/>
<path d="M11.3846 13.9436H10.1188C9.76938 13.9436 9.48584 13.6606 9.48584 13.3106C9.48584 12.9606 9.76938 12.6777 10.1188 12.6777H11.3846C11.7346 12.6777 12.0175 12.9606 12.0175 13.3106C12.0175 13.6606 11.7346 13.9436 11.3846 13.9436Z" fill="#C1694F"/>
<path d="M6.9542 12.0434C6.60483 12.0434 6.32129 11.7605 6.32129 11.4105V10.1446C6.32129 9.79526 6.60483 9.51172 6.9542 9.51172C7.30357 9.51172 7.58712 9.79526 7.58712 10.1446V11.4105C7.58712 11.7605 7.30357 12.0434 6.9542 12.0434ZM14.5492 12.0434C14.1992 12.0434 13.9162 11.7605 13.9162 11.4105V10.1446C13.9162 9.79526 14.1992 9.51172 14.5492 9.51172C14.8992 9.51172 15.1821 9.79526 15.1821 10.1446V11.4105C15.1821 11.7605 14.8992 12.0434 14.5492 12.0434Z" fill="#662113"/>
<path d="M19.6123 5.71575C18.3465 1.28536 15.1819 0.0195312 13.2832 0.0195312C12.0174 0.0195312 10.7515 1.28536 10.7515 1.28536C10.7515 1.28536 9.48572 0.0195312 8.2199 0.0195312C6.32116 0.0195312 3.15659 1.28536 1.89077 5.71575C0.847726 9.36703 2.52368 12.6778 2.52368 12.6778C2.52368 10.7784 3.78951 6.98158 6.95407 6.98158C10.1186 6.98158 10.7515 4.44992 10.7515 4.44992C10.7515 4.44992 11.249 6.98158 14.4136 6.98158C17.5782 6.98158 18.9794 10.7791 18.9794 12.6778C18.9794 12.6778 20.6554 9.36703 19.6123 5.71575Z" fill="#FFAC33"/>
</svg>
