<?xml version="1.0" encoding="UTF-8" standalone="no"?>
<!DOCTYPE svg PUBLIC "-//W3C//DTD SVG 1.1//EN"
 "http://www.w3.org/Graphics/SVG/1.1/DTD/svg11.dtd">
<!-- Generated by graphviz version 5.0.0 (20220707.1540)
 -->
<!-- Title: dependencies Pages: 1 -->
<svg width="1689pt" height="174pt"
 viewBox="0.00 0.00 1689.00 173.80" xmlns="http://www.w3.org/2000/svg" xmlns:xlink="http://www.w3.org/1999/xlink">
<g id="graph0" class="graph" transform="scale(1 1) rotate(0) translate(4 169.8)">
<title>dependencies</title>
<polygon fill="white" stroke="transparent" points="-4,4 -4,-169.8 1685,-169.8 1685,4 -4,4"/>
<text text-anchor="middle" x="840.5" y="-8.2" font-family="sans-serif" font-size="14.00">dependencies</text>
<g id="clust1" class="cluster">
<title>cluster_ContentModule</title>
<polygon fill="none" stroke="black" stroke-dasharray="1,5" points="8,-32.8 8,-157.8 1673,-157.8 1673,-32.8 8,-32.8"/>
</g>
<g id="clust2" class="cluster">
<title>cluster_ContentModule_declarations</title>
<polygon fill="none" stroke="black" points="1523,-40.8 1523,-92.8 1665,-92.8 1665,-40.8 1523,-40.8"/>
</g>
<g id="clust4" class="cluster">
<title>cluster_ContentModule_imports</title>
<polygon fill="none" stroke="black" points="16,-40.8 16,-92.8 1515,-92.8 1515,-40.8 16,-40.8"/>
</g>
<!-- ContentComponent -->
<g id="node1" class="node">
<title>ContentComponent</title>
<polygon fill="#ffffb3" stroke="black" points="1656.66,-84.8 1531.34,-84.8 1531.34,-48.8 1656.66,-48.8 1656.66,-84.8"/>
<text text-anchor="middle" x="1594" y="-62.6" font-family="Times,serif" font-size="14.00">ContentComponent</text>
</g>
<!-- ContentModule -->
<g id="node2" class="node">
<title>ContentModule</title>
<polygon fill="#8dd3c7" stroke="black" points="843.88,-149.8 840.88,-153.8 819.88,-153.8 816.88,-149.8 740.12,-149.8 740.12,-113.8 843.88,-113.8 843.88,-149.8"/>
<text text-anchor="middle" x="792" y="-127.6" font-family="Times,serif" font-size="14.00">ContentModule</text>
</g>
<!-- ContentComponent&#45;&gt;ContentModule -->
<g id="edge1" class="edge">
<title>ContentComponent&#45;&gt;ContentModule</title>
<path fill="none" stroke="black" d="M1594,-84.89C1594,-107.93 1594,-144.8 1594,-144.8 1594,-144.8 854,-144.8 854,-144.8"/>
<polygon fill="black" stroke="black" points="854,-141.3 844,-144.8 854,-148.3 854,-141.3"/>
</g>
<!-- AddStructuredDataModule -->
<g id="node3" class="node">
<title>AddStructuredDataModule</title>
<polygon fill="#8dd3c7" stroke="black" points="1507.41,-84.8 1504.41,-88.8 1483.41,-88.8 1480.41,-84.8 1338.59,-84.8 1338.59,-48.8 1507.41,-48.8 1507.41,-84.8"/>
<text text-anchor="middle" x="1423" y="-62.6" font-family="Times,serif" font-size="14.00">AddStructuredDataModule</text>
</g>
<!-- AddStructuredDataModule&#45;&gt;ContentModule -->
<g id="edge2" class="edge">
<title>AddStructuredDataModule&#45;&gt;ContentModule</title>
<path fill="none" stroke="black" d="M1423,-85.08C1423,-106.12 1423,-137.8 1423,-137.8 1423,-137.8 853.91,-137.8 853.91,-137.8"/>
<polygon fill="black" stroke="black" points="853.91,-134.3 843.91,-137.8 853.91,-141.3 853.91,-134.3"/>
</g>
<!-- ContentRoutingModule -->
<g id="node4" class="node">
<title>ContentRoutingModule</title>
<polygon fill="#8dd3c7" stroke="black" points="1320.5,-84.8 1317.5,-88.8 1296.5,-88.8 1293.5,-84.8 1171.5,-84.8 1171.5,-48.8 1320.5,-48.8 1320.5,-84.8"/>
<text text-anchor="middle" x="1246" y="-62.6" font-family="Times,serif" font-size="14.00">ContentRoutingModule</text>
</g>
<!-- ContentRoutingModule&#45;&gt;ContentModule -->
<g id="edge3" class="edge">
<title>ContentRoutingModule&#45;&gt;ContentModule</title>
<path fill="none" stroke="black" d="M1246,-84.91C1246,-104.14 1246,-131.8 1246,-131.8 1246,-131.8 854.08,-131.8 854.08,-131.8"/>
<polygon fill="black" stroke="black" points="854.08,-128.3 844.08,-131.8 854.08,-135.3 854.08,-128.3"/>
</g>
<!-- EmptyScreenModule -->
<g id="node5" class="node">
<title>EmptyScreenModule</title>
<polygon fill="#8dd3c7" stroke="black" points="1153.47,-84.8 1150.47,-88.8 1129.47,-88.8 1126.47,-84.8 1018.53,-84.8 1018.53,-48.8 1153.47,-48.8 1153.47,-84.8"/>
<text text-anchor="middle" x="1086" y="-62.6" font-family="Times,serif" font-size="14.00">EmptyScreenModule</text>
</g>
<!-- EmptyScreenModule&#45;&gt;ContentModule -->
<g id="edge4" class="edge">
<title>EmptyScreenModule&#45;&gt;ContentModule</title>
<path fill="none" stroke="black" d="M1086,-84.82C1086,-102.17 1086,-125.8 1086,-125.8 1086,-125.8 853.88,-125.8 853.88,-125.8"/>
<polygon fill="black" stroke="black" points="853.88,-122.3 843.88,-125.8 853.88,-129.3 853.88,-122.3"/>
</g>
<!-- FindlySharedModule -->
<g id="node6" class="node">
<title>FindlySharedModule</title>
<polygon fill="#8dd3c7" stroke="black" points="1000.49,-84.8 997.49,-88.8 976.49,-88.8 973.49,-84.8 865.51,-84.8 865.51,-48.8 1000.49,-48.8 1000.49,-84.8"/>
<text text-anchor="middle" x="933" y="-62.6" font-family="Times,serif" font-size="14.00">FindlySharedModule</text>
</g>
<!-- FindlySharedModule&#45;&gt;ContentModule -->
<g id="edge5" class="edge">
<title>FindlySharedModule&#45;&gt;ContentModule</title>
<path fill="none" stroke="black" d="M933,-85.04C933,-100.37 933,-119.8 933,-119.8 933,-119.8 854.1,-119.8 854.1,-119.8"/>
<polygon fill="black" stroke="black" points="854.1,-116.3 844.1,-119.8 854.1,-123.3 854.1,-116.3"/>
</g>
<!-- KrModalModule -->
<g id="node7" class="node">
<title>KrModalModule</title>
<polygon fill="#8dd3c7" stroke="black" points="847.38,-84.8 844.38,-88.8 823.38,-88.8 820.38,-84.8 736.62,-84.8 736.62,-48.8 847.38,-48.8 847.38,-84.8"/>
<text text-anchor="middle" x="792" y="-62.6" font-family="Times,serif" font-size="14.00">KrModalModule</text>
</g>
<!-- KrModalModule&#45;&gt;ContentModule -->
<g id="edge6" class="edge">
<title>KrModalModule&#45;&gt;ContentModule</title>
<path fill="none" stroke="black" d="M774.69,-84.91C774.69,-84.91 774.69,-103.79 774.69,-103.79"/>
<polygon fill="black" stroke="black" points="771.19,-103.79 774.69,-113.79 778.19,-103.79 771.19,-103.79"/>
</g>
<!-- KrModalModule&#45;&gt;ContentModule -->
<g id="edge7" class="edge">
<title>KrModalModule&#45;&gt;ContentModule</title>
<path fill="none" stroke="black" d="M809.31,-84.91C809.31,-84.91 809.31,-103.79 809.31,-103.79"/>
<polygon fill="black" stroke="black" points="805.81,-103.79 809.31,-113.79 812.81,-103.79 805.81,-103.79"/>
</g>
<!-- OnboardingModule -->
<g id="node8" class="node">
<title>OnboardingModule</title>
<polygon fill="#8dd3c7" stroke="black" points="718.43,-84.8 715.43,-88.8 694.43,-88.8 691.43,-84.8 591.57,-84.8 591.57,-48.8 718.43,-48.8 718.43,-84.8"/>
<text text-anchor="middle" x="655" y="-62.6" font-family="Times,serif" font-size="14.00">OnboardingModule</text>
</g>
<!-- OnboardingModule&#45;&gt;ContentModule -->
<g id="edge8" class="edge">
<title>OnboardingModule&#45;&gt;ContentModule</title>
<path fill="none" stroke="black" d="M655,-85.04C655,-100.37 655,-119.8 655,-119.8 655,-119.8 729.82,-119.8 729.82,-119.8"/>
<polygon fill="black" stroke="black" points="729.82,-123.3 739.82,-119.8 729.82,-116.3 729.82,-123.3"/>
</g>
<!-- SchedulerModule -->
<g id="node9" class="node">
<title>SchedulerModule</title>
<polygon fill="#8dd3c7" stroke="black" points="573.53,-84.8 570.53,-88.8 549.53,-88.8 546.53,-84.8 458.47,-84.8 458.47,-48.8 573.53,-48.8 573.53,-84.8"/>
<text text-anchor="middle" x="516" y="-62.6" font-family="Times,serif" font-size="14.00">SchedulerModule</text>
</g>
<!-- SchedulerModule&#45;&gt;ContentModule -->
<g id="edge9" class="edge">
<title>SchedulerModule&#45;&gt;ContentModule</title>
<path fill="none" stroke="black" d="M516,-84.82C516,-102.17 516,-125.8 516,-125.8 516,-125.8 730.09,-125.8 730.09,-125.8"/>
<polygon fill="black" stroke="black" points="730.09,-129.3 740.09,-125.8 730.09,-122.3 730.09,-129.3"/>
</g>
<!-- SourcesModule -->
<g id="node10" class="node">
<title>SourcesModule</title>
<polygon fill="#8dd3c7" stroke="black" points="439.88,-84.8 436.88,-88.8 415.88,-88.8 412.88,-84.8 336.12,-84.8 336.12,-48.8 439.88,-48.8 439.88,-84.8"/>
<text text-anchor="middle" x="388" y="-62.6" font-family="Times,serif" font-size="14.00">SourcesModule</text>
</g>
<!-- SourcesModule&#45;&gt;ContentModule -->
<g id="edge10" class="edge">
<title>SourcesModule&#45;&gt;ContentModule</title>
<path fill="none" stroke="black" d="M388,-84.91C388,-104.14 388,-131.8 388,-131.8 388,-131.8 730.01,-131.8 730.01,-131.8"/>
<polygon fill="black" stroke="black" points="730.01,-135.3 740.01,-131.8 730.01,-128.3 730.01,-135.3"/>
</g>
<!-- StructuredDataModule -->
<g id="node11" class="node">
<title>StructuredDataModule</title>
<polygon fill="#8dd3c7" stroke="black" points="318.3,-84.8 315.3,-88.8 294.3,-88.8 291.3,-84.8 173.7,-84.8 173.7,-48.8 318.3,-48.8 318.3,-84.8"/>
<text text-anchor="middle" x="246" y="-62.6" font-family="Times,serif" font-size="14.00">StructuredDataModule</text>
</g>
<!-- StructuredDataModule&#45;&gt;ContentModule -->
<g id="edge11" class="edge">
<title>StructuredDataModule&#45;&gt;ContentModule</title>
<path fill="none" stroke="black" d="M246,-85.08C246,-106.12 246,-137.8 246,-137.8 246,-137.8 729.65,-137.8 729.65,-137.8"/>
<polygon fill="black" stroke="black" points="729.65,-141.3 739.65,-137.8 729.65,-134.3 729.65,-141.3"/>
</g>
<!-- UpgradePlanModule -->
<g id="node12" class="node">
<title>UpgradePlanModule</title>
<polygon fill="#8dd3c7" stroke="black" points="156.14,-84.8 153.14,-88.8 132.14,-88.8 129.14,-84.8 23.86,-84.8 23.86,-48.8 156.14,-48.8 156.14,-84.8"/>
<text text-anchor="middle" x="90" y="-62.6" font-family="Times,serif" font-size="14.00">UpgradePlanModule</text>
</g>
<!-- UpgradePlanModule&#45;&gt;ContentModule -->
<g id="edge12" class="edge">
<title>UpgradePlanModule&#45;&gt;ContentModule</title>
<path fill="none" stroke="black" d="M90,-84.89C90,-107.93 90,-144.8 90,-144.8 90,-144.8 730.1,-144.8 730.1,-144.8"/>
<polygon fill="black" stroke="black" points="730.1,-148.3 740.1,-144.8 730.1,-141.3 730.1,-148.3"/>
</g>
</g>
</svg>
