<svg width="14" height="14" fill="none" xmlns="http://www.w3.org/2000/svg"><g clip-path="url(#a)"><path d="M1.166 9.335v2.88c0 .665 1.829 1.203 4.084 1.203s4.083-.539 4.083-1.203v-2.88M5.25 2.918c-2.577 0-4.667.522-4.667 1.167 0 .644 2.09 1.166 4.667 1.166M.583 4.085V7c0 .591 2.09 1.167 4.667 1.167m4.083 1.167c2.23 0 4.083-.576 4.083-1.167V2.335m-8.076 0v5.93M5.25 5.25c0 .591 1.897 1.167 4.128 1.167 2.23 0 4.038-.576 4.038-1.167M9.333 9.335c0-.645-1.828-1.167-4.083-1.167s-4.084.522-4.084 1.167c0 .644 1.829 1.166 4.084 1.166s4.083-.522 4.083-1.166Zm4.083-7c0-.645-1.808-1.167-4.038-1.167-2.23 0-4.038.522-4.038 1.167 0 .644 1.808 1.166 4.038 1.166 2.23 0 4.038-.522 4.038-1.166Z" stroke="#44474C" stroke-width="1.5"/></g><defs><clipPath id="a"><path fill="#fff" d="M0 0h14v14H0z"/></clipPath></defs></svg>