<svg width="411" height="450" fill="none" xmlns="http://www.w3.org/2000/svg"><path opacity=".1" d="M214 448 0-.5h413.5V448H214Z" fill="#F2B705"/><circle cx="317.5" cy="96.5" r="163.5" fill="#FAE29B"/><circle cx="317.5" cy="97.5" r="63.5" fill="#F5C537"/><circle cx="406.5" cy="443.5" r="131.5" fill="#FAE29B"/><circle cx="152" cy="328" r="65" fill="#F5C537"/><g clip-path="url(#a)"><g clip-path="url(#b)"><path d="M305.146 302.251H166.7c-2.539 0-4.686-2.058-4.686-4.59l.009-111.056c0-2.204 1.874-4.171 4.076-4.171h139.374c2.357 0 4.095 2.095 4.095 4.463l.173 110.745c0 2.542-2.057 4.609-4.595 4.609Z" fill="#fff"/><path d="M305.355 302.249h-139.21a4.395 4.395 0 0 1-4.395-4.4V190.766h148v107.083c0 2.423-1.974 4.4-4.395 4.4ZM162.114 191.13v106.719a4.03 4.03 0 0 0 4.031 4.036h139.21a4.03 4.03 0 0 0 4.031-4.036V191.13H162.114Z" fill="#66B0F0"/><path d="M309.75 191.131h-148v-4.472a4.41 4.41 0 0 1 4.404-4.409h139.201c2.43 0 4.395 1.977 4.404 4.409v4.472h-.009Zm-147.636-.364h147.272v-4.108a4.051 4.051 0 0 0-4.04-4.045H166.154a4.045 4.045 0 0 0-4.04 4.045v4.108Z" fill="#66B0F0"/><path d="M286.712 189.047a2.277 2.277 0 0 0 0-4.555 2.276 2.276 0 0 0-2.274 2.277 2.276 2.276 0 0 0 2.274 2.278Z" fill="#21A0AA"/><path d="M294.692 189.129a2.276 2.276 0 0 0 2.274-2.278 2.276 2.276 0 0 0-2.274-2.277 2.276 2.276 0 0 0-2.275 2.277 2.276 2.276 0 0 0 2.275 2.278Z" fill="#FFCF2D"/><path d="M302.043 189.047a2.276 2.276 0 0 0 2.275-2.278 2.276 2.276 0 0 0-2.275-2.277 2.276 2.276 0 0 0-2.274 2.277 2.276 2.276 0 0 0 2.274 2.278Z" fill="#F94F46"/></g><g clip-path="url(#c)"><path d="M159.332 213.811c-11.492.152-20.661 9.595-20.516 21.086.145 11.491 9.584 20.655 21.075 20.504 11.491-.152 20.661-9.596 20.516-21.086-.146-11.491-9.584-20.656-21.075-20.504Zm.483 34.658c-7.656.118-13.937-6.014-14.05-13.669-.114-7.655 6.021-13.939 13.677-14.057 7.655-.118 13.936 6.014 14.05 13.669.08 7.655-6.039 13.956-13.677 14.057Z" fill="#5B2448"/><path d="M210.545 240.06c.631 1.407.99 2.944 1.011 4.576l.129 10.515c-.001.033-.001.067.015.084l.582 44.079c.086 6.394-5.021 11.619-11.398 11.726l-79.631 1.11c-6.394.089-11.616-5.015-11.72-11.392l-.597-44.13v-.033l-.146-10.499c-.021-1.632.293-3.19.907-4.609 1.723-4.108 5.763-7.048 10.507-7.099l79.632-1.11c4.744-.085 8.865 2.712 10.709 6.782Z" fill="#F94F46"/><path d="M210.744 255.165c.074 6.107-4.811 11.152-10.918 11.229l-78.689 1.093c-6.108.078-11.133-4.821-11.224-10.912l-.198-15.074a11.41 11.41 0 0 0-.908 4.61l.146 10.498v.034c.099 6.612 5.571 11.905 12.182 11.836l78.69-1.092a12.083 12.083 0 0 0 8.185-3.372 11.986 11.986 0 0 0 3.673-8.733c.001-.033.002-.067-.015-.084l-.146-10.498a11.354 11.354 0 0 0-1.011-4.576l.233 15.041Z" fill="#FCB6B1"/><path d="M134.86 273.18a2.855 2.855 0 0 1-2.893-2.826l-.069-4.526a2.86 2.86 0 0 1 2.828-2.894 2.855 2.855 0 0 1 2.892 2.827l.07 4.525c.005 1.582-1.23 2.872-2.828 2.894Zm52.089-.734a2.855 2.855 0 0 1-2.892-2.826l-.07-4.526a2.859 2.859 0 0 1 2.828-2.894 2.856 2.856 0 0 1 2.893 2.826l.069 4.526c.005 1.581-1.246 2.888-2.828 2.894Z" fill="#FFCF2D"/></g><g clip-path="url(#d)" fill="#00676C"><path d="M244.369 281.502a.866.866 0 0 1-.719-1.351l35.608-52.64a3.902 3.902 0 0 1 5.194-1.185l38.631 22.471 19.709-22.619a3.902 3.902 0 0 1 5.502-.381 3.89 3.89 0 0 1 .382 5.494l-21.827 25.05a3.902 3.902 0 0 1-4.904.808l-38.267-22.259-30.93 45.725a2.013 2.013 0 0 1-1.671.887h-6.708Z"/><path d="m351 223.321-.237 15.348a.394.394 0 0 1-.652.29l-15.145-13.163a.393.393 0 0 1 .198-.685l15.187-2.354a.562.562 0 0 1 .649.564Z"/></g><g clip-path="url(#e)"><path d="M227.617 192.816h.085c-.032.011-.064.011-.085 0Z" fill="#fff"/><path d="M227.702 193.037h-.095c-.117 0-.202-.095-.202-.212 0-.116.096-.212.202-.212h.085a.23.23 0 0 1 .159.064.206.206 0 0 1 .064.148.22.22 0 0 1-.213.212Z" fill="#66B0F0"/><path d="M227.479 192.816h.085a.114.114 0 0 1-.085 0Z" fill="#fff"/><path d="M227.48 193.04a.212.212 0 0 1-.212-.212c0-.053.021-.117.063-.159a.22.22 0 0 1 .159-.064h.085c.117 0 .202.096.202.213 0 .116-.085.212-.202.212-.031.01-.063.01-.095.01Z" fill="#66B0F0"/><path d="M239.623 212.047h-18.576c-1.487 7.527-6.794 51.738-12.664 82.377h22.461l21.91-.53c-6.337-31.382-11.751-74.214-13.131-81.847Z" fill="#FFBD10"/><path d="M274.674 287.204c-1.2 0-2.335.233-3.386.668-1.189-6.064-6.55-10.634-12.961-10.634a13.21 13.21 0 0 0-11.422 6.552 13.168 13.168 0 0 0-1.794 6.552 7.22 7.22 0 0 0-6.359.308 8.43 8.43 0 0 0 .308-2.28c0-4.739-3.853-8.587-8.598-8.587a8.586 8.586 0 0 0-8.428 6.891 7.906 7.906 0 0 0-4.469-1.378 7.84 7.84 0 0 0-5.679 2.417c-.085-.329-.414-1.251-.499-1.505-1.943-4.877-6.709-8.323-12.282-8.323-7.303 0-13.216 5.905-13.216 13.199 0 .149 0 .297.011.446a6.946 6.946 0 1 0-1.974 13.602c.764 0 1.507-.127 2.197-.35a6.147 6.147 0 0 0 5.923 4.485 6.168 6.168 0 0 0 5.042-2.619 13.518 13.518 0 0 0 11.783 6.86c2.866 0 5.509-.891 7.696-2.396a20.501 20.501 0 0 0 10.711 4.686h5.148a20.574 20.574 0 0 0 10.148-4.22 6.766 6.766 0 0 0 4.14 1.4 6.784 6.784 0 0 0 6.167-3.934 13.432 13.432 0 0 0 8.29 2.852c5.149 0 9.618-2.884 11.889-7.114a9.109 9.109 0 0 0 1.624.149c4.894 0 8.864-3.965 8.864-8.853s-3.981-8.874-8.874-8.874Z" fill="#fff"/><path d="M232.416 316h-5.159a20.66 20.66 0 0 1-10.7-4.633 13.649 13.649 0 0 1-7.686 2.343c-4.84 0-9.33-2.555-11.804-6.69a6.378 6.378 0 0 1-5.021 2.449 6.397 6.397 0 0 1-6.071-4.431 7.06 7.06 0 0 1-2.049.297c-3.949 0-7.165-3.213-7.165-7.157s3.216-7.156 7.165-7.156c.594 0 1.178.074 1.751.212v-.159c0-7.4 6.019-13.412 13.428-13.412 2.739 0 5.382.817 7.622 2.375a13.416 13.416 0 0 1 4.862 6.086s0 .01.01.01c.032.096.085.276.16.478l.233.699c.17-.169.361-.328.542-.477a8.047 8.047 0 0 1 5.042-1.749c1.539 0 3.036.435 4.32 1.24.934-3.933 4.49-6.753 8.577-6.753 4.862 0 8.811 3.944 8.811 8.799 0 .637-.064 1.262-.202 1.877a7.431 7.431 0 0 1 3.174-.71c.923 0 1.815.169 2.664.487.064-2.237.69-4.421 1.815-6.34a13.473 13.473 0 0 1 11.603-6.658c6.316 0 11.793 4.421 13.12 10.56a9.027 9.027 0 0 1 3.227-.594c5 0 9.076 4.071 9.076 9.065 0 4.993-4.076 9.065-9.076 9.065a9.05 9.05 0 0 1-1.518-.128 13.681 13.681 0 0 1-12.006 7.093c-2.993 0-5.827-.944-8.216-2.735a7.03 7.03 0 0 1-6.242 3.827 6.973 6.973 0 0 1-4.139-1.346A20.785 20.785 0 0 1 232.447 316h-.031Zm-5.127-.424h5.116a20.358 20.358 0 0 0 10.031-4.177c.075-.064.181-.064.266 0a6.52 6.52 0 0 0 4.012 1.357 6.597 6.597 0 0 0 5.976-3.817.21.21 0 0 1 .138-.116.223.223 0 0 1 .181.042c2.346 1.834 5.169 2.799 8.163 2.799 4.904 0 9.384-2.682 11.698-7.008a.2.2 0 0 1 .223-.106c.52.095 1.05.148 1.592.148 4.766 0 8.651-3.88 8.651-8.64 0-4.76-3.885-8.641-8.651-8.641a8.757 8.757 0 0 0-3.301.647c-.064.021-.128.021-.181-.011a.217.217 0 0 1-.106-.148c-1.2-6.064-6.56-10.464-12.759-10.464a13.07 13.07 0 0 0-11.242 6.446 12.952 12.952 0 0 0-1.762 6.446.209.209 0 0 1-.095.18.231.231 0 0 1-.202.021 6.958 6.958 0 0 0-2.781-.572 6.97 6.97 0 0 0-3.386.869.209.209 0 0 1-.234-.021.22.22 0 0 1-.074-.223 8.228 8.228 0 0 0 .297-2.216c0-4.622-3.758-8.375-8.386-8.375-3.981 0-7.441 2.831-8.227 6.722-.01.074-.063.127-.127.159a.2.2 0 0 1-.202-.022 7.639 7.639 0 0 0-4.341-1.346 7.588 7.588 0 0 0-5.531 2.354.202.202 0 0 1-.201.053.212.212 0 0 1-.149-.149 17.58 17.58 0 0 0-.329-1.007c-.074-.201-.127-.382-.159-.477a12.99 12.99 0 0 0-4.703-5.884 12.928 12.928 0 0 0-7.388-2.301c-7.165 0-13.003 5.831-13.003 12.988 0 .159 0 .296.01.434a.241.241 0 0 1-.085.18.205.205 0 0 1-.191.032 6.827 6.827 0 0 0-1.91-.275c-3.716 0-6.741 3.021-6.741 6.732 0 3.711 3.025 6.732 6.741 6.732a6.84 6.84 0 0 0 2.123-.339.236.236 0 0 1 .169.01.256.256 0 0 1 .107.128 5.953 5.953 0 0 0 5.721 4.336 5.957 5.957 0 0 0 4.872-2.534.19.19 0 0 1 .181-.085c.074 0 .138.043.17.106a13.353 13.353 0 0 0 11.591 6.754c2.728 0 5.35-.817 7.58-2.365a.206.206 0 0 1 .254.011 20.354 20.354 0 0 0 10.584 4.633Z" fill="#66B0F0"/><path d="M210.188 290.343a7.915 7.915 0 0 1 14.33-.911" fill="#fff"/><path d="M210.187 290.557c-.021 0-.053 0-.074-.011a.216.216 0 0 1-.117-.276 8.18 8.18 0 0 1 2.93-3.732 8.068 8.068 0 0 1 4.639-1.452 8.12 8.12 0 0 1 7.144 4.241c.053.106.021.233-.085.286-.106.053-.234.021-.287-.085a7.689 7.689 0 0 0-6.772-4.018c-3.153 0-6.04 1.972-7.176 4.909a.218.218 0 0 1-.202.138Z" fill="#66B0F0"/><path d="M236.8 292.231a7.215 7.215 0 0 1 5.445-2.481c1.996 0 3.801.806 5.106 2.11" fill="#fff"/><path d="M236.8 292.444a.222.222 0 0 1-.138-.053.214.214 0 0 1-.021-.297 7.438 7.438 0 0 1 5.604-2.555c1.985 0 3.854.774 5.255 2.173a.205.205 0 0 1 0 .297.205.205 0 0 1-.297 0 6.95 6.95 0 0 0-4.958-2.046 7.01 7.01 0 0 0-5.286 2.407.248.248 0 0 1-.159.074Z" fill="#66B0F0"/><path d="M271.33 287.895c1.062-.445 2.123-.7 3.344-.7 4.894 0 8.864 3.965 8.864 8.853 0 4.887-3.97 8.853-8.864 8.853a8.814 8.814 0 0 1-4.628-1.304" fill="#fff"/><path d="M274.674 305.12a8.974 8.974 0 0 1-4.734-1.335.231.231 0 0 1-.075-.297.232.232 0 0 1 .298-.074 8.69 8.69 0 0 0 4.511 1.272c4.766 0 8.651-3.881 8.651-8.641s-3.885-8.64-8.651-8.64a8.07 8.07 0 0 0-3.259.678c-.106.042-.233 0-.276-.117-.042-.106 0-.233.117-.275a8.491 8.491 0 0 1 3.429-.711c4.999 0 9.076 4.072 9.076 9.065 0 4.994-4.087 9.075-9.087 9.075Z" fill="#66B0F0"/><path d="M188.575 293.014a6.927 6.927 0 0 0-4.66-1.791 6.945 6.945 0 1 0 0 13.888 6.78 6.78 0 0 0 1.974-.286" fill="#fff"/><path d="M183.915 305.336c-3.949 0-7.165-3.212-7.165-7.156 0-3.944 3.216-7.157 7.165-7.157 1.773 0 3.482.658 4.798 1.845a.205.205 0 0 1 .011.297.206.206 0 0 1-.297.011 6.75 6.75 0 0 0-4.512-1.728c-3.715 0-6.74 3.021-6.74 6.732 0 3.71 3.025 6.732 6.74 6.732.648 0 1.295-.095 1.911-.276a.213.213 0 0 1 .265.149.212.212 0 0 1-.148.265 7.687 7.687 0 0 1-2.028.286Z" fill="#66B0F0"/><path d="M230.335 233.465c5.956 0 10.785-4.823 10.785-10.772s-4.829-10.771-10.785-10.771c-5.957 0-10.785 4.822-10.785 10.771 0 5.949 4.828 10.772 10.785 10.772Z" fill="#FFCF2D"/><path d="M241.12 223.084c0 5.948-7.717 23.611-10.679 23.611-2.771 0-10.88-17.663-10.88-23.611s4.829-10.772 10.784-10.772c5.956 0 10.775 4.835 10.775 10.772Z" fill="#FFCF2D"/><path d="M239.899 212.897c0 5.227-6.783 20.759-9.394 20.759-2.431 0-9.565-15.532-9.565-20.759s4.246-9.467 9.48-9.467c5.233 0 9.479 4.24 9.479 9.467Z" fill="#F94F46"/><path d="m212.597 187.598-8.587 10.92a8.34 8.34 0 0 0-1.783 5.153v17.217c0 1.75 2.409 2.216 3.067.594 2.633-6.52 6.9-14.429 12.622-16.232l-2.421-18.871-2.898 1.219Z" fill="#66B0F0"/><path d="M203.829 222.704c-.117 0-.244-.011-.35-.032-.722-.138-1.455-.742-1.455-1.77v-17.218c0-1.908.648-3.785 1.826-5.28l8.609-10.973 3.206-1.357 2.473 19.338-.17.053c-5.679 1.792-9.925 9.754-12.483 16.115-.319.795-1.009 1.124-1.656 1.124Zm8.895-34.923-8.555 10.878a8.152 8.152 0 0 0-1.741 5.025v17.218c0 .837.605 1.251 1.114 1.346.51.096 1.232-.063 1.54-.837 2.568-6.383 6.836-14.355 12.578-16.306l-2.356-18.437-2.58 1.113Zm35.497-.18 8.588 10.92a8.341 8.341 0 0 1 1.783 5.152v17.388c0 1.717-2.367 2.173-3.004.583-2.622-6.542-6.91-14.557-12.674-16.38l2.409-18.882 2.898 1.219Z" fill="#66B0F0"/><path d="M257.022 222.842c-.637 0-1.317-.318-1.624-1.113-2.569-6.425-6.837-14.461-12.547-16.264l-.17-.053.021-.18 2.452-19.158 3.206 1.357 8.619 10.963a8.61 8.61 0 0 1 1.826 5.279v17.388c0 1.007-.722 1.601-1.433 1.738a1.316 1.316 0 0 1-.35.043Zm-13.885-17.727c5.785 1.951 10.063 10.009 12.643 16.455.308.763.997.911 1.496.816.499-.095 1.094-.498 1.094-1.325v-17.388a8.16 8.16 0 0 0-1.741-5.025l-8.556-10.877-2.59-1.092-2.346 18.436Z" fill="#66B0F0"/><path d="M230.356 131.844h-.063c-10.658 1.42-31.357 36.301-9.278 80.193h18.608c22.08-43.892 1.38-78.773-9.267-80.193Z" fill="#fff"/><path d="M239.623 212.25h-18.608a.21.21 0 0 1-.191-.116c-6.635-13.2-9.936-26.527-9.809-39.631.106-10.39 2.505-20.525 6.741-28.551 1.868-3.52 4.044-6.541 6.295-8.725 2.165-2.099 4.309-3.34 6.199-3.594h.127c1.879.254 4.023 1.495 6.199 3.594 2.251 2.184 4.427 5.195 6.295 8.725 4.246 8.015 6.635 18.151 6.741 28.551.127 13.104-3.164 26.442-9.809 39.631-.021.063-.095.116-.18.116Zm-18.481-.424h18.343c6.571-13.093 9.829-26.325 9.702-39.323-.106-10.326-2.484-20.398-6.698-28.349-3.62-6.839-8.386-11.578-12.154-12.087h-.043c-3.768.509-8.545 5.259-12.154 12.087-4.214 7.962-6.592 18.023-6.698 28.349-.128 12.998 3.142 26.219 9.702 39.323Z" fill="#66B0F0"/><path d="M230.388 176.616c4.157 0 7.526-3.366 7.526-7.517 0-4.152-3.369-7.517-7.526-7.517-4.156 0-7.526 3.365-7.526 7.517 0 4.151 3.37 7.517 7.526 7.517Z" fill="#66B0F0"/><path d="M230.388 176.829c-4.267 0-7.739-3.467-7.739-7.729 0-4.262 3.472-7.729 7.739-7.729 4.267 0 7.738 3.467 7.738 7.729 0 4.262-3.471 7.729-7.738 7.729Zm0-15.034c-4.034 0-7.314 3.276-7.314 7.305s3.28 7.305 7.314 7.305c4.034 0 7.314-3.276 7.314-7.305s-3.28-7.305-7.314-7.305Z" fill="#66B0F0"/><path d="M235.653 171.378c-.021 0-.053 0-.074-.011a.217.217 0 0 1-.128-.276c.053-.137.107-.286.149-.434.096-.34.17-.7.202-1.05a.213.213 0 0 1 .424.042 5.958 5.958 0 0 1-.212 1.135 4.07 4.07 0 0 1-.159.466.225.225 0 0 1-.202.128Zm.191-3.531a.205.205 0 0 1-.202-.159 5.674 5.674 0 0 0-3.885-3.997.212.212 0 0 1-.148-.265.211.211 0 0 1 .265-.148 6.081 6.081 0 0 1 4.172 4.293.205.205 0 0 1-.149.255c-.01.021-.032.021-.053.021Z" fill="#fff"/><path d="M230.388 178.842c-5.382 0-9.755-4.368-9.755-9.743s4.373-9.743 9.755-9.743c5.382 0 9.755 4.368 9.755 9.743s-4.373 9.743-9.755 9.743Zm0-19.062c-5.149 0-9.331 4.177-9.331 9.319 0 5.142 4.182 9.319 9.331 9.319 5.148 0 9.33-4.177 9.33-9.319 0-5.142-4.182-9.319-9.33-9.319Zm12.494 61.905h-24.946a1.063 1.063 0 0 1-1.061-1.06c0-.583.477-1.061 1.061-1.061h24.946c.584 0 1.061.478 1.061 1.061s-.477 1.06-1.061 1.06Zm-12.526-89.841h-.064c-3.98.53-9.373 5.735-13.407 14.355h26.867c-4.023-8.609-9.415-13.825-13.396-14.355Zm13.502 14.567H216.79c-.032.074-.064.138-.096.212h27.26c-.032-.074-.064-.149-.096-.212Zm-.106-.212h-26.866c-.032.074-.064.138-.096.212h27.068c-.042-.074-.074-.148-.106-.212Z" fill="#66B0F0"/><path d="M231.092 144.087a.85.85 0 0 0-1.677-.272.848.848 0 0 0 1.677.272Zm7.12.711a.849.849 0 1 0 0-1.697.849.849 0 0 0 0 1.697Zm-15.743 0a.849.849 0 1 0 .002-1.694.849.849 0 0 0-.002 1.694Z" fill="#fff"/><path d="m220.951 212.047-3.673 8.863h26.273l-3.79-8.863h-18.81Z" fill="#66B0F0"/><path d="M242.797 219.152h-24.786l-.181.424h25.158l-.191-.424Zm-2.951-6.902h-18.98l-.17.424h19.33l-.18-.424Zm1.974 4.601h-22.854l-.181.424h23.216l-.181-.424Zm-.987-2.3h-20.922l-.17.424h21.272l-.18-.424Z" fill="#B0DCF7"/></g><g clip-path="url(#f)"><path d="M327.144 289.016h-37.557v-8.809h37.557v8.809Z" fill="#FFCF2D"/><path d="M289.567 279.953h37.623v.406h-37.623v-.406Zm-.046 8.752h37.624v.405h-37.624v-.405Z" fill="#9B3C82"/><path d="M323.262 280.156h.402v8.851h-.402v-8.851Zm-7.491 0h.402v8.851h-.402v-8.851Zm-8.075.099h.402v8.85h-.402v-8.85Zm-7.685 0h.402v8.85h-.402v-8.85Zm-7.193 0h.402v8.85h-.402v-8.85Z" fill="#9B3C82"/><path d="M331.335 297.906h-37.623v-8.949h37.623v8.949Z" fill="#FFCF2D"/><path d="M293.758 288.707h37.623v.405h-37.623v-.405Zm-.046 8.752h37.623v.405h-37.623v-.405Z" fill="#9B3C82"/><path d="M327.453 288.91h.402v8.851h-.402v-8.851Zm-7.49 0h.402v8.851h-.402v-8.851Zm-8.076.099h.402v8.85h-.402v-8.85Zm-7.685 0h.402v8.85h-.402v-8.85Zm-7.192 0h.402v8.85h-.402v-8.85Z" fill="#9B3C82"/><path d="M324.123 306.509h-37.579v-8.798h37.579v8.798Z" fill="#FFCF2D"/><path d="M286.546 297.457h37.623v.405h-37.623v-.405Zm-.046 8.752h37.623v.405H286.5v-.405Z" fill="#9B3C82"/><path d="M320.24 297.66h.402v8.851h-.402v-8.851Zm-7.49 0h.402v8.851h-.402v-8.851Zm-8.075.098h.401v8.851h-.401v-8.851Zm-7.686 0h.402v8.851h-.402v-8.851Zm-7.192 0h.402v8.851h-.402v-8.851Z" fill="#9B3C82"/><path d="M317.714 280.069c1.681-.236 2.878.013 3.526.197 6.74 1.915 2.054 18.615 10.383 24.68a11.05 11.05 0 0 0 3.456 1.671h-10.998a37.623 37.623 0 0 1-5.583-12.29 37.708 37.708 0 0 1-.784-14.258Z" fill="#9B3C82"/><path d="m319.493 287.677.101.464a32.979 32.979 0 0 0 2.253 6.525 20.012 20.012 0 0 0 .197.418 32.727 32.727 0 0 0 3.435 5.661c.096.126.193.252.292.376 1.639 2.081 3.417 3.732 5.176 4.832.146.092.293.18.442.265.001.002.004.003.006.004l.029.018c2.285 1.302 4.515 1.651 6.343.782l4.502-2.14.91-.432 1.652-.786c4.589-2.18 4.918-11.209.736-20.167-4.182-8.957-11.293-14.451-15.881-12.269l-1.649.783h-.001v.001l-.909.432-.001.001-4.503 2.14c-1.829.87-2.981 2.826-3.441 5.432-.033.184-.062.369-.086.554-.28 2.07-.149 4.505.397 7.106Z" fill="#FFCF2D"/><path d="M325.448 278.395c-.093 1.932.103 4.023.569 6.18.032.154.067.309.103.463a33.67 33.67 0 0 0 2.307 6.606l.157.331a33.51 33.51 0 0 0 3.71 6.044c1.352 1.734 2.825 3.22 4.361 4.378a16 16 0 0 0 .709.506c.149.102.3.201.453.298 1.546.974 3.051 1.539 4.452 1.68l.91-.432a5.642 5.642 0 0 1-.469-.001c-4.575-.185-10.297-5.355-13.868-13.003-3.693-7.911-3.895-15.926-.806-19.433l-.909.432-.001.001c-.785 1.179-1.312 2.711-1.552 4.534a16.331 16.331 0 0 0-.126 1.416Z" fill="#9B3C82"/><path d="m321.751 294.71 6.819-3.242.196.419-6.819 3.242-.196-.419Zm9.196 11.245 6.417-3.05.34-.162.196.42-.083.04-6.393 3.038-.477-.286Zm-5.468-5.209c.096.127.193.252.291.376l6.524-3.101.065-.032-.196-.419-.157.075-6.527 3.101Zm-6.297-20.728 6.392-3.037.083-.04.195.42-.34.162-6.416 3.05.086-.555Zm.311 7.66 6.523-3.101.066-.031.196.42-.158.074-6.526 3.102-.101-.464Zm8.21-8.293c.019 3.364 1.03 7.359 2.847 11.253 1.818 3.892 4.229 7.224 6.787 9.379 1.805 1.521 3.542 2.334 5.058 2.396a3.94 3.94 0 0 0 1.872-.366c1.864-.886 2.88-3.26 2.861-6.684-.017-3.363-1.029-7.359-2.847-11.253-1.817-3.892-4.227-7.224-6.785-9.378-2.605-2.195-5.067-2.917-6.931-2.031-1.864.886-2.88 3.26-2.862 6.684Zm3.058-6.264a3.489 3.489 0 0 1 1.663-.323c1.411.057 3.051.835 4.777 2.289 2.509 2.113 4.875 5.388 6.665 9.222 1.79 3.833 2.785 7.759 2.803 11.056.017 3.234-.905 5.458-2.597 6.262-1.694.805-3.981.107-6.441-1.967-2.508-2.112-4.875-5.387-6.664-9.22-1.79-3.834-2.786-7.76-2.804-11.056-.018-3.235.906-5.459 2.598-6.263Z" fill="#9B3C82"/><path d="M338.502 297.695a.227.227 0 0 1-.299.047.234.234 0 0 1-.087-.292c1.886-4.153 3.594-8.349 2.015-10.05-1.058-1.14-2.156-.578-3.319.018-1.058.541-2.151 1.101-3.074.107-1.17-1.26-1.655-4.188 2.676-10.981a.227.227 0 0 1 .317-.069.232.232 0 0 1 .069.32c-3.254 5.104-4.222 8.802-2.727 10.413.654.705 1.388.382 2.531-.204 1.144-.586 2.569-1.315 3.863.079 1.773 1.911.017 6.264-1.933 10.56a.197.197 0 0 1-.032.052Z" fill="#9B3C82"/><path d="M334.459 280.65a.226.226 0 0 1-.092.067.237.237 0 0 1-.112.015.234.234 0 0 1-.105-.041.237.237 0 0 1-.073-.087l-1.585-3.23a.227.227 0 0 1-.012-.177.238.238 0 0 1 .116-.134.234.234 0 0 1 .175-.012.234.234 0 0 1 .133.117l1.584 3.23a.23.23 0 0 1-.029.252Zm7.567 16.871a.226.226 0 0 1-.092.066.214.214 0 0 1-.112.015.242.242 0 0 1-.106-.041.24.24 0 0 1-.073-.088l-1.676-3.471a.236.236 0 0 1-.008-.175.229.229 0 0 1 .116-.13.226.226 0 0 1 .173-.012c.057.019.104.06.132.114l1.676 3.471a.232.232 0 0 1-.03.251Z" fill="#9B3C82"/></g></g><g clip-path="url(#g)"><path d="M315.387 52.138c-12.155.917-23.441 6.694-31.344 16.044l-.295.355c-16.307 19.58-13.773 48.771 5.66 65.201a45.704 45.704 0 0 0 33.078 10.69 45.38 45.38 0 0 0 20.054-6.415 45.081 45.081 0 0 0 6.686-4.926 40.779 40.779 0 0 0 2.067-1.948 45.518 45.518 0 0 0 2.539-2.753l.294-.351c16.307-19.58 13.774-48.773-5.659-65.206a45.708 45.708 0 0 0-33.08-10.69m31.693 69.938-.233.281c-13.195 15.53-36.385 17.342-51.799 4.048-7.403-6.385-11.985-15.471-12.737-25.261a36.933 36.933 0 0 1 8.482-26.65l.236-.284c13.2-15.525 36.392-17.33 51.801-4.031 15.295 13.201 17.191 36.348 4.25 51.897" fill="#fff"/><path d="M345.55 134.817c2-1.294 3.909-2.723 5.717-4.277l11.238 14.63c.094.127.18.26.256.399.97 1.722.37 3.91-1.339 4.886a3.537 3.537 0 0 1-4.265-.577 3.562 3.562 0 0 1-.328-.376l-11.279-14.685Z" fill="#fff"/><path d="M403.041 201.538a7.304 7.304 0 0 1-10.485-1.827l-39.472-50.336a2.063 2.063 0 0 1 .468-2.8l6.539-4.901a2.026 2.026 0 0 1 2.795.353l41.433 48.868c2.582 3.149 2.14 7.81-.986 10.411-.095.08-.193.157-.292.232Z" fill="#5B2448"/></g><defs><clipPath id="a"><path fill="#fff" transform="translate(81 121)" d="M0 0h300v200H0z"/></clipPath><clipPath id="b"><path fill="#fff" transform="translate(161.75 182.25)" d="M0 0h148v120H0z"/></clipPath><clipPath id="c"><path fill="#fff" transform="rotate(-43.979 335.48 56.265)" d="M0 0h148.5v149.25H0z"/></clipPath><clipPath id="d"><path fill="#fff" transform="translate(243.5 222.75)" d="M0 0h107.5v58.75H0z"/></clipPath><clipPath id="e"><path fill="#fff" transform="translate(176.75 123.5)" d="M0 0h107v192.5H0z"/></clipPath><clipPath id="f"><path fill="#fff" transform="translate(286.5 270.75)" d="M0 0h62v36.75H0z"/></clipPath><clipPath id="g"><path fill="#fff" transform="rotate(-90 238 -35)" d="M0 0h151v133H0z"/></clipPath></defs></svg>