<svg width="80" height="80" fill="none" xmlns="http://www.w3.org/2000/svg"><rect width="80" height="80" rx="8" fill="#FEF8E6"/><g clip-path="url(#a)"><path d="M50.578 39.879H9.386v-9.582h41.192v9.582Z" fill="#FFCF2D"/><path d="M9.364 30.023h41.264v.442H9.364v-.442Zm-.05 9.52h41.264v.441H9.314v-.441Z" fill="#9B3C82"/><path d="M46.32 30.242h.44v9.628h-.44v-9.628Zm-8.216 0h.44v9.628h-.44v-9.628Zm-8.857.11h.441v9.628h-.44v-9.628Zm-8.429 0h.441v9.628h-.44v-9.628Zm-7.888 0h.44v9.628h-.44v-9.628Z" fill="#9B3C82"/><path d="M55.174 49.55H13.91v-9.734h41.264v9.735Z" fill="#FFCF2D"/><path d="M13.96 39.543h41.264v.441H13.96v-.441Zm-.05 9.52h41.264v.44H13.91v-.44Z" fill="#9B3C82"/><path d="M50.916 39.766h.44v9.628h-.44v-9.628Zm-8.216 0h.441v9.628h-.44v-9.628Zm-8.856.105h.44V49.5h-.44v-9.628Zm-8.429 0h.44V49.5h-.44v-9.628Zm-7.889 0h.441V49.5h-.44v-9.628Z" fill="#9B3C82"/><path d="M47.264 58.91H6.049v-9.57h41.215v9.57Z" fill="#FFCF2D"/><path d="M6.05 49.066h41.264v.441H6.05v-.44ZM6 58.586h41.264v.441H6v-.441Z" fill="#9B3C82"/><path d="M43.006 49.285h.44v9.628h-.44v-9.628Zm-8.216 0h.441v9.628h-.44v-9.628Zm-8.856.11h.44v9.628h-.44v-9.629Zm-8.429 0h.44v9.628h-.44v-9.629Zm-7.889 0h.441v9.628h-.44v-9.629Z" fill="#9B3C82"/><path d="M40.235 30.152c1.843-.257 3.156.014 3.867.214 7.393 2.084 2.254 20.25 11.388 26.848a12.164 12.164 0 0 0 3.79 1.818H47.218a40.778 40.778 0 0 1-6.124-13.37 40.707 40.707 0 0 1-.86-15.51Z" fill="#9B3C82"/><path d="m42.186 38.426.11.504c.526 2.295 1.349 4.698 2.471 7.099l.044.094c.057.12.114.241.172.36a35.55 35.55 0 0 0 3.768 6.159c.106.138.212.274.32.408 1.798 2.264 3.748 4.06 5.678 5.257.162.102.323.197.483.288l.007.005.033.02c2.506 1.415 4.951 1.796 6.956.85l4.938-2.328.997-.47 1.812-.855c5.034-2.372 5.395-12.194.808-21.939-4.587-9.743-12.385-15.72-17.418-13.346l-1.808.851-.001.001v.001l-.998.47h-.001l-4.939 2.328c-2.006.947-3.27 3.075-3.773 5.91a13.58 13.58 0 0 0-.095.603c-.307 2.251-.163 4.9.436 7.73Z" fill="#FFCF2D"/><path d="M48.717 28.326c-.102 2.102.113 4.378.624 6.723a36.397 36.397 0 0 0 2.6 7.596 38.51 38.51 0 0 0 .216.455 36.351 36.351 0 0 0 4.069 6.575c1.482 1.886 3.098 3.503 4.783 4.762a18.073 18.073 0 0 0 1.274.875c1.695 1.059 3.347 1.674 4.883 1.828l.998-.47a6.69 6.69 0 0 1-.515-.002c-5.017-.2-11.293-5.825-15.21-14.145-4.05-8.605-4.272-17.325-.883-21.14l-.998.47c-.861 1.284-1.44 2.95-1.702 4.933a18.257 18.257 0 0 0-.138 1.54Z" fill="#9B3C82"/><path d="m44.662 46.074 7.48-3.526.214.456-7.479 3.527-.215-.457Zm10.087 12.232 7.037-3.318.373-.175.215.456-.09.043-7.012 3.306-.523-.312Zm-5.998-5.663c.106.138.212.274.32.408l7.155-3.373.072-.035-.216-.456-.172.081-7.159 3.375Zm-6.906-22.55 7.01-3.304.091-.043.215.457-.373.176-7.038 3.317.095-.603Zm.341 8.33 7.154-3.374.072-.033.215.456-.172.081-7.158 3.375-.111-.505Zm9.004-9.019c.02 3.658 1.13 8.005 3.123 12.24 1.994 4.234 4.637 7.859 7.443 10.203 1.98 1.655 3.885 2.54 5.548 2.606a4.352 4.352 0 0 0 2.054-.397c2.044-.964 3.158-3.547 3.138-7.272-.02-3.658-1.13-8.005-3.123-12.24-1.994-4.235-4.636-7.86-7.442-10.203-2.858-2.388-5.557-3.172-7.601-2.21-2.045.965-3.159 3.547-3.14 7.273Zm3.354-6.816a3.86 3.86 0 0 1 1.824-.35c1.547.061 3.347.908 5.24 2.49 2.75 2.298 5.346 5.86 7.31 10.031 1.962 4.17 3.054 8.441 3.074 12.028.019 3.517-.993 5.937-2.85 6.812-1.856.876-4.365.116-7.063-2.14-2.75-2.298-5.346-5.86-7.31-10.03-1.962-4.17-3.055-8.442-3.074-12.028-.02-3.518.993-5.938 2.85-6.813Z" fill="#9B3C82"/><path d="M63.034 49.325a.252.252 0 0 1-.422-.267c2.067-4.518 3.94-9.083 2.21-10.933-1.161-1.24-2.366-.629-3.641.019-1.16.59-2.36 1.198-3.371.117-1.283-1.371-1.816-4.557 2.935-11.946a.252.252 0 0 1 .424.273c-3.57 5.552-4.632 9.575-2.992 11.328.717.766 1.522.415 2.776-.222 1.255-.637 2.817-1.43 4.237.086 1.944 2.078.019 6.814-2.12 11.488a.258.258 0 0 1-.036.056Z" fill="#9B3C82"/><path d="M58.6 30.78a.251.251 0 0 1-.42-.05l-1.738-3.514a.252.252 0 1 1 .452-.224l1.738 3.514c.046.093.03.2-.032.274Zm8.3 18.352a.252.252 0 0 1-.42-.051l-1.84-3.777a.252.252 0 0 1 .454-.22l1.838 3.775a.252.252 0 0 1-.033.273Z" fill="#9B3C82"/></g><defs><clipPath id="a"><path fill="#fff" transform="translate(6 20)" d="M0 0h68v40H0z"/></clipPath></defs></svg>