<svg width="80" height="80" fill="none" xmlns="http://www.w3.org/2000/svg"><rect width="80" height="80" rx="8" fill="#E6F8EF"/><g clip-path="url(#a)"><path d="M42.789 13.507a.736.736 0 0 1 .09.114l.556.816.466.679c.234.344.264.797.121 1.296a3.072 3.072 0 0 1-.184.478 4.82 4.82 0 0 1-.72 1.074 7.534 7.534 0 0 1-1.406 1.248c-.068.045-.133.092-.2.137-.357.228-.714.42-1.065.575a5.538 5.538 0 0 1-.4.16 5.03 5.03 0 0 1-1.26.289c-.188.007-.357.01-.517-.006-.514-.045-.926-.235-1.16-.579l-.459-.668-.568-.823-.024-.037c-.613-.982.365-2.783 2.217-4.058 1.796-1.242 3.765-1.532 4.513-.695Z" fill="#FFCF2D"/><path d="M42.789 13.506a.73.73 0 0 1 .09.114l.556.816c-.01.09-.023.178-.041.27a3.29 3.29 0 0 1-.167.549l.794 1.16a3.056 3.056 0 0 1-.184.478l-.819-1.198a5.715 5.715 0 0 1-.745 1.042l.844 1.23a5.47 5.47 0 0 1-.292.319l-.848-1.236a8.138 8.138 0 0 1-.969.823l.851 1.24a1.505 1.505 0 0 1-.148.103c-.068.045-.132.091-.2.136l-.852-1.24c-.35.224-.704.42-1.06.58l.843 1.235a5.557 5.557 0 0 1-.4.16l-.84-1.23a5.74 5.74 0 0 1-1.24.32l.817 1.189a3.1 3.1 0 0 1-.51 0l-.79-1.155a2.904 2.904 0 0 1-.832-.093l-.564-.822-.024-.037c.309.424.927.6 1.747.508.884-.101 1.882-.508 2.808-1.143.925-.636 1.66-1.425 2.072-2.215.39-.75.438-1.406.136-1.846l-.033-.057Z" fill="#9C3C82"/><path d="M40.83 13.37c-.754.128-1.604.502-2.403 1.05-1.719 1.179-2.613 2.77-2.03 3.613.297.435.92.59 1.75.44.733-.132 1.564-.505 2.343-1.043 1.206-.829 2.003-1.855 2.173-2.687.072-.354.033-.672-.143-.922-.294-.43-.894-.589-1.69-.45Zm1.385.653c.448.652-.442 2.07-1.936 3.104-1.493 1.03-3.137 1.35-3.581.699-.112-.164-.14-.384-.087-.643.047-.227.153-.479.322-.75.368-.599.975-1.208 1.7-1.707.736-.506 1.521-.856 2.206-.98a.216.216 0 0 1 .052-.008c.637-.116 1.124-.007 1.324.285Z" fill="#9C3C82"/><path d="m41.049 14.43-.515.36c-.55-.09-1.092-.041-1.292.205-.067.082-.192.312.094.648.16.193.233.372.18.456-.08.12-.519.245-1.663-.075a.18.18 0 0 0-.098.344c.134.037.263.072.385.097l-.276.194a.175.175 0 0 0-.073.113.179.179 0 0 0 .276.184l.568-.399c.62.082 1.016-.006 1.182-.264.148-.234.075-.545-.206-.88-.088-.105-.106-.173-.087-.196.06-.075.295-.136.69-.105.38.028.776.136 1.06.285.04.022.09.028.133.014a.186.186 0 0 0 .105-.088c.008-.017.016-.033.018-.047a.175.175 0 0 0-.092-.192 2.474 2.474 0 0 0-.44-.181l.255-.18a.176.176 0 0 0 .073-.113v-.004a.18.18 0 0 0-.027-.133.194.194 0 0 0-.117-.075.203.203 0 0 0-.133.032Z" fill="#9C3C82"/></g><g clip-path="url(#b)"><path d="M41.343 53.072c7.83 0 14.177-5.277 14.177-11.786 0-6.51-6.347-11.786-14.177-11.786-7.83 0-14.178 5.277-14.178 11.786 0 6.51 6.348 11.786 14.178 11.786Z" fill="#FFCF2D"/><path d="M43.423 29.835s3.586-3.626 6.312-3.483c2.725.143 1.927 8.627 1.927 8.627l-8.239-5.144Zm14.25 13.71c.21-.335.377-.931.377-2.267 0-1.193-.144-1.88-.378-2.253-.478-.763-1.626-.954-3.538-1.622v7.764c1.912-.668 3.06-.86 3.538-1.623Zm-29.838-5.407s-2.2 1.002-2.152 2.624c.048 1.623 3.347 2.53 3.347 2.53l-1.195-5.154Zm7.794 16.653h-1.243a2.434 2.434 0 0 1-2.439-2.433v-3.054h6.12v3.054a2.434 2.434 0 0 1-2.438 2.433Zm13.15 0h-1.244a2.434 2.434 0 0 1-2.438-2.433v-3.054h6.12v3.054a2.434 2.434 0 0 1-2.439 2.433Z" fill="#FFCF2D"/><path d="M33.955 33.725a.367.367 0 0 1-.3-.162.356.356 0 0 1 .1-.496c.038-.024.98-.644 2.524-1.179 1.425-.491 3.653-.997 6.173-.61a.36.36 0 0 1 .302.405.36.36 0 0 1-.407.3c-2.367-.362-4.466.11-5.81.573-1.463.501-2.376 1.098-2.386 1.107a.32.32 0 0 1-.196.062Z" fill="#5B2448"/><path d="M47.234 52.21a.186.186 0 0 0-.244-.115c-.612.22-1.238.406-1.874.549.014.129.038.253.076.377a16.92 16.92 0 0 0 1.932-.568c.095-.034.143-.143.11-.244Zm-11.376.1c-.038.1.015.205.115.243.641.234 1.3.425 1.97.573a2.42 2.42 0 0 0 .091-.368 15.96 15.96 0 0 1-1.932-.563.188.188 0 0 0-.243.115ZM55.32 37.794c-.154-.048-.311-.1-.474-.153a9.871 9.871 0 0 1 0 7.287c.163-.053.32-.105.474-.153.401-1.117.607-2.285.607-3.488 0-1.203-.21-2.371-.607-3.493Zm-7.422-9.958a.194.194 0 0 1-.167-.096.19.19 0 0 1 .072-.262 3.671 3.671 0 0 1 1.84-.501c.106 0 .192.085.187.195a.188.188 0 0 1-.191.186h-.005a3.27 3.27 0 0 0-1.645.449.17.17 0 0 1-.09.029Zm-.99.563a.199.199 0 0 1-.162-.091.191.191 0 0 1 .057-.262 8.9 8.9 0 0 1 .335-.2.195.195 0 0 1 .263.07c.053.091.02.21-.072.263-.119.067-.22.129-.32.191a.188.188 0 0 1-.1.029Zm4.935 6.77h.024a.187.187 0 0 0 .187-.166c.043-.353.072-.83.095-1.346-.12-.114-.243-.234-.368-.343-.024.63-.057 1.226-.105 1.64a.194.194 0 0 0 .167.216Z" fill="#fff"/><path d="M50.034 40.05c.528-.004.951-.544.945-1.206-.006-.661-.44-1.194-.967-1.189-.529.005-.952.545-.946 1.207.006.661.44 1.194.968 1.189Z" fill="#5B2448"/></g><g clip-path="url(#c)"><path d="M18.22 61.992h40.885v6.673H18.22v-6.673Z" fill="#21A0AA"/><path d="M59.248 61.82a.232.232 0 0 0-.143-.054H18.22a.22.22 0 0 0-.221.22v6.661c0 .121.1.22.22.22h40.885a.22.22 0 0 0 .22-.22v-6.65a.26.26 0 0 0-.077-.176Zm-.364 6.618H18.441v-6.222h40.443v6.222Z" fill="#5B2448"/><path d="M59.105 64.37H51.95a.22.22 0 0 1-.22-.22.22.22 0 0 1 .22-.22h7.154a.22.22 0 0 1 .22.22c0 .12-.099.22-.22.22Zm-29.861 1.813L18.22 66.04a.22.22 0 0 1-.221-.22c0-.12.1-.22.22-.22l11.024.144a.22.22 0 0 1 .22.22c0 .12-.1.22-.22.22Z" fill="#5B2448"/><path d="M33.08 61.598h11.552v7.277H33.08v-7.277Z" fill="#66B0F0"/><path d="M20.723 55.375h40.884v6.673H20.723v-6.673Z" fill="#21A0AA"/><path d="M61.607 55.156H20.723a.22.22 0 0 0-.22.22v6.662c0 .066.032.132.076.165a.21.21 0 0 0 .144.055h40.884a.22.22 0 0 0 .22-.22v-6.662c0-.12-.099-.22-.22-.22Zm-.22 6.662H20.943v-6.222h40.444v6.222Z" fill="#5B2448"/><path d="M61.607 57.752h-7.154a.22.22 0 0 1-.22-.22c0-.12.099-.22.22-.22h7.154a.22.22 0 0 1 .22.22.22.22 0 0 1-.22.22Zm-29.861 1.814-11.023-.143a.22.22 0 0 1-.22-.22c0-.12.098-.22.22-.22l11.023.143a.22.22 0 0 1 .22.22c0 .132-.1.22-.22.22Z" fill="#5B2448"/><path d="M35.582 55.156h11.552v7.003H35.582v-7.003Z" fill="#66B0F0"/><path d="M47.321 62.268h-11.74a.22.22 0 0 1-.22-.22c0-.12.1-.22.22-.22h11.74a.22.22 0 0 1 .22.22c0 .12-.099.22-.22.22Z" fill="#5B2448"/></g><defs><clipPath id="a"><path fill="#fff" transform="rotate(-78.434 29.93 -11.626)" d="M0 0h8.194v8.269H0z"/></clipPath><clipPath id="b"><path fill="#fff" transform="translate(25.564 26.203)" d="M0 0h32.63v28.773H0z"/></clipPath><clipPath id="c"><path fill="#fff" transform="translate(18 54.98)" d="M0 0h43.828v14.016H0z"/></clipPath></defs></svg>