<svg width="157" height="20" fill="none" xmlns="http://www.w3.org/2000/svg"><path d="M7.644 19.228c-4.289 0-7.274-2.3-7.644-5.926h3.479c.362 1.825 2.029 2.944 4.374 2.944 1.936 0 3.085-.767 3.085-2.078 0-1.042-.771-1.71-2.314-1.978l-2.908-.575C2.33 10.948.748 9.315.748 6.586c0-3.312 2.677-5.535 6.665-5.535 1.543 0 6.68.406 7.25 5.512h-3.478c-.224-1.25-1.034-2.66-3.54-2.66-2.006 0-3.248.897-3.248 2.338s1.28 1.924 2.669 2.208l2.198.445c3.718.766 5.307 2.223 5.307 4.853 0 3.327-2.715 5.481-6.927 5.481Zm15.327.024a6.384 6.384 0 0 1-4.716-1.806 6.308 6.308 0 0 1-1.433-2.133 6.275 6.275 0 0 1-.461-2.524 6.17 6.17 0 0 1 1.813-4.676 6.275 6.275 0 0 1 4.697-1.818c3.595 0 6.11 2.56 6.11 6.233.005.34-.013.682-.055 1.02h-9.349v.176a3.162 3.162 0 0 0 1.156 2.044 3.2 3.2 0 0 0 2.254.693 2.513 2.513 0 0 0 2.206-.943h3.51c-.71 2.247-3.009 3.734-5.732 3.734Zm-.077-10.266a3.098 3.098 0 0 0-2.095.66 3.063 3.063 0 0 0-1.121 1.878l-.047.192h6.063v-.177a2.633 2.633 0 0 0-.874-1.875 2.664 2.664 0 0 0-1.964-.678h.038ZM36.47 19.123a6.274 6.274 0 0 1-4.375-1.91 6.198 6.198 0 0 1-1.742-4.423 6.1 6.1 0 0 1 1.705-4.467 6.204 6.204 0 0 1 4.412-1.896 6.292 6.292 0 0 1 3.471.966l.24.153v-.858h3.34v12.174h-3.333v-.858l-.24.153a6.293 6.293 0 0 1-3.478.966Zm.602-9.967a3.512 3.512 0 0 0-2.472 1.101 3.47 3.47 0 0 0-.938 2.526 3.423 3.423 0 0 0 .951 2.494 3.463 3.463 0 0 0 2.459 1.07 3.708 3.708 0 0 0 1.728-.368 3.683 3.683 0 0 0 1.357-1.126V10.69a3.635 3.635 0 0 0-1.35-1.15 3.66 3.66 0 0 0-1.735-.376v-.008Zm9.202 9.707V6.69h3.34v1.617l.255-.237a5.999 5.999 0 0 1 4.15-1.572v3.136a5.995 5.995 0 0 0-4.366 1.84v7.405l-3.379-.016Zm15.166.289a6.436 6.436 0 0 1-4.528-1.863 6.33 6.33 0 0 1 0-9 6.437 6.437 0 0 1 4.527-1.864c3.21 0 5.709 1.994 6.171 4.877h-3.347a2.723 2.723 0 0 0-1.046-1.477 2.75 2.75 0 0 0-1.747-.501 3.303 3.303 0 0 0-2.412 1.017 3.262 3.262 0 0 0-.897 2.448 3.194 3.194 0 0 0 .89 2.445 3.233 3.233 0 0 0 2.42.99 2.705 2.705 0 0 0 1.747-.481c.51-.357.879-.878 1.045-1.474h3.347c-.462 2.882-2.985 4.883-6.17 4.883Zm17.278-.292v-6.386c0-2.04-1.041-3.205-2.854-3.205a3.952 3.952 0 0 0-2.877 1.618l-.038.046v7.927h-3.333V.637h3.332v7.076l.255-.2a5.459 5.459 0 0 1 3.494-1.241c3.255 0 5.354 2.3 5.354 5.865v6.7l-3.333.023Zm19.592.002-1.388-3.412h-8.284l-1.396 3.412h-3.695l7.552-17.518h3.355l7.529 17.518h-3.672Zm-8.407-6.524h5.754L92.75 5.292l-2.846 7.046Zm18.243 6.916c-1.998 0-5.4-.575-5.762-4.408h3.039c.247 1.227 1.172 1.855 2.746 1.855 1.389 0 2.314-.483 2.314-1.226 0-.598-.509-1.035-1.365-1.166l-2.7-.467c-1.334-.238-3.571-1.013-3.571-3.527 0-2.515 2.021-3.987 5.276-3.987 1.543 0 5.099.383 5.469 3.94h-3.024c-.147-.98-1.041-1.533-2.445-1.533s-2.014.66-2.014 1.22c0 .39.209 1.073 1.62 1.326l2.314.368c2.469.437 3.672 1.595 3.672 3.519-.062 2.53-2.167 4.086-5.569 4.086Zm12.565 0c-2.005 0-5.399-.575-5.762-4.408h3.032c.247 1.227 1.172 1.855 2.753 1.855 1.381 0 2.276-.483 2.276-1.226 0-.598-.509-1.035-1.358-1.166l-2.699-.467c-1.335-.238-3.572-1.013-3.572-3.527 0-2.515 2.021-3.987 5.276-3.987 1.543 0 5.099.383 5.469 3.94h-3.023c-.147-.98-1.049-1.533-2.446-1.533-1.396 0-2.021.66-2.021 1.22 0 .39.216 1.073 1.628 1.326l2.314.368c2.468.437 3.672 1.595 3.672 3.519-.031 2.53-2.145 4.086-5.539 4.086Zm7.783-.392V6.687h3.341v12.175h-3.341Zm1.697-14.804a1.961 1.961 0 0 1-1.892-1.169 1.93 1.93 0 0 1-.159-.763c0-.537.214-1.052.596-1.432a2.043 2.043 0 0 1 2.88 0c.382.38.596.895.596 1.432a1.915 1.915 0 0 1-.596 1.394 1.946 1.946 0 0 1-1.425.538Zm9.373 15.196c-1.998 0-5.4-.575-5.754-4.408h3.031c.247 1.227 1.173 1.855 2.746 1.855 1.389 0 2.314-.483 2.314-1.226 0-.598-.509-1.035-1.365-1.166l-2.7-.467c-1.327-.238-3.564-1.013-3.564-3.527 0-2.515 2.021-3.987 5.269-3.987 1.543 0 5.099.383 5.469 3.94h-3.024c-.139-.98-1.041-1.533-2.445-1.533s-2.013.66-2.013 1.22c0 .39.208 1.073 1.619 1.326l2.315.368c2.476.437 3.671 1.595 3.671 3.519-.061 2.53-2.167 4.086-5.569 4.086Zm13.768 0c-2.97 0-4.883-2.047-4.883-5.213v-4.6h-2.645V6.689h2.645V2.227h3.31v4.462h4.535v2.737h-4.535v4.6c0 1.41.856 2.215 2.36 2.215a8.606 8.606 0 0 0 1.998-.299l.424 2.799a9.306 9.306 0 0 1-3.209.513Z" fill="#222"/></svg>