<svg width="56" height="56" fill="none" xmlns="http://www.w3.org/2000/svg"><path d="M55.538 14.72v36.8a3.67 3.67 0 0 1-1.085 2.602 3.714 3.714 0 0 1-2.618 1.078H14.81c-3.928 0-7.695-1.55-10.472-4.311A14.675 14.675 0 0 1 0 40.48V14.72c0-3.904 1.56-7.648 4.338-10.409A14.856 14.856 0 0 1 14.81 0h25.917c3.928 0 7.695 1.55 10.473 4.311a14.674 14.674 0 0 1 4.337 10.409Z" fill="#FAB900"/><path d="m42.579 38.643-5.831-5.796a12.678 12.678 0 0 0 2.129-7.084c0-2.548-.76-5.038-2.184-7.156a12.942 12.942 0 0 0-5.816-4.744 13.033 13.033 0 0 0-7.487-.733 12.984 12.984 0 0 0-6.636 3.525 12.856 12.856 0 0 0-3.546 6.595c-.5 2.498-.243 5.088.737 7.442a12.897 12.897 0 0 0 4.773 5.78 13.015 13.015 0 0 0 7.2 2.17 12.86 12.86 0 0 0 7.127-2.115l5.831 5.796a2.626 2.626 0 0 0 3.703 0 2.594 2.594 0 0 0 0-3.68Zm-8.534-8.483a9.339 9.339 0 0 1-3.703 3.68 9.17 9.17 0 0 1-4.424 1.123c-1.831 0-3.62-.54-5.143-1.55a9.213 9.213 0 0 1-3.409-4.13 9.148 9.148 0 0 1-.527-5.315 9.184 9.184 0 0 1 2.534-4.71 9.274 9.274 0 0 1 4.739-2.518 9.31 9.31 0 0 1 5.348.523 9.245 9.245 0 0 1 4.154 3.389 9.16 9.16 0 0 1 1.56 5.11 9.027 9.027 0 0 1-1.13 4.398Z" fill="#fff"/><path d="M27.233 27.068a1.855 1.855 0 0 1-2.024.404 1.832 1.832 0 0 1-1.141-1.71c0-.488-.195-.956-.543-1.301a1.857 1.857 0 0 0-2.617 0 1.834 1.834 0 0 0-.543 1.3 5.496 5.496 0 0 0 .938 3.065 5.547 5.547 0 0 0 2.491 2.031 5.585 5.585 0 0 0 6.05-1.194 1.833 1.833 0 0 0-.097-2.498 1.857 1.857 0 0 0-2.514-.097Z" fill="#fff"/></svg>