<svg width="14" height="14" fill="none" xmlns="http://www.w3.org/2000/svg"><path d="M9 6.334v.006M2.448 4.586a2 2 0 1 1 3.104-.918" stroke="#44474C" stroke-width="1.5" stroke-linecap="round" stroke-linejoin="round"/><path d="M9.666 1.668v2.535a4.012 4.012 0 0 1 1.772 2.132h.894A.667.667 0 0 1 13 7v1.334a.666.666 0 0 1-.667.666h-.894a4.01 4.01 0 0 1-1.106 1.649V12a1 1 0 1 1-2 0v-.388c-.22.037-.443.055-.666.055H4.999c-.223 0-.446-.018-.667-.055V12a1 1 0 1 1-2 0v-1.333l.001-.018a4 4 0 0 1 2.666-6.982h1.667l3-2h0Z" stroke="#44474C" stroke-width="1.5" stroke-linecap="round" stroke-linejoin="round"/></svg>