<?xml version="1.0" encoding="UTF-8" standalone="no"?>
<!DOCTYPE svg PUBLIC "-//W3C//DTD SVG 1.1//EN"
 "http://www.w3.org/Graphics/SVG/1.1/DTD/svg11.dtd">
<!-- Generated by graphviz version 5.0.0 (20220707.1540)
 -->
<!-- Title: dependencies Pages: 1 -->
<svg width="781pt" height="247pt"
 viewBox="0.00 0.00 781.00 246.80" xmlns="http://www.w3.org/2000/svg" xmlns:xlink="http://www.w3.org/1999/xlink">
<g id="graph0" class="graph" transform="scale(1 1) rotate(0) translate(4 242.8)">
<title>dependencies</title>
<polygon fill="white" stroke="transparent" points="-4,4 -4,-242.8 777,-242.8 777,4 -4,4"/>
<text text-anchor="middle" x="386.5" y="-8.2" font-family="sans-serif" font-size="14.00">dependencies</text>
<g id="clust1" class="cluster">
<title>cluster_SharedPipesModule</title>
<polygon fill="none" stroke="black" stroke-dasharray="1,5" points="8,-32.8 8,-230.8 765,-230.8 765,-32.8 8,-32.8"/>
</g>
<g id="clust2" class="cluster">
<title>cluster_SharedPipesModule_declarations</title>
<polygon fill="none" stroke="black" points="29,-40.8 29,-92.8 748,-92.8 748,-40.8 29,-40.8"/>
</g>
<g id="clust10" class="cluster">
<title>cluster_SharedPipesModule_exports</title>
<polygon fill="none" stroke="black" points="16,-170.8 16,-222.8 757,-222.8 757,-170.8 16,-170.8"/>
</g>
<!-- DateFormatPipe -->
<g id="node1" class="node">
<title>DateFormatPipe</title>
<polygon fill="#ffffb3" stroke="black" points="739.76,-84.8 632.24,-84.8 632.24,-48.8 739.76,-48.8 739.76,-84.8"/>
<text text-anchor="middle" x="686" y="-62.6" font-family="Times,serif" font-size="14.00">DateFormatPipe</text>
</g>
<!-- SharedPipesModule -->
<g id="node7" class="node">
<title>SharedPipesModule</title>
<polygon fill="#8dd3c7" stroke="black" points="426.27,-149.8 423.27,-153.8 402.27,-153.8 399.27,-149.8 297.73,-149.8 297.73,-113.8 426.27,-113.8 426.27,-149.8"/>
<text text-anchor="middle" x="362" y="-127.6" font-family="Times,serif" font-size="14.00">SharedPipesModule</text>
</g>
<!-- DateFormatPipe&#45;&gt;SharedPipesModule -->
<g id="edge1" class="edge">
<title>DateFormatPipe&#45;&gt;SharedPipesModule</title>
<path fill="none" stroke="black" d="M705.71,-85.07C705.71,-103.36 705.71,-128.8 705.71,-128.8 705.71,-128.8 436.65,-128.8 436.65,-128.8"/>
<polygon fill="black" stroke="black" points="436.65,-125.3 426.65,-128.8 436.65,-132.3 436.65,-125.3"/>
</g>
<!-- FilterPipe -->
<g id="node2" class="node">
<title>FilterPipe</title>
<polygon fill="#ffffb3" stroke="black" points="614.72,-84.8 543.28,-84.8 543.28,-48.8 614.72,-48.8 614.72,-84.8"/>
<text text-anchor="middle" x="579" y="-62.6" font-family="Times,serif" font-size="14.00">FilterPipe</text>
</g>
<!-- FilterPipe&#45;&gt;SharedPipesModule -->
<g id="edge2" class="edge">
<title>FilterPipe&#45;&gt;SharedPipesModule</title>
<path fill="none" stroke="black" d="M591.29,-84.81C591.29,-100.85 591.29,-121.8 591.29,-121.8 591.29,-121.8 436.48,-121.8 436.48,-121.8"/>
<polygon fill="black" stroke="black" points="436.48,-118.3 426.48,-121.8 436.48,-125.3 436.48,-118.3"/>
</g>
<!-- MultiFilterPipe -->
<g id="node3" class="node">
<title>MultiFilterPipe</title>
<polygon fill="#ffffb3" stroke="black" points="525.34,-84.8 422.66,-84.8 422.66,-48.8 525.34,-48.8 525.34,-84.8"/>
<text text-anchor="middle" x="474" y="-62.6" font-family="Times,serif" font-size="14.00">MultiFilterPipe</text>
</g>
<!-- MultiFilterPipe&#45;&gt;SharedPipesModule -->
<g id="edge3" class="edge">
<title>MultiFilterPipe&#45;&gt;SharedPipesModule</title>
<path fill="none" stroke="black" d="M422.64,-66.8C417.46,-66.8 414.05,-66.8 414.05,-66.8 414.05,-66.8 414.05,-103.69 414.05,-103.69"/>
<polygon fill="black" stroke="black" points="410.55,-103.69 414.05,-113.69 417.55,-103.69 410.55,-103.69"/>
</g>
<!-- SafeHtmlPipe -->
<g id="node4" class="node">
<title>SafeHtmlPipe</title>
<polygon fill="#ffffb3" stroke="black" points="405.05,-84.8 310.95,-84.8 310.95,-48.8 405.05,-48.8 405.05,-84.8"/>
<text text-anchor="middle" x="358" y="-62.6" font-family="Times,serif" font-size="14.00">SafeHtmlPipe</text>
</g>
<!-- SafeHtmlPipe&#45;&gt;SharedPipesModule -->
<g id="edge4" class="edge">
<title>SafeHtmlPipe&#45;&gt;SharedPipesModule</title>
<path fill="none" stroke="black" d="M358,-84.91C358,-84.91 358,-103.79 358,-103.79"/>
<polygon fill="black" stroke="black" points="354.5,-103.79 358,-113.79 361.5,-103.79 354.5,-103.79"/>
</g>
<!-- TextTransformPipe -->
<g id="node5" class="node">
<title>TextTransformPipe</title>
<polygon fill="#ffffb3" stroke="black" points="292.64,-84.8 167.36,-84.8 167.36,-48.8 292.64,-48.8 292.64,-84.8"/>
<text text-anchor="middle" x="230" y="-62.6" font-family="Times,serif" font-size="14.00">TextTransformPipe</text>
</g>
<!-- TextTransformPipe&#45;&gt;SharedPipesModule -->
<g id="edge5" class="edge">
<title>TextTransformPipe&#45;&gt;SharedPipesModule</title>
<path fill="none" stroke="black" d="M292.91,-66.8C299.68,-66.8 304.17,-66.8 304.17,-66.8 304.17,-66.8 304.17,-103.69 304.17,-103.69"/>
<polygon fill="black" stroke="black" points="300.67,-103.69 304.17,-113.69 307.67,-103.69 300.67,-103.69"/>
</g>
<!-- valueFormatPipe -->
<g id="node6" class="node">
<title>valueFormatPipe</title>
<polygon fill="#ffffb3" stroke="black" points="148.65,-84.8 37.35,-84.8 37.35,-48.8 148.65,-48.8 148.65,-84.8"/>
<text text-anchor="middle" x="93" y="-62.6" font-family="Times,serif" font-size="14.00">valueFormatPipe</text>
</g>
<!-- valueFormatPipe&#45;&gt;SharedPipesModule -->
<g id="edge6" class="edge">
<title>valueFormatPipe&#45;&gt;SharedPipesModule</title>
<path fill="none" stroke="black" d="M144.2,-84.82C144.2,-102.17 144.2,-125.8 144.2,-125.8 144.2,-125.8 287.54,-125.8 287.54,-125.8"/>
<polygon fill="black" stroke="black" points="287.54,-129.3 297.54,-125.8 287.54,-122.3 287.54,-129.3"/>
</g>
<!-- DateFormatPipe  -->
<g id="node8" class="node">
<title>DateFormatPipe </title>
<polygon fill="#fb8072" stroke="black" points="748.76,-214.8 637.24,-214.8 637.24,-178.8 748.76,-178.8 748.76,-214.8"/>
<text text-anchor="middle" x="693" y="-192.6" font-family="Times,serif" font-size="14.00">DateFormatPipe </text>
</g>
<!-- SharedPipesModule&#45;&gt;DateFormatPipe  -->
<g id="edge7" class="edge">
<title>SharedPipesModule&#45;&gt;DateFormatPipe </title>
<path fill="none" stroke="black" stroke-dasharray="5,2" d="M426.51,-135.8C517.23,-135.8 671.54,-135.8 671.54,-135.8 671.54,-135.8 671.54,-168.5 671.54,-168.5"/>
<polygon fill="black" stroke="black" points="668.04,-168.5 671.54,-178.5 675.04,-168.5 668.04,-168.5"/>
</g>
<!-- FilterPipe  -->
<g id="node9" class="node">
<title>FilterPipe </title>
<polygon fill="#fb8072" stroke="black" points="619.22,-214.8 544.78,-214.8 544.78,-178.8 619.22,-178.8 619.22,-214.8"/>
<text text-anchor="middle" x="582" y="-192.6" font-family="Times,serif" font-size="14.00">FilterPipe </text>
</g>
<!-- SharedPipesModule&#45;&gt;FilterPipe  -->
<g id="edge8" class="edge">
<title>SharedPipesModule&#45;&gt;FilterPipe </title>
<path fill="none" stroke="black" stroke-dasharray="5,2" d="M426.32,-142.8C486.75,-142.8 567.96,-142.8 567.96,-142.8 567.96,-142.8 567.96,-168.52 567.96,-168.52"/>
<polygon fill="black" stroke="black" points="564.46,-168.52 567.96,-178.52 571.46,-168.52 564.46,-168.52"/>
</g>
<!-- MultiFilterPipe  -->
<g id="node10" class="node">
<title>MultiFilterPipe </title>
<polygon fill="#fb8072" stroke="black" points="526.84,-214.8 421.16,-214.8 421.16,-178.8 526.84,-178.8 526.84,-214.8"/>
<text text-anchor="middle" x="474" y="-192.6" font-family="Times,serif" font-size="14.00">MultiFilterPipe </text>
</g>
<!-- SharedPipesModule&#45;&gt;MultiFilterPipe  -->
<g id="edge9" class="edge">
<title>SharedPipesModule&#45;&gt;MultiFilterPipe </title>
<path fill="none" stroke="black" stroke-dasharray="5,2" d="M412.05,-149.91C412.05,-169.14 412.05,-196.8 412.05,-196.8 412.05,-196.8 412.94,-196.8 412.94,-196.8"/>
<polygon fill="black" stroke="black" points="410.93,-200.3 420.93,-196.8 410.93,-193.3 410.93,-200.3"/>
</g>
<!-- SafeHtmlPipe  -->
<g id="node11" class="node">
<title>SafeHtmlPipe </title>
<polygon fill="#fb8072" stroke="black" points="403.04,-214.8 304.96,-214.8 304.96,-178.8 403.04,-178.8 403.04,-214.8"/>
<text text-anchor="middle" x="354" y="-192.6" font-family="Times,serif" font-size="14.00">SafeHtmlPipe </text>
</g>
<!-- SharedPipesModule&#45;&gt;SafeHtmlPipe  -->
<g id="edge10" class="edge">
<title>SharedPipesModule&#45;&gt;SafeHtmlPipe </title>
<path fill="none" stroke="black" stroke-dasharray="5,2" d="M354,-149.91C354,-149.91 354,-168.79 354,-168.79"/>
<polygon fill="black" stroke="black" points="350.5,-168.79 354,-178.79 357.5,-168.79 350.5,-168.79"/>
</g>
<!-- TextTransformPipe  -->
<g id="node12" class="node">
<title>TextTransformPipe </title>
<polygon fill="#fb8072" stroke="black" points="286.63,-214.8 157.37,-214.8 157.37,-178.8 286.63,-178.8 286.63,-214.8"/>
<text text-anchor="middle" x="222" y="-192.6" font-family="Times,serif" font-size="14.00">TextTransformPipe </text>
</g>
<!-- SharedPipesModule&#45;&gt;TextTransformPipe  -->
<g id="edge11" class="edge">
<title>SharedPipesModule&#45;&gt;TextTransformPipe </title>
<path fill="none" stroke="black" stroke-dasharray="5,2" d="M301.3,-149.91C301.3,-169.14 301.3,-196.8 301.3,-196.8 301.3,-196.8 296.75,-196.8 296.75,-196.8"/>
<polygon fill="black" stroke="black" points="296.75,-193.3 286.75,-196.8 296.75,-200.3 296.75,-193.3"/>
</g>
<!-- valueFormatPipe  -->
<g id="node13" class="node">
<title>valueFormatPipe </title>
<polygon fill="#fb8072" stroke="black" points="139.65,-214.8 24.35,-214.8 24.35,-178.8 139.65,-178.8 139.65,-214.8"/>
<text text-anchor="middle" x="82" y="-192.6" font-family="Times,serif" font-size="14.00">valueFormatPipe </text>
</g>
<!-- SharedPipesModule&#45;&gt;valueFormatPipe  -->
<g id="edge12" class="edge">
<title>SharedPipesModule&#45;&gt;valueFormatPipe </title>
<path fill="none" stroke="black" stroke-dasharray="5,2" d="M297.5,-137.8C216.61,-137.8 88.38,-137.8 88.38,-137.8 88.38,-137.8 88.38,-168.78 88.38,-168.78"/>
<polygon fill="black" stroke="black" points="84.88,-168.78 88.38,-178.78 91.88,-168.78 84.88,-168.78"/>
</g>
</g>
</svg>
