<svg width="16" height="16" fill="none" xmlns="http://www.w3.org/2000/svg"><path d="M7.8 5.4V1.8v3.6Z" fill="#93D3A2"/><path d="M7.8 5.4V1.8" stroke="#28A745" stroke-miterlimit="10"/><path d="M7.8.6a1.2 1.2 0 1 0 0 2.4 1.2 1.2 0 0 0 0-2.4Z" fill="#93D3A2"/><path d="M7.8.8a1.001 1.001 0 0 1 0 2 1.001 1.001 0 0 1 0-2Zm0-.4a1.4 1.4 0 1 0 0 2.8 1.4 1.4 0 0 0 0-2.8Z" fill="#28A745"/><path d="M7.6 15.4c-1.722 0-5.8-.543-5.8-1.4v-3.256C1.8 7.631 4.456 5 7.6 5H8c3.143 0 5.8 2.63 5.8 5.744V14c0 .857-4.079 1.4-5.8 1.4h-.4Z" fill="#93D3A2"/><path d="M8 5.2c3.036 0 5.6 2.539 5.6 5.544V14c0 .004-.095.454-2.228.851-1.291.24-2.749.349-3.372.349h-.4c-.623 0-2.08-.108-3.371-.349C2.096 14.454 2 14.004 2 14v-3.256C2 7.74 4.564 5.2 7.6 5.2H8Zm0-.4h-.4c-3.261 0-6 2.683-6 5.944V14c0 1.186 4.814 1.6 6 1.6H8c1.186 0 6-.414 6-1.6v-3.256C14 7.483 11.262 4.8 8 4.8Z" fill="#28A745"/><path d="M5 12.2c-.883 0-1.6-.718-1.6-1.6C3.4 9.718 4.117 9 5 9h5.6c.882 0 1.6.718 1.6 1.6 0 .882-.718 1.6-1.6 1.6H5Z" fill="#fff"/><path d="M10.6 9.2c.772 0 1.4.628 1.4 1.4 0 .772-.628 1.4-1.4 1.4H5c-.772 0-1.4-.628-1.4-1.4 0-.772.628-1.4 1.4-1.4h5.6Zm0-.4H5c-.99 0-1.8.81-1.8 1.8s.81 1.8 1.8 1.8h5.6c.99 0 1.8-.81 1.8-1.8s-.81-1.8-1.8-1.8Z" fill="#28A745"/><path d="M5 10.2a.4.4 0 1 0 0 .8.4.4 0 0 0 0-.8Z" fill="#93D3A2"/><path d="M5 10.4a.2.2 0 1 1 0 .4.2.2 0 0 1 0-.4Zm0-.4a.6.6 0 1 0 0 1.2.6.6 0 0 0 0-1.2Z" fill="#28A745"/><path d="M10.6 10.2a.4.4 0 1 0 0 .8.4.4 0 0 0 0-.8Z" fill="#93D3A2"/><path d="M10.6 10.4a.2.2 0 1 1 0 .4.2.2 0 0 1 0-.4Zm0-.4a.6.6 0 1 0 0 1.2.6.6 0 0 0 0-1.2Z" fill="#28A745"/><path d="M14.2 13a.4.4 0 0 1-.4-.4V7.4a.4.4 0 0 1 .8 0v5.2a.4.4 0 0 1-.4.4Z" fill="#EAF6EC"/><path d="M14.2 7.2c.109 0 .2.091.2.2v5.2c0 .108-.091.2-.2.2a.203.203 0 0 1-.2-.2V7.4c0-.109.092-.2.2-.2Zm0-.4c-.33 0-.6.27-.6.6v5.2c0 .33.27.6.6.6.33 0 .6-.27.6-.6V7.4c0-.33-.27-.6-.6-.6Z" fill="#28A745"/><path d="M1.4 13a.4.4 0 0 1-.4-.4V7.4a.4.4 0 0 1 .8 0v5.2a.4.4 0 0 1-.4.4Z" fill="#EAF6EC"/><path d="M1.4 7.2c.108 0 .2.091.2.2v5.2c0 .108-.092.2-.2.2a.203.203 0 0 1-.2-.2V7.4c0-.109.091-.2.2-.2Zm0-.4c-.33 0-.6.27-.6.6v5.2c0 .33.27.6.6.6.33 0 .6-.27.6-.6V7.4c0-.33-.27-.6-.6-.6Z" fill="#28A745"/></svg>