<svg width="18" height="16" fill="none" xmlns="http://www.w3.org/2000/svg"><path d="M16.923.308h-16a.615.615 0 0 0-.615.615v14.154c0 .34.275.615.615.615h16c.34 0 .615-.275.615-.615V.923a.615.615 0 0 0-.615-.615Z" fill="#EF9AA3"/><path d="M17.23 15.692H.616a.307.307 0 0 1-.307-.307 1.23 1.23 0 0 1 1.23-1.231h14.77a1.23 1.23 0 0 1 1.23 1.23.308.308 0 0 1-.307.308Z" fill="#EF9AA3"/><path d="M5.538 4.616a.923.923 0 1 0 0 1.846.923.923 0 0 0 0-1.846Zm6.77-1.231a.923.923 0 1 0 0 1.846.923.923 0 0 0 0-1.846Zm-3.385 6.763a1.23 1.23 0 1 0 0 2.462 1.23 1.23 0 0 0 0-2.462Z" fill="#FCEAED"/><path d="M2.77 13.539a.308.308 0 0 0-.308.307v.616a.308.308 0 0 0 .615 0v-.616a.308.308 0 0 0-.308-.307Zm-1.539 0a.308.308 0 0 0-.308.307v.616a.308.308 0 0 0 .616 0v-.616a.308.308 0 0 0-.308-.307Zm6.154 0a.308.308 0 0 0-.308.307v.616a.308.308 0 1 0 .616 0v-.616a.308.308 0 0 0-.308-.307Zm1.538 0a.308.308 0 0 0-.307.307v.616a.308.308 0 0 0 .615 0v-.616a.308.308 0 0 0-.308-.307Zm1.539 0a.308.308 0 0 0-.308.307v.616a.308.308 0 1 0 .616 0v-.616a.308.308 0 0 0-.308-.307Zm1.538 0a.308.308 0 0 0-.307.307v.616a.308.308 0 1 0 .615 0v-.616A.308.308 0 0 0 12 13.54Zm1.539 0a.308.308 0 0 0-.308.307v.616a.307.307 0 1 0 .615 0v-.616a.308.308 0 0 0-.307-.307Zm1.538 0a.308.308 0 0 0-.307.307v.616a.308.308 0 1 0 .615 0v-.616a.308.308 0 0 0-.308-.307Zm1.539 0a.308.308 0 0 0-.308.307v.616a.308.308 0 1 0 .615 0v-.616a.308.308 0 0 0-.307-.307Zm-12.308 0a.308.308 0 0 0-.308.307v.616a.308.308 0 0 0 .616 0v-.616a.308.308 0 0 0-.308-.307Zm1.538 0a.308.308 0 0 0-.307.307v.616a.308.308 0 0 0 .615 0v-.616a.308.308 0 0 0-.308-.307Z" fill="#DD3646"/><path d="M16.923 0h-16A.923.923 0 0 0 0 .923v14.154A.923.923 0 0 0 .923 16h16a.923.923 0 0 0 .923-.923V.923A.923.923 0 0 0 16.923 0Zm.308 15.077a.307.307 0 0 1-.308.308h-16a.308.308 0 0 1-.308-.308V.923A.308.308 0 0 1 .923.615h16a.308.308 0 0 1 .308.308v14.154Z" fill="#DD3646"/><path d="M13.23 5.539a.308.308 0 0 0 .308-.308V3.385a.308.308 0 0 0-.307-.308h-1.847a.308.308 0 0 0-.307.308V5.23a.308.308 0 0 0 .307.308H12v.307a.905.905 0 0 1-.665.871l-1.603.437c-.18.045-.35.123-.501.23V2.278l.704.705a.308.308 0 0 0 .434-.434L9.14 1.317a.308.308 0 0 0-.102-.068.309.309 0 0 0-.065 0 .135.135 0 0 0-.104 0 .309.309 0 0 0-.065 0 .308.308 0 0 0-.102.068l-1.23 1.23a.308.308 0 0 0 .434.435l.71-.705v6.338a1.495 1.495 0 0 0-.501-.249L6.51 7.93a.905.905 0 0 1-.665-.852v-.354a1.23 1.23 0 1 0-.615 0v.354a1.52 1.52 0 0 0 1.117 1.465l1.603.437a.902.902 0 0 1 .664.867v.031a1.539 1.539 0 1 0 .616 0V8.615a.901.901 0 0 1 .664-.867l1.603-.437a1.52 1.52 0 0 0 1.117-1.465V5.54h.616Zm-8.307 0a.615.615 0 1 1 1.23-.002.615.615 0 0 1-1.23.002Zm4.923 5.846a.923.923 0 0 1-1.23.867.923.923 0 0 1 0-1.735.883.883 0 0 1 .615 0 .923.923 0 0 1 .615.868Zm1.846-6.462v-1.23h1.231v1.23h-1.23Z" fill="#DD3646"/></svg>