<svg width="19" height="17" fill="none" xmlns="http://www.w3.org/2000/svg"><path d="M.283 5.092v8.203c0 1.561 3.165 2.829 7.071 2.829 3.907 0 7.072-1.268 7.072-2.83V5.093H.283Z" fill="#B893F2"/><path d="M2.263 5.092H.283v8.203c0 .76.755 1.454 1.98 1.963V5.092Zm7.92 0v10.797c2.498-.439 4.243-1.434 4.243-2.594V5.092h-4.243Z" fill="#F1E9FB"/><path d="M7.354 1.98c-1.875 0-3.674.298-5 .828-1.326.531-2.071 1.25-2.071 2s.745 1.47 2.071 2c1.326.531 3.125.83 5 .83 1.876 0 3.675-.299 5-.83 1.327-.53 2.072-1.25 2.072-2s-.745-1.469-2.071-2c-1.326-.53-3.125-.828-5-.828Z" fill="#B893F2"/><path d="M7.669 3.394c.266 0 .537.017.8.034h.017a.283.283 0 0 0 .02-.565c-.283-.02-.566-.032-.829-.034a.283.283 0 0 0 0 .565H7.67Zm-3.658.368a.273.273 0 0 0 .068 0 12.799 12.799 0 0 1 2.35-.334.283.283 0 0 0 .27-.317.283.283 0 0 0-.298-.265c-.828.04-1.65.157-2.458.35a.285.285 0 0 0 .068.566Z" fill="#7027E5"/><path d="M7.355 1.697C3.23 1.697 0 3.064 0 4.81v8.486c0 1.745 3.23 3.111 7.355 3.111 4.124 0 7.354-1.366 7.354-3.111V4.809c0-1.745-3.23-3.112-7.354-3.112Zm6.788 5.94c0 1.23-2.727 2.546-6.788 2.546-4.062 0-6.79-1.315-6.79-2.546V6.028C1.667 7.159 4.258 7.92 7.356 7.92c3.097 0 5.688-.77 6.788-1.892v1.61ZM7.355 2.263c4.061 0 6.788 1.315 6.788 2.546 0 1.23-2.727 2.546-6.788 2.546-4.062 0-6.79-1.316-6.79-2.546 0-1.23 2.728-2.546 6.79-2.546Zm0 13.578c-4.062 0-6.79-1.316-6.79-2.546V11.68c.909.933 2.852 1.635 5.336 1.838h.022a.283.283 0 0 0 .023-.566c-3.066-.248-5.38-1.32-5.38-2.486v-1.61c1.1 1.132 3.691 1.893 6.789 1.893 3.097 0 5.688-.77 6.788-1.892v1.61c0 .489-.433.995-1.222 1.413a.286.286 0 0 0 .283.498 4 4 0 0 0 .94-.684v1.6c0 1.231-2.728 2.547-6.79 2.547Z" fill="#7027E5"/><path d="M7.355 12.446a.283.283 0 0 0-.283.283v.566a.283.283 0 0 0 .566 0v-.566a.283.283 0 0 0-.283-.283Zm1.414-.056a.283.283 0 0 0-.283.282v.566a.283.283 0 0 0 .566 0v-.566a.283.283 0 0 0-.283-.283Zm1.414-.199a.283.283 0 0 0-.283.283v.566a.283.283 0 0 0 .566 0v-.566a.283.283 0 0 0-.283-.283Zm1.415-.31a.283.283 0 0 0-.283.282v.566a.283.283 0 0 0 .566 0v-.566a.283.283 0 0 0-.283-.283Z" fill="#7027E5"/><path d="M17.82 2.546h-2.262V.283h-2.263v2.263h-2.263v2.263h2.263v2.263h2.263V4.809h2.262V2.546Z" fill="#FFDA2D"/><path d="M15.558 7.355h-2.263a.283.283 0 0 1-.283-.283v-1.98h-1.98a.283.283 0 0 1-.283-.283V2.546c0-.156.127-.283.283-.283h1.98V.283c0-.156.127-.283.283-.283h2.263c.156 0 .283.127.283.283v1.98h1.98c.156 0 .282.127.282.283v2.263a.283.283 0 0 1-.282.283h-1.98v1.98a.283.283 0 0 1-.283.283Zm-1.98-.566h1.697v-1.98c0-.156.127-.283.283-.283h1.98V2.829h-1.98a.283.283 0 0 1-.283-.283V.566h-1.697v1.98a.283.283 0 0 1-.283.283h-1.98v1.697h1.98c.156 0 .283.127.283.283v1.98Z" fill="#7027E5"/></svg>