<svg width="23" height="23" fill="none" xmlns="http://www.w3.org/2000/svg"><path d="M17.25 8.146v11.979c0 .53-.428.958-.958.958h-11.5a.958.958 0 0 1-.958-.958V4.79c0-.53.429-.958.958-.958h8.146l4.313 4.313Z" fill="#93D3A2"/><path opacity=".05" d="M4.791 3.833h12.458v16.292H6.555c-.974 0-1.764-.79-1.764-1.764V3.833Z" fill="#3C4043"/><path opacity=".07" d="M5.271 3.833h9.555a2.424 2.424 0 0 1 2.425 2.424v13.388H6.63a1.36 1.36 0 0 1-1.36-1.36V3.833Z" fill="#3C4043"/><path d="M19.167 6.709v11.5c0 .53-.43.958-.959.958h-11.5a.958.958 0 0 1-.958-.958V2.875c0-.53.429-.958.958-.958h7.667l4.792 4.792Z" fill="#93D3A2"/><path d="M14.375 1.917V5.75c0 .53.429.959.958.959h3.834l-4.792-4.792Zm2.262 7.553H8.392c-.152 0-.275-.075-.275-.169v-.338c0-.093.123-.169.275-.169h8.245c.151 0 .274.076.274.17V9.3c0 .094-.123.17-.274.17Zm0 2.03H8.392c-.152 0-.275-.076-.275-.169v-.338c0-.094.123-.17.275-.17h8.245c.151 0 .274.076.274.17v.338c0 .093-.123.17-.274.17Zm0 2.03H8.392c-.152 0-.275-.076-.275-.17v-.338c0-.093.123-.169.275-.169h8.245c.151 0 .274.076.274.17v.337c0 .094-.123.17-.274.17Zm-2.685 2.029H8.37c-.14 0-.254-.076-.254-.17v-.338c0-.093.114-.169.254-.169h5.58c.14 0 .254.076.254.17v.338c0 .093-.113.169-.253.169Z" fill="#135423"/></svg>