<svg width="113" height="93" fill="none" xmlns="http://www.w3.org/2000/svg"><rect width="113" height="93" rx="4" fill="#F3F8FF"/><path d="M95.215 52.71A15.423 15.423 0 0 0 97 45.5c0-6.621-4.159-12.257-10.001-14.478L87 31c0-11.598-9.402-21-21-21-9.784 0-17.981 6.701-20.313 15.757A14.982 14.982 0 0 0 41 25c-7.692 0-14.023 5.793-14.89 13.252C20.906 39.353 17 43.969 17 49.5 17 55.851 22.149 61 28.5 61c.177 0 .352-.012.526-.022-.004.175-.026.346-.026.522C29 72.822 38.178 82 49.5 82c6.437 0 12.175-2.972 15.934-7.614A11.948 11.948 0 0 0 74 78c4.65 0 8.674-2.65 10.666-6.518 1.052.335 2.171.518 3.334.518 6.075 0 11-4.925 11-11 0-3.311-1.47-6.273-3.785-8.29Z" fill="#E7F1FF"/><path d="M83.5 56.5v.5h3v-.5H92a4.5 4.5 0 0 0 4.5-4.5c0-2.333-1.782-4.229-4.055-4.455.022-.181.055-.358.055-.545a4.5 4.5 0 0 0-4.5-4.5c-1.438 0-2.703.686-3.527 1.736-.14-2.636-2.302-4.736-4.973-4.736a5 5 0 0 0-5 5c0 .446.077.87.187 1.282A3.477 3.477 0 0 0 72 44.5a3.489 3.489 0 0 0-3.455 3.055c-.181-.022-.358-.055-.545-.055a4.5 4.5 0 0 0 0 9h15.5Z" fill="#fff"/><path d="M78 46c-1.403 0-2.609.999-2.913 2.341A2.344 2.344 0 0 0 73.875 48a2.377 2.377 0 0 0-2.353 2.068 2.63 2.63 0 0 0-.585-.068 2.94 2.94 0 0 0-2.918 2.732.252.252 0 0 0 .232.268h.018a.25.25 0 0 0 .25-.232 2.44 2.44 0 0 1 2.418-2.268c.23 0 .47.042.738.127.022.007.045.01.067.01a.26.26 0 0 0 .258-.262c0-1.034.841-1.875 1.875-1.875.447 0 .885.168 1.231.473a.252.252 0 0 0 .165.063.231.231 0 0 0 .093-.019.247.247 0 0 0 .155-.212C75.623 47.512 76.712 46.5 78 46.5c.208 0 .425.034.682.107a.25.25 0 0 0 .137-.481A2.94 2.94 0 0 0 78 46Zm13.883 1.5a3.007 3.007 0 0 0-2.874 2.182.25.25 0 1 0 .481.136A2.505 2.505 0 0 1 91.883 48c.117 0 .23.014.342.029a.251.251 0 0 0 .281-.214.249.249 0 0 0-.214-.281 3.063 3.063 0 0 0-.409-.034Z" fill="#BDC1C6"/><path d="M92.997 47.123 93 47c0-2.757-2.243-5-5-5a4.932 4.932 0 0 0-3.183 1.164A5.486 5.486 0 0 0 79.5 39a5.506 5.506 0 0 0-5.5 5.5v.047A3.933 3.933 0 0 0 72 44a3.998 3.998 0 0 0-3.858 3.005A2.22 2.22 0 0 0 68 47c-2.757 0-5 2.243-5 5s2.243 5 5 5h15.5a.5.5 0 0 0 0-1H68c-2.206 0-4-1.794-4-4s1.794-4 4-4c.117 0 .23.017.343.032l.141.019a.502.502 0 0 0 .557-.433A2.996 2.996 0 0 1 72 45c.885 0 1.723.401 2.301 1.1a.503.503 0 0 0 .614.126c.032-.017.057-.041.084-.064V44.5c0-2.481 2.019-4.5 4.5-4.5 2.381 0 4.347 1.872 4.474 4.263a.5.5 0 0 0 .893.282C85.638 43.563 86.779 43 88 43c2.206 0 4 1.794 4 4 0 .117-.017.23-.032.343l-.019.141a.5.5 0 0 0 .446.558A3.976 3.976 0 0 1 96 52c0 2.206-1.794 4-4 4h-5.5a.5.5 0 0 0 0 1H92c2.757 0 5-2.243 5-5a4.966 4.966 0 0 0-4.003-4.877Z" fill="#9AA0A6"/><path d="M23.5 47h-10a.5.5 0 0 1 0-1h10a.5.5 0 0 1 0 1Zm3 0h-1a.5.5 0 0 1 0-1h1a.5.5 0 0 1 0 1Zm4.991 2H22.5a.5.5 0 0 1 0-1h8.991a.5.5 0 0 1 0 1ZM20.5 49h-1a.5.5 0 0 1 0-1h1a.5.5 0 0 1 0 1Zm-3 0h-2a.5.5 0 0 1 0-1h2a.5.5 0 0 1 0 1Zm6 2h-2a.5.5 0 0 1 0-1h2a.5.5 0 0 1 0 1Zm3-9h-1a.5.5 0 0 0 0 1h1a.5.5 0 0 0 0-1Zm0 2h-5a.5.5 0 0 0 0 1h5a.5.5 0 0 0 0-1Zm5 2h-3a.5.5 0 0 0 0 1h3a.5.5 0 0 0 0-1Zm44-30h-10a.5.5 0 0 1 0-1h10a.5.5 0 0 1 0 1Zm6 0h-4a.5.5 0 0 1 0-1h4a.5.5 0 0 1 0 1Zm3 2h-10a.5.5 0 0 1 0-1h10a.5.5 0 0 1 0 1Zm-12 0h-1a.5.5 0 0 1 0-1h1a.5.5 0 0 1 0 1Zm-3.03 0H67.5a.5.5 0 0 1 0-1h1.97a.5.5 0 0 1 0 1Zm9.03-4h-5a.5.5 0 0 1 0-1h5a.5.5 0 0 1 0 1Zm-3 6h-2a.5.5 0 0 1 0-1h2a.5.5 0 0 1 0 1Zm-.98 47.85H47A2.853 2.853 0 0 1 44.15 65 2.853 2.853 0 0 1 47 62.15h27.531l-.36.414a3.719 3.719 0 0 0-.92 2.436c0 .887.323 1.753.912 2.437l.356.413Z" fill="#fff"/><path d="M44 62V26.822C44 25.265 45.29 24 46.877 24h26.246C74.709 24 76 25.265 76 26.822v33.912H46.877c-.904 0-1.754.316-2.46.913L44 62Z" fill="#FFBCA5"/><path d="M53 24.15h-6A2.853 2.853 0 0 0 44.15 27v35.53l.413-.357A3.687 3.687 0 0 1 47 61.251h6v-37.1Z" fill="#FFF1ED"/><path d="M76.599 62.431a.488.488 0 0 0 .401-.487V27a4 4 0 0 0-4-4H47a4 4 0 0 0-4 4v38a3.997 3.997 0 0 0 4 4h29.3a.7.7 0 0 0 .7-.699V68.3c0-.001 0 0 0 0l-.002-.009c-.005-.375-.274-.678-.639-.771A2.605 2.605 0 0 1 74.4 65c0-1.297.955-2.376 2.199-2.569ZM47 24.4h26a2.6 2.6 0 0 1 2.6 2.6v34H47c-.998 0-1.899.379-2.6.983V27a2.6 2.6 0 0 1 2.6-2.6Zm0 43.2a2.602 2.602 0 0 1-2.6-2.6c0-1.434 1.166-2.6 2.6-2.6h26.983A3.945 3.945 0 0 0 73 65c0 .996.371 1.9.974 2.6H47Z" fill="#59141C"/><path d="M52.625 51a.375.375 0 0 1-.375-.375v-10.25a.375.375 0 0 1 .75 0v10.25a.375.375 0 0 1-.375.375Zm0 5a.375.375 0 0 1-.375-.375v-1.25a.375.375 0 0 1 .75 0v1.25a.375.375 0 0 1-.375.375Zm0 3a.375.375 0 0 1-.375-.375v-1.25a.375.375 0 0 1 .75 0v1.25a.375.375 0 0 1-.375.375Zm21 6h-19.25a.375.375 0 0 1 0-.75h19.25a.375.375 0 0 1 0 .75Zm0 1.75h-12.25a.375.375 0 0 1 0-.75h12.25a.375.375 0 0 1 0 .75Zm-14 0h-1.25a.375.375 0 0 1 0-.75h1.25a.375.375 0 0 1 0 .75Z" fill="#59141C"/><path d="M48.25 22.25h10.5v20.5l-5.25-2.375-5.25 2.375v-20.5Z" fill="#FFED96"/><path d="M58.625 43a.355.355 0 0 1-.15-.032L53.5 40.785l-4.975 2.184a.374.374 0 0 1-.525-.344v-20.25c0-.207.168-.375.375-.375h10.25c.207 0 .375.168.375.375v20.25a.373.373 0 0 1-.375.375ZM53.5 40c.052 0 .103.011.15.032l4.6 2.019V22.75h-9.5v19.301l4.6-2.019A.367.367 0 0 1 53.5 40Z" fill="#59141C"/><path d="M45.5 69.5H49a3.5 3.5 0 0 0 3.5-3.5 3.489 3.489 0 0 0-3.055-3.455c.028-.179.055-.358.055-.545a3.5 3.5 0 0 0-3.5-3.5c-1.032 0-1.95.455-2.59 1.165a3.999 3.999 0 0 0-7.91.835c0 .191.03.374.056.558A2.473 2.473 0 0 0 34 60.5a2.496 2.496 0 0 0-2.455 2.055A3.495 3.495 0 0 0 31 62.5a3.5 3.5 0 1 0 0 7h7.5v.5h7v-.5Z" fill="#fff"/><path d="M47.25 65a.25.25 0 0 1-.25-.25 2.22 2.22 0 0 1 2.218-2.218c.034.01.737 0 1.244.136a.25.25 0 0 1-.13.482c-.444-.12-1.1-.12-1.113-.118A1.72 1.72 0 0 0 47.5 64.75a.25.25 0 0 1-.25.25Zm-6.75 4a.5.5 0 1 0 0 1 .5.5 0 0 0 0-1Z" fill="#BDC1C6"/><path d="M49 70h-3.5a.5.5 0 0 1 0-1H49c1.654 0 3-1.346 3-3a2.996 2.996 0 0 0-2.618-2.959.502.502 0 0 1-.43-.573c.023-.154.048-.308.048-.468 0-1.654-1.346-3-3-3-.85 0-1.638.355-2.219 1a.498.498 0 0 1-.86-.231A3.514 3.514 0 0 0 39.5 57c-1.93 0-3.5 1.57-3.5 3.5 0 .143.021.28.041.418.029.203-.063.438-.242.54-.179.102-.396.118-.556-.01A1.97 1.97 0 0 0 34 61c-.966 0-1.792.691-1.963 1.644a.498.498 0 0 1-.569.405C31.314 63.025 31.16 63 31 63c-1.654 0-3 1.346-3 3s1.346 3 3 3h7.5a.5.5 0 0 1 0 1H31c-2.206 0-4-1.794-4-4a4.004 4.004 0 0 1 4.174-3.994A2.993 2.993 0 0 1 34 60c.349 0 .689.061 1.011.18A4.506 4.506 0 0 1 39.5 56a4.523 4.523 0 0 1 4.153 2.774A3.979 3.979 0 0 1 46 58a4.004 4.004 0 0 1 3.996 4.142A3.999 3.999 0 0 1 53 66c0 2.206-1.794 4-4 4Z" fill="#9AA0A6"/><path d="M43.5 69h-1a.5.5 0 0 0 0 1h1a.5.5 0 0 0 0-1Z" fill="#BDC1C6"/></svg>