<svg width="114" height="100" fill="none" xmlns="http://www.w3.org/2000/svg"><rect x=".754" y="2" width="113" height="93" rx="4" fill="#F3F8FF"/><path d="M94.215 56.71A15.423 15.423 0 0 0 96 49.5c0-6.621-4.159-12.257-10.001-14.478L86 35c0-11.598-9.402-21-21-21-9.784 0-17.981 6.701-20.313 15.757A14.982 14.982 0 0 0 40 29c-7.692 0-14.023 5.793-14.89 13.252C19.906 43.353 16 47.969 16 53.5 16 59.851 21.149 65 27.5 65c.177 0 .352-.012.526-.022-.004.175-.026.346-.026.522C28 76.822 37.178 86 48.5 86c6.437 0 12.175-2.972 15.934-7.614A11.948 11.948 0 0 0 73 82c4.65 0 8.674-2.65 10.666-6.518 1.052.335 2.171.518 3.334.518 6.075 0 11-4.925 11-11 0-3.311-1.47-6.273-3.785-8.29Z" fill="#E7F1FF"/><path d="M25.405 48H15.5a.5.5 0 0 1 0-1h9.905a.5.5 0 0 1 0 1Zm3.095 0h-1a.5.5 0 0 1 0-1h1a.5.5 0 0 1 0 1Zm4.991 2H24.5a.5.5 0 0 1 0-1h8.991a.5.5 0 0 1 0 1ZM22.5 50h-1a.5.5 0 0 1 0-1h1a.5.5 0 0 1 0 1Zm-3 0h-2a.5.5 0 0 1 0-1h2a.5.5 0 0 1 0 1Zm6 2h-2a.5.5 0 0 1 0-1h2a.5.5 0 0 1 0 1Zm3-9h-1a.5.5 0 0 0 0 1h1a.5.5 0 0 0 0-1Zm0 2h-5a.5.5 0 0 0 0 1h5a.5.5 0 0 0 0-1Zm5 2h-3a.5.5 0 0 0 0 1h3a.5.5 0 0 0 0-1ZM92 64H82a.5.5 0 0 1 0-1h10a.5.5 0 0 1 0 1Zm4 0h-2a.5.5 0 0 1 0-1h2a.5.5 0 0 1 0 1Zm5 2H91a.5.5 0 0 1 0-1h10a.5.5 0 0 1 0 1Zm-12 0h-1a.5.5 0 0 1 0-1h1a.5.5 0 0 1 0 1Zm-3.125 0H84a.5.5 0 0 1 0-1h1.875a.5.5 0 0 1 0 1ZM95 62h-5a.5.5 0 0 1 0-1h5a.5.5 0 0 1 0 1Zm-3 6h-2a.5.5 0 0 1 0-1h2a.5.5 0 0 1 0 1ZM71.25 38.5h-3.5a3.5 3.5 0 0 1-3.5-3.5 3.489 3.489 0 0 1 3.055-3.455A3.495 3.495 0 0 1 67.25 31a3.5 3.5 0 0 1 3.5-3.5c1.032 0 1.95.455 2.59 1.165a3.999 3.999 0 0 1 7.91.835c0 .191-.03.374-.056.558a2.475 2.475 0 0 1 1.556-.558c1.228 0 2.245.887 2.455 2.055.179-.028.358-.055.545-.055a3.5 3.5 0 1 1 0 7h-7.5v.5h-7v-.5Z" fill="#fff"/><path d="M69.5 34a.25.25 0 0 0 .25-.25 2.22 2.22 0 0 0-2.218-2.218c-.034.01-.737 0-1.244.136a.25.25 0 0 0 .13.482c.444-.12 1.1-.12 1.113-.118a1.72 1.72 0 0 1 1.72 1.718c0 .138.111.25.25.25Zm6.75 4a.5.5 0 1 0 0 1 .5.5 0 0 0 0-1Z" fill="#BDC1C6"/><path d="M67.75 39h3.5a.5.5 0 0 0 0-1h-3.5c-1.654 0-3-1.346-3-3a2.996 2.996 0 0 1 2.618-2.959.502.502 0 0 0 .43-.573c-.023-.154-.048-.308-.048-.468 0-1.654 1.346-3 3-3 .85 0 1.638.355 2.219 1a.498.498 0 0 0 .86-.231A3.514 3.514 0 0 1 77.25 26c1.93 0 3.5 1.57 3.5 3.5 0 .143-.021.28-.041.418-.029.203.063.438.242.54.179.102.396.118.556-.01A1.97 1.97 0 0 1 82.75 30c.966 0 1.792.691 1.963 1.644a.498.498 0 0 0 .569.405c.154-.024.308-.049.468-.049 1.654 0 3 1.346 3 3s-1.346 3-3 3h-7.5a.5.5 0 0 0 0 1h7.5c2.206 0 4-1.794 4-4a4.004 4.004 0 0 0-4.174-3.994A2.993 2.993 0 0 0 82.75 29c-.349 0-.689.061-1.011.18A4.506 4.506 0 0 0 77.25 25a4.523 4.523 0 0 0-4.153 2.774A3.979 3.979 0 0 0 70.75 27a4.004 4.004 0 0 0-3.996 4.142A3.999 3.999 0 0 0 63.75 35c0 2.206 1.794 4 4 4Z" fill="#9AA0A6"/><path d="M73.25 38h1a.5.5 0 0 1 0 1h-1a.5.5 0 0 1 0-1Z" fill="#472B29"/><path d="M40.521 76.3a1.823 1.823 0 0 1-1.82-1.82V33.52c0-1.004.816-1.82 1.82-1.82h31.957c1.004 0 1.821.816 1.821 1.82v40.957a1.823 1.823 0 0 1-1.82 1.821H40.52v.001Z" fill="#85B7FE"/><path d="M72.478 32.4c.619 0 1.122.503 1.122 1.122v40.956c0 .619-.503 1.122-1.122 1.122H40.522a1.123 1.123 0 0 1-1.122-1.122V33.522c0-.619.503-1.122 1.122-1.122h31.956Zm0-1.4H40.522A2.522 2.522 0 0 0 38 33.522v40.956A2.522 2.522 0 0 0 40.522 77h31.956A2.522 2.522 0 0 0 75 74.478V33.522A2.522 2.522 0 0 0 72.478 31Z" fill="#803C25"/><path d="M41.7 72.3V35.7h29.6v30.042L64.491 72.3h-22.79Z" fill="#fff"/><path d="M70.6 36.4v29.045L64.209 71.6H42.4V36.4h28.2ZM72 35H41v38h23.774L72 66.04V35Z" fill="#803C25"/><path d="m70.062 66-5.066 4.688-.03-4.688h5.096Z" fill="#85B7FE"/><path d="M51.208 38.3c-.83 0-1.508-.58-1.508-1.293v-3.233c0-.712.33-.822.438-.858a.742.742 0 0 0 .104-.045l3.907-2.059c1.053-.515 1.967-.759 2.86-.759.896 0 1.835.246 2.952.772l3.866 2.31c.033.02.067.035.103.05.358.14.368.543.368.59v3.232c0 .713-.677 1.293-1.508 1.293H51.208Z" fill="#93D3A2"/><path d="M57.011 30.753c.775 0 1.6.216 2.594.677l3.865 2.304c.042.025.085.048.129.068v3.204c0 .321-.37.593-.808.593H51.208c-.438 0-.808-.272-.808-.593v-3.234c0-.101.011-.173.022-.217.05-.02.099-.042.147-.067l3.87-2.039c.972-.475 1.789-.696 2.572-.696Zm0-1.4c-1.027 0-2.043.28-3.187.839l-3.907 2.058c-.73.245-.917.938-.917 1.523v3.234c0 1.101.989 1.993 2.208 1.993h11.583c1.22 0 2.209-.892 2.209-1.993v-3.234c0-.388-.188-.996-.813-1.241l-3.925-2.34c-1.186-.559-2.224-.839-3.251-.839Z" fill="#803C25"/><path d="M57 32a1 1 0 1 0 0 2 1 1 0 0 0 0-2Z" fill="#472B29"/><path d="M65.2 72h-1.4v-6.5a.7.7 0 0 1 .7-.7H71v1.4h-5.8V72Z" fill="#803C25"/><path d="M33 81h-5.75c-2.485.75-4.5-1.265-4.5-3.75 0-2.333 1.782-4.229 4.055-4.455-.022-.181-.055-.358-.055-.545a4.5 4.5 0 0 1 4.5-4.5c1.438 0 2.703.686 3.527 1.736.14-2.636 2.302-4.736 4.973-4.736a5 5 0 0 1 5 5c0 .446-.077.87-.187 1.282a3.475 3.475 0 0 1 2.687-1.282 3.489 3.489 0 0 1 3.455 3.055c.181-.022.358-.055.545-.055a4.5 4.5 0 0 1 4.5 4.5c0 2.485-2.015 4.5-4.5 3.75H36v1h-3v-1Z" fill="#fff"/><path d="M39.5 64c3.033 0 5.5 2.467 5.5 5.5v.047A3.933 3.933 0 0 1 47 69a3.998 3.998 0 0 1 3.858 3.005A2.22 2.22 0 0 1 51 72a5.009 5.009 0 0 1 4.893 6.047C55.413 80.398 53.204 82 50.804 82H36.125a.5.5 0 0 1 0-1h14.718c1.92 0 3.687-1.282 4.071-3.163A4.006 4.006 0 0 0 51 73c-.117 0-.23.017-.343.032l-.14.019a.502.502 0 0 1-.557-.433A2.996 2.996 0 0 0 47 70a2.98 2.98 0 0 0-2.3 1.1.503.503 0 0 1-.615.126.5.5 0 0 1-.254-.573c.16-.6.202-1.069.147-1.549-.24-2.127-1.959-3.909-4.092-4.088-2.55-.215-4.725 1.728-4.859 4.246a.5.5 0 0 1-.893.282C33.362 68.563 32.221 68 31 68c-2.206 0-4 1.794-4 4 0 .117.017.23.032.343l.02.141a.5.5 0 0 1-.447.558 3.98 3.98 0 0 0-3.504 4.865C23.51 79.76 25.275 81 27.173 81h5.952a.5.5 0 0 1 0 1h-5.938c-2.467 0-4.708-1.704-5.115-4.138a4.973 4.973 0 0 1 3.931-5.74A5.006 5.006 0 0 1 31 67c1.176 0 2.293.416 3.183 1.164A5.486 5.486 0 0 1 39.5 64Z" fill="#9AA0A6"/><path d="M41.25 71.25c1.404 0 2.61.999 2.914 2.341a2.344 2.344 0 0 1 1.212-.341c1.202 0 2.198.897 2.353 2.068a2.69 2.69 0 0 1 .585-.068 2.94 2.94 0 0 1 2.918 2.732.25.25 0 0 1-.232.267h-.018a.25.25 0 0 1-.25-.232 2.44 2.44 0 0 0-2.418-2.268c-.23 0-.47.042-.738.127a.222.222 0 0 1-.067.01.266.266 0 0 1-.156-.054.264.264 0 0 1-.102-.209 1.877 1.877 0 0 0-1.875-1.875c-.447 0-.885.168-1.231.473a.252.252 0 0 1-.165.063.231.231 0 0 1-.093-.019.247.247 0 0 1-.155-.212 2.507 2.507 0 0 0-2.48-2.305c-.207 0-.424.034-.681.107a.25.25 0 0 1-.137-.481c.3-.084.56-.124.817-.124Zm-13.882 1.5c1.326 0 2.508.897 2.874 2.182a.25.25 0 1 1-.48.137 2.504 2.504 0 0 0-2.393-1.818c-.117 0-.23.014-.342.029a.251.251 0 0 1-.281-.214.249.249 0 0 1 .214-.281c.133-.019.269-.035.408-.035Z" fill="#BDC1C6"/><path d="M57.9 47.5a1.4 1.4 0 1 1-2.8 0 1.4 1.4 0 0 1 2.8 0Zm1-4.5a.9.9 0 1 1-1.8 0 .9.9 0 0 1 1.8 0Zm-4-1a.9.9 0 1 1-1.8 0 .9.9 0 0 1 1.8 0Z" fill="#FFF1ED" stroke="#FFBCA5" stroke-width=".2"/><path d="M63.624 61.343h.003l-4.001-7.225v-2.47h.875c.483 0 .875-.37.875-.825 0-.454-.392-.823-.875-.823H53.5c-.483 0-.875.369-.875.824 0 .454.392.823.875.823h.875v2.47l-4.001 7.226h.003a1.574 1.574 0 0 0-.376.958c-.032.935.881 1.699 1.874 1.699h10.25c.993 0 1.906-.764 1.874-1.699a1.57 1.57 0 0 0-.375-.958Z" fill="#FFBCA5"/></svg>