<svg width="22" height="22" fill="none" xmlns="http://www.w3.org/2000/svg"><path d="M6.875 18.333h10.541l2.75 2.75v-9.625a1.839 1.839 0 0 0-1.833-1.833H6.875a1.839 1.839 0 0 0-1.833 1.833V16.5c0 1.008.825 1.833 1.833 1.833Z" fill="#558B2F"/><path d="M13.2 15.033h-1.65l-.321.963h-1.008l1.695-4.583h.871l1.696 4.583h-1.008l-.275-.963Zm-1.421-.733h1.146l-.55-1.742-.596 1.742Z" fill="#1B5E20"/><path d="M15.125 11.459H4.584l-2.75 2.75V3.667c0-1.008.825-1.833 1.833-1.833h11.458c1.009 0 1.834.825 1.834 1.833v5.958a1.839 1.839 0 0 1-1.834 1.834Z" fill="#8BC34A"/><path d="M11.642 6.508c0 .459-.092.825-.23 1.146-.137.32-.32.596-.595.78l.779.595-.596.55-1.008-.78c-.092 0-.23.047-.367.047-.275 0-.55-.046-.825-.138-.23-.091-.458-.275-.642-.458-.183-.183-.32-.458-.412-.733a3.047 3.047 0 0 1-.138-.963v-.183c0-.367.046-.688.138-.963.092-.275.23-.55.412-.733.184-.183.367-.367.642-.458a2.22 2.22 0 0 1 .825-.138c.275 0 .55.046.825.138.23.091.458.275.642.458.183.183.32.458.412.733.092.275.138.596.138.963v.137Zm-1.009-.229c0-.504-.091-.87-.275-1.1-.183-.275-.412-.367-.733-.367-.32 0-.596.138-.733.367-.184.275-.275.642-.275 1.1v.23c0 .228.046.458.091.64.046.184.092.368.184.46.091.137.183.228.32.274.138.046.276.092.413.092.32 0 .596-.138.733-.367.184-.275.275-.641.275-1.146V6.28Z" fill="#fff"/></svg>