<svg width="17" height="16" fill="none" xmlns="http://www.w3.org/2000/svg"><path opacity=".5" d="M14.572 9.31H2.429v5.261c0 .448.362.81.81.81h10.523a.81.81 0 0 0 .81-.81V9.31Z" fill="#DD3646"/><path d="M14.572 4.452V9.31H2.429V.81a.81.81 0 0 1 .81-.81h6.88l4.453 4.452Z" fill="#93D3A2"/><path d="M10.12 0v3.643c0 .447.361.81.809.81h3.643L10.119 0Z" fill="#28A745"/><path d="M12.345 6.476h-7.69a.202.202 0 0 1-.203-.202v-.405c0-.112.09-.202.203-.202h7.69c.112 0 .202.09.202.202v.405c0 .111-.09.202-.202.202Zm0 1.619h-7.69a.202.202 0 0 1-.203-.202v-.405c0-.112.09-.202.203-.202h7.69c.112 0 .202.09.202.202v.405c0 .112-.09.202-.202.202Z" fill="#EAF6EC"/><path d="M16.595 9.714H.405a.404.404 0 1 1 0-.81h16.19a.404.404 0 1 1 0 .81Z" fill="#DD3646"/></svg>