<svg width="77" height="16" fill="none" xmlns="http://www.w3.org/2000/svg"><path d="M1 8.297 3.266 9.79h1.569l1.569-1.494H8.32l1.918-2.055 1.046-.56 1.394.252.872-.868.945-.5h.54l.99-.566 1.169 4.066 1.08 1 .854.066.765 1.935.54-4.501 1.62-3 2.159-1 2.699.5L28.717 4l1.917.934 3.312.747 2.267 2.242 2.963.374 1.743-2.055 2.79-.56 2.963.933 2.614-.373 2.267-1.868 2.614.692L56.782 1l1.36 2.308 2.616 1L63.406 6l3.695 2 3.104 3.934s.973.632 2.053.965" stroke="url(#a)" stroke-width="2" stroke-linecap="round" stroke-linejoin="round"/><ellipse cx="73.439" cy="12.308" rx="3.5" ry="3.242" fill="#DD3646"/><defs><linearGradient id="a" x1="67.939" y1="11.066" x2="8.231" y2="17.16" gradientUnits="userSpaceOnUse"><stop stop-color="#DD3646"/><stop offset="1" stop-color="#DD3646" stop-opacity=".19"/></linearGradient></defs></svg>