<svg width="76" height="19" fill="none" xmlns="http://www.w3.org/2000/svg"><path d="m1 14.231 2.235 1.495h1.547L6.33 14.23h1.89l1.891-2.055 1.032-.56 1.375 3.253.86 2.373.344-5.01 1.12-1.731.976-.566L16.972 9l1.064-1 .843-6.934.755 2.935.532 2.5 1.597 1 2.13 1 2.662.5 1.78.934 1.89.934 3.267.747 2.235 2.242 2.922.373 1.72-2.055 2.75-.56 2.923.934 2.578-.374 2.235-1.868L53.434 9l2.579.935 2.406 1.307H61l1.546-1.307h2.58l4.125-2.066 2.025-2.035" stroke="url(#a)" stroke-width="2" stroke-linecap="round" stroke-linejoin="round"/><ellipse cx="72.08" cy="5.287" rx="3.5" ry="3.287" fill="#28A745"/><defs><linearGradient id="a" x1="71.275" y1="17" x2="8.19" y2="23.491" gradientUnits="userSpaceOnUse"><stop stop-color="#28A745"/><stop offset="1" stop-color="#93D3A2" stop-opacity=".52"/></linearGradient></defs></svg>