<svg width="77" height="33" fill="none" xmlns="http://www.w3.org/2000/svg"><path d="m1 18.846 2.283 3.956h1.581l1.58-3.956h1.933l1.932-5.44 1.054-1.483 1.405-1.978.878.99.351 7.911 2.134 3.396.702 1.879.502 3.407L18.563 32l.703-4.473.878-2.417.15-3.407 1.43-1.373 1.932-6.923 1.581-2.418 3.689-3.516 1.932 2.472 3.337 1.978 2.283 5.934 2.986.99 1.756-5.44 2.81-1.484 2.987 2.473 2.634-.99 2.283-4.944L54.57 5l2.635 2.473 2.459 3.461h2.634l1.863 2.473 2.159-.907 2.16-2 2.249-3.555L72.798 3.5" stroke="url(#a)" stroke-width="2" stroke-linecap="round" stroke-linejoin="round"/><ellipse cx="72.519" cy="3.242" rx="3.5" ry="3.242" fill="#28A745"/><defs><linearGradient id="a" x1="71.718" y1="20" x2="4.814" y2="24.078" gradientUnits="userSpaceOnUse"><stop stop-color="#28A745"/><stop offset="1" stop-color="#93D3A2" stop-opacity=".52"/></linearGradient></defs></svg>