<svg width="113" height="127" fill="none" xmlns="http://www.w3.org/2000/svg"><path d="M10.583 112.818H9.06v7.477h-.094l-5.18-7.477H2.365V123H3.9v-7.467h.094L9.171 123h1.412v-10.182Zm5.338 10.336c2.153 0 3.56-1.576 3.56-3.937 0-2.377-1.407-3.953-3.56-3.953s-3.56 1.576-3.56 3.953c0 2.361 1.407 3.937 3.56 3.937Zm.005-1.248c-1.407 0-2.063-1.228-2.063-2.694 0-1.462.656-2.705 2.063-2.705 1.397 0 2.053 1.243 2.053 2.705 0 1.466-.656 2.694-2.053 2.694ZM25.824 123l.935-2.695h3.977l.93 2.695h1.63l-3.663-10.182h-1.775L24.194 123h1.63Zm1.382-3.987 1.502-4.345h.08l1.5 4.345h-3.082Zm10.535 4.141c1.805 0 2.973-1.084 3.137-2.57h-1.446c-.19.825-.83 1.312-1.68 1.312-1.259 0-2.069-1.049-2.069-2.714 0-1.636.825-2.665 2.068-2.665.945 0 1.522.597 1.68 1.313h1.447c-.159-1.542-1.416-2.566-3.152-2.566-2.152 0-3.544 1.621-3.544 3.953 0 2.301 1.342 3.937 3.56 3.937Zm8.292-7.79h-1.566v-1.83H42.98v1.83h-1.118v1.193h1.118v4.509c-.005 1.387 1.054 2.058 2.227 2.033.473-.005.79-.094.965-.159l-.269-1.228c-.099.02-.283.065-.522.065-.482 0-.914-.159-.914-1.019v-4.201h1.566v-1.193ZM47.677 123h1.486v-7.636h-1.486V123Zm.75-8.815c.513 0 .94-.397.94-.885 0-.487-.427-.889-.94-.889-.516 0-.939.402-.939.889 0 .488.423.885.94.885Zm9.269 1.179H56.1l-1.929 5.876h-.08l-1.933-5.876h-1.596L53.336 123h1.59l2.77-7.636ZM59.093 123h1.486v-7.636h-1.486V123Zm.75-8.815c.513 0 .94-.397.94-.885 0-.487-.427-.889-.94-.889-.516 0-.939.402-.939.889 0 .488.423.885.94.885Zm6.301 1.179h-1.566v-1.83H63.09v1.83h-1.118v1.193h1.118v4.509c-.005 1.387 1.054 2.058 2.228 2.033.472-.005.79-.094.964-.159l-.268-1.228c-.1.02-.284.065-.522.065-.483 0-.915-.159-.915-1.019v-4.201h1.566v-1.193ZM67.788 123h1.487v-7.636h-1.487V123Zm.751-8.815c.512 0 .94-.397.94-.885 0-.487-.428-.889-.94-.889-.517 0-.94.402-.94.889 0 .488.423.885.94.885Zm6.027 8.969c1.665 0 2.844-.82 3.182-2.063l-1.407-.254c-.269.721-.915 1.089-1.76 1.089-1.273 0-2.128-.825-2.168-2.297h5.43v-.527c0-2.759-1.651-3.838-3.382-3.838-2.127 0-3.53 1.621-3.53 3.968 0 2.371 1.383 3.922 3.635 3.922Zm-2.148-4.638c.06-1.084.845-2.024 2.053-2.024 1.154 0 1.91.855 1.914 2.024h-3.967Zm12.796-1.288c-.308-1.188-1.238-1.964-2.889-1.964-1.725 0-2.948.91-2.948 2.262 0 1.084.656 1.805 2.088 2.123l1.293.284c.736.164 1.079.492 1.079.969 0 .592-.632 1.054-1.606 1.054-.89 0-1.462-.383-1.64-1.134l-1.438.219c.249 1.352 1.373 2.113 3.088 2.113 1.844 0 3.122-.979 3.122-2.361 0-1.079-.686-1.745-2.088-2.069l-1.213-.278c-.84-.199-1.203-.482-1.198-.999-.005-.587.631-1.005 1.476-1.005.925 0 1.352.513 1.526 1.025l1.348-.239Zm6.428 8.636c1.228 0 2.004-.642 2.446-1.845l3.157-8.64-1.606-.015-1.934 5.926h-.08l-1.933-5.926H90.1l2.794 7.735-.184.508c-.378 1.014-.91 1.098-1.725.875l-.358 1.218c.179.079.567.164 1.014.164Zm10.022-2.71c1.665 0 2.843-.82 3.181-2.063l-1.407-.254c-.268.721-.914 1.089-1.76 1.089-1.272 0-2.127-.825-2.167-2.297h5.429v-.527c0-2.759-1.651-3.838-3.381-3.838-2.128 0-3.53 1.621-3.53 3.968 0 2.371 1.382 3.922 3.635 3.922Zm-2.148-4.638c.06-1.084.845-2.024 2.053-2.024 1.153 0 1.909.855 1.914 2.024h-3.967Zm10.638-3.152h-1.566v-1.83h-1.487v1.83h-1.118v1.193h1.118v4.509c-.005 1.387 1.054 2.058 2.227 2.033.473-.005.791-.094.965-.159l-.268-1.228c-.1.02-.284.065-.523.065-.482 0-.914-.159-.914-1.019v-4.201h1.566v-1.193Z" fill="#5F6368"/><rect y="3" width="113" height="93" rx="4" fill="#F3F8FF"/><path d="M93.334 56.374c.3-.614.563-1.259.792-1.935 2.622-7.739-1.343-17.008-9.693-19.245-.903-11.338-8.87-19.115-17.867-20.442-10.298-1.519-19.733 5.023-22.872 15.422-3.784-1.34-7.47-1.177-10.945.853-1.576.729-3.018 1.805-4.312 3.22-1.9 2.077-3.134 4.7-3.637 7.465-.745.117-1.477.235-2.167.482-4.023 1.443-6.562 4.413-7.258 8.886-.434 2.785.441 5.564.93 6.687 1.926 4.436 6.395 6.952 10.935 6.286.226-.033.554.069.75.232.24 7.091 3.682 13.362 8.847 16.944 8.287 5.748 18.95 3.977 25.675-3.905 2.882 2.948 6.313 4.38 10.342 3.86 4.006-.517 7.117-2.728 9.387-6.322 1.048.282 2.043.689 3.071.801 4.025.44 7.294-1.161 9.692-4.78.918-1.385 1.786-3.181 1.786-6.328 0-3.245-1.288-6.2-3.456-8.181Z" fill="#E7F1FF"/><path d="M81.488 49.772h11.714a4.868 4.868 0 0 0 1-9.634 5.15 5.15 0 0 0 .043-.625 5.042 5.042 0 0 0-5.042-5.042 5.03 5.03 0 0 0-4.02 2.008 5.561 5.561 0 0 0-6.244-5.095c-2.37.29-4.328 2.121-4.764 4.467a5.657 5.657 0 0 0 .014 2.168 3.464 3.464 0 0 0-2.546-1.115 3.475 3.475 0 0 0-3.466 3.248 4.673 4.673 0 0 0-2.706.187c-1.832.688-3.137 2.413-3.214 4.369a4.869 4.869 0 0 0 4.864 5.064h11.223" fill="#fff"/><path d="M93.202 50.272H81.488a.5.5 0 0 1 0-1h11.714a4.374 4.374 0 0 0 4.37-4.369 4.383 4.383 0 0 0-3.47-4.275.5.5 0 0 1-.395-.55c.023-.186.04-.374.04-.565a4.547 4.547 0 0 0-4.543-4.542 4.51 4.51 0 0 0-3.622 1.81.499.499 0 0 1-.897-.263 5.086 5.086 0 0 0-1.842-3.533A5.048 5.048 0 0 0 79 31.881c-2.156.264-3.938 1.934-4.333 4.062a5.16 5.16 0 0 0 .012 1.978.5.5 0 0 1-.856.44 2.946 2.946 0 0 0-2.18-.955 2.982 2.982 0 0 0-2.967 2.78.502.502 0 0 1-.607.455 4.134 4.134 0 0 0-2.422.167c-1.66.624-2.822 2.2-2.89 3.92a4.339 4.339 0 0 0 1.216 3.204 4.332 4.332 0 0 0 3.15 1.341h11.222a.5.5 0 0 1 0 1H67.122a5.322 5.322 0 0 1-3.87-1.648 5.329 5.329 0 0 1-1.494-3.936c.083-2.118 1.504-4.054 3.537-4.817a5.146 5.146 0 0 1 2.457-.298 3.986 3.986 0 0 1 3.891-3.168 3.97 3.97 0 0 1 1.934.506c0-.382.035-.767.106-1.15.474-2.554 2.61-4.557 5.195-4.873a6.02 6.02 0 0 1 4.598 1.323 6.1 6.1 0 0 1 2.03 3.178 5.484 5.484 0 0 1 3.696-1.418 5.548 5.548 0 0 1 5.535 5.788 5.392 5.392 0 0 1 3.832 5.144 5.372 5.372 0 0 1-5.367 5.368Z" fill="#9AA0A6"/><path d="M78.667 39.048c-1.8-.118-3.35 1.126-3.462 2.778-.014.205-.005.407.025.604a2.116 2.116 0 0 0-1.452-.697c-1.08-.071-2.013.643-2.149 1.613a3.077 3.077 0 0 0-.614-.104c-1.576-.103-2.932.985-3.029 2.431" fill="#FDFCEF"/><path d="M67.987 45.921h-.017a.25.25 0 0 1-.233-.266c.106-1.581 1.588-2.775 3.295-2.664.135.009.27.027.406.053.274-.963 1.26-1.63 2.356-1.562.423.028.819.159 1.158.38l.003-.054c.12-1.787 1.786-3.129 3.728-3.011a.25.25 0 1 1-.033.499c-1.668-.118-3.095 1.033-3.196 2.545a2.46 2.46 0 0 0 .023.549.25.25 0 0 1-.434.204 1.858 1.858 0 0 0-1.281-.614c-.94-.065-1.768.552-1.885 1.398a.251.251 0 0 1-.313.207 2.969 2.969 0 0 0-.565-.096c-1.444-.106-2.676.892-2.763 2.198a.25.25 0 0 1-.25.234Z" fill="#472B29"/><path d="M95.173 40.71c-1.692-.798-3.65-.233-4.371 1.262-.09.186-.156.377-.2.571" fill="#FDFCEF"/><path d="M90.602 42.792a.25.25 0 0 1-.244-.305c.05-.217.123-.427.219-.624.78-1.615 2.891-2.233 4.702-1.38a.25.25 0 0 1-.213.454c-1.566-.738-3.377-.225-4.039 1.145-.079.164-.14.338-.182.518a.247.247 0 0 1-.243.192Z" fill="#BDC1C6"/><path d="M23.288 48.444h-9.99a.5.5 0 0 1 0-1h9.99a.5.5 0 0 1 0 1Zm2.869 0h-1.44a.5.5 0 0 1 0-1h1.44a.5.5 0 0 1 0 1Zm4.038 0H27.66a.5.5 0 0 1 0-1h2.536a.5.5 0 1 1-.001 1Zm0 1.857h-9.577a.5.5 0 0 1 0-1h9.577a.5.5 0 0 1 0 1Zm-11.301 0h-.578a.5.5 0 0 1 0-1h.578a.5.5 0 0 1 0 1Zm-2.367 0h-1.45a.5.5 0 0 1 0-1h1.45a.5.5 0 0 1 0 1Zm9.098-3.714h-5.007a.5.5 0 0 1 0-1h5.007a.5.5 0 0 1 0 1Zm0-1.857h-1.252a.5.5 0 0 1 0-1h1.252a.5.5 0 0 1 0 1Zm-3.256 7.429h-1.751a.5.5 0 0 1 0-1h1.75a.5.5 0 0 1 0 1Zm53.878-29.884h-9.99a.5.5 0 0 1 0-1h9.99a.5.5 0 0 1 0 1Zm2.87 0h-1.44a.5.5 0 0 1 0-1h1.44a.5.5 0 0 1 0 1Zm4.038 0H80.62a.5.5 0 0 1 0-1h2.535a.5.5 0 0 1 0 1Zm-2.017-3.714H71.56a.5.5 0 0 1 0-1h9.577a.5.5 0 0 1 0 1Zm-11.302 0h-.578a.5.5 0 0 1 0-1h.578a.5.5 0 0 1 0 1Zm-2.367 0h-1.451a.5.5 0 0 1 0-1h1.45a.5.5 0 0 1 0 1Zm11.116 1.857h-5.007a.5.5 0 0 1 0-1h5.007a.5.5 0 0 1 0 1Z" fill="#fff"/><path d="M78.585 18.561h-1.252a.5.5 0 0 1 0-1h1.252a.5.5 0 0 1 0 1Zm-6.456 1.857h-1.751a.5.5 0 0 1 0-1h1.75a.5.5 0 0 1 0 1Z" fill="#fff"/><path d="M71.507 73.273H41.972c-3.766 0-6.847-3.081-6.847-6.847V36.89c0-3.766 3.081-6.847 6.847-6.847h29.535c3.766 0 6.847 3.08 6.847 6.847v29.535c0 3.766-3.081 6.847-6.847 6.847Z" fill="#85B7FE"/><path d="M71.507 73.974H41.972c-4.162 0-7.547-3.386-7.547-7.547V36.891c0-4.162 3.386-7.547 7.547-7.547h29.535c4.162 0 7.547 3.386 7.547 7.547v29.535c0 4.162-3.385 7.548-7.547 7.548Zm-29.535-43.23a6.153 6.153 0 0 0-6.147 6.147v29.535a6.153 6.153 0 0 0 6.147 6.147h29.535a6.153 6.153 0 0 0 6.147-6.147V36.891a6.153 6.153 0 0 0-6.147-6.147H41.972Z" fill="#803C25"/><path d="M69.718 70.186H43.762c-3.052 0-5.55-2.497-5.55-5.549V38.681c0-3.052 2.498-5.549 5.55-5.549h25.956c3.052 0 5.549 2.497 5.549 5.55v25.955c0 3.052-2.497 5.55-5.55 5.55Z" fill="#fff"/><path d="M69.636 70.536H43.844a5.988 5.988 0 0 1-5.98-5.981V38.763a5.988 5.988 0 0 1 5.98-5.981h24.561a.35.35 0 0 1 0 .7h-24.56a5.287 5.287 0 0 0-5.282 5.281v25.792a5.287 5.287 0 0 0 5.281 5.281h25.792a5.287 5.287 0 0 0 5.281-5.281V50.286a.35.35 0 0 1 .7 0v14.269a5.988 5.988 0 0 1-5.98 5.981Zm5.63-21.958a.35.35 0 0 1-.35-.35v-2.745a.35.35 0 0 1 .7 0v2.745a.35.35 0 0 1-.35.35Zm0-4.118a.35.35 0 0 1-.35-.35v-1.372a.35.35 0 0 1 .7 0v1.373a.35.35 0 0 1-.35.35Z" fill="#803C25"/><path d="M45.473 76.029h3.526c2.1 0 3.805-1.667 3.805-3.724 0-1.794-1.297-3.292-3.023-3.645.02-.157.033-.316.033-.478 0-2.13-1.764-3.857-3.941-3.857a3.96 3.96 0 0 0-3.142 1.536c-.184-2.371-2.348-4.2-4.88-3.897-1.851.222-3.383 1.622-3.723 3.417a4.241 4.241 0 0 0 .01 1.659 2.735 2.735 0 0 0-1.99-.853c-1.44 0-2.615 1.097-2.708 2.484a3.727 3.727 0 0 0-2.115.143c-1.432.526-2.452 1.846-2.512 3.342-.085 2.125 1.65 3.873 3.802 3.873h16.858Zm-6.451 0h.358-.358Z" fill="#fff"/><path d="M48.999 76.529h-3.526a.5.5 0 0 1 0-1h3.526c1.822 0 3.305-1.446 3.305-3.224 0-1.517-1.103-2.844-2.623-3.155a.5.5 0 0 1-.396-.553 3.17 3.17 0 0 0 .029-.416c0-1.851-1.543-3.357-3.44-3.357a3.445 3.445 0 0 0-2.747 1.342.5.5 0 0 1-.894-.267 3.702 3.702 0 0 0-1.362-2.591 3.882 3.882 0 0 0-2.96-.848c-1.638.196-2.991 1.435-3.291 3.014-.093.492-.09.984.01 1.464a.5.5 0 0 1-.852.445 2.22 2.22 0 0 0-1.627-.696c-1.164 0-2.134.886-2.21 2.017a.5.5 0 0 1-.605.455 3.2 3.2 0 0 0-1.836.124c-1.256.461-2.134 1.624-2.185 2.893a3.16 3.16 0 0 0 .89 2.333 3.315 3.315 0 0 0 2.413 1.02h8.77a.5.5 0 0 1 0 1h-8.77a4.359 4.359 0 0 1-3.133-1.327 4.156 4.156 0 0 1-1.17-3.066c.068-1.668 1.209-3.192 2.84-3.791a4.2 4.2 0 0 1 1.872-.244c.344-1.39 1.624-2.414 3.125-2.414.49 0 .97.112 1.406.32a4.77 4.77 0 0 1 .082-.719c.38-2.003 2.089-3.574 4.156-3.821 1.356-.159 2.675.217 3.712 1.068a4.715 4.715 0 0 1 1.54 2.291 4.445 4.445 0 0 1 2.83-1.001c2.448 0 4.44 1.955 4.44 4.357l-.001.101c1.757.553 2.99 2.18 2.99 4.022-.003 2.329-1.935 4.224-4.308 4.224Zm-9.62 0h-.357a.5.5 0 0 1 0-1h.358a.5.5 0 0 1 0 1Z" fill="#9AA0A6"/><path d="M47.298 70.749a.25.25 0 0 1-.244-.305c.037-.165.094-.325.169-.477.602-1.219 2.263-1.67 3.708-1.003a.25.25 0 0 1-.21.454c-1.198-.554-2.566-.208-3.05.771a1.634 1.634 0 0 0-.13.365.25.25 0 0 1-.243.195ZM42.16 76.53h-1.102a.5.5 0 0 1 0-1h1.103a.5.5 0 0 1 0 1Z" fill="#BDC1C6"/><path d="M61.504 45.004c-2.085 0-3.675.52-4.578 1.57l-.004.004-2.027 2.426h-.39c-1.426 0-2.462.262-3.145.531-.688.27-1.059.582-1.059.582a.504.504 0 0 0-.028.733l6.754 6.873a.493.493 0 0 0 .692.011s.364-.355.676-1.035c.313-.683.61-1.726.61-3.195v-.398l2.425-2.024.004-.004c1.05-.898 1.57-2.488 1.57-4.574v-1a.5.5 0 0 0-.5-.5h-1Zm0 1h.5v.5c0 1.914-.5 3.2-1.222 3.816l-5.25 4.375-2.227-2.226 4.383-5.25c.621-.719 1.906-1.215 3.816-1.215Zm-1.5 1c-.55 0-1 .45-1 1s.45 1 1 1c.551 0 1-.45 1-1s-.449-1-1-1Zm-5.96 3.02-1.465 1.75-1.133-1.157c.117-.066.07-.07.281-.152.496-.196 1.266-.39 2.317-.442Zm3.94 3.93c-.054 1.077-.276 1.843-.5 2.327-.1.227-.108.184-.183.297l-1.113-1.129 1.797-1.496Zm-5.98.042-1.597 3.195a.3.3 0 0 0 .402.403l3.195-1.598-2-2Z" fill="#0D6EFD"/></svg>