<svg width="190" height="154" fill="none" xmlns="http://www.w3.org/2000/svg"><path d="M41.426 142c-.378-2.088-2.048-3.321-4.096-3.321-2.606 0-4.495 2.009-4.495 5.23 0 3.222 1.89 5.23 4.495 5.23 2.048 0 3.718-1.233 4.096-3.321h-1.233c-.298 1.412-1.511 2.168-2.863 2.168-1.85 0-3.302-1.432-3.302-4.077s1.452-4.077 3.302-4.077c1.352 0 2.565.756 2.863 2.168h1.233Zm4.936 7.159c2.068 0 3.46-1.571 3.46-3.937 0-2.387-1.392-3.958-3.46-3.958-2.069 0-3.46 1.571-3.46 3.958 0 2.366 1.392 3.937 3.46 3.937Zm0-1.054c-1.571 0-2.287-1.352-2.287-2.883 0-1.532.716-2.904 2.287-2.904 1.57 0 2.287 1.372 2.287 2.904 0 1.531-.716 2.883-2.287 2.883Zm6.424-3.699c0-1.332.825-2.088 1.95-2.088 1.088 0 1.75.711 1.75 1.909V149h1.172v-4.852c0-1.949-1.039-2.884-2.585-2.884-1.153 0-1.87.517-2.227 1.293h-.1v-1.193h-1.133V149h1.173v-4.594Zm10.417-3.042h-1.71v-.776c0-.756.318-1.153 1.093-1.153.339 0 .537.079.657.119l.338-1.014c-.18-.08-.537-.199-1.114-.199-1.094 0-2.148.656-2.148 1.969v1.054h-1.233v.994h1.233V149h1.174v-6.642h1.71v-.994ZM64.847 149h1.174v-7.636h-1.174V149Zm.597-8.909c.457 0 .835-.358.835-.796 0-.437-.378-.795-.835-.795-.457 0-.835.358-.835.795 0 .438.378.796.835.796Zm5.808 11.932c1.83 0 3.301-.835 3.301-2.804v-7.855H73.42v1.213h-.12c-.258-.398-.736-1.313-2.227-1.313-1.929 0-3.261 1.531-3.261 3.878 0 2.386 1.392 3.739 3.241 3.739 1.492 0 1.969-.875 2.227-1.293h.1v1.551c0 1.273-.895 1.85-2.128 1.85-1.387 0-1.874-.731-2.188-1.154l-.934.656c.477.801 1.417 1.532 3.122 1.532Zm-.04-4.196c-1.471 0-2.227-1.114-2.227-2.705 0-1.551.736-2.804 2.227-2.804 1.432 0 2.188 1.154 2.188 2.804 0 1.69-.776 2.705-2.188 2.705Zm10.301-1.949c0 1.432-1.093 2.088-1.968 2.088-.975 0-1.67-.716-1.67-1.83v-4.772H76.7v4.852c0 1.949 1.034 2.883 2.466 2.883 1.153 0 1.909-.616 2.267-1.392h.08V149h1.173v-7.636h-1.174v4.514ZM84.836 149h1.173v-4.832c0-1.034.815-1.79 1.929-1.79.313 0 .636.06.716.079v-1.193a11.26 11.26 0 0 0-.617-.02c-.915 0-1.71.517-1.988 1.273h-.08v-1.153h-1.133V149Zm8.178.159c1.551 0 2.684-.775 3.043-1.929l-1.134-.318c-.298.795-.99 1.193-1.91 1.193-1.376 0-2.326-.89-2.38-2.525h5.543v-.498c0-2.843-1.69-3.818-3.282-3.818-2.068 0-3.44 1.631-3.44 3.977 0 2.347 1.353 3.918 3.56 3.918Zm-2.382-4.594c.08-1.188.92-2.247 2.262-2.247 1.273 0 2.089.955 2.089 2.247h-4.35ZM110.25 142c-.377-2.088-2.048-3.321-4.096-3.321-2.605 0-4.495 2.009-4.495 5.23 0 3.222 1.89 5.23 4.495 5.23 2.048 0 3.719-1.233 4.096-3.321h-1.233c-.298 1.412-1.511 2.168-2.863 2.168-1.85 0-3.301-1.432-3.301-4.077s1.451-4.077 3.301-4.077c1.352 0 2.565.756 2.863 2.168h1.233Zm3.007 2.406c0-1.332.85-2.088 2.008-2.088 1.104 0 1.77.696 1.77 1.909V149h1.174v-4.852c0-1.964-1.044-2.884-2.605-2.884-1.204 0-1.89.502-2.248 1.293h-.099v-3.739h-1.173V149h1.173v-4.594Zm9.345 4.773c1.333 0 2.029-.716 2.267-1.213h.06V149h1.173v-5.031c0-2.426-1.849-2.705-2.824-2.705-1.153 0-2.466.398-3.062 1.79l1.114.398c.258-.557.87-1.154 1.988-1.154 1.079 0 1.611.572 1.611 1.551v.04c0 .567-.577.517-1.969.696-1.417.184-2.963.497-2.963 2.247 0 1.492 1.154 2.347 2.605 2.347Zm.179-1.054c-.934 0-1.611-.418-1.611-1.233 0-.895.816-1.173 1.731-1.293.497-.059 1.829-.198 2.028-.437v1.074c0 .954-.756 1.889-2.148 1.889Zm6.636-3.719c0-1.332.825-2.088 1.949-2.088 1.089 0 1.75.711 1.75 1.909V149h1.173v-4.852c0-1.949-1.039-2.884-2.585-2.884-1.153 0-1.869.517-2.227 1.293h-.1v-1.193h-1.133V149h1.173v-4.594Zm8.19 0c0-1.332.825-2.088 1.948-2.088 1.089 0 1.75.711 1.75 1.909V149h1.174v-4.852c0-1.949-1.039-2.884-2.586-2.884-1.153 0-1.869.517-2.227 1.293h-.099v-1.193h-1.134V149h1.174v-4.594Zm10.217 4.753c1.552 0 2.685-.775 3.043-1.929l-1.134-.318c-.298.795-.989 1.193-1.909 1.193-1.377 0-2.326-.89-2.381-2.525h5.543v-.498c0-2.843-1.69-3.818-3.281-3.818-2.068 0-3.44 1.631-3.44 3.977 0 2.347 1.352 3.918 3.559 3.918Zm-2.381-4.594c.08-1.188.92-2.247 2.262-2.247 1.273 0 2.088.955 2.088 2.247h-4.35Zm8.501-5.747h-1.173V149h1.173v-10.182Z" fill="#0D6EFD"/><path d="M9.337 111.818H7.815v7.477h-.094l-5.18-7.477H1.118V122h1.536v-7.467h.094L7.925 122h1.412v-10.182Zm5.338 10.336c2.153 0 3.56-1.576 3.56-3.937 0-2.377-1.407-3.953-3.56-3.953s-3.56 1.576-3.56 3.953c0 2.361 1.407 3.937 3.56 3.937Zm.005-1.248c-1.407 0-2.063-1.228-2.063-2.694 0-1.462.656-2.705 2.063-2.705 1.397 0 2.053 1.243 2.053 2.705 0 1.466-.656 2.694-2.053 2.694Zm17.495-5.777c-.348-2.177-2.053-3.45-4.206-3.45-2.635 0-4.579 1.974-4.579 5.23 0 3.256 1.934 5.23 4.579 5.23 2.237 0 3.873-1.402 4.206-3.415l-1.551-.005c-.264 1.302-1.357 2.018-2.645 2.018-1.745 0-3.063-1.337-3.063-3.828 0-2.471 1.313-3.828 3.068-3.828 1.297 0 2.386.731 2.64 2.048h1.55Zm3.205 2.337c0-1.218.77-1.914 1.83-1.914 1.024 0 1.636.651 1.636 1.77V122h1.486v-4.857c0-1.904-1.044-2.879-2.615-2.879-1.188 0-1.904.517-2.262 1.343h-.095v-3.789h-1.466V122h1.486v-4.534Zm9.158 4.703c1.263 0 1.974-.641 2.257-1.213h.06V122h1.452v-5.071c0-2.222-1.75-2.665-2.964-2.665-1.382 0-2.654.557-3.152 1.949l1.397.318c.22-.542.776-1.064 1.775-1.064.96 0 1.452.502 1.452 1.368v.034c0 .542-.557.532-1.929.691-1.447.169-2.928.547-2.928 2.282 0 1.502 1.128 2.327 2.58 2.327Zm.323-1.193c-.84 0-1.447-.378-1.447-1.114 0-.795.706-1.079 1.566-1.193.483-.065 1.626-.194 1.84-.408v.985c0 .905-.72 1.73-1.959 1.73Zm6.912-3.51c0-1.218.746-1.914 1.78-1.914 1.009 0 1.62.661 1.62 1.77V122h1.487v-4.857c0-1.889-1.04-2.879-2.6-2.879-1.149 0-1.9.532-2.252 1.343h-.095v-1.243h-1.427V122h1.487v-4.534Zm8.367 0c0-1.218.746-1.914 1.78-1.914 1.01 0 1.62.661 1.62 1.77V122h1.487v-4.857c0-1.889-1.039-2.879-2.6-2.879-1.148 0-1.9.532-2.252 1.343h-.095v-1.243h-1.426V122h1.486v-4.534Zm10.172 4.688c1.666 0 2.844-.82 3.182-2.063l-1.407-.254c-.269.721-.915 1.089-1.76 1.089-1.273 0-2.128-.825-2.168-2.297h5.43v-.527c0-2.759-1.651-3.838-3.381-3.838-2.128 0-3.53 1.621-3.53 3.968 0 2.371 1.382 3.922 3.634 3.922Zm-2.148-4.638c.06-1.084.845-2.024 2.053-2.024 1.154 0 1.91.855 1.915 2.024h-3.968Zm8.56-5.698h-1.486V122h1.486v-10.182Zm7.722 4.41c-.308-1.188-1.238-1.964-2.888-1.964-1.725 0-2.948.91-2.948 2.262 0 1.084.656 1.805 2.088 2.123l1.292.284c.736.164 1.08.492 1.08.969 0 .592-.632 1.054-1.607 1.054-.89 0-1.461-.383-1.64-1.134l-1.437.219c.248 1.352 1.372 2.113 3.087 2.113 1.845 0 3.122-.979 3.122-2.361 0-1.079-.686-1.745-2.088-2.069l-1.213-.278c-.84-.199-1.203-.482-1.198-.999-.005-.587.632-1.005 1.477-1.005.924 0 1.352.513 1.526 1.025l1.347-.239Zm14.065-1.099c-.348-2.177-2.053-3.45-4.206-3.45-2.635 0-4.579 1.974-4.579 5.23 0 3.256 1.934 5.23 4.579 5.23 2.237 0 3.873-1.402 4.206-3.415l-1.551-.005c-.264 1.302-1.357 2.018-2.645 2.018-1.745 0-3.063-1.337-3.063-3.828 0-2.471 1.313-3.828 3.068-3.828 1.297 0 2.386.731 2.64 2.048h1.55Zm4.935 7.025c2.153 0 3.56-1.576 3.56-3.937 0-2.377-1.407-3.953-3.56-3.953-2.152 0-3.56 1.576-3.56 3.953 0 2.361 1.408 3.937 3.56 3.937Zm.005-1.248c-1.407 0-2.063-1.228-2.063-2.694 0-1.462.656-2.705 2.063-2.705 1.397 0 2.054 1.243 2.054 2.705 0 1.466-.657 2.694-2.054 2.694Zm6.701-3.44c0-1.218.746-1.914 1.78-1.914 1.009 0 1.62.661 1.62 1.77V122h1.487v-4.857c0-1.889-1.039-2.879-2.6-2.879-1.149 0-1.899.532-2.252 1.343h-.095v-1.243h-1.427V122h1.487v-4.534Zm10.515-3.102h-1.646v-.686c0-.677.279-1.044 1.004-1.044.309 0 .527.069.667.114l.348-1.203a3.559 3.559 0 0 0-1.243-.204c-1.208 0-2.267.706-2.267 2.138v.885h-1.179v1.193h1.179V122h1.491v-6.443h1.646v-1.193ZM122.2 122h1.487v-7.636H122.2V122Zm.751-8.815c.512 0 .94-.397.94-.885 0-.487-.428-.889-.94-.889-.517 0-.939.402-.939.889 0 .488.422.885.939.885Zm5.937 11.838c1.944 0 3.446-.89 3.446-2.854v-7.805h-1.457v1.238h-.109c-.264-.473-.791-1.338-2.213-1.338-1.844 0-3.201 1.457-3.201 3.888 0 2.436 1.387 3.734 3.191 3.734 1.402 0 1.944-.791 2.213-1.278h.094v1.501c0 1.199-.82 1.716-1.949 1.716-1.238 0-1.72-.622-1.983-1.059l-1.278.527c.403.934 1.422 1.73 3.246 1.73Zm-.014-4.37c-1.328 0-2.019-1.019-2.019-2.521 0-1.467.676-2.605 2.019-2.605 1.297 0 1.993 1.059 1.993 2.605 0 1.576-.711 2.521-1.993 2.521Zm10.291-1.82c.005 1.298-.96 1.914-1.795 1.914-.92 0-1.556-.666-1.556-1.705v-4.678h-1.487v4.857c0 1.894 1.039 2.878 2.506 2.878 1.149 0 1.929-.606 2.282-1.421h.08V122h1.461v-7.636h-1.491v4.469Zm3.489 3.167h1.486v-4.663c0-1 .771-1.721 1.825-1.721.308 0 .656.055.775.09v-1.422a5.992 5.992 0 0 0-.631-.035c-.895 0-1.661.507-1.939 1.328h-.08v-1.213h-1.436V122Zm8.39.154c1.666 0 2.844-.82 3.182-2.063l-1.407-.254c-.268.721-.915 1.089-1.76 1.089-1.272 0-2.128-.825-2.167-2.297h5.429v-.527c0-2.759-1.651-3.838-3.381-3.838-2.128 0-3.53 1.621-3.53 3.968 0 2.371 1.382 3.922 3.634 3.922Zm-2.147-4.638c.059-1.084.845-2.024 2.053-2.024 1.153 0 1.909.855 1.914 2.024h-3.967Zm9.932 4.633c1.392 0 1.939-.85 2.207-1.337h.124V122h1.452v-10.182h-1.486v3.784h-.09c-.268-.473-.776-1.338-2.197-1.338-1.845 0-3.202 1.457-3.202 3.933 0 2.471 1.337 3.952 3.192 3.952Zm.328-1.268c-1.328 0-2.019-1.168-2.019-2.699 0-1.517.676-2.655 2.019-2.655 1.297 0 1.993 1.059 1.993 2.655 0 1.606-.711 2.699-1.993 2.699Zm10.221 3.983c1.228 0 2.004-.642 2.446-1.845l3.157-8.64-1.605-.015-1.934 5.926h-.08l-1.934-5.926h-1.591l2.794 7.735-.184.508c-.378 1.014-.91 1.098-1.725.875l-.358 1.218c.179.079.567.164 1.014.164Zm10.022-2.71c1.665 0 2.844-.82 3.182-2.063l-1.407-.254c-.269.721-.915 1.089-1.76 1.089-1.273 0-2.128-.825-2.168-2.297h5.429v-.527c0-2.759-1.65-3.838-3.381-3.838-2.127 0-3.529 1.621-3.529 3.968 0 2.371 1.382 3.922 3.634 3.922Zm-2.148-4.638c.06-1.084.845-2.024 2.053-2.024 1.154 0 1.909.855 1.914 2.024h-3.967Zm10.638-3.152h-1.566v-1.83h-1.486v1.83h-1.119v1.193h1.119v4.509c-.005 1.387 1.054 2.058 2.227 2.033.472-.005.79-.094.964-.159l-.268-1.228c-.1.02-.284.065-.522.065-.482 0-.915-.159-.915-1.019v-4.201h1.566v-1.193Z" fill="#5F6368"/><rect x="37.754" y="3" width="113" height="93" rx="4" fill="#F3F8FF"/><path d="M131.3 56.7c1.1-2.2 1.8-4.6 1.8-7.2 0-6.6-4.2-12.3-10-14.5 0-11.6-9.4-21-21-21-9.8 0-18 6.7-20.3 15.8-1.5-.5-3-.8-4.7-.8-7.7 0-14 5.8-14.9 13.3-5.2 1.1-9.1 5.7-9.1 11.2 0 6.4 5.1 11.5 11.5 11.5h.5v.5c0 11.3 9.2 20.5 20.5 20.5 6.4 0 12.2-3 15.9-7.6 2.2 2.2 5.2 3.6 8.6 3.6 4.7 0 8.7-2.7 10.7-6.5 1.1.3 2.2.5 3.3.5 6.1 0 11-4.9 11-11 0-3.3-1.4-6.3-3.8-8.3Z" fill="#E7F1FF"/><path d="M122.9 36.5h6.1c2.5 0 4.5-2 4.5-4.5 0-2.3-1.8-4.2-4.1-4.5 0-.2.1-.4.1-.5 0-2.5-2-4.5-4.5-4.5-1.4 0-2.7.7-3.5 1.7-.1-2.6-2.3-4.7-5-4.7-2.8 0-5 2.2-5 5 0 .4.1.9.2 1.3-.7-.8-1.6-1.3-2.7-1.3-1.8 0-3.2 1.3-3.5 3.1-.2 0-.4-.1-.5-.1-2.5 0-4.5 2-4.5 4.5s2 4.5 4.5 4.5h14.9v.5h3v-.5Z" fill="#F8F9FA"/><path d="M116.5 19c-3 0-5.5 2.5-5.5 5.5-.6-.4-1.3-.5-2-.5-1.8 0-3.4 1.3-3.9 3h-.1c-2.8 0-5 2.2-5 5s2.2 5 5 5h14.9c.3 0 .5-.2.5-.5s-.2-.5-.5-.5H105c-2.2 0-4-1.8-4-4s1.8-4 4-4h.5c.2 0 .5-.2.5-.4.2-1.5 1.5-2.6 3-2.6.9 0 1.7.4 2.3 1.1.1.1.2.2.4.2.1 0 .2 0 .2-.1.2-.1.3-.3.3-.6-.1-.4-.2-.8-.2-1.2 0-2.5 2-4.5 4.5-4.5 2.4 0 4.3 1.9 4.5 4.3 0 .2.2.4.3.5h.2c.2 0 .3-.1.4-.2.8-1 1.9-1.5 3.1-1.5 2.2 0 4 1.8 4 4v.4c0 .1 0 .3.1.4.1.1.2.2.3.2 2.1.2 3.6 1.9 3.6 4 0 2.2-1.8 4-4 4h-6.1c-.3 0-.5.2-.5.5s.2.5.5.5h6.1c2.8 0 5-2.2 5-5 0-2.4-1.7-4.4-4-4.9V27c0-2.8-2.2-5-5-5-1.2 0-2.3.4-3.2 1.2-.6-2.4-2.7-4.2-5.3-4.2Z" fill="#9AA0A6"/><path d="M115 26c-1.4 0-2.6 1-2.9 2.3-.4-.2-.8-.3-1.2-.3-1.2 0-2.2.9-2.4 2.1-.2 0-.4-.1-.6-.1-1.5 0-2.8 1.2-2.9 2.7 0 .1.1.3.2.3s.2-.1.2-.2c.1-1.3 1.2-2.3 2.4-2.3.2 0 .5 0 .7.1h.1c.1 0 .1 0 .2-.1.1 0 .1-.1.1-.2 0-1 .8-1.9 1.9-1.9.4 0 .9.2 1.2.5 0 0 .1.1.2.1h.1c.1 0 .1-.1.2-.2.1-1.3 1.2-2.3 2.5-2.3.2 0 .4 0 .7.1h.1c.1 0 .2-.1.2-.2s0-.3-.2-.3c-.3-.1-.5-.1-.8-.1Zm13.9 1.5c-1.3 0-2.5.9-2.9 2.2 0 .1 0 .3.2.3h.1c.1 0 .2-.1.2-.2.3-1.1 1.3-1.8 2.4-1.8h.3c.1 0 .2-.1.2-.2s-.1-.3-.2-.3h-.3Z" fill="#BDC1C6"/><path d="M93.7 21h-9.9c-.3 0-.5-.2-.5-.5s.2-.5.5-.5h9.9c.3 0 .5.2.5.5s-.2.5-.5.5Zm3.1 0h-1c-.3 0-.5-.2-.5-.5s.2-.5.5-.5h1c.3 0 .5.2.5.5s-.2.5-.5.5Zm5 2h-9c-.3 0-.5-.2-.5-.5s.2-.5.5-.5h9c.3 0 .5.2.5.5s-.2.5-.5.5Zm-11 0h-1c-.3 0-.5-.2-.5-.5s.2-.5.5-.5h1c.3 0 .5.2.5.5s-.2.5-.5.5Zm-3 0h-2c-.3 0-.5-.2-.5-.5s.2-.5.5-.5h2c.3 0 .5.2.5.5s-.2.5-.5.5Zm6 2h-2c-.3 0-.5-.2-.5-.5s.2-.5.5-.5h2c.3 0 .5.2.5.5s-.2.5-.5.5Zm3-9h-1c-.3 0-.5.2-.5.5s.2.5.5.5h1c.3 0 .5-.2.5-.5s-.2-.5-.5-.5Zm0 2h-5c-.3 0-.5.2-.5.5s.2.5.5.5h5c.3 0 .5-.2.5-.5s-.2-.5-.5-.5Zm5 2h-3c-.3 0-.5.2-.5.5s.2.5.5.5h3c.3 0 .5-.2.5-.5s-.2-.5-.5-.5Zm24.7 48h-10c-.3 0-.5-.2-.5-.5s.2-.5.5-.5h10c.3 0 .5.2.5.5s-.2.5-.5.5Zm4 0h-2c-.3 0-.5-.2-.5-.5s.2-.5.5-.5h2c.3 0 .5.2.5.5s-.2.5-.5.5Zm5 2h-10c-.3 0-.5-.2-.5-.5s.2-.5.5-.5h10c.3 0 .5.2.5.5s-.2.5-.5.5Zm-12 0h-1c-.3 0-.5-.2-.5-.5s.2-.5.5-.5h1c.3 0 .5.2.5.5s-.2.5-.5.5Zm-3.1 0h-1.9c-.3 0-.5-.2-.5-.5s.2-.5.5-.5h1.9c.3 0 .5.2.5.5s-.2.5-.5.5Zm9.1-4h-5c-.3 0-.5-.2-.5-.5s.2-.5.5-.5h5c.3 0 .5.2.5.5s-.2.5-.5.5Zm-3 6h-2c-.3 0-.5-.2-.5-.5s.2-.5.5-.5h2c.3 0 .5.2.5.5s-.2.5-.5.5Z" fill="#fff"/><path d="M68.5 60.5H72c1.9 0 3.5-1.6 3.5-3.5 0-1.8-1.3-3.2-3.1-3.5 0-.2.1-.4.1-.5 0-1.9-1.6-3.5-3.5-3.5-1 0-2 .5-2.6 1.2-.4-1.8-2-3.2-3.9-3.2-2.2 0-4 1.8-4 4 0 .2 0 .4.1.6-.4-.3-1-.6-1.6-.6-1.2 0-2.2.9-2.5 2.1-.2 0-.4-.1-.5-.1-1.9 0-3.5 1.6-3.5 3.5s1.6 3.5 3.5 3.5h7.5v.5h7v-.5Z" fill="#F8F9FA"/><path d="M70.3 56c-.1 0-.3-.1-.3-.3 0-1.2 1-2.2 2.2-2.2 0 0 .7 0 1.2.1.1 0 .2.2.2.3 0 .1-.2.2-.3.2-.4-.1-1.1-.1-1.1-.1-.9 0-1.7.8-1.7 1.7 0 .2-.1.3-.2.3Zm-6.8 4a.5.5 0 1 0 0 1 .5.5 0 0 0 0-1Z" fill="#BDC1C6"/><path d="M72 61h-3.5c-.3 0-.5-.2-.5-.5s.2-.5.5-.5H72c1.7 0 3-1.3 3-3 0-1.5-1.1-2.8-2.6-3-.1 0-.3-.1-.3-.2s-.1-.2-.1-.4v-.5c0-1.7-1.3-3-3-3-.9 0-1.6.4-2.2 1-.1.1-.3.2-.5.1-.2 0-.3-.2-.4-.4-.3-1.6-1.8-2.8-3.4-2.8-1.9 0-3.5 1.6-3.5 3.5v.4c0 .2-.1.4-.2.5-.1.1-.4.1-.6 0-.3 0-.8-.2-1.2-.2-1 0-1.8.7-2 1.6 0 .3-.3.4-.6.4h-.5c-1.7 0-3 1.3-3 3s1.3 3 3 3h7.5c.3 0 .5.2.5.5s-.1.5-.4.5H54c-2.2 0-4-1.8-4-4s1.8-4 4-4h.2c.4-1.2 1.5-2 2.8-2 .3 0 .7.1 1 .2.2-2.3 2.1-4.2 4.5-4.2 1.8 0 3.5 1.1 4.2 2.8.7-.5 1.5-.8 2.3-.8 2.2 0 4 1.8 4 4v.1c1.7.4 3 2 3 3.9 0 2.2-1.8 4-4 4Z" fill="#9AA0A6"/><path d="M66.5 60h-1c-.3 0-.5.2-.5.5s.2.5.5.5h1c.3 0 .5-.2.5-.5s-.2-.5-.5-.5Z" fill="#BDC1C6"/><path d="M90.72 60.345v-4.3a4.094 4.094 0 0 1 4.09-4.09h2.38a4.094 4.094 0 0 1 4.09 4.09v4.3H90.72Z" fill="#93D3A2"/><path d="M97.19 52.46a3.588 3.588 0 0 1 3.585 3.584v3.795h-9.55v-3.795a3.588 3.588 0 0 1 3.584-3.584h2.382Zm0-1.013h-2.38a4.597 4.597 0 0 0-4.597 4.597v4.808h11.574v-4.808a4.596 4.596 0 0 0-4.596-4.597Z" fill="#803C25"/><path d="M93.107 60.851a.362.362 0 0 1-.362-.361v-4.703a.362.362 0 0 1 .724 0v4.703c0 .2-.162.361-.362.361Zm5.787 0a.362.362 0 0 1-.362-.361v-4.703a.362.362 0 0 1 .724 0v4.703c0 .2-.162.361-.362.361Z" fill="#803C25"/><path d="M96 45.081a3.472 3.472 0 1 0 0 6.945 3.472 3.472 0 0 0 0-6.945Z" fill="#FFF1ED"/><path d="M96 45.587a2.97 2.97 0 0 1 2.966 2.966A2.97 2.97 0 0 1 96 51.519a2.969 2.969 0 0 1-2.966-2.966A2.969 2.969 0 0 1 96 45.587Zm0-1.013a3.978 3.978 0 1 0 0 7.957 3.978 3.978 0 0 0 0-7.957Z" fill="#803C25"/><path d="M96 68.446a.362.362 0 0 1-.361-.361V63.02a.362.362 0 0 1 .723 0v5.064c0 .2-.162.361-.362.361Zm-12.275-5.117a.362.362 0 0 1-.256-.617l3.543-3.544c.141-.142.388-.157.53-.017.14.141.157.353.016.495l-3.578 3.578a.36.36 0 0 1-.255.105Zm24.18.001a.363.363 0 0 1-.256-.106l-3.002-3.003c-.141-.14-.157-.382-.016-.524.139-.14.351-.159.495-.019l3.035 3.034a.362.362 0 0 1-.256.617ZM96 43.128a.362.362 0 0 1-.361-.361v-5.031c0-.2.162-.378.361-.378.2 0 .362.145.362.346v5.063a.362.362 0 0 1-.362.361Z" fill="#0D6EFD"/><path d="M96.362 33.507a2.387 2.387 0 1 0 0 4.774 2.387 2.387 0 0 0 0-4.774Z" fill="#85B7FE"/><path d="M96.361 34.013c1.038 0 1.881.844 1.881 1.88a1.883 1.883 0 0 1-1.88 1.882 1.883 1.883 0 0 1-1.881-1.881c0-1.037.843-1.881 1.88-1.881Zm0-1.013a2.894 2.894 0 1 0 0 5.787 2.894 2.894 0 0 0 0-5.787Z" fill="#0D6EFD"/><path d="M109.894 38.507a2.386 2.386 0 1 0 0 4.772 2.386 2.386 0 0 0 0-4.772Z" fill="#85B7FE"/><path d="M109.894 39.013c1.037 0 1.88.844 1.88 1.88a1.883 1.883 0 0 1-1.88 1.882 1.883 1.883 0 0 1-1.881-1.881c0-1.037.843-1.881 1.881-1.881Zm0-1.013a2.894 2.894 0 1 0 0 5.788 2.894 2.894 0 0 0 0-5.788Z" fill="#0D6EFD"/><path d="M109.894 62.507a2.386 2.386 0 1 0 0 4.772 2.386 2.386 0 0 0 0-4.772Z" fill="#85B7FE"/><path d="M109.894 63.013c1.037 0 1.88.844 1.88 1.88a1.883 1.883 0 0 1-1.88 1.882 1.883 1.883 0 0 1-1.881-1.881c0-1.037.843-1.881 1.881-1.881Zm0-1.013a2.894 2.894 0 1 0 0 5.788 2.894 2.894 0 0 0 0-5.788Z" fill="#0D6EFD"/><path d="M95.894 68.507a2.387 2.387 0 1 0 0 4.774 2.387 2.387 0 0 0 0-4.774Z" fill="#85B7FE"/><path d="M95.894 69.013c1.037 0 1.88.844 1.88 1.88a1.883 1.883 0 0 1-1.88 1.882 1.883 1.883 0 0 1-1.881-1.881c0-1.037.843-1.881 1.88-1.881Zm0-1.013a2.894 2.894 0 1 0 0 5.787 2.894 2.894 0 0 0 0-5.787Z" fill="#0D6EFD"/><path d="M81.894 62.507a2.387 2.387 0 1 0 0 4.774 2.387 2.387 0 0 0 0-4.774Z" fill="#85B7FE"/><path d="M81.894 63.013c1.037 0 1.88.844 1.88 1.88a1.883 1.883 0 0 1-1.88 1.882 1.883 1.883 0 0 1-1.881-1.881c0-1.037.843-1.881 1.88-1.881Zm0-1.013a2.894 2.894 0 1 0 0 5.787 2.894 2.894 0 0 0 0-5.787Z" fill="#0D6EFD"/><path d="M82.894 38.507a2.387 2.387 0 1 0 0 4.774 2.387 2.387 0 0 0 0-4.774Z" fill="#85B7FE"/><path d="M82.894 39.013c1.037 0 1.88.844 1.88 1.88a1.883 1.883 0 0 1-1.88 1.882 1.883 1.883 0 0 1-1.881-1.881c0-1.037.843-1.881 1.88-1.881Zm0-1.013a2.894 2.894 0 1 0 0 5.787 2.894 2.894 0 0 0 0-5.787Zm21.811 9.08a.351.351 0 0 1-.248-.097c-.14-.14-.158-.353-.016-.495l3.578-3.578a.361.361 0 1 1 .511.512l-3.543 3.543a.403.403 0 0 1-.282.116Z" fill="#0D6EFD"/><path d="M87.106 46.552a.328.328 0 0 1-.231-.096l-3.035-3.034a.362.362 0 0 1 .512-.511l3.002 3.002c.14.14.156.382.016.524a.368.368 0 0 1-.264.115Z" fill="#0D6EFD"/></svg>