<svg width="187" height="154" fill="none" xmlns="http://www.w3.org/2000/svg"><path d="M9.337 111.818H7.815v7.477h-.094l-5.18-7.477H1.118V122h1.536v-7.467h.094L7.925 122h1.412v-10.182Zm5.338 10.336c2.153 0 3.56-1.576 3.56-3.937 0-2.377-1.407-3.953-3.56-3.953s-3.56 1.576-3.56 3.953c0 2.361 1.407 3.937 3.56 3.937Zm.005-1.248c-1.407 0-2.063-1.228-2.063-2.694 0-1.462.656-2.705 2.063-2.705 1.397 0 2.053 1.243 2.053 2.705 0 1.466-.656 2.694-2.053 2.694ZM23.718 122h6.443v-1.322h-4.907v-3.118h4.515v-1.317h-4.515v-3.102h4.848v-1.323h-6.384V122Zm9.49-7.636h-1.63l2.346 3.818L31.547 122h1.63l1.716-2.854 1.72 2.854h1.626l-2.401-3.818 2.381-3.818h-1.626l-1.7 2.973-1.685-2.973Zm6.537 10.5h1.487v-4.052h.09c.268.487.815 1.337 2.207 1.337 1.85 0 3.191-1.481 3.191-3.952 0-2.476-1.362-3.933-3.206-3.933-1.417 0-1.93.865-2.193 1.338h-.124v-1.238h-1.452v10.5Zm1.457-6.682c0-1.596.696-2.655 1.994-2.655 1.347 0 2.023 1.138 2.023 2.655 0 1.531-.696 2.699-2.023 2.699-1.278 0-1.994-1.093-1.994-2.699Zm10.475 3.972c1.666 0 2.844-.82 3.182-2.063l-1.407-.254c-.268.721-.915 1.089-1.76 1.089-1.273 0-2.128-.825-2.167-2.297h5.428v-.527c0-2.759-1.65-3.838-3.38-3.838-2.128 0-3.53 1.621-3.53 3.968 0 2.371 1.382 3.922 3.634 3.922Zm-2.148-4.638c.06-1.084.846-2.024 2.054-2.024 1.153 0 1.909.855 1.914 2.024h-3.968ZM56.603 122h1.486v-4.663c0-1 .77-1.721 1.825-1.721.308 0 .656.055.776.09v-1.422a6.005 6.005 0 0 0-.632-.035c-.895 0-1.66.507-1.939 1.328h-.08v-1.213h-1.436V122Zm5.373 0h1.486v-7.636h-1.486V122Zm.75-8.815c.513 0 .94-.397.94-.885 0-.487-.427-.889-.94-.889-.517 0-.94.402-.94.889 0 .488.423.885.94.885ZM65.463 122h1.487v-4.708c0-1.029.72-1.745 1.566-1.745.825 0 1.397.547 1.397 1.377V122h1.481v-4.867c0-.92.562-1.586 1.531-1.586.786 0 1.432.437 1.432 1.471V122h1.487v-5.121c0-1.745-.975-2.615-2.357-2.615-1.098 0-1.924.527-2.292 1.343h-.08c-.332-.836-1.033-1.343-2.052-1.343-1.01 0-1.76.502-2.078 1.343h-.095v-1.243h-1.427V122Zm15.664.154c1.666 0 2.844-.82 3.182-2.063l-1.407-.254c-.268.721-.914 1.089-1.76 1.089-1.272 0-2.128-.825-2.167-2.297h5.429v-.527c0-2.759-1.65-3.838-3.381-3.838-2.128 0-3.53 1.621-3.53 3.968 0 2.371 1.382 3.922 3.634 3.922Zm-2.147-4.638c.06-1.084.845-2.024 2.053-2.024 1.153 0 1.91.855 1.914 2.024H78.98Zm8.56-.05c0-1.218.745-1.914 1.78-1.914 1.009 0 1.62.661 1.62 1.77V122h1.487v-4.857c0-1.889-1.04-2.879-2.6-2.879-1.149 0-1.9.532-2.253 1.343h-.094v-1.243h-1.427V122h1.486v-4.534Zm10.445-3.102h-1.566v-1.83H94.93v1.83h-1.118v1.193h1.118v4.509c-.005 1.387 1.054 2.058 2.228 2.033.472-.005.79-.094.964-.159l-.268-1.228c-.1.02-.284.065-.522.065-.483 0-.915-.159-.915-1.019v-4.201h1.566v-1.193Zm7.243 1.864c-.308-1.188-1.237-1.964-2.888-1.964-1.725 0-2.948.91-2.948 2.262 0 1.084.656 1.805 2.088 2.123l1.292.284c.736.164 1.079.492 1.079.969 0 .592-.631 1.054-1.606 1.054-.889 0-1.461-.383-1.64-1.134l-1.437.219c.249 1.352 1.372 2.113 3.087 2.113 1.845 0 3.123-.979 3.123-2.361 0-1.079-.686-1.745-2.088-2.069l-1.214-.278c-.84-.199-1.203-.482-1.198-.999-.005-.587.632-1.005 1.477-1.005.925 0 1.352.513 1.526 1.025l1.347-.239Zm8.706 5.926c1.804 0 2.973-1.084 3.137-2.57h-1.447c-.189.825-.83 1.312-1.68 1.312-1.258 0-2.069-1.049-2.069-2.714 0-1.636.826-2.665 2.069-2.665.944 0 1.521.597 1.68 1.313h1.447c-.159-1.542-1.417-2.566-3.152-2.566-2.153 0-3.545 1.621-3.545 3.953 0 2.301 1.342 3.937 3.56 3.937Zm4.726-.154h1.487v-4.663c0-1 .771-1.721 1.825-1.721.308 0 .656.055.775.09v-1.422a5.992 5.992 0 0 0-.631-.035c-.895 0-1.661.507-1.939 1.328h-.08v-1.213h-1.437V122Zm8.391.154c1.666 0 2.844-.82 3.182-2.063l-1.407-.254c-.268.721-.915 1.089-1.76 1.089-1.273 0-2.128-.825-2.167-2.297h5.429v-.527c0-2.759-1.651-3.838-3.381-3.838-2.128 0-3.53 1.621-3.53 3.968 0 2.371 1.382 3.922 3.634 3.922Zm-2.147-4.638c.059-1.084.845-2.024 2.053-2.024 1.153 0 1.909.855 1.914 2.024h-3.967Zm9.295 4.653c1.263 0 1.974-.641 2.257-1.213h.06V122h1.452v-5.071c0-2.222-1.75-2.665-2.963-2.665-1.383 0-2.655.557-3.152 1.949l1.397.318c.218-.542.775-1.064 1.774-1.064.96 0 1.452.502 1.452 1.368v.034c0 .542-.557.532-1.929.691-1.447.169-2.928.547-2.928 2.282 0 1.502 1.128 2.327 2.58 2.327Zm.323-1.193c-.84 0-1.446-.378-1.446-1.114 0-.795.706-1.079 1.566-1.193.482-.065 1.625-.194 1.839-.408v.985c0 .905-.721 1.73-1.959 1.73Zm8.99-6.612h-1.566v-1.83h-1.486v1.83h-1.119v1.193h1.119v4.509c-.005 1.387 1.054 2.058 2.227 2.033.472-.005.79-.094.964-.159l-.268-1.228c-.1.02-.283.065-.522.065-.482 0-.915-.159-.915-1.019v-4.201h1.566v-1.193Zm4.854 7.79c1.665 0 2.843-.82 3.182-2.063l-1.407-.254c-.269.721-.915 1.089-1.76 1.089-1.273 0-2.128-.825-2.168-2.297h5.429v-.527c0-2.759-1.651-3.838-3.381-3.838-2.128 0-3.53 1.621-3.53 3.968 0 2.371 1.383 3.922 3.635 3.922Zm-2.148-4.638c.06-1.084.845-2.024 2.053-2.024 1.154 0 1.909.855 1.914 2.024h-3.967Zm9.932 4.633c1.392 0 1.939-.85 2.207-1.337h.125V122h1.451v-10.182h-1.486v3.784h-.09c-.268-.473-.775-1.338-2.197-1.338-1.845 0-3.202 1.457-3.202 3.933 0 2.471 1.338 3.952 3.192 3.952Zm.328-1.268c-1.327 0-2.018-1.168-2.018-2.699 0-1.517.676-2.655 2.018-2.655 1.298 0 1.994 1.059 1.994 2.655 0 1.606-.711 2.699-1.994 2.699Zm10.222 3.983c1.228 0 2.003-.642 2.446-1.845l3.157-8.64-1.606-.015-1.934 5.926h-.08l-1.934-5.926h-1.591l2.795 7.735-.184.508c-.378 1.014-.91 1.098-1.726.875l-.358 1.218c.179.079.567.164 1.015.164Zm10.021-2.71c1.666 0 2.844-.82 3.182-2.063l-1.407-.254c-.268.721-.915 1.089-1.76 1.089-1.273 0-2.128-.825-2.168-2.297h5.429v-.527c0-2.759-1.65-3.838-3.38-3.838-2.128 0-3.53 1.621-3.53 3.968 0 2.371 1.382 3.922 3.634 3.922Zm-2.148-4.638c.06-1.084.846-2.024 2.054-2.024 1.153 0 1.909.855 1.914 2.024h-3.968Zm10.638-3.152h-1.566v-1.83h-1.486v1.83h-1.119v1.193h1.119v4.509c-.005 1.387 1.054 2.058 2.227 2.033.472-.005.791-.094.965-.159l-.269-1.228c-.099.02-.283.065-.522.065-.482 0-.915-.159-.915-1.019v-4.201h1.566v-1.193Z" fill="#5F6368"/><path d="M40.426 142c-.378-2.088-2.048-3.321-4.096-3.321-2.606 0-4.495 2.009-4.495 5.23 0 3.222 1.89 5.23 4.495 5.23 2.048 0 3.718-1.233 4.096-3.321h-1.233c-.298 1.412-1.511 2.168-2.863 2.168-1.85 0-3.302-1.432-3.302-4.077s1.452-4.077 3.302-4.077c1.352 0 2.565.756 2.863 2.168h1.233Zm1.833 7h1.174v-4.832c0-1.034.815-1.79 1.929-1.79.313 0 .636.06.716.079v-1.193a11.26 11.26 0 0 0-.617-.02c-.915 0-1.71.517-1.989 1.273h-.08v-1.153H42.26V149Zm8.179.159c1.55 0 2.684-.775 3.042-1.929l-1.133-.318c-.299.795-.99 1.193-1.91 1.193-1.377 0-2.326-.89-2.38-2.525H53.6v-.498c0-2.843-1.69-3.818-3.282-3.818-2.068 0-3.44 1.631-3.44 3.977 0 2.347 1.352 3.918 3.56 3.918Zm-2.382-4.594c.08-1.188.92-2.247 2.262-2.247 1.273 0 2.088.955 2.088 2.247h-4.35Zm9.576 4.614c1.332 0 2.028-.716 2.267-1.213h.06V149h1.173v-5.031c0-2.426-1.85-2.705-2.824-2.705-1.154 0-2.466.398-3.063 1.79l1.114.398c.258-.557.87-1.154 1.988-1.154 1.08 0 1.611.572 1.611 1.551v.04c0 .567-.576.517-1.968.696-1.417.184-2.964.497-2.964 2.247 0 1.492 1.154 2.347 2.606 2.347Zm.178-1.054c-.934 0-1.61-.418-1.61-1.233 0-.895.815-1.173 1.73-1.293.497-.059 1.83-.198 2.028-.437v1.074c0 .954-.755 1.889-2.148 1.889Zm8.784-6.761h-1.63v-1.83H63.79v1.83h-1.153v.994h1.153v4.773c0 1.332 1.074 1.968 2.068 1.968.438 0 .716-.079.875-.139l-.238-1.054c-.1.02-.259.06-.517.06-.517 0-1.015-.159-1.015-1.154v-4.454h1.631v-.994Zm4.885 7.795c1.55 0 2.684-.775 3.042-1.929l-1.133-.318c-.299.795-.99 1.193-1.91 1.193-1.376 0-2.326-.89-2.38-2.525h5.543v-.498c0-2.843-1.69-3.818-3.282-3.818-2.068 0-3.44 1.631-3.44 3.977 0 2.347 1.352 3.918 3.56 3.918Zm-2.382-4.594c.08-1.188.92-2.247 2.262-2.247 1.273 0 2.088.955 2.088 2.247h-4.35ZM80.522 149h6.224v-1.094h-4.991v-3.46h4.594v-1.094h-4.594v-3.44h4.912v-1.094h-6.145V149Zm9.083-7.636h-1.352l2.426 3.818L88.253 149h1.352l1.83-2.963 1.83 2.963h1.352l-2.466-3.818 2.466-3.818h-1.353l-1.83 3.122-1.829-3.122Zm6.686 10.5h1.173v-4.037h.1c.258.417.755 1.332 2.227 1.332 1.909 0 3.241-1.531 3.241-3.957 0-2.407-1.332-3.938-3.261-3.938-1.492 0-1.95.915-2.208 1.313h-.139v-1.213h-1.133v10.5Zm1.153-6.682c0-1.71.756-2.864 2.188-2.864 1.491 0 2.227 1.253 2.227 2.864 0 1.63-.756 2.923-2.227 2.923-1.412 0-2.188-1.193-2.188-2.923Zm10.58 3.977c1.551 0 2.684-.775 3.042-1.929l-1.133-.318c-.299.795-.99 1.193-1.909 1.193-1.378 0-2.327-.89-2.382-2.525h5.544v-.498c0-2.843-1.691-3.818-3.282-3.818-2.068 0-3.44 1.631-3.44 3.977 0 2.347 1.352 3.918 3.56 3.918Zm-2.382-4.594c.08-1.188.92-2.247 2.262-2.247 1.273 0 2.088.955 2.088 2.247h-4.35ZM112.97 149h1.174v-4.832c0-1.034.815-1.79 1.929-1.79.313 0 .636.06.716.079v-1.193a11.26 11.26 0 0 0-.617-.02c-.915 0-1.71.517-1.989 1.273h-.079v-1.153h-1.134V149Zm5.209 0h1.174v-7.636h-1.174V149Zm.597-8.909c.457 0 .835-.358.835-.796 0-.437-.378-.795-.835-.795-.457 0-.835.358-.835.795 0 .438.378.796.835.796Zm2.726 8.909h1.173v-4.773c0-1.118.815-1.909 1.73-1.909.89 0 1.511.582 1.511 1.452V149h1.194v-4.972c0-.984.616-1.71 1.69-1.71.835 0 1.551.443 1.551 1.571V149h1.173v-5.111c0-1.795-.964-2.625-2.326-2.625-1.094 0-1.895.502-2.287 1.293h-.08c-.378-.816-1.044-1.293-2.048-1.293-.994 0-1.73.477-2.048 1.293h-.1v-1.193h-1.133V149Zm15.369.159c1.551 0 2.685-.775 3.043-1.929l-1.134-.318c-.298.795-.989 1.193-1.909 1.193-1.377 0-2.326-.89-2.381-2.525h5.543v-.498c0-2.843-1.69-3.818-3.281-3.818-2.068 0-3.44 1.631-3.44 3.977 0 2.347 1.352 3.918 3.559 3.918Zm-2.381-4.594c.079-1.188.92-2.247 2.262-2.247 1.273 0 2.088.955 2.088 2.247h-4.35Zm8.501-.159c0-1.332.826-2.088 1.949-2.088 1.089 0 1.75.711 1.75 1.909V149h1.173v-4.852c0-1.949-1.039-2.884-2.585-2.884-1.153 0-1.869.517-2.227 1.293h-.099v-1.193h-1.134V149h1.173v-4.594Zm10.337-3.042h-1.63v-1.83h-1.173v1.83h-1.154v.994h1.154v4.773c0 1.332 1.073 1.968 2.068 1.968.437 0 .716-.079.875-.139l-.239-1.054c-.099.02-.258.06-.517.06-.517 0-1.014-.159-1.014-1.154v-4.454h1.63v-.994Z" fill="#0D6EFD"/><rect x="36.754" y="2" width="113" height="93" rx="4" fill="#F3F8FF"/><path d="M130.215 56.71A15.423 15.423 0 0 0 132 49.5c0-6.621-4.159-12.257-10.001-14.478L122 35c0-11.598-9.402-21-21-21-9.784 0-17.981 6.701-20.313 15.757A14.982 14.982 0 0 0 76 29c-7.692 0-14.023 5.793-14.89 13.252C55.906 43.353 52 47.969 52 53.5 52 59.851 57.149 65 63.5 65c.177 0 .352-.012.526-.022-.004.175-.026.346-.026.522C64 76.822 73.178 86 84.5 86c6.437 0 12.175-2.972 15.934-7.614A11.948 11.948 0 0 0 109 82c4.65 0 8.674-2.65 10.666-6.518 1.052.335 2.171.518 3.334.518 6.075 0 11-4.925 11-11 0-3.311-1.47-6.273-3.785-8.29Z" fill="#E7F1FF"/><path d="M61.405 48H51.5a.5.5 0 0 1 0-1h9.905a.5.5 0 0 1 0 1Zm3.095 0h-1a.5.5 0 0 1 0-1h1a.5.5 0 0 1 0 1Zm4.991 2H60.5a.5.5 0 0 1 0-1h8.991a.5.5 0 0 1 0 1ZM58.5 50h-1a.5.5 0 0 1 0-1h1a.5.5 0 0 1 0 1Zm-3 0h-2a.5.5 0 0 1 0-1h2a.5.5 0 0 1 0 1Zm6 2h-2a.5.5 0 0 1 0-1h2a.5.5 0 0 1 0 1Zm3-9h-1a.5.5 0 0 0 0 1h1a.5.5 0 0 0 0-1Zm0 2h-5a.5.5 0 0 0 0 1h5a.5.5 0 0 0 0-1Zm5 2h-3a.5.5 0 0 0 0 1h3a.5.5 0 0 0 0-1ZM128 64h-10a.5.5 0 0 1 0-1h10a.5.5 0 0 1 0 1Zm4 0h-2a.5.5 0 0 1 0-1h2a.5.5 0 0 1 0 1Zm5 2h-10a.5.5 0 0 1 0-1h10a.5.5 0 0 1 0 1Zm-12 0h-1a.5.5 0 0 1 0-1h1a.5.5 0 0 1 0 1Zm-3.125 0H120a.5.5 0 0 1 0-1h1.875a.5.5 0 0 1 0 1ZM131 62h-5a.5.5 0 0 1 0-1h5a.5.5 0 0 1 0 1Zm-3 6h-2a.5.5 0 0 1 0-1h2a.5.5 0 0 1 0 1Zm-20.75-29.5h-3.5a3.5 3.5 0 0 1-3.5-3.5 3.489 3.489 0 0 1 3.055-3.455 3.495 3.495 0 0 1-.055-.545 3.5 3.5 0 0 1 3.5-3.5c1.032 0 1.95.455 2.59 1.165a3.999 3.999 0 0 1 7.91.835c0 .191-.03.374-.056.558a2.475 2.475 0 0 1 1.556-.558c1.228 0 2.245.887 2.455 2.055.179-.028.358-.055.545-.055a3.5 3.5 0 1 1 0 7h-7.5v.5h-7v-.5Z" fill="#fff"/><path d="M105.5 34a.25.25 0 0 0 .25-.25 2.22 2.22 0 0 0-2.218-2.218c-.034.01-.737 0-1.244.136a.25.25 0 0 0 .13.482c.444-.12 1.1-.12 1.113-.118a1.72 1.72 0 0 1 1.719 1.718c0 .138.112.25.25.25Zm6.75 4a.5.5 0 1 0 0 1.002.5.5 0 0 0 0-1.002Z" fill="#BDC1C6"/><path d="M103.75 39h3.5a.5.5 0 0 0 0-1h-3.5c-1.654 0-3-1.346-3-3a2.996 2.996 0 0 1 2.618-2.959.502.502 0 0 0 .43-.573c-.023-.154-.048-.308-.048-.468 0-1.654 1.346-3 3-3 .85 0 1.638.355 2.219 1a.498.498 0 0 0 .86-.231A3.514 3.514 0 0 1 113.25 26c1.93 0 3.5 1.57 3.5 3.5 0 .143-.021.28-.041.418-.029.203.063.438.242.54.179.102.396.118.556-.01A1.97 1.97 0 0 1 118.75 30c.966 0 1.792.691 1.963 1.644a.498.498 0 0 0 .569.405c.154-.024.308-.049.468-.049 1.654 0 3 1.346 3 3s-1.346 3-3 3h-7.5a.5.5 0 0 0 0 1h7.5c2.206 0 4-1.794 4-4a4.004 4.004 0 0 0-4.174-3.994A2.993 2.993 0 0 0 118.75 29c-.349 0-.689.061-1.011.18A4.506 4.506 0 0 0 113.25 25a4.523 4.523 0 0 0-4.153 2.774A3.979 3.979 0 0 0 106.75 27a4.004 4.004 0 0 0-3.996 4.142A3.999 3.999 0 0 0 99.75 35c0 2.206 1.794 4 4 4Z" fill="#9AA0A6"/><path d="M109.25 38h1a.5.5 0 0 1 0 1h-1a.5.5 0 0 1 0-1Z" fill="#472B29"/><path d="M76.521 76.3a1.823 1.823 0 0 1-1.821-1.82V33.52c0-1.004.817-1.82 1.821-1.82h31.957c1.004 0 1.821.816 1.821 1.82v40.957a1.823 1.823 0 0 1-1.821 1.821H76.521v.001Z" fill="#85B7FE"/><path d="M108.478 32.4c.619 0 1.122.503 1.122 1.122v40.956c0 .619-.503 1.122-1.122 1.122H76.522a1.123 1.123 0 0 1-1.122-1.122V33.522c0-.619.503-1.122 1.122-1.122h31.956Zm0-1.4H76.522A2.522 2.522 0 0 0 74 33.522v40.956A2.522 2.522 0 0 0 76.522 77h31.956A2.522 2.522 0 0 0 111 74.478V33.522A2.522 2.522 0 0 0 108.478 31Z" fill="#803C25"/><path d="M77.7 72.3V35.7h29.6v30.042l-6.809 6.558H77.7Z" fill="#fff"/><path d="M106.6 36.4v29.045l-6.391 6.155H78.4V36.4h28.2ZM108 35H77v38h23.774L108 66.04V35Z" fill="#803C25"/><path d="m106.062 66-5.066 4.688-.029-4.688h5.095Z" fill="#85B7FE"/><path d="M87.208 38.3c-.831 0-1.508-.58-1.508-1.293v-3.233c0-.712.33-.822.438-.858a.742.742 0 0 0 .104-.045l3.907-2.06c1.053-.514 1.967-.758 2.86-.758.896 0 1.835.246 2.952.772l3.866 2.309c.033.02.067.036.103.05.358.14.368.544.368.59v3.233c0 .713-.677 1.293-1.508 1.293H87.208Z" fill="#93D3A2"/><path d="M93.011 30.753c.775 0 1.6.215 2.594.677l3.865 2.303c.042.026.085.049.129.069v3.203c0 .322-.37.593-.808.593H87.208c-.438 0-.808-.271-.808-.593v-3.233c0-.102.011-.173.022-.218.05-.02.099-.041.147-.067l3.87-2.039c.972-.474 1.789-.695 2.572-.695Zm0-1.4c-1.027 0-2.043.28-3.187.838l-3.907 2.058c-.73.245-.917.938-.917 1.523v3.235c0 1.1.989 1.992 2.208 1.992h11.583c1.22 0 2.209-.892 2.209-1.992v-3.234c0-.389-.188-.997-.813-1.242l-3.925-2.34c-1.186-.558-2.224-.838-3.251-.838Z" fill="#803C25"/><path d="M93 32a1 1 0 1 0 0 2 1 1 0 0 0 0-2Z" fill="#472B29"/><path d="M101.2 72h-1.4v-6.5a.7.7 0 0 1 .7-.7h6.5v1.4h-5.8V72Z" fill="#803C25"/><path d="M69 81h-5.75c-2.485.75-4.5-1.265-4.5-3.75 0-2.333 1.782-4.229 4.055-4.455-.022-.181-.055-.358-.055-.545a4.5 4.5 0 0 1 4.5-4.5c1.438 0 2.703.686 3.527 1.736.14-2.636 2.302-4.736 4.973-4.736a5 5 0 0 1 5 5c0 .446-.077.87-.187 1.282a3.475 3.475 0 0 1 2.687-1.282 3.489 3.489 0 0 1 3.455 3.055c.181-.022.358-.055.545-.055a4.5 4.5 0 0 1 4.5 4.5c0 2.485-2.015 4.5-4.5 3.75H72v1h-3v-1Z" fill="#fff"/><path d="M75.5 64c3.033 0 5.5 2.467 5.5 5.5v.047A3.933 3.933 0 0 1 83 69a3.998 3.998 0 0 1 3.858 3.005A2.22 2.22 0 0 1 87 72a5.009 5.009 0 0 1 4.893 6.047C91.413 80.398 89.204 82 86.804 82H72.125a.5.5 0 0 1 0-1h14.718c1.92 0 3.687-1.282 4.071-3.163A4.006 4.006 0 0 0 87 73c-.117 0-.23.017-.343.032l-.141.019a.502.502 0 0 1-.557-.433A2.996 2.996 0 0 0 83 70c-.885 0-1.723.401-2.301 1.1a.503.503 0 0 1-.614.126.5.5 0 0 1-.254-.573c.16-.6.202-1.069.147-1.549-.24-2.127-1.959-3.909-4.092-4.088-2.551-.215-4.725 1.728-4.859 4.246a.5.5 0 0 1-.893.282C69.362 68.563 68.221 68 67 68c-2.206 0-4 1.794-4 4 0 .117.017.23.032.343l.019.141a.5.5 0 0 1-.446.558 3.98 3.98 0 0 0-3.504 4.865C59.509 79.76 61.275 81 63.173 81h5.952a.5.5 0 0 1 0 1h-5.938c-2.467 0-4.708-1.704-5.115-4.138a4.973 4.973 0 0 1 3.931-5.74A5.006 5.006 0 0 1 67 67c1.176 0 2.293.416 3.183 1.164A5.486 5.486 0 0 1 75.5 64Z" fill="#9AA0A6"/><path d="M77.25 71.25c1.403 0 2.61.999 2.913 2.341a2.344 2.344 0 0 1 1.212-.341c1.202 0 2.198.897 2.353 2.068a2.69 2.69 0 0 1 .585-.068 2.94 2.94 0 0 1 2.918 2.732.25.25 0 0 1-.232.267h-.018a.25.25 0 0 1-.249-.232 2.44 2.44 0 0 0-2.419-2.268c-.229 0-.47.042-.738.127a.222.222 0 0 1-.067.01.266.266 0 0 1-.156-.054.264.264 0 0 1-.102-.209 1.877 1.877 0 0 0-1.875-1.875c-.447 0-.885.168-1.23.473a.252.252 0 0 1-.166.063.231.231 0 0 1-.093-.019.247.247 0 0 1-.155-.212c-.102-1.292-1.19-2.305-2.479-2.305-.208 0-.425.034-.682.107a.25.25 0 0 1-.137-.481c.3-.084.561-.124.817-.124Zm-13.883 1.5c1.326 0 2.508.897 2.874 2.182a.25.25 0 1 1-.48.137 2.504 2.504 0 0 0-2.393-1.818c-.117 0-.23.014-.342.029a.251.251 0 0 1-.281-.214.249.249 0 0 1 .214-.281c.133-.019.27-.035.408-.035Z" fill="#BDC1C6"/><path d="M93.9 47.5a1.4 1.4 0 1 1-2.8 0 1.4 1.4 0 0 1 2.8 0Zm1-4.5a.9.9 0 1 1-1.8 0 .9.9 0 0 1 1.8 0Zm-4-1a.9.9 0 1 1-1.8 0 .9.9 0 0 1 1.8 0Z" fill="#FFF1ED" stroke="#FFBCA5" stroke-width=".2"/><path d="M99.624 61.343h.003l-4.001-7.225v-2.47h.875c.483 0 .875-.37.875-.825 0-.454-.392-.823-.875-.823H89.5c-.483 0-.875.369-.875.824 0 .454.392.823.875.823h.875v2.47l-4.001 7.226h.003a1.574 1.574 0 0 0-.376.958c-.032.935.881 1.699 1.874 1.699h10.25c.993 0 1.907-.764 1.874-1.699a1.57 1.57 0 0 0-.375-.958Z" fill="#FFBCA5"/></svg>