<svg width="17" height="16" fill="none" xmlns="http://www.w3.org/2000/svg"><path d="M3.23 0A2.473 2.473 0 0 0 .77 2.462c0 .668.302 1.254.677 1.826.375.573.847 1.14 1.303 1.712.914 1.144 1.712 2.308 1.712 3.23 0 .347-.27.616-.616.616a.615.615 0 0 0 0 1.23c.64 0 1.212-.336 1.539-.836.014.034.02.077.029.106.332.986.745 1.76 1.307 2.322a2.94 2.94 0 0 0 1.433.798v1.303H6.307a.615.615 0 1 0 0 1.231h4.923a.615.615 0 1 0 0-1.23H9.384v-1.304a2.94 2.94 0 0 0 1.433-.798c.562-.562.976-1.336 1.303-2.322.014-.029.019-.072.033-.106.327.5.9.837 1.539.837a.615.615 0 1 0 0-1.23.608.608 0 0 1-.616-.616c0-.923.798-2.087 1.712-3.231.457-.572.928-1.14 1.303-1.712.375-.572.678-1.158.678-1.826A2.473 2.473 0 0 0 14.307 0c-.904 0-1.688.5-2.115 1.23H5.345A2.455 2.455 0 0 0 3.23 0Zm0 1.23c.688 0 1.23.544 1.23 1.232h.015a45.62 45.62 0 0 0 .197 4.062 20.495 20.495 0 0 0-.961-1.293c-.466-.582-.918-1.13-1.236-1.616C2.158 3.13 2 2.716 2 2.462c0-.688.544-1.231 1.231-1.231Zm11.077 0c.688 0 1.23.544 1.23 1.232 0 .254-.158.668-.475 1.153-.317.486-.77 1.034-1.236 1.616a20.35 20.35 0 0 0-.961 1.293 45.61 45.61 0 0 0 .197-4.062h.014a1.22 1.22 0 0 1 1.231-1.231ZM5.759 2.463h6.02c-.044 3.25-.294 5.899-.828 7.5-.283.86-.64 1.47-1 1.831-.365.366-.72.515-1.182.515-.462 0-.818-.15-1.183-.515-.36-.36-.716-.97-1-1.831-.534-1.601-.784-4.25-.827-7.5Z" fill="#FFDA2D"/><path d="M9.218 11.6c1.498-.644 2.012-4.533 2.012-7.908l-.385 3.079A7 7 0 0 1 9.5 10.103l-.638.85a.462.462 0 0 0-.092.278c0 .255.214.47.449.369Z" fill="#FFED96"/></svg>