<svg width="23" height="23" fill="none" xmlns="http://www.w3.org/2000/svg"><path d="M17.25 8.146v11.979c0 .53-.43.958-.959.958h-11.5a.958.958 0 0 1-.958-.958V4.79c0-.53.429-.958.958-.958h8.146l4.313 4.313Z" fill="#85B7FE"/><path opacity=".05" d="M4.792 3.833H17.25v16.292H6.556c-.974 0-1.764-.79-1.764-1.764V3.833Z" fill="#3C4043"/><path opacity=".07" d="M5.27 3.833h9.556a2.424 2.424 0 0 1 2.424 2.424v13.388H6.63a1.36 1.36 0 0 1-1.36-1.36V3.833Z" fill="#3C4043"/><path d="M19.167 6.709v11.5c0 .53-.43.958-.959.958h-11.5a.958.958 0 0 1-.958-.958V2.875c0-.53.429-.958.958-.958h7.667l4.792 4.792Z" fill="#85B7FE"/><path d="M14.375 1.917V5.75c0 .53.429.959.958.959h3.834l-4.792-4.792ZM11.58 13.295a1.833 1.833 0 0 1-.1-.569c0-1.377 1.419-1.43 1.419-2.451 0-.643-.636-.683-.75-.683-.72 0-1.284.413-1.521.621V8.786c.243-.146.8-.436 1.688-.436 2.056 0 2.082 1.413 2.082 1.716 0 1.631-1.684 1.752-1.684 2.797 0 .218.08.378.114.432H11.58Zm.692 2.242c-.391 0-.805-.244-.805-.718s.43-.71.805-.71c.376 0 .793.21.793.71s-.401.718-.793.718Z" fill="#07377F"/></svg>