<svg width="16" height="16" fill="none" xmlns="http://www.w3.org/2000/svg"><path d="M16 8A8 8 0 1 1 0 8a8 8 0 0 1 16 0Z" fill="#0D6EFD"/><path d="M14.8 8c0-.986-.16-1.927-.438-2.8h1.124a7.916 7.916 0 0 0-.35-.8h-1.072C12.942 1.794 10.65 0 8 0 5.352 0 3.058 1.794 1.936 4.4H.863c-.13.259-.247.526-.35.8h1.125A9.203 9.203 0 0 0 1.2 8c0 .986.16 1.927.438 2.8H.514c.102.274.218.541.35.8h1.072C3.058 14.206 5.352 16 8 16c2.649 0 4.943-1.794 6.065-4.4h1.073c.13-.259.246-.526.349-.8h-1.124A9.216 9.216 0 0 0 14.8 8ZM14 8c0 .992-.168 1.939-.472 2.8h-2.524a20.035 20.035 0 0 0 0-5.6h2.524c.304.861.472 1.808.472 2.8Zm-6 7.2c-.774 0-1.608-1.378-2.06-3.6h4.12c-.452 2.222-1.286 3.6-2.06 3.6Zm-2.2-4.4A19.05 19.05 0 0 1 5.6 8c0-1.016.074-1.955.2-2.8h4.4c.126.845.2 1.784.2 2.8a19.05 19.05 0 0 1-.2 2.8H5.8ZM8 .8c.774 0 1.608 1.378 2.06 3.6H5.94C6.391 2.178 7.225.8 8 .8Zm5.188 3.6h-2.317c-.255-1.332-.657-2.509-1.197-3.31 1.495.523 2.748 1.725 3.514 3.31ZM6.326 1.09c-.54.802-.942 1.978-1.197 3.31H2.812c.766-1.585 2.02-2.787 3.514-3.31ZM2 8c0-.992.168-1.939.472-2.8h2.524a19.975 19.975 0 0 0 0 5.6H2.472A8.414 8.414 0 0 1 2 8Zm.812 3.6H5.13c.255 1.332.657 2.509 1.197 3.31-1.495-.523-2.748-1.725-3.514-3.31Zm6.862 3.31c.54-.802.942-1.978 1.197-3.31h2.317c-.766 1.585-2.02 2.787-3.514 3.31Z" fill="#85B7FE"/><path opacity=".1" d="M12.506 10.564 9.348 7.406a.554.554 0 0 0-.948.392v4.52c0 .521.558.735.916.428l.633-.528.475 1.092a.592.592 0 0 0 .73.287l.538-.234c.283-.12.436-.414.289-.73l-.461-1.061.64-.058c.511 0 .7-.599.346-.95Z" fill="#000"/><path opacity=".1" d="M12.364 10.705 9.206 7.547a.354.354 0 0 0-.606.25v4.52c0 .328.357.472.588.275l.838-.699.58 1.337a.374.374 0 0 0 .468.184l.538-.234c.18-.078.275-.27.184-.467l-.571-1.315.917-.082c.323-.007.447-.388.222-.61Z" fill="#000"/><path d="M12.223 10.804 9.065 7.646a.152.152 0 0 0-.172-.033.153.153 0 0 0-.093.142v4.52c0 .133.157.206.26.12l1.043-.87.687 1.582a.155.155 0 0 0 .204.08l.54-.234a.155.155 0 0 0 .08-.204l-.683-1.57 1.194-.106a.158.158 0 0 0 .098-.27Z" fill="#fff"/></svg>