<?xml version="1.0" encoding="UTF-8" standalone="no"?>
<!DOCTYPE svg PUBLIC "-//W3C//DTD SVG 1.1//EN"
 "http://www.w3.org/Graphics/SVG/1.1/DTD/svg11.dtd">
<!-- Generated by graphviz version 5.0.0 (20220707.1540)
 -->
<!-- Title: dependencies Pages: 1 -->
<svg width="583pt" height="174pt"
 viewBox="0.00 0.00 583.00 173.80" xmlns="http://www.w3.org/2000/svg" xmlns:xlink="http://www.w3.org/1999/xlink">
<g id="graph0" class="graph" transform="scale(1 1) rotate(0) translate(4 169.8)">
<title>dependencies</title>
<polygon fill="white" stroke="transparent" points="-4,4 -4,-169.8 579,-169.8 579,4 -4,4"/>
<text text-anchor="middle" x="287.5" y="-8.2" font-family="sans-serif" font-size="14.00">dependencies</text>
<g id="clust1" class="cluster">
<title>cluster_ResultTemplatesModule</title>
<polygon fill="none" stroke="black" stroke-dasharray="1,5" points="8,-32.8 8,-157.8 567,-157.8 567,-32.8 8,-32.8"/>
</g>
<g id="clust2" class="cluster">
<title>cluster_ResultTemplatesModule_declarations</title>
<polygon fill="none" stroke="black" points="367,-40.8 367,-92.8 559,-92.8 559,-40.8 367,-40.8"/>
</g>
<g id="clust4" class="cluster">
<title>cluster_ResultTemplatesModule_imports</title>
<polygon fill="none" stroke="black" points="16,-40.8 16,-92.8 359,-92.8 359,-40.8 16,-40.8"/>
</g>
<!-- ResultTemplatesComponent -->
<g id="node1" class="node">
<title>ResultTemplatesComponent</title>
<polygon fill="#ffffb3" stroke="black" points="550.92,-84.8 375.08,-84.8 375.08,-48.8 550.92,-48.8 550.92,-84.8"/>
<text text-anchor="middle" x="463" y="-62.6" font-family="Times,serif" font-size="14.00">ResultTemplatesComponent</text>
</g>
<!-- ResultTemplatesModule -->
<g id="node2" class="node">
<title>ResultTemplatesModule</title>
<polygon fill="#8dd3c7" stroke="black" points="372.64,-149.8 369.64,-153.8 348.64,-153.8 345.64,-149.8 219.36,-149.8 219.36,-113.8 372.64,-113.8 372.64,-149.8"/>
<text text-anchor="middle" x="296" y="-127.6" font-family="Times,serif" font-size="14.00">ResultTemplatesModule</text>
</g>
<!-- ResultTemplatesComponent&#45;&gt;ResultTemplatesModule -->
<g id="edge1" class="edge">
<title>ResultTemplatesComponent&#45;&gt;ResultTemplatesModule</title>
<path fill="none" stroke="black" d="M374.9,-66.8C367.13,-66.8 362.13,-66.8 362.13,-66.8 362.13,-66.8 362.13,-103.69 362.13,-103.69"/>
<polygon fill="black" stroke="black" points="358.63,-103.69 362.13,-113.69 365.63,-103.69 358.63,-103.69"/>
</g>
<!-- KrModalModule -->
<g id="node3" class="node">
<title>KrModalModule</title>
<polygon fill="#8dd3c7" stroke="black" points="351.38,-84.8 348.38,-88.8 327.38,-88.8 324.38,-84.8 240.62,-84.8 240.62,-48.8 351.38,-48.8 351.38,-84.8"/>
<text text-anchor="middle" x="296" y="-62.6" font-family="Times,serif" font-size="14.00">KrModalModule</text>
</g>
<!-- KrModalModule&#45;&gt;ResultTemplatesModule -->
<g id="edge2" class="edge">
<title>KrModalModule&#45;&gt;ResultTemplatesModule</title>
<path fill="none" stroke="black" d="M296,-84.91C296,-84.91 296,-103.79 296,-103.79"/>
<polygon fill="black" stroke="black" points="292.5,-103.79 296,-113.79 299.5,-103.79 292.5,-103.79"/>
</g>
<!-- ResultTemplatesRoutingModule -->
<g id="node4" class="node">
<title>ResultTemplatesRoutingModule</title>
<polygon fill="#8dd3c7" stroke="black" points="222.26,-84.8 219.26,-88.8 198.26,-88.8 195.26,-84.8 23.74,-84.8 23.74,-48.8 222.26,-48.8 222.26,-84.8"/>
<text text-anchor="middle" x="123" y="-62.6" font-family="Times,serif" font-size="14.00">ResultTemplatesRoutingModule</text>
</g>
<!-- ResultTemplatesRoutingModule&#45;&gt;ResultTemplatesModule -->
<g id="edge3" class="edge">
<title>ResultTemplatesRoutingModule&#45;&gt;ResultTemplatesModule</title>
<path fill="none" stroke="black" d="M222.59,-66.8C228.12,-66.8 231.47,-66.8 231.47,-66.8 231.47,-66.8 231.47,-103.69 231.47,-103.69"/>
<polygon fill="black" stroke="black" points="227.97,-103.69 231.47,-113.69 234.97,-103.69 227.97,-103.69"/>
</g>
</g>
</svg>
