<svg width="16" height="11" fill="none" xmlns="http://www.w3.org/2000/svg"><path fill-rule="evenodd" clip-rule="evenodd" d="M8 2.86a2.502 2.502 0 1 0 0 5.003A2.502 2.502 0 0 0 8 2.86Zm0 1.053A1.449 1.449 0 1 1 8 6.81a1.449 1.449 0 0 1 0-2.897Z" fill="#202124"/><path fill-rule="evenodd" clip-rule="evenodd" d="M8 .555C5.067.555 2.705 2.15.956 5.272a.527.527 0 0 0 .025.555C2.98 8.742 5.325 10.23 8 10.23s5.021-1.487 7.019-4.402a.527.527 0 0 0 .025-.555C13.295 2.15 10.934.555 8 .555Zm.13 1.054c2.377.045 4.308 1.323 5.83 3.893l-.006.008C12.188 7.971 10.21 9.175 8 9.175l-.122-.001c-2.12-.043-4.024-1.202-5.732-3.526l-.106-.147C3.59 2.885 5.564 1.608 8 1.608l.13.001Z" fill="#202124"/></svg>